<?xml version="1.0" encoding="utf-8"?>
<!-- Generator: Adobe Illustrator 22.0.1, SVG Export Plug-In . SVG Version: 6.00 Build 0)  -->
<svg version="1.1" id="Layer_1" xmlns="http://www.w3.org/2000/svg" xmlns:xlink="http://www.w3.org/1999/xlink" x="0px" y="0px"
	 viewBox="0 0 161.6 161.6" style="enable-background:new 0 0 161.6 161.6;" height="800px" width="800px" xml:space="preserve">
<style type="text/css">
	.st0{clip-path:url(#SVGID_2_);fill:#E62929;}
	.st1{clip-path:url(#SVGID_4_);fill:#FFFFFF;}
</style>
<g>
	<g>
		<defs>
			<rect id="SVGID_1_" x="1.3" y="1.3" width="159.3" height="159.3"/>
		</defs>
		<clipPath id="SVGID_2_">
			<use xlink:href="#SVGID_1_"  style="overflow:visible;"/>
		</clipPath>
		<path class="st0" d="M1.3,81C1.3,37,37,1.3,81,1.3S160.7,37,160.7,81c0,44-35.7,79.7-79.7,79.7S1.3,125,1.3,81"/>
	</g>
	<g>
		<defs>
			<rect id="SVGID_3_" x="1.3" y="1.3" width="159.3" height="159.3"/>
		</defs>
		<clipPath id="SVGID_4_">
			<use xlink:href="#SVGID_3_"  style="overflow:visible;"/>
		</clipPath>
		<path class="st1" d="M18.1,90.3l-3.8,22h70.8l-3.4,19.4h35.9l3.4-19.4h22.5l4.2-23.4h-22.5l10.2-58.7h-33.9l-4.7,23.2h0.1
			c0,0.1-0.1,0.2-0.1,0.3L89.7,89h-0.2H53.6H20L18.1,90.3z"/>
	</g>
</g>
</svg>
