<?xml version="1.0" encoding="utf-8"?>
<!-- Generator: Adobe Illustrator 24.0.3, SVG Export Plug-In . SVG Version: 6.00 Build 0)  -->
<svg version="1.1" id="Layer_1" xmlns="http://www.w3.org/2000/svg" xmlns:xlink="http://www.w3.org/1999/xlink" x="0px" y="0px"
	 viewBox="0 0 800 800" style="enable-background:new 0 0 800 800;" xml:space="preserve">
<style type="text/css">
	.st0{fill:#EF4849;}
	.st1{fill:#C7C6C5;}
	.st2{fill:#FFFFFF;}
</style>
<g>
	<path d="M666.61,67.72c-10.59-3.83-21.77-7.6-33.21-11.17l-2.62-0.82v-0.14l-5.33-1.53l-17.58-5.48l-0.01,0.49
		c-24.21-6.63-48.76-12.08-73.58-16.34l-18.11-2.9c-33.33-4.92-67.08-7.68-101.04-8.31l0.01-0.3l-14.73,0.12l-14.62-0.12l0.01,0.3
		c-31.13,0.58-62.4,2.99-93.23,7.22l0.02-0.42l-17.65,3l-11.41,1.74v0.22C219.3,41.05,175.85,52.61,134.3,67.7
		c-11.62,4.22-19.94,14.91-21.19,27.21c-3.38,33.33-5.1,67.34-5.1,101.1c0,55.46,3.3,109.03,9.82,159.39l-0.66-0.25l5.76,35.04
		c11.53,70.19,29.64,133.06,53.85,186.9c26.57,59.08,60.65,107.58,101.29,144.16l26.7,22.5l15.17,9.52
		c5.93,3.82,11.94,7.46,18.01,10.82c14.24,7.88,29.31,12.55,46.09,14.26c0.9,0.09,1.8,0.14,2.69,0.14c4.87,0,22.65-0.01,27.51-0.01
		c0.9,0,1.82-0.05,2.72-0.14c16.73-1.73,31.77-6.38,45.98-14.25c6.08-3.36,12.1-6.96,18.02-10.77l13.37-8.12l28.14-23.6
		c58.58-52.57,102.97-128.92,131.94-226.92c25.54-86.43,38.49-186.9,38.47-298.64c0-33.8-1.71-67.86-5.11-101.22
		C686.54,82.57,678.23,71.94,666.61,67.72z M209.16,597.59c-2.77-5.22-5.56-10.76-8.33-16.59c-27.48-57.24-46.4-123.33-58.03-194.08
		l63.04,24.94c3.59,25.75,8.54,51.08,13.89,76.22c5.83,27.34,12.22,54.44,18.13,81.69c-4.97-55.5-11.83-111.09-12.19-166.05
		l-0.2-6.45l-6.35-2.51l-66.15-26.17c0.02,0.52,0.05,1.04,0.07,1.57c-3.75-1.58-7.85-2.91-13.23-5.27
		c-0.07-0.53-0.15-1.06-0.22-1.59l-0.41-0.16c-7.53-53.93-11.04-110.23-11.04-167.11c0-24.61,0.92-48.97,2.71-73.05
		c0.33-7.86,0.66-14.45,0.94-19.54c0.1-1.93,0.54-3.78,1.25-5.5c0.03-0.33,0.06-0.66,0.09-0.99c0.47-4.69,3.59-8.71,8.03-10.32
		c41.6-15.11,85.15-26.63,130.19-34.28c-1.84,41.01-3.5,118.06-4.15,151.06c-0.2,10.01-4.26,19.54-11.34,26.62l-34.02,34.02
		c-1.23-1.03-2.44-2.07-3.66-3.1c-4.42-3.64-8.9-7.22-13.48-10.67c-4.6-3.45-9.29-6.78-14.12-9.96c3.21,4.82,6.52,9.51,9.88,14.14
		c3.38,4.62,6.46,9,9.9,13.53c2.72,3.52,11.06,12.46,11.06,12.46c1.53,1.56,3.09,3.12,4.67,4.67l29.67,29.67
		c7.16,7.16,11.22,16.83,11.34,26.96c0.19,15.82,0.43,31.66,0.74,47.49c1.26,59.95,3.88,119.9,8.22,179.79
		c3.38,45.84,7.71,91.73,15.46,137.27C258.65,676.69,231.39,639.83,209.16,597.59z M393.07,114.27l-1.27,96.33
		c-0.83,64.22-1.05,128.44-1.26,192.66c-0.02,64.22-0.03,128.44,0.58,192.66l0.95,96.33c0.37,19.91,0.65,39.84,1.01,59.75
		c0.06,3.76-3.19,6.73-6.94,6.35c-13.67-1.4-26.06-5.03-38.4-11.85c-10.04-5.56-19.69-11.68-28.96-18.31
		c-6.57-4.7-10.9-11.9-12.01-19.9c-0.41-2.93-0.75-5.57-0.86-6.85c-1.47-14.82-3.07-29.58-4.42-44.4l-3.36-44.57
		c-1.01-14.87-1.75-29.78-2.63-44.67c-0.94-14.87-1.44-29.8-2.14-44.71c-0.65-14.91-1.4-29.82-1.77-44.75l-1.56-44.77l-1.11-44.81
		c-0.5-14.93-0.71-29.87-1.03-44.82c-0.2-10.53,3.9-20.68,11.34-28.11l34.35-34.35c7.69,6.16,31.59,18.26,34.36,18.26
		c0.36,0,0.36-0.21-0.07-0.65c-6.89-7.14-50.39-51.28-71.11-72.31c-7.04-7.15-11.03-16.73-11.14-26.75l-1.71-149.68
		c36.05-5.5,73-8.53,110.68-8.82C394,65.78,393.6,90.03,393.07,114.27z M509.02,706.6c3.04-18.54,5.54-37.15,7.68-55.78
		c6.39-66.91,11.37-138.39,14.5-198.05c0.18-4.07,0.37-8.14,0.54-12.22l1.48-38.52l1.16-38.53l0.31-16.77
		c0.19-10.03,4.25-19.59,11.34-26.68l40.69-40.69c3.81-3.81,3.81-9.99,0-13.8l-43.93-43.93c-6.66-6.66-10.66-15.51-11.26-24.9
		c-1.37-21.45-3.22-42.89-5.76-64.32c-2.21,21.46-3.89,42.91-5.24,64.35c-0.59,9.41-4.6,18.27-11.26,24.93l-16.48,16.48
		c-8.68,8.48-16.89,16.6-24.96,24.96l-2.43,2.43c-0.2,0.2-0.35,0.43-0.52,0.64c-1.89,1.97-3.76,3.96-5.64,5.98
		c-4.49,5.22-16.69,17.12-25.76,26.48c-0.47,0.49-0.46,0.71-0.07,0.71c2.88,0,26.48-11.86,34.03-17.97l36.28,36.28
		c7.41,7.4,11.49,17.5,11.34,27.99c-0.08,5.82-0.15,11.63-0.23,17.45c-0.34,25.62-0.74,51.23-1.31,76.85
		c-1.14,51.22-3.17,102.4-6.07,153.48l-1.14,19.16l-1.45,19.12l-1.46,19.12l-1.82,19.07c-0.86,10.04-1.95,20.04-3.2,30.01
		c-1.46,11.64-7.68,22.17-17.25,28.96c-8.97,6.35-18.28,12.22-27.96,17.58c-12.3,6.81-24.67,10.44-38.3,11.84
		c-1.55,0.16-3.01-0.25-4.2-1.05c-2.17-0.85-5.09-4.39-2.91-3.48c0.07,0.03,0.13-0.2,0.19-0.61c-0.08-0.42-0.12-0.85-0.11-1.3
		c0.36-19.88,0.64-39.77,1.01-59.64l0.95-96.33c0.6-64.22,0.6-128.44,0.58-192.66c-0.21-64.22-0.43-128.44-1.26-192.66l-1.27-96.33
		c-0.53-24.24-0.92-48.49-1.48-72.73c71.3,0.54,140.05,10.81,204.8,29.39c0.52,14.9,1.46,29.77,2.37,44.67
		c0.94,14.26,1.93,28.51,3.08,42.77c1.16,14.26,2.46,28.52,3.98,42.79c0.76-8.79,1.44-17.58,2.05-26.38l4.62-94.52
		c0.04-1.49,0.09-2.98,0.12-4.47c10.9,3.39,21.7,7.01,32.34,10.88c4.41,1.6,7.55,5.55,8,10.19c3.3,32.54,5,65.63,5,99.18
		C672.77,402.18,626.91,600.81,509.02,706.6z"/>
	<path class="st0" d="M671.36,54.7c-8.7-3.16-17.78-6.26-27.07-9.24l-0.01-0.41l-14.83-4.25l-34.98-10.91l-0.02,1.34
		c-15.74-3.93-31.61-7.38-47.59-10.34l-42.94-6.74c-24.68-3.19-49.58-5.22-74.6-6.1l0.02-0.76L400.49,7.5l-28.84-0.22l0.02,0.79
		c-21.55,0.78-43.11,2.37-64.52,4.87l0.05-1.12l-34.44,5.85l-23.18,3.53l0.01,0.58c-41.02,7.84-81.31,18.88-119.97,32.92
		c-16.59,6.02-28.45,21.26-30.23,38.82c-1.47,14.48-2.63,29.09-3.48,43.75l-0.97,20.53c-0.47,12.74-0.72,25.51-0.72,38.23
		c0,47.63,2.41,93.9,7.18,138l-1.8-0.71l7.73,47.03l1,7.1l0.19,0.07l0.81,4.93c11.72,71.37,30.19,135.41,54.9,190.34
		c27.36,60.85,62.58,110.9,104.65,148.77l38.61,30.27l31.09,18.11c13.76,6.57,28.28,10.58,44.13,12.2c1.37,0.14,2.76-0.06,4.09,0.21
		c5.22,1.04,24.14,0.8,31.65-0.22c15.82-2.15,33.67-7.65,44.2-12.27c38.96-19.22,69.11-47.93,69.11-47.93
		c60.52-54.3,106.27-132.8,135.97-233.3c25.91-87.7,39.06-189.5,39.06-302.58c-0.02-34.29-1.77-68.81-5.2-102.63
		C699.79,75.9,687.93,60.71,671.36,54.7z M654.42,494.67c-28.97,98.01-73.36,174.36-131.94,226.92l-28.14,23.6l-13.37,8.12
		c-5.92,3.81-11.94,7.41-18.02,10.77c-14.2,7.87-29.25,12.52-45.98,14.25c-0.9,0.09-1.82,0.14-2.72,0.14
		c-4.87,0-22.65,0.01-27.51,0.01c-0.89,0-1.78-0.05-2.69-0.14c-16.78-1.71-31.86-6.38-46.09-14.26c-6.07-3.36-12.08-7-18.01-10.82
		l-15.17-9.52l-26.7-22.5c-40.64-36.58-74.71-85.08-101.29-144.16c-24.21-53.84-42.33-116.72-53.85-186.9l-5.76-35.04l0.66,0.25
		c-6.52-50.37-9.82-103.93-9.82-159.39c0-33.77,1.71-67.78,5.1-101.1c1.25-12.3,9.57-22.99,21.19-27.21
		c41.55-15.08,85-26.64,129.23-34.42v-0.22l11.41-1.74l17.65-3l-0.02,0.42c30.82-4.23,62.1-6.64,93.23-7.22l-0.01-0.3l14.62,0.12
		l14.73-0.12l-0.01,0.3c33.96,0.63,67.72,3.38,101.04,8.31l18.11,2.9c24.82,4.26,49.37,9.72,73.58,16.34l0.01-0.49l17.58,5.48
		l5.33,1.53v0.14l2.62,0.82c11.44,3.57,22.62,7.33,33.21,11.17c11.62,4.22,19.94,14.85,21.18,27.09
		c3.39,33.36,5.11,67.42,5.11,101.22C692.91,307.77,679.96,408.25,654.42,494.67z"/>
	<path class="st1" d="M130.87,122.97c-1.79,24.08-2.71,48.44-2.71,73.05c0,56.88,3.51,113.17,11.04,167.11l0.41,0.16
		C126.83,271.19,128.81,172.18,130.87,122.97z"/>
	<path class="st1" d="M267.86,389.24c-0.31-15.83-0.56-31.67-0.74-47.49c-0.12-10.12-4.18-19.8-11.34-26.96l-29.67-29.67
		c-1.58-1.55-3.14-3.1-4.67-4.67c0,0-8.34-8.94-11.06-12.46c-3.44-4.53-6.52-8.91-9.9-13.53c-3.36-4.63-6.67-9.32-9.88-14.14
		c4.83,3.19,9.52,6.51,14.12,9.96c4.59,3.45,9.06,7.03,13.48,10.67c1.22,1.03,2.43,2.07,3.66,3.1l34.02-34.02
		c7.08-7.08,11.14-16.61,11.34-26.62c0.65-33,2.31-110.06,4.15-151.06c-45.04,7.65-88.59,19.17-130.19,34.28
		c-4.44,1.61-7.55,5.63-8.03,10.32c-0.03,0.33-0.06,0.66-0.09,0.99c1.82-4.43,5.46-7.97,10.16-9.56c6.95-2.35,14.64-5.13,15.61-5.31
		c-2.46,19.88-13.47,123.62-5.85,285.51l66.15,26.17l6.35,2.51l0.2,6.45c0.36,54.96,7.22,110.55,12.19,166.05
		c-5.91-27.24-12.3-54.35-18.13-81.69c-5.35-25.14-10.3-50.47-13.89-76.22l-63.04-24.94c11.62,70.75,30.54,136.84,58.03,194.08
		c-22.91-48.12-45.36-116.33-57.11-191.88c27.66,11.07,57.3,22.92,57.3,22.92l-45.84-12.65c6.72,24.5,34.38,146.22,73.5,229.99
		c-6.27-8.55-12.86-19.26-19.52-31.8c22.22,42.24,49.49,79.1,82.39,108.7c-7.75-45.54-12.08-91.43-15.46-137.27
		C271.74,509.14,269.12,449.18,267.86,389.24z M259.9,96.69c9.48,61.89,2.94,122.36-4.15,122.69c-1.52,0.08-2.7-4.22-3.57-11.33
		C247.38,168.87,251.88,44.3,259.9,96.69z M268.2,584.33c-4.15,0.21-9.31-49.89-10.27-98c-1.33-66.5,2.71-133.49,4.74-97.21
		c1.62,28.88,2.49,71.69,4.36,109.85C269.25,544.91,272.07,584.14,268.2,584.33z"/>
	<path class="st1" d="M659.76,86.62c-10.65-3.87-21.44-7.48-32.34-10.88c-0.03,1.49-0.08,2.98-0.12,4.47l0.11-2.19
		c0,0,5.93,0.88,7.71,3.26l-13.63,117.96l1.2-24.5c-0.62,8.8-1.29,17.59-2.05,26.38c-1.53-14.27-2.83-28.53-3.98-42.79
		c-1.15-14.26-2.14-28.51-3.08-42.77c-0.92-14.9-1.85-29.77-2.37-44.67c-64.75-18.58-133.5-28.84-204.8-29.39
		c0.57,24.24,0.95,48.49,1.48,72.73l1.27,96.33c0.83,64.22,1.05,128.44,1.26,192.66c0.02,64.22,0.02,128.44-0.58,192.66l-0.95,96.33
		c-0.37,19.88-0.65,39.77-1.01,59.64c-0.01,0.45,0.03,0.88,0.11,1.3c3.51-22.76,4.61-698.32-1.38-708.34
		c1.77-2.37,2.66-0.29,2.66-0.29s16.6,485.28,2.37,712.9c-0.28,0.03-0.6-0.05-0.95-0.18c1.19,0.8,2.65,1.21,4.2,1.05
		c13.62-1.4,25.99-5.03,38.3-11.84c9.68-5.36,19-11.24,27.96-17.58c9.57-6.79,15.79-17.32,17.25-28.96
		c1.25-9.97,2.34-19.97,3.2-30.01l1.82-19.07l1.46-19.12l1.45-19.12l1.14-19.16c2.9-51.08,4.93-102.26,6.07-153.48
		c0.57-25.61,0.97-51.22,1.31-76.85c0.08-5.81,0.15-11.63,0.23-17.45c0.15-10.48-3.93-20.58-11.34-27.99l-36.28-36.28
		c-7.55,6.1-31.15,17.97-34.03,17.97c-0.39,0-0.41-0.22,0.07-0.71c9.07-9.36,21.27-21.26,25.76-26.48c1.88-2.02,3.75-4.01,5.64-5.98
		c0.17-0.21,0.32-0.44,0.52-0.64l2.43-2.43c8.07-8.36,16.29-16.48,24.96-24.96l16.48-16.48c6.66-6.66,10.67-15.52,11.26-24.93
		c1.34-21.44,3.02-42.88,5.24-64.35c2.54,21.43,4.39,42.87,5.76,64.32c0.6,9.39,4.6,18.24,11.26,24.9l43.93,43.93
		c3.81,3.81,3.81,9.99,0,13.8l-40.69,40.69c-7.09,7.09-11.16,16.65-11.34,26.68l-0.31,16.77l-1.16,38.53l-1.48,38.52
		c-0.18,4.07-0.36,8.14-0.54,12.22c2.28-43.51,3.58-80.75,3.73-105.33c1.09-13.63,3.56-17.19,8.9-23.12c0,0-8.88,285.71-32.6,379.37
		c1.92-17.07,3.75-34.8,5.47-52.86c-2.15,18.63-4.64,37.24-7.68,55.78C626.91,600.81,672.77,402.18,672.77,196
		c0-33.55-1.7-66.64-5-99.18C667.31,92.17,664.17,88.22,659.76,86.62z M506.13,344.66c7.14-0.35-7.81,349.99-14.65,305.28
		C484.63,605.23,501.01,344.92,506.13,344.66z M502.34,217.02c-7.14,0.35,10.18-123.89,14.22-78.84
		C521.3,190.94,507.46,216.77,502.34,217.02z M604.29,90.76c8.5,55.45,8.72,102.24,2.37,102.55
		C597.81,193.75,595.8,35.32,604.29,90.76z M600.74,544.82c-2.1-4.04,34.55-100.62,45.64-203.12
		c13.02-120.38,5.61-247.87,13.44-214.97C687.09,241.3,621.35,584.53,600.74,544.82z"/>
	<path class="st1" d="M285.58,200.04c0.12,10.02,4.1,19.6,11.14,26.75c20.72,21.02,64.22,65.17,71.11,72.31
		c0.43,0.44,0.43,0.65,0.07,0.65c-2.77,0-26.67-12.09-34.36-18.26l-34.35,34.35c-7.44,7.44-11.54,17.58-11.34,28.11
		c0.32,14.94,0.53,29.89,1.03,44.82l1.11,44.81l1.56,44.77c0.37,14.93,1.12,29.84,1.77,44.75c0.71,14.91,1.2,29.84,2.14,44.71
		c0.88,14.89,1.62,29.79,2.63,44.67l3.36,44.57c1.36,14.82,2.95,29.58,4.42,44.4c0.1,1.27,0.45,3.92,0.86,6.85
		c1.11,8,5.44,15.2,12.01,19.9c9.27,6.64,18.92,12.75,28.96,18.31c12.34,6.82,24.73,10.45,38.4,11.85c3.75,0.38,7-2.58,6.94-6.35
		c-0.36-19.91-0.64-39.84-1.01-59.75l-0.95-96.33c-0.61-64.22-0.6-128.44-0.58-192.66c0.21-64.22,0.43-128.44,1.26-192.66
		l1.27-96.33c0.53-24.24,0.93-48.49,1.48-72.73c-37.68,0.29-74.63,3.31-110.68,8.82L285.58,200.04z M380.83,730.56
		c-6.86-44.71-8.28-402.04-3.16-402.29C384.8,327.92,387.67,775.26,380.83,730.56z M376.68,56.78c1.08-0.6,9.71-5.97,10.47,1.58
		c5.35,52.84-10.56,271.8-12.65,182.57C372.14,139.38,369.96,60.54,376.68,56.78z M287.46,54.46c4.2-0.7,9.24-1.23,10.88-1.53
		c0,47.88,5.91,144.87,1.58,172.99c-3.56-3.71-8.15-9.94-10.82-16.75C287.02,106.03,287.31,60.54,287.46,54.46z"/>
	<path class="st2" d="M387.15,58.36c-0.76-7.54-9.39-2.18-10.47-1.58c-6.72,3.75-4.54,82.59-2.18,184.15
		C376.59,330.16,392.5,111.2,387.15,58.36z"/>
	<path class="st2" d="M299.91,225.92c4.33-28.13-1.58-125.12-1.58-172.99c-1.63,0.3-6.67,0.83-10.88,1.53
		c-0.15,6.08-0.44,51.57,1.63,154.71C291.76,215.98,296.36,222.21,299.91,225.92z"/>
	<path class="st2" d="M139.83,364.88c5.37,2.36,9.48,3.7,13.23,5.27c-0.03-0.53-0.05-1.04-0.07-1.57l-13.37-5.29
		C139.68,363.82,139.75,364.35,139.83,364.88z"/>
	<path class="st2" d="M131.81,103.43c-0.27,5.09-0.61,11.68-0.94,19.54c0.62-8.38,1.35-16.73,2.19-25.04
		C132.35,99.66,131.91,101.51,131.81,103.43z"/>
	<path class="st2" d="M158.83,83.07c-0.97,0.17-8.66,2.95-15.61,5.31c-4.7,1.59-8.34,5.14-10.16,9.56
		c-0.84,8.31-1.56,16.66-2.19,25.04c-2.07,49.21-4.05,148.21,8.73,240.32l13.37,5.29C145.37,206.68,156.38,102.95,158.83,83.07z"/>
	<path class="st2" d="M255.76,219.38c7.09-0.34,13.62-60.8,4.15-122.69c-8.03-52.39-12.52,72.18-7.71,111.37
		C253.06,215.17,254.24,219.47,255.76,219.38z"/>
	<path class="st2" d="M262.66,389.12c-2.03-36.28-6.07,30.71-4.74,97.21c0.96,48.11,6.13,98.21,10.27,98
		c3.87-0.19,1.05-39.42-1.18-85.36C265.15,460.81,264.28,418,262.66,389.12z"/>
	<path class="st2" d="M646.38,341.7c-11.09,102.5-47.74,199.08-45.64,203.12c20.61,39.71,86.35-303.52,59.08-418.09
		C651.99,93.83,659.4,221.32,646.38,341.7z"/>
	<path class="st2" d="M606.66,193.31c6.35-0.31,6.13-47.1-2.37-102.55C595.8,35.32,597.81,193.75,606.66,193.31z"/>
	<path class="st2" d="M502.34,217.02c5.12-0.25,18.96-26.09,14.22-78.84C512.52,93.13,495.2,217.37,502.34,217.02z"/>
	<path class="st2" d="M506.13,344.66c-5.12,0.25-21.5,260.56-14.65,305.28C498.32,694.65,513.26,344.32,506.13,344.66z"/>
	<path class="st2" d="M377.66,328.27c-5.12,0.25-3.7,357.58,3.16,402.29C387.67,775.26,384.8,327.92,377.66,328.27z"/>
	<path class="st2" d="M209.16,597.59c-2.86-5.44-5.64-10.98-8.33-16.59C203.61,586.83,206.39,592.37,209.16,597.59z"/>
	<path class="st2" d="M155.19,399.4l45.84,12.65c0,0-29.64-11.85-57.3-22.92c11.75,75.55,34.2,143.76,57.11,191.88
		c2.7,5.62,5.47,11.15,8.33,16.59c6.66,12.54,13.25,23.24,19.52,31.8C189.57,545.62,161.9,423.9,155.19,399.4z"/>
	<path class="st2" d="M626.02,115.42c0.49-11.74,0.98-23.47,1.28-35.2l-4.62,94.52c0.39-5.48,0.75-10.97,1.1-16.46
		C624.65,144,625.36,129.72,626.02,115.42z"/>
	<path class="st2" d="M635.12,81.28c-1.78-2.37-7.71-3.26-7.71-3.26l-0.11,2.19c-0.31,11.74-0.79,23.46-1.28,35.2
		c-0.66,14.29-1.37,28.58-2.24,42.86c-0.34,5.49-0.71,10.97-1.1,16.46l-1.2,24.5L635.12,81.28z"/>
	<path class="st2" d="M531.21,452.76c-3.13,59.67-8.11,131.14-14.5,198.05c2.16-18.75,3.97-37.52,5.64-56.29
		C526.55,547.32,529.09,500.04,531.21,452.76z"/>
	<path class="st2" d="M543.83,324.31c-5.34,5.93-7.81,9.49-8.9,23.12c-0.14,24.58-1.44,61.81-3.73,105.33
		c-2.11,47.28-4.66,94.56-8.86,141.76c-1.67,18.77-3.48,37.54-5.64,56.29c-1.72,18.06-3.55,35.79-5.47,52.86
		C534.95,610.02,543.83,324.31,543.83,324.31z"/>
	<path class="st2" d="M407.99,753.17c-0.06,0.41-0.13,0.64-0.19,0.61c-2.18-0.91,0.74,2.63,2.91,3.48
		C409.32,756.33,408.31,754.88,407.99,753.17z"/>
	<path class="st2" d="M409.27,44.54c0,0-0.89-2.09-2.66,0.29c5.98,10.01,4.88,685.58,1.38,708.34c0.32,1.71,1.33,3.16,2.72,4.09
		c0.34,0.13,0.66,0.21,0.95,0.18C425.87,529.82,409.27,44.54,409.27,44.54z"/>
</g>
</svg>
