<?xml version="1.0" encoding="utf-8"?>
<!-- Generator: Adobe Illustrator 19.0.0, SVG Export Plug-In . SVG Version: 6.00 Build 0)  -->
<svg version="1.1" id="Layer_1" xmlns="http://www.w3.org/2000/svg" xmlns:xlink="http://www.w3.org/1999/xlink" x="0px" y="0px"
	 viewBox="1235 99.8 1143 699.1" style="enable-background:new 1235 99.8 1143 699.1;" xml:space="preserve">
<style type="text/css">
	.st0{fill:url(#SVGID_1_);}
	.st1{fill:url(#SVGID_2_);}
	.st2{fill:url(#SVGID_3_);}
	.st3{fill:#F9F9F9;}
</style>
<linearGradient id="SVGID_1_" gradientUnits="userSpaceOnUse" x1="2016.5238" y1="148.5823" x2="2016.5238" y2="755.8711">
	<stop  offset="0" style="stop-color:#FFFFFF"/>
	<stop  offset="1" style="stop-color:#F1F1F3;stop-opacity:0.8"/>
</linearGradient>
<rect x="1713.9" y="148.6" class="st0" width="605.2" height="607.3"/>
<linearGradient id="SVGID_2_" gradientUnits="userSpaceOnUse" x1="1806.5" y1="797.2294" x2="1806.5" y2="98.1774" gradientTransform="matrix(1 0 0 1 0 1.5799)">
	<stop  offset="0" style="stop-color:#231F20"/>
	<stop  offset="0.2976" style="stop-color:#252223"/>
	<stop  offset="0.4767" style="stop-color:#2E2A2B"/>
	<stop  offset="0.6243" style="stop-color:#3C3839"/>
	<stop  offset="0.7548" style="stop-color:#504C4D"/>
	<stop  offset="0.874" style="stop-color:#696768"/>
	<stop  offset="0.9836" style="stop-color:#898788"/>
	<stop  offset="1" style="stop-color:#8E8C8D"/>
</linearGradient>
<path class="st1" d="M2378,204v490.2c0,27-9.9,53.3-28.5,72.9c-6.9,7.3-14.8,13.6-23.6,18.6c-16,9.1-34.5,13.7-52.9,13.1
	c-311.7,0-623.4-0.1-935,0c-39.9,1.2-78.3-24.7-94-61.1c-2.5-5.3-4.3-10.7-5.8-16.3c-2.2-8.5-3.2-17.4-3.2-26.2V204.1
	c0-14.2,2.7-28.2,8.2-41.3c7.8-18.1,20.2-34.2,36.9-44.9c9.5-6.8,20.2-11.4,31.4-14.5c8.9-2.5,18.2-3.6,27.5-3.6h934.9
	c10.3,0,20.6,1.4,30.5,4.4c10.2,3.1,20,7.4,28.6,13.7c15.7,10.2,27.6,25,35.4,41.8C2374.9,173.6,2378,188.7,2378,204z M2318,327.8
	c0.6-22.6,1.8-45.3,0.7-68c-1.1-16.3-5.2-32.5-12.7-47c-18.3-38.1-59.2-65.5-102-64.1c-115,0.1-230,0-345,0
	c-14.9,0.1-29.7-0.5-44.6,0.6c-18.1,2.1-35.6,8.8-50.4,19.5c-21.9,14.7-37.1,37.8-45.5,62.6c-5.6,17.6-4.4,36.2-4.6,54.4
	c0.3,47,0.5,290.7,0,365.6c0.7,15.9,6.5,31.4,14.1,45.4c14.3,27,40.2,47.2,69.5,55.4c8.1,2.3,16.5,3.4,24.9,3.6
	c12.2,0.3,24.4-0.1,36.6,0c115,0,230,0,345,0c18.7,0.3,37.6-3.9,54-13c37.8-19.7,62.6-62.3,60.1-105
	C2317.9,534.5,2318,431.1,2318,327.8z"/>
<linearGradient id="SVGID_3_" gradientUnits="userSpaceOnUse" x1="2016" y1="166.7423" x2="2016" y2="614.8127" gradientTransform="matrix(1 0 0 -1 0 843.47)">
	<stop  offset="0.55" style="stop-color:#231F20"/>
	<stop  offset="1" style="stop-color:#929196;stop-opacity:0.8"/>
</linearGradient>
<path class="st2" d="M2243,228.7c-40.6,0-81.1,0.1-122,0c-12.8,39.5-99.7,320.5-105.3,334.3c-0.1-0.2-0.1-0.4-0.2-0.6
	c-0.1,0.2-0.1,0.4-0.2,0.6c-23.9-75.8-95.3-298.7-107.3-334.3c-3.7,0-117.5,0-119,0c0.4,22.3,0,353,0,448c17.4,0,64,0,69.8,0
	c0-68.7,0-373.5,0-374.2c1.9,5.9,111.2,334.7,125.1,374.2c20.8-0.1,41.4,0.2,62.2,0c0.2,0,0.4,0,0.6,0
	c12.7-35.2,109.2-324.7,126.4-374.2c0,0.1-0.2,249.4,0,374.2c23.3,0,46.6,0,69.9,0C2243,527.4,2243,378,2243,228.7z"/>
<path class="st3" d="M1366.5,228.7c43.4,0,234.9,0,277.3,0c0,7.5,0.1,37.1,0,44.2c-20.7,0-202.2,0-222.9,0c0,12,0,137.8,0,151.9
	c35.6,0,184,0,222.8,0c0,8,0,40,0,47.9c-33.7,0-189,0-222.8,0c-0.1,34.2-0.1,170.2,0,204c-9,0-45.2,0-54.4,0
	C1366.5,667.6,1366.5,235.8,1366.5,228.7z"/>
</svg>
