<?xml version="1.0" encoding="utf-8"?>
<!-- Generator: Adobe Illustrator 21.0.0, SVG Export Plug-In . SVG Version: 6.00 Build 0)  -->
<svg version="1.1" id="Layer_1" xmlns="http://www.w3.org/2000/svg" xmlns:xlink="http://www.w3.org/1999/xlink" x="0px" y="0px"
	 viewBox="0 0 1016.9 574.3" style="enable-background:new 0 0 1016.9 574.3;" xml:space="preserve">
<style type="text/css">
	.st0{fill:#1E1A1A;stroke:#1E1A1A;stroke-width:9.375000e-02;}
	.st1{fill:#C0392B;stroke:#C0392B;stroke-width:9.375000e-02;}
</style>
<path class="st0" d="M521.2,5.8c0-2.9,1.9-6.2,5.3-5.6c159,0,318,0,477,0c4,0,8-0.2,12,0.4c1.9,3.8,1.3,8,1.3,12.1
	c0,44.7,0,89.4,0,134.1c-0.1,4.4,0.6,9-1.4,13.1c-3.6,1-7.3,0.5-11,0.5c-106.3,0-212.6,0-319,0c-5,0-9.9-0.2-14.8,0.2
	c0.1,52.1,0,104.2,0.1,156.2c-1.6,1.1-3.9,1.6-5.3-0.2c-30.7-30.5-61.4-61.1-92-91.8c-6.1-5.9-11.8-12.2-18.2-17.8
	c-11.3-11.2-22.5-22.6-33.8-33.7C521.2,117.5,521.4,61.6,521.2,5.8z"/>
<path class="st1" d="M0,0c66.5-0.3,133.4,0.1,199.9,0c77.7,103.3,155.2,207.7,232.8,311c1.2-0.8,2.4-1.6,3.4-2.5
	c24.1-24.2,48.4-48.4,72.5-72.6c1.6-1.5,3.4-3.2,5.8-2.9c1.2,0.7,2.2,1.6,3.3,2.6c27.1,26.6,54,53.4,81.2,79.8
	c14.3,14,28.3,28.3,42.9,42.1c1.3,1.4,2.9,2.6,3.7,4.4c-0.2,1.8-1.3,3.2-2.4,4.5c-66.8,66.9-133.8,133.5-200.7,200.3
	c-2.8,2.7-5.5,5.3-8.5,7.8c-8.9-0.2-17.7-0.1-26.6,0c-3.1-2-5.8-4.5-7.9-7.5c-48.1-63.5-95.8-127.3-143.6-191
	C171.1,262.8,86.5,150,2,37.1c-0.9-1.3-2.1-2.6-2-4.3C0,22.3-0.1,10.5,0,0z"/>
<path class="st0" d="M829.1,258.2c54.5-0.4,108.9-0.1,163.4-0.2c7.3,0.1,14.6-0.3,21.9,0.1c2.1,3.1,1.3,6.9,1.4,10.4
	c0,99.3,0.1,198.7,0.1,298c-0.1,2.5-0.5,5.4-2.6,7.1c-1.3,0.2-2.6,0.4-3.8,0.4c-170.3,0,0,0-526.7,0
	c138.4-141.1,123.9-126.5,138.4-141.1c58.4,0,116.8,0,175.2,0c33.2-0.1,66.4,0.3,99.6-0.2c-0.3-14.3,0.4-28.7-0.3-43
	c-22,0.1-44,0-66,0.1c-2.2-0.7-2.1-3.6-2.2-5.4c0.2-15.6-0.4-31.3,0.4-46.9c0-25,0-50.1,0-75.1C827.6,261,828.4,259.6,829.1,258.2z"
	/>
</svg>
