<?xml version="1.0" encoding="utf-8"?>
<!-- Generator: Adobe Illustrator 19.0.0, SVG Export Plug-In . SVG Version: 6.00 Build 0)  -->
<svg version="1.1" id="Layer_1" xmlns="http://www.w3.org/2000/svg" xmlns:xlink="http://www.w3.org/1999/xlink" x="0px" y="0px"
	 viewBox="-16 243.9 239 349.9" style="enable-background:new -16 243.9 239 349.9;" xml:space="preserve">
<style type="text/css">
	.st0{fill:#FFFFFF;}
	.st1{fill:#020202;}
</style>
<g id="_x23_ffffffff">
	<path class="st0" d="M154.4,512.3c10.7-6,20.4-13.5,31.2-19.3c0.5,9.4-1.9,19.2-8.1,26.4c-7.4,8.5-18.7,12.4-29.6,13.5
		c-8,1.1-16.1,0.5-24.1,0.2c-0.1-0.3-0.3-0.9-0.3-1.2c7.4-3.3,13.7-8.7,20.7-12.7c1.3-1,2.8-1.8,4.3-2.3c-0.4,3.5-0.1,7.3,2.6,9.8
		c0.5-0.5,1.6-1.4,2.2-1.9C154.9,520.7,154,516.4,154.4,512.3z"/>
	<path class="st0" d="M22.4,493c10.5,6.2,20.5,13.4,31.1,19.5c0,4.7-1.2,10.2,2.4,13.9c0.7-0.5,1.4-1,2.2-1.4c0.4-1,0.8-1.9,1.2-2.9
		c0-1.8,0-3.5,0-5.3c9,4.2,16.5,11.2,25.6,15.3c-1,0.4-2,0.7-3.1,0.9c-13.9,0.9-28.6,0.7-41.3-5.8c-8.8-4.4-15.6-12.9-17.4-22.6
		C22.5,500.9,21.3,496.8,22.4,493z"/>
</g>
<g id="_x23_020202ff">
	<path class="st1" d="M84,254.7c6.5-3.8,12.8-8.5,20-10.8c6.1,2,11.5,5.9,17.1,9.1c33.8,21.2,59.9,53.3,76.7,89.2
		c6.6,14.2,12,28.9,16.4,44c4.3,13.8,7.6,27.9,8.7,42.3c0.4,12.2,0.4,24.6-1.6,36.7c-0.5,1.9-0.7,3.9-1,5.9c-1.8,8-3.6,16.1-6,24
		c-3.1,11.9-7.8,23.2-11.1,35c-0.9,3-1.9,6-2.9,9c-4,11-13.5,18.8-23.3,24.6c-3.6,2.1-7.2,4.4-11,6c-8.7,4.7-17.8,8.5-26.8,12.6
		c-11.6,4.3-23,9.7-35.3,11.5c-9.4-1.3-18.2-5-26.9-8.4c-13.2-4.8-25.8-11-38.4-17.2c-10.6-5.7-21.4-12.2-28-22.6
		c-4-6.9-5.8-14.9-8.1-22.5c-7.9-22.8-15.3-46.1-17.4-70.3c-2.5-15.3,0-30.8,3.1-45.7c1.3-7.8,3.8-15.4,6-23
		c5.9-20.1,13.7-39.7,24.1-57.9c5.2-9.2,11.2-18,17.5-26.4c1.5-1.9,2.9-3.8,4.5-5.5C52.6,278.8,67.6,265.6,84,254.7 M58.7,324.4
		c-3.9,8.2-8.4,16.1-12.1,24.4c-1.8,4.2-3,9-1.9,13.5c1.4,3.7,5.9,4.9,9.5,4.1c8.4-1.6,15.5-7.1,24-8.5c16.7-3.3,34-3.3,50.7-0.1
		c8.6,1.3,15.8,6.6,24.1,8.5c4,0.9,8.7-0.3,10.4-4.3c0.1-2.8,0.4-5.6-0.5-8.3c-3.1-10-8.7-18.8-13.1-28.2
		c-12.3-21.9-27.7-42.2-45.8-59.7C85.9,282.9,71,303,58.7,324.4 M154.4,512.3c-0.4,4.2,0.4,8.5-1.2,12.5c-0.5,0.5-1.6,1.4-2.2,1.9
		c-2.6-2.6-3-6.4-2.6-9.8c-1.6,0.6-3,1.3-4.3,2.3c-7,4-13.3,9.4-20.7,12.7c0.1,0.3,0.3,0.9,0.3,1.2c8,0.3,16.1,1,24.1-0.2
		c10.9-1.1,22.3-5,29.6-13.5c6.3-7.2,8.6-17.1,8.1-26.4C174.9,498.7,165.1,506.2,154.4,512.3 M22.4,493c-1.1,3.8,0.1,7.9,0.7,11.8
		c1.8,9.7,8.6,18.2,17.4,22.6c12.7,6.5,27.4,6.7,41.3,5.8c1-0.3,2.1-0.6,3.1-0.9c-9.1-4.1-16.6-11.1-25.6-15.3c0,1.8,0,3.5,0,5.3
		c-0.4,1-0.8,1.9-1.2,2.9c-0.7,0.5-1.4,0.9-2.2,1.4c-3.6-3.7-2.4-9.3-2.4-13.9C42.9,506.4,33,499.2,22.4,493z"/>
</g>
</svg>
