<?xml version="1.0" encoding="utf-8"?>
<!-- Generator: Adobe Illustrator 18.1.1, SVG Export Plug-In . SVG Version: 6.00 Build 0)  -->
<svg version="1.1" id="Layer_1" xmlns="http://www.w3.org/2000/svg" xmlns:xlink="http://www.w3.org/1999/xlink" x="0px" y="0px"
	 viewBox="208.1 90.9 422.6 442.6" enable-background="new 208.1 90.9 422.6 442.6" xml:space="preserve">
<g id="Layer_2">
	<g>
		<g>
			<polygon fill="none" points="423,400.5 405.8,376.8 400.9,381.8 407.5,391 401.2,397.3 394.2,388.4 389.1,393.6 406.3,417.4 
				411.5,412.1 404.8,402.7 411.4,396.1 418.1,405.5 			"/>
			<polygon fill="none" points="431.1,383.9 425.3,389.5 411.7,370.9 406.7,375.8 423.9,399.7 434.6,389.1 			"/>
			<g>
				<polygon fill="none" points="426.8,355.8 413.6,368.9 417.4,374.3 421.7,369.8 431.7,383.3 431.7,383.3 435.3,388.4 
					435.3,388.4 435.3,388.4 440.7,383 427.1,364.6 430.7,361 				"/>
				<polygon fill="none" points="440.8,341.7 446.5,361.1 431,351.7 427.7,354.9 427.5,355.2 432.2,361.3 451.1,372.4 455.2,368.5 
					446.8,335.9 				"/>
			</g>
		</g>
		<g>
			<path fill="none" d="M463.4,357.1c0.9,1.3,0.7,3.4-0.1,4.3c-1,1-2.8,0.9-3.6-0.4c-0.9-1.3-0.7-3.4,0.1-4.3
				C460.7,355.8,462.7,356.1,463.4,357.1z"/>
			<path fill="none" d="M469.7,343.9c2.2,3.3,3.9,7.3,0.6,10.5c-3.3,3.3-6.4,0.7-8.8-2.4c-2.2-3.3-3.9-7.3-0.6-10.5
				C464.2,338.4,467.4,340.7,469.7,343.9z M464.6,349c0.6,0.6,2.4,3.4,3.4,2.2c1-1-0.9-3.6-1.5-4.2s-2.4-3.4-3.4-2.2
				C462.1,345.9,464,348.1,464.6,349z"/>
			<path fill="none" d="M469.5,333.6l1,1.5l0,0c-0.1-1.8-0.1-3,1.2-4.3l2.4,3.4c-0.1,0.1-0.3,0.3-0.4,0.4c-2.1,2.1-1,3.6,0.4,5.2
				l4.5,6.1l-2.8,2.8l-9.1-12.3L469.5,333.6L469.5,333.6z"/>
			<path fill="none" d="M485.8,341.1c0.6,0.6,1.3,1.3,2.1,0.6c1.3-1.3-0.7-3.4-1.3-4.5l-1.2-1.5l0,0c0,0.6,0.1,1.3,0.3,1.9
				c0,0.6-0.3,1.3-0.7,1.8c-1,1-2.4,0.7-3.9,0.3c-1.5-0.7-2.7-2.1-3.9-3.4c-1.5-2.2-4.5-7-1.9-9.6c1-1,2.1-1,3.1-0.4l0,0l-1-1.5
				l2.8-2.8l9.7,13.5c2.5,3.6,2.2,6.4-0.3,9s-4.9,2.2-7-0.6L485.8,341.1L485.8,341.1z M482.5,331.1c-0.6-0.6-2.4-3.4-3.4-2.2
				c-1,1,0.9,3.6,1.5,4.2c0.6,0.6,2.4,3.4,3.4,2.2C485.1,334.2,483.1,331.8,482.5,331.1z"/>
		</g>
	</g>
</g>
<path fill="none" d="M466.7,215.4c12.4,6,101.1,31.2,115.8,51.9c14.7,20.6,35.5,63.6,37,91.5c2.2-11.9,3.4-24.2,3.4-36.8
	c0-112.1-91.2-203.3-203.3-203.3c-6.2,0-12.2,0.3-18.3,0.9c10.5,17.3,12.7,37.5,19,46.2C432.3,182.3,454.3,209.4,466.7,215.4z"/>
<path d="M419.6,110.9c-8,0-15.9,0.5-23.7,1.4c2.1,2.5,3.9,5.1,5.5,7.7c6-0.5,12.1-0.9,18.2-0.9c111.8,0,202.8,91,202.8,202.8
	c0,12.5-1.2,24.8-3.4,36.7C601.7,453,518.9,524.8,419.6,524.8c-48.6,0-93.3-17.2-128.3-45.9c-45.5-37.2-74.5-93.8-74.5-156.9
	c0-15.8,1.8-31.2,5.3-46c1.1-4.6,2.3-9.2,3.7-13.7c-1.9-3.2-3.7-6.5-5.4-9.9c-0.9,2.5-1.7,5-2.5,7.5c-6.1,19.6-9.4,40.5-9.4,62.1
	c0,116.4,94.7,211.1,211.1,211.1S630.7,438.4,630.7,322S536,110.9,419.6,110.9z"/>
<g>
	<path d="M274.7,295.3c-3.7-4.1-1.4-18.4-2.3-23.4c-0.9-5.1-7.8-14.2-7.3-18.4c7.8-0.9,26.6-6,37.2,0c10.6,6,31.7,9.6,40.9,30.3
		c-6.3-58.2-85.1-74.2-124.7-77.5c-0.8,1.6-1.5,3.1-2.1,4.4c-6.4,13.8-2.8,28.3,3.6,41.4c1.7,3.4,3.5,6.7,5.4,9.9
		c6.7,11.1,14.1,20.8,17.2,27.7c7.4,16.5,44.1,28.5,44.6,39.5c0.4,8.6-3.5,18.9-5.4,26.5c4.2-14.6,12.1-27.3,20.9-37.8
		c-2.7-6.9-6.8-16.2-10.9-22.2C291.7,295.8,278.4,299.5,274.7,295.3z"/>
	<path fill="#FFFFFF" d="M343.2,283.8c-9.2-20.7-30.3-24.3-40.9-30.3c-10.6-6-29.4-0.9-37.2,0c-0.5,4.1,6.4,13.3,7.3,18.4
		c0.9,5.1-1.4,19.3,2.3,23.4c3.7,4.1,17,0.5,17,0.5c4.2,6,8.2,15.3,10.9,22.2C321,296.1,343.2,283.8,343.2,283.8z"/>
</g>
<path d="M285.5,297.3c0,0,1-0.4,2.5-1.1c1.5-0.7,3.4-1.7,5.3-2.8c3.8-2.2,7.6-4.5,7.6-4.5s-3.3,2.9-6.8,5.7
	c-1.7,1.4-3.5,2.7-4.9,3.7c-1.4,1-2.4,1.5-2.4,1.5L285.5,297.3z"/>
<g>
	<path fill="#303030" d="M582.5,267.3c-14.7-20.7-103.4-45.9-115.8-51.9s-34.5-33.1-46.4-49.6c-6.3-8.7-8.5-29-19-46.2
		c-1.6-2.7-3.5-5.3-5.5-7.8c-9.9-11.9-25.5-20.9-51.8-20.9c-64,0-109.6,82.1-125.6,115.5c37.3,6,116,21.6,124.6,77
		c1.9-0.9,3.9-1.6,5.9-2.2c2-0.6,4.1-1.1,6.2-1.6c4.1-1,8.2-2.1,12.1-3.5c2-0.7,3.9-1.5,5.8-2.4c1-0.4,1.9-0.9,2.8-1.4
		c0.9-0.5,1.9-1,2.8-1.5c1.8-1.1,3.6-2.2,5.3-3.4c1.8-1.1,3.4-2.5,5.1-3.8c-1.7,1.3-3.2,2.7-5,3.9c-1.7,1.3-3.5,2.4-5.3,3.5
		c-0.9,0.6-1.8,1-2.8,1.6c-0.9,0.5-1.9,1-2.8,1.4c-1.9,1-3.9,1.8-5.8,2.5c-4,1.5-8,2.7-12.1,3.7c-2,0.5-4.1,1.1-6.1,1.7
		c-2,0.6-4,1.3-5.8,2.3l-5.1,3.6c-1.7,1.2-3.4,2.3-5,3.6l-4.9,3.8c-1.7,1.2-3.2,2.6-4.8,3.9c-1.6,1.3-3.2,2.6-4.7,4l-4.6,4.2
		l-4.4,4.4c-1.5,1.4-2.8,3-4.2,4.6c-1.4,1.5-2.6,3.2-4,4.7c-1.3,1.6-2.5,3.3-3.7,4.9c-1.2,1.6-2.2,3.4-3.4,5.1
		c-1.1,1.8-2.1,3.6-3,5.3c-0.9,1.8-1.9,3.6-2.7,5.5c-0.9,1.9-1.6,3.8-2.4,5.7c-1.5,3.8-2.8,7.8-4.2,11.7l-1.3-0.5
		c-0.2,0.9-0.3,1.8-0.4,2.6c-0.5,7.4,4.1,29.7,4.1,33s-8.4,15-8.4,21.9s3.4,16.5,9,23.4c5.5,6.9,7.6,24.1,5.8,39.5
		c35.1,28.7,79.8,46,128.6,46c99.5,0,182.5-71.9,199.9-166.5C618,330.9,597.2,287.9,582.5,267.3z"/>
	<path d="M343.1,283.4c0,0-0.1,0-0.1,0.1l0,0l0,0l-5.2,3.5c-1.7,1.2-3.5,2.3-5.1,3.6l-5,3.7c-1.7,1.2-3.3,2.6-4.9,3.8
		c-1.6,1.3-3.3,2.6-4.8,4l-4.7,4.1l-4.5,4.3c-1.5,1.4-2.9,3-4.3,4.5c-1.5,1.5-2.7,3.2-4.1,4.7c-1.4,1.6-2.6,3.3-3.9,5
		c-1.3,1.6-2.4,3.5-3.6,5.2c-1.1,1.8-2.2,3.6-3.2,5.4c-1,1.9-2,3.7-2.8,5.6c-0.9,1.8-1.6,3.6-2.4,5.4c-0.4,1.3-1.2,4.6-2,7.5
		c13.8-43.9,60.8-69.9,60.8-69.9C343.1,283.7,343.1,283.5,343.1,283.4z"/>
	<polygon points="343.4,284.3 343.4,284.2 343.4,284.2 	"/>
	<path d="M286.5,347.6c0.8-1.9,1.5-3.8,2.4-5.7c0.8-1.9,1.8-3.7,2.7-5.5c1-1.8,2-3.6,3-5.3c1.1-1.7,2.1-3.5,3.4-5.1
		c1.2-1.7,2.4-3.4,3.7-4.9c1.3-1.6,2.5-3.2,4-4.7c1.4-1.5,2.7-3.1,4.2-4.6l4.4-4.4l4.6-4.2c1.5-1.4,3.1-2.7,4.7-4
		c1.6-1.3,3.1-2.7,4.8-3.9l4.9-3.8c1.6-1.3,3.4-2.4,5-3.6l5.1-3.6c0,0,0,0,0,0l0,0l0,0c1.8-1,3.8-1.7,5.8-2.3c2-0.6,4.1-1.1,6.1-1.7
		c4.1-1.1,8.2-2.2,12.1-3.7c2-0.8,3.9-1.6,5.8-2.5c1-0.5,1.9-0.9,2.8-1.4c0.9-0.5,1.9-1,2.8-1.6c1.8-1.1,3.6-2.2,5.3-3.5
		c1.8-1.2,3.3-2.6,5-3.9c-1.7,1.3-3.3,2.7-5.1,3.8c-1.7,1.2-3.5,2.3-5.3,3.4c-0.9,0.5-1.9,1-2.8,1.5c-0.9,0.5-1.9,0.9-2.8,1.4
		c-1.9,0.9-3.9,1.7-5.8,2.4c-4,1.4-8,2.5-12.1,3.5c-2.1,0.5-4.1,1-6.2,1.6c-2,0.6-4,1.2-5.9,2.2c0,0.2,0.1,0.3,0.1,0.5
		c0,0-48.5,26.8-61.4,72c-0.3,1.1-0.5,2.1-0.7,3l1.3,0.5C283.7,355.4,285.1,351.5,286.5,347.6z"/>
</g>
</svg>
