<?xml version="1.0" encoding="utf-8"?>
<!-- Generator: Adobe Illustrator 19.0.0, SVG Export Plug-In . SVG Version: 6.00 Build 0)  -->
<svg version="1.1" id="Layer_1" xmlns="http://www.w3.org/2000/svg" xmlns:xlink="http://www.w3.org/1999/xlink" x="0px" y="0px"
	 viewBox="79.2 65.89 568.56 676.94" style="enable-background:new 79.2 65.89 568.56 676.94;" xml:space="preserve">
<style type="text/css">
	.st0{fill:#EC0F13;}
	.st1{fill:#070706;}
	.st2{fill:#DEDEDE;}
</style>
<rect x="136.866" y="171.197" class="st0" width="436.567" height="382.893"/>
<g id="_x23_ec0f13ff">
	<path class="st0" d="M79.2,159.4c28.24-31.21,56.67-62.25,84.87-93.51c12.25,9.56,25.81,17.33,39.69,24.26
		c54.99,27.05,117.15,38.24,178.19,35.36c38.99-1.78,77.78-9.52,114.24-23.54c23.58-9.22,46.56-20.63,66.72-36.08
		c28.17,31.27,56.61,62.3,84.85,93.51c-11.87,12.49-21.87,26.87-28.6,42.77c-8.47,19.72-11.84,41.35-11.66,62.72
		c0.25,33.07,7.7,65.6,17.12,97.14c12.62,38.9,14.79,80.82,8.59,121.11c-6.1,38.06-20.85,75.38-46.01,104.92
		c-19.96,23.63-46.78,41.32-76.34,50.41c-33.23,10.38-65.35,25.09-93.55,45.66c-14.86,10.88-28.63,23.39-40.21,37.74
		c-5.21,6.52-10.09,13.38-13.63,20.96c-6.22-13.4-15.91-24.83-26.04-35.44c-26.96-27.43-60.89-47.18-96.54-61.08
		c-15.68-6.38-32.38-10.05-47.55-17.68c-27.42-13.11-50.66-34.33-67.12-59.81c-13.26-20.4-22.53-43.26-28.29-66.86
		c-9.05-37.52-9.96-77.05-2.26-114.89c2.79-14.26,7.87-27.92,11.48-41.97c9.68-36.73,16.35-75.43,9.52-113.27
		C111.92,204.58,98.38,179.23,79.2,159.4 M164.47,71.65c-26.19,29.07-52.62,57.92-78.89,86.92c-1.29,0.91,0.47,2.02,0.94,2.83
		c8.82,9.86,16.37,20.89,22.2,32.78c13.29,26.7,16.62,57.28,14.31,86.72c-2.29,29.66-9.4,58.71-18.14,87.07
		c-6.68,21.66-9.82,44.32-10.23,66.95c-0.58,43.89,9.01,88.67,31.82,126.51c16.99,28.35,42.36,51.85,72.67,65.29
		c14.22,6.5,29.55,9.99,43.97,15.97c18.74,7.33,36.88,16.25,53.88,27.03c26.07,16.66,50.13,37.58,66.58,64.04
		c0.1-9.59-0.04-19.19,0.07-28.78c14.84-16.74,31.73-31.65,50.36-44.05c27.96-18.79,59.05-32.59,91.15-42.6
		c18.41-5.81,35.7-15.24,50.33-27.86c24.73-21.16,41.34-50.55,50.47-81.53c12.18-41.96,12.88-87.39,1.27-129.55
		c-11.55-37.45-21.13-76.09-21.15-115.51c-0.09-22.72,3.55-45.61,12.15-66.71c5.27-13.11,12.52-25.35,20.9-36.7
		c-17.59-19.33-35.17-38.68-52.74-58.03c-2.08-2.18-3.82-4.91-6.71-6.1l0.56,0.71c-11.08,6.96-22.71,13.01-34.61,18.46
		C474.96,138.47,419.1,149.13,363.59,149c0.04-6.29,0.01-12.58,0.03-18.87c-40.91,0.01-81.91-6.24-120.71-19.33
		C215.16,101.38,188.41,88.63,164.47,71.65z"/>
	<path class="st0" d="M405.02,183.51c2.82-0.52,5.85-1.34,8.67-0.4c10.23,4.06,20.28,9.09,28.46,16.59
		c14.51,13.03,24.81,29.88,34.51,46.6c-20.01-8.67-41.23-15.11-63.11-16.24c-12.16-8.65-24.84-17.28-39.44-21.21
		c-10.32-2.86-21.94-2.68-31.4,2.77c-10.83,6.09-17.93,16.93-22.98,27.97c-3.14,6.84-5.46,14.01-7.57,21.22
		c-33.79,9.02-65.6,25.3-92.66,47.45c-31.21,25.38-56.06,57.85-75.53,92.88c6.05-20.82,14.68-40.93,25.53-59.71
		c15.64-26.99,37.24-50.55,63.05-68.12c17.18-11.81,36.04-21.03,55.56-28.29c-11.62-4.06-24.2-3.68-36.3-2.69
		c14.05-13.88,28.16-27.93,44.58-39.04c14.82-10.14,32.4-17.38,50.63-16.56c8.56,0.6,17.39,1.91,25,6.14
		c21.01,10.86,42.12,21.54,63.1,32.45c-8.39-11.97-19.06-22.39-31.45-30.16c-2.51-1.45-4.31-4.25-4.28-7.17
		C399.61,185.2,402.68,184.03,405.02,183.51z"/>
	<path class="st0" d="M470.14,200.5c2.39,0.47,5.02,0.58,7.03,2.15c8.49,5.77,16.57,13.09,20.37,22.87
		c3.23,7.94,2.61,16.75,1.51,25.07c-3.14-0.57-6.75-1.21-8.66-4.07c0-3.21-0.25-6.44-1.63-9.39
		C483.48,224.47,475.97,212.9,470.14,200.5z"/>
	<path class="st0" d="M359.94,229.87c12.17-2.84,24.64,1.6,34.77,8.24c2.94,1.65,5.31,4.28,8.39,5.6
		c8.31,0.12,16.68-0.56,24.93,0.78c11.79,1.67,23.13,6.54,32.47,13.93c4.33,3.27,9.12,6,14.34,7.57c3.97,1.26,8.15,0.12,12.21,0.26
		c15.39-0.3,30.9,4.76,42.79,14.61c-4.58,3.71-10.52,2.3-15.77,1.27c-2.85,0.3-3.17,4.88-0.84,6.45c3.35,3.36,7.83,5.21,12.07,7.17
		c13.87,6.38,27.71,12.82,41.59,19.18c-1.66,3.16-4.31,5.98-7.96,6.65c-6.27,1.17-12.58,2.29-18.91,3.08
		c-7.09-0.52-14.05-2.17-21.1-3.06c-2.12-0.48-5.13-0.16-5.85-2.77c-1.49-2.55,0.63-4.88,2.22-6.7c8.28,2.08,16.58,4.04,24.86,6.12
		c3.72,1.27,7.12-1.4,10.55-2.5c-6.23-1.92-12.33-4.31-18.65-5.89c-7.37-0.22-14.81-0.42-22.16,0.2c-4.17,0.49-9.9,1.91-10.57,6.84
		c0.1,5.72,3.67,11.26,8.54,14.18c4.92,3.1,9.35,7.05,14.76,9.32c2.38,1.02,4.52,2.67,5.79,4.97c2.03,3.86,6.72,5.56,8.17,9.84
		c1.73,3.98-0.66,8.14-3.15,11.18c-1.68,1.84-3.15,4.32-5.79,4.83c-22.7,5.38-45.41,10.74-68.08,16.22
		c4.14,2.41,8.04,5.45,10.18,9.86c1.97,0.42,4.1,1.69,6.09,0.67c5.54-2.54,11.47-4.06,17.19-6.15c13.71-4.56,27.48-9.73,42-10.86
		c9.11-0.87,19.16,1.57,25.01,9.07c-0.37,3.34-0.8,6.68-1.34,10c-10.39-3.51-21.85-4.09-32.41-0.98c-6.9,1.96-13.34,5.29-19.21,9.39
		c2.79,0.77,5.6,1.51,8.41,2.25c-0.08,3.77-0.15,7.54-0.18,11.31c4.93-2.25,9.89-4.43,14.83-6.67c1.84,5.33,3.68,10.67,5.56,16
		c4.69-5.27,9.58-10.39,14.92-15.01c-2.76,14.08-9.07,27.69-19.36,37.86c-6.22,6.28-13.66,11.21-21.56,15.1
		c3.22-9.06,5.68-19.34,1.47-28.51c-7.72,8.5-16.95,16.31-28.25,19.37c-4.62,1.37-9.49,1.45-14.27,1.2
		c4.5-5.61,9.49-12.21,7.94-19.88c-16.95,6.7-35.45,9.89-53.63,7.92c-3.94-0.4-7.83-1.12-11.74-1.65
		c13.88-4.39,28.88-7.67,40.18-17.45c5.99-5.05,9.22-12.78,9.2-20.57c-15.5-13.08-31.05-26.09-46.53-39.19
		c-7.01,5.14-14.13,10.11-21.14,15.25c5.83-1,11.65-2.1,17.44-3.31c7.73,5.64,15.35,11.43,23.02,17.16
		c-16.56,27.81-41.14,52.11-72.21,62.79c-13.24,6.94-28.26,10.2-43.18,9.49c-11.14-0.53-22.19-2.24-33.19-4
		c20.77-1.3,42.31-4.57,60.21-15.92c2.98-2.21,6.46-3.56,9.51-5.64c11.66-9.51,19.97-22.49,25.68-36.29
		c-26.39,15.73-57.65,22.67-88.22,20.6c-18.1-2.04-36.74-1.38-54.22,4.07c-17.11,5.18-32.42,15.34-44.72,28.21
		c3.76-13.63,11.67-26.4,23.54-34.37c14.79-10.13,32.98-13.39,50.51-14.99c6.36-0.76,12.98-0.07,19.08-2.33
		c15.31-4.78,30.34-11.88,41.74-23.41c7.18-7.26,12.52-16.22,15.84-25.86c-4.91,3.75-10.18,8.55-16.81,8.02
		c-28.51-2.32-58.11-4.31-85.66,5.01c-36.34,12.78-67.95,37.94-89.28,69.95c8.44-26.97,24.83-51.48,46.97-69.1
		c24.55-19.67,54.55-31.32,84.98-38.26c-25.3-6.62-52.16,0.92-73.93,14.31c15.62-20.12,39.12-33.12,63.84-38.37
		c14.8-3.27,30.03-4.34,45.17-4.04c8.33,0.31,17.6-0.62,23.98-6.57c13.43-14.92,27.34-29.43,40.94-44.21
		c1.3-1.45,1.01-3.69,0.49-5.4c-1.29-2.92-4.69-3.7-7.44-4.55c-8.15-2.37-17.35-3.85-25.3-0.04c-4.88,2.24-8.2,6.69-10.66,11.31
		c2.47,3.15,6.16,1.14,8.8-0.55c2.81,0.61,6.43,1.91,6.51,5.37c0.52,9.58-9.32,17.15-18.45,15.9c-4.61-0.02-8.12-3.78-10.33-7.44
		c-3.07-5.24-1.61-11.7,1.01-16.79C335.03,244.1,346.11,233.37,359.94,229.87 M409.96,261.86c-8.5,8.43-17.24,16.61-25.77,25.01
		c6.21-1.59,12.49-2.96,18.54-5.1c5.47-1.84,11.82-0.67,16.05,3.33c4.96,3.81,6.53,10.86,12.43,13.6
		c7.18,3.46,15.71,2.74,23.17,0.56c11.6-4.61,24.57-1.66,35.52,3.37c-3.38-4.48-7.22-8.59-10.39-13.22
		c-0.96-1.45-1.98-3.94-0.13-5.15c3.74-2.15,9.36,0.12,12.19-3.87c0.97-3.13-0.97-6.67-3.67-8.32c-3.66-2.5-8.4-4.72-12.81-2.81
		c-3.44,1.1-5.44,4.86-9.14,5.32c-4.9,0.6-9.44-1.84-13.63-4.04c-3.71-2.16-7.89-3.84-10.65-7.29c-4.34-4.95-10.84-8.41-17.56-7.65
		C418.97,256.27,413.57,257.94,409.96,261.86z"/>
	<path class="st0" d="M513.81,239.81c0.46-1.87,2.81-2.16,4-0.81c4.43,3.87,9.32,7.76,11.77,13.27c1.78,3.84,0.52,8.11-1.35,11.64
		c-4.71-4.16-10.07-7.59-15.89-9.98C512.55,249.22,512.13,244.3,513.81,239.81z"/>
	<path class="st0" d="M427.94,276.37c5.36-2.22,11.71-2.09,16.83,0.7c3.42,2.61,6.59,5.55,9.91,8.3c-5.49,0.44-11.21,2.91-16.6,0.72
		C433.36,284.65,430,280.68,427.94,276.37z"/>
	<path class="st0" d="M559.4,332.26c3.85-0.3,7.62,2.73,8.4,6.5c1.32,5.61,0.07,11.39-0.92,16.95c-0.68,4.44-3.52,8.32-7.02,11.01
		c-2.27,1.74-5.45,1.7-7.72,0c-3.61-1.89-2.94-6.6-2.9-10c0.17-6.36,9.09-8.2,8.56-14.79C558,338.86,556.04,334.05,559.4,332.26z"/>
	<path class="st0" d="M388.86,454.85c9.13,1.79,18.29,3.46,27.4,5.34c-8.75,12.28-20.6,22.35-34.26,28.77
		c-15.34,7.34-32.34,10.57-49.23,11.52c14.04-7.5,28.19-15.12,40.44-25.38C379.81,469.6,385.75,462.96,388.86,454.85z"/>
	<path class="st0" d="M194.68,496.9c0.01,14.75,0.01,29.49,0.01,44.24c5.59,0,11.18,0,16.78-0.02c-0.01,2.33-0.01,4.66-0.01,6.99
		c-8.61,0-17.21,0-25.81,0c0.01-12.99-0.05-25.98,0.03-38.97C189.82,506.05,193.15,501.9,194.68,496.9z"/>
	<path class="st0" d="M287.12,497.07c1.61,4.92,4.87,9.08,9.03,12.12c0.05,10.64,0,21.28,0.02,31.92
		c5.56,0.01,11.11-0.01,16.67-0.02c0,2.33-0.01,4.67-0.01,7.02c-8.56,0-17.13,0-25.69,0C287.12,531.1,287.15,514.08,287.12,497.07z"
		/>
	<path class="st0" d="M417.71,497c-0.01,14.72,0,29.43,0,44.14c5.6-0.01,11.19,0,16.78-0.01c-0.01,2.32-0.02,4.66-0.04,7
		c-8.6-0.04-17.19-0.02-25.79-0.02c0.01-12.99-0.06-25.99,0.04-38.98C412.83,506.07,416.11,501.93,417.71,497z"/>
	<path class="st0" d="M439.24,506.27c3.02,0,6.04,0,9.07-0.01c-0.01,2.02-0.01,4.05,0,6.08c-3.03,0-6.06,0-9.08,0
		C439.23,510.31,439.23,508.29,439.24,506.27z"/>
	<path class="st0" d="M393.87,509.1c3.01-0.03,6.02-0.03,9.03-0.02c-0.02,13.01,0,26.02-0.01,39.03c-2.64,0-5.28-0.01-7.91-0.01
		c-0.12-0.84-0.36-2.51-0.48-3.35c-1.97,2.1-4.4,4.28-7.53,3.88c-5.55,0.29-9.72-4.7-10.51-9.82c-0.72-5.56-0.76-11.88,2.86-16.52
		c3.43-4.74,10.88-4.96,14.66-0.51C393.81,517.55,393.85,513.32,393.87,509.1 M385.14,532.82c0.01,2.74-0.2,6,1.92,8.1
		c2.03,1.38,5.32,0.92,6.7-1.18c0.31-4.03-0.04-8.07,0.19-12.09c-1.58-1.43-3.71-2.93-5.9-1.83
		C385.55,527.13,385.25,530.31,385.14,532.82z"/>
	<path class="st0" d="M223.26,519.37c5.33-1.71,12.03-0.99,15.85,3.46c4.26,4.96,4.49,12.49,2.1,18.35
		c-4.12,9.86-20.42,10.09-24.92,0.45C212.63,534.07,214.48,522.4,223.26,519.37 M226.25,526.11c-3.37,2.74-2.82,7.94-2.15,11.78
		c0.43,3.78,5.86,5.24,8.06,2.17c2-3.29,1.79-7.55,0.87-11.15C232.43,525.95,228.76,524.53,226.25,526.11z"/>
	<path class="st0" d="M244.65,519.12c2.88,0,5.77,0,8.65-0.01c0.99,5.49,2,10.98,2.84,16.5c1.88-5.41,3.33-10.96,4.93-16.46
		c1.92-0.02,3.84-0.02,5.77-0.02c1.67,5.47,3.07,11.02,5.02,16.39c0.77-5.51,1.78-10.99,2.84-16.46c2.86,0.05,5.72,0.07,8.59,0.07
		c-2.34,9.65-4.52,19.34-6.87,28.99c-2.54-0.01-5.07-0.01-7.6-0.01c-1.62-4.69-2.91-9.49-4.55-14.17c-0.15,0.02-0.44,0.07-0.58,0.09
		c-1.69,4.63-2.95,9.41-4.55,14.08c-2.52,0-5.03,0.01-7.53,0.04C249.13,538.51,247.04,528.78,244.65,519.12z"/>
	<path class="st0" d="M319.12,522.01c4.12-3.78,10.45-4.23,15.6-2.62c3.3,1.07,6.12,3.91,6.49,7.47c0.7,7.08-0.85,14.42,1.61,21.27
		c-2.98-0.02-5.97-0.03-8.95-0.04c-0.42-1.35-0.82-2.7-1.21-4.05c-1.66,1.74-3.17,4.14-5.77,4.46c-2.93,0.37-6.2,0.06-8.53-1.93
		c-4.11-3.35-3.87-10.84,0.8-13.59c3.95-2.47,8.82-1.89,13.26-2.01c0.02-2.36-0.13-6.06-3.36-5.94c-2.15-0.5-3.14,1.41-3.89,3.02
		c-2.89,0.02-5.78,0.01-8.67-0.02C316.97,525.88,317.34,523.51,319.12,522.01 M326.08,541.9c2.28,1.15,4.53-0.56,6.28-1.89
		c-0.03-1.47-0.06-2.93-0.07-4.39c-1.75,0.05-3.51-0.01-5.24,0.27C324.43,536.49,323.45,540.63,326.08,541.9z"/>
	<path class="st0" d="M346.23,519.12c2.83-0.01,5.67-0.01,8.5-0.01c0.03,0.95,0.09,2.85,0.12,3.8c2.56-2.82,6.17-5.13,10.14-4.25
		c4.44,0.58,7.05,5.04,7.17,9.21c0.44,8.73-0.08,17.48,0.27,26.22c-1.52-3.86-5.26-5.74-9.16-6.15c-0.23-6.67,0.46-13.4-0.35-20.02
		c-0.93-3.63-5.35-2.42-7.64-0.9c-0.04,7.03-0.01,14.06-0.03,21.09c-3,0-6.01,0-9.01,0C346.23,538.44,346.24,528.78,346.23,519.12z"
		/>
	<path class="st0" d="M439.24,519.11c3.02,0.01,6.03,0.01,9.06,0c0.01,9.66,0,19.33,0,29c-3.02,0-6.04,0-9.05,0
		C439.24,538.45,439.25,528.78,439.24,519.11z"/>
	<path class="st0" d="M461.34,519.37c5.29-1.69,11.95-1.01,15.78,3.39c4.31,4.96,4.56,12.53,2.16,18.42
		c-4.14,9.9-20.47,10.06-24.96,0.4C450.7,534.02,452.57,522.39,461.34,519.37 M464.27,526.14c-3.39,2.92-2.85,8.28-1.94,12.23
		c0.69,3.85,6.65,4.57,8.29,1.09c1.55-3.52,1.49-7.8,0.15-11.37C469.84,525.54,466.45,524.75,464.27,526.14z"/>
	<path class="st0" d="M493.35,522.9c3.21-4.23,9.71-6.09,14.03-2.41c2.62,2.31,3.22,6.03,3.27,9.36c0.09,8.02-0.11,16.04,0.09,24.06
		c-1.62-3.68-5.22-5.65-9.11-6.01c-0.18-6.54,0.3-13.1-0.23-19.61c-0.47-3.81-5.86-3.38-7.68-0.88c-0.31,6.89,0,13.8-0.11,20.7
		c-3.02,0-6.02,0-9.03,0c-0.01-9.67-0.01-19.35,0-29.02c2.85,0.02,5.71,0.03,8.56,0.06C493.2,520.09,493.3,521.96,493.35,522.9z"/>
	<path class="st0" d="M516.7,522.61c3.63-4.39,10.11-4.74,15.26-3.43c4.17,0.91,7.49,4.46,7.59,8.84c-2.9,0.02-5.8,0.02-8.69-0.02
		c-0.72-1.25-1.03-3.28-2.8-3.43c-2.46-0.94-6.05,1.65-4.15,4.23c4.2,2.63,9.98,1.82,13.62,5.55c3.4,3.5,2.18,9.79-2.02,12.11
		c-7.28,4.55-20.7,2.42-21.53-7.69c2.68-0.03,5.38-0.02,8.07,0.02c0.68,2.66,3.03,4.49,5.85,3.85c2.35,0.24,4.09-3.1,1.83-4.44
		c-3.83-2.24-8.81-1.82-12.3-4.79C514.18,530.85,514.07,525.66,516.7,522.61z"/>
</g>
<g id="_x23_070706ff">
	<path class="st1" d="M164.47,71.65c23.94,16.98,50.69,29.73,78.44,39.15c38.8,13.09,79.8,19.34,120.71,19.33
		c-0.02,6.29,0.01,12.58-0.03,18.87c-30.96-0.22-61.96-3.33-92.12-10.44c-36.54-8.56-72.08-22.28-103.95-42.23
		c-19.3,21.21-38.59,42.45-57.87,63.68c11.61,15.29,20.54,32.65,25.93,51.09c9.26,31.41,8.34,64.87,3.14,96.91
		c-3.36,20.74-8.5,41.15-14.57,61.25c-12.71,39.25-14.01,81.89-5.38,122.14c7.41,34.03,23.04,67.03,48.38,91.38
		c12.45,11.9,27.06,21.56,42.95,28.22c10.03,4.3,20.64,6.95,30.83,10.81c46.17,16.71,90.18,42.43,122.54,79.9
		c31-35.88,72.74-61.03,116.73-77.75c15.37-6.11,31.73-9.67,46.4-17.5c27.66-14.03,49.78-37.7,63.83-65.19
		c18.43-35.8,25.15-76.91,22.76-116.9c-0.78-11.79-2.35-23.54-4.92-35.08c-2.67-12.26-6.99-24.07-10.14-36.21
		c-9.97-37.07-16.82-75.78-12.39-114.23c3.2-28.49,14.13-56.05,31.55-78.85c-18.98-21.02-38.24-41.79-57.05-62.95l-0.56-0.71
		c2.89,1.19,4.63,3.92,6.71,6.1c17.57,19.35,35.15,38.7,52.74,58.03c-8.38,11.35-15.63,23.59-20.9,36.7
		c-8.6,21.1-12.24,43.99-12.15,66.71c0.02,39.42,9.6,78.06,21.15,115.51c11.61,42.16,10.91,87.59-1.27,129.55
		c-9.13,30.98-25.74,60.37-50.47,81.53c-14.63,12.62-31.92,22.05-50.33,27.86c-32.1,10.01-63.19,23.81-91.15,42.6
		c-18.63,12.4-35.52,27.31-50.36,44.05c-0.11,9.59,0.03,19.19-0.07,28.78c-16.45-26.46-40.51-47.38-66.58-64.04
		c-17-10.78-35.14-19.7-53.88-27.03c-14.42-5.98-29.75-9.47-43.97-15.97c-30.31-13.44-55.68-36.94-72.67-65.29
		c-22.81-37.84-32.4-82.62-31.82-126.51c0.41-22.63,3.55-45.29,10.23-66.95c8.74-28.36,15.85-57.41,18.14-87.07
		c2.31-29.44-1.02-60.02-14.31-86.72c-5.83-11.89-13.38-22.92-22.2-32.78c-0.47-0.81-2.23-1.92-0.94-2.83
		C111.85,129.57,138.28,100.72,164.47,71.65z"/>
	<path class="st1" d="M118.86,160.83c16.68-18.4,33.36-36.79,50.09-55.13c41.05,24.69,87.59,39.49,134.85,46.37
		c68.52,9.59,139.75,2.96,204.43-22.1c17.2-6.74,34-14.61,49.76-24.27c16.72,18.36,33.44,36.72,50.11,55.13
		c-5.33,8.75-11.63,16.98-15.68,26.45c-8.86,19.34-13.66,40.4-14.99,61.59c-2.48,41.8,6.53,83.29,18.54,123.1
		c8.24,25.42,11.34,52.38,10.1,79.03c-1.81,37.92-12.28,76.3-34.75,107.33c-17.01,23.7-41.7,41.8-69.59,50.44
		c-51.54,16.06-101.3,42.09-138.32,82.05c-21.13-23.25-47.22-41.59-74.92-56.19c-19.96-10.45-40.95-18.86-62.44-25.58
		c-15.72-4.9-30.61-12.53-43.57-22.72c-27.93-21.8-45.86-54.3-54.58-88.25c-9.85-38.74-9.92-80.15,0.86-118.71
		c12.13-39.34,22-80.09,21.08-121.52c-0.39-26.93-6.38-54-18.94-77.92C127.05,173.46,122.86,167.2,118.86,160.83 M405.02,183.51
		c-2.34,0.52-5.41,1.69-5.63,4.48c-0.03,2.92,1.77,5.72,4.28,7.17c12.39,7.77,23.06,18.19,31.45,30.16
		c-20.98-10.91-42.09-21.59-63.1-32.45c-7.61-4.23-16.44-5.54-25-6.14c-18.23-0.82-35.81,6.42-50.63,16.56
		c-16.42,11.11-30.53,25.16-44.58,39.04c12.1-0.99,24.68-1.37,36.3,2.69c-19.52,7.26-38.38,16.48-55.56,28.29
		c-25.81,17.57-47.41,41.13-63.05,68.12c-10.85,18.78-19.48,38.89-25.53,59.71c19.47-35.03,44.32-67.5,75.53-92.88
		c27.06-22.15,58.87-38.43,92.66-47.45c2.11-7.21,4.43-14.38,7.57-21.22c5.05-11.04,12.15-21.88,22.98-27.97
		c9.46-5.45,21.08-5.63,31.4-2.77c14.6,3.93,27.28,12.56,39.44,21.21c21.88,1.13,43.1,7.57,63.11,16.24
		c-9.7-16.72-20-33.57-34.51-46.6c-8.18-7.5-18.23-12.53-28.46-16.59C410.87,182.17,407.84,182.99,405.02,183.51 M470.14,200.5
		c5.83,12.4,13.34,23.97,18.62,36.63c1.38,2.95,1.63,6.18,1.63,9.39c1.91,2.86,5.52,3.5,8.66,4.07c1.1-8.32,1.72-17.13-1.51-25.07
		c-3.8-9.78-11.88-17.1-20.37-22.87C475.16,201.08,472.53,200.97,470.14,200.5 M359.94,229.87c-13.83,3.5-24.91,14.23-31.36,26.65
		c-2.62,5.09-4.08,11.55-1.01,16.79c2.21,3.66,5.72,7.42,10.33,7.44c9.13,1.25,18.97-6.32,18.45-15.9c-0.08-3.46-3.7-4.76-6.51-5.37
		c-2.64,1.69-6.33,3.7-8.8,0.55c2.46-4.62,5.78-9.07,10.66-11.31c7.95-3.81,17.15-2.33,25.3,0.04c2.75,0.85,6.15,1.63,7.44,4.55
		c0.52,1.71,0.81,3.95-0.49,5.4c-13.6,14.78-27.51,29.29-40.94,44.21c-6.38,5.95-15.65,6.88-23.98,6.57
		c-15.14-0.3-30.37,0.77-45.17,4.04c-24.72,5.25-48.22,18.25-63.84,38.37c21.77-13.39,48.63-20.93,73.93-14.31
		c-30.43,6.94-60.43,18.59-84.98,38.26c-22.14,17.62-38.53,42.13-46.97,69.1c21.33-32.01,52.94-57.17,89.28-69.95
		c27.55-9.32,57.15-7.33,85.66-5.01c6.63,0.53,11.9-4.27,16.81-8.02c-3.32,9.64-8.66,18.6-15.84,25.86
		c-11.4,11.53-26.43,18.63-41.74,23.41c-6.1,2.26-12.72,1.57-19.08,2.33c-17.53,1.6-35.72,4.86-50.51,14.99
		c-11.87,7.97-19.78,20.74-23.54,34.37c12.3-12.87,27.61-23.03,44.72-28.21c17.48-5.45,36.12-6.11,54.22-4.07
		c30.57,2.07,61.83-4.87,88.22-20.6c-5.71,13.8-14.02,26.78-25.68,36.29c-3.05,2.08-6.53,3.43-9.51,5.64
		c-17.9,11.35-39.44,14.62-60.21,15.92c11,1.76,22.05,3.47,33.19,4c14.92,0.71,29.94-2.55,43.18-9.49
		c31.07-10.68,55.65-34.98,72.21-62.79c-7.67-5.73-15.29-11.52-23.02-17.16c-5.79,1.21-11.61,2.31-17.44,3.31
		c7.01-5.14,14.13-10.11,21.14-15.25c15.48,13.1,31.03,26.11,46.53,39.19c0.02,7.79-3.21,15.52-9.2,20.57
		c-11.3,9.78-26.3,13.06-40.18,17.45c3.91,0.53,7.8,1.25,11.74,1.65c18.18,1.97,36.68-1.22,53.63-7.92
		c1.55,7.67-3.44,14.27-7.94,19.88c4.78,0.25,9.65,0.17,14.27-1.2c11.3-3.06,20.53-10.87,28.25-19.37
		c4.21,9.17,1.75,19.45-1.47,28.51c7.9-3.89,15.34-8.82,21.56-15.1c10.29-10.17,16.6-23.78,19.36-37.86
		c-5.34,4.62-10.23,9.74-14.92,15.01c-1.88-5.33-3.72-10.67-5.56-16c-4.94,2.24-9.9,4.42-14.83,6.67c0.03-3.77,0.1-7.54,0.18-11.31
		c-2.81-0.74-5.62-1.48-8.41-2.25c5.87-4.1,12.31-7.43,19.21-9.39c10.56-3.11,22.02-2.53,32.41,0.98c0.54-3.32,0.97-6.66,1.34-10
		c-5.85-7.5-15.9-9.94-25.01-9.07c-14.52,1.13-28.29,6.3-42,10.86c-5.72,2.09-11.65,3.61-17.19,6.15c-1.99,1.02-4.12-0.25-6.09-0.67
		c-2.14-4.41-6.04-7.45-10.18-9.86c22.67-5.48,45.38-10.84,68.08-16.22c2.64-0.51,4.11-2.99,5.79-4.83
		c2.49-3.04,4.88-7.2,3.15-11.18c-1.45-4.28-6.14-5.98-8.17-9.84c-1.27-2.3-3.41-3.95-5.79-4.97c-5.41-2.27-9.84-6.22-14.76-9.32
		c-4.87-2.92-8.44-8.46-8.54-14.18c0.67-4.93,6.4-6.35,10.57-6.84c7.35-0.62,14.79-0.42,22.16-0.2c6.32,1.58,12.42,3.97,18.65,5.89
		c-3.43,1.1-6.83,3.77-10.55,2.5c-8.28-2.08-16.58-4.04-24.86-6.12c-1.59,1.82-3.71,4.15-2.22,6.7c0.72,2.61,3.73,2.29,5.85,2.77
		c7.05,0.89,14.01,2.54,21.1,3.06c6.33-0.79,12.64-1.91,18.91-3.08c3.65-0.67,6.3-3.49,7.96-6.65
		c-13.88-6.36-27.72-12.8-41.59-19.18c-4.24-1.96-8.72-3.81-12.07-7.17c-2.33-1.57-2.01-6.15,0.84-6.45
		c5.25,1.03,11.19,2.44,15.77-1.27c-11.89-9.85-27.4-14.91-42.79-14.61c-4.06-0.14-8.24,1-12.21-0.26
		c-5.22-1.57-10.01-4.3-14.34-7.57c-9.34-7.39-20.68-12.26-32.47-13.93c-8.25-1.34-16.62-0.66-24.93-0.78
		c-3.08-1.32-5.45-3.95-8.39-5.6C384.58,231.47,372.11,227.03,359.94,229.87 M513.81,239.81c-1.68,4.49-1.26,9.41-1.47,14.12
		c5.82,2.39,11.18,5.82,15.89,9.98c1.87-3.53,3.13-7.8,1.35-11.64c-2.45-5.51-7.34-9.4-11.77-13.27
		C516.62,237.65,514.27,237.94,513.81,239.81 M559.4,332.26c-3.36,1.79-1.4,6.6-1.6,9.67c0.53,6.59-8.39,8.43-8.56,14.79
		c-0.04,3.4-0.71,8.11,2.9,10c2.27,1.7,5.45,1.74,7.72,0c3.5-2.69,6.34-6.57,7.02-11.01c0.99-5.56,2.24-11.34,0.92-16.95
		C567.02,334.99,563.25,331.96,559.4,332.26 M388.86,454.85c-3.11,8.11-9.05,14.75-15.65,20.25c-12.25,10.26-26.4,17.88-40.44,25.38
		c16.89-0.95,33.89-4.18,49.23-11.52c13.66-6.42,25.51-16.49,34.26-28.77C407.15,458.31,397.99,456.64,388.86,454.85 M194.68,496.9
		c-1.53,5-4.86,9.15-9,12.24c-0.08,12.99-0.02,25.98-0.03,38.97c8.6,0,17.2,0,25.81,0c0-2.33,0-4.66,0.01-6.99
		c-5.6,0.02-11.19,0.02-16.78,0.02C194.69,526.39,194.69,511.65,194.68,496.9 M287.12,497.07c0.03,17.01,0,34.03,0.02,51.04
		c8.56,0,17.13,0,25.69,0c0-2.35,0.01-4.69,0.01-7.02c-5.56,0.01-11.11,0.03-16.67,0.02c-0.02-10.64,0.03-21.28-0.02-31.92
		C291.99,506.15,288.73,501.99,287.12,497.07 M417.71,497c-1.6,4.93-4.88,9.07-9.01,12.13c-0.1,12.99-0.03,25.99-0.04,38.98
		c8.6,0,17.19-0.02,25.79,0.02c0.02-2.34,0.03-4.68,0.04-7c-5.59,0.01-11.18,0-16.78,0.01C417.71,526.43,417.7,511.72,417.71,497
		 M439.24,506.27c-0.01,2.02-0.01,4.04-0.01,6.07c3.02,0,6.05,0,9.08,0c-0.01-2.03-0.01-4.06,0-6.08
		C445.28,506.27,442.26,506.27,439.24,506.27 M393.87,509.1c-0.02,4.22-0.06,8.45,0.11,12.68c-3.78-4.45-11.23-4.23-14.66,0.51
		c-3.62,4.64-3.58,10.96-2.86,16.52c0.79,5.12,4.96,10.11,10.51,9.82c3.13,0.4,5.56-1.78,7.53-3.88c0.12,0.84,0.36,2.51,0.48,3.35
		c2.63,0,5.27,0.01,7.91,0.01c0.01-13.01-0.01-26.02,0.01-39.03C399.89,509.07,396.88,509.07,393.87,509.1 M223.26,519.37
		c-8.78,3.03-10.63,14.7-6.97,22.26c4.5,9.64,20.8,9.41,24.92-0.45c2.39-5.86,2.16-13.39-2.1-18.35
		C235.29,518.38,228.59,517.66,223.26,519.37 M244.65,519.12c2.39,9.66,4.48,19.39,6.96,29.03c2.5-0.03,5.01-0.04,7.53-0.04
		c1.6-4.67,2.86-9.45,4.55-14.08c0.14-0.02,0.43-0.07,0.58-0.09c1.64,4.68,2.93,9.48,4.55,14.17c2.53,0,5.06,0,7.6,0.01
		c2.35-9.65,4.53-19.34,6.87-28.99c-2.87,0-5.73-0.02-8.59-0.07c-1.06,5.47-2.07,10.95-2.84,16.46c-1.95-5.37-3.35-10.92-5.02-16.39
		c-1.93,0-3.85,0-5.77,0.02c-1.6,5.5-3.05,11.05-4.93,16.46c-0.84-5.52-1.85-11.01-2.84-16.5
		C250.42,519.12,247.53,519.12,244.65,519.12 M319.12,522.01c-1.78,1.5-2.15,3.87-2.62,6.02c2.89,0.03,5.78,0.04,8.67,0.02
		c0.75-1.61,1.74-3.52,3.89-3.02c3.23-0.12,3.38,3.58,3.36,5.94c-4.44,0.12-9.31-0.46-13.26,2.01c-4.67,2.75-4.91,10.24-0.8,13.59
		c2.33,1.99,5.6,2.3,8.53,1.93c2.6-0.32,4.11-2.72,5.77-4.46c0.39,1.35,0.79,2.7,1.21,4.05c2.98,0.01,5.97,0.02,8.95,0.04
		c-2.46-6.85-0.91-14.19-1.61-21.27c-0.37-3.56-3.19-6.4-6.49-7.47C329.57,517.78,323.24,518.23,319.12,522.01 M346.23,519.12
		c0.01,9.66,0,19.32,0.01,28.99c3,0,6.01,0,9.01,0c0.02-7.03-0.01-14.06,0.03-21.09c2.29-1.52,6.71-2.73,7.64,0.9
		c0.81,6.62,0.12,13.35,0.35,20.02c3.9,0.41,7.64,2.29,9.16,6.15c-0.35-8.74,0.17-17.49-0.27-26.22c-0.12-4.17-2.73-8.63-7.17-9.21
		c-3.97-0.88-7.58,1.43-10.14,4.25c-0.03-0.95-0.09-2.85-0.12-3.8C351.9,519.11,349.06,519.11,346.23,519.12 M439.24,519.11
		c0.01,9.67,0,19.34,0.01,29c3.01,0,6.03,0,9.05,0c0-9.67,0.01-19.34,0-29C445.27,519.12,442.26,519.12,439.24,519.11
		 M461.34,519.37c-8.77,3.02-10.64,14.65-7.02,22.21c4.49,9.66,20.82,9.5,24.96-0.4c2.4-5.89,2.15-13.46-2.16-18.42
		C473.29,518.36,466.63,517.68,461.34,519.37 M493.35,522.9c-0.05-0.94-0.15-2.81-0.21-3.75c-2.85-0.03-5.71-0.04-8.56-0.06
		c-0.01,9.67-0.01,19.35,0,29.02c3.01,0,6.01,0,9.03,0c0.11-6.9-0.2-13.81,0.11-20.7c1.82-2.5,7.21-2.93,7.68,0.88
		c0.53,6.51,0.05,13.07,0.23,19.61c3.89,0.36,7.49,2.33,9.11,6.01c-0.2-8.02,0-16.04-0.09-24.06c-0.05-3.33-0.65-7.05-3.27-9.36
		C503.06,516.81,496.56,518.67,493.35,522.9 M516.7,522.61c-2.63,3.05-2.52,8.24,0.73,10.8c3.49,2.97,8.47,2.55,12.3,4.79
		c2.26,1.34,0.52,4.68-1.83,4.44c-2.82,0.64-5.17-1.19-5.85-3.85c-2.69-0.04-5.39-0.05-8.07-0.02c0.83,10.11,14.25,12.24,21.53,7.69
		c4.2-2.32,5.42-8.61,2.02-12.11c-3.64-3.73-9.42-2.92-13.62-5.55c-1.9-2.58,1.69-5.17,4.15-4.23c1.77,0.15,2.08,2.18,2.8,3.43
		c2.89,0.04,5.79,0.04,8.69,0.02c-0.1-4.38-3.42-7.93-7.59-8.84C526.81,517.87,520.33,518.22,516.7,522.61 M400.48,560.46
		c0.01,1.95,0.02,3.9,0.04,5.85c-1.34-0.02-2.68-0.04-4.01-0.05c0,0.33-0.01,0.99-0.01,1.32c1.33-0.03,2.67-0.05,4.01-0.06
		c0.15,5.95-0.37,11.95,0.25,17.88c0.46,3.2,4.73,4.47,7.06,2.39c-2.19-0.23-5.46,0.12-5.94-2.76c-0.55-5.81-0.09-11.66-0.25-17.49
		c1.78-0.01,3.58-0.01,5.37,0c-0.02-0.32-0.05-0.94-0.07-1.25c-1.77,0-3.54,0-5.3,0.02c0-1.96,0.02-3.91,0.03-5.85
		C401.37,560.46,400.77,560.46,400.48,560.46 M297.88,570.57c-2.71,5.21-2.36,12.85,2.65,16.59c3.67,2.66,10.49,2.23,12.49-2.26
		c-3.21,1.9-7.11,3.83-10.8,2.01c-3.78-1.9-4.93-6.33-4.88-10.23c5.46-0.08,10.93,0.02,16.4-0.07c0.01-3.05-0.24-6.5-2.66-8.67
		C307.19,564.3,300.21,565.88,297.88,570.57 M318.71,574.36c3.03,3.69,8.8,2.42,12.13,5.69c1.03,1.2,1.96,2.97,0.86,4.46
		c-2.85,4.8-12.06,4.16-13.53-1.55c-0.29,0.06-0.87,0.18-1.16,0.25c1.69,7.96,17.01,7.5,16.16-1.35
		c-1.67-6.64-11.11-3.75-13.91-9.18c-1.17-4.36,4.28-6.36,7.71-5.46c3.18,0.17,4.67,3.16,5.97,5.63c0.91-5.08-4.83-7.7-9.07-6.8
		C319.76,565.99,316.39,570.66,318.71,574.36 M339.38,569.92c-0.03,8.94,0.03,17.88,0,26.83c0.29-0.01,0.88-0.04,1.17-0.05
		c-0.01-3.77,0.03-7.54-0.11-11.3c2.97,3.27,8.4,4.71,12.13,1.89c3.85-3.22,4.11-8.87,3.36-13.47c-0.51-3.94-3.55-8.13-7.91-7.83
		c-3.09-0.38-5.6,1.64-7.47,3.83c-0.15-1.44-0.35-2.86-0.59-4.27C339.52,566.96,339.31,568.42,339.38,569.92 M366.49,566.57
		c-6.47,2.79-7.54,11.69-4.57,17.4c2.49,5.04,9.81,6.39,14.04,2.78c4.32-3.71,4.68-10.46,2.59-15.43
		C376.63,566.77,370.99,564.79,366.49,566.57 M385.08,565.56c-0.54,7.18,0.6,14.4-0.2,21.58c0.29,0.46,0.87,1.38,1.17,1.84
		c0.58-5.78-0.9-11.73,0.68-17.38c1.17-3.6,5.01-4.76,8.44-4.71c-3.38-2.61-7.84,0.73-9.39,3.94
		C386,568.99,385.76,567.23,385.08,565.56 M415.39,566.45c-3.02,0.91-5.06,4.57-3.41,7.47c3,4.84,11.22,2.27,13.43,7.95
		c1.04,4.55-4.81,6.53-8.39,5.59c-3.17-0.09-4.71-2.98-6.23-5.29c-0.2,6.53,8.37,8.02,12.98,5.52c3.08-1.42,4.03-5.88,1.62-8.31
		c-3-2.92-7.65-2.57-11.07-4.71c-2.06-1.26-2.37-4.47-0.44-5.97c3.91-3.28,11.15-1.61,12.17,3.82c1.04-1.53,0.02-3.39-1.1-4.53
		C422.41,565.64,418.54,565.61,415.39,566.45z"/>
	<path class="st1" d="M409.96,261.86c3.61-3.92,9.01-5.59,14.15-6.26c6.72-0.76,13.22,2.7,17.56,7.65
		c2.76,3.45,6.94,5.13,10.65,7.29c4.19,2.2,8.73,4.64,13.63,4.04c3.7-0.46,5.7-4.22,9.14-5.32c4.41-1.91,9.15,0.31,12.81,2.81
		c2.7,1.65,4.64,5.19,3.67,8.32c-2.83,3.99-8.45,1.72-12.19,3.87c-1.85,1.21-0.83,3.7,0.13,5.15c3.17,4.63,7.01,8.74,10.39,13.22
		c-10.95-5.03-23.92-7.98-35.52-3.37c-7.46,2.18-15.99,2.9-23.17-0.56c-5.9-2.74-7.47-9.79-12.43-13.6
		c-4.23-4-10.58-5.17-16.05-3.33c-6.05,2.14-12.33,3.51-18.54,5.1C392.72,278.47,401.46,270.29,409.96,261.86 M427.94,276.37
		c2.06,4.31,5.42,8.28,10.14,9.72c5.39,2.19,11.11-0.28,16.6-0.72c-3.32-2.75-6.49-5.69-9.91-8.3
		C439.65,274.28,433.3,274.15,427.94,276.37z"/>
	<path class="st1" d="M226.25,526.11c2.51-1.58,6.18-0.16,6.78,2.8c0.92,3.6,1.13,7.86-0.87,11.15c-2.2,3.07-7.63,1.61-8.06-2.17
		C223.43,534.05,222.88,528.85,226.25,526.11z"/>
	<path class="st1" d="M385.14,532.82c0.11-2.51,0.41-5.69,2.91-7c2.19-1.1,4.32,0.4,5.9,1.83c-0.23,4.02,0.12,8.06-0.19,12.09
		c-1.38,2.1-4.67,2.56-6.7,1.18C384.94,538.82,385.15,535.56,385.14,532.82z"/>
	<path class="st1" d="M464.27,526.14c2.18-1.39,5.57-0.6,6.5,1.95c1.34,3.57,1.4,7.85-0.15,11.37c-1.64,3.48-7.6,2.76-8.29-1.09
		C461.42,534.42,460.88,529.06,464.27,526.14z"/>
	<path class="st1" d="M326.08,541.9c-2.63-1.27-1.65-5.41,0.97-6.01c1.73-0.28,3.49-0.22,5.24-0.27c0.01,1.46,0.04,2.92,0.07,4.39
		C330.61,541.34,328.36,543.05,326.08,541.9z"/>
	<path class="st1" d="M297.47,575.46c0.45-4.31,3.73-8.81,8.5-8.36c4.41-0.12,6.8,4.47,6.69,8.37
		C307.6,575.47,302.53,575.48,297.47,575.46z"/>
	<path class="st1" d="M344.15,567.88c2.92-1.4,7.08-1.09,8.94,1.87c2.74,4.51,2.82,10.66,0.14,15.21c-3.31,5.14-13.42,2.45-12.71-4
		C340.64,576.44,339.31,570.47,344.15,567.88z"/>
	<path class="st1" d="M366.2,568.01c3.67-1.98,8.74-0.72,10.76,3.01c2.63,4.56,2.28,11.3-1.86,14.89
		c-3.58,3.03-9.76,1.94-11.96-2.24C360.34,578.73,361.04,571.14,366.2,568.01z"/>
</g>
<g id="_x23_dededeff">
	<path class="st2" d="M109.65,160.01c19.28-21.23,38.57-42.47,57.87-63.68c31.87,19.95,67.41,33.67,103.95,42.23
		c30.16,7.11,61.16,10.22,92.12,10.44c55.51,0.13,111.37-10.53,162.04-33.49c11.9-5.45,23.53-11.5,34.61-18.46
		c18.81,21.16,38.07,41.93,57.05,62.95c-17.42,22.8-28.35,50.36-31.55,78.85c-4.43,38.45,2.42,77.16,12.39,114.23
		c3.15,12.14,7.47,23.95,10.14,36.21c2.57,11.54,4.14,23.29,4.92,35.08c2.39,39.99-4.33,81.1-22.76,116.9
		c-14.05,27.49-36.17,51.16-63.83,65.19c-14.67,7.83-31.03,11.39-46.4,17.5c-43.99,16.72-85.73,41.87-116.73,77.75
		c-32.36-37.47-76.37-63.19-122.54-79.9c-10.19-3.86-20.8-6.51-30.83-10.81c-15.89-6.66-30.5-16.32-42.95-28.22
		c-25.34-24.35-40.97-57.35-48.38-91.38c-8.63-40.25-7.33-82.89,5.38-122.14c6.07-20.1,11.21-40.51,14.57-61.25
		c5.2-32.04,6.12-65.5-3.14-96.91C130.19,192.66,121.26,175.3,109.65,160.01 M118.86,160.83c4,6.37,8.19,12.63,12.04,19.1
		c12.56,23.92,18.55,50.99,18.94,77.92c0.92,41.43-8.95,82.18-21.08,121.52c-10.78,38.56-10.71,79.97-0.86,118.71
		c8.72,33.95,26.65,66.45,54.58,88.25c12.96,10.19,27.85,17.82,43.57,22.72c21.49,6.72,42.48,15.13,62.44,25.58
		c27.7,14.6,53.79,32.94,74.92,56.19c37.02-39.96,86.78-65.99,138.32-82.05c27.89-8.64,52.58-26.74,69.59-50.44
		c22.47-31.03,32.94-69.41,34.75-107.33c1.24-26.65-1.86-53.61-10.1-79.03c-12.01-39.81-21.02-81.3-18.54-123.1
		c1.33-21.19,6.13-42.25,14.99-61.59c4.05-9.47,10.35-17.7,15.68-26.45c-16.67-18.41-33.39-36.77-50.11-55.13
		c-15.76,9.66-32.56,17.53-49.76,24.27c-64.68,25.06-135.91,31.69-204.43,22.1c-47.26-6.88-93.8-21.68-134.85-46.37
		C152.22,124.04,135.54,142.43,118.86,160.83z"/>
	<path class="st2" d="M400.48,560.46c0.29,0,0.89,0,1.18,0c-0.01,1.94-0.03,3.89-0.03,5.85c1.76-0.02,3.53-0.02,5.3-0.02
		c0.02,0.31,0.05,0.93,0.07,1.25c-1.79-0.01-3.59-0.01-5.37,0c0.16,5.83-0.3,11.68,0.25,17.49c0.48,2.88,3.75,2.53,5.94,2.76
		c-2.33,2.08-6.6,0.81-7.06-2.39c-0.62-5.93-0.1-11.93-0.25-17.88c-1.34,0.01-2.68,0.03-4.01,0.06c0-0.33,0.01-0.99,0.01-1.32
		c1.33,0.01,2.67,0.03,4.01,0.05C400.5,564.36,400.49,562.41,400.48,560.46z"/>
	<path class="st2" d="M297.88,570.57c2.33-4.69,9.31-6.27,13.2-2.63c2.42,2.17,2.67,5.62,2.66,8.67c-5.47,0.09-10.94-0.01-16.4,0.07
		c-0.05,3.9,1.1,8.33,4.88,10.23c3.69,1.82,7.59-0.11,10.8-2.01c-2,4.49-8.82,4.92-12.49,2.26
		C295.52,583.42,295.17,575.78,297.88,570.57 M297.47,575.46c5.06,0.02,10.13,0.01,15.19,0.01c0.11-3.9-2.28-8.49-6.69-8.37
		C301.2,566.65,297.92,571.15,297.47,575.46z"/>
	<path class="st2" d="M318.71,574.36c-2.32-3.7,1.05-8.37,5.16-8.31c4.24-0.9,9.98,1.72,9.07,6.8c-1.3-2.47-2.79-5.46-5.97-5.63
		c-3.43-0.9-8.88,1.1-7.71,5.46c2.8,5.43,12.24,2.54,13.91,9.18c0.85,8.85-14.47,9.31-16.16,1.35c0.29-0.07,0.87-0.19,1.16-0.25
		c1.47,5.71,10.68,6.35,13.53,1.55c1.1-1.49,0.17-3.26-0.86-4.46C327.51,576.78,321.74,578.05,318.71,574.36z"/>
	<path class="st2" d="M339.38,569.92c-0.07-1.5,0.14-2.96,0.58-4.37c0.24,1.41,0.44,2.83,0.59,4.27c1.87-2.19,4.38-4.21,7.47-3.83
		c4.36-0.3,7.4,3.89,7.91,7.83c0.75,4.6,0.49,10.25-3.36,13.47c-3.73,2.82-9.16,1.38-12.13-1.89c0.14,3.76,0.1,7.53,0.11,11.3
		c-0.29,0.01-0.88,0.04-1.17,0.05C339.41,587.8,339.35,578.86,339.38,569.92 M344.15,567.88c-4.84,2.59-3.51,8.56-3.63,13.08
		c-0.71,6.45,9.4,9.14,12.71,4c2.68-4.55,2.6-10.7-0.14-15.21C351.23,566.79,347.07,566.48,344.15,567.88z"/>
	<path class="st2" d="M366.49,566.57c4.5-1.78,10.14,0.2,12.06,4.75c2.09,4.97,1.73,11.72-2.59,15.43
		c-4.23,3.61-11.55,2.26-14.04-2.78C358.95,578.26,360.02,569.36,366.49,566.57 M366.2,568.01c-5.16,3.13-5.86,10.72-3.06,15.66
		c2.2,4.18,8.38,5.27,11.96,2.24c4.14-3.59,4.49-10.33,1.86-14.89C374.94,567.29,369.87,566.03,366.2,568.01z"/>
	<path class="st2" d="M385.08,565.56c0.68,1.67,0.92,3.43,0.7,5.27c1.55-3.21,6.01-6.55,9.39-3.94c-3.43-0.05-7.27,1.11-8.44,4.71
		c-1.58,5.65-0.1,11.6-0.68,17.38c-0.3-0.46-0.88-1.38-1.17-1.84C385.68,579.96,384.54,572.74,385.08,565.56z"/>
	<path class="st2" d="M415.39,566.45c3.15-0.84,7.02-0.81,9.56,1.54c1.12,1.14,2.14,3,1.1,4.53c-1.02-5.43-8.26-7.1-12.17-3.82
		c-1.93,1.5-1.62,4.71,0.44,5.97c3.42,2.14,8.07,1.79,11.07,4.71c2.41,2.43,1.46,6.89-1.62,8.31c-4.61,2.5-13.18,1.01-12.98-5.52
		c1.52,2.31,3.06,5.2,6.23,5.29c3.58,0.94,9.43-1.04,8.39-5.59c-2.21-5.68-10.43-3.11-13.43-7.95
		C410.33,571.02,412.37,567.36,415.39,566.45z"/>
</g>
</svg>
