<?xml version="1.0" encoding="utf-8"?>
<!-- Generator: Adobe Illustrator 19.0.0, SVG Export Plug-In . SVG Version: 6.00 Build 0)  -->
<svg version="1.1" id="Layer_1" xmlns="http://www.w3.org/2000/svg" xmlns:xlink="http://www.w3.org/1999/xlink" x="0px" y="0px"
	 viewBox="142 -31.1 879 902" style="enable-background:new 142 -31.1 879 902;" xml:space="preserve">
<style type="text/css">
	.st0{fill:#2B1E15;}
	.st1{fill:#657815;}
	.st2{fill:#FFFFFF;}
	.st3{fill:#B0D030;}
	.st4{fill:#D9B5A1;}
	.st5{fill:#BA9C8A;}
	.st6{fill:#D9D9D9;}
	.st7{fill:#98AF3A;}
	.st8{fill:#D3D7C9;}
</style>
<g id="_x23_2b1e15ff">
	<path class="st0" d="M446.2-31.1h16.4c40.4,0.9,80.9,7.6,119,21.4c54.1,19.4,103,53,140.9,96.2c1.3,1.3,2.4,2.9,4.1,3.5
		c76.3,15.2,150.1,43.4,216.5,84c17.1,10.5,33.6,21.8,49.3,34.2c-2.7,65.5-11.5,130.8-27.3,194.5c-0.9,4.1-2.6,8-2.8,12.1
		c1.2,4.9,3.6,9.3,5.3,14c5-1.4,9.9-3,14.7-4.8c0,2,0,3.9,0.1,5.9c11-5.7,22-11.4,32.9-17c-8.9,15.5-17.9,31-26.8,46.5
		c-2,4.2-5.6,7.8-6.1,12.5c-0.1,14.5,0,28.9,0,43.4c-19.3,2.8-38.7,5.5-58.1,8c0.1,7.3,0,14.7,0.1,22c11.5-0.8,23.7,1.1,33.2,8
		c15,11.4,24.7,29.7,24.8,48.6c0,17,0,34,0,51c-0.1,7.3,0.4,14.7-0.9,22c13,15.5,25.9,31,39,46.4c-86.8,0.7-173.6,1.4-260.3,2.3
		c-54.3,53.6-112.8,103-174.9,147.3c-10.6-8.2-21.7-15.7-32.3-23.9c-49.5-37.7-96.7-78.3-140.9-122c-1-1.2-2.5-1.4-4-1.4
		c-88.6-0.8-177.1-1.5-265.7-2.3c15.6-18.7,31.4-37.3,47-56c-0.1-63.8,0-127.6-0.1-191.3c0.1-1.7-0.7-3.3-1.5-4.8
		c-10.9-18.7-21.6-37.4-32.4-56.1c11.3,5.8,22.6,11.7,33.9,17.5c0-2.1,0.1-4.3,0.1-6.4c8,2.9,16.2,5,24.2,7.7
		c-7.6-25.4-13.8-51.3-18.5-77.4c-0.7,0.5-2.1,1.4-2.8,1.9c3.3-4.5,1.2-9.7,0.4-14.5c-5.6-31.7-9.5-63.7-12.1-95.7
		c-0.7-12.6-2.2-25.2-2.2-37.8c21.4-16.8,44.2-31.7,67.8-45.1c34.7-19.6,71.1-35.9,108.7-48.9c1.7-0.5,3.4-1,5.1-1.4
		c-6.1-2.8-12.6-4.8-19-7c-26.7-8.9-53.9-16.1-81.3-22.4c-38.9-8.9-78.3-16-117.8-21.6v-0.4c1.3-0.4,2.5-1,3.8-1.6
		C195.5,32.9,247.4,9.8,301.5-6.6C348.4-20.9,397.1-30,446.2-31.1 M390.6,10.2c-24.8,3.3-49.3,8.2-73.7,13.8
		c-29.6,6.9-59,14.7-88.1,23.7c44.6,8.7,88.9,19.1,132.1,33.2c31.4,10.4,62.6,22.1,91.1,39c27.2,16.1,52.8,35,75.7,56.8
		c-39,9.3-77.6,20.5-115.1,34.8c-17.8,6.7-35.1,14.8-52.4,22.7c-18.7,8.6-37.4,17.4-55.3,27.5c-12.3,7-24.1,15-34.6,24.5
		c-3.7,3.4-7.5,7-10.5,11.1c15.5-4.9,31.1-9.5,46.7-14c35.2-10,70.4-20.2,106.5-26.5c82.9-15,169-13.4,250.8,7.1
		c70.1,17.4,136.5,48.3,196.3,88.6c25.4,17,49.4,36,72.8,55.6c-39.6-58.8-79.6-117.3-119.4-176c-9.6-13.9-18.8-28.2-28.8-41.9
		c11.7,28.8,24.4,57.1,36.1,85.8c-4.4-6.8-8.1-14.1-12.5-20.9c-17.9-29.5-37.7-57.8-59.2-84.9c-17.7-22.3-37.1-43.4-58.8-62
		c-15.4-13.6-30.4-27.8-46.5-40.5c-15.7-12.7-33.3-22.5-51-32.1c-20.5-11.1-42.7-18.8-65.4-23.5C507,8.3,486,6.8,465,6.3
		C440.1,5.8,415.2,7.1,390.6,10.2 M742.3,111.2c6.1,8.6,12,17.4,17,26.8c0.6-7.4,1.3-14.7,1.8-22.1
		C754.9,114.4,748.6,112.7,742.3,111.2 M774.2,119.3c10,11.8,20.4,23.2,30.2,35.2c1.6,1.9,3.2,4.2,5.7,5c6.1,2.3,12.1,4.8,18.1,7.3
		c42.6,18.2,83.5,40.9,120.1,69.4c0,2.9,0,5.9-0.1,8.8c-1,5.6-0.4,11.3-1.3,16.9c-0.9,13.7-2.3,27.4-3.7,41.1
		c-2,17.3-4.8,34.6-7.3,51.9c5.3,11.9,10.8,23.8,16.1,35.7c4-19.1,8-38.3,11.1-57.7c4.6-29.5,7.9-59.1,10.1-88.9
		c0.2-8.2,1.2-16.3,1.2-24.4c-15.5-12.5-32.1-23.6-49.1-34c-37.9-22.9-78.3-41.6-120.1-56.1C795,125.7,784.4,123,774.2,119.3
		 M381.8,123.7C336.6,138,293,157.1,252.1,181c-19.7,11.7-39.1,24.1-56.7,38.7c-0.1,4.6,0.9,13.8,0.9,13.8
		c0.5,9.7,0.8,18.9,1.9,28.3c0.3,3.4,0.3,6.8,0.7,10.2c0.8,3.6,0.5,7.3,1.3,10.8c0.3,3,0.3,6,1,9c0.3,5.1,1.2,10.1,1.7,15.2
		c0.5,2.3,0.7,4.7,1,7.1c0.9,4.9,1.3,9.9,2.4,14.8c0.1,0.8,0.3,2.3,0.3,3c6-9.3,12.4-18.3,19.1-27.1c-0.1-2.3-0.3-4.6-0.5-6.9
		c-0.7-3.3-0.8-6.6-1-9.9c-1-7.3-1.5-14.7-1.9-22.1c-0.9-4.3-0.6-8.7-0.9-13c-1.2-5.4-0.6-11-0.9-16.4c39.5-31,84.1-55,130.6-73.8
		c21.8-8.7,44.1-16.4,66.8-22.2c-9.9-6.4-20.3-12-31-16.8C385.1,122.5,383.4,123.3,381.8,123.7 M871.6,242.3
		c4,6.6,8.5,12.8,12.6,19.3c6.2,9.4,11.7,19.2,17.9,28.6c0-8.5,1.4-16.9,1.3-25.4C893.2,256.9,882.5,249.4,871.6,242.3 M469.8,262.4
		c-6.9,20.1-13,40.5-16.8,61.4c20.5-12.8,43.9-20,67.5-24.5l0.3,0.1c13.7-2.6,27.7-3.9,41.7-4.3c-5.7,7.3-11.4,14.6-17.1,21.9
		c17.3,2.2,34.6,4.3,52,6.5c-24.2,18.4-48.5,36.6-72.7,55c18.2,9.2,36.3,18.5,54.6,27.7c-6.4-7.8-12.9-15.4-19.3-23.2
		c10.1,4.8,19.7,10.7,29.2,16.8c15.4,10,30.3,20.7,44.9,31.8c4,3,7.9,6,11.8,9.1c3.2-15.9,8.3-31.3,14.8-46.1
		c-6.1-0.9-12.3-1.7-18.3-2.9c15-13,32.6-22.3,50-31.7c-9.3-31.5-22.4-61.8-37.3-91c-2.8-0.5-5.5-0.9-8.3-1.3
		c-18.8-2.5-37.7-3.5-56.6-4.3c-31.3-1.1-62.5-1.5-93.8-1.2C487.5,262.2,478.6,262.2,469.8,262.4 M292.6,310.1l0,0.1
		c-7.9,2.5-15.6,5.3-23.3,8.3c4.9,42.7,12.3,85.3,25.4,126.3c8.5,3.3,16.9,6.8,25.6,9.5l0,0.1c18.7,6,37.9,11.4,57.6,12.9
		c29.7,1.5,59-8.4,84.2-23.8c-3.8-10.9-7.7-21.8-11.6-32.6c-5.8-14.2-9.9-29.6-8.5-45.1c1-11.5,5.5-23.1,14.1-31
		c-6.5,1.1-13.1,2-19.7,3c0.8-14.4,4.6-28.4,8-42.3c-19.9-4-40.3-5-60.5-3.8C352.8,293.6,322.3,300.7,292.6,310.1 M723.1,300.5
		c0.6,28-0.5,56.9-11.3,83.2c6.5-2.7,13-5.4,19.7-7.9c-1.5,2.7-2.8,5.7-3.5,8.7c-6.8,15.8-13.3,31.9-23,46.3c6,2.7,12.2,5,18.6,6.7
		c17.4,5,36.1,4.1,53.6,0.2l0.9,0.6c-15.4,14-33.3,25.9-53.3,32.2c-12.2,3.9-25.2,4.3-37.8,3c-18.3-2.1-36.3-7.4-53.1-14.8
		c-2.8-1.4-6-0.1-9,0c-27.2,3.6-54.6,8.7-79.7,20.1c0.6,2.3,1.3,4.6,1.7,6.9c-1.2-2-2.3-4.1-3.4-6.1c-3.7,1.9-7.3,3.9-10.6,6.3
		c0.3-1.1,0.8-3.3,1-4.4c1.6-3.7,2.4-7.6,3.6-11.4c-1.8-2.6-3.7-5.1-5.6-7.6c-1.4,0.7-2.8,1.5-4.1,2.2
		c-14.4,7.5-29.2,14.2-44.6,19.6c7.2-0.1,14.4,1.3,21.6,1.1c1.4,0.1,2.8,0.2,4.2,0.3c5.9,1.1,11.9,0.2,17.8,1.3c0.7,0,2,0.2,2.6,0.2
		c2.7,0.1,5.4,0.1,8.1,0.2c0,3.1,0,6.3,0,9.5c4.4-1.2,8.3-3.6,12.7-4.9l0.1-0.3c3-0.7,6-1.4,9-2.1c7.4-1.6,15.1-1.1,22.6-1.2
		c7.6,0.2,15.3-0.4,22.9,0.6c3.4,0.3,6.7,1.1,10,2c5.5,1.3,10.5,3.7,15.6,6c0-3.2,0-6.3,0-9.4c4.9-0.1,9.7-0.1,14.6-0.4
		c5.3-1,10.7-0.4,16-1.1c5.6-0.8,11.3-0.5,17-0.9c4.6-0.9,9.3-0.5,13.9-1c3.5-0.9,7.3-0.5,10.9-1.3c9-0.8,18.2-1,27,1.2
		c2.3,0.6,4.6,1.4,6.9,2.2c2.3,0.9,4.5,1.9,6.8,2.8c0-3.5,0-6.9-0.1-10.4c1.2-0.1,2.4-0.3,3.6-0.4c2.3-0.6,4.7-0.8,7-1
		c2.3-0.6,4.7-0.8,7-1c7-1.2,14-2.1,21-3c3-0.6,6-0.9,9-1.5c3.5-0.6,7-1.2,10.5-1.5c-1.1-11.7-3.5-23.3-7.2-34.5
		c-1.3-5.7-3.4-11.1-5.4-16.6c-6.8-18.2-15.4-35.7-25.9-52.1c-7.1,11.6-14.1,23.3-21.3,34.9c6-30.4,12.2-60.8,18-91.3
		C749.2,303.2,736.1,298.8,723.1,300.5 M497.3,325.4c1.9,2.3,3.9,5.3,2.7,8.4c-1.9,5.2-7,8.1-11.3,11c7.4,0,16.3-0.9,21.1-7.3
		c3-5.8,1.6-12.6,0.7-18.8C506.1,320.9,501.7,323.2,497.3,325.4 M488.4,329.2c-2.8,1.6-2.5,6.4,0.6,7.5c3.1,1.6,7-1.7,5.9-5
		C494.3,329,490.7,327.6,488.4,329.2 M209.2,346.3c0.2,2.1,0.4,4.3,0.9,6.4c1.6,8.4,3.1,16.8,5,25.1c4.1,19.8,9.4,39.2,14.8,58.6
		c-2-8.6-3.5-17.4-4.9-26.1c7.8,4.6,15.7,9,23.7,13c-0.8-1.7-1.3-3.6-1.9-5.4c-0.3-1.3-0.7-2.6-1-3.9c-2-8.1-4.1-16.1-5.8-24.2
		c-0.7-3-1.4-6-1.9-9.1c-0.4-1.6-0.7-3.3-1-5c-0.4-1.6-0.7-3.3-1-5c-0.4-1.7-0.6-3.4-1-5c-0.8-3.9-1.4-7.9-2.2-11.9
		c-0.3-2-0.5-4-1-6c-0.3-2-0.5-4-1.1-6c-0.2-2-0.4-4.1-0.6-6.1C222.9,338.8,216.1,342.7,209.2,346.3 M456.2,393.3
		c13.5-5.2,28.1-6.2,42.4-6.3c-2.6-5.5-6.9-10-11.6-13.8c3-5.1,7-9.6,11.3-13.8c-6.8-5.6-16-6.9-24.6-6.9
		C463.3,363.4,458.4,378.5,456.2,393.3 M791.4,352c12,37.5,20.9,75.8,28.2,114.5c8-1.5,16.3-0.9,24.2,0.8c5.3,1.6,10.6,3.5,15,6.9
		c1.3,0.8,2.4,2.1,4,2.5c2.1-4.1,3.3-8.6,5.1-12.9c8-22.5,14.4-45.5,19.2-68.8c-7-3.6-14.1-7-21.3-10.4
		C841.3,373.1,816.6,361.8,791.4,352 M922.7,414.3c-2.5,10.2-5.8,20.2-8.6,30.3c2-0.5,4-1.1,6-1.6c1.3-0.4,2.6-0.7,4-1.1
		c3.6-1.1,7.3-2,11-3c1.1-0.3,2.3-0.6,3.5-0.8c1.9-3.5,2.6-7.4,3.8-11.2C935.9,422.6,929.4,418.3,922.7,414.3 M478.8,418.3
		c11.8,5.9,23.1,12.9,33.8,20.5c9.1,7.3,17.5,15.4,24.2,25c-4.1-10.3-8.9-20.4-15.4-29.3c-5.8-7.8-13.2-15.3-22.9-17.9
		C491.9,414.7,485,415.9,478.8,418.3 M962.6,450.4c-8.9,3.2-18.2,5.3-27.3,7.9c-14.7,4.1-30.7,6-43,15.8
		c-8.1,6.6-16.5,14.9-17.9,25.8c-0.2,16-0.1,31.9-0.1,47.9c-0.2,17.7,15.2,32.8,32.1,35.6c6.1,1.3,12.4,0.5,18.6,1.5
		c2.6,0.2,5.1,0.2,7.7,0.3c0,28.7,0.1,57.5,0.1,86.2c-3.6-0.9-7.2-1.7-10.6-2.9c-0.5-0.1-1.7-0.4-2.2-0.5
		c-5.2-1.4-10.3-2.7-15.5-4.1c-0.2-7.2-0.1-14.5,0-21.7c-7.3-2.2-15-2.9-22.5-4.3c-2.4-0.7-4.9-0.8-7.3-0.8
		c1.3,12.6,0.2,25.2,0.8,37.8c2.5,0.5,5,1.2,7.5,2c2.4,0.5,4.8,1.2,7.2,1.8c6.7,2,13.3,4.2,20,6c11.4,3.5,22.9,8.8,35,6.5
		c1.2-0.5,2.5-1,3.7-1.5c9.4-4.4,12.8-15.1,13.3-24.7c0.1-20.4,0.1-40.8,0-61.2c-0.8-5.9-1.7-12-4.6-17.3
		c-4.7-8.4-11.1-16.5-20.4-20c-10.7-3-22-1.4-33-1.9c0-11.9,0-23.7,0-35.6c-0.7-14.5-0.4-29-0.6-43.4c9.6-2.3,19.4-4,29-6.3
		c0.3,5.5-0.1,11.1,0.3,16.6c-0.1,2.2-0.2,4.5-0.2,6.7c9.9-1.1,19.7-3,29.5-4.7c0.1-9.2,0-18.5,0-27.7c11.6-13.8,23.3-27.5,35-41.3
		C985.7,436.1,974.2,443.4,962.6,450.4 M171.4,429.7c12.5,13.8,24.1,28.4,36,42.8c0.8,1.1,2,2.1,2,3.5c0.3,63-0.1,126,0.3,189
		c0.8,2.6,0.7,5.4,1.5,8c2.5,8.1,9.1,14.7,16.9,17.8c7.1,2,14.4,0.1,21-2.8c5.8-2,11.9-3.3,17.7-5.3c3.4-0.8,6.8-1.8,10.3-2.7
		c4.9-1.6,10-2.6,15-4c1.5-0.5,3.1-0.9,4.7-1.4c3.8-0.8,7.5-1.8,11.3-2.7c1.3-0.4,2.6-0.7,3.9-1c1.6-0.5,3.3-0.8,4.9-1.2
		c2.4-0.5,4.8-1.1,7.3-1.7c1.2-0.5,2.5-0.9,3.7-1.4c6.8-2.2,12.6-6.5,17.7-11.3c6.2-5.4,10.5-13.2,10.7-21.5
		c0.1-15.1,0.1-30.2,0.4-45.3c0.2-15.5-0.3-31.1,0.5-46.6c0.3-9.7,0.1-19.4,0.2-29.1c0.1-5.6-0.9-11.5-4.2-16.2
		c-6-8.8-15.7-14.3-25.6-17.6c-0.4,20.2-0.2,40.5-0.3,60.7c0,1.4-0.1,2.7-0.5,4.1c0.8,2.2,0.4,4.6,0.1,6.9
		c-0.3,33.1-0.4,66.3-0.6,99.4c-1.7,1.8-4.6,1.5-6.9,2.2c-7.7,1-15,3.6-22.7,4.3c0-19.9,0.2-39.8,0.1-59.8c-0.2-3,1-6.1,0-9
		c1-3.2,0.4-6.6,0.6-9.9c0.3-25.3,0.2-50.7,0.2-76c0.2-6.5-3.2-12.5-7-17.5c-6.3-7.3-13.3-14.3-22.1-18.5c-0.3,7.6,0,15.3-0.2,23
		c-0.7,4.3-0.3,8.6-0.4,12.9c-0.2,31-0.2,62-0.1,93c0.2,22.8-0.3,45.7-0.1,68.6c-2.1,0.7-4.2,1.1-6.3,1.6c-2.1,0.5-4.2,1-6.3,1.6
		c-5.5,1-10.7,3.1-16.2,4.2c0-23,0.1-46,0.1-68.9c0-3-0.1-6,0.4-8.9c-0.2-2-0.3-4.1-0.2-6.1c-0.4-4.6,1-9.3-0.1-13.9
		c0.5-4.6,0.8-9.3,0.1-14c-0.1-4.7-0.1-9.4,0-14.2c0.6-3,0-6-0.1-8.9c-0.3-25.7,0.2-51.4-0.2-77.1c-10.6-3.3-21.8-5.3-31.6-10.8
		C195.1,442,183.1,436,171.4,429.7 M472,448.2c-1.7,5.1-3.2,10.1-4.8,15.2c15.4-4.8,31-10.3,47.2-11.4c-2.7-2.4-5.2-5.3-8-7.6
		c-1.4-0.6-3-0.2-4.4-0.2C491.9,444.7,481.8,445.3,472,448.2 M538.3,459c0.5,1.3,1,2.5,1.5,3.8c0.6-1.9,1.1-3.8,1.7-5.7
		C540.4,457.7,539.3,458.4,538.3,459 M807.2,486c-14.2,2.4-28.5,4.7-42.8,6.5c-0.1,49.2,1.2,98.3,1.3,147.5c0.4,5,0.6,10.1,0.5,15.2
		c1.6,0.3,3.2,0.5,4.8,0.9c12.1,1.2,24,3.3,36,5c4.6,0.9,9.3,1.5,14,2.2c9.2,1.2,19.2-0.8,26.4-7c4.1-3.6,7.4-8.7,7.3-14.4
		c0.1-22-0.2-44-0.4-66c-0.1-11,0.3-22-0.4-32.9c-0.1-12.4-0.1-24.7-0.2-37.1c0-2.5-0.7-4.8-1.3-7.2c-4.2-8-12.5-13.1-21.3-14.5
		C823.1,482.4,815.1,484.8,807.2,486 M377.8,488.2c0.1,28.9-0.3,57.8-0.4,86.8c0.1,6-0.8,11.9-0.6,17.9c0,22,0,44-0.3,66
		c3.2-0.4,6.5-0.6,9.7-0.8c2-0.5,3.9-0.7,5.9-1c4.8-1,9.6-1.6,14.4-1.9c0.2-11.1,0-22.1,0.3-33.2c0.2-9.7-0.4-19.4,0.5-29.1
		c0.3-17.3,0.5-34.7,0.4-52c-0.3-16.2,0.9-32.3,0.7-48.4C398.1,490.8,387.9,489.9,377.8,488.2 M426.8,495.1c0,9.6,0,19.3,0,28.9
		c7.6,1.8,15.5,1.1,23.2,2c2.4,0.2,4.9,0.2,7.3,0.2c0.1-5,0-10,0.2-15c2.5,0.1,5,0.2,7.5,0.7c4,0.4,8.1,0.1,12,1
		c3.2,0.2,6.4,0.2,9.7,0.5c0.1,8.4-0.1,16.8-0.2,25.2c-16.1,18.4-32.8,36.4-47.8,55.8c-4.2,5.4-9.1,10.5-12.7,16.3
		c-0.2,13.8-0.2,27.7-0.4,41.6c3.2-0.1,6.4-0.2,9.6-0.5c3.2-0.9,6.6-0.6,9.9-1.3c4-0.5,8.1-0.2,12.1-0.9c4.9-0.9,9.8-0.3,14.7-1.1
		c6.4-0.9,12.9-0.2,19.3-0.8c4.6-1.2,9.4-0.4,14.1-1c3.7-0.5,7.4-0.5,11.2-0.7c0.1-9,0.1-18,0.2-27c-10.3-0.2-20.5,0.7-30.8,1
		c0,5,0.1,10-0.2,14.9c-5.8,0.4-11.7-0.3-17.5,0.8c-3.9,0.2-7.9,0.1-11.8,0.2c0.2-8.8,0.2-17.7,0.4-26.5c7.8-9,15.2-18.4,23.1-27.3
		c12.4-13.8,23.8-28.4,36.8-41.7c0.5-12.9,0.2-25.8,0.2-38.7c-9.3,0-18.6-1.3-27.9-1.2C468.3,498.7,447.5,497.1,426.8,495.1
		 M651.5,502.5c-0.2,47.9,0.9,95.8,0.6,143.7c5,0.2,10,0.3,14.9,0.5c5.2,0.8,10.5,0.4,15.7,0.8c-0.2-22-0.2-44-0.2-66
		c0.3-0.2,0.9-0.6,1.2-0.8c9.6-0.4,19.2-0.3,28.8-0.3c0.8,4.8,0.5,9.6,0.6,14.4c0.1,13.7,0.2,27.3,0.2,41c-0.2,3.7,1.3,7.2,3.6,10
		c6.8,8.2,16.4,13.3,26.4,16.5c2-3.8,0.4-8.4,0.5-12.5c-0.3-20.5,0-41-0.4-61.5c-4.9-5.1-10.8-9.4-15.3-14.9
		c4.1-6,10.5-10.5,14.8-16.4c0.3-12.4-0.6-24.9-0.4-37.3c0.4-5.7-3.6-10.5-7.9-13.7c-7-5.5-16-7.7-24.8-7.5
		C690.5,500.3,671,501.8,651.5,502.5 M565.1,505c-6.4,1-12.6,3.6-18,7.2c-4.2,2.9-8.3,7.1-8.2,12.5c-0.3,13.7,0.1,27.5-0.3,41.2
		c0,26.5,0,53-0.2,79.5c10.3,0,20.5-0.1,30.8-0.1c0.1-14.7,0-29.5,0.1-44.2c10.1,0.2,20.2,0.2,30.3,0.2c0.1,14.7,0,29.4,0.1,44.1
		c10.2,0.1,20.5,0.3,30.7,0.1c-0.2-33.5-0.2-67-0.2-100.5c-0.8-6.9-0.3-13.9-0.5-20.9c0-4.6-3.4-8.3-6.8-10.9
		c-6.1-4.5-13.5-7.1-21-8.3c-5.6-1.2-11.3-0.3-16.9-0.5C578.4,504.3,571.7,503.5,565.1,505 M874.9,591.2c-0.4,7.6,0,15.2-0.2,22.8
		c0.1,1.4-0.4,4,1.6,4.2c12.1,1.8,24.2,3.8,36.2,5.5c0.1-6.8,0-13.5,0.1-20.3c-8-0.6-16.1-1.6-23.6-4.6
		C883.9,597,879.5,593.8,874.9,591.2 M526.8,661.4c14.7,0.4,29.5,0.9,44.1-1.2C556.3,661.9,541.5,660.7,526.8,661.4 M703.6,659.7
		c0,1.8-0.1,3.7-0.2,5.5c-14.1-1.2-28.3-1.4-42.4-2.8c-9.3-0.2-18.6-0.5-27.9-0.3c-6.8,1.5-13.3,4-20,5.5
		c-44.1,11.5-90.8,12.6-135.3,2.7c-5-1.6-10.1-2.7-15.1-4.1c-5-0.4-10,0-15,0.4c-0.1,0.2-0.4,0.7-0.6,1c9.6,10.1,20,19.4,30.1,29
		c30.7,28,62.7,54.6,96.3,79.1c-0.5-3.8,1.1-8.5-2-11.5c-3.5-3.8-6.9-7.7-10.5-11.4c0.5-2.3,1.2-4.6,1.6-7c0.6-3,1.1-6,1.5-9.1
		c0.5,2.5,0.9,5.1,1.2,7.6c0.2,2-0.3,4.3,0.6,6.2c2.1,2.6,4.6,4.9,7,7.2c1.7,2,4.6,1,6.9,1.3c0.4-5.2-5-7.7-8.4-10.7
		c3.1-14.6,6.3-29.1,9.4-43.7c1-4.3,1.6-8.8,3.1-13c3.9,19.2,8.7,38.3,12.6,57.5c-3,2.5-6.6,4.3-8.9,7.4c1.8,0.9,3.5,1.7,5.3,2.6
		c3.8-3.7,7.8-7.3,11.5-11.1c-0.1-1-0.2-3.1-0.3-4.1c-0.3-3.1-0.5-6.2-0.3-9.3c0.9,2.5,1.6,5.1,2.4,7.7l0.1-0.1
		c0.9,3.3,1.9,6.6,3.3,9.8c-4,4.4-8.6,8.3-12.4,12.9c-0.8,3.1-0.2,6.4-0.4,9.6c43.1-31.6,83.8-66.5,122.1-103.9
		C713.3,667.8,708.2,664,703.6,659.7 M266.5,695.9c10.3,2.3,21,1.8,31.4,3.1c42.3,3,84.6,6.5,126.9,9.3c-2.3-8.5-4.8-16.9-7-25.4
		c-0.4-1.3-0.6-2.7-1.5-3.7C366.4,684.9,316.5,690.4,266.5,695.9 M749.9,679.2c-2.6,9.7-5.2,19.4-8.1,29.1
		c42.4-2.7,84.8-6.3,127.2-9.3c10.5-1.2,21.3-0.8,31.7-3.1C850.5,690.4,800.2,684.8,749.9,679.2 M962.5,701.3
		c-24.5,1.5-48.9,3.8-73.3,5.5c-36.7,2.9-73.5,5.7-110.2,8.6c-11,0.4-21.9,2.3-32.9,2.4l-0.5-1.4c0,0.6-0.1,1.2-0.1,1.8
		c5.1-0.2,10.3,0.1,15.4,0c9.7,0.1,19.4-0.9,29.1-0.7c8.7-0.2,17.5,0,26.2-0.6l-1.2-0.6c12.3,0.4,24.7,0.1,36.9-0.6
		c13.7-0.3,27.4,0.1,41-1c13.1-0.2,26.1-0.3,39.2-0.6c15.8-1.3,31.8-0.1,47.7-1.4c6.8-0.3,13.5-0.2,20.3-0.4
		c-7-10.1-14.1-20.1-21.1-30.2C974,688.9,967.7,694.7,962.5,701.3 M191,682.8c-3.9,6-8.2,11.8-12.3,17.7c-2.9,3.9-5.4,8.2-8.7,11.8
		c7.3,0.3,14.6,0.2,21.9,0.4c16.2,1.4,32.6,0.1,48.8,1.5c12.1,0.3,24.2,0.2,36.3,0.6c14.9,1.3,29.9,0,44.8,1.3
		c16.4,0.6,32.9,0,49.3,1.2c16.9,0.3,33.7,0.4,50.6,0.3c-12.6-1-25.2-1.6-37.8-2.5c-4.6-1-9.3-0.3-13.9-1.3c-4.3-0.5-8.7-0.2-13-1
		c-4.3-0.5-8.7-0.2-13-1c-21.1-1.4-42.1-3.4-63.2-4.7c-4.3-0.9-8.7-0.5-13-1c-4.3-0.9-8.7-0.6-13-1c-4.3-0.8-8.7-0.6-13-1
		c-4.3-0.9-8.7-0.6-13-1c-4.3-0.8-8.7-0.6-13-1c-2.5-0.5-5-0.6-7.5-0.7c-3.7-4.2-7.4-8.4-11.2-12.6C195.2,686.7,193.7,684,191,682.8
		 M429.8,723.7c24.8,24.1,50.7,47,77.3,69.1c25.2,20.9,51.1,41,77.9,59.8c54.9-38.9,106.6-82.4,155.2-128.9
		c-9.4,0.2-18.8-0.1-28.1,0.4c-3.6,2.2-6.4,5.5-9.5,8.3c-37.1,33.6-75.9,65.3-116.8,94.3c-1.5,1.7-3-0.4-4.3-1.1
		c-31.6-22.4-61.9-46.6-91.2-71.9c-11.3-9.6-22-19.9-33.3-29.5C447.9,723.7,438.8,723.9,429.8,723.7z"/>
	<path class="st0" d="M794.6,503.3c9.6-1.5,19.3-3.1,29-4.2c0.3,9.6-0.3,19.2,0.6,28.8c-0.3,36,0.5,72,0.5,108
		c0.3,3.8,0.6,7.7,0.5,11.6c-2.8,0.1-5.5-0.1-8.2-0.5c-2.6-0.8-5.3-0.8-8-1.1c-4.2-0.8-8.4-1.3-12.6-1.6c-0.3-1.5-0.6-2.9-0.6-4.4
		C795.9,594.4,794.6,548.8,794.6,503.3z"/>
	<path class="st0" d="M682.3,513.6c10-0.5,20-1.1,30-2.3c0.1,18.6,0.6,37.2,0.5,55.8c-5.6,0-11.2,0.2-16.8,0.1
		c-4.5,0-9.1,1-13.6,0.2c0-9.9-0.2-19.8-0.3-29.7C682,529.8,681.4,521.7,682.3,513.6z"/>
	<path class="st0" d="M569.3,588.3c0.1-24,0-47.9,0.2-71.9c10,0.2,19.9,0.3,29.9,0.1c0.2,23.9,0.1,47.9,0.2,71.8
		C589.5,588.6,579.4,588.4,569.3,588.3z"/>
</g>
<g id="_x23_657815ff">
	<path class="st1" d="M390.6,10.2c24.7-3.2,49.6-4.5,74.4-4c21,0.5,42,2.1,62.6,6.1c22.8,4.7,45,12.4,65.4,23.5
		c17.6,9.6,35.3,19.4,51,32.1c16.2,12.8,31.1,26.9,46.5,40.5c21.6,18.6,41,39.7,58.8,62c21.5,27,41.2,55.4,59.2,84.9
		c4.3,6.9,8.1,14.1,12.5,20.9c-11.7-28.8-24.5-57.1-36.1-85.8c9.9,13.7,19.1,28,28.8,41.9c39.8,58.7,79.8,117.2,119.4,176
		c-23.4-19.6-47.4-38.6-72.8-55.6C800.4,312.4,734,281.4,663.9,264c-81.8-20.5-167.9-22.1-250.8-7.1c-36.1,6.3-71.3,16.5-106.5,26.5
		c-15.6,4.5-31.2,9.1-46.7,14c3-4.1,6.7-7.6,10.5-11.1c10.5-9.5,22.2-17.6,34.6-24.5c17.9-10.2,36.6-18.9,55.3-27.5
		c17.3-7.9,34.6-16,52.4-22.7c37.5-14.3,76.1-25.5,115.1-34.8C504.8,155,479.2,136.1,452,120c-28.5-17-59.7-28.7-91.1-39
		c-43.2-14.1-87.5-24.6-132.1-33.2c29.1-8.9,58.5-16.7,88.1-23.7C341.3,18.4,365.8,13.5,390.6,10.2 M369.8,42.8
		c2.4,1.1,4.7,2.6,7.3,3c12.5,6.4,25.5,11.7,38.2,17.7c3.8,1.6,7.4,4,11.7,4.4c20.3,1.8,40.6,3.7,60.9,5.6c1.9,0.2,3.8,0.5,5.6,0.9
		c-11,0.8-22,1.1-32.9,2.3l1.4,0.9c-5.4-2.2-11.5,0.1-17.2-0.1c17.9,10.9,35.3,22.8,51.3,36.3c7.9,6.8,15.6,13.8,21.6,22.3
		c6.7,9.3,11.7,19.8,14.3,31c5.3,1.4,10.7,2.7,16,4c11.8,3,23.7,5.7,35.5,9c-26.1,6.6-52.5,12.4-78.6,18.7
		c-5.4,1.9-10.4,4.6-15.5,7.1c-29.4,13.9-58.7,28-88,42c29.2-10.1,59.4-17.4,89.8-23c48-8,97.1-10.8,145.4-4.7
		c39,4.8,77.4,15.6,112.6,33.3c-3.7-9.6-8.1-18.8-11.5-28.5c8.4,11.6,15.4,24.1,23.4,35.9c0.9,1.1,2.3,1.7,3.5,2.5
		c8.8,4.6,17.2,10,24.7,16.6c-11.8-18.6-24.9-36.5-38.4-53.9c-22.5-28.8-46.9-56.3-73.7-81.3c-27.6-25.6-58-48.8-92-65.4
		C519.1,46.3,443.1,32.8,369.8,42.8z"/>
	<path class="st1" d="M874.9,591.2c4.6,2.7,9,5.8,14.1,7.6c7.5,3.1,15.6,4.1,23.6,4.6c0,6.8,0.1,13.5-0.1,20.3
		c-12.1-1.8-24.2-3.7-36.2-5.5c-2-0.3-1.5-2.8-1.6-4.2C874.9,606.4,874.5,598.8,874.9,591.2z"/>
</g>
<g id="_x23_ffffffff">
	<path class="st2" d="M369.8,42.8c73.3-10,149.3,3.6,215.3,36.6c-0.5,0.7-0.9,1.4-1.3,2.2c-31.3-11.6-63.5-21-96.3-27.5
		c-36.3-6.9-73.4-9-110.4-8.3C374.5,45.4,372.2,43.9,369.8,42.8z"/>
	<path class="st2" d="M444.8,77.4c5.7,0.2,11.8-2,17.2,0.1c22.5,12,45.4,25.5,61.3,46c11,14.2,18.9,30.6,24.8,47.6
		c-5.3-1.3-10.7-2.6-16-4c-2.6-11.1-7.6-21.7-14.3-31c-6-8.5-13.8-15.6-21.6-22.3C480,100.2,462.7,88.3,444.8,77.4z"/>
	<path class="st2" d="M742.3,111.2c6.3,1.5,12.5,3.2,18.8,4.7c-0.6,7.4-1.2,14.7-1.8,22.1C754.3,128.6,748.5,119.8,742.3,111.2z"/>
	<path class="st2" d="M774.2,119.3c10.2,3.7,20.8,6.3,31,10.1c41.8,14.5,82.2,33.2,120.1,56.1c17,10.3,33.6,21.5,49.1,34
		c0,8.2-1.1,16.3-1.2,24.4c-2.2,29.7-5.4,59.4-10.1,88.9c-3.1,19.3-7,38.5-11.1,57.7c-5.3-11.9-10.8-23.8-16.1-35.7
		c2.5-17.3,5.3-34.5,7.3-51.9c1.3-13.7,2.8-27.4,3.7-41.1c0.9-5.6,0.3-11.3,1.3-16.9c0.2-3,0.2-5.9,0.1-8.8
		c-36.6-28.5-77.5-51.2-120.1-69.4c-6-2.5-12-5-18.1-7.3c-2.5-0.8-4.1-3.1-5.7-5C794.6,142.5,784.2,131.1,774.2,119.3z"/>
	<path class="st2" d="M381.8,123.7c1.6-0.4,3.3-1.2,4.9-0.3c10.7,4.8,21.1,10.5,31,16.8c-22.7,5.9-45,13.6-66.8,22.2
		c-46.4,18.9-91.1,42.8-130.6,73.8c0.3,5.5-0.2,11,0.9,16.4c0.3,4.3,0,8.7,0.9,13c0.4,7.4,0.9,14.8,1.9,22.1c0.3,3.3,0.3,6.7,1,9.9
		c0.2,2.3,0.4,4.6,0.5,6.9c-6.7,8.8-13.1,17.8-19.1,27.1c-0.1-0.8-0.3-2.3-0.3-3c-1.1-4.9-1.4-9.9-2.4-14.8c-0.2-2.4-0.5-4.7-1-7.1
		c-0.5-5.1-1.4-10.1-1.7-15.2c-0.7-3-0.7-6-1-9c-0.8-3.6-0.5-7.3-1.3-10.8c-0.3-3.4-0.4-6.8-0.7-10.2c-1-9.4-2.9-37.5-2.8-42.1
		c17.7-14.6,37-27,56.7-38.7C293,157.1,336.6,138,381.8,123.7z"/>
	<path class="st2" d="M401.4,247.8c29.3-14.1,58.7-28.1,88-42c-11.6,7.1-23.6,13.6-35.3,20.5c12.4-0.5,24.7-0.9,37-1.5
		C460.7,230.4,430.6,237.7,401.4,247.8z"/>
	<path class="st2" d="M469.8,262.4c8.8-0.3,17.6-0.2,26.4-0.4c-3.8,0.1-7.5,0.3-11.3,0.4c-4.9,12.7-9.6,25.5-14.4,38.2
		c13.2-3.3,26.9-4.8,40.5-3.5c3.2,0.2,6.4,0.8,9.4,2.2c-23.6,4.5-47,11.7-67.5,24.5C456.9,302.9,462.9,282.5,469.8,262.4z"/>
	<path class="st2" d="M723.1,300.5c13-1.6,26.1,2.8,36.8,9.9c-5.8,30.5-12,60.9-18,91.3c7.2-11.6,14.2-23.3,21.3-34.9
		c10.5,16.4,19,33.9,25.9,52.1c1.9,5.5,4.1,10.9,5.4,16.6c-1.3,12-1.7,24-3.4,36c-3,0.6-6,0.9-9,1.5c-7,0.9-14,1.8-21,3
		c-2.3,0.2-4.7,0.5-7,1c-2.3,0.2-4.7,0.4-7,1c-1.2,0.1-2.4,0.3-3.6,0.4c0,3.5,0,6.9,0.1,10.4c-2.3-0.9-4.5-1.9-6.8-2.8
		c-2.3-0.8-4.6-1.5-6.9-2.2c-8.9-2.2-18-2-27-1.2c-3.6,0.9-7.3,0.4-10.9,1.3c-4.6,0.5-9.3,0.1-13.9,1c-5.7,0.4-11.3,0.1-17,0.9
		c-5.3,0.7-10.7,0-16,1.1c-4.8,0.4-9.7,0.3-14.6,0.4c0,3.1,0,6.3,0,9.4c-5.1-2.3-10.2-4.7-15.6-6c-3.3-0.9-6.6-1.7-10-2
		c-7.6-1-15.3-0.5-22.9-0.6c-7.5,0-15.2-0.5-22.6,1.2c-3,0.7-6,1.4-9,2.1c0.1-0.4,0.3-1.2,0.4-1.6c22.6-11.5,48-16.6,73.2-18.2
		c7.5-0.8,14.5,2.1,21.7,3.5c20.9,4.4,42.4,6.5,63.7,4c17.2-2.1,34.3-7.5,48.6-17.4c8.8-6.1,16.5-13.8,21.9-23
		c-0.3-0.4-0.8-1.3-1-1.7c-0.4,0.1-1.3,0.4-1.7,0.5c-17.6,3.8-36.2,4.7-53.6-0.2c-6.4-1.7-12.6-4-18.6-6.7
		c9.6-14.4,16.1-30.5,23-46.3c-0.4,2.3-0.7,4.7-1.4,6.9c-4,11-8.2,22-12,33c-1.2,2,1.6,2.5,2.9,3.2c10.5,3.8,21.4,6.8,32.6,6.9
		c13.1,0,25.4-5.8,35.7-13.6c-6.8-13.7-13.7-27.4-20.7-41c-9,9.8-17.1,20.4-26.3,30c5.1-24.6,9.6-49.4,13-74.3
		c0.7-7.7,2.4-15.4,2-23.2c-7.2-6-17-7.7-26.1-8.5c1.5,13.9,2.6,28.1,0.1,41.9c-1.6,9.4-5.2,18.2-8.8,26.9
		c5.2-1.1,10.4-2.3,15.6-3.2c-0.8,2.1-1.8,4.3-3,6.2c-6.6,2.5-13.1,5.3-19.7,7.9C722.5,357.3,723.7,328.5,723.1,300.5z"/>
	<path class="st2" d="M488.4,329.2c2.3-1.6,5.9-0.2,6.5,2.5c1.1,3.3-2.8,6.6-5.9,5C485.9,335.6,485.6,330.8,488.4,329.2z"/>
	<path class="st2" d="M209.2,346.3c7-3.6,13.8-7.5,21-10.5c0.2,2,0.4,4.1,0.6,6.1c0.5,2,0.8,4,1.1,6c0.5,2,0.7,4,1,6
		c0.8,3.9,1.4,7.9,2.2,11.9c0.3,1.7,0.6,3.4,1,5c0.3,1.7,0.6,3.3,1,5c0.3,1.6,0.6,3.3,1,5c0.5,3,1.2,6.1,1.9,9.1
		c1.7,8.1,3.8,16.2,5.8,24.2c0.4,1.3,0.7,2.6,1,3.9c0.5,1.8,1,3.7,1.9,5.4c-8.1-4.1-15.9-8.5-23.7-13c1.4,8.8,2.9,17.5,4.9,26.1
		c-5.4-19.4-10.8-38.9-14.8-58.6c-1.9-8.3-3.4-16.7-5-25.1C209.6,350.6,209.4,348.5,209.2,346.3z"/>
	<path class="st2" d="M922.7,414.3c6.7,4,13.2,8.3,19.6,12.7c-1.2,3.8-1.9,7.7-3.8,11.2c-1.2,0.2-2.3,0.5-3.5,0.8
		c-3.6,1.1-7.3,2-11,3c-1.3,0.3-2.7,0.7-4,1.1c-2,0.5-4,1.1-6,1.6C916.9,434.5,920.2,424.5,922.7,414.3z"/>
	<path class="st2" d="M478.8,418.3c6.2-2.4,13.2-3.6,19.7-1.8c9.7,2.6,17.1,10.1,22.9,17.9c-0.7,1.7-1.5,3.3-2.2,5
		c-2.2-0.2-4.4-0.3-6.6-0.6C501.8,431.1,490.6,424.1,478.8,418.3 M485.7,420.5c5.6,0.7,11.3,1.2,17,1.4c-1.8-1.5-3.7-2.8-5.6-4.1
		C493.3,418.6,489.4,419.4,485.7,420.5z"/>
	<path class="st2" d="M962.6,450.4c11.7-7,23.1-14.4,34.7-21.5c-11.6,13.8-23.4,27.5-35,41.3c0,9.2,0,18.5,0,27.7
		c-9.8,1.6-19.6,3.5-29.5,4.7c0.1-2.2,0.1-4.5,0.2-6.7c-0.4-5.5,0-11.1-0.3-16.6c-9.6,2.3-19.4,4-29,6.3c0.2,14.5-0.2,29,0.6,43.4
		c0,11.9,0,23.7,0,35.6c11,0.5,22.3-1.1,33,1.9c9.3,3.5,15.7,11.6,20.4,20c2.9,5.3,3.8,11.4,4.6,17.3c0.1,20.4,0.1,40.8,0,61.2
		c-0.4,9.6-3.8,20.4-13.3,24.7c-1.3,0.5-2.5,1-3.7,1.5c-12.2,2.3-23.7-3-35-6.5c-6.7-1.8-13.4-4-20-6c-2.4-0.6-4.8-1.2-7.2-1.8
		c-2.5-0.7-5-1.4-7.5-2c-0.5-12.6,0.6-25.3-0.8-37.8c2.5,0,5,0,7.3,0.8c7.5,1.4,15.3,2.1,22.5,4.3c-0.1,7.2-0.2,14.5,0,21.7
		c5.1,1.4,10.3,2.7,15.5,4.1c0.5,0.1,1.7,0.4,2.2,0.5c3.5,1.2,7.1,2.1,10.6,2.9c0-28.8-0.2-57.5-0.1-86.2c-2.6-0.1-5.1-0.1-7.7-0.3
		c-6.1-1.1-12.4-0.2-18.6-1.5c-16.9-2.8-32.3-17.9-32.1-35.6c0-16-0.1-31.9,0.1-47.9c1.5-10.9,9.8-19.2,17.9-25.8
		c12.3-9.8,28.3-11.7,43-15.8C944.4,455.7,953.6,453.6,962.6,450.4 M935.1,606.1c-0.2,21.3,0,42.5-0.1,63.8c0.2,1.8-0.7,3.3-1.8,4.6
		c-10.1-3.6-20.7-5.4-30.8-8.9c-0.2-6.6,0.1-13.2-0.1-19.8c0.3-1.5-1-2.5-2.4-2.4c-7.7-0.8-15.1-3.1-22.8-3.4c-0.1,11,0,22,0,33.1
		c7.4,2.2,15.1,3.5,22.4,6.3c11.5,2.8,22.5,7.4,34,9.9c7.1,1.2,15.4,0,20.3-5.9c3.5-4.8,5.7-10.6,5.7-16.5c0-17-0.1-34,0-51
		c-0.2-1.3,0.5-3.7-1.4-4C950.4,609.7,942.7,608,935.1,606.1z"/>
	<path class="st2" d="M171.4,429.7c11.7,6.4,23.7,12.3,35.6,18.4c9.8,5.4,21,7.5,31.6,10.8c0.3,25.7-0.1,51.4,0.2,77.1
		c0.1,3,0.8,6,0.1,8.9c-0.2,4.7-0.1,9.4,0,14.2c0.7,4.6,0.4,9.3-0.1,14c1.1,4.6-0.2,9.3,0.1,13.9c-0.1,2,0,4,0.2,6.1
		c-0.5,3-0.4,5.9-0.4,8.9c0,23-0.1,46-0.1,68.9c5.5-1.1,10.7-3.1,16.2-4.2c2.1-0.5,4.2-1.1,6.3-1.6c2.1-0.5,4.2-1,6.3-1.6
		c-0.2-22.9,0.3-45.7,0.1-68.6c0-31-0.1-62,0.1-93c0.1-4.3-0.3-8.7,0.4-12.9c0.3-7.7-0.1-15.3,0.2-23c8.8,4.2,15.8,11.2,22.1,18.5
		c3.8,5,7.2,11,7,17.5c0,25.3,0.1,50.7-0.2,76c-0.2,3.3,0.5,6.7-0.6,9.9c1,2.9-0.2,6,0,9c0.1,19.9-0.1,39.8-0.1,59.8
		c7.7-0.7,15.1-3.3,22.7-4.3c2.2-0.7,5.2-0.4,6.9-2.2c0.2-33.1,0.3-66.3,0.6-99.4c0.3-2.3,0.7-4.7-0.1-6.9c0.3-1.3,0.5-2.7,0.5-4.1
		c0-20.2-0.1-40.5,0.3-60.7c9.9,3.3,19.6,8.8,25.6,17.6c3.3,4.7,4.3,10.6,4.2,16.2c-0.1,9.7,0.1,19.4-0.2,29.1
		c-0.8,15.5-0.3,31.1-0.5,46.6c-0.2,15.1-0.3,30.2-0.4,45.3c-0.1,8.3-4.5,16.1-10.7,21.5c-5.1,4.8-10.9,9.2-17.7,11.3
		c-1.3,0.4-2.5,0.9-3.7,1.4c-2.4,0.6-4.8,1.2-7.3,1.7c-1.6,0.4-3.3,0.8-4.9,1.2c-1.3,0.3-2.6,0.6-3.9,1c-3.8,0.9-7.5,1.9-11.3,2.7
		c-1.6,0.5-3.1,0.9-4.7,1.4c-5,1.3-10.1,2.4-15,4c-3.4,0.9-6.8,1.9-10.3,2.7c-5.8,2-11.9,3.3-17.7,5.3c-6.6,2.9-13.9,4.8-21,2.8
		c-7.8-3.1-14.4-9.7-16.9-17.8c-0.8-2.6-0.7-5.4-1.5-8c-0.4-63,0-126-0.3-189c0-1.4-1.3-2.4-2-3.5
		C195.5,458.1,184,443.5,171.4,429.7 M328.6,583.6c-0.5,23.1,0.2,46.1-0.4,69.2c-5.6,1.5-11.3,2.7-17.1,3.6
		c-5.4,0.9-10.5,3.3-16,2.7c-0.7-6-0.3-12.1-0.4-18.2c-0.1-17.8,0.3-35.7-0.2-53.5c-8,1.2-15.9,2.2-23.9,3.2
		c-0.5,6.4,0.1,12.8-0.4,19.2c-1.2,18.6-0.4,37.3-1,56c-7.5,1.5-14.8,3.5-22.1,5.3c-3.3,0.9-6.6,2.3-10.2,2c-0.4-25.7,0-51.4-0.2-77
		c-8.1,1.4-16.3,2.7-24.3,4.6c0,21.4,0,42.8,0,64.2c0,11.4,8.7,22.2,19.8,24.5c7,1.1,13.4-2.7,19.8-4.7
		c19.6-5.6,39.3-11.1,59.1-15.7c7.6-2.2,15.7-3.3,22.6-7.5c9.7-5.7,18.8-14.9,20-26.6c0.1-13.7,0-27.4,0-41
		c0.1-4.3,1.3-8.5,1.1-12.8C346,581.6,337.3,582.7,328.6,583.6z"/>
	<path class="st2" d="M538.3,459c1.1-0.6,2.1-1.3,3.2-1.9c-0.6,1.9-1.1,3.8-1.7,5.7C539.3,461.5,538.8,460.3,538.3,459z"/>
	<path class="st2" d="M527.9,464.7c1.4-0.7,2.7-1.5,4.1-2.2c1.9,2.5,3.8,5.1,5.6,7.6c-1.2,3.8-2,7.8-3.6,11.4
		c-1.4,1.9-2.9,3.8-4.4,5.6c-0.7-0.1-2-0.2-2.6-0.2c-5.9-1.1-11.9-0.2-17.8-1.3c-1.4-0.1-2.8-0.2-4.2-0.3c8.3-5.2,16.5-10.4,24-16.7
		C528.6,467.4,528.2,466.1,527.9,464.7z"/>
	<path class="st2" d="M807.2,486c7.9-1.2,15.9-3.6,23.8-1.8c8.7,1.4,17.1,6.5,21.3,14.5c0.6,2.4,1.4,4.7,1.3,7.2
		c0.1,12.4,0,24.7,0.2,37.1c0.6,11,0.3,21.9,0.4,32.9c0.2,22,0.5,44,0.4,66c0.1,5.6-3.2,10.8-7.3,14.4c-7.2,6.1-17.2,8.1-26.4,7
		c-4.7-0.7-9.3-1.4-14-2.2c-12-1.7-23.9-3.8-36-5c-1.6-0.3-3.2-0.6-4.8-0.9c0.1-5.1,0-10.1-0.5-15.2c0-49.2-1.4-98.4-1.3-147.5
		C778.7,490.7,793,488.4,807.2,486 M794.6,503.3c-0.1,45.5,1.3,91.1,1.1,136.6c0,1.5,0.3,2.9,0.6,4.4c4.2,0.3,8.5,0.8,12.6,1.6
		c2.7,0.3,5.4,0.3,8,1.1c2.7,0.4,5.5,0.5,8.2,0.5c0.1-3.9-0.1-7.7-0.5-11.6c0-36-0.9-72-0.5-108c-0.9-9.6-0.3-19.2-0.6-28.8
		C813.9,500.2,804.3,501.8,794.6,503.3 M767,581.2c0.6,2.5,1.1,5.1,1,7.7c-0.1,19.3,0,38.7-0.1,58c-0.1,2.2,0.5,4.4,1.2,6.5
		c14.7,1.8,29.3,4,43.9,6.3c5,0.5,9.9,2.4,14.9,1.7c4.9-0.7,9.9-1.8,14.3-4.3c6.3-3.6,10.4-10.9,10.1-18.2
		c-0.1-15.4,0-30.7-0.1-46.1c0.3-1.5-1.2-2.2-2.4-2.3c-7.6-1.1-15.2-2-22.8-3c-0.2,20.8,0.2,41.6-0.2,62.4c-2.2,0.3-4.5,0.5-6.7,0.1
		c-7.3-1.4-14.7-2.4-22.2-2.9c-1.6-0.1-3.1-1-4.5-1.7c-0.4-20.6,0.4-41.3-0.5-61.9C784.3,582.8,775.7,581.5,767,581.2z"/>
	<path class="st2" d="M377.8,488.2c10.1,1.7,20.4,2.6,30.5,4.2c0.2,16.2-1,32.3-0.7,48.4c0.1,17.3-0.1,34.7-0.4,52
		c-0.8,9.7-0.3,19.4-0.5,29.1c-0.3,11.1-0.1,22.1-0.3,33.2c-4.9,0.3-9.7,0.8-14.4,1.9c-2,0.3-4,0.6-5.9,1c-3.2,0.3-6.4,0.5-9.7,0.8
		c0.3-22,0.3-44,0.3-66c-0.2-6,0.7-12,0.6-17.9C377.5,546,377.8,517.1,377.8,488.2 M379.4,579c-0.1,5.3,0.2,10.6-0.1,15.9
		c-1.1,10.6-0.3,21.3-0.5,32c0.2,9.9-0.5,19.8-0.3,29.8c8.5-1,16.9-3,25.5-3.3c0.2-7.1-0.2-14.3,0.5-21.4
		c0.8-18.3,0.4-36.5,0.5-54.8C396.5,577.5,387.9,578.2,379.4,579z"/>
	<path class="st2" d="M426.8,495.1c20.7,2,41.5,3.6,62.1,5.9c9.3-0.2,18.6,1.2,27.9,1.2c0,12.9,0.2,25.8-0.2,38.7
		c-13,13.2-24.4,27.9-36.8,41.7c-7.9,8.9-15.3,18.3-23.1,27.3c-0.2,8.8-0.2,17.7-0.4,26.5c3.9-0.1,7.9,0,11.8-0.2
		c5.8-1.1,11.7-0.4,17.5-0.8c0.4-5,0.2-9.9,0.2-14.9c10.3-0.3,20.5-1.2,30.8-1c-0.1,9-0.1,18-0.2,27c-3.7,0.2-7.5,0.2-11.2,0.7
		c-4.7,0.6-9.5-0.1-14.1,1c-6.4,0.6-12.9-0.1-19.3,0.8c-4.9,0.7-9.8,0.2-14.7,1.1c-4,0.7-8.1,0.5-12.1,0.9c-3.3,0.7-6.7,0.4-9.9,1.3
		c-3.2,0.3-6.4,0.4-9.6,0.5c0.3-13.9,0.2-27.8,0.4-41.6c3.6-5.9,8.5-10.9,12.7-16.3c15-19.4,31.6-37.4,47.8-55.8
		c0.1-8.4,0.3-16.8,0.2-25.2c-3.2-0.3-6.4-0.3-9.7-0.5c-3.9-0.9-8-0.6-12-1c-2.5-0.5-5-0.6-7.5-0.7c-0.1,5-0.1,10-0.2,15
		c-2.4,0-4.9-0.1-7.3-0.2c-7.7-0.9-15.6-0.2-23.2-2C426.8,514.4,426.8,504.7,426.8,495.1 M458.4,574.3c-7.9,8.2-14.3,17.6-21.7,26.3
		c-2.7,3.4-5.7,6.6-7.8,10.5c-0.8,5.5,0.3,11.2-0.5,16.7c-1.3,7.5-0.5,15.1-0.7,22.7c13.1-1.7,26.3-2,39.3-3.7c8-0.5,16,0.1,23.9-1
		c7.7-0.1,15.3-1.7,23-1.2c0.1-7.9,0.2-15.7-0.1-23.6c-8.1,2.3-16.5,0.8-24.8,1.2c-1.9,4.7-1,9.8-1.8,14.7
		c-10.9,2.2-22.1,1.3-33.1,1.1c-0.3-7.7,0-15.4-0.2-23.1c0.1-2.5-0.4-5.5,1.5-7.5c9.7-11.4,19.2-23,29.3-34
		C476,573.4,467.2,573.9,458.4,574.3z"/>
	<path class="st2" d="M651.5,502.5c19.5-0.7,39-2.3,58.4-3.9c8.8-0.2,17.8,2.1,24.8,7.5c4.3,3.2,8.3,8,7.9,13.7
		c-0.2,12.4,0.7,24.9,0.4,37.3c-4.3,5.9-10.7,10.4-14.8,16.4c4.5,5.4,10.4,9.7,15.3,14.9c0.4,20.5,0.1,41,0.4,61.5
		c-0.1,4.1,1.5,8.7-0.5,12.5c-10-3.2-19.6-8.3-26.4-16.5c-2.3-2.8-3.8-6.4-3.6-10c0-13.7-0.1-27.3-0.2-41c-0.1-4.8,0.2-9.7-0.6-14.4
		c-9.6,0-19.3-0.1-28.8,0.3c-0.3,0.2-0.9,0.6-1.2,0.8c0,22,0,44,0.2,66c-5.2-0.4-10.5,0-15.7-0.8c-5-0.2-9.9-0.3-14.9-0.5
		C652.4,598.3,651.4,550.5,651.5,502.5 M682.3,513.6c-0.9,8-0.3,16.2-0.1,24.2c0.1,9.9,0.2,19.8,0.3,29.7c4.5,0.8,9-0.2,13.6-0.2
		c5.6,0,11.2-0.2,16.8-0.1c0.1-18.6-0.4-37.2-0.5-55.8C702.3,512.5,692.3,513.2,682.3,513.6 M654,574c-0.1,8.3-0.3,16.6,0.5,24.8
		c0.2,15-0.2,30,0.2,45c2,1.3,4.9,0.4,7.2,0.6c6-0.5,11.9,0.8,17.9,1.1c0.2-21,0-41.9,0.1-62.9c-0.4-2.4,1.5-4.8,4-4.6
		c7.7-0.1,15.4,0.1,23,0c2.4,0,4.8-0.2,7.1,0.5c1.4,4.2,1.3,8.8,1.5,13.2c0,14,0.1,28,0,42c-0.3,4.6,2,8.9,4.8,12.3
		c6,6.2,13.7,10.5,21.7,13.4c0-6.9-0.3-13.8-0.9-20.7c0-15.7,0-31.4,0-47.1c0.4-3.4-3.2-5-5.1-7.2c-3.2-2.6-5.5-7.3-10.3-7
		C702,576.4,678.1,574.5,654,574z"/>
	<path class="st2" d="M565.1,505c6.5-1.5,13.3-0.7,19.9-0.7c5.6,0.2,11.3-0.7,16.9,0.5c7.5,1.2,14.8,3.8,21,8.3
		c3.4,2.7,6.8,6.3,6.8,10.9c0.3,7-0.2,13.9,0.5,20.9c0,33.5,0,67,0.2,100.5c-10.2,0.1-20.5,0-30.7-0.1c-0.1-14.7,0-29.4-0.1-44.1
		c-10.1,0-20.2,0-30.3-0.2c-0.1,14.7,0,29.5-0.1,44.2c-10.3,0-20.5,0.1-30.8,0.1c0.2-26.5,0.2-53,0.2-79.5c0.5-13.7,0-27.5,0.3-41.2
		c0-5.5,4.1-9.6,8.2-12.5C552.5,508.5,558.7,506,565.1,505 M569.3,588.3c10.1,0.1,20.2,0.3,30.3,0c-0.2-24,0-47.9-0.2-71.8
		c-10,0.2-19.9,0.1-29.9-0.1C569.3,540.4,569.4,564.4,569.3,588.3 M540.9,572.2c-0.4,23.7-0.1,47.5-0.2,71.2
		c8.8,0.1,17.5-0.4,26.3-0.3c0.1-14.8-0.1-29.6,0.1-44.3c5.3-0.5,10.7-0.5,16,0.2c6.2,0.8,12.4-1.3,18.6,0c0.1,13.3,0.1,26.6,0,39.9
		c0.2,1.4-0.4,3.3,0.6,4.5c8.5,0.3,17.1,0,25.6,0.2c0.2-23.4,0.1-46.9,0-70.3c-8.7-0.8-17.5-0.7-26.2-0.7c-0.2,5.6,0.3,11.3-0.3,17
		c-1.3,1.7-3.6,1.4-5.5,1.5c-5.7,0-11.3-0.1-17,0c-4-0.1-8.4,0.6-12-1.7c0.1-5.7,0.1-11.4,0-17C558.3,572.2,549.6,572.2,540.9,572.2
		z"/>
	<path class="st2" d="M962.5,701.3c5.2-6.6,11.5-12.4,16.6-19.2c7,10.1,14.1,20.1,21.1,30.2c-6.8,0.2-13.6,0.1-20.3,0.4
		c-15.8,1.3-31.8,0-47.7,1.4c-13.1,0.3-26.1,0.4-39.2,0.6c-13.6,1.1-27.3,0.6-41,1c-12.3,0.7-24.6,1-36.9,0.6c-14-1.6-28,2.6-42,0.2
		c61.3-4.2,122.5-9.5,183.8-13.9C958.8,702.4,960.6,701.8,962.5,701.3z"/>
	<path class="st2" d="M191,682.8c2.7,1.2,4.2,3.9,6.2,6c3.8,4.2,7.5,8.3,11.2,12.6c2.5,0.1,5,0.2,7.5,0.7c4.3,0.4,8.7,0.2,13,1
		c4.3,0.4,8.7,0.1,13,1c4.3,0.4,8.7,0.2,13,1c4.3,0.4,8.7,0.1,13,1c4.3,0.5,8.7,0.1,13,1c21.1,1.3,42.1,3.3,63.2,4.7
		c4.3,0.8,8.7,0.5,13,1c4.3,0.8,8.7,0.5,13,1c4.6,1,9.3,0.3,13.9,1.3c12.6,0.9,25.2,1.6,37.8,2.5c-16.9,0-33.7,0-50.6-0.3
		c-16.4-1.2-32.8-0.6-49.3-1.2c-14.9-1.3-29.9,0-44.8-1.3c-12.1-0.4-24.2-0.3-36.3-0.6c-16.2-1.4-32.6-0.1-48.8-1.5
		c-7.3-0.1-14.6-0.1-21.9-0.4c3.3-3.6,5.8-7.9,8.7-11.8C182.8,694.6,187.1,688.8,191,682.8z"/>
	<path class="st2" d="M429.8,723.7c9,0.2,18.1-0.1,27.1,0.4c11.3,9.6,22,19.9,33.3,29.5c29.3,25.3,59.6,49.5,91.2,71.9
		c1.3,0.8,2.8,2.8,4.3,1.1c40.9-29,79.7-60.7,116.8-94.3c3.2-2.8,6-6.1,9.5-8.3c9.4-0.4,18.8-0.2,28.1-0.4
		c-48.6,46.5-100.3,90-155.2,128.9c-26.9-18.7-52.7-38.9-77.9-59.8C480.5,770.7,454.6,747.8,429.8,723.7z"/>
</g>
<g id="_x23_b0d030ff">
	<path class="st3" d="M377.1,45.8c36.9-0.7,74,1.4,110.4,8.3c32.8,6.4,64.9,15.9,96.3,27.5c0.4-0.7,0.9-1.4,1.3-2.2
		c34,16.6,64.4,39.7,92,65.4c26.8,25,51.2,52.4,73.7,81.3c13.5,17.5,26.6,35.3,38.4,53.9c-7.5-6.6-15.9-12-24.7-16.6
		c-1.2-0.7-2.6-1.3-3.5-2.5c-8-11.8-15-24.4-23.4-35.9c3.4,9.7,7.8,18.9,11.5,28.5c-35.2-17.7-73.6-28.5-112.6-33.3
		c-48.3-6.1-97.5-3.3-145.4,4.7c-12.3,0.6-24.7,1-37,1.5c11.7-6.9,23.7-13.4,35.3-20.5c5.1-2.5,10.2-5.1,15.5-7.1
		c26.2-6.4,52.5-12.2,78.6-18.7c-11.8-3.3-23.6-6-35.5-9c-5.8-16.9-13.8-33.3-24.8-47.6c-15.9-20.5-38.8-33.9-61.3-46l-1.4-0.9
		c10.9-1.2,22-1.5,32.9-2.3c-1.9-0.4-3.8-0.7-5.6-0.9c-20.3-1.8-40.6-3.7-60.9-5.6c-4.2-0.4-7.8-2.8-11.7-4.4
		C402.6,57.5,389.6,52.2,377.1,45.8z"/>
	<path class="st3" d="M871.6,242.3c10.9,7,21.6,14.5,31.8,22.6c0.1,8.5-1.2,16.9-1.3,25.4c-6.2-9.4-11.7-19.2-17.9-28.6
		C880.1,255.2,875.6,248.9,871.6,242.3z"/>
	<path class="st3" d="M269.4,318.6c7.7-3,15.4-5.8,23.3-8.3c1.7,6.1,1.7,12.4,2.4,18.6c3.5,32.1,8.8,64,16.8,95.2
		c2.5,10.2,5.8,20.1,8.5,30.3c-8.7-2.7-17.2-6.1-25.6-9.5C281.7,403.9,274.3,361.3,269.4,318.6z"/>
	<path class="st3" d="M497.3,325.4c4.4-2.2,8.8-4.5,13.3-6.7c0.9,6.2,2.3,13-0.7,18.8c-4.8,6.4-13.7,7.3-21.1,7.3
		c4.3-2.9,9.4-5.8,11.3-11C501.2,330.7,499.2,327.7,497.3,325.4z"/>
	<path class="st3" d="M865.8,384.5c7.1,3.4,14.2,6.8,21.3,10.4c-4.8,23.3-11.2,46.4-19.2,68.8c-1.7,4.3-3,8.8-5.1,12.9
		c-1.6-0.4-2.7-1.6-4-2.5c-4.4-3.4-9.7-5.3-15-6.9c3-10,6.7-19.9,9.5-30C858.5,419.9,862,402.2,865.8,384.5z"/>
	<path class="st3" d="M703.6,659.7c4.7,4.3,9.8,8,15.3,11.1c-38.2,37.4-78.9,72.3-122.1,103.9c0.2-3.2-0.4-6.5,0.4-9.6
		c3.8-4.6,8.4-8.5,12.4-12.9c-1.3-3.2-2.4-6.5-3.3-9.8c11.3-9.4,23.3-18.1,34.6-27.7c18-14.9,35.7-30.3,52.6-46.5
		c2.5-2.9,6.5-2.4,9.9-2.8l0-0.2C703.5,663.4,703.5,661.6,703.6,659.7z"/>
	<path class="st3" d="M447.6,666.8c5-0.4,10-0.8,15-0.4c5,1.3,10.1,2.5,15.1,4.1c26.2,24.9,54,48.1,82.7,70.1c1.8,1.2,2,3.5,2.3,5.5
		c-0.5,2.3-1.1,4.6-1.6,7c3.5,3.8,6.9,7.6,10.5,11.4c3,3,1.4,7.7,2,11.5c-33.6-24.5-65.6-51.1-96.3-79.1
		c-10.1-9.6-20.6-18.8-30.1-29C447.2,667.6,447.5,667.1,447.6,666.8z"/>
	<path class="st3" d="M266.5,695.9c49.9-5.6,99.9-11,149.8-16.7c0.9,1,1.1,2.4,1.5,3.7c2.2,8.5,4.6,16.9,7,25.4
		c-42.3-2.7-84.6-6.3-126.9-9.3C287.5,697.8,276.8,698.3,266.5,695.9z"/>
	<path class="st3" d="M749.9,679.2c50.3,5.7,100.5,11.2,150.8,16.8c-10.4,2.2-21.1,1.8-31.7,3.1c-42.4,3-84.8,6.5-127.2,9.3
		C744.7,698.6,747.4,688.9,749.9,679.2z"/>
	<path class="st3" d="M565.3,744.6c2.1,1.3,4.2,2.6,6.2,4c3.3,3,8.8,5.4,8.4,10.7c-2.3-0.3-5.2,0.7-6.9-1.3c-2.4-2.3-4.9-4.6-7-7.2
		C565,748.8,565.5,746.6,565.3,744.6z"/>
	<path class="st3" d="M596.6,749.4c2.4-1.9,4.9-3.6,7.5-5.2c0.1,1,0.2,3.1,0.3,4.1c-3.7,3.8-7.7,7.4-11.5,11.1
		c-1.8-0.9-3.5-1.7-5.3-2.6C590,753.6,593.6,751.8,596.6,749.4z"/>
</g>
<g id="_x23_d9b5a1ff">
	<path class="st4" d="M496.3,262.1c31.3-0.3,62.6,0.1,93.8,1.2c18.9,0.8,37.9,1.8,56.6,4.3c7.1,16.2,14.3,32.5,20.3,49.2
		c3.5,10.1,7.2,20.2,8.5,30.8c0.5,2.2-0.9,4-2.5,5.4c-14.9,12.9-30.8,24.5-46.2,36.7c5.3,4.3,11,8.1,16.4,12.3
		c-3.4,9.8-6.7,19.5-9.3,29.6c-14.7-11-29.6-21.7-44.9-31.8c-9.4-6.1-19-11.9-29.2-16.8c6.4,7.8,12.9,15.4,19.3,23.2
		c-18.2-9.1-36.4-18.4-54.6-27.7c24.2-18.3,48.5-36.6,72.7-55c-17.3-2.2-34.7-4.3-52-6.5c5.7-7.3,11.5-14.6,17.1-21.9
		c-14,0.4-28,1.6-41.7,4.3l-0.3-0.1c-2.9-1.4-6.1-2-9.4-2.2c-13.6-1.3-27.3,0.3-40.5,3.5c4.8-12.7,9.5-25.5,14.4-38.2
		C488.8,262.3,492.5,262.2,496.3,262.1z"/>
	<path class="st4" d="M456.2,393.3c2.1-14.7,7.1-29.8,17.5-40.8c8.6,0,17.8,1.3,24.6,6.9c-4.3,4.2-8.3,8.6-11.3,13.8
		c4.7,3.8,9,8.3,11.6,13.8C484.3,387.1,469.7,388,456.2,393.3z"/>
	<path class="st4" d="M472,448.2c9.7-2.9,19.9-3.4,29.9-3.9c1.5,0.1,3-0.3,4.4,0.2c2.9,2.3,5.3,5.1,8,7.6
		c-16.3,1-31.8,6.5-47.2,11.4C468.8,458.3,470.4,453.2,472,448.2z"/>
</g>
<path class="st5" d="M646.7,267.5c2.8,0.4,5.5,0.9,8.3,1.3c14.9,29.2,27.9,59.5,37.3,91c-17.3,9.3-35,18.7-50,31.7
	c6.1,1.3,12.2,2.1,18.3,2.9c-6.5,14.8-11.6,30.2-14.8,46.1c-3.9-3-7.9-6.1-11.8-9.1c2.6-10,5.9-19.8,9.3-29.6
	c-5.4-4.2-11.1-8-16.4-12.3c15.4-12.3,31.3-23.9,46.2-36.7c1.6-1.3,3-3.1,2.5-5.4c-1.3-10.6-5-20.8-8.5-30.8
	C661,300,653.8,283.8,646.7,267.5z"/>
<path class="st6" d="M526.8,661.4c14.7-0.6,29.5,0.6,44.1-1.2C556.3,662.2,541.5,661.7,526.8,661.4z"/>
<g id="_x23_98af3aff">
	<path class="st7" d="M292.6,310.1c29.7-9.4,60.2-16.5,91.4-18.3c20.2-1.3,40.6-0.2,60.5,3.8c-3.4,13.9-7.2,27.9-8,42.3
		c6.6-1,13.1-1.9,19.7-3c-8.6,7.9-13.1,19.5-14.1,31c-1.4,15.5,2.8,30.8,8.5,45.1c3.9,10.8,7.9,21.7,11.6,32.6
		c-25.1,15.4-54.5,25.3-84.2,23.8c-19.7-1.4-38.8-6.9-57.6-12.9l0-0.1c-2.7-10.1-6-20.1-8.5-30.3c-8.1-31.2-13.3-63.1-16.8-95.2
		c-0.7-6.2-0.7-12.5-2.4-18.6L292.6,310.1z"/>
	<path class="st7" d="M791.4,352c25.3,9.8,49.9,21.1,74.4,32.5c-3.7,17.7-7.3,35.4-12.5,52.8c-2.7,10.1-6.4,20-9.5,30
		c-8-1.7-16.2-2.2-24.2-0.8C812.2,427.8,803.4,389.5,791.4,352z"/>
	<path class="st7" d="M613,667.8c6.8-1.5,13.3-4,20-5.5c9.3-0.3,18.6,0.1,27.9,0.3c14.1,1.3,28.3,1.6,42.4,2.8l0,0.2
		c-3.4,0.4-7.4-0.1-9.9,2.8c-16.9,16.2-34.5,31.6-52.6,46.5c-11.3,9.6-23.2,18.3-34.6,27.7l-0.1,0.1c-0.7-2.6-1.5-5.1-2.4-7.7
		c-0.1,3.1,0,6.2,0.3,9.3c-2.6,1.6-5.1,3.3-7.5,5.2c-3.8-19.2-8.7-38.3-12.6-57.5c-1.5,4.2-2.1,8.7-3.1,13
		c-3.1,14.6-6.3,29.1-9.4,43.7c-2-1.4-4.1-2.7-6.2-4c-0.2-2.6-0.6-5.1-1.2-7.6c-0.4,3-0.9,6.1-1.5,9.1c-0.3-2-0.5-4.2-2.3-5.5
		c-28.7-22-56.5-45.2-82.7-70.1C522.2,680.4,569,679.2,613,667.8z"/>
</g>
<g id="_x23_d9d9d9ff">
	<path class="st6" d="M727.6,303.8c9.1,0.7,18.8,2.4,26.1,8.5c0.4,7.8-1.4,15.5-2,23.2c-3.4,24.9-7.9,49.6-13,74.3
		c9.3-9.6,17.4-20.2,26.3-30c7,13.6,13.9,27.3,20.7,41c-10.2,7.8-22.6,13.6-35.7,13.6c-11.2-0.1-22.1-3.1-32.6-6.9
		c-1.3-0.7-4.1-1.2-2.9-3.2c3.8-11.1,8-22,12-33c0.8-2.2,1-4.6,1.4-6.9c0.8-3,2-6,3.5-8.7c1.2-2,2.1-4.1,3-6.2
		c-5.3,0.9-10.4,2.2-15.6,3.2c3.6-8.7,7.2-17.6,8.8-26.9C730.2,331.9,729.1,317.7,727.6,303.8z"/>
	<path class="st6" d="M794.5,435.5c3.6,11.2,6,22.8,7.2,34.5c-3.5,0.3-7,0.9-10.5,1.5C792.7,459.6,793.2,447.5,794.5,435.5z"/>
	<path class="st6" d="M777.2,437.7c0.4-0.1,1.3-0.4,1.7-0.5c0.3,0.4,0.8,1.3,1,1.7c-5.4,9.3-13.2,16.9-21.9,23
		c-14.3,9.9-31.4,15.3-48.6,17.4c-21.3,2.5-42.8,0.4-63.7-4c-7.2-1.4-14.3-4.3-21.7-3.5c-25.2,1.6-50.6,6.8-73.2,18.2
		c-0.1,0.4-0.3,1.2-0.4,1.6l-0.1,0.3c-4.4,1.3-8.3,3.7-12.7,4.9c0-3.2,0-6.3,0-9.5c-2.7,0-5.4-0.1-8.1-0.2c1.5-1.9,3-3.7,4.4-5.6
		c-0.3,1.1-0.8,3.3-1,4.4c3.4-2.4,7-4.4,10.6-6.3c1.1,2,2.2,4.1,3.4,6.1c-0.5-2.3-1.1-4.6-1.7-6.9c25.1-11.5,52.5-16.5,79.7-20.1
		c3-0.2,6.2-1.4,9,0c16.9,7.4,34.8,12.7,53.1,14.8c12.6,1.3,25.6,0.8,37.8-3c20-6.2,37.9-18.1,53.3-32.2L777.2,437.7z"/>
	<path class="st6" d="M483.3,484.4c15.3-5.4,30.2-12.1,44.6-19.6c0.4,1.3,0.7,2.7,1.1,4c-7.5,6.3-15.8,11.5-24,16.7
		C497.7,485.6,490.5,484.2,483.3,484.4z"/>
</g>
<path class="st6" d="M485.7,420.5c3.8-1,7.6-1.9,11.4-2.7c1.9,1.3,3.8,2.7,5.6,4.1C497,421.7,491.3,421.2,485.7,420.5z"/>
<path class="st6" d="M521.4,434.4c6.5,9,11.3,19.1,15.4,29.3c-6.8-9.5-15.2-17.7-24.2-25c2.2,0.3,4.4,0.4,6.6,0.6
	C519.9,437.8,520.6,436.1,521.4,434.4z"/>
<path class="st8" d="M540.9,572.2c8.7,0,17.4,0,26.1,0c0.1,5.7,0.1,11.4,0,17c3.6,2.3,8,1.6,12,1.7c5.7,0,11.3,0,17,0
	c1.9-0.1,4.2,0.2,5.5-1.5c0.6-5.6,0-11.3,0.3-17c8.8,0,17.5-0.1,26.2,0.7c0,23.4,0.1,46.9,0,70.3c-8.6-0.2-17.1,0.2-25.6-0.2
	c-1-1.2-0.4-3.1-0.6-4.5c0.1-13.3,0.1-26.6,0-39.9c-6.2-1.3-12.4,0.9-18.6,0c-5.3-0.6-10.6-0.7-16-0.2c-0.2,14.8,0,29.6-0.1,44.3
	c-8.8-0.2-17.5,0.4-26.3,0.3C540.8,619.7,540.5,595.9,540.9,572.2z"/>
<path class="st8" d="M458.4,574.3c8.8-0.4,17.6-1,26.4-1c-10.1,11.1-19.5,22.7-29.3,34c-1.9,2-1.4,5-1.5,7.5
	c0.1,7.7-0.1,15.4,0.2,23.1c11,0.2,22.2,1,33.1-1.1c0.8-4.9-0.1-10,1.8-14.7c8.3-0.4,16.7,1.1,24.8-1.2c0.3,7.9,0.2,15.7,0.1,23.6
	c-7.7-0.6-15.3,1.1-23,1.2c-7.9,1.2-16,0.5-23.9,1c-13.1,1.7-26.3,2-39.3,3.7c0.2-7.6-0.6-15.2,0.7-22.7c0.8-5.5-0.3-11.2,0.5-16.7
	c2.1-3.8,5.1-7,7.8-10.5C444,591.9,450.5,582.5,458.4,574.3z"/>
<path class="st8" d="M654,574c24,0.4,48,2.3,71.9,3.6c4.7-0.2,7,4.5,10.3,7c1.9,2.1,5.5,3.8,5.1,7.2c0,15.7,0,31.4,0,47.1
	c0.5,6.9,0.9,13.8,0.9,20.7c-8.1-2.8-15.8-7.1-21.7-13.4c-2.9-3.4-5.1-7.8-4.8-12.3c0.1-14,0-28,0-42c-0.3-4.4-0.2-9-1.5-13.2
	c-2.3-0.7-4.8-0.5-7.1-0.5c-7.7,0.1-15.4-0.1-23,0c-2.5-0.3-4.4,2.2-4,4.6c-0.1,21,0.1,41.9-0.1,62.9c-6-0.4-11.9-1.6-17.9-1.1
	c-2.3-0.3-5.2,0.7-7.2-0.6c-0.5-15,0-30-0.2-45C653.7,590.6,654,582.3,654,574z"/>
<path class="st8" d="M379.4,579c8.5-0.8,17.1-1.5,25.7-1.8c-0.2,18.3,0.3,36.5-0.5,54.8c-0.7,7.1-0.3,14.3-0.5,21.4
	c-8.6,0.3-17,2.3-25.5,3.3c-0.3-9.9,0.5-19.9,0.3-29.8c0.2-10.7-0.5-21.4,0.5-32C379.5,589.6,379.2,584.3,379.4,579z"/>
<path class="st8" d="M328.6,583.6c8.7-0.9,17.4-2,26.2-2.4c0.2,4.3-1,8.5-1.1,12.8c0,13.7,0.1,27.4,0,41
	c-1.2,11.7-10.2,20.9-20,26.6c-6.9,4.2-14.9,5.3-22.6,7.5c-19.9,4.6-39.5,10.1-59.1,15.7c-6.5,2-12.8,5.8-19.8,4.7
	c-11.2-2.3-19.8-13.1-19.8-24.5c0.1-21.4,0-42.8,0-64.2c8-2,16.2-3.3,24.3-4.6c0.2,25.7-0.2,51.4,0.2,77c3.5,0.3,6.8-1.1,10.2-2
	c7.4-1.8,14.7-3.8,22.1-5.3c0.6-18.6-0.2-37.3,1-56c0.5-6.4-0.1-12.8,0.4-19.2c8-1.1,16-2.1,23.9-3.2c0.5,17.8,0.1,35.7,0.2,53.5
	c0.1,6-0.4,12.1,0.4,18.2c5.5,0.6,10.7-1.8,16-2.7c5.7-1,11.4-2.2,17.1-3.6C328.7,629.7,328,606.6,328.6,583.6z"/>
<path class="st8" d="M767,581.2c8.7,0.4,17.3,1.7,26,2.3c0.8,20.6,0.1,41.3,0.5,61.9c1.5,0.6,2.9,1.5,4.5,1.7
	c7.4,0.5,14.9,1.4,22.2,2.9c2.2,0.5,4.5,0.2,6.7-0.1c0.4-20.8,0-41.6,0.2-62.4c7.6,1,15.2,2,22.8,3c1.2,0.1,2.7,0.8,2.4,2.3
	c0.1,15.4-0.1,30.7,0.1,46.1c0.3,7.3-3.8,14.6-10.1,18.2c-4.3,2.5-9.3,3.6-14.3,4.3c-5.1,0.7-10-1.1-14.9-1.7
	c-14.6-2.2-29.2-4.5-43.9-6.3c-0.7-2.1-1.3-4.3-1.2-6.5c0.1-19.3,0-38.7,0.1-58C768.1,586.3,767.6,583.7,767,581.2z"/>
<path class="st8" d="M935.1,606.1c7.6,1.9,15.3,3.6,22.8,5.8c1.9,0.3,1.2,2.7,1.4,4c-0.1,17,0,34,0,51c0,5.9-2.2,11.8-5.7,16.5
	c-4.9,5.8-13.1,7.1-20.3,5.9c-11.6-2.5-22.5-7.2-34-9.9c-7.3-2.8-14.9-4.1-22.4-6.3c0.1-11-0.1-22,0-33.1c7.7,0.3,15.2,2.6,22.8,3.4
	c1.3,0,2.6,1,2.4,2.4c0.2,6.6-0.1,13.2,0.1,19.8c10.1,3.5,20.7,5.3,30.8,8.9c1.1-1.3,2-2.8,1.8-4.6
	C935.1,648.7,934.9,627.4,935.1,606.1z"/>
<path class="st8" d="M889.2,706.8c24.5-1.7,48.9-4,73.3-5.5c-1.9,0.5-3.7,1.1-5.6,1.3c-61.3,4.4-122.5,9.7-183.8,13.9
	c14,2.3,28-1.8,42-0.2l1.2,0.6c-8.7,0.6-17.5,0.4-26.2,0.6c-9.7-0.2-19.4,0.8-29.1,0.7c-5.1,0.1-10.3-0.2-15.4,0
	c0-0.6,0-1.2,0.1-1.8l0.5,1.4c11-0.1,21.9-2,32.9-2.4C815.7,712.5,852.5,709.7,889.2,706.8z"/>
</svg>
