<?xml version="1.0" encoding="utf-8"?>
<!-- Generator: Adobe Illustrator 19.0.0, SVG Export Plug-In . SVG Version: 6.00 Build 0)  -->
<svg version="1.1" id="Layer_1" xmlns="http://www.w3.org/2000/svg" xmlns:xlink="http://www.w3.org/1999/xlink" x="0px" y="0px"
	 viewBox="-32.1 225.8 265.3 387.9" style="enable-background:new -32.1 225.8 265.3 387.9;" xml:space="preserve">
<style type="text/css">
	.st0{fill:#9B0000;}
	.st1{fill:#FF0000;}
	.st2{fill:#0D0D0D;}
</style>
<path class="st0" d="M24.5,422.2L24.5,422.2c-24-31.9-37.3-69.3-37.5-105.3c0.3-13.5,1.5-27.5,8.3-39.3c4.1-7.4,11-12.5,18.6-13.5
	c1.3-0.2,2.7-0.3,4.1-0.3c16.4,0,32,13,34.9,28.9c2.1,12.1-4.1,22.6-8,27.8c-12.6,17-20.2,37.8-21.5,58.5c-1,12.8,0.5,26.4,5.1,44.3
	l0.8,3.3L24.5,422.2z"/>
<path class="st0" d="M184.5,321c-3,0-6-0.4-8.8-1.1c-6.2-1.7-12-5.8-16.4-11.5c-2.9-3.8-4.9-8.1-6.9-12.3c-1.3-2.9-2.7-5.8-4.3-8.5
	c-12.6-22.5-34.5-40.7-60.1-49.9c-2.7-1.1-5.6-1.9-8.4-2.7c-2.7-0.7-5.4-1.5-8.1-2.6l-3.5-1.4l3.8-0.5c9.2-1.2,18.6-1.9,27.7-1.9
	c32,0,62,7.6,86.7,22c10.6,6.4,22.4,14.6,29.3,26.5c4.8,8.1,5.2,18.3,1,25.8C210.3,313.9,197.7,321,184.5,321z"/>
<path class="st0" d="M107.1,467.7c-5,0-9.5-1-13.4-2.9c-5.7-2.7-10.3-8-12.6-14.7c-4.4-12.6-1.6-27.5,7.1-36.9
	c4.7-5.2,11.5-8.7,19.2-9.7c1.6-0.3,3.3-0.4,5.2-0.4c2.8,0,5.5,0.3,8.2,0.5c2.1,0.2,4.2,0.4,6.3,0.5c1.7,0.1,3.4,0.1,5.1,0.1
	c22.2,0,44.6-7.2,63.2-20.2c8.2-5.6,15.6-12.6,21.9-18.7l1.6,1.1c-13.3,33.2-34.4,61.1-61.1,80.6c-12.6,9-24.3,15-35.8,18.5
	C116.5,466.9,111.6,467.7,107.1,467.7z"/>
<g id="_x23_ffffffff">
</g>
<g id="_x23_ff0000ff">
	<path class="st1" d="M10.7,248.8c32.6-16.7,69.8-24.9,106.4-22.6c30.1,2,59.7,12.5,84.1,30.4c9.7,7.3,18.6,16.6,22.5,28.4
		c3.4,10.1,1.8,21.6-4,30.5c-9.3,14.3-26.6,22.8-43.6,21.9c-8.8-0.4-17.4-3.6-24.1-9.3c-6.6-5.4-11.3-12.7-14.6-20.5
		c-9-20.4-24.1-38.5-44-48.9C68.1,245.2,38.3,244.2,10.7,248.8 M71.9,231.3c5.3,2.1,11.1,3.1,16.4,5.3c25.2,9.1,47.5,26.8,60.6,50.4
		c4.1,6.7,6.3,14.5,11.2,20.8c4,5.2,9.5,9.4,15.9,11.1c14.9,4,32.1-3.1,39.6-16.6c4.3-7.7,3.4-17.4-1-24.8
		c-6.6-11.5-17.8-19.5-28.9-26.2C151.6,231.5,110.5,226.2,71.9,231.3z"/>
	<path class="st1" d="M-2.2,266.8c6.4-7.6,16.2-12.1,26.2-12.2c22-0.2,43.4,16.6,47.3,38.4c2.4,12.8-2.1,26.1-9.9,36.3
		c-13.7,18.4-22.1,41.3-20.8,64.5c1.2,23,10.7,44.9,23.9,63.5c2.7,4,5.9,7.6,8.7,11.5c-12-7.4-22.8-16.5-32.9-26.2
		C16,418.7-3.3,388.8-11.4,355.5c-4.4-17.7-5.7-36.2-3.9-54.3C-13.9,288.9-10.4,276.3-2.2,266.8 M-3.8,278.1
		c-6.7,11.7-7.9,25.6-8.2,38.8c0.2,37.8,14.7,74.6,37.3,104.6c0.5,0.5,1.6,1.5,2.1,2c-3.7-14.5-6.3-29.6-5.1-44.6
		c1.3-21.2,9-41.9,21.7-59c5.8-7.6,9.5-17.4,7.8-27c-3-17-20.6-30.1-37.8-27.8C6.4,266.2-0.1,271.5-3.8,278.1z"/>
	<path class="st1" d="M188.1,368c21.7-15.3,36-38.8,45.2-63.3c-0.8,23.5-6.4,46.6-15.1,68.4c-10.7,26.8-27.6,51.4-50,69.8
		c-12.1,9.9-25.6,18.3-40.2,24c-11.6,4.4-24.7,6.7-36.7,2.7c-9.5-3.1-17.3-10.7-21.2-19.8c-6.2-14.5-5-32,3.3-45.4
		c5-8.3,13.1-14.8,22.3-17.8c7.8-2.6,16.2-2.8,24.3-1.8C143.7,387.4,168.6,382.1,188.1,368 M195.9,384.8c-20,14-44.5,21.5-68.9,20.3
		c-6.5-0.2-13-1.6-19.5-0.6c-7,0.9-13.8,4-18.6,9.3c-8.7,9.5-11.1,23.9-6.9,35.9c2.1,6,6.3,11.4,12.1,14.1
		c8.6,4.3,18.7,3.1,27.6,0.5c12.8-3.9,24.6-10.6,35.5-18.3c27.5-20.1,48.2-48.7,60.7-80.1C211,372.7,204,379.4,195.9,384.8z"/>
</g>
<path class="st0" d="M71.9,231.3c38.7-5.1,79.7,0.2,113.8,20c11.2,6.7,22.3,14.6,28.9,26.2c4.4,7.4,5.3,17.2,1,24.8
	c-7.5,13.5-24.7,20.6-39.6,16.6c-6.4-1.7-11.9-5.9-15.9-11.1c-4.9-6.3-7.1-14-11.2-20.8c-13.1-23.5-35.4-41.3-60.6-50.4
	C82.9,234.4,77.2,233.5,71.9,231.3z"/>
<path class="st0" d="M71.9,231.3c38.7-5.1,79.7,0.2,113.8,20c11.2,6.7,22.3,14.6,28.9,26.2c4.4,7.4,5.3,17.2,1,24.8
	c-7.5,13.5-24.7,20.6-39.6,16.6c-6.4-1.7-11.9-5.9-15.9-11.1c-4.9-6.3-7.1-14-11.2-20.8c-13.1-23.5-35.4-41.3-60.6-50.4
	C82.9,234.4,77.2,233.5,71.9,231.3z"/>
<path class="st0" d="M-3.8,278.1c3.7-6.6,10.2-12,17.8-13.1c17.2-2.3,34.8,10.8,37.8,27.8c1.7,9.6-2.1,19.4-7.8,27
	c-12.6,17.1-20.4,37.8-21.7,59c-1.2,15,1.4,30.1,5.1,44.6c-0.5-0.5-1.6-1.5-2.1-2c-22.6-30-37.1-66.8-37.3-104.6
	C-11.7,303.7-10.6,289.8-3.8,278.1z"/>
<path class="st0" d="M-3.8,278.1c3.7-6.6,10.2-12,17.8-13.1c17.2-2.3,34.8,10.8,37.8,27.8c1.7,9.6-2.1,19.4-7.8,27
	c-12.6,17.1-20.4,37.8-21.7,59c-1.2,15,1.4,30.1,5.1,44.6c-0.5-0.5-1.6-1.5-2.1-2c-22.6-30-37.1-66.8-37.3-104.6
	C-11.7,303.7-10.6,289.8-3.8,278.1z"/>
<path class="st0" d="M195.9,384.8c8-5.4,15.1-12.1,22-18.9c-12.6,31.5-33.3,60.1-60.7,80.1c-10.9,7.7-22.7,14.4-35.5,18.3
	c-8.9,2.5-19,3.7-27.6-0.5c-5.8-2.7-10-8.1-12.1-14.1c-4.2-12-1.8-26.5,6.9-35.9c4.8-5.3,11.6-8.4,18.6-9.3c6.5-1,13,0.4,19.5,0.6
	C151.4,406.3,176,398.8,195.9,384.8z"/>
<path class="st0" d="M195.9,384.8c8-5.4,15.1-12.1,22-18.9c-12.6,31.5-33.3,60.1-60.7,80.1c-10.9,7.7-22.7,14.4-35.5,18.3
	c-8.9,2.5-19,3.7-27.6-0.5c-5.8-2.7-10-8.1-12.1-14.1c-4.2-12-1.8-26.5,6.9-35.9c4.8-5.3,11.6-8.4,18.6-9.3c6.5-1,13,0.4,19.5,0.6
	C151.4,406.3,176,398.8,195.9,384.8z"/>
<g id="_x23_0d0d0dff">
	<path class="st2" d="M-24.6,510.2c7.5-8.3,19-11.5,29.8-11.8c8.3-0.1,16.7,0,25,0c5.9,6.9,11.9,13.7,17.7,20.7
		c-15.3,0.1-30.6,0-45.9,0c-4.7,0.1-9.7,2.5-11.3,7.2c-1.5,4.7-1.5,10.4,1.4,14.6c2.7,3.8,7.6,4.9,12,5c13.1,0,26.3,0,39.4,0
		c-6.4-7.5-12.8-15.1-19.4-22.4c9.1-0.2,18.3,0.1,27.4-0.1c9.5,10.8,18.7,21.8,28.2,32.7c-9.3,11-18.8,21.8-28,32.8
		c-9.2,0.1-18.4,0.1-27.6,0c6.4-7.6,13-15,19.3-22.7c-13.1,0.1-26.2,0-39.3,0c-4.6,0.1-9.8,1.3-12.3,5.5c-2.6,4.7-2.6,10.8-0.2,15.6
		c2.4,4.4,7.8,5.8,12.5,5.8c14.6,0.1,29.2,0,43.8,0.1c-5.3,6.5-11,12.8-16.4,19.3c-1.4,2.2-4.3,1-6.4,1.3
		c-11.3-0.4-22.9,1.2-33.9-2.2c-7.4-2.2-14.3-6.8-18.3-13.4c-4.6-7.1-5.4-16.1-4.4-24.3c1-7,4.6-13.8,10.8-17.5
		c-5.2-3.9-9.2-9.4-10.3-15.9C-33.1,530-31.9,518.3-24.6,510.2z"/>
	<path class="st2" d="M167.8,498.4c10.9,0.2,21.9-0.7,32.7,0.7c8.5,1.3,17,5,22.5,11.7c7,8.2,8.4,19.9,6.2,30.2
		c-1.3,6.1-5.2,11.4-10.2,15c5.6,3.8,9.5,10,10.6,16.8c1.6,10.2,0.1,21.8-7.3,29.5c-7.5,7.9-18.7,11.1-29.3,11.4c-8,0-16,0-23.9,0
		c-1.4,0.3-2.1-1-2.9-1.9c-5.3-6.3-10.7-12.4-16-18.7c13.3,0,26.5,0,39.8,0c5.1,0,11,0.2,14.9-3.6c3.5-3.5,3.8-8.9,3.1-13.6
		c-0.7-5-5.1-8.9-10-9.4c-7.4-0.9-15-0.2-22.4-0.4c0-6.7,0-13.5,0-20.2c6.2,0,12.3,0,18.5,0c3.8-0.1,7.8-0.8,10.7-3.3
		c3.8-3.8,4.2-9.8,3.1-14.8c-1.1-5.1-6-8.5-11.1-8.7c-15.6-0.1-31.2,0-46.8,0C156,512.3,161.9,505.3,167.8,498.4z"/>
	<path class="st2" d="M35.4,498.4c9.4,0,18.8-0.1,28.2,0.1c11.6,14,23.6,27.8,35.4,41.7c11.4-13.4,22.8-26.8,34.1-40.3
		c0.4-0.4,1.2-1.1,1.6-1.5c9.2-0.1,18.4,0,27.6,0c-16.4,19.2-32.9,38.4-49.4,57.6c16.4,19.2,33.1,38.3,49.4,57.7
		c-9.3,0-18.6,0-27.9,0c-11.8-13.9-23.5-27.9-35.4-41.7c-11.8,13.9-23.7,27.7-35.4,41.7c-9.4,0.1-18.7,0-28.1,0
		c16.4-19.3,32.9-38.4,49.4-57.6C68.4,536.8,51.9,517.6,35.4,498.4z"/>
	<path class="st2" d="M146.6,523.3c9.2-0.2,18.4,0,27.6-0.1c-9.3,11.1-19.1,21.8-28.2,33.1c9.4,10.7,18.7,21.6,28,32.4
		c-9.2,0-18.4,0-27.6,0c-9.3-10.9-18.6-21.8-28-32.6C127.8,545.1,137.3,534.3,146.6,523.3z"/>
</g>
</svg>
