<?xml version="1.0" encoding="utf-8"?>
<!-- Generator: Adobe Illustrator 19.0.0, SVG Export Plug-In . SVG Version: 6.00 Build 0)  -->
<svg version="1.1" id="Layer_1" xmlns="http://www.w3.org/2000/svg" xmlns:xlink="http://www.w3.org/1999/xlink" x="0px" y="0px"
	 viewBox="722.1 74.8 626.5 626.6" style="enable-background:new 722.1 74.8 626.5 626.6;" xml:space="preserve">
<style type="text/css">
	.st0{fill:#40BBD7;}
</style>
<path class="st0" d="M989.9,78.1c43.4-6.3,88.1-3.5,130.4,8.4c38,10.8,74.2,28.6,105.5,52.8c8.2,6.3,16.5,12.8,23.5,20.5
	c-5.6,5.9-11.2,11.8-17.4,17.2c-5.3-4-10-8.7-15.2-12.8c-30.8-24.9-66.8-43.5-105.1-54c-48.5-13.3-100.6-13.5-149.3-0.9
	c-53.7,13.9-103,43.8-140.2,84.8c-38.2,41.7-63.5,94.9-71.6,150.8c-8.4,55.1-0.4,112.7,23,163.3c11.2,24.5,25.8,47.3,43.5,67.6
	c2.6,2.8,5.3,5.5,7.1,8.9c-4.6,5.8-10.2,10.8-15.5,15.8c-1.1,1.4-3,1.2-4-0.3c-14.9-16.8-28.6-34.8-39.8-54.2
	c-23.1-39.6-37.4-84.4-41.4-130.1c-4.8-53.5,4.1-108.3,26.4-157.2c23.8-53.5,63.4-99.6,112-132C900.3,101.5,944.4,84.7,989.9,78.1z"
	/>
<path class="st0" d="M1248.8,188.8c5.1-4.9,9.7-10.2,15-14.8c13.7,13.7,25.2,29.4,35.7,45.6c42.3,65.8,58.3,148,44,224.9
	c-11.2,63.2-42.8,122.5-88.6,167.5c-12.2,11.6-25,22.5-38.8,32.3c-32.8,23.1-70,39.9-109.2,48.9c-74.5,17.5-155.6,6.9-222.5-30.5
	c-18.1-9.6-34.9-21.4-50.5-34.5c-4.4-3.7-9-7.2-12.4-11.8c5.8-5.8,11.3-11.8,17.5-17.2c25.7,23.3,55.1,42.7,87.3,55.7
	c32.8,13.6,68.2,20.6,103.7,21.4c57.7,1.1,115.7-15.5,163.8-47.3c60.5-39.9,105.2-103,121.7-173.4c11.2-46.3,10.5-95.4-1.7-141.4
	c-10.6-40-29.8-77.8-56.4-109.6c-3.4-4-7.1-7.8-10.2-12C1246,191.1,1248.1,189.9,1248.8,188.8z"/>
<path class="st0" d="M1295.9,322.1c-17.6-71-65.9-133.8-130.1-169c-41.5-23.2-89.3-34.8-136.8-33.6c-51.2,1.1-102,17.2-144.3,46.1
	c-13.9,9.1-26.4,20.2-38.7,31.6c-15.1,15.8-29.4,32.7-40.4,51.6c-27.4,44.8-41,97.8-38.7,150.3c1.2,33.6,9,66.8,22.5,97.5
	c15.4,35.1,38.5,66.6,67,92.1c29.3,26.2,64.5,45.8,102.1,57.1c4.1,1.3,8.2,2.3,12.4,2.9c0.3-5.2,0.2-10.3,0.2-15.5
	c0-52.3,0-104.7,0-157c-0.2-16.2,0.4-32.4-0.3-48.6c-26.2,0-52.5,0.3-78.7-0.1c-12.1-16.5-23.9-33.3-35.9-50
	c55-0.1,109.9-0.1,164.8,0c0.7,5.2,0.4,10.4,0.4,15.6c0,70.7,0,141.3,0,212c0.1,17.1-0.3,34.3,0.2,51.4c9.1,0.4,18.3,0.2,27.5,0.1
	c0.9-7.8,0.2-15.7,0.4-23.5c0.1-85.2-0.1-170.4,0.1-255.6c55-0.2,110.1-0.1,165.2-0.1c-11.3,15.5-22.3,31.2-33.7,46.7
	c-1.3,1.6-2.7,3.7-5,3.4c-25.3,0.1-50.7,0-76,0c-0.6,5.8-0.2,11.7-0.3,17.5c0,67.8-0.1,135.7,0,203.5c6.7-0.9,13.1-3.2,19.5-5.3
	c51-16.6,96.7-49.2,129.3-91.7c22.2-28.9,38.5-62.3,47.3-97.7C1306.7,410.8,1306.8,365.1,1295.9,322.1z M1248.9,316.9
	c-7.2,9.8-14.3,19.7-21.6,29.4c-1.1,1.8-3.3,2-5.2,2c-124.7,0-249.5,0-374.2,0c-3.8,0.6-5.5-3.4-7.4-5.9
	c-6.9-9.7-14.2-19.1-21.1-28.8c-3.5-5-7.4-9.7-10.4-15c151-0.2,302-0.1,452.9-0.1C1258,304.9,1253.2,310.8,1248.9,316.9z"/>
</svg>
