<?xml version="1.0" encoding="utf-8"?>
<!-- Generator: Adobe Illustrator 19.0.0, SVG Export Plug-In . SVG Version: 6.00 Build 0)  -->
<svg version="1.1" id="Layer_1" xmlns="http://www.w3.org/2000/svg" xmlns:xlink="http://www.w3.org/1999/xlink" x="0px" y="0px"
	 viewBox="-41 54.9 512.2 733" style="enable-background:new -41 54.9 512.2 733;" xml:space="preserve">
<style type="text/css">
	.st0{fill:#F26622;}
	.st1{fill:url(#SVGID_1_);}
</style>
<g id="_x23_f26622ff">
	<path class="st0" d="M216.3,54.9h4.2c6.8,1.1,10.9,9.2,7.7,15.3c-3,7.1-13.9,8.3-18.4,1.9C205,66.2,208.6,56.1,216.3,54.9z"/>
	<path class="st0" d="M349.1,313.2c9.7-2.6,20.3,5.6,19.7,15.7c0.6,9.8-9.5,17.9-19,15.8c-9.3-1.4-15.5-12-12.4-20.8
		C339.1,318.6,343.6,314.3,349.1,313.2z"/>
	<path class="st0" d="M443.6,452.6c12.4-3,25.9,6.5,27.4,19.2c1.9,11.2-5.9,23-17,25.6c-8.7,2.4-18.8-1-24.1-8.4
		c-5.7-7.2-6.1-17.9-1.4-25.7C431.7,457.8,437.4,453.9,443.6,452.6z"/>
	<path class="st0" d="M290.6,472c5.9,4.5,12.9,7.4,20.3,8.4c8.8,1.3,17.8-1,25.6-5.1c-1.5,15.5-7,30.5-16,43.3
		c-6.8,9.3-13.2,19-18.8,29.1c-6.4,12-12.9,24.6-13.9,38.4c-0.5,7.2,4.5,13.2,9.5,17.8c5.2,4.7,12.9,6,19.4,3.6
		c9.2-3.1,16.7-9.6,23.2-16.6c14.1-15.2,20.9-36.4,19.8-56.9c-0.8-16.5-5.8-33.1-15.7-46.3c8.7,6,15.8,13.8,22.6,21.9
		c14.5,17.8,25.3,38.4,33,59.9c11.8,33.6,5.6,71.7-12,102.1c-9.9,17-23.3,32.4-40.3,42.5c-15.2,9.3-32.2,15.1-49.3,20
		c-15.3,4.5-30.9,8.2-45.1,15.6c-15.7,8.1-26.2,23.3-34.6,38.3h-0.3c-7.7-17.3-18.3-33.7-33.4-45.4c-14.1-11.1-31.4-17.3-49-19.8
		c-16.7-2.5-33.4-5.2-49.4-10.8c-21.3-7.3-41-18.5-58.8-32.2C14.3,669.5,1.6,658.6-9,645.9c-19.5-23.3-30.5-53.1-32-83.4v-16.8
		c0.9-11,1.8-22.2,5.5-32.8c0.2,0.7,0.6,2.2,0.9,2.9c-1.3,6.6-0.7,13.3-0.8,20c-0.2,7.3,1.8,14.5,3.4,21.5
		c4.9,16.4,15.5,31,29.2,41.2c8,5.9,16.4,11.1,25.3,15.4c38.3,18.5,80.4,27.6,118.6,46.5c12.9,6.4,25.5,13.8,36.3,23.4
		c-2.8-12.1-2.6-24.7-3.4-37c0.3-20.2,2.5-40.6,9.1-59.8c4-12.4,10.2-23.9,17.4-34.7c13.2-20.3,29.8-38.3,48.9-53.1
		C262.4,489,276.6,480.5,290.6,472z"/>
</g>
<g id="_x23_fbaf15ff">
	<linearGradient id="SVGID_1_" gradientUnits="userSpaceOnUse" x1="11.2168" y1="613.8701" x2="421.7434" y2="203.3434">
		<stop  offset="0" style="stop-color:#F88536"/>
		<stop  offset="0.1" style="stop-color:#F99A39"/>
		<stop  offset="0.175" style="stop-color:#FCB43C"/>
		<stop  offset="0.206" style="stop-color:#FDC53E"/>
		<stop  offset="0.2446" style="stop-color:#FED03F"/>
		<stop  offset="0.299" style="stop-color:#FED740"/>
		<stop  offset="0.45" style="stop-color:#FED940"/>
		<stop  offset="0.55" style="stop-color:#FCB63C"/>
		<stop  offset="0.6" style="stop-color:#FBA73A"/>
		<stop  offset="0.6455" style="stop-color:#FA9237"/>
		<stop  offset="0.7065" style="stop-color:#F97E35"/>
		<stop  offset="0.7759" style="stop-color:#F87033"/>
		<stop  offset="0.8601" style="stop-color:#F76832"/>
		<stop  offset="1" style="stop-color:#F76532"/>
	</linearGradient>
	<path class="st1" d="M294.6,138.3c17.4-4.9,35.2-8.3,53.2-8.9c-14.5,3.4-28.6,8.4-41.9,15.3c-22.3,11.5-42.4,28.9-52.9,52.1
		c-7.1-2.2-15.4-2.7-22.1,1c-11.7,6.8-16.5,23.7-9.1,35.3c4.4,7.2,12.6,11.2,20.7,12.2c1.8,21.2,9,41.6,18.9,60.3
		c11.2,21.1,26.3,40,43.6,56.4c-3.4,6.4-4,14.7,0,21c4.8,7.5,14.8,10.4,23.2,8.4c2.4,7.8,4.3,15.8,5.6,23.8c-9.1-4.7-20-6-29.8-2.8
		c-14,4-25.2,16.9-26,31.6c-0.7,10.7,4.3,21.4,12.5,28.1c-14.1,8.6-28.2,17.1-41.2,27.3c-19.1,14.8-35.7,32.9-48.9,53.1
		c-7.2,10.8-13.4,22.3-17.4,34.7c-6.6,19.2-8.8,39.6-9.1,59.8c0.8,12.4,0.6,24.9,3.4,37c-10.8-9.6-23.4-16.9-36.3-23.4
		c-38.2-18.9-80.3-28-118.6-46.5c-8.9-4.3-17.4-9.5-25.3-15.4c-13.7-10.2-24.3-24.8-29.2-41.2c-1.6-7.1-3.7-14.2-3.4-21.5
		c0.1-6.7-0.5-13.4,0.8-20c-0.2-0.7-0.6-2.2-0.9-2.9c2.8-9.3,7.1-18,12.6-26c15.9-23.3,40.8-38.8,66.8-48.7
		c-3.8,11.9-6.3,24.2-7.6,36.6c-2.4,23.4-0.1,47.9,10.8,69c5.8,11.5,14.7,21.5,25.9,28c18.5,11,41.8,12.7,62.2,6.1
		c12.8-4.1,25-11.8,32.6-23.2c5.6-8.5,10.2-17.6,14.1-27c8.1-20.2,13.2-42.2,10.7-64.1c-1.9-16.5-9.3-32.5-21.6-43.7
		c-7.7-6.6-15.1-13.7-21.6-21.5c-12.4-15-22.5-32.8-24.3-52.5c-1.5-14.5,3.5-29.5,13.8-39.8c1.7,12,4.9,24,10,35
		c4.5,9.4,10.9,18.7,20.6,23.2c8.6,4,18.5,2.7,27.2-0.1c6.8-2.2,13-7.3,14.9-14.4c2.5-10-1.2-20.4-6.4-29
		c-8.2-13.2-15.2-27.2-19.8-42c-6.1-19.5-7.7-41-1.2-60.7c6-18.6,18.8-34.2,34.1-46.1c5.6-4.2,11.3-8.5,17.7-11.4
		C254.8,151.6,274.4,144.1,294.6,138.3 M223.4,246.4c-8.5,0.4-13.5,11.5-7.9,18.1c4.6,6.6,15.8,5.5,19-1.9
		C238.5,255.2,231.7,245.3,223.4,246.4 M257.4,358.6c-6.3,2.8-7,12.6-1.1,16.2c5.4,4.2,14.2,0,14.6-6.7
		C272,361,263.6,355.1,257.4,358.6z"/>
</g>
</svg>
