<?xml version="1.0" encoding="utf-8"?>
<!-- Generator: Adobe Illustrator 19.0.0, SVG Export Plug-In . SVG Version: 6.00 Build 0)  -->
<svg version="1.1" id="Layer_1" xmlns="http://www.w3.org/2000/svg" xmlns:xlink="http://www.w3.org/1999/xlink" x="0px" y="0px"
	 viewBox="92 164.9 779.6 512.4" style="enable-background:new 92 164.9 779.6 512.4;" xml:space="preserve">
<style type="text/css">
	.st0{fill:#FE2501;}
	.st1{fill:#F1F1F1;}
</style>
<g id="_x23_fe2501ff">
	<path class="st0" d="M560.5,164.9h1.5c0.9,4.6,1.5,9.3,1.6,13.9c0.9,32-2.1,64-4.5,95.9c29.2,6.8,58.5,14.5,85.7,27.3
		c17.7,8.2,34.7,18.6,48.4,32.5c10.6,10.8,19,24.7,20,40.1c13.3,7.1,26.1,15.2,40.1,20.8c13.5,5.5,27.9,9.3,42.6,9.4
		c15,0.4,30-1.1,45,0.5c10.8,1,20.2,7.5,27,15.7c4.8,5.9,4.2,14.2,2.3,21.2c-4.5,14.4-12.9,27.3-22.6,38.7
		c-0.5-3.7-0.9-7.5-2.9-10.7c-4.6-8-11-14.8-17.6-21.1c8.2,19.6,13.2,41.9,6.8,62.8c-6.8,23.3-26.8,40.6-48.8,49.2
		c2.8-3.1,6.1-6.1,6.8-10.3c1.3-7-0.1-14.2-1.8-21c-2-7.7-9.8-11.6-16.4-14.6c-17.7-7.2-36.8-9.9-55.7-12.1
		c-16.4-1.6-32.9-2.5-49.3-1.4c-12,0.9-22.6,7.7-30.7,16.3c-9.5,10.2-16.9,22.4-21.4,35.6c-1.2,3.9-2.7,8.4-0.5,12.3
		c2.2,3.7,5.7,6.4,9.1,8.9c10,6.9,21.2,11.9,32.4,16.6c5.8,2.5,12.2,2.8,18.4,3.5c18.9,2.4,38,3.8,56.9,2.2c8.5-1,17.2-2.3,25-6
		c4-1.8,7-5,10-8.1c0.1,16.7-1.9,33.8-9.1,49c-6.8,15.2-19.3,27.6-34.3,34.7c-19.4,9.4-41.4,11.2-62.6,10.6
		c-7.5-0.3-16.2,0.4-22.2-5.1c-5.6-5.2-10.1-11.6-17.1-15c-15.3-7.7-32.8-9-49.7-10.1c-43.7-1.4-86.8-9.2-129-20.2
		c-10.7-2.5-21.2-5.8-32-7.8c-4.9-1.1-10.4,0.3-13.3,4.5c-5.8,8.1-5.7,18.6-5.9,28.2c-13.1-9.8-25.3-22.4-30.1-38.5
		c-2.1-6.2-1.7-12.9-1.1-19.3c-26.4-6.9-54.8-4.9-80.5,3.9c-35,11.9-65.3,35-90.1,62c-4.9,5.1-9.1,10.9-13.9,16.2
		c1.3-45.1,15.2-90.4,42.6-126.5c29.5-39,72.5-67,119.3-80.6c-32.1,3.4-63.5,13-92.1,27.8c-28.6,14.6-54.4,34.3-77.3,56.7
		C138.1,584.6,112,621,92,660.4v-8.6c1-4.3,1.5-8.7,1.8-13.1c7.2-72.8,27.8-145.4,67.5-207.4c35-55.3,85-100.8,142.9-131.2
		c32.5-17,67.2-30.1,103.3-36.8c0.5-0.2,1.5-0.6,2-0.8c2.4-3.4,3.7-7.5,6.5-10.6c3.6-4.6,9.1-6.9,13.7-10.3
		c33.4-26.6,69.5-50,108.5-67.5C545.6,170.7,553.3,168.3,560.5,164.9 M528.8,209.7c-9.8,9.6-19.3,19.6-26.9,31.1
		c-19.1,27.6-31.5,59.4-38.8,92.1c2.6,2.6,6.9,3,9.9,1c3.2-2.2,5.1-5.8,6.7-9.2c4.9-11.5,9.3-23.3,16.3-33.7
		c3.3-4.6,6.9-9.3,12-12.1c-7.6,13.5-12.4,29.6-9,45.1c1.8-2.1,2.7-4.6,3.9-7.1c7.1-15,14.5-29.8,22.7-44.3c1.3-2.3,2.7-4.5,4.2-6.6
		c-4.1,9.6-8.3,19.4-10.1,29.8c-0.6,3.8-0.9,7.7,0.2,11.4c4.3,0.1,8.2-2.1,10.9-5.2c6.6-7.4,9.8-17.1,12.5-26.6
		c6.8-26.9,8.3-54.7,8.5-82.4C543.4,197.3,535.9,203.4,528.8,209.7 M559.1,283c-1.4,15.5-4.2,30.8-8.9,45.6c20.7-3.8,41.9-7,63-5.1
		c6.8,0.9,13.8,1.9,20,5c-14,0.9-28.2,2.6-41.2,8.3c-6.6,2.9-13.1,6.9-17.2,13.1c3.5-1.2,6.8-2.7,10.1-4.1
		c14.3-5.8,30.1-9.2,45.4-6.3c12.9,2.7,24.3,10.2,33.6,19.4c4.8,4.6,7.9,10.8,13.4,14.6c3.1,2.2,8.9,2,10.2-2.1
		c0.9-5-2-9.6-4.5-13.6c-6.3-9.2-14.7-16.8-23.6-23.4c-12.8-9.4-25.8-18.7-39.6-26.4C600.7,297.3,580.2,288.9,559.1,283
		 M599.1,363.9c5.1,13.1,15.8,23.9,28.8,29c13.2,5.1,28.1,5.7,41.9,2.9c-1.4-8.6-5.7-16.7-12.1-22.6c-8-7.5-19-10.7-29.8-11.6
		C618.3,361.1,608.5,361.4,599.1,363.9 M692.6,406.5c-6.8,2.8-10.7,9.5-17,13.1c-7.1,4.2-15.6,5.3-23.7,5.7
		c-11.9,0.4-23.9-0.4-35.7-1.9c-5.5-0.8-10.9,1.1-16.1,2.8c-17.6,6.1-32.9,18-44.1,32.8c-3.3,4.1-5.6,8.8-8.9,12.9
		c2.4-13.4,5.1-27.3,12.9-38.7c-9.6,3.1-18.8,7.3-27.6,12.2c-19.5,10.9-37.2,26.2-47.8,46.2c-2.7,4.7-4.2,9.8-6.6,14.6
		c0.2-20.1,5.9-40,15.5-57.7c2.5-4.6,5.4-9,8-13.5c-14.7,7.8-27.9,18.2-40,29.5c-16.6,15.9-30.9,35.7-35,58.8
		c-3.4,16.1,1.1,32.6,7.6,47.3c7.1,16.3,19.2,31.1,35.8,38.3c15.6,7.2,33.2,7.3,50,6c8.1-0.9,15.9,2.1,23.5,4.5
		c19,6.5,37.8,13.7,57.2,18.8c15.2,4.1,30.8,5.9,46.4,7.5c14.6,1.8,29.4,3.2,44.1,2c9.8-1,19.9-3.6,27.4-10.2
		c7.2-6.3,10.7-15.9,11.3-25.3c-19.7,1.1-39.6,1.5-59.2-0.9c-17.9-2.3-36-6.1-51.8-15.2c-10.9-6.2-20.3-15.7-24.2-27.8
		c-1.1-3-0.3-6.2,0.4-9.2c3.4-13.6,10.7-25.9,19.2-36.9c8.3-10.9,18.2-20.5,28.5-29.5c6.9-6.4,16.8-7.7,25.7-9.1
		c22.8-2.3,45.8,1,68.2,5.8c17.1,3.9,33.9,8.8,50.5,14.6c10,3.5,22.6-1.3,26.5-11.4c4.3-10.9,1.6-23-1.2-34
		c-3.3-12.9-3-26.4-2.6-39.6c-4.9-1-9.9-0.9-14.8-1c-20.5-0.2-40.9,3-60.9,7.1c-11.5,2.2-22.7,5.7-34.1,8
		c12.1-8.3,24.8-15.7,38-22.2c1.3-0.5,0.7-2.1-0.6-2.1C723.3,403,707,400.7,692.6,406.5z"/>
	<path class="st0" d="M750.4,440.3c3.2-2.4,8.4,1.1,6.9,5c-1,3.2-5.2,3.8-7.6,1.9C748.3,445.2,748.2,441.6,750.4,440.3z"/>
	<path class="st0" d="M774.3,448.2c4.2-2.4,9.8,2.1,9,6.7c-0.7,3.2-3.9,5.9-7.3,5.4c-2.6-0.5-4.8-2.7-5.4-5.4
		C770.2,452.1,772,449.4,774.3,448.2z"/>
	<path class="st0" d="M742.3,456.2c4.3-2.4,9.8,2.1,9,6.7c-0.7,3.2-3.9,5.9-7.3,5.4c-2.6-0.5-4.8-2.8-5.4-5.4
		C738.2,460.1,740,457.4,742.3,456.2z"/>
	<path class="st0" d="M550,568c-0.4-17.6,10.7-34.3,26.1-42.3c-4,10-9.5,19.5-11.2,30.2c-0.6,4.1-0.9,8.7,1.9,12.1
		c9.9,12.9,21.7,24.3,34.2,34.7c-13.8-2.8-27.8-7.1-39.3-15.5C555.6,582.6,550.3,575.9,550,568z"/>
</g>
<g id="_x23_f1f1f1ff">
	<path class="st1" d="M528.8,209.7c7.1-6.3,14.6-12.4,23.1-16.7c-0.3,27.6-1.7,55.5-8.5,82.4c-2.6,9.4-5.8,19.1-12.5,26.6
		c-2.8,3.1-6.7,5.3-10.9,5.2c-1.1-3.7-0.8-7.6-0.2-11.4c1.7-10.4,5.9-20.1,10.1-29.8c-1.5,2.1-3,4.3-4.2,6.6
		c-8.2,14.5-15.6,29.3-22.7,44.3c-1.1,2.4-2.1,5-3.9,7.1c-3.4-15.5,1.4-31.5,9-45.1c-5,2.8-8.7,7.4-12,12.1
		c-7,10.4-11.5,22.2-16.3,33.7c-1.6,3.5-3.5,7.1-6.7,9.2c-3,2-7.3,1.6-9.9-1c7.3-32.7,19.7-64.5,38.8-92.1
		C509.5,229.3,519,219.2,528.8,209.7z"/>
	<path class="st1" d="M559.1,283c21.1,5.9,41.6,14.3,60.7,25c13.9,7.8,26.8,17,39.6,26.4c8.9,6.6,17.3,14.2,23.6,23.4
		c2.5,4,5.4,8.6,4.5,13.6c-1.3,4.1-7.1,4.3-10.2,2.1c-5.5-3.9-8.6-10-13.4-14.6c-9.2-9.2-20.7-16.7-33.6-19.4
		c-15.3-2.8-31.1,0.6-45.4,6.3c-3.4,1.4-6.7,3-10.1,4.1c4-6.2,10.6-10.1,17.2-13.1c13-5.7,27.2-7.4,41.2-8.3c-6.2-3.1-13.2-4.2-20-5
		c-21.1-2-42.3,1.3-63,5.1C554.9,313.8,557.7,298.5,559.1,283z"/>
	<path class="st1" d="M599.1,363.9c9.4-2.5,19.2-2.9,28.8-2.3c10.7,0.8,21.8,4.1,29.8,11.6c6.4,5.9,10.7,14.1,12.1,22.6
		c-13.8,2.8-28.6,2.2-41.9-2.9C614.9,387.8,604.2,377,599.1,363.9z"/>
	<path class="st1" d="M692.6,406.5c14.4-5.8,30.7-3.4,44.8,2.1c1.3,0,1.9,1.6,0.6,2.1c-13.1,6.5-25.9,14-38,22.2
		c11.4-2.3,22.6-5.8,34.1-8c20-4.1,40.4-7.3,60.9-7.1c4.9,0.1,9.9,0,14.8,1c-0.4,13.2-0.7,26.7,2.6,39.6c2.8,11,5.5,23,1.2,34
		c-3.9,10.2-16.5,15-26.5,11.4c-16.5-5.8-33.4-10.7-50.5-14.6c-22.3-4.8-45.3-8.1-68.2-5.8c-9,1.4-18.8,2.7-25.7,9.1
		c-10.3,9-20.2,18.6-28.5,29.5c-8.5,11-15.8,23.3-19.2,36.9c-0.7,3-1.5,6.2-0.4,9.2c3.9,12.1,13.4,21.6,24.2,27.8
		c15.8,9.1,33.9,12.9,51.8,15.2c19.6,2.4,39.5,2,59.2,0.9c-0.6,9.4-4.1,19-11.3,25.3c-7.5,6.6-17.7,9.2-27.4,10.2
		c-14.7,1.3-29.5-0.1-44.1-2c-15.6-1.5-31.3-3.3-46.4-7.5c-19.4-5.1-38.2-12.3-57.2-18.8c-7.6-2.4-15.3-5.4-23.5-4.5
		c-16.8,1.3-34.4,1.2-50-6c-16.5-7.2-28.7-22.1-35.8-38.3c-6.5-14.7-11-31.2-7.6-47.3c4.1-23.1,18.5-42.8,35-58.8
		c12.1-11.3,25.3-21.7,40-29.5c-2.6,4.5-5.5,8.9-8,13.5c-9.6,17.6-15.4,37.6-15.5,57.7c2.4-4.8,3.9-10,6.6-14.6
		c10.5-20,28.2-35.3,47.8-46.2c8.8-4.9,18-9.1,27.6-12.2c-7.8,11.4-10.4,25.3-12.9,38.7c3.3-4.1,5.6-8.8,8.9-12.9
		c11.2-14.8,26.5-26.7,44.1-32.8c5.2-1.7,10.6-3.6,16.1-2.8c11.8,1.5,23.8,2.3,35.7,1.9c8.1-0.4,16.6-1.5,23.7-5.7
		C681.9,415.9,685.8,409.3,692.6,406.5 M750.4,440.3c-2.3,1.4-2.2,4.9-0.7,6.9c2.4,1.9,6.6,1.2,7.6-1.9
		C758.8,441.4,753.7,437.9,750.4,440.3 M774.3,448.2c-2.4,1.2-4.2,4-3.7,6.7c0.5,2.6,2.7,4.8,5.4,5.4c3.4,0.6,6.6-2.1,7.3-5.4
		C784.2,450.2,778.6,445.7,774.3,448.2 M742.3,456.2c-2.4,1.2-4.2,4-3.7,6.7c0.5,2.6,2.7,4.8,5.4,5.4c3.4,0.6,6.6-2.1,7.3-5.4
		C752.2,458.2,746.6,453.7,742.3,456.2 M550,568c0.3,7.9,5.6,14.6,11.7,19.2c11.5,8.5,25.5,12.7,39.3,15.5
		c-12.5-10.3-24.3-21.7-34.2-34.7c-2.8-3.4-2.6-8.1-1.9-12.1c1.7-10.7,7.2-20.3,11.2-30.2C560.8,533.6,549.6,550.4,550,568z"/>
</g>
</svg>
