<?xml version="1.0" encoding="utf-8"?>
<!-- Generator: Adobe Illustrator 20.0.0, SVG Export Plug-In . SVG Version: 6.00 Build 0)  -->
<svg version="1.1" id="Layer_1" xmlns="http://www.w3.org/2000/svg" xmlns:xlink="http://www.w3.org/1999/xlink" x="0px" y="0px"
	 viewBox="0 0 415.7 215.5" style="enable-background:new 0 0 415.7 215.5;" xml:space="preserve">
<style type="text/css">
	.st0{fill:url(#SVGID_1_);}
	.st1{fill:url(#SVGID_2_);}
	.st2{fill:url(#SVGID_3_);}
	.st3{fill:url(#SVGID_4_);}
</style>
<g>
	
		<linearGradient id="SVGID_1_" gradientUnits="userSpaceOnUse" x1="24.4509" y1="29.2026" x2="187.5777" y2="192.3293" gradientTransform="matrix(1 0 0 -1 0 216.8339)">
		<stop  offset="0" style="stop-color:#255B7B"/>
		<stop  offset="1" style="stop-color:#4CBCFF"/>
	</linearGradient>
	<path class="st0" d="M26.8,182.9c42.4-55.1,71-65,83.9-63.9c9.4,0.7,14.6,7.9,14.9,10.5l-10,54.2c-13.6,4.2-37.7-16.6-42-26.6
		c-1.1-2.4-3.9-3.7-6.2-2.5c-14.8,7.7-28.3,26.1-33.7,34.3c-1.5,2.2-1.5,5.9,0.2,7.9c5.4,6.4,14.3,12.7,19.5,16.1
		c2.2,1.5,6.2,2.6,8.8,2.6h76.1c2.6,0,5.1-2.1,5.6-4.7l24.5-146.9c0.4-2.6-1.3-5.4-4-5.4c-94.2,0.5-135.8,50.9-150,70.5
		c-0.7-4.9-1-10-1-15.1c0-60.7,49.2-110,110-110c24,0,46.2,7.7,64.3,20.7C167.9,9.2,143.1,0,116.2,0C52,0,0,52,0,116.2
		C0,141,7.8,164,21.1,182.9C22.6,185.1,25.2,185,26.8,182.9z"/>
	
		<linearGradient id="SVGID_2_" gradientUnits="userSpaceOnUse" x1="317.433" y1="12.6107" x2="374.8548" y2="70.0324" gradientTransform="matrix(1 0 0 -1 0 216.8339)">
		<stop  offset="0" style="stop-color:#255B7B"/>
		<stop  offset="1" style="stop-color:#4CBCFF"/>
	</linearGradient>
	<path class="st1" d="M369.6,175.6c-1.9-1.8-3.4-3.8-2.2-6.2l7.2-14.1c1.2-2.4,3.8-2.8,5.6-0.9c8.3,8.4,22,26.4,35.1,56.5
		c1.1,2.4-0.7,4.6-3.3,4.6h-81.2c-2.6,0-5-2.1-5.2-4.8l-3.6-17.3c-0.2-2.6,0.7-6.6,2.1-8.9l23.1-34.8c1.4-2.3,0.6-5.2-1.6-6.6
		l-8.1-4.9c-2.3-1.4-4.2,0.1-5.5,2.1l-11.9,21c-1.2,3.9-2.5,3.8-2.9-0.3l-8.2-54.2c-0.2-2.6,1.4-3.6,3.9-2.7
		c22.5,7.4,44.4,26,57.3,38.1c1.9,1.8,2.2,5.4,1,7.8l-17.4,33.6c-1.2,2.3-0.1,4.7,2.4,5.3l25.3,7.9c2.6,0.6,3.9-1,2.5-3.2
		C379.6,186.3,375.4,181.3,369.6,175.6z"/>
	<g>
		
			<linearGradient id="SVGID_3_" gradientUnits="userSpaceOnUse" x1="130.2102" y1="24.4199" x2="245.1614" y2="139.371" gradientTransform="matrix(1 0 0 -1 0 216.8339)">
			<stop  offset="0" style="stop-color:#255B7B"/>
			<stop  offset="1" style="stop-color:#4CBCFF"/>
		</linearGradient>
		<path class="st2" d="M218.9,62.6c-12.7-2.5-29.8-4-38-4c-2.6,0-5.1,1.4-5.5,4l-24.3,148.2c-0.4,2.6,1.4,4.7,4,4.7h8.6h27
			c2.6,0,5.1-2.1,5.4-4.8l-1.8-62.5C265,161.4,274.7,73.6,218.9,62.6z M193.9,121.2l6.1-35.5c4.8,0.6,3.1,0.3,10.8,1.5
			C243.5,92.3,236.8,139,193.9,121.2z"/>
	</g>
	
		<linearGradient id="SVGID_4_" gradientUnits="userSpaceOnUse" x1="207.5442" y1="-2.205027e-02" x2="313.9544" y2="106.3882" gradientTransform="matrix(1 0 0 -1 0 216.8339)">
		<stop  offset="0" style="stop-color:#255B7B"/>
		<stop  offset="1" style="stop-color:#4CBCFF"/>
	</linearGradient>
	<path class="st3" d="M318.1,210.7l-15.9-110.2c-0.7-3.2-1.3-3.3-4.7-6c0,0-18.1-15.2-50.6-23.8c7.5,8.7,11.9,16.9,14.1,30.5
		l13.8,6.5c3.9,1.2,7.1,5.5,7.1,9.6l-2.2,22c0,4.1-3.3,8-7.4,8.6l-31-1.8c-9.3,5.5-17.8,9.3-27.7,10.1l-9.7,54.6
		c-0.3,2.6,1.5,4.7,4.2,4.7h35.6c2.6,0,4.5-2.1,4.1-4.7l-4.5-31.3c-0.4-2.6,1.5-5.1,4-5.6l28-4c2.6-0.5,4.4,1.2,4,3.8l-4.5,37.1
		c-0.4,2.6,1.4,4.7,4,4.7h35C316.4,215.5,318.3,213.4,318.1,210.7z"/>
</g>
</svg>
