<?xml version="1.0" encoding="utf-8"?>
<!-- Generator: Adobe Illustrator 19.0.0, SVG Export Plug-In . SVG Version: 6.00 Build 0)  -->
<svg version="1.1" id="Layer_1" xmlns="http://www.w3.org/2000/svg" xmlns:xlink="http://www.w3.org/1999/xlink" x="0px" y="0px"
	 viewBox="-156 275.8 257 295.1" style="enable-background:new -156 275.8 257 295.1;" xml:space="preserve">
<style type="text/css">
	.st0{fill:#414142;}
	.st1{fill:#FFFFFF;}
	.st2{fill:#231F20;}
	.st3{fill:#00AEEF;}
</style>
<path class="st0" d="M-61.4,444.9c-10.3-5.4-24-15-30.6-30.5c-4.5-10.6-3-24.1,4-35.2c7.9-13.4,21.8-20.4,32-23.9
	c9.1-3.2,18.9-4.9,29-5.2l1.4,0l-0.4,1.3c-0.5,1.8-1,3.5-1.5,5.3c-2.7,9.3-5.5,18.9-7.4,28.5l0,0.2c-0.7,3.5-1.3,7.1-0.1,10.3
	c2,5.9,3,12,3.9,17.9l0.1,0.4l-0.3,0.3c-1.3,1.6-2.6,3.3-4,4.9l-0.4,0.5l-0.6-0.1c-2.7-0.4-5.4-1-8-1.6c-5.3-1.2-10.7-2.4-16.1-2.4
	c-0.5,0-1.1,0-1.6,0c-1.2,7.5-2.2,18.3,2,28l1.1,2.6L-61.4,444.9z M-72.9,394c4,4.1,10,6.5,16.5,6.5c2.4,0,4.7-0.3,6.9-0.9
	c2.8-1.1,5.8-2.4,7.4-4.8c-8.8-2.1-17.9-2.9-26.8-3.8c-1.6-0.1-3.1-0.3-4.7-0.4c0,0.1,0,0.3,0.1,0.4
	C-73.5,392.1-73.4,393.2-72.9,394z M-83.8,384.8c1.7,1.1,3.7,1.4,5.9,1.7c0.6,0.1,1.3,0.2,1.9,0.3c12.4,1.4,22.8,2.9,32.2,4.5
	c-2-0.5-4-0.9-5.9-1.3c-6.2-1.3-12.6-2.6-18.5-5.4c-1.7-0.7-2.7-2.1-3.6-3.5l-0.7,2.4l-1.2-0.9c-1.4-1-2.7-2-4-2.9
	c-0.3,0.6-1,1.9-1,1.9l-0.4,0.1c-0.3,0.1-0.6,0.1-0.9,0.1c-1.6,0-2.1-1.2-2.3-2.3C-83.8,381.7-84.7,383.2-83.8,384.8z"/>
<g id="_x23_ffffffff">
	<path class="st1" d="M-74.4,277c14.9-2.6,30.4-0.7,44.5,4.5c2.8,1.3,5.9,0.6,8.9,0.7c18.8-0.1,37.9,5.4,52.7,17.1
		c8.8-1.2,16.9,3.5,23.5,8.9c-2.8-0.4-5.6-0.1-8.4,0.4c10.4,10.3,16.9,23.8,22.1,37.3c1.8,4.4,2.8,9.1,5.1,13.3
		c7.8,14.7,15.6,29.5,23.4,44.2c-5.6-1.1-11.2-2.1-16.8-3.3c3,10,1.2,21.1-4.2,29.9c6.1-1.7,12.3-3.2,18.4-4.8
		c-12.8,14.7-18.7,34.4-18.1,53.7c0.7,27.9,10.9,54.6,24.4,78.8c-7.4-3.8-14.8-7.7-22.1-11.5c-3-1.6-6.4-1.7-9.7-2.3
		c-23.9-3.8-48-7.2-72.2-8c-6.8-0.1-13.8-0.2-20.4,1.6c-2,0.6-4.3,1.5-5.1,3.7c-2.7,6.1-4.6,12.4-6.8,18.7
		c-2.1-4.1-4.1-8.1-6.2-12.2c-0.7,2.2-1.3,4.5-2,6.7c-1.7-4.5-3.3-9.1-5.4-13.4c-1.3-3.1-4.9-4-7.9-4.9c-8.3-2-16.8-2-25.3-1.5
		c-6.6,0.6-13.3,1.4-19.5,4c-3.4,1.3-5.7,4.3-8.1,6.9c-6.5,7.2-13,14.4-19.5,21.6c0.1-3.3,0.3-6.6,0.5-9.9c-6.3,3.2-12.6,6.4-19,9.5
		c-2.4,1.2-5,2.2-6.8,4.3h-1.6c9.9-11.8,18.7-24.7,24.9-38.9c11.1-25.1,14.9-53.4,10.3-80.5c-0.6-3-0.9-6.3-3-8.7
		c-4.1-5.6-8.1-11.3-12.3-16.9c3,1.4,6.1,2.7,9.2,4c-8.7-9.4-6.9-23.1-7-34.9c-1.7,2.2-3.1,4.6-4.5,7c-1.7-12.8,1.9-25.7,7.1-37.3
		c1.4-2.7,0.9-5.9,1.3-8.9c1-16.5,7.9-32.7,19.4-44.6c13.7-14.5,32.4-23.3,51.5-28c-0.1-0.3-0.2-0.8-0.2-1.1
		C-63.8,279.1-69.3,278.5-74.4,277 M-53.7,281.4c1.9,1.6,3.5,3.5,4.7,5.7c-13.1,1.8-26.1,5.5-37.6,12.3c-12.2,7.1-22.2,17.6-28.8,30
		c-6,11.1-9.2,23.5-10.3,36c-5.1,8.2-8.5,17.6-8.4,27.4c2-1.2,4.2-2.4,6.3-3.3c-4.7,12.6-3.8,27.8,4.8,38.5c1.2,1.9,2-0.6,2.5-1.5
		c2.9,2.6,1.9,7.1,2.6,10.6c-2.7-0.8-5.3-1.6-8-2.2c2.7,2.9,6.3,5.1,8.3,8.5c6.2,16.7,7.5,35,4.8,52.5
		c-3.6,22.8-13.3,44.3-26.4,63.2c6.8-4.9,13.2-10.1,19.8-15.1c-0.7,3.3-1.4,6.7-2.1,10c4.2-6,8.1-12.2,12.4-18.3
		c0.6-1.1,1.9-1.2,3-1.4c13.9-2.5,28-4.8,42.2-5.3c6.1-0.2,12.3-0.2,18.1,1.7c0.7,3.6,1.5,7.2,2.3,10.8c0.9-2.5,1.7-5,2.7-7.5
		c1.4,4.7,2.6,9.5,4.2,14.1c0.7-3.5,1-7.2,2.2-10.6c2.4-3.6,7-4.9,11-5.9c10.5-2,21.3-1.5,31.9-0.8c22.2,1.8,44.1,5.6,65.9,10.3
		c-0.2-2-0.3-4-0.4-6c6.5,4.7,12.8,9.6,19.4,14.2c-2.5-5.6-4.8-11.3-8-16.6c-9.3-16.4-16-34.7-16.1-53.7c-0.2-16.7,5.5-33.8,17-46.1
		c-7.3,1.7-14.6,3.6-21.9,5.1c1.3-4.1,2.4-8.2,3.7-12.3c1,2.5,1.8,5,2.7,7.4c2.6-3.9,5.1-8.3,5.1-13.2c0.4-11.1-0.8-22.1-2.1-33
		c4.2,1.7,8.4,3.6,12.6,5.3C80.6,381,74.8,370,69,359c-1.6-3.8-2-7.9-3.5-11.7c-5.1-14.4-15.1-26.5-26.7-36.2
		c-3.5-2.4,1.6-4.7,3.4-6.2c-3.7-0.5-7.4-0.4-11,0c-8.3-9.1-20.9-11.7-32.2-15.3c1.6-0.8,3.2-1.4,4.6-2.4c-4.1-1-8.3,0.4-12.5,0
		c-7.9-1.7-16.1-1.8-24.2-2.4c-2.6,0-4.6-1.8-7-2.4C-44.4,281.1-49.2,281.5-53.7,281.4z"/>
	<path class="st1" d="M-46.1,284.9c2.3,1.7,4.6,3.4,6.8,5.2c5.7,4.8,11.3,9.6,16.6,14.9c4-5.7,9.3-10.3,15.4-13.7
		c1.3-0.7,2.6-1.2,3.9-1.8c-0.4,0.5-1.2,1.6-1.6,2.2c-4.4,5.2-5.1,12.8-1.9,18.9c2.6-3.3,5.1-6.7,8.6-9c3.3-2.2,7.1-3.2,10.9-4.1
		l0.4-0.1l-0.1,0.2c-3.2,5.5-6.6,11.3-6.4,17.8c3.3-2,6.2-4.7,8.7-7.7c0.6,3.1,0.6,6.4-0.2,9.5c5.3-3.1,10.6-6.6,16.5-8.7
		c1.3-0.3,2.6-0.6,3.9-0.8c-0.5,0.6-1.5,1.7-2,2.3c-2.7,3.3-5.7,6.6-6.7,10.8c3.5,2.4,7.7,3.7,10.8,6.5c0.1,0.3,0.3,1,0.4,1.3
		c-4.2,0.4-8.2-1.6-12.4-1.5c4.1,2.7,8.7,4.6,12.9,7.3c10.1,6.2,18.9,14.3,26,23.7c5.8,8.1,10.6,17,13.6,26.5
		c-2.6-0.8-4.9-2.2-7.4-3.2c-1.2-0.2-2.5-0.3-3.8-0.4c2.2,6.5,4.3,13.1,5.2,20c0.9,7.7,0.9,15.7-1.3,23.2c-1.6-2-2.1-4.5-3-6.8
		c-2.6,6.4-3.9,13.4-7.6,19.4c-0.7,1-1.4,2.3-2.7,2.7c-1-4.3,1.8-8.5,0.8-12.8c-6.4,7.1-8.4,18-17.2,22.8c-3-3.3,2.3-6.9,3.1-10.2
		c-5.1-1.3-6.3,4.6-10.2,5.9c-2-1.2-4.4-1.7-6-3.3c5.5-2.4,6.7-8.8,8.1-14c1-5.3,4-9.9,5.3-15.1c3.3-10.9,2.7-23.2-3-33.2
		C31.1,367.1,18.2,359,5,354.4c-20.3-7-43-7.6-63.5-0.9c-14,4.6-27.1,14-33,27.8c-4.4,10.5-5.5,22.9-1.1,33.6
		c1.4,3.8,1.9,7.9,1.8,11.9c-0.4,3.7,3,6.2,4.6,9.2c1.9,2.8,1.5,6.3,1.1,9.5c-4.8-0.4-6.3-5.5-10.2-7.6c-0.4,4,0.8,8,4.1,10.6
		c-2.4-0.5-5-1-6.8-2.8c-5.7-5.2-7.7-13-11.9-19.2c-2.3,4.2-0.4,9,0.5,13.3c-7.7-5.2-7.5-15.3-10.3-23.3c-1.1,2.4-1.9,5-2.7,7.5
		c-3.6-7.7-3.3-16.5-1.9-24.7c1.1-5.8,3-11.5,5.2-17c-1.7-0.4-3.5-0.7-5.2,0c-2,1-4.1,1.8-6.3,2.4c2.3-6.4,5.3-12.6,8.6-18.5
		c8.2-14.1,20.1-26.4,35-33.4c3-1.5,6.2-2.6,9.2-4c-4.2-2.7-8.7,0.7-13.2,0.6c2.9-2.8,6.4-5,9.8-7.2c-2.3-4.7-5.5-8.7-8.9-12.6
		c7.3,1,13.2,5.7,19.8,8.8c-0.1-2.9,0-5.8,0.3-8.7c2,2.1,4.1,4.1,6.3,6c0.7-0.1,1.9-0.3,2.6-0.4c-0.7-5.8-3.6-11-6.5-16
		c4.1,0.9,8.2,2,11.7,4.4c3.8,2.4,6,6.4,9.3,9.5c1.7-5.9,6.7-10.9,5.8-17.3c-0.1-1.7-0.6-3.4-1.3-5
		C-43.2,288.7-44.7,286.8-46.1,284.9z"/>
	<path class="st1" d="M-84.5,385.5c-2-3.1,1.2-6,2.8-8.5c0.5,1.5-0.1,4.4,2.3,3.8c0.3-0.6,1-1.9,1.3-2.5c1.7,1.1,3.3,2.3,5,3.5
		c0.2-0.8,0.7-2.4,0.9-3.2c1.3,1.9,2.2,4.1,4.4,5c7.9,3.8,16.7,4.8,25.1,6.8c0.5,0.6,1.5,1.8,2,2.3c-11.8-2.2-23.6-3.8-35.4-5.1
		C-78.9,387.3-82,387.2-84.5,385.5z"/>
	<path class="st1" d="M27.9,377.9c1.6,2.2,4.4,4.8,3,7.8c-1.7,1.8-4.5,1.8-6.7,2.3c-12.5,1.6-25.1,2.9-37.5,5.6
		c0.6-0.7,1.8-2,2.3-2.6c8.5-2,17.4-3,25.3-6.9c2.3-0.9,2.9-3.4,4-5.4c0.2,0.9,0.6,2.8,0.9,3.7c1.7-1.2,3.4-2.4,5.1-3.6
		c0.8,1,0.7,3.5,2.6,2.7C27.2,380.4,27.6,379.2,27.9,377.9z"/>
	<path class="st1" d="M-60.9,417.4c2.7-0.1,5.4,0,8,0.2c0.5,0.5,1.4,1.6,1.9,2.1c1.3-0.7,2.3-2,3.8-1.9c4.3,1,8.5,2.6,12.7,3.7
		c0.2,0.7,0.7,2,0.9,2.7c0.8-0.6,1.6-1.1,2.4-1.7c2.6,1,5.3,0.9,7.9,0c0.6,0.4,1.7,1.1,2.3,1.4c0.5-0.9,1-1.7,1.4-2.6
		c4.3-1.3,8.5-2.6,12.8-3.9c1.1,0.7,2.2,1.4,3.3,2.2c2.4-3.2,6.6-2.2,10-2.4c0.9,2.9,1.5,5.9,1.5,9c-3.5,0.6-7.2,0-10.6,1.1
		c-0.3-0.6-0.8-1.8-1-2.4c-1.6,2.7-3.1,5.5-5,8c-2-2.7-3.7-5.8-6.2-8.1c-4,5.4-11.2,4.4-17.1,4.2c-2.9,0-5.3-2-7.3-3.9
		c-3,1.6-4.3,5.4-6.5,7.9c-1.8-2.5-3.3-5.1-4.7-7.9c-0.4,0.6-1.1,1.7-1.4,2.2c-3.4-0.9-6.9-0.6-10.4-0.9
		C-62.3,423.4-61.7,420.3-60.9,417.4z"/>
	<path class="st1" d="M-45,434.9c1.1-3.6,2.9-6.8,5.6-9.4c0.8,1.7,1.7,3.5,2.6,5.2c6.3,0.4,12.6,0.2,18.9,0.2c1-1.8,2-3.6,3-5.4
		c2.8,2.5,3.9,6.1,5.7,9.2c2.6-1.3,4.5-3.6,6.6-5.5c2.5-1.9,5.9-1.9,8.9-1.7c0.9,5.1-0.5,10-3.1,14.3c-0.6-0.4-1.9-1.3-2.5-1.8
		c-0.4,0.5-1.2,1.6-1.6,2.2c-4.4-0.4-8.9-0.8-13.3-1.9c0.5-0.6,1.4-1.9,1.9-2.6c-1.3,0.5-2.5,1.1-3.8,1.6c-3.8-0.8-7.4-2.1-11.2-3
		c-5,0.6-10.1,4.7-15,1.5c0.4,0.7,1.3,2,1.8,2.7c-4.4,0.6-8.8,1.6-13.2,1.5c-0.4-0.5-1.3-1.4-1.7-1.8c-0.8,0.5-1.7,1-2.5,1.5
		c-2.5-4.3-4-9.1-3-14.2c3.3-0.4,7.2-0.3,9.7,2.3C-49.3,431.8-47.2,433.5-45,434.9z"/>
	<path class="st1" d="M-112.3,443.9c12.7,6,25.4,12.1,38,18.3c2.4,9.9,3.4,20.2,2.6,30.4c-1.9,0.9-3.8,1.9-5.8,2.8
		c1.7,1.1,3.4,2.1,5,3.3c-1.2,8.2-4,16.2-7.1,23.9c-2.2,0.2-4.4,0.4-6.6,0.6c3.1-6.9,5.6-14,7.4-21.4c-1.7-0.9-3.4-2-5.2-2.7
		c-3.8-0.2-7.7,0.3-11.5,0.4c-2.8,10.8-7.2,21.3-13.5,30.5c-2.8,4.1-5.2,8.3-8.2,12.3c0-1.2,0.1-3.6,0.1-4.8
		c-4.3,3.8-8.5,7.8-12.9,11.5c5.5-7.4,11.4-14.6,16.8-22.1c9.7-15.3,14.8-33.9,12.1-51.9C-102.5,463.9-106.9,453.6-112.3,443.9
		 M-99.3,457.6c4.1,11.3,6,23.4,5,35.3c3.8-0.1,7.5,0.1,11.3-0.4c2.1-0.8,4-2,5.9-2.9c0.3-7.2-0.3-14.5-1.6-21.6
		C-85.6,464.6-92.5,461-99.3,457.6z"/>
	<path class="st1" d="M33.2,462.2c12.6-6.1,25.3-12.3,38-18.3c-7.5,13-12.7,27.5-12.7,42.6c-1.9,0-3.7,0-5.6,0
		c-0.1-9.9,2-19.7,5.4-29c-6.9,3.5-13.9,6.9-20.7,10.6c-3,16.3-1.1,33.3,4.7,48.7c6.3,0.6,12.6,1.1,18.9,1.8
		c-2.8-6.2-5.4-12.6-6.9-19.3c1.9,0.1,3.9,0.2,5.8,0.3c3.1,11.1,7.7,22.1,14.9,31.2c1.3,1.7,2.6,3.5,3.9,5.3c-2.7-1.5-5.3-3.3-7.9-5
		c0,0.9-0.1,2.6-0.1,3.5c-2.9-3-5.7-6-8.6-8.9c-1.1-1.1-2.9-0.9-4.3-1.2c-6.5-0.7-13-1.3-19.6-1.8C30.5,503.6,28.1,482.2,33.2,462.2
		z"/>
	<path class="st1" d="M-64.2,462.8c9.4-4.8,19-9.2,28.6-13.4c1.4,12.3,2.1,24.6,2.1,36.9c-1.9,0-3.8,0-5.6,0
		c-0.1-8.5-0.5-17.1-1.4-25.6c-5.7,2.5-11.2,5.3-16.7,8.1c1.9,15.6,0.8,31.4-2.9,46.7c6.3-0.3,12.6-0.5,18.9-0.7
		c0.8-5.7,1.3-11.4,1.8-17.1c1.9,0,3.8,0,5.7,0c-0.6,11.6-1.6,23.2-3.8,34.6c-1.2-2.4-2.4-4.9-3.7-7.3c-0.5,1.2-0.9,2.5-1.4,3.7
		c-0.8-2.7-1.5-5.4-2.3-8.1c-7.8,0.3-15.7,0.7-23.5,1.1C-61.9,502.9-60.2,482.4-64.2,462.8z"/>
	<path class="st1" d="M-24.7,449.6c10.3,4.2,20.4,8.8,30.3,13.8c-0.9,6.6-1.2,13.2-2.3,19.8c-1.5-4.3-2.1-8.9-3.4-13.3
		c-1.9-1.5-4.3-2.3-6.4-3.4c-1.2,18-0.5,36,1.5,53.9c-2.2,0-4.4-0.1-6.6-0.1c-1.4-18.9-1.5-37.8-0.9-56.7c-4-1.8-8-3.7-12-5.5
		C-24.5,455.3-24.6,452.4-24.7,449.6z"/>
	<path class="st1" d="M15.6,463.4c2.2-1.1,4.4-2.2,6.7-3.2c-4.5,20.4-3.1,41.8,3.6,61.5c-2.2-0.1-4.4-0.3-6.6-0.4
		C13.8,502.6,12.5,482.6,15.6,463.4z"/>
</g>
<g id="_x23_231f20ff">
	<path class="st2" d="M-53.7,281.4c4.6,0.1,9.3-0.2,13.8,1.1c2.4,0.6,4.4,2.4,7,2.4c8.1,0.6,16.2,0.7,24.2,2.4c4.1,0.4,8.3-1,12.5,0
		c-1.4,1-3.1,1.7-4.6,2.4c11.3,3.5,23.9,6.1,32.2,15.3c3.7-0.4,7.4-0.5,11,0c-1.9,1.4-6.9,3.7-3.4,6.2c11.6,9.7,21.5,21.9,26.7,36.2
		c1.5,3.8,1.9,8,3.5,11.7c5.7,11,11.6,22,17.2,33.1c-4.2-1.7-8.4-3.6-12.6-5.3c1.2,11,2.5,22,2.1,33c0,4.9-2.5,9.3-5.1,13.2
		c-0.9-2.5-1.7-5-2.7-7.4c-1.3,4.1-2.4,8.2-3.7,12.3c7.4-1.5,14.6-3.4,21.9-5.1c-11.5,12.3-17.2,29.4-17,46.1
		c0.1,19,6.9,37.3,16.1,53.7c3.2,5.3,5.5,11,8,16.6c-6.5-4.6-12.9-9.5-19.4-14.2c0.1,2,0.3,4,0.4,6c-21.8-4.6-43.7-8.5-65.9-10.3
		c-10.6-0.7-21.4-1.3-31.9,0.8c-4,0.9-8.6,2.2-11,5.9c-1.3,3.4-1.5,7-2.2,10.6c-1.6-4.7-2.8-9.4-4.2-14.1c-1,2.5-1.8,5-2.7,7.5
		c-0.8-3.6-1.6-7.2-2.3-10.8c-5.8-1.9-12-1.8-18.1-1.7c-14.2,0.6-28.2,2.8-42.2,5.3c-1.1,0.3-2.4,0.3-3,1.4
		c-4.2,6-8.2,12.2-12.4,18.3c0.7-3.3,1.4-6.7,2.1-10c-6.7,5-13.1,10.3-19.8,15.1c13.1-18.9,22.8-40.4,26.4-63.2
		c2.8-17.5,1.5-35.8-4.8-52.5c-2-3.4-5.6-5.6-8.3-8.5c2.7,0.7,5.3,1.5,8,2.2c-0.6-3.5,0.4-8-2.6-10.6c-0.5,0.9-1.3,3.4-2.5,1.5
		c-8.6-10.7-9.5-25.9-4.8-38.5c-2.2,1-4.3,2.1-6.3,3.3c-0.2-9.8,3.3-19.2,8.4-27.4c1.1-12.5,4.3-25,10.3-36
		c6.6-12.4,16.7-22.9,28.8-30c11.4-6.8,24.4-10.5,37.6-12.3C-50.3,284.9-51.8,282.9-53.7,281.4 M-46.1,284.9c1.3,1.9,2.9,3.8,3.8,6
		c-1.5-0.8-3.2,0-4.8,0.1c-16.6,2.3-32.9,8.3-45.7,19.3c-16.4,14.1-25.9,34.9-29.3,56c-3.3,5.9-6.4,12.1-8.6,18.5
		c2.2-0.6,4.3-1.4,6.3-2.4c0,5.7-0.4,11.4,0,17c-1.4,8.2-1.6,17,1.9,24.7c0.9-2.5,1.6-5.1,2.7-7.5c2.8,8,2.6,18.1,10.3,23.3
		c-0.9-4.4-2.8-9.1-0.5-13.3c4.3,6.2,6.2,14,11.9,19.2c1.8,1.8,4.4,2.3,6.8,2.8c-3.2-2.6-4.5-6.6-4.1-10.6c3.9,2,5.4,7.2,10.2,7.6
		c0.3-3.2,0.8-6.7-1.1-9.5c-1.6-3-5-5.4-4.6-9.2c0.1-4.1-0.5-8.1-1.8-11.9c-4.4-10.7-3.3-23.1,1.1-33.6c5.9-13.8,19-23.2,33-27.8
		c20.5-6.7,43.2-6.1,63.5,0.9c13.3,4.7,26.2,12.8,33.2,25.3c5.7,10,6.3,22.3,3,33.2c-1.3,5.2-4.3,9.8-5.3,15.1
		c-1.4,5.2-2.6,11.6-8.1,14c1.7,1.6,4.1,2.1,6,3.3c3.9-1.2,5.2-7.1,10.2-5.9c-0.8,3.4-6.1,6.9-3.1,10.2c8.9-4.9,10.8-15.7,17.2-22.8
		c1,4.4-1.8,8.5-0.8,12.8c1.3-0.4,2-1.7,2.7-2.7c3.7-6,5-12.9,7.6-19.4c0.9,2.3,1.4,4.8,3,6.8c2.1-7.5,2.1-15.5,1.3-23.2
		c0.2-6.6-1.7-13-1.5-19.6c2.5,1,4.8,2.4,7.4,3.2c-3-9.5-7.8-18.4-13.6-26.5c-5.4-18.5-16-35.8-30.9-48.2c0.5-0.6,1.5-1.7,2-2.3
		c-1.3,0.2-2.7,0.5-3.9,0.8c-5.7-4.4-12-8.1-18.6-11l0.1-0.2l-0.4,0.1c-5.7-2.5-11.6-4.3-17.7-5.7c0.4-0.5,1.2-1.6,1.6-2.2
		c-1.3,0.6-2.6,1.1-3.9,1.8c-10.5-2.3-21.3-1.8-31.9-1.2C-41.5,288.3-43.8,286.5-46.1,284.9 M-55.8,356.2
		c-12.5,4.3-24.6,11.8-31.4,23.4c-6.3,10-8.7,23.1-3.9,34.3c5.7,13.4,17.5,23.4,30.2,30c-4-9.3-3.6-19.6-2-29.3
		c9.1-0.6,17.8,2.4,26.7,3.9c1.3-1.6,2.6-3.3,3.9-4.9c-1-6-1.9-11.9-3.9-17.7c-1.4-3.6-0.6-7.4,0.1-11.1c2.3-11.4,5.8-22.6,9-33.8
		C-36.9,351.3-46.6,353-55.8,356.2 M27.9,377.9c-0.3,1.3-0.6,2.5-1.1,3.7c-1.8,0.8-1.8-1.7-2.6-2.7c-1.7,1.2-3.4,2.4-5.1,3.6
		c-0.2-0.9-0.6-2.8-0.9-3.7c-1.1,1.9-1.7,4.5-4,5.4C6.4,388-2.5,389.1-11,391c-0.6,0.7-1.8,2-2.3,2.6c12.4-2.7,25-3.9,37.5-5.6
		c2.3-0.6,5-0.5,6.7-2.3C32.3,382.8,29.5,380.1,27.9,377.9 M-13.3,394.9c5.6,7.8,16.7,8.4,25.1,5.6c4.4-1.9,9.9-4.8,9.4-10.5
		C9.7,391.2-2.1,391.6-13.3,394.9 M-60.9,417.4c-0.8,3-1.4,6-1.4,9c3.5,0.3,7,0,10.4,0.9c0.4-0.6,1.1-1.7,1.4-2.2
		c1.4,2.8,2.8,5.4,4.7,7.9c2.2-2.5,3.5-6.3,6.5-7.9c2,1.9,4.3,3.9,7.3,3.9c5.9,0.2,13.1,1.2,17.1-4.2c2.5,2.3,4.2,5.4,6.2,8.1
		c1.9-2.5,3.4-5.3,5-8c0.3,0.6,0.8,1.8,1,2.4c3.4-1.1,7.1-0.5,10.6-1.1c-0.1-3.1-0.6-6.1-1.5-9c-3.4,0.2-7.6-0.8-10,2.4
		c-1.1-0.8-2.2-1.5-3.3-2.2c-4.3,1.3-8.5,2.6-12.8,3.9c-0.4,0.9-0.9,1.7-1.4,2.6c-0.6-0.4-1.7-1.1-2.3-1.4c-2.6,0.9-5.3,0.9-7.9,0
		c-0.8,0.6-1.6,1.1-2.4,1.7c-0.2-0.7-0.6-2-0.9-2.7c-4.3-1.2-8.4-2.7-12.7-3.7c-1.5-0.1-2.6,1.3-3.8,1.9c-0.5-0.5-1.4-1.6-1.9-2.1
		C-55.6,417.4-58.3,417.3-60.9,417.4 M-45,434.9c-2.2-1.4-4.2-3.1-6.1-5c-2.5-2.5-6.4-2.7-9.7-2.3c-0.9,5,0.6,9.8,3,14.2
		c0.8-0.5,1.7-1,2.5-1.5c0.4,0.5,1.3,1.4,1.7,1.8c4.4,0.1,8.8-0.8,13.2-1.5c-0.4-0.7-1.3-2-1.8-2.7c4.9,3.2,10-0.8,15-1.5
		c3.7,0.9,7.4,2.3,11.2,3c1.2-0.6,2.5-1.1,3.8-1.6c-0.5,0.6-1.4,1.9-1.9,2.6c4.4,1.1,8.8,1.4,13.3,1.9c0.4-0.5,1.2-1.6,1.6-2.2
		c0.6,0.4,1.9,1.3,2.5,1.8c2.6-4.3,4-9.3,3.1-14.3c-3-0.1-6.4-0.2-8.9,1.7c-2.1,1.9-4,4.1-6.6,5.5c-1.8-3.1-2.9-6.7-5.7-9.2
		c-1,1.8-2,3.6-3,5.4c-6.3,0-12.6,0.3-18.9-0.2c-0.9-1.7-1.7-3.5-2.6-5.2C-42.1,428.1-44,431.4-45,434.9 M-112.3,443.9
		c5.3,9.7,9.8,20,11.3,31c2.7,18.1-2.4,36.6-12.1,51.9c-5.4,7.5-11.2,14.7-16.8,22.1c4.4-3.7,8.6-7.7,12.9-11.5
		c0,1.2-0.1,3.6-0.1,4.8c3-3.9,5.4-8.2,8.2-12.3c6.3-9.2,10.8-19.7,13.5-30.5c3.8-0.1,7.7-0.6,11.5-0.4c1.8,0.7,3.5,1.8,5.2,2.7
		c-1.8,7.4-4.3,14.5-7.4,21.4c2.2-0.2,4.4-0.4,6.6-0.6c3.1-7.7,5.8-15.6,7.1-23.9c-1.6-1.2-3.3-2.2-5-3.3c1.9-1,3.8-1.9,5.8-2.8
		c0.8-10.2-0.2-20.4-2.6-30.4C-86.9,456-99.6,449.9-112.3,443.9 M33.2,462.2c-5.1,20-2.7,41.4,5.2,60.4c6.5,0.6,13.1,1.2,19.6,1.8
		c1.4,0.3,3.2,0,4.3,1.2c3,2.9,5.7,6,8.6,8.9c0-0.9,0.1-2.6,0.1-3.5c2.6,1.8,5.1,3.5,7.9,5c-1.3-1.8-2.6-3.5-3.9-5.3
		c-7.3-9.1-11.8-20-14.9-31.2c-1.9-0.1-3.9-0.2-5.8-0.3c1.5,6.7,4,13.1,6.9,19.3c-6.3-0.7-12.6-1.1-18.9-1.8
		c-5.8-15.5-7.7-32.4-4.7-48.7c6.8-3.7,13.8-7.1,20.7-10.6c-3.3,9.3-5.5,19.1-5.4,29c1.9,0,3.7,0,5.6,0c0-15.1,5.2-29.7,12.7-42.6
		C58.5,449.9,45.9,456.1,33.2,462.2 M-64.2,462.8c4,19.6,2.3,40.2-4.3,59c7.8-0.5,15.7-0.9,23.5-1.1c0.8,2.7,1.5,5.4,2.3,8.1
		c0.5-1.3,1-2.5,1.4-3.7c1.3,2.4,2.4,4.9,3.7,7.3c2.2-11.4,3.2-23,3.8-34.6c-1.9,0-3.8,0-5.7,0c-0.5,5.7-1,11.4-1.8,17.1
		c-6.3,0.2-12.6,0.5-18.9,0.7c3.8-15.2,4.8-31.1,2.9-46.7c5.6-2.7,11-5.6,16.7-8.1c0.8,8.5,1.3,17,1.4,25.6c1.9,0,3.8,0,5.6,0
		c0-12.3-0.8-24.7-2.1-36.9C-45.2,453.6-54.8,458-64.2,462.8 M-24.7,449.6c0.1,2.8,0.2,5.6,0.3,8.5c4,1.8,8,3.7,12,5.5
		c-0.6,18.9-0.5,37.8,0.9,56.7c2.2,0,4.4,0,6.6,0.1c-2-17.9-2.7-35.9-1.5-53.9c2.1,1.1,4.5,1.9,6.4,3.4c1.4,4.4,1.9,9,3.4,13.3
		c1.1-6.6,1.4-13.2,2.3-19.8C-4.2,458.4-14.4,453.8-24.7,449.6 M15.6,463.4c-3.1,19.3-1.8,39.2,3.7,57.9c2.2,0.1,4.4,0.2,6.6,0.4
		c-6.7-19.7-8.1-41.2-3.6-61.5C20,461.2,17.8,462.3,15.6,463.4z"/>
	<path class="st2" d="M-99.3,457.6c6.9,3.4,13.7,7,20.6,10.5c1.3,7.1,1.9,14.3,1.6,21.6c-2,1-3.9,2.1-5.9,2.9
		c-3.7,0.5-7.5,0.3-11.3,0.4C-93.3,480.9-95.2,468.8-99.3,457.6z"/>
</g>
<g id="_x23_00aeefff">
	<path class="st3" d="M-39.3,290.1c10.6-0.6,21.4-1,31.9,1.2c-6,3.4-11.4,8-15.4,13.7C-27.9,299.7-33.6,294.9-39.3,290.1z"/>
	<path class="st3" d="M-92.7,310.2c12.7-11,29.1-17.1,45.7-19.3c1.6,0,3.3-0.8,4.8-0.1c0.7,1.6,1.2,3.3,1.3,5
		c0.9,6.4-4.2,11.4-5.8,17.3c-3.2-3-5.5-7-9.3-9.5c-3.4-2.4-7.6-3.5-11.7-4.4c2.9,5,5.8,10.1,6.5,16c-0.7,0.1-1.9,0.3-2.6,0.4
		c-2.2-1.9-4.3-4-6.3-6c-0.3,2.9-0.4,5.8-0.3,8.7c-6.5-3.1-12.4-7.8-19.8-8.8c3.4,3.9,6.7,7.9,8.9,12.6c-3.4,2.2-6.9,4.4-9.8,7.2
		c4.4,0,9-3.4,13.2-0.6c-3.1,1.4-6.2,2.6-9.2,4c-14.9,7-26.8,19.3-35,33.4C-118.6,345.1-109.2,324.3-92.7,310.2z"/>
	<path class="st3" d="M-7,310.5c-3.2-6-2.5-13.6,1.9-18.9c6,1.5,12,3.2,17.7,5.7c-3.8,0.9-7.7,1.9-10.9,4.1
		C-1.9,303.8-4.4,307.2-7,310.5z"/>
	<path class="st3" d="M12.9,297.5c6.6,2.9,12.9,6.6,18.6,11c-5.9,2-11.1,5.5-16.5,8.7c0.8-3.1,0.8-6.4,0.2-9.5
		c-2.5,3-5.4,5.6-8.7,7.7C6.3,308.8,9.7,303,12.9,297.5z"/>
	<path class="st3" d="M26.8,320.8c0.9-4.3,4-7.6,6.7-10.8c14.9,12.4,25.5,29.7,30.9,48.2c-7.1-9.4-15.9-17.5-26-23.7
		c-4.2-2.7-8.7-4.6-12.9-7.3c4.2-0.1,8.2,1.9,12.4,1.5c-0.1-0.3-0.3-1-0.4-1.3C34.4,324.5,30.2,323.2,26.8,320.8z"/>
	<path class="st3" d="M66.8,381.1c1.2,0.1,2.5,0.2,3.8,0.4c-0.2,6.6,1.7,13,1.5,19.6C71.1,394.2,69,387.6,66.8,381.1z"/>
	<path class="st3" d="M-124.3,382.3c1.7-0.6,3.5-0.4,5.2,0c-2.3,5.5-4.1,11.2-5.2,17C-124.8,393.6-124.3,387.9-124.3,382.3z"/>
	<path class="st3" d="M-74.9,389.5c11.4,1.1,23,1.8,34.2,4.6c-1.4,3.5-5.2,5.1-8.5,6.4c-8.4,2.3-18.3,0.5-24.5-5.9
		C-74.7,393.1-74.5,391.2-74.9,389.5z"/>
	<path class="st3" d="M-13.3,394.9c11.2-3.3,22.9-3.7,34.5-4.9c0.5,5.7-5,8.6-9.4,10.5C3.4,403.4-7.7,402.7-13.3,394.9z"/>
</g>
<path class="st0" d="M-55.8,356.2c9.2-3.2,19-4.9,28.7-5.2c-3.2,11.2-6.7,22.4-9,33.8c-0.7,3.6-1.5,7.5-0.1,11.1
	c1.9,5.7,2.9,11.7,3.9,17.7c-1.3,1.6-2.6,3.3-3.9,4.9c-8.9-1.5-17.6-4.5-26.7-3.9c-1.6,9.7-2.1,20.1,2,29.3
	c-12.7-6.6-24.5-16.6-30.2-30c-4.8-11.2-2.4-24.2,3.9-34.3C-80.4,368-68.4,360.5-55.8,356.2 M-84.5,385.5c2.4,1.6,5.6,1.7,8.4,2.2
	c11.9,1.4,23.7,3,35.4,5.1c-0.5-0.6-1.5-1.8-2-2.3c-8.4-2-17.3-3-25.1-6.8c-2.2-0.9-3.2-3.2-4.4-5c-0.2,0.8-0.7,2.4-0.9,3.2
	c-1.6-1.2-3.3-2.4-5-3.5c-0.3,0.6-1,1.9-1.3,2.5c-2.4,0.7-1.8-2.3-2.3-3.8C-83.3,379.5-86.5,382.5-84.5,385.5 M-74.9,389.5
	c0.4,1.7,0.2,3.6,1.1,5.1c6.2,6.5,16.1,8.2,24.5,5.9c3.3-1.3,7.1-2.9,8.5-6.4C-51.9,391.3-63.4,390.6-74.9,389.5z"/>
<path class="st0" d="M-55.8,356.2c9.2-3.2,19-4.9,28.7-5.2c-3.2,11.2-6.7,22.4-9,33.8c-0.7,3.6-1.5,7.5-0.1,11.1
	c1.9,5.7,2.9,11.7,3.9,17.7c-1.3,1.6-2.6,3.3-3.9,4.9c-8.9-1.5-17.6-4.5-26.7-3.9c-1.6,9.7-2.1,20.1,2,29.3
	c-12.7-6.6-24.5-16.6-30.2-30c-4.8-11.2-2.4-24.2,3.9-34.3C-80.4,368-68.4,360.5-55.8,356.2 M-84.5,385.5c2.4,1.6,5.6,1.7,8.4,2.2
	c11.9,1.4,23.7,3,35.4,5.1c-0.5-0.6-1.5-1.8-2-2.3c-8.4-2-17.3-3-25.1-6.8c-2.2-0.9-3.2-3.2-4.4-5c-0.2,0.8-0.7,2.4-0.9,3.2
	c-1.6-1.2-3.3-2.4-5-3.5c-0.3,0.6-1,1.9-1.3,2.5c-2.4,0.7-1.8-2.3-2.3-3.8C-83.3,379.5-86.5,382.5-84.5,385.5 M-74.9,389.5
	c0.4,1.7,0.2,3.6,1.1,5.1c6.2,6.5,16.1,8.2,24.5,5.9c3.3-1.3,7.1-2.9,8.5-6.4C-51.9,391.3-63.4,390.6-74.9,389.5z"/>
</svg>
