<?xml version="1.0" encoding="utf-8"?>
<!-- Generator: Adobe Illustrator 19.0.0, SVG Export Plug-In . SVG Version: 6.00 Build 0)  -->
<svg version="1.1" id="Layer_1" xmlns="http://www.w3.org/2000/svg" xmlns:xlink="http://www.w3.org/1999/xlink" x="0px" y="0px"
	 viewBox="747.4 -16.3 933.6 448.6" style="enable-background:new 747.4 -16.3 933.6 448.6;" xml:space="preserve">
<style type="text/css">
	.st0{fill:#124888;}
	.st1{fill:#1D1D1B;}
</style>
<path class="st0" d="M1356-15.7c-7.4,0.4-16.2,0.9-19.5,1c-7,0.2-5.7,0.8,8.5,3.5c13.6,2.5,30.5,8.4,43.6,15
	c14,7.1,20.9,11.9,34.9,24c5.5,4.8,12.7,10.6,16,12.8c12.6,8.6,32.2,14.7,53.5,16.7c14.4,1.3,188,1.4,188,0.1
	c0-2-13.3-17.2-24.1-27.6c-22.8-22-46.7-35.7-75.4-43.3l-10-2.6l-101-0.2C1415-16.3,1363.4-16.1,1356-15.7z"/>
<path class="st1" d="M1285.5,84.4c-72.6,7-143.9,49.8-200.6,120.3c-3.8,4.8-6.9,9-6.9,9.4c0,0.7,98.7,0.6,255.5-0.1
	c58-0.3,69.8-0.6,80-2.1c33.8-4.8,60.4-13.9,82.2-28.2c9.7-6.2,14.9-10.4,29.8-23.9c14.7-13.3,22.6-19.4,36-27.7
	c29.2-18.3,64.9-33,105.9-43.6c12.9-3.3,14.5-4,11.7-4.5C1674.1,83,1296,83.4,1285.5,84.4z"/>
<path class="st1" d="M1205.5,239.4c-81.3,2.2-124.7,10.6-169,32.6c-23.9,11.8-43.4,26-71.7,52.2c-48.1,44.4-109.9,75.8-197.3,100.2
	c-9.9,2.8-18.9,5.4-20,5.8c-3.9,1.5,80.2,2.1,322.1,2.1c163.3,0,250.7-0.4,257.5-1c67.7-6.8,132.1-32.9,193.4-78.5
	c35.1-26,72.9-62.9,102.6-100.1l10.2-12.9l-67.9-0.6C1470.5,238.3,1239.2,238.5,1205.5,239.4z"/>
</svg>
