<?xml version="1.0" encoding="utf-8"?>
<!-- Generator: Adobe Illustrator 19.0.0, SVG Export Plug-In . SVG Version: 6.00 Build 0)  -->
<svg version="1.1" id="Layer_1" xmlns="http://www.w3.org/2000/svg" xmlns:xlink="http://www.w3.org/1999/xlink" x="0px" y="0px"
	 viewBox="-36.389 218.94 298.719 403.881" style="enable-background:new -36.389 218.94 298.719 403.881;" xml:space="preserve">
<style type="text/css">
	.st0{fill:#FFFFFF;}
	.st1{fill:#D8521D;}
	.st2{fill:#913713;}
	.st3{fill:#404041;}
	.st4{fill:#EA591F;}
	.st5{fill:#F28F1C;}
	.st6{fill:#FC941D;}
	.st7{fill:#F6BB69;}
	.st8{fill:#F68978;}
	.st9{fill:#F7B85E;}
	.st10{fill:#FDC057;}
	.st11{fill:#F99C34;}
	.st12{fill:#915611;}
	.st13{fill:#DC531E;}
	.st14{fill:#F3901C;}
	.st15{fill:#9F5E12;}
	.st16{fill:#FEFEFE;}
	.st17{fill:#CD4F1D;}
	.st18{fill:#FDFDFD;}
	.st19{fill:#201F1F;}
	.st20{fill:#E4571F;}
	.st21{fill:#DBDCDD;}
	.st22{fill:#202529;}
	.st23{fill:#763A22;}
	.st24{fill:#F2F2F2;}
	.st25{fill:#2A2C2D;}
	.st26{fill:#0D0E13;}
	.st27{fill:#E6E7E7;}
	.st28{fill:#6E3722;}
	.st29{fill:#E0E1E2;}
	.st30{fill:#DFE0E0;}
	.st31{fill:#EAEAEB;}
	.st32{fill:#DB531D;}
	.st33{fill:#E5E5E6;}
	.st34{fill:#E3E4E5;}
	.st35{fill:#F1F1F1;}
</style>
<g id="_x23_ffffffff">
	<path class="st0" d="M1.47,292.47c1.58-0.4,3.16-0.79,4.73-1.21c-0.42,4.16-1.2,8.27-2.01,12.37
		C1.55,300.5,0.66,296.45,1.47,292.47z"/>
	<path class="st0" d="M-17.76,299.09c5.91-2.17,12-3.82,17.85-6.19c-1.42,0.91-2.46,2.28-3.24,3.75
		c-3.14,6.11-6.25,12.38-7.38,19.22c-1.66,8.83-1.06,18.72,4.11,26.34c-4.21,5.38-8.67,10.71-11.44,17.02
		C-17.44,339.19-17.93,319.14-17.76,299.09z"/>
	<path class="st0" d="M234.13,295.28c3.13,1.15,6.3,2.22,9.47,3.26c-0.01,18.62-0.62,37.25-0.86,55.87
		c-5.61,2.56-11.44,4.6-17.13,6.96c-2.57-9.39-6.37-18.71-12.75-26.18c3.49,1.08,7.01,2.45,9.66,5.06c3.7,3.16,5.91,7.57,9.12,11.15
		c0.03-13.09-6.35-25.64-16.21-34.08c0.04-0.22,0.1-0.66,0.13-0.88c8.83,2.79,17.02,8.57,21.2,17.01c0.83,1.68,2.03,3.13,3.29,4.51
		c1.61-15.13-8.55-29.5-22.21-35.27c4.85,0.22,9.85,0.63,14.27,2.83c3.27,1.46,5.65,4.21,8.32,6.5
		C239.41,306.08,236.99,300.54,234.13,295.28z"/>
	<path class="st0" d="M79.49,341.98c1.56-6.07,8.35-7.62,13.81-6.95c-0.91,0.65-1.84,1.27-2.77,1.87c1.4,0.61,4.48,0.27,4.23,2.55
		c-1.46,1.64-3.1,3.1-4.56,4.74c3.28-0.41,5.64-2.65,7.55-5.13c1.44,2.86-2.26,4.1-4.17,5.2C89.14,346.3,82.32,346.74,79.49,341.98z
		"/>
	<path class="st0" d="M10.4,347.63c4.73-1.49,9.79-0.26,13.19,3.36c-1.84,1.43-3.55,3.02-5.41,4.42
		C14.07,355.19,10.15,352.02,10.4,347.63z"/>
	<path class="st0" d="M-17.98,376.66c1.17-5.09,5.66-9.17,10.9-9.64c-1.78,4.43-4.21,8.99-3.2,13.94
		c1.12,8.04,0.48,16.34-2.57,23.91c3.26-1.47,6.37-3.23,9.34-5.2c1.36,2.96,3.11,5.73,5.3,8.15c-1.54,2.79-2.53,5.87-2.28,9.09
		c-0.5,11.42,6.42,21.79,5.03,33.26c-3.75,0.93-7.24,2.61-10.81,4.08C-15.23,429.43-17.67,402.86-17.98,376.66z"/>
	<path class="st0" d="M28.46,380.34c3.26-1.67,7.11-1.09,10.53-0.25c0.25,0.33,0.74,0.97,0.98,1.3c-3.31,0.08-6.62-0.02-9.93-0.09
		C29.33,381.32,28.8,381,28.46,380.34z"/>
	<path class="st0" d="M34.07,409.15c1.76-1.97-1.37-5.72,1.71-6.58c4.5-0.06,5.71,6.21,3.8,9.5c-1.56-1.41-2.88-3.07-4.08-4.78
		c-0.25,1.47,1.06,4.66-1.51,4.77c-2.11-0.76-2.99-3.31-3.81-5.21c0.76-1.06,1.75-1.91,2.69-2.79
		C32.73,405.9,31.82,408.13,34.07,409.15z"/>
	<path class="st0" d="M40.81,402.8c5.26-2.09,6.42,6.44,3.46,9.2C42.88,409.18,39.05,406.2,40.81,402.8z"/>
	<path class="st0" d="M46.65,403.8c1.19-1.46,3.15-1.22,4.82-1.49c0.06,1.91,0.05,3.88,0.9,5.65c-0.61,1.36-1.32,2.68-2.17,3.91
		C48.96,409.24,46.05,406.94,46.65,403.8z"/>
	<path class="st0" d="M52.03,402.1c1.6,0.47,3.21,0.96,4.8,1.47c-0.02,2.74,0.04,5.56-1.24,8.07
		C53.44,408.9,51.67,405.72,52.03,402.1z"/>
	<path class="st0" d="M57.2,403.56c2.04,0.48,4.1,0.92,6.16,1.31c-0.69,2.29-1.46,4.56-2.37,6.78
		C58.93,409.45,56.96,406.73,57.2,403.56z"/>
	<path class="st0" d="M63.56,405.35c4.21,0.06,8.27,1.48,12.5,1.28c-0.87,3.39-2.08,6.8-1.72,10.37c0.09,4,1.72,7.72,3.15,11.38
		C69.55,423.56,63.42,414.93,63.56,405.35z"/>
	<path class="st0" d="M20.25,413.45c2.91-1.78,5.88-3.45,8.75-5.3c0.33,0.68,0.99,2.04,1.32,2.71c-2.28,5.44-1.37,11.21-0.23,16.77
		C25.45,424.03,22.9,418.54,20.25,413.45z"/>
	<path class="st0" d="M12.8,434.71c1.47,3.49,2.22,7.25,2.13,11.05c-2.05,0.75-4.07,1.56-6.06,2.46l-1.74,0.65
		C10.1,444.62,12.22,439.9,12.8,434.71z"/>
	<path class="st0" d="M46.39,441.97c2.56,2.72,4.81,6.03,8.53,7.27l-0.15-2.23l0.82,0.18c0.26,0.06,0.78,0.17,1.04,0.22
		c0.3,0.65,0.91,1.95,1.22,2.6c-2.02,0.35-2.69,1.68-2.02,4c0.62-0.31,1.86-0.93,2.48-1.24c0.01-2.79,0.3-5.57,1.51-8.12l1.19,1.09
		c0.32,0.3,0.94,0.92,1.25,1.22c1.6,1.5,1.79,3.82,2.2,5.84c-1.9,0.35-3.82,0.57-5.75,0.66c-1.68,0.61-3.43,1.01-5.15,1.47
		c0.09-1.48,0.13-2.97,0.12-4.45c-0.82,2.38-0.54,6.35-4.09,6.06C45.89,452.6,46.01,446.99,46.39,441.97z"/>
	<path class="st0" d="M83.64,456.25c0.14-4.66-1.21-10.64,2.35-14.19c0.47,5.36,2.56,10.68,6.37,14.55c2.18,2.32,5.21,3.54,7.69,5.5
		C94.27,461.49,88.73,459.01,83.64,456.25z"/>
	<path class="st0" d="M64.71,444.56c3.01,1.44,5.11,5.29,4.48,8.58c-1.35,0.1-2.68-0.01-4.01-0.35
		C64.16,450.15,64.31,447.3,64.71,444.56z"/>
	<path class="st0" d="M103.65,445.01c2.52,0.67,3.81,3.05,5.39,4.89c-1.04,2.33-1.06,5.54-3.3,7.03
		C104.75,453.01,103.9,449.05,103.65,445.01z"/>
	<path class="st0" d="M74.59,454.34c0.5-2.25,0.98-4.54,2.18-6.54c2.47,2.6,5,5.23,6.57,8.5C80.38,455.86,77.48,455.13,74.59,454.34
		z"/>
	<path class="st0" d="M91.04,506.42c9.03-1.3,18.02-2.83,26.97-4.63c5.75-1.49,10.79,2.62,16.15,3.96
		c1.68,12.08,3.85,24.1,5.64,36.17c0.77,2.49-1.48,4.18-2.74,5.98c-1.96,2.35-3.32,5.15-5.39,7.4c-10.53,2.27-21.22,3.84-31.76,6.07
		c-4.11-2.68-8.6-4.74-12.66-7.48c-1.45-2.23-1.71-5.02-2.52-7.51c-2.9-10.23-5.75-20.47-8.62-30.71
		C80.63,512.03,84.87,506.9,91.04,506.42 M101.62,515.29c-2.06,0-4.05,0.63-6.04,1.09c3.04,9.8,4.75,19.97,7.68,29.79l-0.49,0.19
		c6.48-0.81,12.85-2.28,19.28-3.4c-0.7-5.17-2.47-10.19-2.56-15.42c-1.78-4.85-2.14-10.06-3.3-15.07
		C111.34,513.43,106.4,513.99,101.62,515.29 M120.92,523.71c0.54,3.64,1.07,7.33,2.32,10.82c-0.32,3.39,1.35,6.81,0.48,10.13
		c-2.11,1.23-4.61,1.46-6.97,1.86c-5.52,0.67-11.02,2.1-16.61,1.41c-0.89-2.91-1.68-5.84-2.31-8.8l-0.51,0.03
		c-0.69-3.62-1.36-7.24-1.98-10.87c-4.11,0.41-8.16,1.28-12.23,2c0.49,3.57,1.55,7.02,2.66,10.45c0.57,4.13,1.58,8.23,3.56,11.92
		c4.92,0.53,9.73-0.91,14.62-1.08c9.02-1.35,18.15-1.88,27.14-3.45c2.94-0.25,4.29-3.09,5.82-5.19c-0.48-2.53-0.81-5.08-1.13-7.63
		l-0.47-0.03c-0.48-4.47-1.09-8.93-1.62-13.39C129.36,521.85,125.14,522.86,120.92,523.71z"/>
	<path class="st0" d="M219.07,515.93c4.36-1.03,8.74-2.03,13.18-2.7c-0.29,2.28-0.47,4.58-0.61,6.88c-5.91,1.11-11.75,2.6-17.7,3.45
		C215.87,521.17,217.47,518.54,219.07,515.93z"/>
</g>
<g id="_x23_000000ff">
	<path d="M97.79,224.8c6.27-2.44,12.56-5.49,19.38-5.86c-3.5,3.15-7.77,6.02-9.32,10.72c-0.65,2.67-1.66,5.45-1.06,8.22
		c1.6,4.85,3.8,9.78,8.22,12.68c2.86-5.16,7.08-9.31,11.26-13.4c9.24-9.36,22.7-15.01,35.95-12.87c-5.29,3.91-9.91,9.13-11.79,15.54
		c-1.27,4.5-2.59,9.34-0.74,13.89c7.14-7.52,17.16-11.35,26.98-13.95c6.63-1.01,13.58-1.05,20.1,0.71
		c-0.01,0.19-0.04,0.57-0.05,0.77c-6.02,6.3-9.29,15.27-8.49,23.98c4.09-2.29,7.73-6.05,12.72-6.12c6.43-0.34,14.5,1.33,17.64,7.61
		c-2.31,0.5-4.59,1.26-6.55,2.62c-1.14,1.49-2.2,3.07-2.8,4.86c0.82,1.67,3.14,1.36,4.63,2.05c4.93,1.06,9.2,3.99,12.63,7.6
		c3.13,3.38,5.57,7.33,7.63,11.43c2.86,5.26,5.28,10.8,6.3,16.74c-2.67-2.29-5.05-5.04-8.32-6.5c-4.42-2.2-9.42-2.61-14.27-2.83
		c13.66,5.77,23.82,20.14,22.21,35.27c-1.26-1.38-2.46-2.83-3.29-4.51c-4.18-8.44-12.37-14.22-21.2-17.01
		c-0.03,0.22-0.09,0.66-0.13,0.88c9.86,8.44,16.24,20.99,16.21,34.08c-3.21-3.58-5.42-7.99-9.12-11.15
		c-2.65-2.61-6.17-3.98-9.66-5.06c6.38,7.47,10.18,16.79,12.75,26.18c2.01,6.63,2.37,13.6,2.4,20.49c-0.17,4.2-0.45,8.71-3.07,12.2
		c-1.49-4.09-1.6-8.97-4.88-12.18c-2.72-3.03-6.45-4.85-10.27-6.08c6.58,9.72,8.95,21.56,9.89,33.08c0.06,6,0.79,12.3-1.59,17.98
		c-2.1-3.6-2.54-7.95-5.11-11.31c0.47,4.32,2.1,8.41,2.57,12.73c0.13,8.28,0.32,16.76-2.21,24.75c-2,7.4-5.98,14.32-5.99,22.17
		c-1.29-1.04-2.37-2.37-2.6-4.05c-0.87-5.03-0.03-10.33-1.87-15.18c-2.56-6.36-6.13-12.47-11.37-17c3.68,14.6,4.37,30.2-0.38,44.64
		c-3.83,0.95-7.61,2.1-11.47,2.93c-1.58-2.99-3.43-5.91-6.23-7.9c0.27,3.06,0.67,6.1,1.11,9.14c-1.76,0.33-3.53,0.57-5.28,0.94
		c-0.65-6.17-2.03-12.23-2.93-18.36c3.63,0.72,7.4,1.52,10.46,3.75c2.84,2.08,5.14,4.8,7.91,6.98c4.59-11.46,4.36-23.98,3.52-36.08
		c-0.31-4.66-2.06-9.02-3.44-13.43c7.73-0.56,13.95,5.45,18.74,10.78c1.3,1.01,2.03,3.68,3.91,3.33c1.88-14.8,0.83-31.17-8.49-43.47
		c5.65-0.13,10.33,3.13,14.97,5.87c-0.57-13.84-5.56-27.95-15.64-37.73c7.8-2.11,15.93,0.12,23.15,3.18
		c-1.66-10.51-4.41-21.02-9.74-30.3c-3.22-5.69-8.86-9.28-13.59-13.59c4.18-0.67,8.47-1.47,12.68-0.63c3.7,0.71,7.28,1.95,10.93,2.9
		c-4.22-7.95-11.7-13.34-18.94-18.34c8.55-2.67,17.49-0.39,25.68,2.4c-5.91-6.38-13.97-9.82-21.58-13.64
		c6.83-4.59,15.4-4.86,23.19-3.03c-2.66-4.35-5.42-8.77-9.21-12.23c-5.9-4.76-13.67-7.97-21.31-6.15c0.35-2.76,0.74-5.51,0.87-8.28
		c-1.32,2.52-2.45,5.13-3.89,7.59c-1.45-5.98,1.98-12.04,7.31-14.75c-0.16,0.97-0.5,2.91-0.66,3.88c2.44-1.55,4.77-3.29,6.77-5.4
		c-8.85-0.87-18.32,3.18-22.86,10.99c-0.73,0.96-1.15,2.31-2.34,2.8c-3.49-5.55-5.2-12.34-3.98-18.85
		c0.97-5.74,4.41-10.56,7.06-15.6c-5.39,2.72-11.62,2.71-17.08,5.24c-10.42,4.35-19.96,11.29-26.69,20.41
		c-1.59-5.2-2.08-10.66-2.31-16.07c-0.06-7.04,3.29-13.42,5.24-20.02c-4.41,2.08-8.62,4.61-12.43,7.67
		c-3.47,2.81-7.37,5.21-10.1,8.82c-2.89,3.76-4.48,8.27-6.22,12.62c-4.67-4.44-9.9-8.45-13.5-13.87c-3.8-5.95-3.87-13.35-2.54-20.07
		c-5.64,2.57-10.88,6.61-13.74,12.22c-2.21,4.03-3.05,8.69-5.63,12.53c-2.8,4.36-6.25,8.42-10.63,11.26
		c-4.93,3.26-10.34,6.26-13.73,11.28c-4.29,6.81-5.95,14.81-8.09,22.47c4.24-2.37,8.66-4.85,11.55-8.88
		c4.84-6.5,11.5-12.26,13.16-20.54c1.72,2.71,2.37,5.87,3.08,8.96c5.3-6.43,10.78-13.53,18.8-16.61c0.58,0.94,1.15,1.87,1.73,2.81
		c-1.34,4.1-2.05,8.36-2.32,12.66c-0.56-0.01-1.7-0.04-2.26-0.05c0.18,1.27,0.36,2.54,0.54,3.81c-1.95-2.58-3.63-5.35-5.07-8.24
		c-2.47,4.6-4.85,9.37-8.69,13.01c-2.75,2.98-5.51,6.16-9.57,7.32c-0.17-0.53-0.49-1.59-0.66-2.13c-0.84,0.63-1.68,1.26-2.52,1.89
		c-0.47-0.41-1.41-1.24-1.88-1.66c-1.82,3.22-3.54,6.53-4.46,10.14c8.16-5.64,18.12-9.21,28.12-7.47c2.33-2.96,4.55-6.12,7.61-8.38
		c3.74-2.79,8.75-2.86,12.56-5.51c2.1-1.68,3.29-4.16,4.84-6.3c0.16,3.06,0.94,7.06-2.04,9.08c-6.67,4.43-15.4,6.63-19.66,14
		c4.12-1.85,8.23-3.87,12.71-4.64c4.65-1.18,9.42-0.15,14.08,0.39c2.56-2.86,5.19-5.9,5.91-9.8c-2.55,2.11-4.58,4.85-7.39,6.64
		c-4.01-0.32-8.05-0.54-12.02,0.34c3.01-2.4,6.87-2.78,10.57-3.13c3.37-0.21,5.65-3.04,8.14-4.98c0.61-0.01,1.83-0.03,2.44-0.04
		c0.95-0.92,1.9-1.83,2.86-2.75c-2.7,4.58-3.06,9.97-3.05,15.16c1.8-1.17,2.01-3.42,2.69-5.26c8.63-0.62,16.1-5.61,24.04-8.58
		c-5.39,5.02-12.04,8.35-18.79,11.12c1.58,0.27,3.27,0.51,4.78-0.19c5.86-2.26,10.81-6.39,16.85-8.24
		c-2.21,2.16-4.22,4.53-6.55,6.57c-2.73,2.01-6.23,2.87-8.51,5.52c9.68,0,19.46-0.37,28.96-2.38c4.16-0.87,7.12-4.17,9.16-7.7
		c5.36,5.74,9.88,12.51,12,20.12c1.53,8.22-3.82,15.43-9.33,20.85c3.31-0.71,5.76-3.11,8.59-4.78c-1.95,2.67-5.3,4.07-6.99,6.88
		c0.1,2.38,2.8,3.69,4.25,5.34c-1.57,0.12-3.14,0.25-4.7,0.39c1.59,4.23,5.33,6.92,8.15,10.27c2.55,2.97,3.85,6.72,5.32,10.28
		c-1.67-0.9-3.37-1.72-5.1-2.48c2.81,4.73,3.8,10.17,5.38,15.37c-1.22-0.76-2.45-1.52-3.68-2.26c1.18,4.13,2.84,8.09,4.05,12.2
		c1.59,5.32,1.1,10.95,1.14,16.42c-1.65-2.19-3.31-4.37-5.02-6.52c0.73,3.16,1.53,6.3,2.36,9.44c-1.28-0.72-2.54-1.43-3.81-2.13
		c2.4,5.54,5.03,10.97,6.91,16.72c-1.52-1.98-3.31-3.73-5.35-5.17c1.28,6.16,3.5,12.06,5.14,18.12c-1.33-1.96-2.9-3.76-4.83-5.17
		c0.06,2.42,0.19,4.83,0.34,7.25c-1.85-0.62-3.67-1.41-5.61-1.68c-1.92,1.08-1.63,3.86-2.17,5.77c-2.18-1.38-4.44-2.62-6.79-3.67
		c1.42,5.19,4.15,10.07,4.4,15.54c0.22,4.7-0.19,9.51-1.73,13.98c-0.33,1.64-1.55,2.53-3.2,2.55c-0.65,3.55-1.82,7.01-4.05,9.9
		c-0.41-2.55-0.97-5.1-2.48-7.24c-5.76,6.65-11.96,13.86-20.95,15.9c-0.05-0.99-0.16-2.97-0.21-3.96c-2.74,1.57-2.83,5.54-5.42,6.93
		c1.82-7.58,3.51-15.25,3.94-23.07c0.02-1.68-1-3.14-1.62-4.63c-3.71,5.45-0.23,12.79-3.93,18.24c-1.19-5.6,0.2-11.3-0.45-16.94
		c-1.08,0.82-2.1,1.83-2,3.32c-0.41,5.01,0.28,10.03,0.03,15.05c-0.06,7.22-2.63,14.21-6.24,20.39c-2.28,4.01-6.13,6.68-9.56,9.62
		c-4.58-1.92-9.6-0.96-14.32-0.23c-0.46-0.67-1.39-1.99-1.85-2.65c2.44,0.22,5.12,1.29,7.44,0.02c5.67-3.03,11.47-6.84,14.4-12.78
		c3.22-6.63,3.21-14.19,3.21-21.39c-0.27-7.37-0.46-14.77-1.67-22.06c-0.67-6.3-2.26-12.58-1.59-18.96
		c0.79-7.96,3.3-16.42,9.99-21.43c-1.21-0.78-2.4-1.56-3.58-2.37c3.69,1.4,7.65,2.73,10.29,5.85c-1.91-0.83-3.74-1.83-5.56-2.82
		c-0.36,6.27-3.01,12.52-0.99,18.76c-0.75-0.09-2.25-0.27-2.99-0.37c0.34,2.05,0.69,4.1,1.05,6.15c0.89-0.35,2.69-1.05,3.59-1.4
		c-0.59,4.32,0.33,9.61,4.81,11.5c5.5,2.36,8.94,7.58,11.29,12.85c1.99,4.31,1.33,9.17,1.54,13.77c3.35-3.32,6.18-7.22,8.03-11.57
		c1.21-3.6,0.78-7.46,0.81-11.19c3.17,1.08,6.1,2.69,8.92,4.48c-0.49-7.86-2.74-15.57-6.49-22.49c-1.55-2.89-3.74-5.4-5.16-8.37
		c1.07-0.94,2.26-1.95,3.77-1.99c4.58-0.46,9.2-0.14,13.8-0.1c-3.97-8.8-11.23-15.31-17.55-22.35c6.76-1.66,13.4,0.42,19.63,2.92
		c-4.25-9.64-12.63-16.4-19.53-24.06c7.92-1.98,15.64,1.36,22.46,5.06c-4.01-9.96-12.56-16.81-20.37-23.69
		c5.04-1.95,10.39-0.82,15.55-0.15c-7.29-11.28-19.63-17.59-31.34-23.3c-0.18-0.6-0.55-1.81-0.73-2.42
		c-1.69,0.71-3.38,1.42-5.07,2.12c4.91,4.84,10.93,9.04,13.66,15.61c-5.22-2.56-9.63-6.71-15.4-8.13c3.37,3.72,6.56,7.63,9.17,11.94
		c-4.28-0.55-8.7-2.33-12.99-0.91c-2.12,0.6-4.19,1.36-6.31,1.98c1.28-2.99,4.2-4.62,6.4-6.83c-1.83-1.54-3.87-2.8-5.85-4.13
		c0.89-0.19,2.68-0.55,3.57-0.73c-2.2-3.9-6.65-4.96-10.16-7.24c4-0.49,8.03-0.43,12.05-0.57c-2.57-3.04-5.89-5.26-8.97-7.72
		c4.98,0.74,9.3,3.42,13.44,6.11c2.59-1.68,5.55-2.75,7.94-4.76c-4.88-0.43-10.46,0.4-14.47-3.05c2.9-0.42,5.81-0.86,8.64-1.67
		c-3.96-1.35-8.35-0.59-12.2-2.35c-5.28-2.51-11.85-1.29-16.44-5.32c3.81,0.39,7.64,0.85,11.48,0.49c-2.88-1.8-6.91-2.45-8.35-5.9
		c3.82,1.2,7.78,2.06,11.81,1.44c-1.9-1.35-3.87-2.57-5.75-3.94c14.97,2.01,30.25,0.72,44.89-2.77c1.51-0.53,2.92-1.29,4.35-2
		c3.36,4.65,3.61,11.45,1.11,16.53c-0.6-3.58-1.45-7.15-3.21-10.35c-11.69,6.57-25.19,9.43-38.44,10.67
		c1.02,0.5,2.08,1.06,3.26,0.97c6.12,0.11,12.17-1.18,18.29-1.19c-2.96,3-7.21,3.84-10.67,6.05c4.62,0.14,9.04-1.25,13.46-2.35
		c-2.12,3.49-5.03,6.52-8.84,8.15c4.86,1.85,10.09,0.28,14.99-0.6c10.3-1.4,16.24-13.29,14.05-22.84c-0.62-2.31-1-5.55-3.32-6.69
		c-11.89,3.54-24.4,6.19-36.87,4.73c-4.85-0.26-9.79-2.23-14.57-0.5c-6.9,2.24-13.02,6.28-19.48,9.5c1.12-3.36,3.45-6.03,5.68-8.7
		c-1.13-0.25-3.39-0.73-4.52-0.98c0.15,0.92,0.33,1.85,0.47,2.77c-3.13-1.08-6.48-0.46-9.72-0.6c2.46-1.69,5.02-3.7,8.17-3.71
		c2.75-0.06,5.52,0.13,8.26-0.21c-3.64-1.73-7.88-1.78-11.74-0.81c-4.05,1.07-6.96,4.29-10.6,6.17c-5.32,2.75-11.3,3.63-17.03,5.13
		c-2.98,0.82-6.03,1.36-9.12,1.47c5.37-4.33,12.88-5.88,17.07-11.63c-6.81-0.52-12.81,3.3-18.58,6.35
		c-5.11,2.63-7.46,8.09-10.24,12.78c-2.21-4.97-2.19-10.44-1.59-15.74c-4.43,1.41-8.5,4.16-10.99,8.14
		c-1.18,1.64-1.93,3.83-4.03,4.55c1.2-3.5,2.71-6.89,3.54-10.5c-2.81-1.31-5.21-3.27-7.4-5.42c-1.74,3.67-2.31,8.17-5.59,10.9
		c-1.76,1.52-3.71,2.8-5.59,4.17c0.87,0.19,2.61,0.57,3.47,0.76c-5.78,3.75-12.51,6.82-16.21,12.93c3.77,1.11,7.78,2.13,10.8,4.82
		c2.44,2.06,3.37,5.23,5.2,7.74c1.3,1.39,2.92,2.42,4.38,3.63c-1.43-0.23-2.89-0.34-4.25-0.83c-4.81-1.92-5.69-8.53-10.86-9.87
		c-4.3-1.07-8.62-2.09-12.63-4.04c0.8,2.32,1.69,4.6,2.6,6.88c-3.67-0.4-6.9-2.21-10.16-3.81c0.94,2.78,2.11,5.7,4.67,7.38
		c5.72,4.27,13.71,1.34,19.58,5.22c3.63,2.46,6.58,5.79,10.29,8.17c-5.9,3.22-10.81,7.99-14.76,13.37
		c-2.05,2.65-2.56,6.01-3.07,9.22c-5.49,4.28-9.71,10.17-11.64,16.89c2.16-0.01,4-1.06,5.5-2.54c2.45-0.29,5.18,1.93,2.56,3.99
		c-2.76,0.4-5.56,0.65-8.21,1.59c0.24,1.8,0.5,3.6,0.78,5.39c5.05-1.23,10.43-2.69,14.15-6.55c0.54,0.06,1.62,0.18,2.17,0.23
		c-0.21,0.85-0.62,2.55-0.82,3.4c-1.72,0.49-3.43,0.99-5.14,1.47c0.36,1.29,0.72,2.6,1.06,3.9c-2.4,0.71-4.81,1.38-7.21,2.08
		c3.35,3.99,9.17,5.94,14.23,4.63c6.05-2.79,11.74-7.74,13.14-14.54c-3.56-1.13-7.39-1.91-10.39-4.26
		c-1.55-1.54-2.12-3.77-3.57-5.38c-1.5-1.07-3.44-1.08-5.17-1.49c-0.69-2.33-1.74-4.9-0.62-7.28c1.01-1.9,2.96-3.01,4.56-4.37
		c-0.22-0.44-0.66-1.32-0.88-1.76c4.04-2.72,7.91-5.71,11.29-9.24c-1.16,4.59-3.61,8.68-5.24,13.09c1.48,1.82,3.98,2.47,5.96,3.66
		c4.51-2.27,9.38-3.62,14.28-4.72c0.19-3.79-0.1-8.04,2.8-10.98c0.14,2.47,0.23,4.95,0.43,7.42c2.87-6.3,3.82-14.3,10.13-18.33
		c-1.39,4.94-5.73,10.05-2.8,15.25c-0.19,0.39-0.57,1.19-0.76,1.59c1.05,1.43,2.08,2.87,3.11,4.33c-0.41,0.36-1.23,1.09-1.65,1.45
		c0.18,2.98,0.45,5.97,0.93,8.92c-0.17,0.07-0.51,0.2-0.68,0.26c-0.61-2.78-1.28-5.55-2.07-8.29c-1.66,2.81-0.4,6.05-0.05,9.04
		c-2.05,0.21-4.25-0.06-6.11,0.97c-0.52,1.2-0.86,2.47-1.24,3.73c-1.39,1.3-2.79,2.59-4.2,3.87c2.91-0.09,5.84,0.04,8.65,0.85
		c-0.06,0.75-0.17,2.26-0.23,3.01c6.97,2.53,14.21,4.27,21.52,5.45c3.43,1.47,7.19,1.78,10.86,1.17c5.5-0.88,11.25-1.06,16.39-3.42
		c3.61-1.65,6.4-4.62,8.69-7.78c-5.7,1.07-9.32,6.67-15.23,7.42c2.43-3.73,7.31-5.34,8.34-10.05c-9.66-0.8-19.35-1.36-29.04-1.32
		c-0.53,0.56-1.58,1.69-2.1,2.25c-0.93-1-3.25-1.5-2.6-3.26c0.78-0.81,1.65-1.52,2.5-2.24c0.68,0.79,1.36,1.59,2.04,2.4
		c9.59-0.56,19.22-0.5,28.78,0.63c-0.15-0.8-0.45-2.41-0.6-3.21c-0.21-1.1-0.42-2.19-0.62-3.28c0.93,0.02,2.79,0.05,3.72,0.07
		c-0.08-0.37-0.23-1.11-0.31-1.48c-2.02-4.3-7.15-3.14-10.92-2.73c-6.7,1.2-13.65,1.54-20,4.2c-0.86-0.97-1.72-1.95-2.57-2.92
		c1.27-1.29,2.74-2.36,4.32-3.24c0.53,0.5,1.58,1.52,2.1,2.03c6.4-1.21,12.88-1.79,19.35-2.44c-6.7-6.66-17.08-5.5-25.67-7.18
		c11.76-3.2,24.4,0.59,34.13,7.46c-0.86-3.86-4.67-5.6-7.85-7.23c-5.15-2.66-11.04-2.78-16.69-3.24
		c-5.14-0.45-10.09,1.33-15.18,1.61c10.11-5.33,22-4.06,32.66-7.51c4.33-0.81,7.77-3.73,11.7-5.52c-1.92,2.96-4.81,5.07-7.12,7.71
		c3.17-0.44,6.28-1.21,9.35-2.09c-1.08,1.49-2.21,2.95-3.38,4.38c1.8,1.42,3.77,2.59,5.63,3.94c-0.38,1.05-1.07,1.95-1.66,2.9
		c0.55,1.32,1.11,2.63,1.68,3.95c3,0.14,5.99,0.33,8.97,0.58c-1.71-1.88-3.76-3.8-3.79-6.55c-0.33-5.35,3.2-9.92,4.19-15.03
		c0.62-2.08,0.26-4.63,2.02-6.21c-0.03,8.01,2.04,15.98,6.78,22.52c-1.08-0.48-2.17-0.96-3.24-1.43c0.39,2.32,0.81,4.64,1.25,6.96
		c2.98,0.01,5.97,0.09,8.92,0.62c4.54,0.94,9.21,0.13,13.76,1.09c-0.76-0.76-1.52-1.52-2.28-2.28c0.27-1.56,0.55-3.12,0.83-4.67
		c-1.35-0.28-2.71-0.51-4.05-0.81l1.8-0.38c-2.1-3.69-6.21-5.63-7.98-9.54c7.04,3.58,12.41,9.53,17.22,15.65
		c2.53,3.29,4.34,7.07,5.7,10.98c-3.73-1.62-7.38-5.54-11.58-4.7c-0.06,0.24-0.18,0.71-0.24,0.95c1.83,3.6,3.62,7.23,4.84,11.1
		c-2.42-4.37-4.51-8.96-7.7-12.84c1.39-0.25,2.77-0.53,4.14-0.86c-7.36-2.36-15.1-2.86-22.75-3.49c0.54,2.54,0.72,5.21,1.78,7.61
		c3.77,1.67,7.94,1.93,11.98,2.45c0.05-0.42,0.15-1.25,0.2-1.67c2.03,1.74,5.22,2.33,6.54,4.73c-6.18-1.64-12.47-3.34-18.9-3.31
		c-0.23,0.6-0.7,1.81-0.94,2.41c-0.79-1.15-1.59-2.29-2.39-3.43c-1.05,7.62-0.12,16.92-6.33,22.59c-0.56-4.8,0.2-9.62,0-14.42
		c-0.97-3.35-2.92-6.3-4.4-9.43c-0.72,5.14-2.46,10.12-2.54,15.35c-0.3,5.97-1.08,12.16,0.89,17.94c2.08,6.32,4.52,12.91,3.49,19.68
		c-0.43,3.96-4.19,6.39-5.06,10.2c-1.59,4.9-0.74,10.19-2.19,15.1c-1.82,5.4-6.41,10.8-12.62,10.47
		c-9.49-0.79-17.72-6.49-27.15-7.61c-6.75-1.24-14.43-2.5-20.51,1.55c-4.24,3.58-3.83,9.9-3.96,14.94c2.96-2.13,3.08-5.71,3.88-8.91
		c1.49-2.5,4.28-3.82,6.8-5.07c-2.04,2.75-5.15,4.5-6.89,7.51c2.16-0.77,4.16-1.89,6.06-3.15c-0.8,9.63-0.25,19.9,4.8,28.41
		c0.86,1.65,2.32,2.83,4,3.59c-0.57-4.28-3.27-7.76-4.58-11.76c-0.6-4.07,0.25-8.16,0.78-12.19c1.06-0.46,2.12-0.93,3.19-1.4
		c1.2,7.33,5.6,13.47,9.83,19.37c2.73,3.77,6.22,6.92,10,9.6c-2.32,1.67-4.61,3.39-6.88,5.13c-2.39-2.03-4.84-4.01-7.46-5.75
		c0.71,3.2,1.93,6.26,3.5,9.13c-0.68,0.84-1.37,1.68-2.07,2.51c-0.66-2.87-1.45-5.71-2.28-8.53c-2.59,0.17-5.19,0.36-7.77,0.68
		c-2.86-3.78-5.8-7.59-7.71-11.96c-1.64-3.62-2.42-7.6-4.54-11.01c-1.44,3.73-1.66,7.74-1.65,11.69c-5.14-7.1-6.75-16.38-5.73-24.96
		c0.45-4.22,3.59-7.38,4.93-11.25c1.03-2.93-0.86-5.55-2.03-8.07c-2-3.54-1.02-7.73-1.09-11.57c-1.38,0.82-2.73,1.68-4.07,2.56
		c-0.54-1.38-1.29-2.63-2.25-3.74c0.75-3.63,1.62-7.32,3.88-10.34c0.08,1.15,0.25,3.46,0.33,4.61c1.3-2.45,4.05-6.78,0.6-8.5
		c-3.25-0.19-4.99,3.23-5.81,5.9c-0.11-0.01-0.34-0.04-0.45-0.05c0.32-6.35-0.69-12.66-0.7-19c-1.77,0.05-3.53,0.08-5.29,0.13
		c-2.44,5.62-0.93,11.76,0.66,17.37c-6.25-3.75-9.35-10.64-13.02-16.61c-5.02,0.55-9.8-1.08-14.32-3.05
		c-1.13,3.5-2.57,7.18-1.75,10.92c0.93,4.45,2.54,8.73,4.25,12.93c1.94-4.36,1.7-9.21,1.92-13.86c3.83,3.41,5.49,8.38,7.55,12.92
		c3.48-2.55,7.61-3.87,11.94-3.34c-2.66,10.4-4.45,21.06-4.51,31.82c0.16,3.81-0.1,8.05,2.54,11.15c3.28-3.21,6.84-6.22,11.23-7.76
		c1.87,8.1,2.41,16.44,1.65,24.72c0.51,9.45,1.14,19.22,4.69,28.1c1.58-1.61,3.19-3.2,4.86-4.72c0.75,2.56,1.52,5.12,1.99,7.76
		c-2.06,3.73-0.78,7.88,0.2,11.72c-5.03-4.1-10.43-8.38-12.97-14.56c-2.27-5.35-4.86-10.69-5.44-16.55
		c-0.65-5.24-1.11-10.53-0.85-15.81c0.16-3.84,1.4-7.58,1.18-11.45c-1.51,1.98-3.13,4.03-3.64,6.54c-0.64,2.72,0.35,5.44,0.82,8.1
		c-5.75-1.71-9.03-7.39-11.2-12.58c-3.03-11.22-2.73-23.59,2.42-34.17c0.67-2.03,0.99-4.15,1.39-6.24
		c-2.87,2.02-4.98,4.95-5.99,8.33c0.34-0.03,1.03-0.08,1.38-0.11c-0.65,0.32-1.3,0.64-1.95,0.94c-0.31,1.78,0.35,4.15-1.62,5.18
		c-0.1-1.55-0.17-3.09-0.22-4.63c0.09-3.8-0.66-7.56-2.13-11.05c-0.58,5.19-2.7,9.91-5.67,14.16l1.74-0.65
		c-1.43,0.68-2.81,1.48-4.33,1.95c1.39-11.47-5.53-21.84-5.03-33.26c-0.25-3.22,0.74-6.3,2.28-9.09c-2.19-2.42-3.94-5.19-5.3-8.15
		c-2.97,1.97-6.08,3.73-9.34,5.2c3.05-7.57,3.69-15.87,2.57-23.91c-1.01-4.95,1.42-9.51,3.2-13.94c-5.24,0.47-9.73,4.55-10.9,9.64
		c-1.25-0.88-2.23-2.12-2.17-3.73c-0.59-4.69,0.75-9.32,2.29-13.7c2.77-6.31,7.23-11.64,11.44-17.02
		c-5.17-7.62-5.77-17.51-4.11-26.34c1.13-6.84,4.24-13.11,7.38-19.22c0.78-1.47,1.82-2.84,3.24-3.75l1.38-0.43
		c-0.81,3.98,0.08,8.03,2.72,11.16c0.81-4.1,1.59-8.21,2.01-12.37c0.13-3.21,0.3-6.44,1.05-9.57c0.72-3.31,1.52-6.6,2-9.96
		c0.35-1.94-0.7-3.75-1.11-5.6c1.62,1.22,3.15,2.6,4.16,4.39c1.43,2.09,2.95,4.13,4.5,6.14c0.92-2.48,1.83-4.97,2.9-7.38
		c4.4-6.39,8.03-14.98,16.2-17.14c-3.05,4.42-6.5,8.83-7.32,14.32c0.19,3.39,1.36,6.6,2.75,9.67c2.41-3.33,3.93-7.16,5.71-10.83
		c3.61-6.33,8.12-12.07,12.97-17.48c3.68-3.84,8.43-6.51,13.3-8.56c-0.6,3.61-2.58,6.83-3.03,10.47c-0.85,3.82-0.65,7.74-0.36,11.6
		c2.93-0.07,6.15,0.04,8.66-1.74c3.66-2.64,6.55-6.18,9.35-9.68c2.85-3.29,3.35-7.79,5.38-11.54
		C86.4,232.41,91.33,227.05,97.79,224.8 M35.73,278.62c-1.4,2.81-1.79,5.96-2.47,8.99c-3.6-2.64-5.83-6.52-7.69-10.48
		c-0.26,0.03-0.76,0.1-1.01,0.14c-1.69,3.4-2.97,7-4.11,10.61c-0.23,1.04-0.76,2.18-0.08,3.17c4.45,0.47,8.93,0.33,13.39,0.64
		c2.94-3.42,5.96-7.34,10.51-8.59c-1.15,2.8-2.18,5.64-2.99,8.55c2.01-0.13,4.02-0.27,6.03-0.41c1.41-3.67,2.02-7.57,3.11-11.33
		c1.36-4.54,4.23-8.38,6.99-12.15c-3.1-4.54-3.28-9.97-3.09-15.26C44.68,258.2,40.43,269.04,35.73,278.62 M11.66,286.38
		c1.23,2.01,3.36,3.19,5.63,3.65c-1.22-2.34-2.4-4.7-3.84-6.9C11.51,282.25,11.54,285.15,11.66,286.38 M10.67,291.73
		c-0.4,5.97,0.32,11.94,0.87,17.88c1.82-0.01,3.65-0.01,5.49-0.01c-1.83-2.87-4-5.72-4.41-9.2c-0.38-3.29-0.35-6.62-0.91-9.89
		C11.45,290.82,10.93,291.42,10.67,291.73 M16.31,294.16c0.06,2.79-0.43,5.89,1.26,8.34c1.74,2.81,4.84,6.25,8.41,4.23
		c-3.39-3.07-6.64-6.55-8.2-10.94c4.46,1.61,8.61,4.65,13.62,3.91c-0.77-1.38-2.43-1.73-3.49-2.81c1.74-0.41,3.99,0.36,5.22-1.32
		C27.54,294.77,21.82,295.77,16.31,294.16 M-5.42,330.13c0.96-1.8,1.75-3.67,2.49-5.56c1.81,1.32,3.53,2.75,5.19,4.26
		c0.57-2.8,1.48-5.52,3.14-7.87c-1.22-3.31-2.58-6.68-5.14-9.2c-0.77,0.85-1.55,1.69-2.34,2.52c0.3-2.09,1.03-4.07,1.93-5.97
		c4.69,3.32,6.81,9.13,7.95,14.53c0.82-0.57,2.41-1.21,1.68-2.49c-1.22-2.48-2.56-4.91-3.29-7.59c-0.72-3.86-5.17-4.96-7.3-7.91
		C-4.65,312.73-5.43,321.59-5.42,330.13 M11.39,311.97c0.39,1.64,0.82,3.27,1.25,4.9c1.52-0.29,2.88-1.02,4.08-1.98
		C15.04,313.75,13.25,312.79,11.39,311.97 M-4.76,334.87c0.61,3.74,2.94,6.77,4.55,10.06c-3.97,4.28-8.63,8.05-11.63,13.15
		c-1.01,1.78-2.08,3.7-1.84,5.83c2.67-1.49,5.35-3.7,8.6-3.41c3.01,0.43,5.99,1.1,9.03,1.37c-0.04-0.76-0.11-2.27-0.14-3.02
		c-1.19,0.65-2.38,1.31-3.57,1.97c-0.42-5.49,0.22-11.15,3.84-15.53C0.02,342.84-1.97,338.49-4.76,334.87 M10.4,347.63
		c-0.25,4.39,3.67,7.56,7.78,7.78c1.86-1.4,3.57-2.99,5.41-4.42C20.19,347.37,15.13,346.14,10.4,347.63 M3.78,355.18
		c1.06-0.45,2.12-0.9,3.17-1.36c0.34,1.51-0.34,3.85,1.62,4.41c2.22,1.29,4.77,1.87,7.32,2.06c-0.15-1.81-2.02-2.18-3.21-3.07
		c-2.82-1.48-4.83-4.01-6.8-6.43C5,352.16,4.37,353.67,3.78,355.18 M6.63,363.16c-0.19,3.35-0.23,6.73,0.19,10.06
		c0.99,0.21,1.8-0.63,2.69-0.93c-0.6-2.14-0.61-4.36-0.49-6.56C9.12,364.46,8.07,362.79,6.63,363.16 M-2.87,372.11
		c-2.9,5.86-3.21,12.67-1.44,18.92c1.77-1.62,2.25-4.12,2.91-6.32c-0.03-2.58-1.24-6.81,2.09-7.81c-0.39,1.66-0.82,3.31-1.2,4.97
		c2.28-1.33,3.36-3.88,4.84-5.96c-1.23-4.21-1.07-8.6-0.92-12.93C0.15,365-1.14,368.88-2.87,372.11 M114.83,374.4
		c0.8,2.35,1.1,6.48,4.67,5.28c0.58-2.04,1.19-4.08,1.82-6.11c-2.22-0.16-4.46-0.21-6.64,0.33
		C114.72,374.03,114.79,374.27,114.83,374.4 M28.46,380.34c0.34,0.66,0.87,0.98,1.58,0.96c3.31,0.07,6.62,0.17,9.93,0.09
		c-0.24-0.33-0.73-0.97-0.98-1.3C35.57,379.25,31.72,378.67,28.46,380.34 M37.34,394.95c-0.48,1.41-0.89,2.87-0.84,4.38
		c1.95,0,3.84-0.45,5.64-1.19C40.64,396.93,39.04,395.84,37.34,394.95 M4.81,400.38c1.19,4.02,5.31,0.41,7.12-1.19
		C9.53,398.1,7.11,399.78,4.81,400.38 M34.07,409.15c-2.25-1.02-1.34-3.25-1.2-5.09c-0.94,0.88-1.93,1.73-2.69,2.79
		c0.82,1.9,1.7,4.45,3.81,5.21c2.57-0.11,1.26-3.3,1.51-4.77c1.2,1.71,2.52,3.37,4.08,4.78c1.91-3.29,0.7-9.56-3.8-9.5
		C32.7,403.43,35.83,407.18,34.07,409.15 M40.81,402.8c-1.76,3.4,2.07,6.38,3.46,9.2C47.23,409.24,46.07,400.71,40.81,402.8
		 M46.65,403.8c-0.6,3.14,2.31,5.44,3.55,8.07c0.85-1.23,1.56-2.55,2.17-3.91c-0.85-1.77-0.84-3.74-0.9-5.65
		C49.8,402.58,47.84,402.34,46.65,403.8 M52.03,402.1c-0.36,3.62,1.41,6.8,3.56,9.54c1.28-2.51,1.22-5.33,1.24-8.07
		C55.24,403.06,53.63,402.57,52.03,402.1 M57.2,403.56c-0.24,3.17,1.73,5.89,3.79,8.09c0.91-2.22,1.68-4.49,2.37-6.78
		C61.3,404.48,59.24,404.04,57.2,403.56 M63.56,405.35c-0.14,9.58,5.99,18.21,13.93,23.03c-1.43-3.66-3.06-7.38-3.15-11.38
		c-0.36-3.57,0.85-6.98,1.72-10.37C71.83,406.83,67.77,405.41,63.56,405.35 M20.25,413.45c2.65,5.09,5.2,10.58,9.84,14.18
		c-1.14-5.56-2.05-11.33,0.23-16.77c-0.33-0.67-0.99-2.03-1.32-2.71C26.13,410,23.16,411.67,20.25,413.45 M87.46,426.19
		c-0.5,2.43-0.49,5.14-2.05,7.21c-2.06,2.98-6.04,3.57-9.38,3.72c-7.28-0.55-12.11-6.72-17.18-11.23
		c-5.2,5.82-1.64,14.28,2.16,19.85l-1.19-1.09c-1.21,2.55-1.5,5.33-1.51,8.12c-0.62,0.31-1.86,0.93-2.48,1.24
		c-0.67-2.32,0-3.65,2.02-4c-0.31-0.65-0.92-1.95-1.22-2.6c-0.26-0.05-0.78-0.16-1.04-0.22c-0.8-3.28-1.92-6.46-2.8-9.72
		c-1.59,0.26-3.07,1.03-3.97,2.4c0.17,3.24,2.67,6.57,5.95,7.14l0.15,2.23c-3.72-1.24-5.97-4.55-8.53-7.27
		c-0.38,5.02-0.5,10.63,3.2,14.57c3.55,0.29,3.27-3.68,4.09-6.06c0.01,1.48-0.03,2.97-0.12,4.45c1.72-0.46,3.47-0.86,5.15-1.47
		c1.93-0.09,3.85-0.31,5.75-0.66c-0.41-2.02-0.6-4.34-2.2-5.84l0.96,0.93c0.65-1.64,1.29-3.28,1.95-4.91
		c1.29,1.62,2.56,3.26,3.8,4.93c0.48-0.7,1.44-2.1,1.92-2.8c1.46,1.25,2.87,2.55,4.28,3.87c0.48-0.5,1.45-1.49,1.93-1.99
		c1.59,1.98,3.26,3.92,5.22,5.56c0.37-5.66,1.26-12.14,6.58-15.36c-0.98,5.29-0.29,10.83,2.22,15.61c2.18,4.3,6.57,6.93,10.89,8.68
		c1.99,0.74,4.25-1.5,3.44-3.49c-1.06-4.83-2.81-9.68-2.03-14.69c1.34,1.19,2.81,2.16,4.41,2.92c-0.27-2.69-0.65-5.39-0.42-8.1
		c1.2,0.32,2.37,0.73,3.59,1.01c0.3-1.68,0.47-3.38,0.67-5.08c0.3,0.41,0.92,1.24,1.23,1.65c-1.04,1.74-1.19,3.75-1.18,5.74
		c1.3-0.83,2.4-1.92,3.18-3.25c-0.36-0.44-1.07-1.31-1.43-1.75c2.04-2.5,0.01-5.17-2.95-4.32c0.49-2.32,0.87-4.66,1-7.03
		c-1.4,0.59-2.77,1.23-4.16,1.85c-0.1-0.67-0.32-1.99-0.42-2.65c-2.86,1.58-3.55,4.94-4.97,7.62c-1.36,3.02-3.35,5.71-5.77,7.97
		c0.42-1.9,0.9-3.78,1.37-5.65c-2.07,0.39-4.14,0.76-6.23,1c1.34-1.77,2.96-3.38,3.97-5.38c1.46-1.87-2.24-3.45-3.03-1.65
		c-1.94,1.95-2.45,4.8-4.19,6.89c0.96-3.63,3.08-6.87,3.47-10.66C90.19,425.01,88.84,425.65,87.46,426.19 M108.66,439.26
		c-0.18,2.66-0.08,5.34,0.14,8C112.72,445.97,112.48,440.62,108.66,439.26 M83.64,456.25c5.09,2.76,10.63,5.24,16.41,5.86
		c-2.48-1.96-5.51-3.18-7.69-5.5c-3.81-3.87-5.9-9.19-6.37-14.55C82.43,445.61,83.78,451.59,83.64,456.25 M64.71,444.56
		c-0.4,2.74-0.55,5.59,0.47,8.23c1.33,0.34,2.66,0.45,4.01,0.35C69.82,449.85,67.72,446,64.71,444.56 M103.65,445.01
		c0.25,4.04,1.1,8,2.09,11.92c2.24-1.49,2.26-4.7,3.3-7.03C107.46,448.06,106.17,445.68,103.65,445.01 M70.41,445.95
		c-0.6,2.47-0.58,5-0.25,7.51c1.1,0.11,3.3,0.33,4.4,0.45C74.76,450.7,73.71,447.17,70.41,445.95 M74.59,454.34
		c2.89,0.79,5.79,1.52,8.75,1.96c-1.57-3.27-4.1-5.9-6.57-8.5C75.57,449.8,75.09,452.09,74.59,454.34z"/>
	<path d="M163.95,256.89c3.77-6.41,12.1-7.32,18.07-10.85c-1.94,6.2-5,12.29-4.06,19.02c-0.56,0.16-1.68,0.48-2.23,0.64
		c0.29,2.35,0.72,4.72,1.74,6.88c0.43,1.04,0.9,2.06,1.34,3.1c-2.17-2.76-4.68-5.47-5.7-8.9c0.61-2.38,1.29-4.77,2.31-7.01
		c-0.46-1.12-0.93-2.24-1.4-3.35c-1.15,0.61-2.3,1.22-3.45,1.81c0.55-1.68,1.15-3.35,1.73-5.03
		C169.29,253.89,166.69,255.56,163.95,256.89z"/>
	<path d="M88.96,308.8c3.15,1.39,5.54,3.92,7.18,6.92c3.07-1.38,6.53-1.68,9.54-3.18c1.58-0.66,0.88-2.67,1.26-3.97
		c2.28,0.93,3.71,3.01,5.67,4.4c0.25-0.5,0.75-1.49,1-1.98c4.03,3.85,7.42,9.57,5.67,15.31c-1.91,4.4-6.75,6.06-10.63,8.24
		c-3.59,2.83-5.24,7.36-8.32,10.67c-6.16,7.14-17.97,7.93-25.29,2.14c-3.19,1.06-6.62,2.67-10.02,1.52
		c-3.17-0.92-5.78-3.36-6.72-6.55c2.74,0.85,5.7,3.03,8.61,1.49c3.31-1.5,5.5-4.54,8.31-6.73c5.32-4.78,12.9-5.97,19.81-5.42
		c5.72,0.4,11.46-0.9,16.73-3.03c3.55-1.63,4.03-6.07,3.78-9.51c-2.96,1.39-5.43,3.95-8.8,4.35c0.9-2.52,1.95-5.06,1.74-7.79
		c-3.49,1.94-7.25,3.27-10.87,4.91c-1.57,0.73-2.26,2.98-4.08,3.07c-0.51-1.53-0.81-3.1-1.15-4.66c-2.98,3.44-6.85,5.91-11.08,7.51
		c0.49-1.8,0.99-3.6,1.49-5.4c-4.74,2.61-10.9,3.78-13.66,8.95c-1.99,2.89-2.63,7.42-6.53,8.39c1.7-3.3,1.64-6.93,1.8-10.52
		c1.84-4.2,7.11-4.62,10.61-6.89c3.18-1.65,4.34-5.2,5.79-8.22c2.32,1.82,4.37,3.95,6.27,6.19C88.94,315.92,89,312.3,88.96,308.8
		 M79.49,341.98c2.83,4.76,9.65,4.32,14.09,2.28c1.91-1.1,5.61-2.34,4.17-5.2c-1.91,2.48-4.27,4.72-7.55,5.13
		c1.46-1.64,3.1-3.1,4.56-4.74c0.25-2.28-2.83-1.94-4.23-2.55c0.93-0.6,1.86-1.22,2.77-1.87C87.84,334.36,81.05,335.91,79.49,341.98
		z"/>
	<path d="M35.58,326.55c3.11-2.4,6.87-0.04,10.33-0.43c4.53-0.54,9.23,3.01,9.79,7.57c-2.61-0.78-5.05-2.61-7.88-2.4
		c-3.33,1.68-2.83,6.02-1.99,9.03c0.89,3.87,3.43,6.96,5.79,10.04c-4.98-1.18-10.05-1.69-15.03-0.15c2.4-4.41,4.74-9.08,4.97-14.19
		c0.08-2.11-0.94-4.9-3.43-4.91c-2.02,1.35-3.74,3.1-5.64,4.61C31.87,332.42,33.17,328.84,35.58,326.55z"/>
	<path d="M97.2,351.03c3.47-1.27,6.21-3.8,9.19-5.87c0.86,4.43-3.44,7.4-6.83,9.23c-8.23,3.57-17.67,2.25-26-0.27l-0.42-1.62
		C81.1,354.02,89.65,354.45,97.2,351.03z"/>
	<path d="M86.05,380.97c2-1.86,4.75-0.44,6.97,0.13c0.12,0.36,0.35,1.08,0.46,1.45C91.08,382.9,85.68,385.46,86.05,380.97z"/>
	<path d="M83.33,489.77c5.22,5.32,10.83,10.48,17.9,13.21c-3.15,1.33-6.55,1.61-9.91,1.11c0.06,0.42,0.18,1.26,0.24,1.69
		c-1.39-0.49-2.79-0.97-4.18-1.43C84.84,499.89,83.84,494.81,83.33,489.77z"/>
	<path d="M170.06,501.39c2.36-0.47,4.7-1,7.07-1.37c-0.18,0.35-0.56,1.06-0.74,1.42c-0.39,0.59-1.16,1.77-1.55,2.36
		c-2.27,10.49-5.54,20.72-8.86,30.93c-0.5,1.59-1.29,3.06-2.11,4.51c-0.49-2.53-0.92-5.07-1.32-7.61
		c-0.3-5.15-2.86-10.44-0.95-15.49c0.88,1.88,2.04,3.63,3.34,5.25c2.08-5.71,2.5-11.82,3.96-17.69
		C169.19,503.12,169.77,501.97,170.06,501.39z"/>
	<path d="M101.34,531.64c4.11-4.92,9.33-8.7,14.52-12.39c0.73,1.34,1.22,2.78,1.63,4.26c0.24,1.76,0.41,3.54,0.6,5.32l0.49,0.13
		c-2.25,4.46,0.59,8.68,1.9,12.93c-3.51,0.71-7,1.5-10.48,2.31c-0.24-3.49-0.44-6.99-0.14-10.48c0.3-1.34,0.64-2.67,0.96-4
		c-2.81,2.52-5.09,5.54-7.33,8.57C102.77,536.07,101.98,533.88,101.34,531.64z"/>
</g>
<g id="_x23_d8521dff">
	<path class="st1" d="M88.44,240.26c2.86-5.61,8.1-9.65,13.74-12.22c-1.33,6.72-1.26,14.12,2.54,20.07
		c3.6,5.42,8.83,9.43,13.5,13.87c1.74-4.35,3.33-8.86,6.22-12.62c2.73-3.61,6.63-6.01,10.1-8.82c3.81-3.06,8.02-5.59,12.43-7.67
		c-1.95,6.6-5.3,12.98-5.24,20.02c0.23,5.41,0.72,10.87,2.31,16.07c6.73-9.12,16.27-16.06,26.69-20.41
		c5.46-2.53,11.69-2.52,17.08-5.24c-2.65,5.04-6.09,9.86-7.06,15.6c-1.22,6.51,0.49,13.3,3.98,18.85c1.19-0.49,1.61-1.84,2.34-2.8
		c4.54-7.81,14.01-11.86,22.86-10.99c-2,2.11-4.33,3.85-6.77,5.4c0.16-0.97,0.5-2.91,0.66-3.88c-5.33,2.71-8.76,8.77-7.31,14.75
		c1.44-2.46,2.57-5.07,3.89-7.59c-0.13,2.77-0.52,5.52-0.87,8.28c7.64-1.82,15.41,1.39,21.31,6.15c3.79,3.46,6.55,7.88,9.21,12.23
		c-7.79-1.83-16.36-1.56-23.19,3.03c7.61,3.82,15.67,7.26,21.58,13.64c-8.19-2.79-17.13-5.07-25.68-2.4
		c7.24,5,14.72,10.39,18.94,18.34c-3.65-0.95-7.23-2.19-10.93-2.9c-4.21-0.84-8.5-0.04-12.68,0.63c4.73,4.31,10.37,7.9,13.59,13.59
		c5.33,9.28,8.08,19.79,9.74,30.3c-7.22-3.06-15.35-5.29-23.15-3.18c10.08,9.78,15.07,23.89,15.64,37.73
		c-4.64-2.74-9.32-6-14.97-5.87c9.32,12.3,10.37,28.67,8.49,43.47c-1.88,0.35-2.61-2.32-3.91-3.33
		c-4.79-5.33-11.01-11.34-18.74-10.78c1.38,4.41,3.13,8.77,3.44,13.43c0.84,12.1,1.07,24.62-3.52,36.08
		c-2.77-2.18-5.07-4.9-7.91-6.98c-3.06-2.23-6.83-3.03-10.46-3.75c0.9,6.13,2.28,12.19,2.93,18.36c-11,3.15-22.35,5.03-33.33,8.13
		c-0.77,2.56,0.3,5.27,0.51,7.85c-3.18-1.28-6.36-2.57-9.56-3.8c3.43-2.94,7.28-5.61,9.56-9.62c3.61-6.18,6.18-13.17,6.24-20.39
		c0.25-5.02-0.44-10.04-0.03-15.05c-0.1-1.49,0.92-2.5,2-3.32c0.65,5.64-0.74,11.34,0.45,16.94c3.7-5.45,0.22-12.79,3.93-18.24
		c0.62,1.49,1.64,2.95,1.62,4.63c-0.43,7.82-2.12,15.49-3.94,23.07c2.59-1.39,2.68-5.36,5.42-6.93c0.05,0.99,0.16,2.97,0.21,3.96
		c8.99-2.04,15.19-9.25,20.95-15.9c1.51,2.14,2.07,4.69,2.48,7.24c2.23-2.89,3.4-6.35,4.05-9.9c1.65-0.02,2.87-0.91,3.2-2.55
		c1.54-4.47,1.95-9.28,1.73-13.98c-0.25-5.47-2.98-10.35-4.4-15.54c2.35,1.05,4.61,2.29,6.79,3.67c0.54-1.91,0.25-4.69,2.17-5.77
		c1.94,0.27,3.76,1.06,5.61,1.68c-0.15-2.42-0.28-4.83-0.34-7.25c1.93,1.41,3.5,3.21,4.83,5.17c-1.64-6.06-3.86-11.96-5.14-18.12
		c2.04,1.44,3.83,3.19,5.35,5.17c-1.88-5.75-4.51-11.18-6.91-16.72c1.27,0.7,2.53,1.41,3.81,2.13c-0.83-3.14-1.63-6.28-2.36-9.44
		c1.71,2.15,3.37,4.33,5.02,6.52c-0.04-5.47,0.45-11.1-1.14-16.42c-1.21-4.11-2.87-8.07-4.05-12.2c1.23,0.74,2.46,1.5,3.68,2.26
		c-1.58-5.2-2.57-10.64-5.38-15.37c1.73,0.76,3.43,1.58,5.1,2.48c-1.47-3.56-2.77-7.31-5.32-10.28c-2.82-3.35-6.56-6.04-8.15-10.27
		c1.56-0.14,3.13-0.27,4.7-0.39c-1.45-1.65-4.15-2.96-4.25-5.34c1.69-2.81,5.04-4.21,6.99-6.88c-2.83,1.67-5.28,4.07-8.59,4.78
		c5.51-5.42,10.86-12.63,9.33-20.85c-2.12-7.61-6.64-14.38-12-20.12c-2.04,3.53-5,6.83-9.16,7.7c-9.5,2.01-19.28,2.38-28.96,2.38
		c2.28-2.65,5.78-3.51,8.51-5.52c2.33-2.04,4.34-4.41,6.55-6.57c-6.04,1.85-10.99,5.98-16.85,8.24c-1.51,0.7-3.2,0.46-4.78,0.19
		c6.75-2.77,13.4-6.1,18.79-11.12c-7.94,2.97-15.41,7.96-24.04,8.58c-0.68,1.84-0.89,4.09-2.69,5.26
		c-0.01-5.19,0.35-10.58,3.05-15.16c-0.96,0.92-1.91,1.83-2.86,2.75c-0.61,0.01-1.83,0.03-2.44,0.04c-2.49,1.94-4.77,4.77-8.14,4.98
		c-3.7,0.35-7.56,0.73-10.57,3.13c3.97-0.88,8.01-0.66,12.02-0.34c2.81-1.79,4.84-4.53,7.39-6.64c-0.72,3.9-3.35,6.94-5.91,9.8
		c-4.66-0.54-9.43-1.57-14.08-0.39c-4.48,0.77-8.59,2.79-12.71,4.64c4.26-7.37,12.99-9.57,19.66-14c2.98-2.02,2.2-6.02,2.04-9.08
		c-1.55,2.14-2.74,4.62-4.84,6.3c-3.81,2.65-8.82,2.72-12.56,5.51c-3.06,2.26-5.28,5.42-7.61,8.38c-10-1.74-19.96,1.83-28.12,7.47
		c0.92-3.61,2.64-6.92,4.46-10.14c0.47,0.42,1.41,1.25,1.88,1.66c0.84-0.63,1.68-1.26,2.52-1.89c0.17,0.54,0.49,1.6,0.66,2.13
		c4.06-1.16,6.82-4.34,9.57-7.32c3.84-3.64,6.22-8.41,8.69-13.01c1.44,2.89,3.12,5.66,5.07,8.24c-0.18-1.27-0.36-2.54-0.54-3.81
		c0.56,0.01,1.7,0.04,2.26,0.05c0.27-4.3,0.98-8.56,2.32-12.66c-0.58-0.94-1.15-1.87-1.73-2.81c-8.02,3.08-13.5,10.18-18.8,16.61
		c-0.71-3.09-1.36-6.25-3.08-8.96c-1.66,8.28-8.32,14.04-13.16,20.54c-2.89,4.03-7.31,6.51-11.55,8.88
		c2.14-7.66,3.8-15.66,8.09-22.47c3.39-5.02,8.8-8.02,13.73-11.28c4.38-2.84,7.83-6.9,10.63-11.26
		C85.39,248.95,86.23,244.29,88.44,240.26 M163.95,256.89c2.74-1.33,5.34-3,8.35-3.69c-0.58,1.68-1.18,3.35-1.73,5.03
		c1.15-0.59,2.3-1.2,3.45-1.81c0.47,1.11,0.94,2.23,1.4,3.35c-1.02,2.24-1.7,4.63-2.31,7.01c1.02,3.43,3.53,6.14,5.7,8.9
		c-0.44-1.04-0.91-2.06-1.34-3.1c2.55-1.88,1.02-5.05,0.49-7.52c-0.94-6.73,2.12-12.82,4.06-19.02
		C176.05,249.57,167.72,250.48,163.95,256.89z"/>
	<path class="st1" d="M35.73,278.62c4.7-9.58,8.95-20.42,18.59-26.12c-0.19,5.29-0.01,10.72,3.09,15.26
		c-2.76,3.77-5.63,7.61-6.99,12.15c-1.09,3.76-1.7,7.66-3.11,11.33c-2.01,0.14-4.02,0.28-6.03,0.41c0.81-2.91,1.84-5.75,2.99-8.55
		c-4.55,1.25-7.57,5.17-10.51,8.59c-4.46-0.31-8.94-0.17-13.39-0.64c-0.68-0.99-0.15-2.13,0.08-3.17c1.14-3.61,2.42-7.21,4.11-10.61
		c0.25-0.04,0.75-0.11,1.01-0.14c1.86,3.96,4.09,7.84,7.69,10.48C33.94,284.58,34.33,281.43,35.73,278.62z"/>
	<path class="st1" d="M-26.83,292.84c11.18-4.25,22.57-7.94,34.08-11.15c-0.75,3.13-0.92,6.36-1.05,9.57
		c-1.57,0.42-3.15,0.81-4.73,1.21l-1.38,0.43c-5.85,2.37-11.94,4.02-17.85,6.19c-0.17,20.05,0.32,40.1-0.1,60.14
		c-1.54,4.38-2.88,9.01-2.29,13.7c-0.06,1.61,0.92,2.85,2.17,3.73c0.31,26.2,2.75,52.77,11.71,77.59
		c6.21,18.68,14.7,36.65,25.11,53.36c4.82-1.92,9.65-3.81,14.37-5.95c0.58,5.86,3.17,11.2,5.44,16.55
		c2.54,6.18,7.94,10.46,12.97,14.56c-0.98-3.84-2.26-7.99-0.2-11.72c3.72,10.28,6.74,20.8,10.43,31.1
		c1.98,5.37,2.94,11.15,5.6,16.24c2.8,0.87,5.83-0.41,8.67-0.74c3.64-0.9,7.67-0.83,10.94-2.81c-0.09-3.42-1.42-6.64-2.19-9.94
		c2.31,1.34,4.87,2.39,6.82,4.27c1.27,2.2,2.34,4.52,3.86,6.58c0.17-1.02,0.5-3.06,0.66-4.07c1.23,0.53,2.45,1.06,3.69,1.61
		c6.37-0.96,12.64-2.76,19.06-3.27c2.16,1.13,3.16,4.01,5.22,5.5c-0.09-2.26-0.29-4.51-0.47-6.75c3.05-0.59,6.24-0.77,9.14-1.96
		c3.6-3.58,5.32-8.88,9.53-11.85c0.65,2.67,0.76,5.46,1.57,8.1c0.8,2.19,3.38,1.01,5.07,0.92c4.52-0.96,9.13-1.56,13.6-2.73
		c1.98-0.48,1.55-2.83,1.4-4.34c-0.66-5.08-1.37-10.16-1.47-15.28c0.4,2.54,0.83,5.08,1.32,7.61c0.82-1.45,1.61-2.92,2.11-4.51
		c3.32-10.21,6.59-20.44,8.86-30.93c0.39-0.59,1.16-1.77,1.55-2.36c-1.5,3.99-0.86,8.27-0.54,12.39
		c1.03,11.29,1.25,22.66,2.87,33.89c1.85,0.01,3.7,0,5.55,0c-21.28,24.82-45.7,47.13-73.21,64.88
		C92,600.83,74.39,586.73,58.47,570.99c2.35-0.49,4.75-0.84,7.01-1.67c1.29-3.22-1.19-6.54-1.89-9.68c-1.1-2.32-1.14-5.74-3.54-7.07
		c-5.15,0.23-10.11,1.8-15.19,2.58c-1.62-0.04-2.85-1.07-3.84-2.24c-6.31-7.24-12.19-14.82-18.18-22.32
		c-3.28-4.92-4.26-10.81-6.44-16.19c-0.81-2.28-3.49-1.57-5.35-1.69c-13.08-21.79-23.76-45.17-30.18-69.82
		c-6.27-23.07-8.08-47.13-7.75-70.97C-26.91,345.56-26.56,319.2-26.83,292.84z"/>
	<path class="st1" d="M226.5,283.85c9.01,1.97,17.55,5.62,26.35,8.34c-0.33,28.58-0.98,57.16-1.4,85.74
		c-0.18,10.7-1.03,21.39-2.53,31.99c-2.52,20.7-8.84,40.7-16.36,60.07c-11.18,3.45-22.41,6.75-33.63,10.06
		c-1.86,0.13-2.05,2.09-2.68,3.44c-1.71,0.02-3.42,0.02-5.12,0.12c4.75-14.44,4.06-30.04,0.38-44.64c5.24,4.53,8.81,10.64,11.37,17
		c1.84,4.85,1,10.15,1.87,15.18c0.23,1.68,1.31,3.01,2.6,4.05c0.01-7.85,3.99-14.77,5.99-22.17c2.53-7.99,2.34-16.47,2.21-24.75
		c7.51-3.11,15.27-5.69,22.59-9.22c4.57-21.2,4.23-43.07,4.6-64.65c0.24-18.62,0.85-37.25,0.86-55.87
		c-3.17-1.04-6.34-2.11-9.47-3.26C232.07,291.18,229.63,287.23,226.5,283.85z"/>
	<path class="st1" d="M-5.42,330.13c-0.01-8.54,0.77-17.4,4.31-25.28c2.13,2.95,6.58,4.05,7.3,7.91c0.73,2.68,2.07,5.11,3.29,7.59
		c0.73,1.28-0.86,1.92-1.68,2.49c-1.14-5.4-3.26-11.21-7.95-14.53c-0.9,1.9-1.63,3.88-1.93,5.97c0.79-0.83,1.57-1.67,2.34-2.52
		c2.56,2.52,3.92,5.89,5.14,9.2c-1.66,2.35-2.57,5.07-3.14,7.87c-1.66-1.51-3.38-2.94-5.19-4.26
		C-3.67,326.46-4.46,328.33-5.42,330.13z"/>
	<path class="st1" d="M-4.76,334.87c2.79,3.62,4.78,7.97,8.84,10.42c-3.62,4.38-4.26,10.04-3.84,15.53
		c1.19-0.66,2.38-1.32,3.57-1.97c0.03,0.75,0.1,2.26,0.14,3.02c-3.04-0.27-6.02-0.94-9.03-1.37c-3.25-0.29-5.93,1.92-8.6,3.41
		c-0.24-2.13,0.83-4.05,1.84-5.83c3-5.1,7.66-8.87,11.63-13.15C-1.82,341.64-4.15,338.61-4.76,334.87z"/>
	<path class="st1" d="M5.06,410.41c4.52,1.97,9.3,3.6,14.32,3.05c3.67,5.97,6.77,12.86,13.02,16.61c-1.59-5.61-3.1-11.75-0.66-17.37
		c1.76-0.05,3.52-0.08,5.29-0.13c0.01,6.34,1.02,12.65,0.7,19c0.11,0.01,0.34,0.04,0.45,0.05c0.82-2.67,2.56-6.09,5.81-5.9
		c3.45,1.72,0.7,6.05-0.6,8.5c-0.08-1.15-0.25-3.46-0.33-4.61c-2.26,3.02-3.13,6.71-3.88,10.34c0.96,1.11,1.71,2.36,2.25,3.74
		c1.34-0.88,2.69-1.74,4.07-2.56c0.07,3.84-0.91,8.03,1.09,11.57c1.17,2.52,3.06,5.14,2.03,8.07c-1.34,3.87-4.48,7.03-4.93,11.25
		c-1.02,8.58,0.59,17.86,5.73,24.96c-0.01-3.95,0.21-7.96,1.65-11.69c2.12,3.41,2.9,7.39,4.54,11.01c1.91,4.37,4.85,8.18,7.71,11.96
		c-4.85,0.81-9.93,0.68-14.56,2.55c0.17,0.62,0.5,1.86,0.67,2.48c-1.67,1.52-3.28,3.11-4.86,4.72c-3.55-8.88-4.18-18.65-4.69-28.1
		c0.76-8.28,0.22-16.62-1.65-24.72c-4.39,1.54-7.95,4.55-11.23,7.76c-2.64-3.1-2.38-7.34-2.54-11.15
		c0.06-10.76,1.85-21.42,4.51-31.82c-4.33-0.53-8.46,0.79-11.94,3.34c-2.06-4.54-3.72-9.51-7.55-12.92
		c-0.22,4.65,0.02,9.5-1.92,13.86c-1.71-4.2-3.32-8.48-4.25-12.93C2.49,417.59,3.93,413.91,5.06,410.41z"/>
	<path class="st1" d="M87.46,426.19c1.38-0.54,2.73-1.18,4.1-1.76c-0.39,3.79-2.51,7.03-3.47,10.66c1.74-2.09,2.25-4.94,4.19-6.89
		c0.79-1.8,4.49-0.22,3.03,1.65c-1.01,2-2.63,3.61-3.97,5.38c2.09-0.24,4.16-0.61,6.23-1c-0.47,1.87-0.95,3.75-1.37,5.65
		c2.42-2.26,4.41-4.95,5.77-7.97c1.42-2.68,2.11-6.04,4.97-7.62c0.1,0.66,0.32,1.98,0.42,2.65c1.39-0.62,2.76-1.26,4.16-1.85
		c-0.13,2.37-0.51,4.71-1,7.03c2.96-0.85,4.99,1.82,2.95,4.32l-0.57-0.74c-0.31-0.41-0.93-1.24-1.23-1.65
		c-0.2,1.7-0.37,3.4-0.67,5.08c-1.22-0.28-2.39-0.69-3.59-1.01c-0.23,2.71,0.15,5.41,0.42,8.1c-1.6-0.76-3.07-1.73-4.41-2.92
		c-0.78,5.01,0.97,9.86,2.03,14.69c0.81,1.99-1.45,4.23-3.44,3.49c-4.32-1.75-8.71-4.38-10.89-8.68c-2.51-4.78-3.2-10.32-2.22-15.61
		c-5.32,3.22-6.21,9.7-6.58,15.36c-1.96-1.64-3.63-3.58-5.22-5.56c-0.48,0.5-1.45,1.49-1.93,1.99c-1.41-1.32-2.82-2.62-4.28-3.87
		c-0.48,0.7-1.44,2.1-1.92,2.8c-1.24-1.67-2.51-3.31-3.8-4.93c-0.66,1.63-1.3,3.27-1.95,4.91l-0.96-0.93
		c-0.31-0.3-0.93-0.92-1.25-1.22c-3.8-5.57-7.36-14.03-2.16-19.85c5.07,4.51,9.9,10.68,17.18,11.23c3.34-0.15,7.32-0.74,9.38-3.72
		C86.97,431.33,86.96,428.62,87.46,426.19z"/>
	<path class="st1" d="M159.13,505.77c3.25-0.73,6.49-1.47,9.77-2.07c-1.46,5.87-1.88,11.98-3.96,17.69
		c-1.3-1.62-2.46-3.37-3.34-5.25C160.31,512.81,159.58,509.3,159.13,505.77z"/>
	<path class="st1" d="M197.8,511.2c3.27,1.84,6.33,4.01,9.37,6.2c-1.9,2.76-3.67,5.6-5.68,8.28c-0.89,0.76-2.1,0.93-3.16,1.35
		C198.48,521.75,198.07,516.48,197.8,511.2z"/>
	<path class="st1" d="M108.11,515.97c2.21-0.26,4.41-0.65,6.61-1.02c0.33,1.44,0.65,2.89,1.14,4.3
		c-5.19,3.69-10.41,7.47-14.52,12.39c-0.8-4.14-1.76-8.26-3.21-12.23c2.44,0.33,4.88,0.67,7.32,0.96c-1.1-1.24-2.21-2.46-3.31-3.68
		C104.13,516.46,106.12,516.24,108.11,515.97z"/>
</g>
<g id="_x23_913713ff">
	<path class="st2" d="M175.73,265.7c0.55-0.16,1.67-0.48,2.23-0.64c0.53,2.47,2.06,5.64-0.49,7.52
		C176.45,270.42,176.02,268.05,175.73,265.7z"/>
</g>
<g id="_x23_404041ff">
	<path class="st3" d="M31.33,276.13c-1.39-3.07-2.56-6.28-2.75-9.67c2.87,0.04,5.64-0.78,8.46-1.16
		C35.26,268.97,33.74,272.8,31.33,276.13z"/>
	<path class="st3" d="M209.24,274.2c0.6-1.79,1.66-3.37,2.8-4.86c0.95,1.18,2.5,1.37,3.87,1.76c15.7,3.93,31.06,9.14,46.25,14.73
		c0.53,10.67-0.35,21.34-0.35,32.01c-0.48,18.36-0.34,36.73-1.03,55.08c0.18,30.98-5.27,62.02-16.14,91.04
		c-2.07,4.68-7.95,4.4-12.08,6.03c7.52-19.37,13.84-39.37,16.36-60.07c1.5-10.6,2.35-21.29,2.53-31.99
		c0.42-28.58,1.07-57.16,1.4-85.74c-8.8-2.72-17.34-6.37-26.35-8.34c-3.43-3.61-7.7-6.54-12.63-7.6
		C212.38,275.56,210.06,275.87,209.24,274.2z"/>
	<path class="st3" d="M12.3,270.52c2.48-0.37,4.91-1,7.4-1.24c-1.07,2.41-1.98,4.9-2.9,7.38C15.25,274.65,13.73,272.61,12.3,270.52z
		"/>
	<path class="st3" d="M-34.25,285.61c14.3-5.22,28.7-10.28,43.5-13.88c-0.48,3.36-1.28,6.65-2,9.96
		c-11.51,3.21-22.9,6.9-34.08,11.15c0.27,26.36-0.08,52.72-0.05,79.08c-0.33,23.84,1.48,47.9,7.75,70.97
		c6.42,24.65,17.1,48.03,30.18,69.82c-3.38,0.05-6.76,0.29-10.13,0.58c-8.2-12.64-14.45-26.49-20-40.47
		c-11.46-29.2-17.07-60.56-17.27-91.9c0-30.68-0.03-61.36,0.01-92.03C-36.6,287.33-35.81,285.97-34.25,285.61z"/>
	<path class="st3" d="M225.61,361.37c5.69-2.36,11.52-4.4,17.13-6.96c-0.37,21.58-0.03,43.45-4.6,64.65
		c-7.32,3.53-15.08,6.11-22.59,9.22c-0.47-4.32-2.1-8.41-2.57-12.73c2.57,3.36,3.01,7.71,5.11,11.31
		c2.38-5.68,1.65-11.98,1.59-17.98c-0.94-11.52-3.31-23.36-9.89-33.08c3.82,1.23,7.55,3.05,10.27,6.08
		c3.28,3.21,3.39,8.09,4.88,12.18c2.62-3.49,2.9-8,3.07-12.2C227.98,374.97,227.62,368,225.61,361.37z"/>
	<path class="st3" d="M18.72,444.27c1.13-0.57,2.21-1.22,3.22-1.98c-5.15,10.58-5.45,22.95-2.42,34.17
		c2.17,5.19,5.45,10.87,11.2,12.58c-0.47-2.66-1.46-5.38-0.82-8.1c0.51-2.51,2.13-4.56,3.64-6.54c0.22,3.87-1.02,7.61-1.18,11.45
		c-0.26,5.28,0.2,10.57,0.85,15.81c-4.72,2.14-9.55,4.03-14.37,5.95C8.43,490.9-0.06,472.93-6.27,454.25
		c3.57-1.47,7.06-3.15,10.81-4.08c1.52-0.47,2.9-1.27,4.33-1.95c1.99-0.9,4.01-1.71,6.06-2.46c0.05,1.54,0.12,3.08,0.22,4.63
		c1.97-1.03,1.31-3.4,1.62-5.18C17.42,444.91,18.07,444.59,18.72,444.27z"/>
	<path class="st3" d="M223.04,490.15c3.77-1.19,7.66-1.93,11.52-2.79c-0.33,2.19-2.92,4.53-2.08,6.63c0.38,0.38,1.15,1.13,1.53,1.51
		c-0.31,0.08-0.92,0.22-1.23,0.29c-4.12-2.3-8.75,0.79-13.11,0.85C220.85,494.51,221.92,492.32,223.04,490.15z"/>
	<path class="st3" d="M207.17,517.4c4.02,0.21,7.95-0.82,11.9-1.47c-1.6,2.61-3.2,5.24-5.13,7.63c-4.03,1.25-8.26,1.75-12.45,2.12
		C203.5,523,205.27,520.16,207.17,517.4z"/>
	<path class="st3" d="M22.84,530.59c5.99,7.5,11.87,15.08,18.18,22.32c0.99,1.17,2.22,2.2,3.84,2.24c-4.17,0.57-8.34,1.19-12.43,2.2
		C29.73,548.25,24.72,539.93,22.84,530.59z"/>
	<path class="st3" d="M182.93,547.04c5.28,0.14,10.31-2.04,15.59-2.15c-13.55,17.42-29.01,33.35-45.68,47.81
		c-12.51,10.71-25.55,20.91-39.66,29.44c-2.08,1.64-4.32-0.06-6.2-1.13c-19.93-12.17-38.17-26.96-55-43.12
		c-1.55-1.45-2.99-3-4.29-4.67c3.63-0.54,7.17-1.55,10.78-2.23c15.92,15.74,33.53,29.84,52.59,41.61
		c27.51-17.75,51.93-40.06,73.21-64.88c-1.85,0-3.7,0.01-5.55,0c0.42-0.4,1.26-1.22,1.67-1.63c0.22-0.05,0.65-0.15,0.86-0.19
		C181.67,546.18,182.51,546.75,182.93,547.04z"/>
</g>
<g id="_x23_ea591fff">
	<path class="st4" d="M11.66,286.38c-0.12-1.23-0.15-4.13,1.79-3.25c1.44,2.2,2.62,4.56,3.84,6.9
		C15.02,289.57,12.89,288.39,11.66,286.38z"/>
	<path class="st4" d="M10.67,291.73c0.26-0.31,0.78-0.91,1.04-1.22c0.56,3.27,0.53,6.6,0.91,9.89c0.41,3.48,2.58,6.33,4.41,9.2
		c-1.84,0-3.67,0-5.49,0.01C10.99,303.67,10.27,297.7,10.67,291.73z"/>
	<path class="st4" d="M11.39,311.97c1.86,0.82,3.65,1.78,5.33,2.92c-1.2,0.96-2.56,1.69-4.08,1.98
		C12.21,315.24,11.78,313.61,11.39,311.97z"/>
</g>
<g id="_x23_f28f1cff">
	<path class="st5" d="M142.99,298.87c12.47,1.46,24.98-1.19,36.87-4.73c2.32,1.14,2.7,4.38,3.32,6.69
		c2.19,9.55-3.75,21.44-14.05,22.84c-4.9,0.88-10.13,2.45-14.99,0.6c3.81-1.63,6.72-4.66,8.84-8.15c-4.42,1.1-8.84,2.49-13.46,2.35
		c3.46-2.21,7.71-3.05,10.67-6.05c-6.12,0.01-12.17,1.3-18.29,1.19c-1.18,0.09-2.24-0.47-3.26-0.97
		c13.25-1.24,26.75-4.1,38.44-10.67c1.76,3.2,2.61,6.77,3.21,10.35c2.5-5.08,2.25-11.88-1.11-16.53c-1.43,0.71-2.84,1.47-4.35,2
		c-14.64,3.49-29.92,4.78-44.89,2.77c1.88,1.37,3.85,2.59,5.75,3.94c-4.03,0.62-7.99-0.24-11.81-1.44c1.44,3.45,5.47,4.1,8.35,5.9
		c-3.84,0.36-7.67-0.1-11.48-0.49c4.59,4.03,11.16,2.81,16.44,5.32c3.85,1.76,8.24,1,12.2,2.35c-2.83,0.81-5.74,1.25-8.64,1.67
		c4.01,3.45,9.59,2.62,14.47,3.05c-2.39,2.01-5.35,3.08-7.94,4.76c-4.14-2.69-8.46-5.37-13.44-6.11c3.08,2.46,6.4,4.68,8.97,7.72
		c-4.02,0.14-8.05,0.08-12.05,0.57c3.51,2.28,7.96,3.34,10.16,7.24c-0.89,0.18-2.68,0.54-3.57,0.73c1.98,1.33,4.02,2.59,5.85,4.13
		c-2.2,2.21-5.12,3.84-6.4,6.83c2.12-0.62,4.19-1.38,6.31-1.98c4.29-1.42,8.71,0.36,12.99,0.91c-2.61-4.31-5.8-8.22-9.17-11.94
		c5.77,1.42,10.18,5.57,15.4,8.13c-2.73-6.57-8.75-10.77-13.66-15.61c1.69-0.7,3.38-1.41,5.07-2.12c0.18,0.61,0.55,1.82,0.73,2.42
		c11.71,5.71,24.05,12.02,31.34,23.3c-5.16-0.67-10.51-1.8-15.55,0.15c7.81,6.88,16.36,13.73,20.37,23.69
		c-6.82-3.7-14.54-7.04-22.46-5.06c6.9,7.66,15.28,14.42,19.53,24.06c-6.23-2.5-12.87-4.58-19.63-2.92
		c6.32,7.04,13.58,13.55,17.55,22.35c-4.6-0.04-9.22-0.36-13.8,0.1c-1.51,0.04-2.7,1.05-3.77,1.99c1.42,2.97,3.61,5.48,5.16,8.37
		c3.75,6.92,6,14.63,6.49,22.49c-2.82-1.79-5.75-3.4-8.92-4.48c-0.03,3.73,0.4,7.59-0.81,11.19c-1.85,4.35-4.68,8.25-8.03,11.57
		c-0.21-4.6,0.45-9.46-1.54-13.77c-2.35-5.27-5.79-10.49-11.29-12.85c-4.48-1.89-5.4-7.18-4.81-11.5c-0.9,0.35-2.7,1.05-3.59,1.4
		c-0.36-2.05-0.71-4.1-1.05-6.15c0.74,0.1,2.24,0.28,2.99,0.37c-2.02-6.24,0.63-12.49,0.99-18.76c1.82,0.99,3.65,1.99,5.56,2.82
		c-2.64-3.12-6.6-4.45-10.29-5.85c1.18,0.81,2.37,1.59,3.58,2.37c-6.69,5.01-9.2,13.47-9.99,21.43c-0.67,6.38,0.92,12.66,1.59,18.96
		c1.21,7.29,1.4,14.69,1.67,22.06c0,7.2,0.01,14.76-3.21,21.39c-2.93,5.94-8.73,9.75-14.4,12.78c-2.32,1.27-5,0.2-7.44-0.02
		c0.46,0.66,1.39,1.98,1.85,2.65c-3.72,1.05-7.59,1.36-11.33,2.31c-7.07-2.73-12.68-7.89-17.9-13.21
		c0.51,5.04,1.51,10.12,4.05,14.58c-0.27,0.18-0.82,0.56-1.1,0.74c-3.78-2.68-7.27-5.83-10-9.6c-4.23-5.9-8.63-12.04-9.83-19.37
		c-1.07,0.47-2.13,0.94-3.19,1.4c-0.53,4.03-1.38,8.12-0.78,12.19c1.31,4,4.01,7.48,4.58,11.76c-1.68-0.76-3.14-1.94-4-3.59
		c-5.05-8.51-5.6-18.78-4.8-28.41c-1.9,1.26-3.9,2.38-6.06,3.15c1.74-3.01,4.85-4.76,6.89-7.51c-2.52,1.25-5.31,2.57-6.8,5.07
		c-0.8,3.2-0.92,6.78-3.88,8.91c0.13-5.04-0.28-11.36,3.96-14.94c6.08-4.05,13.76-2.79,20.51-1.55c9.43,1.12,17.66,6.82,27.15,7.61
		c6.21,0.33,10.8-5.07,12.62-10.47c1.45-4.91,0.6-10.2,2.19-15.1c0.87-3.81,4.63-6.24,5.06-10.2c1.03-6.77-1.41-13.36-3.49-19.68
		c-1.97-5.78-1.19-11.97-0.89-17.94c0.08-5.23,1.82-10.21,2.54-15.35c1.48,3.13,3.43,6.08,4.4,9.43c0.2,4.8-0.56,9.62,0,14.42
		c6.21-5.67,5.28-14.97,6.33-22.59c0.8,1.14,1.6,2.28,2.39,3.43c0.24-0.6,0.71-1.81,0.94-2.41c6.43-0.03,12.72,1.67,18.9,3.31
		c-1.32-2.4-4.51-2.99-6.54-4.73c-0.05,0.42-0.15,1.25-0.2,1.67c-4.04-0.52-8.21-0.78-11.98-2.45c-1.06-2.4-1.24-5.07-1.78-7.61
		c7.65,0.63,15.39,1.13,22.75,3.49c-1.37,0.33-2.75,0.61-4.14,0.86c3.19,3.88,5.28,8.47,7.7,12.84c-1.22-3.87-3.01-7.5-4.84-11.1
		c0.06-0.24,0.18-0.71,0.24-0.95c4.2-0.84,7.85,3.08,11.58,4.7c-1.36-3.91-3.17-7.69-5.7-10.98c-4.81-6.12-10.18-12.07-17.22-15.65
		c1.77,3.91,5.88,5.85,7.98,9.54c-2.35-1.31-4.71-2.6-7.18-3.65c1.35,1.83,2.96,3.75,5.38,4.03c1.34,0.3,2.7,0.53,4.05,0.81
		c-0.28,1.55-0.56,3.11-0.83,4.67c0.76,0.76,1.52,1.52,2.28,2.28c-4.55-0.96-9.22-0.15-13.76-1.09c-2.95-0.53-5.94-0.61-8.92-0.62
		c-0.44-2.32-0.86-4.64-1.25-6.96c1.07,0.47,2.16,0.95,3.24,1.43c-4.74-6.54-6.81-14.51-6.78-22.52c-1.76,1.58-1.4,4.13-2.02,6.21
		c-0.99,5.11-4.52,9.68-4.19,15.03c0.03,2.75,2.08,4.67,3.79,6.55c-2.98-0.25-5.97-0.44-8.97-0.58c-0.57-1.32-1.13-2.63-1.68-3.95
		c0.59-0.95,1.28-1.85,1.66-2.9c-1.86-1.35-3.83-2.52-5.63-3.94c1.17-1.43,2.3-2.89,3.38-4.38c-3.07,0.88-6.18,1.65-9.35,2.09
		c2.31-2.64,5.2-4.75,7.12-7.71c-3.93,1.79-7.37,4.71-11.7,5.52c-10.66,3.45-22.55,2.18-32.66,7.51c5.09-0.28,10.04-2.06,15.18-1.61
		c5.65,0.46,11.54,0.58,16.69,3.24c3.18,1.63,6.99,3.37,7.85,7.23c-9.73-6.87-22.37-10.66-34.13-7.46
		c8.59,1.68,18.97,0.52,25.67,7.18c-6.47,0.65-12.95,1.23-19.35,2.44c-0.52-0.51-1.57-1.53-2.1-2.03c-1.58,0.88-3.05,1.95-4.32,3.24
		c0.85,0.97,1.71,1.95,2.57,2.92c6.35-2.66,13.3-3,20-4.2c3.77-0.41,8.9-1.57,10.92,2.73c-3.55,1.23-7.66,0.52-10.81,2.9
		c-2.22-0.57-4.97-1.99-6.97-0.13c-0.37,4.49,5.03,1.93,7.43,1.58c2.53-0.07,5.04,0.2,7.56,0.34c0.15,0.8,0.45,2.41,0.6,3.21
		c-9.56-1.13-19.19-1.19-28.78-0.63c-0.68-0.81-1.36-1.61-2.04-2.4c-0.85,0.72-1.72,1.43-2.5,2.24c-0.65,1.76,1.67,2.26,2.6,3.26
		c0.52-0.56,1.57-1.69,2.1-2.25c9.69-0.04,19.38,0.52,29.04,1.32c-1.03,4.71-5.91,6.32-8.34,10.05c5.91-0.75,9.53-6.35,15.23-7.42
		c-2.29,3.16-5.08,6.13-8.69,7.78c-5.14,2.36-10.89,2.54-16.39,3.42c-3.67,0.61-7.43,0.3-10.86-1.17
		c-7.31-1.18-14.55-2.92-21.52-5.45c0.06-0.75,0.17-2.26,0.23-3.01c-2.81-0.81-5.74-0.94-8.65-0.85c1.41-1.28,2.81-2.57,4.2-3.87
		c0.38-1.26,0.72-2.53,1.24-3.73c1.86-1.03,4.06-0.76,6.11-0.97c-0.35-2.99-1.61-6.23,0.05-9.04c0.79,2.74,1.46,5.51,2.07,8.29
		c0.17-0.06,0.51-0.19,0.68-0.26c-0.48-2.95-0.75-5.94-0.93-8.92c0.42-0.36,1.24-1.09,1.65-1.45c-1.03-1.46-2.06-2.9-3.11-4.33
		c0.19-0.4,0.57-1.2,0.76-1.59c-2.93-5.2,1.41-10.31,2.8-15.25c-6.31,4.03-7.26,12.03-10.13,18.33c-0.2-2.47-0.29-4.95-0.43-7.42
		c-2.9,2.94-2.61,7.19-2.8,10.98c-4.9,1.1-9.77,2.45-14.28,4.72c-1.98-1.19-4.48-1.84-5.96-3.66c1.63-4.41,4.08-8.5,5.24-13.09
		c-3.38,3.53-7.25,6.52-11.29,9.24c0.22,0.44,0.66,1.32,0.88,1.76c-1.6,1.36-3.55,2.47-4.56,4.37c-1.12,2.38-0.07,4.95,0.62,7.28
		c1.73,0.41,3.67,0.42,5.17,1.49c1.45,1.61,2.02,3.84,3.57,5.38c3,2.35,6.83,3.13,10.39,4.26c-1.4,6.8-7.09,11.75-13.14,14.54
		c-5.06,1.31-10.88-0.64-14.23-4.63c2.4-0.7,4.81-1.37,7.21-2.08c-0.34-1.3-0.7-2.61-1.06-3.9c1.71-0.48,3.42-0.98,5.14-1.47
		c0.2-0.85,0.61-2.55,0.82-3.4c-0.55-0.05-1.63-0.17-2.17-0.23c-3.72,3.86-9.1,5.32-14.15,6.55c-0.28-1.79-0.54-3.59-0.78-5.39
		c2.65-0.94,5.45-1.19,8.21-1.59c2.62-2.06-0.11-4.28-2.56-3.99c-1.5,1.48-3.34,2.53-5.5,2.54c1.93-6.72,6.15-12.61,11.64-16.89
		c0.51-3.21,1.02-6.57,3.07-9.22c3.95-5.38,8.86-10.15,14.76-13.37c-3.71-2.38-6.66-5.71-10.29-8.17
		c-5.87-3.88-13.86-0.95-19.58-5.22c-2.56-1.68-3.73-4.6-4.67-7.38c3.26,1.6,6.49,3.41,10.16,3.81c-0.91-2.28-1.8-4.56-2.6-6.88
		c4.01,1.95,8.33,2.97,12.63,4.04c5.17,1.34,6.05,7.95,10.86,9.87c1.36,0.49,2.82,0.6,4.25,0.83c-1.46-1.21-3.08-2.24-4.38-3.63
		c-1.83-2.51-2.76-5.68-5.2-7.74c-3.02-2.69-7.03-3.71-10.8-4.82c3.7-6.11,10.43-9.18,16.21-12.93c-0.86-0.19-2.6-0.57-3.47-0.76
		c1.88-1.37,3.83-2.65,5.59-4.17c3.28-2.73,3.85-7.23,5.59-10.9c2.19,2.15,4.59,4.11,7.4,5.42c-0.83,3.61-2.34,7-3.54,10.5
		c2.1-0.72,2.85-2.91,4.03-4.55c2.49-3.98,6.56-6.73,10.99-8.14c-0.6,5.3-0.62,10.77,1.59,15.74c2.78-4.69,5.13-10.15,10.24-12.78
		c5.77-3.05,11.77-6.87,18.58-6.35c-4.19,5.75-11.7,7.3-17.07,11.63c3.09-0.11,6.14-0.65,9.12-1.47c5.73-1.5,11.71-2.38,17.03-5.13
		c3.64-1.88,6.55-5.1,10.6-6.17c3.86-0.97,8.1-0.92,11.74,0.81c-2.74,0.34-5.51,0.15-8.26,0.21c-3.15,0.01-5.71,2.02-8.17,3.71
		c3.24,0.14,6.59-0.48,9.72,0.6c-0.14-0.92-0.32-1.85-0.47-2.77c1.13,0.25,3.39,0.73,4.52,0.98c-2.23,2.67-4.56,5.34-5.68,8.7
		c6.46-3.22,12.58-7.26,19.48-9.5C133.2,296.64,138.14,298.61,142.99,298.87 M31.17,310.53c0.71,0.73,1.43,1.45,2.16,2.16
		c-3.93,3.33-8.78,5.45-12.34,9.2c4.8-1.81,8.98-4.93,13.13-7.88c2.97-2.06,2.97-5.91,2.75-9.14
		C34.91,306.69,33.04,308.61,31.17,310.53 M88.96,308.8c0.04,3.5-0.02,7.12-1.89,10.21c-1.9-2.24-3.95-4.37-6.27-6.19
		c-1.45,3.02-2.61,6.57-5.79,8.22c-3.5,2.27-8.77,2.69-10.61,6.89c-0.16,3.59-0.1,7.22-1.8,10.52c3.9-0.97,4.54-5.5,6.53-8.39
		c2.76-5.17,8.92-6.34,13.66-8.95c-0.5,1.8-1,3.6-1.49,5.4c4.23-1.6,8.1-4.07,11.08-7.51c0.34,1.56,0.64,3.13,1.15,4.66
		c1.82-0.09,2.51-2.34,4.08-3.07c3.62-1.64,7.38-2.97,10.87-4.91c0.21,2.73-0.84,5.27-1.74,7.79c3.37-0.4,5.84-2.96,8.8-4.35
		c0.25,3.44-0.23,7.88-3.78,9.51c-5.27,2.13-11.01,3.43-16.73,3.03c-6.91-0.55-14.49,0.64-19.81,5.42c-2.81,2.19-5,5.23-8.31,6.73
		c-2.91,1.54-5.87-0.64-8.61-1.49c0.94,3.19,3.55,5.63,6.72,6.55c3.4,1.15,6.83-0.46,10.02-1.52c7.32,5.79,19.13,5,25.29-2.14
		c3.08-3.31,4.73-7.84,8.32-10.67c3.88-2.18,8.72-3.84,10.63-8.24c1.75-5.74-1.64-11.46-5.67-15.31c-0.25,0.49-0.75,1.48-1,1.98
		c-1.96-1.39-3.39-3.47-5.67-4.4c-0.38,1.3,0.32,3.31-1.26,3.97c-3.01,1.5-6.47,1.8-9.54,3.18C94.5,312.72,92.11,310.19,88.96,308.8
		 M35.58,326.55c-2.41,2.29-3.71,5.87-3.09,9.17c1.9-1.51,3.62-3.26,5.64-4.61c2.49,0.01,3.51,2.8,3.43,4.91
		c-0.23,5.11-2.57,9.78-4.97,14.19c4.98-1.54,10.05-1.03,15.03,0.15c-2.36-3.08-4.9-6.17-5.79-10.04c-0.84-3.01-1.34-7.35,1.99-9.03
		c2.83-0.21,5.27,1.62,7.88,2.4c-0.56-4.56-5.26-8.11-9.79-7.57C42.45,326.51,38.69,324.15,35.58,326.55 M10.78,330.83
		c3.55,2.62,7.3,4.98,11.07,7.26c-0.65-1.31-1.29-2.64-2.07-3.88C18.11,330.98,13.93,330.93,10.78,330.83 M97.2,351.03
		c-7.55,3.42-16.1,2.99-24.06,1.47l0.42,1.62c8.33,2.52,17.77,3.84,26,0.27c3.39-1.83,7.69-4.8,6.83-9.23
		C103.41,347.23,100.67,349.76,97.2,351.03 M37.58,351.03c1,0.81,2.06,1.55,3.15,2.25c-1.31,0.97-2.57,2.01-3.81,3.05
		c0.72,0.19,2.18,0.56,2.91,0.74c-0.63,0.93-1.26,1.87-1.88,2.8c0.65,0.11,1.95,0.33,2.6,0.44c0.48,1.37,0.96,2.74,1.43,4.12
		c1.72-4.43,4.53-8.29,6.38-12.64C44.88,350.65,41.19,350.6,37.58,351.03z"/>
	<path class="st5" d="M114.83,374.4c-0.04-0.13-0.11-0.37-0.15-0.5L114.83,374.4z"/>
</g>
<g id="_x23_fc941dff">
	<path class="st6" d="M16.31,294.16c5.51,1.61,11.23,0.61,16.82,1.41c-1.23,1.68-3.48,0.91-5.22,1.32c1.06,1.08,2.72,1.43,3.49,2.81
		c-5.01,0.74-9.16-2.3-13.62-3.91c1.56,4.39,4.81,7.87,8.2,10.94c-3.57,2.02-6.67-1.42-8.41-4.23
		C15.88,300.05,16.37,296.95,16.31,294.16z"/>
</g>
<path class="st7" d="M31.17,310.53c1.87-1.92,3.74-3.84,5.7-5.66c0.22,3.23,0.22,7.08-2.75,9.14c-4.15,2.95-8.33,6.07-13.13,7.88
	c3.56-3.75,8.41-5.87,12.34-9.2C32.6,311.98,31.88,311.26,31.17,310.53z"/>
<path class="st8" d="M37.34,394.95c1.7,0.89,3.3,1.98,4.8,3.19c-1.8,0.74-3.69,1.19-5.64,1.19
	C36.45,397.82,36.86,396.36,37.34,394.95z"/>
<g id="_x23_f7b85eff">
	<path class="st9" d="M10.78,330.83c3.15,0.1,7.33,0.15,9,3.38c0.78,1.24,1.42,2.57,2.07,3.88
		C18.08,335.81,14.33,333.45,10.78,330.83z"/>
</g>
<g id="_x23_fdc057ff">
	<path class="st10" d="M37.58,351.03c3.61-0.43,7.3-0.38,10.78,0.76c-1.85,4.35-4.66,8.21-6.38,12.64
		c-0.47-1.38-0.95-2.75-1.43-4.12c-0.65-0.11-1.95-0.33-2.6-0.44c0.62-0.93,1.25-1.87,1.88-2.8c-0.73-0.18-2.19-0.55-2.91-0.74
		c1.24-1.04,2.5-2.08,3.81-3.05C39.64,352.58,38.58,351.84,37.58,351.03z"/>
</g>
<g id="_x23_f99c34ff">
	<path class="st11" d="M3.78,355.18c0.59-1.51,1.22-3.02,2.1-4.39c1.97,2.42,3.98,4.95,6.8,6.43c1.19,0.89,3.06,1.26,3.21,3.07
		c-2.55-0.19-5.1-0.77-7.32-2.06c-1.96-0.56-1.28-2.9-1.62-4.41C5.9,354.28,4.84,354.73,3.78,355.18z"/>
	<path class="st11" d="M6.63,363.16c1.44-0.37,2.49,1.3,2.39,2.57c-0.12,2.2-0.11,4.42,0.49,6.56c-0.89,0.3-1.7,1.14-2.69,0.93
		C6.4,369.89,6.44,366.51,6.63,363.16z"/>
	<path class="st11" d="M4.81,400.38c2.3-0.6,4.72-2.28,7.12-1.19C10.12,400.79,6,404.4,4.81,400.38z"/>
</g>
<g id="_x23_915611ff">
	<path class="st12" d="M141.69,363.04c2.47,1.05,4.83,2.34,7.18,3.65l-1.8,0.38C144.65,366.79,143.04,364.87,141.69,363.04z"/>
</g>
<g id="_x23_dc531eff">
	<path class="st13" d="M-2.87,372.11c1.73-3.23,3.02-7.11,6.28-9.13c-0.15,4.33-0.31,8.72,0.92,12.93
		c-1.48,2.08-2.56,4.63-4.84,5.96c0.38-1.66,0.81-3.31,1.2-4.97c-3.33,1-2.12,5.23-2.09,7.81c-0.66,2.2-1.14,4.7-2.91,6.32
		C-6.08,384.78-5.77,377.97-2.87,372.11z"/>
	<path class="st13" d="M173.43,478.64c2.8,1.99,4.65,4.91,6.23,7.9c-1.7,0.42-3.4,0.87-5.12,1.24
		C174.1,484.74,173.7,481.7,173.43,478.64z"/>
</g>
<g id="_x23_f3901cff">
	<path class="st14" d="M114.68,373.9c2.18-0.54,4.42-0.49,6.64-0.33c-0.63,2.03-1.24,4.07-1.82,6.11c-3.57,1.2-3.87-2.93-4.67-5.28
		L114.68,373.9z"/>
</g>
<g id="_x23_9f5e12ff">
	<path class="st15" d="M103.83,378.2c0.08,0.37,0.23,1.11,0.31,1.48c-0.93-0.02-2.79-0.05-3.72-0.07c0.2,1.09,0.41,2.18,0.62,3.28
		c-2.52-0.14-5.03-0.41-7.56-0.34c-0.11-0.37-0.34-1.09-0.46-1.45C96.17,378.72,100.28,379.43,103.83,378.2z"/>
</g>
<g id="_x23_fefefeff">
	<path class="st16" d="M17.34,444.38c1.01-3.38,3.12-6.31,5.99-8.33c-0.4,2.09-0.72,4.21-1.39,6.24c-1.01,0.76-2.09,1.41-3.22,1.98
		C18.37,444.3,17.68,444.35,17.34,444.38z"/>
	<path class="st16" d="M111.72,441.44c-0.01-1.99,0.14-4,1.18-5.74l0.57,0.74c0.36,0.44,1.07,1.31,1.43,1.75
		C114.12,439.52,113.02,440.61,111.72,441.44z"/>
	<path class="st16" d="M108.66,439.26c3.82,1.36,4.06,6.71,0.14,8C108.58,444.6,108.48,441.92,108.66,439.26z"/>
	<path class="st16" d="M-4.36,515.73c6.37-0.24,12.74-0.67,19.12-0.79c4.22,15.25,10.76,29.69,16.44,44.42
		c9.45-1.48,18.89-3.11,28.29-4.93c1.94,4.32,3.32,8.88,4.51,13.47c-14.71,2.44-29.3,5.62-44.02,7.99
		C11.5,555.99,1.42,536.65-4.36,515.73 M7.96,543.17c0.27,2.75,1.7,5.15,2.85,7.61c1.13,3.84,3.37,7.19,5.2,10.72
		c4.31-0.73,8.61-1.52,12.96-1.95c-0.77-3.94-2.55-7.56-3.95-11.3l-0.49,0.08c-1-2.22-0.96-5.47-2.89-7.02
		C17.04,541.52,12.55,542.79,7.96,543.17z"/>
</g>
<g id="_x23_cd4f1dff">
	<path class="st17" d="M48.82,439.87c0.9-1.37,2.38-2.14,3.97-2.4c0.88,3.26,2,6.44,2.8,9.72l-0.82-0.18
		C51.49,446.44,48.99,443.11,48.82,439.87z"/>
</g>
<g id="_x23_fdfdfdff">
	<path class="st18" d="M70.41,445.95c3.3,1.22,4.35,4.75,4.15,7.96c-1.1-0.12-3.3-0.34-4.4-0.45
		C69.83,450.95,69.81,448.42,70.41,445.95z"/>
	<path class="st18" d="M198.51,482.47c16.78-5.51,33.86-10.11,50.64-15.58c0.25,4.67,0.41,9.34,0.54,14.01
		c-11,2.95-21.9,6.27-32.97,8.94c-0.07,3.23-0.09,6.47-0.1,9.7c5.46-0.92,10.77-2.51,16.16-3.75c0.31-0.07,0.92-0.21,1.23-0.29
		c2.71-0.59,5.37-1.41,8.08-1.97c4.3-1.26,7.07,3.26,10.17,5.42c-0.48,6.19-0.77,12.4-1.31,18.59c-0.33-0.99-1.01-2.96-1.34-3.95
		c0.42-4.61,0.67-9.23,0.98-13.85c-12,1.6-23.75,4.72-35.65,6.89c-4.86,1.03-9.86,1.6-14.44,3.63c-1.05-0.82-1.81-1.92-1.69-3.3
		C198.38,498.81,197.96,490.62,198.51,482.47z"/>
	<path class="st18" d="M137.42,498.03c18.31-3.58,36.36-8.41,54.6-12.28c1.77-0.61,2.45,1.72,2.43,3.04
		c1.3,18.02,1.84,36.08,2.41,54.14c-5.2,1-10.4,2.03-15.61,2.97c-0.21,0.04-0.64,0.14-0.86,0.19c-1.21-13.36-2.08-26.75-3.09-40.12
		c-0.16-1.54-0.46-3.05-0.91-4.53c0.18-0.36,0.56-1.07,0.74-1.42c-2.37,0.37-4.71,0.9-7.07,1.37c-4.28,0.88-8.54,1.85-12.8,2.8
		c1.58,15.08,3.12,30.17,5.2,45.19c-5.56,1.23-11.17,2.22-16.78,3.22C142.87,534.42,140.22,516.21,137.42,498.03 M180.27,513.34
		c0.08,4.08-0.01,8.24,0.99,12.23c-0.43,3.09-0.11,6.27,1.03,9.18c1.24,0.83,2.76-0.18,4.12-0.18c2.42-0.57,5.25-0.2,7.27-1.91
		c1.03-2.58,0.4-5.45,0.26-8.13c-0.03-4.48,0.06-8.96-0.22-13.43C189.23,511.8,184.76,512.64,180.27,513.34 M143.17,519.96
		c0.71,6.01,1.89,11.96,2.87,17.93c-0.24,2.36,0.62,4.63,1.24,6.86c3.59,0.51,7.17-0.05,10.62-1.07c0.73-4.95,0.77-10.39-0.92-15.09
		c-0.16-3.54-0.13-7.15-1.15-10.57C151.67,517.42,147.33,519.23,143.17,519.96z"/>
	<path class="st18" d="M51.11,511.55c6.31-0.37,12.58-1.29,18.86-2c4.55,18.31,10.38,36.27,15.41,54.45
		c-5.67,0.68-11.18,2.26-16.85,2.87C62.98,548.36,55.86,530.3,51.11,511.55 M60.15,534.77c1.33,4.4,3.03,8.66,4.43,13.04
		c4.51,1.07,8.9-1.67,13.43-0.27c-0.67-5.16-2.34-10.09-3.9-15.02C69.39,532.65,64.67,533.42,60.15,534.77z"/>
</g>
<g id="_x23_201f1fff">
	<path class="st19" d="M232.56,469.99c4.13-1.63,10.01-1.35,12.08-6.03l-0.92,2.56c1.78-0.64,3.56-1.29,5.34-1.96
		c2.67,1.85,1.98,5.44,2.35,8.27c-0.12,3.05,0.91,6.3-0.18,9.23c-5.33,2.37-11.26,3.07-16.67,5.3c-3.86,0.86-7.75,1.6-11.52,2.79
		c-1.48,0.44-2.94,0.9-4.41,1.37c-0.03,1.77-0.07,3.54-0.11,5.32c0.29-0.05,0.86-0.15,1.15-0.2c4.36-0.06,8.99-3.15,13.11-0.85
		c-5.39,1.24-10.7,2.83-16.16,3.75c0.01-3.23,0.03-6.47,0.1-9.7c11.07-2.67,21.97-5.99,32.97-8.94c-0.13-4.67-0.29-9.34-0.54-14.01
		c-16.78,5.47-33.86,10.07-50.64,15.58c-0.55,8.15-0.13,16.34,0.3,24.49c-0.12,1.38,0.64,2.48,1.69,3.3
		c2.81,1.98,5.73,3.81,8.6,5.72c1.38-0.39,2.77-0.76,4.15-1.16c6.97-1.29,13.91-2.78,20.83-4.33c-0.28,3.7-0.37,7.41-0.5,11.12
		c-11.14,2.26-22.33,4.34-33.43,6.79c0.19,4.61,0.34,9.22,0.56,13.84c12.43-2.37,24.87-4.75,37.31-7.11
		c1.28-0.27,2.69-0.57,3.53-1.69c2.7-3.03,5.33-6.12,8.02-9.15c1.68-1.82,1.07-4.5,1.38-6.75c0.54-6.19,0.83-12.4,1.31-18.59
		c-3.1-2.16-5.87-6.68-10.17-5.42c-2.71,0.56-5.37,1.38-8.08,1.97c-0.38-0.38-1.15-1.13-1.53-1.51c3.49-0.85,6.92-1.96,10.45-2.63
		c2.93-0.77,5.14,1.74,7.28,3.28c1.64,1.46,4.11,2.87,3.95,5.4c-0.78,7.98-0.72,16.06-1.89,24c-3.54,4.09-7.02,8.33-10.84,12.15
		c-9.57,2.36-19.37,3.74-29.03,5.72c-4.26,0.66-8.45,2.12-12.8,1.79c-0.27,0.3-0.81,0.9-1.08,1.19c-5.28,0.11-10.31,2.29-15.59,2.15
		c-0.42-0.29-1.26-0.86-1.68-1.14c5.21-0.94,10.41-1.97,15.61-2.97c-0.57-18.06-1.11-36.12-2.41-54.14
		c0.02-1.32-0.66-3.65-2.43-3.04c-18.24,3.87-36.29,8.7-54.6,12.28c2.8,18.18,5.45,36.39,8.26,54.57c5.61-1,11.22-1.99,16.78-3.22
		c-2.08-15.02-3.62-30.11-5.2-45.19c4.26-0.95,8.52-1.92,12.8-2.8c-0.29,0.58-0.87,1.73-1.16,2.31c-3.28,0.6-6.52,1.34-9.77,2.07
		c0.45,3.53,1.18,7.04,2.47,10.37c-1.91,5.05,0.65,10.34,0.95,15.49c0.1,5.12,0.81,10.2,1.47,15.28c0.15,1.51,0.58,3.86-1.4,4.34
		c-4.47,1.17-9.08,1.77-13.6,2.73c-1.69,0.09-4.27,1.27-5.07-0.92c-0.81-2.64-0.92-5.43-1.57-8.1c-4.21,2.97-5.93,8.27-9.53,11.85
		c-2.9,1.19-6.09,1.37-9.14,1.96c0.18,2.24,0.38,4.49,0.47,6.75c-2.06-1.49-3.06-4.37-5.22-5.5c-6.42,0.51-12.69,2.31-19.06,3.27
		c-1.24-0.55-2.46-1.08-3.69-1.61c-0.16,1.01-0.49,3.05-0.66,4.07c-1.52-2.06-2.59-4.38-3.86-6.58c-1.95-1.88-4.51-2.93-6.82-4.27
		c0.77,3.3,2.1,6.52,2.19,9.94c-3.27,1.98-7.3,1.91-10.94,2.81c-2.84,0.33-5.87,1.61-8.67,0.74c-2.66-5.09-3.62-10.87-5.6-16.24
		c-3.69-10.3-6.71-20.82-10.43-31.1c-0.47-2.64-1.24-5.2-1.99-7.76c-0.17-0.62-0.5-1.86-0.67-2.48c4.63-1.87,9.71-1.74,14.56-2.55
		c2.58-0.32,5.18-0.51,7.77-0.68c0.83,2.82,1.62,5.66,2.28,8.53c0.7-0.83,1.39-1.67,2.07-2.51c1.31-1.13,2.61-2.29,3.96-3.38
		c2.27-1.74,4.56-3.46,6.88-5.13c0.28-0.18,0.83-0.56,1.1-0.74c1.39,0.46,2.79,0.94,4.18,1.43c-0.06-0.43-0.18-1.27-0.24-1.69
		c3.36,0.5,6.76,0.22,9.91-1.11c3.74-0.95,7.61-1.26,11.33-2.31c4.72-0.73,9.74-1.69,14.32,0.23c3.2,1.23,6.38,2.52,9.56,3.8
		c-0.21-2.58-1.28-5.29-0.51-7.85c10.98-3.1,22.33-4.98,33.33-8.13c1.75-0.37,3.52-0.61,5.28-0.94c1.72-0.37,3.42-0.82,5.12-1.24
		c3.86-0.83,7.64-1.98,11.47-2.93c1.7-0.1,3.41-0.1,5.12-0.12c0.63-1.35,0.82-3.31,2.68-3.44
		C210.15,476.74,221.38,473.44,232.56,469.99 M91.04,506.42c-6.17,0.48-10.41,5.61-14.93,9.25c2.87,10.24,5.72,20.48,8.62,30.71
		c0.81,2.49,1.07,5.28,2.52,7.51c4.06,2.74,8.55,4.8,12.66,7.48c10.54-2.23,21.23-3.8,31.76-6.07c2.07-2.25,3.43-5.05,5.39-7.4
		c1.26-1.8,3.51-3.49,2.74-5.98c-1.79-12.07-3.96-24.09-5.64-36.17c-5.36-1.34-10.4-5.45-16.15-3.96
		C109.06,503.59,100.07,505.12,91.04,506.42 M136,505.49c-0.03,3.72,0.99,7.33,1.21,11.03l0.9-0.71
		C137.86,512.42,138.28,508.23,136,505.49 M51.11,511.55c4.75,18.75,11.87,36.81,17.42,55.32c5.67-0.61,11.18-2.19,16.85-2.87
		c-5.03-18.18-10.86-36.14-15.41-54.45C63.69,510.26,57.42,511.18,51.11,511.55 M197.8,511.2c0.27,5.28,0.68,10.55,0.53,15.83
		c1.06-0.42,2.27-0.59,3.16-1.35c4.19-0.37,8.42-0.87,12.45-2.12c5.95-0.85,11.79-2.34,17.7-3.45c0.14-2.3,0.32-4.6,0.61-6.88
		c-4.44,0.67-8.82,1.67-13.18,2.7c-3.95,0.65-7.88,1.68-11.9,1.47C204.13,515.21,201.07,513.04,197.8,511.2 M73.22,516.56
		c1.15,3.66,2.29,7.33,3.21,11.06c0.69,2.34,1.14,5.04,3.24,6.58c-0.95-4.55-2.75-8.86-3.7-13.4
		C75.39,519.18,75.57,516.49,73.22,516.56z"/>
</g>
<g id="_x23_e4571fff">
	<path class="st20" d="M218.63,491.52c1.47-0.47,2.93-0.93,4.41-1.37c-1.12,2.17-2.19,4.36-3.37,6.49c-0.29,0.05-0.86,0.15-1.15,0.2
		C218.56,495.06,218.6,493.29,218.63,491.52z"/>
	<path class="st20" d="M71.94,504.47c2.62,1.74,5.07,3.72,7.46,5.75c-1.35,1.09-2.65,2.25-3.96,3.38
		C73.87,510.73,72.65,507.67,71.94,504.47z"/>
</g>
<g id="_x23_dbdcddff">
	<path class="st21" d="M214.94,506.63c11.9-2.17,23.65-5.29,35.65-6.89c-0.31,4.62-0.56,9.24-0.98,13.85
		c-0.24,1.83-0.51,3.65-0.71,5.48c-0.79-1.18-1.09-3.32-2.91-3.23c-3.38-0.03-6.62,1.07-9.85,1.91c0.02-2.52,0.2-5.12-0.51-7.56
		c-0.54-1.6-2.26-1.12-3.54-1.02c-3.77,0.54-7.42,1.71-11.15,2.48c-2.69,0.65-5.75,0.95-7.69,3.17c-1.38,0.4-2.77,0.77-4.15,1.16
		c-2.87-1.91-5.79-3.74-8.6-5.72C205.08,508.23,210.08,507.66,214.94,506.63z"/>
	<path class="st21" d="M180.27,513.34c4.49-0.7,8.96-1.54,13.45-2.24c0.28,4.47,0.19,8.95,0.22,13.43
		c-4.11,0.04-8.73-0.31-11.85,2.9c-0.21-0.47-0.62-1.39-0.83-1.86C180.26,521.58,180.35,517.42,180.27,513.34z"/>
</g>
<g id="_x23_202529ff">
	<path class="st22" d="M176.39,501.44c0.45,1.48,0.75,2.99,0.91,4.53c1.01,13.37,1.88,26.76,3.09,40.12
		c-0.41,0.41-1.25,1.23-1.67,1.63c-1.62-11.23-1.84-22.6-2.87-33.89C175.53,509.71,174.89,505.43,176.39,501.44z"/>
</g>
<g id="_x23_763a22ff">
	<path class="st23" d="M136,505.49c2.28,2.74,1.86,6.93,2.11,10.32l-0.9,0.71C136.99,512.82,135.97,509.21,136,505.49z"/>
</g>
<g id="_x23_f2f2f2ff">
	<path class="st24" d="M220.94,511.65c3.73-0.77,7.38-1.94,11.15-2.48c1.28-0.1,3-0.58,3.54,1.02c0.71,2.44,0.53,5.04,0.51,7.56
		c-0.49,1.76,0.19,4.6-2.06,5.25c-5.83,2.41-12.26,2.69-18.21,4.75c7.44-0.11,14.75-1.74,22.11-2.63c3.26-0.57,6.65-0.45,9.84-1.38
		c0.86-1.39,0.84-3.1,1.08-4.67c0.2-1.83,0.47-3.65,0.71-5.48c0.33,0.99,1.01,2.96,1.34,3.95c-0.31,2.25,0.3,4.93-1.38,6.75
		c-2.69,3.03-5.32,6.12-8.02,9.15c-0.84,1.12-2.25,1.42-3.53,1.69c-12.44,2.36-24.88,4.74-37.31,7.11
		c-0.22-4.62-0.37-9.23-0.56-13.84c11.1-2.45,22.29-4.53,33.43-6.79c0.13-3.71,0.22-7.42,0.5-11.12
		c-6.92,1.55-13.86,3.04-20.83,4.33C215.19,512.6,218.25,512.3,220.94,511.65z"/>
	<path class="st24" d="M156.98,528.59c1.69,4.7,1.65,10.14,0.92,15.09c-3.45,1.02-7.03,1.58-10.62,1.07
		c-0.62-2.23-1.48-4.5-1.24-6.86c2.58-3.25,7.07-2.52,10.75-2.69C156.86,532.99,156.94,530.79,156.98,528.59z"/>
	<path class="st24" d="M123.24,534.53c0.19,0.44,0.56,1.31,0.75,1.75c3.5-1.9,7.53-1.15,11.32-1l0.47,0.03
		c0.32,2.55,0.65,5.1,1.13,7.63c-1.53,2.1-2.88,4.94-5.82,5.19c-8.99,1.57-18.12,2.1-27.14,3.45c-4.89,0.17-9.7,1.61-14.62,1.08
		c-1.98-3.69-2.99-7.79-3.56-11.92c3.81-0.75,7.66-1.38,11.55-1.58l0.51-0.03c0.63,2.96,1.42,5.89,2.31,8.8
		c5.59,0.69,11.09-0.74,16.61-1.41c2.36-0.4,4.86-0.63,6.97-1.86C124.59,541.34,122.92,537.92,123.24,534.53z"/>
</g>
<g id="_x23_2a2c2dff">
	<path class="st25" d="M101.62,515.29c4.78-1.3,9.72-1.86,14.57-2.82c1.16,5.01,1.52,10.22,3.3,15.07
		c0.09,5.23,1.86,10.25,2.56,15.42c-6.43,1.12-12.8,2.59-19.28,3.4l0.49-0.19c2.21-0.79,4.46-1.44,6.74-1.97
		c3.48-0.81,6.97-1.6,10.48-2.31c-1.31-4.25-4.15-8.47-1.9-12.93l-0.49-0.13c-0.19-1.78-0.36-3.56-0.6-5.32
		c-0.41-1.48-0.9-2.92-1.63-4.26c-0.49-1.41-0.81-2.86-1.14-4.3c-2.2,0.37-4.4,0.76-6.61,1.02
		C105.94,515.8,103.78,515.51,101.62,515.29z"/>
	<path class="st25" d="M0.92,513.29c3.37-0.29,6.75-0.53,10.13-0.58c1.86,0.12,4.54-0.59,5.35,1.69c2.18,5.38,3.16,11.27,6.44,16.19
		c1.88,9.34,6.89,17.66,9.59,26.76c4.09-1.01,8.26-1.63,12.43-2.2c5.08-0.78,10.04-2.35,15.19-2.58c2.4,1.33,2.44,4.75,3.54,7.07
		c0.7,3.14,3.18,6.46,1.89,9.68c-2.26,0.83-4.66,1.18-7.01,1.67c-3.61,0.68-7.15,1.69-10.78,2.23c-8.97,0.94-17.74,3.18-26.64,4.56
		c-2.63,0.8-3.37-2.21-4.2-3.95c-8.13-19.19-17.86-37.87-23.22-58.11C-5.43,512.63-1.51,513.82,0.92,513.29 M-4.36,515.73
		c5.78,20.92,15.86,40.26,24.34,60.16c14.72-2.37,29.31-5.55,44.02-7.99c-1.19-4.59-2.57-9.15-4.51-13.47
		c-9.4,1.82-18.84,3.45-28.29,4.93c-5.68-14.73-12.22-29.17-16.44-44.42C8.38,515.06,2.01,515.49-4.36,515.73z"/>
</g>
<g id="_x23_0d0e13ff">
	<path class="st26" d="M95.58,516.38c1.99-0.46,3.98-1.09,6.04-1.09c2.16,0.22,4.32,0.51,6.49,0.68c-1.99,0.27-3.98,0.49-5.97,0.72
		c1.1,1.22,2.21,2.44,3.31,3.68c-2.44-0.29-4.88-0.63-7.32-0.96c1.45,3.97,2.41,8.09,3.21,12.23c0.64,2.24,1.43,4.43,2.15,6.65
		c-0.22,2.08,0.25,4.15,0.57,6.21c1.63-0.18,3.27-0.37,4.91-0.56c-0.21-3.43-0.02-6.89,0.89-10.22c-0.3,3.49-0.1,6.99,0.14,10.48
		c-2.28,0.53-4.53,1.18-6.74,1.97C100.33,536.35,98.62,526.18,95.58,516.38z"/>
</g>
<g id="_x23_e6e7e7ff">
	<path class="st27" d="M236.14,517.75c3.23-0.84,6.47-1.94,9.85-1.91c1.82-0.09,2.12,2.05,2.91,3.23c-0.24,1.57-0.22,3.28-1.08,4.67
		c-3.19,0.93-6.58,0.81-9.84,1.38c-7.36,0.89-14.67,2.52-22.11,2.63c5.95-2.06,12.38-2.34,18.21-4.75
		C236.33,522.35,235.65,519.51,236.14,517.75z"/>
</g>
<g id="_x23_6e3722ff">
	<path class="st28" d="M73.22,516.56c2.35-0.07,2.17,2.62,2.75,4.24c0.95,4.54,2.75,8.85,3.7,13.4c-2.1-1.54-2.55-4.24-3.24-6.58
		C75.51,523.89,74.37,520.22,73.22,516.56z"/>
</g>
<g id="_x23_e0e1e2ff">
	<path class="st29" d="M143.17,519.96c4.16-0.73,8.5-2.54,12.66-1.94c1.02,3.42,0.99,7.03,1.15,10.57c-0.04,2.2-0.12,4.4-0.19,6.61
		c-3.68,0.17-8.17-0.56-10.75,2.69C145.06,531.92,143.88,525.97,143.17,519.96z"/>
	<path class="st29" d="M83.11,530.29c4.07-0.72,8.12-1.59,12.23-2c0.62,3.63,1.29,7.25,1.98,10.87c-3.89,0.2-7.74,0.83-11.55,1.58
		C84.66,537.31,83.6,533.86,83.11,530.29z"/>
</g>
<g id="_x23_dfe0e0ff">
	<path class="st30" d="M120.92,523.71c4.22-0.85,8.44-1.86,12.77-1.82c0.53,4.46,1.14,8.92,1.62,13.39c-3.79-0.15-7.82-0.9-11.32,1
		c-0.19-0.44-0.56-1.31-0.75-1.75C121.99,531.04,121.46,527.35,120.92,523.71z"/>
</g>
<g id="_x23_eaeaebff">
	<path class="st31" d="M182.09,527.43c3.12-3.21,7.74-2.86,11.85-2.9c0.14,2.68,0.77,5.55-0.26,8.13c-2.02,1.71-4.85,1.34-7.27,1.91
		c-1.36,0-2.88,1.01-4.12,0.18c-1.14-2.91-1.46-6.09-1.03-9.18C181.47,526.04,181.88,526.96,182.09,527.43z"/>
</g>
<g id="_x23_db531dff">
	<path class="st32" d="M103.49,538.29c2.24-3.03,4.52-6.05,7.33-8.57c-0.32,1.33-0.66,2.66-0.96,4c-0.91,3.33-1.1,6.79-0.89,10.22
		c-1.64,0.19-3.28,0.38-4.91,0.56C103.74,542.44,103.27,540.37,103.49,538.29z"/>
</g>
<g id="_x23_e5e5e6ff">
	<path class="st33" d="M60.15,534.77c4.52-1.35,9.24-2.12,13.96-2.25c1.56,4.93,3.23,9.86,3.9,15.02c-4.53-1.4-8.92,1.34-13.43,0.27
		C63.18,543.43,61.48,539.17,60.15,534.77z"/>
</g>
<g id="_x23_e3e4e5ff">
	<path class="st34" d="M7.96,543.17c4.59-0.38,9.08-1.65,13.68-1.86c1.93,1.55,1.89,4.8,2.89,7.02c-4.59,0.73-9.2,1.37-13.72,2.45
		C9.66,548.32,8.23,545.92,7.96,543.17z"/>
</g>
<g id="_x23_f1f1f1ff">
	<path class="st35" d="M24.53,548.33l0.49-0.08c1.4,3.74,3.18,7.36,3.95,11.3c-4.35,0.43-8.65,1.22-12.96,1.95
		c-1.83-3.53-4.07-6.88-5.2-10.72C15.33,549.7,19.94,549.06,24.53,548.33z"/>
</g>
</svg>
