<?xml version="1.0" encoding="utf-8"?>
<!-- Generator: Adobe Illustrator 18.1.1, SVG Export Plug-In . SVG Version: 6.00 Build 0)  -->
<svg version="1.1" id="Layer_2" xmlns="http://www.w3.org/2000/svg" xmlns:xlink="http://www.w3.org/1999/xlink" x="0px" y="0px"
	 viewBox="156 122.9 529.9 363" enable-background="new 156 122.9 529.9 363" xml:space="preserve">
<g>
	<g>
		<polygon fill="none" points="394.9,379.6 398.4,357.6 393.1,357.6 391.7,366.1 384.7,366.1 386,357.6 380.3,357.6 376.9,379.6 
			382.6,379.6 384,370.8 391,370.8 389.6,379.6 		"/>
		<polygon fill="none" points="408.1,374.7 402,374.7 404.7,357.6 399.4,357.6 395.9,379.6 407.3,379.6 		"/>
		<g>
			<polygon fill="none" points="421,357.6 406.8,357.6 406,362.4 410.7,362.4 408.8,374.7 408.8,374.7 408,379.6 408,379.6 
				408.1,379.6 413.7,379.6 416.5,362.4 420.2,362.4 			"/>
			<polygon fill="none" points="436.2,357.6 428.8,370.9 425.6,357.6 421.9,357.6 421.7,357.6 420.8,363.3 425.1,379.6 429.6,379.6 
				442.4,357.6 			"/>
		</g>
	</g>
	<g>
		<path fill="none" d="M439.9,378c-0.2,1.2-1.3,2.2-2.5,2.2c-1.2,0-2-1-1.8-2.2c0.2-1.2,1.3-2.2,2.5-2.2
			C439.2,375.9,440,376.8,439.9,378z"/>
		<path fill="none" d="M450.4,374.2c-0.5,2.9-1.9,5.9-5.3,5.9c-3.4,0-3.9-3-3.4-5.9c0.5-2.9,1.9-6,5.3-6
			C450.4,368.2,450.9,371.2,450.4,374.2z M444.9,374.2c-0.1,0.7-0.5,3.1,0.7,3.1c1.1,0,1.5-2.4,1.7-3.1c0.1-0.7,0.4-3.1-0.7-3.1
			C445.4,371.1,445,373.5,444.9,374.2z"/>
		<path fill="none" d="M455.9,368.4l-0.2,1.4h0c0.7-1,1.6-1.7,2.9-1.8l-0.5,3.1c-0.2,0-0.3,0-0.5,0c-2.1,0-2.4,1.4-2.7,3.1l-0.9,5.7
			h-3.2l1.8-11.5H455.9z"/>
		<path fill="none" d="M460.5,381.4c-0.1,0.7,0,1.6,0.9,1.6c1.4,0,1.6-2.2,1.7-3.1l0.2-1.5h0c-0.3,0.4-0.6,0.8-1,1.1
			c-0.4,0.3-0.8,0.5-1.4,0.5c-1.2,0-1.8-0.9-2.2-1.9c-0.4-1.1-0.3-2.6-0.1-3.9c0.3-2,1.3-6.1,4.1-6.1c1.1,0,1.7,0.7,1.9,1.6h0
			l0.2-1.4h3.2l-2,12.5c-0.5,3.4-2.2,4.7-5,4.7c-2.7,0-3.7-1.6-3.5-4.2H460.5z M464.2,374.1c0.1-0.6,0.5-3.1-0.6-3.1
			c-1.1,0-1.5,2.4-1.7,3.1c-0.1,0.7-0.4,3.1,0.7,3.1C463.7,377.2,464.1,374.7,464.2,374.1z"/>
	</g>
</g>
<linearGradient id="SVGID_1_" gradientUnits="userSpaceOnUse" x1="10.8717" y1="533.1148" x2="237.028" y2="450.8007" gradientTransform="matrix(1.5748 0 0 -1.5748 123.305 937.4558)">
	<stop  offset="4.270966e-02" style="stop-color:#ABABAB"/>
	<stop  offset="0.1715" style="stop-color:#FFFFFF"/>
	<stop  offset="0.2581" style="stop-color:#A9A9A8"/>
	<stop  offset="0.3111" style="stop-color:#C4C4C3"/>
	<stop  offset="0.5272" style="stop-color:#636363"/>
	<stop  offset="0.7205" style="stop-color:#E5E5E5"/>
	<stop  offset="0.8105" style="stop-color:#9B9B9A"/>
	<stop  offset="1" style="stop-color:#BEBEBD"/>
</linearGradient>
<polygon fill="url(#SVGID_1_)" points="422.4,125 435.4,171.3 479.7,152.6 451.5,191.7 493.9,214.6 445.8,217 454.2,264.4 
	422.4,228.3 390.6,264.4 398.9,217 350.9,214.6 393.2,191.7 365,152.6 409.4,171.3 "/>
<linearGradient id="SVGID_2_" gradientUnits="userSpaceOnUse" x1="21.9" y1="347.68" x2="171.4" y2="347.68" gradientTransform="matrix(1.5748 0 0 -1.5748 123.305 937.4558)">
	<stop  offset="0" style="stop-color:#FFFFFF"/>
	<stop  offset="0.5272" style="stop-color:#636363"/>
	<stop  offset="1" style="stop-color:#BEBEBD"/>
</linearGradient>
<polygon fill="url(#SVGID_2_)" points="393.2,295.4 250.7,484.4 157.8,484.4 300.3,295.4 "/>
<linearGradient id="SVGID_3_" gradientUnits="userSpaceOnUse" x1="206.6" y1="347.68" x2="356.1" y2="347.68" gradientTransform="matrix(1.5748 0 0 -1.5748 123.305 937.4558)">
	<stop  offset="0" style="stop-color:#FFFFFF"/>
	<stop  offset="0.5272" style="stop-color:#636363"/>
	<stop  offset="1" style="stop-color:#BEBEBD"/>
</linearGradient>
<polygon fill="url(#SVGID_3_)" points="448.7,295.4 591.2,484.4 684.1,484.4 541.6,295.4 "/>
<g>
	
		<linearGradient id="SVGID_4_" gradientUnits="userSpaceOnUse" x1="190" y1="287.7013" x2="190" y2="407.7013" gradientTransform="matrix(1.5748 0 0 -1.5748 123.305 937.4558)">
		<stop  offset="0" style="stop-color:#636363"/>
		<stop  offset="0.5045" style="stop-color:#FFFFFF"/>
		<stop  offset="0.7235" style="stop-color:#B5B5B4"/>
		<stop  offset="0.9783" style="stop-color:#EAEAEA"/>
		<stop  offset="1" style="stop-color:#BEBEBD"/>
	</linearGradient>
	<path fill="url(#SVGID_4_)" d="M468.8,392.3l12-23.6l-58.3-73.2l-58.3,73.2l12,23.6c15.3-0.5,30.7-0.8,46.3-0.8
		C438.1,391.5,453.5,391.8,468.8,392.3z"/>
	
		<linearGradient id="SVGID_5_" gradientUnits="userSpaceOnUse" x1="114.6" y1="287.7013" x2="114.6" y2="405.7013" gradientTransform="matrix(1.5748 0 0 -1.5748 123.305 937.4558)">
		<stop  offset="0" style="stop-color:#636363"/>
		<stop  offset="0.5045" style="stop-color:#FFFFFF"/>
		<stop  offset="0.7235" style="stop-color:#B5B5B4"/>
		<stop  offset="0.9783" style="stop-color:#EAEAEA"/>
		<stop  offset="1" style="stop-color:#BEBEBD"/>
	</linearGradient>
	<path fill="url(#SVGID_5_)" d="M388.5,298.6h-86.6l-82.8,109.1c29.6-5.2,61.7-9.1,95.7-12L388.5,298.6z"/>
	
		<linearGradient id="SVGID_6_" gradientUnits="userSpaceOnUse" x1="263.25" y1="287.7013" x2="263.25" y2="405.7013" gradientTransform="matrix(1.5748 0 0 -1.5748 123.305 937.4558)">
		<stop  offset="0" style="stop-color:#636363"/>
		<stop  offset="0.5045" style="stop-color:#FFFFFF"/>
		<stop  offset="0.7235" style="stop-color:#B5B5B4"/>
		<stop  offset="0.9783" style="stop-color:#EAEAEA"/>
		<stop  offset="1" style="stop-color:#BEBEBD"/>
	</linearGradient>
	<path fill="url(#SVGID_6_)" d="M540,298.6h-86.6l73.5,97c33.9,2.7,65.8,6.6,95.4,11.7L540,298.6z"/>
	
		<linearGradient id="SVGID_7_" gradientUnits="userSpaceOnUse" x1="190" y1="287.68" x2="190" y2="407.68" gradientTransform="matrix(1.5748 0 0 -1.5748 123.305 937.4558)">
		<stop  offset="0" style="stop-color:#636363"/>
		<stop  offset="0.5045" style="stop-color:#FFFFFF"/>
		<stop  offset="0.7235" style="stop-color:#B5B5B4"/>
		<stop  offset="0.9783" style="stop-color:#EAEAEA"/>
		<stop  offset="1" style="stop-color:#BEBEBD"/>
	</linearGradient>
	<path fill="url(#SVGID_7_)" d="M468.8,392.3c-15.3-0.5-30.7-0.8-46.3-0.8c-15.7,0-31.2,0.3-46.3,0.8l46.3,92.1L468.8,392.3z"/>
	
		<linearGradient id="SVGID_8_" gradientUnits="userSpaceOnUse" x1="190" y1="196.8679" x2="190" y2="346.7013" gradientTransform="matrix(1.5748 0 0 -1.5748 123.305 937.4558)">
		<stop  offset="0" style="stop-color:#8A8A89"/>
		<stop  offset="0.2748" style="stop-color:#1C1C1C"/>
		<stop  offset="0.8362" style="stop-color:#B5B5B4"/>
	</linearGradient>
	<path fill="url(#SVGID_8_)" d="M468.8,392.3c-15.3-0.5-30.7-0.8-46.3-0.8c-15.7,0-31.2,0.3-46.3,0.8l46.3,92.1L468.8,392.3z"/>
	
		<linearGradient id="SVGID_9_" gradientUnits="userSpaceOnUse" x1="72.75" y1="287.68" x2="72.75" y2="405.68" gradientTransform="matrix(1.5748 0 0 -1.5748 123.305 937.4558)">
		<stop  offset="0" style="stop-color:#636363"/>
		<stop  offset="0.5045" style="stop-color:#FFFFFF"/>
		<stop  offset="0.7235" style="stop-color:#B5B5B4"/>
		<stop  offset="0.9783" style="stop-color:#EAEAEA"/>
		<stop  offset="1" style="stop-color:#BEBEBD"/>
	</linearGradient>
	<path fill="url(#SVGID_9_)" d="M247.6,484.4l67.2-88.7c-33.9,2.8-66,6.8-95.7,12l-58.1,76.7H247.6z"/>
	
		<linearGradient id="SVGID_10_" gradientUnits="userSpaceOnUse" x1="72.75" y1="196.8679" x2="72.75" y2="346.7013" gradientTransform="matrix(1.5748 0 0 -1.5748 123.305 937.4558)">
		<stop  offset="0" style="stop-color:#8A8A89"/>
		<stop  offset="0.2748" style="stop-color:#1C1C1C"/>
		<stop  offset="0.8362" style="stop-color:#B5B5B4"/>
	</linearGradient>
	<path fill="url(#SVGID_10_)" d="M247.6,484.4l67.2-88.7c-33.9,2.8-66,6.8-95.7,12l-58.1,76.7H247.6z"/>
	
		<linearGradient id="SVGID_11_" gradientUnits="userSpaceOnUse" x1="305.2" y1="287.68" x2="305.2" y2="405.68" gradientTransform="matrix(1.5748 0 0 -1.5748 123.305 937.4558)">
		<stop  offset="0" style="stop-color:#636363"/>
		<stop  offset="0.5045" style="stop-color:#FFFFFF"/>
		<stop  offset="0.7235" style="stop-color:#B5B5B4"/>
		<stop  offset="0.9783" style="stop-color:#EAEAEA"/>
		<stop  offset="1" style="stop-color:#BEBEBD"/>
	</linearGradient>
	<path fill="url(#SVGID_11_)" d="M680.9,484.4l-58.6-77.2c-29.6-5-61.7-9-95.4-11.7l67.4,88.8H680.9z"/>
	
		<linearGradient id="SVGID_12_" gradientUnits="userSpaceOnUse" x1="305.2" y1="196.8679" x2="305.2" y2="346.7013" gradientTransform="matrix(1.5748 0 0 -1.5748 123.305 937.4558)">
		<stop  offset="0" style="stop-color:#8A8A89"/>
		<stop  offset="0.2748" style="stop-color:#1C1C1C"/>
		<stop  offset="0.8362" style="stop-color:#B5B5B4"/>
	</linearGradient>
	<path fill="url(#SVGID_12_)" d="M680.9,484.4l-58.6-77.2c-29.6-5-61.7-9-95.4-11.7l67.4,88.8H680.9z"/>
</g>
<linearGradient id="SVGID_13_" gradientUnits="userSpaceOnUse" x1="189.9" y1="316.099" x2="189.9" y2="511.9653" gradientTransform="matrix(1.5748 0 0 -1.5748 123.305 937.4558)">
	<stop  offset="0" style="stop-color:#636363"/>
	<stop  offset="0.5045" style="stop-color:#FFFFFF"/>
	<stop  offset="0.7235" style="stop-color:#B5B5B4"/>
	<stop  offset="0.9783" style="stop-color:#EAEAEA"/>
	<stop  offset="1" style="stop-color:#BEBEBD"/>
</linearGradient>
<polygon fill="url(#SVGID_13_)" points="422.4,136.9 433.2,175.4 470.1,159.8 446.6,192.3 481.7,211.3 441.9,213.2 448.8,252.6 
	422.4,222.7 395.9,252.6 403,213.2 363,211.3 398.1,192.3 374.8,159.8 411.7,175.4 "/>
</svg>
