<?xml version="1.0" encoding="utf-8"?>
<!-- Generator: Adobe Illustrator 19.0.0, SVG Export Plug-In . SVG Version: 6.00 Build 0)  -->
<svg version="1.1" id="Layer_1" xmlns="http://www.w3.org/2000/svg" xmlns:xlink="http://www.w3.org/1999/xlink" x="0px" y="0px"
	 viewBox="323.7 163.4 453 461" style="enable-background:new 323.7 163.4 453 461;" xml:space="preserve">
<style type="text/css">
	.st0{fill:#FFFFFF;}
	.st1{fill:#151E28;}
	.st2{fill:url(#SVGID_1_);}
	.st3{fill:url(#SVGID_2_);}
</style>
<g>
	<path class="st0" d="M530.3,616.1c-152.3-67.5-194.6-261.3-204-319l-2.7-18.4l59.7-79.3h69.6l34.5-36H613l34.5,36H717l59.7,79.3
		l-2.6,18.1c-9.4,58.1-51.7,251.9-204,319.3l-19.9,8.2L530.3,616.1z"/>
	<path class="st1" d="M708.2,217.1h-68.3l-34.5-36h-55.2h-55.2l-34.5,36h-68.3l-49.9,66.4l1.6,10.8c7.7,47.8,47.5,240.9,193.7,305.7
		l12.7,5.2l12.7-5.2C709,535.2,748.8,342,756.5,294.3l1.6-10.8L708.2,217.1z"/>
	<path class="st1" d="M708.8,217.1h-68.3l-34.5-36h-55.2h-55.2l-34.5,36h-68.3l-49.9,66.4l1.6,10.8c7.7,47.8,47.5,240.9,193.7,305.7
		l12.7,5.2l12.7-5.2C709.7,535.2,749.5,342,757.2,294.3l1.6-10.8L708.8,217.1z"/>
	
		<linearGradient id="SVGID_1_" gradientUnits="userSpaceOnUse" x1="550.1615" y1="636.2469" x2="550.1615" y2="340.2379" gradientTransform="matrix(1 0 0 -1 0 836.5699)">
		<stop  offset="0" style="stop-color:#BE1E2D"/>
		<stop  offset="5.570000e-002" style="stop-color:#C3212D"/>
		<stop  offset="0.4082" style="stop-color:#DB312D"/>
		<stop  offset="0.7325" style="stop-color:#EA3B2D"/>
		<stop  offset="1" style="stop-color:#EF3E2D"/>
	</linearGradient>
	<path class="st2" d="M698.9,236.3h-67l-34.5-36h-94.7l-34.5,36h-67l-39.8,52.9l1.2,8.1c0.9,6.2,16.5,107.9,71.8,191.3l22.5-38.9
		c-34.7-60.3-49.6-127.5-53.9-150.2l17.8-23.7h64.2l34.5-36h60.9l34.5,36h64.2l17.8,23.7c-4.6,24.2-21.2,99.6-61.5,162.8l24.8,34.1
		c59.6-84.7,76.1-192.6,77.1-199l1.2-8.1L698.9,236.3z"/>
	
		<linearGradient id="SVGID_2_" gradientUnits="userSpaceOnUse" x1="550.1655" y1="328.424" x2="550.1655" y2="250.603" gradientTransform="matrix(1 0 0 -1 0 836.5699)">
		<stop  offset="0" style="stop-color:#BE1E2D"/>
		<stop  offset="0.3553" style="stop-color:#D42B2A"/>
		<stop  offset="0.7086" style="stop-color:#E33328"/>
		<stop  offset="1" style="stop-color:#E83628"/>
	</linearGradient>
	<path class="st3" d="M550.2,543.1c-18.4-8.7-34.6-20.8-48.9-34.9h-52.7c24.4,31.4,55.2,58.7,94.1,74.7l7.5,3.1l7.5-3.1
		c38.9-16,69.7-43.3,94.1-74.7h-52.7C584.8,522.3,568.5,534.3,550.2,543.1z"/>
	<path class="st0" d="M624.4,372.7c0-42.1-29.6-75.9-69-75.9h-93.6l41.5,75.5l16-28.1h29c15.7,0,28.4,12.8,28.4,28.5
		c0,16-13.1,26.4-28.7,26.4h-27.1l43.2,74.8l10.3,15.6h58.1L590,431.4C610.4,420.4,624.4,400.5,624.4,372.7z"/>
	<polygon class="st0" points="503.3,407.1 455.6,489.5 550.8,489.5 	"/>
</g>
</svg>
