<?xml version="1.0" encoding="utf-8"?>
<!-- Generator: Adobe Illustrator 19.0.0, SVG Export Plug-In . SVG Version: 6.00 Build 0)  -->
<svg version="1.1" id="Layer_1" xmlns="http://www.w3.org/2000/svg" xmlns:xlink="http://www.w3.org/1999/xlink" x="0px" y="0px"
	 viewBox="-163 287.7 267.2 267.2" style="enable-background:new -163 287.7 267.2 267.2;" xml:space="preserve">
<style type="text/css">
	.st0{fill:#242221;}
	.st1{fill:#CF9F54;}
	.st2{fill:#81272A;}
	.st3{fill:#875F32;}
	.st4{fill:#CD9E54;}
</style>
<g id="Layer_2">
	<ellipse id="XMLID_18_" class="st0" cx="-29.6" cy="420.7" rx="130.1" ry="131"/>
</g>
<path class="st1" d="M45.2,318.3c-1.8-1.7-3.7-3.2-5.6-4.7c1.4-0.1,2.3-2,0.8-2.7c-11.6-5.5-21.8-13.4-34.6-16
	c-2.3-0.5-4.6-0.9-7-1.2c-36.9-8.7-76.3-0.6-106.8,22.7c-1.5,1.1-0.2,3.6,1.5,2.6c1.5-1,3.1-1.9,4.6-2.9c-1,1.4,1,3.2,2.3,1.9
	c9.9-9.8,24.3-14.5,37.4-18.1c14.3-3.9,29-5.6,43.8-4.1c0.6,0.1,0.9-0.2,1.2-0.5c10.3,0.8,20.1,4.2,29.7,7.9
	c11,4.2,21.8,9.1,30.5,17.2C44.5,321.8,46.6,319.7,45.2,318.3z"/>
<g id="Layer_3">
	<path id="XMLID_30_" class="st1" d="M97.6,423.4c-1.4,25.4-10.3,50.3-25.8,70.5c-19.5,25.7-49,43.6-80.9,48.5
		c-26.4,4.2-54.2,0-78-12.3c-27.6-14-49.7-38.4-60.8-67.3c-4.9-12.6-7.7-26-8.4-39.5h-3.4c-1.1,0-2.2-0.1-3.2-0.2
		c0.2,7,0.9,14.1,2.3,21c5.3,28.8,20.6,55.6,42.5,75.1c24,21.4,55.9,33.8,88.1,33.7c26.9,0.4,53.7-7.9,75.8-23.1
		c23-15.6,40.9-38.5,50.4-64.7c4.9-13.4,7.6-27.5,8-41.8L97.6,423.4L97.6,423.4z"/>
</g>
<g id="Layer_1_1_">
	<g id="_x23_cfa053ff">
		<path class="st1" d="M-39.9,288.1c27.2-2.1,55.1,4.2,78.5,18.2c26.4,15.6,47.2,40.5,57.6,69.4c10.7,29.2,10.7,62.3,0,91.5
			c-9.5,26.1-27.4,49.1-50.4,64.7C23.7,547-3.2,555.3-30,555c-32.2,0.1-64.2-12.3-88.1-33.7c-22-19.6-37.3-46.4-42.6-75.2
			c-5.5-28.6-1.2-59,12-84.9c13.8-27.6,37.5-50,65.7-62.3C-69.4,292.9-54.7,289.3-39.9,288.1 M-51.1,293.5
			c-43.8,7.5-69.1,35.7-75.3,43.1c-26.9,31.7-29.6,66.6-30,77.3c1.6-1.5,3.1-3,4.7-4.6c1.7,1.7,3.4,3.4,5.1,5.1
			c-3.3,3.3-6.5,6.5-9.8,9.8c0.6,13.9,3.4,27.7,8.5,40.7c11.1,28.9,33.2,53.3,60.8,67.3c23.8,12.3,51.6,16.4,78,12.3
			c31.9-5,61.5-22.8,80.9-48.5c17.3-22.5,26.5-51,26-79.4c-1.6,1.6-3.2,3.1-4.8,4.7c-1.7-1.7-3.4-3.4-5.1-5.1
			c3.1-3.1,6.2-6.2,9.3-9.3c-1.3-12.4-4.2-24.7-8.9-36.2c-17.8-43.6-55-62.6-61.3-65.7C16.9,300-12.8,286.9-51.1,293.5z"/>
		<path class="st1" d="M-51.3,307.6c1.5-0.5,3-0.9,4.5-1.4c2.1,7.2,4.3,14.4,6.4,21.6c-3.1,0.7-6.5,2.1-9.7,0.9
			c-7.1-2.7-11.8-9.4-19.2-11.5c1.5,5.9,3.4,11.6,5.1,17.4c-1.5,0.5-3,0.9-4.6,1.4c-1.9-7.1-4.1-14.3-6.2-21.5
			c3.1-0.7,6.2-2,9.4-1.2c7.3,2.5,11.8,9.9,19.4,11.8C-47.6,319.2-49.6,313.4-51.3,307.6z"/>
		<path class="st1" d="M-11.4,311.7c2.2-2.7,6-3.2,9.2-2.3c6.3,1.7,12.4,3.9,18.6,5.7c-0.5,1.5-0.9,2.9-1.4,4.4
			c-6.4-1.8-12.6-4.3-19.1-5.7c-3-0.9-4.7,2.2-5.4,4.5c-0.9,2.5-1.6,6.3,1.5,7.5c6.2,2.6,12.8,4,19.1,6.2c-0.4,1.5-0.9,2.9-1.3,4.4
			c-6.1-2-12.4-3.7-18.4-5.8c-3.3-1.1-6.4-3.9-6.4-7.6C-15.1,319-13.8,314.9-11.4,311.7z"/>
		<path class="st1" d="M-116.9,349.2c3.9-4.8,7.9-9.5,11.8-14.3c1.1,0.9,2.3,1.9,3.5,2.9c-3.4,4.2-6.8,8.3-10.3,12.5
			c-1.2,1.5-2.5,3-2.9,4.9c0,1.5,0.9,2.8,1.3,4.2c5.2-6,10.1-12.2,15.2-18.3c1.1,0.9,2.2,1.8,3.3,2.7c-5,6.2-10.2,12.2-15,18.5
			c2.1,0.4,4.6,1.1,6.2-0.9c4.5-4.7,8.3-10.1,12.6-15c1.2,1,2.3,1.9,3.5,2.9c-4,4.8-7.8,9.7-11.9,14.4c-2.3,2.7-5.8,4.9-9.4,3.7
			c-3.9-1.3-7.4-4.1-9.5-7.6C-120.7,356.2-119.2,352.1-116.9,349.2z"/>
		<path class="st1" d="M31.9,346c2-3.6,5.4-6.5,9.2-8c3.5-1.4,7.3,0.5,9.6,3.2c4.2,4.7,8.2,9.7,12.3,14.6c-1.1,1-2.3,1.9-3.4,2.9
			c-3.3-3.9-6.6-7.8-9.8-11.8c-1.4-1.6-2.8-3.4-4.8-4.4c-1.5,0-2.9,0.1-4.4,0.4c4.9,6.3,10.2,12.3,15.2,18.4
			c-1.1,0.9-2.2,1.8-3.3,2.7c-5.2-6-10-12.4-15.5-18.2c-0.6,2-1.8,4.4-0.2,6.2c3.8,5.3,8.4,10,12.5,15.1c-1.2,1-2.3,2-3.5,2.9
			c-4.1-5-8.4-9.7-12.3-14.8C31.4,352.8,30.3,349.1,31.9,346z"/>
		<path class="st1" d="M-51,370.1c3.6,0.6,7.2,1.4,10.6,2.5c-0.4,0.7-1.3,2.2-1.7,2.9c-2.1-0.3-4.3-0.7-6.4-1
			C-49.3,373-50.1,371.6-51,370.1z"/>
		<path class="st1" d="M-17.4,372.6c3-1.6,6.4-1.8,9.6-2.4c-0.7,1.4-1.3,2.8-2,4.1c-2.6,0.4-5.2,0.8-7.9,1.1
			C-17.5,374.7-17.4,373.3-17.4,372.6z"/>
		<path class="st1" d="M-57.6,397.3c2.9-2,6.5-1,9.7-0.8c1,1.9,2,3.8,3,5.8c10.2,2.1,20.9,2.2,31.1,0c1.2-2.5,2.8-4.8,4.5-6.9
			c3.4,0.6,7.2,0.7,9.8,3.1c3.5,3.1,5.7,7.4,8,11.4c-6.5,1.7-12.5,4.8-18.6,7.6c-6.9,2.6-13.1,6.6-19.3,10.6
			c-5.7-3.6-11.3-7.4-17.6-9.7c-6.6-3.1-13.1-6.6-20.3-8.5C-64.6,405.4-62.2,400.3-57.6,397.3z"/>
		<path class="st1" d="M-70.6,429.4c6.7,4.8,12.4,10.8,17.6,17.2c-3.3,1.6-6.7,2.9-10.2,3.9C-67.4,444.2-70,437-70.6,429.4z"/>
		<path class="st1" d="M-5.7,446.6c5.1-6.4,10.9-12.4,17.6-17.2c-0.6,7.5-3.2,14.7-7.3,21.1C1.1,449.5-2.4,448.2-5.7,446.6z"/>
		<path class="st1" d="M-122.9,459c0.2-3.3,3.9-5,6.8-5.3c2.8,0.1,3.9,3.1,5.2,5.1c1,2.3,3.1,4.6,2,7.2c-3.1-3.5-3.5-10.5-9.2-10.6
			c1.8,3.9,3.9,7.6,5.9,11.3c-0.4,0.2-1.2,0.5-1.6,0.7c-2-3.8-3.9-7.6-6.2-11.1c-2.6,4.6,2.2,8.7,3.8,12.7c-0.4,0.2-1.2,0.7-1.6,0.9
			C-119.5,466.3-122.1,463-122.9,459z"/>
		<path class="st1" d="M64.5,453.9c0.4,0.2,1.2,0.6,1.6,0.7c-1.9,3.4-2.8,8-6.4,10c-3.5-0.1-8-1.8-9.4-5.3c3.1,1.1,6,2.6,8.9,3.9
			C61.3,460.4,62.9,457.1,64.5,453.9z"/>
		<path class="st1" d="M41.7,473.6c2.1-3,4-6.8,7.8-8c-1.8,3.7-5.3,6.4-6.7,10.3c0.1,0.5,0.4,1.5,0.5,2c4-2.2,5.3-7.5,9.5-9.6
			c-1.8,4.4-5.3,7.6-7.6,11.7c5.3,0.3,7-5.5,10-8.7c0.4,0.3,1.1,0.8,1.4,1.1c-2.6,3.1-4.5,7-8,9.2C44.6,482.7,38.9,477.7,41.7,473.6
			z"/>
		<path class="st1" d="M-110,478.1c1.2-3.8,3-7.3,5-10.7c1.2,4.7-3.4,8.4-3.2,12.9c4.4,0.7,8.7-2.9,13-0.9c-3.8,1.4-7.8,2.6-11.8,3
			C-109.2,482.5-110.9,480-110,478.1z"/>
		<path class="st0" d="M18.7,498.6c0.7-2.8,1.3-5.9,3.7-7.9c-0.5,2.7-1.2,5.4-1.9,8.1c2.6,0.7,5.3,1.3,7.9,2
			c-0.8,0.4-1.5,0.8-2.3,1.3c-2.1-0.6-4.2-1.1-6.3-1.7c-0.8,2.9-1.4,6.1-3.8,8.2c0.5-2.8,1.2-5.6,1.9-8.4c-2.5-0.6-5.1-1.3-7.6-1.9
			c0.8-0.4,1.6-0.9,2.3-1.3C14.8,497.5,16.8,498.1,18.7,498.6z"/>
		<path class="st1" d="M31.7,483.7c1.8-1.4,3.5-3.9,6.1-3.1c-2.8,3-6.4,5.2-8.8,8.5c0.4,2.3,2.2,4.8,4.7,4.8c3.2-1.9,5.8-4.7,8.7-7
			c0.3,0.4,0.8,1.1,1,1.4c-2.9,2.4-5.5,5.4-8.9,7.2c-3,1.2-5.7-1.8-6.9-4.3C26.1,488,29.6,485.6,31.7,483.7z"/>
		<path class="st1" d="M-98.1,491.9c-1.1-4,4-9.7,8.1-6.9c2.8,1.8,5.3,4.2,8,6.3c-0.3,0.4-0.8,1.1-1.1,1.4c-2.5-2-4.9-4.2-7.6-5.9
			c-1.3-1.1-2.8-0.2-4.2,0.1c3.1,2.8,6.4,5.4,9.7,8l-1,1.4c-3.4-2.7-6.6-5.5-10.2-7.9c-0.4,5.3,5.4,7.3,8.6,10.4
			c-0.5,0.4-0.9,0.8-1.3,1.2C-92.2,497.3-96,495.3-98.1,491.9z"/>
		<path class="st1" d="M-77.8,494c3.5,2,7.6,3.3,10.7,6.1c1.8,2.2-0.5,4.4-2.3,5.4c-0.1,2.2-0.6,4.3-3,5c0.4-1.6,0.9-3.1,1.3-4.6
			c-2.7-1.6-5.5-3.1-8.3-4.5c-0.6,1.2-1.3,2.3-1.9,3.5c-0.4-0.2-1.2-0.7-1.6-0.9C-81.2,500.7-79.5,497.3-77.8,494 M-76.9,496.4
			c-0.6,1.2-1.2,2.3-1.8,3.5c3.1,1.4,5.9,3.9,9.4,3.8c0.2-0.7,0.5-2,0.7-2.6C-71,499.1-74,497.8-76.9,496.4z"/>
		<path class="st1" d="M-4.5,504.6c3.2-2.6,7.5-3.1,11.3-4.6c0.1,0.4,0.4,1.3,0.6,1.7c-4,1.9-10.3,1.6-11.4,6.8
			c4.1-1.1,8.1-2.6,12.1-3.9l0.6,1.5c-4.1,1.4-8.2,2.7-12.1,4.6c4.4,2.8,9-0.7,13.3-1.8c0.1,0.4,0.4,1.3,0.5,1.7
			c-3.8,1.2-7.5,3.1-11.5,3.3C-4.7,513-6.5,507.6-4.5,504.6z"/>
		<path class="st0" d="M-53.9,504.7c4.8,0.3,9.4,1.3,14.1,2.2l-0.3,1.7c-1.9-0.3-3.8-0.7-5.7-1c-0.5,3.1-1.1,6.3-1.7,9.4
			c-0.5-0.1-1.4-0.3-1.8-0.4c0.6-3.1,1.1-6.1,1.7-9.2C-49.7,506.8-52.2,506.6-53.9,504.7z"/>
		<path class="st1" d="M-30.8,507.2c2.6-0.4,5.4-0.4,7.9,0.7c2.7,1.3,3.1,4.9,2.2,7.5c-1.1,2.9-4.7,3.1-7.3,3.3
			c-2.8,0.1-6.9-0.4-7.6-3.7C-37,511.3-34.7,507.3-30.8,507.2 M-31.9,509.3c-3,1-2.9,6.4,0.3,7.2c2.3,0.6,4.9,0.5,7.2-0.1
			c2.7-0.7,2.8-4.4,1.5-6.4C-25.6,508.2-29.1,508.6-31.9,509.3z"/>
	</g>
	<polygon id="XMLID_19_" class="st1" points="-149.6,407.3 -161,413.6 -155.3,420.7 -144.3,414 	"/>
	<polygon id="XMLID_20_" class="st1" points="98.9,398.5 86.5,416.2 90.5,432.7 100.5,424.5 	"/>
	<g id="_x23_802629ff">
		<path class="st2" d="M-51.1,293.5c26.3-4.5,54.1-0.6,78,11.3c27.5,13.5,49.7,37.4,61.3,65.7c4.8,11.5,7.7,23.8,8.9,36.2
			c-3.1,3.1-6.2,6.2-9.3,9.3c1.7,1.7,3.4,3.4,5.1,5.1c1.6-1.6,3.2-3.2,4.8-4.7c0.5,28.4-8.7,56.8-26,79.4
			c-19.5,25.7-49,43.6-80.9,48.5c-26.4,4.2-54.2,0-78-12.3c-27.6-14-49.7-38.4-60.8-67.3c-5-13-7.9-26.8-8.5-40.7
			c3.3-3.2,6.5-6.5,9.8-9.8c-1.7-1.7-3.4-3.4-5.1-5.1c-1.6,1.5-3.1,3.1-4.7,4.6c1-28.1,11.8-55.8,30.1-77.3
			C-107.3,314.1-80.2,298.5-51.1,293.5 M-110.5,328.6c-20.8,19.3-34.1,46.3-37,74.6c2,2.1,4.1,4.1,6.2,6.1c2.6-2.7,5.3-5.3,8-8
			c1.9,1.9,3.9,3.9,5.8,5.8c-6.6,6.7-13.2,13.4-19.9,20c0.5,4.8,1.3,9.6,2.4,14.4c11.1-10.8,21.8-21.9,32.9-32.7
			c1.4,1.4,2.8,2.7,4.2,4.1c0.7-11.2,3.2-22.4,8.3-32.5c7.9-16.1,21.5-29,37.7-36.7c-4,4.5-7.1,9.9-7.6,16c-1.9,0.5-3.8,1-5.7,1.5
			c0.4,3.8,1.5,7.4,2.2,11.2c-0.6,4.7-3,9-2.6,13.8c-0.1,4.5,2.2,8.6,4.5,12.3c-3.2,3.3-5.6,7.3-8.6,10.9c-3.6,2.9-9.2,4.5-10.3,9.7
			c-1.1,3.4,1.4,6.3,3.3,8.8c-0.6,4.7-1.2,9.5-0.8,14.3c0.2,3.7,1.1,7.5-0.4,11c-1.4,3.7-2.2,7.6-2.6,11.5
			c-10.7-13.6-16.9-30.4-17.5-47.7c-11.5,11.4-22.8,22.9-34.3,34.3c7.2,22.8,21.5,43.1,40.4,57.7c19,14.9,42.8,23.7,66.9,24.7
			c30.5,1.7,61.5-9.1,84.2-29.5c22.3-19.5,36.7-47.5,39.7-77c-2.1-2.1-4.1-4.2-6.2-6.3c-2.4,2.4-4.8,4.7-7.2,7.1
			c-1.9-1.9-3.9-3.9-5.8-5.8c6.4-6.4,12.8-12.8,19.2-19.2c-0.6-4.8-1.3-9.5-2.3-14.2c-11,10.9-21.9,21.9-32.8,32.8
			c-1.4-1.4-2.8-2.8-4.3-4.2c-0.6,17-6.8,33.6-17.4,47c-0.4-4-1.4-7.9-2.8-11.7c-1.4-3.4-0.5-7.2-0.3-10.8c0.3-4.8-0.2-9.6-0.7-14.3
			c2.2-2.6,4.7-6,3-9.6c-1.8-5.6-8.6-6.2-11.6-10.7c-2.2-3.1-4.4-6.1-7-9c2.4-3.7,4.6-7.8,4.5-12.4c0.4-4.6-1.6-8.9-2.6-13.3
			c0.5-3.9,1.8-7.7,2.1-11.7c-1.8-0.5-3.7-1-5.5-1.5c-0.6-6-3.6-11.3-7.4-15.9c12.4,6.1,23.4,15,31.3,26.3
			c9,12.6,13.8,27.9,14.4,43.4c11.5-11.5,23-22.9,34.4-34.4c-7.6-23.3-22.3-44.1-41.9-58.7c-20.4-15.2-45.7-23.7-71-23.6
			C-58.9,296.1-88.8,308-110.5,328.6z"/>
	</g>
	<g id="_x23_232221ff">
		<path class="st0" d="M-110.5,328.6c21.7-20.6,51.5-32.4,81.5-32c25.3-0.2,50.6,8.4,70.8,23.7c19.6,14.6,34.4,35.5,41.9,58.7
			c-11.4,11.6-22.9,23-34.4,34.4c-0.6-15.4-5.4-30.8-14.4-43.4C27,358.6,16,349.7,3.6,343.6c3.8,4.6,6.8,9.9,7.4,15.9
			c1.8,0.5,3.7,1,5.5,1.5c-0.3,4-1.6,7.8-2.1,11.7c1,4.4,3,8.7,2.6,13.3c0.1,4.6-2.1,8.6-4.5,12.4c2.5,2.8,4.8,5.9,7,9
			c2.9,4.6,9.8,5.2,11.6,10.7c1.7,3.6-0.8,6.9-3,9.6c0.5,4.8,1.1,9.5,0.7,14.3c-0.2,3.6-1.1,7.3,0.3,10.8c1.4,3.8,2.3,7.7,2.8,11.7
			c10.6-13.3,16.7-29.9,17.4-47c1.4,1.4,2.8,2.8,4.3,4.2c11-10.9,21.8-21.9,32.8-32.8c1,4.7,1.7,9.4,2.3,14.2
			c-6.4,6.4-12.8,12.8-19.2,19.2c1.9,2,3.9,3.9,5.8,5.8c2.4-2.4,4.8-4.8,7.2-7.1c2.1,2.1,4.1,4.2,6.2,6.3c-3,29.4-17.4,57.5-39.7,77
			c-22.8,20.4-53.7,31.2-84.2,29.5c-24.2-1-47.9-9.8-66.9-24.7c-18.8-14.6-33.2-35-40.4-57.7c11.5-11.4,22.9-22.8,34.3-34.3
			c0.6,17.3,6.8,34.1,17.5,47.7c0.4-3.9,1.2-7.8,2.6-11.5c1.5-3.5,0.6-7.3,0.4-11c-0.4-4.8,0.3-9.5,0.8-14.3
			c-1.9-2.5-4.5-5.4-3.3-8.8c1.1-5.2,6.7-6.8,10.3-9.7c2.9-3.6,5.3-7.5,8.6-10.9c-2.4-3.7-4.6-7.8-4.5-12.3c-0.5-4.8,2-9.2,2.6-13.8
			c-0.6-3.8-1.8-7.4-2.2-11.2c1.9-0.5,3.8-1,5.7-1.5c0.5-6.1,3.6-11.5,7.6-16c-16.1,7.6-29.8,20.6-37.7,36.7
			c-5.1,10.1-7.6,21.3-8.3,32.5c-1.4-1.4-2.8-2.7-4.2-4.1c-11,10.8-21.8,21.9-32.9,32.7c-1-4.8-1.8-9.5-2.4-14.4
			c6.7-6.6,13.3-13.3,19.9-20c-1.9-2-3.9-3.9-5.8-5.8c-2.7,2.6-5.3,5.3-8,8c-2.1-2-4.1-4-6.2-6.1
			C-144.6,374.9-131.3,347.9-110.5,328.6 M-51.3,307.6c1.7,5.8,3.6,11.6,5,17.5c-7.6-1.9-12.1-9.3-19.4-11.8
			c-3.2-0.8-6.4,0.5-9.4,1.2c2.1,7.2,4.3,14.4,6.4,21.6c1.5-0.5,3-0.9,4.6-1.4c-1.7-5.8-3.6-11.6-5.1-17.4c7.4,2,12.1,8.8,19.2,11.5
			c3.2,1.2,6.5-0.2,9.7-0.9c-2.1-7.2-4.3-14.4-6.4-21.6C-48.2,306.7-49.7,307.1-51.3,307.6 M-11.4,311.7c-2.5,3.2-3.7,7.4-3.8,11.4
			c0.1,3.7,3.1,6.5,6.4,7.6c6.1,2.2,12.3,3.8,18.4,5.8c0.4-1.5,0.9-2.9,1.3-4.4c-6.3-2.2-12.9-3.6-19.1-6.2c-3.1-1.2-2.4-5-1.5-7.5
			c0.7-2.4,2.4-5.4,5.4-4.5c6.5,1.4,12.7,3.9,19.1,5.7c0.5-1.5,0.9-2.9,1.4-4.4c-6.2-1.8-12.3-4-18.6-5.7
			C-5.4,308.4-9.2,309-11.4,311.7 M-36.4,333.7c-10.7,5-21.8,12.6-24.7,24.8c4.6,0.3,9.3,0.8,13.8,1.9c-7.5,0.2-15,0.9-22.4,2.8
			c0.5,2.6,0.7,5.2,1.8,7.7c1.7,3.8,5.2,6.4,6.8,10.2c1,2.7,1.2,5.6,1.5,8.5c5.8-0.6,11.5,0.8,17,2.8c5.8,1.6,9.3-4.6,11.6-8.8
			c0.8,0,2.4-0.1,3.2-0.1c2,3.3,3.8,7.1,7.5,8.7c2.8,1.2,5.7-0.4,8.4-1.2c4-1.5,8.4-1.6,12.7-1.4c0.4-3,0.5-6.1,1.8-9
			c1.6-3.5,4.8-6,6.5-9.5c1.1-2.5,1.4-5.2,1.9-7.8c-7.3-1.9-14.8-2.6-22.3-2.8c4.5-1.1,9-1.6,13.6-1.9c-1.1-3.6-2.3-7.2-4.7-10.1
			c-6.2-7.9-15.3-12.9-24.5-16.6C-30.2,330.1-33.4,332.5-36.4,333.7 M-116.9,349.2c-2.3,2.8-3.8,7-1.7,10.3c2.2,3.5,5.6,6.3,9.5,7.6
			c3.6,1.2,7.1-1,9.4-3.7c4.1-4.7,7.9-9.6,11.9-14.4c-1.2-1-2.3-1.9-3.5-2.9c-4.3,4.9-8.1,10.3-12.6,15c-1.6,2-4.1,1.3-6.2,0.9
			c4.8-6.3,10-12.3,15-18.5c-1.1-0.9-2.2-1.8-3.3-2.7c-5.1,6.1-10,12.3-15.2,18.3c-0.4-1.4-1.3-2.7-1.3-4.2c0.4-1.9,1.7-3.4,2.9-4.9
			c3.4-4.1,6.9-8.3,10.3-12.5c-1.2-1-2.3-1.9-3.5-2.9C-109,339.7-113,344.4-116.9,349.2 M31.9,346c-1.6,3.1-0.5,6.8,1.6,9.4
			c3.9,5.1,8.3,9.8,12.3,14.8c1.2-1,2.3-2,3.5-2.9c-4.1-5.1-8.6-9.8-12.5-15.1c-1.7-1.9-0.4-4.2,0.2-6.2
			c5.5,5.8,10.3,12.1,15.5,18.2c1.1-0.9,2.2-1.8,3.3-2.7c-5.1-6.2-10.4-12.1-15.2-18.4c1.4-0.2,2.9-0.4,4.4-0.4c2,1,3.4,2.8,4.8,4.4
			c3.2,3.9,6.5,7.9,9.8,11.8c1.1-1,2.3-1.9,3.4-2.9c-4.1-4.9-8.1-9.9-12.3-14.6c-2.3-2.7-6.1-4.6-9.6-3.2
			C37.3,339.6,33.9,342.4,31.9,346 M6.3,391.1c1.9-1.7,4.1-3.4,4.9-6c1-3,0.6-6.3,0.6-9.4C8.4,380.1,5.2,385.2,6.3,391.1
			 M-70.5,375.9c-0.1,3.2-0.6,6.6,0.8,9.7c1,2.3,3,3.9,4.8,5.5C-64.1,385.3-66.9,380.2-70.5,375.9 M-58.7,394.4
			c-5.8,3.5-9.7,9.3-13.3,14.9c1.6,0.2,3.2,0.4,4.7,0.6c7.1,1.9,13.6,5.3,20.3,8.5c5.6,5,12.1,8.9,17.6,13.9
			c6-5.4,12.9-9.7,19.3-14.8c6.1-2.8,12.1-5.8,18.6-7.6c1.6-0.2,3.1-0.4,4.7-0.6c-3.6-5.7-7.6-11.7-13.6-15.1c-3-1.7-6.2-0.2-9,1.2
			c-1.8,2.1-3.3,4.4-4.5,6.9c-10.2,2.2-20.9,2.1-31.1,0c-1-1.9-2-3.9-3-5.8C-51,394.3-55.1,392.1-58.7,394.4 M-85.7,419.5
			c2.8-1.2,5.5-2.9,8.7-2.7c5.1,0.3,9.8,2.5,14.2,4.9c8.8,5.1,16.1,12.3,23.2,19.6c1.8-1.6,3.7-3.2,5.5-4.8
			c-10.1-8.4-20.3-17.1-32.8-21.6C-73.4,412.4-82,413-85.7,419.5 M2.3,417.3c-10.5,5.3-19.6,12.9-28.4,20.5
			c-10.2,8.9-20,18.6-32.3,24.8c-5.8,2.8-13.3,4.6-18.9,0.6c-4.3-3-4.6-8.7-4.9-13.4c-2.5,6.3-4.3,13.5-1.8,20
			c2.2,6,8.7,9.6,14.9,9.4c9.7,0,18.5-5.4,25.5-11.8c14.6-13.4,25.9-30.3,42.1-42c5.6-3.9,11.6-7.6,18.4-8.5
			c3.6-0.7,6.9,1.1,10.1,2.3c-1.9-2-3.7-4.2-6.4-5C14.4,412.3,7.9,414.6,2.3,417.3 M-77.1,423.7c-1.6,10.4-0.5,21.4,4.6,30.8
			c1,1.9,3.5,2,5.4,2c7.5-0.6,13.8-5,19.8-9C-56,438.2-64.7,427.7-77.1,423.7 M-11.4,447.4c5.9,4,12.1,8.3,19.4,9
			c2.1,0.1,4.9-0.1,5.9-2.3c4.8-9.3,6-20.2,4.4-30.4C5.9,427.7-2.8,438.2-11.4,447.4 M23.4,449.5c-0.5,4.1-0.2,8.7-3,12
			c-3.2,4-8.9,4.8-13.7,3.7c-8.5-2-15.6-7.5-22.5-12.7c-2.2,2.7-4.3,5.4-6.4,8.1c5.9,6,12.1,12.1,19.8,15.6c5.6,2.6,12,3.9,18,2.2
			c5.3-1.5,9.5-6.1,10.4-11.5C27.3,461,25.4,455.1,23.4,449.5 M-122.9,459c0.8,4,3.3,7.3,5.1,10.9c0.4-0.2,1.2-0.7,1.6-0.9
			c-1.6-4.1-6.4-8.1-3.8-12.7c2.3,3.5,4.2,7.4,6.2,11.1c0.4-0.2,1.2-0.5,1.6-0.7c-2-3.8-4.1-7.5-5.9-11.3c5.7,0.1,6.1,7.1,9.2,10.6
			c1.1-2.6-1-4.9-2-7.2c-1.3-2-2.4-5-5.2-5.1C-118.9,453.9-122.6,455.7-122.9,459 M64.5,453.9c-1.6,3.2-3.2,6.4-5.3,9.4
			c-2.9-1.4-5.9-2.8-8.9-3.9c1.4,3.5,5.9,5.1,9.4,5.3c3.6-2,4.4-6.6,6.4-10C65.6,454.5,64.8,454.1,64.5,453.9 M41.7,473.6
			c-2.8,4.1,2.9,9.1,6.9,8c3.5-2.2,5.4-6.1,8-9.2c-0.4-0.3-1.1-0.8-1.4-1.1c-3,3.2-4.8,9-10,8.7c2.4-4,5.9-7.3,7.6-11.7
			c-4.3,2.1-5.5,7.4-9.5,9.6c-0.1-0.5-0.4-1.5-0.5-2c1.3-3.9,4.8-6.6,6.7-10.3C45.7,466.8,43.8,470.6,41.7,473.6 M-110,478.1
			c-0.9,1.9,0.9,4.4,2.9,4.3c4.1-0.4,8-1.6,11.8-3c-4.3-2-8.6,1.6-13,0.9c-0.3-4.6,4.4-8.2,3.2-12.9
			C-107,470.8-108.8,474.4-110,478.1 M-40,479.9c7,1.3,14.2,1.3,21.2,0c-3.7-3.3-7.2-6.8-10.6-10.4C-32.7,473.1-36.3,476.6-40,479.9
			 M31.7,483.7c-2,1.9-5.5,4.3-4,7.6c1.2,2.5,3.9,5.5,6.9,4.3c3.4-1.8,6-4.8,8.9-7.2c-0.3-0.4-0.8-1.1-1-1.4c-2.9,2.3-5.5,5.1-8.7,7
			c-2.5-0.1-4.3-2.6-4.7-4.8c2.4-3.3,6-5.5,8.8-8.5C35.2,479.8,33.5,482.3,31.7,483.7 M-98.1,491.9c2.1,3.4,5.9,5.4,8.9,8.1
			c0.4-0.4,0.9-0.8,1.3-1.2c-3.2-3.2-9-5.1-8.6-10.4c3.6,2.4,6.8,5.2,10.2,7.9l1-1.4c-3.3-2.6-6.6-5.2-9.7-8c1.4-0.2,3-1.1,4.2-0.1
			c2.7,1.7,5.1,3.9,7.6,5.9c0.3-0.4,0.8-1.1,1.1-1.4c-2.6-2.1-5.1-4.4-8-6.3C-94.1,482.2-99.3,487.8-98.1,491.9 M18.7,498.6
			c-2-0.6-4-1.1-6-1.7c-0.8,0.4-1.6,0.9-2.3,1.3c2.5,0.6,5.1,1.3,7.6,1.9c-0.7,2.8-1.4,5.5-1.9,8.4c2.4-2.1,3-5.3,3.8-8.2
			c2.1,0.6,4.2,1.1,6.3,1.7c0.8-0.4,1.5-0.8,2.3-1.3c-2.6-0.7-5.3-1.4-7.9-2c0.7-2.7,1.4-5.3,1.9-8.1
			C20,492.7,19.5,495.8,18.7,498.6 M-77.8,494c-1.7,3.3-3.4,6.7-5.1,10c0.4,0.2,1.2,0.7,1.6,0.9c0.6-1.2,1.3-2.3,1.9-3.5
			c2.8,1.4,5.6,2.9,8.3,4.5c-0.5,1.5-0.9,3.1-1.3,4.6c2.4-0.7,2.9-2.8,3-5c1.8-1.1,4-3.3,2.3-5.4C-70.2,497.3-74.2,496-77.8,494
			 M-4.5,504.6c-2,3.1-0.2,8.4,3.4,9.4c4-0.3,7.7-2.2,11.5-3.3c-0.1-0.4-0.4-1.3-0.5-1.7c-4.3,1.1-8.9,4.6-13.3,1.8
			c3.9-1.9,8-3.2,12.1-4.6l-0.6-1.5c-4,1.3-8,2.8-12.1,3.9c1.1-5.2,7.4-5,11.4-6.8c-0.1-0.4-0.4-1.3-0.6-1.7
			C3,501.5-1.3,502-4.5,504.6 M-53.9,504.7c1.7,1.8,4.1,2.1,6.4,2.6c-0.6,3.1-1.1,6.1-1.7,9.2c0.5,0.1,1.4,0.3,1.8,0.4
			c0.6-3.1,1.1-6.3,1.7-9.4c1.9,0.3,3.8,0.7,5.7,1l0.3-1.7C-44.4,506.1-49.1,505-53.9,504.7 M-30.8,507.2c-3.9,0.1-6.2,4.2-4.9,7.7
			c0.8,3.4,4.8,3.8,7.6,3.7c2.6-0.1,6.2-0.4,7.3-3.3c0.9-2.6,0.6-6.2-2.2-7.5C-25.4,506.8-28.2,506.8-30.8,507.2z"/>
		<path class="st0" d="M-48.9,350.3c2.4,1.5,4.9,3.4,7.8,3.5c4.2,0.3,8-1.8,11.7-3.5c3.6,1.7,7.2,3.7,11.3,3.5
			c3.1,0.1,5.6-1.9,8.1-3.5c0.8,2.2,1.5,4.3,2.3,6.5c-3.2,0.7-6.5,1.4-9.4,3.1c-3.9,2.2-7.5,5.4-12.1,5.8c-4.6-0.2-8.2-3.3-12-5.5
			c-3-1.9-6.5-2.7-9.9-3.4C-50.3,354.6-49.6,352.4-48.9,350.3z"/>
		<path class="st0" d="M-64.7,366.2c6.8-1.8,14.4-2.6,20.8,0.7c4.1,2.2,8.3,4.2,12.7,5.8c-0.8,0.4-1.7,0.8-2.5,1.3c0.1,2,0.4,4,0,6
			c-0.7,2.5-2.7,4.3-4.3,6.3c-0.4-0.3-1.3-0.8-1.7-1.1c0.1-2.1,1.4-5-0.9-6.4c-3.9-1.1-8-1.2-12-2c-0.5,2.4-1.1,4.9-1.6,7.3
			C-56.2,377.2-62,372.6-64.7,366.2 M-51,370.1c0.8,1.4,1.7,2.9,2.6,4.3c2.1,0.3,4.3,0.7,6.4,1c0.4-0.7,1.3-2.1,1.7-2.9
			C-43.8,371.5-47.4,370.7-51,370.1z"/>
		<path class="st0" d="M-15.1,367c6.5-3.4,14.2-2.7,21-0.7c-2.8,6.4-8.8,10.9-10.2,17.9c-0.6-2.5-1.3-4.9-1.9-7.4
			c-3.9,0.7-7.8,0.9-11.7,1.8c-2.7,1.2-1.5,4.4-1.2,6.6c-0.5,0.3-1.5,0.7-1.9,1c-1.4-1.8-3-3.4-3.9-5.5c-0.7-2.1-0.2-4.4-0.2-6.6
			c-0.8-0.5-1.6-1-2.4-1.5C-23.1,371.1-19,369.1-15.1,367 M-17.4,372.6c-0.1,0.7-0.2,2.2-0.2,2.9c2.6-0.3,5.3-0.7,7.9-1.1
			c0.7-1.4,1.3-2.8,2-4.1C-11,370.8-14.4,371-17.4,372.6z"/>
		<path class="st0" d="M-76.9,496.4c2.8,1.4,5.8,2.7,8.3,4.7c-0.2,0.7-0.5,2-0.7,2.6c-3.5,0.1-6.3-2.5-9.4-3.8
			C-78.1,498.7-77.5,497.5-76.9,496.4z"/>
		<path class="st0" d="M-31.9,509.3c2.9-0.7,6.4-1.1,8.9,0.7c1.3,2,1.2,5.7-1.5,6.4c-2.3,0.6-4.8,0.7-7.2,0.1
			C-34.8,515.7-35,510.3-31.9,509.3z"/>
	</g>
	<g id="_x23_865e31ff">
		<path class="st3" d="M-36.4,333.7c3-1.2,6.2-3.5,9.5-1.9c9.2,3.7,18.3,8.7,24.5,16.6c2.4,2.9,3.6,6.6,4.7,10.1
			c-4.6,0.3-9.2,0.8-13.6,1.9c7.5,0.3,15,0.9,22.3,2.8c-0.5,2.6-0.8,5.4-1.9,7.8c-1.6,3.5-4.8,6-6.5,9.5c-1.3,2.8-1.4,6-1.8,9
			c-4.3-0.1-8.7-0.1-12.7,1.4c-2.7,0.8-5.6,2.4-8.4,1.2c-3.7-1.6-5.5-5.5-7.5-8.7c-0.8,0-2.4,0.1-3.2,0.1
			c-2.3,4.2-5.8,10.4-11.6,8.8c-5.4-2-11.1-3.4-17-2.8c-0.4-2.8-0.5-5.8-1.5-8.5c-1.6-3.9-5.1-6.4-6.8-10.2c-1-2.4-1.3-5.1-1.8-7.7
			c7.3-1.9,14.8-2.5,22.4-2.8c-4.5-1.1-9.2-1.6-13.8-1.9C-58.2,346.3-47.1,338.6-36.4,333.7 M-48.9,350.3c-0.7,2.2-1.4,4.3-2.1,6.5
			c3.4,0.7,6.9,1.4,9.9,3.4c3.8,2.2,7.4,5.4,12,5.5c4.6-0.4,8.2-3.6,12.1-5.8c2.8-1.7,6.1-2.4,9.4-3.1c-0.8-2.2-1.5-4.3-2.3-6.5
			c-2.5,1.6-5,3.6-8.1,3.5c-4.1,0.1-7.8-1.8-11.3-3.5c-3.7,1.8-7.5,3.8-11.7,3.5C-44,353.6-46.4,351.7-48.9,350.3 M-64.7,366.2
			c2.8,6.4,8.5,11,10.4,17.9c0.5-2.4,1.1-4.9,1.6-7.3c4,0.8,8.1,0.9,12,2c2.3,1.4,1.1,4.3,0.9,6.4c0.4,0.3,1.3,0.8,1.7,1.1
			c1.6-1.9,3.7-3.8,4.3-6.3c0.3-2,0.1-4,0-6c0.8-0.4,1.7-0.8,2.5-1.3c-4.4-1.5-8.6-3.6-12.7-5.8C-50.3,363.6-58,364.4-64.7,366.2
			 M-15.1,367c-4,2.1-8.1,4.1-12.3,5.6c0.8,0.5,1.6,1,2.4,1.5c0,2.2-0.5,4.5,0.2,6.6c0.9,2.1,2.5,3.7,3.9,5.5c0.5-0.3,1.4-0.7,1.9-1
			c-0.3-2.2-1.5-5.4,1.2-6.6c3.8-0.9,7.8-1.1,11.7-1.8c0.6,2.5,1.3,4.9,1.9,7.4c1.4-7,7.4-11.6,10.2-17.9
			C-0.8,364.3-8.6,363.6-15.1,367z"/>
		<path class="st3" d="M6.3,391.1c-1-5.9,2.1-11,5.6-15.4c0,3.1,0.4,6.4-0.6,9.4C10.3,387.6,8.2,389.3,6.3,391.1z"/>
		<path class="st3" d="M-70.5,375.9c3.6,4.2,6.5,9.4,5.5,15.2c-1.8-1.7-3.8-3.2-4.8-5.5C-71.1,382.6-70.6,379.1-70.5,375.9z"/>
		<path class="st3" d="M-58.7,394.4c3.7-2.2,7.7-0.1,10.8,2.1c-3.2-0.2-6.8-1.2-9.7,0.8c-4.5,3-7,8-9.6,12.6
			c-1.6-0.2-3.2-0.4-4.7-0.6C-68.4,403.7-64.5,397.9-58.7,394.4z"/>
		<path class="st3" d="M-9.4,395.4c2.8-1.4,6-2.9,9-1.2c6,3.4,10,9.4,13.6,15.1c-1.6,0.2-3.2,0.4-4.7,0.6c-2.3-4-4.5-8.3-8-11.4
			C-2.2,396-6,396-9.4,395.4z"/>
		<path class="st3" d="M-85.7,419.5c3.8-6.5,12.4-7.1,18.8-4.6c12.5,4.5,22.8,13.2,32.8,21.6c-1.8,1.6-3.7,3.2-5.5,4.8
			c-7.1-7.2-14.4-14.5-23.2-19.6c-4.4-2.5-9.1-4.7-14.2-4.9C-80.2,416.6-83,418.3-85.7,419.5z"/>
		<path class="st3" d="M2.3,417.3c5.6-2.8,12.1-5,18.3-3.1c2.7,0.8,4.6,3,6.4,5c-3.2-1.3-6.5-3-10.1-2.3c-6.8,0.9-12.9,4.6-18.4,8.5
			c-16.2,11.7-27.5,28.6-42.1,42c-7,6.4-15.7,11.7-25.5,11.8c-6.2,0.2-12.7-3.4-14.9-9.4c-2.5-6.6-0.7-13.8,1.8-20
			c0.3,4.7,0.6,10.4,4.9,13.4c5.6,4.1,13.2,2.2,18.9-0.6c12.2-6.2,22.1-15.9,32.3-24.8C-17.3,430.2-8.2,422.7,2.3,417.3z"/>
		<path class="st3" d="M-29.4,428.1c6.1-4,12.3-8,19.3-10.6c-6.3,5.1-13.2,9.4-19.3,14.8c-5.6-5.1-12.1-8.9-17.6-13.9
			C-40.6,420.7-35,424.4-29.4,428.1z"/>
		<path class="st3" d="M-77.1,423.7c12.4,4.1,21.1,14.5,29.7,23.7c-6,4.1-12.3,8.5-19.8,9c-1.9,0-4.4-0.1-5.4-2
			C-77.5,445.1-78.7,434-77.1,423.7 M-70.6,429.4c0.6,7.6,3.2,14.8,7.3,21.1c3.5-1,6.9-2.4,10.2-3.9
			C-58.2,440.2-63.9,434.2-70.6,429.4z"/>
		<path class="st3" d="M-11.4,447.4c8.6-9.2,17.3-19.7,29.8-23.7c1.6,10.3,0.4,21.1-4.4,30.4c-1,2.2-3.8,2.4-5.9,2.3
			C0.7,455.7-5.5,451.4-11.4,447.4 M-5.7,446.6c3.3,1.6,6.8,2.9,10.3,3.9c4-6.4,6.6-13.5,7.3-21.1C5.2,434.2-0.6,440.2-5.7,446.6z"
			/>
		<path class="st3" d="M23.4,449.5c2,5.5,3.9,11.5,2.6,17.4c-0.8,5.4-5.1,10-10.4,11.5c-6,1.6-12.4,0.3-18-2.2
			c-7.8-3.5-13.9-9.6-19.8-15.6c2.1-2.7,4.2-5.4,6.4-8.1c6.9,5.2,14,10.7,22.5,12.7c4.8,1.1,10.5,0.3,13.7-3.7
			C23.2,458.2,22.9,453.6,23.4,449.5z"/>
		<path class="st3" d="M-40,479.9c3.7-3.3,7.2-6.8,10.6-10.4c3.3,3.7,6.9,7.1,10.6,10.4C-25.8,481.2-33,481.2-40,479.9z"/>
	</g>
	<g id="XMLID_1_">
		<path id="XMLID_7_" class="st1" d="M20.6,498.8c0-0.1,0-0.1,0-0.2H19c-0.1,0-0.2,0-0.3,0l0,0c-2-0.6-4-1.1-6-1.7
			c-0.8,0.4-1.5,0.9-2.3,1.3c2.5,0.6,5.1,1.3,7.6,2l0,0c0.1,0,0.2,0,0.2,0.1c0.1,0,0.2,0,0.3,0.1c0.2,0,0.3,0,0.5,0
			c0.1,0,0.3-0.1,0.4-0.1c0.2,0,0.3,0,0.4,0.1l0,0c2.1,0.6,4.2,1.1,6.3,1.7c0.8-0.4,1.5-0.8,2.3-1.3
			C25.8,500.2,23.2,499.5,20.6,498.8z"/>
		<path id="XMLID_2_" class="st1" d="M18.3,500.2c-0.1,0-0.1,0-0.2,0l0.8-1.4c0-0.1,0.1-0.2,0.1-0.3l0,0c0.5-2,1-4,1.5-6
			c0.8-0.5,1.5-0.9,2.3-1.4c-0.7,2.5-1.3,5.1-2,7.6l0,0c0,0.1,0,0.2-0.1,0.3c0,0.1-0.1,0.2-0.1,0.3c-0.1,0.1-0.2,0.3-0.2,0.4
			c-0.1,0.1-0.2,0.2-0.3,0.4c-0.1,0.1-0.1,0.3-0.2,0.4l0,0c-0.5,2.1-1,4.2-1.6,6.3c-0.8,0.5-1.5,0.9-2.2,1.4
			C16.9,505.4,17.6,502.8,18.3,500.2z"/>
	</g>
	<path id="XMLID_3_" class="st4" d="M-39.9,508.6c0.1-0.6,0.2-1.1,0.3-1.7c-2.2-0.4-11-2-13.2-2.5c-0.1,0.6-0.2,1.1-0.3,1.7
		c0.8,0.2,1.9,0.4,2.8,0.5c0.9,0.2,2,0.4,2.9,0.5c-0.6,3.1-1.2,6.3-1.8,9.4c0.2,0,1.7,0.3,2,0.4c0.6-3.1,1.2-6.3,1.7-9.4
		c0.9,0.2,1.9,0.4,2.9,0.5C-41.7,508.3-40.8,508.5-39.9,508.6z"/>
</g>
</svg>
