<?xml version="1.0" encoding="utf-8"?>
<!-- Generator: Adobe Illustrator 19.0.0, SVG Export Plug-In . SVG Version: 6.00 Build 0)  -->
<svg version="1.1" id="Layer_1" xmlns="http://www.w3.org/2000/svg" xmlns:xlink="http://www.w3.org/1999/xlink" x="0px" y="0px"
	 viewBox="321.61 -80.11 598.077 852.79" style="enable-background:new 321.61 -80.11 598.077 852.79;" xml:space="preserve">
<style type="text/css">
	.st0{fill:#231F20;}
	.st1{fill:#EFF5F9;}
	.st2{fill:#A4A9AD;}
	.st3{fill:#AFC7E7;}
	.st4{fill:#648DAC;}
	.st5{fill:#AB0F14;}
	.st6{fill:#59031D;}
	.st7{fill:#F3F3F4;}
	.st8{fill:#BFC3C7;}
</style>
<g id="_x23_231f20ff">
	<path class="st0" d="M694.38-80.11h7.19c22.53,1.89,43.07,12.69,61.76,24.72c27.7,18.26,52.31,40.83,75.03,64.91
		c22.39,23.99,43.09,49.67,60.52,77.51c8.25,13.52,16.14,27.52,20.58,42.81c-23.08-30.76-47.05-60.95-73.64-88.77
		c-18.65-19.43-38.38-38.08-60.83-53.08c-13.08-8.55-27.31-16.17-42.93-18.59c-9.24-1.32-19.64-0.75-27.17,5.39
		c-8.1,6.6-11.05,17.32-12.15,27.3C701.1,19,703.67,35.99,707,52.55c18.4,2.68,36.54,7.16,54.03,13.46
		c55.96,19.97,104.87,58.72,137.49,108.33c2.01,3.32,5.75,4.94,8.15,7.91c4.75,5.64,6.28,13.38,5.69,20.59
		c-0.92,7.55-4.72,14.34-8.66,20.7c-9.68,14.93-22.26,27.76-35.74,39.29c9.3,24.93,19.92,49.67,24.45,76.03
		c0.49,2.96,3.2,4.68,5.57,6.12c4.75,2.76,9.81,5.2,13.7,9.19c4.58,4.56,6.71,10.97,7.56,17.25c1.35,11.07-0.49,22.3-3.77,32.88
		c-1.81,5.47-3.7,11.08-7.26,15.71c-4.74,6.25-11.17,11-15.82,17.33c-4.47,5.86-7.24,12.84-8.82,20
		c-2.85,13.05-6.7,25.91-11.86,38.24c-11.23,27.25-29.19,51.79-52.4,70.04c10.35,11.23,17.89,24.69,24.62,38.32
		c5.18,10.82,10.01,21.86,13.48,33.36c1.6,5.82,3.26,12.13,1.3,18.07c-1.97,5.59-7.48,8.79-12.78,10.67
		c-9.85,3.48-20.29,5.32-30.73,5.36c-5.47,12.55-12.75,24.3-21.68,34.67c2.41,9.09,4.03,18.44,3.93,27.87
		c-0.14,7.92-1.37,16.48-6.63,22.76c-5.95,6.92-15.04,9.95-23.7,11.75c-14.83,2.93-30.03,2.85-45.07,2.53
		c-20.39-0.41-40.72,1.72-61.11,1.7c-22.69-0.03-45.39-0.66-68.02-2.34c-15.17-1.23-30.4-2.57-45.27-5.92
		c-4.2-1.15-8.83-1.98-12.2-4.91c-1.93-1.59,0.04-3.71,1.64-4.52c3.7-2.07,7.89-3,11.97-3.97c13.15-2.83,26.55-4.16,39.93-5.3
		c-2.69-13.19-0.72-26.8,2.66-39.68c-8.98-10.37-16.23-22.17-21.72-34.72c-8.94-0.55-17.82-2.2-26.26-5.19
		c-5.72-1.96-11.76-5.56-13.36-11.82c-1.61-6.87,0.68-13.85,2.68-20.38c4.54-12.9,11.44-25.18,21.04-35
		c2.71-2.91,6.39-4.76,8.81-7.96c-18.64-7.71-36.5-17.33-53.06-28.85c-48.76-33.67-86.35-83.16-105.64-139.19
		c-21.96-63.02-20.52-133.86,4.1-195.9c23.04-58.78,66.55-109.26,121.35-140.64c4.77-19.15,8.94-38.67,9.16-58.49
		c-0.04-10.41-1.04-21.29-6.21-30.54c-3.53-6.44-9.86-11.23-17.05-12.77c-11.01-2.34-22.41,0.08-32.75,4.03
		c-15.94,6.21-30.21,15.97-43.6,26.48c-24.19,19.29-45.65,41.75-65.99,64.99c-18.13,20.7-34.96,42.49-51.54,64.44
		c2.52-9.38,6.78-18.19,11.28-26.76c9.92-18.46,21.91-35.73,34.68-52.33c18.79-24.25,39.5-47.04,62.02-67.89
		c21.32-19.51,44.18-37.79,70.11-50.81c15.64-7.63,33.05-13.74,50.7-11.52c12.53,1.51,23.88,8.9,31.02,19.2
		c8.21,11.43,12.13,25.22,15.28,38.75c4.7,20.85,7.4,42.13,8.46,63.47c10.01-2.2,20.11-3.97,30.29-5.17
		c0.78-27.84,4.06-55.73,11.21-82.69c3.47-12.79,8.61-25.61,17.95-35.29C672.3-74.71,683.24-79.34,694.38-80.11 M605.59,74.18
		c-0.07,19.67-1.68,39.5-6.83,58.54c-3.7,13.45-9.32,26.76-18.81,37.18c-9.27,10.45-23,16.49-36.93,16.73
		c-7.75,0.01-16.37,0.14-22.74-5c-7.26-5.48-9.47-15.12-9.4-23.77c0.21-15.85,5.17-31.11,10.17-45.98
		c-46,31.32-81.64,77.54-100.13,130.03c-21.29,59.67-20.15,127.01,3.24,185.9c21.9,55.85,63.48,103.71,115.79,133.09
		c35.64,20.21,76.15,31.62,117.08,33.24c-7.1-2.02-14.23-4.13-20.84-7.47c-5.31-2.7-10.67-5.81-14.3-10.65
		c-4.46-5.75-5.78-13.15-9.66-19.22c-2.97-5-7.44-9.01-12.61-11.62c-12.63-6.33-27.23-5.15-40.69-8.39
		c-15.13-3.22-28.46-11.84-39.88-21.98c-20.65-18.58-37.32-41.02-53.31-63.59c-7.49-11.4-11.83-25.76-8.63-39.32
		c2.32-9.78,9.22-17.86,17.45-23.34c15.22-10.58,30.67-20.82,46.29-30.81c63.49-40.42,129.08-77.49,195.86-112.21
		c37.61-19.31,75.67-38.05,115.51-52.37c16.42-5.54,33.28-11.21,50.81-11.19c-26.31-39.47-63.66-71.54-106.77-91.37
		C723.39,66.12,662.16,60.23,605.59,74.18 M845.01,196.86c-19.37,6.2-38.16,14.07-56.73,22.34
		c-36.26,16.28-71.53,34.64-106.54,53.43c-69.18,37.5-137.36,77.07-202.2,121.74c-7.57,4.89-13.96,12.38-15.49,21.48
		c-2.08,11.9,2.59,24.01,9.65,33.46c15.68,21.89,31.95,43.76,52.41,61.47c11.84,10.35,26.29,18.02,42.04,20.01
		c10.94,1.48,22.3,1.9,32.53,6.46c6.67,2.87,12.55,7.52,16.76,13.46c5.39,7.29,6.37,17.17,13.24,23.43
		c6.74,6.27,15.85,8.86,24.45,11.49c21.87,5.8,44.98,6.23,67.29,2.9c35.98-6.04,71.56-20.51,97.98-46.26
		c24.18-23.22,39.11-54.67,46.16-87.15c2.49-12.5,8.1-24.49,16.95-33.77c4.43-5.18,10.54-9.17,13.28-15.62
		c3.84-9.44,6.33-19.64,5.77-29.89c-0.32-3.94-0.91-8.56-4.51-10.92c-6.28-4.32-13.99-7.03-18.47-13.55
		c-4.42-5.79-4.34-13.34-6.09-20.1c-3.61-14.83-8.99-29.13-14.24-43.43c5.69,23.17,9.66,47.3,6.33,71.14
		c4.49,0.38,9.54,1.11,12.61,4.78c3.1,3.64,2.72,8.74,2.43,13.2c-1.3,17.78-9.23,34.21-18.27,49.28
		c-3.24,5.08-4.26,11.11-6.16,16.74c-4.78,16.31-12.18,31.95-22.5,45.51c-18.92,25.14-46.51,42.4-75.63,53.43
		c-20.58,7.65-42,13.54-63.94,15.37c-18.79,1.42-37.99,0.81-56.27-4.09c-6.96-1.6-12.92-6.92-14.52-13.99
		c-0.65-3.96,1.52-8.78-1.88-11.83c-6.66-6.66-14.67-12.46-23.88-14.92c-7.52-2.09-15.23,0.83-22.84-0.39
		c-4.71-0.92-9.58-1.73-13.72-4.33c-5.62-3.5-10.03-8.52-14.77-13.07c-9.63-9.7-19.04-19.61-28.22-29.74
		c-10.13-11.07-19.85-22.74-26.83-36.11c-3.39-6.53-5.33-14.41-2.71-21.56c2.79-8.11,9.53-14.04,16.85-18.08
		c61.2-38.59,123.65-75.18,187.12-109.89c32.42-17.6,65.09-34.76,98.54-50.32c16.33-7.46,32.79-14.79,49.97-20.09
		c8.57-2.6,18-4.66,26.75-1.64c3.62,1.2,6.26,4.84,5.97,8.7c-0.45,5.8-3.49,11.11-7.31,15.38c-6.41,7.27-13.83,13.57-21.37,19.61
		c1,1.97,2,3.96,3,5.94c16.37-12.52,31.7-26.98,42.59-44.62c2.94-5.06,6.55-11.09,3.87-17.04c-2.03-4.79-7.91-5.49-12.46-5.62
		C869.34,189.67,857.02,193.16,845.01,196.86 M816.73,239.49c-6.97,3.76-13.9,7.59-20.81,11.46
		c22.94,34.45,29.93,78.76,19.03,118.67c-6.58,24.37-19.64,46.95-37.45,64.84c-22.03,22.29-51.39,37.2-82.42,41.65
		c-37.72,5.69-77.46-4.14-108.07-26.93c-17.51-13.08-32.32-29.91-42.46-49.32c-10.87,6.32-21.47,13.1-32.21,19.64
		c-4.39,2.74-8.81,5.42-13.2,8.15c11.46,19.83,27.96,35.99,43.56,52.52c8.14,7.9,15.3,17.26,25.73,22.32
		c8.93,4.39,19.04,0.86,28.45,2.06c13.41,2.76,25.29,11.3,33.34,22.24c37.71,7.6,77.69,3.64,113-11.69
		c34.84-14.97,64.96-40.62,85.34-72.59c18.26-28.43,28.68-61.83,29.77-95.61c1.4-39.63-9.93-79.61-32.05-112.54
		C823.09,236.07,819.92,237.79,816.73,239.49 M738.72,263.27c-9.06,4.88-18.36,9.32-27.22,14.55c2.86,3.34,5.9,6.59,8.08,10.46
		c7.42,12.45,8.01,28.66,1.58,41.64c-4.63,9.63-12.93,17.41-22.79,21.5c-13.17,5.56-29.09,4.15-41.01-3.79
		c-10.13-6.43-17.05-17.19-19.51-28.86c-12.36,6.32-24.01,13.94-36.24,20.51c-13.94,8.66-28.25,16.73-42.19,25.4
		c6.89,22.63,19.91,43.4,37.59,59.15c25.15,22.77,60.09,34.47,93.87,30.48c34.18-3.59,65.87-23,85.8-50.81
		c21.87-29.93,29.93-69.29,22.14-105.48c-4-19.11-12.37-37.23-23.93-52.94C762.73,250.94,750.71,257.08,738.72,263.27
		 M692.57,298.96c6.14,6.64,7.61,16.27,6.09,24.94c5.94-4.81,9.53-12.4,9.22-20.06c-0.08-4.84-2.06-9.38-4.58-13.43
		C699.71,293.25,696.14,296.11,692.57,298.96 M578.43,598.16c-6.76,35.5,4.31,73.88,29.24,100.09c1.3,1.57,3.63,3.15,2.88,5.52
		c-4.74,11.71-6.75,24.8-5.11,37.36c0.7,5.84,6.85,8.18,11.76,9.56c13.95,3.6,28.52,3.41,42.83,3.31c2.46-0.2,6.43,0.29,7.02-2.98
		c1.12-5.06,1.64-10.31,3.69-15.12c0.47-1.32,1.74-2.49,3.22-2.38c12.01,0.25,24.03,0.38,36.04-0.02c1.48-0.18,3.17,0.17,4.02,1.56
		c2.58,5.17,2.83,11.07,4.31,16.59c0.76,2.38,3.75,2.11,5.74,2.31c12.47,0.23,25.04,0.21,37.38-1.83c5.1-0.97,10.4-2.06,14.75-5.05
		c3.88-2.69,3.95-7.95,4.17-12.18c-0.1-10.56-1.55-21.32-5.73-31.08c-0.71-1.79,0.72-3.26,1.82-4.45
		c12.58-13.05,21.96-29.13,27.25-46.46c-9.83-11.26-22.97-19.13-36.77-24.56c-18.55-7.28-38.35-10.75-58.1-12.75
		c-24.17-2.47-48.54-1.85-72.72-4.19C616.44,609.53,596.63,606.14,578.43,598.16z"/>
</g>
<g id="_x23_eff5f9ff">
	<path class="st1" d="M605.59,74.18c56.57-13.95,117.8-8.06,170.67,16.43c43.11,19.83,80.46,51.9,106.77,91.37
		c-17.53-0.02-34.39,5.65-50.81,11.19c-39.84,14.32-77.9,33.06-115.51,52.37c-66.78,34.72-132.37,71.79-195.86,112.21
		c-15.62,9.99-31.07,20.23-46.29,30.81c-8.23,5.48-15.13,13.56-17.45,23.34c-3.2,13.56,1.14,27.92,8.63,39.32
		c15.99,22.57,32.66,45.01,53.31,63.59c11.42,10.14,24.75,18.76,39.88,21.98c13.46,3.24,28.06,2.06,40.69,8.39
		c5.17,2.61,9.64,6.62,12.61,11.62c3.88,6.07,5.2,13.47,9.66,19.22c3.63,4.84,8.99,7.95,14.3,10.65c6.61,3.34,13.74,5.45,20.84,7.47
		c-40.93-1.62-81.44-13.03-117.08-33.24c-52.31-29.38-93.89-77.24-115.79-133.09c-23.39-58.89-24.53-126.23-3.24-185.9
		c18.49-52.49,54.13-98.71,100.13-130.03c-5,14.87-9.96,30.13-10.17,45.98c-0.07,8.65,2.14,18.29,9.4,23.77
		c6.37,5.14,14.99,5.01,22.74,5c13.93-0.24,27.66-6.28,36.93-16.73c9.49-10.42,15.11-23.73,18.81-37.18
		C603.91,113.68,605.52,93.85,605.59,74.18z"/>
	<path class="st1" d="M578.43,598.16c18.2,7.98,38.01,11.37,57.69,13.25c24.18,2.34,48.55,1.72,72.72,4.19
		c19.75,2,39.55,5.47,58.1,12.75c13.8,5.43,26.94,13.3,36.77,24.56c-5.29,17.33-14.67,33.41-27.25,46.46
		c-1.1,1.19-2.53,2.66-1.82,4.45c4.18,9.76,5.63,20.52,5.73,31.08c-0.22,4.23-0.29,9.49-4.17,12.18c-4.35,2.99-9.65,4.08-14.75,5.05
		c-12.34,2.04-24.91,2.06-37.38,1.83c-1.99-0.2-4.98,0.07-5.74-2.31c-1.48-5.52-1.73-11.42-4.31-16.59
		c-0.85-1.39-2.54-1.74-4.02-1.56c-12.01,0.4-24.03,0.27-36.04,0.02c-1.48-0.11-2.75,1.06-3.22,2.38
		c-2.05,4.81-2.57,10.06-3.69,15.12c-0.59,3.27-4.56,2.78-7.02,2.98c-14.31,0.1-28.88,0.29-42.83-3.31
		c-4.91-1.38-11.06-3.72-11.76-9.56c-1.64-12.56,0.37-25.65,5.11-37.36c0.75-2.37-1.58-3.95-2.88-5.52
		C582.74,672.04,571.67,633.66,578.43,598.16z"/>
</g>
<g id="_x23_a4a9adff">
	<path class="st2" d="M845.01,196.86c12.01-3.7,24.33-7.19,36.99-7.27c4.55,0.13,10.43,0.83,12.46,5.62
		c2.68,5.95-0.93,11.98-3.87,17.04c-10.89,17.64-26.22,32.1-42.59,44.62c-1-1.98-2-3.97-3-5.94c7.54-6.04,14.96-12.34,21.37-19.61
		c3.82-4.27,6.86-9.58,7.31-15.38c0.29-3.86-2.35-7.5-5.97-8.7c-8.75-3.02-18.18-0.96-26.75,1.64
		c-17.18,5.3-33.64,12.63-49.97,20.09c-33.45,15.56-66.12,32.72-98.54,50.32c-63.47,34.71-125.92,71.3-187.12,109.89
		c-7.32,4.04-14.06,9.97-16.85,18.08c-2.62,7.15-0.68,15.03,2.71,21.56c6.98,13.37,16.7,25.04,26.83,36.11
		c9.18,10.13,18.59,20.04,28.22,29.74c4.74,4.55,9.15,9.57,14.77,13.07c4.14,2.6,9.01,3.41,13.72,4.33c1.53,0.33,3.04,0.7,4.57,1.09
		c-3.61,5.93-8.67,11.08-11.15,17.63c-15.75-1.99-30.2-9.66-42.04-20.01c-20.46-17.71-36.73-39.58-52.41-61.47
		c-7.06-9.45-11.73-21.56-9.65-33.46c1.53-9.1,7.92-16.59,15.49-21.48c64.84-44.67,133.02-84.24,202.2-121.74
		c35.01-18.79,70.28-37.15,106.54-53.43C806.85,210.93,825.64,203.06,845.01,196.86z"/>
	<path class="st2" d="M865.58,358.98c3.33-23.84-0.64-47.97-6.33-71.14c5.25,14.3,10.63,28.6,14.24,43.43
		c1.75,6.76,1.67,14.31,6.09,20.1c4.48,6.52,12.19,9.23,18.47,13.55c3.6,2.36,4.19,6.98,4.51,10.92
		c0.56,10.25-1.93,20.45-5.77,29.89c-2.74,6.45-8.85,10.44-13.28,15.62c-8.85,9.28-14.46,21.27-16.95,33.77
		c-7.05,32.48-21.98,63.93-46.16,87.15c-26.42,25.75-62,40.22-97.98,46.26c-22.31,3.33-45.42,2.9-67.29-2.9
		c-8.6-2.63-17.71-5.22-24.45-11.49c-6.87-6.26-7.85-16.14-13.24-23.43c2.33-3.65,3.6-7.84,5.89-11.5
		c1.6,7.07,7.56,12.39,14.52,13.99c18.28,4.9,37.48,5.51,56.27,4.09c21.94-1.83,43.36-7.72,63.94-15.37
		c29.12-11.03,56.71-28.29,75.63-53.43c10.32-13.56,17.72-29.2,22.5-45.51c1.9-5.63,2.92-11.66,6.16-16.74
		c9.04-15.07,16.97-31.5,18.27-49.28c0.29-4.46,0.67-9.56-2.43-13.2C875.12,360.09,870.07,359.36,865.58,358.98z"/>
</g>
<g id="_x23_afc7e7ff">
	<path class="st3" d="M816.73,239.49c3.19-1.7,6.36-3.42,9.55-5.13c22.12,32.93,33.45,72.91,32.05,112.54
		c-1.09,33.78-11.51,67.18-29.77,95.61c-20.38,31.97-50.5,57.62-85.34,72.59c-35.31,15.33-75.29,19.29-113,11.69
		c-8.05-10.94-19.93-19.48-33.34-22.24c-9.41-1.2-19.52,2.33-28.45-2.06c-10.43-5.06-17.59-14.42-25.73-22.32
		c-15.6-16.53-32.1-32.69-43.56-52.52c4.39-2.73,8.81-5.41,13.2-8.15c12.11,23.18,30.07,42.93,50.8,58.73
		c8.23-9.46,15.84-19.43,23.87-29.05c30.61,22.79,70.35,32.62,108.07,26.93c31.03-4.45,60.39-19.36,82.42-41.65
		c17.81-17.89,30.87-40.47,37.45-64.84c9.43,6.68,18.24,14.21,27.75,20.78c5.76-22.68,6.77-46.39,4.06-69.59
		c-1.46-13.5-4.37-26.85-9.09-39.59C832.27,266.61,825.78,252.23,816.73,239.49z"/>
</g>
<g id="_x23_648dacff">
	<path class="st4" d="M795.92,250.95c6.91-3.87,13.84-7.7,20.81-11.46c9.05,12.74,15.54,27.12,20.94,41.73
		c4.72,12.74,7.63,26.09,9.09,39.59c2.71,23.2,1.7,46.91-4.06,69.59c-9.51-6.57-18.32-14.1-27.75-20.78
		C825.85,329.71,818.86,285.4,795.92,250.95z"/>
	<path class="st4" d="M512.34,419.5c10.74-6.54,21.34-13.32,32.21-19.64c10.14,19.41,24.95,36.24,42.46,49.32
		c-8.03,9.62-15.64,19.59-23.87,29.05C542.41,462.43,524.45,442.68,512.34,419.5z"/>
</g>
<g id="_x23_ab0f14ff">
	<path class="st5" d="M738.72,263.27c11.99-6.19,24.01-12.33,36.17-18.19c11.56,15.71,19.93,33.83,23.93,52.94
		c7.79,36.19-0.27,75.55-22.14,105.48c-19.93,27.81-51.62,47.22-85.8,50.81c-33.78,3.99-68.72-7.71-93.87-30.48
		c-17.68-15.75-30.7-36.52-37.59-59.15c13.94-8.67,28.25-16.74,42.19-25.4c2.28,2.68,2.99,6.21,4.32,9.39
		c-10.26,7.18-20.53,14.35-30.78,21.54c0.97,4.26,2.82,8.27,5.74,11.55c9.72-8.04,19.43-16.09,29.16-24.13
		c5.38,9.71,12.11,18.87,20.87,25.82c-8.58,10.54-17.19,21.04-25.58,31.73c3.58,4.96,8.87,8.24,14.01,11.35
		c3.06,1.87,6.4,3.21,9.9,4c4.99-12.9,8.78-26.23,13.13-39.35c15.09,7.98,32.6,11.4,49.55,9.01c20.02-2.59,38.81-13.15,51.58-28.76
		c8.27-9.92,13.82-21.89,16.73-34.43c9.98,5.5,19.76,11.35,29.74,16.87c3.85-17.26,3.88-35.4,0.04-52.67
		c-10.29-0.72-20.56-1.71-30.82-2.73c-2.01-6.1-4.41-12.06-7.32-17.79c10.62-0.18,21.25-0.01,31.87-0.07
		c-4.14-9.75-9.16-19.23-15.84-27.49c-8.92,4.22-17.63,8.9-26.67,12.87C740.4,265.07,739.56,264.17,738.72,263.27z"/>
</g>
<g id="_x23_59031dff">
	<path class="st6" d="M741.24,265.99c9.04-3.97,17.75-8.65,26.67-12.87c6.68,8.26,11.7,17.74,15.84,27.49
		c-10.62,0.06-21.25-0.11-31.87,0.07c2.91,5.73,5.31,11.69,7.32,17.79c10.26,1.02,20.53,2.01,30.82,2.73
		c3.84,17.27,3.81,35.41-0.04,52.67c-9.98-5.52-19.76-11.37-29.74-16.87c-2.91,12.54-8.46,24.51-16.73,34.43
		c-12.77,15.61-31.56,26.17-51.58,28.76c-16.95,2.39-34.46-1.03-49.55-9.01c3.71-11.78,7.49-23.53,11.15-35.33
		c-7.6,9.15-15.07,18.4-22.61,27.6c-8.76-6.95-15.49-16.11-20.87-25.82c2.67-2.21,5.34-4.43,8-6.64c-1.58-2.5-3.16-4.99-4.74-7.48
		c-2.46,1.72-4.92,3.43-7.38,5.16c-1.33-3.18-2.04-6.71-4.32-9.39c12.23-6.57,23.88-14.19,36.24-20.51
		c2.46,11.67,9.38,22.43,19.51,28.86c11.92,7.94,27.84,9.35,41.01,3.79c9.86-4.09,18.16-11.87,22.79-21.5
		c6.43-12.98,5.84-29.19-1.58-41.64c-2.18-3.87-5.22-7.12-8.08-10.46c8.86-5.23,18.16-9.67,27.22-14.55
		C739.56,264.17,740.4,265.07,741.24,265.99z"/>
</g>
<g id="_x23_f3f3f4ff">
	<path class="st7" d="M692.57,298.96c3.57-2.85,7.14-5.71,10.73-8.55c2.52,4.05,4.5,8.59,4.58,13.43
		c0.31,7.66-3.28,15.25-9.22,20.06C700.18,315.23,698.71,305.6,692.57,298.96z"/>
	<path class="st7" d="M605.93,348.67c2.46-1.73,4.92-3.44,7.38-5.16c1.58,2.49,3.16,4.98,4.74,7.48c-2.66,2.21-5.33,4.43-8,6.64
		c-9.73,8.04-19.44,16.09-29.16,24.13c-2.92-3.28-4.77-7.29-5.74-11.55C585.4,363.02,595.67,355.85,605.93,348.67z"/>
	<path class="st7" d="M630.92,383.45c7.54-9.2,15.01-18.45,22.61-27.6c-3.66,11.8-7.44,23.55-11.15,35.33
		c-4.35,13.12-8.14,26.45-13.13,39.35c-3.5-0.79-6.84-2.13-9.9-4c-5.14-3.11-10.43-6.39-14.01-11.35
		C613.73,404.49,622.34,393.99,630.92,383.45z"/>
</g>
<g id="_x23_bfc3c7ff">
	<path class="st8" d="M574.73,512.07c7.61,1.22,15.32-1.7,22.84,0.39c9.21,2.46,17.22,8.26,23.88,14.92
		c3.4,3.05,1.23,7.87,1.88,11.83c-2.29,3.66-3.56,7.85-5.89,11.5c-4.21-5.94-10.09-10.59-16.76-13.46
		c-10.23-4.56-21.59-4.98-32.53-6.46c2.48-6.55,7.54-11.7,11.15-17.63C577.77,512.77,576.26,512.4,574.73,512.07z"/>
</g>
</svg>
