<?xml version="1.0" encoding="utf-8"?>
<!-- Generator: Adobe Illustrator 19.0.0, SVG Export Plug-In . SVG Version: 6.00 Build 0)  -->
<svg version="1.1" id="Layer_1" xmlns="http://www.w3.org/2000/svg" xmlns:xlink="http://www.w3.org/1999/xlink" x="0px" y="0px"
	 viewBox="-280.1 716.1 206.8 125.7" style="enable-background:new -280.1 716.1 206.8 125.7;" xml:space="preserve">
<style type="text/css">
	.st0{fill:url(#_x23_222222ff_1_);}
</style>
<g id="_x23_ebeae9ff">
</g>
<linearGradient id="_x23_222222ff_1_" gradientUnits="userSpaceOnUse" x1="-176.6771" y1="0.68" x2="-176.6771" y2="126.3962" gradientTransform="matrix(1 0 0 -1 0 842.47)">
	<stop  offset="0" style="stop-color:#1A1B1A"/>
	<stop  offset="1" style="stop-color:#353434"/>
</linearGradient>
<path id="_x23_222222ff" class="st0" d="M-249.5,716.7c6.2-0.9,12.8-1.1,18.6,1.4c9.1,3.6,16.4,11.6,18.8,21.1
	c3.9,13.8-2.7,29.8-15.7,36.3c-11.6,6.1-27.1,4.3-36.3-5.2c-9.9-9.4-12.2-25.3-6.2-37.4C-266.1,724.9-258.4,718.6-249.5,716.7
	 M-243.9,732.4c-5.7,0.8-11,4.9-12.4,10.6c-3.1,9.3,5.3,20.6,15.3,19.5c8.1-0.2,14.1-8.5,13.3-16.3
	C-228,738.2-235.8,731.1-243.9,732.4z M-180.1,717.1c-3.7,12.4-6.9,24.9-10.6,37.3c-3.1-12.4-6.8-24.8-10.3-37.2
	c-5.6,0-11.2,0-16.8,0c6.5,20.2,12.4,40.6,19,60.8c5.6-0.2,11.2-0.3,16.7-0.1c6.5-19.9,12.5-40.9,18.8-60.8 M-162.7,717.1v5.1
	c0,18.6,0,37.1,0,55.7c11.2,0.1,22.5-0.1,33.7,0.1c0-4.9,0-9.9,0-14.8c-5.9,0-11.8,0.1-17.7-0.1c0.1-2.8,0.1-5.7,0-8.5
	c5.9,0.1,11.8,0,17.6,0.1c0-5,0-10,0-15c-5.9,0.1-11.8,0-17.7,0.1c0-2.7,0.1-5.4,0.1-8.1c5.9,0.3,11.7,0,17.6,0.2
	c0-4.9,0-9.9,0-14.8 M-127.8,717.2c8.3-0.1,16.6,0,24.8,0c4.8,0,9.7,1.3,13.2,4.7c10.8,9.6,8,30.9-6.4,35.4
	c5,6.8,10.1,13.6,14.6,20.7c-6.7-0.1-13.3,0-20,0c-3.3-5.6-6.6-11.3-9.9-16.8c0.4,5.6,0.2,11.2,0.3,16.8c-5.5,0-11,0-16.5,0
	C-127.8,757.7-127.6,737.5-127.8,717.2 M-111.3,732c0.1,4.1,0.1,8.2,0,12.3c2.8-0.1,5.7,0.2,8.3-0.9c4.4-1.5,4.7-8.8,0.4-10.5
	C-105.4,731.6-108.5,732.2-111.3,732z M-280,779.2c8.3,0,16.6,0,24.9,0c7.2-0.1,14.7,3,18.9,9.1c4.1,5.8,4.5,13.5,2.5,20.1
	c-2,5.9-7,10-12.4,12.7c1,1.3,2,2.7,3,4c10.4-15.3,21.2-30.4,31.4-45.9c5-0.2,10.1-0.1,15.1-0.1c0,20.8,0.1,41.6,0,62.5
	c-5.8,0-11.5,0.1-17.3-0.1c0.1-2.8,0.1-5.6,0.1-8.4c-5.3,0-10.6-0.1-15.9,0.1c-1.8,2.8-3.7,5.5-5.5,8.3c-5.3,0.2-10.5,0-15.8,0.1
	c-4.3-5.8-8.9-11.4-12.7-17.6c0.8,5.8,0.3,11.7,0.4,17.5c-5.6,0.1-11.2,0-16.8,0.1C-280,820.9-280,800-280,779.2 M-263.3,794.1
	c0,5,0.1,10,0,15.1c3.4-0.1,6.9,0.4,10-1.2c4.3-2.3,4.4-9.2,0.9-12.2C-255.5,793.4-259.6,794.3-263.3,794.1 M-220.6,820.2
	c2.4,0,4.8,0,7.3-0.1c-0.2-3.6-0.1-7.2,0-10.8C-215.6,813-218.1,816.6-220.6,820.2z M-194.8,779.2c9.7-0.1,19.5,0,29.2,0
	c-0.1,20.8,0.1,41.6,0,62.4c-5.8,0-11.5,0.2-17.3-0.1c0.2-15.5,0-31.1,0.1-46.6c-4,0-8.1,0.1-12.1,0
	C-194.8,789.7-194.7,784.4-194.8,779.2z M-163.8,779.2c11.6,0,23.2,0,34.8,0c-0.1,5-0.1,10,0,15c-6,0-12,0-18.1,0c0,2.8,0,5.5,0,8.3
	c6,0,12,0,18-0.1c0.1,5.1,0.1,10.2,0.1,15.2c-6,0.1-12,0.1-17.9,0c-0.1,3-0.1,5.9-0.1,8.9c6,0,12,0,17.9,0c0.1,5.1,0.1,10.2,0,15.3
	c-11.5-0.1-23.1,0-34.6-0.1C-163.9,820.8-163.6,800-163.8,779.2z M-127.8,779.2c8.9,0,17.9-0.1,26.9,0.1c6.6,0.2,13.1,2.4,18,6.9
	c8,7.1,10.5,18.6,9.4,28.9c-0.8,8.9-5.6,17.5-13.1,22.4c-4.7,3.4-10.7,4.3-16.3,4.2c-8.3-0.1-16.6,0.1-24.9-0.1
	C-127.8,820.8-127.7,800-127.8,779.2 M-111.1,793.9c0.1,10.8,0,21.7,0,32.5c5.1-0.2,10.7,0.8,15.2-2.1c4.4-2.7,5.9-8.3,5.9-13.2
	c0.2-5.5-1.4-11.7-6.4-14.7C-100.7,793.5-106.1,794-111.1,793.9z"/>
</svg>
