<?xml version="1.0" encoding="utf-8"?>
<!-- Generator: Adobe Illustrator 19.0.0, SVG Export Plug-In . SVG Version: 6.00 Build 0)  -->
<svg version="1.1" id="Layer_1" xmlns="http://www.w3.org/2000/svg" xmlns:xlink="http://www.w3.org/1999/xlink" x="0px" y="0px"
	 viewBox="22.01 231.41 639.97 378.948" style="enable-background:new 22.01 231.41 639.97 378.948;" xml:space="preserve">
<style type="text/css">
	.st0{fill:#010612;}
	.st1{fill:#FFFFFF;}
	.st2{fill:#020C23;}
	.st3{fill:#0090FF;}
	.st4{fill:#05102E;}
	.st5{fill:#1B1F2A;}
	.st6{fill:#F22E01;}
	.st7{fill:#F32E01;}
	.st8{fill:#C81406;}
	.st9{fill:#B30F07;}
</style>
<g id="_x23_010612ff">
	<path class="st0" d="M179.46,234.26c15.19-0.88,30.39-1.66,45.57-2.64c16.08-0.7,32.25,0.34,48.09,3.21
		c14.42,2.73,28.74,7.02,41.44,14.52c17.71,10.39,32.25,25.6,43.36,42.75c4.57-9.62,11.73-17.61,18.86-25.4
		c17.47-20.47,44.26-32.77,71.23-32.07c28.2,0.2,56.41-0.37,84.6,0.45c-1.08,11.46-3.35,23.13-9.33,33.14
		c-3.93,6.45-8.57,12.7-14.75,17.17c-5.7,4.03-12.55,6.52-19.56,6.73c-10.97,0.17-21.95-0.18-32.92,0.15
		c-14.43,1.28-27.93,8.48-38.25,18.46c-7.14,6.94-12.88,16.02-13.31,26.23c-0.94,18.17,6.21,36.12,17.14,50.4
		c7.11,9.52,18.71,14.43,30.18,16.12c10.63,1.84,21.44,0.84,32.16,1.13c6.16,0.16,12.2,1.83,17.76,4.45
		c5.86,2.79,11.78,5.93,16.13,10.88c7.31,8.08,11.08,18.59,13.63,29.01c43.88-9.1,87.29-20.35,130.49-32.23
		c-2.32,22.45-4.76,44.88-6.97,67.34c-1.8,1.42-3.62,2.83-5.42,4.25c1.85,2.31,5.67,4.06,5.09,7.5
		c-1.71,24.51-3.25,49.04-5.01,73.54c-49.12,7.95-98.27,15.67-147.52,22.74c-44.67,6.34-89.37,12.64-134.31,16.64
		c-15.25,1.24-30.62,2.56-45.89,0.71c-48.1-4.71-96.01-11.21-143.93-17.49c-38.75-5.24-77.49-10.48-116.13-16.47
		c-3.26-0.59-6.62-0.85-9.77-1.91c-2.23-3.13-3.09-6.98-4.37-10.54c-5.09-16.44-8.27-33.38-11.36-50.28
		c-5.86-33.25-10.44-66.72-14.38-100.24c7.03,3.67,13.22,8.91,20.74,11.61c11.44,4.25,23.42,6.74,35.35,9.14
		c32.7,6.19,65.78,10.18,98.89,13.41c5.07-15.84,15.48-30.94,31.3-37.43c18.16-8.18,38.62-3.85,57.53-8.62
		c11.47-2.67,22.67-8.49,29.74-18.16c6.67-9.2,10.66-20.3,11.7-31.6c1.22-12.83-3.88-25.53-11.62-35.56
		c-6.36-8.18-14.83-15-24.78-18.21c-10.86-3.58-22.35-5.09-33.77-4.99c-12.3-0.53-25.58-1.84-35.54-9.83
		C186.43,271.51,178.52,252.57,179.46,234.26 M182.73,237.51c0.42,10.95,3.22,22.01,9.33,31.21c6.69,10.38,17.99,17.25,30.04,19.48
		c11.15,2.6,22.63,0.11,33.88,1.7c11.54,1.38,23.53,4.69,32.24,12.8c9.48,8.86,17.63,19.66,21.37,32.23
		c3.54,11.48,2.41,24.08-2.35,35.04c-4.96,11.18-12.26,21.85-22.77,28.44c-8.19,5.19-17.91,7.15-27.44,8
		c-12.01,1.05-24.13,1.54-35.97,4.03c-7.04,1.51-14.03,4.12-19.6,8.8c-5.04,4.13-8.79,9.6-11.67,15.4
		c-3.18,6.39-6.4,12.77-9.41,19.24c-39.94-4.25-79.9-8.98-119.36-16.61c-9.86-2.1-19.83-4.14-29.14-8.11
		c1.1,12.35,2.95,24.63,4.59,36.92c3.47,24.66,7.1,49.3,11.4,73.83c1.52,8.23,2.88,16.52,5.29,24.55
		c68.24,10.77,136.54,21.17,204.97,30.69c23.21,3.09,46.42,6.37,69.75,8.44c13.74,1.44,27.47-0.8,41.13-2.05
		c48.07-5.43,96-12.01,143.92-18.59c44.66-6.18,89.29-12.55,133.91-19c0.97-23.29,1.67-46.59,2.37-69.89
		c-2.23-2.17-4.39-4.4-6.6-6.58c2.04-1.22,4.09-2.42,6.15-3.6c0.91-18.07,1.58-36.15,2.39-54.22
		c-31.28,7.12-62.57,14.28-93.99,20.77c-10.03,2.18-20.25,3.35-30.21,5.88c-0.01-9.67-2.42-19.47-7.66-27.65
		c-5.47-8.69-14.52-14.74-24.37-17.35c-14.67-4-30.07-1.81-44.95-4.32c-13.08-2.05-25.72-8.55-33.94-19.09
		c-9.14-11.69-14.51-26.24-15.54-41.02c-0.76-11.62,1.82-24.01,9.54-33.05c8.25-9.34,18.3-17.69,30.43-21.32
		c14.43-4.42,29.69-3.07,44.56-2.97c9.65,0.05,19.26-3.69,26.26-10.36c11.06-10.5,16.34-25.65,18.24-40.48
		c-28.52-0.08-57.05-0.57-85.57-0.51c-23.47,2-46.68,12.47-62.1,30.56c-9.03,10.34-18.54,20.64-24.67,33.05
		c-6.52-11.41-14.65-21.86-23.83-31.24c-11.63-11.71-25.5-21.64-41.36-26.66c-12.95-3.97-26.47-5.67-39.93-6.78
		C228.98,235.44,205.79,235.82,182.73,237.51z"/>
	<path class="st0" d="M277.07,410.01c12.38-3.25,23.33-10.27,33.16-18.28c-5,11.83-15.73,20.35-27.48,24.93
		c-11.28,4.53-23.54,5.71-35.59,5.92c-16.16,0.69-31.52,10.4-38.72,24.94c6.38-5.22,13.57-9.52,21.45-12.02
		c6.5-2.24,13.38-2.8,20.14-3.79c7.2-0.95,14.37-2.15,21.58-2.96l0.54-1.27c0.11,0.28,0.34,0.82,0.45,1.1
		c-8.55,3.49-17.07,7.18-24.99,11.97c-6.78,4.34-12.96,9.57-18.88,15.01c23.34,7.09,49.49,7.03,71.91-3.21
		c19.25-8.91,35.35-23.61,48.11-40.37c-4.95,11.58-10.73,22.86-18.16,33.07c11.17-8.44,19.97-19.81,26.06-32.36
		c5.29,16.67,17.52,30.58,32.45,39.42c-10.92-11.16-18.08-25.34-24.14-39.57c12.95,16.52,28.89,31.24,48.16,39.98
		c22.34,10.07,48.35,10.1,71.56,3.02c-6.03-5.44-12.24-10.75-19.11-15.11c-7.86-4.74-16.35-8.3-24.74-11.96
		c10.75,1.63,21.52,3.09,32.28,4.6c11.76,1.63,22.86,6.88,31.87,14.55c-5.63-11.1-15.84-19.81-27.87-23.16
		c-8.1-2.56-16.67-1.69-24.99-2.68c-12.96-1.42-26.04-5.36-36.32-13.64c-5.48-4.33-9.88-9.99-12.64-16.4
		c9.19,7.45,19.28,14.12,30.71,17.56c16.2,5.22,33.39,2.92,50.09,3.5c9.98,0.18,20.31,3.42,27.25,10.9
		c8.89,9.53,11.94,22.87,13.05,35.5c41.05-5.86,81.82-13.63,122.21-23.01c-0.9,15.76-2.02,31.52-2.94,47.28
		c-3.85,1.62-7.65,3.4-11.57,4.84c3.71,0.53,7.8,1.27,10.36,4.3c3.03,3.28,3.15,8.03,3.02,12.24c-0.54,18.52-1.49,37.03-2.36,55.53
		c-49.78,6.5-99.56,13-149.36,19.29c-43.47,5.43-86.92,11.09-130.51,15.55c-13.05,1.64-26.17,0.04-39.2-0.97
		c-44.92-4.22-89.65-10.27-134.37-16.19c-44.48-6.03-88.92-12.32-133.32-18.88c-4.32-39.81-8.66-79.63-13.01-119.44
		c46.25,9.63,92.99,17.05,140.03,21.47c3.78-14.15,9.28-28.68,20.24-38.88c6.12-5.64,14.27-8.73,22.51-9.29
		C242.99,411.81,260.42,414.69,277.07,410.01 M229.08,416.79c-7.52,0.98-15.59,2.5-21.4,7.76c-9.77,8.75-15.8,20.92-19.45,33.34
		c-1.17,3.1,0.1,6.22,1.18,9.14c2.1-7.7,4.37-15.46,8.38-22.42c-0.68,5.17-1.76,10.31-1.55,15.56c3.66-9.39,6.27-19.42,12.25-27.7
		c3.24-4.66,8.42-7.37,13.42-9.73c9.49-4.31,20.06-4.5,30.25-5.46C244.64,415.21,236.73,416.12,229.08,416.79 M459.89,417.33
		c6.33,0.66,12.75,0.65,19.02,1.89c7.02,1.38,13.77,4.15,19.79,8.03c3.58,2.28,7.31,4.68,9.59,8.37c3.63,5.52,4.89,12.09,6.45,18.39
		c0.18-3.76,0.38-7.51,0.55-11.27c3.32,6.74,3.84,14.24,3.97,21.63c3.5-2.47,2.2-6.96,1.78-10.51
		c-1.37-10.29-5.55-20.56-13.35-27.64c-6.23-5.48-14.7-7.1-22.65-8.31C476.71,416.87,468.23,416,459.89,417.33 M576.02,463.94
		c-3.04,0.35-7.01,2.26-6.5,5.9c1.14,10.67,1.88,21.37,2.24,32.09c0.19,2.55-0.09,5.49,1.74,7.56c1.55,1.9,4.15,2.34,6.48,2.2
		c11.05-0.38,22.1-0.65,33.15-1c0.04,6.96,0.11,13.91,0.15,20.86c-6.78,0.24-13.54,0.71-20.32,0.98c-0.02-2.42-0.04-4.84-0.05-7.25
		c-6.78,0.4-13.58,0.35-20.36,0.83c0.29,10.23,0.66,20.45,0.86,30.69c17.57-1.45,35.11-3.23,52.64-5.09
		c4.09-0.05,7.68-3.7,7.43-7.84c0.04-13.32,0.02-26.64,0.02-39.96c0.4-4.1-3.47-7.71-7.51-7.22c-11.24,0.53-22.5,0.75-33.74,1.33
		c-0.12-6.29-0.53-12.56-0.72-18.83c6.96-0.6,13.94-1,20.9-1.57c0.06,2.13,0.13,4.27,0.21,6.41c7.89-2.53,15.92-4.57,23.99-6.42
		c-0.08-8.41,0.71-16.79,0.63-25.19C616.78,455.88,596.61,461.12,576.02,463.94 M54.46,453.48c0.27,7.47,2.16,14.73,3.4,22.07
		c5.53,0.38,11.07,0.59,16.6,0.9c0.25,18.12,0.31,36.25,0.28,54.38c-2.28-0.1-4.56-0.2-6.84-0.31c0,6.8-0.01,13.6,0,20.4
		c22.61,2.85,45.27,5.25,67.95,7.4c0.06-10.58,0.06-21.16,0.04-31.74c-6.81-0.46-13.64-0.34-20.44-0.87c-0.02,2.47-0.01,4.96,0,7.44
		c-6.78-0.36-13.57-0.66-20.35-1.09c0.02-7.03-0.01-14.07-0.03-21.1c9.04,0.16,18.07,0.53,27.11,0.79
		c-0.21-4.53-0.38-9.05-0.44-13.58c-9-0.12-17.98-0.63-26.98-0.76c-0.06-6.55-0.25-13.1-0.56-19.64c6.61,0.54,13.24,0.78,19.84,1.39
		c0.12,2,0.25,4,0.38,6.01c6.66,0.37,13.33,0.67,20,0.97c-0.62-7.33-1.45-14.64-2.85-21.87C105.81,461.1,80.12,457.34,54.46,453.48
		 M316.49,454.68c-3.32,0.69-6.12,2.71-8.98,4.41c-2.81,1.79-5.55,3.68-8.16,5.75c4.17-0.82,11.56,0.27,12.25-5.42
		c1.76-1.11,3.62-0.66,5.37,0.2c3.5-1.7,6.89-3.6,10.15-5.71C323.57,453.99,319.99,453.99,316.49,454.68 M386.25,455.09
		c2.72,1.75,5.52,3.36,8.42,4.81c1.4-0.47,2.75-1.62,4.32-1.28c1.01,0.91,1.85,1.99,2.73,3.04l-1.93,0.75
		c4.42,2.27,9.3,3.57,14.28,3.57c-2.16-1.69-4.29-3.5-6.77-4.7c-2.81-1.76-5.52-3.77-8.65-4.94
		C394.65,455.11,390.39,455.25,386.25,455.09 M138.06,465.06c1.03,5.14,1.86,10.32,2.46,15.53c2.22,0.15,4.44,0.32,6.66,0.49
		c2.1,17.82,2.28,35.79,2.32,53.71c-2.25-0.12-4.5-0.25-6.75-0.37c0.02,8.16-0.04,16.32-0.08,24.48c22.79,1.98,45.6,3.66,68.45,4.88
		c0.03-11.69-0.07-23.37-0.25-35.06c-6.83-0.21-13.67-0.3-20.51-0.45c0.04,2.66,0.09,5.32,0.14,7.98c-6.8-0.12-13.6-0.52-20.4-0.69
		c-0.28-7.54-0.18-15.09-0.48-22.63c9.07,0.24,18.14,0.3,27.2,0.49c-0.16-4.42-0.52-8.83-0.73-13.25
		c-8.97-0.34-17.96-0.26-26.92-0.7c-0.86-5.76-1.04-11.61-2.01-17.35c6.67,0.26,13.35,0.57,20.02,0.91
		c0.29,1.74,0.58,3.49,0.86,5.24c6.73,0.15,13.45,0.54,20.18,0.56c-1.02-5.92-2.45-11.79-4.89-17.29
		C181.53,469.81,159.78,467.55,138.06,465.06 M504.93,471.51c-2.4,0.12-4.73,1.01-6.35,2.83c3.24,10.6,4.08,21.71,4.96,32.7
		c0.19,3.32,3.09,6.28,6.49,6.17c11.59,0.05,23.17-0.57,34.76-0.61c0.47,7.32,0.61,14.67,0.89,22c-6.79,0.17-13.57,0.51-20.35,0.73
		c-0.12-2.6-0.23-5.2-0.29-7.79c-6.81,0.14-13.6,0.46-20.4,0.53c0.38,11.23,0.77,22.47,1.39,33.69c17.73-0.64,35.42-2.37,53.11-3.68
		c4.71,0.08,7.81-4.82,7.3-9.17c-0.41-14.36-0.78-28.73-1.38-43.08c0.13-3.78-3.42-6.93-7.1-6.78c-11.43,0.12-22.85,0.85-34.27,0.72
		c-0.74-5.5-1.01-11.06-1.91-16.55c6.95-0.37,13.91-0.72,20.87-1.03c0.21,1.78,0.43,3.57,0.65,5.36c6.91-0.26,13.82-0.6,20.73-0.98
		c-0.52-6.99-1.27-13.96-2.39-20.88C542.77,467.95,523.87,469.88,504.93,471.51 M209.99,472.08c1.7,3.89,3.05,7.93,4.01,12.06
		c2.23,0.07,4.46,0.13,6.69,0.21c3.67,17.36,3.56,35.21,4.02,52.87c-2.3-0.05-4.59-0.08-6.88-0.12c0.13,9.03-0.06,18.07,0.21,27.11
		c11.44,0.51,22.86,1.11,34.3,1.53c-0.07-9.32-0.09-18.64-0.28-27.96c-2.29-0.04-4.58-0.07-6.87-0.09
		c-0.08-7.84-0.41-15.68-0.7-23.51c6.81,0.06,13.61,0.11,20.42,0.29c0.93,14.13,0.71,28.29,1.15,42.43
		c0.01,3.81,1.75,8.57,5.96,9.35c7.19,0.6,14.44,0.34,21.65,0.55c-0.26-9.44-0.4-18.89-0.52-28.34c-2.29-0.03-4.58-0.04-6.87-0.06
		c-0.2-8.03-0.42-16.08-0.97-24.09c-0.24-3.29-3.04-5.49-5.92-6.54c2.49-0.91,5.24-2.75,4.87-5.8c-0.69-7.24-1.92-14.58-4.88-21.27
		c-1.31-3.86-5.87-4.45-9.37-4.78C249.99,474.88,229.97,473.75,209.99,472.08 M420.68,476.71c1.86,3.03,3.24,6.32,4.31,9.7
		c2.29-0.06,4.58-0.13,6.87-0.17c3.9,16.86,3.99,34.27,4.91,51.46c-2.25,0.03-4.49,0.06-6.73,0.09c0.12,9.31,0.69,18.61,0.88,27.92
		c22.78-0.79,45.55-1.95,68.32-3.3c-0.69-11.37-0.94-22.76-1.47-34.14c-6.82,0.16-13.64,0.24-20.46,0.41
		c0.15,2.68,0.27,5.36,0.38,8.05c-6.82,0.46-13.66,0.35-20.48,0.54c-0.32-7.71-0.64-15.42-1.15-23.11c9.1-0.05,18.2-0.26,27.3-0.44
		c-0.2-4.33-0.56-8.65-0.95-12.96c-9.15,0.05-18.28,0.46-27.43,0.43c-0.51-5.2-1.33-10.37-2.46-15.47
		c6.91-0.06,13.82-0.46,20.73-0.58c0.29,1.54,0.59,3.1,0.89,4.66c6.91-0.05,13.83-0.25,20.73-0.54c-0.91-5.65-2.09-11.29-4.26-16.61
		C467.34,474.55,444.01,475.73,420.68,476.71 M290.19,476.7c2.13,2.96,3.68,6.28,4.87,9.72c2.26,0.03,4.52,0.07,6.79,0.13
		c4.41,16.96,4.28,34.62,4.94,52.01c-2.25-0.03-4.49-0.04-6.74-0.05c0.12,9.51,0.19,19.02,0.5,28.53
		c11.44,0.06,22.88,0.29,34.31,0.35c-0.16-9.59-0.4-19.17-0.69-28.75c-2.28-0.01-4.57-0.01-6.85,0c-0.75-17.35-0.55-35.01-5.12-51.9
		c2.28,0.02,4.56,0.04,6.85,0.01c-1.19-3.24-2.76-6.35-4.87-9.09C312.85,477.4,301.52,477.16,290.19,476.7 M385.98,477.67
		c2.38,3.31,4.11,7.06,5.07,11.04c2.16,8.5,2.92,17.28,3.53,26.01c-8.34-14.9-19.16-30.15-35.69-36.51
		c-9.24-0.91-18.6-0.15-27.89-0.49c2.13,2.79,3.71,5.94,4.9,9.24c2.27,0,4.54,0.01,6.81,0.05c4.5,16.8,4.34,34.37,5.18,51.62
		c-2.27,0-4.54,0-6.81,0.01c0.16,9.59,0.51,19.17,0.67,28.76c9.16-0.03,18.33-0.16,27.49-0.25c-0.69-21.75-0.88-43.56-3.08-65.23
		c13.48,19.85,22.03,42.47,30.55,64.75c9.16-0.06,18.31-0.51,27.46-0.7c-0.44-9.31-0.74-18.63-1.02-27.94
		c-2.32,0.01-4.63,0.04-6.93,0.06c-0.81-17.21-0.9-34.67-5.05-51.49c2.31-0.04,4.63-0.07,6.94-0.13c-1.13-3.3-2.49-6.51-4.36-9.46
		C404.49,477.12,395.24,477.48,385.98,477.67 M202.9,570.31c6.61,2.21,13.59,2.86,20.41,4.12c32.77,5.25,65.62,10.13,98.66,13.38
		c10.86,0.89,21.85,2.15,32.72,0.61c21.99-2.93,43.96-6.01,65.94-9.02c21.5-3.16,43.1-5.71,64.54-9.21
		c-4.83-0.33-9.67-0.15-14.48,0.24c-14.24,0.78-28.48,1.46-42.72,2.22c-21.66,1.17-43.34,1.04-65.02,1.07
		C309.58,573.64,256.24,572,202.9,570.31z"/>
	<path class="st0" d="M240.9,485.09c6.76,0.07,13.5,0.47,20.25,0.57c1.3,5.12,2.13,10.35,2.76,15.6c-6.8-0.07-13.6-0.12-20.4-0.21
		C242.93,495.68,242.15,490.34,240.9,485.09z"/>
</g>
<g id="_x23_ffffffff">
	<path class="st1" d="M182.73,237.51c23.06-1.69,46.25-2.07,69.33-0.39c13.46,1.11,26.98,2.81,39.93,6.78
		c15.86,5.02,29.73,14.95,41.36,26.66c9.18,9.38,17.31,19.83,23.83,31.24c6.13-12.41,15.64-22.71,24.67-33.05
		c15.42-18.09,38.63-28.56,62.1-30.56c28.52-0.06,57.05,0.43,85.57,0.51c-1.9,14.83-7.18,29.98-18.24,40.48
		c-7,6.67-16.61,10.41-26.26,10.36c-14.87-0.1-30.13-1.45-44.56,2.97c-12.13,3.63-22.18,11.98-30.43,21.32
		c-7.72,9.04-10.3,21.43-9.54,33.05c1.03,14.78,6.4,29.33,15.54,41.02c8.22,10.54,20.86,17.04,33.94,19.09
		c14.88,2.51,30.28,0.32,44.95,4.32c9.85,2.61,18.9,8.66,24.37,17.35c5.24,8.18,7.65,17.98,7.66,27.65
		c9.96-2.53,20.18-3.7,30.21-5.88c31.42-6.49,62.71-13.65,93.99-20.77c-0.81,18.07-1.48,36.15-2.39,54.22
		c-2.06,1.18-4.11,2.38-6.15,3.6c2.21,2.18,4.37,4.41,6.6,6.58c-0.7,23.3-1.4,46.6-2.37,69.89c-44.62,6.45-89.25,12.82-133.91,19
		c-47.92,6.58-95.85,13.16-143.92,18.59c-13.66,1.25-27.39,3.49-41.13,2.05c-23.33-2.07-46.54-5.35-69.75-8.44
		c-68.43-9.52-136.73-19.92-204.97-30.69c-2.41-8.03-3.77-16.32-5.29-24.55c-4.3-24.53-7.93-49.17-11.4-73.83
		c-1.64-12.29-3.49-24.57-4.59-36.92c9.31,3.97,19.28,6.01,29.14,8.11c39.46,7.63,79.42,12.36,119.36,16.61
		c3.01-6.47,6.23-12.85,9.41-19.24c2.88-5.8,6.63-11.27,11.67-15.4c5.57-4.68,12.56-7.29,19.6-8.8c11.84-2.49,23.96-2.98,35.97-4.03
		c9.53-0.85,19.25-2.81,27.44-8c10.51-6.59,17.81-17.26,22.77-28.44c4.76-10.96,5.89-23.56,2.35-35.04
		c-3.74-12.57-11.89-23.37-21.37-32.23c-8.71-8.11-20.7-11.42-32.24-12.8c-11.25-1.59-22.73,0.9-33.88-1.7
		c-12.05-2.23-23.35-9.1-30.04-19.48C185.95,259.52,183.15,248.46,182.73,237.51 M193.66,242.5c3.86,7.31,10.01,14.03,18.27,16.16
		c10.19,2.39,20.67,0.79,30.97,0.23c7.23-0.55,14.4,0.79,21.55,1.62c-11.24-3.14-22.09-8.1-33.82-9.1c8.45-0.7,16.9-1.41,25.37-1.59
		c12.12-0.06,24.13,2.85,35.12,7.9c-9.33-4.93-18.96-9.43-29.11-12.39c-6.19-1.92-12.7-2.24-19.12-2.68
		C226.49,241.91,210.06,242.06,193.66,242.5 M453.06,244.46c-11.29,2.81-21.94,7.71-32.17,13.17c10.97-5.06,23-7.89,35.1-7.81
		c8.47,0.19,16.92,0.93,25.36,1.59c-12,0.91-23.04,6.15-34.56,9.2c7.37-0.94,14.79-2.27,22.25-1.72c10.45,0.6,21.12,2.21,31.43-0.39
		c7.96-2.34,13.85-8.88,17.65-15.99c-12.02-0.31-24.05-0.55-36.07-0.26C472.37,242.5,462.59,242.53,453.06,244.46 M263.55,243.28
		c10.51,3.75,21.14,7.48,30.69,13.35c7.55,4.64,14.27,10.78,19.03,18.29c-11.46-7.73-23.04-15.79-36.28-20.19
		c-10.08-2.88-20.82-3.32-31.17-1.85c6.34,1.56,12.75,2.99,18.84,5.4c8.8,3.21,16.55,8.55,24.48,13.42
		c-10.49-4.64-21.47-9.29-33.13-9.38c-13.34,0.72-26.77,3.89-40.11,1.43c-10.62-1.76-18.54-9.93-25.05-17.9
		c6.78,11.7,17.22,22.81,31.14,25.14c13.51,3.31,27.28-0.55,40.92,0.73c19.6,1.3,39.36,7.94,54.09,21.27
		c8.52,7.79,15.61,17.4,19.61,28.28c5.57,15.73,2.59,33.43-5.26,47.85c0.52-8.69,1.39-18.48-4.17-25.86
		c-1.31,10.89-4.67,21.74-11.4,30.55c-2.8,4.14-7.34,6.72-9.9,11.04c-4.67,7.09-10.82,13.14-17.72,18.05
		c10.16-3.24,18.95-9.9,25-18.67c-1.01,12.86-7.78,26.31-19.88,31.97c-10.47,5.28-21.98,8.1-33.43,10.34
		c12.1-1.25,24.33-2.59,36.47-1.19c-10.37,2.83-21.14,4.9-30.65,10.18c-9.67,5.18-19.32,10.55-28.23,16.99
		c8.43,1.76,17.08,2.02,25.65,2.53c13.4-0.75,26.62-4.47,38.63-10.43c25.1-12.84,45.64-35.28,54.54-62.2
		c6.09,18.57,17.84,34.99,32.7,47.59c16.89,14.67,38.61,23.93,61.02,25.07c8.67-0.66,17.53-0.52,25.98-2.78
		c-9.43-6.25-19.17-12.07-29.22-17.26c-9.33-5-19.82-6.98-29.93-9.76c12.15-1.18,24.38-0.16,36.46,1.32
		c-12.82-2.83-26-5.75-37.27-12.77c-5.86-3.5-9.45-9.59-12.3-15.58c-2.09-4.36-3.1-9.13-3.47-13.92
		c5.74,7.9,13.42,14.53,22.78,17.71c-6.34-4.98-12.2-10.69-16.57-17.5c-2.54-4.11-6.82-6.69-9.55-10.65
		c-6.79-8.84-10.12-19.76-11.49-30.7c-5.37,7.49-4.85,17.18-4.1,25.9c-8.49-15.31-11.18-34.59-4.08-50.95
		c7.18-16.06,20.24-29.37,36.07-37.04c15.95-7.77,34.08-10.56,51.7-9.36c11,1.21,22.47,1.04,32.95-2.88
		c6.16-2.26,11.08-6.79,15.5-11.49c3.49-3.92,6.95-8.05,8.75-13.04c-6.29,7.66-13.34,15.79-23.2,18.68
		c-13.5,3.59-27.48,0.44-41.1-0.6c-11.98-0.79-23.16,4.34-34.08,8.51c4.36-2.73,8.76-5.38,13.2-7.97
		c8.87-5.05,18.79-7.69,28.65-10.03c-10.24-1.6-20.87-0.99-30.85,1.79c-13.21,4.42-24.8,12.41-36.24,20.17
		c5.01-8.02,12.32-14.39,20.42-19.14c9.19-5.34,19.23-8.96,29.25-12.41c-13.93,1.24-27.65,5.15-39.94,11.85
		c-23.92,13.17-43.33,35.08-52,61.13C342.88,276.96,305.45,246.08,263.55,243.28 M501.27,270.12c-8.9,3.76-18.77,4.01-28.28,4.05
		c-10.83,0.15-21.7-1.22-32.47,0.35c-14.87,2.22-28.88,8.93-40.52,18.35c-12.12,9.81-19.76,24.16-23.91,38.99
		c-2.39,7.31,0.52,14.84,1.43,22.15c-0.32-8.45,3.6-16.46,9.36-22.45c1.39,17.88,5.77,37.82,20.79,49.3
		c-4.94-8.32-8.91-17.33-10.52-26.92c-2.9-15.89,0.15-33.46,10.76-46.03c10.07-11.82,24.54-20.07,40.02-22.03
		c11.61-1.6,23.36-1.1,35.03-0.88c7.02-0.16,14.46-0.03,20.82-3.44c8.03-4.16,13.86-11.7,17.25-19.96
		c-3.3,3.95-6.45,8.25-11.24,10.5c6.72-6.2,9.46-15.19,13.08-23.31C517.66,257.55,510.77,265.87,501.27,270.12 M189.99,249.37
		c3.57,7.94,6.21,16.85,13.01,22.74c-4.84-2.13-8.03-6.37-11.25-10.37c3.36,8.65,9.71,16.37,18.18,20.36
		c5.94,2.79,12.68,2.73,19.11,2.9c12.93-0.18,26-0.9,38.8,1.4c11.63,1.97,22.33,7.82,31.13,15.53c8.98,7.9,15.06,19,16.76,30.85
		c2.72,16.68-1.93,33.88-10.83,48.03c15.12-11.38,19.46-31.44,20.81-49.3c5.68,6,9.82,13.96,9.23,22.42
		c1.17-7.23,3.98-14.75,1.59-22.02c-2.28-8.24-5.64-16.21-10.2-23.44c-9.68-15.57-26.07-25.96-43.26-31.48
		c-22.29-7.32-46.3,1.17-68.67-5.7C203.59,267.77,195.84,258.71,189.99,249.37 M277.07,410.01c-16.65,4.68-34.08,1.8-51.08,3.03
		c-8.24,0.56-16.39,3.65-22.51,9.29c-10.96,10.2-16.46,24.73-20.24,38.88c-47.04-4.42-93.78-11.84-140.03-21.47
		c4.35,39.81,8.69,79.63,13.01,119.44c44.4,6.56,88.84,12.85,133.32,18.88c44.72,5.92,89.45,11.97,134.37,16.19
		c13.03,1.01,26.15,2.61,39.2,0.97c43.59-4.46,87.04-10.12,130.51-15.55c49.8-6.29,99.58-12.79,149.36-19.29
		c0.87-18.5,1.82-37.01,2.36-55.53c0.13-4.21,0.01-8.96-3.02-12.24c-2.56-3.03-6.65-3.77-10.36-4.3c3.92-1.44,7.72-3.22,11.57-4.84
		c0.92-15.76,2.04-31.52,2.94-47.28c-40.39,9.38-81.16,17.15-122.21,23.01c-1.11-12.63-4.16-25.97-13.05-35.5
		c-6.94-7.48-17.27-10.72-27.25-10.9c-16.7-0.58-33.89,1.72-50.09-3.5c-11.43-3.44-21.52-10.11-30.71-17.56
		c2.76,6.41,7.16,12.07,12.64,16.4c10.28,8.28,23.36,12.22,36.32,13.64c8.32,0.99,16.89,0.12,24.99,2.68
		c12.03,3.35,22.24,12.06,27.87,23.16c-9.01-7.67-20.11-12.92-31.87-14.55c-10.76-1.51-21.53-2.97-32.28-4.6
		c8.39,3.66,16.88,7.22,24.74,11.96c6.87,4.36,13.08,9.67,19.11,15.11c-23.21,7.08-49.22,7.05-71.56-3.02
		c-19.27-8.74-35.21-23.46-48.16-39.98c6.06,14.23,13.22,28.41,24.14,39.57c-14.93-8.84-27.16-22.75-32.45-39.42
		c-6.09,12.55-14.89,23.92-26.06,32.36c7.43-10.21,13.21-21.49,18.16-33.07c-12.76,16.76-28.86,31.46-48.11,40.37
		c-22.42,10.24-48.57,10.3-71.91,3.21c5.92-5.44,12.1-10.67,18.88-15.01c7.92-4.79,16.44-8.48,24.99-11.97
		c-0.11-0.28-0.34-0.82-0.45-1.1l-0.54,1.27c-7.21,0.81-14.38,2.01-21.58,2.96c-6.76,0.99-13.64,1.55-20.14,3.79
		c-7.88,2.5-15.07,6.8-21.45,12.02c7.2-14.54,22.56-24.25,38.72-24.94c12.05-0.21,24.31-1.39,35.59-5.92
		c11.75-4.58,22.48-13.1,27.48-24.93C300.4,399.74,289.45,406.76,277.07,410.01z"/>
	<path class="st1" d="M181.78,322.6c26.08-0.03,52.15-0.06,78.22,0.1c7.76,0.27,15.71,0.55,23.09,3.21c4.49,1.46,7.32,5.6,9.45,9.57
		c4.45,8.48,3.74,19.09-0.93,27.32c-4.71,8.1-14.32,12.73-23.56,12.29c-14.02-0.03-28.05-0.02-42.07,0
		c-5.55,0.12-11.18-0.73-16.28-3c-7.97-3.49-14.1-10.19-18.3-17.68C185.94,344.66,183.1,333.64,181.78,322.6 M190.73,328.28
		c1.31,11.32,4.94,23.32,14.01,30.86c9.98,7.9,23.7,9.19,35.89,7.18c-10.02-1.26-20.25-3.57-28.77-9.23
		c-7.65-4.91-10.39-14.1-13.84-22c18.99-0.43,38-0.74,57-0.53c6.47-0.08,13.05,0.13,19.27,2.07c3.66,1.13,7.47,3.24,8.85,7.04
		c2.37,5.91-0.33,12.16-3,17.46c2.86-2.1,6.47-3.72,7.97-7.15c1.93-4.68,1.34-10.09-0.62-14.66c-2.39-5.37-7.79-8.88-13.41-10.06
		c-9.22-1.93-18.7-1.15-28.04-0.99C227.6,328.28,209.17,328.25,190.73,328.28 M201.65,337.72c3.08,7.13,6.15,15.38,13.55,19.06
		c10.69,5.33,22.68,7.02,34.35,8.88c-8.42,2.8-17.3,2.85-26.03,3.64c7.08,1.24,14.28,0.86,21.43,0.9
		c8.32-0.07,16.65,0.13,24.96-0.07c7.46-0.11,14.1-4.9,17.68-11.26c-4.41,2.74-8.82,5.55-13.69,7.43c3.51-4.56,7.21-9.47,7.66-15.43
		c0.44-4.6-2.2-9.26-6.52-11c-9.14-3.95-19.38-3.07-29.09-2.74C231.18,337.26,216.42,337.57,201.65,337.72z"/>
	<path class="st1" d="M437.92,323.76c10.93-1.55,22.01-0.99,33.01-1.15c19.82-0.04,39.64-0.05,59.46-0.01
		c-1.74,14.56-6.09,29.53-15.97,40.74c-6.35,7.21-15.74,11.56-25.35,11.72c-15.02,0.06-30.04-0.02-45.06,0.03
		c-8.36,0.35-16.95-3.41-22.01-10.15c-7.98-10.88-6.98-27.68,3.19-36.85C428.8,325.27,433.53,324.53,437.92,323.76 M438.91,329.18
		c-5.69,1.13-11.27,4.55-13.7,10c-2.04,4.62-2.71,10.13-0.67,14.87c1.55,3.38,5.11,5.03,7.99,7.06c-3.35-6-6.16-14.19-1.42-20.24
		c5.11-5.21,13.04-5.7,19.91-6.25c21.19-0.3,42.39-0.01,63.58,0.46c-3.4,7.83-6.11,16.89-13.6,21.85
		c-8.51,5.77-18.83,8.07-28.88,9.39c12.02,2,25.52,0.72,35.44-6.93c9.28-7.5,13.03-19.66,14.33-31.1
		c-17.28-0.06-34.55-0.01-51.83-0.02C459.69,328.35,449.18,327.13,438.91,329.18 M438.6,339.41c-4.01,1.39-7.27,5.01-7.45,9.37
		c-0.58,6.81,3.66,12.7,7.83,17.64c-5.04-1.96-9.63-4.82-14.16-7.73c3.38,5.91,9.24,10.73,16.21,11.3
		c7.32,0.51,14.66,0.07,21.99,0.21c8.59-0.17,17.27,0.57,25.79-0.88c-8.75-0.79-17.6-0.99-26.06-3.67
		c10.21-1.46,20.51-3.1,30.18-6.84c3.82-1.53,7.72-3.39,10.35-6.68c3.46-4.26,5.59-9.38,7.67-14.41
		c-14.66-0.14-29.31-0.46-43.97-0.58C457.51,336.81,447.65,335.98,438.6,339.41z"/>
	<path class="st1" d="M576.02,463.94c20.59-2.82,40.76-8.06,61.24-11.52c0.08,8.4-0.71,16.78-0.63,25.19
		c-8.07,1.85-16.1,3.89-23.99,6.42c-0.08-2.14-0.15-4.28-0.21-6.41c-6.96,0.57-13.94,0.97-20.9,1.57c0.19,6.27,0.6,12.54,0.72,18.83
		c11.24-0.58,22.5-0.8,33.74-1.33c4.04-0.49,7.91,3.12,7.51,7.22c0,13.32,0.02,26.64-0.02,39.96c0.25,4.14-3.34,7.79-7.43,7.84
		c-17.53,1.86-35.07,3.64-52.64,5.09c-0.2-10.24-0.57-20.46-0.86-30.69c6.78-0.48,13.58-0.43,20.36-0.83
		c0.01,2.41,0.03,4.83,0.05,7.25c6.78-0.27,13.54-0.74,20.32-0.98c-0.04-6.95-0.11-13.9-0.15-20.86c-11.05,0.35-22.1,0.62-33.15,1
		c-2.33,0.14-4.93-0.3-6.48-2.2c-1.83-2.07-1.55-5.01-1.74-7.56c-0.36-10.72-1.1-21.42-2.24-32.09
		C569.01,466.2,572.98,464.29,576.02,463.94z"/>
	<path class="st1" d="M54.46,453.48c25.66,3.86,51.35,7.62,77.11,10.79c1.4,7.23,2.23,14.54,2.85,21.87c-6.67-0.3-13.34-0.6-20-0.97
		c-0.13-2.01-0.26-4.01-0.38-6.01c-6.6-0.61-13.23-0.85-19.84-1.39c0.31,6.54,0.5,13.09,0.56,19.64c9,0.13,17.98,0.64,26.98,0.76
		c0.06,4.53,0.23,9.05,0.44,13.58c-9.04-0.26-18.07-0.63-27.11-0.79c0.02,7.03,0.05,14.07,0.03,21.1
		c6.78,0.43,13.57,0.73,20.35,1.09c-0.01-2.48-0.02-4.97,0-7.44c6.8,0.53,13.63,0.41,20.44,0.87c0.02,10.58,0.02,21.16-0.04,31.74
		c-22.68-2.15-45.34-4.55-67.95-7.4c-0.01-6.8,0-13.6,0-20.4c2.28,0.11,4.56,0.21,6.84,0.31c0.03-18.13-0.03-36.26-0.28-54.38
		c-5.53-0.31-11.07-0.52-16.6-0.9C56.62,468.21,54.73,460.95,54.46,453.48z"/>
	<path class="st1" d="M138.06,465.06c21.72,2.49,43.47,4.75,65.27,6.48c2.44,5.5,3.87,11.37,4.89,17.29
		c-6.73-0.02-13.45-0.41-20.18-0.56c-0.28-1.75-0.57-3.5-0.86-5.24c-6.67-0.34-13.35-0.65-20.02-0.91
		c0.97,5.74,1.15,11.59,2.01,17.35c8.96,0.44,17.95,0.36,26.92,0.7c0.21,4.42,0.57,8.83,0.73,13.25c-9.06-0.19-18.13-0.25-27.2-0.49
		c0.3,7.54,0.2,15.09,0.48,22.63c6.8,0.17,13.6,0.57,20.4,0.69c-0.05-2.66-0.1-5.32-0.14-7.98c6.84,0.15,13.68,0.24,20.51,0.45
		c0.18,11.69,0.28,23.37,0.25,35.06c-22.85-1.22-45.66-2.9-68.45-4.88c0.04-8.16,0.1-16.32,0.08-24.48c2.25,0.12,4.5,0.25,6.75,0.37
		c-0.04-17.92-0.22-35.89-2.32-53.71c-2.22-0.17-4.44-0.34-6.66-0.49C139.92,475.38,139.09,470.2,138.06,465.06z"/>
	<path class="st1" d="M504.93,471.51c18.94-1.63,37.84-3.56,56.71-5.82c1.12,6.92,1.87,13.89,2.39,20.88
		c-6.91,0.38-13.82,0.72-20.73,0.98c-0.22-1.79-0.44-3.58-0.65-5.36c-6.96,0.31-13.92,0.66-20.87,1.03
		c0.9,5.49,1.17,11.05,1.91,16.55c11.42,0.13,22.84-0.6,34.27-0.72c3.68-0.15,7.23,3,7.1,6.78c0.6,14.35,0.97,28.72,1.38,43.08
		c0.51,4.35-2.59,9.25-7.3,9.17c-17.69,1.31-35.38,3.04-53.11,3.68c-0.62-11.22-1.01-22.46-1.39-33.69
		c6.8-0.07,13.59-0.39,20.4-0.53c0.06,2.59,0.17,5.19,0.29,7.79c6.78-0.22,13.56-0.56,20.35-0.73c-0.28-7.33-0.42-14.68-0.89-22
		c-11.59,0.04-23.17,0.66-34.76,0.61c-3.4,0.11-6.3-2.85-6.49-6.17c-0.88-10.99-1.72-22.1-4.96-32.7
		C500.2,472.52,502.53,471.63,504.93,471.51z"/>
	<path class="st1" d="M209.99,472.08c19.98,1.67,40,2.8,60.02,3.84c3.5,0.33,8.06,0.92,9.37,4.78c2.96,6.69,4.19,14.03,4.88,21.27
		c0.37,3.05-2.38,4.89-4.87,5.8c2.88,1.05,5.68,3.25,5.92,6.54c0.55,8.01,0.77,16.06,0.97,24.09c2.29,0.02,4.58,0.03,6.87,0.06
		c0.12,9.45,0.26,18.9,0.52,28.34c-7.21-0.21-14.46,0.05-21.65-0.55c-4.21-0.78-5.95-5.54-5.96-9.35
		c-0.44-14.14-0.22-28.3-1.15-42.43c-6.81-0.18-13.61-0.23-20.42-0.29c0.29,7.83,0.62,15.67,0.7,23.51
		c2.29,0.02,4.58,0.05,6.87,0.09c0.19,9.32,0.21,18.64,0.28,27.96c-11.44-0.42-22.86-1.02-34.3-1.53
		c-0.27-9.04-0.08-18.08-0.21-27.11c2.29,0.04,4.58,0.07,6.88,0.12c-0.46-17.66-0.35-35.51-4.02-52.87
		c-2.23-0.08-4.46-0.14-6.69-0.21C213.04,480.01,211.69,475.97,209.99,472.08 M240.9,485.09c1.25,5.25,2.03,10.59,2.61,15.96
		c6.8,0.09,13.6,0.14,20.4,0.21c-0.63-5.25-1.46-10.48-2.76-15.6C254.4,485.56,247.66,485.16,240.9,485.09z"/>
	<path class="st1" d="M420.68,476.71c23.33-0.98,46.66-2.16,69.93-4.06c2.17,5.32,3.35,10.96,4.26,16.61
		c-6.9,0.29-13.82,0.49-20.73,0.54c-0.3-1.56-0.6-3.12-0.89-4.66c-6.91,0.12-13.82,0.52-20.73,0.58c1.13,5.1,1.95,10.27,2.46,15.47
		c9.15,0.03,18.28-0.38,27.43-0.43c0.39,4.31,0.75,8.63,0.95,12.96c-9.1,0.18-18.2,0.39-27.3,0.44c0.51,7.69,0.83,15.4,1.15,23.11
		c6.82-0.19,13.66-0.08,20.48-0.54c-0.11-2.69-0.23-5.37-0.38-8.05c6.82-0.17,13.64-0.25,20.46-0.41
		c0.53,11.38,0.78,22.77,1.47,34.14c-22.77,1.35-45.54,2.51-68.32,3.3c-0.19-9.31-0.76-18.61-0.88-27.92
		c2.24-0.03,4.48-0.06,6.73-0.09c-0.92-17.19-1.01-34.6-4.91-51.46c-2.29,0.04-4.58,0.11-6.87,0.17
		C423.92,483.03,422.54,479.74,420.68,476.71z"/>
	<path class="st1" d="M290.19,476.7c11.33,0.46,22.66,0.7,33.99,0.96c2.11,2.74,3.68,5.85,4.87,9.09c-2.29,0.03-4.57,0.01-6.85-0.01
		c4.57,16.89,4.37,34.55,5.12,51.9c2.28-0.01,4.57-0.01,6.85,0c0.29,9.58,0.53,19.16,0.69,28.75c-11.43-0.06-22.87-0.29-34.31-0.35
		c-0.31-9.51-0.38-19.02-0.5-28.53c2.25,0.01,4.49,0.02,6.74,0.05c-0.66-17.39-0.53-35.05-4.94-52.01c-2.27-0.06-4.53-0.1-6.79-0.13
		C293.87,482.98,292.32,479.66,290.19,476.7z"/>
	<path class="st1" d="M385.98,477.67c9.26-0.19,18.51-0.55,27.77-0.66c1.87,2.95,3.23,6.16,4.36,9.46
		c-2.31,0.06-4.63,0.09-6.94,0.13c4.15,16.82,4.24,34.28,5.05,51.49c2.3-0.02,4.61-0.05,6.93-0.06c0.28,9.31,0.58,18.63,1.02,27.94
		c-9.15,0.19-18.3,0.64-27.46,0.7c-8.52-22.28-17.07-44.9-30.55-64.75c2.2,21.67,2.39,43.48,3.08,65.23
		c-9.16,0.09-18.33,0.22-27.49,0.25c-0.16-9.59-0.51-19.17-0.67-28.76c2.27-0.01,4.54-0.01,6.81-0.01
		c-0.84-17.25-0.68-34.82-5.18-51.62c-2.27-0.04-4.54-0.05-6.81-0.05c-1.19-3.3-2.77-6.45-4.9-9.24c9.29,0.34,18.65-0.42,27.89,0.49
		c16.53,6.36,27.35,21.61,35.69,36.51c-0.61-8.73-1.37-17.51-3.53-26.01C390.09,484.73,388.36,480.98,385.98,477.67z"/>
</g>
<g id="_x23_020c23ff">
	<path class="st2" d="M193.66,242.5c16.4-0.44,32.83-0.59,49.23,0.15c6.42,0.44,12.93,0.76,19.12,2.68
		c10.15,2.96,19.78,7.46,29.11,12.39c-10.99-5.05-23-7.96-35.12-7.9c-8.47,0.18-16.92,0.89-25.37,1.59c11.73,1,22.58,5.96,33.82,9.1
		c-7.15-0.83-14.32-2.17-21.55-1.62c-10.3,0.56-20.78,2.16-30.97-0.23C203.67,256.53,197.52,249.81,193.66,242.5z"/>
	<path class="st2" d="M453.06,244.46c9.53-1.93,19.31-1.96,28.99-2.21c12.02-0.29,24.05-0.05,36.07,0.26
		c-3.8,7.11-9.69,13.65-17.65,15.99c-10.31,2.6-20.98,0.99-31.43,0.39c-7.46-0.55-14.88,0.78-22.25,1.72
		c11.52-3.05,22.56-8.29,34.56-9.2c-8.44-0.66-16.89-1.4-25.36-1.59c-12.1-0.08-24.13,2.75-35.1,7.81
		C431.12,252.17,441.77,247.27,453.06,244.46z"/>
	<path class="st2" d="M501.27,270.12c9.5-4.25,16.39-12.57,21.6-21.33c-3.62,8.12-6.36,17.11-13.08,23.31
		c4.79-2.25,7.94-6.55,11.24-10.5c-3.39,8.26-9.22,15.8-17.25,19.96c-6.36,3.41-13.8,3.28-20.82,3.44
		c-11.67-0.22-23.42-0.72-35.03,0.88c-15.48,1.96-29.95,10.21-40.02,22.03c-10.61,12.57-13.66,30.14-10.76,46.03
		c1.61,9.59,5.58,18.6,10.52,26.92c-15.02-11.48-19.4-31.42-20.79-49.3c-5.76,5.99-9.68,14-9.36,22.45
		c-0.91-7.31-3.82-14.84-1.43-22.15c4.15-14.83,11.79-29.18,23.91-38.99c11.64-9.42,25.65-16.13,40.52-18.35
		c10.77-1.57,21.64-0.2,32.47-0.35C482.5,274.13,492.37,273.88,501.27,270.12z"/>
	<path class="st2" d="M189.99,249.37c5.85,9.34,13.6,18.4,24.41,21.92c22.37,6.87,46.38-1.62,68.67,5.7
		c17.19,5.52,33.58,15.91,43.26,31.48c4.56,7.23,7.92,15.2,10.2,23.44c2.39,7.27-0.42,14.79-1.59,22.02
		c0.59-8.46-3.55-16.42-9.23-22.42c-1.35,17.86-5.69,37.92-20.81,49.3c8.9-14.15,13.55-31.35,10.83-48.03
		c-1.7-11.85-7.78-22.95-16.76-30.85c-8.8-7.71-19.5-13.56-31.13-15.53c-12.8-2.3-25.87-1.58-38.8-1.4
		c-6.43-0.17-13.17-0.11-19.11-2.9c-8.47-3.99-14.82-11.71-18.18-20.36c3.22,4,6.41,8.24,11.25,10.37
		C196.2,266.22,193.56,257.31,189.99,249.37z"/>
</g>
<g id="_x23_0090ffff">
	<path class="st3" d="M263.55,243.28c41.9,2.8,79.33,33.68,92.75,73.03c8.67-26.05,28.08-47.96,52-61.13
		c12.29-6.7,26.01-10.61,39.94-11.85c-10.02,3.45-20.06,7.07-29.25,12.41c-8.1,4.75-15.41,11.12-20.42,19.14
		c11.44-7.76,23.03-15.75,36.24-20.17c9.98-2.78,20.61-3.39,30.85-1.79c-9.86,2.34-19.78,4.98-28.65,10.03
		c-4.44,2.59-8.84,5.24-13.2,7.97c10.92-4.17,22.1-9.3,34.08-8.51c13.62,1.04,27.6,4.19,41.1,0.6c9.86-2.89,16.91-11.02,23.2-18.68
		c-1.8,4.99-5.26,9.12-8.75,13.04c-4.42,4.7-9.34,9.23-15.5,11.49c-10.48,3.92-21.95,4.09-32.95,2.88
		c-17.62-1.2-35.75,1.59-51.7,9.36c-15.83,7.67-28.89,20.98-36.07,37.04c-7.1,16.36-4.41,35.64,4.08,50.95
		c-0.75-8.72-1.27-18.41,4.1-25.9c1.37,10.94,4.7,21.86,11.49,30.7c2.73,3.96,7.01,6.54,9.55,10.65
		c4.37,6.81,10.23,12.52,16.57,17.5c-9.36-3.18-17.04-9.81-22.78-17.71c0.37,4.79,1.38,9.56,3.47,13.92
		c2.85,5.99,6.44,12.08,12.3,15.58c11.27,7.02,24.45,9.94,37.27,12.77c-12.08-1.48-24.31-2.5-36.46-1.32
		c10.11,2.78,20.6,4.76,29.93,9.76c10.05,5.19,19.79,11.01,29.22,17.26c-8.45,2.26-17.31,2.12-25.98,2.78
		c-22.41-1.14-44.13-10.4-61.02-25.07c-14.86-12.6-26.61-29.02-32.7-47.59c-8.9,26.92-29.44,49.36-54.54,62.2
		c-12.01,5.96-25.23,9.68-38.63,10.43c-8.57-0.51-17.22-0.77-25.65-2.53c8.91-6.44,18.56-11.81,28.23-16.99
		c9.51-5.28,20.28-7.35,30.65-10.18c-12.14-1.4-24.37-0.06-36.47,1.19c11.45-2.24,22.96-5.06,33.43-10.34
		c12.1-5.66,18.87-19.11,19.88-31.97c-6.05,8.77-14.84,15.43-25,18.67c6.9-4.91,13.05-10.96,17.72-18.05
		c2.56-4.32,7.1-6.9,9.9-11.04c6.73-8.81,10.09-19.66,11.4-30.55c5.56,7.38,4.69,17.17,4.17,25.86
		c7.85-14.42,10.83-32.12,5.26-47.85c-4-10.88-11.09-20.49-19.61-28.28c-14.73-13.33-34.49-19.97-54.09-21.27
		c-13.64-1.28-27.41,2.58-40.92-0.73c-13.92-2.33-24.36-13.44-31.14-25.14c6.51,7.97,14.43,16.14,25.05,17.9
		c13.34,2.46,26.77-0.71,40.11-1.43c11.66,0.09,22.64,4.74,33.13,9.38c-7.93-4.87-15.68-10.21-24.48-13.42
		c-6.09-2.41-12.5-3.84-18.84-5.4c10.35-1.47,21.09-1.03,31.17,1.85c13.24,4.4,24.82,12.46,36.28,20.19
		c-4.76-7.51-11.48-13.65-19.03-18.29C284.69,250.76,274.06,247.03,263.55,243.28z"/>
	<path class="st3" d="M201.65,337.72c14.77-0.15,29.53-0.46,44.3-0.59c9.71-0.33,19.95-1.21,29.09,2.74c4.32,1.74,6.96,6.4,6.52,11
		c-0.45,5.96-4.15,10.87-7.66,15.43c4.87-1.88,9.28-4.69,13.69-7.43c-3.58,6.36-10.22,11.15-17.68,11.26
		c-8.31,0.2-16.64,0-24.96,0.07c-7.15-0.04-14.35,0.34-21.43-0.9c8.73-0.79,17.61-0.84,26.03-3.64
		c-11.67-1.86-23.66-3.55-34.35-8.88C207.8,353.1,204.73,344.85,201.65,337.72z"/>
	<path class="st3" d="M438.6,339.41c9.05-3.43,18.91-2.6,28.38-2.27c14.66,0.12,29.31,0.44,43.97,0.58
		c-2.08,5.03-4.21,10.15-7.67,14.41c-2.63,3.29-6.53,5.15-10.35,6.68c-9.67,3.74-19.97,5.38-30.18,6.84
		c8.46,2.68,17.31,2.88,26.06,3.67c-8.52,1.45-17.2,0.71-25.79,0.88c-7.33-0.14-14.67,0.3-21.99-0.21
		c-6.97-0.57-12.83-5.39-16.21-11.3c4.53,2.91,9.12,5.77,14.16,7.73c-4.17-4.94-8.41-10.83-7.83-17.64
		C431.33,344.42,434.59,340.8,438.6,339.41z"/>
</g>
<g id="_x23_05102eff">
	<path class="st4" d="M190.73,328.28c18.44-0.03,36.87,0,55.31-0.01c9.34-0.16,18.82-0.94,28.04,0.99
		c5.62,1.18,11.02,4.69,13.41,10.06c1.96,4.57,2.55,9.98,0.62,14.66c-1.5,3.43-5.11,5.05-7.97,7.15c2.67-5.3,5.37-11.55,3-17.46
		c-1.38-3.8-5.19-5.91-8.85-7.04c-6.22-1.94-12.8-2.15-19.27-2.07c-19-0.21-38.01,0.1-57,0.53c3.45,7.9,6.19,17.09,13.84,22
		c8.52,5.66,18.75,7.97,28.77,9.23c-12.19,2.01-25.91,0.72-35.89-7.18C195.67,351.6,192.04,339.6,190.73,328.28z"/>
	<path class="st4" d="M438.91,329.18c10.27-2.05,20.78-0.83,31.15-0.91c17.28,0.01,34.55-0.04,51.83,0.02
		c-1.3,11.44-5.05,23.6-14.33,31.1c-9.92,7.65-23.42,8.93-35.44,6.93c10.05-1.32,20.37-3.62,28.88-9.39
		c7.49-4.96,10.2-14.02,13.6-21.85c-21.19-0.47-42.39-0.76-63.58-0.46c-6.87,0.55-14.8,1.04-19.91,6.25
		c-4.74,6.05-1.93,14.24,1.42,20.24c-2.88-2.03-6.44-3.68-7.99-7.06c-2.04-4.74-1.37-10.25,0.67-14.87
		C427.64,333.73,433.22,330.31,438.91,329.18z"/>
</g>
<g id="_x23_1b1f2aff">
	<path class="st5" d="M229.08,416.79c7.65-0.67,15.56-1.58,23.08,0.49c-10.19,0.96-20.76,1.15-30.25,5.46
		c-5,2.36-10.18,5.07-13.42,9.73c-5.98,8.28-8.59,18.31-12.25,27.7c-0.21-5.25,0.87-10.39,1.55-15.56
		c-4.01,6.96-6.28,14.72-8.38,22.42c-1.08-2.92-2.35-6.04-1.18-9.14c3.65-12.42,9.68-24.59,19.45-33.34
		C213.49,419.29,221.56,417.77,229.08,416.79z"/>
	<path class="st5" d="M459.89,417.33c8.34-1.33,16.82-0.46,25.15,0.58c7.95,1.21,16.42,2.83,22.65,8.31
		c7.8,7.08,11.98,17.35,13.35,27.64c0.42,3.55,1.72,8.04-1.78,10.51c-0.13-7.39-0.65-14.89-3.97-21.63
		c-0.17,3.76-0.37,7.51-0.55,11.27c-1.56-6.3-2.82-12.87-6.45-18.39c-2.28-3.69-6.01-6.09-9.59-8.37
		c-6.02-3.88-12.77-6.65-19.79-8.03C472.64,417.98,466.22,417.99,459.89,417.33z"/>
	<path class="st5" d="M202.9,570.31c53.34,1.69,106.68,3.33,160.05,3.41c21.68-0.03,43.36,0.1,65.02-1.07
		c14.24-0.76,28.48-1.44,42.72-2.22c4.81-0.39,9.65-0.57,14.48-0.24c-21.44,3.5-43.04,6.05-64.54,9.21
		c-21.98,3.01-43.95,6.09-65.94,9.02c-10.87,1.54-21.86,0.28-32.72-0.61c-33.04-3.25-65.89-8.13-98.66-13.38
		C216.49,573.17,209.51,572.52,202.9,570.31z"/>
</g>
<g id="_x23_f22e01ff">
	<path class="st6" d="M316.49,454.68c3.5-0.69,7.08-0.69,10.63-0.77c-3.26,2.11-6.65,4.01-10.15,5.71c-1.75-0.86-3.61-1.31-5.37-0.2
		c-1.36-0.11-2.73-0.22-4.09-0.33C310.37,457.39,313.17,455.37,316.49,454.68z"/>
</g>
<g id="_x23_f32e01ff">
	<path class="st7" d="M386.25,455.09c4.14,0.16,8.4,0.02,12.4,1.25c3.13,1.17,5.84,3.18,8.65,4.94c-1.87-0.02-3.74,0.11-5.58,0.38
		c-0.88-1.05-1.72-2.13-2.73-3.04c-1.57-0.34-2.92,0.81-4.32,1.28C391.77,458.45,388.97,456.84,386.25,455.09z"/>
</g>
<g id="_x23_c81406ff">
	<path class="st8" d="M299.35,464.84c2.61-2.07,5.35-3.96,8.16-5.75c1.36,0.11,2.73,0.22,4.09,0.33
		C310.91,465.11,303.52,464.02,299.35,464.84z"/>
</g>
<g id="_x23_b30f07ff">
	<path class="st9" d="M407.3,461.28c2.48,1.2,4.61,3.01,6.77,4.7c-4.98,0-9.86-1.3-14.28-3.57l1.93-0.75
		C403.56,461.39,405.43,461.26,407.3,461.28z"/>
</g>
</svg>
