<?xml version="1.0" encoding="utf-8"?>
<!-- Generator: Adobe Illustrator 19.0.0, SVG Export Plug-In . SVG Version: 6.00 Build 0)  -->
<svg version="1.1" id="Layer_1" xmlns="http://www.w3.org/2000/svg" xmlns:xlink="http://www.w3.org/1999/xlink" x="0px" y="0px"
	 viewBox="-96 242.9 403 356" style="enable-background:new -96 242.9 403 356;" xml:space="preserve">
<style type="text/css">
	.st0{fill:#C97C08;}
	.st1{fill:#1A1A1A;}
	.st2{fill:#AB150D;}
	.st3{fill:#610000;}
	.st4{fill:#FFC108;}
	.st5{fill:#E6E6E6;}
	.st6{fill:#341F52;}
	.st7{fill:#010101;}
	.st8{fill:#080809;}
	.st9{fill:#A85905;}
	.st10{fill:#E3E1DF;}
	.st11{fill:#030304;}
	.st12{fill:#B3B3B3;}
	.st13{fill:#C7C7C7;}
	.st14{fill:#EDDA79;}
	.st15{fill:#6A555D;}
</style>
<g id="_x23_c97c08ff">
	<path class="st0" d="M-96,242.9h0.3c-0.1,0.1-0.2,0.2-0.3,0.3V242.9z"/>
	<path class="st0" d="M112.3,286.8c6-0.1,11.8,1,17.8,1.3c6.6,14.9,10.2,31.1,11.5,47.3c0.8,8.5,0.9,17.1-0.2,25.5
		c-1.3,19-6.1,37.6-12.4,55.5c-7.5-1.4-15.2-2.8-22.9-2.6c1.2-4.4,2.3-8.8,3.1-13.3c2.8-0.7,5.6-1.9,7.1-4.5c2.3-3.6,2.1-8,1.8-12.1
		c-0.1-3.1-2.8-4.9-5-6.7c0.9-5.5,1.4-11.1,1.9-16.7c2.4-0.6,5.3-0.6,6.9-2.9c3.6-4.5,3.9-10.9,2.7-16.3c-1-4.3-4.4-7.5-8.4-9.1
		c-0.5-4.6-0.9-9.3-1.1-14c2.3-1.5,5-3,5.8-5.9c1.4-4.7,0.7-10.1-2.1-14.2c-1.3-2.2-4.2-2.3-6.4-3
		C112.4,292.4,112.4,289.6,112.3,286.8z"/>
	<path class="st0" d="M62.7,360.6c0.9-2.4,1.9-4.9,3-7.2c1.3,13.5,2.7,27.1,6.2,40.3c-3.7,2.6-7.1,5.7-10.2,9
		c-7.7,6.7-15.2,13.6-22.8,20.5C46.7,402.2,54.9,381.5,62.7,360.6z"/>
</g>
<g id="_x23_ffffffff">
</g>
<g id="_x23_1a1a1aff">
	<path class="st1" d="M105.3,242.9h0.4c7,9.6,14.2,19.1,19.7,29.7c2.6,5.4,5.5,10.7,7.8,16.2c6.7,1.6,13.4,3,19.9,5.1
		c18.8,6.2,36.5,15.6,51.7,28.3c6.8,5.2,12.5,11.7,18.6,17.7c-3,0-6,0.3-8.9-0.2c-9.1-9.1-19-17.5-30-24.2
		c-14.8-9.5-31.6-15.6-48.7-19.5c0.6,1.6,1.2,3.3,1.7,5c3.8,12.7,6.5,25.8,6.5,39.1c0,1.7,0.1,3.4,0.4,5.1
		c5.3,13.6,10.5,27.2,15.6,40.8c0.7,1.7,1.4,3.3,2.1,5c19.5,0.1,39,0,58.5,0c2.7,0,5.4,0,8.1,0c4.4,0,8.8,0.1,13.2,0.1
		c1.4,0,2.9,0,4.3,0c-1.5-3.5-2.9-7.1-4.4-10.7c1.7-1.4,3.3-2.9,5-4.4c2.2,5,4.3,10,6.2,15.1c15.7,0,31.3,0,47,0
		c2.7,9.2,4.4,18.8,5.7,28.3c0.4,3.2,0.2,6.6,1.3,9.7v28.8c-1.1,2.5-1,5.2-1.1,7.9c-6.2,3-12.7,5.1-19.1,7.4
		c3.9,9.6,6.4,19.8,8.1,30c0.2,3.1,0.5,6.4-0.3,9.4c-4.5,11.7-9.9,23.2-16.5,33.9c-5.5-2.6-11-5.4-16.4-8.1
		c-4.5-2.3-9.3-3.9-13.7-6.4c-0.1-7.6,0.2-15.1-0.2-22.7c-3.3,4.7-5.6,10-8.7,14.9c-4.5,7-9.1,14.2-14.9,20.2
		c-0.9-2.4-3.4-5.1-1.6-7.7c2.6-4,5.8-7.6,8.5-11.6c-1.4-0.5-2.7-1-4.1-1.5c-4-1.5-8.1-2.7-12.1-4c-2.3-0.9-4.6-1.8-6.9-2.6
		c-10.7-3.2-21.5-6-32.4-8.5c-15.8-3.2-31.8-6.1-47.9-6.5c-1.9-0.5-3.8-0.9-5.8-1.3c-1.9-18.8-3.9-37.6-5.3-56.4
		c-6.9-1.7-14.3-2.2-21.2-0.1c-0.3,0.3-0.9,0.8-1.1,1c-1.5,18.5-3.5,37-5.5,55.5c-2.2,0.3-4.3,0.7-6.4,1.1c-15.3,0.5-30.4,3-45.4,6
		c-11.8,2.3-23.3,5.5-34.8,8.9c-2.1,0.6-4.2,1.3-6.2,2c-4,1.4-8.1,2.8-12.1,4.2c-1.4,0.5-2.8,0.9-4.3,1.4c2.7,4.7,6.7,8.6,9.2,13.4
		c-0.7,2.2-1.6,4.3-2.3,6.4c-4.9-5.3-9-11.3-12.8-17.4c-13.9,6-27.8,12-41.3,19c-2.8-6.1-6.8-11.7-9.2-18
		C-86,508-92,486.8-94.3,465.2c-1.2-5.4-0.3-10.9-1.1-16.4c-1-7,0.8-14,0.4-21c1-12.5,3.5-24.7,6.4-36.9c15.5-0.1,31,0,46.4-0.1
		c2-5.1,4-10.2,6.3-15.1c1.7,1.4,3.5,2.7,5.3,4c-1.7,3.6-3.2,7.3-4.6,11.1c1.4,0,2.9,0,4.3,0.1c4.4,0,8.8-0.1,13.3-0.1
		c2.7,0,5.4,0.1,8.1,0c19.4-0.1,38.8,0.3,58.2-0.2c0.7-1.9,1.4-3.8,2.1-5.7c5-13.4,10.5-26.6,15.1-40.1c0.1-1.7,0.1-3.3,0.3-5
		c0.8-13.3,3.1-26.4,7.1-39.1c0.6-1.7,1.2-3.3,1.8-4.9c-28.9,6.4-56.3,20.8-76.8,42.3c-2.6,3.1-7.1,1.3-10.6,1.7
		c4.4-4.7,9-9.2,13.6-13.7c10.7-9.3,22.5-17.5,35.4-23.6c12.8-6.8,26.9-10.8,41.1-13.8C84.2,272,94.4,257.1,105.3,242.9 M80.8,288.1
		c-6.5,14.1-9.8,29.5-11.6,44.8c-0.4,9.4-0.4,18.7-0.1,28.1c1.4,18.8,6.1,37.2,12.3,55c8.1-1.9,16.4-2.3,24.7-2.1
		c7.7-0.1,15.3,1.2,22.9,2.6c6.3-17.9,11.1-36.5,12.4-55.5c1.1-8.4,1.1-17,0.2-25.5c-1.3-16.2-4.9-32.4-11.5-47.3
		c-5.7-14.6-14.3-28.1-24-40.4l-0.2-1C95.4,259.1,86.9,273.1,80.8,288.1 M144.1,351.6c0.1,12.7-2,25.3-4.8,37.7
		c-0.2,1.6-0.9,3.5,0.4,4.8c2.4,2.9,5.4,5.4,8.3,7.8c3.5,2.8,6.4,6.3,9.9,9.1c4.6,3.4,8,8.3,13.1,11.1
		C162.2,398.5,153.3,375,144.1,351.6 M62.7,360.6c-7.8,20.9-16.1,41.6-23.8,62.5c7.6-6.8,15.1-13.8,22.8-20.5
		c3.2-3.3,6.5-6.3,10.2-9c-3.5-13.2-4.9-26.8-6.2-40.3C64.6,355.7,63.6,358.2,62.7,360.6 M-85.8,394c-3.6,12.3-4.8,25.2-6.2,37.8
		c0,7.7-0.1,15.4,0.1,23.1c1.1,6.8,1.2,13.7,2.5,20.4c3.5,21.1,10.5,41.6,20.5,60.5c0.9,1.5,1.6,3.3,3,4.3c1-0.4,2-0.8,2.9-1.2
		c9.1-4.6,18.2-9.5,27.7-13.4c17.7-7.8,36.1-13.5,54.7-18.8c-9.8-13.9-17-29.8-19.6-46.7c-1.1-4.6-0.5-9.5-1.6-14.1
		c-0.3-3.7,0.2-7.4,0.7-11c0.5-14.3,5.1-28.2,11.2-41.1c-13.4,0-26.7,0-40.1,0c-1.2,0.2-3.4-0.5-3.7,1.3c-4.3,12.7-7.1,26-7.5,39.4
		c-1.9,8.1,0.4,16.2,0.4,24.4c1.4,9.9,3.2,19.9,6.4,29.4c1.4,3.8,2.2,7.8,4.5,11.3c-3.2,1.2-6.4,2.6-9.6,3.6
		c-4.8-13.3-9.1-27-10.4-41.2c-1.9-9.6-0.6-19.4-1-29c0.7-13.2,3.7-26.2,7.3-38.9C-57.8,393.8-71.8,394-85.8,394 M19.3,393.9
		c-5.8,10.8-10.1,22.4-11.8,34.5C5.6,444,6.4,460.2,12,475c0.8-0.1,2.4-0.3,3.2-0.4L15,474c2.6-0.2,5.2-0.8,7.8-1.4
		c13.5-3,27.2-4.9,40.9-6.8c2.1,3.5,4.6,7,7.4,10c-1.2,0.2-2.4,0.4-3.7,0.7c-16.3,1.6-32.5,4.3-48.5,8.2c-0.8,0.1-2.3,0.3-3.1,0.4
		c3.3,7,7.5,13.6,12.2,19.8c1.1-0.3,2.1-0.7,3.2-1c13.4-2.5,27-4.8,40.6-5.9c5,0.3,9.9-1.1,14.9-1.1c1.5-16,3-32,4.9-47.9
		c-4.4-0.1-9.9-0.1-12.8-4c1.3-3.9,2.6-7.8,3.2-11.9c-5.7,1.4-11.6,0.3-17.3,1.6c-8.7,0.6-17.4,1.9-26,3.2c0.2-3.9-0.2-8.5,2.3-11.8
		c7.3-0.5,14.4-2.1,21.7-2.4c4.8-1.3,9.7-0.3,14.5-1.3c3-0.7,6.1-0.4,9.1-0.6c-2.1-0.8-4.2-1.3-6.3-2c-2.8-7.9-5.9-15.8-7.5-24.1
		c-2.7,2.6-5.2,5.5-8.3,7.7c-3.6,2.7-6.3,6.4-9.9,9c-3.9,2.8-6.7,6.7-10.5,9.5c-4.1,2.9-7,7.1-11.1,10c4.6-12.7,9.8-25.3,14.3-38
		C37.9,393.9,28.6,393.9,19.3,393.9 M163,393.9c4.6,11.2,8.5,22.6,13.1,33.7c9.5,1.1,18.7,3.3,28,5.4c-1.2-8.3-2.8-16.6-5.8-24.5
		c-1.7-5.1-4.5-9.7-6.7-14.6C182.1,393.9,172.6,393.9,163,393.9 M200.7,394c6,12.1,10,25.3,11.3,38.8c-0.3,9.3,0.8,18.8-1.1,28
		c-2.7,16-9.1,31.4-18.6,44.5c-1.8,2.3,2.3,2.5,3.7,3c8.2,2.1,16.3,4.6,24.3,7.3c3.7,1.2,7.3,3.1,11.3,3.4
		c5.5-9.4,9.8-19.3,13.5-29.5c1.8,1.6,3.7,3.3,4.6,5.6c4.8,10.6,4.4,22.4,4.2,33.7c7.6,4,15.6,7.4,22.9,11.9
		c5-9.2,9.7-18.6,13.4-28.5c1.3-3.1,0.5-6.5,0-9.7c-1.5-11.2-4.1-22.4-9.7-32.4c7.3-1.9,14.4-4.2,21.2-7.4c-0.3-5,1.5-9.9,1.1-14.9
		c-0.2-6.4,0.6-12.9-0.8-19.2c-0.5-11.6-2.5-23.3-5.5-34.5C264.7,393.7,232.7,393.9,200.7,394 M137.5,396.6
		c-1.6,7.2-4.1,14.3-6.5,21.3c-0.8,3.1-4.5,3-7,3.5c1.5,3.8,2.1,8,3.9,11.6c0.7,4.4,2.9,8.4,3.3,12.8c-2.3,1.3-4.9,2.2-7.4,3.1
		c-1.6,0-3.2,0-4.7,0c1.5,4.9,0.3,10.1,2.1,15c1.3,0,2.7,0.1,4,0.2c4.2,1.3,8.5,0.6,12.8,1c9.7,1.5,19.7,1.5,29.3,4
		c-1.6,3.4-2.8,7.1-5.6,9.8c-6.5-0.8-13-1.8-19.5-2.2c-5.3-1.1-10.8-0.3-16-1.7c-1.4,0-2.8,0-4.2,0c0.5,7.4,1.2,14.7,2.3,22
		c1.3,0,2.7,0,4-0.1c18.4,1.1,36.8,3.8,54.8,7.9c13.1-17.3,21.9-38.7,21.1-60.6c-4-0.5-7.9-1.6-11.8-2.4
		c-13.3-2.9-26.7-4.8-40.2-6.6c0.1-4-1.6-7.7-3-11.3c7.5,0.7,14.9,1.6,22.3,2.9c-3.3-3.1-6.3-6.6-9.9-9.3c-3.6-2.7-6.3-6.4-9.9-9
		C146.6,404.8,143.1,399.4,137.5,396.6 M89.2,418c-2,7.7-4.4,15.3-6.4,23.1c8.4-1.4,16.8-2.4,25.3-2.3c6.4,0.4,12.8,1.2,19.2,2.2
		c-1.6-7.8-4.9-15-6.8-22.7c-4.8-0.9-9.7-1.7-14.6-1.4C100.3,416.4,94.8,417.6,89.2,418z"/>
	<path class="st1" d="M250.7,417.9c3.1,0,6.2,0,9.3,0c1,4.9,1.5,10,1.9,15c-0.1,9.9,0.6,19.9-1,29.8c-3-1.1-6-2.3-9-3.5
		c-0.3-7.5,1.9-14.9,0.4-22.4C252.1,430.4,251.3,424.1,250.7,417.9z"/>
	<path class="st1" d="M15.5,562.9c6.9,4.7,13.8,9.3,21.2,13.3c15.3,7.7,31.8,12.9,48.8,15.3c10.6,1,21.3,2.5,31.8,0.7
		c27.1-1.8,53.6-11.6,75.6-27.6c2.6-2.2,5.2,1.6,7.4,2.8c-21.7,16.2-47.4,27-74.2,30.5c-1.8,0.1-3.6,0.4-5.3,1H90.2
		c-1.7-0.6-3.4-0.9-5.2-1c-26.9-3.4-52.8-14.2-74.3-30.6C12.3,565.8,13.9,564.4,15.5,562.9z"/>
</g>
<g id="_x23_ab150dff">
	<path class="st2" d="M80.8,288.1c6.2-14.9,14.6-29,25-41.4l0.2,1c2.5,13,4.9,25.9,6.3,39.1C101.8,286.7,91.2,286.8,80.8,288.1z"/>
	<path class="st2" d="M-66.2,344.9c44,0,88,0,132,0c-4.6,13.5-10.2,26.7-15.1,40.1c-27.7-9-55-19-82.6-28.3
		c-10.8-3.7-21.4-8-32.5-10.6C-64.8,345.8-65.7,345.2-66.2,344.9z"/>
	<path class="st2" d="M144.4,345c44.4-0.3,88.8-0.1,133.1-0.1c-1,0.7-2,1.4-3.1,2.1c-6.8,0.8-13.1,3.6-19.5,5.7
		c-19.5,6.9-39.1,13.6-58.7,20.3c-12,4.5-24.3,8-36.2,12.8C154.8,372.2,149.6,358.6,144.4,345z"/>
	<path class="st2" d="M2.2,516.7c11.5-3.4,23-6.6,34.8-8.9C19.2,531,1.5,554.3-16.2,577.6c-2.3,3.4-5,6.6-8.1,9.3
		C-15.7,563.5-6.6,540.2,2.2,516.7z"/>
	<path class="st2" d="M176.8,512.1c-0.8-1.1-0.9-2.4-1.2-3.7c10.9,2.4,21.7,5.3,32.4,8.5c9.6,24.3,18.5,48.9,28,73.3
		c-0.7-0.6-1.4-1.2-2.1-1.8c-3.1-6.1-7.8-11-11.8-16.5C207,551.9,191.8,532,176.8,512.1z"/>
</g>
<g id="_x23_610000ff">
	<path class="st3" d="M106,247.8c9.8,12.3,18.3,25.7,24,40.4c-5.9-0.4-11.8-1.4-17.8-1.3C110.9,273.7,108.5,260.7,106,247.8z"/>
	<path class="st3" d="M-64.3,346.1c11.1,2.6,21.7,7,32.5,10.6c27.6,9.2,55,19.2,82.6,28.3c-0.7,1.9-1.4,3.8-2.1,5.7
		c-19.4,0.4-38.8,0.1-58.2,0.2c-2-2.2-4.3-4-6.6-5.8C-32.2,372.1-48.5,359.3-64.3,346.1z"/>
	<path class="st3" d="M254.9,352.8c6.5-2.1,12.7-4.9,19.5-5.7c-17.8,14.8-36.2,28.8-53.8,43.8c-19.5,0-39,0.1-58.5,0
		c-0.7-1.7-1.4-3.3-2.1-5c11.9-4.8,24.2-8.3,36.2-12.8C215.7,366.4,235.3,359.7,254.9,352.8z"/>
	<path class="st3" d="M37,507.8c15-3,30.1-5.5,45.4-6c-1.5,1.7-3.1,3.2-4.9,4.5c-32.3,26.3-64.8,52.6-97.1,78.9
		c-1.7,1.5-3.6,2.8-5.5,4c0.2-0.5,0.7-1.7,0.9-2.2c3.1-2.7,5.7-5.9,8.1-9.3C1.5,554.3,19.2,531,37,507.8z"/>
	<path class="st3" d="M127.7,502c16.1,0.4,32.1,3.3,47.9,6.5c0.3,1.3,0.4,2.6,1.2,3.7c15.1,19.9,30.3,39.8,45.3,59.8
		c4,5.4,8.7,10.4,11.8,16.5C198.2,559.8,163.2,530.6,127.7,502z"/>
</g>
<g id="_x23_ffc108ff">
	<path class="st4" d="M80.8,288.1c10.5-1.3,21-1.4,31.5-1.3c0.1,2.8,0.1,5.6,0,8.4c-4.7,3.2-6.4,9.5-4.3,14.7c0.7,3.9,3.9,6.4,7,8.4
		c0.2,4.7,0.6,9.3,1.1,14c-3.1,2-6.4,4.4-7.4,8.3c-1.9,7-0.9,16.3,6.2,20c-0.5,5.6-0.9,11.2-1.9,16.7c-4.4,1.2-7.6,4.9-8.4,9.3
		c-1.8,5.1,0.5,10.6,4.5,14c-0.8,4.5-1.9,8.9-3.1,13.3c-8.3-0.2-16.6,0.2-24.7,2.1c-6.2-17.8-10.9-36.2-12.3-55
		c-0.3-9.4-0.3-18.7,0.1-28.1C71,317.5,74.3,302.2,80.8,288.1z"/>
</g>
<g id="_x23_e6e6e6ff">
	<path class="st5" d="M108,309.9c-2.1-5.3-0.4-11.5,4.3-14.7c2.2,0.7,5.1,0.8,6.4,3c2.7,4.1,3.4,9.5,2.1,14.2
		c-0.8,2.9-3.5,4.3-5.8,5.9C111.9,316.3,108.7,313.8,108,309.9 M112.2,296.9c-4.9,4.7-4,12.9,0.1,17.8c1.4,0.9,3.1,1.1,4.7,1.5
		l0.2-0.9c4.4-4.5,3.6-12.7-1-16.8c-0.3-0.4-0.9-1.3-1.2-1.7C114.2,296.8,112.9,296.9,112.2,296.9z"/>
	<path class="st5" d="M108.7,340.5c1-3.8,4.3-6.2,7.4-8.3c4,1.6,7.4,4.7,8.4,9.1c1.2,5.4,0.9,11.8-2.7,16.3
		c-1.6,2.3-4.5,2.3-6.9,2.9C107.8,356.8,106.8,347.6,108.7,340.5 M114.2,335.9c-5.2,5.6-5.6,15.4-0.1,20.9c1.6,1.7,3.7,1,5.4,0.1
		l0.1-0.7c4.8-5.9,4.6-15.8-1.5-20.6C116.8,335.8,115.5,335.9,114.2,335.9z"/>
	<path class="st5" d="M-85.8,394c14,0,28.1-0.2,42.1,0c-3.6,12.7-6.5,25.7-7.3,38.9c0.4,9.7-0.9,19.5,1,29
		c-11.7,4.9-23.6,9.6-34.9,15.4c2,12.5,5.9,24.6,10.1,36.4c3.6,8.6,6.8,17.3,11.8,25.2c-1,0.4-1.9,0.8-2.9,1.2c-1.5-1-2.1-2.8-3-4.3
		c-9.9-18.9-16.9-39.4-20.5-60.5c-1.3-6.7-1.5-13.6-2.5-20.4c-0.1-7.7,0-15.4-0.1-23.1C-90.7,419.1-89.4,406.3-85.8,394z"/>
	<path class="st5" d="M-33.8,395.1c0.3-1.8,2.5-1.1,3.7-1.3c13.4,0.1,26.7,0.1,40.1,0C3.9,406.8-0.6,420.6-1.2,435
		c-0.5,3.7-1.1,7.3-0.7,11c-11.8,3.4-23.9,6.3-35.2,11c1,7.8,2.8,15.5,4.8,23.1c1.6,6.2,4.4,12,5.4,18.3c-0.8,0.3-2.3,0.8-3.1,1.1
		c-2.3-3.4-3.2-7.5-4.5-11.3c-3.3-9.5-5.1-19.5-6.4-29.4c0-8.1-2.4-16.3-0.4-24.4C-40.8,421.1-38.1,407.8-33.8,395.1z"/>
	<path class="st5" d="M19.3,393.9c9.3,0,18.6-0.1,27.9,0c-4.6,12.8-9.8,25.3-14.3,38c4.1-2.9,7-7.1,11.1-10
		c3.8-2.8,6.7-6.8,10.5-9.5c3.6-2.7,6.3-6.3,9.9-9c3.1-2.2,5.6-5,8.3-7.7c1.6,8.3,4.7,16.2,7.5,24.1c2.1,0.7,4.3,1.2,6.3,2
		c-3,0.3-6.1,0-9.1,0.6c-4.8,1-9.8,0-14.5,1.3c-7.3,0.3-14.4,1.9-21.7,2.4c-2.6,3.2-2.2,7.8-2.3,11.8c-9.7,1.1-19.3,3.5-28.9,5.3
		c0.4,10.4,2.3,20.7,5,30.8l0.1,0.7c-0.8,0.1-2.4,0.3-3.2,0.4c-5.6-14.8-6.4-31-4.5-46.6C9.2,416.3,13.5,404.7,19.3,393.9z"/>
	<path class="st5" d="M163,393.9c9.5,0,19.1,0,28.6,0c2.1,4.9,4.9,9.5,6.7,14.6c3,7.9,4.6,16.2,5.8,24.5c-9.3-2.1-18.5-4.3-28-5.4
		C171.5,416.5,167.6,405,163,393.9z"/>
	<path class="st5" d="M200.7,394c32-0.1,64-0.3,96,0.2c3,11.3,5,22.9,5.5,34.5c1.4,6.3,0.6,12.8,0.8,19.2c0.4,5-1.3,9.9-1.1,14.9
		c-6.8,3.2-14,5.5-21.2,7.4c-6.5-2.7-13.1-5.4-19.8-7.6c1.6-9.8,1-19.8,1-29.8c-0.4-5-0.9-10-1.9-15c-3.1,0-6.2,0-9.3,0
		c0.6,6.3,1.4,12.5,1.6,18.8c1.5,7.5-0.7,14.9-0.4,22.4c-11.4-4.2-22.8-8.5-34.6-11.3c-1.4,21.6-7.6,43.4-21.2,60.5
		c-1.4-0.5-5.5-0.7-3.7-3c9.5-13.1,15.9-28.5,18.6-44.5c1.9-9.2,0.8-18.6,1.1-28C210.8,419.3,206.8,406.1,200.7,394z"/>
	<path class="st5" d="M137.5,396.6c5.6,2.8,9.1,8.2,14,11.8c3.6,2.7,6.3,6.3,9.9,9c3.6,2.7,6.6,6.2,9.9,9.3
		c-7.4-1.3-14.9-2.2-22.3-2.9c1.4,3.6,3.1,7.3,3,11.3c-8-1.4-16.1-2.1-24.2-2.2c-1.8-3.7-2.4-7.8-3.9-11.6c2.5-0.5,6.2-0.4,7-3.5
		C133.4,410.8,135.9,403.8,137.5,396.6z"/>
	<path class="st5" d="M89.2,418c5.6-0.4,11.1-1.6,16.7-1.1c0.9,7.3,2,14.6,2.2,21.9c-8.5-0.2-17,0.8-25.3,2.3
		C84.9,433.3,87.2,425.7,89.2,418z"/>
	<path class="st5" d="M119.1,448.9c1.6,0,3.2,0,4.7,0c0.3,5.1,0.8,10.1,1.3,15.2c-1.3-0.1-2.7-0.1-4-0.2
		C119.4,459,120.6,453.8,119.1,448.9z"/>
	<path class="st5" d="M121.9,474.9c1.4,0,2.8,0,4.2,0c0.8,7.3,1.7,14.6,2,22c-1.3,0-2.7,0-4,0.1
		C123.2,489.6,122.4,482.3,121.9,474.9z"/>
	<path class="st5" d="M15.9,485c0.8-0.1,2.3-0.3,3.1-0.4c4.2,6.4,8.3,12.7,12.3,19.2c-1.1,0.3-2.2,0.7-3.2,1
		C23.4,498.6,19.3,492,15.9,485z"/>
</g>
<g id="_x23_341f52ff">
	<path class="st6" d="M112.2,296.9c0.7,0,2.1-0.1,2.8-0.1c0.3,0.4,0.9,1.3,1.2,1.7c2.1,5.4,2.4,11.2,1,16.8l-0.2,0.9
		c-1.6-0.4-3.3-0.6-4.7-1.5C108.2,309.8,107.3,301.6,112.2,296.9z"/>
	<path class="st6" d="M39.7,312.6c10.7-5.1,21.9-9.5,33.5-11.8c-4,12.7-6.3,25.9-7.1,39.1c-21.2,0-42.3,0-63.5,0
		C13,328.4,26.2,319.9,39.7,312.6z"/>
	<path class="st6" d="M137.5,300.9c7.4,1,14.4,3.8,21.4,6.3c18.4,7.5,35.8,18.3,49.5,32.8c-21.4,0-42.9,0-64.4,0
		C144,326.6,141.2,313.5,137.5,300.9z"/>
	<path class="st6" d="M114.2,335.9c1.3-0.1,2.6-0.2,3.9-0.3c1.2,3.4,2.9,6.6,2.9,10.3c-0.1,3.5-1.2,6.9-1.5,10.4l-0.1,0.7
		c-1.8,0.9-3.9,1.6-5.4-0.1C108.6,351.3,108.9,341.6,114.2,335.9z"/>
	<path class="st6" d="M110.2,379.9c1.3,0,2.6-0.1,3.9-0.2l0.1,0.7c0.5,3.4,1.1,6.8,0.6,10.2c-0.6,2.9-2.4,5.3-3.8,7.8
		c-4.3-0.3-5.3-5.1-5-8.6C105.6,386.1,107.8,382.7,110.2,379.9z"/>
	<path class="st6" d="M-27.5,382.5c3.3,2.7,6.8,5.2,9.8,8.3c-4.4,0-8.8,0.1-13.3,0.1C-29.6,388.2-28.6,385.3-27.5,382.5z"/>
	<path class="st6" d="M228.7,390.8c3.1-2.9,6.5-5.5,9.9-8c0.9,2.8,2,5.5,3.3,8.1C237.5,391,233.1,390.8,228.7,390.8z"/>
	<path class="st6" d="M105.4,464.6c1.4,8.6-0.2,17.4,1,26.1c1.2,8.5-0.2,17.1,1.1,25.5c1.1,7.8-0.2,15.7,0.8,23.5
		c0.8,5.4,0.6,10.9,0.6,16.4c1.8-2.6,5.1-4.7,5-8.2c0-9,0.1-18.1-0.2-27.1c-1-12-1.2-24.2-0.5-36.3c2.5,19.8,4,39.7,6.8,59.5
		c2-1.1,3.9-2.2,5.9-3.3c-1.7-12.3-2.4-24.7-3.8-37.1c13.3,11.4,27.2,22.2,40.6,33.5c-0.4,2.2-2.1,5.9,1,6.9c3.7,1.6,6.5,4.5,8.4,8
		c-2.9-2.2-5.4-5.6-9.2-6.1c-4.2-0.5-9-0.5-12.2,2.6c-3.5,2.7-5,6.9-6.9,10.6c0.4-4.2,2.3-8,4.3-11.6c-5.3-4.5-12.7-6.1-19.4-3.9
		c-9.2,3.1-16.2,10.3-21.8,17.9c8.1,1.1,15.2,6.3,19.2,13.3c-6-6.1-13.9-11.7-22.9-10.7c-7.2,0.8-13,5.3-18.3,9.8
		c2.3-3,4.9-5.9,7.9-8.2c3.3-2.6,7.5-3.5,11.4-4.4c-4.4-7.8-12.2-13.8-21.2-14.7c-5.5-1.1-11.2,0.4-16.3,2.5
		c0.7,3.7,1.7,7.3,2.2,11.1c-2.3-4.6-3.2-10.6-8-13.4c-5.2-3.5-11.9-1.9-17.5-0.2c2.2-1.5,4.4-2.8,6.7-4.1c-0.5-2.1-1-4.1-1.5-6.1
		c9.6-8.3,19.8-16.1,29.6-24.3c3.3-2.6,6.3-5.4,10-7.5c-0.5,12.7-2.9,25.2-3.3,37.9c2.4,1,4.7,2.1,7,3.3c0.7-15.2,3.3-30.2,4.6-45.3
		c0.8,3.8,0.6,7.6,0.5,11.4c-0.1,11.4,0.2,22.7-0.2,34.1c-0.6,3.9,2.9,6.5,5.1,9.3c0.2-4.4-0.1-8.8,0.5-13.1
		c1.4-9.3-0.1-18.8,1.1-28.1c1.3-9.1-0.2-18.4,1.1-27.5C105.6,479.2,104.4,471.9,105.4,464.6z"/>
	<path class="st6" d="M-16.1,523c4-1.4,8-2.8,12.1-4.2c-1.7,4.7-3.5,9.4-5.2,14.1C-11.6,529.7-14.1,526.5-16.1,523z"/>
	<path class="st6" d="M214.9,519.5c4,1.3,8.2,2.5,12.1,4c-2.3,3.3-4.7,6.6-7.3,9.7C218,528.7,216.1,524.2,214.9,519.5z"/>
	<path class="st6" d="M18.9,560.3c0.3-0.2,0.8-0.5,1-0.6c20.9,15.4,46.2,24.7,72,27.1c12.5,0.6,25.1,0.8,37.5-1.4
		c21.8-3.7,43.1-12.2,60.9-25.5c0.2,0.2,0.6,0.6,0.8,0.8c-8.5,6.8-18.4,11.5-28.2,16.2c-15.1,6.4-31.3,10.5-47.7,11.3
		c-6.4,1.1-13,1.1-19.5,0C68.1,586.8,41.3,576.5,18.9,560.3z"/>
</g>
<g id="_x23_010101ff">
	<path class="st7" d="M116.1,298.5c4.6,4.1,5.5,12.3,1,16.8C118.5,309.8,118.2,303.9,116.1,298.5z"/>
</g>
<g id="_x23_080809ff">
	<path class="st8" d="M118.1,335.6c6.1,4.9,6.2,14.8,1.5,20.6c0.3-3.5,1.3-6.9,1.5-10.4C121,342.3,119.3,339,118.1,335.6z"/>
</g>
<g id="_x23_a85905ff">
	<path class="st9" d="M144.1,351.6c9.2,23.4,18.1,46.9,27,70.4c-5.1-2.7-8.5-7.6-13.1-11.1c-3.6-2.8-6.4-6.3-9.9-9.1
		c-2.9-2.4-5.9-4.8-8.3-7.8c-1.3-1.3-0.6-3.2-0.4-4.8C142.2,376.9,144.2,364.3,144.1,351.6z"/>
</g>
<g id="_x23_e3e1dfff">
	<path class="st10" d="M104.6,386.5c0.8-4.4,4-8.1,8.4-9.3c2.1,1.8,4.9,3.6,5,6.7c0.3,4.1,0.5,8.5-1.8,12.1
		c-1.5,2.6-4.3,3.8-7.1,4.5C105.1,397.2,102.8,391.6,104.6,386.5 M110.2,379.9c-2.4,2.8-4.5,6.1-4.2,10c-0.3,3.5,0.7,8.3,5,8.6
		c2.8-1.1,4.5-3.6,5.2-6.4c1.6-3.8,1.1-8.6-1.9-11.5l-0.1-0.7C112.8,379.8,111.5,379.9,110.2,379.9z"/>
</g>
<g id="_x23_030304ff">
	<path class="st11" d="M114.2,380.5c3.1,3,3.5,7.7,1.9,11.5c-0.6,2.8-2.4,5.4-5.2,6.4c1.5-2.5,3.3-4.9,3.8-7.8
		C115.3,387.3,114.7,383.9,114.2,380.5z"/>
</g>
<g id="_x23_b3b3b3ff">
	<path class="st12" d="M106,416.9c4.9-0.3,9.8,0.5,14.6,1.4c2,7.7,5.2,15,6.8,22.7c-6.4-1-12.8-1.8-19.2-2.2
		C107.9,431.5,106.9,424.2,106,416.9z"/>
</g>
<g id="_x23_c7c7c7ff">
	<path class="st13" d="M64.9,434.6c5.7-1.3,11.6-0.3,17.3-1.6c-0.5,4.1-1.9,8-3.2,11.9c2.9,3.9,8.4,3.9,12.8,4
		c-1.9,15.9-3.4,31.9-4.9,47.9c-5,0-9.9,1.4-14.9,1.1c-13.6,1.1-27.2,3.3-40.6,5.9c-4-6.5-8.2-12.8-12.3-19.2
		c15.9-3.9,32.2-6.6,48.5-8.2c1.2-0.2,2.4-0.5,3.7-0.7c-2.9-3-5.3-6.4-7.4-10c-13.7,1.9-27.4,3.8-40.9,6.8c-2.6,0.6-5.1,1.2-7.8,1.4
		c-2.7-10.1-4.6-20.4-5-30.8c9.7-1.8,19.2-4.2,28.9-5.3C47.6,436.5,56.2,435.3,64.9,434.6z"/>
	<path class="st13" d="M127.9,432.9c8.1,0.1,16.2,0.8,24.2,2.2c13.4,1.8,26.9,3.7,40.2,6.6c3.9,0.8,7.8,1.9,11.8,2.4
		c0.9,21.9-8,43.3-21.1,60.6c-18-4.1-36.3-6.8-54.8-7.9c-0.3-7.4-1.2-14.6-2-22c5.3,1.4,10.7,0.6,16,1.7c6.5,0.5,13,1.4,19.5,2.2
		c2.8-2.7,4-6.4,5.6-9.8c-9.6-2.5-19.6-2.5-29.3-4c-4.3-0.4-8.6,0.3-12.8-1c-0.5-5.1-1-10.1-1.3-15.2c2.5-0.9,5.1-1.8,7.4-3.1
		C130.8,441.3,128.6,437.3,127.9,432.9z"/>
	<path class="st13" d="M-37.1,457c11.4-4.7,23.4-7.6,35.2-11c1.2,4.6,0.5,9.5,1.6,14.1c2.6,16.9,9.8,32.8,19.6,46.7
		c-18.5,5.2-37,10.9-54.7,18.8c-9.5,3.9-18.5,8.8-27.7,13.4c-4.9-7.9-8.2-16.7-11.8-25.2c-4.3-11.9-8.1-24-10.1-36.4
		c11.4-5.8,23.2-10.5,34.9-15.4c1.3,14.2,5.6,27.9,10.4,41.2c3.3-1,6.4-2.4,9.6-3.6c0.8-0.3,2.3-0.8,3.1-1.1
		c-1.1-6.3-3.8-12.2-5.4-18.3C-34.3,472.5-36.1,464.8-37.1,457z"/>
	<path class="st13" d="M217.3,447.8c11.8,2.8,23.3,7,34.6,11.3c3,1.2,6,2.4,9,3.5c6.7,2.3,13.2,5,19.8,7.6c5.5,10,8.2,21.2,9.7,32.4
		c0.5,3.2,1.3,6.6,0,9.7c-3.7,9.8-8.4,19.3-13.4,28.5c-7.4-4.5-15.3-7.9-22.9-11.9c0.2-11.3,0.6-23.1-4.2-33.7
		c-0.9-2.3-2.9-3.9-4.6-5.6c-3.7,10.2-8,20.1-13.5,29.5c-4-0.3-7.5-2.2-11.3-3.4c-8-2.7-16.1-5.2-24.3-7.3
		C209.6,491.2,215.9,469.3,217.3,447.8z"/>
</g>
<g id="_x23_edda79ff">
	<path class="st14" d="M95.4,444.2c6.9-2.1,14.3-1.6,21.2,0.1c1.4,18.8,3.5,37.6,5.3,56.4c0,0.8,0.1,2.3,0.2,3
		c1.4,12.4,2.1,24.8,3.8,37.1c-2,1.1-3.9,2.2-5.9,3.3c-2.8-19.8-4.2-39.7-6.8-59.5c-0.7,12.1-0.5,24.2,0.5,36.3
		c0.3,9,0.2,18.1,0.2,27.1c0.1,3.5-3.2,5.6-5,8.2c0-5.5,0.2-11-0.6-16.4c-1-7.8,0.2-15.7-0.8-23.5c-1.3-8.5,0.1-17.1-1.1-25.5
		c-1.2-8.7,0.4-17.5-1-26.1c-1,7.3,0.1,14.6-0.9,21.8c-1.3,9.1,0.2,18.4-1.1,27.5c-1.2,9.3,0.4,18.8-1.1,28.1
		c-0.6,4.4-0.3,8.8-0.5,13.1c-2.2-2.8-5.7-5.4-5.1-9.3c0.4-11.4,0.1-22.7,0.2-34.1c0-3.8,0.2-7.7-0.5-11.4
		c-1.3,15.1-3.8,30.1-4.6,45.3c-2.3-1.2-4.6-2.3-7-3.3c0.4-12.7,2.8-25.2,3.3-37.9c0.2-1.3,0.4-2.6,0.5-3.9c2-18.5,4-37,5.5-55.5
		C94.6,445,95.1,444.5,95.4,444.2z"/>
	<path class="st14" d="M19.9,559.7c9.7-7.6,19.1-15.6,28.8-23.2c0.5,2,1.1,4.1,1.5,6.1c-2.3,1.3-4.6,2.6-6.7,4.1
		c5.6-1.7,12.3-3.3,17.5,0.2c4.9,2.8,5.7,8.7,8,13.4c-0.5-3.7-1.5-7.4-2.2-11.1c5.1-2,10.8-3.6,16.3-2.5c9,0.9,16.8,6.9,21.2,14.7
		c-4,0.9-8.1,1.8-11.4,4.4c-3,2.4-5.6,5.2-7.9,8.2c5.3-4.6,11.1-9.1,18.3-9.8c9-1,16.9,4.6,22.9,10.7c-4-7-11.1-12.2-19.2-13.3
		c5.6-7.6,12.6-14.8,21.8-17.9c6.6-2.2,14.1-0.5,19.4,3.9c-2,3.6-3.9,7.4-4.3,11.6c1.9-3.7,3.4-7.9,6.9-10.6c3.2-3.1,8-3.1,12.2-2.6
		c3.8,0.6,6.3,3.9,9.2,6.1c-1.9-3.5-4.7-6.4-8.4-8c-3.1-1-1.4-4.7-1-6.9c9.2,7.6,18.4,15.1,27.6,22.7c-17.8,13.4-39,21.8-60.9,25.5
		c-12.4,2.2-25,2-37.5,1.4C66.1,584.3,40.9,575,19.9,559.7 M84.3,575.1C84.8,575.7,84.8,575.7,84.3,575.1z"/>
</g>
<g id="_x23_6a555dff">
	<path class="st15" d="M84.3,575.1C84.8,575.7,84.8,575.7,84.3,575.1z"/>
</g>
</svg>
