<?xml version="1.0" encoding="utf-8"?>
<!-- Generator: Adobe Illustrator 19.0.0, SVG Export Plug-In . SVG Version: 6.00 Build 0)  -->
<svg version="1.1" id="Layer_1" xmlns="http://www.w3.org/2000/svg" xmlns:xlink="http://www.w3.org/1999/xlink" x="0px" y="0px"
	 viewBox="-13 90.9 564.6 659.8" style="enable-background:new -13 90.9 564.6 659.8;" xml:space="preserve">
<style type="text/css">
	.st0{fill:#850F26;}
	.st1{fill:#6B1024;}
	.st2{fill:#D6D7DB;}
	.st3{fill:#FFFFFF;}
	.st4{fill:#101011;}
	.st5{fill:#C4C5CE;}
	.st6{fill:#A2A2A3;}
	.st7{fill:#99162C;}
</style>
<path class="st0" d="M14.7,675l24.1,26.8L97.6,682l19.5,6.5c48-4.4,99.7-7.5,154.6-8.4c52-0.8,101.1,0.3,147,2.9
	c30.4,8.2,60.8,16.3,91.3,24.5v-44.6L14.7,675z"/>
<polygon class="st1" points="470.2,275.6 516.2,274.2 514,477.6 463,479.5 "/>
<polygon class="st1" points="29.6,276.6 29.6,477.1 82.9,477.1 74,272.8 "/>
<path class="st2" d="M339.7,626.6c0.1,42.4,0,18.6,0.1,42.4c-7.3-0.5-14.6-1-21.9-1.3c0-14.2-0.1-28.3-0.1-42.5
	C324.9,625.1,332.6,626.5,339.7,626.6z"/>
<g id="_x23_ffffffff">
	<path class="st3" d="M256.5,90.9h30.8c32.5,1.7,64.8,8.6,94.9,20.9c28.1,11.5,54.2,27.8,77.2,47.7c17.5,15.2,33.3,32.6,46,52
		c1.7,2.5,2.6,5.4,2.9,8.4c1.1,11.8,1.5,23.7,2.7,35.5c5,1.2,10.4,1.9,14.9,4.4c6,4.3,4.9,12.5,5.3,19c4,0.1,8.8-0.2,11.8,3
		c2.3,2.1,2.6,5.3,3,8.2c1.7,18.3,3,36.6,4,55c1.3,28.3,2.5,56.7-0.3,84.9c-1,8.4-2,16.9-5,24.8c-2.6,5.4-9.4,5.7-14.5,6.8
		c-1.4,9.1-2.8,18.3-6.1,26.9c-1.7,4.2-6.3,5.7-10.3,6.7c-2.7,18.9-5.3,37.8-9.7,56.4c6.5,0.1,13.3-1.2,19.5,1.3
		c4.3,1.8,5.5,6.9,5.6,11.1c0,17.3,0,34.7,0,52c0,4.2-0.1,9-3.3,12.2c-1.9,2.2-5,2.4-7.7,3.1c0.1,4.1,0.1,8.3,0,12.4
		c2.7,0.6,5.8,0.9,7.8,3.1c3.1,3.2,3.3,8,3.2,12.2c-0.1,17.7,0,35.3,0,53c-0.1,4.6-2,10-6.8,11.3c-2.8,1.1-5.8,0-8.6-0.5
		c-23.2-5.4-46.4-10.4-69.9-14.4c-23.8-4.4-47.8-7.3-71.8-10c-19.5,16.1-39.6,31.8-61.7,44.2c-11.3,5.6-24,7.6-36.5,8
		c-18.5-0.8-37.3-5-53.1-15c-18-11.3-34.4-24.9-50.6-38.5c-21.5,2-43,4.7-64.4,7.8c-3.1,0.4-6.2-0.9-8.6-2.7
		c-1.8,2.9-4.8,4.9-8.3,5.4c-18.8,3.4-37.7,7-56.4,11.2c-3.3-0.2-6.6-1.4-8.8-3.8c-7.2-7.5-14.2-15.2-21.1-22.9
		c-2.4-2.4-2.9-6-2.9-9.2c0-31,0-62,0-93c0-3.5,0.7-7.3,2.9-10.1c6.2-8.1,12.3-16.3,18.7-24.3c3.2-4,8.7-4.2,13.4-4.1
		c19.7,0,39.3,0,59-0.1c-0.4-2.5-0.8-4.9-1.3-7.4c-13.4-11.9-23.4-27.2-30.8-43.3c-10.8-0.7-21.4-3-31.9-5.8
		c-2.7-0.8-5.5-1.5-7.5-3.5c-2.9-3.1-3.7-7.3-4.7-11.3c-1.4-6.1-2.7-12.2-3.5-18.5c-4.6-1.2-9.9-1.2-13.5-4.6
		c-4.1-4.8-6.3-10.8-8-16.8c-4.3-15.7-6.1-32-5.9-48.3c0.2-16.4-0.5-32.8,0.9-49.2c1.5-17,3.7-34.1,8.5-50.6
		c1.3-4.1,2.5-8.8,6.4-11.3c3.1-2.2,7-2,10.6-2.1c0.6-6.3-0.8-14.4,5-18.7c4.6-2.9,10.1-3.7,15.4-4.7c0.6-10.8,1.7-21.7,2.3-32.5
		c0.3-4.3,1-8.7,3.7-12.2c27.8-41.5,68-74.2,113.3-95C185.5,101,220.9,92.8,256.5,90.9 M99,160.7c-20.1,16.5-38.5,35.6-52.4,57.7
		c-1.5,15.1-2.3,30.3-3.4,45.5c-5.8,0.7-11.5,1.5-17.1,3.4c-1,0.4-2.4,0.8-2.2,2.2c-0.4,6.5-0.6,12.9-1.1,19.3
		c-4.9-0.1-9.9,0.3-14.8,0.2c-6,15.2-7.7,31.7-9.5,47.8c-2.2,18.6-1.3,37.4-1.5,56.1c-0.2,12.9,1.1,25.8,3.7,38.5
		C2.3,437.8,4,444.5,8,450c5,1.7,10.3,2.3,15.4,3.7c1.2,10.4,2.7,20.8,6,30.7c12.6,3.7,25.7,6.5,38.9,6.3
		c6.7,15.5,15.2,30.6,27.5,42.4c2,2.1,4.3,3.8,6.1,6.1c1.5,7.4,2.5,14.8,3.8,22.2c-25.4,0-50.7,0.2-76.1,0.1
		c-6.6,8.4-13.3,16.7-19.4,25.4c-0.1,32.9-0.1,65.8,0,98.7c7.2,7.8,14.3,15.7,21.6,23.4c18.8-4.1,37.7-7.8,56.7-11.2
		c2.5-3.5,5.1-6.9,7.6-10.4c2.9,2.5,5.3,5.7,8.4,7.9c23-3.3,46.1-6.6,69.2-8.1c17.1,14.4,34.3,28.9,53.3,40.7
		c10.5,6.5,22.5,10.4,34.7,11.9c14.5,2.2,29.8,0.7,43.2-5.3c23-12.8,43.8-29.3,63.9-46.2c28.7,2.9,57.4,6.8,85.8,12.1
		c21.7,3.8,43.1,8.9,64.7,13.5c-0.1-20,0-40,0-60c-3.6-0.6-7.2-1.3-10.8-1.8c-0.1-10.5,0-21-0.1-31.5c3.6,0.2,7.3,0.3,10.9,0.5
		c0-19.8,0-39.7,0-59.5c-9.1,0-18.2-0.1-27.3,0c5.6-24.4,10-49.1,12.5-74c3.5-1,7.1-1.8,10.6-2.9c3.3-10,4.8-20.4,6-30.8
		c4.9-1.2,9.9-2.1,14.8-3.4c3.7-12.7,4.3-26,5-39.2c1.1-27.3-0.5-54.7-2-82c-1-13.3-1.6-26.7-3.4-39.9c-4.6-0.9-9.4,0.6-14-0.5
		c-0.2-6.9-0.4-13.8-1.2-20.7c-6.1-2.1-12.5-3.4-19-3.9c-1.3-15.1-2.1-30.2-3.4-45.3c-7.4-12.2-16.7-23.1-26.4-33.6
		c-19-20.1-41.1-37.3-65.4-50.7c-35.9-20-76.4-31.3-117.4-33.3c-10.3-0.2-20.6-0.1-31-0.1C200.4,103,143.6,124.1,99,160.7z"/>
	<path class="st3" d="M164.1,151.3c31.8-13.2,65.6-21.3,99.8-24.8c6-0.7,12-0.5,17.9,0.2c38.8,4.1,77.1,13.9,112.3,30.8
		c31.2,15.1,60.1,36.7,79.9,65.5c0.3,13.3,0.6,26.7,0.3,40c-1-2.6-0.9-5.4-1.3-8.1c-1.1-8.3-2.3-16.6-4.3-24.7
		c-15-19.3-33.3-36.1-53.7-49.6c-29.2-19.3-62.6-32-97-38.5c-22.7-4.3-46-6-69-3.4c-47.3,5.1-93.9,21.5-131.9,50.3
		c-15.3,11.5-29,25.1-41,40c-0.7,0.8-1.1,1.6-1.2,2.6c-2.1,9.7-3.4,19.5-4.5,29.3c-0.4-11.8,0.1-23.5,0-35.3
		c0.1-1.2-0.2-2.6,0.7-3.6C93.9,189.7,127.8,166.5,164.1,151.3z"/>
	<path class="st3" d="M475.8,490.7c6.5,0.2,13-0.5,19.4-1.5c-2.9,24.3-7.1,48.4-13.2,72.1c-14.6,0-29.1,0.1-43.7,0.1
		c1.3-7.4,2.3-14.9,3.8-22.3c2.2-2.8,5.1-4.9,7.5-7.5C461.2,520,469.4,505.5,475.8,490.7 M480.9,503.6c-7.5,15-16.9,29.3-29.6,40.4
		c-0.3,2.5-0.8,4.9-1.3,7.4c8.1,0,16.2-0.1,24.3,0c4.3-16.9,7.2-34,9.3-51.3C481.7,500.3,481.6,502.3,480.9,503.6z"/>
	<path class="st3" d="M37.4,578.2c14-0.2,28-0.1,42,0c3.5,4.3,7.2,8.4,10.8,12.7c-0.1,9.5,0,19.1-0.1,28.6
		c-7.3-1.9-14.6-3.8-21.8-5.9c0-4,0-7.9,0.1-11.9c-6.7,0.3-13.3,0.7-20,0.9c0,15.9-0.1,31.8,0,47.6c-7.3,1.7-14.5,3.6-21.6,5.7
		c0-21.1,0-42.1,0-63.2C29.8,587.5,34,583.1,37.4,578.2z"/>
	<path class="st3" d="M99.4,578c7.3-0.4,14.6-0.1,21.8-0.2c-0.1,19,0,38.1-0.2,57.2c-6.8,1.3-13.7,2.3-20.5,3.7
		c-0.1,7.8,0,15.5,0,23.3c0,1.6-0.1,3.2-0.7,4.7l-0.4,0.7C99.2,637.5,99.5,607.8,99.4,578z"/>
	<path class="st3" d="M141.2,577.8c7.2,0,14.4-0.1,21.7,0.1c0,17.1-0.1,34.2-0.1,51.3c-7.3,0.9-14.6,1.8-21.9,2.9
		C141,614,141.1,595.9,141.2,577.8z"/>
	<path class="st3" d="M172.2,577.8c17.6,0,35.1-0.2,52.7,0.1c3.5,3.7,7.5,7.1,10.8,11.1c0,8.4,0,16.8-0.1,25.2
		c-2.9,3.3-6.9,5.8-8.7,9.7c-8.7,0.4-17.3,1.3-26,1.4c-1.2-4.5-2.6-9-3.7-13.6c5.6-0.1,11.1-0.2,16.7-0.3c-0.1-4.6,0-9.2,0-13.8
		c-6.6,0-13.3,0.4-19.9,0.4c0,9.4-0.1,18.8,0,28.1c-7.3,0.4-14.6,1.2-21.8,2.1C172.2,611.5,172.1,594.7,172.2,577.8z"/>
	<path class="st3" d="M244.9,588.9c3.7-3.6,7.3-7.3,11-10.9c13.9,0.1,27.9,0,41.8,0.1c3.5,3.7,7.2,7.1,10.6,10.8
		c0.5,6.7,0.1,13.4,0.2,20.1c-7.3-2-14.5-4.2-21.8-6.3c0-1.7,0-3.5-0.1-5.2c-6.6,0.2-13.3,0-19.9,0c0,3.1,0,6.2,0,9.3
		c13.8,4,27.6,8.2,41.4,12.5c0,1.7,0,3.4,0,5.1c-8.4,0.2-16.8-1.1-25.2-0.9c-9.8-0.1-19.6-0.3-29.4,0.1c-3-0.5-5.9-1.5-8.8-2.3
		C244.9,610.5,244.9,599.7,244.9,588.9z"/>
	<path class="st3" d="M348.9,577.8c6.9,0.2,14-0.5,20.9,0.3c5.9,17.7,11.6,35.4,17,53.3c-0.4,0.2-1.3,0.6-1.7,0.8
		c-6.4-0.7-12.8-2.3-19.3-2.1C360.3,612.7,354.2,595.3,348.9,577.8z"/>
	<path class="st3" d="M408.9,578c7-0.3,14-0.1,21.1-0.1c-5.6,19.8-11.8,39.4-17.7,59c-6.2-1.4-12.6-1.9-18.7-3.5
		c-0.3-0.3-0.8-0.8-1-1.1c0.2-2.6,1.2-5,1.9-7.4C399.4,609.3,404.3,593.7,408.9,578z"/>
	<path class="st3" d="M439.3,577.9c21.1-0.3,42.3-0.1,63.4-0.1c0.1,8.5,0,17,0.1,25.6c-13.9-0.6-27.8-1.4-41.7-1.9
		c0.1,5.6,0,11.3,0.1,16.9c10.2,0.6,20.5,1,30.7,1.8c0,8.3,0,16.7,0,25c-10.2-1.5-20.4-3-30.7-4.6c0,2.4,0,4.8,0,7.2
		c-6.8-1.8-13.6-3.8-20.5-4.9c-0.4,11.3-0.1,22.6-0.2,33.9c-0.1,1.3-0.3,2.7-0.7,4C439.4,646.6,439.5,612.2,439.3,577.9z"/>
	<path class="st3" d="M317.7,577.8c7.3,0.1,14.6-0.2,21.8,0.2c-0.1,6.5,0,13.1,0,19.6c0.2,19.4,0.2,19.4,0.2,29
		c-7.1-0.1-14.8-1.5-21.9-1.4C317.8,609.4,317.7,593.6,317.7,577.8z"/>
</g>
<g id="_x23_101011ff">
	<path class="st4" d="M99,160.7C143.6,124.1,200.4,103,258,101c10.3,0,20.7-0.1,31,0.1c41,2.1,81.6,13.3,117.4,33.3
		c24.2,13.4,46.3,30.6,65.4,50.7c9.7,10.4,19,21.4,26.4,33.6c1.3,15.1,2.1,30.2,3.4,45.3c6.5,0.6,12.8,1.9,19,3.9
		c0.8,6.9,1,13.8,1.2,20.7c4.6,1.1,9.4-0.5,14,0.5c1.7,13.2,2.3,26.6,3.4,39.9c1.5,27.3,3.1,54.6,2,82c-0.7,13.2-1.4,26.5-5,39.2
		c-4.9,1.3-9.9,2.3-14.8,3.4c-1.2,10.4-2.7,20.9-6,30.8c-3.5,1.1-7.1,1.9-10.6,2.9c-2.6,24.9-7,49.6-12.5,74
		c9.1-0.1,18.2-0.1,27.3,0c-0.1,19.8,0,39.7,0,59.5c-3.6-0.1-7.3-0.3-10.9-0.5c0.1,10.5-0.1,21,0.1,31.5c3.6,0.5,7.2,1.2,10.8,1.8
		c0,20-0.1,40,0,60c-21.5-4.5-43-9.7-64.7-13.5c-28.4-5.4-57-9.3-85.8-12.1c-20.1,16.9-40.9,33.4-63.9,46.2
		c-13.4,6-28.7,7.5-43.2,5.3c-12.2-1.5-24.2-5.4-34.7-11.9c-19-11.8-36.2-26.3-53.3-40.7c-23.2,1.6-46.2,4.8-69.2,8.1
		c-3.2-2.2-5.5-5.4-8.4-7.9c-2.5,3.5-5.1,6.9-7.6,10.4c-18.9,3.4-37.9,7.1-56.7,11.2c-7.3-7.7-14.5-15.6-21.6-23.4
		c-0.1-32.9-0.1-65.8,0-98.7c6.1-8.7,12.9-17,19.4-25.4c25.4,0.1,50.7-0.1,76.1-0.1c-1.3-7.4-2.3-14.9-3.8-22.2
		c-1.8-2.2-4.1-4-6.1-6.1c-12.3-11.8-20.8-26.9-27.5-42.4c-13.2,0.3-26.3-2.6-38.9-6.3c-3.4-9.9-4.8-20.3-6-30.7
		c-5.1-1.3-10.4-2-15.4-3.7c-4-5.4-5.7-12.2-7.3-18.6c-2.6-12.6-3.9-25.6-3.7-38.5c0.2-18.7-0.7-37.4,1.5-56.1
		C0.3,320.7,2,304.2,8,289c4.9,0,9.9-0.3,14.8-0.2c0.5-6.4,0.7-12.9,1.1-19.3c-0.2-1.4,1.2-1.8,2.2-2.2c5.5-1.8,11.3-2.7,17.1-3.4
		c1.2-15.2,1.9-30.4,3.4-45.5C60.5,196.4,78.9,177.3,99,160.7 M164.1,151.3c-36.3,15.2-70.2,38.4-93,70.8c-0.9,1-0.6,2.4-0.7,3.6
		c0.1,11.8-0.4,23.5,0,35.3c1-9.8,2.4-19.6,4.5-29.3c0.2-1,0.6-1.9,1.2-2.6c12-14.9,25.7-28.5,41-40c38.1-28.8,84.7-45.2,131.9-50.3
		c23-2.7,46.3-0.9,69,3.4c34.4,6.5,67.8,19.1,97,38.5c20.4,13.5,38.7,30.3,53.7,49.6c2,8.1,3.2,16.4,4.3,24.7
		c0.4,2.7,0.3,5.5,1.3,8.1c0.3-13.3,0-26.7-0.3-40c-19.8-28.8-48.6-50.4-79.9-65.5c-35.2-16.9-73.6-26.7-112.3-30.8
		c-5.9-0.7-11.9-0.9-17.9-0.2C229.8,130,195.9,138.1,164.1,151.3 M252.6,169.7c-11.2,1.3-22.3,3-33.1,6c-8.4,1.4-16.5,4.3-24.6,7
		c-34.8,12.2-67.1,32.8-90.6,61.4c-2.3,11.2-3.4,22.6-4.5,33.9c-3.2,38.6-2.8,77.6,1.6,116.1c4.7-14.6,6.3-30,6.6-45.3
		c-0.2-1.9,1.6-3.1,2.6-4.5c6-7.2,11.4-15,15.3-23.5c2.6-5.6,4.4-11.7,4.2-17.9c-0.5-11-3.9-21.7-8.5-31.6c-0.6-1.6-1.9-3-2.1-4.8
		c7.6,5.9,13.8,13.6,17.3,22.6c3.9,9.7,4.5,20.7,1.9,30.8c-3.1,13-10.4,24.5-18.4,34.9c0.8,21.7-4.3,43-9.8,63.8
		c-6.6,15.3-9.2,32.3-18.4,46.4c5.3,16.5,12.7,32.9,25,45.4c11.8-11,27.4-19.4,43.9-18.1c8.7,0.6,17.7,4.4,22.4,12.1
		c6.5,10.4,5.8,23.3,4.3,35c-0.2,0.4-0.5,1.1-0.7,1.5c4.3,3.7,8.4,7.6,12.6,11.4c1.3-2.2,2.3-5.8,5.4-5.7c4.2,2,4.6,7.2,5.7,11.1
		c1.1-3.3,2.2-8,6.2-8.6c4.6,0.8,6.1,5.9,6.9,9.8c1.4-3.4,2-8.6,6.1-9.7c3.6,1.1,4.5,5.5,6.3,8.4c2-3.2,4-8.2,8.4-8.4
		c4.1,2,4.7,7.1,6.5,10.8c1.9-4.2,3.7-8.7,7.2-11.8c1.2-1.2,3.4-1.7,4.6-0.4c4.2,3.9,6.5,9.2,9,14.2c2.6-4.9,4.9-10.2,9-14.1
		c1.3-1.4,3.4-0.9,4.7,0.2c3.7,3.1,5.2,7.8,7.5,11.9c1.2-3.9,2.2-8.7,6.1-10.8c4.5,0,6.4,5.2,8.6,8.4c1.6-3,2.7-8,6.7-8.4
		c3.6,1.7,4.3,6.2,5.6,9.6c0.9-3.8,2.3-8.8,6.8-9.7c4,0.3,5.1,4.9,6.3,8c1.2-3.1,1.6-6.6,3.8-9.2c0.9-0.9,2.5-2,3.7-1
		c1.9,1.2,2.6,3.5,3.7,5.3c4.1-3.9,8.4-7.6,12.5-11.5c-0.2-0.8-0.5-1.7-0.8-2.5c-1.5-11.7-1.8-24.8,5.3-35
		c5.8-8.4,16.7-11.4,26.5-11.1c14.8,0.6,28.4,8.3,39,18.2c12.3-12.5,19.8-28.9,25-45.5c-8.8-13.5-11.5-29.6-17.6-44.3
		c-6.3-21.4-11.4-43.5-10.7-65.9c-3.5-5-7.5-9.8-10.4-15.3c-7.3-12.8-11.8-28-8.4-42.7c2.4-12.1,9.9-22.5,19.3-30.3
		c0.1,0.2,0.3,0.6,0.4,0.9c-3.8,6.7-6.5,14-8.5,21.4c-2,8.2-3.2,17.1-0.4,25.3c4,12.7,12.4,23.3,20.5,33.6
		c0.4,15.6,1.7,31.4,6.6,46.3c0.4-1.3,0.5-2.7,0.6-4c4.3-46.1,4.4-92.7-2.2-138.6c-0.6-2.7-0.4-5.7-1.8-8
		c-26.1-31.3-62.6-52.9-101.4-64.4c-4.8-1.3-9.6-3-14.6-3.6C300.4,169.6,276.3,167.1,252.6,169.7 M36,278.8
		c-2.1,37.6-3.4,75.3-3.4,113c0,19.3,0.3,38.7,2.1,58c0.8,7.3,1.6,14.6,3.9,21.6c7.3,1.3,14.7,2.6,22.1,2.8c0.4,0,1.3,0.1,1.7,0.2
		c-1-5.5-3.6-10.7-4.1-16.2c3.8-5.8,9.2-10.7,11.5-17.4c1.5-4.6,4.1-9.1,4.2-14c-7.4-49-9.1-98.9-5.6-148.3
		c-0.5,0.1-1.4,0.2-1.9,0.3C56.3,278,46.1,277.8,36,278.8 M478.6,278.7c-0.6,0-1.8,0.1-2.4,0.1c-0.1,1.7-0.2,3.3-0.1,5
		c3.1,45.7,1.3,91.7-5,137c-0.4,3.3-1.5,6.8-0.2,10.1c1.6,4.7,3.2,9.4,5.4,13.9c2.7,4.8,6.7,8.7,9.7,13.3c-0.4,5.5-3.1,10.7-4,16.2
		c0.4,0,1.3-0.1,1.8-0.2c7.7-0.2,15.2-1.5,22.7-3c3.4-11.5,4-23.6,4.8-35.4c1.2-24,1.3-48,0.7-71.9c-0.5-28.4-1.5-56.8-3.1-85.1
		C498.7,277.8,488.6,278.1,478.6,278.7 M475.8,490.7c-6.4,14.9-14.5,29.3-26,40.9c-2.4,2.6-5.3,4.7-7.5,7.5
		c-1.6,7.4-2.5,14.9-3.8,22.3c14.5,0,29.1-0.1,43.7-0.1c6.1-23.7,10.3-47.8,13.2-72.1C488.8,490.2,482.3,490.9,475.8,490.7
		 M134.1,541.9c0.8,6.5,2.2,12.9,2.9,19.4c6.4,0,12.8-0.1,19.2,0c-2.6-14.1-4.6-28.3-6.9-42.5C143.6,526,138.4,533.8,134.1,541.9
		 M394.7,518.8c-2.2,14.1-4.2,28.4-6.8,42.5c6.4,0.1,12.8,0.1,19.2,0c0.9-6.5,2-13,3.1-19.5C405.5,533.9,400.8,525.8,394.7,518.8
		 M37.4,578.2c-3.4,4.9-7.6,9.3-10.6,14.4c-0.1,21.1,0,42.1,0,63.2c-0.1,7.7,0,15.4-0.1,23.1c3.6,4,7.3,8.1,11.1,11.9
		c13.6-3.1,27.3-5.6,41-8.2c4.1-4.6,7.5-9.8,11.3-14.7c0-7.1,0-14.2,0.1-21.4c-7.3-1.7-14.7-3.4-22-4.9c0.2,6.4,0.1,12.8,0,19.2
		c-6.6,1-13.2,2-19.7,3c0-4.6,0-9.2,0-13.8c0-15.9,0.1-31.8,0-47.6c6.7-0.2,13.3-0.6,20-0.9c-0.1,4-0.1,7.9-0.1,11.9
		c7.2,2.1,14.5,4,21.8,5.9c0.1-9.5,0-19,0.1-28.6c-3.6-4.3-7.3-8.4-10.8-12.7C65.4,578.1,51.4,578,37.4,578.2 M99.4,578
		c0.1,29.8-0.2,59.5,0,89.3l0.4-0.7l-0.2,0.8c3.6,3.3,6.9,6.9,10.5,10.3c13.8-2,27.7-3.8,41.6-5.3c3.8-4.2,7.4-8.5,11.2-12.7
		c-0.1-10.2,0.1-20.4,0-30.5c0-17.1,0.1-34.2,0.1-51.3c-7.2-0.1-14.4,0-21.7-0.1c-0.1,18.1-0.2,36.2-0.4,54.2c0,6.8,0,13.6-0.1,20.3
		c-6.6,0.5-13.2,1.3-19.8,1.9c0.1-6.4,0.1-12.9,0-19.3c0.2-19,0.1-38.1,0.2-57.2C113.9,577.9,106.7,577.6,99.4,578 M172.2,577.8
		c-0.1,16.8,0,33.6-0.2,50.4c-0.3,14-0.1,28.1-0.2,42.1c7.3-0.5,14.6-1.2,22-1.7c0-14.2,0.1-28.3,0.1-42.5c-0.1-9.4,0-18.8,0-28.1
		c6.6,0,13.3-0.4,19.9-0.4c0,4.6,0,9.2,0,13.8c-5.6,0.1-11.1,0.2-16.7,0.3c1.1,4.6,2.6,9,3.7,13.6c0.6,2.2,1.2,4.3,1.9,6.5
		c3.7-0.2,7.3-0.4,11-0.3c-0.2,12-0.1,24-0.1,36.1c7.3-0.5,14.7-0.5,22-1c0-11.6-0.1-23.2,0.1-34.7c-2.6-2.8-5.4-5.4-8.1-8.1
		l-0.9,0.1c1.9-4,5.9-6.5,8.7-9.7c0.1-8.4,0-16.8,0.1-25.2c-3.3-3.9-7.3-7.3-10.8-11.1C207.3,577.6,189.8,577.9,172.2,577.8
		 M244.9,588.9c0,10.8,0,21.6,0,32.4c2.9,0.8,5.8,1.8,8.8,2.3c10.9,3.5,22.1,6.2,33,9.6c0,4.5,0.1,9.1,0.1,13.7
		c-6.6,0-13.2-0.2-19.7-0.1c-0.1-2.4-0.1-4.8,0.1-7.1c-7.3-2.5-14.8-4.2-22.2-6.3c0,7.4-0.1,14.9,0,22.3c3.7,3.6,7.3,7.3,11.1,10.8
		c14-0.3,27.9,0.1,41.9,0.4c3.5-3.6,7.2-6.9,10.6-10.5c0.5-12.3,0-24.7,0.2-37.1l-0.5,0c-13.7-4.4-27.6-8.5-41.4-12.5
		c0-3.1,0-6.2,0-9.3c6.6,0,13.3,0.2,19.9,0c0.1,1.7,0.1,3.5,0.1,5.2c7.3,2.1,14.5,4.3,21.8,6.3c-0.1-6.7,0.3-13.5-0.2-20.1
		c-3.5-3.7-7.2-7.1-10.6-10.8c-13.9-0.1-27.9,0-41.8-0.1C252.2,581.6,248.6,585.3,244.9,588.9 M317.7,577.8c-0.1,15.8,0,31.6,0,47.4
		c0,14.1,0,28.3,0.1,42.5c7.3,0.4,14.6,0.8,21.9,1.3c0-23.8,0-47.6-0.3-71.4c0-6.5-0.1-13.1,0-19.6
		C332.3,577.6,325,577.9,317.7,577.8 M348.9,577.8c5.3,17.5,11.4,34.8,16.9,52.3c4.5,14.2,8.9,28.3,13.5,42.4c7,0.7,14,1.5,21,2.5
		c4.2-12.7,8.1-25.4,12-38.2c6-19.7,12.2-39.3,17.7-59c-7,0.1-14.1-0.2-21.1,0.1c-4.7,15.7-9.6,31.3-14.4,47
		c-0.7,2.4-1.7,4.8-1.9,7.4l-0.3-0.2c-1.5,1.1-4.3,0.9-5.3-0.8l-0.1,0.1c-5.5-17.8-11.1-35.6-17-53.3
		C362.9,577.3,355.8,578,348.9,577.8 M439.3,577.9c0.2,34.3,0,68.6,0.5,103c21.1,3.4,42.1,7.6,63,12.3c0-8.5,0-17,0-25.5
		c-13.8-2.6-27.7-4.6-41.6-6.8c0-4.3,0-8.7-0.1-13c0-2.4,0-4.8,0-7.2c10.2,1.5,20.5,3.1,30.7,4.6c0-8.3,0-16.7,0-25
		c-10.2-0.8-20.5-1.2-30.7-1.8c-0.1-5.6,0-11.3-0.1-16.9c13.9,0.5,27.8,1.3,41.7,1.9c-0.1-8.5,0-17-0.1-25.6
		C481.6,577.9,460.5,577.7,439.3,577.9 M213.7,669c-0.1,1.3-0.2,2.7-0.3,4c7.5,0,14.9-0.2,22.4-0.5c0-1.4-0.1-2.9-0.1-4.3
		C228.4,668.6,221,669,213.7,669 M257,668c1,1.3,2,2.6,3,3.9c10,0.2,20,0.4,30,0.7c2.7,0.3,4.1-2.4,5.7-4.1
		C282.9,667.8,269.9,667.8,257,668 M317.7,669.4c0,0.9,0,2.6,0,3.5c7.2,0.3,14.5,1,21.7,1.2c0-0.9,0.1-2.6,0.2-3.5
		C332.4,669.9,325,669.7,317.7,669.4 M171.9,672c0,1.3,0,2.7,0,4c7.3-0.4,14.6-0.9,21.8-1.5c0-1,0.1-3.1,0.1-4.2
		C186.4,670.8,179.1,671.4,171.9,672 M111.4,679c0.6,1,1.2,1.9,1.7,2.9c11.3-1.3,22.6-3,33.9-4.3c2,0.1,3-1.9,3.6-3.4
		C137.5,675.4,124.5,677.2,111.4,679 M379.7,674.2c0.1,0.7,0.4,2.1,0.5,2.7c5.8,1.4,11.9,1.8,17.8,2.9c2,0.7,1.7-2.1,2.1-3.1
		C393.4,675.5,386.5,674.9,379.7,674.2 M218.9,683.8c8.3,6.5,16.6,13.1,25.8,18.3c10.9,5.1,23.1,9.2,35.3,6.7
		c9.5-2,18.8-5.5,26.8-11.2c5.9-4.2,11.9-8.3,17.4-13.1C289.1,682.5,254,682.6,218.9,683.8 M439.2,686.5
		c21.3,3.7,42.5,8.4,63.8,11.7c0-0.8-0.1-2.5-0.1-3.4c-20.9-5-42.1-8.9-63.3-12.5C439.4,683.7,439.3,685.1,439.2,686.5 M38.8,692.1
		c0.7,1,1.4,2,2,3c12-2.4,24.1-4.5,36.1-7c0.4-1.2,0.8-2.4,1.3-3.6C65,686.5,51.9,689.4,38.8,692.1z"/>
	<path class="st4" d="M130.9,370.5c9.6-7.8,20.4-15.3,33.1-16.6c5.4-0.7,10.7,1.1,15.4,3.5c12.1,5.4,24.5,10.4,37.5,13.1
		c7.2,1.3,15,2.3,22-0.5c5-1.9,8.4-6.6,9.1-11.8c0.1-0.3,0.2-0.9,0.3-1.3c0.5,11.3-4.8,22.5-13.1,30.2c-0.3,0.4-0.9,1.2-1.2,1.6
		c-0.2,11-2.4,22.7-9.9,31.2c-4.6,5.3-11.3,8.4-18.2,9.5c-12.6,2.3-25,6.4-37.9,5.7c-7.9-0.3-15.3-5.1-19-12.1
		c-7.9-13.7-6.6-30.4-2.4-45c0.4-1.4,1-2.7,1.5-4c-5.6-3.3-12.3-3-18.5-2.3L130.9,370.5 M171.6,388.4c-1,8,1.5,16.8,8.4,21.5
		c8.6,6.2,20.9,5.4,29.5-0.4c4.8-3,8.3-8,8.9-13.6C202.4,398.4,186.5,393.7,171.6,388.4z"/>
	<path class="st4" d="M368.7,355.7c5.5-2.4,11.7-2.3,17.4-0.8c10.3,2.7,19.1,8.9,27.2,15.6l1.3,1.1c-6.2-0.8-12.9-1-18.5,2.3
		c0.6,1.6,1.3,3.2,1.8,4.8c3.7,13.3,4.9,28.2-1,41.1c-3,6.8-8.7,12.9-16.2,14.5c-10.9,2.4-21.9-0.8-32.6-2.9
		c-8.3-2.1-17.6-2.4-24.5-8.2c-9.7-7.8-13-20.8-13.4-32.8c0-1.3,0-2.7-1.2-3.5c-7-6.4-11.7-15.4-12.8-24.9c0-0.9,0.1-2.7,0.1-3.6
		c0.8,4.2,3,8.3,6.8,10.4c7,4,15.4,3.1,23,1.8C341,367.8,354.9,361.8,368.7,355.7 M324.4,395.7c0,3.2,1.3,6.2,3.2,8.7
		c8.4,10.6,25.8,13.3,36.4,4.4c5.9-4.9,7.7-13,7.1-20.4C356.1,393.4,340.3,398.6,324.4,395.7z"/>
	<path class="st4" d="M271.5,406.2c0.2,0,0.7-0.1,1-0.1c13.3,23.1,25.8,47,32.1,73l-0.7,0.4c-6,3.5-12.6,7.7-19.9,7
		c-4.5-3.1-8-7.6-12-11.3c-3.5,3.4-6.9,6.9-10.5,10.3c-1.4,1.6-3.8,1-5.6,0.9c-5.7-0.9-10.8-4-15.7-6.9l-0.7-0.4
		c3.3-14.6,9.2-28.6,15.6-42.1C260.2,426.5,265.6,416.2,271.5,406.2z"/>
</g>
<path class="st5" d="M252.6,169.7c23.7-2.7,47.8-0.2,70.9,5.8c2.5,1.6,5.2,3,8,4c40.4,16,74.4,47.8,92.8,87.1
	c-9.3,7.8-16.8,18.2-19.3,30.3c-3.4,14.7,1.1,29.9,8.4,42.7c2.9,5.5,6.8,10.3,10.4,15.3c-0.7,22.4,4.4,44.5,10.7,65.9
	c-1.1,15.3-0.1,31.4-7.2,45.5c-4.4,9.1-15.8,15-25.6,11c-12-4.3-25.3-1.6-36.4,4c-7,3.7-12.9,10-15.5,17.5
	c-4.7,13.2-1.5,28.3,6.4,39.6c0.3,0.8,0.6,1.6,0.8,2.5c-4.1,3.9-8.4,7.6-12.5,11.5c-1.1-1.8-1.8-4.1-3.7-5.3c-1.2-1.1-2.8,0.1-3.7,1
	c-2.3,2.6-2.7,6.1-3.8,9.2c-1.2-3.1-2.4-7.7-6.3-8c-4.4,0.9-5.9,5.9-6.8,9.7c-1.3-3.4-2-7.9-5.6-9.6c-4,0.4-5.1,5.4-6.7,8.4
	c-2.2-3.1-4.1-8.4-8.6-8.4c-3.9,2.1-4.9,6.9-6.1,10.8c-2.3-4.1-3.8-8.8-7.5-11.9c-1.3-1.2-3.4-1.6-4.7-0.2c-4.1,3.9-6.4,9.2-9,14.1
	c-2.5-5-4.8-10.3-9-14.2c-1.3-1.3-3.4-0.8-4.6,0.4c-3.5,3.1-5.4,7.6-7.2,11.8c-1.7-3.8-2.3-8.8-6.5-10.8c-4.4,0.2-6.4,5.2-8.4,8.4
	c-1.7-2.9-2.6-7.3-6.3-8.4c-4.1,1.1-4.7,6.3-6.1,9.7c-0.8-3.9-2.3-9-6.9-9.8c-4,0.6-5.2,5.3-6.2,8.6c-1.1-3.9-1.6-9.1-5.7-11.1
	c-3.1-0.1-4.1,3.6-5.4,5.7c-4.2-3.8-8.3-7.7-12.6-11.4c0.2-0.4,0.5-1.1,0.7-1.5c6.6-7.5,9.4-17.8,9.7-27.6
	c0.4-11.5-5.3-23.3-15.2-29.3c-9.2-5.4-20.2-8.5-30.9-7.3c-6.2,0.7-12.1,4.3-18.4,2.8c-5.4-1.6-10.6-4.7-13.6-9.6
	c-5.5-8.7-6.8-19.2-7.8-29.3c-0.7-6.9,0.4-13.8-1.1-20.6c5.6-20.8,10.6-42.1,9.8-63.8c8-10.4,15.3-21.9,18.4-34.9
	c2.6-10.1,1.9-21.1-1.9-30.8c-3.5-9-9.7-16.8-17.3-22.6c1.4-4.3,3.7-8.3,5.9-12.3c17.8-30.7,45-55.9,77.2-70.8
	c5.5-2.8,11.5-4.6,16.8-7.7C230.3,172.7,241.4,171,252.6,169.7 M167.3,338.3c-13.1,2.1-23.5,11.7-30.8,22.2c-2.2,3.1-4.6,6.2-5.6,10
	l-1.3,1.1c6.2-0.7,12.9-1.1,18.5,2.3c-0.5,1.3-1.1,2.6-1.5,4c-1.3,0.4-2.3,1.3-2.9,2.6c-5.4,10.2-7,22.1-5.9,33.5
	c1.2,9.5,3.4,19.7,10.4,26.7c7.4,7.6,18.6,9.9,28.8,9.6c14.3-0.6,28.3-4.8,41-11.2c8-3.7,13-11.9,14.8-20.3
	c2.8-9.8,1.6-20.1,1.1-30.2c0.3-0.4,0.9-1.2,1.2-1.6c8.2-7.6,13.5-18.9,13.1-30.2c-0.1,0.3-0.2,0.9-0.3,1.3c-4.4,0.9-8.4,3.4-13,3.2
	c-11.6,0.2-21-7.4-30.5-12.8C193.4,341.9,180.5,336.2,167.3,338.3 M340.9,347.7c-9.6,5.3-18.6,13-30,13.5
	c-5.7,0.5-11.1-1.7-15.9-4.6c0.2,1.8-0.9,4.3,1,5.5c1.1,9.5,5.8,18.4,12.8,24.9c1.3,0.8,1.2,2.2,1.2,3.5l-0.5,1
	c-1.4,10-1.4,20.4,1.6,30.1c2.3,7.1,6.8,14,13.6,17.3c10,5,20.8,8.6,31.8,10.4c10.2,1.6,21.2,1.5,30.7-3.1
	c7.2-3.5,12.6-10.1,15.1-17.7c4.3-13.3,5-28.1,0.2-41.4c-1.2-3-2.3-6.4-4.9-8.5c-0.5-1.7-1.2-3.2-1.8-4.8c5.6-3.2,12.3-3,18.5-2.3
	l-1.3-1.1c-1.3-4.5-4.3-8.1-7-11.9c-7-9.4-16.4-17.8-28.2-20.1C365,335.9,352,341.3,340.9,347.7 M271.5,406.2
	c-5.9,10-11.3,20.3-16.4,30.8c-6.4,13.5-12.3,27.5-15.6,42.1l0.7,0.4c0.4,4.3,2.8,8.8,7.1,10.3c5,1.9,10.5,2.4,15.8,2.6
	c3.8,0.3,6.2-3.4,9.2-5.2c2.3,1.7,4.4,3.6,6.8,5c6,0.5,12.1-0.5,17.8-2.2c4.4-1.2,7.2-6,7.1-10.4l0.7-0.4c-6.3-26-18.9-50-32.1-73
	C272.2,406.1,271.8,406.1,271.5,406.2z"/>
<path class="st2" d="M308.2,619.3l0.5,0c-0.2,12.3,0.3,24.8-0.2,37.1c-3.4,3.6-7.2,6.9-10.6,10.5c-14-0.2-27.9-0.7-41.9-0.4
	c-3.8-3.5-7.4-7.2-11.1-10.8c0-7.4,0.1-14.9,0-22.3c7.4,2.1,14.9,3.8,22.2,6.3c-0.2,2.4-0.1,4.8-0.1,7.1c6.6-0.1,13.2,0.1,19.7,0.1
	c0-4.6-0.1-9.1-0.1-13.7c-10.9-3.4-22.1-6.1-33-9.6c9.8-0.4,19.6-0.2,29.4-0.1c8.4-0.1,16.7,1.2,25.2,0.9
	C308.2,622.7,308.2,621,308.2,619.3z"/>
<path class="st2" d="M200.9,625.4c8.7-0.1,17.3-1,26-1.4l0.9-0.1c2.7,2.7,5.5,5.3,8.1,8.1c-0.2,11.6-0.1,23.2-0.1,34.7
	c-7.3,0.5-14.7,0.5-22,1c0-12-0.1-24,0.1-36.1c-3.7-0.1-7.3,0.1-11,0.3C202.1,629.7,201.4,627.6,200.9,625.4z"/>
<path class="st2" d="M172,628.3c7.3-0.9,14.5-1.7,21.8-2.1c0.1,14.2-0.1,28.3-0.1,42.5c-7.3,0.5-14.6,1.1-22,1.7
	C171.9,656.4,171.8,642.3,172,628.3z"/>
<path class="st2" d="M140.9,632c7.3-1,14.6-2,21.9-2.9c0.1,10.2-0.1,20.3,0,30.5c-3.8,4.2-7.4,8.5-11.2,12.7
	c-13.9,1.5-27.8,3.2-41.6,5.3c-3.6-3.3-7.1-7-10.6-10.4c0,0,0,0-0.1-28.7c6.8-1.4,14.9-2.4,21.7-3.7c0.1,6.4,0.1,12.9,0,19.3
	c6.6-0.6,13.2-1.4,19.8-1.9C140.8,645.6,140.9,638.8,140.9,632z"/>
<path class="st2" d="M365.8,630.1c6.5-0.2,12.9,1.4,19.3,2.1c0.4-0.2,1.3-0.6,1.7-0.8l0.1-0.1c1,1.6,3.8,1.9,5.3,0.8l0.3,0.2
	c0.3,0.3,0.8,0.8,1,1.1c6.1,1.6,12.5,2.1,18.7,3.5c-3.9,12.8-7.9,25.5-12,38.2c-7-1-14-1.8-21-2.5
	C374.7,658.4,370.2,644.3,365.8,630.1z"/>
<path class="st2" d="M68.1,641.7c7.4,1.5,14.7,3.2,22,4.9c-0.1,7.1-0.1,14.2-0.1,21.4c-3.8,4.8-7.2,10.1-11.3,14.7
	c-13.7,2.6-27.4,5-41,8.2c-3.8-3.8-7.5-7.9-11.1-11.9c0.1-7.7,0-15.4,0.1-23.1c7.1-2.2,14.4-4,21.6-5.7c0.1,4.6,0,9.2,0,13.8
	c6.6-1,13.1-2,19.7-3C68.2,654.5,68.3,648.1,68.1,641.7z"/>
<path class="st2" d="M439.5,643c7,1,14.9,3.1,21.7,4.9c0,4.3,0.1,8.6,0.1,13c13.9,2.3,27.8,4.2,41.6,6.8c-0.1,8.5,0,17,0,25.5
	c-20.9-4.6-41.9-8.9-63-12.3C439.5,643,439.9,680.9,439.5,643z"/>
<path class="st5" d="M218.9,683.8c35.1-1.3,70.2-1.3,105.2,0.8c-5.5,4.7-11.4,8.9-17.4,13.1c-8,5.7-17.3,9.2-26.8,11.2
	c-12.1,2.5-24.4-1.6-35.3-6.7C235.5,697,227.2,690.4,218.9,683.8z"/>
<g id="_x23_a2a2a3ff">
	<path class="st6" d="M194.8,182.7c8.1-2.7,16.2-5.6,24.6-7c-5.3,3.2-11.3,4.9-16.8,7.7c-32.2,14.9-59.5,40.1-77.2,70.8
		c-2.2,4-4.5,7.9-5.9,12.3c0.1,1.8,1.4,3.2,2.1,4.8c4.7,9.9,8.1,20.6,8.5,31.6c0.2,6.2-1.7,12.3-4.2,17.9c-4,8.5-9.3,16.3-15.3,23.5
		c-1,1.4-2.8,2.6-2.6,4.5c-0.3,15.3-1.8,30.7-6.6,45.3c-4.4-38.5-4.7-77.5-1.6-116.1c1.1-11.3,2.2-22.8,4.5-33.9
		C127.7,215.5,160,194.9,194.8,182.7z"/>
	<path class="st6" d="M323.4,175.5c5,0.5,9.8,2.3,14.6,3.6c38.8,11.5,75.3,33.1,101.4,64.4c1.4,2.3,1.2,5.3,1.8,8
		c6.6,45.9,6.5,92.5,2.2,138.6c-0.1,1.4-0.2,2.7-0.6,4c-4.9-14.9-6.3-30.7-6.6-46.3c-8.1-10.3-16.4-20.9-20.5-33.6
		c-2.7-8.2-1.6-17.1,0.4-25.3c2-7.4,4.7-14.7,8.5-21.4c-0.1-0.2-0.3-0.6-0.4-0.9c-18.5-39.4-52.4-71.2-92.8-87.1
		C328.6,178.5,325.9,177.1,323.4,175.5z"/>
	<path class="st6" d="M167.3,338.3c13.2-2.1,26,3.6,37.1,10.2c9.5,5.5,18.9,13,30.5,12.8c4.6,0.3,8.6-2.3,13-3.2
		c-0.7,5.2-4.1,10-9.1,11.8c-7,2.8-14.8,1.8-22,0.5c-13-2.7-25.4-7.7-37.5-13.1c-4.8-2.4-10-4.2-15.4-3.5
		c-12.7,1.3-23.5,8.8-33.1,16.6c1.1-3.8,3.5-6.8,5.6-10C143.9,350,154.2,340.4,167.3,338.3z"/>
	<path class="st6" d="M340.9,347.7c11.1-6.5,24.1-11.9,37.1-9.2c11.8,2.3,21.3,10.7,28.2,20.1c2.6,3.8,5.7,7.4,7,11.9
		c-8.1-6.6-17-12.8-27.2-15.6c-5.7-1.5-11.9-1.7-17.4,0.8c-13.7,6.2-27.7,12.2-42.6,15c-7.6,1.3-16.1,2.2-23-1.8
		c-3.9-2.1-6-6.2-6.8-10.4c0,0.9-0.1,2.7-0.1,3.6c-1.9-1.2-0.8-3.7-1-5.5c4.8,2.9,10.1,5.1,15.9,4.6
		C322.3,360.7,331.4,353,340.9,347.7z"/>
	<path class="st6" d="M143.7,380.5c0.5-1.3,1.6-2.2,2.9-2.6c-4.2,14.6-5.4,31.4,2.4,45c3.7,7,11.1,11.8,19,12.1
		c12.9,0.7,25.4-3.4,37.9-5.7c6.9-1.1,13.6-4.1,18.2-9.5c7.5-8.5,9.8-20.2,9.9-31.2c0.4,10,1.6,20.3-1.1,30.2
		c-1.9,8.4-6.9,16.5-14.8,20.3c-12.8,6.4-26.7,10.6-41,11.2c-10.3,0.3-21.5-2-28.8-9.6c-7-7-9.2-17.2-10.4-26.7
		C136.6,402.5,138.3,390.7,143.7,380.5z"/>
	<path class="st6" d="M397.8,378.7c2.6,2.1,3.7,5.5,4.9,8.5c4.8,13.3,4.1,28.1-0.2,41.4c-2.5,7.6-7.9,14.2-15.1,17.7
		c-9.5,4.6-20.5,4.7-30.7,3.1c-11.1-1.8-21.8-5.4-31.8-10.4c-6.9-3.3-11.4-10.2-13.6-17.3c-3-9.7-3.1-20.1-1.6-30.1l0.5-1
		c0.4,11.9,3.8,25,13.4,32.8c6.9,5.7,16.1,6.1,24.5,8.2c10.7,2.1,21.7,5.2,32.6,2.9c7.5-1.6,13.2-7.7,16.2-14.5
		C402.7,406.9,401.5,392,397.8,378.7z"/>
	<path class="st6" d="M92.1,465c9.2-14.1,11.8-31.2,18.4-46.4c1.4,6.8,0.4,13.7,1.1,20.6c1,10.1,2.3,20.6,7.8,29.3
		c3,4.9,8.2,8,13.6,9.6c6.3,1.5,12.3-2.1,18.4-2.8c10.7-1.3,21.7,1.9,30.9,7.3c10,6,15.7,17.8,15.2,29.3c-0.3,9.8-3.1,20.1-9.7,27.6
		c1.5-11.7,2.2-24.6-4.3-35c-4.7-7.7-13.7-11.5-22.4-12.1c-16.5-1.3-32.2,7.1-43.9,18.1C104.8,498,97.4,481.5,92.1,465z"/>
	<path class="st6" d="M434.5,420.7c6.1,14.7,8.8,30.8,17.6,44.3c-5.3,16.5-12.7,33-25,45.5c-10.6-9.9-24.2-17.6-39-18.2
		c-9.8-0.3-20.7,2.6-26.5,11.1c-7.1,10.1-6.7,23.2-5.3,35c-7.9-11.3-11.1-26.4-6.4-39.6c2.6-7.6,8.4-13.8,15.5-17.5
		c11.1-5.7,24.4-8.3,36.4-4c9.8,4,21.1-1.9,25.6-11C434.3,452.1,433.4,436,434.5,420.7z"/>
	<path class="st6" d="M261.5,485.5c3.6-3.3,7-6.9,10.5-10.3c4.1,3.7,7.5,8.1,12,11.3c7.3,0.7,13.8-3.5,19.9-7
		c0.1,4.4-2.6,9.1-7.1,10.4c-5.7,1.8-11.8,2.8-17.8,2.2c-2.4-1.4-4.5-3.3-6.8-5c-3,1.8-5.3,5.5-9.2,5.2c-5.3-0.2-10.8-0.7-15.8-2.6
		c-4.3-1.5-6.7-6-7.1-10.3c4.9,3,10,6,15.7,6.9C257.8,486.5,260.1,487.1,261.5,485.5z"/>
	<path class="st6" d="M134.1,541.9c4.3-8.2,9.4-16,15.3-23.2c2.3,14.2,4.3,28.4,6.9,42.5c-6.4,0-12.8,0-19.2,0
		C136.3,554.8,134.9,548.4,134.1,541.9z"/>
	<path class="st6" d="M394.7,518.8c6.1,7,10.8,15,15.5,23c-1.1,6.5-2.2,12.9-3.1,19.5c-6.4,0-12.8,0.1-19.2,0
		C390.5,547.2,392.4,533,394.7,518.8z"/>
</g>
<g id="_x23_99162cff">
	<path class="st7" d="M36,278.8c10.1-1,20.3-0.8,30.5,0c-9.9,2.9-14.6,13.4-14.8,23c-3,41.6-2.4,83.4-2.3,125.1
		c0,10,0.4,19.9,1,29.8c0.2,7.2,4.7,13.3,10.3,17.5c-7.4-0.2-14.8-1.5-22.1-2.8c-2.3-7-3.1-14.3-3.9-21.6c-1.8-19.3-2.1-38.6-2.1-58
		C32.7,354.1,33.9,316.4,36,278.8z"/>
	<path class="st7" d="M478.6,278.7c10-0.6,20.1-1,30.2,0.1c1.6,28.3,2.7,56.7,3.1,85.1c0.6,24,0.5,48-0.7,71.9
		c-0.9,11.9-1.5,23.9-4.8,35.4c-7.5,1.5-15.1,2.8-22.7,3c3.2-2.4,6.4-5,8.2-8.6c3.3-5.7,2.6-12.4,3.1-18.7c0.9-28.3,0.5-56.7,0.4-85
		c-0.4-18-0.4-36-1.7-53.9c-0.5-7.6-0.8-15.8-5.5-22.2C485.9,282.4,482.2,280.4,478.6,278.7z"/>
	<path class="st7" d="M171.6,388.4c14.9,5.3,30.8,10,46.7,7.5c-0.5,5.6-4.1,10.6-8.9,13.6c-8.6,5.8-20.8,6.6-29.5,0.4
		C173.1,405.2,170.6,396.3,171.6,388.4z"/>
	<path class="st7" d="M324.4,395.7c15.9,2.8,31.8-2.3,46.7-7.3c0.6,7.4-1.2,15.5-7.1,20.4c-10.6,8.9-27.9,6.2-36.4-4.4
		C325.7,401.9,324.4,398.9,324.4,395.7z"/>
</g>
<path class="st1" d="M66.5,278.8c0.5-0.1,1.4-0.2,1.9-0.3c-3.5,49.5-1.8,99.3,5.6,148.3c-0.1,4.9-2.7,9.4-4.2,14
	c-2.3,6.7-7.7,11.6-11.5,17.4c0.5,5.5,3.1,10.7,4.1,16.2c-0.4,0-1.3-0.1-1.7-0.2c-5.6-4.2-10.1-10.2-10.3-17.5
	c-0.6-9.9-1-19.9-1-29.8c-0.1-41.7-0.7-83.5,2.3-125.1C51.9,292.3,56.6,281.7,66.5,278.8z"/>
<path class="st1" d="M476.2,278.9c0.6,0,1.8-0.1,2.4-0.1c3.6,1.7,7.3,3.7,9.5,7.1c4.7,6.4,5,14.6,5.5,22.2
	c1.3,17.9,1.3,35.9,1.7,53.9c0.1,28.3,0.5,56.7-0.4,85c-0.5,6.3,0.2,13-3.1,18.7c-1.8,3.6-5,6.2-8.2,8.6c-0.4,0.1-1.3,0.1-1.8,0.2
	c0.9-5.5,3.6-10.7,4-16.2c-3-4.6-7-8.5-9.7-13.3c-2.1-4.5-3.7-9.2-5.4-13.9c-1.3-3.3-0.1-6.8,0.2-10.1c6.3-45.3,8.2-91.3,5-137
	C476,282.2,476.1,280.5,476.2,278.9z"/>
<path class="st0" d="M213.7,669c7.3-0.1,14.7-0.4,22-0.7c0,1.4,0.1,2.9,0.1,4.3c-7.5,0.3-14.9,0.4-22.4,0.5
	C213.5,671.7,213.6,670.4,213.7,669z"/>
<path class="st0" d="M257,668c12.9-0.3,25.8-0.2,38.7,0.4c-1.6,1.7-3,4.4-5.7,4.1c-10-0.2-20-0.5-30-0.7
	C259,670.6,258,669.3,257,668z"/>
<path class="st0" d="M317.7,669.4c7.3,0.4,14.6,0.5,21.9,1.3c-0.1,0.9-0.1,2.6-0.2,3.5c-7.3-0.3-14.5-0.9-21.7-1.2
	C317.7,672,317.7,670.3,317.7,669.4z"/>
<path class="st0" d="M171.9,672c7.3-0.6,14.6-1.2,21.9-1.7c0,1-0.1,3.1-0.1,4.2c-7.3,0.6-14.5,1.1-21.8,1.5
	C171.8,674.7,171.9,673.3,171.9,672z"/>
<path class="st0" d="M111.4,679c13.1-1.8,26.1-3.7,39.3-4.8c-0.6,1.6-1.6,3.5-3.6,3.4c-11.3,1.4-22.6,3-33.9,4.3
	C112.6,681,112,680,111.4,679z"/>
<path class="st0" d="M379.7,674.2c6.8,0.7,13.7,1.3,20.5,2.5c-0.4,1-0.2,3.8-2.1,3.1c-5.9-1-12-1.4-17.8-2.9
	C380,676.3,379.8,674.9,379.7,674.2z"/>
<path class="st0" d="M439.2,686.5c0.1-1.4,0.2-2.8,0.4-4.1c21.2,3.6,42.4,7.6,63.3,12.5c0,0.8,0.1,2.5,0.1,3.4
	C481.7,694.9,460.5,690.2,439.2,686.5z"/>
<path class="st0" d="M38.8,692.1c13.1-2.7,26.2-5.6,39.4-7.6c-0.4,1.2-0.8,2.4-1.3,3.6c-12,2.5-24.1,4.5-36.1,7
	C40.2,694.1,39.5,693.1,38.8,692.1z"/>
</svg>
