<?xml version="1.0" encoding="utf-8"?>
<!-- Generator: Adobe Illustrator 19.0.0, SVG Export Plug-In . SVG Version: 6.00 Build 0)  -->
<svg version="1.1" id="Layer_1" xmlns="http://www.w3.org/2000/svg" xmlns:xlink="http://www.w3.org/1999/xlink" x="0px" y="0px"
	 viewBox="180.227 262.813 639.404 303.777" style="enable-background:new 180.227 262.813 639.404 303.777;" xml:space="preserve">
<style type="text/css">
	.st0{fill:url(#SVGID_1_);}
	.st1{fill:url(#SVGID_2_);}
	.st2{fill:url(#SVGID_3_);}
	.st3{fill:url(#SVGID_4_);}
	.st4{fill:url(#SVGID_5_);}
	.st5{fill:url(#SVGID_6_);}
</style>
<g id="_x23_dadbdcff">
	<linearGradient id="SVGID_1_" gradientUnits="userSpaceOnUse" x1="193.4708" y1="492.1308" x2="433.6708" y2="251.9308">
		<stop  offset="0" style="stop-color:#B4B6B9"/>
		<stop  offset="1" style="stop-color:#FBFBFB"/>
	</linearGradient>
	<path class="st0" d="M243.36,415.17c2.244-4.152,50.794-88.806,56.22-97.69c28.832-0.272,77.23-0.23,111.6-0.22
		c10.34-16.88,32.3-53.35,33.45-54.37c-58.88-0.01-117.76,0.01-176.65-0.01c-10.76,18.49-67.62,117.02-85.39,147.6
		c-0.74,1.68-2.45,3.25-2.36,5.12c29.26,50.16,58.1,100.57,87.41,150.7c1.808,0.015,3.945,0.029,6.361,0.042
		c5.185-21.728,15.723-42.153,20.153-64.645C275.193,469.798,245.317,417.779,243.36,415.17z"/>
	<linearGradient id="SVGID_2_" gradientUnits="userSpaceOnUse" x1="283.7832" y1="583.2848" x2="519.4242" y2="447.2374">
		<stop  offset="0" style="stop-color:#D5D6D8"/>
		<stop  offset="1" style="stop-color:#F1F1F2"/>
	</linearGradient>
	<path class="st1" d="M452,442.86c-13.44,22.96-26.56,46.1-40.03,69.03c-37.24-0.03-74.47,0-111.71,0
		c-1.847-3.052-3.904-6.489-6.105-10.193c-4.43,22.493-14.969,42.917-20.153,64.645c37.391,0.208,142.859,0.279,170.109-0.022
		c1.1-2.27,71.75-122.45,72.81-123.42C495.28,442.85,473.64,442.94,452,442.86z"/>
	<linearGradient id="SVGID_3_" gradientUnits="userSpaceOnUse" x1="379.8752" y1="428.7373" x2="332.2038" y2="401.2141">
		<stop  offset="0" style="stop-color:#F1F1F2"/>
		<stop  offset="0.5" style="stop-color:#EFEFF0"/>
		<stop  offset="0.6801" style="stop-color:#E8E9EA"/>
		<stop  offset="0.8085" style="stop-color:#DDDDDE"/>
		<stop  offset="0.9115" style="stop-color:#CCCDCE"/>
		<stop  offset="1" style="stop-color:#B6B8B9"/>
	</linearGradient>
	<path class="st2" d="M340.06,387.66c10.73,0.01,21.47,0.06,32.21-0.11c5.13,9.15,10.59,18.12,15.6,27.34
		c-1.761,2.587-14.53,24.603-15.81,27.25c-10.78,0.19-19.386,0.21-32.34,0.21c-2.97-5.53-13.86-23.76-15.43-27.28
		C329.43,405.87,334.81,396.8,340.06,387.66z"/>
</g>
<g id="_x23_faa541ff">
	<linearGradient id="SVGID_4_" gradientUnits="userSpaceOnUse" x1="679.3792" y1="421.7522" x2="788.4307" y2="358.7913">
		<stop  offset="0" style="stop-color:#FBBE51"/>
		<stop  offset="1" style="stop-color:#FA9B5E"/>
	</linearGradient>
	<path class="st3" d="M732.79,262.83c-0.551-0.015-25.668-0.019-50.433-0.017c6.133,27.012,22.659,55.713,33.884,82.893
		c15.703,27.272,37.501,65.03,39.729,69.384c-1.353,2.847-11.368,20.227-22.526,39.504c8.344,27.902,11.018,56.441,14.014,85.073
		c25.262-43.901,72.277-125.631,72.172-126.837C800.15,380,742.29,279.97,732.79,262.83z"/>
	<linearGradient id="SVGID_5_" gradientUnits="userSpaceOnUse" x1="723.9688" y1="566.59" x2="723.9688" y2="446.3189">
		<stop  offset="0.25" style="stop-color:#FAAE44"/>
		<stop  offset="1" style="stop-color:#F99F49"/>
	</linearGradient>
	<path class="st4" d="M700.48,511.96c3.77,7.41,25.93,45.3,31.51,54.63c1.012-1.803,7.025-12.251,15.468-26.923
		c-2.996-28.632-3.642-61.491-9.228-93.349C723.167,472.34,701.232,510.093,700.48,511.96z"/>
	<linearGradient id="SVGID_6_" gradientUnits="userSpaceOnUse" x1="483.7" y1="324.6332" x2="716.2405" y2="324.6332">
		<stop  offset="0.25" style="stop-color:#FCBC48"/>
		<stop  offset="1" style="stop-color:#F9904B"/>
	</linearGradient>
	<path class="st5" d="M682.357,262.813c-40.005,0.003-91.116,0.021-126.216,0.027c-24.2,41.68-48.27,81.921-72.44,123.611
		c9.787-0.28,47.272,0.038,64.38-0.001c13.16-23.05,26.49-46,39.82-68.96c37.4-0.1,74.8-0.14,112.21-0.01
		c0.522,1.088,7.38,13.029,16.13,28.226C709.169,318.149,694.837,290.228,682.357,262.813z"/>
</g>
</svg>
