<?xml version="1.0" encoding="utf-8"?>
<!-- Generator: Adobe Illustrator 19.0.0, SVG Export Plug-In . SVG Version: 6.00 Build 0)  -->
<svg version="1.1" id="Layer_1" xmlns="http://www.w3.org/2000/svg" xmlns:xlink="http://www.w3.org/1999/xlink" x="0px" y="0px"
	 viewBox="-140.3 277.5 284.1 288.1" style="enable-background:new -140.3 277.5 284.1 288.1;" xml:space="preserve">
<style type="text/css">
	.st0{fill:#369CCC;}
</style>
<g id="_x23_369cccff">
	<path class="st0" d="M-89.2,296.8c19.8-6.5,39.6-12.9,59.3-19.3c32,24.5,63.9,49,95.9,73.6c6.8-19.2,13.6-38.4,20.3-57.6
		c12.3,16.8,24.5,33.7,36.7,50.5c-13.4,38-26.8,76-40.3,114c20.4,0.5,40.7,1,61.1,1.6c-12.2,16.8-24.4,33.6-36.6,50.5
		c-40.3-1-80.5-2-120.8-3.1c5.7,19.6,11.6,39.1,17.4,58.6c-19.8-6.4-39.6-12.9-59.4-19.3C-67.1,507.6-78.6,469-90,430.4
		c-16.8,11.5-33.5,23.1-50.3,34.6c0.1-20.8,0-41.7,0-62.5c33.1-22.8,66.3-45.7,99.4-68.5C-57,321.6-73.1,309.2-89.2,296.8
		 M-38.9,335.4c0,19.9,0,39.8-0.1,59.7C-55.3,406.4-71.7,417.7-88,429c18.9,6.2,37.8,12.3,56.7,18.5c5.7,19.1,11.3,38.1,17,57.2
		c11.7-16.1,23.3-32.2,35-48.2c19.9,0.4,39.7,1.2,59.6,1.4c-11.7-16-23.3-32.1-35-48.1c6.5-18.8,13.3-37.5,19.8-56.3
		c-18.9,6.1-37.8,12.3-56.7,18.4C-7.3,359.6-23.2,347.6-38.9,335.4z"/>
</g>
</svg>
