<?xml version="1.0" encoding="utf-8"?>
<!-- Generator: Adobe Illustrator 21.1.0, SVG Export Plug-In . SVG Version: 6.00 Build 0)  -->
<svg version="1.1" id="Layer_1" xmlns="http://www.w3.org/2000/svg" xmlns:xlink="http://www.w3.org/1999/xlink" x="0px" y="0px"
	 viewBox="0 0 141.7 141.7" style="enable-background:new 0 0 141.7 141.7;" xml:space="preserve">
<style type="text/css">
	.st0{fill:#1D1D1B;}
</style>
<g>
	<path class="st0" d="M71.1,5.8c36,0,65.2,29.3,65.2,65.2s-29.3,65.2-65.2,65.2c-36,0-65.2-29.3-65.2-65.2S35.1,5.8,71.1,5.8
		 M71.1,0.4C32,0.4,0.4,32,0.4,71.1c0,39,31.6,70.7,70.7,70.7c39,0,70.7-31.6,70.7-70.7C141.7,32,110.1,0.4,71.1,0.4L71.1,0.4z"/>
	<g>
		<polygon class="st0" points="124.4,62.4 124.4,76.9 96.6,62.4 91.5,62.4 91.5,80.1 96.6,80.1 96.6,65.5 124.4,80.1 129.4,80.1 
			129.4,62.4 		"/>
		<path class="st0" d="M44.9,66.5c0-1.2-0.7-4.1-7.8-4.1c-6.4,0-23.5,0-23.5,0v17.8h5.6v-16h15.4c0,0,4.6,0,4.6,2.3
			c0,3.5-12.8,4-12.8,4V72L40,80.1h8.1l-15.5-8.5C44.1,70.1,44.9,67.6,44.9,66.5z"/>
		<polygon class="st0" points="67.2,77.1 58.3,67.1 52.1,67.1 64.4,80.1 67.2,80.1 70,80.1 82.4,67.1 76.1,67.1 		"/>
	</g>
</g>
</svg>
