<?xml version="1.0" encoding="utf-8"?>
<!-- Generator: Adobe Illustrator 19.0.0, SVG Export Plug-In . SVG Version: 6.00 Build 0)  -->
<svg version="1.1" id="Layer_1" xmlns="http://www.w3.org/2000/svg" xmlns:xlink="http://www.w3.org/1999/xlink" x="0px" y="0px"
	 viewBox="-147.7 308.8 197.5 228" style="enable-background:new -147.7 308.8 197.5 228;" xml:space="preserve">
<style type="text/css">
	.st0{fill:#F2F2F2;}
	.st1{fill:#FAFAFA;}
	.st2{fill:#DF5620;}
</style>
<g id="_x23_fafafaff">
	<path class="st0" d="M-137,371.7c29.3-17.1,58.7-34,88.1-51.1c29.3,17,58.6,34,87.9,51c-0.1,34.1,0,68.1,0,102.1
		c-29.3,17-58.7,34-88,51c-29.3-17.1-58.6-34-87.9-51.1C-137,439.7-136.9,405.7-137,371.7 M-97.7,382.6c1.9,6.3,6.9,11,10.2,16.7
		c1.3,2.6,5,5.2,3.7,8.3c-3.8,2.7-8.2,4.7-12.2,7.2c-3.1-2-7.3-2.8-10.6-0.6c-5.2,2.8-5.8,10.9-1.2,14.6c3,2.7,7.3,2.4,10.8,1
		c4.3,2.4,8.6,4.7,12.7,7.4c1.3,0.8,1.5,2.7,0.5,3.8c-4,6-8.1,12-12.2,17.9c-0.7,1.3-2.2,2.7-1.3,4.3c9.5-1.1,18.8-2.9,28.3-4.2
		c2.1-0.1,4.5-1.6,4.1-4c-0.1-21.4,0-42.8-0.1-64.2c0.4-2.4-1.9-3.9-4-4C-78.6,385.5-88.1,383.7-97.7,382.6 M-50.7,388.3
		c-2.3,0.1-2.6,2.8-2.6,4.6c0.1,21-0.1,42,0.1,63.1c-0.2,2.3,2.2,3.5,4.2,3.2c10.5-0.2,21,0.6,31.4-0.9c8.4-1.3,16.8-5.1,21.9-12.1
		c6.9-8.9,7.9-21,6-31.8c-1.7-9.4-8.1-17.8-16.7-21.9C-15.6,388-26,388-36,388.1C-40.9,388.3-45.8,387.9-50.7,388.3z"/>
	<path class="st1" d="M-34.7,402.3c7.7-0.4,16.3-0.4,22.8,4.5c6.7,5.3,7.9,14.8,6.4,22.6c-0.9,5.6-4.7,10.6-9.8,13
		c-5.8,2.8-12.4,2.5-18.7,2.3c-2.1,0.1-3.4-2-3.1-3.9c-0.1-11.3,0-22.7,0-34.1C-37.4,405.1-36.9,402.6-34.7,402.3z"/>
</g>
<g id="_x23_df5620ff">
	<path class="st2" d="M-61.6,314.5c4.9-2.8,10.1-7.3,16.1-5c8.1,4.6,16.1,9.4,24.1,14c4,2.4,8,4.6,12,7
		c18.4,10.7,36.7,21.4,55.1,32.1c2.9,1.6,4.1,5.1,4.1,8.3c0,34.4,0,68.7,0,103.1c0,1.9-0.7,3.8-1.1,5.7c-5.8,6.2-14,9.2-21,13.8
		c-4,2.3-7.9,4.9-12,7c-7.9,4.8-16,9.4-24,14c-3.9,2.5-8,4.6-12,7c-7.5,4.5-15.2,8.7-22.6,13.2c-3,2.1-7.2,3.1-10.6,1.2
		c-3.6-2.2-7.4-4.2-11-6.4c-4-2.4-8.1-4.6-12-7c-5.7-3.3-11.3-6.7-17-10c-8-4.7-16-9.3-24-14c-5.7-3.3-11.4-6.6-17-10
		c-3.1-1.9-6.3-3.7-9.5-5.4c-2.3-1.9-3.6-5-3.6-7.9c0-33.4,0-66.8,0-100.1c0-3.6-0.4-7.6,2.1-10.6c2.5-2.7,6-4.1,9-6.1
		c5.1-2.8,10-5.9,15.1-8.8c3.9-2.5,8-4.6,12-7c3.9-2.5,8.1-4.6,12-7c8-4.7,15.9-9.3,23.9-14C-69.6,319-65.6,316.9-61.6,314.5
		 M-137,371.7c0.2,34,0.1,68,0.1,102.1c29.3,17,58.7,34,87.9,51.1c29.3-17.1,58.7-34,88-51c0-34,0-68.1,0-102.1
		c-29.3-17-58.6-34-87.9-51C-78.3,337.7-107.7,354.6-137,371.7z"/>
	<path class="st2" d="M-97.7,382.6c9.6,1.1,19.1,2.9,28.7,4.2c2.1,0.1,4.4,1.6,4,4c0.1,21.4,0,42.8,0.1,64.2c0.4,2.4-1.9,3.9-4.1,4
		c-9.4,1.3-18.8,3.1-28.3,4.2c-0.8-1.6,0.6-3,1.3-4.3c4.1-5.9,8.2-11.9,12.2-17.9c1.1-1.1,0.9-3-0.5-3.8c-4.1-2.6-8.5-5-12.7-7.4
		c-3.5,1.3-7.9,1.7-10.8-1c-4.6-3.6-4-11.7,1.2-14.6c3.3-2.2,7.4-1.4,10.6,0.6c4-2.5,8.3-4.5,12.2-7.2c1.3-3.2-2.3-5.7-3.7-8.3
		C-90.8,393.7-95.8,388.9-97.7,382.6z"/>
	<path class="st2" d="M-50.7,388.3c4.9-0.5,9.8,0,14.7-0.2c10-0.1,20.4-0.1,29.6,4.3c8.7,4.1,15.1,12.5,16.7,21.9
		c1.8,10.8,0.9,22.9-6,31.8c-5.1,7-13.6,10.8-21.9,12.1c-10.4,1.5-20.9,0.7-31.4,0.9c-2,0.3-4.4-1-4.2-3.2c-0.1-21,0-42-0.1-63.1
		C-53.3,391.1-53,388.4-50.7,388.3 M-34.7,402.3c-2.2,0.3-2.6,2.8-2.5,4.6c0,11.4,0,22.7,0,34.1c-0.3,1.9,1,4,3.1,3.9
		c6.3,0.1,12.9,0.5,18.7-2.3c5.1-2.4,8.9-7.4,9.8-13c1.4-7.9,0.2-17.4-6.4-22.6C-18.4,402-27,401.9-34.7,402.3z"/>
</g>
</svg>
