<?xml version="1.0" encoding="utf-8"?>
<!-- Generator: Adobe Illustrator 21.0.0, SVG Export Plug-In . SVG Version: 6.00 Build 0)  -->
<svg version="1.1" id="Layer_1" xmlns="http://www.w3.org/2000/svg" xmlns:xlink="http://www.w3.org/1999/xlink" x="0px" y="0px"
	 viewBox="0 0 715.2 687.2" style="enable-background:new 0 0 715.2 687.2;" xml:space="preserve">
<style type="text/css">
	.st0{fill:#2F2F2F;stroke:#2F2F2F;stroke-width:9.375000e-02;}
	.st1{fill:#99FE00;stroke:#99FE00;stroke-width:9.375000e-02;}
	.st2{fill:#1C1C1C;stroke:#1C1C1C;stroke-width:9.375000e-02;}
	.st3{fill:#6CB400;stroke:#6CB400;stroke-width:9.375000e-02;}
	.st4{fill:#B7B7B7;stroke:#B7B7B7;stroke-width:9.375000e-02;}
	.st5{fill:#FAFAFA;stroke:#FAFAFA;stroke-width:9.375000e-02;}
	.st6{fill:#7F7F7F;stroke:#B7B7B7;stroke-width:9.375000e-02;}
	.st7{fill:#A1A1A1;stroke:#B7B7B7;stroke-width:9.375000e-02;}
</style>
<path class="st0" d="M528.4,597.2c-1.3,0-2.6-0.2-3.8-0.4c-0.8-0.1-1.5-0.3-2.2-0.3c-46.3-6.8-85-10.4-121.8-11.6
	c-48.4-1.8-95.8-0.6-140.9,3.4c-26,2.6-48.9,5.4-69.9,8.6c-2.4,0.4-5.7,0.9-8-1.6l-1.1-1.2l1.6-0.4c24.8-6,51.2-10.4,82.4-13.7
	c-27.8,0.7-57.5,3.5-92.7,8.5l-0.1,0l-0.1,0c-2.2-0.2-3.9-1.5-5.6-2.7c-0.7-0.5-1.4-1-2-1.4l-2.2-1.3l2.5-0.6
	c8.7-2,17.8-3.5,25.8-4.9c2.2-0.4,4.5-0.2,6.6,0.1c2.2,0.2,4.3,0.4,6.3,0c3-0.5,5.9-0.7,8.8-1c3.8-0.4,7.7-0.7,11.5-1.5
	c1.6-0.2,3.1-1.3,3.7-2.4c0.4-0.8,0.3-1.5-0.1-2.2c-2.4-4.3-6.2-7.6-9.9-10.9c-0.7-0.6-1.4-1.3-2.1-1.9c-0.8-0.8-1.6-1.8-2.3-2.7
	c-1.6-2-3.1-4-5.4-4.5c-5.4,0.2-10.8,0.9-16.1,1.6c-3.4,0.4-6.9,0.9-10.3,1.2c-0.4,0-0.8,0.1-1.2,0.1c-2.9,0.3-5.8,0.7-7.6,2.8
	c-1.2,1.5-0.3,3.8,1.2,5c2.2,2,4.5,3.8,6.8,5.6c2.9,2.2,5.8,4.5,8.4,7.1l1.5,1.6l-2.2,0.1c-9,0.5-18.2,1.2-28,2.2l-0.8,0.1
	c-2.2,0.2-4.6,0.3-6.7-1c-5.7-3.5-11.5-7.1-17.1-10.6c-5.9-3.7-12.1-7.6-18.2-11.3c-1.2-0.7-2.1-1.7-3-2.6l-1.4-1.4l1.8-0.4
	c44-8.7,87.8-15.5,130.3-20.2h0c27.9-2.9,58.7-5,94-6.3c23.5-1,47.1,0.2,71.1,1.6c57.3,2.8,118.1,10.7,191.2,24.9l1.7,0.3l-1.1,1.3
	c-1.6,2-3.8,3.2-5.8,4.4c-0.8,0.4-1.6,0.9-2.3,1.4c-3.2,2-6.4,4-9.7,6c-5.1,3.2-10.4,6.5-15.6,9.8c-0.5,0.3-1,0.6-1.5,1
	c-1.8,1.2-3.6,2.4-5.8,3.1l-0.2,0c-2.4,0.3-4.8,0-7.1-0.3c-0.8-0.1-1.6-0.2-2.4-0.3c-8.6-0.8-17.2-1.4-25.8-1.8l-1.8-0.1l1-1.5
	c1.3-1.8,3-3.1,4.7-4.4c2.1-1.6,4.1-3,5-5.4l0.2-0.4l0.4-0.1c3.8-1.3,7.2-3.6,9.7-6.7c0.4-0.5,0.3-0.8,0.2-1.1
	c-0.3-0.8-1.6-1.5-2.6-1.7c-5.6-1-11.3-1.6-16.8-2.2c-3.2-0.3-6.6-0.7-9.9-1.1c-4.1-0.5-9.2-0.7-13,2.1c-2.1,1.6-4.1,3.6-5.9,5.6
	c-1,1-2,2.1-3.1,3.2c-0.7,0.8-1.5,1.5-2.3,2.3c-1.8,1.7-3.5,3.3-4.7,5.3c-0.7,1.2-0.4,2.3-0.1,2.9c0.5,1.2,1.6,2.1,2.8,2.3
	c3.5,0.9,7.1,1.2,10.6,1.5c2.3,0.2,4.7,0.4,7,0.7c2.8,0.5,5.5,0.3,8.4,0.2c3.1-0.1,6.2-0.3,9.4,0.3c1.5,0.3,3,0.5,4.5,0.8
	c7.2,1.2,14.6,2.5,21.8,4.2l2.4,0.5l-2.1,1.3c-0.6,0.4-1.2,0.9-1.9,1.3c-1.9,1.4-4.1,3.1-6.8,2.7c-35.3-5.1-64.4-7.7-91.6-8.4
	c32.2,3.4,57.9,7.8,82.1,13.7l1.7,0.4l-1.3,1.3C531.9,596.8,530.2,597.2,528.4,597.2z M356.7,582c14.5,0,29.2,0.3,43.9,0.8
	c36.9,1.1,75.6,4.8,122,11.6c0.7,0.1,1.6,0.2,2.3,0.4c1.8,0.3,3.6,0.6,5.1,0.2c-26.9-6.4-55.9-10.9-93.6-14.5l-0.2-2
	c3.8-1,7.7-0.9,11.5-0.7c0.6,0,1.2,0.1,1.8,0.1c27.6,0.6,57.2,3.3,93.1,8.4c1.9,0.3,3.6-1,5.3-2.3c0.1,0,0.1-0.1,0.2-0.1
	c-6.5-1.4-13.1-2.6-19.5-3.7c-1.5-0.3-3-0.5-4.5-0.8c-2.9-0.6-5.8-0.4-8.9-0.3c-2.9,0.1-5.8,0.3-8.8-0.2c-2.3-0.3-4.6-0.5-6.9-0.7
	c-3.6-0.3-7.3-0.6-10.9-1.5c-1.8-0.3-3.4-1.7-4.2-3.5c-0.7-1.6-0.6-3.4,0.3-4.8c1.4-2.2,3.2-4,5-5.7c0.8-0.7,1.6-1.5,2.3-2.3
	c1.1-1,2.1-2.1,3.1-3.1c1.9-2,3.9-4.1,6.2-5.8c4.3-3.2,10-3,14.4-2.5c3.3,0.4,6.6,0.8,9.9,1.1c5.6,0.6,11.3,1.2,16.9,2.2
	c1.6,0.2,3.5,1.3,4.2,2.9c0.4,1,0.2,2.1-0.5,3.1c-2.6,3.2-6.2,5.7-10.2,7.2c-1.2,2.6-3.4,4.2-5.5,5.8c-1.1,0.8-2.1,1.6-3,2.4
	c7.9,0.4,15.9,1,23.8,1.7c0.8,0.1,1.6,0.2,2.4,0.3c2.3,0.3,4.4,0.5,6.5,0.3c1.8-0.6,3.5-1.7,5.2-2.8c0.5-0.3,1-0.7,1.5-1
	c5.2-3.3,10.5-6.6,15.6-9.8c3.2-2,6.4-4,9.6-6c0.8-0.5,1.6-1,2.4-1.5c1.5-0.8,2.9-1.6,4-2.7c-72.3-14-132.4-21.8-189.1-24.5
	c-24-1.4-47.5-2.5-70.9-1.5c-35.3,1.3-66,3.4-93.9,6.3l0,0c-41.8,4.6-84.9,11.3-128.2,19.8c0.4,0.4,0.9,0.8,1.4,1.1
	c6.1,3.7,12.2,7.6,18.2,11.3c5.6,3.5,11.4,7.1,17.1,10.6c1.6,1,3.6,0.8,5.5,0.7l0.8-0.1c9-0.9,17.5-1.6,25.8-2.1
	c-2.1-1.9-4.4-3.7-6.6-5.4c-2.3-1.8-4.7-3.6-6.9-5.6c-2.2-1.9-3.4-5.3-1.4-7.8c2.3-2.7,5.8-3.1,8.9-3.5c0.4,0,0.8-0.1,1.2-0.1
	c3.5-0.3,6.9-0.8,10.3-1.2c5.4-0.7,10.9-1.4,16.4-1.6l0.1,0l0.1,0c3.1,0.6,4.9,3,6.7,5.2c0.7,0.9,1.4,1.7,2.1,2.4
	c0.7,0.6,1.4,1.2,2.1,1.8c3.8,3.4,7.7,6.8,10.3,11.4c0.8,1.3,0.9,2.7,0.2,4.1c-0.9,1.8-3,3.3-5.2,3.6c-3.8,0.8-7.8,1.1-11.6,1.5
	c-2.8,0.3-5.8,0.5-8.6,1c-2.3,0.5-4.6,0.2-6.9,0c-2.1-0.2-4.1-0.4-6-0.1c-7.3,1.3-15.5,2.7-23.5,4.4c0.1,0.1,0.2,0.1,0.3,0.2
	c1.5,1.1,2.9,2.1,4.5,2.3c38.7-5.6,70.7-8.3,100.8-8.7c2.3-0.1,4.5,0.2,6.5,0.8l-0.2,1.9c-36.2,3.3-66.1,7.9-93.8,14.4
	c1.2,0.3,2.7,0.1,4.4-0.1c21-3.2,43.9-6,70-8.6C290.9,583.4,323.5,582,356.7,582z"/>
<path class="st0" d="M244.7,531.5c31.2-3.3,62.6-5.1,93.9-6.3c23.7-1,47.4,0.2,71,1.5c64.3,3.2,128,12.7,191.1,24.9
	c-2.1,2.6-5.2,3.8-8,5.6c-8.4,5.3-16.9,10.5-25.2,15.8c-2.3,1.4-4.5,3.1-7.1,3.9c-3.1,0.3-6.2-0.3-9.3-0.5
	c-8.6-0.8-17.2-1.4-25.8-1.8c2.7-3.9,8-5.3,9.8-9.9c3.9-1.3,7.5-3.8,10.2-7c1.7-2.2-1.1-4.1-3-4.4c-8.8-1.5-17.8-2.1-26.7-3.3
	c-4.6-0.5-9.8-0.6-13.7,2.3c-3.4,2.6-6.1,5.9-9.1,8.8c-2.4,2.6-5.3,4.8-7.2,7.8c-1.7,2.6,0.4,6.2,3.3,6.7c5.8,1.4,11.8,1.3,17.7,2.2
	c5.9,1,11.9-0.6,17.7,0.5c8.8,1.5,17.6,3,26.3,5c-2.5,1.5-4.9,4.4-8.1,3.9c-30.8-4.4-61.8-7.8-93-8.4c-4.3-0.1-8.8-0.6-13,0.6
	c32.3,3,64.6,7.3,96.1,15.1c-2.8,2.8-6.8,1.1-10.2,0.8c-40.4-5.9-81-10.3-121.9-11.6c-47-1.7-94.2-0.8-141.1,3.4
	c-23.4,2.3-46.7,5-69.9,8.6c-2.5,0.4-5.2,0.8-7.1-1.3c31.6-7.7,63.9-12.1,96.3-15c-2-0.6-4.1-0.8-6.1-0.8
	c-33.8,0.4-67.4,3.9-100.8,8.7c-2.8-0.2-4.9-2.6-7.2-4c8.5-1.9,17.2-3.4,25.8-4.9c4.3-0.8,8.6,1,13,0.1c6.7-1,13.6-1.1,20.3-2.5
	c2.8-0.4,6-3.2,4.2-6.2c-3-5.2-7.8-9-12.1-13c-2.6-2.6-4.4-6.6-8.3-7.4c-8.9,0.4-17.7,2-26.6,2.8c-3.3,0.4-7.1,0.6-9.5,3.3
	c-1.7,2-0.6,4.9,1.3,6.5c4.8,4.5,10.5,7.9,15.1,12.6c-9.4,0.5-18.7,1.3-28,2.2c-2.3,0.1-4.9,0.5-6.9-0.8
	c-11.8-7.2-23.4-14.7-35.2-21.9c-1.1-0.7-2-1.6-2.9-2.5C157.6,543.2,201,536.3,244.7,531.5"/>
<path class="st1" d="M316.5,1.5c14.2-1.1,28.4-1.6,42.6-1.3c-30.3,13.6-60.5,27.4-90.9,40.7c3.8-0.5,7.5-1.8,11.2-2.7
	c15.8-4.1,31.8-7.2,47.8-10.2c4.4-6.6,9.3-12.9,15.1-18.3c7.1,0,14.1,1,21.1,1.6c4.9-1.6,9.6-3.8,14.5-5.6c-0.2,1-0.5,3.1-0.7,4.1
	c8.8-1.9,17.6-3.9,26.4-5.9c-1.5,5.2-3,10.3-4.5,15.5c49.6-3.6,99.5,0.2,148.4,8.6c36.3,6.3,72.4,14.5,107.7,24.9
	c-5.4,37.6-10.9,75.2-19.4,112.2c6.6-10.3,12.2-21,17.4-32c0.8,44.3-7.3,88.2-17.9,131.1c-8,32.6-18.2,64.6-30.2,95.9
	c4,0.6,8.4,0,11.8,2.6c3.5,2.3,7.1,4.2,10.5,6.6c5,4.4,8,10.7,13.8,14.2c6.6,4.3,12.4,9.7,17.3,15.9c0.9,1.2,1,2.7,1.5,4
	c16.5,4.1,33.1,8.2,49.7,12.3c-15.1,12.9-30.2,25.7-45.3,38.6c16.9,36.1,33.9,72.2,50.8,108.4c-52.8,19.5-105.6,39.1-158.4,58.7
	c-2.7,0.9-5.4,2.6-8.3,1.8c-37-6.2-74.3-10.8-111.8-14.1c-26.4,26.1-52.9,52.2-79.2,78.3c-27.7-26-55.3-52.2-82.9-78.3
	c-35.6,2.8-71,7.6-106.1,13.6c-2,0.3-4,1-5.9,0.1c-54.2-20-108.3-40-162.5-60c16.9-36.1,33.7-72.2,50.6-108.4
	c-15.1-12.9-30.2-25.7-45.3-38.6c16.6-4.3,33.3-8.6,49.9-13c1.3-4.5,5.4-7.2,8.3-10.6c3.7-4.4,8.6-7.6,13.1-11.2
	c3.8-3.5,6.4-8.2,10.2-11.7c5-3.1,10.4-5.6,15.4-8.7c-13.8-39.3-24.6-79.7-31.3-120.9c-5.8-37-8.5-74.5-9.6-111.9
	c24.3-24.6,51.1-46.8,79.6-66.4c16.5-11,33.4-21.6,51.8-29.2c19-7.9,38.8-14.1,58.7-19.2C272.8,7.5,294.6,3.2,316.5,1.5 M256.6,21.1
	c-34.3,8.8-68.1,21-98.4,39.5c-32,19.5-61.1,43.5-87,70.5c0,43.2,5,86.4,13.2,128.8c7.2,37,17.6,73.4,31.3,108.6
	c-4.2,0.4-8.4,0.3-12.6,1.1c-3.3,1.9-6.5,4-9.6,6.3c-4.8,4.5-8.3,10.4-13.8,14.2c-5.8,3.9-10.3,9.1-15.2,13.9c0,1.9,0.1,3.8,0.1,5.8
	c-13.2,3.1-26.3,6.4-39.3,10.1c2.8,3.1,6.3,5.4,9.4,8.2c9.2,7.7,18.5,15.3,27.7,22.9c-16.4,35.3-32.9,70.6-49.2,106
	c47.5,17.6,95,35.2,142.5,52.8c3.3,1.1,6.4,2.7,9.8,3.4c37.5-6.1,75.2-11.5,113.1-14.3c25.2,25.3,51.4,49.6,79,72.2
	c26.4-22.9,51.5-47.3,75.8-72.5c38.6,2.8,77,8,115.2,14.4c1.2,0.2,2.3,0,3.4-0.4c50-18.6,100-37.1,150-55.7
	c-16.4-35.3-32.8-70.7-49.2-106c12.4-10.4,25-20.6,37.4-31c-13.1-3.8-26.3-7.1-39.6-10.2c0-1.9,0.3-3.9-0.1-5.7
	c-4.8-5.3-9.8-10.3-15.6-14.4c-6.5-4.5-9.9-12.3-16.8-16.2c-2.2-1.3-4.1-3.1-6.6-4c-6.5-0.8-13-1-19.5-1.6
	c10.2-24.7,19-50.1,26.4-75.8c11.7-40.6,20.7-82.1,25.4-124.1c-9.9,21.1-20.7,41.9-34.1,61.1c0.2-1.8,0.6-3.7,1.1-5.5
	c3.9-12.8,7.4-25.7,10.8-38.6c10.8-41.3,17.6-83.5,22.3-125.9c-35.1-10.6-71-18.3-107.3-23.8c-51-7.7-102.9-10.5-154.3-5.4
	c3-5.3,6.1-10.7,9.1-16c-8.7,3.4-17,7.5-25.1,12c1.8-2.8,3.7-5.5,5.5-8.3c-4.6,2-9.2,4.3-13.8,6.3c-0.1-1.7-0.3-3.4-0.4-5.1
	c-1.7,1.1-3.5,2.3-5.2,3.4c0-0.9,0.1-2.6,0.1-3.5c-2.1,1.7-4.3,3.3-6.4,5c0.1-1.8,0.1-3.5,0.2-5.3c-5.4,5.2-9.4,11.5-13.4,17.7
	c-1.9,0.9-4.2,1-6.2,1.4c-46.7,8.5-92.6,21.4-137,38.2c12.5-8.7,25.6-16.5,38.8-24.1c30-17.4,62-31.1,94.3-43.6
	C300.4,11.2,278.3,15.6,256.6,21.1z"/>
<path class="st2" d="M256.6,21.1c21.8-5.6,43.9-9.9,66.2-12.8c-32.3,12.5-64.3,26.2-94.3,43.6c-13.2,7.7-26.3,15.5-38.8,24.1
	c44.4-16.8,90.3-29.6,137-38.2c2.1-0.5,4.3-0.5,6.2-1.4c4-6.2,8-12.6,13.4-17.7c0,1.8-0.1,3.5-0.2,5.3c2.1-1.7,4.3-3.3,6.4-5
	c0,0.9-0.1,2.6-0.1,3.5c1.7-1.1,3.5-2.3,5.2-3.4c0.1,1.7,0.3,3.4,0.4,5.1c4.7-2,9.2-4.3,13.8-6.3c-1.8,2.8-3.7,5.5-5.5,8.3
	c8.1-4.6,16.4-8.7,25.1-12c-3.1,5.3-6.1,10.6-9.1,16c51.4-5.1,103.3-2.3,154.3,5.4C573,40.9,608.9,48.6,644,59.2
	c-4.7,42.4-11.5,84.6-22.3,125.9c-3.4,12.9-6.9,25.8-10.8,38.6c-0.5,1.8-0.9,3.6-1.1,5.5c13.4-19.1,24.2-40,34.1-61.1
	c-4.7,42-13.7,83.5-25.4,124.1c-7.5,25.7-16.3,51-26.4,75.8c6.5,0.6,13,0.9,19.5,1.6c2.4,0.9,4.4,2.7,6.6,4
	c6.9,4,10.3,11.8,16.8,16.2c5.8,4,10.8,9.1,15.6,14.4c0.4,1.9,0.1,3.8,0.1,5.7c13.3,3.1,26.5,6.4,39.6,10.2
	c-12.4,10.5-25,20.7-37.4,31c16.4,35.3,32.8,70.7,49.2,106c-50,18.6-100,37.1-150,55.7c-1.1,0.5-2.3,0.6-3.4,0.4
	c-38.2-6.4-76.6-11.6-115.2-14.4c-24.3,25.2-49.4,49.6-75.8,72.5c-27.6-22.6-53.9-47-79-72.2c-37.9,2.7-75.6,8.1-113.1,14.3
	c-3.4-0.7-6.5-2.3-9.8-3.4c-47.5-17.6-95-35.2-142.5-52.8c16.3-35.4,32.8-70.7,49.2-106c-9.2-7.7-18.5-15.3-27.7-22.9
	c-3.1-2.7-6.6-5.1-9.4-8.2c13-3.7,26.2-7,39.3-10.1c0-1.9-0.1-3.8-0.1-5.8c4.9-4.8,9.5-10.1,15.2-13.9c5.6-3.7,9-9.7,13.8-14.2
	c3.1-2.3,6.3-4.4,9.6-6.3c4.1-0.8,8.4-0.7,12.6-1.1C102,333.4,91.6,297,84.4,259.9c-8.2-42.4-13.2-85.6-13.2-128.8
	c25.9-27,55-51,87-70.5C188.5,42.1,222.3,30,256.6,21.1 M348.5,35.6c1.8-4.2,4.7-7.7,7.1-11.5c-2.1,1.5-4.1,3.1-6.2,4.6
	c0.2-1.9,0.4-3.7,0.6-5.6c-2.3,2.7-4,5.7-5.8,8.7c0-1.9,0.1-3.8,0.1-5.7c-6.1,8.8-11.8,18-15.3,28.1c-2.6,7.6-4.6,15.4-5.5,23.4
	c4.1-6.2,8-12.6,12.8-18.3c-1.4,5-3.1,10-4.6,15c9.4-13.8,21.7-25.7,36.7-33.2c-14.2,10.9-26.5,24.7-33.7,41.3
	c4.8-5.9,10-12.1,17.5-14.4c6.9-1.8,13.8,1.3,19.4,5.1c-5.7-1.9-12-3.8-17.9-1.6c-7.3,2.8-12.7,9-16.4,15.7c3.2-3,6.5-5.8,10.3-8
	c-3,4.7-5.9,9.7-7.3,15.1c3.1-2.9,6.5-6.5,11.1-6c6.3,0.5,11.9,4,16.5,8c-4-1.7-8.1-3.4-12.4-3.9c1.6,7.8,3.3,15.9,2.4,23.9
	c-0.5-6.4-1.4-12.9-4-18.8c-1-2.2-2.9-4.9-5.7-4.4c-2.6,0.8-4,3.6-4.4,6.1c-1.5,13.4,1,27,6.2,39.4c-0.2-6.9-0.6-13.8,0-20.7
	c2.4,6.2,2.8,13,5.4,19.1c3.5,8.5,6.4,17.2,7.3,26.4c6.4-11.1,8.4-23.9,10.2-36.4c0.1,5.5-1.2,11-0.5,16.4c2.5-4.5,4.6-9.3,6.1-14.3
	c0.6-1.5,0.8-3.3,2.2-4.3c0,1.2,0.1,3.5,0.1,4.7c5.3-12.3,3.5-26.3-1-38.5c5.3,4.7,8.9,11,12.1,17.2c-1.6-10-4.1-19.9-8.5-29.1
	c2.9,2,5.5,4.4,8,7c-1.8-4.6-4.1-9.1-7.4-12.8c-2.5-2.9-5.9-4.9-8.9-7.3c7.7,1.7,14.6,5.8,20.6,10.9c-0.8-4.1-2.2-8.2-5.1-11.3
	c-6.1-6.5-15.1-9.1-23.3-11.8c10.1,0.2,20,2.3,29.8,4.7c-4.1-5-9.2-9-14.8-12.3c3.2-4.3,7.4-7.7,11.7-10.9
	c-7.7,1.9-15.4,4.1-22.6,7.3c3.5-8.1,8.9-15.3,14.6-21.9c-10.4,4.5-20.9,9.1-29.9,16.1c2.7-5.5,6.5-10.3,10.3-15
	C360,25.4,354,30.2,348.5,35.6 M398.8,55.6c1.7,2.3,3.4,4.6,4.9,6.9c-4.8-0.8-9.6-1.8-14.4-2.6c2.6,3,5.2,6.1,6.9,9.8
	c1.2,2.9,1.7,6,2.6,9c20.5,1.1,38.3,12.8,55.6,22.8c10.8,6.2,23.1,9.3,35.4,10.6c19.2,2.6,38.5,5.5,57.2,10.9
	C566,128,582.9,140,595.7,155c6.2,7.1,10.9,15.3,15.4,23.5c8.4-35.1,14.4-70.7,18.5-106.5c-50.2-9.7-101-16.9-152-18.6
	C451.3,52.6,425,53.7,398.8,55.6 M282.6,75.2C268.8,81.7,256,90.3,242,96.5c-18.3,7.2-37.8,10-57,13.2c-16.5,2.7-32.6,8.1-47,16.7
	c-19.6,11.8-34.1,31.6-40.5,53.5c1.7,4.7,4.5,9.2,5.4,14.1c-2,17.7-4.2,35.4-6.2,53.1c-0.5,2,0.7,3.7,1.6,5.4
	c6.1,11.3,12,22.7,18.4,33.9c-4.1-12.9-9-25.5-13.2-38.3c0.6-11,1.9-21.9,3.2-32.9c2.6,2.8,5.8,5,9.1,6.9
	c-3.9-5.8-5.9-12.5-7.1-19.2c7.3,10.2,15.3,20,24.7,28.3c-12.6-15.6-22-33.5-29.1-52.2c12.5-27.2,37.1-49.3,66.3-56.7
	c18.1-4.9,36.6-7.8,55.1-10.3c11.5-1.1,23-4,33.3-9.4c6.8-3.8,13.4-8,20.4-11.7c12.4-6.6,25.8-12.5,40.1-12.3
	c1.1-4.6,1.9-9.3,2.9-13.9C308.9,67.2,295.3,69.8,282.6,75.2 M389.6,75.1c0.7,1.2,1.5,2.4,2.2,3.6c0.7,0,2.1-0.1,2.8-0.2
	C393,77.3,391.3,76.2,389.6,75.1 M300.5,99c-9.6,9.4-17,21.7-18.9,35.2c1.4,3,3.7,5.5,5.6,8.2c-1.4,5.3-3.1,10.5-4.6,15.7
	c3.1,7.2,5.2,14.8,5.9,22.6c2.2-2.2,5-3.9,8.2-4.1c6.8-0.2,13.1,2.4,19.5,4.3c-2.9-2.4-5.9-4.6-9.3-6.2c-4-1.8-8.4-1.6-12.6-2.3
	c7.1-2,15.2-1.7,21.6,2.4c7.5,4.2,13,12,21.7,13.8c8.4,1.6,16.4-4.1,20-11.4c3.4,5.4,8.3,10.7,15.1,11.5c7.3,1.4,13.4-3.5,18.6-7.8
	c-0.5-5.6-1.3-11.1-1.8-16.6c-5.4,3.1-10.4,6.7-15.7,10c4.7-5.1,9.7-10,15.1-14.4c-0.4-3.6-0.9-7.2-1.6-10.8c1.2,3.2,2,6.5,3,9.7
	c3.7-2.9,7.5-5.6,11.5-8.1c-2.4-5.5-3.6-11.3-4.5-17.2c3.3,7.7,8.9,14.3,16.2,18.5c-7.5,3.4-14.9,7.1-21.9,11.3
	c1.2,4.9,2.5,9.8,3.6,14.7c3.1-2.1,6.3-4.3,9.9-5.4c5.3-1.7,11.1-1.3,16.4,0.3c-4.3,0.4-8.8,0.4-12.9,2.1c-3.3,1.6-6.4,3.7-9.1,6.2
	c6.3-1.9,12.6-4.5,19.3-4.2c3.2,0.1,6,1.9,8.2,4c0.7-7.8,2.8-15.4,5.8-22.6c-1.5-5.1-3.2-10.1-4.5-15.2c1.3-3,3.7-5.5,5.5-8.2
	c-3-22-19.5-40.2-39.1-49.6c0.2,1.7,0.3,3.4,0.5,5.1c-1-0.6-3.1-1.6-4.1-2.2c2.2,8.7,4,17.7,3.5,26.8c-2.1-2.2-4.1-4.4-6.2-6.6
	c-0.2,11.1-3.6,21.8-7.4,32.1c-0.2-2.2-0.3-4.4-0.5-6.5c-5.5,11.9-11,23.9-18.6,34.6c-1.8-11-5.6-21.4-10-31.6
	c-0.2,2.5-0.3,5-0.4,7.5c-9.3-11.8-10.2-27.5-11.9-41.9c-1.2,1.6-2.4,3.1-3.6,4.7c-0.8-5.3-1-10.7-0.8-16.1c-1.5,1.5-3,3-4.5,4.5
	c-0.4-4.9-0.1-9.9,0.4-14.8C319.9,84.9,309.1,90.6,300.5,99 M213.6,157.2c1.5-6.5,3-12.9,4.5-19.4c-6,5.5-11.7,11.5-17.1,17.6
	c-11.8,13.5-21.1,29.2-27.2,46c-3.7,7.3-5.2,15.5-6.5,23.5c-2.6,16.9,0.8,35.7,13.4,48.1c16.5,17.3,41.8,21,60,35.9
	c7,5.3,13.7,11,19.9,17.2c4.5,4.8,9.2,9.5,12.4,15.3c-11.6-10.4-24.2-20.1-38.4-26.6c7.2,10.9,16.3,20.5,25.8,29.5
	c11.9,11.4,26.7,19,40.6,27.6c7.5,4.7,15.8,8.1,24.3,10.7c4.6,1.3,9.6,0.3,13.7-2c5.6-3.1,10.5-7.6,14.1-12.9
	c0.9-7.9,0.3-15.9,0.8-23.9c0.1-7.1,0.5-14.2,0.7-21.3c-1.3-0.3-2.5-0.6-3.8-0.7c-3.6-1.4-7.4-2.4-10.8-4.1
	c-5.9-3-10.7-7.7-14.6-12.9c0.4-0.6,1.1-1.8,1.5-2.4c-7.1-11.4-14.3-22.8-21.2-34.3c-0.3-5.6-0.6-11.3-2.4-16.7
	c-9.5,1.4-19.1,2.2-28.6,3.4c-1.5,0.1-3.1,0.9-4.5,0c-6.8-3.9-13.3-8.4-20.2-12c-2.4-1.4-4.6-3.2-7.2-4.2c-3.4-0.9-6.8-1.2-10.2-1.9
	c4.3-0.1,8.8-1.3,13-0.2c7.1,3.8,14.7,6.5,22,9.9c8.8-4.2,17.1-9.4,24.3-16c1.8-1.1,0.1-2.9-0.2-4.3c1.2-2.1,2.3-4.2,3.3-6.4
	c-7.9-4.2-14.8-10.3-20.3-17.5c0.8-3.4,3.3-6.3,4.4-9.7c4.3-9.5,5-20.5,1.1-30.2c-2.2-5.4,0.5-11,0.9-16.5c-1.7-2.5-3.5-5-5.3-7.6
	c1.6-10.9,5.8-21.1,11.1-30.6C260.8,121.5,237,139.2,213.6,157.2 M428.5,107.4c5.3,9.6,9.5,19.8,11.1,30.6c-1.8,2.5-3.6,5-5.3,7.6
	c0.4,5.5,3.1,11.1,0.9,16.5c-3,7.7-3.5,16.4-1,24.3c1.3,5.5,4.5,10.3,6.6,15.5c-5.5,7.1-12.4,13.3-20.4,17.5c1,2.2,2.1,4.3,3.3,6.4
	c-0.3,1.4-2,3.2-0.2,4.3c7.2,6.5,15.5,11.8,24.3,16c7.3-3.4,14.9-6.1,22-9.9c4.3-1.1,8.7,0.1,13.1,0.2c-3.4,0.7-6.9,1-10.3,1.9
	c-2.8,1.2-5.3,3.1-7.9,4.7c-6.7,3.4-12.9,7.8-19.5,11.5c-1.4,0.9-3.1,0.1-4.5,0c-9.5-1.3-19.1-2-28.7-3.4
	c-1.8,5.4-2.2,11.1-2.5,16.8c-6.9,11.5-14.1,22.9-21.1,34.3c0.5,0.9,0.9,1.8,1.4,2.6c-4.1,5-8.7,9.8-14.6,12.7
	c-2.7,1.5-5.9,2.1-8.5,3.8c-2.1,0.1-4.1,0.7-6.1,1.2c0.2,7.1,0.6,14.2,0.7,21.3c0.5,7.5,0.1,15,0.6,22.4c-0.1,1.3,0.6,2.3,1.4,3.2
	c6.3,7.5,15.4,15.5,26,13.3c9.2-2.7,18.2-6.5,26.3-11.7c11.2-7,23.1-13.1,33.3-21.6c11.9-10.2,22.9-21.6,31.7-34.6
	c-14.1,6.6-26.6,16.3-38.3,26.5c5.5-9,13.3-16.2,21-23.3c8.3-6.9,16.6-13.9,26.3-18.7c9.6-4.8,19.6-8.8,28.9-14.1
	c11-6.2,21.1-15.1,25.9-27c6.2-14.8,4.8-31.5,0.6-46.6c-1.1-3.4-1.7-7-3.7-10c-2.4-7.2-5.9-13.9-9.4-20.6
	c-8.8-16.4-21.4-30.4-34.9-43.1c1.4,6.5,3,13,4.4,19.4C478.2,139.2,454.4,121.5,428.5,107.4 M151.6,139.1
	c-16.7,8.1-28.6,23.5-37.5,39.4c23.8-16,47.5-32,71.1-48.1C173.6,131.5,162.1,134.1,151.6,139.1 M530.3,130.4
	c23.4,16.3,47.3,32.1,70.9,48.1c-6.3-11.5-14.3-22.1-24.2-30.7C564.1,136.6,546.9,132.1,530.3,130.4 M582,231.1
	c7.6-6.6,14.3-14.3,20.4-22.4c2.2-2.7,2.5-6.3,3.5-9.5c1.5-6.4,3.7-12.7,4.6-19.3C603.8,198.4,594.2,215.8,582,231.1 M296.3,204.9
	c-5.6-0.1-11.1-1.1-16.3-3.1c4.4,5.3,9.8,9.7,16.1,12.6c7.1,3.2,14.9,3.8,22.6,4.6c-6.6,2.8-13.6,4.3-20.5,5.8
	c4,9.8,8.1,19.6,12,29.4c2.5-6.1,5.3-12.1,9-17.6c5-7.6,12.5-13.3,20.3-17.8c-8.1,8-15.8,16.7-19.8,27.5c1.8,0.5,3.6,1.1,5.4,1.7
	c2.5,9.2,5.4,18.4,5.5,28c0,6.2-0.4,12.4-1.6,18.4c-0.5-2.9,0.2-6.4-1.9-8.8c-3.5-4.3-6.4-9-9.3-13.6c3.8,10.9,8.6,21.4,14.8,31.1
	c-1.2,0.7-2.4,1.4-3.5,2.1c5,5.5,10.9,10.3,18,12.7c-0.2-0.7-0.5-2.1-0.7-2.7c1.6,1.2,3.2,4.7,5.6,3.1c1.8,1.1,3.6,2.2,5.5,3.1
	c2.4-0.5,4.6-4.2,7-2.3c1.4-1.2,2.7-2.5,4-3.8c-0.2,0.7-0.5,2.1-0.7,2.8c3.9-1.8,8-3.3,11.3-6.2c2.3-2.1,4.5-4.3,6.7-6.5
	c-1.2-0.7-2.4-1.4-3.5-2.1c5.4-7.1,10.4-14.5,14.8-22.2c-6.9,6.2-13.2,13.1-21,18.1c2.2-3.7,4.6-7.2,6.4-11.1
	c-0.5,0.3-1.6,1-2.1,1.4c-0.7-2.8-1.9-5.6-3.4-8.1c-0.1,3.3,0.2,6.6,0.1,10c0.1,1-0.3,1.8-1.2,2.2c-0.8-12.3-1.1-24.9,3-36.7
	c1.9,5.4,1.8,11.2,2,16.8c2.7-7.5,4.2-15.4,4.7-23.3c0.4-0.3,1.3-0.8,1.7-1.1c0.4,2.4,0.7,4.8,1.1,7.2c1.1-2.7,1.7-5.5,2.1-8.3
	c1.6-0.5,3.2-1,4.9-1.4c-3.5-11-11.5-19.7-19.7-27.4c11.2,5.8,20.5,15.3,25.5,27c0.2,6.1-0.4,12.2-0.3,18.3
	c-1.1-4.1-1.5-8.2-2.3-12.3c-2.1,9.7-3.7,19.5-5.6,29.3c3.6-4.7,7.1-9.5,10.4-14.4c1.4-4.8,0.4-10,2.4-14.7
	c3.8-9.1,7.5-18.2,11.2-27.4c-4.7-1-9.4-2.1-14.1-3.4c0.9,7.4,1.9,14.9,2.5,22.4c-2.9-7.1-5-14.6-8.2-21.6c-1.1,2.1-2.2,4.3-3.4,6.3
	c-0.2-6.4-0.3-12.9-0.6-19.3c-6.5,1.4-13.8,2.5-19.9-0.8c-8-4-12.5-12.3-15.9-20.2c-3,7.8-7.6,15.7-15.1,19.9
	c-4.8,2.8-10.5,2.9-15.8,2.1c-14.8-2.3-27.7-11.3-37.7-22.2C290,194,292.5,199.9,296.3,204.9 M400.7,206.7c0.7,3.9,1.3,7.8,1.9,11.7
	c5.6-0.8,11.4-1.6,16.6-4c6.2-2.9,11.6-7.2,16-12.5c-5.2,2-10.7,3-16.2,3.1c3.8-5,6.2-10.9,7.5-17
	C419,195.6,410.5,202.3,400.7,206.7 M309.5,194.9c7.6,7.1,18.5,10.1,28.7,7.9C330.2,196.4,319.7,194.2,309.5,194.9 M376.9,202.8
	c10.2,2.2,21.1-0.8,28.8-7.9C395.6,194.2,385,196.4,376.9,202.8 M606.9,262.2c-9.5,27.4-19.4,54.8-27.4,82.7
	c-2.1,6.1-0.8,12.7,1.4,18.5c0.9-1.8,1.7-3.6,2.5-5.5c15.8-38.4,28.3-78.2,36.7-118.9C615.7,246.7,609.4,253.5,606.9,262.2
	 M311.4,259.8c1.1,2,2.1,4,3.1,6.1c0.7-6,1.6-12,2.8-17.9C314.9,251.7,312.7,255.5,311.4,259.8 M166.7,280.9
	c8.5,8.9,17.5,17.6,28.1,24c-2.1,8.7-4.4,17.4-6.3,26.2c-0.9,9.3-1.2,18.6-1.9,27.9c8.3-0.2,16.6-0.5,24.9-0.8
	c1.7-0.1,3.4,0.3,5,0.9c7.8,2.9,15.6,5.7,23.4,8.5c2.4,4,5.2,7.9,7,12.2c7.7-0.7,15.4-1.3,23.1-1.9c-2-10.6-11.2-17-18.7-23.7
	c-17.7-16-33.9-33.6-50.2-50.9C188.7,297.6,177.7,289.2,166.7,280.9 M516.7,302.1c-3.7,1.4-5.8,4.9-8.5,7.6
	c-14.4,15.6-29.1,30.9-44.8,45.2c-7.4,6.5-16.3,12.9-18.2,23.2c7.7,0.6,15.4,1.1,23.1,1.9c1.7-4.4,4.6-8.2,7-12.2
	c8.8-3,17.4-6.6,26.3-9.4c9-0.1,18,0.5,27,0.7c-0.7-9.3-1-18.6-1.9-27.9c-1.8-8.8-4.2-17.5-6.3-26.2c10.6-6.4,19.6-15.1,28.1-24
	C538.2,288.5,528.3,296.6,516.7,302.1 M539.6,366.2c2.7-6,5.3-12,7-18.3c-5.3,5.5-10.6,11-16.8,15.4c-7.7-0.4-15.4-0.8-23.1-1.2
	c-2.9-0.3-5.6,0.9-8.3,1.7c-6.2,2-12.3,3.9-18.5,5.8c3.1,1.5,6.4,2.7,9.6,3.8c0.5,1.9,0.8,3.9,1.1,5.8c-0.9-1.7-1.6-3.4-2.3-5.2
	c-3.5-0.8-7-1.6-10.5-2.3c-2.3,4-4.8,7.9-7.2,11.9c2.7,0.1,5.4,0.1,8.1,0.5c2,0.9,2.3,3.4,3.1,5.3c-1.1-1.2-2.1-2.5-3.1-3.9
	c-2.6-0.1-5.3-0.1-7.9,0c0,3.1-1,6.3,0.3,9.2c1.2,3.1,2.4,6.2,3.8,9.1c3.1-4.1,6-8.3,9.4-12.2c4.3-2.2,8.7-4.1,13.3-5.6
	c9,0.6,17.9,1.9,26.8,2.7c-1-2.8-2-5.5-2.9-8.3c6,6.6,11.5,13.7,17.3,20.4c3.3,3.1,9,2.3,11.6,6.4c3.5,4.7,7.4,9.2,10.8,14.1
	c4.9,8.8,9.2,17.9,14.1,26.8c1.8-3.3,4.5-6.1,5.8-9.6c1-6,1.5-12.1,2.4-18.1c-3.7,0.9-7.6,1.1-11.3,2.4c-0.3,0.6-0.9,1.8-1.2,2.5
	c-0.1-1.1-0.1-2.2-0.2-3.3c4.7-1.4,9.3-2.7,14-4.1c-4.3-5.5-8.6-11-13-16.4c-5.1,0.7-10.1,1.5-15.1,2.2c4.2-1.5,8.4-2.8,12.6-4.3
	c-1.1-2.1-2.3-4.3-3.3-6.4c4.5,3.4,7.7,8.2,11.6,12.3c2.9,3.7,7.5,5.2,11.4,7.5c2.8,1.4,4.7,4,6.7,6.4c6.8,8.4,11.5,18.2,16.5,27.7
	c1.7-2.4,4-4.4,5.4-7c1.5-4.4,2.5-9,3.8-13.5c-3.6,1.6-7.4,2.6-10.8,4.6c-0.4,2.8,0,5.7,0,8.5c-0.8-3-1.2-6-1.3-9.1
	c4.1-2.2,8.1-4.5,12.3-6.5c-0.6-6-2.8-12-7.1-16.3c-2.6-2.9-5.2-5.8-7.7-8.8c-5,0.3-10,0.8-15,0.9c3.9-1.1,7.8-2,11.8-3
	c-6.9-6.4-13.9-12.7-20.8-19.1c-4.7,0.1-9.4,1.6-14,0.3c4.8-0.9,9.6-1.6,14.4-2.4c-0.7-0.8-1.3-1.5-1.9-2.3
	c-6.5,0.7-13.1,3.7-19.6,1.5c6.7-1.2,13.4-2.5,20.1-3.7c-2.2-3.8-4.4-7.5-6-11.5c-2.6-5.2-0.6-11.1-1.2-16.7
	c-3,6-6.7,11.8-11.4,16.6c11.1-24.5,21.3-49.4,28.9-75.2C579.8,314.6,559.9,341,539.6,366.2 M152.6,359.4
	c-4.8-4.8-8.3-10.6-11.4-16.5c-0.2,4.3,0.3,8.6,0.1,12.9c-1.5,5.4-4.5,10.3-7.3,15.2c6.7,1.3,13.4,2.5,20.1,3.7
	c-6.5,2.1-13.1-0.9-19.7-1.5c-0.6,0.8-1.2,1.5-1.8,2.3c4.8,0.8,9.6,1.5,14.3,2.4c-4.6,1.3-9.3-0.2-14-0.3
	c-6.9,6.4-13.9,12.7-20.8,19.1c3.9,1,7.8,1.9,11.7,3.1c-5-0.3-10-0.8-14.9-1c-3.2,3.9-6.7,7.5-10,11.4c-2.8,3.9-4,8.7-5.1,13.3
	c4.1,2.5,8.4,4.6,12.6,7c-0.2,3-0.6,6-1.2,8.9c0-2.8,0.2-5.6-0.1-8.4c-3.4-2-7.2-3-10.8-4.6c1.1,4,2.1,7.9,3.2,11.9
	c0.8,3.6,3.9,5.8,6.1,8.6c5.4-11.3,11.4-22.7,20-31.9c3.7-3.1,8.6-4.5,12.4-7.6c4.7-4.6,8.4-10.3,13.6-14.5
	c-1.1,2.2-2.2,4.4-3.4,6.6c4.2,1.4,8.4,2.8,12.5,4.2c-5-0.6-10.1-1.4-15.1-2.1c-4.4,5.5-8.7,10.9-13,16.4c4.6,1.4,9.3,2.7,13.9,4.1
	c0,0.9,0.1,2.7,0.1,3.6c-0.3-0.7-1-2.2-1.3-2.9c-3.8-0.8-7.6-1.5-11.4-2.3c0.8,6,1.4,12.1,2.4,18.2c1.4,3.5,4,6.3,5.8,9.5
	c4.8-8.9,9.2-18,14.1-26.8c3.5-5,7.5-9.7,11.2-14.6c2.8-3.8,8.6-2.9,11.6-6.4c5.6-6.6,11.1-13.5,16.9-19.9c-0.9,2.8-1.9,5.5-2.9,8.3
	c9-0.8,17.9-2.1,26.8-2.7c3.2,0.8,6.1,2.5,9.1,3.6c1.8,0.8,3.9,1.3,5,3c2.9,3.7,5.7,7.5,8.5,11.2c1.6-3.6,3.2-7.2,4.3-11
	c0.2-2.5-0.2-5-0.3-7.5c-2.6,0-5.2,0-7.8,0.1c-1,1.3-2,2.6-3.1,3.8c0.6-1.7,1.2-3.6,2.5-4.9c2.8-0.9,5.8-0.5,8.8-0.7
	c-2.4-4-4.9-7.9-7.3-11.9c-3.5,0.7-7,1.5-10.5,2.3c-0.7,1.8-1.4,3.6-2.2,5.4c0.1-2,0.4-4,0.9-6c3.3-1.1,6.6-2.4,9.8-3.8
	c-8.3-2.4-16.4-5.4-24.7-7.5c-8.4,0.2-16.8,0.8-25.3,1.2c-6.3-4.4-11.6-9.9-16.9-15.4c1.7,6.3,4.3,12.3,7.1,18.3
	C155.3,341.3,136,315,123.8,285C131.7,310.4,141.5,335.2,152.6,359.4 M115.8,372.2c-2,0.2-4.1,0.5-6,1c-3.2-0.1-6.1,1.1-8.7,3
	c0.1,0.7,0.2,2.1,0.3,2.8c-0.8-0.4-2.3-1.3-3.1-1.7c-3.6,3.5-7,7.3-10.7,10.8c3.8-2.1,7.9-3.3,11.8-5.2c8.7-3.6,16.9-8.4,25.3-12.5
	C121.8,371.1,118.8,371.6,115.8,372.2 M590.5,370.4c6.2,3,12.2,6.4,18.4,9.3c6.1,3.1,12.6,5.3,18.7,8.4c-3.6-3.4-6.9-7.2-10.5-10.6
	c-1.3,0.4-2.6,0.9-3.9,1.4c0.3-0.7,0.8-2,1-2.7c-2.6-1.8-5.5-3.2-8.8-3c-2-0.6-4-0.8-6-1C596.5,371.6,593.4,371.1,590.5,370.4
	 M94.3,390.5c1.5,0.9,3.1,1.7,4.6,2.4c-3.4,0-6.8-0.7-10.3-0.6c-3.9,1.2-7.8,2.7-11.6,4.4c-3.4,2.6-6.2,6.1-9.4,8.9
	c3.9,1,7.8,2,11.7,3c-0.3,2.1-0.6,4.3-1.3,6.3c0-1.9,0-3.7,0.1-5.6c-3.3-0.5-6.6-1-10-1.3c0.1,3.6-0.3,7.3,0,10.9
	c0.7,2.8,2.1,5.3,3.1,8c4.1-4.6,8.6-9,12.8-13.5c2.9-3.5,8.1-3,11.6-5.5c4.4-4.6,8.3-9.7,12.9-14c6.6-6,13.3-12,20-17.9
	c-0.8-0.2-2.3-0.5-3.1-0.6C115.3,381,104.6,385.3,94.3,390.5 M586.7,376.2c6,5.2,11.9,10.7,17.9,16c5.5,4.8,10,10.6,15,15.9
	c3.5,2.5,8.7,2,11.6,5.5c4.2,4.5,8.6,8.9,12.8,13.5c0.7-1.6,1.3-3.1,2-4.7c2.2-4.4,0.8-9.5,1.1-14.2c-3.4,0.3-6.7,0.7-10.1,1.3
	c0.3,2.6,0.8,5.2,1.3,7.8c-1.2-2.8-1.9-5.7-2.4-8.6c3.9-1.1,7.8-2,11.7-3c-3.3-2.8-6-6.2-9.4-8.9c-3.8-1.6-7.7-3.2-11.6-4.4
	c-3.5-0.1-7,0.7-10.5,0.6c1.6-0.7,3.3-1.4,4.9-2c-10-5.8-21.1-9.6-31.2-15.3C589,375.7,587.4,376,586.7,376.2 M325,392.5
	c-0.5,7.6-0.9,15.3-1.4,23c29.2-0.8,58.4-0.6,87.6,0.7c-7.9,4.9-15.8,9.8-23.8,14.5c-23.9,5-48,9.1-71.7,14.9c7-1.3,14-1.8,20.9-3.3
	c71.6-12.2,144.4-18.7,217.1-16.6c-3.6-4.1-6.7-8.5-10.5-12.3c-3.6-2.9-7.1-6-10.9-8.7c-14.1-2.3-28.3-3.8-42.4-5.5
	c-3.1,2.7-6.2,5.4-9.4,8c0.6,3,1.2,5.9,1.9,8.9c-6.7,0.8-13.3,1.5-20,2.4c-1.4-7.4-2.7-14.9-4.1-22.3
	C413.9,392.6,369.4,391.4,325,392.5 M268.7,395.4c-4.5,27.8-9,55.6-13.6,83.4c-14.9,2-29.7,4.2-44.5,6.7
	c-5.1-4.1-10.3-8.2-15.4-12.2c9.5-1.9,19.2-4,27.7-8.8c7.1-4,14.1-10,15.9-18.4c2-10,4-20,6-30.1c-6.5-5.5-12.9-11.1-19.4-16.6
	c-14.1,1.6-28.4,3.2-42.4,5.5c-4.1,3.1-8.2,6.4-12,9.8c-4.9,5.6-9.5,11.4-14.3,17c14.6-2.3,29.3-4.5,44-6.4c1.4-0.3,2.6,0.3,3.9,0.8
	c-1.4,5.6-2.8,11.3-4.4,16.8c-1.4,2.2-4.1,3-6.6,3.3c-40.4,5.4-80.6,12.8-120.4,21.6c-12.5,27.1-24.9,54.2-37.4,81.4
	c37.4,13,74.7,26.5,112,39.7c-25.9-16.1-52.3-31.5-78.2-47.5c5.4-1.2,10.7-2.4,16.1-3.5c6.6-16.6,13-33.2,19.7-49.7
	c9.3-1.7,18.7-3.6,28-5.3c6.6,5.2,13.3,10.2,19.8,15.4c-8.3,2.5-16.6,4.8-24.8,7.6c29.7-5.8,59.4-11.4,89.3-16
	c50.3-8.1,101.1-13.2,152-16.2c50.9-3,101.9-4.8,152.8-5.1c-8.4,5.3-16.8,10.6-25.3,15.8c2.2,10.8,4.7,21.6,7,32.3
	c47.5,5.8,94.7,14.2,141.3,24.7c-26.3,15.9-52.5,31.8-78.9,47.6c37.6-13,75-26.8,112.6-39.8c-5.5-11.4-10.3-23.3-16.1-34.5
	c-40.5-9.7-81.3-17.7-122.5-23.9c-1.9-6.5-3.7-13-5.5-19.4c20.4,3,40.8,6.4,61.1,10.3c-3.6-9.5-7.2-19-10.7-28.5
	c-17.9-3.2-35.9-6.3-53.9-8.7c-14.5-0.8-29.1-1.2-43.6-1.6c1,4.5,2,9.1,3,13.6c-31,1.7-62,3.9-93,6.4c10.3-7,20.9-13.5,31.4-20.1
	c-21,0.4-41.9,1-62.8,2c-1,0-1.9,0.3-2.6,0.9c-11.3,7.3-22.6,14.6-33.8,22.2c-1.4,0.9-2.8,2.1-4.5,2.1c-9.4,1.1-18.8,2.2-28.2,3.4
	c2.6-26.7,5.1-53.4,7.7-80.1C293,393.7,280.9,394.6,268.7,395.4 M81.7,423.1c-3.9,2.6-7.3,5.9-11,8.7c-0.9-1.9-1.7-3.8-2.5-5.8
	c-2.3,0.4-4.7,0.9-7,1.5c7.4,6,14.9,11.9,22.2,18c4-0.8,8-1.7,12.1-2.5c-3.6-6.6-3.9-14.5-6.1-21.6
	C86.8,421.9,84.2,422.3,81.7,423.1 M625.8,421.4c-1.2,5.6-2.6,11.2-3.9,16.8c-0.3,1.7-1.2,3.3-2.1,4.8c4,0.8,8,1.7,12.1,2.5
	c7.3-6.1,14.8-12,22.2-18c-2.3-0.5-4.6-1-7-1.4c-0.8,1.9-1.7,3.8-2.5,5.8c-3.5-2.7-6.9-5.7-10.4-8.4
	C631.6,422.1,628.6,422,625.8,421.4 M586.8,426.4c-0.4,1.4,0.1,1.9,1.5,1.5C588.6,426.5,588.2,426,586.8,426.4 M116.6,438.7
	c4.6-0.8,9.2-1.8,13.8-2.5c-0.8-3.2-1.6-6.3-2.4-9.5C123.8,430.3,120.5,434.8,116.6,438.7 M584.7,435.1l0.4,1c4.5,1,9,1.7,13.5,2.6
	c-1.8-1.9-3.5-3.8-5.2-5.8C590.5,433.7,586.8,432.9,584.7,435.1 M319.4,489.2c-0.4,6.4-0.8,12.8-1.1,19.1
	c53.9-1.8,107.9,0.2,161.5,5.6c-1.4-7.8-2.8-15.6-4.3-23.3C423.5,487.4,371.4,486.5,319.4,489.2 M252.6,494.2c-1,6.1-2,12.2-3,18.4
	c14.8-1.3,29.6-2.3,44.4-3.2c0.6-6.2,1.2-12.4,1.8-18.6C281.4,491.7,267,492.9,252.6,494.2 M160.3,503.6c6.1,5.2,12.4,10,18.5,15.2
	c1.1,0.8,2.1,2.1,3.6,1.6c20.5-2.9,41-5.4,61.6-7.3c-6.5-5.4-13-10.8-19.5-16.3C203.1,498.8,181.7,501.2,160.3,503.6 M244.7,531.5
	c-43.7,4.8-87.1,11.7-130.2,20.2c0.9,0.9,1.8,1.8,2.9,2.5c11.8,7.2,23.4,14.7,35.2,21.9c2.1,1.3,4.6,0.9,6.9,0.8
	c9.3-0.9,18.7-1.7,28-2.2c-4.6-4.7-10.3-8.1-15.1-12.6c-1.8-1.5-3-4.4-1.3-6.5c2.3-2.7,6.2-2.8,9.5-3.3c8.9-0.8,17.7-2.4,26.6-2.8
	c3.9,0.8,5.7,4.8,8.3,7.4c4.4,4,9.2,7.8,12.1,13c1.8,2.9-1.4,5.8-4.2,6.2c-6.7,1.3-13.5,1.4-20.3,2.5c-4.3,0.9-8.6-0.8-13-0.1
	c-8.6,1.5-17.2,3-25.8,4.9c2.3,1.4,4.4,3.7,7.2,4c33.4-4.8,67.1-8.3,100.8-8.7c2.1-0.1,4.2,0.1,6.1,0.8c-32.4,2.9-64.6,7.4-96.3,15
	c1.8,2,4.6,1.7,7.1,1.3c23.2-3.5,46.6-6.3,69.9-8.6c46.9-4.2,94-5.2,141.1-3.4c40.8,1.3,81.5,5.7,121.9,11.6c3.4,0.3,7.4,2,10.2-0.8
	c-31.5-7.7-63.8-12-96.1-15.1c4.3-1.2,8.7-0.8,13-0.6c31.1,0.7,62.2,4,93,8.4c3.2,0.5,5.5-2.4,8.1-3.9c-8.7-2-17.5-3.4-26.3-5
	c-5.9-1.1-11.8,0.4-17.7-0.5c-5.9-0.9-11.9-0.8-17.7-2.2c-2.9-0.5-4.9-4.1-3.3-6.7c1.9-3,4.8-5.3,7.2-7.8c3.1-2.9,5.8-6.3,9.1-8.8
	c3.9-2.9,9.1-2.8,13.7-2.3c8.9,1.2,17.9,1.8,26.7,3.3c2,0.3,4.7,2.2,3,4.4c-2.6,3.2-6.2,5.6-10.2,7c-1.8,4.6-7.1,6-9.8,9.9
	c8.6,0.4,17.2,1,25.8,1.8c3.1,0.3,6.2,0.9,9.3,0.5c2.6-0.8,4.8-2.5,7.1-3.9c8.4-5.3,16.8-10.5,25.2-15.8c2.7-1.8,5.8-3,8-5.6
	c-63.1-12.2-126.9-21.8-191.1-24.9c-23.6-1.3-47.3-2.5-71-1.5C307.3,526.4,275.9,528.2,244.7,531.5 M176.6,556
	c-1.8-0.1-4.6,1.8-2.4,3.6c5,4.4,10.4,8.1,15.5,12.4c3,2.7,6.9,4.1,11,3.8c6.7-0.6,13.4-1.4,20.1-2c1.7-0.3,4.3-0.4,4.5-2.7
	c-2.7-3.7-6.3-6.7-9.3-10c-6.2,0.8-12.5,1-18.7,2.2c1.6,1.4,3.1,2.9,4.8,4.1c3.4,0.4,6.8-0.5,10.1-0.9c1,1,1.9,2,2.8,3
	c-4.4,0.5-8.9,0.9-13.3,1.5c-1.5,0-3.2,0.7-4.4-0.5c-3.9-3.3-7.9-6.4-11.7-9.9c9-1,18-2,27-3c-1.7-1.7-3.4-3.4-5-5.2
	C197.1,553.5,186.8,554.6,176.6,556 M501.2,556.7c-4.6,4.8-9.4,9.4-13.7,14.5c3.1,3.2,8.1,2.1,12.1,2.9c7,0.3,14.8,3.1,21.3-0.6
	c3.8-2.8,7.7-5.6,11-8.9c-6.1-0.8-12.3-1.4-18.4-2.1c-1.7,1.5-3.4,3.1-5.1,4.6c3.3,0.4,6.7,0.8,10,1.1c-1.1,0.9-2.1,1.9-3.1,2.8
	c-5.7-0.7-11.5-0.8-17.1-2c3.7-3.6,7.4-7.3,11.2-10.8c9,1.1,18.1,2,27.1,3.1c2.1-1.6,4.2-3.2,6.2-4.9c-10.1-1.2-20.2-2.5-30.3-3.5
	C508.4,552.5,504,553.6,501.2,556.7 M313.2,597.2c14.5,19.2,29.3,38.2,44.5,56.9c20.5-17.8,40.2-36.7,59-56.3
	C382.2,596.2,347.6,596.2,313.2,597.2z"/>
<path class="st1" d="M348.5,35.6c5.5-5.4,11.5-10.2,18.3-13.8c-3.7,4.8-7.6,9.5-10.3,15c9-7,19.5-11.6,29.9-16.1
	c-5.8,6.7-11.1,13.8-14.6,21.9c7.3-3.2,14.9-5.5,22.6-7.3c-4.3,3.1-8.4,6.6-11.7,10.9c5.6,3.2,10.7,7.3,14.8,12.3
	c-9.8-2.4-19.7-4.5-29.8-4.7c8.2,2.8,17.2,5.3,23.3,11.8c2.9,3.1,4.3,7.2,5.1,11.3c-5.9-5.2-12.8-9.3-20.6-10.9
	c3,2.4,6.3,4.4,8.9,7.3c3.3,3.7,5.6,8.2,7.4,12.8c-2.5-2.6-5.1-5-8-7c4.3,9.2,6.9,19.1,8.5,29.1c-3.2-6.3-6.8-12.5-12.1-17.2
	c4.5,12.3,6.3,26.2,1,38.5c0-1.2-0.1-3.5-0.1-4.7c-1.4,1-1.6,2.9-2.2,4.3c-1.5,4.9-3.5,9.7-6.1,14.3c-0.7-5.5,0.5-11,0.5-16.4
	c-1.8,12.5-3.9,25.3-10.2,36.4c-0.9-9.2-3.8-17.9-7.3-26.4c-2.6-6.1-3-13-5.4-19.1c-0.6,6.9-0.1,13.8,0,20.7
	c-5.2-12.3-7.7-26-6.2-39.4c0.4-2.5,1.9-5.2,4.4-6.1c2.8-0.5,4.6,2.2,5.7,4.4c2.6,5.9,3.5,12.4,4,18.8c0.9-8.1-0.8-16.1-2.4-23.9
	c4.4,0.5,8.4,2.2,12.4,3.9c-4.6-4.1-10.3-7.5-16.5-8c-4.6-0.5-8,3.1-11.1,6c1.4-5.5,4.2-10.4,7.3-15.1c-3.8,2.2-7.1,5-10.3,8
	c3.6-6.7,9.1-12.9,16.4-15.7c5.9-2.2,12.2-0.3,17.9,1.6c-5.6-3.8-12.6-6.9-19.4-5.1c-7.5,2.3-12.8,8.5-17.5,14.4
	c7.2-16.5,19.5-30.3,33.7-41.3c-14.9,7.6-27.3,19.5-36.7,33.2c1.5-5,3.2-9.9,4.6-15c-4.9,5.7-8.7,12.1-12.8,18.3
	c0.9-8,2.9-15.8,5.5-23.4c3.5-10.2,9.2-19.3,15.3-28.1c-0.1,1.9-0.1,3.8-0.1,5.7c1.8-3,3.6-6,5.8-8.7c-0.2,1.9-0.4,3.7-0.6,5.6
	c2.1-1.5,4.1-3.1,6.2-4.6C353.2,27.9,350.3,31.4,348.5,35.6 M328.1,65c1.5-1.4,2.7-3,3.6-4.9c4.1-7.6,7.5-15.8,8.9-24.4
	C335.2,44.9,330.4,54.6,328.1,65 M339,59.7c3.8-2.6,6.9-6.1,10.5-8.8c5.7-4.7,12-8.4,18-12.6C355.8,41.4,344,48.1,339,59.7
	 M360.6,96.2c0.8,5.4,2.7,10.5,3.6,15.8c2.2,10.2,2.5,20.7,1.5,31c-0.4,3.7-0.9,7.4-0.9,11.1c4.8-12.6,7.2-25.8,8.4-39.2
	c2.4,4.8,1.9,10.3,2,15.5l1.3,0.1c0.8-7.3,1.4-15-1.7-21.9C372,102.8,366.4,98.8,360.6,96.2z"/>
<path class="st3" d="M328.1,65c2.4-10.4,7.1-20.1,12.5-29.2c-1.4,8.6-4.8,16.7-8.9,24.4C330.8,61.9,329.5,63.6,328.1,65z"/>
<path class="st3" d="M339,59.7c5-11.6,16.8-18.4,28.5-21.4c-6,4.2-12.4,7.9-18,12.6C345.9,53.7,342.8,57.2,339,59.7z"/>
<path class="st4" d="M398.8,55.6c26.2-1.9,52.6-2.9,78.9-2.2c51.1,1.7,101.9,8.9,152,18.6c-4.1,35.8-10.1,71.5-18.5,106.5
	c-4.5-8.2-9.2-16.4-15.4-23.5c-12.8-15-29.7-27-48.9-32.1c-18.7-5.3-37.9-8.3-57.2-10.9c-12.3-1.2-24.6-4.4-35.4-10.6
	c-17.3-10-35-21.7-55.6-22.8c-0.9-3-1.4-6.1-2.6-9c-1.6-3.7-4.3-6.7-6.9-9.8c4.8,0.9,9.6,1.8,14.4,2.6
	C402.1,60.1,400.4,57.8,398.8,55.6z"/>
<path class="st4" d="M282.6,75.2c12.7-5.4,26.3-7.9,39.8-10.5c-1,4.6-1.9,9.3-2.9,13.9c-14.3-0.2-27.7,5.7-40.1,12.3
	c-6.9,3.7-13.5,7.9-20.4,11.7c-10.3,5.4-21.8,8.3-33.3,9.4c-18.5,2.4-37.1,5.3-55.1,10.3c-29.2,7.4-53.8,29.5-66.3,56.7
	c7,18.7,16.5,36.6,29.1,52.2c-9.4-8.3-17.4-18.1-24.7-28.3c1.2,6.8,3.3,13.5,7.1,19.2c-3.3-1.9-6.4-4.1-9.1-6.9
	c-1.3,10.9-2.6,21.9-3.2,32.9c4.2,12.8,9.1,25.4,13.2,38.3c-6.4-11.1-12.3-22.6-18.4-33.9c-0.8-1.7-2.1-3.4-1.6-5.4
	c2.1-17.7,4.2-35.4,6.2-53.1c-0.9-4.9-3.6-9.4-5.4-14.1c6.4-21.9,20.9-41.7,40.5-53.5c14.4-8.6,30.5-14,47-16.7
	c19.3-3.1,38.8-6,57-13.2C256,90.3,268.8,81.7,282.6,75.2z"/>
<path class="st4" d="M389.6,75.1c1.8,1,3.4,2.2,5.1,3.4c-0.7,0-2.1,0.1-2.8,0.2C391.1,77.5,390.3,76.3,389.6,75.1z"/>
<path class="st5" d="M300.5,99c8.6-8.4,19.4-14.1,30.5-18.5c-0.6,4.9-0.8,9.8-0.4,14.8c1.5-1.5,3-3,4.5-4.5
	c-0.2,5.4,0,10.8,0.8,16.1c1.2-1.5,2.4-3.1,3.6-4.7c1.7,14.4,2.6,30.1,11.9,41.9c0.1-2.5,0.2-5,0.4-7.5c4.4,10.2,8.2,20.6,10,31.6
	c7.6-10.8,13.1-22.7,18.6-34.6c0.2,2.2,0.3,4.4,0.5,6.5c3.8-10.3,7.2-21,7.4-32.1c2,2.2,4.1,4.4,6.2,6.6c0.5-9.1-1.3-18-3.5-26.8
	c1,0.6,3.1,1.6,4.1,2.2c-0.2-1.7-0.4-3.4-0.5-5.1c19.6,9.4,36,27.6,39.1,49.6c-1.9,2.7-4.2,5.2-5.5,8.2c1.3,5.1,3.1,10.2,4.5,15.2
	c-3.1,7.2-5.2,14.8-5.8,22.6c-2.3-2.1-5-3.9-8.2-4c-6.7-0.2-13,2.3-19.3,4.2c2.8-2.4,5.8-4.6,9.1-6.2c4.1-1.8,8.6-1.7,12.9-2.1
	c-5.3-1.5-11.1-1.9-16.4-0.3c-3.6,1.1-6.8,3.3-9.9,5.4c-1.1-4.9-2.4-9.8-3.6-14.7c7.1-4.2,14.4-7.9,21.9-11.3
	c-7.3-4.1-12.9-10.8-16.2-18.5c1,5.9,2.2,11.7,4.5,17.2c-4,2.5-7.8,5.3-11.5,8.1c-0.9-3.3-1.8-6.5-3-9.7c0.6,3.6,1.2,7.2,1.6,10.8
	c-5.4,4.4-10.4,9.3-15.1,14.4c5.3-3.3,10.3-6.9,15.7-10c0.5,5.6,1.3,11.1,1.8,16.6c-5.3,4.2-11.4,9.1-18.6,7.8
	c-6.8-0.7-11.6-6-15.1-11.5c-3.6,7.4-11.5,13-20,11.4c-8.7-1.8-14.2-9.6-21.7-13.8c-6.4-4.1-14.5-4.3-21.6-2.4
	c4.2,0.7,8.6,0.5,12.6,2.3c3.4,1.6,6.4,3.8,9.3,6.2c-6.4-1.9-12.7-4.5-19.5-4.3c-3.2,0.1-6,1.9-8.2,4.1c-0.6-7.8-2.8-15.4-5.9-22.6
	c1.5-5.2,3.3-10.4,4.6-15.7c-1.9-2.7-4.2-5.2-5.6-8.2C283.5,120.7,290.9,108.4,300.5,99 M316.9,135c-2.5,7.3-8.5,12.8-14.9,16.7
	c14,6,26.8,14.1,39.5,22.3c-8.3-8.9-17.5-17.1-27.9-23.5c2.2-5.3,3.4-11,4.7-16.6C318.3,132.4,316.9,134.4,316.9,135z"/>
<path class="st3" d="M360.6,96.2c5.8,2.7,11.4,6.7,14.2,12.6c3.1,6.8,2.5,14.6,1.7,21.9l-1.3-0.1c-0.1-5.2,0.4-10.7-2-15.5
	c-1.2,13.3-3.6,26.6-8.4,39.2c0-3.7,0.5-7.4,0.9-11.1c0.9-10.3,0.7-20.8-1.5-31C363.3,106.6,361.4,101.5,360.6,96.2z"/>
<path class="st5" d="M213.6,157.2c23.3-18.1,47.1-35.7,73.1-49.8c-5.3,9.6-9.5,19.8-11.1,30.6c1.8,2.5,3.5,5,5.3,7.6
	c-0.4,5.5-3.1,11.1-0.9,16.5c-0.6,6.7-1.8,13.3-3.6,19.8c-1.8,6.4-5.9,11.7-10.4,16.4c5.4,7.7,11.1,15.2,16.5,22.8
	c-4.5,5.3-9,10.6-13.7,15.7c-7.8-0.2-15.6-1.2-23.4-0.6c-4.3-1.1-8.7,0.1-13,0.2c3.4,0.7,6.9,1.1,10.2,1.9c2.6,1.1,4.8,2.8,7.2,4.2
	c0.6,2.3,2.7,3.5,4.4,4.9c5.2,4,10.1,8.2,15.3,12.1c9.5-0.6,19-0.9,28.5-1.5c0.2,3.4-0.7,7.2,1.4,10.2c6.5,9.8,12.9,19.7,19.3,29.6
	c-1.3,2.9-2.6,5.9-3.9,8.9c9.9,8.8,22.7,14.6,36.1,14.9c1.3,0.2,2.6,0.4,3.8,0.7c-0.2,7.1-0.7,14.2-0.7,21.3
	c-11.3,6.1-24.7,10.3-37.4,6.4c-13.2-4.1-24.5-12.4-35.5-20.6c-12.9-9.8-25.1-20.4-38.2-29.7c-13.1-9.3-28-15.2-41.8-23.2
	c-8-4.6-15.6-10.5-20.7-18.3c-7.6-11.2-10.2-25.1-9.2-38.4c0.3-6.3,1.9-12.3,2.7-18.5c6.1-16.8,15.4-32.5,27.2-46
	c5.4-6.1,11-12.1,17.1-17.6C216.7,144.3,215.1,150.8,213.6,157.2z"/>
<path class="st5" d="M428.5,107.4c26,14.1,49.8,31.8,73.1,49.8c-1.5-6.5-3-12.9-4.4-19.4c13.5,12.7,26.1,26.7,34.9,43.1
	c3.5,6.6,7,13.4,9.4,20.6c1.1,7.5,2.9,14.9,2.9,22.5c0.4,15.5-4.8,31.7-16.3,42.5c-11.9,11.1-27.4,16.8-41.4,24.6
	c-17.2,9.1-31.6,22.3-46.9,34.1c-12.4,9.6-25.2,19.6-40.2,24.7c-12.9,4.3-26.7,0-38.2-6.2c-0.1-7.1-0.5-14.2-0.7-21.3
	c2-0.5,4-1.1,6.1-1.2c12.6-0.2,24.4-6.3,33.8-14.5c-1.3-3-2.6-5.9-3.9-8.8c6.4-9.9,12.9-19.8,19.3-29.7c2.1-2.9,1.2-6.8,1.4-10.1
	c9.5,0.6,19,0.9,28.4,1.5c6.8-5.4,13.7-10.7,20.2-16.4l-1.3-0.2c2.6-1.6,5.1-3.5,7.9-4.7c3.4-0.9,6.8-1.2,10.3-1.9
	c-4.3-0.2-8.8-1.3-13.1-0.2c-7.8-0.7-15.5,0.3-23.3,0.6c-4.7-5.1-9.2-10.4-13.8-15.8c5.5-7.6,11.1-15.1,16.5-22.8
	c-4.5-4.7-8.6-10.1-10.4-16.4c-1.8-6.4-3-13.1-3.6-19.8c2.2-5.4-0.5-11-0.9-16.5c1.7-2.6,3.5-5.1,5.3-7.6
	C437.9,127.2,433.7,117,428.5,107.4z"/>
<path class="st5" d="M151.6,139.1c10.5-5,22.1-7.6,33.6-8.8c-23.7,16.1-47.4,32.1-71.1,48.1C123,162.5,134.9,147.2,151.6,139.1z"/>
<path class="st5" d="M530.3,130.4c16.6,1.8,33.8,6.3,46.6,17.4c10,8.6,17.9,19.2,24.2,30.7C577.6,162.4,553.7,146.7,530.3,130.4z"/>
<path class="st2" d="M316.9,135c0-0.6,1.4-2.6,1.5-1c-1.4,5.6-2.5,11.2-4.7,16.6c10.4,6.4,19.6,14.6,27.9,23.5
	c-12.7-8.2-25.6-16.3-39.5-22.3C308.4,147.8,314.4,142.3,316.9,135z"/>
<path class="st4" d="M280,162.1c3.9,9.7,3.2,20.8-1.1,30.2c-1.1,3.4-3.6,6.3-4.4,9.7c5.5,7.1,12.3,13.2,20.3,17.5
	c-1,2.2-2.1,4.3-3.3,6.4c0.3,1.4,2,3.2,0.2,4.3c-7.2,6.5-15.5,11.8-24.3,16c-7.3-3.4-14.9-6.1-22-9.9c7.8-0.7,15.6,0.3,23.4,0.6
	c4.7-5.1,9.2-10.4,13.7-15.7c-5.5-7.6-11.1-15.2-16.5-22.8c4.5-4.7,8.6-10.1,10.4-16.4C278.2,175.4,279.4,168.8,280,162.1z"/>
<path class="st4" d="M434.2,186.4c-2.5-7.9-2-16.6,1-24.3c0.6,6.7,1.8,13.3,3.6,19.8c1.8,6.4,5.9,11.7,10.4,16.4
	c-5.4,7.7-11,15.2-16.5,22.8c4.5,5.3,9,10.6,13.8,15.8c7.8-0.3,15.5-1.2,23.3-0.6c-7.1,3.8-14.7,6.5-22,9.9
	c-8.8-4.2-17.1-9.4-24.3-16c-1.8-1.1-0.1-2.9,0.2-4.3c-1.2-2.1-2.3-4.2-3.3-6.4c8-4.2,14.9-10.4,20.4-17.5
	C438.7,196.7,435.5,191.9,434.2,186.4z"/>
<path class="st4" d="M582,231.1c12.3-15.3,21.8-32.7,28.5-51.2c-1,6.6-3.1,12.9-4.6,19.3c-1,3.2-1.3,6.8-3.5,9.5
	C596.3,216.8,589.6,224.5,582,231.1z"/>
<path class="st5" d="M296.3,204.9c-3.8-5-6.3-10.9-7.4-17.1c10,10.8,22.9,19.9,37.7,22.2c5.3,0.8,11.1,0.8,15.8-2.1
	c7.5-4.2,12.1-12.1,15.1-19.9c3.4,7.9,7.9,16.2,15.9,20.2c6.2,3.3,13.4,2.2,19.9,0.8c0.3,6.4,0.4,12.9,0.6,19.3
	c1.2-2.1,2.3-4.2,3.4-6.3c3.1,7,5.3,14.5,8.2,21.6c-0.6-7.5-1.6-14.9-2.5-22.4c4.6,1.3,9.3,2.4,14.1,3.4
	c-3.7,9.1-7.5,18.3-11.2,27.4c-2,4.6-1,9.9-2.4,14.7c-3.3,4.9-6.8,9.7-10.4,14.4c1.9-9.8,3.5-19.6,5.6-29.3
	c0.8,4.1,1.3,8.3,2.3,12.3c-0.1-6.1,0.5-12.2,0.3-18.3c-5-11.6-14.3-21.2-25.5-27c8.2,7.7,16.2,16.4,19.7,27.4
	c-1.6,0.5-3.3,0.9-4.9,1.4c-0.4,2.9-1,5.7-2.1,8.3c-0.4-2.4-0.7-4.8-1.1-7.2c-0.4,0.3-1.3,0.8-1.7,1.1c-0.5,7.9-2,15.8-4.7,23.3
	c-0.2-5.6-0.1-11.4-2-16.8c-4,11.8-3.8,24.4-3,36.7c1-0.4,1.4-1.2,1.2-2.2c0.1-3.3-0.2-6.6-0.1-10c1.5,2.5,2.6,5.2,3.4,8.1
	c0.5-0.3,1.6-1,2.1-1.4c-1.8,3.9-4.2,7.5-6.4,11.1c7.9-5,14.1-12,21-18.1c-4.5,7.7-9.4,15.2-14.8,22.2c1.2,0.7,2.4,1.4,3.5,2.1
	c-2.2,2.2-4.4,4.4-6.7,6.5c-3.3,2.9-7.4,4.4-11.3,6.2c0.2-0.7,0.5-2.1,0.7-2.8c-1.3,1.3-2.6,2.6-4,3.8c-2.4-1.9-4.6,1.8-7,2.3
	c-1.9-0.9-3.7-1.9-5.5-3.1c-2.4,1.6-3.9-1.9-5.6-3.1c0.2,0.7,0.5,2.1,0.7,2.7c-7.1-2.4-13-7.1-18-12.7c1.2-0.7,2.3-1.4,3.5-2.1
	c-6.3-9.7-11.1-20.2-14.8-31.1c2.9,4.7,5.8,9.3,9.3,13.6c2.1,2.4,1.4,5.9,1.9,8.8c1.3-6,1.7-12.2,1.6-18.4c-0.1-9.6-3-18.8-5.5-28
	c-1.8-0.6-3.6-1.2-5.4-1.7c4-10.8,11.7-19.6,19.8-27.5c-7.9,4.5-15.3,10.1-20.3,17.8c-3.8,5.4-6.6,11.5-9,17.6
	c-3.9-9.9-8-19.6-12-29.4c7-1.5,14-3.1,20.5-5.8c-7.6-0.8-15.5-1.4-22.6-4.6c-6.2-2.9-11.7-7.3-16.1-12.6
	C285.3,203.8,290.8,204.8,296.3,204.9 M337.4,225.1c8.9-4.1,16.9-12.2,18.2-22.3C351,211.3,344.5,218.5,337.4,225.1 M359.6,203
	c1.4,10,9.3,18,18.2,22.1C370.8,218.5,364.3,211.4,359.6,203 M355.5,215c-4.5,10.7-14.6,18.1-17.6,29.5c2.9-1.9,6.1-3.3,8.8-5.4
	c2.2-4.5,4-9.1,6.7-13.3c-1.4,3.8-2.8,7.6-3.3,11.6c2.5-1,5-2.1,7.5-3.2c2.5,1.1,5,2.2,7.5,3.2c-0.6-4-1.9-7.8-3.3-11.6
	c2.8,4.1,4.5,8.8,6.7,13.2c2.6,2,5.7,3.5,8.6,5.1c-1.8-6.9-6.3-12.7-10.6-18.2c-3.8-4.7-6.5-10.2-8.8-15.7
	C356.8,211.8,356.2,213.4,355.5,215 M366.1,243.7c0.1,2.7,0.2,5.5,0.1,8.2c-2.8-0.8-3.3,2.4-4.5,4.1c0-1.6-0.1-3.1-0.1-4.7
	c-2.6-0.5-5.3-0.6-8-0.2c0,1.6-0.1,3.3-0.1,4.9c-2.1-3.2-3.6-6.7-4.6-10.4c-0.1,2-0.3,4-0.4,6c-2.4,1.4-1,4.5-1.3,6.7
	c-1-1.7-2-3.4-2.9-5.2c-1.2,0.4-2.4,0.7-3.6,1.1c-0.4,2.4-0.6,4.8-0.9,7.2c-1.5-2-1.8-5.3-4.5-6.2c0.3-3.1,1-6,1.9-8.9
	c-1.1,2-2.3,4.1-2.9,6.4c-2.8,10.8-2,22.3,1.4,32.8c1.2-2.2,2.4-4.4,3.6-6.6c-0.3,5-0.5,10,0.1,15c0.5,0.5,1.4,1.4,1.9,1.9
	c0.6-1.7,1.2-3.3,1.9-4.9c1,3-0.1,7.6,3.9,8.5c0.3-1.4,0.7-2.9,1.1-4.3c0.4,1.8,0.7,3.7,1.1,5.6c0.6,0.3,1.9,1,2.5,1.4
	c0.3-0.9,0.7-1.8,1-2.6c-0.1,3,2.4,3.9,4.8,4.4c2.5-0.6,5-1.4,4.8-4.4c0.3,0.9,0.7,1.8,1,2.6c0.9-0.5,2.8-1.4,3.7-1.9
	c-0.1,2.5-0.3,5.1-0.3,7.6c3-9.5,4.9-19.5,5.5-29.5C372.4,266.3,369.7,254.8,366.1,243.7z"/>
<path class="st5" d="M400.7,206.7c9.8-4.4,18.3-11.1,25.6-18.8c-1.2,6.1-3.7,12-7.5,17c5.5-0.1,11-1.1,16.2-3.1
	c-4.3,5.3-9.8,9.7-16,12.5c-5.2,2.4-10.9,3.2-16.6,4C402,214.4,401.5,210.5,400.7,206.7z"/>
<path class="st1" d="M309.5,194.9c10.1-0.7,20.7,1.5,28.7,7.9C328.1,205,317.2,202,309.5,194.9z"/>
<path class="st1" d="M376.9,202.8c8.1-6.4,18.7-8.6,28.8-7.9C398,202,387.1,205,376.9,202.8z"/>
<path class="st4" d="M167.3,224.9c1.3-8,2.8-16.3,6.5-23.5c-0.9,6.2-2.4,12.3-2.7,18.5c-0.9,13.3,1.6,27.2,9.2,38.4
	c5.1,7.8,12.7,13.7,20.7,18.3c13.8,8,28.8,13.9,41.8,23.2c13.2,9.3,25.4,19.9,38.2,29.7c10.9,8.2,22.3,16.5,35.5,20.6
	c12.7,3.9,26.1-0.4,37.4-6.4c-0.6,7.9,0.1,16-0.8,23.9c-3.6,5.3-8.5,9.8-14.1,12.9c-4.1,2.3-9.1,3.4-13.7,2
	c-8.4-2.6-16.7-6-24.3-10.7c-13.9-8.6-28.7-16.2-40.6-27.6c-9.5-9-18.6-18.5-25.8-29.5c14.2,6.5,26.7,16.2,38.4,26.6
	c-3.2-5.8-7.9-10.6-12.4-15.3c-6.2-6.2-12.9-11.9-19.9-17.2c-18.2-14.9-43.5-18.6-60-35.9C168.1,260.7,164.7,241.8,167.3,224.9z"/>
<path class="st4" d="M541.4,201.5c2,3,2.6,6.6,3.7,10c4.1,15.1,5.5,31.8-0.6,46.6c-4.8,11.9-14.9,20.8-25.9,27
	c-9.3,5.4-19.3,9.3-28.9,14.1c-9.7,4.8-18,11.8-26.3,18.7c-7.7,7.1-15.6,14.3-21,23.3c11.7-10.2,24.2-19.9,38.3-26.5
	c-8.7,13.1-19.8,24.4-31.7,34.6c-10.2,8.5-22.1,14.6-33.3,21.6c-8.1,5.2-17.1,9-26.3,11.7c-10.6,2.1-19.7-5.8-26-13.3
	c-0.8-0.9-1.5-2-1.4-3.2c-0.5-7.5-0.1-15-0.6-22.4c11.5,6.2,25.3,10.4,38.2,6.2c15.1-5.1,27.8-15.1,40.2-24.7
	c15.3-11.8,29.7-25,46.9-34.1c14-7.8,29.5-13.5,41.4-24.6c11.5-10.8,16.7-27,16.3-42.5C544.4,216.4,542.5,209,541.4,201.5z"/>
<path class="st2" d="M337.4,225.1c7-6.6,13.6-13.8,18.2-22.3C354.4,212.9,346.4,221,337.4,225.1z"/>
<path class="st2" d="M359.6,203c4.7,8.4,11.2,15.6,18.2,22.1C368.9,221,360.9,213,359.6,203z"/>
<path class="st2" d="M355.5,215c0.7-1.6,1.4-3.1,2.2-4.7c2.3,5.6,5,11,8.8,15.7c4.4,5.5,8.8,11.2,10.6,18.2
	c-2.9-1.6-5.9-3.1-8.6-5.1c-2.2-4.4-3.9-9.1-6.7-13.2c1.4,3.8,2.8,7.6,3.3,11.6c-2.5-1-5-2.1-7.5-3.2c-2.5,1.1-5,2.2-7.5,3.2
	c0.6-4,1.9-7.9,3.3-11.6c-2.8,4.2-4.5,8.8-6.7,13.3c-2.7,2.1-5.9,3.5-8.8,5.4C340.9,233.1,351,225.7,355.5,215z"/>
<path class="st4" d="M606.9,262.2c2.5-8.7,8.8-15.5,13.3-23.2c-8.4,40.7-20.9,80.5-36.7,118.9c-0.8,1.9-1.6,3.7-2.5,5.5
	c-2.2-5.9-3.5-12.4-1.4-18.5C587.5,317,597.4,289.7,606.9,262.2z"/>
<path class="st4" d="M254.1,247.5c-1.7-1.4-3.8-2.6-4.4-4.9c7,3.6,13.4,8.1,20.2,12c1.4,0.9,3,0.1,4.5,0c9.5-1.2,19.1-2,28.6-3.4
	c1.8,5.4,2.2,11.1,2.4,16.7c6.9,11.5,14.1,22.9,21.2,34.3c-0.4,0.6-1.1,1.8-1.5,2.4c4,5.2,8.8,9.9,14.6,12.9
	c3.4,1.8,7.2,2.8,10.8,4.1c-13.4-0.3-26.2-6.1-36.1-14.9c1.3-3,2.6-5.9,3.9-8.9c-6.4-9.9-12.8-19.8-19.3-29.6
	c-2.1-3-1.2-6.8-1.4-10.2c-9.5,0.6-19,0.9-28.5,1.5C264.3,255.7,259.3,251.5,254.1,247.5z"/>
<path class="st4" d="M445.2,254.6c6.6-3.7,12.8-8.2,19.5-11.5l1.3,0.2c-6.5,5.7-13.4,11-20.2,16.4c-9.5-0.6-19-0.9-28.4-1.5
	c-0.3,3.4,0.7,7.2-1.4,10.1c-6.5,9.9-13,19.7-19.3,29.7c1.3,2.9,2.6,5.9,3.9,8.8c-9.4,8.1-21.2,14.3-33.8,14.5
	c2.6-1.7,5.8-2.3,8.5-3.8c5.9-2.9,10.5-7.7,14.6-12.7c-0.5-0.9-0.9-1.8-1.4-2.6c7.1-11.4,14.3-22.7,21.1-34.3
	c0.3-5.6,0.6-11.4,2.5-16.8c9.5,1.4,19.1,2.2,28.7,3.4C442.1,254.7,443.8,255.5,445.2,254.6z"/>
<path class="st2" d="M366.1,243.7c3.6,11.1,6.3,22.6,6.2,34.3c-0.6,10-2.5,19.9-5.5,29.5c0-2.5,0.1-5.1,0.3-7.6
	c-0.9,0.5-2.8,1.4-3.7,1.9c-0.3-0.9-0.7-1.8-1-2.6c0.1,3-2.3,3.9-4.8,4.4c-2.5-0.5-5-1.4-4.8-4.4c-0.3,0.9-0.7,1.8-1,2.6
	c-0.6-0.3-1.9-1-2.5-1.4c-0.4-1.9-0.7-3.7-1.1-5.6c-0.4,1.4-0.7,2.9-1.1,4.3c-4-0.9-2.9-5.5-3.9-8.5c-0.7,1.6-1.3,3.3-1.9,4.9
	c-0.5-0.5-1.4-1.4-1.9-1.9c-0.6-5-0.5-10-0.1-15c-1.3,2.2-2.4,4.4-3.6,6.6c-3.5-10.5-4.2-22-1.4-32.8c0.6-2.3,1.8-4.3,2.9-6.4
	c-0.9,2.9-1.6,5.9-1.9,8.9c2.6,0.9,2.9,4.2,4.5,6.2c0.3-2.4,0.5-4.8,0.9-7.2c1.2-0.4,2.4-0.7,3.6-1.1c0.9,1.7,1.9,3.4,2.9,5.2
	c0.4-2.2-1-5.3,1.3-6.7c0.2-2,0.3-4,0.4-6c1,3.7,2.5,7.2,4.6,10.4c0-1.6,0.1-3.3,0.1-4.9c2.6-0.4,5.3-0.3,8,0.2
	c0,1.6,0.1,3.1,0.1,4.7c1.2-1.7,1.8-4.9,4.5-4.1C366.3,249.2,366.2,246.4,366.1,243.7z"/>
<path class="st5" d="M311.4,259.8c1.3-4.3,3.5-8.1,6-11.8c-1.2,5.9-2.1,11.9-2.8,17.9C313.5,263.8,312.5,261.8,311.4,259.8z"/>
<path class="st4" d="M166.7,280.9c10.9,8.3,21.9,16.7,34.4,22.6c16.3,17.3,32.5,34.9,50.2,50.9c7.5,6.7,16.7,13.1,18.7,23.7
	c-7.7,0.6-15.4,1.1-23.1,1.9c-1.7-4.4-4.6-8.2-7-12.2c-7.8-2.8-15.6-5.7-23.4-8.5c-1.6-0.6-3.3-1.1-5-0.9
	c-8.3,0.3-16.6,0.5-24.9,0.8c0.7-9.3,1-18.6,1.9-27.9c1.8-8.8,4.2-17.4,6.3-26.2C184.2,298.5,175.2,289.8,166.7,280.9z"/>
<path class="st4" d="M516.7,302.1c11.6-5.4,21.6-13.6,31.8-21.2c-8.5,8.9-17.5,17.6-28.1,24c2.1,8.8,4.5,17.4,6.3,26.2
	c0.8,9.3,1.2,18.6,1.9,27.9c-9-0.2-18-0.8-27-0.7c-8.9,2.8-17.5,6.4-26.3,9.4c-2.4,4-5.2,7.8-7,12.2c-7.7-0.7-15.4-1.3-23.1-1.9
	c1.9-10.3,10.8-16.7,18.2-23.2c15.7-14.3,30.4-29.6,44.8-45.2C510.8,306.9,513,303.5,516.7,302.1z"/>
<path class="st4" d="M539.6,366.2c20.4-25.2,40.2-51.6,51.9-82c-7.5,25.8-17.8,50.8-28.9,75.2c4.8-4.8,8.4-10.6,11.4-16.6
	c0.6,5.5-1.5,11.5,1.2,16.7c1.7,4,3.8,7.8,6,11.5c-6.7,1.2-13.4,2.5-20.1,3.7c6.5,2.2,13.1-0.9,19.6-1.5c0.6,0.8,1.3,1.5,1.9,2.3
	c-4.8,0.8-9.6,1.5-14.4,2.4c4.6,1.3,9.3-0.2,14-0.3c6.9,6.4,13.9,12.7,20.8,19.1c-3.9,1-7.9,2-11.8,3c5-0.2,10-0.7,15-0.9
	c2.5,3,5.1,5.9,7.7,8.8c4.3,4.3,6.5,10.4,7.1,16.3c-4.2,2-8.2,4.3-12.3,6.5c0.1,3.1,0.6,6.1,1.3,9.1c-0.1-2.8-0.4-5.7,0-8.5
	c3.4-2,7.2-3,10.8-4.6c-1.3,4.5-2.3,9.1-3.8,13.5c-1.3,2.6-3.7,4.6-5.4,7c-5-9.5-9.7-19.3-16.5-27.7c-1.9-2.4-3.8-5-6.7-6.4
	c-3.9-2.4-8.5-3.8-11.4-7.5c-3.9-4.1-7.1-8.9-11.6-12.3c1,2.2,2.2,4.3,3.3,6.4c-4.2,1.4-8.4,2.8-12.6,4.3c5-0.7,10.1-1.5,15.1-2.2
	c4.3,5.5,8.7,10.9,13,16.4c-4.7,1.4-9.3,2.7-14,4.1c0.1,1.1,0.1,2.2,0.2,3.3c0.3-0.6,0.9-1.9,1.2-2.5c3.6-1.2,7.5-1.5,11.3-2.4
	c-0.8,6-1.4,12.1-2.4,18.1c-1.3,3.5-4,6.3-5.8,9.6c-4.9-8.8-9.2-17.9-14.1-26.8c-3.4-4.8-7.3-9.3-10.8-14.1
	c-2.5-4.1-8.3-3.4-11.6-6.4c-5.8-6.8-11.4-13.8-17.3-20.4c0.9,2.8,1.9,5.5,2.9,8.3c-8.9-0.8-17.8-2.1-26.8-2.7
	c-4.5,1.5-9,3.4-13.3,5.6c-3.3,3.9-6.3,8.1-9.4,12.2c-1.4-3-2.7-6-3.8-9.1c-1.3-2.9-0.3-6.2-0.3-9.2c2.6-0.1,5.3-0.1,7.9,0
	c1,1.3,2,2.6,3.1,3.9c-0.8-1.8-1.2-4.3-3.1-5.3c-2.7-0.4-5.4-0.3-8.1-0.5c2.4-4,4.9-7.9,7.2-11.9c3.5,0.7,7,1.4,10.5,2.3
	c0.7,1.8,1.5,3.5,2.3,5.2c-0.3-2-0.6-3.9-1.1-5.8c-3.3-1.1-6.5-2.3-9.6-3.8c6.2-1.9,12.4-3.8,18.5-5.8c2.7-0.8,5.4-2,8.3-1.7
	c7.7,0.4,15.4,0.8,23.1,1.2c6.2-4.4,11.6-9.9,16.8-15.4C544.9,354.2,542.3,360.2,539.6,366.2z"/>
<path class="st4" d="M152.6,359.4c-11.1-24.2-20.9-49-28.8-74.4c12.2,30,31.5,56.3,51.8,81.2c-2.7-6-5.3-12-7.1-18.3
	c5.3,5.5,10.6,11,16.9,15.4c8.4-0.4,16.8-1,25.3-1.2c8.4,2.1,16.5,5.1,24.7,7.5c-3.2,1.4-6.5,2.7-9.8,3.8c-0.5,2-0.8,3.9-0.9,6
	c0.8-1.8,1.5-3.6,2.2-5.4c3.5-0.8,7-1.5,10.5-2.3c2.4,4,4.9,7.9,7.3,11.9c-2.9,0.2-5.9-0.1-8.8,0.7c-1.3,1.4-1.9,3.2-2.5,4.9
	c1.1-1.2,2.1-2.5,3.1-3.8c2.6-0.1,5.2-0.1,7.8-0.1c0.1,2.5,0.5,5,0.3,7.5c-1.1,3.8-2.8,7.4-4.3,11c-2.8-3.8-5.6-7.5-8.5-11.2
	c-1.2-1.7-3.3-2.2-5-3c-3.1-1.1-5.9-2.8-9.1-3.6c-9,0.6-17.9,1.9-26.8,2.7c1-2.8,2-5.5,2.9-8.3c-5.8,6.5-11.2,13.3-16.9,19.9
	c-3,3.6-8.8,2.6-11.6,6.4c-3.7,4.9-7.7,9.6-11.2,14.6c-4.9,8.8-9.3,17.9-14.1,26.8c-1.9-3.2-4.5-6.1-5.8-9.5c-1-6-1.5-12.1-2.4-18.2
	c3.8,0.7,7.6,1.4,11.4,2.3c0.3,0.7,1,2.2,1.3,2.9c0-0.9-0.1-2.7-0.1-3.6c-4.6-1.4-9.3-2.7-13.9-4.1c4.3-5.5,8.6-11,13-16.4
	c5,0.7,10.1,1.5,15.1,2.1c-4.2-1.5-8.4-2.8-12.5-4.2c1.1-2.2,2.3-4.4,3.4-6.6c-5.2,4.2-8.9,9.9-13.6,14.5c-3.8,3.1-8.7,4.4-12.4,7.6
	c-8.6,9.3-14.5,20.6-20,31.9c-2.1-2.8-5.3-5-6.1-8.6c-1.1-4-2.1-7.9-3.2-11.9c3.6,1.6,7.4,2.6,10.8,4.6c0.3,2.8,0.1,5.6,0.1,8.4
	c0.7-2.9,1.1-5.9,1.2-8.9c-4.2-2.4-8.5-4.4-12.6-7c1.1-4.6,2.3-9.4,5.1-13.3c3.2-3.9,6.7-7.5,10-11.4c5,0.3,10,0.7,14.9,1
	c-3.8-1.2-7.8-2.1-11.7-3.1c6.9-6.4,13.9-12.7,20.8-19.1c4.6,0.1,9.4,1.6,14,0.3c-4.8-0.9-9.6-1.6-14.3-2.4c0.6-0.8,1.2-1.5,1.8-2.3
	c6.5,0.6,13.2,3.7,19.7,1.5c-6.7-1.3-13.4-2.5-20.1-3.7c2.8-4.9,5.8-9.8,7.3-15.2c0.2-4.3-0.3-8.6-0.1-12.9
	C144.3,348.8,147.8,354.6,152.6,359.4z"/>
<path class="st6" d="M115.8,372.2c3-0.7,6-1.1,9-1.9c-8.4,4.1-16.6,8.9-25.3,12.5c-3.9,1.9-8,3.2-11.8,5.2c3.7-3.5,7-7.2,10.7-10.8
	c0.8,0.4,2.3,1.3,3.1,1.7c-0.1-0.7-0.2-2.1-0.3-2.8c2.5-1.9,5.5-3.1,8.7-3C111.7,372.7,113.7,372.4,115.8,372.2z"/>
<path class="st6" d="M590.5,370.4c3,0.7,6,1.2,9,1.9c2,0.2,4.1,0.4,6,1c3.2-0.2,6.2,1.2,8.8,3c-0.3,0.7-0.8,2-1,2.7
	c1.3-0.6,2.5-1.1,3.9-1.4c3.6,3.4,6.8,7.2,10.5,10.6c-6.1-3.1-12.7-5.2-18.7-8.4C602.6,376.8,596.6,373.4,590.5,370.4z"/>
<path class="st7" d="M94.3,390.5c10.3-5.1,21-9.5,31.2-15c0.8,0.1,2.3,0.5,3.1,0.6c-6.7,5.9-13.4,11.9-20,17.9
	c-4.6,4.4-8.6,9.4-12.9,14c-3.5,2.5-8.7,2-11.6,5.5c-4.2,4.5-8.7,8.9-12.8,13.5c-1-2.7-2.4-5.2-3.1-8c-0.2-3.6,0.1-7.3,0-10.9
	c3.3,0.3,6.7,0.8,10,1.3c-0.1,1.9-0.1,3.7-0.1,5.6c0.7-2.1,1.1-4.2,1.3-6.3c-3.9-1.1-7.8-2.1-11.7-3c3.3-2.8,6-6.2,9.4-8.9
	c3.8-1.6,7.6-3.2,11.6-4.4c3.4-0.1,6.8,0.6,10.3,0.6C97.3,392.2,95.8,391.4,94.3,390.5z"/>
<path class="st7" d="M586.7,376.2c0.8-0.2,2.3-0.5,3.1-0.6c10.1,5.7,21.2,9.5,31.2,15.3c-1.6,0.7-3.3,1.3-4.9,2
	c3.5,0.1,7-0.7,10.5-0.6c3.9,1.2,7.8,2.8,11.6,4.4c3.4,2.6,6.1,6.1,9.4,8.9c-3.9,1-7.8,2-11.7,3c0.5,2.9,1.3,5.8,2.4,8.6
	c-0.4-2.6-0.9-5.2-1.3-7.8c3.3-0.5,6.7-1,10.1-1.3c-0.3,4.7,1.1,9.8-1.1,14.2c-0.7,1.6-1.3,3.1-2,4.7c-4.2-4.6-8.6-8.9-12.8-13.5
	c-2.9-3.5-8.1-3-11.6-5.5c-5-5.3-9.5-11.1-15-15.9C598.6,386.8,592.7,381.4,586.7,376.2z"/>
<path class="st5" d="M325,392.5c44.4-1.1,88.9,0.1,133.2,3.8c1.3,7.4,2.7,14.9,4.1,22.3c6.6-0.9,13.3-1.6,20-2.4
	c-0.6-3-1.3-5.9-1.9-8.9c3.2-2.6,6.2-5.3,9.4-8c14.2,1.6,28.4,3.2,42.4,5.5c3.8,2.7,7.3,5.8,10.9,8.7c3.9,3.8,7,8.2,10.5,12.3
	c-72.7-2.1-145.4,4.4-217.1,16.6c-6.9,1.5-14,2-20.9,3.3c23.7-5.8,47.8-9.9,71.7-14.9c8-4.7,15.9-9.6,23.8-14.5
	c-29.2-1.4-58.4-1.5-87.6-0.7C324,407.8,324.5,400.2,325,392.5z"/>
<path class="st5" d="M268.7,395.4c12.2-0.8,24.3-1.6,36.5-2.1c-2.6,26.7-5.1,53.4-7.7,80.1c9.4-1.2,18.8-2.4,28.2-3.4
	c1.7-0.1,3.1-1.3,4.5-2.1c11.2-7.5,22.5-14.9,33.8-22.2c0.8-0.6,1.7-0.9,2.6-0.9c20.9-1,41.9-1.6,62.8-2
	c-10.5,6.6-21.1,13.2-31.4,20.1c31-2.5,61.9-4.7,93-6.4c-1-4.6-2-9.1-3-13.6c14.5,0.4,29.1,0.8,43.6,1.6c18,2.4,36,5.5,53.9,8.7
	c3.6,9.5,7.2,19,10.7,28.5c-20.3-3.8-40.7-7.3-61.1-10.3c1.8,6.5,3.7,13,5.5,19.4c41.1,6.2,82,14.2,122.5,23.9
	c5.9,11.2,10.7,23,16.1,34.5c-37.6,13-75,26.8-112.6,39.8c26.3-15.8,52.6-31.7,78.9-47.6c-46.7-10.5-93.8-19-141.3-24.7
	c-2.3-10.8-4.8-21.5-7-32.3c8.5-5.2,16.9-10.5,25.3-15.8c-51,0.3-101.9,2-152.8,5.1c-50.9,3-101.7,8.1-152,16.2
	c-29.9,4.6-59.6,10.2-89.3,16c8.2-2.8,16.5-5.2,24.8-7.6c-6.5-5.3-13.2-10.3-19.8-15.4c-9.4,1.7-18.7,3.6-28,5.3
	c-6.7,16.5-13.1,33.2-19.7,49.7c-5.4,1.2-10.7,2.4-16.1,3.5c26,16,52.3,31.4,78.2,47.5c-37.4-13.2-74.6-26.7-112-39.7
	c12.5-27.1,24.9-54.2,37.4-81.4c39.8-8.8,80-16.2,120.4-21.6c2.4-0.3,5.2-1.1,6.6-3.3c1.7-5.6,3-11.2,4.4-16.8
	c-1.2-0.5-2.5-1.1-3.9-0.8c-14.7,1.9-29.3,4.1-44,6.4c4.8-5.6,9.4-11.4,14.3-17c3.9-3.4,7.9-6.7,12-9.8c14.1-2.3,28.3-3.8,42.4-5.5
	c6.5,5.5,12.9,11.1,19.4,16.6c-2,10-3.9,20.1-6,30.1c-1.8,8.4-8.8,14.4-15.9,18.4c-8.5,4.9-18.2,6.9-27.7,8.8
	c5.1,4.1,10.3,8.1,15.4,12.2c14.8-2.4,29.6-4.7,44.5-6.7C259.7,451,264.2,423.2,268.7,395.4 M265.6,437.8c-2.1,13.3-4.2,26.6-6.3,40
	c11.3-1.3,22.5-3.1,33.7-4.5c0.8-7.9,1.9-15.9,2.1-23.9c-6.9,1.5-13.7,3.4-20.7,4.3c6.9-2.5,13.8-5,20.8-7.3c0.6-3.6,0.9-7.3,1-11
	C286.1,436.3,275.8,437,265.6,437.8 M204.7,444.3c-1.5,1.4-2.6,3.4-4.7,4c-7.3,2.7-15.2,3.2-22.8,4.3c-33.9,5-67.6,11.5-101.1,18.8
	c-11.6,24.8-22.9,49.8-34.3,74.7c13.7-3.8,27.4-7.8,41-12c2.8-5.5,4.8-11.4,7.1-17.1c-8.2,1.5-16.1,3.9-24.4,4.8
	c8.3-2.8,16.8-4.9,25-7.9c4.5-9.5,7.6-19.7,11.7-29.4c10.7-2,21.4-4.3,32.2-6c8.1,5.4,15.3,12.1,23.2,17.9
	c15.9-3.3,31.8-6.4,47.6-9.7c-5.8-5.9-13-10.3-18.8-16.2c11.7-1.7,23.7-3.9,34.3-9.5c7.7-4.1,14.6-11.2,15.5-20.3
	C225.6,441.9,215.1,442.8,204.7,444.3 M364.1,450.6c-8.7,6-17.9,11.3-26.3,17.6c14.9-1.4,29.8-3.3,44.7-4.6
	c3.5-0.5,7.4-0.1,10.3-2.4c7-4.8,14.3-9.1,21.2-14.1c-14.5,0-29,0.3-43.5,0.4C368,447.5,366.2,449.4,364.1,450.6 M493.1,446.3
	c0.8,4.3,1.8,8.6,2.6,12.9c-30.8,1.6-61.5,3.7-92.2,6.4c19.3,0.1,38.7-0.6,58-0.6c23.4,0.1,46.8-1.1,70.1,1.3
	c19.9,2.2,39.6,6.1,59,10.7c-2.5-7.1-5.2-14.1-8-21.1c-12.3-2-24.5-4.3-36.8-6.4c-5.1-0.8-10.2-2.1-15.3-2.2
	C518.1,447.1,505.6,446.6,493.1,446.3 M501.6,485.8c2.1,8.9,3.8,17.9,6.1,26.8c49.7,7,99.4,14.9,148.1,27.5
	c-16.7,10.5-33.9,20.1-50.4,30.9c22.8-7.7,45.4-16.2,68.2-24.2c-3.8-8.8-7.8-17.4-11.5-26.2c-0.6-1.1-0.9-2.7-2.4-2.8
	c-40.4-9.4-81.1-17.2-122-23.5c-2.8-8.5-5.2-17.1-8.1-25.6C520.2,474.3,510.9,480,501.6,485.8z"/>
<path class="st5" d="M81.7,423.1c2.5-0.9,5.1-1.2,7.7-1.8c2.2,7.1,2.4,15,6.1,21.6c-4,0.8-8,1.7-12.1,2.5c-7.3-6.1-14.8-12-22.2-18
	c2.3-0.5,4.6-1,7-1.5c0.8,1.9,1.7,3.8,2.5,5.8C74.4,429,77.8,425.8,81.7,423.1z"/>
<path class="st5" d="M625.8,421.4c2.8,0.6,5.8,0.8,8.4,2.1c3.6,2.7,6.9,5.6,10.4,8.4c0.8-1.9,1.7-3.8,2.5-5.8c2.3,0.4,4.7,0.9,7,1.4
	c-7.4,6-14.9,11.9-22.2,18c-4-0.8-8-1.7-12.1-2.5c0.9-1.5,1.8-3.1,2.1-4.8C623.2,432.6,624.6,427,625.8,421.4z"/>
<path class="st0" d="M586.8,426.4c1.4-0.4,1.9,0.1,1.5,1.5C586.8,428.3,586.3,427.7,586.8,426.4z"/>
<path class="st5" d="M116.6,438.7c3.9-3.9,7.1-8.4,11.3-12c0.9,3.1,1.7,6.3,2.4,9.5C125.8,437,121.2,437.9,116.6,438.7z"/>
<path class="st5" d="M584.7,435.1c2.1-2.2,5.8-1.4,8.7-2.1c1.7,2,3.4,3.9,5.2,5.8c-4.5-0.9-9-1.6-13.5-2.6L584.7,435.1z"/>
<path class="st4" d="M265.6,437.8c10.2-0.9,20.5-1.5,30.7-2.3c-0.1,3.7-0.4,7.4-1,11c-7,2.3-13.9,4.7-20.8,7.3
	c7-0.9,13.8-2.8,20.7-4.3c-0.3,8-1.3,15.9-2.1,23.9c-11.3,1.4-22.5,3.2-33.7,4.5C261.4,464.5,263.5,451.2,265.6,437.8z"/>
<path class="st4" d="M204.7,444.3c10.4-1.5,20.9-2.4,31.4-3.5c-0.9,9-7.8,16.2-15.5,20.3c-10.6,5.6-22.5,7.8-34.3,9.5
	c5.8,6,13,10.3,18.8,16.2c-15.9,3.3-31.8,6.4-47.6,9.7c-7.9-5.8-15.1-12.5-23.2-17.9c-10.8,1.8-21.5,4-32.2,6
	c-4.1,9.7-7.2,19.9-11.7,29.4c-8.2,3-16.7,5.1-25,7.9c8.2-1,16.2-3.4,24.4-4.8c-2.3,5.7-4.3,11.7-7.1,17.1c-13.6,4.2-27.3,8.2-41,12
	c11.4-24.9,22.7-49.8,34.3-74.7c33.5-7.4,67.2-13.9,101.1-18.8c7.6-1.1,15.5-1.6,22.8-4.3C202,447.7,203.2,445.7,204.7,444.3z"/>
<path class="st4" d="M364.1,450.6c2-1.2,3.9-3.1,6.4-3.1c14.5-0.1,29-0.4,43.5-0.4c-6.9,4.9-14.2,9.3-21.2,14.1
	c-2.9,2.3-6.8,1.9-10.3,2.4c-14.9,1.3-29.8,3.2-44.7,4.6C346.3,461.9,355.4,456.6,364.1,450.6z"/>
<path class="st4" d="M493.1,446.3c12.5,0.3,24.9,0.8,37.4,1.1c5.2,0,10.3,1.3,15.3,2.2c12.3,2.1,24.5,4.4,36.8,6.4
	c2.8,7,5.5,14,8,21.1c-19.5-4.6-39.1-8.5-59-10.7c-23.3-2.5-46.8-1.2-70.1-1.3c-19.3,0-38.7,0.7-58,0.6c30.7-2.8,61.5-4.8,92.2-6.4
	C495,454.9,494,450.6,493.1,446.3z"/>
<path class="st4" d="M501.6,485.8c9.3-5.8,18.5-11.6,27.9-17.1c2.9,8.5,5.3,17.1,8.1,25.6c41,6.3,81.7,14.2,122,23.5
	c1.5,0.1,1.8,1.8,2.4,2.8c3.7,8.8,7.7,17.4,11.5,26.2c-22.8,8-45.4,16.4-68.2,24.2c16.5-10.7,33.7-20.4,50.4-30.9
	c-48.7-12.6-98.4-20.5-148.1-27.5C505.5,503.7,503.8,494.7,501.6,485.8z"/>
<path class="st5" d="M319.4,489.2c52-2.7,104.1-1.8,156,1.4c1.5,7.8,2.9,15.6,4.3,23.3c-53.6-5.4-107.6-7.3-161.5-5.6
	C318.6,501.9,319,495.5,319.4,489.2 M323.3,492.6c-0.3,3.7-0.5,7.4-0.6,11.2c25-0.4,50-0.2,75,0.5c25.7,0.8,51.4,2.6,77,4.7
	c-0.9-5-1.8-10-2.8-15C422.4,490.4,372.7,489.9,323.3,492.6z"/>
<path class="st5" d="M252.6,494.2c14.4-1.2,28.8-2.4,43.2-3.4c-0.6,6.2-1.2,12.4-1.8,18.6c-14.8,0.9-29.6,1.9-44.4,3.2
	C250.6,506.4,251.6,500.3,252.6,494.2 M256.6,497c-1.1,3.6-1.2,7.4-1.8,11.1c11.8-0.5,23.6-1,35.3-1.6c0.5-4,0.9-8,1.2-12
	C279.7,495.4,268.1,495.7,256.6,497z"/>
<path class="st4" d="M323.3,492.6c49.5-2.8,99.1-2.3,148.5,1.4c1,5,1.9,10,2.8,15c-25.6-2.1-51.3-3.9-77-4.7c-25-0.8-50-0.9-75-0.5
	C322.8,500.1,323,496.4,323.3,492.6z"/>
<path class="st4" d="M256.6,497c11.5-1.3,23.1-1.5,34.7-2.5c-0.3,4-0.7,8-1.2,12c-11.8,0.6-23.6,1.1-35.3,1.6
	C255.4,504.4,255.4,500.6,256.6,497z"/>
<path class="st5" d="M160.3,503.6c21.4-2.4,42.8-4.8,64.2-6.9c6.5,5.4,13,10.8,19.5,16.3c-20.6,2-41.1,4.4-61.6,7.3
	c-1.5,0.6-2.6-0.8-3.6-1.6C172.7,513.6,166.4,508.8,160.3,503.6 M168.7,505.7c0.8,1.9,2.8,2.8,4.3,4.1c3.3,2.3,6,5.4,9.6,7.3
	c18.1-2.4,36.2-4.8,54.4-6.2c-4.3-3.8-8.4-8.2-13.3-11.1C205.3,501.2,187,503.3,168.7,505.7z"/>
<path class="st4" d="M168.7,505.7c18.3-2.3,36.6-4.5,55-5.9c4.9,2.9,9,7.3,13.3,11.1c-18.2,1.4-36.3,3.8-54.4,6.2
	c-3.6-1.9-6.3-5-9.6-7.3C171.5,508.5,169.5,507.5,168.7,505.7z"/>
<path class="st0" d="M244.7,531.5c31.2-3.3,62.6-5.1,93.9-6.3c23.7-1,47.4,0.2,71,1.5c64.3,3.2,128,12.7,191.1,24.9
	c-2.1,2.6-5.2,3.8-8,5.6c-8.4,5.3-16.9,10.5-25.2,15.8c-2.3,1.4-4.5,3.1-7.1,3.9c-3.1,0.3-6.2-0.3-9.3-0.5
	c-8.6-0.8-17.2-1.4-25.8-1.8c2.7-3.9,8-5.3,9.8-9.9c3.9-1.3,7.5-3.8,10.2-7c1.7-2.2-1.1-4.1-3-4.4c-8.8-1.5-17.8-2.1-26.7-3.3
	c-4.6-0.5-9.8-0.6-13.7,2.3c-3.4,2.6-6.1,5.9-9.1,8.8c-2.4,2.6-5.3,4.8-7.2,7.8c-1.7,2.6,0.4,6.2,3.3,6.7c5.8,1.4,11.8,1.3,17.7,2.2
	c5.9,1,11.9-0.6,17.7,0.5c8.8,1.5,17.6,3,26.3,5c-2.5,1.5-4.9,4.4-8.1,3.9c-30.8-4.4-61.8-7.8-93-8.4c-4.3-0.1-8.8-0.6-13,0.6
	c32.3,3,64.6,7.3,96.1,15.1c-2.8,2.8-6.8,1.1-10.2,0.8c-40.4-5.9-81-10.3-121.9-11.6c-47-1.7-94.2-0.8-141.1,3.4
	c-23.4,2.3-46.7,5-69.9,8.6c-2.5,0.4-5.2,0.8-7.1-1.3c31.6-7.7,63.9-12.1,96.3-15c-2-0.6-4.1-0.8-6.1-0.8
	c-33.8,0.4-67.4,3.9-100.8,8.7c-2.8-0.2-4.9-2.6-7.2-4c8.5-1.9,17.2-3.4,25.8-4.9c4.3-0.8,8.6,1,13,0.1c6.7-1,13.6-1.1,20.3-2.5
	c2.8-0.4,6-3.2,4.2-6.2c-3-5.2-7.8-9-12.1-13c-2.6-2.6-4.4-6.6-8.3-7.4c-8.9,0.4-17.7,2-26.6,2.8c-3.3,0.4-7.1,0.6-9.5,3.3
	c-1.7,2-0.6,4.9,1.3,6.5c4.8,4.5,10.5,7.9,15.1,12.6c-9.4,0.5-18.7,1.3-28,2.2c-2.3,0.1-4.9,0.5-6.9-0.8
	c-11.8-7.2-23.4-14.7-35.2-21.9c-1.1-0.7-2-1.6-2.9-2.5C157.6,543.2,201,536.3,244.7,531.5 M312.4,546c1.2,7.1,3.4,14.1,5,21.1
	c0.2,2.2,2.2,3.5,4.3,3.5c3.7,0,8.6,0.5,10.3-3.7c2.3,1.5,4.5,3.9,7.6,3.3c2.9,0.4,4.8-2,6.5-3.9c1.5,1.6,2.9,3.9,5.5,3.8
	c2.9,0.1,6.3,0.6,8.7-1.3c1.3-4.8,0.5-9.8,0.9-14.7c-0.1-3.8,1-8.1-1.2-11.5c-3.8-1.5-8.3-1.3-12.2-0.3c-3.8,3.7-6.5,8.3-9.7,12.4
	c-3.9-3.5-7.3-7.4-11.2-10.8c-2.8-2.5-6.8-2-10.3-1.7C314.5,542.2,311.8,543.4,312.4,546 M391,542.4c-2.2,0.9-2.4,3.5-2.9,5.5
	c-1,5.2-2.1,10.4-3.2,15.5c-0.3,2-1,4.3,0.2,6.1c3.3,1.2,7.1,1.4,10.6,0.8c2.2-0.1,2.3-2.6,2.9-4.2c1.5-5.8,3-11.6,4.6-17.4
	c0.4-2,1.3-5.1-1.2-6C398.5,541.7,394.6,541.8,391,542.4 M256.6,545.2c-1.9,0.1-3,2.1-3,3.8c-0.5,5.7-0.8,11.4-1.1,17.1
	c0,2.1-0.3,4.4,0.7,6.4c3.6,2.4,8.2,0.6,12.2,0.3c1.1-1.3,2.2-3.1,4.2-2.8c4.1,0,8.5-1.1,12.3,0.9c3.6,1.8,8,1.3,11.8,0.2
	c2.9-1,1.9-4.7-0.2-6c-8-6.3-16.1-12.5-24.2-18.7C265.7,543.4,260.8,544.8,256.6,545.2 M432.8,544.3c-2.7,3.6-3.9,8.1-6,12.1
	c-1.7,4-4.4,7.5-5.4,11.8c-0.1,4.1,5.3,3.7,8.1,4c6,1,7.2-6.1,9.5-10c2.8,3.3,4.6,7.5,8.1,10.3c3,1.1,6.3,0.9,9.5,0.8
	c2.7-0.1,3.8-3.1,5.3-4.8c3.7-5.6,8-10.8,11.8-16.3c1.2-1.6,1.9-4.8-0.6-5.5c-3.9-0.9-8.4-2-12.1-0.2c-2.7,2.9-4.3,6.7-6.6,9.8
	c-3.7-3.4-4.8-9-9-11.9C441.2,543.8,436.9,543.3,432.8,544.3z"/>
<path class="st2" d="M312.4,546c-0.5-2.6,2.1-3.8,4.3-3.9c3.4-0.3,7.5-0.8,10.3,1.7c3.9,3.4,7.4,7.4,11.2,10.8
	c3.2-4.1,6-8.7,9.7-12.4c3.9-1,8.4-1.2,12.2,0.3c2.2,3.4,1,7.7,1.2,11.5c-0.4,4.9,0.4,9.9-0.9,14.7c-2.5,1.9-5.8,1.4-8.7,1.3
	c-2.5,0.1-4-2.1-5.5-3.8c-1.7,2-3.6,4.3-6.5,3.9c-3.1,0.6-5.3-1.8-7.6-3.3c-1.7,4.2-6.6,3.6-10.3,3.7c-2.1,0-4.1-1.3-4.3-3.5
	C315.8,560,313.5,553.1,312.4,546 M315,545.4c2,7.4,3.8,14.8,5.6,22.2c2.6-0.1,5.2-0.1,7.9-0.2c-0.7-3.3-1.3-6.6-1.9-9.9
	c3.3,2.9,6.4,6,9.7,8.9c1.3,1.4,3.4,0.7,5.1,0.9c2.7-3.4,5.5-6.7,8.2-10.1c0.2,3.3,0.3,6.7,0.5,10c2.6,0,5.2,0,7.8,0
	c0.1-7.5,0.1-14.9,0.2-22.4c-2.9,0-5.8,0-8.6,0c-3.7,4.8-7.5,9.6-11.1,14.5c-5-4.6-9.8-9.5-14.8-14.2
	C320.8,545.1,317.9,545.2,315,545.4z"/>
<path class="st2" d="M391,542.4c3.6-0.6,7.5-0.7,11.1,0.4c2.5,0.9,1.6,4,1.2,6c-1.6,5.8-3.2,11.6-4.6,17.4c-0.6,1.6-0.7,4.1-2.9,4.2
	c-3.5,0.5-7.3,0.4-10.6-0.8c-1.2-1.9-0.5-4.1-0.2-6.1c1.1-5.2,2.2-10.3,3.2-15.5C388.6,545.8,388.8,543.3,391,542.4 M391.9,545.1
	c-1.5,7.4-3.1,14.8-4.6,22.3c2.6,0.1,5.2,0.1,7.8,0.2c2-7.4,4-14.9,6-22.3C397.9,545.2,394.9,545.1,391.9,545.1z"/>
<path class="st2" d="M256.6,545.2c4.2-0.4,9.1-1.8,12.6,1.3c8.1,6.2,16.1,12.5,24.2,18.7c2.1,1.3,3.1,4.9,0.2,6
	c-3.8,1.1-8.1,1.5-11.8-0.2c-3.8-2-8.2-0.8-12.3-0.9c-2-0.4-3.1,1.5-4.2,2.8c-4,0.3-8.5,2-12.2-0.3c-0.9-2-0.6-4.3-0.7-6.4
	c0.3-5.7,0.6-11.4,1.1-17.1C253.5,547.3,254.7,545.3,256.6,545.2 M256.6,548.2c-0.4,7.5-0.9,15-1.2,22.6c2.8-0.2,5.6-0.4,8.4-0.6
	c0.1-0.7,0.3-2.1,0.4-2.7c5.5-0.3,11-0.7,16.5-1c3.1,3.5,7.8,2.3,11.9,2.1c-8.9-7.2-17.9-14.1-26.9-21
	C262.6,547.8,259.6,548,256.6,548.2z"/>
<path class="st2" d="M432.8,544.3c4-1,8.4-0.5,12.5,0.1c4.2,2.9,5.3,8.5,9,11.9c2.3-3.2,4-6.9,6.6-9.8c3.8-1.8,8.3-0.7,12.1,0.2
	c2.6,0.6,1.8,3.8,0.6,5.5c-3.8,5.6-8,10.7-11.8,16.3c-1.6,1.8-2.6,4.7-5.3,4.8c-3.2,0.2-6.5,0.3-9.5-0.8c-3.4-2.8-5.3-7-8.1-10.3
	c-2.3,3.9-3.5,10.9-9.5,10c-2.8-0.2-8.2,0.2-8.1-4c1-4.2,3.7-7.8,5.4-11.8C428.9,552.4,430.1,547.9,432.8,544.3 M434.7,546.7
	c-3.4,7.3-7.2,14.5-10.3,22c2.6,0.1,5.2,0.2,7.8,0.3c2.1-4.2,4.4-8.3,6.6-12.5c2.8,3.7,5.4,7.6,8,11.4c1.8,3.7,6.6,1.9,9.8,2.6
	c5.1-7.2,10.2-14.3,15.5-21.3c-2.9-0.2-5.9-0.4-8.8-0.8c-3.4,4.5-6.2,9.3-9.5,13.8c-3-5-6.1-10-9.3-14.9
	C441.3,547,438,546.8,434.7,546.7z"/>
<path class="st1" d="M315,545.4c2.9-0.2,5.8-0.3,8.7-0.3c4.9,4.7,9.7,9.5,14.8,14.2c3.6-4.9,7.4-9.7,11.1-14.5c2.9,0,5.7,0,8.6,0
	c0,7.5-0.1,14.9-0.2,22.4c-2.6,0-5.2,0-7.8,0c-0.2-3.3-0.4-6.7-0.5-10c-2.8,3.3-5.5,6.7-8.2,10.1c-1.7-0.2-3.8,0.5-5.1-0.9
	c-3.3-2.9-6.4-6-9.7-8.9c0.6,3.3,1.3,6.6,1.9,9.9c-2.6,0.1-5.2,0.1-7.9,0.2C318.8,560.1,317,552.7,315,545.4z"/>
<path class="st1" d="M391.9,545.1c3,0,6.1,0.1,9.1,0.2c-1.9,7.5-3.9,14.9-6,22.3c-2.6-0.1-5.2-0.2-7.8-0.2
	C388.7,559.9,390.4,552.5,391.9,545.1z"/>
<path class="st1" d="M434.7,546.7c3.3,0.2,6.5,0.3,9.8,0.5c3.2,4.9,6.3,9.9,9.3,14.9c3.3-4.5,6.1-9.4,9.5-13.8
	c2.9,0.3,5.9,0.6,8.8,0.8c-5.2,7-10.4,14.2-15.5,21.3c-3.3-0.7-8.1,1.1-9.8-2.6c-2.6-3.8-5.2-7.7-8-11.4c-2.2,4.2-4.5,8.3-6.6,12.5
	c-2.6-0.1-5.2-0.2-7.8-0.3C427.6,561.2,431.4,554,434.7,546.7z"/>
<path class="st1" d="M256.6,548.2c3-0.2,6-0.4,9-0.6c9.1,6.9,18.1,13.8,26.9,21c-4.1,0.1-8.8,1.4-11.9-2.1c-5.5,0.3-11,0.6-16.5,1
	c-0.1,0.7-0.3,2-0.4,2.7c-2.8,0.2-5.6,0.4-8.4,0.6C255.7,563.2,256.2,555.7,256.6,548.2 M265.4,555.1c-0.3,2.5-0.6,4.9-0.9,7.4
	c3.4-0.2,6.9-0.4,10.3-0.7C271.7,559.5,268.6,557.2,265.4,555.1z"/>
<path class="st1" d="M176.6,556c10.3-1.4,20.6-2.5,30.9-3.6c1.6,1.7,3.3,3.4,5,5.2c-9,1-18,2-27,3c3.8,3.4,7.7,6.6,11.7,9.9
	c1.2,1.2,2.9,0.5,4.4,0.5c4.4-0.5,8.9-1,13.3-1.5c-0.9-1-1.9-2.1-2.8-3c-3.4,0.3-6.8,1.2-10.1,0.9c-1.7-1.2-3.3-2.7-4.8-4.1
	c6.2-1.2,12.5-1.4,18.7-2.2c3.1,3.4,6.6,6.4,9.3,10c-0.1,2.3-2.8,2.4-4.5,2.7c-6.7,0.6-13.4,1.4-20.1,2c-4,0.4-8-1.1-11-3.8
	c-5.1-4.3-10.5-8-15.5-12.4C171.9,557.8,174.7,556,176.6,556z"/>
<path class="st1" d="M501.2,556.7c2.8-3.1,7.2-4.2,11.3-3.8c10.1,1,20.2,2.3,30.3,3.5c-2,1.7-4.1,3.3-6.2,4.9
	c-9-1.1-18.1-2.1-27.1-3.1c-3.8,3.5-7.5,7.2-11.2,10.8c5.6,1.2,11.4,1.4,17.1,2c1-1,2.1-1.9,3.1-2.8c-3.3-0.4-6.7-0.8-10-1.1
	c1.7-1.5,3.4-3.1,5.1-4.6c6.1,0.7,12.3,1.4,18.4,2.1c-3.3,3.4-7.2,6.2-11,8.9c-6.6,3.8-14.3,0.9-21.3,0.6c-4-0.8-9,0.4-12.1-2.9
	C491.8,566.1,496.6,561.5,501.2,556.7z"/>
<path class="st2" d="M265.4,555.1c3.2,2.1,6.3,4.4,9.4,6.6c-3.4,0.4-6.8,0.6-10.3,0.7C264.8,560,265.1,557.5,265.4,555.1z"/>
<path class="st4" d="M313.2,597.2c34.5-1,69-1,103.5,0.6c-18.8,19.6-38.5,38.5-59,56.3C342.5,635.4,327.7,616.4,313.2,597.2z"/>
</svg>
