<?xml version="1.0" encoding="utf-8"?>
<!-- Generator: Adobe Illustrator 21.0.0, SVG Export Plug-In . SVG Version: 6.00 Build 0)  -->
<svg version="1.1" id="Layer_1" xmlns="http://www.w3.org/2000/svg" xmlns:xlink="http://www.w3.org/1999/xlink" x="0px" y="0px"
	 viewBox="0 0 495.1 380" style="enable-background:new 0 0 495.1 380;" xml:space="preserve">
<style type="text/css">
	.st0{fill:#E73E1E;stroke:#E73E1E;stroke-width:9.375000e-02;}
</style>
<path class="st0" d="M194.5,10.5c11.4-6.2,24.2-12.2,37.5-10c11.8,2.1,20.1,12,25.8,21.9c7.2,12.9,14.2,25.8,21.2,38.7
	c5.4,10.2,9.4,22.5,5.2,33.8c-4.8,12.6-16.4,20.8-27.6,27.6c-34.4,19.8-68.8,39.4-103.2,59.2c-8.2-14.9-16.4-29.8-24.5-44.7
	c11.1-6.4,22.3-12.8,33.4-19.1c2.9,5.2,5.8,10.5,8.7,15.7c19.2-11,38.4-22,57.7-33c5.8-3.4,12.5-7.2,14.6-14
	c1.8-7.3-2.2-14.2-5.4-20.4c-3.6-6.3-6.8-12.9-10.9-19c-2.6-3.6-6.2-7.1-10.8-7.8c-5.8-0.8-11.1,2-16,4.7
	c-19.9,11.3-39.7,22.7-59.5,34.1c3.1,5.6,6.1,11.1,9.1,16.7c-11.1,6.4-22.3,12.8-33.5,19.2c-8.2-14.9-16.4-29.8-24.5-44.7
	C126,49.7,160.2,30.1,194.5,10.5z"/>
<path class="st0" d="M150,86c23.1-15.9,50.4-25.6,78.4-27.8c2.9,5.5,6.2,10.9,8.8,16.5c1.7,3.8,3.1,8.4,1,12.4
	c-2.1,3.9-6.1,6.2-9.8,8.4c-18.6,10.6-37.1,21.3-55.7,31.9c-2.9-5.2-5.8-10.5-8.7-15.7c-12.5,7.1-24.9,14.3-37.4,21.4
	c-1-1.9-2-3.9-3-5.8c12.4-7.1,24.8-14.2,37.2-21.3C157.2,99.3,153.6,92.6,150,86z"/>
<path class="st0" d="M285.4,63.9c35.6,10.1,67.2,33,88.2,63.5c-40.6,7.2-79.7,20.8-117.8,36.4c-21.7,8.9-43,18.6-64.1,28.9
	c1.5,2.3,1.7,6.1,4.7,6.9c29.6,9.9,59.2,19.8,88.9,29.6c36.3-19.1,72.7-38.3,110.7-53.9c4.5,16.1,6.7,32.8,5.8,49.5
	c-0.8,33.4-12.9,66.3-33.3,92.7c-18.4,23.9-43.7,42.6-72.1,52.9c-30,11-63.2,12.7-94.2,5c-32.1-7.9-61.4-26.2-82.9-51.2
	c-16.8-19.5-28.7-43-34.7-68c21.2-24.5,47.8-43.6,75.2-60.4c34.7-20,69.5-39.8,104.2-59.7c9.5-5.8,19.1-12.4,25-22
	c4.9-7.8,5.3-17.6,3.6-26.4C290.8,79.4,288.5,71.5,285.4,63.9z"/>
<path class="st0" d="M17.8,152.7c16.7-31.4,41.5-57.6,68.5-80.2c20.1,37.3,40.2,74.5,60.4,111.8C118,202.5,90.6,223.5,69.1,250
	c-12.2,15.4-22.8,33.1-25.5,53c-1.9,13,1.2,26.5,8.5,37.5C25.1,310.6,7.3,272.6,0.8,232.9C-2.4,205.2,4.8,177.1,17.8,152.7z"/>
<path class="st0" d="M387.1,129.9c12.3-1.5,24.8-2.7,37.2-1.6c23.6,1.6,47.7,5.2,69.2,15.7c-16-0.8-32,2.1-47.5,6
	c-27.5,7.2-54,17.7-80,29.1c-28.5,12.6-56.3,26.9-83.6,42.1c-28-8.9-55.9-17.7-83.9-26.6c23.1-11.6,46.8-21.9,70.7-31.4
	C307.3,148.3,346.5,135.4,387.1,129.9z"/>
<path class="st0" d="M428,163.6c13.8-4.4,27.8-8.3,42.2-9.8c6.4-0.5,13.2-0.8,19.2,2c4.6,2.1,6.2,7.8,5.6,12.4c-1,7.5-5.3,14-9.6,20
	c-9.3,12.2-20.8,22.6-32.4,32.6c-16.4,14.1-33.8,27.1-51.6,39.3c2-11.3,4.8-22.6,4.9-34.1c0.2-8.4,0.4-16.8-0.7-25.2
	c7.3-6.9,14.5-14.2,19.2-23.2C427,173.3,428.2,168.5,428,163.6z"/>
<path class="st0" d="M60.2,297.2c12.8,4.8,26.4,7.6,40,8.6c10.7,17.4,24.6,32.8,40.8,45.1c-20,2-41.1,1.4-59.6-7.4
	c-8-4-16.2-9.3-20.2-17.6C56.7,317,57.5,306.5,60.2,297.2z"/>
</svg>
