<?xml version="1.0" encoding="utf-8"?>
<!-- Generator: Adobe Illustrator 19.0.0, SVG Export Plug-In . SVG Version: 6.00 Build 0)  -->
<svg version="1.1" id="Layer_1" xmlns="http://www.w3.org/2000/svg" xmlns:xlink="http://www.w3.org/1999/xlink" x="0px" y="0px"
	 viewBox="-215.6 388.9 162 64" style="enable-background:new -215.6 388.9 162 64;" xml:space="preserve">
<style type="text/css">
	.st0{fill:#050404;}
	.st1{fill:#C19C43;}
	.st2{fill:#FFFFFF;}
</style>
<polygon class="st0" points="-62.7,407.3 -67.6,413.7 -63.1,420.9 -54.7,419.1 -55.2,414.4 "/>
<polygon class="st0" points="-212.3,399.3 -208.8,393.9 -200.9,393.1 -195.7,398.3 -200.9,405.7 -210.8,404.1 "/>
<g id="_x23_050404fd">
	<path class="st0" d="M-205.4,388.9h0.5c3.1,1.9,5.2,4.8,8.1,6.8c6.5-2.2,13.8-3.8,20.5-1.3c8.2,3.2,15,9,22.8,12.9
		c12.3,6.7,27.1,7.5,40.7,4.6c7.6-1.2,15-3,22.7-3.6c7.1-0.6,14.2,2.3,19.1,7.3c3.5-3.8,6.7-7.9,10.2-11.8c0,1.5,0,2.9,0.1,4.4
		c1.5,0,3,0,4.5,0c0.6,2.5,1.3,5,2.6,7.3c0,1.5-0.1,3-0.1,4.6c-0.7,0.6-1.5,1.3-2.2,1.9c-2.7-0.7-5.4-0.7-8.2-0.6
		c-1.1,0.7-2.1,1.4-3.2,2.1c-0.9,4.3-1.2,9.2-4.5,12.4c-5.4,5.6-12.9,8.2-20.1,10.9c-9,3.4-18.5,4.8-28,6h-7.2
		c-10-0.7-19.8-3.1-29.5-5.5c-12.3-4-24.9-8.4-35-16.9c-5.1-4-9.7-9.2-11.3-15.6c-0.8-2.8,0.2-5.7,0.6-8.5
		c-3.2-1.3-6.7-1.4-10.1-1.8c-0.1-0.6-0.4-1.7-0.5-2.2c-0.8-1.2-3.5-1.8-2.7-3.5c-0.1-2.1,2.7-1.3,4-2c0.3-1.6,0.6-3.1,1-4.7
		c1.5,0.3,3.1,0.5,4.6,0.7C-205.7,391.5-205.5,390.2-205.4,388.9 M-207.7,395.6c0.1,0.6,0.2,2,0.2,2.6c-1.1,0.5-2.3,1-3.4,1.5
		c0.5,1,0.9,2,1.4,3c1.8-0.2,3.7-0.4,5.5-0.5c1.4-2,2.7-4,3.8-6.2c-0.5-0.5-1.5-1.6-1.9-2.1C-203.5,395.6-205.6,396.1-207.7,395.6
		 M-191.8,396.9c2.9,0.4,5.9,0.9,8.8,1.7c-0.1,0.4-0.3,1.3-0.4,1.7c-4.3-1-8.7-0.5-13.1,0.1c2.8,2.1,5.8,3.6,8.6,5.6
		c-3.2,1.9-6.2-1.2-9.1-2.3c1.4,2.3,3.1,4.4,4.8,6.5c-3.7,1.4-4.8-3.8-7.3-5.4c-1.5,4.7,3.5,7,5.2,10.6c-3-0.2-4.8-2.6-6.4-4.8
		c-1.2,8.7,6.7,14.6,12.6,19.5c13.8,9.5,30.2,14.8,46.5,18c16.7,4,34.2,1.3,50.2-4.2c6.5-2.4,13.3-5,18.3-9.9
		c2.2-2.1,2.8-5.1,3.6-7.9c-2.2,1.3-3.9,3.2-5.7,4.9c0-4.2,6.3-5.5,4.5-9.9c-1.9,3.4-5.4,5.1-8.6,6.9c0.3-3.2,3.7-4.1,5.9-5.8
		c-2.9,0-5.7,0.4-8.5,1.1c0.5-3.7,5.1-2.8,7.7-3.6c-4.4-0.6-8.9-0.5-13.3,0.3c2.9-4.3,8.5-2.4,12.9-2.8c0-0.2,0-0.7,0.1-0.9
		c-2.2,0-4.4-0.1-6.6-0.2c1.1-0.8,2.2-1.5,3.3-2.3c-3.3-1.4-6.8-2.8-10.4-2.7c-12.8,0.3-25.2,5.2-38,4.8c-5.7,0.1-11.4,0.1-16.9-1.6
		c-11.8-2.6-20.9-11-31.4-16.3C-179.6,395.2-186,395.4-191.8,396.9 M-202.4,404.1c2.6-1.2,3.9-3.9,5-6.4
		C-200.4,398.3-201.5,401.6-202.4,404.1 M-66.7,413.8c1.7,1.9,3.3,4,4.8,6.1c0.5-0.7,1.5-2,2.1-2.7c0.5,0.4,1.5,1.2,2,1.6
		c0.4-0.5,1.2-1.6,1.6-2.1c-0.5-0.4-1.5-1.1-1.9-1.5c-0.1-1.1-0.3-2.1-0.4-3.2c-0.9,0-2.6,0.1-3.4,0.2c-0.1-1-0.4-2.9-0.5-3.8
		C-64.1,410.1-65.4,411.9-66.7,413.8 M-70.1,416.2c0.7,1.6,1.4,3.2,2.1,4.9c1-0.4,1.9-0.8,2.9-1.2
		C-66.3,418.2-67.5,415.3-70.1,416.2z"/>
</g>
<g id="_x23_c19c43ff">
	<path class="st0" d="M-179.3,395.5c15.4,1.5,18.1,13.6,36.6,18.2c6.5,1.6,11.6,1.5,16.9,1.4c18.7-0.4,23.4-6.7,38-4.9
		c5.4,0.7,14,1.8,17.4,8.2c2.6,5,1.2,11.4-1.5,15.5c-1.8,2.8-4.6,5-19.4,9.9c-11,3.6-16.5,5.4-21.7,6.2c-0.2,0-0.5,0.1-0.8,0.1
		c-12.3,1.5-24-0.7-27.8-1.5c-6.6-1.3-26.8-5.4-42.1-14.3c-1.8-1.1-6.2-3.7-10.8-8.4c-3.2-3.3-5.4-5.6-6.5-9.4
		c-1.4-4.7-1-10.8,2.5-15.1C-192.8,394.2-181.4,395.3-179.3,395.5z"/>
	<path class="st1" d="M-207.7,395.6c2.1,0.5,4.2,0.1,5.5-1.7c0.5,0.5,1.5,1.5,1.9,2.1c-1.1,2.2-2.4,4.2-3.8,6.2
		c-1.8,0.2-3.7,0.4-5.5,0.5c-0.5-1-0.9-2-1.4-3c1.1-0.5,2.3-1,3.4-1.5C-207.5,397.5-207.6,396.2-207.7,395.6z"/>
	<path class="st1" d="M-191.8,396.9c5.8-1.4,12.1-1.7,17.5,1.1c10.5,5.3,19.6,13.7,31.4,16.3c5.5,1.7,11.2,1.7,16.9,1.6
		c12.9,0.4,25.2-4.5,38-4.8c3.7-0.2,7.1,1.2,10.4,2.7c-1.1,0.8-2.2,1.5-3.3,2.3c2.2,0.1,4.4,0.2,6.6,0.2c0,0.2,0,0.7-0.1,0.9
		c-4.4,0.4-9.9-1.5-12.9,2.8c4.4-0.8,8.8-0.8,13.3-0.3c-2.6,0.8-7.3-0.1-7.7,3.6c2.8-0.7,5.6-1.2,8.5-1.1c-2.2,1.6-5.7,2.6-5.9,5.8
		c3.2-1.8,6.7-3.5,8.6-6.9c1.8,4.4-4.5,5.7-4.5,9.9c1.8-1.7,3.5-3.6,5.7-4.9c-0.8,2.8-1.5,5.8-3.6,7.9c-5.1,5-11.8,7.6-18.3,9.9
		c-16,5.5-33.5,8.1-50.2,4.2c-16.4-3.2-32.7-8.4-46.5-18c-5.9-4.9-13.9-10.8-12.6-19.5c1.7,2.2,3.4,4.6,6.4,4.8
		c-1.7-3.6-6.7-5.9-5.2-10.6c2.5,1.7,3.6,6.8,7.3,5.4c-1.7-2.1-3.4-4.2-4.8-6.5c2.9,1.1,5.9,4.1,9.1,2.3c-2.8-2-5.9-3.5-8.6-5.6
		c4.3-0.6,8.7-1.1,13.1-0.1c0.1-0.4,0.3-1.3,0.4-1.7C-185.9,397.7-188.8,397.3-191.8,396.9z"/>
	<path class="st1" d="M-202.4,404.1c0.9-2.5,2-5.8,5-6.4C-198.5,400.2-199.8,402.9-202.4,404.1z"/>
	<path class="st1" d="M-66.7,413.8c1.3-1.9,2.7-3.7,4.1-5.4c0.1,1,0.4,2.9,0.5,3.8c0.9,0,2.6-0.1,3.4-0.2c0.1,1.1,0.3,2.1,0.4,3.2
		c0.5,0.4,1.5,1.2,1.9,1.5c-0.4,0.5-1.2,1.6-1.6,2.1c-0.5-0.4-1.5-1.2-2-1.6c-0.5,0.7-1.5,2-2.1,2.7
		C-63.4,417.8-65,415.7-66.7,413.8z"/>
	<path class="st1" d="M-70.1,416.2c2.7-0.9,3.8,2,5,3.7c-1,0.4-1.9,0.8-2.9,1.2C-68.7,419.4-69.4,417.8-70.1,416.2z"/>
</g>
<g>
	<path class="st2" d="M-175.6,434.5l-1.7-11.1l-0.1-0.7h-0.1v11.8h-2.4v-17.6h3.2l1.5,8.1l0.1,0.9h0l0.1-0.9l1.5-8.1h3.2v17.6h-2.4
		v-11.8h-0.1l-0.1,0.7l-1.7,11.1H-175.6z"/>
	<path class="st2" d="M-169,434.5l2.7-17.6h3.2l2.7,17.6h-2.5l-0.5-3.6h-2.5l-0.5,3.6H-169z M-164.6,422.6l-0.1-0.5h-0.1l-0.1,0.5
		l-0.7,5.6h1.8L-164.6,422.6z"/>
	<path class="st2" d="M-157.6,434.5h-2.5l2.9-9.3l-2.8-8.4h2.5l1.4,4.5l0.1,0.2h0.1l0.1-0.2l1.4-4.5h2.5l-2.8,8.4l2.9,9.3h-2.5
		l-1.5-5.3l0-0.2h-0.1l0,0.2L-157.6,434.5z"/>
	<path class="st2" d="M-150.7,416.9h2.6v17.6h-2.6V416.9z"/>
	<path class="st2" d="M-141.9,421.6c0-0.6,0-1.2-0.2-1.7c-0.2-0.5-0.4-0.8-0.8-0.8c-0.7,0-0.9,0.7-0.9,1.8c0,0.6,0.3,1.2,0.6,1.9
		c0.4,0.7,0.9,1.4,1.4,2.1c0.6,0.9,1.2,1.8,1.7,2.7c0.5,0.9,0.8,1.8,0.8,2.8c0,1.2-0.2,2.3-0.7,3.1c-0.6,0.8-1.4,1.3-2.9,1.3
		c-1.7,0-2.6-0.6-3.1-1.6c-0.5-1-0.6-2.2-0.6-3.6l2.5-0.2c0,0.7,0,1.5,0.2,2c0.2,0.6,0.5,1,1,1c0.8,0,1.1-0.8,1.1-1.9
		c0-0.6-0.3-1.2-0.7-1.9c-0.2-0.3-0.4-0.7-0.7-1.1c-0.5-0.7-1.1-1.5-1.6-2.4c-0.6-0.9-1-1.8-1.3-2.7c-0.1-0.5-0.2-0.9-0.2-1.4
		c0-1,0.2-2,0.8-2.8c0.6-0.8,1.4-1.3,2.6-1.3c1.6,0,2.5,0.6,3,1.6c0.5,1,0.6,2.1,0.6,3.1L-141.9,421.6z"/>
	<path class="st2" d="M-138.7,434.5l2.7-17.6h3.2l2.7,17.6h-2.5l-0.5-3.6h-2.5l-0.5,3.6H-138.7z M-134.3,422.6l-0.1-0.5h-0.1
		l-0.1,0.5l-0.7,5.6h1.8L-134.3,422.6z"/>
	<path class="st2" d="M-122.1,416.9v14c0,0.7-0.2,1.4-0.4,1.9c-0.2,0.5-0.6,0.9-1,1.3c-0.5,0.4-1.1,0.6-2,0.6s-1.5-0.2-2-0.6
		c-0.5-0.4-0.8-0.8-1-1.3c-0.3-0.6-0.4-1.2-0.4-1.9v-14h2.6v14c0,0.5,0.1,0.8,0.4,1.1c0.1,0.1,0.3,0.2,0.5,0.2
		c0.5,0,0.7-0.3,0.8-0.6c0.1-0.2,0.1-0.4,0.1-0.6v-14H-122.1z"/>
	<path class="st2" d="M-113.4,428.5v2.4c0,0.7-0.2,1.4-0.4,1.9c-0.2,0.5-0.6,0.9-1,1.3c-0.5,0.4-1.1,0.6-2,0.6c-0.9,0-1.5-0.2-2-0.6
		c-0.5-0.4-0.8-0.8-1-1.3c-0.3-0.6-0.4-1.2-0.4-1.9v-10.4c0-0.7,0.2-1.3,0.4-1.9c0.2-0.5,0.5-1,1-1.3c0.5-0.4,1.2-0.6,2-0.6
		c0.9,0,1.5,0.2,2,0.6c0.5,0.4,0.8,0.8,1,1.3c0.3,0.6,0.4,1.2,0.4,1.9v2.4h-2.4v-2.4c0-0.5-0.1-0.8-0.4-1.1
		c-0.1-0.1-0.3-0.2-0.6-0.2c-0.5,0-0.7,0.3-0.8,0.6c-0.1,0.2-0.1,0.4-0.1,0.6v10.4c0,0.5,0.2,0.8,0.4,1.1c0.1,0.1,0.3,0.2,0.5,0.2
		c0.6,0,0.8-0.3,0.9-0.6c0.1-0.2,0.1-0.4,0.1-0.6v-2.4H-113.4z"/>
	<path class="st2" d="M-111.9,416.9h2.6v17.6h-2.6V416.9z"/>
	<path class="st2" d="M-103.1,421.6c0-0.6,0-1.2-0.2-1.7c-0.2-0.5-0.4-0.8-0.8-0.8c-0.7,0-0.9,0.7-0.9,1.8c0,0.6,0.3,1.2,0.6,1.9
		s0.9,1.4,1.4,2.1c0.6,0.9,1.2,1.8,1.7,2.7c0.5,0.9,0.8,1.8,0.8,2.8c0,1.2-0.2,2.3-0.7,3.1c-0.6,0.8-1.4,1.3-2.9,1.3
		c-1.7,0-2.6-0.6-3.1-1.6c-0.5-1-0.6-2.2-0.6-3.6l2.5-0.2c0,0.7,0,1.5,0.2,2c0.2,0.6,0.5,1,1,1c0.8,0,1.1-0.8,1.1-1.9
		c0-0.6-0.3-1.2-0.7-1.9c-0.2-0.3-0.4-0.7-0.7-1.1c-0.5-0.7-1.1-1.5-1.6-2.4c-0.6-0.9-1-1.8-1.3-2.7c-0.1-0.5-0.2-0.9-0.2-1.4
		c0-1,0.2-2,0.8-2.8c0.6-0.8,1.4-1.3,2.6-1.3c1.6,0,2.5,0.6,3,1.6c0.5,1,0.6,2.1,0.6,3.1L-103.1,421.6z"/>
	<path class="st2" d="M-94.8,421.6c0-0.6,0-1.2-0.2-1.7c-0.2-0.5-0.4-0.8-0.8-0.8c-0.7,0-0.9,0.7-0.9,1.8c0,0.6,0.3,1.2,0.6,1.9
		s0.9,1.4,1.4,2.1c0.6,0.9,1.2,1.8,1.7,2.7c0.5,0.9,0.8,1.8,0.8,2.8c0,1.2-0.2,2.3-0.7,3.1c-0.6,0.8-1.4,1.3-2.9,1.3
		c-1.7,0-2.6-0.6-3.1-1.6c-0.5-1-0.6-2.2-0.6-3.6l2.5-0.2c0,0.7,0,1.5,0.2,2c0.2,0.6,0.5,1,1,1c0.8,0,1.1-0.8,1.1-1.9
		c0-0.6-0.3-1.2-0.7-1.9c-0.2-0.3-0.4-0.7-0.7-1.1c-0.5-0.7-1.1-1.5-1.6-2.4c-0.6-0.9-1-1.8-1.3-2.7c-0.1-0.5-0.2-0.9-0.2-1.4
		c0-1,0.2-2,0.8-2.8c0.6-0.8,1.4-1.3,2.6-1.3c1.6,0,2.5,0.6,3,1.6c0.5,1,0.6,2.1,0.6,3.1L-94.8,421.6z"/>
	<path class="st2" d="M-90.9,416.9h5.9v2.7h-3.3v4.6h2.4v2.8h-2.4v4.8h3.3v2.7h-5.9V416.9z"/>
</g>
</svg>
