<?xml version="1.0" encoding="utf-8"?>
<!-- Generator: Adobe Illustrator 19.0.0, SVG Export Plug-In . SVG Version: 6.00 Build 0)  -->
<svg version="1.1" id="Layer_1" xmlns="http://www.w3.org/2000/svg" xmlns:xlink="http://www.w3.org/1999/xlink" x="0px" y="0px"
	 viewBox="177.9 6.9 805.2 806.1" style="enable-background:new 177.9 6.9 805.2 806.1;" xml:space="preserve">
<style type="text/css">
	.st0{fill:url(#_x23_0080ebff_1_);}
</style>
<linearGradient id="_x23_0080ebff_1_" gradientUnits="userSpaceOnUse" x1="580.5167" y1="813" x2="580.5167" y2="6.89">
	<stop  offset="0" style="stop-color:#005BDC"/>
	<stop  offset="1" style="stop-color:#00A1F8"/>
</linearGradient>
<path id="_x23_0080ebff" class="st0" d="M580.4,6.9L580.4,6.9c6.5,12.2,12.4,24.7,18.7,37c37.4,74.7,74.6,149.4,112,224
	c-12.3,16.3-25.3,32.1-37.5,48.6c-6.5,11.5-11.8,23.7-18,35.3c-25-50-49.8-100.2-75.1-150c-45.4,91-90.9,182.1-136.5,273
	c-5.7,8.2-12.2,15.8-18.3,23.8c-47.6,61-95.2,122.1-142.8,183.1c-20.4-22.4-38.4-47.1-53.1-73.5c46.3-59.2,92.4-118.5,138.6-177.8
	c2-2.6,3.2-5.6,4.6-8.5C442.2,283.6,511.4,145.3,580.4,6.9z M320.7,102C377.1,54.3,446.8,22.4,520,11.4
	c-19.1,38.4-38.3,76.7-57.4,115c-30.1,12.5-58.1,30.2-82.7,51.5C360.1,152.6,340.3,127.4,320.7,102z M641.1,11.4
	c41,6.3,81,18.8,118.1,37.3c29.1,14.4,56.3,32.4,81.1,53.3c-19.5,25.5-39.4,50.6-59.1,76c-24.7-21.3-52.6-39-82.7-51.5
	C679.4,88.1,660.1,49.8,641.1,11.4z M278.5,143.4c1.5-1.6,2.8-3.4,4.5-4.8c35.3,45.1,70.5,90.3,105.7,135.5
	c-14.3,28.8-28.7,57.5-43.1,86.2c-38.8-49.4-77.2-99-115.9-148.5C243.6,187.4,259.9,164.4,278.5,143.4z M717.6,344.4
	c53.4-68.7,107-137.3,160.4-205.9c20.7,22.1,38.2,47.1,53.3,73.3c-46.6,59.9-93.3,119.6-139.8,179.5
	c-69.5,138.6-138.7,277.4-208,416.2c-1,1.8-1.7,4-3.1,5.5C537,726,493.4,639.1,450,552.1c12.5-15.9,24.9-31.9,37.3-47.8
	c6.2-11.8,12-23.8,18-35.8c25.3,49.7,49.9,99.7,74.9,149.5c1.6-1.1,2-3.3,3-4.9C628.1,523.6,672.7,433.9,717.6,344.4z M204.5,264.8
	c1.6,0.9,2.4,2.6,3.6,4c23.3,29.8,46.5,59.6,69.7,89.5c-5.9,34.2-6,69.4-0.1,103.7c-24.4,31.2-48.6,62.6-73.1,93.6
	c-13.8-36.1-22.7-74.1-25.7-112.6c-1.5-16.3-0.9-32.6-1-49C179.6,349.8,188.8,306,204.5,264.8z M952.9,268.8c1.1-1.4,2-3,3.6-4
	c15.7,41.2,25,85,26.5,129.1c-0.1,16.3,0.6,32.7-0.9,48.9c-3.1,38.6-11.9,76.6-25.8,112.8c-24.4-31.1-48.7-62.4-73.1-93.6
	c5.9-34.2,5.9-69.4-0.1-103.6C906.5,328.5,929.7,298.6,952.9,268.8z M772.4,546c14.4-28.7,28.5-57.6,43.2-86.2
	c36.2,46.5,72.5,93,108.8,139.6c2.1,3.1,5.3,5.8,6.7,9.3c-14.9,26.2-32.6,50.8-52.9,73C842.9,636.5,807.6,591.3,772.4,546z
	 M320.8,717.9c19.7-25.2,39.3-50.4,58.9-75.6c24.4,21.4,52.5,38.6,82.4,51.3c4.9,8.5,8.9,17.7,13.5,26.5
	c14.8,29.5,29.4,59.1,44.3,88.5c-61.8-9.4-121.3-33.3-172.2-69.6C338.6,732.4,329.2,725.7,320.8,717.9z M699.4,693.4
	c29.6-12.6,57.4-29.7,81.7-50.9c1.6,1.1,2.6,2.8,3.8,4.3c18.5,23.7,36.9,47.4,55.4,71c-21,18.4-44.5,33.9-69,47.3
	c-40.5,21.9-84.8,36.5-130.2,43.5c18.7-36.9,37-74.1,55.6-111.1C697.5,696.2,697.8,694.2,699.4,693.4z"/>
</svg>
