<svg id="Layer_1" xmlns="http://www.w3.org/2000/svg" viewBox="281 -143.1 1158 1014.1"><style>.st0{fill:#848484;} .st1{fill:#142031;} .st2{fill:#A7A8AC;} .st3{fill:#D0D1D3;} .st4{fill:#22A3DD;} .st5{fill:#0F74BC;} .st6{fill:url(#SVGID_1_);} .st7{fill:url(#SVGID_2_);} .st8{fill:#127BC1;} .st9{fill:url(#SVGID_3_);} .st10{fill:#17263A;} .st11{fill:#22A1DB;} .st12{fill:url(#SVGID_4_);} .st13{fill:url(#SVGID_5_);} .st14{fill:url(#SVGID_6_);} .st15{fill:url(#SVGID_7_);} .st16{fill:#F2F2F2;} .st17{fill:#0F1723;} .st18{fill:#FFFFFF;} .st19{fill:#C2C2C2;} .st20{fill:#CCCCCC;} .st21{fill:#B3B3B3;} .st22{fill:#949494;} .st23{fill:url(#SVGID_8_);} .st24{fill:#19293E;} .st25{fill:#25A9E1;} .st26{fill:url(#SVGID_9_);} .st27{fill:url(#SVGID_10_);} .st28{fill:url(#SVGID_11_);} .st29{fill:#0E75BD;} .st30{fill:url(#SVGID_12_);} .st31{fill:url(#SVGID_13_);} .st32{fill:url(#SVGID_14_);} .st33{fill:#FEFEFE;} .st34{fill:#D6DD1F;} .st35{fill:#FBFBFA;} .st36{fill:#24A9E1;} .st37{fill:#F9F9F9;} .st38{fill:url(#SVGID_15_);} .st39{fill:url(#SVGID_16_);} .st40{fill:url(#SVGID_17_);} .st41{fill:url(#SVGID_18_);} .st42{fill:url(#SVGID_19_);} .st43{fill:url(#SVGID_20_);} .st44{fill:url(#SVGID_21_);}</style><g id="_x23_848484ff_1_"><path class="st0" d="M473.2 145.3V-33c.1-2.9 0-5.8 0-8.7-.1-4.9-.1-9.9.4-14.9l.4-4 2.9 2.7 1.1 1.1.1.1c4 4 8 8.1 11.8 12.1l3.4 3.5H519.6c6.7 0 11.8 0 16.6.1.5 0 1 .1 1.4.1 3.8.2 8.5.5 11.6 3.9l.1.1.1.1c2.6 3.5 2.7 7.8 2.9 11.6 0 .7 0 1.4.1 2.1.1 23.3.1 42.4 0 60.1v1.1c-.1 4.5-.2 10.1-4.2 13.7.5.3.9.7 1.3 1.2l.1.1.1.1c2.4 3.1 2.6 7 2.7 10.5 0 .5 0 .9.1 1.4.2 13.3.2 27.6 0 45.1 0 3.1-.3 6.2-.8 9.4l4.3 1.5c3.5 1.2 7 2.4 10.6 3.6l2.2.8-1.2 2.2c-.4.7-.7 1.3-1.1 2l-.4.9-1 .2c-16.5 3.1-33.3 6.3-49.5 9.4-13 2.5-26.5 5.1-39.7 7.5l-2.4.4-.3-2.8zm22-90.3v76.1c8.5-1.6 17.1-3.2 25.5-4.7 6.7-1.2 13.4-2.4 20.1-3.7-1.2-1-2.3-2-3.5-3-2.3-2-4.6-4-6.8-6l-.7-.6.1-1c.4-7.3.4-14.8.3-22 0-4.7-.1-9.5 0-14.2v-1.7c0-3.5-.2-4.8-1.7-5.3-1.7-.5-3.7-.8-6.3-.8-1.4 0-2.9.1-4.3.1-1.5.1-3 .1-4.5.1-.9 0-1.7 0-2.4-.1h-.7l-.5-.4c-3.1-2.6-6.1-5.3-9.1-7.9-1.8-1.6-3.7-3.2-5.5-4.9zm29.8-5.9c5.1 0 9.2 0 12.9.1l1.1.1c.9.1 1.9.1 2.9.3-2.7-3.2-5.4-6.4-8-9.5-1.4-1.7-2.8-3.3-4.2-5l-.7-.8.2-1c.5-2.1.7-4.4.7-7.4v-19V-14.3c.1-1.1-.6-2.2-1.4-3.4-.2-.2-.6-.2-1.6-.2H517.5c-2.3 0-4.3 0-6.2-.1h-.8l-.6-.6c-1.9-2-3.9-4-5.8-5.9-2.9-2.9-5.9-6-8.8-9v82.7c3.8.1 7.9.1 13 .1h8.4c2.7-.2 5.5-.2 8.3-.2z"/><path class="st0" d="M475.2-33.1c.2-7.8-.4-15.6.4-23.3.3.3.9.8 1.1 1.1 5.3 5.3 10.5 10.7 15.7 16.1 14.6.1 29.1-.1 43.7.2 4 .3 8.7.2 11.6 3.3 2.7 3.6 2.3 8.4 2.5 12.6.1 20 .1 40 0 60-.1 4.9 0 10.8-4.4 13.9-4.9-5.6-9.7-11.4-14.5-17.1.7-2.6.8-5.3.8-7.9-.1-13.3 0-26.7-.1-40 .1-1.8-.8-3.3-1.8-4.7-1-1.4-2.7-1.1-4.2-1.1-4.9 0-9.9.1-14.8 0-6-6.2-12.2-12.3-18.1-18.6v172.2c.3-.1.8-.2 1.1-.2 16.9-3.2 33.9-6.2 50.9-9.3-4.4-4-9-7.8-13.4-11.8.7-12.1.1-24.3.3-36.4-.1-3.1.7-7.6-3.1-8.9-5.8-1.7-12-.3-17.9-.7-5.9-5-11.6-10.3-17.5-15.3 14.8.3 29.6-.1 44.3.2 3.4.3 7.4.3 9.9 3 2.3 3 2.2 7.1 2.4 10.7.2 15 .1 30 0 45 0 3.6-.4 7.2-1.2 10.8 5.5 1.9 11 3.8 16.5 5.6-.4.7-.8 1.4-1.1 2.1-29.8 5.5-59.5 11.3-89.3 16.9.2-59.5.2-118.9.2-178.4zM582-42.2c.2-1.7.1-3.3 0-5-.1-3.1-.3-6.3.8-9.3l1.1-3 2.7 2.8c2.9 3.1 6 6.2 8.9 9.2 2.9 3 6 6.1 8.9 9.2l.6.6v147.6c4.5-.7 9-1.5 13.5-2.2 7.1-1.2 14.5-2.4 21.7-3.5l1-.2.7.8c1.7 1.8 3.6 3.7 5.8 5.8l2-.3.7 3.9c-22 4.2-44 8.4-66 12.5l-2.4.3V-42.2z"/><path class="st0" d="M584-42.1c.4-4.5-.9-9.5.7-13.8l.5.5c5.9 6.2 11.9 12.2 17.8 18.3V112c12.5-2 25-4.2 37.5-6.1 2.1 2.2 4.3 4.4 6.6 6.6.7-.1 2.2-.4 2.9-.5-22 4.2-44 8.4-66 12.5V-42.1zM677.3 108.5c-3.5-1.5-5.6-5.1-7-7.6l-.1-.1c-4.2-8.5-4.1-17.9-4.1-27V69 22c0-25.3 0-51.5.1-77.2l3.9-.7c.5 1.3.9 2.2 1.6 2.9l.1.1c1.8 1.8 3.6 3.6 5.4 5.5 3.5 3.5 7.1 7.2 10.6 10.9l.5.6v.8c-.1 22.3 0 45 0 67v48.3c0 3.6.7 8.4 4.2 11.1 1.9 1.5 4.4 2.2 7.5 2.2 1.5 0 3-.2 4.6-.5 4.2-.8 8.4-1.4 12.4-2 3.1-.5 6.4-.9 9.5-1.5 1.7-.4 3.6-.6 5.3-.8 2.5-.3 4.9-.6 7.1-1.2-3.1-1.3-6.4-2.4-9.5-3.4-1.9-.6-3.8-1.3-5.7-2l-1.1-.4-.2-1.1c-.3-1.5-.4-3-.4-4.5.1-18.5 0-37.5 0-55.7 0-24.6-.1-50.1.1-75.1v-1l.7-.6c.3-.2.9-.7 1.2-.9l1.6-1.2 1.7 2.1c4 5 8.1 10.1 12.1 14.9 1.8 2.2 3.7 4.5 5.5 6.7 1.1 1.2 1.6 2.8 1.5 4.8v116c3.3 1.2 6.7 2.4 10 3.8l3.9 1.7-3.8 1.9c-1.4.7-2.8 1.2-4.3 1.4-10.8 2-21.9 4.1-32.6 6.2-13.5 2.6-27.5 5.3-41.3 7.8l-.6.1-.4-.5z"/><path class="st0" d="M668.2 68.9c.1-41.4-.1-82.8.1-124.2.5 1.3 1.1 2.7 2.2 3.7 5.3 5.4 10.8 10.7 15.9 16.3-.1 38.4 0 76.9 0 115.3 0 4.6 1.1 9.7 4.9 12.7 3.9 3 9.2 3.1 13.8 2.1 7.2-1.4 14.6-2.2 21.9-3.5 5.7-1.1 11.9-.7 16.9-4-6.2-3-12.9-4.9-19.4-7.2-.3-1.4-.4-2.7-.3-4.1.2-43.6-.2-87.3.2-130.9.3-.2.9-.7 1.2-.9l.5.6c5.8 7.3 11.8 14.5 17.7 21.7.9.9 1.1 2.2 1 3.4V87.4c3.8 1.3 7.5 2.6 11.2 4.2-1.2.6-2.4 1-3.7 1.2-24.7 4.6-49.3 9.5-74 13.9-2.8-1.2-4.6-4.2-6.1-6.8-4.9-9.6-3.9-20.6-4-31zM775 81.4c.1-45 .1-91.5 0-137.3v-5.3l4 4.5c3 3.3 6.2 6.5 9.3 9.7 3.2 3.2 6.4 6.5 9.5 9.9l.5.6v.8c-.3 13-.3 26.3-.2 39.2 0 6 .1 12 0 18.1-.1 16.9-.1 34.4 0 52.1.7-.1 1.3-.2 2-.3 8.1-1 16.4-2 24.4-3 7.6-.9 15.5-1.9 23.2-2.8l2.8-.4-2.1 9.2-1.3.2c-7.7 1.4-15.3 2.9-23 4.4-15.3 2.9-31.2 6-46.8 8.7l-2.3.4v-8.7z"/><path class="st0" d="M776.9-55.9l.5.5c6 6.7 12.7 12.9 18.8 19.6-.5 19.1-.2 38.2-.2 57.3-.1 18.2-.1 36.3 0 54.5 1.4-.2 2.9-.5 4.3-.7 15.8-2 31.7-3.8 47.6-5.8l-1.2 5.1c-23.2 4.4-46.4 9-69.7 13.1 0-47.8.1-95.7-.1-143.6zM1055.4 111.3c-5.8-.8-11.5-1.9-17.1-3.1-3.9-.8-7.9-1.6-11.8-2.2l-1.4-.2-.2-1.4c-1.1-6.5-2.1-13.2-3.1-19.6-.5-3.4-1-6.8-1.6-10.2H1000.8l-.6-.9-4.5-6.6c-1.8-2.6-3.6-5.3-5.4-7.9-.1.5-.2 1-.4 1.5-.8 3.6-1.7 7.3-3.4 10.7l-3.2 6.7-.6-7.4c-.2-2.8.1-5.5.5-8 .1-1.1.3-2.1.4-3.2 1.5-11.2 3-23 4.3-35-1.4 1.5-2.8 2.9-4.1 4.4-2.7 3-5.5 6-8.6 8.8l-4.6 4.1 1.3-6c1.6-7.6 3.2-15.3 4.8-22.9 4.7-22.7 9.7-46.2 14.7-69.3l.7-3.1 3.3 2.6c5.6 4.4 11.5 8.7 17.1 12.9l1.7 1.3.2.6.1-.1.8 3.3.1.5.2.8c4.9 20.3 9.9 41 14.8 60.9l8.1 33v.2l.1.5c1.8 11 3.6 22.5 5.3 33.7.1.5.2 1 .2 1.6.2 1.6.4 3 1.3 3.8l.1.1.1.1c1.3 1.3 2.6 2.7 3.9 4 2.5 2.5 5.1 5.1 7.6 7.8l3.7 4.1-5.4-.9zm-62.1-59.4h35.7c-.5-.4-1-.8-1.5-1.1-3.3-2.5-6.5-5-9.8-7.5l-1.7-.7-.3-1c-.6-2.4-1.3-4.9-1.9-7.3-1.1-4.3-2.2-8.7-3.4-12.9l-.1-.3v-.3c.2-12.2.1-24.6.1-36.7v-6.8c-2.4 10.1-4.9 20.2-7.3 30-3.6 14.6-7.2 29.7-10.8 44.6h1z"/><path class="st0" d="M973.9 36.3c6.5-30.8 12.8-61.6 19.5-92.2l.8.6c6 4.7 12.2 9.2 18.4 13.8.3.9.5 1.9.8 2.8-1.1 2.1-2.1 4.2-2.6 6.5-6.8 28.7-14 57.3-20.8 86.1h45c-5.4-4.1-10.8-8.3-16.1-12.4-.3-.1-.8-.3-1-.4-1.8-6.8-3.3-13.6-5.3-20.3.3-18 .1-35.9.1-53.9 0-1.5.4-2.8 1.2-4.1 7.5 31.3 15.3 62.6 22.9 93.9l5.4 34.2c.4 2.3.3 5 2.3 6.7 3.8 3.9 7.8 7.7 11.4 11.7-9.7-1.4-19.3-3.6-28.9-5.3-1.8-10.5-3.3-21-5-31.5-6.7 0-13.4-.1-20.1 0-4.2-6-8.2-12.1-12.5-18-1.6 5.3-2.3 10.9-4.7 16-.3-3.6.5-7.2.9-10.9 1.8-13.5 3.5-27 4.9-40.6-5.9 5.5-10.7 11.9-16.6 17.3zM1110.6 76.5c-1.2-4.9-2.3-9.9-3.3-14.7-1.5-6.7-3-13.7-4.8-20.5l-.2-.7.3-.7c.7-1.4 1.1-2.8 1.2-4.2 2-12.5 4.1-25 6.2-37.2 3-17.6 6-35.7 8.8-53.6l.9-5.7 2.9 5.3c3.3 5 7.1 9.8 10.7 14.4 1.6 2 3.1 4 4.7 6l.6.7-.2.9c-4.9 23.4-10.1 47.1-15.2 70l-8.7 39.9-3.9.1z"/><path class="st0" d="M1120.7-54.7l.1.3c4.7 7.1 10.3 13.7 15.5 20.6-7.7 36.7-15.9 73.3-23.9 109.9-2.9-11.7-5-23.6-8.2-35.2.7-1.5 1.2-3.1 1.4-4.8 5.1-30.3 10.4-60.5 15.1-90.8zM1121.2 123.9c-1.3 0-2.5-.3-3.6-.5-.4-.1-.9-.2-1.3-.3l-6.4-1.2c-7.5-1.4-15.1-2.9-22.6-4.3l-1.4-.3-.2-1.4c-.6-4.1-.6-8.2-.5-12.2 0-1.6.1-3.3 0-4.9v-.1c.1-1-.5-2.1-1-3.2l-.1-.3V95c-2-7.3-3.7-14.7-5.3-22-1-4.3-2-8.8-3-13.2-5.7-25-11.4-49.9-17.1-74.9l-7.3-31.9c-.1-.6-.3-1.2-.4-1.8-.5-1.9-1-3.9-.8-6l.4-4 3 2.6c3.9 3.5 7.6 7.2 11.1 10.9 2.3 2.4 4.8 4.9 7.2 7.2.3.4.7.7 1 1 1.4 1.3 3.1 3 3.5 5.5l3.3 14c7.9 34.1 16.1 69.4 24.3 104.1 1.4 4.7 1.3 9.6 1.2 14.2 0 1.9-.1 3.8 0 5.7 2.2 1.6 4.4 3.2 6.6 4.7 4 2.8 8.2 5.8 12.1 9l3.3 2.7-4.2.8c-.8.3-1.3.3-1.8.3z"/><path class="st0" d="M1052.1-54.5c6.4 5.7 12.1 12.1 18.3 18.1 1.5 1.6 3.5 3 3.8 5.4 9.2 39.4 18.3 78.9 27.6 118.3 2 6.6.8 13.6 1.2 20.4 6.4 4.8 13.2 9.1 19.4 14.2-2 .4-3.9-.3-5.8-.6-9.7-1.9-19.3-3.7-29-5.5-.9-5.6-.4-11.2-.4-16.8.1-1.6-.6-3-1.3-4.3-3.2-11.6-5.4-23.4-8.3-35.1-8.1-35.6-16.2-71.2-24.4-106.8-.4-2.5-1.3-4.9-1.1-7.3zM1234.6 145.7c-.4 0-.8-.1-1.1-.2-19.5-3.7-39-7.4-58.5-11.2l-4.8-.9-.2-1.4c-.5-4.1-.9-8.2-1.4-12.2-.2-2-.4-4.1-.7-6.1l-.3-2.7 2.6.5c8.3 1.5 16.8 3 25 4.5 8 1.5 16.3 3 24.5 4.4l-5.1-7.2c-2.2-3.1-4.5-6.3-6.7-9.5l-.6-.9.4-1c.5-1.3 1.1-3 1-4.7V86.7c0-5.2 0-10.5-.1-15.7v-.3c-.2-2.1-.4-2.8-.8-2.8h-.1c-2.3-.2-4.8-.2-8-.2h-9.6c-2.7 0-4.9 0-6.9-.2-4.7-.4-10.5-1.5-14.2-5.8-4.9-5.7-5.7-13.3-5.7-20.7v-68c0-5.7.5-14.1 5.4-20.6l1.4-1.9 1.6 1.7 9.3 9.3c1 .9 1.9 1.9 2.9 2.8 2.5-2.6 5.1-3.9 8-3.9h.2c5.2 0 10.9-.1 18-.1h33.7l.3 1.6c.9 4.9 1.7 9.9 2.4 14.7.3 2.1.7 4.3 1 6.4l.4 2.3H1207.3c-2 0-3.6.1-5 .8l-1.2.6-1-.9c-2-1.8-4.1-3.6-6.1-5.5-2.3-2.1-4.7-4.2-7-6.3v66.9c-.1 2.3.4 4.5 1.3 6.4 1.1.9 2.7 1.8 4.6 1.8h.3c2 0 4.1.1 6.6.1h11.9c3.6 0 6.5 0 9.2.1 5.8.3 10.5 5.6 10.4 11.7.1 9 .1 18.3.1 27.2v22.2c0 4.6 0 9.8-3 13.9 2.3 3.7 4.6 7.5 6.9 11.1 1.2 2 2.5 4 3.7 5.9l1.1 1.8-1.9 1c-.1.1-.4.2-.6.4-.8.5-1.7 1.2-3 1.2z"/><path class="st0" d="M1165.3-27.1c0-6.7.9-13.9 5-19.4 4.5 4.6 9.2 9.1 13.8 13.6 1.9-2.5 4.6-4.9 8-4.8 16.7-.2 33.4 0 50.1-.1 1.3 7 2.3 14.1 3.4 21.1h-35.5c-2.9 0-6-.3-8.7 1-5.5-4.9-10.9-9.9-16.4-14.7-.1 23.8 0 47.5 0 71.3-.1 2.7.5 5.3 1.7 7.7 1.8 1.6 4.1 2.6 6.5 2.5 9.2.2 18.5-.2 27.7.2 4.9.3 8.6 4.9 8.5 9.7.2 15.6 0 31.3.1 46.9-.1 5.5.6 11.8-3.4 16.2 3.7 6.1 7.6 12.2 11.3 18.3-1 .5-1.9 1.9-3.2 1.3-20.7-3.9-41.4-7.9-62.1-11.9-.7-6.1-1.4-12.2-2-18.3 18.1 3.2 36.1 6.6 54.2 9.7-4.7-6.9-9.7-13.7-14.5-20.6.7-1.8 1.2-3.6 1.2-5.5-.1-8.7.1-17.4-.1-26.1-.2-1.9-.2-5-2.8-5-8.2-.5-16.4.1-24.6-.3-4.6-.4-9.7-1.4-12.8-5.1-4.6-5.3-5.2-12.7-5.2-19.5-.3-22.9-.2-45.5-.2-68.2zM828.7-14.5c-6.2 0-11-.1-15.6-.2h-.9l-.6-.7c-3-3.9-6.4-7.5-9.7-11.1-2.2-2.3-4.4-4.7-6.6-7.2l-2.9-3.3h58.3l.3 1.7c.4 2.2.7 4.4 1.1 6.6.6 3.9 1.3 7.9 1.9 11.9l.3 2.3h-25.6z"/><path class="st0" d="M796.8-35H849c1 6.2 2 12.3 3 18.5-12.9-.1-25.9.3-38.8-.2-5-6.5-11-12.1-16.4-18.3zM924.6 75.2c-1-1.4-2.1-2.8-3.1-4.2-2.3-3.1-4.7-6.3-6.9-9.5l-.4-.5v-.6c.2-19.6.1-39.6.1-58.9v-16h-38.7l.3-2.2c.5-4 1.1-8.1 1.8-12 .4-2.2.7-4.4 1.1-6.7l.2-1.6h10.1c3.9 0 7.8 0 11.7.1 3.9 0 7.8.1 11.7.1 8.4 0 14.9-.1 21-.4l2.1-.1v2.1c-.3 19.2-.3 38.7-.2 57.6 0 15.4 0 31.3-.1 46.9v.1l-.2 1.6-.9.5c-1.6.9-3.2 1.9-4.8 3-.7.5-1.4.9-2.1 1.4l-1.6 1-1.1-1.7z"/><path class="st0" d="M880.7-35c17.6-.2 35.3.4 52.9-.3-.5 34.8 0 69.7-.3 104.5v.4c-2.5 1.3-4.7 3-7 4.5-3.3-4.5-6.8-9-10-13.6.2-25.6.1-51.3.1-76.9-12.8-.1-25.7 0-38.5 0 .7-6.3 1.9-12.4 2.8-18.6zM842.4 42.7c-2.3-.1-4.8-.1-7.9-.1h-10.8c-4.3 0-7.6-.1-10.6-.2l-1.2-.1-.5-1.1c-.7-1.4-1.9-2.5-3.1-3.7-.3-.3-.6-.6-1-.9-1.3-1.2-2.6-2.5-3.9-3.8-2.3-2.3-4.7-4.6-7.1-6.8l-1.6-1.5 1.6-1.5c2-1.8 4.4-1.8 6.4-1.8h40.9l.1 1.9c.2 2.3.1 4.6 0 6.8-.1 3.5-.2 6.9.5 10.1l.5 2.6-2.3.1z"/><path class="st0" d="M797.7 24.6c1.5-1.3 3.5-1.3 5.4-1.3 12.9.1 25.8 0 38.7 0 .4 5.7-.8 11.6.6 17.3v.1c-9.8-.3-19.5.2-29.3-.2-1-2.1-2.8-3.6-4.5-5.2-3.6-3.6-7.2-7.2-10.9-10.7zM912.6 84.2c-5.4-1-10.7-2-16.1-3.1-10.5-2-21.3-4-32-6.2l-.9-.2-.5-.8c-1.8-2.9-2.8-6.7-3.1-11.6v-.4c.8-5.2.7-10.7.6-15.9-.1-4.1-.1-8.4.2-12.6l.3-4.2 3 2.9c3.8 3.6 7.5 7.4 11.1 11l5.4 5.4.5.5.1.7c.1 1.7.1 3.4 0 5.1-.1 2.8-.2 5.5.7 7.9 1.5 1.3 3.6 2.2 6.4 2.9 7.6 1.8 15.4 3.3 22.9 4.8 4.4.9 8.9 1.8 13.3 2.7l4.5.9-3.7 2.6c-3 2.1-6.2 4-9.2 5.9l-2.8 1.7h-.7z"/><path class="st0" d="M862.8 33.7c5.6 5.3 11 10.9 16.5 16.3.4 4.6-.9 9.6 1 14 2.1 2 4.9 3 7.6 3.7 12 2.8 24.2 5 36.3 7.5-3.6 2.6-7.5 4.8-11.2 7.1-16-3.1-32.1-6-48.1-9.2-1.9-3.1-2.6-7-2.9-10.7 1.5-9.6.1-19.2.8-28.7z"/></g><g id="_x23_142031ff_1_"><path class="st1" d="M527.2 383.4c-.6-.7-1.3-1.4-1.9-2l-1.7-1.7-.3-.3-.1-.4c-16.9-50.6-27.8-103.5-32.4-157l-.1-.8c-.3-2.9-.6-5.8-.3-8.9l.6-6.2 3.2 5.4c7.6 12.9 15.1 25.7 22.6 38.6 7.2 12.4 14.5 24.7 21.7 37.1 3 5.2 6.1 10.4 9.1 15.6 4.8 8.2 9.8 16.8 14.7 25.1l1.4.5c-2.8 8-5.4 16.8-7.6 25.9-.6 2.9-2.2 5.5-4.6 7.3-7 5.5-13.8 12.4-21.1 21.7l-1.5 1.8-1.7-1.7z"/><path class="st1" d="M492.3 212.6c14.8 25.2 29.5 50.5 44.3 75.7 8.1 13.8 16.1 27.7 24.3 41.4.2-.5.6-1.4.8-1.9-3 8.6-5.5 17.3-7.7 26.1-.5 2.4-1.8 4.7-3.8 6.2-8.1 6.3-15.1 14-21.5 22-1.2-1.3-2.4-2.5-3.6-3.8-16.9-50.6-27.7-103.3-32.3-156.5-.4-3.1-.7-6.2-.5-9.2z"/></g><g id="_x23_a7a8acff_1_"><path class="st2" d="M541 686.4c-2-1.1-3-2.9-3.8-4.5-.2-.4-.4-.8-.7-1.2-11-18.7-18.1-35.9-21.7-52.5-4.2-19.4-2.9-40.1 3.7-59.8 5.2-15.6 13.4-31.4 25.8-49.6.7-1 1.3-1.9 1.9-2.8 2.4-3.6 4.9-7.3 8.8-9.8 6.3-4.3 14.2-5 21-5.1h.8c16.2 0 31.7 4.5 47.5 9.4 4.5 1.4 9.1 3.1 13.5 4.8-11.3-7.4-23-14.5-35.6-19.3-8.5-3.3-17.3-4.9-26.1-4.9-4.3 0-8.6.4-12.8 1.2l-2.3.5-.1-2.3c-.1-2.4 1.4-4 2.5-5.2.3-.3.6-.7.8-1 7.1-8.6 16.2-16.2 27.7-23.3 2.3-1.4 4.9-2 8-2 3.2 0 6.4.7 9.4 1.5 10.7 2.8 20.6 7.9 30.2 12.8 3.6 1.8 7.3 3.7 10.9 5.5 20.4 10.1 37.8 17.8 56.3 22.4 11.4 2.9 22.8 4.3 34 4.3 8.3 0 16.4-.8 24.2-2.4 14.2-2.8 28.3-8.3 41.9-16.3.8-.5 2.4-1.4 4.1-1.4 1.8 0 3.3 1 3.9 2.7v.1c2.7 8.2 2.8 17 2.7 24.6-.4 10-1.3 20.1-2.1 29.8-1.3 15.4-2.7 31.4-2.2 47.1.5 18.9 3.4 34.7 8.8 48.2.5 1.3 1 2.7 1.3 4.5l.4 1.9-1.8.5c-2.6.7-5.2.9-7.8 1.2-2 .2-3.9.4-5.8.7-20.8 3.1-40 11.7-55.7 24.8l-2.3 1.9-.9-2.8c-3.8-11.9-8.1-21-13.6-28.6l-1.8-2.6 3.1-.6c10.1-1.8 19.5-6.4 28.6-11.2-9.5-1.9-19.7-2.8-30.8-2.8-7.4 0-15.2.4-23.8 1.2-39.8 4.3-78.3 18.7-110.6 32.1-2.5 1-5 2.1-7.5 3.2-3.4 1.5-6.9 3.1-10.5 4.3l-2.1-3.3c9-9.7 20.8-17.7 37.2-25.3 3.2-1.5 6.5-2.8 9.8-4.1 7.2-2.9 14.7-5.9 21-10.7 12.5-9.4 28.4-15.7 48.3-19.3 10.7-2 21.4-3.1 31.8-3.1 14.7 0 28.8 2.1 41.7 6.2 5 1.4 9.9 3.5 14.6 5.5 1.9.8 3.9 1.7 5.9 2.5.2-.5.2-1 .2-1.5v-.1c1.6-27.7-.8-50.8-7.4-70.5-.6-1.8-1.1-4.1.1-6.3 2.3-4.7 6.1-8.1 9.9-11.3-5.6-.6-11.2-.9-16.7-.9-14.5 0-28.3 2-41 6-16.7 5.2-32.9 14.5-46.8 26.9-12 10.6-22.1 23.6-30.5 35-1.1 1.4-2.1 2.9-3.1 4.4-1.9 2.8-4 5.8-6.5 8.4-4.9 5.2-11.5 9.5-19.4 12.8-15.9 6.7-31.4 13.6-44.9 23.4-16 11.4-29.7 26.5-40.8 44.9l-1 1.7-1.8-.5zm41.6-168c-5.7 0-10.8.6-15.8 2-2 .5-3.8 1.8-5.1 3.8-10 14.2-17.6 27.3-23.2 40.3-7.5 17.6-10.1 36.3-7.6 54.2 1.8 13.1 5.9 25.8 12.2 37.6 0-.1.1-.1.1-.2l.1-.1.1-.1c9.5-12 21-22.7 34.3-31.7 14.8-10 31-17.1 46.3-23.3 3.7-1.5 8.9-3.9 12-8.4 22.2-31 45.6-53.5 71.5-68.8 1.2-.7 2.4-1.4 3.7-2.1.7-.4 1.3-.7 2-1.1-18.7-3.5-36.8-10.5-52.8-17.3 1.2 1.9 2.3 3.9 3.2 6.1 3.9 8.8 4.7 19.1 2.2 29.1-2.2 8.9-7.1 17.5-15 26.3-11.5 12.8-26 23.6-41.9 31.1l-2.3-3.2c1.4-1.4 2.7-2.9 4.1-4.3 3.3-3.4 6.7-6.9 9.7-10.6 9-10.9 15.3-21.8 18.8-32.5-4.3 6.7-9.1 12.9-14.1 18.7-11 13.4-24.7 24.6-37.8 34.8l-.1.1c-1.4 1-2.8 2-4.3 3-5.1 3.7-10.4 7.5-16.3 10.3l-2.3-3.2c1.9-2.1 3.7-4.1 5.6-6.1 7.3-8 14.9-16.2 21.7-24.9 11.9-14.8 23.9-31 30.8-49.3 0-.2.1-.3.1-.5.1-.5.4-1.4.4-1.8-2.2-1.3-4.7-2-7.3-2.7-.8-.2-1.5-.4-2.3-.6-9.1-2.3-20-4.6-30.7-4.6zm48.1-29.9c-.7 0-1.4.4-1.8 1.1-.4.7-.1 1.1-.1 1.2 1.4 2.5 3.5 4.9 6.4 7.3 1.9-3.3 5.1-5.5 9.8-6.6-5.1-2-9.6-3-13.9-3h-.2c0 .1-.2 0-.2 0z"/><path class="st2" d="M592.8 462.7c4.8-2.9 10.7-1.6 15.8-.3 14.5 3.8 27.3 11.8 40.7 18.2 18.2 9 36.9 17.6 56.7 22.6 19.2 4.9 39.6 5.9 59.1 2 15-3 29.4-8.8 42.5-16.5 1.6-1 4.3-2 5.2.3 2.6 7.7 2.7 15.9 2.6 23.9-1 25.7-5.1 51.3-4.3 77 .5 16.6 2.8 33.4 9 48.9.5 1.3.9 2.7 1.2 4.1-4.4 1.1-9 1-13.5 1.9-20.7 3.1-40.5 11.8-56.6 25.3-3.3-10.3-7.6-20.3-13.8-29.1 12.2-2.2 23.2-8.1 34-13.9-19.8-4.7-40.4-4.7-60.6-2.7-38.6 4.2-75.5 17.4-111.2 32.3-6 2.4-11.8 5.4-17.9 7.5 10.2-10.9 23.2-18.6 36.6-24.8 10.4-4.8 21.8-8 31.1-15 13.8-10.4 30.6-15.9 47.5-19 24-4.5 49.2-4.3 72.6 3 7.6 2.1 14.6 5.8 21.9 8.6 1-1.1 1.5-2.5 1.5-3.9 1.4-23.9.1-48.4-7.5-71.3-.5-1.5-.9-3.3-.1-4.7 2.8-5.7 8.2-9.5 12.9-13.6-21-2.8-42.8-1.7-63.1 4.7-17.6 5.5-33.8 15.1-47.5 27.3-11.8 10.4-21.5 22.7-30.8 35.3-3.2 4.2-5.8 8.8-9.4 12.6-5.2 5.5-11.8 9.5-18.7 12.3-15.7 6.6-31.5 13.6-45.3 23.7-16.8 12-30.7 27.8-41.3 45.5-1.9-1.1-2.7-3.2-3.8-5-9.5-16.2-17.5-33.5-21.5-51.9-4.2-19.5-2.7-39.9 3.7-58.8 5.9-17.6 15.2-33.8 25.5-49.1 3.1-4.3 5.7-9.1 10.2-12.1 5.8-4 13.1-4.7 19.9-4.8 16.4-.2 32.2 4.5 47.7 9.3 9.3 2.9 18.2 6.8 27.3 10.1-.6-1.6-2.2-2.2-3.5-3.2-14.2-9.5-28.6-19.1-44.7-25.2-12.7-4.8-26.7-6.4-40-3.8-.1-2.1 1.8-3.4 2.9-4.9 7.5-9.1 16.9-16.5 27-22.8m34.3 29.1c2.1 3.8 5.4 6.9 8.9 9.5 2.2-6.9 9.9-8.5 16.2-8.7-6.6-3.3-13.8-6.1-21.3-6.1-2.6-.2-5.2 2.8-3.8 5.3m28.6 7.2c1.9 3.8 4.4 7.2 6.1 11 3.8 8.7 4.4 18.7 2.1 27.9-2.4 9.6-8 18.1-14.5 25.4-11.5 12.8-25.7 23.2-41.3 30.6 4.7-5 9.5-9.7 13.9-14.9 9.4-11.4 17.4-24.5 20.8-39 .1-1.3 1.2-3.1-.2-4-5.4 9.4-11.8 18.4-18.9 26.6-10.8 13.2-24.1 24.1-37.5 34.6-6.6 4.6-13 9.7-20.3 13.2 9.3-10.2 18.8-20.3 27.4-31.1 12.3-15.3 24.1-31.4 31.1-49.9.4-1.4 1.3-3.5-.2-4.5-3.1-1.9-6.8-2.6-10.2-3.6-15.4-3.8-31.9-6.9-47.6-2.7-2.6.6-4.8 2.4-6.3 4.6-9 12.8-17.2 26.2-23.3 40.6-7.4 17.3-10.4 36.6-7.8 55.3 1.9 13.4 6.2 26.6 12.6 38.5.7 1.9 2.8.9 3.5-.4 9.6-12.1 21.1-22.6 33.8-31.3 14.3-9.6 30-16.7 45.9-23.1 4.9-2 9.8-4.6 12.9-9.1 19.2-26.8 42.3-51.4 70.9-68.2 3.2-2.1 6.9-3.5 9.8-6.1-21.9-3.4-42.5-11.7-62.7-20.4z"/></g><g id="_x23_d0d1d3ff_1_"><path class="st3" d="M727.6 777.8c6.2-8 12.5-16.7 16.7-26.5 7.1-15.6 10.2-34 9.2-53.3-.5-4.6.9-8.9 3.9-11.7 10.9-10.8 24.4-18.8 39-23.1 9.3-2.7 19.5-4.1 30.3-4.1 1.5 0 3 0 4.4.1 5 .2 10.1.8 14.9 1.3 1.6.2 3.2.4 4.8.5-.7-1-1.5-2-2.3-3.1-.7-.9-1.4-1.8-2.1-2.8-10.5-14.5-17.1-32.8-19.2-52.9-1.9-19.3-.2-38.7 1.5-57.5 1.1-12.7 2.3-25.9 2.3-38.8-.1-10.4-1.9-19-5.5-26.2-.8-1.2-1.1-2.6-.9-3.8.2-1.1.8-2.1 1.7-2.8 7.8-8.4 12.7-18.8 13.7-29.3-13.7 13.6-27.2 24.1-41.1 32-17 9.7-35.3 15.3-53 16.1-2 .1-4 .2-6 .2-21.7 0-44.6-6.2-70.1-19l-3.4-1.7 3.3-1.8c3.4-1.9 6.6-2.8 9.5-2.8 1.1 0 2.1.1 3.1.4 6.5 1.3 13.2 2 19.9 2 12.3 0 24.1-2.2 35.2-6.6 13.2-5.1 26.1-13.2 39.2-24.9 10-8.8 19.3-18.6 28.4-28 6.3-6.6 12.8-13.5 19.5-19.9 7.3-6.9 15.4-14.5 25.1-19.7-2.3-.4-4.7-.6-7.1-.6-8 0-15.5 2.2-21.5 6.3l-3.4 2.3.3-4.1c1.2-18.9-2-36-9.4-49.5-1.8-3.3-.3-6.9 1.9-9 10.2-10.1 24.2-22.3 41.8-27.4 4.7-1.4 9.5-2.2 14.3-2.2 8.2 0 15.9 2.1 22.2 6.2 14 8.9 20.8 24.5 24 36.1 4.2 16.1 4.7 33.9 1.6 56.1-3.4 23-11.1 46.5-24.8 75.7 6.8-1.9 14.8-3.7 22.9-3.7 4.9 0 9.6.7 13.9 2 13.4 3.6 25 14.8 30.2 29.1 6.2 17.1 6.9 37.1 1.9 59.6-7.5 33-22.9 65.2-45.8 95.7-32.2 42.8-75.4 80.6-124.8 109.3-18.7 10.9-38.3 20.6-58.2 29l-7 3 5-6.2zm96.7-101.5c-1.4 0-2.9 0-4.2.1-15.4.8-31.2 6.7-44.5 16.4-3.7 2.7-5.7 7.2-4.9 11.6v.1c1.4 12.8-1.6 25.4-4.5 37.5-.2.8-.4 1.5-.5 2.3 16.6-8.6 33.4-19.1 51.3-31.9 14.5-10.5 27.8-22.1 40.2-33.1-.6-.1-1.2-.1-1.8-.1-.9 0-1.7-.1-2.6-.2-3.8-.3-7.6-.8-11.3-1.2-5.7-.8-11.5-1.5-17.2-1.5zm105.6-133.7c-.8 7.6-2.8 15.1-4.7 22.3l-.8 2.9c-5.4 19.2-13.3 38.7-23.6 58.1-2.2 4.3-4.6 8.6-7.1 12.8 13.5-17.4 25-36.4 34.3-56.6 6.1-13.6 12.7-29.9 15.6-47.4 1.7-11.5 2.7-23.7-1-34.8-4-12-13.1-21.3-23.9-24.4-4.9-1.4-10.2-2.1-15.9-2.1-7.7 0-15.9 1.3-25.1 3.8-1.6.4-3.1.9-4.6 1.4-2.4.8-4.9 1.5-7.4 2l-3.8.6 1.6-3.5c8.8-18.6 18.7-40.5 25.5-63.3 8.2-26.3 11.1-49.3 9.1-70.3-.9-9.7-4.1-23.4-13.8-33.7-4.3-4.6-10.5-7.2-17.1-7.2-1.1 0-2.1.1-3.2.2-11.7 1.5-21.7 7.5-29.3 13.8 6.2-1.7 12.5-3 19.1-3 1.1 0 2.1 0 3.1.1 13.3.6 25.3 7 31.1 16.7l2.4 4.1-4.6-1.1c-7.7-1.8-16.8-3.6-25.8-3.6-6.6 0-12.5 1-17.9 3-.5.3-1.1.5-1.6.8-.3.1-.6.3-.9.4 11.4.7 20.6 2.5 28.8 5.5 5.5 2.2 11 4.9 14.4 10l2.9 4.3-5.9-1.5c-7.1-1.8-14.5-3.6-21.8-3.6-1.4 0-2.8.1-4.1.2-4.4.4-9.3.9-13.1 2.8 14.8.3 28.7 5.3 39.4 14.1l2.3 1.9-2.7 1.4c-2 1-4.2 2-6.2 2.9-3.3 1.5-6.7 3.1-9.9 5-15.6 9.2-28.5 22.4-40.1 35.2-2.1 2.4-4.3 4.8-6.4 7.2-16.2 18.2-33 37-54.5 49.7-2.2 1.4-4.7 2.7-7 3.9-.3.2-.6.3-1 .5 8.1-.7 16.8-3.5 26.3-8.4 11.8-5.9 23.7-14.5 37.3-27 8.5-7.8 16.8-16.2 24.8-24.3 6.8-6.9 13.9-14.1 21.1-20.9 4.1-3.7 8.9-7.9 14.9-10.1l5.9-2.2-3.5 5.2c-9.4 13.7-20 29.1-23.8 46.9-.9 3.5-.9 7-1 10.7-.1 4.1-.1 8.3-1.3 12.4-1.8 7.1-5.4 13.3-10.3 20.5v.1l-.1.1c-.5.7-1.1 1.9-.2 4.8 3.2 11.4 3.3 23 3.1 32.9-.6 15-1.6 27.5-3 39.2-1.3 10.7-1.2 21.7-1.1 32.3 0 1.7 0 3.4.1 5.1 12.9-11.6 22.5-26.4 31.7-40.7l3.6 1.7c-5.4 17.8-12.4 35.3-19.2 52.2-1.1 2.7-2.2 5.5-3.3 8.2 10.1-11.5 19.5-24.6 29.8-41.4 2.6-4.1 5.1-8.4 7.4-12.6 2.5-4.3 5-8.8 7.8-13.1l3.6 1.6c-5.3 21-14.6 43-28.2 67.1-2.3 4.2-4.9 8.4-7.4 12.4-.5.8-1 1.7-1.5 2.5 2.7-2.5 5.2-5.1 7.7-7.6l1.8-1.9c21.2-22.6 35.4-51.1 48.1-78.3l4.1 1.1zM545.1 482.1c-3.3-5.2-5-10.3-5-15.2-.1-8.1 3.6-15.3 7.6-21.8l1.4-2.3 1.8 2c1.8 2 3.7 3.9 5.6 5.8 3.1 3.2 6.4 6.5 9.3 10.1l1.2 1.5-1.4 1.3c-6.5 5.9-12.3 12.3-17.2 18.9l-1.7 2.3-1.6-2.6z"/><path class="st3" d="M542.9 660.5c-1.4 0-2.6-.8-3.1-2.2-6.5-12.3-10.8-25.4-12.7-39.1-2.6-18.6.1-38.1 7.9-56.4 5.7-13.2 13.4-26.6 23.5-41 1.8-2.8 4.5-4.7 7.5-5.4 5.2-1.4 10.7-2.1 16.7-2.1 11.1 0 22.3 2.4 31.8 4.8.8.2 1.5.4 2.3.6 2.8.8 5.8 1.5 8.5 3.2l.1.1c2.5 1.8 1.6 4.8 1.2 6.2-.1.2-.2.6-.2.6v.1c-7.1 18.9-19.3 35.4-31.4 50.4-5.7 7.3-11.9 14.2-18.1 21 1.4-1 2.7-1.9 4-2.9 1.4-1 2.8-2 4.3-3 12.9-10.1 26.4-21.1 37.2-34.2 7-7.9 13.2-16.8 18.7-26.3l1.1-1.9 1.8 1.2c2.1 1.5 1.5 3.8 1.2 4.9-.1.3-.2.7-.2.8v.4c-3.1 13.2-10.2 26.6-21.2 39.8-1.8 2.1-3.6 4.1-5.5 6.1 11.1-6.6 21.3-14.9 29.8-24.4 7.4-8.3 12-16.3 14.1-24.6 2.2-9.1 1.5-18.6-2-26.6-.9-2.1-2.1-4.1-3.3-6.2-.9-1.5-1.9-3.1-2.7-4.8l-2.5-4.9 5.1 2.2c19.3 8.4 40 16.8 62.2 20.2l4.3.7-3.3 2.8c-2 1.8-4.3 3-6.5 4.2-1.2.7-2.4 1.3-3.5 2-25.5 15-48.5 37.1-70.3 67.7-3.7 5.3-9.7 8.1-13.8 9.8-15 6.1-31 13.1-45.5 22.9-12.9 8.8-24.1 19.1-33.3 30.7-1.2 1.6-2.8 2.6-4.2 2.6z"/><path class="st3" d="M853.1 289.9c11.5-3.5 24.6-2.8 34.9 3.8 12.2 7.8 19.4 21.4 23.2 35 4.7 18 4.1 37 1.5 55.3-4.1 27.7-14.5 54-26.6 79.2 12.8-4 26.8-7.1 40-3.1 13.6 3.7 24.2 14.8 28.9 27.9 6.8 18.7 6.1 39.3 1.8 58.5-7.9 34.5-24.3 66.7-45.4 94.9-33.3 44.3-76.3 81-124.2 108.8-18.7 10.8-38.1 20.5-58 28.9 6.5-8.4 12.8-17.1 17-26.9 7.6-16.9 10.3-35.8 9.4-54.2-.4-3.7.5-7.6 3.3-10.2 10.6-10.6 23.8-18.5 38.2-22.6 11-3.2 22.6-4.4 34.1-4 7.8.3 15.4 1.5 23.2 2.2-1.2-3.6-4-6.3-6.1-9.4-11-15.1-17-33.4-18.8-51.9-3.2-32.1 3.8-64 3.8-96.1-.1-9.3-1.6-18.8-5.8-27.2-.9-1.3-1-3.1.5-4 9.1-9.7 14.8-22.5 14.6-35.9-13.2 13.6-27.8 25.9-44.3 35.3-15.9 9.1-33.8 15-52.1 15.9-26.2 1.4-51.9-7-75.1-18.6 3.4-1.9 7.3-3.2 11.2-2.3 18.7 3.8 38.5 2.3 56.2-4.7 14.8-5.7 28-14.8 39.8-25.3 17-14.9 31.7-32.3 48-48 9-8.5 18.3-17.1 29.8-21.9-12-3.4-25.4-2.3-35.8 4.8 1.1-17.3-1.3-35.2-9.6-50.6-1.2-2.3-.2-5 1.5-6.6 11.6-11.6 24.9-22.4 40.9-27m-25.8 31.6c9.6-2.9 19.5-5.8 29.7-5.2 11.5.5 23.5 5.6 29.6 15.7-14.6-3.4-30.5-6-44.9-.5-2.3 1.2-5.6 2.1-6.6 4.8 11.1.4 22.4 1.7 32.9 5.6 5 2 10.3 4.6 13.4 9.2-9-2.3-18.1-4.7-27.4-3.7-6.6.6-14.3 1.4-18.7 7 15.6-1.1 31.8 3.5 43.9 13.5-5.4 2.7-11 4.9-16.2 8-15.6 9.2-28.5 22.2-40.5 35.6-18.4 20.5-36.4 42.3-60.4 56.5-4.7 3-10 5-14.6 8.2 12.3.9 24.2-3.2 34.9-8.7 14-7 26.3-16.8 37.8-27.3 15.9-14.5 30.3-30.4 46-45.1 4.2-3.9 8.8-7.7 14.2-9.7-10 14.7-20.3 29.9-24.1 47.6-1.9 7.6-.1 15.5-2.3 23-1.9 7.3-5.9 13.8-10 20-1.6 1.9-1.2 4.5-.5 6.7 2.9 10.5 3.3 21.4 3 32.2-.5 13-1.4 26.1-3 39-1.7 14-1 28-1 42 14.7-12 25.2-28.2 35.4-44-7.2 23.8-17.2 46.5-26.2 69.6 2.4-1.9 4.4-4.3 6.5-6.6 11.6-13.1 21.5-27.5 30.6-42.4 5.3-8.4 9.8-17.3 15.2-25.7-6 23.5-16.2 45.6-28 66.6-4.5 8.2-9.8 15.9-14.3 24.1 6.8-4.4 12.5-10.6 18.1-16.4 21.3-22.8 35.4-50.9 48.4-78.9-.9 8.5-3.2 16.7-5.4 24.9-5.6 20-13.7 39.3-23.4 57.7-5.3 10.5-11.9 20.3-17.6 30.6 3.2-2.2 5.4-5.5 7.9-8.3 16.3-19.5 29.9-41.3 40.5-64.4 6.9-15.4 13-31.3 15.8-47.9 1.7-11.8 2.8-24.2-1-35.7-3.9-11.8-13.1-22.2-25.3-25.7-13.8-3.9-28.5-2.1-42.1 1.8-4 1-7.8 2.6-11.8 3.3 9.7-20.7 19-41.6 25.6-63.6 7.1-22.9 11.5-47 9.2-71.1-1.2-12.6-5.4-25.5-14.3-34.8-5.6-6-14-8.7-22-7.6-14.6 1.8-27.2 10.1-37 20.1m-52.9 369.8c-4.2 3-6.6 8.3-5.7 13.5 1.6 14.7-2.7 29.1-6 43.3 19.4-9.8 37.8-21.4 55.4-34 14.2-10.3 27.5-21.8 40.6-33.4.9-.7 1.3-1.5 1.2-2.7-2.2-1-4.7-.6-7-.9-11-.8-22-3.3-33-2.5-16.4.8-32.3 7-45.5 16.7zM549.5 446.1c4.9 5.3 10.2 10.2 14.8 15.8-6.4 5.8-12.3 12.2-17.4 19.2-2.7-4.2-4.7-9.1-4.7-14.2-.2-7.6 3.4-14.5 7.3-20.8z"/><path class="st3" d="M655.7 499c20.2 8.7 40.8 17 62.7 20.4-2.9 2.5-6.5 4-9.8 6.1-28.5 16.8-51.7 41.4-70.9 68.2-3.1 4.4-8 7.1-12.9 9.1-15.9 6.4-31.6 13.5-45.9 23.1-12.7 8.7-24.3 19.2-33.8 31.3-.7 1.3-2.8 2.3-3.5.4-6.4-12-10.7-25.1-12.6-38.5-2.6-18.7.4-38 7.8-55.3 6.2-14.4 14.3-27.9 23.3-40.6 1.5-2.2 3.7-4 6.3-4.6 15.7-4.2 32.1-1.2 47.6 2.7 3.4 1 7.1 1.7 10.2 3.6 1.5 1.1.7 3.1.2 4.5-7 18.5-18.8 34.6-31.1 49.9-8.5 10.9-18.1 20.9-27.4 31.1 7.3-3.4 13.7-8.6 20.3-13.2 13.4-10.5 26.7-21.4 37.5-34.6 7.2-8.2 13.5-17.1 18.9-26.6 1.4 1 .3 2.7.2 4-3.4 14.5-11.3 27.7-20.8 39-4.4 5.2-9.2 10-13.9 14.9 15.6-7.3 29.7-17.8 41.3-30.6 6.6-7.3 12.2-15.8 14.5-25.4 2.3-9.2 1.7-19.2-2.1-27.9-1.7-3.9-4.2-7.3-6.1-11z"/></g><g id="_x23_22a3ddff_1_"><path class="st4" d="M854.1 808.4c-1.2-.9-2.5-1.7-3.7-2.6-3.9-2.7-7.9-5.5-11.8-8.5l-3.5-2.7 4.4-.8c11.9-2.2 21.8-4.2 31.7-6.6l2.8-.7-.4 2.9c-.4 3.2-2.7 5.2-4.7 6.9-.7.6-1.4 1.2-2 1.8l-.1.1-.1.1c-2 1.9-4 3.9-6 5.8-1.4 1.4-2.8 2.8-4.3 4.1l-1.2 1.1-1.1-.9z"/><path class="st4" d="M839.9 795.7c10.6-2 21.3-4.1 31.8-6.7-.5 3.5-4 5.3-6.1 7.7-3.5 3.3-6.8 6.7-10.3 10-5.2-3.6-10.4-7.1-15.4-11z"/></g><g id="_x23_0f74bcff_1_"><path class="st5" d="M817.9 770c48.7-22.6 93.2-57.1 128.9-100 21.1-25.4 37-53.1 47.3-82.3l1-2.9 2.2 2.1c13.2 12.2 18.5 29.2 23.2 46.1.1-.2.2-.4.4-.6 8-13.5 12.8-28.5 16.8-42.7 8-29.6 12.5-59.8 13.5-90 .4-12.3 0-22.9-1.3-32.6-4.1 11.8-8.6 23.7-17.5 33.1l-4.8 5.1 1.4-6.9c5.3-25.6 10.7-58.5 7-91.5 0 .1-.1.2-.1.3-3 8.2-6.1 16.7-11 24.2l-3.7 5.6v-6.7c-.1-24.5-2.6-45.4-7.8-64-.3-.9-.6-2-.9-3-.3-1.1-.7-2.3-1-3.4 0 .1 0 .2-.1.3-.9 3.9-1.8 7.9-3.3 11.8l-1.8 4.6-1.9-4.6c-1.7-3.9-3.3-7.8-4.8-11.6-4.2-10.1-8.5-20.6-13.7-30.5-16.1-31.6-36.5-56.5-60.7-74.1-15.1-10.9-32.2-18.7-49.5-22.4-9.6-2.1-19-3.1-28-3.1-11 0-21.5 1.6-31.1 4.7-11.6 3.7-22.8 9.5-33.4 17.4-.5.4-1 .8-1.6 1.2-1.5 1.2-3.1 2.5-5 3.3l-2.5 1.2-.3-2.8c-1.4-13.3 3.5-25.7 9.4-37.3-12.9 6.5-24.1 14.1-33.4 22.6-11.6 10.6-21.2 24.7-27.9 40.8-6.2 14.6-9.7 30.3-13.2 45.5-3.8 16.8-7.7 34.1-15.2 50.2-3.1 6.5-6 11.6-9.3 16.1-1.5 2.5-4.2 3.1-6.3 3.6-.5.1-1 .2-1.5.4-14.3 3.6-26.2 13-32 25.1-4.3 8.5-6 18.7-5.2 31.5l.1 2.1h-2.1c-2.5 0-4.6-1.1-6.5-2.1-.9-.5-1.8-.9-2.7-1.3h-.1c-9-3.8-18.6-7.4-28.3-7.4-1.2 0-2.3.1-3.5.2-1.2.1-2.5.4-3.8.7-1.4.3-2.8.7-4.3.8h-.4l-.4-.1c-2.4-.8-3.4-2.8-4.3-4.4-.3-.6-.6-1.1-.9-1.5l-.1-.1-.1-.1c-3.9-6.9-8.1-14.9-9.2-23.7-.9-5.9 1.3-11.9 5.7-15.9 4.7-4.2 10.5-7.5 17.1-9.9 2.1-.7 3.6-2.6 3.8-4.8 8.2-64.6 45.9-126.3 100.8-165 1.9-1.4 4-2.8 6-4.1-8.1 2.1-15.9 5.5-23.8 9.2l-3.5 1.6.7-3.8c0-.2.3-1.3.3-1.5l.2-.9.7-.5c24.4-15.3 52.1-29.3 87-44 13.8-5.9 28-11.6 41.7-17.2 37.5-15.2 76.2-31 112.5-50.4 5.3-2.8 10.6-5.8 15.8-8.7 4.6-2.6 9.4-5.3 14.1-7.9l2.6-1.4.3 3c.3 3.2-.2 6.2-.6 9.1-.3 1.7-.5 3.3-.6 4.9-2.9 34.7.3 72.8 9.6 116.6 7.9 36.2 21.8 68.2 41.4 95.1 25.9 36.3 61.9 67.6 104.2 90.5 8 4 13.6 11.6 15 20.3 5.4 30.7 5.5 64.6.4 106.8-2.2 17.8-5.5 36.8-9.9 57.9-.4 1.7-.8 3.5-1.1 5.1-.7 3.5-1.4 7.2-2.9 10.7l-2.5 5.8-1.3-6.2c-4.4-21.7-10.3-43.1-17.4-63.5-4.5 25-11.9 48.2-22 69-14.3 29.8-35.3 57.2-60.7 79.3-41.9 36.2-95.8 61.4-156.1 72.9l-3.5.6c-9.1 1.6-18.5 3.3-27.9 3.9l-.8-3.5zm180.8-148.6c-9.1 19.1-21.4 38.3-36.6 57.2-14.6 18.2-31.8 35.8-51.3 52.2 37.9-16.1 72.3-39.8 100-69.1 1.1-1.3 2-2.4 1.7-3.3-.5-1.4-1.3-2.7-2.1-4.1-.4-.7-.9-1.5-1.3-2.2-3.2-5.5-4.8-11.7-6.3-17.7-1.2-4.5-2.3-8.9-4.1-13zm66.1-202c7.4 64 3.5 123.1-11.5 175.8 14.8-32.6 24.2-70.5 28-112.7l.6-7.2 3.1 6.5c8.9 18.5 14.9 38.4 19.9 57.7 4-23.7 7.1-50.6 5.1-77.4-.1-1-.2-2.1-.3-3.2-.4-4.2-.9-8.5-1.5-12.8-1.1 8.2-2.8 16.4-4.6 24.7l-1.5 7.1-2.3-6.9c-1.9-5.8-3.5-11.8-5.1-17.6-1.6-6-3.3-12.2-5.3-18.2-2.8-8.5-6-18.1-13.6-23.6-8.8-5.3-16.9-11.7-24.7-18-2.7-2.2-5.4-4.3-8.2-6.5 1.1 2.3 2.1 4.6 3 7 4.6 12 6.4 24.6 7.6 37.6 1.3-1.8 2.3-3.9 3.4-6 1.3-2.5 2.5-5.2 4.4-7.5l3-3.7.5 4.9zm-469.7-5.8c-1 3.7-.3 7.9 1.8 11 2 2.8 4.9 5.4 8.2 7.6.2-.3.3-.6.5-.9 1.8-3.5 3.7-7.1 6.7-10 3.1-3.4 7-5.6 11-7.4-6.8.5-13.8 3.2-19.9 7.6l-1.3 1-1.2-1.1c-.1-.1-.3-.2-.4-.4-.9-.7-2.1-1.8-2.3-3.6-.7-3.2.5-6 1.6-8.4-2.2 1-3.9 2.5-4.7 4.6zm18.7-30.5c-.1 4.2-.2 8.4 1.9 11.8 1.5 2.7 4.7 3.7 7.1 3.7.6 0 1.2-.1 1.8-.2 6.5-1.1 12.9-4.4 19-10-1.1.2-2.1.4-3.2.5-3.1.5-6.4 1.1-9.7 1.3l-2.4.2.2-2.4c1.6-15.6 6.3-30.9 11.2-45.1 4.6-12.9 10.4-26 17.5-39.6-18.9 24.8-31.5 52.7-36.5 81.7l-.6 3.4-2.6-2.2c-.6-.5-1.2-1-1.8-1.6-.6-.5-1.3-1-1.9-1.5zm73.9-80.1c-2.5 18.3-4.7 37.6-3.8 56.8.9-4.2 1.7-8.5 2.6-12.7 3.5-17.4 7.1-35.5 12.6-52.7 10.8-34 27.3-59.8 49-76.7 11.8-9.5 25.9-15.3 39.5-21 3.5-1.5 7.2-3 10.7-4.5 3.7-1.5 7.4-3.2 10.9-4.9 3.9-1.8 7.9-3.6 12-5.3l6-2.4-3.6 5.4c-1.5 2.2-3.2 4.3-5.2 6.3-7.3 7.4-12.9 15.9-16.7 25.2l-.3.7c-.9 2.2-1.7 4.2-2.1 6.4 1.7-.4 3.5-.9 5.3-1.5l3.9-1.2c11.7-3.3 25.3-6.9 39.4-7.6 1.6-.1 3.3-.2 5-.2 13.3 0 26.4 3.4 36.4 6.3 19.9 6.1 38.9 16.1 54.8 29.1 2.2 1.7 4.3 3.6 6.3 5.3.9.8 1.9 1.6 2.9 2.5-4.4-15.8-7.7-29.5-10-42.4-.6.7-1.2 1.4-1.9 2.1-2.9 3.3-5.8 6.8-10.3 8.5l-3.9 1.5 1.3-4c.8-2.5 1.8-5 2.7-7.4 2.2-5.7 4.4-11.6 5-17.6-4.1 5.8-9 11.5-15.6 15l-5.8 3 3.1-5.7c5.5-10.2 11-21 13.7-32.6-9 12.1-22.1 22.3-37.8 29.1l-2.2-3.2c10.5-10.5 18-19.7 23.6-28.9 9.3-15.1 16-32.5 19.5-50.4-.2.1-.5.2-.7.3-28.1 14.9-57.6 28.6-87.7 40.8-9.3 3.8-18.7 7.7-27.9 11.4-27.6 11.2-56.2 22.9-83.5 35.9-.4.2-.9.4-1.3.7 1.1-.1 2.3-.2 3.4-.2l1 3.8c-22.1 11.9-41.7 25.6-58.3 40.9-13.5 12.5-24.8 25.6-33.9 39.3 10.9-12.5 23.1-24 36.5-34.3.6-.5 1.2-.9 1.8-1.3 3.6-2.6 7.2-5.4 11.7-6.8l4.6-1.5-2.2 4.3c-1.1 2.2-2.5 4.2-3.8 6.2-.8 1.2-1.6 2.5-2.4 3.8-6.8 11.2-13.1 23.5-19.9 38.7-5.4 12.3-12.2 28.6-16.8 45.7-.1.6-.3 1.3-.5 2s-.3 1.4-.5 2c.7-1.5 1.4-3.1 2.1-4.6 7.6-16.2 16-33.4 27.8-48.6l4.6-5.9-1.1 7.1z"/><path class="st5" d="M740 331.2c-1.5-.9-2.4-2.3-2.4-4.1-2.3-19.7-.6-37.4 5-52.6 4.7-12.8 12.3-24.6 22.1-34.2l3.2 2.3c-9.5 19-13.8 37.2-12.7 54.1 0 .9.2 1.9.3 2.9.4 2.6.9 5.5-.9 8.3-1.8 3.4-3.6 6.9-5.3 10.2-2.1 4.1-4.3 8.3-6.5 12.4l-1 1.8-1.8-1.1zM560.4 426.2c-7.4-9.4-10.8-20.5-9.4-30.7 1.3-10.2 7.6-19.7 17.2-26.1 1-.7 2-1.3 3-1.9 1.8-1 3.5-2 4.7-3.4 1.4-1.6 1.9-3.9 2.5-6.3l.1-.4c4.6-20 13.6-39.3 26.1-55.6.8-1 1.5-1.9 2.3-2.8 4.2-5.2 8.4-10.6 14-14.7l2.9 2.6c-1.5 2.7-3.1 5.3-4.6 7.9-3.7 6.3-7.6 12.9-10.7 19.7-9.2 19.5-15.1 40.2-17.6 61.6-.1 3.2-1.9 5.7-4.6 6.3-6.4 2.2-14.9 6.6-19 15-4.4 8.5-3.8 18.6-3.2 27.5l.4 6.4-4.1-5.1zM988.1 493.4c1.2-49-3-88.3-13.2-123.7-5.7-20.1-13.5-39.3-23.2-57.2-1.1-2.1-2.3-4.2-3.5-6.2-1.4-2.4-2.9-5-4.2-7.6l3.2-2.3c5.2 5.3 9.4 11.4 13.5 17.3 1 1.4 1.9 2.7 2.9 4.1 19.6 28.9 32.8 61.8 38.1 95.3 1.7-1.6 2.9-3.7 4.2-6l1.8-3 3.3-5 .4 5.9c1.8 26.8-4.6 55.9-19.6 89.2l-3.7-.8zM656.1 448.4c.4-10.5 3.4-19.6 8.8-26.3 7.5-9.3 18.5-15.3 30.1-16.5 2.7-.2 5-1.7 6.1-4 12.9-26.4 20.9-55.5 23-84l.2-2.6 2.5.9c.2.1 1.2.4 1.3.5l1.2.4.1 1.3c2.4 35-3.3 69.7-16.5 100.4-1.6 4.2-6 5.8-9.6 5.9-15.4 1.2-29.1 7.7-37.6 17.7-1 1.2-1.9 2.4-2.9 3.6-1 1.3-2 2.6-3.1 3.9l-3.7 4.3.1-5.5zM525.6 385.8c-1-2.1-1.9-4.5-2.5-7.1l-1.7-7.2 5.1 5.4c.5.6 1.1 1.1 1.6 1.7.7.7 1.4 1.4 2 2.1l.7.8-.2 1c-.3 1.3-.8 2.5-1.7 3.6l-2 2.7-1.3-3z"/><path class="st5" d="M923 111.9c10.1-5.4 19.9-11.2 29.9-16.6.5 4.6-.9 9.1-1.2 13.6-3.3 39.3 1.5 78.7 9.7 117.1 7.5 34.3 21 67.5 41.7 95.9 27.1 38.1 63.8 68.8 104.8 91.1 7.3 3.7 12.7 10.7 14 18.8 6.2 35.1 4.7 71 .4 106.3-2.4 19.4-5.9 38.6-9.9 57.8-1.3 5.1-1.8 10.5-3.9 15.4-4.9-24.2-11.6-47.9-20.1-71-4 26.3-11.4 52.1-23.1 76-14.4 30-35.1 56.9-60.2 78.6-43.8 37.9-98.5 61.7-155.1 72.4-10.3 1.8-20.7 3.9-31.1 4.5 50-23.2 94.3-58.2 129.6-100.5 20.4-24.7 36.9-52.7 47.6-82.9 13.7 12.6 18.8 31.3 23.6 48.7 1.5-.6 2.2-2.3 3-3.5 7.9-13.4 12.8-28.3 17-43.2 8-29.5 12.6-59.9 13.6-90.4.4-13.7-.1-27.4-2.5-40.9-5 13.9-9.3 28.9-19.7 39.9 6.8-32.8 11.3-66.7 6-100.1-4.2 10.7-7.4 21.9-13.7 31.6-.1-21.7-2.1-43.6-7.9-64.5-1.3-4.1-2.3-8.4-4.4-12.3-1.6 6-2.5 12.1-4.7 17.9-6-14.1-11.4-28.6-18.6-42.3-14.7-28.9-34.9-55.6-61.3-74.8-15-10.9-32.1-18.8-50.2-22.8-19.8-4.2-40.7-4.6-60.1 1.6-12.2 3.9-23.7 10-34 17.7-2 1.5-3.9 3.3-6.2 4.3-1.6-14.9 5.2-28.8 12-41.5-14.3 6.6-27.8 14.9-39.4 25.6-12.5 11.4-22 25.9-28.4 41.5-13.1 30.8-14.2 65.2-28.3 95.6-2.6 5.5-5.6 10.9-9.1 15.9-1.4 2.3-4.3 2.4-6.7 3.2-14.1 3.6-26.9 12.9-33.3 26.1-5.1 10-6.1 21.5-5.3 32.5-3.2 0-5.7-2.2-8.5-3.2-10.3-4.3-21.4-8.5-32.8-7.4-2.8.3-5.4 1.2-8.1 1.5-2.3-.8-2.9-3.5-4.1-5.2-4-7.2-7.9-14.7-9-23-.8-5.2 1.1-10.6 5-14.1 4.8-4.2 10.5-7.4 16.5-9.5 2.8-.9 4.8-3.5 5.1-6.5 8.3-65.4 46.3-125.8 100-163.6 4.5-3.4 9.4-6.2 14-9.5-11.9 1.3-23 6.1-33.8 11.1.1-.4.2-1.1.3-1.5 27.5-17.2 56.8-31.3 86.7-43.9 51.6-21.7 104.6-41 154.2-67.5m10 9.9c-28.5 15-57.7 28.6-87.5 40.7-37.3 15.5-75.1 30-111.5 47.4-3.5 1.8-7.3 3.2-10.3 5.8 4.5-.2 8.8-1.5 13.3-1.5-21.1 11.4-41.1 24.9-58.8 41.1-19.2 17.8-36.1 38.8-47.2 62.7 14.6-20.8 32.4-39.3 52.5-54.8 4.1-3 8.1-6.2 12.9-7.8-1.8 3.4-4.1 6.5-6.1 9.8-7.6 12.5-14.1 25.6-20.1 38.9-6.6 15-12.6 30.2-16.9 46-1.3 5.3-2.8 10.7-2.4 16.2 2.8-4.9 4.7-10.3 7.2-15.3 7.9-16.8 16.2-33.5 27.6-48.3-3 22.4-5.5 45.3-3 67.9 2.1-2 1.8-5.1 2.6-7.7 4.8-22.7 8.6-45.7 15.7-67.9 9.1-28.8 24.1-56.9 48.3-75.7 14.7-11.8 32.8-17.8 49.8-25.3 7.7-3.1 15.1-7 22.8-10.1-1.4 2.2-3.1 4.2-4.9 6-7.3 7.4-13.2 16.2-17.1 25.9-1.3 3.3-2.7 6.6-2.8 10.2 4.2-.3 8-2 12-3.1 12.7-3.6 25.7-6.8 39-7.6 13.8-.9 27.5 2.2 40.7 6 19.7 6 38.2 15.7 54.1 28.7 4.8 3.8 9.3 8.1 14.1 11.8-4.9-17.2-9.3-34.5-12.4-52.1-4.8 4.2-8 10.5-14.2 12.9 3.4-10.4 9-20.8 7.7-32.1-5 7.5-10.3 15.3-18.5 19.6 7.2-13.3 14.2-27.3 15.4-42.6-9.2 16.6-24.8 28.9-42 36.4 8.9-8.9 17.3-18.5 23.9-29.3 10.2-16.5 17-35 20.3-54.1-1.4.4-2.9.6-4.2 1.3M664.6 291.4c-23.1 26.4-39.7 58.7-45.8 93.4-2.2-1.9-4.3-4-6.9-5.4-.1 5.5-.9 11.5 2 16.5 2.1 3.8 6.9 5.2 11 4.5 9.6-1.6 17.8-7.7 24.3-14.7-6.3.5-12.4 2.2-18.6 2.6 1.6-15.3 6.1-30.2 11.1-44.7 6.7-18.7 15.5-36.7 25.4-53.9-1 .3-1.9.8-2.5 1.7m373.2 89.4c2 4.7 4.6 9.2 6.2 14 5.1 13.3 6.7 27.5 7.9 41.5 5.5-4.3 6.7-11.6 10.9-16.8 7 60.4 4.6 122.6-13.2 181-1.2 4.6-3.3 9-4 13.8 3-3.9 4.7-8.6 7-12.9 17.8-37.2 27-77.9 30.7-118.9 10.2 21.1 16.4 43.8 22.1 66.4 5.1-28.7 8.9-57.9 6.7-87.1-1-9.5-1.7-19.2-4.7-28.3-.6 12.4-3.1 24.6-5.8 36.8-3.9-11.8-6.3-24-10.4-35.8-3-9-6.3-18.8-14.4-24.6-13.9-8.3-25.8-19.6-39-29.1m-444.6 32.1c-1.2 4.3-.4 9.1 2 12.7 2.8 3.8 6.6 6.9 10.7 9.3 2.3-4.3 4.3-8.9 7.8-12.4 4.9-5.3 11.9-7.6 18.5-10.3-10.6-2-21.4 1.3-30 7.5-.9-.8-2-1.5-2.1-2.9-1.1-4.4 2.5-7.8 3.1-11.9-4 1.6-8.4 3.8-10 8m405.5 203.9c-9.9 21.8-23.2 42-38.1 60.6-16.7 20.9-35.9 39.7-56.6 56.6-.9.7-1.5 1.6-2.1 2.7 41.6-16 79.7-41.1 110.4-73.5 1.2-1.4 2.8-3.2 2.2-5.3-.8-2.4-2.4-4.4-3.6-6.7-6.3-10.6-6.1-23.7-12.2-34.4z"/><path class="st5" d="M744.4 275.2c4.6-12.6 12.1-24.1 21.6-33.5-8.5 17-14.2 36-12.9 55.1.1 3.3 1.7 7-.3 10-4 7.5-7.8 15.1-11.8 22.6-1-.6-1.4-1.4-1.4-2.5-2.1-17.2-1.3-35.2 4.8-51.7zM606.2 303c4.9-6 9.6-12.5 15.8-17.2-5.2 9.2-11 18.1-15.3 27.8-9.3 19.6-15.3 40.8-17.8 62.3 0 2-1.1 4.1-3.2 4.6-8.3 2.8-16.3 8-20.3 16-4.6 8.8-4 18.9-3.4 28.5-6.4-8.1-10.5-18.7-8.9-29.1 1.3-10.2 7.9-19.1 16.3-24.7 2.7-1.9 5.9-3.2 8.1-5.7 1.8-2.1 2.4-4.9 3-7.5 4.6-19.9 13.4-38.7 25.7-55zM945.8 297.8c6.2 6.4 11.1 13.9 16.2 21.1 19.5 28.8 32.8 61.8 38 96.2.5.1 1.4.3 1.9.4 3.4-2.7 5.2-6.8 7.5-10.3 2 30.6-7 60.6-19.4 88.2 1-41.8-1.7-84-13.3-124.3-5.7-20-13.5-39.3-23.3-57.6-2.4-4.7-5.4-9-7.6-13.7zM726 317.8c.3.1 1 .4 1.3.5 2.3 33.8-3 68.3-16.4 99.6-1.2 3.2-4.6 4.6-7.8 4.7-14.7 1.1-29.4 7-39.1 18.4-2.1 2.4-3.9 5-6 7.5.3-8.9 2.7-18 8.3-25.1 7-8.7 17.6-14.6 28.8-15.7 3.2-.3 6.2-2.1 7.7-5 13-26.6 21.1-55.5 23.2-84.9zM525 378.3c1.2 1.3 2.5 2.5 3.6 3.8-.2 1-.7 2-1.3 2.9-1-2.1-1.7-4.4-2.3-6.7z"/></g><linearGradient id="SVGID_1_" gradientUnits="userSpaceOnUse" x1="813.275" y1="118.632" x2="867.766" y2="118.632"><stop offset="0" stop-color="#1077BE"/><stop offset="1" stop-color="#1684C7"/></linearGradient><path class="st6" d="M813.3 128.6c.1-4.6.1-8.7 0-12.5v-1.7l1.6-.3c3.6-.7 7.4-1.5 11.6-2.2 9.3-1.8 19.2-3.7 30.2-5.8 1-.2 2.1-.4 3.3-.4 1.1 0 2.2.1 3.3.4l4.4.9-3.7 2.6c-2 1.5-4.3 2.4-6.4 3.3-1.1.5-2.1.9-3.2 1.4h-.1c-2.1.9-4.3 1.8-6.4 2.8-5.9 2.6-12.1 5.3-18.3 7.6v.3l-1.5.5c-2.5.9-5 1.9-7.5 2.9-1.6.7-3.2 1.3-4.8 1.9l-2.8 1.1.3-2.8z"/><linearGradient id="SVGID_2_" gradientUnits="userSpaceOnUse" x1="648.493" y1="165.796" x2="747.285" y2="165.796"><stop offset="0" stop-color="#1077BE"/><stop offset="1" stop-color="#1684C7"/></linearGradient><path class="st7" d="M662.3 200.5c-2.7-11.1-5.6-22.3-8.3-33.2-1.7-6.5-3.3-13-4.9-19.6l-.5-2.1 2.1-.4c6.9-1.3 13.7-2.6 20.6-3.9l31.5-6 13.3-2.5c7.2-1.4 14.5-2.8 21.7-4.1l1.9-.4.6 2.3c2.2 8.7 4.3 17.2 6.7 26.6l.4 1.6-1.5.7c-12.8 5.7-25.9 11.8-40 18.8v.2l-1.3.6c-12.7 6.4-25.5 13.7-39.1 22.4l-2.3 1.5-.9-2.5z"/><path class="st8" d="M869.8 803.7c-2-2-3.9-3.8-5.6-5.5l-1.3-1.3 1.3-1.4c.7-.8 1.5-1.5 2.3-2.2 1.7-1.5 3.1-2.7 3.3-4.4l.2-1.4 1.4-.3c8.6-1.9 17.1-4.3 26.5-6.9l1.8 3.5c-8.6 7-17.8 13.5-26.7 19.8l-2 1.4-1.2-1.3z"/><linearGradient id="SVGID_3_" gradientUnits="userSpaceOnUse" x1="979.179" y1="216.668" x2="1065.415" y2="216.668"><stop offset="0" stop-color="#1D96D3"/><stop offset="1" stop-color="#24A6DF"/></linearGradient><path class="st9" d="M1022.3 301.5c-10.4-14.8-18.7-30.7-24.7-47.3-5.9-16.1-9.2-33.1-11.9-47.8-4.3-24.6-6.5-50-6.6-75.6v-2.4l17 3.2c14.4 2.7 28.8 5.5 43.1 8.2 0 0 6.8 1.3 10.2 1.9 4.6.9 9.3 1.8 13.9 2.6l2.1.4-.6 2.5c-7.1 28.1-14.6 57.8-23 90.7-.7 2.9-1.4 5.9-2.2 8.7-.6 2.2-1.2 4.5-1.7 6.8-1.2 4.9-2.5 9.8-3.7 14.7-2.7 10.7-5.5 21.8-8.3 32.7l-1.1 4.2-2.5-3.5z"/><path class="st10" d="M610.6 243.3c-6.8-11.5-13.7-23.3-20.3-34.7-8.2-14.1-16.7-28.7-25.2-43l-1.1.1-.6-4c11-2.1 21.9-4.2 32.9-6.3 17.8-3.4 36.2-6.9 54.3-10.2l1.8-.3.5 1.8c1.6 6.5 3.3 13 4.9 19.6 2.8 10.9 5.6 22.1 8.3 33.2l.3 1.4-1.2.8c-14.3 9.6-26.4 19-37 28.7l-.1.1-.1.1c-2.3 1.7-4.2 3.8-6.3 5.9-2.6 2.7-5.2 5.5-8.5 7.6l-1.7 1.1-.9-1.9z"/><path class="st11" d="M1153.2 479.5c-.2-23.7-2.9-46.7-8.1-68.1l-.3-1.1 1.4-1.4c8.1-8.2 16.2-16.6 24.1-24.7 11-11.4 22.4-23.1 33.8-34.5l.4-.4 4.8-1.1-1 3.3c-13.2 45.1-30.4 88.5-51.3 128.9l-3.8-.9z"/><linearGradient id="SVGID_4_" gradientUnits="userSpaceOnUse" x1="488.476" y1="247.795" x2="615.311" y2="247.795"><stop offset="0" stop-color="#1077BE"/><stop offset="1" stop-color="#1684C7"/></linearGradient><path class="st12" d="M559.2 330.7c-5.1-8.6-10.2-17.4-15.2-25.9-3-5.2-6.1-10.4-9.1-15.6-7.3-12.4-14.5-24.7-21.7-37.1-7.5-12.9-15.1-25.8-22.6-38.6l-.2-.4v-.4c-1.1-9.6-1.4-19.3-1.6-28.8-.1-2-.1-4.1-.2-6.1l-.1-1.7 1.7-.3c6.5-1.2 13.1-2.5 19.6-3.7 9-1.7 17.9-3.4 26.9-5.1 3.1-.6 6.3-1.2 9.5-1.8 5.7-1.1 11.6-2.2 17.3-3.3h.2l3.6-.4.7 1.1c8.7 14.7 17.5 29.6 25.9 44.1 6.6 11.4 13.5 23.1 20.3 34.6l1.2 2-1 1.1c-22.6 24.1-40.1 53.2-50.7 84.1l-.8 2-1.5 3.8-2.2-3.6z"/><linearGradient id="SVGID_5_" gradientUnits="userSpaceOnUse" x1="1111.004" y1="139.883" x2="1012.228" y2="310.967"><stop offset="0" stop-color="#18283D"/><stop offset="1" stop-color="#142031"/></linearGradient><path class="st13" d="M1044.6 328.8c-8.1-8.5-15.1-17.6-22.3-27l-.6-.8.3-1.2c2.8-10.8 5.6-21.9 8.3-32.6 1.2-4.9 2.5-9.8 3.7-14.7.5-2.3 1.1-4.5 1.7-6.8.7-2.8 1.5-5.8 2.2-8.7 8.4-33 15.9-62.7 23-90.8l.4-1.5 1.5-.1h.8c3 0 5.8.6 8.6 1.2 1.1.2 2.2.5 3.4.7l13.6 2.6c17.8 3.4 36.2 6.9 54.3 10.4l2.8.5-18 30.8c-12.3 21.1-24.6 42.2-36.9 63.2-2.3 3.9-4.6 7.8-6.9 11.8-1.3 2.2-2.6 4.4-3.8 6.6-4.6 7.9-9.3 15.9-13.8 23.6-6.2 10.6-12.5 21.5-18.9 32.2l-1.3 2.3-2.1-1.7z"/><linearGradient id="SVGID_6_" gradientUnits="userSpaceOnUse" x1="1197.173" y1="155.443" x2="1077.052" y2="363.5"><stop offset="0" stop-color="#24A7DF"/><stop offset="1" stop-color="#1B91D1"/></linearGradient><path class="st14" d="M1114.8 385.3c-11.7-7-23.1-14.8-33.9-23.1v.1l-3.2-2.6-.8-.6c-13-10.4-23.6-20.4-32.4-30.3l-1-1.1.8-1.3c6.4-10.7 12.8-21.6 18.9-32.2 4.5-7.8 9.2-15.8 13.8-23.7 1.3-2.2 2.5-4.4 3.8-6.5 2.3-3.9 4.6-7.8 6.9-11.8 12.3-21.1 24.6-42.1 36.9-63.2l17.3-29.6 1.4.3c1.9.4 3.8.7 5.8 1.1 2.6.5 5.3 1 8 1.5l1.7.3v.1c16.6 3.1 33.3 6.3 49.6 9.4 8.2 1.6 16.3 3.1 24.5 4.7l1.8.3-.2 1.8c-.1.6 0 1.3 0 2 0 1.8.1 3.7-.9 5.6-16 27.1-32.1 54.7-47.7 81.4l-14 24c-4 6.9-8.1 13.8-12.1 20.7-7.8 13.4-15.8 27.1-23.5 40.3-6.2 10.6-12.4 21.1-18.6 31.7l-1 1.7-1.9-1z"/><linearGradient id="SVGID_7_" gradientUnits="userSpaceOnUse" x1="1260.603" y1="195.48" x2="1137.663" y2="408.418"><stop offset="0" stop-color="#172539"/><stop offset="1" stop-color="#111C2C"/></linearGradient><path class="st15" d="M1145.8 411.1c-.6-1.3-1-2.6-1.5-3.9-1.2-3.3-2.2-6.4-4.9-8.1-4-2.6-8.3-4.8-12.4-7-4-2.1-8.2-4.4-12.2-6.9l-1.6-1 1-1.7c6.2-10.6 12.4-21.2 18.6-31.7 7.7-13.2 15.7-26.8 23.5-40.3 4.1-6.9 8.1-13.8 12.1-20.7l14-24c15.6-26.7 31.7-54.2 47.6-81.3l2.9-5 .8 5.7c.8 6 .3 12.1-.1 17.9-.1 1.3-.2 2.5-.3 3.8-1.3 23-4.3 47.7-9.3 77.5-2.8 15.5-6.3 31.5-10.8 49-.5 2.2-1.1 4.3-1.7 6.4-1 3.6-2.1 7.4-2.7 11.2l-.2 1.2-1.1.4c-.1 0-.5.2-.5.2l-.5.1c-11.2 11.3-22.5 22.8-33.3 34.1-7.9 8.1-16 16.5-24.1 24.7l-2 2.1-1.3-2.7z"/><g id="_x23_f2f2f2ff"><path class="st16" d="M742-124.9c39.6-6 79.2-12.4 118.9-18.2 43.4 6.6 86.7 13.6 130.1 20.4 94.5 14.9 189 29.8 283.5 44.8-2.1.5-4.1 1.2-6.1 1.6-51.4.1-102.9 0-154.3 0-2.8 0-5.7.1-8.5-.3-80.8-12.8-161.6-25.5-242.4-38.3-1.4-.3-2.8-.3-4.2-.1-82 12.6-164 25.2-246 37.9-5.3 1.1-10.7.7-16 .7-47.5-.2-95 .2-142.4-.1-6-1.1-12.1-.3-18-1.6 101.7-15.5 203.6-31.1 305.4-46.8zM1268.3 159.9c6.8-8.7 12.6-18.1 19.6-26.5.2 31.3 0 62.7-2.7 94-1.6 16.9-3.5 33.8-6.2 50.6-14.4 92.9-47.5 182.4-94.4 263.8-3.3 6.3-8.4 11.8-9.2 19.1-6.2 41.4-16.8 82.1-32.5 120.9-4.6 11.7-10.2 23.2-17.4 33.6-12.7 18.6-25.4 37.1-38.1 55.7-.3-1.5-.5-2.9-.8-4.4l-3.9-21c-1-5.7-2.1-11.3-3.1-17-1.6-8.7-3.2-17.3-4.8-26-19 24.3-42.2 45.3-68.2 61.9-7.7 4.7-13.6 11.7-20.3 17.7-34.2 30-70 58.4-108.4 83-8.9 5.6-20.1 7.6-30.1 4.2-7.1-2.3-13-7.1-19.2-11-8.3-5.6-16.5-11.4-24.6-17.3-4.8-3.2-9-7.3-13.9-10.1-28.7 3.2-57.5 5.2-86.4 5.8-12.7.3-25.3.5-38 0-6.2-.1-12.3-.8-18.4-1.8-3.3-.5-6.6-.9-9.9-1.4-1.8-5.1-3.6-10.2-5.6-15.2-3-8.1-2.6-17.6 1.8-25.1 4.2-7.1 11.4-11.5 16.7-17.7 2.2-2.3 4.4-4.7 6.5-7.2 3.9-4.5 7.5-9.3 10.8-14.3 2.3-3.5 4.3-7.1 6.2-10.8 1.9-3.8 3.7-7.8 5-11.8-10.8-11.1-21.4-22.5-31.7-34.2-7.4 2.2-14.8 4.5-22.1 7.1-5.9 2-11.6 4.3-17.3 6.8-8.4 3.5-16.2 8.6-22.4 15.2-2.8 3-5.3 6.2-7.6 9.7-5.3 7.2-6.8 16.5-12.5 23.5-4.5 5.4-11 8.7-17.9 10-7.7 1-15.8-.9-22.1-5.6-4-3-7-7-9.5-11.3-4.7-7.2-9.5-14.2-14.2-21.3-11.7-17.8-22.9-36.2-31.2-55.9-6.4-15.4-11.1-31.5-13.3-48-1.9-13.9-1.9-28-.4-41.9 1.3-11.2 3.7-22.3 7.1-33.1 3.9-12.1 9-23.9 15-35.2 3.4-6.4 7.2-12.6 11.1-18.7-3.6-8.3-5.8-17.2-6.6-26.2-.6-10.3.7-20.8 3.9-30.6-20.5-51.3-35.4-104.8-44.4-159.4-4.2-26.6-7.2-53.4-8.5-80.4-1.3-22.4-1.1-44.8-1.1-67.2 3.5 5.1 7.4 10 10.9 15.1 3.3 4.6 6.3 9.6 10.4 13.5v12.9c.9.6 1.4 1.4 1.3 2.5 1.2 58 9.5 115.9 24.6 171.9 8.9 33.3 20.4 66 33.8 97.8-3.5 9.6-4.3 20.3-1.8 30.2 1.5 6.4 4.4 12.3 7.8 17.8 1.4 2 1.3 4.6-.1 6.5-7.3 10.9-14.4 22-20.2 33.8-9.7 19.6-15.7 41.1-16.4 63.1-.8 19.4 2.8 38.8 9.5 57 11.3 31 31.2 57.6 49 85.1.8 0 2.4.2 3.2.2 5.1-11.4 10.8-22.7 18.9-32.3 7.4-8.8 16.9-15.6 27-20.8 19.1-9.9 39.8-15.8 60.4-21.6 18.1 21.2 37.1 41.6 56.8 61.3-2.8 14.2-9.1 27.4-16.8 39.6-9 14-20.2 26.4-32.5 37.5-.8.7-1.2 1.6-1.8 2.5 9.9 1.2 19.9.8 29.8.9 35-.3 70-2.2 104.7-6.4 22 17 44.4 33.7 68.4 48 27.3-16.3 52.8-35.5 77.7-55.4 29.3-23.6 57.2-48.9 83.7-75.5 12.8-11.2 24.6-23.6 35-37.1 10.8-12.3 21.5-24.7 31.8-37.4 8.5 16.9 11.3 35.9 14.4 54.3.2-.5.5-1.5.7-2 .3.4.9 1.1 1.2 1.4 6.4-10.1 11.6-20.9 16-32 13.3-34.3 22.6-70.1 28.7-106.4 7.9-13.2 16-26.3 23.4-39.8 31.9-57.2 56.9-118.3 73-181.7 15.9-61.9 22.9-126 21.9-189.9.2 3.5.6 7 .8 10.4z"/></g><g id="_x23_0f1723ff"><path class="st17" d="M613-76.9c82-12.7 164-25.3 246-37.9 1.4-.2 2.8-.2 4.2.1 80.8 12.8 161.6 25.5 242.4 38.3 2.8.4 5.6.3 8.5.3 51.4 0 102.9.1 154.3 0v24.3c39.8-.1 79.6-.3 119.4-.4-9.7 12.7-19.5 25.4-29.2 38.1-30.1.1-60.2 0-90.4 0V1.3h78.5L1314 44.2h-45.8v15.4h34.2c-11.7 15.8-24 31.3-35 47.5-.3 14.1-.1 28.3-.1 42.5 1.1 63.9-6 128-21.9 189.9-16.1 63.5-41.1 124.6-73 181.7-7.4 13.5-15.6 26.6-23.4 39.8-6.1 36.3-15.3 72.1-28.7 106.4-4.4 11.1-9.5 21.9-16 32-.3-.4-.9-1.1-1.2-1.4-.2.5-.5 1.5-.7 2-3.1-18.5-5.9-37.4-14.4-54.3-10.3 12.7-20.9 25.1-31.8 37.4-10.4 13.5-22.1 25.9-35 37.1-26.5 26.6-54.4 51.9-83.7 75.5-24.8 19.9-50.3 39-77.7 55.4-23.9-14.3-46.4-31-68.3-48.1-34.5 4-69.5 5.9-104.5 6.2-9.9-.1-19.9.3-29.8-.9.5-.9 1-1.8 1.8-2.5 12.3-11.1 23.5-23.6 32.5-37.5 7.7-12.1 14-25.4 16.8-39.6-19.7-19.7-38.7-40.1-56.8-61.3-20.6 5.8-41.3 11.7-60.4 21.6-10.2 5.2-19.7 12-27 20.8-8.1 9.6-13.8 20.9-18.9 32.3-.8 0-2.4-.2-3.2-.2-17.8-27.5-37.7-54.1-49-85.1-6.7-18.2-10.2-37.6-9.5-57 .7-21.9 6.8-43.4 16.4-63.1 5.8-11.8 12.9-22.9 20.2-33.8 1.4-1.9 1.5-4.5.1-6.5-3.4-5.5-6.3-11.4-7.8-17.8-2.5-10-1.7-20.6 1.8-30.2-13.4-31.8-24.9-64.4-33.8-97.8-15.1-56-23.4-113.9-24.6-171.9.1-1.1-.4-2-1.3-2.5v-12.9V115c-13.6-18.7-27.1-37.4-40.6-56.1h42.6V42.7h-54.3c-10.2-14-20.3-28-30.4-42.1h84.8v-15.3c-32-.1-64 .1-96-.1-9.3-13.1-18.8-26-28.2-39.1 40.8.2 81.5.2 122.3.3v-22.7c47.5.2 95-.1 142.4.1 5.2 0 10.6.3 15.9-.7M475.2-33.1v178.4c29.8-5.6 59.5-11.4 89.3-16.9.4-.7.8-1.4 1.1-2.1 2-5.9 2.6-12.2 2.6-18.4V67c0-5.1-1.2-10.5-4.5-14.6-2.2-2.8-5.8-4-9.2-4.5 3.5-1.3 6.9-3.4 8.8-6.7 2.5-4.7 3.2-10.1 3.1-15.3V-31c-.1-6.9-1.9-14.4-7.1-19.3-3.8-3.6-9.2-4.9-14.3-4.9-22.8 0-45.6-.1-68.4 0-.3-.3-.9-.8-1.1-1.1-.8 7.6-.1 15.5-.3 23.2m108.8-9v166.7c22-4.2 44-8.3 66-12.5.8-.1 2.2-.4 3-.5 1.5-6.5 3-13.1 4.4-19.6-12 1.8-24.1 3.7-36.1 5.6V-55.3h-36.1l-.5-.5c-1.6 4.2-.3 9.2-.7 13.7m84.2 111c.1 10.4-.9 21.4 3.9 30.9 1.5 2.6 3.3 5.6 6.1 6.8 24.7-4.5 49.3-9.4 74-13.9 1.3-.2 2.5-.6 3.7-1.2.8.1 1.7.2 2.6.1 2.3-6.3 2.9-13 2.9-19.7V-55.4H726l-.5-.6c-.3.2-.9.7-1.2.9-.3 43.6 0 87.3-.2 130.9 0 1.4.1 2.8.3 4.1-.7 2.6-3.5 2.1-5.5 2.5-3.6.4-7.3 1.2-10.9 1.5-2.2.2-2.9-2.2-2.8-4V-55.4c-12.3 0-24.6-.1-36.9 0-.3 41.5-.1 82.9-.1 124.3M776-51.1c.1 46.5-.1 93 .1 139.5l.9-.6c23.3-4.1 46.5-8.8 69.7-13.1l1.2-5.1c.8-3.7 1.8-7.4 2.6-11.1-12.5 0-24.9.1-37.4 0-.1-6-.2-12 .1-17.9 9.8.4 19.5 0 29.3.2v-.1c.4-12 .1-24.1.2-36.1h-29.9l.3-.3c.1-6.9-.2-13.9.2-20.8 12.9.4 25.9.1 38.8.2-.9-6.2-2-12.4-3-18.5-1.1-6.8-2.2-13.6-3.3-20.3h-68.4l-.5-.5c-1.6.8-.7 3-.9 4.5m108-4.3c-1.1 6.8-2.2 13.6-3.3 20.3-.9 6.2-2.2 12.3-2.9 18.6 12.8 0 25.7-.1 38.5 0 0 25.6.1 51.3-.1 76.9-.6.3-1.8 1-2.4 1.3-3.5-.5-6.9-1.5-10.4-2.1-2-.5-4.3-.5-5.7-2.2l-.4.2c-.4-8.4-.1-16.7-.2-25.1h-34.8c-.3 10 .2 19.9-.3 29.9.3 3.7 1 7.6 2.9 10.7 16 3.2 32.1 6.2 48.1 9.2 3.8-2.3 7.6-4.5 11.2-7.1.5-.3 1.5-.9 2-1.1 2.3-1.5 4.6-3.2 7-4.5v-.4c6-3.8 11.6-8.2 17.3-12.5.8-.8 2.3-1.4 2.1-2.7 0-36.4.1-72.8 0-109.3-22.8 0-45.7-.1-68.6-.1m89.9 91.7c5.9-5.3 10.7-11.7 16.6-17.1-1.4 13.6-3.1 27.1-4.9 40.6-.4 3.6-1.2 7.2-.9 10.9-1.6 8.2-1.8 16.6-2.5 24.9 5.1 1 10.3 2 15.4 2.9 1.6-8.3 3-16.7 4.8-25l-.5-.8c6.7-.1 13.4-.1 20.1 0 1.7 10.5 3.2 21 5 31.5 9.7 1.6 19.2 3.9 28.9 5.3 2.2 1 4.7 1 7 1.5-10.4-55.4-20.7-110.9-31.2-166.3-12.5.1-24.9 0-37.3.1l-.8-.6c-7 30.5-13.3 61.3-19.7 92.1m77.3-91.6l.9.8c-.2 2.5.7 4.8 1.2 7.2 8.1 35.6 16.2 71.2 24.4 106.8 2.8 11.7 5 23.6 8.3 35.1-.1 6.9 0 13.7-.1 20.6.4.1 1.3.4 1.8.5 9.7 1.8 19.3 3.7 29 5.5 1.9.3 3.8 1 5.8.6l1.1 1c1.1-9.5-.1-19.3.6-28.9 11.3-49.8 22.8-99.5 34.1-149.3-12.4 0-24.8.1-37.1-.1l-.2 1-.1-.3c-4.7 30.3-10.1 60.4-14.9 90.7-.2 1.7-.7 3.3-1.4 4.8-5-32.1-10.5-64.1-15.7-96.2-12.7.2-25.2.1-37.7.2m119 8.8c-4.1 5.6-5 12.7-5 19.4v68c0 6.7.6 14.2 5.2 19.5 3.1 3.7 8.2 4.7 12.8 5.1 8.2.4 16.4-.2 24.6.3 2.6 0 2.7 3.1 2.8 5 .2 8.7 0 17.4.1 26.1.1 1.9-.5 3.8-1.2 5.5-2.7 1.2-5.5.2-8.2-.2-11.1-1.9-22.3-3.8-33.4-5.6.6 5.6 1.2 11.2 1.9 16.8.7 6.1 1.3 12.2 2 18.3 20.7 4 41.4 7.9 62.1 11.9 1.3.5 2.2-.8 3.2-1.3 3.1-2.8 5.6-6.3 6.8-10.4 2.9-9 2.1-18.6 2.2-28v-52c-.1-5-.5-10.4-3.4-14.7-3-4.4-8.6-6.1-13.7-6.1-8-.1-16.1 0-24.1-.1-1.3.1-2.5-.7-3.7-1.2-.5-1.6-.9-3.3-.8-5v-32c0-2.9-.3-5.8.8-8.5 2.7-1.3 5.8-.9 8.7-1h35.5c-1.1-7-2.2-14.1-3.4-21.1-1-5.8-1.9-11.7-2.8-17.5H1189c-7.1 0-14.6 2.7-18.8 8.8M923 111.9c-49.6 26.6-102.6 45.8-154.3 67.7-29.9 12.6-59.2 26.6-86.7 43.9-.1.4-.2 1.1-.3 1.5 10.8-5 21.9-9.8 33.8-11.1-4.6 3.3-9.5 6.1-14 9.5-53.7 37.8-91.7 98.2-100 163.6-.3 2.9-2.3 5.5-5.1 6.5-6 2.1-11.7 5.3-16.5 9.5-3.9 3.5-5.8 8.9-5 14.1 1.1 8.3 4.9 15.8 9 23 1.3 1.8 1.8 4.5 4.1 5.2 2.7-.2 5.4-1.2 8.1-1.5 11.4-1.1 22.4 3.1 32.8 7.4 2.9 1 5.4 3.2 8.5 3.2-.7-11 .3-22.5 5.3-32.5 6.4-13.2 19.2-22.5 33.3-26.1 2.3-.7 5.3-.9 6.7-3.2 3.6-5 6.5-10.4 9.1-15.9 14.1-30.4 15.2-64.9 28.3-95.6 6.5-15.6 15.9-30.1 28.4-41.5 11.6-10.7 25.1-19 39.4-25.6-6.8 12.7-13.6 26.6-12 41.5 2.3-1.1 4.2-2.8 6.2-4.3 10.3-7.7 21.7-13.9 34-17.7 19.4-6.3 40.3-5.9 60.1-1.6 18.1 3.9 35.2 11.9 50.2 22.8 26.4 19.1 46.6 45.8 61.3 74.8 7.2 13.6 12.6 28.1 18.6 42.3 2.2-5.8 3.1-11.9 4.7-17.9 2 3.8 3 8.1 4.4 12.3 5.8 21 7.8 42.8 7.9 64.5 6.3-9.7 9.5-20.9 13.7-31.6 5.3 33.3.8 67.3-6 100.1 10.4-11.1 14.7-26 19.7-39.9 2.4 13.5 2.9 27.2 2.5 40.9-1 30.5-5.6 61-13.6 90.4-4.2 14.9-9.1 29.8-17 43.2-.9 1.3-1.5 2.9-3 3.5-4.8-17.4-9.8-36-23.6-48.7-10.7 30.3-27.2 58.3-47.6 82.9-35.2 42.4-79.5 77.3-129.6 100.5 10.5-.7 20.8-2.7 31.1-4.5 56.6-10.8 111.4-34.6 155.1-72.4 25.1-21.8 45.8-48.6 60.2-78.6 11.7-23.9 19.1-49.8 23.1-76 8.5 23.1 15.2 46.9 20.1 71 2.2-4.9 2.6-10.3 3.9-15.4 4-19.1 7.5-38.4 9.9-57.8 4.3-35.2 5.8-71.2-.4-106.3-1.3-8.1-6.7-15.2-14-18.8-41-22.2-77.7-53-104.8-91.1-20.7-28.4-34.3-61.6-41.7-95.9-8.2-38.4-12.9-77.9-9.7-117.1.3-4.5 1.7-9 1.2-13.6-9.9 5.2-19.7 11-29.8 16.4m-65.9-3.9c-10.1 2-20.2 3.9-30.3 5.8-3.9.7-7.7 1.5-11.6 2.2-24.1 4.4-48.2 9.2-72.3 13.7-1.7.3-3.2.8-4.8 1.4l-.1-.5c-11.7 2.2-23.3 4.4-35 6.7-17.4 3.3-34.8 6.6-52.1 9.9-29.1 5.3-58.1 11-87.1 16.5-8.9 1.8-17.9 3.4-26.8 5.1-15.5 2.9-31 5.9-46.5 8.8.4 11.6.5 23.3 1.8 34.8-.3 3.1.1 6.2.4 9.3 4.6 53.2 15.5 105.9 32.3 156.5.5 2.3 1.3 4.5 2.3 6.6.7-.9 1.1-1.9 1.3-2.9 6.4-8 13.4-15.7 21.5-22 2-1.5 3.3-3.7 3.8-6.2 2.2-8.8 4.7-17.6 7.7-26.1 10.8-31.5 28.4-60.5 51.1-84.8l-.5-.8c5.6-3.6 9.3-9.4 14.6-13.4 11.6-10.6 24.2-20.1 37.3-28.8 12.7-8.1 25.8-15.7 39.3-22.5v-.2c13.7-6.8 27.4-13.3 41.4-19.5 23.3-10.2 46.9-19.6 70.4-29.2 4.1-1.6 8.1-3.4 12.3-4.9v-.3c8.8-3.2 17.4-7.2 26.1-10.9 3.1-1.5 6.5-2.5 9.3-4.5-1.9-.2-3.9-.2-5.8.2m124.1 22.7c.1 25.2 2.3 50.4 6.6 75.3 2.9 16 6.1 32.1 11.8 47.5 6 16.6 14.3 32.4 24.4 46.8l-.1.3c7 9.3 14.1 18.5 22.1 26.8 10 11.2 21.2 21.3 32.9 30.6s24 17.8 36.9 25.5c8 5 16.7 8.8 24.6 13.9 4.5 2.8 5.2 8.4 7.2 12.9l-.6.6c5.4 22.4 8 45.5 8.2 68.6 21.2-41 38.3-84.2 51.2-128.6.1 0 .3-.1.4-.2 1-6.1 3-11.9 4.4-17.8 4.1-16.1 7.8-32.4 10.8-48.8 4.3-25.6 7.8-51.4 9.3-77.3.5-7.1 1.4-14.3.4-21.4 1.1-2.1.5-4.6.7-6.8-25.2-4.8-50.4-9.7-75.6-14.4v-.1c-4.6-.8-9.2-1.7-13.8-2.6-22.6-4.4-45.3-8.7-67.9-13-4.1-.7-8.1-2-12.3-1.8l.1-.4c-8-1.5-16-3.1-24.1-4.6-19.1-3.7-38.4-7.3-57.6-11m-364 146c6.7-4.6 14.8-7.2 20.6-13.1 6.4-6.3 13.1-12.4 20.2-17.8 2.1-1.6 4.4-3 6.3-5-18.9 6.9-36.1 19.1-47.1 35.9m127.2-1.5c-6.1 16.5-6.9 34.5-4.9 51.8 0 1.1.5 1.9 1.4 2.5 4-7.5 7.8-15.1 11.8-22.6 2-3 .4-6.7.3-10-1.2-19.2 4.4-38.1 12.9-55.1-9.4 9.3-16.9 20.8-21.5 33.4M606.2 303c-12.3 16.2-21.1 35.1-25.7 54.9-.6 2.6-1.2 5.4-3 7.5-2.2 2.6-5.4 3.8-8.1 5.7-8.4 5.6-15 14.5-16.3 24.7-1.5 10.4 2.5 21 8.9 29.1-.6-9.6-1.1-19.7 3.4-28.5 4-8 12-13.2 20.3-16 2.1-.5 3.2-2.5 3.2-4.6 2.5-21.5 8.5-42.7 17.8-62.3 4.3-9.7 10.1-18.6 15.3-27.8-6.2 4.8-10.9 11.3-15.8 17.3m246.9-13.1c-16 4.6-29.3 15.4-41 26.9-1.8 1.6-2.8 4.3-1.5 6.6 8.3 15.4 10.7 33.3 9.6 50.6 10.4-7.2 23.8-8.2 35.8-4.8-11.6 4.8-20.9 13.4-29.8 21.9-16.3 15.7-30.9 33.1-48 48-11.8 10.5-25 19.6-39.8 25.3-17.8 7-37.5 8.5-56.2 4.7-3.9-.9-7.8.4-11.2 2.3 23.2 11.6 48.8 20 75.1 18.6 18.3-.9 36.2-6.8 52.1-15.9 16.5-9.4 31.1-21.8 44.3-35.3.2 13.4-5.5 26.3-14.6 35.9-1.5 1-1.4 2.7-.5 4 4.3 8.4 5.7 17.9 5.8 27.2 0 32.1-7.1 64-3.8 96.1 1.9 18.5 7.9 36.8 18.8 51.9 2.1 3.1 4.9 5.7 6.1 9.4-7.7-.7-15.4-1.9-23.2-2.2-11.5-.4-23 .7-34.1 4-14.4 4.2-27.6 12.1-38.2 22.6-2.7 2.6-3.7 6.5-3.3 10.2 1 18.5-1.7 37.3-9.4 54.2-4.2 9.8-10.5 18.5-17 26.9 19.9-8.4 39.3-18 58-28.9 47.9-27.8 90.9-64.4 124.2-108.8 21.2-28.2 37.6-60.4 45.4-94.9 4.3-19.2 5-39.8-1.8-58.5-4.7-13-15.3-24.2-28.9-27.9-13.3-4-27.2-1-40 3.1 12.1-25.1 22.5-51.4 26.6-79.2 2.6-18.3 3.2-37.3-1.5-55.3-3.8-13.6-10.9-27.2-23.2-35-10.2-6.5-23.3-7.2-34.8-3.7m92.7 7.9c2.3 4.7 5.3 9.1 7.6 13.8 9.9 18.3 17.7 37.6 23.3 57.6 11.6 40.3 14.3 82.6 13.3 124.3 12.4-27.6 21.4-57.6 19.4-88.2-2.3 3.5-4.1 7.6-7.5 10.3-.5-.1-1.5-.3-1.9-.4-5.2-34.4-18.5-67.5-38-96.2-5.1-7.3-10-14.9-16.2-21.2m-219.8 20c-2.2 29.4-10.2 58.3-23.2 84.8-1.5 2.9-4.5 4.8-7.7 5-11.2 1.1-21.7 7-28.8 15.7-5.7 7-8 16.2-8.3 25.1 2.1-2.4 3.9-5 6-7.5 9.7-11.4 24.4-17.3 39.1-18.4 3.2-.1 6.6-1.5 7.8-4.7 13.4-31.2 18.7-65.7 16.4-99.6-.3 0-1-.3-1.3-.4m46 42.1c-.8 2 0 4.1 1.4 5.6 8.5 10.3 14.6 22.3 19.2 34.7 3.3-4 5.1-8.9 6.9-13.7 5.3-15.3 3.8-32.3-2-47.2-.6-1.8-2.6-2.8-4.3-2-9.9 3.9-18 12.4-21.2 22.6m-16.4 16.5c-1.1 1.8-3.4 4.2-1.6 6.4 2.1 1.6 4.3 3.2 6 5.3-4.2.6-7.7 4.4-7 8.8.1 5.4 6.7 8.5 11.2 6.3 2-1 3.2-3 4.2-4.9 4.2 5.2 6 11.7 8.3 17.9 1.5-1.4 4-2.6 3.6-5.1-1-14.6-8.7-28.4-20.2-37.4-2.1-1.5-3.4 1.4-4.5 2.7m-7.5 33.6c-3 1.5-3.5 5.8-1.9 8.6 2.5 3.8 9.6 3 10.5-1.7 1.8-4.9-4.1-9.4-8.6-6.9m-198.6 36.1c-3.9 6.3-7.5 13.2-7.3 20.8 0 5.1 2 9.9 4.7 14.2 5.2-7 11-13.3 17.4-19.2-4.6-5.6-9.9-10.5-14.8-15.8m43.3 16.6c-10.1 6.3-19.5 13.7-27.1 22.8-1.1 1.5-3 2.8-2.9 4.9 13.4-2.6 27.3-1.1 40 3.8 16.1 6.1 30.5 15.8 44.7 25.2 1.3.9 2.9 1.6 3.5 3.2-9.1-3.4-18.1-7.2-27.3-10.1-15.4-4.9-31.3-9.5-47.7-9.3-6.8.1-14.1.8-19.9 4.8-4.5 3-7.1 7.8-10.2 12.1-10.4 15.3-19.6 31.5-25.5 49.1-6.3 18.8-7.8 39.3-3.7 58.8 4 18.4 11.9 35.7 21.5 51.9 1.1 1.8 1.8 3.9 3.8 5 10.7-17.6 24.5-33.4 41.3-45.5 13.8-10.1 29.6-17 45.3-23.7 7-2.8 13.5-6.8 18.7-12.3 3.7-3.8 6.3-8.4 9.4-12.6 9.3-12.5 19-24.9 30.8-35.3 13.7-12.3 29.9-21.9 47.5-27.3 20.3-6.4 42-7.5 63.1-4.7-4.7 4.1-10.1 7.9-12.9 13.6-.8 1.5-.4 3.2.1 4.7 7.6 22.9 8.9 47.3 7.5 71.3 0 1.4-.4 2.9-1.5 3.9-7.3-2.8-14.3-6.4-21.9-8.6-23.4-7.4-48.6-7.6-72.6-3-16.9 3-33.7 8.6-47.5 19-9.3 7.1-20.7 10.2-31.1 15-13.4 6.2-26.4 14-36.6 24.8 6.1-2.1 11.9-5.1 17.9-7.5 35.7-14.8 72.6-28.1 111.2-32.3 20.1-1.9 40.8-2 60.6 2.7-10.8 5.8-21.8 11.7-34 13.9 6.3 8.8 10.5 18.9 13.8 29.1 16-13.5 35.9-22.2 56.6-25.3 4.5-.9 9-.8 13.5-1.9-.3-1.4-.7-2.8-1.2-4.1-6.2-15.5-8.5-32.3-9-48.9-.8-25.8 3.3-51.3 4.3-77 .1-8 0-16.3-2.6-23.9-.9-2.3-3.6-1.3-5.2-.3-13.2 7.7-27.5 13.5-42.5 16.5-19.5 3.9-39.8 2.9-59.1-2-19.8-4.9-38.5-13.5-56.7-22.6-13.4-6.4-26.3-14.3-40.7-18.2-5-1.3-10.9-2.6-15.7.3m114.3 99.2c-10.7 8.2-20.4 18-28.1 29 27.1-7.1 55.8-8.9 83.2-2.8 4.4.8 8.7 2.5 13.2 2.9.6-5.1-.7-10.1-.7-15.2.2-2.4-1.2-4.8-3.6-5.3-12.5-3.1-25.6-3.9-38.3-2.1 8.5-4.8 17.7-8.1 27.2-10.2 3.3-.8 7.6.6 10.2-2.2 1.8-3.7-.9-7.5-2.1-11-1-2-1.1-5.3-3.9-5.5-20.7 1.9-40.7 9.9-57.1 22.4M871.7 789c-10.5 2.6-21.2 4.6-31.8 6.7 5 3.9 10.2 7.4 15.4 11 3.4-3.3 6.8-6.7 10.3-10 1.8 1.9 3.7 3.7 5.6 5.5 9.2-6.5 18.4-13 27.2-20.1-8.9 2.5-17.7 4.9-26.7 6.9z"/><path class="st17" d="M511.3-18.9h18.9c.9 1.4 1.9 2.9 1.8 4.7.1 13.3 0 26.7.1 40 0 2.7-.1 5.3-.8 7.9-.6.3-1.8 1-2.4 1.4-5.8.5-11.6 0-17.5.2-.1-18 0-36.1-.1-54.2zM1012.4 20.8c2 6.7 3.5 13.5 5.3 20.3-3.5 0-7.1.1-10.6-.1 1.7-6.8 3.6-13.5 5.3-20.2zM511.3 66.8c5.9.1 11.8-.3 17.6.1 3.9 1.3 3 5.8 3.1 8.9-.2 12.1.4 24.3-.3 36.4-6.8 1.4-13.6 2.2-20.4 3.3V66.8zM664.6 291.4c.7-.8 1.5-1.4 2.5-1.6-9.9 17.2-18.7 35.1-25.4 53.9-5 14.5-9.5 29.4-11.1 44.7 6.3-.5 12.4-2.1 18.6-2.6-6.5 7-14.7 13.1-24.3 14.7-4.1.7-8.8-.7-11-4.5-3-5-2.1-11-2-16.5 2.6 1.4 4.6 3.5 6.9 5.4 6.1-34.8 22.7-67.2 45.8-93.5zM627.1 491.8c-1.4-2.6 1.2-5.5 3.9-5.3 7.5 0 14.7 2.7 21.3 6.1-6.3.2-14.1 1.7-16.2 8.7-3.6-2.6-6.9-5.6-9-9.5z"/></g><g id="_x23_ffffffff"><path class="st18" d="M281-76.7h149c2.2 0 4.3-.9 6.5-1.2 5.9 1.2 12 .5 18 1.6v22.7c-40.8-.1-81.5-.1-122.3-.3 9.4 13.1 18.9 26 28.2 39.1 32 .2 64 0 96 .1V.6h-84.8c10.1 14 20.3 28.1 30.4 42.1h54.3v16.2h-42.6c13.5 18.7 27 37.4 40.6 56.1.1 16.1 0 32.2 0 48.3-4.1-4-7.1-8.9-10.4-13.5-3.6-5.1-7.4-10-10.9-15.1l-5.4-7.5c-4.8-6.6-9.5-13.2-14.3-19.8-4.3-6-8.6-12-13-18-4.6-6.4-9.1-12.8-13.8-19.1-5-7-10-14-15.1-21-5.7-8-11.5-15.9-17.2-23.9l-73.5-102v-.1zM1268.3-76.2c2-.5 4-1.1 6.1-1.6 8.1 1.8 16.4 1 24.6 1.2 46.7-.1 93.3.2 140-.1v.3c-10.5 13.7-20.3 28-30.5 41.9-35.9 49.8-71.7 99.6-107.6 149.4-4.3 6.3-9.2 12.1-13 18.6-7 8.5-12.8 17.9-19.6 26.5-.2-3.5-.6-6.9-1-10.3-.1-14.2-.2-28.4.1-42.5 11.1-16.3 23.3-31.7 35-47.5h-34.2V44.3h45.8l32.7-42.9h-78.5V-14c30.1 0 60.2.1 90.4 0 9.7-12.8 19.5-25.4 29.2-38.1-39.8.1-79.6.3-119.4.4-.1-8.3-.1-16.4-.1-24.5zM476.7-55.3c22.8-.1 45.6 0 68.4 0 5.1 0 10.5 1.3 14.3 4.9 5.2 4.9 7 12.4 7.1 19.3v56.9c0 5.2-.6 10.7-3.1 15.3-1.9 3.4-5.3 5.4-8.8 6.7 3.4.5 7 1.7 9.2 4.5 3.3 4.1 4.5 9.4 4.5 14.6v40.9c0 6.2-.6 12.5-2.6 18.4-5.5-1.9-11-3.8-16.5-5.6.8-3.5 1.2-7.2 1.2-10.8.1-15 .2-30 0-45-.2-3.6-.1-7.7-2.4-10.7-2.5-2.7-6.5-2.7-9.9-3-14.8-.3-29.6.1-44.3-.2 5.4-5.8 12.3-9.9 17.8-15.7 5.8-.3 11.7.2 17.5-.2.6-.4 1.8-1 2.4-1.4 4.8 5.7 9.5 11.5 14.5 17.1 4.5-3.2 4.3-9.1 4.4-13.9.2-20 .1-40 0-60-.2-4.3.1-9-2.5-12.6-2.9-3.2-7.6-3.1-11.6-3.3-14.6-.3-29.1 0-43.7-.2-5.5-5.3-10.6-10.7-15.9-16zM585.2-55.3h36.1V97.6c12-1.9 24.1-3.7 36.1-5.6-1.5 6.5-2.9 13.1-4.4 19.6-.8.1-2.2.4-3 .5-.7.1-2.2.4-2.9.5-2.2-2.1-4.4-4.3-6.6-6.6-12.5 1.9-25 4.1-37.5 6.1V-37c-5.9-6.2-11.9-12.2-17.8-18.3zM668.3-55.3c12.3-.1 24.6 0 36.9 0V80c-.1 1.8.6 4.2 2.8 4 3.7-.3 7.3-1.1 10.9-1.5 2-.4 4.8.1 5.5-2.5 6.5 2.3 13.2 4.3 19.4 7.2-5 3.3-11.3 2.9-16.9 4-7.3 1.3-14.6 2.1-21.9 3.5-4.6 1-9.9.9-13.8-2.1-3.8-3-5-8.1-4.9-12.7V-35.4c-5.2-5.6-10.6-10.9-15.9-16.3-1.1-.9-1.6-2.3-2.1-3.6zM725.9-55.3h35.4V72c0 6.6-.6 13.4-2.9 19.7-.9.1-1.7 0-2.6-.1-3.7-1.6-7.5-2.9-11.2-4.2.1-39.2 0-78.3 0-117.5.1-1.2-.2-2.5-1-3.4-5.9-7.3-11.9-14.5-17.7-21.8zM777.4-55.3h68.4c1.1 6.8 2.2 13.5 3.3 20.3h-52.2l-.6-.7c-6.2-6.8-12.9-12.9-18.9-19.6zM884-55.4c22.9 0 45.8.1 68.7 0 .1 36.4 0 72.8 0 109.3.3 1.4-1.3 1.9-2.1 2.7-5.7 4.3-11.3 8.7-17.3 12.5.3-34.8-.2-69.7.3-104.5-17.6.8-35.3.1-52.9.3 1.1-6.7 2.2-13.5 3.3-20.3zM994.2-55.3c12.4-.1 24.9.1 37.3-.1 10.5 55.4 20.8 110.9 31.2 166.3-2.3-.6-4.8-.6-7-1.5-3.7-4-7.6-7.8-11.4-11.7-2-1.7-1.8-4.4-2.3-6.7l-5.4-34.2c-7.6-31.3-15.4-62.6-22.9-93.9-.1-.4-.3-1.1-.4-1.5-.3-.9-.5-1.9-.8-2.8-6.1-4.7-12.2-9.2-18.3-13.9zM1051.2-55.3c12.5-.1 25 0 37.5-.1 5.2 32.1 10.7 64.1 15.7 96.2 3.2 11.6 5.3 23.5 8.2 35.2 7.9-36.6 16.1-73.2 23.9-109.9-5.2-6.8-10.8-13.4-15.5-20.6l.2-1c12.4.1 24.7 0 37.1.1-11.4 49.8-22.8 99.5-34.1 149.3-.7 9.6.5 19.3-.6 28.9l-1.1-1c-6.2-5.1-13-9.4-19.4-14.2-.4-6.8.8-13.8-1.2-20.4-9.2-39.4-18.4-78.9-27.6-118.3-.3-2.3-2.3-3.8-3.8-5.4-6.2-5.9-11.9-12.4-18.3-18.1l-1-.7zM1170.2-46.5c4.2-6.1 11.7-8.8 18.8-8.7 16.7-.1 33.4 0 50.2 0 1 5.8 1.8 11.7 2.8 17.5-16.7.1-33.4-.1-50.1.1-3.4-.1-6 2.3-8 4.8-4.5-4.6-9.2-9.1-13.7-13.7zM796.4 22.6c5.3-6.1 10.9-12.1 16.3-18.1 9.9.1 19.9 0 29.9 0-.1 12 .2 24.1-.2 36.1-1.4-5.6-.2-11.5-.6-17.3h-38.7c-1.9 0-3.9 0-5.4 1.3-.5-.7-.9-1.3-1.3-2zM1201.3 29.9c1.2.5 2.3 1.2 3.7 1.2 8 .1 16.1-.1 24.1.1 5.1 0 10.6 1.8 13.7 6.1 2.9 4.3 3.3 9.7 3.4 14.7v52c-.1 9.3.7 19-2.2 28-1.2 4.1-3.7 7.6-6.8 10.4-3.8-6.1-7.6-12.1-11.3-18.3 4-4.4 3.3-10.7 3.4-16.2-.1-15.6.1-31.3-.1-46.9.1-4.8-3.6-9.4-8.5-9.7-9.2-.3-18.5.1-27.7-.2-2.4.1-4.7-1-6.5-2.5 4.6-6.6 10-12.4 14.8-18.7zM862.1 62.3c.5-10 0-19.9.3-29.9 11.6.1 23.2 0 34.8 0 .1 8.4-.2 16.7.2 25.1-5.6 2.4-11.4 4.1-17 6.4-1.9-4.4-.6-9.4-1-14-5.5-5.4-10.9-11-16.5-16.3-.8 9.6.6 19.2-.8 28.7z"/><path class="st18" d="M1004 44c3.8-4.1 9.8-2 14.7-2.5 5.3 4.2 10.7 8.3 16.1 12.4h-42.2c3.9-3.3 7.7-6.6 11.4-9.9zM797 75.2c5.1-5.9 11-11 16.1-16.9 12.5.1 24.9 0 37.4 0-.9 3.7-1.8 7.4-2.6 11.1-15.9 2-31.7 3.8-47.6 5.8-.9.1-2.5.1-3.3 0zM511.3 115.6c6.8-1.1 13.7-2 20.4-3.3 4.4 4 8.9 7.8 13.4 11.8-16.9 3.2-33.9 6.1-50.9 9.3 5.1-6.6 11.6-11.8 17.1-17.8z"/></g><g id="_x23_848484ff"><path class="st0" d="M475.2-33.1c.2-7.8-.4-15.6.4-23.3.3.3.9.8 1.1 1.1 5.3 5.3 10.5 10.7 15.7 16.1 14.6.1 29.1-.1 43.7.2 4 .3 8.7.2 11.6 3.3 2.7 3.6 2.3 8.4 2.5 12.6.1 20 .1 40 0 60-.1 4.9 0 10.8-4.4 13.9-4.9-5.6-9.7-11.4-14.5-17.1.7-2.6.8-5.3.8-7.9-.1-13.3 0-26.7-.1-40 .1-1.8-.8-3.3-1.8-4.7-1-1.4-2.7-1.1-4.2-1.1-4.9 0-9.9.1-14.8 0-6-6.2-12.2-12.3-18.1-18.6v172.2c.3-.1.8-.2 1.1-.2 16.9-3.2 33.9-6.2 50.9-9.3-4.4-4-9-7.8-13.4-11.8.7-12.1.1-24.3.3-36.4-.1-3.1.7-7.6-3.1-8.9-5.8-1.7-12-.3-17.9-.7-5.9-5-11.6-10.3-17.5-15.3 14.8.3 29.6-.1 44.3.2 3.4.3 7.4.3 9.9 3 2.3 3 2.2 7.1 2.4 10.7.2 15 .1 30 0 45 0 3.6-.4 7.2-1.2 10.8 5.5 1.9 11 3.8 16.5 5.6-.4.7-.8 1.4-1.1 2.1-29.8 5.5-59.5 11.3-89.3 16.9.2-59.5.2-118.9.2-178.4zM584-42.1c.4-4.5-.9-9.5.7-13.8l.5.5c5.9 6.2 11.9 12.2 17.8 18.3V112c12.5-2 25-4.2 37.5-6.1 2.1 2.2 4.3 4.4 6.6 6.6.7-.1 2.2-.4 2.9-.5-22 4.2-44 8.4-66 12.5V-42.1zM668.2 68.9c.1-41.4-.1-82.8.1-124.2.5 1.3 1.1 2.7 2.2 3.7 5.3 5.4 10.8 10.7 15.9 16.3-.1 38.4 0 76.9 0 115.3 0 4.6 1.1 9.7 4.9 12.7 3.9 3 9.2 3.1 13.8 2.1 7.2-1.4 14.6-2.2 21.9-3.5 5.7-1.1 11.9-.7 16.9-4-6.2-3-12.9-4.9-19.4-7.2-.3-1.4-.4-2.7-.3-4.1.2-43.6-.2-87.3.2-130.9.3-.2.9-.7 1.2-.9l.5.6c5.8 7.3 11.8 14.5 17.7 21.7.9.9 1.1 2.2 1 3.4V87.4c3.8 1.3 7.5 2.6 11.2 4.2-1.2.6-2.4 1-3.7 1.2-24.7 4.6-49.3 9.5-74 13.9-2.8-1.2-4.6-4.2-6.1-6.8-4.9-9.6-3.9-20.6-4-31zM776.9-55.9l.5.5c6 6.7 12.7 12.9 18.8 19.6-.5 19.1-.2 38.2-.2 57.3-.1 18.2-.1 36.3 0 54.5 1.4-.2 2.9-.5 4.3-.7 15.8-2 31.7-3.8 47.6-5.8l-1.2 5.1c-23.2 4.4-46.4 9-69.7 13.1 0-47.8.1-95.7-.1-143.6zM973.9 36.3c6.5-30.8 12.8-61.6 19.5-92.2l.8.6c6 4.7 12.2 9.2 18.4 13.8.3.9.5 1.9.8 2.8-1.1 2.1-2.1 4.2-2.6 6.5-6.8 28.7-14 57.3-20.8 86.1h45c-5.4-4.1-10.8-8.3-16.1-12.4-.3-.1-.8-.3-1-.4-1.8-6.8-3.3-13.6-5.3-20.3.3-18 .1-35.9.1-53.9 0-1.5.4-2.8 1.2-4.1 7.5 31.3 15.3 62.6 22.9 93.9l5.4 34.2c.4 2.3.3 5 2.3 6.7 3.8 3.9 7.8 7.7 11.4 11.7-9.7-1.4-19.3-3.6-28.9-5.3-1.8-10.5-3.3-21-5-31.5-6.7 0-13.4-.1-20.1 0-4.2-6-8.2-12.1-12.5-18-1.6 5.3-2.3 10.9-4.7 16-.3-3.6.5-7.2.9-10.9 1.8-13.5 3.5-27 4.9-40.6-5.9 5.5-10.7 11.9-16.6 17.3zM1120.7-54.7l.1.3c4.7 7.1 10.3 13.7 15.5 20.6-7.7 36.7-15.9 73.3-23.9 109.9-2.9-11.7-5-23.6-8.2-35.2.7-1.5 1.2-3.1 1.4-4.8 5.1-30.3 10.4-60.5 15.1-90.8zM1052.1-54.5c6.4 5.7 12.1 12.1 18.3 18.1 1.5 1.6 3.5 3 3.8 5.4 9.2 39.4 18.3 78.9 27.6 118.3 2 6.6.8 13.6 1.2 20.4 6.4 4.8 13.2 9.1 19.4 14.2-2 .4-3.9-.3-5.8-.6-9.7-1.9-19.3-3.7-29-5.5-.9-5.6-.4-11.2-.4-16.8.1-1.6-.6-3-1.3-4.3-3.2-11.6-5.4-23.4-8.3-35.1-8.1-35.6-16.2-71.2-24.4-106.8-.4-2.5-1.3-4.9-1.1-7.3zM1165.3-27.1c0-6.7.9-13.9 5-19.4 4.5 4.6 9.2 9.1 13.8 13.6 1.9-2.5 4.6-4.9 8-4.8 16.7-.2 33.4 0 50.1-.1 1.3 7 2.3 14.1 3.4 21.1h-35.5c-2.9 0-6-.3-8.7 1-5.5-4.9-10.9-9.9-16.4-14.7-.1 23.8 0 47.5 0 71.3-.1 2.7.5 5.3 1.7 7.7 1.8 1.6 4.1 2.6 6.5 2.5 9.2.2 18.5-.2 27.7.2 4.9.3 8.6 4.9 8.5 9.7.2 15.6 0 31.3.1 46.9-.1 5.5.6 11.8-3.4 16.2 3.7 6.1 7.6 12.2 11.3 18.3-1 .5-1.9 1.9-3.2 1.3-20.7-3.9-41.4-7.9-62.1-11.9-.7-6.1-1.4-12.2-2-18.3 18.1 3.2 36.1 6.6 54.2 9.7-4.7-6.9-9.7-13.7-14.5-20.6.7-1.8 1.2-3.6 1.2-5.5-.1-8.7.1-17.4-.1-26.1-.2-1.9-.2-5-2.8-5-8.2-.5-16.4.1-24.6-.3-4.6-.4-9.7-1.4-12.8-5.1-4.6-5.3-5.2-12.7-5.2-19.5-.3-22.9-.2-45.5-.2-68.2zM796.8-35H849c1 6.2 2 12.3 3 18.5-12.9-.1-25.9.3-38.8-.2-5-6.5-11-12.1-16.4-18.3zM880.7-35c17.6-.2 35.3.4 52.9-.3-.5 34.8 0 69.7-.3 104.5v.4c-2.5 1.3-4.7 3-7 4.5-3.3-4.5-6.8-9-10-13.6.2-25.6.1-51.3.1-76.9-12.8-.1-25.7 0-38.5 0 .7-6.3 1.9-12.4 2.8-18.6z"/><path class="st0" d="M797.7 24.6c1.5-1.3 3.5-1.3 5.4-1.3 12.9.1 25.8 0 38.7 0 .4 5.7-.8 11.6.6 17.3v.1c-9.8-.3-19.5.2-29.3-.2-1-2.1-2.8-3.6-4.5-5.2-3.6-3.6-7.2-7.2-10.9-10.7zM862.8 33.7c5.6 5.3 11 10.9 16.5 16.3.4 4.6-.9 9.6 1 14 2.1 2 4.9 3 7.6 3.7 12 2.8 24.2 5 36.3 7.5-3.6 2.6-7.5 4.8-11.2 7.1-16-3.1-32.1-6-48.1-9.2-1.9-3.1-2.6-7-2.9-10.7 1.5-9.6.1-19.2.8-28.7z"/></g><path class="st19" d="M776-51.1c.3-1.6-.7-3.7.9-4.8.2 47.9.1 95.8 0 143.7l-.9.6c-.1-46.5.1-93 0-139.5z" id="_x23_c2c2c2ff"/><g id="_x23_ccccccff"><path class="st20" d="M493.2-38.6c5.9 6.3 12 12.4 18.1 18.6 4.9.1 9.8.1 14.8 0 1.5.1 3.2-.2 4.2 1.1h-18.9c0 18.1-.1 36.2.1 54.3-5.5 5.7-12.4 9.9-17.8 15.7 5.9 5 11.6 10.3 17.5 15.3 6 .4 12.1-1.1 17.9.7-5.9-.4-11.8-.1-17.6-.1v48.7c-5.6 6-12 11.3-17 17.8-.3 0-.8.2-1.1.2-.3-57.6-.3-115-.2-172.3zM1184.9-30.4c5.5 4.8 11 9.8 16.4 14.7-1.1 2.7-.8 5.7-.8 8.5v32c-.1 1.7.3 3.4.8 5-4.8 6.3-10.3 12.2-14.8 18.7-1.2-2.4-1.8-5-1.7-7.7.1-23.6 0-47.4.1-71.2zM796 21.6l.4 1c.4.7.8 1.4 1.3 2 3.7 3.5 7.3 7.1 11 10.7 1.6 1.6 3.4 3.1 4.5 5.2-.3 6-.2 12-.1 17.9-5.1 5.9-11 11-16.1 16.9.8 0 2.5.1 3.3.1-1.4.2-2.9.4-4.3.7-.1-18.2-.1-36.4 0-54.5zM897.4 57.6l.4-.2c1.4 1.7 3.7 1.7 5.7 2.2 3.5.6 6.9 1.6 10.4 2.1.6-.3 1.8-1 2.4-1.3 3.2 4.6 6.6 9.1 10 13.6-.5.3-1.5.9-2 1.1-12.1-2.5-24.3-4.7-36.3-7.5-2.8-.6-5.5-1.7-7.6-3.7 5.5-2.2 11.4-4 17-6.3zM1168 96.6c11.1 1.9 22.3 3.8 33.4 5.6 2.7.4 5.5 1.4 8.2.2 4.8 6.9 9.7 13.7 14.5 20.6-18.1-3.1-36.2-6.5-54.2-9.7-.6-5.5-1.2-11.1-1.9-16.7z"/></g><g id="_x23_b3b3b3ff"><path class="st21" d="M1010.7-32.2c.5-2.3 1.5-4.5 2.6-6.5.1.4.3 1.1.4 1.5-.8 1.3-1.2 2.6-1.2 4.1 0 18 .2 35.9-.1 53.9-1.7 6.8-3.6 13.5-5.3 20.2 3.5.1 7.1.1 10.6.1.3.1.8.3 1 .4-4.9.5-11-1.6-14.7 2.5-3.8 3.3-7.6 6.6-11.3 9.9h-2.8c6.8-28.8 14-57.4 20.8-86.1zM796.2-35.7l.6.7c5.4 6.2 11.4 11.8 16.4 18.3-.4 6.9-.1 13.9-.2 20.8l-.3.3c-5.5 6-11 12-16.3 18.1l-.4-1c0-19-.4-38.1.2-57.2zM989.3 54.7c4.3 5.9 8.3 12 12.5 18l.5.8c-1.8 8.3-3.1 16.7-4.8 25-5.1-1-10.3-2-15.4-2.9.6-8.3.9-16.7 2.5-24.9 2.4-5.1 3.1-10.7 4.7-16z"/></g><path class="st22" d="M1085.9 94.5c.7 1.4 1.3 2.8 1.3 4.3.1 5.6-.4 11.2.4 16.8-.4-.1-1.3-.4-1.8-.5.1-6.8 0-13.7.1-20.6z" id="_x23_949494ff"/><g id="_x23_0f74bcff"><path class="st5" d="M923 111.9c10.1-5.4 19.9-11.2 29.9-16.6.5 4.6-.9 9.1-1.2 13.6-3.3 39.3 1.5 78.7 9.7 117.1 7.5 34.3 21 67.5 41.7 95.9 27.1 38.1 63.8 68.8 104.8 91.1 7.3 3.7 12.7 10.7 14 18.8 6.2 35.1 4.7 71 .4 106.3-2.4 19.4-5.9 38.6-9.9 57.8-1.3 5.1-1.8 10.5-3.9 15.4-4.9-24.2-11.6-47.9-20.1-71-4 26.3-11.4 52.1-23.1 76-14.4 30-35.1 56.9-60.2 78.6-43.8 37.9-98.5 61.7-155.1 72.4-10.3 1.8-20.7 3.9-31.1 4.5 50-23.2 94.3-58.2 129.6-100.5 20.4-24.7 36.9-52.7 47.6-82.9 13.7 12.6 18.8 31.3 23.6 48.7 1.5-.6 2.2-2.3 3-3.5 7.9-13.4 12.8-28.3 17-43.2 8-29.5 12.6-59.9 13.6-90.4.4-13.7-.1-27.4-2.5-40.9-5 13.9-9.3 28.9-19.7 39.9 6.8-32.8 11.3-66.7 6-100.1-4.2 10.7-7.4 21.9-13.7 31.6-.1-21.7-2.1-43.6-7.9-64.5-1.3-4.1-2.3-8.4-4.4-12.3-1.6 6-2.5 12.1-4.7 17.9-6-14.1-11.4-28.6-18.6-42.3-14.7-28.9-34.9-55.6-61.3-74.8-15-10.9-32.1-18.8-50.2-22.8-19.8-4.2-40.7-4.6-60.1 1.6-12.2 3.9-23.7 10-34 17.7-2 1.5-3.9 3.3-6.2 4.3-1.6-14.9 5.2-28.8 12-41.5-14.3 6.6-27.8 14.9-39.4 25.6-12.5 11.4-22 25.9-28.4 41.5-13.1 30.8-14.2 65.2-28.3 95.6-2.6 5.5-5.6 10.9-9.1 15.9-1.4 2.3-4.3 2.4-6.7 3.2-14.1 3.6-26.9 12.9-33.3 26.1-5.1 10-6.1 21.5-5.3 32.5-3.2 0-5.7-2.2-8.5-3.2-10.3-4.3-21.4-8.5-32.8-7.4-2.8.3-5.4 1.2-8.1 1.5-2.3-.8-2.9-3.5-4.1-5.2-4-7.2-7.9-14.7-9-23-.8-5.2 1.1-10.6 5-14.1 4.8-4.2 10.5-7.4 16.5-9.5 2.8-.9 4.8-3.5 5.1-6.5 8.3-65.4 46.3-125.8 100-163.6 4.5-3.4 9.4-6.2 14-9.5-11.9 1.3-23 6.1-33.8 11.1.1-.4.2-1.1.3-1.5 27.5-17.2 56.8-31.3 86.7-43.9 51.6-21.7 104.6-41 154.2-67.5m10 9.9c-28.5 15-57.7 28.6-87.5 40.7-37.3 15.5-75.1 30-111.5 47.4-3.5 1.8-7.3 3.2-10.3 5.8 4.5-.2 8.8-1.5 13.3-1.5-21.1 11.4-41.1 24.9-58.8 41.1-19.2 17.8-36.1 38.8-47.2 62.7 14.6-20.8 32.4-39.3 52.5-54.8 4.1-3 8.1-6.2 12.9-7.8-1.8 3.4-4.1 6.5-6.1 9.8-7.6 12.5-14.1 25.6-20.1 38.9-6.6 15-12.6 30.2-16.9 46-1.3 5.3-2.8 10.7-2.4 16.2 2.8-4.9 4.7-10.3 7.2-15.3 7.9-16.8 16.2-33.5 27.6-48.3-3 22.4-5.5 45.3-3 67.9 2.1-2 1.8-5.1 2.6-7.7 4.8-22.7 8.6-45.7 15.7-67.9 9.1-28.8 24.1-56.9 48.3-75.7 14.7-11.8 32.8-17.8 49.8-25.3 7.7-3.1 15.1-7 22.8-10.1-1.4 2.2-3.1 4.2-4.9 6-7.3 7.4-13.2 16.2-17.1 25.9-1.3 3.3-2.7 6.6-2.8 10.2 4.2-.3 8-2 12-3.1 12.7-3.6 25.7-6.8 39-7.6 13.8-.9 27.5 2.2 40.7 6 19.7 6 38.2 15.7 54.1 28.7 4.8 3.8 9.3 8.1 14.1 11.8-4.9-17.2-9.3-34.5-12.4-52.1-4.8 4.2-8 10.5-14.2 12.9 3.4-10.4 9-20.8 7.7-32.1-5 7.5-10.3 15.3-18.5 19.6 7.2-13.3 14.2-27.3 15.4-42.6-9.2 16.6-24.8 28.9-42 36.4 8.9-8.9 17.3-18.5 23.9-29.3 10.2-16.5 17-35 20.3-54.1-1.4.4-2.9.6-4.2 1.3M664.6 291.4c-23.1 26.4-39.7 58.7-45.8 93.4-2.2-1.9-4.3-4-6.9-5.4-.1 5.5-.9 11.5 2 16.5 2.1 3.8 6.9 5.2 11 4.5 9.6-1.6 17.8-7.7 24.3-14.7-6.3.5-12.4 2.2-18.6 2.6 1.6-15.3 6.1-30.2 11.1-44.7 6.7-18.7 15.5-36.7 25.4-53.9-1 .3-1.9.8-2.5 1.7m373.2 89.4c2 4.7 4.6 9.2 6.2 14 5.1 13.3 6.7 27.5 7.9 41.5 5.5-4.3 6.7-11.6 10.9-16.8 7 60.4 4.6 122.6-13.2 181-1.2 4.6-3.3 9-4 13.8 3-3.9 4.7-8.6 7-12.9 17.8-37.2 27-77.9 30.7-118.9 10.2 21.1 16.4 43.8 22.1 66.4 5.1-28.7 8.9-57.9 6.7-87.1-1-9.5-1.7-19.2-4.7-28.3-.6 12.4-3.1 24.6-5.8 36.8-3.9-11.8-6.3-24-10.4-35.8-3-9-6.3-18.8-14.4-24.6-13.9-8.3-25.8-19.6-39-29.1m-444.6 32.1c-1.2 4.3-.4 9.1 2 12.7 2.8 3.8 6.6 6.9 10.7 9.3 2.3-4.3 4.3-8.9 7.8-12.4 4.9-5.3 11.9-7.6 18.5-10.3-10.6-2-21.4 1.3-30 7.5-.9-.8-2-1.5-2.1-2.9-1.1-4.4 2.5-7.8 3.1-11.9-4 1.6-8.4 3.8-10 8m405.5 203.9c-9.9 21.8-23.2 42-38.1 60.6-16.7 20.9-35.9 39.7-56.6 56.6-.9.7-1.5 1.6-2.1 2.7 41.6-16 79.7-41.1 110.4-73.5 1.2-1.4 2.8-3.2 2.2-5.3-.8-2.4-2.4-4.4-3.6-6.7-6.3-10.6-6.1-23.7-12.2-34.4z"/><path class="st5" d="M744.4 275.2c4.6-12.6 12.1-24.1 21.6-33.5-8.5 17-14.2 36-12.9 55.1.1 3.3 1.7 7-.3 10-4 7.5-7.8 15.1-11.8 22.6-1-.6-1.4-1.4-1.4-2.5-2.1-17.2-1.3-35.2 4.8-51.7zM606.2 303c4.9-6 9.6-12.5 15.8-17.2-5.2 9.2-11 18.1-15.3 27.8-9.3 19.6-15.3 40.8-17.8 62.3 0 2-1.1 4.1-3.2 4.6-8.3 2.8-16.3 8-20.3 16-4.6 8.8-4 18.9-3.4 28.5-6.4-8.1-10.5-18.7-8.9-29.1 1.3-10.2 7.9-19.1 16.3-24.7 2.7-1.9 5.9-3.2 8.1-5.7 1.8-2.1 2.4-4.9 3-7.5 4.6-19.9 13.4-38.7 25.7-55zM945.8 297.8c6.2 6.4 11.1 13.9 16.2 21.1 19.5 28.8 32.8 61.8 38 96.2.5.1 1.4.3 1.9.4 3.4-2.7 5.2-6.8 7.5-10.3 2 30.6-7 60.6-19.4 88.2 1-41.8-1.7-84-13.3-124.3-5.7-20-13.5-39.3-23.3-57.6-2.4-4.7-5.4-9-7.6-13.7zM726 317.8c.3.1 1 .4 1.3.5 2.3 33.8-3 68.3-16.4 99.6-1.2 3.2-4.6 4.6-7.8 4.7-14.7 1.1-29.4 7-39.1 18.4-2.1 2.4-3.9 5-6 7.5.3-8.9 2.7-18 8.3-25.1 7-8.7 17.6-14.6 28.8-15.7 3.2-.3 6.2-2.1 7.7-5 13-26.6 21.1-55.5 23.2-84.9zM525 378.3c1.2 1.3 2.5 2.5 3.6 3.8-.2 1-.7 2-1.3 2.9-1-2.1-1.7-4.4-2.3-6.7z"/></g><linearGradient id="SVGID_8_" gradientUnits="userSpaceOnUse" x1="815.31" y1="118.159" x2="862.93" y2="118.159"><stop offset="0" stop-color="#1077BE"/><stop offset="1" stop-color="#1684C7"/></linearGradient><path class="st23" d="M857.1 108c1.9-.5 3.9-.4 5.8 0-2.8 2-6.2 3-9.3 4.5-8.7 3.7-17.2 7.6-26.1 10.9-.4-3.2-.6-6.4-.7-9.6 10.2-1.9 20.2-3.8 30.3-5.8zm-41.8 8.1c3.8-.8 7.7-1.5 11.6-2.2.1 3.2.2 6.4.7 9.6v.3c-4.1 1.5-8.2 3.3-12.3 4.9.1-4.3.1-8.4 0-12.6z"/><path class="st24" d="M743 129.7c24.1-4.5 48.2-9.3 72.3-13.7.1 4.2 0 8.3 0 12.5-23.5 9.6-47.1 19-70.4 29.2-2.3-8.9-4.5-17.8-6.7-26.6 1.6-.5 3.1-1.1 4.8-1.4z" id="_x23_19293eff"/><g id="_x23_25a9e1ff"><path class="st25" d="M933 121.8c1.3-.7 2.7-.9 4.1-1.2-3.3 19.1-10.2 37.6-20.3 54.1-6.6 10.8-15 20.4-23.9 29.3 17.2-7.5 32.9-19.7 42-36.4-1.3 15.3-8.2 29.3-15.4 42.6 8.2-4.3 13.5-12.1 18.5-19.6 1.3 11.2-4.3 21.7-7.7 32.1 6.2-2.4 9.4-8.7 14.2-12.9 3.1 17.6 7.5 34.9 12.4 52.1-4.9-3.8-9.3-8-14.1-11.8-15.9-13-34.5-22.8-54.1-28.7-13.2-3.9-26.9-6.9-40.7-6-13.3.7-26.2 4-39 7.6-4 1-7.8 2.8-12 3.1.1-3.6 1.5-6.9 2.8-10.2 3.9-9.6 9.8-18.4 17.1-25.9 1.8-1.9 3.5-3.9 4.9-6-7.7 3.1-15.1 7-22.8 10.1-17 7.5-35.1 13.5-49.8 25.3-24.2 18.8-39.2 47-48.3 75.7-7.1 22.2-10.9 45.2-15.7 67.9-.7 2.6-.5 5.7-2.6 7.7-2.5-22.6 0-45.4 3-67.9-11.3 14.7-19.7 31.5-27.6 48.3-2.5 5.1-4.4 10.4-7.2 15.3-.5-5.5 1.1-10.9 2.4-16.2 4.2-15.8 10.3-31 16.9-46 6-13.3 12.5-26.4 20.1-38.9 2-3.3 4.3-6.4 6.1-9.8-4.8 1.6-8.8 4.9-12.9 7.8-20.1 15.5-37.9 34-52.5 54.8 11.1-23.9 28-44.9 47.3-62.8 17.7-16.2 37.6-29.8 58.8-41.1-4.5 0-8.8 1.4-13.3 1.5 3-2.6 6.8-4 10.3-5.8 36.5-17.4 74.2-31.9 111.5-47.4 29.9-12.1 59.1-25.7 87.5-40.7zM1037.8 380.8c13.2 9.5 25.1 20.8 39.1 29.2 8.1 5.8 11.4 15.6 14.4 24.6 4 11.8 6.4 24 10.4 35.8 2.6-12.1 5.2-24.3 5.8-36.8 3 9.1 3.7 18.8 4.7 28.3 2.2 29.2-1.6 58.4-6.7 87.1-5.7-22.6-11.9-45.3-22.1-66.4-3.7 40.9-12.9 81.7-30.7 118.9-2.2 4.3-4 9-7 12.9.8-4.8 2.8-9.2 4-13.8 17.8-58.4 20.2-120.6 13.2-181-4.2 5.2-5.5 12.5-10.9 16.8-1.3-14-2.9-28.2-7.9-41.5-1.8-4.9-4.4-9.3-6.3-14.1zM998.7 616.8c6.2 10.7 6 23.7 12.2 34.4 1.2 2.2 2.7 4.3 3.6 6.7.7 2-.9 3.8-2.2 5.3-30.6 32.4-68.8 57.5-110.4 73.5.5-1 1.1-2 2.1-2.7 20.7-16.9 39.9-35.7 56.6-56.6 14.9-18.6 28.1-38.8 38.1-60.6z"/></g><linearGradient id="SVGID_9_" gradientUnits="userSpaceOnUse" x1="650.95" y1="165.365" x2="744.93" y2="165.365"><stop offset="0" stop-color="#1077BE"/><stop offset="1" stop-color="#1684C7"/></linearGradient><path class="st26" d="M703.1 137.4c11.7-2.2 23.3-4.5 35-6.7l.1.5c2.2 8.9 4.5 17.8 6.7 26.6-14 6.2-27.7 12.7-41.4 19.5-1.2-13.2-.4-26.6-.4-39.9zm-52.1 9.9c17.4-3.3 34.8-6.7 52.1-9.9 0 13.3-.8 26.7.4 39.9v.2c-13.5 6.8-26.6 14.4-39.3 22.5-4.3-17.6-8.8-35.1-13.2-52.7z"/><path class="st8" d="M871.7 789c8.9-2 17.8-4.5 26.6-6.9-8.8 7.1-18 13.6-27.2 20.1-1.9-1.8-3.8-3.6-5.6-5.5 2.3-2.4 5.8-4.2 6.2-7.7z"/><linearGradient id="SVGID_10_" gradientUnits="userSpaceOnUse" x1="981.19" y1="215.525" x2="1062.96" y2="215.525"><stop offset="0" stop-color="#1D96D3"/><stop offset="1" stop-color="#24A6DF"/></linearGradient><path class="st27" d="M981.2 130.7c19.2 3.7 38.5 7.3 57.7 11 0 27.7.1 55.4 0 83.1-.2 4.2-.1 8.5.9 12.6-1.2 5.2-2.6 10.3-3.9 15.5-4 15.8-7.9 31.6-12 47.3-10.1-14.5-18.4-30.2-24.4-46.8-5.6-15.4-8.9-31.4-11.8-47.5-4.2-24.7-6.4-50-6.5-75.2zm57.7 11c8 1.5 16 3 24.1 4.6l-.1.4c-7.6 30.3-15.3 60.5-23 90.7-1-4.1-1.1-8.4-.9-12.6 0-27.6-.1-55.4-.1-83.1z"/><path class="st10" d="M563.8 163.8c29-5.5 58.1-11.2 87.1-16.5 4.4 17.6 8.9 35.1 13.3 52.7-13 8.8-25.6 18.2-37.3 28.8-5.3 4-9 9.8-14.6 13.4-15.5-26.2-30.6-52.6-46.2-78.8-.5.2-1.7.3-2.3.4z"/><path class="st11" d="M1147.6 410.3c19.3-19.7 38.4-39.6 57.9-59.2l.9-.2c-13 44.4-30 87.5-51.2 128.6-.2-23.1-2.8-46.2-8.2-68.6l.6-.6z"/><linearGradient id="SVGID_11_" gradientUnits="userSpaceOnUse" x1="490.53" y1="246.6" x2="612.82" y2="246.6"><stop offset="0" stop-color="#1077BE"/><stop offset="1" stop-color="#1684C7"/></linearGradient><path class="st28" d="M537 168.9c8.9-1.7 17.9-3.4 26.8-5.1.6-.1 1.8-.2 2.3-.3 15.6 26.1 30.7 52.6 46.2 78.8l.5.8c-22.7 24.3-40.3 53.3-51.1 84.8-.2.5-.6 1.4-.8 1.9l-24.3-41.4c.4-5.8.4-11.6.3-17.3.1-34.2.2-68.2.1-102.2zm-46.5 8.9c15.5-2.9 31-5.9 46.5-8.8.1 34 0 68 0 102 .1 5.8.1 11.6-.3 17.3-14.8-25.2-29.5-50.5-44.3-75.7-1.4-11.6-1.5-23.2-1.9-34.8z"/><path class="st1" d="M492.3 212.6c14.8 25.2 29.5 50.5 44.3 75.7 8.1 13.8 16.1 27.7 24.3 41.4.2-.5.6-1.4.8-1.9-3 8.6-5.5 17.3-7.7 26.1-.5 2.4-1.8 4.7-3.8 6.2-8.1 6.3-15.1 14-21.5 22-1.2-1.3-2.4-2.5-3.6-3.8-16.9-50.6-27.7-103.3-32.3-156.5-.4-3.1-.7-6.2-.5-9.2z" id="_x23_142031ff"/><path class="st29" d="M617.2 276.7c11.1-16.9 28.3-29.1 47.1-35.9-1.8 1.9-4.1 3.3-6.3 5-7.2 5.4-13.8 11.6-20.2 17.8-5.8 5.9-13.9 8.5-20.6 13.1z" id="_x23_0e75bdff"/><linearGradient id="SVGID_12_" gradientUnits="userSpaceOnUse" x1="1109.739" y1="142.395" x2="1013.695" y2="308.747"><stop offset="0" stop-color="#18283D"/><stop offset="1" stop-color="#142031"/></linearGradient><path class="st30" d="M1062.8 146.7c4.2-.1 8.2 1.1 12.3 1.8 22.6 4.3 45.3 8.6 67.9 13-17.8 30.5-35.7 61.1-53.5 91.6-9.8-.7-19.6-.3-29.4-.3-8 0-16.1-.3-24.1.1 1.3-5.2 2.7-10.3 3.9-15.5 7.7-30.1 15.3-60.4 22.9-90.7zM1036 253c8-.3 16-.1 24.1-.1 9.8 0 19.6-.4 29.4.3-3.6 6.1-7.1 12.2-10.7 18.3-11 18.6-21.7 37.3-32.8 55.9-8-8.4-15.1-17.6-22.1-26.8l.1-.3c4.1-15.7 8-31.5 12-47.3z"/><linearGradient id="SVGID_13_" gradientUnits="userSpaceOnUse" x1="1195.941" y1="157.601" x2="1078.077" y2="361.748"><stop offset="0" stop-color="#24A7DF"/><stop offset="1" stop-color="#1B91D1"/></linearGradient><path class="st31" d="M1143 161.6c4.6.8 9.2 1.8 13.8 2.6v.1c.5 21.8 0 43.7.1 65.5-.1 24 .1 48-.1 72-.1 3.2.3 6.5 1 9.7-14 24-28.1 48-42.1 72-12.8-7.7-25.2-16.2-36.9-25.5.1-28.8.4-57.7-.2-86.5 3.6-6.1 7.1-12.2 10.7-18.3 18.1-30.5 35.9-61 53.7-91.6zm13.8 2.7c25.2 4.6 50.4 9.6 75.6 14.4-.2 2.3.4 4.8-.7 6.8-19.4 33-38.7 66.1-58 99.1-5.3 9-10.5 17.9-15.8 26.9-.8-3.2-1.1-6.4-1-9.7.2-24 0-48 .1-72-.2-21.8.3-43.6-.2-65.5zM1046 327.4c11.1-18.5 21.8-37.3 32.8-55.9.6 28.8.2 57.7.2 86.5-11.7-9.3-23-19.4-33-30.6z"/><linearGradient id="SVGID_14_" gradientUnits="userSpaceOnUse" x1="1257.578" y1="200.445" x2="1139.207" y2="405.469"><stop offset="0" stop-color="#172539"/><stop offset="1" stop-color="#111C2C"/></linearGradient><path class="st32" d="M1173.7 284.6c19.3-33.1 38.6-66.1 58-99.1.9 7.1.1 14.3-.4 21.4-1.5 25.9-5 51.7-9.3 77.3-6.6 1.4-13.3.6-20 .8-9.5-.2-18.9.3-28.3-.4zm28.3.3c6.7-.2 13.4.6 20-.8-3 16.4-6.6 32.7-10.8 48.8-1.4 5.9-3.4 11.7-4.4 17.8-.1 0-.3.1-.4.2l-.9.2c-19.5 19.5-38.5 39.5-57.9 59.2-2-4.5-2.7-10.1-7.2-12.9-7.9-5.1-16.6-8.9-24.6-13.9 14-24 28.1-48 42.1-72 5.3-9 10.5-17.9 15.8-26.9 9.4.7 18.8.2 28.3.3z"/><g id="_x23_d0d1d3ff"><path class="st3" d="M853.1 289.9c11.5-3.5 24.6-2.8 34.9 3.8 12.2 7.8 19.4 21.4 23.2 35 4.7 18 4.1 37 1.5 55.3-4.1 27.7-14.5 54-26.6 79.2 12.8-4 26.8-7.1 40-3.1 13.6 3.7 24.2 14.8 28.9 27.9 6.8 18.7 6.1 39.3 1.8 58.5-7.9 34.5-24.3 66.7-45.4 94.9-33.3 44.3-76.3 81-124.2 108.8-18.7 10.8-38.1 20.5-58 28.9 6.5-8.4 12.8-17.1 17-26.9 7.6-16.9 10.3-35.8 9.4-54.2-.4-3.7.5-7.6 3.3-10.2 10.6-10.6 23.8-18.5 38.2-22.6 11-3.2 22.6-4.4 34.1-4 7.8.3 15.4 1.5 23.2 2.2-1.2-3.6-4-6.3-6.1-9.4-11-15.1-17-33.4-18.8-51.9-3.2-32.1 3.8-64 3.8-96.1-.1-9.3-1.6-18.8-5.8-27.2-.9-1.3-1-3.1.5-4 9.1-9.7 14.8-22.5 14.6-35.9-13.2 13.6-27.8 25.9-44.3 35.3-15.9 9.1-33.8 15-52.1 15.9-26.2 1.4-51.9-7-75.1-18.6 3.4-1.9 7.3-3.2 11.2-2.3 18.7 3.8 38.5 2.3 56.2-4.7 14.8-5.7 28-14.8 39.8-25.3 17-14.9 31.7-32.3 48-48 9-8.5 18.3-17.1 29.8-21.9-12-3.4-25.4-2.3-35.8 4.8 1.1-17.3-1.3-35.2-9.6-50.6-1.2-2.3-.2-5 1.5-6.6 11.6-11.6 24.9-22.4 40.9-27m-25.8 31.6c9.6-2.9 19.5-5.8 29.7-5.2 11.5.5 23.5 5.6 29.6 15.7-14.6-3.4-30.5-6-44.9-.5-2.3 1.2-5.6 2.1-6.6 4.8 11.1.4 22.4 1.7 32.9 5.6 5 2 10.3 4.6 13.4 9.2-9-2.3-18.1-4.7-27.4-3.7-6.6.6-14.3 1.4-18.7 7 15.6-1.1 31.8 3.5 43.9 13.5-5.4 2.7-11 4.9-16.2 8-15.6 9.2-28.5 22.2-40.5 35.6-18.4 20.5-36.4 42.3-60.4 56.5-4.7 3-10 5-14.6 8.2 12.3.9 24.2-3.2 34.9-8.7 14-7 26.3-16.8 37.8-27.3 15.9-14.5 30.3-30.4 46-45.1 4.2-3.9 8.8-7.7 14.2-9.7-10 14.7-20.3 29.9-24.1 47.6-1.9 7.6-.1 15.5-2.3 23-1.9 7.3-5.9 13.8-10 20-1.6 1.9-1.2 4.5-.5 6.7 2.9 10.5 3.3 21.4 3 32.2-.5 13-1.4 26.1-3 39-1.7 14-1 28-1 42 14.7-12 25.2-28.2 35.4-44-7.2 23.8-17.2 46.5-26.2 69.6 2.4-1.9 4.4-4.3 6.5-6.6 11.6-13.1 21.5-27.5 30.6-42.4 5.3-8.4 9.8-17.3 15.2-25.7-6 23.5-16.2 45.6-28 66.6-4.5 8.2-9.8 15.9-14.3 24.1 6.8-4.4 12.5-10.6 18.1-16.4 21.3-22.8 35.4-50.9 48.4-78.9-.9 8.5-3.2 16.7-5.4 24.9-5.6 20-13.7 39.3-23.4 57.7-5.3 10.5-11.9 20.3-17.6 30.6 3.2-2.2 5.4-5.5 7.9-8.3 16.3-19.5 29.9-41.3 40.5-64.4 6.9-15.4 13-31.3 15.8-47.9 1.7-11.8 2.8-24.2-1-35.7-3.9-11.8-13.1-22.2-25.3-25.7-13.8-3.9-28.5-2.1-42.1 1.8-4 1-7.8 2.6-11.8 3.3 9.7-20.7 19-41.6 25.6-63.6 7.1-22.9 11.5-47 9.2-71.1-1.2-12.6-5.4-25.5-14.3-34.8-5.6-6-14-8.7-22-7.6-14.6 1.8-27.2 10.1-37 20.1m-52.9 369.8c-4.2 3-6.6 8.3-5.7 13.5 1.6 14.7-2.7 29.1-6 43.3 19.4-9.8 37.8-21.4 55.4-34 14.2-10.3 27.5-21.8 40.6-33.4.9-.7 1.3-1.5 1.2-2.7-2.2-1-4.7-.6-7-.9-11-.8-22-3.3-33-2.5-16.4.8-32.3 7-45.5 16.7zM549.5 446.1c4.9 5.3 10.2 10.2 14.8 15.8-6.4 5.8-12.3 12.2-17.4 19.2-2.7-4.2-4.7-9.1-4.7-14.2-.2-7.6 3.4-14.5 7.3-20.8z"/><path class="st3" d="M655.7 499c20.2 8.7 40.8 17 62.7 20.4-2.9 2.5-6.5 4-9.8 6.1-28.5 16.8-51.7 41.4-70.9 68.2-3.1 4.4-8 7.1-12.9 9.1-15.9 6.4-31.6 13.5-45.9 23.1-12.7 8.7-24.3 19.2-33.8 31.3-.7 1.3-2.8 2.3-3.5.4-6.4-12-10.7-25.1-12.6-38.5-2.6-18.7.4-38 7.8-55.3 6.2-14.4 14.3-27.9 23.3-40.6 1.5-2.2 3.7-4 6.3-4.6 15.7-4.2 32.1-1.2 47.6 2.7 3.4 1 7.1 1.7 10.2 3.6 1.5 1.1.7 3.1.2 4.5-7 18.5-18.8 34.6-31.1 49.9-8.5 10.9-18.1 20.9-27.4 31.1 7.3-3.4 13.7-8.6 20.3-13.2 13.4-10.5 26.7-21.4 37.5-34.6 7.2-8.2 13.5-17.1 18.9-26.6 1.4 1 .3 2.7.2 4-3.4 14.5-11.3 27.7-20.8 39-4.4 5.2-9.2 10-13.9 14.9 15.6-7.3 29.7-17.8 41.3-30.6 6.6-7.3 12.2-15.8 14.5-25.4 2.3-9.2 1.7-19.2-2.1-27.9-1.7-3.9-4.2-7.3-6.1-11z"/></g><g id="_x23_fefefeff"><path class="st33" d="M827.3 321.5c9.9-10 22.5-18.3 36.6-20.1 8-1.1 16.5 1.7 22 7.6 8.9 9.4 13.1 22.2 14.3 34.8 2.3 24-2.1 48.2-9.2 71.1-6.5 21.9-15.9 42.9-25.6 63.6 4-.7 7.9-2.3 11.8-3.3 13.6-3.8 28.3-5.6 42.1-1.8 12.2 3.5 21.3 13.9 25.3 25.7 3.8 11.5 2.8 23.9 1 35.7-2.8 16.7-8.9 32.5-15.8 47.9-10.6 23.1-24.2 44.9-40.5 64.4-2.6 2.8-4.8 6.1-7.9 8.3 5.7-10.3 12.3-20.1 17.6-30.6 9.7-18.4 17.8-37.6 23.4-57.7 2.1-8.2 4.5-16.5 5.4-24.9-13 28-27.2 56.1-48.4 78.9-5.7 5.8-11.3 11.9-18.1 16.4 4.5-8.2 9.9-15.9 14.3-24.1 11.9-21 22.1-43.2 28-66.6-5.3 8.4-9.9 17.3-15.2 25.7-9.1 14.9-19 29.3-30.6 42.4-2 2.3-4.1 4.6-6.5 6.6 9-23.1 19-45.8 26.2-69.6-10.2 15.8-20.6 32-35.4 44 0-14-.7-28.1 1-42 1.6-13 2.5-26 3-39 .3-10.8 0-21.8-3-32.2-.7-2.2-1-4.8.5-6.7 4.2-6.2 8.1-12.7 10-20 2.2-7.5.3-15.5 2.3-23 3.9-17.6 14.1-32.9 24.1-47.6-5.5 2-10 5.8-14.2 9.7-15.6 14.7-30.1 30.6-46 45.1-11.5 10.5-23.8 20.3-37.8 27.3-10.8 5.5-22.7 9.5-34.9 8.7 4.6-3.1 9.9-5.2 14.6-8.2 24-14.2 42-36 60.4-56.5 12.1-13.4 24.9-26.4 40.5-35.6 5.2-3.1 10.8-5.3 16.2-8-12.1-10-28.3-14.6-43.9-13.5 4.4-5.6 12.1-6.3 18.7-7 9.3-1 18.5 1.5 27.4 3.7-3.1-4.7-8.4-7.2-13.4-9.2-10.5-3.9-21.8-5.2-32.9-5.6.9-2.7 4.2-3.6 6.6-4.8 14.5-5.4 30.3-2.9 44.9.5-6.1-10.1-18.1-15.3-29.6-15.7-9.8-.7-19.7 2.3-29.3 5.2z"/><path class="st33" d="M772 359.9c3.2-10.2 11.3-18.7 21.2-22.6 1.7-.8 3.8.2 4.3 2 5.8 14.9 7.3 31.9 2 47.2-1.8 4.8-3.6 9.8-6.9 13.7-4.6-12.4-10.7-24.5-19.2-34.7-1.4-1.5-2.2-3.7-1.4-5.6zM707.1 561.9c16.5-12.5 36.4-20.5 57-22.4 2.8.2 2.9 3.5 3.9 5.5 1.2 3.5 3.9 7.3 2.1 11-2.6 2.8-6.8 1.4-10.2 2.2-9.5 2.2-18.7 5.5-27.2 10.2 12.7-1.8 25.8-1 38.3 2.1 2.4.5 3.8 3 3.6 5.3 0 5.1 1.3 10.2.7 15.2-4.5-.4-8.7-2.1-13.2-2.9-27.4-6.1-56.2-4.4-83.2 2.8 7.8-11 17.5-20.7 28.2-29zM774.4 691.3c13.2-9.7 29.1-15.9 45.5-16.8 11.1-.8 22 1.7 33 2.5 2.3.4 4.8 0 7 .9.1 1.1-.3 2-1.2 2.7-13.1 11.7-26.4 23.2-40.6 33.4-17.6 12.6-36 24.3-55.4 34 3.2-14.2 7.6-28.5 6-43.3-.8-5.1 1.5-10.4 5.7-13.4z"/></g><path class="st34" d="M755.6 376.4c1.1-1.3 2.4-4.2 4.5-2.8 11.5 8.9 19.2 22.8 20.2 37.4.4 2.5-2.1 3.7-3.6 5.1-2.2-6.2-4.1-12.6-8.3-17.9 0-2.4.1-5.2-1.5-7.1-1.7-1.9-4.4-2.5-6.8-3-1.7-2.1-3.9-3.7-6-5.3-1.9-2.1.4-4.6 1.5-6.4z" id="_x23_d6dd1fff"/><path class="st35" d="M753 396.9c-.7-4.4 2.8-8.2 7-8.8 2.4.5 5.1 1 6.8 3 1.7 2 1.5 4.7 1.5 7.1-.9 2-2.2 3.9-4.2 4.9-4.5 2.3-11.1-.8-11.1-6.2z" id="_x23_fbfbfaff"/><path class="st36" d="M593.2 412.9c1.6-4.3 6-6.4 9.9-8-.6 4.1-4.2 7.6-3.1 11.9.1 1.3 1.3 2.1 2.1 2.9 8.6-6.2 19.4-9.5 30-7.5-6.5 2.7-13.6 5-18.5 10.3-3.6 3.5-5.5 8.1-7.8 12.4-4.1-2.3-7.9-5.4-10.7-9.3-2.4-3.6-3.1-8.4-1.9-12.7z" id="_x23_24a9e1ff"/><path class="st37" d="M748.1 410c4.5-2.5 10.3 1.9 8.6 6.9-.9 4.7-8.1 5.6-10.5 1.7-1.6-2.7-1.1-7 1.9-8.6z" id="_x23_f9f9f9ff"/><path class="st2" d="M592.8 462.7c4.8-2.9 10.7-1.6 15.8-.3 14.5 3.8 27.3 11.8 40.7 18.2 18.2 9 36.9 17.6 56.7 22.6 19.2 4.9 39.6 5.9 59.1 2 15-3 29.4-8.8 42.5-16.5 1.6-1 4.3-2 5.2.3 2.6 7.7 2.7 15.9 2.6 23.9-1 25.7-5.1 51.3-4.3 77 .5 16.6 2.8 33.4 9 48.9.5 1.3.9 2.7 1.2 4.1-4.4 1.1-9 1-13.5 1.9-20.7 3.1-40.5 11.8-56.6 25.3-3.3-10.3-7.6-20.3-13.8-29.1 12.2-2.2 23.2-8.1 34-13.9-19.8-4.7-40.4-4.7-60.6-2.7-38.6 4.2-75.5 17.4-111.2 32.3-6 2.4-11.8 5.4-17.9 7.5 10.2-10.9 23.2-18.6 36.6-24.8 10.4-4.8 21.8-8 31.1-15 13.8-10.4 30.6-15.9 47.5-19 24-4.5 49.2-4.3 72.6 3 7.6 2.1 14.6 5.8 21.9 8.6 1-1.1 1.5-2.5 1.5-3.9 1.4-23.9.1-48.4-7.5-71.3-.5-1.5-.9-3.3-.1-4.7 2.8-5.7 8.2-9.5 12.9-13.6-21-2.8-42.8-1.7-63.1 4.7-17.6 5.5-33.8 15.1-47.5 27.3-11.8 10.4-21.5 22.7-30.8 35.3-3.2 4.2-5.8 8.8-9.4 12.6-5.2 5.5-11.8 9.5-18.7 12.3-15.7 6.6-31.5 13.6-45.3 23.7-16.8 12-30.7 27.8-41.3 45.5-1.9-1.1-2.7-3.2-3.8-5-9.5-16.2-17.5-33.5-21.5-51.9-4.2-19.5-2.7-39.9 3.7-58.8 5.9-17.6 15.2-33.8 25.5-49.1 3.1-4.3 5.7-9.1 10.2-12.1 5.8-4 13.1-4.7 19.9-4.8 16.4-.2 32.2 4.5 47.7 9.3 9.3 2.9 18.2 6.8 27.3 10.1-.6-1.6-2.2-2.2-3.5-3.2-14.2-9.5-28.6-19.1-44.7-25.2-12.7-4.8-26.7-6.4-40-3.8-.1-2.1 1.8-3.4 2.9-4.9 7.5-9.1 16.9-16.5 27-22.8m34.3 29.1c2.1 3.8 5.4 6.9 8.9 9.5 2.2-6.9 9.9-8.5 16.2-8.7-6.6-3.3-13.8-6.1-21.3-6.1-2.6-.2-5.2 2.8-3.8 5.3m28.6 7.2c1.9 3.8 4.4 7.2 6.1 11 3.8 8.7 4.4 18.7 2.1 27.9-2.4 9.6-8 18.1-14.5 25.4-11.5 12.8-25.7 23.2-41.3 30.6 4.7-5 9.5-9.7 13.9-14.9 9.4-11.4 17.4-24.5 20.8-39 .1-1.3 1.2-3.1-.2-4-5.4 9.4-11.8 18.4-18.9 26.6-10.8 13.2-24.1 24.1-37.5 34.6-6.6 4.6-13 9.7-20.3 13.2 9.3-10.2 18.8-20.3 27.4-31.1 12.3-15.3 24.1-31.4 31.1-49.9.4-1.4 1.3-3.5-.2-4.5-3.1-1.9-6.8-2.6-10.2-3.6-15.4-3.8-31.9-6.9-47.6-2.7-2.6.6-4.8 2.4-6.3 4.6-9 12.8-17.2 26.2-23.3 40.6-7.4 17.3-10.4 36.6-7.8 55.3 1.9 13.4 6.2 26.6 12.6 38.5.7 1.9 2.8.9 3.5-.4 9.6-12.1 21.1-22.6 33.8-31.3 14.3-9.6 30-16.7 45.9-23.1 4.9-2 9.8-4.6 12.9-9.1 19.2-26.8 42.3-51.4 70.9-68.2 3.2-2.1 6.9-3.5 9.8-6.1-21.9-3.4-42.5-11.7-62.7-20.4z" id="_x23_a7a8acff"/><path class="st4" d="M839.9 795.7c10.6-2 21.3-4.1 31.8-6.7-.5 3.5-4 5.3-6.1 7.7-3.5 3.3-6.8 6.7-10.3 10-5.2-3.6-10.4-7.1-15.4-11z" id="_x23_22a3ddff"/><linearGradient id="SVGID_15_" gradientUnits="userSpaceOnUse" x1="815.31" y1="118.159" x2="862.93" y2="118.159"><stop offset="0" stop-color="#1077BE"/><stop offset="1" stop-color="#1684C7"/></linearGradient><path class="st38" d="M857.1 108c1.9-.5 3.9-.4 5.8 0-2.8 2-6.2 3-9.3 4.5-8.7 3.7-17.2 7.6-26.1 10.9-.4-3.2-.6-6.4-.7-9.6 10.2-1.9 20.2-3.8 30.3-5.8zm-41.8 8.1c3.8-.8 7.7-1.5 11.6-2.2.1 3.2.2 6.4.7 9.6v.3c-4.1 1.5-8.2 3.3-12.3 4.9.1-4.3.1-8.4 0-12.6z"/><g id="_x23_19293eff_1_"><path class="st24" d="M743 158.3c-2.4-9.4-4.6-17.9-6.7-26.7l-.4-1.7 1.7-.6c1.5-.6 3.3-1.2 5.2-1.5 11.2-2.1 22.6-4.2 33.6-6.4 12.7-2.4 25.8-4.9 38.7-7.3l2.3-.4v2.4c.1 3.8.1 8 0 12.6v1.3l-1.2.5c-5.9 2.4-11.9 4.9-17.9 7.3-17.3 7-35.1 14.3-52.5 21.9l-2.2.9-.6-2.3z"/><path class="st24" d="M743 129.7c24.1-4.5 48.2-9.3 72.3-13.7.1 4.2 0 8.3 0 12.5-23.5 9.6-47.1 19-70.4 29.2-2.3-8.9-4.5-17.8-6.7-26.6 1.6-.5 3.1-1.1 4.8-1.4z"/></g><linearGradient id="SVGID_16_" gradientUnits="userSpaceOnUse" x1="650.95" y1="165.365" x2="744.93" y2="165.365"><stop offset="0" stop-color="#1077BE"/><stop offset="1" stop-color="#1684C7"/></linearGradient><path class="st39" d="M703.1 137.4c11.7-2.2 23.3-4.5 35-6.7l.1.5c2.2 8.9 4.5 17.8 6.7 26.6-14 6.2-27.7 12.7-41.4 19.5-1.2-13.2-.4-26.6-.4-39.9zm-52.1 9.9c17.4-3.3 34.8-6.7 52.1-9.9 0 13.3-.8 26.7.4 39.9v.2c-13.5 6.8-26.6 14.4-39.3 22.5-4.3-17.6-8.8-35.1-13.2-52.7z"/><path class="st8" d="M871.7 789c8.9-2 17.8-4.5 26.6-6.9-8.8 7.1-18 13.6-27.2 20.1-1.9-1.8-3.8-3.6-5.6-5.5 2.3-2.4 5.8-4.2 6.2-7.7z"/><linearGradient id="SVGID_17_" gradientUnits="userSpaceOnUse" x1="981.19" y1="215.525" x2="1062.96" y2="215.525"><stop offset="0" stop-color="#1D96D3"/><stop offset="1" stop-color="#24A6DF"/></linearGradient><path class="st40" d="M981.2 130.7c19.2 3.7 38.5 7.3 57.7 11 0 27.7.1 55.4 0 83.1-.2 4.2-.1 8.5.9 12.6-1.2 5.2-2.6 10.3-3.9 15.5-4 15.8-7.9 31.6-12 47.3-10.1-14.5-18.4-30.2-24.4-46.8-5.6-15.4-8.9-31.4-11.8-47.5-4.2-24.7-6.4-50-6.5-75.2zm57.7 11c8 1.5 16 3 24.1 4.6l-.1.4c-7.6 30.3-15.3 60.5-23 90.7-1-4.1-1.1-8.4-.9-12.6 0-27.6-.1-55.4-.1-83.1z"/><path class="st10" d="M563.8 163.8c29-5.5 58.1-11.2 87.1-16.5 4.4 17.6 8.9 35.1 13.3 52.7-13 8.8-25.6 18.2-37.3 28.8-5.3 4-9 9.8-14.6 13.4-15.5-26.2-30.6-52.6-46.2-78.8-.5.2-1.7.3-2.3.4z"/><path class="st11" d="M1147.6 410.3c19.3-19.7 38.4-39.6 57.9-59.2l.9-.2c-13 44.4-30 87.5-51.2 128.6-.2-23.1-2.8-46.2-8.2-68.6l.6-.6z"/><linearGradient id="SVGID_18_" gradientUnits="userSpaceOnUse" x1="490.53" y1="246.6" x2="612.82" y2="246.6"><stop offset="0" stop-color="#1077BE"/><stop offset="1" stop-color="#1684C7"/></linearGradient><path class="st41" d="M537 168.9c8.9-1.7 17.9-3.4 26.8-5.1.6-.1 1.8-.2 2.3-.3 15.6 26.1 30.7 52.6 46.2 78.8l.5.8c-22.7 24.3-40.3 53.3-51.1 84.8-.2.5-.6 1.4-.8 1.9l-24.3-41.4c.4-5.8.4-11.6.3-17.3.1-34.2.2-68.2.1-102.2zm-46.5 8.9c15.5-2.9 31-5.9 46.5-8.8.1 34 0 68 0 102 .1 5.8.1 11.6-.3 17.3-14.8-25.2-29.5-50.5-44.3-75.7-1.4-11.6-1.5-23.2-1.9-34.8z"/><linearGradient id="SVGID_19_" gradientUnits="userSpaceOnUse" x1="1109.739" y1="142.395" x2="1013.695" y2="308.747"><stop offset="0" stop-color="#18283D"/><stop offset="1" stop-color="#142031"/></linearGradient><path class="st42" d="M1062.8 146.7c4.2-.1 8.2 1.1 12.3 1.8 22.6 4.3 45.3 8.6 67.9 13-17.8 30.5-35.7 61.1-53.5 91.6-9.8-.7-19.6-.3-29.4-.3-8 0-16.1-.3-24.1.1 1.3-5.2 2.7-10.3 3.9-15.5 7.7-30.1 15.3-60.4 22.9-90.7zM1036 253c8-.3 16-.1 24.1-.1 9.8 0 19.6-.4 29.4.3-3.6 6.1-7.1 12.2-10.7 18.3-11 18.6-21.7 37.3-32.8 55.9-8-8.4-15.1-17.6-22.1-26.8l.1-.3c4.1-15.7 8-31.5 12-47.3z"/><linearGradient id="SVGID_20_" gradientUnits="userSpaceOnUse" x1="1195.941" y1="157.601" x2="1078.077" y2="361.748"><stop offset="0" stop-color="#24A7DF"/><stop offset="1" stop-color="#1B91D1"/></linearGradient><path class="st43" d="M1143 161.6c4.6.8 9.2 1.8 13.8 2.6v.1c.5 21.8 0 43.7.1 65.5-.1 24 .1 48-.1 72-.1 3.2.3 6.5 1 9.7-14 24-28.1 48-42.1 72-12.8-7.7-25.2-16.2-36.9-25.5.1-28.8.4-57.7-.2-86.5 3.6-6.1 7.1-12.2 10.7-18.3 18.1-30.5 35.9-61 53.7-91.6zm13.8 2.7c25.2 4.6 50.4 9.6 75.6 14.4-.2 2.3.4 4.8-.7 6.8-19.4 33-38.7 66.1-58 99.1-5.3 9-10.5 17.9-15.8 26.9-.8-3.2-1.1-6.4-1-9.7.2-24 0-48 .1-72-.2-21.8.3-43.6-.2-65.5zM1046 327.4c11.1-18.5 21.8-37.3 32.8-55.9.6 28.8.2 57.7.2 86.5-11.7-9.3-23-19.4-33-30.6z"/><linearGradient id="SVGID_21_" gradientUnits="userSpaceOnUse" x1="1257.578" y1="200.445" x2="1139.207" y2="405.469"><stop offset="0" stop-color="#172539"/><stop offset="1" stop-color="#111C2C"/></linearGradient><path class="st44" d="M1173.7 284.6c19.3-33.1 38.6-66.1 58-99.1.9 7.1.1 14.3-.4 21.4-1.5 25.9-5 51.7-9.3 77.3-6.6 1.4-13.3.6-20 .8-9.5-.2-18.9.3-28.3-.4zm28.3.3c6.7-.2 13.4.6 20-.8-3 16.4-6.6 32.7-10.8 48.8-1.4 5.9-3.4 11.7-4.4 17.8-.1 0-.3.1-.4.2l-.9.2c-19.5 19.5-38.5 39.5-57.9 59.2-2-4.5-2.7-10.1-7.2-12.9-7.9-5.1-16.6-8.9-24.6-13.9 14-24 28.1-48 42.1-72 5.3-9 10.5-17.9 15.8-26.9 9.4.7 18.8.2 28.3.3z"/></svg>