<?xml version="1.0" encoding="utf-8"?>
<!-- Generator: Adobe Illustrator 21.1.0, SVG Export Plug-In . SVG Version: 6.00 Build 0)  -->
<svg version="1.1" id="Layer_1" xmlns="http://www.w3.org/2000/svg" xmlns:xlink="http://www.w3.org/1999/xlink" x="0px" y="0px"
	 viewBox="0 0 141.7 141.7" style="enable-background:new 0 0 141.7 141.7;" xml:space="preserve">
<style type="text/css">
	.st0{fill:#060403;}
	.st1{fill:#F05E07;}
	.st2{fill:#FDFDFD;}
</style>
<g>
	<path class="st0" d="M58.4,1.3c7.1-0.8,14.2-1.1,21.3-0.5c8.4,0.7,16.7,2.3,24.8,4.6c0.3,0.1,0.6,0.2,0.9,0.2
		c3.2,0.9,6.5,1.9,9.6,3.1c0.1,0,0.4,0.1,0.6,0.1c0.4,0.2,0.7,0.3,1.1,0.4c2,0.7,4,1.5,6,2.2c0.5,0.2,0.9,0.4,1.4,0.6
		c0.7,0.3,1.3,0.5,2,0.8c2.5,1.1,5,2.2,7.5,3.4c1.7,0.8,3.4,1.6,5,2.5C125,42.5,111.4,66.3,97.6,90c5.2-1.1,10.3-2.5,15.5-3.6
		c0.5-0.1,1-0.2,1.5-0.4c0.4-0.1,0.8-0.2,1.2-0.3c4.2-1,8.3-2,12.5-3c0.4-0.1,0.8-0.2,1.2-0.3c1.1-0.2,2.2-0.5,3.3-0.8
		c0,10.5,0,21,0,31.4c-2.1,0.5-4.1,1-6.2,1.5c-0.4,0.1-0.8,0.2-1.2,0.3c-4.6,1-9.1,2.2-13.7,3.2c-0.4,0.1-0.8,0.2-1.2,0.3
		c-0.5,0.1-1,0.2-1.4,0.4c-1.2,0.3-2.4,0.5-3.6,0.9c-3.4,0.8-6.7,1.6-10.1,2.4c-0.4,0.1-0.8,0.2-1.2,0.3c-5,1.1-9.9,2.4-14.9,3.5
		c-0.4,0.1-0.8,0.2-1.2,0.3c-0.5,0.1-1,0.3-1.5,0.4c-1.6,3.1-3.5,6-5.2,9c-1.3-2.3-2.6-4.6-4-6.8c-1.4,0.2-2.8,0.6-4.2,0.9
		c-0.4,0.1-0.8,0.2-1.2,0.3c-3.2,0.7-6.4,1.6-9.6,2.3c-0.4,0.1-0.8,0.2-1.2,0.3c-0.4,0.1-0.8,0.2-1.2,0.3c-4.2,1-8.3,2-12.5,3
		c-0.4,0.1-0.8,0.2-1.2,0.3c-1.7,0.4-3.4,0.8-5.1,1.2c-2.9,0.7-5.7,1.4-8.6,2c-0.4,0.1-0.8,0.2-1.2,0.3c-1.3,0.3-2.5,0.6-3.8,0.9
		c-1.2,0.3-2.5,0.6-3.7,0.9c0-10.5,0-21,0-31.4c2.6-0.6,5.2-1.3,7.9-1.9c0.5-0.1,1-0.2,1.4-0.4c0.8-0.1,1.6-0.3,2.4-0.5
		c4.2-1,8.3-2,12.5-3c0.8-0.1,1.6-0.3,2.4-0.6c3.7-0.8,7.3-1.8,11-2.6c-0.8-1.3-1.5-2.7-2.4-4c-2.4,1.2-4.7,2.5-7.2,3.6
		c-0.5,0.2-0.9,0.4-1.4,0.6c-2,0.8-4,1.6-6.1,2.1c-1.2,0.4-2.5,0-3.7-0.3c-3.6-1.1-6.6-3.3-9.6-5.5c-2.2-1.7-4.1-3.8-6.5-5.1
		c-0.8-0.5-1.8-0.3-2.5-1c-1.4-1.3-2.3-2.9-3-4.7c-0.7-1.6-0.4-3.4,0-5c1-3.4,2.6-6.6,3.5-10c0.3-1.2,0.5-2.4,1-3.6
		c1-2.9,2.7-5.4,4.2-8c0.6-1.1,1.4-2.3,1.5-3.6c-0.3-1.3-0.9-2.5-1.3-3.7c0.7-1.7,1.6-3.3,2.5-4.9c0.2-0.3-0.1-0.7-0.3-1
		C14.6,37.6,9.2,28.2,3.8,18.8c4.5-2.4,9.1-4.4,13.8-6.4c0.6-0.2,1.1-0.4,1.7-0.7c2-0.8,3.9-1.6,5.9-2.3c0.6-0.2,1.1-0.4,1.7-0.6
		c3.8-1.3,7.6-2.5,11.4-3.6C44.9,3.5,51.6,2.1,58.4,1.3L58.4,1.3z"/>
	<path class="st1" d="M29.1,16.2C42.5,11,56.6,7.4,71,7.2c12.3,0,24.5,2.7,36.2,6.6c7,2.5,14,5.3,20.5,8.8c-1.6,2.7-3.1,5.4-4.7,8.1
		c-5.5-1.3-11-2.7-16.5-3.9c-1.4-0.3-2.8-0.6-4.1-1.1c0.7-1,1.4-2.1,2.3-2.8c-7.6-2.7-15.6-3.7-23.5-4.2c-2.2-1.4-4.6-2.5-6.8-3.9
		c-2-1.1-4.4-2.1-6.7-1.3c-2.2,0.9-3.5,3-4.7,4.9c-5.3,1.3-10.4,3.1-15.3,5.3c-0.6-0.6-1.2-1.3-2.1-1.3c-2.2-0.2-4.3,0.4-6.4,1.1
		c-1,0.3-1.8,1-2.4,1.8c-1.5,2-2.1,4.5-2.7,6.9c-3.1,2.5-6,5.4-8.6,8.4c-3.6-6.1-7-12.2-10.6-18.2C19.4,20.1,24.3,18.1,29.1,16.2
		L29.1,16.2z"/>
	<path class="st2" d="M66.4,19.5c0.7-0.9,1.6-1.9,2.8-1.7c1.4,0.2,2.7,0.9,4,1.4c2,0.8,4.1,1.6,5.5,3.2c0.7,0.8,0.7,2,0.5,3
		c-0.4,1.2-0.9,2.4-1.3,3.6c-0.7,2.7-1,5.5-0.7,8.2c0.1,0.9,0.5,1.8,0.9,2.6c-0.1-2.1,0.2-4.3,0.8-6.3c0.9-3.1,1.9-6.1,3.1-9.1
		c4.8,0.5,9.6,1.2,14.3,2.3c-1.3,0.6-2.5,1.6-3.4,2.8c5.4,1.7,10.8,3.3,16.1,5.1c-0.6,0.6-1.2,1.3-1.8,2c3.4,1.3,6.9,2.5,10.3,3.7
		c-8.4,14.6-16.8,29.1-25.3,43.7c-1.1-0.4-2.3-0.6-3.4-0.8c-7.1-0.3-14.6,0-21,3.3c0.8,1.3,1.8,2.6,2.6,3.9
		c-4.9,0.6-9.9,1.5-14.3,3.9c-0.1-0.2-0.3-0.6-0.4-0.8c3.4-1.8,6.8-3.6,10.5-4.3c-0.4-1-1-1.8-1.9-2.4c2.6-2,5.7-3.3,8.9-4.3
		c5.1-1.6,10.4-2.3,15.7-2.6c1.9-1.8,3.8-3.7,5-6.1c0.9-1.9,1.3-3.9,1.4-6c0-1.6,0.2-3.2-0.3-4.7c-1.1-4-3.3-7.5-5.5-10.8
		c0.8,4,1.7,8,2.3,12.1c0.5,2.7-0.5,5.4-2.2,7.4c-1.5,1.7-3.3,3.1-5.3,4c-3.1,0.6-6.2,1.2-9.2,2C70.5,79,66,80.4,62,82.9
		c-1.1,0.7-2,1.5-2.9,2.4c0.4,0.3,0.9,0.6,1.3,0.9c-6.5,4.6-13.3,8.9-20.6,12.2c-1.8,0.8-3.6,1.5-5.5,2.1c-1.3,0.2-2.7,0.2-4,0
		c-0.8-0.1-1.2-0.8-1.8-1.3c2.7-0.1,5.3-1.2,7.8-2.2c3.5-1.5,6.6-3.8,9.3-6.5c3.3-3.4,6.1-7.3,9.4-10.8c3.3-3.5,7.3-6.5,11.8-8.4
		c3.3-1.4,7-2.1,10.5-1.1c-2-4.1-3.7-8.3-6.1-12.2c2,1.4,3.8,3,5.6,4.6c-2.5-3.3-5.1-6.6-8.5-9c-1.6-1.2-3.6-1.8-5.6-1.1
		c-3.7,1.3-6.9,3.8-9.8,6.4c2.7-1.5,5.5-2.7,8.6-3.3c-2.1,1-4.2,2.1-6,3.7c-3.6,3.1-6.2,7.1-8.1,11.4C46,73.7,45,76.9,43.6,80
		c-2.1,4.5-4.2,9-7.1,13c-1.4,2-3.7,3.2-6.1,3.7c-1.4,0.2-2.8,0.1-4.1,0c-1.6-2.1-3-4.7-2.8-7.4c0.5-1.6,2.3-2.3,3.8-2.5
		c0.2-2.4-1.1-4.7-2.9-6.2c-1.2-0.7-2.6-0.6-4-0.5c-2.9,0.2-5.8,1.1-8.5,2c0.2-2.2,1.2-4.2,1.9-6.2c1.2-3.2,1.9-6.6,3.6-9.6
		c1.7-3.4,4-6.3,6.2-9.3c-0.1-1.7-1-3.2-1.9-4.5c3.3-5.7,8.1-10.5,13-14.9c6.8-6.3,15.6-10.3,24.8-11.6c-0.7,2.6-1.6,5.1-2.4,7.7
		C60,28.8,62.9,23.9,66.4,19.5L66.4,19.5z"/>
	<path class="st0" d="M63.7,35.2c1.1-5.2,4-9.7,7.3-13.7c2.1,0.8,4.7,1.7,5.5,4c0.5,2-0.6,3.9-1.6,5.5c-0.3-1.5-0.5-3.5-2.2-4.1
		c-1.4-0.2-2.5,0.8-3.5,1.6C67.2,30.6,65.6,33,63.7,35.2L63.7,35.2z"/>
	<path class="st0" d="M32.1,55.7c7.4-2.7,13.6-7.8,19.2-13.2c-1.9,2.6-3.7,5.5-6.1,7.7c-3,2.4-6.2,4.4-9.6,6.1
		c1.5,1.1,3.5,1,5.2,0.3c1.9-0.7,3.3-2.4,3.9-4.3l0.2,0c0.1-0.4,0-1,0.3-1.3c0,0.5,0.1,1-0.2,1.4c-0.7,1.9-1.8,3.8-3.6,4.8
		c-1.6,1-3.5,1.4-5.3,2c-3.7,3-6.3,7.1-8,11.4c0.8-2.8,1.8-5.5,3.2-8.1c0.9-1.7,2-3.2,3.5-4.4c-1.9-1.3-4.3-1.4-6.5-1.2
		C29.5,56.5,30.8,56,32.1,55.7L32.1,55.7z"/>
	<path class="st2" d="M56.5,62.2c1.9-1.8,4.1-3.3,6.6-4c2-0.2,3.9,0.8,5.3,2.2c-0.4,2-1,4-1.5,6c-2.3-0.3-4.7-0.5-6.7-1.8
		c0.6,1.3,0.4,2.8,0,4.1c-1.7,0.2-3.7,0.4-5.2-0.9c0.3,1.9-0.3,3.8-1.2,5.5c-1.5,0.2-3-0.3-4.4-1C51.3,68.6,53.5,65,56.5,62.2
		L56.5,62.2z"/>
	<path class="st2" d="M69.7,63c0.1,0,0.3,0.1,0.4,0.1c0.6,1.4,0.9,2.9,1.2,4.4c-1.1,0.1-2.2,0.2-3.4,0.4
		C67.8,66.1,68.4,64.3,69.7,63L69.7,63z"/>
	<path class="st2" d="M61.6,67c1.7,0,3.5,0.4,5,1.2c-2,0.5-3.9,1.2-5.6,2.2C61.3,69.2,61.5,68.1,61.6,67L61.6,67z"/>
	<path class="st2" d="M55.3,74.7c-0.1-1.8,0.2-3.5,0.7-5.2c1.5,0.1,2.9,0.6,4.2,1.4c-5.7,4.1-9.5,10.2-13.9,15.6
		c-2.3,2.9-5,5.3-8.1,7.3c2.4-2.7,4.3-5.7,5.8-8.9c0.6-0.1,1.3-0.2,1.9-0.2c-0.2-0.7-0.5-1.4-0.5-2.1c-0.1-1,0.5-1.9,0.8-2.8
		c1.2,0,2.4,0.1,3.6,0.3c-0.1-1.8,0.2-3.5,0.6-5.3C52,74.2,53.7,74.3,55.3,74.7L55.3,74.7z"/>
	<path class="st2" d="M46.7,78.5c0.6-1.8,1.4-3.5,2.2-5.2c0.2,1.6,0.1,3.3-0.1,4.9C48.5,79,47.4,78.5,46.7,78.5L46.7,78.5z"/>
	<path class="st1" d="M125.7,86.1c1.9-0.6,4,1.2,3.8,3.2c-0.1,2-2.4,3.5-4.2,2.6c-1.6-0.6-2.4-2.6-1.7-4.1
		C124,87,124.8,86.3,125.7,86.1L125.7,86.1z"/>
	<path class="st0" d="M125.8,86.8c1.8-0.6,3.7,1.4,2.9,3.1c-0.6,1.6-3,2-4,0.6C123.5,89.3,124.2,87.2,125.8,86.8L125.8,86.8z"/>
	<path class="st1" d="M125.3,87.6c0.8,0.1,1.8-0.2,2.4,0.5c0,0.4-0.1,0.8-0.2,1.1c0.1,0.4,0.2,0.9,0.3,1.3c-0.2,0-0.6,0-0.8,0
		c-0.1-0.5-0.2-1-0.7-1.1c0,0.3,0,0.8,0,1.1c-0.2,0-0.7,0-0.9,0C125.3,89.5,125.3,88.5,125.3,87.6L125.3,87.6z"/>
	<path class="st0" d="M126.2,88.2c0.4-0.3,1,0.4,0.5,0.7C126.3,89.2,125.7,88.5,126.2,88.2L126.2,88.2z"/>
	<path class="st1" d="M118.8,91.5c1.2-0.2,2.6-0.4,3.5,0.5c0.7,0.9,0.7,2,0.8,3.1c0,3.1,0,6.2,0,9.3c-0.1,1.3-0.2,2.9-1.2,3.8
		c-1.1,1-2.7,1.3-4.1,1.7c-1.3,0.3-2.7,0.7-4,0.3c-1.2-0.4-1.4-1.8-1.4-2.9c0-3.3,0-6.6,0-9.9c0-1.5,0.3-3.2,1.6-4.2
		C115.3,92.2,117.1,91.9,118.8,91.5L118.8,91.5z"/>
	<path class="st1" d="M100.7,95.9c2.2-0.5,4.3-1.1,6.5-1.4c1.1-0.1,2.4-0.3,3.3,0.6c0.9,0.9,0.8,2.2,0.9,3.3c0,1.2,0.1,2.4-0.3,3.5
		c-0.4,1-1.3,1.7-2.3,2.1c1,0.1,2.1,0.4,2.4,1.4c0.4,1.6,0.1,3.2,0.2,4.9c0,0.3,0.1,0.9-0.4,1c-1.3,0.3-2.5,0.6-3.8,0.9
		c-0.1-1.7,0.1-3.5-0.1-5.2c-0.3-1-1.5-0.5-2.2-0.4c0,2,0,4.1,0,6.1c-1.4,0.4-2.8,0.7-4.2,1C100.7,107.7,100.7,101.8,100.7,95.9
		L100.7,95.9z"/>
	<path class="st0" d="M117.6,94.9c0.3-0.1,0.8-0.3,1,0.2c0.2,0.4,0.1,1,0.2,1.4c0,3,0,6,0,9.1c0.1,1-1.3,1.6-2.1,1
		c-0.2-3.3,0-6.7-0.1-10.1C116.5,95.8,116.8,95.1,117.6,94.9L117.6,94.9z"/>
	<path class="st1" d="M89.6,98.4c2.3-0.5,4.5-1.2,6.8-1.4c1-0.1,2.2-0.1,2.9,0.7c0.9,1.3,0.7,2.9,0.7,4.4c-0.1,1.9,0.3,4-1,5.5
		c-1.3,1.6-3.4,2-5.3,2.4c0,1.7,0,3.4,0,5.1c-1.4,0.3-2.8,0.6-4.2,1C89.6,110.3,89.5,104.3,89.6,98.4L89.6,98.4z"/>
	<path class="st0" d="M104.9,98c0.7-0.1,1.3-0.2,2-0.3c0.5,1.4,0.3,2.9,0.2,4.4c-0.1,1.1-1.4,1.2-2.2,1.5
		C104.9,101.7,104.9,99.9,104.9,98L104.9,98z"/>
	<path class="st1" d="M77,101.1c1.5-0.4,3-0.8,4.5-0.6c0.8,0.1,1.4,0.7,1.6,1.5c0.3,1.1,0.2,2.2,0.2,3.3c-1.2,0.3-2.4,0.6-3.7,0.9
		c0-0.7,0.1-1.5-0.2-2.2c-0.7-0.4-2,0.1-2,1.1c0,0.8-0.2,1.7,0.3,2.4c1.2,0.7,2.8,0.1,4.1,0.6c0.9,0.2,1.6,1.1,1.7,2
		c0.2,1.7,0.2,3.5-0.1,5.2c-0.3,1.6-1.7,2.8-3.3,3.3c-1.4,0.4-2.8,0.7-4.2,0.9c-0.9,0.1-2-0.3-2.3-1.2c-0.5-1.3-0.3-2.8-0.4-4.2
		c1.3-0.3,2.6-0.6,3.9-0.9c0.2,0.9-0.4,2.3,0.5,2.8c0.7,0,1.8-0.3,1.8-1.2c0-1,0.2-2.1-0.3-3c-1.5-0.8-3.4,0-4.9-0.9
		c-0.9-0.5-1-1.6-1-2.5c0-1.5-0.1-3.1,0.4-4.6C74.2,102.2,75.6,101.5,77,101.1L77,101.1z"/>
	<path class="st0" d="M93.7,100.6c0.7,0,1.6-0.5,2,0.1c0.1,1.6,0.1,3.3,0,4.9c-0.1,1-1.3,1.1-2,1.3
		C93.7,104.8,93.7,102.7,93.7,100.6L93.7,100.6z"/>
	<path class="st1" d="M68.2,103.4c1.3-0.3,2.7-0.6,4-0.9c0,3.8,0,7.6,0,11.4c0,1.6,0.1,3.3-0.5,4.8c-0.5,1.3-1.7,2.1-3,2.5
		c-1.4,0.5-2.9,0.8-4.4,0.8c-0.8,0-1.6-0.4-1.9-1.2c-0.5-1.1-0.5-2.3-0.5-3.4c0-4,0-8,0-12c0-0.4,0.1-0.6,0.5-0.6
		c1.2-0.3,2.5-0.6,3.7-0.8c0,4.5,0,9,0,13.5c0.1,0.3-0.1,0.9,0.3,1.1c0.6,0.1,1.3,0,1.6-0.5c0.2-0.5,0.2-1.1,0.2-1.7
		C68.2,111.9,68.2,107.6,68.2,103.4L68.2,103.4z"/>
	<path class="st1" d="M51.8,107.1c3.2-0.8,6.5-1.5,9.7-2.3c0,1.1,0,2.1,0,3.2c-0.9,0.2-1.9,0.4-2.8,0.7c0,4.9,0,9.7,0,14.6
		c-1.4,0.4-2.8,0.7-4.2,1c0-4.9,0-9.7,0-14.6c-0.9,0.2-1.9,0.4-2.8,0.6c-0.3,1.6,0.2,3.6-0.3,5.2c-0.4,1.1-1.4,1.7-2.3,2.2
		c1.1,0,2.3,0.4,2.5,1.6c0.2,1.8,0.1,3.7,0,5.5c-1.3,0.5-2.7,0.6-4.1,1c-0.1-1.6,0-3.2,0-4.8c0-0.5-0.2-1-0.8-1.1
		c-0.5,0-1,0.1-1.5,0.2c0,2,0,4.1,0,6.1c-1.4,0.3-2.8,0.7-4.2,1c0-5.9,0-11.8,0-17.7c2.3-0.5,4.6-1.2,6.9-1.5c1-0.1,2.4-0.2,3.1,0.8
		c0.2,0.2,0.3,0.8,0.7,0.7C51.9,108.8,51.8,108,51.8,107.1L51.8,107.1z"/>
	<path class="st1" d="M35.4,110.9c1.4-0.3,2.8-0.6,4.2-0.9c0,5.9,0,11.8,0,17.7c-1.4,0.4-2.8,0.7-4.2,1
		C35.4,122.7,35.3,116.8,35.4,110.9L35.4,110.9z"/>
	<path class="st1" d="M30.5,112c1.4-0.3,2.9-0.7,4.3-1c-0.8,6.1-1.7,12.2-2.5,18.3c-2.2,0.5-4.4,1-6.6,1.5
		c-0.9-5.7-1.7-11.4-2.5-17.1c1.4-0.4,2.9-0.7,4.3-1c0.5,4.9,0.9,9.9,1.5,14.8C29.5,122.3,30,117.1,30.5,112L30.5,112z"/>
	<path class="st0" d="M45.2,111.9c0.7-0.2,2.1-0.8,2.3,0.2c0.1,1.3,0.1,2.6,0,3.9c-0.2,1-1.5,1-2.2,1.2
		C45.2,115.5,45.2,113.7,45.2,111.9L45.2,111.9z"/>
	<path class="st1" d="M84.5,113.7c1.2-0.3,2.5-0.6,3.7-0.9c0,1.2,0,2.4,0,3.7c-1.2,0.3-2.5,0.6-3.7,0.9
		C84.5,116.1,84.5,114.9,84.5,113.7L84.5,113.7z"/>
</g>
</svg>
