<?xml version="1.0" encoding="utf-8"?>
<!-- Generator: Adobe Illustrator 21.0.0, SVG Export Plug-In . SVG Version: 6.00 Build 0)  -->
<svg version="1.1" id="Layer_1" xmlns="http://www.w3.org/2000/svg" xmlns:xlink="http://www.w3.org/1999/xlink" x="0px" y="0px"
	 viewBox="0 0 669.4 613" style="enable-background:new 0 0 669.4 613;" xml:space="preserve">
<style type="text/css">
	.st0{fill:#0E81CB;stroke:#0E81CB;stroke-width:9.375000e-02;}
	.st1{stroke:#000000;stroke-width:9.375000e-02;}
</style>
<path class="st0" d="M319.7,8.4c1-2.8,1.5-5.8,3-8.3c19.2,60,38.6,119.9,57.8,179.9c-9.7,29.9-19.1,59.9-28.8,89.8
	c-82.4-0.1-164.9,0-247.3-0.1c67,48.9,134.1,97.5,200.9,146.5c-9.4,28.6-18.6,57.3-27.9,85.9c-0.3,1-0.9,1.8-1.8,2.4
	c-50,36.1-99.9,72.3-150,108.4c25.1-77.6,50.3-155.1,75.4-232.7C134,331.5,67.1,282.8,0.1,234c82.4-0.1,164.8-0.1,247.2,0
	C271.7,158.9,295.5,83.6,319.7,8.4z"/>
<path class="st0" d="M539.9,221.7c20.1-4.3,41.1-4,61.3-0.2c17.9,3.5,35.7,10.9,48.4,24.4c12.4,13.2,19.1,31.2,19.8,49.1
	c-22-1.9-44.1-3.7-66.2-5.6c-0.5-5.1-2.3-10.3-6.3-13.8c-5.6-4.9-13.3-6.5-20.5-7.1c-5.9-0.5-12.2-0.7-17.7,2.1
	c-4.3,2.1-6.8,7.8-4.8,12.3c1.9,3.8,5.4,6.5,8.8,8.9c13,8.8,28.4,12.6,42.8,18.2c14.4,4.9,28.9,10.6,40.9,20.2
	c8.2,6.6,15.2,15.1,18.6,25.2c1.2,6.3,2.2,12.6,3,18.9c0.2,13.6-3.2,27.5-11,38.8c-9.4,13.9-24.1,23.4-40,28
	c-19,5.6-39.2,5.7-58.8,3.7c-20.1-2.2-40.4-8.4-56.3-21.3c-11-8.9-19.4-20.7-24.6-33.8c-0.5-1.4-1-2.8-1.4-4.2
	c-1.5-6.1-2.3-12.3-2.3-18.5v-1.7c2.8,0,5.1-0.1,7.8,0.3c19.6,2.1,39.3,3.4,59,5.3c0.8,8.4,5.9,15.9,13.1,20.2
	c8.4,5.4,18.8,6.1,28.5,5.4c4.8-0.4,9.8-1.5,13.6-4.6c4.2-3.5,6.1-10.3,2.7-14.9c-3.3-4.7-8.4-7.7-13.3-10.5
	c-10.3-5.8-21.8-8.9-32.7-13.1c-16.7-5.8-34-11.7-47.4-23.7c-10.1-8.6-17.2-20.9-18.8-34.2c-2.2-17.7,1.9-36.7,13.5-50.5
	C509.7,232.4,524.6,225,539.9,221.7z"/>
<path class="st1" d="M349.3,288.4c19.3-9.4,41.7-11.6,62.8-8.4c17,2.6,33.3,10.8,45,23.5c15.9,16.8,24,39.6,26.4,62.3l-2-0.2
	c-2.8-0.4-5-0.3-7.8-0.3v1.7c-35.8,4-71.7,7.7-107.6,11.5c0.8,8.8,5.4,17.2,12.8,22.2c8.4,6.2,20,6.8,29.6,3.1
	c6.4-2.4,10.8-8.1,13-14.3c18-1.8,35.9-3.9,53.8-5.7c0.2,0.4,0.5,1.3,0.7,1.7c0.4,1.4,0.9,2.8,1.4,4.2c0.2,0.5,0.6,1.6,0.7,2.2
	c-4.7,15.8-16,29.1-30.2,37.3c-20.2,12.3-44.3,16.4-67.7,15.2c-16.5-0.8-33.2-5.6-46.6-15.6c-15.4-11.3-25.7-28.8-29-47.5
	c-3.5-19.7-2.2-41.1,7.5-59C320.3,307.1,334.2,295.9,349.3,288.4 M369.1,325c-5.5,5.7-7.1,14-6.3,21.7c18.6-1.9,37.3-4,55.9-5.9
	c-1.3-15-17-26.5-31.7-24.1C380.5,317.6,373.7,320,369.1,325z"/>
</svg>
