<?xml version="1.0" encoding="utf-8"?>
<!-- Generator: Adobe Illustrator 19.0.0, SVG Export Plug-In . SVG Version: 6.00 Build 0)  -->
<svg version="1.1" id="Layer_1" xmlns="http://www.w3.org/2000/svg" xmlns:xlink="http://www.w3.org/1999/xlink" x="0px" y="0px"
	 viewBox="-221 313.9 151.9 213.8" style="enable-background:new -221 313.9 151.9 213.8;" xml:space="preserve">
<style type="text/css">
	.st0{fill:url(#SVGID_1_);}
	.st1{fill:url(#SVGID_2_);}
	.st2{fill:#979797;}
	.st3{fill:#3C78B4;}
	.st4{fill:url(#SVGID_3_);}
	.st5{fill:url(#SVGID_4_);}
	.st6{fill:url(#SVGID_5_);}
	.st7{fill:url(#SVGID_6_);}
</style>
<path d="M-145,523.5c-10.2,0-20.4-1.9-29.9-5.8l-0.4-0.2l-0.2-0.4c-0.6-1.7-1.1-3.5-1.5-5.2c-0.9-3.7-1.7-7.2-4.3-9.8
	c-4.2-4.5-8.3-9.1-12.3-13.5c-3.2-3.5-6.4-7-9.6-10.6l-0.2-0.3l0-0.3c-0.2-2.6-0.4-5.2-0.6-7.8c-0.2-3.2-0.5-6.4-0.7-9.6
	c-0.1-1.7-1-3.1-1.9-4.7c-0.2-0.3-0.3-0.5-0.5-0.8c-1.4-2.2-2.8-4.5-4.1-6.7c-1-1.6-1.9-3.2-2.9-4.7l-0.3-0.4l0.2-0.5
	c2-5.1,3.8-9.7,5.4-14c-8-13.8-9.9-31.2-5-46.8c4.1-13.3,12.6-25.8,26.1-38.3c0.1-0.7,0.2-1.4,0.3-2.1c0.4-3.4,0.8-6.9,2.5-9.9
	l0.1-0.2l0.2-0.1c15.6-10.2,33.8-14.5,49.9-11.7c10.9,2,21.1,6,29.5,11.7l0.2,0.1l0.1,0.2c1.7,2.9,2.1,6.3,2.5,9.6
	c0.1,0.8,0.2,1.6,0.3,2.4c14.6,13.5,23.8,27.8,27.2,42.5c3.5,14.5,1.3,30-6.1,42.6c1.5,4.1,3.2,8.3,4.7,12.3l0.9,2.2l-0.2,0.4
	c-1.2,2-2.4,4.1-3.7,6c-1.9,3-3.8,6.1-5.4,9.3c-0.6,3.8-0.8,7.6-1.1,11.4c-0.1,2.5-0.3,5.1-0.6,7.6l0,0.3l-0.2,0.2
	c-2.8,3.1-5.6,6.1-8.4,9.2c-4.3,4.7-8.7,9.6-13.1,14.3c-3,2.7-3.9,6.5-4.9,10.4c-0.4,1.7-0.8,3.5-1.4,5.1l-0.2,0.4l-0.4,0.2
	C-124.6,521.6-134.8,523.5-145,523.5z M-173.7,516c18.3,7.3,39.1,7.3,57.4,0c0.5-1.4,0.8-2.9,1.2-4.5c1-4.1,2-8.3,5.4-11.4
	c4.3-4.7,8.7-9.5,13-14.2c2.7-3,5.4-6,8.2-9c0.2-2.4,0.4-4.8,0.5-7.2c0.2-3.9,0.5-7.9,1.1-11.8l0.1-0.3c1.6-3.3,3.6-6.5,5.6-9.6
	c1.1-1.8,2.3-3.7,3.4-5.6l-0.5-1.3c-1.6-4.2-3.3-8.5-4.9-12.8l-0.2-0.5l0.2-0.4c7.3-12.2,9.5-27.3,6.1-41.5
	c-3.3-14.3-12.4-28.3-26.9-41.7l-0.3-0.2l-0.1-0.3c-0.1-0.9-0.3-1.9-0.4-2.8c-0.3-3-0.7-6.1-2.1-8.6c-8.1-5.4-18-9.3-28.5-11.3
	c-15.5-2.7-33.1,1.4-48.2,11.3c-1.4,2.6-1.8,5.8-2.2,8.9c-0.1,0.8-0.2,1.7-0.3,2.5l0,0.4l-0.3,0.2c-13.3,12.3-21.8,24.7-25.8,37.7
	c-4.8,15.1-2.9,32.2,5,45.6l0.2,0.4l-0.2,0.5c-1.6,4.3-3.4,8.9-5.4,14c0.9,1.4,1.8,2.9,2.6,4.3c1.4,2.2,2.7,4.5,4.1,6.7
	c0.2,0.3,0.3,0.5,0.5,0.8c1,1.7,2.1,3.4,2.2,5.6c0.3,3.2,0.5,6.4,0.7,9.6c0.2,2.5,0.4,5,0.5,7.4c3.1,3.4,6.3,6.9,9.4,10.3
	c4,4.4,8.2,9,12.3,13.5c3,2.9,3.9,6.9,4.9,10.7C-174.6,513-174.2,514.6-173.7,516z"/>
<path d="M-184.1,331.7c14.3-9.4,32.1-14.5,49.1-11.6c10.3,1.9,20.4,5.7,29.1,11.5c2.1,3.5,2.1,8,2.7,12
	c12.4,11.4,23.3,25.5,27.2,42.2c3.4,14.2,1.3,29.7-6.3,42.3c1.8,4.9,3.7,9.7,5.6,14.5c-3,5.2-6.5,10.1-9.2,15.5
	c-1,6.3-1,12.8-1.7,19.2c-7.2,7.8-14.2,15.7-21.4,23.5c-4.5,4.1-4.6,10.5-6.5,15.9c-18.7,7.6-40.3,7.6-59,0
	c-1.9-5.1-1.9-11.3-6.1-15.4c-7.4-8-14.6-16-21.9-24c-0.4-5.8-0.8-11.6-1.3-17.4c-0.1-2.2-1.4-4-2.5-5.9c-2.4-3.8-4.7-7.7-7-11.5
	c1.9-4.8,3.7-9.6,5.6-14.5c-8.2-13.8-10-31.1-5.1-46.4c4.6-15,14.7-27.6,26-38.1C-186.3,339.7-186.2,335.3-184.1,331.7"/>
<path d="M-150.5,516.4c-5.9-0.3-12.9-0.8-19.5-3.1l-0.7-0.2l0-0.7c0.3-10.3-0.6-21.1-2.6-32.8l-0.1-0.3c-0.9-4.3-1.8-8.7-3.5-12.7
	c1.3,8.4,1.6,15.3,1,21.9l-0.2,2.3l-1.6-1.7c-12.5-13.9-21.3-30.6-29.3-46.7l-0.2-0.4l0.2-0.4c1.8-4.1,4-8.8,8-12l0.5-0.4l0.6,0.3
	c0.9,0.4,1.8,0.8,2.7,1.2l1.1,0.5l0.1,0.5c0.2,0.8,0.3,1.6,0.4,2.5c0.5,3.7,1.1,6.1,3.7,6.8c5.5,2,11.2,3.5,16.7,4.9
	c2,0.5,4.1,1.1,6.1,1.6l0.9,0.2l-0.2,0.9c-0.4,2.3-0.9,4.8-1.3,7.3c1.4-1.8,2.7-3.8,4-5.6c1.1-1.6,2.2-3.3,3.4-4.9l1.8,0.8
	c-0.5,2.1-1.1,4.3-1.6,6.4l-0.5,2c7,18.7,9.1,38.6,11,60.7l0.1,1.1L-150.5,516.4z"/>
<linearGradient id="SVGID_1_" gradientUnits="userSpaceOnUse" x1="-178.18" y1="515.45" x2="-178.18" y2="430.31">
	<stop  offset="0" style="stop-color:#636366"/>
	<stop  offset="0.75" style="stop-color:#8E8E8F"/>
</linearGradient>
<path class="st0" d="M-205.9,442c1.8-4.3,4-8.7,7.7-11.7c1.1,0.5,2.3,1,3.4,1.5c0.8,3.6,0.5,8.9,4.9,10c7.4,2.7,15.2,4.4,22.8,6.5
	c-0.7,3.6-1.4,7.1-1.8,10.8c3.7-4,6.4-8.8,9.7-13.2c-0.7,2.9-1.5,5.8-2.3,8.7c7.3,19.4,9.3,40.2,11,60.7c-6.5-0.3-13-0.9-19.2-3
	c0.3-11-0.8-22.1-2.6-33c-1.3-6.4-2.7-13.1-6.5-18.5c1.7,9.1,2.8,18.3,2,27.5C-189.1,474.8-197.8,458.3-205.9,442z"/>
<path d="M-140.5,515.4c1.5-18.1,3.5-40.5,11-60.7c-0.8-2.9-1.5-5.7-2.2-8.4l1.8-0.8c1.2,1.6,2.3,3.3,3.5,4.9c1.3,1.9,2.6,3.8,4,5.6
	c-0.4-2.5-0.8-4.9-1.3-7.3l-0.2-0.9l0.9-0.2c2.2-0.6,4.4-1.2,6.6-1.8c5.6-1.5,11.4-3,16.8-5.1c2.3-0.9,2.7-3.5,3-6.2
	c0.1-1,0.3-2,0.5-2.9l0.1-0.5l4.4-1.9l0.5,0.4c4,3.2,6.2,7.9,8,12l0.2,0.4l-0.2,0.4c-8.4,16.9-17,33.2-29.3,46.6l-1.5,1.6l-0.2-2.2
	c-0.8-7.3,0.1-14.6,1-21.7c-2.2,5.4-3.3,11.2-4.2,16.7c-1.6,11.4-2.2,20.6-2,29l0,0.7l-0.7,0.2c-5.4,1.8-11.6,2.8-19.4,3.1l-1.1,0
	L-140.5,515.4z"/>
<linearGradient id="SVGID_2_" gradientUnits="userSpaceOnUse" x1="-111.8" y1="515.44" x2="-111.8" y2="430.32">
	<stop  offset="0" style="stop-color:#636366"/>
	<stop  offset="0.75" style="stop-color:#8E8E8F"/>
</linearGradient>
<path class="st1" d="M-95.2,431.8c1.1-0.5,2.3-1,3.4-1.5c3.7,3,5.8,7.3,7.7,11.6c-8.1,16.3-16.7,32.8-29.1,46.3
	c-1-9.2,0.6-18.3,1.8-27.4c-4.1,6.8-5.7,14.6-6.9,22.3c-1.3,9.7-2.3,19.4-2,29.2c-6.2,2.1-12.7,2.8-19.2,3
	c1.8-20.5,3.7-41.3,11.1-60.7c-0.8-2.9-1.5-5.8-2.3-8.7c3.3,4.4,6,9.1,9.7,13.2c-0.4-3.6-1.1-7.2-1.8-10.8
	c7.9-2.2,15.9-3.9,23.5-6.9C-95.5,440-96,435.1-95.2,431.8z"/>
<path d="M-147,443.8c-16.4-2.5-33.3-8.4-50.3-17.4c-2-0.9-2.9-2.9-3.8-4.6l-0.2-0.3c-5.3-11.7-6.5-25.3-3.2-38.4
	c0.2-1.6,1.7-2.8,3.4-2.8c0.9,0,1.7,0.3,2.3,0.9c1.9,1.5,3.7,3.2,5.3,4.9c0.5,0.5,1,1,1.6,1.5c2.3,2.2,3.9,5,5.2,7.8
	c-0.4-2.3-0.9-4.7-1.6-6.9c-2.5-6.9-5.7-13.3-9.6-19.2l-0.3-0.5l0.3-0.5c3.2-6.6,8.1-12.1,12.5-16.6l1.2-1.2l0.5,1.7
	c1.8,6.2,3.6,12.3,5.5,18.4c2.9,9.9,6,20.1,8.9,30.2c0.8,3.3,2.9,5.9,5,8.7c0.9,1.2,1.9,2.4,2.7,3.7l0.4,0.6l-0.4,0.6
	c-1.1,1.6-2.3,3.2-3.4,4.7l-0.4,0.5l-0.6-0.1c-3-0.5-5.9-1.2-8.8-2c-3.1-0.8-6.3-1.6-9.5-2.1c6,2.6,12.1,5,18,7.3
	c5.9,2.3,11.9,4.6,17.8,7.2l0.5,0.2l0.1,0.5c0.6,3.7,1.3,7.4,1.9,11l0.4,2.4L-147,443.8z"/>
<path class="st2" d="M-197.1,368.8c3-6.2,7.6-11.5,12.3-16.4c4.8,16.2,9.6,32.4,14.3,48.6c1.2,5,5.2,8.5,7.9,12.6
	c-1.1,1.6-2.3,3.2-3.4,4.7c-8.1-1.4-16-4.5-24.3-4.5c13.5,6.2,27.6,11,41.3,16.9c0.6,4.1,1.4,8.1,2.1,12.1c-17.5-2.7-34.4-9-50-17.3
	c-1.9-0.8-2.7-2.8-3.5-4.5c-5.3-11.7-6.3-25.3-3.2-37.8c0.2-1.8,2.7-2.7,4-1.3c2.5,1.9,4.6,4.2,6.9,6.4c4.1,3.9,5.7,9.5,8.2,14.4
	c-0.9-4.9-1.5-9.8-2.9-14.6C-189.8,381.4-193,374.8-197.1,368.8z"/>
<path d="M-144.2,442.7c0.7-3.9,1.5-8,2.1-12.1l0.1-0.5l0.5-0.2c5.8-2.5,11.8-4.8,17.6-7.1c6-2.4,12.2-4.8,18.2-7.3
	c-3.2,0.5-6.4,1.3-9.6,2.1c-2.9,0.7-5.8,1.5-8.8,2l-0.6,0.1l-1.6-2.2c-0.7-1-1.5-2-2.2-3.1l-0.4-0.6l0.4-0.6
	c0.8-1.3,1.8-2.5,2.7-3.7c2.1-2.6,4.1-5.2,4.9-8.2c3.3-11.4,6.8-23,10.1-34.2c1.5-4.9,2.9-9.9,4.4-14.8l0.5-1.6l1.2,1.2
	c6,6.1,9.8,11.2,12.5,16.6l0.3,0.5l-0.3,0.5c-4,6-7.2,12.5-9.7,19.3c-0.7,2.2-1.2,4.5-1.6,6.8c1.3-2.8,2.8-5.5,5.2-7.7
	c0.5-0.5,1-1,1.5-1.5c1.7-1.7,3.4-3.4,5.4-4.9c0.6-0.6,1.4-0.9,2.3-0.9c1.7,0,3.2,1.2,3.4,2.8c3.2,13,2.1,26.7-3.2,38.3l-0.2,0.4
	c-0.8,1.8-1.8,3.8-3.9,4.7c-17,9-33.9,14.8-50.2,17.3l-1.4,0.2L-144.2,442.7z"/>
<path class="st2" d="M-105.2,352.4c4.8,4.9,9.3,10.2,12.3,16.3c-4,6.1-7.3,12.6-9.8,19.5c-1.4,4.7-2,9.7-2.9,14.5
	c2.5-4.9,4-10.5,8.1-14.4c2.3-2.2,4.4-4.5,6.9-6.4c1.3-1.4,3.8-0.5,4,1.3c3.1,12.4,2.2,26-3.2,37.7c-0.8,1.8-1.6,3.7-3.5,4.6
	c-15.6,8.3-32.4,14.6-49.9,17.3c0.8-4,1.5-8.1,2.1-12.1c13.7-5.8,27.7-10.7,41.2-16.8c-8.3-0.1-16.2,3.1-24.3,4.5
	c-1.1-1.6-2.3-3.2-3.4-4.7c2.7-4,6.5-7.4,7.8-12.2C-114.9,385.1-110.1,368.8-105.2,352.4z"/>
<path d="M-146.8,429.4l-0.3-0.3c-2.9-2.6-5.5-4.8-8.2-6.8l-0.3-0.2l-0.1-0.4c-0.5-2.7-0.8-5.6-1-8.8c-1.1-1.4-2.3-2.8-3.6-4.1
	c-2.4-2.6-4.9-5.3-6.4-8.6l0-0.1l0-0.1c-6.5-24.2-10.5-44.2-12.5-63.2l-0.1-0.5l0.4-0.3c7.2-5.7,16.7-8.9,29-9.7l1-0.1l0.1,1
	c0.9,13.2,1.6,26.6,2.3,39.5c0.5,9,1,18.1,1.5,27.3c0,0,0,0,0-0.1c1.2-23.5,2.4-45.3,3.7-66.7l0.1-1l1,0.1c12.3,0.9,21.7,4,28.9,9.7
	l0.4,0.3l-0.1,0.5c-2.3,21.8-7.2,42.8-11.7,60.5c-0.9,4.7-4.1,8.1-7.1,11.4c-1.3,1.4-2.6,2.8-3.7,4.2c-0.2,3.3-0.5,6.2-1,8.8
	l-0.1,0.4l-0.3,0.2c-2.7,2.1-5.3,4.3-8.2,6.8l-0.3,0.3H-146.8z"/>
<g id="_x23_3c78b4ff">
	<path class="st3" d="M-189.4,328.6c15.4-10.5,34.5-16.6,53.3-14c12.7,1.8,24.9,6.8,35.5,14c1,3.8,1.8,7.6,2.6,11.4
		c0.3,2,2.2,3.1,3.4,4.5c13.3,13.2,23.9,30.4,25.4,49.5c0.8,7.7-0.7,15.3-2.1,22.9c-0.9,4.2-2.8,8.1-4.9,11.9c1.9,5,3.7,10,5.6,15.1
		c-3.3,5.4-6.9,10.6-9.9,16.2c-1,6.5-0.9,13.2-1.7,19.8c-8.1,8.9-16.3,17.7-24.2,26.7c-2.4,4.4-2.6,9.7-4.7,14.2
		c-13.1,6.5-28.3,7.9-42.7,6.7c-8.5-1-17.2-2.7-24.8-6.7c-2.6-4.6-2.3-10.5-5.3-14.9c-7.9-8.8-15.8-17.4-23.8-26.1
		c-0.7-6.6-0.7-13.2-1.7-19.8c-2.9-5.6-6.7-10.8-9.9-16.2c1.9-5,3.7-10,5.6-15c-2.3-4-4.3-8.3-5.1-12.9c-1.3-7.2-2.7-14.5-1.9-21.9
		c1.6-19.3,12.3-36.6,25.9-49.9c1.1-1.2,2.7-2.2,2.9-4C-191.2,336.2-190.4,332.3-189.4,328.6 M-184.1,331.7c-2.1,3.6-2.1,8-2.7,12
		c-11.4,10.5-21.4,23.1-26,38.1c-4.9,15.3-3.1,32.6,5.1,46.4c-1.8,4.8-3.7,9.6-5.6,14.5c2.4,3.8,4.7,7.7,7,11.5
		c1.1,1.8,2.4,3.7,2.5,5.9c0.5,5.8,0.8,11.6,1.3,17.4c7.3,8,14.5,16.1,21.9,24c4.1,4,4.1,10.2,6.1,15.4c18.7,7.5,40.4,7.5,59,0
		c1.9-5.4,2-11.8,6.5-15.9c7.2-7.8,14.3-15.7,21.4-23.5c0.7-6.4,0.6-12.9,1.7-19.2c2.6-5.4,6.2-10.3,9.2-15.5
		c-1.9-4.8-3.8-9.6-5.6-14.5c7.5-12.6,9.7-28.1,6.3-42.3c-3.9-16.7-14.8-30.8-27.2-42.2c-0.6-4-0.6-8.5-2.7-12
		c-8.7-5.9-18.8-9.7-29.1-11.5C-152,317.2-169.8,322.4-184.1,331.7z"/>
	<path class="st3" d="M-180.7,436.4c4.6,1.8,9.3,3.3,14,4.9c-1.4,1.3-2.9,2.5-4.4,3.6c-2.1-0.8-4.4-1.3-6.4-2.5
		C-179,440.8-179.7,438.4-180.7,436.4z"/>
	<path class="st3" d="M-123.3,441.3c4.7-1.6,9.3-3.2,13.9-4.9c-0.9,2-1.6,4.3-3.2,6c-1.9,1.2-4.1,1.9-6.3,2.2
		C-120.8,444.3-122,442.6-123.3,441.3z"/>
</g>
<g id="_x23_000000ff">
	<path d="M-184.1,331.7c14.3-9.4,32.1-14.5,49.1-11.6c10.3,1.9,20.4,5.7,29.1,11.5c2.1,3.5,2.1,8,2.7,12
		c12.4,11.4,23.3,25.5,27.2,42.2c3.4,14.2,1.3,29.7-6.3,42.3c1.8,4.9,3.7,9.7,5.6,14.5c-3,5.2-6.5,10.1-9.2,15.5
		c-1,6.3-1,12.8-1.7,19.2c-7.2,7.8-14.2,15.7-21.4,23.5c-4.5,4.1-4.6,10.5-6.5,15.9c-18.7,7.6-40.3,7.6-59,0
		c-1.9-5.1-1.9-11.3-6.1-15.4c-7.4-8-14.6-16-21.9-24c-0.4-5.8-0.8-11.6-1.3-17.4c-0.1-2.2-1.4-4-2.5-5.9c-2.4-3.8-4.7-7.7-7-11.5
		c1.9-4.8,3.7-9.6,5.6-14.5c-8.2-13.8-10-31.1-5.1-46.4c4.6-15,14.7-27.6,26-38.1C-186.3,339.7-186.2,335.3-184.1,331.7
		 M-178.1,336.7c2.3,21.3,6.9,42.4,12.5,63.1c2.3,4.9,6.8,8.5,10,12.8c0.1,3,0.4,6,1,9c2.8,2.2,5.6,4.5,8.2,6.9c0.9,0,1.9,0,2.8,0
		c2.7-2.4,5.4-4.7,8.2-6.9c0.6-3,0.9-6,1-9c3.7-5.1,9.6-9,10.8-15.5c5.1-19.9,9.5-39.9,11.7-60.3c-8.1-6.3-18.4-8.8-28.4-9.5
		c-1.4,22.2-2.6,44.5-3.7,66.7c-0.4,5-0.3,10-1.1,15c-1.8-27.2-2.9-54.5-4.7-81.7C-159.8,327.9-170.1,330.4-178.1,336.7
		 M-197.1,368.8c4,6,7.3,12.6,9.8,19.4c1.4,4.8,2,9.7,2.9,14.6c-2.5-4.9-4.1-10.5-8.2-14.4c-2.2-2.2-4.4-4.5-6.9-6.4
		c-1.3-1.4-3.8-0.5-4,1.3c-3.1,12.5-2.2,26,3.2,37.8c0.8,1.7,1.6,3.7,3.5,4.5c15.6,8.3,32.5,14.6,50,17.3c-0.7-4-1.5-8.1-2.1-12.1
		c-13.7-5.9-27.8-10.7-41.3-16.9c8.3,0.1,16.2,3.2,24.3,4.5c1.1-1.6,2.3-3.2,3.4-4.7c-2.8-4.1-6.7-7.7-7.9-12.6
		c-4.7-16.2-9.6-32.4-14.3-48.6C-189.5,357.3-194,362.6-197.1,368.8 M-105.2,352.4c-4.8,16.4-9.7,32.7-14.5,49
		c-1.3,4.8-5.1,8.2-7.8,12.2c1.1,1.6,2.3,3.2,3.4,4.7c8.1-1.4,16-4.6,24.3-4.5c-13.5,6.1-27.6,11-41.2,16.8
		c-0.7,4.1-1.4,8.1-2.1,12.1c17.5-2.7,34.3-9,49.9-17.3c1.9-0.8,2.7-2.8,3.5-4.6c5.3-11.7,6.2-25.3,3.2-37.7c-0.2-1.8-2.7-2.6-4-1.3
		c-2.5,1.9-4.7,4.2-6.9,6.4c-4.1,3.9-5.6,9.5-8.1,14.4c0.9-4.9,1.5-9.8,2.9-14.5c2.5-6.9,5.7-13.4,9.8-19.5
		C-96,362.6-100.4,357.3-105.2,352.4 M-205.9,442c8.1,16.4,16.8,32.8,29.1,46.4c0.8-9.2-0.3-18.4-2-27.5c3.9,5.4,5.2,12.1,6.5,18.5
		c1.9,10.9,2.9,21.9,2.6,33c6.2,2.1,12.7,2.7,19.2,3c-1.7-20.5-3.8-41.3-11-60.7c0.8-2.9,1.5-5.8,2.3-8.7c-3.3,4.4-6,9.2-9.7,13.2
		c0.4-3.6,1.1-7.2,1.8-10.8c-7.6-2.1-15.3-3.8-22.8-6.5c-4.4-1.1-4.1-6.4-4.9-10c-1.1-0.5-2.3-1-3.4-1.5
		C-201.9,433.3-204.1,437.7-205.9,442 M-95.2,431.8c-0.9,3.3-0.3,8.2-4.1,9.7c-7.6,3-15.7,4.7-23.5,6.9c0.7,3.6,1.4,7.2,1.8,10.8
		c-3.7-4-6.4-8.8-9.7-13.2c0.7,2.9,1.5,5.8,2.3,8.7c-7.3,19.4-9.3,40.2-11.1,60.7c6.5-0.2,13-0.9,19.2-3c-0.3-9.8,0.7-19.5,2-29.2
		c1.3-7.7,2.9-15.6,6.9-22.3c-1.1,9.1-2.7,18.2-1.8,27.4c12.4-13.5,21-30,29.1-46.3c-1.8-4.3-4-8.6-7.7-11.6
		C-92.9,430.8-94,431.3-95.2,431.8 M-180.7,436.4c1,2.1,1.6,4.4,3.2,6.1c2,1.2,4.3,1.7,6.4,2.5c1.5-1.1,3-2.3,4.4-3.6
		C-171.3,439.7-176,438.1-180.7,436.4 M-123.3,441.3c1.3,1.3,2.5,3,4.5,3.3c2.2-0.3,4.4-1,6.3-2.2c1.6-1.7,2.2-4,3.2-6
		C-114,438.1-118.6,439.7-123.3,441.3z"/>
</g>
<g id="_x23_8b8b8cff">
	<linearGradient id="SVGID_3_" gradientUnits="userSpaceOnUse" x1="-144.99" y1="428.43" x2="-144.99" y2="327.2">
		<stop  offset="0" style="stop-color:#606063"/>
		<stop  offset="0.5" style="stop-color:#9F9FA0"/>
	</linearGradient>
	<path class="st4" d="M-178.1,336.7c8-6.4,18.3-8.8,28.4-9.5c1.8,27.2,2.8,54.5,4.7,81.7c0.8-5,0.7-10,1.1-15
		c1.1-22.3,2.4-44.5,3.7-66.7c10,0.7,20.3,3.2,28.4,9.5c-2.2,20.4-6.6,40.5-11.7,60.3c-1.2,6.5-7.1,10.5-10.8,15.5c-0.1,3-0.4,6-1,9
		c-2.8,2.2-5.6,4.5-8.2,6.9c-0.9,0-1.9,0-2.8,0c-2.6-2.4-5.4-4.7-8.2-6.9c-0.6-3-0.8-6-1-9c-3.3-4.3-7.8-7.8-10-12.8
		C-171.2,379.1-175.8,358-178.1,336.7z"/>
	<path class="st2" d="M-197.1,368.8c3-6.2,7.6-11.5,12.3-16.4c4.8,16.2,9.6,32.4,14.3,48.6c1.2,5,5.2,8.5,7.9,12.6
		c-1.1,1.6-2.3,3.2-3.4,4.7c-8.1-1.4-16-4.5-24.3-4.5c13.5,6.2,27.6,11,41.3,16.9c0.6,4.1,1.4,8.1,2.1,12.1
		c-17.5-2.7-34.4-9-50-17.3c-1.9-0.8-2.7-2.8-3.5-4.5c-5.3-11.7-6.3-25.3-3.2-37.8c0.2-1.8,2.7-2.7,4-1.3c2.5,1.9,4.6,4.2,6.9,6.4
		c4.1,3.9,5.7,9.5,8.2,14.4c-0.9-4.9-1.5-9.8-2.9-14.6C-189.8,381.4-193,374.8-197.1,368.8z"/>
	<path class="st2" d="M-105.2,352.4c4.8,4.9,9.3,10.2,12.3,16.3c-4,6.1-7.3,12.6-9.8,19.5c-1.4,4.7-2,9.7-2.9,14.5
		c2.5-4.9,4-10.5,8.1-14.4c2.3-2.2,4.4-4.5,6.9-6.4c1.3-1.4,3.8-0.5,4,1.3c3.1,12.4,2.2,26-3.2,37.7c-0.8,1.8-1.6,3.7-3.5,4.6
		c-15.6,8.3-32.4,14.6-49.9,17.3c0.8-4,1.5-8.1,2.1-12.1c13.7-5.8,27.7-10.7,41.2-16.8c-8.3-0.1-16.2,3.1-24.3,4.5
		c-1.1-1.6-2.3-3.2-3.4-4.7c2.7-4,6.5-7.4,7.8-12.2C-114.9,385.1-110.1,368.8-105.2,352.4z"/>
	<linearGradient id="SVGID_4_" gradientUnits="userSpaceOnUse" x1="-178.18" y1="515.45" x2="-178.18" y2="430.31">
		<stop  offset="0" style="stop-color:#636366"/>
		<stop  offset="0.75" style="stop-color:#8E8E8F"/>
	</linearGradient>
	<path class="st5" d="M-205.9,442c1.8-4.3,4-8.7,7.7-11.7c1.1,0.5,2.3,1,3.4,1.5c0.8,3.6,0.5,8.9,4.9,10c7.4,2.7,15.2,4.4,22.8,6.5
		c-0.7,3.6-1.4,7.1-1.8,10.8c3.7-4,6.4-8.8,9.7-13.2c-0.7,2.9-1.5,5.8-2.3,8.7c7.3,19.4,9.3,40.2,11,60.7c-6.5-0.3-13-0.9-19.2-3
		c0.3-11-0.8-22.1-2.6-33c-1.3-6.4-2.7-13.1-6.5-18.5c1.7,9.1,2.8,18.3,2,27.5C-189.1,474.8-197.8,458.3-205.9,442z"/>
	<linearGradient id="SVGID_5_" gradientUnits="userSpaceOnUse" x1="-111.8" y1="515.44" x2="-111.8" y2="430.32">
		<stop  offset="0" style="stop-color:#636366"/>
		<stop  offset="0.75" style="stop-color:#8E8E8F"/>
	</linearGradient>
	<path class="st6" d="M-95.2,431.8c1.1-0.5,2.3-1,3.4-1.5c3.7,3,5.8,7.3,7.7,11.6c-8.1,16.3-16.7,32.8-29.1,46.3
		c-1-9.2,0.6-18.3,1.8-27.4c-4.1,6.8-5.7,14.6-6.9,22.3c-1.3,9.7-2.3,19.4-2,29.2c-6.2,2.1-12.7,2.8-19.2,3
		c1.8-20.5,3.7-41.3,11.1-60.7c-0.8-2.9-1.5-5.8-2.3-8.7c3.3,4.4,6,9.1,9.7,13.2c-0.4-3.6-1.1-7.2-1.8-10.8
		c7.9-2.2,15.9-3.9,23.5-6.9C-95.5,440-96,435.1-95.2,431.8z"/>
</g>
<linearGradient id="SVGID_6_" gradientUnits="userSpaceOnUse" x1="-144.99" y1="428.43" x2="-144.99" y2="327.2">
	<stop  offset="0" style="stop-color:#606063"/>
	<stop  offset="0.5" style="stop-color:#9F9FA0"/>
</linearGradient>
<path class="st7" d="M-178.1,336.7c8-6.4,18.3-8.8,28.4-9.5c1.8,27.2,2.8,54.5,4.7,81.7c0.8-5,0.7-10,1.1-15
	c1.1-22.3,2.4-44.5,3.7-66.7c10,0.7,20.3,3.2,28.4,9.5c-2.2,20.4-6.6,40.5-11.7,60.3c-1.2,6.5-7.1,10.5-10.8,15.5c-0.1,3-0.4,6-1,9
	c-2.8,2.2-5.6,4.5-8.2,6.9c-0.9,0-1.9,0-2.8,0c-2.6-2.4-5.4-4.7-8.2-6.9c-0.6-3-0.8-6-1-9c-3.3-4.3-7.8-7.8-10-12.8
	C-171.2,379.1-175.8,358-178.1,336.7z"/>
</svg>
