<?xml version="1.0" encoding="utf-8"?>
<!-- Generator: Adobe Illustrator 18.1.1, SVG Export Plug-In . SVG Version: 6.00 Build 0)  -->
<svg version="1.1" id="Layer_1" xmlns="http://www.w3.org/2000/svg" xmlns:xlink="http://www.w3.org/1999/xlink" x="0px" y="0px"
	 viewBox="0 0 312.9 313.3" enable-background="new 0 0 312.9 313.3" xml:space="preserve">
<g>
	<g>
		<circle fill="none" cx="142.7" cy="265.9" r="0.3"/>
		<path fill="none" d="M142.7,265.5c-0.2,0-0.4,0.2-0.4,0.4c0,0.2,0.2,0.4,0.4,0.4s0.4-0.2,0.4-0.4
			C143.1,265.6,142.9,265.5,142.7,265.5z M142.7,266c-0.1,0-0.1-0.1-0.1-0.1c0-0.1,0.1-0.1,0.1-0.1c0.1,0,0.1,0.1,0.1,0.1
			C142.8,265.9,142.7,266,142.7,266z"/>
	</g>
	<g>
		<circle fill="none" cx="144.3" cy="267.2" r="0.2"/>
		<path fill="none" d="M144.3,266.8c-0.2,0-0.3,0.1-0.3,0.3s0.1,0.3,0.3,0.3s0.3-0.1,0.3-0.3S144.4,266.8,144.3,266.8z M144.3,267.2
			C144.2,267.2,144.2,267.2,144.3,267.2C144.2,267.1,144.2,267.1,144.3,267.2C144.3,267.1,144.3,267.1,144.3,267.2
			C144.3,267.2,144.3,267.2,144.3,267.2z"/>
	</g>
	<g>
		<circle fill="none" cx="140.5" cy="265.2" r="0.3"/>
		<path fill="none" d="M140.5,264.7c-0.2,0-0.4,0.2-0.4,0.4c0,0.2,0.2,0.4,0.4,0.4c0.2,0,0.4-0.2,0.4-0.4
			C140.9,264.9,140.7,264.7,140.5,264.7z M140.5,265.3c-0.1,0-0.2-0.1-0.2-0.2c0-0.1,0.1-0.2,0.2-0.2c0.1,0,0.2,0.1,0.2,0.2
			C140.7,265.3,140.6,265.3,140.5,265.3z"/>
	</g>
	<g>
		<circle fill="none" cx="137.9" cy="265.2" r="0.4"/>
		<path fill="none" d="M137.9,264.7c-0.3,0-0.6,0.2-0.6,0.6c0,0.3,0.2,0.6,0.6,0.6c0.3,0,0.6-0.2,0.6-0.6
			C138.5,264.9,138.3,264.7,137.9,264.7z M137.9,265.5c-0.1,0-0.3-0.1-0.3-0.3c0-0.1,0.1-0.3,0.3-0.3c0.1,0,0.3,0.1,0.3,0.3
			C138.2,265.4,138.1,265.5,137.9,265.5z"/>
	</g>
	<g>
		<circle fill="none" cx="135" cy="266.3" r="0.5"/>
		<path fill="none" d="M135,265.7c-0.3,0-0.6,0.3-0.6,0.6c0,0.3,0.3,0.6,0.6,0.6s0.6-0.3,0.6-0.6C135.6,266,135.4,265.7,135,265.7z
			 M135,266.7c-0.2,0-0.3-0.2-0.3-0.3c0-0.2,0.2-0.3,0.3-0.3s0.3,0.2,0.3,0.3C135.4,266.5,135.2,266.7,135,266.7z"/>
	</g>
	<g>
		<circle fill="none" cx="132.5" cy="269.1" r="0.5"/>
		<path fill="none" d="M132.5,268.5c-0.4,0-0.7,0.3-0.7,0.7s0.3,0.7,0.7,0.7c0.4,0,0.7-0.3,0.7-0.7S132.9,268.5,132.5,268.5z
			 M132.5,269.5c-0.2,0-0.4-0.2-0.4-0.4s0.2-0.4,0.4-0.4s0.4,0.2,0.4,0.4S132.7,269.5,132.5,269.5z"/>
	</g>
	<g>
		<circle fill="none" cx="132.1" cy="273.5" r="0.7"/>
		<path fill="none" d="M132.1,272.7c-0.4,0-0.8,0.4-0.8,0.8c0,0.4,0.4,0.8,0.8,0.8c0.4,0,0.8-0.4,0.8-0.8
			C132.9,273.1,132.6,272.7,132.1,272.7z M131.6,273.5c0-0.3,0.2-0.5,0.5-0.5c0.3,0,0.5,0.2,0.5,0.5c0,0.3-0.2,0.5-0.5,0.5
			C131.8,274,131.6,273.8,131.6,273.5z"/>
	</g>
	<g>
		<circle fill="none" cx="133.9" cy="277.8" r="0.9"/>
		<path fill="none" d="M133.9,276.8c-0.6,0-1,0.5-1,1c0,0.6,0.5,1,1,1c0.6,0,1-0.5,1-1C134.9,277.3,134.5,276.8,133.9,276.8z
			 M133.9,278.6c-0.4,0-0.8-0.3-0.8-0.8c0-0.4,0.3-0.8,0.8-0.8c0.4,0,0.8,0.3,0.8,0.8C134.6,278.2,134.3,278.6,133.9,278.6z"/>
	</g>
	<g>
		<path fill="none" d="M138.7,281.9c0.2,0.3,0.3,0.6,0.3,1c0,0.5-0.2,1-0.6,1.3h-0.1L138.7,281.9z"/>
		<path fill="none" d="M152.5,269.7l-2.3,14.5h-3.5l0.9-5.8H143l-0.9,5.8h-2.9c0.3-0.4,0.4-0.8,0.4-1.3c0-0.7-0.3-1.3-0.8-1.7
			l1.8-11.5h3.8l-0.9,5.6h4.6l0.9-5.6H152.5z"/>
		<polygon fill="none" points="158.9,281 154.9,281 156.7,269.7 153.2,269.7 150.9,284.2 158.4,284.2 		"/>
		<g>
			<polygon fill="none" points="167.4,269.7 158,269.7 157.5,272.9 160.7,272.9 159.4,281 159.4,281 158.9,284.2 158.9,284.2 
				158.9,284.2 162.6,284.2 164.4,272.9 166.9,272.9 			"/>
			<polygon fill="none" points="177.4,269.7 172.5,278.5 170.4,269.7 168,269.7 167.9,269.7 167.3,273.5 170.1,284.2 173.1,284.2 
				181.5,269.7 			"/>
		</g>
	</g>
	<path fill="none" d="M138.7,281.9c-0.3-0.4-0.8-0.7-1.4-0.7c-0.9,0-1.7,0.8-1.7,1.7c0,0.9,0.8,1.7,1.7,1.7c0.4,0,0.8-0.2,1.1-0.4
		c0.4-0.3,0.6-0.8,0.6-1.3C139,282.6,138.9,282.2,138.7,281.9z M137.3,283.6c-0.3,0-0.6-0.3-0.6-0.6s0.3-0.6,0.6-0.6
		s0.6,0.3,0.6,0.6S137.6,283.6,137.3,283.6z"/>
	<path fill="none" d="M139,282.9c0,0.5-0.2,1-0.6,1.3c-0.3,0.3-0.7,0.4-1.1,0.4c-0.9,0-1.7-0.8-1.7-1.7c0-0.9,0.8-1.7,1.7-1.7
		c0.6,0,1.1,0.3,1.4,0.7C138.9,282.2,139,282.6,139,282.9z"/>
</g>
<g>
	<linearGradient id="SVGID_1_" gradientUnits="userSpaceOnUse" x1="156.508" y1="62.2927" x2="156.508" y2="278.5241">
		<stop  offset="0" style="stop-color:#873E90"/>
		<stop  offset="1" style="stop-color:#653969"/>
	</linearGradient>
	<path fill="url(#SVGID_1_)" d="M309.5,148.2l-8.8-8.8c-4.7-4.7-12.3-4.7-17,0L156.5,266.7L29.3,139.4c-4.7-4.7-12.3-4.7-17,0
		l-8.8,8.8c-4.7,4.7-4.7,12.3,0,17l134.6,134.6c0.3,0.4,0.6,0.8,1,1.2l8.8,8.8c2.4,2.4,5.5,3.5,8.6,3.5c3.1,0,6.2-1.1,8.6-3.5
		l8.8-8.8c0.4-0.4,0.7-0.8,1-1.2l134.6-134.6C314.2,160.5,314.2,152.9,309.5,148.2z"/>
	<linearGradient id="SVGID_2_" gradientUnits="userSpaceOnUse" x1="156.423" y1="62.2927" x2="156.423" y2="278.5241">
		<stop  offset="0" style="stop-color:#873E90"/>
		<stop  offset="1" style="stop-color:#653969"/>
	</linearGradient>
	<path fill="url(#SVGID_2_)" d="M34.8,134.3l113.2,113.2c1.2,1.2,2.5,2.1,4,2.6c4.3,1.8,9.5,0.9,13-2.6l113.2-113.2
		c4.7-4.7,4.7-12.3,0-17l-3.8-3.8c-4.7-4.7-12.3-4.7-17,0L156.4,214.5l-88.9-88.9L168.8,24.3c4.7-4.7,4.7-12.3,0-17l-3.8-3.8
		c-4.7-4.7-12.3-4.7-17,0L34.9,116.7c-1.6,1.6-2.7,3.6-3.2,5.7C30.5,126.5,31.5,131.1,34.8,134.3z"/>
</g>
</svg>
