<?xml version="1.0" encoding="utf-8"?>
<!-- Generator: Adobe Illustrator 21.0.0, SVG Export Plug-In . SVG Version: 6.00 Build 0)  -->
<svg version="1.1" id="Layer_1" xmlns="http://www.w3.org/2000/svg" xmlns:xlink="http://www.w3.org/1999/xlink" x="0px" y="0px"
	 viewBox="0 0 1064.6 1209.2" style="enable-background:new 0 0 1064.6 1209.2;" xml:space="preserve">
<style type="text/css">
	.st0{fill:#003E92;stroke:#003E92;stroke-width:9.375000e-02;}
</style>
<path class="st0" d="M180.4,0.1c117.3,231.7,234.6,463.4,351.9,695C649.6,463.4,767,231.7,884.2,0c-28.6,74.9-57.8,149.5-86.6,224.3
	c37.6,0,75.1,0,112.7,0c-22.8-27-48.5-51.5-76.4-73c0.4-1.2,0.9-2.3,1.3-3.5c80.8,55.9,145.7,134.5,185,224.5
	c33.1,75.4,48,158.6,43.7,240.8C1060,690,1039.2,766,1003.1,834c-34.1,64.5-81.5,121.8-138.5,167.3
	c-67.5,54.2-148.5,91.5-233.7,107.4c11.5-29.5,23-59,34.6-88.5c72.7-20.3,140.6-57.6,196.8-108c53.5-47.9,96.4-107.5,124.7-173.5
	c33.2-76.9,45.9-162.3,37.4-245.5c-9.7-98-49.8-192.6-113.4-267.8C784.8,553.3,658.6,881.2,532.3,1209
	C406.2,881.8,280.2,554.5,154.1,227.1c-0.4-1.3-1.1-1.4-1.9-0.3C108.4,279.3,75.6,341,56.7,406.7c-26,90.5-25.6,188.4,1.4,278.6
	c20.9,70.2,57.8,135.6,107,189.9c62.2,69.1,144.3,120.1,233.9,145c11.6,29.5,23,59,34.6,88.5c-79.8-14.9-155.9-48.5-220.7-97.3
	c-47.3-35.5-88.7-79-121.8-128.1C50,822.6,21.6,753.3,8.6,681.2c-15.4-84.9-10-173.5,16-255.8c19.7-62.6,51.3-121.5,92.4-172.7
	c32.2-40.1,70.2-75.6,112.5-104.9c0.4,1.2,0.9,2.3,1.3,3.5c-27.9,21.6-53.6,46.1-76.4,73c37.6,0,75.1,0,112.7,0
	c-27.9-72.1-55.8-144.1-83.6-216.2C182.3,5.5,181.3,2.8,180.4,0.1 M173.5,243.1c41.1,85.8,82.4,171.4,123.6,257.1
	c36,75,72.3,149.9,108.1,225.1c-0.3-1.7-0.7-3.4-1.3-5c-31.9-94.7-65.6-188.9-104.9-280.9c-11.1-35.8-23.6-71.3-40.1-104.9
	c-9.6-19.3-20.4-38.1-33.9-55c-8.6-10.7-18.3-20.7-29.9-28.2C188.5,247.2,181.3,243.8,173.5,243.1 M875.9,247.7
	c-13.7,6.9-24.7,17.9-34.5,29.5c-16.5,20.2-29.2,43.2-40.2,66.8c-14.4,30.9-25.5,63.1-35.6,95.6c-14.3,33.5-27.9,67.2-40.9,101.2
	c-23.2,61-45.1,122.6-65.6,184.6c20.4-42.1,40.6-84.4,60.9-126.5c57-118.6,114.1-237.1,171-355.7
	C885.8,243.6,880.7,245.4,875.9,247.7z"/>
<path class="st0" d="M346.8,292.6c11.2,0.8,22.1,3.7,33.1,6.1c39.1,9.5,77.8,20.6,116.5,31.8c-9.2,12.4-19.4,24.7-32.7,32.9
	c-5.2,2.8-11.3,6-17.3,3.9c-17.6-4.8-33.5-14.4-48-25.2C379.3,327.6,362.1,310.9,346.8,292.6z"/>
<path class="st0" d="M684.7,298.7c11-2.5,21.9-5.4,33.1-6.2c-18.9,22.4-40.5,43-65.2,58.9c-11.8,7.4-24.5,13.8-38.3,16.6
	c-9.1-0.8-16.9-6.5-23.7-12.2c-8.5-7.5-15.8-16.2-22.4-25.3C606.9,319.3,645.6,308.2,684.7,298.7z"/>
</svg>
