<?xml version="1.0" encoding="utf-8"?>
<!-- Generator: Adobe Illustrator 19.0.0, SVG Export Plug-In . SVG Version: 6.00 Build 0)  -->
<svg version="1.1" id="Layer_1" xmlns="http://www.w3.org/2000/svg" xmlns:xlink="http://www.w3.org/1999/xlink" x="0px" y="0px"
	 viewBox="30.5 251.5 543.3 338.9" style="enable-background:new 30.5 251.5 543.3 338.9;" xml:space="preserve">
<g id="_x23_ffffffff">
	<path d="M30.5,590.4c0-113,0.1-225.9,0-338.9c121.4,0,242.8,0,364.2,0c-7.5,7.3-14.8,14.8-22.2,22.1c-106.6,0-213.2,0-319.8,0
		c0,98.2,0,196.4,0,294.6c166.3,0,332.6,0,498.9,0c-0.2-77.1,0-154.2-0.1-231.3c7.4-7.4,14.8-14.7,22.1-22.2
		c0.3,91.9,0,183.8,0.2,275.7C392.7,590.4,211.6,590.4,30.5,590.4z"/>
	<path d="M97.8,320.6c9.3-4.9,20-5.5,30.2-5.8c17.3,0,34.7,0,52,0c9.2,0.4,18.7,0.9,27.2,4.7c5.9,2.6,10.4,8,11.7,14.4
		c1.2,5.6,1.4,11.4,1.3,17.2c-11.3,0-22.6,0-33.8,0c-0.3-3.3-0.4-7.3-3.4-9.3c-3-1.7-6.6-1.8-10-2c-13.7,0-27.3,0-41,0
		c-3.3,0.1-6.8,0.6-9.5,2.7c-3.4,2.6-3.5,8-1.2,11.4c2.8,2.7,7.1,2.9,10.7,3.4c15,1.1,30,0.2,45,0.9c10.3,0.3,20.9,0.5,30.8,3.6
		c6.1,1.9,11.8,6,14.1,12.1c2.9,7.5,2.8,15.8,2.7,23.8c-0.3,7.4-1.3,15.6-6.8,21.2c-4.7,4.5-11.2,6.3-17.4,7.4
		c-14.4,2-28.9,1.4-43.4,1.6c-13.3-0.2-26.7,0.3-40-0.3c-9-0.8-19.1-2.1-25.5-9.1c-6.6-7.7-5.7-18.4-5.8-27.9c11.3,0,22.6,0,34,0
		c0.1,3.5,0.2,7.4,2.8,10.1c2.9,2.3,6.9,2.3,10.4,2.4c15,0,30.1,0.1,45.1,0c4.1-0.3,9.9-0.7,11.4-5.4c0.9-3.7,1.1-9-2.8-11
		c-4.6-2.1-9.7-2-14.7-2.4c-21.3-1.3-42.7,0.9-63.9-2.5c-7.9-1.2-17-4.6-19.9-12.9c-3.1-9.6-2.5-19.9-1.7-29.8
		C86.9,331.4,91.1,324.1,97.8,320.6z"/>
	<path d="M235,316.1c13.3,0.1,26.7,0,40,0c1.4-0.2,1.9,1.2,2.7,2c11.7,14.4,23.6,28.6,35.3,43c12.3-15,24.7-30,37.1-45
		c13.7,0,27.4,0,41.1,0c-20.4,23.9-40.7,48-61.1,71.9c0.1,12.8,0,25.6,0.1,38.4c-11.3,0.1-22.7,0-34,0c0.2-12.8,0-25.5,0.1-38.3
		C275.8,364.2,255.4,340.1,235,316.1z"/>
	<path d="M403.3,316.1c38.4,0,76.9,0,115.3,0c-0.1,8.9,0,17.7,0,26.6c-27.1,0-54.2,0-81.3,0c0,6.8,0,13.7,0,20.5
		c25.8,0,51.6,0,77.5,0c-0.1,8.5-0.1,17.1,0,25.6c-25.8,0-51.6,0-77.5,0c0,12.6,0,25.1,0,37.7c-11.3,0-22.7,0-34,0
		C403.4,389.7,403.4,352.9,403.3,316.1z"/>
	<path d="M87,476.9c3.9-5.3,11.1-6.3,17.2-6.5c9.9-0.1,19.8-0.1,29.7,0c5.2,0.3,10.9,1,14.9,4.7c3.6,3.7,3.5,9.3,3.6,14.1
		c-5.3,0-10.5-0.1-15.8,0c-0.5-1.6-0.5-3.6-2-4.7c-1.9-1.3-4.3-1.2-6.5-1.3c-6.7,0.1-13.4-0.1-20.1,0.1c-2.6,0.1-5.6,1.1-6.7,3.8
		c-1.5,3.8-0.8,7.9-0.9,11.9c0.1,3.4-0.4,7.1,1.6,10.1c1.8,2.5,5.1,2.6,7.9,2.7c6.4,0,12.8,0,19.2,0c2.7,0,6.2-0.8,7-3.8
		c0.1-0.9,0.3-2.5,0.4-3.4c-6.8,0-13.6,0-20.4,0c0.1-3.6,0.1-7.3,0-10.9c12.2-0.1,24.3,0,36.4,0c-0.2,6.5,0.3,13-0.3,19.5
		c-0.3,4.7-3.5,9-8.1,10.1c-8.2,2.1-16.8,1.1-25.2,1.4c-8.1-0.2-16.3,0.8-24.2-1.4c-4.3-1.2-8.1-4.2-9.7-8.4
		c-2.3-6-1.3-12.5-1.5-18.7C83.7,489.5,83,482.4,87,476.9z"/>
	<path d="M454.3,475.1c4.6-4,10.9-4.7,16.7-4.8c10,0,19.9-0.1,29.9,0.1c5,0.4,10.8,1.3,14.2,5.4c3.1,3.7,2.6,8.8,2.8,13.3
		c-5.2,0-10.4,0-15.7,0c-0.4-2.4-1.2-5.3-4.1-5.6c-6.7-0.8-13.5-0.1-20.2-0.4c-3.7,0.1-8.4-0.4-10.6,3.2c-1.7,3.2-1.1,7.1-1.3,10.6
		c0.2,3.9-0.5,8,1.3,11.6c1.5,2.6,4.8,3.1,7.6,3.1c6.4,0,12.7,0,19.1,0c2.3-0.1,5.1-0.1,6.8-2c1.3-1.4,1-3.5,1.5-5.2
		c-6.8-0.1-13.6,0-20.5,0c0-3.7,0-7.3,0-11c12.2,0,24.3,0,36.5,0c-0.2,6.5,0.3,13.1-0.3,19.6c-0.3,4.8-3.8,9.2-8.6,10.1
		c-8.7,2-17.6,1-26.4,1.2c-8.6-0.3-17.8,1.2-25.8-2.8c-5.1-2.5-7.5-8.2-7.7-13.6c-0.2-6.3,0-12.7-0.1-19.1
		C449.4,484,450.5,478.6,454.3,475.1z"/>
	<path d="M185.6,471.1c7.1-0.2,14.2,0,21.3-0.1c9.7,17.6,19.4,35.2,29,52.8c-6.1-0.1-12.1,0-18.2-0.1c-1.6-3.1-3.3-6.2-5-9.2
		c-10.9,0-21.8,0-32.7,0c-1.6,3.1-3.2,6.1-4.7,9.2c-6.1,0-12.2,0-18.3,0C166.7,506.2,176.1,488.7,185.6,471.1 M186,503.1
		c6.9,0,13.8,0,20.8,0c-3.6-6.6-7-13.2-10.5-19.8C192.9,489.9,189.5,496.5,186,503.1z"/>
	<path d="M241.6,471c8.3,0,16.6,0,25,0c6.1,11.3,12.2,22.6,18.3,33.9c5.9-11.4,12.1-22.6,18.1-33.9c8.4,0,16.7-0.1,25.1,0
		c-0.3,17.5-0.3,35.1,0,52.6c-5.3,0.1-10.6,0-15.9,0.1c0-12.7,0-25.3,0-38c-7.3,12.5-14.2,25.3-21.4,37.9c-4.1,0-8.2,0-12.3,0
		c-7.1-12.6-14-25.3-21.2-37.8c0.1,12.6,0,25.3,0.1,37.9c-5.3,0-10.6,0-15.9,0C241.6,506.2,241.6,488.6,241.6,471z"/>
	<path d="M339.7,471c5.5,0,10.9,0,16.4,0c0,17.5,0,35.1,0,52.7c-5.5,0-10.9,0-16.4,0C339.7,506.2,339.8,488.6,339.7,471z"/>
	<path d="M367.7,471c8.4,0,16.8,0,25.2,0c10.2,12.8,20.4,25.7,30.6,38.5c-0.2-12.8,0-25.7-0.1-38.5c5.4,0,10.8,0,16.3,0
		c-0.1,17.6,0,35.1,0,52.7c-8.4,0-16.8,0-25.2,0c-10.3-12.8-20.3-25.8-30.7-38.5c0.6,12.8,0.1,25.6,0.3,38.5c-5.5,0.1-10.9,0-16.4,0
		C367.8,506.2,367.8,488.6,367.7,471z"/>
</g>
</svg>
