<?xml version="1.0" encoding="utf-8"?>
<!-- Generator: Adobe Illustrator 19.0.0, SVG Export Plug-In . SVG Version: 6.00 Build 0)  -->
<svg version="1.1" id="Layer_1" xmlns="http://www.w3.org/2000/svg" xmlns:xlink="http://www.w3.org/1999/xlink" x="0px" y="0px"
	 viewBox="-114.7 323.6 235.9 195.7" style="enable-background:new -114.7 323.6 235.9 195.7;" xml:space="preserve">
<style type="text/css">
	.st0{fill:#EF4136;}
</style>
<g id="_x23_071219ff">
</g>
<g id="_x23_ef4136ff">
	<path class="st0" d="M-47.8,332c1.5-2.9,2.3-6.3,4.9-8.4c0.3,20.1,0.2,40.3,0,60.4c-3.7,9.2-9,17.7-12.7,26.9
		c1.5,5.1,3.7,10,5.7,14.9c3,7.8,6,15.7,9.3,23.4c0.3-4.4,0.2-8.8,0.2-13.3c0-37.3,0-74.6,0-111.9c12.9,0,25.8,0,38.7,0
		c10.1,37.5,20.1,75,30.4,112.5c0.2-37.3,0.2-74.7,0-112c1.7-0.5,3.5-0.7,5.3-0.7c14.3,0.2,28.7-0.1,43,0.2
		c11.7,0.4,24.3,2.6,32.9,11.1c8.4,8.6,11,21.2,10.7,32.9c-0.3,10.7,0.9,21.5-1.3,32c-2.2,10.1-8.5,19.8-18.2,24.1
		c9.7,4.2,16.3,13.6,18.3,23.8c2.6,13.2,1.5,26.8,1.8,40.2c0.5,3.1-2.2,5.1-4.1,7c-8,8-16,16-24,24c-3.2-8.7-2.5-18-2.6-27.1
		c0-10,0.1-20-0.1-30c-0.3-6.6-1.5-14-6.9-18.3c-6.1-4.5-14.2-3.2-21.3-3.4c0-9.3,0-18.7,0-28c7.8-0.2,17.2,1.4,23.3-4.8
		c6.3-7.2,4.6-17.6,4.9-26.4c-0.3-8.3,1.3-17.9-4.4-24.7c-3.6-4.4-9.7-4.2-14.8-4.1c-3.8,0.3-7.7-0.9-11.5,0.1
		c0.2,55.7,0.1,111.4,0.1,167.1c-11.3,0-22.7-0.1-34,0c-12.8-46.5-25.1-93.1-37.9-139.6c-0.2,1.7-0.3,3.5-0.3,5.2
		c0,44.8,0.1,89.6,0,134.4c-10.8,0-21.5,0-32.3,0c-9.7-25.9-19.8-51.6-29.6-77.5c-3.5,5.8-6.8,11.9-9.6,18
		c-0.4,19.8,0.2,39.7-0.3,59.6c-10.1-0.1-20.1,0-30.2,0c-0.2-53.8,0-107.6-0.1-161.4c0.1-1.5-0.3-3.4,1.2-4.4
		c9.8-9.5,19.2-19.5,29.2-28.9c0.2,27.7-0.2,55.4,0.2,83.1c2.6-3.6,4.2-7.8,6.1-11.8C-67.9,374.6-57.9,353.3-47.8,332z"/>
</g>
</svg>
