<?xml version="1.0" encoding="utf-8"?>
<!-- Generator: Adobe Illustrator 21.0.0, SVG Export Plug-In . SVG Version: 6.00 Build 0)  -->
<svg version="1.1" id="Layer_1" xmlns="http://www.w3.org/2000/svg" xmlns:xlink="http://www.w3.org/1999/xlink" x="0px" y="0px"
	 viewBox="0 0 940 636" style="enable-background:new 0 0 940 636;" xml:space="preserve">
<style type="text/css">
	.st0{fill:#2B2523;}
	.st1{fill:#FFFFFF;}
	.st2{fill:url(#SVGID_1_);}
	.st3{fill:url(#SVGID_2_);}
	.st4{fill:url(#SVGID_3_);}
	.st5{fill:url(#SVGID_4_);}
</style>
<path class="st0" d="M494.11,7.15c4.75-3.8,10.59-7.34,16.94-6.38c6.51,1,11.11,6.31,14.73,11.39
	c54.68,76.03,109.79,151.76,163.77,228.28c45.95,65.22,91.03,131.04,136.55,196.55c32.55,47.25,65.94,93.9,99.16,140.68
	c5.2,7.6,11.31,14.72,14.74,23.39v3.64c-2.89,8.26-10.18,14-18.12,17.08c-12.96,5.04-24.99,13.51-39.28,14.22h-2.89
	c-27.38-4.85-54.61-10.5-81.87-15.91c-77.3-15.56-154.63-31.01-231.92-46.63c-6.33-1.23-12.94-4.56-15.55-10.8
	c-2.37-5.4-0.94-11.61,1.78-16.6c19.22-36.44,38.39-72.92,57.63-109.35c1.04-2.06,1.81-4.23,2.55-6.4
	c-42.11-11.6-84.17-23.4-126.34-34.8c0.55,1.58,1.09,3.19,1.88,4.68c21.26,36.07,42.55,72.12,63.94,108.11
	c3.79,6.01,5.83,13.69,3.08,20.52c-2.88,6.87-6.76,13.26-10.13,19.9c-2.83,5.26-5.27,11.21-10.46,14.61
	c-4.83,3.2-10.96,2.66-16.36,1.58C352.07,531.42,186.17,498.1,20.27,464.75c-8.75-1.41-17.54-6.52-20.27-15.44v-5.35
	c3.04-10.48,6.28-20.91,8.59-31.58c1.43-6.51,5.21-12.36,10.42-16.49c54.71-45.56,109.32-91.25,163.98-136.87
	c59.53-49.52,118.98-99.14,179.5-147.44C406.24,76.62,450.27,42.01,494.11,7.15 M484.78,36.82
	c-45.35,35.88-90.91,71.5-136.08,107.61c12.52,5.41,25.49,9.68,38.26,14.45c31.51,11.48,63.03,22.94,94.46,34.64
	c3.46,1.22,6.84,2.8,10.49,3.43c3.52,0.62,6.9-1.33,9.12-3.93c7.45-8.44,15.18-16.62,22.86-24.85
	c11.3,15.66,22.37,31.49,33.92,46.97c2.51,3.47,5.06,7.02,8.56,9.58c4.26,3.34,9.62,4.61,14.57,6.56
	c33.39,12.19,67.03,23.66,100.59,35.36c1.24,0.21,3.92,1.85,3.95-0.6c-2.21-4.94-5.58-9.23-8.7-13.61
	c-54.62-76.15-109.22-152.31-163.87-228.44c-1.56-2.05-3.84-5.5-6.81-3.56C498.63,25.39,491.93,31.42,484.78,36.82 M28.39,411.11
	c0.48,1.29,1.18,2.64,2.74,2.71c168.85,35.86,337.67,71.91,506.52,107.75c-2.76-6.69-6.75-12.75-10.34-19
	c-26.34-44.89-52.63-89.81-79.25-134.53c-2.27-3.66-6.01-6.25-10.06-7.55c-22.95-6.59-46.11-12.37-69.16-18.57
	c8.47-10.89,16.54-22.11,25.49-32.62c2.88-3.43,6.56-6.74,7.17-11.43c0.53-4-1.46-7.72-3.36-11.07
	c-23.98-41.36-47.12-83.2-71.21-124.49C227.38,245.2,127.95,328.22,28.39,411.11 M406.62,330.79
	c88.39,24.78,176.69,49.86,265.08,74.58c0.34-0.6,1.02-1.79,1.36-2.38C625.53,333.2,578,263.41,530.51,193.59
	C489.18,239.29,447.91,285.05,406.62,330.79 M368.9,199.95c16.99,29.92,34,59.83,51.01,89.73c16.28-18,32.51-36.03,48.77-54.03
	C435.43,223.73,402.17,211.84,368.9,199.95 M614.83,286.02c1.07,2.19,2.58,4.12,3.94,6.13c13.19,19.32,26.34,38.66,39.54,57.97
	c5.25-13.04,10.65-26.04,15.61-39.2c1.26-2.51-0.13-6.2-2.94-6.92c-18.23-6.43-36.49-12.82-54.86-18.83
	C615.8,285.38,615.15,285.8,614.83,286.02 M711.67,306.49c-1.47,2.24-3,4.47-4.01,6.97c-8.86,21.59-17.74,43.17-26.8,64.68
	c-1.97,4.48-1.45,9.81,1.18,13.91c7.76,13,15.26,26.15,22.67,39.34c-12.93-2.94-25.79-6.17-38.67-9.31
	c-2.61-0.59-5.43-1.28-7.98-0.1c-2.51,1.19-3.64,3.92-4.86,6.24c-11.03,22.57-22.29,45.02-33.53,67.48
	c-6.33,13.13-13.56,25.85-19.14,39.32c105.37,22.09,210.81,43.9,316.18,66.01c0.41-0.97,0.82-1.93,1.25-2.88
	C849.2,500.93,780.52,403.64,711.67,306.49z"/>
<path class="st1" d="M484.78,36.82c7.15-5.4,13.85-11.43,21.32-16.39c2.97-1.94,5.25,1.51,6.81,3.56
	c54.65,76.13,109.25,152.29,163.87,228.44c3.12,4.38,6.49,8.67,8.7,13.61c-0.03,2.45-2.71,0.81-3.95,0.6
	c-33.56-11.7-67.2-23.17-100.59-35.36c-4.95-1.95-10.31-3.22-14.57-6.56c-3.5-2.56-6.05-6.11-8.56-9.58
	c-11.55-15.48-22.62-31.31-33.92-46.97c-7.68,8.23-15.41,16.41-22.86,24.85c-2.22,2.6-5.6,4.55-9.12,3.93
	c-3.65-0.63-7.03-2.21-10.49-3.43c-31.43-11.7-62.95-23.16-94.46-34.64c-12.77-4.77-25.74-9.04-38.26-14.45
	C393.87,108.32,439.43,72.7,484.78,36.82 M435.92,97.72c-0.83,0.7-1.57,1.49-2.21,2.38c-16.99,12.9-33.83,26.03-50.67,39.15
	c37.51,13.3,75.03,26.54,112.58,39.71c10.61-10.65,21.18-21.34,31.79-31.99c14.22,20.4,27.8,41.24,41.86,61.75
	c1.15,1.45,3.18,1.66,4.81,2.35c23.5,7.89,46.89,16.11,70.43,23.89c-20.02-29.32-41.02-57.97-61.27-87.14
	c-1.58-2.99-3.58-5.73-5.57-8.45c-20.82-29.55-41.72-59.04-62.54-88.59c-2.25-3.06-4.11-6.47-6.96-9.03
	C484.05,60.35,460.03,79.1,435.92,97.72z"/>
<linearGradient id="SVGID_1_" gradientUnits="userSpaceOnUse" x1="510.5688" y1="199.0706" x2="549.7383" y2="52.8882">
	<stop  offset="0" style="stop-color:#C0AFA7"/>
	<stop  offset="1" style="stop-color:#EAE6D7"/>
</linearGradient>
<path class="st2" d="M435.92,97.72c24.11-18.62,48.13-37.37,72.25-55.97c2.85,2.56,4.71,5.97,6.96,9.03
	c20.82,29.55,41.72,59.04,62.54,88.59c1.99,2.72,3.99,5.46,5.57,8.45c-13.92-4.05-27.58-8.91-41.38-13.36
	c-11.99-3.44-23.71-7.72-35.57-11.58c-17.31-5.06-34.2-11.42-51.5-16.5c-7.06-1.98-13.74-5.38-21.08-6.28
	C434.35,99.21,435.09,98.42,435.92,97.72z M383.04,139.25c16.84-13.12,33.68-26.25,50.67-39.15c7.34,0.9,14.02,4.3,21.08,6.28
	c17.3,5.08,34.19,11.44,51.5,16.5c11.86,3.86,23.58,8.14,35.57,11.58c13.8,4.45,27.46,9.31,41.38,13.36
	c20.25,29.17,41.25,57.82,61.27,87.14c-23.54-7.78-46.93-16-70.43-23.89c-1.63-0.69-3.66-0.9-4.81-2.35
	c-14.06-20.51-27.64-41.35-41.86-61.75c-10.61,10.65-21.18,21.34-31.79,31.99C458.07,165.79,420.55,152.55,383.04,139.25z"/>
<path class="st1" d="M28.39,411.11c99.56-82.89,198.99-165.91,298.54-248.8c24.09,41.29,47.23,83.13,71.21,124.49
	c1.9,3.35,3.89,7.07,3.36,11.07c-0.61,4.69-4.29,8-7.17,11.43c-8.95,10.51-17.02,21.73-25.49,32.62
	c23.05,6.2,46.21,11.98,69.16,18.57c4.05,1.3,7.79,3.89,10.06,7.55c26.62,44.72,52.91,89.64,79.25,134.53
	c3.59,6.25,7.58,12.31,10.34,19C368.8,485.73,199.98,449.68,31.13,413.82C29.57,413.75,28.87,412.4,28.39,411.11 M315.37,196.39
	c-29.85,24.84-59.53,49.9-89.36,74.77l0.27,0.41c-29.78,24.77-59.38,49.75-89.06,74.64c-22.07,18.63-44.35,37.02-66.25,55.84
	c47.98,10.57,96.04,20.78,144.06,31.2c43.2,9.23,86.33,18.81,129.59,27.75c0.68,1.18,2.33,0.88,3.45,1.34
	c44.3,9.41,88.55,19.07,132.85,28.52c5.74,1.14,11.39,2.72,17.22,3.36c-2.89-6.43-6.36-12.57-9.49-18.89
	c-16.66-32.33-33.11-64.79-49.87-97.07c-32.9-9.37-65.8-18.75-98.77-27.87c0.38-1.01,0.75-2.03,1.4-2.9
	c13.92-18.14,27.74-36.36,41.58-54.57c-9.38-17.81-19.52-35.22-29.15-52.91c-9.65-17.12-18.87-34.49-28.78-51.46
	C321.66,190.95,318.57,193.73,315.37,196.39z"/>
<path class="st1" d="M406.62,330.79c41.29-45.74,82.56-91.5,123.89-137.2c47.49,69.82,95.02,139.61,142.55,209.4
	c-0.34,0.59-1.02,1.78-1.36,2.38C583.31,380.65,495.01,355.57,406.62,330.79 M461.14,291.4l0.29,0.44
	c-9.6,10.62-19.1,21.34-28.58,32.07c19.21,5.67,38.5,11.07,57.77,16.53l0.05,0.39c20.43,5.77,40.74,12.03,61.3,17.27
	c-3.04-13.2-7.54-26.12-13.89-38.1c-4.12-7.77-9.43-15.16-16.68-20.29c-4.23-2.88-7.3-7.12-9.43-11.72
	c-6.28-13.25-7.83-28.02-9.74-42.37C488.18,260.55,474.96,276.26,461.14,291.4z"/>
<linearGradient id="SVGID_2_" gradientUnits="userSpaceOnUse" x1="129.8588" y1="504.0484" x2="416.0176" y2="338.8345">
	<stop  offset="0.2" style="stop-color:#C0AFA7"/>
	<stop  offset="1" style="stop-color:#EAE6D7"/>
</linearGradient>
<path class="st3" d="M315.37,196.39c3.2-2.66,6.29-5.44,9.69-7.84c9.91,16.97,19.13,34.34,28.78,51.46
	c9.63,17.69,19.77,35.1,29.15,52.91c-13.84,18.21-27.66,36.43-41.58,54.57c-0.65,0.87-1.02,1.89-1.4,2.9
	c32.97,9.12,65.87,18.5,98.77,27.87c16.76,32.28,33.21,64.74,49.87,97.07c3.13,6.32,6.6,12.46,9.49,18.89
	c-5.83-0.64-11.48-2.22-17.22-3.36c-44.3-9.45-88.55-19.11-132.85-28.52c-1.12-0.46-2.77-0.16-3.45-1.34
	c-8.29-14.11-17.3-27.78-25.83-41.75c-30.76-49.27-61.69-98.44-92.51-147.68l-0.27-0.41C255.84,246.29,285.52,221.23,315.37,196.39z
	 M137.22,346.21c29.68-24.89,59.28-49.87,89.06-74.64c30.82,49.24,61.75,98.41,92.51,147.68c8.53,13.97,17.54,27.64,25.83,41.75
	c-43.26-8.94-86.39-18.52-129.59-27.75c-48.02-10.42-96.08-20.63-144.06-31.2C92.87,383.23,115.15,364.84,137.22,346.21z"/>
<linearGradient id="SVGID_3_" gradientUnits="userSpaceOnUse" x1="446.8646" y1="348.1839" x2="532.8002" y2="298.569">
	<stop  offset="0" style="stop-color:#C0AFA7"/>
	<stop  offset="1" style="stop-color:#EAE6D7"/>
</linearGradient>
<path class="st4" d="M461.14,291.4c13.82-15.14,27.04-30.85,41.09-45.78c1.91,14.35,3.46,29.12,9.74,42.37
	c2.13,4.6,5.2,8.84,9.43,11.72c7.25,5.13,12.56,12.52,16.68,20.29c6.35,11.98,10.85,24.9,13.89,38.1
	c-20.56-5.24-40.87-11.5-61.3-17.27l-0.05-0.39c-0.15-1.6-0.47-3.22-1.42-4.54c-9.48-14.55-18.3-29.51-27.77-44.06L461.14,291.4z
	 M461.43,291.84c9.47,14.55,18.29,29.51,27.77,44.06c0.95,1.32,1.27,2.94,1.42,4.54c-19.27-5.46-38.56-10.86-57.77-16.53
	C442.33,313.18,451.83,302.46,461.43,291.84z"/>
<path class="st1" d="M711.67,306.49c68.85,97.15,137.53,194.44,206.29,291.66c-0.43,0.95-0.84,1.91-1.25,2.88
	c-105.37-22.11-210.81-43.92-316.18-66.01c5.58-13.47,12.81-26.19,19.14-39.32c11.24-22.46,22.5-44.91,33.53-67.48
	c1.22-2.32,2.35-5.05,4.86-6.24c2.55-1.18,5.37-0.49,7.98,0.1c12.88,3.14,25.74,6.37,38.67,9.31
	c-7.41-13.19-14.91-26.34-22.67-39.34c-2.63-4.1-3.15-9.43-1.18-13.91c9.06-21.51,17.94-43.09,26.8-64.68
	C708.67,310.96,710.2,308.73,711.67,306.49 M716.42,333.87c-6.72,15.48-13.34,31.01-20.08,46.48c-0.62,1.48-1.52,3.2-0.33,4.68
	c12.63,22.73,25.54,45.31,38.01,68.13c-3.72-0.76-7.34-1.99-11.12-2.45c-18.45-4.65-36.77-9.83-55.23-14.45
	c-12.87,28.56-26.45,56.82-39.02,85.51c52.65,11.08,105.42,21.69,158.05,32.84c9.29,2.6,18.88,3.98,28.29,6.13
	c21.05,4.28,42.06,8.78,63.15,12.89c-10.48-16.62-21.85-32.68-32.73-49.04c-41.42-61.55-82.89-123.07-124.34-184.6
	C719.71,337.81,718.24,335.68,716.42,333.87z"/>
<linearGradient id="SVGID_4_" gradientUnits="userSpaceOnUse" x1="641.354" y1="543.7739" x2="806.0154" y2="448.7066">
	<stop  offset="0.2" style="stop-color:#C0AFA7"/>
	<stop  offset="1" style="stop-color:#EAE6D7"/>
</linearGradient>
<path class="st5" d="M716.42,333.87c1.82,1.81,3.29,3.94,4.65,6.12c41.45,61.53,82.92,123.05,124.34,184.6
	c10.88,16.36,22.25,32.42,32.73,49.04c-21.09-4.11-42.1-8.61-63.15-12.89c-9.41-2.15-19-3.53-28.29-6.13
	c-0.77-4.08-3.49-7.33-5.62-10.77c-19.41-31.03-39.09-61.9-58.18-93.13c3.78,0.46,7.4,1.69,11.12,2.45
	c-12.47-22.82-25.38-45.4-38.01-68.13c-1.19-1.48-0.29-3.2,0.33-4.68C703.08,364.88,709.7,349.35,716.42,333.87z M667.67,436.26
	c18.46,4.62,36.78,9.8,55.23,14.45c19.09,31.23,38.77,62.1,58.18,93.13c2.13,3.44,4.85,6.69,5.62,10.77
	c-52.63-11.15-105.4-21.76-158.05-32.84C641.22,493.08,654.8,464.82,667.67,436.26z"/>
</svg>
