<?xml version="1.0" encoding="utf-8"?>
<!-- Generator: Adobe Illustrator 21.0.0, SVG Export Plug-In . SVG Version: 6.00 Build 0)  -->
<svg version="1.1" xmlns="http://www.w3.org/2000/svg" xmlns:xlink="http://www.w3.org/1999/xlink" x="0px" y="0px"
	 viewBox="0 0 810.701 663.962" style="enable-background:new 0 0 810.701 663.962;" xml:space="preserve">
<style type="text/css">
	.st0{display:none;}
	.st1{display:inline;}
	.st2{fill:#FFFFFF;}
	.st3{display:inline;stroke:#939598;stroke-miterlimit:10;}
	.st4{display:none;fill:#FFFFFF;}
	.st5{fill:#F2F2F2;}
	.st6{fill:#D1D3D4;}
	.st7{fill:#FDB924;}
	.st8{fill:#FFCD33;}
</style>
<g id="Layer_4" class="st0">
	<g id="XMLID_10_" class="st1">
		<path id="XMLID_13_" class="st2" d="M474.177,113.077h41.652V47.115H298.923v65.961h41.652L194.4,551.611h-48.725v65.961h174.468
			v-65.961h-45.582l29.078-88.432H511.9l29.078,88.432h-45.582v65.961h174.468v-65.961h-48.726L474.177,113.077z M325.644,397.218
			c13.618-41.067,27.235-81.784,40.866-122.138c13.618-40.342,27.235-81.059,40.866-122.137l81.732,244.275H325.644z"/>
		<path id="XMLID_24_" class="st2" d="M657.289,504.496c-10.487-30.92-20.434-60.887-29.864-89.881s-18.738-57.377-27.898-85.17
			c-9.173-27.782-18.469-55.689-27.899-83.72c-9.431-28.02-19.132-56.776-29.078-86.257h23.577V0H249.412v159.467h23.577
			c-11.002,33.83-21.219,64.874-30.65,93.143s-18.738,55.813-27.899,82.633c-9.173,26.82-18.346,53.888-27.506,81.183
			c-9.173,27.307-18.997,56.663-29.471,88.069H95.378v159.467h274.276V510.294h76.231v153.668h273.489V504.496H657.289z
			 M690.296,635.694H475.748V532.765h37.723c-2.628-8.211-5.378-16.31-8.252-24.283c-2.886-7.973-5.894-16.784-9.037-26.457H319.356
			l-18.075,50.74h38.508v102.929H125.241V532.765h53.44c11.519-35.269,22.791-69.337,33.793-102.204
			c11.002-32.856,22.005-65.599,33.007-98.217c11.002-32.618,22.005-65.474,33.007-98.58
			c11.002-33.094,22.521-67.286,34.579-102.566H278.49V28.269h257.772v102.929h-33.793c22.521,68.623,44.66,135.434,66.407,200.421
			c21.735,64.999,44.133,132.047,67.194,201.146h54.226V635.694z"/>
	</g>
</g>
<g id="Layer_12" class="st0">
	<rect id="XMLID_34_" x="-92.323" y="-136.135" class="st3" width="1011.58" height="1008.101"/>
</g>
<g id="Layer_11" class="st0">
</g>
<g id="Layer_4_copy" class="st0">
	<g id="XMLID_8_" class="st1">
		<path id="XMLID_58_" class="st4" d="M474.177,113.077h41.652V47.115H298.923v65.961h41.652L194.4,551.611h-48.725v65.961h174.468
			v-65.961h-45.582l29.078-88.432H511.9l29.078,88.432h-45.582v65.961h174.468v-65.961h-48.726L474.177,113.077z M325.644,397.218
			c13.618-41.067,27.235-81.784,40.866-122.138c13.618-40.342,27.235-81.059,40.866-122.137l81.732,244.275H325.644z"/>
		<path id="XMLID_16_" class="st2" d="M657.289,504.496c-10.487-30.92-20.434-60.887-29.864-89.881s-18.738-57.377-27.898-85.17
			c-9.173-27.782-18.469-55.689-27.899-83.72c-9.431-28.02-19.132-56.776-29.078-86.257h23.577V0H249.412v159.467h23.577
			c-11.002,33.83-21.219,64.874-30.65,93.143s-18.738,55.813-27.899,82.633c-9.173,26.82-18.346,53.888-27.506,81.183
			c-9.173,27.307-18.997,56.663-29.471,88.069H95.378v159.467h274.276V510.294h76.231v153.668h273.489V504.496H657.289z
			 M690.296,635.694H475.748V532.765h37.723c-2.628-8.211-5.378-16.31-8.252-24.283c-2.886-7.973-5.894-16.784-9.037-26.457H319.356
			l-18.075,50.74h38.508v102.929H125.241V532.765h53.44c11.519-35.269,22.791-69.337,33.793-102.204
			c11.002-32.856,22.005-65.599,33.007-98.217c11.002-32.618,22.005-65.474,33.007-98.58
			c11.002-33.094,22.521-67.286,34.579-102.566H278.49V28.269h257.772v102.929h-33.793c22.521,68.623,44.66,135.434,66.407,200.421
			c21.735,64.999,44.133,132.047,67.194,201.146h54.226V635.694z"/>
	</g>
</g>
<g id="Layer_5_copy_2">
	<g id="XMLID_796_">
		<g id="XMLID_813_">
			<g id="XMLID_824_">
				<path id="XMLID_828_" class="st5" d="M95.878,663.462V504.996h61.946l0.114-0.342c10.407-31.204,20.322-60.834,29.471-88.068
					c6.877-20.492,13.933-41.362,20.974-62.038c4.534,1.494,9.058,2.801,13.463,3.89c-2.08,4.521-3.769,8.88-5.023,12.967
					c-3.756,12.227-4.417,22.592-2.022,31.686c0.81,3.081,1.963,6.023,3.429,8.749l-6.227,18.563
					c-11.235,33.563-22.566,67.832-33.682,101.863h-53.578v103.929h215.548V532.265H301.99l17.212-48.317
					c3.669-0.457,7.146-0.717,10.337-0.773c0.772-0.015,1.537-0.021,2.294-0.021c9.163,0,17.302,1.036,24.192,3.079
					c6.839,2.025,12.392,4.769,16.503,8.151c3.622,2.977,6.044,5.914,7.2,8.732l2.74,6.679h-13.316v153.668H95.878z"/>
				<path id="XMLID_825_" class="st6" d="M208.696,355.177c4.189,1.369,8.365,2.577,12.444,3.601
					c-1.975,4.345-3.587,8.539-4.796,12.48c-3.784,12.32-4.448,22.774-2.028,31.961c0.801,3.046,1.934,5.96,3.37,8.667l-2.378,7.087
					c-1.26,3.754-2.52,7.509-3.78,11.272c-11.197,33.449-22.49,67.6-33.571,101.522h-52.715h-1v1v102.929v1h1h214.548h1v-1V532.765
					v-1h-1h-37.091l16.871-47.359c3.545-0.431,6.899-0.677,9.979-0.732c0.769-0.014,1.53-0.021,2.285-0.021
					c9.115,0,17.207,1.029,24.051,3.058c6.774,2.006,12.268,4.718,16.328,8.059c3.556,2.923,5.93,5.795,7.055,8.536l2.457,5.989
					h-12.07h-1v1v152.668H96.378V505.496h61.085h0.721l0.228-0.684c10.399-31.181,20.314-60.811,29.47-88.068
					C194.688,396.464,201.689,375.756,208.696,355.177 M208.068,353.917c-7.048,20.697-14.095,41.535-21.134,62.509
					c-9.173,27.307-18.997,56.663-29.471,88.069H95.378v159.467h274.276V510.294h13.561l-3.023-7.368
					c-1.188-2.895-3.659-5.899-7.345-8.929c-4.166-3.428-9.775-6.2-16.679-8.245c-6.926-2.054-15.093-3.099-24.335-3.099
					c-0.761,0-1.528,0.007-2.303,0.021c-3.421,0.06-6.999,0.346-10.696,0.815l-17.553,49.276h38.508v102.929H125.241V532.765h53.44
					c11.519-35.269,22.791-69.337,33.793-102.204c2.099-6.267,4.197-12.51,6.296-18.768c-1.482-2.719-2.657-5.666-3.489-8.829
					c-2.37-8.999-1.711-19.276,2.017-31.413c1.303-4.246,3.046-8.716,5.254-13.454C217.78,356.935,212.939,355.535,208.068,353.917
					L208.068,353.917z"/>
			</g>
			<g id="XMLID_819_">
				<path id="XMLID_823_" class="st5" d="M546.565,263.128c-14.41-43.362-29.013-87.577-43.405-131.431h33.603V27.769H277.99
					v103.929h34.38c-8.974,26.26-17.973,52.875-26.752,79.117c-11.688,3.949-23,8.784-33.646,14.379
					c6.792-20.541,14.02-42.593,21.494-65.571l0.213-0.655h-23.765V0.5h315.714v158.467h-23.773l0.223,0.66
					c9.946,29.481,19.647,58.237,29.078,86.257l1.873,5.595l-12.356,2.25L546.565,263.128z"/>
				<path id="XMLID_820_" class="st6" d="M565.126,1v157.467h-22.577h-1.393l0.445,1.32c9.946,29.481,19.647,58.236,29.078,86.256
					c0.364,1.083,0.725,2.163,1.086,3.242c0.201,0.602,0.402,1.203,0.604,1.806l-11.686,2.128l-0.203,0.037l-0.172,0.115
					l-13.474,8.979c-14.253-42.89-28.71-86.664-42.983-130.151h32.412h1v-1V28.269v-1h-1H278.49h-1v1v102.929v1h1h33.181
					c-8.856,25.92-17.751,52.229-26.448,78.223c-11.23,3.807-22.112,8.43-32.39,13.759c6.69-20.241,13.787-41.893,21.107-64.403
					l0.426-1.309h-1.377h-22.577V1H565.126 M566.126,0H249.412v159.467h23.577c-7.678,23.607-14.971,45.852-21.883,66.749
					c11.072-5.899,22.767-10.92,34.908-15.008c8.704-26.017,17.716-52.684,27.056-80.011H278.49V28.269h257.772v102.929h-33.793
					c14.776,45.023,29.384,89.25,43.828,132.71l14.565-9.705l12.823-2.335c-0.689-2.051-1.366-4.091-2.057-6.144
					c-9.431-28.02-19.132-56.776-29.078-86.257h23.577V0L566.126,0z"/>
			</g>
			<g id="XMLID_814_">
				<path id="XMLID_818_" class="st5" d="M446.385,663.462V509.794h-34.979l1.28-1.52c5.667-6.73,12.775-12.516,21.124-17.194
					c5.24-2.938,7.325-3.804,16.102-7.449l2.756-1.145c10.204-4.246,35.556-8.987,39.166-9.65c2.333,7.118,6.659,18.832,9.834,27.43
					c1.224,3.312,2.303,6.234,3.082,8.386c2.765,7.672,5.468,15.613,8.036,23.613h-37.537v103.929h215.548V532.265h-54.365
					c-7.141-21.396-14.211-42.571-21.224-63.573c9.882,0.356,19.945,0.775,29.926,1.249c3.848,11.523,7.778,23.202,11.683,34.715
					l0.115,0.34h61.943v158.467H446.385z"/>
				<path id="XMLID_815_" class="st6" d="M615.91,469.218c9.512,0.345,19.21,0.75,28.858,1.206
					c3.828,11.465,7.721,23.033,11.574,34.393l0.23,0.679h0.717h61.085v157.467H446.885V510.294v-1h-1h-33.404l0.588-0.698
					c5.629-6.684,12.689-12.431,20.986-17.08c5.216-2.924,7.297-3.788,16.055-7.426l2.749-1.143
					c9.822-4.086,33.803-8.646,38.635-9.541c2.365,7.161,6.588,18.594,9.703,27.03c1.223,3.311,2.302,6.234,3.08,8.383
					c2.688,7.459,5.317,15.171,7.821,22.944h-36.351h-1v1v102.929v1h1h214.548h1v-1V532.765v-1h-1h-53.505
					C629.767,510.719,622.811,489.883,615.91,469.218 M614.505,468.167c7.126,21.338,14.309,42.855,21.566,64.599h54.226v102.929
					H475.748V532.765h37.723c-2.628-8.211-5.378-16.31-8.252-24.283c-2.886-7.973-9.902-26.543-13.046-36.216
					c0,0-28.577,5.132-39.698,9.758s-13.131,5.38-18.909,8.619c-8.402,4.709-15.556,10.532-21.262,17.309l-1.972,2.342h35.554
					v153.668h273.489V504.496h-62.085c-4.009-11.82-7.938-23.498-11.79-35.038C635.059,468.962,624.7,468.531,614.505,468.167
					L614.505,468.167z"/>
			</g>
		</g>
		<g id="XMLID_797_">
			<g id="XMLID_808_">
				<path id="XMLID_812_" class="st5" d="M504.687,276.829c1.064-7.389,0.254-13.779-2.474-19.515
					c-3.857-8.103-12.822-17.762-33.622-17.762c-2.165,0-26.627,3.721-30.277,4.279l-30.939-92.469l-0.473,1.424
					c-5.33,16.062-10.658,32.054-15.984,48.005l-40.748-0.455c-13.579,0-26.823,1.242-39.384,3.693l30.484-91.453h-41.846V47.615
					h215.906v64.961h-41.848l53.827,160.621c-0.023,0-0.047,0-0.07,0C519.456,273.197,511.873,274.418,504.687,276.829z"/>
				<path id="XMLID_809_" class="st6" d="M514.829,48.115v63.961h-40.652h-1.39l0.442,1.318l53.386,159.305
					c-7.344,0.061-14.507,1.205-21.326,3.405c0.91-7.154,0.047-13.385-2.624-19.005c-3.92-8.233-13.013-18.047-34.074-18.047
					c-2.141,0-24.661,3.416-29.937,4.221l-30.33-90.647l-0.952-2.846l-0.945,2.848c-4.865,14.662-10.058,30.259-15.869,47.658
					l-40.174-0.449l-0.217-0.001c-13.306,0-26.296,1.191-38.637,3.54l29.994-89.984l0.439-1.316h-1.387h-40.652V48.115H514.829
					 M515.829,47.115H298.923v65.961h41.652l-30.536,91.61c12.778-2.554,26.212-3.85,40.128-3.85l0.212,0.001l40.896,0.458
					c5.365-16.066,10.731-32.172,16.1-48.352l30.597,91.445c0,0,28.34-4.337,30.618-4.337c20.539,0,29.375,9.504,33.171,17.477
					c2.766,5.819,3.528,12.455,2.306,20.04c7.365-2.569,15.105-3.872,23.171-3.872c0.264,0,0.512,0.015,0.771,0.019l-53.833-160.639
					h41.652V47.115L515.829,47.115z"/>
			</g>
			<g id="XMLID_803_">
				<path id="XMLID_807_" class="st5" d="M495.896,617.072v-64.961h45.772L514.7,470.093c11.571-1.037,23.697-1.72,36.052-2.029
					c6.977-0.177,14.236-0.267,21.58-0.267c6.61,0,13.426,0.073,20.264,0.216l28.183,84.098h48.585v64.961H495.896z"/>
				<path id="XMLID_804_" class="st6" d="M572.324,468.297c6.497,0,13.191,0.07,19.909,0.209l27.956,83.422l0.229,0.682h0.72h47.726
					v63.961H496.396v-63.961h44.582h1.381l-0.432-1.312l-26.556-80.763c11.363-1.004,23.263-1.667,35.393-1.972
					C557.735,468.387,564.988,468.297,572.324,468.297 M572.324,467.297c-7.341,0-14.548,0.088-21.585,0.267
					c-12.685,0.319-24.984,1.022-36.711,2.088l26.95,81.959h-45.582v65.961h174.468v-65.961h-48.726l-28.18-84.089
					C585.988,467.373,579.099,467.297,572.324,467.297L572.324,467.297z"/>
			</g>
			<g id="XMLID_798_">
				<path id="XMLID_802_" class="st5" d="M146.174,617.072v-64.961h48.585l41.293-123.881c7.288,3.348,15.775,5.045,25.238,5.045
					c7.132,0,14.085-1.335,20.665-3.968c6.008-2.403,11.629-5.659,16.708-9.677c5.113-4.051,9.629-8.896,13.424-14.402
					c1.844-2.678,3.549-5.531,5.071-8.485c3.801,0.321,28.596,0.794,36.3,0.936c-2.172,0.988-4.074,1.891-5.874,2.785
					c-14.124,7.02-27.411,15.489-39.493,25.173c-11.896,9.531-23.167,20.354-33.501,32.167l-32.123,44.101l52.019-12.498
					l-20.619,62.705h45.772v64.961H146.174z"/>
				<path id="XMLID_799_" class="st6" d="M317.451,397.264c4.427,0.297,24.699,0.702,33.815,0.873
					c-1.384,0.646-2.667,1.263-3.903,1.878c-14.156,7.036-27.474,15.525-39.583,25.231c-11.918,9.549-23.211,20.392-33.564,32.227
					l-0.029,0.034l-0.026,0.036l-31.295,42.967l-1.599,2.196l2.641-0.635l49.827-11.971l-20.123,61.198l-0.432,1.312h1.382h44.582
					v63.961H146.674v-63.961H194.4h0.721l0.228-0.684l41.004-123.013c7.239,3.226,15.622,4.861,24.939,4.861
					c7.196,0,14.211-1.347,20.85-4.003c6.052-2.421,11.716-5.701,16.833-9.75c5.151-4.08,9.702-8.962,13.525-14.511
					C314.294,402.906,315.958,400.134,317.451,397.264 M316.87,396.208c-1.537,3.017-3.268,5.94-5.194,8.736
					c-3.768,5.468-8.25,10.275-13.323,14.294c-5.043,3.99-10.62,7.22-16.583,9.605c-6.52,2.608-13.41,3.932-20.479,3.932
					c-9.659,0-18.23-1.776-25.535-5.236L194.4,551.611h-48.725v65.961h174.468v-65.961h-45.582l20.69-62.924
					c-0.138,0.042-0.271,0.077-0.409,0.119L243.673,501.1l31.295-42.967c10.315-11.792,21.565-22.594,33.437-32.105
					c12.053-9.661,25.312-18.112,39.403-25.116c2.584-1.284,5.224-2.504,7.89-3.692C355.698,397.218,319.23,396.577,316.87,396.208
					L316.87,396.208z"/>
			</g>
		</g>
	</g>
</g>
<g id="Layer_7">
</g>
<g id="Layer_5">
	<g id="XMLID_4_">
		<path id="XMLID_129_" class="st7" d="M398.169,492.961c-2.607-5.255-6.736-10.225-12.303-14.801
			c-6.29-5.175-14.323-9.234-23.874-12.064c-8.826-2.615-18.987-3.942-30.203-3.942c-0.866,0-1.739,0.008-2.62,0.023
			c-10.833,0.191-22.683,2.058-35.29,5.555c8.55-9.373,17.73-18.004,27.344-25.706c10.914-8.748,22.929-16.405,35.709-22.758
			c12.781-6.353,26.756-11.434,41.538-15.102c14.789-3.673,30.967-5.895,48.086-6.602c7.574-0.284,15.02-0.428,22.122-0.428
			c10.658,0,20.92,0.324,30.502,0.963c16.02,1.065,31.352,2.611,45.571,4.596c14.276,1.986,28.179,4.254,41.321,6.738
			c13.238,2.499,26.65,4.809,39.862,6.866c13.304,2.067,27.074,3.729,40.929,4.939c10.293,0.897,21.283,1.353,32.668,1.353
			c4.007,0,8.139-0.057,12.279-0.168c12.707-0.29,24.222-1.934,34.221-4.883c10.013-2.955,18.756-6.799,25.986-11.425
			c7.265-4.653,13.164-9.967,17.536-15.793c4.382-5.844,7.351-11.755,8.825-17.568c1.49-5.89,1.407-11.571-0.247-16.887
			c-1.664-5.341-4.906-9.949-9.637-13.695c-4.598-3.493-9.349-5.255-14.144-5.255c-1.879,0-3.795,0.272-5.693,0.809
			c-0.948,0.269-1.92,0.626-2.888,1.064l-0.5,0.226l-0.236,0.496c-2.188,4.594-4.732,8.836-7.561,12.608
			c-3.818,5.09-8.09,9.502-12.696,13.113c-4.583,3.596-9.527,6.366-14.697,8.234c-5.151,1.86-10.558,2.804-16.07,2.804
			c-5.256,0-9.621-1.043-12.976-3.1c-3.323-2.038-5.779-4.871-7.301-8.42c-0.067-0.156-0.126-0.315-0.186-0.474l-0.854-2.235
			l-1.616,1.39c-2.902,2.495-6.369,4.7-10.303,6.553c-8.856,4.171-19.456,6.286-31.505,6.286c-6.052,0-11.253-1.064-15.458-3.164
			c-4.167-2.078-7.417-4.958-9.66-8.559c-0.282-0.453-0.548-0.914-0.796-1.385l-0.98-1.858l-1.439,1.53
			c-2.393,2.545-5.016,4.77-7.796,6.614c-3.116,2.064-6.495,3.739-10.042,4.977c-3.51,1.224-7.024,1.845-10.446,1.845
			c-6.878,0-11.479-2.012-14.066-6.152c-0.188-0.302-0.371-0.648-0.573-1.091l-0.76-1.662l-1.825,1.318
			c-0.357,0.26-0.715,0.521-1.085,0.766c-3.116,2.064-6.495,3.739-10.042,4.977c-3.51,1.224-7.024,1.845-10.446,1.845
			c-3.386,0-6.334-0.535-8.764-1.59c-2.356-1.021-4.084-2.503-5.284-4.531c-0.427-0.718-0.774-1.527-1.034-2.405l-0.564-1.901
			l-1.676,1.061c-1.772,1.122-3.672,2.158-5.644,3.08c-8.932,4.172-19.496,6.288-31.397,6.288c-6.052,0-11.252-1.064-15.458-3.164
			c-4.167-2.078-7.417-4.958-9.66-8.559c-0.282-0.453-0.548-0.914-0.797-1.385l-0.98-1.857l-1.438,1.53
			c-2.393,2.544-5.015,4.769-7.794,6.612c-3.116,2.064-6.495,3.739-10.042,4.977c-3.509,1.224-7.024,1.845-10.446,1.845
			c-3.386,0-6.334-0.535-8.764-1.59c-2.356-1.022-4.085-2.504-5.284-4.531c-0.203-0.343-0.401-0.743-0.604-1.223l-0.737-1.743
			l-1.667,1.218c-0.486,0.356-0.974,0.713-1.478,1.047c-3.118,2.065-6.496,3.74-10.042,4.978c-3.509,1.224-7.024,1.845-10.446,1.845
			c-3.386,0-6.335-0.535-8.764-1.59c-2.346-1.017-4.031-2.488-5.152-4.498c-1.136-2.028-1.642-4.643-1.503-7.774
			c0.139-3.222,1.159-7.005,3.032-11.247l14.664-33.434c1.116-2.649,1.106-4.823-0.02-6.481c-1.096-1.604-2.801-2.508-5.069-2.688
			c-0.279-0.022-0.561-0.033-0.848-0.033c-1.813,0-3.841,0.441-6.029,1.313c-2.484,0.991-4.946,2.56-7.32,4.664l-0.25,0.221
			l-18.178,42.095c-1.385,3.446-1.516,6.249-0.401,8.365c1.158,2.2,3.737,3.334,7.667,3.372l-3.297,6.413
			c-0.995,0.23-2.037,0.46-3.13,0.693c-2.122,0.402-4.835,0.61-8.034,0.61c-7.901,0-12.834-1.947-14.662-5.788l-0.059-0.145
			l-0.717-1.593l-1.466,0.949c-3.034,1.965-6.279,3.557-9.643,4.731c-3.51,1.224-7.024,1.845-10.446,1.845
			c-3.386,0-6.334-0.535-8.764-1.59c-2.356-1.021-4.085-2.504-5.285-4.531c-1.195-2.015-1.732-4.62-1.597-7.743
			c0.143-3.221,1.163-7.005,3.032-11.246l27.986-64.251h-15.656l-7.856,12.15c-3.832,5.925-7.478,11.625-10.836,16.943
			c-3.382,5.354-6.352,10.033-8.906,14.03c-3.325,5.167-6.696,10.276-10.017,15.182c-3.409,5.04-6.532,9.852-9.283,14.303
			c-2.773,4.481-5.221,8.769-7.274,12.743c-2.093,4.048-3.395,7.55-3.869,10.407c-0.539,3.072,0.18,5.58,2.138,7.441
			c1.86,1.767,4.143,2.662,6.785,2.662c1.677,0,3.642-0.43,5.841-1.278c2.149-0.833,4.315-2.052,6.442-3.623
			c2.098-1.55,4.15-3.461,6.101-5.681c1.446-1.649,2.713-3.519,3.785-5.578l3.882,5.249c-1.574,4.026-3.618,7.875-6.083,11.453
			c-2.609,3.785-5.694,7.101-9.17,9.854c-3.481,2.755-7.34,4.989-11.468,6.641c-4.088,1.636-8.416,2.465-12.864,2.465
			c-6.943,0-12.823-1.206-17.476-3.586c-4.532-2.319-7.38-5.898-8.707-10.94c-1.351-5.129-0.75-11.918,1.788-20.178
			c2.575-8.396,7.717-18.655,15.282-30.492l2.555-4.446l-2.329-0.212c-7.718-0.704-15.844-2.062-24.151-4.037
			c-8.309-1.972-16.886-4.759-25.494-8.287l-0.988-0.405l-0.706,0.801c-11.575,13.138-23.332,26.217-34.944,38.873
			c-11.624,12.668-23.786,24.116-36.15,34.024c-12.333,9.878-25.356,17.959-38.707,24.02c-13.281,6.025-27.568,9.081-42.465,9.081
			c-12.429,0-22.323-2.334-29.41-6.938c-7.072-4.594-12.077-10.451-14.877-17.409c-2.821-7.008-3.662-14.642-2.501-22.691
			c1.166-8.111,3.979-15.813,8.362-22.89c4.373-7.063,10.179-13,17.255-17.644c7.012-4.601,15.121-6.933,24.104-6.933
			c3.988,0,7.051,0.828,9.105,2.46c2.055,1.64,3.281,3.626,3.745,6.07c0.475,2.518,0.225,5.295-0.742,8.255
			c-0.989,3.017-2.604,5.878-4.8,8.504c-2.198,2.624-5.04,4.843-8.445,6.593c-3.382,1.738-7.174,2.62-11.27,2.62
			c-3.721,0-6.306-1.121-7.902-3.426c-1.673-2.41-2.218-5.424-1.667-9.216l0.652-4.483l-3.199,3.208
			c-5.558,5.576-9.588,12.083-11.979,19.341c-2.398,7.27-3.062,14.287-1.973,20.857c1.098,6.645,4.051,12.366,8.776,17.005
			c4.783,4.694,11.587,7.074,20.225,7.074c7.381,0,14.711-1.519,21.788-4.513c6.993-2.963,14.041-7.06,20.949-12.177
			c6.871-5.094,13.871-11.198,20.809-18.146c6.937-6.952,14.088-14.506,21.256-22.45c7.174-7.95,14.622-16.469,22.136-25.321
			c7.448-8.774,15.328-17.7,23.422-26.53l1.631-1.78l-2.318-0.674c-9.403-2.734-18.825-4.269-28.005-4.559
			c-0.602-0.019-1.199-0.028-1.794-0.028c-8.639,0-16.753,2.017-24.118,5.994c-5.583,2.948-9.927,6.483-12.899,10.499
			c-2.98,4.022-4.893,8.195-5.682,12.402c-0.798,4.232-0.516,8.45,0.84,12.535c1.084,3.278,2.732,6.246,4.91,8.852l-6.351,1.913
			c-5.691-3.271-10.494-7.73-14.282-13.263c-3.917-5.718-6.416-11.856-7.426-18.245c-1.006-6.341-0.239-12.743,2.28-19.03
			c2.503-6.255,7.21-11.719,13.989-16.239c5.917-3.837,12.484-6.137,19.503-6.827c2.368-0.231,4.799-0.349,7.226-0.349
			c4.867,0,9.923,0.472,15.028,1.403c7.694,1.407,15.619,3.583,23.555,6.47c8,2.915,15.905,6.041,23.495,9.292l0.948,0.406
			l0.718-0.739c10.745-11.059,22.209-21.843,34.077-32.053c11.818-10.168,24.716-19.232,38.334-26.94
			c13.599-7.694,28.332-13.922,43.788-18.512c15.435-4.58,32.292-6.902,50.102-6.902l16.426,0.184
			c-7.821,12-15.396,23.633-22.73,34.895l-3.976,6.105c-2.983,4.467-6.121,9.23-9.315,14.144l-1.507,2.318h13.978l2.778-6.599
			l23.518-4.282l-4.775,10.881h15.602l0.48-1.126c1.531-3.228,1.753-6.015,0.636-8.228c-0.682-1.348-2.472-4.889-6.975-5.004
			l2.539-4.825c1.014-0.141,2.082-0.33,3.183-0.564c1.167-0.276,2.395-0.482,3.681-0.618c1.314-0.137,2.78-0.206,4.353-0.206
			c7.911,0,12.884,1.954,14.784,5.806c1.964,3.996,0.929,10.71-3.077,19.956l-8.012,18.322l4.085-2.52
			c2.895-1.786,6.008-3.212,9.252-4.24c3.223-1.021,6.448-1.538,9.585-1.538c6.72,0,11.246,2.045,13.837,6.251
			c2.572,4.184,2.082,10.536-1.457,18.878l-14.657,33.631c-1.668,4.294-0.296,6.487,1.145,7.58c1.35,1.029,3.04,1.552,5.019,1.552
			c0.7,0,1.449-0.066,2.227-0.196c1.957-0.329,4.059-1.127,6.247-2.375l0.579-0.33l0.143-0.651c0.497-2.256,1.338-4.738,2.501-7.376
			c0.458-1.158,1.511-3.55,3.151-7.164c1.643-3.621,3.492-7.836,5.652-12.888c2.104-4.928,4.358-10.176,6.765-15.746
			c2.405-5.574,4.662-10.825,6.77-15.756c2.06-4.823,3.916-9.107,5.52-12.734c1.576-3.564,2.591-5.848,3.041-6.848
			c1.543-3.256,1.765-6.043,0.647-8.257c-1.154-2.286-3.737-3.463-7.679-3.502l3.254-6.328c1.013-0.141,2.076-0.33,3.174-0.563
			c1.166-0.276,2.394-0.482,3.681-0.619c1.313-0.137,2.778-0.206,4.353-0.206c7.9,0,12.833,1.947,14.661,5.789
			c1.898,3.996,0.83,10.642-3.177,19.752c-0.449,1.137-1.16,2.825-2.259,5.366c-1.055,2.432-2.297,5.328-3.726,8.687
			c-1.423,3.339-3.015,7.011-4.73,10.913c-1.732,3.936-3.426,7.831-5.081,11.692c-3.913,9.147-8.2,19.22-12.859,30.222
			c-1.869,4.433-0.528,6.677,0.926,7.78c1.302,0.994,2.919,1.5,4.803,1.5c0.776,0,1.611-0.087,2.483-0.258
			c2.749-0.536,5.753-1.954,8.927-4.214c0.641-0.458,1.287-0.977,1.976-1.59l0.594-0.528l-0.104-0.788
			c-0.146-1.107-0.23-2.147-0.261-3.182c-0.142-4.982,0.959-10.364,3.272-15.995c5.583-13.54,13.124-23.964,22.412-30.981
			c9.241-6.98,19.6-10.519,30.789-10.519c5.732,0,10.086,1.407,12.939,4.183c2.917,2.838,4.504,6.174,4.854,10.198
			c0.348,4.07-0.592,8.498-2.795,13.159c-2.225,4.699-5.689,8.956-10.297,12.65c-6.449,5.039-14.032,7.6-22.521,7.6h-15.548
			l-0.323,1.063c-2.101,6.903-1.291,12.737,2.407,17.341c3.666,4.566,9.334,6.882,16.848,6.882c3.291,0,6.735-0.525,10.238-1.562
			c3.456-1.02,6.814-2.392,9.979-4.079c1.82-0.97,3.645-2.108,5.421-3.383l0.44-0.316l0.137-0.524
			c0.51-1.952,1.259-4.053,2.225-6.246l27.986-64.251H556.68l4.582-7.929h11.409l2.778-6.599l23.5-4.279l-4.753,10.877h20.057
			l-0.839,1.345l-3.805,6.584h-18.618l-3.982,9.2l2.639-0.361c0.682-0.094,1.586-0.187,2.492-0.281
			c1.434-0.149,2.788-0.289,3.532-0.447c1.167-0.276,2.43-0.481,3.786-0.618c1.392-0.137,2.821-0.207,4.248-0.207
			c7.896,0,12.828,1.98,14.657,5.887c1.905,4.075,0.912,10.691-2.952,19.665c-0.906,2.153-2.146,5.081-3.724,8.792
			c-1.521,3.581-3.15,7.322-4.84,11.12c-1.816,4.312-3.698,8.739-5.649,13.308c-1.87,4.437-0.529,6.681,0.925,7.784
			c1.302,0.994,2.938,1.5,4.858,1.5c0.788,0,1.641-0.086,2.532-0.256c2.827-0.536,5.872-1.955,9.048-4.216
			c0.554-0.395,1.131-0.857,1.765-1.414l0.605-0.532l-0.109-0.798c-0.153-1.114-0.247-2.239-0.279-3.343
			c-0.142-4.982,0.959-10.364,3.272-15.994c5.729-13.535,13.312-23.964,22.53-30.985c9.165-6.978,19.484-10.516,30.671-10.516
			c4.463,0,8.037,0.95,10.625,2.822c2.614,1.898,4.354,4.28,5.315,7.279c0.974,3.046,1.146,6.523,0.514,10.332
			c-0.646,3.883-1.995,7.726-4.011,11.421c-1.889,3.449-3.866,6.305-5.877,8.488c-2.024,2.197-3.991,3.962-5.843,5.249
			c-1.809,1.257-3.52,2.124-5.087,2.577c-1.58,0.458-2.844,0.691-3.757,0.691c-3.623,0-5.798-1.201-6.845-3.779
			c-1.122-2.756-0.854-6.274,0.796-10.458c2.129-4.986,4.972-8.895,8.434-11.58c3.398-2.635,7.226-3.971,11.375-3.971h1.466
			c0.443,0,0.604,0.072,0.61,0.075l1.803,0.834l0.31-1.962c0.511-3.231,0.011-5.976-1.486-8.155
			c-1.573-2.281-4.151-3.437-7.665-3.437c-3.309,0-6.558,1.101-9.657,3.271c-2.954,2.069-5.822,4.754-8.524,7.98
			c-2.685,3.207-5.168,6.854-7.379,10.843c-2.213,3.986-4.103,8.056-5.619,12.094c-4.269,10.812-4.828,18.736-1.703,24.202
			c3.126,5.478,9.104,8.256,17.77,8.256c3.291,0,6.735-0.525,10.238-1.562c3.456-1.02,6.814-2.392,9.979-4.079
			c3.063-1.631,5.931-3.583,8.523-5.803l0.527-0.452l-0.003-0.694c-0.004-1.022,0.024-1.952,0.088-2.84
			c0.364-5.034,1.731-10.466,4.064-16.145c5.58-13.256,13.054-23.617,22.207-30.783c9.084-7.112,19.436-10.718,30.769-10.718
			c5.108,0,9.44,1.045,12.875,3.108c3.438,2.068,5.859,4.821,7.402,8.413c1.553,3.623,2.195,7.937,1.911,12.822
			c-0.229,3.869-1.102,8.041-2.595,12.398l-0.848,2.472l2.563-0.515c1.637-0.33,3.294-0.496,4.925-0.496
			c1.68,0,3.381,0.177,5.058,0.526c3.574,0.749,6.983,2.092,10.133,3.995c6.887,4.499,12.05,10.655,15.299,18.27
			c3.257,7.633,4.246,15.904,2.941,24.582c-1.312,8.721-5.134,17.626-11.36,26.468c-6.238,8.851-15.414,16.815-27.271,23.672
			c-11.921,6.892-27.141,12.314-45.236,16.118c-13.222,2.78-28.489,4.189-45.38,4.189c-6.266,0-12.874-0.194-19.643-0.576
			c-19.083-1-38.029-1.793-56.319-2.359c-10.475-0.325-20.866-0.49-30.887-0.49c-7.534,0-15.044,0.093-22.321,0.276
			c-16.941,0.427-33.265,1.511-48.515,3.223c-15.269,1.715-29.616,4.435-42.646,8.083c-13.066,3.659-25.016,8.499-35.519,14.386
			C413.714,478.27,405.189,485.058,398.169,492.961z M745.816,300.626c-2.182,0-4.485,1.021-7.042,3.12
			c-2.336,1.917-4.732,4.481-7.122,7.62c-2.35,3.082-4.702,6.695-6.992,10.741c-2.276,4.024-4.354,8.322-6.173,12.775
			c-1.815,4.297-3.351,8.478-4.557,12.409c-1.229,3.994-1.972,7.589-2.206,10.687c-0.246,3.267,0.05,5.835,0.905,7.854
			c0.987,2.343,2.792,3.583,5.216,3.583c2.152,0,4.483-1.012,6.927-3.007c2.27-1.856,4.592-4.351,6.902-7.414
			c2.285-3.028,4.597-6.566,6.87-10.515c2.277-3.954,4.354-8.142,6.172-12.447c1.824-4.461,3.323-8.755,4.461-12.779
			c1.143-4.037,1.88-7.681,2.192-10.831c0.322-3.299,0.153-5.908-0.518-7.98C750.051,301.981,748.262,300.626,745.816,300.626z
			 M562.404,352.961c-1.886,4.25-0.54,6.467,0.921,7.577c1.35,1.029,3.06,1.552,5.078,1.552c0.713,0,1.478-0.066,2.273-0.195
			c1.997-0.326,4.118-1.116,6.307-2.348l0.571-0.321l0.152-0.637c0.54-2.263,1.402-4.764,2.563-7.434
			c0.75-1.706,1.911-4.307,3.487-7.803c1.535-3.402,3.126-7.02,4.861-11.061c1.655-3.864,3.198-7.511,4.631-10.944
			c1.412-3.392,2.502-5.891,3.238-7.43c1.405-3.333,1.542-6.1,0.438-8.289c-1.175-2.325-3.826-3.503-7.88-3.503h-4.638
			L562.404,352.961z M332.775,352.961c-1.887,4.25-0.542,6.467,0.921,7.577c1.35,1.029,3.059,1.552,5.078,1.552
			c0.712,0,1.477-0.066,2.273-0.195c1.494-0.244,3.066-0.749,4.675-1.502l0.642-0.3l0.175-0.687
			c0.651-2.548,1.652-5.397,2.975-8.469l27.274-64.025h-15.425L332.775,352.961z M524.377,300.224c-0.963,0-2.047,0.234-3.313,0.714
			c-1.716,0.653-3.619,2.024-5.82,4.191c-2.093,2.065-4.239,4.658-6.378,7.708c-2.122,3.02-4.307,6.444-6.495,10.175
			c-2.209,3.763-4.175,7.719-5.844,11.758l-0.857,2.073h10.138c3.805,0,7.087-1.126,9.757-3.347
			c2.552-2.123,4.956-5.382,7.145-9.688c1.799-3.126,3.277-6.231,4.356-9.162c1.111-3.019,1.73-5.535,1.894-7.692
			c0.181-2.438-0.34-4.304-1.547-5.55C526.887,300.864,525.937,300.224,524.377,300.224z M331.844,230.148
			c-11.527,2.161-22.753,6.142-33.366,11.831c-10.571,5.668-20.934,12.607-30.802,20.624c-9.861,8.01-19.62,16.991-29.006,26.694
			c-9.385,9.701-18.774,19.885-27.907,30.268l-1.426,1.622l2.018,0.771c17.664,6.743,34.223,10.381,49.216,10.813l0.832,0.024
			l0.46-0.693c5.38-8.093,11.479-16.911,18.13-26.209c6.692-9.36,13.407-18.694,19.958-27.745c6.478-8.95,12.775-17.6,18.718-25.708
			c5.863-7.997,10.747-14.639,14.658-19.924l2.272-3.07L331.844,230.148z M624.685,283.482c-3.543,0-6.452-1.127-8.893-3.445
			l-1.38-1.311l-0.046,0.073l-1.018-1.999c-0.764-1.499-1.15-3.145-1.15-4.891c0-3.171,1.176-5.83,3.594-8.127
			c2.44-2.318,5.349-3.444,8.893-3.444c3.392,0,6.226,1.126,8.666,3.444c2.418,2.297,3.594,4.956,3.594,8.127
			s-1.176,5.83-3.594,8.127C630.91,282.355,628.075,283.482,624.685,283.482z"/>
		<path id="XMLID_114_" class="st8" d="M350.154,222.836l13.691,0.153c-7.293,11.192-14.372,22.062-21.239,32.607l-3.957,6.076
			c-2.992,4.482-6.133,9.25-9.335,14.174l-3.015,4.635h5.53h10.217h1.992l0.773-1.836l2.077-4.932l19.943-3.631l-2.719,6.194
			l-1.846,4.206h4.593h12.314h1.983l0.777-1.824l0.069-0.162c1.739-3.699,1.947-6.91,0.616-9.547
			c-0.607-1.2-2.245-4.441-6.003-5.494l1.203-2.286c0.816-0.129,1.659-0.286,2.522-0.469l0.034-0.007l0.033-0.008
			c1.073-0.254,2.237-0.449,3.454-0.578c1.266-0.132,2.679-0.198,4.201-0.198c7.291,0,11.813,1.672,13.437,4.967
			c1.211,2.464,1.656,7.708-3.102,18.69l-6.091,13.929l-3.846,8.795l8.17-5.04c2.79-1.721,5.79-3.096,8.917-4.086
			c3.076-0.974,6.149-1.468,9.133-1.468c6.156,0,10.265,1.812,12.558,5.536c2.304,3.748,1.779,9.638-1.548,17.481l-14.663,33.645
			l-0.024,0.056l-0.022,0.057c-2.088,5.378,0.143,8.111,1.654,9.257c1.62,1.235,3.615,1.861,5.93,1.861
			c0.783,0,1.615-0.073,2.476-0.217c2.131-0.358,4.399-1.216,6.741-2.55l1.159-0.66l0.286-1.302
			c0.474-2.158,1.284-4.545,2.408-7.093l0.024-0.053l0.021-0.054c0.427-1.081,1.47-3.45,3.1-7.042
			c1.647-3.63,3.501-7.856,5.667-12.92c2.059-4.823,4.333-10.118,6.762-15.74c2.406-5.575,4.663-10.828,6.772-15.762
			c2.056-4.816,3.911-9.094,5.511-12.715c1.561-3.528,2.57-5.8,3.025-6.812c1.752-3.712,1.964-6.933,0.631-9.577
			c-1.165-2.306-3.395-3.699-6.646-4.158l1.864-3.626c0.811-0.128,1.648-0.284,2.504-0.466l0.034-0.007l0.034-0.008
			c1.071-0.254,2.235-0.449,3.452-0.578c1.266-0.132,2.679-0.198,4.202-0.198c7.272,0,11.749,1.66,13.306,4.931
			c1.171,2.466,1.568,7.677-3.195,18.506l-0.024,0.054l-0.021,0.054c-0.421,1.067-1.125,2.741-2.216,5.263
			c-1.057,2.436-2.3,5.336-3.731,8.697c-1.42,3.334-3.01,7.001-4.723,10.896c-1.753,3.983-3.465,7.921-5.088,11.708
			c-3.933,9.193-8.26,19.363-12.864,30.231c-2.359,5.598-0.134,8.39,1.396,9.55c1.573,1.2,3.497,1.809,5.717,1.809
			c0.873,0,1.805-0.096,2.769-0.285c2.962-0.578,6.162-2.08,9.512-4.466c0.686-0.489,1.374-1.042,2.102-1.691l1.186-1.056
			l-0.207-1.575c-0.138-1.053-0.219-2.044-0.248-3.028c-0.136-4.772,0.927-9.948,3.158-15.379
			c5.48-13.291,12.859-23.505,21.93-30.358c8.975-6.779,19.03-10.216,29.885-10.216c5.328,0,9.33,1.264,11.893,3.757
			c2.648,2.577,4.089,5.604,4.405,9.249c0.326,3.804-0.568,7.973-2.655,12.389c-2.128,4.493-5.452,8.572-9.85,12.099
			c-6.195,4.84-13.466,7.293-21.613,7.293h-14.437h-2.223l-0.647,2.127c-2.253,7.406-1.354,13.703,2.673,18.716
			c3.964,4.939,10.026,7.444,18.017,7.444c3.435,0,7.022-0.546,10.661-1.623c3.555-1.048,7.008-2.46,10.261-4.194
			c1.881-1.002,3.762-2.176,5.592-3.489l0.88-0.631l0.274-1.048c0.489-1.873,1.211-3.898,2.152-6.032l27.069-62.146l1.829-4.198
			h-4.579h-7.66l2.849-4.929h9.547h1.992l0.773-1.836l2.077-4.932l19.93-3.629l-2.707,6.196l-1.836,4.201h4.585h15.103l-2.848,4.929
			h-16.767h-1.97l-0.783,1.808l-2.533,5.853l-2.116,4.888l5.277-0.724c0.648-0.089,1.563-0.184,2.448-0.276
			c1.537-0.159,2.864-0.297,3.685-0.472l0.033-0.007l0.033-0.008c1.07-0.253,2.266-0.448,3.551-0.577
			c1.346-0.133,2.727-0.2,4.104-0.2c7.264,0,11.738,1.69,13.298,5.021c1.18,2.524,1.623,7.771-2.98,18.459
			c-0.901,2.141-2.14,5.067-3.718,8.777c-1.518,3.573-3.143,7.306-4.829,11.097l-0.012,0.028l-0.012,0.028
			c-1.631,3.874-3.474,8.216-5.639,13.286c-2.359,5.598-0.134,8.389,1.396,9.55c1.573,1.201,3.515,1.809,5.772,1.809
			c0.883,0,1.83-0.095,2.81-0.282c3.043-0.577,6.287-2.08,9.642-4.469c0.596-0.425,1.212-0.918,1.883-1.508l1.211-1.064
			l-0.219-1.597c-0.146-1.064-0.235-2.135-0.265-3.181c-0.136-4.772,0.927-9.948,3.148-15.353
			c5.633-13.306,13.056-23.531,22.063-30.391c8.898-6.774,18.912-10.209,29.763-10.209c4.14,0,7.419,0.854,9.742,2.535
			c2.348,1.705,3.909,3.84,4.769,6.522c0.901,2.819,1.056,6.059,0.463,9.631c-0.618,3.717-1.912,7.401-3.846,10.945
			c-1.831,3.344-3.737,6.101-5.664,8.193c-1.951,2.117-3.834,3.81-5.598,5.035c-1.673,1.163-3.236,1.96-4.65,2.368
			c-1.796,0.522-2.806,0.631-3.336,0.631c-3.812,0-4.917-1.519-5.456-2.846c-0.968-2.377-0.704-5.505,0.786-9.299
			c2.042-4.769,4.725-8.466,7.974-10.986c3.173-2.46,6.593-3.657,10.456-3.657h1.466c0.054,0,0.096,0.002,0.126,0.004l3.458,1.602
			l0.62-3.924c0.573-3.624-0.01-6.732-1.735-9.243c-1.284-1.862-3.871-4.083-8.898-4.083c-3.622,0-7.161,1.192-10.518,3.543
			c-3.062,2.144-6.027,4.919-8.814,8.246c-2.746,3.28-5.284,7.007-7.541,11.078c-2.244,4.044-4.163,8.173-5.704,12.274
			c-4.445,11.272-4.972,19.612-1.61,25.492c3.413,5.981,9.83,9.014,19.073,9.014c3.435,0,7.022-0.546,10.661-1.623
			c3.555-1.048,7.008-2.46,10.261-4.194c3.16-1.683,6.119-3.698,8.794-5.987l1.055-0.903l-0.005-1.388
			c-0.004-0.993,0.024-1.886,0.084-2.726c0.353-4.876,1.683-10.153,3.946-15.66c5.485-13.03,12.804-23.189,21.754-30.196
			c8.814-6.9,18.855-10.399,29.844-10.399c4.833,0,8.905,0.974,12.1,2.892c3.16,1.902,5.384,4.427,6.797,7.719
			c1.461,3.408,2.064,7.494,1.793,12.143c-0.22,3.733-1.066,7.771-2.516,12.001l-1.694,4.944l5.124-1.03
			c1.54-0.31,3.098-0.467,4.629-0.467c1.577,0,3.176,0.166,4.749,0.494c3.393,0.71,6.63,1.983,9.622,3.784
			c6.656,4.359,11.615,10.281,14.739,17.601c3.146,7.374,4.101,15.371,2.838,23.771c-1.277,8.489-5.012,17.178-11.103,25.826
			c-6.113,8.672-15.129,16.491-26.795,23.239c-11.784,6.811-26.855,12.177-44.795,15.949c-13.12,2.759-28.284,4.157-45.072,4.157
			c-6.237,0-12.817-0.193-19.57-0.575c-19.087-1-38.044-1.794-56.345-2.36c-10.491-0.326-20.898-0.491-30.933-0.491
			c-7.547,0-15.07,0.093-22.359,0.278c-16.985,0.428-33.351,1.514-48.645,3.231c-15.347,1.725-29.775,4.46-42.882,8.129
			c-13.18,3.691-25.241,8.577-35.847,14.522c-9.311,5.219-17.473,11.573-24.319,18.925c-2.707-4.736-6.617-9.22-11.671-13.375
			c-6.447-5.304-14.656-9.458-24.401-12.345c-8.964-2.657-19.27-4.004-30.63-4.004c-0.875,0-1.757,0.008-2.646,0.024
			c-9.506,0.168-19.776,1.608-30.639,4.291c7.482-7.866,15.41-15.165,23.658-21.773c10.831-8.681,22.754-16.279,35.439-22.584
			c12.683-6.304,26.555-11.348,41.231-14.99c14.691-3.649,30.768-5.855,47.775-6.558c7.564-0.283,14.99-0.427,22.072-0.426
			c10.625,0,20.854,0.323,30.402,0.959c15.983,1.063,31.279,2.606,45.464,4.585c14.252,1.983,28.13,4.246,41.25,6.727
			c13.254,2.501,26.681,4.814,39.91,6.874c13.336,2.073,27.14,3.739,41.029,4.952c10.335,0.901,21.37,1.358,32.798,1.358
			c4.019,0,8.164-0.057,12.308-0.168c12.845-0.294,24.491-1.957,34.617-4.944c10.149-2.996,19.021-6.898,26.371-11.601
			c7.416-4.75,13.447-10.185,17.927-16.156c4.501-6.003,7.556-12.092,9.079-18.1c1.559-6.161,1.469-12.117-0.27-17.7
			c-1.755-5.635-5.166-10.488-10.138-14.425l-0.024-0.019l-0.024-0.018c-4.841-3.677-9.896-5.542-15.026-5.542
			c-2.018,0-4.07,0.291-6.102,0.865c-1.02,0.289-2.062,0.673-3.098,1.142l-0.999,0.452l-0.472,0.99
			c-2.147,4.505-4.639,8.661-7.407,12.353c-3.74,4.985-7.919,9.303-12.422,12.833c-4.457,3.496-9.262,6.189-14.281,8.003
			c-4.987,1.801-10.223,2.715-15.561,2.715c-4.975,0-9.077-0.969-12.192-2.879c-3.096-1.899-5.29-4.428-6.706-7.732
			c-0.055-0.129-0.104-0.261-0.153-0.394l-0.104-0.276l-1.53-3.97l-3.226,2.774c-2.799,2.407-6.151,4.538-9.962,6.334
			c-8.656,4.076-19.041,6.143-30.866,6.143c-5.817,0-10.792-1.011-14.789-3.006c-3.915-1.953-6.962-4.647-9.058-8.012
			c-0.261-0.419-0.511-0.853-0.742-1.291l-1.961-3.716l-2.878,3.061c-2.314,2.461-4.848,4.611-7.53,6.39
			c-3.013,1.996-6.28,3.615-9.708,4.812c-3.35,1.169-6.699,1.761-9.952,1.761c-6.319,0-10.504-1.782-12.794-5.447
			c-0.154-0.247-0.307-0.539-0.479-0.917l-1.518-3.331l-2.968,2.142l-0.337,0.244c-0.344,0.25-0.687,0.501-1.041,0.736
			c-3.013,1.996-6.28,3.615-9.709,4.812c-3.35,1.169-6.699,1.761-9.952,1.761c-3.179,0-5.926-0.493-8.168-1.467
			c-2.055-0.891-3.556-2.173-4.59-3.92c-0.364-0.613-0.662-1.308-0.886-2.066l-1.128-3.804l-3.353,2.122
			c-1.717,1.087-3.56,2.092-5.476,2.988c-8.732,4.079-19.082,6.147-30.763,6.147c-5.817,0-10.792-1.011-14.789-3.006
			c-3.915-1.953-6.962-4.647-9.057-8.011c-0.262-0.419-0.511-0.853-0.741-1.29l-1.961-3.715l-2.878,3.06
			c-2.314,2.461-4.848,4.611-7.529,6.389c-3.013,1.996-6.28,3.615-9.708,4.812c-3.35,1.169-6.699,1.761-9.952,1.761
			c-3.179,0-5.926-0.493-8.168-1.467c-2.055-0.892-3.557-2.173-4.591-3.92c-0.168-0.284-0.336-0.625-0.512-1.041l-1.474-3.485
			l-3.057,2.231l-0.162,0.118c-0.484,0.354-0.942,0.688-1.399,0.991c-3.014,1.996-6.28,3.615-9.708,4.812
			c-3.35,1.169-6.698,1.761-9.952,1.761c-3.179,0-5.927-0.493-8.168-1.467c-2.032-0.881-3.484-2.141-4.441-3.857
			c-0.997-1.779-1.438-4.125-1.312-6.976c0.131-3.033,1.108-6.634,2.908-10.71l14.68-33.471c1.317-3.127,1.259-5.78-0.175-7.892
			c-0.937-1.371-2.77-3.062-6.192-3.334c-0.315-0.024-0.638-0.037-0.962-0.037c-2.003,0-4.218,0.477-6.587,1.42
			c-2.644,1.055-5.254,2.715-7.758,4.934l-0.5,0.443l-0.265,0.613l-18.046,41.788l-0.015,0.035l-0.014,0.036
			c-1.542,3.838-1.651,7.064-0.322,9.588c1.169,2.221,3.391,3.565,6.622,4.009l-1.938,3.77c-0.759,0.172-1.551,0.346-2.396,0.525
			c-2.057,0.387-4.666,0.584-7.754,0.584c-7.232,0-11.7-1.641-13.28-4.876c-0.024-0.059-0.048-0.117-0.074-0.174l-1.435-3.182
			l-2.93,1.897c-2.935,1.9-6.071,3.439-9.322,4.574c-3.351,1.169-6.699,1.761-9.952,1.761c-3.179,0-5.926-0.493-8.168-1.467
			c-2.055-0.891-3.557-2.173-4.591-3.92c-1.043-1.76-1.51-4.086-1.388-6.909c0.134-3.036,1.112-6.639,2.912-10.721l27.069-62.146
			l1.828-4.198h-4.579h-12.55h-1.633l-0.886,1.372c-2.514,3.89-4.988,7.717-7.412,11.464c-3.834,5.929-7.483,11.634-10.845,16.956
			c-3.394,5.374-6.389,10.092-8.896,14.015c-3.321,5.161-6.686,10.26-10,15.157c-3.42,5.056-6.554,9.886-9.315,14.353
			c-2.794,4.515-5.261,8.836-7.332,12.844c-2.195,4.247-3.509,7.796-4.012,10.824c-0.789,4.498,0.968,7.269,2.581,8.801
			c2.148,2.04,4.778,3.075,7.818,3.075c1.889,0,3.976-0.451,6.386-1.381c2.271-0.881,4.555-2.164,6.788-3.814
			c2.184-1.614,4.316-3.598,6.338-5.9c1.028-1.173,1.97-2.45,2.82-3.821l2.015,2.724c-1.488,3.641-3.373,7.127-5.614,10.382
			c-2.524,3.663-5.508,6.869-8.865,9.529c-3.369,2.665-7.102,4.827-11.096,6.425c-3.91,1.564-8.05,2.358-12.307,2.358
			c-6.704,0-12.354-1.151-16.792-3.421c-4.131-2.114-6.728-5.381-7.94-9.988c-1.279-4.854-0.683-11.367,1.772-19.357
			c2.536-8.266,7.62-18.401,15.112-30.123l0.038-0.06l0.035-0.062l1.354-2.357l2.329-4.057l-4.659-0.425
			c-7.647-0.697-15.702-2.044-23.942-4.003c-8.232-1.954-16.735-4.718-25.271-8.215l-1.976-0.81l-1.412,1.603
			c-11.568,13.131-23.318,26.202-34.924,38.85c-11.572,12.612-23.679,24.007-35.982,33.867c-12.237,9.8-25.153,17.815-38.389,23.825
			c-13.085,5.937-27.164,8.947-41.846,8.947c-12.134,0-21.754-2.253-28.593-6.696c-6.808-4.422-11.62-10.045-14.303-16.712
			c-2.721-6.758-3.531-14.132-2.408-21.917c1.137-7.905,3.88-15.413,8.153-22.314c4.257-6.876,9.911-12.656,16.803-17.179
			c6.763-4.437,14.595-6.687,23.281-6.687c3.64,0,6.389,0.718,8.167,2.131c1.765,1.408,2.815,3.102,3.208,5.175
			c0.428,2.268,0.195,4.796-0.692,7.51c-0.93,2.836-2.452,5.531-4.524,8.008c-2.07,2.471-4.755,4.565-7.982,6.223
			c-3.168,1.628-6.729,2.454-10.584,2.454c-3.192,0-5.374-0.909-6.671-2.782c-1.445-2.082-1.907-4.746-1.413-8.144l1.303-8.967
			l-6.397,6.418c-5.724,5.743-9.877,12.449-12.341,19.929c-2.475,7.502-3.157,14.76-2.028,21.572
			c1.151,6.965,4.248,12.965,9.205,17.832c5.073,4.979,12.231,7.504,21.275,7.504c7.583,0,15.11-1.558,22.374-4.632
			c7.101-3.008,14.252-7.164,21.257-12.352c6.929-5.138,13.987-11.291,20.977-18.291c6.954-6.97,14.123-14.542,21.308-22.504
			c7.184-7.962,14.642-16.492,22.166-25.355c7.435-8.759,15.303-17.671,23.384-26.487l3.263-3.559l-4.636-1.348
			c-9.523-2.77-19.071-4.324-28.377-4.618c-0.617-0.019-1.23-0.029-1.841-0.029c-8.891,0-17.245,2.077-24.806,6.161
			c-5.795,3.061-10.309,6.741-13.416,10.938c-3.117,4.207-5.12,8.587-5.951,13.017c-0.846,4.486-0.546,8.957,0.889,13.284
			c0.906,2.739,2.184,5.272,3.818,7.573l-3.641,1.097c-5.253-3.126-9.702-7.322-13.238-12.486
			c-3.79-5.533-6.206-11.465-7.181-17.632c-0.963-6.069-0.226-12.205,2.191-18.238c2.388-5.968,6.907-11.199,13.397-15.527
			c5.729-3.716,12.071-5.937,18.848-6.603c2.319-0.227,4.701-0.342,7.08-0.342c4.778,0,9.743,0.464,14.758,1.379
			c7.612,1.392,15.456,3.547,23.311,6.403c7.975,2.905,15.854,6.021,23.419,9.261l1.896,0.812l1.437-1.479
			c10.713-11.026,22.146-21.78,33.979-31.961c11.745-10.105,24.562-19.112,38.094-26.771c13.501-7.639,28.129-13.822,43.476-18.379
			C315.784,225.139,332.493,222.838,350.154,222.836 M262.191,334.317l0.921-1.386c5.37-8.078,11.46-16.882,18.101-26.167
			c6.691-9.357,13.404-18.689,19.953-27.737c6.476-8.948,12.772-17.595,18.712-25.7c6.141-8.377,10.935-14.892,14.654-19.919
			l4.544-6.141l-7.508,1.408c-11.678,2.19-23.05,6.221-33.798,11.984c-10.654,5.713-21.097,12.705-31.039,20.781
			c-9.908,8.048-19.711,17.07-29.138,26.815c-9.402,9.718-18.807,19.919-27.955,30.32l-2.853,3.243l4.035,1.54
			c17.821,6.803,34.545,10.474,49.708,10.911L262.191,334.317 M338.774,363.59c0.793,0,1.639-0.072,2.514-0.215
			c1.63-0.266,3.335-0.812,5.07-1.625l1.284-0.601l0.351-1.373c0.632-2.473,1.607-5.248,2.903-8.258l26.382-61.932l1.779-4.176
			h-4.539h-12.17h-1.97l-0.783,1.808l-28.185,65.12c-2.412,5.432-0.171,8.217,1.374,9.389
			C334.403,362.964,336.418,363.59,338.774,363.59 M493.427,338.342h4.486h7.894c4.165,0,7.77-1.243,10.716-3.694
			c2.734-2.274,5.184-5.576,7.487-10.093c1.86-3.244,3.361-6.403,4.462-9.393c1.159-3.151,1.807-5.799,1.981-8.1
			c0.214-2.881-0.447-5.136-1.97-6.708c-0.724-0.744-2.025-1.631-4.108-1.631c-1.149,0-2.407,0.266-3.847,0.813
			c-1.913,0.728-3.987,2.208-6.34,4.525c-2.157,2.127-4.361,4.789-6.552,7.912c-2.145,3.054-4.353,6.513-6.561,10.278
			c-2.244,3.823-4.242,7.842-5.937,11.945L493.427,338.342 M717.845,370.915c2.508,0,5.157-1.126,7.877-3.347
			c2.362-1.932,4.767-4.512,7.15-7.671c2.322-3.078,4.668-6.668,6.972-10.67c2.307-4.007,4.411-8.25,6.267-12.643
			c1.839-4.497,3.356-8.845,4.509-12.922c1.167-4.122,1.921-7.854,2.242-11.096c0.343-3.506,0.153-6.315-0.584-8.59
			c-1.003-3.083-3.359-4.851-6.462-4.851c-2.543,0-5.158,1.132-7.993,3.46c-2.427,1.992-4.904,4.64-7.363,7.87
			c-2.391,3.136-4.781,6.807-7.105,10.912c-2.307,4.079-4.412,8.435-6.242,12.913c-1.842,4.36-3.395,8.589-4.615,12.566
			c-1.263,4.102-2.026,7.808-2.268,11.017c-0.265,3.511,0.069,6.308,1.017,8.546C712.47,369.316,714.813,370.915,717.845,370.915
			 M568.403,363.59c0.793,0,1.639-0.072,2.515-0.215c2.169-0.354,4.457-1.202,6.801-2.521l1.142-0.643l0.305-1.274
			c0.52-2.178,1.355-4.595,2.474-7.173c0.792-1.8,1.997-4.496,3.484-7.795c1.539-3.411,3.133-7.037,4.874-11.089
			c1.644-3.838,3.203-7.524,4.636-10.957c1.402-3.367,2.481-5.842,3.207-7.357l0.031-0.066l0.028-0.067
			c1.553-3.691,1.676-6.881,0.363-9.482c-1.451-2.87-4.553-4.325-9.218-4.325h-3.653h-1.97l-0.783,1.808l-21.6,49.906
			c-2.411,5.432-0.17,8.216,1.374,9.388C564.031,362.964,566.047,363.59,568.403,363.59 M624.685,261.838
			c2.988,0,5.485,0.992,7.633,3.032c2.104,1.999,3.127,4.302,3.127,7.04c0,2.738-1.023,5.041-3.127,7.04
			c-2.148,2.041-4.645,3.033-7.633,3.033c-3.112,0-5.664-0.974-7.805-2.981l-0.025-0.027l-0.065-0.062l-1.336-1.281l-0.768-1.51
			c-0.664-1.305-0.987-2.682-0.987-4.211c0-2.738,1.023-5.041,3.127-7.04C618.973,262.83,621.544,261.838,624.685,261.838
			 M350.167,219.836c-18.046,0-34.89,2.324-50.529,6.964c-15.643,4.644-30.34,10.859-44.1,18.644
			c-13.76,7.788-26.618,16.822-38.573,27.108c-11.956,10.286-23.347,21.001-34.174,32.145c-7.67-3.285-15.53-6.392-23.573-9.322
			c-8.047-2.926-15.98-5.106-23.798-6.536c-5.216-0.952-10.316-1.428-15.298-1.428c-2.487,0-4.944,0.119-7.372,0.356
			c-7.296,0.717-14.024,3.074-20.189,7.072c-7.071,4.715-11.92,10.36-14.55,16.93c-2.633,6.573-3.422,13.179-2.369,19.822
			c1.05,6.643,3.609,12.931,7.669,18.858c4.06,5.93,9.171,10.608,15.339,14.036l9.249-2.786c-2.858-2.856-4.927-6.214-6.203-10.072
			c-1.28-3.857-1.544-7.785-0.79-11.786c0.751-3.998,2.555-7.929,5.414-11.787c2.855-3.857,6.993-7.212,12.407-10.072
			c7.176-3.875,14.976-5.814,23.405-5.814c0.58,0,1.161,0.009,1.747,0.027c9.097,0.288,18.307,1.788,27.633,4.501
			c-8.121,8.86-15.942,17.716-23.46,26.573c-7.522,8.86-14.888,17.288-22.106,25.287c-7.218,8-14.289,15.463-21.204,22.395
			c-6.918,6.928-13.799,12.928-20.64,18c-6.845,5.07-13.725,9.07-20.64,12c-6.918,2.928-13.985,4.395-21.204,4.395
			c-8.272,0-14.663-2.217-19.174-6.645c-4.512-4.43-7.296-9.824-8.347-16.18c-1.054-6.357-0.416-13.07,1.918-20.143
			c2.33-7.072,6.204-13.32,11.617-18.751c-0.603,4.145,0.035,7.574,1.918,10.286c1.878,2.712,4.924,4.072,9.136,4.072
			c4.36,0,8.346-0.931,11.956-2.786c3.609-1.855,6.577-4.179,8.91-6.965c2.33-2.786,4.021-5.786,5.075-9
			c1.05-3.214,1.315-6.214,0.79-9c-0.529-2.786-1.956-5.106-4.286-6.964c-2.334-1.855-5.678-2.786-10.038-2.786
			c-9.326,0-17.634,2.394-24.926,7.179c-7.296,4.788-13.196,10.822-17.707,18.108c-4.512,7.286-7.37,15.108-8.572,23.466
			c-1.206,8.357-0.338,16.18,2.594,23.465c2.932,7.287,8.082,13.32,15.452,18.107c7.366,4.785,17.443,7.18,30.227,7.18
			c15.188,0,29.55-3.074,43.085-9.215c13.534-6.145,26.54-14.217,39.024-24.215c12.48-10.002,24.587-21.396,36.317-34.181
			s23.382-25.749,34.964-38.895c8.72,3.573,17.292,6.359,25.715,8.358c8.42,2.002,16.541,3.358,24.362,4.071l-1.354,2.357
			c-7.67,12.001-12.823,22.287-15.452,30.859c-2.633,8.571-3.235,15.569-1.805,21.001c1.428,5.428,4.586,9.393,9.474,11.895
			c4.885,2.498,10.94,3.75,18.159,3.75c4.659,0,9.136-0.857,13.421-2.572c4.286-1.715,8.233-4.002,11.843-6.857
			c3.609-2.859,6.767-6.252,9.474-10.18c2.707-3.93,4.885-8.109,6.542-12.535l-5.865-7.93c-1.206,2.856-2.746,5.357-4.624,7.5
			c-1.882,2.143-3.835,3.965-5.865,5.465c-2.03,1.5-4.061,2.643-6.09,3.43c-2.03,0.783-3.8,1.178-5.301,1.178
			c-2.256,0-4.173-0.75-5.752-2.25c-1.579-1.5-2.143-3.535-1.692-6.107c0.451-2.715,1.692-6.037,3.722-9.965
			c2.03-3.927,4.434-8.143,7.218-12.643c2.781-4.5,5.865-9.249,9.249-14.251c3.384-4.999,6.729-10.072,10.038-15.215
			c2.555-3.998,5.526-8.679,8.91-14.037c3.384-5.357,6.993-11,10.828-16.929c2.424-3.747,4.899-7.574,7.413-11.465h12.55
			l-27.069,62.146c-1.953,4.43-3.006,8.357-3.158,11.786c-0.148,3.429,0.451,6.288,1.805,8.572c1.354,2.287,3.345,4.001,5.978,5.143
			c2.629,1.142,5.752,1.714,9.361,1.714c3.609,0,7.253-0.643,10.94-1.929c3.529-1.232,6.846-2.869,9.964-4.888
			c0.026,0.057,0.046,0.118,0.072,0.174c2.108,4.43,7.444,6.643,16.016,6.643c3.306,0,6.09-0.214,8.346-0.643
			c1.354-0.288,2.629-0.573,3.835-0.857l4.737-9.215h-2.256c-3.461,0-5.639-0.857-6.542-2.571c-0.902-1.714-0.754-4.072,0.451-7.072
			l18.046-41.788c2.256-1.999,4.547-3.462,6.88-4.393c2.022-0.805,3.848-1.206,5.475-1.206c0.248,0,0.49,0.009,0.729,0.028
			c1.805,0.144,3.119,0.823,3.947,2.036c0.825,1.215,0.789,2.893-0.113,5.036l-14.662,33.43c-1.956,4.43-3.01,8.357-3.158,11.786
			c-0.151,3.429,0.413,6.288,1.692,8.572c1.276,2.287,3.232,4.001,5.865,5.143c2.629,1.142,5.752,1.714,9.362,1.714
			c3.609,0,7.253-0.643,10.94-1.929c3.684-1.286,7.141-3,10.376-5.143c0.571-0.379,1.121-0.784,1.673-1.187
			c0.206,0.487,0.431,0.958,0.694,1.402c1.354,2.287,3.346,4.001,5.978,5.143c2.63,1.142,5.753,1.714,9.361,1.714
			c3.609,0,7.254-0.643,10.94-1.929c3.684-1.286,7.142-3,10.377-5.143c2.938-1.948,5.615-4.237,8.058-6.835
			c0.265,0.503,0.549,0.995,0.849,1.477c2.403,3.857,5.826,6.895,10.264,9.108c4.434,2.213,9.813,3.321,16.128,3.321
			c12.182,0,22.857-2.143,32.032-6.429c2.078-0.971,4.01-2.031,5.811-3.171c0.294,0.99,0.686,1.906,1.182,2.742
			c1.354,2.287,3.345,4.001,5.978,5.143c2.63,1.142,5.753,1.714,9.361,1.714c3.609,0,7.254-0.643,10.94-1.929
			c3.684-1.286,7.142-3,10.377-5.143c0.504-0.334,0.987-0.695,1.477-1.048c0.199,0.436,0.414,0.861,0.665,1.263
			c2.858,4.574,7.97,6.857,15.339,6.857c3.609,0,7.254-0.643,10.94-1.929c3.684-1.286,7.142-3,10.377-5.143
			c2.938-1.949,5.616-4.238,8.059-6.836c0.266,0.503,0.549,0.996,0.85,1.479c2.403,3.857,5.826,6.895,10.264,9.108
			c4.434,2.213,9.813,3.321,16.128,3.321c12.329,0,23.044-2.143,32.145-6.429c4.087-1.925,7.631-4.185,10.64-6.773
			c0.099,0.258,0.191,0.521,0.299,0.773c1.653,3.857,4.286,6.895,7.896,9.108c3.608,2.213,8.194,3.321,13.76,3.321
			c5.713,0,11.24-0.964,16.58-2.893c5.336-1.929,10.376-4.748,15.113-8.464c4.737-3.714,9.058-8.177,12.971-13.394
			c2.903-3.873,5.474-8.161,7.715-12.863c0.87-0.394,1.76-0.728,2.678-0.988c1.773-0.501,3.536-0.752,5.285-0.752
			c4.482,0,8.884,1.643,13.212,4.93c4.512,3.573,7.557,7.896,9.136,12.965c1.579,5.073,1.653,10.43,0.226,16.072
			c-1.431,5.642-4.286,11.321-8.571,17.036c-4.286,5.713-10.003,10.855-17.144,15.43c-7.144,4.57-15.677,8.32-25.603,11.25
			c-9.925,2.928-21.204,4.533-33.836,4.822c-4.148,0.111-8.228,0.167-12.239,0.167c-11.401,0-22.247-0.449-32.537-1.347
			c-13.908-1.215-27.52-2.859-40.829-4.928c-13.31-2.072-26.579-4.359-39.814-6.857c-13.231-2.502-27.03-4.752-41.393-6.75
			c-14.359-2.004-29.586-3.537-45.679-4.607c-9.657-0.644-19.859-0.966-30.601-0.966c-7.155,0-14.548,0.143-22.184,0.429
			c-17.291,0.715-33.42,2.928-48.386,6.645c-14.962,3.713-28.909,8.785-41.844,15.215c-12.932,6.428-24.926,14.07-35.98,22.93
			c-11.053,8.856-21.391,18.783-31.017,29.787c14.437-4.43,27.746-6.75,39.927-6.965c0.871-0.015,1.736-0.023,2.593-0.023
			c11.125,0,21.053,1.294,29.777,3.88c9.4,2.785,17.183,6.713,23.347,11.785c6.168,5.07,10.454,10.535,12.857,16.395
			c7.219-8.572,16.055-15.787,26.505-21.645c10.454-5.859,22.184-10.607,35.189-14.25c13.01-3.643,27.147-6.322,42.408-8.037
			c15.265-1.713,31.394-2.785,48.386-3.213c7.296-0.184,14.726-0.277,22.284-0.277c10.049,0,20.327,0.163,30.839,0.49
			c18.423,0.57,37.185,1.357,56.281,2.357c6.828,0.386,13.404,0.579,19.727,0.579c17.072,0,32.301-1.407,45.689-4.221
			c18.35-3.857,33.572-9.289,45.679-16.287c12.104-7,21.352-15.037,27.746-24.107c6.391-9.074,10.264-18.107,11.617-27.108
			c1.353-9,0.338-17.465-3.045-25.394c-3.384-7.929-8.685-14.251-15.903-18.965c-3.31-1.999-6.845-3.392-10.603-4.179
			c-1.788-0.373-3.576-0.558-5.364-0.558c-1.741,0-3.481,0.176-5.221,0.526c1.537-4.485,2.435-8.754,2.673-12.797
			c0.3-5.143-0.377-9.644-2.03-13.501c-1.656-3.857-4.324-6.891-8.008-9.107c-3.687-2.213-8.233-3.322-13.647-3.322
			c-11.73,0-22.297,3.68-31.693,11.037c-9.4,7.359-16.957,17.823-22.67,31.394c-2.407,5.86-3.796,11.395-4.173,16.608
			c-0.073,1.013-0.095,1.992-0.092,2.954c-2.505,2.144-5.253,4.02-8.254,5.619c-3.084,1.644-6.315,2.966-9.699,3.964
			c-3.384,1.001-6.654,1.5-9.812,1.5c-8.121,0-13.612-2.498-16.467-7.5c-2.858-4.999-2.256-12.644,1.805-22.93
			c1.501-3.998,3.345-7.962,5.526-11.894c2.178-3.927,4.585-7.463,7.218-10.607c2.63-3.141,5.375-5.712,8.234-7.715
			c2.855-1.999,5.787-3,8.797-3c3.007,0,5.149,0.931,6.429,2.786c1.276,1.858,1.692,4.216,1.241,7.072
			c-0.304-0.141-0.716-0.214-1.241-0.214c-0.528,0-1.015,0-1.466,0c-4.512,0-8.61,1.43-12.294,4.286
			c-3.687,2.859-6.654,6.931-8.91,12.215c-1.805,4.574-2.069,8.431-0.79,11.572c1.276,3.144,4.022,4.714,8.234,4.714
			c1.05,0,2.442-0.248,4.173-0.75c1.727-0.499,3.57-1.426,5.526-2.786c1.953-1.356,3.982-3.177,6.091-5.464
			c2.103-2.284,4.134-5.214,6.09-8.786c2.105-3.857,3.497-7.822,4.174-11.894c0.677-4.071,0.486-7.748-0.564-11.036
			c-1.054-3.285-3.01-5.963-5.864-8.036c-2.859-2.069-6.693-3.107-11.505-3.107c-11.582,0-22.106,3.61-31.58,10.822
			c-9.475,7.216-17.144,17.753-23.009,31.608c-2.407,5.86-3.532,11.395-3.384,16.608c0.035,1.205,0.137,2.37,0.292,3.503
			c-0.531,0.467-1.075,0.913-1.644,1.319c-3.01,2.143-5.829,3.466-8.459,3.964c-0.803,0.153-1.553,0.23-2.251,0.23
			c-1.591,0-2.909-0.398-3.952-1.194c-1.505-1.142-1.656-3.141-0.451-6c1.952-4.571,3.835-9.001,5.64-13.287
			c1.652-3.713,3.27-7.426,4.85-11.143c1.579-3.713,2.819-6.643,3.722-8.786c4.061-9.429,5.037-16.394,2.933-20.894
			c-2.107-4.5-7.444-6.751-16.016-6.751c-1.505,0-2.972,0.074-4.398,0.214c-1.432,0.144-2.746,0.358-3.948,0.643
			c-1.12,0.238-4.202,0.474-5.916,0.71l2.533-5.853h18.498l4.238-7.334c0.016,0.016,0.03,0.032,0.046,0.048
			c2.707,2.571,6.014,3.857,9.926,3.857c3.757,0,6.992-1.286,9.699-3.857c2.707-2.572,4.061-5.642,4.061-9.215
			c0-3.569-1.354-6.643-4.061-9.215c-2.707-2.571-5.942-3.857-9.699-3.857c-3.912,0-7.219,1.286-9.926,3.857
			c-2.707,2.572-4.061,5.646-4.061,9.215c0,2.02,0.448,3.873,1.313,5.572h-15.523l4.963-11.358l-27.069,4.929l-2.707,6.429h-11.278
			l-6.316,10.929h12.858l-27.069,62.146c-1.01,2.293-1.775,4.448-2.304,6.472c-1.661,1.192-3.404,2.293-5.253,3.278
			c-3.084,1.644-6.315,2.966-9.699,3.964c-3.384,1.001-6.654,1.5-9.812,1.5c-7.07,0-12.294-2.106-15.678-6.322
			c-3.384-4.212-4.099-9.536-2.143-15.965h14.437c8.871,0,16.692-2.642,23.46-7.929c4.811-3.857,8.381-8.251,10.715-13.179
			c2.329-4.929,3.306-9.57,2.933-13.929c-0.378-4.356-2.144-8.07-5.302-11.144c-3.157-3.07-7.82-4.607-13.985-4.607
			c-11.582,0-22.145,3.61-31.693,10.822c-9.552,7.216-17.183,17.753-22.895,31.608c-2.407,5.86-3.532,11.395-3.384,16.608
			c0.033,1.146,0.13,2.253,0.272,3.333c-0.597,0.532-1.211,1.034-1.849,1.488c-3.01,2.143-5.791,3.466-8.346,3.964
			c-0.78,0.153-1.512,0.23-2.194,0.23c-1.555,0-2.854-0.398-3.897-1.194c-1.505-1.142-1.656-3.141-0.451-6
			c4.659-11,8.945-21.071,12.857-30.216c1.653-3.857,3.345-7.748,5.075-11.679c1.728-3.928,3.307-7.571,4.737-10.929
			c1.428-3.355,2.668-6.248,3.723-8.679c1.05-2.428,1.804-4.212,2.255-5.357c4.209-9.57,5.263-16.571,3.158-21.001
			c-2.107-4.427-7.443-6.644-16.016-6.644c-1.656,0-3.158,0.074-4.512,0.214c-1.354,0.144-2.633,0.358-3.834,0.643
			c-1.354,0.288-2.634,0.502-3.835,0.643l-4.737,9.214h2.256c3.457,0,5.64,0.894,6.541,2.679c0.902,1.788,0.677,4.109-0.676,6.965
			c-0.451,1.001-1.467,3.288-3.046,6.857c-1.579,3.573-3.422,7.822-5.526,12.75c-2.107,4.929-4.363,10.179-6.768,15.751
			c-2.407,5.572-4.663,10.822-6.767,15.751c-2.108,4.929-3.986,9.215-5.64,12.858c-1.653,3.643-2.707,6.037-3.158,7.179
			c-1.21,2.746-2.074,5.298-2.592,7.659c-2.03,1.157-3.949,1.895-5.752,2.198c-0.699,0.117-1.359,0.176-1.979,0.176
			c-1.65,0-3.02-0.415-4.112-1.247c-1.505-1.142-1.73-3.071-0.676-5.786l14.663-33.645c3.757-8.856,4.208-15.607,1.353-20.251
			c-2.858-4.641-7.895-6.965-15.114-6.965c-3.31,0-6.654,0.536-10.038,1.607c-3.383,1.071-6.58,2.538-9.587,4.393l6.091-13.929
			c4.209-9.714,5.223-16.786,3.045-21.215c-2.182-4.427-7.557-6.643-16.129-6.643c-1.657,0-3.158,0.074-4.511,0.214
			c-1.354,0.144-2.633,0.358-3.835,0.643c-1.353,0.288-2.633,0.502-3.835,0.643l-4.059,7.714l-27.069,4.929l-2.707,6.429h-10.217
			c3.15-4.843,6.255-9.56,9.315-14.144c9.023-13.855,18.419-28.287,28.197-43.288L350.167,219.836L350.167,219.836z
			 M260.614,331.271c-14.888-0.429-31.129-3.998-48.724-10.715c9.171-10.427,18.458-20.499,27.858-30.216
			c9.397-9.714,19.022-18.57,28.874-26.573c9.848-7.999,20.037-14.82,30.565-20.465c10.524-5.642,21.503-9.536,32.934-11.679
			c-3.912,5.287-8.797,11.93-14.662,19.93c-5.865,8.002-12.107,16.574-18.723,25.715c-6.619,9.144-13.274,18.396-19.963,27.751
			C272.079,314.378,266.028,323.127,260.614,331.271L260.614,331.271z M366.859,277.482l4.986-11.361h2.234
			c3.457,0,4.96,2.398,5.862,4.183c0.902,1.788,0.677,4.108-0.677,6.964l-0.091,0.214H366.859L366.859,277.482z M338.774,360.59
			c-1.689,0-3.08-0.415-4.171-1.247c-1.505-1.142-1.657-3.071-0.451-5.786l28.197-65.146h12.17l-26.382,61.932
			c-1.371,3.184-2.382,6.077-3.05,8.691c-1.478,0.692-2.906,1.156-4.28,1.38C340.086,360.532,339.409,360.59,338.774,360.59
			L338.774,360.59z M497.913,335.342c1.652-3.998,3.57-7.855,5.752-11.572c2.178-3.713,4.321-7.072,6.429-10.072
			c2.104-3,4.173-5.498,6.203-7.5c2.03-1.999,3.796-3.285,5.301-3.857c1.082-0.411,2.009-0.617,2.78-0.617
			c0.836,0,1.488,0.241,1.958,0.724c0.902,0.931,1.276,2.394,1.128,4.393c-0.151,2.002-0.754,4.43-1.805,7.286
			c-1.054,2.86-2.481,5.86-4.286,9c-2.107,4.146-4.363,7.216-6.767,9.215c-2.407,2.002-5.34,3-8.798,3H497.913L497.913,335.342z
			 M717.845,367.915c-1.805,0-3.084-0.887-3.835-2.669c-0.755-1.781-1.016-4.165-0.79-7.155c0.226-2.99,0.938-6.442,2.144-10.36
			c1.202-3.917,2.707-8.009,4.512-12.282c1.804-4.414,3.834-8.616,6.09-12.603c2.256-3.984,4.547-7.51,6.88-10.571
			c2.33-3.061,4.625-5.518,6.881-7.37c2.255-1.852,4.285-2.779,6.09-2.779c1.805,0,3.007,0.928,3.609,2.779
			c0.6,1.852,0.751,4.309,0.451,7.37c-0.303,3.061-1.015,6.586-2.143,10.571c-1.128,3.988-2.595,8.19-4.399,12.603
			c-1.805,4.273-3.834,8.364-6.09,12.282c-2.256,3.917-4.512,7.37-6.768,10.36c-2.256,2.99-4.477,5.374-6.654,7.155
			C721.641,367.028,719.65,367.915,717.845,367.915L717.845,367.915z M568.403,360.59c-1.69,0-3.08-0.415-4.171-1.247
			c-1.505-1.142-1.656-3.071-0.451-5.786l21.611-49.931h3.653c3.457,0,5.639,0.894,6.541,2.679c0.902,1.788,0.751,4.108-0.451,6.965
			c-0.754,1.574-1.843,4.071-3.271,7.5c-1.431,3.429-2.972,7.072-4.624,10.929c-1.657,3.857-3.271,7.537-4.851,11.037
			c-1.579,3.502-2.742,6.107-3.496,7.822c-1.204,2.771-2.084,5.331-2.646,7.683c-2.03,1.143-3.969,1.874-5.812,2.174
			C569.716,360.532,569.038,360.59,568.403,360.59L568.403,360.59z"/>
	</g>
</g>
<g id="Layer_9">
</g>
<g id="Layer_8">
</g>
<g id="Layer_2">
</g>
<g id="Layer_10">
</g>
</svg>
