<?xml version="1.0" encoding="utf-8"?>
<!-- Generator: Adobe Illustrator 19.0.0, SVG Export Plug-In . SVG Version: 6.00 Build 0)  -->
<svg version="1.1" id="Layer_1" xmlns="http://www.w3.org/2000/svg" xmlns:xlink="http://www.w3.org/1999/xlink" x="0px" y="0px"
	 viewBox="536.7 302.9 491.6 127.6" style="enable-background:new 536.7 302.9 491.6 127.6;" xml:space="preserve">
<style type="text/css">
	.st0{fill:#A80E27;}
	.st1{fill:url(#SVGID_1_);}
	.st2{fill:url(#SVGID_2_);}
	.st3{fill:url(#SVGID_3_);}
	.st4{fill:#CFCFCF;}
</style>
<g id="_x23_a80e27ff">
	<path class="st0" d="M767,302.9c39.7,0,79.4,0,119,0c8,0.4,16.4,2,22.6,7.3c5.4,4.6,7.6,11.9,7.6,18.8c0,8.7,0,17.3,0,26
		c0,7.1-2.9,14.3-8.7,18.6c-6.6,5.1-15.1,6.3-23.1,7.1c11.8,16.6,23.6,33.2,35.3,49.8c-15,0-30.1,0-45.1,0
		c-17.8-25.7-35.3-51.6-53.2-77.3c19.3,0,38.5,0,57.8,0c0-7.8,0-15.6,0-23.3c-25,0-50,0-75,0.1c0.1,24,0.1,48,0,72
		c-0.1,9.3-3.5,19.6-12.2,24.2c-7.8,3.7-16.7,3.6-25.1,3.6C766.9,387.4,766.9,345.1,767,302.9z"/>
	<path class="st0" d="M975.3,410.5c1,0.4,1.5,1.1,1.2,2.3c2.1,0.3,5.6-0.8,6.5,1.9c0,0.7,0.1,2.2,0.1,3l1.1,0.7c0,0.3,0,0.6,0,0.9
		c-2.5,0.2-0.4,3.1-1.7,4.3c-1.5,1.6-4.1,0.9-6,1.1c0.2,1.1-0.2,1.9-1,2.4c0.7-4.7-5.6-0.7-6.8-4.1c-0.2-1.8,0.3-4.3-2.5-3.6
		c0.3-0.2,1-0.7,1.3-0.9l1-0.8c-1.2-4.4,3.3-5.4,6.7-4.9C975.3,412.2,975.3,411.1,975.3,410.5 M972.1,415.6c-0.4,1.8,0.9,2.5,2,3.5
		c-1.7,0.3-2.4,1.3-1.9,3.1c2,0.3,3.7,0,3.4-2.5c0.8,0.5,1.2,1.4,1,2.5c3.1,1,3.7-2.2,1.1-3.4c0.5-0.4,1.5-1.3,1.9-1.7
		c-0.2-2.9-2.8-1.4-4-0.2C974.9,415.5,973.7,415,972.1,415.6z"/>
</g>
<g id="_x23_cfcfcfff">
	<linearGradient id="SVGID_1_" gradientUnits="userSpaceOnUse" x1="557.8776" y1="414.7974" x2="637.9238" y2="334.7513">
		<stop  offset="0" style="stop-color:#E0E0E0"/>
		<stop  offset="1" style="stop-color:#B0B1B1;stop-opacity:0.8"/>
	</linearGradient>
	<path class="st1" d="M545,341.3c25.3-0.4,50.6-0.1,75.9-0.2c9-0.2,18.1,1,26.3,4.5c3.3,1.6,7,4.2,7.1,8.2
		c0.1,16.8,0.1,33.7,0.1,50.6c-28.8,0-57.7,0-86.6,0c-7.7-0.2-15.7-0.6-22.8-3.9c-4.3-1.9-8-5.8-8.3-10.7
		c-0.2-5.6-0.8-12.3,3.7-16.5c5.9-5.7,14.8-5.8,22.5-6.3c19.2-0.1,38.3-0.1,57.5,0c0.2-4.3,0-8.5,0.1-12.8c-17.2,0-34.3,0-51.5,0
		c-6.5-0.2-13.4-0.7-19-4.3C547,348.1,545.4,344.7,545,341.3 M571,379.8c0.1,4.2,0.1,8.3,0.1,12.5c16.5,0,32.9,0,49.4,0
		c-0.1-4.2,0.2-8.4-0.1-12.6C603.9,379.8,587.5,379.7,571,379.8z"/>
	<linearGradient id="SVGID_2_" gradientUnits="userSpaceOnUse" x1="656.7133" y1="372.7994" x2="764.7899" y2="372.7994">
		<stop  offset="0" style="stop-color:#E0E0E0"/>
		<stop  offset="1" style="stop-color:#B0B1B1;stop-opacity:0.8"/>
	</linearGradient>
	<path class="st2" d="M656.7,341.4c8.6,0.1,17.5-0.6,25.8,2.1c4.5,1.4,8.6,5.3,8.3,10.3c0.1,12.9,0.2,25.7,0.3,38.6
		c13.1-0.2,26.2,0,39.3-0.1c-0.1-17,0.2-34,0-51c11.4-0.2,22.9-0.1,34.3-0.1c-0.2,20.9,0.1,41.9,0,62.8c-10.8,0.6-21.6-1.7-31.4-6.3
		c-13.8,7.7-30.2,7.5-45.4,5.8c-8.8-1.3-18-2.8-25.6-7.9c-3.2-2.2-5.7-5.8-5.6-9.8C656.7,371,656.8,356.2,656.7,341.4z"/>
	<linearGradient id="SVGID_3_" gradientUnits="userSpaceOnUse" x1="910.1944" y1="372.7982" x2="1028.08" y2="372.7982">
		<stop  offset="0" style="stop-color:#E0E0E0"/>
		<stop  offset="1" style="stop-color:#B0B1B1;stop-opacity:0.8"/>
	</linearGradient>
	<path class="st3" d="M918.8,341.1c26.4,0.1,52.8,0,79.2,0c7.7,0.1,15.4,1.4,22.5,4.4c3.4,1.5,7.1,4.1,7.4,8.2
		c0.2,16.9,0,33.8,0.1,50.6c-28.7,0.1-57.4,0-86.1,0c-9.5-0.3-20.1-0.5-27.7-6.8c-4.8-4.1-4.2-11-3.9-16.7c0.4-4.5,3.4-8.4,7.4-10.4
		c6.2-3.2,13.4-3.3,20.2-3.5c18.7-0.1,37.4,0,56.1,0c0-4.2-0.1-8.4,0.1-12.6c-13.7-0.4-27.4,0-41.2-0.2c-8.9-0.1-18.3,0.7-26.7-2.8
		C922.2,349.7,918.7,345.8,918.8,341.1 M944.3,392.4c16.5-0.3,33.1-0.1,49.7-0.1c0-4.2-0.1-8.4,0.1-12.5c-16.5,0-33,0.1-49.5-0.1
		C944.3,383.9,944.8,388.2,944.3,392.4z"/>
	<path class="st4" d="M923.5,414.8c1.1-2.6,4.3-1.8,6.5-2c2.6,0.3,6.1-0.9,7.9,1.7c1.9-2.7,5.4-1.5,8.1-1.8c2.4,0.2,6.6-1,6.8,2.6
		c-3.7,0-7.3,0-11,0c0,0.5,0,1.6,0,2.1c3.5,0.1,7-0.2,10.4,0.4c0.1,2,0.1,4.1,0.2,6.1c-1.9,1.3-4.3,0.8-6.4,0.9
		c-2.8-0.1-5.9,0.6-8.1-1.6c-2.1,2.1-5.2,1.1-7.8,1.3c-2.2-0.2-5.5,0.7-6.6-1.9C923.3,420.1,923.3,417.5,923.5,414.8 M927.1,415.4
		c0,0.5,0,1.6-0.1,2.1c3.6,0,7.2-0.1,10.9,0.1c-1.4,4.3-7.4,1.7-10.8,2.4c0,0.5,0,1.6,0,2.1c7.4-0.1,14.7,0.2,22.1,0.1
		c0-0.5,0-1.6,0-2.2c-3.3-0.2-6.8,0.5-10-0.4c-1.7-0.8-1.3-2.7-1.3-4.3C934.3,415.5,930.7,415.5,927.1,415.4z"/>
	<path class="st4" d="M952.9,412.9c4.8,0.3,9.8-0.9,14.3,0.9c0.2,1.6,0.3,3.1,0.3,4.7c-0.3,0.2-1,0.7-1.3,0.9
		c-2.6,1.3-5.8,0.4-8.6,0.6c0.6-3.1,3.8-2.5,6.2-2.5c0-0.5,0-1.5,0-2c-2.4,0-4.8,0-7.1,0c-0.5,3.2,1.7,8.9-3.1,9.4
		C951.7,421.3,953.4,416.8,952.9,412.9z"/>
	<path class="st4" d="M984.4,413c4.4-0.1,8.9-0.6,13.2,0.3c0.3,0.3,1,1,1.4,1.3c0.6-1.2,1.6-1.8,3-1.6c4-0.1,8,0.1,12-0.1
		c0,3.1-3.4,2.6-5.6,2.7c0.1,2.8,0.1,5.7-0.1,8.5c-0.9,0.2-2.6,0.5-3.5,0.7c0-3.1,0-6.1,0-9.2c-1.9,0-3.8,0-5.7-0.1
		c0.4,2.2-0.3,4.8-3,4.8c1.1,1.5,2.3,3,3.4,4.5c-1.5,0-2.9,0-4.4,0c-1.8-2.2-3.7-4.5-5-7.1c1.7,0,3.5,0,5.3,0v-2c-2.4,0-4.8,0-7.2,0
		c0,2.5,0.2,5,0,7.5c-0.6,1.5-2.2,1.5-3.6,1.7c0-1.8-0.1-3.6-0.2-5.4c0-0.3,0-0.6,0-0.9C984.3,416.6,984.4,414.8,984.4,413z"/>
	<path class="st4" d="M1015.1,419.8c-3-1.5-2.1-7.5,1.8-6.9c3.6,0.6,9.7-2,11.4,2.5c-3.7,0.1-7.4,0-11.1,0c0,0.5,0,1.5-0.1,2
		c3.6,0.5,7.9-1.1,10.9,1.3c0.2,2.3,0.3,6.1-3,5.8c-3.9-0.5-9.4,1.8-11.9-2.3c3.7-0.4,7.4-0.1,11.1-0.2c0.1-0.5,0.3-1.4,0.3-1.9
		C1021.5,419.7,1018.2,420.3,1015.1,419.8z"/>
</g>
</svg>
