<?xml version="1.0" encoding="utf-8"?>
<!-- Generator: Adobe Illustrator 19.0.0, SVG Export Plug-In . SVG Version: 6.00 Build 0)  -->
<svg version="1.1" id="Layer_1" xmlns="http://www.w3.org/2000/svg" xmlns:xlink="http://www.w3.org/1999/xlink" x="0px" y="0px"
	 viewBox="9.5 360.1 580.5 120.1" style="enable-background:new 9.5 360.1 580.5 120.1;" xml:space="preserve">
<style type="text/css">
	.st0{fill:#242021;}
</style>
<g id="_x23_ffffffff">
	<path class="st0" d="M38.6,360.2c25.1,0.1,50.2-0.2,75.3,0.1c-1.4,6.4-2.8,12.9-4.2,19.3c-25.2,0-50.3,0-75.4,0
		C35.9,373.2,37.1,366.6,38.6,360.2z"/>
	<path class="st0" d="M130.4,360.4c7.2-0.5,14.5-0.1,21.7-0.2c10,18.6,20.3,37.1,30.3,55.7c0.9,1.5,1.5,3.3,3,4.4
		c4.2-20,8.6-39.9,12.4-60c7.2-0.3,14.5-0.1,21.7-0.1c-0.9,2.8-1.4,5.7-2,8.6c-5.7,27-11.4,53.9-17.1,80.9
		c-0.8,3.8-1.8,7.6-2.3,11.5c-5.1,0.3-10.3,0.1-15.4,0.2c-12.3-20.8-24.5-41.6-36.6-62.4c-0.5-1-1.2-1.6-2.1-2.1
		c-4.1,21.5-9.3,42.9-13.6,64.4c-7,0.1-14.1,0-21.1,0.1C116,427.7,123.6,394.1,130.4,360.4z"/>
	<path class="st0" d="M236.5,366.9c3.1-4.8,9.1-6.6,14.5-6.8c19.8,0.1,39.6-0.2,59.5,0.1c-1.9,6.5-3.1,13.3-4.3,20
		c-16,0.3-32.1,0-48.1,0.1c-3-0.1-4.5,3.1-4.9,5.6c-3.5,16.2-7,32.5-10.5,48.7c-0.4,1.7-0.3,3.5-0.2,5.2c0.6,0.3,1.8,0.9,2.4,1.2
		c16.2,0,32.4-0.2,48.7,0.1c-1.8,6.6-3.1,13.3-4.3,20c-19.7,0.4-39.5,0-59.2,0.2c-4.7,0.1-10.3-1.6-12.1-6.4
		c-1.3-4.7-0.4-9.6,0.7-14.2c3.9-18.6,7.8-37.1,11.8-55.7C231.8,378.8,232.5,372.2,236.5,366.9z"/>
	<path class="st0" d="M336.4,360.3c18.5-0.4,37.1,0,55.6-0.2c4.4-0.1,9.5,0.8,12.1,4.7c2.2,3.6,1.5,8,1,12
		c-4.4,21.4-9,42.7-13.5,64.1c-1,5.6-2.6,11.5-6.8,15.7c-3,3.2-7.5,4.4-11.7,4.8c-18.7,0-37.4,0-56.1,0c-4.1-0.2-8.8-1.6-10.9-5.5
		c-1.8-3.9-1.1-8.2-0.2-12.2c4.7-22.1,9.3-44.2,14-66.3c1.1-4.8,3-9.6,6.6-13.1C329.2,361.9,332.8,361,336.4,360.3 M344.9,379.6
		c-2,1.1-3.6,2.8-3.9,5.1c-3.4,15.5-6.6,31.1-10,46.6c-0.7,3-1.3,6-0.7,9.1c1.5,0.5,3,1,4.6,0.9c10,0,20.1-0.1,30.1,0
		c2-0.9,4-2.2,4.3-4.5c3.7-16.9,7.2-33.8,10.9-50.6c0.4-1.8,0.3-3.6-0.1-5.3c-1.4-0.4-2.7-1.2-4.2-1.1
		C365.7,379.6,355.3,379.7,344.9,379.6z"/>
	<path class="st0" d="M424.7,360.2c22.1,0,44.2,0,66.3,0c4.8,0,10.4,1.8,12.3,6.7c1,4.7,0.3,9.5-0.9,14.2
		c-1.8,7.6-2.8,15.4-5.1,22.9c-1.6,5.2-6.3,8.5-11.2,10.4c-0.8,0.1-2.4,0.2-3.2,0.3c3,0.8,6.3,0.5,8.9,2.5c2.7,2.1,2.8,5.9,2.4,9
		c-2.6,11.8-4.8,23.7-7.6,35.5c-7.5-0.1-15,0-22.5,0c1.9-11.6,4.8-23,7-34.6c0.4-2.1-2.3-3.2-4-3c-11.1,0.4-22.2-0.4-33.3,0.3
		c-2.2,12.4-5.4,24.7-7.6,37.1c-7.7,0.2-15.4,0.1-23,0.1c5.5-24.7,10.3-49.5,16-74.1c7.5-0.3,15.1-0.1,22.6-0.1
		c-1.1,6.8-3.2,13.4-3.8,20.2c11.1-0.1,22.1,0.1,33.2-0.1c4.3-1.2,3.9-6.6,5-10.1c0.7-5.6,3.4-11.1,2.5-16.8c-1.5-0.6-3-1-4.6-0.9
		c-17.8,0.1-35.7,0-53.5,0C422,373.2,423.2,366.6,424.7,360.2z"/>
	<path class="st0" d="M523.8,360.2c22,0,44.1,0,66.1,0c0.2,6.5,0.1,13,0,19.5c-23.3-0.1-46.6,0-69.9,0
		C520.6,373,522.6,366.7,523.8,360.2z"/>
	<path class="st0" d="M32.7,387.4c8-0.5,16-0.2,24-0.1c-1.6,5.4-2.6,10.9-3.6,16.4c12.8,0,37.1-0.1,37.1-0.1c-3.7,16.7,0,0-3.7,16.7
		c-12.4-0.1-24.8-0.4-37.2,0.2c-1.4,6.9-3,13.7-4.3,20.6c17.2,0.3,34.5-0.1,51.7,0.2c-1.6,6.7-2.8,13.4-4.3,20.1
		c-25.1,0.1-50.2,0-75.3,0C22.1,436.7,27.9,412.1,32.7,387.4z"/>
	<path class="st0" d="M518.2,387.3c7.8-0.4,15.7,0,23.6-0.1c-1.3,5.4-2.3,10.9-3.7,16.4c12.5,0.3,25,0,37.5,0.1
		c-1.4,5.4-2.4,11-3.5,16.5c-12.5,0.2-25.1-0.3-37.6,0.2c-1.2,7-3,13.8-4.3,20.8c17.2,0,34.4-0.1,51.7,0c-1.4,6.8-2.6,13.6-4.3,20.3
		c-25.1-0.1-50.2,0-75.2-0.1C507.8,436.7,512.7,411.9,518.2,387.3z"/>
	<path class="st0" d="M9.6,480.2c-0.1-2.5-0.1-5.1,0-7.6c192.2,0.1,384.5,0,576.7,0.1c0,2.5,0,5,0,7.5
		C394,480.2,201.8,480.1,9.6,480.2z"/>
</g>
</svg>
