<?xml version="1.0" encoding="utf-8"?>
<!-- Generator: Adobe Illustrator 19.0.0, SVG Export Plug-In . SVG Version: 6.00 Build 0)  -->
<svg version="1.1" id="Layer_1" xmlns="http://www.w3.org/2000/svg" xmlns:xlink="http://www.w3.org/1999/xlink" x="0px" y="0px"
	 viewBox="-233.5 381.7 76.1 68.8" style="enable-background:new -233.5 381.7 76.1 68.8;" xml:space="preserve">
<g id="_x23_fefefefe">
	<path d="M-233.5,401.6c25.4-6.6,50.7-13.2,76.1-19.9c-1.2,3.3-2.5,6.6-4.3,9.7c-19.8,5.8-39.7,11.4-59.5,17.2
		C-225.5,406.6-229.9,404.7-233.5,401.6z"/>
	<path d="M-208.4,408.7c4.3-1.1,8.4-2.5,12.6-3.7c-0.5,2-0.9,4.1-1.2,6.1c9.6-2.2,19.3-4.2,28.9-6.5c-0.9,3.4-2.6,6.6-4.5,9.6
		c-9.3,2.5-18.6,5-27.9,7.8c-2.4,9.5-4.9,18.9-7.3,28.4c-2.8-4.3-5.7-8.5-8.5-12.8C-213.5,428.1-211.2,418.3-208.4,408.7z"/>
</g>
</svg>
