<?xml version="1.0" encoding="utf-8"?>
<!-- Generator: Adobe Illustrator 21.0.0, SVG Export Plug-In . SVG Version: 6.00 Build 0)  -->
<svg version="1.1" id="Layer_1" xmlns="http://www.w3.org/2000/svg" xmlns:xlink="http://www.w3.org/1999/xlink" x="0px" y="0px"
	 viewBox="0 0 309 205.2" style="enable-background:new 0 0 309 205.2;" xml:space="preserve">
<style type="text/css">
	.st0{fill:#181617;}
</style>
<g id="_x23_181617ff">
	<path class="st0" d="M26.7,11.6c5.5-4.9,12.1-9,19.1-11.6c-2.4,13.1-5.7,26-10.7,38.3c-1.1,2.4-1.7,5.4-4.3,6.7
		c-4.8,2.7-10.1,4.3-15,6.6C19.1,38.2,22.8,24.9,26.7,11.6z"/>
	<path class="st0" d="M47.3,12.9c12.4-0.1,25,0.1,37,3.2c6.3,1.7,12.9,4.6,16.7,10.2c3.6,5.2,3.6,11.9,3.1,18
		c-1.8,17.8-4.6,35.6-10.5,52.5c-0.9,3.2-3.8,5-6.5,6.6c-5.6,3-11.6,5.5-17,8.9c1.2-8.7,2.2-17.4,3.2-26.2
		c-10.4-0.2-20.7-2.4-31.2-2c-5.2,0.2-10.8,1.8-13.9,6.3c-4.5,6.3-5.2,14.3-6.4,21.7c-0.4,4.1-1.5,8.1-1.5,12.2
		c1.3,6.8,6.5,12.2,12.5,15.3c7.2,3.6,15.5,2.5,23.3,3.3c77,2.7,154,0.3,231-0.7c-0.7,16.6-4.2,34.6-16.4,46.7
		c-11.8,11.7-29.1,15.2-45.1,16.2c-12.8,0.7-25.7,0-38.5-1.5c1.2-5.1,1.4-10.6,3.5-15.4c13.5-4.4,27.7-0.6,41.5-1.7
		c8.7-0.4,17.4-3.3,24-9.2c5.4-4.8,9.6-11,12.3-17.7c-83.1,0-166.2-0.2-249.3,0.1c-5.2-0.3-9.1-4.4-11.8-8.4c-5.7-8.8-7.7-19.6-7-30
		c0.3-5.7,0.1-11.5,1.4-17.1c2.8-14.1,6.6-28,10.2-42C34.3,62,56.9,62,79.6,61.8c1.2-5.6,1.5-11.7-0.9-17.1c-2-4.2-6.2-7.1-10.8-7.9
		c-8.9-1.5-18-2.1-27.1-1.6C43.4,27.9,45.5,20.4,47.3,12.9z"/>
	<path class="st0" d="M117.6,13.9c18.8,0,37.6-1,56.4,0.4c6.1,0.5,11.7,3.4,16.2,7.4c2.8-1.7,5.4-3.9,8.8-4.4c2.1,0,1.2,2.7,1.2,3.9
		c-1.9,13.3-3.3,26.9-9,39.2c-5.1,5-12.4,6.9-18.4,10.6c1.3-9,3.4-17.8,4.6-26.8c-0.4-4.8-5.3-7.7-9.6-8.7
		c-10.4-2.4-21.2-0.3-31.8-1c-3.7,16.9-7,33.9-11,50.7c-1.3,5.4-2.3,11.8,1.2,16.7c3.6,4.8,10.2,5.5,15.7,5.7c18-0.1,36-0.2,54-0.3
		c3.1,7.9,11.9,13.2,11.9,22.3c-26,0-51.9,1.1-77.9-0.3c-8.2-0.3-16.1-4.4-21.3-10.7c-6.9-8.3-9.3-19.9-7.1-30.4
		C106.6,63.3,112.2,38.6,117.6,13.9z"/>
	<path class="st0" d="M221.2,14.9c2.4-1.1,5-2.2,7.7-2.1c14.4,0.2,28.8,0.3,43.2,0.3c3.2-0.2,5.4,2.5,7.1,4.8
		c4.1,5.8,7.3,12.3,11.6,17.9c-17.4-0.4-34.8-0.4-52.3-0.5c-4.1,17.6-9.2,34.9-11.5,52.9c-1.7,7.3,4.9,12.8,10.1,16.8
		c9.6,7.1,22.1,3.4,33.1,3.5c1.1-5.2,2.4-10.3,3.7-15.5c7.4,0.9,14.9,1,22.3,1c-1.5,10.3-2.8,20.7-6,30.6c-2.7,3.8-7.4,6.1-11.9,6.8
		c-13.1,0.9-26.2,1-39.3,0.3c-8,0-16.2-1.9-22.7-6.7c-7.7-5.4-12.9-14.2-13.9-23.6c-0.9-6,0.6-12,1.8-17.9
		c3.1-14.8,7.2-29.5,11-44.1C217.1,31.2,217.6,22.5,221.2,14.9z"/>
	<path class="st0" d="M254.9,74c12.7-0.1,25.4,0.1,38.1,0.5c1.8,0,3,1.5,4.3,2.4c4.2,3.7,8.5,7.4,11.7,12.1v0.3
		c-14.1,0.6-28.5,1.2-42.5-1.7C261.3,84.5,258.8,78.5,254.9,74z"/>
	<path class="st0" d="M12.2,162.2c2.5,0.8,5.1,1.8,7.8,1.7c80.6-0.4,161.1,0,241.7-0.1c-1.8,2.8-3.7,5.5-5.9,8
		c-56.9-0.1-113.8-0.3-170.7-0.2c-19,0.1-38.1-0.1-57.1,0.6C21.9,170.6,15.7,167.5,12.2,162.2z"/>
</g>
</svg>
