<?xml version="1.0" encoding="utf-8"?>
<!-- Generator: Adobe Illustrator 21.0.0, SVG Export Plug-In . SVG Version: 6.00 Build 0)  -->
<svg version="1.1" id="Layer_1" xmlns="http://www.w3.org/2000/svg" xmlns:xlink="http://www.w3.org/1999/xlink" x="0px" y="0px"
	 viewBox="0 0 311.2 310.9" style="enable-background:new 0 0 311.2 310.9;" xml:space="preserve">
<style type="text/css">
	.st0{fill:url(#SVGID_1_);stroke:#E06819;stroke-width:9.375000e-02;}
	.st1{fill:#1C1D1F;stroke:#1C1D1F;stroke-width:9.375000e-02;}
	.st2{fill:url(#SVGID_2_);stroke:#B8B7B7;stroke-width:9.375000e-02;}
	.st3{fill:url(#SVGID_3_);stroke:#B8B7B7;stroke-width:9.375000e-02;}
	.st4{fill:#B8B7B7;stroke:#B8B7B7;stroke-width:9.375000e-02;}
</style>
<linearGradient id="SVGID_1_" gradientUnits="userSpaceOnUse" x1="155.5422" y1="4.734002e-02" x2="155.5422" y2="231.3551">
	<stop  offset="0" style="stop-color:#EC6119"/>
	<stop  offset="1" style="stop-color:#F08017"/>
</linearGradient>
<path class="st0" d="M124.4,29.1c4.7-9.5,8.5-19.5,13.1-29.1c12.1,0.2,24.2,0,36.4,0.1c4.5,9.7,8.1,19.8,13.2,29.1
	c12.9,3.1,25.1,8.5,36.6,15.1c9.6-3.9,19.4-7.5,29.1-11.3c2.9,2.8,5.8,5.8,8.7,8.7c-15.1,15.7-30.8,30.8-46.1,46.3
	c-4.1,3.9-7.8,8.1-12.1,11.8c-0.1-5.8,0-11.6,0-17.3c-8.4-5.4-17.8-9.5-27.5-11.8c-0.3,52.8,0.1,105.7-0.2,158.5
	c-4.2,0.9-8.4,2.1-12.6,2.1c-9,0.2-18.2,0.7-26.9-2.1c-0.2-0.4-0.5-1.2-0.7-1.6c0-52.3,0-104.5,0-156.8c-9.8,2.3-19.2,6.4-27.6,11.9
	c-0.1,5.8,0,11.5,0.1,17.3C88.5,80.5,69,61.1,49.6,41.7c3-2.9,5.8-6,9-8.7c9.7,3.9,19.5,7.4,29.1,11.5
	C99,37.4,111.6,32.5,124.4,29.1 M153.1,38.7c-4.4,1.5-5.9,7.7-2.7,11.1c3.5,4.3,11.4,1.9,12-3.5C163.5,41.3,157.8,36.6,153.1,38.7
	 M109.2,47.8c-4.4,1.8-5.3,8.1-1.9,11.2c3.7,3.7,10.9,1.7,11.8-3.5C120.6,50,114,45,109.2,47.8 M196.1,47.6c-4.7,1.9-5.6,9-1.3,11.9
	c4.1,3.3,11.1,0.3,11-5.1C206.5,49.5,200.5,45.3,196.1,47.6z"/>
<path class="st1" d="M153.1,38.7c4.7-2.1,10.4,2.5,9.3,7.5c-0.6,5.5-8.5,7.8-12,3.5C147.2,46.4,148.7,40.3,153.1,38.7z"/>
<path class="st1" d="M109.2,47.8c4.8-2.8,11.4,2.3,10,7.7c-0.9,5.3-8.2,7.3-11.8,3.5C103.9,55.8,104.8,49.6,109.2,47.8z"/>
<path class="st1" d="M196.1,47.6c4.4-2.3,10.4,1.9,9.7,6.8c0,5.3-7,8.4-11,5.1C190.5,56.7,191.4,49.5,196.1,47.6z"/>
<linearGradient id="SVGID_2_" gradientUnits="userSpaceOnUse" x1="44.6222" y1="50.3173" x2="44.6222" y2="260.8574">
	<stop  offset="0" style="stop-color:#D5D5D5"/>
	<stop  offset="1" style="stop-color:#A9A9A8"/>
</linearGradient>
<path class="st2" d="M32.8,58.7c2.9-2.8,5.5-5.9,8.7-8.4c15.6,16.3,31.8,32,47.6,48.1c-12.5,14.4-20.6,32.9-21.3,52.1
	c-1.3,17.4,2.7,35.2,11.8,50.2c2.3,4.7,6.2,8.4,8.8,12.9c-0.1,0.2-0.4,0.7-0.6,0.9c-12.6,12.4-25.1,25-37.7,37.4
	c-2.9,2.9-6,5.8-8.6,9c-2.6-2.8-5.6-5.3-7.8-8.4c3.3-9.8,7.4-19.3,10.9-29c-7-11.5-12.3-24-15.5-37.1c-9.7-4-19.2-8.6-28.9-12.5
	c-0.1-12.1,0-24.1-0.1-36.2c9.8-3.8,19.2-8.5,28.9-12.5c3.3-12.9,8.1-25.7,15.3-36.9C40.5,78.5,36.4,68.7,32.8,58.7 M51.3,106
	c-4.6,1.6-6.4,8.3-2.5,11.6c3.4,3.9,10.5,1.8,11.4-3.2C61.8,109.4,56.2,103.9,51.3,106 M41.3,149.9c-4.4,2.2-4.7,9.1-0.5,11.7
	c4.4,3.5,11.5-0.5,11-6C51.6,150.6,45.5,147.2,41.3,149.9 M50.3,192.9c-3.6,2-5.2,7.1-2.4,10.4c3,4.6,11.3,3.2,12.3-2.3
	C62.2,195.5,55.3,189.8,50.3,192.9z"/>
<linearGradient id="SVGID_3_" gradientUnits="userSpaceOnUse" x1="266.5922" y1="50.3473" x2="266.5922" y2="260.6774">
	<stop  offset="0" style="stop-color:#D5D5D5"/>
	<stop  offset="1" style="stop-color:#A9A9A8"/>
</linearGradient>
<path class="st3" d="M222,98.4c15.9-16.1,32-32,47.9-48c2.8,3.1,5.9,5.8,8.6,8.9c-2.9,5.7-4.6,11.9-7.2,17.7
	c-1.3,3.8-3.2,7.5-4.2,11.4c6.9,11.4,11.8,23.8,15,36.7c9.4,4.8,19.5,8.5,29,13.2c-0.3,10.8-0.1,21.6-0.1,32.4
	c-0.1,1.4,0.4,3.4-1.4,3.8c-8.7,4-17.6,7.6-26.4,11.6c-1.4,0.4-1.5,2-1.9,3.1c-3.1,11.3-7.4,22.3-13.5,32.3
	c-1.1,1.3-0.9,3.1-0.4,4.6c3.5,9,7,17.9,10.4,27c-2.6,2.6-5.3,5.1-8,7.7c-8-8.4-16.4-16.4-24.5-24.7c-7.8-7.4-15.1-15.5-23.2-22.5
	c8.5-8.8,13.8-20.2,17.8-31.6c5.6-19.6,4.9-41.3-3.4-60.1C233.2,113.2,228,105.4,222,98.4 M256.2,105.8c-5.2,0.9-7.3,8.3-3.4,11.8
	c3,3.1,8.6,2.4,10.7-1.3C267,111.6,261.7,104.3,256.2,105.8 M263.2,149.8c-4.9,2.1-4.9,10.1,0.1,12.1c4.7,2.8,11.1-2.1,10-7.4
	C272.5,150.2,267.1,147.6,263.2,149.8 M255.1,192.7c-5.3,1.8-5.9,10.1-0.9,12.6c4.1,2.3,9.7-0.3,10.4-5
	C265.6,195.3,259.8,190.4,255.1,192.7z"/>
<path class="st1" d="M51.3,106c5-2.1,10.6,3.4,8.9,8.5c-0.9,5-8.1,7.1-11.4,3.2C44.9,114.3,46.6,107.6,51.3,106z"/>
<path class="st1" d="M256.2,105.8c5.5-1.5,10.8,5.8,7.3,10.4c-2.2,3.7-7.7,4.4-10.7,1.3C248.9,114.1,251,106.7,256.2,105.8z"/>
<path class="st1" d="M41.3,149.9c4.3-2.7,10.4,0.7,10.5,5.7c0.5,5.5-6.7,9.5-11,6C36.5,159,36.8,152.1,41.3,149.9z"/>
<path class="st1" d="M263.2,149.8c3.9-2.2,9.3,0.4,10,4.7c1.2,5.2-5.2,10.2-10,7.4C258.3,159.9,258.4,151.9,263.2,149.8z"/>
<path class="st1" d="M50.3,192.9c5-3.2,11.9,2.6,10,8.1c-1,5.6-9.3,7-12.3,2.3C45.1,200.1,46.7,195,50.3,192.9z"/>
<path class="st1" d="M255.1,192.7c4.6-2.3,10.5,2.6,9.4,7.6c-0.6,4.7-6.3,7.3-10.4,5C249.2,202.8,249.8,194.5,255.1,192.7z"/>
<path class="st4" d="M164.9,243.6c17.7-1.8,35.4-8.8,48.3-21.3c2.1,3.1,5,5.5,7.6,8.2c13.3,13.2,26.4,26.6,39.8,39.6
	c-2.8,2.2-4.9,5.6-8,7.2c-6.5-1.2-12.4-4.6-18.6-6.7c-3.5-1.2-6.9-2.5-10.2-4.1c-11.8,6.8-24.4,12.5-37.7,15.4
	c-4.3,9.7-8.4,19.5-13,29c-11.1-0.1-22.1,0-33.2,0c-1.7,0.4-2.3-1.3-2.8-2.5c-3.8-8.8-7.9-17.5-11.7-26.3
	c-13.1-3.3-25.9-8.2-37.3-15.5c-9.7,3.9-19.6,7.4-29.3,11.4c-2.5-2.8-5.2-5.4-8-7.9c2.1-1.7,4.1-3.6,6-5.5
	c13.7-13.9,27.6-27.6,41.1-41.6c9.9,8.2,21.3,14.7,33.7,18.1C142.4,243.5,153.7,245.3,164.9,243.6 M109.1,251.5
	c-4.5,2.1-5.4,9-1.2,11.9c4.4,3.9,12-0.2,11.5-5.9C119.3,252.5,113.5,249.3,109.1,251.5 M195.2,251.8c-2,1.3-3.2,3.4-3.5,5.7
	c-0.1,3.5,2.8,6.6,6.1,7.3c4.8,0.8,9.6-4.4,7.8-9.1C204.6,251.4,198.9,249.6,195.2,251.8 M153.3,260c-5.4,1.6-6.3,9.6-1.5,12.5
	c4.3,3.4,11.3-0.6,10.9-5.9C162.8,261.9,157.6,258.4,153.3,260z"/>
<path class="st1" d="M109.1,251.5c4.4-2.2,10.2,1,10.4,6c0.5,5.7-7.2,9.8-11.5,5.9C103.7,260.6,104.6,253.6,109.1,251.5z"/>
<path class="st1" d="M195.2,251.8c3.7-2.2,9.4-0.4,10.4,4c1.7,4.7-3,9.9-7.8,9.1c-3.4-0.7-6.2-3.8-6.1-7.3
	C192,255.2,193.3,253.1,195.2,251.8z"/>
<path class="st1" d="M153.3,260c4.3-1.6,9.5,1.9,9.3,6.5c0.4,5.4-6.6,9.4-10.9,5.9C146.9,269.7,147.9,261.6,153.3,260z"/>
</svg>
