<?xml version="1.0" encoding="utf-8"?>
<!-- Generator: Adobe Illustrator 19.0.0, SVG Export Plug-In . SVG Version: 6.00 Build 0)  -->
<svg version="1.1" id="Layer_1" xmlns="http://www.w3.org/2000/svg" xmlns:xlink="http://www.w3.org/1999/xlink" x="0px" y="0px"
	 viewBox="-207.8 370.6 178.2 100.4" style="enable-background:new -207.8 370.6 178.2 100.4;" xml:space="preserve">
<style type="text/css">
	.st0{fill:#FE0000;}
</style>
<g id="_x23_000000ff">
	<path d="M-207.8,371.6c9.6,0,19.1,0,28.7,0c8.9,13.9,29.3,46.8,31.4,48.7c0.2-16.2-0.1-32.5,0-48.7c8.9,0,17.9,0,26.8,0
		c-6.8,20.8-13.7,41.6-20.2,62.5c10.8-3.6,21.3-8,31.9-12.1c-1.9,7-3.7,14-5.3,21c-3.4-1.8-6.7-3.7-10.3-5.3
		c2.9,11.1,6.5,22.1,9.3,33.3c-5.3,0-10.7,0-16,0c-5.4,0-10.8,0-16.2,0c-10.9-17.8-34.5-55.9-36-56.3c0.1,18.8,0.1,37.5,0,56.3
		c-4,0-8.1,0-12.1,0c-4,0-8.1,0-12.1,0c0-16.6,0-33.2,0-49.8C-207.8,404.6-207.9,388.1-207.8,371.6z"/>
</g>
<g id="_x23_fe0000ff">
	<path class="st0" d="M-97.9,371.6c10.8-1.2,23.2-1.6,36.9,0c3.3,0.4,6.5,0.9,9.6,1.4c1,0.3,2,0.7,3,1c9.4,4,16.6,12.7,18.5,22.8
		c0.6,7.3,0.5,15.1-3.4,21.6c-4.2,8.1-12.7,12.7-21.1,15.3c-9.4,1.9-19,0.9-28.6,1.2c-0.1,11.3,0.1,22.6,0,33.9
		c-0.1,0.4-0.4,1-1,1.5c-0.6,0.5-1.3,0.5-1.6,0.5c-1.4,0-13.1,0-28.7,0c5.2,0,7.8-7.3,11.8-11.5c4.3-4.5,8.2-8.8,11.7-13
		c-1.8,0-3.7,0-5.6,0c-1.9,0-3.8,0-5.6,0c1.8-6,3.6-12.2,5.3-18.5c1.7-6.2,3.3-12.3,4.7-18.3c0.6-1.7,1.1-3.6,1.5-5.8
		c0.4-2.3,0.7-4.4,0.8-6.2c-4.5,1.4-9.3,3-14.4,5c-4.9,1.9-9.5,4-13.7,6c1.3-2.6,2.6-5.3,4-8C-108.7,390.4-103.4,380.8-97.9,371.6z
		 M-83.8,394.1c0,6.3-0.1,12.5,0,18.8c6.8,0.1,10.9,0.4,17.1-1.5c3.5-1.8,6.3-4.1,6.3-7.8c0-3.1-2.9-8.1-6.3-8.8
		C-72.8,393.9-78.1,394.1-83.8,394.1z"/>
</g>
<polygon class="st0" points="-117.9,408.6 -89.9,397.5 -105.1,395.2 "/>
<polygon class="st0" points="-89.9,397.5 -102.1,446.4 -87.8,431 "/>
<polygon class="st0" points="-89.4,395.3 -98.6,444.8 -85.3,428.6 "/>
<polygon class="st0" points="-83.8,412.8 -83.8,394.1 -87.7,403.4 "/>
<polygon class="st0" points="-114.4,470.9 -90.9,446.4 -84,470.4 "/>
<polygon points="-147.7,371.6 -120.8,371.6 -134.5,378.1 "/>
</svg>
