<?xml version="1.0" encoding="utf-8"?>
<!-- Generator: Adobe Illustrator 19.0.0, SVG Export Plug-In . SVG Version: 6.00 Build 0)  -->
<svg version="1.1" id="Layer_1" xmlns="http://www.w3.org/2000/svg" xmlns:xlink="http://www.w3.org/1999/xlink" x="0px" y="0px"
	 viewBox="-244 361.9 106 119" style="enable-background:new -244 361.9 106 119;" xml:space="preserve">
<style type="text/css">
	.st0{fill:#171717;}
	.st1{fill:#1C1C1C;}
	.st2{fill:#FFFFFF;}
</style>
<g id="_x23_171717ff_1_">
	<path class="st0" d="M-193.1,474.7c-0.3-3.8-0.2-7.7-0.2-11.4c0-2.1,0.1-4.2,0-6.3c0-1.9,0-3.8,0-5.7c-0.1-4.2-0.1-8.6,0.3-13
		l0.2-2.1l2.1-0.5c1.6-0.4,3.4-1,5.6-2l2.9-1.3l1.4,3.6h2.7c0-6.7,0-13.4,0-20.1l0-8.6c-1.4,0-2.9,0-4.3,0c0,2.1,0,4.3,0,6.4
		c0,4.5,0,9.1,0,13.7l0,1.9l-1.7,0.8c-1.3,0.6-2.9,1.4-4.5,2l-3.5,1.2l-0.5-3.6c-0.7-5.2-0.7-10.4-0.6-15.4c0-2.7,0.1-5.5,0-8.2
		l0-0.2c0.1-5,0-10,0-14.9c0-7.4-0.1-15,0.2-22.6l0.1-2.6l2.6-0.2c0.3,0,0.6,0,0.9,0c3.6,0,6.3,1.8,8.8,3.3c0.5,0.3,1.1,0.7,1.6,1
		c3.2,1.9,6.5,3.8,9.7,5.7c5.3,3.1,10.8,6.3,16.2,9.5c0.8,0.5,1.7,1,2.6,1.4c2.6,1.5,5.4,3,7.7,5.2c2,1.8,2.1,4.3,2.2,6
		c0,0.3,0,0.7,0.1,1l0,0.1v0.1c0,4.7,0,9.3,0,14c0,9.2-0.1,18.7,0,28l0,0.8c0,1.8,0,3.7-0.5,5.7l-0.1,0.3l-0.2,0.3
		c-1.5,3-4.2,4.6-6.5,6.1c-0.4,0.2-0.8,0.5-1.2,0.7l-0.2,0.1c-6.5,3.6-13.1,7.6-19.4,11.4c-3.1,1.9-6.3,3.8-9.4,5.6
		c-0.7,0.4-1.3,0.8-2,1.2c-2.9,1.8-5.9,3.6-9.6,4.3l-3.3,0.6L-193.1,474.7z"/>
	<path class="st0" d="M-190.1,368.5c3.7-0.3,6.6,2.1,9.6,3.9c8.6,5,17.3,10,25.8,15.1c3.3,2,6.9,3.6,9.7,6.3
		c1.5,1.3,1.1,3.4,1.3,5.1c0,14-0.1,28,0,42c0,1.9,0,3.9-0.4,5.8c-1.3,2.7-4.2,4-6.6,5.6c-9.8,5.4-19.2,11.4-28.9,17.1
		c-3.4,2-6.6,4.4-10.6,5.1c-0.4-5.9,0-11.7-0.1-17.6c0-6.1-0.4-12.2,0.2-18.3c2.1-0.5,4.1-1.3,6.1-2.2c0.3,0.9,0.7,1.7,1,2.6
		c2.6,0,5.1,0,7.7,0c0-11.6,0-23.1,0-34.7c-3.4,0-6.9,0-10.3,0c0,7.7-0.1,15.4,0.1,23.1c-1.4,0.7-2.8,1.3-4.3,1.8
		c-1.1-7.7-0.3-15.5-0.6-23.3C-190.1,393.5-190.6,381-190.1,368.5z"/>
</g>
<g id="_x23_1c1c1cff">
	<path class="st1" d="M-200.5,365.4c2.7-1.5,5.4-3.4,8.6-3.5c3-0.3,5.9,1,8.4,2.5c12.3,7.1,24.7,13.9,37.1,20.9
		c4.5,2.6,8.3,7.2,8.3,12.6c0.2,15.6,0.1,31.3,0.1,47c0,5.7-4.3,10.3-8.9,13c-11.3,6.4-22.5,12.8-33.8,19.3
		c-2.6,1.5-5.3,2.7-8.1,3.7h-4.1c-2.9-1-5.6-2.2-8.3-3.7c-11.2-6.5-22.5-12.9-33.8-19.3c-4.4-2.5-8-6.5-9-11.5v-49.6
		c0.8-5.2,4.5-9.4,9-11.9C-223.5,378.4-212,371.9-200.5,365.4 M-190.1,368.5c-0.6,12.5-0.1,24.9-0.3,37.4c0.3,7.8-0.5,15.6,0.6,23.3
		c-1.8,0.2-4.6,1.3-5.6-0.9c-0.1-8,0-16,0-24c-3.5,0-7,0-10.5,0c0,7.9,0,15.8,0,23.6c0,3.5,0.6,7.2,2.9,10c3.6,3,8.8,1.7,12.9,0.7
		c-0.6,6.1-0.2,12.2-0.2,18.3c0.1,5.8-0.3,11.7,0.1,17.6c3.9-0.7,7.2-3.1,10.6-5.1c9.6-5.7,19.1-11.6,28.9-17.1
		c2.4-1.5,5.3-2.9,6.6-5.6c0.5-1.9,0.4-3.9,0.4-5.8c-0.1-14,0-28,0-42c-0.2-1.7,0.1-3.8-1.3-5.1c-2.8-2.8-6.4-4.3-9.7-6.3
		c-8.6-5.1-17.2-10.1-25.8-15.1C-183.5,370.6-186.4,368.2-190.1,368.5z"/>
</g>
<g id="_x23_171717ff">
	<path class="st0" d="M-190.1,368.5c3.7-0.3,6.6,2.1,9.6,3.9c8.6,5,17.3,10,25.8,15.1c3.3,2,6.9,3.6,9.7,6.3
		c1.5,1.3,1.1,3.4,1.3,5.1c0,14-0.1,28,0,42c0,1.9,0,3.9-0.4,5.8c-1.3,2.7-4.2,4-6.6,5.6c-9.8,5.4-19.2,11.4-28.9,17.1
		c-3.4,2-6.6,4.4-10.6,5.1c-0.4-5.9,0-11.7-0.1-17.6c0-6.1-0.4-12.2,0.2-18.3c2.1-0.5,4.1-1.3,6.1-2.2c0.3,0.9,0.7,1.7,1,2.6
		c2.6,0,5.1,0,7.7,0c0-11.6,0-23.1,0-34.7c-3.4,0-6.9,0-10.3,0c0,7.7-0.1,15.4,0.1,23.1c-1.4,0.7-2.8,1.3-4.3,1.8
		c-1.1-7.7-0.3-15.5-0.6-23.3C-190.1,393.5-190.6,381-190.1,368.5z"/>
</g>
<g id="_x23_ffffffff">
	<path class="st2" d="M-205.9,404.3c3.5,0,7,0,10.5,0c0,8-0.1,16,0,24c0.9,2.2,3.8,1.1,5.6,0.9c1.5-0.5,2.9-1.2,4.3-1.8
		c-0.1-7.7,0-15.4-0.1-23.1c3.4,0,6.9,0,10.3,0c0,11.6,0,23.1,0,34.7c-2.6,0-5.1,0-7.7,0c-0.3-0.9-0.7-1.7-1-2.6
		c-2,0.9-4,1.7-6.1,2.2c-4.2,1-9.3,2.3-12.9-0.7c-2.3-2.7-2.9-6.5-2.9-10C-205.9,420-205.9,412.1-205.9,404.3z"/>
</g>
</svg>
