<?xml version="1.0" encoding="utf-8"?>
<!-- Generator: Adobe Illustrator 19.1.0, SVG Export Plug-In . SVG Version: 6.00 Build 0)  -->
<svg version="1.1" id="Layer_1" xmlns="http://www.w3.org/2000/svg" xmlns:xlink="http://www.w3.org/1999/xlink" x="0px" y="0px"
	 viewBox="0 0 300 289" style="enable-background:new 0 0 300 289;" xml:space="preserve">
<style type="text/css">
	.st0{fill:none;}
	.st1{fill:#0C67A6;}
	.st2{fill:#FFFFFF;}
</style>
<g>
	<g>
		<polygon class="st0" points="138.6,113.6 165.2,116.7 164.9,110.4 154.6,109.1 154.4,100.7 164.6,102 164.3,95.2 137.8,91.9 
			138,98.8 148.6,100 148.9,108.4 138.4,107.2 		"/>
		<polygon class="st0" points="145,129.1 144.6,121.8 165.4,124.4 165.3,118 138.5,114.8 139.1,128.4 		"/>
		<g>
			<polygon class="st0" points="166.1,144 165.4,126.8 159.6,126.1 159.9,131.9 144.9,130 144.9,130 139.1,129.3 139.1,129.3 
				139.2,129.3 139.3,136.2 160.1,138.8 160.2,143.2 			"/>
			<polygon class="st0" points="166.8,162.2 150.4,153.9 166.3,149.4 166.2,145.1 166.1,144.9 159.2,144 139.8,149.8 140,155.2 
				166.9,169.7 			"/>
		</g>
	</g>
	<g>
		<path class="st0" d="M142.3,167.4c-1.4-0.2-2.6-1.4-2.7-2.9c-0.1-1.5,1.1-2.4,2.6-2.3c1.4,0.2,2.6,1.4,2.7,2.9
			S143.8,167.6,142.3,167.4z"/>
		<path class="st0" d="M147.5,180c-3.5-0.4-7.3-1.9-7.3-6.1c-0.1-4.2,3.5-4.9,7-4.2c3.5,0.4,7.3,2,7.4,6.1
			C154.6,179.7,150.9,180.5,147.5,180z M147.1,173.4c-0.9-0.2-3.7-0.4-3.7,1c0.1,1.3,3,1.8,3.8,1.9s3.8,0.4,3.7-1
			C150.9,173.9,148,173.5,147.1,173.4z"/>
		<path class="st0" d="M154.6,186.3l-1.7-0.2l0,0c1.2,0.9,2,1.9,2.3,3.5l-3.7-0.4c0-0.3,0-0.4,0-0.5c-0.1-2.6-1.8-2.7-3.9-3.1
			l-6.9-0.8l-0.2-3.8l13.8,1.7L154.6,186.3z"/>
		<path class="st0" d="M139.2,192.4c-0.9-0.1-1.9,0.1-1.9,1.2c0.1,1.7,2.7,1.8,3.9,1.9l1.8,0.3l0,0c-0.5-0.3-1-0.6-1.4-1.1
			c-0.4-0.4-0.7-1-0.6-1.6c-0.1-1.5,1.1-2.2,2.2-2.7c1.3-0.5,3.2-0.5,4.7-0.4c2.5,0.4,7.4,1.3,7.5,4.7c0.1,1.3-0.8,2.1-1.9,2.4l0,0
			l1.7,0.2l0.2,3.8l-15.1-1.8c-4.1-0.4-5.8-2.5-5.8-5.8c-0.1-3.4,1.8-4.5,4.9-4.4v3.3H139.2z M148.1,196.6c0.7,0.1,3.7,0.4,3.6-0.9
			s-3-1.8-3.7-1.9c-0.9-0.1-3.8-0.4-3.6,1C144.3,196,147.4,196.5,148.1,196.6z"/>
	</g>
</g>
<g>
	<g>
		<path class="st1" d="M23.5,7.2c3.7-1.1,7.6-0.7,11.5-0.8c78.7,0,157.4,0,236.1,0c9.2-0.4,17.7,7.7,17.8,16.9
			c0.1,81.1,0,162.1,0,243.2c0.2,6.9-4,13.6-10.2,16.5c-4.2,2.1-9.1,1.5-13.7,1.6c-78.7,0-157.3,0-236,0
			c-9.7,0.4-18.3-8.4-17.8-18.1c0-78.7,0-157.4,0-236c0-3.1-0.2-6.3,0.3-9.4C12.4,14.7,17.4,9.1,23.5,7.2z M32.3,13
			c-6.4,1.6-11.8,6.6-14,12.8c-1.6,4-1.2,8.4-1.2,12.7c0,73.4,0,146.7,0,220.1c0,7.9,5.1,15.4,12.4,18.5c4.6,2.1,9.7,1.7,14.6,1.7
			c72.7,0,145.3,0,218,0c8.1,0.3,16-4.7,19.2-12.1c2.3-4.7,1.8-10.1,1.8-15.2c0-72.7,0-145.3,0-218c0.3-8.2-4.8-16.3-12.5-19.5
			c-4.5-2.1-9.7-1.6-14.5-1.7c-70.7,0-141.4,0-212,0C40.1,12.4,36.1,12.1,32.3,13z"/>
	</g>
	<path class="st1" d="M228.7,18.2c11.4,0,22.8-0.1,34.2,0c7.5,0,14.3,6.6,14.3,14.2c0.1,13.8,0,27.5,0,41.3
		C224.4,57.4,171.8,41,119.1,24.6c-9.1-2.8-19.3-3.2-28.2,0.7c-8.7,3.6-15.4,10.7-21,18.1c-15.7,20.9-31.3,41.9-46.9,62.8
		c0-22.5,0-45.1,0-67.6c0-4.1-0.5-8.6,1.6-12.4C27,21.2,32.5,18,38,18.2c55.9,0,111.9,0.1,167.8-0.1c-3.7,3.4-7,7.2-9.7,11.5
		c-1.3,2.2-2.4,5.2-1.1,7.6c1.3,2.8,4.4,3.8,7.2,4.8c8.2,2.8,16.5,5.6,24.7,8.4c4,1.4,8.5,2.1,12.6,0.5c5.5-2,9.1-7,12.5-11.4
		c1.9-2.5,3.9-5.7,3.1-9c-0.9-3.3-4.3-4.8-7.2-5.8C241.5,22.5,235.1,20.4,228.7,18.2z"/>
	<path class="st1" d="M124.4,56.2c2.8-3.7,5.5-7.5,8.3-11.2c25.1,7.8,50.2,15.6,75.3,23.4c6.9,2.3,14.2,5.3,18.5,11.5
		c3.4,4.8,2.9,11.3,0.3,16.4c-2.3,4.8-5.5,9.2-8.6,13.4c-22.4,29.9-44.9,59.8-67.3,89.6c-5.6,7-10.8,14.7-18.7,19.2
		c-11.7,7.4-26.5,7.1-39.3,2.7c-10.1-3.1-20.1-6.2-30.2-9.4c27.9-37.7,55.8-75.3,83.8-113c5-6.1,9.1-13.5,8.8-21.5
		c-0.3-6.7-6-11.1-11.4-14C137.9,60.1,131,58.4,124.4,56.2z"/>
	<path class="st1" d="M223.8,250.4c17.8-23.7,35.5-47.4,53.3-71.1c0,26.4,0,52.9,0,79.3c0.1,7.9-7.3,14.8-15.1,14.4
		c-74.6,0-149.3,0-223.9,0c-5.7,0.3-10.9-3.2-13.7-8c9-12.2,18-24.4,27-36.5c41.4,12.9,82.8,25.7,124.2,38.6
		c8,2.5,16.7,3.2,24.8,0.8C209.9,264.9,217.8,258.1,223.8,250.4z"/>
</g>
<g>
	<g>
		<path class="st2" d="M32.3,13c3.8-0.9,7.8-0.6,11.7-0.7c70.7,0,141.4,0,212,0c4.9,0,10-0.4,14.5,1.7c7.6,3.1,12.8,11.2,12.5,19.5
			c0,72.7,0,145.3,0,218c0,5.1,0.5,10.5-1.8,15.2c-3.2,7.4-11.1,12.4-19.2,12.1c-72.7,0-145.4,0-218,0c-4.9,0-10,0.4-14.6-1.7
			c-7.3-3.1-12.4-10.6-12.4-18.5c0-73.4,0-146.7,0-220.1c0-4.2-0.3-8.6,1.2-12.7C20.5,19.6,25.9,14.6,32.3,13z M228.7,18.2
			c6.4,2.2,12.8,4.3,19.2,6.5c2.9,1,6.3,2.5,7.2,5.8c0.8,3.3-1.2,6.4-3.1,9c-3.4,4.5-7,9.5-12.5,11.4c-4.1,1.6-8.5,0.9-12.6-0.5
			c-8.2-2.8-16.5-5.6-24.7-8.4c-2.7-1-5.8-2-7.2-4.8c-1.4-2.5-0.2-5.4,1.1-7.6c2.7-4.3,6-8.1,9.7-11.5c-55.9,0.1-111.9,0-167.8,0.1
			c-5.5-0.2-11,3-13.5,7.9c-2.1,3.8-1.6,8.2-1.6,12.4c0,22.5,0,45.1,0,67.6c15.6-20.9,31.3-41.9,46.9-62.8
			c5.6-7.4,12.3-14.4,21-18.1c8.9-3.9,19.1-3.4,28.2-0.7C171.8,41,224.4,57.4,277.1,73.7c0-13.8,0.1-27.5,0-41.3
			c0-7.5-6.8-14.2-14.3-14.2C251.4,18.1,240.1,18.2,228.7,18.2z M124.4,56.2c6.6,2.1,13.4,3.8,19.6,7.3c5.4,2.9,11.1,7.3,11.4,14
			c0.3,8-3.9,15.5-8.8,21.5c-27.9,37.6-55.9,75.3-83.8,113c10.1,3.1,20.1,6.2,30.2,9.4c12.7,4.4,27.6,4.7,39.3-2.7
			c7.9-4.6,13.1-12.3,18.7-19.2c22.4-29.9,44.9-59.8,67.3-89.6c3.2-4.3,6.3-8.6,8.6-13.4c2.6-5.1,3.1-11.6-0.3-16.4
			c-4.3-6.2-11.6-9.2-18.5-11.5c-25.1-7.8-50.2-15.6-75.3-23.4C130,48.8,127.2,52.5,124.4,56.2z M223.8,250.4
			c-6,7.8-13.9,14.6-23.5,17.4c-8.1,2.4-16.8,1.7-24.8-0.8c-41.4-12.9-82.8-25.7-124.2-38.6c-9,12.2-18,24.4-27,36.5
			c2.8,4.8,8,8.3,13.7,8c74.7,0,149.3,0,223.9,0c7.9,0.4,15.2-6.4,15.1-14.4c0.1-26.4,0-52.9,0-79.3
			C259.3,202.9,241.6,226.7,223.8,250.4z"/>
	</g>
</g>
</svg>
