<?xml version="1.0" encoding="utf-8"?>
<!-- Generator: Adobe Illustrator 19.0.0, SVG Export Plug-In . SVG Version: 6.00 Build 0)  -->
<svg version="1.1" id="Layer_1" xmlns="http://www.w3.org/2000/svg" xmlns:xlink="http://www.w3.org/1999/xlink" x="0px" y="0px"
	 viewBox="-94 218.9 407 406" style="enable-background:new -94 218.9 407 406;" xml:space="preserve">
<style type="text/css">
	.st0{fill:#D0D2D2;}
	.st1{fill:#006BE5;}
	.st2{fill:#005AC0;}
	.st3{fill:#FFFFFF;}
</style>
<g id="_x23_d0d2d2ff">
	<path class="st0" d="M-3.1,252.8c28.5-19,61.9-30.6,96.1-33.2c34.9-2.8,70.6,3.4,102.3,18.2c36.8,17,68.1,45.3,88.9,80
		c18,29.9,28,64.6,28.8,99.5v11c-1.1,31.4-9.3,62.6-24.4,90.3c-15,27.6-36.5,51.7-62.3,69.7c-31.9,22.5-70.3,35.1-109.2,36.7h-13.6
		c-33.9-1-67.6-10.5-96.9-27.7c-35.6-20.8-64.7-52.6-82-90C-86.8,482.5-93,455.5-94,428.3v-11.2c0.6-25.7,6.1-51.3,16.2-74.9
		C-62.3,306-36,274.5-3.1,252.8 M71,238.8c-32.2,6.6-62.5,22.1-87,44c-24.3,21.8-42.9,50-53,81c-12.3,37.4-12.3,78.6,0,116
		c16.5,50.7,55.7,93.7,105.1,114c3.8,2.1,8,3.3,12.1,4.9c46.9,16.2,100.2,13.2,144.6-9.1c27-13.4,50.5-33.5,68.1-57.8
		c8.3-11.6,15.8-23.9,20.9-37.3c12.1-27.3,16.6-57.9,14.3-87.7c-2.6-33.6-14.7-66.3-34.4-93.6c-20.8-29-49.9-51.9-83-65
		C144.8,234.6,106.8,231.4,71,238.8z"/>
</g>
<g>
	<path class="st1" d="M296.1,406.9c-2.6-33.6-14.7-66.3-34.4-93.7c-20.8-29-49.9-51.9-83-65c-34-13.6-71.9-16.8-107.7-9.4
		c-32.2,6.6-62.5,22-87,44c-24.3,21.8-42.9,50-53,81c-12.3,37.4-12.3,78.7,0,116c16.5,50.7,55.7,93.7,105.1,114
		c3.8,2.1,8,3.3,12.1,4.9c46.9,16.2,100.2,13.2,144.6-9.1c27-13.4,50.5-33.5,68.1-57.8c8.3-11.6,15.8-23.9,20.9-37.3
		C293.9,467.2,298.4,436.6,296.1,406.9z M227.9,503.3c-13.8,20.8-33.3,37.5-55.5,48.8c-23,11.2-48.8,16.3-74.3,14.3
		c0.5-5.3,0.9-10.7,1.2-16c-28.9-2.3-57-14.7-77.8-34.9c-10.5-10-19.1-21.8-25.6-34.8c-4.8,2.4-9.6,4.8-14.4,7.2
		c-13.7-27.5-18.4-59.4-12.8-89.6c1-5.4,2.3-10.7,3.9-15.9c8.2,2.5,16.3,4.9,24.5,7.3C-9,409.9-9.6,431.5-4.6,452
		c6.6-1.4,13.1-3.2,19.6-4.8c-3.8-16.9-3.8-34.8,1.4-51.4c0.3,0,1,0.2,1.4,0.2c1.1,0.3,2.2,0.7,3.2,1.3c-1.1,4.3-2.1,8.6-2.8,12.9
		c-2,12.8-1,25.9,2.4,38.4c-0.5,0.2-1.6,0.7-2.2,1c1.9,6.8,4.7,13.3,8,19.6c0.5-0.2,1.6-0.7,2.2-1c2.8,4.9,6,9.6,9.5,14
		c-3.6,3-7.2,5.9-10.8,8.9c5.2,6.3,11.2,12.1,17.8,17.1c2.4,1.8,4.8,3.5,7.3,5c2.9,1.8,5.8,3.4,8.8,5c7.5-14.9,15.1-29.7,22.6-44.6
		c-8.5-4.6-16.2-11-21.3-19.3c-1-2.9-0.3-6.1-0.5-9.2c11.1,2.1,22.4,1.2,33.5,1.4c0,1.7,0,3.4,0,5.1c0.5,0.5,1.4,1.5,1.8,1.9
		c7.3,0,18.2,0,23.8,0c1.3-1.2,0.7-0.7,1.8-1.7c0-1.9,0-3.8,0-5.7c5.4-0.1,10.8-0.3,16.1-1.1c3-0.5,6-1.2,8.9-2c0,2.1,0,4.1,0,6.2
		c0,4.9,0,9.8,0,14.7c-2.6,2.3-5.2,4.5-8,6.4c-6,3.9-12.8,6.4-19.7,8.2c-0.5-1.6-0.9-3.2-1.3-4.8c-1.6,0.3-3.2,0.5-4.8,0.8
		c0.2,1.6,0.3,3.1,0.5,4.7c-6.5,0.4-13,0-19.4-1.5c-0.7,2.8-1.5,5.6-2.2,8.3c-1.6,6-3.1,12-4.7,18c-2,7.3-3.9,14.7-5.7,22
		c11.9,3.2,24.4,4,36.7,3c0,0.4,0.1,1.2,0.2,1.7c0.5,4.2,0.8,8.5,1.3,12.7c0.1,0.9,0.3,2.7,0.4,3.6c4-0.5,8-1,11.9-1.7
		c-0.6-3.1-1.2-6.2-1.8-9.4c-0.5-2.8-1.1-5.6-1.6-8.3c4.9-1.1,9.8-2.3,14.5-4.1c5.1-1.8,10-3.9,14.7-6.4c-1.1-2-2.2-4.1-3.3-6.1
		c-1.1-2.1-2.2-4.1-3.3-6.2c6.3-3.5,12.2-7.6,17.6-12.2c1.7,2,3.4,4,5.1,5.9c3.4,3.8,6.7,7.7,10.1,11.5c3.8-3.4,7.4-7,10.8-10.9
		c-4.3-3.7-8.5-7.4-12.8-11.2c-1.5-1.4-3.1-2.7-4.7-4.1c1.3-1.7,2.7-3.3,3.9-5.1c2.5-3.2,4.7-6.6,6.7-10c9.5,5.4,19,10.8,28.5,16.3
		c-1.8,3.1-3.6,6.1-5.6,9c-1.6,2.3-3.3,4.6-5.1,6.9c-3.8,4.7-7.9,9.2-12.2,13.4c2.2,2.3,4.3,4.6,6.5,6.9c3-2.9,6-5.9,8.7-9.1
		c2.6-3,5.2-6.1,7.5-9.3c3.1-4.2,5.9-8.6,8.5-13.1c2.4,1.4,4.9,2.8,7.3,4.2C231.6,497.3,229.8,500.3,227.9,503.3z M173.4,342.4
		c-0.3,0.4-0.8,1.1-1.1,1.5c-2.2,2.8-4.4,5.6-6.6,8.4c-2.1-1.6-4.2-3.2-6.4-4.6c-17.5-11.5-38.9-16.7-59.7-14.6
		c0.4,4.2,1,8.3,1.4,12.5c0,0.5,0.1,1.4,0.1,1.8c-5.2,0.8-10.3,1.7-15.2,3.4c-8.5,2.7-16.5,7.1-23.6,12.5c0.8,1.1,1.6,2.2,2.5,3.2
		c1.4,1.8,2.8,3.6,4.1,5.3c-8.6,6.9-15.5,15.9-19.9,26c-2.5-1.1-5.1-2.2-7.6-3.2c-5.5-2.4-11-4.7-16.5-7.1c-0.3,0.5-0.9,1.5-1.2,2
		c-1.4-0.6-2.8-1.2-4.2-1.8c0.2-0.8,0.4-1.5,0.6-2.2c-2.7-1.1-5.3-2.2-8-3.3c4.8-11.2,11.5-21.6,19.7-30.5
		C48.9,333.1,72.9,321,98,318.4c0.1,0.6,0.2,1.8,0.2,2.4C124.9,317.7,152.4,325.9,173.4,342.4z M178,402.1
		c-6.7,9.6-13.3,19.2-19.9,28.8c-3.7,5.7-10.5,8.1-16.8,9.5c-7.4,1.7-14.9,1.9-22.4,1.9c0.1,2.4,0.2,4.9,0.3,7.3
		c-6.5,0-13.1,0-19.6,0c0-2.3,0-4.7,0-7c-10.5-0.2-21.1,0.5-31.5-0.8c-4.3-0.7-9.1-1.5-12-5c-2-2.6-1.8-6.4,0.3-8.9
		c8.2-11.4,16.4-22.7,24.5-34.1c3.8-6.2,9.1-11.5,15.9-14.5c5.2-2.3,10.6-4.1,16.3-4.5c12-1,24.1-0.5,36.1-0.6
		c10,0.2,20.2-0.6,30.1,1.2c5.7,1,9.9,7.1,8.1,12.8C184.4,393.1,181,397.5,178,402.1z M229.1,359c-5.9,3.1-11.8,6.1-17.7,9.3
		c-0.1-0.2-0.3-0.5-0.5-0.7c-12.9-23.5-34-42.3-59-52c-2.8-1.1-5.6-2.1-8.4-3.1c-0.4,0.3-1.2,1-1.5,1.3c-5.7-1.6-11.5-3-17.4-3.7
		c-9.6-1.4-19.4-1.3-29-0.3c0-0.7-0.2-2.1-0.2-2.7c-28.4,3.3-55.3,17.5-74.1,39c-8.8,10-15.8,21.6-20.9,34c-0.9-0.3-1.8-0.6-2.7-1
		c-7.1-2.7-14.1-5.7-21.2-8.4c5.1-12.8,12-24.7,20.4-35.5c8.6-10.7,18.5-20.3,29.7-28.3l0.4-0.3l0.4,0.5c2.9,4.2,5.9,8.4,8.8,12.6
		c28.8-20.5,66.3-28,100.7-20.2c3.1,0.7,6.1,1.5,9.1,2.6c-0.5,1.6-1,3.2-1.5,4.8c4.7,1.5,9.3,3.2,13.9,5.2c2.3,1,4.6,2.1,6.9,3.2
		c1.5-3,3-6,4.6-8.9c2.2-4.3,4.4-8.6,6.6-12.9c0.3-0.5,0.8-1.5,1-2c26.5,13.6,48.7,35.5,62.6,61.8
		C236.4,355.2,232.8,357.1,229.1,359z"/>
	<path class="st1" d="M140.4,383.5c-6.8,0.1-13.6-0.2-20.3,0.1c-4.6,0.6-9.8,1.8-12.9,5.5c-9.5,12.8-19,25.7-28.5,38.5
		c-1,1.3-1.8,2.9-2.5,4.4c7.3,2.6,15.3,1,23,1.5c0-3,0-6,0-9.1c6.7,0,13.3,0,20,0c-0.1,2.8,0,5.7,0.2,8.5l-0.6,0.4
		c5.7-0.1,13.1,1.7,17-3.7c10-13.9,20-27.9,29.8-41.9C158.9,381.1,148.8,384.3,140.4,383.5z"/>
</g>
<path class="st2" d="M281.8,494.5c12.1-27.3,16.6-57.9,14.3-87.7c-2.6-33.6-14.7-66.3-34.4-93.7c-20.8-29-49.9-51.9-83-65
	c-34-13.6-71.9-16.8-107.7-9.4c-32.2,6.6-62.5,22-87,44c-24.3,21.8-42.9,50-53,81c-12.3,37.4-12.3,78.7,0,116
	c16.5,50.7,55.7,93.7,105.1,114c-4.2-3.5-9.3-5.3-14-8c-21.9-12.1-41.3-28.7-56.5-48.5C-54,512.1-66.7,481.6-70.9,450
	c-4.2-32.6,0.2-66.3,13.3-96.5C-45,324.6-24.9,299,0.3,280c26.5-20.1,58.6-32.7,91.7-36c37.3-3.9,75.8,3.9,108.4,22.3
	c24.3,13.6,45.5,32.8,61.3,55.7c20.6,29.7,32.2,65.6,32.3,101.8c0.4,21.8-3.4,43.7-10.8,64.2C282.5,490.1,282.2,492.3,281.8,494.5z"
	/>
<g>
	<g>
		<path class="st3" d="M177.4,291.5c26.5,13.6,48.7,35.4,62.6,61.8c-3.7,1.9-7.3,3.8-11,5.7c-5.9,3.1-11.8,6.1-17.7,9.3
			c0,0-0.1,0-0.1,0c-12.9-23.8-34.2-42.9-59.4-52.7c-2.8-1.1-5.6-2.1-8.4-3.1c-0.4,0.3-1.1,1-1.5,1.3c-5.7-1.6-11.5-3-17.4-3.7
			c-9.6-1.4-19.4-1.3-29.1-0.3c-0.1-0.7-0.2-2.1-0.2-2.7c-28.4,3.3-55.3,17.5-74.1,39c-8.8,10-15.8,21.6-20.9,34
			c-0.9-0.3-1.8-0.6-2.7-1c-7.1-2.7-14.1-5.7-21.2-8.4c5.1-12.8,12-24.7,20.4-35.6c8.6-10.7,18.5-20.3,29.7-28.3l0.4-0.3l0.4,0.6
			c2.9,4.2,5.9,8.4,8.8,12.6c28.8-20.5,66.3-28,100.7-20.2c3.1,0.7,6.1,1.5,9.1,2.6c-0.5,1.6-1,3.2-1.5,4.8
			c4.7,1.5,9.3,3.2,13.9,5.2c2.3,1,4.6,2.1,6.9,3.2c1.5-3,3-6,4.6-8.9c2.2-4.3,4.4-8.6,6.6-12.9C176.7,293,177.2,292,177.4,291.5z"
			/>
		<path class="st3" d="M31.8,351.7C48.9,333.1,72.9,321,98,318.4c0.1,0.6,0.2,1.8,0.2,2.4c26.6-3.1,54.1,5.1,75.1,21.6
			c-0.3,0.4-0.8,1.1-1.1,1.5c-2.2,2.8-4.4,5.6-6.6,8.4c-2.1-1.6-4.2-3.2-6.4-4.6c-17.4-11.5-38.9-16.7-59.7-14.6
			c0.4,4.2,1,8.3,1.4,12.5c0,0.5,0.1,1.4,0.1,1.8c-5.1,0.8-10.3,1.7-15.2,3.4c-8.6,2.7-16.5,7.1-23.7,12.5c0.8,1.1,1.7,2.2,2.5,3.2
			c1.4,1.8,2.8,3.6,4.1,5.3c-8.6,6.9-15.5,15.9-19.9,26c-2.5-1.1-5.1-2.2-7.6-3.2c-5.5-2.4-11-4.7-16.5-7.1c-0.3,0.5-0.9,1.5-1.2,2
			c-1.4-0.6-2.8-1.2-4.2-1.8c0.2-0.8,0.4-1.5,0.6-2.2c-2.7-1.1-5.3-2.2-7.9-3.3C16.8,371,23.5,360.6,31.8,351.7z"/>
		<path class="st3" d="M96.6,379.5c5.2-2.3,10.6-4.1,16.3-4.5c12-1,24.1-0.4,36.1-0.6c10,0.2,20.2-0.6,30.1,1.2
			c5.7,1,9.9,7.1,8.1,12.8c-2.9,4.7-6.3,9.1-9.3,13.7c-6.7,9.6-13.3,19.2-19.9,28.9c-3.7,5.7-10.5,8.1-16.8,9.5
			c-7.4,1.6-14.9,1.9-22.4,1.9c0.1,2.5,0.2,4.9,0.3,7.4c-6.5,0-13.1,0-19.6,0c0-2.4,0-4.7,0-7c-10.5-0.2-21.1,0.5-31.5-0.8
			c-4.3-0.7-9.1-1.5-12-5c-2-2.6-1.8-6.4,0.3-8.9c8.1-11.4,16.4-22.7,24.5-34.1C84.6,387.8,89.9,382.5,96.6,379.5 M107.3,389.2
			c-9.5,12.8-18.9,25.7-28.5,38.5c-1,1.4-1.8,2.9-2.5,4.4c7.3,2.6,15.4,1,23,1.5c0-3,0-6.1,0-9.1c6.7,0,13.3,0,20,0
			c-0.1,2.8,0,5.7,0.2,8.5l-0.6,0.4c5.7-0.1,13.1,1.7,17.1-3.7c10-13.9,20-27.9,29.8-41.9c-6.6-6.7-16.8-3.5-25.1-4.3
			c-6.8,0.1-13.6-0.2-20.3,0.1C115.5,384.2,110.4,385.4,107.3,389.2z"/>
		<path class="st3" d="M-31.4,398.3c1-5.4,2.3-10.7,3.9-15.9c8.2,2.5,16.3,4.9,24.5,7.3c-5.9,20.2-6.6,41.9-1.5,62.3
			c6.6-1.4,13.1-3.2,19.6-4.8c-3.8-16.9-3.8-34.8,1.4-51.4c0.3,0,1,0.2,1.3,0.2c1.1,0.3,2.2,0.7,3.2,1.3c-1.1,4.3-2.1,8.6-2.8,12.9
			c-2,12.8-1,25.9,2.4,38.4c-0.5,0.2-1.6,0.7-2.2,1c1.9,6.8,4.7,13.3,8,19.6c0.5-0.2,1.6-0.7,2.2-1c2.8,4.9,6,9.6,9.5,14
			c-3.6,3-7.2,5.9-10.8,8.9c5.2,6.4,11.2,12.1,17.8,17.1c2.4,1.8,4.8,3.5,7.3,5c2.9,1.8,5.8,3.4,8.8,5c7.5-14.9,15.1-29.7,22.6-44.6
			c-8.5-4.6-16.2-11-21.3-19.3c-1-2.9-0.3-6.1-0.5-9.2c11.1,2.1,22.4,1.2,33.5,1.4c0,1.7,0,3.4,0,5.1c0.5,0.5,1.4,1.5,1.8,1.9
			c7.2,0,14.4,0.1,21.6,0c1.8,0,2.8-0.9,4-1.7c0-1.9,0-3.8,0-5.7c5.4-0.1,10.8-0.3,16.1-1.1c3-0.5,6-1.2,8.9-2c0,2.1,0,4.1,0,6.2
			c0,4.9,0,9.8,0,14.7c-2.6,2.3-5.2,4.5-8,6.4c-6,3.9-12.8,6.4-19.7,8.2c-0.5-1.6-0.9-3.2-1.3-4.8c-1.6,0.3-3.2,0.5-4.8,0.8
			c0.2,1.6,0.3,3.1,0.5,4.7c-6.5,0.4-13,0-19.4-1.5c-0.7,2.8-1.4,5.6-2.2,8.4c-1.6,6-3.1,12-4.7,18c-2,7.3-3.8,14.7-5.7,22
			c11.9,3.2,24.4,4,36.7,3c0,0.4,0.1,1.2,0.2,1.7c0.5,4.2,0.8,8.5,1.3,12.7c0.1,0.9,0.3,2.7,0.4,3.6c4-0.5,8-1,11.9-1.7
			c-0.6-3.1-1.2-6.2-1.8-9.4c-0.5-2.8-1.1-5.6-1.6-8.3c4.9-1.1,9.8-2.3,14.6-4.1c5.1-1.8,10-3.9,14.7-6.4c-1.1-2-2.2-4.1-3.3-6.1
			c-1.1-2.1-2.2-4.1-3.3-6.2c6.3-3.5,12.2-7.6,17.6-12.2c1.7,2,3.4,4,5.1,5.9c3.4,3.8,6.7,7.7,10.1,11.5c3.8-3.4,7.4-7,10.8-10.9
			c-4.3-3.7-8.5-7.4-12.8-11.2c-1.6-1.4-3.1-2.7-4.7-4.1c1.3-1.7,2.7-3.3,3.9-5.1c2.5-3.2,4.7-6.6,6.7-10c9.5,5.4,19,10.8,28.5,16.3
			c-1.8,3.1-3.6,6.1-5.6,9c-1.6,2.3-3.3,4.6-5.1,6.9c-3.8,4.7-7.9,9.2-12.2,13.4c2.2,2.3,4.3,4.6,6.5,6.9c3-2.9,5.9-5.9,8.7-9.1
			c2.6-3,5.2-6.1,7.5-9.3c3.1-4.2,5.9-8.6,8.5-13.1c2.4,1.4,4.9,2.8,7.3,4.2c-1.8,3-3.6,6.1-5.5,9c-13.8,20.8-33.3,37.5-55.5,48.8
			c-23,11.2-48.8,16.3-74.3,14.3c0.5-5.3,0.9-10.7,1.2-16c-28.9-2.3-57-14.7-77.8-34.9c-10.5-10-19.1-21.8-25.6-34.8
			c-4.8,2.4-9.6,4.8-14.4,7.2C-32.3,460.4-36.9,428.5-31.4,398.3z"/>
	</g>
</g>
</svg>
