<?xml version="1.0" encoding="utf-8"?>
<!-- Generator: Adobe Illustrator 21.0.0, SVG Export Plug-In . SVG Version: 6.00 Build 0)  -->
<svg version="1.1" id="Layer_1" xmlns="http://www.w3.org/2000/svg" xmlns:xlink="http://www.w3.org/1999/xlink" x="0px" y="0px"
	 viewBox="0 0 54.3 54.3" style="enable-background:new 0 0 54.3 54.3;" xml:space="preserve">
<style type="text/css">
	.st0{fill:#0D2240;}
</style>
<g id="new_7_">
	<g>
		<path class="st0" d="M8.6,37.3c-1.9,0.9-4.4,2-7.2,3c0.5,2.1,1.2,4,2.1,5.7c2.1-1.3,3.9-2.7,5.3-3.8C8.6,40.5,8.5,38.9,8.6,37.3z"
			/>
		<path class="st0" d="M13.2,21.8L13.2,21.8C9.7,20.4,4.4,17.9,0,14.6v4.8c0,0.9,0,1.8,0,2.6c4.1,1.5,8.3,2.5,11.3,3
			C11.9,23.9,12.6,22.8,13.2,21.8z"/>
		<path class="st0" d="M18.2,16.2c-2.4-2.5-5.8-6.5-8.4-10.8L3.1,7.7c3.7,4.7,9,8.8,12.5,11.1C16.4,17.9,17.3,17,18.2,16.2z"/>
		<path class="st0" d="M21.3,13.9L21.3,13.9c1.2-0.8,2.4-1.4,3.5-1.9c-1-2.7-2.2-6.7-2.9-10.8l-6,2.1C17.5,7.5,19.6,11.3,21.3,13.9z
			"/>
		<path class="st0" d="M9.9,28.8L9.9,28.8c-2.6,0.1-6.1,0.1-9.8-0.4c0.1,2.1,0.2,4.1,0.3,6c3.2-0.4,6.2-1,8.5-1.6l0,0
			C9.2,31.4,9.5,30.1,9.9,28.8z"/>
		<path class="st0" d="M9.8,47.8c-0.8,0.9-1.6,1.9-2.7,3c0.8,0.8,1.7,1.5,2.7,2.2c0.6,0.4,1.3,0.8,1.9,1.3
			C11,51.9,10.3,49.8,9.8,47.8z"/>
		<path class="st0" d="M38.5,23.1c0.6,0.5,2.2,0,2.2,0l-1.1-1.3l-2.4-1.6C37.1,20.2,37.8,22.6,38.5,23.1z"/>
		<polygon class="st0" points="46.3,36.6 44.9,35.4 45.7,37.4 48.1,37.3 		"/>
		<path class="st0" d="M28.9,0c-1,3.2-1.3,7.1-0.2,11l0,0l0,0c0.4-0.4,3.5-3.6,6.3-6.7c0,0,3.7,4.2-1.5,8.5c0,0,9.1,6.4,9.7,6.6
			c0,0-0.5,2,0,3.7L50.4,37l-3.6,4.3l-5.3-3l2.6,4.1c0,0-2.9,0.4-3.8-0.1c-0.5-2.6-2.8-6.8-2.8-6.8l-5.4-2.2c0,0-2.4-2.9-2.2-7.1
			c0,0-2.7,11,4.6,13.8l10.2,12.9c9.3-6.5,9.6-15.5,9.6-33.5V8.8L28.9,0z"/>
	</g>
</g>
</svg>
