<?xml version="1.0" encoding="utf-8"?>
<!-- Generator: Adobe Illustrator 19.0.0, SVG Export Plug-In . SVG Version: 6.00 Build 0)  -->
<svg version="1.1" id="Layer_3" xmlns="http://www.w3.org/2000/svg" xmlns:xlink="http://www.w3.org/1999/xlink" x="0px" y="0px"
	 viewBox="124.4 325.5 545.1 392.8" style="enable-background:new 124.4 325.5 545.1 392.8;" xml:space="preserve">
<style type="text/css">
	.st0{fill:none;}
	.st1{fill:#00B4E5;}
</style>
<g>
	<g>
		<polygon class="st0" points="211,615.5 215.5,587.1 208.6,587.1 206.8,598.1 197.8,598.1 199.5,587.1 192.1,587.1 187.6,615.5 
			195,615.5 196.8,604.2 205.9,604.2 204.1,615.5 		"/>
		<polygon class="st0" points="228,609.3 220.1,609.3 223.6,587.1 216.7,587.1 212.2,615.5 227,615.5 		"/>
		<g>
			<polygon class="st0" points="244.7,587.1 226.3,587.1 225.3,593.3 231.4,593.3 228.9,609.3 228.9,609.3 227.9,615.5 227.9,615.5 
				227.9,615.5 235.3,615.5 238.8,593.3 243.7,593.3 			"/>
			<polygon class="st0" points="264.3,587.1 254.7,604.4 250.6,587.1 245.9,587.1 245.6,587.1 244.4,594.5 250,615.5 255.7,615.5 
				272.4,587.1 			"/>
		</g>
	</g>
	<g>
		<path class="st0" d="M269.1,613.5c-0.2,1.5-1.7,2.8-3.2,2.8c-1.6,0-2.6-1.3-2.3-2.8c0.2-1.5,1.7-2.8,3.2-2.8
			S269.3,612,269.1,613.5z"/>
		<path class="st0" d="M282.7,608.6c-0.6,3.8-2.4,7.7-6.9,7.7c-4.4,0-5-3.9-4.4-7.7c0.6-3.8,2.4-7.7,6.9-7.7
			C282.7,600.8,283.3,604.8,282.7,608.6z M275.6,608.6c-0.1,0.9-0.6,4,0.9,4c1.4,0,2-3.1,2.1-4c0.1-0.9,0.6-4-0.9-4
			S275.7,607.7,275.6,608.6z"/>
		<path class="st0" d="M289.8,601.1l-0.3,1.8h0.1c1-1.3,2.1-2.2,3.8-2.3l-0.6,4c-0.2,0-0.4-0.1-0.6-0.1c-2.8,0-3.1,1.8-3.4,4
			l-1.2,7.4h-4.1l2.3-14.8H289.8z"/>
		<path class="st0" d="M295.8,617.9c-0.1,0.9,0,2.1,1.2,2.1c1.8,0,2-2.8,2.2-4.1l0.3-1.9h-0.1c-0.4,0.5-0.8,1.1-1.2,1.5
			c-0.5,0.4-1.1,0.7-1.8,0.7c-1.5,0-2.3-1.2-2.8-2.5c-0.5-1.5-0.4-3.4-0.2-5c0.4-2.6,1.7-7.9,5.3-7.9c1.4,0,2.2,0.9,2.5,2.1h0.1
			l0.3-1.8h4.1l-2.6,16.1c-0.7,4.3-2.9,6.1-6.5,6.1c-3.5,0-4.8-2-4.5-5.4L295.8,617.9L295.8,617.9z M300.6,608.5
			c0.1-0.8,0.6-4-0.8-4s-2,3.1-2.1,4c-0.1,0.9-0.6,4,0.9,4C299.9,612.5,300.5,609.3,300.6,608.5z"/>
	</g>
</g>
<g id="n6WnU2.tif">
	<g>
		<path class="st1" d="M413,325.5c2.4,0.3,4.7,0.8,6.9,1.1c15,1.6,28.5,6.6,40.6,15.4c12.4,9.1,20.9,21.3,26.5,36.1
			c-8.8-4.1-17.6-6.3-26.8-7.7c-9.4-1.3-18.9-1.9-28.3-0.9c-10.6,0.9-20.9,2.8-31,6.5c-10.4,3.8-19.7,9.1-28,16.4
			c-8,6.9-14,15.6-19.8,24.3c-22.2,32.3-44.3,64.7-66.3,97.3c-9.9,14.6-19.5,29.6-29.3,44.4c-0.3,0.6-0.6,1.3-1.3,2.4
			c9.3,0,18,0.2,26.6,0c21.1-0.6,38.7-9.9,54.5-23.1c1.4-1.3,3-2.4,4.7-3.8c0.2,0.5,0.3,0.6,0.3,0.9c0.2,14.2,0.3,28.5,0.6,42.7
			c0.2,7.1,0.5,14.2,0.5,21.3c0.2,14-8.7,25.4-22.2,29c-2.2,0.6-4.4,0.6-6.6,0.6c-62,0-124.3,0-186.3,0c-1.3,0-2.7,0.2-3.9,0.3
			c0-0.2,0-0.3,0-0.6c0.3-0.5,0.8-0.9,1.1-1.4c19.2-27.2,38.6-54.3,57.8-81.6c23.5-33.1,46.9-66.1,70.2-99.2
			c13.7-19.4,27.6-38.6,41.1-58.1c9.1-13.2,19.2-25.5,32.3-35c19.5-14.3,41.1-23.1,65-26c2.5-0.3,5-0.8,7.7-1.1
			C404,325.5,408.4,325.5,413,325.5z"/>
		<path class="st1" d="M451.9,509.4c-0.2-2.8-0.3-5.8-0.3-8.7c-0.2-15.6-0.5-31.3-0.6-46.9c0-4.4-0.2-8.8,0-13.2
			c0.6-10.9,11.2-22.5,22-24.4c2.2-0.3,4.4-0.6,6.6-0.6c62,0,124.1,0,186,0c1.1,0,2.2,0,3.9,0c-1.9,2.7-3.5,5.2-5.2,7.6
			c-16.9,23.8-33.7,47.6-50.6,71.2c-20.6,29-41.3,58-61.7,87.1c-18.6,26.1-37,52.3-55.4,78.4c-7.1,10.1-14.8,19.5-24.3,27.2
			c-16.4,13.4-35,22.5-55.6,27.6c-12.3,3-24.6,4.1-37.2,3.3c-18.1-1.3-35-6.6-49.3-18.3c-10.9-8.7-18.3-19.8-23.3-32.6
			c-0.2-0.2,0-0.5,0-0.6c5.7,1.7,11.3,3.6,17.2,5c11,2.7,22.2,3.3,33.5,3c11-0.5,21.9-2.2,32.4-5.7c15.1-4.9,28.3-12.9,38.4-25.2
			c7.7-9.3,14.5-19.2,21.3-29.3c29-42.8,57.8-86,86.6-129c0.3-0.5,0.6-1.1,0.8-1.4c-32.3-4.7-60.9,2.7-84.7,26.1
			C452.4,509.9,452.1,509.6,451.9,509.4z"/>
		<path class="st1" d="M476.6,395.4c-4.4,1.3-8.8,2-12.9,3.6c-18.7,7.2-30.4,20.9-34.6,40.6c-0.9,4.3-1.3,8.8-1.3,13.1
			c-0.2,44.7,0.2,89.4-0.2,134.2c-0.2,14-4.9,27.1-13.9,38.1c-12,15-28,22.8-46.6,26.6c-9,1.9-18.1,2.2-27.1,1.4
			c-7.2-0.6-14.3-2.5-21.6-3.9c0-0.3,0-0.8,0.2-1.1c2-0.3,3.9-0.6,6-1.1c9-2,16.9-6.1,23.9-12.1c9.8-8.3,15.6-18.9,18-31.3
			c0.8-4.7,0.9-9.4,0.9-14.3c0-42.7,0-85.4,0-128c0-10.9,2-21.4,6.9-31.2c7.6-15.4,19.7-25.8,35.3-32.4c10.9-4.6,22.4-6.9,34.2-7.2
			C457.1,390.2,467.7,391.9,476.6,395.4z"/>
	</g>
</g>
</svg>
