<?xml version="1.0" encoding="utf-8"?>
<!-- Generator: Adobe Illustrator 19.0.0, SVG Export Plug-In . SVG Version: 6.00 Build 0)  -->
<svg version="1.1" id="Layer_1" xmlns="http://www.w3.org/2000/svg" xmlns:xlink="http://www.w3.org/1999/xlink" x="0px" y="0px"
	 viewBox="-83.297 276.164 233.474 289.806" style="enable-background:new -83.297 276.164 233.474 289.806;" xml:space="preserve">
<style type="text/css">
	.st0{fill:url(#SVGID_1_);}
	.st1{fill:#ECECEB;}
	.st2{fill:#ECECEC;}
	.st3{fill:#C6C7C6;}
	.st4{fill:#E4E4E3;}
	.st5{fill:#DDDDDD;}
	.st6{fill:none;}
	.st7{fill:#036AB6;}
	.st8{fill:url(#SVGID_2_);}
	.st9{fill:#0861AC;}
	.st10{fill:url(#SVGID_3_);}
	.st11{fill:url(#SVGID_4_);}
	.st12{fill:#F6F6F6;}
	.st13{fill:#F1F1F1;}
	.st14{fill:#207FC7;}
	.st15{fill:url(#SVGID_5_);}
	.st16{fill:#098ACD;}
	.st17{fill:url(#SVGID_6_);}
	.st18{fill:#0B5AA7;}
	.st19{fill:url(#SVGID_7_);}
</style>
<linearGradient id="SVGID_1_" gradientUnits="userSpaceOnUse" x1="17.8554" y1="553.4764" x2="-37.3325" y2="457.8882">
	<stop  offset="0" style="stop-color:#B5B6B4"/>
	<stop  offset="1" style="stop-color:#CCCCCB"/>
</linearGradient>
<path class="st0" d="M-59.13,470.78c6.92-4.18,13.77-8.67,21.17-11.93c10.43-0.22,20.91-0.37,31.34,0.12
	c1.32,10.1,3.96,19.98,5.2,30.09c1.28,8.8,3.37,17.47,4.72,26.26c1.13,9.27,3.32,18.37,4.85,27.58c0.61,4.96,1.43,9.89,2.39,14.8
	c-16.33-10.4-29.49-24.95-41.1-40.28c-8.94-12.02-17.02-24.67-24.22-37.8C-56.5,476.82-57.9,473.83-59.13,470.78z"/>
<g>
	<path class="st1" d="M108.12,502.679c0.067-0.1,0.132-0.202,0.198-0.302c-0.068,0.101-0.133,0.199-0.202,0.302
		C108.118,502.679,108.119,502.679,108.12,502.679z"/>
	<path class="st2" d="M107.908,502.971c6.589-9.949,13.401-21.414,18.582-32.161c-4.53-3.07-9.49-5.42-14.09-8.38
		c-2.98-1.48-5.81-3.92-9.33-3.74c-9.73-0.01-19.46-0.04-29.19,0.05c-1.59,8.71-3.71,17.33-4.72,26.14
		c-0.423,3.021-0.964,6.022-1.531,9.02c0.048-0.252,0.099-0.513,0.146-0.762C78.252,497.441,91.392,501.429,107.908,502.971z"/>
	<path class="st3" d="M108.679,501.828c-0.121,0.183-0.239,0.367-0.361,0.549c0.123-0.183,0.249-0.372,0.367-0.549
		C108.683,501.828,108.681,501.828,108.679,501.828z"/>
	<path class="st4" d="M67.831,492.827c-0.047,0.249-2.293,11.918-3.059,16.951c3.416,2.826,7.883,6.04,13.446,8.987
		c5.136,2.721,9.919,4.532,13.929,5.76c1.613-2.005,3.435-4.319,5.398-6.918c1.761-2.332,3.485-4.688,5.175-7.057
		c1.649-2.326,5.067-7.396,5.188-7.579C91.392,501.429,78.308,497.131,67.831,492.827z"/>
	<path class="st5" d="M64.2,514.29c-0.92,5.94-2.25,11.8-3.35,17.71c-1.44,8.63-2.5,17.33-4.46,25.88
		c13.839-8.887,25.457-20.601,35.757-33.355c-4.301-2.024-8.756-4.252-13.332-6.704c-4.98-2.669-9.661-5.366-14.044-8.043
		c-0.073,0.47-0.191,1.253-0.315,2.228C64.367,512.714,64.292,513.402,64.2,514.29z"/>
</g>
<path class="st6" d="M12.42,451.31c-1.045-0.213-2.092-0.42-3.145-0.57c1.105,1.586,2.398,3.413,3.922,5.408
	C12.916,454.539,12.651,452.928,12.42,451.31z"/>
<path class="st7" d="M-29.937,406.087c-3.361-6.84-5.794-13.268-7.578-18.944c-0.075-0.215-0.151-0.43-0.226-0.645
	c-14.669,8.504-29.345,16.996-44.099,25.362c3.68,15.43,9.94,30.12,15.71,44.87c16.75-9.272,33.175-19.145,49.876-28.511
	l-0.156-0.214C-20.776,422.251-25.578,414.959-29.937,406.087z"/>
<linearGradient id="SVGID_2_" gradientUnits="userSpaceOnUse" x1="-18.8956" y1="401.295" x2="148.92" y2="401.295">
	<stop  offset="0" style="stop-color:#03B2DF"/>
	<stop  offset="1" style="stop-color:#0564AF"/>
</linearGradient>
<path class="st8" d="M-11.427,405.643c1.323,4.441,2.99,9.377,5.233,15.095c0.197,0.501,0.39,0.973,0.585,1.46
	c12.222-7.043,24.424-14.129,36.599-21.247c1.78-1.21,4.07-0.83,5.77,0.31c7.75,4.62,15.64,9.01,23.42,13.57
	c24.43,13.84,48.49,28.34,73.12,41.8c5.72-14.72,12.06-29.34,15.62-44.77c-27.97-16-55.86-32.12-83.79-48.18
	c-10.51-5.79-20.61-12.32-31.31-17.72c-6.2,2.15-11.48,6.33-17.31,9.3c-11.839,6.709-23.629,13.503-35.406,20.319
	c0.025,0.15,0.047,0.3,0.072,0.45C-16.711,388.695-13.054,400.182-11.427,405.643z"/>
<path class="st9" d="M-9.237,437.822l-0.503-0.689c-7.438,4.409-14.865,8.837-22.3,13.256c11.214,0.018,22.428-0.011,33.642,0.09
	l-0.644-0.576L-9.237,437.822z"/>
<linearGradient id="SVGID_3_" gradientUnits="userSpaceOnUse" x1="30.447" y1="461.7918" x2="30.447" y2="565.97">
	<stop  offset="0" style="stop-color:#0C5AA5"/>
	<stop  offset="1" style="stop-color:#173F81"/>
</linearGradient>
<path class="st10" d="M14.254,461.792c1.483,7.496,3.191,14.955,4.256,22.528c1.33,9.39,3.82,18.58,5.09,27.99
	c1.56,9.87,3.95,19.6,5.38,29.5c1.23,8.12,3.39,16.07,4.75,24.16c1.47-11.49,4.54-22.7,6.12-34.17
	c2.435-12.17,4.493-24.402,6.79-36.591c-2.988-4.321-6.613-9.032-10.982-13.872c-5.13-5.683-10.209-10.35-14.819-14.129
	C18.644,465.402,16.449,463.597,14.254,461.792z"/>
<linearGradient id="SVGID_4_" gradientUnits="userSpaceOnUse" x1="49.782" y1="493.4016" x2="-48.6136" y2="322.9755">
	<stop  offset="0" style="stop-color:#B5B6B4"/>
	<stop  offset="1" style="stop-color:#CCCCCB"/>
</linearGradient>
<path class="st11" d="M46.644,495.213c0.755-3.524,1.51-7.048,2.265-10.572c-0.057-0.026-0.119-0.054-0.177-0.08
	c-0.726,3.544-1.423,7.094-2.093,10.648L46.644,495.213z"/>
<path class="st12" d="M-20.844,330.563c0.704-12.542,0,0,0.177-23.57c0.003-0.429-13.478,7.998-26.194,14.982
	c0.191,7.925,0.661,16.367,1.516,25.259c0.999,10.393,2.397,20.098,4.015,29.044c0.112,0.318,0.224,0.637,0.336,0.956
	c6.919-3.957,13.845-7.901,20.76-11.866C-21.84,349.44-21.125,335.561-20.844,330.563z"/>
<path class="st13" d="M-20.844,330.563c0.704-12.542,0,0,0.177-23.57c0.003-0.429-13.478,7.998-26.194,14.982
	c0.191,7.925,0.661,16.367,1.516,25.259c0.999,10.393,4.239,29.681,4.351,30c6.919-3.957,13.845-7.901,20.76-11.866
	C-21.84,349.44-21.125,335.561-20.844,330.563z"/>
<path class="st14" d="M-37.515,387.143c1.783,5.676,4.217,12.104,7.578,18.944c4.359,8.871,9.162,16.164,13.527,21.918l0.156,0.214
	c2.014-1.13,4.031-2.256,6.054-3.369c1.532-0.881,3.06-1.77,4.591-2.653c-0.195-0.487-0.388-0.959-0.585-1.46
	c-2.243-5.718-3.911-10.654-5.233-15.095c-1.627-5.46-5.284-16.948-7.396-29.614c-0.025-0.15-0.048-0.3-0.072-0.45
	c-6.284,3.637-12.565,7.278-18.846,10.92C-37.666,386.713-37.59,386.928-37.515,387.143z"/>
<linearGradient id="SVGID_5_" gradientUnits="userSpaceOnUse" x1="-39.3683" y1="389.3164" x2="0.1891" y2="412.1549">
	<stop  offset="0" style="stop-color:#00ACDC"/>
	<stop  offset="1" style="stop-color:#0996D2"/>
</linearGradient>
<path class="st15" d="M-37.515,387.143c1.783,5.676,4.217,12.104,7.578,18.944c4.359,8.871,9.162,16.164,13.527,21.918l0.156,0.214
	c2.014-1.13,4.031-2.256,6.054-3.369c1.532-0.881,3.06-1.77,4.591-2.653c-0.195-0.487-0.388-0.959-0.585-1.46
	c-2.243-5.718-3.911-10.654-5.233-15.095c-1.627-5.46-5.284-16.948-7.396-29.614c-0.025-0.15-0.048-0.3-0.072-0.45
	c-6.284,3.637-12.565,7.278-18.846,10.92C-37.666,386.713-37.59,386.928-37.515,387.143z"/>
<path class="st14" d="M-9.237,437.822l10.194,12.082l0.644,0.576c1.476,0.013,2.952,0.021,4.428,0.04
	c1.091-0.025,2.171,0.068,3.245,0.22c-0.104-0.149-0.213-0.305-0.314-0.45c-2.318-3.335-5.963-8.942-10.266-18.134
	c-2.813,1.656-5.627,3.313-8.435,4.977L-9.237,437.822z"/>
<path class="st16" d="M-9.237,437.822l10.194,12.082l0.644,0.576c1.476,0.013,2.952,0.021,4.428,0.04
	c1.091-0.025,2.171,0.068,3.245,0.22c-0.104-0.149-0.213-0.305-0.314-0.45c-2.318-3.335-5.963-8.942-10.266-18.134
	c-2.813,1.656-5.627,3.313-8.435,4.977L-9.237,437.822z"/>
<g>
	<path class="st4" d="M-79.87,340.9c-1.44,0.95-3.69,1.81-3.38,3.94c0.08,18.68-0.26,37.37,0.2,56.04c2.81-0.99,5.34-2.56,7.87-4.11
		c11.403-6.497,22.792-13.021,34.185-19.536c-0.112-0.318-0.224-0.637-0.336-0.956c-1.618-8.946-3.016-18.651-4.015-29.044
		c-0.854-8.892-1.325-17.334-1.516-25.259C-43.795,320.291-65.829,332.813-79.87,340.9z"/>
	<linearGradient id="SVGID_6_" gradientUnits="userSpaceOnUse" x1="-21.247" y1="338.5672" x2="150.1772" y2="338.5672">
		<stop  offset="0.5" style="stop-color:#EFEFEF"/>
		<stop  offset="0.7568" style="stop-color:#EDEDEC"/>
		<stop  offset="0.9111" style="stop-color:#E5E5E4"/>
		<stop  offset="1" style="stop-color:#DCDCDB"/>
	</linearGradient>
	<path class="st17" d="M149.94,343.04c-3.53-3.05-7.96-4.81-11.89-7.28c-34.13-19.71-68.38-39.22-102.48-58.99
		c-2.9-1.92-5.7,1.23-8.19,2.47c-21.744,12.408-48.045,27.428-48.047,27.753c-0.177,23.57,0.527,11.028-0.177,23.57
		c-0.28,4.998-0.996,18.877,0.609,34.805C-2.241,355.05,15.738,344.706,33.7,334.33c16.3,9.76,32.97,18.9,49.36,28.51
		c22.28,12.65,44.38,25.62,66.73,38.13C150.31,381.67,150.25,362.34,149.94,343.04z"/>
</g>
<polygon class="st18" points="46.64,495.209 20.108,466.607 48.733,484.561 "/>
<linearGradient id="SVGID_7_" gradientUnits="userSpaceOnUse" x1="-1.3049" y1="448.4454" x2="99.15" y2="448.4454">
	<stop  offset="0" style="stop-color:#099BD3"/>
	<stop  offset="1" style="stop-color:#1872B1"/>
</linearGradient>
<path class="st19" d="M9.275,450.74c1.053,0.15,2.1,0.357,3.145,0.57c0.231,1.618,1.554,8.873,1.834,10.482
	c5.181,4.501,11.42,9.329,18.783,14.009c5.513,3.504,10.806,6.386,15.696,8.759c0.209-1.02,0.412-2.042,0.627-3.061
	c1.39-10.15,3.91-20.09,5.38-30.22c1.68-0.53,3.41-0.88,5.19-0.8c13.07,0.03,26.15-0.03,39.22-0.07
	c-10.88-6.78-22.06-13.06-33.1-19.57c-10.77-6.08-21.283-12.402-32.15-18.51c-5.211,2.342-9.31,5.03-13.97,7.49
	c-7.115,4.056-14.182,8.185-21.235,12.336c1.213,3.117,2.839,6.666,5.037,10.422C5.574,445.728,7.478,448.444,9.275,450.74z"/>
</svg>
