<?xml version="1.0" encoding="utf-8"?>
<!-- Generator: Adobe Illustrator 19.0.0, SVG Export Plug-In . SVG Version: 6.00 Build 0)  -->
<svg version="1.1" id="Layer_1" xmlns="http://www.w3.org/2000/svg" xmlns:xlink="http://www.w3.org/1999/xlink" x="0px" y="0px"
	 viewBox="-158.4 283.5 275.7 275.7" style="enable-background:new -158.4 283.5 275.7 275.7;" xml:space="preserve">
<g id="_x23_ffffffff">
</g>
<g id="_x23_000000ff">
	<path d="M-110.4,316.4c22.1-19.1,50.4-30.7,79.5-32.8c7.3-0.1,14.5-0.1,21.8,0.1c28.8,2.2,56.8,13.9,78.7,32.8
		c-5.5,5.4-10.9,10.9-16.4,16.4c-18.5-15.6-42.1-24.9-66.2-26.4c-29.1-2-58.7,7.7-81,26.3C-99.5,327.3-104.9,321.8-110.4,316.4z"/>
	<path d="M-158.3,423.9c-1-33.6,11.2-67.2,33.1-92.6c5.4,5.5,11.1,10.9,16.4,16.5c-15.6,18.4-24.8,42-26.3,66
		c-2.1,29.1,7.7,58.7,26.4,81.1c-5.5,5.4-10.9,10.9-16.4,16.3C-146,487.2-158,455.6-158.3,423.9z"/>
	<path d="M68,347.5c5.4-5.4,10.9-10.9,16.3-16.3c19.4,22.4,31.1,51.2,33,80.8c0,5.9,0,11.9,0,17.8c-1.7,29.8-13.5,58.8-32.9,81.4
		c-5.5-5.4-10.9-10.9-16.3-16.3c17-20.6,26.8-47.2,26.4-74C94.8,394.3,84.9,368,68,347.5z"/>
	<path d="M-8.1,377.5c13.1-6.7,21.7-19.4,28.7-31.9c-0.6,12.1-1.6,24.7,2.5,36.4c2.6,7.4,8.6,14.5,16.9,15.5
		c11.9,1.6,23.9-3.7,32.6-11.7c-12.7,24.9-24.5,50.4-32.1,77.4c1.5,2.8,3.3,5.6,3.1,8.9c-0.1,6.5-4.5,12.1-9.6,15.8
		c1.1-2.8,2.2-5.9,1.2-8.9c-1.2-6.1-7.1-9.6-12.2-12c-16.6-7.2-35.2-9.1-53.1-8c-12.4,0.8-24.7,3.3-36,8.5c-4.8,2.3-10,5.8-11,11.4
		c-0.8,3.1,0.1,6.2,1.4,9.1c-4.5-3.6-8.8-8.2-9.6-14.2c-0.7-3.6,0.9-7,2.6-10c-7.5-27.2-19.4-52.9-32.2-77.9
		c8.9,7.8,20.9,13.3,32.9,11.5c6.9-1,12.3-6.4,15.3-12.4c5.7-12.2,4.3-26.1,3.9-39.2c7,12.9,16,26,29.8,32.4
		C-25.3,382-15.8,381.6-8.1,377.5z"/>
	<path d="M-66.4,485c0.7-2.8,3.1-4.5,5.5-5.7c24.3,13.1,55.3,13.1,79.6,0.1c2.9,1.5,5.7,4.1,5.6,7.6c-0.3,3.6-3.3,6.4-6.4,7.8
		c-24.9,10.6-54.2,10.5-79-0.5C-64.6,492.7-67.6,488.9-66.4,485z"/>
	<path d="M-110.4,525.9c5.4-5.5,10.9-10.9,16.3-16.4c20.8,17.4,47.9,27.1,75,26.6c26.2-0.1,52.1-9.8,72.2-26.5
		c5.4,5.5,10.9,10.9,16.4,16.4c-21.1,18.1-47.8,29.6-75.5,32.4C-43.2,562.6-82.1,550.6-110.4,525.9z"/>
</g>
</svg>
