<?xml version="1.0" encoding="utf-8"?>
<!-- Generator: Adobe Illustrator 19.0.0, SVG Export Plug-In . SVG Version: 6.00 Build 0)  -->
<svg version="1.1" id="Layer_1" xmlns="http://www.w3.org/2000/svg" xmlns:xlink="http://www.w3.org/1999/xlink" x="0px" y="0px"
	 viewBox="2 120.9 600 600" style="enable-background:new 2 120.9 600 600;" xml:space="preserve">
<style type="text/css">
	.st0{fill:#6E6D75;}
	.st1{fill:#C60F2F;}
	.st2{fill:#A8A9AD;}
	.st3{fill:#810120;}
	.st4{fill:#002E62;}
	.st5{fill:#FFFFFF;}
</style>
<g id="_x23_6e6d75ff_1_">
	<path class="st0" d="M300.4,574.1c-1.7-3.7-3.3-7.4-4.8-11c-2.3-5.3-4.7-10.8-7.2-16.1c-1.2-2.4-2.5-5-3.6-7.7
		c-0.4,1-0.8,2.1-1.2,3.1c-0.3,0.7-0.5,1.4-0.8,2.1l-0.3,0.7l-0.7,0.3c-16.9,8.6-34.4,17.1-49.4,24.4l-2.9,1.4l0-3.2
		c0-5.9,0-11.8,0-17.7c0-4.4,0-8.8,0-13.2l0-0.6l0.3-0.5c2.7-4.4,5.8-8.7,8.7-12.8c3.3-4.7,6.7-9.5,9.7-14.4l0.1-0.1l0.1-0.1
		c0.3-0.4,1-1.3,1.3-1.7c4.3-5.7,8.4-11.7,12.4-17.6c1-1.5,2.1-3,3.1-4.5c0.1-2.7,0.1-5.5,0.1-8.2c0-0.3,0-0.7,0-1
		c-6.9-0.7-14-1.1-20.8-1.5c-6-0.4-12.3-0.7-18.4-1.3c-1.3,0-2.6-0.1-3.8-0.2c-1.4-0.1-2.7-0.2-4-0.2c-0.9,0-1.6,0-2.4,0.1l-0.4,0
		l-0.4-0.1c-0.6-0.2-1.5-0.4-2.3-0.6l-0.8,0c-3.8-0.1-7.6-0.4-11.3-0.7c-3.9-0.3-8-0.6-11.9-0.7l-3.3,1.6c-2.8,1.4-5.7,2.8-8.5,4.2
		l-2.9,1.4l0-3.2c0-5,0-10,0-15c0-6.8,0-13.8-0.1-20.8c-0.1-1.2-0.1-2.4-0.1-3.7c0.4-7.7,0.2-15.4,0.1-22.8c0-0.6-0.1-1.8-0.1-2.4
		l0-2.9c0-3.2-0.1-6.4-0.2-9.7c-0.1-5.1-0.2-10.3-0.2-15.4l0.1-5.5l5.1,6.2l0.1,0.3c1.8,4.3,3.6,8.6,5.3,12.9
		c3.3,8,6.7,16.3,10.3,24.3c2.9-1.3,5.7-2.7,8.5-4c3.8-1.9,7.7-3.8,11.7-5.4c8.3-3.6,16.6-7.6,24.6-11.5c4.9-2.4,10.1-4.9,15.1-7.2
		c0.9-0.5,2-0.9,3-1.4c2.1-1,4-1.9,5.8-3.1l0.1-0.1c1-0.6,2-1,3-1.5c1-0.5,2-0.9,2.8-1.4c-0.1-2.4,0.3-4.8,0.6-7.1
		c0.4-2.6,0.7-5.1,0.5-7.6l0-0.2l0-0.2c0.1-0.9,0.3-1.8,0.4-2.7c0.4-2.5,0.8-4.9,0.7-7.3l0-0.2l0-0.2c0.8-4.1,1.1-8.4,1.4-12.5
		c0.2-2.9,0.4-5.9,0.8-8.8l0-0.1c0.6-3.1,1.3-6.2,2-9.1c1.1-4.9,2.3-9.9,2.9-14.9l0-0.1c0.2-1,0.5-2,0.7-2.7
		c4.9-21.3,9.5-43.1,14-64.2c2.3-10.6,4.5-21.3,6.8-31.9l0.2-1l0.9-0.4c0.1,0,2.9-1.3,2.9-1.3l0.5,2.5c3.9,18.2,7.9,36.7,11.9,54.5
		c2.9,13.1,5.8,26.2,8.6,39.3c0.3,1.2,0.6,2.4,1,3.6l0.1,0.2l0.3,2.1c0.4,1.8,0.7,3.5,1.1,5.3c0.8,4.3,1.7,8.8,3.2,12.9
		c1.2,3.7,1.5,7.4,1.7,11c0.2,2.7,0.3,5.3,0.9,7.9l0.1,0.3l0,0.3c-0.2,2.6,0.2,5.2,0.5,8c0.4,2.8,0.8,5.6,0.6,8.5
		c0.7,2.8,0.8,5.6,0.9,8.4c0.1,2.8,0.2,5.5,0.9,8c3.5,1.7,7.1,3.4,10.6,5c8.5,4,17.2,8.1,25.6,12.4l1.7,0.9
		c3.3,1.8,6.8,3.6,10.3,4.7l0.1,0l0.1,0.1c6,2.8,12,5.7,18,8.6c2.7,1.3,5.3,2.5,8,3.8c2.9-7.5,6-15,8.9-22.4
		c2.1-5.2,4.1-10.3,6.2-15.5l0.1-0.3l5-5.6l0.1,5c0.2,7.3,0.2,15,0,25c0,0.4-0.1,2.7-0.1,3.1c0.2,4.9,0.2,9.8,0.1,14.6
		c0,4.8-0.1,9.7,0.2,14.6l0,0.7l-0.5,0.7c0,3.6,0,7.2,0,10.8c0,7.8,0,15.8-0.1,23.7l0,3.2l-2.9-1.4c-1.3-0.7-2.7-1.3-4-2
		c-2.6-1.3-5.3-2.7-8-3.9c-2.7,0.2-5.5,0.4-8.2,0.5c-4.7,0.3-9.5,0.6-14.2,1.1c-2,0.5-4,0.6-5.6,0.6c-0.6,0-1.2,0-1.8,0
		c-0.6,0-1.1,0-1.7,0c-1.3,0-2.7,0-4.2,0.4c-2.5,0.6-5.1,0.6-7.2,0.6l-2.4,0c-1.9,0-4.2,0-6.3,0.5c-2.2,0.4-4.3,0.5-6.3,0.5l-2.6,0
		c-2.2,0-4.1,0.1-5.9,0.5c-2.2,0.4-4.4,0.5-6.4,0.5c0,0-2.8,0-2.9,0c0,3-0.1,6.2,0,9.3c2.2,3.3,4.6,6.6,6.8,9.9
		c3.4,4.8,6.9,9.7,10,14.8c3.2,4.9,6.7,9.8,10,14.6c2.6,3.7,5.3,7.6,7.9,11.4l0.3,0.5l0,0.6c0.1,8.3,0,16.6,0,24.8l0,9.7l-2.9-1.4
		c-17.4-8.5-33.5-16.5-49.3-24.3l-0.7-0.3l-0.3-0.7c-0.2-0.6-0.5-1.2-0.7-1.7c-0.5-1.3-1.1-2.5-1.5-3.8c-3.4,7.9-7,15.8-10.5,23.5
		c-1.8,3.8-3.5,7.7-5.3,11.5l-1.8,4L300.4,574.1z M274.6,485.8c0.2,1.9-0.8,3.3-1.5,4.3c-0.2,0.3-0.4,0.5-0.5,0.8l-0.1,0.1
		c-5.5,7.8-10.9,15.6-16.3,23.5c-5.3,7.7-10.7,15.4-16.1,23.1c-0.1,0.2-0.3,0.4-0.4,0.6c-0.4,0.6-0.9,1.2-0.8,1.6l0,0.1v0.1
		c0,2.1,0,4.1,0,6.2c0,3.4,0,6.8,0,10.2c0.3-0.2,0.7-0.3,1-0.5c10.9-5.4,22.2-11,33.5-16.5c0.2-0.1,0.5-0.2,0.7-0.4
		c0.3-0.2,0.9-0.4,1-0.6l0-0.2l0.1-0.1c0.7-1.7,1.3-3.4,2-5.1c0.9-2.4,1.9-4.8,2.9-7.2c0.1-0.2,0.2-0.5,0.3-0.7
		c0.1-0.3,0.3-0.8,0.3-1l0-0.1l0-0.1c-0.4-2-0.8-3.9-1.2-5.9c-0.5-2.4-1-4.9-1.4-7.4l-0.7-3.9l5.1,2.6l0.3,0.7
		c3.2,7.9,6.7,15.8,10.2,23.5c2.4,5.4,4.9,11,7.3,16.6c0-0.4,0-0.8,0-1.2c0-65.4,0.1-130.8,0.1-196.2c0-32.5,0-65,0-97.6
		c-3.1,15.3-6.3,30.7-9.4,45.7c-2.4,11.4-4.8,22.8-7.1,34.3c-0.9,3.5-1.2,7-1.5,10.7c-0.1,1.1-0.2,2.2-0.3,3.3
		c-0.8,9.6-1.7,19.1-2.5,28.7c-1.2,13.3-2.3,26.5-3.5,39.8l-0.3,3.1l-4-2.3l-0.2-0.9c-0.9-5-1.9-10.1-2.9-15c-0.4-2-0.8-4.1-1.3-6.1
		c-0.1,0-0.2,0.1-0.3,0.1c-17.6,8.4-35.2,16.8-52.8,25.2l-24.9,11.9l-0.9-1.8c-1.3-2.8-2.5-5.8-3.6-8.6c-0.5-1.2-0.9-2.3-1.4-3.5
		c0,14.5,0,28.8,0,43.2c0.1-0.1,0.2-0.1,0.3-0.2c1.2-0.7,2.6-1.5,4.4-1.5l0.1,0c12.5,0.8,25.1,1.6,37.4,2.5c14.5,1,29.5,2,44.2,2.9
		c1.2,0,2.5,0.3,3.7,0.8l1.3,0.5l0,1.4c-0.1,3.8-0.1,7.6-0.1,11.3C274.6,482.3,274.6,484.1,274.6,485.8z"/>
	<path class="st0" d="M301.7,215.3c0.2-0.1,0.5-0.2,0.6-0.3c6.7,31.3,13.7,62.6,20.5,93.9c0.3,1.3,0.6,2.6,1.1,3.8
		c0.1,0.5,0.2,1.5,0.3,2c1.4,6.2,2.2,12.5,4.3,18.5c2,6.1,1.1,12.5,2.5,18.7c-0.4,5.7,1.5,11.2,1.1,16.9c1.5,5.8,0.3,11.9,2.2,17.6
		c12.3,5.9,24.8,11.5,37,17.8c4,2.1,8,4.4,12.4,5.7c9.1,4.3,18.3,8.7,27.4,13l0.6,0c5.2-13.2,10.5-26.4,15.8-39.6
		c0.4-0.4,1.1-1.2,1.5-1.6c0.2,8.3,0.2,16.6,0,25c0,0.8-0.1,2.4-0.1,3.1c0.4,9.7-0.1,19.5,0.3,29.2c-0.1,0.2-0.4,0.5-0.5,0.7
		c0,11.7,0.1,23.4,0,35.1c-4.2-2.1-8.3-4.4-12.6-6.2c-7.7,0.6-15.5,0.8-23.1,1.7c-4.3,1.2-8.9,0-13.3,1c-5.2,1.2-10.7,0-15.9,1.2
		c-4.9,1-10-0.1-14.9,1c-3.6,0.7-7.2,0.3-10.8,0.5c-0.1,3.9-0.1,7.9,0,11.8c5.6,8.4,11.8,16.5,17.2,25.1c5.8,8.8,12.1,17.3,18,26.1
		c0.1,10.4,0,20.8,0,31.2c-16.5-8.1-32.9-16.2-49.3-24.3c-1.2-2.9-2.5-5.7-3.2-8.7l-1.5,0.7c0-0.4-0.1-1.3-0.1-1.8
		c-0.1,0.6-0.3,1.7-0.4,2.3c-5.2,12.4-11,24.6-16.5,36.9c-4.1-9-7.8-18.3-12.1-27.2c-1.8-3.5-3.5-7.2-4.8-11l-0.3-0.9
		c-1.8,3-2.9,6.3-4.2,9.5c-16.4,8.3-32.9,16.4-49.4,24.4c0-10.3,0-20.6,0-30.9c5.8-9.3,12.8-17.9,18.4-27.3c0.3-0.4,1-1.3,1.3-1.7
		c5.5-7.4,10.6-15,15.8-22.6c0.2-3.9,0.1-7.8,0.1-11.7c-13.7-1.4-27.4-1.8-41.1-3c-3.5,0-7-0.5-10.5-0.2c-0.9-0.2-2.6-0.7-3.5-1
		l-0.1,0.3c-7.9-0.2-15.8-1.2-23.8-1.4c-4.1,2-8.1,4.1-12.2,6c-0.1-12,0.1-23.9-0.1-35.9c-0.1-1.2-0.1-2.4-0.1-3.5
		c0.4-7.6,0.2-15.3,0.1-22.9c0-0.6-0.1-1.8-0.1-2.4c0-0.7,0-2.2,0-2.9c-0.1-8.3-0.4-16.7-0.4-25c0.4,0.4,1.1,1.3,1.4,1.8
		c5.5,13,10.5,26.2,16.4,39c7.4-3.2,14.5-7.1,22-10.2c13.4-5.9,26.5-12.6,39.8-18.8c3-1.5,6.2-2.7,9.1-4.6c2.2-1.3,4.8-2,6.9-3.6
		c-0.4-5.3,1.5-10.5,1-15.8c0.5-3.4,1.2-6.8,1.1-10.3c1.4-7,1.3-14.3,2.2-21.5c1.6-8,3.9-16,4.9-24.1c0.2-0.9,0.4-1.8,0.7-2.6
		C288.2,279.5,294.8,247.3,301.7,215.3 M301.3,238.6c-6.4,32-13.2,64-19.8,96c-1.2,4.6-1.3,9.5-1.8,14.2c-2,22.9-4,45.7-6,68.5
		l-0.5-0.3c-1.4-7.8-3.1-15.6-4.7-23.4c-0.9,0.2-1.8,0.6-2.7,1c-25.3,12.1-50.6,24.1-75.9,36.2c-3.2-6.7-5.3-13.8-8.9-20.3
		c0,18.3,0.1,36.7,0,55c2.4-0.1,4.3-2.5,6.7-2.5c27.2,1.7,54.4,3.7,81.6,5.4c1.1,0,2.1,0.2,3.1,0.6c-0.2,5.6-0.1,11.2-0.1,16.7
		c0.2,1.5-1.1,2.6-1.8,3.8c-10.9,15.5-21.6,31.1-32.4,46.5c-0.7,1.1-1.7,2.2-1.6,3.6c0,6.4-0.1,12.9,0.1,19.3c1.4-0.2,2.5-1,3.7-1.5
		c11.2-5.5,22.4-11.1,33.6-16.6c1-0.6,2.4-0.9,2.7-2.3c1.6-4.1,3.2-8.2,4.9-12.3c0.3-1,0.9-2,0.6-3c-0.8-4.5-1.9-8.9-2.6-13.3
		l0.9,0.5c6.6,16.3,14.3,32.1,20.9,48.4c0.8-3.3,0.3-6.8,0.4-10.2c0.1-102,0-204,0.1-306.1C301.9,241.5,302.6,239.7,301.3,238.6z"/>
</g>
<g id="_x23_c60f2fff_1_">
	<path class="st1" d="M271.2,360.3c-4.1-10.6-8.5-21.2-12.8-31.6c-4.9-11.9-10-24.2-14.7-36.4l-2.1-5.5l5,3.1
		c5.7,3.5,11.4,7.3,16.9,10.9c5.8,3.8,11.7,7.8,17.7,11.4l1.1,0.7l-0.2,1.3c-0.7,5.2-1.8,10.3-3,15.2c-0.7,2.9-1.4,6-1.9,8.9
		c-0.4,2.8-0.6,5.7-0.8,8.5c-0.3,4.3-0.6,8.7-1.5,13l-1.3,6.7L271.2,360.3z"/>
	<path class="st1" d="M245.6,291.7c11.7,7.2,22.9,15.2,34.6,22.3c-1.1,8.1-3.4,16.1-4.9,24.1c-0.9,7.1-0.8,14.4-2.2,21.5
		C264.2,336.9,254.4,314.5,245.6,291.7z"/>
	<path class="st1" d="M326.6,333.9c-1.5-4.4-2.4-9-3.3-13.5c-0.3-1.8-0.7-3.5-1.1-5.3l-0.3-1.3l1.1-0.8c7.2-4.8,14.5-9.6,21.7-14.3
		l8.2-5.4c1.3-0.8,2.6-1.5,4-2.1l4.8-2l-2.2,4.7c-1.2,2.6-3,4.8-4.6,6.9c-0.5,0.6-1,1.3-1.5,1.9c-2.8,3.7-5.5,7.3-8.3,11
		c-3.1,4.1-6.2,8.3-9.3,12.4c-0.5,0.7-1,1.4-1.6,2c-1.5,1.9-2.9,3.7-3.8,5.8l-2,4.6L326.6,333.9z"/>
	<path class="st1" d="M354,295c1.2-0.8,2.4-1.4,3.6-1.9c-1.5,3.1-3.9,5.8-5.9,8.5c-5.9,7.8-11.7,15.6-17.6,23.4
		c-2,2.7-4.3,5.1-5.6,8.2c-2.1-6-3-12.3-4.3-18.5C334.1,308.1,344.1,301.6,354,295z"/>
	<path class="st1" d="M213.6,413.9c-2.1-2.7-4.6-5.3-7-7.8c-0.8-0.8-1.6-1.7-2.4-2.5c-4.9-5-9.8-10.1-14.5-15.1
		c-5.3-5.6-10.8-11.4-16.3-17l-0.1-0.1c-2.2-2.6-4.6-5-6.9-7.4c-3-3-6-6.2-8.7-9.6l-3.5-4.5l5.6,1.3c3.2,0.8,6.3,2,9.2,3.1
		c1.3,0.5,2.6,1,3.8,1.5c7.1,2.6,14.3,5.4,21.3,8c6.8,2.6,13.8,5.2,20.8,7.8c0-4.6,0.3-9.1,0.6-13.6c0.3-4.5,0.6-9.1,0.6-13.6l0-4.2
		l3.2,2.6c2.3,1.8,4.3,3.9,6.3,5.9c0.7,0.7,1.5,1.5,2.2,2.2c5,5,9.9,9.9,14.9,14.8c6.2,6.2,12.4,12.4,18.7,18.6
		c1.3,1.3,2.5,2.3,3.8,3.1l2.6,1.6l-2.5,1.7c-2,1.4-4.2,2.4-6.4,3.4c-1,0.4-1.9,0.9-2.9,1.4c-5.1,2.4-10.2,4.8-15.1,7.2
		c-8.1,3.9-16.4,7.9-24.8,11.6l-1.4,0.6L213.6,413.9z"/>
	<path class="st1" d="M218.1,344.5c3,2.4,5.6,5.3,8.3,8c11.2,11.2,22.4,22.3,33.6,33.5c1.3,1.3,2.6,2.4,4.1,3.4
		c-2.8,1.9-6,3.1-9.1,4.6c-13.3,6.2-26.4,12.9-39.8,18.8c-2.9-3.8-6.3-7-9.6-10.5c-10.4-10.6-20.4-21.6-30.8-32.1
		c-5-5.9-10.8-10.9-15.6-16.9c4.4,1.1,8.6,3,12.8,4.5c15,5.5,29.8,11.3,44.8,16.8C216.7,364.5,218.1,354.5,218.1,344.5z"/>
	<path class="st1" d="M383.1,411.8c-3.9-1.2-7.6-3.1-11.1-5l-3.5-1.8l1-1.8c5.7-9.9,10.9-18.8,16.1-27.8c0.7-1.5,2-2.7,3.8-3.2
		l8.4-3.2c11.5-4.3,22.9-8.7,34.4-13c1.3-0.5,2.5-1,3.8-1.5c3-1.2,6-2.4,9.3-3.2l5.4-1.3l-3.4,4.5c-1.8,2.3-3.9,4.2-6,6
		c-1.3,1.1-2.4,2.1-3.6,3.2l-0.1,0.1c-9.6,8.6-19,17.1-28,25.1c-3.3,3.1-6.7,6.1-10,9c-4.9,4.3-10,8.8-14.6,13.5l-0.8,0.9
		L383.1,411.8z"/>
	<path class="st1" d="M432.9,357.8c4.3-1.6,8.4-3.5,12.8-4.6c-2.6,3.5-6.4,5.9-9.4,8.9c-9.3,8.4-18.6,16.7-28,25.1
		c-8.1,7.6-16.9,14.6-24.7,22.6c-4.3-1.3-8.4-3.6-12.4-5.7c5.4-9.3,10.8-18.6,16.2-27.9c0.5-1.1,1.5-1.9,2.7-2.2
		C404.4,368.6,418.6,363.2,432.9,357.8z"/>
	<path class="st1" d="M174.4,436.9c-3.3-2.9-6.7-5.8-10-8.7c-4.1-3.6-8.3-7.3-12.6-10.9c-1.1-1-2.1-2.1-3.1-3.3l-2.3-3l3.8-0.2
		c4.1-0.2,8.2-0.2,11.7-0.2c1.2,0,6,0,7.2,0c2.7,0,4.7,0,6.6-0.1l2,0l0,2c0.2,7.4,0.3,15.2-0.1,23l-0.2,4.1L174.4,436.9z"/>
	<path class="st1" d="M150.4,412.8c8.5-0.4,16.9-0.1,25.4-0.3c0.2,7.6,0.3,15.3-0.1,22.9c-7.6-6.5-15-13.1-22.6-19.6
		C152.2,414.8,151.3,413.8,150.4,412.8z"/>
	<path class="st1" d="M250.8,510.3c-4-0.5-8-1.2-11.9-1.8c-4.1-0.7-8.4-1.4-12.6-1.9l-2.2-0.3l0.5-2.1l0.4-1.9l0.2-0.3
		c1.4-2,2.9-3.8,4.4-5.6c1.9-2.3,3.7-4.4,5.1-6.8c-2.3-2-4.6-4-7-6.1c-3.4-3-6.8-5.9-10.2-8.9c-0.8-0.7-1.7-1.5-2.7-1.8l0.4-3.9
		c0.9-0.1,1.7-0.1,2.7-0.1c1.4,0,2.9,0.1,4.2,0.2c1.3,0.1,2.5,0.1,3.7,0.2l0.2,0c6.1,0.5,12.3,0.9,18.4,1.3
		c7.4,0.5,15.1,0.9,22.7,1.7l1.8,0.2l0,1.8c0,0.9,0,1.9,0,2.8c0,3,0.1,6-0.1,9.1l0,0.6l-0.3,0.5c-1.1,1.7-2.3,3.3-3.4,5
		c-4,5.9-8.1,11.9-12.5,17.7l-0.7,0.9L250.8,510.3z"/>
	<path class="st1" d="M215.4,470.8c3.5-0.3,7,0.2,10.5,0.2c13.7,1.2,27.4,1.6,41.1,3c0,3.9,0.1,7.8-0.1,11.7
		c-5.2,7.6-10.3,15.2-15.8,22.6c-8.2-1-16.3-2.8-24.6-3.7c0.1-0.4,0.3-1.1,0.3-1.5c3.2-4.6,7.4-8.5,10.1-13.3
		c-0.1-0.3-0.2-0.9-0.3-1.2c-5.9-5.2-11.9-10.3-17.8-15.5C217.9,472.1,216.8,471.2,215.4,470.8z"/>
	<path class="st1" d="M300.2,607.4c-0.8-1.6-1.1-3.3-1.4-5c-0.1-0.5-0.2-1-0.3-1.5c-1.7-8.8-3.4-17.7-5.1-26.2
		c-0.9-4.6-1.8-9.3-2.8-13.9c-0.3-1.5-0.6-3-0.9-4.5c-0.7-3.3-1.4-6.6-1.6-10.1l3.8-1c2.6,5.4,5,10.9,7.3,16.3
		c1.6,3.6,3.2,7.3,4.8,10.9l0.2,0.4l0,0.5c-0.2,5.4-0.1,10.9-0.1,16.3c0,5.6,0.1,11.3-0.1,17l-0.3,7.7L300.2,607.4z"/>
	<path class="st1" d="M290.1,546.1c4.4,8.9,8,18.1,12.1,27.2c-0.4,11.1,0.2,22.2-0.3,33.2c-0.9-1.9-1.1-4-1.5-5.9
		c-2.5-13.4-5.3-26.8-7.9-40.2C291.7,555.6,290.3,550.9,290.1,546.1z"/>
</g>
<path class="st2" d="M299.7,559.8c-3.3-8.3-7.1-16.7-10.7-24.8c-1.5-3.4-3.1-6.9-4.6-10.4c-0.1,0.7-0.3,1.4-0.5,1.9
	c-0.1,0.2-0.1,0.4-0.2,0.6l0,0.1l0,0.1c-1,2.4-1.9,4.8-2.9,7.2c-0.7,1.7-1.3,3.3-2,5c-0.5,1.9-2.1,2.6-3.1,3.1
	c-0.2,0.1-0.4,0.2-0.6,0.3l-0.1,0.1c-11.2,5.5-22.6,11.1-33.6,16.5c-0.4,0.2-0.7,0.3-1,0.5c-1,0.5-2,1-3.4,1.2l-2.2,0.3l-0.1-2.2
	c-0.2-4.4-0.1-8.9-0.1-13.2c0-2,0-4.1,0-6.1c-0.1-1.8,0.8-3.2,1.5-4.2c0.1-0.2,0.3-0.4,0.4-0.5c5.4-7.7,10.7-15.4,16.1-23.1
	c5.4-7.8,10.9-15.6,16.3-23.4c0.2-0.3,0.5-0.7,0.7-1c0.5-0.7,0.8-1.1,0.8-1.4l0-0.2l0-0.2c0-1.8,0-3.5,0-5.3c0-3.3,0-6.6,0-9.9
	c-0.4-0.1-0.7-0.1-1.1-0.1c-14.8-0.9-29.8-1.9-44.3-2.9c-12.2-0.8-24.9-1.7-37.3-2.5c-0.7,0-1.5,0.5-2.4,1c-1.2,0.7-2.5,1.5-4.2,1.5
	l-2.1,0.1l0-2.1c0.1-18.3,0.1-36.4,0-55l0-7.7l3.8,6.7c2.2,3.9,3.8,8,5.4,12c0.9,2.2,1.7,4.4,2.7,6.5l21.3-10.1
	c17.6-8.4,35.2-16.8,52.8-25.2c0.9-0.5,1.9-0.8,3.1-1.1l2.1-0.5l0.4,2.1c0.5,2.8,1.1,5.5,1.7,8.3c0.2,0.9,0.4,1.9,0.6,2.8
	c0.8-9,1.6-18.1,2.4-27.1c0.8-9.6,1.7-19.2,2.5-28.7c0.1-1.1,0.2-2.1,0.3-3.2c0.3-3.7,0.6-7.5,1.6-11.3c2.3-11.3,4.7-22.8,7.1-34.2
	c4.2-20.2,8.6-41.1,12.7-61.7l0.7-3.3l2.6,2.2c1.6,1.3,1.5,3.2,1.4,4.4c0,0.4,0,0.8,0,1l0,0.2v0.2c0,36.6,0,73.2,0,109.8
	c0,65.4,0,130.9-0.1,196.3c0,1.1,0,2.1,0,3.2c0.1,2.4,0.1,4.9-0.5,7.4l-1.5,6.1L299.7,559.8z"/>
<path class="st2" d="M301.3,238.6c1.2,1,0.5,2.8,0.7,4.2c0,102,0,204.1-0.1,306.1c-0.1,3.4,0.4,6.8-0.4,10.2
	c-6.5-16.3-14.3-32.2-20.9-48.4l-0.9-0.5c0.8,4.5,1.8,8.9,2.6,13.3c0.3,1-0.3,2-0.6,3c-1.7,4.1-3.3,8.2-4.9,12.3
	c-0.3,1.3-1.7,1.7-2.7,2.3c-11.2,5.5-22.4,11-33.6,16.6c-1.2,0.5-2.4,1.3-3.7,1.5c-0.2-6.4-0.1-12.9-0.1-19.3
	c-0.1-1.4,0.9-2.5,1.6-3.6c10.8-15.5,21.6-31,32.4-46.5c0.7-1.2,2-2.3,1.8-3.8c0-5.6-0.1-11.2,0.1-16.7c-1-0.4-2-0.6-3.1-0.6
	c-27.2-1.7-54.4-3.7-81.6-5.4c-2.5,0-4.3,2.4-6.7,2.5c0.1-18.3,0.1-36.7,0-55c3.6,6.4,5.7,13.6,8.9,20.3
	c25.3-12.1,50.6-24.1,75.9-36.2c0.9-0.4,1.8-0.8,2.7-1c1.5,7.8,3.3,15.5,4.7,23.4l0.5,0.3c2-22.8,4-45.7,6-68.5
	c0.5-4.8,0.6-9.6,1.8-14.2C288.1,302.6,295,270.7,301.3,238.6z"/>
<g id="_x23_810120ff">
	<path class="st3" d="M2,120.9L2,120.9c0,0,0,0.1,0,0.1V120.9z"/>
	<path class="st3" d="M241.7,285.8c13.1,8.5,26.1,17.1,39.2,25.6c-0.3,0.9-0.5,1.7-0.7,2.6c-11.8-7.1-22.9-15.2-34.6-22.3
		c8.8,22.8,18.6,45.2,27.5,67.9c0.1,3.5-0.6,6.9-1.1,10.3c0.5,5.4-1.5,10.5-1,15.8c-2.1,1.6-4.6,2.3-6.9,3.6c-1.5-1-2.9-2.1-4.1-3.4
		c-11.2-11.1-22.4-22.3-33.6-33.5c-2.7-2.7-5.3-5.6-8.3-8c0,10-1.4,20-1.2,30c-15-5.5-29.8-11.3-44.8-16.8
		c-4.3-1.5-8.4-3.5-12.8-4.5c4.7,6,10.6,11.1,15.6,16.9c10.4,10.5,20.4,21.5,30.8,32.1c3.3,3.4,6.7,6.7,9.6,10.5
		c-7.5,3.1-14.6,7.1-22,10.2c-5.9-12.8-11-26-16.4-39c-0.4-0.4-1.1-1.3-1.4-1.8c-0.1,8.4,0.3,16.7,0.4,25
		c-7.7-19.8-15.1-39.7-22.6-59.6c20.4,7.7,40.9,15.5,61.3,23.1c0.4-11,0.8-22,1.2-33c14,13.9,27.9,27.9,41.9,41.8
		C252.3,348.3,247,317,241.7,285.8z"/>
	<path class="st3" d="M324.1,311.4c13.1-8.5,26-17.1,39.1-25.6c-5.3,31.3-10.6,62.6-15.9,93.9c14-13.9,27.9-27.9,41.9-41.8
		c0.4,11,0.8,22,1.2,33c20.5-7.7,40.9-15.4,61.4-23.1c-7.4,19.7-15,39.3-22.2,59.1l-0.7-0.2c0.1-8.3,0.2-16.6,0-25
		c-0.4,0.4-1.1,1.2-1.5,1.6c-5.2,13.2-10.6,26.4-15.8,39.6l-0.6,0c-9.1-4.3-18.3-8.7-27.4-13c7.8-8,16.6-14.9,24.7-22.6
		c9.4-8.3,18.7-16.7,28-25.1c3.1-3.1,6.8-5.5,9.4-8.9c-4.4,1.1-8.6,3-12.8,4.6c-14.3,5.4-28.6,10.8-42.8,16.2
		c-1.2,0.4-2.2,1.1-2.7,2.2c-5.3,9.3-10.7,18.6-16.2,27.9c-12.2-6.3-24.7-11.9-37-17.8c-1.9-5.7-0.7-11.8-2.2-17.6
		c0.4-5.7-1.5-11.2-1.1-16.9c-1.4-6.2-0.5-12.6-2.5-18.7c1.4-3.1,3.7-5.5,5.6-8.2c5.9-7.8,11.7-15.6,17.6-23.4
		c2.1-2.8,4.4-5.4,5.9-8.5c-1.3,0.5-2.5,1.2-3.6,1.9c-10,6.6-19.9,13.1-29.9,19.7c-0.1-0.5-0.2-1.5-0.3-2L324.1,311.4z"/>
	<path class="st3" d="M142.5,409.9c10.9-0.3,21.7-0.1,32.6-0.3l0.7,0.4c0,0.6,0,1.8,0.1,2.4c-8.5,0.2-16.9-0.1-25.4,0.3
		c0.8,1.1,1.8,2.1,2.8,3c7.6,6.5,15,13.1,22.6,19.6c0,1.2,0,2.4,0.1,3.5C164.6,429.4,153.6,419.5,142.5,409.9z"/>
	<path class="st3" d="M428.9,409.8c11.2,0,22.4,0,33.6,0.2c-11.1,9.7-22.2,19.4-33.3,29C428.7,429.2,429.3,419.5,428.9,409.8z"/>
	<path class="st3" d="M211.8,470.1l0.1-0.3c0.9,0.3,2.6,0.8,3.5,1c1.3,0.4,2.4,1.3,3.5,2.2c5.9,5.2,11.9,10.3,17.8,15.5
		c0.1,0.3,0.2,0.9,0.3,1.2c-2.7,4.9-6.9,8.7-10.1,13.3c-0.1,0.4-0.3,1.1-0.3,1.5c8.2,1,16.3,2.7,24.6,3.7c-0.3,0.4-1,1.3-1.3,1.7
		l-0.6,0.8c-9.4-1.5-18.7-3.1-28.1-4.5l0-0.4c4.2-5.4,8.6-10.7,12.9-16.1C226.7,483.1,218.8,477,211.8,470.1z"/>
	<path class="st3" d="M379.7,471.3c4.4-1,8.9,0.3,13.3-1c-7.1,6.7-14.7,12.9-22,19.4c4.3,5.5,8.8,10.9,13.1,16.5
		c-9.6,1.5-19.2,3.1-28.9,4.6c-5.3-8.6-11.6-16.7-17.2-25.1c-0.1-4-0.1-7.9,0-11.8c3.6-0.2,7.3,0.2,10.8-0.5c4.9-1.1,10,0,14.9-1
		C369,471.3,374.5,472.5,379.7,471.3z"/>
	<path class="st3" d="M285.3,535.1c1.2,3.8,2.9,7.4,4.8,11c0.2,4.8,1.6,9.5,2.5,14.3c2.6,13.4,5.4,26.8,7.9,40.2
		c0.4,2,0.6,4.1,1.5,5.9c0.4-11.1-0.1-22.2,0.3-33.2c5.5-12.3,11.4-24.4,16.5-36.9l0.5,1.1c-5.9,27.4-11.4,54.9-17.1,82.3
		c-5.9-27.8-11.4-55.6-17.3-83.4L285.3,535.1z"/>
</g>
<path class="st2" d="M294.4,120.9h10.8c64.1,0.5,127.8,22.3,178.6,61.3c34.8,26.4,63.6,60.5,83.9,99.2
	c21.8,41.3,33.6,87.9,34.3,134.6v14.4c-1.5,40.2-10.7,80.2-27.7,116.7c-17.5,37.7-42.9,71.6-74.1,99
	c-32.6,28.8-71.6,50.4-113.3,62.6c-25,7.4-50.9,11.3-76.9,12.2h-17.5c-40.2-1.5-80.3-10.7-116.8-27.8c-37.6-17.5-71.5-42.9-98.9-74
	C36.7,573.8,10.8,516,4,455.8c-1.1-9-1.5-18.1-2-27.2v-11c0.4-30.3,5.2-60.5,14.6-89.3c14.2-44,38.9-84.6,71.3-117.6
	c33.7-34.4,75.8-60.6,121.7-75.4C236.9,126.5,265.6,121.9,294.4,120.9 M293.3,141.2c-51.2,1.5-101.8,17.4-144.6,45.6
	c-37.9,24.8-69.6,58.9-91.5,98.5c-20.1,36-31.9,76.6-34.5,117.7c-2.3,35.2,2.1,70.8,13,104.3c16.5,51.4,48.5,97.6,90.5,131.4
	c30.2,24.5,65.7,42.6,103.3,52.6c45.9,12.3,95,12.7,141.1,1.1c38.8-9.7,75.5-28,106.7-53.2c31.7-25.4,57.8-57.9,75.8-94.3
	c18.6-37.4,28.5-79.1,28.8-120.9c0.6-46.1-10.4-92.3-31.9-133c-18.9-36.1-45.9-68-78.3-92.7C421.1,159.4,356.9,139,293.3,141.2z"/>
<path class="st2" d="M301.3,238.6c1.2,1,0.5,2.8,0.7,4.2c0,102,0,204.1-0.1,306.1c-0.1,3.4,0.4,6.8-0.4,10.2
	c-6.5-16.3-14.3-32.2-20.9-48.4l-0.9-0.5c0.8,4.5,1.8,8.9,2.6,13.3c0.3,1-0.3,2-0.6,3c-1.7,4.1-3.3,8.2-4.9,12.3
	c-0.3,1.3-1.7,1.7-2.7,2.3c-11.2,5.5-22.4,11-33.6,16.6c-1.2,0.5-2.4,1.3-3.7,1.5c-0.2-6.4-0.1-12.9-0.1-19.3
	c-0.1-1.4,0.9-2.5,1.6-3.6c10.8-15.5,21.6-31,32.4-46.5c0.7-1.2,2-2.3,1.8-3.8c0-5.6-0.1-11.2,0.1-16.7c-1-0.4-2-0.6-3.1-0.6
	c-27.2-1.7-54.4-3.7-81.6-5.4c-2.5,0-4.3,2.4-6.7,2.5c0.1-18.3,0.1-36.7,0-55c3.6,6.4,5.7,13.6,8.9,20.3
	c25.3-12.1,50.6-24.1,75.9-36.2c0.9-0.4,1.8-0.8,2.7-1c1.5,7.8,3.3,15.5,4.7,23.4l0.5,0.3c2-22.8,4-45.7,6-68.5
	c0.5-4.8,0.6-9.6,1.8-14.2C288.1,302.6,295,270.7,301.3,238.6z"/>
<g id="_x23_002e62ff">
	<path class="st4" d="M293.3,141.2c63.7-2.2,127.8,18.3,178.3,57.1c32.4,24.7,59.4,56.6,78.3,92.7c21.5,40.8,32.5,86.9,31.9,133
		c-0.4,41.8-10.3,83.5-28.8,120.9c-18,36.5-44.1,68.9-75.8,94.3c-31.2,25.1-67.8,43.4-106.7,53.2c-46.1,11.6-95.2,11.3-141.1-1.1
		c-37.6-10-73-28.1-103.3-52.6c-42-33.8-73.9-80.1-90.5-131.4c-10.9-33.5-15.2-69.1-13-104.3c2.5-41.2,14.4-81.7,34.5-117.7
		c21.9-39.6,53.6-73.7,91.5-98.5C191.5,158.6,242.1,142.6,293.3,141.2 M273.3,216.3c-38.3,5.2-75.1,21.4-104.6,46.3
		c-37.4,31-63.2,75.6-71.2,123.5c-7.1,40.8-1.6,83.8,16,121.4c14.8,32.2,38.1,60.3,66.8,81c31.3,22.8,69.1,36.5,107.8,39
		c11.5,1,23.2,0.2,34.7-0.2l-0.1-0.3c38.2-3.6,75.3-18.5,105.5-42.1c28.7-22.2,51.3-52.2,64.8-85.9c14.4-35.6,18.5-75.2,12-113
		c-6.7-39.3-25.2-76.4-52.4-105.5c-32.1-34.7-76.4-57.8-123.3-64c-9.2-22.7-18.1-45.5-27.2-68.2
		C292.4,170.9,282.9,193.6,273.3,216.3z"/>
</g>
<g id="_x23_ffffffff">
	<path class="st5" d="M273.3,216.3c9.6-22.7,19.1-45.4,28.7-68.1c9.1,22.7,18,45.5,27.2,68.2c46.9,6.2,91.2,29.3,123.3,64
		c27.2,29.1,45.8,66.2,52.4,105.5c6.5,37.8,2.4,77.4-12,113c-13.5,33.7-36.1,63.7-64.8,85.9c-30.3,23.6-67.3,38.5-105.5,42.1
		l0.1,0.3c-11.5,0.4-23.1,1.2-34.7,0.2c-38.6-2.5-76.4-16.2-107.8-39c-28.7-20.7-52-48.8-66.8-81c-17.6-37.6-23.1-80.6-16-121.4
		c8-47.9,33.9-92.5,71.2-123.5C198.3,237.7,235,221.6,273.3,216.3 M301.7,215.3c-6.9,32-13.5,64.2-20.8,96.1
		c-13.1-8.5-26.1-17.1-39.2-25.6c5.3,31.3,10.6,62.6,15.8,93.8c-14-13.9-27.9-27.9-41.9-41.8c-0.4,11-0.8,22-1.2,33
		c-20.5-7.7-40.9-15.4-61.3-23.1c7.5,19.9,14.9,39.8,22.6,59.6c0,0.7,0,2.2,0,2.9l-0.7-0.4c-10.9,0.2-21.7,0-32.6,0.3
		c11.2,9.6,22.1,19.4,33.3,29c0.2,12,0,23.9,0.1,35.9c4.1-2,8.1-4,12.2-6c7.9,0.2,15.9,1.1,23.8,1.4c7,7,14.9,13,22.1,19.7
		c-4.3,5.4-8.6,10.7-12.9,16.1l0,0.4c9.4,1.4,18.7,3,28.1,4.5l0.6-0.8c-5.6,9.4-12.6,18-18.4,27.3c0,10.3,0,20.6,0,30.9
		c16.5-8,33.1-16.1,49.4-24.4c1.3-3.2,2.4-6.6,4.2-9.5l0.3,0.9l-0.5,1.3c5.9,27.8,11.4,55.6,17.3,83.4c5.8-27.4,11.3-54.9,17.1-82.3
		l-0.5-1.1c0.1-0.6,0.3-1.7,0.4-2.3c0,0.5,0.1,1.3,0.1,1.8l1.5-0.7c0.8,3,2.1,5.8,3.2,8.7c16.4,8.2,32.9,16.3,49.3,24.3
		c0-10.4,0-20.8,0-31.2c-5.9-8.8-12.2-17.3-18-26.1c9.6-1.5,19.3-3.1,28.9-4.6c-4.3-5.5-8.8-11-13.1-16.5c7.3-6.6,14.9-12.7,22-19.4
		c7.6-1,15.4-1.1,23.1-1.7c4.3,1.8,8.4,4.1,12.6,6.2c0.1-11.7,0-23.4,0-35.1c0.1-0.2,0.4-0.5,0.5-0.7c11.1-9.7,22.2-19.4,33.3-29
		c-11.2-0.2-22.4-0.2-33.6-0.2c0-0.8,0.1-2.4,0.1-3.1l0.7,0.2c7.2-19.8,14.9-39.4,22.2-59.1c-20.5,7.7-40.9,15.4-61.4,23.1
		c-0.4-11-0.8-22-1.2-33c-14,13.9-27.9,27.9-41.9,41.8c5.3-31.3,10.6-62.6,15.9-93.9c-13,8.5-26,17.1-39.1,25.6l-0.3,1.3
		c-0.4-1.3-0.8-2.5-1.1-3.8c-6.8-31.3-13.8-62.6-20.5-93.9C302.2,215.1,301.9,215.2,301.7,215.3z"/>
</g>
<g id="_x23_6e6d75ff">
	<path class="st0" d="M301.7,215.3c0.2-0.1,0.5-0.2,0.6-0.3c6.7,31.3,13.7,62.6,20.5,93.9c0.3,1.3,0.6,2.6,1.1,3.8
		c0.1,0.5,0.2,1.5,0.3,2c1.4,6.2,2.2,12.5,4.3,18.5c2,6.1,1.1,12.5,2.5,18.7c-0.4,5.7,1.5,11.2,1.1,16.9c1.5,5.8,0.3,11.9,2.2,17.6
		c12.3,5.9,24.8,11.5,37,17.8c4,2.1,8,4.4,12.4,5.7c9.1,4.3,18.3,8.7,27.4,13l0.6,0c5.2-13.2,10.5-26.4,15.8-39.6
		c0.4-0.4,1.1-1.2,1.5-1.6c0.2,8.3,0.2,16.6,0,25c0,0.8-0.1,2.4-0.1,3.1c0.4,9.7-0.1,19.5,0.3,29.2c-0.1,0.2-0.4,0.5-0.5,0.7
		c0,11.7,0.1,23.4,0,35.1c-4.2-2.1-8.3-4.4-12.6-6.2c-7.7,0.6-15.5,0.8-23.1,1.7c-4.3,1.2-8.9,0-13.3,1c-5.2,1.2-10.7,0-15.9,1.2
		c-4.9,1-10-0.1-14.9,1c-3.6,0.7-7.2,0.3-10.8,0.5c-0.1,3.9-0.1,7.9,0,11.8c5.6,8.4,11.8,16.5,17.2,25.1c5.8,8.8,12.1,17.3,18,26.1
		c0.1,10.4,0,20.8,0,31.2c-16.5-8.1-32.9-16.2-49.3-24.3c-1.2-2.9-2.5-5.7-3.2-8.7l-1.5,0.7c0-0.4-0.1-1.3-0.1-1.8
		c-0.1,0.6-0.3,1.7-0.4,2.3c-5.2,12.4-11,24.6-16.5,36.9c-4.1-9-7.8-18.3-12.1-27.2c-1.8-3.5-3.5-7.2-4.8-11l-0.3-0.9
		c-1.8,3-2.9,6.3-4.2,9.5c-16.4,8.3-32.9,16.4-49.4,24.4c0-10.3,0-20.6,0-30.9c5.8-9.3,12.8-17.9,18.4-27.3c0.3-0.4,1-1.3,1.3-1.7
		c5.5-7.4,10.6-15,15.8-22.6c0.2-3.9,0.1-7.8,0.1-11.7c-13.7-1.4-27.4-1.8-41.1-3c-3.5,0-7-0.5-10.5-0.2c-0.9-0.2-2.6-0.7-3.5-1
		l-0.1,0.3c-7.9-0.2-15.8-1.2-23.8-1.4c-4.1,2-8.1,4.1-12.2,6c-0.1-12,0.1-23.9-0.1-35.9c-0.1-1.2-0.1-2.4-0.1-3.5
		c0.4-7.6,0.2-15.3,0.1-22.9c0-0.6-0.1-1.8-0.1-2.4c0-0.7,0-2.2,0-2.9c-0.1-8.3-0.4-16.7-0.4-25c0.4,0.4,1.1,1.3,1.4,1.8
		c5.5,13,10.5,26.2,16.4,39c7.4-3.2,14.5-7.1,22-10.2c13.4-5.9,26.5-12.6,39.8-18.8c3-1.5,6.2-2.7,9.1-4.6c2.2-1.3,4.8-2,6.9-3.6
		c-0.4-5.3,1.5-10.5,1-15.8c0.5-3.4,1.2-6.8,1.1-10.3c1.4-7,1.3-14.3,2.2-21.5c1.6-8,3.9-16,4.9-24.1c0.2-0.9,0.4-1.8,0.7-2.6
		C288.2,279.5,294.8,247.3,301.7,215.3 M301.3,238.6c-6.4,32-13.2,64-19.8,96c-1.2,4.6-1.3,9.5-1.8,14.2c-2,22.9-4,45.7-6,68.5
		l-0.5-0.3c-1.4-7.8-3.1-15.6-4.7-23.4c-0.9,0.2-1.8,0.6-2.7,1c-25.3,12.1-50.6,24.1-75.9,36.2c-3.2-6.7-5.3-13.8-8.9-20.3
		c0,18.3,0.1,36.7,0,55c2.4-0.1,4.3-2.5,6.7-2.5c27.2,1.7,54.4,3.7,81.6,5.4c1.1,0,2.1,0.2,3.1,0.6c-0.2,5.6-0.1,11.2-0.1,16.7
		c0.2,1.5-1.1,2.6-1.8,3.8c-10.9,15.5-21.6,31.1-32.4,46.5c-0.7,1.1-1.7,2.2-1.6,3.6c0,6.4-0.1,12.9,0.1,19.3c1.4-0.2,2.5-1,3.7-1.5
		c11.2-5.5,22.4-11.1,33.6-16.6c1-0.6,2.4-0.9,2.7-2.3c1.6-4.1,3.2-8.2,4.9-12.3c0.3-1,0.9-2,0.6-3c-0.8-4.5-1.9-8.9-2.6-13.3
		l0.9,0.5c6.6,16.3,14.3,32.1,20.9,48.4c0.8-3.3,0.3-6.8,0.4-10.2c0.1-102,0-204,0.1-306.1C301.9,241.5,302.6,239.7,301.3,238.6z"/>
</g>
<g id="_x23_c60f2fff">
	<path class="st1" d="M245.6,291.7c11.7,7.2,22.9,15.2,34.6,22.3c-1.1,8.1-3.4,16.1-4.9,24.1c-0.9,7.1-0.8,14.4-2.2,21.5
		C264.2,336.9,254.4,314.5,245.6,291.7z"/>
	<path class="st1" d="M354,295c1.2-0.8,2.4-1.4,3.6-1.9c-1.5,3.1-3.9,5.8-5.9,8.5c-5.9,7.8-11.7,15.6-17.6,23.4
		c-2,2.7-4.3,5.1-5.6,8.2c-2.1-6-3-12.3-4.3-18.5C334.1,308.1,344.1,301.6,354,295z"/>
	<path class="st1" d="M218.1,344.5c3,2.4,5.6,5.3,8.3,8c11.2,11.2,22.4,22.3,33.6,33.5c1.3,1.3,2.6,2.4,4.1,3.4
		c-2.8,1.9-6,3.1-9.1,4.6c-13.3,6.2-26.4,12.9-39.8,18.8c-2.9-3.8-6.3-7-9.6-10.5c-10.4-10.6-20.4-21.6-30.8-32.1
		c-5-5.9-10.8-10.9-15.6-16.9c4.4,1.1,8.6,3,12.8,4.5c15,5.5,29.8,11.3,44.8,16.8C216.7,364.5,218.1,354.5,218.1,344.5z"/>
	<path class="st1" d="M432.9,357.8c4.3-1.6,8.4-3.5,12.8-4.6c-2.6,3.5-6.4,5.9-9.4,8.9c-9.3,8.4-18.6,16.7-28,25.1
		c-8.1,7.6-16.9,14.6-24.7,22.6c-4.3-1.3-8.4-3.6-12.4-5.7c5.4-9.3,10.8-18.6,16.2-27.9c0.5-1.1,1.5-1.9,2.7-2.2
		C404.4,368.6,418.6,363.2,432.9,357.8z"/>
	<path class="st1" d="M150.4,412.8c8.5-0.4,16.9-0.1,25.4-0.3c0.2,7.6,0.3,15.3-0.1,22.9c-7.6-6.5-15-13.1-22.6-19.6
		C152.2,414.8,151.3,413.8,150.4,412.8z"/>
	<path class="st1" d="M215.4,470.8c3.5-0.3,7,0.2,10.5,0.2c13.7,1.2,27.4,1.6,41.1,3c0,3.9,0.1,7.8-0.1,11.7
		c-5.2,7.6-10.3,15.2-15.8,22.6c-8.2-1-16.3-2.8-24.6-3.7c0.1-0.4,0.3-1.1,0.3-1.5c3.2-4.6,7.4-8.5,10.1-13.3
		c-0.1-0.3-0.2-0.9-0.3-1.2c-5.9-5.2-11.9-10.3-17.8-15.5C217.9,472.1,216.8,471.2,215.4,470.8z"/>
	<path class="st1" d="M290.1,546.1c4.4,8.9,8,18.1,12.1,27.2c-0.4,11.1,0.2,22.2-0.3,33.2c-0.9-1.9-1.1-4-1.5-5.9
		c-2.5-13.4-5.3-26.8-7.9-40.2C291.7,555.6,290.3,550.9,290.1,546.1z"/>
</g>
</svg>
