<?xml version="1.0" encoding="utf-8"?>
<!-- Generator: Adobe Illustrator 21.0.0, SVG Export Plug-In . SVG Version: 6.00 Build 0)  -->
<svg version="1.1" id="Layer_1" xmlns="http://www.w3.org/2000/svg" xmlns:xlink="http://www.w3.org/1999/xlink" x="0px" y="0px"
	 viewBox="0 0 875.9 1009.8" style="enable-background:new 0 0 875.9 1009.8;" xml:space="preserve">
<style type="text/css">
	.st0{fill:url(#SVGID_1_);}
	.st1{fill:url(#SVGID_2_);}
	.st2{fill:url(#SVGID_3_);}
	.st3{fill:url(#SVGID_4_);}
	.st4{fill:#001925;}
	.st5{fill:#FFFFFF;}
	.st6{fill:url(#SVGID_5_);}
	.st7{fill:url(#SVGID_6_);}
	.st8{fill:url(#SVGID_7_);}
</style>
<linearGradient id="SVGID_1_" gradientUnits="userSpaceOnUse" x1="437.9708" y1="1009.82" x2="437.9708" y2="-9.094947e-13">
	<stop  offset="0" style="stop-color:#0065BC"/>
	<stop  offset="1" style="stop-color:#10CAFF"/>
</linearGradient>
<path class="st0" d="M132,0c204,0,408,0,612,0c19.4,33.8,37.4,68.5,52.9,104.2c33.4,76.8,57.4,157.6,70.8,240.3
	c3.8,23.7,6.6,47.6,8,71.5c0,3.6,0.5,7.3,0.1,10.9c-63.9,162.4-159.2,312.2-277.9,440c-30.7,32.9-62.9,64.5-97,93.9
	c-20.1,17.4-40.9,34.1-62.9,49c-41-28-78.2-61.5-114-95.9c-108.6-106.1-199.6-230-268.8-365.1c-20.3-39.8-38.7-80.4-55-122
	c-0.4-3.6,0.1-7.3,0.1-10.9c2.2-38,8.1-75.7,15.6-113c18.4-88.3,48.4-174.1,89.6-254.4C113.8,32.2,122.9,16.1,132,0 M148.2,19.1
	C110,87.3,80.4,160.2,59.6,235.5C47,281.2,37.5,327.8,32.1,375c-1.2,11.6-2.6,23.2-2.6,34.9c2.4,7.2,5.6,14.2,8.5,21.2
	C84.7,542.7,146.8,647.6,221,743c45.4,58.3,95.4,113.1,149.7,163.3c21.7,19.7,43.7,39.1,67.3,56.5c20.2-14.8,39.1-31.3,57.9-47.9
	c64.3-58.2,122.6-123,174.7-192.3c71.7-95.8,131.5-200.8,175.7-312.1c0.5-9.9-0.9-19.8-1.8-29.6c-4.8-45.6-13.7-90.8-25.3-135.1
	C798,166.4,767.5,89.4,726.9,17.9c-27-0.4-54,0-80.9-0.2c-165,0-330,0-495.1,0C149.6,17.5,148.7,17.9,148.2,19.1z"/>
<linearGradient id="SVGID_2_" gradientUnits="userSpaceOnUse" x1="112.1318" y1="398.23" x2="289.9516" y2="398.23">
	<stop  offset="0" style="stop-color:#0065BC"/>
	<stop  offset="0.7" style="stop-color:#10CAFF"/>
</linearGradient>
<path class="st1" d="M279.2,323.1c3.6-1,7.1-2.1,10.7-2.9c-16.1,7.4-32.2,15.2-47,25c-29.7,19.1-55.8,43.9-75.2,73.4
	c-11.6,17.7-21.2,37-26.7,57.5c-11.4-19.3-20.2-40-27.8-61.1c-0.8-2.4-2.2-5.8,0.2-7.7c20.9-20.8,46.6-36.1,72.9-49
	C216.2,343.9,247.4,332.5,279.2,323.1z"/>
<linearGradient id="SVGID_3_" gradientUnits="userSpaceOnUse" x1="761.7048" y1="398.135" x2="584.1016" y2="398.135">
	<stop  offset="0" style="stop-color:#0065BC"/>
	<stop  offset="0.7" style="stop-color:#10CAFF"/>
</linearGradient>
<path class="st2" d="M584.1,320.3c19.7,5,39,11.6,58,18.6c34.9,13.4,69.3,29.2,99.3,51.9c7.2,5.4,13.9,11.5,20.3,17.8
	c0,1.8,0.1,3.6-0.6,5.3c-6.9,19.9-15.5,39.2-25.5,57.8c-0.9,1.5-1.4,3.3-2.9,4.3c-3.7-15.1-10.2-29.4-17.7-43
	c-17.7-31.6-42.8-58.7-72.2-79.8c-16.1-11.6-33.4-21.3-51.5-29.5C588.9,322.6,586.4,321.8,584.1,320.3z"/>
<linearGradient id="SVGID_4_" gradientUnits="userSpaceOnUse" x1="343.0316" y1="398.5823" x2="533.0416" y2="398.5823">
	<stop  offset="0" style="stop-color:#0065BC"/>
	<stop  offset="0.5" style="stop-color:#10CAFF"/>
	<stop  offset="1" style="stop-color:#0271C4"/>
</linearGradient>
<path class="st3" d="M393,384c16.5-6.2,34.4-8.5,52-7.5c32.7,1.3,65.4,15.8,86.1,41.5c0.8,0.9,1.4,1.9,2,2.9
	c-15.5-12-34-19.9-53-24.6c-37.1-9-77.3-6.1-112.3,9.6c-8.8,3.8-16.8,9.1-24.8,14.3C355.5,403.4,373.5,391.1,393,384z"/>
<g id="_x23_001925ff">
	<path class="st4" d="M148.2,19.1c0.5-1.2,1.4-1.6,2.7-1.4c165,0,330,0,495.1,0c27,0.1,54-0.2,80.9,0.2
		c40.6,71.5,71.1,148.5,92.2,227.9c11.6,44.4,20.5,89.5,25.3,135.1c0.8,9.8,2.2,19.7,1.8,29.6c-44.2,111.3-104,216.3-175.7,312.1
		c-52.1,69.3-110.4,134.1-174.7,192.3c-18.7,16.6-37.7,33-57.9,47.9c-23.6-17.3-45.7-36.8-67.3-56.5
		C316.4,856.1,266.4,801.3,221,743C146.8,647.6,84.7,542.7,38,431.1c-2.9-7.1-6-14-8.5-21.2c0-11.7,1.4-23.3,2.6-34.9
		c5.4-47.1,14.9-93.8,27.5-139.5C80.4,160.2,110,87.3,148.2,19.1 M76.4,288.6c-8.7,39.4-15.6,79.3-17.9,119.5
		c10.9,28.1,23.4,55.7,36.5,82.8c36.3,74.4,79.9,145.2,129.7,211.3c43.1,57.2,90.7,111.1,142.7,160.4c22.6,21.4,45.9,42,70.5,61
		c13.5-10.3,26.5-21.2,39.2-32.4c45.5-40.1,87.8-83.8,127-130c88.8-105,161.5-223.7,212.8-351.3c0.9-1.8,0.4-3.9,0.4-5.8
		c-2.8-39-9.3-77.8-17.9-115.9c-19.3-84.6-50-166.7-92.3-242.4c-179.4,0-358.8,0-538.2,0C126.5,121.6,95.7,203.8,76.4,288.6z"/>
	<path class="st4" d="M171.2,50.1c150.9-0.2,301.8,0,452.7-0.1c26.9,0.1,53.8-0.2,80.8,0.1c42.1,76.6,73,159.4,91.8,244.7
		c7.8,35.6,13.7,71.6,16.4,108c0,1.9,0.5,4-0.2,5.9C761.7,535.7,689.3,653.7,601,758c-41,48.4-85.4,94.1-133.4,135.6
		c-9.7,8.4-19.6,16.5-29.6,24.3c-24.7-19.2-48-40-70.6-61.5c-55.7-53.3-106.5-111.8-151.9-174.1c-61.6-84.6-113.2-176.6-152.3-273.7
		c-0.8-2.2-0.2-4.6-0.1-6.8c3.4-43.6,11.1-86.9,21.5-129.4C103.7,195,132.8,120,171.2,50.1 M189.2,90.3
		c-43,81.1-73.5,169.2-88,259.9c20.7-10.8,41.5-21.2,63.1-30c92.3-38.4,192.8-56.3,292.6-53.6c91.5,2.3,182.6,21.9,266.5,58.7
		c17.5,7.5,34.4,16.3,51.3,24.9C770,319.4,763,289,754.6,259c-0.2-1-0.8-1.6-1.7-1.8c-20.2-9.4-40.9-17.8-61.9-25.2
		c3.4,10.7,7,21.4,10.3,32.2c-31.8-10.2-64.2-18.5-97-25.2c30.7-38.9,66.3-73.6,103.4-106.2c-6.2-14.5-13.8-28.4-20.9-42.6
		c-49.9-0.1-99.7,0.1-149.5-0.1c1.7,2.6,2.9,5.6,4.3,8.4c4.3,9.4,8.8,18.7,12.7,28.2c32.5,0.1,65.1-0.1,97.6,0.1
		c-0.4,0.4-1.1,1.1-1.5,1.5c-11.4,8.2-23.1,16.1-33.9,25.1c-17.1,14.1-33.1,29.6-48.3,45.7c-8.1,8.4-15.6,17.4-23.7,25.7
		C529.3,178.4,510,133.3,487,90.2c-33.6,0-67.2,0.1-100.8,0c-24,44.7-43.7,91.6-59.3,139.9c-15.9,2.3-31.7,4.5-47.4,7.6
		c-35.4,6.5-70.4,15.6-104.7,26.4c14.6-46.9,29.7-94.2,54.3-137c1.5-0.6,3.3-0.2,4.9-0.3c28.3,0,56.5,0,84.8,0
		c5.5-12.3,10.9-24.7,17.1-36.7C287,90.4,238.1,90.2,189.2,90.3 M279.2,323.1c-31.8,9.4-63,20.8-92.8,35.3
		c-26.3,12.9-52,28.2-72.9,49c-2.4,1.9-1,5.3-0.2,7.7c7.6,21.1,16.5,41.8,27.8,61.1c5.4-20.6,15-39.8,26.7-57.5
		c19.4-29.5,45.5-54.4,75.2-73.4c14.9-9.8,30.9-17.5,47-25C286.3,321,282.8,322.1,279.2,323.1 M584.1,320.3c2.3,1.5,4.8,2.4,7.2,3.5
		c18,8.2,35.4,17.9,51.5,29.5c29.3,21.1,54.5,48.2,72.2,79.8c7.5,13.6,14,27.9,17.7,43c1.5-1,2-2.8,2.9-4.3
		c10-18.6,18.6-37.9,25.5-57.8c0.7-1.7,0.6-3.5,0.6-5.3c-6.4-6.3-13.1-12.4-20.3-17.8c-30-22.6-64.4-38.5-99.3-51.9
		C623.1,331.9,603.8,325.3,584.1,320.3 M384.9,333c-27.8,6.1-54.7,16.8-78.4,32.7C285,380,266.4,399,253.4,421.4
		c-1.1,1.8-2,4-3.8,5.2c-12.6,9.4-25.2,18.8-37.8,28.3c-2.5,1.7-3.2,4.8-4.5,7.4c-5.1,12-9.1,24.7-10.2,37.8
		c-1.5,7.2-0.7,14.7-0.8,22c1,17.5,5.5,35,14.7,50c3.9,6.2,8.7,12.2,15.1,15.9c4,2.3,9.6,2.7,13-0.8c4.6-4.9,5.5-11.9,6.1-18.3
		c0.6-14.3,1.8-28.7,4.4-42.8c3.3-18.1,8.2-36.1,17-52.3c0.2,1,0.1,1.9-0.1,2.8c-4.5,18.2-7.6,36.7-9.1,55.4
		c-1.7,21.3-2,42.9,1.7,64c0.9,4.6,1.8,9.5,5,13.1c2,2.3,5.1,3.2,8.1,3.2c6.4,0.1,12.9,0.2,19.2-1.1c1.6-0.5,4.3-0.9,4.1-3.1
		c0.1-3.6-0.5-7.3-0.9-10.9c-1.9-16.3-3.3-32.7-2.7-49.1c0.8-33.3,8.7-66.8,25.5-95.7c2.3-2.9,0.5-6.6-1.8-8.9
		c-6-6.4-13.8-10.4-21.4-14.6c-5.8,5.2-11,11.2-17,16.3c14.5-39.5,44.5-73.4,82.6-91.3c23.4-11.2,49.4-16.2,75.3-16.7
		c34.8-0.4,70.3,7.8,99.6,27.1c29.2,19.1,51.9,48,63.9,80.8c-6-5-11.2-10.9-16.8-16.3c-7.4,3.9-14.9,8-21,13.9
		c-2.3,2.3-4.8,6-2.6,9.1c18.1,31.1,26,67.3,25.8,103.1c0.2,16.4-1.8,32.7-3.5,48.9c0,2.3-1.2,6,1.9,6.7c7.3,2.1,15.1,1.7,22.6,1.6
		c6-0.1,9.4-6,10.6-11.2c4-17.7,4.3-35.9,3.7-54c-1-24.9-4.8-49.7-10.9-73.9c3.4,4.9,5.5,10.5,7.8,16c8.9,23.6,12.7,48.9,14,73.9
		c0.3,6.3,0.5,12.9,3,18.8c1.4,3.5,4,7,7.9,7.8c5,0.9,9.8-1.9,13.5-5.1c8.4-7.5,13.8-17.8,17.8-28.1c12-32.3,8.8-69.4-6.8-100
		c-13.3-10.7-27.5-20.5-40.9-31c-12-21.4-28.5-40.2-48.3-54.7c-32.7-24.1-72.4-37.6-112.5-42.2C437.5,325.3,410.7,327.3,384.9,333
		 M393,384c-19.5,7.1-37.4,19.4-49.9,36.1c8-5.2,16-10.4,24.8-14.3c34.9-15.7,75.2-18.5,112.3-9.6c19,4.7,37.5,12.6,53,24.6
		c-0.6-1-1.3-2-2-2.9c-20.7-25.7-53.4-40.2-86.1-41.5C427.3,375.5,409.5,377.8,393,384 M355.3,493.4c-10.4,17.2-14,38-11.7,57.8
		c2.1,19.6,9.1,38.4,18.4,55.8c10.7,20,20.3,40.9,25.4,63.1c2.9,13,4.5,27,0.5,39.9c-2.7,8.9-9.1,16.6-17.7,20.3
		c-13.3,5.9-28.4,4.5-42.3,1.8c7.7,20,20.9,37.8,38,50.8c13.4,10.3,29.3,17.2,45.9,20.4c18.1,3.4,37,3.3,55-0.6
		c19.5-4.3,37.9-13.8,52.3-27.6c12.7-11.9,22.5-26.8,28.8-43c-12.8,2.5-26.3,3.8-38.9-0.5c-8.3-2.7-15.5-8.7-19.1-16.7
		c-5.7-12.1-4.9-26.2-2.7-39.1c4.1-21.7,12.9-42.3,22.9-61.9c4.8-9,9.6-18.1,13.3-27.6c7.4-19.1,11.5-39.9,8.6-60.4
		c-2.3-17.4-10.1-34.1-22.1-47c-13.4-14.5-31.7-24.1-50.9-28.1c-4.1-0.8-8.7-0.8-12.2,1.7c-2.8,2.1-3.5,5.9-3.5,9.3
		c0,4.3-0.1,8.7,0.1,13c2.3,2.2,5.3,3.8,7,6.7c7.9,11.7,9.3,26.7,7.4,40.4c-1.6,9.5-5,19.6-13.2,25.5c-2.1,1.2-2.7,3.7-2.7,6
		c-1.4,37.8-2.3,75.6-3.9,113.3c-1.4-37.8-2.4-75.6-3.8-113.4c0-2.3-0.6-4.8-2.8-6c-5.3-3.7-8.7-9.5-10.7-15.6
		c-4-11.9-4.2-25.1-1-37.2c2.2-7.5,5.8-15.4,12.9-19.4c0.2-6.1,0.2-12.3-0.8-18.3c-1.4-5.4-7.8-7.3-12.7-6.5
		C393.2,455.2,368.8,470.6,355.3,493.4z"/>
	<path class="st4" d="M413.4,145.6c2.7-6.3,5.1-12.7,8.3-18.8c9.8,0.2,19.6,0,29.4,0.1c14.1,31.8,26.1,64.5,37,97.6
		c-34.5-1.8-69-1.8-103.4,0.2C393.3,198,402.7,171.6,413.4,145.6z"/>
</g>
<path class="st5" d="M76.4,288.6c19.3-84.7,50.1-167,92.5-242.9c179.4,0,358.8,0,538.2,0c42.3,75.8,73.1,157.9,92.3,242.4
	c8.6,38.2,15.1,76.9,17.9,115.9c0,1.9,0.5,4-0.4,5.8c-51.2,127.6-124,246.4-212.8,351.3c-39.2,46.3-81.4,90-127,130
	c-12.8,11.2-25.8,22.1-39.2,32.4c-24.7-19-48-39.6-70.5-61c-52-49.3-99.6-103.2-142.7-160.4C175,636.1,131.3,565.4,95,490.9
	c-13.1-27.2-25.6-54.7-36.5-82.8C60.8,367.8,67.7,327.9,76.4,288.6 M171.2,50.1C132.8,120,103.7,195,84.6,272.5
	C74.2,315,66.5,358.2,63.1,401.8c0,2.3-0.6,4.6,0.1,6.8c39,97.1,90.6,189.1,152.3,273.7c45.4,62.3,96.2,120.7,151.9,174.1
	C390,878,413.3,898.9,438,918c10.1-7.9,20-16,29.6-24.3c48-41.5,92.4-87.2,133.4-135.6c88.2-104.4,160.6-222.4,211.6-349.3
	c0.8-1.9,0.3-3.9,0.2-5.9c-2.7-36.4-8.6-72.4-16.4-108c-18.8-85.4-49.7-168.1-91.8-244.7c-26.9-0.3-53.9,0-80.8-0.1
	C473.1,50.1,322.2,49.9,171.2,50.1z"/>
<linearGradient id="SVGID_5_" gradientUnits="userSpaceOnUse" x1="437.9565" y1="90.19" x2="437.9565" y2="350.2">
	<stop  offset="0" style="stop-color:#C6C7CA"/>
	<stop  offset="0.3" style="stop-color:#FFFFFF"/>
</linearGradient>
<path class="st6" d="M189.2,90.3c48.9-0.1,97.8,0.1,146.7-0.1c-6.3,11.9-11.6,24.4-17.1,36.7c-28.3,0-56.5,0-84.8,0
	c-1.6,0.1-3.3-0.3-4.9,0.3c-24.6,42.8-39.8,90.1-54.3,137c34.3-10.8,69.3-20,104.7-26.4c15.7-3,31.6-5.3,47.4-7.6
	c15.5-48.3,35.3-95.2,59.3-139.9c33.6,0.1,67.2,0,100.8,0c23,43.1,42.3,88.2,57.5,134.6c8.1-8.3,15.6-17.4,23.7-25.7
	c15.2-16.1,31.2-31.6,48.3-45.7c10.9-8.9,22.5-16.9,33.9-25.1c0.4-0.4,1.1-1.1,1.5-1.5c-32.6-0.1-65.1,0.1-97.6-0.1
	c-3.9-9.6-8.5-18.8-12.7-28.2c-1.4-2.8-2.6-5.8-4.3-8.4c49.9,0.1,99.7,0,149.5,0.1c7.1,14.1,14.7,28.1,20.9,42.6
	c-37.2,32.6-72.8,67.3-103.4,106.2c32.7,6.7,65.1,15,97,25.2c-3.2-10.8-6.8-21.4-10.3-32.2c21,7.4,41.7,15.8,61.9,25.2
	c0.9,0.3,1.5,0.9,1.7,1.8c8.4,30,15.4,60.4,20.2,91.2c-16.9-8.7-33.8-17.4-51.3-24.9c-83.8-36.8-175-56.4-266.5-58.7
	c-99.8-2.6-200.4,15.2-292.6,53.6c-21.6,8.8-42.4,19.2-63.1,30C115.7,259.4,146.2,171.4,189.2,90.3 M413.4,145.6
	c-10.7,25.9-20.1,52.4-28.7,79.1c34.4-2,69-2,103.4-0.2c-10.9-33-23-65.7-37-97.6c-9.8-0.1-19.6,0.1-29.4-0.1
	C418.5,132.9,416.1,139.4,413.4,145.6z"/>
<linearGradient id="SVGID_6_" gradientUnits="userSpaceOnUse" x1="196.1658" y1="469.646" x2="679.5185" y2="469.646">
	<stop  offset="0" style="stop-color:#C6C7CA"/>
	<stop  offset="3.556713e-02" style="stop-color:#D2D2D5"/>
	<stop  offset="0.1155" style="stop-color:#E6E6E8"/>
	<stop  offset="0.2064" style="stop-color:#F4F4F5"/>
	<stop  offset="0.3166" style="stop-color:#FCFDFD"/>
	<stop  offset="0.5" style="stop-color:#FFFFFF"/>
	<stop  offset="0.6965" style="stop-color:#FCFDFD"/>
	<stop  offset="0.8146" style="stop-color:#F4F4F5"/>
	<stop  offset="0.9117" style="stop-color:#E6E6E8"/>
	<stop  offset="0.9974" style="stop-color:#D2D3D6"/>
	<stop  offset="1" style="stop-color:#D1D2D5"/>
</linearGradient>
<path class="st7" d="M384.9,333c25.8-5.7,52.6-7.7,78.9-4.5c40.1,4.7,79.8,18.1,112.5,42.2c19.8,14.5,36.3,33.3,48.3,54.7
	c13.4,10.6,27.6,20.3,40.9,31c15.5,30.6,18.8,67.6,6.8,100c-4,10.4-9.4,20.6-17.8,28.1c-3.7,3.1-8.4,6-13.5,5.1
	c-3.9-0.8-6.5-4.3-7.9-7.8c-2.5-5.9-2.7-12.5-3-18.8c-1.4-25.1-5.1-50.3-14-73.9c-2.2-5.5-4.3-11.1-7.8-16
	c6.2,24.2,9.9,49,10.9,73.9c0.6,18,0.2,36.3-3.7,54c-1.1,5.2-4.5,11.1-10.6,11.2c-7.5,0.1-15.3,0.6-22.6-1.6
	c-3.1-0.7-1.9-4.4-1.9-6.7c1.8-16.3,3.7-32.5,3.5-48.9c0.2-35.8-7.7-72-25.8-103.1c-2.2-3.2,0.3-6.9,2.6-9.1
	c6-5.9,13.5-10.1,21-13.9c5.6,5.4,10.9,11.3,16.8,16.3c-12.1-32.8-34.7-61.6-63.9-80.8c-29.3-19.3-64.8-27.6-99.6-27.1
	c-25.9,0.5-51.9,5.5-75.3,16.7c-38.2,17.9-68.2,51.8-82.6,91.3c6-5.1,11.1-11.1,17-16.3c7.6,4.1,15.4,8.2,21.4,14.6
	c2.3,2.3,4,6,1.8,8.9c-16.8,28.9-24.7,62.4-25.5,95.7c-0.5,16.4,0.8,32.8,2.7,49.1c0.4,3.6,1,7.2,0.9,10.9c0.2,2.3-2.5,2.7-4.1,3.1
	c-6.3,1.2-12.8,1.1-19.2,1.1c-3,0-6.1-0.9-8.1-3.2c-3.1-3.6-4.1-8.5-5-13.1c-3.7-21.1-3.4-42.7-1.7-64c1.6-18.7,4.7-37.2,9.1-55.4
	c0.3-0.9,0.3-1.9,0.1-2.8c-8.8,16.3-13.7,34.3-17,52.3c-2.6,14.1-3.8,28.5-4.4,42.8c-0.6,6.4-1.5,13.4-6.1,18.3
	c-3.4,3.6-9.1,3.1-13,0.8c-6.4-3.7-11.2-9.7-15.1-15.9c-9.2-15-13.7-32.6-14.7-50c0.1-7.3-0.6-14.8,0.8-22
	c1.1-13.1,5.1-25.8,10.2-37.8c1.3-2.5,2-5.7,4.5-7.4c12.6-9.4,25.1-18.9,37.8-28.3c1.9-1.2,2.7-3.4,3.8-5.2
	c13.1-22.4,31.6-41.4,53.1-55.8C330.2,349.8,357.1,339.1,384.9,333z"/>
<linearGradient id="SVGID_7_" gradientUnits="userSpaceOnUse" x1="437.9666" y1="805.8314" x2="437.9666" y2="450.4947">
	<stop  offset="0" style="stop-color:#C6C7CA"/>
	<stop  offset="0.5" style="stop-color:#FFFFFF"/>
</linearGradient>
<path class="st8" d="M355.3,493.4c13.5-22.8,37.9-38.2,63.8-42.8c5-0.8,11.3,1,12.7,6.5c1,6,1,12.2,0.8,18.3
	c-7.1,3.9-10.8,11.9-12.9,19.4c-3.2,12.1-3,25.3,1,37.2c2,6,5.4,11.8,10.7,15.6c2.1,1.2,2.8,3.7,2.8,6c1.4,37.8,2.4,75.6,3.8,113.4
	c1.5-37.8,2.4-75.6,3.9-113.3c0-2.3,0.6-4.8,2.7-6c8.2-5.8,11.6-16,13.2-25.5c1.9-13.7,0.5-28.7-7.4-40.4c-1.7-2.9-4.7-4.5-7-6.7
	c-0.2-4.3,0-8.7-0.1-13c0-3.3,0.6-7.1,3.5-9.3c3.5-2.6,8.1-2.5,12.2-1.7c19.3,4,37.5,13.6,50.9,28.1c12.1,12.8,19.8,29.5,22.1,47
	c2.9,20.4-1.1,41.3-8.6,60.4c-3.6,9.6-8.5,18.6-13.3,27.6c-10,19.6-18.8,40.1-22.9,61.9c-2.3,12.9-3,26.9,2.7,39.1
	c3.6,8,10.8,14,19.1,16.7c12.5,4.3,26.1,3,38.9,0.5c-6.3,16.2-16.1,31.1-28.8,43c-14.4,13.9-32.8,23.4-52.3,27.6
	c-18,3.9-36.9,4-55,0.6c-16.6-3.2-32.4-10.1-45.9-20.4c-17-13-30.3-30.8-38-50.8c13.9,2.7,29,4,42.3-1.8c8.6-3.7,15-11.4,17.7-20.3
	c4-13,2.4-26.9-0.5-39.9c-5.2-22.2-14.7-43.1-25.4-63.1c-9.3-17.3-16.3-36.1-18.4-55.8C341.3,531.4,344.9,510.6,355.3,493.4z"/>
</svg>
