<?xml version="1.0" encoding="utf-8"?>
<!-- Generator: Adobe Illustrator 21.0.0, SVG Export Plug-In . SVG Version: 6.00 Build 0)  -->
<svg version="1.1" id="Layer_1" xmlns="http://www.w3.org/2000/svg" xmlns:xlink="http://www.w3.org/1999/xlink" x="0px" y="0px"
	 viewBox="0 0 396.686 453.042" style="enable-background:new 0 0 396.686 453.042;" xml:space="preserve">
<style type="text/css">
	.st0{fill:#BE2B38;stroke:#BE2B38;stroke-width:0.0938;}
	.st1{fill:#E94849;stroke:#E94849;stroke-width:0.0938;}
	.st2{fill:#EDA520;stroke:#EDA520;stroke-width:0.0938;}
	.st3{fill:#FFC82C;stroke:#FFC82C;stroke-width:0.0938;}
</style>
<path class="st0" d="M235.434,0.976c18.73-1.74,37.67-0.92,56.31,1.49c8.68,1.38,17.52,2.47,25.91,5.11
	c-10.63,14.93-13.63,34.18-12.23,52.13c0.14-0.01,0.4-0.02,0.53-0.03c0.49-5.74,2.9-11.08,5.59-16.09
	c6.7-11.98,16.5-21.9,27.16-30.41c20.27,6.75,39.64,16,57.88,27.11c-21.59,9.18-39.26,26.58-49.91,47.37
	c-9.02,17.51-14.53,36.57-18.53,55.78c-1.39-3.7-1.17-7.7-1.03-11.58c0.52-18.69,4.98-37.16,12.3-54.32
	c6.54-15.02,15.83-29.99,30.7-37.92c-9.68-4.29-19.43-8.48-29.32-12.26c-7.36,3.72-13.95,8.88-19.61,14.85
	c-8.57,9.75-12.35,22.58-15.11,35c-4.68-7.19-6.62-15.87-7.92-24.25c-1.29-12.1-0.64-24.53,2.75-36.25
	c-18.6-4.63-38.01-6.32-57.13-4.63c-2.27,27.02-3.5,54.13-5.57,81.16c-2.24-3.78-2.95-8.2-4.51-12.26
	c-7.44-21.28-14.25-42.79-21.94-63.98c-4.03,0.68-8.04,1.49-11.94,2.75c3.57,25.47,7.66,50.87,11.01,76.38
	c-2.6-3.21-4.82-6.7-7.09-10.14c-12.72-18.8-25.35-37.66-38.08-56.45c-8.13,1.55-15.83,4.69-23.54,7.6
	c-9.71,3.74-19.51,8.61-26.1,16.94c3.7,22.69,7.74,45.32,11.4,68.01c-14.32-15.99-28.26-32.31-42.57-48.3
	c-20.5,14.7-34.55,36.2-47.71,57.29c8.58,12.29,17.7,24.19,26.15,36.56c-13.58-2.64-27.11-5.55-40.68-8.27
	c-9.58,16.01-16.23,33.6-21.73,51.38c2.3-22.25,9.75-43.7,19.3-63.83c12.21,4.38,23.8,10.26,35.47,15.87
	c-9.49-9.95-19.09-19.82-27.98-30.33c15.08-26.94,35.13-51.07,58.79-70.9c11.41,13.28,21.34,27.74,31.89,41.68
	c-5.63-17.87-11.09-35.81-16.2-53.84c20.93-15.2,44.25-27.04,68.71-35.42c4.48,6.71,8.03,13.95,11.87,21.02
	c6.35,12.22,12.58,24.5,18.64,36.87c-3.53-17.45-7.16-34.9-9.83-52.51c-0.18-3.42-1.53-7.14-0.36-10.43
	c7.75-3.57,16.39-4.33,24.69-5.87c4,11.88,7.21,24,10.68,36.04c2.26,8.37,4.87,16.65,6.65,25.14c1.02-8.07,0.49-16.23,0.73-24.34
	C234.234,26.916,234.334,13.916,235.434,0.976z"/>
<path class="st1" d="M243.774,12.076c19.12-1.69,38.53,0,57.13,4.63c-3.39,11.72-4.04,24.15-2.75,36.25
	c1.3,8.38,3.24,17.06,7.92,24.25c2.76-12.42,6.54-25.25,15.11-35c5.66-5.97,12.25-11.13,19.61-14.85
	c9.89,3.78,19.64,7.97,29.32,12.26c-14.87,7.93-24.16,22.9-30.7,37.92c-7.32,17.16-11.78,35.63-12.3,54.32
	c-0.14,3.88-0.36,7.88,1.03,11.58l0.08,0.26c-0.73,3.33-1.1,6.73-1.92,10.04c-27.04-20.57-60.61-31.98-94.43-33.88
	c-18.11-1.04-36.31,0.79-54.06,4.45c-30.12,6.19-59.18,18.98-82.79,38.87c-12.81,10.87-24.37,23.59-31.9,38.73
	c7.29,0.46,14.52,1.52,21.81,1.98c-20.14,26.7-30.85,59.75-32.82,92.97c-1.01,13.19-0.46,26.45,0.91,39.59
	c1.2,8.74,2.01,17.57,1.19,26.38c-2.37,25.91-14.5,49.93-30.09,70.37c-5.53,6.94-11.05,14.07-17.84,19.81
	c12.92-20,21.88-42.6,26.21-66.01c3.91-21.59,2.91-44.35-4.89-64.99c-7.69-19.83-16.04-39.47-21.84-59.97
	c-4.65-16.61-7.11-34.11-4.89-51.29c5.5-17.78,12.15-35.37,21.73-51.38c13.57,2.72,27.1,5.63,40.68,8.27
	c-8.45-12.37-17.57-24.27-26.15-36.56c13.16-21.09,27.21-42.59,47.71-57.29c14.31,15.99,28.25,32.31,42.57,48.3
	c-3.66-22.69-7.7-45.32-11.4-68.01c6.59-8.33,16.39-13.2,26.1-16.94c7.71-2.91,15.41-6.05,23.54-7.6
	c12.73,18.79,25.36,37.65,38.08,56.45c2.27,3.44,4.49,6.93,7.09,10.14c-3.35-25.51-7.44-50.91-11.01-76.38
	c3.9-1.26,7.91-2.07,11.94-2.75c7.69,21.19,14.5,42.7,21.94,63.98c1.56,4.06,2.27,8.48,4.51,12.26
	C240.274,66.206,241.504,39.096,243.774,12.076z"/>
<path class="st2" d="M180.754,136.356c26.22-4.85,53.67-3.97,79.16,4.2c19.15,6.17,37.39,15.81,52.45,29.24
	c-0.02,10.05-0.98,20.07-1.11,30.11c-0.13,2.09,0.09,4.27-0.67,6.26l-0.04-0.61c-0.21-7.46-2.98-14.52-4.39-21.79
	c-1.38-4.7-1.18-10.51-5.41-13.79c-15.98-13.96-35.94-22.83-56.5-27.58c-38.81-9.36-79.58-1.16-115.8,14
	c-2.97,1.42-6.08,2.53-9.31,3.16C137.674,147.496,159.074,140.266,180.754,136.356z"/>
<path class="st3" d="M128.444,156.396c36.22-15.16,76.99-23.36,115.8-14c20.56,4.75,40.52,13.62,56.5,27.58
	c4.23,3.28,4.03,9.09,5.41,13.79c1.41,7.27,4.18,14.33,4.39,21.79c-10.24-15.22-24.64-27.54-41.3-35.23
	c-17.6-8.21-37.12-11.7-56.46-12c-29.47-0.85-58.77,7.59-84.28,22.12c-6.91,3.95-13.59,8.33-19.64,13.51
	c-8.37-1.12-16.76-2.16-25.15-3.09c9.68-12.52,21.93-23.09,35.42-31.31C122.364,158.926,125.474,157.816,128.444,156.396z"/>
<path class="st2" d="M141.404,187.346c27.36-14.85,59.69-20.56,90.43-15.53c20.18,3.34,39.7,12.3,54.24,26.86
	c7.09,6.92,13.07,15.02,17.33,23.97c-1.16-0.63-2.56-0.98-3.41-2.04c-1.68-2.85-3.82-5.37-6.29-7.55
	c-16.05-15.54-36.62-26.74-58.8-30.21c-16.99-2.83-34.38-0.7-51.05,3.02c-26.56,6.25-52.49,19.93-68.66,42.46
	c-9.91,13.29-13.94,30.17-13.79,46.56c0.02,8.59,1.85,17.11,5.19,25.02c-6.57,3.35-13.12,7.08-18.04,12.71
	c-3.88,3.94-5.97,9.15-8.99,13.7l-0.41,0.63c-5.1-30.33-1.46-62.54,12.78-90.02C102.614,215.666,120.574,198.576,141.404,187.346z"
	/>
<path class="st3" d="M183.854,185.866c16.67-3.72,34.06-5.85,51.05-3.02c22.18,3.47,42.75,14.67,58.8,30.21
	c2.47,2.18,4.61,4.7,6.29,7.55c-27.5-14.27-59.6-19.79-90.21-14.63c-19.87,3.4-39.57,10.64-55.2,23.67
	c-5.65,4.7-10.61,10.28-14.4,16.59c4.01-1.32,7.9-3.1,12.05-3.94c1.64-0.01,3.29,0.05,4.94-0.04c25.04-3.19,50.47-5.22,75.65-2.43
	c9.2,0.94,18.17,3.26,26.96,6.08c13.64,4.35,27.3,9.28,39.27,17.29c4.42-2.45,8.15-5.93,12.48-8.52
	c-6.76,23.04-12.62,46.98-10.67,71.18c1.32,16.69,6.37,33.69,17.43,46.59c1.02,1.11,2.34,1.86,3.59,2.71
	c3.42,3.55,6.68,7.29,10.49,10.48c-16.98-4.75-31.7-17.24-38.74-33.46c-8.37-19.09-9.54-40.44-8.2-60.98
	c-1.85-2.97-4.07-5.67-6.29-8.36c0.73-4.19,4.98-6.93,6.87-10.7c-3.92,2.16-7.79,4.45-12.04,5.92c-17-13.85-39.78-17.5-61.09-17.88
	c-8.74,0.12-17.59,0.1-26.19,1.75c2.26,0.44,4.58,0.57,6.84,1.03c7.68,2.51,15.62,4.45,22.71,8.47c5.16,2.74,10.47,6.72,12.01,12.64
	c-0.92,4.88-2.67,9.81-1.46,14.84c0.46,4.95,4.13,8.61,5.88,13.06c-1.22,7.22-4.11,14.05-5.64,21.22c6.64-2.77,12.52-7,19.04-10.01
	c6,2.87,12.19,5.7,18.98,5.86c-0.34,11.59,1.19,23.29,5.69,34.03c5.65,13.79,15.08,25.94,26.62,35.31
	c10.84,8.8,22.36,16.9,34.89,23.11c4.92,2.1,9.76,5.2,15.31,4.96c2.4,0.88,4.6,2.22,6.97,3.2c-11.57,8.17-24.97,13.47-38.49,17.47
	c-26.21,7.58-54.65,7.87-80.74-0.34c9.3-14.22,15.8-30.79,15.83-47.96c-0.24-8.27-1.92-16.68-5.87-24.01
	c-3.1,19.17-11.83,38-26.8,50.75c-13.09,11.35-30.52,16.7-47.65,17.08c-19.08,0.74-38.7-3.46-54.85-13.93
	c-15.19-9.66-27.06-24.2-34.07-40.72c3.66,3.37,7.06,7.02,10.79,10.32c1.1,1.46,2.12,2.98,3.42,4.28
	c15.16,13.56,34.23,23.48,54.71,25.29c18.32,1.76,37.97-2.59,51.97-15.06c22.26-19.13,27.67-54.1,13.78-79.66
	c-7.34-14.1-20.8-24.47-35.89-29.12c-6.62-1.91-13.51-3.71-20.45-2.71c-14.42-2.22-29.32,1.05-42.16,7.78
	c-15.94,8.42-27.9,23.68-32.83,40.97c-2.46-5.4-3.49-11.41-4.88-17.18c-0.25-2.17-1.4-4.43-0.79-6.58c3.02-4.55,5.11-9.76,8.99-13.7
	c4.92-5.63,11.47-9.36,18.04-12.71c-3.34-7.91-5.17-16.43-5.19-25.02c-0.15-16.39,3.88-33.27,13.79-46.56
	C131.364,205.796,157.294,192.116,183.854,185.866 M259.273,387.736c0.36,10.48,0.96,21.29-2.13,31.45
	c-2.93,7.29-6.41,14.37-9.32,21.68c-0.24,0.8-1.22,2.41,0.31,2.57c8.33,2.3,17.07,2.86,25.68,2.79c15.43-0.05,30.39-4.2,45.14-8.28
	c3.44-1.06,7.08-1.8,10.1-3.87c-23.48,0.78-46.9,5.99-70.43,2.89c1.33-6.79,5.03-13,5.64-20c0.67-8.5-0.91-17-3.11-25.18
	C260.794,390.316,260.074,388.996,259.273,387.736z"/>
<path class="st2" d="M300.634,249.946c12.34-12.26,24.45-24.79,36.82-37.01c-12.26,31.04-21.7,63.18-28.7,95.8
	c-3.96,18.57-2.54,38.72,6.48,55.66c1.88,3.79,4.52,7.11,6.65,10.76c-1.25-0.85-2.57-1.6-3.59-2.71
	c-11.06-12.9-16.11-29.9-17.43-46.59c-1.95-24.2,3.91-48.14,10.67-71.18c-4.33,2.59-8.06,6.07-12.48,8.52
	c-11.97-8.01-25.63-12.94-39.27-17.29c-8.79-2.82-17.76-5.14-26.96-6.08c-25.18-2.79-50.61-0.76-75.65,2.43
	c-1.65,0.09-3.3,0.03-4.94,0.04c15.76-5.04,32.12-8.21,48.57-9.93c32.03-3.45,64.66,2.72,94.15,15.33
	C296.874,248.336,298.613,249.836,300.634,249.946z"/>
<path class="st2" d="M193.534,262.956c6.59,0.51,13.06,2.01,19.42,3.74c9.75,2.57,17.36,10.04,22.95,18.12
	c-2.49,8.21-0.26,17.33,4.94,24.02c-1.42,5.11-3.79,9.86-6.01,14.65c4.03-2.86,7.74-6.26,12.27-8.36c2.43,1.01,4.41,2.93,6.89,3.91
	c4.97,2.39,10.64,2.96,16.06,2.14c-1.02,19.08,6.53,37.7,17.25,53.17c15.61,21.82,36.9,39.15,60.26,52.1
	c-5.55,0.24-10.39-2.86-15.31-4.96c-12.53-6.21-24.05-14.31-34.89-23.11c-11.54-9.37-20.97-21.52-26.62-35.31
	c-4.5-10.74-6.03-22.44-5.69-34.03c-6.79-0.16-12.98-2.99-18.98-5.86c-6.52,3.01-12.4,7.24-19.04,10.01
	c1.53-7.17,4.42-14,5.64-21.22c-1.75-4.45-5.42-8.11-5.88-13.06c-1.21-5.03,0.54-9.96,1.46-14.84c-1.54-5.92-6.85-9.9-12.01-12.64
	C209.154,267.406,201.214,265.466,193.534,262.956z"/>
<path class="st2" d="M160.224,301.326c6.94-1,13.83,0.8,20.45,2.71c15.09,4.65,28.55,15.02,35.89,29.12
	c13.89,25.56,8.48,60.53-13.78,79.66c-14,12.47-33.65,16.82-51.97,15.06c-20.48-1.81-39.55-11.73-54.71-25.29
	c-1.3-1.3-2.32-2.82-3.42-4.28c8.41,6.46,17.33,12.42,27.24,16.33c18.25,7.53,39.36,8.66,57.95,1.68
	c12.29-4.65,22.77-13.96,28.51-25.82c8.2-16.8,7.66-37,0.81-54.16C198.914,317.526,180.004,305.136,160.224,301.326z"/>
<path class="st2" d="M144.874,312.506c3.2-1.41,6.62-0.14,9.93-0.03c14.2,1.73,27.25,10.67,34.05,23.26
	c5.63,9.82,6.94,21.74,4.64,32.73c-2.62,12.32-10.73,23.3-21.59,29.61c-12.94,7.63-29.82,8.62-43.3,1.81
	c9.34,0.43,19.03,3.31,28.14-0.09c12.96-4.4,22.45-16.06,26.02-29.04c2.77-10.3,2.88-21.59-1.2-31.57
	c-3.6-8.74-10.71-15.73-19.07-19.99C156.974,316.096,150.784,314.616,144.874,312.506z"/>
<path class="st3" d="M120.404,321.446c7.04-5.15,15.63-9.11,24.47-8.94c5.91,2.11,12.1,3.59,17.62,6.69
	c8.36,4.26,15.47,11.25,19.07,19.99c4.08,9.98,3.97,21.27,1.2,31.57c-3.57,12.98-13.06,24.64-26.02,29.04
	c-9.11,3.4-18.8,0.52-28.14,0.09c-18.82-8.18-29.65-30.37-25.54-50.33l0.84-0.37c9.96,3.52,19.26,8.62,29,12.66
	c-8.47-6.23-17.44-11.81-25.47-18.63c-0.81-0.82-2.26-1.85-1.44-3.17C108.694,332.496,114.374,326.516,120.404,321.446z"/>
<path class="st2" d="M259.273,387.736c0.8,1.26,1.52,2.58,1.88,4.05c2.2,8.18,3.78,16.68,3.11,25.18c-0.61,7-4.31,13.21-5.64,20
	c23.53,3.1,46.95-2.11,70.43-2.89c-3.02,2.07-6.66,2.81-10.1,3.87c-14.75,4.08-29.71,8.23-45.14,8.28
	c-8.61,0.07-17.35-0.49-25.68-2.79c-1.53-0.16-0.55-1.77-0.31-2.57c2.91-7.31,6.39-14.39,9.32-21.68
	C260.234,409.026,259.634,398.216,259.273,387.736z"/>
</svg>
