<?xml version="1.0" encoding="utf-8"?>
<!-- Generator: Adobe Illustrator 19.0.0, SVG Export Plug-In . SVG Version: 6.00 Build 0)  -->
<svg version="1.1" id="Layer_1" xmlns="http://www.w3.org/2000/svg" xmlns:xlink="http://www.w3.org/1999/xlink" x="0px" y="0px"
	 viewBox="-115 89.048 365 664.38" style="enable-background:new -115 89.048 365 664.38;" xml:space="preserve">
<style type="text/css">
	.st0{fill:#030304;}
	.st1{fill:#C04B17;}
	.st2{fill:#F6A119;}
	.st3{fill:#EB5D14;}
	.st4{fill:#FFFFFF;}
	.st5{fill:#654729;}
	.st6{fill:#EC9B1C;}
	.st7{fill:#FACC15;}
	.st8{opacity:0.84;fill:#C75A0F;enable-background:new    ;}
	.st9{opacity:0.77;fill:#B75A0F;enable-background:new    ;}
	.st10{fill:#CFA90E;}
	.st11{fill:#11B0D4;}
	.st12{fill:#137A9F;}
</style>
<g id="_x23_030304ff">
	<path class="st0" d="M25.2,93.01c16.33-5.82,34.95-5.25,50.78,1.86c9.73,4.23,16.77,13.23,19.93,23.2
		c3.15,9.11,2.87,18.85,3.62,28.33c2.65,0.68,5.63,1.21,7.4,3.53c2.85,3.62,3.46,8.47,3.63,12.94c0.24,5.8-2.84,10.92-4.27,16.38
		c0.42,0.5,1.28,1.49,1.71,1.98c-0.38,2.06-0.77,4.12-1.31,6.15c-0.35,0.01-1.07,0.05-1.43,0.06c-0.48,0.01-1.45,0.04-1.93,0.05
		c0.37-1.43,0.73-2.85,1.07-4.28c-0.76-0.12-2.28-0.37-3.04-0.49c-0.11,1.75-0.27,3.5-0.3,5.25c0.81,0.18,2.43,0.53,3.24,0.71
		c-0.86,0.48-2.58,1.46-3.44,1.94c-0.43,3.44-0.35,6.92-0.95,10.34c-0.59,3.77-3.06,7-3.27,10.86c-0.43,4.98-0.87,9.95-1.46,14.91
		c11.84,7.39,23.59,14.94,35.01,22.98c7.47,5.13,13.69,11.94,21.61,16.43c3.42,2.02,7.55,1.54,11.34,2.07
		c8.62,0.77,17.65,3.4,23.57,10.09c10.2,11.05,17.95,25.3,18.54,40.58c-0.35,10.38-2.93,20.59-2.93,31
		c0.14,6.56,3.11,12.54,4.96,18.71c3.74,11.82,7.71,23.81,8.24,36.29c-0.17,12.94-3.68,25.53-6.7,38.03
		c-1.45,5.96-0.77,12.24-2.6,18.13c-2.19,7.53-7.83,13.59-14.24,17.85c-4.73,3.03-10.58,1.4-15.73,0.7
		c-10.45-1.84-21.03-0.27-31.52,0.13c-0.93,8.75-3.61,17.22-7.59,25.06c3.45,5.99,7.39,11.72,10.32,17.99
		c18.59-2.53,38.02,0.32,54.79,8.86c14.76,7.48,26.9,19.78,34.63,34.37c8.96,16.62,12.38,35.6,13.12,54.29v5.09
		c-1.38,32.92-17.13,64.2-40.3,87.22c-25.19,25.56-60.69,41.05-96.69,40.82c-21.57,0.25-42.98-5.06-62.54-13.99
		C24.93,728,1.95,710.04-13.43,686.48c-11.26-17.03-18.33-36.6-21.72-56.67c-8.65,9.99-15.97,21.1-22.08,32.81
		c-1.98,3.78-4.51,7.59-8.47,9.52c-4.04,2.13-9.59,1.63-12.76-1.82c-2.93-3.02-3.9-7.49-3.37-11.57
		c4.33-29.73,20.39-58.08,45.23-75.36c0.47-4.58,1.05-9.15,1.82-13.69c-4.63-4.24-8.53-9.38-10.37-15.46c1.64-2.55,3.29-5.1,5-7.59
		c-2.37-4.44-4.06-9.2-5.42-14.03c1.71-2.51,3.57-4.91,5.63-7.14c-1.29-3.81-2.54-7.63-3.56-11.51c1.95-2.47,3.97-4.88,6.07-7.22
		c-2.91-8.28-3.9-17.09-3.89-25.83c-12.25-0.24-24.9,0.93-36.7-3.1c-6.44-2.17-13.33-2.17-19.82-4.01c-4.66-1.27-7.44-5.6-9.29-9.76
		c-3.25-7.18-5.07-15.18-4.03-23.07c1.75-13.69-3.11-26.98-3.84-40.56v-15.21c0.78-11.26,2.59-22.52,6.31-33.2
		c1.56-4.5,3.3-9.15,2.88-14.01c-0.45-5.05-1.36-10.11-0.79-15.19c1.6-15.39,7.5-30.76,18.59-41.82
		c8.74-8.97,20.32-16.2,33.15-16.58c3.53-0.18,7.01-1.36,9.64-3.79c14.51-12.06,30.75-22.11,48.26-29.19
		c-0.4-4.54-0.86-9.08-1.36-13.61c-0.11-3.78-3.22-6.48-4.05-10.04c-0.81-3.57-0.81-7.25-1.04-10.88c-1.95,0.46-3.9,0.9-5.84,1.38
		c-1.83-4.19-5.36-9.32-2.48-13.78c-1.58-5.37-5.49-9.88-5.97-15.59c-0.87-6.55,0.29-14.88,7.27-17.64
		c-1.47-12.16-0.34-25.17,5.71-36.03C1.6,104,13.25,96.96,25.2,93.01 M6.94,112.87c-8.48,8.75-10.65,21.61-10.08,33.35
		c0.6,4.89,2.08,9.71,1.71,14.69c-0.29,4.52-1.14,9.2,0.38,13.6c1.56,5.04,3.56,9.98,4.21,15.25c1.21,5.86-0.26,12.14,2.24,17.74
		c2.34,5.71,6.9,10.03,11.51,13.95c-2.04-0.44-4.08-0.88-6.11-1.32c-0.33,8.25-0.5,16.51-0.8,24.76
		c-0.18,7.07,0.38,14.16-0.34,21.21c-0.93-3.52-1.68-7.09-2.51-10.64c-1.06-4.94-1.85-9.94-2.76-14.91
		c-15.75,6.92-30.73,15.86-43.69,27.22c4.96,2.44,9.94,5.08,13.89,9.03c-10.62-2.32-21.62-5.6-32.54-3.35
		c-7.62,2.18-14.98,6.07-20.58,11.72c-11.58,8.89-17.4,23.47-19.08,37.64c-0.89,6.73,1.43,13.42,0.55,20.16
		c-0.55,5.94-3.2,11.38-4.77,17.07c-5.07,18.12-5.71,37.42-2.06,55.88c1.76,8.87,2.43,17.97,1.55,27c-0.69,6.59,1.23,13.16,4.18,19
		c0.79,1.43,1.65,3.14,3.43,3.47c4.49,1.14,9.16,1.34,13.66,2.41c5.04,0.97,9.81,3.13,14.95,3.59c7.33,0.78,14.71,0.81,22.07,0.64
		c21.42-0.66,42.86-2.54,63.91-6.7c16.29-3.07,32.83-4.54,49.36-5.61c-13.23-7.61-26.8-14.82-41.26-19.83
		c-5.17-1.7-10.46-3.21-15.9-3.7c-3.31-0.56-6.19,1.54-9.24,2.43c-17.7,5.99-37.4,6.21-55.19,0.47c15.7,1.13,31.51-1.24,46.42-6.2
		c-2.16-1.24-4.32-2.46-6.51-3.63c-7.98-4.88-14.97-11.3-23.31-15.57c-10.95-4.84-23.2-6.58-35.09-5.48
		c1.39-0.75,2.79-1.46,4.2-2.17c3.87-1.07,7.82-1.88,11.84-2.05c0.59-1.85,1.16-3.69,1.75-5.53c4.73-4.13,8.26-9.57,9.8-15.67
		c5.8-2.6,9.7-8.52,10.21-14.79c0.51-6.36-0.29-12.84-2.28-18.89c-1.75-5.67-6.2-10.14-7.31-16.05c-0.94-5.64-0.23-11.57,1.97-16.85
		c0.19,5.73,0.92,11.6,3.83,16.65c2.29,4.77,7.11,7.65,9.45,12.38c3.78,7.3,3.51,15.75,3.35,23.74c11.92,5.58,24.92,8.88,38.09,9.33
		c5.46,0.06,11.03,1.58,16.41,0c6.87-1.75,14.14-5.54,16.69-12.61c3.74-9.94,5.01-20.59,6.43-31.05c1.21,12.27,2.26,25.14,8.6,36.03
		c2.74,4.83,7.33,8.8,12.94,9.71c10.33,2.08,20.97,4.01,31.53,2.76c3.93-5.77,9.32-10.44,13.19-16.22
		c1.18-7.25,2.8-14.46,5.67-21.25c0.83-1.62,1.66-3.25,2.47-4.89c-2.93-6.45-2.08-14.08,1.41-20.13c0.73,4.71,2.21,9.46,5.34,13.16
		c3.25,4.12,8.33,6.04,13.31,7.07c-3.18,3.45-7.86,4.02-12.21,4.82c-2.68,3.52-3.83,7.94-5.27,12.07c4.54-2.25,9.07-4.51,13.64-6.69
		c3.13-1.47,6.14-3.54,9.68-3.75c4.04,0.07,7.09,3.18,8.65,6.66c3.45-0.54,7.02-1.91,10.51-0.98c3.87,1.55,5.07,5.96,5.73,9.68
		c0.75,0.48,2.25,1.44,2.99,1.91v0.27c1.47,2.52,2.1,5.36,2.17,8.26c-0.72,2.61-1.6,5.21-3.18,7.44c-2.16,2.56-1.02,6.35-3,9
		c-1.67,2.53-4.28,4.2-6.76,5.84c4.56,3.26,8.46,7.43,11.2,12.33c-13.41-9.71-30.48-15.34-47.07-12.66
		c-11.75,1.85-23.31,4.92-35.18,5.99c-8.7,0.96-17.5,0.35-26.05-1.46c-5.33,6.02-9.66,12.94-12.57,20.44L61.15,420
		c-2.69,7.11-4.39,14.54-5.23,22.09c12.53,6.49,24.72,13.63,36.5,21.41c8.06,5.49,18.08,6.55,27.55,7.3
		c15.67,1.16,31.31-0.87,46.97-0.93c6.4-0.19,12.63,1.49,18.98,1.92c3.86-1.76,6.86-5.06,9.38-8.41c4.42-6.31,2.94-14.38,4.57-21.51
		c2.89-12.17,6.41-24.36,6.78-36.94c-0.8-12.09-4.77-23.67-8.43-35.14c-1.67-5.56-4.34-10.95-4.48-16.86
		c-0.37-10.74,1.14-21.41,1.84-32.1c0.22-7.46-1.96-14.88-5.43-21.44c-4.35-8.74-10.3-18.66-20.55-20.96
		c-9.38-1.72-18.99-2.36-28.5-1.64c-3.43,0.23-6.81,1.06-10.25,0.91c3.33-2.6,6.94-4.8,10.67-6.76
		c-14.12-13.61-31.03-23.87-47.6-34.16c-1.23,5.62-2.19,11.31-3.49,16.92c-1.21,4.14-2.14,8.38-4.01,12.29
		c1.4-16.53,2.56-33.11,2.31-49.71c-2.59,1.38-5.25,2.64-8,3.66c5.62-7.39,13.59-14.86,12.5-25.04c-0.68-10.18,1.52-20.2,1.91-30.32
		c-1.46-7.37-3.64-14.62-3.97-22.19c0.39-13.55-2.23-29.23-13.92-37.75c-10.9-7-24.58-8.75-37.25-7.24
		C27.94,99.5,15.69,104,6.94,112.87 M100.56,152.13c1.77,6.76,3.47,13.79,1.79,20.77c1.35-3.83,3.11-7.79,2.47-11.95
		C104.27,157.7,103.79,153.87,100.56,152.13 M-11.26,158.23l0.66-0.03c-2.42,4.74-2.03,10.62,0.2,15.37
		c-0.04,1.12,0.98,1.93,1.39,2.89c-0.69-6.53-0.24-13.04,0.04-19.57C-9.54,157.23-10.68,157.9-11.26,158.23 M-8.93,188.29
		c0.44,1.79,0.82,3.63,1.71,5.27c0.77-0.09,2.32-0.28,3.09-0.37c-0.35-1.98-0.72-3.94-1.11-5.91
		C-6.47,187.61-7.71,187.95-8.93,188.29 M148.71,356.57c-6.68,3.58-14.19,6.03-19.95,11.07c-5.92,7.08-12.44,13.71-17.72,21.29
		l0.83-0.34c-0.55,0.49-1.63,1.48-2.17,1.97c3.67-0.48,7.31-1.24,10.95-1.97c2.79-5.34,5.54-10.82,9.59-15.35
		c2.79-3.23,6.76-4.99,10.02-7.64c5.61-2.6,10.12-7.07,15.65-9.83C153.84,352.97,151.02,355.63,148.71,356.57 M154.58,364.56
		c-5.91,3.87-12.33,6.89-18.32,10.63c-5.34,3.95-10.54,8.22-14.77,13.36c0.76-0.21,2.29-0.65,3.05-0.87
		c3.38-0.34,6.81-0.47,10.15-1.16c2.41-2.26,4.07-5.2,6.45-7.5c3.48-3.66,8.59-4.98,12.36-8.25c2.72-1.23,4.93-3.32,7.52-4.78
		c3.55-2.06,7.6-2.96,11.56-3.83c-0.4-0.68-1.21-2.05-1.62-2.73C165.34,360.43,159.35,361.16,154.58,364.56 M162.41,373.26
		c-7.89,5.1-17.04,7.93-24.73,13.33c3.47-0.03,6.95-0.13,10.42,0.1c3.38-2.26,6.66-4.79,10.52-6.2c5.69-1.99,10.97-6.27,17.35-4.79
		c0.91-2.29,1.23-4.7,0.02-6.94C171.2,369.25,166.41,370.46,162.41,373.26 M-35.63,389.23c-2.46,5.69-6.12,10.65-10.09,15.37
		c11.6,2.14,22,8.08,31.74,14.47c5.5,3.68,11.7,6.29,18.26,7.32c0.62-6.86,2.01-13.64,4.21-20.17c2.33-6.61,5.45-12.94,9.37-18.75
		c-7.08-0.03-14.09-1.14-21.09-1.86c-7.76-2.06-15.42-4.42-22.84-7.49C-28.43,382.51-31.78,386.12-35.63,389.23 M167.41,382.21
		c-3.72,2.22-7.82,3.69-11.53,5.94c3.07,1.01,6.12,2.03,9.13,3.2c4.49-1.43,10.52-4.99,7.89-10.6
		C170.99,380.89,169.05,381.16,167.41,382.21 M17.73,407.52c-2.44,6.32-3.88,13.01-4.46,19.76c11.98,1.21,23.16,5.95,34.14,10.59
		c0.89-6.97,2.54-13.83,5.03-20.4c2.83-6.97,6.46-13.61,10.99-19.62c-12.06-1.98-24.19-4.12-35.65-8.5
		C23.53,394.85,20.17,401.01,17.73,407.52 M52.17,469.97c-0.96,1.61-1.89,3.24-2.94,4.81c-1.46-1.34-1.48-4.73-4.09-4.03
		c-11.94,1.2-23.76,3.33-35.51,5.69c1.3,7.86,2.71,15.98,7.02,22.84c8.91-6.9,20.24-10.18,31.43-10.21
		c11.44-0.06,23.2,2.25,32.97,8.45c5.39-7.04,7.75-15.74,9.75-24.22c-3.1-1.86-5.92-4.95-9.79-4.87
		C71.38,468.45,61.77,469.29,52.17,469.97 M-27.12,480.24c2.5,9.13,6.72,18.5,14.67,24.12c3.94,1.54,8.36,1.04,12.52,1.25
		c0.69-3.7-1.2-7.11-1.94-10.64c-1.36-5.46-1.16-11.12-1.13-16.69C-11.04,478.86-19.07,479.71-27.12,480.24 M105.88,478.19
		c-0.38,7.19-1.58,14.43-4.57,21.03c-1.03,1.96-1.13,4.13-0.64,6.27c4.23,0,8.73,0.39,12.71-1.26c8.57-5.36,13.72-14.71,16.76-24.1
		C122.03,479.84,113.88,479.69,105.88,478.19 M38.9,498.95c-16.71,2.91-30.5,15.87-36.46,31.47c-1.27-0.27-2.59-0.57-3.81,0.09
		c-10.59,4.37-22.35,3.74-33.5,2.53c-1.65,2.41,1.35,4.84,1.9,7.21c1.64,1.57,4.02,1.48,6.11,1.91c8.96,1.5,16.94,7.04,22.12,14.42
		l-0.88,0.41c-7.43-4.83-16.29-7.81-25.22-7.15c-1.66,2.13-4.91,4.25-3.58,7.35c1.53,1.47,2.95,3.65,5.4,3.18
		c9.78-0.23,18.82,3.84,27.52,7.8l0.6,0.83c0.09-2.53,0.15-5.04,0.2-7.56c3.08,6.98,5.88,14.25,11.04,20.04
		c17.83,22.33,55.48,23.41,75.06,2.84c4.15-4.08,6.25-9.68,10.18-13.94c4.94-5.53,11.07-10.3,18.25-12.48
		c-3.88,3.76-7.52,7.8-10.28,12.48c9.28-2.3,18.88-2.91,28.4-2.18l-0.17-0.62c1.51-2.8,2.9-5.66,4.11-8.59
		c-7.75-6.29-17.93-7.46-27.33-9.57c7.95-1.46,16.22-2,24.19-0.3c1.17-1.59,2.18-3.31,2.98-5.12c-0.82-1.46-1.64-2.91-2.45-4.36
		c-9.62,3.32-20.32-0.98-27.29-7.79c7.26,2.82,15.37,2.98,22.85,0.92l0.14-0.28c4.08-1.77,7.23-5.18,8.72-9.37
		c-2.77-4.26-5.22-8.71-7.87-13.04c-10.26,3.62-21.23,4.66-32.05,4.61c1.26,2.66,2.33,5.42,3.15,8.26c0.26,1.53,0.52,3.06,0.81,4.59
		c0.18,2.74,0.28,5.48,0.32,8.23c-0.44,4.42-1.25,8.79-2.26,13.11c-0.46,1.06-0.91,2.12-1.37,3.18c0.11-6.7,0.15-13.5-1.75-19.99
		c-2.81-11.7-11.34-21.33-21.52-27.35C64.27,498.54,51.15,496.94,38.9,498.95 M-33.72,515.91c0.55,1.69,1.1,3.39,1.62,5.1
		c0.61,1.43,1.21,2.87,1.8,4.32c10.14,4.58,21.56,2.81,32.26,4.47c-0.03-3.22,0.21-6.42,0.5-9.62h0.29
		c0.46-1.82,0.95-3.63,1.48-5.43c-11.23,0.55-22.5-0.79-33.42-3.4C-30.73,512.83-32.24,514.35-33.72,515.91 M143.39,532.5
		c-1.44,0.14-2.4,1.23-3.42,2.12c1.13,2.1,2.21,4.23,3.25,6.39c0.39,1.26,0.78,2.52,1.19,3.8c-1.15,2.39-2.34,4.77-3.56,7.13
		c2.17,1.7,4.43,3.46,5.58,6.05c10.57-1.01,21.98,1.03,30.01,8.43c7.18,6.09,9.71,15.82,9.83,24.9c-0.49,6.19-1.72,12.49-5.06,17.84
		c-4.05,6.97-11.38,11.89-19.37,13.01c-9.63,1.37-20.3-0.71-27.53-7.58c-5.91-5.61-8.63-13.74-9.52-21.66
		c-0.68-5.34-0.31-10.73,0.26-16.06c-8.71-0.11-17.69,0.83-25.7,4.46c-5.69,8.05-11.79,16.93-21.35,20.72
		c-12.04,5.83-25.83,6.84-38.96,5.23c-15.37-2.1-30.03-11.34-37.23-25.27c-0.66-1.35-2.05-2.05-3.25-2.82
		c-7.17-4.3-14.9-7.88-23.16-9.43c-2.86,18.23-3.15,36.88-0.3,55.13c2.7,18.31,8.95,36.25,19.43,51.59
		c11.62,17.16,28.05,30.56,45.88,40.88c15.33,9.14,32.31,15.67,50.01,18.32c37.46,5.56,77.42-4.49,106.93-28.47
		c11.62-9.34,21.97-20.45,29.56-33.35c10.4-17.36,15.35-37.95,13.86-58.15c-0.76-10.48-2.15-21.07-5.82-30.97
		c-5.44-18.07-17.57-34.35-34.14-43.64C183.56,531.35,162.73,528.62,143.39,532.5 M142.21,567.01c-1.88,3.7-3.81,7.46-6.64,10.53
		c-0.63,0.1-1.9,0.29-2.53,0.39c-0.96,8.14-0.89,16.75,2.47,24.37c2.28,5.17,6.76,9.36,12.25,10.88c6.92,2,15.12,2.03,21.15-2.4
		c6.22-4.49,9.05-12.4,9.13-19.86c0.18-7.06-2.05-14.75-7.91-19.15C162.44,565.37,151.59,564.77,142.21,567.01 M-38.46,596.33
		c-16.92,14.71-28.71,35.16-33.2,57.1h-0.21c-0.46,3.78-2.58,8.42,0.68,11.56c5.1-2.51,6.55-8.35,9.4-12.8
		c6.82-12.42,15.59-23.62,24.96-34.16c-0.35-7.57-0.61-15.14-0.28-22.72C-37.45,595.57-38.12,596.07-38.46,596.33z"/>
	<path class="st0" d="M48.49,148.5c-1.04-2.49-1.73-5.45-0.37-7.97c1.07,1.88,1.38,4.82,3.83,5.48c5.44,1.17,8.99-4.22,14.02-5.06
		c7.65-2.3,16.33,1.21,20.17,8.23c-5.58-2.99-12.06-5.89-18.44-3.59c-0.77,0.19-2.31,0.57-3.08,0.76c4.03,0.93,7.91,2.54,10.85,5.54
		c-2.25,2.38-4.81,4.52-7.93,5.67c-3.02,0.28-5.93-0.65-8.8-1.45c1.41,1.35,2.89,2.63,4.38,3.89c-3.17,0.23-6.11-0.77-8.63-2.64
		c-1.81-1.72-3.14,1.84-4.83,1.17C48.87,155.22,49.95,151.67,48.49,148.5 M59.04,151.84c2.64,3.97,8.45,3.21,11.71,0.45
		C67.46,149.47,62.41,148.78,59.04,151.84z"/>
	<path class="st0" d="M36,145.78c2.88-0.23,3.96-3.36,5.53-5.28c0.23,2.65,0.06,5.35-1.16,7.77c-2.57,5.19-0.3,11.23-2.39,16.54
		c-1.45,4.15-5.47,7.3-5.35,11.99c-0.14,2.78,2.2,4.56,4.27,5.92c-1.95,0.47-4.06,0.32-5.94,1.03c-2.34,1.81-4.04,4.29-6.05,6.44
		c0.4-3.09,1.32-6.07,2.52-8.94c1.53-3-0.2-6.57,1.4-9.55c1.28-2.56,2.9-4.94,3.89-7.64c-1.72-0.16-3.45-0.31-5.17-0.46
		c1.69-1.44,3.31-2.97,4.76-4.65c-3.81,1.11-7.85,1.84-11.72,0.51c-2.02-1.04-3.95-2.26-5.87-3.47c3.18-3.87,7.65-6.37,12.67-6.81
		c-3.53-0.39-7.11-0.78-10.64-0.18c-3.86,0.57-7.44,2.18-11.02,3.64c4.16-5.22,10.57-8.63,17.29-8.7
		C27.45,143.63,31.68,145.12,36,145.78 M19.11,155.41c3.91,2.49,9.07,2.28,12.71-0.6C28.61,150.67,22.56,152.6,19.11,155.41z"/>
	<path class="st0" d="M49.82,161.28c2.52,3.33,5.28,6.61,9.12,8.45c6.32,3.11,7.66,11.05,6.56,17.36c-1.34-2.89-1.77-7.12-5.32-8.15
		c-2.42,1.2-4.76,2.69-7.55,2.88c2.52-2.05,4.78-5.39,3-8.66C53.23,169.45,49.97,165.98,49.82,161.28z"/>
	<path class="st0" d="M36.17,172.77c4.02,5.03,11.84,3.88,15.58-0.87c0.01,2.78,3.01,5.24,1.26,8c-1.42,0.43-2.84,0.81-4.26,1.2
		c-1.19,1.34-2.45,2.62-3.74,3.86c-1.18-0.56-2.36-1.12-3.55-1.67c-0.17-0.56-0.53-1.68-0.71-2.24c-1.28-0.14-2.56-0.3-3.83-0.49
		C33.21,179.36,35.7,175.31,36.17,172.77z"/>
	<path class="st0" d="M25.79,195.39c5.53-1.53,9.07-6.14,13.9-8.85c1.64,0.89,3.3,1.74,4.95,2.61c1.94-0.97,3.89-1.91,5.85-2.84
		c2.68,1.24,4.65,3.46,6.88,5.3c2.22,1.83,5.22,1.8,7.92,2.1c-3.19,2.07-6.95,1.55-10.33,0.32c-3.01-1.3-6.07-0.08-9,0.7
		c-3.28-0.21-6.53-2.02-9.81-0.61C32.84,195.42,29.34,196.17,25.79,195.39z"/>
	<path class="st0" d="M50.21,200.62c3.91,1.03,7.12-1.82,10.19-3.73c-1.14,1.97-2.11,4.13-3.91,5.6c-2.06,1.91-5.09,3.3-5.59,6.37
		c-0.8,3.9-0.76,9.76,3.91,11.14c6.53,2.38,12.99-1.44,18.16-5.14c-1.62,3.18-3.66,6.22-6.41,8.53c-2.48,2.21-5.54,4.02-7.01,7.14
		c-2.79,5.71-4.55,11.86-6.44,17.92c1.5,2.18,2.96,4.38,4.42,6.59c-1.59,2.71-3.29,5.35-5.06,7.95c1.45,4.42,1.74,9.08,1.14,13.67
		c-0.98-0.52-1.95-1.05-2.93-1.56c-0.15,4.56,3.2,7.56,6.75,9.74c-4.05,0.34-8.48,0.91-12.12-1.35c-3.92-2.13-5.96-6.3-7.62-10.23
		c-0.5,0.57-1.51,1.72-2.01,2.3c-1.47-4.43-1.02-9.2,1.67-13.07c-1.21-2.49-2.72-4.89-3.35-7.62c0.61-2.92,2.54-5.33,4.02-7.85
		c-1.9-6.26-4.1-12.69-8.55-17.65c-2.35-2.69-5.6-4.34-8.16-6.79c-1.7-1.6-1.93-4.08-2.64-6.18c4.23,4.55,10.95,6.36,16.93,4.93
		c4.39-1.35,6.03-6.29,6.45-10.42c0.45-2.41-0.63-5.35-3.19-6.03c-3.35-1.06-6.55-2.64-8.65-5.56c3.47,1.02,7.07,2.35,10.73,1.48
		C44,200.08,47.13,199.9,50.21,200.62 M39.01,254.92c0.59,1,1.18,1.99,1.77,2.98c3.05,0.03,6.11,0.1,9.16,0.26
		c0.69-1.01,1.39-2.03,2.08-3.04c-0.66-0.84-1.33-1.67-1.99-2.51c-3-0.29-6-0.44-9.01-0.46C40.35,253.07,39.68,254,39.01,254.92z"/>
	<path class="st0" d="M26.54,516.41c9.01-6.29,20.77-8.33,31.41-5.69c10.06,2.39,19,9.07,24.21,17.99
		c6.35,10.56,7.1,24.17,2.15,35.44c-2.21,5.19-5.77,9.68-9.64,13.74c-7.32,5.73-16.24,9.72-25.68,9.62
		c-13.47,0.31-26.48-7.08-33.66-18.38c-5.23-9.01-7.11-20-4.49-30.15C13.1,529.89,18.76,521.66,26.54,516.41 M42.11,517.28
		c-7.62,1.85-14.75,6.18-19.29,12.66c-5.23,7.05-7.07,16.23-5.54,24.82c2.01,8.84,7.55,16.9,15.51,21.37
		c6.79,4.12,15,4.82,22.72,3.74l-0.08-0.4c10.59-1.93,19.49-10.15,23.11-20.18c2.13-5.56,2.24-11.65,1.33-17.47l-0.2,0.02
		C76.48,525.24,58.61,513.58,42.11,517.28z"/>
</g>
<g id="_x23_c04b17ff">
	<path class="st1" d="M6.94,112.87C15.69,104,27.94,99.5,40,97.4c12.67-1.51,26.35,0.24,37.25,7.24
		c11.69,8.52,14.31,24.2,13.92,37.75c-1.23-3.37-2.88-6.68-5.58-9.12c-2.24-2.51-5.79-4.59-5.77-8.35
		c-0.23-4.29-0.22-10.04-5.23-11.6c-18.15-6.31-37.93-4.53-56.47-0.93c-3.75,0.8-8.29,1.51-10.32,5.21
		c-2.53,5.39-1.38,11.56-2.66,17.23c-2.03,4.26-5.47,7.64-8.28,11.39C-3.71,134.48-1.54,121.62,6.94,112.87z"/>
</g>
<g id="_x23_f6a119ff">
	<path class="st2" d="M18.12,112.39c18.54-3.6,38.32-5.38,56.47,0.93c5.01,1.56,5,7.31,5.23,11.6c-0.02,3.76,3.53,5.84,5.77,8.35
		c2.7,2.44,4.35,5.75,5.58,9.12c0.33,7.57,2.51,14.82,3.97,22.19c-1.16,4.25-2.32,8.73-5.25,12.16c-4.06,4.92-10.6,7.67-13.17,13.8
		c-3.2,7.74-0.64,16.52-3.75,24.32c-5.17,3.7-11.63,7.52-18.16,5.14c-4.67-1.38-4.71-7.24-3.91-11.14c0.5-3.07,3.53-4.46,5.59-6.37
		c1.8-1.47,2.77-3.63,3.91-5.6c-3.07,1.91-6.28,4.76-10.19,3.73c-3.08-0.72-6.21-0.54-9.27,0.18c-3.66,0.87-7.26-0.46-10.73-1.48
		c2.1,2.92,5.3,4.5,8.65,5.56c2.56,0.68,3.64,3.62,3.19,6.03c-0.42,4.13-2.06,9.07-6.45,10.42c-5.98,1.43-12.7-0.38-16.93-4.93
		c-1.34-4.44-2.75-8.93-2.8-13.61c-0.28-3.99,0.37-8.08-0.63-11.99c-0.99-3.46-4.52-5.03-7.23-6.95c-3.74-2.32-6.52-5.81-9.06-9.34
		c-1.52-4.4-0.67-9.08-0.38-13.6c0.37-4.98-1.11-9.8-1.71-14.69c2.81-3.75,6.25-7.13,8.28-11.39c1.28-5.67,0.13-11.84,2.66-17.23
		C9.83,113.9,14.37,113.19,18.12,112.39 M48.49,148.5c1.46,3.17,0.38,6.72,1.17,10.03c1.69,0.67,3.02-2.89,4.83-1.17
		c2.52,1.87,5.46,2.87,8.63,2.64c-1.49-1.26-2.97-2.54-4.38-3.89c2.87,0.8,5.78,1.73,8.8,1.45c4.98,0.74,9.17-2.73,12.44-6.01
		c-3.1-3.57-7.59-5.61-12.28-5.96c6.38-2.3,12.86,0.6,18.44,3.59c-3.84-7.02-12.52-10.53-20.17-8.23
		c-5.03,0.84-8.58,6.23-14.02,5.06c-2.45-0.66-2.76-3.6-3.83-5.48C46.76,143.05,47.45,146.01,48.49,148.5 M36,145.78
		c-4.32-0.66-8.55-2.15-12.98-1.84c-6.72,0.07-13.13,3.48-17.29,8.7c3.58-1.46,7.16-3.07,11.02-3.64c-2.34,2.16-5.13,3.72-7.55,5.79
		c3.03,2.86,7.01,5.52,11.39,4.67c3.87,1.33,7.91,0.6,11.72-0.51c-1.45,1.68-3.07,3.21-4.76,4.65c1.72,0.15,3.45,0.3,5.17,0.46
		c-0.99,2.7-2.61,5.08-3.89,7.64c-1.6,2.98,0.13,6.55-1.4,9.55c-1.2,2.87-2.12,5.85-2.52,8.94c2.01-2.15,3.71-4.63,6.05-6.44
		c1.88-0.71,3.99-0.56,5.94-1.03c-2.07-1.36-4.41-3.14-4.27-5.92c-0.12-4.69,3.9-7.84,5.35-11.99c2.09-5.31-0.18-11.35,2.39-16.54
		c1.22-2.42,1.39-5.12,1.16-7.77C39.96,142.42,38.88,145.55,36,145.78 M49.82,161.28c0.15,4.7,3.41,8.17,5.81,11.88
		c1.78,3.27-0.48,6.61-3,8.66c2.79-0.19,5.13-1.68,7.55-2.88c3.55,1.03,3.98,5.26,5.32,8.15c1.1-6.31-0.24-14.25-6.56-17.36
		C55.1,167.89,52.34,164.61,49.82,161.28 M36.17,172.77c-0.47,2.54-2.96,6.59,0.75,7.79c1.35,1.78,2.75,3.65,2.77,5.98
		c-4.83,2.71-8.37,7.32-13.9,8.85c3.55,0.78,7.05,0.03,10.36-1.27c3.28-1.41,6.53,0.4,9.81,0.61c2.93-0.78,5.99-2,9-0.7
		c3.38,1.23,7.14,1.75,10.33-0.32c-2.7-0.3-5.7-0.27-7.92-2.1c-2.23-1.84-4.2-4.06-6.88-5.3c0-0.97,0-1.93,0.01-2.89
		c0.87-1.15,1.72-2.32,2.51-3.52c1.75-2.76-1.25-5.22-1.26-8C48.01,176.65,40.19,177.8,36.17,172.77z"/>
	<path class="st2" d="M100.56,152.13c3.23,1.74,3.71,5.57,4.26,8.82c0.64,4.16-1.12,8.12-2.47,11.95
		C104.03,165.92,102.33,158.89,100.56,152.13z"/>
	<path class="st2" d="M90.43,253.7c1.3-5.61,2.26-11.3,3.49-16.92c16.57,10.29,33.48,20.55,47.6,34.16
		c-3.73,1.96-7.34,4.16-10.67,6.76c3.44,0.15,6.82-0.68,10.25-0.91c9.51-0.72,19.12-0.08,28.5,1.64
		c10.25,2.3,16.2,12.22,20.55,20.96c0.74,7.79,1.25,15.59,0.87,23.42c-1.31,0.62-1.66,1.67-1.05,3.13l0.13,0.8
		c-1.26,0.77-1.61,1.85-1.05,3.25c-1.4,4.08-2.74,9.07-7.06,10.98c-3.44-0.02-6.63-1.63-10.01-2.1c-4.61-0.92-9.38-0.46-13.85,0.9
		c5.21,2.28,10.86,3.94,15.22,7.77c4.93,4.18,9.03,10.35,8.4,17.07c-0.74-0.47-2.24-1.43-2.99-1.91c-0.66-3.72-1.86-8.13-5.73-9.68
		c-3.49-0.93-7.06,0.44-10.51,0.98c-1.56-3.48-4.61-6.59-8.65-6.66c-3.54,0.21-6.55,2.28-9.68,3.75c-4.57,2.18-9.1,4.44-13.64,6.69
		c1.44-4.13,2.59-8.55,5.27-12.07c4.35-0.8,9.03-1.37,12.21-4.82c-4.98-1.03-10.06-2.95-13.31-7.07c-3.13-3.7-4.61-8.45-5.34-13.16
		c-3.49,6.05-4.34,13.68-1.41,20.13c-0.81,1.64-1.64,3.27-2.47,4.89c-16.71,8.79-36.99,10.92-54.9,4.63
		c-6.6-2.2-10.07-9.05-11.55-15.41c-2.59-11.52-1.21-23.52,1.27-34.93c1.14-4.98,2.79-10.49,7.34-13.41
		c5.45-3.42,12.13-3.41,18.29-4.37c8.26-0.97,16.45-2.91,24.06-6.3c0.92-0.61,2.47-0.8,2.85-1.96c-5.23-2.27-10.98-3.65-15.42-7.41
		C93.34,263.52,90.77,258.77,90.43,253.7z"/>
	<path class="st2" d="M-39.3,267.77c12.96-11.36,27.94-20.3,43.69-27.22c0.91,4.97,1.7,9.97,2.76,14.91
		c-1.87,4.35-3.69,8.99-7.41,12.13c-4.69,4.36-10.96,6.26-17,7.88c9.89,5.11,21.24,6.83,32.28,6.86c8.32-0.16,17.11-0.02,24.63,4.01
		c4.68,2.47,8.04,7.23,8.48,12.55c1.06,9.72,1.24,19.57,0.31,29.31c-0.93,6.26-2.22,13.46-7.7,17.44
		c-7.58,5.63-17.48,7.15-26.7,6.27c-11.18-1.13-22.31-4.38-32-10.12c-9.89-7.3-18.37-17.58-20.61-29.96
		c-0.72,1.45-1.45,2.9-2.11,4.38c-2.2,5.28-2.91,11.21-1.97,16.85c1.11,5.91,5.56,10.38,7.31,16.05c1.99,6.05,2.79,12.53,2.28,18.89
		c-0.51,6.27-4.41,12.19-10.21,14.79c-1.54,6.1-5.07,11.54-9.8,15.67c-2.78-1.17-5.98-1.99-7.94-4.46
		c-3.48-4.2-4.25-9.79-4.81-15.03c-0.77-6.41-0.22-12.87-0.65-19.3c-4.79,14.98-4.46,31.31-0.19,46.37
		c-1.41,0.71-2.81,1.42-4.2,2.17c11.89-1.1,24.14,0.64,35.09,5.48c8.34,4.27,15.33,10.69,23.31,15.57
		c-13.86,3.32-28.52,4.22-42.54,1.37c-8.06-1.51-15.2-5.99-23.31-7.31c-3.16-0.78-6.77-0.69-9.48-2.67
		c-2.28-3.43-1.8-7.88-2.22-11.81c-0.44-16.57-3-33.69,2.25-49.8c2.28-7.66,7.05-14.73,13.93-18.94c4.83-3.07,10.56-3.99,16-5.37
		c-3.77-2.24-7.73-4.54-12.21-4.83c-4.22-0.39-9.06-0.37-12.16-3.76c-6.1-6.08-6-15.66-4.13-23.49c1.2-6.39,4.94-11.78,7.8-17.48
		c5.6-5.65,12.96-9.54,20.58-11.72c10.92-2.25,21.92,1.03,32.54,3.35C-29.36,272.85-34.34,270.21-39.3,267.77z"/>
	<path class="st2" d="M148.71,356.57c2.31-0.94,5.13-3.6,7.2-0.8c-5.53,2.76-10.04,7.23-15.65,9.83
		c-7.4,1.33-12.01,7.71-16.56,13.08c-3.27,4.01-6.6,8.45-11.83,9.91l-0.83,0.34c5.28-7.58,11.8-14.21,17.72-21.29
		C134.52,362.6,142.03,360.15,148.71,356.57z"/>
	<path class="st2" d="M154.58,364.56c4.77-3.4,10.76-4.13,16.38-5.13c0.41,0.68,1.22,2.05,1.62,2.73
		c-3.96,0.87-8.01,1.77-11.56,3.83c-2.59,1.46-4.8,3.55-7.52,4.78c-8.05,2.92-16.28,6.09-22.87,11.74
		c-2.07,1.67-4.01,3.51-6.09,5.17c-0.76,0.22-2.29,0.66-3.05,0.87c4.23-5.14,9.43-9.41,14.77-13.36
		C142.25,371.45,148.67,368.43,154.58,364.56z"/>
	<path class="st2" d="M162.41,373.26c4-2.8,8.79-4.01,13.58-4.5c1.21,2.24,0.89,4.65-0.02,6.94c-6.38-1.48-11.66,2.8-17.35,4.79
		c-3.86,1.41-7.14,3.94-10.52,6.2c-3.47-0.23-6.95-0.13-10.42-0.1C145.37,381.19,154.52,378.36,162.41,373.26z"/>
	<path class="st2" d="M183.92,373.14c2.51,6.09,3.98,12.53,5.8,18.85c1.7,6.75,3.44,13.85,2.12,20.82c-0.79,4.17-4.93,6.43-8.76,7.2
		c-11.68,2.27-23.44-1.08-34.26-5.33c2.87,5.8,8.02,9.8,13.22,13.39c-5.12,4.85-12.4,5.77-19.03,7.06
		c-10.89,1.62-22.06,2.51-33,0.81c-16.97-2.76-32.29-11.13-48.7-15.88c2.91-7.5,7.24-14.42,12.57-20.44
		c8.55,1.81,17.35,2.42,26.05,1.46c11.87-1.07,23.43-4.14,35.18-5.99c16.59-2.68,33.66,2.95,47.07,12.66
		c-2.74-4.9-6.64-9.07-11.2-12.33c2.48-1.64,5.09-3.31,6.76-5.84c1.98-2.65,0.84-6.44,3-9C182.32,378.35,183.2,375.75,183.92,373.14
		z"/>
	<path class="st2" d="M167.41,382.21c1.64-1.05,3.58-1.32,5.49-1.46c2.63,5.61-3.4,9.17-7.89,10.6c-3.01-1.17-6.06-2.19-9.13-3.2
		C159.59,385.9,163.69,384.43,167.41,382.21z"/>
	<path class="st2" d="M-29.12,384.11c8.55,1.17,17.27,3.16,25.89,1.5c7,0.72,14.01,1.83,21.09,1.86
		c-3.92,5.81-7.04,12.14-9.37,18.75c-12.62,3.83-25.95,1.65-38.5-1.29c-2.85-0.74-6.12-1.65-7.67-4.41
		c-0.68-1.25-1.69-3.69,0.73-3.63c9.71-1.33,19.6,0.16,29.3-1.4c-6.22-1.96-12.87-2.53-18.83-5.26
		C-28.89,389.17-29.07,386.38-29.12,384.11z"/>
	<path class="st2" d="M143.39,532.5c19.34-3.88,40.17-1.15,57.42,8.6c16.57,9.29,28.7,25.57,34.14,43.64
		c1.49,13.66,2.88,27.5,0.82,41.19c-2.2,16.54-8.48,33.22-20.82,44.87c-13.87,13.96-33.83,19.73-52.99,21.14
		c-22.1,1.38-44.66-0.94-65.55-8.55c-16.32-6.04-31.54-15.67-42.89-28.97c-6.8-7.72-11.83-17.26-13.43-27.47
		c-0.94-4.02,1.12-9.45,5.95-9.21c12.37-0.16,25.71-1.1,35.84-9.04c9.91-6.56,13.27-19.21,23.27-25.65
		c4.5-3.02,10.88-5.52,15.89-2.22c3.95,2.66,3,8.01,3.75,12.1c0.89,7.92,3.61,16.05,9.52,21.66c7.23,6.87,17.9,8.95,27.53,7.58
		c7.99-1.12,15.32-6.04,19.37-13.01c3.34-5.35,4.57-11.65,5.06-17.84c1.56-8.71,0.21-17.79-2.76-26.06
		c-3.24-8.57-9.62-16.12-18.08-19.88c-6.91-3.33-14.66-4.03-22.21-4.37c-1.04-2.16-2.12-4.29-3.25-6.39
		C140.99,533.73,141.95,532.64,143.39,532.5z"/>
	<path class="st2" d="M-71.66,653.43c4.49-21.94,16.28-42.39,33.2-57.1c0.45,3.15,0.88,6.35,0.62,9.55
		c-1.01,1.95-2.82,3.32-4.31,4.89c-12.07,12.18-19.99,27.6-27.76,42.68C-70.35,653.44-71.23,653.44-71.66,653.43z"/>
</g>
<g id="_x23_eb5d14ff">
	<path class="st3" d="M64.62,146.35c0.77-0.19,2.31-0.57,3.08-0.76c4.69,0.35,9.18,2.39,12.28,5.96c-3.27,3.28-7.46,6.75-12.44,6.01
		c3.12-1.15,5.68-3.29,7.93-5.67C72.53,148.89,68.65,147.28,64.62,146.35z"/>
	<path class="st3" d="M16.75,149c3.53-0.6,7.11-0.21,10.64,0.18c-5.02,0.44-9.49,2.94-12.67,6.81c1.92,1.21,3.85,2.43,5.87,3.47
		c-4.38,0.85-8.36-1.81-11.39-4.67C11.62,152.72,14.41,151.16,16.75,149z"/>
	<path class="st3" d="M89.89,176.74c2.93-3.43,4.09-7.91,5.25-12.16c-0.39,10.12-2.59,20.14-1.91,30.32
		c1.09,10.18-6.88,17.65-12.5,25.04c2.75-1.02,5.41-2.28,8-3.66c0.25,16.6-0.91,33.18-2.31,49.71c1.87-3.91,2.8-8.15,4.01-12.29
		c0.34,5.07,2.91,9.82,7.01,12.82c4.44,3.76,10.19,5.14,15.42,7.41c-0.38,1.16-1.93,1.35-2.85,1.96c-7.61,3.39-15.8,5.33-24.06,6.3
		c-6.16,0.96-12.84,0.95-18.29,4.37c-4.55,2.92-6.2,8.43-7.34,13.41c-2.48,11.41-3.86,23.41-1.27,34.93
		c1.48,6.36,4.95,13.21,11.55,15.41c17.91,6.29,38.19,4.16,54.9-4.63c-2.87,6.79-4.49,14-5.67,21.25
		c-3.87,5.78-9.26,10.45-13.19,16.22c-10.56,1.25-21.2-0.68-31.53-2.76c-5.61-0.91-10.2-4.88-12.94-9.71
		c-6.34-10.89-7.39-23.76-8.6-36.03c-1.42,10.46-2.69,21.11-6.43,31.05c-2.55,7.07-9.82,10.86-16.69,12.61
		c-5.38,1.58-10.95,0.06-16.41,0c-13.17-0.45-26.17-3.75-38.09-9.33c0.16-7.99,0.43-16.44-3.35-23.74
		c-2.34-4.73-7.16-7.61-9.45-12.38c-2.91-5.05-3.64-10.92-3.83-16.65c0.66-1.48,1.39-2.93,2.11-4.38
		c2.24,12.38,10.72,22.66,20.61,29.96c9.69,5.74,20.82,8.99,32,10.12c9.22,0.88,19.12-0.64,26.7-6.27
		c5.48-3.98,6.77-11.18,7.7-17.44c0.93-9.74,0.75-19.59-0.31-29.31c-0.44-5.32-3.8-10.08-8.48-12.55
		c-7.52-4.03-16.31-4.17-24.63-4.01c-11.04-0.03-22.39-1.75-32.28-6.86c6.04-1.62,12.31-3.52,17-7.88
		c3.72-3.14,5.54-7.78,7.41-12.13c0.83,3.55,1.58,7.12,2.51,10.64c0.72-7.05,0.16-14.14,0.34-21.21c0.3-8.25,0.47-16.51,0.8-24.76
		c2.03,0.44,4.07,0.88,6.11,1.32c-4.61-3.92-9.17-8.24-11.51-13.95c-2.5-5.6-1.03-11.88-2.24-17.74
		c-0.65-5.27-2.65-10.21-4.21-15.25c2.54,3.53,5.32,7.02,9.06,9.34c2.71,1.92,6.24,3.49,7.23,6.95c1,3.91,0.35,8,0.63,11.99
		c0.05,4.68,1.46,9.17,2.8,13.61c0.71,2.1,0.94,4.58,2.64,6.18c2.56,2.45,5.81,4.1,8.16,6.79c4.45,4.96,6.65,11.39,8.55,17.65
		c-1.48,2.52-3.41,4.93-4.02,7.85c0.63,2.73,2.14,5.13,3.35,7.62c-2.69,3.87-3.14,8.64-1.67,13.07c0.5-0.58,1.51-1.73,2.01-2.3
		c1.66,3.93,3.7,8.1,7.62,10.23c3.64,2.26,8.07,1.69,12.12,1.35c-3.55-2.18-6.9-5.18-6.75-9.74c0.98,0.51,1.95,1.04,2.93,1.56
		c0.6-4.59,0.31-9.25-1.14-13.67c1.77-2.6,3.47-5.24,5.06-7.95c-1.46-2.21-2.92-4.41-4.42-6.59c1.89-6.06,3.65-12.21,6.44-17.92
		c1.47-3.12,4.53-4.93,7.01-7.14c2.75-2.31,4.79-5.35,6.41-8.53c3.11-7.8,0.55-16.58,3.75-24.32
		C79.29,184.41,85.83,181.66,89.89,176.74z"/>
	<path class="st3" d="M48.75,181.1c1.42-0.39,2.84-0.77,4.26-1.2c-0.79,1.2-1.64,2.37-2.51,3.52c-0.01,0.96-0.01,1.92-0.01,2.89
		c-1.96,0.93-3.91,1.87-5.85,2.84c-1.65-0.87-3.31-1.72-4.95-2.61c-0.02-2.33-1.42-4.2-2.77-5.98c1.27,0.19,2.55,0.35,3.83,0.49
		c0.18,0.56,0.54,1.68,0.71,2.24c1.19,0.55,2.37,1.11,3.55,1.67C46.3,183.72,47.56,182.44,48.75,181.1z"/>
	<path class="st3" d="M-97.61,322.81c1.68-14.17,7.5-28.75,19.08-37.64c-2.86,5.7-6.6,11.09-7.8,17.48
		c-1.87,7.83-1.97,17.41,4.13,23.49c3.1,3.39,7.94,3.37,12.16,3.76c4.48,0.29,8.44,2.59,12.21,4.83c-5.44,1.38-11.17,2.3-16,5.37
		c-6.88,4.21-11.65,11.28-13.93,18.94c-5.25,16.11-2.69,33.23-2.25,49.8c0.42,3.93-0.06,8.38,2.22,11.81
		c2.71,1.98,6.32,1.89,9.48,2.67c8.11,1.32,15.25,5.8,23.31,7.31c14.02,2.85,28.68,1.95,42.54-1.37c2.19,1.17,4.35,2.39,6.51,3.63
		c-14.91,4.96-30.72,7.33-46.42,6.2c17.79,5.74,37.49,5.52,55.19-0.47c3.05-0.89,5.93-2.99,9.24-2.43c5.44,0.49,10.73,2,15.9,3.7
		c14.46,5.01,28.03,12.22,41.26,19.83c-16.53,1.07-33.07,2.54-49.36,5.61c-21.05,4.16-42.49,6.04-63.91,6.7
		c-7.36,0.17-14.74,0.14-22.07-0.64c-5.14-0.46-9.91-2.62-14.95-3.59c-4.5-1.07-9.17-1.27-13.66-2.41
		c-1.78-0.33-2.64-2.04-3.43-3.47c-2.95-5.84-4.87-12.41-4.18-19c0.88-9.03,0.21-18.13-1.55-27c-3.65-18.46-3.01-37.76,2.06-55.88
		c1.57-5.69,4.22-11.13,4.77-17.07C-96.18,336.23-98.5,329.54-97.61,322.81z"/>
	<path class="st3" d="M191.02,322.81c0.38-7.83-0.13-15.63-0.87-23.42c3.47,6.56,5.65,13.98,5.43,21.44
		c-0.7,10.69-2.21,21.36-1.84,32.1c0.14,5.91,2.81,11.3,4.48,16.86c3.66,11.47,7.63,23.05,8.43,35.14
		c-0.37,12.58-3.89,24.77-6.78,36.94c-1.63,7.13-0.15,15.2-4.57,21.51c-2.52,3.35-5.52,6.65-9.38,8.41
		c-6.35-0.43-12.58-2.11-18.98-1.92c-15.66,0.06-31.3,2.09-46.97,0.93c-9.47-0.75-19.49-1.81-27.55-7.3
		c-11.78-7.78-23.97-14.92-36.5-21.41c0.84-7.55,2.54-14.98,5.23-22.09l0.16,0.06c16.41,4.75,31.73,13.12,48.7,15.88
		c10.94,1.7,22.11,0.81,33-0.81c6.63-1.29,13.91-2.21,19.03-7.06c-5.2-3.59-10.35-7.59-13.22-13.39c10.82,4.25,22.58,7.6,34.26,5.33
		c3.83-0.77,7.97-3.03,8.76-7.2c1.32-6.97-0.42-14.07-2.12-20.82c-1.82-6.32-3.29-12.76-5.8-18.85c-0.07-2.9-0.7-5.74-2.17-8.26
		v-0.27c0.63-6.72-3.47-12.89-8.4-17.07c-4.36-3.83-10.01-5.49-15.22-7.77c4.47-1.36,9.24-1.82,13.85-0.9
		c3.38,0.47,6.57,2.08,10.01,2.1c4.32-1.91,5.66-6.9,7.06-10.98c1.1-0.85,1.45-1.94,1.05-3.25l-0.13-0.8
		C191.03,325.14,191.38,324.1,191.02,322.81z"/>
	<path class="st3" d="M-66.47,359.67c0.43,6.43-0.12,12.89,0.65,19.3c0.56,5.24,1.33,10.83,4.81,15.03
		c1.96,2.47,5.16,3.29,7.94,4.46c-0.59,1.84-1.16,3.68-1.75,5.53c-4.02,0.17-7.97,0.98-11.84,2.05
		C-70.93,390.98-71.26,374.65-66.47,359.67z"/>
	<path class="st3" d="M123.7,378.68c4.55-5.37,9.16-11.75,16.56-13.08c-3.26,2.65-7.23,4.41-10.02,7.64
		c-4.05,4.53-6.8,10.01-9.59,15.35c-3.64,0.73-7.28,1.49-10.95,1.97c0.54-0.49,1.62-1.48,2.17-1.97
		C117.1,387.13,120.43,382.69,123.7,378.68z"/>
	<path class="st3" d="M130.63,382.51c6.59-5.65,14.82-8.82,22.87-11.74c-3.77,3.27-8.88,4.59-12.36,8.25
		c-2.38,2.3-4.04,5.24-6.45,7.5c-3.34,0.69-6.77,0.82-10.15,1.16C126.62,386.02,128.56,384.18,130.63,382.51z"/>
	<path class="st3" d="M-35.63,389.23c3.85-3.11,7.2-6.72,9.56-11.11c7.42,3.07,15.08,5.43,22.84,7.49
		c-8.62,1.66-17.34-0.33-25.89-1.5c0.05,2.27,0.23,5.06,2.64,6.12c5.96,2.73,12.61,3.3,18.83,5.26c-9.7,1.56-19.59,0.07-29.3,1.4
		c-2.42-0.06-1.41,2.38-0.73,3.63c1.55,2.76,4.82,3.67,7.67,4.41c12.55,2.94,25.88,5.12,38.5,1.29c-2.2,6.53-3.59,13.31-4.21,20.17
		c-6.56-1.03-12.76-3.64-18.26-7.32c-9.74-6.39-20.14-12.33-31.74-14.47C-41.75,399.88-38.09,394.92-35.63,389.23z"/>
	<path class="st3" d="M52.17,469.97c9.6-0.68,19.21-1.52,28.84-1.54c3.87-0.08,6.69,3.01,9.79,4.87c-2,8.48-4.36,17.18-9.75,24.22
		c-9.77-6.2-21.53-8.51-32.97-8.45c-11.19,0.03-22.52,3.31-31.43,10.21c-4.31-6.86-5.72-14.98-7.02-22.84
		c11.75-2.36,23.57-4.49,35.51-5.69c2.61-0.7,2.63,2.69,4.09,4.03C50.28,473.21,51.21,471.58,52.17,469.97z"/>
	<path class="st3" d="M-27.12,480.24c8.05-0.53,16.08-1.38,24.12-1.96c-0.03,5.57-0.23,11.23,1.13,16.69
		c0.74,3.53,2.63,6.94,1.94,10.64c-4.16-0.21-8.58,0.29-12.52-1.25C-20.4,498.74-24.62,489.37-27.12,480.24z"/>
	<path class="st3" d="M105.88,478.19c8,1.5,16.15,1.65,24.26,1.94c-3.04,9.39-8.19,18.74-16.76,24.1
		c-3.98,1.65-8.48,1.26-12.71,1.26c-0.49-2.14-0.39-4.31,0.64-6.27C104.3,492.62,105.5,485.38,105.88,478.19z"/>
	<path class="st3" d="M143.22,541.01c7.55,0.34,15.3,1.04,22.21,4.37c8.46,3.76,14.84,11.31,18.08,19.88
		c2.97,8.27,4.32,17.35,2.76,26.06c-0.12-9.08-2.65-18.81-9.83-24.9c-8.03-7.4-19.44-9.44-30.01-8.43
		c-1.15-2.59-3.41-4.35-5.58-6.05c1.22-2.36,2.41-4.74,3.56-7.13C144,543.53,143.61,542.27,143.22,541.01z"/>
	<path class="st3" d="M-24.6,569.76c8.26,1.55,15.99,5.13,23.16,9.43c1.2,0.77,2.59,1.47,3.25,2.82
		c7.2,13.93,21.86,23.17,37.23,25.27c13.13,1.61,26.92,0.6,38.96-5.23c9.56-3.79,15.66-12.67,21.35-20.72
		c8.01-3.63,16.99-4.57,25.7-4.46c-0.57,5.33-0.94,10.72-0.26,16.06c-0.75-4.09,0.2-9.44-3.75-12.1c-5.01-3.3-11.39-0.8-15.89,2.22
		c-10,6.44-13.36,19.09-23.27,25.65c-10.13,7.94-23.47,8.88-35.84,9.04c-4.83-0.24-6.89,5.19-5.95,9.21
		c1.6,10.21,6.63,19.75,13.43,27.47c11.35,13.3,26.57,22.93,42.89,28.97c20.89,7.61,43.45,9.93,65.55,8.55
		c19.16-1.41,39.12-7.18,52.99-21.14c12.34-11.65,18.62-28.33,20.82-44.87c2.06-13.69,0.67-27.53-0.82-41.19
		c3.67,9.9,5.06,20.49,5.82,30.97c1.49,20.2-3.46,40.79-13.86,58.15c-7.59,12.9-17.94,24.01-29.56,33.35
		c-29.51,23.98-69.47,34.03-106.93,28.47c-17.7-2.65-34.68-9.18-50.01-18.32c-17.83-10.32-34.26-23.72-45.88-40.88
		c-10.48-15.34-16.73-33.28-19.43-51.59C-27.75,606.64-27.46,587.99-24.6,569.76z"/>
	<path class="st3" d="M-38.46,596.33c0.34-0.26,1.01-0.76,1.35-1.02c-0.33,7.58-0.07,15.15,0.28,22.72
		c-9.37,10.54-18.14,21.74-24.96,34.16c-2.85,4.45-4.3,10.29-9.4,12.8c-3.26-3.14-1.14-7.78-0.68-11.56h0.21
		c0.43,0.01,1.31,0.01,1.75,0.02c7.77-15.08,15.69-30.5,27.76-42.68c1.49-1.57,3.3-2.94,4.31-4.89
		C-37.58,602.68-38.01,599.48-38.46,596.33z"/>
</g>
<g id="_x23_ffffffff">
	<path class="st4" d="M59.04,151.84c3.37-3.06,8.42-2.37,11.71,0.45C67.49,155.05,61.68,155.81,59.04,151.84z"/>
	<path class="st4" d="M19.11,155.41c3.45-2.81,9.5-4.74,12.71-0.6C28.18,157.69,23.02,157.9,19.11,155.41z"/>
	<path class="st4" d="M101.36,182.72c0.76,0.12,2.28,0.37,3.04,0.49c-0.34,1.43-0.7,2.85-1.07,4.28c0.48-0.01,1.45-0.04,1.93-0.05
		c-0.2,0.81-0.61,2.42-0.81,3.23c-0.9-0.02-2.69-0.04-3.59-0.05c0.86-0.48,2.58-1.46,3.44-1.94c-0.81-0.18-2.43-0.53-3.24-0.71
		C101.09,186.22,101.25,184.47,101.36,182.72z"/>
	<path class="st4" d="M-8.93,188.29c1.22-0.34,2.46-0.68,3.69-1.01c0.39,1.97,0.76,3.93,1.11,5.91c-0.77,0.09-2.32,0.28-3.09,0.37
		C-8.11,191.92-8.49,190.08-8.93,188.29z"/>
</g>
<g id="_x23_654729ff">
	<path class="st5" d="M-11.26,158.23c0.58-0.33,1.72-1,2.29-1.34c-0.28,6.53-0.73,13.04-0.04,19.57c-0.41-0.96-1.43-1.77-1.39-2.89
		c0.43-5.16,0.54-10.33,1.01-15.49l-1.21,0.12L-11.26,158.23z"/>
</g>
<g id="_x23_ec9b1cff">
	<path class="st6" d="M-10.6,158.2l1.21-0.12c-0.47,5.16-0.58,10.33-1.01,15.49C-12.63,168.82-13.02,162.94-10.6,158.2z"/>
</g>
<g id="_x23_facc15ff">
	<path class="st7" d="M39.01,254.92c0.67-0.92,1.34-1.85,2.01-2.77c3.01,0.02,6.01,0.17,9.01,0.46c0.66,0.84,1.33,1.67,1.99,2.51
		c-0.69,1.01-1.39,2.03-2.08,3.04c-3.05-0.16-6.11-0.23-9.16-0.26C40.19,256.91,39.6,255.92,39.01,254.92z"/>
	<path class="st7" d="M17.73,407.52c2.44-6.51,5.8-12.67,10.05-18.17c11.46,4.38,23.59,6.52,35.65,8.5
		c-4.53,6.01-8.16,12.65-10.99,19.62C41.01,413.72,29.49,410.12,17.73,407.52z"/>
	<path class="st7" d="M42.11,517.28c16.5-3.7,34.37,7.96,37.56,24.56c-10.43,1.25-20.64,3.89-30.9,6.06
		c2.01,10.56,4.49,21.03,6.66,31.57l0.08,0.4c-7.72,1.08-15.93,0.38-22.72-3.74c-7.96-4.47-13.5-12.53-15.51-21.37
		c10.4-2.19,20.84-4.25,31.2-6.62C46.59,537.81,44.2,527.57,42.11,517.28z"/>
</g>
<g id="_x23_c75a0fd7">
	<path class="st8" d="M189.97,325.94c-0.61-1.46-0.26-2.51,1.05-3.13C191.38,324.1,191.03,325.14,189.97,325.94z"/>
</g>
<g id="_x23_b75a0fc4">
	<path class="st9" d="M189.05,329.99c-0.56-1.4-0.21-2.48,1.05-3.25C190.5,328.05,190.15,329.14,189.05,329.99z"/>
</g>
<g id="_x23_cfa90eff">
	<path class="st10" d="M17.73,407.52c11.76,2.6,23.28,6.2,34.71,9.95c-2.49,6.57-4.14,13.43-5.03,20.4
		c-10.98-4.64-22.16-9.38-34.14-10.59C13.85,420.53,15.29,413.84,17.73,407.52z"/>
	<path class="st10" d="M22.82,529.94c4.54-6.48,11.67-10.81,19.29-12.66c2.09,10.29,4.48,20.53,6.37,30.86
		c-10.36,2.37-20.8,4.43-31.2,6.62C15.75,546.17,17.59,536.99,22.82,529.94z"/>
	<path class="st10" d="M48.77,547.9c10.26-2.17,20.47-4.81,30.9-6.06l0.2-0.02c0.91,5.82,0.8,11.91-1.33,17.47
		c-3.62,10.03-12.52,18.25-23.11,20.18C53.26,568.93,50.78,558.46,48.77,547.9z"/>
</g>
<g id="_x23_11b0d4ff">
	<path class="st11" d="M38.9,498.95c12.25-2.01,25.37-0.41,36.26,5.77c10.18,6.02,18.71,15.65,21.52,27.35
		c1.9,6.49,1.86,13.29,1.75,19.99c0.46-1.06,0.91-2.12,1.37-3.18c2.92,0.01,5.85,0.14,8.76,0.54c9.4,2.11,19.58,3.28,27.33,9.57
		c-1.21,2.93-2.6,5.79-4.11,8.59c-0.72-2.37-1.14-4.9-2.49-7.01c-1.46-1.42-3.48-2.01-5.33-2.7c-8.2-2.74-16.97-4.64-25.63-3.43
		c-1.76,1.88-3.07,4.14-4.56,6.23c0.24-10.99,0.37-22.35-3.89-32.71c-3.64-9.78-11.31-18-21.03-21.92
		c-13.57-5.39-29.67-5.03-42.49,2.25c-9.17,5.05-15.74,13.92-19.24,23.67c-2.05,5.09-2.67,10.57-3.82,15.89
		c-2.52-2.76-2.26-7.25-3.33-10.77c-10.44,1.96-21.3,2.77-31.7,0.09c-0.42,1.02-0.83,2.05-1.24,3.08c-0.55-2.37-3.55-4.8-1.9-7.21
		c11.15,1.21,22.91,1.84,33.5-2.53c1.22-0.66,2.54-0.36,3.81-0.09C8.4,514.82,22.19,501.86,38.9,498.95z"/>
	<path class="st11" d="M97.78,514.69c10.82,0.05,21.79-0.99,32.05-4.61c2.65,4.33,5.1,8.78,7.87,13.04
		c-1.49,4.19-4.64,7.6-8.72,9.37c1.07-2.14,2.14-4.27,3.18-6.41c-5.03,0.47-10.08,1.44-15.15,0.86c-5.53-0.52-10.87-2.13-16.08-3.99
		C100.11,520.11,99.04,517.35,97.78,514.69z"/>
	<path class="st11" d="M-33.72,515.91c1.48-1.56,2.99-3.08,4.53-4.56c10.92,2.61,22.19,3.95,33.42,3.4
		c-0.53,1.8-1.02,3.61-1.48,5.43H2.46c-7.84-0.1-15.76,0.39-23.53-0.97c-2.54-0.38-5.07-1.06-7.65-0.92
		c-1.39,0.5-2.28,1.8-3.38,2.72C-32.62,519.3-33.17,517.6-33.72,515.91z"/>
	<path class="st11" d="M101.74,527.54c1.41,1.43,2.8,2.9,4.25,4.31c6.97,6.81,17.67,11.11,27.29,7.79c0.81,1.45,1.63,2.9,2.45,4.36
		c-0.8,1.81-1.81,3.53-2.98,5.12c-0.72-1.46,0-4.35-2.17-4.54c-4.85-0.58-9.85-0.22-14.59-1.62c-5.17-1.21-9.69-4.1-13.93-7.19
		C102.02,533.02,101.92,530.28,101.74,527.54z"/>
	<path class="st11" d="M-30.84,549.84c8.93-0.66,17.79,2.32,25.22,7.15c1.83,1.25,3.51,2.72,4.92,4.45
		c-0.05,2.52-0.11,5.03-0.2,7.56l-0.6-0.83c-4.73-7.67-13.75-11.14-22.23-12.7c-3.62-0.48-8.15-1.79-10.69,1.72
		C-35.75,554.09-32.5,551.97-30.84,549.84z"/>
	<path class="st11" d="M4,560.86c3.65,2.92,6.69,6.86,11.33,8.27c7.18,11.3,20.19,18.69,33.66,18.38c9.44,0.1,18.36-3.89,25.68-9.62
		c5.16-1.45,9.27-4.92,13.55-7.96c-10.14,20.85-38.26,29.83-58.88,19.52C17.76,583.51,8.81,572.86,4,560.86z"/>
</g>
<g id="_x23_137a9fff">
	<path class="st12" d="M26.36,508.29c12.82-7.28,28.92-7.64,42.49-2.25c9.72,3.92,17.39,12.14,21.03,21.92
		c4.26,10.36,4.13,21.72,3.89,32.71c1.49-2.09,2.8-4.35,4.56-6.23c8.66-1.21,17.43,0.69,25.63,3.43c1.85,0.69,3.87,1.28,5.33,2.7
		c1.35,2.11,1.77,4.64,2.49,7.01l0.17,0.62c-9.52-0.73-19.12-0.12-28.4,2.18c2.76-4.68,6.4-8.72,10.28-12.48
		c-7.18,2.18-13.31,6.95-18.25,12.48c-3.93,4.26-6.03,9.86-10.18,13.94c-19.58,20.57-57.23,19.49-75.06-2.84
		c-5.16-5.79-7.96-13.06-11.04-20.04c-1.41-1.73-3.09-3.2-4.92-4.45l0.88-0.41c-5.18-7.38-13.16-12.92-22.12-14.42
		c-2.09-0.43-4.47-0.34-6.11-1.91c0.41-1.03,0.82-2.06,1.24-3.08c10.4,2.68,21.26,1.87,31.7-0.09c1.07,3.52,0.81,8.01,3.33,10.77
		c1.15-5.32,1.77-10.8,3.82-15.89C10.62,522.21,17.19,513.34,26.36,508.29 M26.54,516.41c-7.78,5.25-13.44,13.48-15.7,22.57
		c-2.62,10.15-0.74,21.14,4.49,30.15c-4.64-1.41-7.68-5.35-11.33-8.27c4.81,12,13.76,22.65,25.34,28.59
		c20.62,10.31,48.74,1.33,58.88-19.52c-4.28,3.04-8.39,6.51-13.55,7.96c3.87-4.06,7.43-8.55,9.64-13.74
		c4.95-11.27,4.2-24.88-2.15-35.44c-5.21-8.92-14.15-15.6-24.21-17.99C47.31,508.08,35.55,510.12,26.54,516.41z"/>
	<path class="st12" d="M-28.72,518.29c2.58-0.14,5.11,0.54,7.65,0.92c7.77,1.36,15.69,0.87,23.53,0.97c-0.29,3.2-0.53,6.4-0.5,9.62
		c-10.7-1.66-22.12,0.11-32.26-4.47c-0.59-1.45-1.19-2.89-1.8-4.32C-31,520.09-30.11,518.79-28.72,518.29z"/>
	<path class="st12" d="M100.93,522.95c5.21,1.86,10.55,3.47,16.08,3.99c5.07,0.58,10.12-0.39,15.15-0.86
		c-1.04,2.14-2.11,4.27-3.18,6.41l-0.14,0.28c-7.48,2.06-15.59,1.9-22.85-0.92c-1.45-1.41-2.84-2.88-4.25-4.31
		C101.45,526.01,101.19,524.48,100.93,522.95z"/>
	<path class="st12" d="M102.06,535.77c4.24,3.09,8.76,5.98,13.93,7.19c4.74,1.4,9.74,1.04,14.59,1.62c2.17,0.19,1.45,3.08,2.17,4.54
		c-7.97-1.7-16.24-1.16-24.19,0.3c-2.91-0.4-5.84-0.53-8.76-0.54C100.81,544.56,101.62,540.19,102.06,535.77z"/>
	<path class="st12" d="M-34.42,557.19c2.54-3.51,7.07-2.2,10.69-1.72c8.48,1.56,17.5,5.03,22.23,12.7
		c-8.7-3.96-17.74-8.03-27.52-7.8C-31.47,560.84-32.89,558.66-34.42,557.19z"/>
</g>
</svg>
