<?xml version="1.0" encoding="utf-8"?>
<!-- Generator: Adobe Illustrator 19.0.0, SVG Export Plug-In . SVG Version: 6.00 Build 0)  -->
<svg version="1.1" id="Layer_1" xmlns="http://www.w3.org/2000/svg" xmlns:xlink="http://www.w3.org/1999/xlink" x="0px" y="0px"
	 viewBox="3.05 259.956 499.871 321.763" style="enable-background:new 3.05 259.956 499.871 321.763;" xml:space="preserve">
<style type="text/css">
	.st0{fill:url(#SVGID_1_);}
	.st1{fill:url(#SVGID_2_);}
	.st2{fill:url(#SVGID_3_);}
	.st3{fill:url(#SVGID_4_);}
</style>
<linearGradient id="SVGID_1_" gradientUnits="userSpaceOnUse" x1="310.9967" y1="259.9564" x2="310.9967" y2="486.0269">
	<stop  offset="0" style="stop-color:#38A6BA"/>
	<stop  offset="1" style="stop-color:#2AB0C7"/>
</linearGradient>
<path class="st0" d="M446.59,266.26c12.61-3.02,25.3-6.63,38.39-6.28c5.57,0.03,11.81,0.89,15.79,5.2c2.73,2.46,2.17,6.49,1.95,9.77
	c-0.89,4.67-3.55,8.74-5.92,12.77c-9.59,14.14-22.27,25.81-35,37.07c-28.86,24.75-60.37,46.21-92.6,66.29
	c-41.9,25.66-85.33,48.9-130.51,68.25c-20.13,8.48-40.62,16.21-61.69,22.08c-10.7,2.13-21.75,6.93-32.68,3.3
	c-9.83-2.69-17.52-10.76-20.87-20.23c-1.76-4.7-3.07-9.58-3.56-14.58c-2.78-26.06,1.58-52.85,12.38-76.71
	c13.55-30.37,37.82-55.8,67.56-70.7c33.73-17.52,74.43-20.75,110.64-9.38c13.77,4.21,26.85,10.59,38.82,18.57
	c6.78,4.81,13.69,9.63,19.25,15.87c-23.27-19.69-54.76-29.06-85.02-25.81c-30.53,3.14-59.42,19.25-78.13,43.57
	c-9.71,12.4-16.59,26.9-20.58,42.11c-2.63,12.19-4.58,25.45,0.23,37.36c2.86,6.27,9.87,8.36,16.11,9.48
	c12.61,2.04,25.4,0.04,37.83-2.27c27.5-4.94,52.82-17.27,77.81-29.26c26.48-13.34,52.82-27.17,77.59-43.54
	c18.39-13.65,36.4-28.15,51.33-45.62c5.22-6.45,10.38-13.39,12.39-21.58c1.15-4.38-0.7-9.29-4.71-11.5
	c-6.43-3.77-14.27-3.33-21.43-2.75c-20.54,2.41-40.18,9.25-59.48,16.37C396.54,283.21,421.21,273.59,446.59,266.26 M213.9,298.77
	c-25.58,9.97-48.25,27.34-64.46,49.52c-21.77,29.49-31.53,67.5-26.63,103.83c1.31,9.44,5.22,19.01,12.67,25.24
	c5.68,4.97,13.68,6.61,21.05,5.89c17.36-2.68,34.04-8.42,50.58-14.13c12.61-4.93,25.43-9.45,37.58-15.44
	c-7.62,1.59-14.88,4.67-22.6,5.89c-14.92,2.92-30.6,4.81-45.51,0.77c-11.19-2.63-21.54-10.09-26.32-20.72
	c-5.48-11.04-5.32-23.93-3.18-35.79c4.58-22.34,15.95-42.88,30.78-60.02c12.71-14.76,28.59-26.81,46.4-34.73
	c19.22-9.09,40.44-14.32,61.76-14.05c14.58,0.08,28.86,3.56,42.67,7.95c-15.47-7.74-32.58-11.88-49.73-13.66
	C256.93,287.27,234.5,290.82,213.9,298.77z"/>
<linearGradient id="SVGID_2_" gradientUnits="userSpaceOnUse" x1="234.5798" y1="581.7192" x2="234.5798" y2="347.65">
	<stop  offset="0" style="stop-color:#38A6BA"/>
	<stop  offset="1" style="stop-color:#2AB0C7"/>
</linearGradient>
<path class="st1" d="M430.31,375.15c12.17-8.84,24.41-17.65,35.8-27.5c-13.72,17.85-30.4,33.2-47.15,48.17
	c-4.24,3.6-7.17,9.25-6.48,14.9c5.01,30.11-0.02,61.69-13.51,89.02c-18.85,38.87-55.87,68.23-97.9,78.02
	c-15.04,4.09-30.73,4.36-46.2,3.66c-37.6-3.11-73.94-20.96-98.72-49.52c-30.02,14.69-60.95,27.7-92.97,37.38
	c-12.87,3.28-25.78,7.15-39.19,7.17c-6.38-0.04-13.94,0.18-18.57-5.02c-2.82-2.68-2.64-6.97-1.91-10.48
	c1.13-4.28,3.45-8.12,5.68-11.9c8.23-12.16,18.77-22.52,29.61-32.34c17.55-15.63,36.21-30.01,55.62-43.24
	c-16.72,13.38-33.53,27.2-46.14,44.69c-3.54,5.67-7.8,11.77-6.99,18.82c0.2,5.87,6.53,8.79,11.56,9.69
	c13.16,2.1,26.26-1.63,39.01-4.46c20.22-5.64,39.85-13.17,59.01-21.72c4.29-1.57,8.3-4.76,13.11-4.12c2.97,0.19,4.96,2.62,7.2,4.27
	c13.9,11.47,31.03,18.76,48.77,21.62c14.13,1.58,28.69,1.14,42.34-3.13c12.3-3.43,23.92-8.91,35-15.19
	c13.29-7.99,26.29-18.31,32.57-32.92c3.03-6.75,4.26-15.33-0.24-21.73c-3-4.99-9.1-7.08-14.66-7.22c-6.8-0.32-13.29,2.06-19.67,4.1
	c-14.88,5.88-29.54,12.47-44.96,16.87c-10.37,3.3-21.12,5.87-32.02,6.25c20.65-7.26,40.59-16.37,60.43-25.59
	C331.5,438.29,382.41,408.88,430.31,375.15 M351.38,428.3c-11.08,6.62-22.65,12.38-33.81,18.85c12.62-4.83,25.08-10.1,37.54-15.31
	c3.86-1.49,9.08-1.37,11.72,2.26c2.96,3.18,4.14,7.5,4.31,11.76c1.09,14.17,1.07,28.8-3.62,42.39c-5,16.64-15.64,31.27-29.11,42.12
	c-13.34,10.79-29.1,18.22-45.3,23.61c-30.37,10.24-64.12,10.79-94.52,0.41c-11.02-3.34-21.16-8.87-31.28-14.25
	c5.97,5.23,12.08,10.34,18.72,14.71c30.41,20.47,68.82,28.92,104.96,22.47c34.11-5.51,65.85-24.03,87.69-50.78
	c25.36-30.69,37.36-72.07,31.77-111.54c-0.46-3.3-1.27-6.71-0.21-9.98c1.43-5.45,5.25-9.9,9.59-13.34
	c8.74-7.93,17.72-15.67,25.64-24.46C415.37,389.45,383.82,409.67,351.38,428.3z"/>
<linearGradient id="SVGID_3_" gradientUnits="userSpaceOnUse" x1="225.1295" y1="483.4114" x2="225.1295" y2="288.7496">
	<stop  offset="0" style="stop-color:#0D5188"/>
	<stop  offset="1" style="stop-color:#0C4677"/>
</linearGradient>
<path class="st2" d="M213.9,298.77c20.6-7.95,43.03-11.5,65.06-9.45c17.15,1.78,34.26,5.92,49.73,13.66
	c-13.81-4.39-28.09-7.87-42.67-7.95c-21.32-0.27-42.54,4.96-61.76,14.05c-17.81,7.92-33.69,19.97-46.4,34.73
	c-14.83,17.14-26.2,37.68-30.78,60.02c-2.14,11.86-2.3,24.75,3.18,35.79c4.78,10.63,15.13,18.09,26.32,20.72
	c14.91,4.04,30.59,2.15,45.51-0.77c7.72-1.22,14.98-4.3,22.6-5.89c-12.15,5.99-24.97,10.51-37.58,15.44
	c-16.54,5.71-33.22,11.45-50.58,14.13c-7.37,0.72-15.37-0.92-21.05-5.89c-7.45-6.23-11.36-15.8-12.67-25.24
	c-4.9-36.33,4.86-74.34,26.63-103.83C165.65,326.11,188.32,308.74,213.9,298.77z"/>
<linearGradient id="SVGID_4_" gradientUnits="userSpaceOnUse" x1="306.39" y1="367.22" x2="306.39" y2="579.4443">
	<stop  offset="0" style="stop-color:#0D4F85"/>
	<stop  offset="1" style="stop-color:#0C4B7E"/>
</linearGradient>
<path class="st3" d="M351.38,428.3c32.44-18.63,63.99-38.85,94.09-61.08c-7.92,8.79-16.9,16.53-25.64,24.46
	c-4.34,3.44-8.16,7.89-9.59,13.34c-1.06,3.27-0.25,6.68,0.21,9.98c5.59,39.47-6.41,80.85-31.77,111.54
	c-21.84,26.75-53.58,45.27-87.69,50.78c-36.14,6.45-74.55-2-104.96-22.47c-6.64-4.37-12.75-9.48-18.72-14.71
	c10.12,5.38,20.26,10.91,31.28,14.25c30.4,10.38,64.15,9.83,94.52-0.41c16.2-5.39,31.96-12.82,45.3-23.61
	c13.47-10.85,24.11-25.48,29.11-42.12c4.69-13.59,4.71-28.22,3.62-42.39c-0.17-4.26-1.35-8.58-4.31-11.76
	c-2.64-3.63-7.86-3.75-11.72-2.26c-12.46,5.21-24.92,10.48-37.54,15.31C328.73,440.68,340.3,434.92,351.38,428.3z"/>
</svg>
