<?xml version="1.0" encoding="utf-8"?>
<!-- Generator: Adobe Illustrator 19.0.0, SVG Export Plug-In . SVG Version: 6.00 Build 0)  -->
<svg version="1.1" id="Layer_1" xmlns="http://www.w3.org/2000/svg" xmlns:xlink="http://www.w3.org/1999/xlink" x="0px" y="0px"
	 viewBox="122.453 180.24 363.243 530.75" style="enable-background:new 122.453 180.24 363.243 530.75;" xml:space="preserve">
<style type="text/css">
	.st0{fill:#FFFFFF;}
	.st1{fill:none;}
	.st2{fill:#FF7100;}
	.st3{fill:url(#SVGID_1_);}
	.st4{fill:url(#SVGID_2_);}
	.st5{fill:url(#SVGID_3_);}
	.st6{fill:url(#SVGID_4_);}
</style>
<g id="XMLID_1_">
	<path id="XMLID_3_" class="st0" d="M437,577.79c-4.3-43-19.2-81.4-48.8-113.7c-1.6-1.7-1.4-6.3-0.3-8.7c11-22.5,12-45.5,2.4-68.5
		c-6.8-16.1-17.3-29-36.4-29.1c-18.7-0.3-29.3,12.3-36.5,27.9c-2.8,6.1-4.6,12.8-6.9,19.5c-4.1,0-8.5,0-11.8,0
		c-4.4-9.8-7.4-20-13.1-28.7c-16.4-25.4-45.2-25.7-61.7-0.3c-15.9,24.6-16.5,51-4.1,77.2c2.8,6.1,2,9.3-2.2,14
		c-48,52.9-62.5,145.4-31.7,206.3c6.6,13.2,18.346,25.9,26.147,37.3H396c8.2-11.2,17.3-21.4,24.1-33.2
		C437.7,646.59,440.4,612.39,437,577.79z"/>
	<path id="XMLID_5_" d="M463.4,495.69c-15.3-26.8-28.4-54.3-39.4-83c-6.7-17.9-16.3-35.1-26.1-51.8c-6-10.4-14.8-19.3-22.4-28.7
		c-31,23-106.6,22.7-143.3-0.3c-2.5,3-5.2,6.6-8,9.7c-15.3,17.2-26.6,37-35.3,58.3c-13.4,32.8-25.2,66.2-44.7,96.1
		c-1.1,1.6-1.9,3.3-2.7,4.9c-16.7,33.9-25.2,69-13.9,106.5c8.4,27.4,23,51,43,71.5c12.3,12.5,27.447,24.4,41.447,32.1
		c-7.8-11.4-19.547-24.1-26.147-37.3c-30.8-60.9-16.3-153.4,31.7-206.3c4.2-4.7,5-7.9,2.2-14c-12.4-26.2-11.8-52.6,4.1-77.2
		c16.5-25.4,45.3-25.1,61.7,0.3c5.7,8.7,8.7,18.9,13.1,28.7c3.3,0,7.7,0,11.8,0c2.3-6.7,4.1-13.4,6.9-19.5
		c7.2-15.6,17.8-28.2,36.5-27.9c19.1,0.1,29.6,13,36.4,29.1c9.6,23,8.6,46-2.4,68.5c-1.1,2.4-1.3,7,0.3,8.7
		c29.6,32.3,44.5,70.7,48.8,113.7c3.4,34.6,0.7,68.8-16.9,100c-6.8,11.8-15.9,22-24.1,33.2c5.8-3.8,11.8-7.2,17.5-11.5
		c36.2-27,61.4-61.6,70.1-106.5C490.2,558.19,480.6,525.79,463.4,495.69z"/>
</g>
<g>
	<g>
		<polygon class="st1" points="259.6,309.39 264.1,280.89 257.2,280.89 255.4,291.89 246.4,291.89 248.1,280.89 240.7,280.89 
			236.2,309.39 243.6,309.39 245.4,298.09 254.5,298.09 252.7,309.39 		"/>
		<polygon class="st1" points="276.6,303.09 268.7,303.09 272.2,280.89 265.3,280.89 260.8,309.39 275.6,309.39 		"/>
		<g>
			<polygon class="st1" points="293.3,280.89 274.9,280.89 273.9,287.19 280,287.19 277.5,303.09 277.5,303.09 276.5,309.39 
				276.5,309.39 276.5,309.39 283.9,309.39 287.4,287.19 292.3,287.19 			"/>
			<polygon class="st1" points="312.9,280.89 303.3,298.19 299.2,280.89 294.5,280.89 294.2,280.89 293,288.29 298.6,309.39 
				304.3,309.39 321,280.89 			"/>
		</g>
	</g>
	<g>
		<path class="st1" d="M317.7,307.29c-0.2,1.5-1.7,2.8-3.2,2.8s-2.6-1.3-2.3-2.8c0.2-1.5,1.7-2.8,3.2-2.8
			C316.9,304.59,317.9,305.79,317.7,307.29z"/>
		<path class="st1" d="M331.3,302.39c-0.6,3.8-2.4,7.7-6.9,7.7c-4.4,0-5-3.9-4.4-7.7c0.6-3.8,2.4-7.7,6.9-7.7
			C331.3,294.69,331.9,298.59,331.3,302.39z M324.2,302.39c-0.1,0.9-0.6,4,0.9,4c1.4,0,2-3.1,2.1-4s0.6-4-0.9-4
			C324.8,298.39,324.3,301.49,324.2,302.39z"/>
		<path class="st1" d="M338.4,294.99l-0.3,1.8h0.1c1-1.3,2.1-2.2,3.8-2.3l-0.6,4c-0.2,0-0.4-0.1-0.6-0.1c-2.8,0-3.1,1.8-3.4,4
			l-1.2,7.4h-4.1l2.3-14.8L338.4,294.99L338.4,294.99z"/>
		<path class="st1" d="M344.4,311.69c-0.1,0.9,0,2.1,1.2,2.1c1.8,0,2-2.8,2.2-4.1l0.3-1.9H348c-0.4,0.5-0.8,1.1-1.2,1.5
			c-0.5,0.4-1.1,0.7-1.8,0.7c-1.5,0-2.3-1.2-2.8-2.5c-0.5-1.5-0.4-3.4-0.2-5c0.4-2.6,1.7-7.9,5.3-7.9c1.4,0,2.2,0.9,2.5,2.1h0.1
			l0.3-1.8h4.1l-2.6,16.1c-0.7,4.3-2.9,6.1-6.5,6.1c-3.5,0-4.8-2-4.5-5.4L344.4,311.69L344.4,311.69z M349.2,302.29
			c0.1-0.8,0.6-4-0.8-4s-2,3.1-2.1,4s-0.6,4,0.9,4C348.5,306.29,349.1,303.09,349.2,302.29z"/>
	</g>
</g>
<g id="XMLID_1_">
	<g>
		<path class="st2" d="M399.1,215.99l-23,111.8l-2.5,1.7c-14,10.4-39,16.5-67.2,16.5c-0.6,0-1.4,0-2,0V180.73l0.05-0.12l37.75,89.68
			L399.1,215.99z"/>
		<path d="M364.2,402.49c6.7,3.5,9.3,12.2,5.7,20.1c-8.7-4.7-16.9-9.1-25.2-13.5C348.6,401.99,357.5,398.99,364.2,402.49z"/>
		<linearGradient id="SVGID_1_" gradientUnits="userSpaceOnUse" x1="347.05" y1="263.9258" x2="347.05" y2="215.4058">
			<stop  offset="0" style="stop-color:#690000"/>
			<stop  offset="1" style="stop-color:#F04100"/>
		</linearGradient>
		<polygon class="st3" points="348.6,215.29 360.6,245.89 343.4,263.99 333.5,239.29 		"/>
		<path class="st2" d="M328.9,438.19c0,6.6-0.9,9.8-7.2,6.9c-10.9-5-22-5.4-33.4-0.8c-8,3.3-11.5,0.5-8.7-7.9
			c2.5-7.7,6.3-15.6,11.5-21.7c7.6-9,17.8-8.3,26.1,0C323.9,421.59,328,429.99,328.9,438.19z"/>
		<path class="st2" d="M313.8,448.69c-1.7,7.1-5.7,10.1-11,9.1c-3-0.5-5.4-4.1-8-6.3c2.5-1.6,5-3.9,7.7-4.3
			C306.1,446.79,309.9,448.09,313.8,448.69z"/>
		<linearGradient id="SVGID_2_" gradientUnits="userSpaceOnUse" x1="252.2409" y1="147.9104" x2="378.7693" y2="226.9743">
			<stop  offset="0" style="stop-color:#FF7100"/>
			<stop  offset="0.5694" style="stop-color:#FFB500"/>
			<stop  offset="1" style="stop-color:#FF7100"/>
		</linearGradient>
		<polygon class="st4" points="304.5,180.49 304.45,180.61 304.4,180.49 		"/>
		<polygon class="st2" points="304.4,180.49 304.45,180.61 304.4,180.73 		"/>
		<linearGradient id="SVGID_3_" gradientUnits="userSpaceOnUse" x1="208.8675" y1="217.3223" x2="335.3959" y2="296.3862">
			<stop  offset="0" style="stop-color:#FF7100"/>
			<stop  offset="0.5694" style="stop-color:#FFB500"/>
			<stop  offset="1" style="stop-color:#FF7100"/>
		</linearGradient>
		<path class="st5" d="M304.4,180.73v165.26c-27.9-0.4-54.1-6.5-70.6-16.9l-2.4-1.4l-21.7-111.7l57,54.3L304.4,180.73z"/>
		<linearGradient id="SVGID_4_" gradientUnits="userSpaceOnUse" x1="261.6" y1="263.9258" x2="261.6" y2="215.4058">
			<stop  offset="0" style="stop-color:#690000"/>
			<stop  offset="1" style="stop-color:#F04100"/>
		</linearGradient>
		<polygon class="st6" points="260,215.29 275.1,239.29 265.2,263.99 248.1,245.89 		"/>
		<path d="M243.5,402.39c6.8-3.6,15.7-0.5,19.5,6.5c-8.2,4.6-16.6,9.1-24.9,13.5C234.2,415.19,236.7,405.99,243.5,402.39z"/>
	</g>
	<g>
	</g>
</g>
</svg>
