<?xml version="1.0" encoding="utf-8"?>
<!-- Generator: Adobe Illustrator 19.0.0, SVG Export Plug-In . SVG Version: 6.00 Build 0)  -->
<svg version="1.1" id="Layer_1" xmlns="http://www.w3.org/2000/svg" xmlns:xlink="http://www.w3.org/1999/xlink" x="0px" y="0px"
	 viewBox="260.7 -158.41 825.649 1000.411" style="enable-background:new 260.7 -158.41 825.649 1000.411;" xml:space="preserve">
<style type="text/css">
	.st0{fill:#EF5C2A;}
</style>
<g id="_x23_ffffffff">
	<path d="M718.9-158.41c4.9,17.1,6.9,35,8.2,52.7c2.6,44-1.5,88.2-9.9,131.5c-14.8,75.7-42.2,148.4-76.4,217.4
		c11.3-2.4,21.8-9.3,28-19.2c28.3-7,57-13.6,86.3-14c10.9-1.6,20.4-8,28.2-15.4c13.5-12.8,23.1-29.2,31.2-45.8c1-1.9,1.6-4,2.2-6
		c0,3.7-1.3,7.2-2,10.8c-3.9,18.3-6.5,37-4.8,55.7c1.2,9.7,3.9,20.2,11.7,26.7c6.1,5,14.6,5,22,3.7c14.7-3.4,27-12.9,38-22.8
		c6.6-6,12.4-12.8,18.6-19.2c-4.5,7.1-7.8,14.9-11.2,22.7c-5.8,14.4-10.8,29.6-10.1,45.3c0.6,8.3,3.4,17.5,10.8,22.3
		c8.9,5.4,19.9,5,29.7,2.9c15.7-3.5,30.1-11.1,43.7-19.5c-12.7,12.4-24.3,26.3-31.9,42.4c-4.9,10.6-7.8,23.1-3.3,34.3
		c3.5,8.6,12.5,13.4,21,15.7c12.8,3.2,26.4,1.8,39.1-1.2c3.6-0.8,7-2.1,10.7-2.6c-5.7,3.9-10.5,9.1-15.2,14.2
		c-9.1,10.6-16.7,23.3-17.9,37.5c-0.9,8.5,2.5,16.6,3.3,25c2.8,15.6,1.4,31.4,0.1,47c-3.3,36.6-9.3,73-17.4,108.8
		c-0.5,1.8-0.7,3.6-1.5,5.3c-31.4,47.1-75,85.9-125.4,111.6c-55.8,28.7-119.9,40.7-182.3,34.6c15.9-32,28.9-65.6,37.7-100.3
		c5.6-22.9,9.2-46.4,8.4-70c-0.8-17.9-4.3-35.9-12.5-51.9c-1-2-2.3-3.8-2.9-5.9c14.3-10,24-26.2,26.9-43.4c1.2-6.6,0.7-13.3,1-20
		c-3.3,16.2-9.5,32.2-20.5,44.8c-7.6,9-17.5,16.1-28.3,20.7c-6.5,2.9-13.5,4.3-20.2,6.7c-23.6,8.1-45.9,19.7-67,33.1
		c-16.6,10.7-32.6,22.4-46.7,36.3c-11.3,10.8-19.2,24.4-27.4,37.6c-5,8.2-9.7,16.5-14.1,25c-0.9,2-3,3-4.7,4.3
		c-16.1,11.5-32.1,23.4-48.2,35.3c-10.9,8.3-22.4,15.8-33.9,23.2c-0.2-0.6-0.5-1.7-0.7-2.3c-5.6-1.3-10.9,2.1-15.5,5
		c-7.2,5-14.4,12.6-13.4,22.1c-8.7,3.9-18.6,7.6-28.2,4.4c-4.2,5.3-9.4,9.7-13.6,15c0-15.9,1.5-32.6-4.3-47.8
		c-6.9-8.8-7.4-20.6-6.6-31.3c1-8.3,1.7-16.6,2.1-25c0.5-5.6,0.8-11.3,2.5-16.8c1.8-6.1,5.6-11.5,10-16.1c6.8-7,12.4-14.9,18.2-22.7
		c17.9-25,34.9-50.6,51.8-76.3c2.2-3.5,4.7-6.7,6.5-10.5c-6,6.4-12.7,12-18.9,18.2c0.3-19.2,2.2-38.4,5.9-57.2
		c3.5-17.6,8.8-35.2,19.1-50.2c21.5-35.8,42.1-72.3,66.3-106.4c18.9-26.5,39.4-52.3,64.8-72.9c-1,8.6-1,17.6,2.4,25.7
		c3.5,9.1,11.6,16.1,20.9,18.8c-7.4-8.6-13.3-19.2-13.6-30.7c-0.4-8.3,2.8-16.4,7.6-23c49.6-70.2,93.9-144.7,126.1-224.7
		C701.1-40.51,717.5-98.81,718.9-158.41z"/>
</g>
<g id="_x23_ef5c2aff">
	<path class="st0" d="M754.6-73.91c0.6,3,1.6,5.9,2.8,8.8c13.8,37.9,27.6,75.9,41.4,113.9c71.9,22,137.4,64.4,186.9,121
		c49.4,56,82.9,126,95.1,199.7c11,65.5,5.6,133.8-15.8,196.7c-25.6,75.8-74.6,143.4-138.2,192c-33.9,26-72,46.6-112.3,60.8
		c-78,27.5-164.4,30.5-244.1,8.2c-28.2-7.9-55.7-18.6-81.3-32.8c-27.6-15.2-53.4-33.6-77.2-54.2c1.2-1.8,3-3,4.6-4.4
		c16.3-14,32.7-27.9,49-41.9c1.3-1,2.4-2.8,4.3-2.4c51.7,42.5,116.6,68.7,183.4,73.7c61.9,5,125.1-7.8,180-36.8
		c44.3-23.3,83.3-56.7,113-97c34.9-47.1,56.8-103.6,62.5-161.9c3.7-36.1,1.3-72.9-7-108.2c-16.7-71.9-58.7-137.3-116.5-183
		c-45.5-36.2-100.6-60-158.1-68.4c6.7-20.7,13.6-41.4,18.1-62.7c7.4-34,11.5-68.9,10.3-103.7C755.4-62.31,754.3-68.11,754.6-73.91z"
		/>
	<path class="st0" d="M422.9,121.29c60.7-49.3,136-80.5,213.8-88.4c-12.1,30-27.1,59.1-45.8,85.5c-56.8,15.5-109,46.7-149.9,88.9
		c-33.9,34.9-60.1,77.4-75.7,123.6c-20.5,60-22.8,126.1-6.9,187.5c-17,23.7-34.1,47.5-51,71.3c-16.8,27-31.8,55.3-42.6,85.3
		c-1.5,4.7-3.6,9.2-4.1,14.1c0-2.3,0.1-4.5,0.6-6.8c7.7-45.9,15.2-91.9,22.9-137.8c0.4-2.8,1.1-5.6,0.4-8.3
		c-21-81.4-15.6-169.5,15.4-247.8C325.6,223.29,368.6,165.19,422.9,121.29z"/>
</g>
</svg>
