<?xml version="1.0" encoding="utf-8"?>
<!-- Generator: Adobe Illustrator 19.0.0, SVG Export Plug-In . SVG Version: 6.00 Build 0)  -->
<svg version="1.1" id="Layer_1" xmlns="http://www.w3.org/2000/svg" xmlns:xlink="http://www.w3.org/1999/xlink" x="0px" y="0px"
	 viewBox="-43.2 271.6 392.5 298.1" style="enable-background:new -43.2 271.6 392.5 298.1;" xml:space="preserve">
<style type="text/css">
	.st0{fill:url(#SVGID_1_);}
	.st1{fill:#292929;}
</style>
<g id="_x23_1c1c1cff">
	<linearGradient id="SVGID_1_" gradientUnits="userSpaceOnUse" x1="12.0593" y1="584.3493" x2="335.4293" y2="260.9793">
		<stop  offset="0" style="stop-color:#272727"/>
		<stop  offset="1" style="stop-color:#0A0909"/>
	</linearGradient>
	<path class="st0" d="M346,271.6c-20.4,7.6-41.4,13.4-62.8,17.3c-11.5,2.2-23.4,2.1-34.6,5.5c-29.1,8.1-56.3,22.5-80.1,41
		C125.2,368.3,84.7,404.8,45,441.8c-26.6,25.1-52.9,50.5-78.7,76.4c-3.3,3.5-7.7,6.3-9.5,10.9c2-1,3.9-2.3,5.5-3.8
		c6-5.7,12.3-11,18.7-16.4c44.9-38.1,93.2-72.4,144.7-101.2c26.3-14.4,53.2-27.6,81.5-37.6c1.6-0.4,2.3-1.7,2.7-3.1
		c2.8-8.3,8.2-15.6,14.7-21.4c-2.9,7-5.5,14.1-6.7,21.5c6.1-1.9,12.5-4.6,18.9-3c3,0.6,4.7,3.4,6.2,5.9c3.8,6.4,6.9,13.4,8.2,20.8
		c1.7,10.4,0.5,21-2.3,31.1c3.2,1.4,6.5,2.4,10,2.2c8.6-0.3,17-2.5,25.3-4.5c2.5-0.6,5.2-1,7.4-2.5c-6.7-1-13.6-1.8-19.6-5.1
		c-3-1.5-5.8-4.3-5.6-8c-0.3-10.6-0.4-21.2,0-31.8c1.5-16.5,4.6-33.6,14.3-47.4c3.9-5.8,9.7-9.8,15.6-13.3
		c9.6-5.6,19.1-11.6,29.6-15.3c2.5-0.8,5.2-1.6,8-1.3c2.5,1.6,4.1,4.2,5.5,6.7c2.7,5.1,5.3,10.5,5.3,16.4c0.9-0.2,1.7-0.3,2.6-0.5
		c0-5.1,0.5-10.1,1.3-15.1C350,291.9,349.3,281.4,346,271.6z M255.9,306.2c1,1.3,2.1,3.2,4.1,2.9c5.1-0.1,8.1-5.1,12.8-6.5
		c-1.5,2.5-2.7,5.1-4.6,7.3c-2.6,1.3-5.3,2.1-7.9,3.3c-2.9-1.9-5.7-4.2-9.3-4.6c-2.6,0.4-4.5,2.5-6.9,3.4c-2.1-0.3-4.2-1-6.2-1.5
		c8.7-5.5,18.9-7.7,28.7-10c6.9-1.5,13.8-3,20.9-3.9C277,300.1,266.2,302.1,255.9,306.2z M127.9,412.7c25.6-14,52.1-26.8,79.8-36.1
		c-7.4,21.7-12.2,44.5-13.4,67.4c-1.7-2.3-1.7-5.3-2.6-7.9c-2.9-8.6-10.8-15-19.7-16.3c-15.8-2.5-31.6,2.4-46.4,7.7
		c-32.7,12.6-62.9,30.7-92.2,49.8c-4.2,2.6-8,6-12.7,7.7c2.3-3.8,6.4-5.9,9.8-8.6C61.6,453.1,94,431.6,127.9,412.7z"/>
	<path class="st1" d="M263.4,429.5c5.4-1.3,11.6-1.6,16.6,1.3c4.1,2.4,6.5,6.8,7.9,11.2c4.2,13.3-0.4,28.8-10.9,37.8
		c-4.8,4.5-11.4,6.3-17.4,8.6c-6,2.2-12.1,4.5-18.6,4.4c-5.3-0.1-10.6-2.8-13.5-7.4c-5.3-8.7-5.8-19.8-2.2-29.2
		c3.2-8.3,9-16.2,17.6-19.4C249.7,434.3,256.4,431.4,263.4,429.5 M259.4,445.3c-5.2,2-11.6,3.1-14.7,8.3c-3,4.5-5.1,10.4-2.9,15.6
		c2.1,4.3,7,8.2,12,6.6c3.4-1,7-2,9.9-4.3c3-2.8,5.2-6.4,6.7-10.2c2-5,0.6-11-2.9-15C265.5,444.1,262.1,444.3,259.4,445.3z"/>
	<path class="st1" d="M178,460.8c14.5-5.1,28.7-10.8,43.2-15.9c-1.4,5.3-3.2,10.6-5.8,15.5c-0.6,1.4-2,2-3.3,2.5
		c-9.5,3.6-19,6.9-28.4,10.6c-2.2,0.6-2.2,3.3-1.9,5.1c1,1,2.6,1.5,4,1c7.2-1.8,13.9-5.6,21.2-7.1c7.5-0.3,13.2,6.7,14.8,13.5
		c1.3,7.3-1.2,17-8.9,19.7c-16,6-32.1,11.8-48.1,17.9c1.1-5,2.4-9.9,4.3-14.6c0.5-1.8,2.5-2.4,4-3c10.3-3.8,20.6-7.6,30.9-11.5
		c-0.1-2.2-0.8-4.3-1.9-6.3c-7,2-13.6,5.1-20.5,7.3c-9.4,3.1-19.7-6.1-18.6-15.7c0.4-4.7,1.9-9.5,4.7-13.3
		C170.1,463.3,174.3,462.2,178,460.8z"/>
	<path class="st1" d="M140,475.1c5.9-2.3,11.8-4.6,17.9-6.5c0.2,19.1,0.4,38.2,0.4,57.3c-7.6,3.2-15.4,5.8-23.1,8.7
		c-5.6-8.5-10.3-17.5-16-25.9c-0.4,10.7,0.4,21.4-0.1,32c-6,2.2-12,4.6-18.1,6.5c-0.2-19.1-0.3-38.2-0.4-57.3
		c7.6-3.1,15.4-5.9,23.2-8.7c5.4,8.6,10.3,17.6,16.1,26C140.1,496.5,139.5,485.8,140,475.1z"/>
	<path class="st1" d="M40.4,512.2c18.2-6.9,36.4-13.9,54.8-20.3c-1.2,5.1-2.6,10.3-5.1,15c-0.8,1.6-2.6,2.3-4.1,2.9
		c-9,3.4-18.2,6.4-27.1,10.1c0,2.3,0,4.6,0.1,7c9.5-3,18.6-7,28.1-10.2c-2.2,4.5-4.5,9-6.6,13.5c-1,1.9-1.8,4.2-4,4.9
		c-5.7,2.4-11.8,4-17.4,6.7c0,2.1,0,4.2,0.1,6.3c12.5-4,24.5-9.3,37-13.3c-1.1,5.3-3.1,10.5-5.8,15.2c-0.9,1.8-3,2.5-4.8,3.2
		c-14.8,5.5-29.7,10.9-44.4,16.6C40.6,550.5,40.8,531.4,40.4,512.2z"/>
</g>
</svg>
