<?xml version="1.0" encoding="utf-8"?>
<!-- Generator: Adobe Illustrator 21.1.0, SVG Export Plug-In . SVG Version: 6.00 Build 0)  -->
<svg version="1.1" id="Layer_1" xmlns="http://www.w3.org/2000/svg" xmlns:xlink="http://www.w3.org/1999/xlink" x="0px" y="0px"
	 viewBox="0 0 555.1 549" style="enable-background:new 0 0 555.1 549;" xml:space="preserve">
<style type="text/css">
	.st0{stroke:#000000;stroke-width:9.375000e-02;}
</style>
<path class="st0" d="M119.6,0h282.5c0,15.4,0,30.7,0,46.1c15,0.4,30,0.7,45.1,1c0,18,0,36,0,54c-7.5,7.6-15,15.1-22.5,22.5
	c0-17.5,0-35,0-52.5c-7.2,0-14.4,0-21.5,0c0,55.8,0,111.5,0,167.3c15.3,0,30.7,0,46,0c0.2,48.2,0,96.5,0.1,144.7
	c0,1.2-0.4,2.1-1.2,3c-48,53.3-96,106.6-144.1,159.9c-6.4-8.3-12.7-16.7-19-25c-7.4,9.3-14.7,18.7-22,28c-7-10-14-20-21-30
	c-7.4,9.7-14.7,19.4-22,29c-47.7-53.6-95.5-107-143.1-160.6c-0.7-5-0.1-10.2-0.4-15.3c-0.5-59.3-1.1-118.7-1.6-178
	c-0.5-41.6,0.1-83.3,0.3-124.9c5.9-6.9,12.1-13.7,19.5-19c0.4,109.5,0.7,219.1,1,328.6c40.4,44.8,80.8,89.5,121.2,134.3
	c3.7-3.3,7.4-6.6,11-10c-36-39.7-72-79.4-108.1-119C119.5,255.9,119.6,128,119.6,0 M140.6,24.1c0,117.3,0,234.7,0,352
	c0.1,0.5,0.2,1.4,0.3,1.8c40.6,44.7,81.3,89.3,122,134c3.3-3.3,6.7-6.7,10-10c-35.8-39.1-71.6-78.3-107.4-117.4
	c-1.3-1.1-0.6-3-0.8-4.5c0.1-110.3,0-220.6,0-330.9c71.1,0,142.3,0,213.4,0c0-8.4,0-16.7,0-25C298.9,24.1,219.8,24.1,140.6,24.1
	 M187.7,73.2c0,101.3,0,202.6,0,304c-0.3,2,1.6,3.1,2.7,4.4c31.9,34.4,63.7,68.9,95.5,103.3c31.7-35.6,63.3-71.4,95.1-107
	c0.1-39.1,0.1-78.3,0-117.4c-11.7,0-23.3,0-35,0c4.8-7.4,9.3-14.9,14.2-22.1c6.3,0.1,12.6,0,18.9,0.1c0-55.1,0-110.2,0-165.3
	C315.3,73.2,251.5,73.2,187.7,73.2 M403.1,259.5c-0.2,40.8,0.2,81.6-0.2,122.4c-34.6,39.1-69.4,78-104,117.1c3.3,4,6.6,8,10,11.9
	c38.9-44.1,77.8-88.2,116.7-132.3c1-1.4,2.9-2.5,2.5-4.4c-0.1-38.2,0.2-76.5-0.1-114.7C419.7,259.5,411.4,259.5,403.1,259.5z"/>
</svg>
