<svg id="Layer_1" xmlns="http://www.w3.org/2000/svg" viewBox="102.8 285.5 183.5 281.9"><style>.st0{fill:#EAEAEA;} .st1{fill:url(#SVGID_1_);} .st2{fill:url(#SVGID_2_);} .st3{fill:#5A3E98;} .st4{fill:url(#SVGID_3_);} .st5{fill:url(#SVGID_4_);} .st6{fill:url(#SVGID_5_);} .st7{fill:#FFFFFF;} .st8{fill:none;} .st9{fill:url(#SVGID_6_);} .st10{fill:url(#SVGID_7_);} .st11{fill:url(#SVGID_8_);} .st12{fill:url(#SVGID_9_);} .st13{fill:url(#SVGID_10_);} .st14{fill:url(#SVGID_11_);} .st15{fill:url(#SVGID_12_);} .st16{fill:#E8CC40;} .st17{fill:url(#SVGID_13_);} .st18{fill:url(#SVGID_14_);} .st19{fill:url(#SVGID_15_);} .st20{fill:url(#SVGID_16_);} .st21{fill:url(#SVGID_17_);} .st22{fill:url(#SVGID_18_);} .st23{fill:url(#SVGID_19_);} .st24{fill:url(#SVGID_20_);} .st25{fill:url(#SVGID_21_);} .st26{fill:url(#SVGID_22_);} .st27{fill:url(#SVGID_23_);} .st28{fill:url(#SVGID_24_);}</style><path class="st0" d="M278.4 358.8c-4.1.7-8.5 1.8-13.7 3.1-1.1.3-2.1.5-3.1.8-1 .2-2 .5-3.1.7-8.5 2.1-17 4.1-25.5 6.2-4.5 1.1-9 2.2-13.4 3.3 4.2-10.6 8.4-21.3 12.4-31.7.8-1.8 1.5-3.7 2.2-5.6l.6-1.5c.3-.9.7-1.7 1-2.6.4-1.1.8-2.2 1.3-3.3v-.1c.4-1.2.9-2.4 1.4-3.6.5-1.2 1-2.4 1.4-3.6.7-2 1.5-4 2.3-5.9l2.4-6 2.1-5.4c1.6-4.2 3.3-8.5 5.1-12.7l2.3-5.4-5.7 1.4c-4.4 1.1-8.9 2.3-13.2 3.4l-8 2.1c-2.7.7-5.5 1.5-8.3 2.2-2.1.5-4.1 1.1-6.2 1.6-2.7.7-5.5 1.4-8.3 2.2-1.7.3-3.3.8-4.8 1.2-1.1.3-2.1.6-3.1.8-2.6.6-5.2 1.3-8.1 2.1-2.4.6-4.9 1.3-7.3 1.9-6.3 1.6-12.8 3.3-19.2 5.1l-1.4.4-.5 1.4c-6.9 17.6-14 35.8-21.1 53.8-5.1 13.2-10.3 26.4-15.5 39.6-6.1 15.6-12.4 31.7-18.6 47.5l-1 2.6-.8 1.9-.1.3 5.1-.8c2.5-.4 4.5-.7 6.4-.9 2.7-.4 5.3-.8 8.9-1.4l3.9-.6c6.2-1 18.6-3 25.6-4.1L139.6 499c-4.8 18.1-9.6 36.3-14.4 54.3l-3.7 14.1 9-11.5c8.5-10.9 17.1-21.8 25.6-32.7 11.7-14.9 23.7-30.2 35.5-45.4 11-13.8 22.1-28 32.8-41.6 3.3-4.2 6.6-8.5 9.9-12.7 6.8-8.7 13.7-17.5 20.6-26.2 5.4-6.9 10.8-13.8 16.2-20.6.6-.8 1.2-1.5 1.8-2.3.6-.7 1.1-1.5 1.8-2.3 1.5-2 3-3.9 4.6-5.9l2.1-2.7 4.9-6.2-7.9 1.5z"/><linearGradient id="SVGID_1_" gradientUnits="userSpaceOnUse" x1="154.85" y1="452.08" x2="172.75" y2="452.08"><stop offset="0" stop-color="#231740"/><stop offset=".85" stop-color="#281B49"/></linearGradient><path class="st1" d="M154.8 452.4l2.4-8.8 15.5-1.6-7 20.1z"/><linearGradient id="SVGID_2_" gradientUnits="userSpaceOnUse" x1="183.25" y1="380.17" x2="147.09" y2="416.33" gradientTransform="matrix(1 0 0 -1 0 841.67)"><stop offset=".31" stop-color="#634C9F"/><stop offset=".64" stop-color="#4E338C"/><stop offset=".78" stop-color="#3E2A6F"/></linearGradient><path class="st2" d="M181.4 460.9c.2-1.2.4-5.9.6-10.1.1-3 .2-6 .4-8.1-.6.1-1.3.1-1.9.2-2.1.2-4.1.4-6.4.8-.7.1-1.3.2-1.9.3-.7.1-1.3.3-2 .4-2.2.4-4.4.7-6.6 1-2.2.3-4.1-.5-6.4-.1-.6.1-30.8 5-34 5.5l-.8-.9c4.8-1.8 62.5-20.8 72.8-23.7l1.9-.5-.7 1.8c-1.8 4.9-3.8 9.9-5.7 14.6-2.5 6.2-5.1 12.7-7.4 19.1l-1.9-.3z"/><path class="st3" d="M183.4 467.9c3.7-10 7.6-20.1 11.4-29.8 2.3-5.8 4.6-11.7 6.9-17.6-16.1 4.5-32.4 9.2-48.2 13.8-10.2 2.9-20.4 5.9-30.7 8.8l-1.9.5.7-1.8c8.1-22.3 16.8-46.1 26.6-72.7l8.4-23.1c3.3-8.9 6.6-18.2 10-27.2l.2-.5.5-.1c6.7-1.8 13.4-3.6 19.9-5.3 2.8-.7 5.6-1.5 8.5-2.2 1.3-.4 2.6-.7 4-1.1 1.3-.3 2.6-.7 3.9-1 2.2-.6 4.4-1.2 7.4-1.9l3.5-.9c5.9-1.6 16.8-4.5 19.5-5.3l2.1-.6-.9 2c-.4 1-2.9 8.1-4.6 12.9-.9 2.6-1.7 4.8-2 5.7-.8 2.5-6.8 16.9-6.9 17.1l-.2.4-.4.1c-6.1 1.7-13.4 3.7-19.8 5.5l-4.5 1.2c-.4 1.1-.8 2.2-1.2 3.2 4.3-1.1 8.6-2.3 12.7-3.4 3.4-.9 6.8-1.9 10.2-2.8l1.9-.5-.7 1.8c-4 10.5-8.5 21.9-14 35.9l-.2.4-.4.1c-3.7 1.2-7.8 2.2-11.7 3.2-4 1-8.2 2.1-12 3.3-.8 2.6-1.4 4.6-2.3 6.9 14.9-3.5 30.1-7.3 44.7-11 11-2.7 22.4-5.6 33.6-8.3l2.7-.7-1.7 2.2c-5.1 6.6-10.3 13.2-15.3 19.7-5 6.4-10.2 13-15.3 19.6-8.6 11.2-17.4 22.4-26 33.4-3.1 4-6.3 8-9.4 12-2.5 3.4-4.9 6.3-7.3 9.1l-1.7-1zm25.1-52.5c-2.5 6.5-5.1 13.1-7.6 19.7-1.7 4.4-3.4 8.9-5.2 13.3 9.5-12.3 19.2-24.6 28.6-36.7 8.1-10.4 16.3-20.8 24.3-31.2-13.6 3.5-27.5 6.9-41 10.1-11.1 2.7-22.6 5.5-33.9 8.3l-1.8.5.6-1.7c.7-2 1.5-4.1 2.2-6.1 1-2.8 2.1-5.7 3.1-8.6l.2-.5.5-.1c6.6-1.9 13.3-3.7 19.9-5.5l3.8-1c3.1-7.7 6.1-15.5 9.1-23.1l1.8-4.7c-4.4 1.1-8.8 2.3-13.2 3.5-3.2.9-6.4 1.7-9.7 2.6l-1.9.5.8-1.9 1.8-4.8c.7-2.1 1.5-4.3 2.4-6.3l.2-.4.4-.1c4.4-1.4 8.9-2.6 13.2-3.7 3.8-1 7.6-2 11.4-3.1 3.5-9.2 7.2-18.6 10.7-27.7-5.7 1.5-11.3 3-17 4.4-13.8 3.6-28.1 7.3-42 11.1-13 35.4-26.8 73-42.1 114.9 12.9-3.8 26-7.5 38.7-11.1 13.3-3.8 27-7.7 40.5-11.7l1.9-.6-.7 1.7z"/><linearGradient id="SVGID_3_" gradientUnits="userSpaceOnUse" x1="189.34" y1="396.63" x2="145.53" y2="352.82" gradientTransform="matrix(1 0 0 -1 0 841.67)"><stop offset=".17" stop-color="#2E1F53"/><stop offset=".38" stop-color="#402A72"/><stop offset=".56" stop-color="#513590"/><stop offset=".9" stop-color="#60489D"/></linearGradient><path class="st4" d="M170.6 444.6c-2.6 9.1-13.3 44.7-15.5 53.9 6.3-6.7 12.3-14.3 18.4-21.1 1.7-1.9 8.7-10.2 11-14.9.6-2.9 1.7-16.8 1.9-20.4-3.7.4-14.2 2.2-15.8 2.5z"/><linearGradient id="SVGID_4_" gradientUnits="userSpaceOnUse" x1="189" y1="396.56" x2="147.3" y2="354.86" gradientTransform="matrix(1 0 0 -1 0 841.67)"><stop offset=".17" stop-color="#2E1F53"/><stop offset=".38" stop-color="#402A72"/><stop offset=".56" stop-color="#513590"/><stop offset=".9" stop-color="#60489D"/></linearGradient><path class="st5" d="M170.9 443.5c-2.3 9-11.9 44-13.8 53.1 5.6-6.6 11-14.1 16.4-20.8 1.5-1.9 7.8-10.1 9.8-14.7.5-2.8 1.5-16.6 1.7-20.1-3.3.5-12.7 2.3-14.1 2.5z"/><linearGradient id="SVGID_5_" gradientUnits="userSpaceOnUse" x1="187" y1="396.56" x2="145.3" y2="354.86" gradientTransform="matrix(1 0 0 -1 0 841.67)"><stop offset=".17" stop-color="#2E1F53"/><stop offset=".38" stop-color="#402A72"/><stop offset=".56" stop-color="#513590"/><stop offset=".9" stop-color="#60489D"/></linearGradient><path class="st6" d="M168.9 443.5c-2.3 9-11.9 44-13.8 53.1 5.6-6.6 11-14.1 16.4-20.8 1.5-1.9 7.8-10.1 9.8-14.7.5-2.8 1.5-16.6 1.7-20.1-3.3.5-12.7 2.3-14.1 2.5z"/><path class="st7" d="M169.5 321.2c20.4-5.4 40.9-10.8 61.4-16.2-3.9 10-7.8 20-11.6 30-8.3 2.5-16.8 4.3-25.1 7-1.6 3.6-2.7 7.4-4.2 11.1 8.3-2.2 16.5-4.5 24.7-6.6-3.9 10-7.8 20.1-11.8 30.1-8 2.2-16.1 4.4-24.1 6.7-1.6 5-3.6 9.8-5.3 14.7 25.9-6.5 51.9-12.6 77.7-19.2-19.6 25.3-39.4 50.5-59 75.7 5.1-13.1 8.4-25 13.6-38.1-27 7.9-53.5 15.3-80.5 23.2 14.3-39.2 29.8-79.3 44.2-118.4m44.4.1c-12.9 3.2-26 5.9-38.9 9.3-1.7-2-1.5-3.5-3.3-5.4-2.7 6.8-35.7 96.6-40.2 108.6 14.2-4.1 27-8.5 41.2-12.4 8-2.4 16.2-4.4 24.3-6.6 4.9-1.5 11.7-3.5 16.5-5-3.6 9.4-6.3 14.6-9.7 24.1 7.6-9.3 11.6-13.6 19.1-23.1 3.4-4.3 6.7-8.6 10.1-13 3.9-5 7.3-10.2 11.6-15-3.8 3.6-7.2 6.4-11.1 8.8-16.9 6.1-33.7 10.6-50.5 15.4-8.2 2-17 3.1-25.1 5.3l.7-1.5c3.4-2.9 6.7-5.8 10-8.8 1.2-1 1.6-2.6 2.2-4 1.4-4.3 3.1-8.4 4.5-12.7l1.8-4.5c5.3-1.5 10.7-2.9 16-4.5 2.6-.9 5.7-1 8-2.6 3.3-7.9 4.8-13.8 7.9-21.9-3.7 3.8-6.5 5.4-10.2 9.1-8 2.1-16.3 4.5-24.2 6.7 0-.1.5-1.1.5-1.3 3.7-3.2 7.4-6.4 10.8-9.9 2.1-4.7 3.5-9.6 5.4-14.3 0 0 .7-2 1-2.6 8.4-2.4 16.9-4.3 25.2-7 2.8-8.1 4.3-12.9 7.2-21-3.8 3.8-7.2 6.2-10.8 9.8z" id="_x23_ffffffff"/><path class="st8" d="M227.6 320.3c0-.1.1-.1.1-.2-.1.1-.1.1-.1.2z"/><path class="st8" d="M173.6 397.9c1.7-4.9 3.7-9.7 5.3-14.7 8-2.4 16.1-4.5 24.1-6.7 4-10 7.9-20 11.8-30.1-8.3 2.1-16.5 4.5-24.7 6.6 1.5-3.6 2.6-7.5 4.2-11.1 8.2-2.7 16.8-4.4 25.1-7 3.8-10 7.8-20 11.6-30-20.5 5.4-41 10.7-61.4 16.2-14.3 39.1-28.7 78.1-43 117.2 27-7.9 54.1-15.5 81.1-23.4-5.1 13.1-10.2 26.3-15.3 39.4 19.7-25.3 39.4-50.5 59-75.7-26 6.7-51.9 12.8-77.8 19.3z"/><linearGradient id="SVGID_6_" gradientUnits="userSpaceOnUse" x1="175.06" y1="337.92" x2="226.66" y2="337.92"><stop offset="0" stop-color="#D79C3D"/><stop offset=".5" stop-color="#E1B93E"/><stop offset="1" stop-color="#E8CF50"/></linearGradient><path class="st9" d="M215.3 319c-1.3 2.9-2.6 6-4.2 8.8-8 1.7-16 3.9-24 5.9-.5 1.2-1 2.5-1.6 3.7 0 0 0 .1.1.1-2.8 7.9-5.9 15.4-8.7 23.2-.6 1.9-1.3 4.4-1.8 6.4 3.7-3.2 7.6-7 11-10.5 2.1-4.7 3.5-9.5 5.4-14.2.3-.6.6-2.1.9-2.7 8.4-2.4 16.9-4.2 25.2-7 2.8-8.1 6.2-16 9.1-24-3.8 3.4-7.9 6.6-11.4 10.3z"/><linearGradient id="SVGID_7_" gradientUnits="userSpaceOnUse" x1="158.56" y1="380.57" x2="210.56" y2="380.57"><stop offset="0" stop-color="#C86C3A"/><stop offset=".25" stop-color="#CF813C"/><stop offset="1" stop-color="#D79C3D"/></linearGradient><path class="st10" d="M195.3 368.1c-3.1 1-5.7 2.1-8.8 3l.1.1c-4.9 1.3-10.2 2.5-15.1 4.1-.8 1.9-1.5 3.7-2.1 5.7l.2.2h-.1c-1.5 4.3-9.4 24.3-10.9 30.3 3.4-2.9 7-6.1 10.2-9.1 1.2-1 1.7-2.6 2.2-4 1.4-4.3 3.1-8.3 4.5-12.6l1.8-4.5c4.9-1.5 10-2.8 14.9-4.2.1 0 .2 0 .2-.1.3-.1.6-.2.8-.2 2.5-.7 5.4-1.5 8-2.7 3.3-8 6.2-16.3 9.3-24.3-3.8 3.6-7.8 7.2-11.5 10.9-1 2.5-2.6 4.9-3.7 7.4z"/><linearGradient id="SVGID_8_" gradientUnits="userSpaceOnUse" x1="193.21" y1="287.91" x2="193.21" y2="552.21" gradientTransform="matrix(1 0 0 -1 0 841.67)"><stop offset="0" stop-color="#231740"/><stop offset=".85" stop-color="#281B49"/><stop offset=".88" stop-color="#34235E"/><stop offset=".91" stop-color="#402A73"/><stop offset=".94" stop-color="#4A3188"/><stop offset=".97" stop-color="#5A3E98"/><stop offset="1" stop-color="#7C6DAF"/></linearGradient><path class="st11" d="M265.5 364.8l-6.2 1.5c-14.9 3.6-29.8 7.3-44.6 10.9 5-12.3 9.8-24.7 14.6-37.1 1-2.3 1.9-4.7 2.8-7 .8-2 1.5-4 2.3-5.9.9-2.4 1.9-4.8 2.8-7.2 1.5-4 3.2-8 4.7-12 2.4-6.1 4.7-12.2 7.2-18.2-7.1 1.7-14.1 3.7-21.1 5.5-4.8 1.3-9.6 2.5-14.5 3.8-2.8.7-5.6 1.4-8.4 2.2-2.7.5-5.3 1.4-7.9 2-2.7.6-5.3 1.3-8 2.1-8.8 2.3-17.7 4.5-26.5 7-7 17.9-14 35.8-21.1 53.8-11.3 29-22.8 58-34.1 87.1 6.4-1 9.4-1.3 15.7-2.4 10.4-3.9 62.2-20.4 72.1-23.3-4.2 11.3-17.5 39.4-19.1 42.7-1.5 1.9-2.6 4.1-4.1 6-5.4 6.7-10.3 13.7-15.9 20.3 2.1-9.1 4.8-18 7.1-27.1.7-2.7 1.4-5.3 2-8 1.3-5.2 4.5-17.4 4.7-18-4.4.7-8.9 1.2-13.3 2-9.5 36.1-19.2 72.5-28.7 108.6 20.4-26.1 40.9-52 61.2-78.1 14.3-18 28.5-36.2 42.7-54.3 12.2-15.6 24.5-31.2 36.8-46.9 1.2-1.5 2.3-3 3.5-4.5 2.2-2.9 4.5-5.7 6.8-8.6-4.4.8-9 1.9-13.5 3.1zm-38.9 49c-11.8 15.1-24.4 29.9-36.2 45-2.3 3.1-2.7 4.8-5.3 7.6 6.2-16.5 12.7-31.6 18.9-48.1-27 7.6-53.4 15-80.3 22.7 8.8-24.3 16.6-47.4 25.5-71.6 6.2-16.7 12.2-33.5 18.4-50.3 9.4-2.6 18.9-5 28.4-7.5l7.9-2.1c2.4-.7 4.9-1.3 7.4-1.9 2.6-.6 18-4.1 21.5-5.1-.6 1.6-5.5 17.7-5.5 17.8-1 2.4-4.8 11.1-6.9 16.2-7.6 2.2-16.9 4.7-24.6 6.8-.7 1.8-1.7 4.5-2.4 6.4 8.3-2.1 16.3-4.5 24.6-6.7-4.6 12-9 23-13.7 35-7.7 2.5-16.5 4.2-24.1 6.9-1.1 3.3-2.2 7.4-3.2 10.4 26.7-6.3 53.6-13.9 80.3-20.3-10.4 12.9-20.7 25.6-30.7 38.8z"/><linearGradient id="SVGID_9_" gradientUnits="userSpaceOnUse" x1="181.71" y1="379.9" x2="146.83" y2="414.78" gradientTransform="matrix(1 0 0 -1 0 841.67)"><stop offset=".31" stop-color="#634C9F"/><stop offset=".64" stop-color="#4E338C"/><stop offset=".78" stop-color="#3E2A6F"/></linearGradient><path class="st12" d="M122.7 451c5.7-.8 11.5-2.1 17.2-3 4.5-.7 8.9-1.4 13.3-2 1.1-.2 2.2-.3 3.4-.5 4.4-.8 8.8-1.2 13.3-2 1.3-.2 2.6-.5 3.9-.7 3.4-.6 6.1-.8 9.5-1.2-.4 4.3-.6 17.2-1 19.5 4-11.4 8.9-22.5 13.1-33.8-9.9 2.8-67.3 21.7-72.7 23.7z"/><linearGradient id="SVGID_10_" gradientUnits="userSpaceOnUse" x1="181.71" y1="379.9" x2="146.83" y2="414.78" gradientTransform="matrix(1 0 0 -1 0 841.67)"><stop offset=".31" stop-color="#634C9F"/><stop offset=".64" stop-color="#4E338C"/><stop offset=".78" stop-color="#3E2A6F"/></linearGradient><path class="st13" d="M122.7 451c5.7-.8 11.5-2.1 17.2-3 4.5-.7 8.9-1.4 13.3-2 1.1-.2 2.2-.3 3.4-.5 4.4-.8 8.8-1.2 13.3-2 1.3-.2 2.6-.5 3.9-.7 3.4-.6 6.1-.8 9.5-1.2-.4 4.3-.6 17.2-1 19.5 4-11.4 8.9-22.5 13.1-33.8-9.9 2.8-67.3 21.7-72.7 23.7z"/><linearGradient id="SVGID_11_" gradientUnits="userSpaceOnUse" x1="188" y1="396.56" x2="146.3" y2="354.86" gradientTransform="matrix(1 0 0 -1 0 841.67)"><stop offset=".17" stop-color="#2E1F53"/><stop offset=".38" stop-color="#402A72"/><stop offset=".56" stop-color="#513590"/><stop offset=".9" stop-color="#60489D"/></linearGradient><path class="st14" d="M169.9 443.5c-2.3 9-11.9 44-13.8 53.1 5.6-6.6 11-14.1 16.4-20.8 1.5-1.9 7.8-10.1 9.8-14.7.5-2.8 1.5-16.6 1.7-20.1-3.3.5-12.7 2.3-14.1 2.5z"/><path class="st3" d="M177.6 394.2c1.1-3.1 1.9-5.5 3-9.1 7.7-2.6 16.5-4.2 24.2-6.7 4.7-11.9 9.4-23.9 14-35.9-8.3 2.2-16.5 4.6-24.8 6.7.7-1.8 1.4-3.6 2.1-5.5 7.7-2.1 17-4.6 24.7-6.8 1.6-3.6 6.9-16.9 6.9-17 .9-2.5 5.9-17.1 6.6-18.6-3.5 1-20.4 5.5-23 6.2-2.5.6-4.9 1.2-7.4 1.9l-7.9 2.1c-9.5 2.5-18.9 4.9-28.4 7.5-6.2 16.7-12.2 33.5-18.4 50.3-8.9 24.2-17.8 48.5-26.6 72.7 27-7.7 53.8-15.5 80.8-23.1-6.3 16.5-12.9 32.8-19 49.3 2.6-2.9 5-5.9 7.3-9 11.8-15.1 23.7-30.2 35.4-45.4 10.1-13.2 20.5-26.1 30.6-39.3-26.8 6.5-53.4 13.4-80.1 19.7zm14.7 60.2c5.1-13.1 10.2-26.3 15.3-39.4-27 7.9-54.1 15.5-81.1 23.4 14.3-39.1 28.6-78.1 43-117.2 20.4-5.5 40.9-10.8 61.4-16.2-3.9 10-7.8 20-11.6 30-8.3 2.6-16.8 4.3-25.1 7-1.6 3.6-2.7 7.4-4.2 11.1 8.3-2.2 16.5-4.5 24.7-6.6-3.9 10-7.8 20.1-11.8 30.1-8 2.2-16.1 4.4-24.1 6.7-1.6 5-3.6 9.8-5.3 14.7 25.9-6.5 51.9-12.6 77.7-19.2-19.5 25.1-39.3 50.3-58.9 75.6z"/><path class="st3" d="M177.6 394.2c1.1-3.1 1.9-5.5 3-9.1 7.7-2.6 16.5-4.2 24.2-6.7 4.7-11.9 9.4-23.9 14-35.9-8.3 2.2-16.5 4.6-24.8 6.7.7-1.8 1.4-3.6 2.1-5.5 7.7-2.1 17-4.6 24.7-6.8 1.6-3.6 6.9-16.9 6.9-17 .9-2.5 5.9-17.1 6.6-18.6-3.5 1-20.4 5.5-23 6.2-2.5.6-4.9 1.2-7.4 1.9l-7.9 2.1c-9.5 2.5-18.9 4.9-28.4 7.5-6.2 16.7-12.2 33.5-18.4 50.3-8.9 24.2-17.8 48.5-26.6 72.7 27-7.7 53.8-15.5 80.8-23.1-6.3 16.5-12.9 32.8-19 49.3 2.6-2.9 5-5.9 7.3-9 11.8-15.1 23.7-30.2 35.4-45.4 10.1-13.2 20.5-26.1 30.6-39.3-26.8 6.5-53.4 13.4-80.1 19.7zm14.7 60.2c5.1-13.1 10.2-26.3 15.3-39.4-27 7.9-54.1 15.5-81.1 23.4 14.3-39.1 28.6-78.1 43-117.2 20.4-5.5 40.9-10.8 61.4-16.2-3.9 10-7.8 20-11.6 30-8.3 2.6-16.8 4.3-25.1 7-1.6 3.6-2.7 7.4-4.2 11.1 8.3-2.2 16.5-4.5 24.7-6.6-3.9 10-7.8 20.1-11.8 30.1-8 2.2-16.1 4.4-24.1 6.7-1.6 5-3.6 9.8-5.3 14.7 25.9-6.5 51.9-12.6 77.7-19.2-19.5 25.1-39.3 50.3-58.9 75.6z"/><linearGradient id="SVGID_12_" gradientUnits="userSpaceOnUse" x1="209.49" y1="430.9" x2="136.59" y2="358"><stop offset="0" stop-color="#E0B547"/><stop offset=".07" stop-color="#D38F3C"/><stop offset=".15" stop-color="#D0853C"/><stop offset=".5" stop-color="#BD4939"/><stop offset=".85" stop-color="#D1883C"/><stop offset=".93" stop-color="#D4923D"/><stop offset="1" stop-color="#E3BC60"/></linearGradient><path class="st15" d="M244.7 382.9c-3.8 2.6-16.7 12.2-16.7 12.2-4.6 5-11.8 6.7-18.3 8.2.2.2.5.4.8.6-6.7 1.9-13.6 4.2-20.2 6.3v-.1c-2 .6-17.5 4.9-23.9 6.8-8 2.3-15.9 4.2-23.9 6.5 2.4-6.5 4.4-13.3 6.9-19.7 2.7-5.9 7.3-19.4 7.9-20.9h-.1c2.8-5.2 5.1-10.8 6.1-16.8 1.7-3.3 2.7-7.7 4-11.1 1-2.8 2-5.5 3.1-8.3h-.1c2.3-5.8 4.2-11.5 6.4-17.2-1.7-2-3.6-4-5.4-5.9-2.7 6.8-5 13.7-7.6 20.5-2 5.3-4 11-6 16.3-2.2 6.3-4.6 12.6-7 19 0 0-4.6 12.6-6.8 18.9-4.4 12-9 24.8-13.5 36.8 14-4 28.6-8.5 42.6-12.3.2 0 .3-.1.5-.1h.1c7.8-2.3 15.6-4.6 23.5-6.7 4.8-1.3 10-2.8 14.7-4.1-3.6 9.4-7.5 18.6-10.9 28.1 7.5-9.2 14.8-19.3 22.2-28.6 3.4-4.4 6.7-8.7 10.1-13 .3-.9 7.7-10.3 11.5-15.4z"/><path class="st16" d="M158.6 411.4l.1-.3c1.8-5.9 4-11.6 6.2-17.5 1.6-4.2 3.1-8.4 4.6-12.6l2.1-5.7c4.9-1.5 9.9-2.7 14.8-4.1 3.2-.9 6.3-1.9 9.4-2.8l3.3-7.8c-8 2-16 4.2-24 6.5 0-.2 1.8-6.3 1.9-6.3 2.8-7.8 6-15.5 8.7-23.3.5-1.2 1-2.5 1.5-3.7 8-2.2 16-4.4 24.2-6 1.5-2.8 2.7-5.8 4-8.7-13 3.2-25.8 6.7-38.7 10.1-2.2 5.7-4.7 11.3-6.4 17.3-1.1 2.8-2.2 6.1-3 8.2-1.2 3.5-2.5 7.1-3.8 10.6-2.3 5.8-4.2 11.6-6.4 17.5-.7 1.6-1.3 3.2-1.9 4.8-2 5.5-3.9 11.1-6 16.6-2.5 6.5-4.8 13.1-7.3 19.6 8-2.2 16.1-4.4 24.1-6.8 6-1.9 18.2-5.1 18.2-5.1l6-1.8c7.1-2.1 25-7.6 34.6-11.3 1.6-1.4 7.4-6.6 9-8-17.1 4.3-67.1 18.5-75.2 20.6z"/><linearGradient id="SVGID_13_" gradientUnits="userSpaceOnUse" x1="154.85" y1="452.08" x2="172.75" y2="452.08"><stop offset="0" stop-color="#231740"/><stop offset=".85" stop-color="#281B49"/></linearGradient><path class="st17" d="M154.8 452.4l2.4-8.8 15.5-1.6-7 20.1z"/><linearGradient id="SVGID_14_" gradientUnits="userSpaceOnUse" x1="183.25" y1="380.17" x2="147.09" y2="416.33" gradientTransform="matrix(1 0 0 -1 0 841.67)"><stop offset=".31" stop-color="#634C9F"/><stop offset=".64" stop-color="#4E338C"/><stop offset=".78" stop-color="#3E2A6F"/></linearGradient><path class="st18" d="M181.4 460.9c.2-1.2.4-5.9.6-10.1.1-3 .2-6 .4-8.1-.6.1-1.3.1-1.9.2-2.1.2-4.1.4-6.4.8-.7.1-1.3.2-1.9.3-.7.1-1.3.3-2 .4-2.2.4-4.4.7-6.6 1-2.2.3-4.1-.5-6.4-.1-.6.1-30.8 5-34 5.5l-.8-.9c4.8-1.8 62.5-20.8 72.8-23.7l1.9-.5-.7 1.8c-1.8 4.9-3.8 9.9-5.7 14.6-2.5 6.2-5.1 12.7-7.4 19.1l-1.9-.3z"/><path class="st3" d="M183.4 467.9c3.7-10 7.6-20.1 11.4-29.8 2.3-5.8 4.6-11.7 6.9-17.6-16.1 4.5-32.4 9.2-48.2 13.8-10.2 2.9-20.4 5.9-30.7 8.8l-1.9.5.7-1.8c8.1-22.3 16.8-46.1 26.6-72.7l8.4-23.1c3.3-8.9 6.6-18.2 10-27.2l.2-.5.5-.1c6.7-1.8 13.4-3.6 19.9-5.3 2.8-.7 5.6-1.5 8.5-2.2 1.3-.4 2.6-.7 4-1.1 1.3-.3 2.6-.7 3.9-1 2.2-.6 4.4-1.2 7.4-1.9l3.5-.9c5.9-1.6 16.8-4.5 19.5-5.3l2.1-.6-.9 2c-.4 1-2.9 8.1-4.6 12.9-.9 2.6-1.7 4.8-2 5.7-.8 2.5-6.8 16.9-6.9 17.1l-.2.4-.4.1c-6.1 1.7-13.4 3.7-19.8 5.5l-4.5 1.2c-.4 1.1-.8 2.2-1.2 3.2 4.3-1.1 8.6-2.3 12.7-3.4 3.4-.9 6.8-1.9 10.2-2.8l1.9-.5-.7 1.8c-4 10.5-8.5 21.9-14 35.9l-.2.4-.4.1c-3.7 1.2-7.8 2.2-11.7 3.2-4 1-8.2 2.1-12 3.3-.8 2.6-1.4 4.6-2.3 6.9 14.9-3.5 30.1-7.3 44.7-11 11-2.7 22.4-5.6 33.6-8.3l2.7-.7-1.7 2.2c-5.1 6.6-10.3 13.2-15.3 19.7-5 6.4-10.2 13-15.3 19.6-8.6 11.2-17.4 22.4-26 33.4-3.1 4-6.3 8-9.4 12-2.5 3.4-4.9 6.3-7.3 9.1l-1.7-1zm25.1-52.5c-2.5 6.5-5.1 13.1-7.6 19.7-1.7 4.4-3.4 8.9-5.2 13.3 9.5-12.3 19.2-24.6 28.6-36.7 8.1-10.4 16.3-20.8 24.3-31.2-13.6 3.5-27.5 6.9-41 10.1-11.1 2.7-22.6 5.5-33.9 8.3l-1.8.5.6-1.7c.7-2 1.5-4.1 2.2-6.1 1-2.8 2.1-5.7 3.1-8.6l.2-.5.5-.1c6.6-1.9 13.3-3.7 19.9-5.5l3.8-1c3.1-7.7 6.1-15.5 9.1-23.1l1.8-4.7c-4.4 1.1-8.8 2.3-13.2 3.5-3.2.9-6.4 1.7-9.7 2.6l-1.9.5.8-1.9 1.8-4.8c.7-2.1 1.5-4.3 2.4-6.3l.2-.4.4-.1c4.4-1.4 8.9-2.6 13.2-3.7 3.8-1 7.6-2 11.4-3.1 3.5-9.2 7.2-18.6 10.7-27.7-5.7 1.5-11.3 3-17 4.4-13.8 3.6-28.1 7.3-42 11.1-13 35.4-26.8 73-42.1 114.9 12.9-3.8 26-7.5 38.7-11.1 13.3-3.8 27-7.7 40.5-11.7l1.9-.6-.7 1.7z"/><linearGradient id="SVGID_15_" gradientUnits="userSpaceOnUse" x1="189.34" y1="396.63" x2="145.53" y2="352.82" gradientTransform="matrix(1 0 0 -1 0 841.67)"><stop offset=".17" stop-color="#2E1F53"/><stop offset=".38" stop-color="#402A72"/><stop offset=".56" stop-color="#513590"/><stop offset=".9" stop-color="#60489D"/></linearGradient><path class="st19" d="M170.6 444.6c-2.6 9.1-13.3 44.7-15.5 53.9 6.3-6.7 12.3-14.3 18.4-21.1 1.7-1.9 8.7-10.2 11-14.9.6-2.9 1.7-16.8 1.9-20.4-3.7.4-14.2 2.2-15.8 2.5z"/><linearGradient id="SVGID_16_" gradientUnits="userSpaceOnUse" x1="189" y1="396.56" x2="147.3" y2="354.86" gradientTransform="matrix(1 0 0 -1 0 841.67)"><stop offset=".17" stop-color="#2E1F53"/><stop offset=".38" stop-color="#402A72"/><stop offset=".56" stop-color="#513590"/><stop offset=".9" stop-color="#60489D"/></linearGradient><path class="st20" d="M170.9 443.5c-2.3 9-11.9 44-13.8 53.1 5.6-6.6 11-14.1 16.4-20.8 1.5-1.9 7.8-10.1 9.8-14.7.5-2.8 1.5-16.6 1.7-20.1-3.3.5-12.7 2.3-14.1 2.5z"/><linearGradient id="SVGID_17_" gradientUnits="userSpaceOnUse" x1="187" y1="396.56" x2="145.3" y2="354.86" gradientTransform="matrix(1 0 0 -1 0 841.67)"><stop offset=".17" stop-color="#2E1F53"/><stop offset=".38" stop-color="#402A72"/><stop offset=".56" stop-color="#513590"/><stop offset=".9" stop-color="#60489D"/></linearGradient><path class="st21" d="M168.9 443.5c-2.3 9-11.9 44-13.8 53.1 5.6-6.6 11-14.1 16.4-20.8 1.5-1.9 7.8-10.1 9.8-14.7.5-2.8 1.5-16.6 1.7-20.1-3.3.5-12.7 2.3-14.1 2.5z"/><path class="st7" d="M169.5 321.2c20.4-5.4 40.9-10.8 61.4-16.2-3.9 10-7.8 20-11.6 30-8.3 2.5-16.8 4.3-25.1 7-1.6 3.6-2.7 7.4-4.2 11.1 8.3-2.2 16.5-4.5 24.7-6.6-3.9 10-7.8 20.1-11.8 30.1-8 2.2-16.1 4.4-24.1 6.7-1.6 5-3.6 9.8-5.3 14.7 25.9-6.5 51.9-12.6 77.7-19.2-19.6 25.3-39.4 50.5-59 75.7 5.1-13.1 8.4-25 13.6-38.1-27 7.9-53.5 15.3-80.5 23.2 14.3-39.2 29.8-79.3 44.2-118.4m44.4.1c-12.9 3.2-26 5.9-38.9 9.3-1.7-2-1.5-3.5-3.3-5.4-2.7 6.8-35.7 96.6-40.2 108.6 14.2-4.1 27-8.5 41.2-12.4 8-2.4 16.2-4.4 24.3-6.6 4.9-1.5 11.7-3.5 16.5-5-3.6 9.4-6.3 14.6-9.7 24.1 7.6-9.3 11.6-13.6 19.1-23.1 3.4-4.3 6.7-8.6 10.1-13 3.9-5 7.3-10.2 11.6-15-3.8 3.6-7.2 6.4-11.1 8.8-16.9 6.1-33.7 10.6-50.5 15.4-8.2 2-17 3.1-25.1 5.3l.7-1.5c3.4-2.9 6.7-5.8 10-8.8 1.2-1 1.6-2.6 2.2-4 1.4-4.3 3.1-8.4 4.5-12.7l1.8-4.5c5.3-1.5 10.7-2.9 16-4.5 2.6-.9 5.7-1 8-2.6 3.3-7.9 4.8-13.8 7.9-21.9-3.7 3.8-6.5 5.4-10.2 9.1-8 2.1-16.3 4.5-24.2 6.7 0-.1.5-1.1.5-1.3 3.7-3.2 7.4-6.4 10.8-9.9 2.1-4.7 3.5-9.6 5.4-14.3 0 0 .7-2 1-2.6 8.4-2.4 16.9-4.3 25.2-7 2.8-8.1 4.3-12.9 7.2-21-3.8 3.8-7.2 6.2-10.8 9.8z"/><path class="st8" d="M227.6 320.3c0-.1.1-.1.1-.2-.1.1-.1.1-.1.2z"/><path class="st8" d="M173.6 397.9c1.7-4.9 3.7-9.7 5.3-14.7 8-2.4 16.1-4.5 24.1-6.7 4-10 7.9-20 11.8-30.1-8.3 2.1-16.5 4.5-24.7 6.6 1.5-3.6 2.6-7.5 4.2-11.1 8.2-2.7 16.8-4.4 25.1-7 3.8-10 7.8-20 11.6-30-20.5 5.4-41 10.7-61.4 16.2-14.3 39.1-28.7 78.1-43 117.2 27-7.9 54.1-15.5 81.1-23.4-5.1 13.1-10.2 26.3-15.3 39.4 19.7-25.3 39.4-50.5 59-75.7-26 6.7-51.9 12.8-77.8 19.3z"/><linearGradient id="SVGID_18_" gradientUnits="userSpaceOnUse" x1="175.06" y1="337.92" x2="226.66" y2="337.92"><stop offset="0" stop-color="#D79C3D"/><stop offset=".5" stop-color="#E1B93E"/><stop offset="1" stop-color="#E8CF50"/></linearGradient><path class="st22" d="M215.3 319c-1.3 2.9-2.6 6-4.2 8.8-8 1.7-16 3.9-24 5.9-.5 1.2-1 2.5-1.6 3.7 0 0 0 .1.1.1-2.8 7.9-5.9 15.4-8.7 23.2-.6 1.9-1.3 4.4-1.8 6.4 3.7-3.2 7.6-7 11-10.5 2.1-4.7 3.5-9.5 5.4-14.2.3-.6.6-2.1.9-2.7 8.4-2.4 16.9-4.2 25.2-7 2.8-8.1 6.2-16 9.1-24-3.8 3.4-7.9 6.6-11.4 10.3z"/><linearGradient id="SVGID_19_" gradientUnits="userSpaceOnUse" x1="158.56" y1="380.57" x2="210.56" y2="380.57"><stop offset="0" stop-color="#C86C3A"/><stop offset=".25" stop-color="#CF813C"/><stop offset="1" stop-color="#D79C3D"/></linearGradient><path class="st23" d="M195.3 368.1c-3.1 1-5.7 2.1-8.8 3l.1.1c-4.9 1.3-10.2 2.5-15.1 4.1-.8 1.9-1.5 3.7-2.1 5.7l.2.2h-.1c-1.5 4.3-9.4 24.3-10.9 30.3 3.4-2.9 7-6.1 10.2-9.1 1.2-1 1.7-2.6 2.2-4 1.4-4.3 3.1-8.3 4.5-12.6l1.8-4.5c4.9-1.5 10-2.8 14.9-4.2.1 0 .2 0 .2-.1.3-.1.6-.2.8-.2 2.5-.7 5.4-1.5 8-2.7 3.3-8 6.2-16.3 9.3-24.3-3.8 3.6-7.8 7.2-11.5 10.9-1 2.5-2.6 4.9-3.7 7.4z"/><linearGradient id="SVGID_20_" gradientUnits="userSpaceOnUse" x1="193.21" y1="287.91" x2="193.21" y2="552.21" gradientTransform="matrix(1 0 0 -1 0 841.67)"><stop offset="0" stop-color="#231740"/><stop offset=".85" stop-color="#281B49"/><stop offset=".88" stop-color="#34235E"/><stop offset=".91" stop-color="#402A73"/><stop offset=".94" stop-color="#4A3188"/><stop offset=".97" stop-color="#5A3E98"/><stop offset="1" stop-color="#7C6DAF"/></linearGradient><path class="st24" d="M265.5 364.8l-6.2 1.5c-14.9 3.6-29.8 7.3-44.6 10.9 5-12.3 9.8-24.7 14.6-37.1 1-2.3 1.9-4.7 2.8-7 .8-2 1.5-4 2.3-5.9.9-2.4 1.9-4.8 2.8-7.2 1.5-4 3.2-8 4.7-12 2.4-6.1 4.7-12.2 7.2-18.2-7.1 1.7-14.1 3.7-21.1 5.5-4.8 1.3-9.6 2.5-14.5 3.8-2.8.7-5.6 1.4-8.4 2.2-2.7.5-5.3 1.4-7.9 2-2.7.6-5.3 1.3-8 2.1-8.8 2.3-17.7 4.5-26.5 7-7 17.9-14 35.8-21.1 53.8-11.3 29-22.8 58-34.1 87.1 6.4-1 9.4-1.3 15.7-2.4 10.4-3.9 62.2-20.4 72.1-23.3-4.2 11.3-17.5 39.4-19.1 42.7-1.5 1.9-2.6 4.1-4.1 6-5.4 6.7-10.3 13.7-15.9 20.3 2.1-9.1 4.8-18 7.1-27.1.7-2.7 1.4-5.3 2-8 1.3-5.2 4.5-17.4 4.7-18-4.4.7-8.9 1.2-13.3 2-9.5 36.1-19.2 72.5-28.7 108.6 20.4-26.1 40.9-52 61.2-78.1 14.3-18 28.5-36.2 42.7-54.3 12.2-15.6 24.5-31.2 36.8-46.9 1.2-1.5 2.3-3 3.5-4.5 2.2-2.9 4.5-5.7 6.8-8.6-4.4.8-9 1.9-13.5 3.1zm-38.9 49c-11.8 15.1-24.4 29.9-36.2 45-2.3 3.1-2.7 4.8-5.3 7.6 6.2-16.5 12.7-31.6 18.9-48.1-27 7.6-53.4 15-80.3 22.7 8.8-24.3 16.6-47.4 25.5-71.6 6.2-16.7 12.2-33.5 18.4-50.3 9.4-2.6 18.9-5 28.4-7.5l7.9-2.1c2.4-.7 4.9-1.3 7.4-1.9 2.6-.6 18-4.1 21.5-5.1-.6 1.6-5.5 17.7-5.5 17.8-1 2.4-4.8 11.1-6.9 16.2-7.6 2.2-16.9 4.7-24.6 6.8-.7 1.8-1.7 4.5-2.4 6.4 8.3-2.1 16.3-4.5 24.6-6.7-4.6 12-9 23-13.7 35-7.7 2.5-16.5 4.2-24.1 6.9-1.1 3.3-2.2 7.4-3.2 10.4 26.7-6.3 53.6-13.9 80.3-20.3-10.4 12.9-20.7 25.6-30.7 38.8z"/><linearGradient id="SVGID_21_" gradientUnits="userSpaceOnUse" x1="181.71" y1="379.9" x2="146.83" y2="414.78" gradientTransform="matrix(1 0 0 -1 0 841.67)"><stop offset=".31" stop-color="#634C9F"/><stop offset=".64" stop-color="#4E338C"/><stop offset=".78" stop-color="#3E2A6F"/></linearGradient><path class="st25" d="M122.7 451c5.7-.8 11.5-2.1 17.2-3 4.5-.7 8.9-1.4 13.3-2 1.1-.2 2.2-.3 3.4-.5 4.4-.8 8.8-1.2 13.3-2 1.3-.2 2.6-.5 3.9-.7 3.4-.6 6.1-.8 9.5-1.2-.4 4.3-.6 17.2-1 19.5 4-11.4 8.9-22.5 13.1-33.8-9.9 2.8-67.3 21.7-72.7 23.7z"/><linearGradient id="SVGID_22_" gradientUnits="userSpaceOnUse" x1="181.71" y1="379.9" x2="146.83" y2="414.78" gradientTransform="matrix(1 0 0 -1 0 841.67)"><stop offset=".31" stop-color="#634C9F"/><stop offset=".64" stop-color="#4E338C"/><stop offset=".78" stop-color="#3E2A6F"/></linearGradient><path class="st26" d="M122.7 451c5.7-.8 11.5-2.1 17.2-3 4.5-.7 8.9-1.4 13.3-2 1.1-.2 2.2-.3 3.4-.5 4.4-.8 8.8-1.2 13.3-2 1.3-.2 2.6-.5 3.9-.7 3.4-.6 6.1-.8 9.5-1.2-.4 4.3-.6 17.2-1 19.5 4-11.4 8.9-22.5 13.1-33.8-9.9 2.8-67.3 21.7-72.7 23.7z"/><linearGradient id="SVGID_23_" gradientUnits="userSpaceOnUse" x1="188" y1="396.56" x2="146.3" y2="354.86" gradientTransform="matrix(1 0 0 -1 0 841.67)"><stop offset=".17" stop-color="#2E1F53"/><stop offset=".38" stop-color="#402A72"/><stop offset=".56" stop-color="#513590"/><stop offset=".9" stop-color="#60489D"/></linearGradient><path class="st27" d="M169.9 443.5c-2.3 9-11.9 44-13.8 53.1 5.6-6.6 11-14.1 16.4-20.8 1.5-1.9 7.8-10.1 9.8-14.7.5-2.8 1.5-16.6 1.7-20.1-3.3.5-12.7 2.3-14.1 2.5z"/><path class="st3" d="M177.6 394.2c1.1-3.1 1.9-5.5 3-9.1 7.7-2.6 16.5-4.2 24.2-6.7 4.7-11.9 9.4-23.9 14-35.9-8.3 2.2-16.5 4.6-24.8 6.7.7-1.8 1.4-3.6 2.1-5.5 7.7-2.1 17-4.6 24.7-6.8 1.6-3.6 6.9-16.9 6.9-17 .9-2.5 5.9-17.1 6.6-18.6-3.5 1-20.4 5.5-23 6.2-2.5.6-4.9 1.2-7.4 1.9l-7.9 2.1c-9.5 2.5-18.9 4.9-28.4 7.5-6.2 16.7-12.2 33.5-18.4 50.3-8.9 24.2-17.8 48.5-26.6 72.7 27-7.7 53.8-15.5 80.8-23.1-6.3 16.5-12.9 32.8-19 49.3 2.6-2.9 5-5.9 7.3-9 11.8-15.1 23.7-30.2 35.4-45.4 10.1-13.2 20.5-26.1 30.6-39.3-26.8 6.5-53.4 13.4-80.1 19.7zm14.7 60.2c5.1-13.1 10.2-26.3 15.3-39.4-27 7.9-54.1 15.5-81.1 23.4 14.3-39.1 28.6-78.1 43-117.2 20.4-5.5 40.9-10.8 61.4-16.2-3.9 10-7.8 20-11.6 30-8.3 2.6-16.8 4.3-25.1 7-1.6 3.6-2.7 7.4-4.2 11.1 8.3-2.2 16.5-4.5 24.7-6.6-3.9 10-7.8 20.1-11.8 30.1-8 2.2-16.1 4.4-24.1 6.7-1.6 5-3.6 9.8-5.3 14.7 25.9-6.5 51.9-12.6 77.7-19.2-19.5 25.1-39.3 50.3-58.9 75.6z"/><path class="st3" d="M177.6 394.2c1.1-3.1 1.9-5.5 3-9.1 7.7-2.6 16.5-4.2 24.2-6.7 4.7-11.9 9.4-23.9 14-35.9-8.3 2.2-16.5 4.6-24.8 6.7.7-1.8 1.4-3.6 2.1-5.5 7.7-2.1 17-4.6 24.7-6.8 1.6-3.6 6.9-16.9 6.9-17 .9-2.5 5.9-17.1 6.6-18.6-3.5 1-20.4 5.5-23 6.2-2.5.6-4.9 1.2-7.4 1.9l-7.9 2.1c-9.5 2.5-18.9 4.9-28.4 7.5-6.2 16.7-12.2 33.5-18.4 50.3-8.9 24.2-17.8 48.5-26.6 72.7 27-7.7 53.8-15.5 80.8-23.1-6.3 16.5-12.9 32.8-19 49.3 2.6-2.9 5-5.9 7.3-9 11.8-15.1 23.7-30.2 35.4-45.4 10.1-13.2 20.5-26.1 30.6-39.3-26.8 6.5-53.4 13.4-80.1 19.7zm14.7 60.2c5.1-13.1 10.2-26.3 15.3-39.4-27 7.9-54.1 15.5-81.1 23.4 14.3-39.1 28.6-78.1 43-117.2 20.4-5.5 40.9-10.8 61.4-16.2-3.9 10-7.8 20-11.6 30-8.3 2.6-16.8 4.3-25.1 7-1.6 3.6-2.7 7.4-4.2 11.1 8.3-2.2 16.5-4.5 24.7-6.6-3.9 10-7.8 20.1-11.8 30.1-8 2.2-16.1 4.4-24.1 6.7-1.6 5-3.6 9.8-5.3 14.7 25.9-6.5 51.9-12.6 77.7-19.2-19.5 25.1-39.3 50.3-58.9 75.6z"/><linearGradient id="SVGID_24_" gradientUnits="userSpaceOnUse" x1="209.49" y1="430.9" x2="136.59" y2="358"><stop offset="0" stop-color="#E0B547"/><stop offset=".07" stop-color="#D38F3C"/><stop offset=".15" stop-color="#D0853C"/><stop offset=".5" stop-color="#BD4939"/><stop offset=".85" stop-color="#D1883C"/><stop offset=".93" stop-color="#D4923D"/><stop offset="1" stop-color="#E3BC60"/></linearGradient><path class="st28" d="M244.7 382.9c-3.8 2.6-16.7 12.2-16.7 12.2-4.6 5-11.8 6.7-18.3 8.2.2.2.5.4.8.6-6.7 1.9-13.6 4.2-20.2 6.3v-.1c-2 .6-17.5 4.9-23.9 6.8-8 2.3-15.9 4.2-23.9 6.5 2.4-6.5 4.4-13.3 6.9-19.7 2.7-5.9 7.3-19.4 7.9-20.9h-.1c2.8-5.2 5.1-10.8 6.1-16.8 1.7-3.3 2.7-7.7 4-11.1 1-2.8 2-5.5 3.1-8.3h-.1c2.3-5.8 4.2-11.5 6.4-17.2-1.7-2-3.6-4-5.4-5.9-2.7 6.8-5 13.7-7.6 20.5-2 5.3-4 11-6 16.3-2.2 6.3-4.6 12.6-7 19 0 0-4.6 12.6-6.8 18.9-4.4 12-9 24.8-13.5 36.8 14-4 28.6-8.5 42.6-12.3.2 0 .3-.1.5-.1h.1c7.8-2.3 15.6-4.6 23.5-6.7 4.8-1.3 10-2.8 14.7-4.1-3.6 9.4-7.5 18.6-10.9 28.1 7.5-9.2 14.8-19.3 22.2-28.6 3.4-4.4 6.7-8.7 10.1-13 .3-.9 7.7-10.3 11.5-15.4z"/><path class="st16" d="M158.6 411.4l.1-.3c1.8-5.9 4-11.6 6.2-17.5 1.6-4.2 3.1-8.4 4.6-12.6l2.1-5.7c4.9-1.5 9.9-2.7 14.8-4.1 3.2-.9 6.3-1.9 9.4-2.8l3.3-7.8c-8 2-16 4.2-24 6.5 0-.2 1.8-6.3 1.9-6.3 2.8-7.8 6-15.5 8.7-23.3.5-1.2 1-2.5 1.5-3.7 8-2.2 16-4.4 24.2-6 1.5-2.8 2.7-5.8 4-8.7-13 3.2-25.8 6.7-38.7 10.1-2.2 5.7-4.7 11.3-6.4 17.3-1.1 2.8-2.2 6.1-3 8.2-1.2 3.5-2.5 7.1-3.8 10.6-2.3 5.8-4.2 11.6-6.4 17.5-.7 1.6-1.3 3.2-1.9 4.8-2 5.5-3.9 11.1-6 16.6-2.5 6.5-4.8 13.1-7.3 19.6 8-2.2 16.1-4.4 24.1-6.8 6-1.9 18.2-5.1 18.2-5.1l6-1.8c7.1-2.1 25-7.6 34.6-11.3 1.6-1.4 7.4-6.6 9-8-17.1 4.3-67.1 18.5-75.2 20.6z"/></svg>