<?xml version="1.0" encoding="utf-8"?>
<!-- Generator: Adobe Illustrator 19.0.0, SVG Export Plug-In . SVG Version: 6.00 Build 0)  -->
<svg version="1.1" id="Layer_1" xmlns="http://www.w3.org/2000/svg" xmlns:xlink="http://www.w3.org/1999/xlink" x="0px" y="0px"
	 viewBox="-97 211.9 400 419" style="enable-background:new -97 211.9 400 419;" xml:space="preserve">
<style type="text/css">
	.st0{fill:#1854A6;}
</style>
<g id="_x23_1854a6ff">
	<path class="st0" d="M295.8,211.9h0.2c-7.9,14.4-16.4,28.5-24.3,42.9c10.4-5.3,20.7-11,31.4-15.8v0.3c-0.7,0.8-1.3,1.7-1.9,2.6
		C232.5,364.3,163.7,486.5,95,608.8c-4.3,7.3-8,15-12.7,22H39.8c-1.3-0.8-2.1-2-2.5-3.5C-2.9,510.8-43.4,394.3-83.8,277.6
		c-4.5-12.6-8.7-25.3-13.3-37.9v-0.5c39.5,23.5,79.3,46.4,118.9,69.8c3,2,6.7,1,10.1,1.2c33.7,0,67.3,0,101,0c2,0.2,3.8-0.9,5.5-1.9
		C190.9,276.1,243.5,244.3,295.8,211.9 M161.8,310.5c-8.4,1.1-17.1-0.1-25.6,0.6c-19.7,11.8-39.1,24.2-58.7,36.1
		c-1.4,24.2-2.8,48.5-3.8,72.7c-0.7,14.7-1.8,29.3-2.4,44c-1,26-2.9,52-3.9,78.1c-1.1,22.4-2.7,44.9-3.3,67.3
		c53.5-91.4,106.6-183,159.9-274.5c15.3-26.1,30.3-52.4,45.8-78.4C233.7,274.1,197.9,292.6,161.8,310.5z"/>
	<path class="st0" d="M100.1,441c23.6-17.6,47.3-35.2,71.2-52.6c-10.6,17.8-22,35.1-33,52.7C125.5,441,112.8,441.1,100.1,441z"/>
</g>
</svg>
