<?xml version="1.0" encoding="utf-8"?>
<!-- Generator: Adobe Illustrator 19.0.0, SVG Export Plug-In . SVG Version: 6.00 Build 0)  -->
<svg version="1.1" id="Layer_1" xmlns="http://www.w3.org/2000/svg" xmlns:xlink="http://www.w3.org/1999/xlink" x="0px" y="0px"
	 viewBox="-161 255.9 273 331" style="enable-background:new -161 255.9 273 331;" xml:space="preserve">
<style type="text/css">
	.st0{opacity:0.87;enable-background:new    ;}
</style>
<g id="_x23_2a2a2add">
	<path class="st0" d="M-25.3,255.9h0.9c3.2,7.1,6.5,14.2,10.2,21.1c1.5,3.3,3.5,6.2,5,9.5c-2.2-0.8-4.3-2-6.1-3.4
		c1.4,4.8,4.9,8.4,7.2,12.7c-4-1.1-6.5-4.4-9.3-7.2c1.5,5.2,5,9.5,8.9,13.1c-4.4,0-6.7-4.1-9-7.1c0.5,2.7,1.1,5.4,2.1,7.9
		c0.1,0.4,0.4,1.1,0.5,1.4c1.5,3.3,3.5,6.2,5.7,9c-5.1-0.1-9-3.6-12.1-7.3c0.1,4,0.4,8,0.8,12c3.2,1.1,7.1,1.8,9.1,4.7
		c0.9,5.2,1.2,10.5,2.6,15.6c-10.5-1-21.1-1.1-31.6,0.1c0.7-3,1.4-6,1.8-9.1c0.3-2.4,0-5.1,1.2-7.3c2.3-2.4,5.7-2.8,8.5-4.3
		c0.6-5.1,1.1-10.3,1.1-15.5c-1.5-2.3-3.2-4.4-3.9-7c-0.1,0.9-0.2,2.8-0.3,3.7c-4-3.3-6-8.4-6.4-13.5c0.3-6.8,3.6-12.8,6.5-18.8
		c0.2-0.4,0.6-1.1,0.8-1.4c0.5-0.8,0.9-1.5,1.4-2.3c0.2-0.4,0.6-1.1,0.8-1.5C-27.6,259.3-26.5,257.5-25.3,255.9z"/>
	<path class="st0" d="M-137.3,373.5c23.2-34.5,62.9-57.6,104.6-59.4c-3.8,1.4-7,4.6-11.2,4.7c-31.6,4.4-61.2,21.1-81.7,45.4
		c-20.1,23.6-31.8,54.5-31.6,85.6c-0.1,25.9,7.6,51.7,21.9,73.3c16.7,25.3,42.2,44.8,71.2,53.7c29.8,9.3,62.8,7.7,91.5-4.5
		c28.6-12.1,52.6-34.7,66.5-62.4c12.6-24.5,16.8-52.9,12.6-80c-4.3-28.8-18.7-55.8-39.6-75.9c-19.9-19-45.7-31.7-73-35.3
		c-4-0.3-6.9-3.3-10.5-4.6c29.8,1.4,58.8,13.5,81.3,33.1c22.3,19.2,38,45.8,43.9,74.6c6.5,30.2,2.2,62.5-11.8,90
		c-12.9,25.7-34.3,47-60,60c-23.9,12.3-51.5,17-78.1,13.7c-31.8-3.7-62-19.3-83.6-42.9c-18.8-20.2-30.9-46.4-34.8-73.7
		C-164.1,435.9-156.1,401.1-137.3,373.5z"/>
	<path class="st0" d="M-40.2,341.8c10.7-1.4,21.6-1.4,32.3,0.2c1.5,2.4,1.9,5.3,3.1,7.9c11.1,27,33.9,47.3,58.7,61.6
		C34,409.3,13.4,412.9-4,422.9c-7.6,4.2-14.2,9.8-20.7,15.5C-38.5,424.6-56.6,414.9-76,412c-8.4-1.4-17-1.4-25.5-0.8
		c2.9-2.8,6.7-4.3,9.9-6.8c21.3-14.5,40.3-34.2,48.8-58.9C-42,344.2-42.1,341.8-40.2,341.8 M-29.5,379.5
		c-7.5,2.1-12.9,9.7-12.3,17.5c0.1,9.1,8.8,16.8,17.8,16.3c9.4-0.1,17.7-9,16.7-18.4C-7.6,384.1-19.4,376-29.5,379.5z"/>
	<path class="st0" d="M-28.7,386.3c6.9-3.4,15.7,3.1,14.6,10.7c-0.3,7.7-10.4,12.5-16.5,7.6C-37.2,400.3-36,389.2-28.7,386.3z"/>
	<path class="st0" d="M-107.9,415c20.3-3,41.8,0.1,59.9,10.1c8.8,4.6,16.4,11.1,23.7,17.8c15.7-16.5,37.5-27.2,60.3-28.7
		c7.7-0.6,15.4-0.2,23,0.8c-0.5,7.3-0.4,14.6-0.3,21.9c-7.5,13-19.9,23-33.5,29.1c0.1-7.4-0.3-14.9-2.1-22.2
		c-0.6-5.2-6.1-8.1-10.8-8.6c-8.9-0.9-17.3,3.4-24.3,8.5c-5.4,3.1-8.1,9.3-9.2,15.2c-1,7.4-0.8,15.1,2.1,22.1
		c-1.6,2.7-3.4,5.3-5.1,7.9c-1.9-2.5-3.7-5.2-5.3-7.8c3.6-9,2.9-18.9,1.1-28.2c-1.7-2.3-3.2-4.8-5.2-6.9
		c-7.5-5.8-16.3-11.3-26.2-10.6c-4.2,0.1-9,1.6-10.9,5.7c-3.8,7.8-2.5,16.7-3.5,25c-13.4-6.2-25.7-16.1-33.1-29
		C-107.7,429.6-107.3,422.3-107.9,415z"/>
	<path class="st0" d="M103.6,441.6c0.9,2,0.6,4.2,0.7,6.3c0.5,27.2-7.9,54.5-23.6,76.7c-16.5,23.5-41.2,41.1-68.7,49.3
		c-25.7,7.6-53.7,7-78.9-1.9c-30.5-10.5-56.6-33.1-71.5-61.7c-10.6-20.1-15.6-43-14.7-65.6c0.2-0.5,0.5-1.6,0.6-2.1
		c1.4,10.6,3.6,21.5,9,30.9c2.5,4.4,6.1,8.2,10.9,10.1c9.4,19.5,25,35.7,43.6,46.6c0.6-1.1,1.1-2.2,1.7-3.3
		c-17.4-10.2-31.8-25.3-41.2-43.2c6.1-2.2,10.2-7.6,12.9-13.4c9.9,12.6,22.9,22.5,37.3,29.4c-2.1,9.3-5,18.5-9,27.1
		c6.5,4,13.7,6.9,21.2,8.3c0.2,10.9,5.7,21,13,28.9c2.2,2.2,4.2,4.7,7,6c-7.9-7.8-15.2-17-17.3-28.2c-1.6-7.4-0.3-16.5,6.4-21
		c7.1-4.7,15.9-5.2,24.2-6c-3.7-2.7-7.2-6.4-12-6.6c1.2-3,2.8-5.8,3.9-8.9c-8.1,6.3-14.7,14.4-22.7,20.8c0.2-1.9,0.4-3.8,0.5-5.8
		c-6.6-3.3-8.8-11.2-15-14.9c0.3-1.2,0.5-2.4,0.8-3.5c7.5,3.4,9.8,12.7,17.5,15.7c6.9-5.7,13.4-11.8,20.3-17.5
		c2.4,0.5,4.1,2.7,5.8,4.4c-1.3-0.5-2.6-1.1-3.9-1.7c-0.2,3.2-1.4,6.2-2.1,9.3c3.7,0.7,6.8,2.8,10.1,4.3c3.4,0.3,6.8,0.3,10.2,0
		c3.3-1.6,6.4-3.6,10.1-4.2c-0.6-3.1-2.1-6.1-2.1-9.3c-1.5,0.7-3,1.3-4.5,1.9c1.9-1.7,3.9-3.3,5.9-4.9c7.2,5.6,13.7,12.1,20.8,17.8
		c7.8-3.1,10-12.4,17.5-15.7c2.5,3.3-1.6,5-3.4,7c-3.5,3.9-6,8.9-10.9,11.3c0.1,2,0.2,3.9,0.5,5.8c-7.9-6.7-15-14.3-22.7-21.2
		c0.6,3.3,2.6,6.2,3.9,9.3c-4.8,0.3-8.3,4-12,6.7c8.3,0.8,17.1,1.3,24.2,6.1c6.1,4.1,7.6,12.2,6.6,19c-1.6,11-8.2,20.4-15.7,28.3
		c2.6-1,4.3-3.3,6.1-5.3c6.8-7.7,11.8-17.3,12-27.8c6.3-1.1,12.3-3.4,17.9-6.3c1.4-0.7,2.5-1.8,3.4-3.1c-3.4-4.9-4.8-10.9-6.7-16.5
		c-0.9-3.5-2.4-7.1-1.5-10.7c1.3,0,2.4-0.4,3.5-1c12.7-6.7,24-16,32.9-27.2c2.7,5.5,6.4,11.1,12.6,13.1
		c-7.6,16.5-20.6,30.1-35.6,40.1c-1.3,0.9-2.7,1.9-4.4,2c-0.2,1.4-0.9,4.8,1.6,4.2c18.3-10.8,33.6-27,42.9-46.2
		c7.3-2.7,11.4-10,14.1-16.8C101,458.7,102.5,450.1,103.6,441.6 M-45,527.3c-4.3,0.9-8.4,3.6-9.8,8c6.9-1.1,13.3-4,19.1-7.8
		c3,2.3,5.9,5.2,9.7,6.2c5.2,0.9,8.9-3.5,12.8-6.2c5.8,3.8,12.1,6.6,18.9,7.7c-2.1-6.7-9.8-8.3-15.8-9.2
		C-21.7,524.6-33.6,524.5-45,527.3 M-56.4,539.7c-2,12.7,6.7,24.2,16.4,31.2c2.2,2,6.3,2.8,8.2,0.1c3.2-5.1,3-12.1,0.1-17.3
		c-1.8-3.4-5.2-5.3-8.3-7.2c5,1.3,9.8,3.6,15.1,3.9c5.3,0.2,10.1-2.3,15.1-3.5c-2,1.6-4.4,2.9-6.1,5c-3.8,4.6-4.3,11.2-2.5,16.7
		c0.7,2,2.1,4.2,4.5,4.2c3.4,0.2,5.9-2.6,8.4-4.5c8.2-7,14.8-17.4,13.1-28.6c-7.3-0.5-14.3-3.2-20.6-7c-3.4,3.2-6.8,7.4-11.8,7.8
		c-4.5-1.1-7.8-4.6-10.9-7.8C-42.1,536.4-49.1,539.2-56.4,539.7z"/>
	<path class="st0" d="M-108.4,443.7c2.3,2,3.9,4.6,6,6.7c7.9,8.3,17.4,15,27.9,19.7c-0.6,8.5-1.6,17.1-3.1,25.6
		c-14.1-6.8-26.9-16.8-36.1-29.6C-111,458.9-109.4,451.3-108.4,443.7z"/>
	<path class="st0" d="M51.4,452.3c3-2.6,4.9-6.2,8-8.6c0.9,7.6,2.6,15.2,5.3,22.4c-9.2,12.8-22,22.8-36.2,29.6
		c-0.7-5.3-2-10.5-2.2-15.9c-0.2-3.5-1.9-7.1,0-10.4C35.8,465.7,44.1,459.3,51.4,452.3z"/>
	<path class="st0" d="M-69.5,465.1c2.9-3.2,6-6.5,9.5-9.1c8.3,4.9,16.9,9.5,25.2,14.4c-8.3-3.1-16.7-6.3-25.2-9.1
		C-63.1,462.6-66.2,464-69.5,465.1z"/>
	<path class="st0" d="M-13.2,469.8c8-4.8,16.3-9.1,24.2-14c3.2,3,6.5,5.9,9.4,9.3c-4.3-0.9-8.3-5-12.7-2.7
		C0.7,464.8-6.1,467.6-13.2,469.8z"/>
	<path class="st0" d="M-74.3,466.3c7.5,3.6,15.5,6.4,23.7,8.1c5.3,0.9,10.1,3.5,14.8,5.9c-13.3-1.2-26.4-4.6-38.6-10.2
		C-74.4,469.1-74.3,467.2-74.3,466.3z"/>
	<path class="st0" d="M0.1,474.7c8.8-1.8,17.3-4.7,25.4-8.5c0.4,2.2-0.9,4.5-3,5.2c-9.7,4.2-20.1,6.8-30.6,8.3
		c-1.3,0.1-2.8,0.7-4-0.2C-8,478.1-4.3,475.5,0.1,474.7z"/>
</g>
</svg>
