<?xml version="1.0" encoding="utf-8"?>
<!-- Generator: Adobe Illustrator 19.0.0, SVG Export Plug-In . SVG Version: 6.00 Build 0)  -->
<svg version="1.1" id="Layer_1" xmlns="http://www.w3.org/2000/svg" xmlns:xlink="http://www.w3.org/1999/xlink" x="0px" y="0px"
	 viewBox="-443 882 297.3 257.6" style="enable-background:new -443 882 297.3 257.6;" xml:space="preserve">
<style type="text/css">
	.st0{fill:#316096;}
	.st1{fill:#318EDE;}
	.st2{fill:#111822;}
	.st3{fill:#113A72;}
	.st4{fill:#FFFEFE;}
	.st5{fill:#CFDAE7;}
	.st6{fill:#CEDAE6;}
</style>
<path class="st0" d="M-184.1,981.2l8.6,5c0.6,5.1,1.2,15.9-3.7,28.1c-4.9,12.3-12.8,19.8-16.7,23.1c-6.5-0.8-12.9-1.6-19.4-2.4
	c3-1,19.5-6.7,27.9-24.1C-181.2,997.6-183.2,985.2-184.1,981.2z"/>
<path class="st0" d="M-154.3,1045.4c1.4,1.6,3.1,3.9,4.1,6.9c3.3,10.1-2.8,19.3-3.8,20.7c-5.7,6.7-11.4,13.4-17.1,20.1l-5.5-6.1
	c4.3-2.8,17.8-12.3,21.5-29.3C-154.1,1053.1-154.1,1048.9-154.3,1045.4z"/>
<polygon class="st1" points="-437.5,1029 -438.2,1034.1 -420.1,1047 -411.7,1046.7 -411.1,1042.8 "/>
<polyline class="st1" points="-427.2,1086.5 -428.9,1091.4 -353.2,1091.4 -352.6,1086.5 "/>
<rect x="-416.2" y="993.9" class="st2" width="38.5" height="26.3"/>
<path class="st0" d="M-191,994c-0.9-6.1-2-11.9-5-16.9c-4.2-7.3-11.1-13.7-21-19.5l-0.2-0.1c-4.6-2.6-9.4-5.3-14.5-6.5h-0.1h-0.1
	c-8.1-3.2-14.7-5.5-20.9-7.3l-0.4-0.1l-0.2-0.3c-0.2-0.3-0.5-0.8-0.7-1.1l-0.9-1.4l1.6-0.2c0.7-0.1,1.5-0.1,2.2-0.1
	c5.1,0,10.1,1.8,14.2,3.3c8.3,3.2,16.4,6.9,24.1,11.2c11.1,6.3,19,15.1,22.1,24.8c1.5,4.2,1.8,8.7,1.8,14L-191,994z"/>
<path class="st0" d="M-256.4,1032.5c-9.9-0.1-20.7-1.7-32.9-4.9c-19.3-6-37-20.1-50.2-40.2c2.6,9.4,7.9,18.7,15.4,27l-1.3,1.5
	c-12.7-7.9-24.8-18.7-36.8-32.9c2.4,5.1,5.4,10.5,9.2,16.5l-1.5,1.3c-8.6-8-16.6-13.6-24.5-17.2c2,1.7,3.7,3.4,5.2,5.2l2.2,2.6
	l-3.3-1c-6.3-1.9-11.7-2.9-16.6-2.9c-1.5,0-2.9,0.1-4.3,0.2l-1.3,0.1l0.2-1.3c1.3-9.9,6.9-19.4,15.3-26.2c6.6-5.4,15.2-8.4,24.4-8.4
	c4.5,0,8.8,0.7,13,2.1c8,2.7,15.1,8.6,22.4,18.3c3.1,4,5.9,8.3,8.6,12.5c4.6,7,9.4,14.3,15.4,20.3c6.6,7,12.6,13.1,20.3,17.4
	c6.5,3.9,14,5.9,21.3,7.8l0.2,0.1L-256.4,1032.5z"/>
<path class="st0" d="M-240.1,983.9c-0.5,0-1,0-1.5-0.1h-0.3l-0.2-0.2c-1.1-1-2.2-2.1-3.2-3.2c-2-2.2-4-4.3-6.6-5.6
	c-9.2-5.1-20.4-7.6-33.3-7.6c-1.7,0-3.5,0-5.3,0.1h-1.2l-0.2-2c2.8-0.5,5.9-0.8,9.4-0.8c3.4,0,6.7,0.2,10,0.4h0.4
	c12.3,1.1,22.8,3.6,32.2,7.7l0.3,0.1c3.6,1.7,8.1,3.9,8.5,8.8l-1.9,1.2c-0.7,0.1-1.5,0.2-2.2,0.4
	C-236.8,983.6-238.4,983.9-240.1,983.9z"/>
<path class="st3" d="M-248.7,1032.7c-2.5,0-5.1-0.1-7.7-0.2h-0.1l-0.3-0.1c-7.4-1.9-15.1-3.9-21.8-8c-7.9-4.4-14.3-10.9-20.7-17.8
	l-0.1-0.1v-0.1c-1-1.6-2.1-3.1-3.2-4.6c-2.1-3-4.2-6-6-9.2c-1.8-3.1-3.5-6.3-5.1-9.4c-2.3-4.4-4.6-8.9-7.4-13
	c-5.3-8-14.3-18.2-27.1-21.9c-3.1-1-6.4-1.5-9.8-1.5c-5.8,0-12.1,1.4-18.7,4.1l-1-1.7c6.7-4.6,14.9-7.1,23.6-7.1
	c2.5,0,5.1,0.2,7.6,0.6c12.3,1.5,24,7.7,32,17.1c6.1,7,10.1,15.3,14,23.4c3.7,7.7,7.6,15.8,13.2,22.4c7,8.3,16.4,14.1,26.3,16.4
	c-3.8-2-7.1-5-8.4-9.5c-0.5-1.7-0.3-3.4,0.6-5c1.2-1.9,3.3-3.4,5.7-3.8c1.3-0.5,2.6-0.7,4-0.7c3,0,5.9,1.1,8.5,2.2
	c-2.9-6.5-6-13.2-11.7-17.4c-2-1-4.1-1.9-6.1-2.8c-5.2-2.3-10.5-4.7-14.9-8.4c-1.1-0.8-1.3-2.1-1.5-3.1c0-0.3-0.1-0.5-0.1-0.8
	l-0.2-0.8l0.8-0.3c3.5-1.5,7.2-1.7,10.5-1.7c-5-1.4-10.5-2.3-16.7-2.8v-2c1.8-0.1,3.6-0.1,5.4-0.1c13.2,0,24.7,2.6,34.2,7.9
	c2.9,1.4,5,3.7,7.1,6c0.9,1,1.9,2,2.8,2.9c0.3,0,0.6,0,0.9,0c1.5,0,3-0.3,4.6-0.5c0.8-0.1,1.2,0.3,1.9,0.2l0.5-0.1v1
	c0.8,3.2-0.9,4-2.9,5.1c-0.6,0.3-1.1,0.7-1.6,1c0.4,6.2,2,11.5,4.7,16c0.7-1.3,1.5-2.5,3.1-3.1l0.7-0.3l0.5,0.6
	c3.9,5.4,8.2,8.3,12.6,8.5c0.4,0.1,0.8,0.1,1.2,0.1c3.9,0,7.9-2.5,10.1-6.3c3.9-6.5,3.9-14,3.2-19.1c-2.8-10.9-10.7-21-22.3-28.6
	c-0.9-0.6-1.9-1.2-2.9-1.8c-1.9-1.1-3.9-2.3-5.5-3.9l-2.6-2.5l3.5,0.8c5.5,1.3,10.3,4,15.1,6.7l0.2,0.1c10.2,6,17.3,12.6,21.8,20.2
	c3.1,5.3,4.3,11.3,5.2,17.6v0.1v0.1c-1.2,11-7.6,21.3-17,27.7C-217,1029-231.4,1032.7-248.7,1032.7z"/>
<path class="st1" d="M-286.1,960c-9.2-1.1-18.6-3-25.2-9.3c-2.1-2-3.3-4.8-3.2-7.9c0.1-4,2-8.1,5-10.8c7.3-6.5,17.4-8,26.3-8.8
	c3.6-0.3,7.2-0.4,11-0.4c9.2,0,18.8,0.7,30.3,2.4c-13.8-3.9-28.8-5.9-44.6-5.9c-5.7,0-11.5,0.3-17.4,0.8
	c-15.1,1.4-29.2,6.6-40.9,15.1l-1.3-1.5c5.4-6,12.1-11.1,19.5-15.2c-12.3,3.8-22.9,9.9-30.8,17.8c-1.3,1-2.7,1.2-4,1.4
	c-0.6,0.1-1.1,0.2-1.6,0.3l-1.2,0.3V937c0-3.4,0-6.8,0-10.2c0-4.7,0-9.5-0.1-14.2c-2.5-1.4-5.1-2.8-7.5-4.2l-2-1.2l2.2-0.6
	c24.2-7.1,50.2-10.7,77.2-10.7c5.8,0,11.7,0.2,17.5,0.5c20.6,1.1,41,4.6,60.5,10.2l2,0.6l-1.8,1.2c-1,0.7-2.2,1.3-3.4,1.8
	c-1.7,0.8-3.4,1.6-4.4,2.8c-0.3,5.6-0.2,11.3-0.2,16.9c0,3.9,0.1,8,0,11.9v1.5l-1.3-0.5c-8.8-3.6-16.9-5.7-24.7-6.6
	c-0.3,0-0.6,0-0.9,0c-3.3,0-6.7,1.9-8.9,5c-0.7,1-1.3,2.1-2,3.2c-0.9,1.6-1.9,3.3-3.1,4.8c-4.8,6-12.3,10-20.7,11h-0.1L-286.1,960z"
	/>
<path class="st0" d="M-372.8,939.3c0-10.6,0-21.4,0-32.1v-1.7l1.9,1.1c2.6,1.5,5.2,3,7.9,4.4l0.5,0.3v0.6c0.2,5,0.2,10,0.1,14.8
	c0,3.3,0,6.8,0,10.1v0.8l-0.8,0.2c-2.5,0.5-5.1,1.3-8.4,2.4l-1.3,0.4L-372.8,939.3z"/>
<path class="st0" d="M-339.9,937.2l1.3-1.2c8.3-7.5,19.3-12.7,31.8-15l0.6,1.9c-2.4,1.3-5,2.3-7.5,3.3c-3.4,1.3-6.9,2.7-10,4.8
	c-1.7,1-3.1,2.2-4.6,3.5c-1.8,1.6-3.6,3.2-5.9,4.3l-0.4,0.2L-339.9,937.2z"/>
<path class="st3" d="M-217.5,946.5c-2.7-1.3-5.5-2.6-8.2-3.9l-0.6-0.3v-0.6c0.1-4,0.1-8,0-11.9c0-5.7-0.1-11.6,0.2-17.3v-0.3
	l0.2-0.2c1.3-1.7,3.4-2.7,5.3-3.6c1.1-0.5,2.2-1,3.1-1.6l1.5-1.1v1.9c0.1,14.7,0.1,26.9,0,38.3v1.6L-217.5,946.5z"/>
<path class="st3" d="M-326.2,941.9c-3.1-1.3-6-2.3-8.6-3.1l-2.7-0.8l2.6-1.1c2-0.9,3.7-2.4,5.4-3.9c1.5-1.3,3-2.7,4.8-3.7
	c3.2-2.2,6.8-3.6,10.3-5c2.4-1,5-2,7.3-3.2h0.1h0.1c3.8-1.4,7.9-1.4,11.8-1.4h0.4l0.5,1.9c-1.5,0.8-3.1,1-4.7,1.3
	c-1,0.1-1.9,0.3-2.8,0.5c-11.3,3-19.7,9.5-23.2,18.1l-0.4,0.9L-326.2,941.9z"/>
<path class="st0" d="M-274.7,1114.3c-10.2,6.9-15.3,7.9-19.4,7.9c-7.7-0.1-13.2-3.9-19.4-8.3c-6-4.3-15.3-12.2-23.5-25.7
	c29.9,0,59.9,0,89.8,0C-257.3,1101.3-267.6,1109.5-274.7,1114.3z"/>
<path class="st0" d="M-294.3,1131l-2.8-3.7l55.1-39.8l61-1c6.3,0.5,12.7,1,19,1.5c-25.1,2.5-50.2,5.1-75.4,7.6
	c-7.4,6.7-17,14.4-28.9,21.6C-276.5,1123.3-286,1127.7-294.3,1131z"/>
<g id="_x23_111822ff">
	<path class="st2" d="M-384.3,900.7c23.1-7.5,47.2-11.4,71.3-12.9c9.3-0.9,18.7-0.2,28-0.5c27.3,1,54.6,4.8,80.6,13.4
		c0,17.6,0,35.3,0,52.9c11.3,9,21.5,20.4,25.3,34.7c3,10.6-0.1,22.4-7.3,30.6c-5.4,6.5-12.8,10.9-20.2,14.6
		c11.2,0.2,22.4-0.1,33.6,0.1c6.8,0.3,14.2,2.6,17.9,8.6c3.5,5.1,3.1,11.7,1.3,17.3c-2.2,7.1-3.1,15.1-8.1,20.9
		c-4.5,5.8-12,8.6-19.2,8.6c-19,0.1-38.1,0-57.1,0.1c-1.7-0.2-2.7,1.3-3.7,2.4c-14.4,16.7-32.5,30.2-52.5,39.3
		c-21-9.7-39.7-24-54.6-41.7c-25.4-0.1-50.8,0-76.2-0.1c4-14.9,8.1-29.7,12.1-44.6c-2,0-4,0-6,0c-5.6-4.7-11.2-9.5-16.7-14.2
		c1.2-4.5,2.5-9,3.7-13.5c7,0,14.1,0,21.1-0.1c-4.4-12.5-3.4-26.4,0.9-38.8c4.7-13.4,14.2-24.7,25.9-32.7
		C-384.3,930.6-384.1,915.6-384.3,900.7 M-371.4,907.4l-0.4-0.2c0,10.7,0,21.4,0,32.1c2.8-0.9,5.6-1.8,8.5-2.4
		c1.7-0.5,3.8-0.3,5.2-1.5c11.2-11.1,26.2-17.6,41.5-20.6c-10.8,4.3-20.9,10.8-28.7,19.4c12.1-8.8,26.6-14,41.4-15.3
		c24.9-2.2,50.6,0.1,74,9.1c-17.5-3.1-35.3-5.2-53-3.9c-9,0.9-18.8,2.3-25.8,8.6c-4.7,4.2-6.8,12.5-1.8,17.3
		c6.5,6.3,15.9,8,24.6,9.1c7.7-0.9,15.2-4.5,20.1-10.7c2-2.4,3.2-5.4,5-7.9c2.4-3.4,6.5-5.9,10.7-5.4c8.6,1,17,3.5,25,6.7
		c2.8,1.3,5.6,2.7,8.4,4c0.1-12.8,0.1-25.5,0-38.2c-19.6-5.7-39.9-9.1-60.3-10.2C-308.8,895.5-340.9,898.5-371.4,907.4 M-306.6,922
		c-11.5,2.1-22.7,6.8-31.4,14.8c0.9,0.3,2.6,0.8,3.4,1.1c3,0.8,5.9,1.9,8.7,3.1c4.1-9.9,13.9-16,23.8-18.6c2.4-0.7,5.1-0.5,7.3-1.7
		C-298.7,920.6-302.9,920.6-306.6,922 M-253.3,941.6c0.2,0.3,0.5,0.8,0.7,1.1c7.1,2,14.1,4.6,21,7.3c2.4,2.3,5.5,3.7,8.3,5.5
		c10.5,6.8,19.6,16.9,22.7,29.2c0.9,6.7,0.2,13.9-3.3,19.8c-2.4,4.2-7.2,7.3-12.2,6.7c-5.7-0.3-10.1-4.6-13.3-9
		c-1.8,0.8-2.5,2.6-3.4,4.3c-3.7-5.5-5.4-12-5.8-18.5c2-1.8,6.2-2.7,5.4-6.1l1.1-0.2c-0.3-4.5-4.7-6.4-8.3-8.1
		c-10-4.4-20.9-6.7-31.8-7.6c-6.5-0.4-13.1-0.9-19.5,0.3h1.2c7.7,0.6,15.5,1.9,22.7,4.8c-5.4,0.1-11.1-0.5-16.2,1.6
		c0.3,1.2,0.2,2.6,1.3,3.3c6.1,5.1,13.9,7.6,21,11.1c6.7,4.9,9.9,13,13.2,20.3c-4.4-2.1-9.3-4.5-14.2-2.6c-3.5,0.6-6.8,3.8-5.6,7.6
		c2,7.1,9.4,10.1,15.8,11.9c-13.7-0.4-26.7-7.6-35.5-17.9c-11.7-13.7-15.4-32.3-27.3-45.8c-7.9-9.2-19.3-15.3-31.4-16.7
		c-10.5-1.8-21.7,0.2-30.5,6.3c9.2-3.8,19.5-5.8,29.2-2.7c11.8,3.4,21,12.3,27.6,22.3c4.9,7.1,8.1,15.1,12.5,22.4
		c2.8,4.8,6.1,9.2,9.2,13.8c-9.7-9.7-15.8-22.1-24.1-32.9c-5.7-7.6-12.8-14.8-22-18c-12.1-4.1-26.5-2.1-36.4,6.2
		c-7.9,6.3-13.6,15.4-14.9,25.5c7.3-0.8,14.5,0.5,21.4,2.7c-3.1-3.6-6.8-6.6-10.6-9.3c12,3.9,22.3,11.5,31.4,19.9
		c-4.6-7.3-8.8-14.9-11.9-23c11.7,14.6,25,28,41,38c-8.4-9.3-14.8-20.6-16.9-33c12,20,30,37.5,52.7,44.6c10.6,2.8,21.6,4.8,32.6,4.9
		c17,1,35.3-1,49.8-10.7c9.1-6.1,15.4-16.1,16.6-26.9c0-4.6-0.2-9.3-1.8-13.7c-3.4-10.7-12.1-18.9-21.6-24.3
		c-7.7-4.3-15.7-8-23.9-11.1C-242.4,942.9-247.8,941.1-253.3,941.6 M-277.4,987.9c2.3,2,4.4,4.3,7.1,5.8c2.2,0.4,4.3,0,6.5-0.2
		C-268.4,991.7-273.1,990.3-277.4,987.9 M-232.4,992.9c2.4,1.4,3.6-0.6,4.2-2.5C-229.7,991-231.1,991.9-232.4,992.9 M-399.8,1016.9
		c5.9,0.1,11.8,0.1,17.7,0.1c-0.4-2.7-0.7-5.4-1.1-8.1C-389.3,1009.8-395.1,1012.7-399.8,1016.9 M-425.6,1024.2
		c-0.1,0.5-0.5,1.4-0.6,1.9c3.4,3,6.8,6.1,10.5,8.8c4.6,0.2,9.1,0,13.7,0.1c-1.3,5-2.7,10.1-4.1,15.1c-2.3,8.7-4.8,17.4-7.1,26.2
		c-0.3,1.1-0.7,2.3-1,3.4c4.8,0,9.6,0,14.3,0c4.1-14.9,8.1-29.8,12.2-44.8c22,0,43.9,0.1,65.9,0c0.1-0.5,0.4-1.6,0.5-2.1
		c-3.5-2.9-6.9-5.9-10.4-8.8C-363,1024.2-394.3,1024-425.6,1024.2 M-384.6,1040.8c-0.2,0.5-0.5,1.6-0.7,2.2c2,1.8,4.2,3.4,6.1,5.3
		c-0.2,0.5-0.6,1.4-0.8,1.9c-1.8,3.9-2.4,8.2-3.7,12.3c-0.9,3.5-2.4,7.3-1.1,10.9c2.5,5,8.5,7,13.8,6.9c5.9,0.3,12.3-2,15.8-6.9
		c3.2-4.4,3.7-9.9,5.4-15c1-4,2.9-8.7,0.4-12.6c-3.1-4.7-9.4-6-14.7-5.6C-370.9,1041.3-377.8,1040.8-384.6,1040.8 M-346.6,1040.9
		c-1.6,4.3,6.9,4.8,4.5,9.2c-2.4,8.7-4.8,17.5-7.1,26.2c-0.3,1.1-0.6,2.2-0.9,3.4c4.1,0,8.2,0,12.4,0.1c0.8-3,1.6-5.9,2.4-8.9
		c0.7,0,2,0,2.7,0c0.2,1.8,0.5,3.6,0.8,5.4c0.2,1.1,0.3,2.3,0.5,3.5c4.4,0,8.9,0,13.3,0c-0.9-3.5-1.8-7.1-2.7-10.6
		c3.8-1.9,6.9-5.3,8.3-9.3c1.6-4.2,3.2-9.3,0.5-13.4c-2.5-4.1-7.6-5.4-12.1-5.5C-331.6,1040.8-339.1,1040.8-346.6,1040.9
		 M-307.7,1041c-0.3,0.5-0.8,1.4-1.1,1.8c1.9,1.7,3.7,3.3,5.6,4.9c-0.2,0.7-0.5,2-0.6,2.7c-2.3,8.7-4.8,17.3-7,26
		c-0.3,0.9-0.8,2.6-1,3.4c4.1,0,8.3,0,12.4,0.1c0.9-2.7,1.2-5.7,2.4-8.2c3.9-0.8,8.1,0.3,11.9-1.1c5.3-1.5,9.5-5.9,11.1-11.1
		c1.4-4.1,2.9-8.9,0.5-12.8c-2.5-4.4-7.9-5.6-12.6-5.6C-293.2,1040.9-300.4,1040.7-307.7,1041 M-269.6,1040.9
		c-0.1,0.5-0.3,1.6-0.4,2.1c1.8,1.5,3.5,3,5.3,4.5c-0.1,0.7-0.4,2-0.6,2.7c-2.4,8.7-4.7,17.3-7,26c-0.3,1.2-0.7,2.3-1,3.5
		c9.2,0,18.4,0,27.5,0c0.9-3.1,1.7-6.3,2.5-9.4c-0.9,0-2.7,0-3.7,0c-3.8,0-7.7,0-11.5,0c0.5-1.9,1-3.7,1.6-5.6c3.9,0,7.8,0,11.6,0
		c2.3-2.6,5.4-4.8,5.9-8.5c-1.2,0-2.5,0-3.7,0c-3.8,0-7.7,0-11.5,0c0.5-2,1.1-4,1.6-5.9c5.1,0,10.2,0,15.3,0
		c0.1-0.5,0.2-1.6,0.3-2.1c-2.6-2.5-5.4-4.8-8.3-7.1C-253.6,1040.6-261.6,1041-269.6,1040.9 M-235.7,1040.9c-1.5,4.3,7,4.8,4.5,9.3
		c-2.4,8.7-4.7,17.4-7.1,26.1c-0.3,1.1-0.6,2.3-0.8,3.5c6.1,0,12.1,0,18.1,0c5.3,0,10.8-1.8,14.2-6c3.5-4,4.4-9.4,5.8-14.4
		c1.1-3.8,2.6-8.1,0.8-11.9c-2.1-4.6-7.4-6.4-12.2-6.5C-220.1,1040.8-227.9,1040.9-235.7,1040.9 M-197.3,1040.9
		c-0.1,0.5-0.4,1.6-0.6,2.2c2.1,1.8,4.1,3.5,6.2,5.3c-0.3,0.5-0.8,1.4-1.1,1.9c-2,7.2-4.8,14.3-5.2,21.8c1.4,3.5,4.2,6.3,7.9,7.3
		c7,2,15.4,1.1,20.8-4.2c4.2-4,5-10.1,6.5-15.4c0.9-4.2,3.3-8.7,1.3-12.9c-2.8-5.6-9.8-6.9-15.5-6.5
		C-183.7,1041.3-190.5,1040.7-197.3,1040.9 M-334.2,1089.5c11.3,12.6,24.9,23.2,40,30.9c15.1-7.8,28.8-18.3,40-31.1
		c-3.9-0.2-7.9-0.1-11.8,0.1c-18.8-0.4-37.6-0.1-56.4-0.2C-326.3,1089.2-330.3,1089.2-334.2,1089.5z"/>
	<path class="st2" d="M-367.6,1050.9c1.8-2,4.7-1.1,7-0.9c-0.1,5-2.1,9.6-3.2,14.3c-0.6,2-0.8,4.4-2.7,5.8c-1.8,1.4-4.2,0.6-6.2,0.3
		c-0.3-4.2,1.5-8.1,2.4-12.1C-369.4,1055.8-369.2,1053.1-367.6,1050.9z"/>
	<path class="st2" d="M-181,1052.4c1-3.5,5.2-3,8-2.3c-0.3,5.1-2.2,9.9-3.4,14.8c-0.7,1.9-0.9,4.3-2.8,5.4c-1.9,1.2-4.1,0.3-6.1,0
		C-184.8,1064.2-182.7,1058.3-181,1052.4z"/>
	<path class="st2" d="M-329.8,1050.1c2.1,0.2,4.2,0.5,6.2,0.8c0.9,3.1,0.4,6.6-1.9,9c-2,1.9-4.9,1.6-7.4,1.7
		C-331.8,1057.8-330.8,1053.9-329.8,1050.1z"/>
	<path class="st2" d="M-291.4,1050.1c1.9,0.2,3.7,0.3,5.6,0.5c2.2,2.8,0.8,6.5-0.8,9.2c-1.8,2.5-5.2,2.4-8,2.4
		C-293.6,1058.2-292.4,1054.2-291.4,1050.1z"/>
	<path class="st2" d="M-218.9,1050.1c2,0.2,3.9,0.3,5.9,0.5c0.6,1.1,1.6,2.4,1.1,3.7c-1,4.2-2,8.5-3.5,12.6
		c-1.5,3.5-5.6,3.7-8.9,3.6C-222.6,1063.7-220.6,1056.9-218.9,1050.1z"/>
</g>
<polygon class="st0" points="-294.7,1127.8 -298.9,1133.7 -294,1139.4 -290.1,1134.5 "/>
<polygon class="st1" points="-296.9,1127.8 -298.9,1133.7 -294,1139.4 -289.7,1134.6 "/>
<g id="_x23_111822ff_1_">
	<path class="st1" d="M-294.9,1125.8h-1.4c-1.7,0-3.1-0.8-4-2.1c-1,0.6-2.7,0.9-3.8,0.5c-2.1-0.9-4.1-1.9-6.1-3.1
		c-0.7-0.5-1.3-1.1-1.7-1.8c-0.4-0.2-0.8-0.4-1.1-0.6c-2.4-1.8-3.8-3.8-5.8-6c-2.3-2.5-5.1-4.6-7.6-6.8c-4.5-4-8.2-8.7-11.2-13.9
		c-3.1-5.6,5.4-10.6,8.5-5c2.5,4.6,5.7,8.4,9.6,11.9c2.3,2,4.8,3.9,6.9,6.2c1.5,1.6,2.7,3.8,4.4,5.1c0.7,0.6,1.3,1.2,1.6,1.9
		c0.4,0.1,0.9,0.3,1.2,0.5c0.7,0.5,1.5,0.9,2.2,1.3c0.4,0.2,0.7,0.4,1.1,0.6c0.2,0.1,1.7,0.8,0.4,0.2c1.1,0.5,2,1,2.7,1.9
		c0.7-0.4,1.6-0.7,2.4-0.7h1.4c0.2,0,0.4,0,0.7,0.1c0-2,0-3.9,0-6l-0.1-17.5c-26.7-8-55.4-18.4-75-18.7
		c5.7,12.3,53.5,53.4,71.6,61.7l3.3,3.9v-9.6h0.1c0-1.4,0-2.7,0-4C-294.5,1125.8-294.7,1125.8-294.9,1125.8z"/>
	<path class="st2" d="M-369,1073.7c-1.1,0-2.2-0.2-3.2-0.4c-0.3-0.1-0.6-0.1-0.8-0.1l-2.2-0.4l-0.2-2.2c-0.3-3.4,0.6-6.4,1.5-9.3
		c0.4-1.2,0.7-2.4,1-3.6v-0.1v-0.1c0.2-0.6,0.4-1.3,0.5-2c0.5-2,1-4.3,2.5-6.3l0.1-0.1l0.1-0.1c1.3-1.5,3.2-2.3,5.4-2.3
		c1.1,0,2.2,0.2,3.1,0.3c0.3,0.1,0.7,0.1,1,0.2l2.5,0.3l-0.1,2.6c-0.1,3.7-1.1,7.2-2.1,10.6c-0.4,1.5-0.8,2.9-1.2,4.3v0.1v0.1
		c-0.1,0.4-0.2,0.8-0.3,1.2c-0.5,1.9-1.1,4.4-3.5,6C-365.9,1073.3-367.4,1073.7-369,1073.7z"/>
	<path class="st2" d="M-181.5,1073.7c-1.1,0-2.1-0.2-3-0.4c-0.4-0.1-0.8-0.2-1.2-0.2l-2.7-0.4l0.2-2.7c0.4-5.2,1.9-10.1,3.3-14.9
		c0.4-1.2,0.7-2.4,1.1-3.6c0.9-3.1,3.5-4.9,7.1-4.9c1.2,0,2.6,0.2,4.2,0.6l2.3,0.6l-0.2,2.4c-0.3,3.8-1.2,7.3-2.2,10.7
		c-0.4,1.6-0.9,3-1.2,4.5v0.2l-0.1,0.1c-0.1,0.4-0.2,0.8-0.4,1.1c-0.5,1.8-1.3,4.4-3.7,5.8C-178.8,1073.4-180.1,1073.7-181.5,1073.7
		z"/>
	<path class="st2" d="M-335.7,1060.9c0.9-3.2,1.8-6.5,2.6-9.7l1.1-4.2l2.4,0.3c2,0.2,4.2,0.5,6.4,0.9l1.8,0.3l0.5,1.7
		c1.2,4.3,0.2,8.8-2.6,11.8l-0.1,0.1c-2.5,2.4-5.7,2.4-8.2,2.5c-0.4,0-0.7,0-1,0l-3.9,0.2L-335.7,1060.9z"/>
	<path class="st2" d="M-296.8,1059.4c0.9-3.3,1.8-6.7,2.7-10l0.6-2.3l2.4,0.2c0.9,0.1,1.8,0.2,2.7,0.2c0.9,0.1,4.1,0.4,4.1,0.4
		l0.8,1c2.5,3.2,2.3,7.7-0.7,12.4l-0.1,0.1l-0.1,0.1c-2.6,3.5-6.9,3.5-9.8,3.6h-4.2L-296.8,1059.4z"/>
	<path class="st2" d="M-223.1,1073.4c-0.5,0-0.9,0-1.3,0l-3.5-0.1l0.8-3.4c0.8-3.4,1.8-6.9,2.7-10.3c0.9-3.3,1.8-6.7,2.7-10.1
		l0.6-2.4l9.8,0.8l0.7,1.3l0.2,0.4c0.7,1.2,1.9,3.1,1.1,5.5c-1,4.1-2,8.5-3.6,12.8l-0.1,0.1
		C-214.3,1071.6-217.8,1073.4-223.1,1073.4z"/>
	<path class="st2" d="M-384.3,900.7c23.1-7.5,47.2-11.4,71.3-12.9c9.3-0.9,18.7-0.2,28-0.5c27.3,1,54.6,4.8,80.6,13.4
		c0,17.6,0,35.3,0,52.9c11.3,9,21.5,20.4,25.3,34.7c3,10.6-0.1,22.4-7.3,30.6c-5.4,6.5-12.8,10.9-20.2,14.6
		c11.2,0.2,22.4-0.1,33.6,0.1c6.8,0.3,14.2,2.6,17.9,8.6c3.5,5.1,3.1,11.7,1.3,17.3c-2.2,7.1-3.1,15.1-8.1,20.9
		c-4.5,5.8-12,8.6-19.2,8.6c-19,0.1-38.1,0-57.1,0.1c-1.7-0.2-2.7,1.3-3.7,2.4c-14.4,16.7-32.5,30.2-52.5,39.3
		c-21-9.7-39.7-24-54.6-41.7c-25.4-0.1-50.8,0-76.2-0.1c4-14.9,8.1-29.7,12.1-44.6c-2,0-4,0-6,0c-5.6-4.7-11.2-9.5-16.7-14.2
		c1.2-4.5,2.5-9,3.7-13.5c7,0,14.1,0,21.1-0.1c-4.4-12.5-3.4-26.4,0.9-38.8c4.7-13.4,14.2-24.7,25.9-32.7
		C-384.3,930.6-384.1,915.6-384.3,900.7 M-371.4,907.4l-0.4-0.2c0,10.7,0,21.4,0,32.1c2.8-0.9,5.6-1.8,8.5-2.4
		c1.7-0.5,3.8-0.3,5.2-1.5c11.2-11.1,26.2-17.6,41.5-20.6c-10.8,4.3-20.9,10.8-28.7,19.4c12.1-8.8,26.6-14,41.4-15.3
		c24.9-2.2,50.6,0.1,74,9.1c-17.5-3.1-35.3-5.2-53-3.9c-9,0.9-18.8,2.3-25.8,8.6c-4.7,4.2-6.8,12.5-1.8,17.3c4.7,4.6,11,6.7,17.4,8
		c7.9,1.5,16.2-0.1,22.6-5c1.7-1.3,3.3-2.8,4.6-4.6c2-2.4,3.2-5.4,5-7.9c2.4-3.4,6.5-5.9,10.7-5.4c8.6,1,17,3.5,25,6.7
		c2.8,1.3,5.6,2.7,8.4,4c0.1-12.8,0.1-25.5,0-38.2c-19.6-5.7-39.9-9.1-60.3-10.2C-308.8,895.5-340.9,898.5-371.4,907.4 M-306.6,922
		c-11.5,2.1-22.7,6.8-31.4,14.8c0.9,0.3,2.6,0.8,3.4,1.1c3,0.8,5.9,1.9,8.7,3.1c4.1-9.9,13.9-16,23.8-18.6c2.4-0.7,5.1-0.5,7.3-1.7
		C-298.7,920.6-302.9,920.6-306.6,922 M-253.3,941.6c0.2,0.3,0.5,0.8,0.7,1.1c7.1,2,14.1,4.6,21,7.3c2.4,2.3,5.5,3.7,8.3,5.5
		c10.5,6.8,19.6,16.9,22.7,29.2c0.9,6.7,0.2,13.9-3.3,19.8c-2.4,4.2-7.2,7.3-12.2,6.7c-5.7-0.3-10.1-4.6-13.3-9
		c-1.8,0.8-2.5,2.6-3.4,4.3c-3.7-5.5-5.4-12-5.8-18.5c2-1.8,6.2-2.7,5.4-6.1l0,0c-0.3-4.5-3.6-6.6-7.2-8.3
		c-10-4.4-20.9-6.7-31.8-7.6c-6.5-0.4-13.1-0.9-19.5,0.3h1.2c7.7,0.6,15.5,1.9,22.7,4.8c-5.4,0.1-11.1-0.5-16.2,1.6
		c0.3,1.2,0.2,2.6,1.3,3.3c6.1,5.1,13.9,7.6,21,11.1c6.7,4.9,9.9,13,13.2,20.3c-4.4-2.1-9.3-4.5-14.2-2.6c-3.5,0.6-6.8,3.8-5.6,7.6
		c2,7.1,9.4,10.1,15.8,11.9c-13.7-0.4-26.7-7.6-35.5-17.9c-11.7-13.7-15.4-32.3-27.3-45.8c-7.9-9.2-19.3-15.3-31.4-16.7
		c-10.5-1.8-21.7,0.2-30.5,6.3c9.2-3.8,19.5-5.8,29.2-2.7c11.8,3.4,21,12.3,27.6,22.3c4.9,7.1,8.1,15.1,12.5,22.4
		c2.8,4.8,6.1,9.2,9.2,13.8c-9.7-9.7-15.8-22.1-24.1-32.9c-5.7-7.6-12.8-14.8-22-18c-12.1-4.1-26.5-2.1-36.4,6.2
		c-7.9,6.3-13.6,15.4-14.9,25.5c7.3-0.8,14.5,0.5,21.4,2.7c-3.1-3.6-6.8-6.6-10.6-9.3c12,3.9,22.3,11.5,31.4,19.9
		c-4.6-7.3-8.8-14.9-11.9-23c11.7,14.6,25,28,41,38c-8.4-9.3-14.8-20.6-16.9-33c12,20,30,37.5,52.7,44.6c10.6,2.8,21.6,4.8,32.6,4.9
		c17,1,35.3-1,49.8-10.7c9.1-6.1,15.4-16.1,16.6-26.9c0-4.6-0.2-9.3-1.8-13.7c-3.4-10.7-12.1-18.9-21.6-24.3
		c-7.7-4.3-15.7-8-23.9-11.1C-242.4,942.9-247.8,941.1-253.3,941.6 M-277.4,987.9c2.3,2,4.4,4.3,7.1,5.8c2.2,0.4,4.3,0,6.5-0.2
		C-268.4,991.7-273.1,990.3-277.4,987.9 M-232.4,992.9c2.4,1.4,3.6-0.6,4.2-2.5C-229.7,991-231.1,991.9-232.4,992.9 M-399.8,1016.9
		c5.9,0.1,11.8,0.1,17.7,0.1c-0.4-2.7-0.7-5.4-1.1-8.1C-389.3,1009.8-395.1,1012.7-399.8,1016.9 M-425.6,1024.2
		c-0.1,0.5-0.5,1.4-0.6,1.9c3.4,3,6.8,6.1,10.5,8.8c4.6,0.2,9.1,0,13.7,0.1c-1.3,5-2.7,10.1-4.1,15.1c-2.3,8.7-4.8,17.4-7.1,26.2
		c-0.3,1.1-0.7,2.3-1,3.4c4.8,0,9.6,0,14.3,0c4.1-14.9,8.1-29.8,12.2-44.8c22,0,43.9,0.1,65.9,0c0.1-0.5,0.4-1.6,0.5-2.1
		c-3.5-2.9-6.9-5.9-10.4-8.8C-363,1024.2-394.3,1024-425.6,1024.2 M-384.6,1040.8c-0.2,0.5-0.5,1.6-0.7,2.2c2,1.8,4.2,3.4,6.1,5.3
		c-0.2,0.5-0.6,1.4-0.8,1.9c-1.8,3.9-2.4,8.2-3.7,12.3c-0.9,3.5-2.4,7.3-1.1,10.9c2.5,5,8.5,7,13.8,6.9c5.9,0.3,12.3-2,15.8-6.9
		c3.2-4.4,3.7-9.9,5.4-15c1-4,2.9-8.7,0.4-12.6c-3.1-4.7-9.4-6-14.7-5.6C-370.9,1041.3-377.8,1040.8-384.6,1040.8 M-346.6,1040.9
		c-1.6,4.3,6.9,4.8,4.5,9.2c-2.4,8.7-4.8,17.5-7.1,26.2c-0.3,1.1-0.6,2.2-0.9,3.4c4.1,0,8.2,0,12.4,0.1c0.8-3,1.6-5.9,2.4-8.9
		c0.7,0,2,0,2.7,0c0.2,1.8,0.5,3.6,0.8,5.4c0.2,1.1,0.3,2.3,0.5,3.5c4.4,0,8.9,0,13.3,0c-0.9-3.5-1.8-7.1-2.7-10.6
		c3.8-1.9,6.9-5.3,8.3-9.3c1.6-4.2,3.2-9.3,0.5-13.4c-2.5-4.1-7.6-5.4-12.1-5.5C-331.6,1040.8-339.1,1040.8-346.6,1040.9
		 M-307.7,1041c-0.3,0.5-0.8,1.4-1.1,1.8c1.9,1.7,3.7,3.3,5.6,4.9c-0.2,0.7-0.5,2-0.6,2.7c-2.3,8.7-4.8,17.3-7,26
		c-0.3,0.9-0.8,2.6-1,3.4c4.1,0,8.3,0,12.4,0.1c0.9-2.7,1.2-5.7,2.4-8.2c3.9-0.8,8.1,0.3,11.9-1.1c5.3-1.5,9.5-5.9,11.1-11.1
		c1.4-4.1,2.9-8.9,0.5-12.8c-2.5-4.4-7.9-5.6-12.6-5.6C-293.2,1040.9-300.4,1040.7-307.7,1041 M-269.6,1040.9
		c-0.1,0.5-0.3,1.6-0.4,2.1c1.8,1.5,3.5,3,5.3,4.5c-0.1,0.7-0.4,2-0.6,2.7c-2.4,8.7-4.7,17.3-7,26c-0.3,1.2-0.7,2.3-1,3.5
		c9.2,0,18.4,0,27.5,0c0.9-3.1,1.7-6.3,2.5-9.4c-0.9,0-2.7,0-3.7,0c-3.8,0-7.7,0-11.5,0c0.5-1.9,1-3.7,1.6-5.6c3.9,0,7.8,0,11.6,0
		c2.3-2.6,5.4-4.8,5.9-8.5c-1.2,0-2.5,0-3.7,0c-3.8,0-7.7,0-11.5,0c0.5-2,1.1-4,1.6-5.9c5.1,0,10.2,0,15.3,0
		c0.1-0.5,0.2-1.6,0.3-2.1c-2.6-2.5-5.4-4.8-8.3-7.1C-253.6,1040.6-261.6,1041-269.6,1040.9 M-235.7,1040.9c-1.5,4.3,7,4.8,4.5,9.3
		c-2.4,8.7-4.7,17.4-7.1,26.1c-0.3,1.1-0.6,2.3-0.8,3.5c6.1,0,12.1,0,18.1,0c5.3,0,10.8-1.8,14.2-6c3.5-4,4.4-9.4,5.8-14.4
		c1.1-3.8,2.6-8.1,0.8-11.9c-2.1-4.6-7.4-6.4-12.2-6.5C-220.1,1040.8-227.9,1040.9-235.7,1040.9 M-197.3,1040.9
		c-0.1,0.5-0.4,1.6-0.6,2.2c2.1,1.8,4.1,3.5,6.2,5.3c-0.3,0.5-0.8,1.4-1.1,1.9c-2,7.2-4.8,14.3-5.2,21.8c1.4,3.5,4.2,6.3,7.9,7.3
		c7,2,15.4,1.1,20.8-4.2c4.2-4,5-10.1,6.5-15.4c0.9-4.2,3.3-8.7,1.3-12.9c-2.8-5.6-9.8-6.9-15.5-6.5
		C-183.7,1041.3-190.5,1040.7-197.3,1040.9 M-334.2,1089.5c11.3,12.6,24.9,23.2,40,30.9c15.1-7.8,28.8-18.3,40-31.1
		c-3.9-0.2-7.9-0.1-11.8,0.1c-18.8-0.4-37.6-0.1-56.4-0.2C-326.3,1089.2-330.3,1089.2-334.2,1089.5z"/>
	<path class="st2" d="M-367.6,1050.9c1.8-2,4.7-1.1,7-0.9c-0.1,5-2.1,9.6-3.2,14.3c-0.6,2-0.8,4.4-2.7,5.8c-1.8,1.4-4.2,0.6-6.2,0.3
		c-0.3-4.2,1.5-8.1,2.4-12.1C-369.4,1055.8-369.2,1053.1-367.6,1050.9z"/>
	<path class="st2" d="M-181,1052.4c1-3.5,5.2-3,8-2.3c-0.3,5.1-2.2,9.9-3.4,14.8c-0.7,1.9-0.9,4.3-2.8,5.4c-1.9,1.2-4.1,0.3-6.1,0
		C-184.8,1064.2-182.7,1058.3-181,1052.4z"/>
	<path class="st2" d="M-329.8,1050.1c2.1,0.2,4.2,0.5,6.2,0.8c0.9,3.1,0.4,6.6-1.9,9c-2,1.9-4.9,1.6-7.4,1.7
		C-331.8,1057.8-330.8,1053.9-329.8,1050.1z"/>
	<path class="st2" d="M-291.4,1050.1c1.9,0.2,3.7,0.3,5.6,0.5c2.2,2.8,0.8,6.5-0.8,9.2c-1.8,2.5-5.2,2.4-8,2.4
		C-293.6,1058.2-292.4,1054.2-291.4,1050.1z"/>
	<path class="st2" d="M-218.9,1050.1c2,0.2,3.9,0.3,5.9,0.5c0.6,1.1,1.6,2.4,1.1,3.7c-1,4.2-2,8.5-3.5,12.6
		c-1.5,3.5-5.6,3.7-8.9,3.6C-222.6,1063.7-220.6,1056.9-218.9,1050.1z"/>
</g>
<path class="st1" d="M-371.4,907.4c30.5-8.9,62.7-11.9,94.4-10.1c20.4,1.1,40.7,4.5,60.3,10.2c-2.6,1.8-6.3,2.6-8.2,5
	c-0.5,9.7,0,19.5-0.2,29.2c-8-3.3-16.4-5.7-25-6.7c-4.3-0.5-8.3,2-10.7,5.4c-1.8,2.6-3,5.5-5,7.9c-1.1,1.4-2.3,2.6-3.6,3.7
	c-6.5,5.5-15.4,7.5-23.8,5.8c-6.3-1.3-12.6-3.4-17.3-8c-5-4.8-2.9-13.1,1.8-17.3c7-6.2,16.8-7.7,25.8-8.6c17.8-1.3,35.6,0.9,53,3.9
	c-23.4-9-49.1-11.3-74-9.1c-14.8,1.3-29.4,6.5-41.4,15.3c7.9-8.6,17.9-15.2,28.7-19.4c-15.3,3-30.3,9.5-41.5,20.6
	c-1.4,1.2-3.5,1-5.2,1.5c-0.1-8.3,0.1-16.6-0.2-25C-366.2,910.5-368.8,909-371.4,907.4z"/>
<path class="st1" d="M-390.8,897.3c2.2,1.1,4.4,2.3,6.5,3.4c0.2,14.9,0,29.8,0.1,44.8c-11.6,8-21.2,19.3-25.9,32.7
	c-4.3,12.4-5.3,26.3-0.9,38.8c-7,0.1-14.1,0-21.1,0.1c-1.2,4.5-2.4,9-3.7,13.5c5.6,4.7,11.1,9.5,16.7,14.2c2,0,4,0,6,0
	c-4,14.8-8.1,29.7-12.1,44.6c25.4,0.1,50.8,0,76.2,0.1c14.9,17.7,33.6,32.1,54.6,41.7c0,2.8,0.1,5.6,0.3,8.4h-0.4
	c-18.7-8.5-36.2-20.1-50.5-35c-2.6-2.2-4.5-5.3-7.3-7.3c-24.2-0.4-48.5,0-72.7-0.2c-2.9,0-5.7,0.1-8.5,0.4c3.7-15,8-30,12.1-44.9
	c-7.3-6-14.4-12.2-21.6-18.4v-0.2c2.1-7.4,3.9-14.8,6.1-22.1c5.8,0,11.5,0,17.3,0c-1.4-10.3-0.7-21,2.4-31
	c4.2-15,14.1-27.9,26.5-37.2C-390.8,928.2-390.8,912.7-390.8,897.3z"/>
<path class="st1" d="M-399.8,1016.9c4.6-4.2,10.4-7.1,16.6-8c0.3,2.7,0.7,5.4,1.1,8.1C-388,1016.9-393.9,1017-399.8,1016.9z"/>
<path class="st1" d="M-322.4,1089.3c18.8,0.1,37.6-0.3,56.4,0.2c-8.3,8.4-18,15.5-28.3,21.4C-304.4,1104.8-314.4,1098-322.4,1089.3z
	"/>
<path class="st0" d="M-204.4,900.8c2.1-1.1,4.3-2.3,6.4-3.4c0.1,18.2,0,36.4,0,54.6c8.3,6.9,15.8,15.1,20.7,24.8
	c4.6,8.7,7.1,18.9,5.1,28.6c-1.4,8.9-6.5,16.6-12.5,23.1c9.6,0,20.2-0.6,28.5,5.1c6.7,4.2,10.3,12.1,10.5,19.8
	c-0.3,4.1-1.6,8-2.5,12c-1.8,6.7-3.2,13.9-7.6,19.5c-5.5,7.7-14.9,12.1-24.3,12.2c-17.7-0.1-35.3,0-53-0.1c-1.7,0-3.8-0.1-4.9,1.5
	c-11.7,13.5-25.9,24.7-41.4,33.6c-4.6,2.7-9.6,4.6-14.1,7.4h-0.8c0.1-2.8,0-5.6,0-8.4c20.1-9.2,38.1-22.6,52.5-39.3
	c1-1.1,2-2.6,3.7-2.4c19-0.1,38.1,0,57.1-0.1c7.2,0,14.7-2.8,19.2-8.6c5-5.9,5.9-13.8,8.1-20.9c1.8-5.6,2.1-12.2-1.3-17.3
	c-3.8-6-11.2-8.4-17.9-8.6c-11.2-0.2-22.4,0.1-33.6-0.1c7.5-3.7,14.8-8.1,20.2-14.6c7.1-8.3,10.3-20,7.3-30.6
	c-3.8-14.3-14.1-25.7-25.3-34.7C-204.4,936.1-204.4,918.4-204.4,900.8z"/>
<path class="st0" d="M-371.8,907.2l0.4,0.2c2.6,1.5,5.3,3,8,4.5c0.3,8.3,0,16.6,0.2,25c-2.9,0.6-5.7,1.5-8.5,2.4
	C-371.9,928.6-371.9,917.9-371.8,907.2z"/>
<path class="st0" d="M-338,936.8c8.7-7.9,19.9-12.7,31.4-14.8c-5.7,3-12.2,4.5-17.6,8.2c-3.8,2.1-6.3,5.9-10.4,7.7
	C-335.4,937.6-337.1,937-338,936.8z"/>
<path class="st0" d="M-253.3,941.6c5.5-0.6,10.8,1.3,15.9,3.1c8.2,3.1,16.2,6.9,23.9,11.1c9.6,5.4,18.2,13.6,21.6,24.3
	c1.6,4.4,1.8,9.1,1.8,13.7c-0.9-5.9-2-12-5.1-17.2c-5-8.6-12.9-14.9-21.4-19.9c-4.8-2.7-9.6-5.5-15-6.7c-6.9-2.8-13.9-5.3-21-7.3
	C-252.7,942.4-253.1,941.9-253.3,941.6z"/>
<path class="st0" d="M-381.1,961.3c10-8.2,24.3-10.2,36.4-6.2c9.2,3.2,16.2,10.4,22,18c8.2,10.8,14.4,23.2,24.1,32.9
	c6.2,6.5,12.5,13.1,20.5,17.5c6.7,4,14.3,6,21.7,8c-11-0.1-22-2.1-32.6-4.9c-22.7-7-40.7-24.5-52.7-44.6c2,12.5,8.5,23.8,16.9,33
	c-15.9-9.9-29.3-23.4-41-38c3.1,8.1,7.3,15.7,11.9,23c-9.1-8.4-19.4-16.1-31.4-19.9c3.9,2.7,7.6,5.7,10.6,9.3
	c-6.9-2.1-14.1-3.5-21.4-2.7C-394.7,976.7-388.9,967.6-381.1,961.3z"/>
<path class="st0" d="M-291.6,966.3c6.4-1.2,13-0.7,19.5-0.3c10.9,1,21.8,3.2,31.8,7.6c3.5,1.7,6.7,3.8,7.1,8.3c0,0-5.4,1.2-8.2,0.8
	c-3.3-3-5.9-6.9-10-9c-11.8-6.5-25.7-8.3-39-7.6L-291.6,966.3z"/>
<path class="st0" d="M-334.2,1089.2c4-0.1,8.1-0.1,11.9-0.1c8,8.8,17.9,15.7,28.1,21.6c0,3.2,0,6.4,0,9.6
	C-309.2,1112.7-322.9,1101.8-334.2,1089.2z"/>
<path class="st3" d="M-216.8,907.5c0.1,12.7,0.1,25.5,0,38.2c-2.8-1.3-5.6-2.7-8.4-4c0.2-9.7-0.3-19.5,0.2-29.2
	C-223.1,910.1-219.4,909.3-216.8,907.5z"/>
<path class="st3" d="M-306.6,922c3.8-1.4,7.9-1.4,11.9-1.4c-2.2,1.2-4.9,1-7.3,1.7c-10,2.6-19.8,8.8-23.8,18.6
	c-2.8-1.2-5.7-2.3-8.7-3.1c4-1.8,6.6-5.6,10.4-7.7C-318.8,926.5-312.3,925-306.6,922z"/>
<path class="st1" d="M-371.4,907.4c30.5-8.9,62.7-11.9,94.4-10.1c20.4,1.1,40.7,4.5,60.3,10.2c-2.6,1.8-6.3,2.6-8.2,5
	c-0.5,9.7,0,19.5-0.2,29.2c-8-3.3-16.4-5.7-25-6.7c-4.3-0.5-8.3,2-10.7,5.4c-1.8,2.6-3,5.5-5,7.9c-1.1,1.4-2.3,2.6-3.6,3.7
	c-6.5,5.5-15.4,7.5-23.8,5.8c-6.3-1.3-12.6-3.4-17.3-8c-5-4.8-2.9-13.1,1.8-17.3c7-6.2,16.8-7.7,25.8-8.6c17.8-1.3,35.6,0.9,53,3.9
	c-23.4-9-49.1-11.3-74-9.1c-14.8,1.3-29.4,6.5-41.4,15.3c7.9-8.6,17.9-15.2,28.7-19.4c-15.3,3-30.3,9.5-41.5,20.6
	c-1.4,1.2-3.5,1-5.2,1.5c-0.1-8.3,0.1-16.6-0.2-25C-366.2,910.5-368.8,909-371.4,907.4z"/>
<path class="st0" d="M-371.8,907.2l0.4,0.2c2.6,1.5,5.3,3,8,4.5c0.3,8.3,0,16.6,0.2,25c-2.9,0.6-5.7,1.5-8.5,2.4
	C-371.9,928.6-371.9,917.9-371.8,907.2z"/>
<path class="st0" d="M-338,936.8c8.7-7.9,19.9-12.7,31.4-14.8c-5.7,3-12.2,4.5-17.6,8.2c-3.8,2.1-6.3,5.9-10.4,7.7
	C-335.4,937.6-337.1,937-338,936.8z"/>
<path class="st3" d="M-216.8,907.5c0.1,12.7,0.1,25.5,0,38.2c-2.8-1.3-5.6-2.7-8.4-4c0.2-9.7-0.3-19.5,0.2-29.2
	C-223.1,910.1-219.4,909.3-216.8,907.5z"/>
<path class="st3" d="M-306.6,922c3.8-1.4,7.9-1.4,11.9-1.4c-2.2,1.2-4.9,1-7.3,1.7c-10,2.6-19.8,8.8-23.8,18.6
	c-2.8-1.2-5.7-2.3-8.7-3.1c4-1.8,6.6-5.6,10.4-7.7C-318.8,926.5-312.3,925-306.6,922z"/>
<path class="st3" d="M-377.2,950.1c8.8-6.1,20-8.1,30.5-6.3c12.1,1.4,23.5,7.5,31.4,16.7c11.9,13.6,15.7,32.2,27.3,45.9
	c8.8,10.3,21.8,17.5,35.5,17.9c-6.4-1.8-13.9-4.8-15.8-11.9c-1.2-3.8,2.2-7,5.6-7.6c4.9-1.8,9.9,0.5,14.2,2.6
	c-3.3-7.3-6.5-15.4-13.2-20.3c-7.1-3.5-14.8-6-21-11.1c-1.1-0.8-1-2.2-1.3-3.3c5.1-2.1,10.8-1.5,16.2-1.6c-7.2-2.9-15-4.2-22.7-4.8
	c13.3-0.7,27.2,1.1,39,7.6c4.1,2.1,6.7,6,10,9c2.8,0.3,5.6-0.5,8.3-0.8c0.8,3.4-3.4,4.3-5.4,6.1c0.4,6.5,2.1,13,5.8,18.5
	c0.8-1.6,1.6-3.5,3.4-4.3c3.2,4.4,7.6,8.6,13.3,9c5,0.6,9.8-2.5,12.2-6.7c3.5-5.9,4.2-13.1,3.3-19.8c-3.1-12.4-12.2-22.4-22.7-29.2
	c-2.8-1.9-5.9-3.2-8.3-5.5c5.4,1.3,10.3,4,15,6.7c8.4,4.9,16.4,11.3,21.4,19.9c3.1,5.2,4.2,11.3,5.1,17.2
	c-1.2,10.9-7.5,20.9-16.6,26.9c-14.4,9.6-32.7,11.6-49.7,10.6c-7.5-2-15.1-3.9-21.7-8c-7.9-4.4-14.3-11-20.5-17.6
	c-3.1-4.6-6.4-9-9.2-13.8c-4.4-7.4-7.7-15.4-12.5-22.4c-6.7-9.9-15.9-18.9-27.6-22.3C-357.6,944.4-368,946.3-377.2,950.1z"/>
<path class="st3" d="M-266,1089.4c3.9-0.2,7.8-0.3,11.8-0.1c-11.2,12.8-24.9,23.3-40,31.1c0-3.2,0-6.4,0-9.6
	C-283.9,1105-274.3,1097.9-266,1089.4z"/>
<g id="_x23_fffefeff">
	<path class="st4" d="M-277.4,987.9c4.3,2.4,9,3.8,13.6,5.6c-2.2,0.2-4.3,0.6-6.5,0.2C-273,992.2-275.1,989.9-277.4,987.9z"/>
	<path class="st4" d="M-232.4,992.9c1.3-1,2.7-1.8,4.2-2.5C-228.8,992.3-230,994.2-232.4,992.9z"/>
	<path class="st4" d="M-425.6,1024.2c31.3-0.2,62.6,0.1,93.9-0.1c3.5,2.9,6.9,5.9,10.4,8.8c-0.1,0.5-0.4,1.6-0.5,2.1
		c-22,0.1-43.9,0-65.9,0c-4.1,14.9-8.1,29.9-12.2,44.8c-4.8,0-9.5,0-14.3,0c0.3-1.1,0.7-2.3,1-3.4c3.4,0,6.8,0,10.2,0
		c2.6-8.5,4.9-17.1,7-25.8c-3.4-0.2-6.8-0.3-10.2-0.4c1.4-5,2.8-10.1,4.1-15.1c-4.6-0.1-9.1,0.1-13.7-0.1c-3.7-2.7-7.1-5.8-10.5-8.8
		C-426.1,1025.6-425.8,1024.6-425.6,1024.2z"/>
	<path class="st4" d="M-384.8,1040.8c6.9-0.1,13.8,0.4,20.6-0.7c5.3-0.3,11.5,0.9,14.7,5.6c2.5,3.9,0.6,8.5-0.4,12.6
		c-1.6,5-2.1,10.6-5.4,15c-3.6,4.9-9.9,7.2-15.8,6.9c-5.3,0.1-11.3-1.9-13.8-6.9c4.6,2.2,9.6,4.2,14.8,3.4c5.9-0.3,11.7-4,13.7-9.6
		c1.9-5.5,3.2-11.1,4.6-16.7c-3-0.1-7.8,1.6-8.7-0.3c-2.3-0.3-5.4-1.3-7.2,0.8c-1.6,2.2-1.8,5-2.6,7.5c-0.9,4-2.8,7.9-2.4,12.1
		c-0.8-0.2-3.1,0.3-3.8,0.1c-1-6.7,3.4-13.6,4.4-20.1c-2.6-0.1-5.3-0.2-7.9-0.3c0.2-0.5,0.6-1.4,0.8-1.9c-1.9-1.9-4.1-3.5-6.1-5.3
		C-385.3,1042.5-385,1041.4-384.8,1040.8z"/>
	<path class="st4" d="M-346.6,1040.9c7.5-0.1,15-0.1,22.5,0c4.5,0.1,9.6,1.4,12.1,5.5c2.7,4.1,1.1,9.2-0.5,13.4
		c-1.4,4-4.5,7.4-8.3,9.3c0.9,3.5,1.8,7.1,2.7,10.6c-4.4,0-8.9,0-13.3,0c-0.2-1.1-0.3-2.3-0.5-3.5c3.3,0,6.6,0,9.9,0
		c-0.8-3.2-1.6-6.4-2.4-9.5c2.4-1.7,5.2-3.2,6.9-5.7c2.1-3.1,2.9-6.9,3.6-10.6c-3.3-0.2-4.2,0.3-7.4,0.8c-2.1-0.3-6.4-0.9-8.5-1.1
		c-1,3.9-2,7.7-3.1,11.6c-1.3,0-2.5-0.1-3.8-0.1c1-3.7,2-7.4,2.8-11.1c-2.7-0.1-5.5-0.3-8.2-0.3
		C-339.7,1045.7-348.2,1045.2-346.6,1040.9z"/>
	<path class="st4" d="M-307.7,1041c7.2-0.2,14.5-0.1,21.7-0.1c4.7,0,10.1,1.3,12.6,5.6c2.4,4,0.9,8.8-0.5,12.8
		c-1.6,5.2-5.8,9.6-11.1,11.1c-3.8,1.5-8.1,0.3-11.9,1.1c-1.2,2.5-1.5,5.5-2.4,8.2c-4.1-0.1-8.3-0.1-12.4-0.1c0.3-0.9,0.8-2.6,1-3.4
		c2.8,0,5.6,0,8.5-0.1c0.8-2.7,1.5-5.4,2.3-8.1c5.9-0.2,12.5,0.5,17.5-3.3c4.6-3.4,6.2-9.2,7-14.6c-3.4,0-5.2,0.7-8.6,0.8
		c-1.9-0.2-5.4-0.7-7.3-0.9c-1,4.1-2.6,9.5-3.7,13.5c-0.9,0-2.3-1.4-3.2-1.5c0.9-4,1.9-7.9,2.9-11.8c-2.8,0-5.6-0.1-8.3-0.1
		c0.1-0.7,0.5-2,0.6-2.7c-1.9-1.6-3.8-3.2-5.6-4.9C-308.5,1042.3-307.9,1041.4-307.7,1041z"/>
	<path class="st4" d="M-269.6,1040.9c7.9,0.1,15.9-0.3,23.8,0.2c2.8,2.3,5.6,4.6,8.3,7.1c-0.1,0.5-0.2,1.6-0.3,2.1
		c-5.1,0-10.2,0-15.3,0c-0.5,2-1.1,4-1.6,5.9c-1.2,0-2.5,0-3.7,0c0.4-1.9,0.8-3.9,1.2-5.8c-2.7-0.1-5.4-0.1-8.1-0.1
		c0.1-0.7,0.4-2,0.6-2.7c-1.8-1.5-3.5-3-5.3-4.5C-269.9,1042.5-269.7,1041.4-269.6,1040.9z"/>
	<path class="st4" d="M-235.7,1040.9c7.8,0,15.6-0.1,23.3,0c4.7,0.1,10,2,12.2,6.5c1.9,3.8,0.3,8.1-0.8,11.9
		c-1.4,5-2.3,10.4-5.8,14.4c-3.4,4.2-9,6-14.2,6c-6,0.1-12.1,0-18.1,0c0.3-1.2,0.6-2.3,0.8-3.5c6.1-0.1,12.1,0.3,18.2-0.2
		c5.2-0.4,10.3-3.5,12.4-8.3c2.5-5.6,3.7-11.6,5-17.5c-3.5,0-7.2,2.1-10.4,0.4c-2-0.2-3.9-0.3-5.9-0.5c-1.7,6.8-3.7,13.5-5.4,20.4
		c-1.3,0-3.5,1.5-3.8-0.2c1.5-6.7,3.6-13.2,5.1-19.9c-2.8-0.1-5.5-0.2-8.2-0.2C-228.7,1045.7-237.2,1045.2-235.7,1040.9z"/>
	<path class="st4" d="M-197.3,1040.9c6.8-0.1,13.6,0.5,20.3-0.6c5.6-0.4,12.7,1,15.5,6.5c2,4.2-0.4,8.7-1.3,12.9
		c-1.5,5.4-2.3,11.4-6.5,15.4c-5.3,5.4-13.8,6.2-20.8,4.2c-3.6-1-6.5-3.8-7.9-7.3c7.6,6.9,21.5,6.8,27.6-2c3.4-6,4.1-13.1,6.1-19.7
		c-2.9,0-5.9,2.2-8.8-0.3c-2.8-0.7-7-1.2-8,2.3c-1.7,5.9-3.8,11.8-4.3,17.9c-0.5,1.1-3,1.8-2.5-0.5c-0.4-1.3-1.1-2.6-0.7-4
		c1-5.3,2.8-10.3,4-15.5c-2.7-0.1-5.5-0.1-8.2-0.1c0.3-0.5,0.8-1.4,1.1-1.9c-2.1-1.8-4.1-3.6-6.2-5.3
		C-197.7,1042.5-197.4,1041.4-197.3,1040.9z"/>
	<path class="st4" d="M-243.1,1056.2c1.2,0,2.5,0,3.7,0c-0.4,3.7-3.6,5.9-5.9,8.5c-3.9,0-7.8,0-11.6,0c-0.5,1.9-1,3.7-1.6,5.6
		c-1.2,0-2.5,0-3.7,0c0.6-3,1.4-5.9,2.3-8.8c3.9-0.3,7.9,0,11.8-0.4C-246,1059.9-244.7,1057.9-243.1,1056.2z"/>
	<path class="st4" d="M-338.4,1067.7c1.8-0.1,3.6-0.2,5.4-0.3c0.1,1.1,0.2,2.3,0.3,3.5c-0.7,0-2,0-2.7,0c-0.8,3-1.6,5.9-2.4,8.9
		c-4.1-0.1-8.2,0-12.4-0.1c0.3-1.1,0.6-2.2,0.9-3.4c2.8,0,5.5-0.1,8.3-0.1C-339.9,1073.5-339.1,1070.6-338.4,1067.7z"/>
	<path class="st4" d="M-246.9,1070.3c0.9,0,2.7,0,3.7,0c-0.8,3.1-1.6,6.3-2.5,9.4c-9.2,0-18.4,0-27.5,0c0.3-1.2,0.7-2.3,1-3.5
		c7.8,0,15.6,0.1,23.3,0C-248.3,1074.3-247.6,1072.3-246.9,1070.3z"/>
</g>
<g id="_x23_cfdae7ff">
	<path class="st5" d="M-406.2,1050.1c3.4,0.1,6.8,0.2,10.2,0.4c-2.1,8.6-4.4,17.3-7,25.8c-3.4,0-6.8,0.1-10.2,0
		C-410.9,1067.6-408.4,1058.9-406.2,1050.1z"/>
	<path class="st5" d="M-380,1050.2c2.6,0.1,5.3,0.1,7.9,0.3c-1,6.5-4.6,12.6-3.6,19.3c0.8,0.2,2.3,0.5,3,0.7c2,0.3,4.4,1.1,6.2-0.3
		c1.9-1.3,2.1-3.8,2.7-5.8c1.1-4.8,3-9.4,3.2-14.3c2.9,0.3,5.9,0.3,8.9,0.4c-1.4,5.6-2.7,11.3-4.6,16.7c-2,5.7-7.8,9.3-13.7,9.6
		c-5.2,0.8-10.2-1.2-14.8-3.4c-1.3-3.6,0.2-7.4,1.1-10.9C-382.4,1058.4-381.8,1054.1-380,1050.2z"/>
	<path class="st5" d="M-342.1,1050.1c2.7,0.1,5.5,0.2,8.2,0.3c-0.9,3.7-1.8,7.4-2.8,11.1c1.3,0,2.5,0.1,3.8,0.1
		c2.5-0.1,5.4,0.1,7.4-1.7c2.3-2.4,2.8-5.9,1.9-9c3.2-0.5,6.5-0.7,9.7-0.5c-0.7,3.6-1.5,7.4-3.6,10.6c-1.7,2.5-4.4,4.1-6.9,5.7
		c0.8,3.2,1.6,6.4,2.4,9.5c-3.3,0.1-6.6,0.1-9.9,0c-0.3-1.8-0.6-3.6-0.8-5.4c-0.1-1.1-0.2-2.3-0.3-3.5c-1.8,0.1-3.6,0.2-5.4,0.3
		c-0.7,2.9-1.5,5.8-2.5,8.6c-2.8,0-5.5,0-8.3,0.1C-346.9,1067.6-344.5,1058.9-342.1,1050.1z"/>
	<path class="st5" d="M-303.8,1050.3c2.8,0,5.6,0,8.3,0.1c-1,3.9-2,7.9-2.9,11.8c0.9,0,2.7,0,3.6,0.1c2.8,0,6.2,0.1,8-2.4
		c1.7-2.7,3-6.4,0.8-9.2c3.4-0.1,6.9-0.3,10.3-0.4c-0.8,5.4-2.5,11.2-7,14.6c-5,3.8-11.6,3.1-17.5,3.3c-0.8,2.7-1.5,5.4-2.3,8.1
		c-2.8,0-5.6,0.1-8.5,0.1C-308.5,1067.6-306.1,1059-303.8,1050.3z"/>
	<path class="st5" d="M-265.3,1050.2c2.7,0,5.4,0.1,8.1,0.1c-0.4,1.9-0.8,3.9-1.2,5.8c1.2,0,2.5,0,3.7,0c3.8,0,7.7,0,11.5,0
		c-1.6,1.7-2.9,3.7-4.9,4.9c-3.9,0.4-7.9,0.1-11.8,0.4c-0.9,2.9-1.7,5.8-2.3,8.8c1.2,0,2.5,0,3.7,0c3.8,0,7.7,0,11.5,0
		c-0.7,2-1.4,4-2,6c-7.8,0-15.6,0-23.3,0C-270,1067.5-267.7,1058.9-265.3,1050.2z"/>
	<path class="st5" d="M-231.2,1050.2c2.7,0,5.5,0.1,8.2,0.2c-1.5,6.7-3.6,13.2-5.1,19.9c1.3,0.1,2.5,0.2,3.8,0.2
		c3.2,0.1,7.4-0.1,8.9-3.6c1.5-4.1,2.5-8.3,3.5-12.6c0.5-1.4-0.4-2.6-1.1-3.7c3.5-0.1,6.9-0.4,10.4-0.4c-1.4,5.9-2.5,11.9-5,17.5
		c-2.2,4.9-7.2,8-12.4,8.3c-6.1,0.4-12.1,0.1-18.2,0.2C-235.9,1067.6-233.6,1058.9-231.2,1050.2z"/>
	<path class="st5" d="M-192.7,1050.3c2.7,0,5.5,0,8.2,0.1c-1.2,5.2-3,10.3-4,15.5c-0.4,1.4,0.3,2.7,0.7,4c0.6,0.1,1.9,0.4,2.5,0.5
		c2,0.3,4.2,1.1,6.1,0c1.9-1.1,2.2-3.5,2.8-5.4c1.2-4.9,3-9.7,3.4-14.8c2.9,0.3,5.9,0.2,8.8,0.3c-2,6.6-2.7,13.6-6.1,19.7
		c-6.1,8.8-20,9-27.6,2C-197.5,1064.6-194.8,1057.4-192.7,1050.3z"/>
</g>
<path class="st6" d="M-384.3,900.7l-6.5-3.4c22.1-7.2,55.4-15.3,96.4-15.3c41,0,74.2,8.1,96.4,15.4c-2.1,1.1-4.3,2.3-6.4,3.4
	c-21.6-6.4-52.5-13-90-13C-331.8,887.8-362.7,894.4-384.3,900.7z"/>
</svg>
