<?xml version="1.0" encoding="utf-8"?>
<!-- Generator: Adobe Illustrator 19.0.0, SVG Export Plug-In . SVG Version: 6.00 Build 0)  -->
<svg version="1.1" id="Layer_1" xmlns="http://www.w3.org/2000/svg" xmlns:xlink="http://www.w3.org/1999/xlink" x="0px" y="0px"
	 viewBox="-86.8 284.1 381 275.9" style="enable-background:new -86.8 284.1 381 275.9;" xml:space="preserve">
<style type="text/css">
	.st0{fill:#ED1C24;}
	.st1{fill:#FFFFFF;}
</style>
<rect x="-6.5" y="473.5" transform="matrix(0.9418 0.3362 -0.3362 0.9418 161.7735 19.6921)" width="61" height="7.1"/>
<path class="st0" d="M261.8,384.4c2.5-2.8,4.2-6.6,7.1-8.9c9.5,12.8,16.3,28.2,16.8,44.4c0.8,17.8-5.5,36-16.7,49.7
	c-2.5-3.1-4.7-6.5-7.2-9.6c0-5,0-10,0.2-15.1c-2,2.5-2.8,5.7-4.4,8.3c-6.7-10-12.2-20.6-17.8-31.3c5.9-10.8,11.5-21.9,18.4-32.1
	c1.2,2.3,2.1,4.7,3.2,7.1C262.4,392.9,261.6,388.6,261.8,384.4z"/>
<path class="st0" d="M264.8,384.4c2.5-2.8,4.2-6.6,7.1-8.9c9.5,12.8,16.3,28.2,16.8,44.4c0.8,17.8-5.5,36-16.7,49.7
	c-2.5-3.1-4.7-6.5-7.2-9.6c0-5,0-10,0.2-15.1c-2,2.5-2.8,5.7-4.4,8.3c-6.7-10-12.2-20.6-17.8-31.3c5.9-10.8,11.5-21.9,18.4-32.1
	c1.2,2.3,2.1,4.7,3.2,7.1C265.4,392.9,264.6,388.6,264.8,384.4z"/>
<polygon points="149.6,446.7 122.5,454 113.8,446.7 149.6,438.6 "/>
<path d="M-25,397.5c-1.7,5.4-3.3,12.3-4,20.4c-0.7,7.8-0.3,14.6,0.3,20.1c2.3,3.9,5.6,8.6,10,13.4c4.5,4.9,9,8.5,12.7,11.2
	c-5.6-11.9-11.1-26.4-15.1-43.3C-22.8,411.6-24.1,404.3-25,397.5z"/>
<polyline class="st0" points="44.6,402.2 34.6,403.8 34.6,434.3 44.6,434.3 "/>
<polyline class="st0" points="100.4,381.8 109.7,383.4 113.8,405.7 103.2,405.7 "/>
<g id="_x23_ffffffff">
	<path class="st1" d="M71.9,301.8c14.2-2.1,28.5-3.1,42.9-2.6c17.7,1.1,34,10.2,46.4,22.5c18.4,18,30.8,41,42.9,63.5
		c3-5.4,6.6-10.5,10-15.7c3.7-5.1,7.4-10.1,11.7-14.7c-6-4.2-12.8-7.3-19-11.1c8.7,0.3,17.5,0.1,26.2,0.1c9.9,0.1,19.9-0.1,29.8,0.1
		c0.1,13.5,0,27,0,40.5c-0.2,4.2,0.6,8.5-0.3,12.7c-1.1-2.4-2-4.8-3.2-7.1c-2.6-4.8-5.6-9.3-9.1-13.4c-11.3,13.4-19.7,29-27.9,44.4
		c8.2,15.5,16.6,31.1,28,44.6c3.2-3.8,6-7.9,8.5-12.3c1.7-2.7,2.5-5.8,4.4-8.3c-0.3,5-0.2,10-0.2,15.1c-0.1,12.5,0.2,25-0.1,37.4
		c-7.6,0-15.2-0.1-22.8,0c-10.4,0-20.8-0.1-31.1,0.1c0.2-0.3,0.6-0.8,0.8-1.1c5.6-2.6,11.1-5.7,16.1-9.3c-4-4.2-7.5-8.9-11-13.6
		c-3.9-5.3-7.2-11.2-10.9-16.4c-10.8,20.6-22.3,41.2-38,58.5c-13.5,15-32.1,26.7-52.8,27.5c-21.5,0.3-43-2.2-63.8-7.4
		c-28.2-7.1-55.6-19.2-77.9-38c-16.9-14.3-30.6-33.2-36-55c-5.3-21-2.6-43.9,7.4-63.1c8.9-17.5,22.9-31.9,38.8-43.2
		C8.2,317.6,39.8,306.8,71.9,301.8 M28,348c-17.1,7.6-33.3,18.1-45.4,32.5c-7.3,8.8-13.1,19.1-15.4,30.3
		c-2.9,13.3,0.3,27.3,7.1,38.9c10.5,18.1,27.7,31.4,46.1,40.8c28,14,59.6,19.6,90.7,19.5c12.8-0.4,23.7-8.6,31.7-18l0.9-0.1l0.4-1.3
		c16.9-21,28-45.9,40.3-69.7c-9-17.2-17.2-34.9-27.6-51.4l0.3-0.9c-0.2,0.1-0.7,0.2-1,0.2c-3.2-5.7-7.1-11-11.3-16.1
		c-7.7-10.5-19.3-19.8-32.8-20.7C83.3,331.7,54.3,336.5,28,348z"/>
	<path class="st1" d="M67,357.9c11.1-4.4,23.2-5.5,35-6.3c9.1-0.4,19.3,0.4,26.3,6.9c9.3,10.4,16,22.9,21.4,35.7
		c3.9,9,8,18.9,5.5,28.9c-1.7,7.6-9.3,11.6-16.1,13.9c-18.1,6.8-37.8,5.2-56.7,4.3c1.1,5.9,5.2,11.1,10.8,13.4
		c12.4,5.3,26.3,2.8,39.4,3.8c1.3,9.2-1.6,18.1-4.3,26.8c-19.1,2.7-38.9-0.4-57.2-6.4c-6.9-2.1-11.8-8-14.7-14.4
		c-4.2-9.7-7.4-20-8-30.6c-0.5-13.9-0.7-28,2.3-41.8c1.6-6.1,2.7-12.3,4.2-18.4C56.5,367.1,60.5,360.6,67,357.9 M85.9,378.8
		c-3.2,0.9-6.4,3.6-6.6,7.2c0.4,5.6,0.1,11.2,0.4,16.7c0.4,3.6,4.3,5.4,7.5,5.8c10.2,1.3,20.5-0.3,30.7-0.4
		c-0.9-9.2-0.4-19-4.5-27.5c-1-2.4-3.6-4-6.2-3.6C100.1,377.8,92.8,376.6,85.9,378.8z"/>
	<path class="st1" d="M0,385c13-12.2,30.1-19,47.2-23.4c-1.9,5.6-4,11.3-4.5,17.3c-0.6,6.3,1.9,12.7,0.3,19
		c-11.4,0.3-23.4,0.8-33.8,6.1c-5,2.6-9.6,7.1-10.3,13c0.1,7.2,4.4,14.1,10.8,17.3c9.7,5.1,21,5.1,31.7,5.3
		c0.7,12.4,1.5,24.9,5.1,36.8c-10.4-3.4-21.1-6.2-31.2-10.7c-7.2-3.3-14.5-7-19.9-13c-9.3-9.7-13.9-23.5-12.7-36.8
		C-15.1,404-8.8,393.1,0,385z"/>
</g>
<path class="st0" d="M184,323.1c17,5,33.9,11.2,48.9,20.7c-8.7,0-17.5,0.2-26.2-0.1c6.2,3.9,13,6.9,19,11.1
	c-4.3,4.5-8,9.6-11.7,14.7c-1.6-1.8-2.4-4-3.6-6C202.7,349.4,193.9,335.8,184,323.1z"/>
<path class="st0" d="M28,348c26.4-11.5,55.4-16.3,84-15.9c13.5,0.9,25.1,10.1,32.8,20.7c-8.6-7.1-19.8-10.2-30.8-9.6
	c-18.3,1-37.4,1.3-54.2,9.5c-0.2-0.4-0.7-1.3-0.9-1.7c-20.4,4.1-41.1,10-57.9,22.8c-13.6,10-23.8,25.1-26.3,42
	c-1.2,15.4,4.3,31.2,14.9,42.4c6.4,7.2,15.2,11.5,23.8,15.4c14.3,6,29.5,9.7,44.3,14.3c-0.4-1.3-0.8-2.6-1.2-3.9
	c3.2,0.9,6.4,2,9.6,2.9c0.5-0.2,1.4-0.6,1.9-0.8c12.9,4.4,26.4,7,40,7.6c11.6,0.3,23.3-0.5,34.8-1.7c-8.1,9.3-18.9,17.6-31.7,18
	c-31.1,0.1-62.7-5.5-90.7-19.5c-18.4-9.4-35.6-22.6-46.1-40.8c-6.8-11.6-10-25.6-7.1-38.9c2.3-11.3,8.1-21.6,15.4-30.3
	C-5.3,366.1,10.8,355.6,28,348z"/>
<path class="st0" d="M156.1,368.9c0.2-0.2,0.6,0.6,0.7,0.7c10.4,16.5,18.6,34.2,27.6,51.4c-12.3,23.8-23.4,48.7-40.3,69.7
	c2.8-9.4,6.5-18.8,6.3-28.7c0-4-0.9-7.9-1.7-11.7c-10.4-0.9-20.9,0.8-31.2-1.2c12,0,24.1-1.6,35.3-6.1c7.5-2.7,14.7-7.5,18.3-14.8
	c3.7-8.9,2.6-19-0.5-27.9C166.9,389.3,161.9,378.9,156.1,368.9z"/>
<path class="st0" d="M97.1,386c2.7-1.5,6.5-1.1,9.4-0.9c2,4.9,2.3,10.2,2.8,15.4c-4,0.1-8.1,0.3-12-0.6
	C97.3,395.3,97.4,390.7,97.1,386z"/>
<path class="st0" d="M18.4,413.4c5.9-5.6,14.5-6.8,22.2-7.7c-0.5,8.4-0.6,16.7-0.3,25.1c-6.9-0.8-14.5-1.4-20-6.2
	C17.5,421.8,14.8,416.6,18.4,413.4z"/>
<path class="st0" d="M211.7,478.5c0.9-1.7,1.8-3.5,3-5c3.4,4.7,6.9,9.4,11,13.6c-5.1,3.6-10.5,6.7-16.1,9.3
	c-0.2,0.3-0.6,0.8-0.8,1.1c10.4-0.2,20.8-0.1,31.1-0.1c-1,1.5-2.8,2.1-4.2,3.1c-16.4,10.4-34.7,17.4-53.3,22.7
	C193.5,509.3,203.2,494.2,211.7,478.5z"/>
<g id="_x23_000000ff">
	<path d="M-0.4,308.4c36-16.8,75.8-24.5,115.4-24.3c19.2,0,37.5,8.5,51.7,21.1c3.4,2.5,6,6.1,9.3,8.5c19,4.5,37.5,11,54.6,20.4
		c1.3,0.9,2.8,0.7,4.3,0.7c16.7,0.3,33.4,0.1,50.1,0c0.4,0.1,1.2,0.2,1.6,0.2c-0.1,18,0,36-0.1,54c0.8,2.8,2.2,5.3,3.1,8.1
		c6.4,18.2,5.7,38.9-1.9,56.7c-0.5,1.3-1.4,2.6-1.2,4.1c0.1,16.9-0.1,33.8,0.1,50.6c-16.9,0.2-33.8-0.2-50.7,0.2
		c-19.3,11.3-40.5,19-62.3,23.9c-15.5,15.5-36.2,28-58.8,27.2c-34.5,0.8-69-5.5-101.2-17.8c-29.4-11.5-57.4-28.9-77.1-53.9
		c-15.2-19.2-24.4-43.6-23.6-68.2c0.3-27.2,12.7-53.2,31.2-72.7C-40.1,330.7-20.9,318-0.4,308.4 M71.9,301.8
		c-32.1,5-63.7,15.8-90.3,34.6c-15.9,11.3-29.9,25.7-38.8,43.2c-10,19.2-12.7,42.1-7.4,63.1c5.3,21.8,19,40.6,36,55
		c22.3,18.9,49.7,31,77.9,38c20.8,5.2,42.4,7.7,63.8,7.4c20.7-0.7,39.3-12.4,52.8-27.5c15.8-17.3,27.3-37.9,38-58.5
		c3.7,5.3,7,11.1,10.9,16.4c-1.3,1.5-2.1,3.3-3,5c-8.6,15.6-18.2,30.8-29.3,44.7c18.6-5.3,36.9-12.3,53.3-22.7
		c1.4-1,3.2-1.6,4.2-3.1c7.6-0.1,15.2-0.1,22.8,0c0.3-12.4,0-24.9,0.1-37.4c2.5,3.1,4.7,6.5,7.2,9.6c11.2-13.8,17.5-31.9,16.7-49.7
		c-0.5-16.2-7.3-31.6-16.8-44.4c-2.9,2.3-4.6,6-7.1,8.9c0-13.5,0-27,0-40.5c-9.9-0.2-19.9,0-29.8-0.1c-15-9.5-31.9-15.7-48.9-20.7
		c9.8,12.7,18.6,26.3,26.4,40.4c1.2,2,2.1,4.2,3.6,6c-3.5,5.1-7,10.3-10,15.7c-12.1-22.5-24.5-45.4-42.9-63.5
		c-12.4-12.3-28.7-21.5-46.4-22.5C100.4,298.6,86,299.7,71.9,301.8z"/>
	<path d="M59.7,352.7c16.8-8.3,35.9-8.5,54.2-9.5c11-0.6,22.3,2.5,30.8,9.6c4.2,5,8.1,10.3,11.3,16.1c5.8,10,10.8,20.4,14.7,31.3
		c3.1,8.9,4.2,19,0.5,27.9c-3.6,7.3-10.8,12.1-18.3,14.8c-11.2,4.4-23.3,6.1-35.3,6.1c10.3,2,20.8,0.4,31.2,1.2
		c0.8,3.9,1.7,7.8,1.7,11.7c0.2,9.9-3.5,19.3-6.3,28.7l-0.4,1.3l-0.9,0.1c-11.6,1.2-23.2,2-34.8,1.7c-13.6-0.5-27.1-3.2-40-7.6
		c-0.5,0.2-1.4,0.6-1.9,0.8c-3.2-1-6.4-2-9.6-2.9c0.4,1.3,0.8,2.6,1.2,3.9c-14.8-4.6-29.9-8.4-44.3-14.3
		c-8.7-3.8-17.4-8.2-23.8-15.4c-10.6-11.2-16.1-27-14.9-42.4c2.4-16.9,12.7-32,26.3-42C17.7,361,38.4,355.1,58.8,351
		C59.1,351.5,59.5,352.3,59.7,352.7 M67,357.9c-6.5,2.8-10.5,9.3-12.1,15.9c-1.5,6.1-2.7,12.3-4.2,18.4c-3,13.7-2.8,27.8-2.3,41.8
		c0.6,10.6,3.8,20.9,8,30.6c2.8,6.4,7.8,12.3,14.7,14.4c18.3,6,38.1,9.1,57.2,6.4c2.7-8.7,5.6-17.6,4.3-26.8
		c-13.1-1.1-26.9,1.4-39.4-3.8c-5.6-2.2-9.7-7.4-10.8-13.4c18.9,0.9,38.6,2.5,56.7-4.3c6.8-2.3,14.5-6.3,16.1-13.9
		c2.5-10-1.6-19.9-5.5-28.9c-5.5-12.8-12.1-25.3-21.4-35.7c-7-6.5-17.2-7.4-26.3-6.9C90.2,352.4,78.1,353.5,67,357.9 M0,385
		c-8.8,8.1-15.1,19-17.3,30.9c-1.2,13.3,3.4,27.1,12.7,36.8c5.4,6,12.6,9.7,19.9,13c10,4.5,20.7,7.3,31.2,10.7
		c-3.6-11.9-4.4-24.4-5.1-36.8c-10.7-0.2-22-0.3-31.7-5.3C3.2,431-1.1,424.1-1.2,416.9c0.7-5.9,5.3-10.4,10.3-13
		c10.4-5.3,22.4-5.8,33.8-6.1c1.6-6.3-0.9-12.6-0.3-19c0.5-6,2.6-11.6,4.5-17.3C30.1,365.9,13,372.8,0,385 M18.4,413.4
		c-3.6,3.2-0.8,8.4,2,11.2c5.5,4.8,13.1,5.4,20,6.2c-0.3-8.4-0.2-16.7,0.3-25.1C32.9,406.5,24.2,407.8,18.4,413.4z"/>
	<path d="M85.9,378.8c6.9-2.1,14.2-0.9,21.3-1.7c2.6-0.4,5.2,1.1,6.2,3.6c4.1,8.6,3.6,18.3,4.5,27.5c-10.2,0.1-20.5,1.7-30.7,0.4
		c-3.3-0.4-7.1-2.2-7.5-5.8c-0.3-5.6,0-11.2-0.4-16.7C79.4,382.3,82.6,379.7,85.9,378.8 M97.1,386c0.3,4.6,0.2,9.3,0.3,13.9
		c3.9,0.9,8,0.7,12,0.6c-0.5-5.2-0.8-10.5-2.8-15.4C103.6,384.9,99.8,384.5,97.1,386z"/>
	<path d="M222.2,421c8.3-15.4,16.6-31,27.9-44.4c3.5,4.1,6.6,8.6,9.1,13.4c-6.9,10.2-12.5,21.3-18.4,32.1
		c5.5,10.6,11.1,21.3,17.8,31.3c-2.4,4.3-5.3,8.4-8.5,12.3C238.9,452.1,230.4,436.5,222.2,421z"/>
</g>
<path class="st0" d="M262.8,384.4c2.5-2.8,4.2-6.6,7.1-8.9c9.5,12.8,16.3,28.2,16.8,44.4c0.8,17.8-5.5,36-16.7,49.7
	c-2.5-3.1-4.7-6.5-7.2-9.6c0-5,0-10,0.2-15.1c-2,2.5-2.8,5.7-4.4,8.3c-6.7-10-12.2-20.6-17.8-31.3c5.9-10.8,11.5-21.9,18.4-32.1
	c1.2,2.3,2.1,4.7,3.2,7.1C263.4,392.9,262.6,388.6,262.8,384.4z"/>
</svg>
