<?xml version="1.0" encoding="utf-8"?>
<!-- Generator: Adobe Illustrator 21.0.1, SVG Export Plug-In . SVG Version: 6.00 Build 0)  -->
<svg version="1.1" id="Layer_1" xmlns="http://www.w3.org/2000/svg" xmlns:xlink="http://www.w3.org/1999/xlink" x="0px" y="0px"
	 viewBox="0 0 128 126.6" style="enable-background:new 0 0 128 126.6;" xml:space="preserve">
<style type="text/css">
	.st0{fill:#EEBB06;}
	.st1{fill:#343434;}
</style>
<g id="Circle_Logo_4_">
	<circle id="CIRCLE_4_" class="st0" cx="63.7" cy="63.7" r="63.7"/>
	<g id="SNAKE_6_">
		<path class="st1" d="M60,34.4c0.3,0.2,0.3,0.4-0.5,0.1c-7.7-3.3-27.3-9.2-33.7,5.2c-13.3,30.1,63,32.8,62.9,45.6
			c7.7-5.1,6.5-15.6-2.6-21.4C69.3,53.3,30.3,53.3,36.5,41.5c5.7-10.9,23.3-5.2,25.8-4.7c6.2,1.4,12.2,6.6,15.7,8.8
			c3.6,2.1,8.8,4.6,13.1,5.6c1.5,0.2,3,0.4,4.4,0.2c0.6-0.1,1.2-0.2,1.8-0.3c0.3-0.1,0.6-0.2,0.8-0.4c0.3-0.2,0.5-0.4,0.7-0.7
			c0.5-0.7,0-0.6-0.6-0.8C97.6,49,96.1,49,94.1,48c-5.5-3.7-9-9.5-7.5-11.1c1.7-0.6,3.6-1.6,4.3-2.4c1.8-2,2.1-3,3.9-5
			c0.5-0.6,0.9-0.7,1.4-0.6c0.5,0.2,1.2,0.7,2.3,1.2c1.8,1,2.1,4.9,4.3,8c0.6-3-0.6-7.2-1.4-9.5c-0.1-0.3,0.1-0.7,0.5-0.7
			c0.3,0,0.7,0,1.4,0.6c1.9,1.6,3.7,7,3.7,7c0.1-6-3.3-10-5-11.6c-0.2-0.7-0.3-1.5-0.3-2.2c0-0.2,0-0.5-0.1-0.7
			c-0.1-0.4-0.2-0.8-0.4-1.3c-0.7-1.4-4.1-3.1-4.2-3.1c-1.1,0-4.1,1-5.5,2.2c-1.1,0.3-3.3,0.2-4.6,0.9C85.4,20.5,81,23.5,80,24
			c-12.9-0.4-9.9,5-8.8,6.4c0,0-0.1,0-0.1,0c-5.4-3.2-2.1-5.7-2-5.8C55.8,20.4,17.6,13.8,22,46.2C23.7,22.8,46.8,28.8,60,34.4z
			 M98.8,26.2c1.5,1.8,2.9,4.8,3.5,10.6c-1.3-2.5-1.4-4.6-2.8-6.8c-1.1-1.7-2.3-0.8-2.9-2.4c0-0.1,0.4-0.8,0.4-0.9
			C97.5,26.2,98,25.9,98.8,26.2z M96.4,18.9c0.1,0.2,0.3,0.5,0.5,0.8c0.1,0.3-0.2,0.6-0.5,0.5c-0.6-0.2-1.7-0.2-1.9-1.2
			C95.4,18.1,96.2,18.6,96.4,18.9z M90.2,21.8c0.4,0.7-0.1,1.5-1.2,2.2c-2.6,1.5-4.6-0.1-4.6-0.2C84.5,23.8,87.3,20.1,90.2,21.8z
			 M82.9,34c2.1-0.7,3.1-2,4.7-3.6c1-0.9,2.5-1.1,3.2-1.4c-0.9,0.8-2.2,1.6-2.7,2.7c-1.1,1.4-2,2.7-3.8,3.4
			c-1.9,0.4-3.4,0.6-4.8,0.4c0.5,1.2,2.4,4.7,3,5.5c2.2,3.2,6,6,7.1,6.4c0,0,1.4,0.6,1.4,0.6c-5.7-0.9-12.4-8.4-13.4-12.7
			C77,34.9,75,33.9,74,33.1C78.1,34,80.9,34.6,82.9,34z"/>
		<path class="st1" d="M92.2,66.6c0,0,8,6.9,1.2,17.3c-15.5,23.6-46.4,14.9-56,8.1c-13.3-9.5-5.8-9.8,2.9-11.5
			C18.8,78.8,16.7,96.9,29.1,106c15.2,11,34.6,12.9,51.1,8.1c11.1-3.2,22.5-11.6,25.1-22.5C109.4,74.4,92.2,66.6,92.2,66.6z"/>
		<path class="st1" d="M75.7,94.5C66.2,88.2,44.5,79.4,35.8,83C25.6,87.1,60.3,103.2,75.7,94.5z"/>
	</g>
</g>
</svg>
