<?xml version="1.0" encoding="utf-8"?>
<!-- Generator: Adobe Illustrator 19.1.0, SVG Export Plug-In . SVG Version: 6.00 Build 0)  -->
<svg version="1.1" id="Layer_2" xmlns="http://www.w3.org/2000/svg" xmlns:xlink="http://www.w3.org/1999/xlink" x="0px" y="0px"
	 viewBox="-390.4 285.7 46.4 26.5" style="enable-background:new -390.4 285.7 46.4 26.5;" xml:space="preserve">
<style type="text/css">
	.st0{fill:#2D2D2B;}
	.st1{fill:none;}
</style>
<path class="st0" d="M-366.5,301l3.9-13.5l-5.5,3.7l-2.7,9.2h-4.7l3.8-12.9l-5.5,3.7l-2.7,9.2h-4.7l3.8-12.9l-5.5,3.7l-2.9,9.8
	c-0.6,2.3-0.2,3.6,1,3.6h1.9h0.5h4.7h4.4h4.7h1C-368.8,304.6-367.1,302.9-366.5,301z"/>
<path class="st0" d="M-346.6,287.2h-12.2c-1.2,0-2.7,1.5-3.2,3.1l-6.2,20.9l6.4-6.6h8h1.3h0.8c1.6,0,2.9-1.9,3.3-3.3c0,0,0,0,0,0
	l2.9-9.9C-344.6,288.7-345.5,287.2-346.6,287.2z M-352.5,300.3h-8l2.6-8.8h8L-352.5,300.3z"/>
<g>
	<g>
		<polygon class="st1" points="-357.2,302.4 -356.9,301.1 -357.2,301.1 -357.3,301.6 -357.7,301.5 -357.6,301.1 -357.9,301 
			-358.2,302.2 -357.9,302.3 -357.8,301.8 -357.4,301.8 -357.5,302.3 		"/>
		<polygon class="st1" points="-356.4,302.2 -356.8,302.1 -356.5,301.2 -356.8,301.2 -357.2,302.4 -356.5,302.4 		"/>
		<g>
			<polygon class="st1" points="-355.6,301.3 -356.4,301.2 -356.5,301.5 -356.2,301.5 -356.4,302.2 -356.4,302.2 -356.5,302.5 
				-356.5,302.5 -356.5,302.5 -356.2,302.5 -355.9,301.5 -355.7,301.6 			"/>
			<polygon class="st1" points="-354.7,301.4 -355.2,302.1 -355.3,301.3 -355.5,301.3 -355.5,301.3 -355.6,301.6 -355.5,302.6 
				-355.3,302.6 -354.4,301.5 			"/>
		</g>
	</g>
	<g>
		<path class="st1" d="M-354.7,302.6c0,0.1-0.1,0.1-0.2,0.1c-0.1,0-0.1-0.1-0.1-0.1c0-0.1,0.1-0.1,0.2-0.1
			C-354.7,302.5-354.7,302.5-354.7,302.6z"/>
		<path class="st1" d="M-354.1,302.4c0,0.2-0.2,0.3-0.3,0.3c-0.2,0-0.2-0.2-0.2-0.4c0-0.2,0.2-0.3,0.3-0.3
			C-354,302.1-354,302.3-354.1,302.4z M-354.4,302.4c0,0-0.1,0.2,0,0.2c0.1,0,0.1-0.1,0.1-0.2c0,0,0.1-0.2,0-0.2
			C-354.3,302.2-354.4,302.4-354.4,302.4z"/>
		<path class="st1" d="M-353.7,302.1L-353.7,302.1L-353.7,302.1c0,0,0.1,0,0.2,0l-0.1,0.2c0,0,0,0,0,0c-0.1,0-0.1,0.1-0.2,0.2
			l-0.1,0.3l-0.2,0l0.2-0.6L-353.7,302.1z"/>
		<path class="st1" d="M-353.5,302.9c0,0,0,0.1,0,0.1c0.1,0,0.1-0.1,0.1-0.2l0-0.1l0,0c0,0,0,0-0.1,0.1
			C-353.4,302.8-353.5,302.9-353.5,302.9c0-0.1,0-0.1-0.1-0.2c0-0.1,0-0.2,0-0.2c0-0.1,0.1-0.3,0.3-0.3c0.1,0,0.1,0.1,0.1,0.1l0,0
			l0-0.1l0.2,0l-0.2,0.7c-0.1,0.2-0.1,0.3-0.3,0.2c-0.2,0-0.2-0.1-0.2-0.3L-353.5,302.9L-353.5,302.9z M-353.3,302.5
			c0,0,0.1-0.2,0-0.2c-0.1,0-0.1,0.1-0.1,0.2c0,0-0.1,0.2,0,0.2S-353.3,302.6-353.3,302.5z"/>
	</g>
</g>
</svg>
