<?xml version="1.0" encoding="utf-8"?>
<!-- Generator: Adobe Illustrator 21.1.0, SVG Export Plug-In . SVG Version: 6.00 Build 0)  -->
<svg version="1.1" id="Layer_1" xmlns="http://www.w3.org/2000/svg" xmlns:xlink="http://www.w3.org/1999/xlink" x="0px" y="0px"
	 viewBox="0 0 141.7 141.7" style="enable-background:new 0 0 141.7 141.7;" xml:space="preserve">
<style type="text/css">
	.st0{fill:#29303F;}
	.st1{fill:#EEF0F1;}
	.st2{fill:#C4C4C4;}
	.st3{fill:#EC902A;}
	.st4{fill:#FBCD56;}
	.st5{fill:#FDE282;}
	.st6{fill:#FBBA22;}
</style>
<g>
	<g>
		<g>
			<path class="st0" d="M60.4,3.6C76.6,1,93.1,4.1,108.7,8.6c8.6,2.6,17.1,5.7,25.3,9.4c-0.2,2.2-0.4,4.4-0.6,6.6
				c0.8,0.2,1.6,0.2,2.4,0.3c-1,4.8-2.1,9.5-3.2,14.2c-0.3-0.1-0.6-0.1-1-0.1c-1.3,10.8-2.8,21.6-4.4,32.3c-1.7,8.8-3.8,17.6-7,26
				c1.5,0.1,2.9,0.2,4.4,0.3c-1.5,4.1-3,8.3-4.4,12.4c-1.9,0-3.9-0.2-5.8-0.2c-4.2,7.3-9.9,13.7-16.8,18.4
				c-8.6,5.8-18.6,9.1-28.8,10.8c-9.2-1-17.9-4.7-25.2-10.4c-6.5-5-11.8-11.4-16.1-18.3c-1,0.1-2.1,0.2-3.1,0.3
				c-1.6-4.4-3.2-8.7-4.7-13.1c0.5,0,1-0.1,1.4-0.1c-1.9-5-3.4-10.1-4.3-15.3C14,68.7,11.4,55,9.3,41.2c-0.3,0.1-0.6,0.3-1,0.2
				c-0.8-4.2-1.6-8.4-2.4-12.5c0.5-0.3,1.2-0.4,1.6-0.8c-0.2-1.7-0.4-3.4-0.6-5.2C23.3,13.2,41.5,6.4,60.4,3.6z M69.6,6.1
				c-9.8,0.3-19.9,1.4-28.9,5.7C48.3,9.9,56,8.5,63.8,8.2c15.8-0.1,31.8,2.2,46.6,8c4.6,1.8,9.1,4.1,13,7.1c0,0.5-0.1,1-0.1,1.6
				c-6.4,0-12.8,0.8-19,2.6c-7.7,1.9-15.1,5.4-21.1,10.8c-13.5,11.8-19.8,29.2-30,43.6c-4.8,7.3-12.4,12.8-20.9,15l0,0
				c-2,0.5-3.9,1-5.9,1.3c-1.1-3.9-2.4-7.8-3.4-11.8c-2.9-16.1-5.9-32.2-9-48.3c10.5-2.2,22.3-0.5,30.7,6.5c6.6,5.4,12,12,16.7,19
				c2.3-3.3,4-6.9,6.2-10.2c0.5-0.5-0.2-1.1-0.4-1.6c-5-8.9-11-18.2-20.8-22.4c-10.9-4.6-23.4-4.6-34.8-2c-0.1-1.2-1.2-2.6-0.1-3.6
				c1.3-1.3,3.2-1.9,4.7-2.8c-2.2,0.5-4.4,1.7-6.1,3.2c0,1.2,0.2,2.4,0.3,3.6c-1,0.3-2,0.7-2.9,1.3c0.7,3.4,1.4,6.7,2,10.1
				c0.7,0,1.4-0.3,2.1-0.4c1.6,13.1,4.2,26.1,6.8,39c1.5,7,2.5,14.2,5.1,20.9c-0.8,0-1.6,0.1-2.3,0.2c1.2,3.4,2.3,6.8,3.5,10.3
				c1.3,0,2.6-0.2,3.9-0.3c6.1,9.9,14.9,18.2,25.2,23.6c4.5,2.3,9.2,4.2,14.2,4.8c10.3-2.1,20.3-6.3,28.5-12.9
				c-8.8,5-18.6,8.1-28.7,8.6c-15.2-1.9-29.1-11.2-36.9-24.3c8.9-1.1,17.6-4.2,24.7-9.8C66,90.7,72.2,79.1,78.2,67.9
				c6.3-11.5,15.3-22.2,27.4-27.7c5.3-2.2,11.1-3.1,16.7-3.4c-1.9,20.2-4.6,40.4-8.9,60.2c-11.6-2.9-21.3-10.7-29-19.6
				c-2-2.1-3.5-4.6-5.6-6.7c-1.9,3.5-3.8,7.1-5.7,10.6c-0.1,0.2-0.3,0.5-0.1,0.7c3.3,5.4,7.5,10.4,12.4,14.5
				c6.9,6,15.5,9.9,24.4,11.6c-0.7,1.8-2,3.2-2.9,4.9c1.3-1.5,2.4-3.1,3.5-4.8c3.2,0.6,6.4,0.9,9.7,0.7c0.8-3.4,1.5-6.9,2.2-10.4
				c-2.2-0.1-4.3-0.6-6.4-1c0.9-2.1,1.6-4.2,2.2-6.3c0.1,0,0.2,0.1,0.3,0.1c-0.1-0.2-0.1-0.5-0.1-0.7c0,0.1,0.1,0.3,0.1,0.3
				c0.2-0.1,0.2-0.4,0.2-0.6c2.4-7.1,4-14.6,4.9-22.1c1.6-10.5,3-21,4.2-31.6c1.1,0.1,2.2,0.2,3.3,0.5c0.3-4,0.7-8,0.9-12.1
				c-1.1,0-2.2-0.2-3.2-0.3c0.1-1.8,0.2-3.5,0.3-5.3C110.7,10.3,90.1,5.8,69.6,6.1z M20.4,42c1.4,16.9,4.6,33.6,9.8,49.7
				c1.2-0.2,2.4-0.3,3.5-0.8c-5.4-15.9-8.9-32.5-9.8-49.3C22.8,41.8,21.6,41.7,20.4,42z M29.3,42c1.3,16.1,4.2,32.1,9.1,47.5
				c1.1-0.4,2.2-0.9,3.2-1.4c-4.7-14.7-7.9-30-8.8-45.4C31.7,42.4,30.5,42.1,29.3,42z M114.5,42.8c-0.8,16.3-4.2,32.4-9.5,47.8
				c1.1,0.4,2.2,0.7,3.4,0.9c5.1-15.7,8.2-32.1,9.5-48.5C116.9,42.8,115.7,42.6,114.5,42.8z M105.9,43.8
				c-0.9,14.6-3.8,29.1-8.2,43.1c0.9,0.7,2,1.3,3,1.9c4.6-14.8,7.4-30.3,8.7-45.7C108.2,43.1,107,43.5,105.9,43.8z M38.3,44.5
				C39.6,58.4,42,72.2,46,85.5c0.9-0.8,2.1-1.5,2.8-2.5c-3.4-11.9-5.9-24.2-6.9-36.5C40.8,45.7,39.5,45.1,38.3,44.5z M96.9,48.8
				c-1,10.9-3.2,21.6-6.1,32.2c0.9,0.8,1.8,1.7,2.8,2.5c3.4-12.1,5.7-24.6,6.8-37.1C99.2,47.1,98.1,48,96.9,48.8z M47.8,50.8
				c1,9.2,2.8,18.2,4.9,27.2c1-1.4,1.7-3.1,2.4-4.7c-1.4-6.2-2.6-12.5-3.5-18.8C50.4,53.1,49.2,51.8,47.8,50.8z M87.1,58.7
				c-0.8,4.9-1.8,9.7-2.9,14.6c0.6,1.3,1.5,2.6,2.6,3.6c1.8-7.7,3.3-15.5,4.3-23.4C89.5,55,87.1,56.3,87.1,58.7z M52.9,107.4
				c-0.7,0-1.2,0.7-1.2,1.4c0,3.7,0,7.4,0,11.1c0,0.7,0.6,1.3,1.3,1.3c1.9,0,3.9,0,5.8,0c1.7,0,3.2-1.5,3.2-3.2c0-2.5,0-5,0-7.5
				c0-1.7-1.5-3.1-3.2-3.1C56.8,107.4,54.9,107.4,52.9,107.4z M64.3,108.8c0,4.1,0,8.3,0,12.4c0.8,0,2.1,0.3,2.3-0.7
				c0.1-3.3,0-6.6,0-9.8c2,3.3,3.7,6.8,5.7,10.2c0.6,0.7,1.7,0.3,2.5,0.4c0-4.6,0-9.2,0-13.8c-0.8,0.1-2-0.3-2.3,0.7
				c-0.1,2.8,0,5.6,0,8.4c-1.5-2.7-3-5.5-4.5-8.2C67.2,107,64,106.8,64.3,108.8z M80.2,108.3c-1.5,4.3-3,8.6-4.5,12.9
				c0.8-0.1,1.9,0.3,2.5-0.4c0.5-1,0.7-2.1,1.1-3.2c2,0,4.1,0,6.1,0c0.4,1,0.7,2.1,1.1,3.1c0.6,0.8,1.7,0.4,2.6,0.5
				c-1.6-4.6-3.2-9.2-4.9-13.8C83,107.5,80.9,106.8,80.2,108.3z"/>
		</g>
		<path class="st0" d="M54.1,109.7c1.5-0.1,3.1,0,4.6-0.1c0.6-0.1,1.1,0.5,1,1c0,2.5,0,4.9,0,7.4c0,0.6-0.5,1-1,1
			c-1.5,0-3.1,0-4.6,0C54.1,115.9,54.1,112.8,54.1,109.7z"/>
		<path class="st0" d="M82,109.9c0-0.4,0.7-0.4,0.8-0.1c0.6,1.9,1.3,3.7,1.9,5.6c-1.5,0-3.1,0-4.6,0C80.7,113.6,81.4,111.7,82,109.9
			z"/>
	</g>
	<g>
		<g>
			<path class="st1" d="M54.6,1.9c7.6-1.4,15.5-2.3,23.2-1.7c19.7,1.5,38.9,7.5,57,15.4c2.7,1.2,1.3,4.6,1.3,6.9
				c1.3,0.2,2,1.4,2.2,2.5v0.2c-1.2,5-2.2,10-3.4,15c-0.1,0.5-0.6,1-1,1.3c-1.3,10.3-2.7,20.6-4.2,30.9c-1.6,7.7-3.4,15.3-5.8,22.8
				c1.9-0.3,3.9,1.4,3.3,3.4c-1.4,4.3-3,8.5-4.6,12.8c-1.3,2.5-4.5,1.1-6.7,1.4c-6.6,11.2-17.2,19.9-29.4,24.5
				c-5.6,2.2-11.4,3.5-17.3,4.7h-0.5c-5.4-0.8-10.8-2.1-15.8-4.4c-11.1-5.1-20.1-13.9-26.6-24.1c-1.4,0.1-3.3,0.2-4-1.3
				c-1.5-4.1-3-8.2-4.5-12.3c-0.5-1.2-0.7-2.6,0.1-3.7c-1.6-4.6-2.7-9.3-3.6-14c-2.7-12.6-5.2-25.3-7.2-38C6.7,43.4,6,43,5.9,42.3
				C5,38,4.3,33.5,3.3,29.2v-0.3c0.2-0.9,0.6-1.8,1.4-2.3c-0.1-1.6-0.8-3.3-0.1-4.9c0.7-1.2,2.1-1.6,3.2-2.3
				C22.3,11,38.2,5.1,54.6,1.9z M60.4,3.6C41.5,6.4,23.3,13.2,6.9,23c0.2,1.7,0.4,3.4,0.6,5.2c-0.4,0.4-1.1,0.5-1.6,0.8
				c0.8,4.2,1.6,8.3,2.4,12.5c0.3,0.1,0.7-0.1,1-0.2C11.4,55,14,68.7,17,82.3c0.9,5.2,2.4,10.3,4.3,15.3c-0.5,0-1,0.1-1.4,0.1
				c1.5,4.4,3.1,8.7,4.7,13.1c1-0.1,2.1-0.2,3.1-0.3c4.2,7,9.6,13.3,16.1,18.3c7.3,5.6,16,9.4,25.2,10.4c10.2-1.7,20.2-5,28.8-10.8
				c7-4.7,12.7-11.2,16.8-18.4c1.9,0,3.9,0.2,5.8,0.2c1.4-4.1,3-8.3,4.4-12.4c-1.5-0.1-2.9-0.2-4.4-0.3c3.1-8.4,5.2-17.2,7-26
				c1.6-10.8,3-21.5,4.4-32.3c0.3,0.1,0.6,0.1,1,0.1c1-4.7,2.1-9.5,3.2-14.2c-0.8-0.1-1.6-0.2-2.4-0.3c0.2-2.2,0.4-4.4,0.6-6.6
				c-8.2-3.7-16.7-6.8-25.3-9.4C93.1,4.1,76.6,1,60.4,3.6z"/>
		</g>
		<path class="st1" d="M69.6,6.1c20.4-0.3,41,4.1,59.2,13.6c-0.1,1.8-0.2,3.5-0.3,5.3c-0.7,0-1.4-0.1-2.2-0.1
			c0.1-1.4-0.1-2.8-0.2-4.2C107,11.1,85.2,6.5,63.8,8.2C56,8.5,48.3,9.9,40.7,11.8C49.7,7.5,59.8,6.4,69.6,6.1z"/>
		<path class="st1" d="M126.3,36.8c0.4,0,0.9,0,1.3,0.1c-1.2,10.6-2.6,21.1-4.2,31.6c-0.9,7.5-2.4,14.9-4.9,22.1
			c-0.1-0.8,0.2-1.5,0.2-2.3c2.5-12.1,3.6-24.4,5.5-36.5C125,46.8,126.1,41.8,126.3,36.8z"/>
	</g>
	<g>
		<path class="st2" d="M63.8,8.2c21.4-1.7,43.2,3,62.4,12.5c0,1.4,0.2,2.8,0.2,4.2c-1-0.1-2.1,0-3.1-0.1c0-0.5,0.1-1,0.1-1.6
			c-3.9-3.1-8.4-5.3-13-7.1C95.6,10.4,79.6,8,63.8,8.2z"/>
		<path class="st2" d="M10.4,24.1c1.7-1.5,3.8-2.7,6.1-3.2c-1.6,0.9-3.4,1.5-4.7,2.8c-1.1,1,0,2.4,0.1,3.6c-0.4,0.1-0.8,0.2-1.2,0.3
			C10.6,26.5,10.4,25.3,10.4,24.1z"/>
		<path class="st2" d="M122.4,36.8c1.3-0.1,2.6-0.1,3.9,0c-0.2,5-1.3,10-2,14.9c-1.9,12.2-3,24.5-5.5,36.5c-0.1,0.8-0.4,1.5-0.2,2.3
			c0,0.2,0,0.4-0.2,0.6c0-0.1-0.1-0.3-0.1-0.3c0.1,0.2,0.1,0.5,0.1,0.7c-0.1,0-0.2-0.1-0.3-0.1c-0.6,2.1-1.4,4.2-2.2,6.3
			c-0.8-0.2-1.6-0.4-2.3-0.6C117.8,77.2,120.5,57,122.4,36.8z"/>
		<path class="st2" d="M11.9,38.6c0.7-0.2,1.5-0.3,2.2-0.5c3.1,16.1,6.1,32.2,9,48.3c1,4,2.2,7.8,3.4,11.8c-0.9,0.2-1.7,0.3-2.6,0.4
			c-2.6-6.7-3.6-13.9-5.1-20.9C16.1,64.6,13.6,51.7,11.9,38.6z"/>
		<path class="st2" d="M20.4,42c1.1-0.3,2.4-0.3,3.5-0.3c0.9,16.8,4.4,33.4,9.8,49.3c-1.1,0.4-2.4,0.6-3.5,0.8
			C25,75.6,21.8,58.9,20.4,42z"/>
		<path class="st2" d="M29.3,42c1.2,0.1,2.4,0.4,3.6,0.7c0.8,15.4,4.1,30.7,8.8,45.4c-1,0.6-2.1,1-3.2,1.4
			C33.5,74.1,30.6,58.1,29.3,42z"/>
		<path class="st2" d="M114.5,42.8c1.2-0.2,2.3,0.1,3.5,0.2c-1.3,16.5-4.4,32.8-9.5,48.5c-1.2-0.2-2.3-0.5-3.4-0.9
			C110.3,75.1,113.7,59,114.5,42.8z"/>
		<path class="st2" d="M105.9,43.8c1.2-0.3,2.3-0.7,3.5-0.8c-1.2,15.5-4,30.9-8.7,45.7c-1-0.6-2.1-1.2-3-1.9
			C102.1,72.9,105,58.4,105.9,43.8z"/>
		<path class="st2" d="M38.3,44.5c1.2,0.6,2.4,1.2,3.6,1.9c1,12.4,3.5,24.6,6.9,36.5c-0.7,1-1.9,1.7-2.8,2.5
			C42,72.2,39.6,58.4,38.3,44.5z"/>
		<path class="st2" d="M96.9,48.8c1.2-0.9,2.3-1.8,3.6-2.4c-1.2,12.5-3.4,25-6.8,37.1c-1-0.8-1.9-1.7-2.8-2.5
			C93.7,70.5,95.9,59.7,96.9,48.8z"/>
		<path class="st2" d="M47.8,50.8c1.4,1.1,2.6,2.4,3.8,3.7c0.9,6.3,2.1,12.6,3.5,18.8c-0.6,1.6-1.3,3.3-2.4,4.7
			C50.6,69,48.8,59.9,47.8,50.8z"/>
		<path class="st2" d="M87.1,58.7c0-2.4,2.4-3.7,4-5.2c-0.9,7.9-2.4,15.7-4.3,23.4c-1.1-1-1.9-2.3-2.6-3.6
			C85.3,68.4,86.3,63.6,87.1,58.7z"/>
		<path class="st2" d="M109.8,108.2c0.2,0,0.4,0.1,0.6,0.1c-1.1,1.7-2.2,3.3-3.5,4.8C107.8,111.4,109.1,110,109.8,108.2z"/>
		<path class="st2" d="M28.9,108.6c0.8-0.1,1.5-0.2,2.3-0.3c7.8,13.1,21.7,22.4,36.9,24.3c10.1-0.5,19.9-3.6,28.7-8.6
			c-8.2,6.7-18.2,10.8-28.5,12.9c-5-0.6-9.8-2.5-14.2-4.8C43.8,126.9,35,118.6,28.9,108.6z"/>
	</g>
	<g>
		<path class="st3" d="M104.3,27.5c6.2-1.8,12.6-2.7,19-2.6c1,0,2.1,0,3.1,0.1c0.7,0.1,1.4,0.1,2.2,0.1c1.1,0.1,2.2,0.2,3.2,0.3
			c-0.2,4-0.6,8-0.9,12.1c-1.1-0.3-2.2-0.4-3.3-0.5c-0.4,0-0.9,0-1.3-0.1c-1.3,0-2.6,0-3.9,0c-5.7,0.3-11.5,1.2-16.7,3.4
			c-12.2,5.5-21.1,16.3-27.4,27.7c-6,11.1-12.2,22.7-22.4,30.7c-7,5.6-15.8,8.6-24.7,9.8c-0.8,0.1-1.5,0.2-2.3,0.3
			c-1.3,0.1-2.6,0.3-3.9,0.3c-1.2-3.4-2.3-6.8-3.5-10.3c0.8-0.1,1.6-0.1,2.3-0.2c0.9-0.1,1.7-0.2,2.6-0.4c2-0.3,4-0.8,5.9-1.3
			c2.5,1.8,4.8,3.7,7.3,5.4c1.5-0.7,2.9-1.4,4.4-2.3c7.7-4,13-11.2,17.1-18.5c2.5-4.3,4.2-9,6.6-13.3c4.1-7.6,8.7-14.9,13.8-21.9
			c4.7-6.5,11.2-11.8,18.8-14.8c2-0.9,4.1-1.5,6.2-2.2C105.9,28.6,105.1,28,104.3,27.5z"/>
		<g>
			<path class="st3" d="M11.9,27.4c11.4-2.6,23.9-2.6,34.8,2c9.7,4.3,15.7,13.5,20.8,22.4c0.2,0.5,0.9,1.1,0.4,1.6
				c-2.2,3.3-3.9,7-6.2,10.2c-4.7-7-10.2-13.6-16.7-19c-8.4-7-20.2-8.6-30.7-6.5c-0.7,0.1-1.5,0.3-2.2,0.5c-0.7,0.1-1.4,0.4-2.1,0.4
				c-0.6-3.4-1.4-6.7-2-10.1c0.9-0.6,1.9-1,2.9-1.3C11.1,27.6,11.5,27.5,11.9,27.4z M20.2,30.3c4,0.1,8.1,0.6,12,1.7
				c12.2,3.3,22.4,11.9,29.5,22.2c-5-8.8-12.8-16.4-22.1-20.4C33.5,31.1,26.8,29.9,20.2,30.3z"/>
		</g>
		<g>
			<path class="st3" d="M78.9,70.8c2.1,2,3.6,4.6,5.6,6.7c7.8,8.9,17.4,16.7,29,19.6c0.8,0.2,1.6,0.4,2.3,0.6c2.1,0.5,4.2,0.9,6.4,1
				c-0.7,3.5-1.4,7-2.2,10.4c-3.2,0.2-6.5-0.1-9.7-0.7c-0.2,0-0.4-0.1-0.6-0.1c-8.9-1.8-17.5-5.6-24.4-11.6
				c-4.9-4.1-9-9.1-12.4-14.5c-0.2-0.2,0-0.5,0.1-0.7C75.1,77.9,77,74.3,78.9,70.8z M77.3,83.1c4.6,10,13.5,17.9,24,21.2
				c4,1.4,8.1,2.4,12.3,2.6c-9.4-1.6-19.3-4.5-26.4-11.4C83.1,92.1,80.5,87.3,77.3,83.1z M113.7,106.9c0.7,0.4,1.9,0.2,2.8,0.3
				C115.5,107.1,114.6,106.9,113.7,106.9z"/>
		</g>
		<g>
			<path class="st3" d="M52.9,107.4c2,0,3.9,0,5.9,0c1.7,0,3.2,1.5,3.2,3.1c0,2.5,0,5,0,7.5c0,1.7-1.5,3.2-3.2,3.2
				c-1.9,0-3.9,0-5.8,0c-0.7,0-1.3-0.6-1.3-1.3c0-3.7,0-7.4,0-11.1C51.7,108.1,52.2,107.4,52.9,107.4z M54.1,109.7
				c0,3.1,0,6.2,0,9.3c1.5,0,3.1,0,4.6,0c0.5,0,1.1-0.4,1-1c0-2.5,0-4.9,0-7.4c0.1-0.6-0.5-1.1-1-1
				C57.1,109.6,55.6,109.5,54.1,109.7z"/>
		</g>
		<path class="st3" d="M64.3,108.8c-0.2-2,2.9-1.7,3.7-0.5c1.5,2.7,3,5.5,4.5,8.2c0.1-2.8,0-5.6,0-8.4c0.3-1,1.5-0.6,2.3-0.7
			c0,4.6,0,9.2,0,13.8c-0.8-0.1-1.9,0.3-2.5-0.4c-1.9-3.4-3.7-6.8-5.7-10.2c0,3.3,0,6.6,0,9.8c-0.2,1.1-1.5,0.7-2.3,0.7
			C64.3,117.1,64.3,112.9,64.3,108.8z"/>
		<g>
			<path class="st3" d="M80.2,108.3c0.7-1.5,2.8-0.9,4.1-0.9c1.7,4.6,3.2,9.2,4.9,13.8c-0.8-0.1-2,0.4-2.6-0.5
				c-0.4-1-0.7-2.1-1.1-3.1c-2,0-4.1,0-6.1,0c-0.4,1-0.7,2.1-1.1,3.2c-0.6,0.8-1.7,0.4-2.5,0.4C77.1,116.9,78.7,112.6,80.2,108.3z
				 M82,109.9c-0.6,1.8-1.3,3.7-1.9,5.5c1.5,0,3.1,0,4.6,0c-0.6-1.9-1.3-3.7-1.9-5.6C82.7,109.5,82,109.5,82,109.9z"/>
		</g>
	</g>
	<g>
		<path class="st4" d="M83.2,38.3c5.9-5.4,13.3-8.9,21.1-10.8c0.8,0.5,1.6,1.1,2.3,1.7c-2.1,0.7-4.2,1.3-6.2,2.2
			c-8.8,2.5-16.2,8.5-21.5,15.9c-10.6,13.4-16,30-26,43.8c-2.5,3.4-5.6,6.3-8.9,8.9c-1.4,0.8-2.9,1.5-4.4,2.3
			c-2.5-1.7-4.8-3.6-7.3-5.4l0,0c8.5-2.2,16-7.7,20.9-15C63.4,67.5,69.7,50.1,83.2,38.3z"/>
	</g>
	<g>
		<path class="st5" d="M20.2,30.3c6.6-0.4,13.2,0.9,19.3,3.5c9.4,4.1,17.1,11.6,22.1,20.4c-7-10.3-17.3-18.9-29.5-22.2
			C28.3,30.9,24.3,30.3,20.2,30.3z"/>
		<path class="st5" d="M79,47.3c5.2-7.4,12.7-13.4,21.5-15.9c-7.5,3-14,8.3-18.8,14.8c-5,7-9.7,14.3-13.8,21.9
			c-2.4,4.3-4.2,9-6.6,13.3C57.1,88.8,51.8,96,44.1,100c3.3-2.6,6.4-5.5,8.9-8.9C62.9,77.3,68.4,60.7,79,47.3z"/>
		<path class="st5" d="M77.3,83.1c3.2,4.2,5.8,9,9.9,12.5c7.1,6.8,17.1,9.7,26.4,11.4c-4.2-0.2-8.4-1.2-12.3-2.6
			C90.8,101,81.9,93.1,77.3,83.1z"/>
		<path class="st5" d="M113.7,106.9c0.9,0,1.9,0.2,2.8,0.3C115.6,107.1,114.4,107.3,113.7,106.9z"/>
	</g>
	<path class="st4" d="M32.4,96.9c-7,1.5-8.3,1.6-10.8,1.8L24,106c0,0,12.1-2,15.7-3.8s-3.7-5-3.7-5L32.4,96.9z"/>
	<path class="st4" d="M106.6,29.2c7.4-2.6,25-1.8,25-1.8l0.1-2.1c0,0-12.8-2.1-27.5,2.2l-0.7,1.7H106.6z"/>
	<path class="st6" d="M8.3,31.5c7.9-1.4,32.3-6.4,53.3,22.7c1.2,2.1,2.6,5.2,2.6,5.2l-2.7,4.3c0,0-15.1-26.2-38.8-26.2
		c-9.4,0-12.9,2.1-12.9,2.1L8.3,31.5z"/>
	<path class="st6" d="M74.8,78.3c2.8,5.3,12.5,29.5,45.6,29l-0.4,1.7c0,0-29,2.2-47.2-27.2L74.8,78.3z"/>
</g>
</svg>
