<?xml version="1.0" encoding="utf-8"?>
<!-- Generator: Adobe Illustrator 19.0.0, SVG Export Plug-In . SVG Version: 6.00 Build 0)  -->
<svg version="1.1" id="Layer_1" xmlns="http://www.w3.org/2000/svg" xmlns:xlink="http://www.w3.org/1999/xlink" x="0px" y="0px"
	 viewBox="45.1 379.3 405.7 471.2" style="enable-background:new 45.1 379.3 405.7 471.2;" xml:space="preserve">
<style type="text/css">
	.st0{fill:#372113;}
	.st1{fill:#28180C;}
	.st2{fill:#5D5D5D;}
	.st3{fill:#AA2128;}
</style>
<g id="_x23_dadbdcff">
	<path class="st0" d="M239.5,380.3c9.1-2.1,19-0.7,27.1,3.9c55.1,31.8,110.3,63.6,165.4,95.5c9.2,5.3,16,14.6,18,25
		c1.1,4.6,0.8,9.4,0.8,14.1c0,61.7,0,123.4,0,185.1c-0.2,13.4-8,26.3-19.9,32.5c-54.8,31.6-109.6,63.3-164.4,94.9
		c-11.3,6.4-25.8,6.4-37.1,0c-55.1-31.8-110.3-63.7-165.5-95.5c-11.3-6.4-18.6-19-18.8-31.9c0-64,0-128,0-192.1
		c0.1-12.8,7.3-25.2,18.3-31.7c54.9-31.8,109.9-63.4,164.8-95.2C231.7,382.8,235.5,381.2,239.5,380.3 M243.6,400.4
		c-3.1,0.9-5.8,2.7-8.5,4.3c-52,30-103.9,60-155.9,90c-3.5,2.1-7.4,3.8-9.9,7.2c-2.4,3.1-3.6,6.9-3.5,10.7c0,63.3,0,126.6,0,189.9
		c-0.2,6.3,3.4,12.4,8.9,15.4c54.9,31.7,109.8,63.4,164.8,95.1c5.2,3.1,12,3.2,17.1,0.1c55-31.7,109.9-63.4,164.8-95.2
		c5.5-3,9.1-9.1,8.9-15.3c0-63.4,0-126.7,0-190c0.2-6.3-3.5-12.4-9-15.4c-54.7-31.6-109.5-63.2-164.2-94.8
		C253.1,400,248.1,399.2,243.6,400.4z"/>
	<path class="st1" d="M242.4,409c3.3-2.2,7.8-2.2,11.1,0c54.8,31.6,109.5,63.2,164.3,94.9c3.5,1.9,5.3,5.9,5,9.7
		c0,34.8,0.1,69.6-0.1,104.4c-7.2-1.5-14.2-3.7-21.3-5.5c-0.5-0.1-1.4-0.4-1.9-0.5c-4-1.2-8-2.2-12.1-3.2c-0.5-0.1-1.6-0.4-2.1-0.5
		c-0.2-1.7-0.3-3.5-0.4-5.2c0.1-24.9,0-49.8,0.1-74.7c-5.7-3.3-11.4-6.5-16.9-9.9c-3.6-2.1-7.4-3.9-10.8-6.2
		c-36.5-20.9-72.9-42-109.4-63c-45.7,26.4-91.4,52.8-137.1,79.2c0,7.5,0,15,0,22.5c8.4,2.3,16.9,4.6,25.4,6.7
		c1.5,0.4,2.9,0.8,4.4,1.2c1.8,0.5,3.7,1,5.6,1.4c6,1.4,12.1,2.9,17.9,4.9c0.1,0,0.4,0.1,0.6,0.2c4.4,1.2,8.9,2.5,13.4,3.4
		c6.3,1.4,12.6,2.9,18.7,4.9c8.1,2.4,16.3,4.6,24.5,6.5c6.2,1.2,12.3,2.8,18.2,4.8c9.8,3.3,20,5.4,30,8c6.3,1.8,12.6,4.2,19.2,4.5
		c10.3,3.3,21.2,5,31.3,8.9c7.7,2.6,15.8,4.2,23.6,6.6c3.3,1,6.7,1.8,10.1,2.6c5.9,1.7,11.5,4.1,17.5,5.2c3.1,0.6,6.4,1,9.4,2
		c1.1,0.3,2.2,0.7,3.4,1c2.6,0.7,5.1,1.4,7.7,2.2c10.4,2.2,20.6,5.2,30.9,7.9c0.2,22.5,0,45.1,0.1,67.6c0.2,3.9-1.5,7.8-5,9.7
		c-54.7,31.7-109.5,63.2-164.3,94.9c-3.4,2.2-7.9,2.2-11.2,0c-54.1-31.3-108.3-62.5-162.4-93.8c-3.9-1.8-7-5.4-6.8-9.8
		c-0.1-35.5,0-71.1,0-106.6c12.7,2.8,25.2,6.6,37.7,9.8c0.1,9.6,0,19.1,0.1,28.7c0,6.2,1,12.4,0.2,18.5c-0.6,11.2-0.1,22.5-0.3,33.7
		c5.8,3.4,11.8,6.5,17.2,10.4c3,1.4,6.1,2.8,9,4.6c36.9,21.5,74,42.7,110.9,64.1c20.4-11.8,40.8-23.6,61.3-35.3
		c3.8-2.2,7.4-4.8,11.3-6.8c21.7-12,43-24.8,64.5-37c0-8,0-15.9,0-23.9c-2.6-0.8-5.2-1.3-7.9-1.7c-2.2-0.5-4.4-1.2-6.5-1.9
		c-6.9-2.1-13.8-4.1-20.8-5.5c-2.4-0.5-4.8-1.2-7.1-2c-5.2-1.4-10.5-3.8-15.9-3.5c-5.6-2.6-11.9-3.1-17.7-5c-4.3-1.4-8.7-2.2-13-3.7
		c-13.1-4.2-26.6-7.3-39.9-10.9c-6.7-2.4-13.8-3.1-20.5-5.1c-6-2.4-12.4-3.8-18.8-5.1c-8.6-1.8-17.1-4.2-25.5-6.8
		c-5.4-2-11.1-3.1-16.6-4.7c-5-1.2-10-3-15.1-3.5c-6.9-2-13.9-3.6-20.8-5.8C117,591,94.9,585.8,73,579.6c0-22.4,0-44.9,0-67.3
		c-0.1-3.9,2.2-7.4,5.6-9.1C133.3,472,187.9,440.5,242.4,409z"/>
	<path class="st2" d="M52,757.8c3.4-5.9,6.8-11.8,10.1-17.8c1.2,0.6,2.3,1.2,3.4,1.8c-0.2,5.8-0.5,11.7-0.9,17.5
		c4.8-3.3,9.8-6.3,14.6-9.5c1.1,0.6,2.2,1.2,3.3,1.9c-3.4,6-6.8,12-10.3,17.9c-0.7-0.5-2.1-1.4-2.8-1.8c2.5-4.3,4.9-8.6,7.4-12.9
		c-5.1,3.1-9.6,7.4-15.4,9.2c0-5.8,0.3-11.7,0.7-17.5c-2.5,4.3-5,8.5-7.3,12.8C53.9,758.9,52.9,758.3,52,757.8z"/>
	<path class="st2" d="M85.4,758.2c6.9-3.3,16.5,2.6,16.1,10.4c-0.4,5.6-5.5,11.1-11.4,10.5c-4.3-0.6-8.6-3.2-10.3-7.3
		C77.7,766.7,80.7,760.5,85.4,758.2 M88.1,760.7c-3.3,1.1-5.4,4.6-5.5,7.9c-0.1,5.5,7.1,9.4,11.6,6.2c2.2-1.7,3.7-4.4,3.9-7.2
		C98.3,762.8,92.5,759.2,88.1,760.7z"/>
	<path class="st2" d="M108.2,766.4c1.2,1,3.5,1.3,3.5,3.3c0.7,6,1.4,12.1,1.9,18.1c2.6-4.6,5.2-9.3,7.9-13.8
		c0.7,0.4,2.1,1.3,2.8,1.7c-3.3,6-6.7,11.9-10.2,17.8c-1.1-0.6-2.2-1.3-3.3-1.9c-0.7-6.6-1.5-13.2-2.3-19.8c-2.4,4.7-5.1,9.3-7.7,14
		c-1-0.5-2-1-2.9-1.5C101.2,778.3,104.8,772.4,108.2,766.4z"/>
	<path class="st2" d="M125.2,782c3.3-4.6,9.7-1.5,13.1,1.5c1.6,1.1-0.3,2.7-0.7,3.8c-2.1-2.1-4.4-4.6-7.5-4.6
		c-2-0.2-2.6,2.4-1.5,3.7c1.6,2.8,4.1,5.1,4.8,8.2c0.6,3-2.1,6-5.2,5.8c-4.1-0.2-7.4-2.8-10.1-5.7c0.6-1,1.2-2,1.8-3
		c2.2,2.6,6.2,7.7,9.8,4.7C130.7,791.1,121.9,787.5,125.2,782z"/>
	<path class="st2" d="M140.9,785.3c4.6,2.5,9.3,5.1,13.8,7.9c1,0.9-0.8,1.8-1,2.7c-1.8-1.1-3.7-2.1-5.5-3.2
		c-2.8,5.1-5.8,10.1-8.6,15.2c-1-0.5-2-0.9-3.1-1.3c2.7-5.3,5.8-10.4,8.8-15.5c-1.8-1-3.7-2-5.3-3.3
		C140.2,787.1,140.7,785.9,140.9,785.3z"/>
	<path class="st2" d="M147.5,812.8c3.4-5.9,6.8-11.9,10.2-17.8c3.4,2,6.9,3.9,10.3,5.9c-0.4,0.8-0.8,1.7-1.1,2.6
		c-2.6-1.4-5.2-2.8-7.8-4.3c-1,1.6-1.9,3.3-2.9,5c2.3,1.4,4.6,2.6,6.9,3.9c-0.3,0.7-0.9,2-1.2,2.6c-2.4-1.3-4.8-2.6-7.2-3.9
		c-1,1.8-2,3.5-3,5.3c2.7,1.5,5.4,3.1,8,4.7c-0.4,0.6-1.2,1.8-1.6,2.4C154.7,817,151,815,147.5,812.8z"/>
	<path class="st2" d="M161.5,820.7c3.4-5.9,6.7-11.9,10.2-17.8c3.7,2.4,9.2,3.8,10.3,8.7c0.4,3.8-3.3,6.6-6.9,6.2
		c0.7,3.1,0.9,6.3,1,9.5c2.2-0.7,6-1.1,5.7,2.4c-1.9,2.7-4.3-0.1-5.6-1.8l-0.7,1.1c-0.7-0.5-2-1.4-2.6-1.9c-0.7-4,1-10.5-4.4-11.7
		c-1.3,2.4-2.6,4.8-4.1,7.2C163.6,822.1,162.2,821.2,161.5,820.7 M173.1,807.1c-1.1,1.8-2.1,3.7-3.2,5.6c1.9,0.8,3.8,2.7,6.1,2.1
		c1.7-0.2,2.4-1.9,2.4-3.3C177.4,809.3,175.1,808.4,173.1,807.1z"/>
	<path class="st2" d="M194.1,815.5c0.9,0.5,1.9,1,2.9,1.5c-1.3,2.6-2.7,5.1-4.2,7.5c3.9-1,7.8-2.1,11.6-3.3c1.2,0.6,2.1,1.6,3.3,2.3
		c-4.3,1.3-8.7,2.3-13.1,3.5c1.3,4.7,2.8,9.4,3.8,14.2c-1.3-0.7-2.6-1.3-3.9-1.9c-1-4.1-2.1-8.2-3.1-12.3c-1.5,2.6-2.9,5.2-4.4,7.8
		c-1-0.5-1.9-1-2.9-1.5C187.2,827.4,190.8,821.5,194.1,815.5z"/>
	<path class="st2" d="M210.1,824.5c3.6,2.3,8.8,3.7,10.2,8.3c0.8,3.8-3.1,7.2-6.8,6.5c0.6,3.7,1,7.5,1.2,11.2
		c-5.2-0.6-3.3-6.4-4.2-10c0-2-2-2.8-3.3-4c-1.5,2.4-3,4.9-4.3,7.4c-1-0.5-1.9-1-2.9-1.5C203.2,836.3,206.8,830.5,210.1,824.5
		 M211.6,828.7c-1,1.8-2.1,3.7-3.1,5.5c1.5,0.8,3,1.8,4.7,2.3c2.3,0.6,4.8-2.2,3.3-4.3C215.2,830.5,213.3,829.7,211.6,828.7z"/>
</g>
<g id="_x23_aa2128ff">
	<path class="st3" d="M238.6,483.1c5.3-2.9,11.4-2.2,17.1-1.7c0,0.5,0.2,1.5,0.2,1.9c-3.7,3.3-8.3,5.2-12.5,7.6
		c-9.4,7.4-11.8,20-20.3,28.3c2.9,1.9,5.7,3.9,9,5c4.5,1.6,9.3,1,13.9,1.4c-9.3,7.4-19.6,13.6-28.4,21.6
		c-8.1,7.8-15.4,16.6-20.8,26.5c-6.1-2-12.4-3.5-18.7-4.9c2.7-4.2,5.7-8.2,9.6-11.4c6.1-4.9,11.8-10.3,17-16.1c2.9-3.7-1.9-8-5.6-8
		c-3.6,0.8-7,2.2-10.6,3c-8,1.8-15.4,5.2-23.1,7.9c-2.6-2.1-1.9-6-0.2-8.4c2.2-3.5,6.4-4.8,9.2-7.7c5.2-5,7.6-12,10.5-18.4
		c2.3-4.8,2.9-10.5,6.4-14.7c5.6-7,15.6-10,24.2-7.4c1.1,0.6,3.1,0.5,3.2,2.2c-2.4,3.6-7.7,2.1-10.5,5.1c-2.7,2.8-5.2,6.1-6.4,9.8
		c-0.6,2.9,2.2,4.8,4.2,6.3c2.2,0.6,4.2-1.1,6-2.1C221.9,501.4,227.2,488.8,238.6,483.1 M196.4,520.7c2.5,2,7.3,0.3,7-3.4
		C200.7,516.7,196.1,517,196.4,520.7z"/>
	<path class="st3" d="M278.8,489.8c3.8,4.1,6.8,9.1,7.1,14.8c1.7,10.4-2.1,21.2-9.4,28.6c-7.1,6.5-17.2,8.2-26.5,7.5
		c-2.4-0.2-4.9-0.4-6.9-2c4.1-2.9,8.7-5.1,12.1-8.9c5.9-4.1,10-10.1,15.8-14.3c3.3-2.6,6.8-5.7,7.8-10
		C279,500.3,277.6,495,278.8,489.8z"/>
	<path class="st3" d="M314.3,509.8c1.4,2.8,2.3,5.8,2,8.9c0.4,4.2-2.1,7.9-3.1,11.8c6.2-0.9,11.2-5,16.1-8.6
		c4.2-3.2,6.1-8.5,10.5-11.5c1.5,6.2-0.7,13.3-5.7,17.3c-15.2,9.3-33.2,13.8-51,12.6c2-2.7,5.1-4.1,7.8-5.8
		c5.2-3.3,10.8-6.4,14.6-11.4C308.5,518.7,312,514.6,314.3,509.8z"/>
	<path class="st3" d="M143.5,512.1c3.8-2.1,8.3-2,12.5-1.7c4.7,0.8,9.3,5.4,8.5,10.4c-2.3,0.6-4.7,1-7,1.6c0,4.3,1.4,9.4-2,12.9
		c-3.2,4-10.2,4.8-11.4,10.4c0.6,4.7,3.5,8.8,6.3,12.5c2.3,2.9,6.1,3,9.4,3.4c2.3,0.1,3.3,2.4,4.8,3.9c-0.2,0-0.4-0.1-0.6-0.2
		c-5.9-2-11.9-3.5-17.9-4.9c-1.8-3.9-3-8.8-7.1-10.8c-4.4-1.4-8.8,0.7-12.9,1.9c0.1-1.8-0.2-3.9,1.1-5.4c3.5-4.9,9.6-7,13.2-11.8
		c3.2-2.6,2.7-8.2-0.9-10.2c-2.4-0.7-4.9-0.7-7.3-0.9c0-0.5,0.1-1.4,0.2-1.9C136,518,139.2,514.2,143.5,512.1z"/>
	<path class="st3" d="M357.4,512.4c3.5,2.3,7.2,4.1,10.8,6.2c-4.5,5.9-7.8,12.9-13.3,18c-6.9,6.9-14.4,13.2-22.7,18.3
		c-4.6,3.3-9.5,6.2-14.7,8.5c-4,1.8-7.7,4.4-11.9,5.8c-6.7,2-13.8,2.4-20.7,2.7c-7.6,0.9-15.3,0.1-22.9-0.4
		c-4.9-0.3-10.3,0.9-13.7,4.6c-2.9,3-5.9,6-8.7,9.1c-6-2-12.1-3.6-18.2-4.8c-0.1-6.6-4.9-13.1-1.3-19.6c4.2-6.1,11.8-8.2,18.4-10.6
		c7.5-3,15.7-3,23.6-3.7c9.7,0.2,19.3-1.1,28.9-1.6c16.7-1.5,33.9-5.3,47.6-15.5c3.8-2.8,7.9-5.4,11.3-8.7
		C352.4,517.8,354.7,514.9,357.4,512.4z"/>
	<path class="st3" d="M367,547.6c2.7-1.9,5-4.5,8.3-5.4c-2.4,6.9-6.4,13.2-12,17.8c-4,3-6.7,7.5-11.3,9.7
		c-11.4,5.7-22.6,12-35.1,15.1c-7.2,2.5-14.6,4.4-22,6.5c-7.2,1.5-16.5-2.1-18.1-9.9c5.6-1.5,11.5-1.7,17.2-2.9
		c7.7-1.5,15.3-2.8,23-4.1c6.1-2.2,12.3-4.3,17.9-7.4c5-2.8,10.7-4.2,15.4-7.5C356,555.4,362,552.1,367,547.6z"/>
	<path class="st3" d="M136.8,557.8c0.8-0.6,1.6-1.3,2.3-2c0.5,1,1,2.1,1.5,3.1c-1.5-0.4-2.9-0.8-4.4-1.2L136.8,557.8z"/>
	<path class="st3" d="M369.9,581.7c2.1-1.3,4.4-2.4,6.7-3.3c-5,9.5-15.5,14-24.8,18.3c-10.4,3.7-20.9,7.7-31.8,9.8
		c-10.1-4-21-5.6-31.3-8.9c12.5-0.6,25-1.2,37.4-3c6.5-1.5,13.3-1.7,19.6-4.1C354,588.2,362.4,585.9,369.9,581.7z"/>
	<path class="st3" d="M125.1,601.6c-0.1-2.3,1.3-5.4,3.9-5.4c2.6-0.3,4,2.4,6.2,3.2c1.5,0.9,2.6-1,3.6-1.7
		c6.9,2.1,13.9,3.7,20.8,5.8c-5.1,1-10.6,0.2-15.6,2.1c-2.8,1.4-6,3.2-6.6,6.5c3.3-1.1,6.1-3.2,9.4-4.2c3.5-0.5,7.9-0.6,10.3,2.5
		c2.5,2.4,3.6,6.9,1.2,9.7c-2.4,3-7.3,1.5-9.6,4.6c-1.4,4.5,1.1,9,0.7,13.6c-2.1-0.1-4.1-0.2-6.1-0.1c1.3,3.4,1.8,7.1,0.9,10.7
		c-2.1,0.6-4.8,2-6.7,0.1c-3.7-3.7-7-8.1-11.8-10.4c-1.5-0.8-3.3-0.6-4.8-0.1c-1.3,1.4-2.4,4.3-0.3,5.5c3.6,2.7,8.6,2.8,11.8,6.2
		c4.4,3.6,4.9,9.8,3.6,14.9c-1.1,3.9-5.3,8.1-9.5,5.9c-3.2-2.9,0-6.8,0-10.2c0-3,0.5-7.5-3.2-8.6c-4.2-0.9-8.5-0.4-12.5,1.1
		c0.7-6.2-0.3-12.4-0.2-18.5c3.4-0.4,6.6-2,10.1-2c0.7-1,1.7-1.9,2-3.1c-1.3-5-8.9-7-7.8-13c0-2.4,1.5-4.4,2.6-6.4
		c2.6,0,4.6,1.8,6.6,3.2c1.9,1.4,4.4,0.8,6.6,0.9C128.9,610.1,124.6,606.6,125.1,601.6z"/>
	<path class="st3" d="M371.4,621c5.5-5.1,9.3-11.8,13.7-17.8c0.1,1.7,0.2,3.5,0.4,5.2c0.5,0.1,1.6,0.4,2.1,0.5
		c-2.3,4.7-4.7,9.3-6.8,14.1C377.7,622,374.5,621.7,371.4,621z"/>
	<path class="st3" d="M362.5,607c3.2-1.3,6.6-0.8,9.9-0.4c-0.9,1-1.7,2.1-3,2.5c-5.2,2.3-10.4,4.5-15.6,6.6
		c-3.4-0.8-6.8-1.6-10.1-2.6C350,611.3,356.4,609.4,362.5,607z"/>
	<path class="st3" d="M163,610.7c1.6-3.2,5.8-2.3,8.7-1.7c2.3,5.6-0.6,11.1-3.7,15.7c-2.8,3.8-7.2,6.6-12,6.2
		c-0.9-0.4-3.4-0.2-2.5-1.8c2.9-3,6.5-5.6,8.4-9.5C163.5,616.9,162.5,613.6,163,610.7z"/>
	<path class="st3" d="M191.5,611.7c8.4,2.6,16.9,5,25.5,6.8c0.2,2.6-0.5,5.7,1.3,7.9c3.3,4.6,9.1,6.1,14,8.3c-2,1.9-4.4,3.5-7.1,3.8
		c-5.9,1.1-11.1-2.5-16.6-4.3c-5.2-1.6-10.3-3.4-15.5-5c-0.7,1.7-2.5,3.5-0.7,5.1c5.1,3,10.8,4.9,16.4,6.7c1.7,0.5,2.7,2.1,4,3.3
		c-0.3,2,0,4.5-1.8,5.9c-3.3,2.6-7.8,3.5-11.8,2.4c-2.1-1.1-3.8-3-5.5-4.7c-2.6-2.5-3.2-6.6-6.5-8.5c-1.4,1.3-2.7,2.6-4,3.9
		c0.7,3.7,0.7,8.2-2.1,11.1c-2.5,2.9-6.6,3.5-9.8,5.2c-3.8,2.1-5,7.7-2.5,11.2c2.5,4.4,8.9,5.7,13.2,3.4c4.4-2.4,2.9-8.6,6.4-11.7
		c2.9-2.7,7.2-2.5,10.9-2.1c5.6,0.3,10.5,3.8,13.9,8c4.1,5.2,7.2,11.4,8.3,18c0,4.5,0.3,10.5-4.1,13.1c-7.1,2.6-14.9,1.3-22.2-0.2
		c-10.1-2.1-19.1-7.6-27.7-13.1c-4.2-2.7-8.3-5.6-11.6-9.5c-2.6-2.7-5.8-6.2-4.5-10.3c2.6-7.5,7.5-14.3,14.1-18.7
		c2.6-2,5.9-3.3,7.9-6c1.2-3.6,1-7.6,3.1-10.9c1.5-2.4,3.5-4.5,5.6-6.5C185.8,620.9,188.5,616.2,191.5,611.7z"/>
	<path class="st3" d="M384.2,624c6.3-2.1,10.4-7.9,15.5-11.9c0.5,0.1,1.4,0.3,1.9,0.5c-2.7,4.5-5.3,9.1-8.8,13l-0.8,0.6
		C389.3,625.4,386.8,624.7,384.2,624z"/>
	<path class="st3" d="M235.7,623.7c6.8,2,13.9,2.7,20.5,5.1c3.3,3.5,7.6,5.6,12,7.5C256.3,639.5,241.5,635.4,235.7,623.7z"/>
	<path class="st3" d="M278,642.1c6.2-0.2,11.9-3.4,18.2-2.5c4.2,1.5,8.7,2.3,13,3.7c5.8,1.9,12.1,2.4,17.7,5
		c3.2,2.7,7.1,4.6,11.2,5.6c2,0.8,3.7-0.5,4.8-2.1c2.3,0.8,4.6,1.5,7.1,2c-2,8-6.2,15.2-11.4,21.6c1.6-0.4,3.8,0.2,4.9-1.3
		c2.8-3.3,4.2-7.7,8.1-10c6-3.1,12.8-3.3,19.2-4.9c2.1,0.7,4.3,1.4,6.5,1.9c-6.4,3.9-13.8,5.5-20.3,9.3c-3.5,2.1-5.9,5.5-8.2,8.8
		c6.6,0.9,13.4,0.6,20,0.1c-3.1,3.5-7.3,6-11.6,7.7c-4.1,1.7-8.8,0.3-12.8,2.5c1.8,1.6,3.8,3.1,5.8,4.4c-1.3,0.8-2.6,1-4.1,0.6
		c-5.7-1-12-1.1-17.3,1.8c-4.3,2.1-7.5,6-9.8,10.1c2.9,1.7,6.9,3.8,5.6,7.9c-1.7,3-4.1,5.7-4,9.4c-3.9,2-7.5,4.6-11.3,6.8
		c0-2.5-0.2-5-1.1-7.3c-1.7-4.6-2.8-9.8-6.7-13.2c-6-4.3-2.1-14.4,4.4-15.7c1.6-0.3,4.8,0.8,3.6,2.9c-1.1,3.2-1.4,6.5-1.1,9.8
		c2.1-4.4,3.9-9.2,7.9-12.2c3.4-3,8.1-3,12.3-3.6c-3-1.2-6.3-0.8-9.5-0.8c0.8-3.8,1.6-8.1,5.2-10.3c4.1-0.6,8.9-0.2,12-3.6
		c-0.7-0.4-2.1-1.1-2.8-1.4c-0.5-4.1-0.8-8.2-1.1-12.3c-1.5-1.4-3-2.9-4.7-4.1c0.1,3.3,4.1,5.5,2.9,9c-0.5,2.4-2.6,4.1-4.5,5.4
		c-1.9-1-2.4-3.3-3.6-5c-1.3-0.5-2.8-0.8-3.6,0.6c-2.1,4.9,0.2,11-3.4,15.4c-3.8,4.6-9.4,8-15.5,8c1.7-3.4,3.3-6.9,5-10.3
		c-0.6,0-1.8,0-2.5,0c-2.9,3.3-7.2,5.8-11.6,5c-4.7-0.8-8.2-4.6-10.3-8.6c-0.8-2.1-1.3-5.5,1.3-6.5c3.6-0.7,7.3-0.1,11-0.2
		c12.5,1.1,23.9-11.7,21.4-24c-0.4,0.4-1.3,1.2-1.7,1.6c-1.8,4.9-3.2,10.4-7.5,13.8c-3.6,3.1-8.9,2.4-13.3,1.7
		c-5.1-0.8-8.9-4.9-10.7-9.5c8,0.1,17.3-2.6,20.5-10.7c-6.7,1.9-13.8,6.6-20.9,3.4C278.2,647.2,278.4,644.3,278,642.1z"/>
	<path class="st3" d="M246.6,641.2c1.8-0.2,4.1-0.2,5.3,1.4c1,2.4,1,5.2,3,7c3.8,0.1,7.3-2.5,11.2-1.8c2.6,0.4,6-0.3,7.8,1.9
		c-0.2,3.1-2.3,5.8-2.5,8.9c-0.2,7.6-1.1,16.1,3.9,22.6c2.7,4.6,9.2,7.4,9,13.4c0,2.1-1.9,3.6-3,5.3c-3.8,4.9-10,7.7-16.2,7.6
		c-12,0.1-24.3,1.6-36-1.8c-1.6-0.7-3.9-1.1-4.4-3c1-4,2.9-7.9,2.8-12.2c0.3-4.4-0.8-8.7-0.7-13c1.3-3.2,5.5-2.3,8.2-2.3
		c2.3-0.1,3.7,1.8,5,3.3c2.6,3.4,6.1,6.1,9.7,8.3c1.3,0.9,2.9,1.5,3.5,3.1c-3.7,0.3-7.5-0.1-11.2,0.4c-2.4,0.5-3.5,3-3.3,5.3
		c-0.2,2.8,2.3,4.5,4.5,5.7c3.9,2.2,8.5,1.1,12.8,1.4c6,0.2,13-1.2,16.4-6.7c3.4-4.3,2.1-10.2-0.1-14.7c-5-10-13.3-18.1-23.2-23.1
		c-1.3,1.4-3.4,3-2.6,5.2c3.2,5.3,10.8,2.6,14.6,7.1c4.5,3.5,7.7,9.3,6.2,15c-1.8,3.9-7.3,3.2-10.3,1.2c-1.9-2.5-1.8-6-3.6-8.5
		c-1.8-2.7-4.3-5.1-7.4-6.3c-4-1.3-8.7,0.6-12.5-1.6c-4.2-2.3-4.1-8-2.9-12c1.8-4.7,0.2-9.6-1.7-14c4.5-0.5,8,2.7,11.2,5.4
		c1.2,0.9,3.3,1.9,4.5,0.4C246.5,647.7,246.1,644.2,246.6,641.2z"/>
	<path class="st3" d="M216,647.7c0.5-2.8,4.2-3.1,6.2-4.5c3.8,2.1,6.9,6.2,7.1,10.6c-1.7,1.3-4.2,2.4-4.4,4.8c0.2,3.3,1.1,7-1.2,9.8
		c-2.3,1.5-6.2,2.2-8.1-0.1c-1.1-2.4-1.6-5-1.5-7.6c1.8-2.2,5-3.1,6-5.9C219.4,652,216.6,650.3,216,647.7z"/>
	<path class="st3" d="M128.1,697.3c4.3-7.6,14.6-10.4,22.5-7.4c7.4,3,14.9,5.7,22.1,8.9c6.5,2.9,13.4,5,19.8,8.3
		c3.7,1.7,7.4,3.5,11.4,4.5c2,0.6,3-1.7,4.2-2.8c-0.2-1.8-2.6-5.1-0.2-5.8c4.2,1,5.9,5.8,6.5,9.7c0.1,2.5,1,6.6-2.6,6.8
		c-8.8-1.1-16.4-6.1-24.7-9c-6.7-2.9-14.1-3.1-21-5.1c-5.8-1.6-11.3-3.8-16.8-6.2c-4.3-1.8-9,0-12.5,2.7
		C134.2,700.1,131.1,698.7,128.1,697.3z"/>
</g>
</svg>
