<?xml version="1.0" encoding="utf-8"?>
<!-- Generator: Adobe Illustrator 21.0.0, SVG Export Plug-In . SVG Version: 6.00 Build 0)  -->
<svg version="1.1" id="Layer_1" xmlns="http://www.w3.org/2000/svg" xmlns:xlink="http://www.w3.org/1999/xlink" x="0px" y="0px"
	 viewBox="0 0 655.69 801.796" style="enable-background:new 0 0 655.69 801.796;" xml:space="preserve">
<style type="text/css">
	.st0{stroke:#000000;stroke-width:0.0938;}
	.st1{fill:#FFFFFF;stroke:#FFFFFF;stroke-width:0.0938;}
	.st2{fill:#28458F;stroke:#28458F;stroke-width:0.0938;}
	.st3{fill:#F8F400;stroke:#F8F400;stroke-width:0.0938;}
</style>
<path class="st0" d="M182.628,23.527c45.49-14.94,93.33-21.73,141.08-23.48c45.32,2.18,90.51,8.95,134.23,21.21
	c33.13,9.39,65.49,22.14,95.07,39.89c24.87,14.93,47.7,33.6,65.84,56.32c16.32,20.38,28.71,43.96,35.87,69.08
	c-6.7,41.71-14.2,83.33-21.2,125c-10.85,63.4-21.71,126.78-32.54,190.18c18.21-0.01,36.43-0.01,54.65,0
	c-16.48,58.54-33.01,117.06-49.48,175.6c-55.1,0.1-110.21-0.08-165.31,0.1c-38.01,41.44-76,82.89-114.04,124.3
	c-38.44-41.42-76.9-82.83-115.3-124.29c-54.59-0.2-109.19-0.03-163.78-0.08c-15.71-58.54-31.37-117.09-47.04-175.63
	c16.28-0.01,32.56-0.01,48.84,0c-16.44-105-33.23-209.96-49.47-314.97c4.71-16.64,13.12-32.02,22.29-46.6
	c17.91-27.66,41.45-51.5,68.18-70.69C118.508,49.337,149.928,34.277,182.628,23.527 M178.148,29.167
	c-34.29,11.84-67.05,28.67-95.58,51.19c-26.73,21.1-49.77,47.18-65.97,77.21c-4.97,9.56-9.97,19.39-12.56,29.86
	c16.37,104.75,32.95,209.48,49.44,314.21c11.3,0.19,22.6,0.02,33.9,0.09c-16.33-104.06-32.71-208.12-49.03-312.19
	c0.13-3.47,2.26-6.56,3.49-9.76c13.42-27.55,34.39-50.88,58.31-69.77c25.43-20,54.55-34.97,84.96-45.81
	c35.85-12.76,73.5-19.92,111.34-23.41c14-1.05,28.07-2.68,42.12-1.54c42.12,2.67,84,10.27,124.15,23.36
	c33.89,11.23,66.69,26.82,94.92,48.89c25.84,20.09,47.24,46.15,60.45,76.2c-17.14,104.68-34.33,209.35-51.5,314.02
	c10.11,0.01,20.21,0,30.32,0.01c3.36-18.2,6.27-36.48,9.47-54.72c14.77-86.58,29.71-173.15,44.39-259.75
	c-5.42-19.89-14.62-38.71-26.23-55.72c-18.18-26.49-42.81-48.08-70.05-64.89c-31.55-19.48-66.42-33.06-102.09-42.85
	c-42.31-11.39-85.92-18.11-129.7-19.77C273.698,5.807,224.598,13.137,178.148,29.167 M201.038,63.017
	c-34.27,10.63-67.29,26.17-95.87,48.04c-24.49,18.83-46.04,42.29-59.68,70.21c-1.25,3.28-3.83,6.52-2.92,10.22
	c16.35,103.41,32.41,206.86,48.83,310.25c20.68-0.14,41.36,0.21,62.03-0.18c4.12-8.6,8.53-17.05,12.71-25.62
	c0.96-2.62,3.76-3.59,5.87-5.06c51.59-32.68,103.16-65.38,154.75-98.06c51.66,32.84,103.28,65.75,154.94,98.6
	c1.99,1.35,4.56,2.32,5.38,4.81c3.9,8.46,8.02,16.82,11.84,25.32c21.23,0.39,42.48,0.08,63.71,0.16
	c17.06-103.73,34.01-207.47,51.08-311.2c0.82-2.82-1.23-5.25-2.24-7.72c-13.93-28.9-35.9-53.46-61.67-72.36
	c-29.17-21.45-62.69-36.32-97.18-46.91c-40.23-12.08-82-19.19-123.97-20.83C285.518,44.227,242.348,50.287,201.038,63.017
	 M174.208,474.117c-1.71,1.21-4.01,1.98-4.82,4.09c-3.88,7.85-7.83,15.68-11.74,23.52c112.37-0.01,224.75-0.01,337.12,0
	c-3.98-8.21-7.65-16.57-11.77-24.7c-51.95-33.38-104.18-66.37-156.24-99.59C275.908,409.667,225.068,441.907,174.208,474.117
	 M5.658,505.737c15.25,55.85,29.98,111.84,45.05,167.74c184.16-0.02,368.32,0.02,552.47-0.02c15.75-55.96,31.55-111.9,47.3-167.86
	c-161.3,0.01-322.6,0-483.9,0C112.938,505.687,59.298,505.417,5.658,505.737 M216.708,677.337c36.7,39.54,73.38,79.09,110.08,118.62
	c36.28-39.53,72.55-79.08,108.82-118.62c-13.01,0.04-26.01-0.02-39.02,0.03c-1.17-0.06-2.12,0.37-2.84,1.3
	c-22.24,22.18-44.55,44.29-66.79,66.46c-22.72-22.6-45.46-45.18-68.21-67.75C244.738,677.307,230.728,677.387,216.708,677.337
	 M264.298,677.347c20.84,20.76,41.78,41.43,62.59,62.22c20.97-20.65,41.75-41.49,62.64-62.21
	C347.788,677.347,306.048,677.367,264.298,677.347z"/>
<path class="st1" d="M178.148,29.167c46.45-16.03,95.55-23.36,144.55-25.14c43.78,1.66,87.39,8.38,129.7,19.77
	c35.67,9.79,70.54,23.37,102.09,42.85c27.24,16.81,51.87,38.4,70.05,64.89c11.61,17.01,20.81,35.83,26.23,55.72
	c-14.68,86.6-29.62,173.17-44.39,259.75c-3.2,18.24-6.11,36.52-9.47,54.72c-10.11-0.01-20.21,0-30.32-0.01
	c17.17-104.67,34.36-209.34,51.5-314.02c-13.21-30.05-34.61-56.11-60.45-76.2c-28.23-22.07-61.03-37.66-94.92-48.89
	c-40.15-13.09-82.03-20.69-124.15-23.36c-14.05-1.14-28.12,0.49-42.12,1.54c-37.84,3.49-75.49,10.65-111.34,23.41
	c-30.41,10.84-59.53,25.81-84.96,45.81c-23.92,18.89-44.89,42.22-58.31,69.77c-1.23,3.2-3.36,6.29-3.49,9.76
	c16.32,104.07,32.7,208.13,49.03,312.19c-11.3-0.07-22.6,0.1-33.9-0.09c-16.49-104.73-33.07-209.46-49.44-314.21
	c2.59-10.47,7.59-20.3,12.56-29.86c16.2-30.03,39.24-56.11,65.97-77.21C111.098,57.837,143.858,41.007,178.148,29.167z"/>
<path class="st2" d="M201.038,63.017c41.31-12.73,84.48-18.79,127.61-20.33c41.97,1.64,83.74,8.75,123.97,20.83
	c34.49,10.59,68.01,25.46,97.18,46.91c25.77,18.9,47.74,43.46,61.67,72.36c1.01,2.47,3.06,4.9,2.24,7.72
	c-17.07,103.73-34.02,207.47-51.08,311.2c-21.23-0.08-42.48,0.23-63.71-0.16c-3.82-8.5-7.94-16.86-11.84-25.32
	c-0.82-2.49-3.39-3.46-5.38-4.81c-51.66-32.85-103.28-65.76-154.94-98.6c-51.59,32.68-103.16,65.38-154.75,98.06
	c-2.11,1.47-4.91,2.44-5.87,5.06c-4.18,8.57-8.59,17.02-12.71,25.62c-20.67,0.39-41.35,0.04-62.03,0.18
	c-16.42-103.39-32.48-206.84-48.83-310.25c-0.91-3.7,1.67-6.94,2.92-10.22c13.64-27.92,35.19-51.38,59.68-70.21
	C133.748,89.187,166.768,73.647,201.038,63.017 M274.318,210.697c-52.83-11.76-105.64-23.59-158.46-35.35
	c44.63,42.05,89.32,84.04,133.96,126.08c-25.74,52.66-51.55,105.28-77.27,157.94c51.37-32.75,102.72-65.54,154.1-98.29
	c51.31,32.85,102.6,65.76,153.92,98.59c-25.66-52.7-51.34-105.39-76.99-158.09c44.73-41.95,89.5-83.86,134.22-125.82
	c-52.85,11.66-105.69,23.37-158.53,35.05c-17.47-48.85-34.87-97.73-52.34-146.58C309.368,113.037,291.858,161.877,274.318,210.697z"
	/>
<path class="st1" d="M274.318,210.697c17.54-48.82,35.05-97.66,52.61-146.47c17.47,48.85,34.87,97.73,52.34,146.58
	c52.84-11.68,105.68-23.39,158.53-35.05c-44.72,41.96-89.49,83.87-134.22,125.82c25.65,52.7,51.33,105.39,76.99,158.09
	c-51.32-32.83-102.61-65.74-153.92-98.59c-51.38,32.75-102.73,65.54-154.1,98.29c25.72-52.66,51.53-105.28,77.27-157.94
	c-44.64-42.04-89.33-84.03-133.96-126.08C168.678,187.107,221.488,198.937,274.318,210.697 M280.458,221.827
	c-44.26-9.85-88.5-19.75-132.75-29.61c37.89,35.73,75.86,71.38,113.77,107.09c-21.8,44.6-43.66,89.17-65.45,133.77
	c43.55-27.76,87.08-55.55,130.62-83.32c43.49,27.85,86.97,55.74,130.47,83.57c-21.71-44.64-43.48-89.26-65.2-133.9
	c37.99-35.63,76.02-71.22,113.99-106.86c-44.27,9.77-88.53,19.57-132.79,29.37c-15.43-43.13-30.8-86.29-46.22-129.42
	C311.388,135.607,295.938,178.727,280.458,221.827z"/>
<path class="st2" d="M280.458,221.827c15.48-43.1,30.93-86.22,46.44-129.31c15.42,43.13,30.79,86.29,46.22,129.42
	c44.26-9.8,88.52-19.6,132.79-29.37c-37.97,35.64-76,71.23-113.99,106.86c21.72,44.64,43.49,89.26,65.2,133.9
	c-43.5-27.83-86.98-55.72-130.47-83.57c-43.54,27.77-87.07,55.56-130.62,83.32c21.79-44.6,43.65-89.17,65.45-133.77
	c-37.91-35.71-75.88-71.36-113.77-107.09C191.958,202.077,236.198,211.977,280.458,221.827 M286.588,232.967
	c-35.69-7.94-71.36-15.94-107.05-23.87c31.19,29.37,62.42,58.71,93.6,88.1c-17.87,36.52-35.77,73.04-53.62,109.58
	c35.73-22.75,71.42-45.57,107.14-68.33c35.69,22.84,71.33,45.73,107.03,68.54c-17.79-36.57-35.61-73.13-53.42-109.69
	c31.22-29.33,62.52-58.58,93.75-87.91c-35.68,7.87-71.37,15.75-107.03,23.68c-13.43-37.4-26.72-74.85-40.12-112.26
	C313.418,158.187,300.028,195.587,286.588,232.967z"/>
<path class="st3" d="M286.588,232.967c13.44-37.38,26.83-74.78,40.28-112.16c13.4,37.41,26.69,74.86,40.12,112.26
	c35.66-7.93,71.35-15.81,107.03-23.68c-31.23,29.33-62.53,58.58-93.75,87.91c17.81,36.56,35.63,73.12,53.42,109.69
	c-35.7-22.81-71.34-45.7-107.03-68.54c-35.72,22.76-71.41,45.58-107.14,68.33c17.85-36.54,35.75-73.06,53.62-109.58
	c-31.18-29.39-62.41-58.73-93.6-88.1C215.228,217.027,250.898,225.027,286.588,232.967z"/>
<path class="st1" d="M174.208,474.117c50.86-32.21,101.7-64.45,152.55-96.68c52.06,33.22,104.29,66.21,156.24,99.59
	c4.12,8.13,7.79,16.49,11.77,24.7c-112.37-0.01-224.75-0.01-337.12,0c3.91-7.84,7.86-15.67,11.74-23.52
	C170.198,476.097,172.498,475.327,174.208,474.117z"/>
<path class="st1" d="M5.658,505.737c53.64-0.32,107.28-0.05,160.92-0.14c161.3,0,322.6,0.01,483.9,0
	c-15.75,55.96-31.55,111.9-47.3,167.86c-184.15,0.04-368.31,0-552.47,0.02C35.638,617.577,20.908,561.587,5.658,505.737
	 M285.268,542.007c-7.62,8.68-9.64,21.93-4.64,32.39c3.71,7.27,9.69,13.23,16.49,17.65c9.45,6.36,19.43,11.89,29.17,17.81
	c2.28,1.48,5.02,2.94,5.89,5.72c0.49,3.36-2.34,5.95-4.94,7.53c-5.65,3.28-12.55,2.74-18.72,1.56c-6.72-1.49-13.46-3.34-19.55-6.63
	c-3.52,8.07-7.07,16.11-10.58,24.18c12.08,6.16,25.7,9.3,39.23,9.62c14.3,0.03,29.89-3.54,39.87-14.49
	c9.82-10.38,10.67-28.03,1.42-39.03c-11.38-14.13-28.69-21.11-43.72-30.46c-1.87-1.27-4.14-2.78-4.14-5.32
	c-0.18-4.65,4.49-7.7,8.62-8.31c9.77-1.28,19.33,1.94,28.47,5c3.18-7.24,6.36-14.48,9.54-21.72c-13.03-8.13-28.98-11.07-44.14-9.31
	C302.958,529.427,292.348,533.827,285.268,542.007 M456.638,530.667c-13.71,4.06-26.27,12.65-33.96,24.83
	c-9.52,14.32-11.46,32.49-8.53,49.14c2.68,14.9,10.96,29.31,24.16,37.23c15.83,9.81,35.39,11.57,53.48,8.76
	c8.92-1.47,18.21-2.93,26.07-7.69c-0.2-20.78-0.03-41.56-0.09-62.34c-15.55,0-31.11-0.01-46.66,0.01
	c-0.92,7.81-1.89,15.61-2.81,23.43c6.87,0.01,13.73-0.01,20.6,0.01c0,6.83-0.01,13.67,0,20.51c-8.11,1.37-16.8,1.82-24.46-1.69
	c-9.57-3.92-15.88-13.47-17.59-23.45c-1.75-10.34-0.97-21.74,5.05-30.65c4.94-7.98,13.61-13.4,22.89-14.61
	c11-0.99,21.92,1.57,32.27,5.06c3.19-7.24,6.36-14.48,9.55-21.72c-4.33-2.77-9.11-4.78-14.04-6.19
	C487.678,527.127,471.568,526.167,456.638,530.667 M142.718,529.967c-0.02,39.88-0.01,79.75-0.01,119.63c29.22,0,58.44,0,87.66,0
	c-1-8.42-2-16.83-3.01-25.25c-17.53,0-35.05,0-52.58,0c-0.01-7.41,0-14.83,0-22.24c13.25-0.01,26.5-0.01,39.75,0
	c-1-8.4-1.99-16.8-3-25.2c-12.25,0-24.5,0-36.75,0c-0.01-7.25-0.01-14.5,0-21.74c18.53-0.01,37.06,0,55.59-0.01
	c-1.01-8.39-2-16.79-3-25.19C199.148,529.967,170.928,529.977,142.718,529.967z"/>
<path class="st0" d="M285.268,542.007c7.08-8.18,17.69-12.58,28.27-13.81c15.16-1.76,31.11,1.18,44.14,9.31
	c-3.18,7.24-6.36,14.48-9.54,21.72c-9.14-3.06-18.7-6.28-28.47-5c-4.13,0.61-8.8,3.66-8.62,8.31c0,2.54,2.27,4.05,4.14,5.32
	c15.03,9.35,32.34,16.33,43.72,30.46c9.25,11,8.4,28.65-1.42,39.03c-9.98,10.95-25.57,14.52-39.87,14.49
	c-13.53-0.32-27.15-3.46-39.23-9.62c3.51-8.07,7.06-16.11,10.58-24.18c6.09,3.29,12.83,5.14,19.55,6.63
	c6.17,1.18,13.07,1.72,18.72-1.56c2.6-1.58,5.43-4.17,4.94-7.53c-0.87-2.78-3.61-4.24-5.89-5.72c-9.74-5.92-19.72-11.45-29.17-17.81
	c-6.8-4.42-12.78-10.38-16.49-17.65C275.628,563.937,277.648,550.687,285.268,542.007z"/>
<path class="st0" d="M456.638,530.667c14.93-4.5,31.04-3.54,45.93,0.64c4.93,1.41,9.71,3.42,14.04,6.19
	c-3.19,7.24-6.36,14.48-9.55,21.72c-10.35-3.49-21.27-6.05-32.27-5.06c-9.28,1.21-17.95,6.63-22.89,14.61
	c-6.02,8.91-6.8,20.31-5.05,30.65c1.71,9.98,8.02,19.53,17.59,23.45c7.66,3.51,16.35,3.06,24.46,1.69c-0.01-6.84,0-13.68,0-20.51
	c-6.87-0.02-13.73,0-20.6-0.01c0.92-7.82,1.89-15.62,2.81-23.43c15.55-0.02,31.11-0.01,46.66-0.01c0.06,20.78-0.11,41.56,0.09,62.34
	c-7.86,4.76-17.15,6.22-26.07,7.69c-18.09,2.81-37.65,1.05-53.48-8.76c-13.2-7.92-21.48-22.33-24.16-37.23
	c-2.93-16.65-0.99-34.82,8.53-49.14C430.368,543.317,442.928,534.727,456.638,530.667z"/>
<path class="st0" d="M142.718,529.967c28.21,0.01,56.43,0,84.65,0c1,8.4,1.99,16.8,3,25.19c-18.53,0.01-37.06,0-55.59,0.01
	c-0.01,7.24-0.01,14.49,0,21.74c12.25,0,24.5,0,36.75,0c1.01,8.4,2,16.8,3,25.2c-13.25-0.01-26.5-0.01-39.75,0
	c0,7.41-0.01,14.83,0,22.24c17.53,0,35.05,0,52.58,0c1.01,8.42,2.01,16.83,3.01,25.25c-29.22,0-58.44,0-87.66,0
	C142.708,609.717,142.698,569.847,142.718,529.967z"/>
<path class="st1" d="M216.708,677.337c14.02,0.05,28.03-0.03,42.04,0.04c22.75,22.57,45.49,45.15,68.21,67.75
	c22.24-22.17,44.55-44.28,66.79-66.46c0.72-0.93,1.67-1.36,2.84-1.3c13.01-0.05,26.01,0.01,39.02-0.03
	c-36.27,39.54-72.54,79.09-108.82,118.62C290.088,756.427,253.408,716.877,216.708,677.337z"/>
<path class="st2" d="M264.298,677.347c41.75,0.02,83.49,0,125.23,0.01c-20.89,20.72-41.67,41.56-62.64,62.21
	C306.078,718.777,285.138,698.107,264.298,677.347z"/>
</svg>
