<?xml version="1.0" encoding="utf-8"?>
<!-- Generator: Adobe Illustrator 19.0.0, SVG Export Plug-In . SVG Version: 6.00 Build 0)  -->
<svg version="1.1" id="Layer_1" xmlns="http://www.w3.org/2000/svg" xmlns:xlink="http://www.w3.org/1999/xlink" x="0px" y="0px"
	 viewBox="-133.8 294.1 274.1 253.4" style="enable-background:new -133.8 294.1 274.1 253.4;" xml:space="preserve">
<style type="text/css">
	.st0{fill:#17181C;}
</style>
<g id="_x23_17181cff">
	<path class="st0" d="M-48.2,394.1c-13.1-32.6-25.3-65.8-33.7-99.9c24.8,27.5,49.1,55.5,73.7,83.3c-11,1.1-22.1-1.7-32.9-3.7
		c9.8,7.3,21.4,11.5,32.8,15.5c2.4,26.2,5.4,52.4,6.8,78.7c-5.6-1.3-11.4-2.1-16.8-3.9C-28.9,441-38.7,417.6-48.2,394.1z"/>
	<path class="st0" d="M14.2,377.4c24.6-27.7,48.8-55.7,73.6-83.2c-4.1,16.6-8.9,32.9-14.6,49C58,386.9,39.9,429.6,20.9,471.7
		c-4.6-0.9-9.2-1.4-13.8-2.2c2.3-26.8,4.7-53.6,7-80.3c11.4-4,23.1-8.2,32.9-15.5C36.2,375.6,25.2,378.5,14.2,377.4z"/>
	<path class="st0" d="M-90,397.4c5.6-17.5,11.9-34.9,20.2-51.4c7.4,20.8,15.3,41.5,23.7,61.9C-58,418.6-68,431.1-76.9,444.3
		c-7.8-3.8-15.5-8.1-22-14.1c1.7-6.5,3.3-13.1,5-19.6c-4.2,1.5-8.9,3.4-11,7.7c-1.9,3.9,0.4,8.4,3,11.5c7.3,7.9,17.1,12.9,26.6,17.5
		c26.6,12,55,19.2,83.6,24.3c18.1,3.1,36.3,5.1,54.7,5.4c11.7,0,23.6-0.5,35-3.5c4.4-1.4,9-3,12.2-6.5c3-3.3,2.3-8.5-0.1-11.8
		c0.5,3.5,1.3,7.5-1.2,10.5c-2.7,2.7-6.3,4.5-10.1,5.3c-12.3-23.1-27.1-45.3-46.6-63c8.3-20.5,16.3-41.1,23.7-61.9
		c14.1,28.5,23.3,59.2,30.3,90.1c9.4,4.6,18.8,9.8,26.5,17c3.9,3.6,7.5,8.3,7.8,13.8c-0.2,4.7-3.9,8.2-7.7,10.5
		c-6,3.4-12.8,5.1-19.6,6.3c-15.9,2.7-32,2.6-48.1,2c-30.4-1.6-60.6-6.4-90.3-13.5c-27.4-6.8-54.8-15.1-79.9-28.2
		c-9.4-5-18.8-10.8-25.6-19.3c-2.6-3.4-3.9-8-2.4-12.1c2.2-4.7,7-7.5,11.7-9.3C-111.5,399.3-100.7,398-90,397.4z"/>
	<path class="st0" d="M-5,403.2c5.3,0.9,10.6,2,15.9,2.9c-0.1,2.6-0.6,5.1-0.9,7.6c-4.8-1-9.6-1.9-14.4-2.6
		C-4.7,408.5-4.9,405.9-5,403.2z"/>
	<path class="st0" d="M44.8,422.3c0.9-2.5,1.9-4.9,3-7.3c5,1.8,11.4,1.7,14.9,6.3c2.8,3.2,5.5,6.5,8.2,9.8
		C62.2,427.9,53.6,424.8,44.8,422.3z"/>
	<path class="st0" d="M-110.8,510.5c1.6-21.1,4.1-42.1,8.5-62.8c5.8,3.2,12.1,5.5,18,8.3C-95,473.2-103.1,491.8-110.8,510.5z"/>
	<path class="st0" d="M-12.4,477.2c4,0.6,8,1.5,12,2.3c1,9.5,2,19.1,2.3,28.6C-3,497.8-7.9,487.6-12.4,477.2z"/>
	<path class="st0" d="M6.1,480.9c3.4,0.3,6.7,0.8,10.1,1.3c-3.9,8.7-8,17.4-12.1,26C4.2,499.1,5.6,490,6.1,480.9z"/>
	<path class="st0" d="M106.5,486.3c2.6-0.2,5.2-0.6,7.8-0.9c1.2,8.3,1.8,16.6,2.5,25C113.3,502.4,110,494.3,106.5,486.3z"/>
	<path class="st0" d="M-109.5,547.5c0-10.3,0-20.5,0-30.8c3.8,0,7.5,0,11.3,0c2.5,6.9,5,13.8,7.1,20.8c2.1-7,4.4-14,7.1-20.8
		c3.9,0,7.8,0,11.7,0c0,10.3,0,20.5,0,30.8c-2.5,0-5.1,0-7.6,0c-0.4-8.4,0.8-16.7,0.6-25c-2,8.6-5.6,16.7-8.4,25c-2.2,0-4.3,0-6.5,0
		c-3.2-7.9-5.8-16.1-8.7-24.1c0.6,8,0.6,16,0.5,24.1C-104.8,547.5-107.1,547.5-109.5,547.5z"/>
	<path class="st0" d="M-28.6,517.3c3.8-1,7.8-0.6,11.7-0.6c3.8,0,7.7,2.4,8.8,6.2c1.3,4.2,0.6,8.7,0.7,13c0.1,3.8-1,8.1-4.6,10.1
		c-4.3,2-9.3,1.5-13.9,1.4c-3.7-0.1-7.7-2.1-8.8-5.9c-1.4-5.8-0.9-11.8-0.3-17.6C-34.5,520.6-31.8,518.1-28.6,517.3 M-25.6,523.5
		c-0.3,0.1-0.9,0.4-1.1,0.5c-2.3,3.9-1.3,8.8-1.2,13c-0.1,2.3,1.7,4.2,4,4.1c2.9,0,7.3,0.9,8.7-2.4c0.6-4.2,0.4-8.5,0.2-12.8
		C-16.5,521.8-22.3,522.8-25.6,523.5z"/>
	<path class="st0" d="M27.5,516.7c8.1,0,16.1,0,24.2,0c0,2.1,0,4.1,0,6.2c-2.9,0-5.9,0-8.8,0c-0.2,8.2,0,16.4-0.1,24.6
		c-2.4,0-4.7,0-7.1,0c0-8.2,0-16.4,0-24.6c-2.7,0-5.4,0-8.2,0C27.5,520.8,27.5,518.8,27.5,516.7z"/>
	<path class="st0" d="M85.9,516.7c2.5,0,4.9,0,7.4,0c2.7,8.2,5.2,16.4,7.4,24.7c2.2-8.3,4.9-16.5,7.4-24.7c2.5,0,5,0,7.5,0
		c-3.1,10.3-6.3,20.5-9.4,30.8c-3.7,0-7.4,0-11.1,0.1C92.1,537.3,89.1,527,85.9,516.7z"/>
</g>
</svg>
