<svg id="Layer_1" data-name="Layer 1" xmlns="http://www.w3.org/2000/svg" viewBox="0 0 637.1 649.77"><defs><style>.cls-1{fill:#ed1b22;}.cls-2,.cls-7{fill:#fefefe;}.cls-3{fill:#adadad;}.cls-4{fill:#a21318;}.cls-5{fill:#878888;}.cls-6{fill:#dfdddd;}.cls-7{opacity:0.49;}.cls-8{fill:#6f0d11;}.cls-9{fill:#505151;}.cls-10{fill:#fff;}.cls-11{fill:#aeb0b3;}</style></defs><title>RINSLogoRedStroke</title><path class="cls-1" d="M611.84,407.81c-0.3.09-27,8.44-70.24,17.55q1.68-6.72,3.13-13.58c9-42.09,12-87,9-133.41-2.72-42.52-9.63-72.06-12.85-84,4.17-11.28,1.67-23.11-7.14-33-7.06-7.91-21.21-13.22-35.22-13.22a41.05,41.05,0,0,0-19.13,4.25c-11.75-5.34-29.52-9-45.37-9-1.72,0-3.41,0-5.08.12-14.22-42.43-67.14-63.83-69.54-64.78l-23.65-9.36,9.87,20.7L319.43,78.27,332,99.05a187.12,187.12,0,0,0-37.56-4.24,117,117,0,0,0-15.91,1C267.69,83.4,263.7,56.16,263.07,45.92l-1.78-29L244.85,40.86c-1,1.49-20.41,29.92-28.28,57.13-8.95-13.1-10.71-29.61-10.73-29.83l-2.93-32.87-15.81,29c-1.11,2-25.74,48-14.18,95.77a135.53,135.53,0,0,0-54.19,62.08c-8.59,19.69-10.28,35.82-10.54,39-0.47,3.09-3,20.7-3.35,47.5-0.33,26.62,1.57,67.79,12.5,112.72,0.31,1.27.62,2.53,0.94,3.79-42.63-9-68.88-17.24-69.18-17.33L11.92,396.2l27,28.08,29.25,30.44c7.43,7.73,20.8,20.37,26.93,26.13l-0.6,147-0.06,14.28,13.44-4.83c0.16-.06,17.82-6.28,53.56-12.42,18.86-3.24,45.1-6.84,78.59-9.33a374.33,374.33,0,0,0,86.65,49.57l3.81,1.57,3.81-1.57q48.29-19.91,86.61-49.57c33.5,2.49,59.75,6.09,78.62,9.33,35.75,6.14,53.4,12.36,53.57,12.42l13.44,4.83-0.06-14.28-0.6-147c6.13-5.76,19.5-18.4,26.93-26.13L622,424.28l27-28.08Z" transform="translate(-11.92 -16.94)"/><path d="M585.58,447.79c-9.56,10-29.74,28.73-29.74,28.73l0.62,151.39s-39.9-14.34-124.25-21.49q-7-.6-14.37-1.11c-14.9-1-31.06-1.87-48.48-2.35,3.7,1.56,12.76,4.46,20.9,7s15.35,4.63,15.35,4.63a367.64,367.64,0,0,1-75.14,41.35,368.66,368.66,0,0,1-75.14-41.35s7.21-2.12,15.35-4.63,17.2-5.4,20.9-7c-17.43.48-33.59,1.3-48.5,2.35-4.93.34-9.73,0.72-14.39,1.11-84.33,7.15-124.21,21.49-124.21,21.49l0.61-151.39s-20.17-18.78-29.73-28.73L46.12,417.36c0.77,0.23,31.57,9.89,75.23,19.19q5.41,1.17,11.09,2.31c24.07,4.84,51.31,9.36,79.22,12.14-9.8-2.1-53.44-13.65-82.46-23.61-23.6-88.66-11.07-165.1-11.07-165.1s3.85-64,66.54-97.46c-15.44-46.94,11.21-95.78,11.21-95.78S199,103.64,223.3,118c0.16-28.33,29.79-71.45,29.79-71.45s2.65,44.37,22.2,60a102.09,102.09,0,0,1,19.2-1.69c27.74,0,54.9,9.07,58.82,10l-8.52-14,21.67,9.84-10.7-22.46c0.89,0.35,57.53,23.08,65.7,66.22A87.08,87.08,0,0,1,434,153.5c18.66,0,37.66,5.2,46,10.59,4.62-4.16,11.44-5.89,18.53-5.89,11,0,22.66,4.16,27.75,9.88,7,7.89,8.41,17,4,25.61,10.36,35.47,26.53,133.75.35,234.07-29,9.87-71.71,21.17-81.39,23.24,27.54-2.74,54.44-7.19,78.27-12q5.65-1.12,11.06-2.28c44.17-9.37,75.43-19.16,76.2-19.4Z" transform="translate(-11.92 -16.94)"/><path class="cls-2" d="M512.52,187.69s-9.55-9.89-12.8-.57c0,0-15-8.68-5.55-11.68,4.06-1.28,14.88.56,17.69,3.7S515,184.24,512.52,187.69Z" transform="translate(-11.92 -16.94)"/><path class="cls-3" d="M392.08,342.66s4.26,19.45-11.86,34.09c0,0-15.7,12.44-47.1-16,0,0-30.33-32.47-12.73-72.45,0,0,.93,9.5,12.74,11.32,0,0-4,7.84-12.84,8.36,0,0,3.83,11,15.18,8.1,0,0-1.87,9.63-9.48,14.13,0,0,7,6.39,15.25,2,0,0,1.69,9.74-5.69,14.34a51.59,51.59,0,0,0,32-18.5s3.23,18.87-12,31.72c0,0,8.75-.33,11.68-4.06a12.21,12.21,0,0,1-3.25,8.07s7.27-1.4,10-6.25c0,0,.55,5-3.08,7.39C370.89,364.86,382.62,364.81,392.08,342.66Z" transform="translate(-11.92 -16.94)"/><path class="cls-2" d="M380.22,376.75s-6.07,4.8-18.19,1.61c25.76-8.06,30-35.7,30-35.7S396.34,362.11,380.22,376.75Z" transform="translate(-11.92 -16.94)"/><path class="cls-2" d="M374,357.47s1.28,14.62-15,19.95l-4.59-1.88S371.86,370.77,374,357.47Z" transform="translate(-11.92 -16.94)"/><path class="cls-2" d="M367.18,355.65s1.19,12.85-16,18.27l-4-2.38S364.63,367.47,367.18,355.65Z" transform="translate(-11.92 -16.94)"/><path class="cls-2" d="M315.18,308a62,62,0,0,1,1.9-10.36c3.18,2.68,9.31,6.28,16.06,2C333.13,299.57,327.81,311.08,315.18,308Z" transform="translate(-11.92 -16.94)"/><path class="cls-2" d="M317.5,331.85a66.56,66.56,0,0,1-2.39-13c3.89,3.39,10.91,6.31,20.36-2.82C335.46,316,332.93,332.78,317.5,331.85Z" transform="translate(-11.92 -16.94)"/><path class="cls-2" d="M340,366.51c-2.2-1.71-4.49-3.64-6.88-5.8a56.08,56.08,0,0,1-4.19-5.31c8,0.16,26.93-2.34,38.58-27.41,0,0,4.47,31.65-27.51,38.52h0Z" transform="translate(-11.92 -16.94)"/><path class="cls-2" d="M326.18,351.25a81.54,81.54,0,0,1-4-7.19c4.31,0.45,16,.47,19-11.91C341.23,332.15,345,346.94,326.18,351.25Z" transform="translate(-11.92 -16.94)"/><path class="cls-2" d="M372.08,258.45" transform="translate(-11.92 -16.94)"/><path class="cls-3" d="M383.24,234.05c21.3-4.3,61.53,1,70.73,16.21,0,0,7-5.16,10.43,4.12,0,0,9.25-5.7,12.09,2.84,0,0,21.53-10.65,20.38,4.85,0,0-5,31.72-34.48,40.44,0,0,18.93-23.38,13.4-38.95,0,0-1,8.66-9.63,10.85,0,0,2.92-10.34-1.32-13.79,0,0-2.39,9.25-8.9,11.32,0,0,1.85-11.51-1.67-15.77,0,0-2.3,20.91-26.51,35.67,0,0,10.74-26.21.69-48,0,0,1.14,8.73-8.28,13.58,0,0-2.24-14.08-9.82-16.14,0,0,1.34,7.13-7.17,13.52,0,0-4.14-13.87-10.9-12.79,0,0,.48,6-4.73,12.8,0,0-5.49-11.77-12.19-11,0,0,1.32,10.38-3.3,14.64,0,0-7.69-10.16-13.55-6.86a25,25,0,0,1-.16,12.81s-14.95-12.9-32.54,5.76C325.82,270.16,341.18,242.55,383.24,234.05Z" transform="translate(-11.92 -16.94)"/><path class="cls-2" d="M482.28,255h0c6.29-2,15.36-3.1,14.61,7.11,0,0-5,31.72-34.48,40.44C462.41,302.51,486.49,280.47,482.28,255Z" transform="translate(-11.92 -16.94)"/><path class="cls-2" d="M414.16,233.45a117.46,117.46,0,0,1,11.8,2c8.91,16.11-5.77,22-5.77,22C422,242.89,417.84,236.36,414.16,233.45Z" transform="translate(-11.92 -16.94)"/><path class="cls-2" d="M457.13,248.94c2.31-.43,5.89-0.06,7.79,5.16h0c2.6,13.78-9,17.83-9,17.83A29.92,29.92,0,0,0,457.13,248.94Z" transform="translate(-11.92 -16.94)"/><path class="cls-2" d="M469.92,252.55c2.53-.19,5.26.69,6.59,4.68,0.4,16.29-10.32,17.18-10.32,17.18C471.7,266.58,470.8,257.1,469.92,252.55Z" transform="translate(-11.92 -16.94)"/><path class="cls-2" d="M436.3,238.35c8.1,2.88,14.61,6.85,17.67,11.92,3.21,26.23-26.19,41.57-26.19,41.57C443.62,271.36,438.63,246.64,436.3,238.35Z" transform="translate(-11.92 -16.94)"/><path class="cls-2" d="M351.32,246.17c12.35,1.45,7,18.23,7,18.23-6.25-11-13.86-11.26-19.66-9.06A86.64,86.64,0,0,1,351.32,246.17Z" transform="translate(-11.92 -16.94)"/><path class="cls-2" d="M372.59,236.76c8,14.08-.51,21.69-0.51,21.69-2-12.35-9.38-15.2-14.77-15.56A99,99,0,0,1,372.59,236.76Z" transform="translate(-11.92 -16.94)"/><path class="cls-2" d="M377.43,235.39q2.82-.73,5.81-1.34c1.08-.22,2.21-0.41,3.38-0.58,12.79,8.85.95,21.33,0.95,21.33C386.52,243.86,381.29,238.15,377.43,235.39Z" transform="translate(-11.92 -16.94)"/><path class="cls-2" d="M393.31,232.8a115.34,115.34,0,0,1,14.23.06c9.08,14.09-4.33,21.94-4.33,21.94C403.25,241,397.63,235.22,393.31,232.8Z" transform="translate(-11.92 -16.94)"/><path class="cls-4" d="M258.74,310.47v0l-0.06-.12Z" transform="translate(-11.92 -16.94)"/><path class="cls-5" d="M258.74,310.49s5.62,24.93,20.28,33.41c-9.59-27.77,5.2-52.27,5.2-52.27,38.56,125.63,99.39,93.08,99.39,93.08,11.36,10,2.17,24.59-17.19,20.58,0,0,3.72,6,16.23,5.51-4.09,23.12-32.78,30-32.78,30,12.44-11.74,4.89-28,4.89-28C340.44,439.7,320,436.71,320,436.71c8.47-15.5-.38-25.66-0.38-25.66-10.2,16.58-24.14,9.37-24.14,9.37,4.86-9.16,1-25.1-5.72-41.52-1.89,2.68-7.71,11.89-5.76,19.75C284,398.63,243.74,359.94,258.74,310.49Z" transform="translate(-11.92 -16.94)"/><path class="cls-6" d="M383.6,384.71h0c11.36,10,2.17,24.59-17.19,20.58-10.14-1.75-70-17.7-82.2-113.66C322.77,417.26,383.6,384.71,383.6,384.71Z" transform="translate(-11.92 -16.94)"/><path class="cls-7" d="M379.79,391.64s-21.12,5.95-34.93-3.52a37.16,37.16,0,0,0,25,11.36C385.45,400,379.79,391.64,379.79,391.64Z" transform="translate(-11.92 -16.94)"/><path class="cls-6" d="M302,414.35c8.82,0.68,16.44-15.26,16.44-15.26,11.62,5.56,13.13,25.62,13.13,25.62,16-3.3,21.21-20.27,21.21-20.27,13.22,11.68,9.68,23.56,9.68,23.56,16.16-5.35,20.14-17.2,20.14-17.2-4.09,23.12-32.78,30-32.78,30,12.44-11.74,4.89-28,4.89-28C340.44,439.7,320,436.71,320,436.71c8.47-15.5-.38-25.66-0.38-25.66-10.2,16.58-24.14,9.37-24.14,9.37,4.86-9.16,1-25.1-5.72-41.52C300.64,394.82,302,414.35,302,414.35Z" transform="translate(-11.92 -16.94)"/><path class="cls-8" d="M258.74,310.47v0l-0.06-.12Z" transform="translate(-11.92 -16.94)"/><path class="cls-9" d="M258.74,310.49s5.62,24.93,20.28,33.41c-9.59-27.77,5.2-52.26,5.2-52.27h0s-10.66,30.24,3.9,62.53c0,0-15.9-3.23-25.27-11.8,0,0,8.14,38.8,21.17,56.27C284,398.63,243.74,359.94,258.74,310.49Z" transform="translate(-11.92 -16.94)"/><path class="cls-5" d="M247.4,94.83c-9.23,19.37-9.82,39.23-7.08,56.3l0.07,0L266,164.31l-13.68,24.42a102.42,102.42,0,0,0,5.13,9.55c14.74-46.4,57.29-52.55,57.29-52.55C262.55,146.15,247.4,94.83,247.4,94.83Z" transform="translate(-11.92 -16.94)"/><path class="cls-6" d="M499.13,205.33a29.91,29.91,0,0,0-.59-4.45c-20.94-3-22.16-20.17-22.16-20.17-25.33-16.8-48.36,2-48.36,2a15.72,15.72,0,0,1,5.42-9.4c-19-4.55-30.37-2.18-37,1.42,0,0,7.26,3.88,13.37,16.74,0,0-14.54-9.87-23.27-9.4,0,0,1.87,5,2.68,6.95,0,0-22.29-16.23-65.87-10.51a34.51,34.51,0,0,1,20.35-7.33s-3.51-2.25-4.91-9.28c0,0-1.42,1.62-1.08,6.46,0,0-5.76-6-5.11-17.37a22.74,22.74,0,0,0-17,.56s18.3-18.22,43.64,4.16c0,0-1.35-3.77-.41-6.23,0,0,11.07,18.72,31,22,0,0,2.06-8.82-3.69-15.53,0,0,10.4,5.1,11.25,11.51a17.61,17.61,0,0,1,7-2.53c-0.17-2.7-1.46-15.49-11.21-22.23,0,0,2.12,6.37-.58,10.64,0,0-3.27-10.35-12.34-13.85,0,0,3.2,6.87,1.7,10.54,0,0-20.33-19.85-48.38-21,0,0,4.45,1.94,7.69,10.34,0,0-28.4-20.78-66.23-14.39,0,0,12.6,2.38,17.45,9.91-39.5,0-52,16.05-52.1,16.13-28.11-9.34-41.64-35.85-41.64-35.85-8.37,31.47,3,60.39,13.86,78.93a52.57,52.57,0,0,1-16.85-18.39C108.39,239.44,154,313.25,154,313.25c-0.78-20,14.46-34,14.46-34-5.29,43.53,21.2,72.56,21.2,72.56-0.6-20,17.55-27.56,17.55-27.56-3.23,40.84,42.6,51.4,42.6,51.4s-33-35.9,5.93-100.76c0,0-9.53-2.31-17.62,8.48,0,0,1.3-30.72,34.14-53.53,0,0-10.32-.74-19.62,2.91,0,0,24.58-57,102.11-27.89,0,0-27.09-6.61-50.25,17.56a25.85,25.85,0,0,1,20.91.72s-39.45,4.35-40,42.48c0,0,2.84-12.09,14.54-14.9,0,0-27.33,27.32,15,94.49-22.94-60-6.69-70.66-6.69-70.66a35.52,35.52,0,0,0,1.52,21.85s-0.95-65.91,93.7-73.42c-0.51-7.8,2.66-9.94,2.66-9.94,1.1,9.6,10.18,15,10.18,15-2.8-5.93.67-13.69,0.67-13.69,6.22,18.27,33,24.32,46.19,25.86C496.89,244.21,500,220.21,499.13,205.33Zm-294.42,30.2,5.87-2.51s-14.86,26.88-7.94,52.27c0,0-11.91-4.41-7.78-31.84l-4.66,8.22s-6.75-35.84,33.08-51.71C223.29,210,210.94,221.92,204.71,235.53Zm35.22-47s-18.41-11.24-31.3-40.06c10.14,13.42,32.78,19.17,32.78,19.17l12.08-3.39A60.72,60.72,0,0,0,239.93,188.52Z" transform="translate(-11.92 -16.94)"/><path class="cls-5" d="M198.75,115.24a137.22,137.22,0,0,0,9.9,33.24c10.15,13.41,32.76,19.15,32.76,19.15l12.08-3.39a60.72,60.72,0,0,0-13.55,24.28c7.63-19.82,34.31-35.59,34.31-35.59C223.06,162.91,198.75,115.24,198.75,115.24Z" transform="translate(-11.92 -16.94)"/><path class="cls-7" d="M231.44,199.78c-32-17-32-59.12-32-59.12h0c2.73,16.67,10.67,39,32,59.13h0Z" transform="translate(-11.92 -16.94)"/><path class="cls-5" d="M500,251.72s-11.47-6.22-5.47-14.31,11-19.3,9.61-35c0,0,6.09.29,8.91-1.77C513.09,200.69,532.47,229.43,500,251.72Z" transform="translate(-11.92 -16.94)"/><path class="cls-5" d="M498.54,200.88a29.91,29.91,0,0,1,.59,4.45c0.87,14.88-2.24,38.88-35.9,34.95-13.14-1.54-40-7.58-46.19-25.86,0,0-3.48,7.76-.67,13.69,0,0-9.08-5.42-10.18-15,0,0-3.17,2.14-2.66,9.94-94.64,7.51-93.7,73.42-93.7,73.42a35.52,35.52,0,0,1-1.52-21.85s-16.25,10.64,6.69,70.66c-42.35-67.16-15-94.49-15-94.49-11.7,2.8-14.54,14.9-14.54,14.9,0.51-38.13,40-42.48,40-42.48a25.85,25.85,0,0,0-20.91-.72c23.17-24.17,50.25-17.56,50.25-17.56-19.91-.12-35,12.29-35,12.29,11.82,0.74,13,10,13,10C302.65,230.17,294.52,249,294.52,249c2.88-3.64,13.17-5.29,13.17-5.29-17.85,17.25-9.34,44-9.34,44C297.6,268,311,254.05,311,254.05l1.37,10.55c21.8-45.86,87.8-47.22,87.8-47.22,0.54-8.75,7-11.88,7-11.88-0.29,6.59,5.48,11,5.48,11-1.71-8.46,3.77-16.31,3.77-16.31s0.71,20.29,34.95,30.45S491,204.79,491,204.79c-16-7.2-14.58-24.09-14.58-24.09S477.6,197.85,498.54,200.88Z" transform="translate(-11.92 -16.94)"/><path class="cls-5" d="M389.21,189.05c-0.81-1.92-2.68-6.95-2.68-6.95,8.5-1.05,23.27,9.4,23.27,9.4-6.11-12.86-13.35-16.73-13.37-16.74,6.65-3.6,18-6,37-1.42a15.72,15.72,0,0,0-5.42,9.4s23-18.83,48.36-2c0,0-24.08-14.56-49.72,8.92a15.65,15.65,0,0,1-2.57-13.12,56.94,56.94,0,0,0-19.65,0s8.45,8.8,9.22,19.35c0,0-14.32-8.25-20.6-7.32,0,0,1.64,4.37.94,7.25,0,0-33.05-21.68-70.67-17.21C366.92,172.82,389.21,189.05,389.21,189.05Z" transform="translate(-11.92 -16.94)"/><path class="cls-4" d="M354.75,204.91l-0.24-.05Z" transform="translate(-11.92 -16.94)"/><path class="cls-5" d="M168.45,279.29s-15.23,14-14.46,34c0,0-45.61-73.81,41.76-137.46,10.9,20.35,33.21,26.39,33.21,26.39-23.61-.78-36.35-13-36.35-13-33.81,31.1-30.27,78.55-30.27,78.55,5.46-4.76,14.41-9.39,14.41-9.39-2.19,23.7,12.59,48.35,12.59,48.35A30.56,30.56,0,0,1,219.8,300c-2.79,9.41,2.76,21.22,2.76,21.22-0.15-14.73,15-32.28,15-32.28l-10.05,4.69c0.87-36.12,19.45-53.72,19.45-53.72-10.23.62-13.74,6.36-13.74,6.36,25.14-92,121.5-41.38,121.5-41.38-77.53-29.11-102.11,27.89-102.11,27.89,9.3-3.65,19.62-2.91,19.62-2.91-32.84,22.81-34.14,53.53-34.14,53.53,8.08-10.8,17.62-8.48,17.62-8.48-38.93,64.86-5.93,100.76-5.93,100.76s-45.84-10.56-42.6-51.4c0,0-18.15,7.54-17.55,27.56C189.65,351.85,163.16,322.82,168.45,279.29Z" transform="translate(-11.92 -16.94)"/><path class="cls-9" d="M192.68,178.08c-10,8-41.13,37.57-38.92,93.83,0,0,10.22-11.93,23-13.59,0,0-9.21,28.18,10.55,61.85,0,0,12-14.85,25.6-12.76,0,0,.41,41,16.3,41.66,0,0-6.91-29.07,26.53-74.14-38.93,64.86-5.93,100.76-5.93,100.76s-45.84-10.56-42.6-51.4c0,0-18.15,7.54-17.55,27.56,0,0-26.49-29-21.2-72.56,0,0-15.23,14-14.46,34C154,313.25,109.48,241.2,192.68,178.08Z" transform="translate(-11.92 -16.94)"/><path class="cls-5" d="M319.71,160.71c-10-.83-15.4,3.38-15.4,3.38a32.24,32.24,0,0,1,11.3-12.5,22.74,22.74,0,0,1,17-.56c-0.65,11.42,5.11,17.37,5.11,17.37-0.34-4.84,1.08-6.46,1.08-6.46,1.41,7,4.91,9.28,4.91,9.28a34.51,34.51,0,0,0-20.35,7.33c-14.91,1.94-19,5.94-19,5.94C303.45,170.29,319.71,160.71,319.71,160.71Z" transform="translate(-11.92 -16.94)"/><path class="cls-9" d="M253.33,142.22a50.76,50.76,0,0,0-7,3.89h0c-4.58-14,1.05-37.19,1.05-37.19C245.45,130.92,251.82,140.32,253.33,142.22Z" transform="translate(-11.92 -16.94)"/><path class="cls-1" d="M576.92,439.48q-24.27,6.23-48.76,11.22-13.91,2.83-27.88,5.26Q457,463.47,413.4,467.14l0,16.68h0v1.81c8.95-.57,18.74-1.23,27.6-2,19.85-2.39,45.83-4.88,68.6-7.93l2.86,1.43q0,12.77,0,25.55c0,19.74-13.33,23.06-19.39,23.55l-2.91,0h0l-27.3.49-17.29.3c-1,0-2.78-.21-3.57-0.25l-0.64-27.19c-8.42.67-19.84,1.4-28,1.91l0-.33v30.09h0.07q0,7.38,0,14.76c37,0.29,55.48.09,92,1.62,15.67,0,38.4-9.12,38.4-32.38,0-19.68,0-24.75,0-44.41C554.89,461.32,565.92,450.92,576.92,439.48Z" transform="translate(-11.92 -16.94)"/><path class="cls-1" d="M213.56,517.52c14.34,10.1,28.7,19.48,43.1,28.49q-22.24.14-44.39,0.43C197.63,537,183,526.94,168.48,515.87l-19.85-.81q0,16.45,0,32.91-15.8.57-31.52,1.41,0-29.76,0-59.52c30.28,3.21,60.79,5.94,91.45,8a6.18,6.18,0,0,0,2-.67,5.74,5.74,0,0,0,.9-0.74q0-6.12,0-12.24a3.83,3.83,0,0,0-2.88-1.86q-46-4.23-91.46-11.43C106,461.32,95,450.92,84,439.48q16.49,4.24,33.09,7.89a990.66,990.66,0,0,0,110.4,17.88,16,16,0,0,1,5.32,1.64,27.92,27.92,0,0,1,5.14,3.24,21,21,0,0,1,3.88,4,6.73,6.73,0,0,1,1.53,3.87q0,12.58,0,25.17a9.81,9.81,0,0,1-2.63,6.9,18.83,18.83,0,0,1-6.86,4.57,38.2,38.2,0,0,1-9.56,2.41A67,67,0,0,1,213.56,517.52Z" transform="translate(-11.92 -16.94)"/><path class="cls-1" d="M275.11,545.92c39.1-.15,78.32-0.14,117.41,0q0-8.92,0-17.84-42.69.47-85.5,0.3,0-5.69,0-11.37,22.46,0.18,44.93,0,0-8.71,0-17.41-22.46.29-44.92,0,0-5.93,0-11.86,42.73,0.77,85.45-1.25,0-8.92,0-17.83a991.1,991.1,0,0,1-117.26.4Q275.15,507.49,275.11,545.92Z" transform="translate(-11.92 -16.94)"/><path class="cls-4" d="M280.15,504.46l0,36.45c17-.06,33.94-0.09,50.72-0.09,19.13,0,38.06,0,56.67.11v-7.76c-27.46.28-54.52,0.36-80.53,0.24l-5,0V512l5,0c13.21,0.11,26.61.12,39.89,0V504.7c-13.27.13-26.7,0.1-40-.08l-4.93-.07v-0.09H280.15Z" transform="translate(-11.92 -16.94)"/><path class="cls-4" d="M517.5,526.55l-2.12,1.5-2.88,2-1.25.88-1.53,0q-18.09.29-36.27,0.63l-10.49.19-17.29.3q-13.58.23-27.19,0.43v8.58c32,0.27,53.35,1.71,89.89,1.71,12,0,30.47-8.51,30.47-25.64V504.46H517.48Z" transform="translate(-11.92 -16.94)"/><path class="cls-4" d="M143.63,509.85l5.2,0.22,19.85,0.81,1.57,0.06,1.25,1c13,9.92,26.86,19.59,42.21,29.54,8.21-.11,16.81-0.21,26-0.29-10.41-6.73-20-13.18-29-19.53L197,512l16.71,0.55a62.45,62.45,0,0,0,9.92-.47A33.39,33.39,0,0,0,232,510a14,14,0,0,0,5.08-3.33,4.6,4.6,0,0,0,1.14-2.18H122.09v39.66c7-.35,14.16-0.67,21.52-1Z" transform="translate(-11.92 -16.94)"/><path class="cls-8" d="M509.87,411.87a772.22,772.22,0,0,1-117.24,21.45A46.69,46.69,0,0,0,401,413.7l0.54-3.08a27.33,27.33,0,0,0,3.93-7.06,26.94,26.94,0,0,0-3.21-24.86c11.85-8.55,19.19-40,11.85-54.73,0,0,80.56,21.3,98.27-48.55q3.6,1.55,7.09,3.17C521.6,301.44,523.84,353.49,509.87,411.87ZM275,427.46s6.55-1.81,8.43-10.1c0,0-10.62,1.79-21.78-22.37l-13.51-3.11a88.2,88.2,0,0,1-28.32-13,70.78,70.78,0,0,1-10.94-9.41L208.39,390s-25.87-16.19-34-33.41l0.74,19.11s-26.94-28.47-35.23-57.4a421.76,421.76,0,0,0,11.19,93.54s51.86,20.55,140.26,24.52C280.18,433.05,275,427.46,275,427.46Z" transform="translate(-11.92 -16.94)"/><path class="cls-4" d="M517.24,372.08c-19.43,18.91-51,41.27-100.66,58.38a780.76,780.76,0,0,0,93.29-18.58A398.38,398.38,0,0,0,517.24,372.08Z" transform="translate(-11.92 -16.94)"/><path class="cls-4" d="M143.68,372.06a398.86,398.86,0,0,0,7.37,39.8s37.37,14.8,102.74,21.71C198.57,416.14,164.31,392.15,143.68,372.06Z" transform="translate(-11.92 -16.94)"/><path class="cls-10" d="M119.61,612.91q0-5,0-10,5.14-1,10.28-2,0-11.4,0-22.8-5.15.64-10.28,1.33,0-5,0-10,16.93-1.83,33.95-3.15,0,4.61,0,9.22-5.17.52-10.33,1.08,0,11,0,22,5.16-.85,10.32-1.62,0,4.61,0,9.22Q136.53,609.12,119.61,612.91Z" transform="translate(-11.92 -16.94)"/><path class="cls-10" d="M174.34,579.75q0,11.58,0,23.16-6.74,1-13.47,2.07,0-19.64,0-39.27,7.3-.53,14.62-1c9.14,7.18,18.3,14,27.47,20.57q0-11,0-22.07,6.73-.31,13.48-0.58,0,17.62,0,35.24-7.2.7-14.4,1.5C192.78,593.08,183.55,586.58,174.34,579.75Z" transform="translate(-11.92 -16.94)"/><path class="cls-10" d="M229.29,583.08a7.88,7.88,0,0,1-2.8-.93,5.37,5.37,0,0,1-2-1.88,5.66,5.66,0,0,1-.72-3q0-5,0-9.94a2.89,2.89,0,0,1,.65-1.67,8.35,8.35,0,0,1,1.69-1.68,10.49,10.49,0,0,1,2.23-1.3,6.29,6.29,0,0,1,2.26-.55q24.49-.82,49.08-1.18,0,3.77,0,7.54-20.61.44-41.17,1.26l-1.23.49q0,2.11,0,4.22L238.4,575q16.29-.78,32.62-1.25a16,16,0,0,1,3.2.22,8.56,8.56,0,0,1,2.81,1,5.59,5.59,0,0,1,2,1.83,5.17,5.17,0,0,1,.73,2.86q0,4.69,0,9.37a2.61,2.61,0,0,1-.66,1.57,8.5,8.5,0,0,1-1.62,1.56,10,10,0,0,1-2.16,1.22,6.93,6.93,0,0,1-2.35.55q-24.62,1.13-49.14,3.29,0-4,0-8,20.48-1.58,41-2.49l1.23-.69q0-1.93,0-3.87l-1-.54q-16.32.65-32.6,1.66A15.4,15.4,0,0,1,229.29,583.08Z" transform="translate(-11.92 -16.94)"/><path class="cls-10" d="M305.1,568.06q-9,.1-18,0.26,0-3.75,0-7.5,25-.33,50-0.3,0,3.69,0,7.39-9.22,0-18.45,0,0,12.33,0,24.66-6.79.07-13.59,0.22Q305.09,580.44,305.1,568.06Z" transform="translate(-11.92 -16.94)"/><path class="cls-10" d="M344.53,560.54l13.66,0.07q0,16.07,0,32.14-6.83-.12-13.66-0.18Q344.53,576.55,344.53,560.54Z" transform="translate(-11.92 -16.94)"/><path class="cls-10" d="M379.25,573.56v19.73q-6.83-.23-13.65-0.39,0-16.12,0-32.24,7.4,0.07,14.8.16c9.26,6.76,18.51,13.67,27.75,20.87q0-10.19,0-20.38,6.77,0.15,13.54.34,0,16.9,0,33.81-7.23-.5-14.46-0.91C397.92,587.3,388.59,580.34,379.25,573.56Z" transform="translate(-11.92 -16.94)"/><path class="cls-10" d="M429.93,565.23a6.33,6.33,0,0,1,2.38-1.81,12.78,12.78,0,0,1,3.34-1,19.79,19.79,0,0,1,3.84-.23q17.5,0.61,34.92,1.51a16.69,16.69,0,0,1,3.67.61,12.27,12.27,0,0,1,3.32,1.47,8.92,8.92,0,0,1,2.45,2.28,4.94,4.94,0,0,1,1,2.95q0,3.16,0,6.31-6.75-.57-13.52-1.08,0-2.14,0-4.27-14.33-1-28.72-1.64,0,9.37,0,18.74,14.38,1.1,28.72,2.57,0-2.11,0-4.22,6.77,0.64,13.52,1.37,0,3.12,0,6.25a4.16,4.16,0,0,1-1,2.76,6.79,6.79,0,0,1-2.44,1.82,10.53,10.53,0,0,1-3.32.86,16.51,16.51,0,0,1-3.67,0q-17.42-2.13-34.92-3.61a21.15,21.15,0,0,1-3.84-.68,14.34,14.34,0,0,1-3.34-1.37,7.47,7.47,0,0,1-2.38-2.07,4.72,4.72,0,0,1-.89-2.85q0-10.94,0-21.88A4.3,4.3,0,0,1,429.93,565.23Z" transform="translate(-11.92 -16.94)"/><path class="cls-10" d="M509.86,575.1q-8.86-.86-17.74-1.58,0-4.39,0-8.78c16.47,1,32.87,2.34,49.21,4q0,4.94,0,9.87-9-1.16-18.1-2.15,0,15.72,0,31.44-6.67-1.24-13.36-2.36Q509.87,590.32,509.86,575.1Z" transform="translate(-11.92 -16.94)"/><path class="cls-11" d="M407.79,593.08c4.16,0.24,8.32.5,12.41,0.77l0-15q-5.29-.35-10.54-0.66v6.58l-2.42-1.89q-3.3-2.57-6.74-5.2-7-.36-13.94-0.65C394.09,582.59,401.1,587.88,407.79,593.08Z" transform="translate(-11.92 -16.94)"/><path class="cls-11" d="M356.7,591.22V576.14Q351.33,576,346,576v15.11C349.5,591.11,353.08,591.16,356.7,591.22Z" transform="translate(-11.92 -16.94)"/><path class="cls-11" d="M377.76,591.74v-15q-5.36-.19-10.65-0.33v15.06C370.67,591.53,374.24,591.63,377.76,591.74Z" transform="translate(-11.92 -16.94)"/><path class="cls-11" d="M431.17,591.84a6,6,0,0,0,1.92,1.65,12.92,12.92,0,0,0,3,1.22,19.78,19.78,0,0,0,3.57.63c12,1,23.72,2.24,35,3.62a15,15,0,0,0,3.33,0,9.07,9.07,0,0,0,2.85-.73,5.25,5.25,0,0,0,1.91-1.41,2.68,2.68,0,0,0,.6-1.8v-4.9c-3.4-.36-6.92-0.72-10.52-1.07v4.23l-1.66-.17c-9.3-1-18.95-1.82-28.68-2.56l-1.38-.11V580.4q-5.28-.44-10.51-0.83v10.29A3.24,3.24,0,0,0,431.17,591.84Z" transform="translate(-11.92 -16.94)"/><path class="cls-11" d="M511.38,604.29c3.45,0.58,6.93,1.2,10.36,1.83V589.69q-5.19-.77-10.36-1.5v16.09Z" transform="translate(-11.92 -16.94)"/><path class="cls-11" d="M172.83,584.73q-5.36.61-10.48,1.23v17.25c3.48-.56,7-1.09,10.47-1.6Z" transform="translate(-11.92 -16.94)"/><path class="cls-11" d="M214.93,596.5l0-15.88q-5.32.44-10.48,0.9v6.67l-2.37-1.7c-2-1.42-3.92-2.82-5.83-4.22q-7.17.69-14,1.41c6.39,4.62,13,9.28,20.15,14.12C206.5,597.36,210.7,596.92,214.93,596.5Z" transform="translate(-11.92 -16.94)"/><path class="cls-11" d="M152,598.72c-2.84.43-5.72,0.89-8.58,1.36l-1.74.29V588.63q-5.35.74-10.33,1.47v12.05l-1.23.23c-3.07.56-6.11,1.14-9.05,1.72V611c10-2.22,20.39-4.27,30.93-6.11v-6.21Z" transform="translate(-11.92 -16.94)"/><path class="cls-11" d="M227.23,580.85a6.43,6.43,0,0,0,2.27.75,13.67,13.67,0,0,0,2.88.12C243,581,254,580.49,265,580.05l0.41,0,2.15,1.17v5.63l-2.31,1.3-0.36,0c-13.53.61-26.85,1.41-39.62,2.38v5c15.3-1.34,31.29-2.4,47.57-3.15a5.49,5.49,0,0,0,1.84-.44,8.51,8.51,0,0,0,1.84-1,7.06,7.06,0,0,0,1.34-1.28,1.24,1.24,0,0,0,.34-0.65v-9.37a3.73,3.73,0,0,0-.49-2,3.91,3.91,0,0,0-.57-0.68c-18,.68-35,1.67-51.13,2.86A3.87,3.87,0,0,0,227.23,580.85Z" transform="translate(-11.92 -16.94)"/><path class="cls-11" d="M317.18,575.94q-5.33.05-10.58,0.14v15.21c3.52-.07,7.07-0.13,10.59-0.17V575.94Z" transform="translate(-11.92 -16.94)"/><path class="cls-1" d="M342.28,151.62A149.29,149.29,0,0,0,356.82,162a2.63,2.63,0,0,0-.16.21c-1.06,1.94.42,4.79,3.32,6.39s6.09,1.31,7.16-.61a104.27,104.27,0,0,0,14.72,6.43s-22.78,4.1-32.67-5.45C349.18,169,343.16,163.31,342.28,151.62Z" transform="translate(-11.92 -16.94)"/><path class="cls-4" d="M348.76,156.58h0c-4.06-2.93-6.48-5-6.48-5,0.88,11.68,6.91,17.38,6.91,17.38a17.14,17.14,0,0,0,3.56,2.6C352.66,171.52,347.73,166.34,348.76,156.58Z" transform="translate(-11.92 -16.94)"/><path class="cls-2" d="M356.82,162h0a3.22,3.22,0,1,0,5.56,3.23Z" transform="translate(-11.92 -16.94)"/><path class="cls-4" d="M330.47,599.83s-29.71,8.91-47.67,18.72a352.87,352.87,0,0,0,47.67,25.34,352.87,352.87,0,0,0,47.67-25.34C360.18,608.75,330.47,599.83,330.47,599.83Z" transform="translate(-11.92 -16.94)"/><path class="cls-1" d="M378.14,618.56l-47.67,10.85L282.8,618.56a352.87,352.87,0,0,0,47.67,25.34A352.87,352.87,0,0,0,378.14,618.56Z" transform="translate(-11.92 -16.94)"/><path class="cls-4" d="M435.69,504.31v28.22H418.47V505.3S429.94,504.3,435.69,504.31Z" transform="translate(-11.92 -16.94)"/><path class="cls-4" d="M492.11,531.27s25.37,1.82,25.37-26.81c0,0,6.68,8.61,7.05,9.24s-0.25,13.38-.87,15.25-8,6-8,6-9,1.25-10.86,1.75S492.11,531.27,492.11,531.27Z" transform="translate(-11.92 -16.94)"/></svg>