<?xml version="1.0" encoding="utf-8"?>
<!-- Generator: Adobe Illustrator 19.0.0, SVG Export Plug-In . SVG Version: 6.00 Build 0)  -->
<svg version="1.1" id="Layer_1" xmlns="http://www.w3.org/2000/svg" xmlns:xlink="http://www.w3.org/1999/xlink" x="0px" y="0px"
	 viewBox="-129.5 285.4 261.5 276.5" style="enable-background:new -129.5 285.4 261.5 276.5;" xml:space="preserve">
<style type="text/css">
	.st0{fill:#ED1651;}
	.st1{fill:#FFFFFF;}
	.st2{fill:#383839;}
</style>
<g id="_x23_ed1651ff_1_">
	<path class="st0" d="M-14.5,503.4l0-3c0-4.1,0-8.1,0-12.2c0-6.9,0-14.1,0.1-21.2l0.1-3l5.6,0.1l0-5.9l2.9-0.1c0.7,0,1.3,0,2,0
		c2.3,0,9.2,0,12.3,5.7l0.1,0.1c2.1,4.3,1.7,9,1.4,13.2c-0.1,0.7-0.1,1.3-0.1,2l0,0.2l0,0.2c-1.1,5.3-5.8,8.8-12.2,9.4
		c0,3.9,0,7.9,0,11.6l0,3H-14.5z M-2.5,470.4c0,2,0,4,0,6.2c0.2,0,0.4-0.1,0.6-0.1c0.4-2,0.4-4.1,0-6
		C-2.1,470.4-2.3,470.4-2.5,470.4z"/>
	<path class="st0" d="M-5.7,461.1c4.1-0.2,9.3-0.1,11.5,4.1c2.1,4.2,1.3,9.2,1,13.6c-1.2,5.5-7.3,7.4-12.3,7c0.1,4.9,0.1,9.7,0,14.6
		c-2,0-4,0-6,0c0.1-11.1-0.1-22.1,0.1-33.2c1.9,0,3.8,0,5.7,0C-5.8,465.1-5.8,463.1-5.7,461.1 M-5.5,479.8c2.2-0.3,5.2,0.4,6.4-2.1
		c0.6-2.8,0.7-5.8,0-8.6c-1.1-2.3-4.3-1.5-6.3-1.8C-5.5,471.4-5.5,475.6-5.5,479.8z"/>
	<path class="st0" d="M8,503.4l0-12.8c0-9.8,0-19.6,0-29.4l0-3h3c2,0,4,0,6,0l3,0l0,3c0,9.8,0,19.6,0,29.4l0,12.8H8z"/>
	<path class="st0" d="M11,461.1c2,0,4,0,6,0c0,13.1,0,26.2,0,39.3c-2,0-4,0-6,0C11,487.3,11,474.2,11,461.1z"/>
	<path class="st0" d="M27.4,503.4c-2.2,0-4.4,0-6.6,0h-4.4l1.6-4.1c2.4-6.2,4.8-12.4,7.3-18.6c-1.1-2.9-2.3-5.8-3.4-8.6
		c-1.3-3.2-2.6-6.5-3.8-9.8l-1.5-4.1h13.3c0,0,1.9,5.2,2.1,5.8c0.4-1.2,0.9-2.5,1.3-3.7l0.7-2.2l13.4,0.1l-1.6,4.1
		c-1,2.7-2.1,5.3-3.1,8c-1.4,3.4-2.8,7-4.1,10.4c0.8,2,1.5,3.9,2.3,5.9c1.6,4.2,3.3,8.5,5,12.7l1.5,4.1h-4.4c-2,0-4.1,0-6.1,0
		l-2.7,0l-0.7-2c-0.5-1.4-1-2.9-1.6-4.4c0,0.1-2.3,6.4-2.3,6.4L27.4,503.4z"/>
	<path class="st0" d="M20.8,461.1c2.3,0,4.6,0,6.8,0c1.4,3.8,2.7,7.5,4.1,11.2c1.6-3.7,2.9-7.5,4.3-11.3c2.3,0,4.6,0,6.8,0
		c-2.5,6.5-5.2,13-7.7,19.5c2.6,6.6,5.2,13.1,7.7,19.7c-2.2,0-4.4,0-6.7,0c-1.4-4-2.9-8-4.4-12c-1.5,4-2.9,8-4.4,12
		c-2.2,0-4.4,0-6.6,0c2.6-6.6,5.1-13.1,7.7-19.7C25.9,474.1,23.3,467.7,20.8,461.1z"/>
	<path class="st0" d="M75.4,503.4c-3.2,0-5.9,0-8.3-0.1l-3-0.1l0-3c0.1-8,0.1-16.2,0.1-24.1c0-5,0-10.1,0-15.1l0-3l12.3,0.1v3
		c0,3.1,0,6.3,0,9.4c0,6.7,0,13.7,0,20.5c0.9,0,1.8,0,2.7,0c1.6,0,2.9,0,4.2,0.2l1.9,0.2l0.6,1.8c0.6,1.8,0.6,3.5,0.5,5.1
		c0,0.7,0,1.3,0,1.8l0.2,3.2l-6.6,0C78.6,503.4,77,503.4,75.4,503.4z"/>
	<path class="st0" d="M67.2,461.1c2.1,0,4.2,0,6.3,0.1c0,11-0.1,22,0.1,33c3.2,0,6.4-0.2,9.6,0c0.7,1.9,0.2,4.1,0.4,6.1
		c-5.4,0-10.9,0.1-16.4-0.1C67.3,487.3,67.2,474.2,67.2,461.1z"/>
	<path class="st0" d="M97.6,503.9c-4.3,0-8.2-1.9-10.4-5.1c-1.6-2.2-2.2-4.7-2.6-6.9c-0.1-0.5-0.2-1.1-0.4-1.6l-0.8-3.4l3.5-0.3
		c1.8-0.2,3.5-0.3,5.3-0.5l2-0.2c-0.4-0.4-0.8-0.7-1.2-1.1c-2.2-2-4.4-4.1-6.1-6.8l-0.1-0.1c-2.8-5.1-2.6-11.4,0.6-15.8
		c2.1-2.9,5.6-4.6,9.6-4.6c2.6,0,5.1,0.7,7.2,2c3.5,2.1,4.6,5.9,5.4,8.7l1,3.7l-3.1,0.6c-1.9,0.4-3.7,0.8-5.6,1.1l-2.2,0.4l-1.2-1.9
		c-0.3-0.6-0.6-1.2-0.8-1.8c-0.1-0.3-0.3-0.8-0.5-1.1c-0.1,0.4-0.2,1-0.1,1.4l0,0.2c0.6,2.1,2.4,3.6,4.4,5.4
		c1.6,1.4,3.2,2.8,4.5,4.6c3.8,4.6,4.7,11,2.4,16.1C107,501.3,102.7,503.9,97.6,503.9L97.6,503.9z M95.7,487.9
		c0.2,0.5,0.4,1.1,0.6,1.7c0.4,1.3,0.8,2.1,1.1,2.5c0.1-0.1,0.2-0.2,0.3-0.4c0.3-0.7,0.3-1.6-0.1-2.1c-0.7-1-1.5-1.8-2.4-2.7
		L95.7,487.9z"/>
	<path class="st0" d="M90,463.9c2.9-3.9,8.9-4.2,12.9-1.8c2.7,1.6,3.4,4.8,4.2,7.6c-1.9,0.4-3.8,0.8-5.7,1.1
		c-0.9-1.7-1.3-4.3-3.5-4.7c-2.9-0.5-4.1,3.4-3.3,5.6c1.4,5,6.7,7,9.5,11c3,3.6,4,8.8,2,13c-2.7,6.3-12.6,6.6-16.3,1.2
		c-1.6-2.2-1.9-5-2.5-7.5c1.9-0.2,3.8-0.3,5.7-0.5c0.9,2.3,1.3,5.4,4.1,6.2c3.7,0,5.1-4.8,3.1-7.4c-3.1-4.2-7.7-7-10.5-11.4
		C87.4,472.6,87.3,467.5,90,463.9z"/>
	<path class="st0" d="M43.5,503.4l0-3c0-8.7,0-17.4,0-26.2l0-16.1l3,0c2.8,0,5.7,0,8.5,0s5.7,0,8.5,0l3,0v12H55.8c0,1.5,0,3,0,4.5
		l8,0l0.1,12.2l-8,0c0,1.4,0,2.8,0,4.2c3,0,5.5,0,7.8,0.1l3,0.1l-0.1,12.1l-14.3,0L43.5,503.4z"/>
	<path class="st0" d="M46.5,461.1c5.7,0,11.3,0,17,0c0,2,0,4,0,6c-3.6,0-7.2,0-10.7,0c0,3.5,0,7,0,10.5c2.7,0,5.3,0,8,0
		c0,2.1,0,4.2,0,6.2c-2.7,0-5.3,0-8,0c0,3.4,0,6.8,0,10.2c3.6,0,7.2,0,10.8,0.1c0,2.1,0,4.1-0.1,6.2c-5.7,0-11.3,0-17,0
		C46.5,487.3,46.5,474.2,46.5,461.1z"/>
</g>
<g id="_x23_ffffffff">
	<path class="st1" d="M-5.6,291.2c2.8-1.9,5.9-4.3,9.5-4c5.2,1.4,9.2,5.2,13.1,8.6c5.1,4.6,9.8,9.6,14,15c4.7,6,6.4,13.7,8.3,20.9
		c24.9,2.2,49.9,4.8,74,11.4c-1.6,27.6-4.6,55.1-8.7,82.4c4.3,5.3,7.2,12.1,6,19c6.2,0,12.5,0,18.7,0c-2.7,11.1-5.4,22.2-8.1,33.4
		c-0.4,1.6-0.7,3.3-0.1,4.9c2.8,11.3,5.5,22.6,8.3,34c-18.4,0-36.8,0-55.2,0c-19,18.8-43,31.6-67.3,42.2c-4.7,2.7-9.4-0.7-13.8-2.4
		c-22.2-10.3-43.9-22.6-61.5-39.8c-19.6,0-39.3,0-58.9,0c2.6-11,5.3-22,8-33c0.3-1.6,0.9-3.2,0.3-4.8c-2.8-11.5-5.6-22.9-8.4-34.4
		c7.1,0,14.1,0,21.2,0c-1.1-7.4,2-14.7,6.8-20.2c-4-26.9-6.8-54.1-8.4-81.3c24.1-6.7,49.1-9.2,74-11.4c2.1-7.4,3.8-15.3,8.8-21.4
		C-19.1,303.3-12.7,296.8-5.6,291.2 M-3.9,295.1c-6.2,5-11.8,10.7-16.9,16.9c-5.7,6.7-7.2,15.6-9.4,23.9c-24.4,2.1-49,4.3-72.8,10.6
		c1.7,26.5,4.5,53,8.4,79.3c-4.3,4.3-7.5,9.9-7.4,16.1c0.1,3.1,2.9,5,5,6.9c-8.3-0.2-16.7-0.1-25,0c2.4,9.8,4.7,19.5,7.1,29.3
		c0.4,1.5,0.7,3.2,0.2,4.7c-2.4,10-4.8,19.9-7.3,29.9c18.5,0.1,37,0,55.6,0.1c7.4,7.9,16.1,14.5,25.1,20.4
		c13.2,8.6,27.2,16,41.7,22.1c3.1,1.7,6.1-0.6,9-1.7c22.9-10.3,45.5-22.7,63.2-41c17.2,0,34.4,0,51.7,0c-2.4-10.6-5.3-21.1-7.6-31.7
		c2.1-10.8,5.1-21.5,7.6-32.3c-7.2,0-14.4-0.1-21.5,0.1c2.2-1.8,5-3.7,5.1-6.8c0.3-6.4-3.3-12-7.5-16.5c4-26.2,6.8-52.5,8.5-78.9
		c-23.8-6.3-48.4-8.5-72.8-10.6c-2.2-8-3.6-16.7-9-23.3c-5-6.3-10.7-11.9-16.8-17.1c-2.2-1.8-4.6-3.6-7.4-4.2
		C0.4,291.8-1.8,293.5-3.9,295.1z"/>
	<path class="st1" d="M-11.1,304.8c4.3-4.1,8.5-8.8,14.1-11.2c3.9,1.6,6.9,4.6,10,7.3c5.4,5.3,11,10.6,15,17.1
		c4,8.3,5.4,17.5,7.8,26.3c1.9,6.6,7.6,12.4,6,19.7c-1.2,6.4-2.7,13.6-7.8,18c-4.6,2.9-6.8-6.6-11.4-3.5c-4,3.7-5.6,9.2-8.4,13.7
		c0.5,0.1,1.5,0.3,1.9,0.4c3.3-3.8,4.6-9,8.1-12.7c3,2.5,6.7,6.9,10.9,4.1c5.5-3.8,7.1-11,8.7-17.1c4,1,8.1,1.7,12.2,1.8
		c2.2,0.3,4.8-0.1,6.7,1.4c4.9,4,9.2,9.1,10.9,15.4c4.1,12.7,7.5,26.7,18.3,35.6c6.3,4.7,12.8,10.5,13.8,18.8c1,3.7-2.7,5.9-5.3,7.5
		c-2.5,1.8-5.6,1.3-8.4,1.3c-6.6-0.1-13.3,0-19.9-0.1c0.9-5.3,2.2-10.6,3.5-15.8c0.9-3.8,0.6-7.8-1.6-11.1c3.4,0,6.8-0.1,10.2-0.4
		c-2.3-0.9-4.7-1.8-7.2-1.8c-7.4-0.1-14.6-1.9-21.9-3c-1.9-4.9-6.4-7.7-9.5-11.6c0.6-4.5,3.2-9.7,0.2-13.8c-3.2-2.1-6.5,1.3-7.6,4.2
		c-1.7,2.9-0.8,6.3-1.2,9.4c-1.9,3-3.3,6.2-3.8,9.7c-2.2,3.3-2.2,7.3-2.8,11.1c-2.6-0.9-5.4-2.5-8.1-1.4c-1.7,0.5-3.1,2.1-2.8,3.9
		c0.7,3,4.4,2.6,6.7,3.6c1.8,4.4,7.1,2.9,10.8,3.1c4.8,0.9,6.2-5.1,10.8-5.1c4,2.3,8.2,4.5,11.5,7.8c0.6,3.7,0.8,7.5,1.3,11.3
		c-38.1,0.1-76.1,0-114.2,0c0.6-3.9,1.2-7.7,1.7-11.6c4.3-2.6,8.7-5.1,13.1-7.5c4.1,2.9,8.6,7.8,14,5.7c2.6,0,5.3,2.2,7.7,0.5
		c1.1-1.6,0.9-3.9-0.5-5.3c-1.9-2.2-5-2.3-7.6-3c1.4-2.7,3.2-5.4,3.4-8.6c0.2-3.5,2.6-6.5,2-10c-0.7-4,3.8-6.1,4-9.9
		c0.6-3.1,0.4-8.9-4.1-8.6c-4.7,1.7-5.5,7.5-7,11.6c-4.6,1.9-10.1,1.5-14.1,4.8c-3,1.8-3.8,5.7-2.3,8.8c-8.8,1.3-17.6,3.1-26.5,3.9
		c-1.6,0.1-2.9,1.3-4.3,2c2.1,0.1,4.2,0.1,6.3,0.1c-1.9,3.1-2.7,6.8-1.8,10.3c1.3,5.5,2.8,11.1,3.7,16.7c-8.6-0.1-17.2,0.2-25.7-0.1
		c-3.1-1.5-7.2-3.1-8-6.8c0.1-8.4,6.5-14.9,12.8-19.6C-76,414-73.1,400-69,387.8c2-7.1,6.9-12.9,12.5-17.6c1.6-1.4,3.8-1.1,5.7-1.4
		c4.4-0.2,8.8-0.7,13.1-1.9c1.7,6.2,3.2,13.8,9.2,17.3c4.2,2.3,7.4-2.2,10.4-4.4c3.4,3.8,4.8,8.9,8,12.8c0.5-0.1,1.5-0.3,2-0.4
		c-2-3.7-3.8-7.4-6-11c-1.1-1.6-2.6-3.6-4.8-3.3c-2.6,0.8-4.1,3.4-6.5,4.7c-3.8,0.1-5.7-4-7.1-6.9c-2.8-7.1-5.6-15.7-1.2-22.7
		c5.4-9.1,5.8-19.9,9.4-29.6C-22.2,315.8-16.4,310.3-11.1,304.8 M-19.4,353.4c-5.9,4.9-7.6,13.6-5.9,20.8c3.5-1.5,6.1-5.5,10.2-5.3
		c3.9,3.9,4.6,9.6,6.4,14.6c2.1,7,5.9,13.6,11.7,18.3c2.6-2.3,5.1-4.8,7-7.8c4.3-6.5,5.3-14.5,8.5-21.5c0.9-1.6,2-4.2,4.3-3.6
		c3,1.4,5.5,3.8,8.5,5.3c1.7-7.2,0.1-15.9-5.9-20.8c-6.9-6.3-14-12.6-22.5-16.8C-5.4,340.8-12.6,347.1-19.4,353.4 M-9.1,415.1
		c4,2.3,8,4.6,12,7c4-2.3,8.1-4.7,12.1-6.9c-4-2.4-8-4.7-12.1-7C-1,410.4-5.1,412.7-9.1,415.1 M-10.3,417.1c0,4.6,0,9.3,0,13.9
		c4,2.3,8,4.6,12,6.9c0-4.6,0-9.3,0-13.9C-2.2,421.7-6.2,419.4-10.3,417.1 M4,424.2c0,4.6,0,9.3,0,13.9c4.1-2.3,8.2-4.7,12.3-7.1
		c0-4.6,0-9.3,0-13.9C12.2,419.4,8.1,421.8,4,424.2z"/>
	<path class="st1" d="M-25.1,403.7c1.5-3.8,2-8.4,5.3-11.1c2.1-0.2,1.8,2.9,1.9,4.3c0.5,4.4-4.7,6.6-4.2,10.9
		c0.6,4-2.2,7.2-2.1,11.2c0,3.7-4.2,5.9-2.9,9.9c-0.7-0.3-2-1-2.7-1.3c0.1-2.7-0.8-5.2-2.8-7.1c3.1-3.8-0.2-9.7-5-9.5
		c0.1,0.4,0.2,1.3,0.2,1.7c2.2,1.2,5,3.5,3,6.2c-2.5-2.1-5.3-3.9-7.6-6.2c-0.1-3.2,3.2-4.8,5.7-6C-32.6,405.7-28.6,405.5-25.1,403.7
		z"/>
	<path class="st1" d="M39.5,398c0.7-2.3,2.4-4.2,4-5.9c3.5,3.9-0.5,9-0.1,13.4c1.8,4,6.4,5.8,8.4,9.7c1.1,1.9,2.2,4.3,0.8,6.4
		c-3.2,1.1-6.7,0.9-10.1,1.4c0.3-3.6,4.1-3.9,7-3.8c-0.4-3.3-4.5-2.3-6.5-1.1c-2.1,1-2.3,3.4-2.5,5.5c-2.6,0.5-4.8,1.9-5.9,4.4
		c-1.1-0.1-2.3-0.2-3.4-0.4c0.8-0.9,1.6-1.7,2.4-2.6c-0.9-3.6,0.1-7.1,2.3-10.1c-0.1-2.8,0.8-5.3,2.4-7.5
		C40.4,404.6,38.8,401.1,39.5,398z"/>
	<path class="st1" d="M-61.2,420.8c6.4-1.1,12.8-1.9,19.1-3.2c-0.1,1.4-0.1,2.8,0,4.1c1.2,1.7,2.8,3.2,3.2,5.4
		c-9,4.1-16.8,10.4-26.3,13.4c-0.9-4.5-3-8.9-2.4-13.5C-67.2,423.7-64.4,421.2-61.2,420.8z"/>
	<path class="st1" d="M-39.4,417.7c2.4,3.2,7.6,5.1,7.3,9.7c-2.7-2.1-5.3-4.3-8-6.3C-40,420.2-39.6,418.5-39.4,417.7z"/>
	<path class="st1" d="M55.8,418.9c4.3,0.9,8.6,1.2,12.9,2.3c2.9,0.8,5,3.6,5.1,6.6c0.1,4.4-1.6,8.5-2.5,12.8
		c-8.3-2.6-14.5-9.1-22.1-13c0.4-1,0.8-2,1.2-3C53.8,424.8,55.5,422,55.8,418.9z"/>
	<path class="st1" d="M36.5,429c1.9-4.4,7.6-3.1,11.4-4.5c-0.4,1.1-0.9,2.1-1.4,3.2C43.2,428.1,39.9,428.6,36.5,429z"/>
	<path class="st1" d="M21.1,427.1c2.7-1.9,5.8-0.9,8.3,0.7c-0.5,0.4-1.4,1.3-1.9,1.7C25.3,428.9,23,428.4,21.1,427.1z"/>
	<path class="st1" d="M-37.5,426.9c1.9,1.1,3.8,2.6,6.2,2.4c2.1,0.9,4.2,2.2,4.4,4.8C-30.8,432.4-35,430.5-37.5,426.9z"/>
	<path class="st1" d="M-25.5,429.9c2.9,0.4,6.5,0.9,7.1,4.4c-2.2-0.5-4.3-1.1-6.4-1.7C-25.1,431.7-25.3,430.8-25.5,429.9z"/>
	<path class="st1" d="M28.5,431.9c3.3-4.4,8.3,0.2,12.5-0.6C37.2,433.3,32.6,432.4,28.5,431.9z"/>
	<path class="st1" d="M-104.8,461.1c3.3,0,6.5-0.1,9.8,0c5-0.2,9.5,4.7,9,9.7c-0.1,7.4,0.2,14.7-0.2,22.1c-0.9,5.9-7.4,8.2-12.6,7.5
		c0-2,0-4,0-6.1c-2,0-4,0-6,0C-104.8,483.3-104.8,472.2-104.8,461.1 M-98.5,467.4c0,8.9,0,17.9,0,26.8c2.1-0.3,5.8,0.6,6.4-2.4
		c0.3-7,0.1-14,0.1-21.1c0.2-1.5-1-2.5-1.8-3.5C-95.4,467.4-96.9,467.4-98.5,467.4z"/>
	<path class="st1" d="M-82,461.1c5.7,0,11.3,0,17,0c0,2,0,4,0,6c-3.7,0-7.3,0-11,0c0,3.5,0,7,0,10.5c2.7,0,5.3,0,8,0
		c0,2.1,0,4.2,0,6.3c-2.7,0-5.3,0-8,0c0,3.4,0,6.8,0,10.3c3.7,0,7.3,0,11,0c0,2.1,0,4.2,0,6.3c-5.7,0-11.3,0-17,0
		C-82,487.3-82,474.2-82,461.1z"/>
	<path class="st1" d="M-54.7,461.1c2.8,0,5.6,0,8.4,0c2.2,13.1,4.4,26.2,6.5,39.3c-2.2,0-4.3,0-6.5,0c-0.5-3-0.9-6-1.4-9
		c-2,0-3.9,0-5.9,0c-0.5,3-1,6-1.4,9c-2.2,0-4.3,0-6.4,0C-59.2,487.3-56.9,474.2-54.7,461.1 M-50.5,471.3c-0.7,4.7-1.4,9.4-2.1,14.1
		c1,0,3,0.1,4,0.1C-49.2,480.7-49.8,476-50.5,471.3z"/>
	<path class="st1" d="M-36,461.1c5.3,0.5,11.8-1.7,16.1,2.7c4.3,4.6,2.2,11.4,2.7,17.1c-0.5,5.6,1.7,12.5-2.9,16.8
		c-4.2,4.1-10.6,2.3-15.8,2.6C-36,487.3-36,474.2-36,461.1 M-30,467.3c0,9,0,17.9,0,26.9c2.3-0.2,6,0.7,6.6-2.5
		c0.3-7.2,0.2-14.4,0.1-21.5C-23.6,466.8-27.6,467.5-30,467.3z"/>
	<path class="st1" d="M-58.6,512.7c41.4,0,82.8,0,124.3,0c-17.8,17.1-40.9,27-62.8,37.8c-9.5-3.5-18.4-8.3-27.1-13.4
		C-36.3,529.8-48,522-58.6,512.7 M-29.8,517.1c0,0.6,0,1.9,0,2.5c1.8,0,3.5,0,5.3,0c0,3.1,0,6.2,0,9.3c0.7,0,2.1,0,2.8,0
		c0-3.1,0-6.2,0-9.3c1.8,0,3.7,0,5.5,0c0-0.6,0-1.9,0-2.5C-20.8,517.1-25.3,517.1-29.8,517.1 M1.1,528.9c1.1-0.1,2.1-0.1,3.2-0.2
		c0.3-0.6,1-1.8,1.3-2.5c2.3,0,4.6,0.1,6.9,0.1c0.3,0.6,1,1.9,1.3,2.5c0.9,0,2.6,0,3.4,0C15,525,12.7,521,10.4,517
		c-1,0.3-2.6-0.2-3.1,1.1 M20.5,517.2c0,3.9,0,7.8,0,11.7c0.6,0,1.9,0,2.5,0c0-2.5,0-5,0-7.5c1.7,2.2,3.3,4.4,5,6.6
		c1.7-2.2,3.3-4.3,5-6.5c0,2.5,0,4.9,0,7.4c0.7,0,2.1,0,2.8,0c0-3.9,0-7.9,0-11.8c-0.6,0-1.7,0-2.3,0c-1.7,2.3-3.4,4.6-5.2,6.8
		c-1.8-2.3-3.6-4.6-5.4-6.9C22.2,517.1,21.1,517.2,20.5,517.2 M-13.3,517.1c0,3.9,0,7.8,0,11.8c4,0,8,0,12,0c0-0.6,0-1.7,0-2.3
		c-3.1,0-6.2,0-9.3,0c0-0.9,0.1-1.9,0.1-2.8c1.8,0,3.6,0,5.5,0c0-0.6,0-1.7,0-2.3c-1.8,0-3.7,0-5.5,0c0-0.6,0-1.7,0-2.2
		c3.1,0,6.2,0,9.2,0l0-2.2C-5.2,517.1-9.3,517.1-13.3,517.1z"/>
	<path class="st1" d="M6.7,524.1c0.8-1.4,1.5-2.8,2.3-4.2c0.7,1.4,1.5,2.8,2.2,4.2C9.7,524.1,8.2,524.1,6.7,524.1z"/>
</g>
<g id="_x23_ed1651ff">
	<path class="st0" d="M-5.7,461.1c4.1-0.2,9.3-0.1,11.5,4.1c2.1,4.2,1.3,9.2,1,13.6c-1.2,5.5-7.3,7.4-12.3,7c0.1,4.9,0.1,9.7,0,14.6
		c-2,0-3.9,0-5.9,0c0.1-11.1-0.2-22.1,0-33.2c1.9,0,3.8,0,5.7,0C-5.8,465.1-5.8,463.1-5.7,461.1 M-5.5,479.8
		c2.2-0.3,5.2,0.4,6.4-2.1c0.6-2.8,0.7-5.8,0-8.6c-1.1-2.3-4.3-1.5-6.3-1.8C-5.5,471.4-5.5,475.6-5.5,479.8z"/>
	<path class="st0" d="M11,461.1c2,0,4,0,6,0c0,13.1,0,26.2,0,39.3c-2,0-4,0-6,0C11,487.3,11,474.2,11,461.1z"/>
	<path class="st0" d="M20.8,461.1c2.3,0,4.6,0,6.8,0c1.4,3.8,2.7,7.5,4.1,11.2c1.6-3.7,2.9-7.5,4.3-11.3c2.3,0,4.6,0,6.8,0
		c-2.5,6.5-5.2,13-7.7,19.5c2.6,6.6,5.2,13.1,7.7,19.7c-2.2,0-4.4,0-6.7,0c-1.4-4-2.9-8-4.4-12c-1.5,4-2.9,8-4.4,12
		c-2.2,0-4.4,0-6.6,0c2.6-6.6,5.1-13.1,7.7-19.7C25.9,474.1,23.3,467.7,20.8,461.1z"/>
	<path class="st0" d="M67.2,461.1c2.1,0,4.2,0,6.3,0.1c0,11-0.1,22,0.1,33c3.2,0,6.4-0.2,9.6,0c0.7,1.9,0.2,4.1,0.4,6.1
		c-5.4,0-10.9,0.1-16.4-0.1C67.3,487.3,67.2,474.2,67.2,461.1z"/>
	<path class="st0" d="M90,463.9c2.9-3.9,8.9-4.2,12.9-1.8c2.7,1.6,3.4,4.8,4.2,7.6c-1.9,0.4-3.8,0.8-5.7,1.1
		c-0.9-1.7-1.3-4.3-3.5-4.7c-2.9-0.5-4.1,3.4-3.3,5.6c1.4,5,6.7,7,9.5,11c3,3.6,4,8.8,2,13c-2.7,6.3-12.6,6.6-16.3,1.2
		c-1.6-2.2-1.9-5-2.5-7.5c1.9-0.2,3.8-0.3,5.7-0.5c0.9,2.3,1.3,5.4,4.1,6.2c3.7,0,5.1-4.8,3.1-7.4c-3.1-4.2-7.7-7-10.5-11.4
		C87.4,472.6,87.3,467.5,90,463.9z"/>
	<path class="st0" d="M46.5,461.1c5.7,0,11.3,0,17,0c0,2,0,4,0,6c-3.6,0-7.2,0-10.7,0c0,3.5,0,7,0,10.5c2.7,0,5.3,0,8,0
		c0,2.1,0,4.2,0,6.2c-2.7,0-5.3,0-8,0c0,3.4,0,6.8,0,10.2c3.6,0,7.2,0,10.8,0.1c0,2.1,0,4.1-0.1,6.2c-5.7,0-11.3,0-17,0
		C46.5,487.3,46.5,474.2,46.5,461.1z"/>
</g>
<g id="_x23_383839ff">
	<path class="st2" d="M-3.9,295.1c2.1-1.6,4.3-3.3,6.9-3.8c2.9,0.6,5.2,2.5,7.4,4.2c6.1,5.2,11.8,10.8,16.8,17.1
		c5.4,6.6,6.8,15.3,9,23.3c24.4,2.1,49,4.3,72.8,10.6c-1.7,26.4-4.5,52.8-8.5,78.9c4.2,4.5,7.8,10.2,7.5,16.5
		c-0.2,3.1-2.9,5.1-5.1,6.8c7.2-0.2,14.3-0.1,21.5-0.1c-2.5,10.8-5.5,21.4-7.6,32.3c2.3,10.6,5.2,21.1,7.6,31.7
		c-17.2,0-34.4,0-51.7,0c-17.6,18.2-40.3,30.6-63.2,41c-2.9,1.1-5.9,3.3-9,1.7c-14.5-6.1-28.5-13.5-41.7-22.1
		c-9-6-17.7-12.5-25.1-20.4c-18.5-0.1-37,0-55.6-0.1c2.4-10,4.9-19.9,7.3-29.9c0.5-1.6,0.3-3.2-0.2-4.7c-2.4-9.8-4.8-19.6-7.1-29.3
		c8.3,0,16.7-0.1,25,0c-2.2-1.9-4.9-3.8-5-6.9c-0.1-6.2,3.1-11.9,7.4-16.1c-3.9-26.3-6.8-52.7-8.4-79.3c23.8-6.3,48.4-8.5,72.8-10.6
		c2.2-8.3,3.7-17.2,9.4-23.9C-15.7,305.8-10.1,300.1-3.9,295.1 M-11.1,304.8c-5.3,5.4-11.1,11-13.3,18.5c-3.6,9.8-4,20.6-9.4,29.6
		c-4.4,7.1-1.6,15.6,1.2,22.7c1.5,2.9,3.3,7,7.1,6.9c2.4-1.3,3.9-3.9,6.5-4.7c2.2-0.3,3.7,1.7,4.8,3.3c2.2,3.6,4,7.3,6,11
		c-0.5,0.1-1.5,0.3-2,0.4c-3.2-3.9-4.6-9-8-12.8c-3,2.3-6.2,6.7-10.4,4.4c-6-3.5-7.5-11.1-9.2-17.3c-4.3,1.2-8.7,1.7-13.1,1.9
		c-1.9,0.3-4.1,0-5.7,1.4c-5.5,4.7-10.5,10.5-12.5,17.6c-4.1,12.2-7,26.2-17.9,34.3c-6.3,4.7-12.7,11.2-12.8,19.6
		c0.8,3.7,4.9,5.4,8,6.8c8.6,0.3,17.1,0,25.7,0.1c-0.9-5.6-2.3-11.1-3.7-16.7c-0.9-3.5-0.2-7.3,1.8-10.3c-2.1,0-4.2,0-6.3-0.1
		c1.4-0.7,2.7-1.9,4.3-2c8.9-0.8,17.7-2.6,26.5-3.9c-1.5-3-0.7-7,2.3-8.8c4-3.3,9.5-2.9,14.1-4.8c1.5-4.2,2.2-10,7-11.6
		c4.5-0.3,4.6,5.5,4.1,8.6c-0.1,3.8-4.6,5.9-4,9.9c0.6,3.6-1.8,6.6-2,10c-0.2,3.2-2,5.8-3.4,8.6c2.6,0.7,5.7,0.8,7.6,3
		c1.4,1.4,1.6,3.7,0.5,5.3c-2.4,1.7-5.1-0.5-7.7-0.5c-5.4,2.1-9.9-2.9-14-5.7c-4.4,2.4-8.8,4.9-13.1,7.5c-0.5,3.9-1,7.7-1.7,11.6
		c38.1,0,76.1,0.1,114.2,0c-0.6-3.8-0.7-7.5-1.3-11.3c-3.3-3.3-7.5-5.5-11.5-7.8c-4.6,0-6,6-10.8,5.1c-3.7-0.2-9,1.3-10.8-3.1
		c-2.3-0.9-6.1-0.6-6.7-3.6c-0.4-1.9,1.1-3.4,2.8-3.9c2.8-1.1,5.6,0.5,8.1,1.4c0.6-3.8,0.7-7.8,2.8-11.1c0.5-3.5,1.8-6.8,3.8-9.7
		c0.4-3.1-0.6-6.5,1.2-9.4c1.1-2.9,4.4-6.3,7.6-4.2c3,4.1,0.4,9.3-0.2,13.8c3.1,4,7.7,6.7,9.5,11.6c7.3,1.1,14.5,2.9,21.9,3
		c2.5,0,4.9,0.9,7.2,1.8c-3.4,0.3-6.8,0.5-10.2,0.4c2.2,3.3,2.5,7.4,1.6,11.1c-1.3,5.3-2.6,10.5-3.5,15.8c6.6,0.1,13.3,0,19.9,0.1
		c2.8,0,5.9,0.4,8.4-1.3c2.6-1.6,6.3-3.8,5.3-7.5c-1-8.3-7.6-14.1-13.8-18.8c-10.8-8.8-14.2-22.9-18.3-35.6
		c-1.7-6.2-6-11.4-10.9-15.4c-1.9-1.5-4.4-1.1-6.7-1.4c-4.1-0.1-8.2-0.8-12.2-1.8c-1.6,6.1-3.1,13.3-8.7,17.1
		c-4.2,2.8-7.9-1.7-10.9-4.1c-3.5,3.8-4.7,8.9-8.1,12.7c-0.5-0.1-1.5-0.3-1.9-0.4c2.9-4.5,4.5-10,8.4-13.7c4.6-3.1,6.9,6.4,11.4,3.5
		c5.1-4.4,6.6-11.6,7.8-18c1.6-7.3-4.1-13.1-6-19.7c-2.4-8.8-3.8-18-7.8-26.3c-4-6.5-9.6-11.8-15-17.1c-3.1-2.7-6.2-5.7-10-7.3
		C-2.6,296-6.8,300.7-11.1,304.8 M-25.1,403.7c-3.5,1.7-7.5,2-11.1,3.1c-2.5,1.1-5.7,2.8-5.7,6c2.3,2.3,5.1,4.1,7.6,6.2
		c1.9-2.7-0.8-5-3-6.2c0-0.4-0.2-1.3-0.2-1.7c4.8-0.2,8.1,5.6,5,9.5c1.9,1.9,2.9,4.4,2.8,7.1c0.7,0.3,2,1,2.7,1.3
		c-1.3-4,2.9-6.2,2.9-9.9c-0.2-3.9,2.7-7.2,2.1-11.2c-0.5-4.3,4.7-6.5,4.2-10.9c0-1.4,0.2-4.5-1.9-4.3
		C-23.2,395.4-23.7,400-25.1,403.7 M39.5,398c-0.6,3.1,0.9,6.6-1.3,9.3c-1.6,2.2-2.5,4.8-2.4,7.5c-2.2,2.9-3.2,6.5-2.3,10.1
		c-0.8,0.9-1.6,1.7-2.4,2.6c1.1,0.1,2.3,0.2,3.4,0.4c1.1-2.5,3.3-3.9,5.9-4.4c0.2-2.1,0.4-4.5,2.5-5.5c2-1.2,6.1-2.2,6.5,1.1
		c-2.9,0-6.7,0.2-7,3.8c3.3-0.5,6.9-0.2,10.1-1.4c1.3-2.1,0.3-4.5-0.8-6.4c-2-3.9-6.6-5.7-8.4-9.7C43,401,47,396,43.5,392.1
		C41.9,393.9,40.2,395.7,39.5,398 M-61.2,420.8c-3.2,0.4-6.1,2.9-6.4,6.2c-0.5,4.6,1.6,9,2.4,13.5c9.5-3,17.4-9.3,26.3-13.4
		c-0.4-2.2-2-3.7-3.2-5.4c-0.1-1.4-0.1-2.8,0-4.1C-48.4,418.9-54.8,419.7-61.2,420.8 M-39.4,417.7c-0.2,0.8-0.5,2.5-0.7,3.4
		c2.7,2,5.3,4.3,8,6.3C-31.8,422.7-37,420.9-39.4,417.7 M55.8,418.9c-0.3,3.1-2,5.9-5.5,5.8c-0.4,1-0.8,2-1.2,3
		c7.6,3.9,13.8,10.4,22.1,13c0.9-4.2,2.6-8.4,2.5-12.8c-0.1-3-2.2-5.9-5.1-6.6C64.4,420,60.1,419.8,55.8,418.9 M36.5,429
		c3.4-0.5,6.7-0.9,10.1-1.3c0.4-1.1,0.9-2.1,1.4-3.2C44.1,426,38.4,424.7,36.5,429 M21.1,427.1c1.9,1.3,4.2,1.8,6.4,2.4
		c0.5-0.4,1.4-1.3,1.9-1.7C26.9,426.2,23.8,425.2,21.1,427.1 M-37.5,426.9c2.5,3.6,6.7,5.5,10.6,7.2c-0.2-2.5-2.3-3.9-4.4-4.8
		C-33.7,429.5-35.6,428-37.5,426.9 M-25.5,429.9c0.2,0.9,0.4,1.8,0.7,2.7c2.1,0.6,4.3,1.2,6.4,1.7C-19,430.8-22.6,430.3-25.5,429.9
		 M28.5,431.9c4.1,0.5,8.7,1.4,12.5-0.6C36.8,432.1,31.8,427.5,28.5,431.9 M-104.8,461.1c0,11.1,0,22.2,0,33.2c2,0,4,0,6,0
		c0,2,0,4,0,6.1c5.2,0.6,11.7-1.6,12.6-7.5c0.3-7.4,0-14.7,0.2-22.1c0.6-5-3.9-9.9-9-9.7C-98.2,461.1-101.5,461.1-104.8,461.1
		 M-82,461.1c0,13.1,0,26.2,0,39.3c5.7,0,11.3,0,17,0c0-2.1,0-4.2,0-6.3c-3.7,0-7.3,0-11,0c0-3.4,0-6.8,0-10.3c2.7,0,5.3,0,8,0
		c0-2.1,0-4.2,0-6.3c-2.7,0-5.3,0-8,0c0-3.5,0-7,0-10.5c3.7,0,7.3,0,11,0c0-2,0-4,0-6C-70.7,461.1-76.3,461.1-82,461.1 M-54.7,461.1
		c-2.2,13.1-4.4,26.2-6.7,39.2c2.1,0,4.3,0,6.4,0c0.5-3,0.9-6,1.4-9c2,0,3.9,0,5.9,0c0.4,3,0.9,6,1.4,9c2.2,0,4.3,0,6.5,0
		c-2.2-13.1-4.4-26.2-6.5-39.3C-49.1,461.1-51.9,461.1-54.7,461.1 M-36,461.1c0,13.1,0,26.2,0,39.2c5.3-0.4,11.6,1.5,15.8-2.6
		c4.6-4.4,2.4-11.3,2.9-16.8c-0.5-5.7,1.6-12.5-2.7-17.1C-24.2,459.5-30.7,461.6-36,461.1 M-5.7,461.1c0,2,0,4.1,0,6.1
		c-1.9,0-3.8,0-5.7,0c-0.2,11.1,0,22.1-0.1,33.2c2,0,4,0,6,0c0-4.9,0-9.7,0-14.6c5,0.4,11.1-1.5,12.3-7c0.3-4.5,1.1-9.5-1-13.6
		C3.5,461-1.6,460.9-5.7,461.1 M11,461.1c0,13.1,0,26.2,0,39.3c2,0,4,0,6,0c0-13.1,0-26.2,0-39.3C15,461.1,13,461.1,11,461.1
		 M20.8,461.1c2.5,6.5,5.2,13,7.6,19.5c-2.6,6.6-5.2,13.1-7.7,19.7c2.2,0,4.4,0,6.6,0c1.5-4,2.9-8,4.4-12c1.6,4,3,8,4.4,12
		c2.2,0,4.4,0,6.7,0c-2.5-6.6-5.1-13.1-7.7-19.7c2.5-6.5,5.1-13,7.7-19.5c-2.3,0-4.6,0-6.8,0c-1.3,3.8-2.6,7.6-4.3,11.3
		c-1.4-3.7-2.8-7.5-4.1-11.2C25.3,461.1,23.1,461.1,20.8,461.1 M67.2,461.1c0,13.1,0.1,26.1-0.1,39.2c5.4,0.1,10.9,0.1,16.4,0.1
		c-0.2-2,0.3-4.2-0.4-6.1c-3.2-0.3-6.4-0.1-9.6,0c-0.2-11-0.1-22-0.1-33C71.4,461.2,69.3,461.1,67.2,461.1 M90,463.9
		c-2.6,3.6-2.5,8.7-0.4,12.5c2.8,4.4,7.4,7.2,10.5,11.4c2,2.7,0.7,7.4-3.1,7.4c-2.7-0.8-3.1-3.9-4.1-6.2c-1.9,0.2-3.8,0.3-5.7,0.5
		c0.6,2.5,0.9,5.4,2.5,7.5c3.7,5.5,13.7,5.1,16.3-1.2c2-4.3,0.9-9.5-2-13c-2.8-4-8.1-6.1-9.5-11c-0.8-2.3,0.4-6.2,3.3-5.6
		c2.3,0.3,2.6,3,3.5,4.7c1.9-0.4,3.8-0.8,5.7-1.1c-0.8-2.8-1.5-6-4.2-7.6C98.9,459.7,92.9,459.9,90,463.9 M46.5,461.1
		c0,13.1,0,26.2,0,39.2c5.7,0,11.3,0,17,0c0-2.1,0-4.1,0.1-6.2c-3.6-0.1-7.2-0.1-10.8-0.1c0-3.4,0-6.8,0-10.2c2.7,0,5.3,0,8,0
		c0-2.1,0-4.2,0-6.2c-2.7,0-5.3,0-8,0c0-3.5,0-7,0-10.5c3.6,0,7.1,0,10.7,0c0-2,0-4,0-6C57.8,461.1,52.2,461.1,46.5,461.1
		 M-58.6,512.7C-48,522-36.3,529.8-24.2,537c8.7,5.1,17.6,9.9,27.1,13.4c21.9-10.7,44.9-20.7,62.8-37.8
		C24.2,512.6-17.2,512.6-58.6,512.7z"/>
	<path class="st2" d="M-2.9,287.1c3.8-2.5,8.7-2.2,12.4,0.4c8.7,5.7,16,13.4,22.5,21.4c5,6,6.9,13.8,9,21.2
		c25,2.2,50.1,4.8,74.3,11.7c-1.5,27.9-4.5,55.6-8.6,83.2c3.9,5.1,6.3,11.2,6.4,17.7c6.3-0.1,12.5,0,18.8,0
		c-3,12.7-6.5,25.4-9.1,38.2c2.6,12.7,6.1,25.2,9,37.8c-18.9,0-37.7,0-56.6,0c-18.9,18.5-42.5,31.3-66.5,41.8
		c-3.9,2.1-8.6,1.8-12.4-0.3c-23.7-10.5-46.9-23.4-65.6-41.6c-20.1,0-40.2,0-60.3,0c2.6-10.6,5.2-21.2,7.8-31.7
		c0.7-2.9,1.9-6,0.8-8.9c-2.9-11.8-5.8-23.5-8.6-35.3c7.1,0,14.2,0,21.3,0c0.1-6.9,2.8-13.6,7.1-18.9c-4-27.2-6.8-54.5-8.3-82
		c24.2-6.8,49.3-9.5,74.3-11.7c2.1-7.4,3.9-15.2,9-21.2C-19.3,300.7-11.9,292.8-2.9,287.1 M-5.6,291.2c-7.1,5.6-13.5,12.1-19.2,19.2
		c-5,6.1-6.7,14-8.8,21.4c-24.8,2.2-49.8,4.7-74,11.4c1.7,27.2,4.4,54.3,8.4,81.3c-4.8,5.5-7.9,12.8-6.8,20.2c-7.1,0-14.1,0-21.2,0
		c2.8,11.5,5.6,22.9,8.4,34.4c0.6,1.6,0,3.3-0.3,4.8c-2.7,11-5.4,22-8,33c19.6,0,39.3,0,58.9,0c17.6,17.2,39.3,29.6,61.5,39.8
		c4.3,1.7,9.1,5.1,13.8,2.4c24.3-10.6,48.3-23.5,67.3-42.2c18.4,0,36.8,0,55.2,0c-2.8-11.3-5.5-22.6-8.3-34
		c-0.6-1.6-0.3-3.3,0.1-4.9c2.7-11.1,5.4-22.2,8.1-33.4c-6.2,0-12.5,0-18.7,0c1.2-6.9-1.8-13.7-6-19c4.1-27.3,7-54.9,8.7-82.4
		c-24.2-6.7-49.2-9.2-74-11.4c-1.9-7.2-3.6-14.9-8.3-20.9c-4.2-5.4-8.9-10.5-14-15c-3.9-3.4-7.9-7.2-13.1-8.6
		C0.4,286.9-2.8,289.3-5.6,291.2z"/>
	<path class="st2" d="M-19.4,353.4c6.8-6.4,14-12.6,22.4-16.8c8.4,4.1,15.6,10.5,22.5,16.8c5.9,4.9,7.6,13.6,5.9,20.8
		c-3-1.5-5.4-3.9-8.5-5.3c-2.3-0.7-3.4,1.9-4.3,3.6c-3.2,7-4.2,15-8.5,21.5c-1.9,3-4.4,5.5-7,7.8c-5.8-4.6-9.6-11.2-11.7-18.3
		c-1.8-5-2.5-10.7-6.4-14.6c-4-0.2-6.7,3.8-10.2,5.3C-27.1,367-25.4,358.3-19.4,353.4z"/>
	<path class="st2" d="M-9.1,415.1c4-2.3,8-4.7,12.1-7c4,2.3,8.1,4.6,12.1,7C11,417.4,7,419.7,2.9,422
		C-1.1,419.7-5.1,417.4-9.1,415.1z"/>
	<path class="st2" d="M-10.3,417.1c4,2.3,8,4.6,12,6.9c0,4.6,0,9.3,0,13.9c-4-2.3-8-4.6-12-6.9C-10.3,426.4-10.3,421.7-10.3,417.1z"
		/>
	<path class="st2" d="M4,424.2c4.1-2.4,8.2-4.7,12.3-7.1c0,4.6,0,9.3,0,13.9c-4.1,2.4-8.2,4.8-12.3,7.1C4,433.4,4,428.8,4,424.2z"/>
	<path class="st2" d="M-98.5,467.4c1.3,0,4.4-0.1,5.9,2c0.4,0.6,0.6,1.4,0.6,2.2c0,6.7,0.2,13.5-0.1,20.2c-0.5,3-4.2,2.1-6.4,2.4
		C-98.5,485.3-98.5,476.4-98.5,467.4z"/>
	<path class="st2" d="M-30,467.3c2.4,0.1,6.4-0.5,6.6,2.9c0.2,7.2,0.2,14.4-0.1,21.5c-0.5,3.2-4.3,2.3-6.6,2.5
		C-30,485.2-30,476.3-30,467.3z"/>
	<path class="st2" d="M-5.5,479.8c0-4.2,0-8.4,0-12.5c2.1,0.4,5.2-0.5,6.3,1.8c0.7,2.8,0.7,5.8,0,8.6
		C-0.3,480.1-3.3,479.4-5.5,479.8z"/>
	<path class="st2" d="M-50.5,471.3c0.7,4.7,1.3,9.4,2,14.2c-1,0-3-0.1-4-0.1C-51.9,480.6-51.3,476-50.5,471.3z"/>
	<path class="st2" d="M-29.8,517.1c4.5,0,9,0,13.5,0c0,0.6,0,1.9,0,2.5c-1.8,0-3.7,0-5.5,0c0,3.1,0,6.2,0,9.3c-0.7,0-2.1,0-2.8,0
		c0-3.1,0-6.2,0-9.3c-1.8,0-3.5,0-5.3,0C-29.8,519-29.8,517.8-29.8,517.1z"/>
	<path class="st2" d="M7.3,517c1.1,0,1.4,0,1.7,0c0.3,0,0.9,0,1.7,0c2.2,4,4.2,8,6.5,11.9c-0.9,0-2.6,0-3.4,0c-0.3-0.6-1-2-1.3-2.6
		c-2.3,0-4.6,0-6.9,0c-0.3,0.6-1,2-1.3,2.6c-1.2,0-2,0-3.2,0 M6.7,524.1c1.5,0,3,0,4.5,0c-0.7-1.4-1.5-2.8-2.2-4.2
		C8.3,521.3,7.5,522.7,6.7,524.1z"/>
	<path class="st2" d="M20.5,517.2c0.6,0,1.7-0.1,2.3-0.1c1.8,2.3,3.6,4.6,5.4,6.9c1.7-2.3,3.5-4.5,5.2-6.8c0.6,0,1.7,0,2.3,0
		c0,3.9,0,7.8,0,11.8c-0.7,0-2.1,0-2.8,0c0-2.5,0-4.9,0-7.4c-1.6,2.2-3.3,4.4-5,6.5c-1.7-2.2-3.4-4.4-5-6.6c0,2.5,0,5,0,7.5
		c-0.6,0-1.9,0-2.5,0C20.5,525,20.5,521.1,20.5,517.2z"/>
	<path class="st2" d="M-13.3,517.1c4,0,8,0,12,0l0,2.2c-3.1,0-6.2,0-9.2,0c0,0.6,0,1.7,0,2.2c1.8,0,3.7,0,5.5,0c0,0.6,0,1.7,0,2.3
		c-1.8,0-3.6,0-5.5,0c0,0.9,0,1.8-0.1,2.8c3.1,0,6.2,0,9.3,0c0,0.6,0,1.7,0,2.3c-4,0-8,0-12,0C-13.3,525-13.3,521.1-13.3,517.1z"/>
</g>
</svg>
