<?xml version="1.0" encoding="utf-8"?>
<!-- Generator: Adobe Illustrator 19.0.0, SVG Export Plug-In . SVG Version: 6.00 Build 0)  -->
<svg version="1.1" id="Layer_1" xmlns="http://www.w3.org/2000/svg" xmlns:xlink="http://www.w3.org/1999/xlink" x="0px" y="0px"
	 viewBox="-51.9 291.2 488.9 259.7" style="enable-background:new -51.9 291.2 488.9 259.7;" xml:space="preserve">
<style type="text/css">
	.st0{fill:url(#SVGID_1_);}
	.st1{fill:url(#SVGID_2_);}
	.st2{fill:url(#SVGID_3_);}
	.st3{fill:url(#SVGID_4_);}
	.st4{fill:url(#SVGID_5_);}
	.st5{fill:url(#SVGID_6_);}
</style>
<linearGradient id="SVGID_1_" gradientUnits="userSpaceOnUse" x1="40.8685" y1="550.8171" x2="40.8685" y2="291.2635">
	<stop  offset="0" style="stop-color:#CD7514"/>
	<stop  offset="0.3166" style="stop-color:#D07817"/>
	<stop  offset="0.5708" style="stop-color:#D8821F"/>
	<stop  offset="0.8026" style="stop-color:#E7932D"/>
	<stop  offset="1" style="stop-color:#F9A83F"/>
</linearGradient>
<path class="st0" d="M118.9,292.8c4.5-0.5,8.9-1.9,13.5-1.4c-1.1,0.7-27.6,6.2-42.7,12.1c-2.2,0.9-5.6,2.3-9.7,4.3
	c-2.3,0.4-4.6,0.8-6.7,1.6c-23.2,8.7-45.5,20.4-64.5,36.5c-15.2,12.9-28.4,29-35.1,48c-6.1,16.9-6.4,35.9-0.5,52.9
	C-22,461.2-13.3,474-3,485c4,4.1,8,8.4,12.8,11.5c0.8,0.6,1.6,1.2,2.3,1.9c2.7,2.6,4.7,4.3,4.9,4.5c15.2,14.7,51.7,27.8,51.7,27.8
	c17.6,6.4,39.4,13.4,64.9,20c-4.4,0.6-8.6-0.8-12.9-1.2c-35.2-5-70-14.8-101.3-31.8c-21.7-11.9-42-27.6-55.8-48.3
	c-9.2-13.5-15.1-29.4-15.5-45.8c-0.9-22.5,8.8-44.3,23.2-61.2c18.4-21.6,43.1-37.1,69-48.2C65.3,303.5,92,296.7,118.9,292.8z"/>
<linearGradient id="SVGID_2_" gradientUnits="userSpaceOnUse" x1="344.0789" y1="550.8698" x2="344.0789" y2="291.2103">
	<stop  offset="0" style="stop-color:#CD7514"/>
	<stop  offset="0.3166" style="stop-color:#D07817"/>
	<stop  offset="0.5708" style="stop-color:#D8821F"/>
	<stop  offset="0.8026" style="stop-color:#E7932D"/>
	<stop  offset="1" style="stop-color:#F9A83F"/>
</linearGradient>
<path class="st1" d="M252.5,291.4c3.1-0.5,6.1,0.3,9.1,0.7c35.6,4.9,70.9,14.5,102.6,31.6c19.7,10.7,38.1,24.3,52.1,42
	c9.8,12.4,17.1,27.1,19.6,42.8c3,17.3-0.5,35.4-8.6,50.8c-10.6,20.5-27.8,36.7-46.8,49.4c-37.6,24.6-82,36.8-126.3,42.2
	c-0.8,0-2.3-0.1-3.1-0.2c1.1-0.7,26.7-5.9,41.6-11.4c2.9-1.1,7.2-2.7,12.2-5c6-1.1,11.6-3.7,17.2-6c26.8-11.3,52.6-27,71.3-49.7
	c13.5-16.2,22.8-36.7,22.5-58.1c0.1-22-10-43-24.3-59.4c-5.2-5.7-10.3-11.7-16.9-15.7c0,0-3.9-3.5-7.1-6.2
	c-19.1-16.1-58.3-31-58.3-31C295,303,275.8,296.6,252.5,291.4z"/>
<linearGradient id="SVGID_3_" gradientUnits="userSpaceOnUse" x1="198.5119" y1="522.289" x2="198.5119" y2="321.1356">
	<stop  offset="0" style="stop-color:#CD7514"/>
	<stop  offset="0.3166" style="stop-color:#D07817"/>
	<stop  offset="0.5708" style="stop-color:#D8821F"/>
	<stop  offset="0.8026" style="stop-color:#E7932D"/>
	<stop  offset="1" style="stop-color:#F9A83F"/>
</linearGradient>
<path class="st2" d="M82,331.2c7.1-7.3,17.5-10.4,27.5-10c8.1-0.3,15.2,4.5,22,8.4c3.5,2.2,7.5,3.6,10.9,6c0.2,0.1,0.3,0.3,0.4,0.5
	c0.8,2.4-0.1,5.1,1.1,7.4c3.3,7.6,3.5,15.9,2.9,24c0,0.1,0,0.1,0,0.2c-0.4,1.4-0.9,2.9-1.8,4.1c0,0.1-0.1,0.1-0.2,0.2
	c-3,2.9-8.3,2.3-10.7,6c-0.1,0.1-0.1,0.3-0.2,0.4c-0.4,3.4,1.1,6.7,1.3,10.1c0,0.5,0.4,0.9,0.9,0.9c6.6,0.5,12.6-2.5,19-3.5
	c0.3,0,0.5-0.2,0.6-0.4c2.6-4.3,7.5-12,9.3-14.9c0.4-0.7,1.2-1.1,2-1c7.7,0.5,47,3.2,51.5,6c3.2,1.9,2.3,5.7,2.4,8.9
	c0,0.4,0.4,0.8,0.8,0.9c4.6,0.6,44.6-0.5,60,0c1.9,0.1,2.9,1.5,3.7,3.1c0.4,0.8,1.5,0.7,1.7-0.1c0.3-0.9,0.7-1.8,1.4-2.5
	c3.8-4.4,7-9.3,11.2-13.4c0.3-0.3,0.9-0.3,1.3,0c0.8,0.7,1.7,1.4,2.5,2.2c0.2,0.2,0.3,0.4,0.3,0.7c0.1,5.7,0.2,11.4-0.1,17.1
	c0,0.5,0.4,1,0.9,1c3.1-0.1,6.1-0.1,9.2,0c0.5,0,1-0.4,1-0.9v-1.3c0-0.5,0.4-0.9,0.9-0.9c20.5-0.1,21.3-0.1,63,0c0.5,0,1,0.4,1,0.9
	c0,8.8,0,9.6,0,12.1c0,0.5-0.4,0.9-0.9,0.9c-18.6,0-42.3,0-63.1,0c-0.5,0-0.9-0.4-0.9-0.9c0-0.4,0-0.9,0-1.3c0-0.5-0.4-0.9-0.9-0.9
	c-2.7,0-5.5,0-8.2,0.1c-0.9,0-1.2,1.3-0.4,1.7l0.1,0.1c-0.4,2.1-0.4,2.1-0.8,4.2c-1.1,0.2-2.3,0.4-3.4,0.7c-0.6,0.1-1.1-0.3-1.1-0.8
	c-0.1-1.7-0.2-3.4-0.3-5.1c0-0.5-0.4-0.9-0.9-0.9c-2.3,0-4.5,0-6.8,0c-0.5,0-0.9,0.4-0.9,0.9c-0.1,1.4-0.1,2.9-0.3,4.3
	c0,0.3-0.2,0.5-0.4,0.7c-0.7,0.5-1.6,0.4-2.4,0.3c-0.5,0-0.8-0.4-0.8-0.9c0-0.6,0-1.2-0.1-1.9c0-0.9-1.2-1.2-1.7-0.5
	c-1,1.3-2.1,2.4-3.8,2.4c-17.5,1.2-35.1,0.5-52.7,0.6c-0.5,0-0.9,0.3-0.9,0.8c-0.4,2.7-0.8,5.5-2,7.9c0,0.1-0.1,0.1-0.1,0.2
	c-2.6,3.5-6.1,6.2-9.6,8.8c-0.2,0.2-0.4,0.4-0.4,0.7c-0.6,8.7,2.3,17.1,4.1,25.6c0.1,0.5-0.2,1-0.7,1.1c-3,0.9-6.8,0.9-8.1,4.1
	c-2.3,6.9-1.4,15-5.9,21.2c-4.5,7.4-11.9,12.6-20,15.4h-0.1c-3.4,0.9-7,0.7-10.4-0.1h-0.1c-8.4-2.3-16.4-5.8-24-10
	c-4.6-2.6-9.1-5.4-13.9-7.6c-0.5-0.2-1.1,0-1.3,0.6c-0.7,2.5-1.5,5-2.5,7.4c-0.1,0.3-0.1,0.6,0,0.8c2.2,3.8,7.7,3.8,9.4,8
	c2.4,5.3,1.6,11.3,0.7,16.8v0.1c-0.2,4.2-0.2,8.5-1,12.7c-0.1,0.5-0.6,0.8-1.1,0.7c-25.4-4.8-50.3-12.1-73.7-23.2
	c-17.6-8.5-34.7-18.7-48.7-32.4c-0.2-0.1-0.3-0.3-0.3-0.6c-1-6.8,0.3-13.9-0.8-20.8c-0.7-4.2-0.3-8.4,0.3-12.6c0,0,0,0,0-0.1
	c1.1-15.3,5.3-31.2,16-42.7c6.1-6.9,14.4-12.1,23.7-12.7c4.6-0.3,8.9,1.9,13.5,2c0.6,0,1.1-0.5,1-1.1c-0.9-5.2-3.1-10.2-2.8-15.6
	C70,351.2,73.9,339.6,82,331.2 M216.7,385.7c0,0,0.8-0.3,0.9-0.8c0.5-2.6,1-4.5-1.4-6.3c-3-2-6.5-1.9-9.9-1.9
	c-10.3,0.2-20.6-0.1-30.9,0.2c-4.4-0.2-7.6,5.9-7.6,8.8 M296.7,379.9c-1.9,2.6-3.9,5.1-5.7,7.7c-0.4,0.6,0,1.4,0.8,1.5
	c2.8,0.1,5.6,0.1,8.4,0c0.6,0,1.1-0.6,0.9-1.2c-0.7-2.5-2.3-4.6-2.5-7.2c0-0.5-0.5-0.8-0.9-0.8C297.3,379.9,297,379.9,296.7,379.9
	 M185,416.8c-0.1,2.4-0.1,4.9-1.3,7.1c-0.4,0.7,0.1,1.4,0.9,1.4c1-0.1,2-0.1,3-0.1c0.3,0,0.6-0.2,0.8-0.4c1.1-1.8,1.5-3.7,1.3-5.8
	c0-0.4-0.3-0.7-0.7-0.8C187.7,417.7,186.3,417.3,185,416.8 M174,430.6c1.5,3.7,3.9,6.9,5.7,10.4c0.3,0.6,1.2,0.7,1.6,0.1
	c2.9-4.2,6.1-8.3,9-12.4c0.4-0.6,0-1.5-0.8-1.5c-4.3,0-8.6-0.2-12.9,0c-0.1,0-0.2,0-0.4,0.1C174.9,428,173.4,428.9,174,430.6z"/>
<linearGradient id="SVGID_4_" gradientUnits="userSpaceOnUse" x1="279.9708" y1="521.1693" x2="279.9708" y2="429.7245">
	<stop  offset="0" style="stop-color:#CD7514"/>
	<stop  offset="0.3166" style="stop-color:#D07817"/>
	<stop  offset="0.5708" style="stop-color:#D8821F"/>
	<stop  offset="0.8026" style="stop-color:#E7932D"/>
	<stop  offset="1" style="stop-color:#F9A83F"/>
</linearGradient>
<path class="st3" d="M297.2,431.3c2.4-1.6,5.4-2,8.1-1c1.6,1.8,2.3,4.2,3.2,6.4c4.4,12.5,8.3,25.3,10.4,38.4
	c0.9,5.1,2.2,10.3,2,15.5c-1.6,1.2-3.2,2.9-5.4,2.4c-6.8-0.2-13.6-1.8-20.3-3.2c-5.1,9.1-9.9,18.6-18,25.5
	c-4.1,3.4-9.2,6.5-14.8,5.8c-4.3,0-7.3-3.9-8.3-7.7c-0.7-4.5,1.3-8.6,2.1-12.9c1.5-5.9,2.8-11.8,3.9-17.8c-4.6-4.3-11.7-2.8-17-5.8
	c-2.6-1.8-5-4.9-3.9-8.3c2-2.8,5.5-3.3,8.6-4.1c5.3-1.2,9.7-4.7,14-7.8c7-5.4,14.3-10.4,21.5-15.5
	C287.7,437.8,292.4,434.4,297.2,431.3z"/>
<linearGradient id="SVGID_5_" gradientUnits="userSpaceOnUse" x1="24.4698" y1="307.7697" x2="24.4698" y2="496.5697">
	<stop  offset="0" style="stop-color:#F4F4F4"/>
	<stop  offset="1" style="stop-color:#D2D2D2"/>
	<stop  offset="1" style="stop-color:#B7B7B7"/>
</linearGradient>
<path class="st4" d="M73.2,309.4c2.2-0.8,4.5-1.2,6.7-1.6c-18.2,8.7-35.9,18.9-51.2,32.1C12.9,353-0.3,369.4-9,388.1
	c-6.7,14.4-9.9,30.6-8.5,46.5c0.3,17.1,7.1,33.4,16.4,47.6c3.2,5.2,7.3,9.6,10.9,14.4c-4.9-3.1-8.9-7.3-12.8-11.5
	c-10.3-11-19-23.9-23.8-38.2c-5.9-17-5.6-36,0.5-52.9c6.7-19,19.9-35.1,35.1-48C27.7,329.8,50,318.1,73.2,309.4z"/>
<linearGradient id="SVGID_6_" gradientUnits="userSpaceOnUse" x1="360.5534" y1="345.5697" x2="360.5534" y2="534.4697">
	<stop  offset="0" style="stop-color:#F4F4F4"/>
	<stop  offset="1" style="stop-color:#D2D2D2"/>
	<stop  offset="1" style="stop-color:#B7B7B7"/>
</linearGradient>
<path class="st5" d="M374.8,345.6c6.7,4,11.7,10,16.9,15.7c14.3,16.4,24.4,37.3,24.3,59.4c0.4,21.4-9,41.9-22.5,58.1
	c-18.7,22.7-44.5,38.4-71.3,49.7c-5.6,2.3-11.2,4.9-17.2,6c15.6-7.5,30.9-15.9,44.6-26.6c15.2-11.8,28.6-26,38.4-42.5
	c7.3-12.8,12.9-26.8,14.1-41.6c0-7,0.3-14-0.1-21c-2.6-20.2-11.9-39.2-25.4-54.3C376,347.4,375.4,346.5,374.8,345.6z"/>
</svg>
