<?xml version="1.0" encoding="utf-8"?>
<!-- Generator: Adobe Illustrator 19.1.0, SVG Export Plug-In . SVG Version: 6.00 Build 0)  -->
<svg version="1.1" id="Layer_2" xmlns="http://www.w3.org/2000/svg" xmlns:xlink="http://www.w3.org/1999/xlink" x="0px" y="0px"
	 viewBox="-394 271.8 51.1 52.5" style="enable-background:new -394 271.8 51.1 52.5;" xml:space="preserve">
<style type="text/css">
	.st0{fill:none;}
	.st1{fill:#F3F9F9;}
	.st2{fill:#BECAD6;}
	.st3{fill:#E1EEF4;}
	.st4{fill:#BAC6D2;}
	.st5{fill:url(#SVGID_1_);}
	.st6{fill:url(#SVGID_2_);}
	.st7{fill:url(#SVGID_3_);}
	.st8{fill:url(#SVGID_4_);}
	.st9{fill:url(#SVGID_5_);}
	.st10{fill:url(#SVGID_6_);}
	.st11{fill:#EDF5F7;}
	.st12{fill:url(#SVGID_7_);}
	.st13{fill:url(#SVGID_8_);}
</style>
<g>
	<g>
		<polygon class="st0" points="-375.7,295.9 -370.7,292.8 -371.6,291.8 -373.5,293 -374.7,291.6 -372.7,290.4 -373.7,289.3 
			-378.7,292.3 -377.7,293.4 -375.8,292.2 -374.6,293.6 -376.5,294.8 		"/>
		<polygon class="st0" points="-372.5,297.7 -373.5,296.5 -369.6,294.1 -370.5,293.1 -375.5,296.1 -373.6,298.3 		"/>
		<g>
			<polygon class="st0" points="-366.9,297.4 -369.3,294.6 -370.4,295.2 -369.6,296.2 -372.4,297.8 -372.4,297.8 -373.5,298.5 
				-373.5,298.5 -373.5,298.5 -372.5,299.6 -368.6,297.3 -368,298 			"/>
			<polygon class="st0" points="-364.4,300.4 -368.3,301.2 -366.2,298.3 -366.7,297.6 -366.8,297.6 -368.1,298.3 -370.6,301.9 
				-369.9,302.8 -363.4,301.7 			"/>
		</g>
	</g>
	<g>
		<path class="st0" d="M-367.8,304.5c-0.3,0.1-0.6,0.1-0.9-0.1c-0.2-0.3-0.1-0.5,0.1-0.8c0.3-0.1,0.6-0.1,0.9,0.1
			C-367.5,304-367.6,304.4-367.8,304.5z"/>
		<path class="st0" d="M-365.3,306c-0.6,0.4-1.5,0.6-2-0.1c-0.6-0.7-0.1-1.3,0.6-1.7c0.6-0.4,1.5-0.6,2.1,0
			C-364.1,305-364.6,305.6-365.3,306z M-366.2,304.9c-0.2,0.1-0.7,0.4-0.5,0.6c0.2,0.2,0.8-0.1,0.9-0.2c0.1-0.1,0.7-0.4,0.5-0.6
			C-365.5,304.5-366.1,304.8-366.2,304.9z"/>
		<path class="st0" d="M-363.2,306.1l-0.3,0.2l0,0c0.3,0,0.6,0.1,0.9,0.3l-0.7,0.4c0,0,0-0.1-0.1-0.1c-0.4-0.4-0.7-0.2-1.1,0
			l-1.3,0.8l-0.5-0.6l2.6-1.5L-363.2,306.1z"/>
		<path class="st0" d="M-365,309.2c-0.2,0.1-0.3,0.3-0.2,0.5c0.3,0.3,0.7,0,0.9-0.2l0.4-0.2l0,0c-0.1,0-0.3,0-0.4,0
			c-0.1,0-0.3-0.1-0.3-0.2c-0.2-0.3-0.1-0.5,0-0.8c0.1-0.3,0.5-0.5,0.8-0.7c0.5-0.3,1.4-0.8,1.9-0.2c0.2,0.2,0.1,0.5,0,0.6l0,0
			l0.3-0.2l0.5,0.6l-2.8,1.7c-0.8,0.5-1.3,0.4-1.8-0.2c-0.5-0.6-0.3-1,0.3-1.4L-365,309.2L-365,309.2z M-363,308.7
			c0.1-0.1,0.7-0.4,0.5-0.6c-0.2-0.2-0.8,0.1-0.9,0.2c-0.2,0.1-0.7,0.4-0.5,0.6C-363.7,309.1-363.1,308.8-363,308.7z"/>
	</g>
</g>
<g>
	<path class="st1" d="M-368.5,323.2l-24.5-20.7l11.2-29.6c0,0,5,2.5,8.1,5.3h5.1V323.2z"/>
	<polygon class="st2" points="-393,302.5 -368.5,298.3 -368.5,323.2 	"/>
	<path class="st3" d="M-368.5,323.2l24.4-20.7l-11.2-29.6c0,0-5.3,2.7-8.1,5.3h-5.1V323.2z"/>
	<polygon class="st4" points="-344.1,302.5 -368.5,298.3 -368.5,323.2 	"/>
	<linearGradient id="SVGID_1_" gradientUnits="userSpaceOnUse" x1="-368.55" y1="316.7794" x2="-368.55" y2="275.2342">
		<stop  offset="0" style="stop-color:#676292"/>
		<stop  offset="0.9994" style="stop-color:#363147"/>
	</linearGradient>
	<path class="st5" d="M-356.4,275.5l-1.7-0.2l-5.1,3.7l-5.4,6.8l-5.4-6.8l-5.1-3.7l-1.7,0.2l-8.7,26.4l18.6,14.9
		c0.2-0.8,1.1-1.4,2.2-1.4c1.1,0,2,0.6,2.2,1.4l18.6-14.9L-356.4,275.5z"/>
	<linearGradient id="SVGID_2_" gradientUnits="userSpaceOnUse" x1="-367.1286" y1="291.8063" x2="-371.744" y2="317.9812">
		<stop  offset="0" style="stop-color:#CBD7E0"/>
		<stop  offset="1" style="stop-color:#FAFDFE"/>
	</linearGradient>
	<path class="st6" d="M-358.1,293.4l-10.4,2.1l-10.4-2.1l-6.5,6.5c0,0,7.5,4.6,9,6.6c1,1.4,3.9,7,5.6,10.2l2.4,1.9l2.4-1.9
		c1.6-3.2,4.6-8.8,5.6-10.2c1.4-2,9-6.6,9-6.6L-358.1,293.4z"/>
	<linearGradient id="SVGID_3_" gradientUnits="userSpaceOnUse" x1="-368.55" y1="318.5444" x2="-368.55" y2="315.3641">
		<stop  offset="0" style="stop-color:#676292"/>
		<stop  offset="0.9994" style="stop-color:#363147"/>
	</linearGradient>
	<path class="st7" d="M-368.5,315.4c-1.1,0-2,0.6-2.2,1.4l2.2,1.8l2.2-1.8C-366.6,316-367.5,315.4-368.5,315.4z"/>
	<linearGradient id="SVGID_4_" gradientUnits="userSpaceOnUse" x1="-361.7323" y1="300.2527" x2="-362.8234" y2="297.2551">
		<stop  offset="0" style="stop-color:#676292"/>
		<stop  offset="0.9994" style="stop-color:#363147"/>
	</linearGradient>
	<path class="st8" d="M-365.5,300.7l6.1-4.7C-359.4,296-357.3,300.7-365.5,300.7z"/>
	
		<linearGradient id="SVGID_5_" gradientUnits="userSpaceOnUse" x1="-940.7669" y1="300.2527" x2="-941.858" y2="297.2551" gradientTransform="matrix(-1 0 0 1 -1316.1345 0)">
		<stop  offset="0" style="stop-color:#676292"/>
		<stop  offset="0.9994" style="stop-color:#363147"/>
	</linearGradient>
	<path class="st9" d="M-371.6,300.7l-6.1-4.7C-377.7,296-379.8,300.7-371.6,300.7z"/>
	<linearGradient id="SVGID_6_" gradientUnits="userSpaceOnUse" x1="-368.55" y1="283.9078" x2="-368.55" y2="300.7346">
		<stop  offset="0" style="stop-color:#E8F1F3"/>
		<stop  offset="1" style="stop-color:#FFFFFF"/>
	</linearGradient>
	<polygon class="st10" points="-365.5,300.7 -371.6,300.7 -371,286.8 -368.5,283.9 -365.5,284.3 	"/>
	<polygon class="st11" points="-368.5,283.9 -365.5,300.7 -368.5,315.8 -371.6,300.7 	"/>
	<linearGradient id="SVGID_7_" gradientUnits="userSpaceOnUse" x1="-377.026" y1="272.8634" x2="-377.026" y2="300.7346">
		<stop  offset="0" style="stop-color:#E8F1F3"/>
		<stop  offset="1" style="stop-color:#FFFFFF"/>
	</linearGradient>
	<path class="st12" d="M-368.5,283.9c0,0-5.9-8.7-13.2-11l1.1,2.6c0,0,6.4,1.9,8.5,6.8c0,0-8.3,2.8-9.6,5l-3.7,12.6
		c0,0,3.8-3.6,7.8-3.9l6.1,4.7L-368.5,283.9z"/>
	<linearGradient id="SVGID_8_" gradientUnits="userSpaceOnUse" x1="-360.074" y1="272.8634" x2="-360.074" y2="300.7346">
		<stop  offset="0" style="stop-color:#F5FAFA"/>
		<stop  offset="1" style="stop-color:#E2F0F1"/>
	</linearGradient>
	<path class="st13" d="M-368.5,283.9c0,0,5.9-8.7,13.2-11l-1.1,2.6c0,0-6.4,1.9-8.5,6.8c0,0,8.3,2.8,9.6,5l3.7,12.6
		c0,0-3.8-3.6-7.8-3.9l-6.1,4.7L-368.5,283.9z"/>
</g>
</svg>
