<?xml version="1.0" encoding="utf-8"?>
<!-- Generator: Adobe Illustrator 21.0.0, SVG Export Plug-In . SVG Version: 6.00 Build 0)  -->
<svg version="1.1" id="Layer_1" xmlns="http://www.w3.org/2000/svg" xmlns:xlink="http://www.w3.org/1999/xlink" x="0px" y="0px"
	 viewBox="0 0 252.4 234.8" style="enable-background:new 0 0 252.4 234.8;" xml:space="preserve">
<style type="text/css">
	.st0{fill:#CCCCCC;stroke:#CCCCCC;stroke-width:9.375000e-02;}
	.st1{fill:#F26522;stroke:#F26522;stroke-width:9.375000e-02;}
</style>
<path class="st0" d="M123.7,18.4c23.7-19.8,58.8-23.9,86.6-10.9c15.2,7.1,28.6,18.9,35.9,34.1c7.4,17.8,7.9,38.2,2.4,56.5
	c-2.5,8.3-6.4,16.3-12.5,22.5c-4.4-9.2-10.7-17.3-16.5-25.5c-1-1.5-2.8-3.3-1.3-5c5.1-9.8,6.3-21.4,3.2-32
	c-3.4-12-12.1-22.2-23.1-27.9c-12-6.3-26.7-7.1-39.4-2.4c-13.1,4.7-24,15.5-28.2,28.9c-1.7,4.8-2,9.9-2.2,15
	c-9.4-5.5-19.3-10-29.7-13.2C101.8,42.7,111.5,28.6,123.7,18.4z"/>
<path class="st1" d="M177.4,50c1.5-1.8,3.9-0.5,5.8-0.3c10.1,2.4,20.5,4.1,30.5,6.8c-12.9,12.7-27,24.2-39.8,37.1
	c-5.8,6-12.3,11.4-17.8,17.8c10.8,4.4,23.1,5.5,34.3,1.8c4.3-1.1,8.1-3.6,12.2-5.2c4.1,8.3,9.8,15.6,15.1,23.2
	c-14,11.4-32.8,16.7-50.7,14.8c-12.2-1.1-23.6-6-34-12.2c-15.3,14.5-30.2,29.3-45.2,44.1c-10.7-2.3-21.4-4.4-32.1-6.5
	c-1.4-0.3-2.8-0.8-4.1-1.3c10.2-9.4,20.5-18.6,31-27.6c8.4-8.3,17-16.3,25.3-24.8c-13.5-10.9-32.6-13.2-48.8-7.8
	c-3.4-3.7-6.2-7.8-9.6-11.5c-2.8-3.2-6.1-6.1-8.7-9.4c10.4-7,22.7-11.5,35.3-11.2c19.3,0.5,37.4,9.4,52.1,21.4
	c7.1-6.6,13.4-14.1,20.3-21C158.1,68.8,167.6,59.2,177.4,50z"/>
<path class="st0" d="M20.4,104.6c3.2,1.9,5.6,5,8.2,7.7c3.5,3.6,6.7,7.5,9.5,11.6c-7.6,8.9-12.8,20.1-13.3,31.9
	c-1.2,16.4,6.2,33,18.9,43.4c10.8,9,25.4,13.2,39.4,11.4c12.9-1.6,25.1-8.3,33.4-18.3c7.7-9.2,12.1-21.1,12-33.1
	c8,4.7,16.7,8,25.6,10.7c-2.1,13.8-8.4,27-17.4,37.6c-11.8,13.9-28.6,23.4-46.6,26.3c-17.1,2.9-35.2-0.3-50.3-8.8
	c-14-7.8-25.5-20.1-32.4-34.6c-7.3-15.2-9.3-32.7-5.8-49.2C4.5,127.6,11.1,114.9,20.4,104.6z"/>
</svg>
