<?xml version="1.0" encoding="utf-8"?>
<!-- Generator: Adobe Illustrator 19.0.0, SVG Export Plug-In . SVG Version: 6.00 Build 0)  -->
<svg version="1.1" id="Layer_1" xmlns="http://www.w3.org/2000/svg" xmlns:xlink="http://www.w3.org/1999/xlink" x="0px" y="0px"
	 viewBox="329.2 100.4 670.4 689.6" style="enable-background:new 329.2 100.4 670.4 689.6;" xml:space="preserve">
<style type="text/css">
	.st0{fill:#1A1B1B;}
</style>
<g id="_x23_141414ff">
</g>
<g id="_x23_ffffffff">
	<path class="st0" d="M566.7,118.6c52.8-18,110.1-22.6,165.2-13.9c54.8,8.7,107.3,31.2,151.6,64.7c5.4,4.3,11.4,7.8,16.8,12.1
		c12.7,10.3,24.4,21.9,35.1,34.3c25.2,28.4,44,62.4,54.9,98.8c4.2,13.8,7.2,27.9,9.4,42.1c-56.2,0-112.4,0-168.6,0
		c-13.2-0.1-26.4,0.2-39.6-0.2c11-12.9,21.1-26.4,31.7-39.6c12.9-16,25.4-32.4,38.5-48.3c-5.6-6.8-12.4-12.6-19-18.5
		c-30.5-26-67.1-44.9-106.1-54.2c-52.9-12.8-109.9-8-159.9,13.6c-15.4,6.5-30,14.8-43.9,24.2c-1.2,0.8-2.4,1.5-3.7,2.2
		c-16-18.7-32.6-36.8-48.6-55.4c-17.7,9.1-35.5,17.9-53.3,26.9c14.8-14.7,30.5-28.6,47.3-40.9C502.7,146.2,533.7,129.7,566.7,118.6z
		"/>
	<path class="st0" d="M464.2,204c2.9-1.4,5.6-3.1,8.7-3.9c13.5,15.9,27.6,31.5,41.5,47c-9.8,8.6-19.8,17-28.5,26.7
		C442.8,319.7,418,382,417.7,444.9c-0.5,42.2,9.9,84.4,29.8,121.5c18.3,34.2,44.4,64.3,76,86.9c51.4,37.4,117.4,54.6,180.4,45.9
		c21.3-3.1,42.6-7.5,62.5-15.8c24.1-9.4,46.4-23,66.6-39c11.9,15.6,23.5,31.4,35.5,47c5.7,7.3,10.8,15,16.8,22
		c-32.6,27.6-70.9,48.4-111.6,61.3c-41.7,11.8-85.5,17.9-128.8,14.2c-43.5-3.4-86.3-15.1-125.3-34.6
		c-70.5-34.9-128.2-94.8-160.4-166.6c-20.9-46.2-31-97.2-29.9-147.9c1.3-71.8,26.1-142.8,69.6-200c1.9-2.2,3.2-5.2,6-6.4
		C424.6,223.6,444.4,213.9,464.2,204z"/>
	<path class="st0" d="M603.4,225.6c29.6-10.4,61.4-14.7,92.6-11.4c19.9,1.7,39.3,6.9,58.1,13.4c20.6,7.2,40,17.6,57.6,30.5
		c5.9,4.3,11.4,9.2,17.3,13.5c-0.1,0.9-0.4,1.7-1,2.4c-17.4,21-34.8,41.9-52.2,62.9c-6.4-6.9-12.4-14.2-19.8-20.2
		c-11.2-9.5-24.2-16.8-38.1-21.6c-19.4-5.4-39.9-8.1-60-6c-27.4,2.4-54.1,12.5-76.4,28.6c-28.8,20.5-50.3,51.3-59.7,85.4
		c66.5,0.1,133,0.1,199.5,0.2c-22.6,27.4-45,54.9-67.5,82.4c-58,0-116,0.2-173.9,0.1c15.2,4,30.5,7.6,45.7,11.6
		c12.8,35.7,39.1,66.2,72.4,84.2c18.4,10.1,38.9,16.3,59.8,18.2c19.5,2.1,39.3-0.5,58.1-5.5c17.6-5,34.2-13.4,48.9-24.3
		c2.7-2.1,5.5-4.1,8.3-6.1c16,20.5,31.7,41.1,47.8,61.5c-14.8,10.5-30.2,20.3-46.8,27.7c-19.5,8.9-40.2,15.4-61.3,19.1
		c-23.1,4.2-46.9,5-70.1,1.4c-42.4-6.5-82.6-25.4-115.3-53c-28.6-24.5-52.4-55-67.7-89.5c-20.6-46.3-23.8-100.1-9.1-148.6
		c13.5-44.8,41.5-84.5,76.9-114.8C550,249.1,576.1,235.3,603.4,225.6z"/>
</g>
</svg>
