<?xml version="1.0" encoding="utf-8"?>
<!-- Generator: Adobe Illustrator 19.0.0, SVG Export Plug-In . SVG Version: 6.00 Build 0)  -->
<svg version="1.1" id="Layer_1" xmlns="http://www.w3.org/2000/svg" xmlns:xlink="http://www.w3.org/1999/xlink" x="0px" y="0px"
	 viewBox="-147 375.9 300 90" style="enable-background:new -147 375.9 300 90;" xml:space="preserve">
<style type="text/css">
	.st0{fill:#050708;}
	.st1{fill:#FFFFFF;}
</style>
<g id="_x23_050708ff">
	<path class="st0" d="M-136.8,375.9h27.6c9.2,1.5,17,7.9,20.8,16.3c3.5,8.1,6,16.9,5.5,25.8c-0.6,14.6-6.9,29.4-18.4,38.7
		c-5.3,4.3-11.8,7.2-18.7,7.4c-8.1,0.1-16.3,0-24.4,0c0.1-1,0.3-2.9,0.4-3.8c-0.7,0-2.2,0-2.9,0C-147,460.2-140.3,403.1-136.8,375.9
		 M-135.8,377c-3.3,27.4-6.7,54.7-10,82c7.6,0,15.2,0.1,22.8,0c6.5,0,12.9-2.3,18.1-6.2c9.9-7.3,16.2-18.8,18.6-30.8
		c2.3-11.2,1.1-23.6-5.3-33.3c-4.3-6.5-11.4-11.3-19.3-11.6C-119.2,376.9-127.5,377.1-135.8,377z"/>
	<path class="st0" d="M35.1,375.9h26.7c5.6,0.9,11.1,3.1,15.1,7.1c6.7,6.3,9.4,15.5,11.4,24.2c2.6,15.7-2,32.5-12.5,44.5
		c-6.1,6.8-14.5,12.1-23.9,12.3c-8.2,0.1-16.4,0-24.5,0c0.1-0.9,0.3-2.8,0.4-3.8c-0.8,0-2.3-0.1-3-0.2C28.3,432,31.6,404,35.1,375.9
		 M36.1,377c-3.4,27.4-6.6,54.7-10,82c7.6,0,15.3,0.1,22.9,0c7.2-0.1,14.1-2.9,19.6-7.5c10.3-8.5,16.3-21.5,17.7-34.6
		c1.1-10.2-0.8-21-7-29.4c-4.3-5.9-11.1-10.2-18.6-10.4C52.6,376.9,44.4,377.1,36.1,377z"/>
	<path class="st0" d="M99,375.9h27.7c8.9,1.5,16.6,7.6,20.5,15.7c3,6.6,5.1,13.6,5.9,20.8v6.8c-1,11.8-5.3,23.5-13.3,32.4
		c-6.2,7-15.1,12.4-24.7,12.4c-7.9,0.1-15.8,0-23.7,0c0.1-0.9,0.3-2.8,0.4-3.7c-0.8,0-2.3-0.1-3-0.2C92.2,432,95.6,404,99,375.9
		 M100,377c-3.4,27.4-6.6,54.7-10,82.1c7.6,0,15.3,0.1,22.9,0c7.7-0.1,15.1-3.4,20.7-8.5c9.8-8.8,15.5-21.6,16.7-34.7
		c0.9-10.1-1.2-20.7-7.4-28.9c-4.3-5.6-10.9-9.6-18-9.9C116.6,376.9,108.3,377.1,100,377z"/>
	<path class="st0" d="M-122.4,394.2c5-0.1,10.6-0.1,14.6,3.4c5.2,4.4,6.5,11.8,6.1,18.3c-0.5,8.7-3.7,18.1-11.4,23
		c-4.4,3-9.9,3.1-15.1,3.1C-126.3,426-124.3,410.1-122.4,394.2 M-119.9,399.1c-1.8,13.9-3.4,27.8-5.1,41.7
		c8.2,0.6,15.9-4.6,19.1-12.1c3.2-7.6,4.6-16.5,1.6-24.4C-107.8,399.4-114.4,398.8-119.9,399.1z"/>
	<path class="st0" d="M49.6,394.2c5-0.1,10.7-0.1,14.7,3.4c5.4,4.6,6.5,12.3,6,19c-0.7,8.4-3.9,17.5-11.3,22.2
		c-4.4,3-9.9,3.2-15.1,3.1C45.6,426,47.6,410.1,49.6,394.2 M52.1,399.1c-1.9,13.9-3.4,27.8-5.2,41.7c8.5,0.8,16.4-5,19.5-12.8
		c2.9-7.4,4.2-16,1.2-23.6C64.2,399.4,57.6,398.9,52.1,399.1z"/>
	<path class="st0" d="M113.5,394.2c5-0.1,10.7-0.1,14.7,3.4c5.2,4.4,6.4,11.8,6,18.3c-0.5,8.6-3.7,18-11.3,22.9
		c-4.4,3.1-10,3.2-15.2,3.2C109.5,426,111.5,410.1,113.5,394.2 M115.9,399.1c-1.8,13.9-3.4,27.8-5.1,41.7c8.2,0.6,16-4.7,19.1-12.1
		c3.2-7.5,4.5-16.4,1.6-24.2C128.1,399.4,121.5,398.8,115.9,399.1z"/>
	<path class="st0" d="M-70.8,406.2c7.8-6.4,20-7.9,28.4-2c5.3,3.7,7.2,10.2,8.8,16.1c1.8,6.1,1.3,12.5,0.6,18.7
		c-10.9,0-21.9,0-32.8,0c0.1,1.7-0.1,3.5,0.3,5.1c2,2.5,5.7,3.1,8.6,2c2.4-0.8,3.9-2.9,5.5-4.7c5.2-0.1,10.4,0,15.5,0
		c-0.5,1.6-1.1,3.2-1.6,4.9c0.7,0,2.2,0,3,0.1c-1.5,3.9-3.2,7.8-6,10.9c-3.9,4.6-9.6,7.2-15.4,8.5h-6.2c-7-0.8-13.3-5-16.5-11.3
		c-4.5-6.4-5.7-14.5-4.8-22.2C-82.4,422.7-78.7,412.5-70.8,406.2 M-68.7,406c-9.3,6.5-13.1,18.1-13.7,28.9c-0.5,7.6,1.3,16,7.3,21.2
		c7.3,6.3,18.7,6.1,26.7,1.2c5.5-3.2,9.1-8.8,11.1-14.6c-4.6,0-9.1,0-13.7,0c-2.6,4.4-8.3,6.7-13,4.2c-4.7-2.4-4.7-8.3-4.2-12.8
		c10.9-0.1,21.8,0,32.6,0c1-9,1.1-19.4-5.1-26.7C-47.7,399.7-60.6,400.2-68.7,406z"/>
	<path class="st0" d="M1.1,401.2c6-1.6,13.6-0.1,16.7,5.7c2.8,6.2,4.4,13.1,3.6,20c-1.4,12.4-3,24.7-4.4,37.1
		c-5.2,0.1-10.3,0-15.5,0.1c0.1-1.3,0.3-2.5,0.4-3.8c-0.7-0.1-2.1-0.2-2.8-0.2c0.7-12.7,3.8-25.3,3.8-38c-2.4-0.5-5-1-7.2,0.4
		c-3.8,2.4-4.9,7.2-5.6,11.3c-1.3,10-2.5,20.1-3.7,30.1c-5.2,0.1-10.4-0.1-15.7,0.2c-0.5-1.6-2.6-2.3-2.6-4.1
		c2.7-19.1,4.7-38.4,7.2-57.6c5.5,0,11,0,16.5,0c-0.1,1.8-0.3,3.5-0.4,5.2C-5.8,405-2.9,402.1,1.1,401.2 M-2.8,404.1
		c-3.1,1.8-4.6,5.1-7.3,7.2c0.1-2.6,0.4-5.1,0.7-7.7c-4.8,0-9.6,0-14.3,0c-1.2,9.2-2.3,18.6-3.4,28c-1,9.2-2,18.3-2.9,27.3
		c2.2,0,4.4,0,6.6,0c2.4,0,4.7,0,7.1,0c1.9-10.3,2.5-20.9,4.1-31.2c0.7-5.3,4.1-11.7,10.3-11.2c4.3-0.1,6.4,4.5,6,8.3
		c-0.7,11.4-2.8,22.8-4,34.2c4.8,0,9.6,0,14.3,0c1.4-12.1,3-24.1,4.4-36.2c0.4-5.8,0.6-12.5-3.4-17.2
		C10.9,400.6,2.7,400.7-2.8,404.1z"/>
	<path class="st0" d="M-61.4,415.5c3.3-2.5,8.5-2.6,11.4,0.6c2,2,2.4,4.9,2.8,7.6c-6.5,0.1-12.9,0.1-19.4,0
		C-65.7,420.5-64.2,417.4-61.4,415.5 M-61.7,422.5c4.5,0.2,8.9,0.2,13.4,0c-0.4-1.6-1.2-3.1-2.9-3.5
		C-55.1,417.6-59.1,419.7-61.7,422.5z"/>
</g>
<g id="_x23_ffffffff">
	<path class="st1" d="M-135.8,377c8.3,0.1,16.6-0.2,24.8,0.1c7.9,0.3,15.1,5.1,19.3,11.6c6.4,9.7,7.6,22.1,5.3,33.3
		c-2.5,11.9-8.7,23.4-18.6,30.8c-5.2,3.9-11.6,6.2-18.1,6.2c-7.6,0.1-15.2,0-22.8,0C-142.5,431.7-139.1,404.4-135.8,377
		 M-122.4,394.2c-2,15.9-4,31.8-5.8,47.7c5.1,0.1,10.7-0.1,15.1-3.1c7.7-4.9,10.9-14.3,11.4-23c0.4-6.5-0.8-13.9-6.1-18.3
		C-111.7,394.1-117.4,394.1-122.4,394.2z"/>
	<path class="st1" d="M36.1,377c8.2,0.1,16.5-0.1,24.7,0.1c7.4,0.2,14.3,4.4,18.6,10.4c6.1,8.4,8,19.3,7,29.4
		c-1.4,13.1-7.5,26.1-17.7,34.6c-5.4,4.6-12.4,7.5-19.6,7.5c-7.6,0.1-15.3,0-22.9,0C29.5,431.7,32.8,404.4,36.1,377 M49.6,394.2
		c-1.9,15.9-4,31.8-5.8,47.7c5.1,0.1,10.7-0.1,15.1-3.1c7.5-4.7,10.7-13.8,11.3-22.2c0.5-6.7-0.6-14.4-6-19
		C60.2,394.1,54.6,394.1,49.6,394.2z"/>
	<path class="st1" d="M100,377c8.3,0.1,16.6-0.2,24.9,0.1c7.1,0.3,13.8,4.2,18,9.9c6.2,8.1,8.3,18.8,7.4,28.9
		c-1.2,13-6.9,25.9-16.7,34.7c-5.6,5.1-13,8.4-20.7,8.5c-7.6,0.1-15.3,0-22.9,0C93.4,431.7,96.6,404.4,100,377 M113.5,394.2
		c-2,15.9-4,31.8-5.8,47.7c5.2,0.1,10.8-0.1,15.2-3.2c7.6-4.9,10.8-14.3,11.3-22.9c0.4-6.5-0.8-13.8-6-18.3
		C124.1,394.1,118.5,394.1,113.5,394.2z"/>
	<path class="st1" d="M-68.7,406c8.1-5.8,21-6.3,28.1,1.4c6.2,7.3,6.1,17.7,5.1,26.7c-10.9,0-21.8,0-32.6,0
		c-0.5,4.5-0.4,10.4,4.2,12.8c4.7,2.5,10.4,0.1,13-4.2c4.6,0,9.1,0,13.7,0c-2.1,5.9-5.7,11.4-11.1,14.6c-8,5-19.4,5.1-26.7-1.2
		c-6-5.2-7.8-13.6-7.3-21.2C-81.8,424.1-77.9,412.5-68.7,406 M-61.4,415.5c-2.8,1.9-4.3,5-5.3,8.2c6.5,0.1,12.9,0.1,19.4,0
		c-0.3-2.7-0.8-5.6-2.8-7.6C-52.9,412.8-58.2,413-61.4,415.5z"/>
	<path class="st1" d="M-2.8,404.1c5.4-3.4,13.7-3.5,18.2,1.5c3.9,4.8,3.8,11.4,3.4,17.2c-1.4,12.1-2.9,24.1-4.4,36.2
		c-4.8,0-9.6,0-14.3,0c1.2-11.4,3.3-22.7,4-34.2c0.4-3.7-1.8-8.3-6-8.3c-6.1-0.5-9.6,5.9-10.3,11.2c-1.6,10.4-2.2,20.9-4.1,31.2
		c-2.4,0-4.7,0-7.1,0c-2.4,0-4.7,0-7.1,0c1.1-9.1,2.3-18.3,3.4-27.4c1.1-9.3,2.3-18.7,3.4-28c4.8,0,9.5,0,14.3,0
		c-0.3,2.5-0.6,5.1-0.7,7.7C-7.3,409.2-5.8,405.8-2.8,404.1z"/>
</g>
</svg>
