<?xml version="1.0" encoding="utf-8"?>
<!-- Generator: Adobe Illustrator 19.0.0, SVG Export Plug-In . SVG Version: 6.00 Build 0)  -->
<svg version="1.1" id="Layer_1" xmlns="http://www.w3.org/2000/svg" xmlns:xlink="http://www.w3.org/1999/xlink" x="0px" y="0px"
	 viewBox="52.1 235 600 371.6" style="enable-background:new 52.1 235 600 371.6;" xml:space="preserve">
<style type="text/css">
	.st0{fill:#1A1918;}
	.st1{fill:#A61280;}
</style>
<g id="_x23_ffffffff">
</g>
<g id="_x23_1a1918ff">
	<path class="st0" d="M293.9,235.2c7-0.3,14.2-0.6,20.9,1.8c14.6,4.9,25.7,19.2,26,34.8c0.1,26,0,52,0.1,77.9c-8.7,0-17.4,0-26.1,0
		c0-25.6,0-51.2,0-76.8c0-7.8-7-14.8-14.8-14.8c-8-0.3-15.4,6.7-15.3,14.7c0,25.6,0,51.3,0,76.9c-8.4,0-16.7,0-25.1,0
		c0-26,0-51.9,0-77.9C260,253.4,275.5,236.9,293.9,235.2z"/>
	<path class="st0" d="M363.2,235.1c14.6-0.1,29.2,0,43.8,0c11.5,0,22.8,5.9,29.7,15.1c5.9,7.5,8.5,17.3,8,26.8
		c0.4,10.8-4.3,21.2-11.8,28.8c3.9,14.7,7.9,29.3,11.8,44c-8.4,0-16.8,0-25.1,0c-3-11.2-6-22.3-9-33.5c-7.4,0.4-14.9,0.1-22.3,0.2
		c-0.1,11.1,0,22.2,0,33.3c-8.4,0-16.7,0-25.1,0c0-19.8,0.1-39.7,0-59.5c14.6,0,29.2,0,43.8,0c7.3,0.1,13.8-6.2,14.5-13.4
		c1.1-8.3-6-16.6-14.4-16.7c-14.6,0-29.3,0-43.9,0C363.2,251.8,363.2,243.4,363.2,235.1z"/>
	<path class="st0" d="M286.1,365.2c7.4-2.6,15.3-1.8,22.9-1.9c10.6,0,21.3,0,31.9,0c0,7.7-0.1,15.4,0,23.1
		c-13.9,0.1-27.9-0.1-41.8,0.1c-7.5,0.2-14.3,6.8-14.4,14.4c0,13.4-0.1,26.7,0,40.1c0.3,7.8,7.5,14.3,15.3,14.1
		c13.6,0,27.3,0,40.9,0c0,7.7-0.1,15.4,0,23.1c-15,0-29.9,0.1-44.9,0c-19-0.7-35.7-17.2-36.4-36.3c-0.1-13.7,0-27.4,0-41.1
		C259.7,384.9,271,370,286.1,365.2z"/>
	<path class="st0" d="M382,368.9c6.6-4.1,14.4-5.8,22-5.6c8.4-0.3,17,1.9,23.9,6.8c10.1,6.8,16.6,18.6,16.8,30.8
		c0.1,25.8,0,51.5,0.1,77.3c-8.7,0-17.4,0-26.1,0c0-25.4,0-50.8,0-76.2c0.2-6.9-4.9-13.5-11.6-15.1c-8.7-2.5-18.5,4.9-18.6,13.9
		c0,25.8,0,51.6,0,77.4c-8.3,0-16.7-0.1-25,0.1c-0.1-25.5,0-50.9-0.1-76.4C363.1,388.6,370.6,375.6,382,368.9z"/>
	<path class="st0" d="M259.5,491.7c15.1,0.1,30.3-0.1,45.5,0.1c18.7,0.9,35.2,17.4,35.8,36.2c0.1,13.3,0,26.6,0.1,40
		c0.7,20.4-17.5,38.8-37.9,38.6c-14.5,0.1-29,0-43.5,0.1c0-7.8,0-15.5,0-23.3c13.8,0,27.6,0,41.4,0c7.7,0.2,14.8-6.6,14.9-14.3
		c0-13.1,0-26.1,0-39.2c0.3-7.9-6.9-14.9-14.7-15c-13.9-0.1-27.7,0-41.6,0C259.5,507.1,259.5,499.4,259.5,491.7z"/>
	<path class="st0" d="M363.4,514.8c0-7.7,0-15.4,0-23.1c27.1,0,54.2,0,81.4,0c0,7.7,0,15.4,0,23.1
		C417.6,514.8,390.5,514.8,363.4,514.8z"/>
	<path class="st0" d="M363.4,560.6c0-7.7,0-15.4,0-23.1c27.1,0,54.3-0.1,81.4,0c-0.1,7.7,0,15.4,0,23.1
		C417.6,560.7,390.5,560.7,363.4,560.6z"/>
	<path class="st0" d="M363.4,583.3c27.1,0,54.3,0,81.4,0c0,7.8,0,15.5,0,23.3c-27.1,0-54.3,0-81.4,0
		C363.4,598.8,363.4,591.1,363.4,583.3z"/>
</g>
<g id="_x23_a61280ff">
	<path class="st1" d="M70.2,369.1c9.3-6,21-6.9,31.7-5.2c17.1,2.9,30.9,18.6,31.5,36c0.1,26.1,0,52.2,0,78.3c-8.7,0-17.4,0-26.2,0
		c0.1-25.8,0-51.5,0-77.3c-0.2-8.6-8.8-15.8-17.3-14.3c-6.9,1-12.7,7.2-12.8,14.2c-0.1,25.8,0,51.6,0,77.3c-8.4,0-16.7,0-25.1,0
		c0.1-25.8,0-51.5,0.1-77.3C52.1,388.1,59.4,375.8,70.2,369.1z"/>
	<path class="st1" d="M155.6,363.3c14.5,0,29,0,43.5,0c10.3,0.1,20.5,4.5,27.5,12c7.3,7.5,11.1,18.1,10.7,28.6
		c0.6,11.1-3.8,22.3-11.8,30.1c4,14.7,7.8,29.5,11.9,44.2c-8.4,0-16.8,0.1-25.2,0c-2.9-11.2-6-22.4-8.9-33.6c-7.5,0.2-15,0-22.5,0.1
		c-0.1,11.2,0.1,22.4-0.1,33.6c-8.3-0.1-16.7,0-25-0.1c0-19.9,0-39.8,0-59.6c14.8,0,29.6,0,44.3,0c8.6-0.3,15.7-9.3,13.9-17.7
		c-1.2-6.9-7.7-12.4-14.7-12.4c-14.5-0.1-29,0-43.5,0C155.6,380,155.6,371.7,155.6,363.3z"/>
	<path class="st1" d="M467,363.3c14.4,0,28.7,0,43.1,0c10.1,0,20,4.2,27.1,11.4c7.2,7.1,11.3,17.1,11.3,27.2c0,12.7,0,25.4,0,38
		c-0.1,9.1-3.5,18.1-9.4,24.9c-7.1,8.4-18,13.4-29,13.4c-14.4,0-28.7,0-43.1,0c0-7.7,0-15.4,0-23c14.1-0.2,28.1,0.1,42.2-0.2
		c7.7-0.3,14.4-7.3,14.2-15.1c0-13,0.1-26,0-39c-0.2-7.9-7.4-14.6-15.3-14.5c-13.7,0-27.3,0-41,0C466.8,378.7,466.8,371,467,363.3z"
		/>
	<path class="st1" d="M570.7,363.3c27.1,0,54.2,0,81.3,0c0,7.7-0.1,15.4,0.1,23c-27.1,0.2-54.2,0-81.3,0
		C570.8,378.7,570.7,371,570.7,363.3z"/>
	<path class="st1" d="M570.7,409.2c27.1,0,54.2,0,81.2,0c0,7.7,0,15.5,0,23.2c-27.1,0-54.2,0-81.3,0
		C570.7,424.6,570.7,416.9,570.7,409.2z"/>
	<path class="st1" d="M570.7,455.1c27.1,0,54.2,0,81.3,0c0,7.7,0,15.4,0,23.1c-27.1,0-54.2,0-81.3,0
		C570.7,470.5,570.7,462.8,570.7,455.1z"/>
</g>
</svg>
