<?xml version="1.0" encoding="utf-8"?>
<!-- Generator: Adobe Illustrator 21.0.0, SVG Export Plug-In . SVG Version: 6.00 Build 0)  -->
<svg version="1.1" id="Layer_1" xmlns="http://www.w3.org/2000/svg" xmlns:xlink="http://www.w3.org/1999/xlink" x="0px" y="0px"
	 viewBox="0 0 490.2 417.4" style="enable-background:new 0 0 490.2 417.4;" xml:space="preserve">
<style type="text/css">
	.st0{fill:#FFFFFF;}
	.st1{fill:#007F86;}
</style>
<path d="M383.5,0c8.7,6,17.1,12.5,25.9,18.3c8.3-0.6,16.6-1.3,24.8-1.9c3.9,7.7,7.8,15.4,11.7,23.1c7.9,3,15.8,6.2,23.8,9.2
	c-8.8,6.9-17.6,13.8-26.4,20.8c-20.3-10.5-40.7-21-61-31.5C382.8,25.4,383.1,12.7,383.5,0z"/>
<path d="M154.7,76.7c27.4-1.7,55-0.3,82.2,3.7c-18.1,1.9-36.2,4.6-53.4,10.4c-22.7,7.4-44.6,17.8-63.7,32.2
	c-7.9,6-15.3,12.7-21.6,20.4c-3.8,5.1-7.2,10.4-10.9,15.5c17.3,0.2,34.6,0.4,51.9,0.5c2.2,22.7,5.4,45.4,10.6,67.6
	c2.8,11.3,6,22.6,10.9,33.1c5.4,10.6,10.6,21.4,17.7,31.1c33.2,46.8,94.7,71.8,151.1,60.6c27.9-5.4,55.2-14.9,79.5-29.7
	c-19,23.9-41.1,45.4-65.9,63.2c-22.6,16-48.4,29.1-76.4,31.6c-31.9,2-64.7-3.2-93.2-18c-26.9-13.9-49.1-35.5-67.4-59.4
	C81,306.4,61.8,269.2,43.7,232C21.9,188.1,10.6,139.8,4.6,91.4C54.5,85.2,104.5,79.5,154.7,76.7z"/>
<path class="st0" d="M394.3,100.8c10.6,4.1,21.2,8.2,31.8,12.4c-8.6-0.1-17.3-0.1-25.9-0.4C398.4,108.7,396.3,104.8,394.3,100.8z"/>
<g id="_x23_b72025ff">
	<g>
		<path class="st1" d="M184.3,7.4c48.1,4.8,95.6,14.6,142,28.1c35.8,10.7,71.3,23.7,102.8,44.1c9.3,6.1,18.4,12.8,26.7,20.3
			c1,2.6,1.2,5.6,3,7.9c8.2,11.1,21.9,17.2,28.4,29.8c4.8,9.9,2.9,21.5-0.3,31.6c-3.6,11-9,21.4-14.9,31.3
			c-7.2-11.6-18.4-20.3-30.7-26.1c-15.4-7.3-32.7-9.8-49.6-9.6c-22.3,0.2-45.3,3.5-65.2,14c-13.6,7.1-25.3,18.1-32.1,31.9
			c-9.6,19.3-9.7,42.6-1.7,62.4c4.2,10.8,11.4,20.5,21,27c16.3,11.3,36.5,15.5,56.1,16.4c13.7,0.4,27.7-0.4,40.6-5.4
			c-23,15.1-48.6,26.3-75.7,31.6c-24.1,4.7-49.4,4.2-73-2.9c-29.8-8.8-57-27.2-75.3-52.5c-7.2-9.6-12.5-20.5-17.9-31.2
			c-6.2-13.5-9.6-28-12.7-42.5c-4.1-20.8-6.8-41.8-8.5-62.9c-14.4-0.2-28.9-0.3-43.3-0.4c7.3-9.3,16.5-17,26-23.8
			c19.9-13.8,42.4-23.5,65.6-30.1c16.5-4.3,33.6-6.3,50.5-8.1c19.1-1.8,38.3-3,57.5-3.7c-38.6-10-78.2-16.2-118.1-17.4
			c-30.7-0.4-61.3,2.2-91.9,5c-30.1,3-60.2,6.6-90.2,10.7c-2.6-24.6-3.8-49.3-3.7-74c64.9,5.9,129.7,11.6,194.6,17.5
			C191.1,20.1,187.7,13.8,184.3,7.4 M394.3,100.8c1.9,4,4,7.9,5.9,12c8.6,0.3,17.2,0.3,25.9,0.4C415.5,109,404.9,104.9,394.3,100.8z
			"/>
	</g>
</g>
</svg>
