<?xml version="1.0" encoding="utf-8"?>
<!-- Generator: Adobe Illustrator 19.0.0, SVG Export Plug-In . SVG Version: 6.00 Build 0)  -->
<svg version="1.1" id="Layer_1" xmlns="http://www.w3.org/2000/svg" xmlns:xlink="http://www.w3.org/1999/xlink" x="0px" y="0px"
	 viewBox="-113.2 315.9 212.4 215.5" style="enable-background:new -113.2 315.9 212.4 215.5;" xml:space="preserve">
<style type="text/css">
	.st0{fill:url(#SVGID_1_);}
	.st1{fill:#121212;}
</style>
<g id="_x23_4e97cdff">
	
		<radialGradient id="SVGID_1_" cx="-7.005" cy="423.6259" r="106.9724" gradientTransform="matrix(1 0 0 3 0 -847.2517)" gradientUnits="userSpaceOnUse">
		<stop  offset="0" style="stop-color:#56A8D7"/>
		<stop  offset="1" style="stop-color:#4179BD"/>
	</radialGradient>
	<path class="st0" d="M-113.2,315.9c70.8,0,141.6-0.1,212.4,0C64.8,387.8,30.5,459.6-4,531.4c-5.7-11-11.3-22.1-16.9-33.2
		c18.8-38.6,37.5-77.3,56.3-115.9c6.5-13.7,13.5-27.1,19.6-40.9c-52.1,0.1-104.2,0-156.2,0C-105.2,332.9-109.2,324.4-113.2,315.9z"
		/>
</g>
<g id="_x23_121212ff">
	<path class="st1" d="M-89.1,368.9c35.2,0,70.3,0,105.5,0C-0.3,403.6-17.2,438.3-34,473C-37.6,466.6-71,403.6-89.1,368.9z"/>
</g>
</svg>
