<?xml version="1.0" encoding="utf-8"?>
<!-- Generator: Adobe Illustrator 19.0.0, SVG Export Plug-In . SVG Version: 6.00 Build 0)  -->
<svg version="1.1" id="Layer_1" xmlns="http://www.w3.org/2000/svg" xmlns:xlink="http://www.w3.org/1999/xlink" x="0px" y="0px"
	 viewBox="-67.7 246.9 470 349" style="enable-background:new -67.7 246.9 470 349;" xml:space="preserve">
<style type="text/css">
	.st0{fill:#C60C30;}
	.st1{fill:#FFFFFF;}
</style>
<g id="_x23_fa4e05ff">
	<path class="st0" d="M-67.7,246.9H78.9c-0.1,51.8,0.1,103.5-0.1,155.3c-48.9-0.1-97.7,0-146.6,0V246.9z"/>
	<path class="st0" d="M123,246.9h279.2v155.2c-93.1,0-186.1,0-279.2,0C123,350.4,123.1,298.6,123,246.9z"/>
	<path class="st0" d="M-67.7,445.2c48.9,0,97.8,0,146.7,0c0,50.2,0,100.4,0,150.7H-67.7V445.2z"/>
	<path class="st0" d="M123.1,445.2c93.1,0,186.1,0,279.2,0v150.7H123.1C123,545.7,123,495.4,123.1,445.2z"/>
</g>
<g id="_x23_ffffffff">
	<path class="st1" d="M78.9,246.9H123c0,51.7,0,103.5,0,155.2c93.1,0,186.1,0,279.2,0v43.1c-93.1,0-186.1,0-279.2,0
		c0,50.2,0,100.4,0,150.7H78.9c0-50.2,0-100.5,0-150.7c-48.9,0-97.8,0-146.7,0v-43.1c48.9,0,97.7-0.1,146.6,0
		C79.1,350.4,78.9,298.6,78.9,246.9z"/>
</g>
</svg>
