<?xml version="1.0" encoding="utf-8"?>
<!-- Generator: Adobe Illustrator 19.0.0, SVG Export Plug-In . SVG Version: 6.00 Build 0)  -->
<svg version="1.1" id="Layer_1" xmlns="http://www.w3.org/2000/svg" xmlns:xlink="http://www.w3.org/1999/xlink" x="0px" y="0px"
	 viewBox="-63 278.9 469 284" style="enable-background:new -63 278.9 469 284;" xml:space="preserve">
<style type="text/css">
	.st0{fill:#1D5F9A;}
	.st1{fill:#FBEA13;}
</style>
<g id="_x23_1d5f9aff">
	<path class="st0" d="M-63,278.9H80.8c-0.1,37.8,0.1,75.7-0.1,113.5c-47.9,0-95.8,0-143.7,0V278.9z"/>
	<path class="st0" d="M140.5,278.9H406v113.5c-88.5-0.1-177,0-265.5,0C140.5,354.5,140.5,316.7,140.5,278.9z"/>
	<path class="st0" d="M-63,451.1c47.9,0,95.8,0,143.7,0c0,37.2,0,74.5,0,111.7H-63V451.1z"/>
	<path class="st0" d="M140.6,451.1c88.5,0,177,0,265.5,0v111.7H140.5C140.6,525.6,140.4,488.4,140.6,451.1z"/>
</g>
<g id="_x23_fbea13ff">
	<path class="st1" d="M80.8,278.9h59.8c0,37.8,0,75.6,0,113.5c88.5,0.1,177,0,265.5,0v58.8c-88.5,0-177,0-265.5,0
		c-0.1,37.3,0,74.5-0.1,111.7H80.7c0-37.2,0-74.5,0-111.7c-47.9-0.1-95.8,0-143.7,0v-58.8c47.9,0,95.8,0,143.7,0
		C80.8,354.6,80.7,316.7,80.8,278.9z"/>
</g>
</svg>
