<?xml version="1.0" encoding="utf-8"?>
<!-- Generator: Adobe Illustrator 19.0.0, SVG Export Plug-In . SVG Version: 6.00 Build 0)  -->
<svg version="1.1" id="Layer_1" xmlns="http://www.w3.org/2000/svg" xmlns:xlink="http://www.w3.org/1999/xlink" x="0px" y="0px"
	 viewBox="-62 257.9 470 326" style="enable-background:new -62 257.9 470 326;" xml:space="preserve">
<style type="text/css">
	.st0{fill:#FA300F;}
	.st1{fill:#FFFFFF;}
	.st2{fill:#1D4D93;}
</style>
<g id="_x23_fa300fff">
	<path class="st0" d="M-62,257.9H61c0,40.3,0,80.7,0,121c-41,0-82,0-123,0V257.9z"/>
	<path class="st0" d="M144,257.9h264v121c-88,0-176,0-264,0C144,338.6,144,298.2,144,257.9z"/>
	<path class="st0" d="M-62,461.9c41,0,82,0,123,0c0,40.7,0,81.3,0,122H-62V461.9z"/>
	<path class="st0" d="M144,461.9c88,0,176,0,264,0v122H144C144,543.2,144,502.6,144,461.9z"/>
</g>
<g id="_x23_ffffffff">
	<path class="st1" d="M61,257.9h22c0,47.7,0,95.3,0,143c-48.3,0-96.7,0-145,0v-22c41,0,82,0,123,0C61,338.6,61,298.2,61,257.9z"/>
	<path class="st1" d="M121,257.9h23c0,40.3,0,80.7,0,121c88,0,176,0,264,0v22c-95.7,0-191.3,0-287,0C121,353.2,121,305.6,121,257.9z
		"/>
	<path class="st1" d="M-62,438.9c48.3,0,96.7,0,145,0c0,48.3,0,96.7,0,145H61c0-40.7,0-81.3,0-122c-41,0-82,0-123,0V438.9z"/>
	<path class="st1" d="M121,438.9c95.7,0,191.3,0.1,287-0.1v23.1c-88,0-176,0-264,0c0,40.7,0,81.3,0,122h-23
		C121,535.6,121,487.2,121,438.9z"/>
</g>
<g id="_x23_1d4d93ff">
	<path class="st2" d="M83,257.9h38c0,47.7,0,95.3,0,143c95.7,0,191.3,0,287,0v37.9c-95.7,0.1-191.3,0-287,0.1c0,48.3,0,96.7,0,145
		H83c0-48.3,0-96.7,0-145c-48.3,0-96.7,0-145,0v-38c48.3,0,96.7,0,145,0C83,353.2,83,305.6,83,257.9z"/>
</g>
</svg>
