<?xml version="1.0" encoding="utf-8"?>
<!-- Generator: Adobe Illustrator 19.0.0, SVG Export Plug-In . SVG Version: 6.00 Build 0)  -->
<svg version="1.1" id="Layer_1" xmlns="http://www.w3.org/2000/svg" xmlns:xlink="http://www.w3.org/1999/xlink" x="0px" y="0px"
	 viewBox="-62 281.9 470 278" style="enable-background:new -62 281.9 470 278;" xml:space="preserve">
<style type="text/css">
	.st0{fill:#FFFFFF;}
	.st1{fill:#1D4D93;}
</style>
<g id="_x23_ffffffff">
	<path class="st0" d="M-62,281.9H63c0,34.2,0,68.4,0,102.5c-41.7,0-83.3,0-125,0V281.9z"/>
	<path class="st0" d="M141.4,281.9H408v102.5c-88.8,0-177.7,0-266.5,0C141.4,350.2,141.5,316.1,141.4,281.9z"/>
	<path class="st0" d="M-62,461.9c41.7,0,83.3,0,125,0c0,32.7,0,65.3,0,98H-62V461.9z"/>
	<path class="st0" d="M141.5,461.9c88.8,0,177.7,0,266.5,0v98H141.5C141.5,527.2,141.5,494.6,141.5,461.9z"/>
</g>
<g id="_x23_1d4d93ff">
	<path class="st1" d="M63,281.9h78.4c0,34.2,0,68.3,0,102.5c88.8,0,177.7,0,266.5,0v77.5c-88.9,0-177.7,0-266.5,0
		c0,32.7,0,65.3,0,98H63c0-32.7,0-65.3,0-98c-41.7,0-83.3,0-125,0v-77.5c41.7,0,83.3,0,125,0C63,350.3,63,316.1,63,281.9z"/>
</g>
</svg>
