<?xml version="1.0" encoding="utf-8"?>
<!-- Generator: Adobe Illustrator 19.0.0, SVG Export Plug-In . SVG Version: 6.00 Build 0)  -->
<svg version="1.1" id="Layer_1" xmlns="http://www.w3.org/2000/svg" xmlns:xlink="http://www.w3.org/1999/xlink" x="0px" y="0px"
	 viewBox="104 47.9 782.1 727.1" style="enable-background:new 104 47.9 782.1 727.1;" xml:space="preserve">
<style type="text/css">
	.st0{fill:url(#SVGID_1_);}
	.st1{fill:url(#SVGID_2_);}
	.st2{fill:url(#SVGID_3_);}
	.st3{fill:url(#SVGID_4_);}
	.st4{fill:url(#SVGID_5_);}
	.st5{fill:url(#SVGID_6_);}
	.st6{fill:#FFD796;}
</style>
<g id="_x23_1b2129ff">
</g>
<linearGradient id="SVGID_1_" gradientUnits="userSpaceOnUse" x1="227.2575" y1="608.2975" x2="698.4975" y2="137.0575">
	<stop  offset="0" style="stop-color:#D78218"/>
	<stop  offset="1" style="stop-color:#FCB414"/>
</linearGradient>
<path class="st0" d="M511.3,47.9c32.7,0,65.3,0,98,0c-4.6,8.1-9.3,16.2-14.1,24.3c-22.9-3.8-46.1-5.9-69.3-5.4
	c-8.8-0.3-17.5,1-26.2,1.2C503.6,61.3,507.5,54.7,511.3,47.9z M441.3,169.1c33.9-12.1,70.3-17.4,106.3-15.2
	c-58,100.1-116,200.1-174,300.1c51.1,0,102.2-0.1,153.2,0c16.1,28,32.4,55.9,48.5,83.9c-139.5,0-279-0.1-418.5,0
	c-17.6-27.9-35.2-55.9-52.8-83.8c57.4,0.1,114.8,0,172.2,0C331.2,359,386.3,264.1,441.3,169.1z"/>
<linearGradient id="SVGID_2_" gradientUnits="userSpaceOnUse" x1="468.1905" y1="510.1305" x2="870.2236" y2="278.0166">
	<stop  offset="0" style="stop-color:#E1871A"/>
	<stop  offset="1" style="stop-color:#FDB713"/>
</linearGradient>
<path class="st1" d="M639.9,47.9c32.5,0.1,65,0,97.5,0C705.9,102.3,674.5,156.6,643,211c51.4,88.6,102.9,177.2,154.2,265.8
	c-7.2,34.6-21.3,67.8-41.3,96.9C702,480.8,648.2,387.9,594.2,295c-25.7,43.9-51.3,87.7-76.6,131.8c-32.5,0.2-65,0.1-97.6,0.1
	C493.4,300.6,566.5,174.1,639.9,47.9z M854,577.9c0.3-2.1,1.9-0.2,2.3,0.7c4.5,7.8,9,15.7,13.6,23.5c-18.6,23.8-37,47.7-55.7,71.5
	c-3.6-6.2-7.3-12.4-10.9-18.7C823.4,631.5,840.5,605.6,854,577.9z"/>
<linearGradient id="SVGID_3_" gradientUnits="userSpaceOnUse" x1="655.2474" y1="164.2327" x2="902.6301" y2="592.712">
	<stop  offset="0" style="stop-color:#9D9FA1"/>
	<stop  offset="1" style="stop-color:#BCBEC0"/>
</linearGradient>
<path class="st2" d="M722,125.7c58.4,36.9,105.6,91.4,133.7,154.5c33.5,74.5,39.5,160.9,16.8,239.3c-13.9,48.4-38.4,93.7-71.3,131.8
	c-14.4-24.6-28.6-49.3-43.1-73.8c19.6-28.6,34-60.7,41.7-94.5c11.1-48.8,8.5-100.7-7.8-148.1c-19.5-57.4-58.9-107.6-109.7-140.7
	C695.6,171.3,708.8,148.5,722,125.7z"/>
<linearGradient id="SVGID_4_" gradientUnits="userSpaceOnUse" x1="178.4491" y1="251.4138" x2="592.89" y2="251.4138">
	<stop  offset="0" style="stop-color:#BCBEC0"/>
	<stop  offset="1" style="stop-color:#898B8E"/>
</linearGradient>
<path class="st3" d="M414.4,90.5c56.9-20.1,119-25,178.5-14.9c-14.3,24.9-28.8,49.5-43.1,74.4c-41.4-2.6-83.3,4.2-121.7,20
	c-38.2,15.6-72.6,40.1-100.3,70.7c-23.4-13.5-47.6-25.4-71.2-38.4l-0.3-0.2C297.6,151.4,352.7,112.1,414.4,90.5z M178.6,432.2
	c-2.7-82.7,25.6-165.9,78-229.9c23.6,13.1,47.8,25,71.2,38.4c-24,26.6-42.6,58-54.5,91.8c-11.3,31.9-16.3,66-15.2,99.8
	C231.6,432.3,205.1,432.4,178.6,432.2z"/>
<linearGradient id="SVGID_5_" gradientUnits="userSpaceOnUse" x1="208.67" y1="669.8867" x2="695.08" y2="669.8867">
	<stop  offset="0" style="stop-color:#BCBEC0"/>
	<stop  offset="1" style="stop-color:#808285"/>
</linearGradient>
<path class="st4" d="M639.3,674.2c2.5-1,4.9-2.5,7.6-2.9c3.8-0.3,7.5,0,11.3,0c12.2,21.4,24.5,42.6,36.9,63.9
	c-74.2,38.8-162.4,49.6-243.9,30.4c-10.4-2.4-20.7-5.4-30.8-8.7l0-0.3c0.4-2.6,0.9-5.2,1-7.9c-0.1-25.5-0.1-50.9,0-76.4
	C457,688.1,496,696.2,535,695.8C570.7,695.5,606.4,688.2,639.3,674.2z M208.7,564.9c29.8-0.1,59.7,0,89.5,0
	c29,47.2,72.5,85.4,123.2,107.6c-0.1,25.5-0.1,50.9,0,76.4c0,2.7-0.5,5.3-1,7.9c-64-21-121.5-61.1-163.8-113.5
	C237.3,619.3,220.9,593,208.7,564.9z"/>
<linearGradient id="SVGID_6_" gradientUnits="userSpaceOnUse" x1="350.6925" y1="772.7725" x2="684.7375" y2="438.7275">
	<stop  offset="0" style="stop-color:#CD7C16"/>
	<stop  offset="1" style="stop-color:#F8991C"/>
</linearGradient>
<path class="st5" d="M173.7,564.7c10.1-0.1,20.3,0,30.4-0.1c7.6,17.2,16.4,33.8,26.6,49.6c7.4,11.9,16.2,23,24.6,34.2
	c-9.7,0-19.3,0-28.9,0C208.9,620.5,191.1,592.7,173.7,564.7z M594.2,348.2c-16.3,27.9-32.5,55.8-48.8,83.8
	c25.7,44.2,51.2,88.5,77.2,132.5c-106.6,0.3-213.3,0-319.9,0.1c20.6,33,48.2,61.5,80.7,82.9c1.1,0.7,2.3,1,3.5,0.9
	c94.8,0,189.6,0,284.3,0c23,39.9,46.1,79.7,69.1,119.6c18.8-23.7,37.1-47.6,55.8-71.4C728.9,580.5,661.6,464.3,594.2,348.2z"/>
<g id="_x23_ffd796ff">
	<path class="st6" d="M591,414c2.9-1.8,5.8-3.5,8.7-5.2c6.9,12.2,14.4,24.2,20.9,36.6c-2.9,1.6-5.7,3.2-8.6,4.8
		c-2.7-4.6-5.3-9.2-8-13.7c-6.8,4-13.7,7.8-20.3,12c-2-2.8-3.8-5.8-5.2-8.9c6.8-3.8,13.5-7.9,20.4-11.6
		C596.5,423.1,593.7,418.6,591,414z"/>
	<path class="st6" d="M613.3,452c2.9-1.7,5.8-3.3,8.7-4.9c7.3,12.7,14.8,25.3,21.9,38.2c-2.9,1.6-5.9,3.3-8.9,4.8
		C628,477.2,620.4,464.7,613.3,452z"/>
	<path class="st6" d="M602.9,458.2c2.8-1.9,5.8-3.6,8.8-5.1c7,12.7,14.7,25,21.5,37.8c-2.4,2.3-5.6,3.6-8.5,5.1
		C617.5,483.3,610.4,470.6,602.9,458.2z"/>
	<path class="st6" d="M592.7,463.8c2.8-1.6,5.7-3.2,8.5-4.8c7.4,12.7,14.8,25.3,21.9,38.2c-2.9,1.7-5.9,3.3-8.9,4.7
		C607.4,489,599.4,476.7,592.7,463.8z"/>
	<path class="st6" d="M615.2,503.8c9.8-5.7,19.6-11.3,29.3-17c7.4,12.6,14.6,25.3,22,37.9c-2.9,1.8-5.8,3.5-8.7,5.2
		c-5.7-9.7-11.3-19.5-16.9-29.2c-4.1,2.2-8.1,4.5-12,6.8c5.5,9.8,11.3,19.5,16.8,29.4c-2.9,1.7-5.7,3.3-8.6,5
		C629.8,529.2,622.5,516.5,615.2,503.8z"/>
	<path class="st6" d="M659,531.3c2.9-1.8,5.8-3.4,8.9-5c6.8,12.1,13.7,24.1,20.8,36c-2.9,1.5-5.6,4.4-8.8,4.7
		c-3-4.2-5.1-8.9-7.8-13.2c-6.9,3.9-13.8,8-20.7,11.9c-1.7-2.9-3.4-5.9-4.8-8.9c6.9-3.7,13.6-7.8,20.4-11.6
		C664.3,540.4,661.6,535.8,659,531.3z"/>
	<path class="st6" d="M660.5,581.4c9.7-5.9,19.5-11.5,29.5-17c7.2,12.7,14.6,25.2,21.8,37.9c-9.8,5.7-19.5,11.4-29.4,16.9
		C675.1,606.5,667.7,594,660.5,581.4 M674.2,585.2c4.2,6.7,7.9,13.6,11.9,20.3c4-2.2,8.1-4.5,12-7c-4-6.8-7.9-13.6-11.9-20.5
		C682.1,580.3,678,582.6,674.2,585.2z"/>
	<path class="st6" d="M683.2,621c13.2-7.5,26.2-15.2,39.4-22.7c-3.5,15.4-8.2,30.5-12,45.8c5.3-2.7,10.3-5.8,15.4-8.8
		c1.1-0.4,2.4-2,3.6-1.1c1.8,2.4,3.2,5.1,4.8,7.7c-13,7.9-26.2,15.4-39.4,22.9c3.6-15.3,8.1-30.4,12-45.7
		c-6.5,3.2-12.5,7.4-19.1,10.6C686.3,626.7,684.7,623.9,683.2,621z"/>
	<path class="st6" d="M706.1,660.7c9.5-6.2,19.6-11.3,29.2-17.3c1.8,2.8,3.5,5.8,5,8.8c-9.8,5.5-19.5,11.2-29.2,16.8
		C709.5,666.2,707.8,663.5,706.1,660.7z"/>
	<path class="st6" d="M712.1,670.9c9.8-5.6,19.5-11.5,29.5-16.9c6.9,12.7,14.8,24.9,21.4,37.8c-2.6,2-5.5,3.4-8.4,4.9
		c-5.6-9.7-11.1-19.5-16.8-29.1c-4.1,2.2-8.2,4.5-12.1,7c5.8,9.7,11.4,19.4,16.9,29.3c-2.9,1.6-5.7,3.2-8.6,4.8
		C726.6,696.1,719.2,683.6,712.1,670.9z"/>
</g>
</svg>
