<?xml version="1.0" encoding="utf-8"?>
<!-- Generator: Adobe Illustrator 19.0.0, SVG Export Plug-In . SVG Version: 6.00 Build 0)  -->
<svg version="1.1" id="Layer_1" xmlns="http://www.w3.org/2000/svg" xmlns:xlink="http://www.w3.org/1999/xlink" x="0px" y="0px"
	 viewBox="-201.136 511.33 393.126 332.072" style="enable-background:new -201.136 511.33 393.126 332.072;" xml:space="preserve">
<style type="text/css">
	.st0{fill:#282828;}
	.st1{fill:#FFF200;}
	.st2{fill:url(#SVGID_1_);}
	.st3{fill:url(#SVGID_2_);}
	.st4{fill:url(#SVGID_3_);}
	.st5{fill:url(#SVGID_4_);}
	.st6{fill:none;}
</style>
<polygon points="-150,827.952 -150,839.38 151.35,839.38 152.99,827.952 "/>
<path class="st0" d="M112.06,749.73h23.8v38.3h-23.8V749.73z"/>
<path d="M47.92,712l-5.4-23.66h-10.5l1.4,10.18L47.92,712z M-150,782.09v20.42l289,4.3l-1-24.72H-150z M-6.08,651.8l9.7,25.2
	l16,7.15l13.1-8.4v-14.03L5.8,649.62L-6.08,651.8z"/>
<path class="st1" d="M-107.26,517.62c-1.57,2.6-3.7,6.3-6.04,10.85c0,0-5.13,10.04-8.88,20.55c-17.3,48.38-6.66,88.45-6.66,88.45
	c4.38,16.5,11.23,28.63,15.53,35.43c9.8,15.5,23.2,28.63,38.6,38.54c18.2,11.52,39.73,18.73,61.43,17.4
	c-6.53-1.62-13.02-3.53-19.3-6c-0.04-5.42-0.7-10.8-0.8-16.2c-0.27-10.08,1.8-20.08,4.54-29.74c2-6.05,3.48-12.6,7.97-17.4
	c-0.28,0.02-0.83,0.02-1.1,0.03c-2.42-7.3-9.44-11.3-14.1-17c3.18,0.86,6.36,1.67,9.47,2.73c4.82,1.68,8.86,4.9,13.08,7.66
	c-4.08-8.8-8.04-17.64-11.7-26.6c7.52,3.76,15.03,7.57,22.54,11.36c-3.42-10.08-6.7-20.2-10-30.33c7.6,7.95,14.74,16.3,22.14,24.44
	c-0.9-8.8-1.9-18.13,1.7-26.48c1.1,10.97,3.64,21.9,8.16,32c3.67,8.22,11.1,13.66,17.7,19.35c1.72,1.68,3.97,3.4,4.17,5.97
	c0,2.78-2.5,4.53-4.36,6.2c-0.04,0.68-0.1,2.04-0.15,2.7c0.38,0.62,1.17,1.84,1.56,2.45c3.27,4.98,3.95,12.47-0.42,17
	c-8,3.23-16.74,0-24.3-2.96c-10.85-5.27-20.97-11.9-31.54-17.7c2.55,4.13,5.54,7.98,8.67,11.68c3.85,4.63,9.07,7.75,13.9,11.23
	c5.35,21,19,39.35,36.38,52.03c-2.7-6-6.1-11.7-10.42-16.68c29.4-7.14,55.24-26.43,72.03-51.4c7.15-11.3,12.93-23.54,16.55-36.42
	c3.48-14.07,4.8-28.66,4.1-43.13c-1.68-27.03-9.65-54.08-25.02-76.54c12.64,6.42,24.42,14.95,33.35,26.06
	c9.3,11.5,15.94,25.5,17.45,40.32c4-5.56,6.98-11.8,9.2-18.25c3.25,6.22,6.4,12.95,9.3,20.2c12.3,30.54,15.8,59.2,16.13,81.68
	c-5.02,4.8-10.5,10.84-15.74,18.3c-2.38,3.4-4.44,6.73-6.23,9.9l-11.73,10.26c-14.54,12.76-29,25.52-43.38,38.27
	c-26.66,5.2-53.76,8.22-80.93,8.47c-31.56,0.63-63.16-0.3-94.6-3.1c-19.68-1.95-39.14-5.66-58.57-9.3c-7.06-2.1-21.65-7.5-35-21.04
	c-13-13.17-18.22-27.38-20.3-34.43c-10.13-13.13-11.6-23.12-10.9-30c0.56-5.42,2.3-7.14,2.65-14.13c0.58-10.98-3.15-16.38-4.4-24.13
	c-1.08-6.63,1.4-6.53,7.94-30.88c3.47-12.92,3.13-13.64,5.34-20.3c3.63-10.9,7.95-19.26,11-24.57c3.26,8.75,6.4,18.12,9.25,28.1
	c1.24,4.3,2.37,8.53,3.4,12.68c-0.28-5.06-0.58-21.67,10.74-37.7c9.7-13.72,22.5-19.33,27.55-21.23 M-1.44,655.5
	c1.06,2.14,2.3,4.2,3.67,6.15l0.24,0.07c3.15,4.5,7.38,8.08,11.52,11.66c-3.28,0.2-6.72-0.25-9.82,1.1l1.62,0.1
	c5.18,2.7,11.65,3.48,16.9,0.57c1.37-0.5,2.55-1.36,3.75-2.14l1.45-0.46c-4.75-2.75-10.13-4.14-14.87-6.9
	c-5.28-2.7-9.73-6.65-14.46-10.16L-1.44,655.5z"/>
<linearGradient id="SVGID_1_" gradientUnits="userSpaceOnUse" x1="96.18" y1="133.2433" x2="179.81" y2="133.2433" gradientTransform="matrix(1 0 0 -1 0 841.41)">
	<stop  offset="0" style="stop-color:#FFF200"/>
	<stop  offset="1" style="stop-color:#FF9B33"/>
</linearGradient>
<path class="st2" d="M144.46,712.62c-14.37,15.07-25.24,22.87-29.12,25.57c-7.48,5.2-14.18,8.97-19.16,11.54
	c2.68,0.14,23.88-4.14,30.66-5.2c4.13-0.64,8.28-1.27,12.3-2.48c4.03-4,8.56-7.53,12.07-12.05c14.9-18.13,23.9-40.58,28.6-63.4
	c-12.8,20.74-25.67,35.87-35.34,46L144.46,712.62z"/>
<path class="st0" d="M118.37,525.98c0.07,0.05,0.22,0.16,0.3,0.2C118.59,526.14,118.44,526.03,118.37,525.98z M134.63,540.16
	l0.03,0.02l0.03,0.04l-0.07-0.07L134.63,540.16z M-25.73,580.86l0.24,0.2l0.22,0.17c-0.1-0.1-0.34-0.27-0.45-0.36L-25.73,580.86z
	 M-1.83,606.9l1.92-0.23c-0.48,1.46-1.12,1.54-1.93,0.24L-1.83,606.9z M-16.55,622.42c0-0.1,0.04-0.3,0.06-0.42
	c0,0.1-0.04,0.32-0.05,0.42H-16.55z M-194,648.06l0.8,0.05c0.08,0.38,0.27,1.13,0.36,1.5l-1.4-0.7l0.23-0.86L-194,648.06z
	 M-1.43,655.5c4.73,3.5,9.18,7.45,14.46,10.17c4.74,2.76,10.12,4.15,14.87,6.9l-1.45,0.46c-5.7-0.6-11-3.08-15.88-5.95
	c-2.82-1.6-4.78-4.63-8.1-5.33l-0.23-0.08c-1.38-1.96-2.6-4.02-3.67-6.16L-1.43,655.5z M38.26,673.98l0.05-0.77
	c3.3,5.26,7.1,10.2,9.5,16c0.65,2.14,1.28,4.93,1.48,8.2c0.28,4.54-0.37,8.3-1.05,10.94c-0.12,1.2-0.22,2.42-0.3,3.64l-1.08-0.96
	c-1.8-4.44-3.83-8.8-6.6-12.7c-1.3-2.24-3.72-4.56-2.4-7.35C42.22,686.44,41.54,678.95,38.26,673.98L38.26,673.98z M5.8,674.6
	c5.64-0.18,11.3-0.34,16.9,0.56C17.45,678.06,10.98,677.28,5.8,674.6z M72.52,697l0.12-0.1l-0.2,0.17l0.08-0.06V697z M66.32,702.24
	c0.1-0.07,0.27-0.2,0.35-0.28L66.32,702.24z M-42.52,719.4c0-0.07,0.04-0.23,0.05-0.3l-0.04,0.3h-0.02H-42.52z M-157.52,734.32
	l0.12,0.07l-0.1-0.05L-157.52,734.32L-157.52,734.32z M-126.17,765.91c3.12,0.42,6.23,0.95,9.3,1.6c0.42,8.8,0.17,17.64,0.14,26.45
	c-3.15-0.17-6.3-0.58-9.4-1.03C-126.19,783.93-126.13,774.91-126.17,765.91z"/>
<linearGradient id="SVGID_2_" gradientUnits="userSpaceOnUse" x1="152.99" y1="222.705" x2="183.7281" y2="222.705" gradientTransform="matrix(1 0 0 -1 0 841.41)">
	<stop  offset="0" style="stop-color:#FFC300"/>
	<stop  offset="0.28" style="stop-color:#FFC004"/>
	<stop  offset="0.56" style="stop-color:#FFB611"/>
	<stop  offset="0.85" style="stop-color:#FFA625"/>
	<stop  offset="1" style="stop-color:#FF9B33"/>
</linearGradient>
<path class="st3" d="M169,563.76c-2-3.6-3.97-7.26-6.53-10.5c-1.37,5.33-2.44,10.76-4.3,15.97c4.26,11.64,9.52,30.48,9.08,54.05
	c-0.52,27.7-8.67,49-14.26,60.87c4.45-3.36,8.78-8.75,11.1-11.6c11.9-14.6,19.1-33.07,19.6-51.95c0.57-19.85-5.3-39.5-14.7-56.84
	H169z"/>
<linearGradient id="SVGID_3_" gradientUnits="userSpaceOnUse" x1="-168.9" y1="228.08" x2="-193.2401" y2="228.08" gradientTransform="matrix(1 0 0 -1 0 841.41)">
	<stop  offset="0" style="stop-color:#FFC300"/>
	<stop  offset="0.28" style="stop-color:#FFC004"/>
	<stop  offset="0.56" style="stop-color:#FFB611"/>
	<stop  offset="0.85" style="stop-color:#FFA625"/>
	<stop  offset="1" style="stop-color:#FF9B33"/>
</linearGradient>
<path class="st4" d="M-171.87,550.89c-9.4,13.53-15.98,29.1-19.28,45.24c-4.87,21.76-1.2,45.43,10.7,64.36
	c3.35,5.44,7.23,10.57,11.55,15.28c-4.55-15.77-9.08-37.42-9.58-63.4c-0.47-24.88,2.9-45.9,6.6-61.47L-171.87,550.89z"/>
<linearGradient id="SVGID_4_" gradientUnits="userSpaceOnUse" x1="-116.19" y1="136.245" x2="-189.3" y2="136.245" gradientTransform="matrix(1 0 0 -1 0 841.41)">
	<stop  offset="0" style="stop-color:#FFF200"/>
	<stop  offset="1" style="stop-color:#FF9B33"/>
</linearGradient>
<path class="st5" d="M-189.3,664.3c1.93,17.02,6.83,30,10.63,38.18c4.74,10.2,12,25.37,27.95,36.12c0.72,0.48,1.32,0.86,1.7,1.1
	c7.1,1.64,29.06,6.1,32.83,6.33c-7.46-6.04-15.13-12.76-22.84-20.23C-160.71,704.8-177.05,683.4-189.3,664.3L-189.3,664.3z"/>
<path class="st0" d="M-153.5,735.32c1.12,0.94,2.22,1.92,3.26,2.97l1.23,1.42c7.1,1.63,14.26,2.9,21.43,4.2
	c19.43,3.63,38.9,7.34,58.58,9.28c31.44,2.8,63.04,3.74,94.6,3.1c27.16-0.24,54.26-3.27,80.92-8.46c6.8-0.88,13.54-2.24,20.32-3.3
	c4.13-0.64,8.28-1.27,12.3-2.48v0.46c-0.3,15.47-0.06,30.94-0.14,46.4c-2.3,0.58-4.6,1.14-6.92,1.7c0.16-13.16,0-26.33,0.08-39.5
	c-5.8,1.22-11.63,2.25-17.46,3.32c0.07,12.77-0.02,25.54-0.13,38.3c-3.74,1.17-7.57,2-11.44,2.63c-2.65-12.7-4.77-25.5-7.76-38.14
	c-5.9,1.18-11.92,1.67-17.88,2.52c-2.54,12.84-5.28,25.64-7.85,38.47c-3.1,0.42-6.24,0.4-9.3-0.3c2.7-12.4,5.24-24.87,7.98-37.28
	c-5.74,0.58-11.5,1.05-17.24,1.46c-0.4,3.26-4.15,35.34-5.77,36.1c-0.74,0.35-1.46,0.36-1.46,0.36c-0.6,0-1.12-0.18-1.5-0.36
	c-1.94-11.75-3.3-23.6-5.55-35.3c-5.72,0.6-11.47,0.6-17.2,0.63c2.5,11.8,5.15,23.57,7.68,35.36c-3.96,0.13-7.92,0.12-11.87-0.04
	c-0.04-11.7,0.03-23.37-0.04-35.05c-5.7,0.3-11.4,0.14-17.1,0.2c0.14,11.64,0.03,23.28,0.08,34.93c-3.98,0.82-8.05,0.93-12.08,0.63
	c2.68-11.8,5.08-23.7,7.86-35.5c-5.77-0.18-11.53-0.5-17.3-0.68c-2.58,19.77-4.86,34.3-5.6,34.62c-0.47,0.22-1,0.3-1,0.3
	c-0.26,0.04-0.58,0.08-1,0c-0.4-0.1-0.73-0.28-0.92-0.42c-2.07-11.64-3.52-23.38-5.6-35.02c-5.78-0.63-11.58-0.77-17.35-1.32
	c2.83,12.66,5.4,25.37,8.22,38.03c-5.27,0.3-10.55,0.28-15.83,0.17l-0.05-8.2c-4.63-0.27-9.26-0.53-13.87-0.95V773.4
	c6.1,0.75,12.24,1.1,18.34,1.75c-1.1-4.73-2.04-9.5-3.1-14.22c-10.88-0.92-21.7-2.33-32.5-3.8c0.03,14.2,0.03,28.4,0.04,42.6
	c-2.22-0.18-4.45-0.35-6.68-0.5c-0.06-10.22-0.22-20.44-0.1-30.66c0-3.3-0.05-6.96-2.32-9.58c-2.3-2.95-6-4.2-9.53-4.8
	c-10.32-1.86-20.62-3.8-30.86-6.05c0.12,15.48,0,30.96,0.06,46.45c-2.4-0.4-4.8-0.8-7.22-1.17v-41.76c0.03-3.6-0.24-8.78,0.72-10.8
	c0,0,0.02,0,0.02-0.02c0.1-0.12-1.17-1.2-2.4-2.5c-0.36-0.38-2.54-2.67-2.25-3.02c0.06-0.1,0.24-0.05,0.4,0H-153.5z"/>
<path class="st6" d="M-108.68,514.88c-0.03,0-0.06,0.03-0.07,0.1L-108.68,514.88z"/>
<path d="M-153.5,735.32c-9.56-8.85-16.77-19.93-22.52-31.54c-6.04-12.54-10.6-25.83-13.3-39.48c4.1,3.45,8.06,7.1,12.58,10
	c2.3,1.6,4.73,3,7.06,4.58c2.45,1.3,4.93,2.53,7.44,3.7c-2.22-2.27-4.5-4.47-6.66-6.8c-4.32-4.72-8.2-9.85-11.54-15.3
	c-11.9-18.92-15.58-42.6-10.7-64.35c3.3-16.15,9.86-31.7,19.27-45.24c0.9,3.82,1.76,7.64,2.74,11.43c2.4,8.07,5.76,15.9,10.53,22.87
	c2.94-24.2,18.18-45.7,38.3-58.93c2.33-1.72,4.93-3.02,7.4-4.52c-4.22,8.44-6.94,18.9-10,26.94c-10.54,28.17-12.88,59.47-5.94,88.78
	c3.34,12.5,8.83,24.37,15.53,35.43c9.8,15.5,23.2,28.63,38.6,38.54c18.2,11.52,39.73,18.73,61.43,17.4c-6.53-1.62-13.02-3.53-19.3-6
	c-0.04-5.42-0.7-10.8-0.8-16.2c-0.27-10.08,1.8-20.08,4.54-29.74c2-6.05,3.48-12.6,7.97-17.4c-0.28,0.02-0.83,0.02-1.1,0.03
	c-2.42-7.3-9.44-11.3-14.1-17c3.18,0.86,6.36,1.67,9.47,2.73c4.82,1.68,8.86,4.9,13.08,7.66c-4.08-8.8-8.04-17.64-11.7-26.6
	c7.52,3.76,15.03,7.57,22.54,11.36c-3.42-10.08-6.7-20.2-10-30.33c7.6,7.95,14.74,16.3,22.14,24.44c-0.9-8.8-1.9-18.13,1.7-26.48
	c1.1,10.97,3.64,21.9,8.16,32c3.67,8.22,11.1,13.66,17.7,19.35c1.72,1.68,3.97,3.4,4.17,5.97c0,2.78-2.5,4.53-4.36,6.2
	c-0.04,0.68-0.1,2.04-0.15,2.7c0.38,0.62,1.17,1.84,1.56,2.45l0.05-0.77c0.24-1.47,0.5-2.92,0.76-4.38c3.1,0.12,4.64-0.85,7.22-2.76
	c0.03,0,0.78-0.77,0.78-0.77c-0.12-4.8-1.85-9.44-5.03-13.02c-3.7-4.15-8.06-7.77-11.76-11.94c-3.2-4.05-5.88-8.52-8.04-13.2
	c-1.07-3.67-2.33-7.28-3.6-10.88c-0.45-2.08-0.84-4.17-1.33-6.25c-0.2-0.9-0.42-1.78-0.63-2.67c-1.08-4.66-1.16-9.72,0.05-14.36
	c0.14-0.9,5.15-11.17,8.74-14.5c-3.07,0.83-8.16,2.64-13.1,6.82c-7.76,6.53-10.3,14.72-11.1,17.9c-0.38,1.17-0.78,2.33-1.17,3.5
	c-0.48,1.44-1.12,1.52-1.93,0.22c-2.53-3.9-4.97-7.95-8.47-11.1c-5.07-4.77-9.66-10.06-14.98-14.57l-0.47-0.37
	c-1.9-1.46-3.7-3.08-5.52-4.64c0.88,1.13,2.05,2.76,3.2,4.85c0.92,1.65,1.58,3.13,2.4,5.28c2.8,7.13,4.57,13.9,5.4,17.96
	c0.1,0.55,0.23,1.4,0.55,2.7c0.5,2.1,0.93,4.2,1.44,6.3l0.56,2.72c0.58,1.94,1.15,3.93,1.23,5.98c0,0.1-0.04,0.32-0.05,0.42
	c-7.63-3.7-13.2-5.53-16.96-6.53c-1.14-0.3-4.75-1.22-11.1-2.9l-4.97-1.33c3.76,3.47,8.07,6.26,11.84,9.73
	c5.24,4.73,9.3,10.73,12.07,17.22c-4.55,0.1-20.5,0.72-23.88,1.45c1.98,0.66,4,1.25,6,1.8c8.42,3.72,15.67,9.47,20.7,17.28
	c-1.65,2.08-3.76,4.96-5.88,8.6c0,0-2.53,4.35-4.7,9.64c-4.9,11.98-8.33,38.36-9.05,41.72l-0.04,0.3h-0.02
	c-19.6-7.72-37.08-20.57-51.2-36.13c-3.98-5.03-8.24-9.9-11.37-15.54c-2.97-4.66-9.13-18.57-9.68-19.6c-1.18-4.07-2.53-8.1-4-12.06
	c-0.84-2.2-3.4-11.5-4.82-20.04c-2.58-15.58-0.82-28.72,0.33-36.78c1.6-11.4,4.24-19.88,8.06-32.27c1.12-3.62,2-6.32,2.9-8.8
	c1-2.8,1.48-4.2,2.26-6.03c1.97-4.67,3.64-7.35,4.95-10.65l1.46-3.6c0.4-0.96,0.5-1.18,0.6-1.47c0.8-2.1,1.18-3.9,1.4-5.12
	c-5.7,1.23-12.48,4.66-17.7,7.06c-7.02,4.42-14.23,8.84-19.9,15c-3.98,4.06-8.22,7.87-11.56,12.5c-4.14,4.7-6.72,10.58-10.75,15.33
	l-3.32-14.32l-3.42-14.8c-2.32,2.68-4.66,5.63-6.97,8.85c-7.42,10.35-12.3,20.53-15.6,29.3c-0.06,0.47-1.36,3.95-1.9,4.98
	c-1.17,4.06-2.6,8.04-3.92,12.05c-0.33,1.36-0.67,2.72-1.04,4.07c-0.18,1.23-0.35,2.45-0.55,3.67c-0.6,2.45-1.62,16.93-1.72,21.7
	c0,2.9,1.05,13.36,1.65,15.64c0.33,1.63,3.7,12,4.36,15.73l0.8,0.05c0.08,0.38,0.27,1.13,0.36,1.5l-1.4-0.7
	c-2.55-2.7-5.83-7.4-6.76-8.84c-0.93-1.43,3.2,27.12,3.64,29.23c0.36,1.33,1.1,4.75,1.56,6.77c0.46,2.02,2.26,8.1,4.02,12.05
	c0.54,1.02,8.77,19.27,13.7,25.48c5.6,8.05,12.92,14.7,20.56,20.73l0.12,0.07c0.54,0.32,7.64,6.18,8.12,6.46
	c0.5-0.06-4.7-5.5-4.23-5.54L-153.5,735.32z M-108.7,514.88l-0.07,0.1C-108.75,514.91-108.73,514.88-108.7,514.88z"/>
<path d="M184.23,651.32c0,0,1.3-4.86,2.02-7.12c0.53-1.37,1.87-5.96,2.04-6.88c0.4-1.65,0.73-3.32,1.1-4.98
	c0.55-4.9,0.9-10.5,0.82-16.7c-0.1-6.05-0.3-10.46-1.3-16.52c-0.96-5.66-2.2-9.9-3.13-13.03c-1.57-5.24-3.24-9.62-4.65-13
	c-0.07-0.46-4.23-10.4-4.3-10.88c-5.67-10.26-9.62-22.04-18.74-29.88c-0.82,2.95-4.17,21.62-4.4,23.63
	c-0.68,1.82-1.26,7.46-1.46,8.04c-0.26-0.28-6.3-10.65-9.92-14.74c-2.33-3.2-5.3-5.85-7.63-9.04l-0.07-0.07
	c-1.05-1.27-12.38-11.48-15.97-13.97c-0.07-0.05-0.22-0.16-0.3-0.2l-0.27-0.22c-3.08-2.3-9.74-5.84-14.87-8.46
	c-3.92-2-8.08-3.47-12.35-4.58c-0.26-0.06-0.5-0.13-0.66-0.2c3.98,9.13,10.43,18.9,14.08,29.3c1.72,4.88,3.3,9.68,4.77,14.4
	c2.56,7.82,3.66,14.25,4.18,18.72c0.48,4.04,0.67,8.22,0.74,9.68c0.2,4.22,0.18,7.48,0.17,10.56c0,2.2,0.06,4.5-0.12,7.48
	c-0.23,3.9,0.6,7.97-0.84,11.7c-0.17,2.67-0.06,5.4-0.88,8c-0.26,2-0.5,4-0.94,5.96c-0.35,1.67-0.68,3.34-1.06,5l-0.6,2.68
	c-0.37,1.35-0.7,2.7-1.02,4.07c-1.33,4-2.73,8-3.94,12.05c-5.23,10.8-10.53,21.74-18.5,30.84c-4.1,5.03-8.4,10.04-13.62,13.95
	l-0.2,0.16c-1.92,1.64-3.8,3.34-5.77,4.9l-0.35,0.28c-10.2,8.47-21.83,14.13-33.88,20.27c-0.76,0.42-1.63,0.86-2.6,1.27
	c-0.9,0.4-1.76,0.7-2.55,0.93c-5.82-6.77-10.33-14.54-14.07-22.6l-0.87-3.06c-0.43-1.08-0.86-2.15-1.3-3.2
	c0.44-0.33,1.3-0.98,1.75-1.3c1.22,0.46,12.04,5.04,13.73,5.96c0.48,0.06,14.28,6.94,20.32,10.52c-1.8-4.44-3.83-8.8-6.6-12.7
	c-1.3-2.24-3.72-4.56-2.4-7.35c-8,3.22-16.75,0-24.3-2.97c-10.86-5.27-20.98-11.9-31.55-17.7c2.55,4.13,5.54,7.98,8.67,11.68
	c3.85,4.63,9.07,7.75,13.9,11.23c5.35,21,19,39.35,36.38,52.03c-2.7-6-6.1-11.7-10.42-16.68c29.4-7.14,55.24-26.43,72.03-51.4
	c7.15-11.3,12.93-23.54,16.55-36.42c3.48-14.07,4.8-28.66,4.1-43.13c-1.68-27.03-9.65-54.08-25.02-76.54
	c12.64,6.42,24.42,14.95,33.35,26.06c9.3,11.5,15.94,25.5,17.45,40.32c4-5.56,6.98-11.8,9.2-18.25c1.85-5.2,2.92-10.64,4.3-15.98
	c2.55,3.24,4.5,6.9,6.5,10.5c9.4,17.36,15.3,37,14.72,56.85c-0.5,18.88-7.7,37.35-19.6,51.95c-2.32,2.85-4.7,5.65-7.3,8.25
	c-1.2,1.18-2.47,2.3-3.8,3.34c3.27-0.5,6-2.6,8.87-4.1c6.44-3.85,12.32-8.5,17.93-13.46c-4.7,22.83-13.7,45.28-28.6,63.4
	c-3.5,4.53-8.03,8.05-12.06,12.05v0.46c1.5-0.84,3.6-2.08,6.03-3.7c12.8-8.62,20.14-18.46,23.64-23.24
	c9.72-13.27,14.5-26.45,16.92-35.52c0.3-1.35,0.58-2.7,0.9-4.04c0.37-1.34,0.72-2.68,1.1-4l0.6-2.7c0.5-1.96,0.75-3.96,1-5.96
	c0.5-2.47,2.68-21.43,2.68-21.43c-2.6,2.9-7.68,9.3-7.77,9.4L184.23,651.32z"/>
<path d="M5.8,674.6c5.64-0.18,11.3-0.34,16.9,0.56c1.37-0.5,2.55-1.36,3.75-2.14c-5.7-0.6-11-3.08-15.88-5.95
	c-2.82-1.6-4.78-4.63-8.1-5.33c3.16,4.5,7.4,8.08,11.53,11.66c-3.28,0.2-6.72-0.25-9.82,1.1C4.18,674.5,5.8,674.6,5.8,674.6z
	 M82.67,812.06c2.45-0.16,4.9-0.27,7.36-0.33c-1.13-8.08-2.44-16.13-3.32-24.24c-1.66,8.14-2.56,16.4-4.03,24.58L82.67,812.06z"/>
<path d="M139,788.93l-6.92,1.7c-0.44,8.53-0.12,17.1-0.22,25.64c5.6-0.37,11.2-1.06,16.8-1.22c-1,5.22-2.05,10.43-2.9,15.7
	c-10.43,0.72-20.9,0.97-31.34,1.6c0.22-13.2,0.08-26.4,0.15-39.6c-3.74,1.17-7.57,2-11.44,2.63c2.45,12.3,4.83,24.6,7.22,36.9
	c-5.68,0.55-11.4,0.7-17.1,0.6c-0.48-2.98-0.95-5.96-1.46-8.94c-3.7,0.02-7.38,0.1-11.05,0.4c-0.45,3.02-0.96,6.05-1.47,9.08
	c-5.74,0.12-11.46,0.65-17.2,0.53c2.67-11.88,4.96-23.83,7.57-35.72c-3.1,0.42-6.24,0.4-9.3-0.3c-2.52,12.03-5.17,24.02-7.72,36.04
	c-5.87,0.27-11.75,0.3-17.62,0.5c-2.62-11.84-5.1-23.72-7.7-35.57c-3.96,0.13-7.92,0.12-11.87-0.04c0.03,11.88,0.05,23.78,0,35.67
	c-5.7-0.03-11.4,0.02-17.1-0.04c0.06-11.86,0-23.7,0.05-35.55c-3.98,0.82-8.05,0.93-12.08,0.63c-2.44,11.66-5.1,23.26-7.54,34.9
	c-5.87-0.04-11.74,0-17.6-0.23c-2.57-11.54-5.08-23.1-7.54-34.66c-5.27,0.3-10.55,0.28-15.83,0.17v4.8
	c-4.54-0.37-9.08-0.6-13.63-0.73c0.06,5.22,0.05,10.43,0,15.65c5.86,0,11.7,0.42,17.55,0.72c-1.2,4.44-1.77,9.04-3.04,13.47
	c-1.5,0.46-3.14,0.16-4.7,0.17c-9.1-0.7-18.23-0.24-27.3-1.1c0.1-11-0.1-22-0.02-32.98c-2.22-0.2-4.45-0.37-6.68-0.52
	c-0.08,2.05,0.15,4.4-1.27,6.1c-1.37,1.94-3.9,2.2-6.02,2.85c3.03,8.2,5.9,16.44,8.76,24.7c-5.85-0.66-11.74-0.5-17.6-0.88
	c-2.48-7.7-4.85-15.4-7.25-23.13c-0.35-1.45-1.1-2.72-2.65-3.13c-0.14,8.6-0.08,17.2-0.02,25.8c-5.56-0.4-11.15-0.33-16.7-0.86
	v-36.1c-2.4-0.4-4.8-0.8-7.22-1.16v41.94h302.03l-0.68,4.02c0.55-1.78,5.64-30.2,5.9-31.78c-2.18,0-14.36,0.84-18.25,1v-19.7V788.93
	z"/>
<path d="M-28.73,798c-0.17,0.05-0.42,0.12-0.73,0.17c-0.5,0.1-0.9,0.17-1.36,0.08c-0.2-0.04-0.5-0.13-0.84-0.36
	c0.42,3.34,0.87,6.67,1.58,9.96c0.23-0.6,0.55-1.53,0.78-2.7c0.2-0.98,0.22-1.63,0.37-4.02c0.04-0.66,0.1-1.75,0.2-3.12V798z
	 M42.38,798.2c0.38,2.9,0.75,5.78,1.42,8.62c1.02-4.07,0.84-4.5,1.52-8.62c-0.35,0.1-0.8,0.16-1.32,0.17
	c-0.65,0.03-1.2-0.06-1.62-0.16V798.2z M-150,835.38v6.27c103.18,2.27,203.1,2.4,300.96,0l1.07-6.28H-150V835.38z"/>
<g>
	<path class="st1" d="M-142.83,748.16c10.24,2.24,20.54,4.18,30.86,6.04c3.53,0.6,7.24,1.85,9.53,4.8c2.27,2.62,2.3,6.3,2.3,9.58
		c-0.1,10.22,0.06,20.44,0.12,30.66c-0.08,2.05,0.15,4.4-1.27,6.1c-1.37,1.94-3.9,2.2-6.02,2.85c3.03,8.2,5.9,16.44,8.76,24.7
		c-5.85-0.66-11.74-0.5-17.6-0.88c-2.48-7.7-4.85-15.4-7.25-23.13c-0.35-1.45-1.1-2.72-2.65-3.13c-0.14,8.6-0.08,17.2-0.02,25.8
		c-5.56-0.4-11.15-0.33-16.7-0.86v-36.1c-0.05-15.48,0.06-30.96-0.06-46.45 M-126.17,765.89c0.04,9-0.02,18,0.03,27.02
		c3.12,0.45,6.26,0.86,9.4,1.03c0.04-8.8,0.3-17.64-0.12-26.44c-3.08-0.66-6.2-1.2-9.3-1.6L-126.17,765.89z M114.7,754.44
		c5.83-1.07,11.66-2.1,17.46-3.3c-0.08,13.15-0.2,56.58-0.3,65.13c5.6-0.37,11.2-1.06,16.8-1.22c-1,5.22-2.05,10.43-2.9,15.7
		c-10.43,0.72-20.9,0.97-31.34,1.6c0.22-13.2,0.35-65.13,0.28-77.9L114.7,754.44z M-93.38,757.16c10.8,1.45,21.62,2.86,32.5,3.78
		c1.06,4.73,2,9.5,3.1,14.2c-6.1-0.63-12.24-1-18.34-1.74v17.18c4.6,0.42,9.24,0.68,13.87,0.94l0.04,8.2v4.8
		c-4.54-0.36-9.08-0.6-13.63-0.72c0.06,5.22,0.05,10.43,0,15.65c5.86,0,11.7,0.42,17.55,0.72c-1.2,4.44-1.77,9.04-3.04,13.47
		c-1.5,0.46-3.14,0.16-4.7,0.17c-9.1-0.7-18.23-0.24-27.3-1.1c0.1-11-0.1-22-0.02-32.98c0-14.2,0-28.4-0.04-42.6L-93.38,757.16z
		 M77.5,759.74c5.95-0.85,11.96-1.34,17.87-2.52c3,12.63,5.1,25.45,7.76,38.15c2.45,12.3,4.83,24.6,7.22,36.9
		c-5.68,0.55-11.4,0.7-17.1,0.6c-0.48-2.98-0.95-5.96-1.46-8.94c-3.7,0.02-7.38,0.1-11.05,0.4c-0.45,3.02-0.96,6.05-1.47,9.08
		c-5.74,0.12-11.46,0.65-17.2,0.53c2.67-11.88,4.96-23.83,7.57-35.72c2.57-12.83,5.3-25.63,7.84-38.47 M82.65,812.08
		c2.45-0.16,4.9-0.27,7.36-0.33c-1.13-8.08-2.44-16.13-3.32-24.24c-1.66,8.14-2.56,16.4-4.03,24.58L82.65,812.08z M51.1,762.09
		c5.74-0.4,11.5-0.88,17.23-1.46c-2.74,12.4-5.27,24.87-7.97,37.3c-2.53,12-5.18,24-7.73,36.02c-5.87,0.27-11.75,0.3-17.62,0.5
		c-2.62-11.84-5.1-23.72-7.7-35.57c-2.53-11.8-5.17-23.56-7.7-35.36c5.75-0.04,11.5-0.04,17.22-0.63c2.24,11.7,3.6,23.55,5.56,35.3
		c0.38,2.9,0.75,5.78,1.42,8.62c1.02-4.07,1.3-8.28,1.98-12.4c1.9-10.76,3.3-21.6,5.3-32.33L51.1,762.09z M-54.6,761.54
		c5.76,0.55,11.56,0.7,17.33,1.32c2.1,11.64,3.54,23.38,5.6,35.02c0.43,3.34,0.88,6.67,1.6,9.96c0.8-4.75,1.17-9.56,2.04-14.3
		c1.77-10.03,3.02-20.15,4.9-30.16c5.76,0.2,11.52,0.5,17.3,0.68c-2.8,11.8-5.2,23.7-7.87,35.5c-2.44,11.66-5.1,23.26-7.54,34.9
		c-5.87-0.04-11.74,0-17.6-0.23c-2.57-11.54-5.08-23.1-7.54-34.66c-2.8-12.65-5.4-25.36-8.23-38.02L-54.6,761.54z M-1.7,764.01
		c5.7-0.06,11.4,0.1,17.1-0.2c0.06,11.68,0,23.36,0.03,35.04c0.03,11.88,0.05,23.78,0,35.67c-5.7-0.03-11.4,0.02-17.1-0.04
		c0.06-11.86,0-23.7,0.05-35.55c-0.05-11.65,0.06-23.3-0.07-34.93L-1.7,764.01z"/>
</g>
</svg>
