<?xml version="1.0" encoding="utf-8"?>
<!-- Generator: Adobe Illustrator 21.0.0, SVG Export Plug-In . SVG Version: 6.00 Build 0)  -->
<svg version="1.1" id="Layer_1" xmlns="http://www.w3.org/2000/svg" xmlns:xlink="http://www.w3.org/1999/xlink" x="0px" y="0px"
	 viewBox="0 0 249.2 300" style="enable-background:new 0 0 249.2 300;" xml:space="preserve">
<style type="text/css">
	.st0{fill:#CC151A;}
</style>
<g id="_x23_cc151aff">
	<path class="st0" d="M122,0h5.8c29.7,1.2,58.2,12.7,82.7,29.1c14.2,9.3,26.7,20.8,38.6,32.8c-2.7,16.5-6.3,32.8-12,48.6
		c-7.5,21.1-18.6,40.9-32.9,58.2c-22,27-51,47.1-79.8,66.1c-22.6-25.3-39.4-55.5-49.4-87.9c-6.4-22.7-10.7-46.1-13-69.6
		c12.4-5.8,25.1-11.4,38.5-14.1c14.1-2.9,28.8-3.3,43.1-0.7c15.1,2.6,29.4,8.2,43.1,14.9c-5.1,14.6-9.8,29.4-17,43.1
		c-1.5,2.4-2.5,5.3-4.9,7c-5.1,3.9-10.5,7.4-15.9,11c2.3-14.4,4.5-28.8,5.8-43.3c-9.4-3.6-19.3-6.3-29.4-6.5
		c-9.8,0.3-19.4,2.8-28.5,6.2c1.9,21.7,6.1,43.2,14,63.5c3.6,9,7.8,17.9,13.4,25.8c14-7.4,27.1-16.7,38.1-28.2
		c10.3-10.6,17.6-23.6,24.1-36.8c7.2-15.1,13.4-30.9,15.9-47.5c-22.7-15.8-50.6-22.9-78-24.2c-27.4,1.4-55,9.1-78.1,24.2
		c2.2,19.5,6.3,38.6,10.8,57.7c3.6,14.7,7.6,29.4,13.4,43.4c12.3,29.8,30.7,57,53.9,79.5c15-11,30.2-21.9,44.2-34.1
		c10.3,0.1,20.7-0.9,30.9-2.5c3.3-0.3,5.9-2.4,8.7-3.9c7.9-4.4,15.4-9.3,23.3-13.5c-32.5,37-68.1,71.4-107.1,101.6h-0.2
		C108.5,285.7,93,270.8,79,254.6c-26.4-30.1-47.1-65.2-60-103.1C9,122.6,3.4,92.4,0,62.1c12.9-15.5,28.9-28.3,46.4-38.3
		C69.5,10.6,95.3,1.1,122,0z"/>
</g>
</svg>
