<?xml version="1.0" encoding="utf-8"?>
<!-- Generator: Adobe Illustrator 21.1.0, SVG Export Plug-In . SVG Version: 6.00 Build 0)  -->
<svg version="1.1" id="Layer_1" xmlns="http://www.w3.org/2000/svg" xmlns:xlink="http://www.w3.org/1999/xlink" x="0px" y="0px"
	 viewBox="0 0 226.9 213" style="enable-background:new 0 0 226.9 213;" xml:space="preserve">
<style type="text/css">
	.st0{fill:#FFFFFF;}
	.st1{fill:#8BCB00;}
</style>
<g>
	<g>
		<g>
			<path d="M43.7,27.5C62.6,11.6,87.3,3,112,3.6c33.6,0.4,66.2,18.6,84.3,46.8c1.6-0.6,3.3-1.2,5.1-1.4c1.6-0.2,2.9,1.6,2.2,3
				c-1,2.2-1.2,4.6-2.4,6.7c10.6,20,14.3,43.6,10.4,65.9c2.1,0,5-0.5,6,2c0.6,2.4,0.8,6.3-2.3,7c-5.5,0.2-11,0-16.5,0.1
				c-0.2,0.7-0.3,1.3-0.5,2c2,0,3.2,2.4,2.1,4c-2.9,4.1-6.7,7.7-7.8,12.8c-0.1,2.6,0.3,5.2-0.3,7.8c7.3,0,14.6,0,22,0
				c4.9-0.2,4.9,9.2,0,9c-7.5,0-15,0-22.4,0c-14.1,18.5-34.5,32.1-57.1,37.7c-24.9,6.3-52.2,2.8-74.7-9.6
				c-12.7-7-23.8-16.6-32.6-28.1c-6.8,0-13.5,0-20.3,0c-5,0.2-5-9.3,0-9c5.8,0,11.5,0,17.3,0c-0.7-4.9,0-10-0.3-15
				c-1.3-3.8-2.5-7.7-3.4-11.6c-4.7-0.1-9.4,0-14.2,0c-4.7-0.8-3.8-10.1,1.4-9c-2.1-12.9-2-26.2,0.7-39C13.4,63,26,42.2,43.7,27.5z
				 M63.2,18.3c-19.9,10.8-36,28.4-44.8,49.3c-1.8,8.5-3,17.2-4.6,25.8c-1.7,10.9-1.2,22,1.1,32.8c-2.8-6.7-2.9-14.1-2.6-21.2
				c0.3-10.4,1.9-20.7,3.6-30.9c-6.1,17.2-6.8,36-3,53.8c-2,0-3.9,0-5.9,0c0,0.8,0,1.6,0,2.4c69.2,0,138.4,0,207.6,0
				c0-0.8,0-1.6,0-2.4c-2.6,0-5.1,0-7.7,0c5.2-23,2-47.7-8.9-68.6c2.3-2.1,2.4-5.4,3.6-8.1c-2.4,0.4-4.7,1.2-6.7,2.4
				c-0.1-0.1-0.2-0.3-0.2-0.4c0.1-2.1-1.9-3.3-2.8-4.9c-0.1,0.1-0.2,0.2-0.3,0.2c-2.1-3-4.2-6.1-7.2-8.2c0-0.2,0-0.3,0-0.5
				c0.1-0.4-0.6-0.3-0.5,0.1c-5.4-4.6-11-9-16.5-13.5c-8.4-6.7-18.2-11.5-28.5-14.8c4,0.5,7.9,1.7,11.5,3.6
				C161.8,21.1,172,29,182.1,37c-11-11.9-25.1-20.8-40.4-25.9c-16.8-3.5-34.2-2.9-51-0.2c13.9-4.3,28.8-2.7,43.2-2
				C110.2,2.9,84.4,6.6,63.2,18.3z M83.5,139.5c-2.5,3.9-1.6,8.9-1.6,13.3c-0.1,3,1.8,6.2,5.1,6.3c3.6,0,7.3,0.5,10.9-0.4
				c3.6-1.8,2.8-6.7,2.7-10c-3.3,0-6.5,0-9.8,0c0,0.9,0,1.9,0,2.8c2.6,0.1,5.1,0,7.7,0c0,1.7,0.1,4.2-2,4.6c-2.6,0.4-5.3,0.1-8,0.2
				c-1.5,0-3.5-0.3-4-2c-0.7-2.6-0.4-5.4-0.5-8.1c0.1-1.8,0-4.1,1.7-5.2c2.8-1.1,5.9-0.5,8.8-0.6c2.3-0.4,4.5,1.3,4.1,3.7
				c0.7,0,1.4,0,2.1,0c0.5-3.2-1.8-6.7-5.3-6.5C91.5,138,86.7,136.6,83.5,139.5z M148.6,140.6c-1.5,3.8-1,8-0.9,12
				c0,2.6,1.1,5.8,4,6.3c3.5,0.5,7,0.2,10.5,0.2c3.1-0.1,4.7-3.6,4.2-6.4c-0.7,0-1.4,0-2,0c0.5,2.5-1.8,4.1-4.1,3.7
				c-3.2-0.4-7.2,1-9.8-1.3c-1.3-3.7-0.8-7.8-0.5-11.6c0.6-3.6,5-2.9,7.7-3c2.7-0.3,7.1-0.1,6.7,3.7c0.7,0,1.4,0,2.1,0
				c0.1-2.2-0.5-4.7-2.5-5.8c-2.4-1.2-5.1-0.5-7.7-0.7C153.5,137.6,149.9,137.7,148.6,140.6z M26.5,137.9c0,7.1,0,14.2,0,21.3
				c4.6,0,9.2,0,13.8,0c0.1-0.9,0.1-1.9,0-2.8c-3.9,0-7.8,0-11.7,0c0-6.2,0.1-12.3,0-18.5C27.9,137.9,27.2,137.9,26.5,137.9z
				 M53.7,137.9c-0.1,7.1,0,14.2,0,21.3c4.8,0,9.6,0,14.3,0c0-0.9,0-1.9,0-2.8c-4.1,0-8.1,0-12.2,0c0-2.2,0-4.5,0-6.7
				c3.9,0,7.8,0,11.7,0c0.4-0.8,0.1-1.9,0.1-2.8c-3.9-0.1-7.9,0-11.8,0c0-2,0-4.1,0-6.1c4.1,0,8.1,0,12.2,0c0-0.9,0-1.9,0-2.8
				C63.3,137.9,58.5,137.9,53.7,137.9z M122.7,137.9c-2.7,7-5.6,14.1-8.2,21.1c0.6,0.3,1.5,0.1,2.3,0.2c0.6-1.7,1.3-3.3,1.9-5
				c3.6,0,7.3,0,10.9,0c0.6,1.7,1.3,3.3,1.9,5c0.7-0.2,2,0.4,2.3-0.3c-2.8-7-5.5-14-8.3-21C124.6,137.9,123.7,137.9,122.7,137.9z
				 M180.1,137.9c0,0.1-0.1,0.4-0.1,0.5c2.7,3.6,5.5,7.2,8.2,10.9c0.1,3.3-0.1,6.6,0.1,9.9c0.7,0,1.5,0,2.2,0c0.1-3.3,0-6.5,0.1-9.8
				c2.4-4,6.1-7.4,8.1-11.5c-0.9,0-1.9-0.2-2.8,0.1c-2.2,2.8-4.4,5.8-6.6,8.6c-2.2-2.9-4.4-5.8-6.6-8.8
				C181.8,137.9,180.9,137.9,180.1,137.9z M77.5,162.9c-0.1,0.2-0.2,0.4-0.2,0.6c-23.4,0-46.9,0-70.3,0c0,0.8,0,1.6,0,2.5
				c7.7,0,15.4,0,23.2,0c6,8.1,13.1,15.5,21.4,21.4c-6.3-6.8-12.4-13.8-17.7-21.4c0.5,0,1,0,1.4,0c6.7,8.4,13.2,16.9,20.7,24.6
				c22.1,15,50.6,19.9,76.5,13.5c22.7-5.5,43.1-19.3,56.9-38.1c8.4,0,16.8,0,25.2,0c0-0.8,0-1.6,0-2.5c-39.2,0-78.5,0-117.7,0
				c-0.1-0.2-0.2-0.4-0.3-0.6C90.3,162.9,83.9,162.9,77.5,162.9z"/>
		</g>
		<g>
			<path d="M95.4,12.8c14.1-3.1,29.1-2.8,42.9,1.5c15.6,4.8,29.6,14.2,40.6,26.1c-1.2-0.9-2.5-1.7-3.6-2.7
				c-0.7,3.4-1.9,9.8,3.2,10.1c0.1-0.9-0.1-1.8-0.3-2.8c0.4,0.7,0.8,1.5,1.3,2.2c0.3-0.4,0.6-0.9,0.8-1.3c0.5,1.5,1.7,1.2,2.1-0.2
				c-0.1,0.6-0.1,1.1-0.2,1.7c0.6-0.2,1.2-0.4,1.7-0.8l0.2-0.2c2,2.6,4.1,5.3,5.8,8.2c0,0.9,0.5,1.7,1.3,2.1
				c0.4,0.4,0.7,0.9,0.9,1.4c0,0.5,0,1,0,1.5c0.1,0,0.4-0.1,0.6-0.1c0.1,0,0.2,0.1,0.3,0.1c0.1,0.2,0.2,0.3,0.3,0.5
				c-0.6,1.9,0.9,3.5,2.3,4.5c5.2,10.3,8.4,21.7,9.2,33.3c0.4,10.1-0.4,20.2-2.8,30.1c-22.8,0-45.5,0-68.3,0c0-0.2,0.1-0.5,0.1-0.7
				c1.2-3.8,1.1-9.7-3.5-11c0.1,1,0.3,2.1,0.5,3.1c-0.5-0.9-0.8-2-1.7-2.7c-3.1,3.9,0.3,8.5,3.2,11.3c-34.7,0-69.4,0-104.1,0
				c-6.3-21.5-4.4-45.2,5.3-65.4c10.4-22.2,30.2-39.7,53.5-47.4c-5.7,0.9-11.2,3.2-16.3,5.9c-10.5,5.8-19.7,13.7-27.5,22.8
				c-14.4,16.7-23.9,38.4-22.5,60.7c0.3,7.9,1.6,15.8,3.7,23.4c-0.7,0-1.4,0-2.2,0c-6.7-23.7-3.5-50.3,9.5-71.3
				c11.6-19,29.7-34.2,50.9-41.4C86.7,13.8,91,13,95.4,12.8z M151.1,34.8c0.1,0.7,0.3,1.3,0.4,2c0.9,0.1,1.6-0.7,2.3-1.1
				c-0.2,0.5-0.6,1-1.1,1.3c-0.1,3,3.5,4,5.8,5c-0.4-0.9-0.7-1.9-1.1-2.9c1.9,0.5,4.1,0.3,5.9-0.5c-1.2-0.8-2.1-2-3.4-2.7
				c3.7,1,6-2.4,8.1-4.6c-3-0.6-7.2-1.5-9.2,1.6c0-1,0.2-2,0.5-3c-2.2,0.3-4.3,1-6.3,2.1c-0.5-2.1-2.6-3-3.9-4.4
				C147.9,29.9,147.6,34.2,151.1,34.8z M124.9,39.4c0.3-0.4,0.5-1,0.6-1.5c0,0.5,0.1,1.1,0.1,1.6c3-1.7,1.3-5.4,0.3-7.8
				C124.3,33.8,122.4,37.2,124.9,39.4z M103.2,37.1c-1.8-1.1-3.9-1.7-6-2c0.6,2.6,0.3,6,3.1,7.3c-1.3,1.2-1.7,2.9-2.4,4.4
				c2.2-0.9,5.6-1.9,5.6-4.8c-0.5-0.4-0.9-0.9-1.2-1.4c0.7,0.4,1.4,1.3,2.3,1.2c0.4-0.5,0.3-1.3,0.5-1.9c3.5-0.6,3.1-4.7,1.9-7.1
				C105.7,34.1,103.7,35.1,103.2,37.1z M144.6,34.3c-0.2,2.6-1.7,5.4,0,7.8c-1.8-0.5-3.6-0.7-5.5-0.6c0.9,2.7,2.9,6.1,6.3,4.9
				c-3.2,12.6-12.6,22.4-22.9,29.8c0.1-3.2-0.1-6.9,2.4-9.3c1.3-1.1,0.7-2.9,1.4-4.3c0.9-2,3-3.1,4.9-3.9c0,0.6,0.1,1.3,0.3,1.9
				c0.2-0.2,0.5-0.4,0.7-0.5c-0.1,0.3-0.2,0.6-0.3,0.9c2.9-0.1,3.1-3.6,3.1-5.7c-1.4,0.7-3,1.6-3.7,3.1c-1.7,0.3-3.4,0.6-5.1,1
				c-0.4-3.1-0.4-6.2-1-9.2c-0.1,0.6-0.1,1.3-0.2,1.9c-0.4-0.8-1.2-1.3-1.8-2c2.1-1.1,2-3.6,2.2-5.6c-1.8,0.8-4.1,2.2-3.9,4.4
				c-1.1-0.6-2.2-1.2-3.4-1.7c0.5,1.7,0.5,3.6,1,5.3c-1.8-3.1-4.2-5.9-7.1-8.1c1.1-1,1.7-2.5,2.6-3.6c-1.3-0.2-2.7,0-4,0.2
				c1.5-1.6,0.9-3.8,0.9-5.7c-1.8,1.3-4.5,3.3-3.3,5.8c0.2,0.7,0.8-0.1,1.1-0.4c-0.1,0.6-0.4,1.1-0.8,1.4c-0.8-0.4-1.6-0.8-2.5-1.1
				c0.7,0.5,1.5,0.8,2.2,1.2c-0.3,0.6-0.5,1.3-0.7,2c0.7,0,1.3-0.2,2-0.5c-0.6,0.4-1.2,0.7-1.6,1.2c1.1,0.7,2.6,0.5,3.7-0.2
				c1.3,1.2,2.4,2.5,3.5,3.8c-2.4,0.8-2.6,3.5-3.4,5.6c2-0.2,4.1-0.9,5.4-2.5c4.6,7.8,5.5,18.2,0.8,26.1c-4.1,2.7-8.2,5.4-12.3,7.9
				c0-5.9-1.2-12.2,1.2-17.8c1.2-1.7,2.2-3.6,2.3-5.7c-1.7,2.5-3.3,5-4.9,7.5c-1.9-4-3.6-8.2-5.7-12.1c0.2,1.5,0.5,2.9,1,4.3
				c-0.3,0-0.5,0.1-0.8,0.1c-2.4,0.7-2.6,3.5-3.3,5.5c1.9-0.3,4.1-0.9,5.3-2.5c0.9,2.3,1.8,4.6,2.2,7c-1.3-0.6-2.7-0.9-4.1-1.1
				c1,2,1.5,5,4.2,5.4c0.1,0,0.3,0.1,0.4,0.1c0,3.6-0.4,7.1-0.9,10.6c-0.3,0.2-0.7,0.5-1,0.7c0-0.9,0.1-1.9,0.2-2.8
				c-1.8,0.8-3.6,1.9-4.5,3.8c-0.1,0.5-0.1,1.1-0.1,1.6c-1.9,1.1-3.6,2.6-4.7,4.6c-0.6-4.8-0.9-9.7-1.7-14.5
				c-0.2,2.2-0.5,4.5-0.7,6.7c-1-1.7-2.8-2.7-4.6-3.5c0.3,1.3,0.3,2.7,0.7,4.1c-0.6-0.1-1.1-0.2-1.7-0.2c0.6,0.4,1.4,0.6,2,0.9
				c0.6,1.1,1.7,2.1,3,2c0-0.3,0-0.6,0-0.8c0.1,0.1,0.4,0.2,0.6,0.3c0,2.3,0,4.6,0,7c-7.1,8.4-8.8,19.8-10.1,30.3c4,0,8,0,12,0
				c0.3-3.5,0.6-6.9,1-10.4c0.1-3.4,3.1-5.4,6.2-5.9c9.1-1.6,18.3,0.3,27.3,1.7c-4-2.3-8.7-3.2-13.2-3.9c1.6-0.7,3.5-1.7,3.6-3.7
				c0.7,1,1.5,1.9,2.4,2.7c0.7-2.5,1.7-6.6-1.7-7.5c0,0.5,0.1,0.9,0.1,1.4c-0.2-0.4-0.5-0.8-0.8-1.2c-0.8,0.9-1.2,2.2-0.8,3.4
				c-0.3,0.2-0.6,0.4-0.8,0.7c0.2-0.4,0.5-0.9,0.7-1.3c-3.1-0.5-4.1,3.1-4.2,5.5c-5.4-0.7-10.9-0.7-16.4-0.3
				c0.9-3.7,1.9-8.3,5.8-9.9c7.3-3.6,15.5,0.4,23.2-1.1c-6.8-0.9-13.6-1.9-20.3-2.9c6.1-4.9,12.1-9.9,18.9-13.8
				c2.5-1.3,5.2-2.6,8.1-2.5c3,0.2,5.4,2.3,7.5,4.3c0.3,0.5,0.5,1.8,1.3,1.3c0.2,0.2,0.3,0.3,0.5,0.5c-0.4,0.7-0.4,1.6-0.3,2.4
				c0.4-0.1,0.8-0.3,1.2-0.5c-0.3,0.3-0.5,0.7-0.7,1.1c0.9,0.4,1.8,0.1,2.6-0.3c0.3,0.3,0.7,0.6,1,0.9c0,0.4,0,0.7,0.1,1.1
				c0.3-0.1,0.5-0.2,0.8-0.3c0,0,0.1,0.1,0.2,0.1c-0.6,0.7-0.9,1.7-1.5,2.5c0.7,0.7,1.8,0.5,2.6,0.7c-1.1,0.4-2.9,0.5-1.9,2.1
				c-0.3-0.5-0.6-1-0.9-1.4c-2.2,2.6,0.6,5.7,2.6,7.3c0.1-1.7,0.9-3.4,0.4-5.2c3.4,1.2,5.5-2.2,7.8-3.9c-1.9-1.2-3.9-2.2-6.1-2.6
				c0.8-1.3,1.1-2.8,1.7-4.2c-1.9,0.3-4.4,0.6-5.5,2.5c-0.1,0.1-0.2,0.2-0.3,0.3c-0.1-0.2-0.3-0.5-0.4-0.7c1.3-1.2,1.3-3,2.1-4.5
				c-1.3,0.1-2.5,0.5-3.7,0.9c0.9-2.1-0.2-4.2-0.7-6.2c-1,0.8-1.7,1.9-2.4,2.9c-1.5-1.5-3.4-2.5-5.3-3.2c5.9-1.2,12.3-2.1,18,0.6
				c5.3,2.5,8.4,7.7,11.7,12.3c-2.7,0.3-2.9,3.3-3.3,5.4c0.9-0.2,1.8-0.6,2.7-1c-0.6,3.1,1,6.1,2.8,8.5c0.8-2.2,2.6-4.2,2.6-6.6
				c4.5,5.2,10.3,9.4,16.8,11.8c-8.9-5.2-16.7-12.3-22.1-21.1c-2.9-4.2-5.2-9.9-10.6-11.5c6.6-1.6,14.5-0.7,19.1,4.9
				c1.4,1.4,2.3,3.3,4.1,4.1c-2.2,2.5,0.4,5.5,2.3,7.2c-1.8,1.7-3.6,4.8-1.4,6.9c0.2-0.3,0.5-0.6,0.7-0.9c0.2,1.2-0.4,2.3-0.2,3.5
				c0.4-0.1,0.8-0.3,1.2-0.4c-0.3,0.3-0.5,0.7-0.7,1.1c3.3,1,4.6-2.9,5.3-5.4c-1.3,0.1-2.6,0.4-3.7,0.9c0.9-2.1-0.1-4.4-0.9-6.4
				c0.3-1.5,0.8-2.9,0.6-4.4c4.4,2.1,8.2-1.5,11.8-3.5c-3-1.8-6.3-3.5-9.9-3.2c-1.8,0.1-3,1.7-3.9,3c0.9,0.9,2.3,0.6,3.5,0.8
				c-1.2,0.2-2.5,0.7-3.7,0.3c0,0.4,0,0.8,0,1.2c-0.2-0.3-0.4-0.6-0.6-0.8c-1.8-4.8-5.5-9.2-10.5-10.7c4.5-1.7,9.2-2.9,13.6-4.9
				c-0.4,1.5,0,3-0.1,4.5c-0.9-0.9-2.3-1.7-3.5-1.1c0.3,0.4,0.6,0.7,0.9,1.1c-0.4-0.2-0.9-0.4-1.3-0.5c-0.4,3.4,3.3,4.5,6,4.9
				c-0.7-1.4-0.9-2.9-1.7-4.1c2.1-1.1,4.6-2.2,5.6-4.6c2.4,2.9,6.6,3.2,10.1,3c-2-3.2-2.8-7.9-7-8.9c1.1-1.2,2.2-2.5,3-4
				c-5,4.3-10.9,7.5-17.2,9.3c-13.8,4-28.4,2.7-42.3,6.3c2.1-2,4.2-4.2,6.4-6.2c7.4-1.2,15.3-3.7,20.2-9.8c1.1,3.8,5.1,5.7,8.5,7.2
				c-0.8-4-0.9-9.4-5.5-11c-0.2-0.1-0.4-0.1-0.6-0.2c0.1-0.3,0.3-0.6,0.4-1c-0.3,0.3-0.5,0.6-0.8,0.9c-0.3,0-0.5,0-0.8,0
				c0.1,0.2,0.2,0.4,0.2,0.6c-0.1,0.2-0.3,0.3-0.4,0.5c-0.3-0.1-0.7-0.2-1-0.3c0,0.5-0.1,1-0.1,1.5c-1.5,1.5-3.2,2.9-5,4
				c1.5-2.8-0.2-5.6-1.3-8.2c-1.3,1.9-2.4,4-2.5,6.3c-1.3,0.8-3,2.1-2.5,3.8c0,0.2,0.1,0.5,0.1,0.7c-2.1,0.7-4.3,1.1-6.6,1.3
				c4.7-5.8,8.5-13.1,7.6-20.8c0.3,0.1,0.6,0.1,0.8,0.2c0-0.9-0.3-1.7-0.5-2.6c0.5,0.8,0.9,1.8,1.7,2.3c-0.7,3,2.6,4.7,4.9,5.8
				c-0.3-2.6-0.7-6.5-4.1-6.8C151.5,39.1,147.2,36.3,144.6,34.3z M116.1,44.7c0.8-0.1,1.2-0.9,1.7-1.5c-0.3,0.7-0.7,1.4-0.9,2.1
				c4.1-0.1,4.2-5,4.3-8C118.5,38.6,114.7,41.1,116.1,44.7z M128.2,50.7c1.1,0,1.7-1.4,2.4-2.1c-0.4,1-1,1.9-1.3,3
				c2.1,0.3,4-1.3,4.9-3c1.5-2.5,0.9-5.5,1.5-8.2C131.8,42.1,126.1,45.6,128.2,50.7z M161.2,51.2c0.2,0.7,0.4,1.4,0.5,2.1
				c1.1-0.1,1.8-1.1,2.6-1.8c-0.4,0.6-0.7,1.3-1.3,1.8c0,3.1,3.8,4,6.2,4.8c-0.8-1.7-1.3-3.6-2.8-4.7c3-1.8,2.4-5.6,2.9-8.5
				c-2.2,0.6-4.3,1.5-6.2,2.8c-0.6-2.2-2.8-3-4.3-4.4C157.7,46.1,157.3,50.8,161.2,51.2z M104.5,49.6c-1.6,0.4-3.5,0.6-4.6,2
				c-1.4-2.1-3.2-3.8-5.2-5.3c-0.5,3-2.2,6.5,0.1,9.3c-1.9,0.4-3,2-4.3,3.2c2.5,0.2,6.5,1.1,7.6-1.9c-0.3-0.5-0.5-1.2-0.5-1.8
				c0.6,0.7,0.8,1.9,1.8,2.2c0.4-0.6,0.8-1.2,1.2-1.8c2.8,1.1,4.7-1.6,4.8-4.1c1.5-1.3,3.6-3.3,2.4-5.4c-0.2-0.7-0.8,0.1-1,0.4
				c0.1-0.4,0.1-0.7,0.2-1.1C105.1,45.6,104.3,47.9,104.5,49.6z M103.5,59c0.4-0.1,0.9-0.2,1.3-0.4c-0.3,0.4-0.5,0.7-0.8,1.1
				c3.4,1.1,4.6-2.9,5.3-5.3C106.7,54.5,102.9,55.7,103.5,59z M178.9,61c-1.4-0.9-3-1.4-4.6-1.6c0.8,2.4,2.1,6.4,5.4,5.5
				c-0.2-0.4-0.5-0.8-0.8-1.2c0.4,0.2,0.8,0.4,1.2,0.5c0-0.5,0-1.1,0-1.6c0.3,0.2,0.6,0.3,1,0.5c0.2-0.5,0.3-1.1,0.4-1.7
				c0.2,0.5,0.3,1,0.5,1.5c3-2.3,0.9-6.1-1.3-8.1C179.7,56.7,178.8,58.8,178.9,61z M113.7,60.8c0.4,1.9,0.1,3.9,0.7,5.8
				c0.6,2,2.4,4.1,4.6,3.8c-0.2-0.7-0.5-1.4-0.8-2.1c0.6,0.5,1,1.2,1.7,1.4C121.9,65.3,117.1,62.2,113.7,60.8z M89.5,73
				c-1.7-2.7-5-1.9-7.6-1.7c1,2.1,2.2,4.1,3.8,5.8c-1.1,0.5-1.9,1.5-2.9,2.3c1.8,1.3,5.5,2.9,6.3-0.2c-0.4-0.1-0.7-0.3-1.1-0.4
				c0.9-0.3,1.6-0.8,2.3-1.2c-0.3-1.1-1.3-1.6-2-2.3c0.8,0.2,2.4,1.8,2.4,0.2c0.1,0.4,0.2,0.8,0.4,1.2c0.3-0.2,0.6-0.4,0.9-0.6
				c-1.3,3.7-1,9.7,3.5,10.9c0-0.9-0.3-1.9-0.4-2.8c0.6,0.8,0.7,1.9,1.6,2.4c3.2-4.2-0.8-8.9-3.9-11.8c-0.2-1.8-0.4-3.8-1.2-5.5
				C91,70.4,89.7,71.4,89.5,73z M120.8,86.9c0.5,0,1,0,1.5,0c-0.4,0.1-0.8,0.3-1.1,0.4c0.3,0.4,0.5,0.9,0.8,1.4
				c-1.3-1.8-2.5-0.7-2.7,1.1c-0.2-0.3-0.3-0.6-0.5-0.9c-2.7,1.1-0.8,4.3,0.5,5.8c0.5-1,1.3-1.8,1.7-2.8c1.7,1.2,3.5,2.2,5.5,2.8
				c-0.2-2.4,0.3-5.4-2.2-6.8c1.3-0.5,2-1.7,3-2.5C125.1,85,121.5,84,120.8,86.9z M150.9,88.1c0.5,0,1,0,1.5,0
				c-0.9,0.3-1.4,1-0.2,1.3c2.5,1.3,4.2-1.2,5.3-3C155.4,85.6,150.9,84.6,150.9,88.1z M136,96.1c1.7-1,3.6-2.3,4.1-4.3
				c0.2-0.9-0.4-3.2-1.4-1.6c0.1-0.4,0.1-0.8,0.2-1.2C135.4,89.4,135.9,93.6,136,96.1z M126.9,99.9c0.5-0.2,0.9-0.5,1.3-0.9
				c-0.2,0.4-0.4,0.7-0.7,1c0.7,0.4,1.4,0.7,2,1.1c-1-0.1-1.9-0.3-2.9-0.1c0.1,1.1,0.3,2.3,0.9,3.3c-0.4-0.4-0.8-0.7-1.3-0.9
				c-1.7,3,2.2,4.9,4.6,5.5c-0.3-1.4,0-2.8-0.4-4.1c2.5,0.1,5-0.3,7.4-1c-1.9-2.2-3.3-5.7-6.9-5.3c0.9-1.4,0.8-3.2,1.2-4.8
				C129.7,94.9,125.6,96.5,126.9,99.9z M157.2,103.3c2.5-0.6,6.2-2.4,5-5.6c-0.4,0.2-0.7,0.4-1.1,0.6c0.2-0.4,0.4-0.7,0.5-1.1
				C158.2,96.6,157.5,100.9,157.2,103.3z M168.9,100.4c0,0.4,0,0.8,0,1.2c-0.2-0.3-0.5-0.7-0.8-1c-2.2,2.5,0.3,5.6,2.3,7.3
				C171.2,105.5,172.1,101.5,168.9,100.4z M186.4,105.4c0.5-0.1,0.9-0.3,1.3-0.5c-0.8,0.9-1.2,2-1.7,3c0.9,0.6,2,0.5,3,0.6
				c-0.8,0.2-1.6,0.4-2.5,0.6c-0.1,0.4,0,0.8,0.1,1.2c-0.2-0.4-0.8-1.4-1.1-0.5c-1.6,2.6,1.1,5.2,3,6.8c0.1-1.7,0.9-3.4,0.4-5.1
				c3.4,1.2,5.5-2.1,7.8-3.9c-1.8-1.3-3.9-2.2-6.1-2.6c0.8-1.3,1-2.8,1.6-4.1C189.6,100.8,185.8,102.1,186.4,105.4z M156.6,111.3
				c2.3-1.2,5.3-3.7,3.6-6.6c-0.5,0.2-0.8,0.6-1.1,0.9c0.1-0.5,0.2-0.9,0.3-1.4C156,104.5,156.4,108.8,156.6,111.3z M162.9,106.9
				c0.3,0.8,0.6,1.5,0.9,2.2c-0.6-0.6-1-1.3-1.8-1.6c-1.9,4.4,2.8,7.5,6.2,9c-0.5-2.3,0.1-4.9-1.1-7
				C166.2,108,164.7,106.5,162.9,106.9z"/>
		</g>
		<path d="M88.9,11.2c0.4-0.1,0.9-0.3,1.4-0.3C90,11.2,89.4,11,88.9,11.2z"/>
		<g>
			<path d="M183.2,25.2c2.8-0.1,5.8,0.9,7.9,2.7c2.5,2.1,2.6,7.2-1,8c-4,0.8-7-3-7.8-6.6C181.3,28,181.3,25.7,183.2,25.2z
				 M183.7,27.3c1,2.8,2.5,7.6,6.4,6.3c-0.4-0.5-0.8-0.9-1.1-1.4c0.5,0.2,1.8,1.3,1.7,0.2C190.8,28.7,186.6,27.6,183.7,27.3z"/>
		</g>
		<path d="M158.7,34.2c0.6-0.1,1.3-0.1,1.9-0.2c-0.6,0.3-1.2,0.6-1.8,1c0.4,0.4,0.8,0.6,1.2,0.9c-0.6-0.2-1.2-0.3-1.8-0.4
			C158.4,35.1,158.5,34.6,158.7,34.2z"/>
		<path d="M104.9,38.5"/>
		<path d="M179.1,40.6c0.6,0.7,1.2,1.4,1.9,2.1c-0.2,0.4-0.3,0.7-0.5,1.1C180.3,42.6,179.8,41.6,179.1,40.6z"/>
		<path d="M149.5,43.4c0.1-0.1,0.2-0.3,0.3-0.4c0.2,0.4,0.4,0.9,0.6,1.3C150.1,44,149.8,43.7,149.5,43.4z"/>
		<path d="M144.8,45c0.3,0.1,0.7,0.2,1,0.3c0,0.2-0.1,0.4-0.1,0.5C145.4,45.5,145.1,45.2,144.8,45z"/>
		<path d="M122.6,49.2"/>
		<path d="M161.2,49.7"/>
		<g>
			<path d="M221,51.1c2-0.6,3.4,1.7,2.7,3.4c0.3,3.4-1.8,7.7-5.6,7.6c-3.2-0.4-4.1-4.7-2.4-7C217,53.3,218.9,51.9,221,51.1z
				 M217.4,59.5c0.4-0.4,0.8-0.7,1.2-1.2c-0.3,0.5-0.5,1-0.6,1.6c3.4-0.1,3.6-4.2,3.6-6.8C219.2,54.2,215.8,56.5,217.4,59.5z"/>
		</g>
		<path d="M101.3,53.8"/>
		<path d="M123.5,54.5c0.5,0.6,1.1,1.1,1.6,1.7c-0.3,3,0.3,6.6-1.6,9.2c-0.4-3.5-1.3-6.9-2.8-10.1c1,1.2,2.5,2.2,4.1,2
			C124.5,56.3,124,55.4,123.5,54.5z"/>
		<path d="M158.9,55.6c0.3,0.5,0.6,1,0.9,1.6c-0.4-0.4-0.8-0.7-1.1-1.1C158.7,55.9,158.8,55.7,158.9,55.6z"/>
		<g>
			<path d="M208.2,57.3c2.2-0.3,3.6,2,4.9,3.4c2.6,2.9,5,7.3,2.7,11.1c-0.6,2.1-3.3,3-5.2,2.3c-4.4-1.8-5.7-7.5-4.6-11.7
				C206.7,60.7,205.9,57.9,208.2,57.3z M208.7,59.4c-0.1,2.7-1.3,5.4-0.6,8.2c0.5,2,1.8,4.3,4,4.7c-0.1-1.2-0.4-2.3-0.6-3.5
				c0.6,0.9,0.8,2.5,1.9,2.9C216.6,67.2,212.1,62.3,208.7,59.4z"/>
		</g>
		<path d="M150.1,61.5c0.3-0.6,0.4-1.3,0.6-2c0,0.3,0.1,0.5,0.1,0.8c0,0.4,0.1,0.7,0.1,1.1c-0.6,0.3-1.2,0.6-1.8,0.8
			c0.1-0.4,0.3-0.8,0.4-1.2C149.7,61.2,149.9,61.3,150.1,61.5z"/>
		<path d="M146.5,63.2c-0.1-0.6,0.9-0.8,0.4-0.1C146.8,63.1,146.6,63.2,146.5,63.2z"/>
		<path d="M184.5,65c0.1-0.1,0.3-0.3,0.5-0.4c0.3,0.3,0.6,0.6,0.9,1C185.4,65.4,185,65.2,184.5,65z"/>
		<path d="M182,66.7c0.5-0.3,0.9-0.6,1.4-0.8c-0.5,0.5-1,1-1.6,1.5C181.8,67.2,181.9,67,182,66.7z"/>
		<path d="M163.3,90.1c0,0,0.1,0.1,0.1,0.2c-0.1,0.3-0.3,0.5-0.6,0.5C162.9,90.6,163,90.3,163.3,90.1z"/>
		<path d="M164.1,91.3c0.4,0.5,0.7,1,1.1,1.5c-0.1,0.5-0.2,0.9-0.2,1.4C164.9,93.2,164.7,92.2,164.1,91.3z"/>
		<path d="M176.6,96.7"/>
		<path d="M119.8,151.5c1.5-3.6,2.9-7.3,4.4-11c1.4,3.7,2.8,7.3,4.3,11C125.5,151.5,122.6,151.5,119.8,151.5z"/>
		<path d="M43.9,166c0.5,0,1.1,0,1.6,0c10.2,10.8,23.3,19.1,37.7,22.5c-0.5,0.4-1.2,0-1.7-0.1C67,185.3,54.1,176.6,43.9,166z"/>
		<path d="M50.1,166c8.8,0,17.5,0,26.3,0c-2.3,5.6-7.6,9.6-13.4,11c0.3,0.3,2.5,1.7,1.1,1C59,174.4,54.3,170.4,50.1,166z"/>
		<path d="M98.5,166c27.5,0,55,0,82.5,0c-8.6,8.7-19.1,15.4-30.3,20.2c-13.7,9.6-31.2,12.6-47.6,10.6c-5.6-0.9-11.3-2.1-16.7-3.9
			c-1.2-0.5-2.7-0.8-3.3-2c20.7,8.1,45.3,7.9,64.7-3.6c-14.5,5.7-30.5,7.7-45.9,5.4c-13.2-1.9-25.8-6.8-36.9-14.2
			c5.5-1.2,11.1-3.7,16.7-5.5c-1.9,3.8-3.9,7.5-5.8,11.3c1.1,0.3,2.2,0.7,3.3,1c2.7-4.9,7-9.3,12.5-11c6.5-2.1,13.5-0.8,19.8,1.5
			c0.7-1.7-1.4-2.5-2.6-2.8C104.6,171.9,100.9,169.5,98.5,166z"/>
		<path d="M47.4,176.1"/>
		<path d="M49.7,179c5.1,4.4,10.4,8.7,15.9,12.6c4.3,2.6,9,4.5,12.9,7.6c-2.1-0.3-4-1.3-5.8-2.2C64.2,192.2,56,186.5,49.7,179z"/>
		<path d="M83.8,188.8"/>
		<path d="M84.1,188.9"/>
	</g>
	<g>
		<g>
			<path class="st0" d="M63.2,18.3c21.3-11.7,47-15.3,70.6-9.5c-14.3-0.7-29.3-2.3-43.2,2c16.8-2.7,34.3-3.3,51,0.2
				c15.3,5.1,29.4,14.1,40.4,25.9c-10-8-20.3-15.9-31.8-21.6c-3.6-1.8-7.5-3.1-11.5-3.6c10.2,3.3,20,8,28.5,14.8
				c5.5,4.5,11.1,8.9,16.5,13.5c0.1,0.1,0.2,0.2,0.3,0.3c0-0.1,0.1-0.3,0.2-0.3c0,0.2,0,0.3,0,0.5c3,2.1,5.1,5.2,7.2,8.2
				c1.1,1.5,2.1,3.1,3.1,4.7c0.1,0.1,0.2,0.3,0.2,0.4c1.1,1.9,2.2,3.7,3.2,5.6c11,20.9,14.1,45.6,8.9,68.6c2.6,0,5.1,0,7.7,0
				c0,0.8,0,1.6,0,2.4c-69.2,0-138.4,0-207.6,0c0-0.8,0-1.6,0-2.4c2,0,3.9,0,5.9,0c-3.9-17.7-3.1-36.6,3-53.8
				c-1.7,10.2-3.2,20.5-3.6,30.9c-0.3,7.1-0.2,14.5,2.6,21.2c-2.3-10.8-2.8-21.9-1.1-32.8c1.5-8.6,2.8-17.2,4.6-25.8
				C27.2,46.7,43.3,29.1,63.2,18.3z M95.4,12.8c-4.4,0.2-8.7,1-12.9,2.4c-21.2,7.2-39.3,22.4-50.9,41.4c-13,21.1-16.2,47.6-9.5,71.3
				c0.7,0,1.4,0,2.2,0c-2.1-7.6-3.4-15.5-3.7-23.4c-1.4-22.3,8.1-44.1,22.5-60.7c7.8-9.1,17-17,27.5-22.8c5.1-2.7,10.5-5,16.3-5.9
				c-23.3,7.8-43.1,25.2-53.5,47.4c-9.7,20.2-11.5,43.9-5.3,65.4c34.7,0,69.4,0,104.1,0c0.4,0.1,0.8,0,1.3,0.1
				c0.1-0.2,0.2-0.5,0.2-0.7c0,0.2-0.1,0.5-0.1,0.7c22.8,0,45.5,0,68.3,0c2.4-9.8,3.2-20,2.8-30.1c-0.7-11.6-4-22.9-9.2-33.3
				c-0.7-1.5-1.5-3-2.3-4.5c-0.1-0.2-0.2-0.3-0.3-0.5c-0.1,0-0.2-0.1-0.3-0.1l0.1,0c0-0.5-0.4-0.9-0.6-1.4c-0.3-0.5-0.5-1-0.9-1.4
				c-0.3-0.8-0.7-1.5-1.3-2.1c-1.6-2.9-3.7-5.5-5.8-8.2l-0.2,0.2c0,0,0.1-0.1,0.2-0.2c-1-1.3-2-2.5-3.1-3.7
				c-0.6-0.7-1.2-1.4-1.9-2.1c0,0-0.1-0.1-0.2-0.2c-11-11.9-25-21.3-40.6-26.1C124.5,10,109.5,9.7,95.4,12.8z M88.9,11.2
				c0.4-0.1,1,0,1.4-0.3C89.8,10.9,89.4,11,88.9,11.2z"/>
		</g>
		<path class="st0" d="M106.1,41c0.9,0.3,1.7,0.7,2.5,1.1c1.3,0.7,2.5,1.4,3.6,2.3c2.9,2.2,5.3,5,7.1,8.1c0.5,0.9,1,1.8,1.4,2.7
			c1.4,3.2,2.3,6.6,2.8,10.1c2-2.6,1.3-6.1,1.6-9.2c0-1.4,0-2.8,0.1-4.2c0-0.6,0.1-1.3,0.2-1.9c0.6,3,0.6,6.1,1,9.2
			c1.7-0.4,3.4-0.7,5.1-1c0.3,0,0.5-0.1,0.8-0.1c-0.3,0.2-0.7,0.3-1,0.4c-1.9,0.8-4,1.9-4.9,3.9c-0.6,1.4-0.1,3.2-1.4,4.3
			c-2.5,2.4-2.4,6.2-2.4,9.3c10.3-7.4,19.7-17.2,22.9-29.8c0-0.2,0.1-0.4,0.1-0.6c0-0.2,0.1-0.4,0.1-0.5c0.3-1.3,0.5-2.5,0.8-3.8
			c0.2,0.8,0.4,1.7,0.5,2.5c0.9,7.7-2.9,15-7.6,20.8c2.2-0.2,4.4-0.6,6.6-1.3c0-0.2-0.1-0.5-0.1-0.7c0.1,0.2,0.2,0.5,0.2,0.7
			c0.1,0,0.3-0.1,0.5-0.1c0.1,0,0.3-0.1,0.4-0.1c0.7-0.3,1.5-0.5,2.2-0.8c0.6-0.3,1.2-0.6,1.8-0.8c0-0.4-0.1-0.7-0.1-1.1
			c0.1,0.3,0.1,0.7,0.2,1c0.4-0.2,0.8-0.4,1.2-0.7c1.8-1.1,3.5-2.4,5-4c0.4-0.4,0.7-0.8,1.1-1.2c0.1-0.2,0.3-0.3,0.4-0.5
			c0.2-0.2,0.3-0.4,0.5-0.7c0.2-0.3,0.5-0.6,0.8-0.9c-0.1,0.3-0.2,0.6-0.4,1c0.2,0,0.4,0.1,0.6,0.2c-0.2,0-0.5-0.1-0.6-0.1
			c-0.2,0.4-0.4,0.8-0.6,1.2c-0.1,0.1-0.2,0.3-0.3,0.5c-0.5,0.8-1,1.5-1.5,2.3c-4.8,6.1-12.7,8.6-20.2,9.8c-2.2,2-4.2,4.2-6.4,6.2
			c13.9-3.5,28.5-2.2,42.3-6.3c6.3-1.8,12.3-5,17.2-9.3c-0.8,1.5-1.9,2.8-3,4c-0.7,0.7-1.4,1.3-2.1,1.9c-0.1,0.1-0.3,0.3-0.5,0.4
			c-0.4,0.3-0.8,0.6-1.2,0.9c-0.5,0.3-0.9,0.6-1.4,0.8c-1.2,0.7-2.4,1.3-3.6,1.8c-4.4,1.9-9.1,3.2-13.6,4.9c5,1.5,8.7,5.9,10.5,10.7
			c0,0-0.1-0.1-0.2-0.1c-1.9-0.8-2.8-2.7-4.1-4.1c-4.5-5.6-12.5-6.4-19.1-4.9c5.3,1.7,7.6,7.3,10.6,11.5
			c5.4,8.8,13.2,15.9,22.1,21.1c-6.5-2.4-12.3-6.6-16.8-11.8c-0.8-1-1.7-2-2.5-3.1c-0.4-0.5-0.7-1-1.1-1.5c-0.2-0.3-0.5-0.7-0.7-1
			c0,0-0.1-0.1-0.1-0.2c-0.1-0.2-0.3-0.4-0.4-0.6c-3.3-4.6-6.4-9.7-11.7-12.3c-5.6-2.7-12.1-1.8-18-0.6c2,0.7,3.9,1.7,5.3,3.2
			c2,2,3.2,4.5,4.7,6.8c0.1,0.2,0.3,0.5,0.4,0.7c0.1-0.1,0.2-0.2,0.3-0.3c-0.1,0.2-0.1,0.3-0.2,0.5c0.5,0.7,1.1,1.4,1.7,2.1
			c-0.2-0.2-0.5-0.4-0.7-0.6c0,0-0.1-0.1-0.2-0.1c-0.2-0.2-0.5-0.5-0.7-0.7c0,0.3,0,0.7,0,1c-0.1-0.4-0.1-0.7-0.1-1.1
			c-0.3-0.3-0.7-0.6-1-0.9c-0.9-0.9-1.8-1.9-2.8-2.8c-0.2-0.2-0.3-0.3-0.5-0.5c-0.4-0.5-0.9-0.9-1.3-1.3c-2-2-4.4-4.1-7.5-4.3
			c-2.9-0.1-5.6,1.2-8.1,2.5c-6.8,3.9-12.8,8.9-18.9,13.8c6.8,1,13.6,1.9,20.3,2.9c-7.7,1.4-15.9-2.5-23.2,1.1
			c-3.9,1.6-4.9,6.2-5.8,9.9c5.5-0.3,11-0.4,16.4,0.3c0.5,0.1,0.9,0.1,1.4,0.2c4.5,0.7,9.2,1.6,13.2,3.9c-9-1.3-18.2-3.3-27.3-1.7
			c-3,0.5-6.1,2.5-6.2,5.9c-0.4,3.5-0.7,6.9-1,10.4c-4,0-8,0-12,0c1.3-10.6,3-21.9,10.1-30.3c0-2.3,0-4.6,0-7
			c-0.1-0.1-0.4-0.2-0.6-0.3c-1-0.4-2-0.8-3-1.2c-0.7-0.3-1.4-0.5-2-0.9c0.6,0.1,1.1,0.1,1.7,0.2c1.3,0.2,2.5,0.4,3.8,0.6
			c0-0.4,0.1-0.8,0.1-1.2c0.2-2.2,0.5-4.5,0.7-6.7c0.7,4.8,1.1,9.7,1.7,14.5c1.1-1.9,2.8-3.4,4.7-4.6c0-0.5,0-1.1,0.1-1.6
			c0,0.5,0,1,0,1.5c1.5-0.8,2.9-1.6,4.3-2.5c0.3-0.2,0.7-0.5,1-0.7c0.6-3.5,0.9-7.1,0.9-10.6c-0.1,0-0.3-0.1-0.4-0.1
			c0.1,0,0.3,0,0.4,0c0-1.4-0.1-2.9-0.4-4.3c-0.4-2.4-1.3-4.8-2.2-7c-0.4-1-0.8-2.1-1.2-3.1c-0.3,0-0.5,0-0.8,0.1
			c0.3-0.1,0.5-0.1,0.8-0.1c-0.5-1.4-0.8-2.8-1-4.3c2.1,3.9,3.7,8.1,5.7,12.1c1.7-2.5,3.2-5.1,4.9-7.5c-0.1,2.1-1.1,4-2.3,5.7
			c-2.4,5.6-1.1,11.9-1.2,17.8c4.1-2.6,8.2-5.3,12.3-7.9c4.7-8,3.8-18.3-0.8-26.1c-0.6-1.1-1.3-2.1-2-3c-1-1.4-2.2-2.7-3.5-3.8
			c-1-1-2.2-1.8-3.4-2.5C107.6,41.8,106.8,41.5,106.1,41z"/>
		<path class="st0" d="M83.5,139.5c3.2-2.9,8-1.5,11.9-1.8c3.5-0.2,5.8,3.3,5.3,6.5c-0.7,0-1.4,0-2.1,0c0.4-2.4-1.8-4-4.1-3.7
			c-2.9,0.2-6-0.5-8.8,0.6c-1.8,1-1.7,3.4-1.7,5.2c0,2.7-0.3,5.5,0.5,8.1c0.5,1.7,2.6,1.9,4,2c2.7-0.1,5.3,0.2,8-0.2
			c2.1-0.4,2-3,2-4.6c-2.6,0-5.1,0-7.7,0c0-0.9,0-1.9,0-2.8c3.3-0.1,6.5,0,9.8,0c0.1,3.3,0.9,8.2-2.7,10c-3.5,0.9-7.3,0.3-10.9,0.4
			c-3.3,0-5.2-3.3-5.1-6.3C81.9,148.4,81,143.4,83.5,139.5z"/>
		<path class="st0" d="M148.6,140.6c1.3-2.9,4.9-3,7.6-2.9c2.5,0.2,5.3-0.5,7.7,0.7c2.1,1.1,2.7,3.6,2.5,5.8c-0.7,0-1.4,0-2.1,0
			c0.4-3.8-4-4-6.7-3.7c-2.7,0.1-7.1-0.7-7.7,3c-0.3,3.8-0.8,8,0.5,11.6c2.6,2.3,6.6,0.9,9.8,1.3c2.3,0.4,4.6-1.2,4.1-3.7
			c0.7,0,1.4,0,2,0c0.4,2.8-1.1,6.2-4.2,6.4c-3.5,0.1-7,0.3-10.5-0.2c-2.9-0.5-4.1-3.7-4-6.3C147.6,148.7,147.1,144.4,148.6,140.6z"
			/>
		<path class="st0" d="M26.5,137.9c0.7,0,1.4,0,2.1,0c0.1,6.2,0,12.3,0,18.5c3.9,0,7.8,0,11.7,0c0.1,0.9,0.1,1.9,0,2.8
			c-4.6,0-9.2,0-13.8,0C26.5,152.1,26.5,145,26.5,137.9z"/>
		<path class="st0" d="M53.7,137.9c4.8,0,9.6,0,14.3,0c0,0.9,0,1.9,0,2.8c-4.1,0-8.1,0-12.2,0c0,2,0,4.1,0,6.1c3.9,0,7.9,0,11.8,0
			c-0.1,0.9,0.2,2-0.1,2.8c-3.9,0.1-7.8,0-11.7,0c0,2.2,0,4.5,0,6.7c4.1,0,8.1,0,12.2,0c0,0.9,0,1.9,0,2.8c-4.8,0-9.6,0-14.3,0
			C53.7,152.1,53.7,145,53.7,137.9z"/>
		<g>
			<path class="st0" d="M122.7,137.9c0.9,0,1.9,0,2.8,0c2.8,7,5.5,14,8.3,21c-0.4,0.7-1.6,0.1-2.3,0.3c-0.6-1.7-1.3-3.3-1.9-5
				c-3.6,0-7.3,0-10.9,0c-0.6,1.7-1.3,3.3-1.9,5c-0.7-0.1-1.6,0.2-2.3-0.2C117.1,152,120,145,122.7,137.9z M119.8,151.5
				c2.9,0,5.8,0,8.6,0c-1.4-3.6-2.8-7.3-4.3-11C122.7,144.2,121.3,147.8,119.8,151.5z"/>
		</g>
		<path class="st0" d="M180.1,137.9c0.9,0,1.7,0,2.6,0c2.2,2.9,4.4,5.8,6.6,8.8c2.2-2.9,4.3-5.8,6.6-8.6c0.9-0.3,1.8-0.1,2.8-0.1
			c-2.1,4.1-5.7,7.5-8.1,11.5c0,3.3,0.1,6.5-0.1,9.8c-0.8,0-1.5,0-2.2,0c-0.1-3.3,0-6.6-0.1-9.9c-2.6-3.7-5.5-7.2-8.2-10.9
			C180,138.3,180,138,180.1,137.9z"/>
		<g>
			<path class="st0" d="M77.5,162.9c6.4,0,12.7,0,19.1,0c0.1,0.2,0.2,0.4,0.3,0.6c39.2,0,78.5,0,117.7,0c0,0.8,0,1.6,0,2.5
				c-8.4,0-16.8,0-25.2,0c-13.8,18.7-34.2,32.6-56.9,38.1c-25.9,6.5-54.4,1.5-76.5-13.5c-7.5-7.7-14-16.2-20.7-24.6
				c-0.5,0-1,0-1.4,0c5.3,7.6,11.4,14.6,17.7,21.4c-8.2-5.9-15.3-13.3-21.4-21.4c-7.7,0-15.4,0-23.2,0c0-0.8,0-1.6,0-2.5
				c23.4,0,46.9,0,70.3,0C77.4,163.3,77.5,163.1,77.5,162.9z M43.9,166c10.2,10.6,23.1,19.3,37.6,22.5c0.6,0.1,1.2,0.4,1.7,0.1
				C68.8,185,55.7,176.7,45.5,166C45,166,44.4,166,43.9,166z M50.1,166c4.2,4.5,9,8.4,14,11.9c1.4,0.7-0.8-0.7-1.1-1
				c5.8-1.4,11.1-5.4,13.4-11C67.6,166,58.8,166,50.1,166z M98.5,166c2.4,3.5,6.2,5.9,10.2,7.1c1.3,0.4,3.3,1.1,2.6,2.8
				c-6.2-2.3-13.3-3.6-19.8-1.5c-5.5,1.7-9.8,6-12.5,11c-1.1-0.3-2.2-0.7-3.3-1c1.9-3.8,3.9-7.6,5.8-11.3
				c-5.5,1.7-11.2,4.2-16.7,5.5c11.1,7.4,23.7,12.3,36.9,14.2c15.4,2.3,31.4,0.3,45.9-5.4c-19.4,11.5-44,11.7-64.7,3.6
				c0.7,1.2,2.1,1.5,3.3,2c5.5,1.8,11.1,3,16.7,3.9c16.4,2,34-1.1,47.6-10.6c11.2-4.9,21.7-11.5,30.3-20.2
				C153.5,166,126,166,98.5,166z M47.4,176.1 M49.7,179c6.3,7.5,14.4,13.3,23,17.9c1.9,0.9,3.8,1.9,5.8,2.2c-3.9-3.1-8.7-5-12.9-7.6
				C60.1,187.6,54.9,183.4,49.7,179z M83.8,188.8 M84.1,188.9"/>
		</g>
	</g>
	<g>
		<path class="st1" d="M183.7,27.3c2.8,0.3,7.1,1.5,6.9,5.1c0.1,1.2-1.2,0-1.7-0.2c0.4,0.5,0.8,0.9,1.1,1.4
			C186.3,34.9,184.7,30,183.7,27.3z"/>
		<g>
			<path class="st1" d="M151.1,34.8c-3.6-0.6-3.2-4.9-1.9-7.4c1.3,1.4,3.4,2.3,3.9,4.4c1.9-1.1,4.1-1.7,6.3-2.1c-0.3,1-0.5,2-0.5,3
				c1.9-3,6.2-2.2,9.2-1.6c-2.2,2.3-4.5,5.6-8.1,4.6c1.2,0.8,2.2,1.9,3.4,2.7c-1.8,0.8-4,1.1-5.9,0.5c0.4,1,0.7,2,1.1,2.9
				c-2.3-0.9-5.9-1.9-5.8-5c0.5-0.3,0.8-0.8,1.1-1.3c-0.7,0.4-1.4,1.1-2.3,1.1C151.4,36.1,151.3,35.5,151.1,34.8z M158.7,34.2
				c-0.1,0.4-0.3,0.8-0.5,1.3c0.6,0.1,1.2,0.2,1.8,0.4c-0.4-0.3-0.8-0.5-1.2-0.9c0.6-0.3,1.2-0.7,1.8-1
				C159.9,34.1,159.3,34.2,158.7,34.2z"/>
		</g>
		<path class="st1" d="M124.9,39.4c-2.5-2.1-0.6-5.6,1-7.6c1.1,2.4,2.7,6.1-0.3,7.8c-0.1-0.5-0.1-1.1-0.1-1.6
			C125.3,38.4,125.2,38.9,124.9,39.4z"/>
		<g>
			<path class="st1" d="M103.2,37.1c0.6-2,2.5-2.9,3.9-4.3c1.2,2.4,1.5,6.6-1.9,7.1c-0.2,0.6-0.1,1.4-0.5,1.9
				c-0.9,0.1-1.6-0.8-2.3-1.2c0.3,0.5,0.7,1.1,1.2,1.4c0,2.9-3.4,3.9-5.6,4.8c0.7-1.6,1-3.3,2.4-4.4c-2.9-1.3-2.5-4.7-3.1-7.3
				C99.3,35.4,101.3,36,103.2,37.1z M104.9,38.5"/>
		</g>
		<g>
			<path class="st1" d="M144.6,34.3c2.5,2,6.9,4.9,5.3,8.6c3.4,0.2,3.7,4.2,4.1,6.8c-2.3-1-5.5-2.8-4.9-5.8
				c-0.9-0.5-1.2-1.5-1.7-2.3c0.2,0.8,0.5,1.7,0.5,2.6c-0.3-0.1-0.6-0.1-0.8-0.2c-0.1-0.8-0.3-1.7-0.5-2.5c-0.3,1.3-0.4,2.6-0.8,3.8
				c-0.3-0.1-0.7-0.2-1-0.3c0.3,0.3,0.6,0.5,0.9,0.8c0,0.2-0.1,0.4-0.1,0.6c-3.4,1.2-5.4-2.2-6.3-4.9c1.8-0.1,3.7,0,5.5,0.6
				C143,39.6,144.4,36.8,144.6,34.3z M149.5,43.4c0.3,0.3,0.6,0.6,0.9,0.9c-0.2-0.4-0.4-0.9-0.6-1.3
				C149.7,43.1,149.6,43.2,149.5,43.4z"/>
		</g>
		<path class="st1" d="M108.3,41c-1.1-2.5,1.5-4.6,3.3-5.8c0,1.9,0.6,4.2-0.9,5.7c1.3-0.2,2.7-0.4,4-0.2c-0.9,1.2-1.5,2.6-2.6,3.6
			c-1.2-0.9-2.4-1.6-3.6-2.3c0.4-0.4,0.7-0.9,0.8-1.4C109.1,40.9,108.5,41.8,108.3,41z"/>
		<path class="st1" d="M116.1,44.7c-1.4-3.6,2.3-6.1,5.1-7.3c-0.1,3-0.3,7.9-4.3,8c0.2-0.7,0.6-1.4,0.9-2.1
			C117.3,43.8,117,44.6,116.1,44.7z"/>
		<path class="st1" d="M175.3,37.8c1.1,1,2.5,1.7,3.6,2.7c0,0,0.1,0.1,0.2,0.2c0.7,0.9,1.2,2,1.4,3.2c0.2-0.4,0.3-0.7,0.5-1.1
			c1.1,1.2,2.1,2.5,3.1,3.7c0,0-0.1,0.1-0.2,0.2c-0.5,0.5-1.1,0.7-1.7,0.8c0-0.6,0.1-1.1,0.2-1.7c-0.4,1.4-1.6,1.7-2.1,0.2
			c-0.3,0.5-0.5,0.9-0.8,1.3c-0.5-0.7-0.9-1.4-1.3-2.2c0.2,0.9,0.4,1.8,0.3,2.8C173.4,47.6,174.6,41.2,175.3,37.8z"/>
		<path class="st1" d="M183.8,40c-0.1-0.4,0.6-0.5,0.5-0.1c-0.1,0.1-0.2,0.3-0.2,0.3C184,40.2,183.9,40,183.8,40z"/>
		<path class="st1" d="M128.2,50.7c-2.1-5.2,3.6-8.6,7.5-10.3c-0.6,2.7,0,5.7-1.5,8.2c-1,1.7-2.8,3.3-4.9,3c0.3-1.1,0.9-2,1.3-3
			C129.9,49.4,129.4,50.7,128.2,50.7z"/>
		<path class="st1" d="M108.3,42.2c1.2,0.7,2.3,1.6,3.4,2.5c-1.1,0.7-2.6,1-3.7,0.2c0.4-0.5,1-0.9,1.6-1.2c-0.6,0.3-1.3,0.5-2,0.5
			C107.8,43.6,108,42.9,108.3,42.2z"/>
		<g>
			<path class="st1" d="M161.2,51.2c-3.9-0.5-3.5-5.1-2.4-7.8c1.5,1.4,3.7,2.2,4.3,4.4c1.9-1.3,4-2.3,6.2-2.8
				c-0.5,2.9,0.2,6.8-2.9,8.5c1.6,1.2,2,3.1,2.8,4.7c-2.4-0.8-6.2-1.7-6.2-4.8c0.6-0.5,0.9-1.2,1.3-1.8c-0.8,0.7-1.5,1.7-2.6,1.8
				C161.5,52.7,161.4,51.9,161.2,51.2z M161.2,49.7"/>
		</g>
		<g>
			<path class="st1" d="M121.7,48.8c-0.1-2.3,2.1-3.6,3.9-4.4c-0.2,2,0,4.6-2.2,5.6c0.6,0.6,1.3,1.2,1.8,2c-0.1,1.4-0.2,2.8-0.1,4.2
				c-0.6-0.5-1.1-1.1-1.6-1.7c0.5,0.9,1,1.7,1.4,2.7c-1.6,0.2-3.1-0.8-4.1-2c-0.5-0.9-0.9-1.8-1.4-2.7c-0.5-1.8-0.5-3.6-1-5.3
				C119.5,47.6,120.6,48.2,121.7,48.8z M122.6,49.2"/>
		</g>
		<g>
			<path class="st1" d="M104.5,49.6c-0.2-1.7,0.6-4,2.5-4.3c0,0.4-0.1,0.7-0.2,1.1c0.2-0.3,0.8-1.1,1-0.4c1.2,2.1-0.9,4.2-2.4,5.4
				c-0.1,2.5-2,5.2-4.8,4.1c-0.4,0.6-0.8,1.2-1.2,1.8c-1-0.3-1.2-1.5-1.8-2.2c0,0.6,0.2,1.3,0.5,1.8c-1.1,3-5.1,2.1-7.6,1.9
				c1.3-1.3,2.4-2.8,4.3-3.2c-2.3-2.8-0.6-6.2-0.1-9.3c2,1.5,3.8,3.3,5.2,5.3C101.1,50.2,102.9,50,104.5,49.6z M101.3,53.8"/>
		</g>
		<path class="st1" d="M191.5,48.6c0.1-0.1,0.2-0.2,0.3-0.2c0.9,1.7,2.9,2.8,2.8,4.9C193.6,51.7,192.6,50.1,191.5,48.6z"/>
		<path class="st1" d="M111.8,54.2c0.7-2,1-4.8,3.4-5.6c0.7,1,1.4,2,2,3C115.9,53.3,113.7,54,111.8,54.2z"/>
		<path class="st1" d="M194.8,53.6c2.1-1.2,4.4-2.1,6.7-2.4c-1.2,2.7-1.3,6-3.6,8.1C197,57.4,195.9,55.5,194.8,53.6z"/>
		<path class="st1" d="M150.9,52.5c1.1,2.5,2.8,5.4,1.3,8.2c-0.4,0.2-0.8,0.5-1.2,0.7c-0.1-0.3-0.2-0.7-0.2-1c0-0.3-0.1-0.5-0.1-0.8
			c-0.1,0.7-0.3,1.3-0.6,2c-0.2-0.1-0.4-0.3-0.7-0.4c-0.1,0.4-0.3,0.8-0.4,1.2c-0.7,0.3-1.4,0.6-2.2,0.8c0.5-0.7-0.4-0.5-0.4,0.1
			c-0.2,0-0.3,0.1-0.5,0.1c-0.1-0.2-0.2-0.5-0.2-0.7c-0.5-1.7,1.3-3,2.5-3.8C148.5,56.5,149.6,54.4,150.9,52.5z"/>
		<path class="st1" d="M217.4,59.5c-1.6-3,1.8-5.3,4.2-6.3c-0.1,2.6-0.2,6.6-3.6,6.8c0.1-0.6,0.3-1.1,0.6-1.6
			C218.2,58.8,217.8,59.2,217.4,59.5z"/>
		<path class="st1" d="M103.5,59c-0.6-3.3,3.2-4.5,5.8-4.7c-0.7,2.4-1.9,6.4-5.3,5.3c0.2-0.4,0.5-0.7,0.8-1.1
			C104.3,58.7,103.9,58.9,103.5,59z"/>
		<path class="st1" d="M158.4,54.3c0.3,0,0.5,0,0.8,0c-0.2,0.2-0.3,0.4-0.5,0.7C158.5,54.8,158.4,54.6,158.4,54.3z"/>
		<path class="st1" d="M158.9,55.6c0.2-0.4,0.4-0.8,0.6-1.2c0.2,0,0.5,0.1,0.6,0.1c4.6,1.6,4.7,7,5.5,11c-3.3-1.5-7.4-3.4-8.5-7.2
			c0.5-0.7,1.1-1.5,1.5-2.3c0.4,0.4,0.8,0.8,1.1,1.1C159.5,56.6,159.2,56.1,158.9,55.6z"/>
		<path class="st1" d="M189.8,54.6c0.6,0.6,1,1.3,1.3,2.1C190.3,56.4,189.8,55.5,189.8,54.6z"/>
		<path class="st1" d="M178.9,61c-0.1-2.2,0.8-4.3,1.8-6.2c2.2,2,4.3,5.8,1.3,8.1c-0.2-0.5-0.3-1-0.5-1.5c-0.1,0.6-0.2,1.1-0.4,1.7
			c-0.3-0.1-0.6-0.3-1-0.5c0,0.5,0,1,0,1.6c-0.4-0.1-0.8-0.3-1.2-0.5c0.3,0.4,0.6,0.7,0.8,1.2c-3.4,0.9-4.6-3.1-5.4-5.5
			C175.9,59.6,177.5,60,178.9,61z"/>
		<path class="st1" d="M131.6,58.3c0.7-1.5,2.2-2.4,3.7-3.1c0,2.2-0.2,5.7-3.1,5.7c0.1-0.3,0.2-0.6,0.3-0.9
			c-0.2,0.2-0.5,0.4-0.7,0.5c-0.2-0.6-0.3-1.3-0.3-1.9c0.3-0.1,0.7-0.3,1-0.4C132.1,58.2,131.8,58.2,131.6,58.3z"/>
		<path class="st1" d="M157.2,55.2c0.3,0.1,0.7,0.2,1,0.3c-0.3,0.4-0.7,0.8-1.1,1.2C157.2,56.2,157.2,55.7,157.2,55.2z"/>
		<path class="st1" d="M192.1,58.2c0.2,0.4,0.7,0.8,0.6,1.4l-0.1,0c-0.1,0-0.4,0.1-0.6,0.1C192.1,59.2,192.1,58.7,192.1,58.2z"/>
		<path class="st1" d="M208.7,59.4c3.3,2.9,7.9,7.8,4.7,12.3c-1.1-0.4-1.3-2-1.9-2.9c0.2,1.1,0.6,2.3,0.6,3.5
			c-2.2-0.4-3.5-2.6-4-4.7C207.4,64.8,208.7,62.1,208.7,59.4z"/>
		<path class="st1" d="M193.2,60.1c0.8,1.4,1.7,2.9,2.3,4.5C194.1,63.6,192.6,62,193.2,60.1z"/>
		<path class="st1" d="M113.7,60.8c3.4,1.5,8.1,4.6,6.2,9c-0.8-0.2-1.2-0.9-1.7-1.4c0.3,0.7,0.6,1.3,0.8,2.1c-2.3,0.3-4-1.8-4.6-3.8
			C113.8,64.7,114.1,62.7,113.7,60.8z"/>
		<path class="st1" d="M95.3,67.7c0.7-2,0.9-4.8,3.3-5.5c0.3,0,0.5,0,0.8-0.1c0.4,1.1,0.8,2.1,1.2,3.1
			C99.3,66.8,97.2,67.4,95.3,67.7z"/>
		<path class="st1" d="M185,64.7c0.7-0.6,1.5-1.3,2.1-1.9c4.2,1,5,5.8,7,8.9c-3.5,0.3-7.7,0-10.1-3c-0.9,2.4-3.4,3.5-5.6,4.6
			c0.8,1.3,1.1,2.8,1.7,4.1c-2.6-0.3-6.4-1.5-6-4.9c0.5,0.1,0.9,0.3,1.3,0.5c-0.3-0.4-0.6-0.7-0.9-1.1c1.3-0.6,2.6,0.2,3.5,1.1
			c0.1-1.5-0.4-3,0.1-4.5c1.2-0.6,2.5-1.2,3.6-1.8c-0.1,0.2-0.1,0.5-0.2,0.7c0.5-0.5,1.1-1,1.6-1.5c0.4-0.3,0.8-0.6,1.2-0.9
			c0.4,0.2,0.9,0.4,1.4,0.6C185.6,65.3,185.3,65,185,64.7z"/>
		<path class="st1" d="M89.5,73c0.2-1.6,1.5-2.5,2.3-3.8c0.8,1.7,1,3.7,1.2,5.5c3,2.9,7,7.6,3.9,11.8c-0.9-0.5-1.1-1.6-1.6-2.4
			c0.1,0.9,0.4,1.8,0.4,2.8C91,85.7,90.8,79.7,92,76c-0.3,0.2-0.6,0.4-0.9,0.6c-0.2-0.4-0.3-0.8-0.4-1.2c-0.1,1.6-1.6,0-2.4-0.2
			c0.7,0.7,1.8,1.3,2,2.3c-0.8,0.5-1.5,1-2.3,1.2c0.4,0.1,0.7,0.3,1.1,0.4c-0.8,3.1-4.6,1.5-6.3,0.2c1-0.7,1.7-1.8,2.9-2.3
			c-1.6-1.7-2.8-3.7-3.8-5.8C84.4,71.1,87.8,70.3,89.5,73z"/>
		<path class="st1" d="M98.7,71.2c1.4,0.2,2.8,0.5,4.1,1.1c0.3,1.4,0.4,2.9,0.4,4.3c-0.1,0-0.3,0-0.4,0
			C100.2,76.2,99.6,73.2,98.7,71.2z"/>
		<path class="st1" d="M138.6,79.9c0.7-1.1,1.4-2.1,2.4-2.9c0.5,2,1.6,4.1,0.7,6.2c1.2-0.5,2.5-0.8,3.7-0.9
			c-0.7,1.5-0.8,3.3-2.1,4.5C141.8,84.4,140.5,81.9,138.6,79.9z"/>
		<g>
			<path class="st1" d="M176,82.6c0.9-1.4,2.1-2.9,3.9-3c3.6-0.3,6.9,1.4,9.9,3.2c-3.6,2-7.4,5.6-11.8,3.5c0.3,1.5-0.3,3-0.6,4.4
				c0.8,2,1.7,4.2,0.9,6.4c1.2-0.5,2.5-0.8,3.7-0.9c-0.7,2.4-1.9,6.4-5.3,5.4c0.2-0.4,0.5-0.7,0.7-1.1c-0.4,0.2-0.8,0.3-1.2,0.4
				c-0.2-1.2,0.4-2.3,0.2-3.5c-0.2,0.3-0.5,0.6-0.7,0.9c-2.2-2.2-0.4-5.2,1.4-6.9c-1.9-1.7-4.5-4.7-2.3-7.2c0,0,0.1,0.1,0.2,0.1
				c0.3,0.2,0.4,0.5,0.6,0.8c0-0.4,0-0.8,0-1.2c1.2,0.4,2.5-0.1,3.7-0.3C178.4,83.2,176.9,83.5,176,82.6z M176.6,96.7"/>
		</g>
		<path class="st1" d="M138.1,82.6c0.5,0.4,0.9,0.9,1.3,1.3C138.7,84.4,138.4,83.1,138.1,82.6z"/>
		<path class="st1" d="M85.2,84c1.7,0.8,3.6,1.8,4.6,3.5c0,0.4-0.1,0.8-0.1,1.2c-1.3-0.2-2.5-0.4-3.8-0.6
			C85.5,86.7,85.5,85.3,85.2,84z"/>
		<path class="st1" d="M140,84.4c0.9,0.9,1.9,1.8,2.8,2.8c-0.8,0.4-1.7,0.7-2.6,0.3c0.2-0.4,0.4-0.8,0.7-1.1
			c-0.4,0.2-0.8,0.3-1.2,0.5C139.6,86.1,139.5,85.2,140,84.4z"/>
		<path class="st1" d="M144,87.1c1.1-1.9,3.5-2.2,5.5-2.5c-0.6,1.4-0.8,2.9-1.7,4.2c2.2,0.4,4.3,1.4,6.1,2.6
			c-2.3,1.8-4.4,5.1-7.8,3.9c0.5,1.7-0.3,3.4-0.4,5.2c-2.1-1.7-4.8-4.7-2.6-7.3c0.4,0.4,0.7,0.9,0.9,1.4c-1-1.6,0.8-1.7,1.9-2.1
			c-0.9-0.2-2,0-2.6-0.7c0.5-0.8,0.8-1.8,1.5-2.5c0.2,0.2,0.5,0.4,0.7,0.6c-0.5-0.7-1.1-1.4-1.7-2.1C143.9,87.4,143.9,87.2,144,87.1
			z"/>
		<path class="st1" d="M120.8,86.9c0.7-2.9,4.3-1.9,6.4-1.5c-1,0.9-1.7,2.1-3,2.5c2.5,1.4,2,4.4,2.2,6.8c-2-0.6-3.8-1.6-5.5-2.8
			c-0.4,1-1.2,1.9-1.7,2.8c-1.3-1.5-3.2-4.7-0.5-5.8c0.2,0.3,0.3,0.6,0.5,0.9c0.1-1.9,1.4-2.9,2.7-1.1c-0.2-0.5-0.5-0.9-0.8-1.4
			c0.4-0.2,0.7-0.3,1.1-0.4C121.8,86.9,121.3,86.9,120.8,86.9z"/>
		<path class="st1" d="M97,89c0.9-1.8,2.7-2.9,4.5-3.8c-0.1,0.9-0.2,1.9-0.2,2.8c-1.4,0.9-2.8,1.7-4.3,2.5C97,90,97,89.5,97,89z"/>
		<path class="st1" d="M150.9,88.1c-0.1-3.6,4.4-2.5,6.6-1.7c-1.1,1.8-2.8,4.3-5.3,3c-1.2-0.3-0.7-1,0.2-1.3
			C151.9,88.1,151.4,88.1,150.9,88.1z"/>
		<path class="st1" d="M143.9,88.3c0.2,0.2,0.5,0.5,0.7,0.7c-0.3,0.1-0.5,0.2-0.8,0.3C143.8,89,143.8,88.6,143.9,88.3z"/>
		<path class="st1" d="M86.2,88.7c1,0.4,2,0.7,3,1.2c0,0.3,0,0.6,0,0.8C87.9,90.8,86.8,89.8,86.2,88.7z"/>
		<path class="st1" d="M136,96.1c-0.1-2.5-0.6-6.8,2.9-7.1c-0.1,0.4-0.1,0.8-0.2,1.2c1.1-1.5,1.6,0.7,1.4,1.6
			C139.7,93.9,137.7,95.1,136,96.1z"/>
		<path class="st1" d="M159.6,94.9c0.4-2.1,0.6-5.1,3.3-5.4c0.1,0.2,0.3,0.4,0.4,0.6c-0.3,0.2-0.4,0.4-0.4,0.7
			c0.3-0.1,0.5-0.3,0.6-0.5c0.2,0.3,0.5,0.7,0.7,1c0.6,0.9,0.7,1.9,0.9,2.9c0.1-0.5,0.1-0.9,0.2-1.4c0.8,1,1.6,2,2.5,3.1
			c0,2.5-1.8,4.4-2.6,6.6c-1.8-2.4-3.4-5.5-2.8-8.5C161.4,94.4,160.5,94.7,159.6,94.9z"/>
		<path class="st1" d="M126.9,99.9c-1.3-3.3,2.8-5,5.2-6c-0.4,1.6-0.2,3.3-1.2,4.8c3.6-0.4,5,3,6.9,5.3c-2.4,0.7-4.9,1.1-7.4,1
			c0.4,1.3,0.1,2.8,0.4,4.1c-2.4-0.6-6.3-2.5-4.6-5.5c0.5,0.1,1,0.5,1.3,0.9c-0.6-1-0.7-2.2-0.9-3.3c1-0.2,1.9,0,2.9,0.1
			c-0.7-0.4-1.4-0.7-2-1.1c0.2-0.4,0.4-0.7,0.7-1C127.8,99.3,127.3,99.6,126.9,99.9z"/>
		<path class="st1" d="M157.2,103.3c0.4-2.5,1-6.7,4.4-6.1c-0.2,0.4-0.4,0.7-0.5,1.1c0.3-0.2,0.7-0.4,1.1-0.6
			C163.4,101,159.7,102.8,157.2,103.3z"/>
		<path class="st1" d="M117.4,100.4c3.4,0.9,2.4,5.1,1.7,7.5c-1-0.8-1.7-1.7-2.4-2.7c-0.1,2-2,3-3.6,3.7c-0.5,0-0.9-0.1-1.4-0.2
			c0.1-2.4,1.2-6,4.2-5.5c-0.2,0.5-0.4,0.9-0.7,1.3c0.3-0.2,0.6-0.4,0.8-0.7c-0.5-1.2-0.1-2.5,0.8-3.4c0.3,0.4,0.5,0.8,0.8,1.2
			C117.5,101.3,117.4,100.8,117.4,100.4z"/>
		<path class="st1" d="M168.9,100.4c3.3,1,2.3,5.1,1.6,7.6c-2-1.7-4.6-4.8-2.3-7.3c0.3,0.3,0.5,0.7,0.8,1
			C168.9,101.3,168.9,100.9,168.9,100.4z"/>
		<path class="st1" d="M186.4,105.4c-0.6-3.3,3.2-4.6,5.8-4.6c-0.6,1.3-0.8,2.8-1.6,4.1c2.2,0.4,4.3,1.3,6.1,2.6
			c-2.3,1.8-4.4,5.1-7.8,3.9c0.5,1.7-0.3,3.4-0.4,5.1c-1.9-1.6-4.6-4.2-3-6.8c0.3-0.9,0.9,0.1,1.1,0.5c-0.1-0.4-0.1-0.8-0.1-1.2
			c0.8-0.1,1.6-0.4,2.5-0.6c-1-0.1-2.1,0-3-0.6c0.5-1,0.9-2.2,1.7-3C187.3,105.1,186.9,105.3,186.4,105.4z"/>
		<path class="st1" d="M156.6,111.3c-0.3-2.5-0.6-6.8,2.9-7c-0.1,0.5-0.2,0.9-0.3,1.4c0.3-0.4,0.6-0.8,1.1-0.9
			C161.9,107.6,158.9,110.1,156.6,111.3z"/>
		<path class="st1" d="M162.9,106.9c1.8-0.4,3.4,1.1,4.2,2.6c1.2,2.2,0.7,4.7,1.1,7c-3.4-1.5-8.2-4.6-6.2-9c0.8,0.3,1.2,1,1.8,1.6
			C163.5,108.4,163.1,107.6,162.9,106.9z"/>
		<path class="st1" d="M130.2,116.2c4.6,1.3,4.8,7.2,3.5,11c-0.1,0.2-0.1,0.5-0.2,0.7c-0.4,0-0.9,0-1.3-0.1
			c-2.9-2.8-6.3-7.4-3.2-11.3c0.8,0.7,1.2,1.8,1.7,2.7C130.5,118.3,130.3,117.2,130.2,116.2z"/>
	</g>
</g>
</svg>
