<?xml version="1.0" encoding="utf-8"?>
<!-- Generator: Adobe Illustrator 19.0.0, SVG Export Plug-In . SVG Version: 6.00 Build 0)  -->
<svg version="1.1" id="Layer_1" xmlns="http://www.w3.org/2000/svg" xmlns:xlink="http://www.w3.org/1999/xlink" x="0px" y="0px"
	 viewBox="-112.22 322.729 224.569 201.684" style="enable-background:new -112.22 322.729 224.569 201.684;" xml:space="preserve">
<g id="_x23_000000ff">
	<path d="M0.09,346.31c17.41-16.76,42.16-24.02,65.94-23.56c11.48,0.86,23.05,2.22,34.02,5.88c-1.9,7.48-4.32,14.82-6.21,22.3
		c-17.26-6-37.54-8.37-54.08,0.95c-14.28,7.68-22.34,22.94-26.7,37.98C8.83,375.31,4.06,360.93,0.09,346.31z"/>
	<path d="M-101.51,456.3c13.46-43.39,27.07-86.74,40.55-130.12c13.81-0.1,27.62,0.02,41.43-0.07
		c14.29,44.62,28.29,89.33,42.39,134.01c2.57,7.65,4.91,15.38,7.1,23.14c-11.18,0.27-22.36,0.38-33.54,0.86
		c-4.58-13.78-8.16-27.87-12.9-41.6c-16.26,0.29-32.52-0.01-48.77,0.47c-2.54,7.99-4.7,16.1-7.47,24.03
		c-1.88,5.3-2.64,11.04-5.22,16.06c-10.84,0.72-21.74,0.42-32.59,1.06C-106.88,475.07-104.78,465.49-101.51,456.3 M-43.1,359.87
		c-5.39,19.85-11.22,39.57-16.47,59.45c12.49,0.08,24.99,0.04,37.48,0.03c-5.52-19.84-11.14-39.66-16.61-59.51
		c-0.63-2.23-1.43-4.41-2.26-6.58C-41.75,355.44-42.5,357.63-43.1,359.87z"/>
	<path d="M32.9,450.22c11.98,9.08,27.84,10.22,42.32,8.95c6.45-0.38,12.62-2.44,19.01-3.29c1.35,7.39,2.85,14.76,4.61,22.07
		c-7.97,4.03-17.01,4.79-25.78,5.31c-9.99,0.48-20.02,0.59-30.01-0.09C39.77,472.15,36.16,461.24,32.9,450.22z"/>
	<path d="M-52.23,496.36c0.92,0.01,2.76,0.05,3.68,0.07c0.04,1.59,0.07,3.19,0.09,4.79c2.56,0.01,5.13-0.05,7.68,0.27
		c0,0.73,0.01,2.19,0.02,2.92c-2.57,0.27-5.15,0.21-7.72,0.22c0,4.85,0.04,9.7-0.07,14.55c-0.93-0.01-2.77-0.04-3.69-0.06
		c-0.09-4.72-0.05-9.44-0.08-14.16c-1.71-0.45-3.69-0.84-2.83-3.11c0.7-0.24,2.11-0.72,2.82-0.96
		C-52.3,499.38-52.27,497.86-52.23,496.36z"/>
	<path d="M-98.59,501.23c4.04-0.06,8.61-0.38,11.94,2.35c1.68,3.46,0.97,7.59,0.82,11.32c-0.12,2.59-2.81,3.9-5.08,4.15
		c-3.69,0.39-7.42,0.2-11.14,0.23c-3.05-0.02-6.51-0.17-8.84-2.44c-2.55-3.16-1.37-8.98,3-9.81c6.35-1.4,12.94,0.04,19.35-0.95
		c-3.02-1.58-6.43-1.81-9.77-1.8C-98.4,503.26-98.5,502.24-98.59,501.23 M-105.88,515.68c4.56,0.7,9.25,0.48,13.84,0.2
		c3.48,0.1,2.41-3.91,2.79-6.13c-5.54,0.14-11.14-0.45-16.64,0.3C-108.89,510.19-108.98,515.62-105.88,515.68z"/>
	<path d="M-82.44,501.38c1.26-0.04,2.52-0.06,3.78-0.08c0.04,4.64-0.04,9.28,0.18,13.92c5.57,0.93,11.85,1.96,17.14-0.43
		c0.41-4.49,0.08-9,0.14-13.5c1.25-0.01,2.5-0.05,3.75,0.08c0.73,4.15,0.38,8.43,0.27,12.63c0,3.11-3.36,4.47-5.95,4.87
		c-4.62,0.58-9.34,0.62-13.96,0.05c-2.23-0.32-4.97-1.53-5.22-4.08C-82.69,510.36-82.38,505.86-82.44,501.38z"/>
	<path d="M-33.47,501.61c4.12-0.82,8.37-0.58,12.54-0.37c3.04,0.15,7.12,1.8,6.73,5.5c-0.26,3.73,1.56,9.31-2.7,11.34
		c-3.45,1.66-7.42,1.11-11.12,1.22c-3.51-0.09-7.81-0.11-10.14-3.19c-1.06-2.94-0.62-6.19-0.56-9.26
		C-38.83,503.93-35.94,502.26-33.47,501.61 M-34.92,505.74c-0.07,2.96-0.3,5.96,0.19,8.9c4.8,2.33,11.04,2.01,15.99,0.29
		c1.23-2.88,0.75-6.4,0.28-9.46C-23.69,503.66-29.7,503.95-34.92,505.74z"/>
	<path d="M-11.68,506.01c0.03-3.36,3.79-4.64,6.59-4.79c6.31-0.26,12.63-0.09,18.95-0.01c-0.05,1.05-0.1,2.11-0.15,3.17
		c-7.08,0.52-14.43-1.02-21.32,0.97c-0.74,3.06-0.63,6.3-0.11,9.4c1.13,0.84,2.56,1.14,3.94,1.25c5.99,0.4,12.03-0.44,17.99,0.42
		c-0.15,0.66-0.43,1.97-0.58,2.63c-5.53,0.49-11.1,0.12-16.64,0.21c-2.9-0.13-6.76-0.1-8.3-3.07
		C-12.14,512.88-11.83,509.38-11.68,506.01z"/>
	<path d="M15.9,505.75c0.18-2.65,3.04-3.73,5.26-4.24c2.65-0.46,6.6-1.43,6.74,2.48c-2.76,0.32-5.53,0.71-8.22,1.44
		c-0.19,4.52,0.59,9.16-0.41,13.6c-0.86,0.07-2.59,0.22-3.45,0.29C15.82,514.8,15.52,510.26,15.9,505.75z"/>
	<path d="M59.06,505.91c0.24-3.35,4.02-4.59,6.86-4.7c6.28-0.23,12.58-0.12,18.86,0.04c-0.08,1.05-0.15,2.1-0.23,3.16
		c-5.85,0.08-11.71-0.14-17.55,0.05c-1.56,0.08-4.17,0.22-4.05,2.39c0.01,2.73-0.67,5.89,0.7,8.36c6.78,2.08,14.06-0.07,20.98,1.21
		c0.11,0.67,0.33,2.03,0.44,2.7c-6.01,0.2-12.03,0.19-18.04,0.12c-2.77-0.12-6.43-0.37-7.66-3.35
		C58.59,512.63,58.7,509.21,59.06,505.91z"/>
	<path d="M87.48,501.17c1.1,0.01,2.2,0.07,3.3,0.16c1.12,4.49-0.44,9.29,0.92,13.71c5.42,1.67,11.23,0.29,16.81,0.81
		c0.03-4.87-0.04-9.73,0.06-14.6c1.25,0.05,2.51,0.1,3.77,0.18c-0.1,5.84,0.11,11.69-0.06,17.53c0.04,1.89-0.98,3.83-2.84,4.44
		c-3.18,1.12-6.64,1.14-9.96,0.87c0.01-0.76,0.02-2.27,0.02-3.02c3.27-0.34,6.9,0.26,9.71-1.86c-5.41-0.63-10.86,0.12-16.25-0.5
		c-2.32-0.32-5.35-1.42-5.43-4.2C87.17,510.2,87.43,505.67,87.48,501.17z"/>
	<path d="M43.68,501.33c3.92-0.36,8.48-0.42,11.72,2.16c1.94,3.04,1,6.99,1.08,10.42c0.18,2.64-2.01,4.76-4.53,5.03
		c-4.98,0.59-10.04,0.39-15.04,0.19c-2.87-0.24-6.75-1.71-6.69-5.16c-0.6-2.95,0.8-6.18,3.91-6.88c6.37-1.51,13.01-0.02,19.47-0.98
		c-2.99-1.71-6.46-1.67-9.78-2C43.78,503.41,43.71,502.02,43.68,501.33 M33.96,515.06c5.29,1.41,10.84,1.17,16.25,0.82
		c3.38,0.07,2.35-3.99,2.71-6.15c-5.61,0.2-11.28-0.5-16.84,0.38C33.53,510.38,34.25,513.27,33.96,515.06z"/>
</g>
</svg>
