<?xml version="1.0" encoding="utf-8"?>
<!-- Generator: Adobe Illustrator 19.0.0, SVG Export Plug-In . SVG Version: 6.00 Build 0)  -->
<svg version="1.1" id="Layer_1" xmlns="http://www.w3.org/2000/svg" xmlns:xlink="http://www.w3.org/1999/xlink" x="0px" y="0px"
	 viewBox="-232.1 330.9 127.1 178.3" style="enable-background:new -232.1 330.9 127.1 178.3;" xml:space="preserve">
<style type="text/css">
	.st0{fill:#D34A1C;}
	.st1{fill:#1C1C1C;}
</style>
<polygon class="st0" points="-194.2,358.6 -194.2,355.4 -150.3,337 -131.8,341.4 -128.6,347.8 -128.9,352.3 -144.2,341.3 
	-163.5,351.5 "/>
<polygon class="st0" points="-169.2,370.4 -152.2,369.9 -133.2,386.3 -184.9,396.2 "/>
<polygon class="st0" points="-196.3,395.1 -194.9,395.1 -194.4,397.8 -186.4,397.4 -107.2,382.6 -107.2,384.2 -107.9,384.7 
	-197.2,402.5 "/>
<polygon class="st0" points="-200.7,450.4 -204.8,447.8 -207.3,445.7 -186,407.7 -152.2,402.5 -143.4,425.5 -148.2,433.7 
	-141.5,448.6 -136.4,458.5 -135.2,462.3 "/>
<g id="_x23_1c1c1cff">
	<path class="st1" d="M-183.3,330.9h22.1c1.4,1.4,3.5,0.8,5.3,0.9c6.3-0.2,12.6,1.3,18.5,3.6c4.5,2.4,7.8,6.6,9.6,11.4
		c-0.2,1.9-0.5,3.7-0.9,5.5c3.1,2,6.8,3.4,9.4,6.2c0.2,2.3,0.8,4.7,0.1,7c-1.2,1-2.3,0.1-3.3-0.7c0.7-1.8,1.1-3.6,0.8-5.5l-1.3,0.2
		c0,0.9,0.2,2.8,0.2,3.7c-0.8-0.1-2.3-0.4-3-0.5c-2.5,1.4-2.9,4.6-4.4,6.8c-1.2,2.4-3.6,4.4-3.6,7.2c1.4,3.3,4.6,5.4,5.9,8.8
		c7.8-0.8,15.3-3.1,23.1-3.4c-0.8,1-1.8,1.9-2.9,2.5l0-1.3c-28.7,5.5-57.4,11.2-86.1,16.8c-0.3-1.5-0.5-2.9-0.8-4.4
		c0.1,0.5,0.3,1.5,0.4,2c1.4-0.2,2.7-0.7,3.9-1.2c4.6-7.7,9.5-15.3,14.1-23c1.5-2.8,4.1-4.7,6.4-6.7c4.1-1.5,8.6-1.9,12.9-1.5
		c2.3,0,4.2,2.2,6.5,1.1c2.5-4.6,5.2-9,7.6-13.6c-0.4-0.9-0.8-1.8-1.2-2.7c1.4-0.3,2.3-1.1,2.8-2.3c-1.8-0.4-3.5,0-5.1,0.8
		c3.2-2,6.6-4.1,10.5-3.1c1.3,3,2.9,6.6,6.8,6.7c-0.2-2.9-0.4-6.3-3-8.3c-5.8-4.6-13.6-5.4-20.7-4.8c-3.7,4-8.6,6.6-13.5,9l-0.7,1.2
		c2.3-0.1,4.7-0.2,7,0c-6,0.6-12.1,2-18.1,0.6c-5,1.6-9.7,4.6-14.8,6.2c0,0.6,0,1.9,0.1,2.5c4.9-0.9,9.9-1.4,14.8-0.7
		c0.9,0.5,1.7,1.1,2.5,1.7c4.1-2.2,8.5-3.8,12.9-5.1c4.7-1.4,9.1-3.7,13.9-4.6c-9.5,4.9-18.3,11.7-29.3,12.9
		c-8.4,0.9-16.7,2.8-25.1,2.7c3.8-1.6,8.2-2.8,11.3-5.5c-9-1.3-18.1,0-27.2,0.5c-2.4,0-4.9,0.8-7.2-0.2c3.1-1,6.3-1.5,9.3-2.8
		c-1.8-0.3-3.7-0.4-5.4-1.1c4.3-0.9,8.5-2,12.7-2.9c-3.7-2.3-8.2-3.2-12.2-5c5,0,9.9,0.7,14.9,1c6.3-0.1,12.6-0.5,19-0.6
		c1.4-0.2,3.2,0.3,4.3-0.9c-5.7-1.2-11.6-0.9-17.2-2.6c2.6-0.8,5.3-0.6,7.9-0.3c3.7-0.1,7.3-0.6,11-0.8c-0.3-0.3-1-0.9-1.3-1.2
		c-6.7-1.8-13.6-3.3-20.3-5c-0.1-0.3-0.3-0.8-0.4-1c1.3-0.3,2.7-0.3,4.1-0.1c9.3,1,18.6,1.8,27.9,2.7c3.5,0,6.9-0.2,10.4-0.6l-0.5-1
		C-168.5,334.1-176.6,334.3-183.3,330.9 M-170.6,377.3c-2.9,5.5-7,10.6-9.3,16.4c14.1-2.6,28.1-5.5,42.2-7.8
		c0.5-2.5-2.6-3.1-4.4-3.3c-6.7-0.6-12.3-5.2-15.9-10.7C-162.8,371-168.5,372.6-170.6,377.3z"/>
	<path class="st1" d="M-203.5,386.8c2.4,3.4,1.4,8.2,3.2,12c-7.5,21.1-15.3,42.1-22.7,63.3c0.8-0.3,2.4-0.8,3.2-1
		c-4.1,1.8-8.1,3.6-12.3,5.3C-222.4,439.9-212.9,413.4-203.5,386.8z"/>
	<path class="st1" d="M-151.6,415.3c8.3-5.8,16.4-12,25-17.4c-0.7,2.8-3.7,4.9-2.9,8c1.6,8.3-0.3,16.7,0.7,25
		c-0.1,1.9-0.1,4.3-2.3,4.9c-2.8-3.9-1.3-9.1-1.6-13.5c-1,0.3-2.9,1-3.9,1.4c-0.6-2.1,0.8-5.6-1.3-6.9c0,9.4,0.7,18.8,0.9,28.2
		c0.4,5.8-0.3,11.9,1.9,17.4c-2.3-4.5-4.2-9.1-6.3-13.7c1.2-2.4,0.5-5.2,0.5-7.8c0.2-6.8,1.4-13.5,1.2-20.3
		c-3.4,3.9-5.7,8.7-8.4,13.1c-2.2-5.9-5.1-11.4-7.5-17.2C-154.3,416.3-152.7,416.3-151.6,415.3z"/>
	<path class="st1" d="M-179.8,411.3c6.9-1.7,13.8-3.5,20.7-5.2c-7,5.9-15.7,9.9-22.8,15.6c14.6,17.5,28.6,35.5,43,53.1
		c3.1,3.6,5.9,7.4,8.7,11.2c-1.1-1.2-2.1-2.7-3.7-3.3c3.8,8.9,8.6,17.4,12.1,26.4c-1.2-0.9-2.1-2.1-3.1-3.3
		c-12.3-15.9-25.7-30.9-37.7-47c-1.9,3.4-4.3,6.6-6.4,10c-2.8-1-5.1-3-7.9-4c2.1,4.1,2.2,8.7,1.9,13.1c0.2,1.9-2.6,4-3.8,1.8
		c-1.3-5.2,0.4-10.6,1-15.7c-1.8-1.2-3.7-2.3-5.6-3.3c1.2,5,1,10.2,1.4,15.3c0,3.7,0.7,7.4,0.3,11c-0.3,2.5-3.8,5.1-5.8,2.6
		c-4.5-5-1.1-11.7-0.2-17.4c1.4-4.3,1.5-8.8,1.4-13.2c-6-3.8-12.4-7.1-18.3-11.1c7-12.3,14.3-24.4,21-36.9
		C-182.4,411.1-181.1,411.7-179.8,411.3z"/>
</g>
<g id="_x23_d34a1cff">
	<path class="st0" d="M-152.7,339.2c7.1-0.6,14.9,0.2,20.7,4.8c2.5,2,2.8,5.4,3,8.3c-3.9-0.1-5.4-3.7-6.8-6.7
		c-3.9-0.9-7.4,1.1-10.5,3.1c-0.8,0.5-1.5,0.9-2.3,1.3c-4.8,1-9.2,3.2-13.9,4.6c-4.4,1.3-8.8,2.9-12.9,5.1c-0.8-0.6-1.6-1.2-2.5-1.7
		c-4.9-0.7-9.9-0.2-14.8,0.7c0-0.6,0-1.9-0.1-2.5c5.1-1.6,9.8-4.6,14.8-6.2c6,1.5,12.1,0,18.1-0.6c-2.3-0.3-4.7-0.1-7,0l0.7-1.2
		C-161.4,345.8-156.4,343.2-152.7,339.2z"/>
	<path class="st0" d="M-170.6,377.3c2.1-4.6,7.9-6.3,12.6-5.4c3.6,5.5,9.2,10.1,15.9,10.7c1.8,0.2,5,0.7,4.4,3.3
		c-14.1,2.3-28.1,5.2-42.2,7.8C-177.6,387.9-173.6,382.8-170.6,377.3z"/>
	<path class="st0" d="M-194,400.2c28.7-5.6,57.4-11.3,86.1-16.8l0,1.3c-6.3,4.2-12.4,8.9-18.7,13.2c-8.6,5.5-16.6,11.6-25,17.4
		c-1.1,1-2.7,1-4.1,1.2c2.4,5.8,5.3,11.3,7.5,17.2c2.1,5,4.6,9.9,6.7,14.9c2.1,4.6,3.9,9.2,6.3,13.7c5.2,11.6,9.8,23.5,15.2,35
		c-4-3.1-6.8-7.5-10.2-11.2c-2.7-3.9-5.6-7.6-8.7-11.2c-14.5-17.6-28.5-35.6-43-53.1c7.2-5.7,15.8-9.7,22.8-15.6
		c-6.9,1.7-13.8,3.5-20.7,5.2c-1.3,0.4-2.7-0.2-4-0.4c-6.7,12.5-14,24.6-21,36.9c-1.7,3.1-3.3,6.2-5.3,9.1c-3.2,1.5-6.6,2.7-9.8,4.1
		c-0.8,0.3-2.4,0.8-3.2,1c7.4-21.1,15.3-42.2,22.7-63.3c1.4-3.4,2.2-7.1,3.9-10.3c0.5,2.4,1,4.9,1.5,7.3
		C-194.6,397.2-194.3,398.7-194,400.2z"/>
</g>
</svg>
