<?xml version="1.0" encoding="utf-8"?>
<!-- Generator: Adobe Illustrator 19.0.0, SVG Export Plug-In . SVG Version: 6.00 Build 0)  -->
<svg version="1.1" id="Layer_1" xmlns="http://www.w3.org/2000/svg" xmlns:xlink="http://www.w3.org/1999/xlink" x="0px" y="0px"
	 viewBox="-119.9 320.5 129.6 183.8" style="enable-background:new -119.9 320.5 129.6 183.8;" xml:space="preserve">
<style type="text/css">
	.st0{fill:#DB241C;}
</style>
<g id="_x23_000000ff">
</g>
<g id="_x23_db241cff">
	<path class="st0" d="M-119.9,403c20.7-27.4,41.2-55.1,62-82.5c-0.3,49.1-0.1,98.3-0.2,147.4c-0.1,6.1,0.2,12.2,0.2,18.3
		c-7,0-13.9,0-20.9,0c0-9.2,0-18.4,0-27.6c-6.7,0-13.4,0-20.1,0c0.1,9.2,0,18.4,0,27.6c-7,0-13.9,0-20.9,0
		C-119.8,458.4-119.7,430.7-119.9,403 M-98.9,404c0,11.1,0,22.3,0,33.4c6.7,0,13.4,0,20.1,0c-0.1-19.8,0-39.6,0-59.4
		C-85.5,386.6-92.2,395.3-98.9,404z"/>
	<path class="st0" d="M-50.8,368.4c20,19.7,39.9,39.5,59.7,59.4c-0.1,5.5,0,11,0,16.6c-6.8,0-13.6,0-20.4,0c0-5.6,0-11.1,0-16.7
		c-6.2-5.3-12.4-10.5-18.6-15.7c0,19.9,0,39.8,0,59.7c6.7,0,13.4,0,20.1,0c0-3.1,0-6.2,0-9.4c-3.7,0-7.5,0-11.2,0
		c0-4.3,0-8.6,0-12.9c10.2,0.1,20.3,0.2,30.5,0.3c0.1,12.2,0.2,24.4,0.3,36.7c-20.1-0.1-40.3-0.2-60.4-0.2
		C-50.8,446.9-50.8,407.6-50.8,368.4z"/>
	<path class="st0" d="M-117.3,491.6c2-3.3,6.2-3.3,9.6-3.6c0.3,0.8,0.8,2.3,1.1,3.1c-3.2,0-6.4,0.6-8.6,3c1.2,0.1,2.3,0.3,3.5,0.5
		c0.6-2.2,2.4-2.8,4.4-3.1c0.1,3.6,0.1,7.1,0.1,10.7c-1,0-2.9,0-3.8,0c0-1.5,0-3,0-4.6c-1.4,0-2.8,0-4.2,0.1c0.5,1.5,1.1,3,1.6,4.6
		c-1,0.6-2.1,1.3-3.2,1.9C-118.7,500.3-120,495.4-117.3,491.6z"/>
	<path class="st0" d="M-103.5,488.2c1.3,0,2.6,0,3.8,0c0,3.5,0,7,0,10.5c1.7,0,3.3,0,5,0c-0.4,1.2-0.8,2.4-1.1,3.5
		c-2.6,0-5.1,0-7.6,0C-103.5,497.6-103.5,492.9-103.5,488.2z"/>
	<path class="st0" d="M-92.1,488.2c1.2,0,2.5,0,3.7,0c0,3.5,0,7,0,10.5c1.7,0,3.3,0,5,0c-0.4,1.2-0.7,2.4-1.1,3.6
		c-2.5,0-5.1,0-7.6-0.1C-92.1,497.6-92.1,492.9-92.1,488.2z"/>
	<path class="st0" d="M-70.8,489c2.6-1,5.5-0.6,8.3-0.8c0.3,0.8,0.8,2.3,1,3.1c-2.6,0.4-6-0.7-8,1.5c-0.8,3.4,1.9,5.7,4.8,6.7
		c-0.5-2.3-1.4-4.5-2.1-6.7c1.8,0,3.6-0.1,5.4-0.1c0,3.3,0,6.5,0,9.8c-3.4-0.4-7.6-0.2-9.9-3.3C-73.7,496.3-74.4,491.1-70.8,489z"/>
	<path class="st0" d="M-57,491.9c1.9-3.5,6.2-3.6,9.7-3.8c0.3,0.8,0.8,2.3,1.1,3.1c-3.2,0-6.4,0.6-8.6,3c1.4,0.2,2.8,0.3,4.1,0.5
		c0.1-0.7,0.2-2,0.3-2.7c1.2,0.1,2.5,0.1,3.7,0.2c0,3.4,0,6.7,0,10.1c-1,0-2.9,0-3.8,0c0-1.5,0-3.1,0-4.6c-1.1,0-3.2,0-4.3,0
		c0.5,1.5,1.1,3.1,1.6,4.6c-1,0.7-2.1,1.3-3.1,2C-58.2,500.4-59.6,495.7-57,491.9z"/>
	<path class="st0" d="M-43.1,488.3c1.2,0,2.3,0,3.5,0c1,1.6,2.1,3.1,3.2,4.7c1-1.6,2-3.1,3-4.7c1.2,0,2.4,0,3.6,0c0,4.6,0,9.3,0,14
		c-1.3,0-2.5,0.1-3.8,0.1c0-2.8,0.1-5.6,0-8.4c-1,1.3-1.9,2.6-2.9,3.9c-1-1.3-2-2.7-3.1-4c0.1,2.8,0.2,5.7,0.3,8.5
		c-0.9,0-2.9,0-3.8,0C-43.1,497.6-43.1,492.9-43.1,488.3z"/>
	<path class="st0" d="M-26.3,488.3c2.9,0,5.7,0,8.6-0.1c0.2,0.8,0.7,2.3,0.9,3.1c-1.9,0-3.8,0-5.8,0c0,0.5,0,1.6,0,2.2
		c1.8,0,3.5,0,5.3,0c-0.3,0.8-0.8,2.3-1,3.1c-1.4,0-2.8,0-4.3,0c0,0.6,0,1.9,0.1,2.5c2.1,0,4.1,0,6.2,0c-0.4,1-0.8,2.1-1.2,3.1
		c-2.9,0-5.8,0-8.8,0C-26.3,497.6-26.3,492.9-26.3,488.3z"/>
	<path class="st0" d="M-13.2,488.2c3.4,0.3,7.6-1,10.4,1.4c2,2.5-0.6,5.1-2.2,7c1.3,1.9,2.6,3.7,3.9,5.5c-1,0.7-2,1.5-3,2.2
		c-1.9-2.7-3.6-5.4-5.2-8.3c1.3-1.5,2.5-3,3.8-4.5c-2.8-0.2-5.6-0.3-8.4-0.3C-13.8,490.5-13.4,489-13.2,488.2z"/>
	<path class="st0" d="M2.5,488.6c1.9-0.4,3.9-0.4,5.8-0.5c0.3,0.8,0.7,2.4,1,3.2c-1.6,0.1-3.3,0.2-4.9,0.2c1.8,2.4,4.5,4.3,5.3,7.3
		c-0.1,4.1-5.3,3.1-8,3.6c-0.4-1.1-0.8-2.2-1.1-3.4c1.8,0,3.5-0.1,5.3-0.1c-1.6-2.1-3.6-3.9-4.9-6.2C0,491.3,0.8,489.1,2.5,488.6z"
		/>
	<path class="st0" d="M-13.3,491.8c0.9,0,2.7,0,3.6,0.1c0.1,3.5,0.1,7,0.1,10.4c-0.9,0-2.8,0-3.8,0
		C-13.4,498.8-13.3,495.3-13.3,491.8z"/>
</g>
</svg>
