<?xml version="1.0" encoding="utf-8"?>
<!-- Generator: Adobe Illustrator 19.0.0, SVG Export Plug-In . SVG Version: 6.00 Build 0)  -->
<svg version="1.1" id="Layer_1" xmlns="http://www.w3.org/2000/svg" xmlns:xlink="http://www.w3.org/1999/xlink" x="0px" y="0px"
	 viewBox="-147 270.89 300 300" style="enable-background:new -147 270.89 300 300;" xml:space="preserve">
<style type="text/css">
	.st0{fill:url(#SVGID_1_);}
	.st1{fill:url(#SVGID_2_);}
</style>
<linearGradient id="SVGID_1_" gradientUnits="userSpaceOnUse" x1="-147" y1="420.89" x2="153" y2="420.89">
	<stop  offset="0" style="stop-color:#88BD2A"/>
	<stop  offset="0.5" style="stop-color:#71CD10"/>
	<stop  offset="1" style="stop-color:#60961F"/>
</linearGradient>
<path class="st0" d="M-61.37,359.34c21.53-9.52,43.49-18.08,65.14-27.32c49.15-20.36,98.39-40.52,147.43-61.13h0.52
	c-19.1,48.07-37.74,96.33-56.75,144.44c-8.45-20.79-16.85-41.59-25.18-62.42c11.99-12.48,24.61-24.36,36.26-37.16
	c-1.09,0.6-2.16,1.21-3.21,1.87c-32.92,22.37-65.9,44.68-98.83,67.03C-17.83,376.34-39.51,367.59-61.37,359.34z M-139.13,292.08
	c17.22,42.43,34.43,84.87,51.66,127.3c9.13,22.53,18.43,44.98,27.33,67.6c0.37,0.26,0.81,0.4,1.24,0.56c0.4-1.77,0.8-3.54,1.45-5.23
	c7.75-19.62,15.36-39.3,23.08-58.93c0.68-1.24,0.52-2.65-0.4-3.72c-21.01-31.37-41.93-62.8-62.9-94.2c-1.53-2.23-3.01-4.5-4.32-6.86
	c12.95,12.11,25.24,24.91,38.09,37.14c20.88-8.71,41.96-16.97,62.78-25.81c-46.59-18.52-93.31-36.75-139.93-55.23
	c-1.9-0.79-3.85-1.61-5.95-1.64v1.71l0.49-1.26C-144.33,279.8-141.54,285.86-139.13,292.08z M152.99,568.9
	c-0.81-1.32-1.53-2.69-2.15-4.1c-19.39-47.87-38.69-95.78-58.12-143.64C83.77,399.37,75,377.5,66.23,355.63
	c-0.8,1.42-1.57,2.86-2.16,4.38c-7.95,20.51-16.11,40.94-24.08,61.44c21.63,32.24,43.04,64.63,64.59,96.93
	c1.32,1.96,2.6,3.96,3.77,6.01c-3.4-2.5-6.19-5.7-9.21-8.62c-9.38-9.39-18.86-18.68-28.2-28.1c-21.57,8.35-42.88,17.39-64.44,25.8
	c45.71,18.14,91.65,35.69,137.44,53.65c2.91,1.19,6.01,2.01,8.66,3.77h0.4v-2.24L152.99,568.9z M2.29,457.88
	c-34.16,22.64-68.23,45.41-102.38,68.05c3.23-4.42,7.62-7.79,11.41-11.71c8.2-8.15,16.93-15.84,24.75-24.33
	c-8.39-21.74-17.32-43.29-25.98-64.93c-19.29,48.53-38.01,97.3-57.08,145.92c4.25-1.26,8.3-3.07,12.41-4.73
	c45.36-18.3,90.7-36.64,136.07-54.91c22.23-9.03,44.43-18.13,66.73-26.99C46.34,475.22,24.24,466.73,2.29,457.88z"/>
<g id="_x23_29292aff">
	<radialGradient id="SVGID_2_" cx="3.18" cy="420.84" r="105.13" gradientUnits="userSpaceOnUse">
		<stop  offset="0" style="stop-color:#424245"/>
		<stop  offset="0.5" style="stop-color:#29292A"/>
		<stop  offset="1" style="stop-color:#040402"/>
	</radialGradient>
	<path class="st1" d="M102.84,317.62c1.05-0.66,2.12-1.27,3.21-1.87c-11.65,12.8-24.27,24.68-36.26,37.16
		c8.33,20.83,16.73,41.63,25.18,62.42c-0.78,1.93-1.51,3.88-2.25,5.83C83.77,399.37,75,377.5,66.23,355.63
		c-0.8,1.42-1.57,2.86-2.16,4.38c-7.95,20.51-16.11,40.94-24.08,61.44c21.63,32.24,43.04,64.63,64.59,96.93
		c1.32,1.96,2.6,3.96,3.77,6.01c-3.4-2.5-6.19-5.7-9.21-8.62c-9.38-9.39-18.86-18.68-28.2-28.1c-21.57,8.35-42.88,17.39-64.44,25.8
		c-1.67-0.74-3.34-1.49-5.01-2.23c22.23-9.03,44.43-18.13,66.73-26.99c-21.88-9.03-43.98-17.52-65.93-26.37
		c-34.16,22.64-68.23,45.41-102.38,68.05c3.23-4.42,7.62-7.79,11.41-11.71c8.2-8.15,16.93-15.84,24.75-24.33
		c-8.39-21.74-17.32-43.29-25.98-64.93c0.83-1.85,1.64-3.71,2.44-5.58c9.13,22.53,18.43,44.98,27.33,67.6
		c0.37,0.26,0.81,0.4,1.24,0.56c0.4-1.77,0.8-3.54,1.45-5.23c7.75-19.62,15.36-39.3,23.08-58.93c0.68-1.24,0.52-2.65-0.4-3.72
		c-21.01-31.37-41.93-62.8-62.9-94.2c-1.53-2.23-3.01-4.5-4.32-6.86c12.95,12.11,25.24,24.91,38.09,37.14
		c20.88-8.71,41.96-16.97,62.78-25.81c1.63,0.69,3.25,1.42,4.89,2.09c-21.65,9.24-43.61,17.8-65.14,27.32
		c21.86,8.25,43.54,17,65.38,25.31C36.94,362.3,69.92,339.99,102.84,317.62z"/>
</g>
</svg>
