<?xml version="1.0" encoding="utf-8"?>
<!-- Generator: Adobe Illustrator 19.0.0, SVG Export Plug-In . SVG Version: 6.00 Build 0)  -->
<svg version="1.1" id="Layer_1" xmlns="http://www.w3.org/2000/svg" xmlns:xlink="http://www.w3.org/1999/xlink" x="0px" y="0px"
	 viewBox="-49.4 170.9 493.8 499.4" style="enable-background:new -49.4 170.9 493.8 499.4;" xml:space="preserve">
<style type="text/css">
	.st0{fill:#FFFFFF;}
	.st1{fill:#040404;}
</style>
<g id="_x23_ffffffff">
	<path class="st0" d="M333.6,170.9h57.6c-4.3,0.9-8.8,0.5-13.2,0.6C363.2,171.4,348.4,171.9,333.6,170.9z"/>
</g>
<g id="_x23_040404ff">
	<path class="st1" d="M324,170.9h9.5c14.8,1,29.6,0.6,44.4,0.6c4.4-0.1,8.9,0.3,13.2-0.6H436l-0.7,0c1,6.9,0.3,14,0.5,21
		c-0.2,4.5,0.8,9.2-1.1,13.4c-2.8,6.4-6,12.6-8.3,19.2c-4.1,9.8-9,19.2-12.6,29.1c-4.9,14.9-12.4,28.7-19.1,42.8
		c-4.7,12.2-10.5,23.9-17.3,35.1c-5.7,12.2-11.4,24.4-17.7,36.3c-2.4,4.7-3.3,10.1-6.3,14.6c-3.1,4.4-3.4,10-5.1,14.9
		c-1,3-0.9,7.4,1.9,9.3c14.3,0.4,28.6,0,42.9,0.2c5.4,0.9,10.9-0.1,16.3-0.5c1.1-2.3,2-4.7,2.1-7.3c0.5-11.5-0.4-23,0.1-34.4
		c7.1-0.7,14.3-0.7,21.5-0.8c1.5,0.1,3.2-0.3,4.4,0.8c1.3,2.3,0.8,5,0.9,7.5c-0.1,11.3,0.5,22.7,0.5,34c-0.2,9.6,1.4,19.2,0.6,28.8
		c-23.5-1-46.9,0.9-70.4,0.2c-6,0-12,1.1-18,1.6c-10.8,1.3-21.7-0.8-32.4-2.5c-1.7-13.6-2.9-27.3-2-41c5.3-14.7,13-28.4,19.1-42.7
		c5.3-9.8,10.1-19.9,14.9-30c6.9-14.4,12.5-29.4,19.9-43.6c3.2-5.2,5.2-11,7.9-16.5c6.6-14,12.6-28.3,18.3-42.6
		c1.4-4,3.5-7.7,5.4-11.5c1.2-2.2,0.8-4.7,0.5-7.1c-3.2-0.7-6.5-1-9.8-1c-10.3-0.1-20.5-0.1-30.8,0.3c-1.8,0.1-3.5-0.2-5.2-0.7
		c-1.7,0.9-3.4,1.9-5.2,2.8c-2,6.4-1,13.1-0.5,19.6c-0.2,4.4-0.4,8.9-1.2,13.2c-0.5,1.9-2.7,1.4-4.2,1.5c-7.3-0.2-14.7-0.9-22-0.6
		c-0.4-1.7-0.8-3.5-0.9-5.3c-0.3-18.8-2.1-37.6-2.1-56.4C321.8,171.9,322.9,171.4,324,170.9z"/>
	<path class="st1" d="M-47.3,175.7c3.5-2,7.4,0.2,11.2-0.3c12.7,0.1,25.3,0.2,38,0.6c12.8-1,25.8-0.1,38.6-0.4
		c2.6-0.2,5.9-1.5,7.9,0.7c6,7.2,10.5,15.5,16.3,22.9c2.6,4.3,7.2,8.1,6.6,13.6c-0.7,8.3-2.1,16.6-2,25c-0.1,18.7-0.9,37.4-1.2,56.1
		c-1,10.9-0.3,21.9-0.4,32.9c0.2,8-0.2,16-0.1,24c1,10.7,0.4,21.5,1.5,32.2c0.2,4.9,0.4,9.8,0.3,14.7c-0.5,4.2,0.5,8.7-1.2,12.7
		c-3,5.1-4.3,11-7.9,15.8c-5.1,1.5-8.7,5.5-12.6,8.8c-5.9,0.8-11.9,0-17.8,0.7c-4.3,0.7-8.7-0.5-13-0.3c-9.3,0.8-18.6,0.7-28,0.7
		c-11.9-1-23.9,1.5-35.7-0.8c-1.5-7.4-2.3-15.2-1.5-22.6c4.9-2.3,11.5,2.3,15.8-2.1c0.4-2.3,0.9-4.5,0.7-6.8
		c-1.5-15.3-0.4-30.8-1.4-46.1c0.1-17.7-0.1-35.4-0.4-53c-0.5-18,0.7-35.9,1.5-53.9c0.6-8,1.1-16.1,0.8-24.1c-0.3-6,1-12,0-17.9
		c-0.3-1.5-0.2-3.3-1.6-4.2c-4.5-0.5-9.1-0.1-13.3,1.5c-2-3.4-1.4-7.4-1.4-11.2C-47.5,188.5-47.3,182.1-47.3,175.7 M4.1,204
		c-1.6,0.8-3,2.1-3.6,3.8c-1.3,5.3-0.9,10.7-1.7,16c-0.2,6.7-1.3,13.3-0.6,19.9c-0.9,19.7-0.9,39.4-1,59.1
		c-0.2,11.7,0.5,23.4-0.6,35c1,7.3,0.7,14.7,0.9,22c0.1,11.7,0.7,23.4,0.9,35.1c1.4,5.1-0.4,10.8,1.9,15.7c2.1,3.4,6.4,1.6,9.5,1.4
		c7.6,0.5,15.3,1.6,22.9,0.5c3-0.7,3.8-4.1,3.9-6.7c-0.5-21.7-1-43.4-1.5-65c-0.7-11.6-0.6-23.3,0.1-34.9c-0.2-9-0.5-18.1-0.3-27.1
		c0.5-5.6,1.3-11.3,1.3-16.9c-0.3-8.7,1.5-17.3,1.1-26c-0.7-8.9,1-17.9,0.1-26.9c-0.3-2.2-2.1-3.6-3.6-5c-3.1,0.3-6.2,0.3-9.2,1
		C17.9,205.7,11,204.1,4.1,204z"/>
	<path class="st1" d="M74.3,177.9c0.2-1.7,2.3-2,3.7-2c15.3,1.4,30.7-0.5,46.1,0.6c12,0.6,23.9-0.7,35.9,0
		c9.7,0.3,19.4,0.4,29.1-0.3c1.8-0.2,3.6,0.2,5.4,0.5c0.4,8.1-1.6,16.1-1.4,24.2c-0.7,11.6-2.4,23.3-1.6,34.9
		c-0.1,2.7-1,5.3-1.7,7.8c-8.8,0.4-17.7-1.4-26.6,0c-1-8.6-0.2-17.2-0.5-25.8c0.7-4.6,1.2-9.9-2.4-13.6c-5.8,0.4-11.7,0.6-17.3,1.9
		c-4.9-0.9-10-1.1-14.9-0.4c-2,0.3-4.4,1.1-4.8,3.3c-1.3,6.5-0.5,13.1-1.4,19.6c-1.8,16.3-1,32.8-1.8,49.2
		c-0.3,4.8-1.6,10.2,1.3,14.5c1.3,2.3,4.2,2.2,6.5,2.3c4.7-0.1,9.3,0.1,14-0.1c1.3-0.7,2.3-1.8,3.3-2.8c1.6-5,0.2-10.3,0.9-15.4
		c7.2-1.6,14.6-1.4,21.9-0.6c2.9,0.4,5.9-1.2,8.6,0.4c0.5,8.6-0.3,17.2-1,25.7c-0.2,9.4,0.6,18.7-0.2,28.1
		c-0.3,3.7,1.2,7.8-1.1,11.1c-2.2,1-4.1,2.4-6.4,3.4c-5.5,0-11-0.9-16.5-1.3c-2-0.9-3.2-3.1-5.1-4.3c-0.7-3.2-1.2-6.4-1.1-9.6
		c-2.4-1.1-4.8-2.1-7.1-3.2c-6,1.3-13.8-1.5-18.2,4c-0.7,3.9,0.3,8,0.2,12c-0.8,14.7,0.9,29.3,1.3,44c0.4,8.4-0.6,17.2,2.3,25.3
		c3.9,3.1,8.9,1.5,13.3,0.9c6,0.2,12,0.6,18,0.9c2.3,0.1,4.4-1,6.4-1.9c0.8-6.7,0.8-13.5,1.2-20.3c0-4.4-0.9-8.8-0.9-13.3
		c4-2.6,8.9-0.6,13.3-0.7c5.2-0.9,10.4-0.1,15.6-0.5c1.5,4,0.6,8.3,0.9,12.5c-0.1,9.4,0.8,18.7,0.3,28c0.1,6.3,2,12.8-0.5,18.9
		c-5.6-1.4-10.7,2.3-16.2,1.6c-14,0.9-28-0.7-42,0.1c-14.7-0.1-29.4-0.1-44,0.5c-4.5,0.1-8.8-1.4-13.3-1.9c-1.9-3.4-1.9-7.4-2-11.2
		c0.1-3.9-1.6-7.8-0.2-11.7c4.9-0.2,9.7,0.4,14.6,0.1c1.4-0.3,2.3-1.4,3.1-2.4c0.9-7.9-0.1-15.9,0-23.9c0.3-6-0.8-12-0.1-18.1
		c-0.8-10.3,0.2-20.8-1.5-31c0.2-15-0.5-30-0.1-44.9c0.6-16,0.4-32.1,2-48.1c0.2-5,0.3-10,0.7-15c-0.8-7,0.7-14.1-0.2-21.1
		c-0.5-2.3-2.3-5.1-5-4.5c-4,1.3-8.5,3-12.6,1.1c-1.4-4.6-1.2-9.7-0.6-14.4C74.4,186.6,73.8,182.2,74.3,177.9z"/>
	<path class="st1" d="M195.7,176.9c1.7-1.6,4.3-0.7,6.4-0.8c12,0.8,24-0.2,35.9,0c11.3,0.7,22.6,0.5,33.9,0.1
		c11.3,0.2,22.7,0.8,34,0.2c3.3-0.1,6.7-0.8,9.8,0.6c-0.2,8.3-1.7,16.6-1.6,24.9c-0.8,9.6-1.7,19.3-1.9,29c0.6,4.2-0.1,8.3-1.2,12.4
		c-3,0.9-6.2,0.3-9.2,0.2c-5.9-0.5-11.8-0.5-17.6,0.3c-1.2-8.6,0.1-17.3-0.5-25.9c0.6-4.4,1.1-9.4-1.9-13.1c-6-0.6-12.1,0.5-18,1.5
		c-5.3-0.9-10.8-1.3-16.1-0.1c-1.6,0.2-3,1.3-3.5,2.9c-0.9,5.9-0.9,11.9-1.2,17.8c-2.1,17-1.2,34.2-2,51.3
		c-0.4,4.8-1.5,10.1,1.2,14.4c1.6,2.5,4.9,2.2,7.5,2.3c4.3-0.1,8.6,0.1,12.8-0.1c2.2-1,4.2-3,4.2-5.6c0.5-4.2-0.1-8.5,0.2-12.7
		c7.5-1.5,15.3-1.5,22.8-0.3c2.4-0.1,6.4-2,7.6,0.9c0.6,8.3-0.3,16.7-1,25c-0.2,9.4,0.6,18.7-0.2,28c-0.4,3.5,1.3,7.4-0.8,10.5
		c-2.1,1.6-4.4,2.8-6.7,3.9c-5.5-0.1-11-0.9-16.5-1.4c-1.9-1.1-3.3-3.1-5.1-4.4c-0.5-3.2-1-6.5-1.2-9.7c-3.1-0.8-5.8-3.4-9.2-2.7
		c-5.5,0.6-12.7-1.1-16.4,4.3c0.7,6.8,0.7,13.6,0.5,20.4c0.2,14.7,1.6,29.3,1.6,43.9c-0.1,5.6,0.6,11.1,2,16.5
		c3.8,2.2,8.2,1.8,12.3,0.8c6.7-0.1,13.4,0.6,20.1,0.9c1.8-0.4,3.6-1.1,5.3-1.8c1.1-6.4,0.8-12.9,1.2-19.3c0.3-4.7-1-9.4-0.7-14.1
		c3-3.1,8.1-0.9,12-0.9c5.7-0.7,11.5-0.3,17.2-0.4c0.6,10,0.2,20.1,0.7,30.1c0.8,4.3-0.5,8.7,0.1,13c0.5,5.4,1.3,10.9-0.6,16.1
		c-4.6-1.1-8.8,1.1-13.3,1.6c-7.7,0-15.4,0.6-23,0.1c-10.7-0.7-21.4,0.3-32-0.2c-11,0.3-22,0-33,0.6c-4.9,0.3-9.6-1.2-14.4-2
		c-1.4-3.5-1.8-7.3-1.8-11.1c0-3.9-1.4-7.8-0.2-11.7c4.8-0.2,9.7,0.4,14.5,0.1c1.6-0.2,2.4-1.6,3.4-2.6c0.4-9.9-0.4-19.8-0.2-29.8
		c-0.8-5.3,0.2-10.6-0.2-15.9c-0.8-9,0.2-18.1-1.4-27c0.2-18.4-0.8-36.7,0.4-55.1c-0.4-17.7,1.6-35.3,2.2-53
		c-0.5-6.3,0.4-12.7,0-19.1c0.1-2.5-1-5.4-3.5-6.4c-1.5-0.6-3.1,0.3-4.5,0.7c-3.3,1.1-7,1.7-10.3,0.1c-0.2-4.1-1.2-8.3-0.3-12.4
		C195.8,187.6,194.5,182.1,195.7,176.9z"/>
	<path class="st1" d="M82.8,457.7c11.1-0.6,22.1,0.8,33.2,0.5c7.4-0.8,15.1-1.2,22.5,0.3c-0.1,7,0.2,13.9-0.1,20.9
		c-4.8,1.4-9.9,1-14.8,2.2c-0.2,5.8,1,11.6,0.4,17.4c1.2,19.6,0.2,39.3,0.7,59c0.4,12.7-1,25.3-0.2,38c0,11-0.1,22-0.5,33
		c-0.1,5.4-1.1,11.3,1.2,16.4c7.1,1.6,14.6,0.7,21.9,0.7c8.7-1.1,17.4,0.8,26.1-0.2c3.3-0.2,3.6-4.4,4-6.9c0.3-9.6-0.4-19.3,0.6-29
		c-0.5-15,0.7-30.1,0.4-45.1c-0.6-9.3-0.4-18.7-0.4-28c1.2-9.6-0.4-19.2,0.5-28.8c0.2-9.6-0.1-19.2-2-28.6c-4.2-0.2-8.4,0.3-12.5,0
		c-1-5.2-1.8-10.4-2.3-15.6c-0.1-2-1.7-4.7,0.6-6c16.6-0.5,33.3,0.7,49.9-0.4c2.5-0.2,3.9,2.3,3.6,4.4c-0.2,5.9,1,11.8-0.1,17.7
		c-4,0.3-7.8-1.7-11.8-1.2c-1.4,4.8-0.1,9.8-0.9,14.6c0.7,20.3,1,40.6,0.9,60.9c-0.7,10.3-0.2,20.7-0.6,31.1c-1.1,6,0.6,12-0.2,18
		c-0.3,6,0.1,12.1-0.2,18.1c-0.6,6.6,0.3,13.3-0.8,19.9c0.1,3.4-1.9,6.2-4.2,8.5c-5.4,5.4-9.1,12.3-14.8,17.3
		c-7.7,4.8-17.2,3.1-25.7,3.5c-12.9-0.4-25.8-1.7-38.8-2.3c-4.1-2.8-5.9-7.7-9-11.4c-3.1-4.5-7.5-7.7-11.1-11.7
		c-1.4-11.3-0.6-22.7-0.6-34c-0.9-16.7-0.2-33.4,0.6-50.1c-0.8-9.3-0.4-18.6-0.4-27.9c0.1-12.7-0.5-25.3-0.3-38
		c0.3-4.8-0.7-9.5-1.1-14.2c-4-0.4-7.8-2.1-11.9-1.2C82.9,472.4,81.5,464.8,82.8,457.7z"/>
	<path class="st1" d="M221.6,460.3c2.5-2.6,6.2-2,9.3-1.3c6.7-0.2,13.4-0.5,20,0.1c10.7,0.1,21.4-0.3,32,0.5
		c12.6-1.2,25.4-0.1,38-0.2c6,0.1,11.9-0.3,17.9,0c1.5,0.2,3.5-0.1,4.1,1.7c0.8,15.3,0.8,30.6,1.4,46c0.2,1.5-0.4,2.9-0.8,4.3
		c-7.3,0.2-14.7,0.7-22,0.1c-1.7-8.8-0.5-17.8-1.5-26.7c-0.2-2.4-2.5-3.6-4-5c-6.5,0.8-13.6-0.5-19.4,3.1c-0.4,3.3-0.3,6.7-0.1,10.1
		c1.1,13.6,0.7,27.3,1.1,40.9c0.5,11.4-1,22.7-0.2,34.1c-0.6,8,0.6,16-0.1,24c-0.2,12.3,0.3,24.7-0.7,37c0.3,6.1-1.4,12.8,2.3,18.3
		c4.3,0.8,8.6-0.2,12.8,0.1c1.8,0.6,1.4,3,1.4,4.5c-0.5,5.5-0.9,10.9-2,16.3c-9.3,2.1-18.9,0.7-28.4,1.3c-7.6-0.9-15.3-1.4-23-1.3
		c-1.2,0.1-2.2-0.5-3.2-0.9c0-6.7-0.3-13.3-0.2-20c4.5-1.4,9.4,1,13.8-1c3.4-2.4,1.7-7,2.7-10.4c-1.1-8.3,0.4-16.6,0.1-24.9
		c-0.6-10.6,0.6-21.3-0.1-31.9c-0.1-15-0.5-30-0.2-45c-1.4-17.3,0.1-34.7-2-51.9c-0.2-0.2-0.7-0.6-0.9-0.8c-7,0.1-14,0.1-21,0.6
		c-1.9,1-1.4,3.3-1.5,5c0.7,7.8,0.2,15.7-0.3,23.5c-6,1.2-12.2,0.7-18.2,0.7c-1.7-0.1-4.5,0.2-4.5-2.2c-0.9-11.3-0.9-22.6-2.1-33.8
		C221.6,470.2,220.7,465.1,221.6,460.3z"/>
	<path class="st1" d="M368.5,460.7c3.4-1,7-0.4,10.5-0.5c12.4,0,24.7-0.7,37-0.5c3,0.3,6.6-0.9,9,1.4c3.9,3.3,7.4,7.1,10.4,11.3
		c1.9,2.8,5.3,4.2,6.8,7.3c1.5,2.1,0.9,4.7,1,7.1c0.3,7.7,0.1,15.4,0.5,23.1c-0.9,1.7-2.8,2.4-4.3,3.3c-5.6,0.2-11.3,0-16.9,0.9
		c-1.3-1.9-2.9-3.7-3.7-5.8c-0.3-7.1-1.4-14.2-1.2-21.4c0.4-3.1-2.7-5.2-4.9-6.7c-10.4-2.2-21.1-1.2-31.7-1c-1.5,0.2-4-0.3-4.4,1.7
		c-2,11.2,0,22.6,0,33.9c-0.1,6,0.6,12,1.1,18c0.3,2.3,1.8,5,4.4,5c9.6,1.4,19.1,3.5,28.5,5.9c7,2.8,14.8,3.3,21.9,5.7
		c4.3,6.6,12.4,11.8,11.9,20.5c-0.3,19.3,0,38.7-0.1,58c0.2,5.7,0.1,11.5-1.2,17.1c-1.3,2.8-3.8,4.9-5.6,7.4
		c-3.4,4.9-7.4,9.4-10.4,14.5c-0.7,1.4-2.5,1.3-3.8,1.5c-8.7,0.5-17.4-0.1-26.1,0.7c-5.4,0.4-10.7-0.5-16.1-0.6
		c-3.6-0.3-7.5,0-10.9-1.5c-2.5-2.2-4-5.3-6-7.9c-2.8-4.6-6.7-8.5-9.6-13.1c-2.1-9.8-0.6-19.8-1-29.7c7.7-0.1,15.4-0.2,23.1-0.1
		c1.3,8.9,0.1,18,1,27c0.2,1.3,0.9,2.4,1.4,3.6c12,0.5,24.1,0.5,36.1,0.4c2,0.2,3-1.9,3.7-3.4c1-4.9,0.4-9.9,0.5-14.8
		c0.5-17.7,0.5-35.3,0.1-53c0.3-3.6-3.2-5.1-5.8-6.6c-1.6-1.2-3.5-1.3-5.4-1.7c-6.1-1.1-12-2.9-17.9-4.8c-7.5-1.4-15.3-1.9-22.3-5.2
		c-0.6,0.2-1.7,0.6-2.3,0.8c-2.7-3.3-4.8-7.2-7.7-10.4c-1.8-2-4.2-4.1-4.4-7c-0.1-8-0.3-16-0.5-24.1c-0.9-10,0.6-20.1-1-30.1
		c-1.1-4.4,2-8.1,4.5-11.3c2.6-2.8,4.3-6.3,6.7-9.3C365,464.3,365.9,461.5,368.5,460.7z"/>
	<path class="st1" d="M39,462.8c10-0.3,20,0.2,29.9-0.4c1.9-0.1,3.8,0.2,5.7,0.6c0.9,6.7,1.4,13.6,0.7,20.4
		c-3.8,1.2-7.8,0.7-11.7,1.2c0.4,16.5,1.5,33,1.2,49.5c-0.1,7,1.1,14,0.1,21c0.9,6.7-0.1,13.3,0.4,20c0.3,5.7-0.6,11.3-0.6,17
		c0,9-0.2,18,0.6,27c-1.2,10-0.9,20-0.9,30c0.7,6.7-0.1,13.4-1.1,20c-5.9,1.6-12,1.3-18,1c-2.5,0-5.5-1.1-6.2-3.7
		c-5-15.6-10.3-31.1-14.7-46.9c-4.5-16.6-9.8-32.9-14.5-49.4c-3.7-9.8-6.6-19.9-8.8-30.2c-1.3-4.3-2.7-8.6-4.4-12.8
		c-0.5-1.7-2.4-3.6-4.3-2.8c-2.6,2.7-0.8,6.5-1,9.8c0.1,14.3,0.6,28.6,0.2,42.9c-0.6,18.4,1.1,36.8-0.8,55.1
		c0.2,5.3-1.1,11,1.1,16.1c3.4,1.6,7.2,1.1,10.8,1.1c0.9,6.9-0.7,13.8-1.2,20.6c-3.1,0.6-6.2-0.2-9.4-0.3
		c-12.8-0.8-25.6-0.4-38.4,0.1c-0.4-6.3-0.1-12.6,0-18.9c1.3-2.2,4.2-1.1,6.3-1.1c2.8,0.5,5.7-1,7.4-3.2c0.9-3.4,0-7,0.4-10.5
		c0-8.7,0.7-17.3,1-26c-0.9-10.6,0.3-21.4-0.9-32c-0.4-6.7,0.7-13.4,0.2-20.1c0.7-12.3,0.5-24.7-0.5-37c0.5-8.3,0-16.7-0.5-25
		c-0.2-3.8,0.8-8.3-2-11.3c-3.7-2.2-8.2-0.9-12.3-1.2c-1-5.2-1.5-10.4-2.1-15.6c-0.3-1.9,0.3-3.7,0.8-5.4
		c11.5,0.3,22.9-0.2,34.4,0.2c3.8,0.3,7.8,0.4,11.4,2c3,5.5,3.8,11.8,6.3,17.5c1,2.3,2.3,4.5,2.8,7c1.3,5.8,3.9,11.1,5.8,16.7
		c3.8,11.3,7.6,22.6,11.7,33.8c1.9,7,3.1,14.3,6.4,20.9c1.9,6.2,4.3,12.2,6,18.4c0.7,1.8,2.9,0.6,4.2,0.2c0.9-8,0.1-16.1,0.5-24.2
		c0.4-5.3-0.2-10.7-0.3-16c0.1-7.3,0.4-14.6,0.1-21.9c-1.1-10.8,0.2-21.6-1.7-32.3c-4.6-0.5-9.4-0.5-13.9-1.8
		c-0.7-6.7-2.1-13.4-1.2-20.2C29.1,461.9,34.1,463,39,462.8z"/>
</g>
</svg>
