<?xml version="1.0" encoding="utf-8"?>
<!-- Generator: Adobe Illustrator 19.0.0, SVG Export Plug-In . SVG Version: 6.00 Build 0)  -->
<svg version="1.1" id="Layer_1" xmlns="http://www.w3.org/2000/svg" xmlns:xlink="http://www.w3.org/1999/xlink" x="0px" y="0px"
	 viewBox="-198.45 359.94 102.94 121.05" style="enable-background:new -198.45 359.94 102.94 121.05;" xml:space="preserve">
<style type="text/css">
	.st0{fill:#D1D2D4;}
	.st1{fill:#CA3E2C;}
	.st2{fill:url(#SVGID_1_);}
	.st3{fill:url(#SVGID_2_);}
	.st4{fill:url(#SVGID_3_);}
</style>
<g id="_x23_d1d2d4ff">
	<path class="st0" d="M-175.63,393.09c1.7,0.98,4.03,1.2,4.07,2.54c-0.05,8.63,0.03,22.311,0,30.931c-23.29,10.579,0,0-23.29,10.579
		c0.04-1.38,0.07-2.76,0.09-4.13c5.23-2.44,10.56-4.65,15.81-7.05c1.22-0.76,3.3-1.26,3.22-3.06
		C-175.32,412.97-175.78,403.02-175.63,393.09z"/>
	<path class="st0" d="M-99.43,401.35c1.27,0.84,2.56,1.65,3.87,2.43c0.03,11.11-0.06,22.21,0.05,33.32
		c-33.06,14.77-66.18,29.42-99.36,43.89c0.04-1.37,0.07-2.74,0.07-4.11c30.4-13.59,60.431-27.419,90.901-40.829
		c1.21-0.59,2.869-0.741,4.079-1.351C-99.13,423.6-99.95,412.46-99.43,401.35z"/>
</g>
<g id="_x23_ca3e2cff">
	<path class="st1" d="M-174.05,359.94c74.62,41.41,0,0,74.62,41.41c0,33.35,0,0,0,33.35c-98.89,43.51-0.39,0-95.37,42.18
		c-1.16,0.48-2.33,0.92-3.52,1.33c-0.21-9.78-0.11-19.56-0.08-29.33c4.852-2.471,64.4-30.97,65.68-31.72
		c-12.51-7.21-25.52-13.56-37.86-21.05c-1.64-1.08-3.35-2.04-5.05-3.02c0,33.534,0,1.27-0.001,31.549
		c-22.59,11.021-0.099,0-22.689,11.021c-0.24-16.5,0.05-38.642-0.07-55.152C-174.05,359.94-198.39,380.508-174.05,359.94z"/>
</g>
<g>
	<linearGradient id="SVGID_1_" gradientUnits="userSpaceOnUse" x1="-183.6771" y1="433.0782" x2="-193.1108" y2="379.5775">
		<stop  offset="0" style="stop-color:#E7462E"/>
		<stop  offset="0.8" style="stop-color:#9F3026"/>
	</linearGradient>
	<polygon class="st2" points="-175.63,393.09 -198.39,380.508 -198.32,435.66 -175.631,424.639 	"/>
</g>
<linearGradient id="SVGID_2_" gradientUnits="userSpaceOnUse" x1="-102.2845" y1="437.5546" x2="-178.8604" y2="360.9788">
	<stop  offset="0.1" style="stop-color:#A93328"/>
	<stop  offset="0.1805" style="stop-color:#B53729"/>
	<stop  offset="0.3783" style="stop-color:#CD3E2C"/>
	<stop  offset="0.5" style="stop-color:#D6412D"/>
	<stop  offset="0.6126" style="stop-color:#CD3E2C"/>
	<stop  offset="0.7956" style="stop-color:#B53729"/>
	<stop  offset="0.9" style="stop-color:#A43227"/>
</linearGradient>
<polygon class="st3" points="-198.39,380.508 -132.72,417.16 -99.43,434.7 -99.43,401.35 -174.05,359.94 "/>
<linearGradient id="SVGID_3_" gradientUnits="userSpaceOnUse" x1="-201.7391" y1="472.288" x2="-108.7311" y2="418.5898">
	<stop  offset="0" style="stop-color:#E7462E"/>
	<stop  offset="0.2152" style="stop-color:#DE432D"/>
	<stop  offset="0.566" style="stop-color:#C63C2A"/>
	<stop  offset="1" style="stop-color:#9F3026"/>
</linearGradient>
<polygon class="st4" points="-198.4,448.88 -132.72,417.16 -99.43,434.7 -198.32,478.21 "/>
</svg>
