<?xml version="1.0" encoding="utf-8"?>
<!-- Generator: Adobe Illustrator 19.0.0, SVG Export Plug-In . SVG Version: 6.00 Build 0)  -->
<svg version="1.1" id="Layer_1" xmlns="http://www.w3.org/2000/svg" xmlns:xlink="http://www.w3.org/1999/xlink" x="0px" y="0px"
	 viewBox="78 351.9 749 139" style="enable-background:new 78 351.9 749 139;" xml:space="preserve">
<style type="text/css">
	.st0{fill:#1F1F1F;}
</style>
<g id="_x23_1f1f1fff">
	<path class="st0" d="M78,351.9h137c0,46.3,0,92.7,0,139H78V351.9 M103,377.9c0,29,0,58,0,87c19,0,38,0,57,0c0-9.3,0-18.7,0-28
		c9.7,0,19.3,0,29,0c0-19.7,0-39.3,0-59C160.3,377.9,131.7,377.9,103,377.9z"/>
	<path class="st0" d="M245,351.9h26c0,37.7,0,75.3,0,113c28,0,56,0,84,0c0-37.7,0-75.3,0-113h26c0,46.3,0,92.7,0,139H245
		C245,444.6,245,398.2,245,351.9z"/>
	<path class="st0" d="M412,351.9h136c0,8.7,0,17.3,0,26c-45.3,0-90.6,0-136,0C412,369.2,412,360.6,412,351.9z"/>
	<path class="st0" d="M579,351.9h137c0,8.7,0,17.3,0,26c-37,0-74,0-111,0c0,10,0,20,0,30c37,0,74,0,111,0c0,27.7,0,55.3,0,83H579
		c0-8.7,0-17.3,0-26c36.6,0,73.3,0,110,0c0-10,0-20,0-30c-36.7,0-73.3,0-110,0C579,407.2,579,379.6,579,351.9z"/>
	<path class="st0" d="M746,351.9h26c0,9.3,0,18.7,0,28c18.3,0,36.7,0,55,0c0,9,0,18,0,27c-18.3,0-36.7,0-55,0c0,19.3,0,38.6,0,58
		c18.3,0,36.7,0,55,0c0,8.7,0,17.3,0,26h-81C746,444.6,746,398.2,746,351.9z"/>
	<path class="st0" d="M412,407.9c45.3,0,90.7,0,136,0c0,9,0,18,0,27c-45.3,0-90.7,0-136,0C412,425.9,412,416.9,412,407.9z"/>
	<path class="st0" d="M412,464.9c45.3,0,90.6,0,136,0c0,8.7,0,17.3,0,26H412C412,482.2,412,473.6,412,464.9z"/>
</g>
</svg>
