<?xml version="1.0" encoding="utf-8"?>
<!-- Generator: Adobe Illustrator 19.0.0, SVG Export Plug-In . SVG Version: 6.00 Build 0)  -->
<svg version="1.1" id="Layer_1" xmlns="http://www.w3.org/2000/svg" xmlns:xlink="http://www.w3.org/1999/xlink" x="0px" y="0px"
	 viewBox="26.6 230.9 343.3 391.9" style="enable-background:new 26.6 230.9 343.3 391.9;" xml:space="preserve">
<style type="text/css">
	.st0{fill:#BA2026;}
	.st1{fill:#FFFFFF;}
</style>
<g id="_x23_ba2026ff">
	<path class="st0" d="M132.6,288.4c21.6-14.4,43-29,64.5-43.6c21.4,14.3,42.8,28.5,64.1,42.9c14,57.1,28.5,114.1,42.5,171.1
		c-7.1,13.5-13.7,27.4-20.6,41c9.8-10.9,19.2-22.1,28.9-33c14.3,7.2,28.7,14.3,42.9,21.6c-2,13.9-4.1,27.7-6.1,41.6
		c-44.3,0.2-88.5,0.1-132.8,0c0.6-2.9,1.3-6,2.9-8.6c16.5-20.7,33.1-41.4,49.6-62.2c1.3-1.6-0.4-3.5-0.7-5.2
		c-8.7-27-17.6-53.9-26.1-80.9c-14.6-4-29.1-8.3-43.7-12.5c-1.7-0.7-3.4,0.2-5.1,0.7c-12.8,4.1-25.7,7.6-38.4,11.7
		c-10.3,28.4-20.1,57-30,85.5c16.8,20.5,33,41.4,49.7,62c2.1,2.5,2.6,5.9,3.7,8.8c-44.2,0.1-88.4-0.1-132.6,0.1
		c-2.2-13.7-4-27.5-6.1-41.2c14.3-7,28.4-14.3,42.7-21.3c9.9,11.3,19.6,22.8,29.7,33.9c-7.1-14-14.1-28.1-21-42.2
		c0.5-5.1,2.5-10,3.4-15C106.9,392.1,119.5,340.2,132.6,288.4 M196.5,290.9c-2.6,6.3-5.6,12.4-8.8,18.4c-6.3,0.5-12.5,1.7-18.8,2.6
		c4.3,4.9,9.1,9.4,13.7,14.1c-1,6.7-2,13.3-3.2,19.9c6-2.5,11.7-5.6,17.6-8.4c5.6,2.5,11,5.6,16.6,8.2c-1-6.5-2-13.1-3.2-19.6
		c4.7-4.6,9.3-9.3,13.8-14.1c-6.3-1-12.6-1.9-18.9-2.7C202.2,303.2,199.8,296.8,196.5,290.9z"/>
	<path class="st0" d="M58.8,589.8c51.7-0.6,103.5,0.2,155.2-0.5c41.7,0,83.4,0,125.1,0c-3,1.2-6.2,1.5-9.3,2.1
		c-43.4,6.4-86.7,13-130,19.4c-9.4,0.2-18.6-2.6-27.9-3.5c-33-5-66-9.9-99-14.8C68.2,591.7,63.2,591.6,58.8,589.8z"/>
</g>
<g id="_x23_ba2026ff_1_">
	<path class="st0" d="M285.4,533.3c-25.5,0-50.5-0.1-69.5-0.1l-3.7,0l0.9-4c0.6-3,1.4-6.3,3.3-9.3l0.1-0.1l0.1-0.1
		c7.9-10,15.9-20,23.9-29.9c8.5-10.6,17-21.3,25.5-31.9c-0.1-0.3-0.2-0.6-0.3-0.9c-0.2-0.6-0.5-1.2-0.7-2
		c-2.9-9.1-5.9-18.2-8.8-27.2c-5.5-17-11.3-34.6-16.7-52c-10.6-2.9-21.4-6-31.7-9c-3.5-1-6.9-2-10.4-3l-0.1,0l-0.1-0.1
		c0,0-0.1,0-0.2,0c-0.4,0-1.1,0.2-1.8,0.5c-0.4,0.1-0.8,0.3-1.2,0.4c-5.8,1.8-11.8,3.6-17.5,5.3c-6.4,1.9-13,3.8-19.4,5.9
		c-7.5,20.7-14.8,41.8-21.9,62.2c-2.4,6.8-4.7,13.6-7.1,20.4c9.2,11.2,18.3,22.7,27.2,33.9c7,8.8,14.3,17.9,21.5,26.8
		c1.8,2.2,2.6,4.8,3.4,7.2c0.3,0.9,0.5,1.7,0.8,2.5l1.6,4.1l-4.3,0c-10.8,0-21.7,0-32.5,0c-11,0-22,0-32.9,0c-11,0-22,0-32.9,0
		c-11.4,0-22.8,0-34.2,0.1l-2.6,0l-0.4-2.5c-1.2-7.7-2.4-15.5-3.5-23.1c-0.9-6-1.8-12.1-2.7-18.2l-0.3-2.2l2-1
		c7.4-3.6,14.8-7.4,22-11c6.8-3.4,13.7-6.9,20.6-10.3l2.1-1l1.5,1.7c3.9,4.4,7.7,8.8,11.5,13.1c1,1.1,2,2.3,3,3.4
		c-3.7-7.4-7.2-14.5-10.7-21.6l-0.4-0.8l0.1-0.9c0.3-3.2,1.2-6.3,2-9.3c0.6-2.1,1.1-4,1.5-6l0-0.2c5-20.2,10.1-40.8,15-60.7
		c7.7-31.1,15.6-63.2,23.6-94.8l0.3-1.1l1-0.6c20.9-14,42.1-28.4,62.6-42.3l3.5-2.4l1.7,1.1c7.8,5.2,15.5,10.4,23.3,15.5
		c13.4,8.9,27.3,18.2,40.9,27.4l1,0.6l0.3,1.1c7.5,30.5,15.2,61.5,22.7,91.4c6.5,26.1,13.3,53.1,19.8,79.7l0.3,1.1l-0.5,1
		c-3.5,6.6-6.9,13.5-10.2,20.1c0,0,0.1-0.1,0.1-0.1c4.4-5.1,8.9-10.3,13.5-15.4l1.5-1.7l2.1,1c5.7,2.9,11.3,5.7,17,8.5
		c8.5,4.3,17.3,8.6,25.9,13.1l1.9,1l-0.3,2.1c-1,6.6-2,13.2-2.9,19.9c-1.1,7.2-2.2,14.5-3.2,21.8l-0.4,2.6l-2.6,0
		C329.1,533.2,308.4,533.3,285.4,533.3z M174.9,314c1.9,2,3.9,4,5.8,5.9c1.3,1.3,2.7,2.7,4,4l1.1,1.1c0,0-0.7,4.3-0.9,5.7
		c-0.5,3.3-1,6.8-1.6,10.2c2.2-1.1,4.4-2.2,6.6-3.2c1.9-1,3.8-1.9,5.7-2.8l1.2-0.6l1.3,0.6c3.2,1.4,6.4,3,9.5,4.6
		c0.7,0.4,1.4,0.7,2.1,1.1c-0.7-4.6-1.5-9.2-2.3-13.8l-0.3-1.6l1.1-1.1c3.7-3.6,6.8-6.8,9.8-9.8c-4.4-0.6-8.8-1.3-13.2-1.8l-1.6-0.2
		l-0.7-1.5c-1.2-2.4-2.2-4.8-3.3-7.2c-0.8-1.8-1.6-3.7-2.5-5.5c-2,4.4-4.2,8.7-6.4,12.8l-0.8,1.4l-1.6,0.1
		C183.6,312.7,179.2,313.3,174.9,314z"/>
	<path class="st0" d="M132.6,288.4c21.6-14.4,43-29,64.5-43.6c21.4,14.3,42.8,28.5,64.1,42.9c14,57.1,28.5,114.1,42.5,171.1
		c-7.1,13.5-13.7,27.4-20.6,41c9.8-10.9,19.2-22.1,28.9-33c14.3,7.2,28.7,14.3,42.9,21.6c-2,13.9-4.1,27.7-6.1,41.6
		c-44.3,0.2-88.5,0.1-132.8,0c0.6-2.9,1.3-6,2.9-8.6c16.5-20.7,33.1-41.4,49.6-62.2c1.3-1.6-0.4-3.5-0.7-5.2
		c-8.7-27-17.6-53.9-26.1-80.9c-14.6-4-29.1-8.3-43.7-12.5c-1.7-0.7-3.4,0.2-5.1,0.7c-12.8,4.1-25.7,7.6-38.4,11.7
		c-10.3,28.4-20.1,57-30,85.5c16.8,20.5,33,41.4,49.7,62c2.1,2.5,2.6,5.9,3.7,8.8c-44.2,0.1-88.4-0.1-132.6,0.1
		c-2.2-13.7-4-27.5-6.1-41.2c14.3-7,28.4-14.3,42.7-21.3c9.9,11.3,19.6,22.8,29.7,33.9c-7.1-14-14.1-28.1-21-42.2
		c0.5-5.1,2.5-10,3.4-15C106.9,392.1,119.5,340.2,132.6,288.4 M196.5,290.9c-2.6,6.3-5.6,12.4-8.8,18.4c-6.3,0.5-12.5,1.7-18.8,2.6
		c4.3,4.9,9.1,9.4,13.7,14.1c-1,6.7-2,13.3-3.2,19.9c6-2.5,11.7-5.6,17.6-8.4c5.6,2.5,11,5.6,16.6,8.2c-1-6.5-2-13.1-3.2-19.6
		c4.7-4.6,9.3-9.3,13.8-14.1c-6.3-1-12.6-1.9-18.9-2.7C202.2,303.2,199.8,296.8,196.5,290.9z"/>
	<path class="st0" d="M199,613.8c-5.7,0-11.4-1-16.8-1.9c-3.5-0.6-7.1-1.2-10.6-1.6l-0.2,0c-17.7-2.7-35.7-5.4-53-8
		c-15.3-2.3-30.7-4.6-46-6.9c-1.5-0.3-2.9-0.4-4.3-0.6c-3.4-0.4-7-0.9-10.4-2.2l1.1-5.8c14.8-0.2,30.6-0.2,51.4-0.2
		c8.4,0,16.8,0,25.1,0c8.4,0,16.7,0,25.1,0c14.6,0,34,0,53.6-0.3l72,0c17.7,0,35.4,0,53.2,0l1.2,5.8c-2.7,1.1-5.4,1.6-8.1,2
		c-0.6,0.1-1.2,0.2-1.9,0.3c-21,3.1-41.9,6.2-62.7,9.4c-22.5,3.4-44.9,6.7-67.4,10l-0.2,0C200.1,613.8,199.3,613.8,199,613.8z"/>
	<path class="st0" d="M58.8,589.8c51.7-0.6,103.5,0.2,155.2-0.5c41.7,0,83.4,0,125.1,0c-3,1.2-6.2,1.5-9.3,2.1
		c-43.4,6.4-86.7,13-130,19.4c-9.4,0.2-18.6-2.6-27.9-3.5c-33-5-66-9.9-99-14.8C68.2,591.7,63.2,591.6,58.8,589.8z"/>
</g>
<g id="_x23_ffffffff">
	<path class="st1" d="M55.3,538.2c12.5,0,25.1,0,37.6,0c0,5.4,0.1,10.8,0,16.2c-2.8,0-5.6,0-8.5,0c0-2.3,0-4.6,0-6.9
		c-1.1,0-3.2,0-4.2,0c0,8.5,0,16.9,0,25.4c0.8,0,2.3-0.1,3-0.1c0,3.1,0,6.2,0,9.3c-6,0-12.1,0-18.1,0c0-3.1,0-6.2,0-9.3
		c0.8,0,2.3,0.1,3,0.2c0-8.5,0-16.9,0-25.4c-1.4,0-2.9,0-4.3,0c0,2.3,0,4.6,0,6.9c-2.8,0-5.7,0-8.6,0
		C55.4,549,55.4,543.6,55.3,538.2z"/>
	<path class="st1" d="M99.3,538.2c4.9,0,9.8,0,14.7-0.1c0.2,5.7,0.1,11.4,0,17.1c2.2,0.1,4.3,0.1,6.5,0.1c-0.1-5.7,0-11.4,0-17.1
		c5-0.1,10.1,0,15.1,0c0,3.1,0,6.3,0,9.4c-0.8,0-2.4-0.1-3.2-0.1c0,8.5,0,16.9,0,25.3c0.8,0,2.4,0,3.2-0.1c0,3.1,0,6.2,0,9.3
		c-5,0-10,0-15,0c-0.1-5.9-0.1-11.8,0-17.7c-2.2,0-4.3,0-6.5,0c0.1,5.9,0,11.7,0.1,17.6c-4.9,0-9.9,0-14.8,0c0-3.1,0-6.2,0-9.3
		c0.8,0,2.3,0.1,3.1,0.2c0-8.5,0-16.9,0-25.4c-0.8,0-2.3,0.1-3,0.1C99.3,544.5,99.3,541.3,99.3,538.2z"/>
	<path class="st1" d="M142.2,538.2c8.3,0,16.5,0,24.8,0c3.6-0.1,7.5,2.1,8.4,5.7c0.5,3.6,0.5,7.3,0.1,10.9c-0.5,2.7-3.2,4.2-5.5,5.1
		c2.2,0.9,4.5,2.1,5.3,4.4c0.6,2.8,0.4,5.7,0.5,8.5c0.8,0,2.3-0.1,3-0.1c0,3.1,0,6.2,0,9.3c-3.9-0.1-7.9,0.2-11.8-0.2
		c-1.6,0-2.9-1.4-2.8-2.9c-0.3-4.8-0.1-9.6,0-14.5c-2.3-0.1-4.6-0.1-6.8-0.1c0.1,5.8-0.1,11.5,0.2,17.3c-5,1-10.1,0.2-15.2,0.4
		c0-3.1,0-6.2,0-9.3c0.8,0,2.3,0.1,3,0.2c0-8.5,0-16.9,0-25.4c-0.8,0-2.3,0-3,0.1C142.2,544.5,142.2,541.3,142.2,538.2 M157.2,547.5
		c0,2.9,0,5.8,0,8.7c2.2,0,4.5,0,6.8,0c-0.1-2.9-0.1-5.7,0-8.6C161.8,547.5,159.5,547.5,157.2,547.5z"/>
	<path class="st1" d="M184.6,538.2c10.6,0,21.1-0.1,31.7,0c0,4.7,0,9.3,0,14c-3.4,0-6.8,0-10.2,0c0-1.6,0-3.2,0-4.8
		c-2.2,0-4.4,0-6.6,0c0,2.7,0,5.4,0,8.1c3,0,6.1,0,9.1,0c0.1,2.7,0.1,5.4,0.1,8.1c-3.1,0-6.1,0-9.2,0c0,3.1,0,6.2,0,9.2
		c2.2,0,4.4,0,6.6,0c0-1.9,0-3.8,0-5.6c3.5,0,7,0,10.5,0c0,4.9,0.1,9.9-0.1,14.8c-10.6-0.1-21.3,0-31.9,0c0-3.1,0-6.2,0-9.3
		c0.8,0,2.3,0.1,3.1,0.2c0-8.5,0-16.9,0-25.4c-0.8,0-2.3,0.1-3.1,0.1C184.7,544.5,184.7,541.4,184.6,538.2z"/>
	<path class="st1" d="M231.7,538.3c6.3-0.2,12.6,0,18.9-0.1c2.3,11.5,4.6,23,6.6,34.6c0.8,0,2.4,0,3.2,0c0,3.1,0,6.2,0,9.3
		c-4.6-0.1-9.1,0.1-13.7-0.1c-2.1-2.8-1-7.1-1.8-10.5c-2.4,0-4.7,0-7,0c-0.2,3.5-0.6,7.1-1.2,10.5c-4.8,0-9.6,0-14.4,0
		c0-3.1,0-6.2,0-9.3c0.8,0,2.2,0.1,3,0.2C227.7,561.4,229.8,549.9,231.7,538.3 M241.3,546.7c-0.7,5.7-1.6,11.5-2.5,17.2
		c1.7,0,3.4,0,5.2,0C243,558.2,242.3,552.4,241.3,546.7z"/>
	<path class="st1" d="M264.2,538.2c12.5,0,25.1,0,37.6,0c0,5.4,0,10.8,0,16.2c-2.8,0-5.7,0-8.5,0c0-2.3,0-4.6,0-6.9
		c-1.5,0-3,0-4.5,0c0,8.4,0,16.8,0,25.2c0.8,0.1,2.4,0.2,3.2,0.3c-0.2,3-0.2,6-0.2,9c-5.9,0-11.9,0-17.8,0c0-3.1,0-6.2,0-9.3
		c0.8,0,2.3,0.1,3,0.2c0-8.5,0-16.9,0-25.4c-1.4,0-2.9,0-4.3,0c0,2.3,0,4.6,0,6.9c-2.8,0-5.7,0-8.5,0
		C264.2,549,264.2,543.6,264.2,538.2z"/>
	<path class="st1" d="M310.7,540.6c1.7-1.5,4-2.4,6.3-2.4c6.9-0.1,13.7,0,20.6,0c0,4.3,0,8.7,0,13c-3.5,0-7,0-10.4,0
		c0-1.2,0-2.5-0.1-3.7c-2.2,0-4.5,0-6.7,0c0,2.6,0,5.3,0,7.9c5.4,0.4,11.9-1.6,16.3,2.5c3,2.8,1.8,7.2,2.1,10.9
		c-0.2,3.4,0.8,7.3-1.7,10.1c-1.8,2.5-5.2,3-8.1,3.1c-6.6,0.1-13.2,0-19.8,0c0-4.5,0-9.1,0-13.6c3.7,0,7.5,0,11.2,0
		c0,1.4,0,2.9,0,4.3c2.2,0,4.5,0,6.7,0c0-2.8,0-5.7,0.1-8.5c-4.8-0.3-9.8,0.5-14.4-1c-3.6-1.6-4.3-6-4.3-9.5
		C308.6,549.4,307.8,544.4,310.7,540.6z"/>
</g>
<g id="_x23_000000ff">
	<path d="M126.5,279.5c23.9-16.2,47.8-32.3,71.5-48.6c25,16.7,50.1,33.5,75.1,50.1c14.6,58.3,29.1,116.5,43.6,174.8
		c17.6,9.1,35.4,17.9,53.2,26.7c-4.8,28.8-8.8,57.6-13.5,86.4c-1.4,10.9-3.6,21.7-4.8,32.7c-49.5,6.6-99,13.8-148.5,20.5
		c-3.3,0.9-6.8,0.9-10.1,0c-49.3-6.8-98.6-13.8-147.9-20.5c-0.1-0.3-0.4-0.9-0.6-1.1c-6-38.9-11.9-77.9-18-116.8
		c-0.3-1.5,1.7-1.9,2.6-2.6c16.9-8.4,33.8-16.8,50.7-25.3c13.9-57.9,28.6-115.6,42.8-173.4C123.6,281.1,125.3,280.5,126.5,279.5
		 M132.6,288.4c-13.1,51.8-25.7,103.7-38.6,155.5c-0.9,5-2.9,9.9-3.4,15c6.9,14.1,14,28.1,21,42.2c-10.1-11.1-19.8-22.6-29.7-33.9
		c-14.3,7-28.4,14.3-42.7,21.3c2.1,13.7,3.9,27.5,6.1,41.2c44.2-0.2,88.4,0.1,132.6-0.1c-1.1-3-1.6-6.3-3.7-8.8
		c-16.6-20.6-32.9-41.5-49.7-62c9.9-28.5,19.7-57.2,30-85.5c12.7-4.2,25.7-7.7,38.4-11.7c1.6-0.5,3.4-1.4,5.1-0.7
		c14.5,4.2,29.1,8.5,43.7,12.5c8.5,27,17.4,54,26.1,80.9c0.3,1.7,2,3.6,0.7,5.2c-16.5,20.7-33.1,41.4-49.6,62.2
		c-1.7,2.6-2.3,5.6-2.9,8.6c44.3,0.1,88.5,0.2,132.8,0c2-13.9,4.1-27.7,6.1-41.6c-14.2-7.3-28.6-14.4-42.9-21.6
		c-9.7,10.9-19.1,22.1-28.9,33c7-13.6,13.5-27.5,20.6-41c-14-57.1-28.6-114-42.5-171.1c-21.3-14.4-42.8-28.6-64.1-42.9
		C175.6,259.4,154.1,274,132.6,288.4 M55.3,538.2c0,5.4,0,10.8,0,16.2c2.8,0,5.7,0,8.6,0c0-2.3,0-4.6,0-6.9c1.4,0,2.9,0,4.3,0
		c0,8.5,0,16.9,0,25.4c-0.8,0-2.3-0.1-3-0.2c0,3.1,0,6.2,0,9.3c6,0,12.1,0,18.1,0c0-3.1,0-6.2,0-9.3c-0.8,0-2.3,0.1-3,0.1
		c0-8.5,0-16.9,0-25.4c1.1,0,3.2,0,4.2,0c0,2.3,0,4.6,0,6.9c2.8,0,5.6,0,8.5,0c0.1-5.4,0.1-10.8,0-16.2
		C80.4,538.2,67.9,538.2,55.3,538.2 M99.3,538.2c0,3.1,0,6.3,0,9.4c0.8,0,2.3-0.1,3-0.1c0,8.5,0,16.9,0,25.4c-0.8,0-2.3-0.1-3.1-0.2
		c0,3.1,0,6.2,0,9.3c4.9,0,9.9,0,14.8,0c0-5.8,0.1-11.7-0.1-17.6c2.1,0,4.3,0,6.5,0c0,5.9-0.1,11.8,0,17.7c5-0.1,10,0,15,0
		c0-3.1,0-6.2,0-9.3c-0.8,0-2.4,0-3.2,0.1c0.1-8.4,0-16.9,0-25.3c0.8,0,2.4,0.1,3.2,0.1c0-3.1,0-6.3,0-9.4c-5,0-10.1,0-15.1,0
		c0.1,5.7,0,11.4,0,17.1c-2.2,0-4.3,0-6.5-0.1c0.1-5.7,0.2-11.4,0-17.1C109.1,538.3,104.2,538.2,99.3,538.2 M142.2,538.2
		c0,3.1,0,6.3,0,9.4c0.8,0,2.3,0,3-0.1c0,8.5,0,16.9,0,25.4c-0.8,0-2.3-0.1-3-0.2c0,3.1,0,6.2,0,9.3c5-0.3,10.2,0.6,15.2-0.4
		c-0.2-5.8,0-11.5-0.2-17.3c2.3,0,4.6,0,6.8,0.1c-0.1,4.8-0.3,9.6,0,14.5c0,1.5,1.3,2.9,2.8,2.9c3.9,0.4,7.9,0.1,11.8,0.2
		c0-3.1,0-6.2,0-9.3c-0.8,0-2.3,0.1-3,0.1c-0.1-2.8,0.1-5.7-0.5-8.5c-0.8-2.4-3.1-3.6-5.3-4.4c2.3-0.9,5-2.4,5.5-5.1
		c0.4-3.6,0.4-7.3-0.1-10.9c-0.9-3.6-4.8-5.8-8.4-5.7C158.8,538.2,150.5,538.2,142.2,538.2 M184.6,538.2c0,3.1,0,6.2,0,9.4
		c0.8,0,2.4-0.1,3.1-0.1c0,8.5,0,16.9,0,25.4c-0.8,0-2.3-0.1-3.1-0.2c0,3.1,0,6.2,0,9.3c10.6,0,21.3-0.1,31.9,0
		c0.2-5,0.1-9.9,0.1-14.8c-3.5,0-7,0-10.5,0c0,1.9,0,3.8,0,5.6c-2.2,0-4.4,0-6.6,0c0-3.1,0-6.2,0-9.2c3.1,0,6.1,0,9.2,0
		c0-2.7,0-5.4-0.1-8.1c-3,0-6.1,0-9.1,0c0-2.7,0-5.4,0-8.1c2.2,0,4.4,0,6.6,0c0,1.6,0,3.2,0,4.8c3.4,0,6.8,0,10.2,0
		c0-4.7,0-9.3,0-14C205.8,538.2,195.2,538.2,184.6,538.2 M231.7,538.3c-2,11.6-4.1,23.1-6.5,34.6c-0.7,0-2.2-0.1-3-0.2
		c0,3.1,0,6.2,0,9.3c4.8,0,9.6,0,14.4,0c0.6-3.5,1-7,1.2-10.5c2.3,0,4.7,0,7,0c0.9,3.4-0.3,7.7,1.8,10.5c4.6,0.2,9.1,0,13.7,0.1
		c0-3.1,0-6.2,0-9.3c-0.8,0-2.4,0-3.2,0c-2-11.6-4.3-23.1-6.6-34.6C244.3,538.3,238,538.1,231.7,538.3 M264.2,538.2
		c0,5.4,0,10.8,0,16.2c2.8,0,5.7,0,8.5,0c0-2.3,0-4.6,0-6.9c1.4,0,2.9,0,4.3,0c0,8.5,0,16.9,0,25.4c-0.8,0-2.3-0.1-3-0.2
		c0,3.1,0,6.2,0,9.3c5.9,0,11.9,0,17.8,0c0-3,0-6,0.2-9c-0.8-0.1-2.4-0.2-3.2-0.3c0-8.4,0-16.8,0-25.2c1.5,0,3,0,4.5,0
		c0,2.3,0,4.6,0,6.9c2.8,0,5.7,0,8.5,0c0-5.4,0-10.8,0-16.2C289.3,538.2,276.8,538.2,264.2,538.2 M310.7,540.6
		c-2.9,3.8-2.1,8.8-2.2,13.3c-0.1,3.5,0.7,7.9,4.3,9.5c4.6,1.5,9.6,0.8,14.4,1c-0.1,2.8-0.1,5.7-0.1,8.5c-2.3,0-4.5,0-6.7,0
		c0-1.5,0-2.9,0-4.3c-3.7,0-7.5,0-11.2,0c-0.1,4.5,0,9.1,0,13.6c6.6,0,13.2,0,19.8,0c2.9-0.1,6.3-0.6,8.1-3.1
		c2.5-2.8,1.5-6.7,1.7-10.1c-0.2-3.7,0.9-8-2.1-10.9c-4.4-4.1-10.9-2.1-16.3-2.5c0-2.6,0-5.3,0-7.9c2.2,0,4.5,0,6.7,0
		c0,1.2,0,2.5,0.1,3.7c3.5-0.1,6.9,0,10.4,0c0-4.3,0-8.7,0-13c-6.9,0-13.7,0-20.6,0C314.7,538.2,312.4,539.1,310.7,540.6
		 M58.8,589.8c4.5,1.8,9.4,1.8,14.1,2.7c33,5,66,9.8,99,14.8c9.3,0.9,18.5,3.6,27.9,3.5c43.4-6.4,86.7-13,130-19.4
		c3.1-0.5,6.3-0.8,9.3-2.1c-41.7,0-83.4,0-125.1,0C162.3,590,110.5,589.3,58.8,589.8z"/>
	<path d="M196.5,290.9c3.3,5.9,5.7,12.3,8.7,18.5c6.3,0.8,12.6,1.7,18.9,2.7c-4.5,4.8-9.1,9.4-13.8,14.1c1.3,6.5,2.2,13,3.2,19.6
		c-5.6-2.6-11-5.7-16.6-8.2c-5.9,2.8-11.6,5.9-17.6,8.4c1.3-6.6,2.2-13.3,3.2-19.9c-4.6-4.7-9.4-9.1-13.7-14.1
		c6.2-1,12.5-2.1,18.8-2.6C190.9,303.3,193.9,297.2,196.5,290.9z"/>
	<path d="M241.3,546.7c1,5.7,1.7,11.5,2.7,17.2c-1.7,0-3.5,0-5.2,0C239.7,558.2,240.6,552.4,241.3,546.7z"/>
	<path d="M157.2,547.5c2.3,0,4.5,0,6.8,0c-0.1,2.9-0.1,5.7,0,8.6c-2.3,0-4.5,0-6.8,0C157.3,553.3,157.3,550.4,157.2,547.5z"/>
</g>
</svg>
