<?xml version="1.0" encoding="utf-8"?>
<!-- Generator: Adobe Illustrator 19.0.0, SVG Export Plug-In . SVG Version: 6.00 Build 0)  -->
<svg version="1.1" id="Layer_1" xmlns="http://www.w3.org/2000/svg" xmlns:xlink="http://www.w3.org/1999/xlink" x="0px" y="0px"
	 viewBox="-140.6 327 286.6 187.8" style="enable-background:new -140.6 327 286.6 187.8;" xml:space="preserve">
<style type="text/css">
	.st0{fill:#020404;}
	.st1{fill:#9DC83E;}
</style>
<g id="_x23_020404ff">
	<path class="st0" d="M-38.5,328.1c12.2-1,24.4-0.9,36.6-1.1c35.1,0,70.2,0,105.3,0c0.3,14.9,0.1,30-2.6,44.8
		c-1.8,10.4-4.6,20.6-8.3,30.5c-8.4,22.3-23.2,43-44.1,55c-12.8,7.5-27.5,11.8-42.3,12.6c-20.9,1.3-41.8,0.6-62.8,0.7
		c1.7-10.9,5.1-21.6,10.7-31.2c15.3-0.2,30.8,1.2,45.9-2.3c20.5-4.5,39.7-16.8,50.7-34.9c5.8-9.2,9.5-19.8,11-30.5
		c0.6-4.5,0.8-9,1.1-13.5c-26.9-0.1-53.8-0.1-80.6,0c-19.6,0-39.5,6.2-54.6,19.1c-17.9,15.2-27.8,38.8-27.9,62.1
		c4.7,0.1,9.3,0,13.9,0.1c-4.2,10-7.3,20.4-9.3,31c-14.9,0-29.8,0-44.7,0c-0.5-18.9,0.7-38,6-56.2c7.1-25.5,22-48.9,42.9-65.3
		C-76.4,337.3-57.8,329.6-38.5,328.1z"/>
</g>
<g id="_x23_9dc83eff">
	<path class="st1" d="M-40.4,385.5c14.9-8.7,32.1-13.6,49.4-13.7c17.5-0.1,35,0,52.6,0c-1.4,10.8-5.2,21.3-11,30.5
		c-17.1,0.1-34.7-1-51.3,3.7c-18.6,4.9-35.8,16.5-45.3,33.4c-5.5,9.6-8.9,20.3-10.7,31.2c-0.7,4.4-1.1,8.8-1.5,13.2
		c53.8,0.3,107.5-0.1,161.3,0.2c0.7,0,1.9-0.1,2.6-0.2c0-17.1-0.1-34.1,0-51.2c13.4,0,26.8,0,40.2,0c-0.1,27.4,0.3,54.8-0.2,82.2
		c-81.6,0-163.2,0-244.8,0c-1.1-14.8,0.7-29.6,3.3-44.1c2-10.6,5.1-21.1,9.3-31C-77.2,417.4-61.3,397.7-40.4,385.5z"/>
	<path class="st1" d="M92.5,402.3c3.7-9.9,6.4-20.1,8.3-30.5c15,0,30,0,45,0c0,10.2,0.1,20.4-0.1,30.6
		C127.9,402.2,110.2,402.4,92.5,402.3z"/>
</g>
</svg>
