<?xml version="1.0" encoding="utf-8"?>
<!-- Generator: Adobe Illustrator 19.0.0, SVG Export Plug-In . SVG Version: 6.00 Build 0)  -->
<svg version="1.1" id="Layer_1" xmlns="http://www.w3.org/2000/svg" xmlns:xlink="http://www.w3.org/1999/xlink" x="0px" y="0px"
	 viewBox="-130.71 285.367 266.57 266.034" style="enable-background:new -130.71 285.367 266.57 266.034;" xml:space="preserve">
<style type="text/css">
	.st0{fill:#BABCBD;}
	.st1{fill:#0056A3;}
	.st2{fill:#FFFFFF;}
	.st3{fill:#055FAD;}
	.st4{fill:#213266;}
</style>
<g id="_x23_babcbdff">
	<path class="st0" d="M-51.51,291.55c44.79-10.45,92.56-7.59,135.8,8.1c8.61,3.12,17.05,6.71,25.12,11.05
		c0,46.99-0.01,93.98,0,140.98c0.01,2.08,0.03,4.16,0.02,6.25c-0.03,0.67-0.08,2.03-0.11,2.7c-2.39,0.53-4.82,0.88-7.25,1.17
		c-0.04-48.48,0.15-96.97-0.1-145.45c-31.09-15.88-66.13-23.73-101-23.6c-33.77,0.44-67.65,8.19-97.73,23.7
		c-0.07,48.78-0.01,97.56-0.03,146.33c-2.45-0.21-4.9-0.45-7.35-0.7c0-1.51,0.01-3.01,0.01-4.51c0.01-1.65,0.02-3.29,0.03-4.94
		c-0.02-47.29,0.02-94.58-0.02-141.86C-87.62,301.9-69.71,295.84-51.51,291.55z"/>
	<path class="st0" d="M76.51,498c5.55-0.73,11.13-1.29,16.69-2.04c-11.45,9.15-23.76,17.14-36.21,24.86
		c-17.33,10.65-35.06,20.64-53.06,30.11c-1.39,1.27-2.85-0.38-4.16-0.82c-17.91-9.56-35.63-19.49-52.88-30.18
		c-11.54-7.23-23.02-14.63-33.67-23.14l1.08,0.1c5.35,0.57,10.74,0.92,16.04,1.94c21.46,15.43,44.73,28.12,67.87,40.82
		c1.51,0.7,2.98,1.79,4.68,1.93c2.34-0.75,4.42-2.08,6.58-3.23C32.4,525.91,55.11,512.96,76.51,498z"/>
</g>
<g id="_x23_0056a3ff">
	<path class="st1" d="M-96.76,316.45c30.08-15.51,63.96-23.26,97.73-23.7c34.87-0.13,69.91,7.72,101,23.6
		c0.25,48.48,0.06,96.97,0.1,145.45c-27.25,3.08-54.65,4.74-82.07,5.07c-22-0.09-44.01,0.42-65.98-0.92
		c-16.97-0.49-33.89-1.84-50.81-3.17C-96.77,414.01-96.83,365.23-96.76,316.45 M-56.46,366.4c7.89-2.7,16.31-2.01,24.5-2.07
		c6.88,0.16,13.86-0.54,20.65,0.88c4.71,0.84,8.34,4.75,9.67,9.22c3.93,11.79,7.85,23.59,11.76,35.39c0.53,1.78,1.59,4.27,3.95,3.37
		c2.42-0.46,2.55-3.3,2.55-5.26c-0.01-14.53,0-29.06-0.02-43.59c11.45,0,22.9-0.08,34.35,0.03c6.51,0.04,13.59,2.85,16.64,8.94
		c3.34,6.87,2.75,16.91-4.35,21.19c4.88,2.84,6.36,8.64,6.53,13.91c5.21-11.71,7.13-25.24,3.4-37.66
		c-3.36-11.48-11.58-21.22-21.89-27.14c-13.86-8.03-30.49-9.95-46.21-8.33C-18.34,337.63-40.78,348.82-56.46,366.4 M-57.9,384.94
		c-1.64,6.17-1.71,12.83-0.09,19.01c1.11,4.3,4.53,8.23,9.12,8.76c5.4,0.48,10.83,0.09,16.25,0.21c0.07-12.17-0.14-24.34,0.12-36.5
		c-5.2,0.12-10.41-0.19-15.6,0.16C-52.79,376.83-56.76,380.47-57.9,384.94 M-19.51,380.94c-0.02,14.71,0.01,29.42-0.01,44.14
		c-8.48-0.03-16.97,0.05-25.45-0.03c-7.56-0.15-15.66-2.56-20.5-8.71c-5.1-6.38-6.1-14.89-6.1-22.79
		c-3.3,10.91-3.13,23.06,1.5,33.57c4.67,10.84,13.72,19.37,24.19,24.57c14.91,7.44,32.33,8.82,48.55,5.67
		c22.71-4.35,44.16-16.54,58.53-34.81c-3.56,1.52-7.35,2.63-11.26,2.53c-12.33,0.09-24.66,0.35-36.99,0.36
		c-6.01,0.06-12.11-3.7-13.99-9.55c-4.17-12.22-8.12-24.51-12.27-36.74c-0.59-1.08-0.95-3.17-2.63-2.82
		C-18.64,375.88-19.7,378.77-19.51,380.94 M29.71,376.44c0.01,3.99,0.01,7.98-0.03,11.98c7.08,0.07,14.17,0.08,21.25,0.04
		c2.83,0.19,5.65-1.83,6.06-4.71c0.89-3.57-2.14-7.54-5.88-7.28C43.98,376.36,36.85,376.48,29.71,376.44 M29.71,400.58
		c0.01,4.11,0.05,8.23-0.14,12.34c7.75-0.14,15.53,0.26,23.27-0.18c6.04-1.22,5.46-11.56-0.73-12.06
		C44.65,400.4,37.18,400.67,29.71,400.58z"/>
	<path class="st1" d="M23.99,501.91c17.52-1.02,35.07-1.8,52.52-3.91c-21.4,14.96-44.11,27.91-67.04,40.35
		c-2.16,1.15-4.24,2.48-6.58,3.23c-1.7-0.14-3.17-1.23-4.68-1.93c-23.14-12.7-46.41-25.39-67.87-40.82
		c9.58,0.22,19.09,1.62,28.66,2.05c6.35-0.05,12.65,0.81,18.98,1.02C-6.68,501.94,8.66,501.92,23.99,501.91z"/>
</g>
<g id="_x23_ffffffff">
	<path class="st2" d="M-56.46,366.4c15.68-17.58,38.12-28.77,61.53-31.12c15.72-1.62,32.35,0.3,46.21,8.33
		c10.31,5.92,18.53,15.66,21.89,27.14c3.73,12.42,1.81,25.95-3.4,37.66c-0.17-5.27-1.65-11.07-6.53-13.91
		c7.1-4.28,7.69-14.32,4.35-21.19c-3.05-6.09-10.13-8.9-16.64-8.94c-11.45-0.11-22.9-0.03-34.35-0.03
		c0.02,14.53,0.01,29.06,0.02,43.59c0,1.96-0.13,4.8-2.55,5.26c-2.36,0.9-3.42-1.59-3.95-3.37c-3.91-11.8-7.83-23.6-11.76-35.39
		c-1.33-4.47-4.96-8.38-9.67-9.22c-6.79-1.42-13.77-0.72-20.65-0.88C-40.15,364.39-48.57,363.7-56.46,366.4z"/>
	<path class="st2" d="M-57.9,384.94c1.14-4.47,5.11-8.11,9.8-8.36c5.19-0.35,10.4-0.04,15.6-0.16c-0.26,12.16-0.05,24.33-0.12,36.5
		c-5.42-0.12-10.85,0.27-16.25-0.21c-4.59-0.53-8.01-4.46-9.12-8.76C-59.61,397.77-59.54,391.11-57.9,384.94z"/>
	<path class="st2" d="M-19.51,380.94c-0.19-2.17,0.87-5.06,3.57-4.61c1.68-0.35,2.04,1.74,2.63,2.82
		c4.15,12.23,8.1,24.52,12.27,36.74c1.88,5.85,7.98,9.61,13.99,9.55c12.33-0.01,24.66-0.27,36.99-0.36c3.91,0.1,7.7-1.01,11.26-2.53
		c-14.37,18.27-35.82,30.46-58.53,34.81c-16.22,3.15-33.64,1.77-48.55-5.67c-10.47-5.2-19.52-13.73-24.19-24.57
		c-4.63-10.51-4.8-22.66-1.5-33.57c0,7.9,1,16.41,6.1,22.79c4.84,6.15,12.94,8.56,20.5,8.71c8.48,0.08,16.97,0,25.45,0.03
		C-19.5,410.36-19.53,395.65-19.51,380.94z"/>
	<path class="st2" d="M29.71,376.44c7.14,0.04,14.27-0.08,21.4,0.03c3.74-0.26,6.77,3.71,5.88,7.28c-0.41,2.88-3.23,4.9-6.06,4.71
		c-7.08,0.04-14.17,0.03-21.25-0.04C29.72,384.42,29.72,380.43,29.71,376.44z"/>
	<path class="st2" d="M29.71,400.58c7.47,0.09,14.94-0.18,22.4,0.1c6.19,0.5,6.77,10.84,0.73,12.06
		c-7.74,0.44-15.52,0.04-23.27,0.18C29.76,408.81,29.72,404.69,29.71,400.58z"/>
	<path class="st2" d="M41.34,469.08c1.61-0.01,3.21-0.01,4.82-0.01c0.01,7.48,0.01,14.96,0,22.44c-1.61,0-3.22-0.01-4.82-0.01
		C41.34,484.03,41.34,476.55,41.34,469.08z"/>
	<path class="st2" d="M64.21,469.08c1.62-0.01,3.24-0.01,4.87-0.01c0,2.79,0.02,5.58-0.05,8.38c2.31-1.73,5.64-2.58,8.14-0.72
		c4.78,3.73,3.74,13.29-2.49,14.93c-2.28,0.76-4.43-0.49-6.29-1.67c-0.15,0.39-0.44,1.18-0.58,1.58c-1.24-0.03-2.48-0.05-3.71-0.07
		C64.32,484.03,64.16,476.55,64.21,469.08 M70.27,480.03c-2.07,2.13-1.98,7.65,1.71,8.04C77.31,487.77,75.51,476.85,70.27,480.03z"
		/>
	<path class="st2" d="M-58.07,472.7c2.98-3.66,8.29-2.99,12.35-1.95c-0.36,1.31-0.71,2.62-1.07,3.93c-2.53-0.47-6.43-2-7.75,1.23
		c1.68,3.05,5.92,2.81,8.15,5.32c2.64,2.74,1.62,7.82-1.8,9.42c-3.52,1.89-7.68,1.12-11.33,0.08c0.31-1.36,0.63-2.72,0.95-4.08
		c2.68,0.65,6.09,2.26,8.46,0.02c1.32-3.15-3.09-3.63-4.97-4.82C-58.81,480.69-60.65,475.82-58.07,472.7z"/>
	<path class="st2" d="M29.36,471.4c3.52-2.01,7.76-1.61,11.57-0.78c-0.34,1.29-0.67,2.59-1.01,3.9c-2.35-0.37-4.87-1.04-7.15-0.01
		c-4.93,2.14-4.94,10.58,0.03,12.69c2.27,1.02,4.79,0.34,7.15,0.1c0.17,0.96,0.5,2.87,0.66,3.83c-3.96,0.85-8.42,1.3-12.03-0.95
		C22.05,486.15,22.6,474.95,29.36,471.4z"/>
	<path class="st2" d="M0.13,473.14c1.58-0.41,3.15-0.83,4.73-1.24c0,1.38,0.01,2.76,0.02,4.14c0.87,0.01,2.61,0.02,3.48,0.03
		c-0.02,0.88-0.07,2.65-0.09,3.53c-0.85,0.01-2.56,0.02-3.41,0.02c0.09,2.57-0.33,5.25,0.51,7.72c0.68,0.2,2.05,0.6,2.73,0.8
		c0.12,0.51,0.36,1.53,0.47,2.04c0.05-0.68,0.14-2.04,0.19-2.73c2.16,0.23,5.34,2.25,6.65-0.5c-2.57-2.02-7.77-2.7-6.88-7.1
		c0.92-4.49,6.67-4.81,10.24-3.57c-0.02,1.14-0.08,2.29-0.18,3.43c-1.75-0.09-5.21-1.83-5.62,0.96c2.83,1.57,7.7,2.78,6.71,7.07
		c-1.15,4.83-7.23,4.43-11.02,3.5c-2.52,0.63-5.9,1.2-7.61-1.3c-1.59-3.23-0.71-7-0.93-10.46c-2.01,0.77-4.96,0.37-6.08,2.56
		c-0.48,3.13-0.19,6.31-0.23,9.47c-1.63-0.01-3.26-0.01-4.88,0c-0.06-5.16,0-10.32-0.08-15.47c2.25-0.07,5.08-0.62,4.21,2.76
		c1.24-2.89,4.25-3.52,7.07-2.83C0.13,475.27,0.13,473.85,0.13,473.14z"/>
	<path class="st2" d="M-78.71,476.3c2.82-1.17,6.62-0.81,8.55,1.78c1.63,2.03,1.42,4.79,1.66,7.23c-3.53,0.04-7.05-0.03-10.57,0.2
		c1.89,3.37,5.89,2.67,9.05,2.18c0.16,0.84,0.46,2.5,0.62,3.34c-3.39,0.68-7.18,1.48-10.36-0.33C-85,487.7-84.2,478.61-78.71,476.3
		 M-79,481.85c2.18,0.11,4.36,0.05,6.51-0.33c-1.03-0.92-1.74-2.84-3.45-2.56C-77.56,478.88-78.07,480.86-79,481.85z"/>
	<path class="st2" d="M-44.09,475.96c1.67,0.28,4.21-0.61,4.63,1.7c2.04-1.55,4.75-2.72,7.26-1.51c2.61,1,3.6,3.8,4.19,6.3
		c0.65-5.73,7.53-8.49,12.32-5.83c5.52,2.91,4.98,12.48-0.96,14.6c-4.83,2.17-11.08-0.99-11.39-6.48
		c-0.17,5.39-6.41,9.18-11.01,5.87c-0.01,2.37-0.02,4.75-0.03,7.12c-1.63-0.01-3.26-0.01-4.89,0
		C-44,490.47-43.89,483.21-44.09,475.96 M-20.66,479.26c-3.22,1.47-3.18,7.1-0.28,8.91C-15.54,489.58-15.42,478.28-20.66,479.26
		 M-37.76,480c-1.9,1.53-1.48,4.43-0.99,6.52c1.17,2.57,5.28,1.69,5.55-1.06C-32.09,482.65-34.36,477.9-37.76,480z"/>
	<path class="st2" d="M47.92,476.07c1.61-0.02,3.21-0.02,4.82-0.03c0.09,3.53-0.35,7.12,0.37,10.6c0.82,2.06,4.38,1.4,4.42-0.83
		c0.31-3.24,0.09-6.5,0.1-9.74c1.63-0.01,3.27,0,4.9,0.01c-0.04,5.15-0.06,10.3,0.1,15.45c-0.96-0.02-2.86-0.04-3.82-0.06
		l-0.77-1.35c-2.68,1.73-6.83,2.84-8.97-0.31C46.9,485.61,48.28,480.6,47.92,476.07z"/>
	<path class="st2" d="M-67.91,481.58c2.79-0.01,5.57-0.01,8.36-0.01c0,0.82,0,2.45,0,3.26c-2.79-0.01-5.58-0.01-8.37-0.02
		C-67.92,484-67.91,482.38-67.91,481.58z"/>
</g>
<g id="_x23_055fadff">
	<path class="st3" d="M109.41,451.68c8.29-0.36,16.58-0.76,24.88-0.97c-2.02,4.57-4.13,9.09-6.14,13.67
		c2.78,3.81,5.41,7.74,7.71,11.87c-6.96,1.65-14.14,1.87-21.25,2.08c-0.03-5.9,0.86-11.9-0.3-17.73c-1.51-1.08-3.23-1.83-4.88-2.67
		C109.44,455.84,109.42,453.76,109.41,451.68z"/>
	<path class="st3" d="M-129.14,451.73c8.34,0.28,16.69,0.58,25.04,0.9c-0.01,1.65-0.02,3.29-0.03,4.94
		c-1.62,1.14-3.34,2.18-4.7,3.63c-0.8,5.99-0.09,12.08-0.3,18.12c-7.23-0.21-14.52-0.34-21.58-2.08c2.32-4.17,5.06-8.08,7.72-12.03
		C-125.11,460.75-127.1,456.23-129.14,451.73z"/>
</g>
<g id="_x23_213266ff">
	<path class="st4" d="M-108.83,461.2c1.36-1.45,3.08-2.49,4.7-3.63c0,1.5-0.01,3-0.01,4.51c2.45,0.25,4.9,0.49,7.35,0.7
		c16.92,1.33,33.84,2.68,50.81,3.17c21.97,1.34,43.98,0.83,65.98,0.92c27.42-0.33,54.82-1.99,82.07-5.07
		c2.43-0.29,4.86-0.64,7.25-1.17c0.03-0.67,0.08-2.03,0.11-2.7c1.65,0.84,3.37,1.59,4.88,2.67c1.16,5.83,0.27,11.83,0.3,17.73
		c-0.09,4.77-0.12,9.55-0.12,14.33c-7.06,1.34-14.18,2.29-21.29,3.3c-5.56,0.75-11.14,1.31-16.69,2.04
		c-17.45,2.11-35,2.89-52.52,3.91c-15.33,0.01-30.67,0.03-46.01-0.01c-6.33-0.21-12.63-1.07-18.98-1.02
		c-9.57-0.43-19.08-1.83-28.66-2.05c-5.3-1.02-10.69-1.37-16.04-1.94c-7.8-1-15.58-2.13-23.35-3.31c-0.13-4.76-0.09-9.51-0.08-14.26
		C-108.92,473.28-109.63,467.19-108.83,461.2 M41.34,469.08c0,7.47,0,14.95,0,22.42c1.6,0,3.21,0.01,4.82,0.01
		c0.01-7.48,0.01-14.96,0-22.44C44.55,469.07,42.95,469.07,41.34,469.08 M64.21,469.08c-0.05,7.47,0.11,14.95-0.11,22.42
		c1.23,0.02,2.47,0.04,3.71,0.07c0.14-0.4,0.43-1.19,0.58-1.58c1.86,1.18,4.01,2.43,6.29,1.67c6.23-1.64,7.27-11.2,2.49-14.93
		c-2.5-1.86-5.83-1.01-8.14,0.72c0.07-2.8,0.05-5.59,0.05-8.38C67.45,469.07,65.83,469.07,64.21,469.08 M-58.07,472.7
		c-2.58,3.12-0.74,7.99,2.99,9.15c1.88,1.19,6.29,1.67,4.97,4.82c-2.37,2.24-5.78,0.63-8.46-0.02c-0.32,1.36-0.64,2.72-0.95,4.08
		c3.65,1.04,7.81,1.81,11.33-0.08c3.42-1.6,4.44-6.68,1.8-9.42c-2.23-2.51-6.47-2.27-8.15-5.32c1.32-3.23,5.22-1.7,7.75-1.23
		c0.36-1.31,0.71-2.62,1.07-3.93C-49.78,469.71-55.09,469.04-58.07,472.7 M29.36,471.4c-6.76,3.55-7.31,14.75-0.78,18.78
		c3.61,2.25,8.07,1.8,12.03,0.95c-0.16-0.96-0.49-2.87-0.66-3.83c-2.36,0.24-4.88,0.92-7.15-0.1c-4.97-2.11-4.96-10.55-0.03-12.69
		c2.28-1.03,4.8-0.36,7.15,0.01c0.34-1.31,0.67-2.61,1.01-3.9C37.12,469.79,32.88,469.39,29.36,471.4 M0.13,473.14
		c0,0.71,0,2.13,0,2.83c-2.82-0.69-5.83-0.06-7.07,2.83c0.87-3.38-1.96-2.83-4.21-2.76c0.08,5.15,0.02,10.31,0.08,15.47
		c1.62-0.01,3.25-0.01,4.88,0c0.04-3.16-0.25-6.34,0.23-9.47c1.12-2.19,4.07-1.79,6.08-2.56c0.22,3.46-0.66,7.23,0.93,10.46
		c1.71,2.5,5.09,1.93,7.61,1.3c3.79,0.93,9.87,1.33,11.02-3.5c0.99-4.29-3.88-5.5-6.71-7.07c0.41-2.79,3.87-1.05,5.62-0.96
		c0.1-1.14,0.16-2.29,0.18-3.43c-3.57-1.24-9.32-0.92-10.24,3.57c-0.89,4.4,4.31,5.08,6.88,7.1c-1.31,2.75-4.49,0.73-6.65,0.5
		c-0.05,0.69-0.14,2.05-0.19,2.73c-0.11-0.51-0.35-1.53-0.47-2.04c-0.68-0.2-2.05-0.6-2.73-0.8c-0.84-2.47-0.42-5.15-0.51-7.72
		c0.85,0,2.56-0.01,3.41-0.02c0.02-0.88,0.07-2.65,0.09-3.53c-0.87-0.01-2.61-0.02-3.48-0.03c-0.01-1.38-0.02-2.76-0.02-4.14
		C3.28,472.31,1.71,472.73,0.13,473.14 M-78.71,476.3c-5.49,2.31-6.29,11.4-1.05,14.4c3.18,1.81,6.97,1.01,10.36,0.33
		c-0.16-0.84-0.46-2.5-0.62-3.34c-3.16,0.49-7.16,1.19-9.05-2.18c3.52-0.23,7.04-0.16,10.57-0.2c-0.24-2.44-0.03-5.2-1.66-7.23
		C-72.09,475.49-75.89,475.13-78.71,476.3 M-44.09,475.96c0.2,7.25,0.09,14.51,0.12,21.77c1.63-0.01,3.26-0.01,4.89,0
		c0.01-2.37,0.02-4.75,0.03-7.12c4.6,3.31,10.84-0.48,11.01-5.87c0.31,5.49,6.56,8.65,11.39,6.48c5.94-2.12,6.48-11.69,0.96-14.6
		c-4.79-2.66-11.67,0.1-12.32,5.83c-0.59-2.5-1.58-5.3-4.19-6.3c-2.51-1.21-5.22-0.04-7.26,1.51
		C-39.88,475.35-42.42,476.24-44.09,475.96 M47.92,476.07c0.36,4.53-1.02,9.54,1.15,13.74c2.14,3.15,6.29,2.04,8.97,0.31l0.77,1.35
		c0.96,0.02,2.86,0.04,3.82,0.06c-0.16-5.15-0.14-10.3-0.1-15.45c-1.63-0.01-3.27-0.02-4.9-0.01c-0.01,3.24,0.21,6.5-0.1,9.74
		c-0.04,2.23-3.6,2.89-4.42,0.83c-0.72-3.48-0.28-7.07-0.37-10.6C51.13,476.05,49.53,476.05,47.92,476.07 M-67.91,481.58
		c0,0.8-0.01,2.42-0.01,3.23c2.79,0.01,5.58,0.01,8.37,0.02c0-0.81,0-2.44,0-3.26C-62.34,481.57-65.12,481.57-67.91,481.58z"/>
	<path class="st4" d="M-79,481.85c0.93-0.99,1.44-2.97,3.06-2.89c1.71-0.28,2.42,1.64,3.45,2.56
		C-74.64,481.9-76.82,481.96-79,481.85z"/>
	<path class="st4" d="M-20.66,479.26c5.24-0.98,5.12,10.32-0.28,8.91C-23.84,486.36-23.88,480.73-20.66,479.26z"/>
	<path class="st4" d="M-37.76,480c3.4-2.1,5.67,2.65,4.56,5.46c-0.27,2.75-4.38,3.63-5.55,1.06
		C-39.24,484.43-39.66,481.53-37.76,480z"/>
	<path class="st4" d="M70.27,480.03c5.24-3.18,7.04,7.74,1.71,8.04C68.29,487.68,68.2,482.16,70.27,480.03z"/>
</g>
</svg>
