<?xml version="1.0" encoding="utf-8"?>
<!-- Generator: Adobe Illustrator 19.0.0, SVG Export Plug-In . SVG Version: 6.00 Build 0)  -->
<svg version="1.1" id="Layer_1" xmlns="http://www.w3.org/2000/svg" xmlns:xlink="http://www.w3.org/1999/xlink" x="0px" y="0px"
	 viewBox="-139.5 374.2 285.7 92.9" style="enable-background:new -139.5 374.2 285.7 92.9;" xml:space="preserve">
<style type="text/css">
	.st0{fill:#DDDDDD;}
	.st1{fill:#0096FF;}
</style>
<g id="_x23_ddddddff">
	<path class="st0" d="M-120.4,386.4c2.5-7.6,10.7-12,18.4-12.1c22.4-0.1,44.8,0,67.1,0c-1.8,5.4-3.5,10.8-5.3,16.1
		c-20.6,0-41.2,0-61.8,0c-4.1,12.5-8.2,25.1-12.2,37.7c14,0,28,0,42,0c1.1-3.5,2.2-7,3.4-10.5c-8.1,0-16.1,0-24.2,0
		c1.8-5.4,3.5-10.8,5.3-16.1c14.7,0,29.4,0,44,0c-3.2,9.8-6.4,19.6-9.6,29.4c-2.4,8.4-11.4,13.5-19.8,13.4c-17,0-34,0-51,0
		c-3.7-0.1-7.9-0.9-10.3-4c-2-2.7-1.6-6.3-0.6-9.3C-130,416-125.2,401.2-120.4,386.4z"/>
	<path class="st0" d="M52.3,374.2c8.7,0,17.4,0,26.1,0c4.5,7.5,9.2,14.9,13.7,22.4c9.4-7.5,18.8-15,28.3-22.4c8.6,0,17.3,0,25.9,0
		c-14.7,11.7-29.5,23.3-44.3,35c7.2,11.7,14.4,23.3,21.6,35c-8.6,0-17.3-0.1-25.9,0.1c-4.8-7.4-9.1-15.1-13.9-22.5
		c-9.3,7.6-18.8,15-28.3,22.5c-8.5-0.1-17.1,0-25.6,0c14.4-11.9,29.3-23.3,43.9-35C66.5,397.6,59.4,385.9,52.3,374.2z"/>
	<path class="st0" d="M-137.7,453.4c0.5-2.5,3.4-3.4,5.6-3.4c4.7,0,9.5-0.2,14.2,0c2-0.2,3,1.7,3.6,3.3c-5.9,0.3-11.8,0.1-17.7,0.2
		c-0.6,3.3-1.2,6.6-1.8,10c3.8,0,7.7,0,11.5,0c0.2-1.1,0.4-2.1,0.6-3.2c-3.3-0.1-8.5,1-9-3.6c5.1-0.1,10.2,0,15.2,0
		c-1,3.5-0.1,9.1-4.7,10c-5,0.5-10,0.1-15,0.2c-1.8,0.1-4.5-0.7-4.3-3C-139,460.4-138.3,456.9-137.7,453.4z"/>
	<path class="st0" d="M-111.1,450.1c6.8,0,13.7-0.4,20.5,0.2c4.6,1.1,1.2,7-2.4,6.5c1.3,0.4,2.9,0.6,3.4,2.1c-0.1,3-0.4,7.4-4.3,7.8
		c-5.4,0.4-10.8,0.2-16.3,0.1c-1.9,0.1-2.9-1.7-3.4-3.3c5.9-0.4,11.8,0,17.6-0.3c0.2-0.8,0.5-2.3,0.7-3c-3.9-0.1-7.8,0.1-11.8-0.1
		c-1.9,0-2.1-2.1-2.4-3.4c4.9,0,9.8,0,14.7-0.1c0.1-0.8,0.4-2.3,0.5-3.1c-4.8-0.1-9.7,0.1-14.5-0.2
		C-110.5,453.4-110.7,451.4-111.1,450.1z"/>
	<path class="st0" d="M-87.4,466.8c1.1-5.7,2-11.4,3.1-17.1c6.3-0.2,9.2,6,13.1,9.8c0.5-2.4,0.7-4.9,1.5-7.2c1.2-2,3.8-2,5.8-2.4
		c-0.9,5.7-2,11.4-3,17.2c-1.9-0.3-4.2,0-5.7-1.5c-2.6-2.6-4.9-5.5-7.4-8.1c-0.6,3.1-1.2,6.3-1.7,9.5
		C-83.6,466.8-85.5,466.8-87.4,466.8z"/>
	<path class="st0" d="M-61,453.9c0.4-2.8,3.5-4.1,6-3.9c4.7,0,9.4-0.2,14.1,0.1c1.9,0,2.8,1.7,3.5,3.1c-5.9,0.5-11.9,0-17.8,0.4
		c-0.2,0.8-0.6,2.3-0.8,3c3.7,0.1,7.3,0.1,11,0.1c-0.2,1.2-0.4,2.3-0.7,3.5c-3.6,0-7.3,0-10.9,0c-0.2,1.1-0.4,2.1-0.5,3.2
		c5.8,0,11.7,0,17.5,0.1c-0.8,1.4-1.8,3-3.6,3.1c-4.6,0.4-9.2,0.1-13.9,0.2c-2,0-4.6,0.2-5.6-2C-62.7,461.2-61.6,457.5-61,453.9z"/>
	<path class="st0" d="M-34,450c5.7,0,11.4,0,17-0.1c1.8,0,4.2,0.2,5.2,2c0.1,2.1-0.3,4.3-1.1,6.2c-1,1.7-3.1,1.9-4.8,2.4
		c1.4,2.1,2.7,4.3,4.1,6.4c-2.5-0.5-6.5,1.4-7.9-1.5c-1.8-2.9-3.5-5.8-5.3-8.7c2.9,0,5.9,0,8.8-0.1c0.2-0.8,0.5-2.4,0.6-3.2
		c-3.9,0-7.7,0.1-11.6,0.1c-0.7,3.5-1,7.1-1.9,10.5c-0.8,2.6-3.9,2.7-6.1,2.9C-36.1,461.3-35,455.6-34,450z"/>
	<path class="st0" d="M-7.5,452.9c0.6-2.2,3.3-2.9,5.4-2.9c6-0.1,12.1,0,18.1,0c-1,5.6-2,11.3-3.1,16.9c-1.9,0-3.9,0-5.8,0
		c0.4-2.2,0.8-4.4,1.2-6.7c-3.9,0-7.7,0-11.5,0c-0.4,1.7-0.4,3.6-1.5,5c-1.4,1.6-3.6,1.5-5.4,1.9C-9.2,462.3-8.5,457.6-7.5,452.9
		 M-1.9,453.6c-0.2,0.8-0.6,2.3-0.8,3c3.9,0.1,7.8,0,11.7,0c0.2-0.8,0.5-2.4,0.6-3.2C5.8,453.5,1.9,453.3-1.9,453.6z"/>
	<path class="st0" d="M18.4,453.3c0.7-1.5,1.6-3.3,3.6-3.2c6.9-0.2,13.9,0,20.8,0c-0.9,4.6-6.1,3.2-9.5,3.4c-0.9,4-1.2,8.2-2.5,12.2
		c-1.4,1.7-3.7,1.1-5.6,1.3c0.8-4.5,1.7-9,2.6-13.5C24.6,453.4,21.5,453.4,18.4,453.3z"/>
	<path class="st0" d="M45.9,450c1.9,0,3.8,0,5.7,0c-1,5.7-2,11.4-3.1,17c-1.8-0.4-5-0.5-5-3.1C44.1,459.3,45.1,454.6,45.9,450z"/>
	<path class="st0" d="M58.3,450.2c5.5-0.3,11.1-0.3,16.6,0c4.1,0.6,2,5.3,1.7,7.9c-0.8,3-0.1,7.6-4,8.5c-4.5,0.6-9,0.2-13.5,0.4
		c-2.2,0-5.1,0.3-6.2-2.1c-0.1-3.7,1.1-7.3,1.6-10.9C54.5,451.9,56.4,450.5,58.3,450.2 M60.1,453.4c-0.6,3.3-1.2,6.6-1.8,9.9
		c3.8,0,7.7,0,11.5,0c0.6-3.3,1.1-6.6,1.7-9.9C67.8,453.5,63.9,453.4,60.1,453.4z"/>
	<path class="st0" d="M81.2,449.7c6.4-0.5,9.2,6,13.2,9.7c0.5-2.5,0.8-5,1.6-7.4c1.3-1.9,3.8-1.9,5.8-2.3c-0.9,5.7-2,11.4-3,17.1
		c-2-0.3-4.5,0-6-1.8c-2.6-2.6-4.8-5.5-7.4-8c-0.3,3.2-0.9,6.4-1.5,9.6c-1.9,0-3.8,0-5.7,0C79.1,461.1,80.2,455.4,81.2,449.7z"/>
	<path class="st0" d="M105.6,450c1.8,0,3.5-0.1,5.3,0.1c2.3,0.5,3.2,3,4.5,4.7c1.6-1.3,3-2.8,4.7-4c2.1-1.4,4.7-0.8,7-0.9
		c-2.9,2.8-5.9,5.6-8.9,8.4c1.9,2.8,3.9,5.6,5.8,8.5c-2.1,0-4.2,0-6.4,0.1c-1.2-1.7-2.4-3.4-3.5-5.1c-1.8,1.7-3.4,3.7-5.7,4.8
		c-2,0.5-4.1,0.2-6.1,0.3c3-2.9,6-5.8,9-8.7C109.5,455.5,107.6,452.8,105.6,450z"/>
</g>
<g id="_x23_0096ffff">
	<path class="st1" d="M-29,374.2c22.7,0,45.3,0,68,0c5.3-0.7,9.4,5.6,7.7,10.4c-2,6.3-4.1,12.5-6.1,18.7c-0.6,2.1-1.6,4.1-2.8,5.9
		c0.9,1.9,2.8,4,1.7,6.2c-1.7,5.3-3.5,10.6-5.1,16c-1.8,7.6-9.5,13.6-17.4,12.8c-22.9-0.1-45.8,0-68.7,0c1.7-5.2,3.4-10.4,5-15.7
		c19.8-0.1,39.6,0.1,59.4-0.1c4.2-1.5,3.8-7.1,5.4-10.7c-20.4-0.5-40.8-0.1-61.2-0.2c1.8-5.4,3.5-10.8,5.3-16.2
		c18.3,0,36.6,0,54.8,0c1.7,0.1,3.8-0.5,4.4-2.3c1-2.7,1.7-5.4,2.6-8.1c-1.2-0.8-2.6-1.2-4-1c-18,0-36.1,0-54.1,0
		C-32.4,384.7-30.7,379.5-29,374.2z"/>
</g>
</svg>
