<?xml version="1.0" encoding="utf-8"?>
<!-- Generator: Adobe Illustrator 19.0.0, SVG Export Plug-In . SVG Version: 6.00 Build 0)  -->
<svg version="1.1" id="Layer_1" xmlns="http://www.w3.org/2000/svg" xmlns:xlink="http://www.w3.org/1999/xlink" x="0px" y="0px"
	 viewBox="0 0 137.3 188.9" style="enable-background:new 0 0 137.3 188.9;" xml:space="preserve">
<style type="text/css">
	.st0{fill:#D7D7D7;}
	.st1{fill:#3C86C2;}
	.st2{fill:#A4A4A4;}
	.st3{fill:#4088C4;}
	.st4{fill:#5395CA;}
	.st5{fill:#D9D9D9;}
	.st6{fill:#5394C9;}
	.st7{fill:#A5A4A3;}
</style>
<g>
	<path class="st0" d="M40.2,97.2c-0.3,10.3-0.5,20.6-1.1,30.9c-0.6,10.9,3,14.5,13.4,11.2c10.5-3.4,20.7-8,31-12.1
		c0.9-0.4,1.9-0.6,2.8-0.9c9.1,0.7,18.3,0.4,27,3.8c3.7,1.4,6.9,3.4,9.4,6.4c3.8,4.6,3.2,7.8-2.3,10.1c-8.6,3.6-17.2,7.3-25.9,10.6
		c-14.7,5.7-29.3,11.9-44.1,17.4c-8.4,3.1-16.8,5.1-25.8,2.8c-10.1-2.7-16-9.5-18.6-19.5c-2.3-8.9-0.7-17.6,2.5-25.9
		c5.2-13.6,14.2-24.3,26.2-32.6C36.4,98.2,38,96.8,40.2,97.2z"/>
	<path class="st1" d="M133.3,17.3c-6.5,21.6-19.9,37.4-41,45.7c-14.2,5.6-29.1,9.5-43,15.7c-9.6,4.3-18.6,10.4-26.8,17
		C11.3,104.7,4.5,117,1.2,131.3c0-3.3,0-6.6,0-9.9c0.5-12.3,3.6-23.9,8.6-35.1c9.4-20.7,24.2-35.3,46-43.1
		c23.7-8.5,46.8-18.3,70.3-27.4c1.6-0.6,3.1-1.4,4.8-1.4C132.6,14.5,134.5,14.6,133.3,17.3z"/>
	<path class="st1" d="M131.3,130.6c-12.7-9.6-27.1-8.8-41.9-7.2c0,0-11.3,1.9-26.7-0.6c-1.7-0.3-4.9-0.9-8-3.2
		c-2.1-1.5-3.5-3.2-4.3-4.4c-0.2-0.7-0.4-1.6,0-2.4c0.7-1.3,2.5-1.6,3.8-2.1c8-3.3,16.3-5.9,24.4-8.8c15.2-5.5,30.5-10.6,45.8-16
		c2.2-0.8,4.3-1.8,6.6-1.1c1.8,1.4,1.8,3.3,1.8,5.1c0.1,12,0.1,24,0,36C132.7,127.6,132.7,129.4,131.3,130.6z"/>
	<path class="st2" d="M40.2,97.2c-11.6,7.6-21.5,16.8-27.7,29.3c-5,10.1-7.5,20.5-5,31.8c2.9,13.3,17.2,22.3,31.3,18.4
		c12.6-3.5,24.7-8.7,36.9-13.4c14.7-5.7,29.3-11.8,43.9-17.7c1.6-0.7,3.2-1.6,4.9-2.6c-1.2-5.5-4.5-8.9-8.9-10.4
		c-7.6-2.6-14.7-3.9-18.3-4.3c-3.5-0.4-8.1-0.9-13.5-1.2c9-2.8,16.7-3.2,21.7-3c10.5,0.3,16.5,3.2,18.8,4.3
		c6.2,2.8,9.7,7.8,10.4,15.2c-9.7,3.8-19.4,7.6-29.2,11.3c-19.4,7.4-38.7,15-58.3,22c-10.6,3.8-21.5,4.9-31.5-2.4
		c-3.9-2.8-6.7-6.6-6.7-6.6c-1.7-2.4-3.6-5.8-5-12c-3.4-15.6,0-28.6,0-28.6s4.4-18.5,24.7-34.6c3.9-3.1,8.2-5.5,12.4-8.2
		c0.6-0.4,1.4-0.7,1.4-0.7C41.9,88.1,41.1,92.6,40.2,97.2z"/>
	<path class="st3" d="M3.5,159.3c0.8,1.9,1.6,3.9,2.4,5.8c7.9,14.8,20.3,20.1,38.5,14.5c15.5-4.8,30.5-11.1,45.7-16.9
		c15.2-5.7,30.3-11.5,45.9-17.5c0,2.6,0,4.8,0,7.4c-12,4.6-24.1,9.2-36.1,13.8c-16.6,6.3-33.1,12.9-49.8,19c-4.8,1.7-10,2.7-15,3.3
		c-13.1,1.5-24-5.1-29-17.3c-1.7-4.2-2.7-8.6-3.1-13.3C3.1,158.5,3.3,158.9,3.5,159.3z"/>
	<path class="st4" d="M133.3,17.3C133.2,17.1,75.9,37,75.9,37c-8.3,3.3-16.6,6.8-25,9.9C34.4,53,23.2,64.8,14.7,79.6
		C8.5,90.3,4.8,102,3.2,114.3c-0.3,2.4-1.3,4.8-2,7.1c-1.2-6-2.4-16.1,0.9-27.5C3.7,88.6,5.6,85,8,80.4c2.7-5,8.6-16.1,19.6-25.3
		c1.3-1.1,4.6-3.7,8.9-6.6c2.6-1.7,5.7-3.8,10-6c3.2-1.6,5.9-2.7,11.3-4.7c6.1-2.3,7.6-2.6,13.2-4.7c5.5-2,7.2-2.9,12.5-5
		c7.8-3.1,8.3-2.9,19.4-7c0.5-0.2,5.1-1.9,14.4-5.4c4-1.5,8.2-3.1,14.1-4.8c2-0.6,3.6-1,4.7-1.3C134.9,12.6,134.1,14.9,133.3,17.3z"
		/>
	<path class="st5" d="M0.3,95.3c1.6-9.5,5.6-25.1,17.3-39.5c9.1-11.3,17.3-18.9,35.4-25.4c26.7-9.6,48.7-20,74.1-27.5
		c4.3-1.3,7.9-2.3,10.3-2.9c-0.1,1.1-0.3,2.4-0.6,3.7c-0.3,1.5-0.6,2.8-1,4c-0.6-0.2-1.5-0.4-2.6-0.3c-1.6,0.1-2.7,0.9-2.9,1
		c-27.3,10.3-54.6,20.6-82,30.8C30.7,45.8,18.2,58.3,8.9,74.2c-0.8,1.1-1.5,2.4-2.3,3.7C3.1,84.1,1.3,90.2,0.3,95.3z"/>
	<path class="st6" d="M131.3,130.6c0-14.9,0-29.8,0-45.5c-7.3,2.6-13.8,4.9-20.3,7.2c-19.1,6.7-38.2,13.3-57.2,20.1
		c-1.3,0.5-2.3,2-3.5,3c-0.8-1.3-1.6-2.7-2.9-4.6c29.8-10.5,59-20.8,88.6-31.3c0,19.8,0,39.2,0,58.8
		C134.4,135.6,132.8,133.1,131.3,130.6z"/>
	<path class="st7" d="M0.5,95.4C0,95.2,4.3,73.6,21.4,56.1c7.1-7.3,14.6-13.8,32.6-20.3c39.1-14,65.5-25.9,78.4-29.4
		c1.7-0.5,3-0.8,4-1.1c-0.1,0.4-0.2,0.8-0.3,1.2c-0.1,0.4-0.2,0.8-0.4,1.2C96.5,21.9,82,27.5,76.6,29.8c-1.7,0.7-7.9,3.2-16.3,6.2
		c-2.9,1.1-5,1.7-5.6,1.9c-7.3,2.4-20.9,9.6-32.2,21.2C5.5,76.3,0.9,95.6,0.5,95.4z"/>
</g>
</svg>
