<?xml version="1.0" encoding="utf-8"?>
<!-- Generator: Adobe Illustrator 19.0.0, SVG Export Plug-In . SVG Version: 6.00 Build 0)  -->
<svg version="1.1" id="Layer_1" xmlns="http://www.w3.org/2000/svg" xmlns:xlink="http://www.w3.org/1999/xlink" x="0px" y="0px"
	 viewBox="-5.5 239.4 417.1 304.5" style="enable-background:new -5.5 239.4 417.1 304.5;" xml:space="preserve">
<g id="_x23_ffffffff">
</g>
<path d="M104.8,239.4c66.1,0,132.2,0,198.3,0c0,8.9,0,17.8,0,26.8c-56.9,0-113.8,0-170.8,0c0,28.7,0,57.3,0,86c-9.2,0-18.3,0-27.5,0
	C104.8,314.6,104.8,277,104.8,239.4z"/>
<path d="M165.8,325.9c25.5,0,51,0,76.5,0c0,8.8,0,17.7,0,26.5c-25.5,0-51,0-76.5,0C165.8,343.5,165.8,334.7,165.8,325.9z"/>
<path d="M276,325.9c9,0,18,0,27,0c0,37.3,0,74.5,0,111.8c-66,0-132,0-198,0c0-8.9,0-17.8,0-26.8c57,0,114,0,171,0
	C276,382.6,276,354.2,276,325.9z"/>
<path d="M12.6,463.7c19.5-1.1,39-1.3,58.4,0c5.6,0.3,11.6,2.6,14.7,7.5c3.7,5.4,3.9,12.3,3.7,18.6c-4.2,0-8.4,0-12.7,0
	c-1-4.5-1-9.8-4.5-13.3c-3.8-2.8-8.8-2.1-13.2-2.5c-13.7,0-27.3-0.3-41,0.4c-3.6,0.2-7.6,1.7-9.1,5.2c-1.5,3.9-1.3,8.1-1.5,12.2
	c0.1,9.7-0.3,19.3,0.4,29c0.3,3.4,1.8,7.2,5.2,8.6c5.3,2.3,11.2,1,16.8,1.6c11.4,0,22.9,0.3,34.3-0.3c3.7-0.4,8-1.1,10.1-4.5
	c2.6-4.3,1.7-9.4,1.3-14.1c-11.8-0.1-23.5,0-35.3,0c0-4.1,0-8.2,0-12.3c16.8,0,33.5,0,50.3,0c-0.9,9.6-0.5,19.4-2.7,28.8
	c-1.8,7.5-9.1,12.8-16.7,12.8c-19.7,0.8-39.5,1-59.3-0.1c-8.6-0.4-16-7.8-16.5-16.4c-1-14.1-1.2-28.3-0.3-42.4
	c0.3-5.1,1.7-10.5,5.5-14.1C3.8,465.4,8.2,464,12.6,463.7z"/>
<path d="M137.3,463.2c16-0.2,32-0.3,48,0.8c7.3,0.7,13.3,6.8,14.7,13.8c1.1,5.2,0.8,10.6,1.1,15.9c0.1,10.1,0.3,20.1-0.6,30.2
	c-0.5,4.2-1.8,8.5-4.9,11.6c-3.5,3.8-8.7,5.6-13.7,6.2c-20,2.4-40.3,2.5-60.2-0.2c-5.8-0.9-11.7-3.6-14.6-8.9
	c-2.7-4.5-2.8-9.8-3.1-14.8c-0.7-12.3-0.3-24.7,0.4-37c0.5-7.6,5.9-15,13.5-16.5C124.5,463.3,130.9,463.6,137.3,463.2 M144.2,474.3
	c-5.4,0.3-10.7-0.1-16.1,0.2c-3.2,0.2-6.9,0.9-8.9,3.8c-2.6,4-1.8,9.1-2.2,13.6c-0.1,9.7-0.2,19.5,0.4,29.1c0.3,2.7,1,5.6,3.1,7.3
	c2.9,2.3,6.9,2.5,10.4,2.6c14.7,0,29.4,0,44.1,0c3-0.1,6.3-0.4,8.9-2c2.6-1.7,3.4-5,3.7-7.9c0.6-10.4,0.8-20.8,0.3-31.1
	c-0.3-4.2,0.3-9-2.7-12.3c-2.8-3.1-7.4-3.1-11.3-3.2C164.1,474.6,154.2,473.8,144.2,474.3z"/>
<path d="M218.3,463.4c21.2-0.1,42.5-0.2,63.7,0.7c7.1,0.6,14.9,0.3,21,4.6c5.1,3.6,7,10,7.5,15.9c1.2,12.5,0.8,25.2-0.3,37.7
	c-0.6,5.7-3.1,11.5-8.2,14.7c-6.3,3.8-13.9,3.7-21,4.3c-20.9,0.9-41.9,0.4-62.8,0.5C218.3,515.7,218.3,489.6,218.3,463.4 M232,475.4
	c0,18,0,36,0,54c18,0,36,0,54,0c2.6-0.1,5.4-0.3,7.5-2c2.9-2.2,3.9-6.1,4-9.6c0.3-10.6,0.6-21.3-0.1-31.9c-0.1-4.1-2.3-8.6-6.7-9.5
	c-7.8-1.6-15.8-0.4-23.7-1C255.3,475.3,243.7,475.4,232,475.4z"/>
<path d="M342.2,464.3c6.7-2.1,13.8-1,20.6-1.5c8.7-0.3,17.4,0,26.1,0.5c5.8,0.3,12.2,0.7,16.7,5c4.9,4.5,5.7,11.7,5.6,18
	c-4.3,0-8.5,0-12.7,0c-0.7-2.8-1.1-5.8-2.5-8.3c-1.4-2.6-4.5-3.2-7.1-3.4c-13-0.3-26-0.6-38.9,0.5c-3.5,0.4-7.6,1-9.9,4.1
	c-4,5.8,0.1,15.2,7.2,15.8c15.5,2.2,31.3,0.8,46.8,2.7c6.6,0.8,13.5,4.3,15.8,10.8c2.2,6.4,2.3,13.6,0.4,20.1
	c-2,6.5-8.1,10.7-14.5,12.2c-18.5,4.5-38,4.3-56.6,0.5c-4.4-1-8.8-3.2-11.3-7.1c-2.7-4.3-3-9.6-2.3-14.5c4,0,8,0,12.1,0
	c1.1,4.5,2.4,11,8.1,11.3c12.7,0.7,25.5,0.7,38.3,0c4.1-0.3,8.7-1,11.5-4.2c2.5-2.9,2.5-7,2.1-10.6c-0.5-3.2-3.1-6.1-6.5-6.3
	c-16.9-1.3-34.1-1-50.9-3.8c-5.9-0.9-12.1-4.1-14-10.1c-2.1-7-2.2-14.9,1-21.6C330,468.3,336.4,465.9,342.2,464.3z"/>
</svg>
