<?xml version="1.0" encoding="utf-8"?>
<!-- Generator: Adobe Illustrator 19.0.0, SVG Export Plug-In . SVG Version: 6.00 Build 0)  -->
<svg version="1.1" id="Layer_1" xmlns="http://www.w3.org/2000/svg" xmlns:xlink="http://www.w3.org/1999/xlink" x="0px" y="0px"
	 viewBox="128.5 128 648.6 707.8" style="enable-background:new 128.5 128 648.6 707.8;" xml:space="preserve">
<style type="text/css">
	.st0{fill:#212125;}
	.st1{fill:#4996D0;}
	.st2{fill:#F8F9F9;}
</style>
<g id="_x23_212125ff">
	<path class="st0" d="M430.8,128h12.6c-1.7,0.2-3.4,0.5-5.1,0.7C435.8,128.4,433.3,128.1,430.8,128z"/>
	<path class="st0" d="M445.7,128h10.5c-1.8,0.2-3.5,0.5-5.3,0.7C449.1,128.5,447.4,128.2,445.7,128z"/>
	<path class="st0" d="M168.3,425.7c0.1-0.1,0.3-0.4,0.4-0.5C168.6,425.4,168.4,425.6,168.3,425.7z"/>
</g>
<g id="_x23_4996d0ff">
	<path class="st1" d="M443.4,128h2.3c1.7,0.2,3.5,0.5,5.2,0.7c9.5,0.9,18.9,3.6,27.4,8.2c12.6,6.3,23.9,14.9,34.3,24.4
		c5.3,5.1,18.8,19,20.1,20.9c73.5,96.2,146.8,192.6,220.2,288.8c1.8,2.3,3.7,4.5,4.9,7.1c-137.5,0.2-274.9,0.1-412.4,0.1
		c-8.7-0.3-17.3,0.2-26-0.1c9.7-13.5,20.4-26.3,30.4-39.6c11.9-15,23.7-30.2,35.5-45.4c0.8-1.4,2.2-2.2,3.8-2c48,0,96,0,144,0
		c3,0.1,6.1,0.1,9.1-0.3c-2.2-4.5-6-7.9-8.7-12.1c-26.5-35.3-53.1-70.6-79.7-105.9c-5.6-6.4-9.7-14-15.6-20.1
		c-23.9,30.5-47.3,61.5-71.1,92.1c-16.1,21.2-32.6,42.1-48.7,63.3c-5.4,6.8-10.8,13.5-15.8,20.6c-13,16.3-25.4,33.2-38.4,49.5
		c-36.7,0-73.4,0.1-110-0.1c-8.6-0.5-17.2,0.2-25.7-0.2c1.5-2.1,3.1-4.2,4.2-6.6c3.4-2.4,5-6.4,7.7-9.5c5.9-6.5,10.7-13.8,16.3-20.5
		c3.7-5.5,8.3-10.2,11.9-15.8c0.1-0.1,0.3-0.4,0.4-0.5c7.2-8.1,13.3-17.1,20.2-25.4c19.8-25.5,39.5-51.1,59.4-76.4
		c1.5-2.7,3.6-4.9,5.6-7.2c15-19.7,30.4-39.1,45.5-58.8c2.6-2.5,4.3-5.7,6.5-8.6c5.3-6.1,9.7-12.8,14.9-18.9
		c4-4.8,7.1-10.3,11.6-14.7c4.3-6.2,9.1-12,13.8-17.9c4.7-6.3,9.5-12.5,14.6-18.5c12-16.3,27.6-29.9,45-40.1
		c2.1-0.9,4.2-1.7,5.8-3.4c1.8-0.4,3.6-0.8,5.3-1.5c6.7-2.9,14-4.8,21.3-5.2C440,128.5,441.6,128.2,443.4,128z"/>
	<path class="st1" d="M128.7,488.4c6.9-2,14.2-0.7,21.3-0.7c40.8-0.2,81.6-0.1,122.4-0.1c0.4,1.2,1,2.3,1.8,3.2
		c56.1,70.9,112.3,141.7,168.4,212.6c0.2,0,0.7,0.1,1,0.1c2.1-2.3,3.8-5,5.8-7.4c55.6-68.7,110.9-137.7,166.4-206.5
		c2.1-3,6.2-1.8,9.3-2c43-0.1,86.1,0.1,129.1,0.1c1.1,0.2,2.1,0.5,3.2,0.9c-7.8,11-16.8,21.1-25,31.8
		C669.8,598.5,607.3,676.7,545,755c-13.9,17.3-27.1,35.5-44,49.9c-15.3,13.4-33.5,24.4-53.8,27.6c-0.4,0.1-0.9,0.2-1.5,0.4
		c-7.7,1.7-15.7,1.5-23.4-0.5c-1.1-0.3-2.3-0.6-3.4-1c-8.8-0.9-16.4-5.8-24.4-8.9c-5.1-4.3-11.2-7.2-16.1-11.8
		c-4.9-4.5-9.8-9.1-13.9-14.4c-1.6-2-2.8-4.3-5.1-5.7c-3.5-6.2-8.1-11.8-12.8-17.2c-3-5.2-7.2-9.5-10.7-14.4
		c-12.8-15.9-24.4-32.7-37.5-48.4c-1.8-3.4-4.5-6.2-6.7-9.4c-11.9-15.1-23.5-30.5-35.2-45.8c-6.7-8-12.7-16.7-19.2-24.8
		c-17.5-23.2-35.4-46-53-69.1C166,537,147.1,512.8,128.7,488.4z"/>
</g>
<g id="_x23_f8f9f9ff">
	<path class="st2" d="M532.6,182.3c-1.3-1.9-11.5-12.5-4.1-5.8c10.1,8.8,19.6,18.5,27.8,29.1c71.6,91.4,143.3,182.7,215,274.1
		c1.8,2.4,3.5,4.8,5.8,6.8c-5.8,1.8-12,0.5-17.9,1.1c-140.3-0.2-280.6-0.1-421-0.2c2.4-3,4.9-5.9,7.2-9c137.5,0,274.9,0.1,412.4-0.1
		c-1.2-2.7-3.1-4.9-4.9-7.1C679.4,374.9,606.1,278.5,532.6,182.3z"/>
	<path class="st2" d="M366.9,344.9c23.8-30.6,47.2-61.6,71.1-92.1c5.9,6.1,10.1,13.7,15.6,20.1c-4.7,5.2-8.8,10.9-13.3,16.4
		C388,355.4,335.7,421.6,283.1,487.5c-43.8-0.2-87.7,0-131.5-0.1c-2.2,0.2-2.8-1.7-2.3-3.5c1.7-1.8,3.3-3.7,4.7-5.8
		c36.7,0.2,73.4,0.1,110,0.1c13-16.3,25.4-33.2,38.4-49.5c5-7.1,10.4-13.8,15.8-20.6C334.3,387,350.8,366.1,366.9,344.9z"/>
	<path class="st2" d="M272.4,487.6c0.5,0.1,1.6,0.4,2.1,0.6c2.6-1.3,5.7-0.4,8.5-0.6c55.5,69.5,110.9,139,166.3,208.5
		c-2,2.4-3.6,5.1-5.8,7.4c-0.3,0-0.7-0.1-1-0.1c-56-70.9-112.3-141.7-168.4-212.6C273.4,489.9,272.8,488.8,272.4,487.6z"/>
	<path class="st2" d="M757.2,488.6c0.9-1.2,2.5-0.9,3.8-1c4.6,0,13.5,0,13.5,0c0.6,0.1,1.7,0.2,2.3,0.2c-0.1,0.3-0.2,0.8-0.2,1
		c-9,10.3-17.2,21.3-25.9,31.8c-63.5,78.9-126.9,157.8-190.2,236.9c-11.2,13.8-21.8,28.1-34.3,40.7c-13.3,13.3-28.5,25.1-46.1,32.1
		c-14.7,6-32.4,6.9-48,3.8h4.9c5.9-0.8,5.6-0.3,10.1-1.5c20.3-3.2,38.5-14.2,53.8-27.6c17-14.5,30.1-32.7,44-49.9
		c62.3-78.3,124.8-156.5,187.3-234.7C740.5,509.6,749.4,499.5,757.2,488.6z"/>
</g>
</svg>
