<?xml version="1.0" encoding="utf-8"?>
<!-- Generator: Adobe Illustrator 19.0.0, SVG Export Plug-In . SVG Version: 6.00 Build 0)  -->
<svg version="1.1" id="Layer_1" xmlns="http://www.w3.org/2000/svg" xmlns:xlink="http://www.w3.org/1999/xlink" x="0px" y="0px"
	 viewBox="-147 211.89 300 418" style="enable-background:new -147 211.89 300 418;" xml:space="preserve">
<style type="text/css">
	.st0{fill:#028CDD;}
	.st1{fill:#104B6D;}
	.st2{fill:#840000;}
	.st3{fill:#FDFDFD;}
</style>
<g id="_x23_000000ff">
	<path d="M-1.59,211.89h6.22c19.31,0.76,38.31,5.28,56.36,12.04c24.05,9.2,46.68,24.08,61.43,45.53
		c14.81,21.2,20.27,48.01,17.47,73.52c7.63,5.77,12.77,14.68,13.11,24.33v3.18c-0.59,5.69-1.25,11.88-5.12,16.42
		c-3.06,3.8-5.82,7.92-7.44,12.56c-4.93,12.97-2.7,27.92,4.32,39.69c1.33,2.27,2.53,4.87,1.8,7.56c-1.27,6.4-6.45,10.76-10.34,15.59
		c-0.98,4.78-0.24,9.78-0.4,14.65c-8.79,5.93-19.95,3.77-29.88,3.36c-10.93-0.96-22.92,2.9-29.25,12.3
		c-8.18,12.08-7.92,27.59-6,41.48c-1.79,1.56-3.79,3.22-4.18,5.73c-2.58,11.72-4.85,23.53-8.41,35
		c-2.87,9.32-5.76,18.95-11.94,26.71c-0.16-3.66-0.2-7.32-0.28-10.97c-1.12,3.88-1.93,7.9-3.7,11.56c-1.8,3.44-4.09,6.57-6.23,9.8
		c-1.41-4.42-2.74-8.85-4.04-13.29c-1.89,4.68-3.8,9.35-5.57,14.07c-1.28-2.78-2.63-5.53-4.18-8.17
		c-4.26,7.86-4.82,17.02-7.84,25.35h-0.19c-1.74-8.07-3.6-16.11-5.37-24.17c-2.05,4.45-4.03,8.94-5.98,13.45
		c-1.31-4.86-2.54-9.73-4.02-14.53c-4.03,7.8-4.68,16.68-5.68,25.25h-0.06c-2.72-6.85-5.81-13.58-7.89-20.66
		c-0.4-0.18-1.2-0.54-1.61-0.72c-0.03,3.08-0.03,6.17-0.01,9.26c-3.43-10.4-8.37-20.22-13.55-29.83c-0.59,4.25-1.16,8.5-1.66,12.77
		c-2.42-4.81-4.64-9.72-7.4-14.35c0.96,5.56,3.1,10.8,5.1,16.05c-8.95-6.42-16.12-15.54-19.27-26.18
		c-1.14-4.52,0.11-9.25-0.94-13.79c-2.42-11.46-6.99-22.32-11.74-32.98c2.6-7.81,3.55-16.47,0.82-24.38
		c-3.3-10.16-12.48-18.03-22.87-20.21c-7.12-0.6-13.38,4.15-17.8,9.27c-8.73,10.45-13.43,23.51-17.33,36.37
		c-1.02-22.21-2.09-44.43-3.02-66.65c-0.2-2.14-0.03-4.55-1.52-6.29c-3.51-4.59-7.55-8.76-11.08-13.34
		c5.75-10.1,9.46-21.68,8.39-33.4c-0.69-6.57-2.13-13.69-7.23-18.35c-5.15-5.07-8.75-11.75-9.41-19.01v-5.95
		c0.99-9.37,6.1-17.74,12.76-24.19c-1.69-25.46,2.72-52.53,18.2-73.45c12.12-16.54,30.11-27.21,47.45-37.49
		C-48.34,220.29-25.16,213.16-1.59,211.89 M-21.33,217.33c-34.15,7.64-65.55,26.39-88.96,52.33c3.01,6.55,6.24,13.01,9.19,19.58
		c7.02,0.94,14.07,1.57,21.11,2.37c2.98,6.27,6.34,12.36,9.06,18.75c-3.04-4.44-5.7-9.13-8.75-13.58
		c-7.27-0.08-14.53-0.18-21.8-0.37c-4.33-7.59-8.58-15.24-13-22.79c-7.23,14.52-6.76,32.39,1.41,46.43
		c-0.69-6.11-1.39-12.22-1.41-18.37c1.42,9.49,4.85,18.98,11.67,25.96c-1.83-4.59-3.76-9.32-3.28-14.38c1.54,3.91,2.54,8,3.67,12.05
		c1.53,0.34,3.06,0.68,4.59,1.01c0.5-1.6,1-3.2,1.49-4.8c6.45,5.01,12.75,10.21,18.85,15.62c-3.46-1.76-6.76-3.81-10.18-5.65
		c-3.14-1.75-6.85-1.72-10.31-2.27c1.52,2.57,2.25,5.99,5.06,7.52c7.3,4.43,14.65,8.77,21.93,13.22
		c-10.63-4.77-20.9-10.31-31.42-15.32c-0.84-1.51-1.48-3.44-3.33-3.97c-4.49-1.67-9.37-0.84-14-0.36c-0.01,1.38-0.02,2.77-0.02,4.15
		c-1.45,0.01-2.9,0.02-4.35,0.03c-1.57-1.58-3.15-3.15-4.73-4.72c-0.07,3.76,0.21,7.53-0.17,11.28
		c-4.26,6.31-11.07,11.49-12.22,19.49c1.96-1.38,3.84-2.87,5.72-4.36c-0.01,5.41,0.02,10.83-0.03,16.25c4.36,1.19,8.69,2.89,12.05,6
		c4.78,3.74,6.41,10.33,12.11,13.07c-1.37-3.87-2.87-7.68-4.28-11.52c3.56,5,6.67,10.46,7.69,16.59
		c11.32,1.39,22.57,4.27,32.71,9.58c11.59,5.75,21.45,14.51,33.41,19.59c6.63,3.05,13.78,4.7,20.92,6.07
		c-10.76,7.98-22,15.34-32.38,23.81c-4.22,2.91-9.79,3.13-14.62,1.84c-6.53-1.91-12.07-6.09-17.41-10.17
		c-11.73-9.15-20.54-21.54-26.63-35.03c0.91,9.59,4.22,18.79,8.97,27.12c-4.05-4.53-7.43-9.62-10.52-14.85
		c-2.67-4.77-5.11-9.98-4.95-15.58c-0.02-6.77-1.52-13.64-5.03-19.48c-3.29-5.64-9.15-9.2-15.37-10.74
		c5.74,8.07,9.89,17.36,11.15,27.23c1.96,12.82-1.72,25.99-8.49,36.89c3.99,5.06,8.32,10.01,11.25,15.77
		c0.93,9.92,0.9,19.94,1.43,29.9c1.15-7.37,1.34-14.83,2.19-22.23c1.54,7.48,3.31,15.03,3,22.72c2.9-5.73,6.19-11.51,11.35-15.52
		c-2.08,5.36-4.76,10.46-7.28,15.62c7.51-6.13,16.29-11.72,26.26-12.09c9.32-0.6,18.32,5.09,22.92,13
		c4.96,11.81,5.28,25.1,3.11,37.59c7.06,0.73,13.07,5.38,15.99,11.79c0.79-6.24,0.48-12.61,1.75-18.78
		c1.84-5.96,3.63-11.93,4.84-18.05c-0.12,6.9,0.3,14.05-2.31,20.61c-1.64,4.02-1.68,8.41-1.63,12.68c1.42-0.81,2.72-1.94,4.36-2.25
		c2.07,0.38,2.88,2.4,3.79,4.02c0.57-8.24,1.98-16.38,3.3-24.52c1-5.63,2.06-11.32,4.51-16.52c-0.34,10.6-0.97,21.78,3.69,31.63
		c1.78-6.64,4.43-13.26,9.28-18.28c0.06-4.44,0.02-8.88,0.09-13.31c1.19,4.6,2.41,9.21,3.47,13.85c-7.84,7.54-8.68,19.2-9,29.43
		c-0.35,4.47,0.58,8.98,3.15,12.7c0.91-10.93-0.1-22.9,5.8-32.66c5.1,8.51,8.52,18.07,9.54,27.96c0.93-13.3,0.01-26.64,0.47-39.96
		c-0.01-2.62,0.26-5.5-1.43-7.72c-3.93-5.99-7.74-12.07-11.8-17.98c2.31-0.09,6.09,0.5,6.67-2.56c3.18-11.95,5.83-24.05,7.89-36.25
		c0.82-4.6,1.18-9.27,0.97-13.94c-6.04,7.48-11.71,15.24-17.78,22.7c0.76-3.52,1.6-7.02,2.43-10.52
		c-7.02,8.37-12.78,17.8-17.04,27.86c2.11-8.69,5.5-17.07,10.14-24.72c-4.52,5.04-9.14,9.99-13.39,15.27
		c4-8.29,9.14-15.99,15.08-23.02c-5.76,4.02-11.43,8.16-17.25,12.1c5.47-6.39,12.18-11.7,16.9-18.71c3.38-2.58,8.03-1.81,12.02-1.89
		c2.13-7.75,2.44-16.58-1.46-23.79c-13.91-12.09-27.8-24.33-40.18-38.02c9.72,7.3,18.92,15.25,28.13,23.17
		c6.77,6.15,13.97,12.11,18.91,19.92c-1.75-5.37-3.47-10.75-5.09-16.16c2.42,1.76,4.57,3.87,6.43,6.21
		c-3.15-16.7-13.16-31.78-27.03-41.51c0.09,2.18,0.21,4.37,0.33,6.55c-16.86-27.31-33.81-54.56-50.73-81.84
		c-4.86-0.02-9.72-0.01-14.58-0.02c-2.65-5.34-5.37-10.64-7.62-16.16c3.71,3.11,7.34,6.31,11.05,9.42
		c4.59-0.05,9.17-0.04,13.75-0.03c10.36,18.93,20.48,37.99,31.78,56.38c3.33,4.95,5.41,10.95,10.25,14.73
		c14.68,12.66,26.36,28.6,34.75,46.03c-0.04-9.18,0.39-18.4-0.17-27.55c-7.22-14.18-14.51-28.89-16.14-44.95
		c-0.6-5.51,0.43-11.05,2.67-16.08c0.64,19.81,3.44,40.77,15.39,57.23c8.3-17.07,15.25-35.41,15.48-54.63
		c1.6,6.82,2.4,13.99,0.89,20.9c-2.1,8.25-6.01,15.89-8.72,23.95c-1.94,6.08-5.42,11.95-4.96,18.54c0.08,7.34-0.01,14.69,0.07,22.04
		c4.43-10.01,8.34-20.33,14.28-29.57c-0.28,1.46-0.84,4.38-1.12,5.84c15.9-14.27,29.49-31.05,40.18-49.54
		c-5.69,12.54-11.79,25.18-20.8,35.71c-1.47,2.14-1.25,4.95-2,7.36c-1.01-1.46-1.81-3.05-2.48-4.68
		c-11.22,10.96-22.57,23.25-26.28,38.96c2.34-1.4,4.7-2.79,7.09-4.12c-3.41,5.02-6.04,10.76-5.74,16.96
		c12.53-18.41,28.96-34.58,48.77-44.99c-11.52,10-23.79,19.28-34.06,30.63c-3.57,3.77-8.54,6.4-10.74,11.3
		c-2.76,5.96-0.73,12.63-0.55,18.88c1.57,4.77,7.64,4.62,11.74,5.12c4.1-0.2,5.09,4.32,7.28,6.79c4.11,4.31,8.82,8,12.89,12.35
		c-6.28-4.32-12.34-8.95-18.64-13.25c6.07,8.46,12.92,16.44,17.78,25.69c-5.42-5.78-10.13-12.17-15.45-18.04
		c4.34,10.16,9.99,20,12.13,30.92c-5.39-11.71-10.25-24.36-19.92-33.3c2.22,4.31,4.43,8.69,5.34,13.5
		c-6.75-8.67-12.83-17.84-19.41-26.63c1.18,17.35,2.61,34.94,7.74,51.64c2.13,0.17,4.27,0.3,6.41,0.42
		c-4.81,7.31-9.63,14.62-14.47,21.92c0.09,17.67-0.2,35.35,0.15,53.02c5.24-11.16,7.91-23.34,9.41-35.52
		c7.05,8.69,7.77,20.41,8.97,31.07c2.53-5.75,4.51-12.26,2.55-18.49c-2.1-7.74-3.79-16.19-9.6-22.14
		c-0.07-5.06-0.09-10.13,0.03-15.19c4.22,1.62,7.2,5.23,7.89,9.72c-0.65-0.95-1.29-1.9-1.92-2.85c-1.4,0-2.81,0.01-4.2,0.02
		c0.03,2.16-0.08,4.34,0.24,6.49c1.18,2.35,2.94,4.36,4.31,6.61c3.31,5.08,5.42,10.82,7.09,16.62c3.53-5.61,5.75-12.67,3.23-19.13
		c-1.74-3.93-0.33-8.17,0.25-12.2c3.63,12.11,6.77,24.44,7.8,37.07c3.67-1.56,7.96-3.76,8.68-8.12c0.67-5.42-3.18-9.94-6.44-13.8
		c0.22-3.45,0.54-6.89,0.94-10.32c4.96,10.33,8.84,21.65,8,33.28c3.79-4.65,8.51-9.81,15.05-9.57c-4.11-10.21-5.06-22-0.86-32.34
		c3.51-9.69,11.72-17.54,21.69-20.29c6.72-1.79,14.24-2.59,20.75,0.39c7.67,3.31,16.54,2.66,24.08-0.69
		c-1.79-6.96-1.52-15.51,4.05-20.74c3.14-3.56,7.48-7.61,6.61-12.81c-2.04-2.7-5.99-4.13-6.39-7.88
		c-0.89-5.68-0.84-11.48-2.13-17.11c-2.84-14.34,1.47-29.37,9.95-41.06c-10.56,5.01-18.84,14.72-21.53,26.16
		c-1.73,5.62-0.54,11.77-3.02,17.21c-4.84,12.45-11.03,25.53-22.53,33.14c6.21-10.13,12.73-20.16,17.45-31.11
		c0.88-2.06,1.42-4.24,1.94-6.42c-6.39,10.13-13.41,19.91-21.74,28.54c-5.75,5.75-12.09,11.36-19.86,14.11
		c-3.23,0.92-7.17,2.26-10.13-0.04c-12.56-8.51-25.18-16.94-37.76-25.43c6.8-2.11,13.58-4.37,19.95-7.56
		c15.26-7.11,28.08-18.44,43.38-25.45c8.01-3.88,16.45-6.78,25.03-9.09c0.27-4.01,1.42-7.89,3.35-11.4
		c-0.3,3.14-0.59,6.29-0.53,9.46c6.63-6.43,12.48-14.56,21.61-17.56c0.61-4.04,1.24-8.08,1.49-12.16c1.06,1.07,2.13,2.13,3.21,3.18
		c1.66-8.48-4.69-15.17-9.78-21.01c-1.12-3.69-0.87-7.7-1.56-11.51c-0.6,1.64-1.17,3.29-1.75,4.93c-1.28-0.09-2.55-0.18-3.83-0.27
		c-2.96-2.94-6.74-5.59-11.15-5.11c-5.46,0.06-9.13,4.57-13.68,6.86c-9.2,4.86-18.14,10.22-27.5,14.75
		c7.25-4.87,14.62-9.55,21.9-14.39c2.89-1.82,3.8-5.36,5.39-8.19c-1.45,0.28-2.89,0.55-4.32,0.88c-5.75,0.99-9.99,5.38-15.13,7.8
		c6.05-5.24,12.27-10.26,18.37-15.45c0.78,1.62,1.53,3.27,2.32,4.9c2.85-3.73,5.43-7.68,7.19-12.05c0.02,4.65-0.64,9.3-2.47,13.6
		c4.58-5.97,7.22-13.1,8.35-20.5c1.34,3.78,0.93,7.73-0.22,11.48c7.23-12.21,10.86-27.58,5.5-41.2c-2.11-3.17-5.52-5.21-8.25-7.81
		c-3.9,6.51-7.57,13.15-11.37,19.72c-7.45-0.05-14.89-0.01-22.33-0.02c-2.71,4.8-5.16,9.74-7.83,14.56
		c1.49-6.42,3.78-12.61,5.66-18.91c7.49-0.84,15-1.41,22.48-2.31c3.18-6.37,6.34-12.75,9.57-19.09
		c-5.97-6.04-12.32-11.73-19.16-16.79c-27.36-20.63-61.44-31.57-95.55-32.74c2.37,4.78,4.54,9.68,5.85,14.86
		c-2.95,4.82-6.22,9.49-8.75,14.54c1.19,4.65,3.44,8.95,4.85,13.54c-3.35-4.29-6.64-8.62-9.91-12.97c3.26-5.62,6.73-11.13,10-16.74
		c-1.78-4.44-3.62-8.86-5.61-13.21C-11.48,215.38-16.44,216.19-21.33,217.33 M-84.05,419.81c5.38,7.89,12.68,15.23,22.13,17.84
		c5.95,1.74,12.26,0.52,17.85-1.85c-1.99-2.31-4.17-4.52-6.91-5.94C-61.16,424.23-72.7,421.78-84.05,419.81 M65.37,425.2
		c-6.42,2.32-13.11,5.06-17.5,10.55c5.37,2.31,11.4,3.59,17.18,2.06c9.78-2.37,17.29-9.94,22.84-17.97
		C80.26,421.04,72.69,422.71,65.37,425.2 M37.05,527.68c-0.82,6.18-1.29,12.56-3.96,18.3c-1.28,3.22-4.02,5.65-7.43,6.39
		c0.51,16.45,1.43,33.11-1.58,49.39c4.49-8.54,8.99-17.32,10.42-26.98C37.91,559.35,38.93,543.39,37.05,527.68 M-31.02,543.81
		c1.2,7.57,1.4,15.34,3.61,22.72c5.12,13.57,8.81,27.63,11.97,41.77c-1.5-17.85-1.91-35.8-3.14-53.68
		c-6.84-5.62-9.52-14.41-11.35-22.73C-30.27,535.87-31.91,539.78-31.02,543.81 M52.37,545.38c0.4,8.17,0.28,16.36-0.03,24.53
		c-0.27,6.55-0.72,13.2-3.02,19.4c2.17-5.69,3.82-11.57,5.7-17.37c3.77-12.84,8.58-25.57,10-38.96
		C61.19,537.45,57.8,542.7,52.37,545.38 M16.79,534.36c-1.49,6.92-1.55,14.85-6.5,20.4c-0.03,15.34-0.12,30.68,0.04,46.02
		c1.38,4.16,3.69,8.02,4.8,12.31c1.25-5.11,2.38-10.25,3.93-15.28c0.45-1.54,1.17-3.01,2.34-4.13c0.16-13.91,0.11-27.82,0.03-41.73
		C20.73,545.96,20.38,539.46,16.79,534.36 M-55.98,535.45c2.08,20.02,7.42,39.72,16.08,57.9c-3.05-15.02-4.86-30.42-3.59-45.74
		C-48.83,544.92-52.08,539.75-55.98,535.45 M-40.23,536.19c-3.19,18.15-0.07,36.87,6.79,53.82c0.23-5.89-0.38-11.83,0.63-17.67
		c0.72-4.72,1.08-9.57,0.24-14.3c-0.69-3.67-2.88-6.79-4.25-10.21C-38.43,544.1-39.36,540.14-40.23,536.19 M-15.54,556.91
		c0.7,19.11,2.91,38.14,5.58,57.08c3.58-18.94,5.93-38.14,6.5-57.41c-1.56-1.84-3.57-3.31-4.8-5.43c-2.5-4.05-2.93-8.9-3.25-13.53
		C-12.58,544.1-14.62,550.4-15.54,556.91 M45.88,537.44c-1.17,5.39-1.66,11.64-6.04,15.56c-0.53,14.84-1.63,29.67-1.77,44.52
		C43.95,578.22,49.82,557.72,45.88,537.44 M2.93,544.52c-0.87,6.45-2.09,12.89-2.55,19.39c0.83,16.09,1.71,32.18,2.45,48.28
		c0.87-13.73,0.8-27.5,1.35-41.25C4.81,562.11,3.65,553.3,2.93,544.52z"/>
	<path d="M-39.25,226.55c5.33-1.44,10.73-2.89,16.29-2.82c-4.51,1.66-9.16,2.88-13.68,4.5c-9.42,3.35-18.37,7.88-27,12.9
		c1.12,13.68,4.7,27.22,11.07,39.41c7.91,14.51,17.65,28.01,28.36,40.58c-23.37-18.49-42.06-43.01-53.36-70.6
		c6,7.75,11.7,15.73,17.68,23.49c-5.74-10.56-8.74-22.47-8.78-34.49C-59.6,233.75-49.64,229.34-39.25,226.55z"/>
	<path d="M23.35,223.21c5-0.28,9.89,0.94,14.67,2.22c10.29,2.78,20.25,7.25,28.76,13.71c-0.01,10.85-3.58,21.48-7.63,31.47
		c6.61-8.18,13.24-16.34,20.07-24.33c-12.46,26.57-30.6,50.49-52.63,69.86c4.44-5.49,9.01-10.88,13.01-16.72
		c6.3-9.33,12.69-18.79,16.55-29.45c3.55-9.46,5.35-19.57,5.34-29.68C49.92,232.34,36.94,226.67,23.35,223.21z"/>
	<path d="M91.05,271.64c4.05-2.59,7.25-6.29,11.09-9.17c-2.18,4.68-4.49,9.29-6.66,13.97c-5.14,0.02-10.27,0-15.4,0.04
		c-7.15,9.95-14.14,20.01-21.42,29.86c5.85-11.67,12.57-22.88,18.61-34.45C81.86,271.65,86.47,272.06,91.05,271.64z"/>
	<path d="M-30.48,389.67c8.17,5.07,15.95,11.65,20.02,20.56c1.2,2.64,2.2,6.65-0.83,8.49c-5.55,2.95-12.35,1.29-17.5-1.77
		c4.63,0.47,10.01,2.16,14.18-0.76c2.92-2.25,1.5-6.3,0.49-9.17C-17.04,399.21-25.07,395.46-30.48,389.67z"/>
	<path d="M16.54,411.28c3.82-9.58,12.13-16.48,20.68-21.78c-5.61,5.84-13.77,9.74-16.76,17.71c-0.97,2.93-2.18,7.24,0.97,9.29
		c4.17,2.41,9.19,0.89,13.69,0.62c-5.12,2.81-11.63,4.49-17.12,1.74C15.2,417.41,15.47,413.77,16.54,411.28z"/>
	<path d="M-123.52,406.88c0.52-4.96-1.42-9.58-3.25-14.06c2.04,3.72,4.22,7.65,4.3,12.01c0.16,4.51-0.01,9.02-0.03,13.54l-0.79-0.09
		c-0.27,4.51-1.89,8.76-3.49,12.94C-124.81,423.25-122.95,415.15-123.52,406.88z"/>
	<path d="M60.47,483.07c7.06-7.62,17.79-9.9,27.71-11c-7.9,2.47-15.28,7.4-19.25,14.82c-4.04,6.86-4.92,14.91-5.54,22.69
		c-1.82-9.56,0.05-19.48,4.27-28.17C65.27,481.99,62.88,482.58,60.47,483.07z"/>
	<path d="M-78.2,474.37c9.82,1.09,20.3,3.59,27.34,11.01c-2.46-0.52-4.9-1.09-7.35-1.66c4.5,9.14,6.19,19.7,3.87,29.71
		c0.2-10.14-1.61-20.94-8.34-28.9C-66.65,479.59-72.4,476.63-78.2,474.37z"/>
</g>
<g id="_x23_028cddff">
	<path class="st0" d="M-21.33,217.33c4.89-1.14,9.85-1.95,14.79-2.79c1.99,4.35,3.83,8.77,5.61,13.21
		c-3.27,5.61-6.74,11.12-10,16.74c3.27,4.35,6.56,8.68,9.91,12.97c-1.41-4.59-3.66-8.89-4.85-13.54c2.53-5.05,5.8-9.72,8.75-14.54
		c-1.31-5.18-3.48-10.08-5.85-14.86c34.11,1.17,68.19,12.11,95.55,32.74c6.84,5.06,13.19,10.75,19.16,16.79
		c-3.23,6.34-6.39,12.72-9.57,19.09c-7.48,0.9-14.99,1.47-22.48,2.31c-1.88,6.3-4.17,12.49-5.66,18.91
		c2.67-4.82,5.12-9.76,7.83-14.56c7.44,0.01,14.88-0.03,22.33,0.02c3.8-6.57,7.47-13.21,11.37-19.72c2.73,2.6,6.14,4.64,8.25,7.81
		c5.36,13.62,1.73,28.99-5.5,41.2c1.15-3.75,1.56-7.7,0.22-11.48c-1.13,7.4-3.77,14.53-8.35,20.5c1.83-4.3,2.49-8.95,2.47-13.6
		c-1.76,4.37-4.34,8.32-7.19,12.05c-0.79-1.63-1.54-3.28-2.32-4.9c-6.1,5.19-12.32,10.21-18.37,15.45c5.14-2.42,9.38-6.81,15.13-7.8
		c1.43-0.33,2.87-0.6,4.32-0.88c-1.59,2.83-2.5,6.37-5.39,8.19c-7.28,4.84-14.65,9.52-21.9,14.39c9.36-4.53,18.3-9.89,27.5-14.75
		c4.55-2.29,8.22-6.8,13.68-6.86c4.41-0.48,8.19,2.17,11.15,5.11c1.28,0.09,2.55,0.18,3.83,0.27c0.58-1.64,1.15-3.29,1.75-4.93
		c0.69,3.81,0.44,7.82,1.56,11.51c5.09,5.84,11.44,12.53,9.78,21.01c-1.08-1.05-2.15-2.11-3.21-3.18
		c-0.25,4.08-0.88,8.12-1.49,12.16c-9.13,3-14.98,11.13-21.61,17.56c-0.06-3.17,0.23-6.32,0.53-9.46c-1.93,3.51-3.08,7.39-3.35,11.4
		c-8.58,2.31-17.02,5.21-25.03,9.09c-15.3,7.01-28.12,18.34-43.38,25.45c-6.37,3.19-13.15,5.45-19.95,7.56
		c12.58,8.49,25.2,16.92,37.76,25.43c2.96,2.3,6.9,0.96,10.13,0.04c7.77-2.75,14.11-8.36,19.86-14.11
		c8.33-8.63,15.35-18.41,21.74-28.54c-0.52,2.18-1.06,4.36-1.94,6.42c-4.72,10.95-11.24,20.98-17.45,31.11
		c11.5-7.61,17.69-20.69,22.53-33.14c2.48-5.44,1.29-11.59,3.02-17.21c2.69-11.44,10.97-21.15,21.53-26.16
		c-8.48,11.69-12.79,26.72-9.95,41.06c1.29,5.63,1.24,11.43,2.13,17.11c0.4,3.75,4.35,5.18,6.39,7.88c0.87,5.2-3.47,9.25-6.61,12.81
		c-5.57,5.23-5.84,13.78-4.05,20.74c-7.54,3.35-16.41,4-24.08,0.69c-6.51-2.98-14.03-2.18-20.75-0.39
		c-9.97,2.75-18.18,10.6-21.69,20.29c-4.2,10.34-3.25,22.13,0.86,32.34c-6.54-0.24-11.26,4.92-15.05,9.57
		c0.84-11.63-3.04-22.95-8-33.28c-0.4,3.43-0.72,6.87-0.94,10.32c3.26,3.86,7.11,8.38,6.44,13.8c-0.72,4.36-5.01,6.56-8.68,8.12
		c-1.03-12.63-4.17-24.96-7.8-37.07c-0.58,4.03-1.99,8.27-0.25,12.2c2.52,6.46,0.3,13.52-3.23,19.13
		c-1.67-5.8-3.78-11.54-7.09-16.62c-1.37-2.25-3.13-4.26-4.31-6.61c-0.32-2.15-0.21-4.33-0.24-6.49c1.39-0.01,2.8-0.02,4.2-0.02
		c0.63,0.95,1.27,1.9,1.92,2.85c-0.69-4.49-3.67-8.1-7.89-9.72c-0.12,5.06-0.1,10.13-0.03,15.19c5.81,5.95,7.5,14.4,9.6,22.14
		c1.96,6.23-0.02,12.74-2.55,18.49c-1.2-10.66-1.92-22.38-8.97-31.07c-1.5,12.18-4.17,24.36-9.41,35.52
		c-0.35-17.67-0.06-35.35-0.15-53.02c4.84-7.3,9.66-14.61,14.47-21.92c-2.14-0.12-4.28-0.25-6.41-0.42
		c-5.13-16.7-6.56-34.29-7.74-51.64c6.58,8.79,12.66,17.96,19.41,26.63c-0.91-4.81-3.12-9.19-5.34-13.5
		c9.67,8.94,14.53,21.59,19.92,33.3c-2.14-10.92-7.79-20.76-12.13-30.92c5.32,5.87,10.03,12.26,15.45,18.04
		c-4.86-9.25-11.71-17.23-17.78-25.69c6.3,4.3,12.36,8.93,18.64,13.25c-4.07-4.35-8.78-8.04-12.89-12.35
		c-2.19-2.47-3.18-6.99-7.28-6.79c-4.1-0.5-10.17-0.35-11.74-5.12c-0.18-6.25-2.21-12.92,0.55-18.88c2.2-4.9,7.17-7.53,10.74-11.3
		c10.27-11.35,22.54-20.63,34.06-30.63c-19.81,10.41-36.24,26.58-48.77,44.99c-0.3-6.2,2.33-11.94,5.74-16.96
		c-2.39,1.33-4.75,2.72-7.09,4.12c3.71-15.71,15.06-28,26.28-38.96c0.67,1.63,1.47,3.22,2.48,4.68c0.75-2.41,0.53-5.22,2-7.36
		c9.01-10.53,15.11-23.17,20.8-35.71c-10.69,18.49-24.28,35.27-40.18,49.54c0.28-1.46,0.84-4.38,1.12-5.84
		c-5.94,9.24-9.85,19.56-14.28,29.57c-0.08-7.35,0.01-14.7-0.07-22.04c-0.46-6.59,3.02-12.46,4.96-18.54
		c2.71-8.06,6.62-15.7,8.72-23.95c1.51-6.91,0.71-14.08-0.89-20.9c-0.23,19.22-7.18,37.56-15.48,54.63
		c-11.95-16.46-14.75-37.42-15.39-57.23c-2.24,5.03-3.27,10.57-2.67,16.08c1.63,16.06,8.92,30.77,16.14,44.95
		c0.56,9.15,0.13,18.37,0.17,27.55c-8.39-17.43-20.07-33.37-34.75-46.03c-4.84-3.78-6.92-9.78-10.25-14.73
		c-11.3-18.39-21.42-37.45-31.78-56.38c-4.58-0.01-9.16-0.02-13.75,0.03c-3.71-3.11-7.34-6.31-11.05-9.42
		c2.25,5.52,4.97,10.82,7.62,16.16c4.86,0.01,9.72,0,14.58,0.02c16.92,27.28,33.87,54.53,50.73,81.84
		c-0.12-2.18-0.24-4.37-0.33-6.55c13.87,9.73,23.88,24.81,27.03,41.51c-1.86-2.34-4.01-4.45-6.43-6.21
		c1.62,5.41,3.34,10.79,5.09,16.16c-4.94-7.81-12.14-13.77-18.91-19.92c-9.21-7.92-18.41-15.87-28.13-23.17
		c12.38,13.69,26.27,25.93,40.18,38.02c3.9,7.21,3.59,16.04,1.46,23.79c-3.99,0.08-8.64-0.69-12.02,1.89
		c-4.72,7.01-11.43,12.32-16.9,18.71c5.82-3.94,11.49-8.08,17.25-12.1c-5.94,7.03-11.08,14.73-15.08,23.02
		c4.25-5.28,8.87-10.23,13.39-15.27c-4.64,7.65-8.03,16.03-10.14,24.72c4.26-10.06,10.02-19.49,17.04-27.86
		c-0.83,3.5-1.67,7-2.43,10.52c6.07-7.46,11.74-15.22,17.78-22.7c0.21,4.67-0.15,9.34-0.97,13.94c-2.06,12.2-4.71,24.3-7.89,36.25
		c-0.58,3.06-4.36,2.47-6.67,2.56c4.06,5.91,7.87,11.99,11.8,17.98c1.69,2.22,1.42,5.1,1.43,7.72c-0.46,13.32,0.46,26.66-0.47,39.96
		c-1.02-9.89-4.44-19.45-9.54-27.96c-5.9,9.76-4.89,21.73-5.8,32.66c-2.57-3.72-3.5-8.23-3.15-12.7c0.32-10.23,1.16-21.89,9-29.43
		c-1.06-4.64-2.28-9.25-3.47-13.85c-0.07,4.43-0.03,8.87-0.09,13.31c-4.85,5.02-7.5,11.64-9.28,18.28
		c-4.66-9.85-4.03-21.03-3.69-31.63c-2.45,5.2-3.51,10.89-4.51,16.52c-1.32,8.14-2.73,16.28-3.3,24.52
		c-0.91-1.62-1.72-3.64-3.79-4.02c-1.64,0.31-2.94,1.44-4.36,2.25c-0.05-4.27-0.01-8.66,1.63-12.68c2.61-6.56,2.19-13.71,2.31-20.61
		c-1.21,6.12-3,12.09-4.84,18.05c-1.27,6.17-0.96,12.54-1.75,18.78c-2.92-6.41-8.93-11.06-15.99-11.79
		c2.17-12.49,1.85-25.78-3.11-37.59c-4.6-7.91-13.6-13.6-22.92-13c-9.97,0.37-18.75,5.96-26.26,12.09
		c2.52-5.16,5.2-10.26,7.28-15.62c-5.16,4.01-8.45,9.79-11.35,15.52c0.31-7.69-1.46-15.24-3-22.72c-0.85,7.4-1.04,14.86-2.19,22.23
		c-0.53-9.96-0.5-19.98-1.43-29.9c-2.93-5.76-7.26-10.71-11.25-15.77c6.77-10.9,10.45-24.07,8.49-36.89
		c-1.26-9.87-5.41-19.16-11.15-27.23c6.22,1.54,12.08,5.1,15.37,10.74c3.51,5.84,5.01,12.71,5.03,19.48
		c-0.16,5.6,2.28,10.81,4.95,15.58c3.09,5.23,6.47,10.32,10.52,14.85c-4.75-8.33-8.06-17.53-8.97-27.12
		c6.09,13.49,14.9,25.88,26.63,35.03c5.34,4.08,10.88,8.26,17.41,10.17c4.83,1.29,10.4,1.07,14.62-1.84
		c10.38-8.47,21.62-15.83,32.38-23.81c-7.14-1.37-14.29-3.02-20.92-6.07c-11.96-5.08-21.82-13.84-33.41-19.59
		c-10.14-5.31-21.39-8.19-32.71-9.58c-1.02-6.13-4.13-11.59-7.69-16.59c1.41,3.84,2.91,7.65,4.28,11.52
		c-5.7-2.74-7.33-9.33-12.11-13.07c-3.36-3.11-7.69-4.81-12.05-6c0.05-5.42,0.02-10.84,0.03-16.25c-1.88,1.49-3.76,2.98-5.72,4.36
		c1.15-8,7.96-13.18,12.22-19.49c0.38-3.75,0.1-7.52,0.17-11.28c1.58,1.57,3.16,3.14,4.73,4.72c1.45-0.01,2.9-0.02,4.35-0.03
		c0-1.38,0.01-2.77,0.02-4.15c4.63-0.48,9.51-1.31,14,0.36c1.85,0.53,2.49,2.46,3.33,3.97c10.52,5.01,20.79,10.55,31.42,15.32
		c-7.28-4.45-14.63-8.79-21.93-13.22c-2.81-1.53-3.54-4.95-5.06-7.52c3.46,0.55,7.17,0.52,10.31,2.27
		c3.42,1.84,6.72,3.89,10.18,5.65c-6.1-5.41-12.4-10.61-18.85-15.62c-0.49,1.6-0.99,3.2-1.49,4.8c-1.53-0.33-3.06-0.67-4.59-1.01
		c-1.13-4.05-2.13-8.14-3.67-12.05c-0.48,5.06,1.45,9.79,3.28,14.38c-6.82-6.98-10.25-16.47-11.67-25.96
		c0.02,6.15,0.72,12.26,1.41,18.37c-8.17-14.04-8.64-31.91-1.41-46.43c4.42,7.55,8.67,15.2,13,22.79c7.27,0.19,14.53,0.29,21.8,0.37
		c3.05,4.45,5.71,9.14,8.75,13.58c-2.72-6.39-6.08-12.48-9.06-18.75c-7.04-0.8-14.09-1.43-21.11-2.37
		c-2.95-6.57-6.18-13.03-9.19-19.58C-86.88,243.72-55.48,224.97-21.33,217.33 M-39.25,226.55c-10.39,2.79-20.35,7.2-29.42,12.97
		c0.04,12.02,3.04,23.93,8.78,34.49c-5.98-7.76-11.68-15.74-17.68-23.49c11.3,27.59,29.99,52.11,53.36,70.6
		c-10.71-12.57-20.45-26.07-28.36-40.58c-6.37-12.19-9.95-25.73-11.07-39.41c8.63-5.02,17.58-9.55,27-12.9
		c4.52-1.62,9.17-2.84,13.68-4.5C-28.52,223.66-33.92,225.11-39.25,226.55 M23.35,223.21c13.59,3.46,26.57,9.13,38.14,17.08
		c0.01,10.11-1.79,20.22-5.34,29.68c-3.86,10.66-10.25,20.12-16.55,29.45c-4,5.84-8.57,11.23-13.01,16.72
		c22.03-19.37,40.17-43.29,52.63-69.86c-6.83,7.99-13.46,16.15-20.07,24.33c4.05-9.99,7.62-20.62,7.63-31.47
		c-8.51-6.46-18.47-10.93-28.76-13.71C33.24,224.15,28.35,222.93,23.35,223.21 M91.05,271.64c-4.58,0.42-9.19,0.01-13.78,0.25
		c-6.04,11.57-12.76,22.78-18.61,34.45c7.28-9.85,14.27-19.91,21.42-29.86c5.13-0.04,10.26-0.02,15.4-0.04
		c2.17-4.68,4.48-9.29,6.66-13.97C98.3,265.35,95.1,269.05,91.05,271.64 M-30.48,389.67c5.41,5.79,13.44,9.54,16.36,17.35
		c1.01,2.87,2.43,6.92-0.49,9.17c-4.17,2.92-9.55,1.23-14.18,0.76c5.15,3.06,11.95,4.72,17.5,1.77c3.03-1.84,2.03-5.85,0.83-8.49
		C-14.53,401.32-22.31,394.74-30.48,389.67 M16.54,411.28c-1.07,2.49-1.34,6.13,1.46,7.58c5.49,2.75,12,1.07,17.12-1.74
		c-4.5,0.27-9.52,1.79-13.69-0.62c-3.15-2.05-1.94-6.36-0.97-9.29c2.99-7.97,11.15-11.87,16.76-17.71
		C28.67,394.8,20.36,401.7,16.54,411.28 M-123.52,406.88c0.57,8.27-1.29,16.37-3.26,24.34c1.6-4.18,3.22-8.43,3.49-12.94l0.79,0.09
		c0.02-4.52,0.19-9.03,0.03-13.54c-0.08-4.36-2.26-8.29-4.3-12.01C-124.94,397.3-123,401.92-123.52,406.88 M133.84,431.02
		c-1.57-12.48-4.56-25.48,0.01-37.72C125.71,404.44,128.7,419.28,133.84,431.02 M60.47,483.07c2.41-0.49,4.8-1.08,7.19-1.66
		c-4.22,8.69-6.09,18.61-4.27,28.17c0.62-7.78,1.5-15.83,5.54-22.69c3.97-7.42,11.35-12.35,19.25-14.82
		C78.26,473.17,67.53,475.45,60.47,483.07 M-78.2,474.37c5.8,2.26,11.55,5.22,15.52,10.16c6.73,7.96,8.54,18.76,8.34,28.9
		c2.32-10.01,0.63-20.57-3.87-29.71c2.45,0.57,4.89,1.14,7.35,1.66C-57.9,477.96-68.38,475.46-78.2,474.37z"/>
</g>
<g id="_x23_104b6dff">
	<path class="st1" d="M133.84,431.02c-5.14-11.74-8.13-26.58,0.01-37.72C129.28,405.54,132.27,418.54,133.84,431.02z"/>
</g>
<g id="_x23_840000ff">
	<path class="st2" d="M-84.05,419.81c11.35,1.97,22.89,4.42,33.07,10.05c2.74,1.42,4.92,3.63,6.91,5.94
		c-5.59,2.37-11.9,3.59-17.85,1.85C-71.37,435.04-78.67,427.7-84.05,419.81z"/>
	<path class="st2" d="M65.37,425.2c7.32-2.49,14.89-4.16,22.52-5.36c-5.55,8.03-13.06,15.6-22.84,17.97
		c-5.78,1.53-11.81,0.25-17.18-2.06C52.26,430.26,58.95,427.52,65.37,425.2z"/>
</g>
<g id="_x23_fdfdfdff">
	<path class="st3" d="M37.05,527.68c1.88,15.71,0.86,31.67-2.55,47.1c-1.43,9.66-5.93,18.44-10.42,26.98
		c3.01-16.28,2.09-32.94,1.58-49.39c3.41-0.74,6.15-3.17,7.43-6.39C35.76,540.24,36.23,533.86,37.05,527.68z"/>
	<path class="st3" d="M-31.02,543.81c-0.89-4.03,0.75-7.94,1.09-11.92c1.83,8.32,4.51,17.11,11.35,22.73
		c1.23,17.88,1.64,35.83,3.14,53.68c-3.16-14.14-6.85-28.2-11.97-41.77C-29.62,559.15-29.82,551.38-31.02,543.81z"/>
	<path class="st3" d="M52.37,545.38c5.43-2.68,8.82-7.93,12.65-12.4c-1.42,13.39-6.23,26.12-10,38.96
		c-1.88,5.8-3.53,11.68-5.7,17.37c2.3-6.2,2.75-12.85,3.02-19.4C52.65,561.74,52.77,553.55,52.37,545.38z"/>
	<path class="st3" d="M16.79,534.36c3.59,5.1,3.94,11.6,4.64,17.59c0.08,13.91,0.13,27.82-0.03,41.73
		c-1.17,1.12-1.89,2.59-2.34,4.13c-1.55,5.03-2.68,10.17-3.93,15.28c-1.11-4.29-3.42-8.15-4.8-12.31
		c-0.16-15.34-0.07-30.68-0.04-46.02C15.24,549.21,15.3,541.28,16.79,534.36z"/>
	<path class="st3" d="M-55.98,535.45c3.9,4.3,7.15,9.47,12.49,12.16c-1.27,15.32,0.54,30.72,3.59,45.74
		C-48.56,575.17-53.9,555.47-55.98,535.45z"/>
	<path class="st3" d="M-40.23,536.19c0.87,3.95,1.8,7.91,3.41,11.64c1.37,3.42,3.56,6.54,4.25,10.21c0.84,4.73,0.48,9.58-0.24,14.3
		c-1.01,5.84-0.4,11.78-0.63,17.67C-40.3,573.06-43.42,554.34-40.23,536.19z"/>
	<path class="st3" d="M-15.54,556.91c0.92-6.51,2.96-12.81,4.03-19.29c0.32,4.63,0.75,9.48,3.25,13.53c1.23,2.12,3.24,3.59,4.8,5.43
		c-0.57,19.27-2.92,38.47-6.5,57.41C-12.63,595.05-14.84,576.02-15.54,556.91z"/>
	<path class="st3" d="M45.88,537.44c3.94,20.28-1.93,40.78-7.81,60.08c0.14-14.85,1.24-29.68,1.77-44.52
		C44.22,549.08,44.71,542.83,45.88,537.44z"/>
	<path class="st3" d="M2.93,544.52c0.72,8.78,1.88,17.59,1.25,26.42c-0.55,13.75-0.48,27.52-1.35,41.25
		c-0.74-16.1-1.62-32.19-2.45-48.28C0.84,557.41,2.06,550.97,2.93,544.52z"/>
</g>
</svg>
