<?xml version="1.0" encoding="utf-8"?>
<!-- Generator: Adobe Illustrator 21.0.0, SVG Export Plug-In . SVG Version: 6.00 Build 0)  -->
<svg version="1.1" id="Layer_1" xmlns="http://www.w3.org/2000/svg" xmlns:xlink="http://www.w3.org/1999/xlink" x="0px" y="0px"
	 viewBox="0 0 640.094 1172.4" style="enable-background:new 0 0 640.094 1172.4;" xml:space="preserve">
<style type="text/css">
	.st0{fill:#48BBEC;stroke:#48BBEC;stroke-width:0.0938;}
	.st1{fill:#373737;stroke:#373737;stroke-width:0.0938;}
	.st2{fill:#6EAFD6;stroke:#6EAFD6;stroke-width:0.0938;}
	.st3{fill:#D9CBAC;stroke:#D9CBAC;stroke-width:0.0938;}
	.st4{fill:#AB9460;stroke:#AB9460;stroke-width:0.0938;}
	.st5{fill:#63B8D4;stroke:#63B8D4;stroke-width:0.0938;}
	.st6{fill:#61B0CA;stroke:#61B0CA;stroke-width:0.0938;}
	.st7{fill:#FEFEFF;stroke:#FEFEFF;stroke-width:0.0938;}
	.st8{fill:#6AA3B7;stroke:#6AA3B7;stroke-width:0.0938;}
	.st9{fill:#D8C9AB;stroke:#D8C9AB;stroke-width:0.0938;}
	.st10{fill:#D8C9AA;stroke:#D8C9AA;stroke-width:0.0938;}
	.st11{fill:#797569;stroke:#797569;stroke-width:0.0938;}
	.st12{fill:#838383;stroke:#838383;stroke-width:0.0938;}
	.st13{fill:#B7B7B7;stroke:#B7B7B7;stroke-width:0.0938;}
	.st14{fill:#C6C5C3;stroke:#C6C5C3;stroke-width:0.0938;}
	.st15{fill:#FFFFFF;stroke:#FFFFFF;stroke-width:0.0938;}
	.st16{fill:#F3F3F3;stroke:#F3F3F3;stroke-width:0.0938;}
	.st17{fill:#959595;stroke:#959595;stroke-width:0.0938;}
	.st18{fill:#D6D6D6;stroke:#D6D6D6;stroke-width:0.0938;}
	.st19{fill:#E2E0E1;stroke:#E2E0E1;stroke-width:0.0938;}
	.st20{fill:#47BBEC;stroke:#47BBEC;stroke-width:0.0938;}
	.st21{fill:#F4E94F;stroke:#F4E94F;stroke-width:0.0938;}
	.st22{fill:#F4E950;stroke:#F4E950;stroke-width:0.0938;}
	.st23{fill:#828282;stroke:#828282;stroke-width:0.0938;}
	.st24{fill:#9A6320;stroke:#9A6320;stroke-width:0.0938;}
	.st25{fill:#8A8984;stroke:#8A8984;stroke-width:0.0938;}
	.st26{fill:#D8CCBC;stroke:#D8CCBC;stroke-width:0.0938;}
	.st27{fill:#706353;stroke:#706353;stroke-width:0.0938;}
	.st28{fill:#716353;stroke:#716353;stroke-width:0.0938;}
	.st29{fill:#776446;stroke:#776446;stroke-width:0.0938;}
	.st30{fill:#94948F;stroke:#94948F;stroke-width:0.0938;}
	.st31{fill:#FEFCE4;stroke:#FEFCE4;stroke-width:0.0938;}
	.st32{fill:#353332;stroke:#353332;stroke-width:0.0938;}
	.st33{fill:#FFFFEF;stroke:#FFFFEF;stroke-width:0.0938;}
	.st34{fill:#555455;stroke:#555455;stroke-width:0.0938;}
	.st35{fill:#66B2D4;stroke:#66B2D4;stroke-width:0.0938;}
	.st36{fill:#6EB7DC;stroke:#6EB7DC;stroke-width:0.0938;}
	.st37{fill:#63B2C9;stroke:#63B2C9;stroke-width:0.0938;}
</style>
<path class="st0" d="M45.967,0.046c13.71,3.24,27.41,6.62,40.87,10.78c8.49,2.45,15.71,7.84,22.53,13.27
	c7.5,6.54,14.87,13.62,19.55,22.53c8.54,15.93,12.99,33.82,14.39,51.77c0.16,13.69-3.2,27.39-9.73,39.44
	c-3.89,7.2-9.07,13.59-14.21,19.92c-4.36,5.33-9.42,10.14-13.04,16.02c-1.43,1.96-0.65,4.45-0.29,6.63
	c2.17,9.26,5.9,19.47,15.06,23.92c25.01-27.22,58.36-45.74,93.5-56.43c31.28-9.45,63.91-14.27,96.55-15.16
	c6.17,1.99,12.62,0.32,18.93,0.65c6.01-0.04,12.18,1.39,18.02-0.66c30.15,0.94,60.26,6.03,88.81,15.86
	c25.51,8.8,49.44,22.47,69.6,40.43c5,4.6,9.6,9.59,14.48,14.31c8.69-6.43,12.58-17.51,13.42-27.89
	c-4.67-8.96-12.87-15.41-18.64-23.64c-12.99-15.6-20.25-36.04-18.97-56.38c2.06-19.89,7.9-39.61,18.68-56.57
	c5.55-8.78,12.16-17.18,20.87-23.01c7.32-5.04,15.91-7.99,24.65-9.35c11.96-2.2,24.16-1.84,36.27-1.7
	c-1.44,2.74-3.16,5.29-5.05,7.73c-7.7,10.6-15.53,21.23-20.84,33.29c-6.44,11.77-6.92,25.63-5.42,38.67
	c0.38,2.28,0.39,5.02,2.48,6.52c5.13,4.04,11.07,6.91,16.61,10.34c16.86,10.33,32.25,24.11,41.21,42
	c9.32,17.31,13.3,37.03,13.79,56.56v6.16c-0.47,22.1-5.39,44.22-15.41,63.99c-9.4,19.64-23.88,36.54-40.58,50.36
	c2.32,3.77,4.64,7.73,5,12.25c1.15,12.26,2.77,24.47,3.69,36.75c1.29,12.27,2.46,24.6,1.69,36.95c0.18-4.35,0.43-8.69,0.91-13
	c-0.42,16.04,2.34,32.12,0.09,48.11c-0.4,3.37-1.75,6.57-2.02,9.96c0.13,3.84,1.69,7.42,2.5,11.14c5.63,24.55,9.15,49.69,8.92,74.92
	c0.45,39.24-7.49,79.78-29.22,113.02c3.44,12.06,5.43,24.5,8.81,36.56c11.59-1.45,23.26-2.25,34.91-3.16
	c-10.26,10.66-20.49,21.38-30.67,32.11c-0.59,0.76-0.93,1.62-1.02,2.6c-9.17,74.86-17.96,149.77-26.63,224.69
	c-0.44,3.34-0.89,6.68-1.39,10.02c-5.68-12.26-10.67-24.84-16.27-37.14c-1.71-3.7-3.01-7.62-5.29-11.03
	c-4.6,28.71-9.04,57.45-14.41,86.03c-4.54,24.18-8.36,48.5-13.05,72.63c-3.12-8.89-4.93-18.17-7.4-27.24
	c-3.27-13.16-6.75-26.27-10.06-39.41c-1.99-7.3-3.48-14.74-6.12-21.83c-2.88,27.12-9.46,53.78-18.59,79.46
	c-5.04,14.35-9.75,28.82-14.93,43.13c-14.21-28.36-29.02-56.42-43.08-84.85c-0.76-1.44-1.68-2.75-2.61-4.05
	c-1.58,5.33-1.8,10.92-2.64,16.4c-3.95,28.45-8.32,56.86-13.93,85.03c-3.81,20.25-10.24,39.86-15.61,59.71
	c-1.26-0.59-2.58-0.9-3.97-0.92c-12.04-16.41-25.04-32.12-36.39-49.03c-18.44-26.21-35.27-53.56-50.42-81.78
	c-0.62-0.85-1.28-1.64-1.98-2.4c-1.31,32.99,1.81,65.93,2.8,98.88c-7.48-7.26-15.04-14.43-22.31-21.9
	c-7.08-6.18-13.4-13.16-20.17-19.67c-19-18.36-37.1-37.61-55.53-56.53c-10.27-11.06-20.63-22.06-30.38-33.59
	c-6.77-8.26-14.04-16.4-18.54-26.17c-7.65-24.24-12.74-49.2-17.51-74.13c-1.05,1.79-1.84,3.74-2.2,5.8
	c-4.95,25.26-9.27,50.63-13.91,75.95c-8.44-16.11-16.47-32.41-24.83-48.55c-8.37-16.17-14.39-33.43-19.73-50.8
	c-13.53-46.15-17.48-95.66-7.55-142.92c1.55-8.44,5.78-16.01,8.68-24.01c-11.98-11.83-23.96-23.65-35.86-35.55
	c10.72,0.92,21.41,2.21,32.13,3.18c4.93,0.43,9.86,1.46,14.82,1.09c3.72-9.3,6.34-19.02,9.47-28.53
	c6.73-22.11,12.77-44.49,16.35-67.35c2.66-15.39,3.97-31.08,2.92-46.69c-3.07-19.75-5.33-39.69-5.81-59.68
	c-11.1-4.3-22.22-9.76-30.11-18.95c-7.56-8.27-12-19.26-12.1-30.49c-0.86-34.16,3.55-68.14,7.02-102.05c0.18-2.78,1.06-5.44,2-8.04
	c-13.66-9.57-25.3-21.8-35.26-35.11c-12.83-18-21.39-38.98-25.22-60.72c-0.97-4.62-0.04-9.31-0.28-13.97
	c-0.47,3.76-1.45,7.44-1.72,11.23v-31.9c1.25-21.5,7.05-43.16,19.32-61.07c7.89-11.92,18.88-21.43,30.66-29.36
	c6.03-4.07,12.49-7.43,18.63-11.31c2.12-1.36,4.47-3.01,4.78-5.74c1.57-7.54,1.47-15.35,0.87-23c-1.46-9.69-5.49-18.76-9.73-27.52
	C58.497,24.526,52.207,12.296,45.967,0.046 M69.217,23.396c3.2,3.8,7.1,6.97,9.97,11.06c10.2,13.65,13.34,31.33,12.16,48.02
	c-1.22,6.59-1.02,13.75-4.62,19.66c-3.16,5.53-9.17,8.34-14.42,11.49c-11.21,6.06-22.44,12.53-31.42,21.72
	c-15.21,14.38-23.89,34.62-26.54,55.17c-1.61,10.9-1.04,21.97-0.85,32.94c1.34,18.71,6.92,37.09,16.12,53.43
	c11.01,20.13,27.37,37.04,46.25,49.94c1.67,1.22,3.67,2.07,5.07,3.62c-0.28,3.38-3.71,5.54-3.93,8.98c-3.66,26.25-6.61,52.6-8.55,79
	c-0.1,5.34,0.16,10.7-0.62,16.01c0.47,7.14,0.47,14.68,4.55,20.91c8.33,13.3,23.61,20.13,38.27,23.91
	c1.54,9.02,0.49,18.22,1.64,27.27c0.75,15.07,2.23,30.13,4.96,44.99c2.76,10.74,1.45,21.95,0.1,32.8
	c-6.24,42.12-19.37,82.85-34.03,122.71c-6.46-0.81-12.96-0.92-19.46-1.24c3.7,5.5,9.9,8.61,14.1,13.65
	c-2.62,11.33-9.92,21.33-11.59,33.03c-2.35,11.22-3.82,22.61-4.68,34.03c-0.51,17.65-0.73,35.41,1.89,52.91
	c3.1,24.15,8.93,47.99,17.77,70.7c4.59,12.49,10.79,24.28,16.28,36.39c1.24-2.59,1.59-5.45,2.16-8.22
	c3.48-16.29,8.43-32.24,14-47.93c2.59-6.73,4.72-13.7,8.34-19.97c5.16,36.03,14.19,71.4,24.92,106.14
	c1.31,4.21,3.96,7.82,6.64,11.26c9.05,11.37,19.34,21.65,29.4,32.1c0.1,3.29,3.27,6.2,6.49,6.45c5.74,5.67,11.43,11.38,17.2,17.02
	c-1.62,1.98,1.34,4.96,3.34,3.38c19.6,18.89,39.28,37.7,59.35,56.09c-1.88-24.4-0.71-48.89,0.8-73.28
	c1.09-11.46,1.77-22.99,3.92-34.31c2.73,5.12,4.56,10.65,7.2,15.82c5.29,11.49,11.23,22.65,17.4,33.68
	c20.56,36.78,44.45,71.63,70.36,104.83c0.91-1.31,1.19-2.87,1.57-4.35c2.32-10.48,6.05-20.58,8.51-31.02
	c10.15-40.63,16.97-81.99,25.23-123.01c2.61,3.12,4.33,6.84,6.53,10.25c11.7,19.34,23.68,38.52,35.32,57.91
	c2.21,3.07,3.54,6.84,6.47,9.34c2.64-13.66,7.94-26.58,11.51-39.99c10.71-39.81,14.64-81.42,11.17-122.51
	c2.37,1.11,2.47,4.08,3.51,6.2c12.28,31.25,20.21,63.93,29.26,96.2c9.25-47.29,13.52-95.34,19.97-143.05
	c0.57-4.05,0.02-8.13,0.17-12.19c6.08,14.23,12.11,28.49,17.32,43.06c1.8,4.38,2.91,9.1,5.51,13.12c0.33-5.11,1.43-10.12,2.29-15.15
	c9.31-57.07,15.52-114.61,21.63-172.04c0.93-2.61-0.73-6.13,1.76-8.02c3.54-3.33,7.09-6.65,10.57-10.05
	c-4.62,0.19-9.21,0.75-13.82,0.9c-4.09-20.03-8.83-39.95-14.96-59.46c-0.93-1.96,0.8-3.57,1.65-5.16
	c15.55-25.17,22.16-54.85,23.93-84.1c0.26-15.34,0.41-30.72-1.65-45.95c-1.74-16.23-4.99-32.27-9.08-48.06
	c3.99-3.88,6.43-8.94,8.2-14.14c1.08-2.44,0.52-5.26,1.07-7.83c0.91-4.97,0.41-10.02-0.1-14.99c-0.75-27.13-4.57-54.02-7.43-80.98
	c-0.9-2.53-0.49-5.3-1.25-7.83c-2.15-4.09-4.81-7.9-7.77-11.42c4.29-3.93,9.2-7.12,13.45-11.12c24.38-21.37,41.25-51.45,45.5-83.7
	c0.73-9.61,2.25-19.35,0.66-28.97c-0.63-28.42-13.25-57.35-36.73-74.19c-9.03-6.97-19.44-11.75-29.07-17.77
	c-5.01-3.09-9.09-8.02-10.07-13.94c-1.64-8.9-3.19-18.06-1.78-27.1c0.6-13.67,5.81-27.2,14.79-37.56c2.03,1.33,4.89-1.58,3.44-3.58
	c1.31-1.34,2.57-2.72,3.79-4.16c-10.78,3.13-21.26,8.16-29.18,16.27c-14.29,13.73-22.43,32.69-26.12,51.91
	c-1.74,6.88-1.65,14.06-1.22,21.1c1.55,13.83,8.35,26.48,17.16,37.04c6.37,8.31,14.64,15.52,18.39,25.54
	c1.72,9.15-1.53,18.31-5.01,26.65c-3.96,9.86-12.05,18.03-22.19,21.43c-2.54,0.7-5.23,2.44-7.9,1.68
	c-4.45-4.68-8.4-9.84-13.13-14.27c-16.51-16.33-36.49-28.98-57.76-38.17c-51.16-20.87-107.84-23.5-162.23-17.83
	c-21.3,2.52-42.52,6.37-62.98,12.91c-30.9,9.59-60.2,25.81-82.82,49.19c-2.4,2.34-4.25,5.26-6.95,7.29
	c-6-1.24-12.05-2.88-17.33-6.07c-8.4-5.11-13.61-13.88-16.7-22.98c0-6.79-3.49-13.52-1.43-20.35c0.93-2.15,2.24-4.17,2.49-6.55
	c5.47-7.84,12.23-14.67,17.77-22.44c6.72-9.12,11.58-19.75,13.2-31c0.71-8.22,0.7-16.64-1.48-24.65
	c-3.96-18.63-12.09-36.94-26.08-50.22C90.697,31.526,80.237,26.146,69.217,23.396 M564.597,81.566c0.65-6.1,0.45-12.27,0.02-18.37
	C563.327,69.146,562.967,75.666,564.597,81.566z"/>
<path class="st1" d="M69.217,23.396c11.02,2.75,21.48,8.13,29.51,16.23c13.99,13.28,22.12,31.59,26.08,50.22
	c2.18,8.01,2.19,16.43,1.48,24.65c-1.62,11.25-6.48,21.88-13.2,31c-5.54,7.77-12.3,14.6-17.77,22.44
	c-2.84,3.83-5.16,8.58-4.42,13.48c0.6,4.58,1.58,9.14,3.36,13.42c3.09,9.1,8.3,17.87,16.7,22.98c5.28,3.19,11.33,4.83,17.33,6.07
	c2.7-2.03,4.55-4.95,6.95-7.29c22.62-23.38,51.92-39.6,82.82-49.19c20.46-6.54,41.68-10.39,62.98-12.91
	c54.39-5.67,111.07-3.04,162.23,17.83c21.27,9.19,41.25,21.84,57.76,38.17c4.73,4.43,8.68,9.59,13.13,14.27
	c2.67,0.76,5.36-0.98,7.9-1.68c10.14-3.4,18.23-11.57,22.19-21.43c3.48-8.34,6.73-17.5,5.01-26.65
	c-3.75-10.02-12.02-17.23-18.39-25.54c-8.81-10.56-15.61-23.21-17.16-37.04c-0.43-7.04-0.52-14.22,1.22-21.1
	c3.69-19.22,11.83-38.18,26.12-51.91c7.92-8.11,18.4-13.14,29.18-16.27c-1.22,1.44-2.48,2.82-3.79,4.16
	c-1.21,1.14-2.41,2.28-3.44,3.58c-8.98,10.36-14.19,23.89-14.79,37.56c-1.41,9.04,0.14,18.2,1.78,27.1
	c0.98,5.92,5.06,10.85,10.07,13.94c9.63,6.02,20.04,10.8,29.07,17.77c23.48,16.84,36.1,45.77,36.73,74.19
	c1.59,9.62,0.07,19.36-0.66,28.97c-4.25,32.25-21.12,62.33-45.5,83.7c-4.25,4-9.16,7.19-13.45,11.12c2.96,3.52,5.62,7.33,7.77,11.42
	c0.76,2.53,0.35,5.3,1.25,7.83c2.86,26.96,6.68,53.85,7.43,80.98c0.51,4.97,1.01,10.02,0.1,14.99c-0.55,2.57,0.01,5.39-1.07,7.83
	c-1.77,5.2-4.21,10.26-8.2,14.14c4.09,15.79,7.34,31.83,9.08,48.06c2.06,15.23,1.91,30.61,1.65,45.95
	c-1.77,29.25-8.38,58.93-23.93,84.1c-0.85,1.59-2.58,3.2-1.65,5.16c6.13,19.51,10.87,39.43,14.96,59.46
	c4.61-0.15,9.2-0.71,13.82-0.9c-3.48,3.4-7.03,6.72-10.57,10.05c-2.49,1.89-0.83,5.41-1.76,8.02
	c-6.11,57.43-12.32,114.97-21.63,172.04c-0.86,5.03-1.96,10.04-2.29,15.15c-2.6-4.02-3.71-8.74-5.51-13.12
	c-5.21-14.57-11.24-28.83-17.32-43.06c-0.15,4.06,0.4,8.14-0.17,12.19c-6.45,47.71-10.72,95.76-19.97,143.05
	c-9.05-32.27-16.98-64.95-29.26-96.2c-1.04-2.12-1.14-5.09-3.51-6.2c3.47,41.09-0.46,82.7-11.17,122.51
	c-3.57,13.41-8.87,26.33-11.51,39.99c-2.93-2.5-4.26-6.27-6.47-9.34c-11.64-19.39-23.62-38.57-35.32-57.91
	c-2.2-3.41-3.92-7.13-6.53-10.25c-8.26,41.02-15.08,82.38-25.23,123.01c-2.46,10.44-6.19,20.54-8.51,31.02
	c-0.38,1.48-0.66,3.04-1.57,4.35c-25.91-33.2-49.8-68.05-70.36-104.83c-6.17-11.03-12.11-22.19-17.4-33.68
	c-2.64-5.17-4.47-10.7-7.2-15.82c-2.15,11.32-2.83,22.85-3.92,34.31c-1.51,24.39-2.68,48.88-0.8,73.28
	c-20.07-18.39-39.75-37.2-59.35-56.09c-1.08-1.17-2.18-2.3-3.34-3.38c-5.77-5.64-11.46-11.35-17.2-17.02
	c-2.11-2.21-4.28-4.35-6.49-6.45c-10.06-10.45-20.35-20.73-29.4-32.1c-2.68-3.44-5.33-7.05-6.64-11.26
	c-10.73-34.74-19.76-70.11-24.92-106.14c-3.62,6.27-5.75,13.24-8.34,19.97c-5.57,15.69-10.52,31.64-14,47.93
	c-0.57,2.77-0.92,5.63-2.16,8.22c-5.49-12.11-11.69-23.9-16.28-36.39c-8.84-22.71-14.67-46.55-17.77-70.7
	c-2.62-17.5-2.4-35.26-1.89-52.91c0.86-11.42,2.33-22.81,4.68-34.03c1.67-11.7,8.97-21.7,11.59-33.03
	c-4.2-5.04-10.4-8.15-14.1-13.65c6.5,0.32,13,0.43,19.46,1.24c14.66-39.86,27.79-80.59,34.03-122.71c1.35-10.85,2.66-22.06-0.1-32.8
	c-2.73-14.86-4.21-29.92-4.96-44.99c-1.15-9.05-0.1-18.25-1.64-27.27c-14.66-3.78-29.94-10.61-38.27-23.91
	c-4.08-6.23-4.08-13.77-4.55-20.91c0.78-5.31,0.52-10.67,0.62-16.01c1.94-26.4,4.89-52.75,8.55-79c0.22-3.44,3.65-5.6,3.93-8.98
	c-1.4-1.55-3.4-2.4-5.07-3.62c-18.88-12.9-35.24-29.81-46.25-49.94c-9.2-16.34-14.78-34.72-16.12-53.43
	c-0.19-10.97-0.76-22.04,0.85-32.94c2.65-20.55,11.33-40.79,26.54-55.17c8.98-9.19,20.21-15.66,31.42-21.72
	c5.25-3.15,11.26-5.96,14.42-11.49c3.6-5.91,3.4-13.07,4.62-19.66c1.18-16.69-1.96-34.37-12.16-48.02
	C76.317,30.366,72.417,27.196,69.217,23.396 M84.187,33.846c7.86,12.76,13.59,27.36,13.31,42.55c-0.2,6.38,0.32,12.8-0.59,19.14
	c-0.84,3.79-1.77,7.62-3.72,11.01c-2.93,5.25-7.87,8.96-12.79,12.23c-9.92,6.26-20.16,12.22-28.7,20.35
	c-12.3,11.24-19.9,26.97-22.96,43.2c-4.61,26.57-1.05,54.83,11.54,78.82c12.3,24.04,33.4,42.6,57.13,54.97
	c14.31,7.36,29.57,13.08,45.41,16.1c-0.74-3.38-1.57-6.74-2.3-10.12c10.4-0.01,20.79,0.05,31.19-0.04c1.76-3.27,3.2-6.68,4.45-10.17
	c4.73-18.2,3.92-38.04-3.54-55.41c-3.04-6.4-7.46-12.27-13.33-16.31c-6.28,1.08-12.7,0.81-19.03,0.43
	c-13.47-0.84-27.58-3.52-38.51-11.94c-11.97-10.07-18.76-25.15-21.18-40.37c-0.73-3.81-0.5-7.78-1.68-11.5
	c2.6-14.25,14.6-23.63,23.31-34.24c9.83-10.91,17.07-25.12,16.37-40.11c-0.24-3.54,0.7-7.32-0.8-10.67
	c-1.97-13.93-6.82-27.54-14.67-39.26C98.077,45.176,92.007,38.276,84.187,33.846 M545.097,41.476
	c-14.14,14.47-22.37,34.17-24.65,54.11l-0.51,0.95c-1.58,15.32,3.32,30.99,13.03,42.9c8.43,11.14,19.92,20.24,25.16,33.55
	c0.25,10.64-0.92,21.52-4.98,31.43c-4.69,11.94-13.7,22.48-25.67,27.51c-15.41,6.54-32.67,7.53-49.16,5.87
	c-5.56,4.42-10.35,10.19-12.86,16.88c-1.17,2.38-2.13,4.86-2.92,7.39c-4.8,16.38-5.15,34.28,0.18,50.58
	c1.46,3.87,2.73,8.12,5.75,11.09c9.54,0.16,19.04,1.29,28.59,1.24c7.67,0.03,15.33,1.62,22.99,0.68
	c33.19-11.73,63.97-34.16,79.89-66.22c11.1-22.11,14.56-47.57,11.49-72c-2.3-16.52-8.84-32.84-20.48-45
	c-10.51-11.31-24.46-18.28-36.89-27.11c-7.3-5.1-11.3-13.7-11.75-22.45c-0.49-4.81-0.79-9.63-0.67-14.46
	c-0.37-15.6,4.69-31.02,13.18-44.01C550.917,35.646,548.087,38.836,545.097,41.476 M280.987,164.336
	c-9.59,1.38-19.28,2.35-28.79,4.34c-39.93,7.24-79.32,23.6-108.75,52.17c-1.33,1.23-2.83,2.4-3.46,4.17c4,0.03,7.99-0.14,11.98-0.38
	c2.41-0.15,3.98-2.17,5.69-3.59c8.37-7.22,17.36-13.75,27.02-19.13c29.26-16.26,62.32-24.79,95.44-28.41
	c3.33-0.64,6.72-0.76,10.1-0.81l0.73-0.46c11.04-0.39,22.04-1.53,33.1-1.36c36.92-0.08,74.52,4.73,108.57,19.76
	c19.85,8.44,37.95,20.88,53.11,36.22c2.45,0.13,4.93,0.19,7.34,0.75c3.75-0.11,7.48-0.53,11.24-0.72
	c-16.48-19.39-38.09-34.01-61.22-44.38c-19.93-9.07-41.44-14.11-63.03-17.27C347.247,160.536,313.907,161.286,280.987,164.336
	 M247.117,194.186c-23.43,4.95-46.12,13.92-66.11,27.18c-3.04,2.05-6.28,3.93-8.7,6.74c6.77,5.07,11.95,11.84,16.45,18.93
	c3.6-0.37,7.47,0.04,10.77-1.73c6.07-1.01,11.71-3.61,17.43-5.77c-1.95,1.21-4.02,2.32-5.62,4.01
	c-7.11,4.14-12.52,10.83-16.61,17.88c3.87,12.14,5.12,25.01,4.83,37.71c1.76,0.9,3.55,1.75,5.37,2.53c5.32,1.57,10.65,3.13,16,4.58
	c-1.09,0.23-2.2,0.42-3.25,0.82c-6.45-1.23-12.87,1.04-19.04,2.7c-0.75,4.13-1.79,8.19-2.59,12.31c2.68,0.03,5.35,0.03,8.03,0
	c73.38,0.02,146.77,0.01,220.15,0.01c0.03,5.78,0.01,11.57,0.01,17.35c2.23,0.01,4.46,0,6.69-0.01c-0.03-5.81-0.02-11.62-0.01-17.43
	c4.49,0.41,9.01,0.29,13.53,0.25c-3.88-11.54-3.26-23.83-3.03-35.82c0.05-2.8,0.54-5.57,1.16-8.29c-4.9-5.96-11.66-9.95-18.48-13.31
	c0.56-0.09,1.7-0.28,2.27-0.37c4.4,1.2,8.98,1.86,13.54,1.47c1.77-0.44,3.55-0.85,5.34-1.24c4.2-13.37,11.81-25.75,22.74-34.65
	c-11.83-10.22-25.24-18.54-39.42-25.07c-28.71-12.81-60.3-17.66-91.52-18.65C306.917,185.616,276.577,187.566,247.117,194.186
	 M150.257,329.816c0.55,2.63,0.53,5.61,1.94,7.94c1.39,5.84,2.79,11.68,4.27,17.5c5.62-0.1,11.23-0.02,16.84-0.07
	c1.89,12.1,3.57,24.25,5.29,36.38c2.94,18.6,5.42,37.28,8.38,55.89c-6.62-2.53-13.17-5.23-19.78-7.76
	c1.67,7.79,3.7,15.51,5.46,23.29c26.15,7.41,52.53,14.03,78.75,21.17c5.74-17.33,10.82-34.89,16.45-52.27
	c-5.7-0.06-11.4,0.03-17.1-0.05c-2.83,7.15-5.32,14.43-8.23,21.55c-11.64-1.03-23.17-3.04-34.75-4.6
	c-1.8-10.59-3.47-21.19-5.25-31.78c9.63,0,19.26,0.05,28.89-0.03c0.53-2.41,1.11-4.82,1.74-7.2c1.45-6.07,3.02-12.12,4.35-18.21
	c-12.59,0.11-25.19,0.05-37.79,0.03c-0.22-3.35-1.01-6.62-1.28-9.96c-3.62,0.38-7.05,1.68-10.59,2.44c4.22-1.39,8.06-4.54,9.65-8.73
	c-0.68-6.74-1.96-13.42-2.76-20.16c25.12,0.03,50.23,0.03,75.34,0c1.23,0.07,2.44,0.24,3.65,0.52c-2.75,6.96-5.68,13.88-7.83,21.05
	c6.24,0.03,12.48-0.13,18.71,0.09c4.3-11.4,7.42-23.23,11.26-34.8c1.5-4,2.69-8.11,4.04-12.17
	C250.027,329.716,200.137,329.856,150.257,329.816 M307.667,329.866c-0.56,1.85-1.11,3.71-1.72,5.56c-0.89,2.33-1.45,4.76-1.75,7.24
	l-0.43,0.11c-7.37,25.57-16.17,50.73-23.52,76.32c-0.11-0.05-0.34-0.15-0.45-0.2c-0.28,1.59-0.58,3.19-1.05,4.75
	c-6.44,20.78-12.95,41.54-19.59,62.26c9.98,2.78,20.09,5.08,30.1,7.76c3.25-16.22,6.8-32.38,9.79-48.64
	c20.42-0.11,40.85-0.05,61.27-0.03c2.87,17.51,6.53,34.88,9.52,52.36c9.45-2.59,18.7-5.91,28.11-8.65
	c-6.77-21.75-13.34-43.56-20.13-65.3l-0.13,0.3c-4.81-17.27-10.77-34.24-15.78-51.47c-3.28-11.31-7.27-22.43-10.13-33.85
	c-0.96-2.88-1.88-5.77-2.95-8.6C335.107,329.876,321.387,329.726,307.667,329.866 M357.157,329.806c0.79,3.99,2.03,7.88,3.45,11.69
	c8.6,28.35,17.91,56.49,26.25,84.91l0.33-0.62c0.1,0.66,0.31,1.98,0.42,2.64c5.8,19,11.73,37.95,17.74,56.89
	c13.25-4.21,26.4-8.7,39.62-13.02c1.02-0.55,2.76-0.54,3.03-1.95c6.96-20.19,13.68-40.46,20.34-60.74
	c6.05-18.18,12.04-36.39,18.42-54.45c6.06,0.08,12.12,0.04,18.18,0.03c1.76-4.2,3.46-8.43,5.32-12.58c1.46-2.84,2.61-5.82,3.85-8.75
	c-8.22-1.68-16.68-0.59-24.96-1.68c-6.08-0.62-12.22-0.11-18.28-0.84c-6.29-0.67-12.62-0.39-18.92-0.74
	c-4.41-0.6-8.87-0.78-13.32-0.76c-0.05,3.92-0.06,7.85,0.01,11.77c0.09,4.49,0.07,8.99,0.02,13.48c6.04,0.51,12.16-0.52,18.15,0.59
	c-4.22,11.86-8.04,23.87-12.34,35.7c3.64,3.71,8.16,6.3,12.62,8.89c-4.69-2.51-10.17-2.49-15.15-0.92
	c-1.59,5.31-3.79,10.47-5.21,15.8c-3.8,10.89-7.4,21.86-11.21,32.75c-0.78,2.32-1.35,4.77-2.76,6.82
	c-3.07-12.4-5.97-24.85-8.81-37.3l-0.07,0.95c-0.19-1.33-0.4-2.66-0.63-3.97c-3.86-15.01-7.16-30.15-10.99-45.17
	c-2.89-0.69-5.82-1.26-8.78-1.51c2.7-0.45,5.36-1.14,7.95-2.02c-0.84-3.5-1.79-6.97-2.37-10.53c5.81,0.03,11.61,0.12,17.42-0.03
	c-0.06-4.19-0.1-8.38,0.01-12.56c0.25-4.23,0.1-8.48,0.16-12.71C396.817,329.736,376.987,329.856,357.157,329.806 M534.627,343.236
	c1.85,19.33,1.38,38.89-1.08,58.15c-0.02,2.46,1.46,4.66,1.71,7.11c1.21,10.06,1.04,20.22,1.69,30.33
	c0.38,8.45,0.43,16.9,0.71,25.35c9.72-2.76,20.1-6.39,26.62-14.54c4.96-6.25,4.03-14.7,4.14-22.16c0.34-15.38-1.51-30.68-1.77-46.03
	c-1-5.35-0.13-10.96-1.72-16.17c-0.57-8.26-1.27-16.52-2.4-24.71c-1.43-3.3-3.8-6.08-5.66-9.13
	C549.477,335.406,542.277,339.746,534.627,343.236 M87.137,334.266c-1.42,2.57-3.69,4.95-3.6,8.08c-1.8,21.23-4.02,42.46-4.47,63.76
	c-0.87,11.11-1,22.31-0.23,33.44c0.29,5.69,3.24,10.96,7.48,14.66c6.88,5.93,15.56,9.65,24.43,11.39
	c0.09-6.76-0.34-13.52-0.11-20.28c0.22-13.6-0.21-27.29,1.79-40.78c-4.71-19.98-7.23-40.51-7.09-61.06
	C99.087,340.776,93.237,337.266,87.137,334.266 M514.487,352.856c-1.43,3.37-2.78,6.78-4.12,10.18c-5.83,0.36-11.67-0.14-17.49,0.15
	c-2.48,0.61-0.96,3.22-0.02,4.51c2.53,3.43,4.47,7.25,6.97,10.71c2.42,3.72,5.02,7.32,7.38,11.08c0.78,1.01,1.41,2.54,2.92,2.53
	c4.47,0.31,8.73,1.77,13.17,2.31c0.02-3.55,0.17-7.08,0.12-10.62c1.63-4.6,0.43-9.53,0.52-14.28c-0.72-6.98-0.13-14.06-1.46-20.98
	C519.707,349.536,515.567,349.546,514.487,352.856 M117.627,348.706c-0.22,9.96,0.42,19.91,1.09,29.84c0.53,2.7,0.09,5.73,1.6,8.14
	c0.18,2.89,0.66,5.75,1.38,8.56c7.68-3.61,16.3-4.8,24.72-4.31c2.07-3.85,3.43-8.03,5.23-12.01c1.9-5.35,4.32-10.49,6.25-15.82
	c-2.55,0.02-5.1,0.03-7.65,0.02c-0.35-1.7-0.7-3.39-1.02-5.09C138.647,355.136,128.027,352.276,117.627,348.706 M132.297,398.646
	c-4.87,1.4-10.95,2.73-13.28,7.8c-1.15,3.85-1.34,7.94-1.35,11.95c-0.03,13.02-0.04,26.05,0.02,39.07c-0.18,7.02,1.18,13.97,0.95,21
	c1.42,22.08,3.23,44.23,7.38,66.02c1.84,8.62,3.77,17.37,7.86,25.25c1.2,2.29,2.81,4.56,5.29,5.56c8.26,3.72,17.11,5.87,25.87,8.03
	c34.75,7.93,70.03,13.44,105.43,17.48c1.61,0.21,3.24,0.19,4.86,0.06c0.17-6.17,0.24-12.34,0.57-18.5c0.81-5.16,0.76-10.4,0.82-15.6
	c2.03-5.76,0.49-12.06,0.93-18.04c-15.69,3.17-31.54,5.96-47.55,6.74c-5.8,2.8-8.97,9.26-11.32,15c-1,1.23-1.65,2.71-2.39,4.12
	c-0.01-1.2-0.01-2.4-0.02-3.59c0.43-3.97,0.64-8.1-0.95-11.86c-0.73-1.47-1.02-3.85-3.06-3.98c-3.73-0.67-7.46-1.46-10.9-3.11
	c-3.78-1.48-6.82-4.33-10.65-5.69c-3.39-3.87-7.57-6.97-10.87-10.93c-6.7-7.24-11.04-16.21-14.61-25.31
	c-0.18-5.67-1.59-11.51,0.4-17.04c0.73-2.89,3.3-4.62,5.19-6.71c-6.24-4.93-12.75-9.76-17.53-16.24c-2.6-2.96-4.11-6.67-6.63-9.66
	c-1.04-3.34-2.33-6.6-3.22-9.98c2.31,2.54,4.08,5.51,6.4,8.04c2.19,2.55,4.86,4.64,6.85,7.37l2.27,0.84l-0.78,0.06
	c6.96,5.45,14.41,10.28,22.4,14.09c12.49,6.1,24.89,12.82,38.41,16.38c4.62-1.99,8.16-6.43,10.29-10.93
	c-21.05-5.66-42.25-10.79-63.19-16.87c-2.88-12.23-6.03-24.41-8.91-36.64c-0.46-1.85-0.94-3.68-1.39-5.53
	c7.39,1.97,14.24,5.56,21.55,7.76c-2.16-11.83-3.67-23.79-5.29-35.7c-1.48-2.37-4.86-1.18-7.18-1.52
	C154.087,398.336,143.087,396.636,132.297,398.646 M480.577,397.696c-9.06,26.66-17.43,53.57-26.8,80.13
	c-11.85,3.81-23.68,7.67-35.5,11.58c2.95,3.67,6.45,6.93,10.45,9.42c1.06,0.83,2.39-0.03,3.51-0.27
	c12.56-4.63,24.95-9.83,36.88-15.88c14.02-7.57,28.38-17.32,34.85-32.5c0.3,7.85-4.58,14.31-7.59,21.13
	c-1.2,0.59-2.24,1.45-3.09,2.48c-4.35,5.12-9.73,9.25-15.32,12.93c1.82,2.12,4.09,4.1,4.77,6.95c1.24,4.23,0.81,8.66,0.65,13
	c-4.67,19.6-18.77,36.29-36.54,45.46c-1.52,0.5-3.08,0.97-4.46,1.79c-1.29,2-1.68,4.43-2.27,6.71c-1.21,5.11,0.66,10.45-0.91,15.5
	c-0.38-1.26-0.78-2.49-1.21-3.71c-1.19-6.27-3.72-12.87-9.29-16.47c-19.43-0.42-38.77-3.09-57.77-7.16
	c0.11,2.47,0.23,4.95,0.31,7.43c0.73,14.77,2.42,29.47,3.13,44.23c28.68-2.97,57.03-8.52,85.28-14.22
	c15.63-3.53,31.48-6.74,46.41-12.7c3.75-1.08,5.5-4.82,6.91-8.11c2.82-7.1,4.65-14.55,6.18-22.02c5.06-26.72,8.18-53.78,9.95-80.91
	c1.03-17.67,2.16-35.41,0.87-53.09c0-4.67-4.04-7.93-8.01-9.53c-8.47-3.72-17.88-3.13-26.89-2.74
	C490.247,397.356,485.367,396.866,480.577,397.696 M305.417,456.096c-1.51,3.64-1.89,7.59-2.72,11.42
	c-2.33,11.94-4.84,23.84-7.19,35.78c-6.89-1.33-13.54-3.69-20.47-4.85c-13.67-3.03-26.99-7.47-40.62-10.62
	c1.35,5.78,3.77,11.97,8.42,15.8c10.33,2.39,20.84,4.08,31.31,5.75c6.63,0.99,13.01,5.53,14.97,12.12
	c1.85,5.79,1.81,11.97,2.04,17.98c-1.61,37.1-4.75,74.13-8.68,111.04c1.44,7.2,5.82,13.48,10.52,19c4.25,6.6,9.87,12.15,15.6,17.47
	c5.18,4.21,9.47,9.54,15.38,12.81l0.6,1.54c-0.03,0.74,0.35,1.45,0.54,2.17c0.08-0.73,0.25-2.17,0.33-2.89
	c7.67-5.46,14.61-11.87,21.13-18.64c8.73-8.55,16.11-18.86,19.79-30.59c-1.11-24.33-3.49-48.62-4.12-72.97
	c-1.42-9.26-0.22-18.67-1.52-27.93c-0.41-5.33-0.17-10.68-0.16-16.02c0.46-5.07,0.39-10.74,3.99-14.78l0.58,0.05
	c3.14-2.03,6.09-4.61,9.89-5.28c11.2-2.64,22.48-5,33.46-8.46c0.9-4.15,1.32-8.37,1.43-12.6c-11.46,3.3-22.79,7.09-34.21,10.57
	c-3.99,1.13-7.85,2.82-12.01,3.3c-3.01-16.89-6.15-33.76-9.17-50.64c-10-1.15-20.13,0.06-30.17-0.63
	C318.037,455.376,311.737,456.586,305.417,456.096 M537.907,481.336c-0.66,13.37-0.03,26.79-1.31,40.13
	c-0.86,14.16-2.58,28.33-6.08,42.09c-0.37,1.33,0.41,2.59,0.81,3.82c6.04,14.73,11.42,29.71,16.67,44.73
	c4.69-10.48,7.51-21.69,9.71-32.92c5.81-34.01,2.91-69.12-5.36-102.46C547.547,478.296,542.787,480.026,537.907,481.336
	 M193.777,498.516c-0.54,9.44,1.26,20,8.71,26.55c8.58,8.21,21.37,9.13,32.52,7.27c11.96-2.35,23.25-7.64,33.26-14.5
	c-22.78-5.44-45.89-9.8-67.99-17.69C198.177,499.336,196.007,498.756,193.777,498.516 M385.677,519.606
	c13.76,9.21,30.57,15.33,47.32,13.03c6.39-1.34,12.67-4.23,17.06-9.17c6.16-6.67,8.11-16.42,6.78-25.21
	C434.037,508.156,409.587,513.196,385.677,519.606 M518.817,585.196c-5.11,3.87-11.43,5.51-17.3,7.83
	c-5.02,14.24-14.12,26.57-24.2,37.64c-2.21,1.96,0.24,4.56,1,6.61c3.28,6.99,4.28,14.95,3.26,22.58c-0.41,4.45-2.33,8.65-2.28,13.17
	c1.63,0.77,3.25,1.58,4.86,2.42c23.15-9.39,43.24-26.25,56.17-47.67c1.05-2.35,0.04-4.99-0.5-7.33
	c-4.33-15.39-7.86-31.02-12.74-46.24C524.617,578.056,522.607,582.416,518.817,585.196 M123.747,575.416
	c-2.62,41.41-13.95,81.61-26.36,121.01c-1.24,3.71-2.79,7.36-3.23,11.29c12.94,0.88,26.17,0.19,38.64-3.58
	c16.27-5.59,29.92-16.45,45.15-24.17c-0.24-2.76-1.61-5.18-2.6-7.69c-3.16-9.12-1.32-18.82,1.11-27.85
	c-9.61-1.67-18.51-7.21-24.06-15.26c-8.05-11.68-10.89-26.23-10.84-40.21c-3.71-1.88-7.71-3.27-11.08-5.76
	C127.607,581.176,126.247,577.796,123.747,575.416 M146.287,590.686c1.2,7.82,3.09,15.72,6.68,22.8
	c3.97,8.14,10.54,15.78,19.58,18.23c8.3,2.68,16.9-0.43,25.38,0.55c-2.85,5.77-6.87,10.96-8.94,17.11
	c-2.85,7.73-3.06,16.91,1.59,24.01c25.8-11.26,53.19-19.04,81.06-23c0.31-0.1,0.93-0.32,1.24-0.42c0.47-10.67,0.86-21.33,0.99-32.02
	c-24.12-3.26-48.09-7.55-71.86-12.74C183.227,601.206,164.587,596.506,146.287,590.686 M442.207,607.646
	c-21.9,3.98-43.86,7.88-66,10.32c0.03,6.53,0.93,13,1.39,19.51c0.16,4.27,0.52,8.53,0.95,12.79c26.86,4.44,53.45,11.4,78.41,22.38
	c1.83,0.22,3.57-0.65,5.34-1c3.1-8.46,5.52-18.03,2.08-26.76c-2.52-5.87-6.57-10.92-9.05-16.82c4.15-2.6,8.38-5.08,12.24-8.09
	l0.31-0.03c8.95-7.1,18.42-14.06,24.63-23.84C475.897,600.596,459.117,604.456,442.207,607.646 M541.617,664.996
	c-9.22,9.28-19.62,17.42-30.96,23.96c-3.85,2.3-8.05,3.95-11.84,6.35c9.87,6.43,21.38,10.48,33.19,11.12
	c5.03,0.12,10.03,1.22,15.07,0.64c3.7-0.44,7.42-0.77,11.15-0.65c-1.47-6.71-1.81-13.66-3.95-20.19l-0.13-0.5
	c-0.72-9.32-3.73-18.28-5.5-27.43C545.607,659.696,543.937,662.736,541.617,664.996 M198.487,684.016
	c-0.89,0.49-1.75,1.03-2.58,1.63c-18.59,7.35-34.53,19.81-52.58,28.26c-8.18,1.81-16.05,5.05-24.46,5.84
	c-6.34,0.51-12.72,0.21-19.06,0.67c3.27,3.34,7.52,5.41,11.46,7.82c19.33,10.93,41.47,17.44,63.77,16.93
	c17.57,0.35,34.95-3.95,51.12-10.6c9.06-3.87,18.15-8.07,26.18-13.81c1.31-0.38,2.61-0.79,3.92-1.2c-2.46,2.8-5.72,4.71-8.25,7.42
	c-3.54,1.76-6.45,4.47-9.61,6.8c-8.9,6.36-18.38,11.87-28.13,16.81c-2.92,1.44-5.98,2.63-8.64,4.54
	c20.58,3.44,41.79,3.45,62.39-0.01c19.39-3.55,38.66-10.87,53.53-24.14c3.16-2.51,5.98-5.46,9.4-7.64
	c8.4,7.15,16.52,14.82,26.4,19.94c19.2,10.03,41.08,14.47,62.67,14.17c10.21,0.03,20.51-0.2,30.54-2.26
	c-3.88-2.43-8.27-3.85-12.21-6.14c-9.45-6.05-19.23-11.71-27.74-19.09c-1.68-1.5-3.46-2.89-5.48-3.89c-0.2-0.15-0.6-0.45-0.8-0.6
	c-1.89-2.61-4.41-4.67-6.43-7.17c4.2,1.66,7.67,4.7,11.92,6.25c-4.68-5.68-6.1-13.29-5.89-20.48c1.72-7.1,5.67-13.95,12.05-17.79
	c6.81-3.9,14.97-4.06,22.09-7.17c-3.38-1.55-6.86-2.98-10.53-3.65c-1.04-0.54-2.1-1.02-3.18-1.43c-15.37-4.87-31.16-8.4-47.17-10.29
	c-11.75,18.14-29.22,31.92-48.21,41.87c-16.06-8.81-31-20.28-42.22-34.87c-2.02-2.47-3.35-5.45-5.62-7.69
	C250.057,665.986,223.547,673.416,198.487,684.016 M426.967,689.396c-1.36,0.3-2.72,0.62-4.09,0.88l-0.72,0.33
	c-7.55,1.17-13.68,8.24-13.68,15.89c-0.36,4.66,1.98,8.99,4.91,12.43c4.15,3.14,9.48,5.13,14.69,3.69
	c12.67-3.43,25.29-7.07,38.07-10.08c3.96-0.99,8.25-1.71,11.47-4.44c3.19-2.74,5.56-6.78,5.49-11.09l0.44-0.15
	c-0.1-9.35-9.07-17.67-18.49-15.8C452.317,683.606,439.617,686.426,426.967,689.396 M492.607,709.556
	c-3.44,6.3-9.1,11.56-16.14,13.46c-11.03,3.07-22.25,5.43-33.43,7.88c-6.26,1.28-12.45,3.23-18.9,3.07
	c12.31,5.59,25.43,9.41,38.93,10.55c14.02,1.14,28.4,0.77,41.93-3.41c6.93-2.11,14.26-3.7,20.36-7.78
	c6.61-2.97,12.65-7.16,18.72-11.12c-3.28-0.73-6.61-1.24-9.97-1.2c-8.07,0-15.87-2.3-23.72-3.89c-3.53-2.11-7.69-2.73-11.28-4.7
	C497.017,711.286,494.877,710.246,492.607,709.556 M87.317,726.466c-3.16,9.72-8.54,18.73-10.05,28.95
	c-6.51,36.18-4.15,73.63,4.36,109.28c3.09,11.59,5.7,23.43,10.44,34.48c1.44-4.23,1.72-8.72,2.63-13.06
	c3.78-18.9,8.47-37.98,18.11-54.86c3.81-6.26,8.43-12.56,15.23-15.78c5.69-2.87,11.58-5.34,17.18-8.4c1.41,9.37,2.87,18.79,2.5,28.3
	c-0.41,8.38,1.11,16.68,0.93,25.06c2.5,36.58,9.15,72.78,17.98,108.33c0.54,2.23,1.51,4.34,2.86,6.2
	c6.48,9.08,13.64,17.63,20.85,26.13c18.73,21.57,37.94,42.73,57.56,63.5c2.75,2.7,4.98,5.97,8.28,8.07
	c-1.07-13.03-0.69-26.1-0.75-39.16c-0.31-17.41,0.77-34.79,2.55-52.1c2.05-22.05,7.47-43.58,12.67-65.05
	c1.03,3.46,1.66,7.06,3.18,10.37c0.56,3.99,2.18,7.72,3.09,11.64c1.27,4.5,1.95,9.3,4.37,13.39c1.16,11.51,5.53,22.44,9.24,33.33
	c14.82,38.48,35.39,74.46,57.8,108.98c4.57,6.47,8.24,13.62,13.54,19.55c1.2-4.99,1.69-10.11,2.44-15.17
	c3.73-28.25,6.58-56.6,9.14-84.97c3.4-34.29,5.25-68.72,8.33-103.03c0-6.85,1.67-13.61,0.95-20.48c1.14,1.14,2.26,2.36,2.98,3.83
	c7.35,13.28,14.85,26.46,22.44,39.6c5.08,8.59,7.08,18.71,12.35,27.15c0.74,4.22,2.84,7.99,4.46,11.9
	c6.85,16.29,13.55,32.63,20.31,48.96c1.01,2.47,1.78,5.12,3.5,7.24c7.31-24.42,11.16-49.8,12.61-75.22
	c1.06-28.61-0.81-57.51-7.86-85.34c-1.11-3.49-1.51-7.36-3.82-10.33c-1.18-9.12-5.21-17.6-7.47-26.48l0.77,0.34
	c7.36,7.57,14.94,14.93,22.35,22.46c10.06,10.85,16.15,24.62,22.12,37.98c6.96,16.17,11.88,33.11,17.8,49.65
	c4.4-20.31,7.95-40.8,11.94-61.2c1.22-7.66,3.44-15.18,3.99-22.93c-1.97-14.66-7.01-28.75-13.03-42.2
	c-3.87-8.23-7.34-16.77-12.43-24.32c-0.48-2.71-2.17-4.97-3.37-7.37c0.93,0.05,1.72,0.42,2.35,1.09
	c7.17,7.19,12.76,15.72,19.13,23.57c1.48,3.13,3.73,5.78,5.6,8.68c7.52,11.99,15.22,23.88,21.94,36.35c0.43,0.89,1.3,1.43,2.04,2.07
	c0.25-8.99,1.63-17.9,2.34-26.85c2.4-19.02,3.97-38.14,6.78-57.1c0.21-5.13,1.83-10.13,1.57-15.29l0.13-0.56
	c2.2-8.57,2.25-17.56,3.9-26.25c-17.72,12.21-38.61,19.6-59.91,22.26c-5.8,0.53-11.63,0.6-17.42,1.18c4.09,0.8,8.24,1.32,12.27,2.44
	c-4.03,2.07-8.49,3.01-12.74,4.51c-21.29,7.53-44.23,7.46-66.53,7.29c-0.23,3.55-0.8,7.09-2.01,10.45
	c-0.93,7.06-2.66,15.51-9.64,19.05c-4.9,1.42-10.28,0.5-14.65-2.08c-39.48-20.62-87.93-20.21-128.66-3.35
	c-3.29,1.85-7.31,2.77-10.94,1.43c-5.39-3.86-4.04-11.35-5.82-16.99c-0.18-3.06-0.81-6.05-1.52-9.02
	c-8.17,0.62-16.36,0.46-24.54,0.51c-23.11-0.16-45.66-5.69-68.2-10.16c7.39-2.88,15.61-2.74,23.19-5.06
	c-16.49,0.19-33.07-2.25-48.64-7.79C109.967,739.786,98.387,733.466,87.317,726.466 M318.897,736.326
	c-10.17,9.14-22.21,16.03-34.96,20.87c3.55-0.66,7.17-0.97,10.68-1.82c6.89-0.4,13.82-1.62,20.71-0.46
	c-22.17,3.1-43.87,8.98-65.07,16.12c0.68,4.12,1.87,8.14,2.58,12.27c15.67-6.65,32.39-10.76,49.32-12.43
	c9.59-0.77,19.3-1.62,28.89-0.34c20.86,1.18,41.32,7.52,59.55,17.66c2.68,1.25,5.37,3.26,8.5,2.72c4.84-2.13,5.71-7.92,7.16-12.42
	c1.35-3.98,1.99-8.15,2.56-12.29c-27.76-1.86-55.67-12.05-76.04-31.4c-2.41-2.09-4.22-4.72-5.93-7.37
	C324.597,730.726,322.017,733.816,318.897,736.326 M249.297,764.886c-1.11,0.69-1.39,1.75-0.11,2.52c1.76-0.2,3.37-1.06,4.67-2.25
	C252.357,764.946,250.807,764.496,249.297,764.886z"/>
<path class="st2" d="M562.997,30.886c1.03-1.3,2.23-2.44,3.44-3.58C567.887,29.306,565.027,32.216,562.997,30.886z"/>
<path class="st3" d="M84.187,33.846c7.82,4.43,13.89,11.33,18.91,18.66c7.85,11.72,12.7,25.33,14.67,39.26
	c-0.28,0.14-0.83,0.43-1.11,0.57c-2.86-10.59-6.47-21.09-12.07-30.56c-1.35-2.4-3.28-4.39-5.34-6.19
	c0.58,13.34,1.22,26.93-2.34,39.95c0.91-6.34,0.39-12.76,0.59-19.14C97.777,61.206,92.047,46.606,84.187,33.846z"/>
<path class="st3" d="M545.097,41.476c2.99-2.64,5.82-5.83,9.72-7.07c-8.49,12.99-13.55,28.41-13.18,44.01
	c-0.12,4.83,0.18,9.65,0.67,14.46c-4.45-11.89-2.51-24.86-2.44-37.24c-6.54,5.63-9.67,13.97-12.9,21.72
	c-2.53,5.95-3.75,12.39-6.52,18.23C522.727,75.646,530.957,55.946,545.097,41.476z"/>
<path class="st4" d="M99.247,55.586c2.06,1.8,3.99,3.79,5.34,6.19c5.6,9.47,9.21,19.97,12.07,30.56c0.28-0.14,0.83-0.43,1.11-0.57
	c1.5,3.35,0.56,7.13,0.8,10.67c0.7,14.99-6.54,29.2-16.37,40.11c-8.71,10.61-20.71,19.99-23.31,34.24
	c-3.36,16.93-2.41,35.43,5.97,50.82c6.75,12.33,19.04,21.04,32.54,24.52c17.96,5.09,36.82,2.94,55.22,4.35
	c7.46,17.37,8.27,37.21,3.54,55.41c-5.8-0.99-11.36-2.93-16.98-4.59c-27.67-8.72-54.53-20.78-78.06-37.9
	c-7.12-5.48-14.11-11.22-20.12-17.93c-16.92-16.16-28.26-38.01-31.94-61.1c-0.38-2.66-0.45-5.36-0.32-8.04
	c3.06-16.23,10.66-31.96,22.96-43.2c8.54-8.13,18.78-14.09,28.7-20.35c4.92-3.27,9.86-6.98,12.79-12.23
	c1.95-3.39,2.88-7.22,3.72-11.01C100.467,82.516,99.827,68.926,99.247,55.586z"/>
<path class="st4" d="M526.967,77.356c3.23-7.75,6.36-16.09,12.9-21.72c-0.07,12.38-2.01,25.35,2.44,37.24
	c0.45,8.75,4.45,17.35,11.75,22.45c12.43,8.83,26.38,15.8,36.89,27.11c11.64,12.16,18.18,28.48,20.48,45
	c0.16,6.2-1.79,12.16-3.45,18.05c-5.43,18.33-16.42,34.59-29.84,48.04c-10.52,10.38-22.47,19.25-35.2,26.74
	c-24.76,15.07-52.29,25.01-80.22,32.38c-5.33-16.3-4.98-34.2-0.18-50.58c0.79-2.53,1.75-5.01,2.92-7.39c4.7-1.6,9.73-0.75,14.59-1.2
	c12.05-0.96,24.3,0.17,36.14-2.75c14.22-2.98,27.93-10.94,35.46-23.67c8.9-14.5,10.19-32.29,8.18-48.82
	c-0.22-1.85-0.93-3.58-1.7-5.25c-5.24-13.31-16.73-22.41-25.16-33.55c-9.71-11.91-14.61-27.58-13.03-42.9l0.51-0.95
	C523.217,89.746,524.437,83.306,526.967,77.356z"/>
<path class="st5" d="M564.597,81.566c-1.63-5.9-1.27-12.42,0.02-18.37C565.047,69.296,565.247,75.466,564.597,81.566z"/>
<path class="st6" d="M311.147,132.736c12.27-0.99,24.68-1.06,36.95-0.01c-5.84,2.05-12.01,0.62-18.02,0.66
	C323.767,133.056,317.317,134.726,311.147,132.736z"/>
<path class="st7" d="M280.987,164.336c32.92-3.05,66.26-3.8,99.07,0.9c21.59,3.16,43.1,8.2,63.03,17.27
	c23.13,10.37,44.74,24.99,61.22,44.38c-3.76,0.19-7.49,0.61-11.24,0.72c-2.41-0.56-4.89-0.62-7.34-0.75
	c-15.16-15.34-33.26-27.78-53.11-36.22c-34.05-15.03-71.65-19.84-108.57-19.76c-11.06-0.17-22.06,0.97-33.1,1.36l-0.73,0.46
	c-3.38,0.05-6.77,0.17-10.1,0.81c-33.12,3.62-66.18,12.15-95.44,28.41c-9.66,5.38-18.65,11.91-27.02,19.13
	c-1.71,1.42-3.28,3.44-5.69,3.59c-3.99,0.24-7.98,0.41-11.98,0.38c0.63-1.77,2.13-2.94,3.46-4.17
	c29.43-28.57,68.82-44.93,108.75-52.17C261.707,166.686,271.397,165.716,280.987,164.336z"/>
<path class="st8" d="M90.897,181.416c-0.74-4.9,1.58-9.65,4.42-13.48c-0.25,2.38-1.56,4.4-2.49,6.55
	c-2.06,6.83,1.43,13.56,1.43,20.35C92.477,190.556,91.497,185.996,90.897,181.416z"/>
<path class="st9" d="M558.127,172.986c0.77,1.67,1.48,3.4,1.7,5.25c2.01,16.53,0.72,34.32-8.18,48.82
	c-7.53,12.73-21.24,20.69-35.46,23.67c-11.84,2.92-24.09,1.79-36.14,2.75c-4.86,0.45-9.89-0.4-14.59,1.2
	c2.51-6.69,7.3-12.46,12.86-16.88c16.49,1.66,33.75,0.67,49.16-5.87c11.97-5.03,20.98-15.57,25.67-27.51
	C557.207,194.506,558.377,183.626,558.127,172.986z"/>
<path class="st10" d="M84.857,227.606c-8.38-15.39-9.33-33.89-5.97-50.82c1.18,3.72,0.95,7.69,1.68,11.5
	c2.42,15.22,9.21,30.3,21.18,40.37c10.93,8.42,25.04,11.1,38.51,11.94c6.33,0.38,12.75,0.65,19.03-0.43
	c5.87,4.04,10.29,9.91,13.33,16.31c-18.4-1.41-37.26,0.74-55.22-4.35C103.897,248.646,91.607,239.936,84.857,227.606z"/>
<path class="st11" d="M40.277,261.146c-12.59-23.99-16.15-52.25-11.54-78.82c-0.13,2.68-0.06,5.38,0.32,8.04
	c3.68,23.09,15.02,44.94,31.94,61.1c6.01,6.71,13,12.45,20.12,17.93c23.53,17.12,50.39,29.18,78.06,37.9
	c5.62,1.66,11.18,3.6,16.98,4.59c-1.25,3.49-2.69,6.9-4.45,10.17c-10.4,0.09-20.79,0.03-31.19,0.04c0.73,3.38,1.56,6.74,2.3,10.12
	c-15.84-3.02-31.1-8.74-45.41-16.1C73.677,303.746,52.577,285.186,40.277,261.146z"/>
<path class="st12" d="M247.117,194.186c29.46-6.62,59.8-8.57,89.93-7.87c31.22,0.99,62.81,5.84,91.52,18.65
	c14.18,6.53,27.59,14.85,39.42,25.07c-10.93,8.9-18.54,21.28-22.74,34.65c-1.79,0.39-3.57,0.8-5.34,1.24
	c3.87-11.71,9.12-22.93,15.01-33.76c-40.92-22.5-86.98-36.84-133.9-37.26c-40.2-1.06-80.57,7.46-116.99,24.49
	c-6.23,3.02-12.51,5.98-18.31,9.76c4.34,4.68,6.13,10.85,8.03,16.78c1.93-0.21,3.85-0.4,5.78-0.63c-3.3,1.77-7.17,1.36-10.77,1.73
	c-4.5-7.09-9.68-13.86-16.45-18.93c2.42-2.81,5.66-4.69,8.7-6.74C200.997,208.106,223.687,199.136,247.117,194.186z"/>
<path class="st11" d="M611.427,187.436c3.07,24.43-0.39,49.89-11.49,72c-15.92,32.06-46.7,54.49-79.89,66.22
	c-7.66,0.94-15.32-0.65-22.99-0.68c-9.55,0.05-19.05-1.08-28.59-1.24c-3.02-2.97-4.29-7.22-5.75-11.09
	c27.93-7.37,55.46-17.31,80.22-32.38c12.73-7.49,24.68-16.36,35.2-26.74c13.42-13.45,24.41-29.71,29.84-48.04
	C609.637,199.596,611.587,193.636,611.427,187.436z"/>
<path class="st13" d="M204.027,219.396c36.42-17.03,76.79-25.55,116.99-24.49c46.92,0.42,92.98,14.76,133.9,37.26
	c-5.89,10.83-11.14,22.05-15.01,33.76c-4.56,0.39-9.14-0.27-13.54-1.47c-1.66-0.47-3.33-0.95-4.98-1.41
	c5.17,7.39,10.75,14.7,13.7,23.33c2.14,5.44,1.35,11.37,1.46,17.06c-0.07,6.1,0.98,12.13,1.45,18.2c-2.37,0.11-4.73,0.23-7.08,0.36
	c-0.01,5.81-0.02,11.62,0.01,17.43c-2.23,0.01-4.46,0.02-6.69,0.01c0-5.78,0.02-11.57-0.01-17.35c-73.38,0-146.77,0.01-220.15-0.01
	c0.49-2.71,1-5.41,1.52-8.12c4.08-2.2,8.19-4.37,12.08-6.89c1.05-0.4,2.16-0.59,3.25-0.82c-5.35-1.45-10.68-3.01-16-4.58
	c-0.36-0.53-1.09-1.59-1.46-2.12c0.93-9.12,0.58-18.27-0.2-27.38c-0.43-3.27-1.57-6.42-1.75-9.72c1.75-6.95,5.95-12.97,9.82-18.9
	c1.6-1.69,3.67-2.8,5.62-4.01c-5.72,2.16-11.36,4.76-17.43,5.77c-1.93,0.23-3.85,0.42-5.78,0.63c-1.9-5.93-3.69-12.1-8.03-16.78
	C191.517,225.376,197.797,222.416,204.027,219.396 M316.337,208.826c-9.1,1.13-18.12,3.89-25.7,9.15c-1.92,1.79-3.69,3.8-4.94,6.12
	c-1.72,4.06,0.25,8.56,3.26,11.42c7.59,6.47,17.44,9.27,27.12,10.69c10.92,1.45,22.03,1.06,32.84-0.99
	c6.45-0.86,12.54-3.44,18.12-6.7c4.62-3.11,9.65-8.93,6.68-14.77c-3.69-7.75-12.49-10.47-20.02-12.98
	C341.537,207.636,328.767,207.656,316.337,208.826z"/>
<path class="st14" d="M316.337,208.826c12.43-1.17,25.2-1.19,37.36,1.94c7.53,2.51,16.33,5.23,20.02,12.98
	c2.97,5.84-2.06,11.66-6.68,14.77c-5.58,3.26-11.67,5.84-18.12,6.7c-10.81,2.05-21.92,2.44-32.84,0.99
	c-9.68-1.42-19.53-4.22-27.12-10.69c-3.01-2.86-4.98-7.36-3.26-11.42c1.25-2.32,3.02-4.33,4.94-6.12
	C298.217,212.716,307.237,209.956,316.337,208.826z"/>
<path class="st12" d="M194.727,261.426c4.09-7.05,9.5-13.74,16.61-17.88c-3.87,5.93-8.07,11.95-9.82,18.9
	c0.18,3.3,1.32,6.45,1.75,9.72c0.78,9.11,1.13,18.26,0.2,27.38c0.37,0.53,1.1,1.59,1.46,2.12c-1.82-0.78-3.61-1.63-5.37-2.53
	C199.847,286.436,198.597,273.566,194.727,261.426z"/>
<path class="st12" d="M421.387,263.046c1.65,0.46,3.32,0.94,4.98,1.41c-0.57,0.09-1.71,0.28-2.27,0.37
	c6.82,3.36,13.58,7.35,18.48,13.31c-0.62,2.72-1.11,5.49-1.16,8.29c-0.23,11.99-0.85,24.28,3.03,35.82
	c-4.52,0.04-9.04,0.16-13.53-0.25c2.35-0.13,4.71-0.25,7.08-0.36c-0.47-6.07-1.52-12.1-1.45-18.2c-0.11-5.69,0.68-11.62-1.46-17.06
	C432.137,277.746,426.557,270.436,421.387,263.046z"/>
<path class="st12" d="M198.637,309.766c6.17-1.66,12.59-3.93,19.04-2.7c-3.89,2.52-8,4.69-12.08,6.89
	c-0.52,2.71-1.03,5.41-1.52,8.12c-2.68,0.03-5.35,0.03-8.03,0C196.847,317.956,197.887,313.896,198.637,309.766z"/>
<path class="st15" d="M150.257,329.816c49.88,0.04,99.77-0.1,149.65,0.06c-1.35,4.06-2.54,8.17-4.04,12.17
	c-4.65-2.12-9.79-0.36-14.66-1.05c-11.7-1.19-23.48-0.03-35.18-1.19c-5.19-0.51-10.4,0.06-15.61-0.05
	c-14.44-0.8-28.94,0.09-43.37-1.14c-11.61-0.43-23.26,0.14-34.85-0.86C150.787,335.426,150.807,332.446,150.257,329.816z"/>
<path class="st15" d="M307.667,329.866c13.72-0.14,27.44,0.01,41.16-0.08c1.07,2.83,1.99,5.72,2.95,8.6
	c-0.28,0.72-0.85,2.15-1.13,2.87c-11.2,0.26-22.4,0.08-33.59,0.22c-4.32-0.07-8.7-0.09-12.86,1.19c0.3-2.48,0.86-4.91,1.75-7.24
	C306.557,333.576,307.107,331.716,307.667,329.866z"/>
<path class="st15" d="M357.157,329.806c19.83,0.05,39.66-0.07,59.49,0.06c-0.06,4.23,0.09,8.48-0.16,12.71
	c-11.07-1.66-22.29-0.95-33.44-1.17c-7.48,0.25-14.98-0.6-22.44,0.09C359.187,337.686,357.947,333.796,357.157,329.806z"/>
<path class="st15" d="M438.627,329.836c4.45-0.02,8.91,0.16,13.32,0.76c6.3,0.35,12.63,0.07,18.92,0.74
	c6.06,0.73,12.2,0.22,18.28,0.84c8.28,1.09,16.74,0,24.96,1.68c-1.24,2.93-2.39,5.91-3.85,8.75c-3.02-0.57-6.08-1.01-9.16-1.01
	c-20.82,0.08-41.64,0.07-62.46,0.01C438.567,337.686,438.577,333.756,438.627,329.836z"/>
<path class="st15" d="M534.627,343.236c7.65-3.49,14.85-7.83,22.24-11.8c1.86,3.05,4.23,5.83,5.66,9.13
	c1.13,8.19,1.83,16.45,2.4,24.71c0.55,9.73,1.54,19.51,0.63,29.26c-0.88,8.83-1.61,17.69-3.16,26.43c-0.54,3.14-1.71,6.42-4.43,8.32
	c-6.22,4.66-13.71,7.15-21.02,9.54c-0.65-10.11-0.48-20.27-1.69-30.33c-0.25-2.45-1.73-4.65-1.71-7.11
	C536.007,382.126,536.477,362.566,534.627,343.236z"/>
<path class="st15" d="M87.137,334.266c6.1,3,11.95,6.51,18.2,9.21c-0.14,20.55,2.38,41.08,7.09,61.06
	c-2,13.49-1.57,27.18-1.79,40.78c-0.1,1.34-0.21,2.68-0.32,4.03c-6.43-0.76-12.8-2.19-18.89-4.4c-3.39-1.07-4.78-4.66-5.99-7.67
	c-3.61-10.02-4.83-20.69-6.37-31.17c0.45-21.3,2.67-42.53,4.47-63.76C83.447,339.216,85.717,336.836,87.137,334.266z"/>
<path class="st16" d="M152.197,337.756c11.59,1,23.24,0.43,34.85,0.86c14.43,1.23,28.93,0.34,43.37,1.14
	c5.21,0.11,10.42-0.46,15.61,0.05c11.7,1.16,23.48,0,35.18,1.19c4.87,0.69,10.01-1.07,14.66,1.05c-3.84,11.57-6.96,23.4-11.26,34.8
	c-6.23-0.22-12.47-0.06-18.71-0.09c2.15-7.17,5.08-14.09,7.83-21.05c-1.21-0.28-2.42-0.45-3.65-0.52c-25.11,0.03-50.22,0.03-75.34,0
	c0.8,6.74,2.08,13.42,2.76,20.16c-1.59,4.19-5.43,7.34-9.65,8.73c3.54-0.76,6.97-2.06,10.59-2.44c0.27,3.34,1.06,6.61,1.28,9.96
	c12.6,0.02,25.2,0.08,37.79-0.03c-1.33,6.09-2.9,12.14-4.35,18.21c-11.44-2.6-22.58-6.3-33.74-9.88c-7-2.62-14.3-4.59-20.82-8.33
	c-1.72-12.13-3.4-24.28-5.29-36.38c-5.61,0.05-11.22-0.03-16.84,0.07C154.987,349.436,153.587,343.596,152.197,337.756z"/>
<path class="st16" d="M351.777,338.386c2.86,11.42,6.85,22.54,10.13,33.85c5.01,17.23,10.97,34.2,15.78,51.47
	c-0.17,0.42-0.51,1.26-0.68,1.69c-27.65,1.38-55.42,0.17-82.87-3.45c-4.66-0.72-9.55-0.81-13.89-2.85
	c7.35-25.59,16.15-50.75,23.52-76.32l0.43-0.11c4.16-1.28,8.54-1.26,12.86-1.19c11.19-0.14,22.39,0.04,33.59-0.22
	C350.927,340.536,351.497,339.106,351.777,338.386 M322.247,370.566c-5.14,1.13-10.45,0.25-15.19-1.91c4.7,2.7,9.95,5.67,12.43,10.7
	c-2.63,9.71-5.71,19.32-8.47,29c-1.11,3.59-1.84,7.31-3.45,10.73c1.81,0.28,3.63,0.57,5.48,0.55c12.86-0.05,25.72-0.05,38.58,0
	c-1.58-5.46-3.28-10.88-4.83-16.34c2.83-2.81,6.38-4.74,10.31-5.44c-3.79,0.33-7.57,0.79-11.36,1.11
	c-3.83-10.66-6.51-21.69-9.88-32.49c-1.84-7.03-4.25-13.89-5.86-20.97C326.817,353.646,324.887,362.236,322.247,370.566z"/>
<path class="st16" d="M360.607,341.496c7.46-0.69,14.96,0.16,22.44-0.09c11.15,0.22,22.37-0.49,33.44,1.17
	c-0.11,4.18-0.07,8.37-0.01,12.56c-5.81,0.15-11.61,0.06-17.42,0.03c0.58,3.56,1.53,7.03,2.37,10.53c-2.59,0.88-5.25,1.57-7.95,2.02
	c2.96,0.25,5.89,0.82,8.78,1.51c3.83,15.02,7.13,30.16,10.99,45.17c0.23,1.31,0.44,2.64,0.63,3.97c0.02,1.09,0.05,2.19,0.09,3.3
	c-8.7,1.62-17.56,1.93-26.3,3.22c-0.12,0.23-0.36,0.67-0.48,0.9l-0.33,0.62C378.517,397.986,369.207,369.846,360.607,341.496z"/>
<path class="st16" d="M438.637,341.606c20.82,0.06,41.64,0.07,62.46-0.01c3.08,0,6.14,0.44,9.16,1.01
	c-1.86,4.15-3.56,8.38-5.32,12.58c-6.06,0.01-12.12,0.05-18.18-0.03c-6.38,18.06-12.37,36.27-18.42,54.45
	c-10.33,3.05-20.8,5.67-31.32,8.02c-0.07-0.62-0.22-1.86-0.29-2.48c1.42-5.33,3.62-10.49,5.21-15.8c4.98-1.57,10.46-1.59,15.15,0.92
	c-4.46-2.59-8.98-5.18-12.62-8.89c4.3-11.83,8.12-23.84,12.34-35.7c-5.99-1.11-12.11-0.08-18.15-0.59
	C438.707,350.596,438.727,346.096,438.637,341.606z"/>
<path class="st1" d="M322.247,370.566c2.64-8.33,4.57-16.92,7.76-25.06c1.61,7.08,4.02,13.94,5.86,20.97
	c3.37,10.8,6.05,21.83,9.88,32.49c3.79-0.32,7.57-0.78,11.36-1.11c-3.93,0.7-7.48,2.63-10.31,5.44c1.55,5.46,3.25,10.88,4.83,16.34
	c-12.86-0.05-25.72-0.05-38.58,0c-1.85,0.02-3.67-0.27-5.48-0.55c1.61-3.42,2.34-7.14,3.45-10.73c2.76-9.68,5.84-19.29,8.47-29
	c-2.48-5.03-7.73-8-12.43-10.7C311.797,370.816,317.107,371.696,322.247,370.566z"/>
<path class="st12" d="M514.487,352.856c1.08-3.31,5.22-3.32,7.99-4.41c1.33,6.92,0.74,14,1.46,20.98
	c-0.09,4.75,1.11,9.68-0.52,14.28c-0.28-5.22-0.1-10.44-0.27-15.66c-2.39,2.5-4.35,5.37-6.63,7.96c-1.03,1.4-3.02,0.87-4.49,0.93
	c-4.26-0.36-8.49-0.96-12.77-1.01c0.14,0.62,0.43,1.86,0.57,2.48c-2.5-3.46-4.44-7.28-6.97-10.71c-0.94-1.29-2.46-3.9,0.02-4.51
	c5.82-0.29,11.66,0.21,17.49-0.15C511.707,359.636,513.057,356.226,514.487,352.856z"/>
<path class="st12" d="M117.627,348.706c10.4,3.57,21.02,6.43,31.6,9.33c0.32,1.7,0.67,3.39,1.02,5.09c2.55,0.01,5.1,0,7.65-0.02
	c-1.93,5.33-4.35,10.47-6.25,15.82c-2.18-1.58-5.05-0.82-7.55-1.13c-8.81-0.24-17.35-2.78-25.26-6.58
	c0.36,5.17,1.22,10.29,1.48,15.47c-1.51-2.41-1.07-5.44-1.6-8.14C118.047,368.616,117.407,358.666,117.627,348.706z"/>
<path class="st17" d="M564.927,365.276c1.59,5.21,0.72,10.82,1.72,16.17c0.26,15.35,2.11,30.65,1.77,46.03
	c-0.11,7.46,0.82,15.91-4.14,22.16c-6.52,8.15-16.9,11.78-26.62,14.54c-0.28-8.45-0.33-16.9-0.71-25.35
	c7.31-2.39,14.8-4.88,21.02-9.54c2.72-1.9,3.89-5.18,4.43-8.32c1.55-8.74,2.28-17.6,3.16-26.43
	C566.467,384.786,565.477,375.006,564.927,365.276z"/>
<path class="st13" d="M516.517,376.006c2.28-2.59,4.24-5.46,6.63-7.96c0.17,5.22-0.01,10.44,0.27,15.66
	c0.05,3.54-0.1,7.07-0.12,10.62c-4.44-0.54-8.7-2-13.17-2.31c-1.51,0.01-2.14-1.52-2.92-2.53c-2.36-3.76-4.96-7.36-7.38-11.08
	c-0.14-0.62-0.43-1.86-0.57-2.48c4.28,0.05,8.51,0.65,12.77,1.01C513.497,376.876,515.487,377.406,516.517,376.006z"/>
<path class="st13" d="M118.837,371.216c7.91,3.8,16.45,6.34,25.26,6.58c2.5,0.31,5.37-0.45,7.55,1.13
	c-1.8,3.98-3.16,8.16-5.23,12.01c-8.42-0.49-17.04,0.7-24.72,4.31c-0.72-2.81-1.2-5.67-1.38-8.56
	C120.057,381.506,119.197,376.386,118.837,371.216z"/>
<path class="st18" d="M178.597,391.566c6.52,3.74,13.82,5.71,20.82,8.33c11.16,3.58,22.3,7.28,33.74,9.88
	c-0.63,2.38-1.21,4.79-1.74,7.2c-9.63,0.08-19.26,0.03-28.89,0.03c1.78,10.59,3.45,21.19,5.25,31.78
	c11.58,1.56,23.11,3.57,34.75,4.6c2.91-7.12,5.4-14.4,8.23-21.55c5.7,0.08,11.4-0.01,17.1,0.05c-5.63,17.38-10.71,34.94-16.45,52.27
	c-26.22-7.14-52.6-13.76-78.75-21.17c-1.76-7.78-3.79-15.5-5.46-23.29c6.61,2.53,13.16,5.23,19.78,7.76
	C184.017,428.846,181.537,410.166,178.597,391.566z"/>
<path class="st13" d="M132.297,398.646c10.79-2.01,21.79-0.31,32.67-0.81c2.32,0.34,5.7-0.85,7.18,1.52
	c1.62,11.91,3.13,23.87,5.29,35.7c-7.31-2.2-14.16-5.79-21.55-7.76c0.45,1.85,0.93,3.68,1.39,5.53c-3.98-0.09-7.95-0.16-11.93-0.21
	c3.79,9.46,7.26,19.05,11.16,28.47c0.51,1.53,1.6,3.33,0.28,4.81c-1.99-2.73-4.66-4.82-6.85-7.37c-2.32-2.53-4.09-5.5-6.4-8.04
	c0.89,3.38,2.18,6.64,3.22,9.98c3.91,13.9,8.99,27.45,14.32,40.87c1.16,3.04,2.65,5.95,4.25,8.78c3.57,9.1,7.91,18.07,14.61,25.31
	c3.3,3.96,7.48,7.06,10.87,10.93c7.14,9.49,16.23,17.39,25.56,24.64c0.01,1.19,0.01,2.39,0.02,3.59c0.74-1.41,1.39-2.89,2.39-4.12
	c17.55-10.35,38.21-15.18,58.51-14.64c-0.42,3.62-0.66,7.28-0.57,10.94c-0.06,5.2-0.01,10.44-0.82,15.6
	c-0.33,6.16-0.4,12.33-0.57,18.5c-1.62,0.13-3.25,0.15-4.86-0.06c-35.4-4.04-70.68-9.55-105.43-17.48
	c-8.76-2.16-17.61-4.31-25.87-8.03c-2.48-1-4.09-3.27-5.29-5.56c-4.09-7.88-6.02-16.63-7.86-25.25
	c-4.15-21.79-5.96-43.94-7.38-66.02c0.23-7.03-1.13-13.98-0.95-21c-0.06-13.02-0.05-26.05-0.02-39.07c0.01-4.01,0.2-8.1,1.35-11.95
	C121.347,401.376,127.427,400.046,132.297,398.646z"/>
<path class="st12" d="M480.577,397.696c4.79-0.83,9.67-0.34,14.5-0.57c-9.04,28.63-18.93,57-28.02,85.61
	c0.51-0.01,1.55-0.04,2.06-0.06c-11.93,6.05-24.32,11.25-36.88,15.88c-1.12,0.24-2.45,1.1-3.51,0.27c-4-2.49-7.5-5.75-10.45-9.42
	c11.82-3.91,23.65-7.77,35.5-11.58C463.147,451.266,471.517,424.356,480.577,397.696z"/>
<path class="st13" d="M495.077,397.126c9.01-0.39,18.42-0.98,26.89,2.74c3.97,1.6,8.01,4.86,8.01,9.53
	c1.29,17.68,0.16,35.42-0.87,53.09c-1.77,27.13-4.89,54.19-9.95,80.91c-1.53,7.47-3.36,14.92-6.18,22.02
	c-1.41,3.29-3.16,7.03-6.91,8.11c-14.93,5.96-30.78,9.17-46.41,12.7c-28.25,5.7-56.6,11.25-85.28,14.22
	c-0.71-14.76-2.4-29.46-3.13-44.23c14.24,1.92,28.48,3.89,42.59,6.58c8.49,1.76,17.3,4.03,24.16,9.62c0.43,1.22,0.83,2.45,1.21,3.71
	c0.31,0.96,0.64,1.93,0.99,2.91c1.14-4.83,0.2-9.91,1.63-14.68c1.23-4.24,2.94-8.34,5.02-12.23c17.77-9.17,31.87-25.86,36.54-45.46
	c4.62-11.67,9.78-23.21,12.99-35.36c3.01-6.82,7.89-13.28,7.59-21.13c-6.47,15.18-20.83,24.93-34.85,32.5
	c-0.51,0.02-1.55,0.05-2.06,0.06C476.147,454.126,486.037,425.756,495.077,397.126z"/>
<path class="st17" d="M78.837,439.546c-0.77-11.13-0.64-22.33,0.23-33.44c1.54,10.48,2.76,21.15,6.37,31.17
	c1.21,3.01,2.6,6.6,5.99,7.67c6.09,2.21,12.46,3.64,18.89,4.4c0.11-1.35,0.22-2.69,0.32-4.03c-0.23,6.76,0.2,13.52,0.11,20.28
	c-8.87-1.74-17.55-5.46-24.43-11.39C82.077,450.506,79.127,445.236,78.837,439.546z"/>
<path class="st18" d="M437.017,417.626c10.52-2.35,20.99-4.97,31.32-8.02c-6.66,20.28-13.38,40.55-20.34,60.74
	c-0.27,1.41-2.01,1.4-3.03,1.95c-13.22,4.32-26.37,8.81-39.62,13.02c-6.01-18.94-11.94-37.89-17.74-56.89
	c-0.11-0.66-0.32-1.98-0.42-2.64c0.12-0.23,0.36-0.67,0.48-0.9c8.74-1.29,17.6-1.6,26.3-3.22c-0.04-1.11-0.07-2.21-0.09-3.3
	l0.07-0.95c2.84,12.45,5.74,24.9,8.81,37.3c1.41-2.05,1.98-4.5,2.76-6.82c3.81-10.89,7.41-21.86,11.21-32.75
	C436.797,415.766,436.947,417.006,437.017,417.626z"/>
<path class="st18" d="M279.797,418.896c0.11,0.05,0.34,0.15,0.45,0.2c4.34,2.04,9.23,2.13,13.89,2.85
	c27.45,3.62,55.22,4.83,82.87,3.45c0.17-0.43,0.51-1.27,0.68-1.69l0.13-0.3c6.79,21.74,13.36,43.55,20.13,65.3
	c-9.41,2.74-18.66,6.06-28.11,8.65c-2.99-17.48-6.65-34.85-9.52-52.36c-20.42-0.02-40.85-0.08-61.27,0.03
	c-2.99,16.26-6.54,32.42-9.79,48.64c-10.01-2.68-20.12-4.98-30.1-7.76c6.64-20.72,13.15-41.48,19.59-62.26
	C279.217,422.086,279.517,420.486,279.797,418.896z"/>
<path class="st12" d="M145.347,432.616c3.98,0.05,7.95,0.12,11.93,0.21c2.88,12.23,6.03,24.41,8.91,36.64
	c20.94,6.08,42.14,11.21,63.19,16.87c-2.13,4.5-5.67,8.94-10.29,10.93c-13.52-3.56-25.92-10.28-38.41-16.38
	c-7.99-3.81-15.44-8.64-22.4-14.09l0.78-0.06l-2.27-0.84c1.32-1.48,0.23-3.28-0.28-4.81
	C152.607,451.666,149.137,442.076,145.347,432.616z"/>
<path class="st12" d="M305.417,456.096c6.32,0.49,12.62-0.72,18.94-0.1c10.04,0.69,20.17-0.52,30.17,0.63
	c3.02,16.88,6.16,33.75,9.17,50.64c4.16-0.48,8.02-2.17,12.01-3.3c11.42-3.48,22.75-7.27,34.21-10.57
	c-0.11,4.23-0.53,8.45-1.43,12.6c-10.98,3.46-22.26,5.82-33.46,8.46c-3.8,0.67-6.75,3.25-9.89,5.28l-0.58-0.05
	c-4.5-0.5-8.46,2.37-12.7,3.41c0.45-12.77-1.57-25.43-3.35-38.03c-1.3-7.39-2.06-14.87-3.82-22.16c-8.05-2.48-15.86-6.26-24.44-6.31
	c-1.24-0.18-2.46-0.36-3.68-0.57c-2.17,8.27-1.82,16.95-2.72,25.41c-0.65,16.32-1.55,32.65-1.34,49c0.08,19-0.33,38.02,0.74,57
	c-0.08,15.02,0.93,30,1.29,45.01c0.06,2.79,0.58,5.63,0.06,8.41c-7.27,4.39-15.14,7.74-22.56,11.87c6.7,1.81,13.38,3.71,20.07,5.6
	c3.81,13.87,7.87,27.66,11.87,41.47c-5.91-3.27-10.2-8.6-15.38-12.81c-5.73-5.32-11.35-10.87-15.6-17.47
	c-4.7-5.52-9.08-11.8-10.52-19c3.93-36.91,7.07-73.94,8.68-111.04c-0.23-6.01-0.19-12.19-2.04-17.98
	c-1.96-6.59-8.34-11.13-14.97-12.12c-10.47-1.67-20.98-3.36-31.31-5.75c-4.65-3.83-7.07-10.02-8.42-15.8
	c13.63,3.15,26.95,7.59,40.62,10.62c6.93,1.16,13.58,3.52,20.47,4.85c2.35-11.94,4.86-23.84,7.19-35.78
	C303.527,463.686,303.907,459.736,305.417,456.096z"/>
<path class="st19" d="M313.847,481.436c0.9-8.46,0.55-17.14,2.72-25.41c1.22,0.21,2.44,0.39,3.68,0.57
	c-0.33,18.28,0.71,36.57,0.86,54.85c1.22,55,2.32,110,3.57,165c-0.19,8.29,0.94,16.63-0.1,24.89l-0.6-1.54
	c-4-13.81-8.06-27.6-11.87-41.47c-6.69-1.89-13.37-3.79-20.07-5.6c7.42-4.13,15.29-7.48,22.56-11.87c0.52-2.78,0-5.62-0.06-8.41
	c-0.36-15.01-1.37-29.99-1.29-45.01c-1.07-18.98-0.66-38-0.74-57C312.297,514.086,313.197,497.756,313.847,481.436z"/>
<path class="st13" d="M320.247,456.596c8.58,0.05,16.39,3.83,24.44,6.31c1.76,7.29,2.52,14.77,3.82,22.16
	c1.78,12.6,3.8,25.26,3.35,38.03c4.24-1.04,8.2-3.91,12.7-3.41c-3.6,4.04-3.53,9.71-3.99,14.78c-0.01,5.34-0.25,10.69,0.16,16.02
	c1.3,9.26,0.1,18.67,1.52,27.93c0.63,24.35,3.01,48.64,4.12,72.97c-3.68,11.73-11.06,22.04-19.79,30.59
	c-6.52,6.77-13.46,13.18-21.13,18.64c-0.08,0.72-0.25,2.16-0.33,2.89c-0.19-0.72-0.57-1.43-0.54-2.17c1.04-8.26-0.09-16.6,0.1-24.89
	c-1.25-55-2.35-110-3.57-165C320.957,493.166,319.917,474.876,320.247,456.596z"/>
<path class="st12" d="M146.757,460.466c2.52,2.99,4.03,6.7,6.63,9.66c4.78,6.48,11.29,11.31,17.53,16.24
	c-1.89,2.09-4.46,3.82-5.19,6.71c-1.99,5.53-0.58,11.37-0.4,17.04c-1.6-2.83-3.09-5.74-4.25-8.78
	C155.747,487.916,150.667,474.366,146.757,460.466z"/>
<path class="st12" d="M493.287,473.786c0.85-1.03,1.89-1.89,3.09-2.48c-3.21,12.15-8.37,23.69-12.99,35.36
	c0.16-4.34,0.59-8.77-0.65-13c-0.68-2.85-2.95-4.83-4.77-6.95C483.557,483.036,488.937,478.906,493.287,473.786z"/>
<path class="st20" d="M537.907,481.336c4.88-1.31,9.64-3.04,14.44-4.61c8.27,33.34,11.17,68.45,5.36,102.46
	c-2.2,11.23-5.02,22.44-9.71,32.92c-5.25-15.02-10.63-30-16.67-44.73c-0.4-1.23-1.18-2.49-0.81-3.82
	c3.5-13.76,5.22-27.93,6.08-42.09C537.877,508.126,537.247,494.706,537.907,481.336z"/>
<path class="st21" d="M193.777,498.516c2.23,0.24,4.4,0.82,6.5,1.63c22.1,7.89,45.21,12.25,67.99,17.69
	c-10.01,6.86-21.3,12.15-33.26,14.5c-11.15,1.86-23.94,0.94-32.52-7.27C195.037,518.516,193.237,507.956,193.777,498.516z"/>
<path class="st22" d="M385.677,519.606c23.91-6.41,48.36-11.45,71.16-21.35c1.33,8.79-0.62,18.54-6.78,25.21
	c-4.39,4.94-10.67,7.83-17.06,9.17C416.247,534.936,399.437,528.816,385.677,519.606z"/>
<path class="st12" d="M190.807,546.356c3.83,1.36,6.87,4.21,10.65,5.69c3.44,1.65,7.17,2.44,10.9,3.11
	c2.04,0.13,2.33,2.51,3.06,3.98c1.59,3.76,1.38,7.89,0.95,11.86C207.037,563.746,197.947,555.846,190.807,546.356z"/>
<path class="st12" d="M230.097,555.466c16.01-0.78,31.86-3.57,47.55-6.74c-0.44,5.98,1.1,12.28-0.93,18.04
	c-0.09-3.66,0.15-7.32,0.57-10.94c-20.3-0.54-40.96,4.29-58.51,14.64C221.127,564.726,224.297,558.266,230.097,555.466z"/>
<path class="st12" d="M370.937,548.786c19,4.07,38.34,6.74,57.77,7.16c5.57,3.6,8.1,10.2,9.29,16.47
	c-6.86-5.59-15.67-7.86-24.16-9.62c-14.11-2.69-28.35-4.66-42.59-6.58C371.167,553.736,371.047,551.256,370.937,548.786z"/>
<path class="st23" d="M442.387,553.916c1.38-0.82,2.94-1.29,4.46-1.79c-2.08,3.89-3.79,7.99-5.02,12.23
	c-1.43,4.77-0.49,9.85-1.63,14.68c-0.35-0.98-0.68-1.95-0.99-2.91c1.57-5.05-0.3-10.39,0.91-15.5
	C440.707,558.346,441.097,555.916,442.387,553.916z"/>
<path class="st24" d="M518.817,585.196c3.79-2.78,5.8-7.14,8.27-10.99c4.88,15.22,8.41,30.85,12.74,46.24
	c0.54,2.34,1.55,4.98,0.5,7.33c-12.93,21.42-33.02,38.28-56.17,47.67c-1.61-0.84-3.23-1.65-4.86-2.42
	c-0.05-4.52,1.87-8.72,2.28-13.17c1.02-7.63,0.02-15.59-3.26-22.58c-0.76-2.05-3.21-4.65-1-6.61c10.08-11.07,19.18-23.4,24.2-37.64
	C507.387,590.706,513.707,589.066,518.817,585.196z"/>
<path class="st24" d="M123.747,575.416c2.5,2.38,3.86,5.76,6.73,7.78c3.37,2.49,7.37,3.88,11.08,5.76
	c-0.05,13.98,2.79,28.53,10.84,40.21c5.55,8.05,14.45,13.59,24.06,15.26c-2.43,9.03-4.27,18.73-1.11,27.85
	c0.99,2.51,2.36,4.93,2.6,7.69c-15.23,7.72-28.88,18.58-45.15,24.17c-12.47,3.77-25.7,4.46-38.64,3.58
	c0.44-3.93,1.99-7.58,3.23-11.29C109.797,657.026,121.127,616.826,123.747,575.416z"/>
<path class="st25" d="M146.287,590.686c18.3,5.82,36.94,10.52,55.72,14.52c23.77,5.19,47.74,9.48,71.86,12.74
	c-0.13,10.69-0.52,21.35-0.99,32.02c-0.31,0.1-0.93,0.32-1.24,0.42c1.64-5.67,0.89-11.7,1.19-17.53
	c-18.82-6.24-38.46-9.45-57.94-12.83c-20.79-3.51-41.69-6.29-62.58-9.11c0.17,0.64,0.5,1.92,0.66,2.57
	C149.377,606.406,147.487,598.506,146.287,590.686z"/>
<path class="st25" d="M442.207,607.646c16.91-3.19,33.69-7.05,50.3-11.54c-6.21,9.78-15.68,16.74-24.63,23.84l-0.31,0.03
	c-4.94,0.4-9.74,1.69-14.59,2.62c-22.89,4.72-45.79,9.35-68.71,13.95c-2.21,0.41-4.45,0.64-6.67,0.93
	c-0.46-6.51-1.36-12.98-1.39-19.51C398.347,615.526,420.307,611.626,442.207,607.646z"/>
<path class="st26" d="M152.307,610.916c20.89,2.82,41.79,5.6,62.58,9.11c19.48,3.38,39.12,6.59,57.94,12.83
	c-0.3,5.83,0.45,11.86-1.19,17.53c-27.87,3.96-55.26,11.74-81.06,23c-4.65-7.1-4.44-16.28-1.59-24.01
	c2.07-6.15,6.09-11.34,8.94-17.11c-8.48-0.98-17.08,2.13-25.38-0.55c-9.04-2.45-15.61-10.09-19.58-18.23
	C152.807,612.836,152.477,611.556,152.307,610.916z"/>
<path class="st26" d="M452.977,622.596c4.85-0.93,9.65-2.22,14.59-2.62c-3.86,3.01-8.09,5.49-12.24,8.09
	c2.48,5.9,6.53,10.95,9.05,16.82c3.44,8.73,1.02,18.3-2.08,26.76c-1.77,0.35-3.51,1.22-5.34,1c-24.96-10.98-51.55-17.94-78.41-22.38
	c-0.43-4.26-0.79-8.52-0.95-12.79c2.22-0.29,4.46-0.52,6.67-0.93C407.187,631.946,430.087,627.316,452.977,622.596z"/>
<path class="st27" d="M541.617,664.996c2.32-2.26,3.99-5.3,7.03-6.7c1.77,9.15,4.78,18.11,5.5,27.43
	c-1.55-4.07-2.33-8.35-3.08-12.62c-5.35,2.96-8.03,8.83-12.78,12.52c-6.9,6.59-15.41,11.13-24.03,15.03
	c2.62,2.72,6.49,3.08,9.99,3.8c10.12,1.94,20.48,1.47,30.73,1.36c0.42-0.57,1.28-1.72,1.71-2.3c-0.65-5.79-2.35-11.43-2.41-17.29
	c2.14,6.53,2.48,13.48,3.95,20.19c-3.73-0.12-7.45,0.21-11.15,0.65c-5.04,0.58-10.04-0.52-15.07-0.64
	c-11.81-0.64-23.32-4.69-33.19-11.12c3.79-2.4,7.99-4.05,11.84-6.35C521.997,682.416,532.397,674.276,541.617,664.996z"/>
<path class="st28" d="M198.487,684.016c25.06-10.6,51.57-18.03,78.65-20.97c2.27,2.24,3.6,5.22,5.62,7.69
	c11.22,14.59,26.16,26.06,42.22,34.87c18.99-9.95,36.46-23.73,48.21-41.87c16.01,1.89,31.8,5.42,47.17,10.29
	c1.08,0.41,2.14,0.89,3.18,1.43c-6.44-0.94-12.5-3.39-18.8-4.88c-6.59-1.56-13.17-3.1-19.8-4.46c-3.64,4-4.91,9.56-8.88,13.33
	c-5.69,7.63-13.14,13.58-20.53,19.46c-9.16,5.8-18.85,10.76-28.95,14.7c-2.41,0.61-5.14,0.68-7.37-0.56
	c-18.84-11.87-35.05-27.39-49.9-43.89c-1.12-1.2-2.23-2.49-3.67-3.31c-3.27-0.27-6.46,0.81-9.65,1.37
	c-17.63,3.51-34.9,8.71-51.56,15.48c-2.78,1.16-5.64,2.08-8.52,2.95C196.737,685.046,197.597,684.506,198.487,684.016z"/>
<path class="st24" d="M255.987,667.216c3.19-0.56,6.38-1.64,9.65-1.37c1.44,0.82,2.55,2.11,3.67,3.31
	c14.85,16.5,31.06,32.02,49.9,43.89c2.23,1.24,4.96,1.17,7.37,0.56c10.1-3.94,19.79-8.9,28.95-14.7
	c7.39-5.88,14.84-11.83,20.53-19.46c3.97-3.77,5.24-9.33,8.88-13.33c6.63,1.36,13.21,2.9,19.8,4.46c6.3,1.49,12.36,3.94,18.8,4.88
	c3.67,0.67,7.15,2.1,10.53,3.65c-7.12,3.11-15.28,3.27-22.09,7.17c-6.38,3.84-10.33,10.69-12.05,17.79
	c-1.15,4.53-0.24,9.21,0.06,13.79c-3.29-1.11-6.65-2.19-10.16-2.24c2.6,4.1,6.09,7.7,10.5,9.85c0.2,0.15,0.6,0.45,0.8,0.6
	c8.06,9.08,18.29,15.91,26.64,24.7c-2.8,0.91-5.76,1.32-8.69,0.86c-21.59-2.62-42.5-8.97-63.05-15.9
	c-9.18-3.64-19.28-5.73-27.11-12.09c-1.79-1.66-4.29-0.42-5.75,1.04c-8.16,7.9-19.62,10.36-30,14.01c-14.19,4-28.63,7.19-43.32,8.73
	c-7.31,1.54-14.78,1.78-22.21,2.1c-0.18-3.71,3.59-6.13,5.49-8.99c4.29-5.24,10.6-8.3,14.88-13.55c2.53-2.71,5.79-4.62,8.25-7.42
	c-1.31,0.41-2.61,0.82-3.92,1.2c-21.56,6.81-43.51,13.61-66.3,14.25c-11.5-0.01-23.07,0.56-34.45-1.41
	c-8.91-0.46-17.12-4.05-25.37-7.08c-1.28-0.64-3.18-1.11-3.03-2.9c4.78-6.51,13.84-5.56,20.14-9.71
	c18.05-8.45,33.99-20.91,52.58-28.26c2.88-0.87,5.74-1.79,8.52-2.95C221.087,675.926,238.357,670.726,255.987,667.216z"/>
<path class="st24" d="M538.287,685.626c4.75-3.69,7.43-9.56,12.78-12.52c0.75,4.27,1.53,8.55,3.08,12.62l0.13,0.5
	c0.06,5.86,1.76,11.5,2.41,17.29c-0.43,0.58-1.29,1.73-1.71,2.3c-10.25,0.11-20.61,0.58-30.73-1.36c-3.5-0.72-7.37-1.08-9.99-3.8
	C522.877,696.756,531.387,692.216,538.287,685.626z"/>
<path class="st15" d="M426.967,689.396c12.65-2.97,25.35-5.79,38.09-8.34c9.42-1.87,18.39,6.45,18.49,15.8l-0.44,0.15
	c-23.22,7.38-46.3,15.25-69.72,21.92c-2.93-3.44-5.27-7.77-4.91-12.43c0-7.65,6.13-14.72,13.68-15.89l0.72-0.33
	C424.247,690.016,425.607,689.696,426.967,689.396z"/>
<path class="st17" d="M413.387,718.926c23.42-6.67,46.5-14.54,69.72-21.92c0.07,4.31-2.3,8.35-5.49,11.09
	c-3.22,2.73-7.51,3.45-11.47,4.44c-12.78,3.01-25.4,6.65-38.07,10.08C422.867,724.056,417.537,722.066,413.387,718.926z"/>
<path class="st29" d="M399.987,717.856c-0.3-4.58-1.21-9.26-0.06-13.79c-0.21,7.19,1.21,14.8,5.89,20.48
	c-4.25-1.55-7.72-4.59-11.92-6.25c2.02,2.5,4.54,4.56,6.43,7.17c-4.41-2.15-7.9-5.75-10.5-9.85
	C393.337,715.666,396.697,716.746,399.987,717.856z"/>
<path class="st27" d="M492.607,709.556c2.27,0.69,4.41,1.73,6.5,2.86c3.59,1.97,7.75,2.59,11.28,4.7c-2.19-0.4-4.36-0.86-6.53-1.31
	c-12.94,8.34-26.74,15.63-41.72,19.55c-6.12,1.77-12.49,2.23-18.78,3.03c1.14,1.14,2.17,2.7,3.97,2.79
	c6.84,1.11,13.66,2.83,20.64,2.77c9.04-0.01,18.16,0.38,27.1-1.28c4.34-0.89,8.57-2.22,12.86-3.32c5.97-1.53,11.45-4.49,17.43-6.02
	c-6.1,4.08-13.43,5.67-20.36,7.78c-13.53,4.18-27.91,4.55-41.93,3.41c-13.5-1.14-26.62-4.96-38.93-10.55
	c6.45,0.16,12.64-1.79,18.9-3.07c11.18-2.45,22.4-4.81,33.43-7.88C483.507,721.116,489.167,715.856,492.607,709.556z"/>
<path class="st27" d="M118.867,719.746c8.41-0.79,16.28-4.03,24.46-5.84c-6.3,4.15-15.36,3.2-20.14,9.71
	c-0.15,1.79,1.75,2.26,3.03,2.9c8.25,3.03,16.46,6.62,25.37,7.08c11.38,1.97,22.95,1.4,34.45,1.41c22.79-0.64,44.74-7.44,66.3-14.25
	c-8.03,5.74-17.12,9.94-26.18,13.81c-16.17,6.65-33.55,10.95-51.12,10.6c-22.3,0.51-44.44-6-63.77-16.93
	c-3.94-2.41-8.19-4.48-11.46-7.82C106.147,719.956,112.527,720.256,118.867,719.746z"/>
<path class="st24" d="M462.137,735.356c14.98-3.92,28.78-11.21,41.72-19.55c2.17,0.45,4.34,0.91,6.53,1.31
	c7.85,1.59,15.65,3.89,23.72,3.89c3.36-0.04,6.69,0.47,9.97,1.2c-6.07,3.96-12.11,8.15-18.72,11.12
	c-5.98,1.53-11.46,4.49-17.43,6.02c-4.29,1.1-8.52,2.43-12.86,3.32c-8.94,1.66-18.06,1.27-27.1,1.28
	c-6.98,0.06-13.8-1.66-20.64-2.77c-1.8-0.09-2.83-1.65-3.97-2.79C449.647,737.586,456.017,737.126,462.137,735.356z"/>
<path class="st28" d="M323.167,724.676c1.46-1.46,3.96-2.7,5.75-1.04c7.83,6.36,17.93,8.45,27.11,12.09
	c20.55,6.93,41.46,13.28,63.05,15.9c2.93,0.46,5.89,0.05,8.69-0.86c-8.35-8.79-18.58-15.62-26.64-24.7c2.02,1,3.8,2.39,5.48,3.89
	c8.51,7.38,18.29,13.04,27.74,19.09c3.94,2.29,8.33,3.71,12.21,6.14c-10.03,2.06-20.33,2.29-30.54,2.26
	c-21.59,0.3-43.47-4.14-62.67-14.17c-9.88-5.12-18-12.79-26.4-19.94c-3.42,2.18-6.24,5.13-9.4,7.64
	c-14.87,13.27-34.14,20.59-53.53,24.14c-20.6,3.46-41.81,3.45-62.39,0.01c2.66-1.91,5.72-3.1,8.64-4.54
	c9.75-4.94,19.23-10.45,28.13-16.81c3.16-2.33,6.07-5.04,9.61-6.8c-4.28,5.25-10.59,8.31-14.88,13.55c-1.9,2.86-5.67,5.28-5.49,8.99
	c7.43-0.32,14.9-0.56,22.21-2.1c14.69-1.54,29.13-4.73,43.32-8.73C303.547,735.036,315.007,732.576,323.167,724.676z"/>
<path class="st27" d="M87.317,726.466c11.07,7,22.65,13.32,35.07,17.6c15.57,5.54,32.15,7.98,48.64,7.79
	c-7.58,2.32-15.8,2.18-23.19,5.06c22.54,4.47,45.09,10,68.2,10.16c8.18-0.05,16.37,0.11,24.54-0.51c0.71,2.97,1.34,5.96,1.52,9.02
	c-0.62-0.94-1.25-1.87-1.9-2.77c-9.65,1.93-19.36,3.72-29.21,4.21c-13.93,0.01-28.06,0.81-41.72-2.56
	c-13.75-1.66-26.85-6.35-40.16-10c-1.75-0.23-2.59-1.87-3.65-3.05c3.33-0.38,7.23,0.12,9.63-2.74c-9.22-2.69-18.07-6.41-26.9-10.12
	c-8.34-2.44-16.21-6.27-23.61-10.79c-5.67,8.71-6.57,19.27-8.3,29.24c-1.09,8.85-1,17.9,0.94,26.63
	c0.86,10.75,3.25,21.28,5.34,31.83c0.5,2.17,1.63,4.11,2.62,6.08c2.43-10.47,4.34-21.18,8.65-31.09c2.05-4.92,3.99-9.92,6.74-14.5
	c0.54-0.05,1.64-0.15,2.19-0.2c-0.38,6.66-3.02,12.98-3.16,19.67c-0.24,7.02-0.3,14.11,1.07,21.03c0.18,1.47,1.13,2.67,1.89,3.9
	c5.29-6.11,11.13-11.96,18.32-15.8c3.49-1.74,7.42-2.09,11.21-2.72c5.16-0.52,8.79-5.51,14.2-4.96c1.4,13.7,6.17,26.78,8.85,40.26
	c3.51,11.55,6.81,23.17,9.86,34.85c3.75,9.68,6.2,19.79,10.29,29.35c1.52,4.41,4.33,8.23,5.86,12.64c2.2,7.05,5.44,13.72,8.13,20.58
	c5.64,9.83,10.4,20.57,19.05,28.22c0.86-2.37,1.36-4.85,1.25-7.37c-0.17-16,0.04-32-0.07-48c0.04-2.15-0.24-4.54,1.35-6.24
	c2.47,8.99,2.69,18.44,5.57,27.32c3.94,16.38,10.38,32.19,19.33,46.48c0.91,0,1.81,0.01,2.72,0.02c4.41-6.52,6.51-14.17,9.88-21.21
	c6.27-16.35,15.66-31.31,21.62-47.8c0.36-0.05,1.1-0.14,1.47-0.18c1.36,3.49,2.25,7.16,2.38,10.93c-1.52-3.31-2.15-6.91-3.18-10.37
	c-5.2,21.47-10.62,43-12.67,65.05c-1.78,17.31-2.86,34.69-2.55,52.1c0.06,13.06-0.32,26.13,0.75,39.16c-3.3-2.1-5.53-5.37-8.28-8.07
	c-19.62-20.77-38.83-41.93-57.56-63.5c-7.21-8.5-14.37-17.05-20.85-26.13c-1.35-1.86-2.32-3.97-2.86-6.2
	c-8.83-35.55-15.48-71.75-17.98-108.33c0.18-8.38-1.34-16.68-0.93-25.06c0.37-9.51-1.09-18.93-2.5-28.3
	c-5.6,3.06-11.49,5.53-17.18,8.4c-6.8,3.22-11.42,9.52-15.23,15.78c-9.64,16.88-14.33,35.96-18.11,54.86
	c-0.91,4.34-1.19,8.83-2.63,13.06c-4.74-11.05-7.35-22.89-10.44-34.48c-8.51-35.65-10.87-73.1-4.36-109.28
	C78.777,745.196,84.157,736.186,87.317,726.466z"/>
<path class="st30" d="M318.897,736.326c3.12-2.51,5.7-5.6,7.95-8.89c1.71,2.65,3.52,5.28,5.93,7.37
	c20.37,19.35,48.28,29.54,76.04,31.4c-0.57,4.14-1.21,8.31-2.56,12.29c0.2-1.42,0.38-2.84,0.55-4.25
	c-7.33-1.49-14.6-3.27-21.71-5.57c0.27-0.09,0.81-0.27,1.09-0.36c5.19,0.93,10.16,2.81,15.39,3.57
	c-8.71-5.53-18.77-8.46-28.62-11.24c-3.33-0.64-6.99-2.19-10.29-0.68c-2.65-1.94-5.51-3.57-8.41-5.09c-0.67-0.38-1.34-0.75-2-1.09
	c-8.65-5.91-17.39-12.1-23.7-20.61c-3.57,3.37-6.65,7.29-10.75,10.06c-7.18,5-15.05,8.98-23.19,12.14
	c-3.51,0.85-7.13,1.16-10.68,1.82C296.687,752.356,308.727,745.466,318.897,736.326z"/>
<path class="st27" d="M498.237,751.656c21.3-2.66,42.19-10.05,59.91-22.26c-1.65,8.69-1.7,17.68-3.9,26.25
	c-0.21-6.22,1.34-12.29,1.37-18.49c-2.43,0.67-4.86,1.38-7.11,2.53c-10.08,5.33-20.58,9.8-31.13,14.11
	c-5.12,1.8-10.48,2.81-15.61,4.57c-0.13,0.85-0.26,1.71-0.38,2.57c4.54,0,9.09-0.07,13.63,0.23c-3.82,4.16-9.48,5.59-14.45,7.87
	c-6.82,3.02-14.13,4.61-21.02,7.41c-16.52,3.88-33.69,3.45-50.52,2.45c-5.74-0.35-11.5-3.39-17.22-1.37
	c1.21-3.36,1.78-6.9,2.01-10.45c22.3,0.17,45.24,0.24,66.53-7.29c4.25-1.5,8.71-2.44,12.74-4.51c-4.03-1.12-8.18-1.64-12.27-2.44
	C486.607,752.256,492.437,752.186,498.237,751.656z"/>
<path class="st31" d="M317.807,743.236c4.1-2.77,7.18-6.69,10.75-10.06c6.31,8.51,15.05,14.7,23.7,20.61
	c-6.17-0.41-12.34-0.05-18.48,0.41c5.88,0.95,11.78,1.92,17.47,3.73c1.61,4.22,3.44,8.35,4.86,12.65c3.12-1.84,5.27-4.8,7.91-7.19
	c1.04-1.28,2.72-0.43,4.04-0.27c6.13,1.42,11.98,3.84,18.13,5.2c-0.28,0.09-0.82,0.27-1.09,0.36c7.11,2.3,14.38,4.08,21.71,5.57
	c-0.17,1.41-0.35,2.83-0.55,4.25c-1.45,4.5-2.32,10.29-7.16,12.42c-3.13,0.54-5.82-1.47-8.5-2.72
	c-18.23-10.14-38.69-16.48-59.55-17.66c-9.59-1.28-19.3-0.43-28.89,0.34c-16.93,1.67-33.65,5.78-49.32,12.43
	c-0.71-4.13-1.9-8.15-2.58-12.27c21.2-7.14,42.9-13.02,65.07-16.12c-6.89-1.16-13.82,0.06-20.71,0.46
	C302.757,752.216,310.627,748.236,317.807,743.236z"/>
<path class="st24" d="M548.507,739.686c2.25-1.15,4.68-1.86,7.11-2.53c-0.03,6.2-1.58,12.27-1.37,18.49l-0.13,0.56
	c-2.06,6.55-1.73,13.57-4.14,20.05c-2.46,12.01-6.06,23.75-8.94,35.67c-0.91,4.25-2.05,8.46-3.42,12.59
	c-1.81-0.58-3.65-1.15-5.25-2.18c-6.48-4.24-12.73-8.85-18.52-13.99c-6.37-7.85-11.96-16.38-19.13-23.57
	c-0.63-0.67-1.42-1.04-2.35-1.09c1.2,2.4,2.89,4.66,3.37,7.37c1.01,8.53,3.59,16.81,4.13,25.41c1.44,7.28,2.43,14.63,3.65,21.96
	c0.81,5.91,0.78,11.94,2.19,17.77c2.32,10.2,2.05,20.71,1.82,31.1c-2.71-0.61-5.55-1.15-7.81-2.85
	c-6.56-4.97-12.26-10.96-18.87-15.84c-3.56-2.77-6.12-6.54-9.25-9.73c-5.77-5.92-11.38-11.98-17.47-17.58
	c-3.67-3.25-6.44-7.79-11.13-9.68l-0.77-0.34c2.26,8.88,6.29,17.36,7.47,26.48c0.04,2.91,0.13,5.85,0.62,8.73
	c1.97,10.9,1.55,22.05,3.11,32.99c1.15,8.32,0.99,16.71,1.2,25.08c1.46,10.9,0.85,21.93,0.84,32.89c-1.29,8.56-0.57,17.3-2.4,25.78
	c-0.97,5.22-1.62,10.57-3.87,15.45c-10.74-11.78-17.51-26.75-28.7-38.13c-5.27-8.44-7.27-18.56-12.35-27.15
	c-7.59-13.14-15.09-26.32-22.44-39.6c-0.72-1.47-1.84-2.69-2.98-3.83c-1.75,5.35-0.83,11.01-1.28,16.52
	c-1.26,10.84-1.91,21.79-4.53,32.42c-1.26,8.58-2.98,17.09-5.1,25.51c-4.38,16.24-8.88,32.48-14.82,48.24
	c-3.67,10.81-9.13,20.89-13.34,31.49c-1.62-0.3-3.48-0.28-4.65-1.63c-5.53-5.17-9.92-11.39-14.6-17.3
	c-6.51-9.56-13.31-18.95-18.71-29.22c-4.76-7.06-7.66-15.1-12.04-22.38c-4.01-7.34-7.61-14.95-12.37-21.86
	c-2.42-4.09-3.1-8.89-4.37-13.39c-0.91-3.92-2.53-7.65-3.09-11.64c-0.13-3.77-1.02-7.44-2.38-10.93c-0.37,0.04-1.11,0.13-1.47,0.18
	c-5.96,16.49-15.35,31.45-21.62,47.8c-3.37,7.04-5.47,14.69-9.88,21.21c-0.91-0.01-1.81-0.02-2.72-0.02
	c-8.95-14.29-15.39-30.1-19.33-46.48c-2.88-8.88-3.1-18.33-5.57-27.32c-1.59,1.7-1.31,4.09-1.35,6.24c0.11,16-0.1,32,0.07,48
	c0.11,2.52-0.39,5-1.25,7.37c-8.65-7.65-13.41-18.39-19.05-28.22c-2.69-6.86-5.93-13.53-8.13-20.58c-1.53-4.41-4.34-8.23-5.86-12.64
	c-4.09-9.56-6.54-19.67-10.29-29.35c-3.05-11.68-6.35-23.3-9.86-34.85c-2.68-13.48-7.45-26.56-8.85-40.26
	c-5.41-0.55-9.04,4.44-14.2,4.96c-3.79,0.63-7.72,0.98-11.21,2.72c-7.19,3.84-13.03,9.69-18.32,15.8c-0.76-1.23-1.71-2.43-1.89-3.9
	c-1.37-6.92-1.31-14.01-1.07-21.03c0.14-6.69,2.78-13.01,3.16-19.67c-0.55,0.05-1.65,0.15-2.19,0.2c-2.75,4.58-4.69,9.58-6.74,14.5
	c-4.31,9.91-6.22,20.62-8.65,31.09c-0.99-1.97-2.12-3.91-2.62-6.08c-2.09-10.55-4.48-21.08-5.34-31.83
	c-1.94-8.73-2.03-17.78-0.94-26.63c1.73-9.97,2.63-20.53,8.3-29.24c7.4,4.52,15.27,8.35,23.61,10.79
	c8.83,3.71,17.68,7.43,26.9,10.12c-2.4,2.86-6.3,2.36-9.63,2.74c1.06,1.18,1.9,2.82,3.65,3.05c13.31,3.65,26.41,8.34,40.16,10
	c13.66,3.37,27.79,2.57,41.72,2.56c9.85-0.49,19.56-2.28,29.21-4.21c0.65,0.9,1.28,1.83,1.9,2.77c1.78,5.64,0.43,13.13,5.82,16.99
	c3.63,1.34,7.65,0.42,10.94-1.43c40.73-16.86,89.18-17.27,128.66,3.35c4.37,2.58,9.75,3.5,14.65,2.08
	c6.98-3.54,8.71-11.99,9.64-19.05c5.72-2.02,11.48,1.02,17.22,1.37c16.83,1,34,1.43,50.52-2.45c6.89-2.8,14.2-4.39,21.02-7.41
	c4.97-2.28,10.63-3.71,14.45-7.87c-4.54-0.3-9.09-0.23-13.63-0.23c0.12-0.86,0.25-1.72,0.38-2.57c5.13-1.76,10.49-2.77,15.61-4.57
	C527.927,749.486,538.427,745.016,548.507,739.686 M296.157,802.176c-8.24,2.12-17.16,2.14-24.79,6.3c3.68,1.7,7.85,1.1,11.66,2.31
	c5.04,1.47,10.19,2.73,14.86,5.21c6.64,3.17,11.99,8.36,17.34,13.3c4.26,3.83,6.28,9.52,10.79,13.14
	c4.01-7.2,8.78-14.97,17.05-17.74c8.86-4.95,18.85-7.41,28.93-8.03c4.02-1.12,8.6,0.21,12.23-2.1c-3.01-2.41-6.6-3.84-10.05-5.45
	c-8.36-3.74-16.98-7.34-26.23-7.92c-10.52-1.92-21.26-1.26-31.9-1.16C309.437,800.976,302.767,801.286,296.157,802.176z"/>
<path class="st32" d="M333.777,754.196c6.14-0.46,12.31-0.82,18.48-0.41c0.66,0.34,1.33,0.71,2,1.09c1.65,2.22,2.48,5.03,4.24,7.14
	c1.56-0.22,2.78-1.39,4.17-2.05c3.3-1.51,6.96,0.04,10.29,0.68c9.85,2.78,19.91,5.71,28.62,11.24c-5.23-0.76-10.2-2.64-15.39-3.57
	c-6.15-1.36-12-3.78-18.13-5.2c-1.32-0.16-3-1.01-4.04,0.27c-2.64,2.39-4.79,5.35-7.91,7.19c-1.42-4.3-3.25-8.43-4.86-12.65
	C345.557,756.116,339.657,755.146,333.777,754.196z"/>
<path class="st33" d="M354.257,754.876c2.9,1.52,5.76,3.15,8.41,5.09c-1.39,0.66-2.61,1.83-4.17,2.05
	C356.737,759.906,355.907,757.096,354.257,754.876z"/>
<path class="st27" d="M549.977,776.256c2.41-6.48,2.08-13.5,4.14-20.05c0.26,5.16-1.36,10.16-1.57,15.29
	c-2.81,18.96-4.38,38.08-6.78,57.1c-0.71,8.95-2.09,17.86-2.34,26.85c-0.74-0.64-1.61-1.18-2.04-2.07
	c-6.72-12.47-14.42-24.36-21.94-36.35c-1.87-2.9-4.12-5.55-5.6-8.68c5.79,5.14,12.04,9.75,18.52,13.99c1.6,1.03,3.44,1.6,5.25,2.18
	c1.37-4.13,2.51-8.34,3.42-12.59C543.917,800.006,547.517,788.266,549.977,776.256z"/>
<path class="st34" d="M249.297,764.886c1.51-0.39,3.06,0.06,4.56,0.27c-1.3,1.19-2.91,2.05-4.67,2.25
	C247.907,766.636,248.187,765.576,249.297,764.886z"/>
<path class="st27" d="M495.737,791.056c5.09,7.55,8.56,16.09,12.43,24.32c6.02,13.45,11.06,27.54,13.03,42.2
	c-0.55,7.75-2.77,15.27-3.99,22.93c-3.99,20.4-7.54,40.89-11.94,61.2c-5.92-16.54-10.84-33.48-17.8-49.65
	c-5.97-13.36-12.06-27.13-22.12-37.98c-7.41-7.53-14.99-14.89-22.35-22.46c4.69,1.89,7.46,6.43,11.13,9.68
	c6.09,5.6,11.7,11.66,17.47,17.58c3.13,3.19,5.69,6.96,9.25,9.73c6.61,4.88,12.31,10.87,18.87,15.84c2.26,1.7,5.1,2.24,7.81,2.85
	c0.23-10.39,0.5-20.9-1.82-31.1c-1.41-5.83-1.38-11.86-2.19-17.77c-1.22-7.33-2.21-14.68-3.65-21.96
	C499.327,807.866,496.747,799.586,495.737,791.056z"/>
<path class="st27" d="M296.157,802.176c6.61-0.89,13.28-1.2,19.89-2.14c10.64-0.1,21.38-0.76,31.9,1.16
	c9.25,0.58,17.87,4.18,26.23,7.92c3.45,1.61,7.04,3.04,10.05,5.45c-3.63,2.31-8.21,0.98-12.23,2.1
	c-10.08,0.62-20.07,3.08-28.93,8.03c-8.27,2.77-13.04,10.54-17.05,17.74c-4.51-3.62-6.53-9.31-10.79-13.14
	c-5.35-4.94-10.7-10.13-17.34-13.3c-4.67-2.48-9.82-3.74-14.86-5.21c-3.81-1.21-7.98-0.61-11.66-2.31
	C278.997,804.316,287.917,804.296,296.157,802.176z"/>
<path class="st27" d="M449.697,857.756c2.31,2.97,2.71,6.84,3.82,10.33c7.05,27.83,8.92,56.73,7.86,85.34
	c-1.45,25.42-5.3,50.8-12.61,75.22c-1.72-2.12-2.49-4.77-3.5-7.24c-6.76-16.33-13.46-32.67-20.31-48.96
	c-1.62-3.91-3.72-7.68-4.46-11.9c11.19,11.38,17.96,26.35,28.7,38.13c2.25-4.88,2.9-10.23,3.87-15.45
	c1.83-8.48,1.11-17.22,2.4-25.78c0.01-10.96,0.62-21.99-0.84-32.89c-0.21-8.37-0.05-16.76-1.2-25.08
	c-1.56-10.94-1.14-22.09-3.11-32.99C449.827,863.606,449.737,860.666,449.697,857.756z"/>
<path class="st27" d="M381.447,906.486c0.45-5.51-0.47-11.17,1.28-16.52c0.72,6.87-0.95,13.63-0.95,20.48
	c-3.08,34.31-4.93,68.74-8.33,103.03c-2.56,28.37-5.41,56.72-9.14,84.97c-0.75,5.06-1.24,10.18-2.44,15.17
	c-5.3-5.93-8.97-13.08-13.54-19.55c-22.41-34.52-42.98-70.5-57.8-108.98c-3.71-10.89-8.08-21.82-9.24-33.33
	c4.76,6.91,8.36,14.52,12.37,21.86c4.38,7.28,7.28,15.32,12.04,22.38c5.4,10.27,12.2,19.66,18.71,29.22
	c4.68,5.91,9.07,12.13,14.6,17.3c1.17,1.35,3.03,1.33,4.65,1.63c4.21-10.6,9.67-20.68,13.34-31.49c5.94-15.76,10.44-32,14.82-48.24
	c2.12-8.42,3.84-16.93,5.1-25.51C379.537,928.276,380.187,917.326,381.447,906.486z"/>
<path class="st35" d="M183.097,1019.876c2.21,2.1,4.38,4.24,6.49,6.45C186.367,1026.076,183.197,1023.166,183.097,1019.876z"/>
<path class="st36" d="M206.787,1043.346c1.16,1.08,2.26,2.21,3.34,3.38C208.127,1048.306,205.167,1045.326,206.787,1043.346z"/>
<path class="st37" d="M371.667,1169.246c1.39,0.02,2.71,0.33,3.97,0.92c-0.08,0.88-0.54,2.9-1.83,1.93
	C372.877,1171.296,372.327,1170.216,371.667,1169.246z"/>
</svg>
