<?xml version="1.0" encoding="utf-8"?>
<!-- Generator: Adobe Illustrator 19.0.0, SVG Export Plug-In . SVG Version: 6.00 Build 0)  -->
<svg version="1.1" xmlns="http://www.w3.org/2000/svg" xmlns:xlink="http://www.w3.org/1999/xlink" x="0px" y="0px"
	 viewBox="47 211.7 312 442.3" style="enable-background:new 47 211.7 312 442.3;" xml:space="preserve">
<g id="Layer_1">
	<g transform="translate(0.000000,500.000000) scale(0.100000,-0.100000)">
		<path d="M470,1093.1v-1790l427-421l427-421h1019h1018l-303,320l-303,319l-595,1h-595l-228,228l-227,227v708v707h703h704l236-226
			l237-226v-602v-603l298-280l297-280l3,1006l2,1006l-457,457l-458,458h-782h-783v293v294l-277,269c-153,149-297,287-320,308l-43,38
			V1093.1z"/>
		<path d="M2990-815.9v-82l-90-3l-90-3l298-315l298-315l92-3l92-3v120v119l-237,223c-131,122-266,250-300,283l-63,60V-815.9z"/>
	</g>
</g>
<g id="Layer_2">
	<path d="M352.4,423.4V614c0.7,0.8,1.3,1.6,1.7,2.6c0.3,0.2,0.6,0.4,0.8,0.8c0,0,0,0,0,0c0,0,0,0,0,0c0.1,0.1,0.2,0.2,0.3,0.3
		c0.1,0.1,0.3,0.3,0.5,0.4c0,0,0.1,0,0.1,0.1c0.1,0.1,0.2,0.2,0.3,0.2c0.3,0.2,0.6,0.5,1,0.7c0.9,0.8,0.7,2.2,0.1,3
		c0.1,0.2,0.3,0.3,0.5,0.5c0.6,0.5,0.8,1.1,0.7,1.7c0,0,0,0.1,0,0.2c0,0,0,0.1,0,0.1c0,0,0,0,0,0.1h0.5V423.4H352.4z"/>
	<polyline points="358.5,624.6 358,624.1 359,625.1 359,624.6 	"/>
	<polyline points="340.6,653.4 339,651.7 341.2,654 359,654 	"/>
	<polyline points="336.1,653.9 335.8,653.6 336.2,654 132.5,654 131.7,653.2 132.4,653.9 	"/>
</g>
</svg>
