<?xml version="1.0" encoding="utf-8"?>
<!-- Generator: Adobe Illustrator 19.0.0, SVG Export Plug-In . SVG Version: 6.00 Build 0)  -->
<svg version="1.1" id="Layer_1" xmlns="http://www.w3.org/2000/svg" xmlns:xlink="http://www.w3.org/1999/xlink" x="0px" y="0px"
	 viewBox="144.2 201.8 533.3 438.2" style="enable-background:new 144.2 201.8 533.3 438.2;" xml:space="preserve">
<style type="text/css">
	.st0{fill:url(#SVGID_1_);}
	.st1{fill:url(#SVGID_2_);}
	.st2{fill:url(#SVGID_3_);}
</style>
<g id="_x23_000000ff">
</g>
<linearGradient id="SVGID_1_" gradientUnits="userSpaceOnUse" x1="144.2106" y1="412.935" x2="677.4706" y2="412.935">
	<stop  offset="0.2" style="stop-color:#042342"/>
	<stop  offset="0.7903" style="stop-color:#3296CA"/>
	<stop  offset="0.957" style="stop-color:#0E315B"/>
</linearGradient>
<path class="st0" d="M531.4,205.5c3.8-1.5,7.5-3.1,11.5-3.7c49.9,64.9,86.6,139.6,109.5,218.1c12.1,41.9,17.5,86.9,25,141.5
	c-8.5-20.9-5.4-14.1-8.5-20.9c-19.3-49.6-40.3-98.6-65.8-145.3c-12.7-22.9-26.2-45.7-43.5-65.4c-1.4-2.3-4.2-1.7-6.4-1.2
	c-29.5,7.4-58,18.1-85.9,30.1c-36,15.6-70.6,34.3-103.7,55.3c-24.8,16.2-49.2,33.1-72,52c-10.6,8.7-21.4,17.2-31.2,26.7
	c-43.6,39.2-82.4,83.6-116.2,131.4c3.9-16.1,19.5-56.7,25.5-71.3c5.7-11.7,10.6-23.8,16.7-35.3c3.8-8.3,9-15.9,12.9-24.1
	c19-32.8,40-64.5,64-93.9c10.3-12.7,21-25,32.2-36.8c14.3-14.4,28.4-29.1,44-42C395.9,271.2,461.5,232.5,531.4,205.5z"/>
<linearGradient id="SVGID_2_" gradientUnits="userSpaceOnUse" x1="240.0706" y1="505.2534" x2="596.0106" y2="505.2534">
	<stop  offset="8.602151e-002" style="stop-color:#0D2444"/>
	<stop  offset="1" style="stop-color:#115F9D"/>
</linearGradient>
<path class="st1" d="M556.3,378.4c2.6-1.3,24.7,36.3,33.3,53.5c2.2,4.6,5.1,9,6.4,14c-39.4,7.3-78,19-115.1,34.1
	c-36.7,14.5-72.1,32.1-106.3,51.8c-10.9,6.7-22.1,13-32.7,20.3c-16.4,9.9-31.6,21.7-47.1,32.9c-10.1,8.2-20.7,15.9-30.2,24.8
	c-8.5,7.1-16.7,14.5-24.5,22.3c4-8.3,9.9-15.4,14.6-23.3c23.8-34.2,50.4-66.5,80.3-95.6c5.1-5.6,11.1-10.3,16.4-15.6
	C409.4,444.6,480.8,401.1,556.3,378.4z"/>
<linearGradient id="SVGID_3_" gradientUnits="userSpaceOnUse" x1="336.9206" y1="559.845" x2="634.7426" y2="559.845">
	<stop  offset="0" style="stop-color:#001A3B"/>
	<stop  offset="1" style="stop-color:#0C4477"/>
</linearGradient>
<path class="st2" d="M596.2,483.6c5.1-1.4,10.2-3,15.5-3.9c8.5,15.5,13.7,32.6,19.7,49.2c1.3,4.2,3.6,8.3,3.3,12.8
	c-51.7,5.9-103.2,15.5-152.8,31.4c-19,6-37.6,13.3-56,21c-8.4,4.1-17.3,7.1-25.5,11.6c-21.7,10.5-42.8,22-63.4,34.4
	c8.4-11.4,18.6-21.3,28.6-31.1c20.2-19.1,42.4-36,65.5-51.4C481.7,524.2,537.9,499.7,596.2,483.6z"/>
</svg>
