<?xml version="1.0" encoding="utf-8"?>
<!-- Generator: Adobe Illustrator 21.0.0, SVG Export Plug-In . SVG Version: 6.00 Build 0)  -->
<svg version="1.1" id="Слой_1" xmlns="http://www.w3.org/2000/svg" xmlns:xlink="http://www.w3.org/1999/xlink" x="0px" y="0px"
	 viewBox="0 0 130.3 141.8" style="enable-background:new 0 0 130.3 141.8;" xml:space="preserve">
<style type="text/css">
	.st0{fill:#444444;}
	.st1{fill-rule:evenodd;clip-rule:evenodd;fill:#A31A1A;}
	.st2{fill:#A31A1A;}
</style>
<rect x="-234.9" y="343.1" class="st0" width="595.3" height="449.9"/>
<g>
	<g>
		<g id="XMLID_16_">
			<path class="st1" d="M126,19.1C120,0.9,91.7,0,65,0C38.4,0,10,0.9,4,19.1c-6.3,19.2-3.3,67.7-3.3,67.7c0,20.6,54,54.9,64.3,54.9
				c10.3,0,63.7-34.4,64.3-54.9C129.9,69.9,132.4,38.3,126,19.1z M116.5,80.6c-0.8,14.1-39.7,45.2-51.5,45.2
				c-11.8,0-51.5-31-51.5-45.2c0-10.6-3-42.5,2.6-52.9C24.7,11.9,52.7,13,65,13c12.4,0,40.3-1.1,48.9,14.7
				C119.5,38.2,117.1,69.6,116.5,80.6z"/>
		</g>
	</g>
	<g id="XMLID_14_">
		<path class="st2" d="M65.2,10c-1.2,0-2.3,0.7-2.9,1.7l-16,29.5l-32.6,5.7c-1.2,0.2-2.1,1-2.5,2.2c-0.4,1.1-0.1,2.4,0.7,3.3
			l23.3,24.9l-4.6,32c-0.2,1.2,0.3,2.4,1.3,3.1c0.6,0.4,1.2,0.6,1.9,0.6c0.5,0,1-0.1,1.4-0.3l30-14.5l30,14.5
			c0.4,0.2,0.9,0.3,1.4,0.3c0.7,0,1.4-0.2,1.9-0.6c1-0.7,1.5-1.9,1.3-3.1l-4.7-33.1l23.3-23.8c0.8-0.9,1.1-2.1,0.8-3.3
			c-0.4-1.1-1.4-2-2.5-2.2l-33.1-5.7L68,11.7C67.5,10.7,66.4,10,65.2,10C65.2,10,65.2,10,65.2,10L65.2,10z"/>
	</g>
</g>
</svg>
