<?xml version="1.0" encoding="utf-8"?>
<!-- Generator: Adobe Illustrator 19.0.0, SVG Export Plug-In . SVG Version: 6.00 Build 0)  -->
<svg version="1.1" id="Layer_1" xmlns="http://www.w3.org/2000/svg" xmlns:xlink="http://www.w3.org/1999/xlink" x="0px" y="0px"
	 viewBox="1178 -217.2 1216 638" style="enable-background:new 1178 -217.2 1216 638;" xml:space="preserve">
<style type="text/css">
	.st0{fill:#008CD5;}
</style>
<path class="st0" d="M1807-58.7V99.8h58h58v-87c0-78.2,0.2-87,1.6-87c0.8,0,7.9,2.1,15.7,4.6c75,24.4,144.9,70.2,202.9,133
	c16.5,18,23.3,26.8,40.3,52.4c35.7,53.7,59.9,106.3,73.5,159.5l3.9,15l-227,0.3l-226.9,0.2v64v64h293.5H2394V413
	c0-11.6-2.1-48.2-3.6-63.2c-7.2-71.9-24-135.6-54.5-206.5c-23.8-55.1-46-92.2-81.3-136c-28.7-35.6-80.9-88.2-105.6-106.5
	c-11.9-8.8-46.1-31.3-61-40.2c-58.6-34.8-116-58.1-171.4-69.3c-29.8-6-56-8.5-90.3-8.5H1807V-58.7z"/>
<path class="st0" d="M1178-209.5c0,11.7,2.1,48.3,3.6,63.3c7.2,71.9,24,135.6,54.5,206.5c23.8,55.1,46,92.2,81.3,136
	c28.7,35.6,80.9,88.2,105.6,106.5c11.9,8.8,46.1,31.3,61,40.2c58.6,34.8,116,58.1,171.4,69.3c29.8,6,56,8.5,90.4,8.5h19.2V262.3
	V103.8h-58h-58v87c0,78.2-0.2,87-1.6,87c-0.8,0-7.9-2.1-15.7-4.6c-75-24.4-144.9-70.2-202.9-133c-16.5-18-23.3-26.8-40.3-52.4
	c-35.7-53.7-59.9-106.3-73.5-159.5l-3.9-15l227-0.3l226.9-0.2v-64v-64h-293.5H1178V-209.5z"/>
</svg>
