<?xml version="1.0" encoding="utf-8"?>
<!-- Generator: Adobe Illustrator 21.1.0, SVG Export Plug-In . SVG Version: 6.00 Build 0)  -->
<svg version="1.1" id="Layer_1" xmlns="http://www.w3.org/2000/svg" xmlns:xlink="http://www.w3.org/1999/xlink" x="0px" y="0px"
	 viewBox="0 0 769.7 512.7" style="enable-background:new 0 0 769.7 512.7;" xml:space="preserve">
<style type="text/css">
	.st0{fill:#020203;}
	.st1{fill:#FFFFFF;}
	.st2{fill:#E41716;}
	.st3{fill:#CA1517;}
	.st4{fill:#D4AF37;}
	.st5{fill:#C19D36;}
	.st6{fill:#1E3A6D;}
	.st7{fill:none;}
</style>
<g>
	<g>
		<path class="st0" d="M313.1,249.1h-91.5l-34.3-40.3l-8.7-10.3l-60-70.6h194.6v-7.8H111.9l-12.5-14.7v0L16.2,7.5h735.4L645.9,113.2
			l-6.6,6.6H450.5v104.6h249.2l-38.4,38.4l-87.9,87.9h-92.4L350.3,464l-37.2,32.3V249.1z M343.1,219.1v211.5l126.8-109.9h91.1
			l66.3-66.3H420.5V98.1l19.3-8.3h187l52.3-52.3H81.1l44.7,52.6h217.3v67.8H183.4l21.2,24.9l8.5,10.1l22.3,26.2H343.1z"/>
		<path class="st1" d="M733.5,15l-25.6,25.6l-67.3,67.3l-4.4,4.4H443v119.6h238.6l-25.6,25.6l-81.3,81.3l-4.4,4.4h-92.1L345.4,458.3
			l-24.8,21.5V241.6H225l-4.5-5.3L193,203.9l-8.7-10.3l-28.5-33.5l-21-24.7h185.8v-22.8H115.4l-4.5-5.3l-4-4.6v0L53.4,39.7L32.4,15
			H733.5 M697.3,30H64.9l57.4,67.6h213.3v52.8H167.2l31.7,37.3l8.5,10.1l24.5,28.9h103.6V447l137.1-118.9h91.4l81.3-81.3H428V103
			l13.3-5.7H630L697.3,30 M769.7,0h-36.2h-701H0l21,24.7l21,24.7l49.9,58.7v0l3.6,4.2l4,4.7l2.9,3.4h0l21,24.7l21,24.7l28.5,33.5
			l8.7,10.3l27.5,32.4l4.5,5.3l4.5,5.3h6.9h80.6v223.3v32.9l24.8-21.5l24.8-21.5l128.7-111.5h86.5h6.2l4.4-4.4l4.4-4.4l81.3-81.3
			l25.6-25.6l25.6-25.6h-36.2H458v-89.6h178.1h6.2l4.4-4.4l4.4-4.4l67.3-67.3l25.6-25.6L769.7,0L769.7,0z M97.3,45H661l-37.3,37.3
			H441.4h-3.1l-2.8,1.2l-13.3,5.7l-9.1,3.9v9.9v143.9v15h15h181.2L558,313.2h-85.2h-5.6l-4.2,3.7l-112.3,97.3V226.6v-15h-15h-96.7
			l-20-23.6l-8.5-10l-10.7-12.6h135.9h15v-15V97.6v-15h-15H129.2L97.3,45L97.3,45z"/>
	</g>
	<path class="st1" d="M697.3,30L630,97.3H441.4L428,103v143.9h217.4l-81.3,81.3h-91.4L335.6,447V226.6H232l-24.5-28.9l-8.5-10
		l-31.7-37.3h168.4V97.6H122.3L64.9,30H697.3 M733.5,15h-36.2H64.9H32.4l21,24.7l57.4,67.6l4.5,5.3h6.9h198.3v22.8H167.2h-32.4
		l21,24.7l31.7,37.3l8.5,10l24.5,28.9l4.5,5.3h6.9h88.6V447v32.9l24.8-21.5l132.9-115.2h85.8h6.2l4.4-4.4l81.3-81.3l25.6-25.6h-36.2
		H443v-119l1.4-0.6H630h6.2l4.4-4.4l67.3-67.3L733.5,15L733.5,15z"/>
	<g>
		<polygon class="st0" points="328.1,234.1 228.5,234.1 201.7,202.6 193.2,192.5 151,142.9 328.1,142.9 328.1,105.1 118.8,105.1 
			48.7,22.5 715.4,22.5 633.1,104.8 435.5,104.8 435.5,239.4 663.6,239.4 567.3,335.7 475.5,335.7 328.1,463.4 		"/>
		<path class="st0" d="M697.3,30L630,97.3H428v149.6h217.4l-81.3,81.3h-91.4L335.6,447V226.6H232l-24.5-28.9l-8.5-10l-31.7-37.3
			h168.4V97.6H122.3L64.9,30H697.3 M733.5,15h-36.2H64.9H32.4l21,24.7l57.4,67.6l4.5,5.3h6.9h198.3v22.8H167.2h-32.4l21,24.7
			l31.7,37.3l8.5,10l24.5,28.9l4.5,5.3h6.9h88.6V447v32.9l24.8-21.5l132.9-115.2h85.8h6.2l4.4-4.4l81.3-81.3l25.6-25.6h-36.2H443
			V112.3H630h6.2l4.4-4.4l67.3-67.3L733.5,15L733.5,15z"/>
	</g>
	<polygon class="st2" points="428,246.9 645.4,246.9 564.2,328.2 472.7,328.2 335.6,447 335.6,226.6 232,226.6 207.4,197.7 
		198.9,187.7 200.3,187.1 290.2,150.4 335.6,150.4 335.6,131.9 585.1,30 697.3,30 630,97.3 428,97.3 	"/>
	<polygon class="st3" points="317.7,150.4 207.4,197.7 198.9,187.7 200.3,187.1 290.2,150.4 	"/>
	<polygon class="st3" points="598.2,30 441.4,97.3 428,103 335.6,142.7 335.6,131.9 585.1,30 	"/>
	<polygon class="st4" points="290.2,150.4 200.3,187.1 198.9,187.7 167.2,150.4 	"/>
	<polygon class="st4" points="335.6,131.9 335.6,97.6 134.5,97.6 503,30 585.1,30 	"/>
	<polygon class="st5" points="521.5,30 200.3,97.6 134.5,97.6 503,30 	"/>
	<polygon class="st6" points="503,30 134.5,97.6 122.3,97.6 64.9,30 	"/>
	<polygon class="st7" points="428,246.9 645.4,246.9 564.2,328.2 472.7,328.2 335.6,447 335.6,226.6 232,226.6 207.4,197.7 
		198.9,187.7 167.2,150.4 335.6,150.4 335.6,97.6 122.3,97.6 64.9,30 697.3,30 630,97.3 428,97.3 	"/>
</g>
</svg>
