<?xml version="1.0" encoding="utf-8"?>
<!-- Generator: Adobe Illustrator 19.0.0, SVG Export Plug-In . SVG Version: 6.00 Build 0)  -->
<svg version="1.1" id="Layer_1" xmlns="http://www.w3.org/2000/svg" xmlns:xlink="http://www.w3.org/1999/xlink" x="0px" y="0px"
	 viewBox="0 0 216.616 112.387" style="enable-background:new 0 0 216.616 112.387;" xml:space="preserve">
<style type="text/css">
	.st0{fill:#B11F24;}
	.st1{fill:#FFFFFF;}
	.st2{fill:url(#SVGID_1_);}
	.st3{fill:none;}
	.st4{fill:url(#SVGID_2_);}
	.st5{fill:url(#SVGID_3_);}
</style>
<g>
	<path class="st0" d="M45.293,68.431c0-29.574,24.061-53.635,53.635-53.635c6.469,0,12.672,1.15,18.418,3.258
		c2.719-3.068,4.625-5.15,4.625-5.15l0.418-0.002c-7.215-3.06-15.145-4.754-23.461-4.754c-33.24,0-60.283,27.043-60.283,60.283
		c0,7.979,1.563,15.598,4.391,22.574l5.9-3.15C46.586,81.83,45.293,75.277,45.293,68.431z"/>
	<path class="st0" d="M152.482,71.355c3.01,0.072,5.486,0.139,6.649,0.18c0.053-1.027,0.08-2.063,0.08-3.104
		c0-12.277-3.693-23.709-10.021-33.244l-5.555,3.648c5.637,8.486,8.928,18.664,8.928,29.596
		C152.563,69.414,152.535,70.388,152.482,71.355z"/>
	<polygon class="st0" points="198.113,46.465 144.188,46.465 118.434,63.781 132.84,79.984 191.742,79.928 174.537,63.724 	"/>
	<polygon class="st0" points="61.809,46.547 6.953,46.603 23.35,65.314 0,80.125 49.459,80.066 78.203,65.26 	"/>
	<g id="XMLID_20_">
		<path id="XMLID_21_" class="st1" d="M39.123,65.783l-0.63,3.162c-0.759,3.808-3.172,5.985-6.991,5.99
			c-3.818,0.004-5.365-2.171-4.606-5.979l2.467-12.375c0.759-3.809,3.173-5.986,6.992-5.99c3.818-0.004,5.364,2.169,4.605,5.978
			l-0.461,2.313l-3.677,0.004l0.508-2.551c0.339-1.7-0.311-2.345-1.548-2.344c-1.237,0.001-2.144,0.648-2.482,2.349l-2.562,12.852
			c-0.339,1.7,0.316,2.311,1.554,2.31c1.237-0.001,2.138-0.614,2.477-2.314l0.678-3.399L39.123,65.783z"/>
		<path id="XMLID_23_" class="st1" d="M53.292,50.574c3.783-0.004,5.294,2.17,4.535,5.979L57.677,57.3L54,57.303l0.197-0.986
			c0.339-1.7-0.239-2.345-1.477-2.343c-1.237,0.001-2.073,0.648-2.412,2.348c-0.976,4.896,6.441,5.806,5.086,12.605
			c-0.759,3.808-3.172,5.986-6.991,5.99s-5.364-2.171-4.605-5.979l0.292-1.462l3.677-0.004l-0.339,1.7
			c-0.339,1.7,0.316,2.312,1.554,2.31c1.237-0.001,2.138-0.613,2.477-2.313c0.976-4.896-6.443-5.806-5.087-12.605
			C47.13,52.755,49.508,50.577,53.292,50.574z"/>
	</g>
	<g id="XMLID_14_">
		<path id="XMLID_15_" class="st1" d="M148.194,61.402l5.444-0.006l-1.505,7.548c-0.759,3.809-3.172,5.986-6.99,5.99
			s-5.365-2.17-4.606-5.979l2.468-12.375c0.759-3.808,3.173-5.986,6.991-5.99s5.364,2.17,4.605,5.979l-0.461,2.312l-3.677,0.004
			l0.508-2.55c0.339-1.701-0.311-2.346-1.548-2.344c-1.237,0.001-2.144,0.648-2.482,2.348L144.38,69.19
			c-0.339,1.7,0.316,2.311,1.554,2.31s2.138-0.614,2.477-2.313l0.874-4.387l-1.768,0.002L148.194,61.402z"/>
		<path id="XMLID_17_" class="st1" d="M160.331,56.562c0.759-3.808,3.278-5.986,7.097-5.99s5.471,2.17,4.712,5.978l-2.468,12.376
			c-0.759,3.808-3.278,5.985-7.097,5.989s-5.471-2.17-4.712-5.978L160.331,56.562z M161.706,69.172
			c-0.339,1.699,0.31,2.345,1.547,2.344c1.237-0.002,2.145-0.648,2.483-2.348l2.562-12.852c0.339-1.701-0.311-2.346-1.548-2.345
			s-2.144,0.648-2.482,2.349L161.706,69.172z"/>
	</g>
	<linearGradient id="SVGID_1_" gradientUnits="userSpaceOnUse" x1="98.9269" y1="105.3162" x2="216.6157" y2="105.3162">
		<stop  offset="0" style="stop-color:#333333"/>
		<stop  offset="0.0961" style="stop-color:#3C3533"/>
		<stop  offset="0.2559" style="stop-color:#543732"/>
		<stop  offset="0.4597" style="stop-color:#7C352C"/>
		<stop  offset="0.6669" style="stop-color:#B11F24"/>
	</linearGradient>
	<path class="st2" d="M110.494,106.797h-6.496l-1.317,2.664h10.271c-0.244,0.498-0.537,0.932-0.869,1.293
		c-0.334,0.363-0.699,0.664-1.096,0.9c-0.398,0.236-0.818,0.412-1.254,0.523c-0.434,0.111-0.869,0.172-1.305,0.172h-7.525
		c-0.418,0-0.779-0.07-1.082-0.209c-0.303-0.137-0.529-0.338-0.68-0.6c-0.152-0.262-0.225-0.564-0.215-0.916
		c0.012-0.352,0.127-0.752,0.35-1.201l4.078-8.25c0.211-0.428,0.488-0.822,0.828-1.182c0.342-0.361,0.717-0.67,1.123-0.922
		c0.402-0.248,0.828-0.449,1.274-0.6c0.445-0.15,0.869-0.225,1.266-0.225h7.555c0.943,0,1.564,0.258,1.877,0.77
		c0.307,0.512,0.227,1.244-0.244,2.195h-10.271l-1.299,2.625h6.494L110.494,106.797z M129.465,109.424
		c-0.492,1-1.16,1.742-1.998,2.23c-0.838,0.486-1.746,0.732-2.725,0.732h-7.256c-0.416,0-0.791-0.063-1.117-0.188
		c-0.328-0.127-0.578-0.314-0.752-0.563c-0.178-0.25-0.273-0.557-0.281-0.92c-0.012-0.361,0.102-0.781,0.334-1.256h10.379
		l1.318-2.664h-7.283c-0.398,0-0.754-0.063-1.061-0.188c-0.311-0.123-0.549-0.311-0.713-0.563c-0.168-0.248-0.248-0.555-0.24-0.918
		c0.008-0.363,0.135-0.793,0.381-1.293l1.168-2.361c0.274-0.555,0.596-1.033,0.973-1.447c0.375-0.41,0.775-0.75,1.193-1.012
		c0.42-0.262,0.846-0.457,1.279-0.582c0.432-0.123,0.857-0.188,1.273-0.188h7.422c0.975,0,1.646,0.232,2.004,0.695
		c0.361,0.463,0.279,1.219-0.238,2.27h-10.271l-1.297,2.625h7.01c0.418,0,0.795,0.051,1.135,0.15
		c0.342,0.098,0.604,0.262,0.793,0.486c0.189,0.225,0.287,0.518,0.297,0.883c0.012,0.361-0.1,0.779-0.334,1.254L129.465,109.424z
		 M148.641,103.836c-0.48,0.975-1.189,1.713-2.125,2.211c-0.936,0.5-1.992,0.75-3.17,0.75h-5.082c0.148-0.299,0.35-0.631,0.6-0.992
		c0.252-0.363,0.525-0.689,0.822-0.975c0.297-0.289,0.623-0.525,0.977-0.713c0.357-0.191,0.707-0.281,1.051-0.281h3.504l1.299-2.625
		h-6.848l-3.877,7.838c-0.654,1.326-1.398,2.227-2.23,2.699c-0.412,0.25-0.828,0.414-1.246,0.488
		c-0.416,0.074-0.824,0.113-1.223,0.113h-0.354l6.971-14.104h10.598c0.924,0,1.543,0.258,1.863,0.77
		c0.316,0.512,0.238,1.244-0.23,2.195L148.641,103.836z M162.254,109.498c-0.246,0.5-0.539,0.926-0.877,1.277
		c-0.336,0.35-0.695,0.643-1.084,0.879c-0.393,0.236-0.803,0.412-1.238,0.523c-0.438,0.111-0.873,0.172-1.307,0.172h-7.555
		c-0.416,0-0.777-0.07-1.078-0.209c-0.305-0.137-0.527-0.338-0.668-0.6c-0.143-0.262-0.213-0.563-0.209-0.9s0.115-0.729,0.338-1.18
		l4.115-8.324c0.211-0.428,0.488-0.822,0.828-1.184c0.344-0.361,0.713-0.668,1.109-0.922c0.395-0.248,0.811-0.441,1.25-0.576
		c0.438-0.139,0.867-0.209,1.285-0.209h7.555c0.924,0,1.545,0.252,1.871,0.75c0.322,0.5,0.25,1.229-0.221,2.178L162.254,109.498z
		 M162.955,101.211h-6.877l-4.078,8.25h6.875L162.955,101.211z M173.436,112.387l-0.639-8.551h5.297l1.301-2.625h-6.904
		l-3.857,7.801c-0.654,1.328-1.398,2.227-2.229,2.699c-0.402,0.225-0.811,0.375-1.229,0.451c-0.418,0.074-0.824,0.111-1.225,0.111
		H163.6l6.934-14.027h10.598c0.959,0,1.586,0.258,1.887,0.77c0.301,0.512,0.215,1.244-0.256,2.195l-1.316,2.66
		c-0.441,0.9-1.047,1.607-1.807,2.121c-0.762,0.512-1.627,0.795-2.592,0.842l0.518,5.553H173.436z M200.813,98.883
		c-0.295,0.6-0.623,1.057-0.988,1.371c-0.363,0.313-0.725,0.537-1.08,0.674c-0.359,0.141-0.701,0.219-1.031,0.246
		c-0.33,0.023-0.604,0.037-0.82,0.037h-2.391l-4.063,8.213c-0.518,1.051-1.061,1.799-1.627,2.252
		c-0.566,0.449-1.322,0.674-2.264,0.674h-1.002l5.504-11.139h-5.246l0.203-0.412c0.484-0.979,1.023-1.646,1.619-2.008
		c0.594-0.359,1.275-0.545,2.035-0.545h11.467L200.813,98.883z M212.096,109.424c-0.492,1-1.158,1.742-1.998,2.23
		c-0.838,0.486-1.748,0.732-2.725,0.732h-7.254c-0.418,0-0.793-0.063-1.119-0.188c-0.328-0.127-0.578-0.314-0.754-0.563
		c-0.176-0.25-0.27-0.557-0.279-0.92c-0.012-0.361,0.102-0.781,0.334-1.256h10.381l1.316-2.664h-7.283
		c-0.398,0-0.752-0.063-1.061-0.188c-0.311-0.123-0.549-0.311-0.713-0.563c-0.168-0.248-0.246-0.555-0.24-0.918
		c0.008-0.363,0.133-0.793,0.381-1.293l1.168-2.361c0.273-0.555,0.596-1.033,0.971-1.447c0.377-0.41,0.777-0.75,1.195-1.012
		c0.418-0.262,0.846-0.457,1.279-0.582c0.432-0.123,0.857-0.188,1.273-0.188h7.422c0.975,0,1.645,0.232,2.004,0.695
		c0.359,0.463,0.281,1.219-0.238,2.27h-10.271l-1.299,2.625h7.012c0.418,0,0.795,0.051,1.135,0.15
		c0.342,0.098,0.605,0.262,0.793,0.486c0.189,0.225,0.287,0.518,0.299,0.883c0.01,0.361-0.104,0.779-0.336,1.254L212.096,109.424z"
		/>
	<g>
		<path class="st0" d="M179.01,65.465l1.549-1.967h1.525l-1.549,1.967H179.01z"/>
		<path class="st0" d="M191.018,61.924c-0.133,0.168-0.281,0.297-0.449,0.383c-0.168,0.088-0.315,0.154-0.44,0.203
			c-0.205,0.086-0.402,0.15-0.596,0.195c-0.193,0.043-0.381,0.066-0.564,0.066h-0.131l0.668-0.848h-3.016l-2.064,2.623h3.025
			l0.725-0.918h1.477l-0.693,0.881c-0.131,0.168-0.279,0.311-0.445,0.43c-0.166,0.119-0.338,0.217-0.516,0.291
			c-0.178,0.076-0.367,0.133-0.564,0.174c-0.199,0.041-0.393,0.061-0.584,0.061h-3.311c-0.178,0-0.33-0.021-0.455-0.066
			c-0.129-0.045-0.223-0.107-0.279-0.19c-0.059-0.086-0.078-0.182-0.063-0.293c0.016-0.111,0.08-0.238,0.191-0.381l2.074-2.635
			c0.107-0.133,0.238-0.258,0.396-0.367c0.16-0.111,0.332-0.207,0.52-0.287c0.186-0.08,0.377-0.143,0.578-0.191
			c0.199-0.047,0.391-0.07,0.574-0.07h3.299c0.422,0,0.691,0.082,0.816,0.244C191.313,61.392,191.254,61.623,191.018,61.924z"/>
		<path class="st0" d="M196.617,64.558c-0.125,0.158-0.268,0.293-0.428,0.404c-0.156,0.113-0.328,0.205-0.504,0.281
			c-0.18,0.074-0.365,0.131-0.561,0.166c-0.195,0.037-0.389,0.055-0.58,0.055h-3.311c-0.184,0-0.338-0.021-0.467-0.066
			c-0.129-0.045-0.219-0.107-0.273-0.19c-0.053-0.086-0.072-0.182-0.061-0.287c0.014-0.107,0.076-0.232,0.188-0.375l2.082-2.647
			c0.105-0.133,0.242-0.258,0.402-0.375c0.164-0.115,0.336-0.211,0.516-0.291c0.184-0.08,0.373-0.142,0.57-0.184
			c0.197-0.045,0.387-0.066,0.568-0.066h3.313c0.406,0,0.67,0.08,0.797,0.236c0.125,0.16,0.068,0.391-0.168,0.691L196.617,64.558z
			 M197.201,61.924h-3.014l-2.064,2.623h3.014L197.201,61.924z"/>
		<path class="st0" d="M202.635,65.465l2.168-2.754l-3.35,2.002l-0.225-2.002l-2.168,2.754h-1.49l3.527-4.481h0.287
			c0.078,0,0.18,0.002,0.299,0.006c0.121,0.004,0.232,0.023,0.334,0.061c0.104,0.035,0.201,0.082,0.293,0.141
			c0.092,0.061,0.148,0.148,0.166,0.27l0.27,1.609l2.789-1.609c0.199-0.121,0.391-0.209,0.578-0.27
			c0.184-0.059,0.359-0.105,0.521-0.141c0.164-0.037,0.311-0.057,0.439-0.061c0.129-0.004,0.23-0.006,0.303-0.006h0.285
			l-3.525,4.481H202.635z"/>
	</g>
	<path class="st3" d="M133.588,27.537c-12.549,6.441-33.389,17.992-34.754,15.307c-1.102-2.17,11.449-16.814,18.512-24.789
		c-5.746-2.107-11.949-3.258-18.418-3.258c-29.574,0-53.635,24.061-53.635,53.635c0,6.846,1.293,13.398,3.643,19.424l41.85-22.344
		c0,0-24.471-31.975-20.482-32.207c0,0,8.6,5.338,9.59,5.988l4.408-6.197c-0.553,2.256,18.381,26.223,18.381,26.223
		c15.205-10.027,27.449-18.295,37.43-25.207C138.129,31.736,135.945,29.537,133.588,27.537z"/>
	<path class="st3" d="M145.582,30.299c9.053-6.346,16.016-11.436,21.563-15.658c11.455-8.723-14.488,3.582-27.141,9.711
		C141.992,26.207,143.857,28.193,145.582,30.299z"/>
	<path class="st3" d="M125.313,21.75c-0.049-0.027-0.1-0.055-0.15-0.084c-0.66,0.652-1.101,1.076-1.101,1.076
		C124.438,22.433,124.859,22.101,125.313,21.75z"/>
	<path class="st0" d="M125.162,21.666c0.051,0.029,0.102,0.057,0.15,0.084c1.566-1.209,3.572-2.654,5.881-4.217
		c-0.426-0.274-0.859-0.539-1.295-0.801C128.508,18.332,126.428,20.418,125.162,21.666z"/>
	<path class="st0" d="M128.215,15.758c-1.178-0.658-2.381-1.277-3.605-1.856l-2.361,4.766
		C122.248,18.668,125.371,17.076,128.215,15.758z"/>
	<path class="st0" d="M133.588,27.537c2.357,2,4.541,4.199,6.523,6.574c1.904-1.318,3.727-2.59,5.471-3.812
		c-1.725-2.105-3.59-4.092-5.578-5.947c-0.836,0.404-1.613,0.783-2.318,1.127C136.471,26.068,135.088,26.765,133.588,27.537z"/>
	<path class="st0" d="M140.111,34.111c1.258,1.506,2.434,3.084,3.523,4.725l5.555-3.648c-1.123-1.691-2.326-3.322-3.607-4.889
		C143.838,31.521,142.016,32.793,140.111,34.111z"/>
	<path class="st0" d="M140.111,34.111c1.258,1.506,2.434,3.084,3.523,4.725l5.555-3.648c-1.123-1.691-2.326-3.322-3.607-4.889
		C143.838,31.521,142.016,32.793,140.111,34.111z"/>
	<path class="st0" d="M53.49,96.896h-1.541l1.106-0.701c-1.606-2.639-2.984-5.43-4.119-8.34l-5.9,3.15
		c3.303,8.146,8.336,15.416,14.645,21.344h10.496C62.315,108.23,57.311,102.971,53.49,96.896z"/>
	<linearGradient id="SVGID_2_" gradientUnits="userSpaceOnUse" x1="-12.5902" y1="72.7287" x2="515.6256" y2="72.7287">
		<stop  offset="0" style="stop-color:#000000"/>
		<stop  offset="0.4926" style="stop-color:#4E4E4E"/>
		<stop  offset="1" style="stop-color:#000000"/>
	</linearGradient>
	<path class="st4" d="M143.635,38.836c-1.09-1.641-2.266-3.219-3.523-4.725c-9.98,6.912-22.225,15.18-37.43,25.207
		c0,0-18.933-23.967-18.381-26.223l-4.408,6.197c-0.99-0.65-9.59-5.988-9.59-5.988c-3.988,0.232,20.482,32.207,20.482,32.207
		l-41.85,22.344l-5.9,3.15l-12.08,6.449c0,0-0.438,15.404,3.137,14.895H57.68h10.496h23.684l9.199-15.453H53.49h-1.541l1.106-0.701
		l41.973-26.553l21.855,24.492h15.361l-25.453-31.107L143.635,38.836z"/>
	<path class="st0" d="M133.588,27.537c1.5-0.771,2.883-1.469,4.098-2.059c0.705-0.344,1.482-0.723,2.318-1.127
		c-2.717-2.531-5.664-4.818-8.81-6.818c-2.309,1.563-4.315,3.008-5.881,4.217C128.254,23.42,131.023,25.361,133.588,27.537z"/>
	<path class="st0" d="M117.346,18.054c2.715,0.996,5.326,2.209,7.816,3.611c1.266-1.248,3.346-3.334,4.736-4.934
		c-0.555-0.334-1.117-0.658-1.684-0.975c-2.844,1.318-5.967,2.91-5.967,2.91l2.361-4.766c-0.732-0.348-1.473-0.682-2.221-1
		l-0.418,0.002C121.971,12.904,120.065,14.986,117.346,18.054z"/>
	<linearGradient id="SVGID_3_" gradientUnits="userSpaceOnUse" x1="-382.2635" y1="21.6208" x2="493.4121" y2="21.6208">
		<stop  offset="0" style="stop-color:#000000"/>
		<stop  offset="0.4926" style="stop-color:#4E4E4E"/>
		<stop  offset="1" style="stop-color:#000000"/>
	</linearGradient>
	<path class="st5" d="M176.533,1.588c-8.248-6.139-31.938,6.879-45.34,15.945c-2.309,1.563-4.315,3.008-5.881,4.217
		c-0.453,0.351-0.875,0.684-1.252,0.992c0,0,0.441-0.424,1.101-1.076c1.266-1.248,3.346-3.334,4.736-4.934
		c1.311-1.504,2.008-2.572,0.84-2.092c-0.738,0.305-1.617,0.697-2.523,1.117c-2.844,1.318-5.967,2.91-5.967,2.91l4.148-7.428
		l-3.137,0.006c0,0-3.195,3.74-5.914,6.809c-7.063,7.975-19.613,22.619-18.512,24.789c1.365,2.686,22.205-8.865,34.754-15.307
		c1.5-0.771,2.883-1.469,4.098-2.059c0.705-0.344,1.482-0.723,2.318-1.127c12.652-6.129,38.596-18.434,27.141-9.711
		c-5.547,4.223-12.51,9.313-21.563,15.658c1.281,1.566,2.484,3.197,3.607,4.889l17.93-11.774
		C167.119,23.414,186.615,9.09,176.533,1.588z"/>
</g>
<g id="XMLID_25_">
</g>
<g id="XMLID_26_">
</g>
<g id="XMLID_27_">
</g>
<g id="XMLID_28_">
</g>
<g id="XMLID_29_">
</g>
<g id="XMLID_30_">
</g>
</svg>
