<?xml version="1.0" encoding="utf-8"?>
<!-- Generator: Adobe Illustrator 21.0.0, SVG Export Plug-In . SVG Version: 6.00 Build 0)  -->
<svg version="1.1" xmlns="http://www.w3.org/2000/svg" xmlns:xlink="http://www.w3.org/1999/xlink" x="0px" y="0px"
	 viewBox="0 0 1580.6 1130.6" style="enable-background:new 0 0 1580.6 1130.6;" xml:space="preserve">
<style type="text/css">
	.st0{display:none;opacity:0.33;}
	.st1{fill:#F2B450;}
	.st2{fill:#FFFFFF;}
	.st3{fill:#C1C1C1;}
</style>
<g id="Capa_1" class="st0">
	
		<image style="display:inline;overflow:visible;" width="670" height="669" id="XMLID_1_" xlink:href="E6751076.jpg"  transform="matrix(2.991 0 0 2.991 -2223.1958 -392.8036)">
	</image>
</g>
<g id="Capa_3">
</g>
<g id="Capa_2">
</g>
<g id="Capa_6">
	<g id="Capa_4">
	</g>
	<g id="Capa_7">
	</g>
</g>
<g id="Capa_8">
	<g id="XMLID_50_">
		<path id="XMLID_54_" d="M787.9,1108.2c-5.3-0.6-131.9-15.1-276.1-75.5c-85.1-35.7-158.6-80.1-218.3-132
			c-75.3-65.5-128.8-143.1-159-230.6l-2.1-5.9l65.1-269.9H162l-123.5-210h211.2l11.7-46.3l7.6-4.9c1.9-1.2,46.9-28.7,134-56.1
			c79.5-25,211.2-54.8,387.4-54.8c176.2,0,307.9,29.7,387.4,54.6c87.1,27.3,132.1,54.8,134,55.9l7.6,5.1l11.7,46.5h211.2l-123.5,210
			h-35.6l65.1,270.1l-2.1,6c-30.1,87.5-83.6,165-159,230.5c-59.7,51.9-133.1,96.3-218.3,131.9c-144.2,60.4-270.8,74.9-276.1,75.4
			l-2.4,0.3L787.9,1108.2z"/>
		<path id="XMLID_51_" class="st1" d="M790.3,44c335.7,0,509.8,107.7,509.8,107.7l13.7,54.4h189.9l-97.7,166h-50.9l70.2,291
			c-126.6,367.4-635,423.2-635,423.2s-508.4-55.9-635-423.3l70.2-290.9h-50.9l-97.7-166h189.9l13.7-54.3
			C280.5,151.9,454.6,44,790.3,44 M790.3,0c-78.9,0-155.7,5.8-228.2,17.3C503.8,26.6,448,39.5,396.3,55.8
			c-89.7,28.2-137,57.1-139,58.3l-15.2,9.4l-4.4,17.7l-5.3,21.1H76.9H0l38.9,65.9l97.7,166.4l12.8,21.7h20.2l-57.1,236.5l-3,12.4
			l4.2,12.1c31.4,91.2,87.1,171.9,165.4,240c61.5,53.4,136.9,99.1,224.2,135.7c147.1,61.7,276.8,76.5,282.2,77.1l4.8,0.5l4.8-0.5
			c5.4-0.6,135.1-15.4,282.2-77c87.3-36.6,162.7-82.2,224.2-135.7c78.3-68.1,133.9-148.8,165.4-240l4.2-12.2l-3-12.3L1411,416.2
			h20.2l12.8-21.9l97.7-166.1l38.9-66h-76.9h-155.6l-5.3-21.2l-4.4-17.5l-15.2-9.5c-2-1.2-49.2-30.1-138.9-58.2
			c-51.7-16.2-107.5-29.2-165.8-38.4C945.9,5.9,869.2,0,790.3,0L790.3,0z"/>
	</g>
	<polygon id="XMLID_49_" class="st2" points="174.1,244 223.6,323.2 310.8,323.2 242.6,675.2 755.2,675.2 834.5,576.2 374.1,576.2 
		415.5,320.2 657.5,320.2 650.8,438.2 522.7,438.2 463,526.2 756.8,526.2 756.8,243.2 	"/>
	<polygon id="XMLID_36_" class="st2" points="823.8,244.2 823.8,525.2 1203.8,525.2 1228.6,675.2 1351,675.2 1277.4,320.2 
		1373,320.2 1415,244.2 1155.6,244.2 1185.9,436.2 939.6,436.2 929.3,244.2 	"/>
	<path id="XMLID_31_" class="st3" d="M790.3,862.4c-276.6,0-515.8-138.5-515.8-138.5c228.2,246.7,515.3,267.8,515.3,267.8v-59.6
		c0,0,325.2-13.8,515.8-208.2C1305.6,723.8,1066.9,862.4,790.3,862.4z"/>
	<polygon id="XMLID_28_" class="st1" points="853.1,755.2 806.1,755.2 790.3,714 774.5,755.2 727.5,755.2 766.2,781.1 749.8,824.1 
		790.3,798 830.8,823.9 814.4,781.1 	"/>
	<polygon id="XMLID_27_" class="st1" points="629.5,740.2 600.6,740.2 590.8,714.8 581,740.2 552,740.2 575.9,755.9 565.8,782.3 
		590.8,766.1 615.8,782.1 605.7,756 	"/>
	<polygon id="XMLID_26_" class="st1" points="1039.6,740.2 1010.6,740.2 1000.8,714.8 991,740.2 962.1,740.2 985.9,755.9 
		975.8,782.3 1000.8,766.1 1025.8,782.1 1015.7,756 	"/>
	<path id="XMLID_25_" class="st3" d="M1228.5,164.5C1057.2,85,790.3,86.5,790.3,86.5s-266.9-1.2-438.2,78.3l-10.5,41.4h112.8
		l3.7-18.8c0,0,125.9-45.7,332.3-45.7s332.3,45.7,332.3,45.7l3.7,18.8h112.8L1228.5,164.5z"/>
</g>
<g id="Capa_9">
</g>
</svg>
