<?xml version="1.0" encoding="utf-8"?>
<!-- Generator: Adobe Illustrator 19.0.0, SVG Export Plug-In . SVG Version: 6.00 Build 0)  -->
<svg version="1.1" id="Layer_1" xmlns="http://www.w3.org/2000/svg" xmlns:xlink="http://www.w3.org/1999/xlink" x="0px" y="0px"
	 viewBox="507.3 32 246.5 484.2" style="enable-background:new 507.3 32 246.5 484.2;" xml:space="preserve">
<style type="text/css">
	.st0{fill:#EA5D18;}
</style>
<path class="st0" d="M626.8,516.2c-40-24.8-79.8-49.3-119.5-73.9c0-36.2,0-72,0-108.5c32.3-31.9,65.1-64.1,98.5-97.1
	c-21.3-17.5-41.4-34-61.8-50.9c16.5-51.3,33.2-102.5,49.8-153.8c0.3,0.1,0.5,0.1,0.8,0.2c0,39.4,0,78.9,0,118.6
	c31.9,28.4,63.9,56.8,96.4,85.6c-25.4,28.3-50.7,56.6-76,84.9c0,19.5,0,38.9,0,58.7c14.4,9,28.8,17.9,43.5,27.1
	c13.3-7.7,26.6-15.5,40.6-23.6c-10.9-8.6-21.5-16.8-32-25.2c0-13.5,0-27,0-40.8c13.6-15.1,27.4-30.4,42.1-46.6c0,14.4,0,27.5,0,40.6
	c15.1,14.3,29.9,28.4,44.6,42.5c0,29.5,0,58.8,0,88.3C711.5,466.9,669.4,491.4,626.8,516.2z"/>
<path class="st0" d="M569,237.4c-13.6,12.8-27,25.4-41,38.5c0-24.8,0-48.6,0-73.6C541.9,214.2,555.3,225.7,569,237.4z"/>
<path class="st0" d="M663.4,180c-9.9-8.5-19.2-16.5-29-24.8c9.6-9,19-17.9,29-27.2C663.4,145.4,663.4,162.3,663.4,180z"/>
<path class="st0" d="M753.7,283.7c0,13.1,0,25.1,0,38.2c-7.3-6.3-14.1-12.1-21.3-18.2C739.4,297.1,746.2,290.8,753.7,283.7z"/>
</svg>
