<?xml version="1.0" encoding="utf-8"?>
<!-- Generator: Adobe Illustrator 19.0.0, SVG Export Plug-In . SVG Version: 6.00 Build 0)  -->
<svg version="1.1" id="Layer_1" xmlns="http://www.w3.org/2000/svg" xmlns:xlink="http://www.w3.org/1999/xlink" x="0px" y="0px"
	 viewBox="1281.23 10.72 924.69 542.979" style="enable-background:new 1281.23 10.72 924.69 542.979;" xml:space="preserve">
<style type="text/css">
	.st0{fill:#4C2910;}
	.st1{fill:#DE6F26;}
	.st2{fill:#FFFFFF;}
	.st3{fill:#E07026;}
	.st4{fill:#4C2A10;}
</style>
<g>
	<path class="st0" d="M32.123,54.15c32.65-17.72,66.73-33.27,102.53-43.43c-24.38,26.4-44.8,56.55-59.58,89.33
		c-5,11.2-9.46,22.68-12.7,34.52c30.02-18.68,63.01-34.14,98.46-38.39c30.12-3.9,60.93,1.51,88.87,13.05
		c34.37,14.14,65.05,35.74,93.86,58.93c11.3,9.25,24.43,16,38,21.25c21.6,8.27,44.41,12.94,67.28,15.98
		c40.84,5.16,82.21,5.42,123.21,2.2c-10.57,16.08-23.35,30.89-38.65,42.66c-13.75,10.44-29.75,18.55-47.03,20.83
		c-9.17,1.33-18.39-0.25-27.48-1.47c-18.85-2.92-37.77-5.47-56.83-6.49c-29.67-1.76-59.43-0.99-89.09,0.8
		c-18.83,0.96-37.61,3.27-56.06,7.25c-40.54,8.6-79.11,24.65-115.7,43.85c-36.11,18.75-70.37,40.8-106.31,59.85
		c-21.54,11.2-43.89,21.5-67.78,26.51c-25.98,5.49-53.82,3.39-78.15-7.52c-21.53-9.52-39.83-26.64-49.82-48.05
		c-11.17-23.36-12.16-50.51-6.47-75.48c7.76-34.13,26.17-64.84,47.87-91.92C-77.837,127.44-25.357,85.89,32.123,54.15
		 M-78.587,158.35c-21.54,21.92-41.41,45.88-55.87,73.14c-11.59,21.92-19.99,46.34-19.29,71.42c0.35,20.15,7.75,40.33,21.51,55.19
		c16.63,18.12,41.03,27.82,65.33,29.07c21.81,1.39,43.33-4.58,63.31-12.85c25.97-10.88,50.27-25.24,74.6-39.31
		c34.72-20.35,69.67-40.58,106.79-56.28c39.13-16.7,80.78-27.98,123.3-31.02c47.55-3.31,95.55-4.26,142.85,2.56
		c8.76,1.14,17.92-0.51,25.66-4.79c7.8-4.33,13.58-11.64,17.1-19.74c-37.74-1.97-75.82-7.08-111.33-20.52
		c-15.08-5.79-29.6-13.34-42.19-23.53c-24.21-19.54-49.72-37.84-77.86-51.33c-25.81-12.47-54.54-20.14-83.37-18.17
		c-30.42,1.77-59.41,13.18-85.71,28.05c-16.97,9.69-33.2,20.61-49.86,30.81c3.37-14.51,6.7-29.04,10.3-43.5
		c8.34-28.51,21.82-55.32,37.87-80.23C24.123,74.12-32.017,111.28-78.587,158.35z"/>
	<path class="st0" d="M185.253,142.17c23.9-0.14,47.52,6.26,69.06,16.38c10.28,4.95,20.24,10.72,29.16,17.86
		c2.59,2.35,5.78,4.82,6.35,8.5c-0.15,3.78-4.81,4.39-7.76,4.69c-37.13,0.88-75.32-4.24-108.87-20.96
		c-4.6-2.46-10.07-4.69-12.2-9.86c-1.96-4.01,0.08-8.9,3.63-11.25C170.593,143.32,178.153,142.52,185.253,142.17z"/>
	<path class="st0" d="M292.003,290.1c49.65-7.67,100.27-6.58,150.07-0.83c17.62,2.11,35.21,4.55,52.64,7.93
		c42.35,8.28,83.17,23.88,120.6,45.29c50.41,28.83,94.68,67.76,131.76,112.31c19.49,23.65,37.54,48.66,52.13,75.65
		c-36.51-27.59-75.01-52.92-116.65-72.12c-33.25-15.33-68.63-26.6-105.12-30.62c-42.7-4.89-86.17,1.24-126.72,15.06
		c-11.98,3.64-23.28,9.1-34.71,14.15c-40.88,18.49-80.67,39.31-121.88,57.07c-35.62,15.27-72.23,29.07-110.64,35.32
		c-28.85,4.96-58.3,5.29-87.44,3.1c-41.82-3.18-83.36-12.71-121.64-30.03c-54.23-24.32-101.27-64.61-133.05-114.88
		c-6.81-10.94-13.24-22.2-17.94-34.21c14.11,16.81,31.03,31.61,50.87,41.27c26.93,13.6,58.16,16.98,87.83,12.97
		c39.33-5.17,76.44-20.79,111.2-39.35c36.36-19.33,70.11-43.19,106.68-62.14C215.033,308.03,253.073,296.05,292.003,290.1
		 M261.363,313.51c-31.6,7.78-61.9,20.4-90.1,36.59c-35.78,20.58-70.02,43.93-107.25,61.94c-33.29,16.3-68.81,29.26-105.9,33.02
		c-24.26,2.28-49.14,0.57-72.32-7.29c16,17.24,33.83,32.84,53.45,45.84c29.13,19.64,61.95,33.53,95.98,42.04
		c33.55,8.3,68.26,11.72,102.77,10.97c27.26-0.65,54.29-5.65,80.47-13.13c39.06-11.21,76.28-27.82,112.91-45.24
		c34.51-16.48,68.76-33.56,104.02-48.39c-24.88,2.78-49.52,7.58-73.84,13.48c-41.91,10.08-82.12,25.83-122.95,39.44
		c15.38-16.69,30.89-33.27,46.32-49.91c8.88-8.91,18.88-16.64,29.22-23.78c28.25-19.25,59.59-33.86,92.19-44.03
		c-21.51-0.57-43.03,1-64.42,3.13c-48.73,4.99-96.56,15.91-144.72,24.51c12.63-9.3,25.58-18.15,38.31-27.31
		c13.66-9.38,26.66-19.86,41.43-27.52c33.83-18.05,70.88-30.06,108.8-35.63c-13.58-1.06-27.25-0.58-40.85-0.22
		C316.763,303.2,288.693,306.7,261.363,313.51 M382.143,320.01c-39.25,7.02-77.74,20.27-111.65,41.48
		c48.93-8.96,98.67-15.17,148.49-13.23c20.67,1.1,41.48,3.32,61.31,9.51c4.55,1.57,9.26,2.98,13.29,5.71
		c-53.64,6.65-106.79,21.97-153.58,49.47c-15.06,9.08-29.76,19.06-42.31,31.46c69.38-24.02,142.78-36.7,216.23-36.35
		c14.69-0.27,29.34,0.93,44.02,1.15c35.58,1.36,70.69,9.48,103.93,22.07c25.14,9.59,49.43,21.39,72.58,35.09
		c-47-56.71-106.5-104.09-175.02-131.97C502.693,315.31,441.213,309.58,382.143,320.01z"/>
	<g id="_x23_de6f26ff">
		<path class="st1" d="M-78.587,158.35c46.57-47.07,102.71-84.23,163.14-111.03c-16.05,24.91-29.53,51.72-37.87,80.23
			c-3.6,14.46-6.93,28.99-10.3,43.5c16.66-10.2,32.89-21.12,49.86-30.81c26.3-14.87,55.29-26.28,85.71-28.05
			c28.83-1.97,57.56,5.7,83.37,18.17c28.14,13.49,53.65,31.79,77.86,51.33c12.59,10.19,27.11,17.74,42.19,23.53
			c35.51,13.44,73.59,18.55,111.33,20.52c-3.52,8.1-9.3,15.41-17.1,19.74c-7.74,4.28-16.9,5.93-25.66,4.79
			c-47.3-6.82-95.3-5.87-142.85-2.56c-42.52,3.04-84.17,14.32-123.3,31.02c-37.12,15.7-72.07,35.93-106.79,56.28
			c-24.33,14.07-48.63,28.43-74.6,39.31c-19.98,8.27-41.5,14.24-63.31,12.85c-24.3-1.25-48.7-10.95-65.33-29.07
			c-13.76-14.86-21.16-35.04-21.51-55.19c-0.7-25.08,7.7-49.5,19.29-71.42C-119.997,204.23-100.127,180.27-78.587,158.35
			 M185.253,142.17c-7.1,0.35-14.66,1.15-20.63,5.36c-3.55,2.35-5.59,7.24-3.63,11.25c2.13,5.17,7.6,7.4,12.2,9.86
			c33.55,16.72,71.74,21.84,108.87,20.96c2.95-0.3,7.61-0.91,7.76-4.69c-0.57-3.68-3.76-6.15-6.35-8.5
			c-8.92-7.14-18.88-12.91-29.16-17.86C232.773,148.43,209.153,142.03,185.253,142.17z"/>
		<path class="st1" d="M261.363,313.51c27.33-6.81,55.4-10.31,83.52-11.49c13.6-0.36,27.27-0.84,40.85,0.22
			c-37.92,5.57-74.97,17.58-108.8,35.63c-14.77,7.66-27.77,18.14-41.43,27.52c-12.73,9.16-25.68,18.01-38.31,27.31
			c48.16-8.6,95.99-19.52,144.72-24.51c21.39-2.13,42.91-3.7,64.42-3.13c-32.6,10.17-63.94,24.78-92.19,44.03
			c-10.34,7.14-20.34,14.87-29.22,23.78c-15.43,16.64-30.94,33.22-46.32,49.91c40.83-13.61,81.04-29.36,122.95-39.44
			c24.32-5.9,48.96-10.7,73.84-13.48c-35.26,14.83-69.51,31.91-104.02,48.39c-36.63,17.42-73.85,34.03-112.91,45.24
			c-26.18,7.48-53.21,12.48-80.47,13.13c-34.51,0.75-69.22-2.67-102.77-10.97c-34.03-8.51-66.85-22.4-95.98-42.04
			c-19.62-13-37.45-28.6-53.45-45.84c23.18,7.86,48.06,9.57,72.32,7.29c37.09-3.76,72.61-16.72,105.9-33.02
			c37.23-18.01,71.47-41.36,107.25-61.94C199.463,333.91,229.763,321.29,261.363,313.51z"/>
	</g>
	<g id="_x23_ffffffff">
		<path class="st2" d="M382.143,320.01c59.07-10.43,120.55-4.7,177.29,14.39c68.52,27.88,128.02,75.26,175.02,131.97
			c-23.15-13.7-47.44-25.5-72.58-35.09c-33.24-12.59-68.35-20.71-103.93-22.07c-14.68-0.22-29.33-1.42-44.02-1.15
			c-73.45-0.35-146.85,12.33-216.23,36.35c12.55-12.4,27.25-22.38,42.31-31.46c46.79-27.5,99.94-42.82,153.58-49.47
			c-4.03-2.73-8.74-4.14-13.29-5.71c-19.83-6.19-40.64-8.41-61.31-9.51c-49.82-1.94-99.56,4.27-148.49,13.23
			C304.403,340.28,342.893,327.03,382.143,320.01z"/>
	</g>
</g>
<g>
	<path class="st3" d="M1565.599,515.091c-82.556,0-159.772-31.626-211.934-87.074l-9.857-10.268l13.554,3.286
		c13.554,3.286,28.34,5.339,43.126,5.339l0,0c36.144,0,75.163-10.679,113.771-30.804c20.536-9.857,40.251-21.768,59.145-33.68
		c13.965-8.215,27.929-17.251,42.305-25.054c46.823-25.465,104.735-39.019,167.165-39.019c2.464,0,5.339,0,7.804,0l1.232,8.215
		c-3.697,1.232-7.804,2.054-11.5,3.286c-30.804,8.625-62.43,17.661-89.128,35.733c-5.339,3.697-10.679,7.393-16.018,11.09
		c-9.447,6.572-18.893,13.143-28.34,20.126c8.625-1.643,16.84-3.286,25.054-4.518c42.715-8.215,87.074-16.429,131.432-16.429
		c2.464,0,5.339,0,7.804,0l1.232,7.804c-34.09,13.554-73.109,29.983-101.039,58.734l-7.804,7.804
		c-7.393,7.804-15.197,15.608-22.59,23.822c6.161-2.054,12.322-4.107,18.893-6.161c44.358-14.786,90.36-29.983,138.004-34.912
		l2.054,7.804c-18.893,8.625-37.787,17.661-56.269,26.697c-41.894,20.126-85.02,41.073-130.611,55.037
		C1625.565,510.984,1595.992,515.091,1565.599,515.091z"/>
	<path class="st3" d="M1402.13,382.427c-1.232,0-2.875,0-4.107,0c-31.626-1.232-59.555-16.84-72.699-41.073
		c-13.143-23.001-13.554-52.984-1.232-82.556c18.072-46.001,54.216-82.145,83.377-108.021c37.376-31.626,77.216-56.68,118.7-74.752
		l11.09-4.929l-5.75,10.679c-15.608,28.751-32.447,62.02-36.965,97.753c38.198-25.465,76.806-47.644,121.575-48.876
		c53.805,1.232,99.806,32.447,137.593,62.43c36.965,29.572,85.842,34.501,132.664,39.43l9.447,0.822l-3.697,5.75
		c-9.447,14.786-20.536,22.59-32.858,22.59c-0.411,0-0.821,0-1.232,0c-34.09-3.286-61.198-4.518-85.842-4.518
		c-56.269,0-103.092,7.804-143.754,23.822c-36.555,13.554-70.645,33.269-103.914,52.573c-14.375,8.215-29.162,16.84-43.948,24.644
		C1458.399,369.694,1431.291,382.427,1402.13,382.427z M1606.261,168.028c-2.464,1.232-3.286,3.697-3.286,5.339
		c0,0.822,0.411,4.107,3.286,5.339h0.411h0.411c25.054,13.554,55.037,20.947,86.663,20.947l0,0c5.339,0,11.09-0.411,16.429-0.822
		c-0.822-2.464-3.697-4.518-7.804-7.393c-1.232-0.822-2.464-1.643-3.697-2.464c-17.25-10.679-43.537-23.001-71.877-23.001
		C1619.404,165.564,1612.422,166.385,1606.261,168.028z"/>
	<g id="_x23_ffffffff_1_">
		<path class="st2" d="M1497.008,59.596c39.84-19.304,82.145-32.858,123.218-48.876c-26.286,36.555-58.734,69.413-78.859,110.074
			c35.322-15.197,74.752-21.768,112.539-12.733c43.126,9.857,80.502,34.912,114.593,61.609
			c19.715,16.018,44.358,24.233,68.591,28.751c52.984,10.679,107.61,6.572,161.415,3.697
			c-24.644,32.037-48.055,68.181-87.485,83.377c105.557,24.644,195.095,96.931,253.828,186.47
			c15.608,25.876,29.162,53.394,41.073,81.734c-61.198-46.412-123.628-96.11-199.202-116.646
			c-43.126-12.322-89.949-11.911-133.075,1.643c-84.199,25.055-156.897,81.735-245.203,97.342
			c-87.895,15.197-183.594-2.464-256.293-55.859c-29.572-22.179-56.269-49.698-73.109-82.556
			c-25.054-49.698-23.411-110.896,3.286-159.362C1343.807,158.581,1417.737,99.848,1497.008,59.596 M1432.934,115.455
			c-40.662,29.572-78.449,64.895-105.146,108.021c-19.715,32.447-31.626,73.52-18.893,110.896
			c11.911,35.322,48.876,58.734,85.431,59.555c36.555,2.875,71.056-13.554,102.682-30.804
			c51.341-28.751,101.449-61.609,158.54-78.859c49.698-16.018,102.271-16.429,154.022-15.197
			c24.644,0.411,49.287,6.161,73.931,7.804c35.733-2.054,64.484-28.751,82.556-57.502c-56.27,3.697-114.182,2.875-167.987-15.608
			c-27.108-8.625-46.412-29.983-69.823-45.18c-29.983-19.304-62.841-36.555-98.985-38.608c-41.894-3.286-83.788,11.5-117.878,35.322
			c13.554-41.073,36.555-78.449,65.305-110.485C1524.526,58.775,1476.471,84.651,1432.934,115.455 M1656.78,306.443
			c-60.377,20.126-108.842,63.252-167.165,87.485c-42.715,18.483-92.824,30.394-137.593,11.911
			c-21.358-7.804-37.376-23.822-53.805-39.019c30.804,70.234,96.11,123.218,168.808,144.986
			c64.895,18.893,136.361,20.536,200.845-1.643c58.323-19.304,112.128-49.698,168.398-74.341
			c43.948-18.483,92.413-27.519,140.057-20.536c71.056,10.679,133.897,48.466,190.166,89.949
			c-11.5-26.697-30.804-49.287-48.876-71.877c-58.734-69.002-139.647-121.986-230.006-136.772
			C1811.213,284.264,1731.121,280.978,1656.78,306.443z"/>
		<path class="st2" d="M1701.138,354.498c43.948-27.929,97.342-39.019,149.094-39.84c46.823,1.232,94.467,9.447,135.54,32.447
			c46.412,24.644,86.663,58.734,120.753,98.574c-40.251-21.358-82.556-39.84-127.736-45.591
			c-85.842-9.447-173.737,0.411-255.882,27.929c48.055-41.894,111.307-62.02,173.326-70.234
			c-22.179-10.679-46.823-12.733-71.056-13.965C1783.694,342.176,1742.211,347.515,1701.138,354.498z"/>
	</g>
	<path class="st3" d="M1409.934,153.653c35.733-29.983,75.163-55.448,117.878-74.341c-18.072,33.68-35.322,69.002-38.608,108.021
		c38.197-25.876,79.681-51.751,126.914-52.984c51.341,1.232,96.11,30.804,135.129,61.609
		c38.608,30.804,89.949,35.733,137.593,40.662c-6.572,10.679-16.84,20.947-30.394,20.536
		c-77.216-6.982-157.719-9.447-230.828,19.715c-52.573,19.715-98.985,50.93-147.861,77.627
		c-25.054,13.143-52.162,25.465-81.324,24.233c-27.519-1.232-55.859-14.375-69.413-39.019c-13.554-24.233-11.5-54.216-1.232-78.859
		C1344.218,217.726,1376.665,183.636,1409.934,153.653 M1605.028,163.921c-7.804,2.875-8.214,15.197-0.411,18.483
		c32.858,18.072,72.288,23.822,109.253,20.126c1.643-8.625-7.804-12.733-13.143-17.251
		C1672.387,168.028,1637.886,156.117,1605.028,163.921z"/>
	<path class="st3" d="M1617.761,340.944c52.573-28.751,113.771-39.43,173.326-38.608c-34.912,10.268-71.056,18.893-101.86,39.84
		c-19.304,13.554-39.019,26.286-57.502,41.483c59.555-10.268,119.111-25.054,179.898-23.822
		c-36.965,14.375-74.341,31.215-102.271,59.966c-13.554,14.375-27.519,28.34-40.662,43.126
		c55.859-17.661,111.307-39.43,170.451-45.591c-62.02,27.519-121.164,61.609-186.47,81.324
		c-101.86,30.804-222.203,5.339-296.133-73.109c54.216,13.965,110.896-0.411,159.772-25.876
		C1551.223,382.427,1583.26,359.837,1617.761,340.944z"/>
	<path class="st4" d="M1432.934,115.455c43.537-30.804,91.592-56.68,143.343-70.645c-28.751,32.037-51.751,69.413-65.305,110.485
		c34.09-23.822,75.984-39.019,117.878-35.322c36.144,2.054,69.002,19.304,98.985,38.608c23.411,14.786,42.716,36.555,69.823,45.18
		c53.805,18.893,111.717,19.304,167.987,15.608c-18.072,28.751-46.823,55.448-82.556,57.502
		c-24.644-1.643-48.876-7.393-73.931-7.804c-51.751-1.232-104.324-0.822-154.022,15.197c-56.68,17.251-106.789,50.519-158.54,78.859
		c-31.626,17.251-65.716,33.269-102.682,30.804c-36.555-0.822-73.52-23.822-85.431-59.555
		c-12.732-37.376-1.232-78.449,18.893-110.896C1354.486,180.35,1391.862,145.027,1432.934,115.455 M1409.934,153.653
		c-33.68,29.983-65.716,64.073-82.556,106.789c-10.268,25.054-12.322,54.626,1.232,78.859
		c13.554,24.644,41.894,38.197,69.413,39.019c28.751,1.232,55.859-11.09,81.324-24.233c48.876-26.286,95.699-57.912,147.861-77.627
		c73.109-29.162,154.022-26.697,230.828-19.715c13.554,0.411,23.411-9.857,30.394-20.536c-47.233-4.929-98.574-9.857-137.593-40.662
		s-83.788-60.787-135.129-61.609c-47.234,1.232-88.717,27.519-126.914,52.984c3.286-38.608,20.126-74.341,38.608-108.021
		C1485.097,98.205,1445.667,123.67,1409.934,153.653z"/>
	<path class="st4" d="M1656.78,306.443c73.931-25.465,154.433-22.179,230.417-9.857c90.36,14.786,171.273,67.359,230.006,136.772
		c18.072,22.59,37.787,45.18,48.876,71.877c-56.27-41.894-119.111-79.681-189.755-89.538c-47.233-6.982-96.11,1.643-140.057,20.536
		c-56.269,24.644-110.074,55.037-168.398,74.341c-64.484,21.768-135.54,20.536-200.845,1.643
		c-73.109-21.768-138.415-74.341-168.808-144.986c16.018,15.197,32.447,31.215,53.805,39.019
		c44.769,18.483,94.878,6.572,137.593-11.911C1547.938,369.694,1596.814,326.568,1656.78,306.443 M1701.138,354.498
		c41.073-6.982,82.556-12.322,124.45-11.09c24.233,1.232,48.876,3.286,71.056,13.965c-62.43,8.215-125.682,28.34-173.326,70.234
		c82.145-27.519,169.63-37.376,255.882-27.929c45.18,5.75,87.895,24.233,127.736,45.591c-34.09-39.84-74.341-73.931-120.754-98.574
		c-41.073-23.001-88.717-31.215-135.54-32.447C1798.48,315.479,1745.086,326.568,1701.138,354.498z"/>
	<path class="st3" d="M1409.934,153.653c35.733-29.983,75.163-55.448,117.878-74.341c-18.072,33.68-35.322,69.002-38.608,108.021
		c38.197-25.876,79.681-51.751,126.914-52.984c51.341,1.232,96.11,30.804,135.129,61.609
		c38.608,30.804,89.949,35.733,137.593,40.662c-6.572,10.679-16.84,20.947-30.394,20.536
		c-77.216-6.982-157.719-9.447-230.828,19.715c-52.573,19.715-98.985,50.93-147.861,77.627
		c-25.054,13.143-52.162,25.465-81.324,24.233c-27.519-1.232-55.859-14.375-69.413-39.019c-13.554-24.233-11.5-54.216-1.232-78.859
		C1344.218,217.726,1376.665,183.636,1409.934,153.653 M1605.028,163.921c-7.804,2.875-8.214,15.197-0.411,18.483
		c32.858,18.072,72.288,23.822,109.253,20.126c1.643-8.625-7.804-12.733-13.143-17.251
		C1672.387,168.028,1637.886,156.117,1605.028,163.921z"/>
	<path class="st3" d="M1617.761,340.944c52.573-28.751,113.771-39.43,173.326-38.608c-14.786,3.286-32.858,8.215-52.573,16.018
		c-24.644,9.447-42.305,19.304-48.876,23.001c-16.018,9.036-36.555,22.59-57.912,41.894
		c59.555-10.268,119.111-25.054,179.898-23.822c-36.965,14.375-74.341,31.215-102.271,59.966
		c-13.554,14.375-27.519,28.34-40.662,43.126c55.859-17.661,111.307-39.43,170.451-45.591
		c-62.02,27.519-121.164,61.609-186.47,81.324c-101.86,30.804-222.203,5.339-296.133-73.109
		c54.216,13.965,110.896-0.411,159.772-25.876C1551.223,382.427,1583.26,359.837,1617.761,340.944z"/>
</g>
<path class="st0" d="M1622.93,160.735c20.144-0.118,40.051,5.276,58.206,13.806c8.664,4.172,17.059,9.035,24.577,15.053
	c2.183,1.981,4.872,4.062,5.352,7.164c-0.126,3.186-4.054,3.7-6.54,3.953c-31.294,0.742-63.482-3.574-91.759-17.666
	c-3.877-2.073-8.487-3.953-10.283-8.31c-1.652-3.38,0.067-7.501,3.059-9.482C1610.574,161.704,1616.946,161.03,1622.93,160.735z"/>
</svg>
