<svg id="Layer_1" xmlns="http://www.w3.org/2000/svg" viewBox="-147 237.9 300 367"><style>.st0{fill:#07080C;} .st1{fill:#ED1C2B;} .st2{fill:#FFFFFF;} .st3{fill:#1D1C21;} .st4{fill:none;} .st5{fill:#3A3944;}</style><path class="st0" d="M-132.9 501.7c8.2-8.6 16.5-17.2 24.7-25.8 9.1-9.9 9.8-16.1 8.7-19.9-.9-3.2-3.1-4.4-5-8.7-2.5-5.8-2.1-11.7-1.2-15.7 6.1-28.7 7-52.1 6.6-68.8-.5-21.7-3.5-37.2 3.7-59.2 6.1-18.7 15.1-28.6 17.8-31.5 9-9.4 18.2-13.9 29-19.1 8.9-4.3 22.1-9.6 39.4-12.8 15 1.8 37.5 7 57.6 23.2 17.9 14.4 25.8 31.1 32.3 44.3 12.6 25.5 31.5 61.1 59.7 106.8.8 3.8 1.7 7.6 2.5 11.5l-11.6 16.8 3.4 11.3c-89.7 17.6-179.4 35.2-269 52.8"/><path class="st0" d="M-144.2 509.9c93.5-19.3 187-38.7 280.5-58 2.8 3.6 6.5 9.2 9.5 16.6 5.7 14.1 5.4 26.2 5 35.2-.5 11.9-1 23.8-9.1 35.2-3.2 4.5-6.7 7.6-9.1 9.5-5.9.6-14.7 1.5-25.3 2.9-53 6.9-91.5 16.9-109.8 21.5-29.9 7.5-73.6 17.5-131.7 27.3.3-19.1.5-38.1.8-57.2-2.9-.1-5.8-.3-8.7-.4l-2.1-32.6z"/><path class="st1" d="M-9.5 237.9h6.1c15 3.4 29.6 9 43 16.6 11.3 6.6 21.8 14.9 29.2 25.8 9 13.2 16.1 27.4 23.4 41.6 5.2 10.5 10.6 20.8 15.5 31.4 1.8 4.3 6.1 6.6 8.5 10.5 2.5 3.5 3.3 7.8 3.5 12.1 4.7 12.2 14.5 21.3 21.3 32.1 3.7 5.8 5.8 13 4.2 19.9-1.3 6.2-5.3 11.4-9.6 15.8 2.4 4.2 3.2 9.5 7.4 12.3 6.7 5.5 9.2 14.5 9.4 22.9 0 5.1 0 10.3.6 15.4v22.2c-.7 11.2-3.1 23.7-12.7 30.6-9.5 6.5-22 8.4-33.2 5.9-3.2 1.4-5.8 3.9-9.1 4.9-6.9 2.9-14.5 3.2-21.9 3.9-65.3 13.3-130.6 26.3-195.9 39.5-5.5 1.2-11.1 2.1-16.6 3.5h-.7c.1-19.1-.1-38.2.1-57.3-3.3.4-6.6 1.2-9.9 1.8v-42.7c1.7-.2 3.5-.5 5.2-.9 3.2-.6 4.7-3.8 6.9-5.8 6.2-6.8 14.4-11.7 19.6-19.4 3.3-4.7 5.1-10.2 8-15 1.8-2.8 4-5.3 6-8-4-4.4-8-9.1-9.6-14.9-1.7-5.2.6-10.5 1.3-15.7 4.9-27.6 8.7-55.8 5.4-83.8-1.4-19.9 3.7-39.8 13-57.3 4.6-8.6 10.2-16.8 17.6-23.2 5.4-4.9 12.4-7.3 19-10.3 14.5-6.1 29.3-11.8 45-14.4m-10.4 9c-14.4 4.1-28.5 9.6-42 16-7.7 3.5-13.2 10.2-17.9 17-13.7 20.4-20.5 45.7-17 70.2 2 26.5-1.6 53-6.3 79-.7 4.5-2.9 9.4-.7 13.9 2.6 5.7 7.2 10 11.6 14.3-2.8 3.4-5.7 6.7-8.2 10.3-4.2 5.8-6.1 12.9-10.6 18.5-4.7 6.5-11.7 10.8-17.1 16.8 5.6-.9 11.1-2 16.6-3.3 12-2.1 23.9-4.7 35.8-7.1 5.7-1.1 11.4-2.1 17-3.4 1.9-.3 3.9-.6 5.8-1.1 2-.4 4.1-.8 6.1-1.3-1.9-2.8-5-4.3-7.9-5.8-7.7-4-14.5-9.2-21.6-14 0-.3 0-.9.1-1.3 3.3 2.5 7.3 3.9 10.9 6 7.1 4.3 15.3 6.8 21.7 12.3 1.1.6 2.6 2.6 3.9 1.2-4.5-9.5-15.1-13-23.3-18.6l-.3.1c-2.7-2-5.7-3.5-8.5-5.4 7.2 2.8 14.3 6.2 21 10 5.7 3.2 10.2 8.2 13.8 13.6 20.3-4.2 40.6-8.3 60.9-12.3l4.2-.9c13.7-2.6 27.3-5.6 40.9-8.2 4.9-.8 9.3-3.3 14.1-4.1 3.2-.9 6.6-.7 9.9-1.4 3.1.4 6.1.9 9.2 1.6 4.4-3.9 10-6 15.7-7.2 4.5-1 9.2-1.5 13.8-1.4-.5-2.9-3.2-4.1-5.5-5.4 1.5-4 5.3-6.4 7.9-9.6 4.1-4.7 6.6-11.3 4.6-17.5-2.4-7.7-8-13.7-12.8-19.9-4.9-6.1-8.8-12.8-12.4-19.7-1.4-2.4.2-5.3-.9-7.8-1.5-4.8-5.9-7.7-8.8-11.4-9.3-18.6-18.3-37.5-28.3-55.8-4.2-7.6-8.5-15.2-13.7-22.1-5.4-7.2-12.4-13-19.9-18-13-8.4-27.5-14.2-42.4-18.2-6.7-2.1-13.3-.2-19.4 1.4m128 216.1c-1.9 1.3-3.2 3.3-5.1 4.6-3.1-1.8-6.4-3.2-10-3.1-8.1.3-16.5 2.2-23 7.4-.2-1.8-1.5-2.3-3.1-1.7C-2 484.3-71 498-139.9 512l-.3.8c-.2 9.5 0 19 0 28.5 3.2-.6 6.4-1.3 9.6-1.8.1 19.1.1 38.2 0 57.2 9.9-1.7 19.7-4 29.6-5.8 59.3-12 118.7-23.9 178-35.9 10-.4 21.6-1.7 28.2-10.3 3.2 1.3 6.3 3.1 9.8 2.9 7.1 0 14.4-1.5 20.5-5.2 7.5-4.8 9.9-14.2 10.5-22.6.9-13-.1-26 0-38.9-.3-6.4-1.4-13.3-5.8-18.3-3.4-4.1-9-5.6-14.2-5-6.2.6-12.6 1.8-17.9 5.4z"/><path class="st1" d="M-84.7 370.9c1.1-7.7 2-15.5 3.7-23.1-3.2 28.5-4.4 57.3-10.4 85.4 0-3.1.1-6.2.6-9.3 2.2-17.7 4.3-35.3 6.1-53zm76.9-10.8c1.7-.2 1.4 1.5 1.7 2.6 3.1 2.2 4.6 5.8 6.6 8.8 2.4 4.4 5.8 8.3 7.4 13-6.7 1.3-13.2 3.5-20 4-4.3-.8-7.8-3.6-11.5-5.7 2.7-3.4 5.9-6.4 9.1-9.3.5-2.8 1.1-5.8 3.7-7.5 2.1-1.2 2.2-3.7 3-5.9m1 3.1c-.5 3.6-4.8 4.7-5.4 8.2 2.9-1.6 5.4-3.8 8.1-5.6-.9-.9-1.8-1.8-2.7-2.6zm37.1 89c4.4-6.6 6.5-14.5 7.5-22.3 0 5.1-1.4 10.1-2.7 15-1.8 4.3-4.5 8.2-6.8 12.3-2.1 3.8-3.5 8-5 12.1-.1-3.4-.5-7 .9-10.1 1.7-2.7 4.4-4.4 6.1-7z"/><path class="st0" d="M-19.9 246.9c6.2-1.5 12.8-3.4 19.1-1.6 14.9 4 29.4 9.8 42.4 18.2 7.5 5 14.5 10.8 19.9 18 5.2 7 9.5 14.6 13.7 22.1 10 18.3 19 37.1 28.3 55.8 3 3.8 7.3 6.6 8.8 11.4 1.1 2.5-.5 5.4.9 7.8 3.6 6.9 7.5 13.7 12.4 19.7 4.7 6.3 10.4 12.3 12.8 19.9 2 6.2-.4 12.8-4.6 17.5-2.6 3.2-6.4 5.6-7.9 9.6 2.3 1.2 5.1 2.4 5.5 5.4-4.6 0-9.3.4-13.8 1.4-2.6-3.4-5.8-7.7-10.8-6.4-6 2.1-9.6 7.9-14.1 12-3.3.6-6.6.5-9.9 1.4-4.9.8-9.3 3.3-14.1 4.1-13.7 2.6-27.3 5.6-40.9 8.2.5-8.1 4-15.6 8.4-22.2 3.8-4.4 7.7-8.7 11.3-13.2.2 2.4.4 4.7.8 7.1 1.2-4.6 1.1-9.4 1.3-14.1.1-3.8-2.8-6.5-5.4-8.9-1-.9-1.9-1.8-2.9-2.8 2.8-.5 4.7 2.1 6.9 3.2 2.3 1.2 3.6 3.5 5.1 5.5 1.8-6.7 4.3-13.2 5.8-20 2-6 3.2-12.3 4.3-18.6.7-4.6-.1-9.2-1.3-13.7-2.2-8.5-5.8-16.5-10-24.3-2-3.7-4.8-7-6.5-10.9 2.8 2.3 5.1 5.2 7.3 8.1 4.4 7.3 8.6 14.6 12.6 22.1.9-14.6.6-30.1-6.3-43.3-.8-1.4-1.3-3-.5-4.5 7 8.1 11 18.3 13.4 28.6 4 15.9 1.3 32.6-3.1 48.2-2.4 7.3-4.4 14.7-6.2 22.1-.8 3.2-1.6 6.6-.8 9.9.7-.5 1.4-.9 2-1.4 11.9-13.1 17.4-30.6 20.5-47.7.3 1.8.5 3.5.7 5.3-.6 6.9-2.4 13.5-3.4 20.3 2.8-2.4 3.4-6.3 4.9-9.5-.1 5.4-1.8 10.7-4.6 15.3-4.1 7-7.4 14.4-10.1 22-.8 2.1-1.1 4.3-1.2 6.5 3.2-1.7 5.1-4.9 8.2-6.6 3.1-1.7 6.1-3.7 8.9-5.8 4.4-1.9 7-6.1 9.1-10.2 3.6-7.5 12.1-11.1 15.3-18.9 1.9-4.3-1.7-8.2-3.8-11.7-.2 0-.7-.1-.9-.1-1.7 2.6-2.9 5.4-4.6 8-.9 1.3-1.9 2.6-2.9 3.8.1-2.6 1.3-4.8 2.4-7 2.1-6.2 5.2-12.5 5.1-19.1-4.6-7.2-12-12-17.8-18.1-1.1-1-.4-2.3 1-2.6-11-20.6-20.4-42.2-33.3-61.8-5.3-8.2-12.7-14.8-20.9-20.1-11.8-7.6-25-12.8-38.5-16.6-4.8-1.5-9.7-.2-14.5.7-4.7 1.3-9.2 3.4-13.3 5.9-7.5 5.1-10.4 14.1-14.4 21.8.7-7.9 5.3-14.6 9.1-21.3-9 2.9-17.8 6.6-26.1 11.1-7.2 5.1-12.3 12.7-16.7 20.3-8 15.2-12.7 32.5-11.4 49.7 3.4 31.4-.9 63.1-6.9 93.9-.5 1.8-.1 3.5.5 5.2.7-3 2.5-5.3 4-7.9 6-28.1 7.1-56.9 10.4-85.4 1.9-7.9 2.1-16.7 8-22.9 5.1-3.8 11.4-5.3 17.2-7.7 3.1-1 6.3-2.9 9.7-1.9 4.3 1.1 8.4 2.7 12.5 4.2-4.6.6-8.9-1.8-13.4-1.6-2.3.3-4.1 1.7-6 2.9 10.5 2 21.6 3.5 30.8 9.4 3.3 2 5.7 5.1 7.8 8.3C-1 357.9 10.5 378.8 23 399c3.1 4.5 5.9 9.5 10.2 13 3.1 4.4 6.8 8.3 10.3 12.5 2.7 3.3 2.8 7.7 1 11.5-.6-2.4-1.2-4.9-2.1-7.3-1.2-1.2-2.7-2.1-4.2-2.9-.2 1.4-.3 2.8-.5 4.1-1 7.8-3.1 15.7-7.5 22.3-1.7 2.6-4.4 4.3-6 7-1.4 3.2-1.1 6.8-.9 10.1.1 1 .1 2 .3 3-20.3 4-40.6 8.1-60.9 12.3-3.6-5.4-8-10.4-13.8-13.6-6.7-3.8-13.8-7.2-21-10 2.8 1.9 5.8 3.3 8.5 5.4-.4.1-1.2.3-1.5.4-5.8-2.4-11-6.3-17.1-8 4.3 4.7 10.7 6.7 15.8 10.4.9.5 1.2 1.2.9 2.2-3.6-2.1-7.6-3.5-10.9-6-1.1-.9-2.4-1.3-3.7-1.8 2.3 4 4.8 7.8 7.7 11.3 4.1 5.1 9.3 9.1 13.7 13.9-5.6 1.3-11.3 2.3-17 3.4-2.1-4-5.3-8.3-10.3-8.5-5.9-.1-10.9 3.6-15.7 6.5-3.8 2.5-7.3 5.3-9.8 9.1-5.5 1.4-11.1 2.5-16.6 3.3 5.4-5.9 12.3-10.3 17.1-16.8 4.5-5.6 6.4-12.7 10.6-18.5 2.5-3.6 5.4-6.9 8.2-10.3-4.4-4.3-9-8.7-11.6-14.3-2.2-4.5 0-9.4.7-13.9 4.8-26 8.4-52.5 6.3-79-3.6-24.5 3.3-49.8 17-70.2 4.7-6.8 10.2-13.5 17.9-17 13.5-6.2 27.5-11.7 42-15.7m12.1 113.2c-.7 2.1-.8 4.6-3 5.9-2.5 1.7-3.2 4.7-3.7 7.5-3.2 2.9-6.4 5.9-9.1 9.3 3.7 2.1 7.3 4.9 11.5 5.7 6.8-.6 13.3-2.7 20-4-1.7-4.7-5-8.6-7.4-13-2.1-3-3.6-6.6-6.6-8.8-.3-1.1 0-2.8-1.7-2.6m-69.5 12c-1.1 3.3 3.3 5.4 1.9 8.7-.2 1.5-1.5 3.4 0 4.6 2.1 1.8 3 4 4.9 6 1.6-4.4-3.9-5.3-3.3-9.4 2.5.5 3.3 3.1 4.4 5.1.3 2 .9 4 1.4 6-.6-.4-1.9-1.3-2.6-1.7 2.3 5 6.8 8.6 10.7 12.3 4.4-1 9.3-1.8 13.1-4.5 2.1-4.1 5-8.1 5.6-12.7-4.6-.9-9.6 0-13.9-1.8-1.5-.9-3.3-1.2-5-1.7-2.7-.3-3.3-4-6-4.1-2.8-.6-6.1-.5-8.2-2.8-3.4-2.8.9-6.9.3-10.4-2.3.9-2.7 4.1-3.3 6.4z"/><path class="st0" d="M-6.8 363.2c.9.9 1.8 1.8 2.7 2.6-2.7 1.8-5.2 4-8.1 5.6.6-3.5 4.9-4.6 5.4-8.2zm-66.3 16.2c3 .3 6 1 8.9 1.9l-.3 4.4h-4.6c1.2-3.3-2.3-4.5-4-6.3zM108.1 463c5.3-3.6 11.8-4.8 18-5.5 5.2-.6 10.8.9 14.2 5 4.4 5 5.5 11.9 5.8 18.3-.1 13 .8 26 0 38.9-.7 8.4-3 17.8-10.5 22.6-6.1 3.7-13.4 5.2-20.5 5.2-3.6.2-6.7-1.6-9.8-2.9-6.7 8.7-18.3 10-28.3 10.4-59.3 12-118.7 23.9-178 35.9-9.9 1.8-19.7 4.1-29.6 5.8 0-19.1.1-38.2 0-57.2-3.2.5-6.4 1.2-9.6 1.8 0-9.5-.1-19 0-28.5l.3-.8C-71 498-2 484.3 66.9 470.3c1.6-.6 2.9-.2 3.1 1.7 6.5-5.2 14.9-7.1 23-7.4 3.6-.1 6.9 1.3 10 3.1 1.8-1.5 3.1-3.5 5.1-4.7m3.8 3.5c-6.4 3.2-7.7 11-8.1 17.4-.5 13.3-.6 26.7.2 40 .6 4.3 1.3 10.1 6 11.8 5.4 1 11.1-.4 16.1-2.4 5-2 7-7.5 7.8-12.3 1.4-9.6.8-19.4.8-29-5.7.8-11.2 2.4-16.9 3.2-.2 3.6-.1 7.3-.1 10.9 2.2-.4 4.4-.8 6.6-1.3.1 5.1.2 10.2-.7 15.2-.5 3.2-4.6 4.4-7.4 3.6-2.1-1.8-1.6-5.1-2-7.6-.3-11-.4-22.1.2-33.1.3-2.6.2-6.2 3.3-7.2 1.5-.5 3.8-1 4.9.4 1.3 2.9 1 6.3 1.1 9.4 3.5-.7 7-1.4 10.4-2 0-5.5.3-11.4-2.4-16.4-1.1-2.1-3.4-3.6-5.9-3.5-4.6 0-9.5.9-13.9 2.9m-39.7 10.6c-3.8 5.5-3.9 12.4-4.2 18.8-.1 12.3-.6 24.7.7 36.9.6 4.2 2.2 10 7.3 10.3 5.2.2 10.5-.9 15.2-3.1 4.9-2.4 6.6-8.1 7.3-13.1 1.1-9.3.7-18.7.6-28-5.6 1-11.2 2.3-16.9 3.3.1 3.6-.3 7.3.2 10.9 2.1-.6 4.3-1 6.5-1.4 0 5 .1 10.1-.8 15-.3 3.1-3.7 3.9-6.3 4-2.8-.5-2.6-4-2.9-6.1-.4-11.4-.4-22.8.1-34.1.4-2.5 0-5.8 2.3-7.5 1.8-.8 4.6-1.8 6.1 0 1.1 3 .9 6.2.9 9.3 3.5-.8 7-1.4 10.5-2.1 0-5.8.4-12.3-3.1-17.3-2.2-3.2-6.5-2.7-9.8-2.2-4.9 1.2-10.5 2.2-13.7 6.4m-32 4.2c-2.8 23.4-4.6 46.9-7.3 70.2 3.7-.5 7.4-1.4 11.1-2.1.8-5.7.8-11.5 1.5-17.2 2-1.3 4.8-1.2 7.1-1.8.8 5.7.5 11.5 1.7 17 3.7-1 7.4-1.6 11.1-2.3-2-22.5-4.4-45-6.5-67.5-6.3 1.2-12.5 2.6-18.7 3.7m-43.7 9c-2 11.6-4.4 23.1-6.3 34.6-.2.7-.4 1.4-.7 2.1-1.8-11.5-4.1-22.8-6.3-34.2-5.5 1.2-11 2.3-16.5 3.3v68.8c3.4-.6 6.7-1.3 10.1-2v-39c.1-2.7-.4-5.6.6-8.2 2.5 15.2 6.8 30 9.9 45.1 1.8-.3 3.5-.7 5.2-1.1 3.1-16.7 7.2-33.2 9.9-49.9.4 2.4.4 4.8.4 7.2v40.7c3.4-.5 6.7-1.3 10-1.9 0-22.9.1-45.9 0-68.8-5.4 1-10.9 2-16.3 3.3m-59.3 11.8c-2.3 23.4-4.8 46.8-7 70.3 3.7-.8 7.4-1.5 11.1-2.3.5-5.8 1-11.7 1.4-17.5 2.4-.5 4.8-1 7.3-1.3.1 5.6.8 11.2 1.2 16.8 3.9-.6 7.7-1.5 11.5-2.1-2.1-22.5-4.4-45-6.6-67.5-6.4 1-12.6 2.4-18.9 3.6m-36.7 7.3c-.3 23-.1 45.9-.1 68.9 8.5-1.9 17.1-3.3 25.5-5.3.5-3.9.1-7.8.2-11.8-4.9.9-9.7 1.9-14.6 2.9v-17.8c4.8-1 9.6-2 14.3-2.9.1-3.6.1-7.3.1-10.9-4.8 1-9.6 2-14.4 2.9v-16.9c4.9-1 9.8-2 14.7-2.9v-11.3c-8.5 1.6-17.1 3.6-25.7 5.1m-34.7 7.2v11.2c3.3-.5 6.5-1.3 9.8-1.8-.1 19.1 0 38.3 0 57.4 3.6-1 7.7-1 11.1-2.5.1-19 0-38.1.1-57.1 3.2-.7 6.4-1.3 9.6-2v-11.3c-10.3 1.9-20.5 3.9-30.6 6.1z"/><path class="st0" d="M48.7 491.4c.2-.2.6-.5.8-.6.8 9.7 1.9 19.3 2.5 29-2 .3-4.1.7-6.1 1.1 1-9.9 1.6-19.8 2.8-29.5zm-103.1 22.3c0-1 .6-1.9.9-2.8 1 9.8 1.9 19.6 2.7 29.4-2.1.4-4.2.8-6.2 1.3.9-9.3 1.8-18.6 2.6-27.9z"/><path class="st2" d="M-16.3 254.4c4.7-.9 9.7-2.2 14.5-.7 13.5 3.8 26.7 9 38.5 16.6 8.2 5.3 15.6 11.9 20.9 20.1 12.9 19.6 22.3 41.2 33.3 61.8-1.3.3-2.1 1.6-1 2.6 5.8 6.1 13.1 11 17.8 18.1 0 6.7-3.1 12.9-5.1 19.1l.3-2c1.2-4.6 2.6-9.3 2.6-14.1.2-2.8-2.1-4.8-3.6-6.8-4.7-5.4-9.3-11-14.6-15.8.4-.4.9-.8 1.3-1.3-1-1.2-2-2.5-2.7-3.9-8.1-17-16.5-33.9-25.9-50.2-3.6-5.9-7.1-12-11.8-17.1-5.7-5.9-12.8-10.2-20-14C18.8 261.9 9 258-1 254.9c-5-1.6-10.2-.6-15.3-.5z"/><path class="st2" d="M58.9 320.9c6.6 6.2 10.8 14.6 13.5 23.2 3.4 12.3 3.8 25.1 2.6 37.7-1.5 14.3-6.5 27.8-10.4 41.4-.5 1.7-.5 3.4-.4 5.1-.7.5-1.3 1-2 1.4-.7-3.3.1-6.7.8-9.9 1.8-7.4 3.8-14.8 6.2-22.1 4.4-15.5 7.1-32.3 3.1-48.2-2.4-10.3-6.4-20.5-13.4-28.6zm53 145.6c4.4-2 9.3-2.9 14.1-3 2.5-.1 4.7 1.4 5.9 3.5 2.7 5 2.4 10.9 2.4 16.4-3.5.6-7 1.4-10.4 2-.1-3.1.3-6.5-1.1-9.4-1.2-1.5-3.4-.9-4.9-.4-3 1-3 4.6-3.3 7.2-.7 11-.5 22.1-.2 33.1.4 2.5-.1 5.7 2 7.6 2.7.8 6.8-.3 7.4-3.6.9-5 .8-10.1.7-15.2-2.2.5-4.4.9-6.6 1.3 0-3.6-.1-7.3.1-10.9 5.7-.8 11.2-2.4 16.9-3.2 0 9.7.6 19.4-.8 29-.8 4.9-2.9 10.3-7.8 12.3-5 2-10.7 3.4-16.1 2.4-4.7-1.7-5.4-7.5-6-11.8-.9-13.3-.7-26.7-.2-40 .2-6.3 1.5-14.1 7.9-17.3zm-39.7 10.6c3.2-4.3 8.8-5.2 13.7-6.1 3.3-.5 7.6-1 9.8 2.2 3.6 5 3.1 11.5 3.1 17.3l-10.5 2.1c0-3.1.2-6.4-.9-9.3-1.5-1.8-4.3-.8-6.1 0-2.2 1.7-1.9 5-2.3 7.5-.5 11.4-.5 22.8-.1 34.1.3 2.1.1 5.6 2.9 6.1 2.6-.1 6-1 6.3-4 1-4.9.8-10 .8-15-2.2.3-4.4.7-6.5 1.4-.5-3.6-.2-7.3-.2-10.9 5.6-1 11.2-2.3 16.9-3.3.1 9.3.5 18.7-.6 28-.7 5-2.4 10.7-7.3 13.1-4.7 2.2-10 3.3-15.2 3.1-5.1-.4-6.8-6.1-7.3-10.3-1.2-12.3-.7-24.6-.7-36.9.3-6.7.5-13.6 4.2-19.1zm-32 4.2c6.2-1 12.4-2.5 18.6-3.6 2.1 22.5 4.5 45 6.5 67.5-3.7.8-7.4 1.4-11.1 2.3-1.2-5.6-.9-11.4-1.7-17-2.3.7-5.1.6-7.1 1.8-.7 5.7-.7 11.5-1.5 17.2-3.7.6-7.4 1.5-11.1 2.1 2.8-23.5 4.6-47 7.4-70.3m8.5 10.1c-1.2 9.8-1.8 19.6-2.8 29.4 2-.4 4-.8 6.1-1.1-.6-9.7-1.7-19.3-2.5-29-.2.2-.6.5-.8.7zm-52.2-1.1c5.4-1.3 10.9-2.3 16.4-3.4.1 22.9 0 45.9 0 68.8-3.4.6-6.7 1.4-10 1.9.1-13.5 0-27.1 0-40.7 0-2.4 0-4.8-.4-7.2-2.7 16.7-6.9 33.2-9.9 49.9-1.7.4-3.5.8-5.2 1.1-3.1-15.1-7.4-29.9-9.9-45.1-1 2.6-.6 5.4-.6 8.2v39c-3.3.7-6.7 1.4-10.1 2V496c5.5-1.1 11-2.1 16.5-3.3 2.2 11.4 4.5 22.8 6.3 34.2.3-.7.5-1.4.7-2.1 1.8-11.5 4.2-23 6.2-34.5zm-59.3 11.8c6.3-1.1 12.5-2.6 18.8-3.7 2.2 22.5 4.5 45 6.6 67.5-3.8.6-7.6 1.6-11.5 2.1-.3-5.6-1.1-11.2-1.2-16.8-2.4.3-4.9.8-7.3 1.3-.4 5.8-.9 11.7-1.4 17.5-3.7.8-7.4 1.5-11.1 2.3 2.3-23.4 4.8-46.8 7.1-70.2m8.4 11.6c-.8 9.3-1.7 18.6-2.5 27.8 2.1-.4 4.1-.8 6.2-1.3-.9-9.8-1.7-19.6-2.7-29.4-.4 1-1 1.9-1 2.9zm-45.1-4.3c8.6-1.5 17.1-3.5 25.7-5.1v11.3c-4.9 1-9.8 1.9-14.7 2.9v16.9c4.8-.9 9.6-1.9 14.4-2.9 0 3.6.1 7.3-.1 10.9-4.8.9-9.6 1.9-14.3 2.9.1 5.9 0 11.9 0 17.8 4.9-1 9.7-2 14.6-2.9-.2 3.9.3 7.9-.2 11.8-8.4 2-17 3.4-25.5 5.3 0-22.9-.2-45.9.1-68.9zm-34.7 7.2c10.1-2.2 20.3-4.2 30.5-6.2v11.3c-3.2.7-6.4 1.3-9.6 2-.1 19 .1 38.1-.1 57.1-3.4 1.5-7.5 1.5-11.1 2.5 0-19.1-.1-38.3 0-57.4-3.3.5-6.5 1.3-9.8 1.8.1-3.7.1-7.4.1-11.1z"/><path class="st3" d="M-29.6 260.3c4.2-2.5 8.6-4.7 13.3-5.9 5.1-.1 10.3-1.1 15.3.5 10 3.1 19.7 7.1 29.1 11.9 7.2 3.8 14.3 8.1 20 14 4.7 5.1 8.2 11.2 11.8 17.1 9.4 16.3 17.9 33.2 25.9 50.2.7 1.4 1.7 2.7 2.7 3.9-.4.4-.9.8-1.3 1.3 5.3 4.8 9.8 10.4 14.6 15.8 1.6 2 3.8 4 3.6 6.8 0 4.8-1.4 9.5-2.6 14.1-1.4-4.5-.2-9.2-1.3-13.8-1.3-5.7-4.9-11.2-10.5-13.4-1.5-.5-3.6-1.2-4.9.2-1.9 1.3-1.7 3.8-2 5.8.5-.6 1.1-1.1 1.6-1.7.5 6.3.9 12.7-.3 19-.2-1.8-.4-3.5-.7-5.3-3.1 17.1-8.6 34.6-20.5 47.7-.1-1.7-.1-3.5.4-5.1 3.9-13.7 8.9-27.2 10.4-41.4 1.3-12.6.9-25.5-2.6-37.7 2.1-7.3-.8-14.5-3.4-21.1-4.5-10.8-9.8-21.6-17.8-30.3-13.4-15-31.7-24.6-50.1-31.9-7.3-3.3-15.4 0-22.2 3.1-4 2.2-9.2 3.5-11.1 8.1-4.2 8.4-6.1 17.8-8.2 27-1.3 4.2 1.5 8.3 4.7 10.8 5.6 4.3 12.2 6.7 18.8 9 5.7 2 12 2.5 16.9 6.3 3.2 2.5 6.5 5.3 8.1 9.1-5.1-3.8-9.8-8.5-16.2-10.1-9.7-2.4-19.2-5.5-28.7-8.4-3.8-1.1-7.4-3.2-11.4-3.9-3.3 1.2-6.1 3.3-9 5.1l1.2.4c-5.8 2.4-12.1 3.9-17.2 7.7-5.9 6.2-6.1 15.1-8 22.9-1.7 7.6-2.6 15.4-3.7 23.1-1.8 17.7-3.8 35.4-6.1 53-.5 3.1-.6 6.2-.6 9.3-1.5 2.6-3.4 4.9-4 7.9-.6-1.7-1-3.5-.5-5.2 6-30.8 10.3-62.5 6.9-93.9-1.3-17.3 3.4-34.5 11.4-49.7 4.3-7.6 9.4-15.2 16.7-20.3 8.3-4.5 17.1-8.2 26.1-11.1-3.8 6.7-8.4 13.4-9.1 21.3 4.1-8.1 7-17.1 14.5-22.2z"/><path class="st3" d="M20.7 299.9c4.6.4 8.9 2.4 13 4.3C43 308.4 51 314.8 59 320.9v.1c-.8 1.5-.3 3.1.5 4.5 7 13.3 7.2 28.8 6.3 43.3-4-7.5-8.2-14.8-12.6-22.1 2 .8 4.4 2.3 6.5.7 1.5-2.7.5-6.1-.2-8.9-4.3-12.9-13.9-23.6-25.1-31.1-4.3-2.9-9.3-4.7-13.7-7.5zM-53 320.7c1.9-1.2 3.7-2.6 6-2.9 4.6-.2 8.8 2.3 13.4 1.6 5.1 1.5 10 3.8 15.3 4.9 9.5 3 19.3 7.4 25.1 15.9 3.5 4.8 4.5 10.8 6.8 16.2 7.1 16.9 17.6 32.5 31 45 2.6 2.2 5.1 4.5 8.2 6 2.2 1.1 4.4-.5 6.5-1.2-1.5 6.8-4 13.3-5.8 20-1.4-2.1-2.8-4.3-5.1-5.5-2.3-1.1-4.2-3.8-6.9-3.2-4.3-3.8-7.5-8.6-11.5-12.6 1.1 2.4 2.2 4.8 3.4 7.2-4.4-3.5-7.1-8.5-10.2-13-12.5-20.2-24-41-37.4-60.6-2.1-3.2-4.5-6.3-7.8-8.3-9.4-6-20.5-7.5-31-9.5z"/><path class="st4" d="M-69.3 387c-1.2-1.9-1.9-4.6-4.4-5.1-.7 4.1 4.9 5 3.3 9.4.6.4 1.9 1.3 2.6 1.7-.6-2-1.2-4-1.5-6zm-3.8-7.6c1.8 1.9 5.2 3.1 3.9 6.3 1.5 0 3.1.1 4.6 0l.3-4.4c-2.9-.9-5.8-1.7-8.8-1.9z"/><path class="st1" d="M-55 384.6c-1.5-.9-3.3-1.2-5-1.7-2.7-.3-3.3-4-6-4.1-2.8-.6-6.1-.5-8.2-2.8-3.4-2.8.9-6.9.3-10.4-2.5 1-2.9 4.2-3.5 6.5-1.1 3.3 3.3 5.4 1.9 8.7-.2 1.5-1.5 3.4 0 4.6 2.1 1.8 3 4 4.9 6 .4.6 2.7 2.4 2.8 2.1.6-3.7-6.7-7.7-6-11.5 2.5.5 3.3 3.1 4.4 5.1.3 2 .9 4 1.4 6-.6-.4-1.9-1.3-2.6-1.7 2.3 5 6.8 8.6 10.7 12.3 4.4-1 9.3-1.8 13-4.5 2.1-4.1 5-8.1 5.6-12.7-4.4-1-9.5-.1-13.7-1.9zm-14.2 1c1.3-3.2-2.2-4.4-3.9-6.3 3 .3 6 1 8.9 1.9l-.3 4.4c-1.6.1-3.2.1-4.7 0z"/><path class="st3" d="M107.6 387.2c.2 0 .7.1.9.1 2.1 3.5 5.6 7.4 3.8 11.7-3.1 7.8-11.7 11.4-15.3 18.9-2.1 4.1-4.7 8.3-9.1 10.2 3-4.5 5.1-9.5 6.8-14.6 2.4-6.6 9.6-9.1 13.6-14.4 1.3-3.1-3.2-3.8-5.3-3.9 1.6-2.6 2.9-5.4 4.6-8zm-63.3 32.9c2.6 2.4 5.4 5.2 5.4 8.9-.2 4.7 0 9.5-1.3 14.1-.4-2.3-.6-4.7-.8-7.1-3.6 4.5-7.5 8.8-11.3 13.2-4.4 6.6-7.9 14.1-8.4 22.2l-4.2.9-.3-3c1.5-4.1 2.8-8.3 5-12.1 2.2-4.1 4.9-8 6.8-12.3 5.9-2.9 7.3-10.2 7.3-16.2.9 2.4 1.5 4.8 2.1 7.3 1.7-3.8 1.7-8.2-1-11.5.2-1.5.4-3 .7-4.4zm48.5 37.7c4.6-4.1 8.1-9.9 14.1-12 4.9-1.4 8.2 3 10.8 6.4-5.7 1.2-11.3 3.4-15.7 7.2-3-.8-6.1-1.3-9.2-1.6zm-174.9 1c6.1 1.7 11.2 5.6 17.1 8 .4-.1 1.2-.3 1.5-.4l.3-.1c8.2 5.6 18.7 9.1 23.3 18.6-1.3 1.5-2.8-.5-3.9-1.2-6.4-5.5-14.5-8.1-21.7-12.3.3-1 0-1.7-.9-2.2-5-3.7-11.4-5.7-15.7-10.4zm2 4.8c1.3.5 2.6.9 3.7 1.8 0 .3 0 .9-.1 1.3 7.1 4.8 14 10.1 21.6 14 2.9 1.5 6 3 7.9 5.8-2 .4-4.1.8-6.1 1.3-4.6-3.7-9.1-7.7-14-11-1.6-1.1-3.6-1.4-5.4-1.8-2.8-3.6-5.3-7.4-7.6-11.4zm-21.6 26.6c4.8-2.9 9.8-6.7 15.7-6.5 5 .2 8.2 4.5 10.3 8.5-11.9 2.4-23.8 5-35.8 7.1 2.5-3.8 6.1-6.6 9.8-9.1z"/><path class="st5" d="M-21.1 263.8c6.8-3 14.8-6.4 22.2-3.1 18.5 7.3 36.7 16.9 50.1 31.9 8 8.7 13.2 19.5 17.8 30.3 2.6 6.7 5.5 13.9 3.4 21.1-2.7-8.6-6.9-16.9-13.5-23.2-8-6.2-16-12.5-25.3-16.7-4.1-2-8.4-3.9-13-4.3 4.4 2.9 9.4 4.6 13.7 7.6 11.1 7.5 20.7 18.2 25.1 31.1.7 2.8 1.7 6.2.2 8.9-2 1.5-4.5.1-6.5-.7-2.2-2.9-4.5-5.8-7.3-8.1 1.7 3.9 4.5 7.2 6.5 10.9 4.1 7.7 7.8 15.8 10 24.3 1.2 4.4 2 9.1 1.3 13.7-1.1 6.3-2.3 12.5-4.3 18.6-2.1.7-4.3 2.2-6.5 1.2-3.1-1.4-5.6-3.8-8.2-6-13.4-12.5-23.9-28.1-31-45-2.3-5.4-3.3-11.4-6.8-16.2-5.7-8.5-15.6-12.9-25.1-15.9-5.3-1.1-10.1-3.4-15.3-4.9-4.2-1.5-8.3-3.1-12.5-4.2-3.4-1-6.6.9-9.7 1.9l-1.2-.4c2.9-1.8 5.8-3.9 9-5.1 4 .7 7.5 2.8 11.4 3.9 9.5 2.9 19 6.1 28.7 8.4 6.3 1.6 11.1 6.4 16.2 10.1-1.7-3.8-4.9-6.6-8.1-9.1-4.9-3.8-11.3-4.3-16.9-6.3-6.6-2.3-13.2-4.7-18.8-9-3.2-2.5-5.9-6.6-4.7-10.8 2.1-9.1 4-18.5 8.2-27 1.8-4.4 7-5.7 10.9-7.9zM86.1 363c1.3-1.4 3.4-.8 4.9-.2 5.6 2.2 9.2 7.7 10.5 13.4 1.1 4.5-.2 9.3 1.3 13.8l-.3 2c-1.1 2.3-2.3 4.5-2.4 7 1-1.2 2-2.5 2.9-3.8 2.1.1 6.6.8 5.3 3.9-4 5.3-11.2 7.8-13.6 14.4-1.6 5.1-3.8 10.1-6.8 14.6-2.8 2.1-5.8 4-8.9 5.8-3.1 1.7-5 5-8.2 6.6.1-2.2.4-4.4 1.2-6.5 2.7-7.6 6.1-15 10.3-21.9 2.8-4.6 4.6-9.9 4.6-15.3-1.5 3.2-2.1 7.1-4.9 9.5 1-6.8 2.8-13.4 3.4-20.3 1.2-6.3.8-12.7.3-19-.5.6-1.1 1.1-1.6 1.7.3-1.9.1-4.4 2-5.7zm-56.2 41.7c4 4 7.2 8.8 11.5 12.6 1 .9 1.9 1.8 2.9 2.8-.2 1.5-.5 2.9-.8 4.4-3.4-4.2-7.1-8.1-10.3-12.5-1.1-2.4-2.3-4.8-3.3-7.3zm8.4 21c1.5.8 2.9 1.7 4.2 2.9 0 6-1.4 13.3-7.3 16.2 1.3-4.9 2.6-9.9 2.7-15 0-1.3.2-2.7.4-4.1zm-110.7 49.2c1.8.4 3.8.7 5.4 1.8 4.9 3.3 9.4 7.3 14 11-1.9.5-3.8.8-5.8 1.1-4.3-4.8-9.5-8.8-13.6-13.9z"/><path class="st1" d="M-84.7 370.9c1.1-7.7 2-15.5 3.7-23.1-3.2 28.5-4.4 57.3-10.4 85.4 0-3.1.1-6.2.6-9.3 2.2-17.7 4.3-35.3 6.1-53zm76.9-10.8c1.7-.2 1.4 1.5 1.7 2.6 3.1 2.2 4.6 5.8 6.6 8.8 2.4 4.4 5.8 8.3 7.4 13-6.7 1.3-13.2 3.5-20 4-4.3-.8-7.8-3.6-11.5-5.7 2.7-3.4 5.9-6.4 9.1-9.3.5-2.8 1.1-5.8 3.7-7.5 2.1-1.2 2.2-3.7 3-5.9m1 3.1c-.5 3.6-4.8 4.7-5.4 8.2 2.9-1.6 5.4-3.8 8.1-5.6-.9-.9-1.8-1.8-2.7-2.6zm37.1 89c4.4-6.6 6.5-14.5 7.5-22.3 0 5.1-1.4 10.1-2.7 15-1.8 4.3-4.5 8.2-6.8 12.3-2.1 3.8-3.5 8-5 12.1-.1-3.4-.5-7 .9-10.1 1.7-2.7 4.4-4.4 6.1-7z"/><path class="st0" d="M-19.9 246.9c6.2-1.5 12.8-3.4 19.1-1.6 14.9 4 29.4 9.8 42.4 18.2 7.5 5 14.5 10.8 19.9 18 5.2 7 9.5 14.6 13.7 22.1 10 18.3 19 37.1 28.3 55.8 3 3.8 7.3 6.6 8.8 11.4 1.1 2.5-.5 5.4.9 7.8 3.6 6.9 7.5 13.7 12.4 19.7 4.7 6.3 10.4 12.3 12.8 19.9 2 6.2-.4 12.8-4.6 17.5-2.6 3.2-6.4 5.6-7.9 9.6 2.3 1.2 5.1 2.4 5.5 5.4-4.6 0-9.3.4-13.8 1.4-2.6-3.4-5.8-7.7-10.8-6.4-6 2.1-9.6 7.9-14.1 12-3.3.6-6.6.5-9.9 1.4-4.9.8-9.3 3.3-14.1 4.1-13.7 2.6-27.3 5.6-40.9 8.2.5-8.1 4-15.6 8.4-22.2 3.8-4.4 7.7-8.7 11.3-13.2.2 2.4.4 4.7.8 7.1 1.2-4.6 1.1-9.4 1.3-14.1.1-3.8-2.8-6.5-5.4-8.9-1-.9-1.9-1.8-2.9-2.8 2.8-.5 4.7 2.1 6.9 3.2 2.3 1.2 3.6 3.5 5.1 5.5 1.8-6.7 4.3-13.2 5.8-20 2-6 3.2-12.3 4.3-18.6.7-4.6-.1-9.2-1.3-13.7-2.2-8.5-5.8-16.5-10-24.3-2-3.7-4.8-7-6.5-10.9 2.8 2.3 5.1 5.2 7.3 8.1 4.4 7.3 8.6 14.6 12.6 22.1.9-14.6.6-30.1-6.3-43.3-.8-1.4-1.3-3-.5-4.5 7 8.1 11 18.3 13.4 28.6 4 15.9 1.3 32.6-3.1 48.2-2.4 7.3-4.4 14.7-6.2 22.1-.8 3.2-1.6 6.6-.8 9.9.7-.5 1.4-.9 2-1.4 11.9-13.1 17.4-30.6 20.5-47.7.3 1.8.5 3.5.7 5.3-.6 6.9-2.4 13.5-3.4 20.3 2.8-2.4 3.4-6.3 4.9-9.5-.1 5.4-1.8 10.7-4.6 15.3-4.1 7-7.4 14.4-10.1 22-.8 2.1-1.1 4.3-1.2 6.5 3.2-1.7 5.1-4.9 8.2-6.6 3.1-1.7 6.1-3.7 8.9-5.8 4.4-1.9 7-6.1 9.1-10.2 3.6-7.5 12.1-11.1 15.3-18.9 1.9-4.3-1.7-8.2-3.8-11.7-.2 0-.7-.1-.9-.1-1.7 2.6-2.9 5.4-4.6 8-.9 1.3-1.9 2.6-2.9 3.8.1-2.6 1.3-4.8 2.4-7 2.1-6.2 5.2-12.5 5.1-19.1-4.6-7.2-12-12-17.8-18.1-1.1-1-.4-2.3 1-2.6-11-20.6-20.4-42.2-33.3-61.8-5.3-8.2-12.7-14.8-20.9-20.1-11.8-7.6-25-12.8-38.5-16.6-4.8-1.5-9.7-.2-14.5.7-4.7 1.3-9.2 3.4-13.3 5.9-7.5 5.1-10.4 14.1-14.4 21.8.7-7.9 5.3-14.6 9.1-21.3-9 2.9-17.8 6.6-26.1 11.1-7.2 5.1-12.3 12.7-16.7 20.3-8 15.2-12.7 32.5-11.4 49.7 3.4 31.4-.9 63.1-6.9 93.9-.5 1.8-.1 3.5.5 5.2.7-3 2.5-5.3 4-7.9 6-28.1 7.1-56.9 10.4-85.4 1.9-7.9 2.1-16.7 8-22.9 5.1-3.8 11.4-5.3 17.2-7.7 3.1-1 6.3-2.9 9.7-1.9 4.3 1.1 8.4 2.7 12.5 4.2-4.6.6-8.9-1.8-13.4-1.6-2.3.3-4.1 1.7-6 2.9 10.5 2 21.6 3.5 30.8 9.4 3.3 2 5.7 5.1 7.8 8.3C-1 357.9 10.5 378.8 23 399c3.1 4.5 5.9 9.5 10.2 13 3.1 4.4 6.8 8.3 10.3 12.5 2.7 3.3 2.8 7.7 1 11.5-.6-2.4-1.2-4.9-2.1-7.3-1.2-1.2-2.7-2.1-4.2-2.9-.2 1.4-.3 2.8-.5 4.1-1 7.8-3.1 15.7-7.5 22.3-1.7 2.6-4.4 4.3-6 7-1.4 3.2-1.1 6.8-.9 10.1.1 1 .1 2 .3 3-20.3 4-40.6 8.1-60.9 12.3-3.6-5.4-8-10.4-13.8-13.6-6.7-3.8-13.8-7.2-21-10 2.8 1.9 5.8 3.3 8.5 5.4-.4.1-1.2.3-1.5.4-5.8-2.4-11-6.3-17.1-8 4.3 4.7 10.7 6.7 15.8 10.4.9.5 1.2 1.2.9 2.2-3.6-2.1-7.6-3.5-10.9-6-1.1-.9-2.4-1.3-3.7-1.8 2.3 4 4.8 7.8 7.7 11.3 4.1 5.1 9.3 9.1 13.7 13.9-5.6 1.3-11.3 2.3-17 3.4-2.1-4-5.3-8.3-10.3-8.5-5.9-.1-10.9 3.6-15.7 6.5-3.8 2.5-7.3 5.3-9.8 9.1-5.5 1.4-11.1 2.5-16.6 3.3 5.4-5.9 12.3-10.3 17.1-16.8 4.5-5.6 6.4-12.7 10.6-18.5 2.5-3.6 5.4-6.9 8.2-10.3-4.4-4.3-9-8.7-11.6-14.3-2.2-4.5 0-9.4.7-13.9 4.8-26 8.4-52.5 6.3-79-3.6-24.5 3.3-49.8 17-70.2 4.7-6.8 10.2-13.5 17.9-17 13.5-6.2 27.5-11.7 42-15.7m12.1 113.2c-.7 2.1-.8 4.6-3 5.9-2.5 1.7-3.2 4.7-3.7 7.5-3.2 2.9-6.4 5.9-9.1 9.3 3.7 2.1 7.3 4.9 11.5 5.7 6.8-.6 13.3-2.7 20-4-1.7-4.7-5-8.6-7.4-13-2.1-3-3.6-6.6-6.6-8.8-.3-1.1 0-2.8-1.7-2.6m-69.5 12c-1.1 3.3 3.3 5.4 1.9 8.7-.2 1.5-1.5 3.4 0 4.6 2.1 1.8 3 4 4.9 6 1.6-4.4-3.9-5.3-3.3-9.4 2.5.5 3.3 3.1 4.4 5.1.3 2 .9 4 1.4 6-.6-.4-1.9-1.3-2.6-1.7 2.3 5 6.8 8.6 10.7 12.3 4.4-1 9.3-1.8 13.1-4.5 2.1-4.1 5-8.1 5.6-12.7-4.6-.9-9.6 0-13.9-1.8-1.5-.9-3.3-1.2-5-1.7-2.7-.3-3.3-4-6-4.1-2.8-.6-6.1-.5-8.2-2.8-3.4-2.8.9-6.9.3-10.4-2.3.9-2.7 4.1-3.3 6.4z"/><path class="st0" d="M-6.8 363.2c.9.9 1.8 1.8 2.7 2.6-2.7 1.8-5.2 4-8.1 5.6.6-3.5 4.9-4.6 5.4-8.2zm-66.3 16.2c3 .3 6 1 8.9 1.9l-.3 4.4h-4.6c1.2-3.3-2.3-4.5-4-6.3zM108.1 463c5.3-3.6 11.8-4.8 18-5.5 5.2-.6 10.8.9 14.2 5 4.4 5 5.5 11.9 5.8 18.3-.1 13 .8 26 0 38.9-.7 8.4-3 17.8-10.5 22.6-6.1 3.7-13.4 5.2-20.5 5.2-3.6.2-6.7-1.6-9.8-2.9-6.7 8.7-18.3 10-28.3 10.4-59.3 12-118.7 23.9-178 35.9-9.9 1.8-19.7 4.1-29.6 5.8 0-19.1.1-38.2 0-57.2-3.2.5-6.4 1.2-9.6 1.8 0-9.5-.1-19 0-28.5l.3-.8C-71 498-2 484.3 66.9 470.3c1.6-.6 2.9-.2 3.1 1.7 6.5-5.2 14.9-7.1 23-7.4 3.6-.1 6.9 1.3 10 3.1 1.8-1.5 3.1-3.5 5.1-4.7m3.8 3.5c-6.4 3.2-7.7 11-8.1 17.4-.5 13.3-.6 26.7.2 40 .6 4.3 1.3 10.1 6 11.8 5.4 1 11.1-.4 16.1-2.4 5-2 7-7.5 7.8-12.3 1.4-9.6.8-19.4.8-29-5.7.8-11.2 2.4-16.9 3.2-.2 3.6-.1 7.3-.1 10.9 2.2-.4 4.4-.8 6.6-1.3.1 5.1.2 10.2-.7 15.2-.5 3.2-4.6 4.4-7.4 3.6-2.1-1.8-1.6-5.1-2-7.6-.3-11-.4-22.1.2-33.1.3-2.6.2-6.2 3.3-7.2 1.5-.5 3.8-1 4.9.4 1.3 2.9 1 6.3 1.1 9.4 3.5-.7 7-1.4 10.4-2 0-5.5.3-11.4-2.4-16.4-1.1-2.1-3.4-3.6-5.9-3.5-4.6 0-9.5.9-13.9 2.9m-39.7 10.6c-3.8 5.5-3.9 12.4-4.2 18.8-.1 12.3-.6 24.7.7 36.9.6 4.2 2.2 10 7.3 10.3 5.2.2 10.5-.9 15.2-3.1 4.9-2.4 6.6-8.1 7.3-13.1 1.1-9.3.7-18.7.6-28-5.6 1-11.2 2.3-16.9 3.3.1 3.6-.3 7.3.2 10.9 2.1-.6 4.3-1 6.5-1.4 0 5 .1 10.1-.8 15-.3 3.1-3.7 3.9-6.3 4-2.8-.5-2.6-4-2.9-6.1-.4-11.4-.4-22.8.1-34.1.4-2.5 0-5.8 2.3-7.5 1.8-.8 4.6-1.8 6.1 0 1.1 3 .9 6.2.9 9.3 3.5-.8 7-1.4 10.5-2.1 0-5.8.4-12.3-3.1-17.3-2.2-3.2-6.5-2.7-9.8-2.2-4.9 1.2-10.5 2.2-13.7 6.4m-32 4.2c-2.8 23.4-4.6 46.9-7.3 70.2 3.7-.5 7.4-1.4 11.1-2.1.8-5.7.8-11.5 1.5-17.2 2-1.3 4.8-1.2 7.1-1.8.8 5.7.5 11.5 1.7 17 3.7-1 7.4-1.6 11.1-2.3-2-22.5-4.4-45-6.5-67.5-6.3 1.2-12.5 2.6-18.7 3.7m-43.7 9c-2 11.6-4.4 23.1-6.3 34.6-.2.7-.4 1.4-.7 2.1-1.8-11.5-4.1-22.8-6.3-34.2-5.5 1.2-11 2.3-16.5 3.3v68.8c3.4-.6 6.7-1.3 10.1-2v-39c.1-2.7-.4-5.6.6-8.2 2.5 15.2 6.8 30 9.9 45.1 1.8-.3 3.5-.7 5.2-1.1 3.1-16.7 7.2-33.2 9.9-49.9.4 2.4.4 4.8.4 7.2v40.7c3.4-.5 6.7-1.3 10-1.9 0-22.9.1-45.9 0-68.8-5.4 1-10.9 2-16.3 3.3m-59.3 11.8c-2.3 23.4-4.8 46.8-7 70.3 3.7-.8 7.4-1.5 11.1-2.3.5-5.8 1-11.7 1.4-17.5 2.4-.5 4.8-1 7.3-1.3.1 5.6.8 11.2 1.2 16.8 3.9-.6 7.7-1.5 11.5-2.1-2.1-22.5-4.4-45-6.6-67.5-6.4 1-12.6 2.4-18.9 3.6m-36.7 7.3c-.3 23-.1 45.9-.1 68.9 8.5-1.9 17.1-3.3 25.5-5.3.5-3.9.1-7.8.2-11.8-4.9.9-9.7 1.9-14.6 2.9v-17.8c4.8-1 9.6-2 14.3-2.9.1-3.6.1-7.3.1-10.9-4.8 1-9.6 2-14.4 2.9v-16.9c4.9-1 9.8-2 14.7-2.9v-11.3c-8.5 1.6-17.1 3.6-25.7 5.1m-34.7 7.2v11.2c3.3-.5 6.5-1.3 9.8-1.8-.1 19.1 0 38.3 0 57.4 3.6-1 7.7-1 11.1-2.5.1-19 0-38.1.1-57.1 3.2-.7 6.4-1.3 9.6-2v-11.3c-10.3 1.9-20.5 3.9-30.6 6.1z"/><path class="st0" d="M48.7 491.4c.2-.2.6-.5.8-.6.8 9.7 1.9 19.3 2.5 29-2 .3-4.1.7-6.1 1.1 1-9.9 1.6-19.8 2.8-29.5zm-103.1 22.3c0-1 .6-1.9.9-2.8 1 9.8 1.9 19.6 2.7 29.4-2.1.4-4.2.8-6.2 1.3.9-9.3 1.8-18.6 2.6-27.9z"/><path class="st2" d="M-16.3 254.4c4.7-.9 9.7-2.2 14.5-.7 13.5 3.8 26.7 9 38.5 16.6 8.2 5.3 15.6 11.9 20.9 20.1 12.9 19.6 22.3 41.2 33.3 61.8-1.3.3-2.1 1.6-1 2.6 5.8 6.1 13.1 11 17.8 18.1 0 6.7-3.1 12.9-5.1 19.1l.3-2c1.2-4.6 2.6-9.3 2.6-14.1.2-2.8-2.1-4.8-3.6-6.8-4.7-5.4-9.3-11-14.6-15.8.4-.4.9-.8 1.3-1.3-1-1.2-2-2.5-2.7-3.9-8.1-17-16.5-33.9-25.9-50.2-3.6-5.9-7.1-12-11.8-17.1-5.7-5.9-12.8-10.2-20-14C18.8 261.9 9 258-1 254.9c-5-1.6-10.2-.6-15.3-.5z"/><path class="st2" d="M58.9 320.9c6.6 6.2 10.8 14.6 13.5 23.2 3.4 12.3 3.8 25.1 2.6 37.7-1.5 14.3-6.5 27.8-10.4 41.4-.5 1.7-.5 3.4-.4 5.1-.7.5-1.3 1-2 1.4-.7-3.3.1-6.7.8-9.9 1.8-7.4 3.8-14.8 6.2-22.1 4.4-15.5 7.1-32.3 3.1-48.2-2.4-10.3-6.4-20.5-13.4-28.6z"/><path class="st3" d="M-29.6 260.3c4.2-2.5 8.6-4.7 13.3-5.9 5.1-.1 10.3-1.1 15.3.5 10 3.1 19.7 7.1 29.1 11.9 7.2 3.8 14.3 8.1 20 14 4.7 5.1 8.2 11.2 11.8 17.1 9.4 16.3 17.9 33.2 25.9 50.2.7 1.4 1.7 2.7 2.7 3.9-.4.4-.9.8-1.3 1.3 5.3 4.8 9.8 10.4 14.6 15.8 1.6 2 3.8 4 3.6 6.8 0 4.8-1.4 9.5-2.6 14.1-1.4-4.5-.2-9.2-1.3-13.8-1.3-5.7-4.9-11.2-10.5-13.4-1.5-.5-3.6-1.2-4.9.2-1.9 1.3-1.7 3.8-2 5.8.5-.6 1.1-1.1 1.6-1.7.5 6.3.9 12.7-.3 19-.2-1.8-.4-3.5-.7-5.3-3.1 17.1-8.6 34.6-20.5 47.7-.1-1.7-.1-3.5.4-5.1 3.9-13.7 8.9-27.2 10.4-41.4 1.3-12.6.9-25.5-2.6-37.7 2.1-7.3-.8-14.5-3.4-21.1-4.5-10.8-9.8-21.6-17.8-30.3-13.4-15-31.7-24.6-50.1-31.9-7.3-3.3-15.4 0-22.2 3.1-4 2.2-9.2 3.5-11.1 8.1-4.2 8.4-6.1 17.8-8.2 27-1.3 4.2 1.5 8.3 4.7 10.8 5.6 4.3 12.2 6.7 18.8 9 5.7 2 12 2.5 16.9 6.3 3.2 2.5 6.5 5.3 8.1 9.1-5.1-3.8-9.8-8.5-16.2-10.1-9.7-2.4-19.2-5.5-28.7-8.4-3.8-1.1-7.4-3.2-11.4-3.9-3.3 1.2-6.1 3.3-9 5.1l1.2.4c-5.8 2.4-12.1 3.9-17.2 7.7-5.9 6.2-6.1 15.1-8 22.9-1.7 7.6-2.6 15.4-3.7 23.1-1.8 17.7-3.8 35.4-6.1 53-.5 3.1-.6 6.2-.6 9.3-1.5 2.6-3.4 4.9-4 7.9-.6-1.7-1-3.5-.5-5.2 6-30.8 10.3-62.5 6.9-93.9-1.3-17.3 3.4-34.5 11.4-49.7 4.3-7.6 9.4-15.2 16.7-20.3 8.3-4.5 17.1-8.2 26.1-11.1-3.8 6.7-8.4 13.4-9.1 21.3 4.1-8.1 7-17.1 14.5-22.2z"/><path class="st3" d="M20.7 299.9c4.6.4 8.9 2.4 13 4.3C43 308.4 51 314.8 59 320.9v.1c-.8 1.5-.3 3.1.5 4.5 7 13.3 7.2 28.8 6.3 43.3-4-7.5-8.2-14.8-12.6-22.1 2 .8 4.4 2.3 6.5.7 1.5-2.7.5-6.1-.2-8.9-4.3-12.9-13.9-23.6-25.1-31.1-4.3-2.9-9.3-4.7-13.7-7.5zM-53 320.7c1.9-1.2 3.7-2.6 6-2.9 4.6-.2 8.8 2.3 13.4 1.6 5.1 1.5 10 3.8 15.3 4.9 9.5 3 19.3 7.4 25.1 15.9 3.5 4.8 4.5 10.8 6.8 16.2 7.1 16.9 17.6 32.5 31 45 2.6 2.2 5.1 4.5 8.2 6 2.2 1.1 4.4-.5 6.5-1.2-1.5 6.8-4 13.3-5.8 20-1.4-2.1-2.8-4.3-5.1-5.5-2.3-1.1-4.2-3.8-6.9-3.2-4.3-3.8-7.5-8.6-11.5-12.6 1.1 2.4 2.2 4.8 3.4 7.2-4.4-3.5-7.1-8.5-10.2-13-12.5-20.2-24-41-37.4-60.6-2.1-3.2-4.5-6.3-7.8-8.3-9.4-6-20.5-7.5-31-9.5z"/><path class="st4" d="M-69.3 387c-1.2-1.9-1.9-4.6-4.4-5.1-.7 4.1 4.9 5 3.3 9.4.6.4 1.9 1.3 2.6 1.7-.6-2-1.2-4-1.5-6zm-3.8-7.6c1.8 1.9 5.2 3.1 3.9 6.3 1.5 0 3.1.1 4.6 0l.3-4.4c-2.9-.9-5.8-1.7-8.8-1.9z"/><path class="st1" d="M-55 384.6c-1.5-.9-3.3-1.2-5-1.7-2.7-.3-3.3-4-6-4.1-2.8-.6-6.1-.5-8.2-2.8-3.4-2.8.9-6.9.3-10.4-2.5 1-2.9 4.2-3.5 6.5-1.1 3.3 3.3 5.4 1.9 8.7-.2 1.5-1.5 3.4 0 4.6 2.1 1.8 3 4 4.9 6 .4.6 2.7 2.4 2.8 2.1.6-3.7-6.7-7.7-6-11.5 2.5.5 3.3 3.1 4.4 5.1.3 2 .9 4 1.4 6-.6-.4-1.9-1.3-2.6-1.7 2.3 5 6.8 8.6 10.7 12.3 4.4-1 9.3-1.8 13-4.5 2.1-4.1 5-8.1 5.6-12.7-4.4-1-9.5-.1-13.7-1.9zm-14.2 1c1.3-3.2-2.2-4.4-3.9-6.3 3 .3 6 1 8.9 1.9l-.3 4.4c-1.6.1-3.2.1-4.7 0z"/><path class="st3" d="M107.6 387.2c.2 0 .7.1.9.1 2.1 3.5 5.6 7.4 3.8 11.7-3.1 7.8-11.7 11.4-15.3 18.9-2.1 4.1-4.7 8.3-9.1 10.2 3-4.5 5.1-9.5 6.8-14.6 2.4-6.6 9.6-9.1 13.6-14.4 1.3-3.1-3.2-3.8-5.3-3.9 1.6-2.6 2.9-5.4 4.6-8zm-63.3 32.9c2.6 2.4 5.4 5.2 5.4 8.9-.2 4.7 0 9.5-1.3 14.1-.4-2.3-.6-4.7-.8-7.1-3.6 4.5-7.5 8.8-11.3 13.2-4.4 6.6-7.9 14.1-8.4 22.2l-4.2.9-.3-3c1.5-4.1 2.8-8.3 5-12.1 2.2-4.1 4.9-8 6.8-12.3 5.9-2.9 7.3-10.2 7.3-16.2.9 2.4 1.5 4.8 2.1 7.3 1.7-3.8 1.7-8.2-1-11.5.2-1.5.4-3 .7-4.4zm48.5 37.7c4.6-4.1 8.1-9.9 14.1-12 4.9-1.4 8.2 3 10.8 6.4-5.7 1.2-11.3 3.4-15.7 7.2-3-.8-6.1-1.3-9.2-1.6zm-174.9 1c6.1 1.7 11.2 5.6 17.1 8 .4-.1 1.2-.3 1.5-.4l.3-.1c8.2 5.6 18.7 9.1 23.3 18.6-1.3 1.5-2.8-.5-3.9-1.2-6.4-5.5-14.5-8.1-21.7-12.3.3-1 0-1.7-.9-2.2-5-3.7-11.4-5.7-15.7-10.4zm2 4.8c1.3.5 2.6.9 3.7 1.8 0 .3 0 .9-.1 1.3 7.1 4.8 14 10.1 21.6 14 2.9 1.5 6 3 7.9 5.8-2 .4-4.1.8-6.1 1.3-4.6-3.7-9.1-7.7-14-11-1.6-1.1-3.6-1.4-5.4-1.8-2.8-3.6-5.3-7.4-7.6-11.4zm-21.6 26.6c4.8-2.9 9.8-6.7 15.7-6.5 5 .2 8.2 4.5 10.3 8.5-11.9 2.4-23.8 5-35.8 7.1 2.5-3.8 6.1-6.6 9.8-9.1z"/><path class="st5" d="M-21.1 263.8c6.8-3 14.8-6.4 22.2-3.1 18.5 7.3 36.7 16.9 50.1 31.9 8 8.7 13.2 19.5 17.8 30.3 2.6 6.7 5.5 13.9 3.4 21.1-2.7-8.6-6.9-16.9-13.5-23.2-8-6.2-16-12.5-25.3-16.7-4.1-2-8.4-3.9-13-4.3 4.4 2.9 9.4 4.6 13.7 7.6 11.1 7.5 20.7 18.2 25.1 31.1.7 2.8 1.7 6.2.2 8.9-2 1.5-4.5.1-6.5-.7-2.2-2.9-4.5-5.8-7.3-8.1 1.7 3.9 4.5 7.2 6.5 10.9 4.1 7.7 7.8 15.8 10 24.3 1.2 4.4 2 9.1 1.3 13.7-1.1 6.3-2.3 12.5-4.3 18.6-2.1.7-4.3 2.2-6.5 1.2-3.1-1.4-5.6-3.8-8.2-6-13.4-12.5-23.9-28.1-31-45-2.3-5.4-3.3-11.4-6.8-16.2-5.7-8.5-15.6-12.9-25.1-15.9-5.3-1.1-10.1-3.4-15.3-4.9-4.2-1.5-8.3-3.1-12.5-4.2-3.4-1-6.6.9-9.7 1.9l-1.2-.4c2.9-1.8 5.8-3.9 9-5.1 4 .7 7.5 2.8 11.4 3.9 9.5 2.9 19 6.1 28.7 8.4 6.3 1.6 11.1 6.4 16.2 10.1-1.7-3.8-4.9-6.6-8.1-9.1-4.9-3.8-11.3-4.3-16.9-6.3-6.6-2.3-13.2-4.7-18.8-9-3.2-2.5-5.9-6.6-4.7-10.8 2.1-9.1 4-18.5 8.2-27 1.8-4.4 7-5.7 10.9-7.9zM86.1 363c1.3-1.4 3.4-.8 4.9-.2 5.6 2.2 9.2 7.7 10.5 13.4 1.1 4.5-.2 9.3 1.3 13.8l-.3 2c-1.1 2.3-2.3 4.5-2.4 7 1-1.2 2-2.5 2.9-3.8 2.1.1 6.6.8 5.3 3.9-4 5.3-11.2 7.8-13.6 14.4-1.6 5.1-3.8 10.1-6.8 14.6-2.8 2.1-5.8 4-8.9 5.8-3.1 1.7-5 5-8.2 6.6.1-2.2.4-4.4 1.2-6.5 2.7-7.6 6.1-15 10.3-21.9 2.8-4.6 4.6-9.9 4.6-15.3-1.5 3.2-2.1 7.1-4.9 9.5 1-6.8 2.8-13.4 3.4-20.3 1.2-6.3.8-12.7.3-19-.5.6-1.1 1.1-1.6 1.7.3-1.9.1-4.4 2-5.7zm-56.2 41.7c4 4 7.2 8.8 11.5 12.6 1 .9 1.9 1.8 2.9 2.8-.2 1.5-.5 2.9-.8 4.4-3.4-4.2-7.1-8.1-10.3-12.5-1.1-2.4-2.3-4.8-3.3-7.3zm8.4 21c1.5.8 2.9 1.7 4.2 2.9 0 6-1.4 13.3-7.3 16.2 1.3-4.9 2.6-9.9 2.7-15 0-1.3.2-2.7.4-4.1zm-110.7 49.2c1.8.4 3.8.7 5.4 1.8 4.9 3.3 9.4 7.3 14 11-1.9.5-3.8.8-5.8 1.1-4.3-4.8-9.5-8.8-13.6-13.9z"/></svg>