<?xml version="1.0" encoding="utf-8"?>
<!-- Generator: Adobe Illustrator 21.0.0, SVG Export Plug-In . SVG Version: 6.00 Build 0)  -->
<svg version="1.1" id="Layer_1" xmlns="http://www.w3.org/2000/svg" xmlns:xlink="http://www.w3.org/1999/xlink" x="0px" y="0px"
	 viewBox="0 0 518 500" style="enable-background:new 0 0 518 500;" xml:space="preserve">
<style type="text/css">
	.st0{fill:url(#SVGID_1_);}
	.st1{fill:url(#SVGID_2_);}
	.st2{fill:#F0F0F0;}
	.st3{fill:#F3C872;}
	.st4{fill:url(#SVGID_3_);}
</style>
<g id="_x23_2b2b2bff">
	<linearGradient id="SVGID_1_" gradientUnits="userSpaceOnUse" x1="0.4292" y1="250.3576" x2="294.2402" y2="250.3576">
		<stop  offset="0" style="stop-color:#4A4A4A"/>
		<stop  offset="1" style="stop-color:#000000"/>
	</linearGradient>
	<path class="st0" d="M118.32,10.33c7.49-7.59,19.14-12.11,29.54-8.15c3.94,1.06,6.85,4.73,11.09,4.75
		c9.69,0.48,19.39,0.93,29.09,1.4c3.44,0.16,6.69,1.43,9.84,2.72c9.26,3.84,17.99,9.16,25.12,16.26
		c11.66-0.96,23.36-1.98,35.06-1.26c4.99,0.09,8.14-4.39,9.8-8.55c6.42,11.87,9.91,25.93,6.81,39.3
		c-2.18,9.31-8.16,17.28-15.58,23.13c12.27,24.34,22.58,49.77,29.43,76.19c4.19,16.86,7.14,34.4,5.01,51.79
		c-0.41,7.2-1.2,14.39-2.93,21.4c-6.68,27.75-21.29,53.06-39.35,74.95c-21.33,25.81-47.6,47.16-75.69,65.21
		c-16.65,10.39-32.72,21.71-48.16,33.82c-20.91,16.62-41.14,34.56-57.09,56.12c-8.58,12.05-16.54,25.52-17.68,40.59h-0.35
		c0.02-0.12,0.05-0.35,0.07-0.47c-5.19-4.58-8.95-10.49-12.22-16.52c-9.32-17.67-12.01-38.24-10.11-57.95
		c2.59-26.7,12.71-52.07,25.57-75.39c16.84-30.31,38.44-57.72,61.76-83.29c3.49-3.67,7.41-7.23,9.06-12.18
		c2.26-5.84,0.37-12.49-3.41-17.24c-5.58-7-13.27-12-21.31-15.76c-7.88-3.67-14.17-10.67-16.85-18.96
		c-2.78-8.28-2.03-17.22-0.12-25.61c4.93,5.52,11.22,9.85,18.5,11.53c0.03-17.28,0.04-34.55-0.01-51.82
		c-8.38-8.15-16.37-16.73-24.93-24.66c-5.69-2.17-11.7-3.5-17.25-6.09c1.69,6.32,4.73,12.2,8.99,17.17
		c-18.65-3.01-35.16-14.51-46.26-29.55c-2.84-3.56-4.64-7.91-8.09-10.97C9.08,76.19,3.26,68.76,1.03,59.95
		c-0.37-2.3-1.53-5.46,0.91-7.04c14.43-12.65,33.14-19.83,52.09-21.94c2.99-0.42,6.08-0.23,9.02-0.99
		c5.83-3.92,10.35-9.66,16.34-13.32c10.16-1.47,20.39-2.5,30.59-3.76C112.84,12.44,116.27,12.83,118.32,10.33 M119.31,15.37
		c6.27-2.12,12.57-4.22,19.04-5.7c-5.29,4.37-11.61,7.35-16.68,12.01c-2.75,2.56-5.7,5.25-6.78,8.97c2.41,0.41,5.04-0.05,6.52-2.19
		c4.97-6.14,12.44-10.78,20.56-10.45c9.01,0.53,16.68,6.46,22.23,13.19c3.4-0.79,5.05-3.87,5.53-7.1
		c-8.87-7.61-19.3-14.55-31.24-15.59C131.42,7.83,124.64,10.95,119.31,15.37 M178.67,15.94c2.06,2.66,4.5,4.98,7.06,7.14
		c0.12-1.66,0.23-3.32,0.33-4.98C183.62,17.29,181.17,16.52,178.67,15.94 M188.85,20.99c6.68,5.14,13.38,10.34,18.97,16.7
		c1.1-3.03,2.03-6.12,2.98-9.2c-2.46-2.25-5.39-3.85-8.32-5.4c-0.1,1.88-1.78,2.94-2.87,4.25C196.27,24.83,192.71,22.6,188.85,20.99
		 M123.92,35.33c6.87,3.31,14.84,2.4,21.85,0.04c-3.49-3.81-8.23-7.93-13.82-6.72C128.24,29.34,125.91,32.41,123.92,35.33
		 M242.83,32.71c-11.11-2.08-23.61,0.18-31.97,8.18c2.11,2.34,4.11,4.79,6.08,7.25c5.72-4.71,12.47-9.18,20.16-9.16
		c4.53-0.48,7.49,4.02,11.92,4.07c6.54,0.88,12.46-2.65,17.54-6.31c-0.46,3.75-0.7,7.72-2.82,10.98
		c-3.36,5.95-9.67,9.11-15.44,12.25c4.85,0.44,9.55-1.09,14.36-1.41c-6.99,5.21-15.09,9.27-23.88,10.05
		c7.76,0.74,16.52-0.89,21.89-6.99c7.15-8.88,7.79-20.99,6.79-31.87C260.04,34.1,251.06,33.53,242.83,32.71 M47.13,42.49
		c3.32,3.18,6.53,6.47,9.8,9.69c-2.03,0.8-4.08,1.59-5.94,2.75C40.54,61.37,30.3,68.14,20.07,74.92c2.04,3.41,5.08,6,7.76,8.88
		c15.88-5.29,31.93-10.11,47.88-15.21c2.75-1.34,4.65-4.12,5.86-6.86c1.35-3.05-1.65-6.22-4.63-6.3c-4.54,0.03-9.07,0.34-13.61,0.56
		c-0.03-1.49-0.16-2.97-0.22-4.45c6.31-0.88,12.62-1.79,18.91-2.78c22.39,14.21,39.85,34.9,54.39,56.8
		c6.31,9.69,12.35,19.63,16.7,30.38c0.61,1.88,2.56,2.68,4.04,3.77c-3.64-10.79-9.42-20.71-15.51-30.29
		C131.35,93.56,119.45,78.78,106.53,65c7.15,2.65,14.03,5.91,20.76,9.48c-7.82-10.06-17.9-18.06-27.9-25.83
		c-3.18-2.17-5.99-5.26-9.94-5.98c-7.18-1.62-14.67-2.02-21.96-0.94c-4.86,0.9-9.63,2.21-14.46,3.24c4.52-2.27,8.46-5.57,13.05-7.69
		c8.13-2.73,16.86-2.55,25.29-3.59c-4.34-1.34-8.89-1.84-13.41-1.45C67.09,33.04,56.07,36.08,47.13,42.49 M102.28,38.18
		c10,5.93,19.19,13.04,28.37,20.14c-2.46-3.16-5.49-5.8-7.9-9c0.91-1.03,1.82-2.06,2.72-3.09c14.56,10.96,27.61,23.76,41.43,35.59
		c-0.02-2.33-2.19-3.61-3.56-5.18c-7.88-8.25-15.98-16.29-23.74-24.65c5.48,3.15,10.6,7.02,16.39,9.59
		c9.84,2.77,19.99,4.48,30.14,5.69c0.63-4.32,1.34-8.63,1.97-12.95c-9.32-5.54-19.76-8.81-30.03-12.11c-0.41-1.5-0.83-3-1.24-4.5
		c-2.63,0.3-5.24,0.66-7.84,1.14c3.02,2.84,6.12,5.59,9.11,8.46c-15.76-3.48-31.55-6.84-47.4-9.91c1.71,1.93,3.44,3.83,5.14,5.77
		C111.28,41.62,106.94,39.46,102.28,38.18 M29.58,44.36c-7.3,2.5-13.17,7.85-18.05,13.66c2.12,4.53,4.13,9.1,6.33,13.59
		c2.24-1.63,4.54-3.2,6.87-4.71c-0.41-2.29-1.03-4.54-1.34-6.84c2.25-5.36,7.88-9.07,13.65-9.47c2.79-0.15,5.5-0.83,8.14-1.67
		c-0.4-1.34-0.79-2.68-1.17-4.03C39.42,43.15,34.26,42.73,29.58,44.36 M227.82,67.77c-0.06,18.76,0.03,37.53-0.04,56.29
		c0.08,1.78-1.33,3.09-2.17,4.52c-4.67,6.69-8.87,13.72-13.8,20.22c-7.26,3.79-15.08,6.5-22.95,8.75c-2.32,0.85-5.2-0.12-5.82-2.69
		c-1.43-5.33,0.82-10.73,2.21-15.83c-6.35,2.15-12.18,5.72-17.17,10.19c-10.07,8.95-15.82,22.37-15.84,35.8
		c-0.06,5.31,2.28,10.99,7.05,13.7c5.09,2.94,11.25,3.06,16.94,2.4c-3.96-3.01-9.07-5.77-10.12-11.09
		c-0.39-4.02,3.11-6.94,6.25-8.76c13.67-7.95,27.3-15.96,40.98-23.89c1.32-0.64,2.18-1.83,2.97-3.01
		c5.35-7.95,10.83-15.81,16.15-23.78c0.56-19.96,0.55-39.95,1.31-59.9C231.8,69.7,229.81,68.72,227.82,67.77 M31.44,88.82
		c4.56,13.04,16.39,22.36,29.28,26.4c-4.01-3.98-6.87-9.03-7.81-14.62c3.38-0.02,6.75-0.03,10.13,0.01
		c6.56,4.95,14.79,6.66,22.65,8.37c-8.3-8.48-10.42-20.97-10.14-32.4C60.26,78.03,45.6,83.09,31.44,88.82 M244.93,215.91
		c-2.01,7.55-3.93,15.2-7.19,22.34c0.94-17.95-1.3-35.96-5.07-53.49c-5.05,40.63-17.49,80.72-39.11,115.66
		c-12.06,19.45-26.84,37.39-44.84,51.63c14.39-6.69,28.42-14.18,41.84-22.66c26.13-16.62,50.36-37.44,66.76-64
		c11.92-19.54,19.78-42.59,17.43-65.7c-4.76,18.18-14.16,34.9-25.87,49.5c9.17-23.65,14.62-48.82,15.09-74.21
		c0.42-26.25-3.38-52.95-13.67-77.24C254.78,137.05,254.34,177.32,244.93,215.91 M113.91,177.39c-0.13,5.7,1.01,11.3,2.44,16.79
		c-3.4,1.76-6.54,4.11-10.17,5.37c-7.1-1.65-12.67-6.74-17.62-11.8c0.51,13.23,10.46,24.58,22.47,29.15
		c10.02-0.54,19.36-7.08,23.97-15.91c2.13-4.06-0.16-9.06-4.05-11.06C124.8,186.42,119.18,182.1,113.91,177.39 M70.47,349.56
		c-16.89,26.52-27.36,57.81-26.07,89.47c0.1,10.06,2.09,19.95,3.94,29.8c0.36-1.51,0.73-3.02,0.99-4.54
		c3.81-27.01,9.45-53.8,17.31-79.93c6.93-22.94,15.85-45.43,28.65-65.76C85.62,327.68,77.67,338.46,70.47,349.56z"/>
	<linearGradient id="SVGID_2_" gradientUnits="userSpaceOnUse" x1="282.08" y1="261.0603" x2="517.4286" y2="261.0603">
		<stop  offset="0" style="stop-color:#4A4A4A"/>
		<stop  offset="1" style="stop-color:#000000"/>
	</linearGradient>
	<path class="st1" d="M303.81,197.48c13.37-0.01,26.74,0.01,40.12,0c22.7-0.2,45.43,1.14,67.92,4.27
		c14.88,2.08,29.53,6.01,43.27,12.12c10.21,4.45,19.82,10.4,27.92,18.08c13.94,12.17,24.55,28.2,29.78,45.99
		c4.52,15.07,5.64,31.12,3.69,46.72c-2.23-11.79-10.97-21.1-21-27.04c-16.53-9.88-35.63-14.25-54.44-17.34
		c-23.5-3.57-47.36-4.78-71.1-4.01c-29.3-0.05-58.59,0.03-87.89-0.03c11.44-20.64,19.9-43.51,20.87-67.28
		C303.3,205.14,303.68,201.32,303.81,197.48z"/>
</g>
<g id="_x23_f0f0f0ff">
	<path class="st2" d="M119.31,15.37c5.33-4.42,12.11-7.54,19.18-6.86c11.94,1.04,22.37,7.98,31.24,15.59
		c-0.48,3.23-2.13,6.31-5.53,7.1c-5.55-6.73-13.22-12.66-22.23-13.19c-8.12-0.33-15.59,4.31-20.56,10.45
		c-1.48,2.14-4.11,2.6-6.52,2.19c1.08-3.72,4.03-6.41,6.78-8.97c5.07-4.66,11.39-7.64,16.68-12.01
		C131.88,11.15,125.58,13.25,119.31,15.37z"/>
	<path class="st2" d="M178.67,15.94c2.5,0.58,4.95,1.35,7.39,2.16c-0.1,1.66-0.21,3.32-0.33,4.98
		C183.17,20.92,180.73,18.6,178.67,15.94z"/>
	<path class="st2" d="M188.85,20.99c3.86,1.61,7.42,3.84,10.76,6.35c1.09-1.31,2.77-2.37,2.87-4.25c2.93,1.55,5.86,3.15,8.32,5.4
		c-0.95,3.08-1.88,6.17-2.98,9.2C202.23,31.33,195.53,26.13,188.85,20.99z"/>
	<path class="st2" d="M242.83,32.71c8.23,0.82,17.21,1.39,24.63-2.96c1,10.88,0.36,22.99-6.79,31.87
		c-5.37,6.1-14.13,7.73-21.89,6.99c8.79-0.78,16.89-4.84,23.88-10.05c-4.81,0.32-9.51,1.85-14.36,1.41
		c5.77-3.14,12.08-6.3,15.44-12.25c2.12-3.26,2.36-7.23,2.82-10.98c-5.08,3.66-11,7.19-17.54,6.31c-4.43-0.05-7.39-4.55-11.92-4.07
		c-7.69-0.02-14.44,4.45-20.16,9.16c-1.97-2.46-3.97-4.91-6.08-7.25C219.22,32.89,231.72,30.63,242.83,32.71z"/>
	<path class="st2" d="M47.13,42.49c8.94-6.41,19.96-9.45,30.83-10.25c4.52-0.39,9.07,0.11,13.41,1.45
		c-8.43,1.04-17.16,0.86-25.29,3.59c-4.59,2.12-8.53,5.42-13.05,7.69c4.83-1.03,9.6-2.34,14.46-3.24
		c7.29-1.08,14.78-0.68,21.96,0.94c3.95,0.72,6.76,3.81,9.94,5.98c10,7.77,20.08,15.77,27.9,25.83c-6.73-3.57-13.61-6.83-20.76-9.48
		c12.92,13.78,24.82,28.56,35.11,44.42c6.09,9.58,11.87,19.5,15.51,30.29c-1.48-1.09-3.43-1.89-4.04-3.77
		c-4.35-10.75-10.39-20.69-16.7-30.38c-14.54-21.9-32-42.59-54.39-56.8c-6.29,0.99-12.6,1.9-18.91,2.78
		c0.06,1.48,0.19,2.96,0.22,4.45c4.54-0.22,9.07-0.53,13.61-0.56c2.98,0.08,5.98,3.25,4.63,6.3c-1.21,2.74-3.11,5.52-5.86,6.86
		c-15.95,5.1-32,9.92-47.88,15.21c-2.68-2.88-5.72-5.47-7.76-8.88c10.23-6.78,20.47-13.55,30.92-19.99
		c1.86-1.16,3.91-1.95,5.94-2.75C53.66,48.96,50.45,45.67,47.13,42.49z"/>
	<path class="st2" d="M102.28,38.18c4.66,1.28,9,3.44,13.56,4.99c-1.7-1.94-3.43-3.84-5.14-5.77c15.85,3.07,31.64,6.43,47.4,9.91
		c-2.99-2.87-6.09-5.62-9.11-8.46c2.6-0.48,5.21-0.84,7.84-1.14c0.41,1.5,0.83,3,1.24,4.5c10.27,3.3,20.71,6.57,30.03,12.11
		c-0.63,4.32-1.34,8.63-1.97,12.95c-10.15-1.21-20.3-2.92-30.14-5.69c-5.79-2.57-10.91-6.44-16.39-9.59
		c7.76,8.36,15.86,16.4,23.74,24.65c1.37,1.57,3.54,2.85,3.56,5.18c-13.82-11.83-26.87-24.63-41.43-35.59
		c-0.9,1.03-1.81,2.06-2.72,3.09c2.41,3.2,5.44,5.84,7.9,9C121.47,51.22,112.28,44.11,102.28,38.18z"/>
	<path class="st2" d="M29.58,44.36c4.68-1.63,9.84-1.21,14.43,0.53c0.38,1.35,0.77,2.69,1.17,4.03c-2.64,0.84-5.35,1.52-8.14,1.67
		c-5.77,0.4-11.4,4.11-13.65,9.47c0.31,2.3,0.93,4.55,1.34,6.84c-2.33,1.51-4.63,3.08-6.87,4.71c-2.2-4.49-4.21-9.06-6.33-13.59
		C16.41,52.21,22.28,46.86,29.58,44.36z"/>
	<path class="st2" d="M227.82,67.77c1.99,0.95,3.98,1.93,5.95,2.92c-0.76,19.95-0.75,39.94-1.31,59.9
		c-5.32,7.97-10.8,15.83-16.15,23.78c-0.79,1.18-1.65,2.37-2.97,3.01c-13.68,7.93-27.31,15.94-40.98,23.89
		c-3.14,1.82-6.64,4.74-6.25,8.76c1.05,5.32,6.16,8.08,10.12,11.09c-5.69,0.66-11.85,0.54-16.94-2.4c-4.77-2.71-7.11-8.39-7.05-13.7
		c0.02-13.43,5.77-26.85,15.84-35.8c4.99-4.47,10.82-8.04,17.17-10.19c-1.39,5.1-3.64,10.5-2.21,15.83c0.62,2.57,3.5,3.54,5.82,2.69
		c7.87-2.25,15.69-4.96,22.95-8.75c4.93-6.5,9.13-13.53,13.8-20.22c0.84-1.43,2.25-2.74,2.17-4.52
		C227.85,105.3,227.76,86.53,227.82,67.77z"/>
	<path class="st2" d="M31.44,88.82c14.16-5.73,28.82-10.79,44.11-12.24c-0.28,11.43,1.84,23.92,10.14,32.4
		c-7.86-1.71-16.09-3.42-22.65-8.37c-3.38-0.04-6.75-0.03-10.13-0.01c0.94,5.59,3.8,10.64,7.81,14.62
		C47.83,111.18,36,101.86,31.44,88.82z"/>
	<path class="st2" d="M244.93,215.91c9.41-38.59,9.85-78.86,5.37-118.17c10.29,24.29,14.09,50.99,13.67,77.24
		c-0.47,25.39-5.92,50.56-15.09,74.21c11.71-14.6,21.11-31.32,25.87-49.5c2.35,23.11-5.51,46.16-17.43,65.7
		c-16.4,26.56-40.63,47.38-66.76,64c-13.42,8.48-27.45,15.97-41.84,22.66c18-14.24,32.78-32.18,44.84-51.63
		c21.62-34.94,34.06-75.03,39.11-115.66c3.77,17.53,6.01,35.54,5.07,53.49C241,231.11,242.92,223.46,244.93,215.91z"/>
	<path class="st2" d="M113.91,177.39c5.27,4.71,10.89,9.03,17.04,12.54c3.89,2,6.18,7,4.05,11.06
		c-4.61,8.83-13.95,15.37-23.97,15.91c-12.01-4.57-21.96-15.92-22.47-29.15c4.95,5.06,10.52,10.15,17.62,11.8
		c3.63-1.26,6.77-3.61,10.17-5.37C114.92,188.69,113.78,183.09,113.91,177.39z"/>
	<path class="st2" d="M70.47,349.56c7.2-11.1,15.15-21.88,24.82-30.96c-12.8,20.33-21.72,42.82-28.65,65.76
		c-7.86,26.13-13.5,52.92-17.31,79.93c-0.26,1.52-0.63,3.03-0.99,4.54c-1.85-9.85-3.84-19.74-3.94-29.8
		C43.11,407.37,53.58,376.08,70.47,349.56z"/>
</g>
<g id="_x23_f3c872ff">
	<path class="st3" d="M123.92,35.33c1.99-2.92,4.32-5.99,8.03-6.68c5.59-1.21,10.33,2.91,13.82,6.72
		C138.76,37.73,130.79,38.64,123.92,35.33z"/>
</g>
<g id="_x23_c71624ff">
	<linearGradient id="SVGID_3_" gradientUnits="userSpaceOnUse" x1="56.64" y1="388.86" x2="515.5187" y2="388.86">
		<stop  offset="0" style="stop-color:#780A25"/>
		<stop  offset="1" style="stop-color:#E51B24"/>
	</linearGradient>
	<path class="st4" d="M393.41,277.72c25.95,0.71,52.09,3.3,77.07,10.64c12.99,4.05,26.17,9.5,35.78,19.47
		c6.44,6.87,10.64,16.59,8.84,26.09c-3.04,14.9-9.57,29.13-19.21,40.92c-10.26,12.74-23.85,22.48-38.48,29.64
		c-17.09,8.3-35.61,13.48-54.41,16.03c-25.19,3.52-50.67,1.89-76,2.27c-17.34-0.47-34.69-0.21-52.04-0.28
		c-32.77-0.01-65.53-0.02-98.29-0.03c-7.1,25.82-13.74,51.78-21.11,77.53H56.64l5.61-0.01c1.44-13.98,9.27-26.24,17.46-37.28
		c11.1-14.44,24.23-27.17,37.95-39.09c19.55-16.82,40.39-32.17,62.33-45.74c15.51-9.92,30.42-20.81,44.36-32.83
		c48.88,0.12,97.75-0.35,146.62-0.31c13.97,0.41,29.33-0.84,40.48-10.22c13.56-10.76,15.27-33.6,2.89-45.87
		C408.8,282.77,401.07,279.73,393.41,277.72z"/>
</g>
</svg>
