<?xml version="1.0" encoding="utf-8"?>
<!-- Generator: Adobe Illustrator 19.0.0, SVG Export Plug-In . SVG Version: 6.00 Build 0)  -->
<svg version="1.1" id="Layer_1" xmlns="http://www.w3.org/2000/svg" xmlns:xlink="http://www.w3.org/1999/xlink" x="0px" y="0px"
	 viewBox="-19.97 193.44 470.004 474.742" style="enable-background:new -19.97 193.44 470.004 474.742;" xml:space="preserve">
<style type="text/css">
	.st0{fill:#FFFFFF;}
	.st1{fill:#040707;}
	.st2{fill:#F8B516;}
</style>
<g id="_x23_ffffffff">
	<path class="st0" d="M351.22,292.38c3.34-12.48,3.67-25.46,4.76-38.27c1.62,7.15,0.83,14.49,1.06,21.75
		c-1.09,38.95-18.13,76.97-45.73,104.37c-4.3,4.12-8.32,8.58-13.21,12.04c2.44-5.77,3.85-11.98,4.12-18.23
		c3.27-3.98,8.19-6.38,11.53-10.39c10.45-9.66,18.51-21.59,25-34.19c1.41-2.96,2.6-6.01,4.03-8.96c0.59-1.7,1.12-3.43,1.96-5.04
		C347.34,307.91,349.88,300.27,351.22,292.38z"/>
	<path class="st0" d="M70,283.86c-0.37-9.65,1.39-19.19,2.71-28.7c0.6,8.23,0.15,16.49,0.27,24.73c1.46,18.72,5.7,37.35,13.63,54.43
		c9.92,22.23,25.56,41.71,44.41,57c6.26,5.93,13.87,10.24,21.43,14.3c0.49,0.25,1.46,0.76,1.94,1.01c1.08,0.5,2.14,1.02,3.22,1.52
		c1.37,0.68,2.78,1.31,4.18,1.93c1.14,4.09,3.29,7.78,5.49,11.37c1.08,1.5,2.08,3.02,3.11,4.56c-3.16-1.55-6.61-2.37-9.79-3.87
		c-2.74-1.15-5.45-2.36-8.16-3.57c-3.76-1.82-7.35-3.94-11.01-5.94c-23.75-14.34-43.47-35.37-55.68-60.32
		c-0.51-0.94-1.01-1.89-1.51-2.83c-1.42-2.96-2.58-6.04-3.98-9.01C73.38,322.45,69.49,303.17,70,283.86z"/>
	<path class="st0" d="M185.51,339.62c3.55-1.18,7.18-2.21,10.87-2.83c-2.32,1.75-5.34,2.23-7.78,3.81
		c-10.21,5.24-18.63,13.7-23.89,23.89c-1.29,2.44-2.46,4.95-3.11,7.64c-2.58-0.27-4.9-1.44-7.22-2.5c-2.87-1.41-5.62-3.11-8.67-4.1
		c3.71-5.73,9.42-10.05,15.03-13.86l0.47-0.57c1.08-0.63,2.15-1.28,3.21-1.94c2.07-1.18,4.08-2.45,6.2-3.54
		c2.54-1.27,5.18-2.3,7.75-3.51c1.4-0.5,2.8-1.01,4.21-1.51C183.53,340.19,184.51,339.86,185.51,339.62z"/>
	<path class="st0" d="M200.47,351.11c6.82-2.59,14.19-2.62,21.36-2.05c6.1,1.11,9.99,6.87,12.07,12.29
		c0.09,1.74,0.14,3.48,0.22,5.22c-1.74-3.32-3.64-6.83-7.09-8.65c-8.16-4.35-18.05-3.52-26.56-0.68
		c-10.74,3.99-18.16,13.68-22.5,23.93c-0.83,1.75-1.82,3.41-2.79,5.09c-0.84,1.9-1.25,3.94-1.59,5.98
		c-2.05-8.25,1.71-16.8,5.64-23.97c3.49-5.15,7.98-9.67,13.14-13.16C194.97,353.58,197.68,352.26,200.47,351.11z"/>
	<path class="st0" d="M238.67,357.76c0.51,0.38,1.52,1.14,2.02,1.52c6.17,7.77,8.08,18,7.35,27.73c-2.18-1.82-4.72-3.21-7.54-3.66
		c3.28-3.05,2.46-8.3,2.57-12.41C243.3,366.1,240.64,361.94,238.67,357.76z"/>
	<path class="st0" d="M234.29,383.31c0.04-0.02,0.14-0.06,0.19-0.08l-0.11,0.02L234.29,383.31z"/>
	<path class="st0" d="M228.41,385.08c1.7-0.7,3.46-1.26,5.33-1.34c-3.14,2.46-6.41,5.09-8.01,8.86c-4.21,8.58-0.12,19.99,8.25,24.38
		c2.7,1.54,5.81,2.07,8.72,3.07l0.96,0.61c-3.89,0.4-7.85,0.78-11.73,0.05c-6.28-1.95-11.6-7.06-13.19-13.52
		C216.03,398.73,220.8,389.21,228.41,385.08z"/>
	<path class="st0" d="M178.22,390.19c1.66-1.87,3.59-3.51,5.88-4.58c-2.16,10.1-2.28,21.58,3.73,30.46
		c5.78,9.52,16.79,13.88,27.06,16.68c-6.67,0.51-13.33-1.69-19.29-4.56c-1.45-0.77-2.85-1.62-4.23-2.5
		c-6.06-4.01-10.89-9.68-14.14-16.17c-1.28-2.78-2.54-5.61-3.19-8.61C174.56,397.04,176.07,393.43,178.22,390.19z"/>
	<path class="st0" d="M51.42,417.17c3.76-2.11,7.48-4.3,11.19-6.5c5.85,8.37,12.83,15.84,19.78,23.29
		c-3.58-0.77-7.17-1.51-10.78-2.12l-0.23-0.04c-3.06-2.57-6.38-4.89-8.86-8.08c-3.69,1.15-6.7,3.72-10.12,5.44
		c-7.84,4.66-15.81,9.09-23.56,13.9c0.65,1.4,1.25,2.82,1.88,4.24c1.17,2.43,2.53,4.77,4,7.03c1.72,2.97,3.9,5.65,5.62,8.63
		c-3.28-0.36-6.44-1.31-9.63-2.1l-0.44-0.11c-4.73-5.98-9.9-11.69-13.56-18.43c-0.75-1.3-1.41-2.65-1.91-4.06
		c1.97-0.87,3.82-1.96,5.63-3.09c2.12-1.08,4.08-2.45,6.18-3.56c4-2.33,8.02-4.64,12.02-6.98c2.35-1.29,4.61-2.75,6.98-4.01
		C47.55,419.48,49.47,418.31,51.42,417.17z"/>
	<path class="st0" d="M130.32,435.93c5.77,3.68,11.71,7.12,18.06,9.7c5.5,2.53,11.34,4.13,17.07,6.01
		c12.93,3.57,26.26,5.16,39.54,6.28c7.9-0.06,15.79-0.02,23.69-0.04c-9.65,3.58-19.85,5.54-29.65,8.69
		c-6.23-0.66-12.39-1.73-18.53-2.9c-6.45-1.75-12.91-3.55-19.12-6.02c-4.77-2.13-9.59-4.18-14.01-6.99
		c-6.46-3.88-12.3-8.72-17.33-14.33L130.32,435.93z"/>
	<path class="st0" d="M136.62,479.18c2.33-0.3,4.57,1.72,6.82,2.46c2.37,0.78,4.67,1.77,7.05,2.54c0.99,0.74,4.5,0.41,3.46,2.29
		c-2.62,0.99-5.09,2.32-7.55,3.65c-1.64,1.05-3.22,2.2-4.69,3.48c1.65,0.45,3.26,1.1,4.69,2.06c8.6,3.78,18.04,5.28,27.36,5.42
		c-11.61,3.57-24.47,4.09-35.97-0.18c-2.07,4.5-4.15,9.08-5.05,13.97c-0.11,4.24,2.79,7.76,5.03,11.11
		c5.01,7.44,12.22,12.98,19.53,18c-6.36-2.34-12.25-5.76-18.01-9.29c-6.92-4.42-13.65-9.48-18.36-16.33
		c0.45-1.67,0.94-3.33,1.32-5.02c0.5-0.94,0.84-1.93,1.02-2.98c0.36-1.01,0.69-2.02,1-3.04c1.26-2.91,2.03-6.02,3.48-8.85
		c0.61-1.69,1.19-3.4,1.97-5.01C132.04,488.71,133.87,483.7,136.62,479.18z"/>
	<path class="st0" d="M205,493.88c2.33,0.01,4.67,0.02,7.01,0.05c0,21.01-0.05,42.02,0.02,63.03c-0.93-0.45-1.86-0.89-2.8-1.31
		c-0.24-0.56-0.73-1.67-0.97-2.23c-2.29-7.38-6.23-14.84-13-18.99c-0.7,3.49-1.34,7-1.44,10.57c-3.46-4.35-6.21-10.07-12.04-11.62
		c2.75-4.27,6.11-8.15,8.57-12.61c2.14,0.15,4.19,0.75,6.25,1.32c2.94,1.41,6.02,2.68,8.4,4.99
		C204.75,516.02,205.11,504.95,205,493.88z"/>
	<path class="st0" d="M173.62,510.67c6.76-3.91,13.29-8.63,18.02-14.91l0.29,0.62c-1.35,1.52-2.25,3.35-3.17,5.14
		c-1.97,3.35-4.02,6.66-5.99,10.01c-0.53,0.84-1.09,1.65-1.7,2.44c-7.39,3.71-15.96,4.59-24.1,3.7c-0.22-0.13-0.65-0.39-0.87-0.52
		c4.1-1.33,8.37-2.15,12.3-3.97C170.15,512.36,171.89,511.51,173.62,510.67z"/>
	<path class="st0" d="M42.37,503.16c1.57-0.52,3.34-3.38,4.9-1.6c5.17,5.52,10.34,11.04,15.97,16.1c3.12,3.44,7.3,5.72,10.32,9.28
		c-4.71-0.99-9.11-3.03-13.77-4.17c-4.49-2.73-8.18-6.54-12.3-9.75c-1.13-0.28-1.95,0.91-2.89,1.33c-2.45,1.72-5.43,2.62-7.66,4.64
		c5.74,8.22,13.68,14.54,20.31,21.98c-4.2-1.83-8.4-3.68-12.67-5.32c-4.82-4.19-9.88-8.18-14.07-13.04
		c-1.04,0.49-2.07,1.02-3.11,1.52c-2.4,1.49-4.85,2.9-7.35,4.2c-0.6,1.28,0.41,2.34,1.15,3.28c4.63,6.09,9.77,11.76,15.08,17.26
		c-4.73-2.09-9.46-4.2-14.19-6.29c-3.22-2.33-5.64-5.55-8.38-8.37c-3.2-3.22-6.24-6.69-8.79-10.4c6.19-3.1,12.38-6.3,18.47-9.64
		C29.77,510.6,36.09,506.9,42.37,503.16z"/>
	<path class="st0" d="M138.1,548.91c0.82,0.43,1.65,0.85,2.48,1.27c1.46,0.87,3.04,1.58,4.71,1.97l-0.19,0.84
		c-1,4.45-2.76,8.69-3.83,13.13c-3.91,14.14-5.99,28.81-5.3,43.5c17.67,14.12,38.2,24,58.67,33.29c-1.48-0.28-2.9-0.79-4.32-1.25
		c-2.85-1.35-5.92-2.14-8.75-3.51c-1.4-0.5-2.79-1-4.17-1.5c-1.56-0.89-3.27-1.45-4.96-2.01c-2.3-1.1-4.7-1.98-7.02-3.01
		c-1.94-0.86-3.94-1.56-5.85-2.47c-2.71-1.18-5.44-2.33-8.14-3.53c-2.95-1.48-6.06-2.59-9.05-3.99c-3.6-1.8-7.39-3.21-10.99-5.02
		c-1.75-1.01-3.91-1.44-5.31-2.95C124.75,591.46,131.28,569.78,138.1,548.91z"/>
	<path class="st0" d="M179.55,593.6c9.92-4.3,20.71-6.88,31.54-6.88c13.42-0.75,26.99,1.48,39.33,6.87
		c4.75,1.91,8.86,5.02,13.39,7.3c0.41,0.25,1.23,0.76,1.64,1.01c-11.94-3.27-24.01-6.59-36.44-7.2c-7.57-1.43-15.29-0.57-22.94-0.84
		c-10.37,1-20.84,1.82-31,4.38c-1.54,0.47-3.16,0.61-4.75,0.34C173.16,596.5,176.39,595.11,179.55,593.6z"/>
	<path class="st0" d="M169.1,599.24l0.2-0.1c-0.09,0.05-0.27,0.17-0.36,0.22L169.1,599.24z"/>
	<path class="st0" d="M185.44,619.22c19.34-5.93,40.55-5.94,59.79,0.39c-9.72,0.63-19.49,0.11-29.23,0.28
		c-10.59-0.17-21.2,0.34-31.77-0.27L185.44,619.22z"/>
	<path class="st0" d="M195.41,643.35c0.06,0.03,0.16,0.1,0.22,0.13C195.57,643.45,195.47,643.38,195.41,643.35z"/>
</g>
<g id="_x23_040707ff">
	<path class="st1" d="M82.63,193.44c0.68,2.45,0.27,5.01,0.16,7.5c-0.6,7.28-0.5,14.6,0.02,21.88c0.5,5.98-0.35,12.05,0.95,17.96
		c1.01,17.41,4.17,34.67,8.48,51.61c1.93,6.04,3.83,12.1,6.02,18.05c1.99,4.36,3.83,8.78,5.99,13.07
		c4.69,8.95,10.55,17.27,17.48,24.62c2.65,2.84,6.03,4.84,8.76,7.6c9.86-11.66,23.12-20.17,37.11-26.11
		c1.26-0.5,2.54-0.95,3.78-1.49c5.31-2,10.78-3.53,16.3-4.81c9.82-2.52,16.61-11.14,20.6-20.01c0.87-1.57,1.45-3.27,1.99-4.98
		c1.81-4.95,3.59-10.04,4.01-15.33c0.37,0.45,1.09,1.33,1.45,1.77c1.12,6.11,3.02,12.06,5.51,17.74
		c3.76,8.51,9.69,16.91,18.79,20.15c6.47,1.95,13.25,3.08,19.4,5.97c1.41,0.45,2.81,0.94,4.19,1.48c3.64,1.77,7.31,3.47,10.83,5.49
		c9.35,5.24,17.93,11.99,24.94,20.12c4.01-3.79,8.78-6.8,12.04-11.34c3.08-3.39,5.77-7.09,8.33-10.88
		c2.49-3.92,4.76-7.97,6.98-12.04c1.34-3,2.59-6.04,4.01-9c0.57-1.71,1.14-3.44,2-5.03c1.96-5.99,4.14-11.92,5.52-18.08
		c3.58-13.06,5.76-26.54,7.12-39.95c1.04-3.44,0.29-7.06,0.87-10.56c1.38-6.92,0.39-14.01,0.9-21c0.54-8.09-0.55-16.18,0-24.27
		c0.87,1.91,1.61,3.88,2.59,5.75c0.51,1.38,1.02,2.77,1.51,4.16c0.99,1.87,1.65,3.88,2.45,5.84c1.04,2.69,1.78,5.51,3.14,8.07
		c0.07,0.5,0.23,1.5,0.31,2c2.53,6.49,4.51,13.25,6.08,20.05c3.55,12.2,5.28,24.89,6.77,37.44c-0.38,5.37,0.93,10.63,0.86,15.98
		c0.39,6.06-1.23,12-0.86,18.05c-1.32,10.21-2.65,20.56-5.76,30.45c-1.58,6.56-4.02,12.87-6.51,19.12
		c-1.77,3.95-3.45,7.95-5.48,11.77c-2.19,4.1-4.46,8.16-6.99,12.05c-4.64,7.43-10.19,14.23-16.04,20.73
		c-1.07,1.25-2.7,2.19-3.29,3.77c1.89,3.68,4.3,7.08,6.33,10.69c1.07,1.51,2.06,3.07,3.07,4.63c11.54-8.77,21.25-20.03,28.41-32.65
		c0.24-0.14,0.73-0.42,0.97-0.56c2.83,2,5.79,3.81,8.7,5.71c5.61,3.43,11.29,6.72,16.98,10c3.1,1.5,5.98,3.4,9.02,5
		c5.7,2.92,11.29,6.05,16.97,9.02c2.44,1.06,4.76,2.39,7.17,3.55c2.24,1.21,4.58,2.23,6.83,3.43c1.46,0.65,2.93,1.32,4.22,2.29
		c-0.99,3.17-1.78,6.43-3.34,9.39c-2.46,6.1-5.84,11.77-9.48,17.24c-7.44,10.76-16.42,20.34-26.07,29.13
		c-1.49,0.87-0.47,2.58,0.79,2.97c4.92,3.41,9.85,6.81,14.93,9.98c5.26,3.11,10.56,6.16,15.96,9.02c4.3,2.06,8.62,4.07,12.99,5.99
		c2.02,0.93,4.08,1.75,6.15,2.58c1.13,0.43,2.3,0.8,3.49,1.1c0.09,2.03-1.39,3.5-2.33,5.14c-11.24,17.06-25.41,31.96-40.44,45.7
		c-11.71,10.4-23.99,20.25-37.03,28.96l-0.45,0.57c-1.84,1.07-3.57,2.32-5.37,3.47c-2.22,1.56-4.56,2.96-6.81,4.47
		c-3.42,1.99-6.58,4.42-10.17,6.1c-1.04-2.58-2.4-5-3.68-7.45c-7.19-13.12-16.4-25.12-26.89-35.74c0.45,1.98,1.15,3.9,1.88,5.8
		c0.28,1.02,0.6,2.02,0.96,3.02c0.27,1.04,0.61,2.05,1.02,3.06c4.08,13.77,6.64,27.96,8.02,42.23c-9.32,4.76-18.6,9.65-28.13,13.98
		c-3.62,1.79-7.41,3.2-11.01,5.03c-2.07,0.84-4.14,1.66-6.2,2.5c-1.89,0.92-3.85,1.67-5.77,2.51c-2.1,0.78-4.2,1.58-6.26,2.49
		c-1.24,0.52-2.52,0.96-3.76,1.48c-1.39,0.52-2.77,1.04-4.16,1.53c-2.64,1.09-5.34,2.05-8.02,3.03c-0.96,0.37-1.93,0.7-2.91,0.99
		c-11.65,4.36-23.54,8.08-35.45,11.69c-2.94,0.98-5.76-0.6-8.57-1.26c-4.61-1.61-9.34-2.83-13.93-4.48c-6.7-2.2-13.43-4.39-20-6.97
		c-5.4-1.79-10.69-3.89-15.97-6c-1.67-0.66-3.36-1.29-5.01-2.01c-2.06-0.83-4.13-1.66-6.17-2.54c-1.92-0.87-3.91-1.58-5.83-2.46
		c-3.38-1.53-6.79-2.99-10.16-4.52c-0.51-0.26-1.52-0.76-2.03-1.02c-9.69-4.25-19.05-9.21-28.43-14.07
		c2.17-18.33,5.57-36.68,12.22-53.99c-3.96,2.88-6.47,7.22-9.92,10.65c-4.5,5.5-8.79,11.2-12.55,17.25
		c-2.92,4.88-6.15,9.72-8.04,15.11c-1.07-0.4-2.12-0.85-3.14-1.34c-8.54-5.3-16.91-10.88-25.17-16.61
		c-9.4-6.84-18.56-14-27.38-21.57c-8.33-7.66-17.12-14.93-24.3-23.74c-6.54-6.89-12.63-14.27-17.92-22.16l-0.58-0.47
		c-1.27-2.15-2.54-4.33-4.15-6.25c0-0.53-0.01-1.59-0.01-2.12c3.53-1.18,7.08-2.42,10.39-4.15c3.71-1.55,7.36-3.21,10.96-5.01
		c3.72-1.89,7.36-3.94,11-5.97c4.16-2.36,8.2-4.94,12.22-7.52c3.47-2.37,6.9-4.79,10.36-7.16c0.07-2.09-2.72-3.05-3.94-4.54
		c-9.94-9.49-19.1-19.94-26.31-31.68c-2.69-4.45-5.24-9.03-6.98-13.95c-1.06-2.36-1.72-4.87-2.6-7.3c1.35-1.03,2.91-1.73,4.46-2.39
		c0.95-0.5,1.89-1,2.84-1.5c1.07-0.48,2.12-0.99,3.18-1.48c1.92-1.12,3.92-2.1,5.95-3.02c5.02-2.66,10.03-5.34,15.04-8.01
		c0.5-0.25,1.49-0.75,1.98-1.01c3.04-1.61,5.99-3.39,9.02-4.99c2.64-1.43,5.21-2.97,7.81-4.45c3.37-1.96,6.76-3.89,10.03-6.01
		c1.42-0.79,2.77-1.68,4.16-2.52c2.04-1.33,4.04-2.72,6.14-3.95c7.19,12.96,16.97,24.63,28.86,33.5c3.02-5.28,6.97-10.31,9.3-15.81
		c-10.04-10-18.46-21.62-25.2-34.09c-0.24-0.5-0.71-1.5-0.94-2c-0.53-0.91-1.04-1.83-1.54-2.76c-0.58-1.38-1.23-2.73-1.98-4.02
		c-0.9-2.04-1.73-4.12-2.5-6.21c-0.81-1.62-1.44-3.31-1.99-5.02c-0.52-1.3-0.99-2.62-1.5-3.92c-0.2-1.05-0.56-2.04-1.09-2.96
		c-0.08-0.51-0.24-1.53-0.32-2.04c-4.25-12.88-6.49-26.47-7.15-39.98c-1.54-9.45-0.25-19,0.31-28.44
		c1.1-13.69,3.81-27.28,7.25-40.61c2.15-7.37,4.41-14.73,7-21.97c1.29-2.91,2.12-6,3.51-8.87c0.57-1.7,1.17-3.4,1.98-5.01
		C80.82,198.19,81.69,195.8,82.63,193.44 M73.32,251.9c-0.15,0.82-0.46,2.45-0.61,3.26c-1.32,9.51-3.08,19.05-2.71,28.7
		c-0.51,19.31,3.38,38.59,10.26,56.61c1.4,2.97,2.56,6.05,3.98,9.01c0.5,0.94,1,1.89,1.51,2.83c12.21,24.95,31.93,45.98,55.68,60.32
		c3.66,2,7.25,4.12,11.01,5.94c2.71,1.21,5.42,2.42,8.16,3.57c3.18,1.5,6.63,2.32,9.79,3.87c-1.03-1.54-2.03-3.06-3.11-4.56
		c-2.2-3.59-4.35-7.28-5.49-11.37c-1.4-0.62-2.81-1.25-4.18-1.93c-1.08-0.5-2.14-1.02-3.22-1.52c-0.48-0.25-1.45-0.76-1.94-1.01
		c-7.56-4.06-15.17-8.37-21.43-14.3c-1.43-5.39-3.09-10.76-3.37-16.38c-1.45-4.13-6.21-5.6-8.9-8.78
		C107.64,356,98.27,343.9,91.74,330.3c-9.51-18.42-14.37-38.9-16.69-59.39c-0.04-3.5-0.2-7-0.82-10.45
		C73.7,257.63,74.59,254.58,73.32,251.9 M355.98,254.11c-1.09,12.81-1.42,25.79-4.76,38.27c-1.34,7.89-3.88,15.53-6.48,23.08
		c-0.84,1.61-1.37,3.34-1.96,5.04c-1.43,2.95-2.62,6-4.03,8.96c-6.49,12.6-14.55,24.53-25,34.19c-3.34,4.01-8.26,6.41-11.53,10.39
		c-0.27,6.25-1.68,12.46-4.12,18.23c-9.07,7.27-19.25,13.08-29.89,17.73c-1.96,5.68-5.15,10.8-8.5,15.74
		c3.66-1.31,7.34-2.55,10.9-4.12c13.24-5.61,25.64-13.2,36.62-22.47c15.8-12.89,28.23-29.58,37.51-47.66
		c2.18-4.61,4.13-9.32,6-14.06c4.34-12.11,7.5-24.74,8.45-37.58c2.13-15.76,0.26-31.73-2.68-47.26
		C356.38,252.97,356.11,253.73,355.98,254.11 M185.51,339.62c-1,0.24-1.98,0.57-2.93,0.98c-1.41,0.5-2.81,1.01-4.21,1.51
		c-2.57,1.21-5.21,2.24-7.75,3.51c-2.12,1.09-4.13,2.36-6.2,3.54c-1.06,0.66-2.13,1.31-3.21,1.94l-0.47,0.57
		c-5.61,3.81-11.32,8.13-15.03,13.86c3.05,0.99,5.8,2.69,8.67,4.1c2.32,1.06,4.64,2.23,7.22,2.5c0.65-2.69,1.82-5.2,3.11-7.64
		c5.26-10.19,13.68-18.65,23.89-23.89c2.44-1.58,5.46-2.06,7.78-3.81C192.69,337.41,189.06,338.44,185.51,339.62 M233.37,337.25
		c2.47,0.81,4.88,1.77,7.23,2.89c7.29,4.05,14.23,9.14,19.13,15.99c3.66,4.9,7.25,10.24,8.46,16.34c5.68-1.58,10.63-4.91,16.11-6.99
		c-2.21-3.64-5.57-6.43-8.8-9.13c-9.09-7.58-19.76-13.13-31.01-16.74C240.81,338.81,237.2,336.77,233.37,337.25 M200.47,351.11
		c-2.79,1.15-5.5,2.47-8.1,4c-5.16,3.49-9.65,8.01-13.14,13.16c-3.93,7.17-7.69,15.72-5.64,23.97c0.34-2.04,0.75-4.08,1.59-5.98
		c0.97-1.68,1.96-3.34,2.79-5.09c2.91-2.53,5.46-5.6,9.09-7.15c2.99-1.76,6.45-2.07,9.74-2.91c2.25,11.53,16.57,17.93,26.88,12.61
		c6.03-3.46,11.12-9.84,10.44-17.15c-0.08-1.74-0.13-3.48-0.22-5.22c-2.08-5.42-5.97-11.18-12.07-12.29
		C214.66,348.49,207.29,348.52,200.47,351.11 M234.44,353.39c1.07,1.75,2.47,3.28,4.23,4.37c1.97,4.18,4.63,8.34,4.4,13.18
		c-0.11,4.11,0.71,9.36-2.57,12.41c-1.97-0.51-4.05-0.65-6.02-0.12c-0.05,0.02-0.15,0.06-0.19,0.08l-0.55,0.43
		c-1.87,0.08-3.63,0.64-5.33,1.34c-7.61,4.13-12.38,13.65-9.67,22.11c1.59,6.46,6.91,11.57,13.19,13.52
		c3.88,0.73,7.84,0.35,11.73-0.05l-0.96-0.61c1.44,0.08,3.03-0.24,3.94-1.47c2.35-2.79,4.33-5.88,6.11-9.06
		c4.22-8.87,5.63-19.2,3.1-28.76C253.09,369.12,245.04,358.91,234.44,353.39 M184.2,385.1l-0.1,0.51c-2.29,1.07-4.22,2.71-5.88,4.58
		c-2.15,3.24-3.66,6.85-4.18,10.72c0.65,3,1.91,5.83,3.19,8.61c3.25,6.49,8.08,12.16,14.14,16.17c1.38,0.88,2.78,1.73,4.23,2.5
		c5.96,2.87,12.62,5.07,19.29,4.56c4.41,0.68,8.79-0.85,13.02-1.9c3.38-1.35,7.24-2.31,9.75-5.11c-4.08,1.56-8.49,1.22-12.76,1.12
		c-7.31-0.93-13.66-5.55-17.89-11.43c5.25-4.77,6.24-12.61,4.51-19.18c-1.88-5.61-6.51-10.01-11.96-12.16
		c-2.8-0.57-5.65-1.72-8.54-1.03C188.71,383.61,186.47,384.42,184.2,385.1 M51.42,417.17c-1.95,1.14-3.87,2.31-5.81,3.45
		c-2.37,1.26-4.63,2.72-6.98,4.01c-4,2.34-8.02,4.65-12.02,6.98c-2.1,1.11-4.06,2.48-6.18,3.56c-1.81,1.13-3.66,2.22-5.63,3.09
		c0.5,1.41,1.16,2.76,1.91,4.06c3.66,6.74,8.83,12.45,13.56,18.43l0.44,0.11c10.57,11.57,22.65,21.67,35.23,30.98
		c-8.73-9.3-17.83-18.33-25.15-28.82l-0.45-0.06c-1.72-2.98-3.9-5.66-5.62-8.63c-1.47-2.26-2.83-4.6-4-7.03
		c-0.63-1.42-1.23-2.84-1.88-4.24c7.75-4.81,15.72-9.24,23.56-13.9c3.42-1.72,6.43-4.29,10.12-5.44c2.48,3.19,5.8,5.51,8.86,8.08
		l0.23,0.04c6.17,5.4,13.01,10.04,19.97,14.35c5.44,3.53,11.24,6.46,16.96,9.45l0.78-0.04c-9.48-6.39-18.04-13.97-26.55-21.56
		l-0.38-0.08c-6.95-7.45-13.93-14.92-19.78-23.29C58.9,412.87,55.18,415.06,51.42,417.17 M367.26,410.71
		c-12.55,17.8-29.19,32.12-46.51,45.1c17.06-8.13,32.85-18.95,46.72-31.76c0.29-0.02,0.88-0.05,1.17-0.06
		c10.76,6.43,21.7,12.56,32.42,19.06c-8.26,18.53-22.45,33.52-36.37,47.93c6.34-3.93,11.92-9,17.57-13.84
		c12.12-10.28,23.41-21.91,31.45-35.71c0.42-1,1.4-1.96,1.17-3.1C398.98,429.16,383.14,419.9,367.26,410.71 M238.26,425.24
		C238.7,425.73,238.7,425.73,238.26,425.24 M130.32,435.93l-0.28,0.4c5.03,5.61,10.87,10.45,17.33,14.33
		c4.42,2.81,9.24,4.86,14.01,6.99c6.21,2.47,12.67,4.27,19.12,6.02c6.14,1.17,12.3,2.24,18.53,2.9c23.47,1.9,47.54-0.14,69.55-8.93
		c11.7-4.97,23.19-11.6,31.26-21.64c-6.02,3.31-11.87,6.98-18.24,9.64c-5.54,2.44-11.37,4.08-17.09,6
		c-9.03,2.34-18.22,4.02-27.46,5.2c-2.81,0.2-5.8-0.36-8.37,1.04c-7.9,0.02-15.79-0.02-23.69,0.04
		c-13.28-1.12-26.61-2.71-39.54-6.28c-5.73-1.88-11.57-3.48-17.07-6.01C142.03,443.05,136.09,439.61,130.32,435.93 M136.62,479.18
		c-2.75,4.52-4.58,9.53-6.9,14.28c-0.78,1.61-1.36,3.32-1.97,5.01c-1.45,2.83-2.22,5.94-3.48,8.85c-0.31,1.02-0.64,2.03-1,3.04
		c-0.18,1.05-0.52,2.04-1.02,2.98c-0.38,1.69-0.87,3.35-1.32,5.02c4.71,6.85,11.44,11.91,18.36,16.33
		c5.76,3.53,11.65,6.95,18.01,9.29l0.73,0.15c4.05-3.03,6.83-7.33,10.05-11.17c4.6-6.13,9.07-12.39,12.99-18.99
		c0.61-0.79,1.17-1.6,1.7-2.44c1.97-3.35,4.02-6.66,5.99-10.01c0.92-1.79,1.82-3.62,3.17-5.14l-0.29-0.62
		c-4.73,6.28-11.26,11-18.02,14.91c-1.73,0.84-3.47,1.69-5.22,2.51c-3.93,1.82-8.2,2.64-12.3,3.97l-0.54-0.57
		c7.5-3.52,14.46-8.81,19.04-15.76l-0.84,0.26c-9.32-0.14-18.76-1.64-27.36-5.42c-1.43-0.96-3.04-1.61-4.69-2.06
		c1.47-1.28,3.05-2.43,4.69-3.48c2.46-1.33,4.93-2.66,7.55-3.65c1.04-1.88-2.47-1.55-3.46-2.29c-2.38-0.77-4.68-1.76-7.05-2.54
		C141.19,480.9,138.95,478.88,136.62,479.18 M275.85,485.29c0.06,0.29,0.17,0.89,0.22,1.19c4.24,1.87,8.4,3.97,12.02,6.9
		c-1.24,0.58-2.46,1.18-3.68,1.78c-9.06,4.24-19.23,6.06-29.2,5.74c4.85,6.91,11.79,11.99,19.1,16.05
		c-4.39-0.66-8.67-2.02-12.73-3.77c-8.65-3.58-16.14-9.39-22.75-15.94c2.3,4.78,5.3,9.19,7.98,13.76
		c7.43,11.71,15.07,23.45,24.86,33.33c6.08-2.16,11.71-5.35,17.26-8.59c7.57-4.81,15.25-10.04,20.15-17.74
		c-2.41-6.9-4.4-13.98-7.34-20.7c-2.63-6.34-5.53-12.56-8.79-18.59C287.42,481.32,281.7,483.53,275.85,485.29 M205,493.88
		c0.11,11.07-0.25,22.14,0,33.2c-2.38-2.31-5.46-3.58-8.4-4.99c-2.06-0.57-4.11-1.17-6.25-1.32c-2.46,4.46-5.82,8.34-8.57,12.61
		c5.83,1.55,8.58,7.27,12.04,11.62c0.1-3.57,0.74-7.08,1.44-10.57c6.77,4.15,10.71,11.61,13,18.99c0.24,0.56,0.73,1.67,0.97,2.23
		c0.94,0.42,1.87,0.86,2.8,1.31c2.15-0.05,4.3-0.08,6.46-0.15c0.58-0.3,1.74-0.89,2.31-1.19c0.5-1.43,0.98-2.87,1.42-4.31
		c2.56-6.65,6.33-13.24,12.61-16.99c0.11,3.67,1.15,7.23,1.3,10.9c3.08-4.62,6.21-10.08,11.89-11.75
		c-2.58-4.38-6.05-8.17-8.45-12.65c-5.35,0.32-10.48,2.72-14.56,6.14c-0.02-11.03,0-22.05-0.01-33.08
		c-4.33,0.01-8.66,0.07-12.99,0.05C209.67,493.9,207.33,493.89,205,493.88 M42.37,503.16c-6.28,3.74-12.6,7.44-18.98,11.01
		c-6.09,3.34-12.28,6.54-18.47,9.64c2.55,3.71,5.59,7.18,8.79,10.4c2.74,2.82,5.16,6.04,8.38,8.37c2.68,2.72,5.44,5.38,8.19,8.05
		c12.46,10.51,25.25,20.79,39.14,29.34c-11.19-9.97-22.33-20.03-32.69-30.9l-0.45-0.2c-5.31-5.5-10.45-11.17-15.08-17.26
		c-0.74-0.94-1.75-2-1.15-3.28c2.5-1.3,4.95-2.71,7.35-4.2c1.04-0.5,2.07-1.03,3.11-1.52c4.19,4.86,9.25,8.85,14.07,13.04
		c0.87,1.01,1.81,1.99,2.89,2.81c10.63,8.74,21.46,17.42,33.17,24.66c-3.13-3.43-6.48-6.67-10.13-9.54
		c-4.72-3.88-8.54-8.75-13.26-12.61c-6.63-7.44-14.57-13.76-20.31-21.98c2.23-2.02,5.21-2.92,7.66-4.64
		c0.94-0.42,1.76-1.61,2.89-1.33c4.12,3.21,7.81,7.02,12.3,9.75c11.09,8.8,23.81,15.31,36.64,21.16
		c-6.57-5.28-13.73-9.83-20.16-15.31c-0.84-0.67-1.6-1.54-2.71-1.68c-3.02-3.56-7.2-5.84-10.32-9.28
		c-5.63-5.06-10.8-10.58-15.97-16.1C45.71,499.78,43.94,502.64,42.37,503.16 M383.15,500.6c-14.09,16.91-31.83,30.22-49.51,43.14
		c4.06-1.55,7.91-3.6,11.78-5.58c13.45-6.71,25.93-15.34,37.11-25.37c3.51,2.26,7.46,3.83,10.69,6.53c-2.13,1.81-3.75,4.1-5.5,6.25
		c-13.2,13.62-26.68,26.99-41.09,39.31c19.23-11.99,36.68-26.63,53.07-42.2c3.23,1.51,6.11,3.71,9.36,5.23
		c2.29,0.9-0.08,3.04-0.79,4.22c-11.08,14.12-24.23,26.48-37.51,38.5c-2.98,3.54-7.17,5.77-10.07,9.36
		c23.91-15.67,46.37-33.96,64.56-56.11c-6.77-3.13-13.26-6.82-19.87-10.28C397.94,509.32,390.55,504.96,383.15,500.6 M165.26,555.28
		c-2.41,4.54-4.12,9.39-6.1,14.11c-0.08,0.49-0.25,1.48-0.34,1.98c-2.89,8.88-4.51,18.18-5.29,27.48c-2.32-2.42-1.16-5.97-1.76-8.95
		c-1.16-5.61-0.7-11.34-0.77-17.02c0.06-5.66-0.5-11.43,1.2-16.92c-2.36-0.95-4.46-3.07-7.1-2.97l0.19-0.84
		c-1.67-0.39-3.25-1.1-4.71-1.97c-0.83-0.42-1.66-0.84-2.48-1.27c-6.82,20.87-13.35,42.55-12.02,64.76c1.4,1.51,3.56,1.94,5.31,2.95
		c3.6,1.81,7.39,3.22,10.99,5.02c2.99,1.4,6.1,2.51,9.05,3.99c2.7,1.2,5.43,2.35,8.14,3.53c1.91,0.91,3.91,1.61,5.85,2.47
		c2.32,1.03,4.72,1.91,7.02,3.01c1.69,0.56,3.4,1.12,4.96,2.01c1.38,0.5,2.77,1,4.17,1.5c2.83,1.37,5.9,2.16,8.75,3.51
		c1.42,0.46,2.84,0.97,4.32,1.25l0.77,0.44c0.06,0.03,0.16,0.1,0.22,0.13c0.72,0.28,2.15,0.84,2.86,1.12
		c5.46,1.77,10.88,3.66,16.42,5.13c8.33-2.27,16.49-5.18,24.63-8.1c4.31-1.69,8.62-3.43,12.98-4.99c8.95-3.85,18.06-7.37,26.89-11.5
		c8.25-3.69,16.67-7.08,24.64-11.37c0.85-22.2-5.33-43.87-12.25-64.74c-1.08,0.54-2.16,1.06-3.23,1.61
		c-3.48,1.84-7.31,3.07-10.56,5.29c1.53,11.54,1.43,23.39,0.02,34.97c0.07,3.09-0.29,6.21-1.92,8.91
		c-0.15-12.14-3.36-24.07-7.35-35.48c-2.66-6.69-5.99-13.2-10.85-18.58c-10.23,0.89-16.73,9.99-22.56,17.43
		c-1.29-2.49-2.82-4.87-3.65-7.57c-3.39,3.3-5.35,7.74-6.74,12.19c-0.33,2.06-2.74,2.13-4.32,2.67c-4.91,0.72-10.34,1.03-14.91-1.25
		c-1.15-1.73-1.43-3.9-2.41-5.73c-1.23-2.86-2.87-5.52-4.96-7.83c-1.12,2.54-2.62,4.9-3.7,7.48c-2.59-2.76-4.52-6.06-7.34-8.61
		c-4.05-4.24-9.16-8.77-15.37-8.58C169.09,548.54,167.25,552.03,165.26,555.28z"/>
	<path class="st1" d="M181.41,574.89c22.39,0,44.79-0.01,67.19,0.01c7.13,6.85,12.2,15.62,15.57,24.87
		c-0.09,0.28-0.27,0.84-0.36,1.12c-4.53-2.28-8.64-5.39-13.39-7.3c-12.34-5.39-25.91-7.62-39.33-6.87
		c-10.83,0-21.62,2.58-31.54,6.88c-3.16,1.51-6.39,2.9-9.23,4.98l-1.02,0.56l-0.2,0.1l-0.16,0.12c-1.32,0.98-2.68,1.91-4.07,2.79
		c0.54-1.23,1.06-2.46,1.42-3.75C169.48,589.57,174.54,581.34,181.41,574.89z"/>
	<path class="st1" d="M182.77,620.08c6-7.88,15.55-12.58,25.2-14.12c7.09-0.27,14.4-0.74,21.17,1.81
		c6.65,2.43,13.44,6.15,17.34,12.27c-0.31-0.11-0.94-0.32-1.25-0.43c-19.24-6.33-40.45-6.32-59.79-0.39l-1.21,0.4
		C183.87,619.74,183.14,619.96,182.77,620.08z"/>
</g>
<g id="_x23_f8b516ff">
	<path class="st2" d="M73.32,251.9c1.27,2.68,0.38,5.73,0.91,8.56c0.62,3.45,0.78,6.95,0.82,10.45
		c2.32,20.49,7.18,40.97,16.69,59.39c6.53,13.6,15.9,25.7,27.01,35.86c2.69,3.18,7.45,4.65,8.9,8.78
		c0.28,5.62,1.94,10.99,3.37,16.38c-18.85-15.29-34.49-34.77-44.41-57c-7.93-17.08-12.17-35.71-13.63-54.43
		c-0.12-8.24,0.33-16.5-0.27-24.73C72.86,254.35,73.17,252.72,73.32,251.9z"/>
	<path class="st2" d="M355.98,254.11c0.13-0.38,0.4-1.14,0.53-1.52c2.94,15.53,4.81,31.5,2.68,47.26
		c-0.95,12.84-4.11,25.47-8.45,37.58c-1.87,4.74-3.82,9.45-6,14.06c-9.28,18.08-21.71,34.77-37.51,47.66
		c-10.98,9.27-23.38,16.86-36.62,22.47c-3.56,1.57-7.24,2.81-10.9,4.12c3.35-4.94,6.54-10.06,8.5-15.74
		c10.64-4.65,20.82-10.46,29.89-17.73c4.89-3.46,8.91-7.92,13.21-12.04c27.6-27.4,44.64-65.42,45.73-104.37
		C356.81,268.6,357.6,261.26,355.98,254.11z"/>
	<path class="st2" d="M233.37,337.25c3.83-0.48,7.44,1.56,11.12,2.36c11.25,3.61,21.92,9.16,31.01,16.74
		c3.23,2.7,6.59,5.49,8.8,9.13c-5.48,2.08-10.43,5.41-16.11,6.99c-1.21-6.1-4.8-11.44-8.46-16.34c-4.9-6.85-11.84-11.94-19.13-15.99
		C238.25,339.02,235.84,338.06,233.37,337.25z"/>
	<path class="st2" d="M234.44,353.39c10.6,5.52,18.65,15.73,21.41,27.37c2.53,9.56,1.12,19.89-3.1,28.76
		c-1.78,3.18-3.76,6.27-6.11,9.06c-0.91,1.23-2.5,1.55-3.94,1.47c-2.91-1-6.02-1.53-8.72-3.07c-8.37-4.39-12.46-15.8-8.25-24.38
		c1.6-3.77,4.87-6.4,8.01-8.86l0.55-0.43l0.08-0.06l0.11-0.02c1.97-0.53,4.05-0.39,6.02,0.12c2.82,0.45,5.36,1.84,7.54,3.66
		c0.73-9.73-1.18-19.96-7.35-27.73c-0.5-0.38-1.51-1.14-2.02-1.52C236.91,356.67,235.51,355.14,234.44,353.39z"/>
	<path class="st2" d="M200.47,357.24c8.51-2.84,18.4-3.67,26.56,0.68c3.45,1.82,5.35,5.33,7.09,8.65
		c0.68,7.31-4.41,13.69-10.44,17.15c-10.31,5.32-24.63-1.08-26.88-12.61c-3.29,0.84-6.75,1.15-9.74,2.91
		c-3.63,1.55-6.18,4.62-9.09,7.15C182.31,370.92,189.73,361.23,200.47,357.24z"/>
	<path class="st2" d="M184.2,385.1c2.27-0.68,4.51-1.49,6.82-2.04c2.89-0.69,5.74,0.46,8.54,1.03c5.45,2.15,10.08,6.55,11.96,12.16
		c1.73,6.57,0.74,14.41-4.51,19.18c4.23,5.88,10.58,10.5,17.89,11.43c4.27,0.1,8.68,0.44,12.76-1.12c-2.51,2.8-6.37,3.76-9.75,5.11
		c-4.23,1.05-8.61,2.58-13.02,1.9c-10.27-2.8-21.28-7.16-27.06-16.68c-6.01-8.88-5.89-20.36-3.73-30.46L184.2,385.1z"/>
	<path class="st2" d="M367.26,410.71c15.88,9.19,31.72,18.45,47.62,27.62c0.23,1.14-0.75,2.1-1.17,3.1
		c-8.04,13.8-19.33,25.43-31.45,35.71c-5.65,4.84-11.23,9.91-17.57,13.84c13.92-14.41,28.11-29.4,36.37-47.93
		c-10.72-6.5-21.66-12.63-32.42-19.06c-0.29,0.01-0.88,0.04-1.17,0.06c-13.87,12.81-29.66,23.63-46.72,31.76
		C338.07,442.83,354.71,428.51,367.26,410.71z"/>
	<path class="st2" d="M238.26,425.24C238.7,425.73,238.7,425.73,238.26,425.24z"/>
	<path class="st2" d="M71.61,431.84c3.61,0.61,7.2,1.35,10.78,2.12l0.38,0.08c8.51,7.59,17.07,15.17,26.55,21.56l-0.78,0.04
		c-5.72-2.99-11.52-5.92-16.96-9.45C84.62,441.88,77.78,437.24,71.61,431.84z"/>
	<path class="st2" d="M281.6,445.64c6.37-2.66,12.22-6.33,18.24-9.64c-8.07,10.04-19.56,16.67-31.26,21.64
		c-22.01,8.79-46.08,10.83-69.55,8.93c9.8-3.15,20-5.11,29.65-8.69c2.57-1.4,5.56-0.84,8.37-1.04c9.24-1.18,18.43-2.86,27.46-5.2
		C270.23,449.72,276.06,448.08,281.6,445.64z"/>
	<path class="st2" d="M30.71,460.86c3.19,0.79,6.35,1.74,9.63,2.1l0.45,0.06c7.32,10.49,16.42,19.52,25.15,28.82
		C53.36,482.53,41.28,472.43,30.71,460.86z"/>
	<path class="st2" d="M275.85,485.29c5.85-1.76,11.57-3.97,17.1-6.58c3.26,6.03,6.16,12.25,8.79,18.59
		c2.94,6.72,4.93,13.8,7.34,20.7c-4.9,7.7-12.58,12.93-20.15,17.74c-5.55,3.24-11.18,6.43-17.26,8.59
		c-9.79-9.88-17.43-21.62-24.86-33.33c-2.68-4.57-5.68-8.98-7.98-13.76c6.61,6.55,14.1,12.36,22.75,15.94
		c4.06,1.75,8.34,3.11,12.73,3.77c-7.31-4.06-14.25-9.14-19.1-16.05c9.97,0.32,20.14-1.5,29.2-5.74c1.22-0.6,2.44-1.2,3.68-1.78
		c-3.62-2.93-7.78-5.03-12.02-6.9C276.02,486.18,275.91,485.58,275.85,485.29z"/>
	<path class="st2" d="M212.01,493.93c4.33,0.02,8.66-0.04,12.99-0.05c0.01,11.03-0.01,22.05,0.01,33.08
		c4.08-3.42,9.21-5.82,14.56-6.14c2.4,4.48,5.87,8.27,8.45,12.65c-5.68,1.67-8.81,7.13-11.89,11.75c-0.15-3.67-1.19-7.23-1.3-10.9
		c-6.28,3.75-10.05,10.34-12.61,16.99c-0.44,1.44-0.92,2.88-1.42,4.31c-0.57,0.3-1.73,0.89-2.31,1.19c-2.16,0.07-4.31,0.1-6.46,0.15
		C211.96,535.95,212.01,514.94,212.01,493.93z"/>
	<path class="st2" d="M137.79,500.9c11.5,4.27,24.36,3.75,35.97,0.18l0.84-0.26c-4.58,6.95-11.54,12.24-19.04,15.76l0.54,0.57
		c0.22,0.13,0.65,0.39,0.87,0.52c8.14,0.89,16.71,0.01,24.1-3.7c-3.92,6.6-8.39,12.86-12.99,18.99c-3.22,3.84-6,8.14-10.05,11.17
		l-0.73-0.15c-7.31-5.02-14.52-10.56-19.53-18c-2.24-3.35-5.14-6.87-5.03-11.11C133.64,509.98,135.72,505.4,137.79,500.9z"/>
	<path class="st2" d="M383.15,500.6c7.4,4.36,14.79,8.72,22.23,13c6.61,3.46,13.1,7.15,19.87,10.28
		c-18.19,22.15-40.65,40.44-64.56,56.11c2.9-3.59,7.09-5.82,10.07-9.36c13.28-12.02,26.43-24.38,37.51-38.5
		c0.71-1.18,3.08-3.32,0.79-4.22c-3.25-1.52-6.13-3.72-9.36-5.23c-16.39,15.57-33.84,30.21-53.07,42.2
		c14.41-12.32,27.89-25.69,41.09-39.31c1.75-2.15,3.37-4.44,5.5-6.25c-3.23-2.7-7.18-4.27-10.69-6.53
		c-11.18,10.03-23.66,18.66-37.11,25.37c-3.87,1.98-7.72,4.03-11.78,5.58C351.32,530.82,369.06,517.51,383.15,500.6z"/>
	<path class="st2" d="M59.79,522.77c4.66,1.14,9.06,3.18,13.77,4.17c1.11,0.14,1.87,1.01,2.71,1.68
		c6.43,5.48,13.59,10.03,20.16,15.31C83.6,538.08,70.88,531.57,59.79,522.77z"/>
	<path class="st2" d="M44.58,535.65c4.27,1.64,8.47,3.49,12.67,5.32c4.72,3.86,8.54,8.73,13.26,12.61c3.65,2.87,7,6.11,10.13,9.54
		c-11.71-7.24-22.54-15.92-33.17-24.66C46.39,537.64,45.45,536.66,44.58,535.65z"/>
	<path class="st2" d="M22.09,542.58c4.73,2.09,9.46,4.2,14.19,6.29l0.45,0.2c10.36,10.87,21.5,20.93,32.69,30.9
		c-13.89-8.55-26.68-18.83-39.14-29.34C27.53,547.96,24.77,545.3,22.09,542.58z"/>
	<path class="st2" d="M165.26,555.28c1.99-3.25,3.83-6.74,6.69-9.33c6.21-0.19,11.32,4.34,15.37,8.58c2.82,2.55,4.75,5.85,7.34,8.61
		c1.08-2.58,2.58-4.94,3.7-7.48c2.09,2.31,3.73,4.97,4.96,7.83c0.98,1.83,1.26,4,2.41,5.73c4.57,2.28,10,1.97,14.91,1.25
		c1.58-0.54,3.99-0.61,4.32-2.67c1.39-4.45,3.35-8.89,6.74-12.19c0.83,2.7,2.36,5.08,3.65,7.57c5.83-7.44,12.33-16.54,22.56-17.43
		c4.86,5.38,8.19,11.89,10.85,18.58c3.99,11.41,7.2,23.34,7.35,35.48c1.63-2.7,1.99-5.82,1.92-8.91
		c1.41-11.58,1.51-23.43-0.02-34.97c3.25-2.22,7.08-3.45,10.56-5.29c1.07-0.55,2.15-1.07,3.23-1.61
		c6.92,20.87,13.1,42.54,12.25,64.74c-7.97,4.29-16.39,7.68-24.64,11.37c-8.83,4.13-17.94,7.65-26.89,11.5
		c-4.36,1.56-8.67,3.3-12.98,4.99c-8.14,2.92-16.3,5.83-24.63,8.1c-5.54-1.47-10.96-3.36-16.42-5.13c-0.71-0.28-2.14-0.84-2.86-1.12
		c-0.06-0.03-0.16-0.1-0.22-0.13l-0.77-0.44c-20.47-9.29-41-19.17-58.67-33.29c-0.69-14.69,1.39-29.36,5.3-43.5
		c1.07-4.44,2.83-8.68,3.83-13.13c2.64-0.1,4.74,2.02,7.1,2.97c-1.7,5.49-1.14,11.26-1.2,16.92c0.07,5.68-0.39,11.41,0.77,17.02
		c0.6,2.98-0.56,6.53,1.76,8.95c0.78-9.3,2.4-18.6,5.29-27.48c0.09-0.5,0.26-1.49,0.34-1.98
		C161.14,564.67,162.85,559.82,165.26,555.28 M181.41,574.89c-6.87,6.45-11.93,14.68-15.12,23.51c-0.36,1.29-0.88,2.52-1.42,3.75
		c1.39-0.88,2.75-1.81,4.07-2.79c0.09-0.05,0.27-0.17,0.36-0.22l1.02-0.56c1.59,0.27,3.21,0.13,4.75-0.34
		c10.16-2.56,20.63-3.38,31-4.38c7.65,0.27,15.37-0.59,22.94,0.84c12.43,0.61,24.5,3.93,36.44,7.2c-0.41-0.25-1.23-0.76-1.64-1.01
		c0.09-0.28,0.27-0.84,0.36-1.12c-3.37-9.25-8.44-18.02-15.57-24.87C226.2,574.88,203.8,574.89,181.41,574.89 M182.77,620.08
		c0.37-0.12,1.1-0.34,1.46-0.46c10.57,0.61,21.18,0.1,31.77,0.27c9.74-0.17,19.51,0.35,29.23-0.28c0.31,0.11,0.94,0.32,1.25,0.43
		c-3.9-6.12-10.69-9.84-17.34-12.27c-6.77-2.55-14.08-2.08-21.17-1.81C198.32,607.5,188.77,612.2,182.77,620.08z"/>
</g>
</svg>
