<?xml version="1.0" encoding="utf-8"?>
<!-- Generator: Adobe Illustrator 20.0.0, SVG Export Plug-In . SVG Version: 6.00 Build 0)  -->
<svg version="1.1" id="Layer_1" xmlns="http://www.w3.org/2000/svg" xmlns:xlink="http://www.w3.org/1999/xlink" x="0px" y="0px"
	 viewBox="0 0 551.6 263.5" style="enable-background:new 0 0 551.6 263.5;" xml:space="preserve">
<style type="text/css">
	.st0{fill:#21201D;}
</style>
<path class="st0" d="M264.6,226.5c1.5-6.2,26.5-67.5,13.5-130.5c-2.7-13.8,10.5-6.2,12.3-2c0,0,45.3,49.5,49.5,52
	c4.2,2.5,9.3,4.8,12.3-0.5s23.8-47,26.7-52c4.5-7.9,21.8-16.2,30,4.2c7.2,17.9,41.5,99.8-14.2,129.8c0,0,6.8-13,6.8-34
	s-12-38.8-12-38.8c-14.8,9.9-26.3,28.7-40.7,28.7c-17.3-4.9-38.5-28.8-46.8-33.3C302.1,150,303.1,194.6,264.6,226.5z"/>
<path class="st0" d="M536.4,103.3l-3.2,8c0,0-15-17.3-29.8-17.3c-14.8,0-33.7,27.2-33.7,63.3s21.7,40.2,28,40.2s29.5-2.5,46.5-27.3
	l7.3,6c0,0-35,40.3-75.5,40.3s-37.8-41.5-37.8-50.3c0-8.8,11.5-85.3,54.7-85.3C513.1,80.8,536.4,103.3,536.4,103.3z"/>
<path class="st0" d="M91.8,159.5c0,0,10-66.3,135-74.6c39,0,40.8,23.1,40.8,23.1s-0.8,38.2-58.5,61c0,0,31,9,31,26.5
	s-43,50.8-115.2,42.2c0,0-20.5,25.8-51,25.8c0,0,16.8-9.3,11.2-34.8c0,0,36-14.2,45-16.8s14.5-2.2,14.5-2.2l-3,10.2
	c0,0,63.5,3.5,63.5-23.2c0-13.8-33-15.2-33-15.2c-14.8,0-54,10-84,25.8c0,0,5-12.8,1.8-22c0,0,58.2-33.5,79.2-34.2
	c0,0,0.2,7.8-2.5,12.2c0,0,54.8-10.2,61-38.5c1.2-9.3-13.2-9-20.8-9S152.5,124.8,91.8,159.5z"/>
<path class="st0" d="M96.8,46C84-16.5,28.2,2.8,28.2,2.8c55.5-3.5,57.5,45.8,57.5,45.8c-5.5-0.5-12,5.2-12,5.2C40.8,4,0,49.3,0,49.3
	c50.2-33.5,64.2,16.3,64.2,16.3c-17.5,39-6.5,69.5-6.5,69.5c41.5-1.5,65-32.5,65-57.7S96.8,46,96.8,46z M87.2,103
	c0-16.8,1.2-37,14.8-37s14.2,12.5,14.2,16S117.2,98.8,87.2,103z"/>
</svg>
