<?xml version="1.0" encoding="utf-8"?>
<!-- Generator: Adobe Illustrator 19.0.0, SVG Export Plug-In . SVG Version: 6.00 Build 0)  -->
<svg version="1.1" id="Layer_1" xmlns="http://www.w3.org/2000/svg" xmlns:xlink="http://www.w3.org/1999/xlink" x="0px" y="0px"
	 viewBox="-151.9 333 177.7 176.8" style="enable-background:new -151.9 333 177.7 176.8;" xml:space="preserve">
<style type="text/css">
	.st0{fill:#AD2020;}
</style>
<g id="_x23_ad2020ff">
	<path class="st0" d="M-121.7,334.3c1.1-1.5,3-1.2,4.6-1.3c47.3,0,94.5,0,141.8,0c1.2,4.2,1.1,8.5,1,12.9c-0.2,7,0.6,14-1,20.8
		c-41.1,0.1-82.2-0.2-123.4,0.1c1.8,3.6,5.1,6,7.8,8.9c25.1,25.2,50.4,50.3,75.5,75.6c2.2,2,4.3,4.1,6.5,6.1
		c0.3-21.2,0-42.4,0.1-63.5c0.1-4.6-0.6-9.3,0.9-13.8c10.5,0.1,21.1-0.1,31.6,0.1c2.1,2.3,2,5.7,2.1,8.6
		c-0.2,29.2,0.2,58.4-0.2,87.6c-5.9,6.8-12.6,12.7-18.8,19.2c-4.7,4.6-9.2,9.5-14.1,13.9c-3.2,0.4-6.4,0.1-9.6,0.2c-41,0-82,0-123,0
		c-3.5,0-7.1,0.2-10.6-0.2c-1.8-0.9-1-3-1.2-4.6c0.1-9-0.1-17.9,0.1-26.9c-0.2-1.5,1.5-2.2,2.8-2c40.5-0.1,81.1,0.1,121.6-0.1
		c-0.7-1.2-1.3-2.5-2.3-3.5c-25.9-25.8-51.7-51.6-77.5-77.4c-3.3-3.3-6.4-6.7-9.9-9.7c-0.5,1.8-0.9,3.6-1,5.5
		c-0.1,23.6,0,47.3-0.1,70.9c-10.3,0.1-20.5,0.1-30.8,0c-1.3,0.2-3-0.5-2.8-2c0-30.6,0-61.2,0-91.9c-0.2-2.4,1-4.6,2.7-6.1
		C-139.9,352.6-130.8,343.4-121.7,334.3z"/>
</g>
</svg>
