<?xml version="1.0" encoding="utf-8"?>
<!-- Generator: Adobe Illustrator 19.0.0, SVG Export Plug-In . SVG Version: 6.00 Build 0)  -->
<svg version="1.1" id="Layer_1" xmlns="http://www.w3.org/2000/svg" xmlns:xlink="http://www.w3.org/1999/xlink" x="0px" y="0px"
	 viewBox="94.029 16.66 751.514 809.83" style="enable-background:new 94.029 16.66 751.514 809.83;" xml:space="preserve">
<style type="text/css">
	.st0{fill:#9900BE;}
	.st1{fill:#DCDCDC;}
	.st2{fill:#FF00F0;}
	.st3{fill:#E9E9E9;}
	.st4{fill:#EFEFEF;}
</style>
<g id="_x23_9900beff">
	<path class="st0" d="M630.93,18.99c2.4-1.08,5-1.64,7.55-2.33C576.23,51.71,514.83,88.3,454.06,125.8
		c-0.3,181.35-0.05,362.73-0.13,544.09c-0.09,49.8,0.18,99.61-0.14,149.4c-3.74-19.74-6.38-39.68-9.67-59.5
		c-12.67-80.32-25.36-160.65-38.02-240.97c-0.69-4.98-1.9-9.9-1.98-14.94c0.02-127.96-0.01-255.91,0.02-383.87
		c71.03-31.64,142.17-63.04,213.24-94.59C621.92,23.35,626.64,21.61,630.93,18.99z"/>
	<path class="st0" d="M312.83,163.69c29.64-15.75,59.8-30.55,90.66-43.77c-13.64,20.59-27.45,41.07-41.31,61.51
		c-35.32,22.14-71.45,43.37-103.88,69.74c-14,11.59-27.5,24.17-37.58,39.42c-9.18,13.73-14.86,30.53-12.32,47.16
		c2.51,17.7,12.9,33.09,24.97,45.79c7,7.41,14.84,13.94,22.79,20.27c-2.03-0.69-4.25-0.99-6.08-2.13c-1.3-1-2.65-1.95-4.18-2.55
		c-8.4-3.52-16.19-8.32-23.61-13.55c-22.87-16.47-42.3-37.24-59.73-59.27c-4.78-5.64-6.93-13.11-7.16-20.41
		c-0.22-9.52,3.07-18.74,7.65-26.95c5.83-10.39,13.61-19.54,21.94-28c13.04-13.13,27.6-24.65,42.63-35.41
		C254.74,196.25,283.52,179.41,312.83,163.69z"/>
</g>
<g id="_x23_dcdcdcff">
	<path class="st1" d="M320.19,26.39c-4.82-2.53-9.81-4.99-14.3-8.09c37.09,12.39,74.37,24.23,111.42,36.76l0.91-0.34
		c0.11,0.22,0.31,0.65,0.41,0.86c-4.59,1.7-9.24,3.27-13.79,5.08l-0.29-0.15c-12-5.69-24.53-10.18-36.71-15.45
		c-11.37-4.58-22.65-9.39-34-14.03C329.34,29.36,325.09,26.75,320.19,26.39z"/>
	<path class="st1" d="M556.57,104.12c32.1,12.71,64.37,25.09,95.92,39.15c33.97,14.92,67.51,30.93,99.49,49.8
		c17.31,10.23,34.24,21.21,49.83,33.95c11.55,9.41,22.47,19.81,31.12,32.01c6.86,9.66,12.05,20.93,12.61,32.92
		c0.14,12.79-5.89,24.84-14.05,34.39c-12.39,14.45-28.37,25.23-44.79,34.6c-27.01,15.1-55.95,26.37-85.15,36.44
		c-4.83,1.7-9.65,3.47-14.66,4.53c1.64-0.86,2.85-2.41,4.55-3.13c1.61-0.5,3.3-0.89,4.81-1.69c23.95-13.44,45.74-30.47,65.65-49.31
		c11.5-9.56,21.31-22.65,22.9-37.93c1.6-13.57-3.3-26.99-10.4-38.35c-5.37-8.4-11.47-16.4-18.59-23.4
		c-21.79-22.51-47.9-40.26-74.5-56.55c-15.1-9.14-30.54-17.74-46.24-25.8c-11.44-6.55-23.65-11.55-35.4-17.5
		c-12.44-5.69-24.89-11.36-37.51-16.65C560.59,122.39,558.4,113.29,556.57,104.12z"/>
	<path class="st1" d="M486.5,157.9c0.07-4.41-0.18-8.82,0.14-13.22c16.09,4.85,32.25,9.6,48.5,13.85
		c-0.42,14.78-0.02,29.56-0.11,44.35c0.18,17.67-0.31,35.36,0.63,53.01c0.13,57.31,0.35,114.63,0.42,171.95
		c-0.24,8.36,0.83,16.7,0.6,25.06c0,26.35,0.18,52.69,0.2,79.04c-0.05,2.95-0.54,5.88-1.12,8.78
		c-15.44,89.11-30.97,178.21-46.45,267.31c-0.04,1.18,0.01,2.36,0.14,3.56c-0.35,4-1.76,7.92-2.91,11.79
		C486.44,601.55,486.52,379.72,486.5,157.9z"/>
</g>
<g id="_x23_ff00f0ff">
	<path class="st2" d="M514.9,57.08c38.59-12.94,77.24-25.73,116.03-38.09c-4.29,2.62-9.01,4.36-13.55,6.43
		c-71.07,31.55-142.21,62.95-213.24,94.59c-0.03,127.96,0,255.91-0.02,383.87c0.08,5.04,1.29,9.96,1.98,14.94
		c12.66,80.32,25.35,160.65,38.02,240.97c3.29,19.82,5.93,39.76,9.67,59.5c0.36,2.38,0.36,4.85-0.24,7.2
		c-29.29-106.58-59.11-213.02-88.6-319.54c-0.85-3.66-2.41-7.19-2.67-10.95c-0.09-104.86,0.1-209.72-0.1-314.57
		c13.86-20.44,27.67-40.92,41.31-61.51c-30.86,13.22-61.02,28.02-90.66,43.77c-29.31,15.72-58.09,32.56-85.21,51.85
		c-15.03,10.76-29.59,22.28-42.63,35.41c-8.33,8.46-16.11,17.61-21.94,28c-4.58,8.21-7.87,17.43-7.65,26.95
		c0.23,7.3,2.38,14.77,7.16,20.41c17.43,22.03,36.86,42.8,59.73,59.27c7.42,5.23,15.21,10.03,23.61,13.55
		c1.53,0.6,2.88,1.55,4.18,2.55c-22.97-7.16-45.54-15.71-67.55-25.43c-20.87-9.47-41.35-20.29-59.26-34.7
		c-12.4-10.18-24.07-22.81-28.03-38.78c-2.95-11.35-0.22-23.39,5.03-33.63c5.63-11.09,13.82-20.63,22.56-29.37
		c17.75-17.09,38.15-31.15,59.19-43.85c35.8-21.49,73.57-39.49,111.85-56.09C366.14,108.64,440.37,82.27,514.9,57.08z"/>
</g>
<g id="_x23_e9e9e9ff">
	<path class="st3" d="M320.19,26.39c4.9,0.36,9.15,2.97,13.65,4.64c11.35,4.64,22.63,9.45,34,14.03
		c12.18,5.27,24.71,9.76,36.71,15.45c-5.22,2-10.43,4.06-15.75,5.77c-20.51-11.97-40.97-24.06-61.65-35.74
		C324.81,29.19,322.39,27.97,320.19,26.39z"/>
	<path class="st3" d="M535.14,158.53c8.95-9.04,17.92-18.05,27.02-26.93c12.62,5.29,25.07,10.96,37.51,16.65
		c11.75,5.95,23.96,10.95,35.4,17.5c15.7,8.06,31.14,16.66,46.24,25.8c26.6,16.29,52.71,34.04,74.5,56.55
		c7.12,7,13.22,15,18.59,23.4c7.1,11.36,12,24.78,10.4,38.35c-1.59,15.28-11.4,28.37-22.9,37.93
		c-19.91,18.84-41.7,35.87-65.65,49.31c-1.51,0.8-3.2,1.19-4.81,1.69c7.18-6.58,14.67-12.92,20.82-20.53
		c11.5-13.41,20.73-30.21,20.29-48.34c0.64-14.27-5.1-27.99-12.74-39.75c-10.73-16.26-25.32-29.44-40.32-41.68
		c-30.02-23.78-62.77-43.76-95.33-63.81c-2.21-1.41-4.44-2.86-6.94-3.7c0.55,22.64,0.09,45.3,0.24,67.94
		c-0.06,82.24,0.13,164.49-0.09,246.72c-10.05,37.82-20.92,75.43-31.24,113.19c-18.83,67.84-37.74,135.65-56.49,203.52l-0.19-0.75
		c-0.13-1.2-0.18-2.38-0.14-3.56c15.48-89.1,31.01-178.2,46.45-267.31c0.58-2.9,1.07-5.83,1.12-8.78
		c-0.02-26.35-0.2-52.69-0.2-79.04c0.23-8.36-0.84-16.7-0.6-25.06c-0.07-57.32-0.29-114.64-0.42-171.95
		c-0.94-17.65-0.45-35.34-0.63-53.01C535.12,188.09,534.72,173.31,535.14,158.53z"/>
</g>
<polygon class="st4" points="486.64,144.68 556.57,104.12 562.16,131.6 535.14,158.53 "/>
</svg>
