<?xml version="1.0" encoding="utf-8"?>
<!-- Generator: Adobe Illustrator 19.0.0, SVG Export Plug-In . SVG Version: 6.00 Build 0)  -->
<svg version="1.1" id="Layer_1" xmlns="http://www.w3.org/2000/svg" xmlns:xlink="http://www.w3.org/1999/xlink" x="0px" y="0px"
	 viewBox="-94.4 246.6 403.7 348.8" style="enable-background:new -94.4 246.6 403.7 348.8;" xml:space="preserve">
<style type="text/css">
	.st0{fill:#FFFFFF;}
	.st1{fill:#F05623;}
	.st2{fill:#050708;}
</style>
<g>
	<path class="st0" d="M296.9,409.1c-1.7-3.3-3.3-6.8-4.7-10.1c-1.2-2.8-2.5-5.6-3.8-8.3c-1.3-2.8-3.6-4.8-6.2-5.5
		c-1.9-0.6-3.9-1.1-5.8-1.6c-4.6-1.2-9.3-2.5-13.6-4.4c-0.5-0.2-1-0.5-1.4-0.7c1.6-0.1,3.1-0.2,4.7-0.2c1.5-0.1,3-0.2,4.5-0.2l5-0.3
		l-3.8-3.3c-3.2-2.8-7.1-3.8-10.9-4.9c-2.6-0.7-5.2-1.4-7.3-2.6c0.7,0,1.4-0.1,2.2-0.1l3-0.1l-1.3-2.7c-0.2-0.5-0.5-1-0.7-1.5
		c-1.2-2.6-2.5-5.6-5.2-7.5c-2.3-1.6-4.8-2.7-7.2-3.8c-0.7-0.3-1.5-0.7-2.2-1c-2.8-6.7-6.4-13.5-10.9-20.7c-2.4-4-6.7-5.5-10.5-6.8
		c-0.4-0.2-0.9-0.3-1.3-0.5l-1.5-0.5c-8.5-3.1-17.3-6.3-26.6-7.7c-1.5-0.2-3-0.3-4.6-0.3c-3.7,0-6.6,0.8-8.9,2.5l-1.2,0.8
		c-4.9,3.4-9.9,6.9-15.6,6.9c-0.3,0-0.6,0-0.9,0l-0.1,0l-0.3,0c-3.3,0-6.2-1.8-9.3-3.7c-3.4-2.1-6.8-4.2-11.1-4.3
		c-1-0.1-2-0.1-3-0.1c-8.1,0-16,1.8-23.7,3.6l-4.1,0.9l3.3,2.6c5.2,4.1,9.5,9.7,14.1,18.3c0.2,0.4,0.4,0.7,0.7,1.1
		c2.3,3.9,5.4,9.2,11.4,9.2l0.6,0l0.5-0.4c1.8-1.2,2.3-3.1,2.7-4.6c0.1-0.5,0.3-1,0.4-1.4l0.5-1.3l-1-0.9c-2.6-2.3-4.7-5.6-6.1-9.6
		c2.2,0.9,4.6,1.6,7.1,1.6l0.3,0c0.4,0,0.9,0,1.3,0c2.4,0,4.5,0.2,6.3,0.6C143,349.9,139,365,139,379.1l0,0.1l0,0.1
		c0.2,1.2,0.3,2.3,0.4,3.6c0.4,4.3,0.8,8.8,3.2,12.7c4.8,8.6,8.9,17.1,12,25.4c0.9,2.2,0,4.9-0.8,7.5l-0.2,0.5
		c-2.6,7.5-7,14.8-14.1,23.6l-2.4,2.9l5,0.4c4.4,0.4,9,0.7,12.8,2.7c-3.2,6.1-6.2,12.4-9,18.5c-4.6,9.8-9.4,19.9-15.1,29.2
		c-11.5,18-13.5,40.8-5,58l2.6,5.3l1.2-5.8c0.8-3.9,1.8-7.3,3.1-10.4c0.2,8.2,1.3,16.8,5.1,24.6l2.5,5.1l1.2-5.6
		c1.3-6.1,4-11.9,7.7-16.9c6.1-8.1,14.5-14.3,22.6-20.3l3.3-2.5l-1.1-1.6c-10.8-15.2-15.7-28.7-15-41.4c0.6-3.2,2.7-6.2,4.7-9
		c0.4-0.5,0.7-1,1-1.5c12.8-16.6,27.5-31.7,43.8-44.8c1.7-1.4,3.6-2.7,5.5-4c3.4-2.3,7-4.8,9.7-8.2l0.1-0.2l0.1-0.2
		c1.7-3.4,3.4-6.1,5.3-8.3c0.2,1.8,0.6,3.7,1.6,5.4c0.4,0.7,0.8,1.4,1.2,2.1c1.8,3.3,3.8,7,8,8.6c1.3,0.6,2.5,1.2,3.8,1.8
		c6.2,2.9,12.6,5.9,19.6,7.2l0.2,0c0,0,0.5,0,0.6,0c6.7,0,13.8-4.8,17.2-11.6l0.1-0.3l0-0.3c1.5-9.4,0.2-16.3-3.8-21.2
		c-2.5-3.3-4-6.4-4.7-9.3c2.4,2.6,5,5.1,8.3,7c3.1,1.6,6.4,2.3,9.6,2.9c1.2,0.2,2.4,0.5,3.6,0.8l4.3,1.1L296.9,409.1z M226.3,369.1
		l1.8-1.5l-1.7-1.6c-5.3-4.8-11.5-9.3-19.2-14c3.2-1.3,6.5-2.4,9.6-2.4c2.1,0,3.9,0.5,5.5,1.5c5.2,3.6,10,8.2,14.6,12.5
		c0.4,0.4,0.9,0.8,1.3,1.3c-6.1,2-12.1,5.5-17.8,10.7C221.9,373.2,223.9,371,226.3,369.1z"/>
	<path class="st0" d="M248.7,444.2c-1.9-0.8-3.9-1.6-5.8-2.4l-2.3-1l-0.5,2.4c-1.6,8.1-4.8,15.7-7.9,22.7l-2.1,4.6l4.7-2
		c10.4-4.4,18.4-10.3,23.7-17.6l1.5-2l-2.3-1C254.6,446.7,251.6,445.5,248.7,444.2z"/>
	<path class="st0" d="M188.3,513.2c-6.7,0-12.6-0.3-18.1-1l-3.2-0.4l1.1,3c1.9,5.4,4.1,9.5,7,12.8l0.9,1l1.3-0.5
		c7.5-2.7,16.3-6.2,24-11.7l5.4-3.9l-6.7,0.2C195.5,513.1,191.7,513.2,188.3,513.2z"/>
</g>
<g>
	<path class="st1" d="M210.3,308.5c-6-10.6-8-23.3-5.4-34.8l0.8-3.6l-3.5,1.3c-6.1,2.3-10.6,4.8-14.3,8l-1,0.9l0.4,1.3
		c0.4,1.4,0.8,2.8,1,4.3c-4.4-8-10.1-15.1-16.6-20.7c-11.1-9.2-25.9-10.4-37.7-10.4c-8.7,0.3-17.9,0.7-26.8,2.7
		c-24.7,4.6-45.1,7.3-64.2,8.5c-4.5,0.2-9.5,0.4-14.6,0.4c-11.7,0-20.3-1.3-28-4.2l-2,3.4c6.6,5.4,13.7,9.6,20.9,12.5
		c16.2,6.6,33.6,7.1,48.6,7.1c2.8,0,5.7,0,8.5,0l1.6,0c0.8,0,1.7,0,2.5,0l4.1,0c8.3,0,16,0.2,23.1,1.7c-3.6-0.2-7.2-0.3-10.8-0.3
		c-6,0-12.3,0.3-18.7,0.9c-10.7,1-22.1,2.6-32.9,6.6l0.5,3.9c16.9,2.1,34.8,5.2,50.4,13.6l0.7,0.4l0.8-0.2c10.6-3.2,21-4.9,31-4.9
		c10,0,19.4,1.7,27.8,5l0.1,0c1,0.3,2.1,0.5,3.2,0.5c3.1,0,6-1.3,8.6-2.4c0.4-0.2,0.9-0.4,1.3-0.6c4.1-1.8,7.6-2.7,10.9-2.7
		c0.9,0,1.9,0.1,2.8,0.2l0.9,0.1c7.8,1.3,15.9,2.6,23.6,4.7l4.7,1.3L210.3,308.5z"/>
	<path class="st1" d="M100.9,382.1c-19.5-9.9-41.4-12.8-62.5-15.7l-0.6-0.1c-10.3-1.5-20.3-3.4-28.2-8.3c11.8,1.8,23.7,2.2,35.4,2.5
		c16.6,0.5,33.9,1.1,50.2,5.8c9.1,2.5,18.5,6.4,29.6,12.3l3.4,1.8l-0.5-3.9c-1.9-14.6-8.4-28.8-18.2-40c-9-10.5-21.6-18.5-36.4-23.2
		c-22.9-7.4-47.2-11.1-72.2-11.1c-6,0-12.1,0.2-18.1,0.7l-3.5,0.3l2,2.9c1.7,2.4,3.4,4.8,5.1,7.2l2,2.8l1.1-0.1
		c6.5-0.4,12-0.6,17.2-0.6c3.9,0,7.6,0.1,11.2,0.3c-6.2,0.7-12.7,1.2-19.9,1.7c-4.7,0.5-9.4,0.7-14.2,0.7
		c-22.3,0-45.1-5.4-65.9-15.8l-3.6-1.8l0.8,4c5.3,26.7,12.7,46.8,23.2,63.4c9.3,14.8,22.2,26.7,37,34.4
		c23.1,12.2,49.4,15.8,75.1,17.2c-8.4,3.4-17.9,5.1-28.4,5.1c-0.9,0-1.8,0-2.8,0c-20.8-0.7-42.1-7.5-63.3-20.1l-3.9-2.3l0.9,4.5
		c0.3,1.5,0.6,3,1,4.5c0.5,2.3,1,4.6,1.4,6.9l0.2,1l3.5,1.6c4.1,1.9,8.2,3.8,12.2,5.9c-14.1-4.2-27.4-10.4-39.9-16.6l-4.5-2.3
		l1.7,4.7c4.4,12,11.2,23.6,20.2,34.6c17.7,21.7,43.9,36,71.7,39.4c6.5,0.8,12.9,1.1,19.1,1.1c17.5,0,33.4-3.1,47.2-9.1
		c16.6-7,30.5-16.4,41.4-27.8c5.9-6.2,10.3-13,13.1-20.3l0.3-0.7l-0.2-0.7C134.3,409,119.7,391.9,100.9,382.1z"/>
	<path class="st1" d="M101.6,483.9c-23.4,15-47.1,25.8-70.7,32.2l0.3,3.9c5.7,0.8,11.5,1.2,17.2,1.2c17.1,0,33-3.6,46.4-10.3
		c-6.1,6.5-14,11.3-22.7,13.6l0.1,3.9c3.7,0.7,7.4,1.1,11.1,1.1c7.4,0,14.1-1.5,19.9-4.5c6.8-3.3,12.6-8.7,16.9-15.6
		c8-12.9,14-25,18.6-36.8l1.1-2.8l-3,0.1C123.6,470.1,112.2,476.9,101.6,483.9z"/>
</g>
<g id="_x23_050708ff">
	<path class="st2" d="M103,249.8c17.7-2.4,35.8-5,53.5-1.3c12.4,2.4,23.8,9.7,30.4,20.5c8.6-5.6,18.6-8.8,28.9-9.1
		c-9.2,17.9-5.4,41.3,8.5,55.6c5.2,2.1,10.4,4.7,13.4,9.7c4,6.1,7.4,12.6,10.5,19.2c3.8,1.7,7.7,3.6,10.7,6.6
		c3,3.3,4.8,7.5,6.3,11.6c4,1.3,8.2,2.6,11.3,5.7c2.4,2.3,3.4,5.5,4.6,8.4c3.8,1.1,7.8,2.3,10.7,5.2c2.8,2.9,4.2,6.7,5.9,10.3
		c3.8,8.5,7.7,17,11.5,25.4c-7.8,9.1-15.4,18.3-23.2,27.4c-1.6,1.9-4.4,1.7-6.6,2.4c-6.6,12.7-18.5,22.6-32.3,26.6
		c2.2-2.8,4-5.9,5.2-9.3c-9.9,8-22.7,11.1-35.1,12.6c7.2-8.8,13.4-18.9,15.6-30.2c-11.4,7.2-21.8,15.8-31.1,25.6
		c-8.5,8.8-12,22.4-7.7,34c8.6,0.8,17.2,1.1,25.7,1.6c-7.6,7.6-16.2,14.2-25.1,20.2c-1.5,5.3-2.6,11.3-7,15
		c-2.6,1.5-5.8,1.8-8.2,3.8c-7.2,5.3-14.5,10.8-20.2,17.8c-6.9,8.6-9.7,19.5-11.6,30.2c-9.6-0.5-17.9-6.5-23.9-13.5
		c-10.3-12.1-15.7-27.9-16.2-43.6C89.1,543.9,69,545.5,50,541c-16-3.8-31.6-11.3-43.1-23.3c5-1.4,9.7-3.6,14.3-5.9
		c-9.3-0.8-18.3-3.6-26.9-7.1c-27.6-11.5-51.2-32.7-64.8-59.4c-8.4-16.2-12.9-34.2-14.3-52.4c3.8,1.8,7.6,3.5,11.6,4.9
		c-17.1-32.8-23.6-70.6-20.5-107.3c20.7,8,41.7,17.2,64.2,17.9c-2.9-4.2-5.4-8.6-8.3-12.7c21-3.7,42.5-4.3,63.8-3
		c-14.4-4.9-27.9-13.4-36.8-26c-3.5-5-6.1-10.5-7.4-16.5c14.2,5.2,29.3,7.5,44.4,7.8C52,258.4,77.5,253.5,103,249.8 M107.6,259.3
		c-21.3,4-42.8,7.2-64.5,8.5c-14.5,0.7-29.6,1.3-43.4-3.9c6.2,5,13,9.3,20.4,12.2c18.3,7.4,38.5,7.1,57.9,6.9
		c15,0.1,31.2-0.8,44.6,7.2c-14.6-2.2-29.5-2.3-44.2-1c-11,1.1-22,2.6-32.4,6.5c17.5,2.2,35.3,5.4,51.1,13.8
		c19.4-5.9,41-7.3,60.2,0.2c4.1,1.3,8.1-0.8,11.8-2.4c4.6-2,9.7-3.5,14.8-2.6c8.3,1.3,16.6,2.6,24.7,4.9c-6.2-10.9-8.4-24-5.6-36.3
		c-4.9,1.9-9.7,4.2-13.8,7.6c1.4,4.5,1.6,9.2,1.2,13.9c-4.5-10.7-11.2-20.5-20-28.1c-10.1-8.4-23.7-9.9-36.3-10
		C125.2,256.9,116.3,257.3,107.6,259.3 M-83.1,304.4c4.4,21.9,10.9,43.7,23,62.7c8.9,14.1,21.4,26,36.3,33.7
		c25.1,13.3,54.1,16.2,82.1,17.4c-11.8,6.7-25.7,9.1-39.2,8.7c-22.8-0.8-44.8-8.8-64.3-20.4c0.8,3.8,1.7,7.6,2.4,11.4
		c9.3,4.3,18.7,8.5,27.2,14.2c-19-3.6-36.8-11.6-54-20.2c4.5,12.4,11.5,23.9,19.9,34c17.4,21.3,43.1,35.4,70.4,38.7
		c21.9,2.6,44.8,1.1,65.3-7.8c15.1-6.4,29.4-15.4,40.7-27.4c5.4-5.7,9.9-12.3,12.7-19.6c-6.7-19.5-21-36.3-39.3-45.8
		c-19.4-9.8-41.3-12.7-62.5-15.6c-12.5-1.9-26.2-4.3-35.5-13.6c30.9,6.6,63.1,1,93.6,9.8c10.5,2.9,20.4,7.4,30,12.5
		c-1.9-14.4-8.2-28.1-17.7-39c-9.3-10.8-22-18.3-35.5-22.6C43.6,306.1,13,302.8-17.2,305c2.1,3.1,4.3,6.1,6.4,9.1
		c14.3-0.9,28.7-1.1,42.8,1.4c-11.2,2.5-22.6,3.3-34,4C-29.7,322.5-58.2,316.7-83.1,304.4 M179,317.9c-5.7,3.9-11.7,8.5-19,8
		c-7.9,0.2-13-7.9-20.8-8c-8.9-0.5-17.6,1.5-26.1,3.5c6.3,5,10.8,11.8,14.6,18.8c2.4,4,5,9.3,10.3,9.4c1.6-1.1,1.7-3.4,2.3-5.1
		c-4.3-3.8-6.6-9.2-7.9-14.7c3.3,1.5,6.7,3.2,10.4,3.1c3.6-0.1,7.2,0.1,10.7,1.3c-7.7,13.7-12.6,29.1-12.6,44.9
		c0.7,5.3,0.5,10.9,3.3,15.6c4.6,8.2,8.8,16.8,12.1,25.6c1.2,3.1,0,6.4-0.9,9.4c-3.2,8.9-8.6,16.9-14.5,24.2
		c5.6,0.5,11.7,0.7,16.5,4.1c-8.7,16.3-15.4,33.6-25.1,49.4c-10.5,16.3-13.6,38.3-4.9,56.1c1.3-6.3,3.4-12.7,7-18
		c-0.2,10.8,0.1,21.9,4.9,31.7c1.4-6.4,4.2-12.5,8.1-17.7c6.7-8.9,15.9-15.5,24.7-22c-8.9-12.4-16.3-27.1-15.3-42.8
		c0.8-4.3,3.7-7.9,6.1-11.5c12.9-16.7,27.7-31.9,44.2-45.1c4.9-4.1,11-6.9,14.9-11.9c2.3-4.5,5-8.8,9-12.1c0,3.1-0.2,6.3,1.5,9
		c2.2,3.6,3.9,8.3,8.2,9.9c7.5,3.4,14.9,7.3,23,8.9c6.6,0.2,12.9-4.7,15.7-10.5c1-6.6,1-14.3-3.4-19.7c-3.4-4.6-6.3-10.2-5.3-16.1
		c3.4,4,6.8,8.2,11.4,10.8c4,2,8.5,2.5,12.8,3.5c-3.2-6-5.6-12.4-8.6-18.5c-1-2.1-2.7-3.8-5-4.4c-6.6-2-13.4-3.4-19.8-6.2
		c-2-1-4.3-2.1-5.1-4.3c4.6-0.2,9.1-0.5,13.7-0.7c-6.3-5.4-16.4-3.7-21.8-10.5c2.3-0.3,4.6-0.5,6.9-0.6c-1.4-2.9-2.5-6.3-5.2-8.2
		c-3-2.1-6.5-3.4-9.8-5c-3-7.4-6.8-14.4-11.1-21.2c-2.3-3.8-6.9-5-10.8-6.4c-9-3.3-18-6.6-27.5-8.1C187,315.6,182.5,315.3,179,317.9
		 M242.1,443.6c-1.6,8.1-4.7,15.7-8.1,23.2c8.8-3.7,17.2-9.1,22.8-16.9C251.9,447.7,247,445.7,242.1,443.6 M102.7,485.6
		c-22,14.2-45.9,25.6-71.3,32.5c24.1,3.2,50.2-0.1,70.8-13.9c-6.5,10.9-17.4,19-29.7,22.2c9.9,2,20.6,1.4,29.8-3.2
		c6.7-3.2,12.2-8.6,16.1-14.9c7.1-11.6,13.5-23.7,18.4-36.4C124.1,472.1,112.9,478.8,102.7,485.6 M170,514.2
		c1.5,4.4,3.6,8.6,6.6,12.2c8.2-2.9,16.4-6.4,23.6-11.5C190.1,515.3,180,515.4,170,514.2z"/>
	<path class="st2" d="M202.7,351.7c6.4-2.5,14.2-6.3,20.7-2.1c6.8,4.8,12.6,10.8,18.7,16.4c-10.8,2.4-19.8,9.6-26.8,17.8
		c0.9-6.5,4.7-12.2,9.8-16.3C218.2,361.4,210.6,356.3,202.7,351.7z"/>
</g>
<g id="_x23_f05623ff">
	<path class="st1" d="M107.6,259.3c8.7-1.9,17.6-2.4,26.4-2.6c12.6,0.1,26.3,1.6,36.3,10c8.8,7.6,15.5,17.5,20,28.1
		c0.4-4.7,0.2-9.4-1.2-13.9c4.1-3.4,8.8-5.8,13.8-7.6c-2.8,12.3-0.5,25.4,5.6,36.3c-8.1-2.3-16.4-3.6-24.7-4.9
		c-5.1-0.9-10.2,0.6-14.8,2.6c-3.7,1.5-7.7,3.7-11.8,2.4c-19.2-7.5-40.8-6.1-60.2-0.2C81.4,301,63.5,297.8,46,295.6
		c10.4-3.9,21.4-5.4,32.4-6.5c14.7-1.3,29.6-1.2,44.2,1c-13.4-8-29.6-7.1-44.6-7.2c-19.4,0.2-39.6,0.5-57.9-6.9
		c-7.4-2.9-14.3-7.1-20.4-12.2c13.8,5.3,28.9,4.6,43.4,3.9C64.7,266.5,86.3,263.3,107.6,259.3z"/>
	<path class="st1" d="M-83.1,304.4c25,12.3,53.5,18.2,81.2,15.2c11.4-0.7,22.8-1.5,34-4c-14.1-2.5-28.5-2.3-42.8-1.4
		c-2.2-3-4.3-6.1-6.4-9.1c30.1-2.2,60.8,1.1,89.6,10.4c13.5,4.3,26.2,11.8,35.5,22.6c9.5,10.9,15.8,24.6,17.7,39
		c-9.6-5.1-19.5-9.6-30-12.5c-30.5-8.8-62.8-3.2-93.6-9.8c9.3,9.4,22.9,11.8,35.5,13.6c21.3,2.9,43.1,5.8,62.5,15.6
		c18.3,9.5,32.6,26.3,39.3,45.8c-2.8,7.3-7.3,14-12.7,19.6c-11.4,11.9-25.6,20.9-40.7,27.4c-20.4,8.9-43.4,10.4-65.3,7.8
		c-27.3-3.3-53-17.4-70.4-38.7c-8.4-10.2-15.4-21.6-19.9-34c17.2,8.6,35,16.5,54,20.2c-8.5-5.7-17.9-9.9-27.2-14.2
		c-0.7-3.8-1.6-7.6-2.4-11.4C-25.8,418-3.8,426.1,19,426.8c13.5,0.4,27.4-2,39.2-8.7c-28-1.2-56.9-4-82.1-17.4
		c-14.8-7.7-27.4-19.6-36.3-33.7C-72.2,348.1-78.8,326.2-83.1,304.4z"/>
	<path class="st1" d="M102.7,485.6c10.3-6.8,21.5-13.5,34.1-13.8c-4.9,12.7-11.3,24.8-18.4,36.4c-3.9,6.3-9.4,11.7-16.1,14.9
		c-9.1,4.6-19.9,5.2-29.8,3.2c12.3-3.2,23.2-11.3,29.7-22.2c-20.6,13.8-46.7,17.1-70.8,13.9C56.7,511.2,80.6,499.7,102.7,485.6z"/>
</g>
<g id="_x23_ffffffff">
	<path class="st0" d="M179,317.9c3.5-2.6,8-2.3,12.1-1.9c9.5,1.4,18.5,4.8,27.5,8.1c3.9,1.4,8.5,2.6,10.8,6.4
		c4.3,6.7,8.1,13.8,11.1,21.2c3.3,1.6,6.8,2.9,9.8,5c2.7,1.9,3.9,5.3,5.2,8.2c-2.3,0.1-4.6,0.2-6.9,0.6c5.4,6.8,15.5,5.1,21.8,10.5
		c-4.6,0.2-9.1,0.5-13.7,0.7c0.8,2.2,3.1,3.3,5.1,4.3c6.3,2.8,13.1,4.2,19.8,6.2c2.3,0.6,4,2.3,5,4.4c3,6.1,5.5,12.5,8.6,18.5
		c-4.3-1.1-8.8-1.5-12.8-3.5c-4.6-2.6-8-6.9-11.4-10.8c-1,5.9,2,11.5,5.3,16.1c4.4,5.5,4.4,13.1,3.4,19.7
		c-2.9,5.8-9.1,10.7-15.7,10.5c-8.1-1.6-15.5-5.5-23-8.9c-4.3-1.6-6-6.2-8.2-9.9c-1.7-2.7-1.4-6-1.5-9c-4,3.3-6.8,7.6-9,12.1
		c-4,5.1-10.1,7.8-14.9,11.9c-16.5,13.2-31.3,28.4-44.2,45.1c-2.4,3.5-5.3,7.1-6.1,11.5c-1,15.7,6.4,30.4,15.3,42.8
		c-8.9,6.6-18.1,13.1-24.7,22c-3.9,5.2-6.7,11.3-8.1,17.7c-4.9-9.8-5.1-21-4.9-31.7c-3.7,5.4-5.7,11.7-7,18
		c-8.7-17.7-5.5-39.8,4.9-56.1c9.6-15.8,16.4-33.1,25.1-49.4c-4.8-3.4-10.9-3.6-16.5-4.1c5.9-7.3,11.3-15.3,14.5-24.2
		c0.9-3,2.2-6.3,0.9-9.4c-3.4-8.8-7.5-17.4-12.1-25.6c-2.9-4.7-2.6-10.3-3.3-15.6c-0.1-15.8,4.9-31.2,12.6-44.9
		c-3.4-1.2-7.1-1.4-10.7-1.3c-3.7,0.1-7.1-1.6-10.4-3.1c1.3,5.5,3.6,10.9,7.9,14.7c-0.7,1.7-0.7,4-2.3,5.1
		c-5.4-0.1-7.9-5.4-10.3-9.4c-3.8-7-8.3-13.9-14.6-18.8c8.6-2,17.3-4,26.1-3.5c7.8,0.2,12.9,8.2,20.8,8
		C167.3,326.4,173.3,321.8,179,317.9 M202.7,351.7c7.9,4.6,15.6,9.7,22.4,15.8c-5.1,4.1-8.9,9.7-9.8,16.3c7.1-8.2,16-15.4,26.8-17.8
		c-6.1-5.6-11.9-11.7-18.7-16.4C216.9,345.3,209.1,349.2,202.7,351.7z"/>
	<path class="st0" d="M242.1,443.6c4.9,2.1,9.9,4.1,14.8,6.2c-5.7,7.8-14,13.3-22.8,16.9C237.3,459.3,240.5,451.7,242.1,443.6z"/>
	<path class="st0" d="M170,514.2c10,1.2,20.1,1.1,30.2,0.7c-7.1,5.1-15.3,8.5-23.6,11.5C173.5,522.8,171.5,518.6,170,514.2z"/>
</g>
</svg>
