<?xml version="1.0" encoding="utf-8"?>
<!-- Generator: Adobe Illustrator 19.0.0, SVG Export Plug-In . SVG Version: 6.00 Build 0)  -->
<svg version="1.1" id="Layer_1" xmlns="http://www.w3.org/2000/svg" xmlns:xlink="http://www.w3.org/1999/xlink" x="0px" y="0px"
	 viewBox="-149.9 336.8 206.9 167" style="enable-background:new -149.9 336.8 206.9 167;" xml:space="preserve">
<style type="text/css">
	.st0{fill:url(#SVGID_1_);}
</style>
<g id="_x23_d90e0eff">
	<linearGradient id="SVGID_1_" gradientUnits="userSpaceOnUse" x1="-46.5023" y1="336.82" x2="-46.5023" y2="503.7797">
		<stop  offset="0" style="stop-color:#F51515"/>
		<stop  offset="1" style="stop-color:#C40808"/>
	</linearGradient>
	<path class="st0" d="M-121.4,357.6c14.4-12.6,33.2-20,52.4-20.5c11.4-0.2,22.8,0.9,33.9,3.4c11.5,2.6,22.6,6.7,34.2,8.6
		c13.5,2.2,27.7,2.3,40.5-2.7c6.2-2.3,12-5.6,17.3-9.5c-6.5,11.9-17.8,20.8-30.3,25.6c-16.2,6-33.7,6.2-50.7,5.3
		c-7.6-0.6-15.5-0.6-22.8,2c-8.8,2.9-16.3,9.7-19.6,18.5c10.2-3.6,20.6-6.9,31.5-7.3c10.4-0.2,20.1,4.2,30.2,6.4
		c6,1.3,12.6,0.5,17.8-3C9.5,390,4.8,395-1.4,397.5c-5.2,2.3-11.1,2.7-16.7,2.2c-8.3-0.9-17,0.4-24,5.2
		c-7.1,4.5-12.6,12.4-12.3,21.1c0,8.8,5.9,16.6,13.3,21c13.6,8.1,31.8,7.6,44.9-1.3c6.8-4.7,12.3-12.4,12.1-21
		c1.1,14.5-3.2,29.1-11.2,41.1c-11.1,16.8-28.5,29-47.7,34.6c-17.5,5.1-36.6,4.4-53.6-2.2c-17.6-6.7-32.7-19.5-42.1-35.8
		c-10.3-17.4-13.8-38.7-9.8-58.5C-144.8,386.1-135.1,369.5-121.4,357.6z"/>
</g>
</svg>
