<?xml version="1.0" encoding="utf-8"?>
<!-- Generator: Adobe Illustrator 19.0.0, SVG Export Plug-In . SVG Version: 6.00 Build 0)  -->
<svg version="1.1" id="Layer_1" xmlns="http://www.w3.org/2000/svg" xmlns:xlink="http://www.w3.org/1999/xlink" x="0px" y="0px"
	 viewBox="197.6 168.9 809.3 503" style="enable-background:new 197.6 168.9 809.3 503;" xml:space="preserve">
<g id="_x23_000000ff">
</g>
<g id="_x23_ffffffff">
	<path d="M512,177c1.2-2.7,1.4-6,3.5-8.1c0.4,6.7-0.8,13.3-1,20c0,7.3,0.5,14.6,1.8,21.7c1.3,6.1,3.8,12.2,8.5,16.5
		c3.5,3.2,8.5,4.5,13.2,3.7c6.9-0.9,12.4-5.4,18.5-8.2c20.6-10.3,42.3-18.2,64.4-24.7c23.8-6.5,48.3-10.8,73-10.9
		c-6.9,7.9-13.7,16.9-14.3,27.8c-1,12,6,23,14.6,30.8c12.3,11.1,27.2,19.3,43.1,23.7c17.5,5.8,32.8,17.9,42.6,33.4
		c3.8,6.2,7.4,12.6,9.6,19.6c5.7,14.8,8.4,30.6,9,46.4c0,8.3,0.1,16.6-0.2,24.8c-1.5,0.1-2.3-1.4-3.1-2.3
		c-7.2-11.1-15.5-21.6-25.4-30.5c-9.4-8.1-20.1-15.5-32.5-17.5c-11.2-2-23.5-0.8-32.9,6.1c-10.6,7.5-16.1,20.1-18.8,32.5
		c-0.4,2.9-1.7,6.9,1.5,8.6c4.8,3.2,10.3,5.2,15.8,7c22.3,6.9,45,12.1,67.9,16.6c9.9,2.2,19.9,4.2,29.9,5.7
		c7.9,1.2,16.8,0.5,23.2-4.8c5-4,6.6-11,6.1-17.1c-1.1-12.6-1.5-25.3-2-38c-0.9-7.6-0.6-15.3-1.1-23c-1-9.3-0.4-18.7-1.5-28.1
		c-0.1-17-2.4-34-2.2-51.1c2,10.5,2.7,21.1,5.3,31.4c2.3,11.8,6.1,23.3,8.9,34.9c9.2,31.1,19.3,61.9,30.4,92.4
		c1.5,4.3,3.5,8.4,4.6,12.8c-9.7,0.6-19.2-1.3-28.9-1.1c-21.9-1.7-44-1.6-65.9-2.7c-17.3-0.3-34.7-1.3-52-1.5
		c-13.9-0.9-27.9-0.7-41.8-1.6c-14.4,0-28.8-1.2-43.2-1.3c-57-2.1-114.1-3.6-171.1-5.8c11.7-5.9,23.8-11.1,36.2-15.6
		c15.4-5.2,30.8-10.6,46.9-13.1c3.8-0.7,7.3,1,11,1.6c-0.3-2.8-3.2-3.9-5.3-5.2c-9.3-5.3-20.4-5.3-30.7-4.3
		c-23.9,3.2-46,13.7-67.2,24.8c-4.1,2-7.9,4.8-11.9,7c2.6-3.9,6.3-7,9.4-10.5c19.3-21,38.6-42.1,57.9-63.1c2.7-2.7,5.5-5.6,6.8-9.4
		c3.1-8.4,7.2-16.4,10.1-24.8c-0.9,0.5-1.7,1-2.5,1.6c-31.8,29.6-63.6,59-95.4,88.6c-3.4,2.8-6.1,6.4-9.8,8.9
		c3.9-11,5.3-22.7,8.6-33.8c4-16.8,7.8-33.8,11.9-50.6c2.7-9,4-18.4,6.6-27.4c3.4-15.6,7.7-31,11-46.6c1.1-4.6,1.5-9.3,3.4-13.7
		c0.3,9.7-1.5,19.4-1.1,29.1c0.5,9.9,0.8,20,3.8,29.6c1.2,3.9,3.4,7.9,7.2,9.7c3.3,1.4,6.6-0.5,9.5-2.1
		c16.2-9.2,33.1-16.8,49.6-25.3c5.4-2.8,11-5.2,16.5-7.8c2.6-1.1,3.4-4,4.7-6.2c1.7-3.6,4.3-6.8,5-10.8c-4.2,1.5-7.6,4.4-11.4,6.7
		c-12.5,7.7-25.5,15-39.6,19.3c-5.6,1.4-11.3,3-17.1,2.1c-5.5-0.6-10.4-5.4-10.1-11.1c0.2-8.9,2.8-17.6,5.2-26.2
		C495.6,216.5,503.5,196.6,512,177 M627.2,260.2c-1.5,4.7-3.2,9.7-2.5,14.7c0.6,3.2,4,5.7,7.2,5.1c7.4-1.2,13.9-5,20-9.1
		c9.8-6.3,21.8-7.2,33-6.4l0.5-0.7c-11.4-6-24.9-4.8-37.3-5.3c-5.1-0.5-8.4-5.3-10-9.7c-1.1-2.7-0.4-6.1-2.1-8.6
		C632.1,246.3,629.7,253.4,627.2,260.2z"/>
	<path d="M414.8,257.5c0.8-2.3,1.8-4.5,3-6.6c-0.4,4.8-2.3,9.3-3.9,13.9c-6.7,20.8-11.1,42.1-15.7,63.5c-5.6,26.4-10.4,53-14.6,79.6
		c-0.4,8.7-1.2,18.1,3.6,25.9c4.3,7.9,14.3,10.8,22.8,9.5c11.4-1.8,22.3-6.1,32-12.3c-1.8,5.9-5.9,10.8-7.3,16.8
		c-3.6,9.4-8.6,18.2-11.9,27.8c-4.7,10.1-8.9,20.5-13.2,30.8c-7.2,1.5-14.4,3-21.6,4.1c-2.6,0.6-4.4-1.8-6.1-3.3
		c-4.9-5.1-10.6-9.4-15.5-14.5c-8.2-7.8-16.7-15.3-24.9-23.1c-2.5-2.5-5.6-4.6-7.3-7.7c18.6-47.6,37.6-95,56.5-142.5
		C398.6,298.7,407.1,278.3,414.8,257.5z"/>
	<path d="M197.6,411.7c7.5-0.7,14.9,0.5,22.4,0.5c15,0.1,30,1.4,45,1.4c3.6,0.3,7.7-0.4,11.1,1.3c37.2,34.8,74.6,69.3,111.9,104.1
		c5.1,4.5,9.9,9.4,15.1,13.8c1.5-2.3,2.4-5,3.4-7.5c14.9-35,30.3-69.8,45.2-104.9c3.4-0.5,6.8-0.1,10.2,0
		c65.4,2.5,130.8,4.5,196.3,6.9c13.6,0.2,27.1,1.2,40.7,1.2c10.5,0.8,21,0.7,31.5,1.1c11.9,1,23.9,0.3,35.8,1.4
		c26.7,0.8,53.3,1.9,80,2.6c12,0.9,24,0.5,36,1.4c9,0.4,18,0.2,27,0.9c10,0.6,20,0.2,30,1c10.3,0.6,20.7,0.1,31,1.1
		c12.3,0.2,24.6,0.7,36.9,1.3c-1.3,4.2-4,7.8-6,11.6c-5.9,11.3-12.3,22.4-18.2,33.6c-0.9,1.4-1.6,3.6-3.7,3.4
		c-10.3-0.6-20.7-0.5-31-1.4c-8.3-0.2-16.7-0.3-25-1.1c-11-0.1-22-0.9-33-1.2c-124.7-5.2-249.3-10.3-374-15.5
		c-4.3-0.3-8.6-0.7-12.9-0.2c-1,0.8-1.5,2.1-2.1,3.2c-17.7,40.5-36.1,80.8-53.8,121.3c-5.4,12.2-10.9,24.4-16.4,36.6
		c-2.5-1.4-4.4-3.5-6.4-5.4c-71.6-66.8-143.1-133.6-214.6-200.3C205.9,419.8,200.8,416.6,197.6,411.7z"/>
	<path d="M505.6,472.5c4.8-0.6,9.6,0.1,14.3,0.2c9,0.9,18,0.5,27,1.3c4.6,0.4,9.2,0.1,13.8,0.4c-18.1,40.1-36.5,80.2-54.7,120.3
		c5.3,0.9,10.7,0.5,16,1c3.5,0.3,7.1,1,10.7,0.3c5.5-10.8,10.1-22.1,15.3-33.1c13.3-28.1,26-56.6,39.2-84.7c0.6-1,1.1-2.8,2.7-2.5
		c10.3,0.7,20.7,0.6,31,1.4c7.6,0.5,15.3-0.1,22.8,1.1l0.6,0.6c-14.4,31.3-29.2,62.4-43.9,93.6c-3.8,9.3-9.1,17.9-12.5,27.4
		c4.9,0.8,10,0.4,14.9,0.9c3.9,0.3,7.9,1.1,11.8,0.5c2.4-2.6,3.4-6.2,5-9.3c4.3-8.2,7.7-16.8,12-25c4.4-10.4,9.8-20.3,14.4-30.6
		c9-18.8,17.9-37.7,27-56.4c7.8-1,15.6,0.4,23.4,0.6c11.4,0.1,22.8,1.2,34.2,1.1c-0.3,1.3-0.8,2.7-1.3,3.9
		c-14.3,29.7-28.9,59.2-43.1,88.9c-9.5,18.7-18,37.8-27.6,56.4c-2.4,4.5-3.8,9.6-6.9,13.6c-4,0.4-8-0.1-12-0.5
		c-65.7-4.3-131.3-8.8-197-13.1c-2.4-0.4-5.2,0.3-7.3-0.9c5.7-14.4,12.8-28.2,18.7-42.5C471.5,549,488.4,510.7,505.6,472.5z"/>
	<path d="M736.4,482.3c8.2-0.3,16.4,0.3,24.6,0.7c67.3,2.7,134.5,5.6,201.8,8.4c5,0.2,10.1,0,15.1,0.8
		c-7.2,14.2-14.7,28.4-22.4,42.4c-7.1,0.5-14.3-0.2-21.5-0.5c-45.6-2.3-91.3-4.4-136.9-6.6c-7.4,0.1-14.7-1.3-22.1-0.8
		c-2.4,2.6-3.5,6.1-5.2,9.2c-1.8,3.7-4.4,7.2-5.1,11.3c59.7,3.5,119.4,6.2,179.1,9.4c-1.2,3.9-3.7,7.2-5.6,10.8
		c-14.7,28.3-29.6,56.4-44.5,84.6c-1.5,2.8-2.7,6-4.9,8.3c-2.7,0.4-5.3-0.1-8-0.3c-74.6-5-149.1-9.8-223.7-14.9
		c4.8-11.5,11.2-22.3,16.1-33.7c0.8-1.9,1.6-3.8,2.8-5.5c6.8-0.8,13.5,0.7,20.3,0.8c38.4,2.3,76.8,4.6,115.2,7c13,0.4,26,2.3,39,2
		c2.1-2.5,3.1-5.5,4.5-8.4c1.8-4,4.4-7.7,5.8-11.8c-20.9-1.8-41.9-2.2-62.8-3.8c-37.1-2.1-74.2-4.3-111.4-6.4
		c0.4-3.2,2.4-5.8,3.6-8.7c5.2-11.3,10.9-22.4,16.4-33.6c5.5-12.1,11.5-23.8,17.3-35.8C727.9,498.7,731.9,490.3,736.4,482.3z"/>
	<path d="M413.5,629.5c1-2.1,2-4.1,3.4-5.9c4,2.7,6.5,7.3,10.7,9.6c9.1,1.2,18.4,0.9,27.4,2.1c-2.2,1.4-4.6,2.1-7,3
		c-16.8,7.1-32.9,15.8-48.2,25.6C403.5,652,408.3,640.6,413.5,629.5z"/>
	<path d="M829.1,660.2c3,0.1,6.1-0.1,9.1,0.5c1.5,3.6,2.3,7.5,3.5,11.3C837.1,668.5,833.7,663.6,829.1,660.2z"/>
</g>
</svg>
