<?xml version="1.0" encoding="utf-8"?>
<!-- Generator: Adobe Illustrator 19.0.0, SVG Export Plug-In . SVG Version: 6.00 Build 0)  -->
<svg version="1.1" id="Layer_1" xmlns="http://www.w3.org/2000/svg" xmlns:xlink="http://www.w3.org/1999/xlink" x="0px" y="0px"
	 viewBox="393.11 94.28 612.661 650.239" style="enable-background:new 393.11 94.28 612.661 650.239;" xml:space="preserve">
<style type="text/css">
	.st0{fill:#9F2E2A;}
	.st1{fill:#D6D6D3;}
</style>
<g id="_x23_151515ff">
</g>
<g id="_x23_8a2720ff">
	<path class="st0" d="M950.89,100.84c7.68-2.07,15.17-4.98,22.96-6.56c3.05,1.32,5.38,3.82,7.97,5.84
		c7.89,6.45,15.68,13.02,23.73,19.28c0.34,33.97,0.22,67.97,0.08,101.95c-10.51,2.51-20.9,5.51-31.35,8.24
		c0.04-34.01,0.21-68.04-0.09-102.05c-7.93,1.66-15.85,3.6-23.5,6.26c0.12,28.03-0.06,56.06,0,84.1c-0.18,5.83,0.29,11.68-0.17,17.5
		c-0.81,1.01-2.25,1.05-3.36,1.5c-9.27,2.66-18.79,4.38-27.87,7.67c-0.1-34.02,0.24-68.05-0.14-102.06
		c-7.02,0.73-13.59,3.5-20.47,4.93c-1.33,0.54-3.87,0.43-3.68,2.48c-0.27,29.31-0.24,58.65-0.24,87.97
		c-0.07,3.83,0.25,7.7-0.25,11.51c-0.97,1.18-2.67,1.31-4,1.86c-8.37,2.29-16.54,5.54-25.2,6.57c-0.19-37.98,0.08-75.96-0.05-113.94
		c0.14-6.25-0.31-12.51,0.11-18.75c0.1-2.28,2.82-2.58,4.5-3.18C896.86,114.86,923.75,107.34,950.89,100.84z"/>
	<path class="st0" d="M508.08,219.03c8.53-2.33,17.02-4.78,25.58-7c-0.02,11.18,0.08,22.36-0.02,33.54
		c-12.98,3.79-26.12,7-39.13,10.7c-5.24,1.51-10.66,2.44-15.68,4.62c-0.35,33.83-0.1,67.67-0.25,101.51
		c-10.53,2.34-20.8,5.73-31.26,8.36c0.06-33.77,0.16-67.54-0.05-101.31c-8.77,0.32-17.02,3.84-25.46,5.92
		c-9.56,2.27-18.94,5.29-28.52,7.49c-0.09-10.3-0.17-20.6-0.12-30.89c-0.47-2.22,1.91-2.78,3.52-3.21
		C433.94,239.3,470.87,228.62,508.08,219.03z"/>
	<path class="st0" d="M1005.76,236.87c-0.16,100.01-0.13,200.01-0.21,300.02c-0.24,4.8,1.21,10.35-2.15,14.41
		c-12.47,16.23-24.66,32.7-36.94,49.08c-1.66,2.34-4.56,3.01-7.15,3.73c-48.4,12.83-254.99,68.65-268.27,71.64
		c0.14-7.62-1.247-14.659-1.167-22.279c-0.167-6.6,0.447-13.871,0.957-20.501c1.14-3.55,3.9-6.2,6.05-9.13
		c11.57-15.21,23.16-30.4,34.14-46.03c18.77-4.57,162.06-43.18,191.81-51.28c0.79-6.86,0.27-13.76,0.39-20.64
		c-0.03-8.44,0.2-16.89-0.13-25.32c-14.55,3.26-191.2,50.66-195.3,52.31c7.89-12.27,63.37-85.77,82.25-110.9
		c10.42-2.17,84.73-22.74,111.81-29.47c0.57-3.85,0.85-34.4,0.38-45.78c-14.06,2.63-88.74,23.29-112.23,30.05
		c-0.17-12.98-0.09-25.95,0-38.93c-0.16-2.69,0.56-6.13-2.11-7.84c-11.29-9.01-37.12-29.58-38.92-30.58
		C774.95,299.07,989.65,240.81,1005.76,236.87z"/>
	<path class="st0" d="M393.83,400.81c40.64-11.2,81.46-21.82,122.14-32.91c-12.51,16.79-25.03,33.57-37.67,50.26
		c-1.53,1.88-2.29,4.24-2.23,6.67c-0.22,14.02,0.01,28.03-0.07,42.05c13.32-3.66,26.75-6.9,39.98-10.88
		c-0.6,8.62-0.08,17.26-0.26,25.89c-0.12,6.38,0.03,12.76,0.4,19.13c-12.42,4.06-25.27,6.57-37.75,10.38
		c-2.86,0.77-4.55,3.36-6.25,5.58c-12.3,16.98-24.93,33.73-37.71,50.35c-0.84-29.91,0.41-59.86-0.32-89.77
		c-7.16,1.09-13.98,3.6-21.01,5.26c-6.62,1.58-13.18,3.42-19.81,4.95c-0.21-26.97,0.12-53.94-0.14-80.91
		C393.26,404.85,392.86,402.64,393.83,400.81z"/>
	<path class="st0" d="M516.67,617.96c0.03,5.76-0.32,11.54,0.11,17.31c8.04-1.11,15.78-3.67,23.58-5.82
		c5.93-1.9,12.03-3.21,17.92-5.26c-0.66,29.16-0.04,58.34-0.32,87.51c-8.21,1.01-116.58,31.44-122.32,32.66
		c-1.47,0.41-2.99,0.01-4.12-0.99c-12.81-10.16-25.31-20.71-38.05-30.96c-0.31-14.7-0.14-29.41-0.09-44.12
		c13.62-3.35,26.95-7.89,40.74-10.47c0.43-5.95,0.03-11.91,0.09-17.87C439.69,636.34,515.45,616.37,516.67,617.96z"/>
</g>
<g>
	<path class="st1" d="M707.02,165.02c36.65-9.77,73.3-19.57,109.94-29.4c10.6,8.24,20.81,16.97,31.35,25.29
		c0.58,33.01-0.08,66.02,0.13,99.03c-0.06,1.27-0.15,2.53-0.27,3.8c-10.49,2.74-20.93,5.65-31.41,8.4
		c-0.19-11.35,0.08-22.7,0.17-34.05c-26.26,6.93-52.46,14.09-78.69,21.14c-0.58,11.21-0.16,22.43-0.1,33.64
		c-10.26,3.09-20.63,5.84-31.06,8.3c0.25-28.76-0.01-57.53,0.06-86.29C707.32,198.26,706.36,181.63,707.02,165.02 M795.78,175.56
		c-19.14,5.34-38.45,10.04-57.51,15.66c-0.55,10.95-0.45,21.92-0.07,32.88c1.18-0.02,2.35-0.15,3.52-0.38
		c25.06-6.66,50.11-13.38,75.16-20.07c0.42-11.2,0.23-22.43,0.05-33.64C809.8,171.53,802.87,173.84,795.78,175.56z"/>
	<path class="st1" d="M676.37,173.3c4.89-1.29,9.73-2.84,14.71-3.75c0.42,11.42,0.13,22.86,0.03,34.29
		c-36.57,10.06-73.22,19.9-109.92,29.52c-0.28,5.45-0.11,10.9-0.09,16.36c22.86-6.08,45.68-12.32,68.57-18.31
		c8.73-2.2,17.29-5.16,26.18-6.67c0.36,11.34-0.07,22.67,0.14,34.01c-14.52,4.54-29.35,8.07-44.03,12.09
		c-16.88,4.53-33.71,9.24-50.67,13.46c-0.53,5.45-0.06,10.94-0.26,16.41c36.7-9.54,73.21-19.93,109.99-29.15
		c-0.01,11.39-0.06,22.78,0.02,34.17c-41.94,11.37-83.91,22.64-125.9,33.85c-5.43-4.19-10.7-8.57-15.95-12.97
		c0.2-39.76-0.36-79.53,0.2-119.29C591.69,195.9,634.03,184.61,676.37,173.3z"/>
	<path class="st1" d="M517.159,367.09c83.88-22.77,167.92-44.96,251.811-67.66c1.8,1,3.58,2.06,5.2,3.35
		c11.1,9.25,22.43,18.22,33.72,27.23c2.67,1.71,1.95,5.15,2.11,7.84c-0.09,12.98-0.17,25.95,0,38.93
		c0.02,15.07-0.05,30.13,0.04,45.2c-18.88,25.13-37.63,50.36-56.45,75.55c-8.44,11.89-17.91,23.08-25.8,35.35
		c-7.49,2.87-15.43,4.35-23.1,6.69c-40.51,10.78-80.99,21.7-121.47,32.6c-22.03,5.54-43.79,12.07-65.92,17.21
		c-1.21,4.75-0.64,9.67-0.68,14.51c-0.01,4.68-0.2,9.38,0.05,14.07c-7.088,1.995,0,0-82.46,21.99c0.29-23.97-0.48-47.94-0.18-71.91
		l0.38-0.71c12.78-16.62,25.41-33.37,37.71-50.35c1.7-2.22,3.39-4.81,6.25-5.58c12.48-3.81,25.33-6.32,37.75-10.38
		c3.77-1.43,7.71-2.36,11.62-3.34c17.64-4.61,35.18-9.61,52.85-14.14c9.4-2.86,18.92-5.26,28.44-7.68
		c20.93-5.98,42.07-11.17,63.07-16.9c17.93-4.88,35.85-9.81,53.87-14.37c0.49-14.97,0.26-29.96,0.09-44.93
		c-20.95,5.18-41.68,11.29-62.59,16.66c-42.04,11.38-84.11,22.61-126.19,33.83c-7.12,1.87-14.26,3.69-21.3,5.85
		c-13.23,3.98-26.66,7.22-39.98,10.88c0.08-14.02-0.15-28.03,0.07-42.05c-0.06-2.43,0.7-4.79,2.23-6.67
		c12.64-16.69,25.16-33.47,37.67-50.26C516.316,367.664,516.813,367.326,517.159,367.09z"/>
	<path class="st1" d="M662.87,595.85c22.65-6.26,45.32-12.44,68.15-18.04c-10.98,15.63-22.57,30.82-34.14,46.03
		c-2.15,2.93-4.91,5.58-6.05,9.13c-0.51,6.63,0.35,35.16,0.21,42.78c0,0-128.9,35.71-133.08,35.95c0.28-29.17-0.34-58.35,0.32-87.51
		c13.15-4.17,26.6-7.33,39.89-11.03C619.74,607.38,641.25,601.41,662.87,595.85z"/>
</g>
</svg>
