<?xml version="1.0" encoding="utf-8"?>
<!-- Generator: Adobe Illustrator 19.0.0, SVG Export Plug-In . SVG Version: 6.00 Build 0)  -->
<svg version="1.1" id="Layer_1" xmlns="http://www.w3.org/2000/svg" xmlns:xlink="http://www.w3.org/1999/xlink" x="0px" y="0px"
	 viewBox="-197 351.8 199.2 118.8" style="enable-background:new -197 351.8 199.2 118.8;" xml:space="preserve">
<style type="text/css">
	.st0{fill:#3BA2BC;}
	.st1{fill:#FFFFFF;}
</style>
<g id="_x23_000000ff">
</g>
<g id="_x23_3ba2bcff">
	<path class="st0" d="M-116,357.7c9.8-3.9,20.4-6.2,31-5.8c12.9-0.6,25.8,2.2,37.5,7.7c3.6,2.6,5.7,6.9,9.2,9.5
		c8.7,3.1,15.8,10,19.5,18.5c7.8,3,15.3,7,21,13.3c-0.3,2.8-2.6,4.6-5,5.6c0.7,3.5,1.4,7,1.2,10.6c-2.5,4.6-3.1,10.2-5.9,14.7
		c0.9-4.7,0.2-9.6-2.6-13.6c-3.8,2.5-6.6,7-5.9,11.6c4.2,4.3,10.6,5.5,16.3,4.3c-1,8.9-4.6,17.3-10.4,24.1c-2.9-4.4-5.3-9.4-9.3-13
		c-4.8-5-10.9-8.6-17.5-10.8c0.4-9,3-18,7.6-25.7c-1.8,7.2-2.3,14.9,0,22.1c6.2,4.1,11.8,9.1,16.4,14.9c3.6-1.3,5.5-5.5,4.1-9.1
		c-2.8-1.1-5.8-0.5-8.1,1.4c-2.2-4.9-5.9-10.3-3.6-15.9c1.8-5.2,7.3-7.6,12.2-8.7c-0.1-2.4-0.2-4.7-0.3-7.1c-2.2-0.7-4.5-1.3-6.7-2
		c2.1-1.1,4.5-0.7,6.8-0.9c1-1.7,2.1-3.3,3.3-4.9c-4.1-4-9.5-6.9-15.3-7.6c-0.6,1.3-1.2,2.6-1.9,3.9c3.5,0.4,7.9,1,10.2,3.8
		c-4.6-1.3-9.4-1.5-14-0.3c-0.2-1.6,0.4-3.5-0.3-5c-1.6-1.3-3.4-2.5-5.5-2.6c-5.1-0.5-10.1-1.2-15.1-2.3c6.7,0.6,13.6-0.2,19.5-3.7
		c-0.9-4.8-6.3-5.7-9.9-7.6c-7.3-3.2-13.5-8.4-21-11.1c-10.4-4-22.1-3.8-32.7-0.6c-0.9-2.6-0.1-5.2,1.7-7.2c-4,0.5-7.7,2.5-10.3,5.6
		c5.1,4.8,11.7,7.6,18.3,9.4C-94.6,373.5-107.2,367.3-116,357.7z"/>
	<path class="st0" d="M-156.3,355.9c3.1,2.4,5.9,5.1,9.2,7.2c9.1,6.4,19.3,11.8,30.2,13.9c-6.2-5.2-11.7-11.3-15.7-18.4
		c14.2,12,32.2,19.6,50.9,19.9c-2.8,10-2.5,20.6-0.3,30.7c-2.9-4.1-5.2-9-9.4-11.8C-117.3,392.4-140.9,377.2-156.3,355.9z"/>
	<path class="st0" d="M-77.7,377.4c-0.9-5,3.6-10.1,8.7-9.9c7.4,0.4,14.9,4.1,19.2,10.3c-3.3,1.6-6.2,4.1-8.6,6.9
		c0.2-3.2-1.2-6.4-3.9-8.2c-2.6-1-5.4-0.1-7.6,1.5c0.2-1.9,0.4-3.9,0.5-5.8c-2.6-0.4-5.9,0.8-6,3.8c1.3,7.1,5.1,13.6,10,18.9
		c-2.9-1.2-5.7-2.9-8.8-3.7C-75.8,386.6-76.9,382-77.7,377.4z"/>
	<path class="st0" d="M-176.5,412.7c7.9-12.7,18.1-23.8,29.8-33.1c12,9.6,26.1,16.2,41,19.8c-12.2,0.9-24.6-1.7-35.5-7.2
		c-3.4,1.8-5.8,5-7.3,8.5c16.6-0.1,33.6,3.6,48,12C-125.3,406.7-151.6,406.5-176.5,412.7z"/>
	<path class="st0" d="M-73.8,421.9c5.9-10.4,14.2-19.3,23.9-26.1c-10.7,12.7-16.2,29.8-13.7,46.4c-27.3-14.2-57.6-22.7-88.4-24.3
		c-8.7-0.8-17.5,0.1-26.2-0.3c29.4-7.2,60.8-5.9,89.7,3.1c-1.8-7.8-8.3-13.7-15.9-15.3c9.3,0.4,18.3,4.8,24.9,11.3
		c3.2-4.6,6.6-9.4,11.1-12.8C-70.7,409.7-73.2,415.6-73.8,421.9z"/>
	<path class="st0" d="M-55.5,448c0.2-18.4,7.1-36.7,19.6-50.2c-5.4,11-9.8,22.9-10,35.3c3-4.1,5.6-8.3,8.7-12.2
		c-3.3,13.4-5.3,27.1-5.6,40.9C-47.4,457.6-51.6,452.9-55.5,448z"/>
	<path class="st0" d="M-166.3,438.5c12.5-5.3,26.7-4.7,39.4-0.7c6.9,3.3,13.4,7.3,19.5,11.8c-1.2,2.6-4.9,3.2-7,1.5
		c-11.5-8-26.3-11.8-40-8.5C-158.3,441.3-162.3,440-166.3,438.5z"/>
	<path class="st0" d="M-194.1,460.7c5.1-7.4,11.6-14.1,19.7-18.3c2.5,1.2,5,2.5,7.4,3.9c-3.9,2.1-7.8,4.4-11.2,7.3
		c10.9-1.3,21.9,1.2,31.6,6.1c1.4,0.9,2.6,2,3.9,3c-8.1-1-16.1-2.6-24.3-2.8C-176.1,459.3-185.1,460.1-194.1,460.7z"/>
</g>
<g id="_x23_ffffffff">
	<path class="st1" d="M-181.5,423.6c1.8,0,3.7,0,5.6,0c42.4,2.7,84.1,16.5,119.8,39.5c-10.8,1.2-21.7,2-32.6,3.1
		c-5.5-6.2-12-11.5-18.6-16.6c-6.1-4.5-12.6-8.5-19.5-11.8C-143.8,429.4-162.6,424.7-181.5,423.6z"/>
	<path class="st1" d="M-197,431.2c10.4,1.7,20.7,4.2,30.8,7.3c3.9,1.4,7.9,2.8,11.9,4.1c17.8,6.2,34.6,14.9,50.5,24.9
		c-9.9,1.3-19.9,1.5-29.8,3.1c-2.9-2.8-6-5.3-9.1-7.8c-1.3-1.1-2.5-2.1-3.9-3c-6.6-4.8-13.5-9.2-20.5-13.4c-2.4-1.5-4.8-2.8-7.4-3.9
		c-7.3-3.6-14.8-7.1-22.5-9.8V431.2z"/>
</g>
</svg>
