<?xml version="1.0" encoding="utf-8"?>
<!-- Generator: Adobe Illustrator 19.0.0, SVG Export Plug-In . SVG Version: 6.00 Build 0)  -->
<svg version="1.1" id="Layer_1" xmlns="http://www.w3.org/2000/svg" xmlns:xlink="http://www.w3.org/1999/xlink" x="0px" y="0px"
	 viewBox="-89.2 273.8 184.15 294.102" style="enable-background:new -89.2 273.8 184.15 294.102;" xml:space="preserve">
<style type="text/css">
	.st0{fill:#A9ABAE;}
	.st1{fill:#4D4D4D;}
	.st2{fill:#EDEAEB;}
	.st3{fill:#3A3738;}
	.st4{fill:#C9282C;}
</style>
<g id="_x23_a9abaeff">
	<path class="st0" d="M-89.2,273.8c31.13,16.77,59.85,38.53,82.88,65.48c9.63,11.72,18.85,24.11,25.04,38.04
		c-3.38-3.84-5.61-8.48-8.49-12.67c-19.1-28.59-43.83-53.34-72.06-72.94c-2.87-2.06-5.82-4.02-8.95-5.67
		c1.39,2.12,2.84,4.19,4.43,6.16c20.42,25.78,41.39,51.17,63.86,75.21c7.42,8.28,15.51,15.94,23.52,23.62
		c-0.87,3.72-3.66,6.71-5.3,10.14c4.16-0.54,8.05-2.65,12.31-2.36c2.43,0.06,4.86,0.32,7.24,0.85c-3.87-0.08-7.75,0.15-11.56,0.79
		c3.78,0.38,7.69,0.71,11.12,2.52c7.48,3.78,13.82,9.36,20.53,14.3c1.91,2.83,4.08,6.01,3.7,9.6c-0.41,2.32-1.69,4.34-2.66,6.44
		c3.93-0.35,7.88-0.68,11.78-1.36c-3.97,2.38-8.64,3.01-13.17,3.32c-4.32,0.21-8.57,1.12-12.9,1.21
		c13.4,19.14,24.59,39.78,34.48,60.92c7.66,18.03,13.01,36.94,18.35,55.76c-2.8-4.75-4.99-9.85-7.43-14.79
		c-3.34-8.25-7.1-16.32-10.71-24.45c-4.82-11.05-11.24-21.28-17.18-31.74c-12.24-21.86-27.89-41.51-42.67-61.66
		c-7.42,12.4-14.58,24.94-21.88,37.41c-1.79,2.9-3.14,6.11-5.4,8.69c-5.3,2.52-11.25,3.59-16.27,6.77c-3.8,2.51-7.75,5.01-10.6,8.64
		c-1.34,1.42-3.11,2.33-4.69,3.45c16.99-23.09,34.19-46.19,47.94-71.43c-2.02-2.25-4.09-4.46-6.15-6.68
		c0.83-0.96,2.05-1.72,2.32-3.05c1.71-6.07-0.48-12.3-2.26-18.09c4.49,3.88,8.8,8,12.61,12.55c0.48-0.77,0.95-1.55,1.51-2.27
		c0.93-1.2,1.92-2.34,2.92-3.48c-22.82-24.59-46.39-48.53-67.59-74.57c-9.67-11.11-16.9-24.18-27.53-34.47
		c-2.75-2.39-4.94-5.75-8.53-6.9C-87.53,276.02-88.37,274.91-89.2,273.8 M3.69,407.98c1.22,1.28,2.43,2.56,3.66,3.84
		c1.68-3.21,3.25-6.51,3.94-10.09C8.87,403.95,6.6,406.38,3.69,407.98 M26.56,405.25c-0.79,1.64-1.78,3.18-3.02,4.52
		c-0.45,1.93,0.44,3.68,1.35,5.32c0.28,0.11,0.84,0.34,1.13,0.46c0.73,4.42,4.71,7.86,8.29,10.34c5.6-0.15,11.2-0.12,16.8-0.06
		c1.53-0.1,3.35,0.36,4.56-0.9c0.39,0.02,1.18,0.06,1.58,0.08c-0.51-2.67-1.93-5.03-3.89-6.87l0.09-0.22
		c-4.94-5.02-10.39-9.6-16.8-12.64C33.32,404.57,29.9,404.68,26.56,405.25z"/>
	<path class="st0" d="M8.14,287.81c4.12,2.46,8.11,5.16,11.83,8.2c-1.04,1.04-1.16,2.12-0.34,3.23
		c10.39,18.14,20.46,36.58,28.02,56.1c2.92,8.22,6.23,16.73,5.46,25.62c-0.02,2.02-1.14,3.75-2,5.5c-1.32-0.19-2.23-0.82-2.74-1.9
		c0.51,0.32,1.52,0.98,2.02,1.3c0.31-3.71-0.26-7.41-1.46-10.92c-4.48-13.88-9.98-27.44-16.48-40.51
		C24.94,318.59,16.77,303.07,8.14,287.81z"/>
	<path class="st0" d="M20.61,297.02c0.48,0.27,1.45,0.82,1.93,1.09c19.76,16.67,33.24,40.33,38.17,65.66
		c2.2,11.15,3.23,22.62,2.73,33.98l-1.13,1.33c-0.31-3.73-0.21-7.48-0.19-11.22c-0.67-30.32-12.48-60.55-33.76-82.35
		C25.76,302.7,22.49,300.44,20.61,297.02z"/>
	<path class="st0" d="M24.15,353.83c3.51,10.83,10.68,20.22,19.37,27.44c0.96,0.99,2.25,1.43,3.56,1.77
		c0.32,0.38,0.97,1.14,1.29,1.52c-1.95,0.88-3.64-1.01-5.22-1.87c-8.41-5.66-14.21-14.26-18.16-23.45
		c0.22,7.92,1.15,15.88,3.26,23.53c0.36,2.07,1.84,4.97-0.83,6.05C22.54,377.83,22.57,365.53,24.15,353.83z"/>
	<path class="st0" d="M30.88,385.02c-1.42-2.44-1.55-5.33-1.61-8.07c1.49,3.83,4.52,6.68,6.85,9.98
		C34.31,386.57,32.05,386.74,30.88,385.02z"/>
	<path class="st0" d="M64.07,401.58c4.14,6.37,8.3,12.81,11.37,19.78c1.09,1.74-0.16,3.82,0.6,5.55c-3.11,0.85-6.29,2.08-9.54,1.08
		c-0.6-0.62-1.17-1.26-1.72-1.92c2.57-1.72,5.58-2.39,8.65-2.34c0.17-2.07-0.29-4.13-1.34-5.92c-2.72-4.96-5.7-9.78-8.9-14.44
		C63.41,402.92,63.85,402.03,64.07,401.58z"/>
</g>
<g id="_x23_4d4d4dff">
	<path class="st1" d="M-86.64,277.09c3.59,1.15,5.78,4.51,8.53,6.9c10.63,10.29,17.86,23.36,27.53,34.47
		c21.2,26.04,44.77,49.98,67.59,74.57c-1,1.14-1.99,2.28-2.92,3.48c-21.81-24.18-42.64-49.26-63.67-74.14
		C-61.96,307.3-74.69,292.5-86.64,277.09z"/>
	<path class="st1" d="M3.6,285.39c1.51,0.77,3.31,1.19,4.54,2.42c8.63,15.26,16.8,30.78,24.31,46.62c6.5,13.07,12,26.63,16.48,40.51
		c1.2,3.51,1.77,7.21,1.46,10.92c-0.5-0.32-1.51-0.98-2.02-1.3c-0.32-0.38-0.97-1.14-1.29-1.52c-0.24-1.6-0.03-3.23-0.39-4.81
		c-3.78-15.06-9.95-29.38-16.55-43.39C22.08,317.95,13.11,301.5,3.6,285.39z"/>
	<path class="st1" d="M22.53,344.97c0.8,2.9,1.58,5.85,1.62,8.86c-1.58,11.7-1.61,24,3.27,34.99c-1.35-0.08-2.69-0.17-4.04-0.26
		c-1.19-2.67-2.27-5.4-3.11-8.19C17.98,368.59,18.8,356.38,22.53,344.97z"/>
	<path class="st1" d="M23.72,400.45c3.81-0.64,7.69-0.87,11.56-0.79c4.66,1.92,8.35,5.52,11.87,9.04c2.79,2.8,5.96,5.28,8.22,8.57
		c-6.71-4.94-13.05-10.52-20.53-14.3C31.41,401.16,27.5,400.83,23.72,400.45z"/>
	<path class="st1" d="M3.69,407.98c2.91-1.6,5.18-4.03,7.6-6.25c-0.69,3.58-2.26,6.88-3.94,10.09
		C6.12,410.54,4.91,409.26,3.69,407.98z"/>
	<path class="st1" d="M-4.92,457.93c7.3-12.47,14.46-25.01,21.88-37.41c14.78,20.15,30.43,39.8,42.67,61.66
		c5.94,10.46,12.36,20.69,17.18,31.74c3.61,8.13,7.37,16.2,10.71,24.45c-20.29-38.74-42.31-76.89-70.03-110.86
		c-6.83,14.16-14.71,27.78-22.58,41.38c-0.81,1.13-1.36,2.9-2.99,3c-7.56,1.37-14.94,3.73-21.91,6.97c-2.35,1.15-4.66,2.44-7.2,3.17
		c2.85-3.63,6.8-6.13,10.6-8.64c5.02-3.18,10.97-4.25,16.27-6.77C-8.06,464.04-6.71,460.83-4.92,457.93z"/>
	<path class="st1" d="M66.5,427.99c3.25,1,6.43-0.23,9.54-1.08c-3.6,6.47-11.11,9.28-18.07,10.22c-5.22,0.86-11.01,2.29-15.85-0.65
		c4.33-0.09,8.58-1,12.9-1.21c4.53-0.31,9.2-0.94,13.17-3.32c0.5-0.26,1.51-0.78,2.01-1.04C68.95,429.96,67.68,429.03,66.5,427.99z"
		/>
</g>
<g id="_x23_edeaebff">
	<path class="st2" d="M-70.78,286.04c3.13,1.65,6.08,3.61,8.95,5.67c28.23,19.6,52.96,44.35,72.06,72.94
		c2.88,4.19,5.11,8.83,8.49,12.67c0.71,0.9,1.15,1.97,1.55,3.05c0.84,2.79,1.92,5.52,3.11,8.19c1.35,0.09,2.69,0.18,4.04,0.26
		c2.67-1.08,1.19-3.98,0.83-6.05c-2.11-7.65-3.04-15.61-3.26-23.53c3.95,9.19,9.75,17.79,18.16,23.45c1.58,0.86,3.27,2.75,5.22,1.87
		c0.51,1.08,1.42,1.71,2.74,1.9c0.86-1.75,1.98-3.48,2-5.5c0.77-8.89-2.54-17.4-5.46-25.62c-7.56-19.52-17.63-37.96-28.02-56.1
		c-0.82-1.11-0.7-2.19,0.34-3.23c0.16,0.25,0.48,0.75,0.64,1.01c1.88,3.42,5.15,5.68,7.75,8.49c21.28,21.8,33.09,52.03,33.76,82.35
		c-0.02,3.74-0.12,7.49,0.19,11.22c-1.43,1.78-2.94,3.5-4.7,4.96c1.85-0.24,3.72-0.45,5.58-0.67c3.2,4.66,6.18,9.48,8.9,14.44
		c1.05,1.79,1.51,3.85,1.34,5.92c-3.07-0.05-6.08,0.62-8.65,2.34c0.55,0.66,1.12,1.3,1.72,1.92c1.18,1.04,2.45,1.97,3.7,2.92
		c-0.5,0.26-1.51,0.78-2.01,1.04c-3.9,0.68-7.85,1.01-11.78,1.36c0.97-2.1,2.25-4.12,2.66-6.44c0.38-3.59-1.79-6.77-3.7-9.6
		c-2.26-3.29-5.43-5.77-8.22-8.57c-3.52-3.52-7.21-7.12-11.87-9.04c-2.38-0.53-4.81-0.79-7.24-0.85c-4.26-0.29-8.15,1.82-12.31,2.36
		c1.64-3.43,4.43-6.42,5.3-10.14c-8.01-7.68-16.1-15.34-23.52-23.62c-22.47-24.04-43.44-49.43-63.86-75.21
		C-67.94,290.23-69.39,288.16-70.78,286.04 M30.88,385.02c1.17,1.72,3.43,1.55,5.24,1.91c-2.33-3.3-5.36-6.15-6.85-9.98
		C29.33,379.69,29.46,382.58,30.88,385.02z"/>
	<path class="st2" d="M39.3,414.21c-2.17-0.17-5.62-1.71-4.31-4.4C37.58,409.09,39.27,411.97,39.3,414.21z"/>
</g>
<g id="_x23_3a3738ff">
	<path class="st3" d="M62.31,399.08l1.13-1.33c0.22,1.27,0.43,2.55,0.63,3.83c-0.22,0.45-0.66,1.34-0.88,1.79
		c-1.86,0.22-3.73,0.43-5.58,0.67C59.37,402.58,60.88,400.86,62.31,399.08z"/>
	<path class="st3" d="M26.02,415.55c1.21,0.58,2.22,1.48,3.17,2.42c5.04,6.32,13.85,6.34,21.21,6.59c1.76,0.12,3.51,0.24,5.27,0.37
		c-1.21,1.26-3.03,0.8-4.56,0.9c-5.6-0.06-11.2-0.09-16.8,0.06C30.73,423.41,26.75,419.97,26.02,415.55z"/>
	<path class="st3" d="M10.14,472.71c0.7,4.34,2.07,8.98,5.83,11.68c-0.67,10.15-2.65,20.18-3.75,30.3
		c-2.48-0.03-4.95-0.04-7.42-0.02C6.18,500.64,8.62,486.73,10.14,472.71z"/>
	<path class="st3" d="M-20.73,483.49c2.82-1.02,5.57-2.21,8.3-3.43c-1.49,11.55-3.65,23.01-5.08,34.56c-3.66,0.06-7.31,0.05-10.96,0
		c-0.32-2.5-0.54-5.01-0.68-7.52c-1.75,2.49-3.44,5.03-5.1,7.58c-2.67-0.02-5.35-0.03-8.02-0.03c0.32-7.41,0.21-14.83,0.52-22.25
		c2.46-1.34,4.92-2.68,7.41-3.97c-0.21,4.14-0.65,8.27-0.63,12.42c2.93-5,4.97-10.45,7.72-15.55c1.23,5.37,2.24,10.79,3.76,16.09
		C-22.63,495.41-21.9,489.41-20.73,483.49z"/>
	<path class="st3" d="M-11.07,484.19c2.49-0.01,4.97,0,7.46,0c-0.2,3.73-0.82,7.42-1.54,11.08c0.65-0.19,1.96-0.56,2.61-0.75
		c0.48-3.46,0.56-6.98,1.51-10.36c2.49,0.02,4.98,0.03,7.48,0.04c-1.49,10.12-2.67,20.27-4.15,30.38c-2.52,0.08-5.03,0.1-7.55,0.1
		c0.23-4.23,1.35-8.34,1.58-12.57c-0.54-0.04-1.61-0.13-2.15-0.18c-0.86,5.31-1.44,10.66-2.25,15.98
		C-8.3,528.27-8.03,538.64-8.06,549c-2.56,0.01-5.12,0.01-7.67,0.01c0.11-1.86,0.24-3.72,0.36-5.58c-3.58-0.78-3.29,3.17-3.79,5.57
		c-2.64,0.01-5.27,0.01-7.9,0.02c2.7-10.09,5.15-20.26,8-30.3c3.24,0.02,6.48,0.04,9.72-0.04c-1.2-2.24-3.26-3.83-5.79-4.2
		C-13.83,504.37-12.51,494.27-11.07,484.19 M-17.28,537.31c0.41,1.1,1.49,0.99,2.42,0.95c0.13-4.05,0.51-8.08,0.68-12.13
		C-15.67,529.72-16.28,533.57-17.28,537.31z"/>
	<path class="st3" d="M18.46,484.3c5.16-0.04,10.33,0.01,15.5-0.04c-0.18,2.04-0.37,4.08-0.59,6.13c-1.38,0.03-2.76,0.06-4.13,0.1
		c-1.32,7.95-2.25,15.95-3.29,23.94c-3.05,0.27-5.42,2.22-7.35,4.43c4.06,0.06,8.17-0.32,12.2,0.35c3.78,1.45,3.38,6.13,2.77,9.37
		c-0.28,2.04-2.17,3-3.8,3.84c2.21,0.89,3.65,3.1,3.06,5.52c-0.52,3.8-0.37,9.33-4.85,10.77c-4.65,0.6-9.36,0.18-14.04,0.29
		c2.2-19.55,5.07-39.05,7.69-58.56c-1.34,0.01-2.68,0.02-4.02,0.04C17.89,488.41,18.17,486.36,18.46,484.3 M24.09,530.71
		c2.77-0.82,3.87-5.05,1.82-7C23.32,524.58,24.5,528.55,24.09,530.71 M23.36,534.93c-0.47,3.03-1.02,6.04-1.41,9.07
		c0.92-0.4,1.83-0.81,2.75-1.21c0.22-2.37,0.44-4.74,0.64-7.1C24.85,535.5,23.85,535.12,23.36,534.93z"/>
	<path class="st3" d="M36.19,484.24c4.42,0.04,8.85-0.04,13.27,0.08c1.04,2.05,2.12,4.08,3.21,6.1c-3.19-0.03-6.37-0.04-9.56-0.1
		c-0.33,1.85-0.65,3.71-0.96,5.58c4.48,0.02,8.97-0.09,13.45,0.08c1.17,1.97,2.41,3.89,3.67,5.8c-5.98-0.13-11.97-0.08-17.96-0.08
		c-0.17,2.29-0.39,4.57-0.7,6.84c4.56-0.01,9.11-0.07,13.67,0.05c-1.53,2.03-3.09,4.04-4.62,6.07c-5.86-0.03-11.72-0.01-17.58-0.02
		C33.48,504.51,34.79,494.37,36.19,484.24z"/>
	<path class="st3" d="M-42.68,518.84c4.22-0.04,8.46-0.25,12.66,0.26c2.97,0.6,3.88,4.05,3.47,6.68c-0.25,3.07-0.94,7.57-5.02,7.35
		c1.49,0.87,3.32,1.82,3.56,3.75c-0.51,3.96-1.36,7.88-1.42,11.9c-2.44,0.23-4.89,0.3-7.33,0.27c0.44-4.33,1.62-8.6,1.51-12.96
		c-0.44-0.19-1.33-0.56-1.77-0.74c-1.1,4.39-1.14,8.96-2.03,13.39c-3.63,0.3-6.14,3.08-8.29,5.72
		C-45.86,542.58-44,530.74-42.68,518.84 M-36.65,531.13c3.69-0.58,2.89-4.83,2.73-7.53C-37.26,524.11-35.73,528.71-36.65,531.13z"/>
	<path class="st3" d="M-2.1,518.84c4.3,0.09,8.65-0.31,12.92,0.37c5.11,2.19,4.4,11.92-1.19,13.03c4.45,1.5,3.35,6.59,2.72,10.18
		c-0.43,2.6-1.55,5.58-4.39,6.32c-4.69,0.55-9.43,0.16-14.14,0.26C-4.83,538.94-3.56,528.88-2.1,518.84 M4.96,523.56
		c-0.59,2.33-1.05,4.71-0.83,7.13c1.03-0.72,2.76-1.04,2.63-2.65C6.9,526.29,7.52,523.63,4.96,523.56 M3.29,535.02
		c-0.47,3-0.93,6.02-1.14,9.06c3.95-0.89,2.87-5.42,3.23-8.47C4.86,535.46,3.81,535.16,3.29,535.02z"/>
	<path class="st3" d="M37.81,518.82c2.49,0.01,4.99,0.01,7.5,0.01c-1.42,10.05-2.56,20.14-4.16,30.16
		c-2.48,0.02-4.97,0.02-7.45,0.01C35.07,538.95,36.25,528.85,37.81,518.82z"/>
	<path class="st3" d="M47.03,524.85c0.25-2.02,0.53-4.03,0.82-6.04c6.98-0.08,13.96-0.06,20.94-0.01c1.13,2.04,2.28,4.06,3.43,6.09
		c-4.32-0.01-8.63-0.03-12.95,0.02c-1.3,9.71-2.61,19.42-3.88,29.14c-1.85-2.23-3.53-5.1-6.75-5.33c0.79-7.97,2.05-15.89,3.13-23.83
		C50.19,524.88,48.61,524.86,47.03,524.85z"/>
	<path class="st3" d="M-19.06,561.86c-0.92-5.32,5.47-5.61,9.13-5c-0.31,0.64-0.95,1.91-1.26,2.55c-1.59-0.16-3.18-0.25-4.77-0.05
		c1.34,2.14,4.87,1.75,5.41,4.51c-0.21,3.68-4.69,4.36-7.57,3.91c-1.35,0.09-2-0.53-1.97-1.85c1.71-1.87,4.74,0.83,6.36-1.44
		C-15.5,563.6-17.28,562.73-19.06,561.86z"/>
	<path class="st3" d="M-7.99,556.79c2.58-0.03,5.21-0.34,7.75,0.24c2.09,1.17,1.98,3.57,0.99,5.44c-1.67,0.9-3.46,1.57-5.37,1.77
		c-0.29-2.28,3.24-2.8,2.39-5.08c-0.67-0.11-2.02-0.32-2.69-0.43c-0.18,3.03-0.55,6.05-1.06,9.04c-0.85,0.02-2.54,0.05-3.39,0.06
		C-8.97,564.14-8.36,560.48-7.99,556.79z"/>
	<path class="st3" d="M5.51,557.48c1.05-0.7,4.06-2.07,3.7,0.52c-1.12,1.2-2.81,2.13-2.97,3.95c-0.84,1.99,1.66,4.9,3.55,3.08
		c3.36-2.18,0.65-5.93-0.04-8.72c2.97-0.03,6.07,2.34,5.37,5.58c-0.31,5.3-7.77,7.84-11.46,4.3C1.34,563.55,2.73,559.2,5.51,557.48z
		"/>
	<path class="st3" d="M17.34,556.92c1.22-0.09,2.44-0.18,3.66-0.27c-0.26,1.68-0.52,3.37-0.76,5.06c0.7-0.19,2.09-0.55,2.79-0.74
		c1.65-1.7-2.69-2.41-1.01-4.26c1.88-0.14,4.2,0.13,4.99,2.14c0.38,1.71-1.18,2.73-2.12,3.87c0.93,1.53,1.26,3.28,1.49,5.03
		c-0.83,0.01-2.5,0.05-3.33,0.06c-0.73-1.59-0.69-4.09-2.89-4.29c-0.18,1.38-0.36,2.76-0.53,4.14c-1.27,0.05-2.53,0.1-3.8,0.15
		C16.52,564.21,17.17,560.59,17.34,556.92z"/>
	<path class="st3" d="M29.39,556.95c3.4-0.32,6.82-0.1,10.23-0.12c0.13,2.66-1.93,2.73-3.98,2.67c-0.33,2.71-0.58,5.44-0.8,8.17
		c-1.28,0.03-2.55,0.06-3.83,0.1c0.64-2.74,1.05-5.52,1.31-8.32c-1.14-0.06-2.28-0.11-3.42-0.17
		C29.02,558.7,29.27,557.54,29.39,556.95z"/>
	<path class="st3" d="M40.16,559.28c1.97-3.1,5.85-2.65,9-2.36c-0.26,0.66-0.77,1.98-1.03,2.63c-1.39-0.22-2.78-0.42-4.17-0.6
		c-0.26,3.04,4.89,1.98,4.86,5.15c-0.9,4.25-6.45,4.21-9.77,3.23c0.23-0.59,0.69-1.77,0.91-2.36c1.54,0.17,4.81,1.68,5.11-0.72
		C43.18,563,38.92,562.44,40.16,559.28z"/>
	<path class="st3" d="M-26.79,564.07c1.1-2.17,3.71-1.25,5.62-1.55c0.03,0.49,0.08,1.48,0.11,1.97
		C-22.98,564.47-24.9,564.39-26.79,564.07z"/>
</g>
<g id="_x23_000000ff">
	<path d="M26.56,405.25c3.34-0.57,6.76-0.68,10.09,0.03c-2.23,1.49-4.72,2.89-6.07,5.33c-1.48,2.16-1.25,4.88-1.39,7.36
		c-0.95-0.94-1.96-1.84-3.17-2.42c-0.29-0.12-0.85-0.35-1.13-0.46c-0.91-1.64-1.8-3.39-1.35-5.32
		C24.78,408.43,25.77,406.89,26.56,405.25z"/>
	<path d="M53.36,418.14c1.96,1.84,3.38,4.2,3.89,6.87c-0.4-0.02-1.19-0.06-1.58-0.08c-1.76-0.13-3.51-0.25-5.27-0.37
		C51.53,422.48,52.51,420.34,53.36,418.14z"/>
</g>
<g id="_x23_c9282cff">
	<path class="st4" d="M30.58,410.61c1.35-2.44,3.84-3.84,6.07-5.33c6.41,3.04,11.86,7.62,16.8,12.64l-0.09,0.22
		c-0.85,2.2-1.83,4.34-2.96,6.42c-7.36-0.25-16.17-0.27-21.21-6.59C29.33,415.49,29.1,412.77,30.58,410.61 M39.3,414.21
		c-0.03-2.24-1.72-5.12-4.31-4.4C33.68,412.5,37.13,414.04,39.3,414.21z"/>
	<path class="st4" d="M-39.45,566.39c-3.34-3.08-0.31-8.73,3.56-9.64c2.47-0.49,5.81-0.81,7.47,1.53c1.05,1.55,0.5,3.48,0.5,5.22
		c-2.37,0.02-4.75,0.06-7.12,0.1c-0.01-0.67-0.02-2.01-0.03-2.68c0.84,0,2.5-0.01,3.33-0.01c-0.22-4.26-6.06-1.24-5.14,1.88
		c0.37,3.82,5.28,2.06,7.82,2.12c-0.08,0.64-0.24,1.93-0.32,2.57C-32.7,567.76-36.57,568.55-39.45,566.39z"/>
</g>
</svg>
