<?xml version="1.0" encoding="utf-8"?>
<!-- Generator: Adobe Illustrator 19.0.0, SVG Export Plug-In . SVG Version: 6.00 Build 0)  -->
<svg version="1.1" id="Layer_1" xmlns="http://www.w3.org/2000/svg" xmlns:xlink="http://www.w3.org/1999/xlink" x="0px" y="0px"
	 viewBox="249.2 186.5 506 468.7" style="enable-background:new 249.2 186.5 506 468.7;" xml:space="preserve">
<style type="text/css">
	.st0{fill:#EDC41C;}
	.st1{fill:#ECECEC;}
	.st2{fill:#161616;}
</style>
<g id="_x23_edc41cfd">
	<path class="st0" d="M446.3,201.1c21.8-9,45.2-14,68.8-14.5c27.8-0.7,55.5,5.2,81,16.3c18.8,8.2,35.5,20.7,49.5,35.6
		c24.2,25,41.1,57.4,45.2,92.2c9,6.6,13.5,17.5,15,28.3c0.7,5.3-0.5,10.7,0.6,15.8c6.5,12.8,13.3,25.4,19.8,38.2
		c1.3,3.5,2.9,7.3,1.9,11.1c-2,9.5-5.7,19.2-12.9,26c-6.1,6-12.3,12.9-21,14.7c-9.8,2.3-18.9-4.1-28.7-2.3c-2.9,1.3-5.3,3.4-7.8,5.2
		c9.2-0.2,18.6-1.4,27.6,1.1c2.9,0.6,5.2,2.6,7.5,4.3c4.2-3.2,9.2-5,14.4-5.6c7.7-0.1,15.3,0.7,23,0.5c7,0.3,14.8,1.8,19.8,7.2
		c4.3,4.4,7.2,11.5,4,17.4c-2.1,6.3-8.6,9.7-10.4,16.1c-17.1,44.2-34,88.4-51.3,132.6c-1.2,4.5-4.1,8.6-8.1,11
		c-6.1,3-13.3,4.1-20,2.2c-7.2-1.4-14.1-6.5-15.8-13.9c-0.8-2.7-1.1-5.5-1.4-8.3c-2.9,5.2-3.8,11.9-8.9,15.6
		c-3.5,3.3-8.5,3.8-13.1,4.5c-8.4,0.3-18.3-1.5-23.2-9.1c-4.4-7.4-3.8-16.6-3-24.8c-0.5,0.2-0.9,0.3-1.3,0.5c0.6,4.3-2,8.2-3.4,12
		c-4.4,8.5-12.6,15.2-21.9,17.5c-3,0.9-6,1.8-9,2.1c-15-0.4-30-0.3-45-0.4c-3.1,0.1-5.9-1.2-8.9-1.7c-3,0.6-5.9,1.8-9,1.7
		c-6.4-0.1-12.7,0-19.1,0c-7,0-14.5-3-18.3-9.2c-2.3,3.6-5.6,6.6-9.7,7.9c-6.8,2.3-14.1,1.1-21.1,1.5c-5,0.2-10-0.2-14.8-1.8
		c-7.2,2.6-14.8,1.3-22.2,1.5c-3.3,0.1-6.7,0.2-10,0c-8.5-0.7-17.4,0.7-25.6-2.5c-11.4-3.6-19.8-15.4-18.8-27.4
		c1.8-8.7,4.2-17.3,6-26c0.9-6,2.5-11.9,4-17.8c1.2-4.5,4.2-8.2,8-10.8c-2.4-4-4.4-9-2.8-13.7c3.4-12.5,5.2-25.4,8.6-37.8
		c2.1-7.9,7.2-15.2,14.5-19.3c-30.4-18-64.2-30-98.9-36.2c-7.2-1.5-14.8-1.9-21.5-5c-4.8-2.1-5.9-7.8-6.8-12.4c1-4.4,2-9.8,6.5-11.9
		c6.8-3.2,14.5-3.9,21.9-5.1c19.2-2.6,38.8-4,58.1-2.6c-3.4-2.9-4.6-7.5-5.5-11.7c0.4-3.2,1.4-6.5,2.9-9.3c1.6-2.9,4.9-4.1,7.9-4.9
		c27.9-6.7,55.6-18.4,76.1-38.9c4.3-3.8,7.9-8.2,11.9-12.1c-16.9-15.6-29.2-36.1-34-58.6c-4.4-16.8-0.4-34.8,7.5-50
		C413.5,219.4,429.5,208.2,446.3,201.1 M474.4,197.4c-15.3,4-30.4,9.4-43.6,18.2c-8.8,5.8-16.2,13.7-21.1,23
		c-6.5,12.6-10.2,27.1-7.9,41.2c3.4,20.2,13,39.3,27,54.2c3.3,3.4,6.5,7,10.7,9.4c-7.9,9-16.2,17.7-25.4,25.4
		c-17.1,14-37.8,23.2-59,29.2c-4.8,1.5-10,1.8-14.3,4.6c-3.1,4-3.2,9.7,0,13.6c1.9,1.4,4.1,1.9,6.3,2.5
		c29.8,6.3,59.6,14.4,86.9,28.2c14.8,7.4,28.3,19.3,34.2,35.2c-12.7-9.1-25.4-18.2-38.4-27c-18.8-12.2-40.1-20-62-24.5
		c-31.9-6.4-64.8-5-96.8,0.3c-3.9,0.7-8,1.5-11.4,3.8c-2,2.9-3.3,6.8-1.5,10.2c1.4,5,7.5,5.3,11.6,6.4
		c42.5,6.5,84.2,20.4,120.3,44.1c-6.8,2.3-13.3,6.4-17.1,12.6c-3.1,4.7-4.1,10.4-5.3,15.8c-2.1,9.8-4.3,19.5-6.5,29.2
		c-1,3.3,0.2,6.9,2.1,9.7c2.6,3.2,6.6,4.8,9.9,7.1c-3-0.8-6.1-2-9.1-0.6c-4.9,1.3-7.9,5.9-8.9,10.7c-2.8,12.9-5.7,25.7-8.6,38.5
		c-1.5,5.6,0.5,11.6,3.7,16.2c4.5,6.2,12.3,9,19.7,9.4c12.7,0.3,25.3,0.5,38,0.5c3.1,0,6.1-1.1,9.2-1.6c3.6,0.7,7.1,2.2,10.9,1.8
		c8-0.5,16.3,1.3,24-1.4c5.6-1.9,7.3-8.1,8.3-13.3c3.1-14.1,6.2-28.2,9.4-42.3c1.7,0,3.5,0,5.2-0.1c-3.2,14.5-6.4,29-9.5,43.5
		c0,4.9,2.9,10,7.5,11.9c5,2.5,10.7,1.6,16,1.6c4.3-0.2,8.7,0.2,13-0.1c2.7-0.2,5.1-1.7,7.8-1.8c3.7,0.8,7.3,2.2,11.2,1.9
		c12.7-0.1,25.3,0.1,37.9,0.2c11.3,0.3,23.2-4.9,29.2-14.8c3-5,3.9-10.9,5.2-16.6c3.1-13.9,5.9-27.8,9.1-41.6c0.3,20,1,40,1.4,60.1
		c0.2,5.3,3,10.9,8.3,12.8c6.9,2.7,15.4,3.2,21.8-0.9c4.2-2.7,5.1-7.9,7-12.1c3.2-7.7,6-15.5,9.5-23c0.7,8.4,1.5,16.8,2.3,25.2
		c0.5,5.1,2.5,10.7,7.3,13.2c5.7,2.8,12.6,3.9,18.6,1.4c3.5-1.2,6.3-4,7.6-7.4c17.7-45.6,35.4-91.3,52.8-137c2.9-6,9.5-10,10.4-17.1
		c-0.5-4.6-3.2-9.1-7.5-11.1c-6.5-3.2-14-2.2-21-2.7c-7,0-14.3-1.5-20.9,1.6c-3.9,1.4-6.5,5-7.8,8.8c-1.3-2.9-2.5-6.1-5.3-7.9
		c-3.3-2.1-7.2-3-11.1-3c-8.4,0-16.7,0.2-25.1,0.5c-3.5,0.1-6.8,1.4-10,2.7c-1.8-0.5-3.6-1-5.3-1.5c9-3.3,16.4-9.3,24-15
		c4.9-4.1,11.8-3.1,17.6-1.9c6.6,1.8,14.2,3.5,20.6,0c5-2.8,9-7,13.1-11c6.4-6,9.8-14.5,11.7-22.8c1.3-5.1-2.1-9.7-4.2-14.1
		c-5.8-11.2-11.8-22.3-17.5-33.6c-1.2-5.6,0.1-11.5-0.7-17.2c-1.4-9.9-6.1-19.9-14.7-25.4c-0.9-12.5-4.3-24.6-8.6-36.3
		c-10.8-28.2-30-52.7-53.4-71.6c-19.3-15.1-42.6-24.4-66.4-29.6C529.8,190.2,501.3,190.7,474.4,197.4z"/>
	<path class="st0" d="M447.5,219.4c17.9-8.8,37.6-13.1,57.4-14.8c30-2.4,61.2,1.4,88.4,14.9c17.4,8.5,31.4,22.4,44.1,36.8
		c15.2,17.9,28,39,31.7,62.5c-6.1-3.3-12-6.8-17.9-10.2c-5.1-15.6-12.3-30.6-21.4-44.3c-9.4-14-21.3-26.8-36.3-34.9
		c-23.6-12.8-50.6-18.8-77.4-19.2c-23.5-0.2-47.4,4.3-68.3,15.4c-12.2,8.3-23.2,19.1-29.6,32.5c-2.7,5.5-3.9,11.5-4.8,17.5
		c0-14,4.7-28,13.4-39C432.5,229.7,439.3,223.2,447.5,219.4z"/>
	<path class="st0" d="M485.8,268.6c12.6-3.4,25.7-3.6,38.6-3.3c-2.3,8.6,1.1,17.4,5.2,25c-17,3.1-33.4,9.5-48.6,17.6
		c-8.9,4.6-17.1,10.5-24.5,17.1c-0.4-12.8-0.1-26.6,6.7-38C468.4,278.7,476.1,271.3,485.8,268.6 M488.4,273.5
		c-10.2,2.6-18.3,10.8-22.6,20.3c-2.9,6.2-3.4,13.1-4,19.7c17.8-13,38.5-21.7,59.8-27c-1.7-5.1-3.4-10.3-3.6-15.7
		C508.1,270.7,498.1,271.3,488.4,273.5z"/>
	<path class="st0" d="M640.7,355.9c2.5,1.4,4.9,2.8,7.4,4.2c0.6,1.8,1.2,3.7,1.9,5.5C646.3,362.8,643.3,359.4,640.7,355.9z"/>
	<path class="st0" d="M600.5,418.8c-0.6-2.5,1.5-4.1,3.2-5.5c3.6,1.4,7.3,2.5,11,3.5c-1.7,2.7-2.5,5.9-1.8,9c1,4.7,0.8,9.4,0,14.1
		c-1-2.8-1.6-5.9-3.8-8.1C605.6,428,601.5,424.1,600.5,418.8z"/>
	<path class="st0" d="M631.5,441.9c0.5-6.1-0.9-13.4,4-18.1c8.6,8.6,17.8,18.3,30.3,20.6c-6.6-1.1-12.6,2.1-18.1,5.3
		c1.1-1.8,3.6-3.1,4-5.2c-3.5-2.4-7.2-4.4-10.6-6.9c-0.1,7.4-2.6,15.8-9.4,19.8c-6.8,4.1-15.4,3.4-22.7,0.9
		c5.1,0.5,10.8,0.8,15.2-2.3C628.5,452.7,631.7,447.5,631.5,441.9z"/>
	<path class="st0" d="M262.8,497.7c3.5-2.6,7.8-4.2,12.1-4.5c21.3,0.4,42.7-0.3,64-0.9c9.7,0.1,17.9,8.9,17.5,18.4
		c-1.5,7.1-3.5,14-5,21.1c-1.2,6.7-7,12-13.5,13.3c-4.7,1.5-9.7-0.3-13.8-2.5c-1.3,8.5-3.9,16.8-5.7,25.3c-1.5,9.1-4.6,17.8-6,26.9
		c-2,7.7-3.8,15.4-5.4,23.2c1.6,3.1,2.9,6.4,3.1,9.8c-0.7,4.8-2.4,10-6.5,12.9c-3.5,2.9-8.2,4-12.6,4c-8.4-0.8-16.7-1.6-25.1-2.7
		c-6.7-1-13.5-4.9-15.6-11.7c-2.3-5-0.9-10.8,1.9-15.3c1.4-2.1,3.8-3.5,4.2-6.1c5.3-21.1,9.6-42.4,14.9-63.4
		c-4.2-0.5-8.6-1.2-11.9-4.1c-4.1-3.2-6.3-8.4-6.6-13.5c0.6-4.7,2.3-9.2,3-13.8C256.8,508.2,258.4,501.9,262.8,497.7 M275,498.7
		c-4.3,0.2-8.8,2.4-10.9,6.3c-2.3,4.6-2.6,9.9-4,14.8c-0.7,3.9-2.7,8-0.9,11.9c1.2,3.8,4.4,6.7,8.2,7.6c4.1,1.5,8-1.2,11.4-3.1
		c-3.6,16.2-7.4,32.3-11.1,48.5c-2.4,9.6-4.2,19.4-6.9,28.9c-2.8,3-5.8,6.1-6.2,10.4c0,4.9,3.1,9.9,7.9,11.4c6,2,12.3,2,18.5,2.8
		c5.6,0.4,11.6,2.2,17-0.4c4-1.6,6.2-5.8,6.7-9.9c0-3.4-2.4-6-3.4-9.1c0.3-3.1,1.3-6,1.9-9c5.8-24.6,11.4-49.3,17-73.9
		c5.3-1.2,8.6,4.5,13.8,4.5c4.1-0.3,8.4-2.4,10.6-6c2.3-4.4,2.7-9.4,4-14.1c0.9-4.9,3.6-10.2,1.1-15.1c-2-5.5-8.2-7.8-13.6-7.3
		C315.7,498.7,295.4,499,275,498.7z"/>
</g>
<g id="_x23_ecececff">
	<path class="st1" d="M474.4,197.4c27-6.7,55.5-7.3,82.7-1.5c23.8,5.3,47.1,14.6,66.4,29.6c23.4,18.9,42.6,43.4,53.4,71.6
		c4.3,11.7,7.7,23.9,8.6,36.3c8.6,5.6,13.3,15.5,14.7,25.4c0.8,5.7-0.6,11.6,0.7,17.2c5.7,11.2,11.7,22.4,17.5,33.6
		c2.1,4.4,5.5,9,4.2,14.1c-1.9,8.4-5.3,16.8-11.7,22.8c-4.1,4-8.1,8.2-13.1,11c-6.4,3.5-14,1.7-20.6,0c-5.8-1.3-12.7-2.2-17.6,1.9
		c-7.5,5.7-15,11.7-24,15c1.8,0.5,3.6,1,5.3,1.5c3.2-1.3,6.5-2.6,10-2.7c8.4-0.3,16.7-0.6,25.1-0.5c3.9,0,7.8,0.9,11.1,3
		c2.8,1.8,4,5,5.3,7.9c1.3-3.8,3.9-7.4,7.8-8.8c6.5-3.1,13.9-1.6,20.9-1.6c7,0.5,14.4-0.5,21,2.7c4.3,2,7,6.5,7.5,11.1
		c-0.9,7.1-7.5,11.1-10.4,17.1c-17.5,45.7-35.1,91.4-52.8,137c-1.3,3.5-4.1,6.3-7.6,7.4c-6,2.5-12.9,1.3-18.6-1.4
		c-4.8-2.5-6.9-8.1-7.3-13.2c-0.8-8.4-1.5-16.8-2.3-25.2c-3.5,7.5-6.3,15.4-9.5,23c-1.9,4.2-2.8,9.4-7,12.1
		c-6.5,4.1-14.9,3.7-21.8,0.9c-5.2-1.9-8.1-7.5-8.3-12.8c-0.4-20-1.1-40-1.4-60.1c-3.2,13.8-6,27.8-9.1,41.6
		c-1.3,5.6-2.2,11.5-5.2,16.6c-5.9,9.9-17.9,15.1-29.2,14.8c-12.7-0.1-25.3-0.3-37.9-0.2c-3.8,0.3-7.5-1.1-11.2-1.9
		c-2.7,0.1-5.1,1.6-7.8,1.8c-4.3,0.3-8.7-0.1-13,0.1c-5.4,0-11,0.8-16-1.6c-4.6-1.9-7.5-7-7.5-11.9c3.1-14.5,6.3-29,9.5-43.5
		c-1.7,0-3.5,0-5.2,0.1c-3.1,14.1-6.3,28.2-9.4,42.3c-1,5.2-2.7,11.4-8.3,13.3c-7.7,2.7-16,0.9-24,1.4c-3.8,0.4-7.3-1.1-10.9-1.8
		c-3,0.5-6,1.6-9.2,1.6c-12.7,0-25.3-0.2-38-0.5c-7.4-0.4-15.3-3.2-19.7-9.4c-3.2-4.6-5.2-10.6-3.7-16.2c2.9-12.8,5.8-25.7,8.6-38.5
		c0.9-4.8,4-9.3,8.9-10.7c3-1.5,6.1-0.2,9.1,0.6c-3.3-2.3-7.3-3.9-9.9-7.1c-1.9-2.8-3.1-6.4-2.1-9.7c2.2-9.7,4.4-19.5,6.5-29.2
		c1.2-5.4,2.2-11.1,5.3-15.8c3.8-6.2,10.3-10.3,17.1-12.6c-36.1-23.6-77.8-37.5-120.3-44.1c-4.2-1.1-10.3-1.4-11.6-6.4
		c-1.8-3.4-0.5-7.2,1.5-10.2c3.4-2.3,7.5-3,11.4-3.8c31.9-5.2,64.9-6.6,96.8-0.3c21.9,4.5,43.2,12.3,62,24.5
		c13,8.7,25.7,17.8,38.4,27c-5.9-15.9-19.4-27.7-34.2-35.2c-27.3-13.8-57.1-21.9-86.9-28.2c-2.2-0.6-4.5-1.1-6.3-2.5
		c-3.2-4-3.1-9.6,0-13.6c4.3-2.7,9.6-3.1,14.3-4.6c21.2-6.1,41.9-15.2,59-29.2c9.2-7.7,17.5-16.4,25.4-25.4
		c-4.2-2.4-7.4-5.9-10.7-9.4c-14-14.9-23.6-34-27-54.2c-2.4-14.2,1.3-28.7,7.9-41.2c4.9-9.3,12.3-17.2,21.1-23
		C444,206.8,459.1,201.4,474.4,197.4 M467,208.9c-18.1,5.6-36.4,14.7-47.2,30.8c-9,13.1-11.3,30-7.6,45.2
		c4.5,19.5,16.4,36.8,31.4,49.9c-7-8.4-11.3-19-12.3-30c-1-10.8,1.1-21.7,5.2-31.7c4.3-10,12.4-17.8,21.7-23.2
		c17.4-10.1,37.9-13.5,57.8-13.3c16.7,0.5,34.1,3.4,48,13.1c14.7,10.3,24.3,26.3,29.8,43.1c-10.4-9-24.1-12-36.9-15.7
		c-8.4-2.5-17-6.1-22.9-12.8c-1,4.4-1.5,9.1,0,13.4c2.1,7,7.4,12.5,13.4,16.5c5.8,4.4,6,12.6,5.3,19.2c-2.1-4.7-3.8-9.6-5.9-14.4
		c-4.9,0-9.8,0-14.7,0.3c-9.8,0.9-19.3,4.2-28.4,7.8c-12.9,5.3-25.5,11.8-36.2,20.8c-6.7,5.6-12.6,12.2-18.4,18.8
		c-9.8,11.1-19.9,22.2-31.6,31.3c-20.6,15.5-45.1,24.8-69.9,31.2c19.5,4,38.7,9.1,57.5,15.5c15.4,5.4,30.7,11.6,44.5,20.3
		c14.4,9.1,25.3,23.9,29,40.6c0.1,1.6,2,1.6,3.1,2.4c4.4,1.6,6.5,6.3,7.2,10.6c-0.9,6.6-3.1,13-3.9,19.6c4.7-5.7,6.4-13.3,7.7-20.4
		c2.8-18.6-1.4-38.1-10.2-54.6c-12.9-22.6-37-36.6-61.6-43.2c12.2-11.7,24.2-23.4,36-35.4c13.4-13.7,28.1-26,43.6-37.3
		c10.7-6.9,21.4-15,34.4-16.4c2.3-0.1,5.8-0.7,6.9,2c2.9,6.7,5.3,13.6,7.7,20.6c2.5-2.3,5.5-4,7.9-6.4c3.6-4.2,4.2-10.1,4.1-15.4
		c-0.3-8.8-2.3-18.5-9.7-24.1c8.1,2.5,16.8,2.9,24.6,6.7c8.3,4,14.1,11.5,19.2,19c8.5,13,16.5,26.6,27.5,37.8
		c-5.3-10.5-10-21.3-14.5-32.1c16.3,6,32.5,12.2,48.6,18.6c8,4.1,16.8,9.3,20,18.2c1.1,5.7-0.3,11.7,0.5,17.5
		c2.8,5.3,6.4,10,8.9,15.4c5,9.9,10.8,19.3,15.1,29.5c0.9,3,3.1,7,0.3,9.5c-3.5,3.8-7.1,7.5-10.9,11c-2.6,3-6.8,1.1-9.9,0.2
		c-13.4-5.2-25.8-12.8-38-20.2c-3.6-2-6.8-5-10.9-5.8c-11.5-2.9-23.1-6.6-33.1-13.2c-11.1-7.4-16.5-21-17.5-33.9
		c-1.4,1.8-2.9,3.6-4,5.6c-0.1,3.5,1.7,7,0.7,10.5c-1.3,5-4.6,9.3-8.6,12.6c-6.6,5.6-12.5,12.1-18,18.8c-2.7,3.2-3.7,7.4-4,11.5
		c-0.8,11.3,0.1,22.7,0,34c-0.2,8.1-3,15.9-6.8,22.9c3.3-1.1,6.7-2,10.3-2.2c8.9-0.7,17.7-1.4,26.6-2.1c9.1-19.6,6.9-42.9-2-62.1
		c-1.3-2.7-2.9-6-1-8.8c2.3-3.1,5.6-5.3,8.2-8.1c4.8,6.1,11.8,9.8,18.7,12.9c-2.4,1.9-5.1,4.3-4.5,7.7c0.8,5.8,5.5,9.7,8.6,14.3
		c3.4,5.5,2.3,12.4-0.1,18.1c5.6-2.7,12.6-4.2,15.6-10.3c4-6.6,0.8-14.9,5-21.4c2.4,0.5,4.7,1.1,6.6,2.7c-6.5,8.1-2.7,19.3-7.2,28
		c-2.1,4.2-6.9,6.3-11.5,6.3c-6.1,0-12.1-0.6-18.1-1.3c7.1,7.2,17.3,10.2,27.1,11.3c7.1,0.7,13.9-2.4,19.5-6.5
		c7-4.9,13.5-11.5,22.4-12.8c9.3-1.8,17.9,3.6,27.2,2.8c5.7-4,10.8-8.8,15.3-14.1c3.4-4.6,6.3-10.4,5.9-16.1
		c-7.1-14.2-14.8-28.2-21.9-42.4c-1.3-7.2,0.5-14.7-1.1-21.9c-1.8-7.5-7.6-13.3-14.2-16.9c0-8.3-1.2-16.6-3.3-24.7
		c-7.7-29.8-26.5-55.6-49.1-75.9c-17.8-16.2-40.2-26.9-63.6-32.3C529.5,199,497,199.9,467,208.9 M453.5,259.4
		c-8.1,6.5-13.7,16-15.1,26.4c-1.9,13.7,2.1,27.4,8.3,39.5c0.2-8.3,0-16.7,1.9-24.9c2.8-13.7,9.9-27.2,22-34.8
		c8.5-5.3,18.5-7.5,28.3-8.7c17.8-2.1,35.7-0.6,53.3,1.9c-15.5-8.2-32.7-13.4-50.2-14.3C484.8,243.7,467,248.4,453.5,259.4
		 M561.3,259.6c-0.8,3.6-2.7,6.8-6.4,7.7c6.2,1.8,12.4,3.4,18.5,5.3C569.9,267.8,565.7,263.6,561.3,259.6 M485.8,268.6
		c-9.7,2.7-17.4,10-22.6,18.4c-6.8,11.3-7.1,25.1-6.7,38c7.5-6.7,15.6-12.5,24.5-17.1c15.3-8,31.6-14.4,48.6-17.6
		c-4.1-7.5-7.5-16.3-5.2-25C511.5,265,498.4,265.3,485.8,268.6 M564.8,297.8c2.8,7.3,6.3,15.2,4.1,23.2c-1.7,4.4-4.9,8.2-7.3,12.2
		c3.7-1.3,7.5-2.5,11.5-2.6c5.4-0.2,10.3,2,15.5,3.2C583.8,320.2,575.9,307.3,564.8,297.8 M476.9,360.7
		c-12.1,11-23.8,22.4-35.7,33.6c4.8,0.1,9.4,1.5,13.5,3.9c9.4,5.4,16.1,14.1,22.1,22.9c4.8,7.2,10.1,14.3,13.5,22.3
		c0.3-1,0.6-2,0.9-3l-1,1.9c-4-12-8.6-23.8-14.5-35c-3.4-6.4-8.6-11.5-13.3-16.8c12-13.4,24.5-26.3,37.3-38.9
		c11.9-11.5,24-22.8,37.2-32.7C515.4,330.5,495.3,344.6,476.9,360.7 M630.9,343c1.2,4.7,5,8.1,6.4,12.8c1.7,4.8,5.6,8.2,9.9,10.6
		c-6.3,1.5-12.3-1.6-18.2-3.3c5.1,4.1,11.5,6.4,18,6.8c6.1,0.4,12.1-2.7,16-7.4c0-0.3-0.1-0.7-0.1-1c-5.1-2.2-10.7-3.3-15.6-5.9
		C641.1,352.4,635.8,347.8,630.9,343 M584.5,412.8c4.3,10.9,7.7,22.3,8.4,34.1c1.7-0.4,3.3-0.8,5.1-1c0.1-2.3,0.9-4.7,0.1-6.9
		c-2.4-3.4-5.4-6.4-7.1-10.3c-0.6-1.6-2.3-3.2-1.3-5c-0.2,0.2-0.5,0.5-0.7,0.6c-0.9-3.1-1.9-6.4-0.8-9.5
		C586.9,414.1,585.8,413.4,584.5,412.8 M266.5,441.2c48.8,7.3,97,23.6,137.6,52.1c10.7-0.9,21.3-1.9,32-2.9c3-0.3,5.9,0.5,8.8,1.2
		c4.6-2.7,10-3.2,15.2-3.5c-11.5-8.7-23.5-16.9-35.4-25.1c-20.4-13.9-44.4-21.7-68.7-25.1C326.3,434,295.9,435.6,266.5,441.2
		 M591.3,464.4c-0.9,4.2-2.2,8.2-3.5,12.2c4.7-0.7,9.5-0.1,14,1.3c4-2.1,8.5-3,13.1-3.1C606.5,472.7,598.2,469.8,591.3,464.4
		 M641.1,483.6c-2.3-3.3-6.3-4.9-10.2-4.6c-6.7,0.4-13.4,0.6-20,1c-3,0.2-5.8,1.6-7.9,3.6c-3.5-1.3-7.2-2.7-11-2.4
		c-14,0.9-28,2-42,3.2c-4.3,0.4-8.3,2.1-12.2,3.8c-2.5-1.2-5.1-2.5-7.9-2c-6.7,0.7-13.3,1.2-20,1.9c-3.2,0.4-6.8,1.4-8.5,4.3
		c-1.7,3.2-2.2,6.9-3,10.5c-3.2,15.3-6.6,30.7-9.9,46c-0.3,1-0.4,2.3-1.1,3.2c-5.1,0.6-10.2,0.5-15.3,1c3.8-17.3,7.5-34.6,11.3-51.9
		c1-3.9-1.6-8.4-5.6-9.3c-4.6-1-9.4,0.5-14.1,0.7c-6,0.9-13.2-0.2-17.8,4.6c-3.2-1.1-6.5-2.4-10-2c-12.7,1.2-25.4,2.3-38.1,3.3
		c-8.1,0.7-16.1,4.7-20.7,11.5c-2.2,3.2-3.2,7-4.1,10.7c-2.4,11.1-4.9,22.1-7.3,33.2c-0.9,3.2,1.2,6.6,4.1,8.1
		c11.8,7.3,23.6,14.5,35.4,21.8c-1.9,8.8-3.9,17.6-5.8,26.5c-4.3-0.1-8.7,0-13,0c0.9-3.8,1.5-7.6,2.7-11.3c1.7-2.2,3.3-4.5,4.2-7.2
		c-1-2.3-1.8-4.8-4.1-6.1c-6.1-3.8-12.1-7.9-18.3-11.6c-4.3-2.8-10,1-10.8,5.7c-3.1,13.3-6.1,26.7-9,40c-1,3.5,0.4,7,1.9,10.1
		c3.3,6,10.4,9,17,9.2c12.3,0.3,24.6,0.6,37,0.6c3.9,0.1,7.6-1.3,11.1-2.6c2.4,1.5,5,2.9,7.9,2.7c7.3-0.1,14.7,0.3,22-0.4
		c3.9-0.5,6.2-3.9,6.9-7.5c3.6-16.3,7.3-32.6,10.7-49c5.2-0.3,10.5-0.4,15.7-0.7c-3.5,15.9-6.9,31.7-10.4,47.6c-0.8,3,0.8,6.3,3.2,8
		c4.8,3,10.6,1.4,16,1.8c6.2-0.3,13.4,1.3,18.6-3.1c3.3,1.4,6.7,2.9,10.3,3c14.4,0,28.7,0.2,43.1,0.2c8.5-0.6,17-5,21.5-12.4
		c2.2-3.8,3.2-8.2,4-12.4c6.3-29.5,12.9-59,19.1-88.5c0.9,35.5,1.8,71,2.8,106.6c0.4,2.8,1.9,5.7,4.6,6.9c3.1,1.6,6.7,1.7,10.1,1.7
		c3.8,0,8-1.8,9.3-5.7c7-17,13.6-34.1,20.6-51c1.4,16.4,3.1,32.7,4.5,49.1c0.3,3.9,2.1,8.3,6.2,9.4c5.3,2,13.3,2.2,16.2-3.8
		c17.1-43.8,34-87.7,50.8-131.7c1.5-3.6,2.3-7.6,5.1-10.5c2.6-3.3,6-6.3,7-10.5c-0.5-2.8-2.2-5.5-4.9-6.7c-4.6-2.1-9.7-1.5-14.6-1.8
		c-6.1-0.1-12.2-0.8-18.2-0.2c-4.3,0.5-7.5,3.8-8.5,7.9c0.7,2.7,2.5,5.6,1.1,8.4c-5,13.5-10,27-15,40.6c-0.8-10.5-2-20.9-3-31.3
		c-0.2-2.6-1-5.3-0.4-7.9c2.5-3.3,5.9-5.9,7-10.1c-1-2.2-1.7-4.9-3.9-6.2c-3.6-2.4-8.2-1.8-12.3-1.8c-7.3,0.3-14.6,0-21.8,0.6
		C645.8,478.8,642.8,480.7,641.1,483.6 M692.1,487.9c-1.1,3.9-3.8,7-6.6,9.8c0.4,4.2,0.8,8.4,1.3,12.6c2.2-5.4,4.1-10.9,6.1-16.3
		C694.1,491.9,692.7,489.8,692.1,487.9 M483.1,525.6c-1.5,7.5-3.3,15-4.8,22.5c1.9-0.4,3.7-0.8,5.6-1.3c1.4-6.1,2.5-12.3,4.1-18.4
		C485.9,528.5,484.6,526.7,483.1,525.6 M373.7,570c6.4,5.2,14.1,8.7,20.6,13.8c2.5,2.9,4.5,7.2,2.9,11c-1,3.9-4.7,6.5-5,10.8
		c1.1,0,2.3,0,3.5,0.1c1.5-6.5,2.9-13.1,4.3-19.7C391.2,580.7,382.6,575.1,373.7,570z"/>
	<path class="st1" d="M648,360c3.1,1.3,6.3,2.2,9.5,3.1c-2.4,1.4-5,2.2-7.7,2.4C649.3,363.7,648.6,361.9,648,360z"/>
	<path class="st1" d="M648.7,486.2c10-0.6,20-0.4,30-0.6c-3.2,3.5-7.6,7-7.5,12.3c2.4,24.5,5,49,7.4,73.5
		c9.9-25.3,19-50.9,28.6-76.3c1.6-3.1-0.1-6.3-1-9.3c9.5,0.4,19.1,0.4,28.7,1.1c-3.3,4.4-7.7,8.1-9.4,13.4
		c-17.3,45.6-34.9,91.2-52.5,136.7c-1.9-0.1-3.8-0.2-5.7-0.3c-2.9-28.9-5.3-57.9-8.2-86.8c-11.4,28-22.3,56.3-33.8,84.3
		c-2.5-0.1-5-0.3-7.5-0.4c-1.1-45.6-2.3-91.2-3.5-136.8c0.4-3.7-3-6.2-4.6-9.1c8-0.4,15.9-1,23.9-1.1c0.8,27.7,1.5,55.5,2.3,83.3
		c6.9-18,13.3-36.1,19.9-54.3c0.2-6.6-1.2-13.2-1.6-19.8C654.3,491.9,650.8,489.2,648.7,486.2z"/>
	<path class="st1" d="M577.6,489.9c5.5-0.2,10.9-1,16.4-1c6,0,11.4,6,9.8,12.1c-8.4,39.3-16.8,78.6-25.4,117.8
		c-1,6.4-6.5,11.3-12.5,13c-4.2,1.1-8.6,0.4-12.8,0.5c-11.7-0.3-23.3,0-35-0.2c-6.2,0.1-11.9-5.9-10.1-12.2c8.2-38,16.5-76,24.6-114
		c2.2-9,11.6-14.4,20.5-14.2C561.2,491.1,569.4,490.4,577.6,489.9 M551.6,508.4c-7.6,35.9-15.4,71.7-23.2,107.6
		c10.1-0.2,20.3-0.3,30.5-0.2c8-36.5,15.8-72.9,23.6-109.4C572.2,506.9,561.9,507.6,551.6,508.4z"/>
	<path class="st1" d="M642.2,490.8c1.3,1.9,3.3,3.6,3.4,6.1c0.5,4.7,0.8,9.4,1.4,14c1.2,5.8-2.5,10.8-3.7,16.2
		C642.7,515,642.8,502.9,642.2,490.8z"/>
	<path class="st1" d="M507.9,495.7c8.1-0.8,16.2-1.6,24.3-2.2c-2.6,3.3-6.1,6.1-6.9,10.4c-8.5,39.7-17.1,79.4-25.7,119.1
		c-0.9,3.3,1.2,6.3,2.7,9.2c-8-0.1-16.1,0.1-24.1,0.1c4.3-19.3,8.4-38.6,12.7-57.9c-10.5,0.4-21.1,0.9-31.6,1.4
		c-4.1,18.9-8.1,37.8-12.5,56.6c-7.8,0.1-15.5,0-23.3,0c2.6-3,6.1-5.6,6.7-9.8c8.3-37.6,16.6-75.2,24.7-112.8c1.1-3.3-1.1-6.3-2.5-9
		c7.9-0.5,15.8-1.5,23.8-2.1c-4.6,20.7-9,41.5-13.5,62.2c10.5-0.6,21.1-1.1,31.6-1.7C498.9,538.1,503.3,516.9,507.9,495.7z"/>
	<path class="st1" d="M275,498.7c20.4,0.3,40.7-0.1,61.1-0.9c5.4-0.4,11.6,1.9,13.6,7.3c2.5,4.9-0.3,10.2-1.1,15.1
		c-1.3,4.7-1.7,9.8-4,14.1c-2.2,3.6-6.5,5.6-10.6,6c-5.2,0-8.4-5.7-13.8-4.5c-5.6,24.7-11.2,49.3-17,73.9c-0.6,3-1.6,6-1.9,9
		c1,3,3.4,5.7,3.4,9.1c-0.5,4.1-2.7,8.3-6.7,9.9c-5.4,2.6-11.3,0.8-17,0.4c-6.2-0.9-12.5-0.9-18.5-2.8c-4.8-1.5-7.9-6.5-7.9-11.4
		c0.4-4.3,3.4-7.4,6.2-10.4c2.8-9.5,4.5-19.3,6.9-28.9c3.7-16.2,7.5-32.3,11.1-48.5c-3.4,1.9-7.3,4.7-11.4,3.1
		c-3.8-0.9-7-3.9-8.2-7.6c-1.8-3.9,0.2-8,0.9-11.9c1.3-4.9,1.7-10.2,4-14.8C266.1,501.1,270.7,498.9,275,498.7 M275,503.3
		c-4.3-0.1-7.5,3.4-8.2,7.4c-1.3,5.4-2.5,10.8-3.6,16.2c-0.7,4.3,3,7.8,6.9,8.7c2.2-0.9,4.3-2,6.3-3.2c2.5-1.6,5.5-1.1,8.3-1.1
		c-6.5,28.2-12.8,56.5-19.7,84.6c-2,3-5.5,5.1-6.2,9c1,2,1.5,4.5,3.6,5.6c2.3,1.3,4.9,1.7,7.5,2c7,0.8,13.9,1.6,20.9,2.2
		c3.5,0.3,7.6-1.4,8.7-5c1.5-3.5-1.5-6.6-3.4-9.3c6.8-29.6,13.7-59.2,20.4-88.9c3.3,0,6.7-0.4,10,0c2.4,1.7,4.7,3.7,7.6,4.6
		c2.2-0.9,4.9-1.5,6.2-3.8c1.7-2.9,2.1-6.2,2.9-9.4c0.9-4.4,2.2-8.6,2.8-13.1c-0.3-2.7-1.7-5.5-4.4-6.5c-3.1-1.4-6.5-0.7-9.7-0.6
		C313,503.4,294,503.6,275,503.3z"/>
	<path class="st1" d="M397,505.9c13.4-1,26.7-2.3,40.1-3.4c3.9-0.4,8,1.8,9.6,5.4c1.1,2.7,0.3,5.5-0.2,8.2
		c-2.4,10.5-4.6,21.1-6.9,31.7c-6.7-4.2-13.6-8-20.2-12.2c1.6-1.2,3.6-2.1,4.9-3.7c1.5-4.3,2-8.9,3.2-13.4c-9.5,0.8-19,1.4-28.5,2.2
		c-2,9.4-4.2,18.7-6.1,28.1c13.8,8.1,27.5,16.4,41.2,24.6c-3.5,15.8-7,31.7-10.5,47.5c-1.3,5.9-6.7,10-12.4,11.3
		c-4.9,0.7-9.9,0.1-14.9,0.1c-8.7,0.1-17.4-0.2-26-0.3c-3.7,0-7.7-1-10.1-4c-1.9-2.3-2.2-5.5-1.4-8.3c2.9-13.2,6-26.4,8.9-39.7
		c6.1,3.9,12.2,7.8,18.4,11.8c-1.7,1.6-3.7,3.3-4.1,5.9c-1.5,6.6-2.9,13.2-4.4,19.8c9.4,0.1,18.8,0,28.2,0
		c2.7-12.3,5.4-24.5,8.1-36.8c-13.5-8.4-27.1-16.7-40.7-25c2.6-12,5.3-23.8,7.9-35.8C381.9,512.1,389.4,506.4,397,505.9z"/>
	<path class="st1" d="M273.9,510.2c21.7,0.7,43.4,0.1,65.1-0.7c-1.5,6.4-3.1,12.8-4.4,19.3c-2.3-2.3-5-4.5-8.4-4.6
		c-5-0.2-10.1,0.2-15.1,0.1c-7.2,31.2-14.2,62.5-21.6,93.6c-1.4,3.9,1.6,7.1,3.8,9.9c-9.1-1-18.2-1.8-27.3-3c2.2-2.1,5-3.9,5.8-7
		c7.4-31.1,14.5-62.3,21.6-93.4c-4.5-0.1-9-0.5-13.5-0.2c-3.8,0.2-7,2.3-10.1,4.3C271.2,522.4,272.5,516.3,273.9,510.2z"/>
	<path class="st1" d="M558.3,515.4c4.7-0.2,9.4-0.6,14.1-0.8c-6.7,31.2-13.3,62.4-20.1,93.6c-4.7,0-9.4,0-14,0.1
		C544.9,577.3,551.6,546.4,558.3,515.4 M562.5,520c-5.9,27.9-12,55.7-18.1,83.5c0.9,0,2.8-0.1,3.7-0.2c6-27.9,12-55.7,17.9-83.6
		C564.8,519.8,563.7,519.9,562.5,520z"/>
	<path class="st1" d="M404.8,527.5c4.5-0.3,8.9-0.8,13.4-0.9c-1.5,2.6-4.8,3.7-5.8,6.6c-1.7,3.5,1,7.4,4.1,9.1
		c7,4.1,13.8,8.5,20.9,12.3c-0.8,3.7-1.6,7.4-2.4,11.1c-11.4-6.7-22.7-13.7-34.2-20.3C402.1,539.5,403.5,533.5,404.8,527.5
		 M406.2,543.2c8.8,5,17.2,10.5,26.1,15.3c-0.4-1.1-1.2-2-2.3-2.5c-5.9-3.6-11.8-7-17.6-10.6c-2.8-1.6-4.2-4.7-5-7.7
		C407,539.4,406.6,541.3,406.2,543.2z"/>
</g>
<g id="_x23_161616ff">
	<path class="st2" d="M467,208.9c30.1-9,62.5-9.9,93.1-2.9c23.4,5.4,45.8,16.1,63.6,32.3c22.6,20.3,41.4,46.1,49.1,75.9
		c2.1,8.1,3.3,16.4,3.3,24.7c6.6,3.6,12.4,9.4,14.2,16.9c1.6,7.2-0.2,14.7,1.1,21.9c7.2,14.2,14.8,28.1,21.9,42.4
		c0.4,5.8-2.5,11.5-5.9,16.1c-4.5,5.3-9.6,10-15.3,14.1c-9.3,0.8-17.9-4.5-27.2-2.8c-8.8,1.3-15.4,7.9-22.4,12.8
		c-5.6,4.1-12.4,7.2-19.5,6.5c-9.8-1.1-20-4.1-27.1-11.3c6,0.6,12.1,1.3,18.1,1.3c4.5,0,9.3-2.1,11.5-6.3c4.6-8.8,0.8-19.9,7.2-28
		c-1.9-1.6-4.3-2.2-6.6-2.7c-4.2,6.5-1,14.8-5,21.4c-3,6-10,7.5-15.6,10.3c2.4-5.7,3.5-12.6,0.1-18.1c-3.1-4.6-7.8-8.6-8.6-14.3
		c-0.6-3.4,2.1-5.8,4.5-7.7c-6.9-3.1-13.9-6.8-18.7-12.9c-2.6,2.8-5.9,5-8.2,8.1c-1.9,2.8-0.3,6.2,1,8.8c8.9,19.2,11.1,42.5,2,62.1
		c-8.9,0.7-17.7,1.4-26.6,2.1c-3.5,0.2-6.9,1.1-10.3,2.2c3.8-7,6.6-14.8,6.8-22.9c0.1-11.3-0.8-22.7,0-34c0.3-4.1,1.3-8.3,4-11.5
		c5.5-6.7,11.4-13.2,18-18.8c3.9-3.3,7.3-7.6,8.6-12.6c1-3.5-0.8-7-0.7-10.5c1.2-2,2.6-3.7,4-5.6c1,12.9,6.4,26.5,17.5,33.9
		c10,6.6,21.6,10.3,33.1,13.2c4.2,0.8,7.3,3.8,10.9,5.8c12.3,7.4,24.6,15.1,38,20.2c3.1,1,7.3,2.8,9.9-0.2c3.8-3.5,7.4-7.2,10.9-11
		c2.8-2.5,0.6-6.6-0.3-9.5c-4.3-10.2-10.1-19.7-15.1-29.5c-2.6-5.4-6.2-10.1-8.9-15.4c-0.8-5.8,0.6-11.8-0.5-17.5
		c-3.2-8.9-12-14.2-20-18.2c-16.1-6.4-32.4-12.5-48.6-18.6c4.5,10.8,9.3,21.6,14.5,32.1c-11-11.2-19-24.8-27.5-37.8
		c-5.1-7.4-10.9-14.9-19.2-19c-7.7-3.7-16.5-4.2-24.6-6.7c7.4,5.6,9.4,15.3,9.7,24.1c0.1,5.3-0.4,11.2-4.1,15.4
		c-2.4,2.3-5.4,4.1-7.9,6.4c-2.4-6.9-4.8-13.8-7.7-20.6c-1-2.7-4.6-2.1-6.9-2c-13,1.4-23.7,9.5-34.4,16.4
		c-15.5,11.2-30.2,23.6-43.6,37.3c-11.8,12-23.9,23.8-36,35.4c24.6,6.6,48.7,20.6,61.6,43.2c8.8,16.6,13,36,10.2,54.6
		c-1.4,7.1-3,14.7-7.7,20.4c0.8-6.6,3-13,3.9-19.6c-0.6-4.3-2.8-9-7.2-10.6c-1.1-0.7-3-0.8-3.1-2.4c-3.8-16.7-14.6-31.5-29-40.6
		c-13.9-8.7-29.1-14.8-44.5-20.3c-18.8-6.5-38.1-11.5-57.5-15.5c24.8-6.4,49.3-15.7,69.9-31.2c11.8-9.1,21.9-20.1,31.6-31.3
		c5.8-6.6,11.7-13.1,18.4-18.8c10.7-9.1,23.3-15.6,36.2-20.8c9.1-3.6,18.6-6.9,28.4-7.8c4.9-0.3,9.8-0.3,14.7-0.3
		c2.1,4.8,3.8,9.6,5.9,14.4c0.7-6.6,0.5-14.8-5.3-19.2c-6-4-11.3-9.5-13.4-16.5c-1.5-4.4-1-9,0-13.4c5.9,6.7,14.5,10.3,22.9,12.8
		c12.8,3.6,26.5,6.7,36.9,15.7c-5.5-16.8-15.1-32.9-29.8-43.1c-13.9-9.8-31.3-12.7-48-13.1c-19.9-0.2-40.4,3.2-57.8,13.3
		c-9.3,5.4-17.4,13.2-21.7,23.2c-4.1,10-6.2,20.9-5.2,31.7c1,10.9,5.3,21.5,12.3,30c-15-13.1-26.9-30.4-31.4-49.9
		c-3.7-15.3-1.4-32.2,7.6-45.2C430.6,223.6,448.9,214.5,467,208.9 M447.5,219.4c-8.3,3.8-15.1,10.3-20.8,17.4
		c-8.8,11-13.4,25-13.4,39c0.9-6,2.1-12,4.8-17.5c6.4-13.5,17.4-24.3,29.6-32.5c20.9-11.1,44.8-15.6,68.3-15.4
		c26.8,0.3,53.8,6.3,77.4,19.2c15,8.1,26.9,20.9,36.3,34.9c9.1,13.7,16.3,28.7,21.4,44.3c6,3.4,11.9,7,17.9,10.2
		c-3.6-23.5-16.5-44.6-31.7-62.5c-12.7-14.4-26.7-28.3-44.1-36.8c-27.2-13.6-58.4-17.3-88.4-14.9
		C485.2,206.3,465.4,210.6,447.5,219.4 M600.5,418.8c0.9,5.3,5.1,9.2,8.5,13.1c2.1,2.2,2.8,5.3,3.8,8.1c0.9-4.7,1-9.5,0-14.1
		c-0.7-3.2,0.2-6.3,1.8-9c-3.7-1-7.4-2.1-11-3.5C602,414.7,600,416.3,600.5,418.8 M631.5,441.9c0.1,5.6-3.1,10.8-7.3,14.2
		c-4.4,3.1-10.1,2.8-15.2,2.3c7.3,2.4,15.8,3.2,22.7-0.9c6.7-4,9.3-12.3,9.4-19.8c3.4,2.5,7.1,4.5,10.6,6.9c-0.4,2-2.9,3.4-4,5.2
		c5.5-3.2,11.5-6.4,18.1-5.3c-12.5-2.4-21.6-12.1-30.3-20.6C630.6,428.6,632.1,435.8,631.5,441.9z"/>
	<path class="st2" d="M453.5,259.4c13.5-11,31.3-15.7,48.5-14.9c17.5,0.8,34.8,6,50.2,14.3c-17.6-2.6-35.5-4-53.3-1.9
		c-9.8,1.2-19.8,3.4-28.3,8.7c-12.1,7.6-19.2,21.1-22,34.8c-1.9,8.2-1.7,16.6-1.9,24.9c-6.2-12.1-10.2-25.8-8.3-39.5
		C439.8,275.4,445.5,265.9,453.5,259.4z"/>
	<path class="st2" d="M564.8,297.8c11.1,9.5,18.9,22.4,23.7,36c-5.1-1.2-10.1-3.5-15.5-3.2c-4,0.1-7.8,1.3-11.5,2.6
		c2.4-4.1,5.6-7.8,7.3-12.2C571.1,313.1,567.6,305.1,564.8,297.8z"/>
	<path class="st2" d="M476.9,360.7c18.4-16.1,38.5-30.2,60-41.8c-13.2,9.9-25.4,21.2-37.2,32.7c-12.8,12.6-25.3,25.5-37.3,38.9
		c4.7,5.4,9.9,10.4,13.3,16.8c5.9,11.2,10.5,23,14.5,35l1-1.9c-0.3,1-0.6,2-0.9,3c-3.5-8-8.7-15-13.5-22.3
		c-6-8.8-12.7-17.5-22.1-22.9c-4.1-2.4-8.8-3.8-13.5-3.9C453.1,383.1,464.8,371.7,476.9,360.7z"/>
	<path class="st2" d="M630.9,343c4.9,4.8,10.2,9.4,16.3,12.6c5,2.6,10.5,3.7,15.6,5.9c0,0.3,0.1,0.7,0.1,1c-3.9,4.6-9.8,7.7-16,7.4
		c-6.5-0.4-12.9-2.7-18-6.8c5.9,1.8,11.9,4.8,18.2,3.3c-4.3-2.4-8.3-5.8-9.9-10.6C635.9,351.2,632.1,347.7,630.9,343 M640.7,355.9
		c2.7,3.6,5.7,6.9,9.2,9.7c2.7-0.3,5.3-1.1,7.7-2.4c-3.2-0.9-6.4-1.8-9.5-3.1C645.6,358.6,643.1,357.2,640.7,355.9z"/>
	<path class="st2" d="M266.5,441.2c29.4-5.6,59.8-7.3,89.6-3.2c24.3,3.4,48.3,11.2,68.7,25.1c11.9,8.2,23.8,16.4,35.4,25.1
		c-5.2,0.4-10.6,0.8-15.2,3.5c-2.9-0.7-5.8-1.5-8.8-1.2c-10.6,1-21.3,2-32,2.9C363.4,464.9,315.3,448.5,266.5,441.2z"/>
	<path class="st2" d="M641.1,483.6c1.6-2.9,4.7-4.8,8-5.1c7.3-0.6,14.5-0.3,21.8-0.6c4.1,0,8.7-0.6,12.3,1.8c2.2,1.3,2.8,4,3.9,6.2
		c-1.1,4.2-4.5,6.8-7,10.1c-0.6,2.6,0.2,5.3,0.4,7.9c1,10.4,2.3,20.8,3,31.3c5-13.5,10-27,15-40.6c1.4-2.8-0.4-5.7-1.1-8.4
		c0.9-4.1,4.2-7.4,8.5-7.9c6-0.6,12.2,0.1,18.2,0.2c4.9,0.3,10-0.3,14.6,1.8c2.7,1.1,4.4,3.9,4.9,6.7c-1,4.2-4.5,7.2-7,10.5
		c-2.7,2.9-3.6,6.9-5.1,10.5c-16.8,44-33.7,87.9-50.8,131.7c-2.8,6-10.8,5.8-16.2,3.8c-4.1-1.2-5.9-5.5-6.2-9.4
		c-1.4-16.4-3.1-32.7-4.5-49.1c-7,16.9-13.6,34.1-20.6,51c-1.2,3.9-5.5,5.7-9.3,5.7c-3.4,0-7-0.1-10.1-1.7c-2.7-1.2-4.2-4.1-4.6-6.9
		c-1-35.5-1.9-71-2.8-106.6c-6.1,29.5-12.7,59-19.1,88.5c-0.9,4.3-1.8,8.6-4,12.4c-4.5,7.3-13,11.8-21.5,12.4
		c-14.4,0-28.7-0.1-43.1-0.2c-3.7,0-7-1.5-10.3-3c-5.3,4.4-12.4,2.7-18.6,3.1c-5.3-0.4-11.2,1.2-16-1.8c-2.4-1.7-4-5.1-3.2-8
		c3.5-15.8,6.9-31.7,10.4-47.6c-5.2,0.3-10.5,0.4-15.7,0.7c-3.5,16.3-7.1,32.6-10.7,49c-0.6,3.6-3,7.1-6.9,7.5
		c-7.3,0.7-14.6,0.3-22,0.4c-2.9,0.2-5.5-1.2-7.9-2.7c-3.6,1.4-7.3,2.7-11.1,2.6c-12.3,0-24.6-0.3-37-0.6c-6.6-0.2-13.7-3.2-17-9.2
		c-1.5-3.1-2.8-6.7-1.9-10.1c3-13.4,5.9-26.7,9-40c0.8-4.7,6.4-8.5,10.8-5.7c6.2,3.7,12.2,7.8,18.3,11.6c2.3,1.3,3.2,3.8,4.1,6.1
		c-0.9,2.7-2.5,5-4.2,7.2c-1.2,3.7-1.8,7.5-2.7,11.3c4.3,0,8.7-0.1,13,0c1.9-8.8,3.9-17.6,5.8-26.5c-11.8-7.3-23.6-14.5-35.4-21.8
		c-2.8-1.5-4.9-4.8-4.1-8.1c2.4-11.1,5-22.1,7.3-33.2c0.8-3.7,1.8-7.6,4.1-10.7c4.6-6.8,12.6-10.9,20.7-11.5
		c12.7-1,25.4-2.2,38.1-3.3c3.5-0.4,6.8,0.9,10,2c4.7-4.8,11.8-3.8,17.8-4.6c4.7-0.2,9.5-1.7,14.1-0.7c4,0.9,6.6,5.4,5.6,9.3
		c-3.8,17.3-7.5,34.6-11.3,51.9c5.1-0.4,10.2-0.4,15.3-1c0.7-0.9,0.7-2.2,1.1-3.2c3.2-15.4,6.6-30.7,9.9-46c0.8-3.5,1.3-7.2,3-10.5
		c1.8-2.9,5.4-3.9,8.5-4.3c6.6-0.7,13.3-1.2,20-1.9c2.8-0.5,5.4,0.8,7.9,2c3.9-1.7,7.9-3.4,12.2-3.8c14-1.1,28-2.3,42-3.2
		c3.8-0.3,7.5,1.2,11,2.4c2.2-2,4.9-3.5,7.9-3.6c6.7-0.5,13.4-0.7,20-1C634.9,478.7,638.9,480.3,641.1,483.6 M648.7,486.2
		c2.1,3.1,5.7,5.7,5.5,9.8c0.4,6.6,1.7,13.2,1.6,19.8c-6.5,18.1-13,36.3-19.9,54.3c-0.8-27.8-1.5-55.5-2.3-83.3
		c-8,0.1-15.9,0.7-23.9,1.1c1.7,3,5,5.4,4.6,9.1c1.2,45.6,2.4,91.2,3.5,136.8c2.5,0.1,5,0.3,7.5,0.4c11.5-28,22.4-56.3,33.8-84.3
		c2.9,28.9,5.3,57.9,8.2,86.8c1.9,0.1,3.8,0.2,5.7,0.3c17.6-45.5,35.2-91.1,52.5-136.7c1.6-5.4,6.1-9.1,9.4-13.4
		c-9.5-0.6-19.1-0.7-28.7-1.1c0.9,3,2.6,6.3,1,9.3c-9.6,25.4-18.6,51-28.6,76.3c-2.4-24.5-4.9-49-7.4-73.5
		c-0.2-5.2,4.3-8.7,7.5-12.3C668.7,485.7,658.6,485.6,648.7,486.2 M577.6,489.9c-8.2,0.6-16.4,1.3-24.5,1.9
		c-8.8-0.3-18.3,5.2-20.5,14.2c-8.2,38-16.4,76-24.6,114c-1.8,6.2,3.9,12.3,10.1,12.2c11.7,0.2,23.3-0.2,35,0.2
		c4.3-0.1,8.6,0.5,12.8-0.5c6-1.7,11.5-6.6,12.5-13c8.5-39.3,17-78.5,25.4-117.8c1.6-6.1-3.8-12.1-9.8-12.1
		C588.5,488.9,583.1,489.6,577.6,489.9 M642.2,490.8c0.6,12.1,0.5,24.2,1.1,36.3c1.2-5.4,5-10.5,3.7-16.2c-0.6-4.7-0.9-9.4-1.4-14
		C645.6,494.3,643.5,492.7,642.2,490.8 M507.9,495.7c-4.6,21.1-9.1,42.3-13.7,63.5c-10.5,0.6-21,1.1-31.6,1.7
		c4.6-20.7,9-41.5,13.5-62.2c-7.9,0.6-15.8,1.6-23.8,2.1c1.4,2.8,3.6,5.7,2.5,9c-8.1,37.6-16.4,75.2-24.7,112.8
		c-0.6,4.2-4.1,6.8-6.7,9.8c7.8-0.1,15.5,0,23.3,0c4.4-18.8,8.4-37.7,12.5-56.6c10.5-0.5,21.1-1,31.6-1.4
		c-4.3,19.3-8.4,38.6-12.7,57.9c8,0,16.1-0.3,24.1-0.1c-1.5-2.8-3.6-5.8-2.7-9.2c8.6-39.7,17.2-79.4,25.7-119.1
		c0.8-4.3,4.3-7.1,6.9-10.4C524.1,494.2,516,495,507.9,495.7 M397,505.9c-7.6,0.5-15.1,6.3-16.2,14.1c-2.6,12-5.3,23.8-7.9,35.8
		c13.6,8.3,27.2,16.6,40.7,25c-2.7,12.3-5.4,24.5-8.1,36.8c-9.4-0.1-18.8,0.1-28.2,0c1.5-6.6,2.9-13.2,4.4-19.8
		c0.3-2.5,2.3-4.2,4.1-5.9c-6.1-3.9-12.2-7.9-18.4-11.8c-2.9,13.2-6,26.4-8.9,39.7c-0.8,2.8-0.5,6,1.4,8.3c2.4,3,6.4,4,10.1,4
		c8.7,0.1,17.4,0.5,26,0.3c4.9,0,9.9,0.6,14.9-0.1c5.6-1.3,11.1-5.4,12.4-11.3c3.5-15.8,7.1-31.6,10.5-47.5
		c-13.7-8.2-27.4-16.5-41.2-24.6c1.9-9.4,4.2-18.7,6.1-28.1c9.5-0.8,19-1.4,28.5-2.2c-1.2,4.4-1.7,9-3.2,13.4
		c-1.4,1.6-3.3,2.5-4.9,3.7c6.6,4.2,13.5,8,20.2,12.2c2.3-10.5,4.6-21.1,6.9-31.7c0.6-2.7,1.3-5.6,0.2-8.2c-1.5-3.7-5.7-5.8-9.6-5.4
		C423.7,503.6,410.3,504.8,397,505.9 M404.8,527.5c-1.3,6-2.7,12-3.9,18c11.5,6.6,22.7,13.6,34.2,20.3c0.8-3.7,1.6-7.4,2.4-11.1
		c-7.1-3.8-13.9-8.2-20.9-12.3c-3.1-1.6-5.8-5.6-4.1-9.1c1-2.9,4.3-4,5.8-6.6C413.7,526.7,409.3,527.2,404.8,527.5z"/>
	<path class="st2" d="M275,503.3c19,0.3,38,0,57-0.7c3.2,0,6.6-0.8,9.7,0.6c2.6,1,4,3.8,4.4,6.5c-0.6,4.4-1.9,8.7-2.8,13.1
		c-0.8,3.2-1.2,6.6-2.9,9.4c-1.3,2.2-4,2.8-6.2,3.8c-2.9-0.9-5.2-2.8-7.6-4.6c-3.3-0.4-6.7,0.1-10,0c-6.7,29.7-13.6,59.3-20.4,88.9
		c1.8,2.7,4.9,5.8,3.4,9.3c-1.1,3.6-5.1,5.4-8.7,5c-7-0.7-13.9-1.5-20.9-2.2c-2.6-0.3-5.2-0.7-7.5-2c-2.1-1.1-2.6-3.7-3.6-5.6
		c0.6-3.9,4.1-6,6.2-9c6.8-28.1,13.1-56.4,19.7-84.6c-2.8,0-5.8-0.5-8.3,1.1c-2,1.2-4.1,2.3-6.3,3.2c-4-0.9-7.6-4.4-6.9-8.7
		c1.2-5.4,2.3-10.8,3.6-16.2C267.5,506.7,270.7,503.2,275,503.3 M273.9,510.2c-1.4,6.1-2.7,12.2-4.1,18.3c3.1-2,6.3-4.1,10.1-4.3
		c4.5-0.3,9,0.1,13.5,0.2c-7.2,31.2-14.3,62.3-21.6,93.4c-0.8,3.1-3.6,4.9-5.8,7c9.1,1.2,18.2,2,27.3,3c-2.1-2.8-5.2-6-3.8-9.9
		c7.3-31.2,14.4-62.4,21.6-93.6c5,0.1,10.1-0.3,15.1-0.1c3.4,0.1,6.1,2.3,8.4,4.6c1.4-6.5,3-12.9,4.4-19.3
		C317.3,510.3,295.6,510.9,273.9,510.2z"/>
	<path class="st2" d="M551.6,508.4c10.3-0.8,20.6-1.4,30.9-2c-7.8,36.5-15.7,73-23.6,109.4c-10.2-0.1-20.3,0-30.5,0.2
		C536.2,580.1,544,544.3,551.6,508.4 M558.3,515.4c-6.7,31-13.4,61.9-20.1,92.9c4.7-0.1,9.4-0.1,14-0.1
		c6.8-31.2,13.4-62.4,20.1-93.6C567.7,514.8,563,515.2,558.3,515.4z"/>
	<path class="st2" d="M483.1,525.6c1.5,1.1,2.8,2.9,4.9,2.8c-1.5,6.1-2.7,12.3-4.1,18.4c-1.9,0.5-3.7,0.9-5.6,1.3
		C479.9,540.6,481.6,533.1,483.1,525.6z"/>
</g>
</svg>
