<?xml version="1.0" encoding="utf-8"?>
<!-- Generator: Adobe Illustrator 19.0.0, SVG Export Plug-In . SVG Version: 6.00 Build 0)  -->
<svg version="1.1" id="Layer_1" xmlns="http://www.w3.org/2000/svg" xmlns:xlink="http://www.w3.org/1999/xlink" x="0px" y="0px"
	 viewBox="-85 209.9 425 403.2" style="enable-background:new -85 209.9 425 403.2;" xml:space="preserve">
<g id="_x23_ffffffff">
</g>
<g id="_x23_000000ff">
	<path d="M125.2,209.9h1.8c15.8,48.7,32.1,97.3,47.7,146.1c-7.7,0.3-15.5,0.8-23.2,0.5c-9.2-26.8-17.9-53.8-27.1-80.7
		c-2.4,5.6-3.9,11.7-5.8,17.5c-14.4,45.3-28.8,90.7-43.2,136c-1.8,5.3-3.2,10.8-5.3,16c-5.4-4.1-10.8-8.4-15.9-12.8
		c0.2-2.8,1.5-5.5,2.3-8.2C79.4,352.9,102.3,281.4,125.2,209.9z"/>
	<path d="M22.9,269.8c26.2-17.7,57-28.5,88.5-31.1c-2,7.4-4.1,14.8-6.6,22c-17.7,2.8-35.1,7.8-51.1,15.9
		C20.3,293.1-7.2,321.2-22.8,355c-0.9,1.8-1.6,3.7-2.6,5.4c-7.5,0.2-15,0-22.5,0.1c0.6-3.5,2.3-6.6,3.6-9.8
		C-30.3,317.9-6.5,289.6,22.9,269.8z"/>
	<path d="M141.6,238.5c33.4,2.4,66,14.1,93.4,33.3c29.2,20.6,52.6,49.4,65.8,82.6c-7.9-0.2-15.7-0.4-23.5-1
		c-10-19.8-23.3-38.2-40.1-52.8c-24.7-21.9-56.2-36-88.9-40.2C145.7,253.3,143.6,245.9,141.6,238.5z"/>
	<path d="M124,360.9c72-1.2,144-2.4,216-3.7v1.2c-43,31.5-85.5,63.5-128.3,95.1c-0.8,0.5-1.5,1-2.3,1.4c-1.8-6.8-4-13.6-5.2-20.6
		c24.8-18.6,50-36.7,74.8-55.3c-61,0.3-122,1.5-182.9,1.8c1.7-6.5,3.7-12.9,5.7-19.2C109.1,360.6,116.6,361.5,124,360.9z"/>
	<path d="M-85,364.4c52.1-0.7,104.2-1.7,156.3-2.5c-1.7,6.5-3.5,13-5.9,19.4c-28.8,0.6-57.7,0.7-86.5,1.1
		c21.3,16,43.1,31.3,64.5,47.1c26.9,19.6,54,39.1,80.8,58.7c-5.3,5.3-11.6,9.4-17.5,14c-3.3-1.5-6.1-4-9.1-6.1
		C36.8,452.9-24.1,409.5-85,366.2V364.4z"/>
	<path d="M160.6,383.6c7.7-0.2,15.4-0.8,23.1-0.5c21.7,66.4,43.5,132.7,65.2,199.1c2.9,9.2,6.2,18.2,8.8,27.5
		c-13.3-8.7-26-18.4-39-27.5c-29.9-21.2-59.7-42.5-89.5-63.7c0.1-0.3,0.3-0.9,0.3-1.2c6.2-4,12.1-8.4,18.5-12.1
		c22.1,16.1,44.3,32.2,66.4,48.2c1,0.7,2.1,1.3,3.2,1.9C198.9,498,179.3,441,160.6,383.6z"/>
	<path d="M291.2,397c6.2-4.4,12.6-8.6,19-12.8c12.4,53.5-0.7,112.1-34.6,155.3c-8.3,10.8-17.8,20.7-28.3,29.3
		c-2-7.3-4.1-14.5-6-21.9c-0.5-1.4,1.1-2.1,1.8-3c21.4-20.7,37.1-47.3,44.8-76.1c4.8-18.5,6.6-37.9,4.9-56.9
		C292.5,406.2,291.3,401.6,291.2,397z"/>
	<path d="M-56.6,390.8c4,1.6,7.3,4.5,11,6.6c2.8,1.9,5.9,3.3,8.4,5.6c-1.5,14.9-1.8,30,0.3,44.9c4.5,33.7,20.1,65.7,43.4,90.4
		c1.8,1.9,3.8,3.6,5.3,5.7c-1.9,7.5-4.2,15-6.7,22.4c-26.9-22.9-47-53.9-57-87.8C-60.4,450.3-61.9,419.9-56.6,390.8z"/>
	<path d="M177.2,454.1c0.9-0.5,1.7-1,2.6-1.5c1.9,6.7,4.1,13.4,5.7,20.2C127.4,516.2,69,559.4,10.8,602.7c-5,3.4-9.3,7.7-14.7,10.4
		c15.3-48.7,31.2-97.2,46.6-145.8c0.5-1.2,0.6-2.6,1.5-3.5c5.8,2.9,10.9,7.1,16.4,10.7c0.6,2.1-1,4.3-1.4,6.3
		c-8.2,26.1-16.8,52.1-24.7,78.3c15.6-10.9,30.7-22.5,46.1-33.7C112.8,501.7,145,477.9,177.2,454.1z"/>
	<path d="M36.3,587.2c6.3-4.3,12.5-8.6,18.8-12.8c1.4,0.1,2.6,0.9,3.8,1.4c31,14.3,66.5,18.2,100,11.8c14.2-2.5,27.8-7.6,41-13.4
		c6.3,4.3,12.5,8.6,18.7,12.9c0,0.3,0.1,0.9,0.1,1.2c-24.1,13.3-51.2,21.4-78.7,23.2c-34.8,2.4-70.3-5.3-101-21.8
		C38.1,589.1,35.6,589,36.3,587.2z"/>
</g>
</svg>
