<?xml version="1.0" encoding="utf-8"?>
<!-- Generator: Adobe Illustrator 19.0.0, SVG Export Plug-In . SVG Version: 6.00 Build 0)  -->
<svg version="1.1" id="Layer_1" xmlns="http://www.w3.org/2000/svg" xmlns:xlink="http://www.w3.org/1999/xlink" x="0px" y="0px"
	 viewBox="-217 385.9 160 71.5" style="enable-background:new -217 385.9 160 71.5;" xml:space="preserve">
<style type="text/css">
	.st0{fill:#CC2428;}
	.st1{fill:#262324;}
</style>
<g id="_x23_cc2428ff">
	<path class="st0" d="M-210.3,390.6c1.4-2.6,4.1-4.9,7.3-4.7c7,0,14,0,21,0c2.9-0.3,5.1,2.2,6.6,4.4c2.8,4.6,2.2,10.3,0.9,15.2
		c5.3-5.5,10.6-11.8,11.7-19.6c8,0,16.1,0,24.1,0c-2.9,5.8-7.1,10.9-12.3,14.8c-10.2,7.5-22.6,11-34,16.2c-4.9,2.3-9.9,4.7-13.8,8.6
		c7.7-4.1,15.8-7.2,24.4-8.6c0,6.3,0,12.6,0,18.8c-14.2-0.4-28.3,0.6-42.5,1c0.6-8.1,3.6-16.5,10.3-21.5c5.1-4.4,11.8-5.9,17.4-9.5
		c2.8-1.6,2.5-5.9,0.2-7.7c-2.7-2.2-6.3-2.3-9.6-2.6c0.1,2.5,0.1,5-0.1,7.4c-4.4,0-8.7,0-13.1,0
		C-211.7,398.7-212.1,394.4-210.3,390.6z"/>
	<path class="st0" d="M-135.1,386c4.5,0,8.9,0,13.4,0c0,16.9-0.1,33.7,0.1,50.6c-4.5,0.1-9,0-13.5,0.1
		C-135.1,419.7-135.1,402.8-135.1,386z"/>
	<path class="st0" d="M-118.3,386c4.5,0,9,0,13.4,0c0,12.9,0.1,25.8-0.1,38.8c5.2,0,10.4,0,15.6,0c0,4,0,7.9,0,11.9
		c-9.7,0-19.3,0-29,0C-118.2,419.7-118.3,402.8-118.3,386z"/>
	<path class="st0" d="M-85.9,386c4.5,0,8.9,0,13.4,0c0,12.9,0,25.9,0,38.8c5.2,0,10.4,0,15.6,0v11.9c-9.6,0-19.3,0-28.9,0
		C-85.8,419.7-85.9,402.8-85.9,386z"/>
	<path class="st0" d="M-172.1,416.7c2.7-0.5,5.3-1.3,8-1.4c8.1,1,15.9,5.2,20.8,11.7c2.3,2.9,3.8,6.3,5.3,9.7
		c-6.8,0.2-13.6,0.1-20.5,0.1c-3.4-5.6-7.3-11.4-13.7-13.9C-172.1,420.8-172.1,418.7-172.1,416.7z"/>
</g>
<g id="_x23_262324ff">
	<path class="st1" d="M-155.7,442.7c4,2.2,5.4,6.9,8.5,10c-0.1-3.2-0.2-6.4-0.2-9.6c2.1-0.2,3,1.8,4.1,3.1c2.5,3.6,5.2,7.1,7.5,10.9
		c-1.3,0-2.3-0.5-3-1.5c-2.4-3.1-4.5-6.4-6.8-9.6c-0.3,3.8,0,7.5-0.2,11.3c-3.6-3.2-5.6-7.7-8.7-11.2c0,3.6,0.1,7.1,0.1,10.6
		c-0.5,0-1.4,0.1-1.9,0.1C-156,452.2-156.4,447.4-155.7,442.7z"/>
	<path class="st1" d="M-118.1,443.4c0.4,0,1.4,0,1.8-0.1c0,4.5,0,9,0,13.5c-0.4,0-1.4,0.1-1.8,0.1
		C-118.1,452.4-118.1,447.9-118.1,443.4z"/>
	<path class="st1" d="M-88.7,443.1c1.2,0,1.7,0.6,1.6,1.7c0.1,4.1-0.1,8.3-0.2,12.5c-4.4-2.2-5.9-7.5-9.3-10.9c0,3.5,0.1,7,0.1,10.5
		l-1.8-0.1c0-4.5,0-9.1,0-13.7l1.4,0.4c3.2,3,5.2,7,8,10.4C-88.9,450.3-89.3,446.6-88.7,443.1z"/>
	<path class="st1" d="M-217,449c1-2.7,3-5.3,6-5.6c3.3-0.6,6.1,1.8,8,4.2c-3.3-0.1-6-4-9.4-2c-4.3,1.9-3.3,9.1,1.4,9.6
		c2.3,0.8,3.5-1.7,5-2.9c-2-0.1-4.1-0.2-6.1-0.2l0-1.6c3,0,6.1,0,9.2,0c-2.2,2.5-3.8,7.5-8.1,6.4c-3.1-0.2-5-2.9-6-5.5V449z"/>
	<path class="st1" d="M-185.4,443.1c0.5,0.2,1.6,0.5,2.1,0.7c3.4,4.2,6.4,8.8,9.5,13.3c-2.7,0-3.8-2.6-5.2-4.4
		c-1.6,0.1-3.1,0.2-4.7,0.2c0,1.3,0,2.6,0,3.9l-1.8,0C-185.4,452.3-185.4,447.7-185.4,443.1 M-183.8,451c1.3,0,2.5,0.1,3.7,0.1
		c-1.1-1.7-2.3-3.4-3.5-5C-183.7,447.7-183.8,449.4-183.8,451z"/>
	<path class="st1" d="M-68.7,445.2c3.5-3.5,9.2-1.6,11.6,2.2c-3,0.7-4.7-3.2-7.8-2.3c-5,0.6-5.8,8.4-1,9.9c2.5,1.4,4.5-0.8,5.8-2.6
		c-2-0.1-4-0.2-6-0.2l0-1.6c3,0,6,0,9,0c-2.1,2.7-3.8,7.6-8.1,6.4C-70.6,456.4-73,448.7-68.7,445.2z"/>
</g>
</svg>
