<?xml version="1.0" encoding="utf-8"?>
<!-- Generator: Adobe Illustrator 19.0.0, SVG Export Plug-In . SVG Version: 6.00 Build 0)  -->
<svg version="1.1" id="Layer_1" xmlns="http://www.w3.org/2000/svg" xmlns:xlink="http://www.w3.org/1999/xlink" x="0px" y="0px"
	 viewBox="182 -96.11 960 1032" style="enable-background:new 182 -96.11 960 1032;" xml:space="preserve">
<style type="text/css">
	.st0{fill:#CCA96E;}
	.st1{fill:#252525;}
	.st2{fill:#DA1921;}
	.st3{fill:#FFFFFF;}
</style>
<g id="_x23_cca96eff">
	<path class="st0" d="M639.24-96.11h14.16c18.19,1.31,36.32,5.09,53.02,12.56c15.97,7.34,30.99,17.09,43.42,29.58
		c13.56,13.55,22.9,30.74,29.21,48.72c16.64,10.36,31.92,23.32,43.33,39.36c11.09,1.48,20.91,8.05,27.8,16.68
		c9.25,11.5,15.15,25.94,15.46,40.79c51.62,13.67,102.17,31.75,150.17,55.22c13.79,6.63,26.93,14.49,40.22,22.07
		c0.16,46.01-0.19,92.06-3.61,137.97c-2.97,41.43-8.07,82.72-15.78,123.54c35.06,4.02,70.05,8.65,105.06,13.04
		c0.08-0.44,0.23-1.33,0.3-1.77v1.61c-13.58,7.7-26.14,17.46-36.23,29.41c-9.22,10.99-16.28,24.63-16.39,39.25
		c-0.01,99.63,0,199.26-0.01,298.9c-33.34-14.91-66.12-31.18-100.37-43.95c-20.74-7.83-41.75-14.95-63.03-21.17
		c-6.74-2.07-13.63-3.5-20.54-4.84c-57.97,77.38-134.75,139.95-220.72,183.86c-7,3.81-14.45,6.88-21.17,11.17h-1.02
		c-2.96-2.76-7.04-3.92-10.51-5.94c-49.73-24.69-96.76-55.01-138.94-91.18c-34.34-29.3-65.27-62.5-92.57-98.44
		c-11.92,3.48-23.95,6.62-35.8,10.32c-18.42,6.56-37.12,12.33-55.24,19.71c-31.04,12.1-60.93,26.89-91.37,40.39
		c0.08-93.98,0.01-187.95,0.04-281.93c-0.13-8,0.56-16.12-1.28-23.98c-3.2-14.75-12.06-27.61-22.53-38.2
		c-9.54-9.59-20.55-17.64-32.32-24.28v-0.09c35.96-3.85,71.97-7.31,107.85-11.84c-11.4-60.18-16.99-121.36-18.71-182.55
		c-0.82-26.26-0.65-52.53-0.86-78.79c23.71-14.43,48.53-27,74.12-37.75c-10.07-4.63-20-10.05-27.94-17.92
		c-13.05-12.64-20.24-29.99-24.47-47.36c9.34,6.6,20.63,10.06,32,10.68c15.86,0.92,31.63-2.53,46.64-7.37
		c18.59-6.04,36.3-14.45,53.77-23.13c-8.02-3.39-15.64-7.83-22.17-13.61c-11.07-9.52-18.58-22.73-22.06-36.85
		c6.25,4.36,13.42,7.38,20.97,8.51c15.47,2.4,31.31-0.88,45.65-6.76c17.9-7.26,34.74-16.81,51.63-26.11
		c17.11-9.62,33.41-20.8,51.48-28.61c1.76-0.82,3.7-1.44,5.11-2.85C577-82.42,608.09-94.77,639.24-96.11 M600.42-77.45
		c-6.93,2.9-13.91,6.18-19.66,11.11c9.19-2.12,18.7-2.96,28.1-1.98c13.46,1.34,27.26,5.74,37.23,15.23
		c-7.01-3.08-14.3-5.66-21.93-6.61c-19.68-2.69-39.47,2.28-57.76,9.28c-34.45,13.35-65.38,33.95-98.44,50.19
		c-14.32,6.87-29.18,13.34-45.06,15.38c-7.19,1-14.52,0.4-21.52-1.44c2.07,3.99,4.81,7.63,8.08,10.72
		c12.32,11.61,29.34,16.33,45.7,18.69c-1.49,0.85-2.99,1.67-4.54,2.38c-27.18,12.95-53.98,27.1-82.77,36.24
		c-18.91,5.81-39.9,9.9-59.03,2.72c9.75,21.01,30.44,34.73,51.92,41.65c4.82,1.73,9.9,2.53,14.73,4.21
		c-32.55,12.38-64.37,26.89-94.32,44.72c-0.17,35.67,0.2,71.36,2.09,106.99c2.66,52.54,8.86,104.9,18.88,156.55
		c-30.06,3.19-60.09,6.79-89.98,11.32c15.35,11.89,28.71,27.5,34.27,46.41c3.63,11.84,2.17,24.33,2.47,36.51
		c0.01,87.08-0.03,174.15,0.02,261.23c21.69-11.49,44.22-21.31,67.04-30.33c35.62-13.98,72.14-25.66,109.2-35.19
		c47.33,64.63,107.76,119.41,176.08,161.14c20.02,12.41,40.9,23.33,61.9,33.97c44.35-21.62,86.76-47.41,125.4-78.15
		c42.52-33.67,80.55-73.03,112.66-116.76c61.12,15.73,121.1,36.74,177.48,65.25c-0.09-95.35-0.01-190.7-0.04-286.05
		c-0.1-10.73,3.62-21.18,9.23-30.22c6.42-10.55,15.29-19.32,24.78-27.1c-29.36-4.64-58.9-8.16-88.44-11.46
		c7.23-37.12,12.63-74.61,15.89-112.3c4.53-50.46,5.54-101.17,5.26-151.81c-20.42-12.08-41.6-22.81-63.41-32.14
		c-38.81-16.82-78.97-30.51-119.9-41.16c-4.05,9.85-11.47,17.9-19.59,24.58c-1.58,0.93-0.99,3.12-0.48,4.5
		c1.21,2.77,4.05,4.28,6.66,5.47c7.49,3.16,15.73,3.53,23.73,4.06c7.16,11.18,14.79,22.07,21.79,33.35c-1.2,1.2-2.37,2.44-3.53,3.68
		c-2.65,3.67-4.95,7.79-5.41,12.37c-0.85,6.91,2.63,13.74,7.74,18.22c8.16,7.13,14.52,16.49,17.45,26.98
		c3.33,11.94,2.26,25.03-2.87,36.31c-7.06,15.75-20.98,27.91-36.85,34.31c0.04-7.14-1.4-14.16-2.96-21.09
		c-4.38,1.79-8.83,3.65-13.61,3.99c-2.71,0.4-5.7-0.22-8.12,1.33c-9,5.3-19.65,7.74-30.06,6.87c-3.47-0.44-6.28,2.15-9.43,3.16
		c0.21,3.83,0.43,7.83,2.3,11.28c2.37,4.48,6.93,7.15,9.86,11.2c1.74,2.17,2.66,4.82,3.47,7.44c4.08,2.99,7.38,6.98,9.35,11.66
		c3.49,1.96,6.99,4.16,9.4,7.45c1.67,2.65,4.71,3.73,7.27,5.3c4.72-8.48,8.8-17.32,12.18-26.42c15.79,6.69,26.29,22.58,28.75,39.25
		c1.82,9.54,0.65,19.28-0.59,28.75c5.1,9.85,8.9,20.63,9.15,31.82c-2.82-0.2-5.64-0.4-8.45-0.61c-0.92-10.68-4.46-21.06-10.11-30.17
		c2.9-11.07,3.26-22.93-0.02-33.96c-2.54-8.42-7.23-16.54-14.51-21.69c-0.26-0.01-0.8-0.03-1.07-0.04
		c-4.24,11.04-9.55,21.84-16.64,31.33c0.11-2.64,0.78-5.2,1.7-7.66c-3.33-1.19-5.66-4-8.77-5.53c-1.83-0.93-3.34,0.85-4.71,1.77
		c0.63-2.65,0.72-5.76-1.54-7.68c-2.74-2.73-7.39-6.48-10.88-2.72c2.52-5.31-0.91-11.12-5.63-13.69c-1.57-0.84-3.03,0.47-4.4,1.04
		c0.34-3.16,1.92-6.65-0.11-9.57c-2.67-3.98-6.89-6.58-9.63-10.5c-5.18-7.14-5.05-16.45-4.76-24.87c4.86-0.82,9.54-2.6,13.57-5.47
		c11.62,2.23,24.02-0.48,33.6-7.44c6.55,0.36,13.49-0.25,19.12-3.93c2.72-1.57,4.66-5.04,8.27-4.16c2.56,6.63,4.23,13.57,5.07,20.62
		c17.8-9.17,28.36-30.44,25.52-50.18c-1.61-11.41-8.22-21.63-16.95-28.96c-6.04-6.61-11.4-15.19-10.47-24.51
		c0.54-6.11,4.12-11.29,7.85-15.93c-5.56-8.1-10.69-16.5-16.39-24.5c-9.71-0.63-20.08-1.95-28.12-7.9
		c-5.53-3.99-7.74-11.64-5.41-18.01c0.46-1.11,1.65-1.65,2.51-2.43c6.23-4.76,11.73-10.6,15.76-17.35
		c3.36-5.49,3.27-12.26,2.23-18.4c-2.18-11.53-7.64-22.58-16.01-30.86c-5.72-5.73-13.59-9.34-21.78-8.98
		c-11.23-18.19-28.42-31.73-46.29-42.96c-2.42-6.46-4.66-13.02-7.75-19.21c-6.57-13.83-16.12-26.24-27.94-36
		c-16.09-13.23-35.02-23.21-55.38-27.92C653.26-87.53,625.35-87.17,600.42-77.45z"/>
	<path class="st0" d="M574.82,13.81c17.97-15.94,40.3-27.58,64.29-30.64c-26.67,6.42-51.08,22.79-65.85,46.07
		c-15.04,23.24-20.86,52.25-15.69,79.47c-5.01,0.6-9.74,2.46-14.12,4.9c-2.89-27.7-0.69-56.96,12.31-82.04
		c9.09-17.67,23.77-32.3,41.3-41.61C588.73-3.05,580.54,4.45,574.82,13.81z"/>
	<path class="st0" d="M620.93,17.83c18.23-17.54,43.84-26.84,69.05-25.92c18.32,0.71,36.04,6.19,52.99,12.87
		c17.34,7.1,33.52,17.18,47.24,29.98c2.39,2.3,4.93,4.51,6.76,7.3c-11.05-10.26-23.75-18.86-37.93-24.15
		c-18.67-7.04-39.49-9.86-59.06-5.06c-8.4,2.28-17.45,6.3-21.59,14.47c-3.32,6.35-2.48,14.1,0.8,20.29
		c6.72,13.09,18.87,22,27.97,33.25c-3.49-2.52-6.48-5.66-10.01-8.13c-17.93-13.26-39.86-21.27-62.18-22.09
		c-12.34-0.42-25.14,1.61-35.83,8.11C601.35,43.09,609.6,28.7,620.93,17.83z"/>
	<path class="st0" d="M821.41,59c3.53,0.74,5.91,3.78,8.29,6.27c5.96,7.25,10.55,16.1,11.29,25.57c0.6,6.72-4.69,11.75-9.23,15.88
		c-7.48,6.28-15.75,11.88-24.93,15.33c11.5-7.41,20.3-19.46,22.25-33.16C830.8,78.39,827.58,67.54,821.41,59z"/>
	<path class="st0" d="M639.57,66.65c15.32-1.74,30.86,0.87,45.39,5.76c6.94,2.47,13.89,5.19,20.1,9.21
		c-17.01-8.25-36.63-12.21-55.34-8.26c-10.48,2.24-21.11,7.26-27.08,16.54c6.62-4.3,14.47-6.39,22.35-6.14
		c15.43,0.39,30.76,5.74,43.06,15.09c12.22,9.21,23.75,19.43,37.1,27.04c-16.43-6.21-29.26-19.26-45.7-25.48
		c-11.22-4.17-24.79-4.09-34.75,3.15c-6.96,4.83-11.02,13-11.67,21.35c2.3-3.52,5.84-6.17,9.99-7.03
		c6.44-1.74,13.09,0.38,18.74,3.49c-0.15,8.82-0.24,18.01,3.54,26.21c1.82,4.34,4.78,8.04,7.86,11.56
		c-7.68,3.74-16.45,1.92-24.28-0.27c1.33,1.1,2.72,2.2,3.63,3.71c0.79,3.04,3.52,4.98,5.51,7.26c13.02,13.02,30.89,21,49.19,22.59
		c-5.48,0.79-11.04,1.03-16.45,2.24c-9.61,2.05-18.84,5.99-26.77,11.8c16.76-4.58,35.26-5.93,51.63,0.85
		c9.46,4.02,18.48,11.2,21.65,21.32c-2.47-2.58-4.37-5.7-7.21-7.91c-9.22-7.75-22.02-9.97-33.7-8.31
		c-12.57,1.8-23.84,8.42-33.71,16.11c-17.67,13.88-31.99,31.35-48.1,46.89c-9.77,9.28-20.39,18.69-33.71,22.25
		c-12.47,3.79-26.54,3.16-37.98-3.4c20.73,1.77,41.69-7.76,55.07-23.47c-13.98,9.27-31.2,14.82-48.03,12.53
		c13.58,0,26.44-6.31,36.82-14.71c17.2-14.14,28.39-34.45,34.53-55.62c1.63-5.79,4.72-11.78,10.44-14.41
		c6.6-3.03,14.02-3.16,21.08-4.32c-19.15-8.87-33.49-25.78-42.85-44.34c-2.51-5.11-4.66-10.43-5.97-15.97
		c4.62,4.73,10.48,8.3,16.88,10.01c-10.13-11.5-16.66-26.58-16.22-42.05c0.25-8.31,2.37-17.06,8.05-23.38
		C619.66,71.24,629.74,67.85,639.57,66.65z"/>
	<path class="st0" d="M550.91,124.88c15.01,8.38,27.87,21.1,35.34,36.69c1.86,3.71,2.92,7.75,4.54,11.57
		c0.71-16-4.83-31.75-13.63-44.95c12.2,11.53,19.78,27.26,23.08,43.58c4.32,21.27,2.49,43.98-6.43,63.87
		c-4.61,10.26-11.13,19.81-19.79,27.08c9.82-12.21,15.41-27.51,16.64-43.08c-5.27,13.5-13.53,25.87-24.45,35.45
		c-7.49,6.69-16.36,11.99-26.15,14.48c8.79-4.21,16.67-10.31,22.54-18.13c13.1-17.13,18.57-39.19,17.98-60.52
		c-0.63-20.47-6.96-41.36-20.45-57.08C557.42,130.49,553.97,127.87,550.91,124.88z"/>
	<path class="st0" d="M512.31,157.29c5.01-1.74,10.2,1.23,13.32,5.06c5.62,6.87,8.03,15.79,9.1,24.46
		c1.17,11.65,0.1,23.94-5.36,34.47c-2.57,4.8-6.66,9.65-12.43,10.23c-5.73,0.4-10.32-4-13.16-8.51c-5.37-8.66-7.19-19.04-7.38-29.09
		c0.03-9.18,1.5-18.59,5.8-26.8C504.44,162.94,507.65,158.85,512.31,157.29z"/>
	<path class="st0" d="M857.95,160.3c3.63,4.3,6.2,9.37,9.61,13.84c-3.35,5.67-6.03,12.12-5.12,18.85
		c0.67,8.02,5.42,14.75,9.51,21.39c-10.39-8.09-18.21-19.88-20.71-32.9C857.08,176.15,858.7,167.89,857.95,160.3z"/>
	<path class="st0" d="M772.57,199.54c2.01,12.95-4.73,26.42,1.13,38.89c-10.06-7.63-25.59-4.87-32.9,5.26
		c-2.51-5.16-7.92-9.31-13.89-8.52c-2.04-0.02-3.74,1.58-5.67,1.65c-2.19-1.67-4.88-2.14-7.48-2.79c-2.16-0.47-4.17-2.91-2.93-5.11
		c1.72-3.26,5.59-4.63,9.07-4.95c6.82-0.47,13.31,3.02,17.98,7.77l0.41-0.29c3.18-2.3,6.16-4.91,9.67-6.7
		c7.1-3.96,15.11-7.13,20.2-13.77C770.79,207.71,771.64,203.52,772.57,199.54z"/>
	<path class="st0" d="M630.58,297.08c4.04-4.25,7.5-9.04,11.74-13.1c2.88,25.18,13.67,49.62,30.92,68.25
		c4.06,6.26,8.75,12.11,14.04,17.39c23.42,23.37,54.16,36.81,81.73,54.35c11.64,7.61,23.54,16.02,30.73,28.23
		c1.16,1.6,1.69,4.54,4.2,4.33c10.4,0.74,20.95-0.03,31.07-2.61c8.45-2.28,17.64-6.03,21.85-14.28c-0.94,6.15-3.56,11.94-6.73,17.25
		c-1.54,2.82-5.03,3.32-7.72,4.53c-16.15,5.43-33.55,5.63-50.38,4.25c-6.23-19.1-21.85-33.93-40.02-41.81
		c7.45,6.78,14.09,15.1,17,24.87c-22.99-22.65-50.78-39.76-79.33-54.5c-14.45-7.13-29.1-14.21-44.66-18.59
		C646.36,348.78,640.94,321.83,630.58,297.08z"/>
	<path class="st0" d="M871.06,410.54c4.07,8.44,4.74,18.18,3.85,27.4c-0.43,2.25-0.2,5.08-2.18,6.67
		c-3.55,3.31-7.51,6.19-11.76,8.54c-0.38-2.12-0.74-4.26-1.07-6.38c3.72-1.97,8.47-3.33,10.58-7.26
		C873.62,430.18,872.8,420.07,871.06,410.54z"/>
	<path class="st0" d="M641.97,442.83l0.4,0.32c6.66,5.23,13.77,9.86,20.61,14.86c0.04,56.64,0.01,113.28,0.02,169.91
		c0.12,6.64-0.24,13.29,0.13,19.92c0.95,1.6,2.57,2.64,3.93,3.87c5.86,4.97,11.65,10.03,17.47,15.05
		c-14.18-0.12-28.36-0.24-42.53,0.06C641.98,592.15,642.04,517.49,641.97,442.83z"/>
	<path class="st0" d="M711.81,446.64c5.97-4.01,13.43-2.83,20.2-3.02c2.16,0.15,4.6-0.53,6.5,0.83
		c12.11,7.96,23.77,16.59,35.03,25.72c3.57,2.79,3.86,7.77,4.6,11.91c9.19,2.51,18.75,3.56,28.26,3.41
		c0.19,3.93,0.08,7.87,0.1,11.81c-7.46,0.56-14.91-0.31-22.27-1.44c0.03,53.05,0.02,106.1,0,159.14c-0.06,1.23,0.12,2.58,1.25,3.33
		c4.93,4.38,9.91,8.73,14.84,13.11c-7.46,4.45-16.38,2.53-24.49,1.68c-17.61-1.88-35.24-3.43-52.9-4.72
		c-5.29-0.47-11.04-1.61-14.79-5.69c-4.06-4.56-4.57-11.02-4.65-16.85c0.02-60.31,0-120.62,0.01-180.92
		C703.48,458.07,705.74,450.52,711.81,446.64 M725.18,459.94c0.16,60.66,0.02,121.33,0.07,181.99c0.01,3.09,0.55,6.56,3.03,8.68
		c2.69,2.28,6.44,2.01,9.73,2.36c15.11,0.91,30.15,2.79,45.23,3.86c-5.92-4.12-11.93-8.14-17.93-12.13
		c0.07-56.53,0.18-113.07-0.06-169.6c-6.34-0.02-12.67-0.48-19-0.42C739.24,469.74,732.34,464.65,725.18,459.94z"/>
	<path class="st0" d="M519.11,446.08l0.39,0.33c6.33,5.21,13.02,9.97,19.52,14.97c15.32-0.42,30.64-0.84,45.97-1.3
		c4.45-0.01,9.29-0.75,13.37,1.49c3.3,1.78,4.34,5.81,4.26,9.31c0.02,37.33-0.04,74.66,0.03,111.98c5.68,2.14,11.38,4.22,17.02,6.47
		c-2.34,3.11-5.64,5.22-9.19,6.71c-8.14-1.88-16.26-3.87-24.42-5.63c3.93,20.2,7.98,40.38,11.88,60.59
		c8,5.5,16.33,10.51,24.26,16.12c-14.01,1.32-28.12,1.54-42.13,2.91c-3.11-18.53-6.37-37.04-9.34-55.6
		c-3.34,1.27-6.54,2.88-9.76,4.42c-7.28-2.59-14.62-5.05-21.8-7.92c20.7-9.69,41.93-18.27,62.65-27.93
		c-7.06-1.6-14.25-2.51-21.35-3.94c0.05-34.82,0.03-69.63,0.01-104.44c-6.5,0.13-13,0.33-19.5,0.57
		c-7.38-4.44-14.65-9.06-21.96-13.62c-0.05,65.4-0.01,130.79-0.01,196.19c7.31,4.65,14.64,9.28,21.96,13.92l0.2,0.13
		c-14.06,1.33-28.06,3.26-42.04,5.23C519.11,600.06,519.14,523.07,519.11,446.08z"/>
	<path class="st0" d="M457.99,449.68l0.27,0.22c6.83,5.5,13.94,10.67,20.84,16.09c0,67.31,0.1,134.61-0.05,201.92
		c5.29,3.27,10.84,6.11,16.2,9.28c-3.62,3.35-8.35,5.08-13.11,6.04c-20.97,4.32-41.86,8.97-62.67,14
		c-5.5,1.37-11.84,1.17-16.51-2.39c-4.32-3.19-6.05-8.78-5.96-13.97c0-57.32,0-114.64,0-171.96c0.09-18.1-0.19-36.21,0.14-54.3
		c7.44,4.71,14.83,9.5,22.22,14.31c0.02,66.33,0.02,132.67,0,199.01c-0.01,3.04,0.41,6.61,3.04,8.59c2.86,2.08,6.6,1.29,9.81,0.66
		c15.18-3.39,30.48-6.18,45.77-9.03c-6.26-3.69-13.37-5.77-19.89-8.99C458.09,589.33,457.94,519.51,457.99,449.68z"/>
	<path class="st0" d="M887.37,518.96c0.12-22.7-0.23-45.4,0.17-68.09l0.37,0.38c6.15,6.63,13.61,11.98,19.7,18.64
		c0.32,70.63,0.04,141.3,0.14,211.94c4.92,4.79,9.87,9.54,14.75,14.38c-4.45,2.39-9.72,2.46-14.51,1.16
		c-20.83-5.4-41.89-9.92-63.04-13.89c-5.13-1-10.61-2.27-14.46-6.06c-3.77-3.78-4.83-9.35-4.87-14.49
		c0.02-59.71-0.03-119.42,0.02-179.13c15.05-2.46,29.5-7.78,42.91-14.96c-0.04,2.82-0.07,5.64-0.05,8.47
		c-6.66,4.03-13.47,7.86-20.65,10.88c-0.23,56.55-0.05,113.11-0.1,169.67c-0.08,4.49,1.26,10.41,6.37,11.55
		c17.56,3.85,35.23,7.27,52.61,11.95c-6.23-6.35-12.93-12.23-19.41-18.32C887.43,615.01,887.34,566.99,887.37,518.96z"/>
	<path class="st0" d="M948.36,477.87c-0.16-6.06,0.79-12.74,5.44-17.09l0.14,0.12c5.47,4.62,10.89,9.3,16.32,13.99
		c-0.32,20.3-0.04,40.61-0.15,60.91c0.04,4.52-0.25,9.22,1.38,13.53c0.96,2.53,3.13,4.29,5.25,5.83
		c14.33,10.26,28.53,20.68,42.55,31.36c3.19,2.45,6.39,5.14,8.25,8.81c2.19,4.17,2.19,9.02,2.21,13.62
		c-0.04,36.32,0.04,72.65-0.04,108.97c-0.18,1.7,0.49,3.3,1.59,4.6c6.35,8.09,12.56,16.29,18.92,24.38l0.35,0.45
		c-27.58-12.4-55.86-23.23-84.52-32.88c-6.13-2.02-12.28-5.57-15.14-11.62c-2.44-4.94-2.67-10.57-2.55-15.97
		c0.06-34.08-0.06-68.18,0.06-102.26c0.19,0.2,0.57,0.62,0.76,0.83c6.22,10.67,13.46,20.73,20.06,31.18
		c0.61,0.96,0.9,2.02,0.88,3.18c0.09,23.34-0.15,46.7,0.11,70.04c-0.13,5.25,3.49,9.84,8.45,11.34c16.93,5.89,33.91,11.7,50.4,18.77
		c-6.81-7.78-13.31-15.85-20.39-23.37c0.6-2.53,0.46-5.14,0.44-7.71c-0.03-29.68,0.02-59.36-0.03-89.04
		c-12.73-9.72-25.74-19.07-38.96-28.12c-5.78-4.14-12.28-7.55-16.83-13.14c-3.78-4.66-4.88-10.84-4.94-16.69
		C948.36,520.55,948.39,499.21,948.36,477.87z"/>
	<path class="st0" d="M264.05,468.86c10.08,1.74,20.28,4.33,28.96,9.95c1.46,0.94,3.07,1.88,4.87,1.39
		c19.49-2.49,39.01-4.74,58.49-7.28c0.3,34.51,0.04,69.02,0.12,103.53c7.22,5.63,14.58,11.08,21.79,16.72
		c-13.74,3.64-27.57,6.95-41.29,10.64c-0.56-15.63-0.08-31.31-0.24-46.96c0.01-21.11-0.03-42.22,0.02-63.33
		c-6.45,0.76-12.87,1.72-19.29,2.65c-7.39-5.03-14.51-10.44-21.96-15.36c-0.05,58.61-0.02,117.21-0.02,175.81
		c16.19-4.87,32.33-9.93,48.49-14.9c4.42,4.52,8.57,9.29,12.97,13.83l0.18,0.19c-13.34,3.76-26.53,8.02-39.66,12.43
		c-7.36-3.67-14.57-7.64-21.98-11.2c0.09,20.89-0.19,41.78,0.14,62.67c7.37,3.22,14.61,6.74,21.88,10.17
		c-13.87,5.65-27.75,11.28-41.39,17.49c-0.02-82.47,0-164.93,0-247.39c-0.06-11.03-4.49-21.8-11.86-29.96L264.05,468.86z"/>
	<path class="st0" d="M970.27,474.87c19.82,2.34,39.58,5.17,59.39,7.61c0.19,13.14,0.04,26.28,0.06,39.42
		c-0.04,4.63,3.24,8.3,4.97,12.38c5.25,9.93,9.7,20.32,15.55,29.91c0.1,0.33,0.28,0.99,0.37,1.32
		c-14.01-10.37-27.51-21.43-41.43-31.93c-0.16-12.48,0.04-24.95-0.1-37.43c-6.16-0.9-12.3-1.88-18.47-2.66
		C983.79,487.33,976.81,481.33,970.27,474.87z"/>
</g>
<g id="_x23_252525ff">
	<path class="st1" d="M600.42-77.45c24.93-9.72,52.84-10.08,78.69-4.02c20.36,4.71,39.29,14.69,55.38,27.92
		c11.82,9.76,21.37,22.17,27.94,36c3.09,6.19,5.33,12.75,7.75,19.21c17.87,11.23,35.06,24.77,46.29,42.96
		c8.19-0.36,16.06,3.25,21.78,8.98c8.37,8.28,13.83,19.33,16.01,30.86c1.04,6.14,1.13,12.91-2.23,18.4
		c-4.03,6.75-9.53,12.59-15.76,17.35c-0.86,0.78-2.05,1.32-2.51,2.43c-2.33,6.37-0.12,14.02,5.41,18.01
		c8.04,5.95,18.41,7.27,28.12,7.9c5.7,8,10.83,16.4,16.39,24.5c-3.73,4.64-7.31,9.82-7.85,15.93c-0.93,9.32,4.43,17.9,10.47,24.51
		c8.73,7.33,15.34,17.55,16.95,28.96c2.84,19.74-7.72,41.01-25.52,50.18c-0.84-7.05-2.51-13.99-5.07-20.62
		c-3.61-0.88-5.55,2.59-8.27,4.16c-5.63,3.68-12.57,4.29-19.12,3.93c-9.58,6.96-21.98,9.67-33.6,7.44
		c-4.03,2.87-8.71,4.65-13.57,5.47c-0.29,8.42-0.42,17.73,4.76,24.87c2.74,3.92,6.96,6.52,9.63,10.5c2.03,2.92,0.45,6.41,0.11,9.57
		c1.37-0.57,2.83-1.88,4.4-1.04c4.72,2.57,8.15,8.38,5.63,13.69c3.49-3.76,8.14-0.01,10.88,2.72c2.26,1.92,2.17,5.03,1.54,7.68
		c1.37-0.92,2.88-2.7,4.71-1.77c3.11,1.53,5.44,4.34,8.77,5.53c-0.92,2.46-1.59,5.02-1.7,7.66c7.09-9.49,12.4-20.29,16.64-31.33
		c0.27,0.01,0.81,0.03,1.07,0.04c7.28,5.15,11.97,13.27,14.51,21.69c3.28,11.03,2.92,22.89,0.02,33.96
		c5.65,9.11,9.19,19.49,10.11,30.17c2.81,0.21,5.63,0.41,8.45,0.61c20.64,1.53,41.28,3.11,61.89,5.09
		c15.38-70.79,20.95-143.37,21.48-215.71c-0.26-1.27,0.55-3.37-0.99-3.99c-28.92-13.91-58.91-25.55-89.4-35.57
		c1.16-1.24,2.33-2.48,3.53-3.68c-7-11.28-14.63-22.17-21.79-33.35c-8-0.53-16.24-0.9-23.73-4.06c-2.61-1.19-5.45-2.7-6.66-5.47
		c-0.51-1.38-1.1-3.57,0.48-4.5c8.12-6.68,15.54-14.73,19.59-24.58c40.93,10.65,81.09,24.34,119.9,41.16
		c21.81,9.33,42.99,20.06,63.41,32.14c0.28,50.64-0.73,101.35-5.26,151.81c-3.26,37.69-8.66,75.18-15.89,112.3
		c29.54,3.3,59.08,6.82,88.44,11.46c-9.49,7.78-18.36,16.55-24.78,27.1c-5.61,9.04-9.33,19.49-9.23,30.22
		c0.03,95.35-0.05,190.7,0.04,286.05c-56.38-28.51-116.36-49.52-177.48-65.25c-32.11,43.73-70.14,83.09-112.66,116.76
		c-38.64,30.74-81.05,56.53-125.4,78.15c-21-10.64-41.88-21.56-61.9-33.97c-68.32-41.73-128.75-96.51-176.08-161.14
		c-37.06,9.53-73.58,21.21-109.2,35.19c-22.82,9.02-45.35,18.84-67.04,30.33c-0.05-87.08-0.01-174.15-0.02-261.23
		c-0.3-12.18,1.16-24.67-2.47-36.51c-5.56-18.91-18.92-34.52-34.27-46.41c29.89-4.53,59.92-8.13,89.98-11.32
		c-10.02-51.65-16.22-104.01-18.88-156.55c-1.89-35.63-2.26-71.32-2.09-106.99c29.95-17.83,61.77-32.34,94.32-44.72
		c-4.83-1.68-9.91-2.48-14.73-4.21c-21.48-6.92-42.17-20.64-51.92-41.65c19.13,7.18,40.12,3.09,59.03-2.72
		c28.79-9.14,55.59-23.29,82.77-36.24c1.55-0.71,3.05-1.53,4.54-2.38c-16.36-2.36-33.38-7.08-45.7-18.69
		c-3.27-3.09-6.01-6.73-8.08-10.72c7,1.84,14.33,2.44,21.52,1.44c15.88-2.04,30.74-8.51,45.06-15.38
		c33.06-16.24,63.99-36.84,98.44-50.19c18.29-7,38.08-11.97,57.76-9.28c7.63,0.95,14.92,3.53,21.93,6.61
		c-9.97-9.49-23.77-13.89-37.23-15.23c-9.4-0.98-18.91-0.14-28.1,1.98C586.51-71.27,593.49-74.55,600.42-77.45 M659.95-66.98
		c10.78,6.88,19.19,16.9,24.95,28.24c2.07-2.64,4.13-5.28,6.12-7.98c17.95,4.92,33.25,16.51,46.04,29.69
		c-2.38-5.02-5.78-9.5-9.33-13.74C710.54-50.66,685.44-62.21,659.95-66.98 M585.97-33.54c-35.21,10.4-65.73,31.46-98.01,48.25
		c-8.85,4.3-17.95,8.98-27.93,9.73c16.03,5.29,33.47,2.61,49.34-2c3.33-1.25,7.35-1.59,9.81-4.43
		C529.39,6.93,541.8-1.97,555.02-9.13c26.44-14.09,55.97-22.31,85.86-24.2C623.5-40.73,603.69-38.65,585.97-33.54 M574.82,13.81
		c5.72-9.36,13.91-16.86,22.24-23.85c-17.53,9.31-32.21,23.94-41.3,41.61c-13,25.08-15.2,54.34-12.31,82.04
		c4.38-2.44,9.11-4.3,14.12-4.9c-5.17-27.22,0.65-56.23,15.69-79.47c14.77-23.28,39.18-39.65,65.85-46.07
		C615.12-13.77,592.79-2.13,574.82,13.81 M620.93,17.83c-11.33,10.87-19.58,25.26-21.79,40.92c10.69-6.5,23.49-8.53,35.83-8.11
		c22.32,0.82,44.25,8.83,62.18,22.09c3.53,2.47,6.52,5.61,10.01,8.13c0.99,1.21,1.99,2.41,2.94,3.66c-1.67-0.98-3.3-2.05-5.04-2.9
		c-6.21-4.02-13.16-6.74-20.1-9.21c-14.53-4.89-30.07-7.5-45.39-5.76c-9.83,1.2-19.91,4.59-26.91,11.89
		c-5.68,6.32-7.8,15.07-8.05,23.38c-0.44,15.47,6.09,30.55,16.22,42.05c-6.4-1.71-12.26-5.28-16.88-10.01
		c1.31,5.54,3.46,10.86,5.97,15.97c9.36,18.56,23.7,35.47,42.85,44.34c-7.06,1.16-14.48,1.29-21.08,4.32
		c-5.72,2.63-8.81,8.62-10.44,14.41c-6.14,21.17-17.33,41.48-34.53,55.62c-10.38,8.4-23.24,14.71-36.82,14.71
		c16.83,2.29,34.05-3.26,48.03-12.53c-13.38,15.71-34.34,25.24-55.07,23.47c11.44,6.56,25.51,7.19,37.98,3.4
		c13.32-3.56,23.94-12.97,33.71-22.25c16.11-15.54,30.43-33.01,48.1-46.89c9.87-7.69,21.14-14.31,33.71-16.11
		c11.68-1.66,24.48,0.56,33.7,8.31c2.84,2.21,4.74,5.33,7.21,7.91c0.32,0.93,0.66,1.87,1.02,2.81l-0.41,0.29
		c-4.67-4.75-11.16-8.24-17.98-7.77c-3.48,0.32-7.35,1.69-9.07,4.95c-1.24,2.2,0.77,4.64,2.93,5.11c2.6,0.65,5.29,1.12,7.48,2.79
		c1.93-0.07,3.63-1.67,5.67-1.65c5.97-0.79,11.38,3.36,13.89,8.52c7.31-10.13,22.84-12.89,32.9-5.26c2.36-4.33,5.11-8.81,9.62-11.2
		c4.43-2.59,9.83-2.46,14.65-1.18c-0.84-7.72-1.33-15.59-3.62-23.05c0.22,0.15,0.65,0.44,0.87,0.58c3.33,6.35,6.12,12.98,8.36,19.8
		c2.13-3.12,4.64-6.16,8.15-7.77c4.95-2.43,10.83-1.92,15.85,0.08c-1.81-7.39-3.9-14.7-6.41-21.88c5.55,6.78,9.35,14.78,13.38,22.51
		c4.11-6.19,12.54-7.01,19.04-4.53c-2.02-5.37-4.36-10.62-6.61-15.89c5.77,6.25,10.75,13.19,15.16,20.46
		c3.47-1.28,7.19-1.83,10.88-1.19l-1.07-0.79c-4.09-6.64-8.84-13.37-9.51-21.39c-0.91-6.73,1.77-13.18,5.12-18.85
		c-3.41-4.47-5.98-9.54-9.61-13.84c-0.03-0.24-0.07-0.72-0.09-0.97c-7.82-0.9-15.58-2.72-22.74-6.03
		c0.91,8.41,4.63,16.22,9.88,22.77c-4.4-2.54-8.28-5.87-11.79-9.52c-9.38-9.92-16.79-21.68-22.23-34.17
		c3.52-1.48,6.86-3.34,10.03-5.46c-5.34-0.32-10.54-1.75-15.38-3.98c0.3-0.22,0.9-0.67,1.2-0.89c9.18-3.45,17.45-9.05,24.93-15.33
		c4.54-4.13,9.83-9.16,9.23-15.88c-0.74-9.47-5.33-18.32-11.29-25.57c-2.38-2.49-4.76-5.53-8.29-6.27l-0.36-0.53
		c-3.94,8.5-9.58,16.41-17.16,22c2.09-5.01,4.1-10.1,5.05-15.47c0.24-2.26,1.51-4.8-0.03-6.86c-3.24-5.85-7.19-11.36-11.94-16.08
		c-1.83-2.79-4.37-5-6.76-7.3c-13.72-12.8-29.9-22.88-47.24-29.98C726.02-1.9,708.3-7.38,689.98-8.09
		C664.77-9.01,639.16,0.29,620.93,17.83 M430.46,82.28c-15.28,8.06-30.41,17.08-47.4,21.02c-6.44,1.57-13.08,1.74-19.68,1.78
		c10.91,5.66,23.5,6.84,35.6,6.81c16.6-0.31,33.18-3.41,48.68-9.37c9.98-3.86,19.55-9.16,27.24-16.7c-1.5,4.42-4.37,8.23-7.03,12.01
		c-9.89,13.28-25,21.96-41.03,25.53c20.09,4.33,41.17-2.42,57.84-13.66c0.36-19.27,3.44-38.68,10.9-56.54
		C472.9,60.49,451.38,70.95,430.46,82.28 M550.91,124.88c3.06,2.99,6.51,5.61,9.22,8.96c13.49,15.72,19.82,36.61,20.45,57.08
		c0.59,21.33-4.88,43.39-17.98,60.52c-5.87,7.82-13.75,13.92-22.54,18.13c9.79-2.49,18.66-7.79,26.15-14.48
		c10.92-9.58,19.18-21.95,24.45-35.45c-1.23,15.57-6.82,30.87-16.64,43.08c8.66-7.27,15.18-16.82,19.79-27.08
		c8.92-19.89,10.75-42.6,6.43-63.87c-3.3-16.32-10.88-32.05-23.08-43.58c8.8,13.2,14.34,28.95,13.63,44.95
		c-1.62-3.82-2.68-7.86-4.54-11.57C578.78,145.98,565.92,133.26,550.91,124.88 M471.82,135.67c-13.45,3.66-25.66,10.82-36.78,19.07
		c-17.12,12.74-32.01,28.11-47.72,42.49c-8.43,7.67-17.11,15.19-26.88,21.13c-7.99,4.8-17.01,8.52-26.47,8.39
		c-3.97,0.02-7.82-1.04-11.65-1.94c5.35,7.98,14.21,12.84,23.16,15.73c13.99,4.37,28.9,4.82,43.41,3.66
		c18.6-1.61,37-5.96,54.23-13.16c9.46-4.09,18.78-8.94,26.46-15.9c-3.16-15.21-2.72-31.06,0.84-46.15
		c-12.64,8.15-22.89,19.39-34.73,28.59c-14.86,11.94-32.41,22.38-51.91,23.22c7.93-2.89,15.81-6.26,22.41-11.67
		c20.86-16.26,31.52-41.53,50.07-59.94c7-6.89,15.48-12.48,25.06-14.97C478.07,133.91,474.92,134.87,471.82,135.67 M512.31,157.29
		c-4.66,1.56-7.87,5.65-10.11,9.82c-4.3,8.21-5.77,17.62-5.8,26.8c0.19,10.05,2.01,20.43,7.38,29.09c2.84,4.51,7.43,8.91,13.16,8.51
		c5.77-0.58,9.86-5.43,12.43-10.23c5.46-10.53,6.53-22.82,5.36-34.47c-1.07-8.67-3.48-17.59-9.1-24.46
		C522.51,158.52,517.32,155.55,512.31,157.29 M838.21,225.83c0.9,5.75,1.9,11.49,2.24,17.32c-3.37-7.29-6.66-15.5-14-19.67
		c-4.16-2.55-9.81-1.82-13.18,1.69c-5.48,5.43-6.72,13.62-6.67,21.01c-2.69-4.41-5.21-9.4-9.99-11.88
		c-2.97-1.69-6.77-1.42-9.59,0.44c-4.72,3.1-7.45,8.57-8.11,14.07c-1.16,8.99-1.19,18.21,0.61,27.11c0.82,3.43,1.75,7.58,5.24,9.27
		c4.56,2.24,9.96,1.79,14.7,0.34c3.51-1.16,7.48-3.24,8.2-7.24c1.16-5.64,1.52-11.48,0.95-17.2c1.81,5.81,2.13,12.06,4.58,17.69
		c0.96,2.79,4.5,2.15,6.84,2.38c6.89-0.41,14.61-1.47,19.85-6.4c3.64-5.61,2.13-12.71,2.53-19.02c2.31,5.43,3.42,11.26,4.49,17.03
		c5.95,0.23,12.61-0.55,17-5.02c3.95-3.93,4.64-9.81,4.48-15.11c1.67,3.95,2.92,8.09,3.36,12.37c3.29-0.24,6.73-0.98,9.22-3.31
		c2.69-2.28,3.52-5.84,4.64-9.02c-0.1,6.09-0.55,13.31-6.15,17.06c1.22,3.88,2.12,7.86,2.9,11.85c8.02-8.77,11.12-21.07,11.16-32.71
		c-0.16-9.76-3.49-20.67-12.14-26.14c2.21,4.78,3.35,10.21,2.37,15.46c-1.5-5.1-3.96-10.6-8.99-13.05c-2.74-1.44-5.89-0.98-8.74-0.2
		c0.35,4.46,0.67,8.98-0.28,13.39c-2.28-7.42-5.39-15.65-12.47-19.72C847.49,215.09,839.06,219.28,838.21,225.83 M699.09,241.83
		c-3.7,1.19-5,5.85-3.14,9.09c1.87,3.46,5.61,7.83,10.01,5.94c3.58-1.74,6.44,2.99,10.02,1.98c3.02-1.57,3.72-5.27,4.72-8.22
		c1.04,6.37,3.52,12.94,8.72,17.05c1.85,1.5,5.01,2.59,6.81,0.44c2.47-3.13,2.08-7.44,1.93-11.19c-0.22-5.77-2.94-12.22-8.63-14.47
		c-3-1.27-6.12,0.19-8.65,1.8C715.47,237.9,706.08,239.42,699.09,241.83 M746.61,252.36c-1.78,5.63-0.9,11.7,0.89,17.21
		c3.8,11.82,11.77,21.67,16.35,33.14c5.71-8.91,8.37-19.46,9.42-29.9c0.5-7.91,0.63-16.5-3.48-23.56
		C764.55,240.61,749.85,243.31,746.61,252.36 M459.98,257.32c-23.45,3.65-46.91,13.55-62.89,31.6
		c20.29-11.01,45.35-10.95,66.47-2.33c3.97,1.73,8,3.57,11.25,6.5c-39.25-7.73-82.28,8.22-106.62,40.03
		c-9.85,13-15.91,29.53-13.8,45.97c1.31-5,2.47-10.11,5.1-14.61c7.27-13.27,21.55-20.6,35.46-25c25.63-7.87,52.59-9.29,78.98-13.16
		c19.23-2.92,39.26-6.05,55.96-16.72c-11.46-10.93-19.17-25.4-22.65-40.78c-5.3-2.45-10.33-5.58-14.53-9.65
		c-1.11-0.92-2.08-2.3-3.65-2.36C479.41,255.52,469.6,255.93,459.98,257.32 M673.24,352.23c-17.25-18.63-28.04-43.07-30.92-68.25
		c-4.24,4.06-7.7,8.85-11.74,13.1c10.36,24.75,15.78,51.7,14.44,78.56c15.56,4.38,30.21,11.46,44.66,18.59
		c28.55,14.74,56.34,31.85,79.33,54.5c-2.91-9.77-9.55-18.09-17-24.87c18.17,7.88,33.79,22.71,40.02,41.81
		c16.83,1.38,34.23,1.18,50.38-4.25c2.69-1.21,6.18-1.71,7.72-4.53c3.17-5.31,5.79-11.1,6.73-17.25c0.23-0.44,0.7-1.3,0.93-1.74
		c0.59,2.98,1.4,5.91,2.11,8.87c0.33,2.12,0.69,4.26,1.07,6.38c4.25-2.35,8.21-5.23,11.76-8.54c1.98-1.59,1.75-4.42,2.18-6.67
		c0.89-9.22,0.22-18.96-3.85-27.4c-0.55-1.81-1.43-3.51-2.18-5.23c-3.41,4.02-9.07,7.56-14.37,4.92
		c-3.74,5.57-11.35,7.79-17.39,4.66c-6.17,5.67-15.96,7.3-23.3,2.93c-5.33,2.73-12.16,3.49-17.16-0.37
		c-4.92,2.79-11.04,3.08-16.25,0.96c-6.63-2.55-11.58-7.97-15.59-13.65c-11.07-1.66-20.56-8.79-26.42-18.15
		c-7.39-0.18-14.14-5.06-16.59-12.03c-5.64,0.86-9.67-3.63-13.63-6.8c8.62,11.82,19.13,22.18,30.78,31.02
		c-18.44-8.99-35.04-21.85-48.4-37.41c-6.74-7.89-11.23-17.38-14.91-27.01c-7.39-19.81-11.44-40.7-14.15-61.62
		C659.54,299.61,662.53,327.34,673.24,352.23 M694.68,328.13c1.8,5.5,4.07,10.91,7.25,15.78c1.84,2.75,4.73,5.87,8.42,4.68
		c0.22,4.9,1.71,10.07,5.54,13.39c2.59,2.44,6.57,3.53,9.83,1.7c0.35,5.21,2.99,11.04,8.33,12.7c3.29,1.11,6.44-0.94,8.6-3.25
		c-0.84,4.16,0.81,8.43,3.66,11.47c5.46,5.92,13.19,8.93,20.71,11.27c2.63,4.52,5.76,8.99,10.4,11.72
		c5.77,3.72,13.72,5.83,19.91,1.83c4.4,5.14,12.06,4.15,17.06,0.46c6.67,5.66,17.07,3.2,22.84-2.63c5.74,3.89,13.66,1.25,17.01-4.51
		c3.74,3.02,8.25-0.36,10.21-3.78c0.63,0.16,1.9,0.48,2.53,0.65c3.4-4.86,4.41-10.9,4.76-16.69c0.36-7.02,0.15-14.13-1.31-21.02
		c-0.82-3.56-1.98-7.19-4.45-9.98c-3.22,8.29-7.56,16.07-11.72,23.9c3.37-1,6.54-2.54,9.55-4.36c3.63,5.67,4.08,13.33,1.72,19.54
		c-0.29-4.72-0.39-9.74-3-13.87c-2.2,1.3-4.57,2.27-6.99,3.04c0.16,4.62-0.16,9.29-1.22,13.8c-1.09-4.12-1.18-8.47-2.71-12.5
		c-3.69,1.48-7.61,2.25-11.56,2.49c-0.41,5.76-0.81,11.61-2.65,17.13c-0.19-5.4-0.74-10.77-1.86-16.05
		c-4.36,0.97-8.79,1.55-13.25,1.77c-1.63,5.87-3.2,11.82-5.9,17.32c0.3-5.65,0.31-11.31,0.09-16.97c-4.25,0.27-8.52,0.09-12.69-0.77
		c-1.22,4.39-2.59,8.84-5.19,12.63c-2.47-13.92-6.7-27.55-12.83-40.3c-9.3,8.34-14.99,19.89-19.19,31.46
		c-1.32-5.13-1.18-10.49-0.28-15.67c-4.63-2.53-8.71-6.04-11.6-10.47c-3.61,0.96-6.89,2.74-9.92,4.89c1.16-3.35,3.11-6.3,5.2-9.13
		c-4.65-1.29-8.69-4.05-12.15-7.34c-3.91,1.4-7.26,3.87-10.43,6.48c1.71-3.23,3.9-6.16,6.41-8.81c-3.68-3.99-9.82-4.94-12.35-10.14
		c-2.29,1.69-4.79,3.1-7.5,4c2.16-2.98,6.52-5.42,5.57-9.69c-1.69-4.98-7.53-5.97-11.54-8.39c-4.09-2.06-7.86-6.28-6.31-11.19
		C696.09,316.12,692.83,322.79,694.68,328.13 M554.21,323.06c-10.63,14.79-25.94,25.89-42.99,32.14
		c-22.29,8.64-46.56,9.76-69.19,17.17c-13.1,4.22-25.6,12.76-31.26,25.71c7.13-7.1,17.56-8.9,27.25-8.59
		c18.17,0.37,36.01,4.34,54.02,6.39c21.56,2.58,44.08,3.63,64.94-3.48c13.61-4.47,25.48-13.1,34.94-23.74
		c-1.18,16.66-13.58,32.24-30.09,35.85c12.72,0.95,25.83-3.04,35.82-11c11.05-8.65,16.87-22.74,16.97-36.59
		c0.03-8.07-0.73-16.5-3.53-24.02c-5.64,6.67-11.14,13.52-17.67,19.36c-15.71,14.71-35.4,25.3-56.59,29.36
		c-17.12,3.23-35.05,3-51.96-1.3c22.59-1.15,45.45-6.72,64.63-19.07c14.94-9.59,27.3-23.18,35.46-38.94
		C574.96,325.04,564.31,325.61,554.21,323.06 M641.97,442.83c0.07,74.66,0.01,149.32,0.03,223.99c14.17-0.3,28.35-0.18,42.53-0.06
		c-0.12-74.56,0.08-149.12-0.1-223.68c-14.02,0.14-28.04,0.01-42.06,0.07L641.97,442.83 M519.5,446.41l-0.39-0.33
		c0.03,76.99,0,153.98,0.02,230.96c13.98-1.97,27.98-3.9,42.04-5.23l-0.2-0.13c0.05-17.61,0.05-35.22,0-52.83
		c3.22-1.54,6.42-3.15,9.76-4.42c2.97,18.56,6.23,37.07,9.34,55.6c14.01-1.37,28.12-1.59,42.13-2.91l0.52,0.37
		c-4-23.83-8.21-47.63-12.24-71.45c3.55-1.49,6.85-3.6,9.19-6.71c2.2-3.73,3.11-8.05,3.08-12.34c0-38.03,0.01-76.06-0.01-114.08
		c-0.04-5.4-1.41-11.29-5.79-14.84c-4.97-4.08-11.75-4.46-17.9-4.32C572.52,444.19,546,445.1,519.5,446.41 M711.81,446.64
		c-6.07,3.88-8.33,11.43-8.31,18.3c-0.01,60.3,0.01,120.61-0.01,180.92c0.08,5.83,0.59,12.29,4.65,16.85
		c3.75,4.08,9.5,5.22,14.79,5.69c17.66,1.29,35.29,2.84,52.9,4.72c8.11,0.85,17.03,2.77,24.49-1.68c6.67-4.6,6.47-13.31,6.18-20.52
		c0-51.21,0-102.41,0-153.62c-0.02-3.94,0.09-7.88-0.1-11.81c-9.51,0.15-19.07-0.9-28.26-3.41c-0.74-4.14-1.03-9.12-4.6-11.91
		c-11.26-9.13-22.92-17.76-35.03-25.72c-1.9-1.36-4.34-0.68-6.5-0.83C725.24,443.81,717.78,442.63,711.81,446.64 M458.26,449.9
		l-0.27-0.22c-0.05,69.83,0.1,139.65,0.1,209.48c-6.35,1.11-12.65,2.44-18.96,3.74c0-70.56,0.01-141.12-0.01-211.68
		c-14.06,0.94-28.1,2.19-42.14,3.28l0.16,0.11c-0.33,18.09-0.05,36.2-0.14,54.3c0,57.32,0,114.64,0,171.96
		c-0.09,5.19,1.64,10.78,5.96,13.97c4.67,3.56,11.01,3.76,16.51,2.39c20.81-5.03,41.7-9.68,62.67-14c4.76-0.96,9.49-2.69,13.11-6.04
		c4.16-4.72,5.08-11.23,4.89-17.29c-0.03-70.84,0-141.68-0.01-212.52C486.17,448.18,472.2,448.86,458.26,449.9 M887.37,518.96
		c-0.03,48.03,0.06,96.05-0.05,144.08c-6.19-1.66-12.55-2.62-18.82-3.92c0-60.61,0-121.21,0-181.81c-0.02-2.83,0.01-5.65,0.05-8.47
		c-13.41,7.18-27.86,12.5-42.91,14.96c-0.05,59.71,0,119.42-0.02,179.13c0.04,5.14,1.1,10.71,4.87,14.49
		c3.85,3.79,9.33,5.06,14.46,6.06c21.15,3.97,42.21,8.49,63.04,13.89c4.79,1.3,10.06,1.23,14.51-1.16
		c5.31-3.58,7.31-10.17,7.12-16.31c-0.02-75.13,0.07-150.26-0.05-225.39c-13.88-1.11-27.77-2.3-41.66-3.26l-0.37-0.38
		C887.14,473.56,887.49,496.26,887.37,518.96 M263.29,468.96c0.26,0.34,0.79,1.01,1.05,1.35l-0.07-0.36
		c7.37,8.16,11.8,18.93,11.86,29.96c0,82.46-0.02,164.92,0,247.39c13.64-6.21,27.52-11.84,41.39-17.49
		c-0.07-20.55,0.02-41.09-0.04-61.64c13.13-4.41,26.32-8.67,39.66-12.43l-0.18-0.19c0.08-10.53,0.04-21.07,0.02-31.61
		c-13.24,3.35-26.38,7.11-39.49,10.94c0.01-46.23,0.04-92.47-0.01-138.71c6.42-0.93,12.84-1.89,19.29-2.65
		c-0.05,21.11-0.01,42.22-0.02,63.33c0.16,15.65-0.32,31.33,0.24,46.96c13.72-3.69,27.55-7,41.29-10.64
		c-0.08-45.67,0.07-91.33-0.15-136.99C339.79,459.83,301.47,463.93,263.29,468.96 M953.94,460.9l-0.14-0.12
		c-4.65,4.35-5.6,11.03-5.44,17.09c0.03,21.34,0,42.68,0.01,64.02c0.06,5.85,1.16,12.03,4.94,16.69c4.55,5.59,11.05,9,16.83,13.14
		c13.22,9.05,26.23,18.4,38.96,28.12c0.05,29.68,0,59.36,0.03,89.04c0.02,2.57,0.16,5.18-0.44,7.71
		c-5.94-2.38-12.11-4.15-18.11-6.34c0.06-25.55,0.11-51.1-0.03-76.64c-13.88-9.26-27.45-18.98-41.37-28.16
		c-0.19-0.21-0.57-0.63-0.76-0.83c-0.12,34.08,0,68.18-0.06,102.26c-0.12,5.4,0.11,11.03,2.55,15.97c2.86,6.05,9.01,9.6,15.14,11.62
		c28.66,9.65,56.94,20.48,84.52,32.88l-0.35-0.45c0.37-41.98,0.05-83.99,0.16-125.98c-0.15-8.5,0.89-17.53-3.01-25.42
		c-3.99-8.32-12.04-13.36-19.05-18.88c-12.35-9.49-24.85-18.82-37.7-27.64c0-18.49,0.02-36.99-0.01-55.49
		c6.17,0.78,12.31,1.76,18.47,2.66c0.14,12.48-0.06,24.95,0.1,37.43c13.92,10.5,27.42,21.56,41.43,31.93
		c-0.09-0.33-0.27-0.99-0.37-1.32c0.34-21.77,0-43.56,0.17-65.33c0.43-11.11,4.96-22.18,13.09-29.88
		c-31.48-4.14-63.07-7.41-94.63-10.82C963.79,457.55,958.18,457.63,953.94,460.9 M662.3,689.97c-5.2,10.95-10.6,21.81-15.88,32.72
		c-0.21-0.01-0.62-0.01-0.83-0.02c-5.33-10.68-10.64-21.38-15.89-32.11c-4.65,0.08-9.29,0.35-13.93,0.55
		c-0.05,23.06-0.01,46.12-0.02,69.18c4.46-0.23,8.91-0.44,13.37-0.56c0.13-14.31-0.23-28.64,0.19-42.94
		c5.57,11.18,10.98,22.46,16.71,33.56c5.77-11.27,10.93-22.86,16.83-34.07c0.05,14.29,0,28.57,0.02,42.86c4.46,0,8.92,0,13.38,0
		c0-23.04,0.01-46.09,0-69.13C671.59,690.12,666.94,689.79,662.3,689.97 M692.08,690.42c0.12,23.04-0.01,46.07,0.07,69.11
		c4.44,0.14,8.89,0.3,13.34,0.51c0.01-23.06,0.01-46.12,0.01-69.18C701.02,690.69,696.55,690.44,692.08,690.42 M721.21,691.77
		c0.06,23.02,0.05,46.03,0.01,69.05c4.47,0.34,8.94,0.62,13.42,0.95c-0.03-14.25-0.02-28.5,0-42.75c7.6,14.85,15.2,29.7,22.58,44.66
		c4.62,0.59,9.27,0.99,13.91,1.54c0-23.06,0-46.11,0-69.17c-4.46-0.51-8.92-0.97-13.38-1.43c-0.02,15.42,0.01,30.84-0.01,46.25
		c-7.59-16.05-15.02-32.18-22.62-48.22C730.48,692.33,725.85,691.89,721.21,691.77 M559.81,695.65c-3.48,0.44-4.66,4.22-4.55,7.25
		c-0.07,20.76,0.07,41.51-0.07,62.26c4.5-0.37,8.98-0.91,13.47-1.4c-0.08-8.09-0.02-16.17-0.04-24.25
		c6.01-0.59,12.02-1.21,18.05-1.58c-0.09,8.08-0.03,16.16-0.04,24.25c4.45-0.36,8.91-0.69,13.37-0.97
		c-0.05-21.14,0.1-42.29-0.07-63.43c0.16-2.77-1.89-5.79-4.94-5.36C583.25,693.22,571.49,694.18,559.81,695.65 M499.91,704.07
		c-3.15,0.49-4.86,3.77-4.75,6.73c-0.09,18.68,0,37.36-0.04,56.04c-0.03,2.27,0.2,5.54,2.89,6.23c2.64,0.26,5.25-0.52,7.85-0.88
		c11.2-1.85,22.42-3.61,33.69-4.98c0.16-11.63,0.04-23.25,0.06-34.88c-7.05,0.94-14.09,1.92-21.11,3.01
		c0.01,3.47,0.03,6.94-0.08,10.41c2.62-0.29,5.22-0.65,7.82-1.06c0.01,4.36,0.01,8.72,0,13.09c-5.92,0.87-11.84,1.78-17.75,2.74
		c-0.01-14.72,0.06-29.44-0.03-44.15c5.9-1.1,11.84-1.95,17.78-2.81c0.01,2.73,0.01,5.46,0,8.2c4.48-0.67,9-1.14,13.46-1.98
		c-0.3-5.78,0.26-11.59-0.34-17.35c-0.13-2.66-2.78-4.36-5.29-3.7C522.65,700.29,511.24,701.96,499.91,704.07 M788.05,700.03
		c-1.19,1.69-1.13,3.86-1.19,5.85c0.02,20.41,0.01,40.83,0.01,61.24c12.73,1.75,25.45,3.6,38.11,5.81c1.55,0.17,3.38,0.57,4.75-0.46
		c1.79-1.67,1.58-4.34,1.66-6.56c-0.07-8.92,0.08-17.84-0.08-26.76c-7.03-1.11-14.02-2.43-21.07-3.43c0.01,3.48,0.01,6.97,0,10.46
		c2.64,0.4,5.3,0.84,7.94,1.36c-0.06,4.33-0.22,8.65-0.19,12.99c-5.91-0.97-11.83-1.87-17.75-2.76c0.01-14.72,0.04-29.45-0.02-44.17
		c5.99,0.77,11.95,1.76,17.91,2.73c-0.02,2.73-0.01,5.47,0.01,8.22c4.42,0.7,8.82,1.5,13.23,2.26c-0.08-5.63,0.19-11.26-0.12-16.87
		c-0.03-2.93-2.21-5.68-5.19-5.98c-10.64-1.96-21.35-3.5-32.05-5.05C792.02,698.65,789.45,698.17,788.05,700.03 M572.49,790.08
		c27.96,23.43,58.68,43.47,90.62,61.04c32.24-17.24,62.65-37.83,91.01-60.88C693.81,783.72,632.83,784,572.49,790.08z"/>
	<path class="st1" d="M784.08,100.4c5.57-0.89,11.25-2.98,14.96-7.43c-1.94,6.12-4.21,13.45-10.47,16.39
		c-7.69,1.69-15.56-0.82-22.79-3.35c-5.86-2.26-11.6-4.93-16.82-8.45C760.38,100.41,772.35,102.22,784.08,100.4z"/>
	<path class="st1" d="M644.7,103.56c9.96-7.24,23.53-7.32,34.75-3.15c16.44,6.22,29.27,19.27,45.7,25.48
		c2.94,1.26,5.95,2.33,9.01,3.24c-4.99-4.14-8.27-9.96-9.67-16.25c4.5,3.57,9.39,6.66,14.7,8.89c11.73,4.82,24.73,8.34,37.47,6.03
		c-5.45,5.91-13.13,9-20.77,10.92c6.32,1.71,12.95,1.8,19.37,0.59c0.62,22.83-6.45,46.67-22.13,63.65
		c4.55-10.82,5.28-22.84,3.83-34.38c-20.81,5.72-42.35,10.27-64.05,8.9c-14.55-0.81-29.19-5.34-40.4-14.9
		c-0.91-1.51-2.3-2.61-3.63-3.71c7.83,2.19,16.6,4.01,24.28,0.27c-3.08-3.52-6.04-7.22-7.86-11.56c-3.78-8.2-3.69-17.39-3.54-26.21
		c-5.65-3.11-12.3-5.23-18.74-3.49c-4.15,0.86-7.69,3.51-9.99,7.03C633.68,116.56,637.74,108.39,644.7,103.56z"/>
	<path class="st1" d="M793.39,138.6c3.21-2.47,8.02-4.28,11.72-1.84c6.99,15.76,14.99,31.81,28.04,43.48
		c-1.69,2.68-4.38,4.4-7.15,5.8c-3.43-4.69-6.62-9.79-11.4-13.22c0.32,5.86-0.06,11.76-0.96,17.56c-6.53,2.15-14.34,3.04-20.25-1.21
		c1.59-7.32,3.04-14.72,3.11-22.23C796.59,157.41,795.28,147.92,793.39,138.6z"/>
	<path class="st1" d="M560.98,475.19c6.5-0.24,13-0.44,19.5-0.57c0.02,34.81,0.04,69.62-0.01,104.44
		c-6.51,2.92-13.02,5.82-19.47,8.87C560.99,550.35,561.03,512.77,560.98,475.19z"/>
	<path class="st1" d="M746.25,474.68c6.33-0.06,12.66,0.4,19,0.42c0.24,56.53,0.13,113.07,0.06,169.6
		c-6.33-0.84-12.71-1.11-19.06-1.68C746.25,586.9,746.26,530.79,746.25,474.68z"/>
	<path class="st1" d="M568.61,708.4c6.01-0.61,12.02-1.32,18.06-1.54c-0.11,6.84-0.01,13.68-0.06,20.52
		c-6,0.47-11.99,1.04-17.98,1.59C568.61,722.11,568.64,715.26,568.61,708.4z"/>
</g>
<g id="_x23_da1921ff">
	<path class="st2" d="M659.95-66.98c25.49,4.77,50.59,16.32,67.78,36.21c3.55,4.24,6.95,8.72,9.33,13.74
		c-12.79-13.18-28.09-24.77-46.04-29.69c-1.99,2.7-4.05,5.34-6.12,7.98C679.14-50.08,670.73-60.1,659.95-66.98z"/>
	<path class="st2" d="M585.97-33.54c17.72-5.11,37.53-7.19,54.91,0.21c-29.89,1.89-59.42,10.11-85.86,24.2
		c-13.22,7.16-25.63,16.06-35.84,27.14c-2.46,2.84-6.48,3.18-9.81,4.43c-15.87,4.61-33.31,7.29-49.34,2
		c9.98-0.75,19.08-5.43,27.93-9.73C520.24-2.08,550.76-23.14,585.97-33.54z"/>
	<path class="st2" d="M430.46,82.28c20.92-11.33,42.44-21.79,65.12-29.12c-7.46,17.86-10.54,37.27-10.9,56.54
		c-16.67,11.24-37.75,17.99-57.84,13.66c16.03-3.57,31.14-12.25,41.03-25.53c2.66-3.78,5.53-7.59,7.03-12.01
		c-7.69,7.54-17.26,12.84-27.24,16.7c-15.5,5.96-32.08,9.06-48.68,9.37c-12.1,0.03-24.69-1.15-35.6-6.81
		c6.6-0.04,13.24-0.21,19.68-1.78C400.05,99.36,415.18,90.34,430.46,82.28z"/>
	<path class="st2" d="M471.82,135.67c3.1-0.8,6.25-1.76,9.5-1.45c-9.58,2.49-18.06,8.08-25.06,14.97
		c-18.55,18.41-29.21,43.68-50.07,59.94c-6.6,5.41-14.48,8.78-22.41,11.67c19.5-0.84,37.05-11.28,51.91-23.22
		c11.84-9.2,22.09-20.44,34.73-28.59c-3.56,15.09-4,30.94-0.84,46.15c-7.68,6.96-17,11.81-26.46,15.9
		c-17.23,7.2-35.63,11.55-54.23,13.16c-14.51,1.16-29.42,0.71-43.41-3.66c-8.95-2.89-17.81-7.75-23.16-15.73
		c3.83,0.9,7.68,1.96,11.65,1.94c9.46,0.13,18.48-3.59,26.47-8.39c9.77-5.94,18.45-13.46,26.88-21.13
		c15.71-14.38,30.6-29.75,47.72-42.49C446.16,146.49,458.37,139.33,471.82,135.67z"/>
	<path class="st2" d="M885.2,189.75c0.46-4.58,2.76-8.7,5.41-12.37c30.49,10.02,60.48,21.66,89.4,35.57
		c1.54,0.62,0.73,2.72,0.99,3.99c-0.53,72.34-6.1,144.92-21.48,215.71c-20.61-1.98-41.25-3.56-61.89-5.09
		c-0.25-11.19-4.05-21.97-9.15-31.82c1.24-9.47,2.41-19.21,0.59-28.75c-2.46-16.67-12.96-32.56-28.75-39.25
		c-3.38,9.1-7.46,17.94-12.18,26.42c-2.56-1.57-5.6-2.65-7.27-5.3c-2.41-3.29-5.91-5.49-9.4-7.45c-1.97-4.68-5.27-8.67-9.35-11.66
		c-0.81-2.62-1.73-5.27-3.47-7.44c-2.93-4.05-7.49-6.72-9.86-11.2c-1.87-3.45-2.09-7.45-2.3-11.28c3.15-1.01,5.96-3.6,9.43-3.16
		c10.41,0.87,21.06-1.57,30.06-6.87c2.42-1.55,5.41-0.93,8.12-1.33c4.78-0.34,9.23-2.2,13.61-3.99c1.56,6.93,3,13.95,2.96,21.09
		c15.87-6.4,29.79-18.56,36.85-34.31c5.13-11.28,6.2-24.37,2.87-36.31c-2.93-10.49-9.29-19.85-17.45-26.98
		C887.83,203.49,884.35,196.66,885.2,189.75z"/>
	<path class="st2" d="M459.98,257.32c9.62-1.39,19.43-1.8,29.08-0.51c1.57,0.06,2.54,1.44,3.65,2.36c4.2,4.07,9.23,7.2,14.53,9.65
		c3.48,15.38,11.19,29.85,22.65,40.78c-16.7,10.67-36.73,13.8-55.96,16.72c-26.39,3.87-53.35,5.29-78.98,13.16
		c-13.91,4.4-28.19,11.73-35.46,25c-2.63,4.5-3.79,9.61-5.1,14.61c-2.11-16.44,3.95-32.97,13.8-45.97
		c24.34-31.81,67.37-47.76,106.62-40.03c-3.25-2.93-7.28-4.77-11.25-6.5c-21.12-8.62-46.18-8.68-66.47,2.33
		C413.07,270.87,436.53,260.97,459.98,257.32z"/>
	<path class="st2" d="M554.21,323.06c10.1,2.55,20.75,1.98,30.75-0.75c-8.16,15.76-20.52,29.35-35.46,38.94
		c-19.18,12.35-42.04,17.92-64.63,19.07c16.91,4.3,34.84,4.53,51.96,1.3c21.19-4.06,40.88-14.65,56.59-29.36
		c6.53-5.84,12.03-12.69,17.67-19.36c2.8,7.52,3.56,15.95,3.53,24.02c-0.1,13.85-5.92,27.94-16.97,36.59
		c-9.99,7.96-23.1,11.95-35.82,11c16.51-3.61,28.91-19.19,30.09-35.85c-9.46,10.64-21.33,19.27-34.94,23.74
		c-20.86,7.11-43.38,6.06-64.94,3.48c-18.01-2.05-35.85-6.02-54.02-6.39c-9.69-0.31-20.12,1.49-27.25,8.59
		c5.66-12.95,18.16-21.49,31.26-25.71c22.63-7.41,46.9-8.53,69.19-17.17C528.27,348.95,543.58,337.85,554.21,323.06z"/>
	<path class="st2" d="M572.49,790.08c60.34-6.08,121.32-6.36,181.63,0.16c-28.36,23.05-58.77,43.64-91.01,60.88
		C631.17,833.55,600.45,813.51,572.49,790.08z"/>
</g>
<g id="_x23_ffffffff">
	<path class="st3" d="M699.98,12.85c19.57-4.8,40.39-1.98,59.06,5.06c14.18,5.29,26.88,13.89,37.93,24.15
		c4.75,4.72,8.7,10.23,11.94,16.08c1.54,2.06,0.27,4.6,0.03,6.86c-0.95,5.37-2.96,10.46-5.05,15.47c7.58-5.59,13.22-13.5,17.16-22
		l0.36,0.53c6.17,8.54,9.39,19.39,7.67,29.89c-1.95,13.7-10.75,25.75-22.25,33.16c-0.3,0.22-0.9,0.67-1.2,0.89
		c4.84,2.23,10.04,3.66,15.38,3.98c-3.17,2.12-6.51,3.98-10.03,5.46c5.44,12.49,12.85,24.25,22.23,34.17
		c3.51,3.65,7.39,6.98,11.79,9.52c-5.25-6.55-8.97-14.36-9.88-22.77c7.16,3.31,14.92,5.13,22.74,6.03c0.02,0.25,0.06,0.73,0.09,0.97
		c0.75,7.59-0.87,15.85-6.71,21.18c2.5,13.02,10.32,24.81,20.71,32.9l1.07,0.79c-3.69-0.64-7.41-0.09-10.88,1.19
		c-4.41-7.27-9.39-14.21-15.16-20.46c2.25,5.27,4.59,10.52,6.61,15.89c-6.5-2.48-14.93-1.66-19.04,4.53
		c-4.03-7.73-7.83-15.73-13.38-22.51c2.51,7.18,4.6,14.49,6.41,21.88c-5.02-2-10.9-2.51-15.85-0.08c-3.51,1.61-6.02,4.65-8.15,7.77
		c-2.24-6.82-5.03-13.45-8.36-19.8c-0.22-0.14-0.65-0.43-0.87-0.58c2.29,7.46,2.78,15.33,3.62,23.05
		c-4.82-1.28-10.22-1.41-14.65,1.18c-4.51,2.39-7.26,6.87-9.62,11.2c-5.86-12.47,0.88-25.94-1.13-38.89
		c-0.93,3.98-1.78,8.17-4.41,11.44c-5.09,6.64-13.1,9.81-20.2,13.77c-3.51,1.79-6.49,4.4-9.67,6.7c-0.36-0.94-0.7-1.88-1.02-2.81
		c-3.17-10.12-12.19-17.3-21.65-21.32c-16.37-6.78-34.87-5.43-51.63-0.85c7.93-5.81,17.16-9.75,26.77-11.8
		c5.41-1.21,10.97-1.45,16.45-2.24c-18.3-1.59-36.17-9.57-49.19-22.59c-1.99-2.28-4.72-4.22-5.51-7.26
		c11.21,9.56,25.85,14.09,40.4,14.9c21.7,1.37,43.24-3.18,64.05-8.9c1.45,11.54,0.72,23.56-3.83,34.38
		c15.68-16.98,22.75-40.82,22.13-63.65c-6.42,1.21-13.05,1.12-19.37-0.59c7.64-1.92,15.32-5.01,20.77-10.92
		c-12.74,2.31-25.74-1.21-37.47-6.03c-5.31-2.23-10.2-5.32-14.7-8.89c1.4,6.29,4.68,12.11,9.67,16.25
		c-3.06-0.91-6.07-1.98-9.01-3.24c-13.35-7.61-24.88-17.83-37.1-27.04c-12.3-9.35-27.63-14.7-43.06-15.09
		c-7.88-0.25-15.73,1.84-22.35,6.14c5.97-9.28,16.6-14.3,27.08-16.54c18.71-3.95,38.33,0.01,55.34,8.26
		c1.74,0.85,3.37,1.92,5.04,2.9c-0.95-1.25-1.95-2.45-2.94-3.66c-9.1-11.25-21.25-20.16-27.97-33.25
		c-3.28-6.19-4.12-13.94-0.8-20.29C682.53,19.15,691.58,15.13,699.98,12.85 M784.08,100.4c-11.73,1.82-23.7,0.01-35.12-2.84
		c5.22,3.52,10.96,6.19,16.82,8.45c7.23,2.53,15.1,5.04,22.79,3.35c6.26-2.94,8.53-10.27,10.47-16.39
		C795.33,97.42,789.65,99.51,784.08,100.4 M793.39,138.6c1.89,9.32,3.2,18.81,3.11,28.34c-0.07,7.51-1.52,14.91-3.11,22.23
		c5.91,4.25,13.72,3.36,20.25,1.21c0.9-5.8,1.28-11.7,0.96-17.56c4.78,3.43,7.97,8.53,11.4,13.22c2.77-1.4,5.46-3.12,7.15-5.8
		c-13.05-11.67-21.05-27.72-28.04-43.48C801.41,134.32,796.6,136.13,793.39,138.6z"/>
	<path class="st3" d="M838.21,225.83c0.85-6.55,9.28-10.74,15.05-7.21c7.08,4.07,10.19,12.3,12.47,19.72
		c0.95-4.41,0.63-8.93,0.28-13.39c2.85-0.78,6-1.24,8.74,0.2c5.03,2.45,7.49,7.95,8.99,13.05c0.98-5.25-0.16-10.68-2.37-15.46
		c8.65,5.47,11.98,16.38,12.14,26.14c-0.04,11.64-3.14,23.94-11.16,32.71c-0.78-3.99-1.68-7.97-2.9-11.85
		c5.6-3.75,6.05-10.97,6.15-17.06c-1.12,3.18-1.95,6.74-4.64,9.02c-2.49,2.33-5.93,3.07-9.22,3.31c-0.44-4.28-1.69-8.42-3.36-12.37
		c0.16,5.3-0.53,11.18-4.48,15.11c-4.39,4.47-11.05,5.25-17,5.02c-1.07-5.77-2.18-11.6-4.49-17.03c-0.4,6.31,1.11,13.41-2.53,19.02
		c-5.24,4.93-12.96,5.99-19.85,6.4c-2.34-0.23-5.88,0.41-6.84-2.38c-2.45-5.63-2.77-11.88-4.58-17.69
		c0.57,5.72,0.21,11.56-0.95,17.2c-0.72,4-4.69,6.08-8.2,7.24c-4.74,1.45-10.14,1.9-14.7-0.34c-3.49-1.69-4.42-5.84-5.24-9.27
		c-1.8-8.9-1.77-18.12-0.61-27.11c0.66-5.5,3.39-10.97,8.11-14.07c2.82-1.86,6.62-2.13,9.59-0.44c4.78,2.48,7.3,7.47,9.99,11.88
		c-0.05-7.39,1.19-15.58,6.67-21.01c3.37-3.51,9.02-4.24,13.18-1.69c7.34,4.17,10.63,12.38,14,19.67
		C840.11,237.32,839.11,231.58,838.21,225.83z"/>
	<path class="st3" d="M699.09,241.83c6.99-2.41,16.38-3.93,21.79,2.42c2.53-1.61,5.65-3.07,8.65-1.8c5.69,2.25,8.41,8.7,8.63,14.47
		c0.15,3.75,0.54,8.06-1.93,11.19c-1.8,2.15-4.96,1.06-6.81-0.44c-5.2-4.11-7.68-10.68-8.72-17.05c-1,2.95-1.7,6.65-4.72,8.22
		c-3.58,1.01-6.44-3.72-10.02-1.98c-4.4,1.89-8.14-2.48-10.01-5.94C694.09,247.68,695.39,243.02,699.09,241.83z"/>
	<path class="st3" d="M746.61,252.36c3.24-9.05,17.94-11.75,23.18-3.11c4.11,7.06,3.98,15.65,3.48,23.56
		c-1.05,10.44-3.71,20.99-9.42,29.9c-4.58-11.47-12.55-21.32-16.35-33.14C745.71,264.06,744.83,257.99,746.61,252.36z"/>
	<path class="st3" d="M673.24,352.23c-10.71-24.89-13.7-52.62-11.74-79.47c2.71,20.92,6.76,41.81,14.15,61.62
		c3.68,9.63,8.17,19.12,14.91,27.01c13.36,15.56,29.96,28.42,48.4,37.41c-11.65-8.84-22.16-19.2-30.78-31.02
		c3.96,3.17,7.99,7.66,13.63,6.8c2.45,6.97,9.2,11.85,16.59,12.03c5.86,9.36,15.35,16.49,26.42,18.15
		c4.01,5.68,8.96,11.1,15.59,13.65c5.21,2.12,11.33,1.83,16.25-0.96c5,3.86,11.83,3.1,17.16,0.37c7.34,4.37,17.13,2.74,23.3-2.93
		c6.04,3.13,13.65,0.91,17.39-4.66c5.3,2.64,10.96-0.9,14.37-4.92c0.75,1.72,1.63,3.42,2.18,5.23c1.74,9.53,2.56,19.64-0.58,28.97
		c-2.11,3.93-6.86,5.29-10.58,7.26c-0.71-2.96-1.52-5.89-2.11-8.87c-0.23,0.44-0.7,1.3-0.93,1.74c-4.21,8.25-13.4,12-21.85,14.28
		c-10.12,2.58-20.67,3.35-31.07,2.61c-2.51,0.21-3.04-2.73-4.2-4.33c-7.19-12.21-19.09-20.62-30.73-28.23
		c-27.57-17.54-58.31-30.98-81.73-54.35C681.99,364.34,677.3,358.49,673.24,352.23z"/>
	<path class="st3" d="M694.68,328.13c-1.85-5.34,1.41-12.01,7-13.41c-1.55,4.91,2.22,9.13,6.31,11.19
		c4.01,2.42,9.85,3.41,11.54,8.39c0.95,4.27-3.41,6.71-5.57,9.69c2.71-0.9,5.21-2.31,7.5-4c2.53,5.2,8.67,6.15,12.35,10.14
		c-2.51,2.65-4.7,5.58-6.41,8.81c3.17-2.61,6.52-5.08,10.43-6.48c3.46,3.29,7.5,6.05,12.15,7.34c-2.09,2.83-4.04,5.78-5.2,9.13
		c3.03-2.15,6.31-3.93,9.92-4.89c2.89,4.43,6.97,7.94,11.6,10.47c-0.9,5.18-1.04,10.54,0.28,15.67c4.2-11.57,9.89-23.12,19.19-31.46
		c6.13,12.75,10.36,26.38,12.83,40.3c2.6-3.79,3.97-8.24,5.19-12.63c4.17,0.86,8.44,1.04,12.69,0.77
		c0.22,5.66,0.21,11.32-0.09,16.97c2.7-5.5,4.27-11.45,5.9-17.32c4.46-0.22,8.89-0.8,13.25-1.77c1.12,5.28,1.67,10.65,1.86,16.05
		c1.84-5.52,2.24-11.37,2.65-17.13c3.95-0.24,7.87-1.01,11.56-2.49c1.53,4.03,1.62,8.38,2.71,12.5c1.06-4.51,1.38-9.18,1.22-13.8
		c2.42-0.77,4.79-1.74,6.99-3.04c2.61,4.13,2.71,9.15,3,13.87c2.36-6.21,1.91-13.87-1.72-19.54c-3.01,1.82-6.18,3.36-9.55,4.36
		c4.16-7.83,8.5-15.61,11.72-23.9c2.47,2.79,3.63,6.42,4.45,9.98c1.46,6.89,1.67,14,1.31,21.02c-0.35,5.79-1.36,11.83-4.76,16.69
		c-0.63-0.17-1.9-0.49-2.53-0.65c-1.96,3.42-6.47,6.8-10.21,3.78c-3.35,5.76-11.27,8.4-17.01,4.51c-5.77,5.83-16.17,8.29-22.84,2.63
		c-5,3.69-12.66,4.68-17.06-0.46c-6.19,4-14.14,1.89-19.91-1.83c-4.64-2.73-7.77-7.2-10.4-11.72c-7.52-2.34-15.25-5.35-20.71-11.27
		c-2.85-3.04-4.5-7.31-3.66-11.47c-2.16,2.31-5.31,4.36-8.6,3.25c-5.34-1.66-7.98-7.49-8.33-12.7c-3.26,1.83-7.24,0.74-9.83-1.7
		c-3.83-3.32-5.32-8.49-5.54-13.39c-3.69,1.19-6.58-1.93-8.42-4.68C698.75,339.04,696.48,333.63,694.68,328.13z"/>
	<path class="st3" d="M642.37,443.15c14.02-0.06,28.04,0.07,42.06-0.07c0.18,74.56-0.02,149.12,0.1,223.68
		c-5.82-5.02-11.61-10.08-17.47-15.05c-1.36-1.23-2.98-2.27-3.93-3.87c-0.37-6.63-0.01-13.28-0.13-19.92
		c-0.01-56.63,0.02-113.27-0.02-169.91C656.14,453.01,649.03,448.38,642.37,443.15z"/>
	<path class="st3" d="M519.5,446.41c26.5-1.31,53.02-2.22,79.55-2.66c6.15-0.14,12.93,0.24,17.9,4.32
		c4.38,3.55,5.75,9.44,5.79,14.84c0.02,38.02,0.01,76.05,0.01,114.08c0.03,4.29-0.88,8.61-3.08,12.34
		c-5.64-2.25-11.34-4.33-17.02-6.47c-0.07-37.32-0.01-74.65-0.03-111.98c0.08-3.5-0.96-7.53-4.26-9.31
		c-4.08-2.24-8.92-1.5-13.37-1.49c-15.33,0.46-30.65,0.88-45.97,1.3C532.52,456.38,525.83,451.62,519.5,446.41z"/>
	<path class="st3" d="M458.26,449.9c13.94-1.04,27.91-1.72,41.87-2.52c0.01,70.84-0.02,141.68,0.01,212.52
		c0.19,6.06-0.73,12.57-4.89,17.29c-5.36-3.17-10.91-6.01-16.2-9.28c0.15-67.31,0.05-134.61,0.05-201.92
		C472.2,460.57,465.09,455.4,458.26,449.9z"/>
	<path class="st3" d="M396.98,454.5c14.04-1.09,28.08-2.34,42.14-3.28c0.02,70.56,0.01,141.12,0.01,211.68
		c6.31-1.3,12.61-2.63,18.96-3.74c6.52,3.22,13.63,5.3,19.89,8.99c-15.29,2.85-30.59,5.64-45.77,9.03
		c-3.21,0.63-6.95,1.42-9.81-0.66c-2.63-1.98-3.05-5.55-3.04-8.59c0.02-66.34,0.02-132.68,0-199.01
		c-7.39-4.81-14.78-9.6-22.22-14.31L396.98,454.5z"/>
	<path class="st3" d="M887.91,451.25c13.89,0.96,27.78,2.15,41.66,3.26c0.12,75.13,0.03,150.26,0.05,225.39
		c0.19,6.14-1.81,12.73-7.12,16.31c-4.88-4.84-9.83-9.59-14.75-14.38c-0.1-70.64,0.18-141.31-0.14-211.94
		C901.52,463.23,894.06,457.88,887.91,451.25z"/>
	<path class="st3" d="M263.29,468.96c38.18-5.03,76.5-9.13,114.84-12.78c0.22,45.66,0.07,91.32,0.15,136.99
		c-7.21-5.64-14.57-11.09-21.79-16.72c-0.08-34.51,0.18-69.02-0.12-103.53c-19.48,2.54-39,4.79-58.49,7.28
		c-1.8,0.49-3.41-0.45-4.87-1.39c-8.68-5.62-18.88-8.21-28.96-9.95l0.22,1.09l0.07,0.36C264.08,469.97,263.55,469.3,263.29,468.96z"
		/>
	<path class="st3" d="M953.94,460.9c4.24-3.27,9.85-3.35,14.93-2.74c31.56,3.41,63.15,6.68,94.63,10.82
		c-8.13,7.7-12.66,18.77-13.09,29.88c-0.17,21.77,0.17,43.56-0.17,65.33c-5.85-9.59-10.3-19.98-15.55-29.91
		c-1.73-4.08-5.01-7.75-4.97-12.38c-0.02-13.14,0.13-26.28-0.06-39.42c-19.81-2.44-39.57-5.27-59.39-7.61
		c6.54,6.46,13.52,12.46,20.34,18.62c0.03,18.5,0.01,37,0.01,55.49c12.85,8.82,25.35,18.15,37.7,27.64
		c7.01,5.52,15.06,10.56,19.05,18.88c3.9,7.89,2.86,16.92,3.01,25.42c-0.11,41.99,0.21,84-0.16,125.98
		c-6.36-8.09-12.57-16.29-18.92-24.38c-1.1-1.3-1.77-2.9-1.59-4.6c0.08-36.32,0-72.65,0.04-108.97c-0.02-4.6-0.02-9.45-2.21-13.62
		c-1.86-3.67-5.06-6.36-8.25-8.81c-14.02-10.68-28.22-21.1-42.55-31.36c-2.12-1.54-4.29-3.3-5.25-5.83
		c-1.63-4.31-1.34-9.01-1.38-13.53c0.11-20.3-0.17-40.61,0.15-60.91C964.83,470.2,959.41,465.52,953.94,460.9z"/>
	<path class="st3" d="M725.18,459.94c7.16,4.71,14.06,9.8,21.07,14.74c0.01,56.11,0,112.22,0,168.34
		c6.35,0.57,12.73,0.84,19.06,1.68c6,3.99,12.01,8.01,17.93,12.13c-15.08-1.07-30.12-2.95-45.23-3.86
		c-3.29-0.35-7.04-0.08-9.73-2.36c-2.48-2.12-3.02-5.59-3.03-8.68C725.2,581.27,725.34,520.6,725.18,459.94z"/>
	<path class="st3" d="M539.02,461.57c7.31,4.56,14.58,9.18,21.96,13.62c0.05,37.58,0.01,75.16,0.02,112.74
		c6.45-3.05,12.96-5.95,19.47-8.87c7.1,1.43,14.29,2.34,21.35,3.94c-20.72,9.66-41.95,18.24-62.65,27.93
		c7.18,2.87,14.52,5.33,21.8,7.92c0.05,17.61,0.05,35.22,0,52.83c-7.32-4.64-14.65-9.27-21.96-13.92
		C539.01,592.36,538.97,526.97,539.02,461.57z"/>
	<path class="st3" d="M847.85,488.19c7.18-3.02,13.99-6.85,20.65-10.88c0,60.6,0,121.2,0,181.81c6.27,1.3,12.63,2.26,18.82,3.92
		c6.48,6.09,13.18,11.97,19.41,18.32c-17.38-4.68-35.05-8.1-52.61-11.95c-5.11-1.14-6.45-7.06-6.37-11.55
		C847.8,601.3,847.62,544.74,847.85,488.19z"/>
	<path class="st3" d="M295.52,480.81c7.45,4.92,14.57,10.33,21.96,15.36c0.05,46.24,0.02,92.48,0.01,138.71
		c13.11-3.83,26.25-7.59,39.49-10.94c0.02,10.54,0.06,21.08-0.02,31.61c-4.4-4.54-8.55-9.31-12.97-13.83
		c-16.16,4.97-32.3,10.03-48.49,14.9C295.5,598.02,295.47,539.42,295.52,480.81z"/>
	<path class="st3" d="M784.23,495.86c7.36,1.13,14.81,2,22.27,1.44c0,51.21,0,102.41,0,153.62c0.29,7.21,0.49,15.92-6.18,20.52
		c-4.93-4.38-9.91-8.73-14.84-13.11c-1.13-0.75-1.31-2.1-1.25-3.33C784.25,601.96,784.26,548.91,784.23,495.86z"/>
	<path class="st3" d="M969.24,616.63c-6.6-10.45-13.84-20.51-20.06-31.18c13.92,9.18,27.49,18.9,41.37,28.16
		c0.14,25.54,0.09,51.09,0.03,76.64c6,2.19,12.17,3.96,18.11,6.34c7.08,7.52,13.58,15.59,20.39,23.37
		c-16.49-7.07-33.47-12.88-50.4-18.77c-4.96-1.5-8.58-6.09-8.45-11.34c-0.26-23.34-0.02-46.7-0.11-70.04
		C970.14,618.65,969.85,617.59,969.24,616.63z"/>
	<path class="st3" d="M586.06,590.41c8.16,1.76,16.28,3.75,24.42,5.63c4.03,23.82,8.24,47.62,12.24,71.45l-0.52-0.37
		c-7.93-5.61-16.26-10.62-24.26-16.12C594.04,630.79,589.99,610.61,586.06,590.41z"/>
	<path class="st3" d="M295.5,656.97c7.41,3.56,14.62,7.53,21.98,11.2c0.06,20.55-0.03,41.09,0.04,61.64
		c-7.27-3.43-14.51-6.95-21.88-10.17C295.31,698.75,295.59,677.86,295.5,656.97z"/>
	<path class="st3" d="M662.3,689.97c4.64-0.18,9.29,0.15,13.95,0.04c0.01,23.04,0,46.09,0,69.13c-4.46,0-8.92,0-13.38,0
		c-0.02-14.29,0.03-28.57-0.02-42.86c-5.9,11.21-11.06,22.8-16.83,34.07c-5.73-11.1-11.14-22.38-16.71-33.56
		c-0.42,14.3-0.06,28.63-0.19,42.94c-4.46,0.12-8.91,0.33-13.37,0.56c0.01-23.06-0.03-46.12,0.02-69.18
		c4.64-0.2,9.28-0.47,13.93-0.55c5.25,10.73,10.56,21.43,15.89,32.11c0.21,0.01,0.62,0.01,0.83,0.02
		C651.7,711.78,657.1,700.92,662.3,689.97z"/>
	<path class="st3" d="M692.08,690.42c4.47,0.02,8.94,0.27,13.42,0.44c0,23.06,0,46.12-0.01,69.18c-4.45-0.21-8.9-0.37-13.34-0.51
		C692.07,736.49,692.2,713.46,692.08,690.42z"/>
	<path class="st3" d="M721.21,691.77c4.64,0.12,9.27,0.56,13.91,0.88c7.6,16.04,15.03,32.17,22.62,48.22
		c0.02-15.41-0.01-30.83,0.01-46.25c4.46,0.46,8.92,0.92,13.38,1.43c0,23.06,0,46.11,0,69.17c-4.64-0.55-9.29-0.95-13.91-1.54
		c-7.38-14.96-14.98-29.81-22.58-44.66c-0.02,14.25-0.03,28.5,0,42.75c-4.48-0.33-8.95-0.61-13.42-0.95
		C721.26,737.8,721.27,714.79,721.21,691.77z"/>
	<path class="st3" d="M559.81,695.65c11.68-1.47,23.44-2.43,35.18-3.23c3.05-0.43,5.1,2.59,4.94,5.36
		c0.17,21.14,0.02,42.29,0.07,63.43c-4.46,0.28-8.92,0.61-13.37,0.97c0.01-8.09-0.05-16.17,0.04-24.25
		c-6.03,0.37-12.04,0.99-18.05,1.58c0.02,8.08-0.04,16.16,0.04,24.25c-4.49,0.49-8.97,1.03-13.47,1.4c0.14-20.75,0-41.5,0.07-62.26
		C555.15,699.87,556.33,696.09,559.81,695.65 M568.61,708.4c0.03,6.86,0,13.71,0.02,20.57c5.99-0.55,11.98-1.12,17.98-1.59
		c0.05-6.84-0.05-13.68,0.06-20.52C580.63,707.08,574.62,707.79,568.61,708.4z"/>
	<path class="st3" d="M499.91,704.07c11.33-2.11,22.74-3.78,34.16-5.34c2.51-0.66,5.16,1.04,5.29,3.7
		c0.6,5.76,0.04,11.57,0.34,17.35c-4.46,0.84-8.98,1.31-13.46,1.98c0.01-2.74,0.01-5.47,0-8.2c-5.94,0.86-11.88,1.71-17.78,2.81
		c0.09,14.71,0.02,29.43,0.03,44.15c5.91-0.96,11.83-1.87,17.75-2.74c0.01-4.37,0.01-8.73,0-13.09c-2.6,0.41-5.2,0.77-7.82,1.06
		c0.11-3.47,0.09-6.94,0.08-10.41c7.02-1.09,14.06-2.07,21.11-3.01c-0.02,11.63,0.1,23.25-0.06,34.88
		c-11.27,1.37-22.49,3.13-33.69,4.98c-2.6,0.36-5.21,1.14-7.85,0.88c-2.69-0.69-2.92-3.96-2.89-6.23
		c0.04-18.68-0.05-37.36,0.04-56.04C495.05,707.84,496.76,704.56,499.91,704.07z"/>
	<path class="st3" d="M788.05,700.03c1.4-1.86,3.97-1.38,5.96-1.12c10.7,1.55,21.41,3.09,32.05,5.05c2.98,0.3,5.16,3.05,5.19,5.98
		c0.31,5.61,0.04,11.24,0.12,16.87c-4.41-0.76-8.81-1.56-13.23-2.26c-0.02-2.75-0.03-5.49-0.01-8.22
		c-5.96-0.97-11.92-1.96-17.91-2.73c0.06,14.72,0.03,29.45,0.02,44.17c5.92,0.89,11.84,1.79,17.75,2.76
		c-0.03-4.34,0.13-8.66,0.19-12.99c-2.64-0.52-5.3-0.96-7.94-1.36c0.01-3.49,0.01-6.98,0-10.46c7.05,1,14.04,2.32,21.07,3.43
		c0.16,8.92,0.01,17.84,0.08,26.76c-0.08,2.22,0.13,4.89-1.66,6.56c-1.37,1.03-3.2,0.63-4.75,0.46
		c-12.66-2.21-25.38-4.06-38.11-5.81c0-20.41,0.01-40.83-0.01-61.24C786.92,703.89,786.86,701.72,788.05,700.03z"/>
</g>
</svg>
