<?xml version="1.0" encoding="utf-8"?>
<!-- Generator: Adobe Illustrator 19.0.0, SVG Export Plug-In . SVG Version: 6.00 Build 0)  -->
<svg version="1.1" id="Layer_1" xmlns="http://www.w3.org/2000/svg" xmlns:xlink="http://www.w3.org/1999/xlink" x="0px" y="0px"
	 viewBox="-118 260.9 359 321" style="enable-background:new -118 260.9 359 321;" xml:space="preserve">
<style type="text/css">
	.st0{fill:#750707;}
	.st1{fill:#FFFFFF;}
</style>
<rect x="-102.1" y="529.6" class="st0" width="261.1" height="43.8"/>
<g id="_x23_000000ff">
	<path d="M-38.3,260.9c93.1,0,186.2,0,279.3,0v0.3c-26.6,106.9-53.1,213.8-79.7,320.7c-93.1,0-186.2,0-279.3,0v-0.3
		C-91.4,474.7-64.9,367.8-38.3,260.9 M-2.3,286c0.5,17.7,0.4,35.6,4.3,53c2.7,11.8,7.8,23.6,16.9,31.9c11,9.9,26.4,14.1,41.1,13.2
		c27.7-0.9,55.7-5.1,81.3-15.9c15.2-6.6,30.6-16.7,36.5-33c-23.9-6.6-47.7-13.1-71.6-19.6c-3-0.9-6-1.7-9-2.4
		c-3.8,8.1-8,16.2-14.1,22.8c-2,2-4.2,4.2-7.1,4.4c-3-0.3-3.4-4-3.6-6.4c0-9,3-17.6,6.1-25.9c-3.6-1-7.1-2-10.7-2.9
		C44.4,298.7,21.1,292.3-2.3,286 M-58.2,401.3c-10,37.4-20.1,74.9-30.1,112.3c15.4,0,30.8,0,46.3,0c5.3-20.3,11.9-40.4,15.9-61.1
		c4,20.4,9,40.7,13.5,61.1c17.7,0,35.4,0,53.1,0c10.1-37.4,20.1-74.9,30.2-112.3c-15.7,0-31.3,0-46.9,0C17.8,423.7,11,446,6.1,468.6
		C3.2,446.1-1,423.7-4.6,401.3C-22.5,401.3-40.3,401.3-58.2,401.3 M76.6,401.3c-4.1,14.9-8.1,29.8-12.2,44.7
		c-0.6,1.8-0.4,3.7-0.3,5.5c1.4,20.8,3.7,41.6,5.5,62.3c8.7,0,17.4,0,26.1,0c13.5-21.3,27.5-42.2,40.4-63.8
		c-6.7,21-11.7,42.5-17.5,63.8c15.2,0,30.4,0,45.7,0c10.1-37.5,20.2-74.9,30.2-112.4c-21.5,0-43,0-64.5,0
		c-7.3,12.5-14.6,25.1-21.8,37.6c-4.3,7.4-8.8,14.7-12.3,22.5c0.9-20.1-0.8-40.2-1.2-60.3C88.6,401.3,82.6,401.3,76.6,401.3
		 M-99.9,568.7c3.4,0,6.9,0,10.3,0c1.2-5.8,2.3-11.7,3.5-17.6c1.1,5.8,1.9,11.7,3,17.6c3.9,0,7.8,0,11.8,0
		c2.2-11.4,4.5-22.8,6.7-34.1c-3.5,0-6.9,0-10.4,0c-1.3,6.6-2.6,13.1-3.8,19.7c-0.8-6.6-1.5-13.2-2.4-19.7c-3.9-0.1-7.9-0.1-11.9,0
		C-95.4,545.9-97.6,557.3-99.9,568.7 M-66.8,568.7c8.3,0,16.6,0,24.9,0c0.7-3,1.3-6.1,1.8-9.1c-4.8-0.1-9.6,0-14.3-0.1
		c0.2-0.8,0.5-2.5,0.7-3.3c4.7,0,9.5,0,14.2,0c0.6-2.4,1.1-4.9,1.5-7.4c-4.8,0-9.5,0-14.3,0c0.2-0.8,0.5-2.5,0.6-3.3
		c4.8-0.1,9.6,0,14.3,0c0.8-3.7,1.5-7.3,2.2-11c-8.3,0-16.6,0-24.9,0C-62.4,545.9-64.6,557.3-66.8,568.7 M-34,534.5
		c-0.2,11.4-0.1,22.8-0.2,34.2c5.3,0,10.6,0,15.9,0c4.4-11.4,8.9-22.8,13.3-34.1c-3.8,0-7.7,0-11.5,0c-2.9,8.5-5.5,17.1-8.2,25.7
		c0.4-8.6,0.8-17.1,1.1-25.7C-27,534.5-30.5,534.5-34,534.5 M-2.6,534.9C-5,546.1-7,557.4-9.2,568.7c8.3,0,16.6,0,24.9,0
		c0.6-3,1.2-6,1.8-9.1c-4.8,0-9.6,0-14.3-0.1c0.3-1.1,0.5-2.2,0.8-3.3c4.7,0,9.5,0,14.2,0c0.5-2.4,1-4.9,1.5-7.3
		c-4.9-0.1-9.7,0.1-14.6-0.2c0.3-0.8,0.8-2.2,1.1-3c4.7-0.4,9.4,0,14.1-0.1c0.8-3.6,1.5-7.3,2.2-11c-8.2,0-16.3-0.2-24.5,0.1
		L-2.6,534.9 M26.6,534.5c-2.3,11.4-4.5,22.8-6.7,34.2c3.6,0,7.1,0,10.7,0c0.8-3.8,1.5-7.6,2.1-11.4c1.5,3.8,3,7.6,4.7,11.4
		c4.2,0,8.4,0,12.7,0c-2.3-4.7-4.6-9.3-6.9-13.9c2.4-0.5,5.2-0.8,6.8-3c2.5-3.4,2.7-7.9,2.3-11.9c-0.1-2.8-2.3-5.4-5.2-5.3
		C40.2,534.3,33.4,534.6,26.6,534.5 M57.9,534.5c-2.3,11.4-4.5,22.8-6.7,34.1c3.4,0,6.8,0,10.2,0c1.2-6.1,2.3-12.2,3.6-18.3
		c0.6,6.1,0.8,12.2,1.3,18.3c1.9,0,3.9,0,5.8,0c2.9-5.8,5.4-11.8,8.3-17.5c-0.9,5.9-2.2,11.6-3.3,17.5c3.4,0.1,6.8,0,10.2-0.1
		c2.1-11.4,4.4-22.7,6.6-34c-4.8,0-9.5,0-14.3,0c-2.6,5.8-5,11.7-7.4,17.6c-0.1-5.9-0.2-11.7-0.4-17.6
		C67.2,534.5,62.6,534.5,57.9,534.5 M89.6,568.7c4,0,7.9,0,11.9,0c0.6-1.6,1.3-3.2,1.9-4.7c2.8-0.1,5.6-0.2,8.4-0.1
		c0,1.6,0,3.3,0,4.9c3.5,0,6.9,0,10.4,0c0.1-11.4,0.1-22.8,0.1-34.2c-5.9-0.1-11.8,0.1-17.7-0.1C99.3,545.7,94.6,557.3,89.6,568.7
		 M124.1,568.7c6.9-0.1,13.9,0.3,20.8-0.2c4.3-0.4,7.2-4.2,8.6-8c2.1-6,3.3-12.3,2.9-18.7c-0.1-3.1-2-6.6-5.3-7
		c-6.7-0.7-13.5-0.2-20.2-0.3C128.5,545.9,126.3,557.3,124.1,568.7z"/>
	<path d="M112.1,543.3c0.1,4,0,8-0.1,12c-1.8,0-3.6,0-5.3,0C108.4,551.2,110.1,547.2,112.1,543.3z"/>
	<path d="M35.3,544.3c2,0.1,4,0.1,6,0.2c0.4,2,0.9,4.4-0.7,6c-1.9,1.3-4.4,0.7-6.6,1C34.4,549,34.9,546.7,35.3,544.3z"/>
	<path d="M139.3,545.5c1.7,0.2,3.6,0,5.2,0.8c1.5,3.4,0.3,7.5-1.3,10.7c-1.2,2.5-4.4,1.8-6.6,2.2
		C137.4,554.7,138.4,550.1,139.3,545.5z"/>
</g>
<g id="_x23_ffffffff">
	<path class="st1" d="M-2.3,286c23.3,6.4,46.7,12.8,70,19.1c-4.8,11.7-8.6,24.1-9.4,36.8c-0.2,5.4-0.2,11.2,2.5,16.1
		c1.5,2.9,4.9,4.7,8.2,4c5.7-1,10.1-5.1,14.1-9c10.1-10.7,17.3-23.9,23-37.4c23.9,6.5,47.8,13,71.6,19.6
		c-5.9,16.2-21.3,26.4-36.5,33C115.7,379,87.7,383.1,60,384c-14.6,0.9-30-3.3-41.1-13.2c-9.1-8.3-14.2-20-16.9-31.9
		C-1.9,321.6-1.8,303.6-2.3,286z"/>
	<path class="st1" d="M-58.2,401.3c17.9,0,35.7,0,53.6,0c3.6,22.4,7.8,44.8,10.7,67.4c4.9-22.7,11.7-44.9,17.6-67.4
		c15.6,0,31.3,0,46.9,0c-10.1,37.4-20.1,74.9-30.2,112.3c-17.7,0-35.4,0-53.1,0c-4.5-20.4-9.5-40.6-13.5-61.1
		c-4,20.7-10.6,40.7-15.9,61.1c-15.4,0-30.8,0-46.3,0C-78.3,476.1-68.2,438.7-58.2,401.3z"/>
	<path class="st1" d="M76.6,401.3c6,0,12,0,18,0c0.3,20.1,2.1,40.2,1.2,60.3c3.6-7.8,8.1-15.1,12.3-22.5
		c7.3-12.6,14.6-25.1,21.8-37.6c21.5,0,43,0,64.5,0c-10.1,37.5-20.1,74.9-30.2,112.4c-15.2,0-30.4,0-45.7,0
		c5.8-21.3,10.9-42.8,17.5-63.8c-12.9,21.6-26.9,42.5-40.4,63.8c-8.7,0-17.4,0-26.1,0c-1.8-20.8-4.1-41.5-5.5-62.3
		c-0.1-1.8-0.3-3.7,0.3-5.5C68.5,431.1,72.6,416.2,76.6,401.3z"/>
</g>
<g id="_x23_750707ff">
	<path class="st0" d="M67.8,305.1c3.6,1,7.2,2,10.7,2.9c-3.1,8.3-6.1,16.9-6.1,25.9c0.1,2.4,0.5,6.1,3.6,6.4
		c2.9-0.2,5.2-2.4,7.1-4.4c6.1-6.6,10.3-14.7,14.1-22.8c3,0.8,6,1.6,9,2.4c-5.8,13.5-12.9,26.7-23,37.4c-3.9,3.9-8.4,8-14.1,9
		c-3.3,0.7-6.7-1.1-8.2-4c-2.7-4.9-2.7-10.7-2.5-16.1C59.2,329.1,63,316.8,67.8,305.1z"/>
	<path class="st0" d="M-99.9,568.7c2.2-11.4,4.4-22.8,6.7-34.1c4,0,7.9,0,11.9,0c0.8,6.6,1.6,13.1,2.4,19.7
		c1.3-6.6,2.5-13.2,3.8-19.7c3.5,0,6.9,0,10.4,0c-2.2,11.4-4.4,22.8-6.7,34.1c-3.9,0-7.8,0-11.8,0c-1.1-5.8-1.9-11.7-3-17.6
		c-1.1,5.9-2.3,11.7-3.5,17.6C-93,568.7-96.4,568.7-99.9,568.7z"/>
	<path class="st0" d="M-66.8,568.7c2.2-11.4,4.4-22.8,6.7-34.2c8.3,0,16.6,0,24.9,0c-0.7,3.7-1.4,7.3-2.2,11c-4.8,0-9.6,0-14.3,0
		c-0.2,0.8-0.5,2.5-0.6,3.3c4.8,0,9.5,0,14.3,0c-0.5,2.5-1,4.9-1.5,7.4c-4.7,0-9.5,0-14.2,0c-0.2,0.8-0.5,2.5-0.7,3.3
		c4.8,0.1,9.5,0,14.3,0.1c-0.6,3-1.2,6.1-1.8,9.1C-50.2,568.7-58.5,568.7-66.8,568.7z"/>
	<path class="st0" d="M-34,534.5c3.5,0,7,0,10.5,0c-0.3,8.6-0.7,17.1-1.1,25.7c2.7-8.6,5.3-17.2,8.2-25.7c3.8,0,7.7,0,11.5,0
		c-4.4,11.4-8.9,22.8-13.3,34.1c-5.3,0-10.6,0-15.9,0C-34.1,557.3-34.2,545.9-34,534.5z"/>
	<path class="st0" d="M-2.6,534.9l0.4-0.3c8.2-0.3,16.3,0,24.5-0.1c-0.7,3.7-1.4,7.3-2.2,11c-4.7,0.1-9.4-0.2-14.1,0.1
		c-0.3,0.8-0.8,2.2-1.1,3c4.8,0.3,9.7,0.1,14.6,0.2c-0.5,2.5-1,4.9-1.5,7.3c-4.7,0-9.5,0-14.2,0c-0.3,1.1-0.5,2.2-0.8,3.3
		c4.8,0.1,9.6,0,14.3,0.1c-0.6,3-1.2,6.1-1.8,9.1c-8.3,0-16.6,0-24.9,0C-7,557.4-5,546.1-2.6,534.9z"/>
	<path class="st0" d="M26.6,534.5c6.8,0.1,13.6-0.2,20.4,0.1c2.9-0.2,5.1,2.5,5.2,5.3c0.4,4,0.2,8.5-2.3,11.9
		c-1.6,2.2-4.4,2.5-6.8,3c2.3,4.6,4.7,9.3,6.9,13.9c-4.2,0-8.4,0-12.7,0c-1.6-3.8-3.2-7.6-4.7-11.4c-0.7,3.8-1.4,7.6-2.1,11.4
		c-3.6,0-7.1,0-10.7,0C22.1,557.3,24.3,545.9,26.6,534.5 M35.3,544.3c-0.5,2.4-0.9,4.7-1.3,7.1c2.2-0.2,4.7,0.4,6.6-1
		c1.6-1.6,1.1-4,0.7-6C39.3,544.4,37.3,544.4,35.3,544.3z"/>
	<path class="st0" d="M57.9,534.5c4.6,0,9.3,0,13.9,0c0.2,5.9,0.3,11.7,0.4,17.6c2.4-5.9,4.9-11.8,7.4-17.6c4.8,0,9.5,0,14.3,0
		c-2.2,11.4-4.5,22.7-6.6,34c-3.4,0.2-6.8,0.2-10.2,0.1c1.1-5.8,2.4-11.6,3.3-17.5c-2.9,5.8-5.5,11.7-8.3,17.5c-1.9,0-3.9,0-5.8,0
		c-0.5-6.1-0.7-12.2-1.3-18.3c-1.2,6.1-2.3,12.2-3.6,18.3c-3.4,0-6.8,0-10.2,0C53.4,557.3,55.6,545.9,57.9,534.5z"/>
	<path class="st0" d="M89.6,568.7c5-11.4,9.8-23,15.1-34.3c5.9,0.2,11.8,0,17.7,0.1c0,11.4-0.1,22.8-0.1,34.2c-3.5,0-6.9,0-10.4,0
		c0-1.6,0-3.3,0-4.9c-2.8-0.1-5.6,0-8.4,0.1c-0.6,1.6-1.3,3.2-1.9,4.7C97.5,568.7,93.5,568.7,89.6,568.7 M112.1,543.3
		c-1.9,3.9-3.7,7.9-5.4,12c1.8,0,3.6,0,5.3,0C112.1,551.3,112.2,547.3,112.1,543.3z"/>
	<path class="st0" d="M124.1,568.7c2.2-11.4,4.4-22.8,6.7-34.2c6.7,0.1,13.5-0.4,20.2,0.3c3.4,0.4,5.2,3.9,5.3,7
		c0.4,6.3-0.8,12.7-2.9,18.7c-1.4,3.8-4.3,7.6-8.6,8C138,569,131,568.6,124.1,568.7 M139.3,545.5c-0.9,4.6-1.8,9.2-2.6,13.8
		c2.2-0.4,5.4,0.3,6.6-2.2c1.5-3.2,2.8-7.3,1.3-10.7C142.9,545.5,141,545.7,139.3,545.5z"/>
</g>
</svg>
