<?xml version="1.0" encoding="utf-8"?>
<!-- Generator: Adobe Illustrator 21.0.2, SVG Export Plug-In . SVG Version: 6.00 Build 0)  -->
<svg version="1.1" id="Layer_1" xmlns="http://www.w3.org/2000/svg" xmlns:xlink="http://www.w3.org/1999/xlink" x="0px" y="0px"
	 viewBox="0 0 719.9 721.6" style="enable-background:new 0 0 719.9 721.6;" xml:space="preserve">
<g>
	<path d="M360,719.6c-1.4,0-3.1-2.5-4.4-4.2c-0.6-0.8-1.2-1.6-1.7-2.2c-2.7-4-5.4-8.3-8-12.4c-14.4-22.6-29.3-45.9-54.8-56.6
		c-13.1-4.4-23.2-14-26.9-25.8c-0.8-5.5-0.8-11.4-0.8-17.1c0-11.3,0-23.1-6.2-33.3c-10-15.8-7-35.9-4.4-53.6v-0.2
		c0.8-7.4,2.8-14.7,4.8-21.8c3.1-11.3,6.3-22.9,4.8-35.1l-0.6-4.5l-1.4,4.4c-6.7,21.2-10.6,44.4-13.1,62.3
		c-1.8,17-4.1,38.2,7.1,54.8c4.8,8,4.5,16.9,4.1,26.3c-0.4,9.2-0.8,18.7,4.3,27.2c5.1,10.9,15.5,16.1,25.6,21.1l0.6,0.3
		c-1.6,3.7-2.2,7.7-2.8,11.5c-0.4,2.8-0.8,5.6-1.6,8.3c-7.2-4.9-13.9-11.1-20.3-17.2c-4.1-3.9-8.4-7.9-12.7-11.6
		c-44.5-39.4-89.8-82.6-111.5-139.9c-0.5-1.2-1-2.4-1.5-3.6c-3-7.2-6.1-14.6-2.5-21.8v-0.1v-0.1c4.5-13.8,16.1-20.5,28.4-27.6
		c7.5-4.3,15.3-8.8,21.3-15.1c1.2-1.4,2.6-2.8,4.1-4.2c5.5-5.3,11.7-11.3,8.1-19.8l-0.7-1.6l-1,1.4c-1.1,1.5-2.1,3.2-3,4.9
		c-1.4,2.5-2.8,4.8-4.7,6.7c-1.2,0.1-2.5,0.1-3.7,0.1c-15.1,0-30.4-4.1-44.1-11.9c-11.5-6.3-19.6-16.6-27.5-26.6
		c-4.8-6.2-9.8-12.5-15.6-18l-2.9-2.7c-10.7-9.7-21.7-19.8-34.1-27.6l-0.5-0.3l-0.5,0.3c-4.6,2.8-8.3,6.6-12,10.4
		c-3.5,3.6-7.1,7.3-11.4,9.9c0.4-27.6,7-56.7,20.8-91.2c9.2-21.5,21-46.1,38.8-66c17.7,3.9,33,15.3,41.1,30.6
		c1.1,2.8,2.2,5.9,3.3,8.8c4.2,11.6,8.5,23.7,19.5,31.1c5.2,3.1,14.9,8.8,23.5,8.8c3.3,0,6.3-0.9,8.8-2.5l2.4-1.6l-2.9-0.2
		c-16.4-1.4-36-9.2-41.9-26.9c-3.9-26.2-24.6-48.3-49.5-53.3c16.4-18.3,36.2-35.2,58.7-50.3c4.7-3.1,10.3-4.8,16.2-4.8
		c15.9,0,33.3,12.1,33.9,30.1c0,8.7,5,18.1,14.5,19.5c1.8,0.2,3.7,0.3,5.5,0.3c20.7,0,39.9-11.8,56.8-22.2l1.7-1.1
		c5.1,15.8,11.5,31.8,19.2,47.6l0.2,0.4l0.4,0.1c1.6,0.5,2.8,0.8,3.7,0.8c1.3,0,1.9-0.5,2.1-1c0.6-1.1-0.1-2.4-0.7-3.4
		c-23.7-42.3-34.8-94.9-31.3-148.3c12.8-2.4,24.3-3.7,34.3-3.7h0.7c17,3.4,29.4,17.6,40.4,30.2l0.2,0.3l0.1,0.1
		c1.2,0.8,2.3,1.2,3.4,1.2c3.5,0,5.9-3.8,8.1-7.1c1.3-2,2.5-3.9,3.7-4.7c2.2-1.7,4.4-3.6,6.5-5.4c8.5-7.3,17.3-14.8,28.5-14.8
		c0.7,0,1.4,0,2.1,0.1c1.2,0.1,2.4,0.2,3.6,0.3c8.2,0.6,16.6,1.2,24.6,3c16.5,14.3,26.4,29.5,29.4,45.2c3.6,17.7-9.4,33.7-23.9,41.7
		c-3.3,2.2-6.9,4-10.4,5.7c-8.1,4-16.5,8.1-20.9,16.8c-8.9,14.6-1.9,31.9,4.2,43.6c0.8,1.9,2.8,1.9,3.6,1.9c0.2,0,0.9,0,1.1,0
		s0.5,0,0.7,0l2,0.3l-1-1.8c-5.7-10-13.7-29-3.4-43.4c3.6-5.9,10-8.9,16.1-11.8c2.3-1.1,4.8-2.3,7-3.5c15.3-7.8,32.9-24.8,32.3-46.6
		c-1.5-14.6-9.4-28.9-24.2-43.7c-0.5-0.5-1-1-1.5-1.5c-0.7-0.6-1.4-1.2-1.7-1.9c43.3,7,78.2,18.7,106.4,35.6l1.1-1.7
		c-54.4-40.8-123.7-63.2-194.9-63.2c-48,0-95.5,10.4-137.3,30c-18,7.6-34.7,18.3-50.8,28.7l-4.6,2.9c-1.3,0.6-2.1,1.8-2.3,3.3
		l-0.2,2l1.7-1.1c28.8-17.9,63.6-29.6,109.5-36.7c-1.6,29.4,1.6,61.4,9.6,95.1l-0.4,0.2c-15.2,10.4-31,21.1-49.1,25.1
		c-1.4,0.4-2.7,0.6-4.1,0.6c-5.7,0-12.2-3.2-13-10.2c-0.9-13.7-8.9-30.2-24.7-35.8c-6.4-2.5-13.2-3.7-20.4-3.7
		c-10.6,0-21.7,2.8-32.1,8.1c-16.8,7.1-30.2,13.4-42.2,19.8l-0.2,0.1l-0.1,0.2C27.4,247.2,9.2,374,52.2,481.1
		C93.8,589.2,198,671.8,311.6,686.7c6,8,13.4,18.5,19.2,29.7c-55.2-3.6-110.4-21.5-159.5-51.8C122,634.2,80.8,592.5,52.1,544.1
		c-33.5-56-50.7-117.8-49.8-178.6c-2.7-60.2,12.1-121.4,42.6-177.1c30-54.8,73.3-100.7,125.2-132.7C218.8,25.3,274.3,7.1,330.8,3.1
		c9.9-0.7,19.9-1.1,29.7-1.1c49.2,0,95.1,9,136.3,26.7C554.9,52,606.3,91.6,645.6,143.4c39.5,52,63.6,112.3,69.8,174.3
		c7.4,63.9-1.4,126.8-25.5,181.9c-50,121.2-170.7,208.1-300.9,216.9c6-10.3,12.3-20.8,20.1-29.7c115.8-15.7,220.5-100.3,260.6-210.5
		c40.3-105.1,21.5-230-47.8-318l-0.1-0.2l-0.2-0.1c-5-2.3-10.1-4.9-15.1-7.3c-15.3-7.6-31.1-15.5-47.9-19l-0.4-0.1l-0.3,0.2
		c-3.7,2.1-7.9,3.7-12,5.1c-7.5,2.6-15.2,5.4-20.3,12.1c-5.7,6.8-7.9,15.7-9.1,22.7l-0.8,4.8l2.7-4.1c5.3-8.2,12.9-18,24.7-21.4
		c7.4-2.5,13.6-6.2,18.5-11c22.3,16.6,42,31.9,58.1,50.8c-19,3.8-35.8,17.6-44.1,36.4c-2.1,3.6-3.1,7.7-4,11.5c-1,4.1-2,7.9-4,11.4
		c-7.2,11.9-21.9,19.7-39.2,20.8l-1.8,0.1l1.1,1.5c1.6,2.2,3.9,3.3,7,3.3c2.7,0,5.6-0.8,8.4-1.6c2.1-0.6,4.1-1.2,5.8-1.3h0.1h0.1
		c16.1-6,28.2-21.1,30.9-38.5c7.6-19.6,25.2-34.6,45-38.3c15.6,18.2,28.4,40.8,40.1,70.8c12.9,33.3,18.8,60.9,18.5,86.5
		c-4-2.6-7.5-6.2-11-9.7c-3.8-3.9-7.7-8-12.4-10.6l-0.5-0.3l-0.5,0.4c-22.1,15.7-41.3,33.7-56.9,53.5
		c-13.4,20.5-39.9,33.2-69.2,33.2c-0.6,0-1.2,0-1.7,0c-1.7-2.2-3.1-4.7-4.5-7.1c-1-1.8-2-3.7-3.2-5.5l-1.1-1.7l-1.3,2.1
		c-0.9,2.8-2.2,6.6,0.2,9.5c10.7,17,28.3,27.1,45.4,36.9l0.9,0.5c13.7,8.6,23,27,14,41.7l-0.1,0.1v0.1
		c-23.6,64.3-76.9,111.6-124,153.4c-2.6,2.2-5.1,4.6-7.6,7c-4.6,4.4-9.3,8.9-14.7,12.2c-0.6-5.9-2-11.6-3.4-17.2
		c-0.2-0.8-0.4-1.6-0.6-2.5c16.7-7.4,26.5-17.6,29.2-30.2v-0.1V619c0.5-5,0.5-10.2,0.5-15.3c0-12.4-0.1-25.3,7.9-35.6l0.1-0.1v-0.1
		c8.8-20.3,5-43.5,1.6-63.9c-1.8-9.8-4.2-19.6-6.5-29c-1.5-6-3-12.3-4.3-18.4l-0.2-0.8h-0.8c-0.8,0-1.4,0.4-1.9,0.9
		c-1.3,1.6-0.7,4.7,0,8.3c0.5,2.8,1.1,5.9,0.4,7.1l-0.2,0.3l0.1,0.4c7.1,25.8,15.2,55.1,10.5,84.1c-7.2,14-13.5,29.1-11.4,45.6
		c3.9,17.9-9.3,34.5-24.4,40.3c-26.5,9-41.5,32.1-56.1,54.5c-4.6,7-9.3,14.3-14.3,20.8C361.1,719.2,360.5,719.6,360,719.6z
		 M341.2,619.8c7.8,6.3,14.1,15.2,17.8,25.3l1,2.7l0.9-2.8c3-9.5,9.3-18.6,17.5-25.1c4.6,2.9,6.4,9.7,6.2,15l-0.1,3l1.9-2.3
		c9.6-11.8,19.3-24.5,23.7-39.5c6.8,3.1,11.1,7.1,12.8,11.9l0.7,2l1.1-1.9c8.3-14.2,8.3-32.9,0.2-48.9c0.2-2.7,0.3-5.4,0.5-8
		c0.6-11.1,1.2-22.6,5-33.2c2.2-4.7,5.5-9,8.7-13.2c4.8-6.2,9.7-12.6,11.4-20.9c8.8-33.2-8.1-62.2-24.4-90.3
		c-2.1-3.5-4.2-7.2-6.2-10.8c0.9,0.8,1.6,1.9,2.4,3s1.6,2.3,2.6,3.2c6.6,8,13.3,16.1,19.8,23.9c13,15.6,26.4,31.7,39.2,47.9l0.1,0.2
		l0.2,0.1c0.4,0.2,0.8,0.3,1.2,0.3c1.4,0,2.2-1.2,2.7-2.2c0.3-0.4,0.5-0.8,0.7-1l0.1-0.1l0.1-0.1c18.8-22.7,28.3-44.2,29.2-65.5
		v-0.1v-0.1c-1-9.8-0.9-19.8-0.9-29.5c0.1-10.3,0.1-21-1.1-31.5c-2.6-28.7-13.8-53.7-31.5-70.5c0.3,0.1,0.6,0.3,0.8,0.4l0.3,0.2
		c4.5,2.2,9.1,4.2,13.6,6.2c7.5,3.3,15.2,6.8,22.5,10.7l8.3,4.5l-7.2-6.1c-34.7-29.6-69.2-49.5-102.5-59.3
		c-8.1-2.1-15.7-3.2-22.7-3.2c-11.5,0-20.9,3-28,8.8l-0.3,0.2l-0.1,0.3c-2.5,11.6-4.4,23.4-6.2,34.9c-1.1,7.1-2.3,14.5-3.6,21.7
		c-2.5-9.7-4-20-5.4-29.9c-1.3-8.8-2.6-17.8-4.6-26.6l-0.1-0.3l-0.2-0.2c-6.6-5.9-15.8-8.9-27.5-8.9c-3.3,0-6.9,0.2-10.5,0.7
		c-42.9,6.8-79.4,33-116,61.7l-5.4,4.2l6.4-2.5c6.6-2.6,13-5.7,19.3-8.8c5.7-2.7,11.5-5.6,17.4-8c-0.8,1-1.6,2-2.4,3
		c-6.6,8.2-13.5,16.6-17.4,26.6c-11.5,23.4-11.4,49.4-11.3,74.6c0,10.4,0.1,21.2-0.7,31.6v0.1v0.1c2.5,26.2,18.7,48.9,31.9,63.3
		l0.8,0.9l0.7-0.9c19.2-23.6,39.1-47.3,58.4-70.2l6.1-7.3c-1.9,3.2-3.8,6.5-5.7,9.7c-13.7,23.2-27.9,47.2-27,75
		c-0.2,19,10.6,34.4,19.7,44c6.7,12.8,7.4,27.7,8.1,42.1c0.1,1.6,0.2,3.2,0.2,4.8c-7.9,13.7-8.3,31.5-1,47.8l0.5,1.1l1-0.8
		c1.7-1.3,3.4-2.9,4.9-4.5c2.8-2.8,5.6-5.7,9.4-7C313.9,612.1,325,626,333,635l1.8,2l-0.1-2.7C335,629.6,336.6,623,341.2,619.8z
		 M541.8,336.4c-6.6,0-14,0.9-19.5,7.2l-0.1,0.1l-0.1,0.2c-0.8,2-0.7,4.1-0.7,6.2c0,1.2,0.1,2.4-0.1,3.5l-0.3,2.2l1.8-1.3
		c2.1-1.4,4.5-2.1,7.5-2.1c2.7,0,5.5,0.5,8.3,1c1.3,0.2,2.7,0.5,4,0.7c1.2,0.2,2.4,0.3,3.6,0.3c12.2,0,22-10.1,25.9-19.5l0.1-0.1
		v-0.2c0-0.1,0.4-0.7,0.6-1.2c1.2-2.4,1.6-3.4,1.1-4.1c-0.2-0.3-0.6-0.5-1-0.5s-0.7,0.2-0.9,0.3l-0.1,0.1l-0.1,0.1
		c-5,6.4-11.9,7.3-18.6,7.3c-1.9,0-3.8-0.1-5.7-0.2C545.7,336.5,543.7,336.4,541.8,336.4z M145.4,329.8
		c4.6,11.9,14.5,24.6,28.3,24.6c1.1,0,2.2-0.1,3.3-0.2h0.1h0.1c3.2-1,6.6-1.5,10.4-1.5c2.6,0,5.4,0.2,8.5,0.7l1.3,0.2l-0.1-1.3
		c-0.1-0.9,0-2.1,0.1-3.2c0.3-3,0.8-7.1-3.7-8.3c-4.6-3.9-10-4.4-14.3-4.4c-2.1,0-4.3,0.1-6.4,0.3c-2,0.1-4.2,0.3-6.2,0.3
		c-1.7,0-3.1-0.1-4.4-0.3h-0.2H162c-0.5,0.1-1,0.1-1.5,0.1c-3.4,0-6-2.2-8.8-4.6c-1.6-1.3-3.2-2.7-5-3.6l-2.4-1.3L145.4,329.8z
		 M68.4,269.3c2.8,2.9,6.4,5,9.8,7c4.4,2.5,8.5,4.9,11.2,8.9c2.8,3.7,5.3,7.7,7.7,11.6c5.5,8.9,11.2,18.1,20.6,23.7l1.8,1.1
		l-0.3-2.1c-0.4-2.5-0.7-5.1-0.9-7.6c-1.1-9.5-2.1-19.2-7.9-27.2l-0.1-0.1l-0.1-0.1c-9.4-9.1-22.3-12.3-34.8-15.4
		c-2.1-0.5-4.1-1-6.1-1.6l-3.5-0.9L68.4,269.3z M649.4,268c-0.2,0-0.5,0-0.8,0.1c-11.5,2.8-23.6,6.1-34.4,12l-0.1,0.1l-0.1,0.1
		c-10.8,9.7-12.1,25-12.5,38.6l-0.1,1.8l1.5-0.9c8.9-5.1,14.3-13.7,19.5-22c5.7-9.2,11.2-18,21.1-22.5h0.1h0.1
		c0.2-0.1,0.4-0.3,0.8-0.5c6-3.6,6.9-4.6,6.6-5.7C650.8,268.5,650.4,268,649.4,268z M516.7,202.2c-5,0.3-21.7,2.1-26.3,15.1
		c-1.4,3.1-2.2,6.5-2.9,9.8c-1,4.7-2,9.2-4.8,12.9l-0.9,1.1l1.4,0.4c0.8,0.2,1.7,1,2.6,1.6c1.4,1.1,2.9,2.2,4.6,2.2
		c0.9,0,1.7-0.3,2.4-0.9c9-4.1,11.8-13.6,14.3-22c0.7-2.3,1.3-4.4,2.1-6.5c1.2-4.6,4.9-6.9,8.8-9.4c1.4-0.9,2.9-1.9,4.2-2.9l2.6-2
		L516.7,202.2z M402,101.5l-2.6,0.6c-4.5,1.2-9.2,2.2-13.7,3.2c-10.8,2.3-22.1,4.7-31.9,10.6l-0.1,0.1l-0.1,0.1
		c-0.2,0.3-1.2,0.8-2,1.2c-2.1,1.1-4.3,2.3-4.4,4c0,0.9,0.5,1.6,1.6,2.2h0.1h0.1c1.7,0.6,3.5,1.3,5.2,2c7.8,3,15.8,6,24.1,6l0,0
		c4,0,7.7-0.7,11.2-2.2l0.2-0.1l0.1-0.1c4.8-4.2,6.8-10,8.8-15.7c1.3-3.6,2.6-7.3,4.5-10.4l1.2-2L402,101.5z M360.2,608.2
		c-0.7,0-2.1-2-3-3.3c-1.1-1.5-2.1-3-3.2-3.5c-1.4-0.6-2.8-1-4.3-1c-4.3,0-8.4,2.7-12.2,5.7c-11.7-14-15.6-31.8-10-46.3
		c0.9,1.9,1.5,4.2,2.2,6.6c0.9,3.3,1.8,6.7,3.6,9.5c1.1,4.4,6.2,9.7,10.9,9.7c1.6,0,3.1-0.6,4.4-1.8c1.2,0.7,2.5,1,3.9,1
		s2.7-0.3,4-0.6s2.6-0.5,3.8-0.5s2.2,0.2,3.2,0.7c0.6,0.6,1.3,0.8,2.1,0.8c1.1,0,2-0.6,2.9-1c0.6-0.4,1.3-0.7,1.8-0.7
		c0.1,0,0.5,0,1,0.7c0.8,1.2,2,1.9,3.4,1.9c1.6,0,3.3-0.9,4.7-1.6c0.4-0.2,0.7-0.4,1.1-0.5l0.2-0.1l0.1-0.2c5.4-7,7.5-15.5,9.5-23.7
		l0.1-0.6c0.2-0.1,0.4-0.1,0.5-0.1c0.5,0,0.7,0.7,0.7,3c0,0.9,0,1.9,0.2,2.8c3.3,12.6-0.1,27.8-8.9,40.8c-3.3-2.6-8.4-5.3-13.1-5.3
		c-4.2,0-7.2,2.2-8.8,6.2C360.7,608,360.3,608.2,360.2,608.2z M357.4,575.6c-13.2-3.6-20.4-18.9-20.1-32.3c3.9,2.3,8.2,2.8,12.4,3.4
		c2.2,0.3,4.4,0.6,6.6,1.1c0.4,1.5,0.6,3.3,0.8,5.1c0.4,3.1,0.7,6.3,2.3,8.3l1.5,1.9l0.3-2.4c0.6-4.2,1.2-8.6,2.2-12.9
		c1-0.2,1.9-0.3,2.9-0.5c5-0.8,10.2-1.7,15-4.1c-0.2,8.1-3.1,18.8-9.7,25.8C367.5,573.2,362.7,575.4,357.4,575.6z M589.3,539.5
		c-0.2-7.5,0.6-15.4,1.3-23.1c1.8-17.7,3.6-36-6.1-51.7c-5.7-10.7-16-16.7-25.9-22.6c-8.2-4.8-16-9.4-21.5-16.5
		c18.3-0.8,49.7-5.7,68.6-28.8c13.4-20.3,31.5-37.9,52.4-51.1c0.6-0.3,0.9-0.3,1.1-0.3c0.2,0,0.3,0.1,0.3,0.1
		c0.6,0.6,0.4,2.8,0.4,4.5c-0.1,2-0.2,3.7,0.4,4.8c2.2,76.5-37.2,142.5-70.7,184.6L589.3,539.5z M130.4,539.1
		C107.5,511.2,89,480,77,448.8C63.6,414,58,379.4,60.3,345.9c11.6,4.3,21,13.7,30.1,22.8c2.3,2.3,4.6,4.6,7,6.8
		c4.7,4.2,8.4,9.4,12,14.5c4.7,6.6,9.5,13.4,16.6,18.1c14.9,10.6,33.8,16.5,56.4,17.6c-5.7,7.1-14,12.2-21.9,17
		c-12,7.3-24.3,14.8-29.1,29.6c-4.6,18.5-2.8,38.5-1.2,56.2c-0.4,1.4-0.1,3.3,0.2,5.3C130.6,535.7,130.9,538,130.4,539.1z
		 M320.1,533.5c-0.7-0.4-1.3-1.4-1.9-2.7c-0.3-0.6-0.6-1.2-1-1.7l-1.4-2.3c-7-11.8-14.3-24-13.7-37.9v-0.8l-0.7-0.2
		c-1.4-0.5-2.9-0.8-4.4-1.1c-1.3-0.3-2.5-0.6-3.6-0.9c10.1-0.8,19.4-4.8,28.5-8.7c9.9-4.3,20.1-8.7,31.2-8.7c0.4,0,0.8,0,1.2,0h1v-1
		c0.3-6.5,0.2-13.1-0.3-19.5v-0.4l-0.3-0.3c-5.9-6.1-8.8-14.2-11.1-21.3l-0.3-1.1l-1,0.4c-1.3,0.6-1.3,2.5-1.3,4.9
		c0,1.2,0,3.7-0.4,4h-0.1c-6.4-9.6-16.1-15.8-25.6-21.8c-2.4-1.5-4.9-3.1-7.4-4.7c1.1,0.2,2.3,0.5,3.5,0.9c1.4,0.4,2.8,0.8,4.2,1
		l1.2,0.2l-0.1-1.2c-0.8-14.1,3.4-27.9,7.5-41.1c0.9-2.9,1.8-5.9,2.7-8.8c0.6-0.1,1.2-0.1,1.8-0.1c-0.6,5.1-1.3,10.3-1.9,15.3
		c-1.1,8.3-2.3,16.9-2.9,25.4l-0.1,1.1h1.5c5.8,0,11.7,1.8,17.3,3.6c5.7,1.8,11.6,3.7,17.6,3.7c2.8,0,5.4-0.4,7.9-1.2l2.5-0.7
		c8.2-2.3,16.7-4.6,25.3-5.4l1-0.1l-0.1-1c-1-12.3-2.6-24.5-4.7-38.9c0.6-0.3,1.3-0.5,2-0.7l0.6,2c4.5,15.2,9.2,30.8,9.4,46.9v1.1
		l1.1-0.2c1.4-0.2,2.8-0.6,4.1-1c1.1-0.3,2.1-0.6,3.1-0.8c-11.9,7.2-23.9,14.8-32.9,25.7c-0.3-1.4-0.4-2.9-0.5-4.4
		c-0.1-0.9-0.2-1.9-0.3-2.9l-0.3-2.4l-1.5,1.9c-1.7,2.2-2.5,4.9-3.3,7.5c-0.9,2.8-1.7,5.4-3.5,7.5c-6,5.3-5.6,12.6-5.2,19.7
		c0.1,2.4,0.2,4.6,0.1,6.8l-0.1,1.1h1.1c0.6,0,1.2,0,1.7,0c10.6,0,20.4,4.3,29.8,8.4c5.8,2.5,11.8,5.2,18,6.8
		c2.2,0.8,4.6,0.9,6.9,0.9c2.1,0.1,4.2,0.1,5.9,0.7c-0.5,0.1-1,0.3-1.6,0.4c-2.4,0.6-4.9,1.2-7.1,2.4l-0.4,0.3l-0.1,0.5
		c-1.5,15.1-9.6,28.4-17.3,41.3c-0.6,1.1-1.3,2.1-1.9,3.2c0.1-1.8,0.2-3.6,0.4-5.4c1-13.6,2-27.8-2.3-40.7l-0.1-0.3l-0.2-0.2
		c-1.2-1.1-2.1-1.5-2.9-1.5c-0.5,0-1,0.2-1.3,0.5c-1,1-0.9,3-0.9,5.6c0,2.4,0.1,5.6-1,6.3c-1.8-0.4-2.6-2.6-3.6-5
		c-1.1-2.8-2.3-5.9-5.5-5.9c-0.8,0-1.7,0.2-2.7,0.7c-0.4,0.2-0.7,0.2-1,0.2c-1,0-1.9-0.9-2.9-1.8c-1.1-1.1-2.4-2.4-4.2-2.4
		c-0.9,0-1.9,0.3-2.9,1c-0.4,0.2-0.9,0.3-1.3,0.3c-1,0-2-0.7-3-1.4c-1.2-0.9-2.5-1.8-4.3-1.8c-0.8,0-1.6,0.2-2.4,0.6l-0.2,0.1
		l-0.1,0.1c-1.4,1.5-2.8,2.3-4.3,2.3c-0.4,0-0.9-0.1-1.3-0.2c-1-0.7-1.9-1-2.9-1c-1.9,0-3.2,1.3-4.3,2.5c-1,1-1.9,1.9-2.8,1.9
		c-0.4,0-0.8-0.1-1.2-0.4c-1-0.4-1.8-0.6-2.6-0.6c-3.1,0-4.4,3.2-5.5,6c-0.9,2.3-1.8,4.5-3.4,4.9c-0.9-0.8-0.9-3.6-0.9-5.8
		c0-3.2,0-6.8-2.9-6.8c-0.8,0-1.7,0.3-2.9,1.1l-0.4,0.2l-0.1,0.4C318.1,504.3,317.6,519.7,320.1,533.5z M293.3,476.5
		c-0.6,0-1.2,0-1.8,0c-5.8-1.2-12.5-3.2-15.8-7.4c5.4,3.1,11.1,5.9,17.6,5.9c1.4,0,2.8-0.1,4.2-0.4c12.6-1.9,25.5-7.9,40.7-18.8
		c0.3-0.1,0.6-0.2,0.9-0.2c1,0,1.7,0.9,1.9,1.8c0.2,1-0.1,2.2-1.4,2.8h-0.1h-0.1C323.1,471.1,307.6,476.5,293.3,476.5L293.3,476.5z
		 M419.9,476.5c-12.5,0-25.8-6-37.1-11.8c-3.2-1.3-8-4.4-8.2-6.7c0-0.3-0.1-1.1,1.2-2.1c4.6,1.1,8.7,4,13.1,7
		c4.2,2.9,8.5,5.9,13.4,7.3c7.3,3,14.2,4.6,20.5,4.6c6,0,11.3-1.4,15.9-4.3c-0.4,0.4-0.8,0.8-1.2,1.1
		C432.3,474.8,426.4,476.5,419.9,476.5z M293,462.1c-5.1,0-9.6-1.4-13.4-4c0.5,0.2,0.9,0.4,1.4,0.6c3.2,1.4,6.5,2.8,10,2.8
		c1.9,0,3.7-0.4,5.4-1.3c5.6-1.5,10-5.1,14.2-8.5c1.3-1.1,2.6-2.1,4-3.1c0.2,0,0.4,0,0.7,0c1.3,0,2.4,0.5,2.9,1.3
		c0.3,0.5,0.3,1.2,0,1.9C311.3,458.1,301.6,462.1,293,462.1L293,462.1z M422.9,462.1c-8.4,0-18.1-3.8-24.7-9.6
		c-0.6-0.6-0.8-1.3-0.7-2s0.6-1.3,1.3-1.7c3.7,0.3,6.8,2.8,10,5.5c3.3,2.8,6.8,5.6,11.2,6.3c1.6,0.6,3.3,0.9,5,0.9
		c3.6,0,6.9-1.3,10.1-2.9C431.2,461.4,426.6,462.1,422.9,462.1z M289.4,446.3c-0.5,0-1.1,0-1.6,0c-4-1.2-7.9-2.7-9.1-5.3
		c3.2,2.3,6.7,3.4,10.7,3.4c8.5,0,18.3-5.1,30-15.6c0.4-0.2,0.8-0.4,1.1-0.4c1,0,1.8,0.8,2,1.7c0.2,0.8-0.2,1.5-1.2,2l-0.1,0.1
		l-0.1,0.1C313.5,438.6,302,446.3,289.4,446.3L289.4,446.3z M425.2,446.3c-7.4,0-15.5-3.5-20.2-6.6c-0.9-0.8-2.4-1.7-4-2.7
		c-3-1.8-6.8-4-7.3-6.4c-0.1-0.7,0-1.4,0.5-2.1c0.3-0.1,0.6-0.1,0.9-0.1c2.2,0,4,1.8,5.8,3.6c0.5,0.5,1,1,1.5,1.5
		c7.3,6.7,16.4,10.7,24.2,10.7c3.5,0,6.7-0.8,9.6-2.3C433.7,444.8,430,446.3,425.2,446.3z M467.4,377.3c0.4-13.3,0.8-31.6-13.3-39
		H454h-0.1c-0.4-0.1-0.9-0.3-1.4-0.5c-1.8-0.7-3.8-1.4-5.7-1.4c-1.4,0-2.6,0.4-3.4,1.3h-0.1l-0.1,0.1c-1.7,3.2-4.7,5.1-8,7.2
		c-1.4,0.9-2.9,1.9-4.3,2.9l-0.6,0.4l0.2,0.7c0.2,0.5,0.4,1,0.6,1.5c0.6,1.5,1.1,3,1.2,4.6c-8.7-4.2-16.2-6.3-22.9-6.3
		c-6.2,0-11.6,1.9-16,5.5c-2.4,1.2-4,3.4-5.4,5.5c-1.1,1.6-2.2,3.2-3.6,4.1c1.2-7.2,6.2-13.1,10.6-17.5l1.3-1.3l-1.8-0.4
		c-3.4-0.7-6.9-1.1-10.3-1.1c-2.4,0-4.8,0.2-7.2,0.5c3.4-5.3,11.2-7.3,17.3-7.3c1,0,1.9,0,2.8,0.1l0.5,0.1l0.3-0.4
		c9.5-11.3,19.2-21.8,32.6-25.1c2.1-0.7,4.3-1.1,6.5-1.1c6.2,0,12.5,2.7,16.6,4.7l0.9,0.4l0.5-0.8c4.5-8.2,0.8-16.6-2.4-24
		c-0.2-0.5-0.5-1.1-0.7-1.6c9.3,3.9,15.7,14,15.3,24.3v0.1v0.1c0.3,1.9-0.2,4-0.8,6.2c-0.9,3.5-1.7,7.1,0.8,10.4
		c7.4,14.2,7.5,32.6,0.1,49.2C467.4,378.7,467.4,378,467.4,377.3z M415.8,329.7c-4.6,0.8-7.9,5.1-10.1,8.2l-0.5,0.7l0.5,0.6
		c3.9,4.3,9.4,6.7,15.7,6.7c9.6,0,18-5.5,21-13.6c1.3-2.8,1.1-5.9-0.5-8.6c-2-3.2-5.6-5.2-9.2-5.2c-1.2,0-2.3,0.2-3.4,0.7l-0.1,0.1
		l-0.1,0.1c-0.6,0.5-1.6,1-2.6,1.6c-2.2,1.1-4.5,2.3-4.9,4.3c-0.2,1,0.1,2,0.8,3.1c0.6,2.6,3.5,2.6,4.7,2.6c0.3,0,1.2,0,1.4,0
		c0.4,0,0.7,0,0.9,0c-0.1,0.2-0.2,0.4-0.4,0.8l-0.1,0.1v0.2c-0.8,2.9-3.4,3.9-5.6,3.9c-2.9,0-5.9-1.7-6.2-5.1l-0.1-1.1L415.8,329.7z
		 M255.1,379.1c-1.2-0.9-1.8-2.9-2.4-5.6c-0.4-1.6-0.8-3.1-1.4-4.3c-3.7-12.8-1.8-27.7,5.7-43.2l0.2-0.4l-0.1-0.4
		c-5.3-14.1,0.8-30.1,13.7-36.5l0,0c-4.1,7.9-7.7,17.7-3.2,26.3l0.5,0.9l0.9-0.5c5.4-3.1,11.1-4.7,16.5-4.7c3.9,0,7.5,0.8,10.8,2.5
		h0.1h0.1c10.7,3.7,18.3,12.3,25.7,20.6c0.9,1,1.8,2,2.7,3l0.3,0.4h0.5c0.9-0.1,1.7-0.1,2.6-0.1c6.3,0,14.3,2,17.6,7.6
		c-1.5,0-3.1-0.2-4.8-0.4c-2.1-0.2-4.3-0.5-6.3-0.5c-3.3,0-5.6,0.7-7,2.2l-0.8,0.8l0.9,0.7c5.1,3.8,8.8,9.8,10.2,16.3
		c-1.9-1.3-3.5-3.2-5.2-5.1c-3.1-3.4-6.3-7-11.1-8.1c-3-1.1-6.3-1.7-9.7-1.7c-6.4,0-13.2,1.9-20.9,5.9c1.3-5.6-2.6-8.5-6.5-11.3
		c-2.3-1.7-4.7-3.5-6-5.9l-0.2-0.4l-0.4-0.1c-1-0.2-2-0.3-3.1-0.3c-9,0-16.3,8.6-18.6,16.7C254.5,363,254.1,371.4,255.1,379.1z
		 M282.8,337c4,5.5,10.7,8.8,17.9,8.8l0,0c4.3,0,8.5-1.1,12-3.3c3.4-1.2,3.6-3.5,3.4-4.8c-0.6-3.7-5.8-7.5-9.1-7.5
		c-0.5,0-0.9,0.1-1.3,0.2l-0.5,0.2l-0.1,0.5c-0.9,3.2-3.7,4.4-6,4.4c-1.7,0-3.3-0.6-4.4-1.7c-0.8-0.8-1.3-1.8-1.4-3
		c2.6,0,5.8-0.2,7.1-2.2c0.8-1.3,0.6-2.9-0.5-5l-0.1-0.3l-0.2-0.1c-0.6-0.4-1.2-0.8-1.9-1.1c-2.8-1.8-5.7-3.6-9.1-3.6
		c-1.1,0-2.2,0.2-3.3,0.6c-3.2,1.5-5.4,4.2-6,7.6C278.7,330.3,280,334.2,282.8,337z M339,320.5c-1.7,0-3.4-0.9-4.9-2.6
		c-20.1-18.6-42.8-39.6-71.7-43.4c0.2-0.2,0.6-0.3,1.2-0.5c31.6,3.4,59.1,22.8,77,37.2l0.7,0.6l0.6-0.6c3.4-3.4,3.7-8,4-12.5
		c0.1-1.4,0.2-2.7,0.4-4c0.5,0.1,0.6,0.3,0.7,0.4c0.8,0.9,0.5,3.1,0.3,5s-0.4,3.7,0.1,5c1.2,3.2,0.2,7.9-2.2,11.5
		C343.4,319,341.2,320.5,339,320.5z M382.2,320.3c-2.3,0-4.4-1.2-5.7-3.4c-2.5-7-2.1-14.7-1.3-21.6c0.9,1,1,3,1.1,5.8
		c0.1,2.9,0.1,6.1,1.9,8.3c0.8,1.4,1.9,1.7,2.6,1.7c1.8,0,3.4-1.7,5-3.4c0.8-0.8,1.6-1.7,2.2-2h0.1h0.1c18-13.2,42.2-28.8,69.6-31.7
		h0.2l0.2-0.1c0.2-0.1,0.3-0.1,0.4-0.1c0.4,0,0.9,0.8,0.9,1.6c0,0.7-0.2,1-0.7,1c-0.4,0-1.2-0.2-2.6-1.2l-0.4-0.3l-0.4,0.1
		c-27.3,5.5-48.7,25.4-67.6,42.9C386,319.4,384.1,320.3,382.2,320.3z"/>
</g>
</svg>
