<?xml version="1.0" encoding="utf-8"?>
<!-- Generator: Adobe Illustrator 19.0.0, SVG Export Plug-In . SVG Version: 6.00 Build 0)  -->
<svg version="1.1" id="Layer_1" xmlns="http://www.w3.org/2000/svg" xmlns:xlink="http://www.w3.org/1999/xlink" x="0px" y="0px"
	 viewBox="-181.017 351.85 136.017 137.04" style="enable-background:new -181.017 351.85 136.017 137.04;" xml:space="preserve">
<style type="text/css">
	.st0{fill:#E4E4E4;}
	.st1{fill:#FD2803;}
</style>
<g id="_x23_000000ff">
	<path d="M-123.17,355.37c6.65-0.06,13.31-0.02,19.97-0.03c0.05,2.11,0.08,4.22,0.17,6.32c11.66,2.27,22.82,7.55,31.4,15.85
		c9.32,8.78,15.56,20.59,17.96,33.13c2.06,0.08,4.13,0.12,6.2,0.22c0.07,6.68,0.01,13.36,0.01,20.05c-2.03,0.11-4.06,0.16-6.09,0.22
		c-2.73,15.73-11.74,30.22-24.82,39.41c-7.31,5.21-15.84,8.58-24.65,10.19c-0.07,1.91-0.1,3.82-0.14,5.73
		c-6.59-0.06-13.18-0.02-19.77-0.02c-0.15-1.91-0.27-3.83-0.39-5.74c-16.25-2.73-31.17-12.45-40.15-26.28
		c-4.63-7.02-7.74-15.01-9.18-23.3c-1.96-0.04-3.92-0.08-5.89-0.15c-0.02-6.75-0.03-13.5,0.01-20.25c2-0.02,4-0.02,5.99-0.04
		c2.97-16.36,12.85-31.43,27.01-40.25c6.74-4.43,14.43-7.16,22.31-8.72C-123.16,359.6-123.17,357.49-123.17,355.37 M-119.35,359.21
		c-0.15,8.07-0.18,16.15-0.01,24.22c4.22,0.05,8.44,0.09,12.66,0.03c0.28-8.06,0.11-16.14,0.02-24.21
		C-110.9,359.19-115.13,359.2-119.35,359.21 M-102.75,368.11c0.2,4.03,0.17,8.06,0.09,12.09c14.95,3.52,27.08,15.75,31,30.53
		c4.05-0.04,8.1-0.01,12.15-0.08C-63.59,389.42-81.47,371.87-102.75,368.11 M-165.35,410.65c4.02,0.1,8.05,0.05,12.08,0.06
		c4.09-14.37,15.52-26.29,29.96-30.38c-0.11-4.01-0.12-8.02,0.03-12.03C-144.06,372.53-161.26,389.83-165.35,410.65 M-125.48,387.22
		c-6.05,16.21-11.14,32.75-17.06,49.01c-2.24,6-4.21,12.09-6.27,18.15c7.42,0.12,14.83,0.09,22.25,0.1
		c0.94-2.74,1.51-5.66,3.06-8.13c1.67-0.9,3.6-0.8,5.43-0.84c5.43,0.03,10.91-0.27,16.26,0.86c0.8,2.68,1.67,5.35,2.53,8.01
		c7.37,0.08,14.75,0.19,22.13,0.02c-3.27-10.02-6.85-19.95-10.47-29.85c-4.05-12.52-8.48-24.9-12.96-37.27
		C-108.88,387.16-117.18,387.15-125.48,387.22 M-174.64,414.42c0,4.27,0,8.54,0.04,12.81c9.87,0.08,19.75,0.23,29.62-0.04
		c0.34-0.3,1.02-0.91,1.37-1.21c0.23-3.85,0.02-7.7-0.1-11.55C-154.02,414.48-164.33,414.49-174.64,414.42 M-82.31,415.9
		c-0.37,3.78-0.11,7.6-0.08,11.4c10.35-0.03,20.69,0.13,31.04-0.07c-0.03-4.27,0.03-8.55-0.11-12.81c-9.21,0.09-18.42,0-27.63-0.01
		C-80.52,414.17-81.59,414.67-82.31,415.9 M-165.43,431.16c1.58,7.56,4.46,14.89,9,21.18c1.08,1.35,1.93,3.19,3.77,3.62
		c1.36-4.08,2.73-8.17,4.48-12.12c-2.2-4-4.11-8.18-5.21-12.63C-157.4,431.27-161.42,431.19-165.43,431.16 M-71.39,431.21
		c-1.16,4.54-3.29,8.72-5.27,12.93c1.03,4.46,3.14,8.63,4.46,13.03c6.5-7.36,10.98-16.45,12.81-26.1
		C-63.39,431.17-67.39,431.28-71.39,431.21 M-119.36,453.87c-0.17,9.57-0.09,19.14,0.04,28.71c4.21-0.03,8.42-0.08,12.63-0.05
		c0.36-10.08-0.07-20.16,0.24-30.24c-3.15-0.67-6.37-1.12-9.59-0.88C-117.56,451.19-119.48,452.13-119.36,453.87 M-151.75,458.12
		c7.61,8.05,17.7,13.55,28.48,16.01c0.09-4.06-0.02-8.11-0.07-12.16c-4.27-1.06-8.05-4.07-12.59-3.74
		C-141.21,458.3-146.48,458.22-151.75,458.12 M-102.71,462.44c0.02,3.97-0.06,7.94-0.15,11.91c11.29-2.19,21.93-7.82,29.77-16.27
		c-4.99,0.09-9.98,0.25-14.97,0.16C-93.37,457.63-97.74,461.25-102.71,462.44z"/>
	<path d="M-116.97,428.39c0.51-4.14,1.83-8.14,3.94-11.74c2.04,3.63,3.5,7.59,4.06,11.74C-111.64,428.42-114.3,428.42-116.97,428.39
		z"/>
</g>
<g id="_x23_e4e4e4ff">
	<path class="st0" d="M-126.05,351.88c8.7-0.01,17.4,0.03,26.09-0.03c-0.01,2.24-0.03,4.47-0.04,6.7c8.71,2.16,17.2,5.53,24.46,10.9
		c12.41,9.42,21.57,23.13,24.87,38.44c1.89-0.01,3.78-0.01,5.67-0.01c0,8.35,0,16.7,0,25.06c-1.91-0.01-3.83-0.02-5.74-0.06
		c-2.45,15.59-12.05,29.32-24.2,39.05c-7.44,5.53-16.1,9.11-25.07,11.3c0.03,1.88,0.04,3.77,0.04,5.66c-8.68,0-17.36,0-26.03,0
		c-0.01-1.89-0.01-3.78,0-5.67c-11.38-2.84-22.71-7.81-30.8-16.53c-9.49-8.91-16.37-20.92-18.45-33.8
		c-1.92,0.02-3.84,0.03-5.76,0.03c0.01-8.35-0.02-16.69,0-25.04c1.9,0,3.79,0,5.68,0.01c3.75-17.15,14.75-32.51,29.71-41.64
		c6.06-3.66,12.81-5.93,19.62-7.69C-126.01,356.33-126.03,354.1-126.05,351.88 M-123.17,355.37c0,2.12,0.01,4.23-0.05,6.34
		c-7.88,1.56-15.57,4.29-22.31,8.72c-14.16,8.82-24.04,23.89-27.01,40.25c-1.99,0.02-3.99,0.02-5.99,0.04
		c-0.04,6.75-0.03,13.5-0.01,20.25c1.97,0.07,3.93,0.11,5.89,0.15c1.44,8.29,4.55,16.28,9.18,23.3
		c8.98,13.83,23.9,23.55,40.15,26.28c0.12,1.91,0.24,3.83,0.39,5.74c6.59,0,13.18-0.04,19.77,0.02c0.04-1.91,0.07-3.82,0.14-5.73
		c8.81-1.61,17.34-4.98,24.65-10.19c13.08-9.19,22.09-23.68,24.82-39.41c2.03-0.06,4.06-0.11,6.09-0.22
		c0-6.69,0.06-13.37-0.01-20.05c-2.07-0.1-4.14-0.14-6.2-0.22c-2.4-12.54-8.64-24.35-17.96-33.13c-8.58-8.3-19.74-13.58-31.4-15.85
		c-0.09-2.1-0.12-4.21-0.17-6.32C-109.86,355.35-116.52,355.31-123.17,355.37z"/>
	<path class="st0" d="M-102.75,368.11c21.28,3.76,39.16,21.31,43.24,42.54c-4.05,0.07-8.1,0.04-12.15,0.08
		c-3.92-14.78-16.05-27.01-31-30.53C-102.58,376.17-102.55,372.14-102.75,368.11z"/>
	<path class="st0" d="M-165.35,410.65c4.09-20.82,21.29-38.12,42.07-42.35c-0.15,4.01-0.14,8.02-0.03,12.03
		c-14.44,4.09-25.87,16.01-29.96,30.38C-157.3,410.7-161.33,410.75-165.35,410.65z"/>
	<path class="st0" d="M-165.43,431.16c4.01,0.03,8.03,0.11,12.04,0.05c1.1,4.45,3.01,8.63,5.21,12.63
		c-1.75,3.95-3.12,8.04-4.48,12.12c-1.84-0.43-2.69-2.27-3.77-3.62C-160.97,446.05-163.85,438.72-165.43,431.16z"/>
	<path class="st0" d="M-71.39,431.21c4,0.07,8-0.04,12-0.14c-1.83,9.65-6.31,18.74-12.81,26.1c-1.32-4.4-3.43-8.57-4.46-13.03
		C-74.68,439.93-72.55,435.75-71.39,431.21z"/>
	<path class="st0" d="M-151.75,458.12c5.27,0.1,10.54,0.18,15.82,0.11c4.54-0.33,8.32,2.68,12.59,3.74
		c0.05,4.05,0.16,8.1,0.07,12.16C-134.05,471.67-144.14,466.17-151.75,458.12z"/>
	<path class="st0" d="M-102.71,462.44c4.97-1.19,9.34-4.81,14.65-4.2c4.99,0.09,9.98-0.07,14.97-0.16
		c-7.84,8.45-18.48,14.08-29.77,16.27C-102.77,470.38-102.69,466.41-102.71,462.44z"/>
</g>
<g id="_x23_fd2803ff">
	<path class="st1" d="M-119.35,359.21c4.22-0.01,8.45-0.02,12.67,0.04c0.09,8.07,0.26,16.15-0.02,24.21
		c-4.22,0.06-8.44,0.02-12.66-0.03C-119.53,375.36-119.5,367.28-119.35,359.21z"/>
	<path class="st1" d="M-125.48,387.22c8.3-0.07,16.6-0.06,24.9,0.06c4.48,12.37,8.91,24.75,12.96,37.27
		c3.62,9.9,7.2,19.83,10.47,29.85c-7.38,0.17-14.76,0.06-22.13-0.02c-0.86-2.66-1.73-5.33-2.53-8.01
		c-5.35-1.13-10.83-0.83-16.26-0.86c-1.83,0.04-3.76-0.06-5.43,0.84c-1.55,2.47-2.12,5.39-3.06,8.13
		c-7.42-0.01-14.83,0.02-22.25-0.1c2.06-6.06,4.03-12.15,6.27-18.15C-136.62,419.97-131.53,403.43-125.48,387.22 M-116.97,428.39
		c2.67,0.03,5.33,0.03,8,0c-0.56-4.15-2.02-8.11-4.06-11.74C-115.14,420.25-116.46,424.25-116.97,428.39z"/>
	<path class="st1" d="M-174.64,414.42c10.31,0.07,20.62,0.06,30.93,0.01c0.12,3.85,0.33,7.7,0.1,11.55
		c-0.35,0.3-1.03,0.91-1.37,1.21c-9.87,0.27-19.75,0.12-29.62,0.04C-174.64,422.96-174.64,418.69-174.64,414.42z"/>
	<path class="st1" d="M-82.31,415.9c0.72-1.23,1.79-1.73,3.22-1.49c9.21,0.01,18.42,0.1,27.63,0.01c0.14,4.26,0.08,8.54,0.11,12.81
		c-10.35,0.2-20.69,0.04-31.04,0.07C-82.42,423.5-82.68,419.68-82.31,415.9z"/>
	<path class="st1" d="M-119.36,453.87c-0.12-1.74,1.8-2.68,3.32-2.46c3.22-0.24,6.44,0.21,9.59,0.88
		c-0.31,10.08,0.12,20.16-0.24,30.24c-4.21-0.03-8.42,0.02-12.63,0.05C-119.45,473.01-119.53,463.44-119.36,453.87z"/>
</g>
</svg>
