<?xml version="1.0" encoding="utf-8"?>
<!-- Generator: Adobe Illustrator 20.0.0, SVG Export Plug-In . SVG Version: 6.00 Build 0)  -->
<svg version="1.1" id="Layer_1" xmlns="http://www.w3.org/2000/svg" xmlns:xlink="http://www.w3.org/1999/xlink" x="0px" y="0px"
	 viewBox="0 0 1948.5 1662.9" style="enable-background:new 0 0 1948.5 1662.9;" xml:space="preserve">
<style type="text/css">
	.st0{fill:#003366;}
</style>
<g id="_x23_003366ff">
	<path class="st0" d="M233.4,701.7H282c0,67.8,0,135.6,0,203.3c-16.2,0-32.4,0-48.5,0C233.4,837.3,233.4,769.5,233.4,701.7z"/>
	<path class="st0" d="M768.5,701.7h48.6c0,16.6,0,33.2,0,49.8c19.3,0,38.7,0,58,0c0,7.9,0,15.9,0,23.8c-19.4,0-38.7,0-58.1,0
		c0,28.5,0,56.9,0,85.4c0,3.8-0.3,7.9,1.5,11.4c2.1,4.8,7.1,8.2,12.4,8.2c14.8,0.1,29.5,0,44.3,0c0,8.2,0,16.4,0,24.6
		c-18.4,0-36.8,0-55.2,0c-6.4,0.1-12.8-0.1-18.9-2.1c-13.6-4.1-25.2-14.8-29.9-28.3c-2.2-6-2.8-12.5-2.7-18.8
		C768.5,804.4,768.5,753,768.5,701.7z"/>
	<path class="st0" d="M1495.6,708.6c16.1,0,32.1,0,48.2,0c0,7.7,0,15.5,0,23.3c-16.1,0-32.1,0-48.2,0
		C1495.6,724.1,1495.6,716.4,1495.6,708.6z"/>
	<path class="st0" d="M0,751.5c49,0,98,0,147,0c8.4-0.1,17,1.6,24.4,5.8c11.7,6.2,20.5,17.6,23.4,30.4c1.2,4.9,1.2,9.9,1.2,14.9
		c0,18.7,0,37.4,0,56.1c0,10.4-3.7,20.6-10.2,28.6c-8.7,11-22.6,17.6-36.7,17.6c-33.5,0-67,0-100.4,0c0,18.8,0,37.5,0,56.3
		c-16.2,0-32.4,0-48.6,0L0,751.5 M48.6,775.3c0,35,0,70,0,105c27.5,0.1,54.9,0.1,82.4,0c9.3,0,17.8-8.3,17.3-17.7
		c0-23.6,0.1-47.3-0.1-70.9c-0.2-8.9-8.4-16.3-17.2-16.3C103.5,775.2,76,775.3,48.6,775.3z"/>
	<path class="st0" d="M336.2,751.5c40.3-0.1,80.5,0,120.7,0c5.1,0,10.2,0.2,15.1,1.4c13.8,3.2,25.9,13.1,31.5,26.2
		c3.1,6.8,4.2,14.3,4.1,21.7c-0.1,34.8,0.1,69.5-0.1,104.3c-47.2-0.1-94.4,0-141.6,0c-16,0.6-32.8-6.8-41.8-20.4
		c-7.1-10.5-7.9-23.6-7.5-35.9c-0.7-24.5,21.7-46.3,46-46.6c32.1-0.2,64.3,0,96.4-0.1c-0.1-5.5,0.2-11-0.1-16.5
		c-0.2-3.2-1.5-6.7-4.5-8.2c-4.1-2-8.9-2-13.4-2c-34.9,0-69.9,0-104.8,0C336.2,767.4,336.2,759.5,336.2,751.5 M364.3,841.7
		c0,8.3-0.1,16.6,0,24.9c0.3,7.5,7.2,13.8,14.6,13.7c26.7,0.1,53.4,0,80,0c0-18.1,0.1-36.1-0.1-54.2c-26.3,0.1-52.6,0-79,0.1
		C371.8,826.1,364.2,833.3,364.3,841.7z"/>
	<path class="st0" d="M544.7,751.5c44.4,0,88.9,0,133.3,0c5.7,0,11.4,0,17,1.2c13.7,2.9,25.9,12.3,32.1,24.9
		c3.3,6.5,4.8,13.8,4.7,21c0,35.4,0,70.8,0,106.2c-16.2,0.1-32.3,0-48.5,0c0-38.4,0.1-76.8,0-115.2c-0.1-8.3-8.2-14.8-16.2-14.4
		c-24.6,0-49.2-0.1-73.7,0c0.1,43.2,0,86.4,0,129.6c-16.2,0-32.4,0-48.6,0C544.6,853.8,544.6,802.7,544.7,751.5z"/>
	<path class="st0" d="M930.9,756.6c7.1-3.6,15.1-5.2,23.1-5.1c23,0,45.9,0,68.9,0c0,7.9,0,15.9,0,23.8c-17.6,0-35.2,0-52.8,0
		c-6,0-12,3.3-14.7,8.7c-1.9,3.6-1.5,7.7-1.5,11.7c0,36.4,0,72.8,0,109.3c-16.2,0-32.4,0-48.6,0c0-32.7,0-65.5,0-98.2
		c0-6.3-0.3-12.7,1.1-18.8C909.2,774.4,918.6,762.7,930.9,756.6z"/>
	<path class="st0" d="M1082.2,751.9c13.6-0.9,27.2-0.2,40.8-0.4c19,0,38,0,57,0c7.7,0,15.6-0.4,23.1,1.7c13.7,3.3,25.9,13.2,31,26.5
		c3.2,7.9,3.5,16.5,3.3,24.9c0,18.3,0.1,36.7,0,55c-0.1,11.4-4.2,22.9-12.2,31.1c-9.1,9.3-22.2,14.3-35.1,14.2c-34,0-68,0-102,0
		c-14.7-0.1-29.6-6.9-38.3-19c-5.7-7.8-8.3-17.6-8.3-27.2c-0.1-20,0-40.1,0-60.1c-0.1-8,1.5-16.1,5.3-23.3
		C1053.5,762.1,1067.6,753.7,1082.2,751.9 M1104.4,776.2c-7,2.2-12.5,8.9-12.2,16.4c0,23.4,0,46.8,0,70.1
		c-0.3,6.7,3.9,13.1,9.9,15.9c3.4,1.6,7.2,1.9,10.9,1.8c18.7,0,37.4,0,56.1,0c6.8,0,13.5-4.2,16.1-10.5c1.6-3.5,1.4-7.4,1.4-11.2
		c0-20,0-40,0-60c-0.1-4.4,0.5-9-1.5-13.1c-2.8-6.2-9.4-10.2-16.1-10.2c-18.6-0.1-37.3,0-55.9,0
		C1110.1,775.3,1107.1,775.3,1104.4,776.2z"/>
	<path class="st0" d="M1271,751.5c42,0,84,0,126.1,0c10.8,0,22.2-0.8,32.4,3.8c16.6,6.6,28.4,23.6,28.6,41.5
		c0.1,36.1,0,72.2,0,108.2c-16.2,0-32.3,0-48.5,0c0-37.4,0-74.8,0-112.2c0.2-4.2-0.6-8.8-3.6-12c-3.2-3.7-8.1-5.6-13-5.5
		c-24.5,0-48.9,0-73.4,0c0,43.2,0.1,86.4,0,129.7c-16.2,0-32.4,0-48.6,0C1270.9,853.8,1270.9,802.7,1271,751.5z"/>
	<path class="st0" d="M1495.7,751.6c16.1,0,32.1,0,48.2,0c0,51.1,0,102.3,0,153.5c-16.1,0-32.1,0-48.2,0
		C1495.6,853.9,1495.6,802.7,1495.7,751.6z"/>
	<path class="st0" d="M1581.1,783.7c5.5-17.5,22.5-30.6,40.8-31.9c9.4-0.6,18.8-0.2,28.1-0.3c30.1,0,60.2,0,90.3,0
		c0,7.9,0,15.8,0,23.8c-29.4,0.1-58.9,0-88.3,0.1c-6.4,0.1-13.5,0.4-18.5,4.9c-5.2,4.6-6.2,12-6.3,18.6c0,20,0,40,0,60
		c0.1,6,0.8,12.8,5.5,17.2c4.7,4.1,11.4,4.2,17.3,4.4c30.1,0.1,60.2,0,90.2,0c0,8.2,0,16.4,0,24.6c-33.1,0-66.2,0-99.3,0
		c-10.2-0.2-20.9,1.1-30.6-2.7c-17.6-5.8-30.9-22.9-31.4-41.6c-0.2-16,0-32-0.1-48C1579.1,803,1577.9,793,1581.1,783.7z"/>
	<path class="st0" d="M1783.4,762.2c8.4-7.2,19.6-10.7,30.5-10.6c40.6,0,81.2,0,121.8,0c0,7.9,0,15.9,0,23.8c-31.9,0-63.9,0-95.8,0
		c-6.1,0.1-12.7,0.7-17.5,4.8c-4.5,3.8-5.7,10.1-5.6,15.7c0,5,1.1,10.5,5,14c4.5,4.4,11.2,5.1,17.2,5.2c20,0,39.9,0,59.9,0
		c6.3-0.1,12.6,0.3,18.7,2.2c10.5,3,20.1,9.8,25.3,19.5c5.6,10,6.5,22,4.7,33.2c-1.4,9.1-5.6,17.9-12.6,24
		c-8.8,7.7-20.7,11-32.2,11.1c-45.4,0-90.8,0-136.2,0c0-8.2,0-16.4,0-24.6c37.4,0,74.8,0,112.2,0c4.2,0.1,8.6-1,12-3.6
		c10.3-7.4,11.2-24.5,2-33.1c-3.5-3.3-8.2-5.2-13-5.1c-18.3,0-36.7,0-55,0c-8.1-0.1-16.3,0.6-24.2-1.6
		c-11.8-3.1-22.6-10.9-28.3-21.8C1763.3,797.9,1768.4,774.5,1783.4,762.2z"/>
</g>
</svg>
