<?xml version="1.0" encoding="utf-8"?>
<!-- Generator: Adobe Illustrator 19.0.0, SVG Export Plug-In . SVG Version: 6.00 Build 0)  -->
<svg version="1.1" id="Layer_1" xmlns="http://www.w3.org/2000/svg" xmlns:xlink="http://www.w3.org/1999/xlink" x="0px" y="0px"
	 viewBox="290.9 119.7 866.9 489.3" style="enable-background:new 290.9 119.7 866.9 489.3;" xml:space="preserve">
<style type="text/css">
	.st0{fill:#FFFFFF;}
	.st1{fill:#D51B29;}
</style>
<path class="st0" d="M353.4,120.5c58.2-1.3,116.5-0.9,174.6,1.4c5.5,0.7,13.2,1.6,14.9,8c8,24.3,14.4,49.1,20.3,74
	c1.5,0.2,2-1.2,2.5-2.3c23.2-42.7,73.3-61.3,119.3-65.7c35-4,70.5-1.4,105.4,3.4c36.7,6.2,76.7,19.4,97.3,52.8c3,3,3.1,9.2,7.1,10.8
	c5.1-27.2,12.3-53.9,18.5-80.9c71-3.2,142-2.1,213.1-0.8c9.4,2.7,20.7-2.8,29.2,3c4.3,3.6,1.3,9,0.4,13.5
	c-30.1,135.6-70.8,268.6-119.4,398.7c-9,23.5-17.4,47.4-27.7,70.3c-61.5,1.5-123,2.8-184.5,1.9c-29.3-66-65.9-128.6-94.5-195
	c-30.2,66.4-69.6,128.3-99.3,195c-49.8,1-99.6-0.5-149.4-1c-11.5-1.9-23.4,0.8-34.8-2.1c-7.9-3.2-8.8-12.2-12-19
	c-58.6-150-108.8-303.7-142.8-461.3c-0.4-2.5-2.3-7,4.5-3.4C315.1,120.6,334.3,121.2,353.4,120.5 M348.4,132.4
	c-13.8,1-27.6,0.1-41.4,0.5c10.3,53.3,24.9,105.8,39.9,158c29.2,100.8,63.9,200,102.4,297.6c3.1,11.2,18.4,4,26.4,6.9
	c48.6,0.6,97.3,2.2,146,1.2c28.8-64.1,67.2-123.4,95.5-187.7c4.4-10,21.8-10.8,25.5,0.3c27.6,64.3,62.5,125,91.6,188.6
	c55.1-2.2,110.5-0.2,165.6-3.1c36.9-91.5,69-185,96.9-279.6c-8.8-2.2-19.3-9.7-27.5-3c-0.9,10.4,11.4,14.6,18.9,18.9
	c-1.7,2.4-1.5,9.3-5.8,7.5c-10.5-6.6-21.6-12.4-32.2-18.8c5.4-9.5,11.1-18.9,16.2-28.6c4.6-0.7,8.1,3.9,12.3,5.2
	c6.4,4.7,15,6.3,20.2,12.5c0.1-4.4,6.6-12.4-0.1-13.7c-9.1-4.4-17.7-9.9-26.7-14.4c2-9.9,6-19.3,9.3-28.8c9.4,3.9,19,8.5,27.6,14.1
	c-0.8,5-2.9,9.9-2.9,15c3.6-6.2,3.9-14.7,6.6-21.5c10.8-41.7,22.5-83.2,30.5-125.5c-72.9-2.4-146-3.6-218.8,0
	c-8,27.3-13.6,56-20.1,83.9c-4.3,11.8,1.7,23.8,0.8,35.9c1.5,28.6-4.1,58.4-21,82.1c-14.8,19.5-35.3,34.4-58.4,42.6
	c-33.5,13.3-70.1,15.5-105.7,14.4c-33.2-2.1-67.3-4.1-98.6-16.4c-22.9-8.5-43.8-23.5-55.7-45.3c-16.4-31.9-18.2-69.9-10-104.4
	c-6.9-30.1-15-60.1-24.1-89.6c-3.6-5-11.1-2.7-16.2-3.9C459.8,131.5,404,131.3,348.4,132.4 M706.4,146.5
	c-40,2.3-81.9,11.9-112.7,39.1c-35.7,37.1-39.3,97.4-15,141.5c11.8,22.5,36.5,33.8,59.5,41.5c34.6,10,70.9,12.9,106.8,12.3
	c32.8-1.5,66.3-7.5,95.2-23.8c41.3-21.2,59.3-72.4,51-116.4c-3.5-21.6-11.7-43.8-28.5-58.5c-22.4-18.6-51.4-26.5-79.7-31.3
	C757.7,147.1,732,145.3,706.4,146.5z"/>
<path class="st0" d="M1014.4,149.3c36.9-5.9,75.7,16.3,89.1,51.2c7.5,17.6,7.1,38.2,5.4,56.3c-48.6-24.9-97-50.3-145.6-75.2
	c-0.9-0.9-3.1-1.9-2.1-3.4C975.2,163.1,993.9,152.2,1014.4,149.3 M991.2,170c-1.7,0.9-1.8,4,0.4,4.3c24.7,12.1,49.6,23.6,74.4,35.5
	c11.8,4.8,22.7,11.1,33.1,18.2c-1.3-4.7-1.9-11.1-7.2-12.9C1058.2,200.4,1025.3,183,991.2,170z"/>
<path class="st0" d="M416.4,152.4c28.1-3.6,58.1,8.1,75.7,30.4c-49.9,25.1-98.5,53.6-148.9,77.2c1.5-18.4-2.6-37.7,5.8-55.1
	C359.6,176.7,386.4,155.7,416.4,152.4 M459,173.1c-32.5,14.6-64.5,30.2-96.9,44.9c-6.3,1.7-6.7,9.1-8.9,14.1
	c15.4-11.4,33.6-18.7,50.9-27.2c19.9-8.8,39-19.4,58.9-28.3C462.8,174.3,461.7,171.8,459,173.1z"/>
<path class="st0" d="M952.2,188.2c12,6.6,25.5,11.1,36.9,18.7c-5.1,6.1-9.1,14.1-15.2,19c-12.2-5.6-24.1-12.4-35.9-19.1
	C942.2,200.2,946.5,193.5,952.2,188.2z"/>
<path class="st0" d="M499.9,191c5.9,3.3,8.5,10.2,12.9,15.1c1,0.9,2.1,3.1,0.5,4c-10.4,6.4-21.5,11.7-31.9,18.1
	c-1.3,0.9-3.3,1-4.1-0.6c-4.7-6.2-9.9-12-14.1-18.5C475.5,203.4,487.5,196.9,499.9,191z"/>
<path class="st0" d="M716.4,196.4c18.9-4.2,42.1,1.9,49.5,21.6c7.3,19.1,4.6,39.9,5.1,59.9c0.3,16.7-2,35.9-15.8,47.3
	c-9,8.6-23,5.8-34.2,6.6c-21.3,0-35-22.4-35.1-41.8c-1.1-23.5-3.4-47.9,3.2-70.9C693.6,207.7,703.3,196.6,716.4,196.4 M721.4,208.4
	c-19.4,0.2-23,22.6-24.2,37.6c0.5,21.7-3.4,46.9,9.8,66c10.5,10.3,28.7,10,40.9,2.8c11.3-12.5,11.5-30.9,11.2-46.8
	c-0.1-17.3,1.1-36.8-9.4-51.7C742.9,208,731.2,207.1,721.4,208.4z"/>
<path class="st0" d="M994.3,209c27.5,12.7,54.4,26.9,81.7,40c-2.7,9.3-5.9,18.4-8.2,27.8c-2,0.4-3.8-0.2-5.5-1.3
	c-27.6-15.9-56.3-30.3-83.5-46.6C984,222.3,989.4,215.8,994.3,209z"/>
<path class="st0" d="M457.3,212.3c5.7,5.9,13.5,12.4,15.7,20.4c-29.1,15.9-57.6,32.9-86.9,48.3c-3.1-9.2-6.2-18.6-9.1-27.9
	C403.4,238.8,430.6,226,457.3,212.3z"/>
<path class="st0" d="M931.2,217c13,4.2,24.5,12.8,36.7,19.1c-2.3,10.1-6.3,20-10,29.7c-12.1-6.8-24.2-13.6-36-20.9
	c-3.2-1.4-0.2-5.4,0.2-7.8c6.9,1.1,17,7.5,22.7,0.5c0.4-7-7.3-11.7-12.8-14.8C928.4,222.4,930.5,218.9,931.2,217z"/>
<path class="st0" d="M520.3,219.3c1.8,0,4.3,5.3,1.1,6c-5.1,3.6-14.1,7.8-13.2,15.3c5.9,5.9,15.6,0.7,22.7-0.7
	c1.4,1.9,1.6,4.3,1.9,6.6c-12.6,7.4-25,15.1-37.6,22.3c-2.8-10.3-8.6-20.1-10-30.7C497.2,232.5,508.4,225.2,520.3,219.3z"/>
<path class="st0" d="M972.3,239c10.9,3.6,20.7,11.3,31.3,16.3c19.8,10.8,39.8,21.2,59.2,32.7c-4.7,10.1-10.5,20.6-15.8,29.8
	c-28.4-16.1-56.4-32.9-84.7-49.3C963.5,258.5,969.6,249,972.3,239z"/>
<path class="st0" d="M478.9,242c0.4,0,1.3,0,1.8,0c3.6,9.6,7.4,19.1,11.1,28.7C463.4,287.7,435,305,406.2,321
	c-4.9-10.1-11.2-19.6-15.9-29.8C419.9,275,449.3,258.2,478.9,242z"/>
<path class="st0" d="M916.2,254.1c12.1,6.6,24,13.8,36,20.6c3.4,1.6,1.2,6.1,0.3,8.5c-3.8,9-5.3,18.9-9.6,27.6
	c-12.3-6.7-25-13.1-36.7-20.9c0.5-2.6,1.2-5.1,2-7.7c6.6,1.3,15.5,5.8,20.7-0.6c0.2-8.2-9.2-12.6-15.6-16.1
	C912.6,261.6,915.1,257.8,916.2,254.1z"/>
<path class="st0" d="M370.3,256.3c0.4-0.1,1.1-0.3,1.5-0.4c3.3,9.3,8.1,18.8,9,28.7c-10.1,4.4-19.1,12-29.5,15.2
	c-2.8-10.1-5.5-20.3-6.3-30.8C353.4,264.6,361.5,259.8,370.3,256.3z"/>
<path class="st0" d="M536,257.1c2.9,0.9,3,6.8,4.8,9.7c-5.9,4.5-14.9,8.2-16.8,16c2.6,8.6,14.3,3.1,20.8,2.1c2.2,3,3.6,8.6-1,9.8
	c-11.5,5.4-22,13.8-33.6,18.1c-3.7-11.4-9.4-22.8-10.9-34.6C511.7,271.5,523.6,263.8,536,257.1z"/>
<path class="st0" d="M957.3,277.9c27.9,15.8,56,31.9,83.6,48.2c-7.2,9.2-14.9,18.2-22.9,26.8c-22-12.2-43.9-24.8-66.1-36.9
	c-2.1-1.5-6.9-2.4-3.5-6.7C950.8,298.6,955.1,288.5,957.3,277.9z"/>
<path class="st0" d="M494.3,281.2c6,8.9,7.6,23.5,11.6,34.6c-22.5,13.3-46.8,26.8-70,40c-7.6-8.1-17.1-17.2-22.8-26.7
	C439.9,312.8,467.5,297.5,494.3,281.2z"/>
<path class="st0" d="M385.3,294.3c0.4,0,1.1-0.1,1.4-0.2c5,10,11.9,19.3,16.1,29.5c-11.4,6.1-22,13.8-33.6,19.3
	c-1.2-2.8-3.1-5.6-3-8.7c7.4-3.5,18.9-8.6,18.7-18c-7.3-7.4-18.6-0.4-26.8,2.6c-1.7-2.9-5.3-8.4,0-9.7
	C367.3,304.3,375.9,298.6,385.3,294.3z"/>
<path class="st0" d="M905,302c8.9,4.1,17.3,9.4,25.9,14.1c-2,9.2-3.6,18.6-6,27.7c-7.6-4.2-15.1-8.7-22.5-13.2
	c-2-0.7-1.2-3.1-1.4-4.7c6.3,0.6,17.2,6,20-2c-2-8.3-10.6-12.5-17.6-16.2C903.7,305.7,904,303.7,905,302z"/>
<path class="st0" d="M548.2,304.3c1.5-0.1,1.1,3.8,1.6,5.4c-6.2,4.8-17.2,8.7-16.6,18c4.5,5.1,12.8,1.8,18.8,0.5
	c1.3,2.1,0.5,4.9-2,5.7c-7.2,4.1-14.2,8.8-21.7,12.2c-1.1-9.4-4.6-18.3-5-27.8C531.7,313.9,539.6,308.5,548.2,304.3z"/>
<path class="st0" d="M948,326c21.5,11.7,42.3,24.5,63.7,36.2c0.7,0.6,3.1,1.1,2,2.5c-7.2,5.8-13.2,12.9-20.8,18.2
	c-16.9-9.8-34-19.3-50.8-29.2C943.4,344.4,945.1,334.9,948,326z"/>
<path class="st0" d="M1044.2,328.1c10.7,5.7,21,12.1,31.7,17.9c5.3,1.4,1.6,6.9-0.1,9.9c-7-1.2-13.3-6.4-20.8-6
	c-4.1-1.6-11.5,0.8-8.7,6.7c4,7.6,12.3,10.9,19.6,14.6c0,2.8-3,7.4-6.2,5c-10.9-6.1-21.8-12.2-32.8-18.2c-1.8-0.3-3.9-2-2.6-3.8
	C1031,345.5,1037.8,336.9,1044.2,328.1z"/>
<path class="st0" d="M504.4,329.3c0.4-0.1,1.1-0.4,1.5-0.5c2,9,4.3,17.9,6.2,27c-16.9,10.2-34,20-51.1,30.1
	c-7.2-6-14.9-11.9-21.1-19C460.9,353.8,482.9,342,504.4,329.3z"/>
<path class="st0" d="M407.4,332.3c3.2-1.6,4.4,3.3,6.5,4.8c5,7.5,11.6,14,16.2,21.8c-11.9,7.9-25.5,14.5-38,22.1
	c-1.8-1.8-3.6-4.2-3.9-6.8c7.7-2.7,15.6-7.3,19.6-14.6c2.8-4-0.7-5.2-3.1-6.4c-9.1-1.6-17.7,2.9-25.6,6.6c-2.4-2-4.5-5.4-4-8.7
	C386.1,345.3,396.4,338.3,407.4,332.3z"/>
<path class="st0" d="M900.9,339.9c7.6,3.5,14.8,8,22,12.2c-1.3,8.2-2.1,16.9-5,24.8c-6.2-2.9-11.9-6.8-17.8-10.2
	c-2-5.9,6.8-1.4,10.1-2.3c4.3,0.5,7.3-4.6,4-7.7C912.2,348.6,898.4,349.4,900.9,339.9z"/>
<path class="st0" d="M553,341.9c2.4,10.6-16.3,10.2-14.8,21.7c3.8,5,10.6,2.8,15.9,2.2c-2.1,6.5-12.7,10-18.8,13
	c-0.7-8.3-4.4-16.3-4.1-24.6C538.7,350.6,545.4,345.5,553,341.9z"/>
<path class="st0" d="M939.2,362.9c2.7-0.4,4.7,1.7,6.9,2.8c13.1,8.2,26.7,15.5,39.9,23.4c-5.4,6.1-11.7,11.7-18,16.8
	c-11.9-4.9-22.4-13.3-33.9-19.2C935.8,378.8,937.4,370.8,939.2,362.9z"/>
<path class="st0" d="M513.8,364.9c2.7,8,4.3,16.5,6.1,24.7c-11.7,5.7-22.2,13.8-33.8,19.4c-5.9-5.6-12.6-10.5-18-16.7
	C483.1,382.8,498.8,374.3,513.8,364.9z"/>
<path class="st0" d="M1025.2,370.2c10.8,4.5,20.2,11.7,30.6,17c-2.5,7.6-9.4-0.4-14.5-0.6c-5.2-1-11.8-3.6-16.3,0.6
	c-0.6,9.3,9.4,14.5,16.7,18.1c0.3,1.7-1.1,3.2-1.9,4.6c-11.5-6.4-23.3-12.6-34.1-19.9C1012,383.1,1018.8,376.7,1025.2,370.2z"/>
<path class="st0" d="M428.3,373.2c7.1,6.1,13.6,12.9,19.9,19.7c-10.1,7.3-21.6,12.4-31.9,19.3c-2.2,1.8-4-1.7-5.3-3.1
	c6.4-3.6,13.9-6.9,17.7-13.6c0.4-2.3,1.4-6.1-1.8-6.6c-9-2.5-17.9,2.1-25.9,5.8c-0.9-1.4-2.1-2.9-2-4.6
	C408.6,384.2,418.8,379.2,428.3,373.2z"/>
<path class="st0" d="M998.5,397.4c11.2,3.9,22.5,13.6,34.2,18.9c3,0.9-0.6,3.8-2.3,2.3c-7.2-1.9-17.6-7.6-23.1-0.3
	c-0.3,7.4,7.8,10.7,12.7,14.9c-0.6,1-1.3,1.8-2.1,2.7c-11.5-5.9-22.1-13.4-33.6-19.2C985.6,408.4,993.7,403.6,998.5,397.4z"/>
<path class="st0" d="M452.4,401.3c2.9-1.7,5.1,1.6,7.1,3.2c3.9,4.3,10.6,8.6,10.3,15.1c-11.1,6.2-21.9,12.8-32.8,19.4
	c-1.4-0.4-2.2-1.7-2.9-2.8c4.8-3.8,12.9-7.1,12.9-14.1c-2.3-7-12.7-3.4-17.9-2c-2.8,0.2-9.4,5.7-8,0.1
	C431.4,413.7,442.3,408.1,452.4,401.3z"/>
<path class="st0" d="M881.4,410.2c4.8-0.4,9.2,3.7,12.9,6.7c-5.3,3.9-11.1,6.8-16.3,10.9c-3.5-1.6-6.8-3.8-9.9-6.1
	C871.6,417.3,876.6,413.6,881.4,410.2z"/>
<path class="st0" d="M570.4,412.3c6.1-0.1,10.8,8.1,15.7,11.4c-3.5,1.4-7.7,8.5-11.9,5c-4.7-3.4-9.6-6.4-14.3-9.7
	C563.3,416.7,566.8,414.5,570.4,412.3z"/>
<path class="st0" d="M903.3,423.2c6.4,1.5,12.4,6.9,18.6,9.9c-3.2,7.3-8.5,15.2-14,20.8c-9-4.2-17.1-11.2-26-16.2
	C888.3,432,895.6,426.9,903.3,423.2z"/>
<path class="st0" d="M547.4,426.3c7.9-0.7,14.3,5.7,20.6,9.5c1.3,1.4,5,2.1,3.7,4.7c-8.8,5-16.8,11.3-25.5,16.3
	c-4.5-7-10.1-13.4-14.1-20.7C537.1,432.6,542.7,430.1,547.4,426.3z"/>
<path class="st0" d="M857.4,436.2c2.6-0.1,6,2.5,7.7,4.6c-12.4,14.4-22.5,31.3-26.4,50.1c-4.3-2.6-14.2-6.3-8.9-12.2
	C836.8,463.2,848.8,450.8,857.4,436.2z"/>
<path class="st0" d="M595.3,438.2c0.4,0,1.1-0.1,1.5-0.2c10.5,15.2,21.8,30.1,30.1,46.7c-3.4,2.7-6.4,6.6-10.6,8.1
	c-4.3-19.2-15.6-35.4-27.2-50.8C591.1,440.7,593.1,439.3,595.3,438.2z"/>
<path class="st0" d="M874.3,444.1c5.5,0.4,11.2,5.3,14.7,8.9c-6.8,19.5-14.7,39-23,57.9c-6.5-3.7-12.4-8.4-18.6-12.4
	C849.4,478,860.1,458.8,874.3,444.1z"/>
<path class="st0" d="M578.3,446.2c16.2,11.8,25.8,33.5,29.6,53.5c-6.8,3.7-12.3,10.5-19.6,13c-7.8-19.3-15.9-38.4-23.2-57.8
	C569.4,451.8,573.8,448.9,578.3,446.2z"/>
<path class="st0" d="M941.4,446.2c7.4,1.9,14,8.7,21.3,12.2c1.7,9.4-1.4,18.6-4,27.4c-11.2-3.3-20.2-12.9-30.7-18.1
	C931.3,460,937.3,453.5,941.4,446.2z"/>
<path class="st0" d="M510.4,449.3c6.2-1,7.5,10.9,12.1,14c1.2,2.4,3.7,4.5,3.4,7.4c-10.2,5.4-18.9,14.1-29.7,18.2
	c-3.4-8.7-4.8-18.4-4.9-27.6C497.7,457.4,504.3,453.7,510.4,449.3z"/>
<path class="st0" d="M896.2,457.9c13.2,5.8,24.9,16,37.9,23c1.8,0.7,0.8,3.9-0.8,4.3c-10.5,9.9-19.6,21-30,31
	c-4.1,3.5-6.8,10.3-12.3,11.7c-5.7-3.5-13-7.2-17-12.1C880.5,496.3,888.9,477.2,896.2,457.9z"/>
<path class="st0" d="M556.4,460.3c1.6-1.4,2.4,1.2,2.9,2.3c7.2,18.4,15,36.7,21.6,55.3c-4.5,5.2-12,8.6-17.8,12.8
	c-14.6-15.1-29.7-29.8-43.3-45.8C531,475.6,544.4,468.7,556.4,460.3z"/>
<path class="st0" d="M972.2,464.8c4.2,0.3,7,4.4,10.9,6c1.8,1.3,5.5,2.1,4.8,5c-0.8,8-5.2,15.1-9,22c-4.1-2.2-8.8-4.5-11.6-8
	C970.1,481.8,972,473.4,972.2,464.8z"/>
<path class="st0" d="M480.3,468.3c0.4-0.1,1.1-0.3,1.5-0.5c0.9,8.5,3.4,16.8,5.2,25c-2.1,3.7-7.2,5.7-10.9,8.1
	c-3.4-8.1-10.4-15.5-9-24.8C471.5,473.5,475.8,470.8,480.3,468.3z"/>
<path class="st0" d="M942.3,487.2c4.2,0.6,8.4,4.9,12.6,6.9c-7.8,20.3-23.7,37.8-43,47.7c-5-2.4-9.5-5.8-13.9-9.2
	C911.7,516.5,927.4,502.2,942.3,487.2z"/>
<path class="st0" d="M510.4,490.2c2.7-1.5,4.5,2.6,6.4,3.9c13.3,13.8,27.4,26.8,40.3,40.8c-5.3,2.7-11.7,12.4-18.4,7.3
	c-16.1-10-29.4-24.2-37.7-41.3C497.5,495.2,507.6,493.5,510.4,490.2z"/>
<path class="st0" d="M822.2,497.9c5.2,1.2,10,3.7,14.7,6c-1.8,19.2,6,40.9,24.1,49.9c15.2,9.3,34.2,6.1,49.9,0.1
	c3.7,2.8,10.8,4.3,12,8.8c-26.3,20.6-68.8,14.7-88.8-12C822.4,536.3,816.5,516,822.2,497.9z"/>
<path class="st0" d="M631,500.1c0.5-0.1,1.4-0.2,1.9-0.2c10.5,36.8-21.3,76.5-58.9,77.2c-14.8,1.7-30.3-3-41.8-12.3
	c2.8-3.5,9.3-8.1,14.6-7.6c14,5,30.3,7.5,44.1,0.7c19.6-8.6,28.8-30.5,27.1-50.9C620.7,503.2,626.9,502.3,631,500.1z"/>
<path class="st0" d="M846.1,502.8c16.7,9.8,32.6,21.5,48.9,32.1c3.7,3.6,10.7,5,12.9,9.8c-14.2,6-31.1,8.5-44.9,0.2
	C849.7,535.6,844.4,518.4,846.1,502.8z"/>
<path class="st0" d="M961.2,503c4.3,0.5,9.4,3.3,11.8,6.9c-10.1,16.5-23.7,31.2-39.3,42.7c-3.6-0.4-14.6-5.3-6.8-8.8
	C941.7,533.4,952.6,518.6,961.2,503z"/>
<path class="st0" d="M492.3,505.3c10.8,14.6,21.8,32.7,38.5,42.9c0.1,3.9-6,5.2-8.8,7.7c-15.2-10.6-26.8-25.2-38.6-39.4
	C478.9,510.2,488.1,508,492.3,505.3z"/>
<path class="st0" d="M607.3,505.3c0.4-0.1,1.2-0.4,1.6-0.5c1.4,15.5-3.6,33-17,42.1c-13.7,8.1-31.1,7.3-44.9-0.2
	C566.2,531.9,587,518.7,607.3,505.3z"/>
<path class="st1" d="M348.4,132.4c55.6-1.1,111.4-0.9,167,0.8c5.1,1.2,12.6-1,16.2,3.9c9.1,29.6,17.2,59.5,24.1,89.6
	c-8.2,34.4-6.4,72.5,10,104.4c11.9,21.7,32.8,36.7,55.7,45.3c31.3,12.3,65.4,14.3,98.6,16.4c35.6,1.1,72.2-1.1,105.7-14.4
	c23.1-8.1,43.6-23.1,58.4-42.6c16.9-23.6,22.5-53.5,21-82.1c0.8-12.1-5.1-24.1-0.8-35.9c6.5-28,12.1-56.6,20.1-83.9
	c72.8-3.6,145.9-2.4,218.8,0c-8,42.3-19.7,83.8-30.5,125.5c-2.7,6.9-3,15.4-6.6,21.5c0-5.1,2.1-10,2.9-15
	c-8.6-5.6-18.2-10.2-27.6-14.1c-3.3,9.5-7.3,18.9-9.3,28.8c9.1,4.5,17.6,10,26.7,14.4c6.7,1.3,0.2,9.2,0.1,13.7
	c-5.2-6.2-13.8-7.8-20.2-12.5c-4.2-1.3-7.7-6-12.3-5.2c-5.1,9.7-10.8,19.1-16.2,28.6c10.6,6.5,21.7,12.2,32.2,18.8
	c4.2,1.8,4.1-5.2,5.8-7.5c-7.5-4.3-19.8-8.5-18.9-18.9c8.3-6.8,18.7,0.8,27.5,3c-27.9,94.6-60,188.1-96.9,279.6
	c-55.1,2.9-110.5,0.9-165.6,3.1c-29.1-63.6-64-124.3-91.6-188.6c-3.7-11.1-21.1-10.3-25.5-0.3c-28.3,64.3-66.7,123.6-95.5,187.7
	c-48.7,1-97.3-0.5-146-1.2c-24.4-0.2-24.4-0.2-26.4-6.9C410.8,491,376,391.8,346.9,291c-15-52.2-29.5-104.7-39.9-158
	C320.8,132.6,334.6,133.4,348.4,132.4 M1014.4,149.3c-20.5,2.9-39.2,13.8-53.1,28.8c-1,1.5,1.2,2.5,2.1,3.4
	c48.6,24.9,97,50.3,145.6,75.2c1.7-18.1,2.1-38.7-5.4-56.3C1090.1,165.7,1051.3,143.5,1014.4,149.3 M416.4,152.4
	c-30,3.3-56.8,24.3-67.4,52.5c-8.4,17.4-4.4,36.7-5.8,55.1c50.5-23.6,99-52.1,148.9-77.2C474.5,160.5,444.5,148.8,416.4,152.4
	 M952.2,188.2c-5.7,5.3-10,12-14.2,18.6c11.7,6.7,23.7,13.6,35.9,19.1c6.1-4.9,10.1-12.9,15.2-19
	C977.7,199.3,964.3,194.8,952.2,188.2 M499.9,191c-12.4,5.9-24.4,12.4-36.8,18.1c4.2,6.5,9.5,12.3,14.1,18.5
	c0.8,1.6,2.8,1.5,4.1,0.6c10.4-6.4,21.5-11.7,31.9-18.1c1.6-0.9,0.5-3.1-0.5-4C508.3,201.2,505.8,194.4,499.9,191 M994.3,209
	c-4.9,6.8-10.3,13.3-15.4,19.9c27.2,16.3,55.9,30.8,83.5,46.6c1.6,1.1,3.5,1.7,5.5,1.3c2.2-9.4,5.5-18.5,8.2-27.8
	C1048.7,235.9,1021.7,221.7,994.3,209 M457.3,212.3c-26.7,13.7-53.9,26.5-80.2,40.8c2.9,9.3,6,18.7,9.1,27.9
	c29.3-15.4,57.8-32.4,86.9-48.3C470.7,224.7,462.9,218.1,457.3,212.3 M931.2,217c-0.7,1.9-2.8,5.4,0.8,5.9
	c5.5,3.1,13.2,7.8,12.8,14.8c-5.8,7-15.8,0.6-22.7-0.5c-0.4,2.5-3.5,6.4-0.2,7.8c11.8,7.3,23.9,14.1,36,20.9
	c3.7-9.7,7.8-19.7,10-29.7C955.8,229.7,944.2,221.2,931.2,217 M520.3,219.3c-11.9,6-23.1,13.3-35.1,18.9c1.4,10.5,7.1,20.4,10,30.7
	c12.7-7.2,25.1-14.9,37.6-22.3c-0.3-2.2-0.5-4.7-1.9-6.6c-7.1,1.3-16.8,6.5-22.7,0.7c-1-7.5,8.1-11.7,13.2-15.3
	C524.6,224.5,522.1,219.2,520.3,219.3 M972.3,239c-2.7,10-8.9,19.5-10,29.5c28.2,16.4,56.3,33.1,84.7,49.3
	c5.3-9.1,11.1-19.7,15.8-29.8c-19.4-11.5-39.4-21.9-59.2-32.7C993.1,250.3,983.3,242.6,972.3,239 M478.9,242
	c-29.6,16.2-59,33-88.7,49.1c4.7,10.3,11,19.7,15.9,29.8c28.9-15.9,57.2-33.3,85.6-50.2c-3.6-9.6-7.5-19.1-11.1-28.7
	C480.3,242,479.4,242,478.9,242 M916.2,254.1c-1.1,3.7-3.6,7.5-3,11.5c6.4,3.5,15.8,7.9,15.6,16.1c-5.2,6.4-14,1.9-20.7,0.6
	c-0.7,2.5-1.4,5.1-2,7.7c11.7,7.8,24.3,14.2,36.7,20.9c4.2-8.8,5.8-18.6,9.6-27.6c1-2.4,3.1-6.9-0.3-8.5
	C940.2,267.9,928.4,260.7,916.2,254.1 M370.3,256.3c-8.8,3.5-17,8.3-25.3,12.7c0.8,10.4,3.5,20.7,6.3,30.8
	c10.4-3.2,19.4-10.8,29.5-15.2c-0.9-9.9-5.6-19.4-9-28.7C371.5,256,370.7,256.2,370.3,256.3 M536,257.1
	c-12.4,6.8-24.3,14.4-36.7,21.1c1.5,11.8,7.2,23.2,10.9,34.6c11.6-4.3,22.1-12.8,33.6-18.1c4.6-1.2,3.2-6.8,1-9.8
	c-6.5,1-18.2,6.5-20.8-2.1c1.9-7.9,10.8-11.5,16.8-16C539,263.9,538.8,258,536,257.1 M957.3,277.9c-2.2,10.7-6.5,20.8-8.8,31.4
	c-3.5,4.4,1.3,5.2,3.5,6.7c22.1,12.1,44,24.6,66.1,36.9c8-8.6,15.8-17.6,22.9-26.8C1013.3,309.7,985.2,293.7,957.3,277.9
	 M494.3,281.2c-26.9,16.3-54.4,31.6-81.2,47.9c5.7,9.4,15.2,18.6,22.8,26.7c23.2-13.3,47.5-26.7,70-40
	C502,304.7,500.3,290.1,494.3,281.2 M385.3,294.3c-9.4,4.4-18,10-27.2,14.7c-5.3,1.4-1.7,6.8,0,9.7c8.2-3,19.5-10,26.8-2.6
	c0.1,9.4-11.3,14.5-18.7,18c-0.1,3.1,1.8,6,3,8.7c11.6-5.6,22.2-13.3,33.6-19.3c-4.2-10.2-11.1-19.5-16.1-29.5
	C386.4,294.1,385.6,294.2,385.3,294.3 M905,302c-1.1,1.7-1.3,3.7-1.7,5.6c7,3.7,15.6,8,17.6,16.2c-2.8,8.1-13.7,2.7-20,2
	c0.1,1.6-0.7,4,1.4,4.7c7.4,4.5,14.9,9,22.5,13.2c2.5-9.1,4.1-18.5,6-27.7C922.3,311.4,914,306.1,905,302 M548.2,304.3
	c-8.6,4.2-16.5,9.6-25,13.9c0.4,9.5,4,18.4,5,27.8c7.6-3.4,14.6-8,21.7-12.2c2.5-0.8,3.3-3.6,2-5.7c-5.9,1.3-14.2,4.5-18.8-0.5
	c-0.6-9.3,10.4-13.1,16.6-18C549.3,308.1,549.7,304.2,548.2,304.3 M948,326c-3,8.9-4.6,18.5-5.9,27.7c16.9,9.9,33.9,19.5,50.8,29.2
	c7.5-5.3,13.6-12.5,20.8-18.2c1.1-1.4-1.3-1.9-2-2.5C990.3,350.5,969.5,337.6,948,326 M1044.2,328.1c-6.5,8.8-13.3,17.4-19.9,26.1
	c-1.3,1.9,0.8,3.5,2.6,3.8c11,6,21.9,12.1,32.8,18.2c3.2,2.3,6.2-2.2,6.2-5c-7.3-3.7-15.6-7-19.6-14.6c-2.8-5.9,4.6-8.3,8.7-6.7
	c7.5-0.4,13.8,4.8,20.8,6c1.8-2.9,5.4-8.5,0.1-9.9C1065.3,340.2,1054.9,333.8,1044.2,328.1 M504.4,329.3
	c-21.4,12.6-43.5,24.5-64.5,37.6c6.2,7.1,13.9,12.9,21.1,19c17-10,34.2-19.9,51.1-30.1c-1.9-9-4.2-18-6.2-27
	C505.5,329,504.7,329.2,504.4,329.3 M407.4,332.3c-10.9,6-21.3,13-32.3,18.8c-0.6,3.3,1.6,6.8,4,8.7c8-3.7,16.5-8.2,25.6-6.6
	c2.3,1.2,5.9,2.4,3.1,6.4c-4,7.3-11.9,11.9-19.6,14.6c0.4,2.6,2.1,5,3.9,6.8c12.5-7.6,26.1-14.2,38-22.1
	c-4.5-7.8-11.1-14.3-16.2-21.8C411.8,335.6,410.6,330.6,407.4,332.3 M900.9,339.9c-2.5,9.5,11.2,8.7,13.4,16.6
	c3.3,3.1,0.3,8.3-4,7.7c-3.3,0.9-12.1-3.6-10.1,2.3c5.9,3.4,11.6,7.3,17.8,10.2c2.8-7.9,3.7-16.5,5-24.8
	C915.7,347.9,908.5,343.5,900.9,339.9 M553,341.9c-7.6,3.5-14.3,8.7-21.8,12.3c-0.3,8.4,3.3,16.3,4.1,24.6c6.1-3,16.7-6.5,18.8-13
	c-5.3,0.6-12.1,2.8-15.9-2.2C536.7,352.2,555.4,352.5,553,341.9 M939.2,362.9c-1.8,7.9-3.4,15.9-5.2,23.8
	c11.5,5.9,21.9,14.3,33.9,19.2c6.4-5,12.6-10.7,18-16.8c-13.2-8-26.8-15.3-39.9-23.4C943.9,364.7,941.9,362.5,939.2,362.9
	 M513.8,364.9c-15,9.4-30.7,17.9-45.7,27.4c5.4,6.1,12.1,11.1,18,16.7c11.6-5.6,22.1-13.6,33.8-19.4
	C518.1,381.3,516.5,372.8,513.8,364.9 M1025.2,370.2c-6.5,6.6-13.2,12.9-19.4,19.7c10.9,7.3,22.6,13.5,34.1,19.9
	c0.8-1.4,2.2-2.9,1.9-4.6c-7.3-3.7-17.3-8.8-16.7-18.1c4.5-4.2,11.1-1.6,16.3-0.6c5,0.2,12,8.3,14.5,0.6
	C1045.4,381.8,1036,374.7,1025.2,370.2 M428.3,373.2c-9.5,6-19.6,11-29.2,16.9c-0.1,1.7,1.1,3.2,2,4.6c8-3.7,16.8-8.4,25.9-5.8
	c3.2,0.5,2.2,4.3,1.8,6.6c-3.8,6.7-11.3,10-17.7,13.6c1.3,1.4,3.1,5,5.3,3.1c10.3-7,21.8-12.1,31.9-19.3
	C441.9,386,435.3,379.2,428.3,373.2 M998.5,397.4c-4.8,6.3-12.9,11-14.3,19.2c11.5,5.8,22.1,13.3,33.6,19.2c0.8-0.8,1.5-1.7,2.1-2.7
	c-5-4.2-13-7.5-12.7-14.9c5.5-7.3,15.9-1.6,23.1,0.3c1.7,1.5,5.3-1.4,2.3-2.3C1021,411,1009.7,401.3,998.5,397.4 M452.4,401.3
	c-10.1,6.8-20.9,12.4-31.3,18.8c-1.4,5.6,5.1,0.1,8-0.1c5.2-1.4,15.6-5,17.9,2c0,7-8.2,10.4-12.9,14.1c0.7,1.1,1.6,2.4,2.9,2.8
	c10.9-6.5,21.7-13.2,32.8-19.4c0.3-6.5-6.4-10.7-10.3-15.1C457.5,402.9,455.3,399.6,452.4,401.3 M881.4,410.2
	c-4.7,3.4-9.8,7.1-13.3,11.5c3.1,2.3,6.3,4.5,9.9,6.1c5.1-4,11-7,16.3-10.9C890.6,413.9,886.1,409.9,881.4,410.2 M570.4,412.3
	c-3.6,2.2-7.1,4.4-10.6,6.7c4.7,3.3,9.7,6.3,14.3,9.7c4.3,3.5,8.4-3.6,11.9-5C581.2,420.4,576.5,412.2,570.4,412.3 M903.3,423.2
	c-7.8,3.7-15,8.8-21.4,14.4c8.8,5,16.9,12,26,16.2c5.4-5.5,10.8-13.5,14-20.8C915.7,430.1,909.7,424.7,903.3,423.2 M547.4,426.3
	c-4.8,3.8-10.4,6.3-15.3,9.8c4,7.3,9.6,13.7,14.1,20.7c8.8-5,16.7-11.3,25.5-16.3c1.3-2.6-2.4-3.2-3.7-4.7
	C561.8,432,555.3,425.6,547.4,426.3 M857.4,436.2c-8.6,14.6-20.7,27-27.6,42.5c-5.3,5.9,4.6,9.6,8.9,12.2
	c3.9-18.7,14-35.7,26.4-50.1C863.4,438.8,860.1,436.1,857.4,436.2 M595.3,438.2c-2.2,1.1-4.2,2.5-6.2,3.9
	c11.6,15.4,22.9,31.6,27.2,50.8c4.2-1.5,7.2-5.4,10.6-8.1c-8.3-16.6-19.6-31.5-30.1-46.7C596.4,438.1,595.7,438.2,595.3,438.2
	 M874.3,444.1c-14.2,14.7-24.9,33.9-27,54.4c6.2,4.1,12.1,8.7,18.6,12.4c8.3-18.9,16.2-38.4,23-57.9
	C885.4,449.4,879.7,444.4,874.3,444.1 M578.3,446.2c-4.5,2.7-8.9,5.6-13.2,8.7c7.2,19.5,15.4,38.6,23.2,57.8
	c7.2-2.5,12.7-9.3,19.6-13C604.1,479.7,594.5,458,578.3,446.2 M941.4,446.2c-4.1,7.4-10.1,13.8-13.4,21.5
	c10.5,5.3,19.5,14.9,30.7,18.1c2.7-8.9,5.7-18,4-27.4C955.4,454.9,948.8,448.1,941.4,446.2 M510.4,449.3c-6.1,4.4-12.7,8.1-19.1,12
	c0.1,9.2,1.5,18.9,4.9,27.6c10.8-4.1,19.5-12.8,29.7-18.2c0.3-2.9-2.3-4.9-3.4-7.4C517.9,460.2,516.6,448.3,510.4,449.3
	 M896.2,457.9c-7.3,19.3-15.6,38.4-22.1,57.9c4,4.9,11.3,8.5,17,12.1c5.5-1.4,8.1-8.2,12.3-11.7c10.4-10,19.5-21.1,30-31
	c1.6-0.4,2.6-3.6,0.8-4.3C921.1,473.9,909.3,463.7,896.2,457.9 M556.4,460.3c-12,8.4-25.4,15.3-36.5,24.6
	c13.6,16,28.7,30.6,43.3,45.8c5.7-4.2,13.3-7.6,17.8-12.8c-6.6-18.6-14.4-36.9-21.6-55.3C558.8,461.5,558,458.9,556.4,460.3
	 M972.2,464.8c-0.2,8.6-2.1,17-5,25c2.9,3.4,7.6,5.7,11.6,8c3.8-6.9,8.2-14,9-22c0.7-2.8-3-3.6-4.8-5
	C979.2,469.2,976.4,465.1,972.2,464.8 M480.3,468.3c-4.5,2.5-8.8,5.2-13.2,7.8c-1.4,9.3,5.6,16.7,9,24.8c3.7-2.4,8.8-4.4,10.9-8.1
	c-1.8-8.2-4.3-16.5-5.2-25C481.4,467.9,480.7,468.2,480.3,468.3 M942.3,487.2c-14.9,15-30.6,29.3-44.3,45.4
	c4.4,3.4,8.9,6.8,13.9,9.2c19.3-10,35.2-27.5,43-47.7C950.7,492.1,946.5,487.8,942.3,487.2 M510.4,490.2c-2.7,3.3-12.8,4.9-9.4,10.7
	c8.3,17.1,21.6,31.3,37.7,41.3c6.7,5.1,13.2-4.6,18.4-7.3c-13-14-27-27.1-40.3-40.8C514.9,492.9,513.1,488.7,510.4,490.2
	 M822.2,497.9c-5.6,18,0.3,38.4,11.9,52.8c20,26.7,62.5,32.5,88.8,12c-1.2-4.5-8.3-6-12-8.8c-15.7,6-34.7,9.2-49.9-0.1
	c-18.2-9-25.9-30.6-24.1-49.9C832.2,501.6,827.3,499.2,822.2,497.9 M631,500.1c-4.1,2.2-10.3,3.1-12.9,6.8
	c1.7,20.5-7.5,42.3-27.1,50.9c-13.8,6.8-30.1,4.3-44.1-0.7c-5.4-0.4-11.8,4.1-14.6,7.6c11.5,9.4,27,14,41.8,12.3
	c37.6-0.7,69.3-40.4,58.9-77.2C632.4,499.9,631.5,500.1,631,500.1 M846.1,502.8c-1.7,15.6,3.6,32.8,16.9,42.1
	c13.8,8.3,30.7,5.7,44.9-0.2c-2.2-4.7-9.2-6.1-12.9-9.8C878.7,524.2,862.8,512.6,846.1,502.8 M961.2,503
	c-8.6,15.7-19.5,30.4-34.3,40.8c-7.8,3.5,3.2,8.4,6.8,8.8c15.5-11.5,29.2-26.3,39.3-42.7C970.6,506.2,965.5,503.4,961.2,503
	 M492.3,505.3c-4.2,2.8-13.4,4.9-8.9,11.3c11.7,14.2,23.3,28.7,38.6,39.4c2.8-2.5,9-3.8,8.8-7.7C514,538,503,519.9,492.3,505.3
	 M607.3,505.3c-20.3,13.4-41.1,26.7-60.3,41.4c13.8,7.5,31.3,8.3,44.9,0.2c13.4-9.1,18.4-26.6,17-42.1
	C608.5,504.8,607.7,505.1,607.3,505.3z"/>
<path class="st1" d="M706.4,146.5c25.6-1.1,51.3,0.7,76.6,4.5c28.2,4.8,57.2,12.7,79.7,31.3c16.8,14.7,25.1,36.9,28.5,58.5
	c8.3,44-9.6,95.2-51,116.4c-28.9,16.2-62.4,22.3-95.2,23.8c-35.9,0.6-72.2-2.3-106.8-12.3c-23-7.7-47.6-19-59.5-41.5
	c-24.3-44.1-20.7-104.4,15-141.5C624.5,158.4,666.4,148.8,706.4,146.5 M716.4,196.4c-13.1,0.2-22.8,11.3-27.2,22.6
	c-6.5,22.9-4.3,47.4-3.2,70.9c0.2,19.5,13.8,41.8,35.1,41.8c11.1-0.8,25.2,2,34.2-6.6c13.8-11.3,16.1-30.5,15.8-47.3
	c-0.5-20,2.1-40.8-5.1-59.9C758.5,198.3,735.3,192.2,716.4,196.4z"/>
<path class="st1" d="M991.2,170c34.1,13,67,30.4,100.8,45c5.3,1.8,5.9,8.2,7.2,12.9c-10.3-7.1-21.3-13.4-33.1-18.2
	c-24.8-11.8-49.7-23.4-74.4-35.5C989.5,174,989.5,170.9,991.2,170z"/>
<path class="st1" d="M459,173.1c2.7-1.3,3.8,1.2,3.9,3.5c-19.9,8.9-39,19.4-58.9,28.3c-17.3,8.5-35.5,15.8-50.9,27.2
	c2.2-5,2.7-12.4,8.9-14.1C394.5,203.3,426.5,187.6,459,173.1z"/>
</svg>
