<?xml version="1.0" encoding="utf-8"?>
<!-- Generator: Adobe Illustrator 19.0.0, SVG Export Plug-In . SVG Version: 6.00 Build 0)  -->
<svg version="1.1" id="Layer_1" xmlns="http://www.w3.org/2000/svg" xmlns:xlink="http://www.w3.org/1999/xlink" x="0px" y="0px"
	 viewBox="64.5 118.3 603.2 603.2" style="enable-background:new 64.5 118.3 603.2 603.2;" xml:space="preserve">
<style type="text/css">
	.st0{fill:#FFFFFF;}
	.st1{fill:url(#SVGID_1_);}
</style>
<g id="_x23_ffffffff">
	<path class="st0" d="M341.3,136.1c2.3-2,3.7-4.8,5.4-7.3c0.4,1.3,1.7,2.6,1.1,4c-2.7,6.6-9.2,11.1-11,18.1c-1.2,4.4,1.4,8.9,5,11.3
		c11.4-0.9,19.4-11.4,31.1-11.1c3.1,5.4,1.6,11.8,1.9,17.7c-6.3,2.5-11.7,7.2-14.3,13.5c-3.3,7.1-4.1,15-5.3,22.7
		c-0.5,2.2,1.4,3.7,2.4,5.4c4.4,5.8,8.1,13.1,15.2,15.9c11.5-1.9,21.6-8.4,32.9-11c0.2-4.4,0.6-8.8,1.9-13c2.3-7.5,7-13.9,11.5-20.2
		c5.8,0.1,11.6,0.1,17.5,0c-1.4,4.5-3.4,9.4-1.8,14.1c1.5,4.1,6.5,4.7,10.2,4.4c12.5-1.1,23.8-7.1,35.9-9.6
		c-0.8,5.8-3.6,11.1-7.4,15.5c-4.5,5.2-9,10.8-10.5,17.7c-12.5,1.8-25.2-4-37.6,0c3.2,6,9.9,9.2,16.5,9.8
		c14.2,1.3,28.1-2.5,42.1-4.1c7.8-1,16.2-1.9,23.6,1.5c2.9,1.2,4.8,3.7,6.5,6.1c6.7-2.2,12.2-7,15.6-13.1c1.2,3.4,2.1,7.3,0.1,10.6
		c-2,3.6-4.6,7.4-3,11.7c-10.5,5.3-22.3,7.2-33.8,9.3c-9.1,1.6-18.2,4.4-25.5,10.2c8,14.9,15.9,31.4,31.3,40.1
		c3.8-1.3,7.6-2.8,10.8-5.4c6.5-5,10.4-12.4,15.4-18.7c5.1,0.6,8.9,5.7,9.1,10.8c5.6-3,5.9-10.1,6.4-15.7
		c-6.4-7.7-18.5-6.9-26.6-2.3c1.3-3.8,4-7.6,8.3-8c9.8-1.1,19.8,2.5,29.4-0.5c3.2,11.5,2.7,24.8-4.4,34.8
		c-9.6,14.1-25.9,20.8-39.9,29.3c3.5,2.5,7.3,4.8,11.7,5c5.5,0.6,10.7-1.8,14.9-5.1c-2,9.2-4.6,18.5-10.1,26.3
		c-1.9,2.8-4.6,5-7.5,6.7c6.6,6.6,5.5,16.9,10.8,24.4c5.7-1.3,8.7-6.6,12-10.8c2.5-3.3,6.5-4.8,10.5-4.8c2.3,4.5,3.3,10.3,0.6,14.9
		c-1,1.9-3.2,2.4-5.1,3.2c6.2,7.8,8.8,17.9,8.9,27.7c0.2,9.1-1.9,18.1-4.5,26.9c-5.9,1-11.5,3.9-14.8,9c-4.2,5.9-5.6,14.6-1.1,20.8
		c2.6,3.7,7.1,5.3,11.4,6.2c-2.1,4.4-7.1,6.2-9.1,10.7c3.7,4.3,6.8,9.9,5.6,15.7c-1.5,7.4-7.4,12.9-13,17.4
		c-6,5.1-13.2,8.7-19.1,13.8c-1.3,4.7,6,5.6,4.7,10.3c-5,1.6-7.8,6.5-8.8,11.3c-2,7.1-2.2,16-9.2,20.2c-0.1,4.1,1,8.3,4.3,10.9
		c-11.1,9.7-20.8,20.8-29.3,32.8c-16.4,23.5-29,49.4-44.4,73.6c-1,2.3-3.7,2.3-5.8,2.9c-21.9,5.5-44.3,10.9-67,10.2
		c-12.1-0.5-25-3.1-34.3-11.3c-6-5.4-7.2-13.9-12-20c-2.5-3.3-6.3-5.2-10.1-6.6c0.1-3.9-0.4-8.1-3.2-11.1c-6.3-7-16.7-8.9-22.3-16.8
		c-6.6-9.6-8.7-21.8-16.4-30.7c-3.4-4.1-8.3-6.6-13.4-7.8c0.2-4.2-0.1-8.6-2.8-12c-2.3-3.3-6-5.3-8.6-8.3
		c-1.2-6.3,4.4-11.8,2.2-18.1c-2.2-3-7.1-1.9-8.9-5.5c-6.8,4.1-15.6,4.8-22.6,0.8c-13.7-7.6-21.4-26.1-14.8-40.8
		c-6.1-2.1-11.4-6.7-13.7-12.8c-4-10.6-3.6-22.3-7.9-32.9c-1.1-2.1-0.1-4.8,2.1-5.5c2.8-0.9,5.7-1.1,8.6-1.8
		c-0.4-4.3-1.3-8.5-3.2-12.4c-3.7-8.2-10.5-14.7-14-23.1c-1.8-3.9-2.3-8.2-3-12.4c0.2-0.5,0.7-1.6,1-2.1c1.6-0.2,3.7-1,4.8,0.7
		c2.5,3.1,3.9,7.2,7.4,9.5c3.4-2.1,6.5-5.2,10.5-6.3c3.1-0.8,5.6,1.7,7.6,3.6c7.9-8,15.2-17.8,16.5-29.2c0.9-6.8-4.2-12.5-10.2-14.9
		c3.1-3.9,5.8-8.3,4.9-13.5c1.9,3.4,2.6,7.4,4.2,10.9c1.2,2.5,4.2,2.8,6.6,2.9c0.8-9.5-1.3-19.2-6.2-27.3c-2.1-3.6-5.3-6.4-9-8.2
		c8-2.6,14.4-9.5,16-17.9c1.5-7.2-1.7-15-7.4-19.5c-4-0.8-6.9,3.5-11.1,2.8c0.3-7.9,7.5-12.3,12-17.8c3.3-3.9,2.6-9.5,1.2-14.1
		c4,3,7.8,7.6,13.4,7.3c4.8,0.6,8.4-3.1,11.6-6.2c10.3-11.3,13.6-27,22.9-39c2.6-3.3,5.7-6.1,9.3-8.1c0.6-5.2,0.2-10.4,0.3-15.6
		c5-0.4,10.1-2.3,13.2-6.5c6.6-8.9,6.6-21,13-30c1.7-2.6,4.4-4.2,6.9-5.8c6.6,3.6,9.3,11,11.2,17.9c-4.3,0-9.1-0.5-13,1.9
		c-1.4,5.1,6.8,6.2,6.5,11.3c9-2.6,18.8-2.9,27.2-7.5c4.8-2.6,7.8-7.8,8.1-13.1c0-2.3,0.7-5.2-1.2-7c-5.2-5.4-12.9-7-19-11
		c-5.5-3.7-5.7-12.6-0.8-16.8C322.2,145.8,333.4,143.4,341.3,136.1 M348.1,305.8c-14.4-0.5-29,1.4-42.5,6.7
		c-11.7,4.4-23,12.3-28.1,24.1c6.8,12.6,6.6,27.7,3.3,41.2c-3.1,12.1-8.7,24.2-18,32.8c-2.8,2.8-6.5,4.2-9.7,6.2
		c-5.8,11.6-9.7,26.6-2.6,38.5c1.5,2-1,3.6-2.3,4.8c-2.9,1.8-1.8,6.1,0.5,8c1.5,1.8,5.2,3.5,3.7,6.4c-1.3,2.9-4-0.5-5.9-0.9
		c-6.2-1.8-10.5,4.3-15.4,6.9c2.2,8.5,9,14.6,15.7,19.8c0.2,4.7-7.5,2.9-7.1,7.6c3.1,10,13.1,15.1,19.1,23c2.6,3.3,3.5,7.4,3.5,11.5
		c2.7,0,5.7,0.3,8.1-1.2c3-1.8,5.6-4.4,9-5.7c1.3,2.3,3.2,4.4,4.9,6.4c-2.7,6.4-7.6,12-8.1,19.1c-0.2,3.6,2.6,6,5.3,7.9
		c0.2-4.3,3.4-7.3,7.1-9c0,2.7-0.4,5.3,0.1,8c0.8,2,4.4,1.8,4.8-0.3c2.9-8.3,0.4-17-0.5-25.4c3.3,0,6.9-0.1,9.7,1.9
		c3.9,2.8,5.8,7.5,7.9,11.6c-4.1,7.4-6.6,15.8-6.5,24.3c-0.1,9.6,3.5,18.8,8.8,26.7c-4.7,1.4-7.6-2.7-11.1-4.9
		c-0.1,3-0.6,7.1,2.4,8.9c4.3,1.9,10.4-0.5,13.3,4.3c-2.8,1.8-5.2,4.5-5.5,8c-0.9,7,0,14.1-1.2,21c5.9,1.2,11.5,4.6,14.1,10.1
		c4.6,9.2,3.6,20.1,1.3,29.8c9.8,7.2,21.5,11.9,33.7,12.9c8.3,0.7,16.9-1.2,23.6-6.2c2,3.4,5.4,5.8,9.3,6.2
		c4.7,1.3,8.9-1.7,12.8-4.1c11.2-7.9,16.6-21.3,19.9-34.1c4.2-12.9,5.5-26.7,11.3-39c-2-0.8-4.8-2.7-6.6-0.6c-2.2,3.3-4.3,7.7-9,7.5
		c0-3.3-0.5-7.1,1.6-9.8c2.7-3.3,7.7-3.3,10.8-6.2c1.8-1.6,1-5.2-1.3-5.8c-3,0-6.3,2.5-9.1,0.2c5.2-3.4,10.1-7.4,15.7-10.1
		c2.1-1.2,5.3-1,6.6-3.4c-2.9-0.4-6.2,0.4-8.7-1.4c0.4-2.8,2.3-5.2,2.4-8c0.7-7.5-2.4-14.7-3.3-22c-0.8-5.2-0.3-10.5,0.9-15.5
		c3.5,0.9,4.4,5.9,8.6,4.9c-0.3-4.5,1.6-9.1,5.5-11.5c0.9-0.7,3-1.4,3.4,0.1c0.1,8.1-6.3,14.9-5.4,23c0.3,1.3,0.3,3.7,2.2,3.7
		c5.1,0.9,10.2-1.7,12.2-6.5c-2.2-0.7-4.5-2-4.7-4.6c-0.8-6.5,1.3-13.1,0.5-19.7c2.1,0.8,4.5,2.5,6.8,1.1c2.8-2.9,2.9-7.7,6.3-10.2
		c5.6,0.5,11.2,2.8,16.9,1.7c2.4-0.4,4.2-2.3,5.6-4.2c-1.8-2.2-4.4-1-6.5-0.2c-0.1-0.5-0.2-1.5-0.2-2.1c2.9-6.1,9.9-8.9,13-15
		c-5.2-1.3-4.5-7.3-4.5-11.4c-2.3,0.4-4.6,1.5-7,1.3c-2.5-2.5-2.1-6.5-0.6-9.4c1.6-3.3,4.6-5.5,6.4-8.6c1.4-2.4,0.2-5.1-0.6-7.5
		c-3.1,0-6.2-0.1-9.2-0.1c-4.1-11.2-5.1-23.2-4.2-35c1.9-0.4,4-0.4,5.4-2c2.3-2.6,2.6-6.1,3.5-9.3c-5-5.4-12.1-7.9-18.2-11.6
		c-4.1-2.3-8.5-4.9-10.7-9.4c-1.9-3.8-1.3-8.3,0.1-12.2c-1-0.5-1.9-1.1-2.9-1.6c-1.8,0.9-3.8,1.5-5.7,1.9
		c-0.2-6.7-5.6-11.5-6.8-17.9c4.2-4.6,7.3-10.2,8.7-16.3c2.1-8.5,0.7-17.4-2-25.6c-3.8,1.5-8.1,2.3-12.1,1.3
		c-10-2.4-17.3-10.5-26.8-14c-3.3-1.4-6.9-0.4-9.8,1.3c-5.7-12.6-19.1-20.6-32.5-22.3C362.4,295.3,353.2,298.6,348.1,305.8
		 M470.6,397.3c6.7,11.6,17.9,19.6,26.4,29.8c-2.1-4.7-4.4-9.3-6.1-14.1c-6-14.8-9.9-31.2-21.1-43.1
		C466,378.5,465.7,389,470.6,397.3 M251.3,374.3c0.6,3.1,1.1,6.3,0.7,9.5c-0.8,7.7-1.7,15.4-3.1,23c-1.2-1.5-2.7-2.8-4.2-3.9
		c-0.1,3.7-0.6,7.6-2.8,10.8c-2.7,4.2-5.9,8.4-6.3,13.5c10.2-8.3,20.8-17.2,26.4-29.4c3.5-7.4,3.4-16,0.3-23.5
		C258.5,374.4,254.9,374.4,251.3,374.3 M222.3,416.4c-3.3,5.2-5.3,11.3-5,17.5c0.4,12.6,7.9,24.2,18.3,31.1c0.7-3.5,0.3-7.6-3-9.7
		c-3.8-2.4-8.8-5.1-8.1-10.5c-0.9-5.1,5.2-6.5,7-10.4c-2.4-0.7-5.5-0.8-6.6-3.5c-1-5.2,2.4-9.9,4.2-14.5
		C226.7,416.4,224.5,416.4,222.3,416.4 M505,420.6c-1.3,10.5,0.7,21.4-2.9,31.6c-1.2,3.9-3.5,7.3-5.6,10.7c4.8-0.9,9-4.1,11-8.6
		c4.1-9.1,3.9-19.3,6.5-28.8C510.6,424.2,509.3,419.2,505,420.6z"/>
	<path class="st0" d="M434.4,175.5c1.5-6.6,6.8-11.7,13.2-13.5c0.6,3.3,0.6,7.1-1.7,9.7C443,175,438.4,175.2,434.4,175.5z"/>
	<path class="st0" d="M156.1,250.2c1.2,1.3,3.2,2.6,2.4,4.6c-1.8,4.9-6.7,8.5-7.2,13.9c-0.5,3.1,1,5.9,2.5,8.4
		c-3.4,8.4-9.6,15.9-17.8,20C137.8,279.8,147.2,264.6,156.1,250.2z"/>
	<path class="st0" d="M138.1,321.2c2.7-0.1,6-0.6,7.9,1.7c2.1,2.5,3.9,5.3,5.8,8c-2,1-4.1,2.3-6.3,1.6
		C140.6,331.1,138.2,325.9,138.1,321.2z"/>
	<path class="st0" d="M182.3,339c1-5.7,8.2-5.2,11.7-2.3c-0.9,1.4-1.1,3.8-3.1,4C187.9,340.9,185.1,339.5,182.3,339z"/>
	<path class="st0" d="M555.9,341.9c5.2-5.4,14.1-6.5,20.9-3.7c4.7,1.9,7.2,6.6,8.1,11.3c-2.4,0.7-4.6,1.8-6.9,2.9
		c-0.3,6.1,6.5,8,9.1,12.5c-4.4,7.3-6.6,15.7-11.1,23c-1.4,2-3.3,4.2-6,4.3c-1.9,0-3.4-1.2-5-2.1c6.3-3.7,8.5-11.4,9-18.3
		c0.3-6.5-1.2-13.9-7-17.7c1.6-4.8,6.9-7.7,6.9-13.2c-7.7,0.6-12.2,7.1-18,11.2C553.8,349.1,553,344.7,555.9,341.9z"/>
	<path class="st0" d="M166.9,343.1c6,5.6,11.9,12,13.7,20.3c-4.3,0.6-9.2,0.5-12.3-2.9C163.7,355.9,163.9,348.5,166.9,343.1z"/>
	<path class="st0" d="M153.6,367.4c1.6,0.3,3.6-0.2,4.9,1.1c3,2.4,2.2,6.9,0.5,9.9c-1.6,1.2-2.6-1.4-3.2-2.4
		C154.9,373.1,154.4,370.2,153.6,367.4z"/>
	<path class="st0" d="M142.5,376.2c7.3,1.4,8.6,9.7,9.2,15.8c-4.3,2.4-7,6.9-7.9,11.7c-1.3,7.3-0.2,14.7,1.3,21.8
		c-6.9-2-10.1-9.8-9.1-16.5c0.9-7.5,4-15.6,11-19.4C145,385.3,141.6,381.3,142.5,376.2z"/>
	<path class="st0" d="M582.4,405.3c3.6,0.6,7.4,1.6,9.8,4.5c3.5,4.1,4.1,9.8,3.5,15c-4.5,2.8-10,4.7-15.4,4.9
		c1.3-5.3,4.3-10.3,8.9-13.3C588.3,411.8,581.4,410.8,582.4,405.3z"/>
	<path class="st0" d="M466.4,432.5c2.7-1.8,5.4,0.7,7.8,1.8c0,17.6-8,35-21.4,46.4c-11.7,10.2-27.2,15.3-42.6,15.3
		c6.3-16.5,15.9-32,28.8-44.2C447.1,444,456.4,437.6,466.4,432.5z"/>
	<path class="st0" d="M270.7,440.6c9.9-1.4,19.5,2.2,29,4.5c7.3,18,23.3,29.7,35.4,44.2c-6.8,4.5-14.9,7.4-23.1,7.3
		c-12.3,0-24.1-6.6-31-16.7c-1.9-3-4.2-6.2-3.8-10c-0.1-4,3.8-6.4,4.7-10c0.1-5.3-5.6-7.1-9.1-9.8
		C269.9,447.8,270.4,443.8,270.7,440.6z"/>
	<path class="st0" d="M560,458.8c3.9-3,7.6-6.3,11.7-9c-0.3,3.2-1,6.3-2.7,9.1c-4.5,7.7-10.8,14-15.4,21.6c-2.7-1.9-5.6-4.8-4.5-8.5
		C550.9,466.3,555.8,462.5,560,458.8z"/>
	<path class="st0" d="M145.9,466.8c2-4.2,5.8-7.3,8.3-11.2c0.2,5.1-1,10.2,0.1,15.3c0.6,3.5,2.5,6.5,3.9,9.7
		c-5.2,0.7-9.1-2.8-13.5-4.8C144.6,472.9,144.5,469.6,145.9,466.8z"/>
	<path class="st0" d="M359.4,520.2c4.2,1.8,8.8,1.7,13.1,0.1c0.7,7.7,6.2,14,6.5,21.7c-0.2,4.5-5.1,6.2-8.8,7
		c-1.5-2.8-2.1-6-2.1-9.2c-3.3,0-5.7,2.1-7.5,4.6c-1.8,2.5-5.3,3.4-8,2c-1.7-3.6-1.4-7.8-0.1-11.4C354,529.8,356.9,525,359.4,520.2z
		"/>
</g>
<linearGradient id="SVGID_1_" gradientUnits="userSpaceOnUse" x1="64.4665" y1="419.8888" x2="667.6549" y2="419.8888">
	<stop  offset="0" style="stop-color:#83C452"/>
	<stop  offset="1" style="stop-color:#02673F"/>
</linearGradient>
<path class="st1" d="M650.2,318.7c-13-36.4-33.1-70.3-58.8-99.1c-30.5-34.3-68.8-61.5-111.2-78.8c-42.3-17.4-88.5-24.8-134.1-21.7
	c-32.3,2.1-64.2,9.5-94.1,21.8c-37,15.2-70.8,37.8-99,66.1C101.4,258,69.3,328.4,65.3,400.9c-0.7,10.9-1.3,21.9-0.2,32.9
	c2.6,69.8,31.3,138.1,78.6,189.4c26.5,29.1,58.8,52.9,94.4,69.7c39.8,18.8,83.9,28.6,128,28.6c45.3,0,90.7-10.2,131.4-30.2
	c69.6-33.5,125.3-94.8,151.8-167.4C673.5,458.4,673.8,384.4,650.2,318.7z M447.6,162c0.6,3.3,0.6,7.1-1.7,9.7
	c-2.9,3.2-7.5,3.4-11.5,3.7C435.9,168.9,441.2,163.8,447.6,162z M194,336.7c-0.9,1.4-1,3.8-3.1,4c-3,0.2-5.8-1.2-8.6-1.7
	C183.2,333.3,190.4,333.8,194,336.7z M167,343.1c6,5.6,11.9,12,13.7,20.3c-4.3,0.6-9.2,0.5-12.3-2.9
	C163.7,356,163.9,348.5,167,343.1z M159,378.3c-1.6,1.2-2.6-1.4-3.2-2.4c-1-2.8-1.4-5.7-2.2-8.5c1.6,0.3,3.6-0.2,4.9,1.1
	C161.5,370.8,160.7,375.4,159,378.3z M156.1,250.2c1.2,1.3,3.2,2.6,2.4,4.6c-1.8,4.9-6.7,8.5-7.2,13.9c-0.5,3,1,5.9,2.5,8.3
	c-3.4,8.4-9.5,15.9-17.8,20C137.8,279.8,147.2,264.7,156.1,250.2z M151.7,330.9c-2,1-4.1,2.3-6.3,1.6c-4.8-1.4-7.2-6.6-7.3-11.3
	c2.7-0.1,6-0.6,7.9,1.7C148.1,325.5,149.8,328.3,151.7,330.9z M136,409c0.9-7.5,4-15.6,11-19.4c-2.1-4.3-5.4-8.3-4.5-13.4
	c7.3,1.4,8.6,9.7,9.2,15.8c-4.3,2.4-7,6.9-7.9,11.7c-1.3,7.3-0.2,14.7,1.3,21.8C138.2,423.5,135,415.7,136,409z M144.7,475.9
	c-0.1-3-0.3-6.3,1.2-9.1c2-4.2,5.8-7.3,8.3-11.2c0.2,5.1-1,10.2,0.1,15.3c0.6,3.5,2.5,6.5,3.9,9.7
	C153,481.4,149.1,477.8,144.7,475.9z M536,491.3c3.7,4.3,6.8,9.9,5.6,15.7c-1.5,7.4-7.4,12.9-13,17.4c-6,5.1-13.2,8.7-19.1,13.8
	c-1.3,4.7,6,5.6,4.7,10.3c-5,1.6-7.8,6.5-8.8,11.3c-2,7.1-2.2,16-9.2,20.2c-0.1,4.1,1,8.3,4.3,10.9c-11.1,9.7-20.8,20.8-29.3,32.8
	c-16.4,23.5-29,49.4-44.4,73.6c-1,2.3-3.7,2.3-5.8,2.9c-21.9,5.5-44.3,10.9-67,10.2c-12.1-0.5-25-3.1-34.3-11.3
	c-6-5.4-7.2-13.9-12-20c-2.5-3.3-6.3-5.2-10-6.6c0.1-3.9-0.5-8.1-3.2-11.1c-6.3-7-16.7-8.9-22.3-16.8c-6.6-9.6-8.7-21.8-16.4-30.7
	c-3.4-4.1-8.3-6.6-13.4-7.8c0.2-4.2-0.1-8.6-2.8-12c-2.3-3.3-6-5.3-8.6-8.3c-1.2-6.3,4.4-11.8,2.2-18.1c-2.2-3-7.1-1.9-8.9-5.5
	c-6.8,4.1-15.6,4.8-22.6,0.8c-13.7-7.6-21.4-26.1-14.8-40.8c-6.1-2.1-11.4-6.7-13.7-12.8c-4-10.6-3.6-22.3-7.9-32.9
	c-1.1-2.1-0.1-4.8,2.1-5.5c2.8-0.9,5.7-1.1,8.6-1.8c-0.4-4.3-1.3-8.5-3.2-12.3c-3.7-8.2-10.5-14.7-14-23.1c-1.8-3.9-2.3-8.2-3-12.4
	c0.2-0.5,0.7-1.6,1-2.1c1.6-0.2,3.7-1,4.8,0.7c2.5,3.1,3.9,7.2,7.4,9.5c3.4-2.1,6.5-5.2,10.5-6.3c3.1-0.8,5.6,1.7,7.6,3.7
	c7.9-8,15.2-17.8,16.5-29.2c0.9-6.8-4.2-12.5-10.2-14.9c3.1-3.8,5.8-8.3,4.9-13.5c1.9,3.5,2.6,7.4,4.2,10.9c1.2,2.5,4.2,2.8,6.6,2.9
	c0.8-9.5-1.3-19.2-6.2-27.3c-2.1-3.6-5.3-6.4-9-8.2c8-2.6,14.4-9.5,16-17.9c1.5-7.2-1.7-15-7.4-19.5c-4-0.8-6.9,3.5-11,2.8
	c0.3-7.9,7.5-12.3,12-17.8c3.3-3.9,2.6-9.5,1.2-14.1c4,3,7.8,7.6,13.3,7.3c4.8,0.6,8.4-3.1,11.6-6.2c10.3-11.3,13.6-27,23-39
	c2.5-3.3,5.7-6.1,9.3-8.1c0.6-5.2,0.2-10.4,0.3-15.6c5-0.4,10.1-2.3,13.2-6.5c6.6-8.9,6.6-21,13-30c1.7-2.6,4.4-4.2,6.9-5.8
	c6.6,3.6,9.3,11,11.2,17.9c-4.3,0-9.1-0.5-13,1.9c-1.4,5.1,6.8,6.2,6.5,11.3c9-2.6,18.8-2.9,27.2-7.5c4.8-2.6,7.8-7.8,8.1-13.2
	c0-2.3,0.7-5.2-1.2-7c-5.2-5.4-12.9-7-19-11c-5.5-3.7-5.7-12.6-0.8-16.8c8-7.2,19.1-9.6,27.1-16.8c2.3-2,3.7-4.8,5.4-7.3
	c0.4,1.3,1.7,2.6,1.1,4c-2.7,6.6-9.2,11-11,18.1c-1.2,4.4,1.4,8.9,5,11.3c11.4-0.9,19.4-11.5,31.1-11.1c3.1,5.4,1.6,11.8,1.9,17.7
	c-6.3,2.5-11.7,7.2-14.3,13.5c-3.3,7.1-4.1,15-5.3,22.7c-0.5,2.2,1.4,3.7,2.4,5.4c4.3,5.8,8.1,13.1,15.2,15.9
	c11.5-1.9,21.6-8.4,32.9-11c0.2-4.4,0.6-8.8,1.9-13c2.3-7.5,7-13.9,11.5-20.2c5.8,0.1,11.6,0.1,17.5,0c-1.4,4.5-3.4,9.4-1.8,14.1
	c1.5,4.1,6.5,4.7,10.2,4.4c12.5-1.1,23.8-7.1,35.9-9.7c-0.8,5.8-3.6,11.1-7.4,15.5c-4.5,5.2-9,10.8-10.5,17.7
	c-12.5,1.8-25.2-4-37.6,0c3.2,6,9.9,9.2,16.5,9.8c14.2,1.3,28.1-2.5,42.1-4.1c7.8-1,16.2-1.9,23.6,1.5c2.9,1.2,4.8,3.7,6.5,6.1
	c6.6-2.2,12.2-7,15.6-13.1c1.2,3.4,2.1,7.3,0.1,10.6c-2,3.6-4.6,7.4-3.1,11.7c-10.5,5.3-22.3,7.2-33.8,9.3
	c-9.1,1.6-18.2,4.4-25.5,10.2c8,14.9,15.9,31.4,31.3,40.1c3.8-1.3,7.6-2.8,10.8-5.4c6.5-5,10.4-12.4,15.4-18.7
	c5.1,0.6,8.9,5.7,9.1,10.8c5.6-3,5.9-10.1,6.4-15.7c-6.4-7.7-18.6-6.9-26.6-2.3c1.3-3.8,4-7.6,8.3-8c9.8-1.1,19.8,2.5,29.4-0.5
	c3.2,11.5,2.7,24.8-4.4,34.8c-9.6,14.1-25.9,20.8-39.9,29.3c3.5,2.5,7.3,4.8,11.7,5c5.5,0.6,10.7-1.8,14.9-5.1
	c-2,9.2-4.6,18.5-10.1,26.3c-1.9,2.8-4.6,5-7.5,6.7c6.7,6.6,5.5,16.9,10.8,24.4c5.7-1.3,8.7-6.6,12-10.8c2.4-3.3,6.5-4.8,10.5-4.8
	c2.3,4.5,3.3,10.3,0.6,14.9c-1,1.9-3.2,2.4-5.1,3.2c6.2,7.8,8.8,17.8,8.9,27.7c0.2,9.1-1.9,18.1-4.5,26.9c-5.8,1-11.5,3.9-14.8,9
	c-4.2,5.9-5.6,14.6-1.1,20.8c2.7,3.7,7.2,5.3,11.4,6.2C542.9,485,537.9,486.8,536,491.3z M569,458.8c-4.5,7.7-10.8,14-15.4,21.6
	c-2.7-1.9-5.6-4.8-4.5-8.5c1.8-5.6,6.6-9.4,10.8-13.1c3.9-3,7.6-6.3,11.7-9C571.4,452.9,570.7,456.1,569,458.8z M576,387.9
	c-1.4,2-3.3,4.2-6,4.3c-1.9,0-3.4-1.2-5-2.1c6.3-3.7,8.5-11.4,9-18.3c0.3-6.5-1.2-13.9-7-17.7c1.6-4.8,6.9-7.7,6.9-13.2
	c-7.7,0.6-12.2,7.1-18,11.2c-2.1-3-2.8-7.5,0-10.3c5.2-5.4,14.1-6.5,20.9-3.7c4.7,1.9,7.2,6.6,8.1,11.3c-2.4,0.7-4.6,1.8-6.9,2.9
	c-0.3,6.1,6.5,8,9.1,12.5C582.6,372.2,580.5,380.6,576,387.9z M595.8,424.7c-4.5,2.8-10,4.7-15.4,4.9c1.3-5.3,4.3-10.3,8.9-13.3
	c-1-4.6-7.8-5.6-6.8-11.1c3.6,0.6,7.4,1.6,9.8,4.5C595.7,413.8,596.3,419.6,595.8,424.7z M235.6,427.2c0.4-5.2,3.6-9.4,6.3-13.5
	c2.1-3.2,2.6-7,2.8-10.8c1.6,1.1,3,2.4,4.2,3.9c1.5-7.6,2.3-15.3,3.1-23c0.3-3.2-0.1-6.4-0.7-9.5c3.6,0.1,7.2,0.1,10.9,0
	c3.1,7.5,3.2,16.1-0.3,23.5C256.3,410.1,245.7,418.9,235.6,427.2z M235.6,465c-10.3-6.9-17.9-18.5-18.3-31.1
	c-0.3-6.2,1.7-12.3,5-17.5c2.2,0,4.4,0,6.7,0c-1.8,4.7-5.1,9.3-4.2,14.5c1.1,2.7,4.2,2.8,6.6,3.5c-1.8,4-7.9,5.3-7,10.5
	c-0.7,5.4,4.3,8.1,8.1,10.5C235.9,457.4,236.2,461.5,235.6,465z M496.3,493.5c-2.3,0.4-4.6,1.5-7,1.3c-2.5-2.5-2.1-6.5-0.6-9.4
	c1.6-3.3,4.6-5.5,6.4-8.6c1.4-2.4,0.2-5.1-0.6-7.5c-3.1,0-6.2-0.1-9.2-0.1c-4.1-11.2-5.1-23.2-4.2-35c1.9-0.4,4-0.4,5.4-2
	c2.3-2.6,2.6-6.1,3.5-9.3c-5-5.4-12.1-7.9-18.2-11.6c-4.1-2.3-8.5-4.9-10.7-9.4c-1.9-3.8-1.3-8.3,0.1-12.2c-1-0.5-1.9-1.1-2.9-1.6
	c-1.8,0.9-3.8,1.5-5.7,1.9c-0.2-6.7-5.6-11.5-6.8-17.9c4.2-4.6,7.3-10.2,8.7-16.3c2.1-8.5,0.7-17.4-2-25.6
	c-3.8,1.5-8.1,2.3-12.1,1.3c-10-2.4-17.3-10.5-26.8-14c-3.3-1.4-6.9-0.4-9.8,1.3c-5.7-12.6-19.1-20.6-32.5-22.3
	c-8.6-1.2-17.7,2.1-22.8,9.3c-14.4-0.5-29,1.4-42.5,6.7c-11.7,4.4-23,12.3-28.1,24.2c6.8,12.6,6.6,27.7,3.3,41.2
	c-3.1,12.1-8.7,24.2-18,32.8c-2.8,2.8-6.5,4.2-9.7,6.2c-5.8,11.6-9.7,26.6-2.6,38.5c1.5,2-1,3.6-2.3,4.8c-2.9,1.8-1.8,6.1,0.5,8
	c1.5,1.8,5.2,3.5,3.7,6.4c-1.3,2.9-4-0.5-5.9-0.9c-6.2-1.8-10.5,4.3-15.4,6.9c2.2,8.5,9,14.6,15.7,19.8c0.2,4.7-7.5,2.9-7.1,7.6
	c3.1,10,13.1,15.1,19.1,23c2.6,3.3,3.5,7.4,3.5,11.5c2.7,0,5.7,0.3,8.1-1.2c3-1.8,5.6-4.4,9-5.7c1.3,2.3,3.2,4.4,4.9,6.4
	c-2.7,6.4-7.6,12-8.1,19.1c-0.2,3.6,2.6,6,5.3,7.9c0.2-4.3,3.4-7.3,7.1-9c0,2.7-0.4,5.3,0.1,8c0.8,2,4.4,1.8,4.8-0.3
	c2.9-8.3,0.4-17-0.5-25.4c3.3,0,6.9-0.1,9.7,1.9c3.9,2.8,5.8,7.5,7.9,11.6c-4.1,7.4-6.6,15.8-6.5,24.3c-0.1,9.6,3.5,18.8,8.8,26.7
	c-4.7,1.4-7.6-2.7-11.1-4.9c-0.1,3-0.6,7.1,2.4,8.9c4.3,1.9,10.4-0.5,13.3,4.3c-2.8,1.8-5.2,4.5-5.5,8c-0.9,7,0,14.1-1.2,21
	c5.9,1.2,11.5,4.6,14.2,10.1c4.6,9.2,3.6,20.1,1.3,29.8c9.8,7.2,21.5,11.9,33.7,12.9c8.3,0.7,16.9-1.2,23.6-6.2
	c2,3.4,5.4,5.8,9.3,6.2c4.7,1.3,8.9-1.7,12.8-4.1c11.2-7.9,16.6-21.3,19.9-34.1c4.2-12.9,5.5-26.7,11.3-39c-2-0.8-4.8-2.7-6.6-0.6
	c-2.2,3.3-4.3,7.7-9,7.5c0-3.3-0.5-7.1,1.6-9.8c2.7-3.3,7.7-3.3,10.8-6.2c1.8-1.6,1-5.2-1.3-5.8c-3,0-6.3,2.5-9,0.2
	c5.2-3.4,10.1-7.4,15.7-10.1c2.1-1.2,5.3-1,6.6-3.4c-2.8-0.4-6.2,0.4-8.7-1.4c0.4-2.8,2.3-5.2,2.4-8c0.7-7.5-2.4-14.7-3.3-22
	c-0.8-5.2-0.3-10.5,0.9-15.5c3.5,0.9,4.4,5.9,8.6,4.9c-0.3-4.5,1.7-9.1,5.5-11.5c0.9-0.7,3-1.4,3.4,0.1c0.1,8.1-6.3,14.9-5.4,23
	c0.3,1.3,0.3,3.7,2.2,3.7c5.1,0.9,10.2-1.7,12.2-6.5c-2.2-0.7-4.5-2-4.7-4.6c-0.8-6.5,1.3-13.1,0.5-19.7c2.1,0.8,4.5,2.5,6.8,1.1
	c2.8-2.9,2.9-7.7,6.3-10.2c5.6,0.5,11.2,2.8,16.9,1.7c2.5-0.4,4.2-2.3,5.6-4.2c-1.8-2.2-4.4-1-6.5-0.2c0-0.5-0.2-1.5-0.2-2.1
	c2.9-6.1,9.9-8.9,13-15C495.5,503.7,496.2,497.6,496.3,493.5z M311.9,496.5c-12.3,0-24.1-6.6-31-16.7c-1.9-3-4.2-6.2-3.8-10
	c-0.1-4,3.8-6.4,4.7-10c0.1-5.3-5.6-7.1-9.1-9.8c-2.9-2.2-2.5-6.2-2.2-9.4c10-1.4,19.5,2.2,29,4.5c7.3,18,23.3,29.7,35.4,44.2
	C328.3,493.8,320.2,496.7,311.9,496.5z M370.2,549c-1.5-2.8-2.1-6-2.1-9.2c-3.3,0-5.7,2.1-7.5,4.6c-1.8,2.5-5.3,3.4-8,2
	c-1.7-3.6-1.4-7.8-0.1-11.4c1.7-5.2,4.5-10,7.1-14.8c4.2,1.8,8.8,1.7,13.1,0.1c0.7,7.7,6.2,14,6.5,21.7
	C378.8,546.5,373.9,548.2,370.2,549z M452.8,480.7c-11.7,10.2-27.2,15.3-42.6,15.3c6.3-16.5,15.9-32,28.8-44.2
	c8.1-7.8,17.5-14.2,27.4-19.3c2.7-1.8,5.4,0.7,7.8,1.8C474.3,451.9,466.2,469.3,452.8,480.7z M470.6,397.3
	c-4.9-8.3-4.6-18.8-0.8-27.5c11.2,12,15.1,28.3,21.1,43.1c1.7,4.9,4,9.5,6.1,14.1C488.5,416.9,477.4,408.9,470.6,397.3z M514,425.5
	c-2.6,9.5-2.4,19.7-6.5,28.8c-2,4.5-6.2,7.7-11,8.6c2.1-3.5,4.4-6.8,5.6-10.7c3.6-10.2,1.6-21.1,2.9-31.6
	C509.3,419.2,510.6,424.2,514,425.5z"/>
</svg>
