<?xml version="1.0" encoding="utf-8"?>
<!-- Generator: Adobe Illustrator 19.0.0, SVG Export Plug-In . SVG Version: 6.00 Build 0)  -->
<svg version="1.1" id="Layer_1" xmlns="http://www.w3.org/2000/svg" xmlns:xlink="http://www.w3.org/1999/xlink" x="0px" y="0px"
	 viewBox="-112 229.2 368.8 384.7" style="enable-background:new -112 229.2 368.8 384.7;" xml:space="preserve">
<style type="text/css">
	.st0{fill:#E39419;}
</style>
<g id="_x23_ffffffff">
	<path d="M72,229.2c0,0,100.1,99.5,149.5,149.4c-11.6,11.3-23,22.9-34.5,34.4c-1.3-0.3-2-1.4-2.9-2.2
		c-20.2-20.3-40.5-40.4-60.5-60.7c-0.3,51.7-0.1,103.4-0.1,155.1c-17,17.4-33.8,35-50.8,52.3l-0.5,0.2c-10.8-11.5-22-22.6-32.9-34
		c-5.9-6.1-11.7-12.3-17.8-18.3c-0.3-51.8,0.1-103.7-0.2-155.5c-21,21.2-42.2,42.2-63.2,63.4c-11.4-11.6-22.8-23.2-34.6-34.5
		l0.3-0.9C-27.1,328.9,71.7,229.6,72,229.2z"/>
</g>
<g id="_x23_e39419ff">
	<path class="st0" d="M-112,429.7c12.5-12.6,25-25.3,37.8-37.7c7.3,7.4,14.7,14.7,22,22.1c-5,5.3-10.3,10.3-15.4,15.5
		c46.7,46.6,93.3,93.2,139.9,139.9c46.4-46.3,92.7-92.7,139.1-139c1.3-1-0.4-2.2-1.1-3c-4.4-4.5-9.1-8.8-13.3-13.5
		c7.4-7.3,14.7-14.7,22-22c12.6,12.5,25.2,25.1,37.7,37.7C195.2,491,133.8,552.5,72.4,613.9h-0.1C17.9,559.5-36.4,505.1-90.8,450.8
		c-6.9-7-14-13.8-20.7-20.9l-0.4,0.9V429.7z"/>
</g>
</svg>
