<?xml version="1.0" encoding="utf-8"?>
<!-- Generator: Adobe Illustrator 19.0.0, SVG Export Plug-In . SVG Version: 6.00 Build 0)  -->
<svg version="1.1" id="Layer_1" xmlns="http://www.w3.org/2000/svg" xmlns:xlink="http://www.w3.org/1999/xlink" x="0px" y="0px"
	 viewBox="367.17 53.316 1192.04 746.266" style="enable-background:new 367.17 53.316 1192.04 746.266;" xml:space="preserve">
<style type="text/css">
	.st0{fill:#FFFFFF;}
	.st1{fill:#260D3A;}
	.st2{fill:#814198;}
	.st3{fill:#9257A3;}
	.st4{fill:#33193A;}
	.st5{fill:#C9C9CA;}
</style>
<g id="_x23_ffffffff">
	<path class="st0" d="M862.93,56.82c26.46-5.39,53.71-3.87,80.27-0.09c2.52,0.55,5.1,0.72,7.62,1.28c6.49,0.9,12.85,2.53,19.29,3.76
		c8.3,1.78,16.5,4.02,24.7,6.24c13.96,3.97,27.76,8.53,41.34,13.66c19.35,7.14,37.97,16.05,56.28,25.5
		c3.8,2.61,8.44,0.99,12.66,0.77c1.65-0.3,3.33-0.46,5.02-0.56c16.15,8.43,32.61,16.3,48.81,24.68c3.35,1.61,6.66,3.35,10.01,4.99
		c3.35,1.63,6.66,3.36,10,5.02c3.36,1.59,6.66,3.33,10,4.98c3.33,1.61,6.64,3.28,9.9,5.05c6.42,3.21,12.83,6.44,19.27,9.63
		c3.33,1.65,6.63,3.38,9.99,4.99c3.34,1.65,6.64,3.37,9.99,5c29.48,14.91,59.04,29.65,88.55,44.48c9.99,4.8,19.7,10.18,29.77,14.8
		c0.16,0.42,0.48,1.24,0.64,1.66c-21.07,21.75-41.87,43.76-62.74,65.71c-13.15,13.19-23.06,29.32-30.48,46.33
		c-3.93,9.13-7.2,18.53-9.91,28.09c-1.88,6.94-3.63,13.91-5.01,20.96c-1.32,8.08-3.11,16.11-3.77,24.28
		c-4.04,32.13-3.67,64.67-1.25,96.92c1.28,13.06,2.66,26.14,5.02,39.07c0.26,1.1,0.51,2.21,0.74,3.34
		c59.77-0.02,119.54-0.01,179.31-0.01c43.42,0.11,86.85-0.23,130.26,0.17c-2.48,1.04-4.94,2.11-7.42,3.12c-12,4.99-24,9.99-35.99,15
		c-3.99,1.62-7.93,3.37-11.93,4.97c-7.99,3.35-15.99,6.65-23.97,10.01c-20.03,8.33-40.03,16.71-60.06,25.02
		c-4.01,1.63-7.96,3.42-11.98,5.01c-4.01,1.61-7.95,3.39-11.95,4.99c-4.05,1.6-8.02,3.41-12.06,5.02
		c-7.98,3.33-15.96,6.66-23.94,9.98c-3.79,1.55-7.57,3.11-11.28,4.82c0.07,51.32,0.03,102.64,0.02,153.96
		c-119.89,0.2-239.78,0.15-359.67,0.15c-42.98-0.38-85.97-0.09-128.96,0c-81.88-0.05-163.77,0.1-245.65-0.08
		c19.53-28.69,38.58-57.73,58.05-86.47c0.09-12.5-0.06-25,0.07-37.5c-8.12-4.96-16.41-9.62-24.58-14.48
		c-18.32-10.69-36.62-21.43-54.93-32.13c-8.71-5.62-18.72-8.63-28.12-12.83c-15.99-6.7-32-13.31-47.99-19.98
		c-20.01-8.34-40.01-16.69-60.03-24.99c-10.53-4.54-21.24-8.66-31.69-13.39c94.57-0.1,189.14,0.03,283.7-0.07
		c-18.63-19.36-35.83-40.04-52.09-61.42c1.28-9.47,2.25-18.99,3.08-28.51c1.03-7.61,1.94-15.26,3.61-22.77
		c-2.55,0.2-5.09,0.51-7.62,0.79c-2.22,0.51-4.49,0.74-6.71,1.21c-7.13,0.94-14.11,2.68-21.19,3.87
		c-14.09,2.91-28.1,6.19-41.97,10.02c-1.26,0.4-2.54,0.76-3.8,1.16c-9.79,2.91-19.56,5.86-29.33,8.82
		c-1.03,0.29-2.06,0.57-3.08,0.86c-16.86,5.18-33.77,10.19-50.66,15.27c-5.64,1.68-11.26,3.47-16.92,5.07
		c-4.15,1.18-8.22,2.58-12.38,3.73c-5.87,1.74-11.72,3.54-17.57,5.34c-10.83,3.09-21.56,6.53-32.36,9.68
		c-1.05,0.29-2.1,0.59-3.14,0.9c-9.95,3.1-19.95,6.04-29.93,9.03c-5.97,1.74-11.92,3.55-17.81,5.51c-0.45,0-1.36,0.01-1.81,0.01
		c8.93-10.15,17.15-20.91,25.78-31.32c32.76-40.27,65.53-80.53,98.27-120.81c10.35-12.63,20.51-25.43,31.05-37.9
		c8.01-9.64,16.49-18.86,24.64-28.37c-6.76,1.05-13.38,2.83-20.13,3.88c-6.94,1.42-13.87,2.85-20.83,4.17
		c-1.92,0.4-3.86,0.74-5.77,1.19c-4.15,0.62-8.21,1.74-12.37,2.31c62.12-52.45,124.29-104.84,186.41-157.28
		c11.98-9.97,23.63-20.35,36.12-29.68c22.6-17.07,46.42-32.59,71.53-45.7c2.67-1.33,5.27-2.8,7.94-4.13
		c11.88-5.67,23.89-11.12,36.33-15.49C838.13,62.77,850.42,59.27,862.93,56.82 M850.96,84.71c-26.4,7.47-51.33,19.35-75.02,33.04
		c-25.8,15.15-50.39,32.42-73.04,51.99c-41.83,35.25-83.6,70.57-125.45,105.8c-0.56,0.61-0.96,1.33-1.19,2.15
		c0.36-0.25,1.08-0.75,1.44-1c6.14-0.8,12.15-2.39,18.24-3.54c7.89-1.69,15.88-2.87,23.71-4.8c-12.8,12.6-25.62,25.18-38.1,38.11
		c-18.19,19.23-35.76,39.06-52.45,59.62c-30.95,38.15-62.08,76.17-92.95,114.39c16-4.8,31.98-9.64,47.99-14.4
		c31.64-9.58,63.32-19.01,94.96-28.58c23.7-6.48,47.73-11.76,72-15.53c14.75-2.09,29.51-4.55,44.43-4.95
		c-5.63,17.55-9.65,35.68-11.39,54.05c-0.7,4.28-0.78,8.63-1.48,12.92c-0.03,2.19-1.15,4.8,0.57,6.63
		c6.04,7.62,11.98,15.32,18.32,22.7c21,24.3,43.4,47.47,67.42,68.81c-57.34,0.11-114.68,0.02-172.01,0.05
		c-16.69,0.14-33.38-0.31-50.06,0.23c20,7.89,39.67,16.62,59.65,24.52c-0.03,0.45-0.09,1.35-0.12,1.8
		c30.14,17.35,60.07,35.07,90.09,52.61c0.53,18.83,0.05,37.73,0.24,56.59c0.39,2.69-1.62,4.68-2.93,6.78
		c-11.26,16.85-22.59,33.65-33.78,50.55c91.66,0.17,183.3-0.12,274.95-0.11c14.33-0.17,28.68,0.45,42.98-0.49
		c16.35,0.3,32.75-0.61,49.06,0.65c89.64-0.03,179.28,0.02,268.92-0.16c9.49-0.27,19.05,0.57,28.49-0.44
		c-0.15-48.57-0.11-97.14-0.02-145.71c37.06-15.18,73.9-30.92,110.98-46.08c0.13-0.33,0.4-0.99,0.53-1.32
		c-68.81,0.06-137.61-0.01-206.42,0.04c-2.72-13.68-5.61-27.34-7.31-41.2c-2.58-18.39-3.57-36.95-4.3-55.49
		c-0.6-30.08,0.72-60.31,6.21-89.94c7.28-41.14,22.58-82.46,52.03-112.99c12.45-12.86,24.67-25.93,37.11-38.81
		c1.36-1.52,3.06-2.87,3.71-4.88c-5.6-2.36-10.9-5.37-16.38-7.97c-64.84-32.59-129.75-65.07-194.59-97.67
		c-4.94-0.74-9.97,1.59-14.95,0.78c-5.45-2.26-10.54-5.26-15.88-7.76c-40.54-20.91-84.16-36.08-129.13-43.9
		c-10.96-1.59-21.93-3.41-33.03-3.67C892.15,76.24,871.06,79.01,850.96,84.71z"/>
	<path class="st0" d="M908.58,357.86c16.73-4.15,34.29-5.66,51.38-2.96c16.63,3.1,30.21,13.91,43.48,23.68
		c4.2,2.92,8.3,6.45,13.48,7.41c-4.99,0.9-10.24,2.11-13.92,5.86c-8.56,7.65-20.16,13.87-31.94,11.05
		c-7.95-1.89-14.41-7.44-19.38-13.7c-5.01-6.09-8.18-13.59-14.09-18.96C930.15,362.24,919.32,358.37,908.58,357.86z"/>
	<path class="st0" d="M1069.02,393.9c13-3.68,26.28-7.43,39.94-6.76c5.84-0.32,11.35,1.75,16.75,3.68
		c-0.08,0.28-0.24,0.84-0.32,1.12c-3.07,2.86-6.69,5.68-7.71,9.97c-1.79,6.41-7.99,10.8-14.28,12.12c-3.44,0.72-6.67-1.24-9.19-3.36
		c-4.82-3.76-8.29-9.03-13.39-12.43C1077,396.5,1072.87,395.55,1069.02,393.9z"/>
	<path class="st0" d="M674.58,607.62c48.28-0.29,96.56,0.01,144.85-0.15c4.55,7.54,8.77,15.28,13.28,22.85
		c1.58,2.21,0.92,5.05,1.06,7.59c-0.16,10.5,0.24,21.02-0.19,31.51c-4.83,2.74-9.86,5.14-14.54,8.16
		c4.95,2.77,10.13,5.17,14.87,8.28c0.75,12.2,0.13,24.66,0.31,36.97c0.22,2.18-0.72,4.93,1.18,6.6c5.93,6.7,11.84,13.44,17.87,20.06
		c-16.54,0.21-33.07,0.06-49.6,0.08c-5.41-6.37-10.94-12.63-16.48-18.88c-1.11-0.95-0.98-2.46-1.02-3.75
		c0.03-12.26,0.01-24.51,0.02-36.76c-5.57-0.03-11.13-0.01-16.69-0.02c0.01,12.97-0.01,25.94,0.01,38.91
		c5.63,6.73,10.97,13.69,16.53,20.48c-26.1,0.22-52.21,0.16-78.31,0.03c4.98-7.11,9.69-14.42,14.53-21.63
		c-0.01-27.05,0.02-54.1-0.02-81.14c-7.84-4.43-15.48-9.2-23.38-13.51c11.01-0.65,22.06-0.11,33.09-0.28
		c12.49-0.68,25.01-0.22,37.51-0.36c0.08,12.32,0.03,24.63,0.03,36.95c5.62,0.03,11.25,0.11,16.88,0.08
		c-0.04-15.02,0.09-30.04-0.07-45.05c-20.44-0.02-40.88-0.02-61.31,0c-1.38,0-2.76-0.16-4.05-0.63
		C705.49,618.54,689.78,613.75,674.58,607.62 M729.39,685.33c-0.01,13.87-0.03,27.74,0.03,41.61c-0.04,1.52,0.01,3.16-0.94,4.47
		c-2.35,3.82-5.04,7.42-7.42,11.23c16.72-0.03,33.44,0.1,50.16-0.07c-2.56-3.75-5.86-6.97-8.24-10.84
		c-0.87-4.2-0.16-8.56-0.35-12.81c-0.31-11.18-0.18-22.37-0.21-33.55C751.41,685.24,740.4,685.33,729.39,685.33 M793.37,685.32
		c-0.02,13.22-0.03,26.44-0.02,39.66c-0.3,2.6,2.1,4.18,3.53,5.99c3.58,3.72,6.54,8.04,10.37,11.51c10,0.39,20.05,0.11,30.07,0.1
		c-3.16-4.05-6.69-7.79-10.05-11.67c0-12-0.06-24.01,0.04-36.01c-0.08-1.61,0.13-3.29-0.43-4.81c-2.78-1.87-5.68-3.82-8.93-4.67
		C809.76,685.13,801.56,685.4,793.37,685.32z"/>
	<path class="st0" d="M1196.98,607.24c32.69-0.2,65.38-0.03,98.07-0.09c5.16,0.08,10.34-0.26,15.49,0.34
		c-16.65,5.69-33.14,11.87-49.97,17.03c-0.7,1.03-1.4,2.07-2.08,3.12c0.03,34.35-0.01,68.7,0.02,103.05
		c4.76-0.06,9.53,0.03,14.3-0.09c8.52-13.28,17.27-26.4,25.83-39.66c0.27,19.54,0.03,39.09,0.12,58.64
		c-33.89-0.07-67.79,0.16-101.67-0.11c4.53-6.9,9.36-13.65,13.59-20.73c0.34-28.6,0.04-57.23,0.14-85.85
		c-0.12-4.92,0.24-9.87-0.15-14.78C1206.47,620.93,1200.88,614.6,1196.98,607.24 M1217.99,685.28c-0.36,13.87-0.11,27.76-0.12,41.64
		c0.66,6.32-5.07,10.52-7.7,15.69c27.25,0.08,54.51,0.02,81.77,0.04c0.2-9.35,0.34-18.71-0.1-28.05
		c-5.38,7.42-9.91,15.43-15.25,22.86c-8.22,1.15-16.7,0.33-25.01,0.39c-0.11-17.51-0.02-35.01-0.04-52.52
		C1240.36,685.27,1229.17,685.35,1217.99,685.28z"/>
	<path class="st0" d="M855.75,617.17c23.24-0.18,46.49-0.08,69.73-0.04c-3.86,5.58-7.46,11.34-11.27,16.96
		c-0.85,1.06-1.12,2.41-1.04,3.75c0.02,30.36,0,60.72,0.01,91.08c-0.1,1.27,0.27,2.51,1.03,3.55c3.74,5.69,7.51,11.37,11.24,17.08
		c-23.22,0.03-46.44,0.13-69.65-0.05c4.28-6.27,8.55-12.56,12.64-18.94c0.53-18.18,0.07-36.43,0.22-54.63
		c-0.1-13.23,0.2-26.47-0.14-39.68C864.49,629.75,859.62,623.78,855.75,617.17 M875.62,685.5c0.05,15.43,0.18,30.87-0.03,46.29
		c-1.31,4.02-4.57,7.11-6.55,10.82c14.41,0.05,28.83,0.09,43.24-0.02c-1.75-3.16-4.07-5.98-5.76-9.17
		c-0.74-3.45-0.24-7.02-0.35-10.52c-0.09-12.53,0.19-25.08-0.14-37.61C895.9,685.45,885.75,685.06,875.62,685.5z"/>
	<path class="st0" d="M927.91,617.29c19.05-0.22,38.12-0.23,57.17,0c2.06,10.62,4.51,21.17,6.92,31.72
		c3.64,16.59,7.23,33.19,11.05,49.73c2.75-14,6.1-27.88,9.1-41.82c1.9-8.36,3.61-16.75,5.52-25.1c-4.56-4.67-8.56-9.85-13.12-14.53
		c20.11-0.3,40.24-0.09,60.35-0.1c-6.87,34.23-14.61,68.3-21.7,102.49c-0.84,3.32-1.26,6.77-2.4,10.01
		c-5.62,6.78-11.88,13.03-17.62,19.73c-13.71-0.03-27.42,0.04-41.13-0.04c-4.98-5.87-10.1-11.61-15.12-17.45
		c-2.14-2.02-2.19-5.11-2.82-7.78c-1.18-6.2-2.88-12.28-3.94-18.49l-0.35-0.6c-4.68-22.62-9.64-45.21-14.7-67.75
		C939.82,630.28,933.06,624.44,927.91,617.29 M963.04,685.3c2.24,12.6,5.49,25,7.92,37.56c0.38,2.79,1.78,5.28,3.74,7.29
		c3.39,3.63,6.44,7.59,9.86,11.21c1.08,1.29,2.92,0.82,4.41,0.97c10.33-0.14,20.67,0.02,31.01-0.09
		c4.82-5.31,9.86-10.45,14.33-16.03c3.54-13.41,5.73-27.17,9.05-40.65c-10.04-0.58-20.11-0.09-30.16-0.25
		c-2.61,10.16-4.45,20.5-6.93,30.7c-1.19,4.66-1.64,9.52-3.37,14.05c-3.71-14.84-6.68-29.86-10.13-44.76
		C982.86,685.31,972.95,685.32,963.04,685.3z"/>
	<path class="st0" d="M1081.49,637.04c-3.23-7.23-9.14-13.14-12.42-20.41c33.12-0.02,66.24-0.09,99.36,0.03
		c3.82,4.1,6.42,9.32,9.82,13.83c1.36,2.31,3.76,4.39,3.5,7.31c0.03,30.42-0.1,60.86,0.06,91.28c3.61,7.11,8.34,13.71,12.56,20.51
		c-18.62,0.18-37.24,0.02-55.86,0.09c0.02-22.49-0.1-44.97,0.06-67.46c-4.59-1.39-9.32,0.22-13.99-0.09
		c-0.19,22.51-0.02,45.02-0.08,67.53c-18.5-0.07-37,0.18-55.49-0.12c4.01-5.97,7.86-12.04,11.75-18.08
		c1.01-1.31,0.75-3.02,0.82-4.54C1081.48,696.96,1081.66,667,1081.49,637.04 M1124.52,632.49c-0.05,11.03,0,22.05-0.02,33.08
		c3.85,0.03,7.74-0.19,11.57,0.52c0.57-0.16,1.72-0.49,2.3-0.65c-0.22-10.95,0.3-21.89,0.09-32.84
		C1133.81,632.43,1129.17,632.51,1124.52,632.49 M1145.51,685.32c0,19.1,0.01,38.2,0,57.29c11.93,0.04,23.86,0.1,35.8-0.03
		c-2.07-4.96-7.16-8.87-6.59-14.66c0.05-14.2,0.07-28.4,0-42.6C1164.98,685.31,1155.24,685.3,1145.51,685.32 M1088.55,685.34
		c-0.15,15.49,0.12,30.98-0.12,46.46c-1.33,3.97-4.45,7.1-6.34,10.83c11.84,0.02,23.69,0.04,35.53-0.01
		c-0.14-19.09,0.26-38.19-0.21-57.27C1107.79,685.28,1098.17,685.29,1088.55,685.34z"/>
</g>
<g id="_x23_260d3aff">
	<path class="st1" d="M850.96,84.71c20.1-5.7,41.19-8.47,62.05-6.58c11.1,0.26,22.07,2.08,33.03,3.67
		c44.97,7.82,88.59,22.99,129.13,43.9c5.34,2.5,10.43,5.5,15.88,7.76c4.98,0.81,10.01-1.52,14.95-0.78
		c64.84,32.6,129.75,65.08,194.59,97.67c5.48,2.6,10.78,5.61,16.38,7.97c-0.65,2.01-2.35,3.36-3.71,4.88
		c-12.44,12.88-24.66,25.95-37.11,38.81c-29.45,30.53-44.75,71.85-52.03,112.99c-5.49,29.63-6.81,59.86-6.21,89.94
		c0.73,18.54,1.72,37.1,4.3,55.49c1.7,13.86,4.59,27.52,7.31,41.2c68.81-0.05,137.61,0.02,206.42-0.04
		c-0.13,0.33-0.4,0.99-0.53,1.32c-37.08,15.16-73.92,30.9-110.98,46.08c-0.09,48.57-0.13,97.14,0.02,145.71
		c-9.44,1.01-19,0.17-28.49,0.44c-89.64,0.18-179.28,0.13-268.92,0.16c-16.31-1.26-32.71-0.35-49.06-0.65
		c-14.3,0.94-28.65,0.32-42.98,0.49c-91.65-0.01-183.29,0.28-274.95,0.11c11.19-16.9,22.52-33.7,33.78-50.55
		c1.31-2.1,3.32-4.09,2.93-6.78c-0.19-18.86,0.29-37.76-0.24-56.59c-30.02-17.54-59.95-35.26-90.09-52.61
		c0.03-0.45,0.09-1.35,0.12-1.8c-19.98-7.9-39.65-16.63-59.65-24.52c16.68-0.54,33.37-0.09,50.06-0.23
		c57.33-0.03,114.67,0.06,172.01-0.05c-24.02-21.34-46.42-44.51-67.42-68.81c-6.34-7.38-12.28-15.08-18.32-22.7
		c-1.72-1.83-0.6-4.44-0.57-6.63c0.7-4.29,0.78-8.64,1.48-12.92c1.74-18.37,5.76-36.5,11.39-54.05c-14.92,0.4-29.68,2.86-44.43,4.95
		c-24.27,3.77-48.3,9.05-72,15.53c-31.64,9.57-63.32,19-94.96,28.58c-16.01,4.76-31.99,9.6-47.99,14.4
		c30.87-38.22,62-76.24,92.95-114.39c16.69-20.56,34.26-40.39,52.45-59.62c12.48-12.93,25.3-25.51,38.1-38.11
		c-7.83,1.93-15.82,3.11-23.71,4.8c-6.09,1.15-12.1,2.74-18.24,3.54c-0.36,0.25-1.08,0.75-1.44,1c0.23-0.82,0.63-1.54,1.19-2.15
		c41.85-35.23,83.62-70.55,125.45-105.8c22.65-19.57,47.24-36.84,73.04-51.99C799.63,104.06,824.56,92.18,850.96,84.71
		 M888.83,123.54c-15.17,1.4-29.98,5.64-44.15,11.13c-38.14,15-72.52,38-104.67,63.1c6.3-0.4,12.62-0.53,18.92-1.07
		c8.78-0.47,17.54,0.65,26.32,0.93c-38.57,23.62-74.72,51.07-108.74,80.84c-38.73,34.01-74.89,71.03-107.49,110.97l-0.37,0.09
		c-1.24,1.48-2.44,3-3.6,4.54c40.88-11.12,82.67-19.19,124.93-22.54c6.76-0.33,13.53-0.61,20.29-1.11c8.8,0.03,17.6-0.12,26.4,0.07
		c30.18-27.77,65.58-50.22,104.36-63.85c4.62-0.61,8.89-2.85,13.5-3.64c-3.47,2.1-7.21,3.67-10.76,5.63
		c-31.62,17.18-59.39,41.66-79.69,71.44c-19.05,27.81-30.75,60.43-34.57,93.87c-0.39,2.05,1.46,3.43,2.54,4.9
		c35.04,41.21,74.78,78.34,117.49,111.5c1.19,1.18,2.9,1.14,4.46,1.15c23.07-0.07,46.14,0.01,69.21-0.04
		c9.95,0,19.91,0.11,29.86-0.07c-46.62-39.95-90.72-83.93-123.74-136.04c-0.86-2.39-2.55-4.46-2.93-7.02
		c-3.09-15.98-2.59-32.72,1.91-48.38c4.9-17.94,15.41-34.16,29.27-46.48c9.88-8.75,21.1-15.81,32.49-22.42
		c19.81-11.29,40.65-20.66,61.84-29.06c39.18-15.32,79.83-26.89,121.21-34.46c40.17-6.94,81.32-10.64,121.98-6.19
		c-17.94,28.3-29.87,60-38.62,92.22c-13.01,49.2-17.28,100.51-14.55,151.26c0.84,15.1,2.48,30.14,4.06,45.18
		c-17.16,13.71-34.33,27.4-51.4,41.21c17.2,0.27,34.41,0.01,51.62,0.14c11.2-8.8,22.31-17.73,33.55-26.48
		c-0.24-2.36-0.56-4.69-0.99-7c-1.62-9.9-2.86-19.85-3.81-29.83c-3.63-40.32-3.73-81.06,1.39-121.26
		c5.27-39.32,15.69-78.46,35.14-113.26c7.61-13.73,16.97-26.38,27.14-38.3l0.37-0.09c1-1.07,1.99-2.16,3-3.25
		c-39.76-19.86-79.43-39.92-119.2-59.77c-8.66-4.21-17.07-9.03-25.91-12.83c-8.02,0.57-15.91,2.44-23.85,3.66
		c-82.72,16.39-162.22,47.08-236.29,87.13c1.54-1.65,3.13-3.28,4.66-4.95l0.06-0.39c29.52-27.91,64.43-49.49,100.66-67.56
		c30.82-15.21,62.99-27.58,95.75-37.93c-0.01-0.26-0.04-0.8-0.05-1.07c-16.68-8.1-34.22-14.31-51.83-20.08l-0.28,0.19
		c-13.18-4.64-26.88-7.68-40.55-10.5C926.6,124.52,907.68,122.08,888.83,123.54 M908.58,357.86c10.74,0.51,21.57,4.38,29.01,12.38
		c5.91,5.37,9.08,12.87,14.09,18.96c4.97,6.26,11.43,11.81,19.38,13.7c11.78,2.82,23.38-3.4,31.94-11.05
		c3.68-3.75,8.93-4.96,13.92-5.86c-5.18-0.96-9.28-4.49-13.48-7.41c-13.27-9.77-26.85-20.58-43.48-23.68
		C942.87,352.2,925.31,353.71,908.58,357.86 M1069.02,393.9c3.85,1.65,7.98,2.6,11.8,4.34c5.1,3.4,8.57,8.67,13.39,12.43
		c2.52,2.12,5.75,4.08,9.19,3.36c6.29-1.32,12.49-5.71,14.28-12.12c1.02-4.29,4.64-7.11,7.71-9.97c0.08-0.28,0.24-0.84,0.32-1.12
		c-5.4-1.93-10.91-4-16.75-3.68C1095.3,386.47,1082.02,390.22,1069.02,393.9 M674.58,607.62c15.2,6.13,30.91,10.92,46.36,16.39
		c1.29,0.47,2.67,0.63,4.05,0.63c20.43-0.02,40.87-0.02,61.31,0c0.16,15.01,0.03,30.03,0.07,45.05c-5.63,0.03-11.26-0.05-16.88-0.08
		c0-12.32,0.05-24.63-0.03-36.95c-12.5,0.14-25.02-0.32-37.51,0.36c-11.03,0.17-22.08-0.37-33.09,0.28
		c7.9,4.31,15.54,9.08,23.38,13.51c0.04,27.04,0.01,54.09,0.02,81.14c-4.84,7.21-9.55,14.52-14.53,21.63
		c26.1,0.13,52.21,0.19,78.31-0.03c-5.56-6.79-10.9-13.75-16.53-20.48c-0.02-12.97,0-25.94-0.01-38.91
		c5.56,0.01,11.12-0.01,16.69,0.02c-0.01,12.25,0.01,24.5-0.02,36.76c0.04,1.29-0.09,2.8,1.02,3.75
		c5.54,6.25,11.07,12.51,16.48,18.88c16.53-0.02,33.06,0.13,49.6-0.08c-6.03-6.62-11.94-13.36-17.87-20.06
		c-1.9-1.67-0.96-4.42-1.18-6.6c-0.18-12.31,0.44-24.77-0.31-36.97c-4.74-3.11-9.92-5.51-14.87-8.28c4.68-3.02,9.71-5.42,14.54-8.16
		c0.43-10.49,0.03-21.01,0.19-31.51c-0.14-2.54,0.52-5.38-1.06-7.59c-4.51-7.57-8.73-15.31-13.28-22.85
		C771.14,607.63,722.86,607.33,674.58,607.62 M1196.98,607.24c3.9,7.36,9.49,13.69,13.69,20.87c0.39,4.91,0.03,9.86,0.15,14.78
		c-0.1,28.62,0.2,57.25-0.14,85.85c-4.23,7.08-9.06,13.83-13.59,20.73c33.88,0.27,67.78,0.04,101.67,0.11
		c-0.09-19.55,0.15-39.1-0.12-58.64c-8.56,13.26-17.31,26.38-25.83,39.66c-4.77,0.12-9.54,0.03-14.3,0.09
		c-0.03-34.35,0.01-68.7-0.02-103.05c0.68-1.05,1.38-2.09,2.08-3.12c16.83-5.16,33.32-11.34,49.97-17.03
		c-5.15-0.6-10.33-0.26-15.49-0.34C1262.36,607.21,1229.67,607.04,1196.98,607.24 M855.75,617.17c3.87,6.61,8.74,12.58,12.77,19.08
		c0.34,13.21,0.04,26.45,0.14,39.68c-0.15,18.2,0.31,36.45-0.22,54.63c-4.09,6.38-8.36,12.67-12.64,18.94
		c23.21,0.18,46.43,0.08,69.65,0.05c-3.73-5.71-7.5-11.39-11.24-17.08c-0.76-1.04-1.13-2.28-1.03-3.55
		c-0.01-30.36,0.01-60.72-0.01-91.08c-0.08-1.34,0.19-2.69,1.04-3.75c3.81-5.62,7.41-11.38,11.27-16.96
		C902.24,617.09,878.99,616.99,855.75,617.17 M927.91,617.29c5.15,7.15,11.91,12.99,17.21,20.02c5.06,22.54,10.02,45.13,14.7,67.75
		l0.35,0.6c1.06,6.21,2.76,12.29,3.94,18.49c0.63,2.67,0.68,5.76,2.82,7.78c5.02,5.84,10.14,11.58,15.12,17.45
		c13.71,0.08,27.42,0.01,41.13,0.04c5.74-6.7,12-12.95,17.62-19.73c1.14-3.24,1.56-6.69,2.4-10.01
		c7.09-34.19,14.83-68.26,21.7-102.49c-20.11,0.01-40.24-0.2-60.35,0.1c4.56,4.68,8.56,9.86,13.12,14.53
		c-1.91,8.35-3.62,16.74-5.52,25.1c-6.91-2.98-14.62-4.79-20.45-9.73c0.08,0.46,0.23,1.36,0.3,1.82
		c-2.41-10.55-4.86-21.1-6.92-31.72C966.03,617.06,946.96,617.07,927.91,617.29 M1081.49,637.04c0.17,29.96-0.01,59.92,0.09,89.88
		c-0.07,1.52,0.19,3.23-0.82,4.54c-3.89,6.04-7.74,12.11-11.75,18.08c18.49,0.3,36.99,0.05,55.49,0.12
		c0.06-22.51-0.11-45.02,0.08-67.53c4.67,0.31,9.4-1.3,13.99,0.09c-0.16,22.49-0.04,44.97-0.06,67.46
		c18.62-0.07,37.24,0.09,55.86-0.09c-4.22-6.8-8.95-13.4-12.56-20.51c-0.16-30.42-0.03-60.86-0.06-91.28c0.26-2.92-2.14-5-3.5-7.31
		c-3.4-4.51-6-9.73-9.82-13.83c-33.12-0.12-66.24-0.05-99.36-0.03C1072.35,623.9,1078.26,629.81,1081.49,637.04z"/>
	<path class="st1" d="M1124.52,632.49c4.65,0.02,9.29-0.06,13.94,0.11c0.21,10.95-0.31,21.89-0.09,32.84
		c-0.58,0.16-1.73,0.49-2.3,0.65c-3.83-0.71-7.72-0.49-11.57-0.52C1124.52,654.54,1124.47,643.52,1124.52,632.49z"/>
</g>
<g id="_x23_814198ff">
	<path class="st2" d="M888.83,123.54c18.85-1.46,37.77,0.98,56.34,4.23c13.67,2.82,27.37,5.86,40.55,10.5
		c-6.92,4.75-14.61,8.2-21.74,12.6c-46.55,28.06-88.7,64.26-120.59,108.46c-1.24,1.54-1.76,3.45-1.92,5.39l-0.06,0.39
		c-1.53,1.67-3.12,3.3-4.66,4.95c74.07-40.05,153.57-70.74,236.29-87.13c7.94-1.22,15.83-3.09,23.85-3.66
		c8.84,3.8,17.25,8.62,25.91,12.83c39.77,19.85,79.44,39.91,119.2,59.77c-1.01,1.09-2,2.18-3,3.25l-0.37,0.09
		c-5.57,0.85-9.28,5.52-13.48,8.81c-8.13,6.54-14.5,14.87-21.05,22.9c-18.34,24.04-30.95,52.05-38.93,81.1
		c-2.48,10.53-5.38,20.99-6.56,31.77c-0.8,7.41-2.22,14.75-2.71,22.19c-2.06,30.01-0.27,60.37,6.43,89.74
		c3.12,16.54,9.02,32.37,15.12,48.01c0.33-0.47,0.99-1.4,1.32-1.87c0.43,2.31,0.75,4.64,0.99,7c-11.24,8.75-22.35,17.68-33.55,26.48
		c-17.21-0.13-34.42,0.13-51.62-0.14c17.07-13.81,34.24-27.5,51.4-41.21c-1.58-15.04-3.22-30.08-4.06-45.18
		c-2.73-50.75,1.54-102.06,14.55-151.26c8.75-32.22,20.68-63.92,38.62-92.22c-40.66-4.45-81.81-0.75-121.98,6.19
		c-41.38,7.57-82.03,19.14-121.21,34.46c-21.19,8.4-42.03,17.77-61.84,29.06c-11.39,6.61-22.61,13.67-32.49,22.42
		c-13.86,12.32-24.37,28.54-29.27,46.48c-4.5,15.66-5,32.4-1.91,48.38c0.38,2.56,2.07,4.63,2.93,7.02
		c0.21,6.3,3.24,11.92,5.67,17.58c7.77,17.96,18.14,34.67,29.24,50.74c17.21,24.59,37.42,46.95,58.97,67.79
		c-23.07,0.05-46.14-0.03-69.21,0.04c-1.56-0.01-3.27,0.03-4.46-1.15c-42.71-33.16-82.45-70.29-117.49-111.5
		c-1.08-1.47-2.93-2.85-2.54-4.9c3.82-33.44,15.52-66.06,34.57-93.87c20.3-29.78,48.07-54.26,79.69-71.44
		c3.55-1.96,7.29-3.53,10.76-5.63c-4.61,0.79-8.88,3.03-13.5,3.64c-6.8-0.67-13.17,2.15-19.66,3.63c-20.3,5.4-40.41,11.8-59.61,20.4
		c-21.53,9.6-42.69,21.57-58.77,39.11c2.42,0.26,4.84,0.53,7.28,0.64c-6.76,0.5-13.53,0.78-20.29,1.11
		c-42.26,3.35-84.05,11.42-124.93,22.54c1.16-1.54,2.36-3.06,3.6-4.54l0.37-0.09c1.87-0.39,3.74-1.01,5.21-2.29
		c54.52-45.5,107.34-93.15,164.16-135.82c19.28-14.08,38.54-28.44,59.89-39.28c12.06-6.59,24.35-12.74,36.39-19.37
		c4.55-2.43,9.29-4.53,13.56-7.46c-19.06-2.56-38.32-3.44-57.42-5.69c8.91-7.57,18.92-13.71,28.59-20.25
		c22.78-14.45,46.91-27.06,72.73-35.1C891.3,124.02,889.65,123.7,888.83,123.54z"/>
</g>
<g id="_x23_9257a3ff">
	<path class="st3" d="M844.68,134.67c14.17-5.49,28.98-9.73,44.15-11.13c0.82,0.16,2.47,0.48,3.3,0.64
		c-25.82,8.04-49.95,20.65-72.73,35.1c-9.67,6.54-19.68,12.68-28.59,20.25c19.1,2.25,38.36,3.13,57.42,5.69
		c-4.27,2.93-9.01,5.03-13.56,7.46c-12.04,6.63-24.33,12.78-36.39,19.37c-21.35,10.84-40.61,25.2-59.89,39.28
		C681.57,294,628.75,341.65,574.23,387.15c-1.47,1.28-3.34,1.9-5.21,2.29c32.6-39.94,68.76-76.96,107.49-110.97
		c34.02-29.77,70.17-57.22,108.74-80.84c-8.78-0.28-17.54-1.4-26.32-0.93c-6.3,0.54-12.62,0.67-18.92,1.07
		C772.16,172.67,806.54,149.67,844.68,134.67z"/>
	<path class="st3" d="M963.98,150.87c7.13-4.4,14.82-7.85,21.74-12.6l0.28-0.19c17.61,5.77,35.15,11.98,51.83,20.08
		c0.01,0.27,0.04,0.81,0.05,1.07c-32.76,10.35-64.93,22.72-95.75,37.93c-36.23,18.07-71.14,39.65-100.66,67.56
		c0.16-1.94,0.68-3.85,1.92-5.39C875.28,215.13,917.43,178.93,963.98,150.87z"/>
	<path class="st3" d="M1225.15,264.02c4.2-3.29,7.91-7.96,13.48-8.81c-10.17,11.92-19.53,24.57-27.14,38.3
		c-19.45,34.8-29.87,73.94-35.14,113.26c-5.12,40.2-5.02,80.94-1.39,121.26c0.95,9.98,2.19,19.93,3.81,29.83
		c-0.33,0.47-0.99,1.4-1.32,1.87c-6.1-15.64-12-31.47-15.12-48.01c-6.7-29.37-8.49-59.73-6.43-89.74
		c0.49-7.44,1.91-14.78,2.71-22.19c1.18-10.78,4.08-21.24,6.56-31.77c7.98-29.05,20.59-57.06,38.93-81.1
		C1210.65,278.89,1217.02,270.56,1225.15,264.02z"/>
	<path class="st3" d="M821.37,310.27c6.49-1.48,12.86-4.3,19.66-3.63c-38.78,13.63-74.18,36.08-104.36,63.85
		c-8.8-0.19-17.6-0.04-26.4-0.07c-2.44-0.11-4.86-0.38-7.28-0.64c16.08-17.54,37.24-29.51,58.77-39.11
		C780.96,322.07,801.07,315.67,821.37,310.27z"/>
	<path class="st3" d="M835,472.92c-2.43-5.66-5.46-11.28-5.67-17.58c33.02,52.11,77.12,96.09,123.74,136.04
		c-9.95,0.18-19.91,0.07-29.86,0.07c-21.55-20.84-41.76-43.2-58.97-67.79C853.14,507.59,842.77,490.88,835,472.92z"/>
</g>
<g id="_x23_33193aff">
	<path class="st4" d="M991.7,647.19c5.83,4.94,13.54,6.75,20.45,9.73c-3,13.94-6.35,27.82-9.1,41.82
		c-3.82-16.54-7.41-33.14-11.05-49.73C991.93,648.55,991.78,647.65,991.7,647.19z"/>
</g>
<g id="_x23_c9c9caff">
	<path class="st5" d="M729.39,685.33c11.01,0,22.02-0.09,33.03,0.04c0.03,11.18-0.1,22.37,0.21,33.55
		c0.19,4.25-0.52,8.61,0.35,12.81c2.38,3.87,5.68,7.09,8.24,10.84c-16.72,0.17-33.44,0.04-50.16,0.07
		c2.38-3.81,5.07-7.41,7.42-11.23c0.95-1.31,0.9-2.95,0.94-4.47C729.36,713.07,729.38,699.2,729.39,685.33z"/>
	<path class="st5" d="M793.37,685.32c8.19,0.08,16.39-0.19,24.58,0.1c3.25,0.85,6.15,2.8,8.93,4.67c0.56,1.52,0.35,3.2,0.43,4.81
		c-0.1,12-0.04,24.01-0.04,36.01c3.36,3.88,6.89,7.62,10.05,11.67c-10.02,0.01-20.07,0.29-30.07-0.1
		c-3.83-3.47-6.79-7.79-10.37-11.51c-1.43-1.81-3.83-3.39-3.53-5.99C793.34,711.76,793.35,698.54,793.37,685.32z"/>
	<path class="st5" d="M875.62,685.5c10.13-0.44,20.28-0.05,30.41-0.21c0.33,12.53,0.05,25.08,0.14,37.61
		c0.11,3.5-0.39,7.07,0.35,10.52c1.69,3.19,4.01,6.01,5.76,9.17c-14.41,0.11-28.83,0.07-43.24,0.02c1.98-3.71,5.24-6.8,6.55-10.82
		C875.8,716.37,875.67,700.93,875.62,685.5z"/>
	<path class="st5" d="M963.04,685.3c9.91,0.02,19.82,0.01,29.73,0c3.45,14.9,6.42,29.92,10.13,44.76c1.73-4.53,2.18-9.39,3.37-14.05
		c2.48-10.2,4.32-20.54,6.93-30.7c10.05,0.16,20.12-0.33,30.16,0.25c-3.32,13.48-5.51,27.24-9.05,40.65
		c-4.47,5.58-9.51,10.72-14.33,16.03c-10.34,0.11-20.68-0.05-31.01,0.09c-1.49-0.15-3.33,0.32-4.41-0.97
		c-3.42-3.62-6.47-7.58-9.86-11.21c-1.96-2.01-3.36-4.5-3.74-7.29C968.53,710.3,965.28,697.9,963.04,685.3z"/>
	<path class="st5" d="M1145.51,685.32c9.73-0.02,19.47-0.01,29.21,0c0.07,14.2,0.05,28.4,0,42.6c-0.57,5.79,4.52,9.7,6.59,14.66
		c-11.94,0.13-23.87,0.07-35.8,0.03C1145.52,723.52,1145.51,704.42,1145.51,685.32z"/>
	<path class="st5" d="M1217.99,685.28c11.18,0.07,22.37-0.01,33.55,0.05c0.02,17.51-0.07,35.01,0.04,52.52
		c8.31-0.06,16.79,0.76,25.01-0.39c5.34-7.43,9.87-15.44,15.25-22.86c0.44,9.34,0.3,18.7,0.1,28.05
		c-27.26-0.02-54.52,0.04-81.77-0.04c2.63-5.17,8.36-9.37,7.7-15.69C1217.88,713.04,1217.63,699.15,1217.99,685.28z"/>
	<path class="st5" d="M1088.55,685.34c9.62-0.05,19.24-0.06,28.86,0.01c0.47,19.08,0.07,38.18,0.21,57.27
		c-11.84,0.05-23.69,0.03-35.53,0.01c1.89-3.73,5.01-6.86,6.34-10.83C1088.67,716.32,1088.4,700.83,1088.55,685.34z"/>
</g>
</svg>
