<?xml version="1.0" encoding="utf-8"?>
<!-- Generator: Adobe Illustrator 19.0.0, SVG Export Plug-In . SVG Version: 6.00 Build 0)  -->
<svg version="1.1" id="Layer_1" xmlns="http://www.w3.org/2000/svg" xmlns:xlink="http://www.w3.org/1999/xlink" x="0px" y="0px"
	 viewBox="-39.5 300.61 485.49 241.61" style="enable-background:new -39.5 300.61 485.49 241.61;" xml:space="preserve">
<path d="M203.43,305.32c12.97-2.96,26.3-4.01,39.57-4.71c30.64,0.83,62.62,7.77,87.1,27.18c-6.46-1.02-12.84-2.52-19.34-3.27
	c-20.51-2.45-41.38-1.45-61.64,2.48c-13.55,2.72-27.01,6.45-39.47,12.53c-18.11,8.71-34.85,20.23-49.96,33.44
	c4.74-0.93,9.4-2.21,14.11-3.28c22.02-4.85,44.67-6.44,67.18-5.89c40.82,0.96,81.65,7.98,120.02,22.09
	c25.2,9.37,49.52,21.68,70.82,38.2c5.01,3.91,9.86,8.05,14.17,12.74c-18.65-1.54-37.4-4.16-56.13-2.07
	c-10.96,1.27-21.82,4.14-31.6,9.32c-13.83,7.14-25.3,17.93-36.19,28.88c-20.48,20.66-40.65,42.76-67.07,55.94
	c-17.51,9.23-37.38,12.89-57.02,13.32c-18.23-0.77-36.66-4.58-52.62-13.73c-8.64-4.95-16.77-11.13-22.78-19.15
	c29.2,11.59,62.77,10.9,91.72-1.11c14.04-5.96,26.59-14.95,37.87-25.14c21.09-18.89,39.24-41.24,63.05-56.95
	c5.23-3.54,10.92-6.31,16.39-9.46c-9.36-1.38-18.84-1.45-28.27-2.09c-16.63-0.57-33.29-0.9-49.94-0.37
	c-0.2,6.96-0.69,14.08-3.47,20.57c-6.12,15.81-21.17,27.74-38.03,29.86c-16.68,2.48-34.28-4.79-44.44-18.21
	c-4.4-5.43-6.9-12.04-8.9-18.64c-9.94,2.58-19.49,6.6-28.69,11.13c2.21,15.92,13.33,29.08,26.32,37.79
	c10.15,6.98,21.98,11,34.01,13.26c-5.8,2.25-12.06,2.71-18.2,3.18c-21.87,1.33-44.31-5.11-61.66-18.62
	c-7.37-5.54-13.27-12.7-18.54-20.2c-21.45,6.72-44.48,8.4-66.64,4.42c-19.5-3.41-38.98-10.73-53.63-24.42
	c-4.42-4.07-8.13-8.87-11.03-14.13c20.34,4.15,41.65,7.72,62.14,2.4c23.1-5.73,41.82-21.43,59.17-36.93
	c16.68-15.01,32.75-30.75,50.58-44.41C153.49,324.96,177.25,311.34,203.43,305.32 M178.82,422.06c1.95,9.49,8.92,17.85,18.24,20.78
	c11,3.76,24.11-0.67,30.53-10.36c3.6-5.04,4.92-11.3,4.66-17.41C214.31,415.92,196.31,417.89,178.82,422.06z"/>
</svg>
