<?xml version="1.0" encoding="utf-8"?>
<!-- Generator: Adobe Illustrator 19.0.0, SVG Export Plug-In . SVG Version: 6.00 Build 0)  -->
<svg version="1.1" id="Layer_1" xmlns="http://www.w3.org/2000/svg" xmlns:xlink="http://www.w3.org/1999/xlink" x="0px" y="0px"
	 viewBox="246.8 215.8 846.2 278.1" style="enable-background:new 246.8 215.8 846.2 278.1;" xml:space="preserve">
<style type="text/css">
	.st0{fill:url(#SVGID_1_);}
	.st1{fill:url(#SVGID_2_);}
	.st2{fill:url(#SVGID_3_);}
</style>
<g id="_x23_b8b8b8ff">
</g>
<g id="_x23_c00217ff">
	<linearGradient id="SVGID_1_" gradientUnits="userSpaceOnUse" x1="669.9037" y1="215.8299" x2="669.9037" y2="492.91">
		<stop  offset="0" style="stop-color:#E70A22"/>
		<stop  offset="1" style="stop-color:#500111"/>
	</linearGradient>
	<path class="st0" d="M302.3,216.4c8.2-1,16.4-0.4,24.7-0.5c255.3,0,510.7,0,766,0c0,23,0.1,45.9,0,68.9
		c-245.3,0.1-490.6-0.1-735.9,0.1c-6.3,2.9-15.2,4.5-16.5,12.6c-4.5,12.5,7.9,22.8,19.4,23.3c53.3,0.1,106.6,0.1,160,0.1
		c18.3-1.2,36.6,6.8,49.7,19.3c11.1,11.3,14.9,27.3,17.6,42.4c3.2,22.4,2.5,45.6-4.5,67.2c-2.6,5.9-4.4,12.2-8.8,17.1
		c-12.1,18.2-35.1,25.6-56,26c-75.3-0.1-150.7,0-226,0c-12.8-1-22.4-10.3-30.7-19.3c-2.8-5.8-6.4-11.4-6.9-18
		c-0.8-10.2-0.3-20.4-0.4-30.6c71.7-0.1,143.3,0.1,215-0.1c9.6-0.9,20-4,25.4-12.6c2.8-7.5-0.9-15.5-7.7-19
		c-6.6-3.6-14.4-3.3-21.7-4.2c-48.3-0.3-96.7,0.1-145-0.2c-19.5-0.4-39.6-6.2-53.8-20.1c-12-13.1-16.9-30.8-18.6-48.1
		c-0.7-16.9-2.1-34.2,2.3-50.7c2.9-15.5,10-30.6,21.9-41.2C280.6,221.9,291.2,217.5,302.3,216.4z"/>
</g>
<g id="_x23_050505ff">
	<linearGradient id="SVGID_2_" gradientUnits="userSpaceOnUse" x1="695.5" y1="305.88" x2="695.5" y2="493.9">
		<stop  offset="0" style="stop-color:#4C494A"/>
		<stop  offset="1" style="stop-color:#080809"/>
	</linearGradient>
	<path class="st1" d="M648.1,305.9c31.6,0,63.3-0.1,94.9,0c0,62.6,0.1,125.3,0,187.9c-31.6,0.1-63.3,0.1-94.9,0
		C648,431.2,647.9,368.6,648.1,305.9z"/>
	<linearGradient id="SVGID_3_" gradientUnits="userSpaceOnUse" x1="956.0026" y1="305.8758" x2="956.0026" y2="493.905">
		<stop  offset="0" style="stop-color:#4C494A"/>
		<stop  offset="1" style="stop-color:#080809"/>
	</linearGradient>
	<path class="st2" d="M819.1,305.9c91.3,0,182.6-0.1,273.9,0c0,23,0.1,45.9,0,68.9c-60,0.1-119.9,0-179.9,0.1
		c-0.2,39.6,0.1,79.3-0.1,118.9c-31.3,0-62.6,0.1-93.9,0C819,431.2,818.9,368.6,819.1,305.9z"/>
</g>
</svg>
