<?xml version="1.0" encoding="utf-8"?>
<!-- Generator: Adobe Illustrator 19.1.0, SVG Export Plug-In . SVG Version: 6.00 Build 0)  -->
<svg version="1.1" id="Layer_1" xmlns="http://www.w3.org/2000/svg" xmlns:xlink="http://www.w3.org/1999/xlink" x="0px" y="0px"
	 viewBox="544 314.4 212.6 212.6" style="enable-background:new 544 314.4 212.6 212.6;" xml:space="preserve">
<style type="text/css">
	.st0{fill:#CB2026;}
</style>
<g id="_x23_cb2026ff">
	<path class="st0" d="M631.4,388.8c8.8-4,18.7-5.8,28.3-5.3c7.7,0,15.3,0,23,0c-1.3,3.4-3.1,6.8-5.8,9.4c-2.9,3-6.9,4.9-10.8,6.1
		c-3.1,1-6.3,1.6-9.4,2.6c-8.1,2.7-13.6,11.1-13.4,19.6c0,3.9,1.4,7.6,3.7,10.8c2.5,3.4,6.1,6.1,10.2,7.4c3,1,6.2,1.2,9.3,0.7
		c4-0.6,7.8-2.1,11.1-4.5c3-2.1,5.8-4.4,7.9-7.4c-2.9,0-5.7,0-8.6,0c-3.4-0.1-6.8-1.1-9.4-3.3c-3.6-3-5.6-7.7-6.1-12.3
		c18.9,0,37.9,0,56.8,0c-7.2,9.7-14.3,19.3-21.5,29c-1.4,1.9-2.7,3.9-4.5,5.6c-5.4,5.4-12.4,8.9-19.9,10.3
		c-5.8,1.1-11.9,0.8-17.6-0.9c-4-1.1-7.7-2.9-11.2-5.1c-3.6-2.3-7-5.1-9.7-8.5c-2.5-3.1-4.4-6.5-5.6-10.2
		c-1.7-5.3-2.2-10.9-1.6-16.4c0.5-4.3,1.5-8.6,3.1-12.7c-6.1,0.1-12.2,2.1-17,6c-4.9,3.9-8.3,9.5-10.1,15.5
		c-0.1,0.2-0.1,0.4-0.2,0.5c0.2-0.6,0.4-1.3,0.5-1.9c2.1-7.8,5.6-15.3,10.9-21.6C618.5,396.4,624.6,391.8,631.4,388.8z"/>
	<path class="st0" d="M679.7,395.3c3.3-3.1,5.5-7.4,6.4-11.9c8.9,0,17.7,0,26.6,0c2.4,0,4.8-0.1,7.2,0.1c7.8,0.5,15.7,2.9,21.9,7.8
		c3.6,2.8,6.5,6.5,8.5,10.6c3.4,7,4.1,15,3.5,22.7c-0.6,6.8-2.9,13.6-7.2,19c-4.7,5.9-11.4,9.9-18.5,12.1c-4.6,1.4-9.4,2.2-14.2,2.4
		c-11.3,0-22.7,0-34,0c1.1-0.2,2.3-0.2,3.4-0.6c3.1-1,5.8-3,8.2-5.1c4-3.6,7.4-7.7,10.3-12.1c4.3,0,8.7,0,13,0
		c4.7,0.2,9.4-1.3,13.2-4c3.3-2.3,5.8-5.7,7-9.5c1.4-4.7,1.2-9.8-0.4-14.4c-1.3-3.6-3.8-6.8-7.2-8.9c-3.3-2.1-7.3-2.9-11.2-3
		c-6.5,0-13,0-19.5,0c-5-0.1-9.9,0-14.9-0.1c-3.8,0-7.5,0.1-11.3-0.1C673.9,399.6,677.1,397.7,679.7,395.3z"/>
	<path class="st0" d="M590.4,384.1c14.7,0,29.3,0,44,0c0.1,0,0.3,0.1,0.4,0.1c-2.3,0.5-4.4,1.4-6.5,2.5c-7.5,4-13.8,9.7-19.6,15.7
		c-10.6,11.3-19.3,24.4-27,37.9c5.1,0.1,10.3,0,15.4,0c10.2,0,20.4,0,30.6,0c4.4,6.4,10.1,12.1,17.1,15.6c1.6,0.8,3.3,1.5,5.1,1.9
		c-0.3,0-0.7,0.1-1,0.1c-34.4,0-68.7,0-103.1,0c14.8-21.2,29.6-42.5,44.4-63.7c1.1-1.4,1.6-3.2,1.8-5
		C592.2,387.4,591.7,385.5,590.4,384.1z"/>
</g>
</svg>
