<?xml version="1.0" encoding="utf-8"?>
<!-- Generator: Adobe Illustrator 19.0.0, SVG Export Plug-In . SVG Version: 6.00 Build 0)  -->
<svg version="1.1" id="Layer_1" xmlns="http://www.w3.org/2000/svg" xmlns:xlink="http://www.w3.org/1999/xlink" x="0px" y="0px"
	 viewBox="-47.48 238.89 496.662 363.58" style="enable-background:new -47.48 238.89 496.662 363.58;" xml:space="preserve">
<style type="text/css">
	.st0{fill:#00837E;}
	.st1{fill:#00685F;}
	.st2{fill:#FFFFFF;}
	.st3{fill:#CCCCCC;}
</style>
<g id="_x23_00837eff">
	<path class="st0" d="M-10.19,238.89h420.24c-26.89,47-54.23,93.76-81.28,140.67c-2.36,4.68-2.31,10.12-4.18,14.99
		c-0.88-1.12-1.74-2.23-2.59-3.35c-5.37,9.7-11.33,19.07-16.63,28.81c46.88,0.19,93.78,0.04,140.66,0.07
		c0.9,0.02,4.23-0.02,2.8,1.65c-4.24,5.34-9.33,9.98-13.76,15.17c0.05,15.02,0.02,30.03,0.02,45.04c0.22,1.3-0.55,3.1-2.11,2.9
		c-19.96-0.54-39.92-1.26-59.88-1.86c-34.43-0.78-68.86-1.39-103.28-1.96c-23.35,40.47-46.64,80.98-70.01,121.45
		c-23.55-40.49-46.85-81.12-70.5-121.54c-31.77,0.88-63.55,1.23-95.32,2.18c-20.7,0.59-41.39,1.57-62.1,1.77
		c-3.42,0.44-6.86-2.48-6.55-6c0-13.93,0.07-27.86-0.03-41.78c-4.4-5.03-8.92-9.97-12.79-15.42c0.72-1.27,1.88-2.08,3.4-1.79
		c46.11,0,92.21,0.02,138.32-0.01C61.01,362.33,27.71,304.82-5.54,247.29C-7.21,244.55-8.71,241.72-10.19,238.89 M2.93,246.52
		c32.75,57.29,65.98,114.32,98.87,171.54c0.51,1.37,1.75,1.9,3.15,1.65c58.12-0.01,116.23-0.02,174.34,0
		c0.33-11.53-1.8-23.24,0.97-34.62c1.94-9.37,7.86-18,16.42-22.46c4.15-2.16,9.22-0.98,12.79,1.76
		c6.33,4.73,10.26,11.79,13.85,18.66c3.37-19.47-0.53-40.06-10.78-56.96c-3.72,0.16-6.79,2.49-9.87,4.32
		c-1.51-1.71-2.59-3.72-3.58-5.76c-3.51,2.31-7.03,4.61-10.54,6.92c-2.63,1.94-6.29,0.03-8.97,1.81c-3.01,1.9-6.4,3.56-8.34,6.69
		c-2.44,3.62-5.42,6.88-7.6,10.66c-1.14,3.3-1.58,6.8-2.53,10.16c-4.09-5.32-7.33-11.48-8.61-18.1c-0.74-4.13-0.28-9.63,4.26-11.34
		c0.49,4.49,0.98,8.99,2.06,13.38c4.21-4.19,10.25-7.2,11.84-13.35c2.07-1.69,4.4-3.83,7.28-3.57c6.88,0.29,13.33-2.7,19.62-5.14
		c-1-2.41-4.13-4.49-2.92-7.33c2.59-7.89,4.97-15.85,7.68-23.69c-9.55-4.22-19.92-6.43-30.25-7.79
		c-24.88-3.11-50.42,2.96-71.98,15.53c-0.76-6.52-0.31-13.09-0.41-19.63c0.11-6.85-0.33-13.71,0.35-20.54
		c57.83,0.34,115.67,0.02,173.5,0.15c-15.83,27.53-31.73,55-47.58,82.52c1.95,7.02,2.98,14.25,3.2,21.53
		c22.54-38.98,45.06-77.97,67.52-117C265.43,246.48,134.18,246.5,2.93,246.52 M305.96,263.36c15.37,2.92,30.86,5.18,46.28,7.84
		c-5.75,14.39-12.41,28.41-18.15,42.8c10.05-16.26,19.84-32.7,29.8-49.02C344.58,264.37,325.27,263.96,305.96,263.36 M308.37,372.35
		c-8.98,15.85-18.17,31.58-27.26,47.36c5.22-0.03,10.44,0.04,15.67-0.05c6.93-11.98,13.79-24,20.78-35.94
		C314.99,379.57,311.93,375.69,308.37,372.35 M-36.59,425.79c2.09,3.64,5.22,6.52,7.4,10.08c0.3,14.44,0.01,28.9,0.14,43.34
		c81.29-3.51,162.68-4.89,244.05-4.81c71.08,0.15,142.17,1.57,213.18,4.81c0.02-14.72,0.01-29.44,0-44.16
		c2.42-3.13,5.31-5.89,7.43-9.26c-44.87-0.22-89.75-0.02-134.63-0.1C188.46,425.77,75.93,425.57-36.59,425.79 M138.14,481.03
		c20.67,35.46,40.87,71.22,61.72,106.56c20.48-35.59,41.06-71.14,61.57-106.72c-5.17-0.05-10.34-0.1-15.51-0.11
		c-15.18,26.19-30.25,52.46-45.43,78.65c-1.23-3.97-0.54-8.12-0.98-12.17c9.57-16.38,19.25-32.72,28.51-49.27
		c-9.34,11.36-18.16,23.16-27.32,34.68c-1.55-3.04-0.98-6.49-1.02-9.75c0.01-13.97,0-27.93,0-41.89c-1.9-0.27-3.81-0.45-5.72-0.4
		c-13.43,0.17-26.87-0.14-40.29,0.36C148.49,480.74,143.31,481.02,138.14,481.03z"/>
	<path class="st0" d="M232.88,299.18c10.55-2.27,21.31-3.94,32.14-3.83c5.83,0.11,11.8,0.78,17.1,3.4
		c-10.42,5.93-21.86,11.44-34.09,11.43C241.19,310.29,234.77,305.81,232.88,299.18z"/>
</g>
<g id="_x23_000000ff">
	<path d="M2.93,246.52c131.25-0.02,262.5-0.04,393.74,0c-22.46,39.03-44.98,78.02-67.52,117c-0.22-7.28-1.25-14.51-3.2-21.53
		c15.85-27.52,31.75-54.99,47.58-82.52c-57.83-0.13-115.67,0.19-173.5-0.15c-3.36-0.2-6.72-0.24-10.07-0.19
		c-54.73,0.05-109.46-0.06-164.19,0.05c0.98,1.96,1.98,3.9,3.09,5.79c29.15,50.27,57.97,100.74,87.23,150.94
		c1.92-5.68,4.03-11.4,7.62-16.28c3.51-5.15,8.73-8.69,13.55-12.49c10-7.77,20.28-15.18,30.88-22.12
		c5.61-3.63,8.91-10.89,7.23-17.46c-0.93-3.74-4.49-6.41-8.3-6.48c-7.13-0.35-13.43,3.56-19.46,6.82
		c13.71-19.65,31.76-36.36,52.48-48.41c21.56-12.57,47.1-18.64,71.98-15.53c10.33,1.36,20.7,3.57,30.25,7.79
		c-2.71,7.84-5.09,15.8-7.68,23.69c-1.21,2.84,1.92,4.92,2.92,7.33c-6.29,2.44-12.74,5.43-19.62,5.14
		c-2.88-0.26-5.21,1.88-7.28,3.57c-1.59,6.15-7.63,9.16-11.84,13.35c-1.08-4.39-1.57-8.89-2.06-13.38c-4.54,1.71-5,7.21-4.26,11.34
		c1.28,6.62,4.52,12.78,8.61,18.1c0.95-3.36,1.39-6.86,2.53-10.16c2.18-3.78,5.16-7.04,7.6-10.66c1.94-3.13,5.33-4.79,8.34-6.69
		c2.68-1.78,6.34,0.13,8.97-1.81c3.51-2.31,7.03-4.61,10.54-6.92c0.99,2.04,2.07,4.05,3.58,5.76c3.08-1.83,6.15-4.16,9.87-4.32
		c10.25,16.9,14.15,37.49,10.78,56.96c-3.59-6.87-7.52-13.93-13.85-18.66c-3.57-2.74-8.64-3.92-12.79-1.76
		c-8.56,4.46-14.48,13.09-16.42,22.46c-2.77,11.38-0.64,23.09-0.97,34.62c-58.11-0.02-116.22-0.01-174.34,0
		c-1.4,0.25-2.64-0.28-3.15-1.65C68.91,360.84,35.68,303.81,2.93,246.52 M232.88,299.18c1.89,6.63,8.31,11.11,15.15,11
		c12.23,0.01,23.67-5.5,34.09-11.43c-5.3-2.62-11.27-3.29-17.1-3.4C254.19,295.24,243.43,296.91,232.88,299.18z"/>
	<path d="M35.6,264.97c19.14-0.63,38.29-0.94,57.43-1.64c-15.21,3.21-30.69,5.02-45.95,8.01c6.02,13.9,12.17,27.75,17.93,41.76
		c-0.75-0.97-1.47-1.96-2.11-3.01C53.85,295.02,44.65,280.04,35.6,264.97z"/>
	<path d="M305.96,263.36c19.31,0.6,38.62,1.01,57.93,1.62c-9.96,16.32-19.75,32.76-29.8,49.02c5.74-14.39,12.4-28.41,18.15-42.8
		C336.82,268.54,321.33,266.28,305.96,263.36z"/>
	<path d="M308.37,372.35c3.56,3.34,6.62,7.22,9.19,11.37c-6.99,11.94-13.85,23.96-20.78,35.94c-5.23,0.09-10.45,0.02-15.67,0.05
		C290.2,403.93,299.39,388.2,308.37,372.35z"/>
	<path d="M-36.59,425.79c112.52-0.22,225.05-0.02,337.57-0.1c44.88,0.08,89.76-0.12,134.63,0.1c-2.12,3.37-5.01,6.13-7.43,9.26
		c0.01,14.72,0.02,29.44,0,44.16c-71.01-3.24-142.1-4.66-213.18-4.81c-81.37-0.08-162.76,1.3-244.05,4.81
		c-0.13-14.44,0.16-28.9-0.14-43.34C-31.37,432.31-34.5,429.43-36.59,425.79 M178.54,434.35c-2.13,3.79-4.25,7.59-6.43,11.35
		c-2.15-3.74-4.39-7.43-6.41-11.24c-3.41-0.12-6.83,0-10.24,0c3.99,6.55,8.24,12.95,12.1,19.57c0.46,3.92,0.03,7.91,0.26,11.87
		c2.92,0,5.83-0.04,8.75-0.1c0.08-3.94-0.17-7.88,0.04-11.81c3.77-6.68,7.96-13.13,11.9-19.73
		C185.19,434.25,181.86,434.26,178.54,434.35 M201.58,434.64c-8.91,2.75-13.67,13.79-9.59,22.17c4.15,9.74,17.87,12.52,26.06,6.24
		c6.69-4.71,8.59-14.71,4.2-21.6C218.16,434.58,208.94,432,201.58,434.64 M82.3,435.72c0.27,10.51,0.55,21.01,0.78,31.52
		c5.98-0.12,11.96-0.27,17.95-0.41c2.55-2.52,5.07-5.07,7.55-7.66c-5.65,0.16-11.31,0.27-16.96,0.37c-0.04-1.63-0.08-3.27-0.12-4.9
		c2.52-0.16,5.11,0.17,7.59-0.37c2.57-2.14,4.95-4.5,7.3-6.88c-5.02,0.07-10.04,0.2-15.06,0.32c-0.03-1.59-0.06-3.17-0.09-4.75
		c2.96-0.12,5.94-0.01,8.89-0.27c2.83-2.23,5.11-5.08,7.76-7.52C99.35,435.33,90.83,435.56,82.3,435.72 M115.92,435.02
		c0.18,10.5,0.37,21,0.57,31.5c2.93-0.04,5.85-0.09,8.78-0.16c-0.06-3.17-0.1-6.35-0.15-9.52c0.95-0.01,2.86-0.03,3.81-0.03
		c2.11,3.1,4.31,6.14,6.31,9.32c3.42,0.12,6.84,0.02,10.26-0.05c-2.5-3.6-5.02-7.19-7.57-10.76c6.59-2.74,8.32-11.92,3.7-17.15
		v-0.07l-0.2-0.04c-2.55-2.33-6.03-3.26-9.41-3.28C126.65,434.78,121.29,434.92,115.92,435.02 M232.06,449.88
		c-0.07,3.71,0.06,7.66,2.08,10.91c2.02,3.44,5.96,5.25,9.81,5.65c4.39,0.46,9.22,0.04,12.82-2.77c3.25-2.54,4.56-6.8,4.68-10.79
		c0.14-6.07,0.19-12.15,0.24-18.22c-2.98-0.03-5.96-0.06-8.93-0.09c-0.02,5.44-0.11,10.87-0.15,16.31
		c-0.07,1.88-0.04,3.92-1.14,5.56c-1.59,2.4-5.05,2.76-7.51,1.62c-2.28-1.06-3.02-3.78-2.96-6.1c-0.03-5.83,0.09-11.67,0.14-17.5
		c-2.94-0.03-5.88-0.04-8.82-0.21C232,439.45,232.2,444.67,232.06,449.88 M270.25,434.82c-0.18,10.5-0.31,21-0.49,31.49
		c2.92,0.05,5.85,0.1,8.78,0.16c0.07-3.17,0.13-6.34,0.15-9.52c1.32,0.03,2.65,0.08,3.99,0.14c1.85,3.23,3.99,6.26,5.87,9.46
		c3.41,0.21,6.83,0.23,10.25,0.3c-2.39-3.69-4.8-7.35-7.21-11.02c7.85-2.81,9.1-15.26,1.49-19.04
		C285.92,433.69,277.82,435.45,270.25,434.82 M47.36,436.74c0.06,2.57,0.14,5.14,0.23,7.72c3.14-0.12,6.29-0.21,9.44-0.31
		c0.25,7.94,0.48,15.88,0.74,23.81c2.93-0.09,5.85-0.17,8.78-0.27c-0.23-7.93-0.47-15.86-0.69-23.79c3.16-0.1,6.32-0.19,9.48-0.28
		c-0.06-2.57-0.13-5.13-0.21-7.69C65.87,436.18,56.62,436.48,47.36,436.74 M312.97,467.14c5.94,0.18,11.89,0.45,17.84,0.45
		c2.97-2.05,5.37-4.85,8.13-7.18c-5.66-0.18-11.31-0.33-16.97-0.49c0.04-1.65,0.08-3.29,0.12-4.94c2.44,0.08,4.88,0.15,7.33,0.28
		c2.75-2.18,5.39-4.49,8.06-6.77c-5.06-0.15-10.13-0.29-15.19-0.42c0.04-1.59,0.07-3.18,0.11-4.76c3.04,0.1,6.09,0.19,9.14,0.24
		c2.62-2.42,5.28-4.81,7.93-7.2c-8.54-0.2-17.09-0.48-25.63-0.67C313.54,446.17,313.44,456.66,312.97,467.14 M351.95,439.97
		c-7.62,5.55-8.44,18-1.59,24.5c6.9,6.63,18.45,6.08,25.81,0.47c0.13-4.74,0.35-9.48,0.52-14.22c-2.3-0.08-4.58-0.17-6.87-0.26
		c-2.66,2.04-5.32,4.09-7.94,6.18c2.07,0.07,4.13,0.14,6.21,0.21c-0.06,1.32-0.11,2.64-0.16,3.96c-3.24,1.23-7.18,1.39-10.04-0.82
		c-4.71-3.57-4.13-11.99,1.19-14.71c3.84-2.06,8.44-0.42,11.51,2.28c1.8-2,3.59-4,5.39-5.99c-0.74-0.64-1.47-1.29-2.19-1.93
		c-1.8-1.05-3.64-2.32-5.77-2.46C362.6,435.8,356.45,436.46,351.95,439.97 M22.29,437.64c0.39,10.5,0.8,21,1.2,31.5
		c8-0.28,16-0.57,24.01-0.85c-0.08-2.57-0.17-5.14-0.26-7.7c-5.08,0.16-10.17,0.36-15.25,0.51c-0.27-7.92-0.61-15.83-0.83-23.75
		C28.2,437.4,25.25,437.51,22.29,437.64 M387.73,443.66c-5.34,5.86-5.33,15.69,0.04,21.52c6.42,7.32,19.15,7.5,25.7,0.26
		c4.88-5.08,5.58-13.25,2.22-19.34c-2.88-4.93-8.35-7.89-13.98-8.24C396.54,437.9,391.16,439.62,387.73,443.66 M-6.12,438.59
		c-4,10.77-7.95,21.55-11.97,32.31c3.12-0.13,6.25-0.2,9.36-0.53c0.56-1.9,1.19-3.78,1.85-5.65c4.04-0.16,8.09-0.34,12.13-0.52
		c0.81,1.8,1.6,3.62,2.32,5.46c3.19,0.05,6.37-0.14,9.56-0.28c-4.76-10.39-9.92-20.59-14.53-31.04
		C-0.31,438.26-3.21,438.44-6.12,438.59z"/>
	<path d="M204.29,442.25c5.18-2.51,11.58,1.94,11.27,7.62c0.48,5.45-5.27,10.2-10.5,8.18C198.19,456.01,197.68,444.95,204.29,442.25
		z"/>
	<path d="M125.03,442.38c2.62,0.09,5.28-0.28,7.87,0.26c2.97,0.67,3.4,5.3,0.68,6.57c-2.71,1.1-5.74,0.59-8.59,0.75
		c-0.02-2.14-0.02-4.27,0.02-6.4L125.03,442.38z"/>
	<path d="M278.96,442.51c2.13,0.06,4.27,0.06,6.41,0.03h0.02c3.01,0.02,5.22,3.55,3.25,6.05c-2.52,2.62-6.61,1.17-9.81,1.44
		C278.87,447.52,278.92,445.01,278.96,442.51z"/>
	<path d="M397.55,446.57c5.52-2.63,11.99,2.58,11.16,8.46c-0.04,5.47-6.19,9.62-11.22,7.14
		C391.19,459.49,391.2,449.17,397.55,446.57z"/>
	<path d="M-1.48,448.89c1.3,2.85,2.59,5.71,3.8,8.61c-2.31,0.07-4.61,0.16-6.92,0.26C-3.55,454.8-2.52,451.85-1.48,448.89z"/>
	<path d="M138.14,481.03c5.17-0.01,10.35-0.29,15.53-0.06c10.36,18.64,21.28,36.99,31.86,55.52c4.79,8.11,9.25,16.42,14.26,24.4
		c0.17-0.37,0.53-1.11,0.7-1.48c15.18-26.19,30.25-52.46,45.43-78.65c5.17,0.01,10.34,0.06,15.51,0.11
		c-20.51,35.58-41.09,71.13-61.57,106.72C179.01,552.25,158.81,516.49,138.14,481.03z"/>
	<path d="M200.7,532.65c9.16-11.52,17.98-23.32,27.32-34.68c-9.26,16.55-18.94,32.89-28.51,49.27
		c-9.01-16.3-19.04-32.06-27.73-48.52c9.43,11.64,18.54,23.55,27.76,35.36C199.92,533.6,200.31,533.12,200.7,532.65z"/>
</g>
<g id="_x23_00685fff">
	<path class="st1" d="M25.77,259.18c54.73-0.11,109.46,0,164.19-0.05c3.35-0.05,6.71-0.01,10.07,0.19
		c-0.68,6.83-0.24,13.69-0.35,20.54c0.1,6.54-0.35,13.11,0.41,19.63c-20.72,12.05-38.77,28.76-52.48,48.41
		c6.03-3.26,12.33-7.17,19.46-6.82c3.81,0.07,7.37,2.74,8.3,6.48c1.68,6.57-1.62,13.83-7.23,17.46
		c-10.6,6.94-20.88,14.35-30.88,22.12c-4.82,3.8-10.04,7.34-13.55,12.49c-3.59,4.88-5.7,10.6-7.62,16.28
		c-29.26-50.2-58.08-100.67-87.23-150.94C27.75,263.08,26.75,261.14,25.77,259.18 M35.6,264.97c9.05,15.07,18.25,30.05,27.3,45.12
		c0.64,1.05,1.36,2.04,2.11,3.01c-5.76-14.01-11.91-27.86-17.93-41.76c15.26-2.99,30.74-4.8,45.95-8.01
		C73.89,264.03,54.74,264.34,35.6,264.97z"/>
	<path class="st1" d="M153.67,480.97c13.42-0.5,26.86-0.19,40.29-0.36c1.91-0.05,3.82,0.13,5.72,0.4c0,13.96,0.01,27.92,0,41.89
		c0.04,3.26-0.53,6.71,1.02,9.75c-0.39,0.47-0.78,0.95-1.16,1.43c-9.22-11.81-18.33-23.72-27.76-35.36
		c8.69,16.46,18.72,32.22,27.73,48.52c0.44,4.05-0.25,8.2,0.98,12.17c-0.17,0.37-0.53,1.11-0.7,1.48
		c-5.01-7.98-9.47-16.29-14.26-24.4C174.95,517.96,164.03,499.61,153.67,480.97z"/>
</g>
<g id="_x23_ffffffff">
	<path class="st2" d="M178.54,434.35c3.32-0.09,6.65-0.1,9.97-0.09c-3.94,6.6-8.13,13.05-11.9,19.73
		c-0.21,3.93,0.04,7.87-0.04,11.81c-2.92,0.06-5.83,0.1-8.75,0.1c-0.23-3.96,0.2-7.95-0.26-11.87c-3.86-6.62-8.11-13.02-12.1-19.57
		c3.41,0,6.83-0.12,10.24,0c2.02,3.81,4.26,7.5,6.41,11.24C174.29,441.94,176.41,438.14,178.54,434.35 M157.9,435.79
		c1.76,2.93,3.38,5.97,5.44,8.71c1.9,1.01,4.26,0.23,6.34,0.41c-1.62-3.23-3.61-6.23-5.59-9.23
		C162.02,435.69,159.96,435.72,157.9,435.79 M174.55,444.88c1.98-0.16,4.2,0.48,6.04-0.41c1.92-2.76,3.54-5.72,5.02-8.74
		c-1.88-0.03-3.77-0.14-5.64,0.06C177.53,438.35,176.33,441.86,174.55,444.88z"/>
	<path class="st2" d="M201.58,434.64c7.36-2.64,16.58-0.06,20.67,6.81c4.39,6.89,2.49,16.89-4.2,21.6
		c-8.19,6.28-21.91,3.5-26.06-6.24C187.91,448.43,192.67,437.39,201.58,434.64 M192.89,444.78c2.07,0.04,4.14,0.06,6.22,0.07
		c2.27-2.56,5.28-4.97,8.93-4.61c3.33-0.01,5.94,2.32,8.02,4.66c2.08,0.02,4.17-0.01,6.26-0.06c-1.76-4.42-5.7-7.82-10.32-8.94
		C204.54,433.79,195.96,437.58,192.89,444.78 M204.29,442.25c-6.61,2.7-6.1,13.76,0.77,15.8c5.23,2.02,10.98-2.73,10.5-8.18
		C215.87,444.19,209.47,439.74,204.29,442.25z"/>
	<path class="st2" d="M82.3,435.72c8.53-0.16,17.05-0.39,25.59-0.55c-2.65,2.44-4.93,5.29-7.76,7.52c-2.95,0.26-5.93,0.15-8.89,0.27
		c0.03,1.58,0.06,3.16,0.09,4.75c5.02-0.12,10.04-0.25,15.06-0.32c-2.35,2.38-4.73,4.74-7.3,6.88c-2.48,0.54-5.07,0.21-7.59,0.37
		c0.04,1.63,0.08,3.27,0.12,4.9c5.65-0.1,11.31-0.21,16.96-0.37c-2.48,2.59-5,5.14-7.55,7.66c-5.99,0.14-11.97,0.29-17.95,0.41
		C82.85,456.73,82.57,446.23,82.3,435.72 M83.47,436.69c-0.19,3.51-0.05,7.01,0.12,10.52c2.04-0.06,4.09-0.18,6.13-0.39
		c-0.05-1.78-0.11-3.57-0.18-5.35c3.12-0.57,6.3-0.21,9.43-0.59c1.84-1,3.21-2.7,4.03-4.6C96.49,436.39,89.98,436.55,83.47,436.69z"
		/>
	<path class="st2" d="M115.92,435.02c5.37-0.1,10.73-0.24,16.1-0.24c3.38,0.02,6.86,0.95,9.41,3.28c-3.2-0.48-6.1-2.29-9.39-2.24
		c-4.82-0.12-9.65,0.11-14.48,0.01c-0.12,3.37-0.08,6.76,0.13,10.13c2.6-0.17,6.01,0.54,7.32-2.4c-0.04,2.13-0.04,4.26-0.02,6.4
		c2.85-0.16,5.88,0.35,8.59-0.75c2.72-1.27,2.29-5.9-0.68-6.57c-2.59-0.54-5.25-0.17-7.87-0.26c-0.45-0.17-1.36-0.53-1.82-0.7
		c2.37-2.1,5.78-1.21,8.65-1.15c2.84-0.04,4.1,2.77,5.36,4.83c1.94-0.01,3.88-0.08,5.83-0.2c-0.69-2.28-1.61-4.57-1.42-6.99
		c4.62,5.23,2.89,14.41-3.7,17.15c2.55,3.57,5.07,7.16,7.57,10.76c-3.42,0.07-6.84,0.17-10.26,0.05c-2-3.18-4.2-6.22-6.31-9.32
		c-0.95,0-2.86,0.02-3.81,0.03c0.05,3.17,0.09,6.35,0.15,9.52c-2.93,0.07-5.85,0.12-8.78,0.16
		C116.29,456.02,116.1,445.52,115.92,435.02z"/>
	<path class="st2" d="M232.06,449.88c0.14-5.21-0.06-10.43,0.26-15.63c2.94,0.17,5.88,0.18,8.82,0.21
		c-0.05,5.83-0.17,11.67-0.14,17.5c-0.06,2.32,0.68,5.04,2.96,6.1c2.46,1.14,5.92,0.78,7.51-1.62c1.1-1.64,1.07-3.68,1.14-5.56
		c0.04-5.44,0.13-10.87,0.15-16.31c2.97,0.03,5.95,0.06,8.93,0.09c-0.05,6.07-0.1,12.15-0.24,18.22c-0.12,3.99-1.43,8.25-4.68,10.79
		c-3.6,2.81-8.43,3.23-12.82,2.77c-3.85-0.4-7.79-2.21-9.81-5.65C232.12,457.54,231.99,453.59,232.06,449.88 M233.41,435.58
		c-0.18,3.17-0.34,6.35-0.02,9.52c1.96-0.03,3.93-0.05,5.9-0.05c0.15-3.14,0.18-6.28,0.09-9.42
		C237.39,435.59,235.4,435.57,233.41,435.58 M253.96,435.87c-0.14,3.14-0.19,6.28-0.13,9.43c2.03,0.02,4.07,0.02,6.1-0.01
		c0.08-3.14,0.11-6.29,0.11-9.43C258.01,435.85,255.98,435.85,253.96,435.87z"/>
	<path class="st2" d="M270.25,434.82c7.57,0.63,15.67-1.13,22.83,1.97c7.61,3.78,6.36,16.23-1.49,19.04
		c2.41,3.67,4.82,7.33,7.21,11.02c-3.42-0.07-6.84-0.09-10.25-0.3c-1.88-3.2-4.02-6.23-5.87-9.46c-1.34-0.06-2.67-0.11-3.99-0.14
		c-0.02,3.18-0.08,6.35-0.15,9.52c-2.93-0.06-5.86-0.11-8.78-0.16C269.94,455.82,270.07,445.32,270.25,434.82 M272.09,436.73
		c-0.16,2.98-0.17,5.96-0.04,8.94c1.68,0.02,3.36,0.06,5.05,0.11c0.12-1.45,0.25-2.9,0.39-4.35c2.62,0.21,5.59-0.55,7.88,1.11
		c-2.14,0.03-4.28,0.03-6.41-0.03c-0.04,2.5-0.09,5.01-0.13,7.52c3.2-0.27,7.29,1.18,9.81-1.44c1.97-2.5-0.24-6.03-3.25-6.05
		c2.75-1.28,4.61,1.21,5.72,3.38c2.02,0.21,4.05,0.28,6.09,0.23c-0.22-4.4-3.6-8.02-7.92-8.7
		C283.6,436.56,277.81,436.94,272.09,436.73z"/>
	<path class="st2" d="M47.36,436.74c9.26-0.26,18.51-0.56,27.77-0.81c0.08,2.56,0.15,5.12,0.21,7.69c-3.16,0.09-6.32,0.18-9.48,0.28
		c0.22,7.93,0.46,15.86,0.69,23.79c-2.93,0.1-5.85,0.18-8.78,0.27c-0.26-7.93-0.49-15.87-0.74-23.81c-3.15,0.1-6.3,0.19-9.44,0.31
		C47.5,441.88,47.42,439.31,47.36,436.74 M49.1,438.29c-0.05,1.56-0.1,3.13-0.15,4.7c3.12-0.06,6.28-0.41,9.38,0.16
		c-0.03,1.81-0.03,3.61-0.01,5.43c2.02-0.08,4.03-0.19,6.04-0.34c0-1.92,0.07-3.84,0.2-5.76c2.96,0.01,5.92-0.14,8.88-0.26
		c-0.05-1.52-0.09-3.04-0.13-4.55C65.23,437.78,57.17,438.23,49.1,438.29z"/>
	<path class="st2" d="M312.97,467.14c0.47-10.48,0.57-20.97,0.87-31.46c8.54,0.19,17.09,0.47,25.63,0.67
		c-2.65,2.39-5.31,4.78-7.93,7.2c-3.05-0.05-6.1-0.14-9.14-0.24c-0.04,1.58-0.07,3.17-0.11,4.76c5.06,0.13,10.13,0.27,15.19,0.42
		c-2.67,2.28-5.31,4.59-8.06,6.77c-2.45-0.13-4.89-0.2-7.33-0.28c-0.04,1.65-0.08,3.29-0.12,4.94c5.66,0.16,11.31,0.31,16.97,0.49
		c-2.76,2.33-5.16,5.13-8.13,7.18C324.86,467.59,318.91,467.32,312.97,467.14 M315.18,436.94c-0.18,3.28-0.24,6.56-0.18,9.84
		c1.74,0.02,3.49,0.06,5.23,0.1c0.05-1.62,0.1-3.24,0.16-4.86c3.19-0.32,6.39,0.03,9.58-0.13c2.08-0.56,3.19-2.7,4.52-4.23
		C328.06,437.13,321.61,437.23,315.18,436.94z"/>
	<path class="st2" d="M351.95,439.97c4.5-3.51,10.65-4.17,16.07-2.79c-4.36,0.9-9.19,0.01-13.12,2.5c-3.29,1.68-5.28,4.89-6.89,8.08
		c2,0.13,4,0.27,6,0.4c1.98-2.2,3.91-4.95,7.04-5.49c3.31-0.85,6.51,0.72,9.48,1.99c1.19-1.6,2.26-3.29,3.26-5.02
		c0.72,0.64,1.45,1.29,2.19,1.93c-1.8,1.99-3.59,3.99-5.39,5.99c-3.07-2.7-7.67-4.34-11.51-2.28c-5.32,2.72-5.9,11.14-1.19,14.71
		c2.86,2.21,6.8,2.05,10.04,0.82c0.05-1.32,0.1-2.64,0.16-3.96c-2.08-0.07-4.14-0.14-6.21-0.21c2.62-2.09,5.28-4.14,7.94-6.18
		c2.29,0.09,4.57,0.18,6.87,0.26c-0.17,4.74-0.39,9.48-0.52,14.22c-7.36,5.61-18.91,6.16-25.81-0.47
		C343.51,457.97,344.33,445.52,351.95,439.97z"/>
	<path class="st2" d="M22.29,437.64c2.96-0.13,5.91-0.24,8.87-0.29c0.22,7.92,0.56,15.83,0.83,23.75
		c5.08-0.15,10.17-0.35,15.25-0.51c0.09,2.56,0.18,5.13,0.26,7.7c-8.01,0.28-16.01,0.57-24.01,0.85
		C23.09,458.64,22.68,448.14,22.29,437.64 M23.93,439.03c-0.46,4.06,0.07,8.15,0.14,12.22c2.03-0.15,4.06-0.31,6.08-0.47
		c-0.03-3.94-0.17-7.88-0.35-11.82C27.84,439.01,25.89,439.03,23.93,439.03z"/>
	<path class="st2" d="M387.73,443.66c3.43-4.04,8.81-5.76,13.98-5.8c-3.42,2.01-7.73,2.12-10.77,4.83c-2.21,1.74-3.5,4.29-4.8,6.72
		c1.8,0.13,3.6,0.26,5.4,0.37c2.33-3.75,6.53-6.75,11.13-5.48c3.63,0.49,5.32,3.94,7.57,6.35c1.79,0.33,3.62,0.29,5.44,0.38
		c-0.23-1.64-0.48-3.31,0.01-4.93c3.36,6.09,2.66,14.26-2.22,19.34c-6.55,7.24-19.28,7.06-25.7-0.26
		C382.4,459.35,382.39,449.52,387.73,443.66 M397.55,446.57c-6.35,2.6-6.36,12.92-0.06,15.6c5.03,2.48,11.18-1.67,11.22-7.14
		C409.54,449.15,403.07,443.94,397.55,446.57z"/>
	<path class="st2" d="M-6.12,438.59c2.91-0.15,5.81-0.33,8.72-0.25c4.61,10.45,9.77,20.65,14.53,31.04
		c-3.19,0.14-6.37,0.33-9.56,0.28c-0.72-1.84-1.51-3.66-2.32-5.46c-4.04,0.18-8.09,0.36-12.13,0.52c-0.66,1.87-1.29,3.75-1.85,5.65
		c-3.11,0.33-6.24,0.4-9.36,0.53C-14.07,460.14-10.12,449.36-6.12,438.59 M-4.95,440.05c-1.95,4.97-3.75,9.99-5.44,15.06
		c1.72-0.21,3.44-0.4,5.17-0.57c1.31-3.21,2.33-6.52,3.56-9.76c1.44,2.89,2.69,5.87,4.11,8.77c1.66-0.2,3.32-0.38,4.98-0.56
		c-1.61-4.47-4.05-8.58-5.8-12.98C-0.56,439.85-2.76,439.89-4.95,440.05 M-1.48,448.89c-1.04,2.96-2.07,5.91-3.12,8.87
		c2.31-0.1,4.61-0.19,6.92-0.26C1.11,454.6-0.18,451.74-1.48,448.89z"/>
</g>
<g id="_x23_ccccccff">
	<path class="st3" d="M117.56,435.83c4.83,0.1,9.66-0.13,14.48-0.01c3.29-0.05,6.19,1.76,9.39,2.24l0.2,0.04v0.07
		c-0.19,2.42,0.73,4.71,1.42,6.99c-1.95,0.12-3.89,0.19-5.83,0.2c-1.26-2.06-2.52-4.87-5.36-4.83c-2.87-0.06-6.28-0.95-8.65,1.15
		c0.46,0.17,1.37,0.53,1.82,0.7l-0.02,1.18c-1.31,2.94-4.72,2.23-7.32,2.4C117.48,442.59,117.44,439.2,117.56,435.83z"/>
	<path class="st3" d="M157.9,435.79c2.06-0.07,4.12-0.1,6.19-0.11c1.98,3,3.97,6,5.59,9.23c-2.08-0.18-4.44,0.6-6.34-0.41
		C161.28,441.76,159.66,438.72,157.9,435.79z"/>
	<path class="st3" d="M174.55,444.88c1.78-3.02,2.98-6.53,5.42-9.09c1.87-0.2,3.76-0.09,5.64-0.06c-1.48,3.02-3.1,5.98-5.02,8.74
		C178.75,445.36,176.53,444.72,174.55,444.88z"/>
	<path class="st3" d="M192.89,444.78c3.07-7.2,11.65-10.99,19.11-8.88c4.62,1.12,8.56,4.52,10.32,8.94
		c-2.09,0.05-4.18,0.08-6.26,0.06c-2.08-2.34-4.69-4.67-8.02-4.66c-3.65-0.36-6.66,2.05-8.93,4.61
		C197.03,444.84,194.96,444.82,192.89,444.78z"/>
	<path class="st3" d="M233.41,435.58c1.99-0.01,3.98,0.01,5.97,0.05c0.09,3.14,0.06,6.28-0.09,9.42c-1.97,0-3.94,0.02-5.9,0.05
		C233.07,441.93,233.23,438.75,233.41,435.58z"/>
	<path class="st3" d="M253.96,435.87c2.02-0.02,4.05-0.02,6.08-0.01c0,3.14-0.03,6.29-0.11,9.43c-2.03,0.03-4.07,0.03-6.1,0.01
		C253.77,442.15,253.82,439.01,253.96,435.87z"/>
	<path class="st3" d="M83.47,436.69c6.51-0.14,13.02-0.3,19.53-0.41c-0.82,1.9-2.19,3.6-4.03,4.6c-3.13,0.38-6.31,0.02-9.43,0.59
		c0.07,1.78,0.13,3.57,0.18,5.35c-2.04,0.21-4.09,0.33-6.13,0.39C83.42,443.7,83.28,440.2,83.47,436.69z"/>
	<path class="st3" d="M272.09,436.73c5.72,0.21,11.51-0.17,17.19,0.72c4.32,0.68,7.7,4.3,7.92,8.7c-2.04,0.05-4.07-0.02-6.09-0.23
		c-1.11-2.17-2.97-4.66-5.72-3.38h-0.02c-2.29-1.66-5.26-0.9-7.88-1.11c-0.14,1.45-0.27,2.9-0.39,4.35
		c-1.69-0.05-3.37-0.09-5.05-0.11C271.92,442.69,271.93,439.71,272.09,436.73z"/>
	<path class="st3" d="M315.18,436.94c6.43,0.29,12.88,0.19,19.31,0.72c-1.33,1.53-2.44,3.67-4.52,4.23
		c-3.19,0.16-6.39-0.19-9.58,0.13c-0.06,1.62-0.11,3.24-0.16,4.86c-1.74-0.04-3.49-0.08-5.23-0.1
		C314.94,443.5,315,440.22,315.18,436.94z"/>
	<path class="st3" d="M368.02,437.18c2.13,0.14,3.97,1.41,5.77,2.46c-1,1.73-2.07,3.42-3.26,5.02c-2.97-1.27-6.17-2.84-9.48-1.99
		c-3.13,0.54-5.06,3.29-7.04,5.49c-2-0.13-4-0.27-6-0.4c1.61-3.19,3.6-6.4,6.89-8.08C358.83,437.19,363.66,438.08,368.02,437.18z"/>
	<path class="st3" d="M49.1,438.29c8.07-0.06,16.13-0.51,24.21-0.62c0.04,1.51,0.08,3.03,0.13,4.55c-2.96,0.12-5.92,0.27-8.88,0.26
		c-0.13,1.92-0.2,3.84-0.2,5.76c-2.01,0.15-4.02,0.26-6.04,0.34c-0.02-1.82-0.02-3.62,0.01-5.43c-3.1-0.57-6.26-0.22-9.38-0.16
		C49,441.42,49.05,439.85,49.1,438.29z"/>
	<path class="st3" d="M401.71,437.86c5.63,0.35,11.1,3.31,13.98,8.24c-0.49,1.62-0.24,3.29-0.01,4.93
		c-1.82-0.09-3.65-0.05-5.44-0.38c-2.25-2.41-3.94-5.86-7.57-6.35c-4.6-1.27-8.8,1.73-11.13,5.48c-1.8-0.11-3.6-0.24-5.4-0.37
		c1.3-2.43,2.59-4.98,4.8-6.72C393.98,439.98,398.29,439.87,401.71,437.86z"/>
	<path class="st3" d="M23.93,439.03c1.96,0,3.91-0.02,5.87-0.07c0.18,3.94,0.32,7.88,0.35,11.82c-2.02,0.16-4.05,0.32-6.08,0.47
		C24,447.18,23.47,443.09,23.93,439.03z"/>
	<path class="st3" d="M-4.95,440.05c2.19-0.16,4.39-0.2,6.58-0.04c1.75,4.4,4.19,8.51,5.8,12.98c-1.66,0.18-3.32,0.36-4.98,0.56
		c-1.42-2.9-2.67-5.88-4.11-8.77c-1.23,3.24-2.25,6.55-3.56,9.76c-1.73,0.17-3.45,0.36-5.17,0.57
		C-8.7,450.04-6.9,445.02-4.95,440.05z"/>
</g>
</svg>
