<?xml version="1.0" encoding="utf-8"?>
<!-- Generator: Adobe Illustrator 19.0.0, SVG Export Plug-In . SVG Version: 6.00 Build 0)  -->
<svg version="1.1" id="Layer_1" xmlns="http://www.w3.org/2000/svg" xmlns:xlink="http://www.w3.org/1999/xlink" x="0px" y="0px"
	 viewBox="-128.63 255.15 331.44 331.41" style="enable-background:new -128.63 255.15 331.44 331.41;" xml:space="preserve">
<style type="text/css">
	.st0{fill:#A39A74;}
	.st1{fill:#251717;}
	.st2{fill:#DFB73B;}
</style>
<g id="_x23_a39a74ff">
	<path class="st0" d="M36.01,255.44c0.39-0.07,1.17-0.22,1.56-0.29c7.68,8.03,15.69,15.74,23.5,23.66
		c13.31,12.7,30.74,20.81,48.9,23.49c14.68,1.91,29.51,0.8,44.26,1.12c0.5,19.48-2.11,39.6,4.26,58.42
		c3.77,12.4,10.43,23.86,19.12,33.46c8.33,8.53,16.96,16.78,25.2,25.39c-7.35,6.63-14.05,13.95-21.16,20.84
		c-16.27,15.94-26.4,38.08-27.28,60.88c-0.42,11.19,0,22.4-0.21,33.59c-0.15,0.56-0.44,1.67-0.59,2.22
		c-10.18-0.31-20.38-0.04-30.56-0.14c-23.4-0.5-46.44,9.34-63.29,25.38c-7.55,7.75-15.49,15.13-22.8,23.1
		c-7.12-7.06-14.19-14.17-21.28-21.26c-15.69-16.45-37.98-26.37-60.67-27.19c-11.82-0.04-23.63-0.04-35.44,0.01
		c-0.02-11.08-0.03-22.15,0-33.22c-0.46-21.87-8.93-43.63-23.95-59.61c-7.13-7.18-14.28-14.34-21.47-21.47
		c-1.07-1.16-2.63-2.14-2.74-3.87c3.35-2.52,6.05-5.77,9.08-8.65c7.58-7.75,15.78-15,22.09-23.89
		c10.57-14.66,16.44-32.54,16.99-50.58c-0.06-11.16,0.03-22.31-0.05-33.46c18.19-0.34,36.76,1.57,54.56-3.16
		c16.59-4.22,31.55-13.66,43.4-25.9C23.58,267.97,30.12,262.01,36.01,255.44 M10.19,291.04c-15.06,12.53-34.59,19.62-54.2,19.44
		c-9.76,0.01-19.51-0.03-29.27,0.02c-0.01,9.79-0.01,19.59,0,29.38c0.22,14.8-3.89,29.55-11.26,42.35
		c-8.56,15.14-22.6,25.89-34.26,38.47c7.06,6.95,14.03,14.01,21.05,21c15.28,15.24,24.39,36.61,24.47,58.22
		c-0.05,10.16,0.1,20.31-0.09,30.47c9.11,0.37,18.23,0.07,27.35,0.16c15.86-0.24,31.82,3.84,45.47,11.98
		c14.7,8.54,24.97,22.46,37.5,33.62c6.75-6.69,13.46-13.43,20.17-20.16c10.41-10.53,23.54-18.35,37.83-22.26
		c16.87-4.87,34.58-2.72,51.87-3.14c0.55-12.55-0.69-25.17,0.57-37.71c1.78-19.25,10.6-37.68,24.22-51.37
		c7-6.94,13.91-13.97,20.95-20.88c-6.95-7.14-14.09-14.09-21.09-21.18c-10.59-10.61-18.2-24.14-21.91-38.66
		c-4.24-16.44-2.26-33.54-2.73-50.31c-10.63-0.03-21.26,0.06-31.89-0.04c-20.96-0.51-41.57-9.32-56.5-24.03
		c-7.19-7.13-14.32-14.33-21.5-21.47C27.93,273.54,19.61,282.88,10.19,291.04z"/>
</g>
<g id="_x23_251717ff">
	<path class="st1" d="M10.19,291.04c9.42-8.16,17.74-17.5,26.75-26.1c7.18,7.14,14.31,14.34,21.5,21.47
		c14.93,14.71,35.54,23.52,56.5,24.03c10.63,0.1,21.26,0.01,31.89,0.04c0.47,16.77-1.51,33.87,2.73,50.31
		c3.71,14.52,11.32,28.05,21.91,38.66c7,7.09,14.14,14.04,21.09,21.18c-7.04,6.91-13.95,13.94-20.95,20.88
		c-13.62,13.69-22.44,32.12-24.22,51.37c-1.26,12.54-0.02,25.16-0.57,37.71c-17.29,0.42-35-1.73-51.87,3.14
		c-14.29,3.91-27.42,11.73-37.83,22.26c-6.71,6.73-13.42,13.47-20.17,20.16c-12.53-11.16-22.8-25.08-37.5-33.62
		c-13.65-8.14-29.61-12.22-45.47-11.98c-9.12-0.09-18.24,0.21-27.35-0.16c0.19-10.16,0.04-20.31,0.09-30.47
		c-0.08-21.61-9.19-42.98-24.47-58.22c-7.02-6.99-13.99-14.05-21.05-21c11.66-12.58,25.7-23.33,34.26-38.47
		c7.37-12.8,11.48-27.55,11.26-42.35c-0.01-9.79-0.01-19.59,0-29.38c9.76-0.05,19.51-0.01,29.27-0.02
		C-24.4,310.66-4.87,303.57,10.19,291.04 M-65.57,314.5c-1.71,0.67-2.81,2.47-2.66,4.31c-0.03,55.37,0.03,110.75-0.03,166.12
		c-0.07,1.47,0.12,2.99,1.03,4.21c16.26,24.82,41.61,43.56,70.21,51.54c22.02,6.28,45.76,6.29,67.78,0.01
		c28.68-8.03,54.17-26.81,70.36-51.8c0.74-1.18,1.06-2.56,1.04-3.94c0.08-55.06-0.12-110.11,0-165.15c0.33-2.99-1.93-6.1-5.15-5.62
		c-66.32-0.03-132.64,0.03-198.96-0.03C-63.18,314.09-64.39,314.21-65.57,314.5z"/>
	<path class="st1" d="M-59.28,323.4c64.02-0.23,128.06-0.03,192.08-0.1c0.01,53.21,0,106.42,0.01,159.63
		c0.25,2.62-1.96,4.45-3.26,6.46c-16.51,22.42-41.38,38.52-68.63,44.27c-25.91,5.66-53.73,1.82-77.21-10.5
		c-16.51-8.59-30.83-21.27-41.5-36.5c-0.72-1.12-1.63-2.28-1.45-3.7C-59.27,429.77-59.17,376.58-59.28,323.4 M-47.29,332.02
		c0.03,20.92-0.05,41.85,0.04,62.78c29.74-19.57,59.32-39.4,89.01-59.04c1.66-1.11,3.58-2.05,4.53-3.91
		C15.1,332.23-16.1,331.84-47.29,332.02 M52.7,338.6c-1.97,1.71-2.47,4.38-3.31,6.72c-7.79,2.75-15.48,5.99-22.4,10.55
		c-15.73,10.33-30.3,22.28-44.82,34.22c-11.63,9.5-23.06,19.52-36.54,26.38c7.45-0.32,14.64-2.66,21.49-5.43
		c10.55-4.51,20.47-10.45,29.61-17.38c11.83-8.83,23.22-18.77,37.12-24.24c2.93-1.24,6.15-1.65,9.29-1.15
		c-18.84,9.24-31.93,26.18-48.33,38.74c4.46-2.09,8.32-5.19,12.37-7.95c10.69-7.38,21.75-14.35,33.66-19.6
		c5.15-2.18,10.59-4.12,16.26-4.01c-15.72,8.97-30.57,19.49-44.2,31.39c15.2-7.41,29.57-16.67,45.65-22.16
		c2.13-0.7,4.36-1.04,6.6-1.1c-3.03,1.9-6.4,3.17-9.5,4.93c-6.86,3.62-12.81,8.7-19.7,12.23c0.2,0.4,0.6,1.2,0.8,1.6
		c10.07-3.98,21.22-2.8,31.57-0.71c15.73,3.32,30.16,11,43.08,20.37c0.3-11.61,0.66-23.2,1.18-34.8
		c-3.57,5.83-9.34,11.22-16.57,11.32c-8.62-0.21-15.65-9.29-13.64-17.72c1.96-7.23,7.04-13.15,12.66-17.9
		c2.48-2.12,5.66-3.59,8.99-3.45c4.42,0.03,8.24,2.51,11.98,4.56c0.8-2.7,1.63-5.39,2.46-8.09c-3-4.88-5.47-10.06-8.38-15
		c-0.79-1.39-2.7-1.06-4.01-1.33c-13.04-0.88-26.22-0.75-39.12,1.51c-2.44,0.96-3.84-1.55-5.39-2.92c0.09-0.9,0.27-2.69,0.35-3.59
		C58.72,335.57,55.21,336.23,52.7,338.6 M15.6,406.82c6.4,32.29,12.66,64.62,18.79,96.96c0.95,4.39,1.61,8.96,3.7,12.98
		c2.89,4.97,9.62,2.56,14.14,1.74c5.64-35.7,12.2-71.27,19.02-106.76c-4.01-1.5-8.07-2.97-12.33-3.64
		c-4.65,26.96-9.83,53.84-13.96,80.89C43.6,484.07,42.9,479,41.92,474c-4.17-22.94-8.41-45.86-12.6-68.79
		C24.71,405.42,20.16,406.19,15.6,406.82 M0.24,411.3c0,34.23-0.06,68.46,0.03,102.69c3.93,1.31,7.89,2.56,11.94,3.46
		c0.03-36.52,0.03-73.05,0-109.57C8.11,408.61,4.15,409.92,0.24,411.3 M-33.24,430.68c-4.97,3.94-9.04,9.64-9.17,16.2
		c-0.19,13.08,0.02,26.17-0.09,39.25c3.41,3.49,7.19,6.59,10.88,9.78c0.22-17.06,0.05-34.12,0.13-51.17
		c8.42-3.56,17.08-6.58,25.99-8.64c0.03-7.45,0.06-14.9-0.02-22.35C-15.65,417.7-24.82,423.85-33.24,430.68 M76.11,418.01
		c-2.19,4.63-1.71,9.93-2.23,14.9c-0.13,19.33-0.03,38.67-0.05,58c0.39,5.19,0.22,10.72,2.56,15.51c1.27,2.94,5.13,2.72,7.5,1.33
		c10.48-5.7,20.22-12.89,28.53-21.44c0.62-3.69,0.15-7.48,0.16-11.2c-8.63,4.77-17.77,8.58-27.16,11.57
		c-0.08-15.98,0.04-31.96,0-47.94c9.23,2.31,17.96,6.35,26.3,10.88c0.02-3.84,0.33-7.71-0.09-11.54c-8.5-8.4-18.2-15.64-28.81-21.16
		C80.73,415.79,77.21,415.32,76.11,418.01 M85.72,452.32c0.83,5.78,1.91,11.53,2.96,17.28c7.32-0.48,14.55-1.7,21.82-2.58
		c-1.04-3.76-2.01-7.54-3.1-11.29C100.18,454.55,93.01,453.01,85.72,452.32 M-31.32,457.51c1.37,5.6,2.88,11.18,4.06,16.83
		c6.66,1.56,13.38,3.03,20.22,3.55c-1.18-7.54-2.56-15.08-4.46-22.47C-18.08,456.37-24.73,456.64-31.32,457.51z"/>
	<path class="st1" d="M71,354.45c1.74-2.34,3.48-4.69,5.13-7.1c2.66,1.39,6.24,1.81,7.98,4.49C79.73,352.66,75.4,353.73,71,354.45z"
		/>
</g>
<g id="_x23_dfb73bff">
	<path class="st2" d="M-65.57,314.5c1.18-0.29,2.39-0.41,3.62-0.35c66.32,0.06,132.64,0,198.96,0.03c3.22-0.48,5.48,2.63,5.15,5.62
		c-0.12,55.04,0.08,110.09,0,165.15c0.02,1.38-0.3,2.76-1.04,3.94c-16.19,24.99-41.68,43.77-70.36,51.8
		c-22.02,6.28-45.76,6.27-67.78-0.01c-28.6-7.98-53.95-26.72-70.21-51.54c-0.91-1.22-1.1-2.74-1.03-4.21
		c0.06-55.37,0-110.75,0.03-166.12C-68.38,316.97-67.28,315.17-65.57,314.5 M-59.28,323.4c0.11,53.18,0.01,106.37,0.04,159.56
		c-0.18,1.42,0.73,2.58,1.45,3.7c10.67,15.23,24.99,27.91,41.5,36.5c23.48,12.32,51.3,16.16,77.21,10.5
		c27.25-5.75,52.12-21.85,68.63-44.27c1.3-2.01,3.51-3.84,3.26-6.46c-0.01-53.21,0-106.42-0.01-159.63
		C68.78,323.37,4.74,323.17-59.28,323.4z"/>
	<path class="st2" d="M52.7,338.6c2.51-2.37,6.02-3.03,9.21-4.01c-0.08,0.9-0.26,2.69-0.35,3.59c1.55,1.37,2.95,3.88,5.39,2.92
		c12.9-2.26,26.08-2.39,39.12-1.51c1.31,0.27,3.22-0.06,4.01,1.33c2.91,4.94,5.38,10.12,8.38,15c-0.83,2.7-1.66,5.39-2.46,8.09
		c-3.74-2.05-7.56-4.53-11.98-4.56c-3.33-0.14-6.51,1.33-8.99,3.45c-5.62,4.75-10.7,10.67-12.66,17.9
		c-2.01,8.43,5.02,17.51,13.64,17.72c7.23-0.1,13-5.49,16.57-11.32c-0.52,11.6-0.88,23.19-1.18,34.8
		c-12.92-9.37-27.35-17.05-43.08-20.37c-10.35-2.09-21.5-3.27-31.57,0.71c-0.2-0.4-0.6-1.2-0.8-1.6c6.89-3.53,12.84-8.61,19.7-12.23
		c3.1-1.76,6.47-3.03,9.5-4.93c-2.24,0.06-4.47,0.4-6.6,1.1c-16.08,5.49-30.45,14.75-45.65,22.16c13.63-11.9,28.48-22.42,44.2-31.39
		c-5.67-0.11-11.11,1.83-16.26,4.01c-11.91,5.25-22.97,12.22-33.66,19.6c-4.05,2.76-7.91,5.86-12.37,7.95
		c16.4-12.56,29.49-29.5,48.33-38.74c-3.14-0.5-6.36-0.09-9.29,1.15c-13.9,5.47-25.29,15.41-37.12,24.24
		c-9.14,6.93-19.06,12.87-29.61,17.38c-6.85,2.77-14.04,5.11-21.49,5.43c13.48-6.86,24.91-16.88,36.54-26.38
		c14.52-11.94,29.09-23.89,44.82-34.22c6.92-4.56,14.61-7.8,22.4-10.55C50.23,342.98,50.73,340.31,52.7,338.6 M71,354.45
		c4.4-0.72,8.73-1.79,13.11-2.61c-1.74-2.68-5.32-3.1-7.98-4.49C74.48,349.76,72.74,352.11,71,354.45z"/>
</g>
</svg>
