<?xml version="1.0" encoding="utf-8"?>
<!-- Generator: Adobe Illustrator 19.0.0, SVG Export Plug-In . SVG Version: 6.00 Build 0)  -->
<svg version="1.1" id="Layer_1" xmlns="http://www.w3.org/2000/svg" xmlns:xlink="http://www.w3.org/1999/xlink" x="0px" y="0px"
	 viewBox="-147 343 300 154.9" style="enable-background:new -147 343 300 154.9;" xml:space="preserve">
<g id="_x23_000000ff">
	<path d="M-58.1,343c12.2,26.4,24,53,36.1,79.4c6.3-13.9,12.6-27.9,18.9-41.8c11.4,0,22.7,0,34.1,0c-17.7,39.1-35.3,78.2-53.1,117.2
		C-34,471.5-45.8,445.3-57.7,419c-0.2,0-0.6,0.1-0.8,0.1c-11.9,26.2-23.7,52.5-35.6,78.7c-17.8-39-35.4-78.1-53-117.3
		c11.4,0,22.7,0,34.1,0c6.3,13.9,12.6,27.9,18.9,41.8C-82,395.9-70.1,369.4-58.1,343z"/>
	<path d="M37.5,376.9C54.9,416,72.7,455,90.3,494.1c-11.4,0-22.8,0-34.1,0c-11.6-26.2-23.3-52.4-34.9-78.7
		C24.7,406.8,35.6,380.8,37.5,376.9z"/>
	<path d="M45.3,380.6c35.9,0,71.8,0,107.7,0c-8.4,18.5-16.8,37-25.2,55.5c-1,1.5,0.3,2.9,0.8,4.3c8.2,17.9,16.2,35.8,24.5,53.7v0.1
		c-11.4,0-22.8,0-34.1,0c-8.6-19-17.3-37.9-25.8-57c4.1-8.7,8-17.5,11.9-26.3c-15.2,0-30.4,0-45.6,0
		C54.7,400.7,49.9,390.7,45.3,380.6z"/>
</g>
</svg>
