<?xml version="1.0" encoding="utf-8"?>
<!-- Generator: Adobe Illustrator 19.0.0, SVG Export Plug-In . SVG Version: 6.00 Build 0)  -->
<svg version="1.1" id="Layer_1" xmlns="http://www.w3.org/2000/svg" xmlns:xlink="http://www.w3.org/1999/xlink" x="0px" y="0px"
	 viewBox="110.1 5.1 811.9 832.4" style="enable-background:new 110.1 5.1 811.9 832.4;" xml:space="preserve">
<style type="text/css">
	.st0{fill:#050505;}
</style>
<g id="_x23_050505ff">
	<path class="st0" d="M466.2,9.1c5.5-2.9,11.7-3.9,17.8-3.8c3.7,0,8.4-1.1,10.5,2.9c3-0.3,6,0.4,8.1,2.7c1.9,0.7,3.8,1.4,5.6,2.2
		c-1.9,0-3.8,0-5.6,0.2c1.2,1.2,2.6,2.2,4,3.2c-4-0.7-8.2-1.1-11.9,0.9c0,6.5-0.1,13,0.1,19.5c0.1,2.5-1.6,4.5-1.6,7
		c-0.1,2.6-0.1,5.1-0.3,7.7c-1.1-0.8-2.1-1.7-3.1-2.5c0.2,1.3,0.6,3.8,0.8,5.1c-1.9-1.4-3.5-3.1-4.7-5.1c0,1.9,0,3.7-0.1,5.6
		c-1.4-1.5-2.7-3.2-3.7-5c-0.1,1-0.3,3-0.4,3.9c-1-1.4-1.9-2.8-2.8-4.3c-0.3,0.5-0.9,1.3-1.2,1.8c-1-3.9-1-8.2-3-11.9
		c-2.1-4-3-8.4-4.5-12.6c-2.1,0.5-4.1,1-6.2,1.5c0-2.7-0.1-5.9,3.1-6.7c-0.4-1.3-0.8-2.5-1.2-3.8c-2.9,1.6-5.8,3.1-9,4.2
		c-3.3-1-6.8-1.3-10.2-1.4c2-2.9,3.8-6.1,6.9-7.9C457.7,10.9,462.3,11.3,466.2,9.1z"/>
	<path class="st0" d="M541.3,21.6c2.1-5.3,4-10.9,7.4-15.5c1.4,0.7,2.8,1.3,4.2,2c3.1,3.6,3.9,9.4,0.9,13.3c1.8,0.4,3.5,0.9,5.3,1.3
		c0.2,0.4,0.5,1.3,0.6,1.8c-2,0.7-4.1,1.2-6.2,1.3c3.4,5.7,2.4,12.6-0.7,18.1c-0.4-0.5-1.2-1.5-1.5-2l0.5,2
		c-1.3-0.4-2.6-0.3-3.8,0.4c-2.4-4.6-4.7-9.3-6-14.4c-0.7-2.1,0.4-3.9,2.1-5c-4.2,0.4-9.6,3.2-12.6-1c0.9-1.1,1.6-2.3,2.7-3.2
		C536.5,19.9,539,21.1,541.3,21.6z"/>
	<path class="st0" d="M412.3,21.9c1.4,0.3,2.8,0.7,4.2,0.5c0.3,0.4,0.9,1.2,1.2,1.6c2.8-1.9,4.1,2.2,5.7,3.8
		c0.4-0.1,1.1-0.4,1.5-0.6c1.6,4.2,2.5,8.6,3.8,12.9c0.8,2.8-1.2,5.2-2.1,7.7c3.8,0.4,7.6,1,11.4,0.2c-0.4,0.6-1.2,1.7-1.6,2.3
		c1,0,3-0.1,4-0.1c-4.1,2.3-7.7,5.7-12.7,5.7c1.6,4,5.8,6.6,6.2,11.1c0.9,5,2.1,9.9,2.2,15c-0.6-0.3-1.7-1-2.3-1.4
		c0.1,3.3-0.1,6.7-0.8,9.9c-0.9-1.4-1.7-2.9-2.6-4.3c0,1.9-0.1,3.8-0.1,5.7c-1.1-1-2.2-1.9-3.3-2.9c-0.4,1.2-0.8,2.4-1.2,3.6
		c-1.3-1.3-2.8-1.8-4.5-1.5c0.1-0.6,0.2-1.9,0.3-2.5c-0.5-0.3-1.4-0.9-1.8-1.2c-3.2-5.8-7.5-10.8-10.8-16.5c-1.5-2.7-2.5-5.8-2.2-9
		c0.8-1.4,2.5-2,3.8-3c-5.6,0.7-10.7,3.2-16,4.9c-3.1,1.5-5.6-1.6-8-3c1.2-2.6,1.6-6.2,4.6-7.4c4.2-1.5,8.7-0.8,12.9-0.3
		c-0.6-8.3,4-15.7,4.2-23.9c0.9-1.3,1-2.6,0.1-3.9C410.5,25,411.3,23.3,412.3,21.9z"/>
	<path class="st0" d="M598.2,29.3c4.3-4.1,12.2-5.9,17-1.5c-0.9,0.1-2.7,0.5-3.6,0.6c0.1,3.2-0.1,6.4-0.7,9.5c-0.7,0-2.2-0.1-3-0.1
		c-2.6-1.6-1.2-6.9-5-7c0.4-0.5,1.1-1.6,1.5-2.1C602.4,29.4,600.3,29.5,598.2,29.3z"/>
	<path class="st0" d="M510.9,36.9c2.2-2.9,5.6-5.5,9.5-4.6c0.2,0.7,0.5,2,0.7,2.6c-1.6,1.6-3.5,2.8-5.4,4c1.2,0.9,2.5,1.7,3.7,2.6
		c-1,0.1-3,0.2-4,0.2c0.5,1.7,1.2,3.4,2.2,4.9c1,1.3,3.2,3.1,1.4,4.7c-4.1,0.3-7.5-2.8-8.5-6.6C506.3,43.6,507,37.8,510.9,36.9z"/>
	<path class="st0" d="M652.6,42.3c2.6-1.2,3.3,2.8,4.2,4.4c-0.8,2.2-1.6,4.4-3.3,6c1.2,1,2.3,2,3.4,3.1c-1.7,0-3.3-0.1-4.9-0.3
		c0.4,4.2-1.5,8.3-4.8,10.9c-1.5-0.4-4.1-0.3-3.8-2.5c-0.1-3.9-0.8-8.2,1.4-11.8c-2.6-0.5-5.7-0.6-6.7-3.5c2.4-2.1,5.1-0.8,7.2,1
		C647.7,47.1,649.9,44.5,652.6,42.3z"/>
	<path class="st0" d="M576.3,57.1c2.1-3.3,7-7.1,10.5-3.5c-0.7,1-1.3,2-2,3c-1.3,0.7-2.5,1.4-3.8,2.2c1.2,0.9,2.5,1.8,3.7,2.7
		c-1,0.1-3,0.2-4,0.3c0.5,3.4,4,5.6,4.1,9c-4,1.8-8-2.4-9.1-6.1c-3.4-0.9-2.9-4.2-2-6.8C574.5,57.7,575.7,57.3,576.3,57.1z"/>
	<path class="st0" d="M523.8,64.6c3.9-1.7,8.2-1.4,12.4-1.5c0.6,0.5,1.1,1,1.7,1.5c2.7,0.5,5.1,1.8,7.6,2.9l-2.7,0.2
		c0.3,0.4,0.9,1.3,1.2,1.7c-2-0.4-4-0.2-6,0.4c0.3,6.1-0.2,12.2-1,18.3c-0.5,0.5-1.5,1.6-2,2.1c-0.4-0.6-1.3-1.9-1.7-2.5
		c-0.1,0.8-0.2,2.3-0.3,3.1c-0.4-0.6-1.3-1.9-1.8-2.5c-0.2,0.4-0.5,1.3-0.7,1.8c-0.5-0.6-1.6-1.7-2.1-2.2c-0.8-4.5-2.9-8.6-4.3-13
		c-1.2,0.4-2.4,0.7-3.5,1.1c0.5-2,1.5-3.8,1.6-5.9c-3.3,2.3-7.3,2.4-11.1,1.4c1.3-1.5,2.3-3.4,4.1-4.3
		C518.1,66.3,521.1,65.8,523.8,64.6z"/>
	<path class="st0" d="M341.4,71.5c5.1-1.7,9.1-5.6,14.5-6.4c4.3-1.4,8.5,0.5,12.7,1.3c0,0.6,0,1.9-0.1,2.5c-1.7,0.4-3.4,0.9-5,1.6
		c1.3,5.9,2,11.9,2.2,17.9c-0.4,0.9-0.9,1.9-1.3,2.8c-0.8-0.7-1.7-1.4-2.5-2.2l0.2,3c-0.5-0.5-1.5-1.5-2-2l-0.3,1.5
		c-0.7-0.4-2-1.2-2.7-1.6c-1.5-4.3-4.2-7.9-6.2-11.9c-0.9,0.4-2.6,1.1-3.4,1.5c0.3-2,0.8-4,0.6-6c-3,2.7-6.8,3.7-10.8,3.3
		C338.6,74.9,339.3,72.4,341.4,71.5z"/>
	<path class="st0" d="M464.8,69.6c2-0.7,3.9,0.6,5.8,1.1c0,1.2,0.4,2.2,1.1,3.1c-0.7,0.8-1.4,1.7-2,2.5c-0.7,3.7-7.3,2-7.1,6.3
		c1.9,1.5,4,2.8,5.9,4.4c-2.3,0-4.5,0-6.8,0c0,2.8,0.6,5.7,3.2,7.2c-0.2,0.4-0.6,1.1-0.7,1.5c1.8,1.3,3.4,2.8,4.6,4.6l-0.5,1.2
		c0.5,0.1,1.4,0.4,1.8,0.5c-1.2,1-2.3,2.1-3.3,3.2c-6.9-0.7-13.7-5.7-14.4-13c-2-0.5-3.8-1.3-5.4-2.5c-0.1-3.2-0.2-6.6,1.8-9.3
		c1.2-1,2.9-1.1,4.4-1.6C455,73.9,460.2,71.7,464.8,69.6z"/>
	<path class="st0" d="M490,81.1c1-2.8,0.4-6.8,2.7-8.8c3.8,0.3,4.8,4.4,4.3,7.5c0.9,0.1,2.8,0.4,3.7,0.5c-1.2,0.7-2.4,1.4-3.6,2
		c2.1,2.8,2.6,6.4,1.2,9.7c-0.9,0.2-1.8,0.3-2.8,0.5c-2-2.9-4.3-5.7-5-9.2c-1.8,0.5-3.8,1.9-5.5,0.4C485.2,81,488,81.2,490,81.1z"/>
	<path class="st0" d="M319.9,75.2c1.4,0.6,2.8,1,4,1.9c1.8,1.9,1.8,4.8,1.5,7.2c1,0.1,3.1,0.3,4.1,0.5c-1.2,0.9-2.5,1.8-3.9,2.6
		c2.5,3,2.8,7.1,1.7,10.7c-1.1,0.4-2.2,0.8-3.3,1.3c-2.1-3.5-5.9-6.7-5.5-11.2c-1.7,0.7-3.5,1.3-5.2,2c-0.5-0.5-1.5-1.4-2-1.9
		c1.3-2.4,3.7-2.4,6.1-2.3C317.9,82.2,318.8,78.7,319.9,75.2z"/>
	<path class="st0" d="M688.8,78.5c1.6-0.8,3.2-2,5.1-1.6c3.6,0.2,7.3,0,10.8,1.2c3.1,1,5.2,3.7,7.3,5.9c-1.7,0.3-3.4,0.1-5.1-0.2
		c-1.3,4.1-3.1,8.1-5.1,11.8c-1.3-0.3-2.6-0.4-3.9-0.3c-2.5-3.3-0.8-7.6-1.1-11.3c-0.7-0.2-2-0.6-2.7-0.8c0.7-0.7,2-2.2,2.7-3
		C693.9,80.9,691.2,80.2,688.8,78.5z"/>
	<path class="st0" d="M384.2,97.1c3.8-1.4,6.9-4.4,11.1-4.6c0,0.5-0.1,1.5-0.1,2c1.1-0.5,2.2-1.1,3.4-1.6c0,0.5,0.1,1.5,0.2,2
		c1.5,0.3,3.1,0.5,4.6,1c-1.2,0.8-2.4,1.6-3.5,2.3c1.8,0.2,3.6,0.4,5.4,0.6c-0.9,0.6-2.6,1.7-3.4,2.3c0.6,0.5,1.9,1.4,2.5,1.9
		c-2.1,0.7-4.1,1.6-5.9,2.8c0.6,0.2,1.8,0.7,2.3,0.9c-3.2,2.6-7.2,3.4-10.9,5.1c-2.3,1-3.1,5.4-0.2,6.2c3.4,1.3,5.9,3.8,8.4,6.3
		c-3.9-0.4-7.8-0.5-11.7,0c0.1,2.8,0.1,5.6,1.2,8.2c1.2,2,3.3,3.3,5,4.9c-0.6,0.3-1.7,1-2.3,1.3c2.1,2.5,4.7,4.4,7.5,5.9
		c-0.5,0.3-1.5,0.8-2,1c1.6,1,3.3,2,4.9,3c-1.1-0.1-3.2-0.2-4.3-0.2c1.7,1,3.4,2,5,3.2c-1.1,0.1-3.3,0.2-4.4,0.3
		c0.6,0.7,1.9,2,2.5,2.6c-1-0.1-3.1-0.3-4.1-0.4c0.1,0.7,0.4,2.1,0.5,2.7c-1.1-0.7-2.2-1.4-3.3-2.2c-0.3,0.3-1.1,1-1.4,1.3
		c-6.7-3.1-14.3-6.3-18.1-13c-2-3.1-2.4-6.7-3.1-10.2c-3.7,0.6-6.6-1.5-9.1-4c-1.4-5.5-0.1-11.4,2.6-16.3c2.1-2,5.5-1.3,7.9-2.8
		c1.7-2.5,2.5-5.6,4.8-7.5C378.7,100.1,381.3,98.2,384.2,97.1z"/>
	<path class="st0" d="M302.9,107.5c7-1.6,14-2.9,21.1-4.3c3.8-0.9,6.9,1.7,8.9,4.6c5.4-2.1,12.1-2.3,16.1,2.5
		c3.8-0.2,7.6,0.1,10.8,2.3c-3.4,0-6.9,0.4-9.6,2.6c2.6,1.5,5.5,2.5,8.4,3.4c-3,1.2-6.3,0.8-9.5,0.8c-4.5,0.9-9.1,2.3-12.5,5.6
		c2.3,12.7,3.8,25.6,7,38.1c0.8,4.1-2.6,7.7-1.5,11.8c1.3,4.8,2,9.7,2,14.6c-2.4-0.8-4.5-2.1-6.4-3.6c1.1,3,2.3,5.9,3.2,9
		c-4.3-1.1-7.6-4.2-10-7.9c0.2,3.5,0.8,6.9,1,10.3c-3.3-1.8-5.9-4.7-8.2-7.7c0.2,2.4,0.3,4.7,0.3,7.1c-2.9-1.7-5-4.5-6.5-7.4
		c-0.5,1.5-1,2.9-1.6,4.4c-3.9-6.8-5-14.8-9.1-21.5c-0.5-0.2-1.6-0.7-2.1-0.9c-3.6-6.9-7.4-13.7-10.8-20.7c-4.6-0.8-7.3,4-11.6,3.7
		c-0.4-2.7-1.1-5.4-1-8.2c0.3-2.2,2.7-3.1,4.3-4.3c0.1-2.9-1.7-5.1-3.7-7c-5.1,3.7-9.7,8.3-15.7,10.7c-6.3-1.3-12.7-0.1-19,0.8
		c2.5-6.4,5.3-13.1,10.7-17.7c5.2-2.8,11.1-4,16.5-6.4c3.9-1.4,6.5-4.9,10.1-6.8C290.3,112.1,296.3,109,302.9,107.5z"/>
	<path class="st0" d="M254.1,158.9c0.6-3.6,1.4-7.2,2.6-10.6c3.6,0.6,5.5,3.4,6,6.8c-0.2,0.6-0.6,1.7-0.8,2.2
		c1.1,0.1,3.3,0.4,4.4,0.6c-1.3,0.9-2.6,1.7-3.9,2.5c2.5,3.1,3.2,7.3,1.3,10.9c-0.7,0.3-2,0.9-2.7,1.2c-2.3-3.5-6.2-6.8-5.6-11.3
		c-2.4,1-5,2.5-7.4,0.8C248.9,159.1,251.6,158.7,254.1,158.9z"/>
	<path class="st0" d="M199.5,151.8c5.7-0.3,11.1,1.7,16.2,4.1c0.2-0.9,0.5-2.7,0.7-3.6c7.4,3.1,13.2,8.8,18.8,14.3
		c4.1,4.2,10.7,6.1,12.7,12.1c1.4,4.7,1,9.8,3.2,14.4c5.1-4.8,11.8-7,17.6-10.6c2-2,3.7-4.3,5.8-6.2c0.1,2.5,0.2,5,0.3,7.5
		c2.6-1.8,4.9-4,6.9-6.4c0.7,3.9-1.8,6.8-4.1,9.6c-0.1,3.2-0.4,6.5-2.1,9.3c-2.4,4.6-7.5,6.7-10.2,11.1c1.8,1.4,3.5,2.8,5.5,3.8
		c4.8,2.4,10.5,2.2,15.3,4.8c6.7,3.4,10.6,10,16.3,14.8c6.2,6.2,13.8,11.9,16.8,20.4c-2.1-0.4-4.2-0.7-6.3-0.9
		c5,7.1,11,14,12.4,22.8c-2.9-3-6.6-4.7-10.6-5.6c1.8,4.5,6.6,7.1,7.2,12.1c-3.5-1.3-7.2-1.5-10.9-1.5c2,2.9,3.5,6.3,2.4,9.9
		c-2.2-0.7-4.5-1.3-6.8-1.5c-1.2,1.6-2.4,3.2-3.7,4.8c-0.9-2.6-2.3-5-4.3-7c-1.5,0.4-2.9,0.8-4.4,1.2c-1.8-1.5-3.8-2.7-5.8-3.8
		c-3.2,5.9-5.7,12.1-9.1,17.8c0.8-6.6,3.9-12.5,5.6-18.9c-0.7-0.3-2.2-0.9-3-1.2c-1.6,2.9-2.7,6-4.4,8.8c-2.9,2.8-6.8,4.1-10.2,6
		c2.7,4.4,6.2,9.3,4.8,14.8c-1.7,6.4-4.2,13-2.7,19.8c-3.5-1.2-7-2.3-10.5-3.6c2.8,5.8,4.2,12.5,3.2,18.9c-1.5,7-7.9,10.9-12.2,16
		c2.3,3.7,6.5,7.2,5.3,12c-2.5,12.8-7.7,24.8-13.8,36.3c-1.7,3.3-1.1,7.1-0.8,10.7c1,7.5,3.1,14.9,5.5,22c-2.7-2.2-6.2-5.8-10-4.2
		c-0.6,3,1.3,5.6,2.5,8.1c1.9,0.8,4.6,1.5,4.8,4c0.3,3.5-3.1,6.4-2.6,10c0.4,1.9,2.4,2.4,3.8,3.4c0.4,7.3,1.4,14.5,0.7,21.8
		c-2.9,0.6-5.8,0.5-8.7,0c2.5,3.8,4.6,7.9,6.3,12.1c2.3,0,4.6-0.4,6.8-1.1c0.9,5.3,2.5,10.4,2.9,15.8c-3.6-2-7.1-4-10.6-6
		c0.9,4.4,1,9.1,2.7,13.3c2.8,3.8,7.2,6.2,9.3,10.6c0.5-0.3,1.6-0.9,2.1-1.2c2.7,7.2,4.6,14.7,5.4,22.4c-3.7-2.3-7.4-4.8-11.1-7.1
		c1,3,2.3,5.9,3,9c0.3,2.8-1.8,5.6-0.9,8.5c1.3,4.3,2.9,8.4,4.5,12.6c2.4-2,3.8-4.9,6.2-6.8c1.1,0.2,2.1,0.4,3.2,0.7
		c1.4-6.1,0.2-12.4-0.2-18.6c5.1,19.8,13.2,38.5,21.1,57.3c-3.5-1.2-7.3-2.7-11-1.2c-0.2,0.3-0.6,0.9-0.7,1.2
		c4.3,4.9,10.7,7.7,14.4,13.3c1.5,0.3,3.2,0.5,3.8,2.1c4.6,6.3,2.4,14.5,4.6,21.5c4,7.9,11.5,13.2,18.4,18.6
		c6.9,5.3,13.1,11.7,18.1,18.9c6.8,9.5,10.9,21.2,20.7,28.3c5.8,3.6,12.2,6.2,18.1,9.5c-10.3-16-19.8-32.6-27.5-50
		c-5.5-12.7-10.5-25.8-11.9-39.7c-3.2,16.8-0.5,34.7,8.3,49.5c-11.3-8.7-18.9-21.3-24-34.4c-5.7-14.6-8.5-30.2-9.8-45.8
		c-2.5,12.7-2.1,25.7-1,38.5c-8.5-15.5-9.3-33.7-9-51c0.5-16.4,2.7-32.7,6-48.7c-4.5,6.4-8.9,13.1-15.4,17.7c0-13-0.8-26-1.6-38.9
		c-0.6-13.5-0.8-27.6,4.7-40.3c11.2-25.8,27.1-49.4,45.9-70.3c6.9-7.7,14.2-15.1,22.2-21.7c6.8-5.5,10.9-13.5,14.9-21.1
		c13.3-27.3,22.1-56.6,36.8-83.3c5.4-9.5,11.5-19,20.4-25.6c3.5-2.8,6.1-6.5,9.2-9.8c10.2-11.4,21.9-21.9,36.1-28
		c17.7-7.9,38-7.5,56.4-2.6c20.5,6.1,39.6,20.3,47.8,40.5c20.5-0.8,41.6,4.4,58.2,16.7c11.2,8.2,19.8,19.8,25.3,32.5
		c-4.6-2.7-9-5.9-13.8-8.2c-1.9-0.9-3.9-0.2-5.8,0.1c-13,2.5-26.1,4.3-39.3,5.9c-6.7,0.9-13.5,1.6-20,3.8c-2,0.5-3.1,2.3-4.4,3.8
		c-5.4,6.6-11.7,12.5-18.6,17.6c-0.2,10.6-0.7,21.3-3,31.7c-1.5-2.4-3.1-4.8-4.7-7.2c0,5.5-0.2,11-0.5,16.4
		c-1.7-4.4-4.4-8.2-7.6-11.6c4.3,12.3,4.1,25.7,1.1,38.3c7.9,7.9,16.4,15.1,24.2,23.1c3.5,3.5,6.7,7.4,8,12.3
		c4.9,15.6,16.8,27.3,27.6,39.1c10.5,11.3,19.5,24.2,25.8,38.3c9.5,21.2,16.1,43.6,19.4,66.6c3.2,21.3,3.5,42.8,6.3,64.1
		c2.6,19.6,9.4,38.4,16.9,56.6c3.3,8.7,7.8,17,9.2,26.2c-8.3-11.1-16.6-22.3-27.3-31.2c-3-2.5-6.3-4.5-9.8-6.1
		c12.8,12,20,28.6,24.5,45.3c1,4,2.4,8,1.6,12.2c-1.9,12.9-3.6,25.8-5.4,38.8c19.1-4.7,37.5-12.1,55.9-19.2c11-4,21.1-10,31.6-15.3
		c29.3-16.1,55.5-37.2,78.9-61C858,660,876.8,635,892,607.9c12.3-22.4,22.5-45.9,30-70.3c-13.7,49.5-37.7,95.8-68.6,136.8
		c-8.7,11.5-18.3,22.3-28.1,32.9c-11.2,11.8-22.8,23.3-35.6,33.4c-49.5,41.6-108.8,71.6-171.8,86.2c-39.3,9.3-80.1,12.5-120.4,9.8
		c-33.1-2.2-65.9-8.6-97.6-18.4c-69.1-20.4-132.3-60.1-181.2-113c-53.4-57.6-89.6-130.9-102.7-208.3c-17.3-99.5,3.7-205,58-290.2
		c-2.7-0.3-5.8,0-7.6-2.4c-0.6,2.5-1,5.5-3.8,6.5c-1.8-2.4-0.4-4.7,1.3-6.7c-2.1-2.4-4.4-4.6-6.4-7.2c-0.8-2.6,2.6-2.9,4.2-3.6
		c1.4,0.6,2.8,1.2,4.1,1.8c0.3,0.4,0.9,1.3,1.2,1.8c1.1-1.1,2.2-2.2,3.4-3.3c-0.2,1.6-0.4,3.2-0.6,4.7c2.8,0,5.5,1.1,7.9,2.5
		c3.8-5.8,7.7-11.4,11.8-17c-1.5-1.3-3.1-2.5-4.9-3.5c0.6-1.6,1.2-3.1,1.9-4.6c-1.6-2.2-4.1-3-6.6-3.4c1.4-1.7,2.9-3.3,4.6-4.8
		c-0.6-3-1.3-6-2-9c2.6-0.7,5.3-0.6,7.8,0.2c0.4-1.7,0.7-3.3,1.1-5c2.6,0.8,5.3,1.7,7.9,2.5C199.5,154.8,199.5,153.3,199.5,151.8
		 M216,210.9c-4,1.1-7,4-10.9,5.3c-2.8,0.7-3.8,3.4-5,5.7c2.5-0.3,5.4,0.4,7.5-1.3c1.3-0.7,2.5-2.1,3.9-1c-0.9,1.5-1.4,3.1-1.3,4.9
		c0.8-0.3,2.4-1,3.1-1.3c2.4,3.6,4.8,7.2,6.2,11.3c0.4,0.3,1.1,0.9,1.5,1.3c0.4-0.1,1.4-0.2,1.8-0.3c0.7,0.5,1.4,1,2.1,1.5
		c-0.2-0.7-0.6-2.2-0.8-2.9c0.6,0.5,1.9,1.6,2.6,2.2c0.4-1,0.9-2,1.3-3c0.2-5.9-0.9-11.7-2-17.4c2-0.9,4-1.8,5.9-2.8
		c-1.8-1.9-4.3-2.5-6.8-2.3c-0.5-0.3-1.6-0.9-2.1-1.2C220.8,209.9,218.4,210.3,216,210.9 M207.3,256.3c-0.3-0.4-0.9-1.3-1.2-1.7
		c-0.6,1.4-1.2,2.9-1.8,4.3c-0.3-0.6-0.8-1.7-1-2.3c-1.9,2.5-2.9,5.6-3.6,8.6c-1.9,4.3-3.5,8.8-3.2,13.6c0.3,2.4,1.3,4.8,2,7.1
		c-1.4,2.3-3.2,4.3-3.9,6.9c1.5,5.2,4.2,10.6,9.2,13.3c3.5,1.2,7.4-0.3,9.7-3.1c5.6,4.8,13.4,7.3,20.6,5.1c4.1-0.3,7.4-3,11.4-3.3
		c-0.4-0.4-1.1-1.3-1.5-1.7c1.5-0.3,3-0.6,4.5-0.9c-0.7-0.6-1.3-1.2-2-1.8c1-0.8,2.1-1.5,3.1-2.3c-0.9,0-2.7-0.1-3.6-0.1
		c1-1.1,2-2.3,2.9-3.4c-1.5,0.4-4.4,1-5.9,1.4c0.8-0.7,2.5-2.2,3.3-2.9c-1.8,0.4-3.5,0.9-5.3,1.3c0.1-0.5,0.2-1.5,0.3-2
		c-3.1,0.8-6.3,1.3-9.4,0.8c0.2-0.6,0.6-1.8,0.9-2.4c-2.2,0-4.5,0.5-6.7,0.1c-2.7-1-4.8-3.2-6.9-5.1c2.3-3.1,5.2-5.7,8.1-8.2
		c-3.5-0.3-7.1,0.1-10.4,1.4c-2.3,1.2-3.6-1.5-4.2-3.2c0.8-4.4,4-8,4.5-12.5l-2.4,0.6c0.6-2.1,1.3-4.1,2.3-6
		c-0.8,0.1-2.3,0.4-3.1,0.5c0.2-1,0.6-3,0.8-4c-1.4,1-2.8,2.2-4.1,3.3c0.1-1.1,0.4-3.3,0.5-4.4C209.9,254.3,208.6,255.3,207.3,256.3
		 M205,343.9c-1.9,2.2-3.8,4.5-4.8,7.3c-1.1,3.9-4.2,7.6-2.5,11.8c2.7-1.9,4-4.8,5.3-7.6c0.7,1.3,1.4,2.6,2.1,3.9
		c0.3-0.7,1-2,1.3-2.6c3.5,1.2,7.1,2.4,10.6,3.9c1.2-1.1,2.4-2.1,3.7-3.1c-0.1-0.6-0.2-1.8-0.2-2.4c-3.2-3.4-6.6-6.5-10.4-9.2
		c0.5-1.1,1.1-2.3,1.6-3.4c-0.1-0.5-0.2-1.7-0.2-2.2C209.5,341.8,207.3,343.1,205,343.9 M538.7,379.6c1.9,3.6,4.5,6.9,7.4,9.8
		C544.4,385.6,541.9,382.2,538.7,379.6z"/>
	<path class="st0" d="M293,195c1.6-4,5.8-5.5,9.2-7.3c1.7,0.5,3.3,1.3,4.9,2.2c-0.7,1.6-1.6,3.1-2.7,4.6c-1.5,0.9-4.6,0.9-4.3,3.2
		c1.3,1.1,2.8,2.1,4.2,3.1c-1.7,0.1-3.3,0.2-5,0.3c0.2,1.1,0.4,2.3,0.7,3.4c0.7,1,1.4,2.1,1.9,3.2c2.2,1.6,3.1,4.1,2.5,6.8
		c-5.6,0-11.1-3.8-12-9.5c-1.3-0.6-2.7-0.9-3.6-2c-0.9-2.4,0.3-4.8,1-7.1C290.8,195.5,291.9,195.2,293,195z"/>
	<path class="st0" d="M834.6,203.1c2.1-0.3,3.1-2.1,3.9-3.9c1.2,1,2.5,1.7,4,0.9c0.5,0.6,0.9,1.2,1.4,1.9c0.5-0.3,1.4-0.8,1.9-1
		c1.6,1.6,2.6,4.6,5.3,4.5c1.5,3.8,2.3,7.9,3.5,11.8c1.2,3-0.9,5.8-2,8.4c3.8,0.3,7.6,0.9,11.4,0.2c-0.4,0.6-1.2,1.7-1.6,2.3
		c0.9,0,2.8-0.1,3.8-0.1c-3.9,2.3-7.4,5.8-12.3,5.5c1,4,5.2,6.2,5.8,10.3c1,5.3,2.3,10.6,2.4,16c-0.6-0.4-1.7-1.1-2.3-1.5
		c0.1,3.3-0.1,6.7-0.8,10c-0.8-1.4-1.7-2.9-2.5-4.3c0,1.9-0.1,3.8-0.2,5.7c-1.1-1-2.2-2-3.3-2.9c-0.4,1.2-0.7,2.4-1,3.6
		c-1.4-1-2.9-2-4.7-1.6c0.1-0.5,0.2-1.6,0.2-2.2c-3-2.9-4.8-6.8-7.3-10.1c-3.2-4.8-7.4-9.7-7.4-15.7c-0.3-2.3,2.5-2.9,3.8-4.2
		c-6.2,0.8-11.8,3.9-17.8,5.4c-2.4-0.2-4.2-2.3-6.2-3.5c1.2-2.6,1.6-6.2,4.6-7.4c4.2-1.5,8.7-0.7,13-0.3c-0.6-8.3,4-15.8,4.2-24
		C835.4,205.7,835.5,204.4,834.6,203.1z"/>
	<path class="st0" d="M280.7,309.9c0.2-3.6,3.6-5.7,6.4-7.1c1-0.6,3.2,0.4,2.5,1.7c-0.8,1.2-2.3,1.8-3.4,2.7
		c0.6,0.4,1.7,1.1,2.3,1.4c-0.7,0.2-2,0.6-2.7,0.8c1.3,1.9,2.8,3.9,3,6.3c-2.8-0.4-5.3-2-6.2-4.8
		C282.1,310.7,281.2,310.1,280.7,309.9z"/>
</g>
</svg>
