<?xml version="1.0" encoding="utf-8"?>
<!-- Generator: Adobe Illustrator 19.0.0, SVG Export Plug-In . SVG Version: 6.00 Build 0)  -->
<svg version="1.1" id="Layer_1" xmlns="http://www.w3.org/2000/svg" xmlns:xlink="http://www.w3.org/1999/xlink" x="0px" y="0px"
	 viewBox="167 151.926 929.04 538.193" style="enable-background:new 167 151.926 929.04 538.193;" xml:space="preserve">
<style type="text/css">
	.st0{fill:#FFFFFF;}
	.st1{fill:#0F1219;}
	.st2{fill:#27AAE2;}
	.st3{fill:#1D75BD;}
	.st4{fill:#115989;}
	.st5{fill:#A8A9AD;}
	.st6{fill:#6C6D71;}
	.st7{fill:#053651;}
</style>
<g id="_x23_ffffffff">
	<path class="st0" d="M620.87,154.18c12.46-2.65,25.67-3.4,38.04,0.16c8.36,2.42,15.07,8.57,20.2,15.4
		c8.29,11.05,13.39,24.17,16.57,37.52c54.71-3.3,110.53,3.51,161.81,23.37c36.76,14.44,71.55,36.39,96.14,67.74
		c22.73,28.68,34.91,65.84,32.08,102.44c16.22-3.61,32.33-7.74,48.52-11.52c20.59-5.08,41.29-9.7,61.81-15.03
		c-33.94,19.25-66.71,40.47-100.03,60.78c2.64,19.29,5.94,38.5,8.83,57.76c-27.51,5.05-54.96,10.49-82.46,15.64
		c-3.72,0.45-4.48,4.94-6.63,7.4c-19.75,30.1-45.16,56.21-73.33,78.5c-32.62,25.7-69.12,46.34-107.56,61.98
		c-40.84,16.58-84,27.58-127.89,31.89c-47.43,4.59-96.15,1.26-141.53-13.9c-35.43-11.92-68.98-31.98-92.52-61.46
		c-23.96,4.42-47.91,8.94-71.83,13.61c6.93-20.48,13.9-40.95,20.57-61.51c-9.21-0.92-18.43-1.9-27.66-2.56
		c-22.68,0.17-45.34,0.63-68.02,0.76c-19.7,1.78-39.36,3.98-58.98,6.46v-0.32c15.78-3.62,31.37-8.09,47.07-12.04
		c38.95-10.16,77.9-20.35,116.86-30.46c2.4-0.63,4.68-1.63,6.99-2.51c-7.11-14.58-11.65-30.38-13.57-46.47
		c-3.68-30.54,2.99-61.7,16.31-89.23c16.38-33.84,41.83-62.6,70.78-86.27c46.65-38,102.74-63.09,160.77-77.97
		c3.29-11.2,9.73-21.16,13.03-32.35c3-9.46,7.42-18.53,13.63-26.3C604.25,159,612.82,156.16,620.87,154.18 M618.07,159.46
		c-5.75,1.75-11.79,4.04-15.67,8.88c-6.6,8.24-11,18.02-13.98,28.09c-3.76,10.8-9.83,20.7-12.86,31.78
		c-47.66,11.53-93.69,30.65-134.6,57.81c-31.08,20.76-59.35,46.36-80.54,77.31c-17.51,25.62-29.95,55.34-32.22,86.5
		c-2.27,26.88,3.82,54.17,16.28,78.02c-3.99,0.45-7.71,2-11.59,2.94c-35.65,9.17-71.25,18.57-106.94,27.63
		c20.99,0.43,42.01-0.36,63.01-0.35c8.04-0.39,15.99,0.99,23.98,1.58c4.93,0.62,9.93,0.67,14.82,1.59
		c-6.88,19.69-13.25,39.56-20.02,59.29c14.99-2.52,29.87-5.7,44.84-8.31c1.46-3.42,2.18-7.13,3.84-10.47
		c0.64,3.04,1.13,6.1,1.68,9.16c5.63-0.61,11.11-2.08,16.71-2.88c25.05,32.72,62.67,53.63,101.69,65.12
		c47.39,13.9,97.77,15.34,146.5,8.79c45.18-6.19,89.32-19.47,130.71-38.57c34.66-16.07,67.43-36.42,96.6-61.16
		c25.76-21.94,48.82-47.33,66.52-76.26c0.47-1.2,1.93-1.21,2.99-1.49c11.4-2.11,22.77-4.36,34.17-6.48c1.61-0.22,3.1-0.88,4.43-1.81
		c1.16,0.19,2.34,0.59,3.53,0.29c12.61-2.43,25.2-4.89,37.83-7.2c-2.71-18.83-5.97-37.59-8.61-56.43
		c15.07-9.13,29.97-18.53,44.99-27.74c9.85-6.28,20.07-12.01,29.69-18.63c-30.85,7.41-61.75,14.63-92.64,21.9
		c-8.46,2.06-17.39,2.47-25.53,5.65c1.06-19.51-1.43-39.25-8.04-57.67c-9.47-33.18-31.19-61.9-58.32-82.81
		c-8.55-6.89-17.99-12.51-27.2-18.42c29.07,11.55,56.93,27.24,79.5,49.14c22.64,21.57,39.49,49.72,45.38,80.61
		c1.19,5.26,1.28,10.7,2.37,15.98c0.88-13.06,0.02-26.23-2.67-39.04c-6.43-31.56-24.35-60.02-47.97-81.61
		c-28.1-25.88-63.19-43.16-99.56-54.07c-44.98-13.49-92.41-17.16-139.14-14.47c-2.49-13.09-7.25-25.9-14.73-36.97
		c-5.12-7.47-12.08-14.48-21.19-16.58C643.61,155.18,630.39,156.12,618.07,159.46 M900.33,284c12.96,12.21,23.9,26.59,32.22,42.35
		c6.53,12.12,10.63,25.32,14.65,38.43c3.84,13.9,5.66,28.36,5.32,42.79c9.01-1.75,18.06-3.32,27-5.43c0-0.14,0-0.42,0-0.56
		c-0.75,0.02-2.25,0.06-2.99,0.08c-1.13-15.4-4.95-30.59-11.11-44.75C952.12,326.54,928.33,301.36,900.33,284z"/>
	<path class="st0" d="M600.58,250.86c-0.58-3-2.23-6.38-0.7-9.3c2.81,1.26,5.76,2.21,8.8,2.75c-0.08,0.36-0.24,1.1-0.32,1.47
		c1.97-0.28,3.93-0.56,5.91-0.82c-1.38,1.21-2.77,2.42-4.14,3.64c5.61,0.27,10.52-2.48,15.21-5.17c0.03,4.05-0.52,8.07-0.81,12.1
		c-3.98-0.63-6.94-3.46-10.18-5.58c-0.39,3.81,1.02,7.36,2.7,10.69c-3.37,1.03-6.45,2.74-9.08,5.08c0.3-1.93,0.62-3.86,0.93-5.79
		c-0.55,0.24-1.64,0.72-2.19,0.95c0.05-1.25,0.1-2.5,0.16-3.75c-1.08,0.72-2.18,1.44-3.23,2.18c0.48-2.81,1.21-5.56,2.04-8.28
		c-1.87,1.88-3.58,3.91-5.48,5.77c0.85-2.7,2.01-5.28,2.91-7.96C602.48,249.34,601.21,250.36,600.58,250.86z"/>
	<path class="st0" d="M628.83,243.45c1.49,0.64,2.99,1.29,4.49,1.93c0.38-0.18,1.14-0.53,1.52-0.71c4.45,0.77,9,1.01,13.47,0.24
		c1.68,4.5,3.96,8.74,5.96,13.1c-0.06,1.28-0.15,2.55-0.25,3.82c-1.58-0.97-3.13-1.97-4.68-2.98c0.89,1.55,1.75,3.11,2.6,4.69
		c-1.88-1.15-3.77-2.28-5.7-3.33c-2.88,1.61-5.49-0.24-6.75-2.88c0.73-0.99,1.48-1.98,2.2-2.98c-4.25,2.18-8.73,4.93-13.72,3.78
		c-0.3-4-0.63-8.08,0.15-12.04C628.3,245.43,628.65,244.11,628.83,243.45z"/>
	<path class="st0" d="M698.53,248.61c43.07,2.82,86.39,13.04,123.9,34.97c26.49,15.49,49.99,37.59,63.07,65.7
		c10.81,22.92,13.83,49.26,9.03,74.11c-25.67,4.94-51.36,9.76-77.03,14.7c-1.87,0.28-3.72,0.97-5.61,0.83
		c-0.78-1.31-1.31-2.73-1.87-4.13c2.03,0.79,3.99,1.74,5.98,2.64c-7.38-15.36-15.56-30.67-19.11-47.48c2-0.44,4.3-0.92,5.43-2.84
		c2.3-3.68,1.07-8.24-0.1-12.1c-2.21-6.64-3.96-13.61-8.01-19.43c-1.7-2.57-4.23-4.42-6.16-6.79l0.48-1.19l1.54-0.26
		c4.78,4.25,10.61,7.48,16.93,8.75c5.34,1.16,11.15-1.69,13.54-6.58c1.23-2.7,0.22-5.75-1.29-8.09c-2.61-3.94-6.62-6.58-9.93-9.86
		c-3.44-3.09-6.79-6.67-11.29-8.13c-5.79-0.87-11.6,0.56-17.34,1.23c-2.27-2.73-3.23-6.5-5.09-9.58c1.95-2.25,3.81-4.58,5.7-6.89
		c6.98-0.73,14.39-2.35,19.62-7.39c5.12-4.62,7.48-12.36,4.85-18.87c-1.2-3.21-4.11-6.17-7.77-5.92c-4.07-0.36-7.68,1.81-10.88,4.03
		c-6.95,5.01-15.81,5.82-23.37,9.54c-2.76,1.87-4.62,4.75-6.78,7.23c-1.63-0.86-3.22-1.76-4.79-2.7c7.41-4.52,12.9-12.44,13.95-21.1
		c0.93-7.39-6.99-14.44-14.13-11.27c-10.45,6.49-20.78,13.31-30.03,21.46c-4.87-1.73-9.37-4.28-14-6.54
		c-1.28-0.4-1.82-1.65-2.14-2.83C702.99,265.55,700.55,257.13,698.53,248.61z"/>
	<path class="st0" d="M517.46,282.61c16.63-7.75,34.01-13.71,51.47-19.24c-0.74,3.26-1.55,6.52-2.69,9.67
		c-1.8,3.1-4.36,5.68-6.44,8.6c-1.41,1.59-2.47,3.94-4.81,4.24c-4.85,1.18-9.73,2.24-14.59,3.4c-1.98,5.32-3.83,10.69-5.83,16
		c-13.98,4.55-28.17,9.08-40.76,16.86c-4.87,1.32-9.89-2.02-14.88-1.37c-4.76,2.2-8.99,5.43-13.84,7.5
		c-10.96,5.16-22.97,7.51-34.01,12.47C455.91,316.18,485.82,297.15,517.46,282.61z"/>
	<path class="st0" d="M635.37,265.27c3.55,1.64,7.02,3.45,10.54,5.11c3.33,0.53,4.27,4.82,7.65,5.18c0.88,4.37,1.04,9.05-0.6,13.26
		c-1.14,1.38-3.02,1.87-4.45,2.85c-0.18-0.42-0.54-1.26-0.72-1.68c-1.94,1.01-4.09,1.44-6.2,1.87c-1.14-1.93-2.2-3.93-2.96-6.04
		c0.4-1.07,0.83-2.13,1.28-3.18c-5.28,0.43-10.57,1.05-15.87,0.84c-3.32,0.01-6.74-2.31-7.52-5.58c-0.36-1.89,1.34-2.31,2.74-2.71
		c8.07,0.61,16.18,0.24,24.27,0.23c-2.6-1.8-5.53-3.04-8.49-4.11c-2.55,1.73-5.42,1.6-8,0.03c-0.66,0.33-1.96,1.01-2.62,1.34
		c1.79-2.32,4.07-4.48,4.6-7.49c2.24,0.79,4.5,1.49,6.75,2.27C635.67,266.91,635.47,265.82,635.37,265.27z"/>
	<path class="st0" d="M752.43,265.38c4.93-3.38,11.24,2.27,10.31,7.62c-1.17,7.55-6.02,14.61-12.71,18.33
		c-5.68,2.49-12.08,1.82-18.12,2.05c2.47,1.2,5.18,1.73,7.87,2.25c-2.91,6.19-5.46,13.88-1.83,20.32c1.34,2.87,4.3,4.23,7.01,5.5
		c-1.05-1.68-2.14-3.32-3.13-5.02c1.96-0.8,4.05-1.56,5.55-3.13c6.05-6.66,11.38-13.99,17.65-20.45c7.46-3.95,16.42-4.59,23.4-9.59
		c3.32-2.27,7.35-5.12,11.54-3.46c5.7,4.5,3.86,13.71-1.02,18.15c-7.41,7.23-18.49,7.63-28.21,7.11c1.65,1.52,4.02,1.92,5.93,2.77
		c-3.04,5.3-8.4,9.4-11.27,14.97c-1.51,4.47-1.63,9.86,0.81,14.02c-0.17-2.39-0.33-4.79-0.12-7.19c1.95,0.35,3.97,0.86,5.95,0.31
		c7.23-1.67,14.56-3.06,21.99-3.43c5.19-0.53,8.79,3.95,12.37,6.98c3.67,3.92,8.87,6.67,11.03,11.81c1.25,4.18-3.71,7.36-7.36,7.68
		c-6.54-0.26-12.48-3.85-17.25-8.1l-0.31-1.55c5.25,3.5,10.56,8.87,17.46,7.66c2.99-0.23,2.33-3.7,2.09-5.76
		c-1.89,1.05-3.97,2.13-6.2,1.43c-4.22-0.55-6.7-4.34-8.67-7.71c-2.07,0.21-5.29,1.65-6.3-1.07c-0.06-0.81-0.2-2.44-0.27-3.25
		c-3.17-1.12-6.54-1.11-9.83-0.71c0.49,2.17,2.31,4.58,0.89,6.75c-1.7,2.72-5.07,3.5-7.74,4.93c4.48,0.11,8.79-1.22,13.01-2.55
		c-0.26-1.82-0.49-3.65-0.65-5.48c0.65,0.65,1.27,1.35,1.85,2.09c0.27,1.54,0.46,3.09,0.63,4.64c-5.58,1.37-11.3,2.23-16.78,4
		c3.33,0.52,6.7,0.56,10.07,0.36c4.66,3.72,9.49,7.66,11.92,13.28c2.48,5.77,4.43,11.79,5.99,17.88c0.69,2.39,0.39,6.67-2.96,6.56
		c-5.02-0.28-11.14-1.98-13.27-7.08c-2.22-5.42-3.41-11.33-3.02-17.19c-1.06,0.75-2.17,1.4-3.32,1.95l-0.04-1.49h-1.15l0.22-1.06
		c-1.17-0.03-2.33-0.06-3.48-0.1c1.55,0.68,3.6,0.9,4.02,2.88c0.45-0.05,1.36-0.17,1.81-0.23c-0.65,0.54-0.04,3.7-1.55,2.61
		c-3.2-2.31-6.33-4.76-9.26-7.4c-0.65-0.78-1.25-1.58-1.85-2.38c2.16,1.19,4.25,2.48,6.39,3.72c-0.09-1.92-0.78-3.65-1.9-5.18
		c0.02-0.34,0.07-1.03,0.09-1.38c-4.49-0.46-9.15-1.22-12.82-4.06c-5.26-3.48-11.02-8.58-17.82-6.74
		c-6.16,1.67-12.87,2.76-18.99,0.32c-5.9-2.05-8.72-8.77-8.49-14.64c0.26-4.93,1.3-10.12,4.24-14.2c1.72-2.44,4.84-1.34,7.25-0.92
		c-0.07-4.13-0.77-8.22-2.49-12c-3.78,5.31-6.78,11.16-9.24,17.18c-2.28,5.57-1.69,12.03-4.77,17.28
		c-0.35-6.98,2.58-13.52,2.96-20.43c1.9-6.62,5.41-12.63,8.06-18.97c1.63-3.48,2.36-7.52,5.13-10.37
		C732.24,278.13,742.56,271.99,752.43,265.38 M782.92,368.17c-0.04,3.89,0.58,7.91,2.38,11.4c1.72,3.12,5.23,4.34,8.47,5.19
		c2.04-1.94,1.62-4.88-0.26-6.75c0,1.66-0.14,3.31-0.62,4.91C786.43,380.86,785.96,373.15,782.92,368.17z"/>
	<path class="st0" d="M541.62,294.56c3.58-1.59,7.54-2.19,11.28-3.35c-0.36,1.11-0.84,2.11-1.46,3.01
		c-3.93,1.71-7.82,3.49-11.8,5.06C540.25,297.68,540.81,296.06,541.62,294.56z"/>
	<path class="st0" d="M591.36,300.97c2.26-1.33,4.44-5.51,7.31-3.9c1.09,3.76-1.46,7.19-3.97,9.69
		C593.45,304.91,592.35,302.97,591.36,300.97z"/>
	<path class="st0" d="M599.89,304.8c1.6-1.82,4.07-2.32,6.39-2.22c0.4,3.72-1.59,7.24-4.34,9.6c-0.83,0.01-2.48,0.01-3.31,0.01
		C598.93,309.71,599.25,307.22,599.89,304.8z"/>
	<path class="st0" d="M518.98,314.68c4.81-2.58,10.36-3.16,15.32-5.38c-0.61,1.34-1.22,2.68-1.82,4.03l-0.26,0.04
		c-1.82,0.27-3.64,0.57-5.35,1.26c-7.61,3.08-14.89,6.91-22.37,10.31c0.1,0.47,0.29,1.42,0.39,1.9c-1.61,0.34-3.22,0.68-4.82,1.01
		c-0.82-0.89-1.65-1.77-2.53-2.6c4.15-1.39,8.46-2.43,12.29-4.59C513.09,318.98,515.7,316.31,518.98,314.68z"/>
	<path class="st0" d="M524.43,340.18c15.52-10.83,33.87-16.68,49.64-27.09c0.84,0.95,1.69,1.9,2.53,2.85
		c-4.48,6.9-11.14,12-17.76,16.73c-7.52,5.46-16.94,6.91-25.12,11.03c1.29,0.14,2.6,0.25,3.91,0.35c1.35,0.13,2.7,0.24,4.07,0.35
		c-0.87,3.1-2.97,5.56-5.02,7.95c-5.94,1.33-9.77,6.85-15.58,8.64c-2.16,0.54-4.3,1.17-6.48,1.62c-4.73,1.35-9.59,0.04-12.52-3.98
		c0.04-3.39,1.4-6.7,3.28-9.48C511.72,346.18,518.47,343.96,524.43,340.18z"/>
	<path class="st0" d="M476.45,326.41c3.51-1.15,7.16,0.06,10.55,1.05c3.02,0.97,6.22,0.69,9.34,0.59c0.76-0.02,2.29-0.05,3.06-0.07
		c-8.5,2.91-17.83-1.96-25.99,2.29c-7.47,3.3-14.95,6.57-22.55,9.56c-6.02,2.4-12.34,4.02-18.16,6.91
		c-5.75,2.47-11.65,4.55-17.45,6.85c7.55-4.42,15.53-8.14,23.69-11.29C452.03,338.55,464.37,332.62,476.45,326.41z"/>
	<path class="st0" d="M457.8,346.46c4.81-1.87,9.9-3.02,15.03-3.55c-1.02,1.21-1.46,3.26-3.09,3.72c-0.58-0.01-1.75-0.03-2.33-0.04
		c-0.54,0.01-1.62,0.02-2.16,0.02c-2.27-0.06-4.55-0.14-6.82-0.02L457.8,346.46z"/>
	<path class="st0" d="M480.12,342.9c7.12,0.69,14.14,2.16,21.24,2.99c-0.27,1.08-0.54,2.17-0.81,3.26
		c-4.52-1.42-9.19-2.24-13.89-2.77c-0.34,0.57-1.02,1.7-1.36,2.27c-2.95,0-5.9-0.2-8.8-0.75
		C477.63,346.18,478.86,344.53,480.12,342.9z"/>
	<path class="st0" d="M432.98,356.88c6.25-7.16,16.12-10.53,25.45-10.29c-4.42,2.49-9.63,2.39-14.34,3.96
		c-2.48,0.79-4.47,2.54-6.54,4.04C436.15,355.58,434.55,356.23,432.98,356.88z"/>
	<path class="st0" d="M687.2,356.47c-0.03,3.99,0.36,8.42,4.19,10.63c-0.09-1.31-0.17-2.62-0.25-3.93
		c8.27-0.29,16.88,0.04,24.64,3.17c0.31,1.37-0.91,2.48-1.38,3.68c1.94-0.83,3.84-1.74,5.68-2.78c-0.75,1.75-1.48,3.5-2.19,5.27
		c-6.68,0.4-13.29-0.86-19.94-1.25c-3.73-0.25-7.81-1.28-10.19-4.37C685.54,363.9,685.87,359.76,687.2,356.47z"/>
	<path class="st0" d="M762.29,372.19c3.43-2.63,4.91-7.01,5.47-11.15c4.02,3.03,0.74,8.07-1.6,11.06
		c-5.8,5.92-15.23,4.66-22.49,2.66c0.88-0.88,1.84-1.68,2.85-2.41c1.95-1.12,4.2-1.21,6.39-1.37c-1.54,1-3.06,2.03-4.52,3.14
		C753.04,374.72,758.19,374.83,762.29,372.19z"/>
	<path class="st0" d="M376.28,445.85c2.08-26.22,12.47-51.38,27.51-72.79c1.22,6.33,4.11,12.65,9.43,16.55
		c13.09,9.92,28.38,16.29,42.29,24.88c5.73,3.49,11.31,7.22,16.8,11.06c2.51,1.64,4.18,4.86,7.55,4.83
		c10.72,0.7,21.43,1.8,32.14,2.55c3.24-1.69,5.39-4.81,8.45-6.74c2.18,0.07,2.62,2.88,3.97,4.2c2.25,2.98,7.1,6.18,4.49,10.44
		c-11.31,17.01-22.52,34.1-33.79,51.15c-1.46,2.28-1.6,5.1-2.32,7.66c-6.24,1.42-12.62,2.18-18.81,3.8
		c-7.2,3.28-11.47,10.49-15.67,16.86c-4.4,6.49-8.73,13.04-13.11,19.55c3.29-11.17,7.44-22.08,10.9-33.21
		c-16.34,3.18-32.73,6.09-49.04,9.39c-2.98,3.05-5.1,6.83-8.01,9.95c-1.71-0.94-2.4-3.03-3.56-4.53
		C381.03,499.27,373.95,472.28,376.28,445.85z"/>
	<path class="st0" d="M955.82,421.22c18.98-3.26,37.69-7.92,56.33-12.77c-1.97,2.01-4.56,3.2-6.89,4.7
		c-7.8,4.84-15.62,9.65-23.4,14.5c-1.4,0.54-0.61,2.23-0.59,3.33c2.54,16.93,5.55,33.8,7.71,50.79c-7.33,1.27-14.6,2.87-21.95,4.06
		c-0.77-4.38-1.63-8.75-2.42-13.13c-3.89,5.3-6.92,11.48-11.86,15.85c-16.72,3.47-33.57,6.36-50.3,9.78
		c-1.33-0.15-2.17-1.98-0.73-2.78c14.97-22.05,29.74-44.24,44.55-66.4C948.85,425.99,951.37,421.71,955.82,421.22 M943.66,466.53
		c-1.45,2.58-3.71,4.8-4.36,7.75c8.39-1.67,16.81-3.19,25.21-4.86c-1.55-9.35-2.76-18.76-4.33-28.1
		C954.26,449.43,949.23,458.17,943.66,466.53 M964.68,457.6c0.54,4.13,1.2,8.24,1.75,12.37c-0.21,0.35-0.63,1.04-0.84,1.39
		c2.25,3.65,1.79,8.29,2.92,12.34c6.11-1.08,12.15-2.55,18.32-3.29c-0.66-8.76-2.68-17.36-3.83-26.06
		C976.83,455.04,970.8,456.59,964.68,457.6 M924.33,465.33c-6.77,10.18-13.7,20.26-20.34,30.53c7.76-1.05,15.41-2.84,23.12-4.21
		c8.21-1.88,16.65-2.73,24.78-4.92c4.34-4.2,7.69-9.49,10.52-14.81c-8.36,1.01-16.46,3.45-24.83,4.37
		c-0.68-5.8,4.69-9.62,6.73-14.59C937.61,462.66,930.99,464.12,924.33,465.33z"/>
	<path class="st0" d="M839.56,443.44c18.48-3.55,36.97-7.07,55.46-10.57c3.78-0.98,8.08,0.43,10.25,3.76
		c2.93,4.44,3.32,10.05,3.07,15.23c-0.5,7.5-5.77,13.68-11.75,17.75c-5.87,3.99-12.71,6.22-19.5,8.09
		c7.26,6.98,15.24,13.24,22.9,19.8c-0.05,0.39-0.15,1.15-0.2,1.54c-8.62,0.81-17.05,3.56-25.62,4.28
		c-7.75-5.72-15.45-11.52-23.14-17.32c-0.79-0.84-2.91-1.89-3.29-0.09c-2.91,8.05-5.39,16.26-8.25,24.34
		c-7.94,1.41-15.82,3.2-23.81,4.37C823.72,490.92,831.6,467.16,839.56,443.44 M874.02,453.82c-5.54,1.15-11.18,1.9-16.64,3.34
		c-2.52,6.71-4.53,13.61-7,20.35c3.79-4.01,6.89-8.62,10.65-12.65c6.69-1.92,13.77-2.49,20.53-4.24c3.09-1.35,2.88-5.47,2.72-8.31
		C880.79,452.17,877.43,453.27,874.02,453.82 M880.1,473.63c-17.29,3.73-34.79,6.4-52.08,10.15c-3.12,9.46-6.49,18.84-9.36,28.38
		c6.47-1.01,12.9-2.31,19.32-3.58c2.05-5.58,3.81-11.27,5.73-16.9c1.2-3.44,1.81-7.5,5.2-9.54c8.78,6.29,17.11,13.27,26.12,19.2
		c7.15-0.75,14.13-2.71,21.25-3.8c-0.93-1.35-2.05-2.55-3.34-3.55c-6.67-5.49-13.06-11.32-19.8-16.73
		c3.83-1.66,7.96-2.49,11.85-3.98C883.35,473.27,881.7,473.26,880.1,473.63z"/>
	<path class="st0" d="M772.89,456.09c20.15-3.81,40.3-7.68,60.46-11.46c-2.87,5.77-6.65,11.05-10.65,16.09
		c-1.37,1.45-2.58,3.44-4.67,3.85c-4.65,1-9.34,1.77-14.01,2.66c-6.21,17.68-11.78,35.58-18.06,53.24
		c-7.91,1.37-15.76,3.05-23.68,4.39c5.89-17.66,11.89-35.28,17.71-52.97c-7.82,1.3-15.57,3.01-23.38,4.33
		c3.21-5.81,7.26-11.12,11.37-16.32C769.4,458.41,770.61,456.24,772.89,456.09 M774.56,494.21c-3.11,9.35-6.57,18.61-9.17,28.13
		c6.49-0.98,12.91-2.37,19.33-3.7c3-9.45,6.52-18.72,9.37-28.22C787.54,491.37,780.89,492.31,774.56,494.21z"/>
	<path class="st0" d="M696.98,470.5c20.82-3.92,41.63-7.91,62.45-11.83c-3.82,6.92-8.76,13.17-13.85,19.2
		c-0.85,1.1-2.46,0.95-3.65,1.34c-12.38,2.31-24.75,4.67-37.11,7.03c-2.79,0.22-3.58,3.46-4.16,5.68c0.28,1.53,2.13,1.97,3.38,2.45
		c8.35-1.29,16.6-3.19,24.93-4.58c4.32-0.82,8.68,1.76,10.84,5.44c4.17,6.78,4.04,15.69,0.31,22.64
		c-3.22,6.34-8.2,13.04-15.68,14.26c-20.69,3.88-41.35,7.87-62.03,11.74c3.51-6.76,7.74-13.22,12.55-19.11
		c13.01-2.97,26.27-5.08,39.38-7.67c1.66-0.48,3.76-0.3,5-1.72c0.74-2.34,0.38-4.82-0.1-7.16c-9.48,1.31-18.77,3.76-28.25,5.02
		c-9.49-0.07-15.46-10.9-13.58-19.51c1.3-5.45,4.18-10.43,7.59-14.83C688.14,475.13,691.92,471.32,696.98,470.5 M729.4,502.44
		c-13.82,2.74-27.68,5.22-41.5,7.89c1.76,1.38,4.04,0.96,6.08,0.62c7.71-1.47,15.41-3.06,23.15-4.37c1.69-0.49,3.77,0.28,4.18,2.14
		c0.68,3.25,1.08,8-2.74,9.45c-14.06,2.82-28.23,5.14-42.25,8.18c-4.22,4.19-6.95,9.73-10.29,14.65c7.01-0.67,13.85-2.43,20.77-3.7
		c11.07-1.91,22.07-4.24,33.13-6.21c3.43-0.72,7.2-1.01,10.05-3.28c7.85-6.28,12.72-16.72,10.63-26.82
		C736.81,500.57,733.11,501.92,729.4,502.44z"/>
	<path class="st0" d="M617.98,485.49c20.27-3.76,40.49-7.8,60.79-11.42c-3.34,5.98-7.12,11.75-11.59,16.96
		c-1.2,1.24-2.37,2.83-4.23,3.02c-4.52,0.89-9.05,1.74-13.59,2.53c-4.19,11.55-7.83,23.31-11.89,34.91
		c7.84-1.36,15.64-3.02,23.49-4.36c-3.43,6.25-7.43,12.22-12.11,17.61c-1.16,1.44-2.79,2.43-4.64,2.62
		c-20.1,3.7-40.13,7.74-60.25,11.31c4.33-6.82,8.76-13.75,14.53-19.45c4.88-1.74,10.25-1.88,15.25-3.32
		c3.78-11.58,7.69-23.12,11.64-34.64c-7.86,1.29-15.65,2.98-23.49,4.36c3.21-5.84,7.27-11.17,11.4-16.38
		C614.63,487.78,615.83,485.78,617.98,485.49 M620.25,523.34c-2.47,4.46-3.01,9.76-5.39,14.27c-4.6,1.1-9.27,1.86-13.91,2.71
		c-1.66,0.17-2.68,1.64-3.71,2.78c-3.29,4.05-6.39,8.27-9.19,12.68c17.69-2.75,35.21-6.59,52.85-9.68c2.08-0.49,4.55-0.46,6.08-2.2
		c4-4.17,7.28-9.01,10.12-14.03c-7.44,1.05-14.75,2.85-22.18,3.97c1.25-4.77,3.14-9.34,4.44-14.09
		C632.94,520.67,626.62,522.15,620.25,523.34z"/>
	<path class="st0" d="M559.11,496.67c14.04-2.56,28.02-5.52,42.1-7.82c-4.41,6.84-9.17,13.54-14.8,19.44
		c-7.99,2.22-16.36,3.17-24.5,4.93c-4.23,1.07-9.19,0.76-12.56,3.96c-4.11,3.84-6.8,9.12-8.01,14.58
		c-1.44,5.81,2.24,11.73,7.23,14.51c3.83,2.44,8.41,0.43,12.44-0.33c1.36-2.71,1.97-5.72,2.96-8.56c-4.68,0.78-9.29,2.02-14.03,2.41
		c3.59-5.95,7.37-11.82,11.74-17.23c0.75-1.13,1.98-1.72,3.32-1.85c9.27-1.73,18.55-3.48,27.82-5.27
		c-5.17,14.89-10.23,29.83-15.59,44.65c-13.75,2.08-27.66,6.86-41.66,4.02c-7.44-1.4-14.36-6.65-16.46-14.1
		c-3.19-10.65,0.13-22.04,5.71-31.27c4.32-7.11,10.14-13.51,17.47-17.58C547.44,498.27,553.44,497.89,559.11,496.67 M558.99,534.84
		c-1.72,0.59-4.81,0.24-4.94,2.71c4.14-0.96,8.29-1.96,12.53-2.3c-1.29,4.11-2.4,8.27-3.93,12.3c-3.82,0.63-7.63,2.08-11.54,1.64
		c-5.32-1.17-9.26-5.59-11.3-10.45c-6.63,0.97-13.14,2.58-19.77,3.5c-0.52,7.37,3.38,15.15,10.34,18.13
		c11.15,4.91,23.7,2.2,35.17-0.02c3.4-0.99,7.18-0.87,10.38-2.39c3.46-9.25,6.59-18.65,9.83-27.99
		C576.82,531.51,567.94,533.36,558.99,534.84z"/>
	<path class="st0" d="M479.56,511.73c6.18-1.1,12.32-2.38,18.5-3.46c1.91-0.66,3.06,1.24,3.86,2.64c1.77,3.75,2.66,7.86,3.32,11.94
		c2.47,16.49,5.25,32.94,7.59,49.45c-7.36,1.28-14.68,2.82-22.05,4.09c-0.57-3.55-1.55-7.03-1.77-10.62
		c0.01-0.94,0.04-2.83,0.05-3.77c2.33,3.58,2.25,7.99,3.13,12.04c6.17-0.74,12.21-2.22,18.33-3.24c-0.8-8.67-2.44-17.24-3.75-25.84
		c-6.17,0.99-12.29,2.3-18.41,3.59c0.54,3.81,1.44,7.58,1.56,11.44c-0.39,1.63-1.76,2.78-2.58,4.2
		c-2.95,5.26-6.35,10.39-10.55,14.73c-12.19,2.71-24.59,4.71-36.86,7.16c-5.35,0.86-10.62,2.32-16.04,2.75
		c15.06-23.47,31.06-46.35,46.41-69.64C472.84,516.2,475.25,512.1,479.56,511.73 M479.41,538.33c-5.41,8.84-11.67,17.22-16.51,26.37
		c8.45-1.47,16.86-3.18,25.3-4.73c-1.32-9.31-2.99-18.58-4.05-27.93C481.82,533.4,481.02,536.28,479.41,538.33 M449.02,555.93
		c-1.61,0.12-2.23,1.81-3.09,2.91c-5.93,9.2-12.35,18.08-18.11,27.39c13.82-2.12,27.48-5.17,41.27-7.55
		c2.88-0.75,6.53-0.49,8.4-3.24c3.17-4.08,6.24-8.3,8.71-12.85c-8.43,0.66-16.58,3.28-24.98,4.18c-0.85-5.76,4.8-9.18,6.42-14.23
		C461.4,553.44,455.23,554.8,449.02,555.93z"/>
	<path class="st0" d="M412.3,524.45c9.95-1.76,19.85-3.8,29.8-5.56c-7.87,23.77-15.72,47.56-23.93,71.21
		c-7.87,1.71-15.82,3.08-23.75,4.54c4.47-13.14,8.76-26.35,13.23-39.48c-11.3,14.19-22.05,28.84-33.27,43.11
		c-2.83,1.03-5.89,1.36-8.89,1.56c-1.7-10.38-3.89-20.67-5.69-31.03c-0.26-1.41-0.42-2.85-1.09-4.12
		c-4.45,12.98-8.6,26.07-13.14,39.02c-7.81,2.05-15.91,3.16-23.86,4.69c6-17.68,11.83-35.41,17.84-53.08
		c0.11-0.62,0.32-1.86,0.42-2.48c-14.37-1.48-28.79-2.63-43.14-4.18c16.8-4.45,33.92-7.64,50.78-11.88
		c9.35-1.79,18.7-3.63,28.09-5.27c1.96,10.67,4.09,21.32,6.22,31.97C392.25,550.63,402.03,537.35,412.3,524.45 M406.84,563.86
		c-3.23,9.37-6.57,18.72-9.3,28.24c6.44-0.99,12.79-2.45,19.21-3.53c3.3-9.28,6.42-18.64,9.39-28.04
		C419.63,561.14,413.33,563.05,406.84,563.86 M363.99,572.12c-0.35,0.17-1.05,0.52-1.4,0.69c1.14,8.4,3.18,16.66,4.54,25.03
		c2.45-0.53,5.73-0.11,7.27-2.52c7.47-9.79,14.89-19.61,22.49-29.29C385.86,567.65,374.99,570.23,363.99,572.12 M333.94,577.85
		c-3.07,9.31-6.42,18.53-9.19,27.94c6.41-1.19,13.08-1.76,19.25-3.83c1.98-4.23,3-8.84,4.65-13.2c1.48-4.88,3.6-9.57,4.49-14.6
		C346.72,575.31,340.37,576.77,333.94,577.85z"/>
	<path class="st0" d="M709.05,544.58c42.21-8.19,84.52-15.81,126.67-24.25c-25.12,23.41-54.93,41.42-86.28,55.21
		c-42.44,18.45-88.25,28.94-134.43,31.52c-44.96,2.25-90.77-3.17-132.87-19.59c0.04-0.37,0.11-1.11,0.15-1.48
		c0.38,0.3,1.14,0.91,1.53,1.21c13.27-2.24,26.44-5.07,39.71-7.35c-0.5-3.75-1.14-7.47-1.63-11.21c11.08,6.81,24.73,6.48,37.11,4.4
		C609.03,563.57,659.04,554.07,709.05,544.58z"/>
	<path class="st0" d="M787.97,594.66c16.56-8.01,32.29-17.6,47.71-27.6c-30.11,24.84-63.82,45.19-99.46,61.05
		c-40.43,17.94-83.38,30.37-127.27,36.08c-44.88,5.75-91.03,4.57-134.96-6.85c-32.47-8.51-63.92-22.92-89.27-45.21
		c-1.94-1.76-4.15-3.33-5.49-5.64c5.51,0.18,10.82-1.67,16.23-2.45c7.53-1.23,14.96-3.22,22.53-4
		c33.61,18.95,71.03,30.52,109.1,36.23c47.68,7.14,96.51,5.48,143.88-3.25C711.44,625.52,751.01,612.84,787.97,594.66 M389.67,609.9
		c9.68,9.1,21.12,16.18,32.7,22.61c22.95,12.35,48.07,20.33,73.66,25.01c45.86,8.28,93.18,6.51,138.83-2.29
		c40.9-7.95,80.71-21.49,117.96-40.16c-68.81,25.75-143.79,36.2-216.85,27.1c-41.43-5.34-82.46-16.95-119.02-37.46
		C407.87,606.5,398.76,608.15,389.67,609.9z"/>
</g>
<g id="_x23_0f1219ff">
	<path class="st1" d="M618.07,159.46c12.32-3.34,25.54-4.28,38.04-1.36c9.11,2.1,16.07,9.11,21.19,16.58
		c7.48,11.07,12.24,23.88,14.73,36.97c46.73-2.69,94.16,0.98,139.14,14.47c36.37,10.91,71.46,28.19,99.56,54.07
		c23.62,21.59,41.54,50.05,47.97,81.61c2.69,12.81,3.55,25.98,2.67,39.04c-1.09-5.28-1.18-10.72-2.37-15.98
		c-5.89-30.89-22.74-59.04-45.38-80.61c-22.57-21.9-50.43-37.59-79.5-49.14c9.21,5.91,18.65,11.53,27.2,18.42
		c27.13,20.91,48.85,49.63,58.32,82.81c6.61,18.42,9.1,38.16,8.04,57.67c8.14-3.18,17.07-3.59,25.53-5.65
		c30.89-7.27,61.79-14.49,92.64-21.9c-9.62,6.62-19.84,12.35-29.69,18.63c-15.02,9.21-29.92,18.61-44.99,27.74
		c2.64,18.84,5.9,37.6,8.61,56.43c-12.63,2.31-25.22,4.77-37.83,7.2c-1.19,0.3-2.37-0.1-3.53-0.29c-1.33,0.93-2.82,1.59-4.43,1.81
		c-11.4,2.12-22.77,4.37-34.17,6.48c-1.06,0.28-2.52,0.29-2.99,1.49c-17.7,28.93-40.76,54.32-66.52,76.26
		c-29.17,24.74-61.94,45.09-96.6,61.16c-41.39,19.1-85.53,32.38-130.71,38.57c-48.73,6.55-99.11,5.11-146.5-8.79
		c-39.02-11.49-76.64-32.4-101.69-65.12c-5.6,0.8-11.08,2.27-16.71,2.88c-0.55-3.06-1.04-6.12-1.68-9.16
		c-1.66,3.34-2.38,7.05-3.84,10.47c-14.97,2.61-29.85,5.79-44.84,8.31c6.77-19.73,13.14-39.6,20.02-59.29
		c-4.89-0.92-9.89-0.97-14.82-1.59c-7.99-0.59-15.94-1.97-23.98-1.58c-21-0.01-42.02,0.78-63.01,0.35
		c35.69-9.06,71.29-18.46,106.94-27.63c3.88-0.94,7.6-2.49,11.59-2.94c-12.46-23.85-18.55-51.14-16.28-78.02
		c2.27-31.16,14.71-60.88,32.22-86.5c21.19-30.95,49.46-56.55,80.54-77.31c40.91-27.16,86.94-46.28,134.6-57.81
		c3.03-11.08,9.1-20.98,12.86-31.78c2.98-10.07,7.38-19.85,13.98-28.09C606.28,163.5,612.32,161.21,618.07,159.46 M648.94,162.14
		c2.47,3.71,5.98,6.58,8.69,10.12c2.8,3.96,8.22,5.02,10.69,9.27c2.6,4.38,3.93,9.35,6.06,13.95c2.51,5.35,4.87,10.8,6.59,16.46
		c-2.5-1.78-4.58-4.06-6.92-6.05c0.5,1.67,1.11,3.34,2.12,4.78c1.4,5.26,4.07,10.08,5.79,15.24c1.68,5.09,4.17,10.33,3.19,15.82
		c-4.48-0.32-9.01-0.64-13.45,0.17c3.26,3.32,7.88,4.59,12.06,6.32c3.57,1.4,6.37,4.11,9.56,6.15c-1.91-7.88-3.17-15.89-4.22-23.93
		c-0.22-3.35-0.68-6.68-1.34-9.98l-0.23-0.12c-2.08-12.12-6.81-23.67-12.34-34.6C669.84,174.9,660.19,166.44,648.94,162.14
		 M618.37,210.26c-9.45,6.02-16.44,15.03-23.12,23.86c-3.12,4.29-7.33,7.54-11.04,11.27l-0.16-0.06c-1.23,1.27-2.47,2.53-3.72,3.76
		c-4.95,3.85-5.94,10.36-8.17,15.85c4.73-2.69,8.32-6.95,12.69-10.17l-0.16-0.11c3.32-3.17,6.52-6.56,8.74-10.62l0.46-0.06
		c6.59-7.51,13.93-15.66,24.23-17.6c8.34,4.55,16.41,10.17,25.92,12.04c1.67,0.79,3.44,1.42,4.98,2.48
		c4.69,8.12,8.18,17.23,14.78,24.07c3.38,5.17,9.54,6.81,14.78,9.34c10.68,7.43,17.46,19.24,21.21,31.49
		c0.38,1.22,0.59,2.66,1.79,3.38c1.7-6.93,1.99-14.14,1.86-21.25c-0.04-8.78-3.3-17.26-7.92-24.62c-1.46-2.11-2.89-4.43-5.15-5.77
		c-5.57-2.68-11.94-3.48-17.21-6.82c-3.01-1.85-5.49-4.37-8.14-6.67c1.34,3.14,3.55,5.8,5.05,8.85c-0.17,0.34-0.52,1.02-0.69,1.37
		c-2.73-2.2-5.91-3.88-8.05-6.73c-3.71-4.79-7.06-9.87-11.02-14.47c-6.45-7.63-12.98-15.5-21.43-21
		C625.83,210.25,621.77,207.98,618.37,210.26 M604.21,236.77c-1.38,1.65-2.79,3.29-4.33,4.79c-1.53,2.92,0.12,6.3,0.7,9.3
		c0.63-0.5,1.9-1.52,2.53-2.02c-0.9,2.68-2.06,5.26-2.91,7.96c1.9-1.86,3.61-3.89,5.48-5.77c-0.83,2.72-1.56,5.47-2.04,8.28
		c-1.05,1.53-1.07,3.62-1.6,5.38c0.64-0.43,1.93-1.3,2.58-1.74c-0.33,1.81-0.64,3.62-0.96,5.42c0.54-0.38,1.64-1.14,2.18-1.52
		c-0.14,3-0.5,6.96,2.93,8.28c1.35-2.34,2.81-4.65,4.85-6.46l0.65,1.59c3.24-1.9,6.58-3.77,9.17-6.55c0.01-0.89,0.06-1.78,0.03-2.67
		c-2.01-1.25-4.26-2.2-5.78-4.09c2.22,0.36,4.43,0.8,6.66,1.2c0.04-0.65,0.13-1.96,0.18-2.62c0.29-4.03,0.84-8.05,0.81-12.1
		c-0.65-1.18-1.28-2.38-1.89-3.57c-2,1.75-3.92,3.62-6.19,5.02c2.01-2.52,4.11-5.06,5.06-8.2c-2.47,1.21-4.78,2.75-7.39,3.65
		l-0.61-1.14C610.72,239.78,607.31,238.44,604.21,236.77 M629.31,237.79c-0.71,2.7-1.47,5.47-1.19,8.3
		c-0.78,3.96-0.45,8.04-0.15,12.04c4.99,1.15,9.47-1.6,13.72-3.78c-0.72,1-1.47,1.99-2.2,2.98c-1.48,0.96-2.86,2.04-4.11,3.27
		c2.21,0.28,5.27,3.52,7.07,1.1c4.11,2.19,7.96,4.83,11.73,7.57c0.04-0.59,0.12-1.75,0.16-2.34c1.01,1.21,2.04,2.41,3.06,3.63
		c0.76-0.14,1.51-0.27,2.28-0.4c0.86,1.11,1.54,2.64,3.18,2.64c-1.85-5.44-5.93-9.74-8.59-14.79c-2-4.36-4.28-8.6-5.96-13.1
		c-1.05-2.93-4.89-2.04-7.28-2.73C636.62,242.19,633.18,239.36,629.31,237.79 M698.53,248.61c2.02,8.52,4.46,16.94,7.3,25.22
		c0.32,1.18,0.86,2.43,2.14,2.83c4.63,2.26,9.13,4.81,14,6.54c9.25-8.15,19.58-14.97,30.03-21.46c7.14-3.17,15.06,3.88,14.13,11.27
		c-1.05,8.66-6.54,16.58-13.95,21.1c1.57,0.94,3.16,1.84,4.79,2.7c2.16-2.48,4.02-5.36,6.78-7.23c7.56-3.72,16.42-4.53,23.37-9.54
		c3.2-2.22,6.81-4.39,10.88-4.03c3.66-0.25,6.57,2.71,7.77,5.92c2.63,6.51,0.27,14.25-4.85,18.87c-5.23,5.04-12.64,6.66-19.62,7.39
		c-1.89,2.31-3.75,4.64-5.7,6.89c1.86,3.08,2.82,6.85,5.09,9.58c5.74-0.67,11.55-2.1,17.34-1.23c4.5,1.46,7.85,5.04,11.29,8.13
		c3.31,3.28,7.32,5.92,9.93,9.86c1.51,2.34,2.52,5.39,1.29,8.09c-2.39,4.89-8.2,7.74-13.54,6.58c-6.32-1.27-12.15-4.5-16.93-8.75
		l-1.54,0.26l-0.48,1.19c1.93,2.37,4.46,4.22,6.16,6.79c4.05,5.82,5.8,12.79,8.01,19.43c1.17,3.86,2.4,8.42,0.1,12.1
		c-1.13,1.92-3.43,2.4-5.43,2.84c3.55,16.81,11.73,32.12,19.11,47.48c-1.99-0.9-3.95-1.85-5.98-2.64c0.56,1.4,1.09,2.82,1.87,4.13
		c1.89,0.14,3.74-0.55,5.61-0.83c25.67-4.94,51.36-9.76,77.03-14.7c4.8-24.85,1.78-51.19-9.03-74.11
		c-13.08-28.11-36.58-50.21-63.07-65.7C784.92,261.65,741.6,251.43,698.53,248.61 M517.46,282.61
		c-31.64,14.54-61.55,33.57-86.38,58.13c11.04-4.96,23.05-7.31,34.01-12.47c4.85-2.07,9.08-5.3,13.84-7.5
		c4.99-0.65,10.01,2.69,14.88,1.37c12.59-7.78,26.78-12.31,40.76-16.86c2-5.31,3.85-10.68,5.83-16c4.86-1.16,9.74-2.22,14.59-3.4
		c2.34-0.3,3.4-2.65,4.81-4.24c2.08-2.92,4.64-5.5,6.44-8.6c1.14-3.15,1.95-6.41,2.69-9.67
		C551.47,268.9,534.09,274.86,517.46,282.61 M635.37,265.27c0.1,0.55,0.3,1.64,0.4,2.19c-2.25-0.78-4.51-1.48-6.75-2.27
		c-2.41,1.22-4.34,3.16-6.44,4.81c-0.03-0.44-0.1-1.32-0.14-1.76c-3.39,3.97-10.35,5.57-10.82,11.55c1.14,4.61,3.9,8.64,7.18,12.01
		c1.9-0.12,3.89,0.17,5.74-0.36c1.18-1.72,1.94-3.67,2.8-5.55c-0.88-0.6-1.75-1.21-2.61-1.81c4.5-0.14,9.01-0.3,13.48-0.87
		c0.11,0.65,0.32,1.96,0.42,2.61c0.76,2.11,1.82,4.11,2.96,6.04c2.11-0.43,4.26-0.86,6.2-1.87c0.18,0.42,0.54,1.26,0.72,1.68
		c1.43-0.98,3.31-1.47,4.45-2.85c1.64-4.21,1.48-8.89,0.6-13.26c-3.38-0.36-4.32-4.65-7.65-5.18
		C642.39,268.72,638.92,266.91,635.37,265.27 M752.43,265.38c-9.87,6.61-20.19,12.75-28.7,21.12c-2.77,2.85-3.5,6.89-5.13,10.37
		c-2.65,6.34-6.16,12.35-8.06,18.97c-0.38,6.91-3.31,13.45-2.96,20.43c-1.31,1.87-1.25,4.54-3.1,6.01
		c-0.22-0.67-0.65-2.01-0.87-2.67c-5.47,5.51-10.92,11.05-16.43,16.53l0.02,0.33c-1.33,3.29-1.66,7.43,0.56,10.42
		c2.38,3.09,6.46,4.12,10.19,4.37c6.65,0.39,13.26,1.65,19.94,1.25c2.5-0.03,5.72,0.01,7.01-2.61c2.69-5.77,0.09-13.34-5.48-16.41
		c-6.48-3.74-14.18-3.99-21.46-4.13c8.44-3.12,18.18-2.22,25.96,2.31c1.94,3.28,4.64,6.31,5.15,10.24
		c0.84,4.52,0.13,10.24-4.22,12.76c-3.2,1.39-6.78,1.21-10.18,1.58c2.7,2.23,6.55,3.33,9.93,2.73c7.96,0.42,13.98-6.94,21.92-6.63
		c-1.01,0.73-1.97,1.53-2.85,2.41c7.26,2,16.69,3.26,22.49-2.66c2.34-2.99,5.62-8.03,1.6-11.06c0.05-0.44,0.16-1.33,0.22-1.77
		c2.93,2.64,6.06,5.09,9.26,7.4c1.51,1.09,0.9-2.07,1.55-2.61c-0.45,0.06-1.36,0.18-1.81,0.23c-0.42-1.98-2.47-2.2-4.02-2.88
		c1.15,0.04,2.31,0.07,3.48,0.1l-0.22,1.06h1.15l0.04,1.49c1.15-0.55,2.26-1.2,3.32-1.95c-0.39,5.86,0.8,11.77,3.02,17.19
		c2.13,5.1,8.25,6.8,13.27,7.08c3.35,0.11,3.65-4.17,2.96-6.56c-1.56-6.09-3.51-12.11-5.99-17.88c-2.43-5.62-7.26-9.56-11.92-13.28
		c-3.37,0.2-6.74,0.16-10.07-0.36c5.48-1.77,11.2-2.63,16.78-4c-0.17-1.55-0.36-3.1-0.63-4.64c1.35,1.91,2.72,3.86,4.67,5.22
		c4.77,4.25,10.71,7.84,17.25,8.1c3.65-0.32,8.61-3.5,7.36-7.68c-2.16-5.14-7.36-7.89-11.03-11.81c-3.58-3.03-7.18-7.51-12.37-6.98
		c-7.43,0.37-14.76,1.76-21.99,3.43c-1.98,0.55-4,0.04-5.95-0.31c-0.21,2.4-0.05,4.8,0.12,7.19c-2.44-4.16-2.32-9.55-0.81-14.02
		c2.87-5.57,8.23-9.67,11.27-14.97c-1.91-0.85-4.28-1.25-5.93-2.77c9.72,0.52,20.8,0.12,28.21-7.11c4.88-4.44,6.72-13.65,1.02-18.15
		c-4.19-1.66-8.22,1.19-11.54,3.46c-6.98,5-15.94,5.64-23.4,9.59c-6.27,6.46-11.6,13.79-17.65,20.45c-1.5,1.57-3.59,2.33-5.55,3.13
		c0.99,1.7,2.08,3.34,3.13,5.02c-2.71-1.27-5.67-2.63-7.01-5.5c-3.63-6.44-1.08-14.13,1.83-20.32c-2.69-0.52-5.4-1.05-7.87-2.25
		c6.04-0.23,12.44,0.44,18.12-2.05c6.69-3.72,11.54-10.78,12.71-18.33C763.67,267.65,757.36,262,752.43,265.38 M541.62,294.56
		c-0.81,1.5-1.37,3.12-1.98,4.72c-2.58,8.94-3.68,18.28-3.28,27.58c3.82-2.36,7.6-4.8,11.44-7.12c-0.69-8.7,1.56-17.17,3.64-25.52
		c0.62-0.9,1.1-1.9,1.46-3.01C549.16,292.37,545.2,292.97,541.62,294.56 M591.36,300.97c-2.73,2.3-5.6,4.44-8.21,6.88
		c1.07,1.55,3.25,2.87,2.5,5.07c-0.7,2.47-2.33,4.53-3.55,6.76c4.59-3.9,8.49-8.53,12.62-12.88l-0.02-0.04
		c2.51-2.5,5.06-5.93,3.97-9.69C595.8,295.46,593.62,299.64,591.36,300.97 M599.89,304.8c-1.72,1.21-3.56,2.36-4.86,4.04
		c-0.31,2.18,0.05,4.47-0.64,6.59c-1.32,2.75-3.38,5.03-5.13,7.51c4.24-3.57,8.28-7.37,12.68-10.76c2.75-2.36,4.74-5.88,4.34-9.6
		C603.96,302.48,601.49,302.98,599.89,304.8 M518.98,314.68c-3.28,1.63-5.89,4.3-9.15,5.98c-3.83,2.16-8.14,3.2-12.29,4.59
		c-0.29-0.08-0.87-0.25-1.16-0.33c-0.01,0.78-0.03,2.35-0.04,3.13c-3.12,0.1-6.32,0.38-9.34-0.59c-3.39-0.99-7.04-2.2-10.55-1.05
		c-12.08,6.21-24.42,12.14-37.51,15.89c-8.16,3.15-16.14,6.87-23.69,11.29c5.8-2.3,11.7-4.38,17.45-6.85
		c12.78-3.38,25.08-8.38,37.27-13.48c5.34-2.34,11.24-3.18,17.02-2.39c6.45,0.92,12.79-1.01,19.03-2.35
		c3.01-0.9,6.35-1.35,8.79-3.49c-0.8-0.14-2.41-0.4-3.22-0.53c5.48-3.9,12.24-5.21,18.32-7.86c1.49-0.41,1.72-2.09,2.31-3.27
		l0.26-0.04c0.6-1.35,1.21-2.69,1.82-4.03C529.34,311.52,523.79,312.1,518.98,314.68 M574.07,313.09
		c-15.77,10.41-34.12,16.26-49.64,27.09c-5.96,3.78-12.71,6-19.05,8.97c-1.88,2.78-3.24,6.09-3.28,9.48
		c-1.23,4.97-0.63,10.59,2.09,14.99c1.58,2.7,4.92,3.61,7.87,3.5c8.62-0.38,16.7-3.66,24.89-6.05c3.67-1.38,7.34,0.63,11.05,0.66
		c5.17,0.1,10.42-0.61,15.24-2.54c3.89-1.54,6.64-4.85,10.21-6.92c4.79-2.71,10.14-4.18,15.41-5.68c3.61-1.25,7.78-3.53,8.41-7.69
		c-0.31-2.01-2.17-3.59-4.18-3.64c-5.41-0.47-10.91,1.3-15.26,4.48c-3.68,2.72-7.86,4.68-12.14,6.23
		c3.69-7.75,8.66-15.06,10.6-23.57c-3.47,0.44-5.44,3.82-8.01,5.84l-0.07,0.54c-4.81,4.23-7.6,10.75-13.73,13.46
		c-7.39,3.94-16.08,3.11-23.67,6.39c-3.23,0.76-6.27,3.59-9.71,2.36c5.81-1.79,9.64-7.31,15.58-8.64c7.42-0.29,16.23-1.99,20.7-8.52
		c-5.24-0.14-10.44,0.76-15.68,0.57c-1.37-0.11-2.72-0.22-4.07-0.35c4.34-1.6,9.12-1.41,13.48-2.86c4.98-3.51,9.75-7.33,14.89-10.61
		c5.84-3.61,10.81-8.68,14.11-14.71c0.33-1.16,1.8-2.71,0.57-3.76C578.52,310.84,576.14,312.34,574.07,313.09 M651.87,356.63
		c-9.73,3.92-21.06,4.23-30.58-0.47c3.28,2.54,6.69,4.92,9.82,7.65c-9.58-1.13-17.68-7.19-25.28-12.71
		c-1.8,9.59-11.56,14.12-19.99,16.56c-7.27,1.63-10.97,9.99-9.26,16.84c1.46,5.95,3.19,12.01,6.41,17.27
		c1.22,5.91,4.99,10.8,7.19,16.33c-8.71-5.08-12.23-15.33-17.22-23.56c0.43,4.74,2.2,9.21,3.54,13.74
		c3.41,9.54,7.41,18.98,13.01,27.45c0.24-0.72,0.71-2.16,0.95-2.89c1.13,1.44,2.19,2.93,3.44,4.27c2.42,4.92,5.3,9.63,7.27,14.77
		c3.57,8.22,5.26,17.06,7.24,25.75c7.72-1.22,15.37-2.81,23.05-4.25c1.33-2.73,2.62-5.49,3.47-8.42c-1.7,1.48-3.24,3.13-4.71,4.83
		c1.36-8.93,4.95-17.27,7.83-25.76c1.98-3.2,3.15-6.85,5.2-10.02c7.27-11.98,14.04-24.27,22.07-35.78
		c2.83-4.26,5.98-8.38,7.77-13.24c8.01-15.35,12.94-32.5,13.95-49.82C675.87,343.14,664.69,351.45,651.87,356.63 M457.8,346.46
		l0.63,0.13c-9.33-0.24-19.2,3.13-25.45,10.29c1.57-0.65,3.17-1.3,4.57-2.29c4.27-0.91,8.16-3.14,12.49-3.84
		c5.19-0.8,10.49-1.77,15.21-4.14c0.54,0,1.62-0.01,2.16-0.02c-1.25,2.69,3.97,2.8,2.33,0.04c1.63-0.46,2.07-2.51,3.09-3.72
		C467.7,343.44,462.61,344.59,457.8,346.46 M480.12,342.9c-1.26,1.63-2.49,3.28-3.62,5c-7.31,12.91-9.05,28.41-7.33,42.97
		c0.58,5.7,1.75,11.33,3.24,16.87l0.4,0.13c0.69,5.85,3.04,11.34,5.34,16.72c9.66,1.07,19.26,2.64,28.95,3.43
		c-3.1-7.28-5.94-14.66-8.1-22.27c-1.12-5.33-2.54-10.61-2.9-16.06c-0.96-13.64,1.21-27.32,4.45-40.54
		c0.27-1.09,0.54-2.18,0.81-3.26C494.26,345.06,487.24,343.59,480.12,342.9 M376.28,445.85c-2.33,26.43,4.75,53.42,19.22,75.6
		c1.16,1.5,1.85,3.59,3.56,4.53c2.91-3.12,5.03-6.9,8.01-9.95c16.31-3.3,32.7-6.21,49.04-9.39c-3.46,11.13-7.61,22.04-10.9,33.21
		c4.38-6.51,8.71-13.06,13.11-19.55c4.2-6.37,8.47-13.58,15.67-16.86c6.19-1.62,12.57-2.38,18.81-3.8c0.72-2.56,0.86-5.38,2.32-7.66
		c11.27-17.05,22.48-34.14,33.79-51.15c2.61-4.26-2.24-7.46-4.49-10.44c-1.35-1.32-1.79-4.13-3.97-4.2
		c-3.06,1.93-5.21,5.05-8.45,6.74c-10.71-0.75-21.42-1.85-32.14-2.55c-3.37,0.03-5.04-3.19-7.55-4.83
		c-5.49-3.84-11.07-7.57-16.8-11.06c-13.91-8.59-29.2-14.96-42.29-24.88c-5.32-3.9-8.21-10.22-9.43-16.55
		C388.75,394.47,378.36,419.63,376.28,445.85 M541.76,384.74c-2.09,13.55,0.46,27.51,4.96,40.36c3.09,9.2,8.36,17.46,11.47,26.65
		c3.86,10.94,6.61,22.34,7.57,33.91c8.05-1.04,15.96-2.97,23.97-4.32c-1.32-6.17-2.97-12.29-5.32-18.15
		c0.46,4.79,2.92,9.76,0.82,14.48c-4.44-0.73-6.53-5.12-8.37-8.7c-3.45-7.59-5.92-15.72-6.66-24.05c-0.03-2.33-0.55-5.57,1.92-6.89
		c2.9-0.63,4.82,2.05,6.82,3.62c-10.35-19.16-20.71-39.59-20.9-61.87C552.59,381.32,547.05,382.71,541.76,384.74 M683.44,384.85
		c-11.43,20.67-21.19,42.67-25.01,66.13c4.12-2.99,7.36-7.67,12.67-8.61c1.96-0.4,4.04,0.93,4.33,2.95
		c1.01,6.89-1.27,13.66-2.95,20.25c1.44-0.25,2.88-0.51,4.33-0.76c6.64-25.76,16.07-51.28,31.69-73.03
		C699.68,392.15,690.47,390.55,683.44,384.85 M758.96,390.43c2.35,2.8,5.07,5.28,7.12,8.33c4.35,6.02,7.1,12.97,10.47,19.56
		c3.4,8.39,4.24,17.56,7.16,26.12c3.08-0.5,6.16-1.05,9.21-1.77c-2.35-6.19-5.08-12.18-8.42-17.89c3.73,1.91,6.98,4.58,10.49,6.85
		c-3.64-6.65-7.65-13.23-9.49-20.67c-0.91-3.56-1.2-7.34-2.88-10.66c-2.46-4.93-6.44-8.88-10.59-12.41
		C767.89,389.63,763.47,390.64,758.96,390.43 M955.82,421.22c-4.45,0.49-6.97,4.77-9.55,7.93c-14.81,22.16-29.58,44.35-44.55,66.4
		c-1.44,0.8-0.6,2.63,0.73,2.78c16.73-3.42,33.58-6.31,50.3-9.78c4.94-4.37,7.97-10.55,11.86-15.85c0.79,4.38,1.65,8.75,2.42,13.13
		c7.35-1.19,14.62-2.79,21.95-4.06c-2.16-16.99-5.17-33.86-7.71-50.79c-0.02-1.1-0.81-2.79,0.59-3.33c7.78-4.85,15.6-9.66,23.4-14.5
		c2.33-1.5,4.92-2.69,6.89-4.7C993.51,413.3,974.8,417.96,955.82,421.22 M839.56,443.44c-7.96,23.72-15.84,47.48-23.88,71.18
		c7.99-1.17,15.87-2.96,23.81-4.37c2.86-8.08,5.34-16.29,8.25-24.34c0.38-1.8,2.5-0.75,3.29,0.09c7.69,5.8,15.39,11.6,23.14,17.32
		c8.57-0.72,17-3.47,25.62-4.28c0.05-0.39,0.15-1.15,0.2-1.54c-7.66-6.56-15.64-12.82-22.9-19.8c6.79-1.87,13.63-4.1,19.5-8.09
		c5.98-4.07,11.25-10.25,11.75-17.75c0.25-5.18-0.14-10.79-3.07-15.23c-2.17-3.33-6.47-4.74-10.25-3.76
		C876.53,436.37,858.04,439.89,839.56,443.44 M772.89,456.09c-2.28,0.15-3.49,2.32-4.91,3.81c-4.11,5.2-8.16,10.51-11.37,16.32
		c7.81-1.32,15.56-3.03,23.38-4.33c-5.82,17.69-11.82,35.31-17.71,52.97c7.92-1.34,15.77-3.02,23.68-4.39
		c6.28-17.66,11.85-35.56,18.06-53.24c4.67-0.89,9.36-1.66,14.01-2.66c2.09-0.41,3.3-2.4,4.67-3.85c4-5.04,7.78-10.32,10.65-16.09
		C813.19,448.41,793.04,452.28,772.89,456.09 M696.98,470.5c-5.06,0.82-8.84,4.63-11.98,8.39c-3.41,4.4-6.29,9.38-7.59,14.83
		c-1.88,8.61,4.09,19.44,13.58,19.51c9.48-1.26,18.77-3.71,28.25-5.02c0.48,2.34,0.84,4.82,0.1,7.16c-1.24,1.42-3.34,1.24-5,1.72
		c-13.11,2.59-26.37,4.7-39.38,7.67c-4.81,5.89-9.04,12.35-12.55,19.11c20.68-3.87,41.34-7.86,62.03-11.74
		c7.48-1.22,12.46-7.92,15.68-14.26c3.73-6.95,3.86-15.86-0.31-22.64c-2.16-3.68-6.52-6.26-10.84-5.44
		c-8.33,1.39-16.58,3.29-24.93,4.58c-1.25-0.48-3.1-0.92-3.38-2.45c0.58-2.22,1.37-5.46,4.16-5.68c12.36-2.36,24.73-4.72,37.11-7.03
		c1.19-0.39,2.8-0.24,3.65-1.34c5.09-6.03,10.03-12.28,13.85-19.2C738.61,462.59,717.8,466.58,696.98,470.5 M617.98,485.49
		c-2.15,0.29-3.35,2.29-4.69,3.75c-4.13,5.21-8.19,10.54-11.4,16.38c7.84-1.38,15.63-3.07,23.49-4.36
		c-3.95,11.52-7.86,23.06-11.64,34.64c-5,1.44-10.37,1.58-15.25,3.32c-5.77,5.7-10.2,12.63-14.53,19.45
		c20.12-3.57,40.15-7.61,60.25-11.31c1.85-0.19,3.48-1.18,4.64-2.62c4.68-5.39,8.68-11.36,12.11-17.61
		c-7.85,1.34-15.65,3-23.49,4.36c4.06-11.6,7.7-23.36,11.89-34.91c4.54-0.79,9.07-1.64,13.59-2.53c1.86-0.19,3.03-1.78,4.23-3.02
		c4.47-5.21,8.25-10.98,11.59-16.96C658.47,477.69,638.25,481.73,617.98,485.49 M559.11,496.67c-5.67,1.22-11.67,1.6-16.82,4.49
		c-7.33,4.07-13.15,10.47-17.47,17.58c-5.58,9.23-8.9,20.62-5.71,31.27c2.1,7.45,9.02,12.7,16.46,14.1
		c14,2.84,27.91-1.94,41.66-4.02c5.36-14.82,10.42-29.76,15.59-44.65c-9.27,1.79-18.55,3.54-27.82,5.27
		c-1.34,0.13-2.57,0.72-3.32,1.85c-4.37,5.41-8.15,11.28-11.74,17.23c4.74-0.39,9.35-1.63,14.03-2.41c-0.99,2.84-1.6,5.85-2.96,8.56
		c-4.03,0.76-8.61,2.77-12.44,0.33c-4.99-2.78-8.67-8.7-7.23-14.51c1.21-5.46,3.9-10.74,8.01-14.58c3.37-3.2,8.33-2.89,12.56-3.96
		c8.14-1.76,16.51-2.71,24.5-4.93c5.63-5.9,10.39-12.6,14.8-19.44C587.13,491.15,573.15,494.11,559.11,496.67 M479.56,511.73
		c-4.31,0.37-6.72,4.47-9.26,7.46c-15.35,23.29-31.35,46.17-46.41,69.64c5.42-0.43,10.69-1.89,16.04-2.75
		c12.27-2.45,24.67-4.45,36.86-7.16c4.2-4.34,7.6-9.47,10.55-14.73c0.41,0.39,1.25,1.18,1.67,1.58c0.22,3.59,1.2,7.07,1.77,10.62
		c7.37-1.27,14.69-2.81,22.05-4.09c-2.34-16.51-5.12-32.96-7.59-49.45c-0.66-4.08-1.55-8.19-3.32-11.94c-0.8-1.4-1.95-3.3-3.86-2.64
		C491.88,509.35,485.74,510.63,479.56,511.73 M412.3,524.45c-10.27,12.9-20.05,26.18-30.38,39.02c-2.13-10.65-4.26-21.3-6.22-31.97
		c-9.39,1.64-18.74,3.48-28.09,5.27c-16.86,4.24-33.98,7.43-50.78,11.88c14.35,1.55,28.77,2.7,43.14,4.18
		c-0.1,0.62-0.31,1.86-0.42,2.48c-6.01,17.67-11.84,35.4-17.84,53.08c7.95-1.53,16.05-2.64,23.86-4.69
		c4.54-12.95,8.69-26.04,13.14-39.02c0.67,1.27,0.83,2.71,1.09,4.12c1.8,10.36,3.99,20.65,5.69,31.03c3-0.2,6.06-0.53,8.89-1.56
		c11.22-14.27,21.97-28.92,33.27-43.11c-4.47,13.13-8.76,26.34-13.23,39.48c7.93-1.46,15.88-2.83,23.75-4.54
		c8.21-23.65,16.06-47.44,23.93-71.21C432.15,520.65,422.25,522.69,412.3,524.45 M709.05,544.58
		c-50.01,9.49-100.02,18.99-150.04,28.46c-12.38,2.08-26.03,2.41-37.11-4.4c0.49,3.74,1.13,7.46,1.63,11.21
		c-13.27,2.28-26.44,5.11-39.71,7.35c-0.39-0.3-1.15-0.91-1.53-1.21c-0.04,0.37-0.11,1.11-0.15,1.48
		c42.1,16.42,87.91,21.84,132.87,19.59c46.18-2.58,91.99-13.07,134.43-31.52c31.35-13.79,61.16-31.8,86.28-55.21
		C793.57,528.77,751.26,536.39,709.05,544.58 M787.97,594.66c-36.96,18.18-76.53,30.86-117,38.36
		c-47.37,8.73-96.2,10.39-143.88,3.25c-38.07-5.71-75.49-17.28-109.1-36.23c-7.57,0.78-15,2.77-22.53,4
		c-5.41,0.78-10.72,2.63-16.23,2.45c1.34,2.31,3.55,3.88,5.49,5.64c25.35,22.29,56.8,36.7,89.27,45.21
		c43.93,11.42,90.08,12.6,134.96,6.85c43.89-5.71,86.84-18.14,127.27-36.08c35.64-15.86,69.35-36.21,99.46-61.05
		C820.26,577.06,804.53,586.65,787.97,594.66z"/>
	<path class="st1" d="M624.42,272.68c0.66-0.33,1.96-1.01,2.62-1.34c2.58,1.57,5.45,1.7,8-0.03c2.96,1.07,5.89,2.31,8.49,4.11
		c-8.09,0.01-16.2,0.38-24.27-0.23C621.02,274.43,622.74,273.59,624.42,272.68z"/>
	<path class="st1" d="M900.33,284c28,17.36,51.79,42.54,65.09,72.91c6.16,14.16,9.98,29.35,11.11,44.75
		c0.74-0.02,2.24-0.06,2.99-0.08c0,0.14,0,0.42,0,0.56c-8.94,2.11-17.99,3.68-27,5.43c0.34-14.43-1.48-28.89-5.32-42.79
		c-4.02-13.11-8.12-26.31-14.65-38.43C924.23,310.59,913.29,296.21,900.33,284z"/>
	<path class="st1" d="M943.66,466.53c5.57-8.36,10.6-17.1,16.52-25.21c1.57,9.34,2.78,18.75,4.33,28.1
		c-8.4,1.67-16.82,3.19-25.21,4.86C939.95,471.33,942.21,469.11,943.66,466.53z"/>
	<path class="st1" d="M874.02,453.82c3.41-0.55,6.77-1.65,10.26-1.51c0.16,2.84,0.37,6.96-2.72,8.31
		c-6.76,1.75-13.84,2.32-20.53,4.24c-3.76,4.03-6.86,8.64-10.65,12.65c2.47-6.74,4.48-13.64,7-20.35
		C862.84,455.72,868.48,454.97,874.02,453.82z"/>
	<path class="st1" d="M479.41,538.33c1.61-2.05,2.41-4.93,4.74-6.29c1.06,9.35,2.73,18.62,4.05,27.93
		c-8.44,1.55-16.85,3.26-25.3,4.73C467.74,555.55,474,547.17,479.41,538.33z"/>
	<path class="st1" d="M389.67,609.9c9.09-1.75,18.2-3.4,27.28-5.19c36.56,20.51,77.59,32.12,119.02,37.46
		c73.06,9.1,148.04-1.35,216.85-27.1c-37.25,18.67-77.06,32.21-117.96,40.16c-45.65,8.8-92.97,10.57-138.83,2.29
		c-25.59-4.68-50.71-12.66-73.66-25.01C410.79,626.08,399.35,619,389.67,609.9z"/>
</g>
<g id="_x23_27aae2ff">
	<path class="st2" d="M648.94,162.14c11.25,4.3,20.9,12.76,26.25,23.6c5.53,10.93,10.26,22.48,12.34,34.6
		c-4.65-2.08-8.79-5.21-11.36-9.67c-1.01-1.44-1.62-3.11-2.12-4.78c2.34,1.99,4.42,4.27,6.92,6.05c-1.72-5.66-4.08-11.11-6.59-16.46
		c-2.13-4.6-3.46-9.57-6.06-13.95c-2.47-4.25-7.89-5.31-10.69-9.27C654.92,168.72,651.41,165.85,648.94,162.14z"/>
	<path class="st2" d="M618.37,210.26c3.4-2.28,7.46-0.01,10.51,1.81c8.45,5.5,14.98,13.37,21.43,21c-2.33,0.77-4.62,1.64-6.83,2.68
		c1.18,0.6,2.36,1.2,3.55,1.8c-1,0.3-2,0.59-2.99,0.87c-9.51-1.87-17.58-7.49-25.92-12.04c-10.3,1.94-17.64,10.09-24.23,17.6
		l-0.46,0.06c-1.67,0.24-3.32,0.5-4.98,0.78c-0.01,0.53-0.02,1.58-0.03,2.11c-1.42-0.5-2.82-1.01-4.21-1.54
		c3.71-3.73,7.92-6.98,11.04-11.27C601.93,225.29,608.92,216.28,618.37,210.26z"/>
	<path class="st2" d="M539.64,299.28c3.98-1.57,7.87-3.35,11.8-5.06c-2.08,8.35-4.33,16.82-3.64,25.52
		c-3.84,2.32-7.62,4.76-11.44,7.12C535.96,317.56,537.06,308.22,539.64,299.28z"/>
	<path class="st2" d="M526.87,314.63c1.71-0.69,3.53-0.99,5.35-1.26c-0.59,1.18-0.82,2.86-2.31,3.27
		c-6.08,2.65-12.84,3.96-18.32,7.86c0.81,0.13,2.42,0.39,3.22,0.53c-2.44,2.14-5.78,2.59-8.79,3.49
		c-6.24,1.34-12.58,3.27-19.03,2.35c-5.78-0.79-11.68,0.05-17.02,2.39c-12.19,5.1-24.49,10.1-37.27,13.48
		c5.82-2.89,12.14-4.51,18.16-6.91c7.6-2.99,15.08-6.26,22.55-9.56c8.16-4.25,17.49,0.62,25.99-2.29l0.67-0.13
		c1.6-0.33,3.21-0.67,4.82-1.01c-0.1-0.48-0.29-1.43-0.39-1.9C511.98,321.54,519.26,317.71,526.87,314.63z"/>
	<path class="st2" d="M651.87,356.63c12.82-5.18,24-13.49,35.17-21.46c-1.01,17.32-5.94,34.47-13.95,49.82
		c-6.76,4.52-13.88,8.65-21.59,11.34c2.82-6.45,7.17-12.05,10.39-18.29c-9.5,10.84-19.99,21.3-33.11,27.67
		c-9.69,4.98-21.17,7.21-31.86,4.49c-5.42-1.27-9.88-4.79-13.93-8.43c-3.22-5.26-4.95-11.32-6.41-17.27
		c-1.71-6.85,1.99-15.21,9.26-16.84c8.43-2.44,18.19-6.97,19.99-16.56c7.6,5.52,15.7,11.58,25.28,12.71
		c-3.13-2.73-6.54-5.11-9.82-7.65C630.81,360.86,642.14,360.55,651.87,356.63z"/>
	<path class="st2" d="M458.43,346.59c2.27-0.12,4.55-0.04,6.82,0.02c-4.72,2.37-10.02,3.34-15.21,4.14
		c-4.33,0.7-8.22,2.93-12.49,3.84c2.07-1.5,4.06-3.25,6.54-4.04C448.8,348.98,454.01,349.08,458.43,346.59z"/>
	<path class="st2" d="M467.41,346.59c0.58,0.01,1.75,0.03,2.33,0.04C471.38,349.39,466.16,349.28,467.41,346.59z"/>
	<path class="st2" d="M485.3,348.65c0.34-0.57,1.02-1.7,1.36-2.27c4.7,0.53,9.37,1.35,13.89,2.77c-3.24,13.22-5.41,26.9-4.45,40.54
		c-3.46,2.97-6.61,6.46-10.92,8.22c1.94-2.29,3.88-4.58,5.7-6.97c-3.48,1.57-6.93,3.83-10.9,3.68c-3.96,0.14-7.41-2.04-10.81-3.75
		c-1.72-14.56,0.02-30.06,7.33-42.97C479.4,348.45,482.35,348.65,485.3,348.65z"/>
	<path class="st2" d="M541.76,384.74c5.29-2.03,10.83-3.42,16.28-4.96c0.19,22.28,10.55,42.71,20.9,61.87
		c-2-1.57-3.92-4.25-6.82-3.62c-2.47,1.32-1.95,4.56-1.92,6.89c0.74,8.33,3.21,16.46,6.66,24.05c1.84,3.58,3.93,7.97,8.37,8.7
		c2.1-4.72-0.36-9.69-0.82-14.48c2.35,5.86,4,11.98,5.32,18.15c-8.01,1.35-15.92,3.28-23.97,4.32c-0.96-11.57-3.71-22.97-7.57-33.91
		c-3.11-9.19-8.38-17.45-11.47-26.65C542.22,412.25,539.67,398.29,541.76,384.74z"/>
	<path class="st2" d="M683.44,384.85c7.03,5.7,16.24,7.3,25.06,6.93c-15.62,21.75-25.05,47.27-31.69,73.03
		c-1.45,0.25-2.89,0.51-4.33,0.76c1.68-6.59,3.96-13.36,2.95-20.25c-0.29-2.02-2.37-3.35-4.33-2.95c-5.31,0.94-8.55,5.62-12.67,8.61
		C662.25,427.52,672.01,405.52,683.44,384.85z"/>
	<path class="st2" d="M758.96,390.43c4.51,0.21,8.93-0.8,13.07-2.54c4.15,3.53,8.13,7.48,10.59,12.41c1.68,3.32,1.97,7.1,2.88,10.66
		c1.84,7.44,5.85,14.02,9.49,20.67c-3.51-2.27-6.76-4.94-10.49-6.85c3.34,5.71,6.07,11.7,8.42,17.89c-3.05,0.72-6.13,1.27-9.21,1.77
		c-2.92-8.56-3.76-17.73-7.16-26.12c-3.37-6.59-6.12-13.54-10.47-19.56C764.03,395.71,761.31,393.23,758.96,390.43z"/>
</g>
<g id="_x23_1d75bdff">
	<path class="st3" d="M676.17,210.67c2.57,4.46,6.71,7.59,11.36,9.67l0.23,0.12c0.66,3.3,1.12,6.63,1.34,9.98
		c-2.25-1.2-4.06-2.98-5.58-4.99c-0.39,0.12-1.17,0.35-1.56,0.46C680.24,220.75,677.57,215.93,676.17,210.67z"/>
	<path class="st3" d="M650.31,233.07c3.96,4.6,7.31,9.68,11.02,14.47c2.14,2.85,5.32,4.53,8.05,6.73c2.08,3.05,3.7,6.38,5.06,9.81
		c-1.4-0.71-2.79-1.44-4.18-2.16c0.56,1.03,1.13,2.06,1.7,3.1c-2.66,0.95-5.48,0.52-8.16-0.05c-6.6-6.84-10.09-15.95-14.78-24.07
		c-1.54-1.06-3.31-1.69-4.98-2.48c0.99-0.28,1.99-0.57,2.99-0.87c-1.19-0.6-2.37-1.2-3.55-1.8
		C645.69,234.71,647.98,233.84,650.31,233.07z"/>
	<path class="st3" d="M588.45,244.82c1.66-0.28,3.31-0.54,4.98-0.78c-2.22,4.06-5.42,7.45-8.74,10.62c-2.19-1.2-3.47-3.31-4.36-5.57
		c1.25-1.23,2.49-2.49,3.72-3.76l0.16,0.06c1.39,0.53,2.79,1.04,4.21,1.54C588.43,246.4,588.44,245.35,588.45,244.82z"/>
	<path class="st3" d="M485.18,397.91c4.31-1.76,7.46-5.25,10.92-8.22c0.36,5.45,1.78,10.73,2.9,16.06
		c-2.84,1.93-5.75,3.77-8.85,5.26c0.83-1.37,1.67-2.71,2.54-4.05c-2.78,1.27-5.57,2.8-8.67,3.01c-3.86,0.3-7.58-0.96-11.21-2.1
		l-0.4-0.13c-1.49-5.54-2.66-11.17-3.24-16.87c3.4,1.71,6.85,3.89,10.81,3.75c3.97,0.15,7.42-2.11,10.9-3.68
		C489.06,393.33,487.12,395.62,485.18,397.91z"/>
</g>
<g id="_x23_115989ff">
	<path class="st4" d="M681.96,225.91c0.39-0.11,1.17-0.34,1.56-0.46c1.52,2.01,3.33,3.79,5.58,4.99c1.05,8.04,2.31,16.05,4.22,23.93
		c-3.19-2.04-5.99-4.75-9.56-6.15c-4.18-1.73-8.8-3-12.06-6.32c4.44-0.81,8.97-0.49,13.45-0.17
		C686.13,236.24,683.64,231,681.96,225.91z"/>
	<path class="st4" d="M665.02,244.05c2.65,2.3,5.13,4.82,8.14,6.67c5.27,3.34,11.64,4.14,17.21,6.82c2.26,1.34,3.69,3.66,5.15,5.77
		c4.62,7.36,7.88,15.84,7.92,24.62c0.13,7.11-0.16,14.32-1.86,21.25c-1.2-0.72-1.41-2.16-1.79-3.38
		c-3.75-12.25-10.53-24.06-21.21-31.49c-5.24-2.53-11.4-4.17-14.78-9.34c2.68,0.57,5.5,1,8.16,0.05c-0.57-1.04-1.14-2.07-1.7-3.1
		c1.39,0.72,2.78,1.45,4.18,2.16c-1.36-3.43-2.98-6.76-5.06-9.81c0.17-0.35,0.52-1.03,0.69-1.37
		C668.57,249.85,666.36,247.19,665.02,244.05z"/>
	<path class="st4" d="M572.16,264.94c2.23-5.49,3.22-12,8.17-15.85c0.89,2.26,2.17,4.37,4.36,5.57l0.16,0.11
		C580.48,257.99,576.89,262.25,572.16,264.94z"/>
	<path class="st4" d="M628.78,405.71c13.12-6.37,23.61-16.83,33.11-27.67c-3.22,6.24-7.57,11.84-10.39,18.29
		c7.71-2.69,14.83-6.82,21.59-11.34c-1.79,4.86-4.94,8.98-7.77,13.24c-8.03,11.51-14.8,23.8-22.07,35.78
		c-2.05,3.17-3.22,6.82-5.2,10.02c-2.32,1.19-4.78,2.09-7.26,2.91c3.07-6.34,7.85-11.63,11.16-17.82
		c-5.38,5.16-11.29,10.07-18.58,12.22c-9.88,3.32-20.43,0-29.47-4.23c-1.25-1.34-2.31-2.83-3.44-4.27
		c-0.24,0.73-0.71,2.17-0.95,2.89c-5.6-8.47-9.6-17.91-13.01-27.45c-1.34-4.53-3.11-9-3.54-13.74c4.99,8.23,8.51,18.48,17.22,23.56
		c-2.2-5.53-5.97-10.42-7.19-16.33c4.05,3.64,8.51,7.16,13.93,8.43C607.61,412.92,619.09,410.69,628.78,405.71z"/>
	<path class="st4" d="M490.15,411.01c3.1-1.49,6.01-3.33,8.85-5.26c2.16,7.61,5,14.99,8.1,22.27c-9.69-0.79-19.29-2.36-28.95-3.43
		c-2.3-5.38-4.65-10.87-5.34-16.72c3.63,1.14,7.35,2.4,11.21,2.1c3.1-0.21,5.89-1.74,8.67-3.01
		C491.82,408.3,490.98,409.64,490.15,411.01z"/>
</g>
<g id="_x23_a8a9adff">
	<path class="st5" d="M604.21,236.77c3.1,1.67,6.51,3.01,10.11,2.42l0.61,1.14c2.61-0.9,4.92-2.44,7.39-3.65
		c-0.95,3.14-3.05,5.68-5.06,8.2c2.27-1.4,4.19-3.27,6.19-5.02c0.61,1.19,1.24,2.39,1.89,3.57c-4.69,2.69-9.6,5.44-15.21,5.17
		c1.37-1.22,2.76-2.43,4.14-3.64c-1.98,0.26-3.94,0.54-5.91,0.82c0.08-0.37,0.24-1.11,0.32-1.47c-3.04-0.54-5.99-1.49-8.8-2.75
		C601.42,240.06,602.83,238.42,604.21,236.77z"/>
	<path class="st5" d="M629.31,237.79c3.87,1.57,7.31,4.4,11.72,4.39c2.39,0.69,6.23-0.2,7.28,2.73c-4.47,0.77-9.02,0.53-13.47-0.24
		c-0.38,0.18-1.14,0.53-1.52,0.71c-1.5-0.64-3-1.29-4.49-1.93c-0.18,0.66-0.53,1.98-0.71,2.64
		C627.84,243.26,628.6,240.49,629.31,237.79z"/>
	<path class="st5" d="M617.05,260.64c-1.68-3.33-3.09-6.88-2.7-10.69c3.24,2.12,6.2,4.95,10.18,5.58c-0.05,0.66-0.14,1.97-0.18,2.62
		c-2.23-0.4-4.44-0.84-6.66-1.2c1.52,1.89,3.77,2.84,5.78,4.09c0.03,0.89-0.02,1.78-0.03,2.67c-2.59,2.78-5.93,4.65-9.17,6.55
		l-0.65-1.59c-2.04,1.81-3.5,4.12-4.85,6.46c-3.43-1.32-3.07-5.28-2.93-8.28c-0.54,0.38-1.64,1.14-2.18,1.52
		c0.32-1.8,0.63-3.61,0.96-5.42c-0.65,0.44-1.94,1.31-2.58,1.74c0.53-1.76,0.55-3.85,1.6-5.38c1.05-0.74,2.15-1.46,3.23-2.18
		c-0.06,1.25-0.11,2.5-0.16,3.75c0.55-0.23,1.64-0.71,2.19-0.95c-0.31,1.93-0.63,3.86-0.93,5.79
		C610.6,263.38,613.68,261.67,617.05,260.64z"/>
	<path class="st5" d="M635.38,260.6c1.25-1.23,2.63-2.31,4.11-3.27c1.26,2.64,3.87,4.49,6.75,2.88c1.93,1.05,3.82,2.18,5.7,3.33
		c-0.85-1.58-1.71-3.14-2.6-4.69c1.55,1.01,3.1,2.01,4.68,2.98c0.1-1.27,0.19-2.54,0.25-3.82c2.66,5.05,6.74,9.35,8.59,14.79
		c-1.64,0-2.32-1.53-3.18-2.64c-0.77,0.13-1.52,0.26-2.28,0.4c-1.02-1.22-2.05-2.42-3.06-3.63c-0.04,0.59-0.12,1.75-0.16,2.34
		c-3.77-2.74-7.62-5.38-11.73-7.57C640.65,264.12,637.59,260.88,635.38,260.6z"/>
	<path class="st5" d="M622.58,270c2.1-1.65,4.03-3.59,6.44-4.81c-0.53,3.01-2.81,5.17-4.6,7.49c-1.68,0.91-3.4,1.75-5.16,2.51
		c-1.4,0.4-3.1,0.82-2.74,2.71c0.78,3.27,4.2,5.59,7.52,5.58c5.3,0.21,10.59-0.41,15.87-0.84c-0.45,1.05-0.88,2.11-1.28,3.18
		c-0.1-0.65-0.31-1.96-0.42-2.61c-4.47,0.57-8.98,0.73-13.48,0.87c0.86,0.6,1.73,1.21,2.61,1.81c-0.86,1.88-1.62,3.83-2.8,5.55
		c-1.85,0.53-3.84,0.24-5.74,0.36c-3.28-3.37-6.04-7.4-7.18-12.01c0.47-5.98,7.43-7.58,10.82-11.55
		C622.48,268.68,622.55,269.56,622.58,270z"/>
	<path class="st5" d="M583.15,307.85c2.61-2.44,5.48-4.58,8.21-6.88c0.99,2,2.09,3.94,3.34,5.79l0.02,0.04
		c-4.13,4.35-8.03,8.98-12.62,12.88c1.22-2.23,2.85-4.29,3.55-6.76C586.4,310.72,584.22,309.4,583.15,307.85z"/>
	<path class="st5" d="M712.35,318.99c2.46-6.02,5.46-11.87,9.24-17.18c1.72,3.78,2.42,7.87,2.49,12c-2.41-0.42-5.53-1.52-7.25,0.92
		c-2.94,4.08-3.98,9.27-4.24,14.2c-0.23,5.87,2.59,12.59,8.49,14.64c6.12,2.44,12.83,1.35,18.99-0.32
		c6.8-1.84,12.56,3.26,17.82,6.74c3.67,2.84,8.33,3.6,12.82,4.06c-0.02,0.35-0.07,1.04-0.09,1.38c1.12,1.53,1.81,3.26,1.9,5.18
		c-2.14-1.24-4.23-2.53-6.39-3.72c0.6,0.8,1.2,1.6,1.85,2.38c-0.06,0.44-0.17,1.33-0.22,1.77c-0.56,4.14-2.04,8.52-5.47,11.15
		c-4.1,2.64-9.25,2.53-13.9,1.93c1.46-1.11,2.98-2.14,4.52-3.14c-2.19,0.16-4.44,0.25-6.39,1.37c-7.94-0.31-13.96,7.05-21.92,6.63
		c3.03-2.81,6.47-5.37,8.66-8.94c1.72-2.84,0.33-6.15-0.35-9.08c1,0.24,2.01,0.48,3.03,0.72c-2.8-4.56-6.91-8.27-12.02-10.01
		c-7.78-4.53-17.52-5.43-25.96-2.31c7.28,0.14,14.98,0.39,21.46,4.13c5.57,3.07,8.17,10.64,5.48,16.41
		c-1.29,2.62-4.51,2.58-7.01,2.61c0.71-1.77,1.44-3.52,2.19-5.27c-1.84,1.04-3.74,1.95-5.68,2.78c0.47-1.2,1.69-2.31,1.38-3.68
		c-7.76-3.13-16.37-3.46-24.64-3.17c0.08,1.31,0.16,2.62,0.25,3.93c-3.83-2.21-4.22-6.64-4.19-10.63l-0.02-0.33
		c5.51-5.48,10.96-11.02,16.43-16.53c0.22,0.66,0.65,2,0.87,2.67c1.85-1.47,1.79-4.14,3.1-6.01
		C710.66,331.02,710.07,324.56,712.35,318.99 M722.64,346.6c2.1,3.41,5.8,5.32,9.27,7.05c4.85-3.52,11.49-1.55,16.15,1.34
		c-0.59,0.87-1.18,1.75-1.76,2.62c3.02-0.15,6.34,0.31,9.02-1.43c1.1-0.58,2.1-1.77,1.18-2.99c-2.64-2.37-6.16-3.39-9.45-4.49
		C739.13,345.95,730.63,349.03,722.64,346.6z"/>
	<path class="st5" d="M595.03,308.84c1.3-1.68,3.14-2.83,4.86-4.04c-0.64,2.42-0.96,4.91-1.26,7.39c0.83,0,2.48,0,3.31-0.01
		c-4.4,3.39-8.44,7.19-12.68,10.76c1.75-2.48,3.81-4.76,5.13-7.51C595.08,313.31,594.72,311.02,595.03,308.84z"/>
	<path class="st5" d="M574.07,313.09c2.07-0.75,4.45-2.25,6.61-0.98c1.23,1.05-0.24,2.6-0.57,3.76c-3.3,6.03-8.27,11.1-14.11,14.71
		c-5.14,3.28-9.91,7.1-14.89,10.61c-4.36,1.45-9.14,1.26-13.48,2.86c-1.31-0.1-2.62-0.21-3.91-0.35c8.18-4.12,17.6-5.57,25.12-11.03
		c6.62-4.73,13.28-9.83,17.76-16.73C575.76,314.99,574.91,314.04,574.07,313.09z"/>
	<path class="st5" d="M568.28,338.24c2.57-2.02,4.54-5.4,8.01-5.84c-1.94,8.51-6.91,15.82-10.6,23.57
		c4.28-1.55,8.46-3.51,12.14-6.23c4.35-3.18,9.85-4.95,15.26-4.48c2.01,0.05,3.87,1.63,4.18,3.64c-0.63,4.16-4.8,6.44-8.41,7.69
		c-5.27,1.5-10.62,2.97-15.41,5.68c-3.57,2.07-6.32,5.38-10.21,6.92c-4.82,1.93-10.07,2.64-15.24,2.54
		c-3.71-0.03-7.38-2.04-11.05-0.66c-8.19,2.39-16.27,5.67-24.89,6.05c-2.95,0.11-6.29-0.8-7.87-3.5c-2.72-4.4-3.32-10.02-2.09-14.99
		c2.93,4.02,7.79,5.33,12.52,3.98c0.51,1.31,0.14,3.4,1.69,4.07c4.2,1.97,9.02,1.26,13.49,0.85c7.89-0.77,15.78-3.01,22.44-7.41
		c2.36-1.52,4.52-3.73,7.51-3.81c4.59-4.7,8-10.9,8.46-17.53L568.28,338.24z"/>
	<path class="st5" d="M780.79,333.92c3.29-0.4,6.66-0.41,9.83,0.71c0.07,0.81,0.21,2.44,0.27,3.25c1.01,2.72,4.23,1.28,6.3,1.07
		c1.97,3.37,4.45,7.16,8.67,7.71c2.23,0.7,4.31-0.38,6.2-1.43c0.24,2.06,0.9,5.53-2.09,5.76c-6.9,1.21-12.21-4.16-17.46-7.66
		l0.31,1.55c-1.95-1.36-3.32-3.31-4.67-5.22c-0.58-0.74-1.2-1.44-1.85-2.09c0.16,1.83,0.39,3.66,0.65,5.48
		c-4.22,1.33-8.53,2.66-13.01,2.55c2.67-1.43,6.04-2.21,7.74-4.93C783.1,338.5,781.28,336.09,780.79,333.92z"/>
	<path class="st5" d="M541.7,344.4c5.24,0.19,10.44-0.71,15.68-0.57c-4.47,6.53-13.28,8.23-20.7,8.52
		C538.73,349.96,540.83,347.5,541.7,344.4z"/>
	<path class="st5" d="M782.92,368.17c3.04,4.98,3.51,12.69,9.97,14.75c0.48-1.6,0.62-3.25,0.62-4.91c1.88,1.87,2.3,4.81,0.26,6.75
		c-3.24-0.85-6.75-2.07-8.47-5.19C783.5,376.08,782.88,372.06,782.92,368.17z"/>
	<path class="st5" d="M964.68,457.6c6.12-1.01,12.15-2.56,18.32-3.25c1.15,8.7,3.17,17.3,3.83,26.06
		c-6.17,0.74-12.21,2.21-18.32,3.29c-1.13-4.05-0.67-8.69-2.92-12.34c0.21-0.35,0.63-1.04,0.84-1.39
		C965.88,465.84,965.22,461.73,964.68,457.6z"/>
	<path class="st5" d="M924.33,465.33c6.66-1.21,13.28-2.67,19.98-3.63c-2.04,4.97-7.41,8.79-6.73,14.59
		c8.37-0.92,16.47-3.36,24.83-4.37c-2.83,5.32-6.18,10.61-10.52,14.81c-8.13,2.19-16.57,3.04-24.78,4.92
		c-7.71,1.37-15.36,3.16-23.12,4.21C910.63,485.59,917.56,475.51,924.33,465.33z"/>
	<path class="st5" d="M880.1,473.63c1.6-0.37,3.25-0.36,4.89-0.35c-3.89,1.49-8.02,2.32-11.85,3.98
		c6.74,5.41,13.13,11.24,19.8,16.73c1.29,1,2.41,2.2,3.34,3.55c-7.12,1.09-14.1,3.05-21.25,3.8c-9.01-5.93-17.34-12.91-26.12-19.2
		c-3.39,2.04-4,6.1-5.2,9.54c-1.92,5.63-3.68,11.32-5.73,16.9c-6.42,1.27-12.85,2.57-19.32,3.58c2.87-9.54,6.24-18.92,9.36-28.38
		C845.31,480.03,862.81,477.36,880.1,473.63z"/>
	<path class="st5" d="M774.56,494.21c6.33-1.9,12.98-2.84,19.53-3.79c-2.85,9.5-6.37,18.77-9.37,28.22
		c-6.42,1.33-12.84,2.72-19.33,3.7C767.99,512.82,771.45,503.56,774.56,494.21z"/>
	<path class="st5" d="M729.4,502.44c3.71-0.52,7.41-1.87,11.21-1.45c2.09,10.1-2.78,20.54-10.63,26.82
		c-2.85,2.27-6.62,2.56-10.05,3.28c-11.06,1.97-22.06,4.3-33.13,6.21c-6.92,1.27-13.76,3.03-20.77,3.7
		c3.34-4.92,6.07-10.46,10.29-14.65c14.02-3.04,28.19-5.36,42.25-8.18c3.82-1.45,3.42-6.2,2.74-9.45c-0.41-1.86-2.49-2.63-4.18-2.14
		c-7.74,1.31-15.44,2.9-23.15,4.37c-2.04,0.34-4.32,0.76-6.08-0.62C701.72,507.66,715.58,505.18,729.4,502.44z"/>
	<path class="st5" d="M620.25,523.34c6.37-1.19,12.69-2.67,19.11-3.59c-1.3,4.75-3.19,9.32-4.44,14.09
		c7.43-1.12,14.74-2.92,22.18-3.97c-2.84,5.02-6.12,9.86-10.12,14.03c-1.53,1.74-4,1.71-6.08,2.2c-17.64,3.09-35.16,6.93-52.85,9.68
		c2.8-4.41,5.9-8.63,9.19-12.68c1.03-1.14,2.05-2.61,3.71-2.78c4.64-0.85,9.31-1.61,13.91-2.71
		C617.24,533.1,617.78,527.8,620.25,523.34z"/>
	<path class="st5" d="M558.99,534.84c8.95-1.48,17.83-3.33,26.77-4.87c-3.24,9.34-6.37,18.74-9.83,27.99
		c-3.2,1.52-6.98,1.4-10.38,2.39c-11.47,2.22-24.02,4.93-35.17,0.02c-6.96-2.98-10.86-10.76-10.34-18.13
		c6.63-0.92,13.14-2.53,19.77-3.5c2.04,4.86,5.98,9.28,11.3,10.45c3.91,0.44,7.72-1.01,11.54-1.64c1.53-4.03,2.64-8.19,3.93-12.3
		c-4.24,0.34-8.39,1.34-12.53,2.3C554.18,535.08,557.27,535.43,558.99,534.84z"/>
	<path class="st5" d="M488.36,548.55c6.12-1.29,12.24-2.6,18.41-3.59c1.31,8.6,2.95,17.17,3.75,25.84
		c-6.12,1.02-12.16,2.5-18.33,3.24c-0.88-4.05-0.8-8.46-3.13-12.04c-0.01,0.94-0.04,2.83-0.05,3.77c-0.42-0.4-1.26-1.19-1.67-1.58
		c0.82-1.42,2.19-2.57,2.58-4.2C489.8,556.13,488.9,552.36,488.36,548.55z"/>
	<path class="st5" d="M449.02,555.93c6.21-1.13,12.38-2.49,18.62-3.39c-1.62,5.05-7.27,8.47-6.42,14.23
		c8.4-0.9,16.55-3.52,24.98-4.18c-2.47,4.55-5.54,8.77-8.71,12.85c-1.87,2.75-5.52,2.49-8.4,3.24c-13.79,2.38-27.45,5.43-41.27,7.55
		c5.76-9.31,12.18-18.19,18.11-27.39C446.79,557.74,447.41,556.05,449.02,555.93z"/>
	<path class="st5" d="M406.84,563.86c6.49-0.81,12.79-2.72,19.3-3.33c-2.97,9.4-6.09,18.76-9.39,28.04
		c-6.42,1.08-12.77,2.54-19.21,3.53C400.27,582.58,403.61,573.23,406.84,563.86z"/>
	<path class="st5" d="M363.99,572.12c11-1.89,21.87-4.47,32.9-6.09c-7.6,9.68-15.02,19.5-22.49,29.29
		c-1.54,2.41-4.82,1.99-7.27,2.52c-1.36-8.37-3.4-16.63-4.54-25.03C362.94,572.64,363.64,572.29,363.99,572.12z"/>
	<path class="st5" d="M333.94,577.85c6.43-1.08,12.78-2.54,19.2-3.69c-0.89,5.03-3.01,9.72-4.49,14.6
		c-1.65,4.36-2.67,8.97-4.65,13.2c-6.17,2.07-12.84,2.64-19.25,3.83C327.52,596.38,330.87,587.16,333.94,577.85z"/>
</g>
<g id="_x23_6c6d71fd">
	<path class="st6" d="M496.38,324.92c0.29,0.08,0.87,0.25,1.16,0.33c0.88,0.83,1.71,1.71,2.53,2.6l-0.67,0.13
		c-0.77,0.02-2.3,0.05-3.06,0.07C496.35,327.27,496.37,325.7,496.38,324.92z"/>
	<path class="st6" d="M554.48,352.24c6.13-2.71,8.92-9.23,13.73-13.46c-0.46,6.63-3.87,12.83-8.46,17.53
		c-2.99,0.08-5.15,2.29-7.51,3.81c-6.66,4.4-14.55,6.64-22.44,7.41c-4.47,0.41-9.29,1.12-13.49-0.85c-1.55-0.67-1.18-2.76-1.69-4.07
		c2.18-0.45,4.32-1.08,6.48-1.62c3.44,1.23,6.48-1.6,9.71-2.36C538.4,355.35,547.09,356.18,554.48,352.24z"/>
	<path class="st6" d="M722.64,346.6c7.99,2.43,16.49-0.65,24.41,2.1c3.29,1.1,6.81,2.12,9.45,4.49c0.92,1.22-0.08,2.41-1.18,2.99
		c-2.68,1.74-6,1.28-9.02,1.43c0.58-0.87,1.17-1.75,1.76-2.62c-4.66-2.89-11.3-4.86-16.15-1.34
		C728.44,351.92,724.74,350.01,722.64,346.6z"/>
	<path class="st6" d="M723.92,351.67c5.11,1.74,9.22,5.45,12.02,10.01c-1.02-0.24-2.03-0.48-3.03-0.72
		c0.68,2.93,2.07,6.24,0.35,9.08c-2.19,3.57-5.63,6.13-8.66,8.94c-3.38,0.6-7.23-0.5-9.93-2.73c3.4-0.37,6.98-0.19,10.18-1.58
		c4.35-2.52,5.06-8.24,4.22-12.76C728.56,357.98,725.86,354.95,723.92,351.67z"/>
</g>
<g id="_x23_053651ff">
	<path class="st7" d="M623.37,441.34c7.29-2.15,13.2-7.06,18.58-12.22c-3.31,6.19-8.09,11.48-11.16,17.82
		c2.48-0.82,4.94-1.72,7.26-2.91c-2.88,8.49-6.47,16.83-7.83,25.76c1.47-1.7,3.01-3.35,4.71-4.83c-0.85,2.93-2.14,5.69-3.47,8.42
		c-7.68,1.44-15.33,3.03-23.05,4.25c-1.98-8.69-3.67-17.53-7.24-25.75c-1.97-5.14-4.85-9.85-7.27-14.77
		C602.94,441.34,613.49,444.66,623.37,441.34z"/>
</g>
</svg>
