<?xml version="1.0" encoding="utf-8"?>
<!-- Generator: Adobe Illustrator 19.0.0, SVG Export Plug-In . SVG Version: 6.00 Build 0)  -->
<svg version="1.1" id="Layer_1" xmlns="http://www.w3.org/2000/svg" xmlns:xlink="http://www.w3.org/1999/xlink" x="0px" y="0px"
	 viewBox="-135 345.9 323.9 150" style="enable-background:new -135 345.9 323.9 150;" xml:space="preserve">
<style type="text/css">
	.st0{fill:#EFEAE6;stroke:#000000;stroke-width:10;stroke-miterlimit:10;}
	.st1{fill:#ED2024;stroke:#000000;stroke-width:10;stroke-miterlimit:10;}
	.st2{fill:#0D6534;stroke:#000000;stroke-width:10;stroke-miterlimit:10;}
	.st3{fill:#FFFFFF;}
	.st4{fill:#ED2024;}
	.st5{fill:#0D6534;}
</style>
<g id="XMLID_2_">
	<polygon id="XMLID_66_" class="st0" points="-89,350.9 -130,350.9 -130,396.3 -61,396.3 	"/>
	<polygon id="XMLID_63_" class="st0" points="-50.2,396.3 18.8,396.3 18.8,350.9 -22.2,350.9 	"/>
	<polygon id="XMLID_60_" class="st0" points="176.6,350.9 130.6,350.9 84.8,396.3 132.8,396.3 	"/>
	<rect id="XMLID_57_" x="43.6" y="350.9" class="st0" width="38.8" height="45.4"/>
	<rect id="XMLID_54_" x="-19.8" y="433.7" class="st1" width="38.6" height="57.2"/>
	<rect id="XMLID_51_" x="-130" y="433.7" class="st1" width="38.2" height="57.2"/>
	<polygon id="XMLID_48_" class="st1" points="-63.3,452.3 -48.5,452.3 -35.8,433.7 -76.1,433.7 	"/>
	<polygon id="XMLID_37_" class="st2" points="-55.6,405.1 -61,396.3 -130,396.3 -130,433.7 -91.8,433.7 -91.8,410.9 -76.1,433.7 
		-35.8,433.7 -19.8,410.5 -19.8,433.7 18.8,433.7 18.8,396.3 -50.2,396.3 	"/>
	<rect id="XMLID_12_" x="43.6" y="433.7" class="st1" width="38.8" height="57.2"/>
	<polygon id="XMLID_9_" class="st1" points="131.7,433.7 84.1,433.7 131.8,490.9 178.4,490.9 	"/>
	<polygon id="XMLID_3_" class="st2" points="115.6,414.1 132.8,396.3 84.8,396.3 82.4,398.7 82.4,396.3 43.6,396.3 43.6,433.7 
		82.4,433.7 82.4,431.7 84.1,433.7 131.7,433.7 	"/>
</g>
<g id="XMLID_1_">
	<polygon id="XMLID_5_" class="st3" points="-89,350.9 -130,350.9 -130,396.3 -61,396.3 	"/>
	<polygon id="XMLID_7_" class="st3" points="-50.2,396.3 18.8,396.3 18.8,350.9 -22.2,350.9 	"/>
	<polygon id="XMLID_8_" class="st3" points="176.6,350.9 130.6,350.9 84.8,396.3 132.8,396.3 	"/>
	<rect id="XMLID_39_" x="43.6" y="350.9" class="st3" width="38.8" height="45.4"/>
	<rect id="XMLID_40_" x="-19.8" y="433.7" class="st4" width="38.6" height="57.2"/>
	<rect id="XMLID_41_" x="-130" y="433.7" class="st4" width="38.2" height="57.2"/>
	<polygon id="XMLID_42_" class="st4" points="-63.3,452.3 -48.5,452.3 -35.8,433.7 -76.1,433.7 	"/>
	<polygon id="XMLID_43_" class="st5" points="-55.6,405.1 -61,396.3 -130,396.3 -130,433.7 -91.8,433.7 -91.8,410.9 -76.1,433.7 
		-35.8,433.7 -19.8,410.5 -19.8,433.7 18.8,433.7 18.8,396.3 -50.2,396.3 	"/>
	<rect id="XMLID_44_" x="43.6" y="433.7" class="st4" width="38.8" height="57.2"/>
	<polygon id="XMLID_45_" class="st4" points="131.7,433.7 84.1,433.7 131.8,490.9 178.4,490.9 	"/>
	<polygon id="XMLID_46_" class="st5" points="115.6,414.1 132.8,396.3 84.8,396.3 82.4,398.7 82.4,396.3 43.6,396.3 43.6,433.7 
		82.4,433.7 82.4,431.7 84.1,433.7 131.7,433.7 	"/>
</g>
</svg>
