<?xml version="1.0" encoding="utf-8"?>
<!-- Generator: Adobe Illustrator 19.0.0, SVG Export Plug-In . SVG Version: 6.00 Build 0)  -->
<svg version="1.1" id="Layer_1" xmlns="http://www.w3.org/2000/svg" xmlns:xlink="http://www.w3.org/1999/xlink" x="0px" y="0px"
	 viewBox="-147 272.89 300 296" style="enable-background:new -147 272.89 300 296;" xml:space="preserve">
<style type="text/css">
	.st0{fill:#AF462A;}
	.st1{fill:#AC2403;}
	.st2{fill:#FFB900;}
	.st3{fill:#1A1A1A;}
	.st4{fill:#AD2400;}
	.st5{fill:#333333;}
	.st6{fill:#484848;}
	.st7{fill:#902306;}
	.st8{fill:#323237;}
	.st9{fill:#B63B1A;}
	.st10{fill:#232323;}
	.st11{fill:#A4825C;}
	.st12{fill:#FFFFFF;}
	.st13{fill:#C69C6C;}
	.st14{fill:#A4825A;}
	.st15{fill:#8F2406;}
	.st16{fill:#8F2305;}
	.st17{opacity:0.8;fill:#863821;enable-background:new    ;}
	.st18{fill:#902205;}
	.st19{fill:#333433;}
	.st20{fill:#AC2200;}
	.st21{opacity:0.76;fill:#8A5148;enable-background:new    ;}
	.st22{fill:#ADADAD;}
	.st23{fill:#BABABA;}
	.st24{fill:#313337;}
</style>
<g id="_x23_af462aff">
	<path class="st0" d="M-17.83,272.89h4.81l0.41,0.26c-1.64,1.4-4.06,1.3-5.64-0.11L-17.83,272.89z"/>
</g>
<g id="_x23_ac2403ff">
	<path class="st1" d="M-27.46,276.39c2.76-1.83,5.96-2.83,9.21-3.35c1.58,1.41,4,1.51,5.64,0.11c4.87,0.53,9.29,2.7,13.68,4.72
		c9.48,4.04,19.42,8.31,29.96,7.59c8.33-0.32,15.74,4.58,20.49,11.11c17.31-5.15,34.08-11.9,50.54-19.31
		c6.04,28.25,10.71,56.82,13.08,85.63c0.3,3.89,2.9,7.01,4.33,10.51c2.92,6.78,4.54,14.17,4.47,21.56c0.01,3.79-1.61,7.28-2.4,10.93
		c3.35,6.72,8.4,12.31,13.48,17.76c-0.04,1.59,0.73,2.41,2.3,2.47c5.52,5.65,10.36,11.92,15.68,17.75v0.39
		c-12.56,0.54-25.14,0.53-37.68,1.35c-0.53,7.71-2.56,15.18-4.97,22.49c5.29-0.36,10.57-0.77,15.85-1.22
		c-0.07,18.69,0.01,37.37-0.03,56.06c-0.07,6.43-6.51,9.6-10.34,13.79c-19.53-1.4-39.06-2.76-58.63-3.42
		c-13.97,11.08-29.2,20.47-44.89,28.88c-4.6,2.42-9.26,4.74-14.08,6.7h-0.67c-13.58-5.5-26.17-13.15-38.56-20.9
		c-7.05-4.71-14.13-9.42-20.76-14.72c-21.96,0.9-43.9,2.25-65.79,4.19c0.09-16.52,0-33.03,0.04-49.55
		c-3.7-4.07-7.42-8.14-10.94-12.37c-0.05-0.05-0.15-0.16-0.2-0.22c-2.74-2.98-5.52-5.91-8.35-8.79v-0.54
		c10.79,0.11,21.53,1.48,32.3,2.14c-7.35-20.55-7-42.77-7.04-64.3c-0.27-12.67,0.95-25.3,1.7-37.93c2.89-29.79,7-59.5,13.62-88.71
		c19.19,8.94,39.06,16.44,59.54,21.87C-41.31,290.82-35.81,282.13-27.46,276.39 M-26.42,279.41c-7.3,5.43-12.53,13.11-17.3,20.75
		c-0.73,1.07-1.51,3.03-3.2,2.02c-17.81-4.65-35.23-10.8-52.03-18.32c-1.74-0.8-3.55-1.39-5.37-1.96
		c-7.98,36.81-12.7,74.31-14.35,111.93c-0.19,14.72-0.52,29.48,1.04,44.15c0.73,11.47,2.95,22.91,7.51,33.5
		c-9.95-0.6-19.86-1.73-29.82-2.13c4.87,5.98,10.59,11.29,15.24,17.43c0.16,15.72,0.06,31.45,0.04,47.18
		c19.53-1.24,39.04-2.77,58.59-3.56c2.48,0,5.34-0.72,7.3,1.27c14.72,11.35,30.58,21.19,47.1,29.72c3.13,1.53,6.2,3.31,9.62,4.11
		c4.45-1.48,8.57-3.78,12.74-5.9c15.91-8.5,31.25-18.14,45.43-29.31c18.33,0.54,36.64,1.73,54.92,3.13c1.52-0.04,3.4,0.56,4.59-0.75
		c3.26-2.91,7.84-5.85,7.64-10.79c-0.06-17.25,0.16-34.5-0.12-51.74c-5.84,0.49-11.69,0.93-17.55,1.28
		c3.98-9.13,6.25-18.89,7.17-28.79c11.23-0.63,22.48-0.59,33.7-1.32c-5.52-6.72-11.18-13.34-17.33-19.49
		c-4.7-4.64-7.82-10.53-11.4-16.01c1.37-3.13,2.93-6.31,3.03-9.79c0.66-10.47-3.1-20.59-8.16-29.55
		c-2.8-28.4-6.53-56.81-12.84-84.68c-16.32,6.77-32.65,13.76-49.81,18.19c-3.97-6.55-10.91-11.89-18.92-11.43
		c-13.9,0.7-26.46-6.1-38.94-11.17C-13.91,274.8-21.15,275.46-26.42,279.41z"/>
</g>
<g id="_x23_ffb900ff">
	<path class="st2" d="M-26.42,279.41c5.27-3.95,12.51-4.61,18.52-2.03c12.48,5.07,25.04,11.87,38.94,11.17
		c8.01-0.46,14.95,4.88,18.92,11.43c17.16-4.43,33.49-11.42,49.81-18.19c6.31,27.87,10.04,56.28,12.84,84.68
		c5.06,8.96,8.82,19.08,8.16,29.55c-0.1,3.48-1.66,6.66-3.03,9.79c3.58,5.48,6.7,11.37,11.4,16.01
		c6.15,6.15,11.81,12.77,17.33,19.49c-11.22,0.73-22.47,0.69-33.7,1.32c-0.92,9.9-3.19,19.66-7.17,28.79
		c5.86-0.35,11.71-0.79,17.55-1.28c0.28,17.24,0.06,34.49,0.12,51.74c0.2,4.94-4.38,7.88-7.64,10.79c-1.19,1.31-3.07,0.71-4.59,0.75
		c-18.28-1.4-36.59-2.59-54.92-3.13C41.94,541.46,26.6,551.1,10.69,559.6c-4.17,2.12-8.29,4.42-12.74,5.9
		c-3.42-0.8-6.49-2.58-9.62-4.11c-16.52-8.53-32.38-18.37-47.1-29.72c-1.96-1.99-4.82-1.27-7.3-1.27
		c-19.55,0.79-39.06,2.32-58.59,3.56c0.02-15.73,0.12-31.46-0.04-47.18c-4.65-6.14-10.37-11.45-15.24-17.43
		c9.96,0.4,19.87,1.53,29.82,2.13c-4.56-10.59-6.78-22.03-7.51-33.5c-1.56-14.67-1.23-29.43-1.04-44.15
		c1.65-37.62,6.37-75.12,14.35-111.93c1.82,0.57,3.63,1.16,5.37,1.96c16.8,7.52,34.22,13.67,52.03,18.32
		c1.69,1.01,2.47-0.95,3.2-2.02C-38.95,292.52-33.72,284.84-26.42,279.41 M-18.63,283.5c-4.77,1.64-8.21,5.63-11.32,9.4
		c-8.11,10.41-14.36,22.08-20.54,33.69c-7.4-7.7-15.16-15.31-24.5-20.63c-5.34-2.96-11.92-5.16-17.9-2.83
		c-6.34,2.78-9.22,9.75-10.94,16c-3.17,14.4-0.32,30.26,8.48,42.22c7.75,11.1,20.56,17.85,33.74,20.06
		c-1.3,3.9-3.48,7.51-6.39,10.42c-2.47,2.38-5.75,3.57-8.71,5.19c-3.8,1.9-7.26,4.39-10.7,6.87c5.57,7.69,10.17,16.36,11.36,25.9
		c1.19,7.13-0.65,14.34-3.97,20.64c10.47,4.36,18.79,13.18,22.29,23.99c1.64,0.08,3.27,0.15,4.9,0.23
		c12.88,0.54,25.78,0.63,38.67,0.81c11.43,0.05,22.89,0.29,34.29-0.34c4.13-0.21,8.89,1.16,12.47-1.52
		c7.1-4.62,14.39-9.99,18.1-17.83c-0.79-3.94-2.35-7.87-1.69-11.96c0.56-6.28,4.43-11.72,9.18-15.64c4.13-0.06,8.28-0.92,11.8-3.17
		c4.43-2.44,7.67-6.41,11.68-9.39c4.25,8.09,11.68,14.39,20.32,17.36c9.39,3.66,19.61,2.02,29.4,1.67
		c-3.26-3.73-6.88-7.14-10.18-10.82c-4.5-5.6-8.03-11.89-11.8-17.98c1.73-3.46,4.23-6.83,4.22-10.86
		c0.31-13.62-6.46-27.36-18.01-34.77c-12.71-8.19-28.46-9.72-43.23-9.01c-0.03-9.97-0.87-19.95-2.6-29.77
		c-1.6-7.58-3.63-15.52-8.86-21.49c-2.69-3.09-6.86-4.56-10.91-4.24c-12.73,0.56-24.61-4.84-36.03-9.77
		C-9.95,284.28-14.27,282.05-18.63,283.5 M-98.04,293.81c-0.25,1.37-0.5,2.73-0.74,4.1c1.74-0.67,3.38-1.55,4.97-2.51
		C-95.22,294.86-96.63,294.33-98.04,293.81 M54.06,307.86c0.07,0.79,0.21,2.38,0.28,3.17l0.92-0.32l-0.86,0.53
		c3.61,10.41,4.4,21.58,5.01,32.51c13.87,0.47,28.27,2.58,40.09,10.38c1.09,0.76,2.19,1.51,3.29,2.26c-1.93-21-5.2-41.88-9.27-62.57
		C80.58,299.06,67.53,304.13,54.06,307.86 M-59.58,307.9c2.42,2.16,4.86,4.31,7.11,6.66c1.02-1.34,1.87-2.8,2.52-4.36
		C-53.14,309.36-56.33,308.47-59.58,307.9 M-107.23,355.86c-2.61,24.24-3.9,48.7-2.52,73.06c0.95,14.74,2.42,30.01,9.63,43.2
		c0.65,0.07,1.95,0.2,2.6,0.27c10.62,0.69,21.24,1.2,31.86,1.69c-2.42-5.88-6.64-11.11-12.15-14.34c-3.93-2.27-8.14-4.03-12-6.43
		c2.55-5.31,6.3-10.33,6.73-16.39c0.58-4.79-0.51-9.61-2-14.13c-2.62-7.69-8.01-13.91-12.07-20.83c7.76-5.74,15.82-11.02,24.5-15.25
		c-1.55-1.38-3.56-1.94-5.43-2.74c-10.95-4.6-20.14-12.86-26.29-22.99C-104.79,359.05-106.2,357.51-107.23,355.86 M65.97,434.41
		c-2.32,0.65-5.34,0.31-6.64,2.79c-4.79,5.22-3.26,12.85-0.78,18.76c-2.9,7.63-8.6,13.63-14.79,18.73
		c17.42-0.47,34.81-1.53,52.21-2.36l-0.4-0.11c5.25-9.45,7.4-20.16,8.82-30.77c-1.03-0.39-2.06-0.76-3.09-1.14
		c-8.23-2.4-15.35-7.51-21.09-13.78C75.9,429.82,71.32,433.09,65.97,434.41 M-133.1,472.62c3.63,4.48,7.77,8.53,11.43,12.99
		c-0.18,15.08,0,30.16-0.09,45.24c9.93-0.4,19.83-1.38,29.76-1.94c48.94-2.83,98.02-3.68,147.02-1.55
		c19.64,0.47,39.23,2.19,58.85,3.2c2.35-2.65,6.58-4.65,6.48-8.67c0.06-16.19,0.02-32.38,0.02-48.57
		c-29.43,2.31-58.9,3.93-88.41,4.61C-23.1,479.43-78.23,477.24-133.1,472.62 M-42.49,529.67c-1.4,0.05-2.79,0.11-4.19,0.18
		c14.02,10.18,28.96,19.17,44.62,26.57c15.39-7.66,30.35-16.29,44.2-26.5c-1.86-0.15-3.71-0.25-5.57-0.3
		c-6.12-0.2-12.25-0.41-18.37-0.35C-2.03,529.04-22.27,528.94-42.49,529.67z"/>
</g>
<g id="_x23_1a1a1aff">
	<path class="st3" d="M-18.63,283.5c4.36-1.45,8.68,0.78,12.62,2.43c11.42,4.93,23.3,10.33,36.03,9.77
		c4.05-0.32,8.22,1.15,10.91,4.24c5.23,5.97,7.26,13.91,8.86,21.49c1.73,9.82,2.57,19.8,2.6,29.77c14.77-0.71,30.52,0.82,43.23,9.01
		c11.55,7.41,18.32,21.15,18.01,34.77c0.01,4.03-2.49,7.4-4.22,10.86c3.77,6.09,7.3,12.38,11.8,17.98
		c3.3,3.68,6.92,7.09,10.18,10.82c-9.79,0.35-20.01,1.99-29.4-1.67c-8.64-2.97-16.07-9.27-20.32-17.36
		c-4.01,2.98-7.25,6.95-11.68,9.39c-3.52,2.25-7.67,3.11-11.8,3.17c-4.75,3.92-8.62,9.36-9.18,15.64c-0.66,4.09,0.9,8.02,1.69,11.96
		c-3.71,7.84-11,13.21-18.1,17.83c-3.58,2.68-8.34,1.31-12.47,1.52c2.41-1.32,4.75-2.76,7.1-4.18c-4.37,1.16-8.69,2.6-13.19,3.14
		c-9.72,1.24-19.59-0.23-28.95-2.91c-8.09-2.33-15.85-5.73-23.14-9.93c5.73,1.39,11.5,2.65,17.36,3.38
		c15.46,1.9,33.01,0.8,45.39-9.74c-5.24,0.64-10.42,1.88-15.72,1.84c-12.92,0.38-25.92-3.81-36.19-11.66
		c1.95,0.33,3.9,0.7,5.84,1.09c8.72,2.6,17.97,3.1,26.98,2.1c8.52-1.21,17.36-5.71,21.3-13.69c-2.08,0.91-4.09,1.96-6.13,2.97
		c-11.24,4.75-25.25,5.18-35.66-1.77c15.54,1.23,33.41,0.07,45.02-11.68c-18.41,7.1-38.87,8.33-58.15,4.51
		c-3.19-0.43-5.98-2.22-7.97-4.7c-6.28-7.38-11.76-15.45-18.64-22.32c-1.88-1.69-3.87-3.55-6.4-4.17
		c-5.26,0.99-9.81,4.01-13.95,7.25c0.57-1.3,1.13-2.61,1.69-3.92c-2.47,1.32-4.91,2.71-7.31,4.16c5.11,8.54,9.39,17.91,9.67,28.03
		c0.29,5.17-0.98,10.24-2.41,15.16c3.5,2.49,7.21,4.8,10.18,7.95c4.8,5.11,8.32,11.36,10.47,18.02l-0.15,0.6
		c-1.63-0.08-3.26-0.15-4.9-0.23c-3.5-10.81-11.82-19.63-22.29-23.99c3.32-6.3,5.16-13.51,3.97-20.64
		c-1.19-9.54-5.79-18.21-11.36-25.9c3.44-2.48,6.9-4.97,10.7-6.87c2.96-1.62,6.24-2.81,8.71-5.19c2.91-2.91,5.09-6.52,6.39-10.42
		c-13.18-2.21-25.99-8.96-33.74-20.06c-8.8-11.96-11.65-27.82-8.48-42.22c1.72-6.25,4.6-13.22,10.94-16
		c5.98-2.33,12.56-0.13,17.9,2.83c9.34,5.32,17.1,12.93,24.5,20.63c6.18-11.61,12.43-23.28,20.54-33.69
		C-26.84,289.13-23.4,285.14-18.63,283.5 M-20.23,287.63c-5.45,3.91-9.36,9.54-12.98,15.09c-6.16,9.33-11.43,19.21-16.53,29.16
		c-9.34-9.45-18.47-19.93-30.96-25.26c-5.09-2.31-12.22-2.1-15.54,3.01c-6.92,9.91-6.68,22.93-4.12,34.26
		c-1.5-8.98,0.11-19.07,6.96-25.57c0.18,1.4,0.38,2.79,0.62,4.18c-1,7.45,0.42,15.15,2.85,22.21c3.83,10.52,13.39,18.22,24.14,20.79
		c10.81,2.58,22.27,2.34,33.07-0.14c26.71-3.72,53.73-5.66,80.71-4.87c13.43,0.97,27.32,1.9,39.74,7.57
		c9.47,4.5,18.77,11.55,21.98,21.97c0.04-12.2-8.21-23.37-18.72-29.04c-12.69-6.89-27.6-7.18-41.68-6.64
		c0.16-12.95-0.79-26.05-4.01-38.63c-1.69-7.36-8.79-11.53-15.39-13.91c-13.51-4.9-28.23-3.87-42.09-1.18
		C-6.09,295.8,2,296.2,9.3,295.38c-7.04-2.25-13.65-5.57-20.51-8.29C-14.08,285.87-17.64,285.64-20.23,287.63 M10.74,377.68
		C5,382.89,0.21,389.27-6.58,393.26c-4.7,3.11-10.29,4.4-15.84,4.85c0.3,2.26,2.25,3.55,3.8,4.95
		c-10.76,0.44-18.79-7.92-26.78-13.89c-3.64-2.4-9.09-5.65-12.88-1.85c-0.53,1.69-1.09,3.37-1.67,5.05
		c8.24,3.36,13.21,11.09,18.61,17.69c5.05,8.07,13.82,13.56,23.19,15c10.15,1.5,20.7,0.34,30.43-2.8c3.69-0.51,7.2-1.86,10.77-2.9
		c2.97-1,6.19-1.64,8.68-3.67c5.73-4.66,11.4-9.43,16.39-14.89c-3.69,0.77-7.32,1.97-10.32,4.32c1.7-4.11,3.16-8.83,7.03-11.46
		c2.81-1.03,5.92-0.25,8.85-0.33c-1.08-3.82-5.71-3.57-8.82-3.14c-7.33,1.42-13.61,6.17-18.49,11.64c0.06-0.64,0.17-1.92,0.23-2.56
		c1-4.43,0.58-9.03-0.34-13.43c-0.73-3.11-1.73-6.82-4.92-8.26C18.02,376.31,13.61,374.56,10.74,377.68 M-36.13,383.48
		c1.06,3.39,3.03,7.36,7.09,7.6c7.14-1.2,13.33-5.45,19.14-9.53C-18.6,382.55-27.33,384.18-36.13,383.48 M76.51,405.05
		c-0.35-1.24-0.69-2.47-1.03-3.71c-0.21,0.64-0.63,1.92-0.84,2.56c-0.99-1.23-1.93-2.51-3.08-3.59c-4.13-1.08-6.06,3.8-7.67,6.68
		c-1.55,2.04,1.54,3.25,3.13,3.24c6.11,0.06,12.47-0.48,18.09-3.1c5.35-2.37,11.49-0.52,15.92,2.93c-0.48,0.23-1.44,0.69-1.92,0.92
		c-2.86,0.07-5.7,0.8-7.95,2.65c1.3,5.07,5.28,8.71,8.91,12.21c3.59,3.69,9.05,4.23,13.9,4.59c-0.41-0.46-1.24-1.39-1.66-1.85
		c-0.37-0.64-1.11-1.93-1.48-2.57c-0.02-0.9-0.06-2.7-0.07-3.6c2.45,2.3,5.15,4.56,8.62,5.01c-2.5-2.8-5.24-5.41-7.39-8.5
		c-2.18-2.79-3.69-6.1-6.36-8.48c-0.86-3.41-3.31-6.26-4.53-9.59c-0.82-3.19-4.63-2.31-7.09-2.36
		C87.54,398.6,81.93,401.92,76.51,405.05z"/>
	<path class="st3" d="M-43.61,335.08c1.3-0.13,1.65,1.38,2.38,2.14c2.17,3.13,6.23,4,9.66,5.1c7.03,2.12,14.39,2.23,21.64,2.99
		c11.31,0.39,22.64,0.32,33.96,0c-10.86,2.78-21.82,5.24-32.95,6.63c-9.94,1.16-20.29,2.02-29.95-1.18
		c-3.89-1.21-7.16-4.06-8.64-7.89C-46.27,340.24-45.19,337.52-43.61,335.08z"/>
	<path class="st3" d="M-133.1,472.62c54.87,4.62,110,6.81,165.06,5.31c29.51-0.68,58.98-2.3,88.41-4.61
		c0,16.19,0.04,32.38-0.02,48.57c0.1,4.02-4.13,6.02-6.48,8.67c-19.62-1.01-39.21-2.73-58.85-3.2c-49-2.13-98.08-1.28-147.02,1.55
		c-9.93,0.56-19.83,1.54-29.76,1.94c0.09-15.08-0.09-30.16,0.09-45.24C-125.33,481.15-129.47,477.1-133.1,472.62 M92.15,481.21
		c0.82,0.7,2.46,2.1,3.28,2.8c0.07,4.5,0.03,9,0.03,13.5c4.01,3.69,8.01,7.41,11.76,11.36c-0.26,2.61-0.35,5.24-0.29,7.87
		c-0.91-0.01-2.73-0.03-3.64-0.04c-0.09-1.32-0.19-2.63-0.28-3.95c-2.47-2.4-4.92-4.84-7.5-7.13c-0.09,6.01-0.03,12.02-0.04,18.04
		c5.39,0.36,10.77,0.85,16.16,1.07c0.99-0.92,1.98-1.85,2.98-2.76c-0.03-4.95,0.11-9.91-0.1-14.85c-3.76-3.77-7.59-7.47-11.39-11.19
		c0.01-2.71,0.01-5.41,0.07-8.11c1.34-0.03,2.69-0.05,4.04-0.07c0.01,1.26,0.01,2.53,0.02,3.8c2.41,2.45,4.86,4.86,7.32,7.26
		c0.09-6.44,0.04-12.87,0.03-19.31C107.11,480.03,99.62,480.5,92.15,481.21 M-119.2,479.53c1.02,1.15,2.04,2.31,3.06,3.47
		c0.59,8.63-0.2,17.25,0.11,25.88c0.27,5.26-0.25,10.53-0.09,15.79c5.42-0.12,10.82-0.66,16.22-1.02c1.21-1.39,3.37-2.54,3.06-4.68
		c0-11.69-0.02-23.38,0-35.07c-1.46-1.35-2.76-3.41-5.03-3.18C-107.66,480.44-113.42,479.76-119.2,479.53 M-95.91,481.09
		c1.1,1.13,2.19,2.26,3.27,3.41c-0.14,12.91-0.08,25.81-0.04,38.72c6.51-0.48,13.02-0.72,19.53-1.15c0.1-5.64,0.08-11.28,0.01-16.92
		c-2.6,2.24-5.13,4.55-7.7,6.83c-0.02,0.89-0.05,2.69-0.07,3.58c-1.35,0.05-2.71,0.11-4.06,0.16c-0.01-3.33-0.01-6.66,0.03-9.99
		c1.82-0.08,3.67,0.11,5.45-0.31c1.31-0.97,2.44-2.15,3.62-3.27c-1.35-1.12-2.6-2.39-4.13-3.27c-1.65-0.17-3.31-0.1-4.97-0.11
		c0-3.34,0-6.68,0.01-10.01c1.34,0.09,2.69,0.18,4.03,0.28c0.04,1.17,0.08,2.34,0.13,3.52c2.57,2.23,5.08,4.55,7.63,6.81
		c0.14-5.65,0.08-11.31,0.05-16.97C-80.72,482.16-88.31,481.53-95.91,481.09 M-72.18,482.47c1,1.1,2.21,2.07,2.96,3.38
		c0.21,4.01-0.01,8.04,0.09,12.06c4.01,3.29,7.93,6.69,11.84,10.1c-0.01,2.26-0.02,4.51-0.01,6.77c-1.34,0.07-2.67,0.15-4.01,0.22
		c0-0.8,0.01-2.41,0.01-3.22c-2.58-2.23-5.23-4.38-7.85-6.58c0,5.54,0,11.08,0,16.62c5.38-0.3,10.82-0.04,16.18-0.61
		c1.41-1.07,3.45-2.23,3.09-4.33c0.02-3.35,0.1-6.72-0.08-10.06c-3.33-3.75-7.66-6.54-11.32-9.98c-0.03-2.43-0.03-4.85-0.03-7.28
		c0.99,0.02,2.97,0.04,3.96,0.06c0.03,1.12,0.06,2.24,0.09,3.37c2.37,2.25,4.83,4.4,7.36,6.47c0.05-5.34-0.02-10.69,0.05-16.03
		C-57.28,482.89-64.73,482.77-72.18,482.47 M68.85,482.45c0.99,0.89,1.98,1.78,2.98,2.68c0.11,12.37,0.02,24.74,0.04,37.12
		c6.49,0.36,12.97,0.85,19.47,1.02c0.03-14.05,0.01-28.09,0.01-42.14C83.85,481.53,76.36,482.12,68.85,482.45 M-48.25,483.46
		c0.91,1.04,1.87,2.05,2.67,3.19c0.22,11.47-0.1,22.96,0.15,34.44c2.56-0.07,5.12-0.11,7.68-0.14c0.03-4.97,0.02-9.93,0.01-14.89
		c3.8-3.17,7.64-6.29,11.45-9.45c0.02-3.43,0.03-6.85-0.05-10.27c-1.11-0.88-2.22-1.75-3.33-2.62
		C-35.86,483.76-42.06,483.53-48.25,483.46 M45.21,483.38c1.12,0.92,2.23,1.84,3.34,2.76c-0.08,11.74,0.02,23.48-0.05,35.23
		c5.47,0.14,10.93,0.34,16.4,0.41c0.93-0.78,1.87-1.56,2.82-2.32c0.15-11.43,0.08-22.86,0.04-34.29c-1.09-0.89-2.19-1.78-3.29-2.65
		C58.05,482.9,51.62,482.95,45.21,483.38 M-25.19,484.01c1.06,1.19,3.14,1.97,3,3.85c0.05,10.88-0.01,21.77,0.02,32.65
		c6.47-0.07,12.94-0.11,19.41-0.1c0-5.13,0.02-10.25-0.02-15.38c-2.54,2.05-5.13,4.03-7.64,6.12c0.01,0.78,0.04,2.34,0.06,3.12
		c-1.03,0-3.1,0-4.14,0c0.01-2.95,0.01-5.9,0.01-8.84c1.77-0.05,3.54-0.09,5.32-0.14c1.26-0.99,2.52-1.98,3.79-2.96
		c-1.21-1.06-2.42-2.1-3.63-3.15c-1.83-0.01-3.66-0.01-5.48-0.01c0-3,0-5.99-0.01-8.98c1.03,0,3.1,0,4.14,0.01
		c-0.01,0.81-0.03,2.43-0.04,3.24c2.5,2.06,5.05,4.08,7.62,6.06c0.04-5.14,0.03-10.29,0.01-15.43
		C-10.24,484.09-17.72,484.04-25.19,484.01 M-1.86,484.14c1.07,0.86,2.15,1.72,3.23,2.58c0.04,11.23,0,22.47,0.02,33.7
		c2.53-0.01,5.07,0,7.61,0.01c0.16-5.36,0.01-10.73,0.11-16.09c1.37,1.1,2.73,2.21,4.08,3.33c-0.05,4.26-0.01,8.54-0.04,12.81
		c2.58,0.02,5.18,0.07,7.77,0.14c-0.03-4.78,0.07-9.57-0.09-14.35c-1.99-1.53-3.94-3.12-5.92-4.67c1.94-1.7,3.93-3.34,5.97-4.91
		c0.01-3.29,0.17-6.59-0.02-9.88c-0.82-1.09-1.95-1.87-2.94-2.77C11.32,484.06,4.73,484.02-1.86,484.14 M21.96,483.86
		c0.9,0.87,1.82,1.71,2.77,2.52c0.33,11.42,0.04,22.85,0.15,34.27c2.61,0.11,5.23,0.16,7.85,0.17c0.03-5.37-0.05-10.74,0.06-16.1
		c1.26,1.05,3.01,1.71,3.87,3.18c0.23,4.35,0,8.72,0.08,13.08c2.46,0.04,4.92,0.11,7.38,0.19c-0.02-11.75,0.02-23.5-0.01-35.25
		c-1-0.81-1.99-1.63-2.97-2.44C34.75,483.71,28.35,483.62,21.96,483.86z"/>
	<path class="st3" d="M-108.62,487.98c1.4,0.02,2.8,0.05,4.19,0.09c-0.01,9.5,0.01,19.01,0,28.51c-1.4,0.06-2.8,0.12-4.19,0.19
		C-108.61,507.17-108.61,497.57-108.62,487.98z"/>
	<path class="st3" d="M79.63,488.82c0.99-0.05,2.98-0.15,3.97-0.2c0.15,9.05,0.01,18.1,0.07,27.15c-1.35-0.03-2.7-0.06-4.05-0.08
		C79.64,506.73,79.61,497.77,79.63,488.82z"/>
	<path class="st3" d="M-37.74,490.05c1.25-0.01,2.51-0.02,3.78-0.02c-0.04,1.84-0.08,3.68-0.14,5.53c-1.23,0.97-2.44,1.97-3.64,2.98
		C-37.73,495.71-37.73,492.88-37.74,490.05z"/>
	<path class="st3" d="M32.74,490.01c1.33-0.01,2.66-0.02,4-0.02c0,3.38,0.01,6.76-0.05,10.15c-1.33-1.03-2.65-2.07-3.96-3.11
		C32.74,494.69,32.74,492.35,32.74,490.01z"/>
	<path class="st3" d="M56.34,514.92c0.04-8.47-0.07-16.93,0.05-25.39c0.91,0,2.72,0,3.63,0.01c-0.01,8.5,0.01,17,0,25.51
		C58.79,515,57.56,514.96,56.34,514.92z"/>
	<path class="st3" d="M9.06,490.19c1.36,0.01,2.73,0.02,4.09,0.04c0.01,1.68,0.03,3.35,0.07,5.03c-1.19,0.85-2.08,2.6-3.74,2.35
		C8.67,495.24,9.21,492.64,9.06,490.19z"/>
</g>
<g id="_x23_ad2400ff">
	<path class="st4" d="M-20.23,287.63c2.59-1.99,6.15-1.76,9.02-0.54c6.86,2.72,13.47,6.04,20.51,8.29
		c-7.3,0.82-15.39,0.42-21.48,5.25c-5.67,3.97-10.54,9.04-14.87,14.41c8.39-3.76,16.01-9.87,25.48-10.67
		c8.95-0.52,17.73,1.75,26.38,3.73c3.63,0.88,7.55,1.17,10.78,3.18c2.73,2.11,4.29,5.34,5.53,8.47c3.95,10.91,3.99,22.64,4.17,34.08
		c1.34,0.19,2.67,0.38,4.02,0.52c14.08-0.54,28.99-0.25,41.68,6.64c10.51,5.67,18.76,16.84,18.72,29.04
		c-3.21-10.42-12.51-17.47-21.98-21.97c-12.42-5.67-26.31-6.6-39.74-7.57c-26.98-0.79-54,1.15-80.71,4.87
		c-7.39-0.38-14.91,0.14-22.14-1.73c-11.69-2.7-23.14-8.95-29.62-19.35c-4.49-6.49-6.83-14.11-8.3-21.78
		c-0.24-1.39-0.44-2.78-0.62-4.18c-6.85,6.5-8.46,16.59-6.96,25.57c-2.56-11.33-2.8-24.35,4.12-34.26
		c3.32-5.11,10.45-5.32,15.54-3.01c12.49,5.33,21.62,15.81,30.96,25.26c5.1-9.95,10.37-19.83,16.53-29.16
		C-29.59,297.17-25.68,291.54-20.23,287.63 M-43.61,335.08c-1.58,2.44-2.66,5.16-3.9,7.79c1.48,3.83,4.75,6.68,8.64,7.89
		c9.66,3.2,20.01,2.34,29.95,1.18c11.13-1.39,22.09-3.85,32.95-6.63c-11.32,0.32-22.65,0.39-33.96,0
		c-7.25-0.76-14.61-0.87-21.64-2.99c-3.43-1.1-7.49-1.97-9.66-5.1C-41.96,336.46-42.31,334.95-43.61,335.08z"/>
	<path class="st4" d="M-74.97,404.65c4.14-3.24,8.69-6.26,13.95-7.25c2.53,0.62,4.52,2.48,6.4,4.17
		c6.88,6.87,12.36,14.94,18.64,22.32c1.99,2.48,4.78,4.27,7.97,4.7c19.28,3.82,39.74,2.59,58.15-4.51
		c-11.61,11.75-29.48,12.91-45.02,11.68c10.41,6.95,24.42,6.52,35.66,1.77c0.61,0.16,1.82,0.49,2.42,0.65
		c-6.3,3.7-13.27,6.44-20.56,7.26c-7.96,1.16-16.01,0.32-24.01,0.71c-1.94-0.39-3.89-0.76-5.84-1.09
		c10.27,7.85,23.27,12.04,36.19,11.66c5.3,0.04,10.48-1.2,15.72-1.84c-12.38,10.54-29.93,11.64-45.39,9.74
		c-3.07-5.46-6.83-10.49-10.46-15.58c-6.04-7.6-11.58-15.63-18.5-22.48c-5.56-6.78-12.24-12.49-18.85-18.22
		c-2.02-2.08-4.97-1.97-7.63-2.02c4.17,8.3,7.92,17.14,8.02,26.59c0.42,4.66-0.88,9.17-1.55,13.72c1.84,2.19,4.35,3.65,6.45,5.54
		c6.31,5.68,10.86,13.2,13.18,21.35c-0.66,0.13-1.99,0.4-2.65,0.53c-2.15-6.66-5.67-12.91-10.47-18.02
		c-2.97-3.15-6.68-5.46-10.18-7.95c1.43-4.92,2.7-9.99,2.41-15.16c-0.28-10.12-4.56-19.49-9.67-28.03c2.4-1.45,4.84-2.84,7.31-4.16
		C-73.84,402.04-74.4,403.35-74.97,404.65z"/>
	<path class="st4" d="M76.51,405.05c5.42-3.13,11.03-6.45,17.5-6.56c2.46,0.05,6.27-0.83,7.09,2.36c1.22,3.33,3.67,6.18,4.53,9.59
		c-0.75,5.72,2.61,10.77,5.2,15.57c0.37,0.64,1.11,1.93,1.48,2.57c-5.55-1.13-10.21-4.9-14.41-8.51c-2.95-2.63-0.85-6.66,1.21-9.09
		c0.48-0.23,1.44-0.69,1.92-0.92c-4.43-3.45-10.57-5.3-15.92-2.93c-5.62,2.62-11.98,3.16-18.09,3.1c-1.59,0.01-4.68-1.2-3.13-3.24
		c1.61-2.88,3.54-7.76,7.67-6.68c1.15,1.08,2.09,2.36,3.08,3.59c0.21-0.64,0.63-1.92,0.84-2.56
		C75.82,402.58,76.16,403.81,76.51,405.05z"/>
</g>
<g id="_x23_333333ff">
	<path class="st5" d="M-98.04,293.81c1.41,0.52,2.82,1.05,4.23,1.59c-1.59,0.96-3.23,1.84-4.97,2.51
		C-98.54,296.54-98.29,295.18-98.04,293.81z"/>
	<path class="st5" d="M54.06,307.86c13.47-3.73,26.52-8.8,39.46-14.04c4.07,20.69,7.34,41.57,9.27,62.57
		c-1.1-0.75-2.2-1.5-3.29-2.26c-1.46-18.86-4.8-37.5-7.96-56.14c-11.95,4.65-24.12,8.67-36.28,12.72l-0.92,0.32
		C54.27,310.24,54.13,308.65,54.06,307.86z"/>
	<path class="st5" d="M-107.23,355.86c1.03,1.65,2.44,3.19,2.86,5.12c-2.05,7.46-1.7,15.27-2.55,22.9
		c-0.43,15.32-0.49,30.66-0.09,45.98c0.61,8.88,1.5,17.81,3.7,26.45c1.35,5.56,4,10.67,5.79,16.08c-0.65-0.07-1.95-0.2-2.6-0.27
		c-7.21-13.19-8.68-28.46-9.63-43.2C-111.13,404.56-109.84,380.1-107.23,355.86z"/>
</g>
<g id="_x23_484848ff">
	<path class="st6" d="M55.26,310.71c12.16-4.05,24.33-8.07,36.28-12.72c3.16,18.64,6.5,37.28,7.96,56.14
		c-11.82-7.8-26.22-9.91-40.09-10.38c-0.61-10.93-1.4-22.1-5.01-32.51L55.26,310.71z"/>
	<path class="st6" d="M65.97,434.41c5.35-1.32,9.93-4.59,14.24-7.88c5.74,6.27,12.86,11.38,21.09,13.78
		c-0.69,10.85-3.69,21.4-8.31,31.21c0.65,0.18,1.93,0.53,2.58,0.7l0.4,0.11c-17.4,0.83-34.79,1.89-52.21,2.36
		c6.19-5.1,11.89-11.1,14.79-18.73c-2.48-5.91-4.01-13.54,0.78-18.76C60.63,434.72,63.65,435.06,65.97,434.41z"/>
	<path class="st6" d="M-2.73,529.74c6.97-0.54,13.96-0.03,20.93-0.47c6.12-0.06,12.25,0.15,18.37,0.35
		c-3.98,4.19-9.17,6.85-14.02,9.86c-8.32,4.9-16.42,10.29-25.35,14.05C-2.67,545.6-2.86,537.67-2.73,529.74z"/>
</g>
<g id="_x23_902306ff">
	<path class="st7" d="M-12.18,300.63c13.86-2.69,28.58-3.72,42.09,1.18c6.6,2.38,13.7,6.55,15.39,13.91
		c3.22,12.58,4.17,25.68,4.01,38.63c-1.35-0.14-2.68-0.33-4.02-0.52c-0.18-11.44-0.22-23.17-4.17-34.08
		c-1.24-3.13-2.8-6.36-5.53-8.47c-3.23-2.01-7.15-2.3-10.78-3.18c-8.65-1.98-17.43-4.25-26.38-3.73
		c-9.47,0.8-17.09,6.91-25.48,10.67C-22.72,309.67-17.85,304.6-12.18,300.63z"/>
</g>
<g id="_x23_323237ff">
	<path class="st8" d="M-59.58,307.9c3.25,0.57,6.44,1.46,9.63,2.3c-0.65,1.56-1.5,3.02-2.52,4.36
		C-54.72,312.21-57.16,310.06-59.58,307.9z"/>
</g>
<g id="_x23_b63b1aff">
	<path class="st9" d="M-92.78,322.5c1.47,7.67,3.81,15.29,8.3,21.78c6.48,10.4,17.93,16.65,29.62,19.35
		c7.23,1.87,14.75,1.35,22.14,1.73c-10.8,2.48-22.26,2.72-33.07,0.14c-10.75-2.57-20.31-10.27-24.14-20.79
		C-92.36,337.65-93.78,329.95-92.78,322.5z"/>
	<path class="st9" d="M-76.13,406.32c2.66,0.05,5.61-0.06,7.63,2.02c6.61,5.73,13.29,11.44,18.85,18.22
		c6.92,6.85,12.46,14.88,18.5,22.48c3.63,5.09,7.39,10.12,10.46,15.58c-5.86-0.73-11.63-1.99-17.36-3.38
		c7.29,4.2,15.05,7.6,23.14,9.93c0.25,1.43,0.5,2.86,0.75,4.29c-12.89-0.18-25.79-0.27-38.67-0.81l0.15-0.6
		c0.66-0.13,1.99-0.4,2.65-0.53c-2.32-8.15-6.87-15.67-13.18-21.35c-2.1-1.89-4.61-3.35-6.45-5.54c0.67-4.55,1.97-9.06,1.55-13.72
		C-68.21,423.46-71.96,414.62-76.13,406.32z"/>
</g>
<g id="_x23_232323ff">
	<path class="st10" d="M-106.92,383.88c0.85-7.63,0.5-15.44,2.55-22.9c6.15,10.13,15.34,18.39,26.29,22.99
		c1.87,0.8,3.88,1.36,5.43,2.74c-8.68,4.23-16.74,9.51-24.5,15.25c4.06,6.92,9.45,13.14,12.07,20.83c1.49,4.52,2.58,9.34,2,14.13
		c-0.43,6.06-4.18,11.08-6.73,16.39c3.86,2.4,8.07,4.16,12,6.43c5.51,3.23,9.73,8.46,12.15,14.34c-10.62-0.49-21.24-1-31.86-1.69
		c-1.79-5.41-4.44-10.52-5.79-16.08c-2.2-8.64-3.09-17.57-3.7-26.45C-107.41,414.54-107.35,399.2-106.92,383.88z"/>
	<path class="st10" d="M-42.49,529.67c20.22-0.73,40.46-0.63,60.69-0.4c-6.97,0.44-13.96-0.07-20.93,0.47
		c-0.13,7.93,0.06,15.86-0.07,23.79c-2.15-0.66-4.17-1.68-6.11-2.82C-20.43,544.24-31.82,537.47-42.49,529.67z"/>
</g>
<g id="_x23_a4825cff">
	<path class="st11" d="M10.74,377.68c2.87-3.12,7.28-1.37,10.6-0.1c3.19,1.44,4.19,5.15,4.92,8.26c0.92,4.4,1.34,9,0.34,13.43
		c-1.7-5.54-2.12-11.7-5.44-16.59c-1.42-2.51-4.82-2-6.75-0.42c-6.19,4.43-11.45,10.11-18.02,14.02c-3.29,1.96-7.02,2.96-10.65,4.09
		c1.43,0.72,2.85,1.47,4.27,2.24c-3.35,3.61-8.5,6.31-13.48,4.82c-4.52-1.8-8.03-5.3-12.03-7.97c-7.12-4.83-14.39-9.81-22.78-12.14
		c3.79-3.8,9.24-0.55,12.88,1.85c7.99,5.97,16.02,14.33,26.78,13.89c-1.55-1.4-3.5-2.69-3.8-4.95c5.55-0.45,11.14-1.74,15.84-4.85
		C0.21,389.27,5,382.89,10.74,377.68z"/>
</g>
<g id="_x23_ffffffff">
	<path class="st12" d="M-36.13,383.48c8.8,0.7,17.53-0.93,26.23-1.93c-5.81,4.08-12,8.33-19.14,9.53
		C-33.1,390.84-35.07,386.87-36.13,383.48z"/>
	<path class="st12" d="M92.15,481.21c7.47-0.71,14.96-1.18,22.45-1.71c0.01,6.44,0.06,12.87-0.03,19.31
		c-2.46-2.4-4.91-4.81-7.32-7.26c-0.01-1.27-0.01-2.54-0.02-3.8c-1.35,0.02-2.7,0.04-4.04,0.07c-0.06,2.7-0.06,5.4-0.07,8.11
		c3.8,3.72,7.63,7.42,11.39,11.19c0.21,4.94,0.07,9.9,0.1,14.85c-1,0.91-1.99,1.84-2.98,2.76c-5.39-0.22-10.77-0.71-16.16-1.07
		c0.01-6.02-0.05-12.03,0.04-18.04c2.58,2.29,5.03,4.73,7.5,7.13c-0.06,1.39-0.12,2.79-0.17,4.18c1.62-0.01,3.25-0.01,4.88-0.01
		c-0.01-2.69,0-5.4-0.5-8.05c-3.75-3.95-7.75-7.67-11.76-11.36c0-4.5,0.04-9-0.03-13.5C94.61,483.31,92.97,481.91,92.15,481.21
		 M96.87,511.99c-0.07,3.4-0.09,6.81-0.08,10.21c4.74,0.4,9.49,1.02,14.26,0.96c1.63-0.8,2.63-2.53,2.21-4.35
		c0.18-2.36-2.83-2.2-4.31-3.05c-0.18,0.68-0.52,2.04-0.7,2.72c-2.13-0.14-4.27-0.28-6.4-0.41c-0.22-1.6,0.34-3.5-0.66-4.86
		C99.77,512.72,98.32,512.36,96.87,511.99z"/>
	<path class="st12" d="M-119.2,479.53c5.78,0.23,11.54,0.91,17.33,1.19c2.27-0.23,3.57,1.83,5.03,3.18c-0.02,11.69,0,23.38,0,35.07
		c0.31,2.14-1.85,3.29-3.06,4.68c-5.4,0.36-10.8,0.9-16.22,1.02c-0.16-5.26,0.36-10.53,0.09-15.79c-0.31-8.63,0.48-17.25-0.11-25.88
		C-117.16,481.84-118.18,480.68-119.2,479.53 M-108.62,487.98c0.01,9.59,0.01,19.19,0,28.79c1.39-0.07,2.79-0.13,4.19-0.19
		c0.01-9.5-0.01-19.01,0-28.51C-105.82,488.03-107.22,488-108.62,487.98 M-111.39,522.97c3.46,0,6.96-0.06,10.37-0.74
		c1.9-0.24,2.59-2.26,3.37-3.69C-102.33,519.5-107.3,520.41-111.39,522.97z"/>
	<path class="st12" d="M-95.91,481.09c7.6,0.44,15.19,1.07,22.79,1.31c0.03,5.66,0.09,11.32-0.05,16.97
		c-2.55-2.26-5.06-4.58-7.63-6.81c-0.05-1.18-0.09-2.35-0.13-3.52c-1.34-0.1-2.69-0.19-4.03-0.28c-0.01,3.33-0.01,6.67-0.01,10.01
		c1.66,0.01,3.32-0.06,4.97,0.11c1.53,0.88,2.78,2.15,4.13,3.27c-1.18,1.12-2.31,2.3-3.62,3.27c-1.78,0.42-3.63,0.23-5.45,0.31
		c-0.04,3.33-0.04,6.66-0.03,9.99c1.35-0.05,2.71-0.11,4.06-0.16c0.02-0.89,0.05-2.69,0.07-3.58c2.57-2.28,5.1-4.59,7.7-6.83
		c0.07,5.64,0.09,11.28-0.01,16.92c-6.51,0.43-13.02,0.67-19.53,1.15c-0.04-12.91-0.1-25.81,0.04-38.72
		C-93.72,483.35-94.81,482.22-95.91,481.09 M-79.72,513.54c0.06,0.8,0.2,2.4,0.26,3.2c-1.89,0.25-3.79,0.47-5.69,0.58
		c-0.88-0.67-1.75-1.33-2.64-1.99c-1.19,0.45-2.38,0.89-3.57,1.34c0.02,1.64,0.04,3.27,0.06,4.91c5.58-0.05,11.13-0.58,16.71-0.75
		c0.03-2.83,0.04-5.65-0.01-8.47C-76.31,512.76-78.01,513.16-79.72,513.54z"/>
	<path class="st12" d="M-72.18,482.47c7.45,0.3,14.9,0.42,22.33,0.96c-0.07,5.34,0,10.69-0.05,16.03c-2.53-2.07-4.99-4.22-7.36-6.47
		c-0.03-1.13-0.06-2.25-0.09-3.37c-0.99-0.02-2.97-0.04-3.96-0.06c0,2.43,0,4.85,0.03,7.28c3.66,3.44,7.99,6.23,11.32,9.98
		c0.18,3.34,0.1,6.71,0.08,10.06c0.36,2.1-1.68,3.26-3.09,4.33c-5.36,0.57-10.8,0.31-16.18,0.61c0-5.54,0-11.08,0-16.62
		c2.62,2.2,5.27,4.35,7.85,6.58c0,0.81-0.01,2.42-0.01,3.22c1.34-0.07,2.67-0.15,4.01-0.22c-0.01-2.26,0-4.51,0.01-6.77
		c-3.91-3.41-7.83-6.81-11.84-10.1c-0.1-4.02,0.12-8.05-0.09-12.06C-69.97,484.54-71.18,483.57-72.18,482.47 M-55.83,508.36
		c-0.07,2.65-0.2,5.3-0.35,7.96c-2.17,0.04-4.33,0.09-6.49,0.16c-0.06-1.49-0.12-2.97-0.16-4.45c-1.45-1.14-3.13-2.09-5.01-1.36
		c0.02,3.21,0,6.43-0.01,9.65c4.28-0.05,8.57-0.05,12.85-0.31c1.48-0.04,3.16-0.92,3.66-2.36c0.36-3.39,0.12-6.8-0.11-10.19
		C-52.91,507.76-54.37,508.06-55.83,508.36z"/>
	<path class="st12" d="M68.85,482.45c7.51-0.33,15-0.92,22.5-1.32c0,14.05,0.02,28.09-0.01,42.14c-6.5-0.17-12.98-0.66-19.47-1.02
		c-0.02-12.38,0.07-24.75-0.04-37.12C70.83,484.23,69.84,483.34,68.85,482.45 M79.63,488.82c-0.02,8.95,0.01,17.91-0.01,26.87
		c1.35,0.02,2.7,0.05,4.05,0.08c-0.06-9.05,0.08-18.1-0.07-27.15C82.61,488.67,80.62,488.77,79.63,488.82 M73.17,506.48
		c0.03,4.8,0.01,9.6,0.04,14.4c5.54,0.43,11.08,0.71,16.64,0.88c0.05-3.96,0.1-7.93-0.14-11.89c-1.54-0.3-3.06-0.61-4.59-0.92
		c-0.07,2.8-0.19,5.6-0.34,8.41c-2.16-0.08-4.32-0.14-6.48-0.19c-0.31-3.25,0.41-6.73-0.51-9.85
		C76.26,506.93,74.71,506.73,73.17,506.48z"/>
	<path class="st12" d="M-48.25,483.46c6.19,0.07,12.39,0.3,18.58,0.26c1.11,0.87,2.22,1.74,3.33,2.62
		c0.08,3.42,0.07,6.84,0.05,10.27c-3.81,3.16-7.65,6.28-11.45,9.45c0.01,4.96,0.02,9.92-0.01,14.89c-2.56,0.03-5.12,0.07-7.68,0.14
		c-0.25-11.48,0.07-22.97-0.15-34.44C-46.38,485.51-47.34,484.5-48.25,483.46 M-37.74,490.05c0.01,2.83,0.01,5.66,0,8.49
		c1.2-1.01,2.41-2.01,3.64-2.98c0.06-1.85,0.1-3.69,0.14-5.53C-35.23,490.03-36.49,490.04-37.74,490.05 M-43.93,506.14
		c-0.17,4.52-0.14,9.04-0.03,13.56c1.56-0.07,3.12-0.14,4.68-0.21c-0.01-4.68,0.24-9.36-0.19-14.02
		C-40.96,505.69-42.45,505.91-43.93,506.14z"/>
	<path class="st12" d="M45.21,483.38c6.41-0.43,12.84-0.48,19.26-0.86c1.1,0.87,2.2,1.76,3.29,2.65
		c0.04,11.43,0.11,22.86-0.04,34.29c-0.95,0.76-1.89,1.54-2.82,2.32c-5.47-0.07-10.93-0.27-16.4-0.41
		c0.07-11.75-0.03-23.49,0.05-35.23C47.44,485.22,46.33,484.3,45.21,483.38 M56.34,514.92c1.22,0.04,2.45,0.08,3.68,0.13
		c0.01-8.51-0.01-17.01,0-25.51c-0.91-0.01-2.72-0.01-3.63-0.01C56.27,497.99,56.38,506.45,56.34,514.92 M50.06,502.86
		c-0.15,5.72-0.15,11.43,0,17.15c4.73,0.17,9.46,0.19,14.19,0.5c1.07-0.96,2.5-1.92,2.16-3.61c0.12-3.94,0.01-7.89-0.11-11.83
		c-1.63-0.22-3.27-0.43-4.89-0.65c-0.03,4.04-0.02,8.08,0,12.12c-2.1-0.04-4.21-0.08-6.31-0.1c-0.58-4.17-0.1-8.38-0.37-12.56
		C53.46,502.87,51.57,503.23,50.06,502.86z"/>
	<path class="st12" d="M-25.19,484.01c7.47,0.03,14.95,0.08,22.42,0.06c0.02,5.14,0.03,10.29-0.01,15.43
		c-2.57-1.98-5.12-4-7.62-6.06c0.01-0.81,0.03-2.43,0.04-3.24c-1.04-0.01-3.11-0.01-4.14-0.01c0.01,2.99,0.01,5.98,0.01,8.98
		c1.82,0,3.65,0,5.48,0.01c1.21,1.05,2.42,2.09,3.63,3.15c-1.27,0.98-2.53,1.97-3.79,2.96c-1.78,0.05-3.55,0.09-5.32,0.14
		c0,2.94,0,5.89-0.01,8.84c1.04,0,3.11,0,4.14,0c-0.02-0.78-0.05-2.34-0.06-3.12c2.51-2.09,5.1-4.07,7.64-6.12
		c0.04,5.13,0.02,10.25,0.02,15.38c-6.47-0.01-12.94,0.03-19.41,0.1c-0.03-10.88,0.03-21.77-0.02-32.65
		C-22.05,485.98-24.13,485.2-25.19,484.01 M-20.8,503.11c-0.01,5.31-0.01,10.63,0,15.95c5.55-0.03,11.09,0,16.64-0.13
		c-0.01-3.57,0.03-7.14-0.02-10.71c-3.01,1.4-5.59,3.86-5.15,7.47c-2.17-0.02-4.33-0.03-6.49-0.04c-0.04-3.86-0.04-7.71-0.02-11.56
		c2.8-0.11,6.18,0.57,8.16-1.94C-12.06,502.34-16.43,502.71-20.8,503.11z"/>
	<path class="st12" d="M-1.86,484.14c6.59-0.12,13.18-0.08,19.78-0.1c0.99,0.9,2.12,1.68,2.94,2.77c0.19,3.29,0.03,6.59,0.02,9.88
		c-2.04,1.57-4.03,3.21-5.97,4.91c1.98,1.55,3.93,3.14,5.92,4.67c0.16,4.78,0.06,9.57,0.09,14.35c-2.59-0.07-5.19-0.12-7.77-0.14
		c0.03-4.27-0.01-8.55,0.04-12.81c-1.35-1.12-2.71-2.23-4.08-3.33c-0.1,5.36,0.05,10.73-0.11,16.09c-2.54-0.01-5.08-0.02-7.61-0.01
		c-0.02-11.23,0.02-22.47-0.02-33.7C0.29,485.86-0.79,485-1.86,484.14 M9.06,490.19c0.15,2.45-0.39,5.05,0.42,7.42
		c1.66,0.25,2.55-1.5,3.74-2.35c-0.04-1.68-0.06-3.35-0.07-5.03C11.79,490.21,10.42,490.2,9.06,490.19 M2.87,501.9
		c-0.35,5.71-0.05,11.45-0.12,17.17c1.66-0.1,3.32-0.17,4.97-0.21c-0.04-5.73-0.1-11.46,0.03-17.19c2.22,1.63,4.57,3.13,6.47,5.14
		c0.73,4.02,0.09,8.18,0.32,12.26c1.62,0.01,3.25,0.03,4.88,0.05c-0.18-4.06,0.5-8.23-0.32-12.22c-2.06-1.96-4.29-3.77-6.64-5.38
		C9.35,501.36,5.73,500.8,2.87,501.9z"/>
	<path class="st12" d="M21.96,483.86c6.39-0.24,12.79-0.15,19.18-0.38c0.98,0.81,1.97,1.63,2.97,2.44
		c0.03,11.75-0.01,23.5,0.01,35.25c-2.46-0.08-4.92-0.15-7.38-0.19c-0.08-4.36,0.15-8.73-0.08-13.08c-0.86-1.47-2.61-2.13-3.87-3.18
		c-0.11,5.36-0.03,10.73-0.06,16.1c-2.62-0.01-5.24-0.06-7.85-0.17c-0.11-11.42,0.18-22.85-0.15-34.27
		C23.78,485.57,22.86,484.73,21.96,483.86 M32.74,490.01c0,2.34,0,4.68-0.01,7.02c1.31,1.04,2.63,2.08,3.96,3.11
		c0.06-3.39,0.05-6.77,0.05-10.15C35.4,489.99,34.07,490,32.74,490.01 M26.21,501.45c0.08,5.91,0.06,11.81,0.01,17.72
		c1.67,0.05,3.35,0.12,5.02,0.2c0.01-5.97-0.05-11.94,0.05-17.91C29.59,501.47,27.9,501.47,26.21,501.45 M31.95,501.68
		c1.76,1.98,4.06,3.36,5.88,5.25c0.5,4.22,0.09,8.48,0.3,12.72c1.56,0.02,3.12,0.04,4.68,0.07c0.02-5.82,0.07-11.64-0.04-17.45
		C39.17,501.96,35.57,501.67,31.95,501.68z"/>
</g>
<g id="_x23_c69c6cff">
	<path class="st13" d="M14.41,382.26c1.93-1.58,5.33-2.09,6.75,0.42c3.32,4.89,3.74,11.05,5.44,16.59
		c-0.06,0.64-0.17,1.92-0.23,2.56c4.88-5.47,11.16-10.22,18.49-11.64c3.11-0.43,7.74-0.68,8.82,3.14c-2.93,0.08-6.04-0.7-8.85,0.33
		c-3.87,2.63-5.33,7.35-7.03,11.46c3-2.35,6.63-3.55,10.32-4.32c-4.99,5.46-10.66,10.23-16.39,14.89c-2.49,2.03-5.71,2.67-8.68,3.67
		c-3.57,1.04-7.08,2.39-10.77,2.9c-8.44-0.08-16.93,1.21-25.32-0.31c-10.32-1.35-19.94-5.79-28.3-11.89
		c-5.4-6.6-10.37-14.33-18.61-17.69c0.58-1.68,1.14-3.36,1.67-5.05c8.39,2.33,15.66,7.31,22.78,12.14c4,2.67,7.51,6.17,12.03,7.97
		c4.98,1.49,10.13-1.21,13.48-4.82c-1.42-0.77-2.84-1.52-4.27-2.24c3.63-1.13,7.36-2.13,10.65-4.09
		C2.96,392.37,8.22,386.69,14.41,382.26z"/>
</g>
<g id="_x23_a4825aff">
	<path class="st14" d="M-41.34,410.06c8.36,6.1,17.98,10.54,28.3,11.89c8.39,1.52,16.88,0.23,25.32,0.31
		c-9.73,3.14-20.28,4.3-30.43,2.8C-27.52,423.62-36.29,418.13-41.34,410.06z"/>
</g>
<g id="_x23_8f2406ff">
	<path class="st15" d="M91.16,413.63c2.25-1.85,5.09-2.58,7.95-2.65c-2.06,2.43-4.16,6.46-1.21,9.09c4.2,3.61,8.86,7.38,14.41,8.51
		c0.42,0.46,1.25,1.39,1.66,1.85c-4.85-0.36-10.31-0.9-13.9-4.59C96.44,422.34,92.46,418.7,91.16,413.63z"/>
</g>
<g id="_x23_8f2305ff">
	<path class="st16" d="M105.63,410.44c2.67,2.38,4.18,5.69,6.36,8.48c2.15,3.09,4.89,5.7,7.39,8.5c-3.47-0.45-6.17-2.71-8.62-5.01
		c0.01,0.9,0.05,2.7,0.07,3.6C108.24,421.21,104.88,416.16,105.63,410.44z"/>
</g>
<g id="_x23_863821cc">
	<path class="st17" d="M135.02,423.65c1.24,0.39,2.01,1.21,2.3,2.47C135.75,426.06,134.98,425.24,135.02,423.65z"/>
</g>
<g id="_x23_902205ff">
	<path class="st18" d="M20.78,437.53c2.04-1.01,4.05-2.06,6.13-2.97c-3.94,7.98-12.78,12.48-21.3,13.69c-9.01,1-18.26,0.5-26.98-2.1
		c8-0.39,16.05,0.45,24.01-0.71c7.29-0.82,14.26-3.56,20.56-7.26C22.6,438.02,21.39,437.69,20.78,437.53z"/>
</g>
<g id="_x23_333433ff">
	<path class="st19" d="M101.3,440.31c1.03,0.38,2.06,0.75,3.09,1.14c-1.42,10.61-3.57,21.32-8.82,30.77
		c-0.65-0.17-1.93-0.52-2.58-0.7C97.61,461.71,100.61,451.16,101.3,440.31z"/>
</g>
<g id="_x23_ac2200ff">
	<path class="st20" d="M14.04,474.08c4.5-0.54,8.82-1.98,13.19-3.14c-2.35,1.42-4.69,2.86-7.1,4.18
		c-11.4,0.63-22.86,0.39-34.29,0.34c-0.25-1.43-0.5-2.86-0.75-4.29C-5.55,473.85,4.32,475.32,14.04,474.08z"/>
</g>
<g id="_x23_8a5148c2">
	<path class="st21" d="M-138.65,475.32c0.05,0.06,0.15,0.17,0.2,0.22C-138.5,475.49-138.6,475.38-138.65,475.32z"/>
</g>
<g id="_x23_adadadff">
	<path class="st22" d="M2.87,501.9c2.86-1.1,6.48-0.54,9.59-0.38c2.35,1.61,4.58,3.42,6.64,5.38c0.82,3.99,0.14,8.16,0.32,12.22
		c-1.63-0.02-3.26-0.04-4.88-0.05c-0.23-4.08,0.41-8.24-0.32-12.26c-1.9-2.01-4.25-3.51-6.47-5.14c-0.13,5.73-0.07,11.46-0.03,17.19
		c-1.65,0.04-3.31,0.11-4.97,0.21C2.82,513.35,2.52,507.61,2.87,501.9z"/>
	<path class="st22" d="M-20.8,503.11c4.37-0.4,8.74-0.77,13.12-0.96c-1.98,2.51-5.36,1.83-8.16,1.94c-0.02,3.85-0.02,7.7,0.02,11.56
		c2.16,0.01,4.32,0.02,6.49,0.04c-0.44-3.61,2.14-6.07,5.15-7.47c0.05,3.57,0.01,7.14,0.02,10.71c-5.55,0.13-11.09,0.1-16.64,0.13
		C-20.81,513.74-20.81,508.42-20.8,503.11z"/>
	<path class="st22" d="M26.21,501.45c1.69,0.02,3.38,0.02,5.08,0.01c-0.1,5.97-0.04,11.94-0.05,17.91c-1.67-0.08-3.35-0.15-5.02-0.2
		C26.27,513.26,26.29,507.36,26.21,501.45z"/>
	<path class="st22" d="M31.95,501.68c3.62-0.01,7.22,0.28,10.82,0.59c0.11,5.81,0.06,11.63,0.04,17.45
		c-1.56-0.03-3.12-0.05-4.68-0.07c-0.21-4.24,0.2-8.5-0.3-12.72C36.01,505.04,33.71,503.66,31.95,501.68z"/>
	<path class="st22" d="M50.06,502.86c1.51,0.37,3.4,0.01,4.67,1.02c0.27,4.18-0.21,8.39,0.37,12.56c2.1,0.02,4.21,0.06,6.31,0.1
		c-0.02-4.04-0.03-8.08,0-12.12c1.62,0.22,3.26,0.43,4.89,0.65c0.12,3.94,0.23,7.89,0.11,11.83c0.34,1.69-1.09,2.65-2.16,3.61
		c-4.73-0.31-9.46-0.33-14.19-0.5C49.91,514.29,49.91,508.58,50.06,502.86z"/>
	<path class="st22" d="M-43.93,506.14c1.48-0.23,2.97-0.45,4.46-0.67c0.43,4.66,0.18,9.34,0.19,14.02
		c-1.56,0.07-3.12,0.14-4.68,0.21C-44.07,515.18-44.1,510.66-43.93,506.14z"/>
	<path class="st22" d="M73.17,506.48c1.54,0.25,3.09,0.45,4.62,0.84c0.92,3.12,0.2,6.6,0.51,9.85c2.16,0.05,4.32,0.11,6.48,0.19
		c0.15-2.81,0.27-5.61,0.34-8.41c1.53,0.31,3.05,0.62,4.59,0.92c0.24,3.96,0.19,7.93,0.14,11.89c-5.56-0.17-11.1-0.45-16.64-0.88
		C73.18,516.08,73.2,511.28,73.17,506.48z"/>
	<path class="st22" d="M-55.83,508.36c1.46-0.3,2.92-0.6,4.38-0.9c0.23,3.39,0.47,6.8,0.11,10.19c-0.5,1.44-2.18,2.32-3.66,2.36
		c-4.28,0.26-8.57,0.26-12.85,0.31c0.01-3.22,0.03-6.44,0.01-9.65c1.88-0.73,3.56,0.22,5.01,1.36c0.04,1.48,0.1,2.96,0.16,4.45
		c2.16-0.07,4.32-0.12,6.49-0.16C-56.03,513.66-55.9,511.01-55.83,508.36z"/>
	<path class="st22" d="M107.22,508.87c0.5,2.65,0.49,5.36,0.5,8.05c-1.63,0-3.26,0-4.88,0.01c0.05-1.39,0.11-2.79,0.17-4.18
		c0.09,1.32,0.19,2.63,0.28,3.95c0.91,0.01,2.73,0.03,3.64,0.04C106.87,514.11,106.96,511.48,107.22,508.87z"/>
	<path class="st22" d="M96.87,511.99c1.45,0.37,2.9,0.73,4.32,1.22c1,1.36,0.44,3.26,0.66,4.86c2.13,0.13,4.27,0.27,6.4,0.41
		c0.18-0.68,0.52-2.04,0.7-2.72c1.48,0.85,4.49,0.69,4.31,3.05c0.42,1.82-0.58,3.55-2.21,4.35c-4.77,0.06-9.52-0.56-14.26-0.96
		C96.78,518.8,96.8,515.39,96.87,511.99z"/>
	<path class="st22" d="M-79.72,513.54c1.71-0.38,3.41-0.78,5.12-1.18c0.05,2.82,0.04,5.64,0.01,8.47
		c-5.58,0.17-11.13,0.7-16.71,0.75c-0.02-1.64-0.04-3.27-0.06-4.91c1.19-0.45,2.38-0.89,3.57-1.34c0.89,0.66,1.76,1.32,2.64,1.99
		c1.9-0.11,3.8-0.33,5.69-0.58C-79.52,515.94-79.66,514.34-79.72,513.54z"/>
</g>
<g id="_x23_bababaff">
	<path class="st23" d="M-111.39,522.97c4.09-2.56,9.06-3.47,13.74-4.43c-0.78,1.43-1.47,3.45-3.37,3.69
		C-104.43,522.91-107.93,522.97-111.39,522.97z"/>
</g>
<g id="_x23_313337ff">
	<path class="st24" d="M-46.68,529.85c1.4-0.07,2.79-0.13,4.19-0.18c10.67,7.8,22.06,14.57,33.58,21.04
		c1.94,1.14,3.96,2.16,6.11,2.82c8.93-3.76,17.03-9.15,25.35-14.05c4.85-3.01,10.04-5.67,14.02-9.86c1.86,0.05,3.71,0.15,5.57,0.3
		c-13.85,10.21-28.81,18.84-44.2,26.5C-17.72,549.02-32.66,540.03-46.68,529.85z"/>
</g>
</svg>
