<?xml version="1.0" encoding="utf-8"?>
<!-- Generator: Adobe Illustrator 19.0.0, SVG Export Plug-In . SVG Version: 6.00 Build 0)  -->
<svg version="1.1" id="Layer_1" xmlns="http://www.w3.org/2000/svg" xmlns:xlink="http://www.w3.org/1999/xlink" x="0px" y="0px"
	 viewBox="28.6 536.9 207.1 106.1" style="enable-background:new 28.6 536.9 207.1 106.1;" xml:space="preserve">
<g>
	<path d="M131.6,596.6c-0.1-0.4,0.1-1.1,0.7-1c4,0,7.9,0,11.9,0c2.3,0,4.6,0.1,6.7,1.2c3.4,1.7,3.6,7.2,0.5,9.3
		c-0.7,0.5-1.6,0.8-2.4,1.1c1.9,2.4,3.8,4.7,5.7,7.1c-0.1,0.2-0.2,0.5-0.3,0.7c-2,0-4,0-6,0c-1.8-2.4-3.6-4.8-5.4-7.2
		c-1.8,0-3.6,0-5.4,0c-0.1,2.4,0.2,4.8-0.2,7.2c-1.8,0-3.6,0.1-5.4,0c-0.5-0.3-0.4-0.8-0.4-1.3C131.6,607.8,131.6,602.2,131.6,596.6
		 M137.5,599.5c0,1.4,0,2.8,0,4.2c2.4,0,4.8,0.1,7.2,0c0.9-0.1,1.9-0.1,2.5-0.9c0.4-0.7,0.4-1.6,0-2.3c-0.6-0.8-1.7-0.8-2.5-0.9
		C142.3,599.4,139.9,599.5,137.5,599.5z"/>
	<path d="M159.5,598.1c2.4-2.1,5.7-2.5,8.8-2.5c2.9,0,5.9-0.1,8.8,0c0.1,0.1,0.3,0.3,0.4,0.4c0.1,1,0.1,2.1,0,3.2
		c-0.1,0.1-0.3,0.3-0.4,0.4c-2.7,0.1-5.5,0-8.2,0c-1.6,0-3.4,0.1-4.6,1.3c-0.7,0.6-0.9,1.5-1.1,2.3c4.8,0,9.6,0,14.3,0
		c0,1.2,0.1,2.4,0,3.5c-0.1,0.1-0.3,0.3-0.4,0.4c-4.7,0.1-9.3,0-14,0c0.2,1,0.4,2.2,1.3,2.9c1.2,0.9,2.8,1,4.2,1
		c2.8,0,5.7-0.1,8.5,0c0.1,0.1,0.3,0.3,0.4,0.4c0.1,1,0.1,2.1,0,3.2c-0.1,0.1-0.3,0.3-0.4,0.4c-2.7,0.1-5.5,0-8.2,0
		c-2.8,0-5.7-0.1-8.2-1.6c-2.3-1.3-3.7-3.8-3.9-6.4C156.5,603.7,157.1,600.2,159.5,598.1z"/>
	<path d="M179,613.6c3.4-6,6.7-12.1,10.1-18.1c2,0,3.9,0,5.9,0c3.5,6.2,7,12.4,10.5,18.7c-0.1,0.2-0.3,0.5-0.3,0.6c-2,0-4,0-6,0
		c-0.8-1.5-1.5-2.9-2.2-4.4c-3.4,0-6.7,0-10.1,0c-0.7,1.5-1.4,2.9-2.2,4.4c-1.9,0-3.8,0-5.7,0C178.8,614.4,178.7,614,179,613.6
		 M189,606.5c2,0,3.9,0,5.9,0c-1-2-2-3.9-3-5.9C190.9,602.6,190,604.5,189,606.5z"/>
	<path d="M207.4,596.2c-0.1-0.5,0.5-0.8,0.9-0.7c2.4,0,4.8,0,7.2,0c2,4.5,4,9,6,13.6c2-4.5,4-9,6-13.6c2.5,0,5.1,0,7.6,0
		c0.6-0.1,0.8,0.6,0.7,1c0,6,0.1,11.9,0,17.9c-0.1,0.1-0.3,0.3-0.4,0.4c-1.8,0.1-3.5,0.1-5.3,0c-0.3-0.4-0.2-0.8-0.2-1.3
		c0.1-3.8,0.2-7.6,0.3-11.3c-1.8,4.2-3.7,8.5-5.5,12.7c-2,0-4,0-6,0c-1.9-4.3-3.8-8.6-5.7-12.8c0.1,3.3,0.2,6.7,0.3,10
		c0,0.9,0.2,1.9-0.2,2.8c-1.8-0.1-3.6,0.1-5.4-0.1c-0.5-0.3-0.3-0.9-0.4-1.3C207.4,607.7,207.4,602,207.4,596.2z"/>
</g>
<g>
	<path d="M75.5,541.8c6.1-5.1,15.3-6.6,22.3-2.7c7.4,4,11.4,12.2,12.7,20.3c7.1-2.4,15.4-3.6,22,0.8c6.1,3.9,8.6,11,9.9,17.7
		c9.6-5.3,21.7-1.7,29.3,5.6c-2.4,0.2-4.7,0.6-7.1,1.1c-5.1-3.9-11.7-6.4-18.2-5.1c-3.1,0.2-5.4,2.4-7.6,4.2
		c-1.1-7.4-3.2-15.8-10.2-19.8c-6.5-4-14.5-1.7-20.8,1.5c0-7.9-3.5-16.1-10.3-20.4c-7.5-5-18.8-1.9-23,6c-3.3,5-3.2,11.2-3.3,17
		c-2.8-2-6.2-3.9-9.7-2.6c-5,2-8.4,7.3-8.4,12.6c0,3.4,3.1,5.5,5.2,7.6c-6.8,0.6-13.9,1.1-20.2,4.1c-3,1.8-6.5,0.4-9.7,0.3
		c6.4-5,14.5-6,22.2-7.6c-4.6-7.2-0.4-16.9,6.6-20.8c3.2-1.8,7.2-1.2,10.5-0.1C67.8,554.3,70,546.6,75.5,541.8z"/>
	<path d="M80.7,572.5c15.3,0,30.7,0,46,0c-0.4,12.5,1.5,25.3-2.2,37.5c-5.3,19-24,33.2-43.8,33c0.1-3.3,0.2-6.6,0.3-9.9
		c7.4,0.5,15.1-0.2,21.8-3.7c9.6-4.9,15.8-15,17.9-25.3c0.5-7.5-0.3-15.1-0.2-22.6c-13.3-0.7-26.5,0.8-39.7,2
		C80.8,579.8,80.8,576.1,80.7,572.5z"/>
	<path d="M62.7,586.6c5.3-3.7,10.4-7.9,13.3-13.9c-0.2,23.3,0,46.5-0.1,69.8c-2.1,0.1-4.2,0.2-6.3,0.2
		C69.5,623.9,69,604.6,62.7,586.6z"/>
	<path d="M85.1,586.3c10.5-2.3,21.3-1.3,31.9-1.6c-0.4,9.3,1.5,19.3-2.6,28c-1.4,3.5-3.9,6.3-6.2,9.2c2.1-4,4.7-8.2,5-12.9
		c0.4-7.1,0.7-14.1,0.6-21.2C104.2,587.4,94.7,586.7,85.1,586.3z"/>
</g>
<g>
	<path d="M135.9,618.9c1.9-0.2,3.8-0.1,5.7-0.1c0,0,0.1,0.1,0.2,0.2c0,0.5,0,1,0,1.6c0,0-0.1,0.1-0.2,0.2c-1.5,0.1-3,0-4.5,0
		c-0.7,0-1.5,0.2-1.9,0.8c-0.4,0.6-0.5,1.4-0.5,2.2c0,0.7,0.1,1.4,0.5,1.9c0.4,0.5,1.1,0.6,1.8,0.7c1.5,0.1,3.1,0,4.6,0
		c0,0,0.1,0.1,0.2,0.2c0,0.5,0,1,0,1.6c0,0-0.1,0.1-0.2,0.2c-1.1,0.1-2.2,0-3.3,0c-1.6,0-3.3,0.1-4.7-0.7c-1.1-0.6-1.9-1.8-2.1-3
		c-0.2-1.4,0-3,1-4.1C133.4,619.4,134.7,619,135.9,618.9z"/>
	<path d="M143.9,618.9L143.9,618.9c0.9-0.1,1.7-0.1,2.6-0.1c0.2,0,0.4,0.2,0.4,0.4c0,2.9,0,5.9,0,8.8c0,0.2-0.2,0.4-0.4,0.4
		c-0.8,0-1.7,0-2.5,0c-0.2-0.1-0.2-0.4-0.2-0.7c0-2.9,0-5.8,0-8.7L143.9,618.9z"/>
	<path d="M148.1,619c0,0,0.1-0.1,0.2-0.2c3.4,0,6.7,0,10.1,0c0.2,0,0.6,0.1,0.6,0.4c0,0.5,0.1,1.1-0.1,1.6c-1.3,0.1-2.5,0-3.8,0
		c0,2.5,0,4.9,0,7.4c0,0-0.1,0.1-0.2,0.2c-0.9,0-1.7,0-2.6,0c-0.2-0.1-0.2-0.4-0.2-0.6c0-2.3,0-4.6,0-6.9c-1.2,0-2.5,0-3.7,0
		c0,0-0.1-0.1-0.2-0.2C148,620,148,619.5,148.1,619z"/>
	<path d="M160,619.1c0-0.1,0.1-0.3,0.2-0.3c1,0,2,0,2.9,0c1,1.1,1.9,2.2,2.9,3.4c1-1.1,1.9-2.2,2.9-3.4c1,0,2.1,0,3.1,0
		c0.2,0.4-0.2,0.6-0.4,0.9c-1.3,1.5-2.7,3-4,4.5c-0.1,1.3,0,2.6-0.1,3.9c0,0-0.1,0.1-0.1,0.2c-0.9,0-1.7,0-2.6,0
		c0,0-0.1-0.1-0.1-0.2c-0.1-1.3,0-2.6,0-3.9C163,622.5,161.5,620.8,160,619.1z"/>
</g>
</svg>
