<?xml version="1.0" encoding="utf-8"?>
<!-- Generator: Adobe Illustrator 19.0.0, SVG Export Plug-In . SVG Version: 6.00 Build 0)  -->
<svg version="1.1" id="Layer_1" xmlns="http://www.w3.org/2000/svg" xmlns:xlink="http://www.w3.org/1999/xlink" x="0px" y="0px"
	 viewBox="-230 401.9 135 39.18" style="enable-background:new -230 401.9 135 39.18;" xml:space="preserve">
<g id="_x23_000000ff">
	<path d="M-166.96,402c20.67-0.07,41.34-0.01,62.01-0.1c1.39,2.25,2.69,4.55,3.99,6.84c-20.7-0.17-41.4,0.41-62.1,0.15
		c-2.92,5.77-5.11,11.87-8.08,17.61c3.71,0.06,7.43,0.05,11.15,0.09c-0.16-0.58-0.48-1.72-0.64-2.3c1.12-2.31,2.22-4.64,3.25-7
		c2.32,5.03,4.34,10.21,6.96,15.1c-10.03,0.5-20.11,0.19-30.16,0.15C-175.9,422.42-171.42,412.21-166.96,402z"/>
	<path d="M-230,409.98c2.04,0,4.09-0.01,6.13-0.03c0,2.75-0.03,5.5-0.08,8.25c1.52,0,3.04,0,4.56,0c-0.04-2.79-0.05-5.57-0.04-8.35
		c1.97,0.01,3.95,0.01,5.92,0c0.16,7.61,0.12,15.23,0.03,22.84c-2-0.04-3.99-0.07-5.99-0.09c0.02-2.77,0.05-5.53,0.09-8.29
		c-1.52,0-3.05,0-4.57,0.01c0.05,2.77,0.08,5.54,0.08,8.31c-2.04-0.01-4.09-0.02-6.13-0.01V409.98z"/>
	<path d="M-212.08,409.96c5.6,0,11.2,0,16.8,0c1.02,1.99,1.99,4.01,2.94,6.03c-6.53-0.08-13.05-0.01-19.57-0.04
		C-211.98,413.95-212.03,411.96-212.08,409.96z"/>
	<path d="M-193.35,409.93c2.31-0.01,4.61,0.03,6.92,0.11c1.17,2.74,2.33,5.49,3.5,8.23c1.4-2.72,2.53-5.58,3.91-8.31
		c2.26,0.01,4.52-0.05,6.78-0.15c-4.58,10.37-9.4,20.64-13.79,31.09c-1.33-2.45-2.78-4.95-3.46-7.65c0.98-2.52,2.27-4.9,3.35-7.38
		C-188.47,420.53-191.01,415.27-193.35,409.93z"/>
	<path d="M-159.24,410.05c1.99,0,3.98,0,5.96-0.01c2.66,5.45,5.01,11.04,7.62,16.52c2.3-0.01,4.6-0.01,6.9,0
		c-2.66-5.51-5.37-11-7.97-16.54c1.97,0.27,4.38-0.59,6.11,0.51c2.35,4.73,4.54,9.58,6.68,14.41c0.01,2.63-1.587,4.944-2.81,7.41
		c-4.06,0.4-8.59,0.67-12.54-0.14C-152.63,424.85-156,417.47-159.24,410.05z"/>
	<path d="M-124.87,409.99c2.21,0.03,4.41,0.05,6.62,0.09c-4.65,10.3-9.33,20.6-13.78,31c-1.2-2.46-2.23-5-3.49-7.43
		c1.09-2.67,2.34-5.27,3.6-7.86c-2.54-5.21-4.76-10.56-7.27-15.78c2.19,0.02,4.39,0.02,6.59-0.06c1.55,2.63,2.59,5.5,3.75,8.3
		C-127.39,415.56-126.3,412.7-124.87,409.99z"/>
	<path d="M-116.54,410.04c5.32-0.01,10.64-0.04,15.96,0.01c0.98,1.98,1.97,3.95,2.97,5.92c-4.96,0.21-10-0.51-14.89,0.31
		c-0.32,0.47-0.94,1.41-1.25,1.88c6.25,0.12,12.5,0.01,18.75,0.07v0.44c-2.29,4.58-4.33,9.28-6.45,13.95
		c-8.49,0.01-16.98,0.01-25.47,0c1.04-2.03,2.09-4.05,3.13-6.08c6.07-0.16,12.18,0.36,18.23-0.22c0.32-0.5,0.95-1.5,1.27-1.99
		c-6.27-0.08-12.54-0.04-18.82-0.02C-120.77,419.62-118.75,414.79-116.54,410.04z"/>
	<path d="M-212.06,418.21c6.88-0.02,13.76,0.04,20.64-0.03c1.04,2.03,2.07,4.07,3.1,6.12c-7.88-0.02-15.77,0.01-23.65-0.02
		C-212,422.25-212.03,420.23-212.06,418.21z"/>
	<path d="M-212.07,426.56c7.88-0.03,15.77,0.02,23.66-0.03c-0.884,1.927-1.758,4.147-2.81,6.02c-6.948,0.096-13.82,0.02-20.74,0.06
		C-211.99,430.59-212.03,428.57-212.07,426.56z"/>
</g>
</svg>
