<?xml version="1.0" encoding="utf-8"?>
<!-- Generator: Adobe Illustrator 19.0.0, SVG Export Plug-In . SVG Version: 6.00 Build 0)  -->
<svg version="1.1" id="Layer_1" xmlns="http://www.w3.org/2000/svg" xmlns:xlink="http://www.w3.org/1999/xlink" x="0px" y="0px"
	 viewBox="-147 330.37 300 180.58" style="enable-background:new -147 330.37 300 180.58;" xml:space="preserve">
<style type="text/css">
	.st0{fill:#FFFFFF;}
	.st1{fill:#002750;}
</style>
<g id="_x23_ffffffff">
	<path class="st0" d="M-147,330.4c95.56,0,191.12-0.09,286.68,0.04c-33.56,23.41-66.94,47.08-100.45,70.55
		c-2.03,1.38-4.14,2.7-5.73,4.61c33.45,23.42,66.57,47.33,99.92,70.91c6.53,4.56,12.84,9.44,19.58,13.68v0.15
		c-29.21,0.18-58.42,0.04-87.63,0.08c-28.91-20.57-57.76-41.2-86.7-61.73c-0.05-14.12,0.06-28.24-0.07-42.36
		c5.06-3.61,9.78-7.76,15.22-10.79c-0.43-0.2-1.29-0.61-1.72-0.81c-6.27-0.01-12.53,0-18.79-0.01c-0.13,32.72-0.01,65.45-0.08,98.18
		c-18.31,12.66-36.66,25.25-54.87,38.05c-0.14-45.27-0.14-90.55-0.03-135.82c-2.1-0.29-4.21-0.48-6.33-0.43
		c-19.48,0.11-38.97-0.1-58.44,0.1l-0.56,0.73V330.4 M-142.22,335.4c0.12,9.15,0.04,18.31,0.05,27.47c0.05,2.45-0.32,5,0.56,7.35
		c20.55-0.27,41.11-0.02,61.66-0.13c1.26,0.12,3.74-0.5,3.11,1.76c0.06,15.37,0.05,30.75-0.03,46.12
		c-0.83,8.63,0.22,17.27-0.06,25.91c0.11,4.31,0.11,8.62,0.07,12.93c-0.54,7.7,0.48,15.43-0.26,23.13
		c0.15,7.28,0.37,14.55,0.29,21.84c15.02-10.59,30.24-20.88,45.27-31.44c-0.08-33.42-0.2-66.83-0.12-100.25
		c10.03,0.08,20.06-0.08,30.08,0.09c16.04-11.5,31.96-23.18,47.87-34.84C-16.55,335.25-79.39,335.13-142.22,335.4 M52.7,337.66
		c-23,17.08-46.17,33.92-69.14,51.04c0.03,12.48,0.07,24.95-0.12,37.43c27.66,19.78,55.35,39.53,83.1,59.18
		c23.41,0.28,47.09-0.12,70.59,0.23c-1.23-1.5-2.88-2.55-4.45-3.64c-34.85-24.7-69.55-49.6-104.47-74.2
		c-1.17-0.81-2.26-1.73-3.33-2.67c33.22-23.02,66.18-46.43,99.23-69.69c-22.05-0.2-44.11,0-66.17-0.1
		C55.8,334.85,54.29,336.57,52.7,337.66z"/>
	<path class="st0" d="M-137.23,340.34c56.15-0.24,112.3-0.1,168.44-0.07c-11.43,8.26-22.81,16.59-34.22,24.89
		c-11.21-0.02-22.42-0.02-33.63,0c0.16,34.23-0.08,68.46-0.01,102.69c-11.83,7.98-23.33,16.49-35.33,24.2
		c-0.23-39.36-0.28-78.79-0.07-118.16c-0.05-2.87,0.65-5.88-0.09-8.66c-19.96-0.19-39.93-0.05-59.89-0.07
		c-1.64-0.27-3.73,0.62-5.08-0.54C-137.32,356.53-137.07,348.43-137.23,340.34z"/>
	<path class="st0" d="M54,342.87c1.56-1,2.93-2.8,4.97-2.64c16.59,0.02,33.19-0.07,49.78,0.05c-31.04,21.31-61.51,43.44-92.52,64.78
		c35.21,25.43,70.75,50.42,106.13,75.6c-17.46,0.19-34.92,0.06-52.38,0.08c-2.16,0.11-3.6-1.77-5.28-2.79
		c-25.41-18.12-50.81-36.25-76.22-54.36c-0.07-10.78-0.02-21.55-0.04-32.33C10.3,375.15,32.16,359.01,54,342.87z"/>
</g>
<g id="_x23_002750ff">
	<path class="st1" d="M-142.22,335.4c62.83-0.27,125.67-0.15,188.49-0.06C30.36,347,14.44,358.68-1.6,370.18
		c-10.02-0.17-20.05-0.01-30.08-0.09c-0.08,33.42,0.04,66.83,0.12,100.25c-15.03,10.56-30.25,20.85-45.27,31.44
		c0.08-7.29-0.14-14.56-0.29-21.84c0.74-7.7-0.28-15.43,0.26-23.13c0.04-4.31,0.04-8.62-0.07-12.93c0.28-8.64-0.77-17.28,0.06-25.91
		c0.08-15.37,0.09-30.75,0.03-46.12c0.63-2.26-1.85-1.64-3.11-1.76c-20.55,0.11-41.11-0.14-61.66,0.13
		c-0.88-2.35-0.51-4.9-0.56-7.35C-142.18,353.71-142.1,344.55-142.22,335.4 M-137.23,340.34c0.16,8.09-0.09,16.19,0.12,24.28
		c1.35,1.16,3.44,0.27,5.08,0.54c19.96,0.02,39.93-0.12,59.89,0.07c0.74,2.78,0.04,5.79,0.09,8.66
		c-0.21,39.37-0.16,78.8,0.07,118.16c12-7.71,23.5-16.22,35.33-24.2c-0.07-34.23,0.17-68.46,0.01-102.69
		c11.21-0.02,22.42-0.02,33.63,0c11.41-8.3,22.79-16.63,34.22-24.89C-24.93,340.24-81.08,340.1-137.23,340.34z"/>
	<path class="st1" d="M52.7,337.66c1.59-1.09,3.1-2.81,5.24-2.42c22.06,0.1,44.12-0.1,66.17,0.1
		c-33.05,23.26-66.01,46.67-99.23,69.69c1.07,0.94,2.16,1.86,3.33,2.67c34.92,24.6,69.62,49.5,104.47,74.2
		c1.57,1.09,3.22,2.14,4.45,3.64c-23.5-0.35-47.18,0.05-70.59-0.23c-27.75-19.65-55.44-39.4-83.1-59.18
		c0.19-12.48,0.15-24.95,0.12-37.43C6.53,371.58,29.7,354.74,52.7,337.66 M54,342.87c-21.84,16.14-43.7,32.28-65.56,48.39
		c0.02,10.78-0.03,21.55,0.04,32.33c25.41,18.11,50.81,36.24,76.22,54.36c1.68,1.02,3.12,2.9,5.28,2.79
		c17.46-0.02,34.92,0.11,52.38-0.08c-35.38-25.18-70.92-50.17-106.13-75.6c31.01-21.34,61.48-43.47,92.52-64.78
		c-16.59-0.12-33.19-0.03-49.78-0.05C56.93,340.07,55.56,341.87,54,342.87z"/>
</g>
</svg>
