<?xml version="1.0" encoding="utf-8"?>
<!-- Generator: Adobe Illustrator 19.0.0, SVG Export Plug-In . SVG Version: 6.00 Build 0)  -->
<svg version="1.1" id="Layer_1" xmlns="http://www.w3.org/2000/svg" xmlns:xlink="http://www.w3.org/1999/xlink" x="0px" y="0px"
	 viewBox="-201.623 340.16 147.323 156.577" style="enable-background:new -201.623 340.16 147.323 156.577;" xml:space="preserve">
<style type="text/css">
	.st0{fill:#DFB400;}
	.st1{fill:#FFC800;}
	.st2{fill:#FFB300;}
	.st3{fill:#7C786A;}
	.st4{fill:#141414;}
	.st5{fill:#181818;}
	.st6{fill:#433915;}
	.st7{fill:#202021;}
	.st8{fill:#222222;}
	.st9{fill:#B28F0B;}
	.st10{fill:#6A5714;}
	.st11{fill:#181819;}
	.st12{fill:#171818;}
	.st13{fill:#8F730D;}
	.st14{fill:#EDCC54;}
	.st15{fill:#C39902;}
	.st16{fill:#BF9706;}
	.st17{fill:#947800;}
	.st18{fill:#896D07;}
	.st19{fill:#181717;}
	.st20{fill:#1B1B1B;}
	.st21{fill:#7E5A00;}
	.st22{fill:#936200;}
	.st23{fill:#754E00;}
</style>
<g id="_x23_000000ff">
	<path d="M-103.54,344.89c-0.39-2.06,1.32-3.42,2.58-4.73c2.12,1.99,4.45,4.02,5.43,6.86c1.83,5.45,2.5,11.39,5.52,16.38
		c1.66-5.42-0.38-11.57,2.63-16.61c1.69,1.06,3.72,2,4.44,4.02c1.97,4.75,1.96,10.02,3.44,14.92c1.78-4.62,3.18-10.02,7.66-12.82
		c2.37,3.99,0.99,8.71,2.11,13c1.78-1.11,3.44-3.38,5.79-2.21c3.63,8.87-1.54,18.05-1.72,27.08c2.53-3.15,4.74-7.38,9.27-7.72
		c0.58,7.71-2.31,15.31-6.42,21.74c2.67-0.98,6.25-3.04,8.51-0.21c-1.23,4.46-3.12,8.73-6.46,12.03c1.9,0.07,5.69-1.89,5.93,1.22
		c0.01,4.66-4.23,7.4-7.24,10.26c2.02,0.45,4.58,0.08,6.13,1.78c0.96,1.25,1.04,3.03,0.4,4.45c-2.83,2.11-6.26,3.18-9.45,4.6
		c3.09,0.16,5.69,1.86,5.96,5.17c-3.37,2.97-7.89,3.55-12.07,4.6c1.93,1.68,5.78,2.12,6,5.06c-1.45,3.16-5.9,1.99-8.7,2.83
		c0.14,2.89,4.98,5.35,2.89,8.27c-3.28,1.05-6.76,0.43-10.12,0.25c1,2.32,1.83,4.7,2.52,7.13c-2.71,0.46-5.44,0.22-8.12-0.24
		c-0.06,1.42-0.13,2.85-0.19,4.28c-2.81,0.16-5.35-1.04-7.83-2.18c-0.11,2.24,0.08,4.56-0.72,6.7c-2.18-0.66-3.75-2.45-5.62-3.66
		c-0.29,2.28-0.37,4.62-0.92,6.86c-1.25,1.53-2.79-0.35-4.06-0.83c-5.59,5.71-12.43,10.16-19.87,13.07
		c-1.38,0.63-2.93,0.68-4.32,0.04c-6.54-2.51-12.6-6.27-17.79-10.97c-1.31,0.5-2.62,1.03-3.97,1.43c-0.95-2.08-1.35-4.35-1.83-6.56
		c-1.92,2.24-4.68,2.94-7.51,2.32c-0.94-1.33-1.55-3.88-3.71-3.25c-3.26,0.46-6.63,0.59-9.62-1.06c0.09-1.25,0.17-2.5,0.25-3.74
		c-2.81-1.08-7.03-1.08-8.06-4.52c0.33-1.35,0.79-2.66,1.23-3.97c-3.24-2.24-6.23-4.84-8.49-8.08c0.71-0.93,1.42-1.86,2.13-2.79
		c-2.15-2.1-5.41-3.85-5.41-7.26c-2.3-1.86-4.75-3.86-5-7.06c1.55-0.82,3.09-1.65,4.62-2.5c-2.78-2.32-5.56-5.16-5.68-9.03
		c2.39-0.44,4.81-0.66,7.23-0.69c-3.48-3.61-7.06-7.32-8.84-12.12c0.86-0.1,2.59-0.3,3.45-0.4c-0.08-4.74-4.83-7.93-4.44-12.89
		c2.17-0.01,4.33,0.22,6.47,0.55c-2.38-5.61-4.17-11.52-4.21-17.67c2.32,0.42,4.19,1.92,6.18,3.08c-0.35-8.32-2.85-17.37,0.93-25.24
		c2.81,1.74,4.75,4.43,6.54,7.14c-0.98-4.49-0.41-9.11,0.52-13.56c0.44-1.82,2.94-2.99,4.49-1.73c1.85,1.12,3.39,2.65,4.97,4.09
		c1-3.65,2.03-7.45,4.4-10.49c0.65-0.97,1.84-1.46,3-1.21c1.45,2.41,2.21,5.17,3.21,7.78c2.72-5.16,4.92-11.11,10.35-14.07
		c1.86,3.17,0.35,6.7,0.2,10.08c-0.39,9.33-0.71,18.68-0.55,28.02c-0.44,2.39,2.14,3.26,3.14,5.03c0.25,2.1,0.24,4.22,0.35,6.34
		c15.19,2.34,30.82,2.65,46,0.04c0.8-2.41,1.56-4.91,3.09-6.98c0.84-1.38,2.19-2.66,2.03-4.42c-0.03-7.65,0.31-15.33-0.54-22.95
		C-101.44,352.86-103.06,348.99-103.54,344.89 M-98.5,347.98c2.99,11.79,0.98,23.92,1.36,35.89c2.05-3.71,1.56-7.99,1.43-12.04
		c1.15-1.2,2.25-2.46,3.02-3.95c-0.72,0.55-2.14,1.65-2.85,2.2c-0.86-2.82,0.16-5.51,1.52-7.96c-0.58,0.11-1.75,0.32-2.33,0.43
		c0.18-2.44,0.86-4.79,1.91-7c-0.52,0.06-1.55,0.17-2.07,0.23C-96.6,353.06-97.31,350.42-98.5,347.98 M-159.45,353.57
		c-0.55,2.22-1.19,4.41-1.78,6.62c-0.45-0.58-1.35-1.75-1.8-2.34c0.74,2.68,1.56,5.33,2.21,8.04c-0.77-0.5-2.31-1.49-3.07-1.99
		c1.82,2.29,3.36,6.05,1.41,8.65c0.7,3.19,1.25,6.42,2.05,9.6c0.27-2.43,0.32-4.87,0.14-7.3
		C-160.71,367.74-159.87,360.65-159.45,353.57 M-170.41,355.12c-0.24,1.99-0.1,4.27-2.07,5.42c0.87,2.34,1.14,4.82,1.24,7.3
		c-0.67-0.13-2.01-0.4-2.68-0.53c0.99,2.21,4.14,5.4,1.27,7.27c2.1,3.9,1.02,9.14,4.07,12.42c-0.6-5.72-2.15-11.34-2.22-17.13
		c-0.29-4.91,0.82-9.75,1.28-14.62C-169.74,355.22-170.19,355.15-170.41,355.12 M-86.17,356.71c-0.39,5.37-0.5,10.77-1.35,16.1
		c-0.57,5.14-2.11,10.14-2.42,15.32c4.01-3.09,0.92-9.41,4.01-13.12c1.05-1.3,2.11-2.6,2.88-4.09c-0.9,0.66-1.78,1.32-2.66,2
		c-1.83-2.83,1.39-5.29,2.68-7.64c-0.77,0.36-2.31,1.08-3.08,1.44c0.47-1.77,1.18-3.45,2.13-5.03
		C-86.22,361.09-85.7,358.5-86.17,356.71 M-181.25,362.76c-0.2,1.83-0.27,3.67-0.28,5.52c-0.29,0.29-0.87,0.88-1.16,1.17
		c1.21,2.24,1.91,4.69,2.45,7.17c-0.66-0.04-1.97-0.13-2.63-0.17c1.48,1.9,2.71,3.99,3.7,6.19c-0.62-0.03-1.86-0.08-2.49-0.1
		c3.24,3.91,4.48,8.93,6.32,13.55c0.07-5.97-2.93-11.43-3.87-17.27C-180.99,373.61-179.41,367.91-181.25,362.76 M-80.59,383.68
		c1.85-1.32,3.79-2.5,5.73-3.68c-1.06,0.24-3.17,0.72-4.22,0.95c0.54-2.94,2.07-5.45,4.28-7.42c-0.59-0.07-1.76-0.21-2.34-0.28
		c0.65-2.47,1.95-4.64,4.11-6.03c-0.65,0.16-1.96,0.5-2.61,0.67c0-0.76,0.01-2.28,0.01-3.03C-78.13,370.89-78.99,377.4-80.59,383.68
		 M-189.57,372.71c-0.13,2.91,0.22,5.82,0.74,8.69c-0.79-0.37-2.37-1.09-3.16-1.45c2.72,2.53,4.84,5.68,5.14,9.5
		c-0.9-0.41-2.71-1.23-3.62-1.64c2.69,2.59,5.02,5.57,5.94,9.26c-1.33-0.59-2.66-1.16-4-1.72c1.18,1.86,3.16,2.85,4.9,4.09
		c1.95,2.68,1.72,7.25,5.45,8.33c-4.36-6.79-6.49-14.62-8.6-22.32C-187.94,381.25-187.78,376.73-189.57,372.71 M-70.53,385.03
		c-2.7,7.2-8.55,12.64-11.4,19.73c2.91-4.44,7-7.85,11.51-10.58c-0.93,0.1-2.78,0.28-3.71,0.38c2.04-2.86,4.46-5.4,7.11-7.68
		c-1.25,0.64-2.5,1.29-3.75,1.93c0.27-2.57,1.53-4.83,3.63-6.32c-0.41-0.31-1.23-0.92-1.63-1.23c0.59-2.17,1.26-4.35,1.22-6.62
		C-68.97,377.97-68.93,381.75-70.53,385.03 M-113.13,396.52c-12.89,1.59-26,0.97-38.77-1.27c-6.88-1.36-13.77-3.27-19.79-6.96
		c1.07,14.92,2.44,29.82,4.37,44.66c1.25,9.54,3.26,19.07,7.08,27.94c-2.18-6.85-3.92-13.85-4.86-20.98
		c-2.13-16.26-3.62-32.6-4.7-48.95c6.83,4.3,14.77,6.34,22.65,7.69c12.69,1.98,25.66,1.91,38.35-0.04c7.83-1.32,15.7-3.4,22.5-7.66
		c-0.36,6.3-1.07,12.57-1.48,18.86c-1.79,17.13-2.69,34.57-8.05,51.06c6.13-14.38,7.35-30.12,9.07-45.48
		c0.85-9.05,1.74-18.09,2.34-27.16C-93.04,393.49-103.23,395.38-113.13,396.52 M-67.59,401.28c-3.8,4.11-8.63,7.32-11.39,12.32
		c1.68-1.6,3.15-3.47,5.13-4.73c1.94-0.5,3.92-0.78,5.88-1.18c-0.84-0.16-2.51-0.48-3.35-0.64c1.79-1.95,4.26-2.97,6.5-4.27
		c-0.69-0.13-2.09-0.39-2.79-0.52c1.98-1.99,4.07-3.87,6.3-5.57c-0.52-0.01-1.57-0.03-2.09-0.04c0.77-1.57,1.54-3.14,2.18-4.76
		C-64.4,394.18-64.95,398.5-67.59,401.28 M-194.63,394.77c0.58,1.83,1.2,3.66,1.22,5.6c1.48,1.44,2.87,3,3.63,4.95
		c-0.5,0.05-1.51,0.15-2.02,0.2c1.52,1.12,3.02,2.26,4.53,3.39c-0.01,0.57-0.04,1.72-0.05,2.3c2.82,1.75,5.04,4.22,7.36,6.55
		c-3.02-5.84-7.71-10.59-10.81-16.35C-192.02,399.18-192.28,396.19-194.63,394.77 M-164.91,414.93c1.03,8.97,1.42,18.06,3.3,26.9
		c-0.18,0.76-0.55,2.28-0.73,3.03l0.73-0.76c1.47,6.94,3.16,13.89,6.12,20.36c5.2,11.99,15.07,22.01,27.44,26.52
		c12.9-4.72,22.99-15.43,28.05-28.08c6.39-15.14,6.95-31.81,8.75-47.92c0.4-6.56,1.34-13.07,1.43-19.64
		c-11.26,6.43-24.47,7.86-37.2,8.33c-13.38-0.11-27.12-1.79-39.14-8.04C-166.47,402.09-165.18,408.49-164.91,414.93 M-196.41,408.01
		c0.01,1.21,0,2.43-0.01,3.64c0.95,0.4,1.91,0.8,2.86,1.19c0.08,0.64,0.23,1.92,0.3,2.56c0.66,0.2,1.99,0.61,2.65,0.82
		c0.08,0.5,0.23,1.5,0.31,2c2.01,1.05,3.98,2.19,5.89,3.42l0.23-0.59C-189.05,417.52-192.98,412.92-196.41,408.01 M-73.08,416.98
		c-2.9,1.59-6.34,1.89-9.13,3.69c3.51-0.74,6.95-1.81,10.52-2.27c0.27,0.24,0.82,0.71,1.1,0.94c-0.08-0.66-0.23-1.97-0.31-2.63
		c1.97-0.1,3.95-0.18,5.93-0.17c-1.15-0.57-2.32-1.11-3.5-1.61c1.67-0.3,3.36-0.53,5.05-0.7c-0.04-0.51-0.13-1.52-0.18-2.03
		c0.81-1,1.63-2,2.42-3.03C-65.04,411.93-68.67,415.09-73.08,416.98 M-193.53,420.74c0.28,1.03,0.57,2.06,0.86,3.1
		c1,0.33,2,0.65,3,0.98c0.1,0.63,0.31,1.88,0.41,2.51c1.89,0.18,3.79,0.31,5.69,0.32C-187.1,425.64-190.35,423.25-193.53,420.74
		 M-75.11,426.19c-2.28,0.7-5.11,0.3-6.89,2.13c4.77-0.45,9.49-1.57,14.32-0.89c-0.88-0.35-2.64-1.05-3.52-1.4
		c2.42-0.76,4.97-0.8,7.49-0.97c-0.71-0.24-2.13-0.74-2.84-0.98c1.57-1.04,3.18-2.03,4.63-3.24
		C-66.23,422.83-70.35,425.38-75.11,426.19 M-77.23,435.63c4.08-1.24,8.27-0.96,12.35,0.13c-0.58-0.44-1.72-1.33-2.3-1.77
		c2-0.33,3.88-1.03,5.14-2.66C-66.82,433.76-72.44,433.38-77.23,435.63 M-193.06,432.86c1.24,1.12,3.23,1.93,2.72,3.98
		c2.54-0.02,5.09-0.06,7.6-0.46C-185.97,434.69-189.71,434.32-193.06,432.86 M-192.3,442.06c1.63,2.43,4.8,2.29,7.38,2.58
		C-187.28,443.52-189.71,442.51-192.3,442.06 M-78.19,443.89c3.95,1.74,8.74,0.7,12.26-1.58
		C-69.98,443.13-74.11,443.31-78.19,443.89 M-188.65,450.65c1,2.62,3.85,2.36,6.12,2.14C-184.12,451.08-186.43,450.71-188.65,450.65
		 M-77.12,452.02c2.4,0.39,4.84,0.53,7.28,0.43C-72.2,451.68-74.7,451.36-77.12,452.02 M-184.11,459.36
		c1.69,1.62,4.18,0.84,6.24,0.77C-179.89,459.5-181.99,459.22-184.11,459.36 M-80.87,459.68c1.55,2.03,4.17,2.1,6.48,2.38
		C-75.78,459.72-78.45,459.61-80.87,459.68 M-84.63,466.94c-0.44,1.28,1.25,3.03,2.55,2.63C-81.5,468.28-83.32,466.35-84.63,466.94
		 M-174.56,468.22c-0.95,0.18-3.2,0.02-3,1.5C-176.31,471.86-170.84,468.5-174.56,468.22 M-170.75,475.35
		c-1.25,2.22,3.35,2.21,3.6,0.3C-167.53,474.13-169.86,474.49-170.75,475.35z"/>
</g>
<g id="_x23_dfb400ff">
	<path class="st0" d="M-98.5,347.98c1.19,2.44,1.9,5.08,1.99,7.8c0.52-0.06,1.55-0.17,2.07-0.23c-1.05,2.21-1.73,4.56-1.91,7
		c0.58-0.11,1.75-0.32,2.33-0.43c-1.36,2.45-2.38,5.14-1.52,7.96c0.71-0.55,2.13-1.65,2.85-2.2c-0.77,1.49-1.87,2.75-3.02,3.95
		c0.13,4.05,0.62,8.33-1.43,12.04C-97.52,371.9-95.51,359.77-98.5,347.98z"/>
	<path class="st0" d="M-159.45,353.57c-0.42,7.08-1.26,14.17-0.84,21.28c0.18,2.43,0.13,4.87-0.14,7.3c-0.8-3.18-1.35-6.41-2.05-9.6
		c1.95-2.6,0.41-6.36-1.41-8.65c0.76,0.5,2.3,1.49,3.07,1.99c-0.65-2.71-1.47-5.36-2.21-8.04c0.45,0.59,1.35,1.76,1.8,2.34
		C-160.64,357.98-160,355.79-159.45,353.57z"/>
	<path class="st0" d="M-170.41,355.12c0.22,0.03,0.67,0.1,0.89,0.13c-0.46,4.87-1.57,9.71-1.28,14.62
		c0.07,5.79,1.62,11.41,2.22,17.13c-3.05-3.28-1.97-8.52-4.07-12.42c2.87-1.87-0.28-5.06-1.27-7.27c0.67,0.13,2.01,0.4,2.68,0.53
		c-0.1-2.48-0.37-4.96-1.24-7.3C-170.51,359.39-170.65,357.11-170.41,355.12z"/>
	<path class="st0" d="M-86.17,356.71c0.47,1.79-0.05,4.38,2.19,4.98c-0.95,1.58-1.66,3.26-2.13,5.03c0.77-0.36,2.31-1.08,3.08-1.44
		c-1.29,2.35-4.51,4.81-2.68,7.64c0.88-0.68,1.76-1.34,2.66-2c-0.77,1.49-1.83,2.79-2.88,4.09c-3.09,3.71,0,10.03-4.01,13.12
		c0.31-5.18,1.85-10.18,2.42-15.32C-86.67,367.48-86.56,362.08-86.17,356.71z"/>
	<path class="st0" d="M-181.25,362.76c1.84,5.15,0.26,10.85,2.04,16.06c0.94,5.84,3.94,11.3,3.87,17.27
		c-1.84-4.62-3.08-9.64-6.32-13.55c0.63,0.02,1.87,0.07,2.49,0.1c-0.99-2.2-2.22-4.29-3.7-6.19c0.66,0.04,1.97,0.13,2.63,0.17
		c-0.54-2.48-1.24-4.93-2.45-7.17c0.29-0.29,0.87-0.88,1.16-1.17C-181.52,366.43-181.45,364.59-181.25,362.76z"/>
	<path class="st0" d="M-161.07,416.76c1.62-0.47,2.18,0.1,1.67,1.71C-161.03,418.93-161.59,418.36-161.07,416.76z"/>
	<path class="st0" d="M-75.11,426.19c4.76-0.81,8.88-3.36,13.19-5.35c-1.45,1.21-3.06,2.2-4.63,3.24c0.71,0.24,2.13,0.74,2.84,0.98
		c-2.52,0.17-5.07,0.21-7.49,0.97c0.88,0.35,2.64,1.05,3.52,1.4c-4.83-0.68-9.55,0.44-14.32,0.89
		C-80.22,426.49-77.39,426.89-75.11,426.19z"/>
	<path class="st0" d="M-77.23,435.63c4.79-2.25,10.41-1.87,15.19-4.3c-1.26,1.63-3.14,2.33-5.14,2.66c0.58,0.44,1.72,1.33,2.3,1.77
		C-68.96,434.67-73.15,434.39-77.23,435.63z"/>
	<path class="st0" d="M-193.06,432.86c3.35,1.46,7.09,1.83,10.32,3.52c-2.51,0.4-5.06,0.44-7.6,0.46
		C-189.83,434.79-191.82,433.98-193.06,432.86z"/>
	<path class="st0" d="M-192.3,442.06c2.59,0.45,5.02,1.46,7.38,2.58C-187.5,444.35-190.67,444.49-192.3,442.06z"/>
	<path class="st0" d="M-78.19,443.89c4.08-0.58,8.21-0.76,12.26-1.58C-69.45,444.59-74.24,445.63-78.19,443.89z"/>
	<path class="st0" d="M-77.12,452.02c2.42-0.66,4.92-0.34,7.28,0.43C-72.28,452.55-74.72,452.41-77.12,452.02z"/>
	<path class="st0" d="M-184.11,459.36c2.12-0.14,4.22,0.14,6.24,0.77C-179.93,460.2-182.42,460.98-184.11,459.36z"/>
</g>
<g id="_x23_ffc800ff">
	<path class="st1" d="M-80.59,383.68c1.6-6.28,2.46-12.79,4.96-18.82c0,0.75-0.01,2.27-0.01,3.03c0.65-0.17,1.96-0.51,2.61-0.67
		c-2.16,1.39-3.46,3.56-4.11,6.03c0.58,0.07,1.75,0.21,2.34,0.28c-2.21,1.97-3.74,4.48-4.28,7.42c1.05-0.23,3.16-0.71,4.22-0.95
		C-76.8,381.18-78.74,382.36-80.59,383.68z"/>
	<path class="st1" d="M-189.57,372.71c1.79,4.02,1.63,8.54,2.79,12.74c2.11,7.7,4.24,15.53,8.6,22.32c-3.73-1.08-3.5-5.65-5.45-8.33
		c-1.74-1.24-3.72-2.23-4.9-4.09c1.34,0.56,2.67,1.13,4,1.72c-0.92-3.69-3.25-6.67-5.94-9.26c0.91,0.41,2.72,1.23,3.62,1.64
		c-0.3-3.82-2.42-6.97-5.14-9.5c0.79,0.36,2.37,1.08,3.16,1.45C-189.35,378.53-189.7,375.62-189.57,372.71z"/>
	<path class="st1" d="M-70.53,385.03c1.6-3.28,1.56-7.06,2.98-10.39c0.04,2.27-0.63,4.45-1.22,6.62c0.4,0.31,1.22,0.92,1.63,1.23
		c-2.1,1.49-3.36,3.75-3.63,6.32c1.25-0.64,2.5-1.29,3.75-1.93c-2.65,2.28-5.07,4.82-7.11,7.68c0.93-0.1,2.78-0.28,3.71-0.38
		c-4.51,2.73-8.6,6.14-11.51,10.58C-79.08,397.67-73.23,392.23-70.53,385.03z"/>
	<path class="st1" d="M-153.39,401.88c4.11,0.44,8.14,1.37,12.13,2.44c0.83,1.56,1.68,3.12,2.52,4.68c0.14,1.43,0.24,2.88,0.54,4.29
		c2.36,1.69,2.71-1.83,3.66-3.23c3.88-0.13,7.61,0.99,10.84,3.12c0.9-0.66,1.79-1.32,2.69-1.97c1.78,0.08,3.67,0.83,5.4,0.1
		c2.75-1.66,4.31-5.23,7.96-5.14c0.11,2.92-0.26,5.82-0.77,8.69c1.42-0.16,2.84-0.32,4.27-0.47c-0.12,0.23-0.36,0.68-0.48,0.91
		c-3.74,0.3-7.82,0.43-10.49,3.48c0.81,1.21,1.53,2.49,2.48,3.6c1.69,0.28,3.41,0.37,5.12,0.58c-1.99,1.11-4.08,2.25-6.44,2.08
		c-10.37,0-20.74,0-31.11-0.04c-2.9,10.02-5.77,20.05-8.54,30.11c1.66,0.04,3.32,0.08,4.98,0.13c2.74-8.49,4.75-17.21,7.55-25.68
		c0.77,1.1,1.55,2.2,2.31,3.32c0.24-0.61,0.72-1.84,0.95-2.45c4.6-0.39,9.25-0.24,13.86-0.05c1.6-0.11,2.92,1.03,3.45,2.47
		c0.72,4.24-3.06,8.5-7.31,8.54c-4.61,0.29-9.23,0.05-13.85,0.01c-0.51,1.73-1.01,3.46-1.51,5.19c4.85,0.03,9.71,0.03,14.56,0.02
		c-2.14,2.29-4.54,4.69-4.45,8.08c10.08,0.98,20.24,0.23,30.36,0.45c0-1.7-0.01-3.4-0.02-5.1c-7.03-0.02-14.07,0.07-21.1-0.07
		c5.2-5.51,10.3-11.13,15.78-16.36c0.5,0.69,1.5,2.08,1.99,2.77c0.4-0.58,1.2-1.76,1.6-2.34c2.96,0.25,5.92,0.5,8.88,0.7l1.03,0.13
		c-0.71,6.95-1.25,14.22-4.27,20.61c-0.71,0.85-1.43,1.69-2.16,2.53c-1.69,0.77-3.34,1.6-4.97,2.49c0.98,1.94,1.99,3.87,2.89,5.85
		c-0.42,0.94-0.94,1.84-1.48,2.73c-4.59-0.17-9.48,2.99-13.76,0.33c-1.43-0.29-2.87-0.52-4.28-0.9c-0.01-0.74-0.03-2.22-0.04-2.96
		c-1.08-0.89-2.15-1.79-3.33-2.54c-0.88,0.47-1.73,0.97-2.57,1.51c-0.04,0.64-0.12,1.93-0.16,2.57c-2.63,2.46-5.27,5.67-9.34,4.66
		c-0.34,0.41-1.02,1.23-1.36,1.64c-2.8,0.52-5.6,1.07-8.42,1.47c-2.68-2.55-4.6-5.76-5.72-9.27c2.92-0.22,5.07-2.03,5.42-5.02
		c2.01,1.66,4.2,3.07,6.67,3.93c-0.25-0.81-0.5-1.62-0.76-2.43c-0.79,0.06-2.38,0.18-3.18,0.24c-0.2-1.15-0.39-2.3-0.59-3.45
		c-1,0.27-2,0.54-2.99,0.81c-0.45,2.78-3.04,3.75-5.19,5.03c-1.31-2.71-2.42-5.52-3.22-8.43c0.98-1.43,1.97-2.86,2.92-4.3
		c0.06-2.05,1.23-3.7,2.43-5.25c-2.55-1.78-4.99-3.69-7.47-5.56c-0.39-1-0.78-2-1.18-3c-0.15-0.49-0.45-1.46-0.6-1.95l-0.02-1.36
		c1.64-0.13,3.3-0.19,4.95-0.26c1.83-1.04,3.69-2.03,5.58-2.96c-3.96,0.02-7.77-1.12-11.52-2.27c-0.75-3.44-1.06-6.94-1.02-10.45
		c1.75,0.5,3.5,0.97,5.27,1.44c0.89-0.76,1.81-1.49,2.75-2.2c1.22,1.88,2.23,3.88,3.4,5.8c0.8-2.54,1.57-5.09,2.31-7.65
		c-0.83,0.28-2.5,0.85-3.33,1.14c1.07-1.02,2.13-2.03,3.2-3.04c0.56-0.09,1.7-0.27,2.26-0.36c-1.79,3.17-1.22,6.82-0.23,10.15
		c-1.16,0.6-2.31,1.21-3.47,1.81c1.07,0.14,2.13,0.28,3.2,0.42c0.35-0.47,1.04-1.42,1.39-1.89c1.1-0.57,2.18-1.17,3.24-1.8
		c-0.06-0.32-0.2-0.96-0.26-1.27c0.18,0.09,0.55,0.28,0.74,0.38l0.74,0.28c1.04-1.98-0.66-3.02-2.04-4.05
		c-0.69-1.72-1.35-3.46-2.3-5.06c-0.61-0.48-1.83-1.46-2.44-1.94c-1.38,0.27-2.75,0.56-4.13,0.84c1.77-1.36,3.43-2.87,5.02-4.43
		c-0.78-0.05-2.33-0.15-3.11-0.2c0.56-0.3,1.68-0.91,2.24-1.21c-0.7-0.31-2.09-0.93-2.79-1.24l-0.82-1.11L-153.39,401.88
		 M-102.78,445.1C-102.27,445.59-102.27,445.59-102.78,445.1 M-138.06,463.74c-0.62,0.75-1.25,1.5-1.87,2.26
		c3.65,0.07,3.77-3.6,4.66-6.24C-136.71,460.71-137.9,461.92-138.06,463.74 M-132.16,461.29c0.81,1.27,1.41,3.62,3.38,3.22
		c-0.04-0.85-0.11-2.53-0.14-3.38C-129.73,461.17-131.35,461.25-132.16,461.29z"/>
	<path class="st1" d="M-157.45,409.02c-0.45-1.02-0.91-2.02-1.42-3.01c0.9,1.2,1.7,2.46,2.49,3.73c-0.72,0.95-1.62,1.87-1.7,3.14
		c0.57,1,1.48,1.57,2.73,1.68c-0.07,0.54-0.2,1.61-0.27,2.15c-1.07-0.53-2.13-1.06-3.2-1.57
		C-159.09,412.97-158.34,410.94-157.45,409.02z"/>
	<path class="st1" d="M-162.17,429.83c0.66,0.25,1.99,0.74,2.65,0.99c-0.44,0.55-1.32,1.64-1.76,2.18
		C-161.78,432-162.07,430.94-162.17,429.83z"/>
	<path class="st1" d="M-107.83,432.96c1.34-1.19,2.69-2.36,4.06-3.51c0.04,0.51,0.12,1.53,0.16,2.04c-0.43,0.41-1.3,1.22-1.74,1.63
		C-105.97,433.08-107.21,433-107.83,432.96z"/>
</g>
<g id="_x23_ffb300ff">
	<path class="st2" d="M-113.13,396.52c9.9-1.14,20.09-3.03,28.71-8.29c-0.6,9.07-1.49,18.11-2.34,27.16
		c-1.72,15.36-2.94,31.1-9.07,45.48c5.36-16.49,6.26-33.93,8.05-51.06c0.41-6.29,1.12-12.56,1.48-18.86
		c-6.8,4.26-14.67,6.34-22.5,7.66c-12.69,1.95-25.66,2.02-38.35,0.04c-7.88-1.35-15.82-3.39-22.65-7.69
		c1.08,16.35,2.57,32.69,4.7,48.95c0.94,7.13,2.68,14.13,4.86,20.98c-3.82-8.87-5.83-18.4-7.08-27.94
		c-1.93-14.84-3.3-29.74-4.37-44.66c6.02,3.69,12.91,5.6,19.79,6.96C-139.13,397.49-126.02,398.11-113.13,396.52z"/>
	<path class="st2" d="M-67.59,401.28c2.64-2.78,3.19-7.1,6.37-9.39c-0.64,1.62-1.41,3.19-2.18,4.76c0.52,0.01,1.57,0.03,2.09,0.04
		c-2.23,1.7-4.32,3.58-6.3,5.57c0.7,0.13,2.1,0.39,2.79,0.52c-2.24,1.3-4.71,2.32-6.5,4.27c0.84,0.16,2.51,0.48,3.35,0.64
		c-1.96,0.4-3.94,0.68-5.88,1.18c-1.98,1.26-3.45,3.13-5.13,4.73C-76.22,408.6-71.39,405.39-67.59,401.28z"/>
	<path class="st2" d="M-194.63,394.77c2.35,1.42,2.61,4.41,3.86,6.64c3.1,5.76,7.79,10.51,10.81,16.35
		c-2.32-2.33-4.54-4.8-7.36-6.55c0.01-0.58,0.04-1.73,0.05-2.3c-1.51-1.13-3.01-2.27-4.53-3.39c0.51-0.05,1.52-0.15,2.02-0.2
		c-0.76-1.95-2.15-3.51-3.63-4.95C-193.43,398.43-194.05,396.6-194.63,394.77z"/>
	<path class="st2" d="M-196.41,408.01c3.43,4.91,7.36,9.51,12.23,13.04l-0.23,0.59c-1.91-1.23-3.88-2.37-5.89-3.42
		c-0.08-0.5-0.23-1.5-0.31-2c-0.66-0.21-1.99-0.62-2.65-0.82c-0.07-0.64-0.22-1.92-0.3-2.56c-0.95-0.39-1.91-0.79-2.86-1.19
		C-196.41,410.44-196.4,409.22-196.41,408.01z"/>
	<path class="st2" d="M-73.08,416.98c4.41-1.89,8.04-5.05,11.9-7.81c-0.79,1.03-1.61,2.03-2.42,3.03c0.05,0.51,0.14,1.52,0.18,2.03
		c-1.69,0.17-3.38,0.4-5.05,0.7c1.18,0.5,2.35,1.04,3.5,1.61c-1.98-0.01-3.96,0.07-5.93,0.17c0.08,0.66,0.23,1.97,0.31,2.63
		c-0.28-0.23-0.83-0.7-1.1-0.94c-3.57,0.46-7.01,1.53-10.52,2.27C-79.42,418.87-75.98,418.57-73.08,416.98z"/>
	<path class="st2" d="M-193.53,420.74c3.18,2.51,6.43,4.9,9.96,6.91c-1.9-0.01-3.8-0.14-5.69-0.32c-0.1-0.63-0.31-1.88-0.41-2.51
		c-1-0.33-2-0.65-3-0.98C-192.96,422.8-193.25,421.77-193.53,420.74z"/>
	<path class="st2" d="M-174.56,468.22c3.72,0.28-1.75,3.64-3,1.5C-177.76,468.24-175.51,468.4-174.56,468.22z"/>
</g>
<g id="_x23_7c786aff">
	<path class="st3" d="M-164.91,414.93c-0.27-6.44-1.56-12.84-1.25-19.3c12.02,6.25,25.76,7.93,39.14,8.04
		c12.73-0.47,25.94-1.9,37.2-8.33c-0.09,6.57-1.03,13.08-1.43,19.64c-1.8,16.11-2.36,32.78-8.75,47.92
		c-5.06,12.65-15.15,23.36-28.05,28.08c-12.37-4.51-22.24-14.53-27.44-26.52c-2.96-6.47-4.65-13.42-6.12-20.36
		c0.55-0.59,1.09-1.18,1.63-1.77c0.07,1.68,0.45,3.26,1.16,4.75c-1.63,0.18-1.72,0.76-0.25,1.75c0.51,1.14,0.99,2.29,1.44,3.46
		l0.04,0.26c0.06,1.24,0.14,2.48,0.23,3.72c0.8,2.91,1.91,5.72,3.22,8.43c0.15,0.22,0.46,0.67,0.62,0.89
		c1.12,3.51,3.04,6.72,5.72,9.27c4.97,5.78,11,10.84,18.16,13.64c1.07,0.47,2.13,0.47,3.19-0.02c9.27-3.71,16.78-10.92,21.91-19.4
		c0.54-0.89,1.06-1.79,1.48-2.73c1.67-3.52,2.72-7.29,4.24-10.87c3.02-6.39,3.56-13.66,4.27-20.61c0.95-12.6,2.53-25.15,3.32-37.77
		c-9.79,5.96-21.54,7.55-32.79,7.91c-5.74-0.06-11.55,0.34-17.24-0.69c-3.99-1.07-8.02-2-12.13-2.44l0.94,1.84
		c-3.62-3.16-8.54-4.06-12.61-6.48c0.75,7.21,1.53,14.42,1.77,21.67c-0.04,3.51,0.27,7.01,1.02,10.45l0.1,0.47
		c0.1,1.11,0.39,2.17,0.89,3.17c0,0.46,0,1.39,0,1.85l0.02,1.36c0.15,0.49,0.45,1.46,0.6,1.95c-0.27,1.23-0.59,2.46-0.95,3.67
		C-163.49,432.99-163.88,423.9-164.91,414.93z"/>
</g>
<g id="_x23_141414ff">
	<path class="st4" d="M-165.06,397.24c4.07,2.42,8.99,3.32,12.61,6.48l0.82,1.11c0.7,0.31,2.09,0.93,2.79,1.24
		c-0.56,0.3-1.68,0.91-2.24,1.21c0.78,0.05,2.33,0.15,3.11,0.2c-1.59,1.56-3.25,3.07-5.02,4.43c1.38-0.28,2.75-0.57,4.13-0.84
		c0.61,0.48,1.83,1.46,2.44,1.94l-1.01,1.03c-0.56,0.09-1.7,0.27-2.26,0.36c-1.07,1.01-2.13,2.02-3.2,3.04
		c0.83-0.29,2.5-0.86,3.33-1.14c-0.74,2.56-1.51,5.11-2.31,7.65c-1.17-1.92-2.18-3.92-3.4-5.8c-0.94,0.71-1.86,1.44-2.75,2.2
		c-1.77-0.47-3.52-0.94-5.27-1.44C-163.53,411.66-164.31,404.45-165.06,397.24 M-157.45,409.02c-0.89,1.92-1.64,3.95-1.37,6.12
		c1.07,0.51,2.13,1.04,3.2,1.57c0.07-0.54,0.2-1.61,0.27-2.15c-1.25-0.11-2.16-0.68-2.73-1.68c0.08-1.27,0.98-2.19,1.7-3.14
		c-0.79-1.27-1.59-2.53-2.49-3.73C-158.36,407-157.9,408-157.45,409.02 M-161.07,416.76c-0.52,1.6,0.04,2.17,1.67,1.71
		C-158.89,416.86-159.45,416.29-161.07,416.76z"/>
</g>
<g id="_x23_181818ff">
	<path class="st5" d="M-124.02,405.01c11.25-0.36,23-1.95,32.79-7.91c-0.79,12.62-2.37,25.17-3.32,37.77l-1.03-0.13
		c-3.23-0.68-6.47-1.37-9.77-1.62c0.44-0.41,1.31-1.22,1.74-1.63c-0.04-0.51-0.12-1.53-0.16-2.04c-0.04-0.39-0.12-1.17-0.17-1.56
		c1.66,0.19,2.3-0.53,1.93-2.15c-0.82-3.49-1.84-6.94-2.62-10.44c0.12-0.23,0.36-0.68,0.48-0.91c-1.43,0.15-2.85,0.31-4.27,0.47
		c0.51-2.87,0.88-5.77,0.77-8.69c-3.65-0.09-5.21,3.48-7.96,5.14c-1.73,0.73-3.62-0.02-5.4-0.1c-0.9,0.65-1.79,1.31-2.69,1.97
		c-3.23-2.13-6.96-3.25-10.84-3.12c-0.95,1.4-1.3,4.92-3.66,3.23c-0.3-1.41-0.4-2.86-0.54-4.29c-0.84-1.56-1.69-3.12-2.52-4.68
		C-135.57,405.35-129.76,404.95-124.02,405.01 M-102.85,409c-1.31,0.7-1.32,1.38-0.03,2.04C-101.56,410.34-101.55,409.66-102.85,409
		z"/>
</g>
<g id="_x23_433915ff">
	<path class="st6" d="M-102.85,409c1.3,0.66,1.29,1.34-0.03,2.04C-104.17,410.38-104.16,409.7-102.85,409z"/>
</g>
<g id="_x23_202021ff">
	<path class="st7" d="M-146.42,413.01c0.95,1.6,1.61,3.34,2.3,5.06c1.38,1.03,3.08,2.07,2.04,4.05l-0.74-0.28
		c-0.19-0.1-0.56-0.29-0.74-0.38c0.06,0.31,0.2,0.95,0.26,1.27c-1.06,0.63-2.14,1.23-3.24,1.8c-0.35,0.47-1.04,1.42-1.39,1.89
		c-1.07-0.14-2.13-0.28-3.2-0.42c1.16-0.6,2.31-1.21,3.47-1.81c-0.99-3.33-1.56-6.98,0.23-10.15L-146.42,413.01z"/>
</g>
<g id="_x23_222222ff">
	<path class="st8" d="M-115.12,418.78c2.67-3.05,6.75-3.18,10.49-3.48c0.78,3.5,1.8,6.95,2.62,10.44c-1.58-0.17-2.22,0.54-1.93,2.15
		c0.05,0.39,0.13,1.17,0.17,1.56c-1.37,1.15-2.72,2.32-4.06,3.51c0.62,0.04,1.86,0.12,2.48,0.16c3.3,0.25,6.54,0.94,9.77,1.62
		c-2.96-0.2-5.92-0.45-8.88-0.7c-0.4,0.58-1.2,1.76-1.6,2.34c-0.49-0.69-1.49-2.08-1.99-2.77c-5.48,5.23-10.58,10.85-15.78,16.36
		c7.03,0.14,14.07,0.05,21.1,0.07c0.01,1.7,0.02,3.4,0.02,5.1c-10.12-0.22-20.28,0.53-30.36-0.45c-0.09-3.39,2.31-5.79,4.45-8.08
		c-4.85,0.01-9.71,0.01-14.56-0.02c0.5-1.73,1-3.46,1.51-5.19c4.62,0.04,9.24,0.28,13.85-0.01c4.25-0.04,8.03-4.3,7.31-8.54
		c-0.53-1.44-1.85-2.58-3.45-2.47c-4.61-0.19-9.26-0.34-13.86,0.05c-0.23,0.61-0.71,1.84-0.95,2.45c-0.76-1.12-1.54-2.22-2.31-3.32
		c-2.8,8.47-4.81,17.19-7.55,25.68c-1.66-0.05-3.32-0.09-4.98-0.13c2.77-10.06,5.64-20.09,8.54-30.11
		c10.37,0.04,20.74,0.04,31.11,0.04c2.36,0.17,4.45-0.97,6.44-2.08c-1.71-0.21-3.43-0.3-5.12-0.58
		C-113.59,421.27-114.31,419.99-115.12,418.78 M-111.75,418.2c-1.35,0.67-1.37,1.34-0.06,1.99
		C-110.46,419.52-110.44,418.85-111.75,418.2z"/>
	<path class="st8" d="M-138.06,463.74c0.16-1.82,1.35-3.03,2.79-3.98c-0.89,2.64-1.01,6.31-4.66,6.24
		C-139.31,465.24-138.68,464.49-138.06,463.74z"/>
	<path class="st8" d="M-132.16,461.29c0.81-0.04,2.43-0.12,3.24-0.16c0.03,0.85,0.1,2.53,0.14,3.38
		C-130.75,464.91-131.35,462.56-132.16,461.29z"/>
</g>
<g id="_x23_b28f0bff">
	<path class="st9" d="M-111.75,418.2c1.31,0.65,1.29,1.32-0.06,1.99C-113.12,419.54-113.1,418.87-111.75,418.2z"/>
</g>
<g id="_x23_6a5714ff">
	<path class="st10" d="M-103.94,427.89c-0.29-1.61,0.35-2.32,1.93-2.15C-101.64,427.36-102.28,428.08-103.94,427.89z"/>
</g>
<g id="_x23_181819ff">
	<path class="st11" d="M-162.27,429.36c3.75,1.15,7.56,2.29,11.52,2.27c-1.89,0.93-3.75,1.92-5.58,2.96
		c-1.65,0.07-3.31,0.13-4.95,0.26c0-0.46,0-1.39,0-1.85c0.44-0.54,1.32-1.63,1.76-2.18c-0.66-0.25-1.99-0.74-2.65-0.99
		L-162.27,429.36z"/>
</g>
<g id="_x23_171818ff">
	<path class="st12" d="M-160.66,438.16c0.4,1,0.79,2,1.18,3c2.48,1.87,4.92,3.78,7.47,5.56c-1.2,1.55-2.37,3.2-2.43,5.25
		c-0.95,1.44-1.94,2.87-2.92,4.3c-0.09-1.24-0.17-2.48-0.23-3.72c-0.01-0.04-0.01-0.13-0.01-0.18l-0.03-0.08
		c-0.45-1.17-0.93-2.32-1.44-3.46c1.67-0.25,1.75-0.83,0.25-1.75c-0.71-1.49-1.09-3.07-1.16-4.75c-0.54,0.59-1.08,1.18-1.63,1.77
		l-0.73,0.76c0.18-0.75,0.55-2.27,0.73-3.03C-161.25,440.62-160.93,439.39-160.66,438.16 M-156.95,448.99
		c-0.43,1.56,0.19,2.14,1.85,1.72C-154.67,449.13-155.28,448.56-156.95,448.99z"/>
</g>
<g id="_x23_8f730dff">
	<path class="st13" d="M-102.78,445.1C-102.27,445.59-102.27,445.59-102.78,445.1z"/>
</g>
<g id="_x23_edcc54ff">
	<path class="st14" d="M-159.07,448.83c-1.47-0.99-1.38-1.57,0.25-1.75C-158.88,447.52-159.01,448.39-159.07,448.83z"/>
</g>
<g id="_x23_c39902ff">
	<path class="st15" d="M-158.82,447.08c1.5,0.92,1.42,1.5-0.25,1.75C-159.01,448.39-158.88,447.52-158.82,447.08z"/>
</g>
<g id="_x23_bf9706ff">
	<path class="st16" d="M-156.95,448.99c1.67-0.43,2.28,0.14,1.85,1.72C-156.76,451.13-157.38,450.55-156.95,448.99z"/>
</g>
<g id="_x23_947800ff">
	<path class="st17" d="M-188.65,450.65c2.22,0.06,4.53,0.43,6.12,2.14C-184.8,453.01-187.65,453.27-188.65,450.65z"/>
</g>
<g id="_x23_896d07ff">
	<path class="st18" d="M-157.63,452.29l0.03,0.08c0,0.05,0,0.14,0.01,0.18L-157.63,452.29z"/>
</g>
<g id="_x23_181717ff">
	<path class="st19" d="M-100.98,458.01c0.73-0.84,1.45-1.68,2.16-2.53c-1.52,3.58-2.57,7.35-4.24,10.87
		c-0.9-1.98-1.91-3.91-2.89-5.85C-104.32,459.61-102.67,458.78-100.98,458.01z"/>
</g>
<g id="_x23_1b1b1bff">
	<path class="st20" d="M-148.95,459.67c0.99-0.27,1.99-0.54,2.99-0.81c0.2,1.15,0.39,2.3,0.59,3.45c0.8-0.06,2.39-0.18,3.18-0.24
		c0.26,0.81,0.51,1.62,0.76,2.43c-2.47-0.86-4.66-2.27-6.67-3.93c-0.35,2.99-2.5,4.8-5.42,5.02c-0.16-0.22-0.47-0.67-0.62-0.89
		C-151.99,463.42-149.4,462.45-148.95,459.67z"/>
	<path class="st20" d="M-128.52,464.52c0.84-0.54,1.69-1.04,2.57-1.51c1.18,0.75,2.25,1.65,3.33,2.54c0.01,0.74,0.03,2.22,0.04,2.96
		c1.41,0.38,2.85,0.61,4.28,0.9c4.28,2.66,9.17-0.5,13.76-0.33c-5.13,8.48-12.64,15.69-21.91,19.4c-1.06,0.49-2.12,0.49-3.19,0.02
		c-7.16-2.8-13.19-7.86-18.16-13.64c2.82-0.4,5.62-0.95,8.42-1.47c0.34-0.41,1.02-1.23,1.36-1.64c4.07,1.01,6.71-2.2,9.34-4.66
		C-128.64,466.45-128.56,465.16-128.52,464.52z"/>
</g>
<g id="_x23_7e5a00ff">
	<path class="st21" d="M-80.87,459.68c2.42-0.07,5.09,0.04,6.48,2.38C-76.7,461.78-79.32,461.71-80.87,459.68z"/>
</g>
<g id="_x23_936200ff">
	<path class="st22" d="M-84.63,466.94c1.31-0.59,3.13,1.34,2.55,2.63C-83.38,469.97-85.07,468.22-84.63,466.94z"/>
</g>
<g id="_x23_754e00ff">
	<path class="st23" d="M-170.75,475.35c0.89-0.86,3.22-1.22,3.6,0.3C-167.4,477.56-172,477.57-170.75,475.35z"/>
</g>
</svg>
