<?xml version="1.0" encoding="utf-8"?>
<!-- Generator: Adobe Illustrator 20.0.0, SVG Export Plug-In . SVG Version: 6.00 Build 0)  -->
<svg version="1.1" id="Layer_1" xmlns="http://www.w3.org/2000/svg" xmlns:xlink="http://www.w3.org/1999/xlink" x="0px" y="0px"
	 viewBox="0 0 599.9 629.3" style="enable-background:new 0 0 599.9 629.3;" xml:space="preserve">
<style type="text/css">
	.st0{fill:#1D1D1B;}
</style>
<g>
	<path class="st0" d="M541.1,273.6l39.8,58.3c3.1,4.6,1.9,10.8-2.6,13.9c-1.7,1.2-3.7,1.7-5.6,1.7c-3.2,0-6.3-1.5-8.3-4.4L509,262
		l-33.5-11.9H368.4l23.4,16.1l87.4,10.7c5.5,0.7,9.4,5.7,8.7,11.1c-0.6,5.1-4.9,8.8-9.9,8.8c-0.4,0-0.8,0-1.2-0.1l-49.2-6L575,391.9
		c4.6,3.1,5.7,9.4,2.6,13.9c-1.9,2.8-5.1,4.3-8.3,4.3c-2,0-3.9-0.6-5.7-1.8L416.2,307.2l22.2,61.2l32.4,51.2l53.6,5.9
		c5.5,0.6,9.4,5.5,8.8,11c-0.6,5.1-4.9,8.9-9.9,8.9c-0.4,0-0.7,0-1.1-0.1l-37.7-4.2l32.6,51.5c3,4.7,1.6,10.8-3.1,13.8
		c-1.7,1.1-3.5,1.6-5.3,1.6c-3.3,0-6.6-1.6-8.5-4.7l-32.9-52l-21.6,81.9c-1.2,4.5-5.2,7.4-9.7,7.4c-0.8,0-1.7-0.1-2.6-0.3
		c-5.3-1.4-8.5-6.9-7.1-12.2l26-98.3c0.1-0.5,0.3-0.9,0.5-1.3l-25-39.4L361.3,461c-2,2.1-4.7,3.2-7.3,3.2c-2.4,0-4.9-0.9-6.8-2.7
		c-4.1-3.8-4.3-10.1-0.5-14.1l71.2-76.9l-29.9-82.7l-49.6-34c-1.4-1-2.4-2.2-3.2-3.6h-5l-11.1,38l42.3,56.7c3.3,4.4,2.4,10.7-2,14
		c-1.8,1.3-3.9,2-6,2c-3,0-6.1-1.4-8-4l-33.3-44.6l-19.8,67.7l43.2,124.5l37.2,7.3c5.4,1.1,9,6.3,7.9,11.7c-0.9,4.8-5.1,8.1-9.8,8.1
		c-0.6,0-1.3-0.1-1.9-0.2l-25.8-5l19.2,55.3c1.8,5.2-1,10.9-6.2,12.7c-1.1,0.4-2.2,0.6-3.3,0.6c-4.1,0-8-2.6-9.4-6.7l-63.1-181.9
		l-36,74.5c0.4,0.5,0.8,1.1,1.1,1.7l56.7,115.3c2.4,5,0.4,10.9-4.6,13.4c-1.4,0.7-2.9,1-4.4,1c-3.7,0-7.2-2.1-9-5.6l-50.7-103.2
		l-33.5,69.2c-1.7,3.6-5.3,5.6-9,5.6c-1.5,0-2.9-0.3-4.3-1c-5-2.4-7.1-8.4-4.6-13.4l65.8-135.9l-53.8,25.3c-1.4,0.6-2.8,1-4.3,1
		c-3.8,0-7.4-2.1-9.1-5.7c-2.4-5-0.2-11,4.8-13.3l75.1-35.4c0.3-0.2,0.7-0.3,1-0.4l11.1-22.9l37-126.4H229l-12,10.3l22,44.6
		c2.4,5,0.4,10.9-4.6,13.4c-1.4,0.7-2.9,1-4.4,1c-3.7,0-7.2-2.1-9-5.6l-19.7-40l-24,20.6l-8.2,37l47.6,50.4c3.8,4,3.6,10.3-0.4,14.1
		c-1.9,1.8-4.4,2.7-6.9,2.7c-2.7,0-5.3-1.1-7.3-3.1l-38.3-40.6L125.1,529c-1,4.7-5.2,7.8-9.8,7.8c-0.7,0-1.5-0.1-2.2-0.2
		c-5.4-1.2-8.8-6.5-7.6-11.9l18.8-84.6l-54.7,37.6c-1.7,1.2-3.7,1.8-5.7,1.8c-3.2,0-6.3-1.5-8.2-4.3c-3.1-4.5-2-10.8,2.6-13.9
		l72.4-49.8l16.6-74.6c-1.7-3.8-0.9-8.3,2.3-11.3c0.1-0.1,0.2-0.2,0.3-0.3l2-9L35.1,416.4c-1.9,1.6-4.2,2.4-6.5,2.4
		c-2.8,0-5.6-1.2-7.6-3.5c-3.6-4.2-3.1-10.5,1.1-14.1l94.7-81.2l-35.7-3.3c-5.5-0.5-9.6-5.4-9-10.9c0.5-5.5,5.4-9.5,10.9-9l55.1,5
		l56.8-48.7c0.4-1.1,1.1-2.2,1.9-3.1h-50l-67.4,17l-12.3,3.3l-29,66.4c-1.6,3.8-5.3,6-9.2,6c-1.3,0-2.7-0.3-4-0.8
		c-5.1-2.2-7.4-8.1-5.2-13.2L42.2,277L0,288.1v117.2c0,150.9,271.5,223.9,299.9,224v0c0,0,0,0,0,0s0,0,0,0v0
		c28.4-0.1,299.9-73.1,299.9-224V294.8L541.1,273.6z"/>
	<g>
		<path class="st0" d="M118.6,230.4c0-6.8-15.5-55.5-18-60.7c-2.5-5.2-6.5-6.7-9.8-6.7s-10.8,1.8-10.8,8.2c0,6.3,0,59.7,0,66.3
			c0,5.1,1.6,7.1,6,10l28-7.1C116.2,238,118.6,234.3,118.6,230.4z"/>
		<path class="st0" d="M94,134.5c16.3,0,25.3-7.7,25.3-31.3c0-23.7-7.7-33.3-22-33.3s-17.2,2.7-17.2,9.7s0.2,22,0.2,22
			C80.3,118.2,77.6,134.5,94,134.5z"/>
		<path class="st0" d="M263.4,202.5c0-6.7,0-33.3,0-37.6v-38.3c0-3.1,0-30.7,0-38.5s-5.2-18.2-19.8-18.2s-19.2,11.5-19.2,18.2
			s0,33.3,0,37.6V164c0,3.1,0,30.7,0,38.5s5.2,18.2,19.8,18.2S263.4,209.2,263.4,202.5z"/>
		<path class="st0" d="M406.8,202.5c0-6.7,0-33.3,0-37.6v-38.3c0-3.1,0-30.7,0-38.5s-5.2-18.2-19.8-18.2s-19.2,11.5-19.2,18.2
			s0,33.3,0,37.6V164c0,3.1,0,30.7,0,38.5s5.2,18.2,19.8,18.2S406.8,209.2,406.8,202.5z"/>
		<path class="st0" d="M587.9,0H300h-0.1H12C5.4,0,0,5.4,0,12v258.1l41-10.9c2.4-3.2,4.4-6.9,4.4-8.7c0-3.3,0-178.3,0-192.7
			s5.8-15.5,11.3-15.5s32,0,50.2,0c18.2,0,47.2,11.7,47.2,57.3c0,45.7-21.2,45.3-21.2,61.7c0,9.8,14.3,52.3,18.3,61.8
			s13.8,9.7,13.8,9.7h24.5c3.8-1.7,4.8-2.6,4.8-6.7c0-4.1-5.7-17-5.7-29.3s0-87,0-106s12.8-51.3,54-51.3c41.2,0,55.7,29.3,55.7,51.3
			s0,99.7,0,108.3c0,8.7-5.7,23.3-5.7,27.7c0,2.5,1.2,4.5,2.8,6h37.6c3.8-1.7,4.8-2.6,4.8-6.7c0-4.1-5.7-17-5.7-29.3s0-87,0-106
			s12.8-51.3,54-51.3s55.7,29.3,55.7,51.3s0,99.7,0,108.3c0,8.7-5.7,23.3-5.7,27.7c0,2.5,1.2,4.5,2.8,6h38.4c1.1,0,2.3,0.2,3.3,0.6
			l11.6,4.1c2.9-1.9,4.6-4.8,4.6-7.8c0-5.2,0-138.4,0-146.9c0-8.5-8.9-10.7-11.4-10.7s-8.2,0-13.9,0s-9.7-4-9.7-11c0,0,0-3,0-5.6
			c0-12.8,8.8-13.4,8.8-13.4s74,0,84.4,0s10,7.4,10,10.8s0,1.4,0,6.7c0,12-10,12.7-10,12.7s-3.7,0-12,0s-12,3-12,10.7
			c0,7.7,0,149,0,155.3c0,6.3,0.9,13.5,8.1,16.1l60.9,22V12C599.9,5.4,594.5,0,587.9,0z"/>
	</g>
</g>
</svg>
