<?xml version="1.0" encoding="utf-8"?>
<!-- Generator: Adobe Illustrator 19.0.0, SVG Export Plug-In . SVG Version: 6.00 Build 0)  -->
<svg version="1.1" id="Layer_1" xmlns="http://www.w3.org/2000/svg" xmlns:xlink="http://www.w3.org/1999/xlink" x="0px" y="0px"
	 viewBox="164 30.89 924 781" style="enable-background:new 164 30.89 924 781;" xml:space="preserve">
<style type="text/css">
	.st0{fill:#1E2124;}
	.st1{fill:#CECECE;}
	.st2{fill:#BC831E;}
	.st3{fill:#FFFFFF;}
	.st4{fill:#FF0000;}
	.st5{fill:#BC0606;}
	.st6{fill:#F7AE05;}
	.st7{fill:#C4C4C4;}
	.st8{fill:#E0E0E0;}
	.st9{fill:#E2C11E;}
	.st10{fill:#2A2408;}
	.st11{fill:#A38819;}
	.st12{fill:#282828;}
	.st13{fill:#3D3D3D;}
	.st14{fill:#CC8B0A;}
</style>
<polygon class="st0" points="677.542,468.86 677.542,405.235 695.103,378.689 707.151,372.604 713.788,380.223 717.056,391.962 
	721.275,411.871 717.056,462.921 704.423,472.76 686.83,481.469 "/>
<g id="_x23_cececeff">
	<path class="st1" d="M595.3,30.89h13.53c88.36,0.93,176.27,22.01,255.78,60.46c46.56,22.36,90.24,50.52,130.43,82.92
		c-2.77,51.74-8.15,103.38-17.17,154.41c-15.36,86.8-42.49,172.6-89.03,247.95c41.21-5.62,82.35-11.89,123.2-19.8
		c25.42-4.73,50.63-10.66,75.96-15.78v0.39c-6.89,5.54-12.64,12.37-19.06,18.44c-28.48,28.57-57.96,56.14-88.26,82.76
		c-1.45,1.42-1.62,3.62-2.36,5.43c-18.66,54.82-37.86,109.47-57.86,163.82H166.43c29.63-24.43,59.55-48.53,90.27-71.57
		c-0.09-34.81-0.19-69.63-0.24-104.44c-29.83-27.99-58.46-57.25-86.04-87.46c-1.46-1.86-3.76-3.27-4.38-5.64
		c-0.51-0.02-1.53-0.07-2.04-0.09v-1.19c44.71,9.61,89.56,18.62,134.68,26.11c-20.71-36.8-37.44-75.76-50.81-115.78
		c-28.93-86.81-42.64-177.97-48.65-269.05c76.01-64.11,166.26-112.02,263.16-135.27C505.87,36.98,550.56,31.52,595.3,30.89
		 M364.31,89.22c-56.47,24.61-109.05,57.8-156.48,97.05c0.1,4.69,0.61,9.36,0.92,14.05c6.67,85.86,20.65,171.66,48.45,253.37
		c14.79,43.4,33.65,85.51,57.36,124.79c-42.46-6.63-84.71-14.64-126.76-23.54c24.52,26.82,50.39,52.4,76.84,77.32
		c0.13,37.44,0.34,74.89,0.21,112.31c-25.52,19.08-50.66,38.7-75.16,59.08c241.68-0.03,483.36,0.01,725.04-0.02
		c20.05-54.72,39.28-109.75,58.11-164.9c30.43-27.13,60.6-54.73,89.29-83.77c-62.7,13.84-126.15,23.99-189.81,32.16
		c28.12-42.33,49.91-88.68,66.28-136.73c29.77-87.7,42.57-180.2,47.98-272.35c-36.28-28.84-75.33-54.26-116.82-74.96
		c-79.75-40.11-168.48-62.56-257.8-63.82C527.07,37.68,442.03,55.13,364.31,89.22z"/>
</g>
<g id="_x23_1e2124ff">
	<path class="st0" d="M364.31,89.22c77.72-34.09,162.76-51.54,247.65-49.96c89.32,1.26,178.05,23.71,257.8,63.82
		c41.49,20.7,80.54,46.12,116.82,74.96c-5.41,92.15-18.21,184.65-47.98,272.35c-16.37,48.05-38.16,94.4-66.28,136.73
		c63.66-8.17,127.11-18.32,189.81-32.16c-28.69,29.04-58.86,56.64-89.29,83.77c-18.83,55.15-38.06,110.18-58.11,164.9
		c-241.68,0.03-483.36-0.01-725.04,0.02c24.5-20.38,49.64-40,75.16-59.08c0.13-37.42-0.08-74.87-0.21-112.31
		c-26.45-24.92-52.32-50.5-76.84-77.32c42.05,8.9,84.3,16.91,126.76,23.54c-23.71-39.28-42.57-81.39-57.36-124.79
		c-27.8-81.71-41.78-167.51-48.45-253.37c-0.31-4.69-0.82-9.36-0.92-14.05C255.26,147.02,307.84,113.83,364.31,89.22 M629.44,51.48
		c0.16,0.57,0.48,1.69,0.64,2.26c6.31,14.39,8.8,30.52,6.7,46.13c-3.43-5.9-7.04-11.88-12.47-16.19
		C611.53,73.02,593.6,71.03,577.7,74c3.67,8.37,7.7,16.59,11.38,24.96c-2.43-1.92-4.44-4.37-7.16-5.92
		c-9.05-5.79-20.5-5.74-30.69-3.59c-11.42,2.57-22.46,7.14-32.32,13.43c4.03,1.88,7.9,4.29,10.74,7.78
		c-24.15,3.08-48.15,7.59-71.61,14.13c-32.88,9.07-64.63,22.18-94.36,38.88c-33.05,18.44-63.49,41.13-92.68,65.12
		c4.56,86.85,22.3,173.29,55.32,253.87c14.94,36.37,32.67,71.7,53.96,104.78c10.25,1.08,20.48,2.31,30.73,3.36
		c6.33-23.38,12.48-46.8,19.07-70.1c-5.09,4.28-10.06,9.16-12.79,15.33c-0.02-2.49,0.61-4.9,1.09-7.31
		c3.19-15.73,6.99-31.33,11.48-46.74c6.35-21.53,13.8-42.9,24.61-62.63c6.12-10.92,13.35-21.58,23.4-29.25
		c-10.25,4.27-20.22,9.27-29.85,14.79c-4.35,2.59-8.73,5.31-12.11,9.13c-0.09-10.64,2.45-21.12,5.64-31.22
		c9.83-29.68,28.85-55.56,51.41-76.89c-6.7,2.72-13.11,6.09-19.75,8.95c5.77-21.17,13.63-41.92,24.92-60.79
		c10.88-17.87,25.05-34.98,44.43-43.9c0.1-0.23,0.3-0.68,0.4-0.9c-10.82-2.62-21.43,2.66-30.33,8.32
		c-10.6,6.84-19.82,15.54-28.61,24.52c3.1-19.35,9.19-38.56,20.21-54.93c10.13-14.98,24.76-27.63,42.39-32.65
		c-3.31-2.53-7.55-3.28-11.55-3.93c-11.18-1.54-22.5-0.67-33.69,0.25c6.05-4.65,12.59-8.65,19.2-12.48
		c11.27-6.26,23.38-11.8,36.37-12.98c7.55-0.6,16.11,0.51,21.58,6.28c1.77-0.37,0.6-2.62,0.48-3.77c-1.81-4.32-6.16-6.75-10.09-8.87
		c-10.89-5.33-22.77-8.24-34.58-10.72c-0.08-0.24-0.24-0.73-0.32-0.97c8.55-3.86,17.46-7.24,26.85-8.27
		c10.72-1.4,22.12,0.71,31.02,7.05c9.64,6.64,15.78,17.08,19.8,27.86c0.06-6.74-1.92-13.27-4.26-19.51
		c-4.57-11.94-10.8-23.14-17.3-34.11c13.22,2.3,26.26,7.91,35.58,17.79c11.92,12.33,16.97,29.95,16.64,46.82
		c3.67-5.6,3.56-12.64,3.93-19.08c0.24-17.19-1.77-34.32-4.17-51.31c2.76,0.45,4.98,2.41,7.07,4.14
		c7.79,7.28,12.4,17.21,15.98,27.08c7.51,21.6,10.05,44.53,11.6,67.23c1.59-0.22,1.55-2.13,2.07-3.28
		c1.75-6.48,1.99-13.24,2.32-19.91c0.45-15.19-0.12-30.39-1.04-45.54c16.61,9.85,27.41,26.84,35.49,43.92
		c9.25,20.17,15.39,41.73,18.92,63.62c3.09-0.92,2.82-5.28,3.11-7.92c-0.06-15.17-4.34-29.93-8.09-44.51l0.26-0.86
		c10.06,8.16,17.17,19.44,22.01,31.35c7.08,17.52,9.83,36.51,10.17,55.32c1.7-1.33,2.3-3.51,3.04-5.44
		c2.79-8.79,2.78-18.11,3.2-27.22c11.34,20.75,14.8,44.97,14.04,68.36c-0.79,23.4-5.79,46.5-13.28,68.63
		c15.22,17.52,18.87,43.61,9.86,64.87c-2.17-2.95-2.88-7.1-6.34-8.95c-10.97-7.28-22.34-14.25-34.76-18.74
		c9.52,18.12,13.43,38.93,11.67,59.29c-1.05,15.18-5.44,29.86-10.98,43.95c-0.17-1.76-0.46-3.51-0.79-5.23
		c-2.2,6.13-6.56,11.1-10.55,16.11c16.91,30.89,32.83,62.48,44.82,95.63c11.1-0.28,22.2-1.47,33.28-2.33
		c3.24-4.5,6.16-9.22,9.17-13.87c43.2-68.29,73.18-144.59,90.75-223.37c9.98-44.37,15.61-89.62,18.36-134.99
		c-31.84-25.14-65.4-48.32-101.52-66.93c-35.33-18.29-73.04-32.14-112.03-40.18c-3.04-0.09-3.65-3.59-5.34-5.49
		c-9.75-13.91-21.26-27.67-36.93-35.03c2.35,8.82,5.31,17.52,5.99,26.7c-1.67-2.4-2.6-5.21-4.04-7.74
		C660.36,76.03,646.35,61.31,629.44,51.48 M542.45,59.14c-1.24,5.64-2.83,11.21-4.12,16.84c-2.89-4.85-4.37-10.51-6.89-15.6
		c-1.68,0.25-3.37,0.48-5.05,0.69c0.44,8.43,1.27,16.82,1.93,25.23c1.25-0.19,2.51-0.38,3.78-0.57c-0.51-5.59-0.66-11.21-1.43-16.77
		c2.72,4.27,3.94,9.42,6.13,14.02c1.22-0.17,2.45-0.33,3.68-0.5c1.34-5.22,2.3-10.55,4.01-15.68c0.08,5.71,0.72,11.39,0.88,17.09
		c1.29-0.02,2.59-0.11,3.89-0.25c-0.48-8.4-1.01-16.81-1.44-25.21C546.02,58.58,544.21,58.76,542.45,59.14 M689.94,60.41
		c-0.59,8.39-1.28,16.78-1.85,25.17c1.32,0.18,2.64,0.37,3.96,0.56c0.63-8.39,1.32-16.77,1.97-25.16
		C692.65,60.79,691.29,60.6,689.94,60.41 M611.89,95.8c1.39,3.55,2.48,7.2,3.78,10.77c0.05,0.58,0.15,1.73,0.2,2.31
		c3,12.29,3.78,25.55-0.42,37.66c-0.7,2.31-2.26,4.33-2.57,6.74c-8.41-13.02-12.7-29.01-24.51-39.7
		c-6.12-5.76-14.72-7.86-22.94-7.67c-0.66,0.05-1.98,0.16-2.63,0.21c9.31,5.6,19.72,10.93,25.31,20.74
		c2.94,4.93,3.02,11.77-1.3,15.94c-6.75-2.48-13.61-4.8-20.76-5.77c-6.35-0.79-13.46-0.85-18.84,3.15l-0.54-0.19
		c-0.26,1.85,1.99,1.55,3.08,2.07c9.84,2.72,16.47,12.44,17.59,22.28c-18.04,0.65-34.89,9.85-46.89,23.03
		c-5.46,6.08-10.58,12.77-13.26,20.57l1.33-0.73c14.01-4.11,28.75-8.96,43.47-5.83c4.06,1.16,9.15,2.76,10.91,6.97
		c-13.15,7.41-24.54,17.69-34.22,29.22c-12.72,15.22-22.18,32.85-30.11,50.96c-0.14,0.59-0.42,1.78-0.56,2.38
		c-1.06,1.16-1.57,2.68-2.19,4.1c1.11-0.62,2.12-1.41,3.05-2.27c15.11-13.38,30.09-27.14,47.48-37.57
		c27.49-16.86,58.99-25.92,90.59-31.16c4.41-0.97,6.03,4.05,8.18,6.8c1.38,1.98,3.8,0.81,5.55,0.07
		c15.3,9.89,30.21,20.44,44.13,32.22c10.44,9.12,21.22,18.7,27.2,31.48c0.21-6.26-2.21-12.22-4.95-17.72
		c-6.88-13.45-17.35-24.53-27.58-35.45c9.57,4.16,18.32,10.06,26.4,16.64c14.89,12.28,26.99,28.8,31.25,47.86
		c2.04,11.77,4.44,24.05,11.49,33.98c0.4,0.51,1.2,1.54,1.6,2.05c4.48-8.42,6.97-17.74,8.63-27.1c3.21-19.28,3.24-39,1.35-58.42
		l0.98-0.83c-0.54-0.36-1.18-0.37-1.3,0.39c-0.55,3.25-1.66,6.36-3.31,9.22c-5.08,7.87-13.96,12.37-22.88,14.35l0.42-1.11
		c4.33-5.21,5.93-12.06,7.02-18.6c1.82-12.88,1.04-25.98-0.54-38.84c-0.34-3.39-1.27-6.72-1.09-10.13
		c-1.01,4.79-1.41,9.73-3.49,14.23c-3.68,7.06-11.2,11.6-19.12,11.87c0.89-37.06-10.55-73.75-29.66-105.29
		c-1.07-1.38-1.47-3.54-2.92-4.46c1.4,8.25,0.66,16.92-0.25,25.26c-2.69,18.91-9.74,37.15-20.32,53.03
		c-0.63,0.99-1.36,1.92-2.31,2.62c-0.6-15.74-1.76-31.46-3.67-47.1c-2.59-20.53-6.09-41.13-13.15-60.66l0.04-0.32
		c-0.49-0.78-0.97-1.55-1.46-2.33c0.79,12.35,0.65,24.78-0.75,37.08c-1.04,7.93-2.52,16.05-6.49,23.1
		c-2.18,3.82-5.91,7.59-10.68,7.16c-0.57-13.13-0.78-26.54-5.09-39.13C626.44,114.74,620.53,103.91,611.89,95.8 M809.3,95.65
		c-1.71,8.12-3.64,16.21-5.19,24.36c1.25,0.46,2.5,0.94,3.76,1.42c1.22-5.29,2.19-10.65,3.64-15.9c1.32,6.35,2.9,12.65,4.06,19.04
		c1.26,0.7,2.58,1.28,3.92,1.85c1.81-8.08,3.99-16.09,5.55-24.23c-1.26-0.51-2.52-1.04-3.77-1.57c-1.23,5.36-2.5,10.71-3.69,16.08
		c-1.5-6.44-2.81-12.91-4.25-19.36C811.99,96.75,810.65,96.19,809.3,95.65 M389.27,99.93c-0.33,8.98-0.73,17.96-1.01,26.95
		c0.9-0.37,2.7-1.1,3.6-1.47c0.56-2.3,0.35-4.69,0.46-7.04c2.08-0.93,4.16-1.85,6.32-2.57c0.94,1.86,1.9,3.71,3.01,5.47
		c1.26-0.55,2.53-1.08,3.8-1.61c-3.98-7.2-7.9-14.44-12.09-21.53C391.99,98.72,390.63,99.32,389.27,99.93 M250.42,183.26
		c-2.6,6.34-1.07,15.58,5.69,18.62c6.98,2.1,12.72-4.77,14.33-10.87c-1.19-2.96-2.35-5.94-3.53-8.91c-2.26,1.66-4.53,3.31-6.77,5
		c0.49,1.26,0.97,2.53,1.45,3.79c1.18-0.71,2.36-1.44,3.54-2.14c2.29,3.6-1.76,7.5-5.14,8.36c-3.99,0.51-6.17-4-6.55-7.32
		c-0.84-4.96,3.59-10.95,8.98-9.42c0.38-1.57,0.73-3.15,1.06-4.73C257.87,173.87,252.33,178.17,250.42,183.26 M940.41,190.8
		c0.36,7.22,7.02,14.45,14.65,12.86c1.29-2.93,2.5-5.9,3.73-8.86c-2.22-1.75-4.46-3.45-6.71-5.15c-0.53,1.23-1.08,2.46-1.64,3.68
		c1.03,0.98,2.15,1.89,3.33,2.73c-0.39,0.91-0.76,1.82-1.12,2.74c-5.03,0.14-8.82-5.1-8.07-9.86c0.39-3.11,2.01-6.81,5.45-7.43
		c3.95-0.05,6.44,3.75,7.4,7.17c0.88-0.31,2.62-0.91,3.49-1.21c-1.08-5.57-5.65-11.35-11.79-11.06
		C942.59,177.35,939.86,184.98,940.41,190.8 M624.58,244.3c-17.88,4.19-34.7,12.12-50.19,21.88
		c-22.03,14.02-41.53,31.79-58.58,51.51c-12.06,16.66-22.76,34.34-31.9,52.76c3.3-0.82,6.65-1.54,9.81-2.82
		c12.19-4.63,24.87-7.88,37.78-9.69l0.72,0.39c-1.48,2.46-3.43,4.66-4.68,7.23c-5.56,7.28-10.01,15.36-14.75,23.2
		c-11.8,20.33-22.17,41.54-30.37,63.59c-4.82,13.38-9.32,26.98-11.79,41c-1.4,5.22-2.17,10.6-2.91,15.95
		c1.07-0.99,2.29-1.83,3.23-2.94c4.61-2.81,9.15-5.93,14.43-7.36c-4.14,13.47-7.85,27.08-11.12,40.8
		c-4.14,18.34-8.48,36.96-7.96,55.89c0.4,0.08,1.19,0.23,1.58,0.31c18.03,1.23,36.06,2.45,54.11,3.38c2.91,0.11,5.84,0.49,8.74,0.11
		c-5.86-1.47-11.52-3.64-17.18-5.72c3.46-11.5,10.15-21.63,16.82-31.48c11.03-14.47,23.27-27.99,36.31-40.68
		c-6.29,1.49-12.25,4.06-18.26,6.39l0.02,0.12c-9.07,3.72-17.98,7.84-26.88,11.94c0.45-2.02,1.16-3.96,1.73-5.94
		c9.46-23.3,23.79-44.21,38.82-64.22c2.01-2.35,3.45-5.3,6.13-6.98c-2.03,2.31-2.79,5.38-3.96,8.16
		c-4.74,13.44-8.1,27.31-11.31,41.17c6.95-2.79,14.52-3.33,21.92-3.92c10.55-0.61,21.16-0.87,31.73-0.26
		c-1.79,0.56-3.54,1.22-5.19,2.1c-10.53,6.24-18.02,16.29-24.72,26.29c-9.57,14.89-17.54,30.8-24.02,47.26
		c6.87,7.66,15.9,12.94,24.92,17.67c3.09,1,6.46,0.25,9.66,0.62c24,0.3,48,0.46,72-0.01c3.84,0,7.69-0.13,11.54-0.2
		c-12.77-13.35-28.97-23.24-46.27-29.54l-0.05-0.27c-3.12-1.08-6.27-2.09-9.39-3.16c34.9-2.73,70.14-3.55,104.98,0.4
		c3.2,0.43,6.39,0.9,9.59,1.42c-2.26-11.88-5.14-23.67-9.37-35.01c-2.6-6.76-5.67-13.53-10.65-18.89c-1.39,0.88-2.83,1.7-4.3,2.44
		l0.14,0.67l-0.16-0.47c-3.89,2-8.49,3.74-12.85,2.23c-2.4-0.82-3.82-2.95-5.39-4.76c-5.74,6.28-14.99,7.31-23.03,7.14
		c-15.75-0.52-31.52-8.7-39.55-22.51c-4.41-8.05-7.76-16.7-9.87-25.63c-0.31-1.38-1.44-2.34-2.24-3.44
		c-7.03-8.8-13.36-18.16-18.91-27.96c-7.68-13.82-14.11-28.76-15.62-44.65c-1.15-11.41,1.09-23.4,7.73-32.91
		c1.46,3.79,3.01,7.57,4.98,11.15c3.9,7.05,9.12,14.5,17.38,16.63c-5.38-19.74-1.98-40.84,5.26-59.65
		c2.29-5.88,2.43-13.42-2.29-18.17c-2.75-3.07-6.84-4.03-10.47-5.61c6.07,0.14,12.19,1.56,17.35,4.84
		c7.73,4.74,12.9,12.68,16.03,21.04c-1.03-11.01-8.39-20.95-18.23-25.81c-10.89-5.52-23.51-5.92-35.44-4.87
		c9.39-12.68,22.45-22.5,36.92-28.67c17.87-7.63,38.07-8.74,56.98-4.83c5.62,0.95,11,3.04,15.95,5.85c3.24,1.94,6.52,4.3,8.22,7.79
		c1.22,2.35,0.86,5.64-1.48,7.17c-2.45,1.92-5.7,1.35-8.57,1.45c-1.89,1.12,0.12,3.35,0.86,4.61c6.22,8.03,14.1,14.56,21.73,21.2
		c3.37,3.65,2.49,9.51,5.79,13.19c5.29,3.52,5.41,10.57,7.25,16.07c2.24-0.75,4.51-1.7,6.09-3.53c0.96-0.75,1.64-2.25,3.07-2.1
		c5.08-0.69,7.49,7.14,12.64,4.74c2.48-0.7,4.94-1.44,7.42-2.15c-14.7-11.42-28.29-25.12-36.17-42.24
		c-1.79-4.27-3.81-8.46-6.38-12.32c-3.11-5.43-7.24-10.2-11.43-14.82c-10.28-10.94-22.19-20.39-35.3-27.74
		c-6.77-3.65-13.92-7.09-21.64-8.07C636.2,241.87,630.34,243.06,624.58,244.3 M607.72,294.52c-0.9,0.52-2.32,0.6-2.62,1.76
		c1.49,0.19,2.91,0.87,4.42,0.97c4.85,2.12,9.99,3.65,14.46,6.57c9.07,5.38,15.81,14.58,17.82,24.98
		c3.07,14.67-0.89,29.68-6.36,43.29c-0.59-2.64-0.45-5.47-1.79-7.88c-2.21-4.3-6.12-7.64-10.52-9.54c-4.51,8.64-5.35,18.6-5.4,28.19
		c0.12,8.55,0.79,17.12,2.41,25.52c-12.21-1.79-24.25-8.54-30.06-19.77c2.03,14.68,7.1,29.17,15.84,41.23
		c0.97,1.19,1.74,2.74,3.29,3.27c0.9,2.25,2.94,3.77,4.55,5.5c1.6-6.89,3.54-13.87,7.21-19.97c-0.88,5.61-3.48,11.89-0.6,17.29
		c4.18-19.94,14.86-38.69,30.56-51.79c-6.21,1.32-11.63,4.85-17.07,7.95c1.1-3.06,3.19-5.63,5.07-8.23
		c10.39-13.34,26.44-21.24,42.83-24.29c3.86-2.57,7.72-5.22,12.1-6.84c5.54-2.1,12.11-3.89,17.45-0.31
		c1.19,0.43,2.41,0.81,3.65,1.13c-0.03-3.42-1.65-6.59-3.08-9.62c-0.78-1.78-2.88-2.41-3.78-4.08c-2.48-4.79-2.91-10.29-4.73-15.29
		c-8.23-8.7-18.66-15.57-24.94-25.97c-1.94-2.6-0.16-5.31,2.2-6.73c-1.92-2.86-5.56-3.87-8.76-4.4c-5.8-1.75-11.89-2.16-17.9-2.32
		C638.12,285,622.27,288.25,607.72,294.52 M756.75,352.01c-4.57,2.42-9.64,3.81-14.76,4.35c-3.28-1.95-7.51-3.4-11.17-1.59
		c-6.52,3.76-14.8,3.43-21.7,0.92c-7.26-4.52-15.61,0.51-22.29,3.84c4.04,0.37,8.26-0.33,12.14,1.28
		c6.36,2.04,10.5,7.98,12.31,14.16c16.19-0.15,31.44,6.62,45.22,14.52l-0.06,0.23c2.65,1.14,4.88,3.02,7.55,4.14
		c-3.64-6.49-7.17-13.25-12.38-18.65c-7.38-6.32-17.61-8.83-27.13-8.61c-2.18-0.36-4.41,0-6.59-0.04
		c8.95-1.71,18.34-1.66,27.26,0.24c-0.24,0.49-0.74,1.47-0.99,1.96c1.69-0.18,4,0.14,4.75-1.84l-0.16,1.02
		c11.79,6.33,18.46,18.66,25.09,29.75c0.15-0.01,0.45-0.04,0.6-0.05c1.1-5.54,1.75-11.25,0.94-16.88
		c-1.39-11.63-7.76-22.24-16.43-29.94C758.4,351.12,757.3,351.71,756.75,352.01 M658.2,373.21c-2.2,1.2-4.19,2.73-6.02,4.44
		c7.87-3.24,16.72-3.83,24.9-1.41c0.18,0.34,0.53,1.03,0.71,1.38c-16.92,5.45-30.77,18.4-39.08,33.92
		c-9.21,17.23-13.26,36.96-13.14,56.4c-3.76-3.35-4.91-8.81-5.9-13.58c0.11-2.52-0.68-4.98-1.21-7.42
		c-0.77,16.39-0.76,34.36,9.21,48.3c7.83,11.42,21.82,16.83,35.27,17.26c-5.88-1.13-11.81-2.88-16.23-7.15
		c-7.18-6.67-8.79-17.18-8.21-26.53c0.29,0.25,0.87,0.74,1.16,0.99c2.49,5.55,6.92,10.28,12.27,13.18
		c3.89,2.12,9.23,2.89,12.79-0.28c3.73-3.47,4.17-9.01,3.82-13.8c-2.15-20.57-3.02-41.58,1.12-61.97c0.46-2.89,1.69-5.63,1.74-8.57
		c2.23-5.9,4.37-11.93,7.96-17.18c5.86-9.46,15.4-16.77,26.4-18.97c0.35-1.19-0.93-1.86-1.51-2.67c-2.94-3.18-7.01-5.36-11.3-5.9
		C680.79,363.67,668.66,367.02,658.2,373.21 M704.42,376.92v0.54c-11.96,4.8-18.86,17.09-21.9,29.04
		c-4.93,20.81-3.09,42.64,0.92,63.45c2.96-3.89,3.74-9.71,8.55-12.1c-1.87,5.85-3.06,11.97-2.81,18.14c0.97-0.99,1.94-2,2.61-3.23
		c3.9-1.54,7.19-4.24,10.91-6.15c5.99-3.39,12.47-8.21,13.19-15.62c-2.58,1.69-4.5,4.57-7.79,4.91c5.86-7.74,8.41-17.46,8.95-27.05
		c-0.11-5.32,0.08-10.64-0.03-15.95c-1.25-7.65-2.81-15.29-5.47-22.59c-2.01-4.4-1.85-9.35-3.18-13.95
		C707.03,376.4,705.71,376.61,704.42,376.92 M722.04,395.51c4.87,18.62,6.97,38.56,2.01,57.4c-3.9,14.82-13.3,28.69-26.93,36.08
		c3.82-4.45,7.36-9.36,8.78-15.14c-4.14,2.6-10.3,3.73-11.77,9.11c-1.59,6.7,1.64,13.28,1.63,19.98c0.01,1.64-1.01,3.01-1.75,4.39
		l-0.88-0.47c-1.26,2.58-0.27,5.54,0.69,8.07c1.58,2.51,4.81,0.56,6.85-0.3c6.53-3.56,13.19-7.31,18.27-12.85
		c8.55-9.48,14.59-21.04,19.05-32.92c-5.16,8.31-13.63,15.39-23.48,16.82c3.39-2.57,6.68-5.4,9.37-8.7
		c4.56-3.54,7.79-8.65,10.49-13.7c6.18-15.84,7.07-34.23,0.15-49.99c-1.96-4.22-4.02-8.57-7.38-11.86
		C725.66,399.28,723.92,397.3,722.04,395.51 M297.26,611.58c3.97,3.82,8.17,7.4,12.17,11.19c0.6,19.63,0.17,39.37,0.44,59.04
		c-0.08,26.59,0.43,53.19,0.1,79.77c-4.12,2.92-8.25,5.85-12.16,9.05c23.41,0.35,46.82,1.06,70.23,1.35
		c-3.87-3.35-8.18-6.19-12.31-9.22c-0.17-23.62-0.52-47.29-0.18-70.89c23.06,32.04,46.69,63.67,70.69,95.01
		c1.12-0.14,2.24-0.26,3.37-0.37c-0.08-32.18-0.25-64.35-0.35-96.53c-0.11-18.29-0.1-36.58-0.25-54.87
		c4.46-2.73,8.95-5.41,13.4-8.16c-24.17-2.05-48.33-4.13-72.46-6.62c3.57,4,8.34,6.94,12.46,10.43c0.3,14.71,0.15,29.44,0.26,44.16
		c-14.6-19.29-29.18-38.59-43.54-58.05C325.15,615.3,311.21,613.4,297.26,611.58 M875.23,620.86c4.41,2.61,8.9,5.11,13.33,7.71
		c-4.93,13.86-9.89,27.71-14.91,41.54c-5.01-12.79-9.48-25.79-14.41-38.62c4.24-3.46,8.57-6.8,12.78-10.29
		c-23.58,2.24-47.16,4.34-70.77,6.19c4.72,3.03,9.8,5.51,14.4,8.73c6.62,17.63,13.09,35.32,19.5,53.04l0.18-0.02
		c11.45,32.62,23.39,65.09,34.79,97.74c1.32-0.01,2.65,0,4,0.01c12.85-34.21,25.43-68.53,37.75-102.95
		c6.79-19,13.53-38.02,20.12-57.08c0.48-1.15,0.63-2.51,1.53-3.43c4.11-3.74,8.79-6.92,12.57-11
		C922.5,615.48,898.87,618.25,875.23,620.86 M730.43,631.66c-0.31,0.13-0.95,0.39-1.26,0.53c3.96,2.45,7.81,5.08,11.71,7.63
		c-0.06,17.69-0.19,35.37-0.14,53.06c-0.13,24.09-0.2,48.17-0.17,72.25c-3.78,3.16-8.13,5.57-11.83,8.82
		c22.79,0.03,45.58-0.49,68.38-0.53c-4.13-3.14-8.6-5.79-12.81-8.81c0.36-24.54,0.22-49.08,0.36-73.62
		c0.07-17.77,0.21-35.55,0.13-53.32c4.29-3.47,8.99-6.41,13.4-9.73C775.61,629.08,753.04,630.72,730.43,631.66 M601.88,633.9
		c0,8.38-0.02,16.77,0.01,25.16c4.68-1.81,9.32-3.72,13.98-5.58c1.29-0.62,2.74-0.47,4.13-0.48c6.54,0.04,13.08-0.01,19.63,0.03
		c-0.02,13.98-0.01,27.96-0.01,41.94c-0.01,23.47,0.02,46.94-0.01,70.41c-4.63,3.05-9.6,5.62-14,8.98
		c23.51,0.14,47.02-0.15,70.54-0.12c-3.57-3.32-8.05-5.53-11.92-8.5c0.06-23.91-0.01-47.82,0.03-71.73
		c0.15-13.86,0.12-27.73,0.12-41.59c7.24-0.13,14.48-0.46,21.73-0.51c5.06,1.54,9.92,3.77,14.9,5.6c0.27-8.46,0.04-16.92,0.11-25.38
		C681.39,633.38,641.63,634.05,601.88,633.9 M466.29,640.09c-0.2,13.97,0.23,27.94,0.06,41.91c-2,3.09-4.62,5.73-6.86,8.65
		c-1.61,1.95-3.32,3.82-4.7,5.94c3.87,0.14,7.74,0.3,11.62,0.44c0.12,23.2,0.23,46.39,0.21,69.59c-1.53,0.99-3.02,2.03-4.48,3.12
		c15.29,0.24,30.59,0.43,45.88,0.52c-1.18-1.34-2.72-2.25-4.15-3.27c-0.17-22.87-0.09-45.74-0.23-68.61
		c12.42,0.28,24.85,0.84,37.27,0.84c0.45,22.77,0.42,45.59,0.23,68.37c-1.55,0.83-3.03,1.78-4.33,2.96
		c14.84-0.15,29.73,0.52,44.56-0.03c-1.48-0.83-2.98-1.58-4.3-2.62c0.14-24.28,0-48.56,0.07-72.84
		c-0.31-16.67-0.06-33.35-0.15-50.02c-2.82-2.41-6.46-3.48-9.92-4.58c-11.75-3.37-24-4.48-36.17-4.69
		c-16.25-0.38-32.56-2.36-48.78-0.24C476.7,636.29,470.97,637.01,466.29,640.09z"/>
	<path class="st0" d="M392.64,104.79c1.42,2.33,2.67,4.76,3.93,7.18c-1.39,0.58-2.77,1.17-4.15,1.77
		C392.52,110.76,392.48,107.77,392.64,104.79z"/>
	<path class="st0" d="M621.22,292.41c17.18-6.16,38.57-3.85,51.79,9.56c3.79,4.57,6.6,9.88,10.43,14.44
		c4.05,5.22,9.39,9.18,14.5,13.3c-3.4-1.03-6.54-2.75-9.93-3.75c-4.38,0.46-9.09-0.12-13.19,1.48c2.12,0.41,4.28,0.76,6.43,1.13
		c-4.61,0.37-9.23,0.1-13.82-0.19c-5.42-1.48-11.28-1.74-16.16-4.75c-4.26-2.62-7.94-6.79-8.8-11.84
		c-1.08-5.86-1.27-11.84-1.55-17.79c-5-0.69-10.04-1.18-15.09-1.08C624.29,292.76,622.75,292.59,621.22,292.41 M660.45,303.38
		c-2.49,3.62-2.25,8.45-1.46,12.59c0.42,1.63,1.39,4.42,3.6,3.54c3.1-3.75,2.77-9.33,1.63-13.79
		C663.9,304.12,662.11,301.55,660.45,303.38z"/>
	<path class="st0" d="M554.51,372.33c1.13-1.89,1.96-3.99,3.46-5.64c-1.01,2.95-2.23,5.82-3.37,8.72
		c-7.36,18.49-13.75,37.52-17.05,57.19c7.78-6.62,19.07-5.05,27.41-0.39l1.04,0.51c-17.18,0.09-31.69,10.95-44.42,21.33
		c0.78-10.76,4.45-21.03,8.3-31.02C536.85,405.56,545.4,388.77,554.51,372.33z"/>
	<path class="st0" d="M503.5,646.13c12.44,0.53,24.88,1.21,37.33,1.35c0.4,13.07,0.28,26.17,0.28,39.26
		c-12.5-0.36-25-0.58-37.5-1.15C503.71,672.43,503.4,659.28,503.5,646.13z"/>
</g>
<g id="_x23_bc831eff">
	<path class="st2" d="M629.44,51.48c16.91,9.83,30.92,24.55,40.16,41.77c1.44,2.53,2.37,5.34,4.04,7.74
		c-0.68-9.18-3.64-17.88-5.99-26.7c15.67,7.36,27.18,21.12,36.93,35.03c1.69,1.9,2.3,5.4,5.34,5.49
		c38.99,8.04,76.7,21.89,112.03,40.18c36.12,18.61,69.68,41.79,101.52,66.93c-2.75,45.37-8.38,90.62-18.36,134.99
		c-17.57,78.78-47.55,155.08-90.75,223.37c-3.01,4.65-5.93,9.37-9.17,13.87c-11.08,0.86-22.18,2.05-33.28,2.33
		c-11.99-33.15-27.91-64.74-44.82-95.63c3.99-5.01,8.35-9.98,10.55-16.11c0.33,1.72,0.62,3.47,0.79,5.23
		c5.54-14.09,9.93-28.77,10.98-43.95c1.76-20.36-2.15-41.17-11.67-59.29c12.42,4.49,23.79,11.46,34.76,18.74
		c3.46,1.85,4.17,6,6.34,8.95c9.01-21.26,5.36-47.35-9.86-64.87c7.49-22.13,12.49-45.23,13.28-68.63
		c0.76-23.39-2.7-47.61-14.04-68.36c-0.42,9.11-0.41,18.43-3.2,27.22c-0.74,1.93-1.34,4.11-3.04,5.44
		c-0.34-18.81-3.09-37.8-10.17-55.32c-4.84-11.91-11.95-23.19-22.01-31.35l-0.26,0.86c3.75,14.58,8.03,29.34,8.09,44.51
		c-0.29,2.64-0.02,7-3.11,7.92c-3.53-21.89-9.67-43.45-18.92-63.62c-8.08-17.08-18.88-34.07-35.49-43.92
		c0.92,15.15,1.49,30.35,1.04,45.54c-0.33,6.67-0.57,13.43-2.32,19.91c-0.52,1.15-0.48,3.06-2.07,3.28
		c-1.55-22.7-4.09-45.63-11.6-67.23c-3.58-9.87-8.19-19.8-15.98-27.08c-2.09-1.73-4.31-3.69-7.07-4.14
		c2.4,16.99,4.41,34.12,4.17,51.31c-0.37,6.44-0.26,13.48-3.93,19.08c0.33-16.87-4.72-34.49-16.64-46.82
		c-9.32-9.88-22.36-15.49-35.58-17.79c6.5,10.97,12.73,22.17,17.3,34.11c2.34,6.24,4.32,12.77,4.26,19.51
		c-4.02-10.78-10.16-21.22-19.8-27.86c-8.9-6.34-20.3-8.45-31.02-7.05c-9.39,1.03-18.3,4.41-26.85,8.27
		c0.08,0.24,0.24,0.73,0.32,0.97c11.81,2.48,23.69,5.39,34.58,10.72c3.93,2.12,8.28,4.55,10.09,8.87c0.12,1.15,1.29,3.4-0.48,3.77
		c-5.47-5.77-14.03-6.88-21.58-6.28c-12.99,1.18-25.1,6.72-36.37,12.98c-6.61,3.83-13.15,7.83-19.2,12.48
		c11.19-0.92,22.51-1.79,33.69-0.25c4,0.65,8.24,1.4,11.55,3.93c-17.63,5.02-32.26,17.67-42.39,32.65
		c-11.02,16.37-17.11,35.58-20.21,54.93c8.79-8.98,18.01-17.68,28.61-24.52c8.9-5.66,19.51-10.94,30.33-8.32
		c-0.1,0.22-0.3,0.67-0.4,0.9c-19.38,8.92-33.55,26.03-44.43,43.9c-11.29,18.87-19.15,39.62-24.92,60.79
		c6.64-2.86,13.05-6.23,19.75-8.95c-22.56,21.33-41.58,47.21-51.41,76.89c-3.19,10.1-5.73,20.58-5.64,31.22
		c3.38-3.82,7.76-6.54,12.11-9.13c9.63-5.52,19.6-10.52,29.85-14.79c-10.05,7.67-17.28,18.33-23.4,29.25
		c-10.81,19.73-18.26,41.1-24.61,62.63c-4.49,15.41-8.29,31.01-11.48,46.74c-0.48,2.41-1.11,4.82-1.09,7.31
		c2.73-6.17,7.7-11.05,12.79-15.33c-6.59,23.3-12.74,46.72-19.07,70.1c-10.25-1.05-20.48-2.28-30.73-3.36
		c-21.29-33.08-39.02-68.41-53.96-104.78C293.3,402.08,275.56,315.64,271,228.79c29.19-23.99,59.63-46.68,92.68-65.12
		c29.73-16.7,61.48-29.81,94.36-38.88c23.46-6.54,47.46-11.05,71.61-14.13c-2.84-3.49-6.71-5.9-10.74-7.78
		c9.86-6.29,20.9-10.86,32.32-13.43c10.19-2.15,21.64-2.2,30.69,3.59c2.72,1.55,4.73,4,7.16,5.92c-3.68-8.37-7.71-16.59-11.38-24.96
		c15.9-2.97,33.83-0.98,46.61,9.68c5.43,4.31,9.04,10.29,12.47,16.19c2.1-15.61-0.39-31.74-6.7-46.13
		C629.92,53.17,629.6,52.05,629.44,51.48 M740.65,154.62c2.76,3.44,6.1,6.37,8.92,9.76c9.4,10.79,17.77,23.31,19.86,37.76
		c0.63-2.35,1.03-4.75,1.45-7.14c1.35-0.04,1.84,1.49,2.65,2.32c10.07,13.79,15.97,30.23,19.01,46.93
		c4.53,25.02,2.73,50.82-2.4,75.6c-1.85,9.81-4.99,19.33-7.35,29c5.43,14.01,9.13,28.94,8.67,44.06
		c-0.16,12.9-4.09,26.27-13.01,35.87c-1.79-4.02-2.84-8.43-5.16-12.17c-4.74-3.97-9.74-7.61-14.54-11.5
		c-2.49-1.82-4.67-4.17-7.58-5.33c9.87,15.72,15.41,34.45,13.82,53.07c-1.3,17.92-9.11,34.87-20.12,48.87
		c-0.69,1.02-2.11,2.17-1.21,3.5c11.9,26.48,23.96,52.89,35.85,79.37c0.29,0.06,0.87,0.18,1.16,0.25
		c37.71-60.41,66.92-126.2,85.6-194.94c12.53-46.63,20.83-94.63,21.89-142.97c-0.27-2.27,0.81-5.31-1.37-6.87
		c-40.58-35.47-87.04-64.69-137.87-82.99C746.19,156.17,743.55,154.86,740.65,154.62 M474.07,158.8c-4.57,0.06-8.76,1.93-13.03,3.31
		c-60.32,21.12-117.11,51.74-169.18,88.69c-1.52,0.84-0.81,2.73-0.92,4.1c1.26,35.69,6.42,71.16,14.1,106
		c17.23,77.28,47.8,151.44,89.02,218.99c0.4,0.25,1.2,0.75,1.6,1c6.67-34.43,13.94-68.76,22.81-102.69
		c3.97-15.08,8.38-30.09,14.59-44.41c-5.64,5.46-10.53,11.72-15.1,18.11c-1.48,1.77-2.1,4.38-4.19,5.54
		c-0.27-4.77,0.36-9.52,0.7-14.27c2.34-24.89,7.35-49.74,16.98-72.88c6.2-14.42,14.26-28.39,25.83-39.18
		c0.75-0.74,1.43-1.56,2.01-2.45c-4.82,0.33-9.51,1.63-14.32,2.1c0.88-3.5,2.25-6.85,3.58-10.2c7.37-18.07,16.83-35.28,27.96-51.3
		c1.92-2.82,4.16-5.41,5.85-8.38c-4.53,0.29-9.05,0.74-13.57,1.14c1.11-10.36,3.26-20.6,5.71-30.72
		c4.72-18.62,10.95-37.22,21.66-53.31c5.91-9.19,14.05-16.97,23.84-21.9C504.67,156.6,489.37,157.81,474.07,158.8z"/>
</g>
<g id="_x23_ffffffff">
	<path class="st3" d="M542.45,59.14c1.76-0.38,3.57-0.56,5.37-0.71c0.43,8.4,0.96,16.81,1.44,25.21c-1.3,0.14-2.6,0.23-3.89,0.25
		c-0.16-5.7-0.8-11.38-0.88-17.09c-1.71,5.13-2.67,10.46-4.01,15.68c-1.23,0.17-2.46,0.33-3.68,0.5c-2.19-4.6-3.41-9.75-6.13-14.02
		c0.77,5.56,0.92,11.18,1.43,16.77c-1.27,0.19-2.53,0.38-3.78,0.57c-0.66-8.41-1.49-16.8-1.93-25.23c1.68-0.21,3.37-0.44,5.05-0.69
		c2.52,5.09,4,10.75,6.89,15.6C539.62,70.35,541.21,64.78,542.45,59.14z"/>
	<path class="st3" d="M689.94,60.41c1.35,0.19,2.71,0.38,4.08,0.57c-0.65,8.39-1.34,16.77-1.97,25.16
		c-1.32-0.19-2.64-0.38-3.96-0.56C688.66,77.19,689.35,68.8,689.94,60.41z"/>
	<path class="st3" d="M809.3,95.65c1.35,0.54,2.69,1.1,4.03,1.69c1.44,6.45,2.75,12.92,4.25,19.36c1.19-5.37,2.46-10.72,3.69-16.08
		c1.25,0.53,2.51,1.06,3.77,1.57c-1.56,8.14-3.74,16.15-5.55,24.23c-1.34-0.57-2.66-1.15-3.92-1.85
		c-1.16-6.39-2.74-12.69-4.06-19.04c-1.45,5.25-2.42,10.61-3.64,15.9c-1.26-0.48-2.51-0.96-3.76-1.42
		C805.66,111.86,807.59,103.77,809.3,95.65z"/>
	<path class="st3" d="M389.27,99.93c1.36-0.61,2.72-1.21,4.09-1.8c4.19,7.09,8.11,14.33,12.09,21.53c-1.27,0.53-2.54,1.06-3.8,1.61
		c-1.11-1.76-2.07-3.61-3.01-5.47c-2.16,0.72-4.24,1.64-6.32,2.57c-0.11,2.35,0.1,4.74-0.46,7.04c-0.9,0.37-2.7,1.1-3.6,1.47
		C388.54,117.89,388.94,108.91,389.27,99.93 M392.64,104.79c-0.16,2.98-0.12,5.97-0.22,8.95c1.38-0.6,2.76-1.19,4.15-1.77
		C395.31,109.55,394.06,107.12,392.64,104.79z"/>
	<path class="st3" d="M694.3,127.22c1.45,0.92,1.85,3.08,2.92,4.46c19.11,31.54,30.55,68.23,29.66,105.29
		c-2.19-16.3-5.51-32.51-10.84-48.1c-4.83-13.33-10.83-27.12-21.99-36.39C694.96,144.14,695.7,135.47,694.3,127.22z"/>
	<path class="st3" d="M250.42,183.26c1.91-5.09,7.45-9.39,13.06-7.62c-0.33,1.58-0.68,3.16-1.06,4.73
		c-5.39-1.53-9.82,4.46-8.98,9.42c0.38,3.32,2.56,7.83,6.55,7.32c3.38-0.86,7.43-4.76,5.14-8.36c-1.18,0.7-2.36,1.43-3.54,2.14
		c-0.48-1.26-0.96-2.53-1.45-3.79c2.24-1.69,4.51-3.34,6.77-5c1.18,2.97,2.34,5.95,3.53,8.91c-1.61,6.1-7.35,12.97-14.33,10.87
		C249.35,198.84,247.82,189.6,250.42,183.26z"/>
	<path class="st3" d="M940.41,190.8c-0.55-5.82,2.18-13.45,8.72-14.39c6.14-0.29,10.71,5.49,11.79,11.06
		c-0.87,0.3-2.61,0.9-3.49,1.21c-0.96-3.42-3.45-7.22-7.4-7.17c-3.44,0.62-5.06,4.32-5.45,7.43c-0.75,4.76,3.04,10,8.07,9.86
		c0.36-0.92,0.73-1.83,1.12-2.74c-1.18-0.84-2.3-1.75-3.33-2.73c0.56-1.22,1.11-2.45,1.64-3.68c2.25,1.7,4.49,3.4,6.71,5.15
		c-1.23,2.96-2.44,5.93-3.73,8.86C947.43,205.25,940.77,198.02,940.41,190.8z"/>
	<path class="st3" d="M746,225.1c2.08-4.5,2.48-9.44,3.49-14.23c-0.18,3.41,0.75,6.74,1.09,10.13c1.58,12.86,2.36,25.96,0.54,38.84
		c-1.09,6.54-2.69,13.39-7.02,18.6C750.16,261.37,749.82,242.63,746,225.1z"/>
	<path class="st3" d="M769.87,255.98c0.12-0.76,0.76-0.75,1.3-0.39l-0.98,0.83c1.89,19.42,1.86,39.14-1.35,58.42
		c-1.66,9.36-4.15,18.68-8.63,27.1c-0.4-0.51-1.2-1.54-1.6-2.05c7.72-24.03,10.08-49.59,7.95-74.69
		C768.21,262.34,769.32,259.23,769.87,255.98z"/>
	<path class="st3" d="M660.45,303.38c1.66-1.83,3.45,0.74,3.77,2.34c1.14,4.46,1.47,10.04-1.63,13.79c-2.21,0.88-3.18-1.91-3.6-3.54
		C658.2,311.83,657.96,307,660.45,303.38z"/>
	<path class="st3" d="M756.75,352.01c0.55-0.3,1.65-0.89,2.2-1.19c8.67,7.7,15.04,18.31,16.43,29.94
		c0.81,5.63,0.16,11.34-0.94,16.88c-0.15,0.01-0.45,0.04-0.6,0.05C775.55,381.05,770.41,362.55,756.75,352.01z"/>
	<path class="st3" d="M576.71,536.46c6.7-10,14.19-20.05,24.72-26.29c0.78,1.22-0.6,2.06-1.18,2.92
		c-16.61,17.18-26.95,39.61-32.28,62.71c-0.66,3.15-2.03,6.91,0.35,9.69c5.12,6.75,12.37,11.35,18.95,16.52
		c-3.2-0.37-6.57,0.38-9.66-0.62c-9.02-4.73-18.05-10.01-24.92-17.67C559.17,567.26,567.14,551.35,576.71,536.46z"/>
	<path class="st3" d="M705.35,519.19c1.47-0.74,2.91-1.56,4.3-2.44c4.98,5.36,8.05,12.13,10.65,18.89
		c4.23,11.34,7.11,23.13,9.37,35.01c-3.2-0.52-6.39-0.99-9.59-1.42c-2.43-17.07-8.8-33.24-14.59-49.37L705.35,519.19z"/>
	<path class="st3" d="M624.68,573.49c-0.04-0.31-0.11-0.92-0.14-1.23c17.3,6.3,33.5,16.19,46.27,29.54c-3.85,0.07-7.7,0.2-11.54,0.2
		C649.36,590.71,637.01,581.9,624.68,573.49z"/>
	<path class="st3" d="M297.26,611.58c13.95,1.82,27.89,3.72,41.87,5.29c14.36,19.46,28.94,38.76,43.54,58.05
		c-0.11-14.72,0.04-29.45-0.26-44.16c-4.12-3.49-8.89-6.43-12.46-10.43c24.13,2.49,48.29,4.57,72.46,6.62
		c-4.45,2.75-8.94,5.43-13.4,8.16c0.15,18.29,0.14,36.58,0.25,54.87c-2.74-0.54-5.52-0.83-8.31-0.81
		c-37.06-1.83-74.05-4.96-111.08-7.36c-0.27-19.67,0.16-39.41-0.44-59.04C305.43,618.98,301.23,615.4,297.26,611.58z"/>
	<path class="st3" d="M875.23,620.86c23.64-2.61,47.27-5.38,70.86-8.43c-3.78,4.08-8.46,7.26-12.57,11
		c-0.9,0.92-1.05,2.28-1.53,3.43c-6.59,19.06-13.33,38.08-20.12,57.08c-25.5,1.88-51.04,3.29-76.54,5.2l-0.18,0.02
		c-6.41-17.72-12.88-35.41-19.5-53.04c-4.6-3.22-9.68-5.7-14.4-8.73c23.61-1.85,47.19-3.95,70.77-6.19
		c-4.21,3.49-8.54,6.83-12.78,10.29c4.93,12.83,9.4,25.83,14.41,38.62c5.02-13.83,9.98-27.68,14.91-41.54
		C884.13,625.97,879.64,623.47,875.23,620.86z"/>
	<path class="st3" d="M730.43,631.66c22.61-0.94,45.18-2.58,67.77-3.72c-4.41,3.32-9.11,6.26-13.4,9.73
		c0.08,17.77-0.06,35.55-0.13,53.32c-5.83,1.32-11.84,0.6-17.74,1.19c-8.75-0.2-17.43,1.05-26.19,0.7
		c-0.05-17.69,0.08-35.37,0.14-53.06c-3.9-2.55-7.75-5.18-11.71-7.63C729.48,632.05,730.12,631.79,730.43,631.66z"/>
	<path class="st3" d="M601.88,633.9c39.75,0.15,79.51-0.52,119.24-1.77c-0.07,8.46,0.16,16.92-0.11,25.38
		c-4.98-1.83-9.84-4.06-14.9-5.6c-7.25,0.05-14.49,0.38-21.73,0.51c0,13.86,0.03,27.73-0.12,41.59c-5.41,0.14-10.82,0.1-16.21,0.64
		c-9.47,0.35-18.96,0.15-28.43,0.32c0-13.98-0.01-27.96,0.01-41.94c-6.55-0.04-13.09,0.01-19.63-0.03
		c-1.39,0.01-2.84-0.14-4.13,0.48c-4.66,1.86-9.3,3.77-13.98,5.58C601.86,650.67,601.88,642.28,601.88,633.9z"/>
</g>
<g id="_x23_ff0000ff">
	<path class="st4" d="M611.89,95.8c8.64,8.11,14.55,18.94,18.28,30.13c4.31,12.59,4.52,26,5.09,39.13c3.46,2.08,2.98,6.42,3.74,9.87
		c5.14-3.77,8.17-9.63,10.74-15.3c6.12-14.73,6.71-31.06,5.55-46.76c-0.23-4.17-1.53-8.33-0.69-12.5
		c7.06,19.53,10.56,40.13,13.15,60.66c1.91,15.64,3.07,31.36,3.67,47.1c0.95-0.7,1.68-1.63,2.31-2.62
		c10.58-15.88,17.63-34.12,20.32-53.03c11.16,9.27,17.16,23.06,21.99,36.39c5.33,15.59,8.65,31.8,10.84,48.1
		c7.92-0.27,15.44-4.81,19.12-11.87c3.82,17.53,4.16,36.27-1.9,53.34l-0.42,1.11c8.92-1.98,17.8-6.48,22.88-14.35
		c2.13,25.1-0.23,50.66-7.95,74.69c-7.05-9.93-9.45-22.21-11.49-33.98c-4.26-19.06-16.36-35.58-31.25-47.86
		c-8.08-6.58-16.83-12.48-26.4-16.64c10.23,10.92,20.7,22,27.58,35.45c2.74,5.5,5.16,11.46,4.95,17.72
		c-5.98-12.78-16.76-22.36-27.2-31.48c-13.92-11.78-28.83-22.33-44.13-32.22c-1.75,0.74-4.17,1.91-5.55-0.07
		c-2.15-2.75-3.77-7.77-8.18-6.8c-31.6,5.24-63.1,14.3-90.59,31.16c-17.39,10.43-32.37,24.19-47.48,37.57
		c-0.93,0.86-1.94,1.65-3.05,2.27c0.62-1.42,1.13-2.94,2.19-4.1c2.68-2.73,4.59-6.04,6.82-9.12c13.11-18.62,26.97-36.85,43.13-52.95
		c8.19-7.58,16.82-15.66,27.98-18.38c-3.75-10.63-12.31-20.53-23.74-22.84c-10.2-1.89-20.38,2.18-28.86,7.58
		c-5.3,3.5-10.67,7.12-14.82,12.01l-1.33,0.73c2.68-7.8,7.8-14.49,13.26-20.57c12-13.18,28.85-22.38,46.89-23.03
		c0.58-0.42,1.16-0.84,1.75-1.27c3.65,1.91,5.96,5.46,8.97,8.16c-0.38-11.63-6.41-24.4-17.98-28.52c-4.09-1.81-8.74-0.96-12.87-2.53
		c5.38-4,12.49-3.94,18.84-3.15c7.15,0.97,14.01,3.29,20.76,5.77c4.04,2.3,7.44,5.5,11.11,8.31c-0.84-14.95-7.22-30.59-20.24-38.91
		c-3.67-2.89-8.52-3.52-12.25-6.29c8.22-0.19,16.82,1.91,22.94,7.67c11.81,10.69,16.1,26.68,24.51,39.7c1.4,2.66,1.52,5.7,1.62,8.64
		c5.73-12.79,6.9-27.33,5.35-41.14c-0.95-4.82-1.24-10.09-4.18-14.21C614.37,103,613.28,99.35,611.89,95.8z"/>
	<path class="st4" d="M607.72,294.52c14.55-6.27,30.4-9.52,46.25-9.38c6.01,0.16,12.1,0.57,17.9,2.32c0.9,0.84,1.78,1.72,2.66,2.6
		c-0.49,1.58-1.64,3.24-0.86,4.93c2.2,5.4,5.98,10.03,9.99,14.2c5.2,5.46,11.77,9.56,16.29,15.67c1.85,3.49,2.44,7.49,3.82,11.18
		c1.62,5.52,6.57,9.25,8.28,14.76c-0.19,0.4-0.56,1.22-0.74,1.62c-5.34-3.58-11.91-1.79-17.45,0.31c-4.38,1.62-8.24,4.27-12.1,6.84
		c-16.39,3.05-32.44,10.95-42.83,24.29c-1.88,2.6-3.97,5.17-5.07,8.23c5.44-3.1,10.86-6.63,17.07-7.95
		c-15.7,13.1-26.38,31.85-30.56,51.79c-2.88-5.4-0.28-11.68,0.6-17.29c-3.67,6.1-5.61,13.08-7.21,19.97
		c-1.61-1.73-3.65-3.25-4.55-5.5c-3.38-8.82-9.3-16.66-11.04-26.11c8.32,1.92,16.84,5.53,25.49,3.46
		c-1.06-11.59-2.24-23.28-1.13-34.92c0.36-3.36,0.94-6.73,2.47-9.77c4.92,3.44,6.91,9.61,7,15.39
		c11.35-12.24,17.28-29.79,14.34-46.37c-0.66-4.6-2.54-8.88-3.74-13.34c7.27,4.75,15.96,8.58,24.83,6.93
		c4.59,0.29,9.21,0.56,13.82,0.19c-2.15-0.37-4.31-0.72-6.43-1.13c4.1-1.6,8.81-1.02,13.19-1.48c3.39,1,6.53,2.72,9.93,3.75
		c-5.11-4.12-10.45-8.08-14.5-13.3c-3.83-4.56-6.64-9.87-10.43-14.44c-13.22-13.41-34.61-15.72-51.79-9.56
		c1.53,0.18,3.07,0.35,4.61,0.51c4.03,1.31,8.2,2.25,12,4.17c-0.01,5.94,0.06,11.88,0.92,17.77c-4.84-6.38-10.62-12.4-18.13-15.56
		c-3.48-1.54-7.26-2.9-11.1-2.05c-1.51-0.1-2.93-0.78-4.42-0.97C605.4,295.12,606.82,295.04,607.72,294.52z"/>
	<path class="st4" d="M658.2,373.21c10.46-6.19,22.59-9.54,34.75-9.56c4.29,0.54,8.36,2.72,11.3,5.9c0.58,0.81,1.86,1.48,1.51,2.67
		c-11,2.2-20.54,9.51-26.4,18.97c-3.59,5.25-5.73,11.28-7.96,17.18c-0.67,1.01-1.27,2.07-1.79,3.17c-5,14.33-5.93,29.6-7.1,44.59
		c-3.23-13.3-1.03-27.01,0.19-40.4c-5.59,17.36-7.4,36.55-1.76,54.13c1.15,4.3,3.05,8.5,3.08,13.02c-0.04,4.14-4.36,7.35-8.35,6.54
		c-6.33-1.12-11.26-5.61-16.01-9.61c-0.29-0.25-0.87-0.74-1.16-0.99c-0.58,9.35,1.03,19.86,8.21,26.53
		c-1.64,1.35-3.43-0.51-4.85-1.27c-12-8.08-18.6-21.98-21.22-35.85c-0.7-4.57-2.26-9.26-0.97-13.87c0.99,4.77,2.14,10.23,5.9,13.58
		c-0.12-19.44,3.93-39.17,13.14-56.4c8.31-15.52,22.16-28.47,39.08-33.92c2.81-1.93,6.2-2.44,9.47-3.13
		c-7.92-2.06-16.34-2.57-24.37-0.84C661.33,373.83,659.42,374.69,658.2,373.21z"/>
	<path class="st4" d="M722.04,395.51c1.88,1.79,3.62,3.77,5.1,5.92c0.57,3.73,2.53,7,3.85,10.48c5.82,14.59,7.5,31.29,2.39,46.34
		c-2.09,6.76-6.13,12.6-9.5,18.73c-2.69,3.3-5.98,6.13-9.37,8.7c-0.16,0.09-0.49,0.27-0.65,0.36c3.93,2.14,8.36,1.5,12.35-0.1
		c-4.22,8.6-10.58,16.29-18.48,21.73c-3.23,1.97-6.75,3.96-10.62,4.04c-2.31,0-2.31-2.83-3.1-4.38c0.74-1.38,1.76-2.75,1.75-4.39
		c0.01-6.7-3.22-13.28-1.63-19.98c1.47-5.38,7.63-6.51,11.77-9.11c-1.42,5.78-4.96,10.69-8.78,15.14
		c13.63-7.39,23.03-21.26,26.93-36.08C729.01,434.07,726.91,414.13,722.04,395.51z"/>
</g>
<g id="_x23_bc0606ff">
	<path class="st5" d="M653.18,97.72c0.49,0.78,0.97,1.55,1.46,2.33l-0.04,0.32c-0.84,4.17,0.46,8.33,0.69,12.5
		c1.16,15.7,0.57,32.03-5.55,46.76c-2.57,5.67-5.6,11.53-10.74,15.3c-0.76-3.45-0.28-7.79-3.74-9.87c4.77,0.43,8.5-3.34,10.68-7.16
		c3.97-7.05,5.45-15.17,6.49-23.1C653.83,122.5,653.97,110.07,653.18,97.72z"/>
	<path class="st5" d="M562.8,106.12c0.65-0.05,1.97-0.16,2.63-0.21c3.73,2.77,8.58,3.4,12.25,6.29
		c13.02,8.32,19.4,23.96,20.24,38.91c-3.67-2.81-7.07-6.01-11.11-8.31c4.32-4.17,4.24-11.01,1.3-15.94
		C582.52,117.05,572.11,111.72,562.8,106.12z"/>
	<path class="st5" d="M615.67,106.57c2.94,4.12,3.23,9.39,4.18,14.21c1.55,13.81,0.38,28.35-5.35,41.14
		c-0.1-2.94-0.22-5.98-1.62-8.64c0.31-2.41,1.87-4.43,2.57-6.74c4.2-12.11,3.42-25.37,0.42-37.66
		C615.82,108.3,615.72,107.15,615.67,106.57z"/>
	<path class="st5" d="M546.67,139.99l0.54,0.19c4.13,1.57,8.78,0.72,12.87,2.53c11.57,4.12,17.6,16.89,17.98,28.52
		c-3.01-2.7-5.32-6.25-8.97-8.16c-0.59,0.43-1.17,0.85-1.75,1.27c-1.12-9.84-7.75-19.56-17.59-22.28
		C548.66,141.54,546.41,141.84,546.67,139.99z"/>
	<path class="st5" d="M523.34,195.2c8.48-5.4,18.66-9.47,28.86-7.58c11.43,2.31,19.99,12.21,23.74,22.84
		c-11.16,2.72-19.79,10.8-27.98,18.38c-16.16,16.1-30.02,34.33-43.13,52.95c-2.23,3.08-4.14,6.39-6.82,9.12
		c0.14-0.6,0.42-1.79,0.56-2.38c7.93-18.11,17.39-35.74,30.11-50.96c9.68-11.53,21.07-21.81,34.22-29.22
		c-1.76-4.21-6.85-5.81-10.91-6.97c-14.72-3.13-29.46,1.72-43.47,5.83C512.67,202.32,518.04,198.7,523.34,195.2z"/>
	<path class="st5" d="M671.87,287.46c3.2,0.53,6.84,1.54,8.76,4.4c-2.36,1.42-4.14,4.13-2.2,6.73c6.28,10.4,16.71,17.27,24.94,25.97
		c1.82,5,2.25,10.5,4.73,15.29c0.9,1.67,3,2.3,3.78,4.08c1.43,3.03,3.05,6.2,3.08,9.62c-1.24-0.32-2.46-0.7-3.65-1.13
		c0.18-0.4,0.55-1.22,0.74-1.62c-1.71-5.51-6.66-9.24-8.28-14.76c-1.38-3.69-1.97-7.69-3.82-11.18
		c-4.52-6.11-11.09-10.21-16.29-15.67c-4.01-4.17-7.79-8.8-9.99-14.2c-0.78-1.69,0.37-3.35,0.86-4.93
		C673.65,289.18,672.77,288.3,671.87,287.46z"/>
	<path class="st5" d="M625.83,292.92c5.05-0.1,10.09,0.39,15.09,1.08c0.28,5.95,0.47,11.93,1.55,17.79
		c0.86,5.05,4.54,9.22,8.8,11.84c4.88,3.01,10.74,3.27,16.16,4.75c-8.87,1.65-17.56-2.18-24.83-6.93c1.2,4.46,3.08,8.74,3.74,13.34
		c2.94,16.58-2.99,34.13-14.34,46.37c-0.09-5.78-2.08-11.95-7-15.39c-1.53,3.04-2.11,6.41-2.47,9.77
		c-1.11,11.64,0.07,23.33,1.13,34.92c-8.65,2.07-17.17-1.54-25.49-3.46c1.74,9.45,7.66,17.29,11.04,26.11
		c-1.55-0.53-2.32-2.08-3.29-3.27c-8.74-12.06-13.81-26.55-15.84-41.23c5.81,11.23,17.85,17.98,30.06,19.77
		c-1.62-8.4-2.29-16.97-2.41-25.52c0.05-9.59,0.89-19.55,5.4-28.19c4.4,1.9,8.31,5.24,10.52,9.54c1.34,2.41,1.2,5.24,1.79,7.88
		c5.47-13.61,9.43-28.62,6.36-43.29c-2.01-10.4-8.75-19.6-17.82-24.98c-4.47-2.92-9.61-4.45-14.46-6.57
		c3.84-0.85,7.62,0.51,11.1,2.05c7.51,3.16,13.29,9.18,18.13,15.56c-0.86-5.89-0.93-11.83-0.92-17.77
		C634.03,295.17,629.86,294.23,625.83,292.92z"/>
	<path class="st5" d="M652.18,377.65c1.83-1.71,3.82-3.24,6.02-4.44c1.22,1.48,3.13,0.62,4.69,0.44c8.03-1.73,16.45-1.22,24.37,0.84
		c-3.27,0.69-6.66,1.2-9.47,3.13c-0.18-0.35-0.53-1.04-0.71-1.38C668.9,373.82,660.05,374.41,652.18,377.65z"/>
	<path class="st5" d="M727.14,401.43c3.36,3.29,5.42,7.64,7.38,11.86c6.92,15.76,6.03,34.15-0.15,49.99
		c-2.7,5.05-5.93,10.16-10.49,13.7c3.37-6.13,7.41-11.97,9.5-18.73c5.11-15.05,3.43-31.75-2.39-46.34
		C729.67,408.43,727.71,405.16,727.14,401.43z"/>
	<path class="st5" d="M669.61,411.54c0.52-1.1,1.12-2.16,1.79-3.17c-0.05,2.94-1.28,5.68-1.74,8.57
		c-4.14,20.39-3.27,41.4-1.12,61.97c0.35,4.79-0.09,10.33-3.82,13.8c-3.56,3.17-8.9,2.4-12.79,0.28c-5.35-2.9-9.78-7.63-12.27-13.18
		c4.75,4,9.68,8.49,16.01,9.61c3.99,0.81,8.31-2.4,8.35-6.54c-0.03-4.52-1.93-8.72-3.08-13.02c-5.64-17.58-3.83-36.77,1.76-54.13
		c-1.22,13.39-3.42,27.1-0.19,40.4C663.68,441.14,664.61,425.87,669.61,411.54z"/>
	<path class="st5" d="M618.46,446.94c0.53,2.44,1.32,4.9,1.21,7.42c-1.29,4.61,0.27,9.3,0.97,13.87
		c2.62,13.87,9.22,27.77,21.22,35.85c1.42,0.76,3.21,2.62,4.85,1.27c4.42,4.27,10.35,6.02,16.23,7.15
		c-13.45-0.43-27.44-5.84-35.27-17.26C617.7,481.3,617.69,463.33,618.46,446.94z"/>
	<path class="st5" d="M714.51,485.68c9.85-1.43,18.32-8.51,23.48-16.82c-4.46,11.88-10.5,23.44-19.05,32.92
		c-5.08,5.54-11.74,9.29-18.27,12.85c-2.04,0.86-5.27,2.81-6.85,0.3c-0.96-2.53-1.95-5.49-0.69-8.07l0.88,0.47
		c0.79,1.55,0.79,4.38,3.1,4.38c3.87-0.08,7.39-2.07,10.62-4.04c7.9-5.44,14.26-13.13,18.48-21.73c-3.99,1.6-8.42,2.24-12.35,0.1
		C714.02,485.95,714.35,485.77,714.51,485.68z"/>
</g>
<g id="_x23_f7ae05ff">
	<path class="st6" d="M740.65,154.62c2.9,0.24,5.54,1.55,8.27,2.45c50.83,18.3,97.29,47.52,137.87,82.99
		c2.18,1.56,1.1,4.6,1.37,6.87c-1.06,48.34-9.36,96.34-21.89,142.97c-18.68,68.74-47.89,134.53-85.6,194.94
		c-0.29-0.07-0.87-0.19-1.16-0.25c-11.89-26.48-23.95-52.89-35.85-79.37c-0.9-1.33,0.52-2.48,1.21-3.5
		c11.01-14,18.82-30.95,20.12-48.87c1.59-18.62-3.95-37.35-13.82-53.07c2.91,1.16,5.09,3.51,7.58,5.33c4.8,3.89,9.8,7.53,14.54,11.5
		c2.32,3.74,3.37,8.15,5.16,12.17c8.92-9.6,12.85-22.97,13.01-35.87c0.46-15.12-3.24-30.05-8.67-44.06c2.36-9.67,5.5-19.19,7.35-29
		c5.13-24.78,6.93-50.58,2.4-75.6c-3.04-16.7-8.94-33.14-19.01-46.93c-0.81-0.83-1.3-2.36-2.65-2.32c-0.42,2.39-0.82,4.79-1.45,7.14
		c-2.09-14.45-10.46-26.97-19.86-37.76C746.75,160.99,743.41,158.06,740.65,154.62z"/>
	<path class="st6" d="M474.07,158.8c15.3-0.99,30.6-2.2,45.93-2.71c-9.79,4.93-17.93,12.71-23.84,21.9
		c-10.71,16.09-16.94,34.69-21.66,53.31c-2.45,10.12-4.6,20.36-5.71,30.72c4.52-0.4,9.04-0.85,13.57-1.14
		c-1.69,2.97-3.93,5.56-5.85,8.38c-11.13,16.02-20.59,33.23-27.96,51.3c-1.33,3.35-2.7,6.7-3.58,10.2c4.81-0.47,9.5-1.77,14.32-2.1
		c-0.58,0.89-1.26,1.71-2.01,2.45c-11.57,10.79-19.63,24.76-25.83,39.18c-9.63,23.14-14.64,47.99-16.98,72.88
		c-0.34,4.75-0.97,9.5-0.7,14.27c2.09-1.16,2.71-3.77,4.19-5.54c4.57-6.39,9.46-12.65,15.1-18.11
		c-6.21,14.32-10.62,29.33-14.59,44.41c-8.87,33.93-16.14,68.26-22.81,102.69c-0.4-0.25-1.2-0.75-1.6-1
		c-41.22-67.55-71.79-141.71-89.02-218.99c-7.68-34.84-12.84-70.31-14.1-106c0.11-1.37-0.6-3.26,0.92-4.1
		c52.07-36.95,108.86-67.57,169.18-88.69C465.31,160.73,469.5,158.86,474.07,158.8z"/>
	<path class="st6" d="M466.29,640.09c4.68-3.08,10.41-3.8,15.83-4.56c16.22-2.12,32.53-0.14,48.78,0.24
		c12.17,0.21,24.42,1.32,36.17,4.69c3.46,1.1,7.1,2.17,9.92,4.58c0.09,16.67-0.16,33.35,0.15,50.02
		c-35.37-1.22-70.74-2.48-106.11-3.8c-3.86,0.1-7.71-0.22-11.54-0.61c2.24-2.92,4.86-5.56,6.86-8.65
		C466.52,668.03,466.09,654.06,466.29,640.09 M503.5,646.13c-0.1,13.15,0.21,26.3,0.11,39.46c12.5,0.57,25,0.79,37.5,1.15
		c0-13.09,0.12-26.19-0.28-39.26C528.38,647.34,515.94,646.66,503.5,646.13z"/>
</g>
<g id="_x23_c4c4c4ff">
	<path class="st7" d="M624.58,244.3c5.76-1.24,11.62-2.43,17.54-2.25c7.72,0.98,14.87,4.42,21.64,8.07
		c13.11,7.35,25.02,16.8,35.3,27.74c4.19,4.62,8.32,9.39,11.43,14.82c-2.96-1.25-4.84-3.94-7.07-6.12
		c-11.31-11.66-24-22.24-38.48-29.73c-6.78-3.36-14.24-6.25-21.94-5.62c-25.42,2.17-49.51,12.79-70.1,27.55
		c-24.04,17.38-44.08,39.78-60.74,64.21c-2.02,2.88-4.07,5.75-5.54,8.96c8.6,0.14,17.33,1.72,24.88,6.01
		c-12.91,1.81-25.59,5.06-37.78,9.69c-3.16,1.28-6.51,2-9.81,2.82c9.14-18.42,19.84-36.1,31.9-52.76
		c17.05-19.72,36.55-37.49,58.58-51.51C589.88,256.42,606.7,248.49,624.58,244.3z"/>
	<path class="st7" d="M512.79,388.76c4.74-7.84,9.19-15.92,14.75-23.2c-0.36,3.37-2.16,6.29-3.61,9.28
		c-18.56,37.61-36.35,75.68-51.16,114.94c-0.56,1.28-1.41,2.39-2.14,3.57c2.47-14.02,6.97-27.62,11.79-41
		C490.62,430.3,500.99,409.09,512.79,388.76z"/>
	<path class="st7" d="M537.55,432.6c3.3-19.67,9.69-38.7,17.05-57.19c0.17,1.56,0.21,3.16-0.19,4.71
		c-2.77,11.61-5.86,23.23-6.94,35.16c-0.02,1.68-0.52,3.8,0.87,5.1c5.72,2.63,12.27,4.77,16.18,10.01c0.11,0.45,0.33,1.36,0.44,1.82
		C556.62,427.55,545.33,425.98,537.55,432.6z"/>
	<path class="st7" d="M568.45,460.42c0.45-0.19,1.35-0.56,1.8-0.75c-0.43,1.21-1.09,2.33-2.01,3.25c-2.68,1.68-4.12,4.63-6.13,6.98
		c-15.03,20.01-29.36,40.92-38.82,64.22c-0.06-5.63,1.92-10.98,3.69-16.24C535.21,495.39,550.25,475.76,568.45,460.42z"/>
	<path class="st7" d="M481.38,495.18c5.12-3.53,11.87-4.67,17.7-2.25c-1.05,2.74-3.27,4.77-4.77,7.25
		c-7.02,11.14-11.19,23.75-14.77,36.34c-5.57,19.46-8.7,39.49-11.66,59.48c-0.39-0.08-1.18-0.23-1.58-0.31
		c-0.52-18.93,3.82-37.55,7.96-55.89c3.27-13.72,6.98-27.33,11.12-40.8c-5.28,1.43-9.82,4.55-14.43,7.36
		C472.68,501.38,477.2,498.06,481.38,495.18z"/>
	<path class="st7" d="M548.42,528c6.01-2.33,11.97-4.9,18.26-6.39c-13.04,12.69-25.28,26.21-36.31,40.68
		c0.2-2.88,1.82-5.29,3.17-7.73c4.1-7.7,8.81-15.06,13.8-22.21c0.8-1.29,2.02-2.66,1.1-4.23L548.42,528z"/>
</g>
<g id="_x23_e0e0e0ff">
	<path class="st8" d="M572.9,278.76c20.59-14.76,44.68-25.38,70.1-27.55c7.7-0.63,15.16,2.26,21.94,5.62
		c14.48,7.49,27.17,18.07,38.48,29.73c2.23,2.18,4.11,4.87,7.07,6.12c2.57,3.86,4.59,8.05,6.38,12.32
		c7.88,17.12,21.47,30.82,36.17,42.24c-2.48,0.71-4.94,1.45-7.42,2.15c-5.15,2.4-7.56-5.43-12.64-4.74
		c-1.43-0.15-2.11,1.35-3.07,2.1c-1.58,1.83-3.85,2.78-6.09,3.53c-1.84-5.5-1.96-12.55-7.25-16.07c-3.3-3.68-2.42-9.54-5.79-13.19
		c-7.63-6.64-15.51-13.17-21.73-21.2c-0.74-1.26-2.75-3.49-0.86-4.61c2.87-0.1,6.12,0.47,8.57-1.45c2.34-1.53,2.7-4.82,1.48-7.17
		c-1.7-3.49-4.98-5.85-8.22-7.79c-4.95-2.81-10.33-4.9-15.95-5.85c-18.91-3.91-39.11-2.8-56.98,4.83
		c-14.47,6.17-27.53,15.99-36.92,28.67c11.93-1.05,24.55-0.65,35.44,4.87c9.84,4.86,17.2,14.8,18.23,25.81
		c-3.13-8.36-8.3-16.3-16.03-21.04c-5.16-3.28-11.28-4.7-17.35-4.84c3.63,1.58,7.72,2.54,10.47,5.61
		c4.72,4.75,4.58,12.29,2.29,18.17c-7.24,18.81-10.64,39.91-5.26,59.65c-8.26-2.13-13.48-9.58-17.38-16.63
		c-1.97-3.58-3.52-7.36-4.98-11.15c-6.64,9.51-8.88,21.5-7.73,32.91c1.51,15.89,7.94,30.83,15.62,44.65
		c5.55,9.8,11.88,19.16,18.91,27.96c0.8,1.1,1.93,2.06,2.24,3.44c2.11,8.93,5.46,17.58,9.87,25.63
		c8.03,13.81,23.8,21.99,39.55,22.51c8.04,0.17,17.29-0.86,23.03-7.14c1.57,1.81,2.99,3.94,5.39,4.76
		c4.36,1.51,8.96-0.23,12.85-2.23l0.16,0.47c5.79,16.13,12.16,32.3,14.59,49.37c-34.84-3.95-70.08-3.13-104.98-0.4
		c3.12,1.07,6.27,2.08,9.39,3.16l0.05,0.27c0.03,0.31,0.1,0.92,0.14,1.23c12.33,8.41,24.68,17.22,34.59,28.51
		c-24,0.47-48,0.31-72,0.01c-6.58-5.17-13.83-9.77-18.95-16.52c-2.38-2.78-1.01-6.54-0.35-9.69c5.33-23.1,15.67-45.53,32.28-62.71
		c0.58-0.86,1.96-1.7,1.18-2.92c1.65-0.88,3.4-1.54,5.19-2.1c-10.57-0.61-21.18-0.35-31.73,0.26c-7.4,0.59-14.97,1.13-21.92,3.92
		c3.21-13.86,6.57-27.73,11.31-41.17c1.17-2.78,1.93-5.85,3.96-8.16c0.92-0.92,1.58-2.04,2.01-3.25c-0.45,0.19-1.35,0.56-1.8,0.75
		c-18.2,15.34-33.24,34.97-41.47,57.46c-1.77,5.26-3.75,10.61-3.69,16.24c-0.57,1.98-1.28,3.92-1.73,5.94
		c8.9-4.1,17.81-8.22,26.88-11.94c0.92,1.57-0.3,2.94-1.1,4.23c-4.99,7.15-9.7,14.51-13.8,22.21c-1.35,2.44-2.97,4.85-3.17,7.73
		c-6.67,9.85-13.36,19.98-16.82,31.48c5.66,2.08,11.32,4.25,17.18,5.72c-2.9,0.38-5.83,0-8.74-0.11
		c-18.05-0.93-36.08-2.15-54.11-3.38c2.96-19.99,6.09-40.02,11.66-59.48c3.58-12.59,7.75-25.2,14.77-36.34
		c1.5-2.48,3.72-4.51,4.77-7.25c-5.83-2.42-12.58-1.28-17.7,2.25c-4.18,2.88-8.7,6.2-10.43,11.18c-0.94,1.11-2.16,1.95-3.23,2.94
		c0.74-5.35,1.51-10.73,2.91-15.95c0.73-1.18,1.58-2.29,2.14-3.57c14.81-39.26,32.6-77.33,51.16-114.94
		c1.45-2.99,3.25-5.91,3.61-9.28c1.25-2.57,3.2-4.77,4.68-7.23l-0.72-0.39c-7.55-4.29-16.28-5.87-24.88-6.01
		c1.47-3.21,3.52-6.08,5.54-8.96C528.82,318.54,548.86,296.14,572.9,278.76 M554.51,372.33c-9.11,16.44-17.66,33.23-24.63,50.7
		c-3.85,9.99-7.52,20.26-8.3,31.02c12.73-10.38,27.24-21.24,44.42-21.33l-1.04-0.51c-0.11-0.46-0.33-1.37-0.44-1.82
		c-3.91-5.24-10.46-7.38-16.18-10.01c-1.39-1.3-0.89-3.42-0.87-5.1c1.08-11.93,4.17-23.55,6.94-35.16c0.4-1.55,0.36-3.15,0.19-4.71
		c1.14-2.9,2.36-5.77,3.37-8.72C556.47,368.34,555.64,370.44,554.51,372.33z"/>
	<path class="st8" d="M309.87,681.81c37.03,2.4,74.02,5.53,111.08,7.36c2.79-0.02,5.57,0.27,8.31,0.81
		c0.1,32.18,0.27,64.35,0.35,96.53c-1.13,0.11-2.25,0.23-3.37,0.37c-24-31.34-47.63-62.97-70.69-95.01
		c-0.34,23.6,0.01,47.27,0.18,70.89c4.13,3.03,8.44,5.87,12.31,9.22c-23.41-0.29-46.82-1-70.23-1.35c3.91-3.2,8.04-6.13,12.16-9.05
		C310.3,735,309.79,708.4,309.87,681.81z"/>
	<path class="st8" d="M835.33,689.14c25.5-1.91,51.04-3.32,76.54-5.2c-12.32,34.42-24.9,68.74-37.75,102.95
		c-1.35-0.01-2.68-0.02-4-0.01C858.72,754.23,846.78,721.76,835.33,689.14z"/>
	<path class="st8" d="M766.93,692.18c5.9-0.59,11.91,0.13,17.74-1.19c-0.14,24.54,0,49.08-0.36,73.62
		c4.21,3.02,8.68,5.67,12.81,8.81c-22.8,0.04-45.59,0.56-68.38,0.53c3.7-3.25,8.05-5.66,11.83-8.82
		c-0.03-24.08,0.04-48.16,0.17-72.25C749.5,693.23,758.18,691.98,766.93,692.18z"/>
	<path class="st8" d="M668.05,694.65c5.39-0.54,10.8-0.5,16.21-0.64c-0.04,23.91,0.03,47.82-0.03,71.73
		c3.87,2.97,8.35,5.18,11.92,8.5c-23.52-0.03-47.03,0.26-70.54,0.12c4.4-3.36,9.37-5.93,14-8.98c0.03-23.47,0-46.94,0.01-70.41
		C649.09,694.8,658.58,695,668.05,694.65z"/>
</g>
<g id="_x23_e2c11eff">
	<path class="st9" d="M741.99,356.36c5.12-0.54,10.19-1.93,14.76-4.35c13.66,10.54,18.8,29.04,17.09,45.68
		c-6.63-11.09-13.3-23.42-25.09-29.75l0.16-1.02c0.43-2.48,0.84-4.97,1.15-7.47c-1.78,2.35-3.42,4.81-4.91,7.35
		c-8.92-1.9-18.31-1.95-27.26-0.24c2.18,0.04,4.41-0.32,6.59,0.04c3.38,1.96,7.32,2.49,10.9,3.98c7.82,3.03,15.39,7.72,20.08,14.85
		c0.7,1.21,1.89,2.59,1.04,4.06c-13.78-7.9-29.03-14.67-45.22-14.52c-1.81-6.18-5.95-12.12-12.31-14.16
		c-3.88-1.61-8.1-0.91-12.14-1.28c6.68-3.33,15.03-8.36,22.29-3.84c6.9,2.51,15.18,2.84,21.7-0.92
		C734.48,352.96,738.71,354.41,741.99,356.36z"/>
</g>
<g id="_x23_2a2408ff">
	<path class="st10" d="M745.15,366.8c1.49-2.54,3.13-5,4.91-7.35c-0.31,2.5-0.72,4.99-1.15,7.47c-0.75,1.98-3.06,1.66-4.75,1.84
		C744.41,368.27,744.91,367.29,745.15,366.8z"/>
</g>
<g id="_x23_a38819ff">
	<path class="st11" d="M724.48,366.6c9.52-0.22,19.75,2.29,27.13,8.61c5.21,5.4,8.74,12.16,12.38,18.65c-2.67-1.12-4.9-3-7.55-4.14
		l0.06-0.23c0.85-1.47-0.34-2.85-1.04-4.06c-4.69-7.13-12.26-11.82-20.08-14.85C731.8,369.09,727.86,368.56,724.48,366.6z"/>
</g>
<g id="_x23_282828ff">
	<path class="st12" d="M704.42,376.92c1.29-0.31,2.61-0.52,3.95-0.56c1.33,4.6,1.17,9.55,3.18,13.95c2.66,7.3,4.22,14.94,5.47,22.59
		c0.11,5.31-0.08,10.63,0.03,15.95c-0.54,9.59-3.09,19.31-8.95,27.05c3.29-0.34,5.21-3.22,7.79-4.91
		c-0.72,7.41-7.2,12.23-13.19,15.62c-3.72,1.91-7.01,4.61-10.91,6.15c1.42-2.62,2.97-5.18,4.27-7.86c1.61-3.06,0.53-6.61,1.16-9.87
		c1.12-5.32,4.47-9.85,8.45-13.42c2.53-2.17,3.74-5.41,4.17-8.64c0.71-5.31,1.37-10.79,0.09-16.07c-2.54,4.3-5.8,8.18-10.02,10.93
		c2.42-4.79,5.44-9.4,6.36-14.8c1.44-7.86,1.46-16.31-1.65-23.79c-1.85-3.76,0.1-7.84-0.2-11.78V376.92z"/>
</g>
<g id="_x23_3d3d3dff">
	<path class="st13" d="M682.52,406.5c3.04-11.95,9.94-24.24,21.9-29.04c0.3,3.94-1.65,8.02,0.2,11.78
		c3.11,7.48,3.09,15.93,1.65,23.79c-0.92,5.4-3.94,10.01-6.36,14.8c4.22-2.75,7.48-6.63,10.02-10.93
		c1.28,5.28,0.62,10.76-0.09,16.07c-0.43,3.23-1.64,6.47-4.17,8.64c-3.98,3.57-7.33,8.1-8.45,13.42c-0.63,3.26,0.45,6.81-1.16,9.87
		c-1.3,2.68-2.85,5.24-4.27,7.86c-0.67,1.23-1.64,2.24-2.61,3.23c-0.25-6.17,0.94-12.29,2.81-18.14c-4.81,2.39-5.59,8.21-8.55,12.1
		C679.43,449.14,677.59,427.31,682.52,406.5z"/>
</g>
<g id="_x23_cc8b0aff">
	<path class="st14" d="M454.79,696.59c1.38-2.12,3.09-3.99,4.7-5.94c3.83,0.39,7.68,0.71,11.54,0.61
		c35.37,1.32,70.74,2.58,106.11,3.8c-0.07,24.28,0.07,48.56-0.07,72.84c1.32,1.04,2.82,1.79,4.3,2.62
		c-14.83,0.55-29.72-0.12-44.56,0.03c1.3-1.18,2.78-2.13,4.33-2.96c0.19-22.78,0.22-45.6-0.23-68.37c-12.42,0-24.85-0.56-37.27-0.84
		c0.14,22.87,0.06,45.74,0.23,68.61c1.43,1.02,2.97,1.93,4.15,3.27c-15.29-0.09-30.59-0.28-45.88-0.52
		c1.46-1.09,2.95-2.13,4.48-3.12c0.02-23.2-0.09-46.39-0.21-69.59C462.53,696.89,458.66,696.73,454.79,696.59z"/>
</g>
</svg>
