<?xml version="1.0" encoding="utf-8"?>
<!-- Generator: Adobe Illustrator 21.0.0, SVG Export Plug-In . SVG Version: 6.00 Build 0)  -->
<svg version="1.1" id="Layer_1" xmlns="http://www.w3.org/2000/svg" xmlns:xlink="http://www.w3.org/1999/xlink" x="0px" y="0px"
	 viewBox="0 0 850.1 959.6" style="enable-background:new 0 0 850.1 959.6;" xml:space="preserve">
<style type="text/css">
	.st0{fill:#081F2C;stroke:#081F2C;stroke-width:9.375000e-02;}
	.st1{fill:#FFFFFF;stroke:#FFFFFF;stroke-width:9.375000e-02;}
	.st2{fill:#ACA095;stroke:#ACA095;stroke-width:9.375000e-02;}
	.st3{fill:#004B67;stroke:#004B67;stroke-width:9.375000e-02;}
</style>
<path class="st0" d="M304.5,10.6c65.4-10.9,132.1-13.5,198-7.2c87.3,8,173.1,31.5,252.4,68.8c33,15.3,64.6,33.4,95.1,53.1
	c0.1,69.4,0,138.8,0.1,208.2c-0.1,3,0.6,6.3-1.4,8.8c-26,39.4-51.9,78.9-78,118.3c-0.6,1.1-1.6,2.2-1.2,3.6
	C783,525,779.7,589.7,759,648.6c-16.7,48.3-44.8,92.5-81.1,128.4c-37.8,37.3-84.5,65.7-135.3,81.5c-13.2,4.2-26.6,7.7-40.2,9.8
	c-13.6,19.8-26.5,40.2-39.9,60.2c-6.5,10.5-14,20.4-20.2,31.1h-0.3c-19.9-30.5-39.9-60.9-60.1-91.2
	c-80.8-14.1-155.3-59.9-205.3-124.8c-42.7-54.9-67.7-123.4-69.8-193c-1.1-11.7,0.2-23.4,0.4-35c1.2-17.8,3.8-35.4,7.7-52.8
	c-26.2-39.6-52.2-79.3-78.4-118.9c-1-1.6-2.4-3.2-2.3-5.2c0-41.4,0-82.9,0-124.3c-11.3-4.6-22.6-9-34-13.4
	c0.1-6.1-0.2-12.3,0.2-18.4c1-16-0.5-32.1-0.1-48.1C90.8,71.3,195.7,29.1,304.5,10.6 M312.6,34.8c-2,0.3-4.1,0.3-6,0.9
	c-3.7,0.5-7.4,1.2-11.1,1.9c-96.2,18.2-189,55.5-270.4,109.9c-0.2,6.8,0,13.7-0.1,20.5c11.2-6.7,22.1-13.7,33.4-20.2
	c0,54.8,0,109.6,0,164.3c7.1-4.3,14.4-8.4,21.8-12.3c0-54.8,0-109.6,0-164.4c31.1-16.7,63.3-31.5,96.4-43.7
	c40.3-14.9,82-26.3,124.3-33.8c19.7-3.6,39.6-6.6,59.6-8.2c30.8-3.2,61.9-4,92.9-3.3c8.3,1,16.7,0.2,25,1.4c8,0.3,16,0.9,23.9,1.9
	c27.2,2.2,54.2,6.9,81,12.4c20.3,4,40.3,9.6,60.2,15.3c26.4,8,52.4,17.4,77.8,28.3c33,14.1,65,30.7,95.5,49.6c3,1.7,5.6,4,8.9,5
	c-0.1-6.9,0-13.9,0-20.8c-62.2-39.4-130.3-69.5-201.4-88.9c-22.5-5.8-45.1-11.3-68-15C476,21.8,393.2,21.3,312.6,34.8 M419.2,67
	c0.1,45.4,0.1,90.8,0,136.2c6.1,0,12.2-0.4,18.3-0.3c2.2-0.1,4.5,0.3,6.5-0.8c-0.3-6.2-0.1-12.3-0.2-18.5c0.1-1.3-0.3-2.8,1-3.6
	c7.7-7.5,14.9-15.4,23-22.4c3.6,15.7,6.9,31.5,10.5,47.3c7.7,0.5,15.3,1.4,22.8,3.2c0-0.6,0-1.8,0-2.4c-5-22.1-10.3-44.1-15.1-66.3
	c2.7-2.5,5.4-5.1,6.9-8.6c2.7-6,1.6-12.8,1.9-19.2c-0.1-10.7,1.1-22.2-4.5-31.8c-4.6-8.3-14.3-12-23.3-12.3
	C451,66.8,435.1,66.5,419.2,67 M359.6,70.2c-9.4,1.2-19.3,1.1-27.8,5.7c-5.9,2.9-10.2,8.3-12.5,14.3c-1.5,4.6-2.4,9.4-2.3,14.3
	c0,28.7,0,57.4,0,86c0,7,1.4,14.8,6.7,19.9c5.8,5.3,14.4,6.3,21.8,5c2.7-0.3,5.5-0.2,8.1-1c11.2-3.2,22.6-5.7,34.2-7.6
	c7.4-5.7,10.3-15.4,10.3-24.4c0-29,0-58,0-86.9c-0.2-8.5-2.8-18.1-10.5-22.9C379.1,67.6,368.9,69.3,359.6,70.2 M517.3,71.9
	c0.3,2.5-0.7,5.4,0.7,7.6c-1.1,2.9-1.2,7.1,0,10c-1.2,1.4-0.5,3.4-0.7,5.1c0.3,8.7-0.5,17.4,0.4,26c-0.3,1.3-0.5,2.6-0.4,4
	c0.2,16.4-0.1,32.8,0.1,49.2l0.6,0.8l-0.6,0.8c-0.3,8.1,0,16.2-0.1,24.3c0.2,1.6-0.5,3.6,0.7,5c-1.3,1.8-0.5,4.3-0.7,6.4
	c6.7,1.9,13.6,3.4,20.3,5.6c1.4,0.5,2.8,0.6,4.3,0.8c-0.1-9,0-17.9,0-26.9c-0.3-1.3,0.9-2.1,1.7-2.8c7.3-6.4,14.5-12.8,21.9-19
	c4.1,18.8,8.1,37.6,11.9,56.4c7.6,1.8,15.3,3.3,22.9,5.2c-4.9-23.6-10.5-47-15.3-70.6c-0.4-2.7-2.6-6.4,0.7-8.1
	c4.5-3.5,6.6-9.3,6.5-14.9c0-8.4,0.1-16.7-0.1-25.1c-0.4-8.2-2.5-16.9-8.3-23c-5.2-5.7-12.6-8.8-20.1-9.9
	C548.2,76,532.8,73.4,517.3,71.9 M268.7,85.6c-3.5,14.6-6.6,29.3-10.1,43.9c-3.7,16-7.8,32-11,48.1c-1.8-4.1-2.4-8.5-3.7-12.7
	c-6.2-22.6-11.7-45.4-18-68c-8.8,2.8-17.6,5.5-26.4,8.3c0,46.1,0,92.2,0,138.3c0.2,1.5-0.5,3.4,0.7,4.7c7.3-3.2,15.2-4.8,22.7-7.3
	c0.1-23.5-0.3-47,0.2-70.5c6.2,19.9,11.6,40.1,17.9,60c4.2-1.4,8.4-2.2,12.6-3.5c6.1-22.7,11.4-45.7,17.7-68.4
	c0.1,0.4,0.4,1.1,0.5,1.4c0,22.8,0,45.6,0,68.4c7.9-1.8,15.9-3.4,23.9-5c-0.1-47.9,0.1-95.8-0.1-143.7
	C286.6,81.4,277.7,83.4,268.7,85.6 M614.6,97.7c-5.5,5-6.7,12.8-6.8,19.9c0,28,0,56,0,84c-0.1,8.4,1.6,17.1,6.7,24
	c5.1,7.4,13.6,11.5,22,14c8,2.4,15.9,4.9,23.9,7.3c5.2,1.7,10.8,1.8,16.2,0.9c2.2-1.2,4.5-2.3,5.9-4.5c4-5.3,3.9-12.4,3.9-18.7
	c0-28.3,0-56.6,0-85c0.1-7.8-2.1-15.7-6.5-22.1c-4.8-7-12.2-11.8-20.1-14.5c-8.4-2.7-16.7-5.4-25.1-7.8
	C627.9,93.5,620,93,614.6,97.7 M141.2,126.4c-8.6,4-18,7.1-25,13.9c-9.3,8.3-13.4,21-13.3,33.3c0,29-0.1,58.1,0,87.1
	c0.3,5.8,1.1,12.6,6.1,16.3c5.3,3.3,11.8,1.7,17.2-0.3c8.3-3.4,16.4-7.1,24.6-10.5c6.7-2.8,13.3-6.4,18.1-11.9
	c7-7.3,10.2-17.6,10-27.6c0-29,0-58,0-87c0.1-3.7-0.6-7.4-1.6-10.9c-1.4-4.5-5.1-8.2-9.7-9.4C158.3,118,149.7,122.9,141.2,126.4
	 M703.3,119c0.1,37.2,0,74.4,0,111.6c0.5,4.6,0.5,9.4,1.7,13.9c2.1,8.8,7,16.9,13.9,22.7c7,6,16.1,8.8,24.2,12.9
	c7.1,3.4,14.4,7.8,22.6,6.9c7.8,9.5,19.5,14.2,29.8,20.2c4.5,2.6,8.9,5.4,14,6.7c3.7,0.7,8.3,1,11-2.2c4.6-4.8,4.5-11.9,5.2-18.1
	c0.1-37.4,0-74.8,0-112.2c-7.1-4.7-14.5-8.9-21.8-13.4c0,36.9,0,73.7,0,110.6c0.1,3-0.3,6.2-2.3,8.6c-1.8,0-3.7,0.2-5.3-0.8
	c-4.2-2.4-8.5-4.5-12.5-7.3c-4.6-3.3-7.3-8.9-7.1-14.5c-0.1-37.3,0.1-74.7-0.1-112c-7.5-3.6-14.7-7.7-22.4-11c0,37.6,0,75.3,0,112.9
	c0.4,3.2-1.9,7.4-5.6,6.5c-4.9-1.5-9.5-4.1-14.2-6.3c-5-2.5-7.5-7.7-8.2-13c-0.1-37.8,0-75.6,0-113.3
	C718.6,125.2,711.2,121.4,703.3,119 M404.4,233.1c-55.5,6.7-109,29-152.8,63.8c-1.3,0.9,0,2.5,0,3.7c3.8,15,14.3,28.2,28.4,34.6
	c11.4,5.9,24.4,6.6,36.5,10.4c5.9,1.7,11.5,4.3,17,7c1.5-1.1,1.5-3.2,2.4-4.8c4.4-11,8.8-22,13.3-33c13.2,5,26.1,10.8,39.4,15.6
	c3.8-4.6,6.6-10,7.9-15.8c2.6-11.2,3.1-22.7,5.9-33.9c4.3-19.6,16.2-37.3,32.1-49.4C424.5,230.9,414.4,232.2,404.4,233.1 M477,233
	c-4.2,6.9-7.5,14.5-8.6,22.6c-1.8,11.7,1.3,23.7,6.7,34.1c3.1,6.1,7.4,11.5,10.8,17.4c4.8,8.2,8.9,16.9,11.3,26.2
	c15.6-5.9,30.8-12.7,46.5-18.3c4.6,12.5,10,24.7,14.7,37.2c10.2-2.7,18-10.3,26.4-16.3c10.2-7.6,21.3-14.4,33.8-17.6
	c11.3-2.9,23.4-4.3,34.9-2.1c-1.9-3.5-5.5-5.7-8.2-8.5c-30.5-26.9-66.4-47.7-105-60.8C519.7,240.3,498.6,235,477,233 M445.2,249.1
	L445.2,249.1c-5.7,3.5-10.3,8.7-13.9,14.3c-8.7,13.8-10.4,30.4-11.4,46.3c-1.1,8.8-1.3,17.9-5.2,26c-2.1,4.5-5.9,8.3-10.7,9.9
	c-11.5,3.6-22.6,8.1-33.6,13c-4.4,2.1-9.1,3.9-13.1,6.8c14.5-4.7,29.8-7,45-7.5c5.3-0.6,10.8-1,16.1-0.1
	c-26.9,3.4-53.1,13.1-75.8,28.1c-6.3-8-15.4-13.2-24.9-16.6c-12.7-4.8-26.1-7.1-39.1-10.8c-11.1-3.2-22.4-7.9-30-16.9
	c-3.6-4.4-6.1-9.6-7.8-15c-0.2,1.3-0.5,2.6-0.7,3.9c-2,7.2-1.5,15,0.3,22.2c3.7,14.1,12.8,25.9,22,36.8c5.4,6.8,11.4,13.1,15.4,20.9
	c2.8,5.4,3.9,11.9,1.4,17.6c-7.4,15.7-15.5,31.4-19.3,48.5c1.8-4.2,4.1-8.2,6.5-12.1c8.5-13.1,18.6-25.2,30.1-35.8
	c-5.5,8.2-11.2,16.3-15.7,25.2c-7.7,15-13.6,30.9-17,47.4c-1.9-1.9-4.9-0.7-7.3-0.9c-2.5,0.8-5.3,0.4-7.8,1.3
	c-24.7,5.9-43.1,25.6-67.3,32.7c-10.2,3.1-21.6,1.9-30.8-3.5c0.6,0.9,1.1,1.9,1.6,2.8c4.4,7.7,11.6,13.6,19.4,17.7
	c15.5,7.8,33.2,7.8,50,9.7c8.1,1,17,2.4,23.3,8.1c4.8,4.5,5.6,11.3,7.9,17.1c4.8,12.7,9.8,25.4,16.5,37.3c-4.7-14.9-7.2-30.4-7.6-46
	c-0.9-4.5-0.2-9.1,0.5-13.6c1.2,11.4,3.9,22.6,7.8,33.4c4.9,13.8,11,27.2,19.2,39.3c0,0.3,0.1,0.8,0.1,1.1c-4,3.6-7.7,7.5-10.3,12.2
	c-8.3,14.3-11.2,30.8-15.2,46.7c-3,11.2-6.7,22.6-14.6,31.4c-4.6,5.2-10.7,8.6-17.1,10.9c-0.5,0.1-1,0.4-1.5,0.8
	c9.9,1.9,20.5,2.3,30.1-1.1c15.2-5.2,27.3-16.4,39.5-26.4c6.9-5.4,14.1-11.6,23.1-12.7c4.8-0.6,9.4,1.6,13.6,3.8
	c12.2,6.3,25,11.4,38.1,15.8c1.8,0.6,3.7,1,5.6,1.3c-18.8-8.8-34.7-22.8-49.2-37.5c8.4,5.8,16.7,11.7,25.8,16.3
	c14.8,7.9,30.7,13.5,47,17c-0.5,6.2,0.2,12.4,1.8,18.4c0.2,0.3,0.6,0.8,0.8,1c1.6,6.7,5.1,12.8,8.3,18.9
	c7.9,14.7,18.6,28.2,23.2,44.6c3,10,2,21.4-3.5,30.3c1.4-0.5,2.7-1.4,3.9-2.3c5.4-2.7,9.4-7.6,13-12.4
	c10.3-14.7,11.2-33.3,12.8-50.6c1.1-9.5,1.7-19.9,7.8-27.8c3.9-5.1,10.5-6.3,16.2-8.3c13.5-4.5,26.4-10.5,39.1-17
	c-5.1,1-9.9,2.8-15,3.7c-15.4,3.1-31.1,4.5-46.8,3.9c26.9-3.6,52.9-13.1,75.7-28c9.9,12.1,25.3,17.4,40,21.2
	c12,3,24.2,5.3,35.7,10.2c10.2,4,19.3,11.3,23.8,21.4c0.4,1.8,1,3.6,1.6,5.4c0.3,0.1,1,0.3,1.3,0.4c1.5-8.8,2.2-17.9-0.4-26.6
	c-4.5-16.1-16-28.8-26.4-41.4c-5.6-7.2-12.1-14.5-13.6-23.8c-1-7.2,3.8-13.2,6.5-19.5c5.8-12.4,11.1-25.1,14.6-38.4
	c-9.3,18.5-22.5,35-37.7,48.9c16.3-21.3,27.8-46.3,33.3-72.6c5.8,0.1,12.1,0.7,17.6-1.8c2.4-0.5,4.7-1.5,7.1-2.2
	c20.9-8.2,37.9-24.6,59.8-30.3c6.3-1.5,12.8-1.6,19.1,0c3,1.3,7,1.5,9.2,4.2c0.8-2.1-1.9-2.8-2-4.7l-0.1,0.2
	c-3.9-6.8-10.5-11.8-17.3-15.6c-13.8-7.4-29.8-8.6-45-9.8c-8.3-1.1-17.1-1.3-24.6-5.3c-4.5-2.3-8-6.5-9.5-11.3
	c-5.2-15.7-11.1-31.2-19.3-45.6c5.7,19.8,8.6,40.6,7.1,61.1c-1.6-16.3-6.1-32.2-12.4-47.3c-4.4-9.8-9-19.7-15.3-28.5
	c11.8-9.9,17.5-24.9,21-39.5c0.4-1.6,0.8-3.2,1.3-4.8c0.3-1.4,0.6-2.7,1-4c3.1-13.1,6.3-26.6,13.9-38c4.5-6.9,11.6-11.6,19.1-14.8
	l0.5,0.3c0.8-0.4,1.7-0.9,2.6-1.3c-11.1-2.8-23.1-2.4-33.6,2.2c-17.1,6.9-29.6,20.9-44.4,31.4c-6.5,4.6-15.1,8.5-23,5
	c-15.9-7.4-31.7-15.5-49-19.5c5,2.3,9.9,5,14.4,8c12.5,8.5,24.3,18.2,34.4,29.5c-21.3-16.4-46.4-27.9-72.8-33.5
	c0.8-11-2.4-21.8-7.1-31.6c-7.6-15.4-18.4-29.1-24.8-45.1c-2.3-6.3-4-13.1-3.6-19.9c0.1-5.4,2.4-10.4,3.9-15.4
	c0.4-0.2,1.1-0.5,1.5-0.6C447.5,246.2,447,249.1,445.2,249.1 M179.9,297c-4.2,2.2-9,2.5-13.4,4.1c4.1,2.3,9,2.5,13.4,4.1
	c1.5,4.7,2.5,9.6,4,14.4c1.7-4.7,2.5-9.7,4.2-14.4c4.3-1.3,8.8-2.1,13-3.6c-4-2.5-8.9-2.6-13.2-4.4c-1.3-4.6-2.4-9.3-3.9-13.9
	C182,287.7,181.8,292.6,179.9,297 M696.7,283.5c-1.7,4.3-2.3,9-3.9,13.4c-3.9,2.5-9,2.5-13.4,4.2c3.7,2.9,9,2.2,13.1,4.5
	c2.2,4.1,1.8,9.3,4.5,13.2c1.7-4.4,1.8-9.4,4.1-13.5c4.2-1.6,8.7-2,12.8-3.7c-4-2.4-8.9-2.4-13.1-4.3
	C698.9,292.8,698.7,287.8,696.7,283.5 M143.9,463.2c-3.2,13.1-6.1,26.4-7,39.8c8.6,5.3,18.4,9.2,28.6,9.2c13.7,0.5,26.6-5.5,37.6-13
	c9.7-6.6,20.1-12.5,31.5-15.6c-0.2-1.1-0.4-2.1-0.7-3.2c-4.5-12.1-10.1-23.9-14.2-36.1c12.5-4.6,24.7-10.2,37.3-14.7
	c0.5-9.5-5.1-17.7-10.4-25c-7-9.1-14.1-18.3-19.2-28.7c-4.6-9.1-7.1-19.1-8.2-29.2c-0.5-6.7-0.1-13.4,0.1-20.1
	C182.9,364.5,156.7,412.1,143.9,463.2 M111.4,351.4c-7.3,3-15.3,4.3-22.9,6.5c0.1,0.3,0.4,0.8,0.5,1.1c7.4,2.1,14.8,3.9,22.3,5.9
	c2.5,7.8,4.3,15.9,6.7,23.7c1.4-1.4,1.6-3.5,2.1-5.4c1.5-6.1,3.1-12.2,4.9-18.2c7.7-2.3,15.6-3.8,23.3-6.5c-7.3-3.3-15.5-4.2-23-6.8
	c-3.1-7.5-4-15.8-6.8-23.5C115.1,335.6,114.3,343.9,111.4,351.4 M762,328.4c-2.2,7.3-3.7,14.7-5.9,22c-0.3,1.7-2.3,1.9-3.6,2.4
	c-6.7,1.8-13.4,3.5-20.1,5.3c0.2,0.2,0.5,0.7,0.6,1c7.5,2.3,15.2,3.9,22.7,6.2c2.1,7.8,4.1,15.6,6.2,23.5c0.9-0.8,1.4-1.9,1.7-3
	c1.8-6.8,3.7-13.6,5.5-20.5c7.7-2.3,15.6-4.2,23.4-6.2c-0.7-1.4-2.4-1.5-3.7-1.9c-5.5-1.3-10.9-2.9-16.4-4.3
	c-1.4-0.5-3.3-0.7-3.6-2.4c-2-6.6-3.5-13.3-5.4-19.9C763.3,329.6,762.8,328.9,762,328.4 M649.8,367.9c-5.5,7.6-8.7,16.7-10.7,25.8
	c-2.3,11.3-5.1,22.7-10.2,33.1c14.8,5.7,29.4,11.9,44.2,17.6c-4.4,12-9.6,23.8-14.2,35.7c-1.1,3-2.7,5.9-3.2,9.1
	c5.6,2.7,11.6,4.2,17.7,5.1c12,1.8,24.1,3,35.6,7.1c15.9,5.6,29.8,16.2,40.1,29.4c-0.8-30.9-5.8-61.8-16-91.1
	c-11.2-33.5-28.5-64.9-50.4-92.6C669.7,349.8,657.6,357,649.8,367.9 M135,545.6c0.2,27.2,4.7,54.3,12.5,80.3
	c11,37.5,29.5,72.7,53.8,103.3c3.7-1,7.4-1.8,10.8-3.3c12.6-5,22.7-15.5,27.9-27.9c5.1-10.9,5.7-23.2,9.5-34.5
	c1-3.7,2.6-7.2,3.8-10.8c-10.9-5-22.4-9.2-33.7-13.7c5.3-14.8,11.5-29.2,17.4-43.7c-2.5-3.2-5.4-6.2-9-8.1
	c-7.8-4.2-16.8-4.9-25.4-6.2c-12.8-1.6-25.7-4.3-37.4-10.2C153.5,564.9,143,556.2,135,545.6 M681.1,577
	c-8.3,5.7-17.1,10.7-26.6,14.1c5.5,16.2,12.6,31.8,18.8,47.7c-14.8,5.7-29.4,12.1-44.4,17.6c0.4,3.6,2.6,6.5,4.4,9.5
	c5.5,8.1,11.9,15.5,17.2,23.8c11.8,17.6,16.8,39.6,13.8,60.6c45.9-47.8,75.8-111,82.9-177c-9.6-6.1-21-9.9-32.5-9.2
	C702.5,565.1,691,570.2,681.1,577 M311.4,731.4c-11.5,8.4-22.5,17.9-35.9,23.2c-14.3,6-30.2,7.7-45.6,6
	c47.6,45.5,110.1,75.3,175.7,82.6c1.5,0.5,2-1.1,2.6-2c5-8.3,8.1-17.9,7.9-27.7c0.1-13-5.5-25.3-12.7-35.9
	c-5.4-8-10.2-16.3-13.8-25.2c-12.8,4.7-25.3,10-37.9,15.1c-0.9,0.4-1.8,0.6-2.7,0.6c-6-15-12-30.1-18.2-45.1
	C323.7,724.1,317.1,727.2,311.4,731.4 M559.5,728.2c-4.8,13.6-10.9,26.6-15.8,40.2c-1.6-0.4-3.1-0.8-4.5-1.4
	c-14.9-6.2-29.8-12-44.8-18c-1.3-0.8-2,1-2.6,1.8c-6,10.2-5.9,22.4-8,33.7c-2.5,17.3-9,34.4-20.7,47.6c-3.9,5.1-9,8.9-13.7,13.2
	c66.3-1.3,131.9-25,183.6-66.5c-1.1-3.4-1.8-6.9-3.2-10.3c-5-12.8-15.6-23.1-28.2-28.4c-10.2-4.6-21.4-5.5-32-8.7
	C566.2,730.5,563,729,559.5,728.2 M438.2,894.1c-3.5,1.4-7.5,1.5-10.8,3.3c3.5,1.6,7.4,1.9,11,3.4c1.9,3.5,1.6,7.8,3.9,11.1
	c1.4-3.6,1.7-7.6,3.4-11.1c3.5-1.6,7.6-1.6,10.8-3.7c-3.5-1.1-7.2-1.6-10.7-2.9c-2.1-3.5-2.1-7.9-3.7-11.7
	C440.2,886.1,440.3,890.5,438.2,894.1z"/>
<path class="st1" d="M312.6,34.8c80.5-13.5,163.3-12.9,243.8,1c23,3.7,45.5,9.2,68,15c71.1,19.4,139.1,49.5,201.4,88.9
	c0,6.9,0,13.9,0,20.8c-3.3-1-5.9-3.4-8.9-5c-30.6-18.9-62.5-35.4-95.5-49.6c-25.4-10.9-51.4-20.4-77.8-28.3
	c-19.9-5.8-39.9-11.3-60.2-15.3c-26.8-5.5-53.8-10.1-81-12.4c-7.9-1-15.9-1.6-23.9-1.9c-8.3-1.2-16.7-0.4-25-1.4
	c-31-0.7-62.1,0.1-92.9,3.3c-20,1.6-39.9,4.6-59.6,8.2c-42.4,7.5-84,18.9-124.3,33.8c-33.2,12.2-65.3,26.9-96.4,43.7
	c-0.1,54.8,0,109.6,0,164.4c-7.3,4-14.6,8-21.8,12.3c0-54.8,0-109.6,0-164.3c-11.3,6.5-22.2,13.5-33.4,20.2c0-6.8-0.1-13.7,0.1-20.5
	c81.4-54.4,174.2-91.8,270.4-109.9c3.7-0.8,7.4-1.4,11.1-1.9C308.6,35.1,310.6,35,312.6,34.8z"/>
<path class="st1" d="M419.2,67c15.9-0.4,31.8-0.2,47.7,0.5c9,0.4,18.8,4,23.3,12.3c5.6,9.6,4.4,21.2,4.5,31.8
	c-0.2,6.4,0.9,13.1-1.9,19.2c-1.5,3.4-4.2,6.1-6.9,8.6c4.8,22.1,10.1,44.2,15.1,66.3c0,0.6,0,1.8,0,2.4c-7.5-1.8-15.2-2.7-22.8-3.2
	c-3.6-15.7-6.9-31.6-10.5-47.3c-8.1,7-15.3,15-23,22.4c-1.3,0.8-0.9,2.4-1,3.6c0.1,6.2-0.1,12.3,0.2,18.5c-2,1.1-4.3,0.8-6.5,0.8
	c-6.1,0-12.2,0.3-18.3,0.3C419.2,157.8,419.3,112.4,419.2,67 M443.9,88.1c0,20.3,0,40.6,0,60.8c6.8-5.8,12.7-12.6,19.2-18.8
	c4.7-4.2,7.7-10.3,7.3-16.7c-0.3-5.8,0.5-11.7-0.6-17.4c-0.9-4.4-4.9-7.1-9.1-7.7C455.1,88.3,449.5,88.2,443.9,88.1z"/>
<path class="st1" d="M359.6,70.2c9.3-0.9,19.5-2.6,27.8,2.5c7.7,4.7,10.4,14.3,10.5,22.9c0.1,29,0,58,0,86.9c0,9-2.9,18.7-10.3,24.4
	c-11.5,1.9-22.9,4.4-34.2,7.6c-2.6,0.8-5.4,0.7-8.1,1c-7.5,1.2-16,0.3-21.8-5c-5.3-5.1-6.7-12.9-6.7-19.9c0-28.7,0-57.4,0-86
	c-0.1-4.9,0.8-9.7,2.3-14.3c2.3-6,6.6-11.4,12.5-14.3C340.3,71.3,350.2,71.5,359.6,70.2 M344.7,94.8c-3,2.3-3.7,6.3-3.7,9.8
	c0,26.3,0,52.6,0,78.9c0,2.6,0.1,5.6,1.9,7.6c1.8,2.2,5,2.8,7.7,2.6c5.6-0.8,11.3-0.8,16.9-2c4.2-1.4,6.4-5.9,6.3-10.2
	c0-27,0-54,0-81c0.2-4-1.9-8.4-6.1-9.3c-3.3-0.3-6.8-0.4-10,0.5C353.3,92.1,348.3,91.8,344.7,94.8z"/>
<path class="st1" d="M517.3,71.9c15.5,1.5,30.9,4.1,46.3,6.7c7.5,1.2,14.9,4.3,20.1,9.9c5.8,6.1,7.9,14.8,8.3,23
	c0.1,8.3,0,16.7,0.1,25.1c0.1,5.6-2,11.4-6.5,14.9c-3.3,1.7-1,5.4-0.7,8.1c4.9,23.6,10.4,47,15.3,70.6c-7.6-1.9-15.3-3.4-22.9-5.2
	c-3.8-18.8-7.8-37.6-11.9-56.4c-7.4,6.3-14.7,12.6-21.9,19c-0.8,0.8-1.9,1.5-1.7,2.8c0,9,0,17.9,0,26.9c-1.5-0.2-2.9-0.3-4.3-0.8
	c-6.7-2.1-13.5-3.6-20.3-5.6c0.2-2.1-0.6-4.6,0.7-6.4c-1.2-1.4-0.5-3.3-0.7-5c0.1-8.1-0.2-16.2,0.1-24.3l0.6-0.8l-0.6-0.8
	c-0.3-16.4,0-32.8-0.1-49.2c-0.1-1.3,0.1-2.7,0.4-4c-0.8-8.6-0.1-17.3-0.4-26c0.2-1.7-0.5-3.7,0.7-5.1c-1.2-2.9-1.1-7.1,0-10
	C516.5,77.4,517.6,74.4,517.3,71.9 M542,157.7c5.2-5,10.8-9.7,16.3-14.4c3.1-2.6,6.3-5.2,8-9c2.5-4.9,1.8-10.4,1.9-15.7
	c-0.1-4.2,0.4-8.6-1.2-12.6c-1.4-3.5-4.6-6.3-8.3-7c-5.5-1.2-11.1-1.9-16.7-2.9C541.9,116.6,541.6,137.2,542,157.7z"/>
<path class="st1" d="M268.7,85.6c8.9-2.2,17.9-4.2,26.9-5.9c0.2,47.9,0,95.8,0.1,143.7c-8,1.6-15.9,3.3-23.9,5c0-22.8,0-45.6,0-68.4
	c-0.1-0.4-0.3-1.1-0.5-1.4c-6.2,22.7-11.6,45.7-17.7,68.4c-4.2,1.3-8.4,2.2-12.6,3.5c-6.3-19.9-11.6-40.1-17.9-60
	c-0.5,23.5-0.1,47-0.2,70.5c-7.5,2.5-15.5,4.1-22.7,7.3c-1.2-1.3-0.6-3.1-0.7-4.7c0-46.1,0-92.2,0-138.3c8.8-2.9,17.6-5.5,26.4-8.3
	c6.3,22.6,11.8,45.4,18,68c1.3,4.2,1.9,8.6,3.7,12.7c3.2-16.2,7.3-32.1,11-48.1C262.1,114.9,265.2,100.2,268.7,85.6z"/>
<path class="st0" d="M443.9,88.1c5.6,0.1,11.2,0.2,16.8,0.3c4.2,0.6,8.2,3.3,9.1,7.7c1.1,5.7,0.3,11.6,0.6,17.4
	c0.4,6.3-2.6,12.5-7.3,16.7c-6.5,6.1-12.4,13-19.2,18.8C443.8,128.6,443.9,108.3,443.9,88.1z"/>
<path class="st0" d="M344.7,94.8c3.6-2.9,8.6-2.6,12.9-3c3.3-0.9,6.7-0.8,10-0.5c4.2,0.8,6.4,5.3,6.1,9.3c0,27,0,54,0,81
	c0.2,4.3-2.1,8.8-6.3,10.2c-5.6,1.2-11.3,1.2-16.9,2c-2.7,0.2-5.9-0.4-7.7-2.6c-1.8-2.1-1.9-5-1.9-7.6c0-26.3,0-52.6,0-78.9
	C341,101.1,341.7,97.1,344.7,94.8z"/>
<path class="st1" d="M614.6,97.7c5.5-4.7,13.3-4.2,19.9-2.4c8.5,2.3,16.8,5.1,25.1,7.8c8,2.6,15.3,7.4,20.1,14.5
	c4.5,6.4,6.6,14.3,6.5,22.1c0.1,28.3,0,56.6,0,85c0,6.4,0.1,13.4-3.9,18.7c-1.4,2.2-3.7,3.3-5.9,4.5c-5.4,0.9-11,0.8-16.2-0.9
	c-8-2.4-15.9-4.9-23.9-7.3c-8.4-2.6-16.9-6.7-22-14c-5-6.9-6.8-15.6-6.7-24c0-28,0-56,0-84C607.9,110.5,609.1,102.7,614.6,97.7
	 M635.1,118.3c-2.4,1.2-3.6,3.8-3.3,6.3c0,27.7,0,55.3,0,83c-0.1,2.6,0.5,5.4,2.3,7.4c3.4,4.6,9.5,5.2,14.6,7
	c3.6,0.9,7.1,2.9,10.9,2.1c3.1-1,3.7-4.7,3.6-7.6c0-27,0-54,0-81c0.1-3.6-1.1-7.4-3.7-9.9c-3.8-3.6-9.2-4.4-14-6
	C642.1,118.6,638.6,117.4,635.1,118.3z"/>
<path class="st0" d="M542,157.7c-0.4-20.5-0.1-41.1-0.1-61.6c5.5,1.1,11.2,1.7,16.7,2.9c3.7,0.8,6.9,3.5,8.3,7
	c1.7,4,1.1,8.4,1.2,12.6c-0.1,5.3,0.6,10.8-1.9,15.7c-1.7,3.8-4.9,6.4-8,9C552.8,148.1,547.2,152.7,542,157.7z"/>
<path class="st0" d="M635.1,118.3c3.5-0.8,7,0.3,10.3,1.4c4.8,1.6,10.2,2.4,14,6c2.6,2.6,3.8,6.3,3.7,9.9c0,27,0,54,0,81
	c0.1,2.9-0.5,6.5-3.6,7.6c-3.8,0.8-7.3-1.2-10.9-2.1c-5.1-1.8-11.1-2.4-14.6-7c-1.8-2-2.3-4.8-2.3-7.4c0-27.7,0-55.3,0-83
	C631.5,122,632.7,119.4,635.1,118.3z"/>
<path class="st1" d="M141.2,126.4c8.4-3.5,17-8.4,26.5-7.1c4.6,1.2,8.2,4.9,9.7,9.4c1.1,3.5,1.7,7.2,1.6,10.9c0,29,0,58,0,87
	c0.1,10-3.1,20.3-10,27.6c-4.9,5.5-11.4,9.2-18.1,11.9c-8.2,3.5-16.4,7.2-24.6,10.5c-5.4,2-11.9,3.6-17.2,0.3
	c-5-3.8-5.8-10.5-6.1-16.3c-0.1-29,0-58.1,0-87.1c-0.1-12.2,4.1-24.9,13.3-33.3C123.2,133.4,132.6,130.4,141.2,126.4 M149.6,144.5
	c-5.3,1.5-10.3,4-15.4,6.2c-5.4,2.4-9,8-8.9,13.9c-0.1,27,0,54,0,81c0,2.2,0.3,4.8,2,6.3c2.7,2,6,0.4,8.7-0.7
	c4.4-2,9.1-3.7,13.4-5.9c4.5-2.5,6.8-7.7,6.6-12.7c0-27.3,0.1-54.7,0-82.1C156.3,147.1,153.3,143.3,149.6,144.5z"/>
<path class="st1" d="M703.3,119c7.9,2.4,15.4,6.2,23,9.4c0,37.8-0.1,75.6,0,113.3c0.7,5.3,3.2,10.5,8.2,13c4.7,2.2,9.2,4.8,14.2,6.3
	c3.7,0.9,6-3.3,5.6-6.5c0.1-37.7,0-75.3,0-112.9c7.6,3.3,14.9,7.4,22.4,11c0.2,37.3,0,74.7,0.1,112c-0.1,5.6,2.5,11.3,7.1,14.5
	c4,2.7,8.3,4.9,12.5,7.3c1.6,1,3.5,0.8,5.3,0.8c2-2.4,2.4-5.6,2.3-8.6c0-36.9,0-73.7,0-110.6c7.3,4.4,14.7,8.7,21.8,13.4
	c-0.1,37.4,0,74.8,0,112.2c-0.7,6.2-0.5,13.3-5.2,18.1c-2.8,3.1-7.3,2.9-11,2.2c-5-1.3-9.5-4.2-14-6.7c-10.4-6.1-22-10.7-29.8-20.2
	c-8.2,0.8-15.5-3.6-22.6-6.9c-8.2-4.1-17.2-6.8-24.2-12.9c-7-5.8-11.8-13.9-13.9-22.7c-1.3-4.5-1.3-9.3-1.7-13.9
	C703.2,193.4,703.3,156.2,703.3,119z"/>
<path class="st0" d="M149.6,144.5c3.8-1.2,6.7,2.6,6.4,6.1c0.1,27.4,0,54.7,0,82.1c0.1,5-2.2,10.2-6.6,12.7c-4.4,2.2-9,3.8-13.4,5.9
	c-2.7,1.1-6,2.7-8.7,0.7c-1.8-1.6-2-4.1-2-6.3c0-27,0-54,0-81c-0.1-5.9,3.6-11.5,8.9-13.9C139.3,148.5,144.3,146,149.6,144.5z"/>
<path class="st2" d="M404.4,233.1c10-1,20.1-2.2,30.2-1.9c-16,12.1-27.8,29.8-32.1,49.4c-2.8,11.1-3.3,22.7-5.9,33.9
	c-1.3,5.8-4.1,11.2-7.9,15.8c-13.3-4.8-26.2-10.5-39.4-15.6c-4.5,11-8.9,22-13.3,33c-0.8,1.6-0.9,3.7-2.4,4.8
	c-5.5-2.7-11.1-5.3-17-7c-12.1-3.8-25.1-4.5-36.5-10.4c-14.1-6.5-24.6-19.6-28.4-34.6c-0.1-1.1-1.3-2.8,0-3.7
	C295.4,262.2,348.9,239.9,404.4,233.1 M265.6,306c4.3,9.7,13.2,16.7,22.8,20.7c8,3.4,16.8,4.1,25.2,6.4c5,1.1,9.6,3.1,14.5,4.5
	c4.8-12.4,9.7-24.8,14.7-37c14.1,4.6,27.5,11.2,41.5,16.1c3.8-11,3.7-22.7,6.2-33.9c2.1-11.9,6.7-23.2,12.9-33.5
	C353.5,255.6,305.6,275.5,265.6,306z"/>
<path class="st2" d="M477,233c21.6,2,42.7,7.3,63.3,14c38.5,13,74.4,33.9,105,60.8c2.7,2.8,6.3,5,8.2,8.5
	c-11.6-2.3-23.6-0.9-34.9,2.1c-12.4,3.2-23.6,10-33.8,17.6c-8.4,6-16.2,13.6-26.4,16.3c-4.6-12.5-10.1-24.6-14.7-37.2
	c-15.7,5.6-30.9,12.5-46.5,18.3c-2.4-9.2-6.4-18-11.3-26.2c-3.4-5.9-7.7-11.3-10.8-17.4c-5.4-10.4-8.5-22.4-6.7-34.1
	C469.5,247.5,472.8,239.9,477,233 M481.3,249c-4.9,13.5-1.1,28.4,6.5,40.1c6.2,9.4,12.2,18.9,16.5,29.3
	c12.8-4.9,25.4-10.3,38.2-15.3c2.5-1,4.9-2.1,7.5-2.5c4.9,12.1,9.6,24.2,14.5,36.2c10.6-7.1,20.1-15.8,31.6-21.5
	c7.2-3.9,14.8-6.7,22.7-8.8C579.1,275.5,531,256,481.3,249z"/>
<path class="st1" d="M445.2,249.1c1.8,0,2.3-2.9,4.3-1.6c-0.4,0.2-1.1,0.5-1.5,0.6c-1.5,5-3.8,10-3.9,15.4
	c-0.4,6.8,1.2,13.5,3.6,19.9c6.4,16,17.3,29.7,24.8,45.1c4.7,9.8,7.9,20.6,7.1,31.6c-11.2-2.2-22.6-3.2-34-3.9
	c1.5-15.7-4.4-30.8-7.5-45.9c-3.5-15.5-5.4-32.4,0.7-47.5c1.6-4.4,4.4-8.3,6.6-12.4C445.3,250.2,445.3,249.5,445.2,249.1
	L445.2,249.1z"/>
<path class="st3" d="M265.6,306c40-30.5,87.9-50.4,137.8-56.9c-6.2,10.3-10.8,21.6-12.9,33.5c-2.5,11.2-2.4,23-6.2,33.9
	c-14-4.8-27.4-11.5-41.5-16.1c-5,12.3-9.9,24.6-14.7,37c-4.9-1.4-9.5-3.4-14.5-4.5c-8.4-2.3-17.1-2.9-25.2-6.4
	C278.8,322.7,269.9,315.7,265.6,306z"/>
<path class="st2" d="M431.3,263.4c3.6-5.6,8.2-10.8,13.9-14.3c0,0.3,0.1,1,0.2,1.4c-2.2,4.1-5,8-6.6,12.4c-6.1,15.1-4.1,32-0.7,47.5
	c3.2,15.1,9.1,30.2,7.5,45.9c11.4,0.7,22.8,1.6,34,3.9c26.3,5.6,51.4,17,72.8,33.5c-10.1-11.3-21.9-21-34.4-29.5
	c-4.6-3.1-9.4-5.7-14.4-8c17.2,3.9,33,12.1,49,19.5c7.9,3.4,16.5-0.5,23-5c14.8-10.5,27.3-24.5,44.4-31.4
	c10.5-4.6,22.5-5.1,33.6-2.2c-0.9,0.4-1.8,0.9-2.6,1.3l-0.5-0.3l-0.9-0.6c-13.5,1.2-26,8.4-35,18.3c-9.6,10.1-16.3,22.4-23.7,34.1
	c-4.9,8.1-10.1,16.4-17.7,22.2c7.5,8.6,15,17.4,21.2,27.1c6.2,8.8,10.8,18.7,15.3,28.5c6.4,15,10.8,31,12.4,47.3
	c1.5-20.6-1.4-41.4-7.1-61.1c8.2,14.4,14.2,29.9,19.3,45.6c1.5,4.9,5,9,9.5,11.3c7.6,4,16.3,4.3,24.6,5.3c15.3,1.2,31.3,2.4,45,9.8
	c6.8,3.7,13.4,8.8,17.3,15.6c-0.2,0.3-0.5,0.8-0.6,1.1c-7.4-5.6-16.2-9.4-25.5-10.6c-15.8-2.1-31.5,1.7-46.7,5.5
	c-11.1,2.7-22.5,6-34.1,4.6c-0.2,11.3-1.6,22.6-3.8,33.8c5.9,0.6,11.8-0.6,17.6-1.6c-5.5,2.5-11.7,1.9-17.6,1.8
	c-5.5,26.3-17,51.3-33.3,72.6c15.3-13.9,28.5-30.3,37.7-48.9c-3.5,13.2-8.8,25.9-14.6,38.4c-2.7,6.3-7.5,12.3-6.5,19.5
	c1.5,9.3,8,16.6,13.6,23.8c10.4,12.6,22,25.3,26.4,41.4c2.5,8.7,1.9,17.8,0.4,26.6c-0.3-0.1-1-0.3-1.3-0.4c-0.6-1.8-1.1-3.6-1.6-5.4
	c0.6,0.7,1.7,2,2.3,2.7c-1.5-14.4-9.4-27.5-20.3-36.9c-12.6-11.3-27.9-18.7-41.8-28.1c-4.8-3.3-9.2-7.1-12.6-11.8
	c-8.6,7.6-17.4,15-27,21.4c-22.7,14.8-48.8,24.4-75.7,28c15.7,0.7,31.4-0.7,46.8-3.9c5.1-0.9,9.9-2.8,15-3.7
	c-12.6,6.5-25.6,12.5-39.1,17c-5.7,2-12.3,3.2-16.2,8.3c-6.1,7.9-6.7,18.3-7.8,27.8c-1.5,17.3-2.4,35.9-12.8,50.6
	c-3.6,4.8-7.5,9.7-13,12.4c0.4-3.1,2.8-5.4,4.1-8.2c6.1-11.3,7.1-24.7,5.7-37.3c-1.5-14.6-6.1-28.7-9-43.1c-1.3-6.1-1.7-12.4-1-18.5
	c-11.3-0.3-22.5-1.5-33.5-3.8c-0.9,6.5,0.7,13,1.8,19.4c-0.2-0.3-0.6-0.8-0.8-1c-1.7-6-2.3-12.2-1.8-18.4c-16.4-3.5-32.3-9.1-47-17
	c-9.1-4.6-17.4-10.6-25.8-16.3c14.5,14.7,30.4,28.7,49.2,37.5c-1.9-0.3-3.8-0.6-5.6-1.3c-13-4.4-25.8-9.5-38.1-15.8
	c-4.1-2.2-8.7-4.4-13.6-3.8c-9.1,1.1-16.2,7.3-23.1,12.7c-12.2,10-24.2,21.2-39.5,26.4c-9.6,3.4-20.2,3.1-30.1,1.1
	c0.4-0.4,0.9-0.6,1.5-0.8c11.6,0.4,22.6-5.4,31.4-12.5c13.8-11.8,22.3-28.1,31.7-43.3c4.4-7,9.2-13.8,15.8-18.8
	c-5.5-6-10.9-12.1-15.7-18.7c-2-2.6-3.4-5.8-6-7.9c0-0.3-0.1-0.8-0.1-1.1c-8.2-12.1-14.3-25.6-19.2-39.3c-3.8-10.8-6.5-22-7.8-33.4
	c-0.7,4.5-1.4,9-0.5,13.6c0.4,15.6,2.9,31.1,7.6,46c-6.7-11.9-11.7-24.5-16.5-37.3c-2.4-5.8-3.1-12.6-7.9-17.1
	c-6.3-5.7-15.1-7.1-23.3-8.1c-16.8-1.9-34.6-1.9-50-9.7c-7.8-4.1-15-10-19.4-17.7c3.5,1.1,6.2,3.9,9.5,5.4c11.6,6.3,25.2,6.8,38,5.4
	c15.3-1.8,29.9-6.7,44.9-9.5c5.2-1,10.5-1,15.7-0.5c0.1-11.2,1.6-22.4,3.5-33.4c3.4-16.5,9.3-32.4,17-47.4
	c4.5-8.8,10.2-17,15.7-25.2c-11.5,10.6-21.5,22.7-30.1,35.8c-2.4,3.9-4.7,7.9-6.5,12.1c3.8-17.1,11.9-32.8,19.3-48.5
	c2.5-5.7,1.4-12.3-1.4-17.6c-3.9-7.8-10-14.1-15.4-20.9c-9.3-10.9-18.3-22.7-22-36.8c-1.8-7.2-2.3-15-0.3-22.2
	c2.2,4.5,2.4,9.6,4.5,14.1c6.3,15.9,20.3,26.8,34.3,35.6c12.6,8.4,27.4,14.7,37,26.9c8.3-7.8,17.2-15.1,26.8-21.3
	c22.6-15,48.9-24.7,75.8-28.1c-5.3-0.9-10.8-0.5-16.1,0.1c-15.2,0.5-30.5,2.8-45,7.5c4-2.9,8.6-4.7,13.1-6.8
	c10.9-5,22.1-9.4,33.6-13c4.8-1.6,8.6-5.3,10.7-9.9c3.9-8.1,4.1-17.3,5.2-26C420.8,293.8,422.6,277.1,431.3,263.4 M414.5,386.8
	c15.8,2.8,31.3,11,40.1,24.8c8.2,12.2,9,27.9,5.9,42c-0.8,7-1.7,14.6,2.1,20.9c-0.6-0.7-1.8-2.2-2.4-2.9c-1.5,4.5-1.9,9.4-0.9,14.1
	c1.9,6.6,7.4,12,14,13.9c-1.4,4-5.7,6.8-6,11.1c1.1,3.6,3.4,6.6,6.2,9.1c5.1,5,12.3,6.7,19,8.5c-4.2,1.8-8.6,0.4-12.9-0.1
	c-9.1-1.4-17.5-6.4-22.7-14.1c-3,2.9-7,5.1-8.9,8.9c-0.5,6.6,0.3,13.2-0.7,19.7c0,9.9-1.4,19.8-2.4,29.7c6.7,0.1,13.1-2.5,19.7-2.9
	c3.9,0.6,6.2,5,5.4,8.7c-4.7-5-11.4-0.2-16.7,0.9c-8,2.2-16.8,1.5-24.3-2.1c0.8-7.1,2.1-14.2,2.4-21.4c1.5-12.6,0.7-25.4,1-38.1
	c3.1-8.5,13.3-11.4,16.9-19.7c-8.5-12.8-8.5-29.4-4.3-43.7c3.5-10.8,4.3-23.2-1.4-33.4c-5.7-9.8-16-16.3-26.8-19.1
	c-18.2-4.8-37.7-2.5-55.3,3.7c-19.5,7.2-37.1,19.5-50.5,35.5c-21.1,25.1-30.9,58.2-31.8,90.7c-0.8,23.3,2.2,47,10.6,68.8
	c11.3,30.6,35.3,56,65.2,68.9c16.3,6.9,33.9,11.4,51.8,11.1c13.4,0.3,27.3-1.8,38.9-8.9c5.6-3.4,10-9.5,9.6-16.3
	c9.3-1.1,19-4.4,25.6-11.3c-8.3,1.3-16.8,1.9-25.1,1c-3-0.5-6.8-1.1-8.4-4.1c-2-3.9-0.7-8.7,1.4-12.3c2.1-3.5,6.3-4.9,10.2-4.6
	c-2.2,3.3-4.8,7.4-3,11.5c0.8,2.3,3.6,2.7,5.7,2.9c8,0.3,16.1,0,24.1-0.9c2.9-0.2,5.9-0.8,8.9-0.4c-3.6,12.1-14.3,20.3-25.5,24.9
	c-2.6,7.7-6.5,15-12.4,20.6c-9.7,9-22.9,13.7-36,14c6.8,2.1,14,1.5,21,1.7c44,0.8,87.8-17.8,118.1-49.7
	c27.5-28.4,43.8-67.6,43.4-107.2c0.2-31.4-9.8-62.8-27.9-88.5c-18.1-26.2-44.5-46.4-74.2-57.8C473.6,384.7,443.3,381.7,414.5,386.8z
	"/>
<path class="st3" d="M481.3,249c49.6,7,97.8,26.5,137.3,57.4c-7.8,2.1-15.5,5-22.7,8.8c-11.5,5.7-21,14.4-31.6,21.5
	c-4.9-12-9.6-24.2-14.5-36.2c-2.6,0.4-5.1,1.5-7.5,2.5c-12.8,5-25.4,10.3-38.2,15.3c-4.3-10.4-10.3-19.9-16.5-29.3
	C480.2,277.5,476.4,262.5,481.3,249z"/>
<path class="st3" d="M179.9,297c1.8-4.4,2.1-9.3,4.2-13.6c1.5,4.6,2.6,9.2,3.9,13.9c4.3,1.8,9.2,1.9,13.2,4.4
	c-4.2,1.6-8.7,2.3-13,3.6c-1.7,4.7-2.5,9.7-4.2,14.4c-1.5-4.8-2.5-9.6-4-14.4c-4.4-1.6-9.3-1.8-13.4-4.1
	C170.9,299.6,175.7,299.2,179.9,297z"/>
<path class="st3" d="M696.7,283.5c2,4.4,2.2,9.4,4.2,13.8c4.2,1.9,9.1,1.9,13.1,4.3c-4.1,1.7-8.7,2.1-12.8,3.7
	c-2.3,4.1-2.5,9.1-4.1,13.5c-2.7-3.9-2.3-9.1-4.5-13.2c-4-2.3-9.3-1.6-13.1-4.5c4.3-1.7,9.4-1.7,13.4-4.2
	C694.4,292.5,694.9,287.8,696.7,283.5z"/>
<path class="st2" d="M143.9,463.2c12.7-51.1,38.9-98.7,75.4-136.7c-0.2,6.7-0.6,13.4-0.1,20.1c1.1,10.1,3.6,20.1,8.2,29.2
	c5,10.4,12.2,19.6,19.2,28.7c5.3,7.3,10.9,15.6,10.4,25c-12.6,4.5-24.8,10.1-37.3,14.7c4.1,12.3,9.7,24,14.2,36.1
	c0.3,1,0.5,2.1,0.7,3.2c-11.4,3.1-21.8,9-31.5,15.6c-11.1,7.5-23.9,13.5-37.6,13c-10.2,0-20-3.9-28.6-9.2
	C137.8,489.6,140.7,476.3,143.9,463.2 M191.6,388.7c-14,23.3-24.7,48.5-31.6,74.9c-3,11.6-5.7,23.3-7,35.2c4.4,1.2,8.9,2.3,13.5,2.3
	c9.5-0.3,18.8-3.6,26.7-8.9c8.7-5.8,17.6-11.3,27.1-15.5c-5.1-12.8-10.4-25.6-15.5-38.4c13.1-5.7,26.6-10.4,39.7-16
	c-4.1-8.1-10.1-14.9-15.4-22.2c-8.6-11.5-15.4-24.5-18.8-38.6C203.3,369.9,197.3,379.3,191.6,388.7z"/>
<path class="st1" d="M240.1,330.6c0.2-1.3,0.4-2.6,0.7-3.9c1.7,5.4,4.2,10.6,7.8,15c7.6,9,18.9,13.8,30,16.9
	c13,3.7,26.4,6,39.1,10.8c9.5,3.4,18.6,8.6,24.9,16.6c-9.6,6.2-18.5,13.5-26.8,21.3c-9.6-12.2-24.3-18.5-37-26.9
	c-13.9-8.9-28-19.8-34.3-35.6C242.5,340.1,242.3,335,240.1,330.6z"/>
<path class="st3" d="M111.4,351.4c2.8-7.5,3.6-15.8,7-23.1c2.8,7.7,3.7,16,6.8,23.5c7.6,2.7,15.7,3.6,23,6.8
	c-7.6,2.7-15.5,4.2-23.3,6.5c-1.8,6-3.4,12.1-4.9,18.2c-0.5,1.9-0.7,3.9-2.1,5.4c-2.4-7.9-4.2-15.9-6.7-23.7
	c-7.4-2-14.9-3.8-22.3-5.9c-0.1-0.3-0.4-0.8-0.5-1.1C96.1,355.7,104.2,354.4,111.4,351.4z"/>
<path class="st3" d="M762,328.4c0.8,0.5,1.2,1.2,1.4,2.1c1.9,6.6,3.4,13.3,5.4,19.9c0.3,1.8,2.2,1.9,3.6,2.4
	c5.5,1.4,10.9,3,16.4,4.3c1.3,0.4,3,0.5,3.7,1.9c-7.8,2-15.7,3.9-23.4,6.2c-1.8,6.8-3.7,13.6-5.5,20.5c-0.3,1.1-0.8,2.2-1.7,3
	c-2.1-7.8-4.1-15.6-6.2-23.5c-7.5-2.3-15.2-3.9-22.7-6.2c-0.2-0.2-0.5-0.7-0.6-1c6.7-1.8,13.4-3.5,20.1-5.3c1.3-0.5,3.3-0.7,3.6-2.4
	C758.3,343.1,759.9,335.6,762,328.4z"/>
<path class="st1" d="M614.6,355.6c9-9.9,21.5-17.1,35-18.3l0.9,0.6c-7.5,3.2-14.6,7.8-19.1,14.8c-7.5,11.4-10.8,24.9-13.9,38
	c-0.4,1.3-0.7,2.7-1,4c-0.5,1.6-0.8,3.2-1.3,4.8c-3.5,14.6-9.2,29.6-21,39.5c-6.2-9.7-13.7-18.4-21.2-27.1
	c7.7-5.8,12.8-14.1,17.7-22.2C598.2,378,605,365.7,614.6,355.6z"/>
<path class="st2" d="M649.8,367.9c7.7-10.9,19.8-18.1,32.8-20.8c21.9,27.7,39.2,59.1,50.4,92.6c10.1,29.3,15.2,60.2,16,91.1
	c-10.3-13.3-24.2-23.8-40.1-29.4c-11.5-4-23.6-5.3-35.6-7.1c-6.1-0.9-12.1-2.5-17.7-5.1c0.5-3.2,2.1-6.1,3.2-9.1
	c4.6-12,9.8-23.7,14.2-35.7c-14.8-5.7-29.4-11.9-44.2-17.6c5.2-10.4,8-21.8,10.2-33.1C641.1,384.6,644.3,375.5,649.8,367.9
	 M650.7,393.5c-1.9,9.1-3.9,18.3-6.8,27.1c14.5,5.9,29.1,11.6,43.6,17.4c-4.8,15.1-12.2,29.3-17,44.4c11.3,2.1,22.9,2.8,34.1,5.9
	c9.4,2.3,18.1,6.5,26.5,11.2c-6.3-49.8-26.5-97.5-56.7-137.6C661.6,367.3,653.8,380.4,650.7,393.5z"/>
<path class="st3" d="M191.6,388.7c5.7-9.4,11.7-18.8,18.8-27.2c3.4,14,10.1,27.1,18.8,38.6c5.2,7.3,11.3,14.1,15.4,22.2
	c-13.1,5.6-26.6,10.4-39.7,16c5.1,12.8,10.3,25.6,15.5,38.4c-9.5,4.2-18.5,9.7-27.1,15.5c-7.9,5.3-17.1,8.6-26.7,8.9
	c-4.6,0-9.1-1.1-13.5-2.3c1.3-11.9,4-23.6,7-35.2C166.9,437.3,177.6,412,191.6,388.7z"/>
<path class="st3" d="M650.7,393.5c3.1-13.1,10.9-26.2,23.7-31.6c30.1,40.1,50.3,87.8,56.7,137.6c-8.4-4.8-17.1-9-26.5-11.2
	c-11.2-3-22.8-3.7-34.1-5.9c4.9-15.1,12.2-29.3,17-44.4c-14.5-5.8-29.1-11.5-43.6-17.4C646.8,411.7,648.8,402.6,650.7,393.5z"/>
<path class="st1" d="M414.5,386.8c28.8-5,59.1-2.1,86.4,8.4c29.7,11.4,56.1,31.6,74.2,57.8c18.1,25.7,28.2,57.1,27.9,88.5
	c0.3,39.6-15.9,78.8-43.4,107.2c-30.3,31.8-74.1,50.5-118.1,49.7c-7-0.2-14.2,0.4-21-1.7c13.1-0.3,26.3-5.1,36-14
	c5.9-5.6,9.8-13,12.4-20.6c11.2-4.6,21.9-12.8,25.5-24.9c-3-0.4-5.9,0.1-8.9,0.4c-8,0.9-16,1.2-24.1,0.9c-2.1-0.2-4.9-0.5-5.7-2.9
	c-1.9-4.1,0.8-8.1,3-11.5c6,0.1,12.2,1.8,18.1,0.1c6.7-1.6,13.5-5.4,16.7-11.7c-5,0-10.3,0.1-14.9-2.1c-5.1-2-8.6-6.6-13.8-8.4
	c0-5.7-0.5-11.3-0.8-16.9c1.3-0.3,2.5-0.6,3.8-0.9c1.2-1.7,1.8-3.8,2-5.8c0.9-3.7-1.4-8.1-5.4-8.7c-6.6,0.4-13,3-19.7,2.9
	c1-9.9,2.4-19.7,2.4-29.7c1-6.5,0.2-13.1,0.7-19.7c1.9-3.8,5.9-6,8.9-8.9c5.1,7.7,13.6,12.7,22.7,14.1c4.3,0.5,8.8,1.9,12.9,0.1
	c5.6,0,11.2,0.4,16.8-0.4c-7.2-2.1-15.2-4.8-19.5-11.4c-1.9-5-0.4-11.5,4.1-14.7c5.5-4,12.9-4.2,19.4-3.2c3.9,1,8.3,2.2,10.8,5.6
	c1.4,1.9-0.4,3.8-1.6,5.3c-3,3.7-7.6,5.6-12,7.2c13.8,1.7,28.4-4.5,36-16.3c-9.7-9.8-24.3-11.3-37.3-12.6
	c5.9-6.8,13.4-12.8,22.4-14.5c4.4-0.5,9-0.7,13.1,1.3c3.7,1.6,6.4,4.6,9.1,7.4c-3.1-15.5-19.9-25.7-35.1-23.2
	c-4.6,0.5-9,2.3-12.8,4.8c-6.1,3.9-10,10.4-16.6,13.5c-8.2,4.5-19.7,4.4-26.5-2.6c-3.8-6.3-2.9-13.9-2.1-20.9
	c3.1-14,2.3-29.7-5.9-42C445.9,397.8,430.4,389.6,414.5,386.8 M578.8,518.6c-2.1,18.1-5.5,36.3-13.3,52.9
	c-3.8,8.5-8.3,16.7-11.7,25.3c-2.8,6.9-3.7,14.5-2.2,21.9C574.5,591.3,584.5,553.8,578.8,518.6 M553.9,555c-3.5,5.1-6.4,11-5.9,17.3
	c3.5,0,6.1-2.8,7.7-5.6c3.1-5.5,3.7-12,3.5-18.3C556.9,550.1,555.5,552.7,553.9,555z"/>
<path class="st0" d="M361.3,405.3c17.6-6.2,37.1-8.5,55.3-3.7c10.8,2.8,21.1,9.3,26.8,19.1c5.7,10.1,4.9,22.6,1.4,33.4
	c-4.3,14.3-4.2,30.9,4.3,43.7c-3.6,8.3-13.8,11.2-16.9,19.7c-0.2,12.7,0.6,25.5-1,38.1c-0.3,7.2-1.6,14.3-2.4,21.4
	c7.5,3.6,16.3,4.3,24.3,2.1c5.3-1.1,12-6,16.7-0.9c-0.2,2.1-0.8,4.1-2,5.8c-1.3,0.3-2.5,0.6-3.8,0.9c-4.8,0.8-11.3,1.4-13.5,6.5
	c-0.6,5.5-2.1,10.8-3.7,16.1c5.6-2.8,11.6-5.8,18.1-5.6c5.2,1.8,8.7,6.5,13.8,8.4c4.6,2.3,9.9,2.1,14.9,2.1
	c-3.2,6.3-10,10.1-16.7,11.7c-6,1.7-12.1,0-18.1-0.1c-3.9-0.3-8.1,1.1-10.2,4.6c-2.1,3.6-3.4,8.4-1.4,12.3c1.6,3,5.3,3.6,8.4,4.1
	c8.4,0.9,16.8,0.3,25.1-1c-6.6,6.9-16.3,10.2-25.6,11.3c0.4,6.8-3.9,12.9-9.6,16.3c-11.6,7.1-25.5,9.2-38.9,8.9
	c-17.8,0.3-35.4-4.1-51.8-11.1c-29.9-12.9-54-38.4-65.2-68.9c-8.4-21.9-11.3-45.5-10.6-68.8c0.9-32.5,10.7-65.5,31.8-90.7
	C324.1,424.9,341.8,412.6,361.3,405.3 M345.5,468.6c-4,3.3-7.6,7.7-7.9,13.1c2.5-4.1,6-8,10.8-9.1c8.8-2.1,17.4,2.7,23.5,8.6
	c7.1,6.9,17.6,11.6,27.5,8.4c4.2-1.5,8.6-4.1,10.1-8.6c-8.3,3.6-18.2,2.2-25.5-3c-5.9-3.7-9.3-10.4-15.8-13
	C360.8,461.4,351.7,463.4,345.5,468.6 M361,504.5c0,1.1-0.3,2.3,0.2,3.3c2.3,3.8,6.3,6.3,10.4,7.6c3.7,1.6,7.8,1.6,11.7,2.3
	c1.7,0.1,3.5,0.1,5.2,0c1.3-0.4,2.6-0.7,3.9-0.9c4.1-1.2,3.1-6.2,2.2-9.3c-1.5-4.4-5.7-6.9-9.9-8.2
	C376.7,497.6,367.3,498.5,361,504.5 M307.4,518.5c-5.4,32.6,2.9,67.2,22.3,93.9c1.6,2.2,3,4.6,5.2,6.3c1.2-8.7,0-17.7-3.8-25.7
	c-5.3-11.4-11.5-22.5-15.3-34.6C311.2,545.5,309.1,532,307.4,518.5 M364.2,532.4c-4.2,0.6-8.5,1.4-12.1,3.8c-1.8,1.1-3.3,3.1-3,5.3
	c0.7,15,7.3,29.2,16.4,40.9c5.5,6.5,11.6,13.1,19.8,16.1c2.7,0.9,6.7,1.1,8.1-2c2-5,1.9-10.6,2-15.9c-0.1-12.8-1.3-25.7-4.3-38.1
	c-0.6-3.6-3.2-6.6-6.6-7.9C378.1,532.1,371,531.7,364.2,532.4 M326.8,547.5c0,6.4,0.7,12.9,3.5,18.7c1.5,3.1,4.2,6,7.8,6.3
	C338.9,562.8,332.7,554.4,326.8,547.5z"/>
<path class="st0" d="M505.7,463.6c3.8-2.5,8.2-4.3,12.8-4.8c15.2-2.5,32,7.7,35.1,23.2c-2.7-2.8-5.4-5.9-9.1-7.4
	c-4.1-2-8.7-1.8-13.1-1.3c-9,1.7-16.5,7.7-22.4,14.5c13,1.4,27.6,2.8,37.3,12.6c-7.6,11.8-22.2,18-36,16.3c4.4-1.6,9-3.5,12-7.2
	c1.1-1.5,3-3.4,1.6-5.3c-2.5-3.4-6.9-4.6-10.8-5.6c-6.5-1.1-13.8-0.8-19.4,3.2c-4.5,3.2-6,9.7-4.1,14.7c4.3,6.6,12.3,9.3,19.5,11.4
	c-5.6,0.7-11.2,0.3-16.8,0.4c-6.7-1.8-13.8-3.5-19-8.5c-2.7-2.5-5-5.6-6.2-9.1c0.4-4.3,4.6-7.1,6-11.1c-6.6-1.9-12.1-7.3-14-13.9
	c-1-4.6-0.7-9.6,0.9-14.1c0.6,0.7,1.8,2.2,2.4,2.9c6.8,7,18.3,7.1,26.5,2.6C495.7,474,499.7,467.5,505.7,463.6z"/>
<path class="st2" d="M345.5,468.6c6.2-5.1,15.3-7.2,22.7-3.6c6.5,2.7,10,9.4,15.8,13c7.3,5.2,17.2,6.7,25.5,3
	c-1.4,4.4-5.9,7.1-10.1,8.6c-9.8,3.2-20.4-1.5-27.5-8.4c-6.1-6-14.7-10.7-23.5-8.6c-4.9,1.1-8.3,5-10.8,9.1
	C337.9,476.3,341.5,471.9,345.5,468.6z"/>
<path class="st1" d="M361,504.5c6.2-5.9,15.6-6.9,23.7-5.2c4.2,1.3,8.4,3.8,9.9,8.2c0.9,3.1,2,8.1-2.2,9.3c-1.3,0.3-2.6,0.5-3.9,0.9
	c-1.8,0-3.5,0-5.2,0c-3.9-0.7-8-0.8-11.7-2.3c-4.1-1.4-8.1-3.9-10.4-7.6C360.7,506.8,361,505.6,361,504.5z"/>
<path class="st1" d="M248.6,501.7c2.5-0.8,5.3-0.4,7.8-1.3c2.4,0.2,5.4-1,7.3,0.9c-1.9,11-3.4,22.2-3.5,33.4
	c-5.2-0.6-10.5-0.6-15.7,0.5c-15.1,2.7-29.7,7.7-44.9,9.5c-12.8,1.4-26.4,0.8-38-5.4c-3.3-1.6-6-4.3-9.5-5.4c-0.5-1-1.1-1.9-1.6-2.8
	c9.2,5.4,20.6,6.6,30.8,3.5C205.5,527.3,224,507.6,248.6,501.7z"/>
<path class="st2" d="M307.4,518.5c1.8,13.5,3.9,27,8.4,39.9c3.8,12.1,10,23.2,15.3,34.6c3.8,8,4.9,16.9,3.8,25.7
	c-2.2-1.6-3.6-4.1-5.2-6.3C310.3,585.6,301.9,551.1,307.4,518.5z"/>
<path class="st2" d="M578.8,518.6c5.7,35.2-4.3,72.8-27.3,100.1c-1.4-7.3-0.5-15,2.2-21.9c3.5-8.7,7.9-16.8,11.7-25.3
	C573.3,554.9,576.6,536.7,578.8,518.6z"/>
<path class="st1" d="M657.9,537.2c15.2-3.8,30.9-7.7,46.7-5.5c9.3,1.1,18.1,5,25.5,10.6c0.2-0.3,0.5-0.8,0.6-1.1l0.1-0.2
	c0.1,1.9,2.8,2.6,2,4.7c-2.2-2.7-6.2-2.8-9.2-4.2c-6.3-1.6-12.8-1.5-19.1,0c-21.9,5.8-38.9,22.1-59.8,30.3c-2.4,0.7-4.7,1.7-7.1,2.2
	c-5.8,1-11.7,2.2-17.6,1.6c2.2-11.1,3.6-22.4,3.8-33.8C635.4,543.2,646.8,539.9,657.9,537.2z"/>
<path class="st2" d="M364.2,532.4c6.8-0.8,13.9-0.4,20.3,2.2c3.4,1.3,6,4.3,6.6,7.9c3,12.5,4.1,25.3,4.3,38.1
	c-0.1,5.3,0,10.9-2,15.9c-1.4,3.1-5.4,2.9-8.1,2c-8.2-3-14.3-9.6-19.8-16.1c-9.1-11.8-15.7-25.9-16.4-40.9c-0.3-2.3,1.2-4.2,3-5.3
	C355.7,533.8,360.1,533,364.2,532.4z"/>
<path class="st2" d="M135,545.6c8.1,10.5,18.5,19.3,30.4,25.2c11.7,5.8,24.5,8.6,37.4,10.2c8.6,1.3,17.6,2,25.4,6.2
	c3.6,1.9,6.5,4.9,9,8.1c-5.9,14.5-12.1,29-17.4,43.7c11.2,4.5,22.7,8.7,33.7,13.7c-1.2,3.6-2.8,7.1-3.8,10.8
	c-3.7,11.4-4.4,23.6-9.5,34.5c-5.2,12.4-15.3,22.9-27.9,27.9c-3.5,1.5-7.2,2.3-10.8,3.3c-24.3-30.5-42.8-65.8-53.8-103.3
	C139.7,599.9,135.1,572.8,135,545.6 M152.8,576.8c6.6,49.7,26.2,97.8,56.9,137.5c7.6-2.5,13.4-9.2,17.6-16
	c7.1-11.4,7-25.4,11.4-37.8c1.2-1.7-1-2.3-2.1-2.7c-10.6-4.1-21.2-8.2-31.6-12.8c6.1-15.8,13.1-31.3,18.7-47.3
	c-6.2-3.4-13.3-4.1-20.1-5.1C185.9,590.2,167.9,586.5,152.8,576.8z"/>
<path class="st2" d="M326.8,547.5c5.9,6.9,12.1,15.3,11.3,25c-3.6-0.3-6.3-3.2-7.8-6.3C327.4,560.4,326.8,553.8,326.8,547.5z"/>
<path class="st2" d="M553.9,555c1.6-2.3,3.1-4.8,5.3-6.6c0.2,6.2-0.5,12.7-3.5,18.3c-1.6,2.8-4.2,5.6-7.7,5.6
	C547.4,565.9,550.4,560,553.9,555z"/>
<path class="st2" d="M681.1,577c9.9-6.9,21.4-12,33.5-12.8c11.5-0.7,22.9,3.1,32.5,9.2c-7,66-37,129.1-82.9,177c3-21-2-43-13.8-60.6
	c-5.3-8.3-11.7-15.7-17.2-23.8c-1.8-3-4-6-4.4-9.5c14.9-5.5,29.5-11.9,44.4-17.6c-6.2-15.9-13.2-31.6-18.8-47.7
	C664,587.7,672.8,582.7,681.1,577 M704.5,577.6c-13,4.5-23.3,14-35.7,19.9c2.9,7.4,5.8,14.7,8.7,22.1c3.3,8.6,7.4,16.9,9.9,25.7
	c-14.3,5.8-28.5,11.5-42.8,17c2.6,4.6,6.3,8.5,9.3,12.8c8.6,11.9,16.4,24.9,19.3,39.4c2.1-0.8,3.1-3,4.5-4.7
	c28-38.2,46.3-83.4,53-130.3c1-1.8-1.2-2.2-2.3-2.5C720.6,574.6,712.2,574.9,704.5,577.6z"/>
<path class="st3" d="M704.5,577.6c7.7-2.6,16.2-3,24-0.6c1.2,0.3,3.4,0.7,2.3,2.5c-6.7,46.9-25.1,92-53,130.3
	c-1.4,1.7-2.3,3.9-4.5,4.7c-2.9-14.6-10.7-27.6-19.3-39.4c-3-4.3-6.8-8.1-9.3-12.8c14.3-5.6,28.6-11.3,42.8-17
	c-2.5-8.8-6.7-17.1-9.9-25.7c-3-7.3-5.8-14.7-8.7-22.1C681.1,591.6,691.5,582,704.5,577.6z"/>
<path class="st3" d="M152.8,576.8c15.1,9.7,33.1,13.5,50.6,15.7c6.8,1,13.9,1.8,20.1,5.1c-5.6,16-12.6,31.5-18.7,47.3
	c10.4,4.6,21,8.7,31.6,12.8c1.1,0.4,3.3,1,2.1,2.7c-4.3,12.5-4.3,26.4-11.4,37.8c-4.2,6.7-9.9,13.4-17.6,16
	C179.1,674.5,159.5,626.4,152.8,576.8z"/>
<path class="st2" d="M450.5,591.3c2.3-5.1,8.7-5.7,13.5-6.5c0.3,5.6,0.8,11.3,0.8,16.9c-6.5-0.2-12.4,2.8-18.1,5.6
	C448.4,602.1,449.9,596.8,450.5,591.3z"/>
<path class="st1" d="M278.9,650c2.6-4.7,6.4-8.6,10.3-12.2c2.6,2.1,4,5.3,6,7.9c4.8,6.5,10.2,12.7,15.7,18.7
	c-6.6,5-11.5,11.8-15.8,18.8c-9.4,15.1-17.9,31.5-31.7,43.3c-8.8,7.1-19.8,12.9-31.4,12.5c6.4-2.3,12.5-5.8,17.1-10.9
	c7.9-8.7,11.6-20.2,14.6-31.4C267.7,680.8,270.7,664.3,278.9,650z"/>
<path class="st1" d="M541.4,690.6c9.6-6.4,18.4-13.7,27-21.4c3.4,4.7,7.8,8.5,12.6,11.8c13.9,9.4,29.3,16.8,41.8,28.1
	c10.8,9.4,18.8,22.5,20.3,36.9c-0.6-0.7-1.7-2-2.3-2.7c-4.6-10.1-13.7-17.4-23.8-21.4c-11.4-4.9-23.7-7.2-35.7-10.2
	C566.7,708,551.3,702.7,541.4,690.6z"/>
<path class="st1" d="M405,716.2c11,2.3,22.3,3.5,33.5,3.8c-0.7,6.2-0.3,12.5,1,18.5c2.9,14.4,7.5,28.4,9,43.1
	c1.4,12.6,0.4,26-5.7,37.3c-1.4,2.7-3.7,5-4.1,8.2c-1.3,0.9-2.5,1.8-3.9,2.3c5.5-9,6.5-20.3,3.5-30.3c-4.6-16.3-15.3-29.8-23.2-44.6
	c-3.2-6.1-6.7-12.2-8.3-18.9C405.6,729.2,404.1,722.7,405,716.2z"/>
<path class="st2" d="M311.4,731.4c5.7-4.2,12.3-7.3,19.4-8.3c6.2,15,12.2,30.1,18.2,45.1c0.9,0,1.8-0.2,2.7-0.6
	c12.6-5.1,25.1-10.4,37.9-15.1c3.6,8.9,8.4,17.3,13.8,25.2c7.1,10.6,12.8,22.9,12.7,35.9c0.3,9.8-2.9,19.3-7.9,27.7
	c-0.6,0.9-1.2,2.5-2.6,2c-65.5-7.3-128.1-37.1-175.7-82.6c15.4,1.8,31.3,0,45.6-6C288.9,749.3,299.9,739.8,311.4,731.4 M306.8,748.9
	c-12.3,9.5-26.2,17.3-41.4,21c10,8.6,21.4,15.3,32.7,22.1c32.2,18.2,67.9,30.6,104.6,35.2c1.7-6,2.8-12.4,1.6-18.6
	c-1.1-8.7-5.1-16.8-10-23.9c-3.9-5.7-7.4-11.7-10.7-17.8c-13.6,5.4-27.2,10.8-40.6,16.5c-7.1-15.2-12-31.4-19.3-46.5
	C317.9,740.4,312.3,744.6,306.8,748.9z"/>
<path class="st2" d="M559.5,728.2c3.5,0.8,6.8,2.3,10.2,3.2c10.6,3.2,21.8,4.2,32,8.7c12.6,5.3,23.2,15.6,28.2,28.4
	c1.4,3.3,2.1,6.8,3.2,10.3c-51.7,41.5-117.3,65.3-183.6,66.5c4.7-4.3,9.9-8.1,13.7-13.2c11.7-13.2,18.1-30.3,20.7-47.6
	c2.1-11.3,2-23.5,8-33.7c0.6-0.8,1.3-2.7,2.6-1.8c15,5.9,29.9,11.8,44.8,18c1.5,0.6,3,1.1,4.5,1.4
	C548.6,754.8,554.7,741.8,559.5,728.2 M549.7,783.2c-16.4-6.7-32.8-13.3-49.3-19.7c-0.5-0.1-1.4-0.3-1.9-0.4
	c-2.7,13.5-3.5,27.3-7.5,40.6c-2.3,8.3-5.8,16.3-10.4,23.6c49.8-6.2,97.6-26.4,137.6-56.6c-3.7-9.5-12.3-16.3-21.4-20.3
	c-9.7-4.4-20.5-4.9-30.6-8.3C560.6,755.7,555.4,769.6,549.7,783.2z"/>
<path class="st3" d="M306.8,748.9c5.5-4.3,11.1-8.5,17.1-12.2c7.3,15.1,12.2,31.3,19.3,46.5c13.4-5.7,27-11.1,40.6-16.5
	c3.3,6.1,6.8,12.1,10.7,17.8c4.9,7.2,8.9,15.2,10,23.9c1.2,6.2,0,12.6-1.6,18.6c-36.8-4.6-72.4-17-104.6-35.2
	c-11.3-6.8-22.7-13.5-32.7-22.1C280.6,766.2,294.5,758.4,306.8,748.9z"/>
<path class="st3" d="M549.7,783.2c5.8-13.6,10.9-27.5,16.6-41.2c10,3.4,20.9,3.9,30.6,8.3c9.1,4,17.7,10.8,21.4,20.3
	c-40,30.2-87.8,50.4-137.6,56.6c4.5-7.3,8.1-15.3,10.4-23.6c4-13.2,4.8-27.1,7.5-40.6c0.5,0.1,1.4,0.3,1.9,0.4
	C516.9,769.9,533.3,776.6,549.7,783.2z"/>
<path class="st3" d="M438.2,894.1c2.1-3.5,2.1-8,4-11.7c1.6,3.8,1.6,8.2,3.7,11.7c3.4,1.3,7.1,1.8,10.7,2.9
	c-3.3,2.2-7.3,2.2-10.8,3.7c-1.7,3.5-2.1,7.5-3.4,11.1c-2.3-3.3-2-7.6-3.9-11.1c-3.5-1.5-7.5-1.8-11-3.4
	C430.7,895.5,434.7,895.5,438.2,894.1z"/>
</svg>
