<?xml version="1.0" encoding="utf-8"?>
<!-- Generator: Adobe Illustrator 19.0.0, SVG Export Plug-In . SVG Version: 6.00 Build 0)  -->
<svg version="1.1" id="Layer_1" xmlns="http://www.w3.org/2000/svg" xmlns:xlink="http://www.w3.org/1999/xlink" x="0px" y="0px"
	 viewBox="584.2 129.9 1763.7 581.5" style="enable-background:new 584.2 129.9 1763.7 581.5;" xml:space="preserve">
<g id="_x23_000000ff">
	<path d="M918.2,129.9h148.3c-26.5,129.7-52.9,259.5-79.4,389.2c-7.6,36.6-19.8,72.9-40.5,104.3c-16.8,25.5-39.8,46.9-66.9,61.1
		c-34.2,18.1-73.2,25.1-111.5,26.4c-14.7,1.4-29.5,0-44.2-1.3c-34-3.7-68.5-14.3-94.9-36.7c-20.7-17.3-34.6-41.9-40.4-68.2
		c-4.6-19.9-5.1-40.5-3.7-60.8c1.6-23.4,5.2-46.7,10.5-69.6c45.4,0,90.9,0,136.3,0c-4.8,17.6-9.3,35.3-11.3,53.5
		c-1.2,11.6-1.3,23.7,2.9,34.8c3.4,9.6,10.8,17.8,20.1,21.9c12.9,5.8,27.6,5.4,41.4,3.3c14.1-2.1,27.5-9.5,35.8-21.4
		c12.2-17.2,16.3-38.4,20.5-58.7C866.7,381.8,892.3,255.8,918.2,129.9z"/>
	<path d="M1312,129.9h149.8c31.2,189.7,62.2,379.5,93.3,569.2c-49.7,0-99.4,0-149.1,0c-4.6-34-9-68-13.6-102.1
		c-66.7,0-133.3,0-200,0c-19.1,34-38.2,68.1-57.4,102c-51.8,0-103.7,0-155.5,0C1090.4,509.4,1201.2,319.6,1312,129.9 M1250,487
		c43.2,0,86.5,0,129.7,0c-7.1-68.2-14.3-136.5-21.5-204.7l-1.4-0.1C1321,350.4,1285.6,418.8,1250,487z"/>
	<path d="M1594.3,129.9h204.1c6,109,12,218,17.9,327c1.8,31.6,3.3,63.3,5.3,94.9c0.4-0.1,1.1-0.4,1.5-0.5
		c63.8-140.5,127.4-281,191.3-421.5h156.3c-98.3,189.8-196.6,379.5-295,569.2c-56.3,0-112.7,0-169,0
		c-12.3-121.8-24.6-243.7-36.9-365.6c-10.7,18.5-25,35.2-42.6,47.6c-26.4,18.8-59.1,26.9-91.1,27.8c4.5-20.8,9-41.5,13.6-62.2
		c9.8-0.4,19.6-2.5,28.4-6.8c11-5.3,20.3-13.8,27.2-23.8c9.3-13.6,14.4-29.7,16.9-45.9c-19.1,0-38.2,0-57.3,0
		C1574.6,223.4,1584.3,176.6,1594.3,129.9z"/>
	<path d="M2199.4,129.9h148.5c-0.4,1.5-0.8,2.9-1.1,4.4c-39.3,188.3-78.5,376.5-117.9,564.8c-49.4,0-98.9,0-148.3,0
		C2120.1,509.4,2159.6,319.6,2199.4,129.9z"/>
</g>
</svg>
