<?xml version="1.0" encoding="utf-8"?>
<!-- Generator: Adobe Illustrator 19.0.0, SVG Export Plug-In . SVG Version: 6.00 Build 0)  -->
<svg version="1.1" id="Layer_1" xmlns="http://www.w3.org/2000/svg" xmlns:xlink="http://www.w3.org/1999/xlink" x="0px" y="0px"
	 viewBox="-128.598 289.186 263.378 263.396" style="enable-background:new -128.598 289.186 263.378 263.396;"
	 xml:space="preserve">
<style type="text/css">
	.st0{fill:#333333;}
	.st1{fill:#01B2AA;}
</style>
<g id="_x23_333333ff">
	<path class="st0" d="M-4.63,289.42c26.55-1.6,53.54,5.05,76.22,18.97c26.02,15.79,46.26,40.86,56.08,69.68
		c10.25,29.69,9.4,63.06-2.44,92.16c-11.47,28.58-33.36,52.78-60.61,67.12c-25.08,13.37-54.56,18.1-82.59,13.55
		c-29.23-4.61-56.64-19.58-76.47-41.53c-19.11-20.96-31.16-48.24-33.61-76.52c-2.39-25.92,3.07-52.52,15.67-75.31
		c14.45-26.43,38.25-47.6,66.22-58.82C-32.94,293.38-18.85,290.25-4.63,289.42 M-58.58,327.24c-24.43,16-42.09,41.86-48.06,70.45
		c5.59,0.06,11.18,0.02,16.77,0.02c5.62-22.52,19.69-42.77,38.87-55.84c18.22-12.59,40.91-18.43,62.95-16.33
		c22.04,1.94,43.23,11.93,58.82,27.62c16,15.85,26.04,37.52,27.78,59.97c-13.97,0.02-27.94,0.02-41.91,0
		c-0.05-14.9,0.01-29.8-0.03-44.69c-17.84-6.67-35.67-13.34-53.5-20c-17.94,6.64-35.86,13.33-53.79,19.99
		c-0.05,14.9,0.01,29.8-0.03,44.7c-19.35,0.04-38.7-0.01-58.05,0.02c-2.17,29.74,8.16,60.13,28.13,82.29
		c19.08,21.6,46.77,35.33,75.54,37.26c25.59,1.96,51.75-5.25,72.69-20.09c22.99-16.08,39.5-41.05,45.24-68.52
		c-5.59-0.05-11.18-0.02-16.77-0.02c-6.03,24.23-21.9,45.79-43.29,58.69c-17.72,10.85-39.05,15.57-59.7,13.36
		c-22.6-2.26-44.19-13.02-59.7-29.6c-14.82-15.63-24.06-36.4-25.73-57.87c13.87-0.03,27.75-0.01,41.62-0.01
		c10.26,21.55,20.38,43.16,30.62,64.72c0.01-26.77,0.02-53.55,0-80.32c-2.56,0.02-5.12,0.01-7.67,0.02
		c-2.51-5.1-4.97-10.22-7.4-15.35c10.18-0.03,20.36-0.03,30.54-0.01c0.04,14.46,0,28.93,0.02,43.39c5.15,0.05,10.29,0.03,15.43,0.02
		c0.04-14.47-0.01-28.94,0.03-43.41c10.1-0.02,20.2-0.02,30.31,0.01c-2.37,5.12-4.76,10.23-7.18,15.33
		c-2.56-0.01-5.11,0.01-7.67,0.01c0,26.77-0.01,53.53,0.01,80.3c10.14-21.56,20.17-43.17,30.33-64.71
		c19.44-0.01,38.88,0.01,58.32-0.01c2.2-30.05-8.39-60.76-28.74-82.98c-18.65-20.75-45.3-34.09-73.11-36.43
		C-11.91,306.92-37.63,313.34-58.58,327.24z"/>
</g>
<g id="_x23_01b2aaff">
	<path class="st1" d="M-58.58,327.24c20.95-13.9,46.67-20.32,71.69-18.02c27.81,2.34,54.46,15.68,73.11,36.43
		c20.35,22.22,30.94,52.93,28.74,82.98c-19.44,0.02-38.88,0-58.32,0.01c-10.16,21.54-20.19,43.15-30.33,64.71
		c-0.02-26.77-0.01-53.53-0.01-80.3c2.56,0,5.11-0.02,7.67-0.01c2.42-5.1,4.81-10.21,7.18-15.33c-10.11-0.03-20.21-0.03-30.31-0.01
		c-0.04,14.47,0.01,28.94-0.03,43.41c-5.14,0.01-10.28,0.03-15.43-0.02c-0.02-14.46,0.02-28.93-0.02-43.39
		c-10.18-0.02-20.36-0.02-30.54,0.01c2.43,5.13,4.89,10.25,7.4,15.35c2.55-0.01,5.11,0,7.67-0.02c0.02,26.77,0.01,53.55,0,80.32
		c-10.24-21.56-20.36-43.17-30.62-64.72c-13.87,0-27.75-0.02-41.62,0.01c1.67,21.47,10.91,42.24,25.73,57.87
		c15.51,16.58,37.1,27.34,59.7,29.6c20.65,2.21,41.98-2.51,59.7-13.36c21.39-12.9,37.26-34.46,43.29-58.69
		c5.59,0,11.18-0.03,16.77,0.02c-5.74,27.47-22.25,52.44-45.24,68.52c-20.94,14.84-47.1,22.05-72.69,20.09
		c-28.77-1.93-56.46-15.66-75.54-37.26c-19.97-22.16-30.3-52.55-28.13-82.29c19.35-0.03,38.7,0.02,58.05-0.02
		c0.04-14.9-0.02-29.8,0.03-44.7c17.93-6.66,35.85-13.35,53.79-19.99c17.83,6.66,35.66,13.33,53.5,20
		c0.04,14.89-0.02,29.79,0.03,44.69c13.97,0.02,27.94,0.02,41.91,0c-1.74-22.45-11.78-44.12-27.78-59.97
		c-15.59-15.69-36.78-25.68-58.82-27.62c-22.04-2.1-44.73,3.74-62.95,16.33c-19.18,13.07-33.25,33.32-38.87,55.84
		c-5.59,0-11.18,0.04-16.77-0.02C-100.67,369.1-83.01,343.24-58.58,327.24z"/>
</g>
</svg>
