<?xml version="1.0" encoding="utf-8"?>
<!-- Generator: Adobe Illustrator 19.0.0, SVG Export Plug-In . SVG Version: 6.00 Build 0)  -->
<svg version="1.1" id="Layer_1" xmlns="http://www.w3.org/2000/svg" xmlns:xlink="http://www.w3.org/1999/xlink" x="0px" y="0px"
	 viewBox="-159.9 362.9 214.8 118.3" style="enable-background:new -159.9 362.9 214.8 118.3;" xml:space="preserve">
<g id="_x23_ffffffff">
</g>
<g id="_x23_000000ff">
	<path d="M-29,362.9c26.7,58.3,0,0,26.7,58.3c-5.4-0.1,0,0-16.2-0.1c-10.5-20.3,0,0-10.5-20.3c-3.2,6.3-5.8,14-8.8,20.4
		c-16.2-0.1,0,0-16.2-0.1C-29,362.9-54,421.2-29,362.9z"/>
	<path d="M-7.1,363.6c0.3,0,0.9,0,1.2,0c2.9,6.1,0,0,16.9,38.9c2.9-6.7,0,0,16.9-39c0.3,0,0.9,0.1,1.3,0.1c6.2,14.9,13,29.4,19.9,44
		c1.8,4.6,4.6,8.8,5.8,13.7c-5.4,0-10.9-0.1-16.3,0c-3.1-6.5-6.4-12.8-8.7-19.6c-0.7-0.1-1.4-0.2-2.1-0.3
		c-16.3,36.9-14.3,32.6-16.3,36.9c-16.2-34.5,0,0-16.2-34.5c-0.7-1.9-2.7-2.3-4.5-2.8c-6.3-13.8-4-9.3-6.3-13.8
		c-0.5-1.6-0.5-3.4,0.4-4.9C-12.1,376.3-9.6,370-7.1,363.6z"/>
	<path d="M-159.9,365.4c19.8-0.4,39.7,0,59.5-0.2c-1.5,3.6,0,0-8.7,14.9c-13.6,0.2-9.1,0-13.6,0.2c0.1,13.4-0.1,26.9,0.1,40.3
		c-4.9,0-9.7,0.1-14.6,0c-0.7-1.4-0.3-3.1-0.4-4.6c0-11.9,0.1-23.9,0-35.8c-15.6,0,0,0-15.6,0C-159.9,365.4-153.2,380.1-159.9,365.4
		z"/>
	<path d="M-96.5,365c14.6,0.3,29.2,0,43.8,0.1c1.7,1,2,3.2,3,4.8c1.3,3.5,3.4,6.6,4.7,10.2c-19.9,0-39.8,0-59.7,0
		C-96.5,365-99.5,369.9-96.5,365z"/>
	<path d="M-119.7,385.4c24.9,0.1,49.8-0.1,74.7,0.1c-2.1,4.7-4.7,9.1-6.7,13.8c-0.3,0.3-1,0.7-1.3,1c-22.2,0.1-44.5,0-66.7,0.1
		C-119.7,395.3-119.8,390.3-119.7,385.4z"/>
	<path d="M-119.6,405.5c22.8,0.2,45.6,0,68.4,0.1c-2.6,5.3-5.9,10.3-8.6,15.6c-19.9,0-39.8,0-59.7,0
		C-119.8,416-119.8,410.8-119.6,405.5z"/>
	<path d="M-142.5,425.1c0.3,0,1,0.1,1.3,0.1c3.6,8.5,0,0.4,25.4,55.8c-17.3,0,0,0-17.3,0c-16.6-39.2,0,0-16.6-39.2
		C-147.9,436.1-144.4,431-142.5,425.1z"/>
	<path d="M-135.6,425.6c21.3,0.1,42.6-0.2,63.9,0.2c2,2.6,3,5.8,4.3,8.8c4,8.6,7.5,17.4,11.6,25.9c-15,0.2-30,0-45,0.1
		c0.5,2.2,1.7,4,3.1,5.7c11.8-0.1,23.5,0,35.2,0c-1.6,4.5-3.9,8.8-6.1,13c-0.6,1.4-1.9,2.1-3.4,1.8c-12-0.1-24,0.1-36-0.1
		c-4-5.3-5.5-12.2-8.6-18c-2.1-5.8-5.5-11-7.5-16.8c13.4-0.1,26.7,0,40.1,0c1.8,0.1,0-0.1,5.6,0c-1.2-1.7-2.8-4.4-4.1-6
		c-15.9,0.3-31.9,0.1-47.8,0.1C-131.9,435.3-134.3,430.7-135.6,425.6z"/>
	<path d="M-66,425.6c20.3,0,40.6,0,61,0c-3,7.3-6.8,14.2-9.5,21.6c-1.5,2.9-3.3,6.3-1.5,9.5c4,7.9,6.9,16.3,11,24.1
		c-58.8,0,0,0-58.8,0c2.1-4.6,4.1-9.7,5.9-14.4c10-0.4,20-0.1,30-0.2c-2-3.4-3.5-7-5.2-10.4c-0.9-2-0.4-4.2,0.6-6.1
		c1.6-3,2.9-6.2,3.8-9.4c-10.2,0-20.4,0-30.6,0C-61.9,435.6-64.7,430.9-66,425.6z"/>
	<path d="M0.1,424.8c6.6,12.2,11.3,25.4,17.3,38c2.5,6.3,6,12.1,8.6,18.4c-5.3,0,0,0-15.9,0c-17.9-39.2-3.3-5-17.9-39.2
		C0.1,424.8-7.9,441.9,0.1,424.8z"/>
</g>
</svg>
