<?xml version="1.0" encoding="utf-8"?>
<!-- Generator: Adobe Illustrator 19.0.0, SVG Export Plug-In . SVG Version: 6.00 Build 0)  -->
<svg version="1.1" id="Layer_1" xmlns="http://www.w3.org/2000/svg" xmlns:xlink="http://www.w3.org/1999/xlink" x="0px" y="0px"
	 viewBox="-129 283.9 334.8 272.8" style="enable-background:new -129 283.9 334.8 272.8;" xml:space="preserve">
<style type="text/css">
	.st0{fill:url(#SVGID_1_);}
	.st1{fill:url(#SVGID_2_);}
</style>
<g id="_x23_ffffffff">
	<path d="M132.7,283.9h2.1c-1.7,2.7-4.6,4-7,5.9c-2.3,12.6-5.4,25-8.2,37.5c11.1,0.2,22.3-0.1,33.4,0.2c3.3,0,6.5,1.4,9.1,3.4
		c14.3,51.7,28.6,103.3,43,155c0.3,1.4,0.5,2.8,0.7,4.2c-1.9-3.8-4.1-7.3-6.4-10.8c-21.1-33-42.5-65.9-65.6-97.5
		c-8.4-11.2-16.7-22.7-27-32.3c-7.6,7.9-16.9,15.1-28.3,16.1c-3-17.2,2.7-34.5,10.4-49.6c-9.5,8.3-17.5,19.1-19.7,31.8
		c-1.2,5.7-0.9,11.5-0.1,17.2c-14.6-9.9-23.5-26.4-26-43.6c-26.9,7.4-54,15.3-78.2,29.4c0.2,2.9,3.2,0.9,4.8,0.6
		c14.3-4.2,28.5-8.9,42.9-13c-0.8,6.8-1.6,14.3,2.2,20.3c1.9,2.6,4.3,4.9,7.2,6.5c-19.2-2.6-38.5-4.3-57.7-6.7c-0.2,4,4,2.9,6.5,3.8
		c14.1,4.4,28.1,9.3,42,14.2c2.4,0.9,5.2,2.6,5.6,5.4c0.5,2.6-1.1,4.9-2.4,7c-2.3,3.5-4,7.4-5.8,11.1c26,17.2,51.8,34.8,77.9,51.9
		c-6.2,4.4-12.5,8.5-18.8,12.8c11.3,21.4,22.1,43.1,33.5,64.5c-12.6-9.2-24.9-19-38.8-26c-4.5-2.5-9.8-2.7-14.8-2.9
		c-2.7,0-5.8-0.1-8.1,1.8c-11.8,10.2-22.3,21.8-32.4,33.6c-2.7,3.1-4.6,7.2-4.1,11.3c0.1,3.8,2.4,6.9,4.5,9.8
		c-12.6-2.5-24.8-6.4-37-10.3c-3.8-0.8-5.3-4.6-7-7.6c-4.3-8.6-9-17-12.7-25.8c0.9-8.7,2.7-17.4,3.5-26.1c5.6,5.6,11.3,12.1,19.4,14
		c6.7,1.5,13.2-2.3,17.8-6.9c4-3.7,7.2-8.1,10.5-12.5C2.3,488.9,0.1,497-6,502c-5.4,4.4-12.5,5.8-19.2,6.7
		c-4.9,1.1-8.2,6.2-7.3,11.2c0.9,7.3,7.2,12.8,14,14.8c4.9,1.7,11.1,0.5,14.2-4c10.5-15.8,20.2-32,30.2-48c3.9-6,5.3-14.1,1.9-20.6
		c-2.4-5.3-7.4-8.9-10.6-13.7c8,0.4,15.8,4.1,21,10.3c4.6,5.5,7.2,12.3,9.2,19.1c1.5-10.1,0.1-21-5.4-29.7
		c-4-6.5-10.2-11.4-16.7-15.3c-9.7-6.1-20.3-10.6-30.7-15.5c-8.9-4.1-18.3-6.9-27.5-10.3c4.4-2.5,9.1-4.5,13.6-6.9
		c0.1-0.4,0.3-1.1,0.3-1.5c-8.3-0.3-16.7,1.2-25,0.1c-4.1-0.5-8.7,0.5-12.5-1.5c-0.3-2.8-3.5-1.6-5.3-1.3
		c-6.5,1.8-13.1,4.3-18.3,8.7c-2.2,2.1-4.9,4.8-4.2,8.2c1.1,2,3.4,2.8,5.3,3.7c-4.9,6.2-11.7,11.8-20,12.1
		c-12,0.6-22.3-7.4-29.8-15.9l-0.2,0.9v-1c8.7-8,17.7-15.6,26.5-23.4c5.8-5.1,12.1-9.8,17.6-15.4c4.9-4.5,9.5-9.7,15.9-12.1
		c4.2-1.9,9-1.8,13.5-1.5c-2.5-1.8-5.3-4.2-5.2-7.5c0.1-3.3,2.8-5.6,5.1-7.7c6.6-5.5,13.5-10.7,21-15c31.4-17.6,65.9-28.7,101-36.2
		c-1.6,11.2-3.3,22.5-4.5,33.8c6.9-10.4,17.5-17.5,27.8-24.2C103.4,295.7,117.4,288.1,132.7,283.9 M-8.8,350.2
		c-3.7,0.9-7.3,2.3-11,3.3c0,0.4,0.2,1.2,0.2,1.6c7.2,0,14.3,0,21.5,0c-0.1-2.7-0.3-5.4-0.5-8C-2,347.9-5.4,349.1-8.8,350.2z"/>
	<path d="M-74.5,432.6c6.8-4.8,15.4-6.1,23.5-6c16.5,0.9,32.7,7.1,45.7,17.3c4.7,4.1,9.5,8.6,11.9,14.6c-15-6.6-30.6-11.8-46.7-14.9
		c-7.1-1.1-14.9-2.5-21.7,0.5c-4.4,2-5.2,7.6-3.6,11.7c3.4,10.3,10.6,18.7,17.2,27l0.3,0.9c-4.6-1.3-8.7-3.6-12.8-6
		c-13.3-8.1-25.3-17.9-37.1-27.9c-4.1-3.9-8.7-7.3-12.5-11.5C-98.3,439.1-85.1,439.5-74.5,432.6z"/>
</g>
<g id="_x23_f37027ff">
	<linearGradient id="SVGID_1_" gradientUnits="userSpaceOnUse" x1="22.137" y1="389.015" x2="97.81" y2="389.015">
		<stop  offset="0" style="stop-color:#F16029"/>
		<stop  offset="1" style="stop-color:#F7901F"/>
	</linearGradient>
	<path class="st0" d="M23,347.9c2.3-6.1,8.6-10.4,15.1-10.6c0.6,6.2,3.7,11.8,6.3,17.4c15.7,29.9,34.9,57.7,53.3,85.9
		c-24.6-14.4-49-29.2-73.6-43.6c5.6-5.4,11-11.3,14.1-18.6c1.8-4.1,2.2-9.6-1-13.2c-2.8-3.6-7.4-4.7-11.4-6.4
		C22,357,21.3,351.7,23,347.9z"/>
	<linearGradient id="SVGID_2_" gradientUnits="userSpaceOnUse" x1="99.02" y1="444.185" x2="179.59" y2="444.185">
		<stop  offset="0" style="stop-color:#F16029"/>
		<stop  offset="1" style="stop-color:#F7901F"/>
	</linearGradient>
	<path class="st1" d="M99,389.7c26.6,36.1,53.7,71.9,80.6,107.7c0,0.3,0,1,0,1.3c-26.6-11.6-53.5-22.5-80.2-33.8L99,464
		c9-2.8,18-5.7,26.9-8.6c-0.4-2.5-1.7-4.7-2.6-7c-6.6-15.7-13.2-31.3-19.9-47C102.1,397.4,99.8,393.8,99,389.7z"/>
</g>
</svg>
