<?xml version="1.0" encoding="utf-8"?>
<!-- Generator: Adobe Illustrator 19.0.0, SVG Export Plug-In . SVG Version: 6.00 Build 0)  -->
<svg version="1.1" id="Layer_1" xmlns="http://www.w3.org/2000/svg" xmlns:xlink="http://www.w3.org/1999/xlink" x="0px" y="0px"
	 viewBox="103.2 342 426.8 126" style="enable-background:new 103.2 342 426.8 126;" xml:space="preserve">
<style type="text/css">
	.st0{fill:#FD7F26;}
</style>
<g id="_x23_000000ff">
</g>
<g id="_x23_fd7f26ff">
	<path class="st0" d="M469.6,342c4.6,0.8,8.6,4.2,9.5,8.9c0.8,4.1-1.8,7.8-4.7,10.5c0.2,11.2,0.3,22.8,4.7,33.2
		c0.7,0.1,2.2,0.2,2.9,0.3c6.1-7.7,9.3-17.1,12.6-26.2c-2.6-2.7-4-6.9-2-10.4c2.4-6.2,11.5-7.3,15.9-2.7c2.6,2.8,2.4,7.3,0.8,10.6
		c-1.6,3-4.9,4.2-7.9,5.3c-2.5,7.6-4.7,15.4-5.5,23.4c-0.3,2.7,0.4,5.3,1,7.9c1.9-0.1,4.1,0.1,5.7-1.3c4.4-3.3,7.3-8.1,10.2-12.6
		c-1.1-2.8-2.3-6.1-0.7-9c2-4.3,7.4-7.7,11.9-5.2c5.6,2.3,7.8,10.1,3.7,14.7c-2.3,3.4-6.6,4-10.3,2.8c-3.9,7.9-7.1,16.5-6.3,25.4
		c0.1,3.3,3.8,5.5,3.2,8.9c-0.5,2-2.4,3.4-3.2,5.2c-0.5,4,2.9,7.1,3.3,10.9c-0.4,3.4-2.9,5.9-4.7,8.7c-2.3,3-2.5,7-5,9.9
		c-2.4,2.8-6,4-9.4,4.9c-11.3,2.7-22.9,1.2-34.4,1.6c-7.1-0.9-14.3-0.8-21.1-2.8c-4.5-1.2-8.4-4.6-9.6-9.2c-1.3-4.6-6-7.5-6.7-12.3
		c0-4.3,4.3-7.3,4.1-11.6c-1-1.9-2.6-3.4-3.4-5.4c-0.1-2.9,2-5.2,2.5-7.9c0.7-9.2-2.1-18.2-6.4-26.2c-5.4,1.8-11.2-2.2-11.8-7.8
		c-1.1-5.7,4.4-10.2,9.5-10.9c3.8,0.5,7.4,3.3,8.3,7.1c0.5,2.7-0.2,5.3-0.8,7.9c2.7,4,5.5,8.1,9.1,11.4c1.7,1.5,3.8,3.1,6.2,2.5
		c1.7-0.5,1.6-2.4,1.8-3.8c0.4-9.5-2.3-18.8-5.6-27.6c-3-1.1-6.8-1.9-8.1-5.1c-1.3-3.6-0.8-7.8,1.5-10.9c3.6-3.4,9.8-3.3,13.5-0.1
		c1.9,2.1,2.4,5,2.4,7.7c0.2,3-3.1,5.5-1.6,8.6c2.9,8.4,6.2,17.1,12.5,23.6c1.7-1.5,3.3-3.1,3.8-5.3c2.6-9.2,2.8-18.9,2.8-28.4
		c-4.8-3.3-6.1-10.3-2.5-15C463.1,343.4,466.6,342.9,469.6,342 M469,349.3c2.2,1.5,4.7,1.8,6.8-0.2c0-2.8-1.8-4.6-4.1-5.9
		C469.8,344.7,469,346.9,469,349.3 M495.5,355.5c0.2,1.4,0.4,2.8,0.6,4.2c1.9,0,3.9,0,5.8,0c-0.1-2,0.6-5.1-2-5.7
		C498.2,353.3,496.8,354.7,495.5,355.5 M436.8,354.9c-0.9,1.9-1,3.9-0.1,5.9c1.7-0.1,3.5-0.1,5.2-0.2c0-1.8-0.1-3.6-0.2-5.5
		C440,355.1,438.4,355,436.8,354.9 M415.6,377.1c-0.1,1.3,0,2.5,0,3.8c0.6,2.5,4,2.5,5.5,0.9c0.8-1.4,0.3-3.2,0.3-4.7
		C419.5,377,417.6,377.1,415.6,377.1 M516.7,377.2c0.1,1.8,0,4.1,1.7,5.2c1.1,0.3,2.2,0.5,3.3,0.7c0.4-0.5,1.2-1.6,1.6-2.2
		c-0.3-1.3-0.5-2.6-0.8-3.9C520.6,377,518.6,377.1,516.7,377.2 M462,408.9c-13.4,1.3-25.6,9.7-32.6,21.1c0.8,1.1,1.7,2.2,2.6,3.3
		c6.6-4.1,11.8-10.2,18.9-13.5c5.7-2.8,12.1-2.8,18.3-3.7c2.6,0.5,5.3,0.6,7.9,0.8c7.9,0.8,15.2,4.6,21.1,9.7c2.6,2,4.7,4.9,7.8,6.1
		c1.9-0.6,3.4-2.9,1.9-4.7c-5.3-7.2-12.5-13.1-20.8-16.5c-5.4-2.3-11.3-2.8-17.1-3.6C467.3,407.8,464.7,408.7,462,408.9
		 M459.9,430.9c2.7,3.9,6.3,7.1,9.3,10.8c3.1-3.6,6.6-6.9,9.5-10.8c-2.6-3.9-6.3-7-9.5-10.3C466,424.1,462.4,427.1,459.9,430.9
		 M427.7,443.7c1.9,2,3.8,4.1,5.6,6.2c1.9-2.1,3.9-4.2,5.8-6.4c-1.9-2-3.7-4.2-5.9-5.8C431.1,439.4,429.4,441.6,427.7,443.7
		 M499.3,443.5c1.9,2,3.6,4.2,5.7,6.1c2.1-1.9,3.9-4,5.8-6.1c-1.8-2-3.5-4.3-5.7-5.9C502.9,439.4,501.1,441.5,499.3,443.5
		 M461,444.7c-8.8,0.8-17.8,3.8-24.1,10.2c-1.4,1.1-1.6,2.8-2,4.4c0.8,0.3,2.3,0.9,3.1,1.2c6.3-5.5,14.8-7.6,23-7.9
		c5.6-1.1,11.3-1,16.9,0c7.6,0.4,15.7,2,21.6,7.2c1.4,0,2.7,0,4.1-0.1c-0.4-1.6-0.5-3.4-1.8-4.6c-6.8-6.8-16.4-9.6-25.8-10.5
		C471,443.6,466,443.7,461,444.7z"/>
</g>
<g id="_x23_fefefeff">
	<path d="M226.5,358.1c10.4-3.1,21.6-3.1,31.9,0c2,0.8,4,1.6,6,2.5c1.4,0.7,2.9,1.4,4.3,2.1c0.8-1.6,1.7-3.1,2.5-4.7
		c2-0.1,4-0.1,6-0.1c0.2,12,0.4,24,0.6,36c-2,0-4,0-5.9,0c-3.1-12.2-8.5-26.1-21.4-30.8c-5.9-1.7-12.2-1.8-18.1,0c-1,0.4-2,0.7-3,1
		c-11.3,5.2-17.6,17.1-19.8,28.9c-2.8,15-2.2,31.4,5.1,45.1c4.3,8.3,12,14.9,21.2,16.9c5.7,1.6,11.8,1.1,17.5-0.4
		c3.6-1.8,9.8-2.6,9.6-7.8c0.5-5.6,0.2-11.3,0.3-17c0-3.3-0.9-7.7-4.5-8.8c-2.6-1.5-5.8-0.8-8.5-2.1c-1.3-0.1-2.7-0.2-4-0.2
		c0-1.6,0-3.3,0-4.9c14.9,0,29.8-0.1,44.8,0c0,1.6,0,3.1,0,4.7c-2.6,0.5-5.1,1.3-7.8,1.4c-2.8,1.3-5.4,3.5-5.5,6.8
		c-0.1,8.6-0.4,17.2,0.4,25.8c-3.4,2-7.1,3.2-10.7,4.5c-2.3,0.8-4.6,1.4-7,2c-4,1.5-8.3,1.1-12.2,2.6c-7,0.3-14,0.4-20.8-1.5
		c-11.5-3-22-10.2-28.3-20.4c-8.9-13.7-10.5-31.4-6.3-47c4.2-15.2,15.7-28.4,30.6-33.8C224.5,358.8,225.5,358.5,226.5,358.1z"/>
	<path d="M103.2,357.9c14.4,0,28.7-0.1,43.1,0c0,1.6,0,3.1,0,4.7c-3.7,0.7-7.4,1.2-10.9,2.5c-2.4,1.3-3.2,4.1-3.1,6.6
		c0,24,0,48.1,0,72.1c-0.2,3.4,0.7,7.1,3.9,8.9c0.5,0.1,1.6,0.2,2.1,0.3c4.1,1.6,8.5,0.4,12.8,0.8c5,0.4,9.8-0.9,14.6-2.1
		c6.6-5.8,10.5-14.1,14.3-21.9c1.7,0,3.4,0,5.1,0c-0.6,10-1.4,19.9-2.1,29.9c-26.6,0.1-53.3,0-79.9,0.1c0-1.6,0-3.3,0-4.9
		c1.4-0.1,2.8-0.1,4.2-0.2c2.1-1,4.7-0.5,6.6-2c2.3-1.4,2.9-4.3,2.8-6.9c0-24,0-48,0-72c0-2.4-0.1-5-1.9-6.8c-2.6-2.4-6.3-2.9-9.4-4
		c-0.6-0.1-1.7-0.2-2.3-0.3C103.2,361.2,103.2,359.5,103.2,357.9z"/>
	<path d="M298.9,358c16-0.2,32.1,0,48.1-0.1c4.9-0.2,9.8,1,14.5,2.2c6.7,2.3,12.9,6.9,15.4,13.8c2.7,8.7,1.5,19.2-5,26
		c-4.9,5.3-11.9,7.9-18.5,10.3c9,11.5,17.3,23.4,26.2,34.9c3.7,4.9,9,8.5,15.1,9.7c1.2,0.1,2.4,0.2,3.6,0.3c0,1.6,0,3.2,0,4.9
		c-8.8,0-17.6,0-26.4,0c-1.4,0.4-2-1.2-2.6-2.1c-9.6-15.2-20-29.9-31.2-43.9c-3.3,0-6.6,0-10,0c0,10.7,0,21.4,0,32
		c0,2.5,0.2,5.7,2.9,6.9c2,1.4,4.6,0.8,6.8,1.9c1.5,0.1,3,0.2,4.6,0.3c0,1.6,0,3.2,0,4.9c-14.5,0-28.9,0.1-43.4,0c0-1.6,0-3.2,0-4.8
		c1.4-0.1,2.9-0.2,4.4-0.3c2.1-1.1,4.8-0.5,6.7-2.1c2.2-1.4,2.7-4.3,2.7-6.7c0-24.4,0-48.7,0-73.1c-0.1-2.1-0.1-4.5-1.3-6.3
		c-2.3-2.5-6-2.4-9-3.5c-1.1-0.1-2.3-0.3-3.4-0.4C298.9,361.1,298.9,359.5,298.9,358 M328.1,363.9c0,14.6,0,29.3,0,44
		c5.8-0.2,11.8,0.8,17.5-1.2c2.9-1.3,5.9-2.8,8.1-5.1c6.5-6.2,7.9-16.2,5.7-24.6c-1.4-5.5-5.7-9.8-10.9-11.9
		C341.9,363,334.9,364.2,328.1,363.9z"/>
</g>
</svg>
