<?xml version="1.0" encoding="utf-8"?>
<!-- Generator: Adobe Illustrator 19.0.0, SVG Export Plug-In . SVG Version: 6.00 Build 0)  -->
<svg version="1.1" id="Layer_1" xmlns="http://www.w3.org/2000/svg" xmlns:xlink="http://www.w3.org/1999/xlink" x="0px" y="0px"
	 viewBox="438.1 -96 751 1032.7" style="enable-background:new 438.1 -96 751 1032.7;" xml:space="preserve">
<style type="text/css">
	.st0{fill:#040404;}
</style>
<g id="_x23_040404ff">
	<path class="st0" d="M1169-94.6c6.7,0,13.3-1.6,20-1.3c-65.5,163-131.2,326-196.8,489c-2.6,6-4.5,12.5-7.8,18.3
		c-51.4,51.7-102.9,103.2-154.2,155c-2.5,2.8-5.8,5-7.6,8.3c-6.6,20.1-13.3,40.2-19.9,60.3C782,698.4,761,761.8,740.2,825.3
		c-10.2,31.4-20.8,62.6-30.8,94.1c-3.9,1.6-8.3,0.8-12.4,1.3c-6.3,0.6-12.6,1.1-19,0.6c-1.9-0.1-3.9-0.4-5.7,0.2
		c2.9,0.5,5.8,0,8.8,0.2c0.7,0.3,0.6,1,0.5,1.6l-1.2-1.1c-5.5,0.1-10.9,0-16.3,0.8c-5.6,0.6-11.3,0-16.9,0.9
		c-4.9,0.8-9.9,0.3-14.8,0.9c-6.8,1-13.6,0.3-20.4,1.4c-20.3,0.6-40.6,2.9-60.9,3.5c-5.7,0.8-11.4,0.8-17.1,0.9
		c-14.6,1.3-29.3,2.2-44,3.1c-8,1.1-16.1,0.3-24.1,1.5c-9.3-0.1-18.5,1.7-27.8,1.3c10.2-21.7,19.6-43.8,29.5-65.6
		c64.9-145.6,129.9-291.2,194.9-436.7c1.7-3.3,2.5-7.2,5.1-9.9c26.1-26.3,51.8-52.9,77.9-79.1c25.6-26.4,51.6-52.4,77.3-78.7
		c2.9-2.4,3.3-6.3,4.3-9.6c32.2-110.5,64.3-221.1,96.6-331.6c57.1-4.6,114.2-9.3,171.4-13.9c8-0.3,15.9-2.1,23.9-0.9
		c-1.7-0.3-3.3-0.5-5-0.8C1132.3-91.5,1150.7-93.1,1169-94.6z"/>
	<path class="st0" d="M470-74.9c40,6.2,80.1,12,120.2,18c7.3,0.7,14.5,2.9,21.9,2.4c-1.7,0.3-3.4,0.6-5.1,0.8c1.7-0.1,3.3-0.3,5-0.1
		c38.5,5.6,77,11.6,115.5,17.2C737-5.2,745.8,26.4,755,57.9c0.5,1.6,0.6,3.2,0.6,4.8c0.1-0.6,0.3-1.2,0.5-1.7
		c5.9,22.5,12.9,44.7,19.2,67.1c10.4,36.3,21,72.5,31.5,108.7c0.6,1.8,1.4,3.6,2.1,5.3c-25.1,24.5-49.3,49.9-74,74.7
		c-25.5,25.5-50.7,51.3-76,77c-4.3,4.5-9,8.7-13,13.4c-0.3,0-0.8-0.1-1-0.1c-4.7-14.6-10.3-28.8-15.5-43.2
		c-35.4-97.4-70.9-194.7-106.2-292c-15.4-42.1-30.8-84.2-46-126.4C474.8-61.3,471.9-67.9,470-74.9z"/>
	<path class="st0" d="M911.6,523.5c27.9-28.1,55.9-56.1,83.5-84.5c5.1,12.4,9.1,25.2,13.8,37.7c54.3,150,108.7,300,162.8,450
		c-19.4-3.4-39-5.9-58.5-9c-25.5-3.9-51-7.7-76.4-11.4c-5.4-0.5-10.7-2.2-16.1-2c-0.1-0.2-0.4-0.6-0.5-0.8
		c-7.8-0.5-15.5-2.2-23.2-3.2c-28.5-4.4-57-8.5-85.5-12.9c-27.1-93.9-53.9-187.9-81.2-281.7C857.5,578.4,884.7,551,911.6,523.5z"/>
</g>
</svg>
