<?xml version="1.0" encoding="utf-8"?>
<!-- Generator: Adobe Illustrator 20.0.0, SVG Export Plug-In . SVG Version: 6.00 Build 0)  -->
<svg version="1.1" id="Layer_1" xmlns="http://www.w3.org/2000/svg" xmlns:xlink="http://www.w3.org/1999/xlink" x="0px" y="0px"
	 viewBox="0 0 950.4 447.3" style="enable-background:new 0 0 950.4 447.3;" xml:space="preserve">
<style type="text/css">
	.st0{fill:#FFFFFF;}
	.st1{fill:#1E0E00;}
	.st2{fill:url(#SVGID_1_);}
	.st3{fill:url(#SVGID_2_);}
	.st4{fill:#BD0035;}
</style>
<g id="_x23_1e0e00ff">
	<path class="st0" d="M405.2,11.3C445-2,488.6-3.6,529.3,6.7c50.6,12.6,96.2,43.5,126.8,85.8c98.1,0,196.2,0,294.3,0
		c0,11.2,0,22.5,0,33.7c-79,0-158.1,0-237.1,0c-14.5,25.7-28.8,51.5-43.4,77.2C685.3,238,701,272.5,716.5,307
		c-12.6,0-25.2,0.1-37.8-0.1c-10.2-23.8-20.8-47.4-31.1-71.1c-2.8,4.4-5.7,8.9-8.2,13.5c-0.3,19.2,0,38.5-0.1,57.7
		c-12.2,0-24.3,0-36.5,0c0-60.3,0-120.5,0-180.8c-46.1,0-92.2,0-138.3,0c2.8,9.6,2.9,19.8,2.8,29.8c-11.6,0-23.1,0-34.7,0
		c-0.2-6.6,0.7-13.4-1.2-19.8c-3.1-12.1-23.9-12.2-27.2-0.2c-2.2,8.5-1.6,18,2.4,25.9c5.8,11,15.2,19.4,24.2,27.7
		c11.4,10,22.7,20.8,29.6,34.5c8,14.7,8.7,32.4,5.5,48.6c-2.7,13.3-11.2,25.8-23.9,31.3c-13.5,5.9-29.2,6.1-43.3,2.7
		c-13.2-3.2-24.3-13.2-28.9-26c-5.1-12.6-4.1-26.5-4.1-39.8c11.5,0,23.1,0,34.7,0c0.4,8.7-1.1,17.6,1.3,26.1
		c2.9,9.2,15.4,10.8,22.9,6.7c6.4-3.5,6.8-11.9,6.6-18.3c-0.1-9.9-5.6-18.7-11.9-26c-10.7-12.3-24.3-21.6-34.7-34.2
		c-7.9-9.3-14.2-20.3-16.6-32.3c-2.3-12-1.8-24.6,1.4-36.4c-87,0-173.9,0-260.9,0c0,60,0,120,0,180.1c-12.3,0-24.7,0-37,0
		c-12.2-45-24.3-90-36.5-135.1c-0.5-1.9-0.9-3.9-1.4-5.8c-0.6,17.2-0.1,34.5-0.3,51.8c0,29.7,0,59.4,0,89.1c-11.1,0-22.1,0-33.1,0
		C0.1,235-0.1,163.7,0.1,92.4c14.8,0.1,29.6,0,44.4,0.1c10.3,38,20.4,76.1,30.9,114c0.2-38,0-76,0.1-114.1c73,0,145.9,0,218.9,0
		C321.7,54.7,361,25.9,405.2,11.3 M401.5,16.3c-42.1,15-79.4,43.2-105.3,79.6c-72.4,0-144.8,0-217.3,0c-0.1,45.6,0.1,91.3-0.1,136.9
		c-12.2-45.7-24.6-91.3-36.9-137c-12.8,0-25.6,0-38.4,0c0,69,0,138,0,207c8.8,0,17.5,0,26.3,0c0.1-54.5,0-108.9,0-163.4
		C44.6,193.9,59.2,248.4,74,302.9c10.3,0,20.6,0,31,0c0-60,0-120,0-180.1c89.7,0,179.4,0,269.1,0c-4.5,12.2-5.2,25.7-3,38.5
		c2.3,12.1,8.8,23,16.8,32.2c10.4,12.3,23.8,21.4,34.2,33.6c6.3,7.4,11.8,16,12.3,26c0.6,7.9,0.2,18-7.3,22.8
		c-8.2,5-20.8,4.2-26.8-3.9c-5.2-8.3-2.9-18.6-3.4-27.9c-9.3,0-18.6,0-27.8,0c0.1,8.7-0.5,17.5,1.3,26.1c1.9,9.9,6.6,19.7,14.8,26
		c8.8,6.9,20.2,9.1,31.1,9.1c11.4,0.1,23.5-2.2,32.5-9.7c8.7-7.1,13.2-18.1,14.7-29c1.5-11.5,1-23.5-3.1-34.4
		c-3.3-8.2-7.9-15.8-13.8-22.5c-10.8-12.9-25.1-22.4-35.7-35.4c-6.2-7.4-11.1-16.4-11.3-26.2c-0.3-7.7,0.4-17.3,7.7-21.7
		c7.7-4.4,19.3-3.7,25,3.7c4.5,6.6,3.7,14.9,3.8,22.5c9.3,0,18.5,0,27.8,0c0.3-10-0.5-20.3-4.1-29.8c48.8,0,97.6,0,146.5,0
		c0,60.3,0,120.6,0,180.8c9.9,0,19.8,0,29.7,0c0.1-18.4-0.2-36.9,0.1-55.3c3.8-6.8,8-13.3,12-20c11,25.1,22,50.2,33,75.3
		c10.1,0,20.1,0,30.2,0c-15.1-33.5-30.2-66.9-45.2-100.3c15.1-26.8,30.1-53.7,45.2-80.5c78.6,0,157.2,0,235.8,0c0-9,0-18,0-26.9
		c-97.6,0-195.1,0-292.7,0C623.9,53.2,578,22,527.1,9.7C485.8-0.6,441.5,1.8,401.5,16.3z"/>
	<path class="st0" d="M418.2,39.9c36.4-11.6,76.4-11.6,112.9-0.3c33.7,10.3,64.3,30,87.7,56.3c-95.7,0-191.5,0-287.2,0
		C354.8,69.9,385,50.2,418.2,39.9 M339.1,92.6c45.4,0.2,90.8-0.4,136.2,0c45.3,0.1,90.6,0.1,135.8,0C576.2,55.9,526,34.2,475.3,34.4
		C424.6,34.4,374.2,55.8,339.1,92.6z"/>
	<path class="st0" d="M635.9,122.8c15.4,0,30.8,0,46.2,0c-15.4,28.5-30.8,57-46.2,85.5C635.9,179.8,635.8,151.3,635.9,122.8
		 M639.3,126.2c0,22.8,0,45.6,0,68.4c12.4-22.7,24.7-45.6,37-68.4C664,126.2,651.6,126.2,639.3,126.2z"/>
	<path class="st0" d="M169.4,148.3c15.3-1,31.8,0,45,8.7c9.7,6.3,15.2,17.7,15.4,29.1c0.1,26.4,0,52.7,0,79.1
		c0.4,9.7-1.5,20-7.8,27.7c-8.4,10.3-22.1,14.4-34.9,15.5c-13.4,1-27.4,0.3-39.9-5.3c-8.2-3.7-15.1-10.4-18.4-18.8
		c-2.2-5.5-2.9-11.4-2.8-17.2c0-26.3,0-52.6,0-79c-0.1-9.8,3.1-20,10.3-26.9C145,152.6,157.5,149.3,169.4,148.3 M167.7,151.9
		c-10.7,1.1-21.8,4.3-29.5,12.2c-6.2,6.3-8.9,15.3-8.9,24c0,27,0,54.1,0,81.1c0,9.8,3.8,20,11.7,26.1c10.4,8.2,24.3,10,37.1,10.1
		c12.8-0.1,26.6-2.1,36.8-10.4c7.7-6.2,11.4-16.2,11.3-25.9c0-27.3,0-54.6,0-81.9c0-10.9-5.1-22-14.6-27.8
		C198.7,151.3,182.6,150.7,167.7,151.9z"/>
	<path class="st0" d="M884.7,148.9c16.3-1.9,34-1.4,48.6,7c10.6,6.1,16.9,18.1,17,30.2c0.1,27.6,0,55.3,0,83
		c0.1,9.5-3.1,19.4-10,26.2c-9.2,9.2-22.5,12.5-35.1,13.2c-13.9,0.7-28.7-0.3-41.1-7.4c-11.1-6.1-17.6-18.5-17.6-31
		c0-27.7,0-55.3,0-83c0-9.4,3.2-19,10-25.6C864,153.9,874.5,150.3,884.7,148.9 M888.7,151.9c-11.2,1.1-23,4.5-30.7,13.1
		c-5.9,6.5-8.3,15.5-8,24.1c0,26.4,0,52.7,0,79c-0.1,5.5,0.8,11.1,3.1,16.1c3.1,7.1,9.2,12.5,16.2,15.7c10.8,5,23.1,5.8,34.8,5.3
		c11.4-0.7,23.5-3.2,32.3-11c7.2-6.2,10.6-15.8,10.5-25.1c0-24.7,0-49.4,0-74.1c0.1-6.7,0.3-13.5-2-19.9
		c-2.8-8.5-9.7-15.2-17.8-18.7C915.1,151.3,901.6,150.8,888.7,151.9z"/>
	<path class="st0" d="M244.8,149.8c12.2,0,24.3,0,36.5,0c0,21,0,41.9,0,62.9c13.6-20.9,27.1-41.9,40.7-62.9c12.4,0,24.8,0,37.2,0
		c-15.7,23.5-31.5,46.9-47.1,70.4c15.6,29,31.2,57.9,46.8,86.9c-12.7-0.1-25.4,0.2-38.1-0.2c-10.2-20-20.7-39.7-31.2-59.6
		c-2.6,4-6.1,7.6-8.2,11.8c-0.2,16,0,31.9-0.1,47.9c-12.2,0-24.3,0-36.5,0C244.8,254.6,244.8,202.2,244.8,149.8 M248.2,153.2
		c0,50.1,0,100.3,0,150.4c9.9,0,19.8,0,29.7,0c0-15.4,0-30.8,0-46.2c4.1-5.5,8.1-11.1,12.2-16.6c11,20.9,22,41.9,33,62.8
		c10,0,20,0,30,0c-15-27.9-30.1-55.8-45.1-83.7c14.9-22.2,29.8-44.5,44.8-66.8c-9.5,0-19.1-0.1-28.6,0.1
		c-4.2,5.4-7.6,11.6-11.5,17.3c-11.6,17.9-23.1,35.9-34.8,53.8c0-23.7,0-47.4,0-71.1C268,153.2,258.1,153.2,248.2,153.2z"/>
	<path class="st0" d="M481.6,270.2c0-40.1,0-80.3,0-120.4c12.2,0,24.3,0,36.5,0c0,40.4,0,80.9,0,121.3c-0.1,4.1,1.6,8.7,5.7,10.4
		c6.1,2.7,13.6,2.7,19.6-0.1c4.3-1.9,5.6-6.9,5.5-11.2c0-40.1,0-80.2,0-120.4c11.5,0,23.1,0,34.7,0c0,40.1,0,80.2,0,120.3
		c0,10.7-4.3,21.7-12.9,28.4c-10.5,8.4-24.5,10.4-37.5,10.5c-13.4,0-27.7-1.9-38.5-10.4C486,291.9,481.7,280.9,481.6,270.2
		 M485,153.2c0,39,0,78,0,116.9c0,9.6,3.8,19.6,11.5,25.6c10,8,23.3,9.7,35.6,9.9c12.2-0.1,25.4-1.6,35.5-9.1
		c8.2-6,12.4-16.3,12.5-26.4c0-39,0-78,0-116.9c-9.3,0-18.6,0-27.8,0c0,37.6,0,75.2,0,112.9c0,4.5,0.3,9.2-2,13.3
		c-2.3,4.4-7.4,6.4-12.1,7.1c-6.2,0.8-13,0.4-18.3-3.2c-3.9-2.7-5.3-7.6-5.3-12.1c0-39.3,0-78.6,0-117.9
		C504.8,153.2,494.9,153.2,485,153.2z"/>
	<path class="st0" d="M752.5,149.8c17.1,0,34.1,0,51.2,0c11.5,52.2,22.9,104.3,34.4,156.5c-12.3,0-24.6,0-36.9,0
		c-1.9-9.2-3.8-18.5-5.7-27.7c-12.6,0-25.2,0-37.8,0c-1.9,9.2-3.8,18.5-5.7,27.7c-11.3,0-22.6,0-33.9,0
		C729.5,254.1,741,202,752.5,149.8 M755.2,153.2c-11,49.9-21.9,99.8-32.9,149.7c8.9,0,17.9,0,26.8,0c1.9-9.2,3.8-18.5,5.7-27.8
		c14.5,0,28.9,0,43.4,0c1.9,9.2,3.8,18.5,5.7,27.8c9.9,0,19.9,0,29.8,0c-11-49.9-21.9-99.8-32.9-149.7
		C785.7,153.2,770.5,153.2,755.2,153.2z"/>
	<path class="st0" d="M170.7,170.8c6.7-1.5,14.3-1.3,20.2,2.5c4.3,2.7,5.9,8,5.8,12.8c0,28,0,56,0,84c0,4.6-1.1,9.6-4.9,12.6
		c-4.7,3.7-11,4.4-16.7,3.9c-4.3-0.3-8.7-1.6-11.9-4.6c-3.2-3.1-4.1-7.7-4.2-12c0-27.7,0-55.3,0-83c0-3.6,0.5-7.4,2.5-10.4
		C163.6,173.5,167.1,171.7,170.7,170.8 M172.8,173.9c-5.7,0.6-10.5,5.4-10.2,11.3c-0.2,28.4,0,56.7-0.1,85
		c-0.1,4.3,1.3,9.2,5.6,11.1c6,2.8,13.5,2.8,19.5,0.1c4.4-1.9,5.9-6.9,5.8-11.3c0-28,0-56,0-84.1c0-3.6-1-7.7-4.2-9.8
		C184.3,173.1,178.2,172.9,172.8,173.9z"/>
	<path class="st0" d="M776.4,170.1c6,29.2,12,58.4,18,87.6c-12,0-24,0-36,0C764.4,228.5,770.4,199.3,776.4,170.1 M762.6,254.3
		c9.2,0,18.4,0,27.6,0c-4.6-22.4-9.2-44.7-13.8-67.1C771.8,209.6,767.2,231.9,762.6,254.3z"/>
	<path class="st0" d="M891.7,170.7c6.7-1.4,14.3-1.1,20.1,2.8c4.3,3,5.6,8.6,5.6,13.5c0,26.3,0,52.7,0,79c0,5.1,0.1,10.8-3.3,15
		c-3.6,4.2-9.5,5.6-14.9,5.7c-5.6,0.1-11.6-1-15.7-5c-3.2-3.3-3.9-8.2-3.8-12.7c0.1-28.3-0.1-56.6,0.1-84.9
		C879.8,177.4,885.2,171.8,891.7,170.7 M893.6,173.8c-2.9,0.6-5.8,1.7-7.9,3.9c-2,2.3-2.6,5.5-2.6,8.4c0,28,0,56,0,84
		c0,3.5,0.6,7.4,3.4,9.8c3.5,2.9,8.3,3.6,12.7,3.5c4.1-0.1,8.4-0.9,11.6-3.7c2.8-2.6,3.2-6.8,3.2-10.5c0-27,0-54,0-81.1
		c0-4.1-0.4-9.1-4.1-11.7C905.2,173.2,899.1,172.9,893.6,173.8z"/>
	<path class="st0" d="M0,321.1c316.8,0,633.6,0,950.3,0c0,11.2,0,22.5,0,33.7c-98.1,0-196.2,0-294.3,0c-18.2,25-41.6,46.3-68.3,61.8
		c-36,21.1-77.9,31.9-119.6,30.5c-38.2-1.2-76-12.5-108.7-32.4c-25.4-15.4-47.7-35.9-65.2-60c-98.1,0-196.2,0-294.2,0
		C0,343.5,0,332.3,0,321.1 M3.4,324.5c0,9,0,17.9,0,26.9c97.5,0,195.1,0,292.6,0c17.1,23.9,39,44.4,64.1,59.8
		c32.3,20,69.9,31.4,108,32.6c38.3,1.3,76.9-7.9,110.7-26c29.8-15.9,55.8-38.8,75.5-66.3c97.5,0,195.1,0,292.7,0c0-9,0-18,0-26.9
		C632.4,324.5,317.9,324.5,3.4,324.5z"/>
	<path class="st0" d="M331.5,351.4c95.8-0.1,191.6,0,287.4,0c-23.8,26.8-55.3,46.8-89.7,56.9c-36.3,10.8-75.9,10.5-112-1.2
		C384.3,396.7,354.5,377.1,331.5,351.4 M339.1,354.7c35.1,36.5,85.4,58.1,136.1,57.8c50.7,0.6,100.9-21.3,135.9-57.8
		c-45.3,0-90.5-0.1-135.8,0C429.8,354.9,384.4,354.7,339.1,354.7z"/>
</g>
<g id="_x23_ffffffff">
	<path class="st1" d="M401.5,16.3c40-14.5,84.3-16.8,125.7-6.6C578,22,623.9,53.2,654.2,95.9c97.6,0,195.1,0,292.7,0
		c0,9,0,18,0,26.9c-78.6,0-157.2,0-235.8,0c-15.1,26.8-30.1,53.7-45.2,80.5c15,33.5,30.2,66.9,45.2,100.3c-10.1,0-20.1,0-30.2,0
		c-11-25.1-22-50.2-33-75.3c-4,6.7-8.2,13.2-12,20c-0.3,18.4,0,36.9-0.1,55.3c-9.9,0-19.8,0-29.7,0c0-60.3,0-120.5,0-180.8
		c-48.8,0-97.6,0-146.5,0c3.6,9.5,4.4,19.7,4.1,29.8c-9.3,0-18.6,0-27.8,0c-0.1-7.6,0.7-15.9-3.8-22.5c-5.7-7.4-17.2-8.1-25-3.7
		c-7.3,4.4-8,14-7.7,21.7c0.2,9.9,5.1,18.8,11.3,26.2c10.7,13,24.9,22.5,35.7,35.4c5.8,6.6,10.5,14.3,13.8,22.5
		c4.1,10.9,4.5,22.9,3.1,34.4c-1.5,10.9-6,22-14.7,29c-9,7.4-21.1,9.7-32.5,9.7c-10.9,0-22.3-2.3-31.1-9.1c-8.1-6.3-12.9-16-14.8-26
		c-1.8-8.6-1.3-17.4-1.3-26.1c9.3,0,18.6,0,27.8,0c0.5,9.3-1.8,19.6,3.4,27.9c6,8.1,18.6,8.9,26.8,3.9c7.5-4.8,7.9-14.8,7.3-22.8
		c-0.6-9.9-6-18.6-12.3-26c-10.4-12.2-23.8-21.4-34.2-33.6c-8-9.2-14.5-20.2-16.8-32.2c-2.2-12.8-1.5-26.2,3-38.5
		c-89.7,0-179.4,0-269.1,0c0,60,0,120.1,0,180.1c-10.3,0-20.6,0-31,0c-14.7-54.4-29.4-108.9-44.2-163.4c0,54.5,0,108.9,0,163.4
		c-8.8,0-17.5,0-26.3,0c0-69,0-138,0-207c12.8,0,25.6,0,38.4,0c12.3,45.7,24.7,91.3,36.9,137c0.2-45.6,0-91.3,0.1-137
		c72.4,0,144.9,0,217.3,0C322.1,59.5,359.3,31.3,401.5,16.3 M418.2,39.9c-33.2,10.4-63.4,30-86.6,56c95.7,0.1,191.5,0,287.2,0
		c-23.4-26.3-54-46-87.7-56.3C494.6,28.2,454.7,28.3,418.2,39.9 M635.9,122.8c0,28.5,0,57,0,85.5c15.4-28.5,30.8-57,46.2-85.5
		C666.7,122.8,651.3,122.8,635.9,122.8z"/>
	<path class="st1" d="M167.7,151.9c14.9-1.2,31-0.6,44.1,7.5c9.4,5.8,14.6,16.9,14.6,27.8c0,27.3,0,54.6,0,81.9
		c0.1,9.7-3.6,19.7-11.3,25.9c-10.2,8.3-24,10.3-36.8,10.4c-12.9,0-26.7-1.8-37.1-10.1c-7.9-6.1-11.8-16.3-11.7-26.1
		c0-27,0-54.1,0-81.1c0-8.7,2.6-17.7,8.9-24C145.9,156.2,157,153,167.7,151.9 M170.7,170.8c-3.5,0.9-7,2.7-9.1,5.8
		c-2,3.1-2.5,6.8-2.5,10.4c0,27.7,0,55.4,0,83c0,4.3,0.9,8.9,4.2,12c3.2,3,7.6,4.3,11.9,4.6c5.8,0.4,12-0.3,16.7-3.9
		c3.7-3,4.9-8,4.9-12.6c0-28,0-56,0-84c0-4.8-1.6-10.1-5.8-12.8C184.9,169.5,177.3,169.3,170.7,170.8z"/>
	<path class="st1" d="M888.7,151.9c12.9-1.1,26.3-0.5,38.4,4.7c8.1,3.5,15,10.2,17.8,18.7c2.3,6.4,2.1,13.2,2,19.9
		c0,24.7,0,49.4,0,74.1c0.1,9.3-3.3,18.9-10.5,25.1c-8.8,7.8-20.9,10.3-32.3,11c-11.8,0.5-24-0.3-34.8-5.2c-7-3.2-13-8.6-16.2-15.7
		c-2.3-5-3.2-10.6-3.1-16.1c0-26.3,0-52.7,0-79.1c-0.2-8.6,2.1-17.6,8-24.1C865.8,156.4,877.6,153,888.7,151.9 M891.7,170.7
		c-6.5,1.1-11.8,6.7-11.9,13.5c-0.2,28.3,0,56.6-0.1,84.9c-0.1,4.5,0.6,9.3,3.8,12.7c4.1,4,10.2,5.1,15.7,5
		c5.3-0.1,11.2-1.5,14.9-5.7c3.4-4.2,3.3-9.9,3.3-15c0-26.3,0-52.7,0-79c0.1-5-1.2-10.6-5.6-13.5C906,169.6,898.4,169.3,891.7,170.7
		z"/>
	<path class="st1" d="M248.2,153.2c9.9,0,19.8,0,29.7,0c0,23.7,0,47.4,0,71.1c11.6-17.9,23.2-35.8,34.8-53.8
		c3.9-5.7,7.2-11.9,11.5-17.3c9.5-0.1,19.1,0,28.6-0.1c-14.9,22.3-29.8,44.5-44.8,66.8c15,27.9,30.1,55.8,45.1,83.7c-10,0-20,0-30,0
		c-11-21-22-41.9-33-62.8c-4.1,5.5-8.1,11.1-12.1,16.6c-0.1,15.4,0,30.8,0,46.2c-9.9,0-19.8,0-29.7,0
		C248.2,253.5,248.2,203.3,248.2,153.2z"/>
	<path class="st1" d="M485,153.2c9.9,0,19.8,0,29.7,0c0,39.3,0,78.6,0,117.9c0,4.5,1.5,9.4,5.3,12.1c5.3,3.7,12.1,4,18.3,3.2
		c4.7-0.7,9.7-2.8,12.1-7.1c2.2-4,2-8.8,2-13.3c0-37.6,0-75.2,0-112.9c9.3,0,18.6,0,27.8,0c0,39,0,78,0,116.9
		c-0.1,10-4.2,20.3-12.5,26.4c-10.1,7.5-23.2,9-35.5,9.1c-12.3-0.2-25.7-1.9-35.6-9.9c-7.7-6.1-11.5-16-11.5-25.6
		C485,231.2,485,192.2,485,153.2z"/>
	<path class="st1" d="M755.2,153.2c15.2,0,30.4,0,45.7,0c10.9,49.9,21.9,99.8,32.9,149.7c-9.9,0-19.9,0-29.8,0
		c-1.9-9.2-3.8-18.5-5.7-27.8c-14.5,0-28.9,0-43.4,0c-1.9,9.2-3.8,18.5-5.7,27.8c-9,0-17.9,0-26.8,0
		C733.3,253,744.3,203.1,755.2,153.2 M776.4,170.1c-6,29.2-12,58.4-18,87.6c12,0,24,0,36,0C788.4,228.5,782.4,199.3,776.4,170.1z"/>
	<path class="st1" d="M3.4,324.5c314.5,0,629,0,943.5,0c0,9,0,17.9,0,26.9c-97.6,0-195.1,0-292.7,0c-19.7,27.5-45.7,50.4-75.5,66.3
		c-33.8,18.2-72.4,27.3-110.7,26c-38-1.2-75.6-12.6-108-32.6c-25.1-15.4-47-35.9-64.1-59.8c-97.5,0-195.1,0-292.6,0
		C3.4,342.4,3.4,333.4,3.4,324.5 M331.5,351.4c23,25.7,52.8,45.2,85.7,55.7c36.1,11.7,75.7,12,112,1.2
		c34.5-10.1,65.9-30.1,89.7-56.9C523.1,351.4,427.3,351.3,331.5,351.4z"/>
</g>
<g id="_x23_79ae77ff">
	
		<linearGradient id="SVGID_1_" gradientUnits="userSpaceOnUse" x1="339.0865" y1="386.4922" x2="475.3165" y2="386.4922" gradientTransform="matrix(1 0 0 -1 0 450)">
		<stop  offset="0" style="stop-color:#FF0064"/>
		<stop  offset="0.5" style="stop-color:#AE002C"/>
		<stop  offset="1" style="stop-color:#520001"/>
	</linearGradient>
	<path class="st2" d="M339.1,92.6c35.1-36.7,85.5-58.1,136.2-58.1c-0.1,19.4,0,38.7,0,58.1C429.9,92.2,384.5,92.7,339.1,92.6z"/>
	
		<linearGradient id="SVGID_2_" gradientUnits="userSpaceOnUse" x1="339.0565" y1="66.3678" x2="475.2291" y2="66.3678" gradientTransform="matrix(1 0 0 -1 0 450)">
		<stop  offset="0" style="stop-color:#FF0064"/>
		<stop  offset="0.5" style="stop-color:#AE002C"/>
		<stop  offset="1" style="stop-color:#520001"/>
	</linearGradient>
	<path class="st3" d="M339.1,354.7c45.4,0,90.8,0.2,136.2,0.1c0,19.2,0.1,38.5-0.1,57.7C424.4,412.8,374.1,391.2,339.1,354.7z"/>
</g>
<g id="_x23_0d54e4ff">
	<path class="st4" d="M475.3,34.4c50.7-0.2,100.9,21.4,135.8,58.1c-45.3,0.1-90.6,0.1-135.8,0C475.3,73.2,475.2,53.8,475.3,34.4z"/>
	<path class="st4" d="M475.2,354.8c45.3-0.1,90.5,0,135.8,0c-35,36.5-85.2,58.4-135.9,57.8C475.3,393.3,475.2,374.1,475.2,354.8z"/>
</g>
</svg>
