<?xml version="1.0" encoding="utf-8"?>
<!-- Generator: Adobe Illustrator 19.0.0, SVG Export Plug-In . SVG Version: 6.00 Build 0)  -->
<svg version="1.1" id="Layer_1" xmlns="http://www.w3.org/2000/svg" xmlns:xlink="http://www.w3.org/1999/xlink" x="0px" y="0px"
	 viewBox="-71 293.6 451.3 256.3" style="enable-background:new -71 293.6 451.3 256.3;" xml:space="preserve">
<style type="text/css">
	.st0{fill:#FF5A20;}
</style>
<g id="_x23_000000ff">
	<path d="M-50.1,298.7c7.8-3.6,16.5-5.3,25.1-5.1c33.9,0.1,67.8,0,101.8,0.1c10.1,15.7,20.5,31.2,30.5,46.8c-2.6,2-4.6,5.6-8.2,5.4
		c-31.7-0.1-63.4,0-95,0c-3.5,0-7.4,0.4-9.9,3.2c-3,3.2-2.4,7.9-2.4,11.9c0.2,5.3-0.3,10.6,0.2,15.9c0.6,4.7,5.6,7.2,9.9,7
		c44.8,0,89.6,0,134.3,0c9.6,14.4,19,28.9,28.6,43.3c1,1.4,1.3,3,1.3,4.7c-0.1,16.4,0,32.7,0,49.1c0.4,2.5-1.7,4-3.2,5.5
		c-19.5-0.2-38.9-0.1-58.4-0.1c-1.1-1.1-2.3-2.3-3.4-3.4c0-14.9,0-29.8,0-44.6c-43.3,0-86.7,0-130,0c-11.6,0-24-3.5-31.8-12.5
		c-6-6.5-8.7-15.3-10.2-23.9v-73c0.8-4.9,1.6-9.9,3.9-14.3C-63.7,307.5-57.3,302-50.1,298.7z"/>
	<path d="M-70.2,499.1c14.8,0,29.5,0,44.3,0c3.2-0.3,4.7,3.1,4.5,5.8c0,7.6,0.1,15.3,0,22.9c0.1,2.4-1.7,5.1-4.3,5
		c-10.4,0.2-20.7-0.1-31.1,0.1c-0.7,5.4,0,11.1-0.3,16.7c-4.3,0-8.7,0-13,0C-70.3,532.8-70.3,516-70.2,499.1 M-57.2,509.6
		c0,4.2,0,8.3,0,12.5c7.7,0,15.3,0,23,0c0-4.1,0-8.3,0-12.4C-41.9,509.6-49.6,509.6-57.2,509.6z"/>
	<path d="M-13.2,499.1c4.2,0.3,8.7-0.6,12.6,0.4c0.4,6.1,0,12.2,0.1,18.3c7.6,0,15.2,0,22.8,0c0-6.3,0-12.5,0-18.8c4.3,0,8.7,0,13,0
		c0,16.8,0,33.7,0,50.5c-4.3,0-8.7,0-13,0c0-6.2,0-12.5,0-18.7c-7.6-0.1-15.2,0-22.8-0.1c0,6.3-0.1,12.7,0.1,19h-0.5
		c-4.1-0.5-8.2-0.2-12.4-0.3C-13.3,532.8-13.3,516-13.2,499.1z"/>
	<path d="M41.3,504.8c-0.2-2.8,1.6-6,4.7-5.6c13.1-0.1,26.1,0,39.2,0c2.6-0.3,4.8,2.2,4.6,4.7c0.1,15.3,0,30.7,0.1,46.1H77
		c0-4.3,0-8.5,0-12.8c-7.7,0-15.3,0-23,0c0,4.3,0,8.5,0,12.8H41.2C41.3,534.9,41.2,519.8,41.3,504.8 M54,509.6c0,5.5,0,11,0,16.5
		c7.7,0,15.3,0,23,0c0-5.5,0-11,0-16.5C69.3,509.6,61.7,509.6,54,509.6z"/>
	<path d="M95.8,499.1c14.1,0.1,28.2-0.1,42.3,0.1c2.6-0.3,4.4,2.3,4.2,4.7c0.1,15.3,0,30.5,0,45.8c-4.2-0.1-8.4,0-12.6,0.2h-0.1
		c-0.1-13.4,0-26.8-0.1-40.3c-6.9,0-13.8,0-20.7,0c-0.1,13.3,0,26.7,0,40c-4.3,0-8.5,0-12.8,0C96.1,532.8,95.8,516,95.8,499.1z"/>
	<path d="M148.4,499.2c16.2-0.2,32.4,0,48.5-0.1c0.1,3.5,0,7-0.3,10.5c-5.5,0-11,0-16.4,0c0,13.3,0,26.6,0,40c-5.1,0-10.2,0-15.3,0
		c0-13.3,0-26.7,0-40c-5.5,0-11,0-16.5,0C148.6,506.2,148.4,502.7,148.4,499.2z"/>
	<path d="M203,504.9c-0.2-2.4,1-5.7,3.9-5.6c13.3-0.2,26.7-0.1,40.1,0c3.2-0.4,4.7,3,4.5,5.7c0,13,0,26,0,39c0.2,2.5-1.1,4.7-3.2,6
		h-41.8c-1.8-1-3.6-2.5-3.4-4.8C202.9,531.7,203,518.3,203,504.9 M216,509.6c0,9.8,0,19.5,0,29.3c7.5,0,15,0,22.5,0
		c0-9.8,0-19.5,0-29.3C231,509.6,223.5,509.6,216,509.6z"/>
	<path d="M260.8,500.8c1.6-1.7,4.1-1.6,6.2-1.7c16.7,0.1,33.4,0,50.1,0.1c2.8-0.2,6,1.6,5.9,4.7c0.2,15.3,0,30.5,0.1,45.8
		c-4.3,0-8.7,0-13,0c0-13.3,0-26.7,0-40c-4.2,0-8.3,0-12.5,0c0,13.4-0.2,26.8,0.1,40.2h-0.5c-4.1-0.5-8.3-0.2-12.4-0.3
		c0-13.3,0-26.7,0-40c-4.1,0-8.2,0-12.2,0c0,13.4,0,26.8,0,40.2h-12.9c-0.2-14.7,0-29.4-0.1-44C259.5,504.1,259.4,502.1,260.8,500.8
		z"/>
	<path d="M331.4,502.1c0.5-2,2.5-3.2,4.5-3c12.3-0.1,24.7,0.1,37.1,0c2.1,0.1,4.8-0.2,5.9,2c1.2,2.7,0.4,5.7,0.6,8.6
		c-11.8-0.1-23.6,0-35.4,0c0,3.1,0,6.2,0,9.3c10.3,0,20.7,0,31,0c1.9-0.2,4.2,0.9,4.3,3.1c0.5,5.6,0,11.3,0.2,16.9
		c-0.1,3.9,1.1,9-3.2,11h-41.8c-4.5-1.8-3.4-7.2-3.5-11c11.9,0,23.8,0,35.8,0c0-3,0-6,0-9c-10.6-0.1-21.2,0.1-31.8-0.1
		c-1.9,0.3-3.4-1.3-3.6-3.1c-0.7-4.9-0.2-9.9-0.4-14.9C331,508.7,330.7,505.4,331.4,502.1z"/>
</g>
<g id="_x23_ff5a20ff">
	<path class="st0" d="M99.9,298.8c1-1.7,2-3.4,2.9-5.2c20.1,0,40.1,0,60.2,0c1.6-0.4,2.3,1.2,3.2,2.2
		c24.3,33.8,48.9,67.4,73.2,101.2c25.3-34.5,50.6-68.9,75.9-103.3c20.7-0.1,41.4,0.1,62.1-0.1c1,1.7,2,3.4,2.9,5.1
		c-43.5,62.6-86.9,125.4-130.5,188c-6.8-0.1-13.6,0-20.4-0.1C186.4,424,143.1,361.4,99.9,298.8z"/>
	<path class="st0" d="M371.3,345.7c2.7,0,5.5-0.1,8.2,0c0,45.1,0,90.2,0,135.3c0.3,2.7-2.5,4.3-4.5,5.4c-18.6,0.2-37.3,0-55.9,0.1
		c-1.2-1.3-2.4-2.5-3.7-3.8c0.1-18.5,0.1-36.9,0-55.4C334,400,352.7,372.9,371.3,345.7z"/>
</g>
</svg>
