<?xml version="1.0" encoding="utf-8"?>
<!-- Generator: Adobe Illustrator 19.0.0, SVG Export Plug-In . SVG Version: 6.00 Build 0)  -->
<svg version="1.1" id="Layer_1" xmlns="http://www.w3.org/2000/svg" xmlns:xlink="http://www.w3.org/1999/xlink" x="0px" y="0px"
	 viewBox="-70.436 177.661 337.436 488.229" style="enable-background:new -70.436 177.661 337.436 488.229;" xml:space="preserve">
<style type="text/css">
	.st0{fill:#392A25;}
	.st1{fill:#E5987C;}
	.st2{fill:#33180F;}
	.st3{fill:#A36458;}
	.st4{fill:#CDD2E6;}
	.st5{fill:#815BAA;}
	.st6{fill:#C9C6E3;}
	.st7{fill:#8B63B7;}
	.st8{fill:#9770C1;}
	.st9{fill:#725B8B;}
	.st10{fill:#3F2A95;}
	.st11{fill:#1A0622;}
	.st12{fill:#8C66B6;}
	.st13{fill:#C3D1F8;}
	.st14{fill:#4C389D;}
</style>
<g id="_x23_392a25ff">
	<path class="st0" d="M46.98,182.47c-0.62-3.93,3.67-5.01,6.73-4.78c0.53,6.08,0.21,12.14,1.8,18.1
		c11.26-4.39,20.65-12.71,32.41-15.97c3.31-1.87,6.94-0.69,10.12,0.81c-3.37,3.39-2.77,8.16-1.62,12.36
		c5.08-3.07,11.53-1.86,16.6-4.94c2.01-1.16,2.77-3.79,4.91-4.68c3.62,0.49,7.15,1.71,10.56,3.02c0.65,2.51,0.76,5.32,3.03,7.04
		c2.93,4.1,8.72,4.32,11.46,8.59c0.67,1.93,0.46,4.6,2.96,5.18c1.13-1.46,2.17-2.99,3.22-4.51c3.24-0.55,6.24,1.62,7.37,4.57
		c1.64,4.16,2.26,8.62,3.66,12.86c1.41,0.3,2.82,0.68,3.98,1.59c3.97,2.8,8.61,4.51,12.54,7.38c3.35,2.47,1.19,7.36,3.67,10.37
		c2.91,3.73,6.83,6.58,9.36,10.63c2.13,3.47,4.92,6.42,7.56,9.49c2.76,7.92,4.35,16.21,6.81,24.24c1.14,2.93-0.05,6-0.09,9.01
		c-0.13,3.67-0.06,7.38-0.84,11c-1.23,5.64-0.89,11.43-1.31,17.15c0.12,6.19-2.86,11.76-4.25,17.66c-2.45,4.13-4.88,8.29-6.54,12.82
		c-1.87,3.25-4.73,5.9-6.1,9.44c-0.96,2.54-2.62,4.74-3.62,7.25c-0.32,2.69-0.04,5.48-1.11,8.04c-2.44,6.3-4.77,12.65-6.57,19.17
		c-0.81,3.07-0.47,6.43-1.8,9.36c-0.62,2-4.46,1.68-3.84-0.72c0.61-8.09-0.81-16.12-1.12-24.2c-0.06-4.01-1.65-7.75-2.21-11.68
		c-0.48-4.74-0.21-9.64-1.72-14.22c-1.51-3.39-3.44-6.58-4.8-10.05c0.41-0.47,1.22-1.4,1.63-1.87c-0.32-5.64,2.52-10.61,3.64-15.98
		c1.02-3.56,3.88-6.36,4.43-10.11c0.82-5.26,2.23-10.58,1.32-15.92c-0.54-3.17,0.1-6.69-1.7-9.53c-3.42-7.25-9.94-12.53-16.9-16.2
		c-4.4-3.18-10.06-3.01-15.03-4.72c-3.53-1.51-6.97,0.91-10.57,0.3c-15.12-1.07-30.01,3.24-45.11,2.05
		c-1.83-0.04-3.44-0.91-4.92-1.9c-4.14-2.87-9.3-3.33-13.96-4.93c-3.99-0.98-7.07-4.07-11.12-4.84c-8.99-1.91-18.62-3.02-27.43,0.31
		c-3.45,1.45-7.75,1.39-10.36,4.4c-1.83,1.9-3.94,3.51-5.64,5.53c-2.06,5.05-4,10.15-5.45,15.41c-1.8,3.17-0.25,6.68-0.11,10.02
		c0.17,4.72,0.98,9.38,1.19,14.09c0.07,2.4,1.24,4.55,2.24,6.67c1.93,3.88,3.35,8,4.7,12.12c-1.95,3.13-4.25,6.09-5.65,9.53
		c-1.92,4.66-3.27,9.64-6.25,13.78c-1.13,1.64-2.52,3.12-3.4,4.92c-1.08,3.24,1.13,6.57,0.23,9.84c-0.97,3.65-2.01,7.29-2.75,11
		c-1.1,4.59-0.56,9.38-1.61,13.98c-2.84-5.91-3.37-12.51-3.96-18.94c0.27-2.87,0.43-5.72-0.31-8.54c1.34-5.01,2.21-10.23,1.42-15.42
		c-1.71-5.04-6.38-8.02-9.3-12.26c-0.64-1.03-1.38-2.03-1.78-3.18c-1.29-9.49-1.77-19.05-2.67-28.59
		c-0.42-5.52,1.63-10.97,0.76-16.48c-1.3-7.05-1.09-14.3-0.46-21.41c1.99-5.09,4.49-10.02,6.45-15.14c1.13-5.31,1.98-10.8,4.42-15.7
		c2.2-3.06,5.34-5.34,7.5-8.46c-1.5-0.94-3.44-1.47-4.34-3.12c-0.68-1.14-1.54-3.58,0.44-3.96c3.22-0.72,6.54-1.11,9.46-2.79
		c3.65,0.31,7.23-0.64,10.58-2.02c0.72-0.93,1.29-1.93,1.72-3.02c-0.9-4.04-3.9-7.27-4.88-11.31c3.83,2.07,8.31,1.06,12.33,2.42
		c1.88,0.49,3.64,1.41,5.58,1.69c1.26-0.73,1.95-2.28,3.4-2.69c1.71-0.1,3.42,0.09,5.13,0.15c0.05-0.78,0.15-2.35,0.2-3.13
		c1.12-1.46,2.07-3.04,3.17-4.52c1.45-1.36,3.44-1.91,5.14-2.9c3.95-2.08,6.72-5.68,9.41-9.13
		C48.51,183.13,47.49,182.69,46.98,182.47z"/>
</g>
<g id="_x23_e5987cff">
	<path class="st1" d="M22.47,260.51c8.81-3.33,18.44-2.22,27.43-0.31c4.05,0.77,7.13,3.86,11.12,4.84c4.66,1.6,9.82,2.06,13.96,4.93
		c1.48,0.99,3.09,1.86,4.92,1.9c15.1,1.19,29.99-3.12,45.11-2.05c3.6,0.61,7.04-1.81,10.57-0.3c4.97,1.71,10.63,1.54,15.03,4.72
		c6.96,3.67,13.48,8.95,16.9,16.2c1.8,2.84,1.16,6.36,1.7,9.53c0.91,5.34-0.5,10.66-1.32,15.92c-0.55,3.75-3.41,6.55-4.43,10.11
		c-1.12,5.37-3.96,10.34-3.64,15.98c-0.41,0.47-1.22,1.4-1.63,1.87c1.36,3.47,3.29,6.66,4.8,10.05c1.51,4.58,1.24,9.48,1.72,14.22
		c0.56,3.93,2.15,7.67,2.21,11.68c0.31,8.08,1.73,16.11,1.12,24.2c-0.62,2.4,3.22,2.72,3.84,0.72c1.33-2.93,0.99-6.29,1.8-9.36
		c1.8-6.52,4.13-12.87,6.57-19.17c1.07-2.56,0.79-5.35,1.11-8.04c1-2.51,2.66-4.71,3.62-7.25c1.37-3.54,4.23-6.19,6.1-9.44
		c2.34,0.43,5.36,0.2,6.72,2.62c2.88,3.25,2.85,7.76,2.29,11.81c-0.11,4.07-2.51,7.5-3.8,11.24c-2.44,7.1-4.08,14.52-7.53,21.23
		c-2.6,4.96-4.33,10.33-7.01,15.25c-2.64,5.05-8.36,7.04-12.82,10.12c-3.82,1.8-4.98,6.28-5.47,10.11
		c-0.37,4.42-1.24,8.86-0.85,13.31c-2.44,6.25-6.99,11.24-10.71,16.73c-2.57,3.71-7.11,5.35-9.77,8.99
		c-4.39,5.64-8.07,11.84-12.99,17.07c-3.98,4.41-9,7.75-12.82,12.32c-1.96,2.35-3.97,4.68-6.32,6.65
		c-5.96,5.01-11.14,10.88-17.25,15.72c-3.85,3.32-9.3,1.61-13.88,2.64c-5.83,0.36-11.79,3.6-17.53,1.2
		c-4.48-1.53-9.23-1.89-13.8-3.08c-2.61-0.42-3.68-3.07-5.25-4.85c-2.65-3.62-6.85-6.14-8.4-10.51c-2.2-6.24-4.17-12.72-8.01-18.19
		c-3.83-5.52-7.08-11.41-10.8-17.01c-2.99-4.43-4.88-9.67-8.94-13.31c-4.03-4.62-8.38-9.1-11.29-14.56
		c-2.2-4.01-0.8-8.75-1.85-13.04c-1.7-7.95-0.99-16.11-0.05-24.11c-0.98,0.42-2.94,1.27-3.93,1.69
		c-5.08-5.28-8.03-12.17-10.73-18.86c-2.67-11.13-6.93-22.16-6.27-33.78c-0.52-6.11,1.18-12.05,1.04-18.14
		c-0.16-2.49,2.69-3.15,4.4-4.08c2.92,4.24,7.59,7.22,9.3,12.26c0.79,5.19-0.08,10.41-1.42,15.42c0.74,2.82,0.58,5.67,0.31,8.54
		c0.59,6.43,1.12,13.03,3.96,18.94c1.05-4.6,0.51-9.39,1.61-13.98c0.74-3.71,1.78-7.35,2.75-11c0.9-3.27-1.31-6.6-0.23-9.84
		c0.88-1.8,2.27-3.28,3.4-4.92c2.98-4.14,4.33-9.12,6.25-13.78c1.4-3.44,3.7-6.4,5.65-9.53c-1.35-4.12-2.77-8.24-4.7-12.12
		c-1-2.12-2.17-4.27-2.24-6.67c-0.21-4.71-1.02-9.37-1.19-14.09c-0.14-3.34-1.69-6.85,0.11-10.02c1.45-5.26,3.39-10.36,5.45-15.41
		c1.7-2.02,3.81-3.63,5.64-5.53C14.72,261.9,19.02,261.96,22.47,260.51 M19.47,353.43c-1.84,1.76-3.64,3.58-5.39,5.43
		c-0.31,1.8-0.06,3.71,0.74,5.36c5.31-0.24,9.46-3.98,14.21-5.88c1.63-0.42,3.29-0.82,4.7-1.78c6.79,0.55,13.53,1.53,20.14,3.15
		c4.12,0.27,8.41-0.19,12.24,1.79c-0.22-2.01-0.02-4.11-0.66-6.04c-1.5-1.85-4.15-1.97-6.26-2.73c-5.27-1.04-10.69-2.34-16.08-1.57
		c-2.56,0.05-4.83-1.18-7.11-2.13c-1.7-0.15-3.46-0.07-4.96-0.99C26.98,349.42,23.45,351.89,19.47,353.43 M92.56,359.36
		c0.16,2.06-2.2,5.53,0.43,6.51c4.1,0.08,8.1-1.12,12.18-1.36c8.95,0.86,17.97,0.11,26.95,0.43c7.35,1.1,13.78,5.33,20.89,7.09
		c-1.9-2.53-3.58-5.2-5.31-7.84c-2.68-2.16-5.63-4.04-8.74-5.51c-5.05-0.17-9.85-2.22-14.94-1.78c-4.04,0.17-8-0.86-12.02-0.99
		C105.33,355.43,98.89,357.58,92.56,359.36z"/>
</g>
<g id="_x23_33180fff">
	<path class="st2" d="M19.47,353.43c3.98-1.54,7.51-4.01,11.57-5.39c1.5,0.92,3.26,0.84,4.96,0.99c2.28,0.95,4.55,2.18,7.11,2.13
		c5.39-0.77,10.81,0.53,16.08,1.57c2.11,0.76,4.76,0.88,6.26,2.73c0.64,1.93,0.44,4.03,0.66,6.04c-3.83-1.98-8.12-1.52-12.24-1.79
		c-6.61-1.62-13.35-2.6-20.14-3.15c-1.41,0.96-3.07,1.36-4.7,1.78c-4.75,1.9-8.9,5.64-14.21,5.88c-0.8-1.65-1.05-3.56-0.74-5.36
		C15.83,357.01,17.63,355.19,19.47,353.43z"/>
	<path class="st2" d="M92.56,359.36c6.33-1.78,12.77-3.93,19.44-3.45c4.02,0.13,7.98,1.16,12.02,0.99
		c5.09-0.44,9.89,1.61,14.94,1.78c3.11,1.47,6.06,3.35,8.74,5.51c1.73,2.64,3.41,5.31,5.31,7.84c-7.11-1.76-13.54-5.99-20.89-7.09
		c-8.98-0.32-18,0.43-26.95-0.43c-4.08,0.24-8.08,1.44-12.18,1.36C90.36,364.89,92.72,361.42,92.56,359.36z"/>
</g>
<g id="_x23_a36458ff">
	<path class="st3" d="M151.9,463.88c3.72-5.49,8.27-10.48,10.71-16.73c1.06,4.79,3.05,9.78,1.54,14.7
		c-1.98,5.27-3.66,10.74-6.58,15.59c-5.68,7.97-11.63,15.75-17.34,23.71c-3.32,4.9-7.55,9.06-11.51,13.43
		c-3.29,3.39-6.13,7.27-10.02,10.03c-9.69,7.1-19.82,13.59-29.97,20.02c-12.12,6.79-24.57,12.96-36.9,19.35
		c-0.59,3.24,0.23,6.47,1.11,9.58c-4.98,1.54-10.03,4.25-15.34,2.38c-1.71-0.55-3.44-1.05-5.17-1.52c1.19-1.17,2.38-2.34,3.55-3.53
		c-2.74-4.97-6.38-9.55-7.91-15.11c-2.22-7.35-3.51-14.95-5.52-22.36c-2.8-10-1.82-20.51-3.44-30.69c-0.09-1.44-0.81-2.66-1.9-3.57
		c-2.52-5.78-1.7-12.16-2.56-18.23c-2.29-6.68-5.1-13.21-8.51-19.41c4.06,3.64,5.95,8.88,8.94,13.31c3.72,5.6,6.97,11.49,10.8,17.01
		c3.84,5.47,5.81,11.95,8.01,18.19c1.55,4.37,5.75,6.89,8.4,10.51c1.57,1.78,2.64,4.43,5.25,4.85c4.57,1.19,9.32,1.55,13.8,3.08
		c5.74,2.4,11.7-0.84,17.53-1.2c4.58-1.03,10.03,0.68,13.88-2.64c6.11-4.84,11.29-10.71,17.25-15.72c2.35-1.97,4.36-4.3,6.32-6.65
		c3.82-4.57,8.84-7.91,12.82-12.32c4.92-5.23,8.6-11.43,12.99-17.07C144.79,469.23,149.33,467.59,151.9,463.88z"/>
</g>
<g id="_x23_cdd2e6ff">
	<path class="st4" d="M165.04,452.89c1.82,2.74,3.65,5.48,5.25,8.36c0.51,8.71-3.93,16.81-7.17,24.68
		c-3.91,8.03-10.37,14.41-15.02,21.97c-10.72,17.24-21.53,34.42-32.24,51.66c-8.76,15.72-20.17,29.96-27.28,46.59
		c-4.38,4.26-8.54,8.78-13.35,12.58c-1.21-0.75-2.81-1.13-3.47-2.52c-5.01-8.61-9.46-17.52-13.77-26.5c2.14-0.37,4.28-0.87,6.25-1.8
		c-1.37-4.78-2.91-9.59-5.3-13.96c-1.38-2.08-4.09-0.68-6-0.39c-0.88-3.11-1.7-6.34-1.11-9.58c12.33-6.39,24.78-12.56,36.9-19.35
		c10.15-6.43,20.28-12.92,29.97-20.02c3.89-2.76,6.73-6.64,10.02-10.03c3.96-4.37,8.19-8.53,11.51-13.43
		c5.71-7.96,11.66-15.74,17.34-23.71c2.92-4.85,4.6-10.32,6.58-15.59C165.25,458.99,165.15,455.89,165.04,452.89z"/>
</g>
<g id="_x23_815baaff">
	<path class="st5" d="M170.29,461.25c6.26,9.02,10.84,19.05,15.55,28.94c2.75,6.33,9.77,9.93,11.26,16.94
		c-0.64,0.95-1.29,1.91-1.93,2.87c-10.71,14.67-19.52,30.55-29.27,45.85c-4.06,6.26-6.31,13.85-12.12,18.84
		c-8.96,2.65-17.5,6.58-26.51,9.02c-5.22-7.32-8.62-15.66-11.41-24.15c10.71-17.24,21.52-34.42,32.24-51.66
		c4.65-7.56,11.11-13.94,15.02-21.97C166.36,478.06,170.8,469.96,170.29,461.25z"/>
</g>
<g id="_x23_c9c6e3ff">
	<path class="st6" d="M17.21,499.16c1.09,0.91,1.81,2.13,1.9,3.57c1.62,10.18,0.64,20.69,3.44,30.69c2.01,7.41,3.3,15.01,5.52,22.36
		c1.53,5.56,5.17,10.14,7.91,15.11c-1.17,1.19-2.36,2.36-3.55,3.53c1.73,0.47,3.46,0.97,5.17,1.52c-2.21-0.33-5.38,0.5-6.57-2
		c-3.92-5.81-7.46-11.85-11.75-17.4c-1.21-2.56-4.35-2.65-6.43-4.19c-2.74,2.19-3.36,5.84-4.19,9.04
		c-0.89,3.99-1.69,8.96,1.91,11.91c-1.04,1.48-2.06,3-2.65,4.73c-1.24,2.56-1.38,5.69-3.11,7.97c-2.87,1.07-5.88-0.84-8.79-1.14
		c4.8-8.63,8.75-18.39,7.1-28.46c-0.76-5.32,2.84-9.89,3.03-15.1c-0.03-7.96-1.01-16.08,1.51-23.82c2.01-6.09,5.94-11.25,8.76-16.95
		C16.61,500.19,17.01,499.5,17.21,499.16z"/>
</g>
<g id="_x23_8b63b7ff">
	<path class="st7" d="M-12.63,503.31c7.29-3.56,15.67-2.14,23.45-1.63c1.95,0.3,3.81-0.51,5.6-1.15c-2.82,5.7-6.75,10.86-8.76,16.95
		c-0.37-0.05-1.11-0.14-1.48-0.18c-1.1,4.12-2.19,8.3-2.47,12.57c-0.09,3.95,1.39,7.68,2.44,11.43c-0.19,5.21-3.79,9.78-3.03,15.1
		c-9.73,8.01-13.01,20.67-17.48,31.9c-3.94,10-5.73,20.67-9.38,30.76c-3.44,9.6-3.55,19.98-6.36,29.72
		c-2.72,5.47-5.21,11.08-6.45,17.11H-68.5c-2.58-9.43-1.91-19.34-1.7-29c0.69-16.7-0.84-33.44,0.64-50.1
		c1.73-18.2,7.97-35.71,16.52-51.77c3.8-7.2,9.38-13.43,16.2-17.88C-29.07,512.03-21.09,507.19-12.63,503.31z"/>
</g>
<g id="_x23_9770c1ff">
	<path class="st8" d="M195.17,510c1.04-1.61,2.23-3.14,3.96-4.05c10.83,7.92,22.2,15.06,33.46,22.35c4.16,2.78,7.23,6.89,11.45,9.62
		c4.75,3.1,8.53,7.41,13.06,10.81c3.86,2.94,7.93,6.03,9.9,10.63v106.53H104.87c0.7-1.94,1.35-3.89,2.36-5.69
		c7.31-13.32,15.29-26.25,22.44-39.66c6.1-11.58,14.4-21.79,20.9-33.11c2.01-3.44,4.21-6.75,6.08-10.26
		c-0.96-0.83-1.92-1.66-2.87-2.48c5.81-4.99,8.06-12.58,12.12-18.84C175.65,540.55,184.46,524.67,195.17,510z"/>
</g>
<g id="_x23_725b8bff">
	<path class="st9" d="M6.18,517.3c0.37,0.04,1.11,0.13,1.48,0.18c-2.52,7.74-1.54,15.86-1.51,23.82c-1.05-3.75-2.53-7.48-2.44-11.43
		C3.99,525.6,5.08,521.42,6.18,517.3z"/>
</g>
<g id="_x23_3f2a95ff">
	<path class="st10" d="M8.66,561.39c0.83-3.2,1.45-6.85,4.19-9.04c2.08,1.54,5.22,1.63,6.43,4.19c4.29,5.55,7.83,11.59,11.75,17.4
		c1.19,2.5,4.36,1.67,6.57,2c5.31,1.87,10.36-0.84,15.34-2.38c1.91-0.29,4.62-1.69,6,0.39c2.39,4.37,3.93,9.18,5.3,13.96
		c-1.97,0.93-4.11,1.43-6.25,1.8c-9.28,2.43-18.29,6.34-26,12.11c-2.09,2.33-4.78,4.3-6.27,7.06c0.48,1.62,1.1,3.2,1.59,4.82
		c-4.8,1.73-9.87,4.32-15.09,2.87c-3.03-0.87-3.23-4.43-3.77-6.97c1.81-1.93,1.58-4.77,2.21-7.17c1.51-6.55,2.07-13.42,5.12-19.51
		c-1.66-3.28-2.15-7.21-5.21-9.62C6.97,570.35,7.77,565.38,8.66,561.39z"/>
</g>
<g id="_x23_1a0622ff">
	<path class="st11" d="M-14.36,588.3c4.47-11.23,7.75-23.89,17.48-31.9c1.65,10.07-2.3,19.83-7.1,28.46
		c2.91,0.3,5.92,2.21,8.79,1.14c1.73-2.28,1.87-5.41,3.11-7.97c0.51,5.3-1.94,10.18-2.64,15.34c-2.05,7.99-0.33,16.38-2.32,24.38
		c-1.75,7.29-1.36,14.86-2.22,22.26c-1.31,6.91-4.24,13.43-4.89,20.49c-0.12,0.19-0.37,0.57-0.49,0.76
		c-0.95,1.3-0.77,3.09-0.69,4.63h-31.22c1.24-6.03,3.73-11.64,6.45-17.11c2.81-9.74,2.92-20.12,6.36-29.72
		C-20.09,608.97-18.3,598.3-14.36,588.3z"/>
	<path class="st11" d="M75.23,618.73c4.81-3.8,8.97-8.32,13.35-12.58c-8.3,20.48-18.85,39.94-28.62,59.74H34.37
		c2.6-3.59,5.05-7.32,8.15-10.51c5.44-5.56,9.5-12.37,15.54-17.35C64.62,632.34,69.07,624.76,75.23,618.73z"/>
</g>
<g id="_x23_8c66b6ff">
	<path class="st12" d="M88.58,606.15c7.11-16.63,18.52-30.87,27.28-46.59c2.79,8.49,6.19,16.83,11.41,24.15
		c9.01-2.44,17.55-6.37,26.51-9.02c0.95,0.82,1.91,1.65,2.87,2.48c-1.87,3.51-4.07,6.82-6.08,10.26
		c-6.5,11.32-14.8,21.53-20.9,33.11c-7.15,13.41-15.13,26.34-22.44,39.66c-1.01,1.8-1.66,3.75-2.36,5.69H59.96
		C69.73,646.09,80.28,626.63,88.58,606.15z"/>
</g>
<g id="_x23_c3d1f8ff">
	<path class="st13" d="M7.92,578.03c0.59-1.73,1.61-3.25,2.65-4.73c3.06,2.41,3.55,6.34,5.21,9.62c-3.05,6.09-3.61,12.96-5.12,19.51
		c-0.63,2.4-0.4,5.24-2.21,7.17c-0.35,0.38-1.05,1.14-1.41,1.52c0.52,2.33,1.56,4.8,0.44,7.14c-2.94,7.57-2.7,15.94-5.76,23.48
		c-2.31,6.14-3.78,12.58-5.87,18.76c0.65-7.06,3.58-13.58,4.89-20.49c0.86-7.4,0.47-14.97,2.22-22.26c1.99-8,0.27-16.39,2.32-24.38
		C5.98,588.21,8.43,583.33,7.92,578.03z"/>
	<path class="st13" d="M31.99,601.82c7.71-5.77,16.72-9.68,26-12.11c4.31,8.98,8.76,17.89,13.77,26.5c0.66,1.39,2.26,1.77,3.47,2.52
		c-6.16,6.03-10.61,13.61-17.17,19.3c-6.04,4.98-10.1,11.79-15.54,17.35c-3.1,3.19-5.55,6.92-8.15,10.51H21.58
		c1.57-5.71,5.75-10.79,5.01-16.99c1.71-11.59,2.24-23.52,0.72-35.2c-0.49-1.62-1.11-3.2-1.59-4.82
		C27.21,606.12,29.9,604.15,31.99,601.82z"/>
	<path class="st13" d="M-4.64,661.26c0.78,1.38,0.53,3.09,0.46,4.63h-1.15C-5.41,664.35-5.59,662.56-4.64,661.26z"/>
</g>
<g id="_x23_4c389dff">
	<path class="st14" d="M7.04,611.12c0.36-0.38,1.06-1.14,1.41-1.52c0.54,2.54,0.74,6.1,3.77,6.97c5.22,1.45,10.29-1.14,15.09-2.87
		c1.52,11.68,0.99,23.61-0.72,35.2c0.74,6.2-3.44,11.28-5.01,16.99H-4.18c0.07-1.54,0.32-3.25-0.46-4.63
		c0.12-0.19,0.37-0.57,0.49-0.76c2.09-6.18,3.56-12.62,5.87-18.76c3.06-7.54,2.82-15.91,5.76-23.48
		C8.6,615.92,7.56,613.45,7.04,611.12z"/>
</g>
</svg>
