<?xml version="1.0" encoding="utf-8"?>
<!-- Generator: Adobe Illustrator 19.0.0, SVG Export Plug-In . SVG Version: 6.00 Build 0)  -->
<svg version="1.1" id="Layer_1" xmlns="http://www.w3.org/2000/svg" xmlns:xlink="http://www.w3.org/1999/xlink" x="0px" y="0px"
	 viewBox="-246 365.9 102.8 110" style="enable-background:new -246 365.9 102.8 110;" xml:space="preserve">
<style type="text/css">
	.st0{fill:#4DC8E9;}
	.st1{fill:#FFFFFF;}
</style>
<g id="_x23_4dc8e9ff">
	<g id="XMLID_1_">
		<g>
			<path class="st0" d="M-144,381.7c1,3.7,0.8,7.4,0.6,11.2c-0.4,22.7-0.5,45.3,0.2,68c0,7.2-5.7,13.5-12.6,15h-78
				c-3-1.1-6.3-2.2-8.5-4.8c-1.7-2-2.7-4.5-3.7-7v-76.6h3c0,0.1,0,0.3,0,0.4c0.1,25.2-0.1,50.4,0.1,75.6c1.8,5,6.3,9.3,11.9,9.4
				c24,0,48.1,0,72.1,0c1.9,0.1,3.7-0.8,5.6-1.2c1.9-1.1,3.9-2.4,4.9-4.4c2.6-3.6,1.5-8.3,1.5-12.4c-0.1-20.4,0-40.7,0-61
				c0-3.6,0.6-7.3-0.1-10.8c-1.3-3-4.5-5.5-7.9-5c-8.3,0.4-16.6,0.1-25,0.2c0,6,0,12,0,18.1h-3c0-7.1,0-14.2,0-21.3
				c9.7,0,19.3,0,29-0.1C-149.6,374.6-146.2,378.3-144,381.7z"/>
			<path class="st1" d="M-147.1,383c0.7,3.6,0.1,7.2,0.1,10.8c0,20.3,0,40.7,0,61c0,4.1,1.1,8.8-1.5,12.4c-1,2.1-3,3.3-4.9,4.4
				c-1.9,0.4-3.7,1.3-5.6,1.2c-24,0-48.1,0-72.1,0c-5.6-0.1-10.1-4.4-11.9-9.4c-0.2-25.2,0-50.4-0.1-75.6c0-0.1,0-0.3,0-0.4
				c0-4.2,2.8-8.7,7-9.6c6.7,0.3,13.4,0.2,20,0.2c0,6,0,12,0,18.1c-3.5,0-7,0-10.5,0c0,19.9,0,39.7,0,59.6c19.2,0,38.3,0,57.5,0
				c0-19.9,0-39.8,0-59.6c-3.7,0-7.3,0-11,0c0-6,0-12,0-18.1c8.3-0.1,16.7,0.2,25-0.2C-151.6,377.6-148.4,380-147.1,383z"/>
			<path class="st0" d="M-169,396.3c0,19.9,0,39.8,0,59.6c-19.2,0-38.3,0-57.5,0c0-19.9,0-39.8,0-59.6c3.5,0,7,0,10.5,0
				c0-6,0-12.1,0-18.1c-6.7,0-13.4,0.1-20-0.2c-4.2,0.9-7,5.4-7,9.6h-3v-3.2c1.4-4.1,4.1-8.8,8.9-9.4c8.1-0.1,16.1,0.1,24.2,0
				c0,8.3,0,16.6,0,24.9c-3.3,0-6.7,0-10,0c0,17.6,0,35.3,0,52.9c17,0,34,0,50.9,0c0-17.6,0-35.3,0-52.9c-3.6,0-7.3,0-10.9,0
				c0-1.2,0-2.4,0-3.6h3C-176.3,396.3-172.7,396.3-169,396.3z"/>
			<path class="st0" d="M-185,374.9c0,15,0,30,0,44.9c-8.6,0-17.2,0-25.8,0c0-6.7,0-13.4,0-20.1c0-11.3,0-22.6,0-33.9h25.8
				C-185,368.9-185,371.9-185,374.9z M-188.1,416.7c0-15.9,0-31.9,0-47.8c-6.4,0-12.8,0-19.2,0c0,15.9,0,31.9,0,47.8
				C-200.9,416.7-194.5,416.7-188.1,416.7z"/>
			<path class="st1" d="M-188.1,368.9c0,15.9,0,31.9,0,47.8c-6.4,0-12.8,0-19.2,0c0-15.9,0-31.9,0-47.8
				C-200.9,368.9-194.5,368.9-188.1,368.9z"/>
		</g>
		<g>
		</g>
	</g>
</g>
</svg>
