<?xml version="1.0" encoding="utf-8"?>
<!-- Generator: Adobe Illustrator 19.0.0, SVG Export Plug-In . SVG Version: 6.00 Build 0)  -->
<svg version="1.1" id="Layer_1" xmlns="http://www.w3.org/2000/svg" xmlns:xlink="http://www.w3.org/1999/xlink" x="0px" y="0px"
	 viewBox="31.2 341.9 649.3 159" style="enable-background:new 31.2 341.9 649.3 159;" xml:space="preserve">
<style type="text/css">
	.st0{opacity:6.000000e-002;fill:#0E0E0C;enable-background:new    ;}
	.st1{opacity:0.33;fill:#515146;enable-background:new    ;}
	.st2{opacity:0.25;fill:#3F3F35;enable-background:new    ;}
	.st3{opacity:0.35;fill:#58584B;enable-background:new    ;}
	.st4{opacity:0.35;fill:#59594C;enable-background:new    ;}
	.st5{opacity:0.24;fill:#2D2D26;enable-background:new    ;}
	.st6{opacity:0.24;enable-background:new    ;}
	.st7{fill:#5E5E5E;}
	.st8{opacity:0.25;fill:#3F3F36;enable-background:new    ;}
	.st9{opacity:0.25;fill:#404036;enable-background:new    ;}
	.st10{opacity:0.8;fill:#989881;enable-background:new    ;}
	.st11{opacity:0.54;fill:#5C5C4E;enable-background:new    ;}
	.st12{opacity:0.18;fill:#1D1D18;enable-background:new    ;}
	.st13{opacity:0.29;fill:#0E0E0E;enable-background:new    ;}
	.st14{opacity:0.33;fill:#111111;enable-background:new    ;}
	.st15{opacity:0.43;fill:#282826;enable-background:new    ;}
	.st16{opacity:0.56;fill:#696959;enable-background:new    ;}
	.st17{opacity:0.22;fill:#37372F;enable-background:new    ;}
	.st18{opacity:0.33;fill:#3C3C33;enable-background:new    ;}
	.st19{opacity:0.24;fill:#3C3C34;enable-background:new    ;}
	.st20{opacity:0.32;fill:#3A3A31;enable-background:new    ;}
	.st21{opacity:0.19;fill:#303029;enable-background:new    ;}
	.st22{opacity:0.31;fill:#505045;enable-background:new    ;}
	.st23{opacity:0.71;fill:#858570;enable-background:new    ;}
	.st24{opacity:0.7;fill:#83836F;enable-background:new    ;}
	.st25{opacity:0.54;fill:#2A2A2A;enable-background:new    ;}
	.st26{opacity:0.33;fill:#3B3B32;enable-background:new    ;}
	.st27{opacity:0.28;fill:#31312A;enable-background:new    ;}
	.st28{opacity:0.27;fill:#31312A;enable-background:new    ;}
	.st29{opacity:0.79;fill:#96967F;enable-background:new    ;}
	.st30{opacity:0.18;fill:#1C1C18;enable-background:new    ;}
</style>
<g id="_x23_0e0e0c0f">
	<path class="st0" d="M380,341.9h83.8c2.7,1.5,5.7,3.6,5.1,7.1c-1.3-2.4-3-4.9-5.9-5.4c-25.3-0.2-50.6,0-76-0.1
		c-2.2,0.1-4.7-0.4-6.5,1.3c-0.1,0.3-0.4,0.9-0.5,1.1c-3,24.7-6.3,49.5-9.8,74.1c0-5.4,1.2-10.8,1.8-16.2
		c1.4-10.6,2.8-21.3,4.2-31.9c0.6-8.7,3.1-17.2,2.9-25.9c-0.9,1.4-1.8,2.9-2.8,4.4C375.2,346.8,377.1,343.7,380,341.9z"/>
	<path class="st0" d="M573.3,348.1c2.3,3.6-1.9,9.3,1.5,11.9c-0.1,1.3-0.2,2.7-0.4,4l0-1.8c-0.5-0.7-1-1.5-1.5-2.2
		c-0.3,5.4-1.1,10.7-1.9,16.1c-11,0-22.1,0.1-33.1-0.1c-0.9,6.6-2.3,13.2-2.2,19.9l-0.4,0.4l-0.1,0.5c-0.5,1.9-0.6,3.9-0.7,5.9
		c0,0.5-0.2,1.5-0.2,1.9c-0.4,1.8-0.8,3.6-0.9,5.5c0,0.4-0.1,1.1-0.1,1.5c-0.3,1.6-0.6,3.1-0.8,4.7l-0.7-1.2
		c1.7-13.3,3.4-26.5,5.2-39.8c11,0,22.1,0,33.1,0C571.3,366.3,573.6,357.3,573.3,348.1z"/>
	<path class="st0" d="M115.7,349.9c2.5,0.5,4.9,1.5,6.7,3.3C120.1,352.1,117.9,350.9,115.7,349.9z"/>
	<path class="st0" d="M137.2,369.4c0.8,1.6,1.6,3.1,2.4,4.7c3.3,8.9,3.9,18.4,4.4,27.8c-0.7,8.3-1.4,16.6-2.4,24.9
		c1,1.3,1.4,3,1,4.6c-0.5-1.2-1-2.4-1.6-3.6c-2.8,17.1-8.4,34.3-19.5,47.8c-10.9,13.3-28,21.4-45.2,21.2l-1,0
		c8.9-0.9,18-2.3,26.1-6.3c14-6.4,24.3-19,30.3-32.9c7.1-16.3,10.1-34.2,11-51.9C143.6,393.4,141.8,380.9,137.2,369.4z"/>
	<path class="st0" d="M248.3,407.6c0.3,0.3,0.9,0.8,1.2,1c-2.2,8.3-2.4,16.9-3.9,25.3c-0.2,1.8-2.3,1.4-3.5,1.5
		c-17.6-0.2-35.2,0.1-52.7-0.2c-0.2,2.7-0.5,5.3-0.6,8l0.1,0.1l-0.2-0.1c0,0.4-0.1,1.3-0.2,1.7l-0.2,0c-1,7.4-1.8,14.8-3.1,22.1
		c0.6,0,1.8,0,2.3,0c18.9,0.4,37.9,0,56.8,0.2l-0.8,0.4c-19.7,0.3-39.4,0.1-59.1,0.1c1.5-11,2.9-22,4.4-33.1
		c18.7-0.1,37.3,0.1,56-0.1C245.8,425.4,247.1,416.5,248.3,407.6z"/>
	<path class="st0" d="M454.2,407.7c0.3,0.3,0.9,0.9,1.2,1.1c-2.4,8.6-2.3,17.7-4.2,26.4c-18.6-0.2-37.2,0.1-55.9-0.2
		c-0.2,2.7-0.6,5.3-0.9,8c0,0.2-0.1,0.5-0.1,0.7c-1,7.7-1.8,15.4-3.2,23.1c0.5,0,1.5,0,2.1,0.1c19,0.3,38.1,0,57.1,0.1l-0.8,0.4
		c-19.7,0.4-39.4,0.2-59.1,0.1c1.5-11,2.9-22.1,4.4-33.1c18.7-0.1,37.3,0.1,56-0.1C451.8,425.5,453.1,416.6,454.2,407.7z"/>
</g>
<g id="_x23_51514653">
	<path class="st1" d="M53,344.6c1.3-1.5,3.3-1.2,5-1.3c12.7,0.1,25.3,0,38,0c8.3,0,16.6,2,24.1,5.6c9.9,5.3,18.3,14.1,21.1,25.2
		l-1.7-0.1c-0.8-1.5-1.6-3.1-2.4-4.7L137,369c0.3-1.6-0.7-2.9-2.2-3.2c-0.3-0.5-1-1.6-1.3-2.2l-0.1-0.2l-0.2-0.2
		c-2.8-3-5.7-5.9-8.7-8.6l-0.2-0.2l-0.2-0.1c-0.5-0.3-1.4-0.9-1.8-1.3c-1.8-1.9-4.2-2.8-6.7-3.3c-0.7-0.3-1.4-0.6-2.2-0.9
		c-1.8-0.8-3.6-1.6-5.4-2.1C89.9,343.3,71.3,345.7,53,344.6z"/>
	<path class="st1" d="M173.9,344.6c1.4-1.4,3.2-1.3,5.1-1.3c25.3,0.1,50.7,0,76,0.1c3.5-0.2,6.1,2.5,7.3,5.5c-0.7,0.7-1.4,1.3-2.1,2
		c-0.2-0.9-0.4-1.9-0.7-2.8c-0.7-0.8-1.3-1.6-2.1-2.3l-0.8-0.7C229.2,344.6,201.5,345.4,173.9,344.6z"/>
	<path class="st1" d="M478.7,349.9c-0.1-3.4,2.6-6.9,6.2-6.5c28.1,0,56.1,0,84.2,0c3.4-0.3,6,2.5,7.3,5.3c0.1,3.8-0.3,7.7-1.5,11.4
		c-3.4-2.6,0.8-8.3-1.5-11.9c-0.5-0.8-1.1-1.6-1.8-2.4l-0.7-0.8c-29.6-0.4-59.2,0.2-88.8-0.3l-0.1,1c-0.2,1.4-0.4,2.8-0.7,4.1
		c-1.5,2.6-0.9,5.7-1.5,8.5c-0.5,5.8-2.8,11.7-0.4,17.4c-2.2-0.4-3-2.9-2.9-4.8C476.2,363.8,478.4,356.9,478.7,349.9z"/>
	<path class="st1" d="M590,343.7c3.3-0.3,6.7-0.4,10-0.4c24.3,0.1,48.7,0,73.1,0c4-0.1,7.5,3.6,7.5,7.5c0.2,5.4-1.2,10.7-1.7,16
		c-0.5,3.5-0.4,7.3-2.4,10.4c-0.2-5.8,2.8-11.6,0.8-17.2c0.1-0.7,0.1-1.4,0.2-2.1c0.3,0.4,0.8,1.2,1,1.6c0.9-2.1,1.1-4.6-0.1-6.6
		c-0.3-1.6-0.6-3.2-1-4.8c-0.6-0.8-1.2-1.6-1.8-2.4l-0.8-0.7c-25.9-0.4-51.9,0-77.9-0.2c-2.1-0.1-4.2-0.2-6.2-0.4l0,0.6
		c-0.3,0.3-1,0.9-1.4,1.2C589.5,345.6,589.8,344.4,590,343.7z"/>
	<path class="st1" d="M195.9,402.4c14.4-0.1,28.8,0,43.2-0.1c2.2,0,4.3,0.1,6.5,0.4c-2.4,0.8-4.9,1.5-7.5,1.4c-14,0-28,0-42,0
		L195.9,402.4z"/>
	<path class="st1" d="M401.6,402.4c13.8-0.1,27.6,0,41.4-0.1c2.9,0,5.7,0,8.6,0.4c-4.9,2.1-10.3,1.2-15.5,1.3
		c-11.3,0.1-22.7,0-34,0.1L401.6,402.4z"/>
	<path class="st1" d="M188.3,456.3l0.4,1.4c-0.1,2.4-0.2,4.9-0.3,7.3c14.2,0.4,28.4,0.1,42.6,0.2c5.1,0.1,10.3-0.5,15.3,0.9
		c-0.5,0.2-1.5,0.7-1.9,1c-18.9-0.2-37.9,0.2-56.8-0.2C187,463.3,187.4,459.7,188.3,456.3z"/>
	<path class="st1" d="M394.3,456.2l0.6,1.4c-0.2,2.2-0.4,4.5-0.7,6.7c2.6,0.5,5.2,0.9,7.8,0.9c13.3-0.1,26.7,0,40-0.1
		c3.5,0,7-0.1,10.3,0.9c-0.5,0.2-1.5,0.7-2,1c-19-0.1-38.1,0.1-57.1-0.1C393.1,463.3,393.3,459.7,394.3,456.2z"/>
	<path class="st1" d="M606,456.8l1,0.3c-0.4,2.4-0.7,4.9-0.9,7.4c4.9,1.1,9.9,0.6,14.8,0.7c11.7,0,23.3,0.1,35,0
		c2.8,0,5.6,0.2,8.3,0.9c-0.5,0.3-1.4,0.8-1.8,1c-19-0.1-38,0-57-0.1C605.1,463.5,605.3,460.1,606,456.8z"/>
</g>
<g id="_x23_3f3f353f">
	<path class="st2" d="M280.6,347.9c0.4-1.9,0.8-4.8,3.4-4.5c7-0.5,14.1-0.2,21.1-0.2c3.7-0.3,6.8,2.6,7.4,6.1
		c-0.8,0.9-1.6,1.7-2.4,2.6l-0.1-1.1c0-1.9-1.1-3.5-2.2-5l-0.7-0.9l-0.7-0.8c-7.2-0.6-14.6-1.1-21.7,0.5l-0.4,0.1l-0.1,1.1
		c-1.3,11.3-2.8,22.5-4.5,33.8c-0.5,2-1,4.1-1.3,6.2c-1.3,11.3-3.4,22.6-4.3,34c-3.6,21.9-5.7,44-9.1,65.9
		c-0.7,4.1-0.6,8.3-0.3,12.4c-3.4-2.8-2.4-7.6-2.2-11.4c2.8-22.3,5.9-44.6,8.8-66.9c0.6-8.4,2.1-16.6,3.2-24.9
		C276.7,379.3,278.2,363.5,280.6,347.9z"/>
</g>
<g id="_x23_58584b58">
	<path class="st3" d="M284.6,344.7c7.1-1.6,14.5-1.1,21.7-0.5l0.7,0.8C299.5,344.8,292.1,345.1,284.6,344.7z"/>
</g>
<g id="_x23_59594c5a">
	<path class="st4" d="M380.5,344.7c1.8-1.6,4.3-1.1,6.5-1.3c25.3,0.2,50.6-0.1,76,0.1l0.2,1.2C435.6,344.9,408,345.1,380.5,344.7z"
		/>
</g>
<g id="_x23_2d2d263c">
	<path class="st5" d="M462.9,343.6c2.9,0.5,4.6,3,5.9,5.4c0.2,5.3-0.8,10.6-1.4,15.9c-0.3-1.6-0.6-3.2-0.9-4.8l0.2,0
		c0.6-3.3,0.8-6.6,1-9.9c-0.5,0.4-1.4,1.1-1.9,1.4c-0.2-1.2-0.3-2.4-0.5-3.6c-0.7-0.7-1.4-1.5-2-2.2l-0.2-1.1L462.9,343.6z"/>
</g>
<g id="_x23_0000003d">
	<path class="st6" d="M284.2,344.8l0.4-0.1c7.5,0.4,14.9,0.1,22.4,0.2l0.7,0.9c-7.9,0.2-15.8,0.1-23.7,0.1L284.2,344.8z"/>
	<path class="st6" d="M379.9,345.9c0.1-0.3,0.4-0.9,0.5-1.1c27.6,0.4,55.1,0.2,82.7,0.1l0.2,1.1
		C435.6,345.9,407.8,345.9,379.9,345.9z"/>
</g>
<g id="_x23_5e5e5eff">
	<path class="st7" d="M52.9,345.7c12.7,0,25.4,0,38.2,0c7.6,0,15.2,1,22.4,3.3c0.7,0.3,1.4,0.6,2.2,0.9c2.2,1.1,4.4,2.2,6.7,3.3
		c0.5,0.3,1.4,0.9,1.8,1.3c0.1,0.1,0.3,0.2,0.4,0.3c3,2.8,5.9,5.6,8.7,8.6c0.1,0.1,0.2,0.3,0.3,0.4c0.3,0.5,1,1.6,1.3,2.2
		c0.2,1.3,0.6,3.1,2.2,3.2l0.1,0.4c4.7,11.5,6.5,24,5.8,36.4c-0.9,17.7-3.9,35.5-11,51.9c-6.1,13.9-16.3,26.6-30.3,32.9
		c-8.2,4-17.2,5.4-26.1,6.3c-12.2,0.5-24.3,0.1-36.5,0.3c-2.4,0.5-3.9-1.6-5.5-3c1.4-11.9,3.3-23.7,4.5-35.6l0.1-0.5
		c1.8-12.4,3.5-24.9,4.9-37.4l0.1-0.5c0.9-4.6,1.4-9.4,2-14C47.7,385.9,50.7,365.8,52.9,345.7 M75.6,375.1
		c-3.9,30.8-8.1,61.6-12.2,92.4c10.4,0,21.5,1.1,30.9-4.3c0.6-0.4,1.7-1.2,2.2-1.5c0.1-0.1,0.3-0.2,0.4-0.3c2.1-1.3,4.5-2.8,5.1-5.4
		c1.7,0.2,2.3-0.5,1.7-2.3l0.4-0.3c5.2-7.6,7.5-16.7,9.3-25.6c2-11.5,3.6-23.4,1-34.9c-0.7-3-1.5-6.1-3.4-8.6
		c-0.1-0.4-0.4-1.3-0.6-1.7l-0.6,1c-0.7-3.1-4.1-4.6-6.7-6C94.5,374,84.8,375.3,75.6,375.1z"/>
	<path class="st7" d="M173.9,345.7c27.9,0,55.7,0,83.6,0c0.7,0.7,1.4,1.5,2.1,2.3c-0.1,9-2.1,17.9-3.1,26.9c-20,0.2-39.9,0-59.9,0.1
		c-1.1,9.5-2.5,19-3.7,28.5l-0.1,0.8c1.3,0.4,2.7,0.7,4.1,0.8c16.2,0.1,32.4-0.1,48.7,0.1c0.9,0.8,1.8,1.6,2.7,2.3
		c-1.2,8.9-2.4,17.9-3.5,26.8c-18.7,0.2-37.3,0-56,0.1c-1.4,11-2.9,22-4.4,33.1c19.7,0.1,39.4,0.3,59.1-0.1c0.9,0.9,1.7,1.8,2.6,2.7
		c-0.5,8.9-2.4,17.6-3.1,26.4c-28.7,0.2-57.4,0.1-86.1,0.1c-0.8-0.9-1.6-1.8-2.4-2.7c1.2-11.9,3.3-23.6,4.4-35.5l0.1-0.6
		c0.4-2.2,0.8-4.4,1-6.7C164.7,416.1,169.6,381,173.9,345.7z"/>
	<path class="st7" d="M284,345.9c7.9,0,15.8,0.1,23.7-0.1c1.1,1.5,2.2,3.1,2.2,5c-3.3,25.2-6.9,50.4-10,75.7
		c-2.2,13.4-3.5,26.8-5.5,40.2c13.5,1,27.1,0.2,40.7,0.4c2.7,0.3,6.5-1,8.1,1.9c1,2.5,0.1,5.2-0.1,7.7c-1.1,6.6-1.5,13.4-3,19.9
		c-24.1,0.7-48.3,0-72.4,0.5c-1-1-2.1-2-3.1-3.1c2.9-24.8,6.8-49.4,9.5-74.2c2.2-13.4,3.7-26.8,5.5-40.2
		C281.3,368.4,282.8,357.2,284,345.9z"/>
	<path class="st7" d="M379.9,345.9c27.8,0.1,55.6,0.1,83.5,0c0.6,0.8,1.3,1.5,2,2.2c0.1,1.2,0.3,2.5,0.5,3.7
		c-1.5,7.7-2.1,15.5-3.3,23.2c-20,0.3-39.9,0-59.9,0.1c-1.2,9.3-2.3,18.7-3.8,28l-0.2,1.2c1.4,0.5,2.8,0.9,4.3,0.9
		c16.2,0,32.4-0.1,48.6,0.1c0.9,0.8,1.7,1.7,2.6,2.5c-1.1,8.9-2.4,17.8-3.5,26.7c-18.7,0.1-37.3,0-56,0.1c-1.4,11-2.9,22-4.4,33.1
		c19.7,0.1,39.4,0.3,59.1-0.1c0.9,0.9,1.8,1.9,2.6,2.8c-0.5,8.8-2.3,17.5-3.1,26.4c-28.7,0.2-57.4,0-86,0.1
		c-0.8-0.9-1.6-1.8-2.4-2.7c1.2-11.9,3.3-23.6,4.5-35.5l0.1-0.5c1.9-12.5,3.5-25,4.9-37.5l0.1-0.5
		C373.7,395.3,376.9,370.6,379.9,345.9z"/>
	<path class="st7" d="M481.9,345.8c29.9,0,59.8,0,89.7,0c0.6,0.7,1.2,1.5,1.8,2.4c0.3,9.2-2,18.2-2.9,27.3c-11,0-22.1,0-33.1,0
		c-1.8,13.2-3.6,26.5-5.2,39.8c-0.2,1.5-0.4,3-0.6,4.4c-3.1,23.1-6.1,46.2-9.2,69.2c-0.5,2.9-0.8,5.8-0.9,8.6
		c-7.1-1-14.3-0.1-21.5-0.5c-2.1,0-3.4-1.7-4.4-3.2c1.5-16,4.1-31.8,6-47.7c2.8-22,6-43.9,8.5-65.9l0.1-0.4c0.2-1.4,0.4-2.9,0.5-4.3
		c-10,0.1-19.9-0.1-29.9,0.1c-1.1-1.6-2.8-3.3-2.2-5.5c0.9-6.7,1.8-13.4,2.6-20.2C481.5,348.5,481.7,347.1,481.9,345.8z"/>
	<path class="st7" d="M591.9,345.7c27.9,0.1,55.8-0.1,83.6,0.1c0.6,0.8,1.3,1.5,1.8,2.4c0.5,8.9-2.3,17.6-2.5,26.5l-0.1,0.4
		c-20,0.3-40.1,0-60.1,0.1c-0.7,4.9-1.4,9.7-1.5,14.6c-0.2,0.2-0.5,0.5-0.7,0.7c-0.5,4.9-1.2,9.8-1.3,14.7c17.6,0.2,35.3,0.1,53,0.1
		c0.9,1.5,2.3,2.9,1.8,4.8c-0.9,8.1-2.3,16.2-3.1,24.4c-18.7,0.2-37.3,0-56,0.1c-1.5,11.1-2.9,22.1-4.4,33.2
		c19.7,0,39.5,0.3,59.2-0.1c0.9,0.9,1.7,1.8,2.6,2.7c-0.5,8.9-2.3,17.6-3.1,26.4c-28.7,0.2-57.4,0.1-86.1,0
		c-0.8-0.9-1.6-1.8-2.3-2.6c1.3-11.9,3.3-23.6,4.5-35.5l0.1-0.5c1.9-12.5,3.5-25,4.9-37.5l0.1-0.5
		C585.6,395.3,589,370.5,591.9,345.7z"/>
</g>
<g id="_x23_3f3f363f">
	<path class="st8" d="M169.9,353.9c0.6-3.1,0-7,3.1-8.9c0.4,5.4-0.9,10.8-1.5,16.2c-3.3,25.6-6.8,51.1-10.1,76.7
		c-0.7,6.7-2.1,13.4-2.4,20.1l-0.1,0.6c-1.8,8.7-2.3,17.7-3.9,26.4c-0.8,4.4-0.7,8.8-0.6,13.2c-3.6-3-2.1-8.2-2-12.3
		C158.3,441.9,164.2,397.9,169.9,353.9z"/>
</g>
<g id="_x23_40403640">
	<path class="st9" d="M589.4,346.3c0.3-0.3,1-0.9,1.4-1.2c1,7-1.1,13.8-1.8,20.7c-2.1,18.1-5.1,36.1-6.8,54.2l-0.1,0.5
		c-1.8,9.1-2.5,18.3-4,27.5c-0.5,3.3-0.8,6.7-1,10l-0.1,0.5c-1.9,9-2.3,18.3-4,27.3c-0.9,4.1-0.7,8.2-0.4,12.3
		c-0.9-1-2.1-1.9-2.1-3.4c-0.6-4.3,0-8.7,0.6-12.9c5.5-41.4,10.9-82.7,16.4-124.1C587.9,354,588.3,350,589.4,346.3z"/>
	<path class="st9" d="M48.9,354.7c0.5-3.1,1-6.4,3-9c0.7,6.8-1.3,13.4-2,20.1c-2.1,18.1-5.1,36.1-6.8,54.3l-0.1,0.5
		c-1.1,5.1-1.6,10.3-2.3,15.4c-0.8,7.3-2.3,14.6-2.5,22l-0.1,0.5c-1.3,5.1-1.6,10.4-2.4,15.6c-0.9,8-3.1,16-2.1,24.1
		c-0.8-1.1-2.1-1.9-2.2-3.4c-0.9-7.4,1-14.6,1.8-21.9C38.4,433.5,43.7,394.1,48.9,354.7z"/>
	<path class="st9" d="M376.2,350.4c0.9-1.4,1.8-2.9,2.8-4.4c0.3,8.7-2.3,17.3-2.9,25.9c-1.4,10.6-2.8,21.3-4.2,31.9
		c-0.6,5.4-1.8,10.7-1.8,16.2l-0.1,0.5c-1.9,9-2.5,18.3-3.9,27.4c-0.5,3.3-0.8,6.7-1,10.1l-0.1,0.5c-1.2,4.9-1.5,9.9-2.3,14.9
		c-0.8,8.3-3.1,16.4-2.1,24.8c-0.8-1.1-2.1-2-2.2-3.5c-0.8-6.7,0.8-13.3,1.5-19.9c5.2-39,10.3-78,15.5-116.9
		C375.8,355.4,376.2,352.9,376.2,350.4z"/>
</g>
<g id="_x23_989881cb">
	<path class="st10" d="M465.4,348.1c0.1,1.2,0.3,2.4,0.5,3.6c0.5-0.3,1.4-1,1.9-1.4c-0.2,3.3-0.4,6.6-1,9.9l-0.2,0
		c-0.2,0-0.7-0.1-1-0.2c0.2-2.3,0.5-4.7,0.5-7l-0.1-1.2C465.7,350.5,465.5,349.3,465.4,348.1z"/>
	<path class="st10" d="M678.4,353c1.2,2.1,1,4.5,0.1,6.6c-0.3-0.4-0.8-1.2-1-1.6C677.5,356.3,678,354.6,678.4,353z"/>
	<path class="st10" d="M310.3,353.4c0.4,2.1,0.7,4.3,0.3,6.5c-1.1,7.8-2.1,15.7-3.2,23.5c-0.3,2-0.2,3.9,0.1,5.9
		c0.2,1.8,0.3,3.7,0.5,5.5c-0.6-1.7-1.2-3.4-2.3-4.8C306.9,377.8,308.9,365.6,310.3,353.4z"/>
	<path class="st10" d="M257.3,375.3c0.7-5.1,1.3-10.2,1.9-15.3c1.3,5.6-0.2,11.3-1.6,16.7c-2.2,0.2-4.4,0.5-6.6,0.5
		c-17.1,0-34.2-0.1-51.3,0.1l-0.5,1l-0.1,0.1c-2,5.8-2.6,12-2.6,18.1c-0.3,2-0.8,3.9-0.7,5.9l0.1,1.7c-0.6,0-1.8,0-2.4,0l0.2-1.8
		c1.2-8.8,2.5-17.6,3.4-26.5c15.9,0,31.9,0,47.8,0C249.1,375.8,253.3,376.2,257.3,375.3z"/>
	<path class="st10" d="M465,360.3c0.6,0.6,1.1,1.2,1.7,1.8c-0.4,5-1.4,10-1.6,15c-10.3,1.7-20.7,0.8-31.1,1
		c-5.7,0.4-11.3-0.8-17-0.1c-4.1,0.4-8.3-0.9-12.4,0.4c-0.7,8-2.2,16-3,24l0.4,1.7c-0.6-0.2-1.7-0.6-2.3-0.8
		c1.2-9.2,2.5-18.3,3.5-27.5c15.9,0,31.9,0,47.8,0c4.1,0,8.2,0.3,12.3-0.5C463.9,370.3,464.7,365.4,465,360.3z"/>
	<path class="st10" d="M573,360.1c0.5,0.7,1,1.5,1.5,2.2l0,1.8c-0.7,4.4-1.4,8.8-2.2,13.2c-2.1,0.6-4.2,1.1-6.3,1.1
		c-8.8,0-17.7-0.1-26.5,0c-1.6,5.7-1.1,11.9-3.1,17.4l-0.5,0.3c-0.1-6.7,1.3-13.3,2.2-19.9c11,0.2,22.1,0.1,33.1,0.1
		C571.9,370.8,572.7,365.5,573,360.1z"/>
	<path class="st10" d="M677.2,360c2,5.6-1,11.4-0.8,17.2l0,0c-3.1,0.5-6.2,0.9-9.4,0.9c-12.7,0-25.3,0-38,0c-4.1,0-8.2-1-12.2,0.2
		c-1,4.3-1.5,8.8-1.7,13.2c-0.4-0.5-1.1-1.4-1.5-1.9c0.7-4.6,1-9.2,1.6-13.8c19.7-0.1,39.4,0.2,59.1-0.1l0.5-0.8l0.1-0.4
		C676.6,369.9,676.4,364.9,677.2,360z"/>
	<path class="st10" d="M76.2,375.9c8.8,0.3,18-1.1,26.4,2.3c3,1,5.2,3.3,7.3,5.5c-0.2,0.4-0.7,1.1-0.9,1.4c-1.2-3.2-4.7-4.3-7.5-5.6
		c-7.2-3.2-15.4-2.1-23.1-2.1c-0.2,0.4-0.5,1.2-0.7,1.6c-0.5,4.1-1.1,8.2-1.4,12.4c-0.7,2.4-0.9,5.2-2.9,7
		C74.4,390.8,75.4,383.4,76.2,375.9z"/>
	<path class="st10" d="M480,376.2c10-0.2,19.9,0.1,29.9-0.2c-0.1,0.7-0.2,2.1-0.3,2.8c-9-1.4-18.2-0.3-27.3-0.6c-0.1,0-0.3,0-0.4,0
		C481.3,377.5,480.7,376.9,480,376.2z"/>
	<path class="st10" d="M305,391.2c0.6,0.7,1.1,1.4,1.7,2.1c-0.2,4.3-1.5,8.5-1.2,12.8c-0.5-0.3-1.5-0.9-2-1.2
		C304.2,400.3,304.8,395.7,305,391.2z"/>
	<path class="st10" d="M612.7,392c0.5-0.1,1.5-0.3,2-0.4c0,3.7-1.5,7.4-1,11.1l0.4,1.4c-0.6,0-1.8,0.1-2.4,0.1
		C611.9,400.2,613.4,396.1,612.7,392z"/>
	<path class="st10" d="M535.4,396.9c1.8,1.7,1.2,4.5-0.7,5.9C534.8,400.8,534.9,398.8,535.4,396.9z"/>
	<path class="st10" d="M73.3,398.8c1.9,3.6-0.1,7.7,0.2,11.6c0.1,1,0.4,3.1,0.6,4.1c-0.9-0.1-1.8-0.3-2.8-0.4
		C72,409,72.6,403.9,73.3,398.8z"/>
	<path class="st10" d="M534.5,404.7c0.9,1.4,1.7,6-0.9,5.5C533.7,408.3,534.1,406.5,534.5,404.7z"/>
	<path class="st10" d="M249.5,408.6l0.9,0.7c0,3.4-0.8,6.7-1,10.1c-1.3,5.6-1.6,11.5-3,17.1c-2.1,0.4-4.3,0.9-6.4,0.8
		c-16.3-0.1-32.6,0-48.9,0c-0.5,2.3-0.8,4.6-1,6.9c-0.3-0.2-0.9-0.7-1.2-1l-0.1-0.1c0.1-2.7,0.4-5.4,0.6-8c17.6,0.3,35.1,0,52.7,0.2
		c1.3-0.1,3.3,0.3,3.5-1.5C247.1,425.5,247.3,416.8,249.5,408.6z"/>
	<path class="st10" d="M455.4,408.8l1-0.2c-0.2,3.6-0.8,7.1-1.1,10.7c-1.3,5.6-1.6,11.5-3,17.1c-2.1,0.5-4.3,0.9-6.4,0.9
		c-16.3,0-32.6,0-48.9,0c-0.5,2.5-0.9,5-1.2,7.6c-0.4-0.4-1.1-1.3-1.4-1.8c0.3-2.7,0.7-5.3,0.9-8c18.6,0.3,37.2,0,55.9,0.2
		C453.1,426.5,453.1,417.5,455.4,408.8z"/>
	<path class="st10" d="M666.3,413.9c0.3-2,1.2-3.8,1.9-5.7c0.2,3.7-0.6,7.4-0.9,11.1c-1.3,5.6-1.6,11.5-3,17.1
		c-2.1,0.5-4.3,0.9-6.5,0.9c-15-0.1-30,0-45-0.1c-1.3,0.2-2.9-0.3-4,0.6c-0.8,2.1-0.6,4.4-0.8,6.6c-0.5-0.6-1-1.2-1.6-1.8
		c0.4-2.5,0.6-5.1,0.8-7.6c18.6,0.3,37.3,0,55.9,0.2C664.7,428.2,665.3,421,666.3,413.9z"/>
	<path class="st10" d="M533.5,411.7c1.2,1.4,1.1,3.5,0.4,5.2c-0.4,1-0.8,0.8-1.1-0.4C532.9,414.8,533.2,413.2,533.5,411.7z"/>
	<path class="st10" d="M71,414.2c0.6,0.7,1.2,1.4,1.7,2c-0.2,2.1-0.4,4.2-0.8,6.3c-0.5,2.3-1,4.6-1.3,6.9c-0.2-0.2-0.5-0.6-0.7-0.8
		C69.5,423.8,71,419,71,414.2z"/>
	<path class="st10" d="M532.3,419.3l1.3-0.6c-0.1,2.2-0.2,4.4-0.3,6.7c-0.1,1.8,0,3.7,0.3,5.5c-0.3-1-0.6-2-1-3
		c-0.2,7.3-2.3,14.5-2.4,21.8c-0.7-0.6-1.3-1.3-1.9-2C530,438.2,530.9,428.7,532.3,419.3z"/>
	<path class="st10" d="M69.1,428.9c0.5,0.9,0.9,1.8,1.4,2.7c-0.6,4.2-1.2,8.5-1.7,12.7c-0.3-0.3-1-1-1.3-1.3
		C68.1,438.3,68.8,433.7,69.1,428.9z"/>
	<path class="st10" d="M67.3,443.8c0.8,1.2,1.1,2.6,0.9,4c-0.5,5.7-2.1,11.3-1.9,17.1c0.4,0.5,1.2,1.5,1.6,2
		c-1.3-0.1-2.5-0.1-3.8-0.1C65.5,459.2,66.3,451.5,67.3,443.8z"/>
	<path class="st10" d="M188.5,444.8c0.2,0,0.7,0.2,0.9,0.2c0.1,3.8-0.7,7.5-1.1,11.3c-0.9,3.5-1.3,7.1-0.8,10.6c-0.6,0-1.8,0-2.3,0
		c1.3-7.3,2-14.7,3.1-22.1L188.5,444.8z"/>
	<path class="st10" d="M298.2,445.4c0.2-0.1,0.5-0.3,0.6-0.3c1.5,6.5-2.6,13.5-1,20c14.6,0.5,29.2,0.1,43.8,0.2v0.3
		c-11.9,0-23.8,0-35.6,0c-3.5,0-7.1-0.4-10.5,0.7C296.4,459.3,297.5,452.4,298.2,445.4z"/>
	<path class="st10" d="M394.4,443.8l1,1.1c0.5,3.8-0.8,7.5-1.1,11.3c-0.9,3.5-1.2,7.1-1,10.7c-0.5,0-1.5,0-2.1-0.1
		C392.5,459.2,393.4,451.5,394.4,443.8z"/>
	<path class="st10" d="M605.8,444.9c0.5-0.1,1.5-0.2,1.9-0.3c-0.3,4.1-0.9,8.1-1.6,12.2c-0.7,3.3-1,6.7-0.5,10.1c-0.6,0-1.7,0-2.3,0
		C604.3,459.6,605.9,452.3,605.8,444.9z"/>
	<path class="st10" d="M527.6,449.9c0.5-0.1,1.7-0.4,2.2-0.5c-0.2,2.3-0.2,4.7-0.6,7c-1,2.5-0.4,6.1-2.8,7.8
		C526.6,459.4,528.3,454.6,527.6,449.9z"/>
	<path class="st10" d="M526.4,464.1c0.3,0.4,0.8,1.2,1,1.6c-0.8,7.3-1.6,14.6-3.1,21.8c-0.2-0.5-0.6-1.5-0.9-2
		C524.5,478.5,525.3,471.3,526.4,464.1z"/>
	<path class="st10" d="M247.1,471.4c1.4,4.4-0.1,9-0.5,13.4c-0.9,5-0.5,10.5-3.5,14.9c-2.4-0.3-4.7-0.3-7.1-0.3
		c-25.5,0.1-51.1-0.1-76.6,0.1c-1.2-0.7-2.4-1.4-3.6-2.1c29.2-0.1,58.4-0.1,87.6,0C244.9,488.8,245.6,480,247.1,471.4z"/>
	<path class="st10" d="M344.6,471.2c0.2,0.4,0.7,1.1,0.9,1.5c0.1,3-0.4,6-0.9,8.9c-0.9,4.4-1.5,8.8-2,13.2c-0.3-0.3-0.8-0.9-1.1-1.2
		C342.6,486.2,343.5,478.7,344.6,471.2z"/>
	<path class="st10" d="M453.1,471.4c1.5,4.6-0.2,9.5-0.6,14.2c-0.8,4.8-0.5,10.1-3.5,14.1c-3-0.4-6-0.2-9-0.2c-25,0-50.1,0-75.1,0
		c-1-0.7-2.1-1.4-3.1-2c29.2-0.1,58.4-0.1,87.6,0C451,488.8,451.6,480,453.1,471.4z"/>
	<path class="st10" d="M665.1,471.4c0.9,2.4,0.6,5.1,0.3,7.6c-0.9,6.7-1.8,13.5-2.9,20.2c0,0.1-0.1,0.2-0.2,0.3
		c-28.5,0-57,0.1-85.5,0c-1.1-0.7-2.1-1.3-3.1-2c29.2,0,58.4-0.1,87.6,0C663,488.8,663.6,480,665.1,471.4z"/>
	<path class="st10" d="M523.4,486.9c1.7,2.9,0.2,6.2,0.1,9.3c-0.2,1.2-0.5,2.3-1,3.3c-8.1-0.2-16.4,0.7-24.4-0.5
		c7.4-2.8,15.7-0.1,23.3-1.5C523.1,494.5,522.3,490.3,523.4,486.9z"/>
</g>
<g id="_x23_5c5c4e89">
	<path class="st11" d="M262.3,348.9c0.4,9.6-2.2,19-3.2,28.5c-2.3,0.7-4.7,1.1-7.2,1c-17.6-0.1-35.3,0.1-52.9-0.1l0.5-1
		c17.1-0.2,34.2,0,51.3-0.1c2.2-0.1,4.4-0.3,6.6-0.5c1.4-5.4,2.9-11.1,1.6-16.7c0.2-3.1,0.8-6.1,1.1-9.1
		C261,350.2,261.6,349.5,262.3,348.9z"/>
	<path class="st11" d="M310.1,351.9c0.8-0.9,1.6-1.7,2.4-2.6c0.3,5.1-0.7,10.1-1.4,15.1c-1.3,8.3-1.7,16.8-3.7,25
		c-0.3-2-0.4-3.9-0.1-5.9c1.2-7.8,2.1-15.7,3.2-23.5c0.4-2.2,0-4.4-0.3-6.5C310.2,353,310.1,352.3,310.1,351.9z"/>
	<path class="st11" d="M78.3,377.3c7.7,0,15.9-1.1,23.1,2.1c-7.9-0.4-15.9-2.1-23.8-0.5C77.8,378.5,78.2,377.7,78.3,377.3z"/>
	<path class="st11" d="M342.6,494.8c0.5-4.4,1.1-8.8,2-13.2c0.1,1.6,0.2,3.1,0.3,4.7c-0.6,4.5-0.9,9.1-2.5,13.4
		c-24.2-0.1-48.5-0.3-72.7,0.1l-1-0.6c21.8,0.2,43.6-0.1,65.3,0.2c2.1-0.3,5,0.5,6.1-1.9c0.5-1.3,1-2.5,1.4-3.8
		C341.8,493.9,342.3,494.5,342.6,494.8z"/>
</g>
<g id="_x23_1d1d182e">
	<path class="st12" d="M576.4,348.7c1.5,7.8-1.2,15.5-1.8,23.2c-0.5,2.6-0.5,5.9-3,7.5c-10.5,0.7-21-0.5-31.5,0.6
		c-1.5,11.6-2.8,23.3-4.5,35c-0.5,3.5-0.3,7.3-2.3,10.3c0.1-2.2,0.2-4.4,0.3-6.7l-1.3,0.6l-0.9,0.4c0.2-1.5,0.4-3,0.6-4.4l0.7,1.2
		c0.4,1.3,0.8,1.4,1.1,0.4c0.7-1.6,0.8-3.7-0.4-5.2c0-0.4,0.1-1.1,0.1-1.5c2.6,0.5,1.7-4.1,0.9-5.5c0.1-0.5,0.2-1.5,0.2-1.9
		c1.9-1.4,2.5-4.1,0.7-5.9l0.1-0.5l0.4-0.4l0.5-0.3c2-5.5,1.5-11.7,3.1-17.4c8.8-0.1,17.7,0,26.5,0c2.1,0.1,4.2-0.5,6.3-1.1
		c0.7-4.4,1.5-8.8,2.2-13.2c0.2-1.3,0.3-2.7,0.4-4C576,356.4,576.5,352.5,576.4,348.7z"/>
	<path class="st12" d="M615.1,391.6c0.2-4.4,0.7-8.9,1.7-13.2c1,7.3-1.2,14.4-1.8,21.6c-0.7,2,1.8,1.7,3,1.8c14,0.1,28-0.1,42,0.1
		c3.7-0.1,8.5,2.2,8.2,6.4c-0.7,1.8-1.7,3.7-1.9,5.7c-1,7.1-1.6,14.3-3,21.4c-18.6-0.2-37.3,0.1-55.9-0.2c-0.2,2.5-0.5,5.1-0.8,7.6
		c0.5,0.6,1,1.2,1.6,1.8c0.2-2.2,0.1-4.5,0.8-6.6c1.1-0.8,2.7-0.4,4-0.6c15,0.1,30,0,45,0.1c2.2,0,4.3-0.4,6.5-0.9
		c1.4-5.6,1.7-11.5,3-17.1c0.7,4.9-0.3,9.9-1.2,14.7c-0.4,1.8-0.9,4.5-3.2,4.4c-17.7,0.4-35.3-0.2-53,0.3
		c-0.9,6.1-1.6,12.3-2.9,18.4l-1-0.3c0.7-4,1.3-8.1,1.6-12.2c-0.5,0.1-1.5,0.2-1.9,0.3c0.1,7.4-1.5,14.6-2.5,21.9c0.6,0,1.7,0,2.3,0
		c19,0.2,38,0,57,0.1l-0.9,0.5c-19.7,0.4-39.5,0.1-59.2,0.1c1.5-11.1,2.9-22.1,4.4-33.2c18.7-0.1,37.3,0.1,56-0.1
		c0.9-8.1,2.2-16.2,3.1-24.4c0.5-1.9-0.9-3.4-1.8-4.8c-17.7,0-35.3,0.2-53-0.1c0.1-4.9,0.8-9.8,1.3-14.7c0.2-0.2,0.5-0.5,0.7-0.7
		l0.5,0.1C614,390.2,614.7,391.1,615.1,391.6 M612.7,392c0.7,4.1-0.8,8.2-1,12.4c0.6,0,1.8-0.1,2.4-0.1c8.6,0.5,17.3,0,26,0.1
		c7.5-0.2,14.9,0.5,22.4-0.4c-0.4-0.3-1.1-0.8-1.4-1.1c-15.7-0.3-31.5-0.2-47.3-0.1c-0.5-3.7,1-7.4,1-11.1
		C614.2,391.7,613.2,391.9,612.7,392z"/>
	<path class="st12" d="M508.8,385.9c0.2-1.9,0.7-3.8,1.3-5.7c-2.5,22-5.8,43.9-8.5,65.9c-1.9,15.9-4.6,31.8-6,47.7
		c-0.6-1.9-0.6-4-0.3-5.9C499.9,453.8,504.4,419.9,508.8,385.9z"/>
	<path class="st12" d="M111.1,384.4c1.9,2.5,2.6,5.6,3.4,8.6c2.6,11.5,1,23.4-1,34.9c-1.9,8.9-4.2,18-9.3,25.6
		c7.4-14.4,10.4-30.5,11.2-46.5C115.6,399.2,113.7,391.6,111.1,384.4z"/>
	<path class="st12" d="M246.4,436.5c1.4-5.6,1.6-11.5,3-17.1c0.7,5.5-0.3,11.1-1.6,16.4c-0.3,1.8-1.9,2.9-3.7,2.7
		c-17.3,0.2-34.7-0.3-52,0.3c-1,6.3-1.4,12.8-3.3,18.9l-0.4-1.4c0.4-3.8,1.2-7.5,1.1-11.3c-0.2,0-0.7-0.2-0.9-0.2
		c0-0.4,0.1-1.3,0.2-1.7l0.2,0.1c0.3,0.2,0.9,0.7,1.2,1c0.2-2.3,0.6-4.6,1-6.9c16.3,0,32.6,0,48.9,0
		C242.1,437.3,244.3,436.9,246.4,436.5z"/>
	<path class="st12" d="M452.4,436.5c1.4-5.6,1.6-11.5,3-17.1c0.7,5.8-0.4,11.6-1.9,17.2c-0.2,1.7-2.1,2-3.5,2
		c-17.3,0.3-34.7-0.3-52,0.2c-1,6.3-1.5,12.7-3.2,18.9l-0.6-1.4c0.3-3.8,1.5-7.5,1.1-11.3l-1-1.1c0-0.2,0.1-0.5,0.1-0.7
		c0.4,0.5,1.1,1.3,1.4,1.8c0.4-2.5,0.7-5.1,1.2-7.6c16.3,0,32.6,0,48.9,0C448.1,437.3,450.3,436.9,452.4,436.5z"/>
	<path class="st12" d="M73,499.7c6.9,0,13.7-1.3,20.5-2.1c-4.1,2-8.6,2.4-13,3.3H38.2c-0.2-0.3-0.6-0.9-0.8-1.2
		C49.3,499.8,61.1,499.7,73,499.7z"/>
	<path class="st12" d="M159.4,499.5c25.5-0.2,51.1,0,76.6-0.1c2.4,0,4.7-0.1,7.1,0.3l1.4,0.4l-0.5,0.8h-85.2L159.4,499.5z"/>
	<path class="st12" d="M364.9,499.5c25-0.1,50.1,0,75.1,0c3,0,6-0.2,9,0.2l1.3,0.5l-0.3,0.7h-84.7L364.9,499.5z"/>
	<path class="st12" d="M576.9,499.4c28.5,0.1,57,0,85.5,0l-0.7,1.5h-84.4L576.9,499.4z"/>
</g>
<g id="_x23_0e0e0e49">
	<path class="st13" d="M124.2,354.4l0.2,0.1l0.2,0.2C124.5,354.6,124.3,354.5,124.2,354.4z"/>
	<path class="st13" d="M96.7,461.5l0.2-0.1c-0.1,0.1-0.3,0.2-0.4,0.3L96.7,461.5z"/>
</g>
<g id="_x23_11111155">
	<path class="st14" d="M133.2,363.3l0.2,0.2l0.1,0.2C133.4,363.6,133.3,363.4,133.2,363.3z"/>
</g>
<g id="_x23_2828266d">
	<path class="st15" d="M134.8,365.9c1.6,0.3,2.5,1.6,2.2,3.2C135.4,369,135,367.2,134.8,365.9z"/>
</g>
<g id="_x23_69695990">
	<path class="st16" d="M139.6,374.1l1.7,0.1c2,6.1,3.5,12.4,4.1,18.8c0.8,14.6-0.2,29.4-3.2,43.7c-0.2-0.5-0.3-1-0.5-1.5
		c-0.4,5.9-2.4,11.4-4.1,17c-4.1,11.8-10.3,23.2-19.6,31.8c-6.8,6.6-15.5,10.8-24.5,13.6c-6.8,0.9-13.6,2.2-20.5,2.1
		c-11.9-0.1-23.8,0-35.7-0.1c-0.4-0.5-1.1-1.6-1.5-2.2c13.5-0.5,27.1,0.6,40.5-0.6c17.2,0.2,34.3-7.9,45.2-21.2
		c11.1-13.6,16.7-30.8,19.5-47.8c0.5,1.2,1.1,2.4,1.6,3.6c0.4-1.6,0.1-3.3-1-4.6c0.9-8.3,1.7-16.6,2.4-24.9
		C143.5,392.5,142.8,383,139.6,374.1z"/>
</g>
<g id="_x23_37372f37">
	<path class="st17" d="M482.4,378.2c9.1,0.3,18.3-0.8,27.3,0.6l0.5,0.9l-0.1,0.4c-0.5,1.9-1.1,3.8-1.3,5.7
		c-4.5,34-8.9,68-13.6,101.9c-0.3,2-0.4,4,0.3,5.9c1.1,1.5,2.4,3.3,4.4,3.2c7.1,0.4,14.3-0.5,21.5,0.5c-7.7,1.4-15.9-1.3-23.3,1.5
		l-0.4,0.2c-1.7-1.2-3.8-2.2-4.9-4c-0.6-2.4-0.4-4.9-0.2-7.4c4.3-31.7,8.4-63.3,12.6-95c0.5-4.4,1.6-8.8,1.3-13.3
		c-6.5-0.3-13.1-0.1-19.6-0.1C485.4,379.3,483.5,379.7,482.4,378.2z"/>
</g>
<g id="_x23_3c3c3354">
	<path class="st18" d="M196.5,396.5c0-6.1,0.5-12.4,2.6-18.1C198.7,384.5,198.6,390.7,196.5,396.5z"/>
</g>
<g id="_x23_3c3c343d">
	<path class="st19" d="M109.9,383.7l0.6-1c0.1,0.4,0.4,1.3,0.6,1.7c2.6,7.2,4.5,14.8,4.2,22.5c-0.8,16-3.8,32.2-11.2,46.5l-0.4,0.3
		c-1,0.5-1.5,1.2-1.7,2.3c-0.6,2.6-3,4.1-5.1,5.4l-0.2,0.1l-0.2,0.2c-0.6,0.4-1.7,1.1-2.2,1.5c-8.4,3.3-17.4,4.8-26.4,3.7
		c-0.4-0.5-1.2-1.5-1.6-2c-0.2-5.8,1.4-11.4,1.9-17.1c0.2-1.4-0.1-2.8-0.9-4c0-0.2,0.1-0.7,0.1-0.9c0.3,0.3,1,1,1.3,1.3
		c0.5-4.2,1.1-8.5,1.7-12.7c0.1-0.7,0.1-1.5,0.1-2.2c0.4-2.3,0.8-4.6,1.3-6.9c0.7,6.9-1.1,13.6-1.9,20.4c-0.8,7.1-2.2,14.2-2.6,21.4
		c10.6,0.8,22.2-0.1,30.5-7.5c3.9-3.3,6.2-8.1,8-12.7c5.1-12.7,6.6-26.6,6.5-40.2c0-6.4-0.9-12.9-3.6-18.8
		C109.2,384.7,109.7,384,109.9,383.7z"/>
</g>
<g id="_x23_3a3a3152">
	<path class="st20" d="M73.3,398.3c2-1.8,2.2-4.6,2.9-7c-0.2,6.4-0.3,13.2-2.8,19.1c-0.3-3.9,1.8-8-0.2-11.6
		C73.3,398.7,73.3,398.4,73.3,398.3z"/>
</g>
<g id="_x23_30302930">
	<path class="st21" d="M192.9,403.6l0.9-1.2l-0.2,1.8c0.6,0,1.8,0,2.4,0c14,0,28,0,42,0c2.6,0.1,5.1-0.6,7.5-1.4
		c3.1,0.4,5.2,3.5,4.8,6.5l-0.9-0.7c-0.3-0.3-0.9-0.8-1.2-1c-0.9-0.8-1.8-1.5-2.7-2.3c-16.2-0.2-32.4,0-48.7-0.1
		c-1.4,0-2.8-0.4-4.1-0.8L192.9,403.6z"/>
	<path class="st21" d="M398.9,403.1l0.8,0.3c0.6,0.2,1.7,0.6,2.3,0.8c11.3-0.1,22.7,0,34-0.1c5.2-0.1,10.6,0.8,15.5-1.3
		c2.9,0.3,4.7,3.2,4.9,5.9l-1,0.2c-0.3-0.3-0.9-0.9-1.2-1.1c-0.9-0.8-1.8-1.6-2.6-2.5c-16.2-0.2-32.4,0-48.6-0.1
		c-1.5,0-2.9-0.4-4.3-0.9L398.9,403.1z"/>
	<path class="st21" d="M303.2,406.9c0.1-0.5,0.2-1.6,0.3-2.1c0.5,0.3,1.5,0.9,2,1.2c0.4,6.4-1.5,12.6-2,18.9
		c-1.4,13-4.1,25.9-4.8,39c14.1,0.6,28.2-0.1,42.3,0.3c2.3-0.3,3.9,1.5,5.5,3c0.5,6.4,0,12.9-1.7,19.1c-0.1-1.6-0.2-3.1-0.3-4.7
		c0.5-2.9,1-5.9,0.9-8.9c-0.2-0.4-0.7-1.1-0.9-1.5c-0.5-0.7-0.9-1.5-1.4-2.2c-1.6-2.9-5.4-1.6-8.1-1.9c-13.6-0.2-27.1,0.6-40.7-0.4
		c2.1-13.4,3.4-26.9,5.5-40.2l0.7-1.1l0,2.1c0.5,0.7,0.9,1.4,1.5,2.1c0.4-5.2,1.2-10.3,1.8-15.4h-1.7c0.1-0.8,0.2-1.5,0.4-2.2
		c0.2,0.4,0.7,1.2,1,1.6C304,411.4,304.9,408.7,303.2,406.9 M299.7,429.9c1.1,4.6-2,9.8-0.5,14l0.6,0c1.1-4.5,1.4-9.4,2-14.1
		C301.2,429.7,300.2,429.9,299.7,429.9 M298.2,445.4c-0.8,7-1.8,13.9-2.7,20.9c3.4-1.1,7-0.7,10.5-0.7c11.9,0,23.8,0,35.6,0v-0.3
		c-14.6-0.1-29.2,0.3-43.8-0.2c-1.6-6.5,2.5-13.5,1-20C298.7,445.1,298.4,445.3,298.2,445.4z"/>
</g>
<g id="_x23_50504550">
	<path class="st22" d="M613.8,402.7c15.8,0,31.5-0.2,47.3,0.1c0.4,0.3,1.1,0.8,1.4,1.1c-7.4,0.8-14.9,0.2-22.4,0.4
		c-8.7-0.2-17.3,0.3-26-0.1L613.8,402.7z"/>
</g>
<g id="_x23_858570b5">
	<path class="st23" d="M303.2,406.9c1.7,1.9,0.8,4.5,0.2,6.6c-0.3-0.4-0.7-1.2-1-1.6C302.7,410.2,302.9,408.6,303.2,406.9z"/>
</g>
<g id="_x23_83836fb2">
	<path class="st24" d="M302.1,414.2h1.7c-0.6,5.1-1.4,10.3-1.8,15.4c-0.5-0.7-1-1.4-1.5-2.1l0-2.1
		C301.4,421.7,301.6,417.9,302.1,414.2z"/>
	<path class="st24" d="M299.7,429.9c0.5-0.1,1.5-0.2,2.1-0.2c-0.6,4.7-0.9,9.6-2,14.1l-0.6,0C297.7,439.7,300.8,434.5,299.7,429.9z"
		/>
</g>
<g id="_x23_2a2a2a8a">
	<path class="st25" d="M102,456c0.2-1,0.8-1.8,1.7-2.3C104.3,455.5,103.7,456.2,102,456z"/>
</g>
<g id="_x23_3b3b3254">
	<path class="st26" d="M529.2,456.4c0.7,1.8,0.3,3.8,0,5.7c-1.8,11.6-2.9,23.3-4.8,34.9l-0.8-0.8c0.1-3.1,1.6-6.4-0.1-9.3
		c-0.2-0.5-0.4-1.6-0.6-2.1l0.6,0.9c0.2,0.5,0.6,1.5,0.9,2c1.5-7.2,2.2-14.5,3.1-21.8c-0.3-0.4-0.8-1.2-1-1.6v0v0
		C528.7,462.4,528.2,458.9,529.2,456.4z"/>
</g>
<g id="_x23_31312a47">
	<path class="st27" d="M246.3,466.1c5,3.9,2.4,10.8,1.9,16.1c-1.3,5.9-0.6,12.5-3.7,17.9l-1.4-0.4c3-4.4,2.7-9.9,3.5-14.9
		c0.4-4.4,1.9-9.1,0.5-13.4c-0.3-0.3-0.8-0.9-1-1.2c-0.8-0.9-1.7-1.8-2.6-2.7l0.8-0.4C244.9,466.8,245.8,466.3,246.3,466.1z"/>
</g>
<g id="_x23_31312a46">
	<path class="st28" d="M452.4,466.1c2.4,2,3.4,5.2,2.9,8.3c-0.9,6.8-2,13.6-2.8,20.4c-0.1,2-1.1,3.8-2.2,5.4l-1.3-0.5
		c3-4.1,2.7-9.4,3.5-14.1c0.4-4.7,2-9.5,0.6-14.2c-0.3-0.3-0.8-0.9-1-1.2c-0.8-0.9-1.7-1.9-2.6-2.8l0.8-0.4
		C450.9,466.8,451.9,466.3,452.4,466.1z"/>
</g>
<g id="_x23_31312a44">
	<path class="st28" d="M664.3,466c2.4,2,3.5,5.3,3,8.4c-0.9,6.9-2.1,13.7-2.7,20.5c0,1.7-1,3-2,4.2c1.1-6.7,2-13.5,2.9-20.2
		c0.3-2.5,0.6-5.2-0.3-7.6c-0.3-0.3-0.8-0.9-1-1.2c-0.8-0.9-1.7-1.8-2.6-2.7l0.9-0.5C662.9,466.7,663.8,466.2,664.3,466z"/>
</g>
<g id="_x23_96967fca">
	<path class="st29" d="M266.8,497.8c24.4-0.6,48.8-0.1,73.3-0.3c-1.1,2.4-4,1.6-6.1,1.9c-21.8-0.2-43.5,0.1-65.3-0.2
		C268.2,498.8,267.3,498.1,266.8,497.8z"/>
</g>
<g id="_x23_1c1c182e">
	<path class="st30" d="M269.6,499.8c24.2-0.4,48.5-0.2,72.7-0.1l-0.5,1.2h-73.2L269.6,499.8z"/>
</g>
</svg>
