<?xml version="1.0" encoding="utf-8"?>
<!-- Generator: Adobe Illustrator 19.0.0, SVG Export Plug-In . SVG Version: 6.00 Build 0)  -->
<svg version="1.1" id="Layer_1" xmlns="http://www.w3.org/2000/svg" xmlns:xlink="http://www.w3.org/1999/xlink" x="0px" y="0px"
	 viewBox="595.7 152.4 1784.6 538.1" style="enable-background:new 595.7 152.4 1784.6 538.1;" xml:space="preserve">
<style type="text/css">
	.st0{fill:#D2D2D0;}
	.st1{fill:#4A4B4C;}
	.st2{fill:#FFFFFF;}
	.st3{fill:#E94E1B;}
</style>
<g id="_x23_d2d2d0ff">
	<path class="st0" d="M1612,154.8c12.4-3.3,25.3-2.3,38-2.4c48.6,0,97.3,0,145.9,0c12.1-0.3,24.6,3.6,33.6,11.9
		c7.7,7.1,12.2,17.3,12.7,27.7c1.2,10.7-4.1,20.6-5.3,31c1.2,4.4,6,6.3,10.1,7.4c6.1,1.8,12.6,1.2,18.9,1.3c144.7,0,289.4,0,434.1,0
		c17.3-0.8,34.7,4.6,49.1,14.1c14.3,9.6,24.8,24.6,28.8,41.3c3.9,15.9,2.6,32.6-1.2,48.4c-13.1,54.1-26.2,108.3-39.4,162.4
		c-4,17.4-10.5,34.3-19.9,49.6c-12.7,20.7-31.7,39-55.6,45.5c-12.3,3.7-25.2,2.6-37.9,2.7c-304.3,0-608.6,0-912.9,0
		c-7.9,0.3-16.7,1.8-22.3,7.9c-3.7,3.8-4.3,9.3-5.6,14.2c-1.1,5.1-3.5,9.7-5.8,14.3c-8.6,16.6-21.2,31.1-36.8,41.4
		c-15,9.8-32.6,15.7-50.5,16.9c-171,0-342,0-513,0c-6.6,0.4-12.9-1.8-19.1-3.5c-20.4-6.3-38.4-20.4-49-39
		c-14-24.3-15.9-53.9-10.3-80.9c19.8-77.9,39.7-155.8,59.4-233.8c1.1-4.5,2.4-8.9,3.3-13.4c1.6-11.1,5.8-21.7,8.8-32.4
		c0.7-1.9,0.8-5.3,3.7-3.7c10.6-19.3,27.7-35,48-43.5c12.6-5.4,26.4-8.1,40.1-8.4c259.7,0,519.4,0,779.1,0c7.2,0,14.7-2.9,18.8-8.9
		c4-5.3,4.9-12,6.5-18.3c1.6-6,2.4-12.3,5.5-17.8C1579.5,170.6,1594.8,158.8,1612,154.8 M1628.3,176.2c-8,0.6-16.2,2.6-23,7
		c-7.2,4.7-12.8,12.2-14.4,20.7c-1.1,4.7-2.3,9.4-3.4,14.2c-2.4,10.2-7.9,19.7-15.8,26.6c-8.1,7.1-19,10.6-29.7,10.8
		c-256.3,0-512.7,0-769,0c-6.4,0.1-12.8-0.3-19.1,0.5c-15.3,1.7-30.4,7.6-42.1,17.8c-11.3,9.8-19.8,22.9-23.8,37.3
		c-1.1,2.7-2.1,5.5-2.5,8.5c-0.9,7.8-3.5,15.2-5.3,22.9c-19.4,76.2-38.8,152.4-58.2,228.6c-4.1,19.1-3.8,39.7,3.9,57.8
		c6.2,14.8,18.3,27,33.1,33.2c6.6,2.7,13.6,5.2,20.9,4.7c169.7-0.1,339.4,0,509.1,0c23-1.5,45-13.4,58.8-31.9
		c6.2-8.5,11.9-17.8,13.8-28.3c1.8-8.3,6-16,12.3-21.7c10.1-9,23.9-12.5,37.2-12.8c310.7,0,621.3,0,932,0
		c15.8-0.3,30.7-8.3,41.3-19.7c12.3-13,20.4-29.3,26.1-46.1c2.8-8.3,4.5-16.8,6.6-25.3c11.3-46.6,22.6-93.3,33.9-140
		c2-8.6,4.5-17.1,5.2-26c1.2-12-0.3-24.8-6.7-35.3c-7.6-12.6-21.4-20.3-35.5-23.2c-5.6-1.4-11.3-0.9-16.9-1c-140.7,0-281.3,0-422,0
		c-10.6-0.3-21.4,0.9-31.9-1.6c-9.4-2-18.7-6.6-24.3-14.6c-4.1-5.9-6.2-13.2-5.4-20.4c1.5-7.1,3.6-14,5.1-21.1
		c0.9-6.2-1-13.2-6.2-17.1c-4.6-3.4-10.5-4.7-16.2-4.5C1740.1,176.2,1684.2,176,1628.3,176.2z"/>
</g>
<g id="_x23_4a4b4cff">
	<path class="st1" d="M1628.3,176.2c55.9-0.2,111.8,0,167.7-0.1c5.7-0.2,11.6,1.1,16.2,4.5c5.2,3.8,7.2,10.9,6.2,17.1
		c-1.5,7.1-3.7,14-5.1,21.1c-0.8,7.1,1.4,14.5,5.4,20.4c5.6,8.1,14.9,12.6,24.3,14.6c10.4,2.6,21.3,1.3,31.9,1.6
		c140.7,0,281.4,0,422,0c5.6,0.1,11.4-0.4,16.9,1c14.1,2.9,27.9,10.6,35.5,23.2c6.4,10.5,7.9,23.3,6.7,35.3
		c-0.7,8.8-3.1,17.4-5.2,26c-11.3,46.7-22.6,93.3-33.9,140c-2.2,8.4-3.8,17-6.6,25.3c-5.7,16.8-13.9,33.1-26.1,46.1
		c-10.6,11.4-25.5,19.4-41.3,19.7c-310.7,0-621.3,0-932,0c-13.3,0.3-27.1,3.8-37.2,12.8c-6.3,5.6-10.5,13.4-12.3,21.7
		c-1.9,10.5-7.6,19.8-13.8,28.3c-13.8,18.5-35.8,30.4-58.8,31.9c-169.7,0-339.4,0-509.1,0c-7.3,0.5-14.3-2-20.9-4.7
		c-14.8-6.2-27-18.3-33.1-33.2c-7.6-18.2-8-38.8-3.9-57.8c19.4-76.2,38.8-152.4,58.2-228.6c1.7-7.6,4.3-15.1,5.3-22.9
		c0.4-2.9,1.4-5.7,2.5-8.5c4-14.4,12.5-27.5,23.8-37.3c11.7-10.2,26.7-16.1,42.1-17.8c6.3-0.8,12.7-0.5,19.1-0.5
		c256.3,0,512.7,0,769,0c10.7-0.2,21.5-3.7,29.7-10.8c7.9-6.9,13.4-16.4,15.8-26.6c1.2-4.7,2.3-9.4,3.4-14.2
		c1.6-8.5,7.2-16,14.4-20.7C1612.2,178.8,1620.3,176.8,1628.3,176.2 M1616.3,199.9c-28.5,116.1-57,232.1-85.4,348.2
		c26.4,0,52.9,0,79.3,0c28.4-116.1,56.7-232.2,85-348.2C1668.9,199.9,1642.6,199.9,1616.3,199.9 M1629.8,548.1c26.5,0,52.9,0,79.4,0
		c28.2-116.1,56.3-232.2,84.4-348.3c-26.3,0-52.6,0-78.9,0C1686.3,315.9,1658.1,432.1,1629.8,548.1 M736.6,285.4
		c-11,5.6-19.4,15.7-24.1,27.1c-2.3,7-3.7,14.2-5.6,21.3c-20.5,80.8-41.1,161.6-61.7,242.4c-2.9,13.9-3.1,28.8,2,42.2
		c4.1,10.8,13.3,19.5,24.3,23c4.9,2.1,10.2,1.5,15.4,1.5c165,0,330,0,495,0c17.2,0.8,34.6-7.2,45.3-20.6c5-6.4,9.7-13.4,11.2-21.5
		c18.9-75.6,37.9-151.2,56.6-226.9c1.1-4.5,2.9-9.2,6.7-12.1c3.7-3,8.6-3.3,13.1-3.2c55.7,0.1,111.4,0,167,0
		c0.9,2.7,1.3,5.5,0.6,8.2c-1.7,7-3.5,14-5.1,21c-8.3-4-17.5-2.9-26.4-3c-26.7,0-53.3,0-80,0c-16.3,0.2-33,4.8-45.5,15.6
		c-13.3,11.2-21.2,27.6-25.6,44.2c-3.7,14.4-7.2,28.9-10.8,43.3c-2.4,10.4-4,21.3-1.9,32c1.5,7.7,5.6,15.2,12.1,19.7
		c8.8,6.4,20.1,8.2,30.7,8.5c42.7,0,85.4,0,128,0c18.1-0.2,36.7-5.5,50.2-18c12.8-11.6,20.2-27.9,24.3-44.4
		c10.7-43.3,21.3-86.7,31.9-130c3.3-13.7,7.5-27.6,6-41.9c-0.9-9.7-5.3-19.4-13.3-25.1c-9.8-7.2-22.3-9.2-34.1-9.6
		c-73,0-146,0-219,0c-12.7-0.2-25.7,1.3-37.5,6.1c-13.2,5.2-24.1,15.4-31.3,27.6c-9.4,15.2-12.5,33-16.9,50
		c-14.5,57.6-28.9,115.2-43.4,172.8c-4.9,12.6-16.3,21.9-28.7,26.7c-7.1,2.5-14.6,4.7-22.2,4.3c-132.7,0-265.4,0-398.1,0
		c1.5-6.2,3.2-12.3,4.8-18.5c34.8,0,69.6,0,104.4,0c17.2-0.3,34.9-4.9,48.4-15.9c14.1-11.4,22.5-28.3,27.1-45.5
		c12.5-48.6,24.9-97.3,37.3-145.9c2.6-10.2,4.2-21,2.3-31.5c-1.4-8.5-6.1-16.5-13.3-21.4c-9.5-6.6-21.5-8.4-32.8-8.9
		c-46.4,0-92.7,0-139.1,0C755.2,279,745.3,280.8,736.6,285.4 M992.3,279.2c-6.4,25.1-12.8,50.1-19.2,75.2c46.3,0,92.6,0,138.9,0
		c3.3,0.1,7.1,0.5,9.3,3.2c2.3,2.6,1.9,6.3,1.3,9.4c-1.6,7-3.6,13.9-5.2,20.9c-4.2-1.8-8.8-3-13.4-3c-31,0-62,0-93,0
		c-15.8,0.3-32,4.6-44.4,14.6c-14.1,11.2-22.3,28.1-27,45.2c-3.7,14.3-7.3,28.7-11,43c-2.7,11.2-4.5,23-1.7,34.4
		c1.8,7.6,6.5,14.5,13.1,18.7c8.6,5.4,19,7,28.9,7.3c43,0,86,0,129,0c19.9-0.3,40.4-7.2,53.8-22.4c11.9-13,18-30,21.9-46.8
		c11.6-46.3,23.3-92.6,34.9-138.9c2.3-10.2,3.7-20.9,1.5-31.3c-1.7-8.2-6.3-15.9-13.2-20.6c-9.5-6.6-21.5-8.5-32.9-8.9
		C1106.8,279.1,1049.5,279.1,992.3,279.2 M1802.6,279.1c-5.9,25.1-12.2,50.1-18.1,75.2c46.2,0,92.4,0,138.6,0c3.3,0,7,0.4,9.5,2.9
		c2.6,2.9,2.2,7.2,1.4,10.7c-1.6,6.6-3.2,13.3-4.8,19.9c-4.4-1.9-9.2-3.1-14.1-3c-25.7,0-51.3,0-77,0c-10,0.1-20.2-0.5-30.1,1.5
		c-14.2,2.5-27.7,9.5-37.1,20.5c-10.3,11.6-16.1,26.4-19.6,41.4c-3.4,13.9-6.8,27.8-10.1,41.7c-2.5,11.6-3.8,24.2,0.3,35.6
		c3.1,8.7,10.4,15.5,19,18.7c11.3,4.4,23.6,4,35.5,3.9c31.7,0,63.3,0,95,0c13.6-0.1,27.5,0.9,40.9-2.7c16.7-3.9,31.6-14.5,40.6-29
		c8.6-13.1,12.3-28.5,15.6-43.5c10.5-44.4,21.2-88.7,31.7-133.1c2.2-10.7,3.4-21.9,0.7-32.6c-2-7.8-6.7-15-13.5-19.4
		c-9.7-6.5-21.6-8.4-33-8.7C1916.9,279.1,1859.7,279.1,1802.6,279.1 M2031.6,279.1c20.3,43.9,41,87.6,61.2,131.5
		c-42.3,45.8-84.5,91.7-126.8,137.4c32.9,0.1,65.9,0,98.8,0c21.2-24.8,42.4-49.6,63.6-74.4c10.2,24.8,20.1,49.7,30.4,74.4
		c33-0.1,66,0,99,0c-21.2-45.8-42.5-91.6-63.7-137.4c40.9-43.9,82-87.7,122.9-131.6c-31.9,0.1-63.8,0-95.6,0
		c-19.3,22.7-38.7,45.4-58,68.1c-1.2,1.1-2,2.9-3.6,3.5c-9.8-23.8-19.4-47.7-29.1-71.6C2097.7,279.1,2064.6,279.1,2031.6,279.1z"/>
	<path class="st1" d="M751.3,468.1c9.5-36.5,18.8-73,28.3-109.5c23.8,0,47.6,0,71.4,0c3.4,0,7.5,0.9,9.1,4.3c1.7,3.1,1,6.7,0.3,10
		c-7.2,27.6-14.2,55.3-21.4,82.9c-1.7,6.9-7.9,12.4-15.1,12.3C799.7,468.2,775.5,468.1,751.3,468.1z"/>
	<path class="st1" d="M1025.2,437.9c2.2-0.7,4.5-0.5,6.8-0.5c21.7,0.1,43.4,0,65,0c3.1-0.2,6.3,2.2,6,5.5c-0.2,4.6-2,8.8-2.9,13.3
		c-1.3,4.4-1.7,9-3.9,13c-1.8,3.2-5.5,5-9.2,4.9c-22.3,0-44.7,0-67.1,0c-2.4,0-5.3-0.4-6.5-2.7c-1.3-2.2-0.6-4.7-0.1-7
		c1.6-6.2,3.1-12.4,4.8-18.5C1019,442.3,1021.5,438.9,1025.2,437.9z"/>
	<path class="st1" d="M1384.4,438.3c1.7-0.8,3.7-1,5.6-1c22,0,44,0,66,0c2.5-0.1,5.4,0.5,6.8,2.8c1.4,3.1,0,6.4-0.7,9.6
		c-1.6,5.6-2.6,11.4-4.3,16.9c-1.2,4.3-5.4,7.4-9.9,7.4c-21.3,0.1-42.6,0-63.9,0c-3-0.1-6.3,0.5-8.9-1.3c-2.3-1.7-2.1-4.9-1.5-7.4
		c1.7-6.5,3.1-13,4.8-19.4C1379.3,442.8,1381.2,439.6,1384.4,438.3z"/>
	<path class="st1" d="M1837.3,438c1.8-0.7,3.8-0.6,5.8-0.7c22,0.1,44,0,66,0c3.2-0.2,6.8,1.9,6.5,5.5c-0.4,5.2-2.2,10.2-3.2,15.3
		c-1.3,4.3-1.4,9.1-4.4,12.7c-2.2,2.5-5.7,3.5-8.9,3.3c-22.3,0-44.6,0-66.9,0c-3.5,0.3-7.2-2.5-6.5-6.2c1.2-7,3.3-13.9,4.8-20.9
		C1831.1,443.2,1833.4,439.3,1837.3,438z"/>
</g>
<g id="_x23_ffffffff">
	<path class="st2" d="M1616.3,199.9c26.3,0,52.6,0,78.9,0c-28.3,116.1-56.6,232.2-85,348.2c-26.5,0-52.9,0-79.3,0
		C1559.3,432,1587.8,316,1616.3,199.9z"/>
	<path class="st2" d="M1629.8,548.1c28.4-116.1,56.6-232.2,84.9-348.3c26.3,0,52.6,0,78.9,0c-28.1,116.1-56.3,232.2-84.4,348.3
		C1682.7,548.1,1656.2,548.2,1629.8,548.1z"/>
	<path class="st2" d="M736.6,285.4c8.7-4.6,18.6-6.5,28.3-6.3c46.4,0,92.7,0,139.1,0c11.4,0.5,23.3,2.3,32.8,8.9
		c7.2,4.9,11.9,12.9,13.3,21.4c1.9,10.5,0.2,21.2-2.3,31.5c-12.4,48.6-24.8,97.3-37.3,145.9c-4.6,17.2-13,34.1-27.1,45.5
		c-13.5,11-31.2,15.6-48.4,15.9c-34.8,0-69.6,0-104.4,0c-1.6,6.2-3.2,12.3-4.8,18.5c132.7,0,265.4,0,398.1,0
		c7.6,0.4,15.1-1.8,22.2-4.3c12.4-4.7,23.8-14,28.7-26.7c14.5-57.6,28.9-115.2,43.4-172.8c4.4-17,7.5-34.8,16.9-50
		c7.2-12.2,18-22.4,31.3-27.6c11.8-4.8,24.8-6.4,37.5-6.1c73,0,146,0,219,0c11.9,0.4,24.4,2.4,34.1,9.6c8,5.8,12.4,15.5,13.3,25.1
		c1.6,14.3-2.7,28.2-6,41.9c-10.6,43.3-21.3,86.7-31.9,130c-4.1,16.5-11.5,32.8-24.3,44.4c-13.5,12.4-32.1,17.8-50.2,18
		c-42.7,0-85.4,0-128,0c-10.7-0.3-21.9-2.1-30.7-8.5c-6.5-4.6-10.6-12-12.1-19.7c-2.1-10.6-0.5-21.5,1.9-32
		c3.6-14.4,7.2-28.9,10.8-43.3c4.4-16.6,12.3-33,25.6-44.2c12.5-10.8,29.2-15.3,45.5-15.6c26.6,0,53.3,0,80,0c8.8,0.1,18.1-1,26.4,3
		c1.7-7,3.5-14,5.1-21c0.8-2.8,0.3-5.6-0.6-8.2c-55.7-0.1-111.3,0-167,0c-4.5-0.2-9.4,0.2-13.1,3.2c-3.8,2.9-5.7,7.6-6.7,12.1
		c-18.8,75.6-37.8,151.2-56.6,226.9c-1.5,8.1-6.2,15.1-11.2,21.5c-10.8,13.4-28.1,21.4-45.3,20.6c-165,0-330,0-495,0
		c-5.1-0.1-10.5,0.6-15.4-1.5c-11-3.5-20.2-12.2-24.3-23c-5.1-13.4-4.9-28.3-2-42.2c20.6-80.8,41.1-161.6,61.7-242.4
		c2-7.1,3.3-14.3,5.6-21.3C717.3,301.1,725.6,291.1,736.6,285.4 M751.3,468.1c24.2,0,48.4,0,72.7,0c7.2,0,13.5-5.5,15.1-12.3
		c7.2-27.6,14.2-55.3,21.4-82.9c0.8-3.3,1.4-6.9-0.3-10c-1.7-3.3-5.7-4.3-9.1-4.3c-23.8,0-47.6,0-71.4,0
		C770.1,395.1,760.8,431.6,751.3,468.1 M1384.4,438.3c-3.2,1.3-5.1,4.5-6,7.7c-1.7,6.4-3.1,12.9-4.8,19.4c-0.6,2.5-0.8,5.7,1.5,7.4
		c2.6,1.8,5.9,1.2,8.9,1.3c21.3-0.1,42.6,0,63.9,0c4.5,0,8.7-3.1,9.9-7.4c1.7-5.6,2.7-11.3,4.3-16.9c0.7-3.1,2.1-6.5,0.7-9.6
		c-1.4-2.4-4.3-2.9-6.8-2.8c-22,0-44,0-66,0C1388.1,437.4,1386.1,437.5,1384.4,438.3z"/>
	<path class="st2" d="M992.3,279.2c57.2,0,114.5,0,171.7,0c11.4,0.4,23.3,2.3,32.9,8.9c7,4.7,11.6,12.5,13.2,20.6
		c2.2,10.4,0.8,21.1-1.5,31.3c-11.6,46.3-23.3,92.6-34.9,138.9c-3.9,16.9-10,33.9-21.9,46.8c-13.4,15.2-34,22.1-53.8,22.4
		c-43,0-86,0-129,0c-10-0.3-20.4-1.9-28.9-7.3c-6.6-4.2-11.3-11.1-13.1-18.7c-2.8-11.4-1-23.2,1.7-34.4c3.7-14.3,7.3-28.7,11-43
		c4.7-17.1,12.9-34,27-45.2c12.4-10.1,28.6-14.4,44.4-14.6c31,0,62,0,93,0c4.6,0,9.1,1.2,13.4,3c1.6-7,3.6-13.9,5.2-20.9
		c0.6-3.1,1-6.8-1.3-9.4c-2.2-2.8-6-3.1-9.3-3.2c-46.3,0-92.6,0-138.9,0C979.5,329.3,986,304.2,992.3,279.2 M1025.2,437.9
		c-3.7,1-6.2,4.4-7.1,8c-1.6,6.2-3.2,12.3-4.8,18.5c-0.5,2.3-1.3,4.9,0.1,7c1.3,2.3,4.1,2.7,6.5,2.7c22.3,0,44.7,0,67.1,0
		c3.6,0.1,7.3-1.7,9.2-4.9c2.2-4,2.7-8.7,3.9-13c0.9-4.4,2.7-8.7,2.9-13.3c0.3-3.3-2.9-5.7-6-5.5c-21.7-0.1-43.4,0-65,0
		C1029.7,437.4,1027.4,437.2,1025.2,437.9z"/>
	<path class="st2" d="M1802.6,279.1c57.1,0,114.3,0,171.4,0c11.4,0.3,23.3,2.3,33,8.7c6.8,4.4,11.4,11.6,13.5,19.4
		c2.7,10.7,1.5,21.9-0.7,32.6c-10.5,44.4-21.1,88.7-31.7,133.1c-3.4,15.1-7,30.5-15.6,43.5c-9,14.6-23.9,25.1-40.6,29
		c-13.3,3.5-27.2,2.5-40.9,2.7c-31.7,0-63.3,0-95,0c-11.9,0.1-24.2,0.5-35.5-3.9c-8.6-3.2-15.9-9.9-19-18.7
		c-4.1-11.4-2.8-23.9-0.3-35.6c3.3-13.9,6.7-27.8,10.1-41.7c3.5-14.9,9.4-29.7,19.6-41.4c9.5-10.9,22.9-18,37.1-20.5
		c9.9-2,20-1.4,30.1-1.5c25.7,0,51.3,0,77,0c4.8-0.1,9.6,1.1,14.1,3c1.6-6.7,3.2-13.3,4.8-19.9c0.8-3.5,1.3-7.8-1.4-10.7
		c-2.5-2.5-6.2-2.9-9.5-2.9c-46.2,0-92.4,0-138.6,0C1790.4,329.3,1796.7,304.3,1802.6,279.1 M1837.3,438c-3.9,1.3-6.2,5.1-6.9,9
		c-1.6,7-3.6,13.9-4.8,20.9c-0.6,3.7,3.1,6.5,6.5,6.2c22.3,0,44.6,0,66.9,0c3.3,0.2,6.7-0.8,8.9-3.3c3-3.5,3.2-8.4,4.4-12.7
		c1-5.1,2.8-10.1,3.2-15.3c0.3-3.5-3.4-5.7-6.5-5.5c-22-0.1-44,0-66,0C1841.1,437.4,1839.1,437.4,1837.3,438z"/>
</g>
<g id="_x23_e94e1bff">
	<path class="st3" d="M2031.6,279.1c33,0,66.1,0,99.2,0c9.7,23.9,19.3,47.8,29.1,71.6c1.6-0.6,2.4-2.3,3.6-3.5
		c19.3-22.7,38.7-45.4,58-68.1c31.9-0.1,63.8,0,95.6,0c-40.9,43.9-82,87.7-122.9,131.6c21.2,45.8,42.5,91.6,63.7,137.4
		c-33,0.1-66,0-99,0c-10.3-24.7-20.2-49.6-30.4-74.4c-21.2,24.8-42.4,49.6-63.6,74.4c-32.9,0-65.9,0-98.8,0
		c42.3-45.8,84.5-91.6,126.8-137.4C2072.6,366.8,2051.9,323,2031.6,279.1z"/>
</g>
</svg>
