<?xml version="1.0" encoding="utf-8"?>
<!-- Generator: Adobe Illustrator 19.0.0, SVG Export Plug-In . SVG Version: 6.00 Build 0)  -->
<svg version="1.1" id="Layer_1" xmlns="http://www.w3.org/2000/svg" xmlns:xlink="http://www.w3.org/1999/xlink" x="0px" y="0px"
	 viewBox="595.2 138.8 718.4 463.3" style="enable-background:new 595.2 138.8 718.4 463.3;" xml:space="preserve">
<style type="text/css">
	.st0{fill:#25A2BC;}
</style>
<g id="_x23_ffffffff">
</g>
<g id="_x23_25a2bcff">
	<path class="st0" d="M875.9,138.8c6.4,10,13.3,19.9,21.6,28.5c22.1,23.3,49.9,40.3,78.5,54.5c35.5,17.4,72.8,30.5,110.2,43
		c21.6,7.2,43.3,14.2,64.4,22.8c17.5,7.2,34.8,15.3,49.8,27c9,7,16.7,15.6,22.1,25.7c-9.7-4.1-19.9-7.1-30.4-8.3
		c-15.4-16.3-34.7-29.8-56.8-34.8c17.7,8.8,34.1,20.8,46.9,36c-2.3,0.6-5,1.1-6.3,3.3c18,4,35,11.4,53,15.5
		c16.9,4,34.6,5.2,51.6,1.8c11.6-2.2,22.6-6.5,33.2-11.8c-6.2,6.1-11.7,12.9-17.3,19.6c-5.1,5.7-10.5,12-18.3,13.8
		c-1.5,3.8,0,8,0.2,11.9c0.1,3.1,1.8,6.1,4.8,7.1c1.4-1.9,2.9-4,5.3-4.7c2-0.9,4.1,0.2,6.1,0.7c-1.9,1.4-4,3.2-3.7,5.8
		c-0.1,4.7,4.6,7.5,5,12.1c0.5,5-1.8,9.9-4.8,13.7c-8,10.1-18.5,17.9-29.3,24.7c4.9-7.5,11.2-14.5,13.1-23.5c-4.5,0.8-9.1,1-13.6,0
		c-12.4,11.1-28.8,16.8-45.3,17.5c6.9-4.3,15.2-6.8,20.9-12.9c3.1-3.1,3.7-9.4-0.5-11.8c-4.3-1.9-9.2-0.3-13.5,0.9
		c1.2-3.2,2.8-7,1.1-10.4c-1.8-2.6-5.4-2.9-8.1-2c-5,1.6-9,5-13.4,7.7c1.7-3.7,4-7.8,2.7-12.1c-1.4-2.9-5.2-3.7-8-2.4
		c-5.2,2.3-8.9,6.6-13,10.3c-0.8-7.4,2.1-14.5,6-20.6c-5.3-1.5-11.2-2.4-16.3,0.3c-8.2,4.1-13.4,12.1-18.7,19.3
		c-6.6,9.6-9.6,21.5-9.1,33.1c0.4,5.6,2,12,7.3,15c2.3,1.2,5.8,2.1,7.7-0.2c2.2-3.6,0.6-7.9,0.3-11.8c3.6,4.1,4.9,10,9.4,13.4
		c2.5,1.9,6.1,4.5,9.2,2.4c3.5-3.4,2.5-8.8,2.5-13.1c4.1,5.5,6.6,12.8,4.3,19.5c-6.6,13.3-23.2,19.8-37.3,15.8
		c-10.3-2.5-19.1-11.4-20.4-22.1c-1.9-15.1,4.2-29.7,3.5-44.8c-0.4-8.8-4.1-17.5-10.7-23.5c-8.4-7.8-19.6-11.6-30.6-13.9
		c-13.7-3-27.8-2.6-41.6-4.1c31.8-8.3,65.5-3,96,8.1c-1.2-11.8-7-23.2-16.5-30.5c-7.1-5.7-15.5-9.3-24.1-11.9
		c15.6-4.4,32-6,48.1-4.3c-11.6-12.6-25-23.3-39.2-32.7c-19.7-13.1-40.7-24.1-62.2-33.6c-13.6-6.1-27.7-11.1-41.7-16.4
		c-34.9-13.6-69-31.6-96-58.1C897.9,177.6,884.5,159.3,875.9,138.8 M1215.9,372.9c0.4,3.6,0.5,7.5,2.4,10.7
		c3.6,3.3,8.9,3.9,13.6,3.1c3.5-0.6,6-3.6,6.7-7c-2.6,0-5.4-0.1-7.6-1.6c-6.7-4.7-11.2-12-13.7-19.7
		C1215.4,363,1215.7,368,1215.9,372.9z"/>
	<path class="st0" d="M1004.9,142.5c5.2,8.9,9.9,18.1,16,26.5c9.4,13.6,20.8,25.8,33.6,36.2c16,13.2,33.8,23.8,51.5,34.5
		c23.3,14.2,46.5,29.4,65.3,49.4c-9.4-3.1-18.5-6.7-27.8-9.9c-1.9-0.6-3.7-1.3-5.1-2.8c-11.4-10.9-24.9-19.4-39.3-25.6
		c10.1,6.5,19.9,13.6,27.9,22.7c-10-3.4-20-7-30-10.4c-1.2-0.4-2.4-0.9-3.4-1.7c-25.9-20.2-50.4-43.1-68-71.1
		C1016.3,175.6,1009,159.5,1004.9,142.5z"/>
	<path class="st0" d="M764.8,260.4c13-1.7,26.3-0.5,39.2,1.6c33.3,5.8,63.7,21.7,91.3,40.8c-6.3-0.2-12.7,0.2-19-0.2
		c-10.4-4.6-21-9.4-32.5-10.9c5.2,2.4,10.1,5.8,12.8,11.1c-11.5,0.4-22.9,1.6-34.2,4c-10.7-8.9-24.1-13.5-36.8-18.8
		c9.8,0.3,19.5,3.2,29.3,1.5c1.9-0.4,4.2-1.3,4.5-3.5c0.3-3.6-2.5-6.3-5.1-8.4c-6.8-5.2-14.9-8.4-23-11.2
		C782.8,263.6,773.9,261.2,764.8,260.4z"/>
	<path class="st0" d="M646.6,295.6c29.1-8.3,59.7-11.9,89.9-9c26.8,2.5,52.8,10.9,77,22.5c-6,1.7-11.8,4-17.6,6.3
		c-2-0.1-3.9-1.2-5.8-1.8c-16.5-5.9-33.6-10.2-51.1-11.7c15.5,4.8,30.9,10.6,44.3,20c-3.4,2-6.5,4.5-10.1,6.4
		c-24-4.9-48.5-0.1-72.3,3.9c7.8-3.7,16.6-7.1,21.4-14.8c3.2-5,1.6-12.3-3.4-15.5c-6.5-4.3-14.4-5.4-21.9-6.5
		C680.3,293.6,663.4,294.4,646.6,295.6z"/>
	<path class="st0" d="M801.3,328.2c22.6-12.8,48.9-17.9,74.7-18.1c19.4,0,38.7,0,58.1,0c18.6-0.7,37.3-0.2,56-0.4
		c38.6,0.1,77.3-0.2,115.9,0.1c9.3,3.7,16.8,10.5,24.4,16.8c-16.1,0.5-32.4,3.8-46.7,11.4c13.5,3.5,26.6,9.1,37.9,17.3
		c6.3,4.7,12.6,10.1,15.8,17.4c-17-9.7-36.9-13.7-56.4-13c-52.7,0.1-105.3,0.1-158,0.8c-19.7,0.2-39.4,0.6-59,0.5
		c-12.2-0.1-24.5,2.6-35.4,8.2c-6.1,3.3-12,7.5-15.4,13.8c40.1,0.2,80.1,0.1,120.2,0.1c-7.3,17.1-14.7,34.3-21.9,51.4
		c-40.6,0.1-81.2,0.1-121.8,0.1c-2.9,5.9-4.2,12.8-1.7,19c1.6,3.8,5.5,5.8,9.2,7c7,2.1,14.4,1.9,21.7,1.9c26.2,0,52.4,0.1,78.6,0
		c-7.4,17-14.5,34.2-21.8,51.3c-27.6,0-55.2,0.1-82.8,0c-17.4-0.4-35.8-3.3-50.3-13.7c-11.7-8.3-18.9-22-20.3-36.2
		c-1.8-18,2.5-36,9.1-52.5c7.6-18.7,18.6-36,31.8-51.3C774.2,347.6,786.8,336.3,801.3,328.2z"/>
	<path class="st0" d="M694.1,341.6c22.7-6.4,46.6-8,70.1-6.3c-3.4,2.7-6.7,5.7-9.7,8.9c-28,0.5-56.7,5.4-81.4,19.2
		c23.8-6.3,48.3-10.4,73-9.8c-7.5,9.5-14.8,19.2-20.7,29.8c-25.5,5.5-49,17.4-72.8,27.7c5.7-4.6,11.2-10.4,12.1-18
		c0.9-5.5-2.5-11.5-8-12.8c-6.4-1.5-13,0.2-19.1,2.3c-16.1,5.9-30.1,16.5-42.5,28.1C619.8,378.1,654.5,352.5,694.1,341.6z"/>
	<path class="st0" d="M942.5,385.5c0.3-1.3,1.1-1.9,2.5-1.8c26,0,52,0,78,0c21.9,0.1,44.4-1,65.7,5.5c11.1,3.4,22.3,9.6,27.9,20.2
		c5.7,10.7,4.6,23.4,1.7,34.7c-7.3,27.4-22.8,53.4-46.3,69.9c-14.6,10.7-32.3,16.6-50.1,18.8c-29.9,3.9-60.2-0.1-90.2,2.4
		c-16.4,1.4-33.1,5.3-47,14.4c-8.5,5.4-15.4,12.9-20.9,21.3c0.9-3.3,2.4-6.3,3.7-9.4C892.6,502.9,917.6,444.2,942.5,385.5
		 M980.9,436.5c-6.7,15.8-13.4,31.7-20.2,47.5c15.5-0.2,30.9,0.2,46.4-0.2c10.8-0.5,21.9-3.3,30.5-10.2c7.7-6.1,12.6-15.3,15-24.7
		c0.7-2.9,1.3-7.1-2-8.7c-6-3.2-13-3.3-19.6-3.6C1014.3,436.4,997.6,436.5,980.9,436.5z"/>
	<path class="st0" d="M657,416.8c19.6-11.6,41.5-18.9,63.6-24.3c-1.8,3.6-3.4,7.3-5,11c-19.9,4.8-39.2,14-53.8,28.5
		c15.6-8.5,32.2-15.7,49.9-18.2c-3.9,12.2-6.1,24.9-6.1,37.7c-12.4,12.4-21.1,27.9-29,43.4c-0.4-10.2-0.4-20.7-4.6-30.2
		c-2.3-5.5-7-10.2-13-11.6c-11.9-2.9-24.8,1-34,8.8c-11.7,9.8-19.1,23.9-23.9,38.2c1.3-16.8,7.3-33.2,16.5-47.2
		C627.7,437.9,641.6,425.9,657,416.8z"/>
	<path class="st0" d="M1116.3,482.1c2-4,3.6-8.3,5.5-12.4c-6.5,30.7-23.8,60.1-50.3,77.6c-14.6,10-31.9,15.1-49.4,17.1
		c-30.3,3.6-60.8-0.6-91.1,2.4c-17.5,1.7-35.2,6.8-49.2,17.8c-6.3,4.8-11.1,11.1-15.9,17.4c3.7-9,7.3-18,11.4-26.9
		c10.1-12.7,25.2-20.5,40.7-24.4c21.8-5.4,44.6-4.3,66.8-4.1c23.8,0.3,48.2,0.3,70.9-7.9C1082.6,529.2,1104.1,507.6,1116.3,482.1z"
		/>
</g>
</svg>
