<?xml version="1.0" encoding="utf-8"?>
<!-- Generator: Adobe Illustrator 19.0.0, SVG Export Plug-In . SVG Version: 6.00 Build 0)  -->
<svg version="1.1" id="Layer_1" xmlns="http://www.w3.org/2000/svg" xmlns:xlink="http://www.w3.org/1999/xlink" x="0px" y="0px"
	 viewBox="368.4 218.8 460.5 254.1" style="enable-background:new 368.4 218.8 460.5 254.1;" xml:space="preserve">
<g id="_x23_000000ff">
	<path d="M790.4,220.4c2.1-0.7,4.3-1.6,6.6-1.5c10.7,0,21.3,0,32,0c0,84.7,0,169.4,0,254c-16.4,0-32.8,0-49.3,0c0-0.8,0-2.3,0-3
		c-40.3,0-80.5,0.1-120.7,0c-0.2-22.5,0.3-45-0.3-67.5c-1.4,19.1-8.1,38.6-22.1,52.2c-11.3,11.1-27,16.6-42.5,18
		c-15.6,1.3-32-0.4-46-7.7c-12.9-6.6-23.2-17.8-28.8-31.1c-3.6-8.2-5.6-16.9-6.8-25.7c-0.2,20.6,0,41.3-0.1,61.9
		c-12.5,0-25,0-37.4,0c0-25.3,0-50.7,0-76c-23,0-46,0-69,0c0,25.3,0,50.7,0,76c-12.5,0-25,0-37.4,0c0-63,0-126,0-189
		c12.5,0,24.9,0,37.4,0c0,24.8,0,49.7,0,74.5c23,0,46,0,69,0c0-24.8,0-49.7,0-74.5c24.6,0,49.2,0,73.9,0c0,35.7,0,71.4,0,107
		c0.1,10.7,1.5,21.8,7.1,31.1c4.6,7.6,12.6,13.1,21.4,14.6c9.9,1.7,20.9,0.6,29.3-5.3c6.4-4.5,10.8-11.4,12.9-18.8
		c2.6-8.6,2.7-17.7,2.6-26.6c0-34,0-68,0-102c39,0,78,0,117,0c-3.1-13.4-6.1-26.9-9.2-40.3C750,233.8,770.2,227.1,790.4,220.4
		 M758.7,280.7c7,0.4,14,0.1,21,0.2c0-1.9,0-3.8,0-5.7C772.7,277,765.8,279.1,758.7,280.7 M696.1,318.4c0,12.7,0,25.3,0,38
		c26.7,0,53.4,0,80.2,0c0,12.5,0,25,0,37.5c-26.7,0-53.4,0-80.2,0c0,12.8,0,25.7,0,38.5c27.8,0,55.7,0,83.5,0c0-38,0-76,0-114
		C751.8,318.4,724,318.4,696.1,318.4z"/>
</g>
</svg>
