<?xml version="1.0" encoding="utf-8"?>
<!-- Generator: Adobe Illustrator 20.1.0, SVG Export Plug-In . SVG Version: 6.00 Build 0)  -->
<svg version="1.1" id="Layer_1" xmlns="http://www.w3.org/2000/svg" xmlns:xlink="http://www.w3.org/1999/xlink" x="0px" y="0px"
	 viewBox="0 0 64 64" style="enable-background:new 0 0 64 64;" xml:space="preserve">
<style type="text/css">
	.st0{fill:url(#XMLID_2_);}
	.st1{fill:url(#XMLID_3_);}
	.st2{fill:url(#XMLID_4_);}
</style>
<g>
	<linearGradient id="XMLID_2_" gradientUnits="userSpaceOnUse" x1="0" y1="31.9994" x2="64" y2="31.9994">
		<stop  offset="9.139834e-02" style="stop-color:#E52629"/>
		<stop  offset="0.3516" style="stop-color:#E1262A"/>
		<stop  offset="0.6442" style="stop-color:#D5242B"/>
		<stop  offset="0.9515" style="stop-color:#C2202E"/>
		<stop  offset="1" style="stop-color:#BE202E"/>
	</linearGradient>
	<path id="XMLID_141_" class="st0" d="M63.9,13.1c0-7.3-6-13.1-13.2-13.1L13.1,0.1C5.8,0.1,0,6,0,13.3l0.1,37.6
		c0,0.6,0.1,1.2,0.1,1.8l14.4-12c2.8-2.1,4.8-5.1,5.6-8.4l0.6-0.1c2.8-0.5,5.3-1.9,7.2-3.9L13.8,14L50,13.8L50.1,50L34.7,34.8
		c-2.3,1.8-4,4.3-4.8,7.1l-0.2,0.6l0,0c-3.4,0.6-6.5,2.3-8.9,4.9L7.3,62.6c1.8,0.9,3.8,1.4,6,1.4l37.6-0.1C58.1,63.9,64,58,64,50.7
		L63.9,13.1z"/>
	<g id="XMLID_20_">
		<linearGradient id="XMLID_3_" gradientUnits="userSpaceOnUse" x1="20.0293" y1="19.5859" x2="40.531" y2="19.5859">
			<stop  offset="9.139834e-02" style="stop-color:#E52629"/>
			<stop  offset="0.3516" style="stop-color:#E1262A"/>
			<stop  offset="0.6442" style="stop-color:#D5242B"/>
			<stop  offset="0.9515" style="stop-color:#C2202E"/>
			<stop  offset="1" style="stop-color:#BE202E"/>
		</linearGradient>
		<polygon id="XMLID_142_" class="st1" points="20,16.7 25.9,22.4 40.5,16.7 		"/>
		<linearGradient id="XMLID_4_" gradientUnits="userSpaceOnUse" x1="27.6375" y1="30.0829" x2="47.2907" y2="30.0829">
			<stop  offset="9.139834e-02" style="stop-color:#E52629"/>
			<stop  offset="0.3516" style="stop-color:#E1262A"/>
			<stop  offset="0.6442" style="stop-color:#D5242B"/>
			<stop  offset="0.9515" style="stop-color:#C2202E"/>
			<stop  offset="1" style="stop-color:#BE202E"/>
		</linearGradient>
		<polygon id="XMLID_143_" class="st2" points="47.3,16.5 27.6,24.2 47.3,43.7 		"/>
	</g>
</g>
</svg>
