<?xml version="1.0" encoding="utf-8"?>
<!-- Generator: Adobe Illustrator 19.0.0, SVG Export Plug-In . SVG Version: 6.00 Build 0)  -->
<svg version="1.1" id="Layer_1" xmlns="http://www.w3.org/2000/svg" xmlns:xlink="http://www.w3.org/1999/xlink" x="0px" y="0px"
	 viewBox="-121.8 299 246.2 246.7" style="enable-background:new -121.8 299 246.2 246.7;" xml:space="preserve">
<style type="text/css">
	.st0{fill:#EBCD3F;}
</style>
<rect x="-93.7" y="346.3" class="st0" width="189.5" height="150.9"/>
<g id="_x23_ebcd3fff">
	<path class="st0" d="M-69,320.9c23.1-16.1,51.9-23.9,79.9-21.5c25.3,1.9,49.8,12,69.1,28.2c27.1,22.4,43.9,57,44.3,92.2
		c0.7,24.9-6.6,50-20.4,70.8c-20.6,31.5-56.4,52.7-94,55c-10.3,0.1-20.8,0.7-30.9-1.8c-6.5-0.9-12.9-2.7-19-5
		c-7-2.3-13.7-5.4-20-9.1c-13.8-7.8-26.2-18.4-35.9-31c-6.3-7.9-11.4-16.7-15.7-25.8c-0.7-2.1-1.7-4.1-2.5-6.2c-0.3-1-0.7-2-1-3
		c-0.9-1.9-1.6-3.9-1.9-6c-1.5-4.2-2.6-8.5-3-13c-0.9-1.9-0.8-4-1-6c-1.4-5.8-0.7-11.9-0.9-17.9c-0.1-7,0.2-14.1,1.9-20.9
		C-114.6,368.2-95.4,339.2-69,320.9 M-89.7,353.9c-3.8,18.3,0.5,37.5,8.5,54.2c-6.2,16.1-5.6,34.6,1.6,50.3
		c6.9,15.6,20.3,28.1,36.3,33.9c4.4,1.5,8.7,3.5,13.4,3.6c6-0.6,11.6-3.4,17.4-4.7c7-2.1,14.4-2.1,21.6-1.3c8.3,1,15.6,6.1,24.1,6.1
		c20.1-4.4,38.3-18,47.1-36.8c7.2-14.9,8.9-32.6,3.5-48.4c-1.4-2.9,0.9-5.7,1.9-8.3c6.8-14.6,9.8-31.1,7.7-47.1
		c-0.1-2.8-2.2-5.5-5.3-5.2c-15.6,0.8-30.2,7.8-42.5,17.1c-7.8-1.1-15.4-4-23.3-4.9c-21.5-3.5-43.7-1.2-64.6,4.8
		c-3.6-1.9-6.6-4.7-10.1-6.8c-9.2-5.6-19.7-9.4-30.4-10.6C-85.8,349.4-89.4,350.7-89.7,353.9z"/>
	<path class="st0" d="M-50.9,408.8c10.3-0.5,21.8,1,29.5,8.5c7.9,7.8,9.4,19.6,8.9,30.1c-9.9,0.6-20.7-0.8-28.6-7.4
		C-49.7,432.3-51.7,419.8-50.9,408.8 M-37.2,419.6c-2.5,1.5-1.8,4.9-2,7.3c0.3,3.4-0.7,7.1,0.8,10.3c2.8,2.6,7,1.4,10.5,1.6
		c2.5,0,4.3-2,4.6-4.4c-1.6-0.3-2.8,0.2-3.8,1.4c-2.9,0.1-5.8,0.3-8.7-0.1c-1.3-4.2-0.4-9.1-0.4-13.5c2.7-0.1,5.5-0.4,8.2-0.1
		c1.5,0.6,3,1.4,4.6,1.4c-0.5-1.8-1.3-4.2-3.6-4.1C-30.3,419.1-33.9,418.8-37.2,419.6z"/>
	<path class="st0" d="M25.7,417.6c7.8-7.7,19.5-9.4,30-8.8c0.5,10.5-1.1,22.2-8.8,30c-7.8,7.5-19.4,9.1-29.7,8.6
		C16.6,437,18.3,425.4,25.7,417.6 M29.7,419.8c0,0.7,0,2.2-0.1,2.9c3.8,0,7.6,0,11.5,0c-3.4,6-7.6,11.4-11.3,17.1c0.8,0,2.5,0,3.4,0
		c3.8-4.8,7-10.2,10.6-15.3c1.2-1.3,1-3.1,1-4.8C39.8,419.8,34.7,419.8,29.7,419.8z"/>
</g>
<g id="_x23_000000ff">
	<path d="M-89.7,353.9c0.3-3.3,3.9-4.6,6.7-4.1c10.8,1.1,21.2,5,30.4,10.6c3.5,2,6.5,4.8,10.1,6.8c20.9-6,43.1-8.3,64.6-4.8
		c7.9,0.9,15.5,3.9,23.3,4.9c12.3-9.3,26.9-16.3,42.5-17.1c3.1-0.3,5.2,2.4,5.3,5.2c2.1,16-0.9,32.5-7.7,47.1
		c-0.9,2.7-3.2,5.4-1.9,8.3c5.4,15.8,3.7,33.5-3.5,48.4c-8.8,18.8-27,32.3-47.1,36.8c-8.4,0.1-15.8-5.1-24.1-6.1
		c-7.2-0.8-14.6-0.8-21.6,1.3c-5.9,1.4-11.4,4.1-17.4,4.7c-4.7-0.1-9-2.1-13.4-3.6c-16-5.8-29.4-18.4-36.3-33.9
		c-7.2-15.7-7.8-34.2-1.6-50.3C-89.2,391.5-93.5,372.3-89.7,353.9 M-50.9,408.8c-0.7,11,1.2,23.5,9.9,31.1c7.8,6.6,18.7,8,28.6,7.4
		c0.5-10.5-1-22.4-8.9-30.1C-29.2,409.8-40.6,408.3-50.9,408.8 M25.7,417.6c-7.4,7.9-9.1,19.4-8.5,29.8c10.4,0.6,21.9-1.1,29.7-8.6
		c7.7-7.8,9.3-19.5,8.8-30C45.2,408.2,33.5,409.9,25.7,417.6z"/>
	<path d="M-37.2,419.6c3.3-0.8,6.9-0.5,10.3-0.3c2.3-0.1,3.1,2.3,3.6,4.1c-1.7,0-3.1-0.8-4.6-1.4c-2.7-0.3-5.5,0-8.2,0.1
		c0,4.5-0.9,9.3,0.4,13.5c2.9,0.3,5.8,0.2,8.7,0.1c1-1.2,2.2-1.6,3.8-1.4c-0.3,2.4-2.1,4.4-4.6,4.4c-3.5-0.2-7.7,1-10.5-1.6
		c-1.4-3.2-0.5-6.9-0.8-10.3C-39,424.4-39.7,421.1-37.2,419.6z"/>
	<path d="M29.7,419.8c5,0,10.1,0,15.1,0c-0.1,1.7,0.2,3.5-1,4.8c-3.6,5-6.7,10.4-10.6,15.3c-0.9,0-2.5,0-3.4,0
		c3.8-5.7,7.9-11.2,11.3-17.1c-3.8,0-7.6,0-11.5,0C29.7,422,29.7,420.5,29.7,419.8z"/>
</g>
</svg>
