<?xml version="1.0" encoding="utf-8"?>
<!-- Generator: Adobe Illustrator 19.0.0, SVG Export Plug-In . SVG Version: 6.00 Build 0)  -->
<svg version="1.1" id="Слой_1" xmlns="http://www.w3.org/2000/svg" xmlns:xlink="http://www.w3.org/1999/xlink" x="0px" y="0px"
	 viewBox="0 0 200 200" style="enable-background:new 0 0 200 200;" xml:space="preserve">
<style type="text/css">
	.st0{fill:#010202;}
</style>
<path id="XMLID_2_" class="st0" d="M94.3,72.8c0.3-1,1.2-1.6,2-1.4c0.8,0.3,1.2,1.3,0.8,2.3c-0.3,1-1.2,1.6-2,1.4
	C94.3,74.9,94,73.8,94.3,72.8z M81.3,70.6c1.1,0.2,2.3-0.8,2.7-2.2c0.3-1.5-0.4-2.9-1.5-3.1c-1.1-0.2-2.3,0.8-2.7,2.2
	C79.5,68.9,80.2,70.3,81.3,70.6z M88.3,72.8c1,0.3,2.1-0.5,2.4-1.8c0.4-1.3-0.1-2.5-1.1-2.8c-1-0.3-2.1,0.5-2.4,1.8
	C86.8,71.3,87.3,72.5,88.3,72.8z M73.7,68.5c1.3,0.3,2.6-0.9,3-2.5c0.4-1.7-0.4-3.3-1.7-3.5c-1.3-0.3-2.6,0.9-3,2.5
	C71.6,66.7,72.4,68.2,73.7,68.5z M61.9,102.7c-1.9,1.8-7.1,9.3-8.2,12.3c2.1-1.5,6.1-0.7,8.6,0.9C62.4,115.9,60,110.4,61.9,102.7z
	 M104.3,82.9c0-3.6,2.9-6.5,6.5-6.5c3.6,0,6.5,2.9,6.5,6.5c0,3.6-2.9,6.5-6.5,6.5C107.2,89.4,104.3,86.5,104.3,82.9z M107.5,82.9
	c0,1.8,1.5,3.3,3.3,3.3c1.8,0,3.3-1.5,3.3-3.3c0-1.8-1.5-3.3-3.3-3.3C109,79.6,107.5,81.1,107.5,82.9z M200,100
	c0,26.7-10.4,51.8-29.3,70.7S126.7,200,100,200s-51.8-10.4-70.7-29.3C10.4,151.8,0,126.7,0,100c0-26.7,10.4-51.8,29.3-70.7
	C48.2,10.4,73.3,0,100,0s51.8,10.4,70.7,29.3C189.6,48.2,200,73.3,200,100z M182.7,67.6c-17.2-3.4-34.5-5-52.1-5.1l0.1,0
	c3.7,1.6,7.6,2.5,11.6,2.8c11.2,0.6,25.5,2.6,30.8,3.9c-12-0.8-23.8-1.3-30-1.4c0.8,0.3,1.6,0.7,2.3,1c4.3,2.1,9.1,2.1,13.7,3.3
	c13.3,3.6,21.7,6.1,27.6,8C185.6,75.8,184.3,71.6,182.7,67.6z M138.8,82.1c2.4,0,4.2,0.2,6.9,1.5c-6.3-8.1-14.3-12-19.3-14.6
	c0.7,1.6,10,13,13.8,18.3c-2.6-1.9-6.5-5.1-10.3-9.6c3,6.1,5.9,12.4,10.8,17.6c-0.5-2.1-1-4.1-1-5.2c3.2,6.2,8.6,11.2,14.9,13.6
	c-1.4-5.2-2.5-9.7-9.4-14.9c1-0.4,2.7-0.3,4.3,0.3C146.4,86.3,142.2,83.2,138.8,82.1z M157,125.2c2.3,1.8,3.5,4.4,4.5,7.1
	c0.8-10.1-8.6-20.3-9.3-21.3c0,0,6.9,20.2,4.5,30.1c-0.4-6.5-1.6-10.9-1.6-10.9c-0.2,7.2-1.4,14.3-4.1,21.1c1.8-7.3,3-14.7,3-22.5
	c-1.4,2.5-7.5,18.1-5.3,31c0.7-0.4,1.3-0.8,2.1-1.2c0.1,0.8,0.5,2.4,0.7,2.9c3.6-3.4,6-7.5,6.5-12.6c0.5,1.5,1,2.9,1.6,4.6
	C161.8,143.6,159.9,134.4,157,125.2z M147.6,127.7c-1.9,5.6-0.8,11.8-0.1,11.9c8.4-15.5,8.4-17.8-4.2-37.6c0,0,1.4,6.2,1.8,8.7
	c1.1,7-3.5,13.9-3.9,15.7c1.8-1.8,4.2-4.5,4.2-4.5c-0.7,2.2-1.2,5.4-1.1,9.3C145.2,130.1,146.4,128.7,147.6,127.7z M113.4,142.2
	c-0.9,11.2,12.8,17.9,15.5,18.5c-15.5-20.7-23.2-42.8-24.5-67.6c-0.3-0.2-0.6-0.4-0.9-0.6c-0.8,3.1-1.9,6.2-3.6,9
	c0.4-0.2,1.8-1.2,2.5-1.7c-1.7,4.6-2.9,10.4-1.9,15.2c0.9-1.8,1.8-3.6,2.6-5.5c-0.6,6.5-1.3,12.9,0.9,19c1.1-1.1,2.1-2.2,3.1-3.3
	c-0.8,6.9,0.8,13.5,4.8,19.5C112.4,143.8,113.4,142.2,113.4,142.2z M86.5,95.7c0.1-4.9-4.8-8.8-8.5-11.7c-3,2-9.1,1.5-12.4,1.5
	c2.9-1.3,5.7-2.3,8-4.6c-1-0.6-5.5-3.5-6.7-3.5c-0.7,1.3-1.3,2.5-1.9,3.7c-1.4,2.8-4.1,4.1-5.9,5.8c-2.4,2.2-0.7,3.9,0.7,5.9
	c0.4-1,1.1-4,3.8-3c2.6,1,4.4,0.5,7.8-1.6c3.8-2.4,10.8,1.9,11.5,8.8c0.1,1.6,1.1,3.7,2,5.1c0.4,0.6,1.6,0.2,1.6-0.5
	C86.2,100,86.5,100.7,86.5,95.7z M66.3,106.4c1.3,1,3.6,2.7,6.6,0.6c2.2-1.5,4.4-2,6.2-2.2c1.2-0.1,2.1-1.2,2.1-2.4c0,0,0,0,0,0
	c-0.1-1.7-1.3-3.2-3-3.5c-1.4-0.2-1.8,0.7-4.3,2.2c-3.6,2.1-8.1,0.9-10.7-0.8c-1.2-0.8-3.2-0.4-5.1,0.2c1.9-2.3,3.4-4.1,2.9-5.1
	c-3.8,2.3-12.6,12.6-14.9,20.9c8.5,3,7.2,0,12.8,1.3c2.4,0.6,3,3.1,0.9,4.8c-2.3,1.8-1.6,4-5.4,7.6c7,1.1,12.1,9.2,12.8,4
	c0.7-5.5-1-10-3-12.8c2.9,2.2,5,4.6,7.3,7.4c-0.4-1.4-0.7-5-0.2-6.7c-2.2-0.8-5.8-5.9-6-8.4c2.4,2.5,4.8,3.2,6.1,3.5
	c-0.2-1,0.2-3.2,0.4-4C71.5,113.4,65.6,110.8,66.3,106.4z M57,154.7c3.9-2.5,7.2-4,10.7-3.5c-2.3-2.4-4.5-3.9-7.3-4.9
	C59.1,148.9,54.9,152.4,57,154.7z M58.2,138.9c3.6-0.2,4.4,0.6,6.6,1.8c-0.3-1.8-1.9-3.4-2.8-3.9c-1.8-1-4.8-2.3-7.9-0.5
	C54.5,137.6,56.3,139.1,58.2,138.9z M75.1,96.1c-1.2-1.2-4.2-3-6.3-3.2c-0.6,0.3-1.4,1.2-1.9,2c2.7-0.4,3.5,0.7,4.5,0.9
	C72.9,96.1,73.5,96.2,75.1,96.1z M67.3,98.5c0.4,0.6,0.8,1.2,1.2,1.6c1.8,0.1,5.1-1.3,6.3-2.3C70.4,97.1,69.5,99,67.3,98.5z
	 M93.6,53.5L93.6,53.5c3.1,1,6.1,2,9.1,3.1c2.5,0.9,4.8,2,7.3,3c0,0,0,0,0,0c0.8,0.3,1.4-0.7,0.7-1.3c-1.5-1.4-6.2-4.1-8.6-5.4
	c-4.6-2.5-8.7-5.1-12.8-8.3c-3.1-2.4-8.3-0.9-8.8,5.9c-0.3,3.6-2.5,2.9-3.2,6.5c7.2,3.2,18.7,9.4,28.5,15.1c1.7-0.8,3.5-1.2,5.5-1.1
	c4.2,0.2,8,2.8,9.9,6.6c1.2,2.2,1.5,4.4,1.3,6.4l0.1,0c3.5,0.3,5.7-3.7,3.8-6.7c-1-1.6-2.3-2.9-4.2-3.9c-3.1-1.7-3.5-3.9-2.3-7.4
	c0.8-2.3,4-6.1-2.4-9c-5.6-2.6-10.2-6.7-15-10.3c-2.4-1.8-4.9-3.4-7.5-4.9c0,0,0,0,0,0c-1.6-0.9-3.1,1.3-1.7,2.5
	c0.8,0.7,5.7,3.9,8.8,5.7c2.9,1.7,6,3.4,8.8,5.1c10.1,6,8.7,13.3-2.2,8.6c-0.4-0.2-0.8,0.3-0.5,0.7c0.5,0.6,1.3,1.2,2,1.9
	c0.6,0.5-0.1,1.4-0.7,1.1c-5-2.6-10.1-5.1-14.2-7c-1.7-0.8-2.8-1.3-3.7-1.7C88.5,57.2,90.3,52.5,93.6,53.5z M125.5,98.3
	c1.1,0.5,2.3,1,3.4,1.5c-1.5-2.6-4.3-4.8-6.9-6.3c0.6,0,1.2-0.1,1.8-0.2c-1.6-0.5-3-1.3-4.4-2.2c-0.2,0.2-0.4,0.4-0.6,0.6
	c8.8,11.7,13.9,24.8,14.9,40.4c2.1-3.2,3.9-10.6-0.1-14.6c0.4,0,1.2,0.3,1.7,0.6c-0.1-4.5-1.7-8.3-5.5-11c0.9,0.1,1.8,0.2,2.7,0.3
	C131.4,104,128.3,101,125.5,98.3z M139.9,110.8c-0.1,1.9-0.3,3.7,1.6,5c-0.5-8.2-3.5-16.5-12.6-23.6c1.2,4.6,1.9,5.9,1,7.4
	c0.4-0.3,0.9-0.8,1.3-1.4c0.3,2.1,0.3,4.2,2.3,5.5c-0.1-1.1-0.5-1.9,0.2-3.6c0.1,3,1.4,5.5,3.2,7.9c-0.3-0.9-0.3-1.6-0.1-2.2
	c1.2,1.2,2.4,5.3,2.3,6.1C139.3,111.8,139.7,111,139.9,110.8z M127.9,116.8c0.7,5.9,0.2,10,5.3,15.7c-0.9-8.9-6.5-28.8-16.1-39.4
	c-0.1,0.1-0.3,0.2-0.4,0.3c0.8,2.9,0.4,6.3,2.3,12.4c0.9-1,1.8-1.9,3.2-2c-1.5,2.4-1.6,4.9-0.6,7.5c0.3-2.3,0.9-4.4,1.9-6.1
	c-0.1,1-0.9,6.6-0.9,7.9c0-0.1,0.8-2.8,1.2-4.1c0.2,0.8,0.4,7.6,0.4,7.6c0,0,0.8-4.6,1.1-6.9c1,4.5-0.5,7.1,2.4,14.1
	C127.4,121.7,127.5,118.1,127.9,116.8z M110.8,91.6c4.8,0,8.6-3.9,8.6-8.6c0-4.8-3.9-8.6-8.6-8.6s-8.6,3.9-8.6,8.6
	C102.2,87.7,106.1,91.6,110.8,91.6z M72.5,59.3c-2.7-0.3-6.4,9.8-3.3,10.7c3.5,1,11.7,0.9,30.7,8.5c0.7-1.7,1.8-3.3,3.2-4.5
	c-3.7-2.3-8.1-5.3-11.7-7C83.6,63.5,79.7,60.2,72.5,59.3z M75.4,74.2c2.1,1.5,4.5,3.3,7.2,5.5l2-3.3C81.5,75.6,78.5,74.8,75.4,74.2z
	 M88.6,84.9l3.3-6.3c-1.5-0.5-3.1-1-4.6-1.4l-2.6,4.3C86,82.6,87.3,83.7,88.6,84.9z M90.7,86.9c1.1,1.1,2.2,2.2,3.2,3.3l4.4-9.4
	c-1.2-0.4-2.5-0.9-3.7-1.3L90.7,86.9z M96,92.3c1.3,1.4,2.5,2.8,3.7,4.2c0.7-1.8,1.6-4.5,2-6.2c-1.2-1.4-2-3.2-2.4-5.1L96,92.3z
	 M129.9,160.3c0.5-11.6-1.4-11.6-5.4-17.8c-1.3-1.9-3.2-5-4.2-7.8c1.5,2.3,5.1,6.8,7.1,8.7c-4-12.3-8.2-13-12-20.2
	c2.8,2.5,8.6,7.5,8.7,7.5c0-0.1-7-8.7-7.6-10c1.9,1.2,5.7,3.8,5.8,3.8c-1.3-1.7-8.6-8-9.6-9c3.2,1,6.1,3.1,9,5.6
	c-1.6-4.2-4.3-7.2-8.8-8.7c1.9-1.4,4-1.2,6.2-0.9c-3.5-8.7-7.6-14.2-9.9-17c-0.5-0.1-0.9-0.1-1.3-0.2
	C107.4,119.8,123.1,150.8,129.9,160.3z M129.1,169c8.1-9.6,13.5-21.7,11-39.1c-2.1,5.5-2.9,7.5-6.7,9.2c0.7,0.2,1.8,0.1,2.8-0.2
	c-1.9,2.6-4.1,5-3.3,8.5c0.5-1.5,1.5-3.5,4-3.7c-3,3.4-4.2,7.5-4.7,12c0.7-0.6,1.3-1.1,2-1.8c0,2.6-2.8,7.6-3.8,8.3
	c0.4-0.1,1.7-0.5,2.1-0.6C130.4,163.8,129.3,166.4,129.1,169z M133.1,181.1c13.3-8.9,14.1-27.6,11.4-42.2c0,0.1,0,9.5-3,14
	c-1.6,2.4-4.2,5.9-3.3,9c1-2.1,2.5-3.8,4.1-4.7c-1.8,4.4-4.4,8.8-4.7,13c1-1.8,2-2.9,2.6-3.5C139.9,172,137.2,177.5,133.1,181.1z
	 M169.3,44.5c-16.4,0.5-32.4,3.2-48,8.8l1.1,0.1c3.7,0.5,7.5,0.2,11.1-0.6c13-3,31.7-3.3,31.7-3.3s-18.6,3-28.1,5.7
	c13.8,1.7,27.7,3.2,41.7,3.9C176.2,53.9,172.9,49,169.3,44.5z M162.2,36.6c-17.3,2.9-34,7.6-50.5,12.9c1.9,0,3.9-0.1,5.8,0
	c2.6,0.1,5-0.4,7.4-1.3c8.6-2.9,17.4-4.7,26.4-6c5-0.7,10.1-1,15.1-1.3C165,39.5,163.6,38,162.2,36.6z M145.6,23.8
	c-11.4,5.6-31.4,16-40.1,21.6c0.3,0,0.7,0,1.1-0.1c3.2-0.3,6.2-1.3,9-2.8c9.6-5.2,21.4-9.4,29.3-11.7c-7.4,3.7-17.4,8.9-22.6,11.6
	c11.2-2.5,25.4-6.2,36-9.5C154.3,29.6,150.1,26.5,145.6,23.8z M132.1,17.2c-11.7,6.7-22.9,14-34,21.5c14.6-4.9,28.7-10.9,42.7-17.6
	C137.9,19.6,135.1,18.3,132.1,17.2z M117.1,12.8c-8.8,6.8-17,14.5-24.5,23.6c12.7-6.7,25.2-13.1,37.4-20
	C125.9,14.9,121.5,13.7,117.1,12.8z M77.2,185.9c1.6,0.1,2.3,0.1,3.5-0.2c-1.2-0.5-1.8-1.1-3.3-1.6c3-1.5,6.1-2.5,9.3-3.1
	c-0.4-2.7-1.2-5.2-1-7.1c0.4-5.4-0.4-8.2-2.2-10.6c-5.3-3-16-0.9-17.3-0.9c-2.7,0.1-5.3-0.3-7.8-1.2c-4-1.5-6.4-3.9-5.9-8.5
	c0.4-3.1,2.4-4.1,2.6-5.8c0.3-2-0.6-4.3-2.1-6.5l-3.3-4.1l2.6-3.1l-2.5-3.4l2.4-2.5c1.2-1.4,0.9-3.7-0.7-4.6
	c-0.9-0.5-4.1-1.7-6.3-2.6c-4.1-1.7-4.1-3.5-2.4-7.4c4-8.8,6.7-11.9,13.3-18.7c-0.6-1.9-4.5-4.9,1-8.8c3.6-2.6,6.1-5.9,7-8.7
	c0.1-0.5,0.2-0.9,0.4-1.4c0.5-1.7,0.6-3.5,0-5.2c-0.3-0.8-0.3-1.6,0-2.4c0.5-1.8,2.9-11,6.9-11.8c1.6-0.3,2.9-1.3,3.8-2.6
	c3.4-4.8,0.8-9.4,12.4-15.5c0.7-0.4,1.2-1.3,1.7-2.1c6-8.3,12.3-16.4,19.4-23.7c-2.9-0.3-5.9-0.4-8.9-0.4C51,11.2,11.2,51,11.2,100
	C11.2,141.1,39.2,175.8,77.2,185.9z M132.1,171.3c-23.3,13.1-32.2,16.1-47.4,18.3c13.7-3.9,32-11.6,40.3-17.6
	c-3.6-0.1-9.6,0.3-12.9,1c0.8,0.4,2.4,1.3,3,1.9c-7.8,2-12.2,1.3-18.2,3.6c2.5,0.4,4.5,1.5,5.6,2.6c-6.5-0.2-13.5,1.9-20,3.2
	c1.2,1,2.3,2,3.6,3.1c-4.2,1.3-10.3,1.9-15.1,2.2c1.5,0.4,17.1,6.2,28.9-0.1c-0.5,1.2-1.4,2.4-2.5,3.9
	C109.4,189.5,126,180.4,132.1,171.3z M154.7,172.5c-1.1,0.2-2.2,0.1-3.1,0.8c-7.7,6.1-14.2,10.9-19.2,14c0.5,0.1,1.7,0,2.1,0.1
	c-0.7,1.4-2.1,2.7-3.7,3.9c2.2-0.6,4.5-1.2,7.2-3.8c-0.2,0.8-1,2.2-1.2,3.1c3.1-2.2,8.9-7,10.5-10.1c0,1.5-0.8,4.1-1.6,5.7
	c5.8-4.2,6.1-4.5,6.4-5.5C152.5,179.8,154.6,173.4,154.7,172.5z M181.2,134.9c-3.6-7.5-8.6-12.2-10.7-13.6c1.2,1.9,4.2,5,5.2,10.2
	c-1-1.8-2.1-3-3.4-4.1c1.2,16.1-7.1,30.2-17.4,43.3c0.7-0.2,1.5-0.4,2.4-0.7c-0.9,2.8-2.5,8.5-2.5,8.6c10.3-7.8,16.9-22.2,19.9-28.3
	c0.2,0.8,0.4,2.7,0.3,4.1c1.9-2.7,4.5-7.1,6.4-17.6C181.5,136.2,181.5,135.5,181.2,134.9z M185.8,123.1c-7.1-5.5-14.3-10.8-21.8-16
	c0.9,2.3,1.8,4.5,2.7,6.7c5.9,3.6,12.5,10.7,16.9,16.6C184.3,128.1,185.1,125.6,185.8,123.1z M188.8,102.9
	c-12.1-5.7-24.2-11.3-36.2-16.9c0,0,3.2,6.4,5.1,9.3c0.4,0.5,1,0.9,1.6,1.3c9.4,5.5,18.7,10.9,28.6,16.7
	C188.4,109.8,188.7,106.4,188.8,102.9z M188.8,99.2c-0.1-5.7-0.6-11.2-1.7-16.6c-14.9-5.3-30.2-8.9-46.5-10l0,0
	c2.1,2.2,4.9,3.8,8,4.3c8.1,1.5,20.5,4.2,30.1,7.7c-15.3-3-26.6-4.7-31.2-5.3c1.1,0.9,2.3,1.6,3.7,2.3
	C163.7,87.6,176,93.9,188.8,99.2z"/>
</svg>
