<?xml version="1.0" encoding="utf-8"?>
<!-- Generator: Adobe Illustrator 21.0.0, SVG Export Plug-In . SVG Version: 6.00 Build 0)  -->
<svg version="1.1" id="Layer_1" xmlns="http://www.w3.org/2000/svg" xmlns:xlink="http://www.w3.org/1999/xlink" x="0px" y="0px"
	 viewBox="0 0 356.8 177.1" style="enable-background:new 0 0 356.8 177.1;" xml:space="preserve">
<style type="text/css">
	.st0{stroke:#FFFFFF;stroke-width:9.375000e-02;}
</style>
<path class="st0" d="M71.9,0.1c72.3,0,144.5-0.1,216.8,0c-14.3,15.9-28.5,31.8-42.9,47.5c-2.1,2.7-5.8,3.1-9,3
	c-18.3-0.1-36.5,0.1-54.8-0.1c7.2-7.9,14.2-16,21.1-24.2c-32.5-0.1-64.9,0.3-97.4-0.2C99,26.1,94,21.1,89.4,16.9
	C83.4,11.5,77.9,5.5,71.9,0.1z"/>
<path class="st0" d="M0.1,63c21.4,0,42.9,0,64.3,0c-1.7,2.4-3.5,5-6.5,5.7c-5.7,1.6-11.6,1.9-17.4,2.7c0,13.9,0,27.8,0,41.7
	c-5.5,0-10.9,0-16.4,0c0-13.9,0-27.7,0-41.6c-4.8-1.2-9.7-0.9-14.6-1.3C5.2,70.1,2,66.7,0.1,63z"/>
<path class="st0" d="M69.3,63c16.8,0.1,33.6-0.2,50.4,0.2c3.3-0.2,7.1,2.9,6.8,6.4c0.4,14.7,0.1,29.4,0.2,44c-5.1,0-10.3,0-15.4,0
	c0-6.8,0-13.5,0-20.2c-8.7,0-17.3,0-26,0c0,6.7,0,13.3,0,20c-5.3,0-10.7,0-16,0C69.3,96.6,69.4,79.8,69.3,63 M86.1,72
	c0.1,4,0,7.9,0,11.9c8.2-0.1,16.4,0,24.7,0c-0.4-3.9-0.6-7.9-0.6-11.8C102.1,72,94.1,72.1,86.1,72z"/>
<path class="st0" d="M160.7,62.9c5.3,0,10.7,0,16,0c0.1,9-0.1,18.1,0.1,27.2c4.7-3,9-7.6,14.8-8.2c6.1,0.3,10.5,5.1,15.5,8
	c0-8.9,0-17.9,0-26.8c5.5,0.1,11.1,0,16.6,0c0,17.1,0,34.1,0,51.2c-8.8-5.7-18.1-10.8-26.6-17c-1.8-1.4-4.1-2.4-6.5-1.9
	c-2.4,0.8-4.4,2.4-6.5,3.8c-7.7,5.3-15.7,10.1-23.5,15.2C160.7,97.1,160.7,80,160.7,62.9z"/>
<path class="st0" d="M230.9,62.9c17.7,0.1,35.5-0.2,53.2,0.2c2.7,1.4,5.1,4,5.1,7.2c0.4,14.5,0.1,28.9,0.1,43.4
	c-5.4,0-10.8,0-16.2,0c0-6.7,0-13.5,0-20.2c-8.6,0-17.2,0-25.8,0c0,6.7,0,13.5,0,20.2c-5.5,0-10.9,0-16.4,0
	C230.9,96.7,230.9,79.8,230.9,62.9 M247.7,72.2c0,3.9,0,7.7,0,11.6c8.1,0,16.1,0,24.2,0c0-3.9,0-7.8,0-11.6
	C263.9,72.2,255.8,72.2,247.7,72.2z"/>
<path class="st0" d="M137.7,63.3c4.8,0,9.6,0,14.4,0c0,16.8,0,33.6,0,50.4c-4.8,0-9.6,0-14.4,0C137.7,96.8,137.7,80,137.7,63.3z"/>
<path class="st0" d="M300.3,62.8c13.2,8.9,26.8,17.4,40,26.3c-0.1-8.4,0-16.8-0.1-25.2c5.5,0,10.9,0,16.4,0c0,16.9,0.1,33.8,0,50.8
	c-13.8-8.9-27.7-17.6-41.4-26.7c0,8.6,0,17.2,0,25.7c-5,0-10,0-15,0C300.3,96.7,300.3,79.7,300.3,62.8z"/>
<path class="st0" d="M110.8,129.7c3-3.5,7.8-3.2,11.9-3c17.4-0.8,34.8-0.3,52.3-0.3c-6.5,8.4-13.8,16.2-20.8,24.2
	c28.6,0.3,57.1-0.1,85.7,0.2c6.3,0.7,13.1-1.1,19,1.8c4.2,1.8,7.3,5.4,10.5,8.7c5,5.1,9.5,10.6,14.4,15.8
	c-71.7,0.1-143.5,0.1-215.2,0C82.2,160.8,96.5,145.2,110.8,129.7z"/>
</svg>
