<?xml version="1.0" encoding="utf-8"?>
<!-- Generator: Adobe Illustrator 19.0.0, SVG Export Plug-In . SVG Version: 6.00 Build 0)  -->
<svg version="1.1" id="Layer_1" xmlns="http://www.w3.org/2000/svg" xmlns:xlink="http://www.w3.org/1999/xlink" x="0px" y="0px"
	 viewBox="-202 336.532 189.704 169.359" style="enable-background:new -202 336.532 189.704 169.359;" xml:space="preserve">
<style type="text/css">
	.st0{display:none;}
	.st1{display:none;fill:#FFFFFF;}
	.st2{fill:#FFFFFF;}
	.st3{fill:#F08F00;}
	.st4{fill:#D64915;}
	.st5{fill:#1F1912;}
	.st6{fill:#FCC242;}
	.st7{fill:#DADADA;}
</style>
<rect x="-202" y="336.532" class="st0" width="640" height="477.96"/>
<polygon class="st1" points="337.941,613.788 339.601,615.736 337.653,618.767 329.644,614.059 334.73,614.113 "/>
<g>
	<path class="st2" d="M-38.187,474.572c-0.09-1.32-0.441-2.667-1.014-3.885c-0.563-1.213-1.354-2.346-2.349-3.365
		c-1.683-1.726-3.891-3.092-6.563-4.06c-2.117-0.767-4.432-1.273-7.098-1.552l-0.22-0.022c-0.245-0.023-0.496-0.048-0.662-0.059
		l-0.396-0.03l-0.43-0.029l-0.566-0.03c-0.385-0.021-0.771-0.043-1.165-0.056c-0.68-0.021-1.304-0.03-1.908-0.03
		c-0.546,0-1.082,0.009-1.586,0.024c-2.356,0.072-4.77,0.298-7.175,0.674c-4.513,0.712-9.27,2.005-14.135,3.844
		c-3.898,1.467-7.927,3.269-13.061,5.842c-2.217,1.112-4.409,2.249-6.528,3.349c-1.897,0.985-3.69,1.916-5.502,2.83
		c-4.48,2.267-8.044,3.893-11.217,5.119c-3.64,1.417-7.088,2.414-10.254,2.966c-1.566,0.276-3.112,0.454-4.595,0.527
		c-0.154,0.005-0.312,0.012-0.468,0.018c-0.137,0.006-0.271,0.013-0.403,0.017l-2.209-0.011l-0.164-0.008
		c-0.32-0.013-0.632-0.036-0.937-0.059c-2.862-0.238-4.515-0.96-5.256-1.376c-0.891-0.494-1.539-1.072-2.037-1.813
		c-0.207-0.311-0.355-0.604-0.461-0.854l0.205-0.355l-0.515-0.892l-0.285-1.988l-0.805,0.097l-6.328-10.979l1.91,11.428l-7.888,1.01
		l-5.65,0.67l0.505,3.009c0.031,0.173,0.077,0.392,0.138,0.646c0.148,0.619,0.34,1.264,0.577,1.926
		c0.795,2.188,1.896,4.169,3.375,6.057c1.042,1.325,2.24,2.538,3.556,3.601c1.521,1.234,3.228,2.297,5.069,3.157
		c1.902,0.894,3.979,1.583,6.171,2.052c2.073,0.446,4.302,0.705,6.645,0.772c0.39,0.008,0.782,0.014,1.175,0.014
		c0.164,0,0.326-0.001,0.474-0.003l0.437-0.004l1.11-0.042c0.191-0.006,0.457-0.021,0.717-0.037l0.998-0.062
		c0.408-0.028,0.788-0.065,1.172-0.104c0.164-0.017,0.531-0.052,0.531-0.052c2.228-0.236,4.511-0.627,6.782-1.161
		c4.241-0.989,8.7-2.543,13.25-4.619c4.646-2.11,8.99-4.555,12.253-6.448c1.853-1.073,3.707-2.177,5.5-3.243
		c1.986-1.182,4.04-2.402,6.049-3.559c4.431-2.551,8.02-4.415,11.299-5.866c1.906-0.847,3.785-1.582,5.624-2.201
		c0.779,0.016,1.462,0.207,2.038,0.598c-8.581,1.142-17.371,10.282-17.371,10.282l4.816-0.162
		c-8.172,9.416-5.195,19.806-5.195,19.806s8.171-10.064,26.206-10.769c6.417-0.25,13.028-0.777,15.689-7.576
		c1.079-0.612,2.052-1.287,2.962-2.052c1.505-1.273,2.67-2.65,3.559-4.208c0.563-0.987,0.985-2.016,1.25-3.04
		C-38.215,477.027-38.097,475.788-38.187,474.572 M-56.838,472.869c0.137,0.003,0.241,0.01,0.342,0.016
		c0.083,0.005,0.164,0.01,0.222,0.013c1.567,0.094,2.998,0.331,4.149,0.694c0.994,0.307,1.849,0.745,2.352,1.209
		c0.381,0.349,0.46,0.61,0.486,0.802c0.037,0.263-0.052,0.642-0.244,1.022c-0.044,0.09-0.094,0.18-0.149,0.271
		c-3.151-2.637-7.466-3.597-11.438-3.923c0.703-0.055,1.45-0.092,2.317-0.114c0.25-0.007,0.5-0.007,0.748-0.007l0.657-0.002
		L-56.838,472.869z"/>
	<path class="st2" d="M-18.717,412.446c-4.479-0.532-9.173-0.875-13.991-1.023l-0.807-0.012l0.009-1.175
		c6.621-6.139,9.128-14.506,9.128-14.506s-17.632,0.665-27.038-11.902c-0.806-1.077-1.827-1.937-2.747-2.846l10.441-1.053
		l-8.933-3.976c-4.922-2.191-8.815-6.96-12.938-12.009c-4.578-5.607-9.658-11.828-17.006-15.315
		c0.361-0.356,0.716-0.737,1.062-1.145l4.238-4.99l-6.506,0.727c-1.107,0.124-2.288,0.186-3.512,0.187
		c-4.848,0-10.038-0.979-15.057-1.924c-5.125-0.966-10.426-1.965-15.511-1.965c-2.893,0-5.537,0.326-7.975,0.989l0.803-3.976
		l-4.481,1.822c-3.03,1.232-6.573,2.05-10,2.841c-5.676,1.31-11.489,2.651-15.964,5.927l-1.491-6.308l-3.268,5.716
		c-1.682,2.939-3.729,5.232-5.709,7.451c-2.767,3.097-5.625,6.3-7.384,11.097l-0.232,0.634l0.105,0.669
		c0.093,0.577,0.224,1.181,0.392,1.808c-3.188,2.321-5.11,5.318-6.115,7.276c-3.468,1.011-11.826,4.432-18.821,15.026l-0.689,1.045
		l0.389,1.191c0.437,1.338,4.427,13.176,10.179,16.733l0.699,0.432c3.357,7.273,13.857,10.215,13.857,10.215
		s-1.003-6.108-0.127-8.582c2.804,1.914,8.107,6.792,8.323,12.255c-0.867-0.314-1.813-1.582-2.703-3.107
		c0,0-2.222,3.107-1.834,8.102c-2.01,0.064-3.986,0.095-5.908,0.095c-0.813,0-1.624-0.005-2.438-0.017l-1.112-0.012
		c-4.906-0.107-9.699-0.424-14.265-0.945l-8.346-0.953l6.353,5.498c4.715,4.079,9.671,8.128,14.747,12.048l0.037,46.918l2.557,0.039
		c0.911,0.013,1.829,0.02,2.741,0.02c23.271,0,46.804-4.453,69.563-8.759c7.912-1.497,16.786-0.477,23.965-4.347
		c16.386-8.835,25.896-6.766,37.257-4.175c2.403,0.549,4.922-0.146,7.374-0.146c0.691,0,1.375,0.004,2.066,0.011l2.628,0.023
		l0.004-44.712c5.248-4.465,10.373-8.586,15.249-12.261l5.163-3.891L-18.717,412.446z"/>
	<path d="M-149.228,481.577c0,0,0.003,0.023-0.006-0.034c-0.001-0.01-0.003-0.022-0.006-0.037c-0.001-0.005-0.003-0.01-0.004-0.015
		c-0.004-0.015-0.006-0.001-0.002,0.038c0.009,0.076,0.037,0.251,0.104,0.503c0.134,0.501,0.419,1.313,1.011,2.198
		c0.595,0.887,1.477,1.832,2.938,2.643c1.449,0.812,3.57,1.465,6.299,1.692c0.343,0.025,0.688,0.052,1.046,0.065l0.135,0.007
		l0.032,0.002c-0.2,0.001-0.031,0-0.065,0.001l0.083,0.001l0.334,0.006c0.222,0.005,0.446,0.009,0.671,0.013
		c0.248,0.006,0.396,0,0.575-0.001c0.175-0.001,0.35-0.002,0.526-0.003c0.356-0.002,0.772-0.029,1.162-0.04
		c1.588-0.078,3.24-0.266,4.944-0.565c3.409-0.594,7.025-1.655,10.744-3.103c3.722-1.44,7.544-3.248,11.446-5.223
		c3.906-1.971,7.898-4.106,12.022-6.174c4.122-2.066,8.386-4.067,12.813-5.733c4.419-1.671,9.019-2.982,13.622-3.708
		c2.303-0.359,4.599-0.575,6.85-0.644c1.126-0.037,2.24-0.028,3.338,0.005c0.549,0.019,1.094,0.055,1.634,0.081l0.431,0.03
		l0.372,0.028c0.229,0.015,0.555,0.05,0.833,0.076c2.231,0.233,4.381,0.655,6.461,1.408c2.062,0.747,4.049,1.853,5.588,3.431
		c0.766,0.785,1.405,1.684,1.854,2.646c0.45,0.96,0.71,1.979,0.777,2.967c0.072,0.99-0.037,1.949-0.271,2.83
		c-0.229,0.884-0.581,1.692-0.996,2.42c-0.833,1.46-1.903,2.602-2.98,3.513c-1.082,0.91-2.185,1.591-3.208,2.124
		c-2.06,1.056-3.796,1.544-4.97,1.837c-0.59,0.144-1.043,0.236-1.351,0.292c-0.306,0.057-0.464,0.086-0.464,0.086l-1.012-4.472
		c0,0,0.123-0.028,0.362-0.084c0.24-0.054,0.593-0.143,1.043-0.273c0.896-0.264,2.204-0.704,3.63-1.521
		c0.707-0.41,1.439-0.917,2.108-1.539c0.667-0.621,1.274-1.359,1.681-2.179c0.41-0.816,0.609-1.708,0.49-2.545
		c-0.118-0.837-0.521-1.634-1.305-2.352c-0.777-0.719-1.932-1.341-3.339-1.775c-1.396-0.439-3.054-0.704-4.763-0.805
		c-0.215-0.011-0.383-0.026-0.652-0.033l-0.374-0.012l-0.188-0.007l-0.047-0.002c0.005,0.001-0.079-0.004,0.001,0.001h-0.087
		c-0.463,0.004-0.928-0.003-1.396,0.009c-0.937,0.024-1.882,0.068-2.835,0.153c-1.906,0.164-3.841,0.455-5.785,0.87
		c-3.892,0.839-7.813,2.189-11.687,3.91c-3.879,1.716-7.715,3.785-11.542,5.989c-3.829,2.203-7.65,4.543-11.554,6.805
		c-3.9,2.262-7.888,4.451-12.025,6.331c-4.128,1.884-8.428,3.443-12.766,4.455c-2.165,0.508-4.335,0.881-6.466,1.106
		c-0.541,0.051-1.046,0.108-1.605,0.146c-0.281,0.018-0.562,0.036-0.841,0.053c-0.274,0.018-0.579,0.037-0.782,0.042
		c-0.225,0.008-0.447,0.018-0.671,0.025l-0.334,0.013l-0.083,0.003l-0.197,0.002l-0.198,0.002c-0.525,0.007-1.052,0-1.573-0.011
		c-2.093-0.059-4.164-0.286-6.153-0.714c-1.988-0.426-3.893-1.057-5.613-1.864c-1.723-0.805-3.253-1.782-4.535-2.822
		c-1.287-1.041-2.325-2.14-3.152-3.19c-1.654-2.114-2.487-3.995-2.974-5.338c-0.242-0.676-0.394-1.228-0.492-1.641
		c-0.049-0.206-0.085-0.381-0.111-0.52c-0.029-0.183-0.046-0.276-0.046-0.276L-149.228,481.577z"/>
	<path class="st3" d="M-159.831,482.834c0,0,5.177,16.62,29.001,13.259c-10.826-1.536-19.671-3.164-22.404-14.102L-159.831,482.834"
		/>
	<path d="M-49.449,480.265c-3.009-4.543-9.699-5.699-17.952-5.419c1.338,0.851,2.732,1.703,3.189,2.513
		c-6.356-0.012-11.73,3.058-17.031,6.355c1.491-0.112,2.877-0.122,3.967,0.159c-5.152,3.336-9.155,11.255-9.052,16.808
		c16.032-15.111,34.203-2.95,38.013-15.569L-49.449,480.265z"/>
	<path class="st4" d="M-79.547,492.037c2.83-3.32,6.237-6.107,10.607-8.009c-0.998-0.5-2.23-0.805-3.626-0.974
		c3.86-2.011,8.523-2.4,13.799-1.553c-0.107-0.977-0.703-2.096-1.461-3.264c3.619,0.66,7.414,2.435,8.469,5.519
		c-5.655-0.162-10.134,0.104-12.906,1.38c0.856,0.276,1.78,0.647,2.436,1.381C-67.479,487.198-73.378,489.319-79.547,492.037"/>
	<path class="st5" d="M-134.764,431.689c0,0-3.39-0.549-3.48-1.097c-0.092-0.547-0.603-5.479,0.573-5.394
		c1.175,0.085,4.7-0.679,4.561-0.135c-0.139,0.544-1.114,4.332-1.005,4.873C-134.006,430.478-134.764,431.689-134.764,431.689"/>
	<path d="M-29.803,400.393c0,0-5.421,11.448-15.271,13.096c-9.849,1.649-48.821,5.651-48.821,5.651l1.308-4.002l32.361-6.638
		l19.807-1.696L-29.803,400.393"/>
	<path class="st3" d="M-189.944,402.269l-3.193-9.828l9.211-9.471l9.445-3.777l6.286-8.097c0,0,20.337-11.064,21.413-11.12
		c1.075-0.056,26.219,2.23,26.219,2.23l2.545,11.765l-3.755,16.875l-21.245,8l-18.555,2.622c0,0-21.133-0.038-23.418,1.964
		C-187.277,405.435-189.944,402.269-189.944,402.269"/>
	<path class="st6" d="M-160.729,379.622c1.808-0.181,3.668-2.277,6.321-4.2c5.284-3.828,12.356-7.738,18.921,0.135
		c0,0-2.466,0.813-4.706,1.843c0,0,1.522,0.971,2.867,1.113c-4.504,6.171-12.639,4.064-21.563,4.458l3.277-2.478L-160.729,379.622z"
		/>
	<path class="st6" d="M-168.195,385.602c0,0,2.185,3.227,2.454,5.782c0,0-1.3-1.21-3.317-1.524c0,0-4.235,2.98-5.646,5.602
		l0.224,4.303c0,0-12.281,4.572-12.639,4.124c-0.36-0.449-6.636-10.757-6.636-10.757l2.959-3.317l13.178-0.179l4.927-1.479
		L-168.195,385.602z"/>
	<path d="M-159.708,399.25c0,0-0.856-7.306-3.075-10.69c0,0,7.238,1.973,9.523,5.177c8.942-4.728,15.665-3.339,23.688-9.042
		c0,0-1.659-2.656-4.136-3.967c0,0,4.091-0.022,6.354,1.21c0,0-0.605-5.12-2.319-8.672c0,0,5.658-2.5,9.244-2.499
		c2.959,0.001,6.723,18.824,6.723,18.824l-19.586,17.659l-17.569-2.061l-9.501-1.255L-159.708,399.25z"/>
	<path class="st6" d="M-167.086,375.854c0,0-2.092,1.812-3.212,4.781l-3.407-1.554l3.212-5.026l2.525-1.924l0.882,3.093l0.008,0.571
		L-167.086,375.854"/>
	<path d="M-140.665,375.31c-8.783-4.447-14.664,4.36-20.064,4.312c0,0,1.407,1.669,3.666,1.623c0,0-1.261,0.961-1.825,1.726
		c3.072-1.104,8.773,0.016,14.082-2.8c0,0-1.739-0.871-2.772-1.713C-147.579,378.458-144.472,375.77-140.665,375.31"/>
	<path d="M-167.086,375.854c0,0-3.429-5.244-4.168-9.883c2.801-7.642,8.717-10.824,12.908-18.152c0.486,2.061,0.528,4,0,5.782
		c5.648-9.353,19.361-8.74,29.446-12.841c-0.333,1.648-0.875,3.166-1.815,4.437c13.57-8.019,31.217,2.353,46.859,0.605
		c-1.27,1.495-2.777,2.76-4.841,3.496c16.718,4.258,22.096,23.441,34.646,29.028l-8.606,0.867l-58.915-8.079
		C-135.164,362.352-150.05,363.426-167.086,375.854"/>
	<path d="M-177.978,378.326c0,0,2.219-6.506,8.471-9.464l2.102,3.58c0,0-3.799,2.278-4.908,6.639L-177.978,378.326z"/>
	<path d="M-180.383,395.303c0,0,0.09,3.093,1.556,4.527l-4.413,1.053c0,0-1.494-1.7-1.561-4.221
		c-1.518-0.795-4.676-2.512-5.995-4.023l2.318-3.688l3.344-0.259l5.946,0.317L-180.383,395.303z"/>
	<path d="M-63.081,378.073c8.844,3.318,12.895,16.379,26.639,18.304c-8.539,3.294-19.312-2.303-29.328,1.999
		c8.53-1.033,22.051,7.194,35.968,2.017c-14.477,16.718-40.921,5.334-64.406,17.883c-18.739,10.014-28.863,29.94-28.863,29.94
		s-4.841-8.112-3.631-16.359c0,0-5.109,4.258-5.559,7.395c0,0-4.123-7.843-3.675-12.191c0.448-4.347-3.989-23.485-3.989-23.485
		l17.839-16.942l-0.628-9.413l2.689-7.35l43.834,3.137L-63.081,378.073z"/>
	<path class="st3" d="M-115.006,367.757c6.758-5.21,13.144,0,21.11-1.412c0,0-1.714,8.606-9.042,10.454c0,0,3.429-3.808,4.101-7.025
		c-4.673,0.571-9.291-0.257-12.135,2.252c0,0,0.538-2.656,2.354-3.933C-108.618,368.094-111.24,367.488-115.006,367.757"/>
	<path class="st4" d="M-83.194,377.632c9.009,1.449,13.849,6.764,19.563,10.865c-7.731-0.47-14.186,2.69-19.899,0.807
		c0,0,7.597-1.21,11.093-3.361C-72.437,385.943-78.556,379.742-83.194,377.632"/>
	<path class="st4" d="M-102.463,415.081c0,0,9.86-7.709,29.223-9.771c0,0-13.603-3.706-24.236-1.718c0,0,6.667,1.001,8.818,1.898
		C-88.658,405.49-98.25,409.254-102.463,415.081"/>
	<path class="st6" d="M-176.834,385.602c0,0,4.087-4.457,9.277-2.622c0,0-2.948-3.338-11.271-2.049
		c-8.323,1.288-9.313,7.953-9.313,7.953l6.264,0.124L-176.834,385.602"/>
	<path d="M-185.888,402.544c0,0-3-3.768-3.807-9.527c1.72-3.349,1.556-4.133,1.556-4.133s11.103-11.484,20.582-5.904
		c0,0-1.949-5.513-9.916-5.345c0,0-10.32,1.558-18.725,14.287c0,0,3.967,12.168,9.076,15.328l1.48-3.227L-185.888,402.544z"/>
	<path d="M-180.271,396.395c3.126-5.748,7.58-6.96,12.076-10.792c-2.252,0.784-5.25,1.687-6.824,1.926
		c-0.336-0.964-1.815-1.926-1.815-1.926c-4.604,2.185-13.263,3.65-13.263,3.65l1.386,0.227l5.021,3.294L-180.271,396.395z"/>
	<path class="st6" d="M-108.618,368.094c4.71-1.907,10.322,0.204,14.723-1.748c-6.271,1.446-15.246-3.816-21.11,1.412
		C-112.703,367.62-110.552,367.699-108.618,368.094"/>
	<path class="st4" d="M-164.677,369.509c0,0-1.165-2.017-1.321-4.011c0.756-2.536,3.563-4.751,5.67-8.18
		c0.288,1.997,0.122,4.088-0.401,6.252c7.46-13.983,15.763-12.997,23.729-16c-2.757,4.168-8.74,4.616-12.706,14.723
		C-149.706,362.293-158.782,364.556-164.677,369.509"/>
	<path class="st4" d="M-144.139,361.52c14.848-21.346,39.689-11.216,48.227-11.587c-4.582,1.514-7.944,1.021-11.889,2.141
		c0,0,14.993-0.381,27.095,8.135c-0.127-0.584-19.266-6.79-29.033-3.328c3.53,0.37,7.874,2.654,13.245,3.294
		c-7.093,1.916-18.925-2.554-26.825,4.101c-3.73-1.401-8.202-2.165-13.11-2.554c2.477-2.235,5.453-4.452,8.808-6.656
		C-127.622,355.066-135.847,356.074-144.139,361.52"/>
	<path d="M-159.76,398.846c0,0-1.824-3.515-4.205-5.896c0,0,3.152,0.433,5.147,2.327
		C-156.821,397.172-159.76,398.846-159.76,398.846"/>
	<path d="M-167.086,375.854c0,0,11.587-8.742,21.83-10.028c10.243-1.286,0,0,0,0s-1.704,1.316-2.313,2.859
		c0,0,12.784-5.254,25.639,2.2c12.853,7.454,0,0,0,0l1.244-2.792l-12.542-4.081l-10.431-1.299c0,0-9.091,2.801-9.375,2.922
		c-0.284,0.122-8.848,4.128-9.011,4.236c-0.162,0.107-4.829,4.184-4.829,4.184L-167.086,375.854"/>
	<path d="M-72.046,427.538c0-8.346,0.016-13.535,0.016-21.882c11.867-1.696,23.72-3.123,35.588-3.057v23.831
		C-48.311,425.819-60.178,426.386-72.046,427.538"/>
	<path d="M-168.319,450.837c8.482-2.993,16.967-6.513,25.45-10.341c-0.982-3.707-1.964-7.418-2.945-11.133
		c-16.157,2.084-32.315,2.957-48.472,1.114C-185.631,437.966-176.976,444.675-168.319,450.837"/>
	<path d="M-41.71,433.452c-8.982-2.511-17.965-4.397-26.946-5.918c0.266-3.874,0.533-7.748,0.799-11.621
		c16.165-2.01,32.33-2.808,48.494-0.888C-26.812,420.64-34.262,426.831-41.71,433.452"/>
	<path d="M-35.646,413.999c-47.669-0.494-95.338,18.121-143.007,17.452c0.016,19.133,0.03,38.265,0.045,57.398
		c47.652,0.72,95.306-17.951,142.957-17.396C-35.648,452.258-35.647,433.194-35.646,413.999"/>
	<path class="st2" d="M-142.201,434.149c3.02-0.41,6.037-0.859,9.058-1.336c0.011,15.179,0.021,30.357,0.033,45.537
		c-3.019,0.477-6.037,0.926-9.057,1.336C-142.178,464.506-142.19,449.328-142.201,434.149"/>
	<path class="st2" d="M-67.323,421.744c0.006,6.438,0.011,12.877,0.015,19.315c6.464,1.953,12.927,4.102,19.391,6.544
		c-0.927,0.044-1.854,0.094-2.781,0.15c0.003,3.289,0.005,6.577,0.009,9.865c-2.517,0.153-5.032,0.348-7.548,0.578
		c-0.003-3.249-0.005-6.499-0.008-9.749c-3.018,0.278-6.037,0.608-9.056,0.981c0.004,5.95,0.009,11.9,0.013,17.852
		c8.554-1.056,17.107-1.769,25.661-1.913c-0.006-7.531-0.012-15.063-0.017-22.595c-5.537-2.267-11.073-4.296-16.609-6.147
		c-0.002-2.562-0.004-5.123-0.006-7.684c2.515-0.231,5.031-0.426,7.547-0.578c0.001,2.014,0.003,4.029,0.004,6.044
		c3.02-0.183,6.038-0.305,9.058-0.357c-0.004-4.741-0.008-9.482-0.011-14.224C-50.216,419.974-58.769,420.687-67.323,421.744"/>
	<path class="st2" d="M-156.051,465.496c0.002,2.521,0.004,5.044,0.007,7.566c-2.517,0.226-5.032,0.412-7.549,0.558
		c-0.009-12.473-0.018-24.945-0.027-37.418c-3.019,0.173-6.038,0.286-9.057,0.327c0.012,15.18,0.023,30.359,0.034,45.54
		c8.553-0.117,17.107-0.808,25.661-1.847c-0.004-3.961-0.006-7.921-0.009-11.882C-150.011,467.438-153.03,466.495-156.051,465.496"
		/>
	<path class="st2" d="M-72.09,422.288c0.011,15.179,0.022,30.357,0.034,45.536c-3.02,0.415-6.037,0.868-9.057,1.349
		c-0.008-10.008-0.016-20.017-0.022-30.024c0.927-0.148,1.854-0.293,2.781-0.436c-3.444-0.936-6.889-1.831-10.332-2.699
		c0.009,11.471,0.018,22.942,0.025,34.413c-3.019,0.521-6.037,1.062-9.056,1.611c-0.012-15.179-0.023-30.356-0.035-45.535
		c5.537,1.352,11.073,2.738,16.61,4.216c-0.002-2.36-0.004-4.721-0.006-7.081C-78.128,423.157-75.109,422.703-72.09,422.288"/>
	<path class="st2" d="M-102.495,430.411c-3.027,3.247-6.055,6.499-9.083,9.745c0.002,3.125,0.005,6.248,0.007,9.372
		c3.028-3.973,6.055-7.952,9.082-11.926C-102.491,435.205-102.493,432.808-102.495,430.411"/>
	<path class="st2" d="M-107.462,453.017c1.66-1.808,3.32-3.615,4.98-5.421c-0.002-2.574-0.004-5.148-0.007-7.723
		c-3.027,2.913-6.056,5.829-9.084,8.741c0.006,5.965,0.01,11.93,0.015,17.896c-2.525,0.467-5.05,0.929-7.574,1.382
		c-0.006-6.999-0.011-13.998-0.016-20.997c-2.192,2.22-4.385,4.432-6.576,6.634c0,0,2.755-3.284,6.575-7.859
		c-0.002-2.36-0.003-4.721-0.006-7.081c2.324-0.417,4.649-0.842,6.976-1.271c2.835-3.397,5.723-6.854,8.238-9.845
		c-2.413,0.446-4.826,0.895-7.239,1.341c-4.028,3.855-8.058,7.702-12.086,11.518c2.643-3.573,5.284-7.16,7.927-10.754
		c-4.304,0.786-8.607,1.553-12.91,2.273c0.011,15.232,0.023,30.465,0.034,45.697c8.584-1.436,17.168-3.06,25.752-4.645
		c-0.006-8.032-0.012-16.063-0.018-24.095C-104.141,450.21-105.802,451.614-107.462,453.017"/>
	<path class="st2" d="M-67.323,421.744c10.56-1.295,21.119-2.066,31.679-1.893c-2.675,2.29-5.351,4.64-8.025,7.044
		C-51.554,424.77-59.438,423.111-67.323,421.744"/>
	<path class="st2" d="M-163.62,436.202c-5.01,0.298-10.021,0.427-15.032,0.342c3.108,2.382,6.216,4.682,9.325,6.909
		c1.577-0.549,3.154-1.115,4.73-1.7"/>
	<path class="st3" d="M-67.628,407.971c-0.014,3.542-0.028,7.085-0.042,10.627c1.885-0.237,3.769-0.456,5.653-0.657
		c0.015-3.542,0.028-7.084,0.041-10.626C-63.859,407.516-65.743,407.735-67.628,407.971 M-65.667,416.476
		c0.009-2.272,0.018-4.543,0.027-6.814c0.554-0.066,1.107-0.131,1.662-0.193c-0.009,2.271-0.018,4.542-0.026,6.814
		C-64.56,416.345-65.113,416.41-65.667,416.476"/>
	<path class="st3" d="M-47.425,406.191c-0.015,3.541-0.028,7.082-0.042,10.623c1.885-0.087,3.769-0.149,5.653-0.184
		c0.015-3.541,0.027-7.082,0.041-10.623C-43.656,406.042-45.54,406.103-47.425,406.191 M-45.464,414.854
		c0.009-2.271,0.018-4.542,0.026-6.812c0.555-0.02,1.108-0.039,1.663-0.054c-0.009,2.27-0.018,4.541-0.026,6.811
		C-44.356,414.815-44.91,414.833-45.464,414.854"/>
	<path class="st3" d="M-60.84,407.188c-0.006,1.503-0.012,3.005-0.019,4.507c1.422,0.497,2.843,1.004,4.264,1.523
		c-0.204,0.017-0.408,0.036-0.612,0.054c-0.003,0.767-0.006,1.534-0.009,2.302c-0.555,0.049-1.109,0.1-1.663,0.152
		c0.003-0.758,0.006-1.516,0.009-2.274c-0.665,0.063-1.33,0.128-1.995,0.197c-0.006,1.388-0.011,2.777-0.017,4.165
		c1.885-0.193,3.769-0.367,5.653-0.518c0.007-1.757,0.014-3.515,0.021-5.272c-1.217-0.453-2.434-0.896-3.651-1.331
		c0.003-0.598,0.006-1.195,0.008-1.793c0.554-0.052,1.107-0.103,1.663-0.152c-0.002,0.469-0.005,0.94-0.007,1.41
		c0.665-0.059,1.33-0.115,1.995-0.169c0.005-1.106,0.01-2.212,0.014-3.318C-57.071,406.822-58.956,406.995-60.84,407.188"/>
	<path class="st3" d="M-50.506,413.303c-0.002,0.588-0.005,1.177-0.007,1.765c-0.555,0.034-1.108,0.069-1.663,0.107
		c0.012-2.91,0.022-5.82,0.034-8.73c-0.664,0.044-1.329,0.093-1.995,0.143c-0.015,3.542-0.027,7.083-0.041,10.625
		c1.884-0.144,3.768-0.265,5.652-0.362c0.003-0.924,0.007-1.848,0.011-2.772C-49.178,413.817-49.842,413.558-50.506,413.303"/>
	<path class="st7" d="M-128.249,431.851c1.194,0.685,2.39,1.367,3.585,2.046c2.351-0.399,4.701-0.81,7.052-1.228
		c0.758-1.03,1.515-2.06,2.273-3.091C-119.643,430.364-123.946,431.131-128.249,431.851"/>
	<path class="st7" d="M-142.201,434.148c1.195,0.723,2.391,1.44,3.585,2.152c1.825-0.26,3.649-0.533,5.475-0.815
		c-0.001-0.891-0.002-1.781-0.002-2.671C-136.164,433.29-139.182,433.738-142.201,434.148"/>
	<path class="st7" d="M-178.652,436.543c2.624,0.921,5.248,1.782,7.872,2.592c2.387-0.046,4.774-0.135,7.162-0.262
		c-0.001-0.891-0.001-1.78-0.002-2.672c-3.02,0.174-6.038,0.286-9.057,0.326"/>
	<path class="st7" d="M-81.14,423.637c1.194,0.695,2.39,1.394,3.585,2.098c1.821-0.265,3.643-0.518,5.465-0.758v-2.689
		C-75.106,422.703-78.123,423.156-81.14,423.637"/>
	<path class="st2" d="M-67.633,407.97c0.215,0.132,0.429,0.265,0.644,0.398c1.672-0.204,3.344-0.394,5.015-0.57v-0.483
		c-0.542,0.057-1.084,0.116-1.626,0.177"/>
	<path class="st2" d="M-60.839,407.187c0.215,0.137,0.429,0.275,0.644,0.412c1.67-0.164,3.339-0.314,5.009-0.446
		c0-0.161,0-0.322,0-0.483c-0.543,0.044-1.085,0.089-1.627,0.135"/>
	<path class="st2" d="M-54.136,406.589c0.215,0.143,0.43,0.286,0.645,0.429c0.45-0.031,0.898-0.061,1.349-0.09
		c0-0.161,0-0.322,0-0.483c-0.542,0.037-1.084,0.075-1.626,0.115"/>
	<path class="st2" d="M-47.424,406.19c0.215,0.149,0.43,0.299,0.644,0.449c1.67-0.07,3.339-0.12,5.008-0.149v-0.484
		c-0.542,0.01-1.084,0.022-1.626,0.036"/>
	<path class="st7" d="M-67.337,421.743c1.195,0.738,2.39,1.482,3.585,2.233c8.335-0.906,16.67-1.456,25.005-1.443
		c1.034-0.904,2.068-1.797,3.103-2.682C-46.209,419.678-56.772,420.449-67.337,421.743"/>
	<path class="st7" d="M-114.676,432.157c2.694-0.503,5.388-1.012,8.081-1.521c0.885-1.054,1.77-2.109,2.654-3.163
		c-2.413,0.447-4.826,0.895-7.239,1.341C-112.345,429.928-113.511,431.044-114.676,432.157"/>
	<polygon points="-71.189,416.532 -76.683,421.22 -100.354,426.249 -103.639,423.921 -95.736,418.015 -80.922,415.917 	"/>
	<path class="st6" d="M-160.729,379.622c3.67-2.719,2.892-5.177,7.627-7.711c0,0-0.428,2.113-0.172,3.288c0.255,1.175,0,0,0,0
		S-158.067,379.527-160.729,379.622"/>
	<path class="st2" d="M-155.253,380.741c1.262-0.212,2.512-1.216,4.304-2.102c0,0,0.816,0.204,1.294,1.201
		C-149.983,380.191-153.02,381.029-155.253,380.741"/>
	<path class="st2" d="M-196.034,430.738c23.151,2.799,54.539-0.94,78.931-6.481c-28.838,3.825-55.772,5.703-78.931,3.715V430.738z"
		/>
	<path d="M-187.277,405.435c0,0,2.397,6.656,10.6,10.51c0,0-0.224-6.275,0.538-7.843c0,0,0.952-0.045,1.591,0.056
		c0,0,14.874,7.968,10.646,19.44c0,0-2.197-1.12-3.564-2.42c0,0-1.78,4.359,3.25,10.847c0,0-1.345,5.288-0.717,9.322
		c0,0,8.247,4.034,16.314,4.751c0,0-0.784-2.174-1.12-3.519c0,0,4.772-0.874,8.202-2.622c0,0,2.15-12.371,6.05-16.673
		c3.899-4.303-1.748-24.237-1.748-24.237l-15.238-2.431C-152.475,400.617-182.258,398.443-187.277,405.435"/>
	<path class="st2" d="M-166.1,428.271c0,0,2.442,2.958,5.736,3.205c0,0-1.276-0.846-1.614-1.451c0,0,1.648-2.774,1.884-4.538
		c0,0,0.607,3.023,0.891,6.504c0,0,2.722,0,4.438-1.092c0,0,0.285-3.95-0.22-6.354c0,0,2.605,2.488,3.127,3.967
		c0,0,0.051-1.042-0.201-1.916c0,0,1.78-2.639,1.966-4.202c0,0,0.24,6.706-0.813,10.628c0,0-5.804,2.98-10.487,2.375
		C-161.394,435.397-164.89,433.56-166.1,428.271"/>
	<path class="st4" d="M-155.684,415.253c0,0-0.869-2.087-2.257-2.982c0,0-0.581,2.382-1.734,3.855c0,0,4.371,4.897,4.438,7.654
		c0,0,3.565-4.186,3.927-8.552c0,0-1.834-3.025-3.298-3.976C-154.607,411.252-154.832,413.873-155.684,415.253"/>
	<path class="st3" d="M-159.675,438.714c0,0,7.278-0.723,10.909-3.236c0,0,2.353-5.033,2.756-7.689c0,0,0.975,2.958,1.009,4.168
		c0,0,2.186-3.933,2.655-5.781c0,0,0.067,11.496-2.454,15.093c0,0-7.563,2.79-14.387,1.242c0,0,2.017-1.042,2.891-2.084
		C-156.296,440.428-158.65,439.487-159.675,438.714"/>
	<path class="st2" d="M-183.927,403.687c0,0,0.234,4.437,5.108,8.303c0,0-0.408-4.888,0.365-7.026c0,0,6.122-0.369,8.743,0.168
		c0,0,1.771,4.784,4.93,7.17c0,0-0.849-6.749-0.109-8.144c0,0,0.226,0.464,0.611,0.951l5.461-2.43
		C-158.817,402.679-180.666,401.267-183.927,403.687"/>
	<path class="st2" d="M-81.021,476.668c-0.162-0.202-1.299-1.795-1.299-1.795l9.08-4.779l9.428-1.718l10.35-0.678l5.845,2.111
		l0.446,2.374l-2.558,1.685l-18.832,0.365l-9.78,1.515L-81.021,476.668z"/>
	<path d="M-187.12,407.25c5.24-7.389,16.539-3.093,28.304-4.572l-0.538-3.832c-7.194,2.017-23.079-3.375-28.457,4.558
		L-187.12,407.25z"/>
	<polygon points="-178.13,436.942 -169.542,443.299 -173.349,442.979 	"/>
	<polygon points="-35.646,419.851 -44.296,427.393 -40.522,426.895 	"/>
	<path d="M-43.298,468.526c-1.54-1.578-3.527-2.684-5.588-3.431c-2.08-0.753-4.229-1.176-6.46-1.407
		c-0.279-0.027-0.605-0.063-0.833-0.077l-0.373-0.028l-0.43-0.03c-0.541-0.026-1.086-0.063-1.635-0.081
		c-1.098-0.032-2.212-0.042-3.338-0.006c-2.251,0.069-4.547,0.284-6.849,0.645c-4.605,0.725-9.205,2.038-13.623,3.708
		c-4.427,1.666-8.69,3.667-12.813,5.733c-4.124,2.067-8.115,4.203-12.021,6.175c-0.607,0.307-1.212,0.607-1.816,0.906l3.742,8.557
		c1.066-0.596,2.125-1.199,3.177-1.81c3.903-2.262,7.727-4.602,11.556-6.805c3.827-2.204,7.662-4.273,11.541-5.989
		c3.875-1.722,7.796-3.071,11.687-3.911c1.944-0.415,3.879-0.705,5.785-0.869c0.953-0.085,1.898-0.129,2.835-0.153
		c0.467-0.012,0.933-0.004,1.396-0.008h0.087c-0.079-0.006,0.005-0.001,0-0.001l0.046,0.001l0.188,0.007l0.375,0.012
		c0.271,0.007,0.438,0.023,0.652,0.033c1.709,0.101,3.367,0.365,4.763,0.805c1.407,0.435,2.562,1.058,3.338,1.775
		c0.451,0.412,0.771,0.851,0.988,1.307l4.293-4.292C-42.84,469.027-43.061,468.77-43.298,468.526"/>
	<path class="st3" d="M-73.24,467.989c0,0,0.1-0.07,0.288-0.204c0.198-0.118,0.499-0.297,0.892-0.474
		c0.787-0.364,1.947-0.802,3.374-1.189c0.713-0.194,1.491-0.392,2.322-0.555c0.83-0.167,1.712-0.312,2.63-0.43
		c1.835-0.238,3.814-0.344,5.801-0.29c0.992,0.035,1.986,0.102,2.96,0.23c0.488,0.063,0.971,0.127,1.445,0.224
		c0.476,0.081,0.942,0.181,1.399,0.296c0.916,0.215,1.785,0.506,2.597,0.808c0.397,0.178,0.791,0.329,1.156,0.512
		c0.362,0.195,0.718,0.361,1.041,0.563c0.32,0.206,0.641,0.372,0.915,0.587c0.274,0.213,0.541,0.399,0.773,0.602
		c0.228,0.207,0.444,0.394,0.633,0.578c0.183,0.19,0.34,0.379,0.485,0.54c0.301,0.313,0.466,0.624,0.604,0.807
		c0.127,0.191,0.195,0.294,0.195,0.294s-0.099-0.074-0.283-0.213c-0.186-0.136-0.433-0.357-0.793-0.579
		c-0.178-0.113-0.366-0.246-0.581-0.374c-0.225-0.117-0.457-0.254-0.707-0.394c-0.515-0.257-1.104-0.52-1.759-0.77
		c-0.657-0.245-1.388-0.453-2.162-0.659c-0.783-0.183-1.609-0.359-2.479-0.49c-0.866-0.142-1.772-0.234-2.694-0.32
		c-0.923-0.077-1.865-0.138-2.812-0.159c-0.944-0.034-1.893-0.037-2.828-0.029c-0.936,0.011-1.856,0.036-2.75,0.073
		c-1.786,0.078-3.459,0.196-4.896,0.32c-0.715,0.077-1.376,0.132-1.957,0.206c-0.583,0.072-1.091,0.139-1.509,0.206
		c-0.417,0.073-0.741,0.131-0.962,0.187C-73.122,467.956-73.24,467.989-73.24,467.989"/>
	<path class="st2" d="M-121.354,485.918c4.697-1.538,15.493-6.232,22.92-10.71c-4.657,1.975-16.681,6.574-25.539,8.125
		c-6.837,1.195,0,0,0,0L-121.354,485.918"/>
	<path class="st2" d="M-45.015,467.072c0,0,3.802,2.859,4.198,5.984s0,0,0,0l2.58,0.984
		C-38.236,474.041-39.76,468.625-45.015,467.072"/>
	<path class="st2" d="M-38.187,474.572c-0.09-1.32-0.441-2.667-1.014-3.885c-0.563-1.213-1.354-2.346-2.349-3.365
		c-1.683-1.726-3.891-3.092-6.563-4.06c-2.117-0.767-4.432-1.273-7.098-1.552l-0.22-0.022c-0.245-0.023-0.496-0.048-0.662-0.059
		l-0.396-0.03l-0.43-0.029l-0.566-0.03c-0.385-0.021-0.771-0.043-1.165-0.056c-0.68-0.021-1.304-0.03-1.908-0.03
		c-0.546,0-1.082,0.009-1.586,0.024c-2.356,0.072-4.77,0.298-7.175,0.674c-4.513,0.712-9.27,2.005-14.135,3.844
		c-3.898,1.467-7.927,3.269-13.061,5.842c-2.217,1.112-4.409,2.249-6.528,3.349c-1.897,0.985-3.69,1.916-5.502,2.83
		c-4.48,2.267-8.044,3.893-11.217,5.119c-3.64,1.417-7.088,2.414-10.254,2.966c-1.566,0.276-3.112,0.454-4.595,0.527
		c-0.154,0.005-0.312,0.012-0.468,0.018c-0.137,0.006-0.271,0.013-0.403,0.017l-2.209-0.011l-0.164-0.008
		c-0.32-0.013-0.632-0.036-0.937-0.059c-2.862-0.238-4.515-0.96-5.256-1.376c-0.891-0.494-1.539-1.072-2.037-1.813
		c-0.207-0.311-0.355-0.604-0.461-0.854l0.205-0.355l-0.515-0.892l-0.285-1.988l-0.805,0.097l-6.328-10.979l1.91,11.428l-7.888,1.01
		l-5.65,0.67l0.505,3.009c0.031,0.173,0.077,0.392,0.138,0.646c0.148,0.619,0.34,1.264,0.577,1.926
		c0.795,2.188,1.896,4.169,3.375,6.057c1.042,1.325,2.24,2.538,3.556,3.601c1.521,1.234,3.228,2.297,5.069,3.157
		c1.902,0.894,3.979,1.583,6.171,2.052c2.073,0.446,4.302,0.705,6.645,0.772c0.39,0.008,0.782,0.014,1.175,0.014
		c0.164,0,0.326-0.001,0.474-0.003l0.437-0.004l1.11-0.042c0.191-0.006,0.457-0.021,0.717-0.037l0.998-0.062
		c0.408-0.028,0.788-0.065,1.172-0.104c0.164-0.017,0.531-0.052,0.531-0.052c2.228-0.236,4.511-0.627,6.782-1.161
		c4.241-0.989,8.7-2.543,13.25-4.619c4.646-2.11,8.99-4.555,12.253-6.448c1.853-1.073,3.707-2.177,5.5-3.243
		c1.986-1.182,4.04-2.402,6.049-3.559c4.431-2.551,8.02-4.415,11.299-5.866c1.906-0.847,3.785-1.582,5.624-2.201
		c0.779,0.016,1.462,0.207,2.038,0.598c-8.581,1.142-17.371,10.282-17.371,10.282l4.816-0.162
		c-8.172,9.416-5.195,19.806-5.195,19.806s8.171-10.064,26.206-10.769c6.417-0.25,13.028-0.777,15.689-7.576
		c1.079-0.612,2.052-1.287,2.962-2.052c1.505-1.273,2.67-2.65,3.559-4.208c0.563-0.987,0.985-2.016,1.25-3.04
		C-38.215,477.027-38.097,475.788-38.187,474.572 M-56.838,472.869c0.137,0.003,0.241,0.01,0.342,0.016
		c0.083,0.005,0.164,0.01,0.222,0.013c1.567,0.094,2.998,0.331,4.149,0.694c0.994,0.307,1.849,0.745,2.352,1.209
		c0.381,0.349,0.46,0.61,0.486,0.802c0.037,0.263-0.052,0.642-0.244,1.022c-0.044,0.09-0.094,0.18-0.149,0.271
		c-3.151-2.637-7.466-3.597-11.438-3.923c0.703-0.055,1.45-0.092,2.317-0.114c0.25-0.007,0.5-0.007,0.748-0.007l0.657-0.002
		L-56.838,472.869z"/>
	<path class="st2" d="M-18.717,412.446c-4.479-0.532-9.173-0.875-13.991-1.023l-0.807-0.012l0.009-1.175
		c6.621-6.139,9.128-14.506,9.128-14.506s-17.632,0.665-27.038-11.902c-0.806-1.077-1.827-1.937-2.747-2.846l10.441-1.053
		l-8.933-3.976c-4.922-2.191-8.815-6.96-12.938-12.009c-4.578-5.607-9.658-11.828-17.006-15.315
		c0.361-0.356,0.716-0.737,1.062-1.145l4.238-4.99l-6.506,0.727c-1.107,0.124-2.288,0.186-3.512,0.187
		c-4.848,0-10.038-0.979-15.057-1.924c-5.125-0.966-10.426-1.965-15.511-1.965c-2.893,0-5.537,0.326-7.975,0.989l0.803-3.976
		l-4.481,1.822c-3.03,1.232-6.573,2.05-10,2.841c-5.676,1.31-11.489,2.651-15.964,5.927l-1.491-6.308l-3.268,5.716
		c-1.682,2.939-3.729,5.232-5.709,7.451c-2.767,3.097-5.625,6.3-7.384,11.097l-0.232,0.634l0.105,0.669
		c0.093,0.577,0.224,1.181,0.392,1.808c-3.188,2.321-5.11,5.318-6.115,7.276c-3.468,1.011-11.826,4.432-18.821,15.026l-0.689,1.045
		l0.389,1.191c0.437,1.338,4.427,13.176,10.179,16.733l0.699,0.432c3.357,7.273,13.857,10.215,13.857,10.215
		s-1.003-6.108-0.127-8.582c2.804,1.914,8.107,6.792,8.323,12.255c-0.867-0.314-1.813-1.582-2.703-3.107
		c0,0-2.222,3.107-1.834,8.102c-2.01,0.064-3.986,0.095-5.908,0.095c-0.813,0-1.624-0.005-2.438-0.017l-1.112-0.012
		c-4.906-0.107-9.699-0.424-14.265-0.945l-8.346-0.953l6.353,5.498c4.715,4.079,9.671,8.128,14.747,12.048l0.037,46.918l2.557,0.039
		c0.911,0.013,1.829,0.02,2.741,0.02c23.271,0,46.804-4.453,69.563-8.759c7.912-1.497,16.786-0.477,23.965-4.347
		c16.386-8.835,25.896-6.766,37.257-4.175c2.403,0.549,4.922-0.146,7.374-0.146c0.691,0,1.375,0.004,2.066,0.011l2.628,0.023
		l0.004-44.712c5.248-4.465,10.373-8.586,15.249-12.261l5.163-3.891L-18.717,412.446z"/>
	<path d="M-149.228,481.577c0,0,0.003,0.023-0.006-0.034c-0.001-0.01-0.003-0.022-0.006-0.037c-0.001-0.005-0.003-0.01-0.004-0.015
		c-0.004-0.015-0.006-0.001-0.002,0.038c0.009,0.076,0.037,0.251,0.104,0.503c0.134,0.501,0.419,1.313,1.011,2.198
		c0.595,0.887,1.477,1.832,2.938,2.643c1.449,0.812,3.57,1.465,6.299,1.692c0.343,0.025,0.688,0.052,1.046,0.065l0.135,0.007
		l0.032,0.002c-0.2,0.001-0.031,0-0.065,0.001l0.083,0.001l0.334,0.006c0.222,0.005,0.446,0.009,0.671,0.013
		c0.248,0.006,0.396,0,0.575-0.001c0.175-0.001,0.35-0.002,0.526-0.003c0.356-0.002,0.772-0.029,1.162-0.04
		c1.588-0.078,3.24-0.266,4.944-0.565c3.409-0.594,7.025-1.655,10.744-3.103c3.722-1.44,7.544-3.248,11.446-5.223
		c3.906-1.971,7.898-4.106,12.022-6.174c4.122-2.066,8.386-4.067,12.813-5.733c4.419-1.671,9.019-2.982,13.622-3.708
		c2.303-0.359,4.599-0.575,6.85-0.644c1.126-0.037,2.24-0.028,3.338,0.005c0.549,0.019,1.094,0.055,1.634,0.081l0.431,0.03
		l0.372,0.028c0.229,0.015,0.555,0.05,0.833,0.076c2.231,0.233,4.381,0.655,6.461,1.408c2.062,0.747,4.049,1.853,5.588,3.431
		c0.766,0.785,1.405,1.684,1.854,2.646c0.45,0.96,0.71,1.979,0.777,2.967c0.072,0.99-0.037,1.949-0.271,2.83
		c-0.229,0.884-0.581,1.692-0.996,2.42c-0.833,1.46-1.903,2.602-2.98,3.513c-1.082,0.91-2.185,1.591-3.208,2.124
		c-2.06,1.056-3.796,1.544-4.97,1.837c-0.59,0.144-1.043,0.236-1.351,0.292c-0.306,0.057-0.464,0.086-0.464,0.086l-1.012-4.472
		c0,0,0.123-0.028,0.362-0.084c0.24-0.054,0.593-0.143,1.043-0.273c0.896-0.264,2.204-0.704,3.63-1.521
		c0.707-0.41,1.439-0.917,2.108-1.539c0.667-0.621,1.274-1.359,1.681-2.179c0.41-0.816,0.609-1.708,0.49-2.545
		c-0.118-0.837-0.521-1.634-1.305-2.352c-0.777-0.719-1.932-1.341-3.339-1.775c-1.396-0.439-3.054-0.704-4.763-0.805
		c-0.215-0.011-0.383-0.026-0.652-0.033l-0.374-0.012l-0.188-0.007l-0.047-0.002c0.005,0.001-0.079-0.004,0.001,0.001h-0.087
		c-0.463,0.004-0.928-0.003-1.396,0.009c-0.937,0.024-1.882,0.068-2.835,0.153c-1.906,0.164-3.841,0.455-5.785,0.87
		c-3.892,0.839-7.813,2.189-11.687,3.91c-3.879,1.716-7.715,3.785-11.542,5.989c-3.829,2.203-7.65,4.543-11.554,6.805
		c-3.9,2.262-7.888,4.451-12.025,6.331c-4.128,1.884-8.428,3.443-12.766,4.455c-2.165,0.508-4.335,0.881-6.466,1.106
		c-0.541,0.051-1.046,0.108-1.605,0.146c-0.281,0.018-0.562,0.036-0.841,0.053c-0.274,0.018-0.579,0.037-0.782,0.042
		c-0.225,0.008-0.447,0.018-0.671,0.025l-0.334,0.013l-0.083,0.003l-0.197,0.002l-0.198,0.002c-0.525,0.007-1.052,0-1.573-0.011
		c-2.093-0.059-4.164-0.286-6.153-0.714c-1.988-0.426-3.893-1.057-5.613-1.864c-1.723-0.805-3.253-1.782-4.535-2.822
		c-1.287-1.041-2.325-2.14-3.152-3.19c-1.654-2.114-2.487-3.995-2.974-5.338c-0.242-0.676-0.394-1.228-0.492-1.641
		c-0.049-0.206-0.085-0.381-0.111-0.52c-0.029-0.183-0.046-0.276-0.046-0.276L-149.228,481.577z"/>
	<path class="st3" d="M-159.831,482.834c0,0,5.177,16.62,29.001,13.259c-10.826-1.536-19.671-3.164-22.404-14.102L-159.831,482.834"
		/>
	<path d="M-49.449,480.265c-3.009-4.543-9.699-5.699-17.952-5.419c1.338,0.851,2.732,1.703,3.189,2.513
		c-6.356-0.012-11.73,3.058-17.031,6.355c1.491-0.112,2.877-0.122,3.967,0.159c-5.152,3.336-9.155,11.255-9.052,16.808
		c16.032-15.111,34.203-2.95,38.013-15.569L-49.449,480.265z"/>
	<path class="st4" d="M-79.547,492.037c2.83-3.32,6.237-6.107,10.607-8.009c-0.998-0.5-2.23-0.805-3.626-0.974
		c3.86-2.011,8.523-2.4,13.799-1.553c-0.107-0.977-0.703-2.096-1.461-3.264c3.619,0.66,7.414,2.435,8.469,5.519
		c-5.655-0.162-10.134,0.104-12.906,1.38c0.856,0.276,1.78,0.647,2.436,1.381C-67.479,487.198-73.378,489.319-79.547,492.037"/>
	<path class="st5" d="M-134.764,431.689c0,0-3.39-0.549-3.48-1.097c-0.092-0.547-0.603-5.479,0.573-5.394
		c1.175,0.085,4.7-0.679,4.561-0.135c-0.139,0.544-1.114,4.332-1.005,4.873C-134.006,430.478-134.764,431.689-134.764,431.689"/>
	<path d="M-29.803,400.393c0,0-5.421,11.448-15.271,13.096c-9.849,1.649-48.821,5.651-48.821,5.651l1.308-4.002l32.361-6.638
		l19.807-1.696L-29.803,400.393"/>
	<path class="st3" d="M-189.944,402.269l-3.193-9.828l9.211-9.471l9.445-3.777l6.286-8.097c0,0,20.337-11.064,21.413-11.12
		c1.075-0.056,26.219,2.23,26.219,2.23l2.545,11.765l-3.755,16.875l-21.245,8l-18.555,2.622c0,0-21.133-0.038-23.418,1.964
		C-187.277,405.435-189.944,402.269-189.944,402.269"/>
	<path class="st6" d="M-160.729,379.622c1.808-0.181,3.668-2.277,6.321-4.2c5.284-3.828,12.356-7.738,18.921,0.135
		c0,0-2.466,0.813-4.706,1.843c0,0,1.522,0.971,2.867,1.113c-4.504,6.171-12.639,4.064-21.563,4.458l3.277-2.478L-160.729,379.622z"
		/>
	<path class="st6" d="M-168.195,385.602c0,0,2.185,3.227,2.454,5.782c0,0-1.3-1.21-3.317-1.524c0,0-4.235,2.98-5.646,5.602
		l0.224,4.303c0,0-12.281,4.572-12.639,4.124c-0.36-0.449-6.636-10.757-6.636-10.757l2.959-3.317l13.178-0.179l4.927-1.479
		L-168.195,385.602z"/>
	<path d="M-159.708,399.25c0,0-0.856-7.306-3.075-10.69c0,0,7.238,1.973,9.523,5.177c8.942-4.728,15.665-3.339,23.688-9.042
		c0,0-1.659-2.656-4.136-3.967c0,0,4.091-0.022,6.354,1.21c0,0-0.605-5.12-2.319-8.672c0,0,5.658-2.5,9.244-2.499
		c2.959,0.001,6.723,18.824,6.723,18.824l-19.586,17.659l-17.569-2.061l-9.501-1.255L-159.708,399.25z"/>
	<path class="st6" d="M-167.086,375.854c0,0-2.092,1.812-3.212,4.781l-3.407-1.554l3.212-5.026l2.525-1.924l0.882,3.093l0.008,0.571
		L-167.086,375.854"/>
	<path d="M-140.665,375.31c-8.783-4.447-14.664,4.36-20.064,4.312c0,0,1.407,1.669,3.666,1.623c0,0-1.261,0.961-1.825,1.726
		c3.072-1.104,8.773,0.016,14.082-2.8c0,0-1.739-0.871-2.772-1.713C-147.579,378.458-144.472,375.77-140.665,375.31"/>
	<path d="M-167.086,375.854c0,0-3.429-5.244-4.168-9.883c2.801-7.642,8.717-10.824,12.908-18.152c0.486,2.061,0.528,4,0,5.782
		c5.648-9.353,19.361-8.74,29.446-12.841c-0.333,1.648-0.875,3.166-1.815,4.437c13.57-8.019,31.217,2.353,46.859,0.605
		c-1.27,1.495-2.777,2.76-4.841,3.496c16.718,4.258,22.096,23.441,34.646,29.028l-8.606,0.867l-58.915-8.079
		C-135.164,362.352-150.05,363.426-167.086,375.854"/>
	<path d="M-177.978,378.326c0,0,2.219-6.506,8.471-9.464l2.102,3.58c0,0-3.799,2.278-4.908,6.639L-177.978,378.326z"/>
	<path d="M-180.383,395.303c0,0,0.09,3.093,1.556,4.527l-4.413,1.053c0,0-1.494-1.7-1.561-4.221
		c-1.518-0.795-4.676-2.512-5.995-4.023l2.318-3.688l3.344-0.259l5.946,0.317L-180.383,395.303z"/>
	<path d="M-63.081,378.073c8.844,3.318,12.895,16.379,26.639,18.304c-8.539,3.294-19.312-2.303-29.328,1.999
		c8.53-1.033,22.051,7.194,35.968,2.017c-14.477,16.718-40.921,5.334-64.406,17.883c-18.739,10.014-28.863,29.94-28.863,29.94
		s-4.841-8.112-3.631-16.359c0,0-5.109,4.258-5.559,7.395c0,0-4.123-7.843-3.675-12.191c0.448-4.347-3.989-23.485-3.989-23.485
		l17.839-16.942l-0.628-9.413l2.689-7.35l43.834,3.137L-63.081,378.073z"/>
	<path class="st3" d="M-115.006,367.757c6.758-5.21,13.144,0,21.11-1.412c0,0-1.714,8.606-9.042,10.454c0,0,3.429-3.808,4.101-7.025
		c-4.673,0.571-9.291-0.257-12.135,2.252c0,0,0.538-2.656,2.354-3.933C-108.618,368.094-111.24,367.488-115.006,367.757"/>
	<path class="st4" d="M-83.194,377.632c9.009,1.449,13.849,6.764,19.563,10.865c-7.731-0.47-14.186,2.69-19.899,0.807
		c0,0,7.597-1.21,11.093-3.361C-72.437,385.943-78.556,379.742-83.194,377.632"/>
	<path class="st4" d="M-102.463,415.081c0,0,9.86-7.709,29.223-9.771c0,0-13.603-3.706-24.236-1.718c0,0,6.667,1.001,8.818,1.898
		C-88.658,405.49-98.25,409.254-102.463,415.081"/>
	<path class="st6" d="M-176.834,385.602c0,0,4.087-4.457,9.277-2.622c0,0-2.948-3.338-11.271-2.049
		c-8.323,1.288-9.313,7.953-9.313,7.953l6.264,0.124L-176.834,385.602"/>
	<path d="M-185.888,402.544c0,0-3-3.768-3.807-9.527c1.72-3.349,1.556-4.133,1.556-4.133s11.103-11.484,20.582-5.904
		c0,0-1.949-5.513-9.916-5.345c0,0-10.32,1.558-18.725,14.287c0,0,3.967,12.168,9.076,15.328l1.48-3.227L-185.888,402.544z"/>
	<path d="M-180.271,396.395c3.126-5.748,7.58-6.96,12.076-10.792c-2.252,0.784-5.25,1.687-6.824,1.926
		c-0.336-0.964-1.815-1.926-1.815-1.926c-4.604,2.185-13.263,3.65-13.263,3.65l1.386,0.227l5.021,3.294L-180.271,396.395z"/>
	<path class="st6" d="M-108.618,368.094c4.71-1.907,10.322,0.204,14.723-1.748c-6.271,1.446-15.246-3.816-21.11,1.412
		C-112.703,367.62-110.552,367.699-108.618,368.094"/>
	<path class="st4" d="M-164.677,369.509c0,0-1.165-2.017-1.321-4.011c0.756-2.536,3.563-4.751,5.67-8.18
		c0.288,1.997,0.122,4.088-0.401,6.252c7.46-13.983,15.763-12.997,23.729-16c-2.757,4.168-8.74,4.616-12.706,14.723
		C-149.706,362.293-158.782,364.556-164.677,369.509"/>
	<path class="st4" d="M-144.139,361.52c14.848-21.346,39.689-11.216,48.227-11.587c-4.582,1.514-7.944,1.021-11.889,2.141
		c0,0,14.993-0.381,27.095,8.135c-0.127-0.584-19.266-6.79-29.033-3.328c3.53,0.37,7.874,2.654,13.245,3.294
		c-7.093,1.916-18.925-2.554-26.825,4.101c-3.73-1.401-8.202-2.165-13.11-2.554c2.477-2.235,5.453-4.452,8.808-6.656
		C-127.622,355.066-135.847,356.074-144.139,361.52"/>
	<path d="M-159.76,398.846c0,0-1.824-3.515-4.205-5.896c0,0,3.152,0.433,5.147,2.327
		C-156.821,397.172-159.76,398.846-159.76,398.846"/>
	<path d="M-167.086,375.854c0,0,11.587-8.742,21.83-10.028c10.243-1.286,0,0,0,0s-1.704,1.316-2.313,2.859
		c0,0,12.784-5.254,25.639,2.2c12.853,7.454,0,0,0,0l1.244-2.792l-12.542-4.081l-10.431-1.299c0,0-9.091,2.801-9.375,2.922
		c-0.284,0.122-8.848,4.128-9.011,4.236c-0.162,0.107-4.829,4.184-4.829,4.184L-167.086,375.854"/>
	<path d="M-72.046,427.538c0-8.346,0.016-13.535,0.016-21.882c11.867-1.696,23.72-3.123,35.588-3.057v23.831
		C-48.311,425.819-60.178,426.386-72.046,427.538"/>
	<path d="M-168.319,450.837c8.482-2.993,16.967-6.513,25.45-10.341c-0.982-3.707-1.964-7.418-2.945-11.133
		c-16.157,2.084-32.315,2.957-48.472,1.114C-185.631,437.966-176.976,444.675-168.319,450.837"/>
	<path d="M-41.71,433.452c-8.982-2.511-17.965-4.397-26.946-5.918c0.266-3.874,0.533-7.748,0.799-11.621
		c16.165-2.01,32.33-2.808,48.494-0.888C-26.812,420.64-34.262,426.831-41.71,433.452"/>
	<path d="M-35.646,413.999c-47.669-0.494-95.338,18.121-143.007,17.452c0.016,19.133,0.03,38.265,0.045,57.398
		c47.652,0.72,95.306-17.951,142.957-17.396C-35.648,452.258-35.647,433.194-35.646,413.999"/>
	<path class="st2" d="M-142.201,434.149c3.02-0.41,6.037-0.859,9.058-1.336c0.011,15.179,0.021,30.357,0.033,45.537
		c-3.019,0.477-6.037,0.926-9.057,1.336C-142.178,464.506-142.19,449.328-142.201,434.149"/>
	<path class="st2" d="M-67.323,421.744c0.006,6.438,0.011,12.877,0.015,19.315c6.464,1.953,12.927,4.102,19.391,6.544
		c-0.927,0.044-1.854,0.094-2.781,0.15c0.003,3.289,0.005,6.577,0.009,9.865c-2.517,0.153-5.032,0.348-7.548,0.578
		c-0.003-3.249-0.005-6.499-0.008-9.749c-3.018,0.278-6.037,0.608-9.056,0.981c0.004,5.95,0.009,11.9,0.013,17.852
		c8.554-1.056,17.107-1.769,25.661-1.913c-0.006-7.531-0.012-15.063-0.017-22.595c-5.537-2.267-11.073-4.296-16.609-6.147
		c-0.002-2.562-0.004-5.123-0.006-7.684c2.515-0.231,5.031-0.426,7.547-0.578c0.001,2.014,0.003,4.029,0.004,6.044
		c3.02-0.183,6.038-0.305,9.058-0.357c-0.004-4.741-0.008-9.482-0.011-14.224C-50.216,419.974-58.769,420.687-67.323,421.744"/>
	<path class="st2" d="M-156.051,465.496c0.002,2.521,0.004,5.044,0.007,7.566c-2.517,0.226-5.032,0.412-7.549,0.558
		c-0.009-12.473-0.018-24.945-0.027-37.418c-3.019,0.173-6.038,0.286-9.057,0.327c0.012,15.18,0.023,30.359,0.034,45.54
		c8.553-0.117,17.107-0.808,25.661-1.847c-0.004-3.961-0.006-7.921-0.009-11.882C-150.011,467.438-153.03,466.495-156.051,465.496"
		/>
	<path class="st2" d="M-72.09,422.288c0.011,15.179,0.022,30.357,0.034,45.536c-3.02,0.415-6.037,0.868-9.057,1.349
		c-0.008-10.008-0.016-20.017-0.022-30.024c0.927-0.148,1.854-0.293,2.781-0.436c-3.444-0.936-6.889-1.831-10.332-2.699
		c0.009,11.471,0.018,22.942,0.025,34.413c-3.019,0.521-6.037,1.062-9.056,1.611c-0.012-15.179-0.023-30.356-0.035-45.535
		c5.537,1.352,11.073,2.738,16.61,4.216c-0.002-2.36-0.004-4.721-0.006-7.081C-78.128,423.157-75.109,422.703-72.09,422.288"/>
	<path class="st2" d="M-102.495,430.411c-3.027,3.247-6.055,6.499-9.083,9.745c0.002,3.125,0.005,6.248,0.007,9.372
		c3.028-3.973,6.055-7.952,9.082-11.926C-102.491,435.205-102.493,432.808-102.495,430.411"/>
	<path class="st2" d="M-107.462,453.017c1.66-1.808,3.32-3.615,4.98-5.421c-0.002-2.574-0.004-5.148-0.007-7.723
		c-3.027,2.913-6.056,5.829-9.084,8.741c0.006,5.965,0.01,11.93,0.015,17.896c-2.525,0.467-5.05,0.929-7.574,1.382
		c-0.006-6.999-0.011-13.998-0.016-20.997c-2.192,2.22-4.385,4.432-6.576,6.634c0,0,2.755-3.284,6.575-7.859
		c-0.002-2.36-0.003-4.721-0.006-7.081c2.324-0.417,4.649-0.842,6.976-1.271c2.835-3.397,5.723-6.854,8.238-9.845
		c-2.413,0.446-4.826,0.895-7.239,1.341c-4.028,3.855-8.058,7.702-12.086,11.518c2.643-3.573,5.284-7.16,7.927-10.754
		c-4.304,0.786-8.607,1.553-12.91,2.273c0.011,15.232,0.023,30.465,0.034,45.697c8.584-1.436,17.168-3.06,25.752-4.645
		c-0.006-8.032-0.012-16.063-0.018-24.095C-104.141,450.21-105.802,451.614-107.462,453.017"/>
	<path class="st2" d="M-67.323,421.744c10.56-1.295,21.119-2.066,31.679-1.893c-2.675,2.29-5.351,4.64-8.025,7.044
		C-51.554,424.77-59.438,423.111-67.323,421.744"/>
	<path class="st2" d="M-163.62,436.202c-5.01,0.298-10.021,0.427-15.032,0.342c3.108,2.382,6.216,4.682,9.325,6.909
		c1.577-0.549,3.154-1.115,4.73-1.7"/>
	<path class="st3" d="M-67.628,407.971c-0.014,3.542-0.028,7.085-0.042,10.627c1.885-0.237,3.769-0.456,5.653-0.657
		c0.015-3.542,0.028-7.084,0.041-10.626C-63.859,407.516-65.743,407.735-67.628,407.971 M-65.667,416.476
		c0.009-2.272,0.018-4.543,0.027-6.814c0.554-0.066,1.107-0.131,1.662-0.193c-0.009,2.271-0.018,4.542-0.026,6.814
		C-64.56,416.345-65.113,416.41-65.667,416.476"/>
	<path class="st3" d="M-47.425,406.191c-0.015,3.541-0.028,7.082-0.042,10.623c1.885-0.087,3.769-0.149,5.653-0.184
		c0.015-3.541,0.027-7.082,0.041-10.623C-43.656,406.042-45.54,406.103-47.425,406.191 M-45.464,414.854
		c0.009-2.271,0.018-4.542,0.026-6.812c0.555-0.02,1.108-0.039,1.663-0.054c-0.009,2.27-0.018,4.541-0.026,6.811
		C-44.356,414.815-44.91,414.833-45.464,414.854"/>
	<path class="st3" d="M-60.84,407.188c-0.006,1.503-0.012,3.005-0.019,4.507c1.422,0.497,2.843,1.004,4.264,1.523
		c-0.204,0.017-0.408,0.036-0.612,0.054c-0.003,0.767-0.006,1.534-0.009,2.302c-0.555,0.049-1.109,0.1-1.663,0.152
		c0.003-0.758,0.006-1.516,0.009-2.274c-0.665,0.063-1.33,0.128-1.995,0.197c-0.006,1.388-0.011,2.777-0.017,4.165
		c1.885-0.193,3.769-0.367,5.653-0.518c0.007-1.757,0.014-3.515,0.021-5.272c-1.217-0.453-2.434-0.896-3.651-1.331
		c0.003-0.598,0.006-1.195,0.008-1.793c0.554-0.052,1.107-0.103,1.663-0.152c-0.002,0.469-0.005,0.94-0.007,1.41
		c0.665-0.059,1.33-0.115,1.995-0.169c0.005-1.106,0.01-2.212,0.014-3.318C-57.071,406.822-58.956,406.995-60.84,407.188"/>
	<path class="st3" d="M-50.506,413.303c-0.002,0.588-0.005,1.177-0.007,1.765c-0.555,0.034-1.108,0.069-1.663,0.107
		c0.012-2.91,0.022-5.82,0.034-8.73c-0.664,0.044-1.329,0.093-1.995,0.143c-0.015,3.542-0.027,7.083-0.041,10.625
		c1.884-0.144,3.768-0.265,5.652-0.362c0.003-0.924,0.007-1.848,0.011-2.772C-49.178,413.817-49.842,413.558-50.506,413.303"/>
	<path class="st7" d="M-128.249,431.851c1.194,0.685,2.39,1.367,3.585,2.046c2.351-0.399,4.701-0.81,7.052-1.228
		c0.758-1.03,1.515-2.06,2.273-3.091C-119.643,430.364-123.946,431.131-128.249,431.851"/>
	<path class="st7" d="M-142.201,434.148c1.195,0.723,2.391,1.44,3.585,2.152c1.825-0.26,3.649-0.533,5.475-0.815
		c-0.001-0.891-0.002-1.781-0.002-2.671C-136.164,433.29-139.182,433.738-142.201,434.148"/>
	<path class="st7" d="M-178.652,436.543c2.624,0.921,5.248,1.782,7.872,2.592c2.387-0.046,4.774-0.135,7.162-0.262
		c-0.001-0.891-0.001-1.78-0.002-2.672c-3.02,0.174-6.038,0.286-9.057,0.326"/>
	<path class="st7" d="M-81.14,423.637c1.194,0.695,2.39,1.394,3.585,2.098c1.821-0.265,3.643-0.518,5.465-0.758v-2.689
		C-75.106,422.703-78.123,423.156-81.14,423.637"/>
	<path class="st2" d="M-67.633,407.97c0.215,0.132,0.429,0.265,0.644,0.398c1.672-0.204,3.344-0.394,5.015-0.57v-0.483
		c-0.542,0.057-1.084,0.116-1.626,0.177"/>
	<path class="st2" d="M-60.839,407.187c0.215,0.137,0.429,0.275,0.644,0.412c1.67-0.164,3.339-0.314,5.009-0.446
		c0-0.161,0-0.322,0-0.483c-0.543,0.044-1.085,0.089-1.627,0.135"/>
	<path class="st2" d="M-54.136,406.589c0.215,0.143,0.43,0.286,0.645,0.429c0.45-0.031,0.898-0.061,1.349-0.09
		c0-0.161,0-0.322,0-0.483c-0.542,0.037-1.084,0.075-1.626,0.115"/>
	<path class="st2" d="M-47.424,406.19c0.215,0.149,0.43,0.299,0.644,0.449c1.67-0.07,3.339-0.12,5.008-0.149v-0.484
		c-0.542,0.01-1.084,0.022-1.626,0.036"/>
	<path class="st7" d="M-67.337,421.743c1.195,0.738,2.39,1.482,3.585,2.233c8.335-0.906,16.67-1.456,25.005-1.443
		c1.034-0.904,2.068-1.797,3.103-2.682C-46.209,419.678-56.772,420.449-67.337,421.743"/>
	<path class="st7" d="M-114.676,432.157c2.694-0.503,5.388-1.012,8.081-1.521c0.885-1.054,1.77-2.109,2.654-3.163
		c-2.413,0.447-4.826,0.895-7.239,1.341C-112.345,429.928-113.511,431.044-114.676,432.157"/>
	<polygon points="-71.189,416.532 -76.683,421.22 -100.354,426.249 -103.639,423.921 -95.736,418.015 -80.922,415.917 	"/>
	<path class="st6" d="M-160.729,379.622c3.67-2.719,2.892-5.177,7.627-7.711c0,0-0.428,2.113-0.172,3.288c0.255,1.175,0,0,0,0
		S-158.067,379.527-160.729,379.622"/>
	<path class="st2" d="M-155.253,380.741c1.262-0.212,2.512-1.216,4.304-2.102c0,0,0.816,0.204,1.294,1.201
		C-149.983,380.191-153.02,381.029-155.253,380.741"/>
	<path class="st2" d="M-196.034,430.738c23.151,2.799,54.539-0.94,78.931-6.481c-28.838,3.825-55.772,5.703-78.931,3.715V430.738z"
		/>
	<path d="M-187.277,405.435c0,0,2.397,6.656,10.6,10.51c0,0-0.224-6.275,0.538-7.843c0,0,0.952-0.045,1.591,0.056
		c0,0,14.874,7.968,10.646,19.44c0,0-2.197-1.12-3.564-2.42c0,0-1.78,4.359,3.25,10.847c0,0-1.345,5.288-0.717,9.322
		c0,0,8.247,4.034,16.314,4.751c0,0-0.784-2.174-1.12-3.519c0,0,4.772-0.874,8.202-2.622c0,0,2.15-12.371,6.05-16.673
		c3.899-4.303-1.748-24.237-1.748-24.237l-15.238-2.431C-152.475,400.617-182.258,398.443-187.277,405.435"/>
	<path class="st2" d="M-166.1,428.271c0,0,2.442,2.958,5.736,3.205c0,0-1.276-0.846-1.614-1.451c0,0,1.648-2.774,1.884-4.538
		c0,0,0.607,3.023,0.891,6.504c0,0,2.722,0,4.438-1.092c0,0,0.285-3.95-0.22-6.354c0,0,2.605,2.488,3.127,3.967
		c0,0,0.051-1.042-0.201-1.916c0,0,1.78-2.639,1.966-4.202c0,0,0.24,6.706-0.813,10.628c0,0-5.804,2.98-10.487,2.375
		C-161.394,435.397-164.89,433.56-166.1,428.271"/>
	<path class="st4" d="M-155.684,415.253c0,0-0.869-2.087-2.257-2.982c0,0-0.581,2.382-1.734,3.855c0,0,4.371,4.897,4.438,7.654
		c0,0,3.565-4.186,3.927-8.552c0,0-1.834-3.025-3.298-3.976C-154.607,411.252-154.832,413.873-155.684,415.253"/>
	<path class="st3" d="M-159.675,438.714c0,0,7.278-0.723,10.909-3.236c0,0,2.353-5.033,2.756-7.689c0,0,0.975,2.958,1.009,4.168
		c0,0,2.186-3.933,2.655-5.781c0,0,0.067,11.496-2.454,15.093c0,0-7.563,2.79-14.387,1.242c0,0,2.017-1.042,2.891-2.084
		C-156.296,440.428-158.65,439.487-159.675,438.714"/>
	<path class="st2" d="M-183.927,403.687c0,0,0.234,4.437,5.108,8.303c0,0-0.408-4.888,0.365-7.026c0,0,6.122-0.369,8.743,0.168
		c0,0,1.771,4.784,4.93,7.17c0,0-0.849-6.749-0.109-8.144c0,0,0.226,0.464,0.611,0.951l5.461-2.43
		C-158.817,402.679-180.666,401.267-183.927,403.687"/>
	<path class="st2" d="M-81.021,476.668c-0.162-0.202-1.299-1.795-1.299-1.795l9.08-4.779l9.428-1.718l10.35-0.678l5.845,2.111
		l0.446,2.374l-2.558,1.685l-18.832,0.365l-9.78,1.515L-81.021,476.668z"/>
	<path d="M-187.12,407.25c5.24-7.389,16.539-3.093,28.304-4.572l-0.538-3.832c-7.194,2.017-23.079-3.375-28.457,4.558
		L-187.12,407.25z"/>
	<polygon points="-178.13,436.942 -169.542,443.299 -173.349,442.979 	"/>
	<polygon points="-35.646,419.851 -44.296,427.393 -40.522,426.895 	"/>
	<path d="M-43.298,468.526c-1.54-1.578-3.527-2.684-5.588-3.431c-2.08-0.753-4.229-1.176-6.46-1.407
		c-0.279-0.027-0.605-0.063-0.833-0.077l-0.373-0.028l-0.43-0.03c-0.541-0.026-1.086-0.063-1.635-0.081
		c-1.098-0.032-2.212-0.042-3.338-0.006c-2.251,0.069-4.547,0.284-6.849,0.645c-4.605,0.725-9.205,2.038-13.623,3.708
		c-4.427,1.666-8.69,3.667-12.813,5.733c-4.124,2.067-8.115,4.203-12.021,6.175c-0.607,0.307-1.212,0.607-1.816,0.906l3.742,8.557
		c1.066-0.596,2.125-1.199,3.177-1.81c3.903-2.262,7.727-4.602,11.556-6.805c3.827-2.204,7.662-4.273,11.541-5.989
		c3.875-1.722,7.796-3.071,11.687-3.911c1.944-0.415,3.879-0.705,5.785-0.869c0.953-0.085,1.898-0.129,2.835-0.153
		c0.467-0.012,0.933-0.004,1.396-0.008h0.087c-0.079-0.006,0.005-0.001,0-0.001l0.046,0.001l0.188,0.007l0.375,0.012
		c0.271,0.007,0.438,0.023,0.652,0.033c1.709,0.101,3.367,0.365,4.763,0.805c1.407,0.435,2.562,1.058,3.338,1.775
		c0.451,0.412,0.771,0.851,0.988,1.307l4.293-4.292C-42.84,469.027-43.061,468.77-43.298,468.526"/>
	<path class="st3" d="M-73.24,467.989c0,0,0.1-0.07,0.288-0.204c0.198-0.118,0.499-0.297,0.892-0.474
		c0.787-0.364,1.947-0.802,3.374-1.189c0.713-0.194,1.491-0.392,2.322-0.555c0.83-0.167,1.712-0.312,2.63-0.43
		c1.835-0.238,3.814-0.344,5.801-0.29c0.992,0.035,1.986,0.102,2.96,0.23c0.488,0.063,0.971,0.127,1.445,0.224
		c0.476,0.081,0.942,0.181,1.399,0.296c0.916,0.215,1.785,0.506,2.597,0.808c0.397,0.178,0.791,0.329,1.156,0.512
		c0.362,0.195,0.718,0.361,1.041,0.563c0.32,0.206,0.641,0.372,0.915,0.587c0.274,0.213,0.541,0.399,0.773,0.602
		c0.228,0.207,0.444,0.394,0.633,0.578c0.183,0.19,0.34,0.379,0.485,0.54c0.301,0.313,0.466,0.624,0.604,0.807
		c0.127,0.191,0.195,0.294,0.195,0.294s-0.099-0.074-0.283-0.213c-0.186-0.136-0.433-0.357-0.793-0.579
		c-0.178-0.113-0.366-0.246-0.581-0.374c-0.225-0.117-0.457-0.254-0.707-0.394c-0.515-0.257-1.104-0.52-1.759-0.77
		c-0.657-0.245-1.388-0.453-2.162-0.659c-0.783-0.183-1.609-0.359-2.479-0.49c-0.866-0.142-1.772-0.234-2.694-0.32
		c-0.923-0.077-1.865-0.138-2.812-0.159c-0.944-0.034-1.893-0.037-2.828-0.029c-0.936,0.011-1.856,0.036-2.75,0.073
		c-1.786,0.078-3.459,0.196-4.896,0.32c-0.715,0.077-1.376,0.132-1.957,0.206c-0.583,0.072-1.091,0.139-1.509,0.206
		c-0.417,0.073-0.741,0.131-0.962,0.187C-73.122,467.956-73.24,467.989-73.24,467.989"/>
	<path class="st2" d="M-121.354,485.918c4.697-1.538,15.493-6.232,22.92-10.71c-4.657,1.975-16.681,6.574-25.539,8.125
		c-6.837,1.195,0,0,0,0L-121.354,485.918"/>
	<path class="st2" d="M-45.015,467.072c0,0,3.802,2.859,4.198,5.984s0,0,0,0l2.58,0.984
		C-38.236,474.041-39.76,468.625-45.015,467.072"/>
</g>
</svg>
