<?xml version="1.0" encoding="utf-8"?>
<!-- Generator: Adobe Illustrator 21.0.0, SVG Export Plug-In . SVG Version: 6.00 Build 0)  -->
<svg version="1.1" id="Layer_1" xmlns="http://www.w3.org/2000/svg" xmlns:xlink="http://www.w3.org/1999/xlink" x="0px" y="0px"
	 viewBox="0 0 532.1 299.6" style="enable-background:new 0 0 532.1 299.6;" xml:space="preserve">
<style type="text/css">
	.st0{fill:#FFFFFF;}
	.st1{fill:#40BBCD;}
	.st2{fill:#130914;}
</style>
<path class="st0" d="M160.1,118.5c4.9,0,11.9-5.4,13.7-10.9c4.9-2.8,7.2-8.4,7.2-11.4c0-3,6.3-6,11.9-6.1l-2.1-8.4l4.6-3
	c0,0,21.2,5.4,40.9-20.5c0,0,14,6.7,17,11.2c-0.7,5.4-8.4,38.8-30.2,58.8c-18.7,14.1-41.6,19.3-65.5,76
	c-21.5,31.1-42.7,70.7-53.8,95.4h94.1c0.5-1.1,0.8-1.7,0.8-1.7s0.5,0.6,1.4,1.7h64.2c4.4-2.8,19-10.9,41.3-10.9
	c26.9,0,65.1,18.2,65.1-33.4c-30.8-62.7-106.9-75.6-106.9-75.6s-1.4-10,9.1-10.7c10.5-0.7,50-2.2,59.6-18.8c0,0,17.1,55,51.1,79
	c0,0,92.2-36.9,110.9-64.8c12.4-0.3,26.3-5.5,30.9-16.9c-0.1-1.7-0.8-5.3-0.8-5.3s4.2-3.6,4.2-9.7c0-4-2.2-5.5-2.2-5.5l5.4-6.8
	l-6.8-6.6c0,0,5.1-8.3,5.1-17.9c0-9.6-10-15-10.9-15.4c0,0-12.2,9.7-32.5,8.6c0,0-20,4.6-22.7,8.6l0.3,35.6c0,0-9,11.5-18.4,19.4
	c0,0-29.8-3.8-38.6,4.5c0,0-5-21.1-13.7-25.4c0,0-8-32.8-17.8-39.2l3.3-1.7c0,0,14.6,10.1,33.5,7.1l3-29.5c0,0,8.7-4.9,8.7-10.5
	s-7.1-17-7.1-17l6.2-7.8l-9.2-23.2c0,0-13-9.5-31.7-9.5c-29,0-29.6,35.8-38.3,35.8c0,0-10.5-28.1-46.9-17c0,0-27.7-15.5-44.1,0.9
	c0,0-16.7,3.5-28.4,1.2c0,0-49.7,30.9-54.8,46.2c0,0-3.7-5.8-8.4-5.8s-14.1,33.4-14.1,40.9s0.4,8.8,1.8,10.2
	C150.8,113.8,155.2,118.5,160.1,118.5z M263.4,255.6c0,0-5,1.3-7.8,3.9c-2.8,2.5-14.3,13-22,13c-7.7,0-1.5-1.9-18.3-1.9
	c0,0,13-26.6,13.2-28.6C228.4,241.9,258.6,254.9,263.4,255.6z"/>
<path class="st1" d="M173.8,105c4.7-1.6,3.7-6,5.4-10c1.8-4,10.5-6,10.5-6l-1.6-8.4l7.4-5.8c21.1,4.4,39.9-20,39.9-20
	c18.8,5.4,23.2,12.1,23.2,12.1c-9.1,36.2-23.9,54.6-32.8,63.2s-25.5,15.3-44.6,38.1c-10.4,13-16.3,28.4-21.1,37.8
	c-16.7,24.9-38.9,68.1-51.6,93.6h81.7c21.7-32,34.5-67.6,34.5-67.6c30.8,8.6,51.6,25.7,51.6,25.7s-7.2-0.9-14.4,6.7
	c-17.4,20.5-30.4,16.6-42.8,17s-16.1,8.4-16.1,8.4c1.2,2.8,3.5,6.2,6.5,9.7h41.1c12.8-16.1,58.1-18.6,74.1-16.9s44.2-7.4,37-22.3
	c-30.6-58.7-104.7-76.6-104.7-76.6s2.9-19.8,13.3-20.3c50.6-0.7,66.4-27.8,66.4-27.8c15.2,52.8,47.5,83.1,47.5,83.1
	c34.2-14.6,77.6-33.1,108.1-62.9c20.7,1.4,26.1-12.2,26.1-12.2l-0.1-1.8c6.3-7.2-0.9-15.1-0.9-15.1l3.6-5.7l-3.3-5.7
	c0,0,5.4-7.9,5.4-15.3s-7.6-11.6-7.6-11.6c-18.3,12.5-30.4,7.9-30.4,7.9l-15.4,7.6c-0.9,6.8,1.2,19.6,1.2,32
	c-6.7,14.1-19.2,17.5-26.3,24.6c-15-2.6-30.2,1.2-42.9,8.4c-0.1-21.1-11.3-27.5-16.5-34.6c1.7-25.9-23.4-48.6-23.4-48.6
	c8.2-1.6,12.6-6.1,12.6-6.1s18.4,9,25.8,11.2c7.4,2.2,7.9-2.2,7.9-2.2l2.9-24.5c0,0,6.1-2.9,6.1-5.8c0-5.4-4.5-16.9-4.5-16.9
	l5.5-7.5L409.7,14c0,0-11.9-10-25.3-10c-21.7,0-30.2,22.9-32.8,30.8s-9.2,6.2-14.1,6.7c-8.3-21.5-28.7-20.8-42.9-18.6
	c-2.6-2-10.7-5-19.9-5s-27.7,10-48.9,7.6c-2.1,0.8-37.3,28.4-43.2,34c-5.9,5.5-12.1,13.7-12.1,13.7s-6.8-9.5-10.5-5
	c-5.3,8.3-10.7,29-9.4,41C166,121.8,169.4,109.4,173.8,105z"/>
<path class="st2" d="M298.7,101.7c0,0,0.2-27.4,4.6-30s30.9-6.7,30.9-6.7s-29.9,1.9-32,2.5S298.3,78.7,298.7,101.7z"/>
<polygon class="st2" points="289.2,49 288.1,65 311,55 284.1,69 "/>
<path class="st2" d="M296,199.1c0,0,49.5,33.2,62.9,58.8c4.7,9.5-6.7,24.6-41.3,21.9c-34.6-2.6-58,9-67,19.7
	c0,0,14.5-17.3,63.8-17.3c6.7,0,10.2,0.7,14.9,0.7c4.7,0,28.5-0.2,33.4-15.9C367.7,251.4,323.3,210.8,296,199.1z"/>
<path class="st2" d="M150.7,109.2c0.7-10.9,6.6-35.5,10.5-38.4c3.9-2.9,7.7,3.3,8.8,6c0,0,24.6-28.1,56.2-48.3c0,0,20-0.5,29.7-4
	c0,0,10.8-3.6,16.8-3.6c6,0,13.7,1.4,20.8,6.5c12.8-2.4,21.5-4.7,29,5.7c2.4,3.2,8.2,7.3,15.2,8.5c0,0-6.6-26.6-42.9-18.6
	c0,0-5.4-5-19.9-5s-25.5,8-49.4,7.1c0,0-44.9,32.1-54.7,47.2c0,0-3.8-5.9-8.5-5.9C157.4,66.4,147.1,100.7,150.7,109.2z"/>
<path class="st2" d="M327.6,33.7c0,0-20.5-3.8-34.6,8.9c0,0,20.1-11.9,44.6-1.1l-7.2-7L327.6,33.7z"/>
<path class="st2" d="M292.4,24.4c0,0-11.9,4.7-22.2,14.6c0,0,18.3-10.6,28.4-12.6s-1.8-1.6-1.8-1.6L292.4,24.4z"/>
<path class="st2" d="M260.7,22.9c0,0-7.8,3.2-10.6,7.5c0,0,11.7-9.2,22.6-9.6l-3.8-1L260.7,22.9z"/>
<path class="st2" d="M365,11.8c4.8-5.2,20.3-16.5,44.7,2.2l8.3,20.1l-1.8,2.4l-8-21C408.3,15.5,386.8-3.3,365,11.8z"/>
<path class="st2" d="M416.3,36.5l-19.7-6.1l-6.1,9.3c0,0,5.4-2.8,6.8-2.5c1.4,0.3,12.2,3.2,12.2,3.2s5.4,13.6,5.5,16.1
	c-2.6,2.6-5.5,5.8-11.7,3.2c0,0,0.2,2.9,5.2,4.7l-0.4,2.6c0,0-10.4,2.8-13.4,3.7l12.8-1.6L405,88.4c0,0-12.9-2.6-30.4-11.2
	c0,0-4.7-20.8-2.8-30.2c0,0-5.8,13.3-0.5,31.3c0,0-7.9,5.7-16,5c0,0,20.8,19.8,20.8,37.8c0,16.1-11.1,14.5-11.1,14.5
	s-14.6-1.3-27.5-28.2c0,0,10.8,31.7,27.5,31.7c8.1,0,11.9-3.3,11.9-3.3s22.5,9.4,22,40c0,0,20.3-17.9,44.8-11.5
	c0,0,24.6-12.9,31.3-25.4c0,0-1.3-29.8-1.4-31.5c-0.1-1.7,6.6-7.6,12-7.6s20.5-0.7,29.8-7.9c0,0,11.1,4.1,0.8,23.4l3,5.8l-3,6.3
	c0,0,2.8,2.5,2.9,7c0.1,4.5-0.8,5.4-1.8,6.5l-0.2,5.3c0,0,1.2-1.5,1.5-2.7l-0.1-1.8c0,0,2.6-1.7,2.6-6.8s-3.2-8-3.5-8.3l3.6-5.7
	l-3.3-5.7c0,0,5.4-7.5,5.4-15.3s-7.6-11.6-7.6-11.6s-15.5,11.2-30.4,7.9l-15.4,7.6c0,0-0.3,3.3-0.2,6.6s1.4,25.4,1.4,25.4
	c-4,7-24.6,22.7-26.3,24.6c0,0-20.3-5.5-42.9,8.4c0,0,3.2-18.1-16.5-34.6c1.2-6.4-0.4-27.3-23.4-48.6c0,0,8.4-1.4,12.6-6.1
	c0,0,21.6,12.2,34.2,13.2l2.4-28.7c0,0,5.8-2,6.1-5.8c0.3-3.8-4.5-16.9-4.5-16.9L416.3,36.5z"/>
<path class="st2" d="M397.2,44.5c0,0,1.6-0.9,4-0.5c2.4,0.4,4.1,1.3,4.1,1.3s-0.5,1-4.9,0.4C398.1,45.3,397.2,44.5,397.2,44.5z"/>
<path class="st2" d="M393.3,43.9l2-2.3c0.9-0.1,11.6,0,11.6,0l-0.7,1.4c0,0-7.2-0.5-10.2-0.5c-0.7,0.7-2.2,2.4-2.2,2.4L393.3,43.9z"
	/>
<path class="st2" d="M336.8,135.8c0,0,23.5,53.9,47.9,78.6c0,0,58.5-14,107.7-58.5c0,0-30.9,34.2-108.1,62.9
	C384.3,218.9,350,187.6,336.8,135.8z"/>
<path class="st2" d="M187.8,89.6l-2.1-8.5l9.8-7.9c0,0,18.3,2.6,38.8-19.9c0,0,13.2,1.2,28.6,9.1c0,0,9.7-9.6,19.3-13.8
	c0,0-19.9,22.7-24.1,34.2c-4.2,11.6-8.4,24.7-18.3,30c0,0,14.2-25.1,18.9-45.8c0,0-10.3-9.1-23.2-12.1c0,0-17.3,24.7-39.9,20
	l-7.4,5.8l1.6,8.4L187.8,89.6z"/>
<path class="st2" d="M234.7,54.3c-1.7-0.2-3.3-0.7-4.8-1.5c-1.5-0.7-2.8-1.7-4-2.8c-0.6-0.6-1.2-1.1-1.7-1.8c-0.2-0.3-0.5-0.6-0.8-1
	l-0.7-1c-0.2-0.3-0.4-0.7-0.6-1l-0.6-1.1c-0.3-0.7-0.6-1.5-1-2.2c0.4,0.7,0.7,1.5,1.1,2.2l0.6,1c0.2,0.3,0.4,0.7,0.7,1l0.7,1
	c0.2,0.3,0.5,0.6,0.8,0.9c0.5,0.6,1.1,1.1,1.7,1.7c1.2,1,2.6,1.9,4,2.5c0.7,0.3,1.5,0.6,2.2,0.8c0.7,0.2,1.5,0.3,2.3,0.4L234.7,54.3
	z"/>
<path class="st2" d="M160.1,206c-21.2,31.4-41,70.3-52.2,93.6h5.6c17.1-36.9,50.4-95,50.4-95c11.1-39,48.3-64.3,48.3-64.3
	C173.9,161.8,160.1,206,160.1,206z"/>
<path class="st2" d="M313.6,115.4c0,0,14.6,14.9,16.3,19c1.8,4-16.2,23.9-59.7,23.5c-5.1,0-11.6,8.3-13,18.1s-35.1,45.7-35.1,45.7
	s-10.1,37.9-36.9,78h5.6c10.7-15.9,22.5-37.8,33.9-67.6c5.1-1.7,26.3-29.4,32.4-48.2c6.1-18.8,9.2-19.1,12.1-19.4
	c2.9-0.3,50.2-0.4,67.6-28.7L313.6,115.4z"/>
<path class="st2" d="M212,299.6c-2.7-3.6-4.7-6.9-5.3-9.3c0,0,5.6-8.7,17.1-7c11.5,1.7,18.8,2.5,30.1-8.2
	c11.3-10.7,10.3-18.3,43.6-16.1c0,0-48.3-23.5-72.9-27c0,0,23.8,6.8,51.6,25.7c0,0-6.3-0.9-11.1,3.8c-4.8,4.7-16.6,20-38.1,20
	c-11.4-0.7-23.9,1.1-24.1,8.4c0,0,1.4,4,5.7,9.7H212z"/>
</svg>
