<?xml version="1.0" encoding="utf-8"?>
<!-- Generator: Adobe Illustrator 19.0.0, SVG Export Plug-In . SVG Version: 6.00 Build 0)  -->
<svg version="1.1" id="Layer_1" xmlns="http://www.w3.org/2000/svg" xmlns:xlink="http://www.w3.org/1999/xlink" x="0px" y="0px"
	 viewBox="-101.1 359.8 290 124.9" style="enable-background:new -101.1 359.8 290 124.9;" xml:space="preserve">
<style type="text/css">
	.st0{fill:#AE1518;}
	.st1{fill:#1C5696;}
</style>
<g id="_x23_dde3eaff">
</g>
<g id="_x23_ae1518ff">
	<path class="st0" d="M-83,360c32.7-0.5,65.4,0,98-0.2c2.7,0,5.5,0,8.2,0.2c-2.8,7.9-7,15.2-10.2,22.9c-0.9,1.8-1.5,4.5-4,4.2
		c-28.3,0.2-56.7,0-85,0.1c-4.3,0-8.6,0.3-12.8-0.3C-87.4,377.8-84.6,369-83,360z"/>
	<path class="st0" d="M-93.8,405.9c1.9-0.4,3.9-0.4,5.8-0.4c22,0.2,44-0.2,65.9,0.2c6,5.7,11.8,11.7,17.7,17.6
		c2.1,1.5,0.5,4.1-0.1,6.1c-0.6,1.2-0.8,3.6-2.7,3.3c-30.9,0.1-61.7,0-92.6,0.1C-97.7,423.8-95.4,414.9-93.8,405.9z"/>
	<path class="st0" d="M-101.1,456c31.3-0.3,62.6-0.1,93.9-0.1c-3.8,9.5-7.1,19.2-11.1,28.6c-21.9-0.1-43.7,0-65.6-0.1
		c-1.9,0.2-2.5-2-3.4-3.3C-91.6,472.7-97.1,464.7-101.1,456z"/>
	<path class="st0" d="M27.3,458.2c1.3-0.6,2.8-2.4,4.2-1c10.9,8.2,21.6,16.5,32.5,24.7c1.1,0.8,2,1.8,2.9,2.7
		c-18.6-0.3-37.3,0-55.9-0.1c-8.3,0.1-16.7-0.2-25,0.2C-0.3,475.7,13.6,467.1,27.3,458.2z"/>
</g>
<g id="_x23_1c5696ff">
	<path class="st1" d="M41.1,359.9c20.7-0.1,41.3-0.2,62,0.1c-2.1,9.6-4.1,19.1-6.4,28.7c-15.5-0.1-30.9,0.1-46.4-0.1
		C47.7,378.9,44,369.5,41.1,359.9z"/>
	<path class="st1" d="M146,359.8c14.3,0.3,28.7-0.2,43,0.3c-2.3,9.8-4.1,19.7-6.2,29.5c-3.6-0.1-7.2,0-10.8,0
		c-5.4,24-10,48.2-15,72.3c-0.6,2.5-0.8,5.4-2.5,7.5c-4,5-8.2,9.9-12,15.1c-23.7,0.1-47.4,0-71.2,0.1c-3.6-14.6-6.3-29.4-9.7-44.1
		c-0.4-2.7-1.5-5.4-1.2-8.2c10.6-12.8,21.6-25.2,32.2-37.8c1.1-1.3,2.1-2.5,3.4-3.6c-4.3,21.7-9.8,43.2-14.1,64.9
		c14.7,0.2,29.4,0.2,44,0c6.1-28.7,11.9-57.4,17.8-86.1C144.4,366.4,144.9,363,146,359.8z"/>
</g>
</svg>
