<?xml version="1.0" encoding="utf-8"?>
<!-- Generator: Adobe Illustrator 19.0.0, SVG Export Plug-In . SVG Version: 6.00 Build 0)  -->
<svg version="1.1" id="Layer_1" xmlns="http://www.w3.org/2000/svg" xmlns:xlink="http://www.w3.org/1999/xlink" x="0px" y="0px"
	 viewBox="-69.4 286.6 332.05 260.02" style="enable-background:new -69.4 286.6 332.05 260.02;" xml:space="preserve">
<style type="text/css">
	.st0{fill:#A0A0A0;}
	.st1{fill:url(#SVGID_1_);}
	.st2{fill:url(#SVGID_2_);}
	.st3{fill:url(#SVGID_3_);}
</style>
<g id="_x23_a0a0a0ff">
	<path class="st0" d="M-69.4,382.13c26.14-31.71,51.72-63.9,77.95-95.53c58.81,0.15,117.62,0.01,176.43,0.07
		c25.83,31.92,51.79,63.74,77.67,95.62c-6.95,6.84-13.82,13.77-20.7,20.68c-15.06,13.86-28.84,29.07-43.84,43
		c-10.33,10.35-20.69,20.66-30.99,31.03c-16.1,14.88-30.86,31.14-46.92,46.05c-7.83,7.88-15.7,15.72-23.55,23.57
		c-6.74-6.74-13.34-13.64-20.43-20.02c-13.88-13.78-27.45-27.88-41.68-41.3c-12.56-12.43-24.77-25.23-37.71-37.27
		c-12.38-12.3-24.48-24.88-37.2-36.84C-50.03,401.49-59.73,391.82-69.4,382.13 M-13.51,332.32c-13.21,16.54-26.94,32.68-39.87,49.43
		c1.42,1.07,2.81,2.17,4.06,3.44c11.29,11.4,22.7,22.7,34.01,34.1c15.2,14.04,29.09,29.45,44.33,43.45
		c12.72,12.64,25.16,25.57,38.23,37.84c9.7,9.78,19.48,19.49,29.2,29.25c16.39-15.41,31.71-31.93,48.14-47.29
		c22.51-22.85,45.69-45.02,68.19-67.87c11.64-10.74,22.52-22.26,33.81-33.35c-22.37-27.49-44.78-54.94-67.03-82.52
		c-55.26-0.03-110.52,0.04-165.78-0.04C4.62,309.9-4.37,321.17-13.51,332.32z"/>
</g>
<g id="_x23_e60043ff">
	<linearGradient id="SVGID_1_" gradientUnits="userSpaceOnUse" x1="31.4304" y1="309.69" x2="31.4304" y2="424.03">
		<stop  offset="0" style="stop-color:#E60057"/>
		<stop  offset="1" style="stop-color:#E60B40"/>
	</linearGradient>
	<path class="st1" d="M-34.85,381.91c19.53-24.08,39.11-48.13,58.63-72.22c24.5,0.06,49.431-0.04,73.931,0.05
		C67.931,347.93,37.63,386.05,7.58,424.03C-6.77,410.21-20.76,396-34.85,381.91z"/>
	<linearGradient id="SVGID_2_" gradientUnits="userSpaceOnUse" x1="162.9297" y1="309.702" x2="162.9297" y2="424.05">
		<stop  offset="0" style="stop-color:#E60057"/>
		<stop  offset="1" style="stop-color:#E40138"/>
	</linearGradient>
	<path class="st2" d="M97.69,309.71c23.95,0.01,47.89-0.04,71.83,0.03c19.48,24.12,39.06,48.16,58.65,72.19
		c-7.83,7.88-29.482,29.224-42.684,42.12c-28.11-0.07-59.685,0-87.795-0.03C97.681,385.92,97.72,347.81,97.69,309.71z"/>
	<linearGradient id="SVGID_3_" gradientUnits="userSpaceOnUse" x1="52.6804" y1="424.0122" x2="52.6804" y2="512.26">
		<stop  offset="0" style="stop-color:#E70036"/>
		<stop  offset="1" style="stop-color:#E60314"/>
	</linearGradient>
	<path class="st3" d="M7.65,424.05c29.91-0.13,60.15,0.13,90.06-0.03c-0.02,3.274-0.263,68.245,0.001,88.24
		C90.817,505.703,16.7,433.04,7.65,424.05z"/>
</g>
</svg>
