<?xml version="1.0" encoding="utf-8"?>
<!-- Generator: Adobe Illustrator 21.0.0, SVG Export Plug-In . SVG Version: 6.00 Build 0)  -->
<svg version="1.1" id="Layer_1" xmlns="http://www.w3.org/2000/svg" xmlns:xlink="http://www.w3.org/1999/xlink" x="0px" y="0px"
	 viewBox="0 0 654.9 306.9" style="enable-background:new 0 0 654.9 306.9;" xml:space="preserve">
<style type="text/css">
	.st0{fill:#B7B7B7;stroke:#B7B7B7;stroke-width:9.375000e-02;}
</style>
<path class="st0" d="M307.4,0.1c2.3,0.5,2.6,3,3.4,4.8c3.1,9.2,5.2,18.7,7.2,28.2c3.1,15,2.5,30.4,2,45.5c0.5,0.1,1.6,0.4,2.1,0.5
	c0.1,7.1,0,14.3,0,21.4c-9.3,0-18.6-0.1-27.9,0c-0.1-7.1,0-14.1-0.1-21.2c0.6-0.2,1.7-0.5,2.3-0.6c-0.8-5.9-0.3-11.8-0.4-17.7
	c-0.3-12.1,1-24.3,4-36C302.2,16.6,303.8,8,307.4,0.1z"/>
<path class="st0" d="M0.1,16.4c14.5,0,28.9,0,43.4,0c0,25.5,0,51.1,0,76.6c1.5-7.7,8.3-14.3,16.3-14.3c63.3-0.1,126.7,0,190,0
	c8.8-0.4,16.8,7.6,16.8,16.3c0,45-0.1,90-0.1,135.1c0.3,7.8-6,14.8-13.5,16.3c-65.1,0.3-130.1,0.1-195.2,0.1
	c-4.4-1-8.6-3.3-11.2-7.1c-1.8-2.5-2.4-5.5-3.1-8.5c-0.2,5.2-0.1,10.4-0.1,15.6c-14.4-0.1-28.7-0.1-43.1,0
	C0.3,169.8,0,93.1,0.1,16.4 M43.4,138c0,22.2,0,44.4-0.1,66.6c60-0.1,120-0.1,180,0c-0.1-28,0.1-56-0.2-83.9
	c-54.1,0-108.2,0-162.3,0C51.6,120.2,43,128.7,43.4,138z"/>
<path class="st0" d="M58.5,15.6c76.9,0,153.8,0.1,230.7-0.1c-3.3,13.5-5.9,27.3-5.9,41.3c-56.8,0-113.7,0-170.6,0
	c-18.1-0.1-36.2,0.3-54.3-0.2C58.6,43,58.5,29.3,58.5,15.6z"/>
<path class="st0" d="M326.9,15.7c109.3-0.3,218.6-0.1,327.9-0.1c0,13.7,0,27.5,0,41.2c-107.3,0-214.5,0-321.8,0
	C332.8,42.9,330.4,29.1,326.9,15.7z"/>
<path class="st0" d="M350.1,119.7c-0.1-14-0.2-28,0-42.1c20.9,0.3,41.8,0,62.7,0.1c8,0.2,15.1,7.2,15.6,15.2
	c0.9-8.2,8.2-15.1,16.5-15.2c27-0.1,54,0,81-0.1c5.8-0.2,11.7,2.9,14.8,7.8c0.4,0.6,1.4,2.1,1.8,0.5c3-5,8.6-8.3,14.4-8.2
	c27-0.1,54,0,80.9,0c8.7-0.3,17.1,7.4,17,16.2c0,50.5-0.2,101.1-0.2,151.6c-14.4-0.1-28.7,0-43.1-0.1c0-41.9,0.1-83.9-0.2-125.8
	c-17.2,0.1-34.4,0-51.6,0.1c-8.7-0.2-17,7.6-16.6,16.4c-0.1,36.4-0.1,72.8,0,109.3c-14.4,0.3-28.7,0-43,0.2
	c0-40.9-0.2-81.7-0.2-122.6c-0.1-1.1-0.3-2.2-0.6-3.3c-17.5,0.4-35.1,0-52.6,0.2c-8.4,0.4-15.4,8.1-15.3,16.4
	c-0.1,36.4-0.1,72.9-0.1,109.3c-14.3,0-28.7,0-43,0c0-41.9,0-83.9-0.1-125.8C375.5,119.7,362.8,119.7,350.1,119.7z"/>
<path class="st0" d="M290.5,112c1.1-3.5,2.4-7,3.3-10.5c9.4-0.3,18.9,0,28.3-0.2c1.4,4.9,4.3,9.5,4.4,14.7c-0.2,39-0.1,78-0.2,117
	c0.1,1.7-0.6,3.2-1.2,4.7c-11.6-0.2-23.2,0.4-34.8-0.3c-1.1-15.5-0.7-31-0.8-46.4c0-20,0-40,0-60C289.6,124.7,288.5,118.1,290.5,112
	z"/>
<path class="st0" d="M291.1,238.2c11.3,0.1,22.7,0,34.1,0.1c0,2-0.1,4.1-0.1,6.1c0.6,0,1.9-0.1,2.5-0.1c-0.1,1.7-0.2,3.4-0.2,5.1
	c-11.5-0.1-23-0.1-34.6-0.1c-1.5,0-3-0.3-4.4-0.6c0-1.4,0.1-2.8,0.1-4.2c1-0.3,1.9-0.6,2.9-0.9C291.3,241.8,291.2,240,291.1,238.2z"
	/>
<path class="st0" d="M0.1,266.2c218.2,0.2,436.4,0.1,654.6,0c-0.2,13.5-0.2,27.1,0,40.6c-218.2-0.1-436.4,0-654.6,0
	C0.1,293.2,0,279.7,0.1,266.2 M69.4,278.7c-6.1,2.6-6.1,13.3,0.2,15.6c4.3,0.7,9.9,1.1,12.6-3.1c1.1-3.1,1.1-6.4,0-9.5
	C79.5,277.5,73.8,278,69.4,278.7 M368.4,278.7c-1.8,0.8-2.8,2.6-4.1,4c0,2.5,0,5,0,7.5c1.2,1.6,2.6,3,4.2,4.2
	c3.9,0.1,8.7,1.2,11.7-1.9c2.5-2.2,1.9-5.7,2-8.6c-0.9-2.2-2.3-4.1-4.3-5.4C374.8,278.4,371.5,278,368.4,278.7 M542.3,278.5
	c0,5.3-0.1,10.7,0,16c5-0.1,10,0,15,0c0-1.1,0-2.1,0.1-3.1c-3.4-0.1-6.8-0.2-10.2,0c-1.5-4.2,0.6-8.7-0.8-12.9
	C545,278.4,543.7,278.5,542.3,278.5 M618.8,281.2c-1.7,4.3-2.6,8.8-3.7,13.3c1.1,0,3.2,0.1,4.3,0.1c0.4-1.3,0.7-2.6,1.1-3.9
	c2.5,0,5.1,0,7.6,0c0,1.3,0,2.6,0.1,3.9c1,0,3.1,0,4.2,0c0.1-5.4,0-10.7,0.1-16.1C627.9,279,621.9,276.7,618.8,281.2 M22.2,294.5
	c4.5-0.2,9,0.4,13.5-0.4c3.4-1.2,3.7-5.8,1.4-8.1c0.5-1.4,1.4-2.7,1.1-4.2c-0.8-1.2-2-2.2-3-3.3c-4.3,0-8.6,0-13-0.1
	C22.1,283.8,22.1,289.2,22.2,294.5 M110.3,294.5c1,0,3.1,0,4.2,0c0-2,0-3.9,0-5.8c0.9,0,2.8,0,3.7-0.1c1.7,1.8,2.7,4.1,4.5,5.8
	c1.6,0.1,3.2,0.1,4.8,0c-1.4-2.3-2.8-4.7-4.8-6.6c2.6-1,4.2-3.2,3.8-6.1c-1.1-1.1-2.2-2.2-3.3-3.3c-4.3,0-8.5,0-12.8,0
	C110.2,283.8,110.2,289.2,110.3,294.5 M153.4,278.6c0,5.3,0.1,10.6,0,15.9c1.6,0,3.1,0,4.7,0c0-3.4,0-6.8,0-10.2
	c2,3.5,4.1,7,6.4,10.3c1.9,0,3.8,0,5.8-0.1c-0.1-5.3-0.1-10.6,0-16c-1,0-3,0-4-0.1c-0.1,3.6,0,7.2-0.1,10.9
	c-2.5-3.6-4.9-7.2-7.3-10.8C157.1,278.5,155.2,278.5,153.4,278.6 M219.1,278.4c-0.1,5.4-0.1,10.7,0,16.1c1,0,3.1,0,4.1,0
	c0-5.3,0.1-10.7,0-16C222.2,278.5,220.1,278.5,219.1,278.4 M251.3,278.5c0,5.3,0,10.6,0,16c1.4,0,2.7,0.1,4.1,0.2
	c1.1-3.3,0.5-6.8,0.7-10.2c1.8,3.4,4.1,6.5,5.8,9.9c2,0.1,4.1,0.3,6.1-0.1c0.2-5.2,0-10.5,0.1-15.7c-1,0-3-0.1-4-0.1
	c-0.2,3.5-0.1,7,0,10.5c-0.3-0.2-1-0.5-1.3-0.7c-1.6-3.5-4.2-6.4-6-9.7C255,278.5,253.1,278.5,251.3,278.5 M316.5,278.5
	c-0.1,5.3,0,10.6-0.1,16c1.6,0,3.2,0,4.8,0c-0.1-3.8-0.1-7.7,0.1-11.5c0.9,3.9,2.6,7.6,3.5,11.5c1.4,0,2.7,0,4.1,0
	c1.2-3.9,2.7-7.8,4-11.7c0.1,3.9,0,7.8,0.1,11.7c1.1,0,3.2,0,4.3,0c0-5.3,0-10.7,0-16c-2.3,0-4.6,0-6.8-0.1
	c-1.3,3.3-2.3,6.6-3.5,9.9c-1.4-3.3-2.4-6.7-3.8-10C321,278.4,318.7,278.5,316.5,278.5 M409.4,278.5c0,5.3,0.1,10.6-0.1,15.9
	c1.1,0,3.2,0.1,4.2,0.1c0-3.5,0-7,0.1-10.5c2.2,3.5,4.4,7.1,6.8,10.5c1.9-0.1,3.8-0.1,5.8-0.1c-0.2-5.3-0.1-10.6-0.1-15.9
	c-1,0-3-0.1-4-0.1c-0.1,3.8,0,7.5,0,11.3c-2.3-3.8-5-7.4-7.3-11.1C413,278.5,411.2,278.5,409.4,278.5 M454.5,280.9
	c-1.4,2.9-1.3,6.1-1.1,9.3c1.1,1.7,2.5,3.1,4.1,4.3c4.3-0.1,9.2,1.1,12.6-2.3c0.4-1.8,1-3.5,1-5.4c-1.9-2.2-5.4-0.7-7.9-1.2
	c0,1.1,0,2.2,0,3.3c0.8,0,2.4-0.1,3.1-0.1c0,0.4,0,1.3-0.1,1.8c-2.6,1-5.5,1.3-8,0c-0.9-2.6-0.5-5.3,0-7.9c2.1-1,4.4-1,6.7-1
	c0.4,0.5,1.2,1.5,1.7,2c1,0,3,0.1,4,0.1c0.1-2.4-1.4-4.5-3.8-5C462.7,278.2,457.8,277.7,454.5,280.9 M498.5,280.8
	c-1.8,2.8-1.2,6.2-1.2,9.4c1.2,1.6,2.6,3,4.2,4.3c3.1,0.2,6.3,0.3,9.4-0.1c3.9-2,4.6-6.6,4.3-10.6c-0.9-2.2-2.3-4-4.3-5.3
	c-3.2-0.3-6.3-0.4-9.5,0C500.5,279.3,499.5,280.1,498.5,280.8 M584.2,278.5c-0.1,5.4,0,10.7,0,16c1.1,0,3.2,0,4.2,0
	c0.1-5.3,0.1-10.7,0-16C587.4,278.4,585.3,278.5,584.2,278.5z"/>
<path class="st0" d="M26.4,281.6c2.3,0,4.6,0,6.9,0c0,0.9,0.1,1.9,0.1,2.8c-2.4,0.1-4.7,0.1-7.1,0.1
	C26.4,283.6,26.4,282.6,26.4,281.6z"/>
<path class="st0" d="M71.7,281.7c1.6-0.3,3.3-0.2,4.9-0.2c2.2,2.1,2.3,5.3,1.6,8.1c-1.8,3-7.3,2.8-8.5-0.7
	C68.8,286.4,69.3,283.2,71.7,281.7z"/>
<path class="st0" d="M114.5,281.7c2.3,0,4.5,0.1,6.8,0.1c-0.1,1.1,0.7,2.5-0.2,3.4c-2.2,0.4-4.4,0.3-6.7,0.3
	C114.4,284.2,114.4,282.9,114.5,281.7z"/>
<path class="st0" d="M369.4,282.6c1.8-1.2,3.9-1.3,6-1.2c0.7,0.7,1.3,1.4,2,2c0.1,2.8,0.7,6.3-2.1,8.1c-2.1-0.1-4.2-0.1-6-1.3
	C368.5,287.8,368.5,285.1,369.4,282.6z"/>
<path class="st0" d="M502.3,282.6c1.8-1.1,3.9-1.3,6-1.1c0.7,0.7,1.4,1.4,2.1,2c0.1,2.8,0.8,6.2-2,8.1c-2-0.3-4.6,0.6-5.8-1.4
	C500.7,287.9,501.6,285,502.3,282.6z"/>
<path class="st0" d="M623.1,282.5c1.3-0.7,2.7-1,4.2-0.9c1.9,1.2,0.5,3.9,1,5.8c-2.1,0-4.2,0.1-6.3,0.1
	C622.1,285.8,622,283.9,623.1,282.5z"/>
<path class="st0" d="M26.4,287.6c2.6,0,5.2,0.1,7.9,0.1c-0.2,1.1,0.1,2.3-0.4,3.3c-2.4,0.6-5,0.2-7.4,0.3
	C26.4,290.1,26.4,288.9,26.4,287.6z"/>
</svg>
