<?xml version="1.0" encoding="utf-8"?>
<!-- Generator: Adobe Illustrator 19.0.0, SVG Export Plug-In . SVG Version: 6.00 Build 0)  -->
<svg version="1.1" id="Layer_1" xmlns="http://www.w3.org/2000/svg" xmlns:xlink="http://www.w3.org/1999/xlink" x="0px" y="0px"
	 viewBox="-177.5 326.9 233.5 195.9" style="enable-background:new -177.5 326.9 233.5 195.9;" xml:space="preserve">
<style type="text/css">
	.st0{fill:#060606;}
</style>
<g id="_x23_ffffffff">
</g>
<g id="_x23_060606ff">
	<path class="st0" d="M-143.9,333c7.1-3.5,14.9-6.1,22.9-6.1c5.1,0.1,10.2-0.1,15.1,1.6c9.1,2.6,16.9,8.4,23,15.6
		c3.4,5,5.7,10.7,7,16.6c0.8,3.7,1.9,7.5,1.2,11.4c9.4-0.9,19-1.4,28.4,0.4c-1-5.3,0.9-10.3,2.1-15.4c2.4-9.1,8.5-17,16.3-22.2
		c9.6-7.6,22.7-8.8,34.5-7.3c6.5,1.3,12.9,3.6,18.5,7.3c12,5.7,20.9,16.6,26.5,28.4c2.3,5.6,4.3,11.5,4.4,17.6
		c0,5.5,0.5,11.2-1.2,16.5c-2.6,8.4-7.8,16-14.6,21.6c-8,5.3-17.3,9-27,9.2c2.1,12.3,2.6,25.2,0,37.5C9,483-2,498.1-16.1,508.6
		c-22.6,16.8-54.8,18.6-79.7,6c-15.1-8.3-27.5-21.3-34.8-36.9c-6.8-15.6-7.2-33.5-3.9-50c-2.9,0.1-16.2-2.7-19.8-4.6
		c-6-3.3-11.9-7.4-15.4-13.5c-6.8-8.6-8.7-20-7.5-30.6c1.6-12.7,7.6-24.6,16.6-33.6C-156.2,339.9-149.7,336.8-143.9,333
		 M-142.9,344.3c-4.6,3.3-9.7,6-12.9,10.9c-8.1,9.2-12.8,21.7-11.3,34c0.6,9.6,6.8,18.2,14.5,23.5c9.5,5.5,20.9,4.7,31.5,4.6
		c-2.7,12.7-7,25.7-4.8,38.9c1,9.8,4.3,19.4,10.1,27.4c4.7,7.3,11.3,12.9,17.9,18.3c13.8,9.3,31.2,12.7,47.6,10.4
		c9.3-2.3,18.8-4.9,26.6-10.8c4.9-4.1,10.1-7.8,13.9-13c11-12.6,15.7-30,14.2-46.6c-1.4-8.2-2.9-16.4-5.5-24.3
		c10.3,0.1,21.1,0.7,30.6-3.9c8.8-5,15.4-14.4,15.9-24.6c1.3-11.6-2.7-23.7-10.4-32.5c-2.9-4-6.5-7.5-10.8-10
		c-12.4-9.6-30.7-12.8-44.7-4.7c-5.6,3.6-10.9,8.5-13.1,14.9c-3.6,9.4-1.8,19.8-0.6,29.5c-8.3-1.9-16.6-4.1-25.1-4.8
		c-9.7-0.3-19,2.9-28.4,4.8c1.7-10.6,3.5-22-1.4-32c-5.2-9.8-15.9-16.3-27-16.9C-125.3,336.3-134.9,339.1-142.9,344.3z"/>
</g>
</svg>
