<?xml version="1.0" encoding="utf-8"?>
<!-- Generator: Adobe Illustrator 19.0.0, SVG Export Plug-In . SVG Version: 6.00 Build 0)  -->
<svg version="1.1" id="Layer_1" xmlns="http://www.w3.org/2000/svg" xmlns:xlink="http://www.w3.org/1999/xlink" x="0px" y="0px"
	 viewBox="-107.82 288.44 221.63 266.12" style="enable-background:new -107.82 288.44 221.63 266.12;" xml:space="preserve">
<style type="text/css">
	.st0{fill:#CF2028;}
	.st1{fill:#CEAB72;}
	.st2{fill:#FFFFFF;}
	.st3{fill:#030304;}
</style>
<g id="_x23_cf2028ff">
	<path class="st0" d="M-83.64,398.38c32.58-21.45,61.83-47.9,86.52-78.09c25.03,30.49,54.55,57.43,87.76,78.77
		c-2.92,20.91-10.09,41.11-19.79,59.82c-1.2,2.37-2.63,4.62-4.2,6.77c5.46-15.34,8.11-31.75,7.82-48.01
		c-6.69,23.08-19.04,44.77-36.46,61.43c-14.69,0.05-29.34,1.3-44.03,0.86c-8.66-0.7-17.36-0.58-26.04-0.84
		c-17.43-16.63-29.81-38.33-36.46-61.42c-0.34,16.82,2.5,33.8,8.39,49.57c-12.15-19.41-19.93-41.42-24.23-63.86
		C-84.44,401.72-85.72,399.25-83.64,398.38 M1.05,346.79c-0.11,0.41-0.34,1.25-0.45,1.67c-15.3,17.53-32.24,34.15-52.52,45.88
		c2.8,33.79,22.71,66.69,53.4,82.07c2.17,1.17,4.29-0.82,6.2-1.68c25.88-14.6,44.01-41.54,48.75-70.77c0.03-0.89,0.1-2.67,0.13-3.56
		c0.75-1.73,0.89-3.62,1.06-5.46c-12.45,23.3-29.96,45.64-54.7,56.54c-7.11-5.65-13.75-11.95-19.18-19.25
		c-5.78-8.33-10.34-17.55-12.9-27.39c17.97-14.49,29.58-36.27,32.3-59.12C2.62,345.99,1.58,346.52,1.05,346.79 M-8.13,424.23
		c-0.25,0.19-0.76,0.57-1.01,0.76c9.6-2.43,18.06-7.81,26.09-13.41c-0.14-0.68-0.42-2.04-0.55-2.72l-0.03,1.05
		c-2.19-5-4.77-9.82-6.81-14.89C4.83,405.42-1.29,415.09-8.13,424.23z"/>
	<path class="st0" d="M-32.12,521.7c0.45-0.08,1.35-0.25,1.8-0.33c0.41,3.3,0.95,6.59,1.49,9.87c-0.94-0.76-1.91-1.5-2.88-2.23
		c-0.64,1-1.46,1.81-2.45,2.46C-33.64,528.18-32.84,524.95-32.12,521.7z"/>
	<path class="st0" d="M-11.09,521.03c2.22,0.15,2.09,2.73,3.2,4.11c0.69-1.59,0.75-3.91,2.94-4.16c0.06,3.19,0.08,6.38-0.01,9.58
		c-1.05-0.7-2.09-1.42-3.11-2.16c-1.02,0.72-2.04,1.44-3.06,2.17C-11.17,527.39-11.17,524.21-11.09,521.03z"/>
	<path class="st0" d="M12.52,521.2c0.44,0.08,1.34,0.26,1.79,0.34c-0.05,2.87-0.01,5.75,0.09,8.63c-0.48,0.01-1.43,0.03-1.9,0.04
		C12.57,527.21,12.57,524.2,12.52,521.2z"/>
	<path class="st0" d="M31.92,520.81c1.21,1.33,2.19,2.83,3.36,4.21c0.01-0.95,0.04-2.85,0.06-3.79c0.39,0.17,1.16,0.52,1.55,0.69
		c0.38,3.06,0.21,6.15,0.16,9.23c-1.82-0.86-2.48-2.89-3.42-4.52c-0.04,1.07-0.11,3.21-0.15,4.28l-1.49-0.74
		C31.65,527.06,31.85,523.92,31.92,520.81z"/>
	<path class="st0" d="M-56.38,522.43c1.55-0.11,3.09-0.21,4.63-0.29c0.03,0.81,0.09,2.44,0.12,3.26c-1.05-0.64-2.09-1.29-3.12-1.93
		c-0.07,2.52-0.15,5.05-0.2,7.57c2.25-0.77,1.45-2.92,0.61-4.46c0.66,0,1.98,0,2.64,0c-0.06,1.71-0.11,3.43-0.17,5.14
		c-1.71,0.13-3.41,0.28-5.11,0.42C-56.66,528.9-56.49,525.67-56.38,522.43z"/>
	<path class="st0" d="M54.63,521.99c1.51,0.11,3.03,0.23,4.55,0.35c0.06,0.78,0.17,2.35,0.23,3.13c-1.09-0.7-2.18-1.41-3.25-2.13
		c0.68,2.35-1.32,6.66,2.04,7.3c-0.44-1.42-0.88-2.83-1.33-4.23c0.66,0.08,1.97,0.26,2.62,0.34c0,1.73,0,3.45-0.01,5.18
		c-1.55-0.13-3.1-0.26-4.65-0.38C54.57,528.37,54.5,525.18,54.63,521.99z"/>
</g>
<g id="_x23_ceab72ff">
	<path class="st1" d="M-16.98,313.95c7.19-8.15,13.46-17.04,20.24-25.51l-0.1,0.71c-0.55,3.46-0.52,6.98-0.29,10.47
		c-27.69,36.99-62.23,68.93-101.57,93.21c3.1,27.88,12.33,55.04,26.49,79.23c0.8,1.42,1.57,2.85,2.33,4.3
		c-7.96-1.08-15.97-1.7-23.91-2.91c3.04,4.34,6.42,8.42,9.66,12.61c1.66,1.92,0.76,4.65,0.86,6.94
		c-1.05,16.17-1.94,32.35-3.16,48.51c14.71-1.86,29.49-2.99,44.28-4c9.43-0.22,18.85-1.43,28.3-0.94
		c5.82,2.94,10.71,7.58,16.76,10.14c5.8-2.59,10.65-6.87,16.17-9.97c5.27-0.67,10.64-0.08,15.93,0.16
		c18.97,0.95,37.96,2.09,56.79,4.68c-0.88-18.05-2.07-36.08-3.26-54.1c0.3-0.35,0.92-1.05,1.22-1.39
		c-0.94,3.87-0.35,7.88-0.21,11.81c1.22,14.67,1.68,29.39,2.95,44.06c1.98,2.16,3.94,4.34,5.86,6.55
		c-15.81-1.26-31.56-3.52-47.43-4.2c-9.61-0.88-19.27-0.91-28.9-1.35c-6.51,3.5-12.51,8.03-19.03,11.6
		c-5.88-3.21-11.55-6.78-17.08-10.55c-2.25-1.9-5.29-0.77-7.93-0.83c-23.83,0.68-47.6,2.75-71.25,5.68
		c1.26-19.67,2.24-39.35,3.72-59.01c-6.32-8.03-12.47-16.2-18.28-24.61c8.7,0.75,17.32,2.22,26,3.16
		c-13.1-24.33-21.06-51.27-23.97-78.72C-72.51,369.24-42.21,343.81-16.98,313.95z"/>
	<path class="st1" d="M1.05,346.79c0.53-0.27,1.57-0.8,2.09-1.07c-2.72,22.85-14.33,44.63-32.3,59.12
		c-3.74-1.77-7.53-3.44-11.39-4.92c3.98,26.45,20.02,51.06,43.45,64.25c18.21-10.16,33.8-25.1,44.13-43.26
		c3.87-6.5,6.59-13.57,9.53-20.51c-0.03,0.89-0.1,2.67-0.13,3.56c-4.74,29.23-22.87,56.17-48.75,70.77
		c-1.91,0.86-4.03,2.85-6.2,1.68c-30.69-15.38-50.6-48.28-53.4-82.07c3.72,1.72,7.46,3.4,11.14,5.21
		c18.47-13.02,33.45-30.99,42.73-51.62l-1.35,0.53C0.71,348.04,0.94,347.2,1.05,346.79z"/>
	<path class="st1" d="M9.31,407.87c2.36,1.02,4.71,2.07,7.06,3.13c0-0.27,0-0.82,0-1.09l0.03-1.05c0.13,0.68,0.41,2.04,0.55,2.72
		c-8.03,5.6-16.49,10.98-26.09,13.41c0.25-0.19,0.76-0.57,1.01-0.76C-1.81,419.37,4.32,414.13,9.31,407.87z"/>
	<path class="st1" d="M-79.84,481.52c7.41,0.92,14.9,1.1,22.32,1.95c-0.38,3.79-0.69,7.58-0.87,11.38
		c-2.27-0.17-4.55-0.32-6.82-0.58c0.18-1.43,0.36-2.87,0.54-4.3c-1.94-0.19-3.88-0.34-5.82-0.48c-1.04-1.06-2.09-2.12-3.13-3.18
		c-0.51,5.61-0.81,11.24-0.94,16.87c2.96,0.01,5.93,0.05,8.9,0.11c0.01-0.92,0.04-2.77,0.05-3.69l0.54,0.15
		c-0.18,2.28-0.34,4.56-0.48,6.85c-1.94-0.04-3.88-0.07-5.82-0.13c-1.19-0.93-2.37-1.85-3.57-2.76c-0.35,8.61-0.38,17.26-1.33,25.84
		c4.23-0.15,8.46-0.35,12.69-0.58c-1-1.17-1.99-2.33-2.97-3.49c0.18-4.04,0.24-8.09,0.58-12.12c1.15,1.16,2.3,2.33,3.45,3.5
		c-0.24,4.02-0.54,8.03-0.86,12.05c1.15,0.99,2.3,1.99,3.46,2.98l0.36,0.31c-6.68,0.4-13.34,1.16-20.03,1.51
		c0.94-15.98,1.74-31.97,2.82-47.95C-77.47,484.15-78.79,482.9-79.84,481.52 M-78.36,482.27c4.11,5.21,11.17,3.61,16.92,4.2
		c-0.04,1.55-0.09,3.1-0.16,4.66c1.02,1.08,2.03,2.16,3.05,3.24c0.02-3.61,0.24-7.24,0.06-10.85
		C-65.14,483.61-71.72,482.36-78.36,482.27z"/>
	<path class="st1" d="M-55.9,509.93c0.77-8.82,0.19-17.71,1.34-26.5c1.32,1.86,3.76,3.5,3.29,6.1c-0.75,8.76-1.11,17.55-1.31,26.35
		c0.85,0.92,1.69,1.84,2.54,2.76c0.16-3.77,0.4-7.54,0.79-11.29c0.74,3.88,0.29,7.84,0.29,11.76c-2.46,0.14-4.91,0.22-7.36,0.26
		C-56.26,516.22-56.21,513.07-55.9,509.93z"/>
	<path class="st1" d="M-48.44,484.22c0.03,0,0.09,0.02,0.12,0.02C-48.35,484.24-48.41,484.22-48.44,484.22z"/>
	<path class="st1" d="M62.37,514.57c-1.06-10.31-0.93-20.71-1.59-31.05c1.18,1.07,2.37,2.16,3.55,3.24
		c0.24,8.56,0.75,17.1,1.18,25.65c2.54,0.55,5.1,1.01,7.67,1.39c0.3,4.35,0.25,8.73,0.55,13.09c-0.1,2.39,1.82,4.05,3.11,5.83
		c0.09-5.31-0.49-10.6-0.26-15.9c0.8,5.44,0.97,10.94,1.11,16.43c-2.37-0.27-4.74-0.54-7.12-0.74c-0.23-5.12-0.18-10.28-0.88-15.36
		C67.33,516.08,64.76,515.56,62.37,514.57z"/>
	<path class="st1" d="M76.39,483.14c1.01,1.25,3.03,2.05,3.05,3.9c0.6,8.57,1.13,17.15,1.38,25.74c-2.52,0.46-5.06,0.83-7.59,1.17
		c-0.15-1.27-0.3-2.54-0.44-3.8c1.48-0.2,2.97-0.39,4.45-0.58c-0.29-5.22-0.7-10.44-0.79-15.68
		C76.47,490.31,75.45,486.68,76.39,483.14z"/>
	<path class="st1" d="M39.14,484.93c1.09,0.98,2.17,1.96,3.26,2.95c0.11,8.34,0.2,16.69,0.52,25.03c-0.2,2.63,1.89,4.39,3.46,6.16
		c-2.28,0.02-4.55-0.05-6.82-0.28C39.61,507.5,38.89,496.22,39.14,484.93z"/>
	<path class="st1" d="M-41.11,485.22c1.2,1,3.23,1.75,2.82,3.7c-0.03,8.43-0.39,16.86-0.53,25.3c-2.08-4.22-2.49-8.95-3.82-13.4
		C-40.76,495.8-42.42,490.34-41.11,485.22z"/>
	<path class="st1" d="M-31.31,485.47c4.57,4.61,11.6,2.06,17.32,2.84c2.15-0.25,3.39,1.73,4.76,3c-2.51,0.26-5.03,0.25-7.54,0.18
		c-1.12-0.85-2.24-1.69-3.37-2.53c-0.21,8.66-0.24,17.31-0.38,25.97c0.78,1.15,1.57,2.3,2.37,3.46c-2.04,0.08-4.07,0.13-6.1,0.17
		c0.42-9.04,0.58-18.08,0.76-27.13c-2.77-0.09-5.53-0.14-8.29-0.18C-31.69,489.32-31.56,487.39-31.31,485.47z"/>
	<path class="st1" d="M-5.46,485.38c1.1,0.93,2.2,1.86,3.31,2.78c0.15,8.27-0.16,16.53-0.02,24.8c-0.27,2.44,1.9,3.97,3.34,5.58
		c-2.25-0.08-4.49-0.07-6.73-0.06C-5.54,507.45-5.46,496.42-5.46,485.38z"/>
	<path class="st1" d="M17.17,485.84c3.99,4.23,10.25,1.85,15.35,2.29c0.02,8.91,0.36,17.83,0.27,26.74c1.08,1.25,2.17,2.5,3.27,3.74
		c-2.01-0.02-4.01-0.02-6.01-0.03c-4.32-0.06-8.64-0.08-12.96-0.07c-0.33-2.87-0.19-5.76,0-8.63
		C17.28,501.87,16.79,493.85,17.17,485.84 M20.28,488.81c0.19,8.84,0,17.69,0.4,26.52c3.83-0.07,7.66-0.04,11.49-0.01
		c-0.63-0.79-1.87-2.37-2.5-3.16c-0.17-6.97-0.73-13.93-0.79-20.9c-1.83,0.03-3.65,0.06-5.47,0.09
		C22.36,490.5,21.33,489.65,20.28,488.81z"/>
	<path class="st1" d="M42.43,488.27c3.85-1.33,8.01-0.65,12.01-0.99c0.16,4.15,0.4,8.3,0.4,12.45c0.29,1.47-1.18,2.2-2.07,3.02
		c-2.18,1.74-4.47,3.35-6.85,4.82c0.01-0.92,0.01-2.74,0.01-3.65c1.99-1.43,3.91-2.94,5.76-4.55c-0.18-2.93-0.3-5.87-0.4-8.8
		c-1.92,0.06-3.83,0.13-5.73,0.21C44.5,489.95,43.46,489.11,42.43,488.27z"/>
	<path class="st1" d="M-2.06,488.74c4.12-0.4,8.26-0.41,12.39-0.27c-0.01,4.13,0.36,8.27-0.08,12.38c-1.43,2.02-3.8,3.07-5.77,4.48
		c1.92,1.51,3.84,3.02,5.76,4.55c-0.15,3.27,0.39,6.6,3.32,8.52l0.21,0.2c-2.31-0.12-4.63-0.15-6.94-0.18
		c0.14-2.18,0.49-4.36,0.22-6.53c-0.87-0.96-1.92-1.71-2.91-2.51l0.03-0.73c0.04-0.67,0.11-1.99,0.15-2.66
		c-1.06,0.4-2.11,0.81-3.15,1.22c0.01-0.76,0.04-2.27,0.05-3.03c1.83-1.35,3.66-2.68,5.51-3.99c0.06-2.9,0.07-5.8,0.06-8.7
		c-1.86,0.02-3.72,0.05-5.58,0.08C0.39,490.86-1.24,489.45-2.06,488.74z"/>
	<path class="st1" d="M-50.36,491.44c1.08,1.26,2.09,2.62,2.64,4.21c2.53,6.41,5.06,12.85,8.17,19.01c0.8,1.78,2.48,2.84,3.76,4.24
		c-1.65,1.57-4.48-0.86-6.59,0.25c-2.5-5.25-3.69-11.06-6.66-16.09C-49.43,499.18-50.06,495.33-50.36,491.44z"/>
</g>
<g id="_x23_ffffffff">
	<path class="st2" d="M2.87,299.62c-0.23-3.49-0.26-7.01,0.29-10.47c28.96,40.27,65.9,74.78,108.34,100.5
		c-2.95,27.48-10.85,54.51-24.06,78.83c8.8-1.06,17.57-2.3,26.37-3.4c-5.69,7.6-11.09,15.41-17.08,22.79
		c-0.6,0.88-1.54,1.76-1.3,2.95c0.88,19.4,2.78,38.76,3.36,58.18l-0.43-0.49c-1.92-2.21-3.88-4.39-5.86-6.55
		c-1.27-14.67-1.73-29.39-2.95-44.06c-0.14-3.93-0.73-7.94,0.21-11.81c3.51-4.08,6.71-8.41,9.94-12.71
		c-7.99,1.07-15.99,2.29-24.06,2.44c15.66-25.02,25.36-53.64,28.94-82.9C65.21,368.58,30.67,336.59,2.87,299.62z"/>
	<path class="st2" d="M-51.92,394.34c20.28-11.73,37.22-28.35,52.52-45.88l1.35-0.53c-9.28,20.63-24.26,38.6-42.73,51.62
		C-44.46,397.74-48.2,396.06-51.92,394.34z"/>
	<path class="st2" d="M2.92,451.48c24.74-10.9,42.25-33.24,54.7-56.54c-0.17,1.84-0.31,3.73-1.06,5.46
		c-2.94,6.94-5.66,14.01-9.53,20.51c-10.33,18.16-25.92,33.1-44.13,43.26c-23.43-13.19-39.47-37.8-43.45-64.25
		c3.86,1.48,7.65,3.15,11.39,4.92c2.56,9.84,7.12,19.06,12.9,27.39C-10.83,439.53-4.19,445.83,2.92,451.48z"/>
	<path class="st2" d="M-8.13,424.23c6.84-9.14,12.96-18.81,17.69-29.21c2.04,5.07,4.62,9.89,6.81,14.89c0,0.27,0,0.82,0,1.09
		c-2.35-1.06-4.7-2.11-7.06-3.13C4.32,414.13-1.81,419.37-8.13,424.23z"/>
	<path class="st2" d="M75.66,482.55c3.3-0.29,6.63-0.34,9.89-0.98c-0.19,0.23-0.58,0.69-0.77,0.91c-0.73,0.87-1.46,1.72-2.2,2.57
		c-0.02,3.56,0.16,7.13,0.58,10.67c0.64,6.21,0.04,12.53,1.34,18.67c-2.37,1.54-5.11,2.27-7.92,2.43c-0.23,5.3,0.35,10.59,0.26,15.9
		c-1.29-1.78-3.21-3.44-3.11-5.83c-0.3-4.36-0.25-8.74-0.55-13.09c-2.57-0.38-5.13-0.84-7.67-1.39c-0.43-8.55-0.94-17.09-1.18-25.65
		c-1.18-1.08-2.37-2.17-3.55-3.24c2.2-0.11,4.41-0.21,6.63-0.33c0.11,8.79,1.12,17.52,1.13,26.3c1.41,0.21,2.83,0.44,4.25,0.66
		c0.14,1.26,0.29,2.53,0.44,3.8c2.53-0.34,5.07-0.71,7.59-1.17c-0.25-8.59-0.78-17.17-1.38-25.74c-0.02-1.85-2.04-2.65-3.05-3.9
		C76.21,482.99,75.84,482.7,75.66,482.55z"/>
	<path class="st2" d="M-78.36,482.27c6.64,0.09,13.22,1.34,19.87,1.25c0.18,3.61-0.04,7.24-0.06,10.85
		c-1.02-1.08-2.03-2.16-3.05-3.24c0.07-1.56,0.12-3.11,0.16-4.66C-67.19,485.88-74.25,487.48-78.36,482.27z"/>
	<path class="st2" d="M-54.56,483.43c2.05,0.13,4.11,0.31,6.12,0.79c0.03,0,0.09,0.02,0.12,0.02l0.51,0.1
		c1.51,5.56,3.71,10.9,5.17,16.48c1.33,4.45,1.74,9.18,3.82,13.4c0.14-8.44,0.5-16.87,0.53-25.3c0.41-1.95-1.62-2.7-2.82-3.7
		l-0.98-0.7c2.32-0.12,4.65-0.1,6.97-0.03c0.12,11.13-0.63,22.26-0.27,33.37c-0.1,0.26-0.3,0.78-0.4,1.04
		c-1.28-1.4-2.96-2.46-3.76-4.24c-3.11-6.16-5.64-12.6-8.17-19.01c-0.55-1.59-1.56-2.95-2.64-4.21c0.3,3.89,0.93,7.74,1.32,11.62
		c-0.04,1.43-0.1,2.86-0.21,4.29c-0.39,3.75-0.63,7.52-0.79,11.29c-0.85-0.92-1.69-1.84-2.54-2.76c0.2-8.8,0.56-17.59,1.31-26.35
		C-50.8,486.93-53.24,485.29-54.56,483.43z"/>
	<path class="st2" d="M16.59,485.38c6.31-0.49,12.67,0.17,18.94-0.81c-0.07,11.47,0.83,22.91,0.83,34.38l-0.3-0.34
		c-1.1-1.24-2.19-2.49-3.27-3.74c0.09-8.91-0.25-17.83-0.27-26.74c-5.1-0.44-11.36,1.94-15.35-2.29L16.59,485.38z"/>
	<path class="st2" d="M38.79,484.62c6.28-0.24,12.56-0.44,18.84-0.64c-0.14,6,0.55,11.97,0.8,17.96c-3.97,3.14-7.97,6.24-12.09,9.18
		c-0.01,2.65,0.09,5.3,0.04,7.95c-1.57-1.77-3.66-3.53-3.46-6.16c-0.32-8.34-0.41-16.69-0.52-25.03c-1.09-0.99-2.17-1.97-3.26-2.95
		L38.79,484.62 M42.43,488.27c1.03,0.84,2.07,1.68,3.13,2.51c0.15,4.38,0.13,8.76,0.37,13.14c0,0.91,0,2.73-0.01,3.65
		c2.38-1.47,4.67-3.08,6.85-4.82c0.89-0.82,2.36-1.55,2.07-3.02c0-4.15-0.24-8.3-0.4-12.45C50.44,487.62,46.28,486.94,42.43,488.27z
		"/>
	<path class="st2" d="M-31.92,484.63c7.78,0.63,15.59,0.51,23.39,0.7c-0.04,2.18-0.08,4.36-0.18,6.55
		c-0.13-0.14-0.39-0.43-0.52-0.57c-1.37-1.27-2.61-3.25-4.76-3c-5.72-0.78-12.75,1.77-17.32-2.84L-31.92,484.63z"/>
	<path class="st2" d="M-5.46,485.38c6.32-0.06,12.63,0,18.95-0.08c-0.03,5.68,0.19,11.37,0.02,17.04c-1.45,1.27-3.09,2.31-4.64,3.46
		c1.61,1.09,3.21,2.2,4.81,3.33c0.02,3.09,0.06,6.18-0.12,9.27c-2.93-1.92-3.47-5.25-3.32-8.52c-1.92-1.53-3.84-3.04-5.76-4.55
		c1.97-1.41,4.34-2.46,5.77-4.48c0.44-4.11,0.07-8.25,0.08-12.38c-4.13-0.14-8.27-0.13-12.39,0.27c0.82,0.71,2.45,2.12,3.27,2.83
		c0.05,4.2,0.06,8.41,0.01,12.61c-0.01,0.76-0.04,2.27-0.05,3.03c1.04-0.41,2.09-0.82,3.15-1.22c-0.04,0.67-0.11,1.99-0.15,2.66
		c-0.87,0.91-1.88,1.69-2.78,2.58c-0.31,2.42-0.08,4.87-0.22,7.31c-1.44-1.61-3.61-3.14-3.34-5.58c-0.14-8.27,0.17-16.53,0.02-24.8
		C-3.26,487.24-4.36,486.31-5.46,485.38z"/>
	<path class="st2" d="M-73.62,486.31c1.04,1.06,2.09,2.12,3.13,3.18c-0.14,3.28,0.04,6.62-0.78,9.84c1.88,0.12,3.77,0.2,5.66,0.27
		c-0.01,0.92-0.04,2.77-0.05,3.69c-2.97-0.06-5.94-0.1-8.9-0.11C-74.43,497.55-74.13,491.92-73.62,486.31z"/>
	<path class="st2" d="M20.28,488.81c1.05,0.84,2.08,1.69,3.13,2.54c0.17,6.93,0.15,13.87,0.24,20.8c2,0.01,4.01,0.01,6.02,0.01
		c0.63,0.79,1.87,2.37,2.5,3.16c-3.83-0.03-7.66-0.06-11.49,0.01C20.28,506.5,20.47,497.65,20.28,488.81z"/>
	<path class="st2" d="M-20.14,488.96c1.13,0.84,2.25,1.68,3.37,2.53c-0.95,9.17,0.14,18.44-0.9,27.59l-0.48-0.69
		c-0.8-1.16-1.59-2.31-2.37-3.46C-20.38,506.27-20.35,497.62-20.14,488.96z"/>
	<path class="st2" d="M-74.94,503.71c1.2,0.91,2.38,1.83,3.57,2.76c-0.11,6.42-0.88,12.8-1.1,19.22c1.97-0.06,3.94-0.15,5.92-0.21
		c0.98,1.16,1.97,2.32,2.97,3.49c-4.23,0.23-8.46,0.43-12.69,0.58C-75.32,520.97-75.29,512.32-74.94,503.71z"/>
	<path class="st2" d="M-65.97,513.36c2.24-0.04,4.48-0.07,6.72-0.1c-0.3,6.21-0.47,12.42-0.67,18.63c-1.16-0.99-2.31-1.99-3.46-2.98
		c0.32-4.02,0.62-8.03,0.86-12.05C-63.67,515.69-64.82,514.52-65.97,513.36z"/>
</g>
<g id="_x23_030304ff">
	<path class="st3" d="M-98.7,392.83c39.34-24.28,73.88-56.22,101.57-93.21c27.8,36.97,62.34,68.96,101.71,93.3
		c-3.58,29.26-13.28,57.88-28.94,82.9c8.07-0.15,16.07-1.37,24.06-2.44c-3.23,4.3-6.43,8.63-9.94,12.71
		c-0.3,0.34-0.92,1.04-1.22,1.39c1.19,18.02,2.38,36.05,3.26,54.1c-18.83-2.59-37.82-3.73-56.79-4.68
		c-5.29-0.24-10.66-0.83-15.93-0.16c-5.52,3.1-10.37,7.38-16.17,9.97c-6.05-2.56-10.94-7.2-16.76-10.14
		c-9.45-0.49-18.87,0.72-28.3,0.94c-14.79,1.01-29.57,2.14-44.28,4c1.22-16.16,2.11-32.34,3.16-48.51c-0.1-2.29,0.8-5.02-0.86-6.94
		c-3.24-4.19-6.62-8.27-9.66-12.61c7.94,1.21,15.95,1.83,23.91,2.91c-0.76-1.45-1.53-2.88-2.33-4.3
		C-86.37,447.87-95.6,420.71-98.7,392.83 M-83.64,398.38c-2.08,0.87-0.8,3.34-0.72,5c4.3,22.44,12.08,44.45,24.23,63.86
		c-5.89-15.77-8.73-32.75-8.39-49.57c6.65,23.09,19.03,44.79,36.46,61.42c8.68,0.26,17.38,0.14,26.04,0.84
		c14.69,0.44,29.34-0.81,44.03-0.86c17.42-16.66,29.77-38.35,36.46-61.43c0.29,16.26-2.36,32.67-7.82,48.01
		c1.57-2.15,3-4.4,4.2-6.77c9.7-18.71,16.87-38.91,19.79-59.82c-33.21-21.34-62.73-48.28-87.76-78.77
		C-21.81,350.48-51.06,376.93-83.64,398.38 M-79.84,481.52c1.05,1.38,2.37,2.63,3.07,4.24c-1.08,15.98-1.88,31.97-2.82,47.95
		c6.69-0.35,13.35-1.11,20.03-1.51l-0.36-0.31c0.2-6.21,0.37-12.42,0.67-18.63c-2.24,0.03-4.48,0.06-6.72,0.1
		c-0.34,4.03-0.4,8.08-0.58,12.12c-1.98,0.06-3.95,0.15-5.92,0.21c0.22-6.42,0.99-12.8,1.1-19.22c1.94,0.06,3.88,0.09,5.82,0.13
		c0.14-2.29,0.3-4.57,0.48-6.85l-0.54-0.15c-1.89-0.07-3.78-0.15-5.66-0.27c0.82-3.22,0.64-6.56,0.78-9.84
		c1.94,0.14,3.88,0.29,5.82,0.48c-0.18,1.43-0.36,2.87-0.54,4.3c2.27,0.26,4.55,0.41,6.82,0.58c0.18-3.8,0.49-7.59,0.87-11.38
		C-64.94,482.62-72.43,482.44-79.84,481.52 M75.66,482.55c0.18,0.15,0.55,0.44,0.73,0.59c-0.94,3.54,0.08,7.17,0.06,10.75
		c0.09,5.24,0.5,10.46,0.79,15.68c-1.48,0.19-2.97,0.38-4.45,0.58c-1.42-0.22-2.84-0.45-4.25-0.66c-0.01-8.78-1.02-17.51-1.13-26.3
		c-2.22,0.12-4.43,0.22-6.63,0.33c0.66,10.34,0.53,20.74,1.59,31.05c2.39,0.99,4.96,1.51,7.32,2.58c0.7,5.08,0.65,10.24,0.88,15.36
		c2.38,0.2,4.75,0.47,7.12,0.74c-0.14-5.49-0.31-10.99-1.11-16.43c2.81-0.16,5.55-0.89,7.92-2.43c-1.3-6.14-0.7-12.46-1.34-18.67
		c-0.42-3.54-0.6-7.11-0.58-10.67c0.74-0.85,1.47-1.7,2.2-2.57c0.19-0.22,0.58-0.68,0.77-0.91
		C82.29,482.21,78.96,482.26,75.66,482.55 M-55.9,509.93c-0.31,3.14-0.36,6.29-0.42,9.44c2.45-0.04,4.9-0.12,7.36-0.26
		c0-3.92,0.45-7.88-0.29-11.76c0.11-1.43,0.17-2.86,0.21-4.29c2.97,5.03,4.16,10.84,6.66,16.09c2.11-1.11,4.94,1.32,6.59-0.25
		c0.1-0.26,0.3-0.78,0.4-1.04c-0.36-11.11,0.39-22.24,0.27-33.37c-2.32-0.07-4.65-0.09-6.97,0.03l0.98,0.7
		c-1.31,5.12,0.35,10.58-1.53,15.6c-1.46-5.58-3.66-10.92-5.17-16.48l-0.51-0.1c-0.03,0-0.09-0.02-0.12-0.02
		c-2.01-0.48-4.07-0.66-6.12-0.79C-55.71,492.22-55.13,501.11-55.9,509.93 M16.59,485.38l0.58,0.46
		c-0.38,8.01,0.11,16.03-0.08,24.04c-0.19,2.87-0.33,5.76,0,8.63c4.32-0.01,8.64,0.01,12.96,0.07c2,0.01,4,0.01,6.01,0.03l0.3,0.34
		c0-11.47-0.9-22.91-0.83-34.38C29.26,485.55,22.9,484.89,16.59,485.38 M38.79,484.62l0.35,0.31c-0.25,11.29,0.47,22.57,0.42,33.86
		c2.27,0.23,4.54,0.3,6.82,0.28c0.05-2.65-0.05-5.3-0.04-7.95c4.12-2.94,8.12-6.04,12.09-9.18c-0.25-5.99-0.94-11.96-0.8-17.96
		C51.35,484.18,45.07,484.38,38.79,484.62 M-31.92,484.63l0.61,0.84c-0.25,1.92-0.38,3.85-0.47,5.78c2.76,0.04,5.52,0.09,8.29,0.18
		c-0.18,9.05-0.34,18.09-0.76,27.13c2.03-0.04,4.06-0.09,6.1-0.17l0.48,0.69c1.04-9.15-0.05-18.42,0.9-27.59
		c2.51,0.07,5.03,0.08,7.54-0.18c0.13,0.14,0.39,0.43,0.52,0.57c0.1-2.19,0.14-4.37,0.18-6.55
		C-16.33,485.14-24.14,485.26-31.92,484.63 M-5.46,485.38c0,11.04-0.08,22.07-0.1,33.1c2.24-0.01,4.48-0.02,6.73,0.06
		c0.14-2.44-0.09-4.89,0.22-7.31c0.9-0.89,1.91-1.67,2.78-2.58l-0.03,0.73c0.99,0.8,2.04,1.55,2.91,2.51
		c0.27,2.17-0.08,4.35-0.22,6.53c2.31,0.03,4.63,0.06,6.94,0.18l-0.21-0.2c0.18-3.09,0.14-6.18,0.12-9.27
		c-1.6-1.13-3.2-2.24-4.81-3.33c1.55-1.15,3.19-2.19,4.64-3.46c0.17-5.67-0.05-11.36-0.02-17.04
		C7.17,485.38,0.86,485.32-5.46,485.38 M-32.12,521.7c-0.72,3.25-1.52,6.48-2.04,9.77c0.99-0.65,1.81-1.46,2.45-2.46
		c0.97,0.73,1.94,1.47,2.88,2.23c-0.54-3.28-1.08-6.57-1.49-9.87C-30.77,521.45-31.67,521.62-32.12,521.7 M-11.09,521.03
		c-0.08,3.18-0.08,6.36-0.04,9.54c1.02-0.73,2.04-1.45,3.06-2.17c1.02,0.74,2.06,1.46,3.11,2.16c0.09-3.2,0.07-6.39,0.01-9.58
		c-2.19,0.25-2.25,2.57-2.94,4.16C-9,523.76-8.87,521.18-11.09,521.03 M12.52,521.2c0.05,3,0.05,6.01-0.02,9.01
		c0.47-0.01,1.42-0.03,1.9-0.04c-0.1-2.88-0.14-5.76-0.09-8.63C13.86,521.46,12.96,521.28,12.52,521.2 M31.92,520.81
		c-0.07,3.11-0.27,6.25,0.07,9.36l1.49,0.74c0.04-1.07,0.11-3.21,0.15-4.28c0.94,1.63,1.6,3.66,3.42,4.52
		c0.05-3.08,0.22-6.17-0.16-9.23c-0.39-0.17-1.16-0.52-1.55-0.69c-0.02,0.94-0.05,2.84-0.06,3.79
		C34.11,523.64,33.13,522.14,31.92,520.81 M-56.38,522.43c-0.11,3.24-0.28,6.47-0.6,9.71c1.7-0.14,3.4-0.29,5.11-0.42
		c0.06-1.71,0.11-3.43,0.17-5.14c-0.66,0-1.98,0-2.64,0c0.84,1.54,1.64,3.69-0.61,4.46c0.05-2.52,0.13-5.05,0.2-7.57
		c1.03,0.64,2.07,1.29,3.12,1.93c-0.03-0.82-0.09-2.45-0.12-3.26C-53.29,522.22-54.83,522.32-56.38,522.43 M54.63,521.99
		c-0.13,3.19-0.06,6.38,0.2,9.56c1.55,0.12,3.1,0.25,4.65,0.38c0.01-1.73,0.01-3.45,0.01-5.18c-0.65-0.08-1.96-0.26-2.62-0.34
		c0.45,1.4,0.89,2.81,1.33,4.23c-3.36-0.64-1.36-4.95-2.04-7.3c1.07,0.72,2.16,1.43,3.25,2.13c-0.06-0.78-0.17-2.35-0.23-3.13
		C57.66,522.22,56.14,522.1,54.63,521.99z"/>
	<path class="st3" d="M1.21,491.57c1.86-0.03,3.72-0.06,5.58-0.08c0.01,2.9,0,5.8-0.06,8.7c-1.85,1.31-3.68,2.64-5.51,3.99
		C1.27,499.98,1.26,495.77,1.21,491.57z"/>
	<path class="st3" d="M23.41,491.35c1.82-0.03,3.64-0.06,5.47-0.09c0.06,6.97,0.62,13.93,0.79,20.9c-2.01,0-4.02,0-6.02-0.01
		C23.56,505.22,23.58,498.28,23.41,491.35z"/>
	<path class="st3" d="M45.56,490.78c1.9-0.08,3.81-0.15,5.73-0.21c0.1,2.93,0.22,5.87,0.4,8.8c-1.85,1.61-3.77,3.12-5.76,4.55
		C45.69,499.54,45.71,495.16,45.56,490.78z"/>
</g>
</svg>
