<?xml version="1.0" encoding="utf-8"?>
<!-- Generator: Adobe Illustrator 19.0.0, SVG Export Plug-In . SVG Version: 6.00 Build 0)  -->
<svg version="1.1" id="Layer_1" xmlns="http://www.w3.org/2000/svg" xmlns:xlink="http://www.w3.org/1999/xlink" x="0px" y="0px"
	 viewBox="-116.1 341.2 119.1 108.8" style="enable-background:new -116.1 341.2 119.1 108.8;" xml:space="preserve">
<style type="text/css">
	.st0{fill:#C4912F;}
</style>
<g id="_x23_231e22ff">
</g>
<g id="_x23_c4912fff">
	<path class="st0" d="M-116,344.8c-0.2-1.7,0.9-3.9,2.9-3.6c13.6-0.1,27.1,0,40.7,0c0.5,0.5,1.4,1.4,1.9,1.8
		c-0.1,16.9,0,33.9,0,50.8c9.3,0.1,18.5,0.1,27.8,0c0-16.9,0-33.8,0-50.7c0.7-0.7,1.5-1.3,2.2-2c13.8,0.1,27.6,0.1,41.4,0
		c0.7,0.7,1.5,1.4,2.2,2c0,13.5,0,27.1,0,40.7c0.3,1.7-1.2,3.4-2.9,3c-9.7,0.1-19.4,0-29.1,0c-1.7,0.3-3.4-1.3-3-3
		c-0.1-9,0.1-18,0-27c0.1-1.7-0.4-4,1.5-4.9c7.2-0.4,14.3,0.1,21.5-0.2c2.6,3.9,1.1,8.8,1.4,13.1c-0.3,3.9,1.1,8.5-1.5,11.9
		c-3.5-0.1-7-0.1-10.5-0.1c-0.8-0.7-1.6-1.5-2.4-2.2c0.1-3.4-0.2-6.9,0.2-10.3c1.5-2.5,4.7-1.6,7.2-1.9c0,0.9,0,2.7,0,3.6
		c-0.9,0-2.5,0-3.4,0c0,2.3,0,4.6,0,7c2.3,0,4.7,0,7,0c0-5.8,0-11.5,0-17.2c-5.8,0-11.6,0-17.4,0c-0.1,9.2,0,18.4,0,27.6
		c9.2,0,18.5-0.1,27.7,0c0-12.8,0-25.6,0-38.4c-12.7,0-25.5,0-38.2,0c0,33.8,0,67.6,0,101.5c12.8,0,25.5,0,38.3,0
		c0-12.8,0-25.6,0-38.4c-9.2,0-18.5,0-27.7,0c0,9.3,0,18.6,0,28c5.8,0,11.6,0,17.4,0c0-5.7,0-11.4,0-17.1c-2.3,0-4.7,0-7,0
		c0,2.2,0,4.4,0,6.6c1.1,0,2.3,0.1,3.4,0.1c0,0.9,0,2.6,0,3.5c-1.9,0-3.9,0.1-5.8,0.1c-2.8-3.4-1.2-8.1-1.5-12.1
		c0.7-0.7,1.3-1.4,2-2.1c3.6,0,7.3,0,10.9-0.1c0.6,1.3,1.6,2.5,1.4,4c0,5.7,0,11.4,0,17.1c0.1,1.5-0.8,2.8-1.5,4
		c-6.7-0.3-13.3,0.1-20-0.2c-1.3,0.1-2-1.1-3-1.6c0.3-10.1,0-20.3,0.1-30.4c-0.3-1.8,1.1-3.6,3-3.3c10-0.2,20,0,30-0.1
		c0.5,0.5,1.5,1.4,2,1.8c0,13.6,0,27.2,0,40.8c0.4,1.7-1.2,3.2-2.9,2.9c-13.9,0.2-27.7-0.1-41.6,0.1c-0.7-1.3-1.6-2.6-1.4-4.2
		c0-16,0-32,0-48.1c-9.2,0-18.5-0.1-27.7,0.1c0.1,15.7,0,31.4,0.1,47.1c0,1.9,0.1,4.8-2.5,4.9c-13,0.3-26,0-39,0.1
		c-1.6,0.1-3.9-0.1-4-2.1c-0.2-12.6,0.1-25.3-0.1-38c0.2-1.7-0.4-3.8,1.1-5.1c1.6-0.6,3.3-0.4,4.9-0.4c9,0.1,18,0,27,0
		c0.5,0.5,1.5,1.4,2,1.9c0,10.5,0,20.9,0,31.4c-0.7,0.7-1.5,1.5-2.2,2.2c-6.8,0-13.6,0-20.4,0c-0.8-0.8-1.6-1.6-2.3-2.3
		c0-6.8,0-13.6,0-20.5c0.7-0.7,1.3-1.4,2-2.2c3.6,0,7.2,0,10.8-0.1c2.6,3.5,1.6,8.1,1.4,12.1c-0.9,3.1-4.8,1.7-7.1,2
		c0-1.2,0-2.4,0.1-3.6c1.2,0,2.5,0,3.7,0c0-2.2,0-4.4,0-6.6c-2.3,0-4.6,0-6.9,0c0,5.7,0,11.4,0,17.2c5.7,0,11.4,0,17.2,0
		c0-9.3,0-18.6,0-27.9c-9.3,0-18.5,0-27.8,0c0,12.8,0,25.6,0,38.4c12.9,0,25.7,0,38.6,0c0-33.8,0-67.6,0-101.5
		c-12.9,0-25.7,0-38.6,0c0.1,12.8-0.1,25.6,0.1,38.4c9.2-0.1,18.5,0,27.7,0c0-9.2,0-18.4,0-27.6c-5.7,0-11.4,0-17.1,0
		c0,5.7,0,11.5,0,17.2c2.3,0,4.6,0,6.9,0c0-2.3,0-4.6,0-6.9c-1.3,0-2.6-0.1-3.9-0.1c0.1-1.1,0.3-2.3,0.6-3.4c2.3,0.1,5.5-1,6.8,1.6
		c0.4,3.5,0.1,7.1,0.1,10.7c-0.4,0.5-1.3,1.5-1.8,2c-3.4-0.1-6.9-0.1-10.3,0c-0.8-0.7-1.6-1.5-2.3-2.2c0.1-6.9,0-13.7,0-20.6
		c0.6-0.7,1.3-1.3,1.9-2c7.1-0.1,14.1,0,21.2-0.1c0.6,0.6,1.2,1.2,1.8,1.8c-0.1,10.1,0.1,20.2,0,30.2c0.3,1.7-1.2,3.3-2.9,3
		c-9.7,0.1-19.4,0-29.1,0c-1.8,0.3-3.4-1.3-3-3.1C-116,370.9-116.1,357.9-116,344.8z"/>
</g>
</svg>
