<?xml version="1.0" encoding="utf-8"?>
<!-- Generator: Adobe Illustrator 19.0.0, SVG Export Plug-In . SVG Version: 6.00 Build 0)  -->
<svg version="1.1" id="Layer_1" xmlns="http://www.w3.org/2000/svg" xmlns:xlink="http://www.w3.org/1999/xlink" x="0px" y="0px"
	 viewBox="152 119.89 900 602.85" style="enable-background:new 152 119.89 900 602.85;" xml:space="preserve">
<style type="text/css">
	.st0{fill:url(#SVGID_1_);}
	.st1{fill:url(#SVGID_2_);}
	.st2{fill:url(#SVGID_3_);}
	.st3{fill:url(#SVGID_4_);}
	.st4{fill:url(#SVGID_5_);}
	.st5{fill:url(#SVGID_6_);}
	.st6{fill:url(#SVGID_7_);}
	.st7{fill:#CE1E2B;}
</style>
<radialGradient id="SVGID_1_" cx="602.0133" cy="335.855" r="188.8079" gradientUnits="userSpaceOnUse">
	<stop  offset="0.2" style="stop-color:#F7F8F8"/>
	<stop  offset="1" style="stop-color:#CFD0D2"/>
</radialGradient>
<path class="st0" d="M590.33,119.89h23.01c16.99,1.8,33.84,5.94,49.22,13.49c36.17,17.31,64.17,49.08,80.68,85.26
	c7.04,16.06,13.92,32.61,15.66,50.22c-0.03,6.49,0.79,13.2-1.28,19.47c-3.35,11.04-9.93,20.8-12.99,31.94
	c-7.95,29.39-9.76,60.45-5.03,90.53c2.97,18.52,8.58,37.01,19.19,52.67c-15.45,13.27-31.31,26.39-49.25,36.21
	c-8.56-27.32-21.28-53.08-35.39-77.92c1.64,7.1,4.73,13.77,7.31,20.57c8.47,21.06,17.35,42.44,19.57,65.25
	c-19.44,15.16-38.65,30.7-59.4,44.05c-0.12-57.97-0.02-115.94-0.11-173.92c10.48-4.11,19.13-12.14,30.1-15.01
	c18.68,26.58,33.42,55.82,44.11,86.48c-2.38-23.59-11.32-45.74-17.96-68.31c-0.34-1.22-1-2.31-1.68-3.37
	c0.66,3.56,1.98,6.94,2.57,10.52l-1.18-0.63c-5.36-10.57-11.86-20.57-16.41-31.55c10.55-6.2,22.74-9.89,31.87-18.31
	c0.67-3.19,0-6.55,0.61-9.78c0.88-9.46,3.7-18.59,4.78-28.02c-19.93,7.49-38.34,18.28-57.37,27.7
	C631,297.46,598.94,269.02,562,247.87c17.74,15.74,35.64,31.3,53.39,47.02c-4.74,0.85-8.64-2.25-12.71-4.04l1.68-1.06
	c-0.92,0.31-1.85,0.59-2.77,0.86c2.16,0.94,4.25,2.04,6.23,3.33c15.58,10.17,29.53,22.9,40.8,37.74
	c-5.66,5.99-14.22,7.46-20.8,12.09c-1.24,0.51-0.95,1.98-1.03,3.03c0.02,21.96,0.04,43.93-0.05,65.89
	c-8.1,3.86-15.92,8.26-23.53,13.01c-9.27-3.46-17.58-8.89-25.93-14.08c-0.23-22.3,0.11-44.61-0.21-66.89
	c-9.13-5.69-19.03-10.18-28.54-15.26c-20.88-10.35-41.92-20.39-62.81-30.72c2.04,13.26,5.5,26.31,6.36,39.73
	c23.08,14.07,47.27,26.19,70.78,39.49c-0.25,57.93,0.06,115.87-0.26,173.81c-40.03-27.84-77.97-58.53-117.46-87.12
	c15.2-25.49,22.34-55.33,22.44-84.88c0.06-19.54-2.66-39.15-8.51-57.81c-4.53-13.22-11.79-25.61-13.81-39.6
	c-0.41-5.52-0.27-11.07-0.11-16.59c1.41-14.27,5.94-28.05,11.74-41.1c12.84-28.07,31.4-53.92,55.77-73.11
	C534.7,133.71,561.99,122.32,590.33,119.89z"/>
<radialGradient id="SVGID_2_" cx="280.4711" cy="648.501" r="67.4138" gradientUnits="userSpaceOnUse">
	<stop  offset="0.2" style="stop-color:#F7F8F8"/>
	<stop  offset="1" style="stop-color:#CFD0D2"/>
</radialGradient>
<path class="st1" d="M261.96,578.41c13.37-3.45,27.31-2.63,40.94-1.77c10.48,1.02,21.07,2.18,31.12,5.41
	c2.25,10.14,4.1,20.4,6.06,30.61c-17.62-8.25-37.78-12.05-56.99-7.85c-6.46,1.51-12.46,5.42-15.91,11.17
	c-4.63,7.78-6.15,16.97-6.39,25.9c-0.01,10.73-0.12,21.55,1.61,32.18c1.7,8.6,6.55,17.98,15.76,20.23
	c10.19,2.59,20.86,0.01,30.78-2.65c0.13-11.75,0.02-23.51,0.06-35.26c11.08,0,22.16,0.01,33.24,0.03
	c0.01,17.56-0.02,35.12,0.01,52.69c-10.38,5.38-21.91,8.03-33.34,10.08c-16.17,2.35-32.89,3.04-48.91-0.7
	c-10.85-2.65-21.39-8.29-27.9-17.6c-9.41-13.35-12.18-30.05-13.19-46.01c-0.89-18.23,0.64-37.6,10.39-53.53
	C236.41,589.56,248.71,581.56,261.96,578.41z"/>
<radialGradient id="SVGID_3_" cx="989.135" cy="648.878" r="67.9827" gradientUnits="userSpaceOnUse">
	<stop  offset="0.1" style="stop-color:#F7F8F8"/>
	<stop  offset="1" style="stop-color:#CFD0D2"/>
</radialGradient>
<path class="st2" d="M984.59,576.3c18.8-0.68,38.03,0.59,55.82,7.15c2.47,9.4,5.4,18.67,7.95,28.06
	c-17.59-6.71-36.47-10.51-55.34-9.41c-6.11,0.46-12.58,1.37-17.67,5.06c-3.46,2.43-5.35,6.66-5.34,10.84
	c0.12,3.35,3.17,5.55,6.12,6.43c6.16,1.77,12.56,2.53,18.9,3.37c14.64,1.84,30.36,3.27,42.58,12.41
	c8.45,5.95,13.35,15.88,14.39,26.03v10.2c-0.95,10.42-4.3,21.07-11.84,28.64c-10.47,11.33-26.52,14.53-41.22,15.94
	c-21.9,1.58-44.58,0.35-65.27-7.51c-2.08-11.75-4.21-23.49-6.36-35.22c5.87,4.13,12.32,7.33,18.83,10.32
	c13.42,5.95,28.57,6.82,42.98,4.99c5.66-0.87,11.97-2.12,15.79-6.81c4.4-5.75,3.71-15.18-2.22-19.64
	c-4.32-2.99-9.52-4.33-14.62-5.25c-7.62-1.13-15.3-1.84-22.95-2.78c-10.95-1.05-22.23-4.26-30.61-11.69
	c-6.07-5.73-8.04-14.44-8.24-22.5c0-7.05,0.14-14.41,3.19-20.92c4.22-9.41,12.63-16.25,21.57-20.99
	C961.46,578.04,973.19,576.86,984.59,576.3z"/>
<radialGradient id="SVGID_4_" cx="424.575" cy="648.3987" r="70.579" gradientUnits="userSpaceOnUse">
	<stop  offset="0.1" style="stop-color:#F7F8F8"/>
	<stop  offset="1" style="stop-color:#CFD0D2"/>
</radialGradient>
<path class="st3" d="M404.27,579.14c13.21,0.05,26.42,0.02,39.63,0.02c17.55,46.05,34.87,92.18,52.55,138.18
	c-15.48,0.64-31.02,0.08-46.52,0.28c-2.61-6.83-5.09-13.71-7.78-20.51c-16.68,0.05-33.37,0.05-50.05,0
	c-2.76,6.78-5.19,13.7-7.87,20.52c-10.51-0.05-21.02,0-31.53-0.02C369.64,671.37,387.08,625.3,404.27,579.14 M401.41,672.89
	c10.5-0.07,21.01,0.15,31.5-0.13c-5.3-13.82-10.66-27.63-15.61-41.57C411.69,644.95,406.65,658.97,401.41,672.89z"/>
<radialGradient id="SVGID_5_" cx="582.3591" cy="650.935" r="71.7078" gradientUnits="userSpaceOnUse">
	<stop  offset="0.1" style="stop-color:#F7F8F8"/>
	<stop  offset="1" style="stop-color:#CFD0D2"/>
</radialGradient>
<path class="st4" d="M510.84,579.13c17.32,0.09,34.64,0.01,51.97,0.04c6.97,18.21,14.09,36.36,21.06,54.57
	c7.77-18.09,15.24-36.32,22.74-54.54c15.78-0.1,31.56,0.03,47.34-0.07c0,46.18,0.06,92.36-0.03,138.54
	c-14.62-0.11-29.25-0.07-43.87-0.02c-0.26-26.28,0.3-52.57-0.31-78.83c-10.06,28.1-20.97,55.91-31.29,83.92
	c-9.35-21.19-18.31-42.56-27.45-63.85c-2.93-6.38-5.2-13.08-8.56-19.24c0.23,25.94-0.12,51.88,0.13,77.82
	c-10.59,0.33-21.21,0.05-31.81,0.14C510.81,671.45,510.66,625.29,510.84,579.13z"/>
<radialGradient id="SVGID_6_" cx="725.395" cy="648.3869" r="60.7902" gradientUnits="userSpaceOnUse">
	<stop  offset="0.1" style="stop-color:#F7F8F8"/>
	<stop  offset="1" style="stop-color:#CFD0D2"/>
</radialGradient>
<path class="st5" d="M674.46,579.25c33.56-0.22,67.12,0.03,100.69-0.12c0.21,7.9,0.02,15.81,0.09,23.72
	c-18.93,0.08-37.88-0.12-56.81,0.15c0.16,10.2,0.05,20.4,0.09,30.6c15.49,0.06,30.99,0.01,46.48,0.04c0,7.92,0,15.83,0,23.75
	c-15.48,0.03-30.97,0.02-46.45,0.05c-0.09,12.11,0.06,24.22-0.13,36.33c19.27,0.29,38.55,0.07,57.82,0.16
	c0.04,7.84-0.11,15.68,0.09,23.51c-33.95,0.34-67.92,0.17-101.87,0.09C674.55,671.44,674.55,625.34,674.46,579.25z"/>
<radialGradient id="SVGID_7_" cx="855.19" cy="648.495" r="66.6167" gradientUnits="userSpaceOnUse">
	<stop  offset="0.1" style="stop-color:#F7F8F8"/>
	<stop  offset="1" style="stop-color:#CFD0D2"/>
</radialGradient>
<path class="st6" d="M791.56,579.13c26.16,0.09,52.31,0,78.46,0.05c12.35,0.33,25.21,3.87,34.36,12.54
	c7.18,7.05,10.07,17.32,10.46,27.14c0.53,10.75-0.74,22.4-7.58,31.18c-5.51,7.83-15.22,11.31-24.45,11.97
	c11.94,18.55,24.01,37.02,36.13,55.47c-15.71,0.32-31.44-0.05-47.15,0.38c-12.24-22.68-24.17-45.54-36.51-68.16
	c-0.1,22.65,0.08,45.3-0.12,67.95c-14.58-0.17-29.16,0.15-43.72-0.16C791.66,671.37,791.4,625.25,791.56,579.13 M835.22,602.71
	c0.08,15.3,0.01,30.61,0.05,45.92c9.27-0.57,19.64,1.92,27.84-3.68c4.67-2.72,7.33-7.92,7.92-13.17c0.87-6.83,0.41-14.1-2.65-20.36
	c-2.84-5.67-9.21-8.89-15.43-8.79C847.04,602.67,841.12,602.56,835.22,602.71z"/>
<g id="_x23_ce1e2bff">
	<path class="st7" d="M673.2,334.18c11.03-4.43,21.95-9.14,33.04-13.4c-9.47,8.67-19.63,16.62-29.36,25.02
		c-1.47,1.19-2.82,2.68-4.69,3.25c-12.39,4.24-24.82,8.38-37.19,12.7c1.87-2.11,4.25-3.65,6.45-5.38
		c7.91-6.09,15.8-12.21,23.69-18.33C667.5,336.15,670.47,335.38,673.2,334.18z"/>
	<path class="st7" d="M494.04,323.16c1.01,0.12,2.04,0.21,3.04,0.49c12.27,3.54,24.54,7.06,36.84,10.46
		c3.07,0.78,5.25,3.27,7.79,5.01c8.75,6.89,18,13.2,26.45,20.44c-10.19-3.41-20.39-6.8-30.6-10.17c-3.21-1.1-6.67-1.7-9.5-3.66
		C516.76,338.15,505.44,330.59,494.04,323.16z"/>
	<path class="st7" d="M158.76,575.92c7.11,0,14.22-0.01,21.33-0.01c4.89,0.07,10.08,0.85,14.1,3.84c6.02,4.54,4.7,14.96-1.73,18.51
		c-6.03,4.28-13.7,3.68-20.69,3.64c-0.01,4.11-0.08,8.23,0.02,12.36c-4.34,0.24-8.69,0.07-13.03,0.11
		C158.76,601.55,158.76,588.74,158.76,575.92 M171.71,583.5c0.12,3.74-0.08,7.49,0.2,11.22c3.01-0.29,6.11-0.1,9.04-0.98
		c2.99-0.96,5.08-5.06,3-7.75C180.76,582.67,175.86,583.32,171.71,583.5z"/>
	<path class="st7" d="M156.46,667.48c-0.29-12.96-0.36-25.98,0.02-38.93c9.22,0.43,18.49-0.43,27.69,0.53
		c4.59,0.5,9.84,2.61,11.51,7.3c0.87,3.61,0.36,7.92-2.52,10.54c-1.74,1.95-4.25,2.82-6.34,4.3c5.72,5.22,11.24,10.64,16.8,16.03
		c-5.23,0.26-10.47,0.06-15.71,0.14c-4.79-4.71-9.5-9.5-14.3-14.21c-1.45-0.03-2.9-0.05-4.35-0.06c-0.02,4.75-0.01,9.5-0.02,14.25
		C164.98,667.41,160.72,667.28,156.46,667.48 M169.21,635.93c0.05,3.35,0.07,6.71,0,10.07c3.58,0.14,7.42,0.44,10.79-1
		c2.89-1.31,3.57-5.26,1.43-7.48C177.77,635.42,173.27,636.03,169.21,635.93z"/>
	<path class="st7" d="M156.72,687.66c4.9-5.21,12.34-6.87,19.24-7.02c6.33,0,13.09,1.02,18.23,5.02c9.76,7.12,9.55,24.14-0.64,30.78
		c-7.45,5.09-17.19,5.22-25.75,3.58c-7.75-1.54-14.52-7.59-15.8-15.57v-7.22C152.82,693.74,154.11,690.23,156.72,687.66
		 M173.53,688.53c-8.03,1.81-9.97,12.09-7.04,18.74c2.88,7.09,13.62,8.24,18.47,2.63c3.5-4.04,3.48-10.12,1.91-14.96
		C185.07,689.58,178.76,687.09,173.53,688.53z"/>
</g>
</svg>
