<?xml version="1.0" encoding="utf-8"?>
<!-- Generator: Adobe Illustrator 21.0.0, SVG Export Plug-In . SVG Version: 6.00 Build 0)  -->
<svg version="1.1" id="Layer_1" xmlns="http://www.w3.org/2000/svg" xmlns:xlink="http://www.w3.org/1999/xlink" x="0px" y="0px"
	 viewBox="0 0 870.023 1278.958" style="enable-background:new 0 0 870.023 1278.958;" xml:space="preserve">
<style type="text/css">
	.st0{fill:#A8B6CC;stroke:#A8B6CC;stroke-width:0.0938;}
	.st1{fill:#110F37;stroke:#110F37;stroke-width:0.0938;}
	.st2{fill:#D10336;stroke:#D10336;stroke-width:0.0938;}
	.st3{fill:#2F4265;stroke:#2F4265;stroke-width:0.0938;}
	.st4{fill:#930528;stroke:#930528;stroke-width:0.0938;}
	.st5{fill:#70819E;stroke:#70819E;stroke-width:0.0938;}
	.st6{fill:#181744;stroke:#181744;stroke-width:0.0938;}
</style>
<path class="st0" d="M328.036,2.811c69.6-3.65,139.38-3.68,208.98-0.12c50.48,2.62,100.87,7.2,150.93,14.19
	c41.36,5.85,82.56,13.14,123.11,23.24c9.52,2.54,19.25,4.67,28.43,8.28c10.47,12.94,19.75,26.89,30.49,39.62v243.94
	c-0.51,1.95-1.01,3.92-1.11,5.95c-3.58,74.27-9.37,148.49-19.24,222.2c-6.52,48.58-14.85,96.94-25.82,144.71
	c8.18,16.39,12.28,34.75,11.8,53.07c-0.49,17.81-4.59,36.04-14.61,51.01c-8.53,12.8-22.18,20.87-35.76,27.37
	c-3.03,8.58-6.72,16.93-9.61,25.55c6.38,44.42,14.98,88.52,21.09,132.98c1.32,9.31,2.23,19.23-1.92,28.01
	c-6.7,14.64-19.02,25.8-31.72,35.25c-8.82,6.31-18.35,11.9-28.82,14.94c-9.5,2.82-19.53,1.82-29.26,1.21
	c-17.35-1.38-34.69-3.01-52.07-3.91c-56.53,69.69-123.55,129.94-192.48,187.04c-8.51,7.28-17.57,13.95-25.78,21.57h-0.36
	c-2.02-2.43-4.56-4.29-6.99-6.26c-22.71-18.57-45.24-37.36-67.35-56.66c-57.25-49.97-111.89-103.48-158.12-163.98
	c-2.36-3.4-7.29-2.32-10.79-3.7c-3.91,6.31-9.86,10.98-16.4,14.35c-8.57,4.5-17.39,8.69-26.77,11.2
	c-12.79,3.39-27.26,0.13-37.12-8.76c-7.41-7.19-11.89-16.72-16.13-25.98c-4.91-11.36-9.45-22.97-12.17-35.07
	c-2.66-12.8-0.92-27,6.96-37.71c4.59-6.52,11.41-10.92,18.15-14.93c7.26-4.29,15.09-7.69,23.37-9.41
	c-44.92-84.28-73.61-176.31-92.65-269.64c-22.25-109.48-32.4-221.03-37.93-332.49c-0.44-6.99-0.29-14-0.31-20.99
	c0-77.65,0-155.29,0-232.94c9.39-11.92,18.82-23.8,28.17-35.75c2.14-3.19,6.34-3.36,9.64-4.61c39.97-11.52,80.93-19.22,121.97-25.72
	C215.556,11.251,271.746,5.811,328.036,2.811 M173.936,41.751c-42.36,6.33-84.58,14.11-125.9,25.47c-1.82,0.59-3.97,0.86-5.11,2.59
	c-6.04,7.63-12.04,15.29-18.09,22.91c-1.12,1.12-1.14,2.71-1.13,4.2c0.07,78.65-0.05,157.31,0.06,235.96
	c3.05,66.52,8.02,132.97,16.01,199.09c10.16,83.21,25.08,166.09,49.63,246.35c19.78,64.7,46.28,127.54,81.08,185.64
	c-3.94,3.48-8.44,6.4-13.39,8.24c-1.91,0.65-4.43,1.52-5.85-0.48c-2.95-3.25-6.56-6.37-11.18-6.58c-8.04-0.47-15.38,3.73-22.11,7.64
	c-4.67,2.82-9.72,6.04-11.55,11.5c-3.39,9.06-0.1,18.71,2.86,27.41c4.07,11.3,8.37,22.69,14.94,32.82
	c3.32,5.6,10.53,7.94,16.71,6.65c5.62-1.21,10.86-3.69,16.06-6.07c3.96-1.97,8.07-3.79,11.57-6.53c3.24-2.57,3.51-7.04,5.71-10.3
	c4.02-3,8.96-4.58,13.73-5.98c3.4-1.4,6.01,1.69,8.93,2.84c4.72,2.17,10.01,1.15,15.01,1.43c4.19,4.62,7.54,9.95,11.52,14.78
	c60.63,78.12,134.97,144.21,211.22,206.65c74.51-61.38,147.46-125.84,207.37-201.96c21.63,0.97,43.22,2.79,64.8,4.6
	c7.82,0.37,16.02,1.7,23.53-1.22c10.26-3.92,19.35-10.37,27.6-17.53c5.77-5.24,11.48-10.93,14.91-18.04
	c2.47-5.06,0.79-10.77,0.35-16.07c-6.41-46.44-15.45-92.49-21.98-138.89c4.96-13.29,10.46-26.4,14.99-39.86
	c10.57-4.93,21.58-9.61,30.27-17.6c6.76-6.44,10.48-15.37,12.81-24.24c5.32-21.51,2.69-45.13-8.23-64.51
	c-1.07-2.06-3.03-4.15-1.89-6.61c10.03-42.36,17.78-85.24,24.07-128.3c11.81-81.47,18.36-163.62,22.16-245.82
	c0.13-78-0.01-155.99,0.07-233.99c0.44-2.87-1.88-4.88-3.37-7c-5.76-7.35-11.09-15.06-17-22.28c-3.58-1.62-7.51-2.26-11.25-3.39
	c-24.42-6.5-49.18-11.65-74.02-16.2c-90.69-16.3-182.82-23.66-274.89-25.12C367.706,22.581,270.226,27.671,173.936,41.751z"/>
<path class="st1" d="M173.936,41.751c96.29-14.08,193.77-19.17,291.03-17.8c92.07,1.46,184.2,8.82,274.89,25.12
	c24.84,4.55,49.6,9.7,74.02,16.2c3.74,1.13,7.67,1.77,11.25,3.39c5.91,7.22,11.24,14.93,17,22.28c1.49,2.12,3.81,4.13,3.37,7
	c-0.08,78,0.06,155.99-0.07,233.99c-3.8,82.2-10.35,164.35-22.16,245.82c-6.29,43.06-14.04,85.94-24.07,128.3
	c-1.14,2.46,0.82,4.55,1.89,6.61c10.92,19.38,13.55,43,8.23,64.51c-2.33,8.87-6.05,17.8-12.81,24.24
	c-8.69,7.99-19.7,12.67-30.27,17.6c-4.53,13.46-10.03,26.57-14.99,39.86c6.53,46.4,15.57,92.45,21.98,138.89
	c0.44,5.3,2.12,11.01-0.35,16.07c-3.43,7.11-9.14,12.8-14.91,18.04c-8.25,7.16-17.34,13.61-27.6,17.53
	c-7.51,2.92-15.71,1.59-23.53,1.22c-21.58-1.81-43.17-3.63-64.8-4.6c-59.91,76.12-132.86,140.58-207.37,201.96
	c-76.25-62.44-150.59-128.53-211.22-206.65c-3.98-4.83-7.33-10.16-11.52-14.78c-5-0.28-10.29,0.74-15.01-1.43
	c-2.92-1.15-5.53-4.24-8.93-2.84c-4.77,1.4-9.71,2.98-13.73,5.98c-2.2,3.26-2.47,7.73-5.71,10.3c-3.5,2.74-7.61,4.56-11.57,6.53
	c-5.2,2.38-10.44,4.86-16.06,6.07c-6.18,1.29-13.39-1.05-16.71-6.65c-6.57-10.13-10.87-21.52-14.94-32.82
	c-2.96-8.7-6.25-18.35-2.86-27.41c1.83-5.46,6.88-8.68,11.55-11.5c6.73-3.91,14.07-8.11,22.11-7.64c4.62,0.21,8.23,3.33,11.18,6.58
	c1.42,2,3.94,1.13,5.85,0.48c4.95-1.84,9.45-4.76,13.39-8.24c-34.8-58.1-61.3-120.94-81.08-185.64
	c-24.55-80.26-39.47-163.14-49.63-246.35c-7.99-66.12-12.96-132.57-16.01-199.09c-0.11-78.65,0.01-157.31-0.06-235.96
	c-0.01-1.49,0.01-3.08,1.13-4.2c6.05-7.62,12.05-15.28,18.09-22.91c1.14-1.73,3.29-2,5.11-2.59
	C89.356,55.861,131.576,48.081,173.936,41.751 M372.096,74.091c-3.4,9.54-6.8,19.07-10.15,28.62c4.97-1.77,9.95-3.49,14.92-5.27
	c6.53-2.65,13.73-1.22,20.57-2.01c3.05,2.2,1.57,6.29,1.84,9.46c-0.03,22.33-0.17,44.67-0.1,67.01c0.57,7.4-3.68,13.88-5.55,20.8
	c12.82-0.38,25.65-0.43,38.48-0.53c-1.91-6.75-6.01-13.1-5.5-20.33c0.07-24.97,0.02-49.94,0.03-74.91c0.43-0.44,1.29-1.32,1.72-1.75
	c5.51,0.1,11.04-0.29,16.54,0.16c6.43,1.66,12.67,4.03,19.01,6.02c-3.15-9.51-6.68-18.9-9.99-28.37
	C426.636,72.951,399.356,73.291,372.096,74.091 M477.516,95.661c0.13,25.04,0,50.08,0.28,75.12c7.67,7.12,15.13,14.47,22.68,21.71
	c1.08,1.33,2.9,1.03,4.42,1.2c14.75,0.52,29.48,1.36,44.2,2.42c7.89-6.81,15.78-13.63,23.67-20.45c-0.27-24.95-0.49-49.91-0.6-74.86
	c-7.41-7.61-14.94-15.11-22.41-22.66c-1.4-1.77-3.8-1.47-5.79-1.7c-14.29-0.9-28.58-1.69-42.89-2.21
	C493.216,81.361,485.276,88.411,477.516,95.661 M278.986,80.231c-1.49,0.02-2.4,1.32-3.39,2.24c-7.17,7.5-14.46,14.89-21.61,22.41
	c-0.28,24.99-0.52,49.98-0.81,74.97c7.86,6.64,15.71,13.28,23.62,19.85c15.73-1.62,31.51-2.85,47.3-3.81
	c7.58-7.38,15.05-14.88,22.63-22.25c1.83-1.39,1.24-3.82,1.4-5.8c0.01-23.58,0.31-47.15,0.27-70.73
	c-7.9-6.76-15.58-13.77-23.44-20.58C309.616,77.541,294.286,78.671,278.986,80.231 M598.996,81.001c1.3,5.99,3.97,11.77,3.84,18
	c0.16,22.29,0.42,44.59,0.65,66.88c-0.03,4.16-0.99,8.23-1.78,12.29c6.25,6.77,12.84,13.22,19.16,19.93
	c1.99,1.73,3.44,4.59,6.19,5.13c15.35,1.75,30.68,3.71,45.97,5.95c7.74-6.16,15.35-12.48,23.21-18.46
	c-0.56-4.61-1.98-9.11-1.96-13.77c-0.32-22.34-0.64-44.68-1.03-67.01c-0.16-5.65,2.29-10.92,3.37-16.38
	c-11.43-1.8-22.87-3.53-34.34-5.08c1.32,6.15,4.06,12.09,3.9,18.49c0.23,22.31,0.59,44.63,0.88,66.95c0.06,2.99-1.83,5.55-3.44,7.91
	c-6.15,4.34-13.84,1.94-20.64,0.95c-2.65-1.1-5.18-2.58-7.42-4.37c-1.8-2.87-3.85-5.97-3.84-9.48c-0.23-22.32-0.48-44.64-0.77-66.96
	c-0.27-5.9,2.24-11.4,3.45-17.08C622.606,83.441,610.806,82.151,598.996,81.001 M190.996,90.821c1.1,5.04,3.11,9.92,3.4,15.11
	c-0.38,28.64-0.85,57.28-1.18,85.92c0.11,6.36-2.59,12.26-3.92,18.38c11.52-1.7,23.06-3.31,34.62-4.74
	c-1.25-5.82-3.82-11.48-3.45-17.54c0.44-28.69,0.72-57.38,1.12-86.06c0.54-5.41,2.63-10.51,3.82-15.79
	C213.916,87.531,202.446,89.101,190.996,90.821 M70.796,113.091c1.11,5.26,3.3,10.37,3.26,15.82c-0.62,28.02-1.23,56.04-1.77,84.07
	c0.28,6.81-2.58,13.16-4.04,19.7c11.4-2.57,22.85-5,34.31-7.3c-1.22-5.76-3.75-11.39-3.29-17.39c0.29-8.38,0.24-16.76,0.57-25.13
	c-0.06-2.78,2.96-3.55,5.16-3.89c4.51-0.66,9.16-2.71,13.67-1c4.8,13.9,9.54,27.82,14.64,41.6c11.38-2.28,22.84-4.15,34.31-5.94
	c-3.87-6.63-9.24-12.45-11.75-19.8c-3.58-9.19-7.31-18.32-10.88-27.52c6.13-6.68,12.18-13.43,18.36-20.07
	c0.74-0.97,1.91-1.9,1.76-3.27c0.19-9.29,0.34-18.58,0.42-27.87c-7.14-5.52-14.14-11.23-21.3-16.73
	C119.646,102.731,95.146,107.581,70.796,113.091 M740.706,103.611c-6.79,5.41-13.73,10.63-20.46,16.11
	c0.25,8.09,0.21,16.17,0.47,24.25c0.03,2.11,2.06,3.4,3.24,4.94c4.92,5.08,9.27,10.73,14.4,15.59c8.57,3.9,17.5,7.03,26.07,10.96
	c2.81,2.07,5.07,4.89,7.07,7.73c0.34,3.54,0.43,7.13,0.17,10.69c-0.77,2.26-2.21,4.21-3.39,6.26c-3.09,0.74-6.23,2.2-9.45,1.44
	c-5.32-1.07-10.62-2.15-15.96-3.08c-3.05-0.57-6.22-0.9-8.97-2.44c-5.32-2.74-10.69-5.38-16.06-8.02c3.34,10.01,7,19.9,10.32,29.91
	c16.65,3.04,33.28,6.17,49.84,9.65c7.57-5.71,15.13-11.47,22.83-17.01c-0.1-10.59-0.43-21.17-0.62-31.76
	c-5.83-6.56-11.34-13.46-17.44-19.77c-7.69-3.85-15.8-6.89-23.72-10.25c-4.2-1.36-6.73-5.25-9.39-8.5
	c-1.43-4.61,0.39-9.09,2.99-12.86c3-0.78,6.04-2.42,9.22-1.7c5.4,1.03,10.77,2.24,16.18,3.3c7.86,1.23,14.15,6.53,21.28,9.67
	c-3.11-9.22-6.3-18.41-9.47-27.61c-14.92-3.25-29.87-6.36-44.89-9.11C743.256,101.291,741.946,102.721,740.706,103.611
	 M417.196,225.941c-0.35,8.55-0.03,17.13-0.15,25.69c2.64,2.46,5.25,4.97,7.88,7.46c5.34-0.04,10.69,0.05,16.04-0.08
	c2.52-2.55,5.11-5.03,7.73-7.47c-0.05-8.75-0.01-17.49-0.12-26.23c-2.63-2.33-4.87-5.08-7.66-7.23c-5.27-0.94-10.69-0.18-16.02-0.3
	C422.456,220.591,419.046,222.721,417.196,225.941 M367.116,219.441c0.59,2.78,1.09,5.59,1.01,8.45c-0.15,8.33-0.23,16.66-0.3,24.99
	c0.03,2.73-0.57,5.4-1.27,8.02c3.93-0.19,7.87-0.4,11.8-0.65c-1.55-4.91-1.54-10.07-1.21-15.15c4.43-0.44,8.94-0.09,13.33-0.84
	c3.05-2.49,5.58-5.57,8.46-8.26c-0.09-3.6,0.46-7.27-0.2-10.81c-2.06-2.47-4.61-4.48-6.87-6.75
	C383.606,218.641,375.366,219.121,367.116,219.441 M470.376,218.181c0.58,2.53,1.22,5.08,1.19,7.7c0,8.7,0.06,17.41,0.17,26.11
	c0.06,2.54-0.53,5.02-1.17,7.45c3.84,0.27,7.68,0.43,11.53,0.49c-1.58-5.18-1.24-10.62-1.2-15.95c2.06,0.5,5.46-0.83,6.44,1.67
	c1.91,4.83,3.31,9.85,5.11,14.73c3.88,0.19,7.76,0.37,11.64,0.56c-3.74-5.49-5.63-11.89-8.1-17.99c2.19-2.12,4.37-4.25,6.62-6.32
	c-0.07-3.36-0.13-6.72-0.19-10.08c-2.57-2.4-4.69-5.34-7.63-7.3C486.676,218.491,478.506,218.561,470.376,218.181 M327.666,222.531
	c-2.76,2.59-5.61,5.21-7.72,8.36c-0.33,2.88-0.63,5.91,0.02,8.76c1.56,1.83,3.35,3.5,5.38,4.79c3.74,1.18,8.17,0.43,11.28,3.29
	c-0.33,2.68-0.27,6.43-3.47,7.37c-4.9,1.29-10.13,1.1-14.95-0.47c0.97,3.15,1.91,6.31,2.99,9.42c5.54-0.46,11.12-0.67,16.63-1.43
	c3.04-2.3,5.34-5.41,8.13-7.98c0.13-3.64,0.21-7.27,0.33-10.91c-2.5-2.23-4.6-5.7-8.3-5.82c-2.25-0.41-4.56-0.49-6.73-1.25
	c-3.22-1.45-1.74-6.21,1.05-7.27c4.58-1.44,9.53-1.06,14.12,0.17c-0.99-2.83-1.92-5.68-2.82-8.53
	C338.296,221.521,332.846,221.341,327.666,222.531 M520.996,220.661c-1.08,3.16-2.13,6.33-3.17,9.51c3.96-1.21,8.1-1.79,12.22-1.14
	c0.38,8.27,0.3,16.56,0.56,24.84c0.22,3.01-0.72,5.9-1.64,8.72c4.24,0.28,8.48,0.61,12.72,1.01c-1.02-2.82-2.01-5.7-1.96-8.73
	c-0.07-8.38-0.38-16.74-0.34-25.11c4.33,0,8.45,1.31,12.34,3.12c-1.17-3.38-2.36-6.75-3.59-10.12
	C539.096,222.001,530.056,221.221,520.996,220.661 M276.116,227.671c0.57,2.7,1.06,5.44,0.93,8.22c-0.27,8.35-0.51,16.69-0.69,25.05
	c-0.01,2.78-0.72,5.49-1.4,8.18c8.23-1.01,16.45-2.09,24.7-2.8c1.32-3.33,2.55-6.7,3.64-10.11c-5.49,2.77-11.61,3.35-17.64,3.77
	c-0.13-3.69-0.05-7.38,0.19-11.05c3.37-0.58,6.8-0.6,10.14,0.24c0.08-3.32,0.16-6.63,0.27-9.95c-3.22,1.51-6.66,2.37-10.21,2.54
	c0.23-2.61-0.66-5.81,0.68-8.06c5.33-1.08,10.94-1.87,16.25-0.25c-0.93-2.87-1.86-5.74-2.83-8.6
	C292.126,225.721,284.106,226.631,276.116,227.671 M567.026,232.161c0.07,3.07-0.33,6.23,0.45,9.23c2.34,2.88,4.8,6.2,8.6,7.13
	c3.05,0.89,6.21,1.84,8.42,4.28c-0.21,2.38,0.27,6.11-2.87,6.68c-5.31,0.48-10.62-1-15.33-3.38c1.21,3.31,2.11,6.75,3.61,9.95
	c5.34,1.03,10.82,1.45,16.24,1.95c3.21-1.58,5.53-4.49,8.18-6.84c-0.32-3.62,0.06-7.32-0.69-10.88c-1.54-2.12-3.37-4.03-5.35-5.74
	c-3.14-2.17-7.44-2.05-10.37-4.59c-2.39-1.9-0.98-6.48,2.14-6.52c4.69-0.22,9.3,1.05,13.48,3.11c-1.07-3.06-2.12-6.12-3.17-9.18
	c-5.18-0.76-10.4-1.25-15.59-1.95C572.156,227.621,569.596,229.901,567.026,232.161 M234.986,231.661
	c-55.61,7.25-110.82,17.6-165.38,30.53c1.35,0.68,2.71,1.36,4.1,1.97c26.91,10.73,53.81,21.5,80.72,32.26
	c1.62,0.61,3.29,1.12,4.97,1.59c-3.2-3.09-7.11-5.25-10.68-7.85c-11.6-8.11-23.5-15.79-34.9-24.18c2.34-0.87,4.7-1.69,7.09-2.41
	c40.27-12.35,81-23.25,122.12-32.35C240.336,231.231,237.646,231.301,234.986,231.661 M624.956,232.201
	c19.94,4.12,39.63,9.32,59.35,14.35c23.77,6.38,47.55,12.82,70.91,20.56c-4.53,3.97-9.8,6.95-14.67,10.45
	c-10.25,7.25-20.95,13.9-30.87,21.58c5.97-1.44,11.47-4.29,17.21-6.41c19.98-7.99,39.96-15.96,59.94-23.96
	c4.21-1.75,8.64-3.06,12.56-5.45c-8.74-2.28-17.6-4.09-26.41-6.06c-45.29-9.76-90.89-18.26-136.86-24.11
	C632.426,232.541,628.696,232.241,624.956,232.201 M276.796,280.431c11.39,6.94,23.21,13.2,34.96,19.51
	c-5.3-5.95-11.35-11.26-16.11-17.66c5.45-2.16,10.95-4.23,16.53-6.07C300.286,276.351,288.556,278.851,276.796,280.431
	 M556.746,277.251c5.7,2.07,11.46,3.97,17.01,6.46c-4.98,5.69-10.59,10.8-15.32,16.7c6.31-2.83,12.15-6.57,18.26-9.79
	c5.11-3.08,10.7-5.4,15.47-9C580.396,279.941,568.636,277.671,556.746,277.251 M422.306,300.301
	c-14.42,13.43-26.6,29.12-37.26,45.65c-3.38,5.49-7.38,11.3-7.07,18.05c-0.08,3.5,2.31,7.25,6.03,7.53
	c10.13,1.12,20.59,1.93,29.97,6.27c2.46,1.22,5.32,3.04,5.48,6.1c0.15,2.57-2.43,3.96-3.88,5.69c-8.08-0.31-16.27-1.72-24.32-0.42
	c-9.72-0.38-19.3,1.88-28.62,4.39c-11.58,3.51-23.28,8.29-32.08,16.87c-7.58,7.12-11.91,17.2-12.78,27.5
	c-1.96,22-0.11,44.19,3.6,65.92c3.98,23.23,10.41,46,18.65,68.06c3.72,9.23,6.92,18.77,11.87,27.44c-0.66-4.6-2.1-9.02-3.05-13.54
	c-9.61-42.84-13.84-87.26-8.82-131c-4.45-2.66-8.93-7.2-7.74-12.86c1.92-7.35,8.07-12.6,14.08-16.76
	c12.03-8.13,26.74-10.81,41-11.38l0.43,0.49c24.39,1.16,47.71,10.72,68.1,23.74c4.25,2.44,7.81,7.14,13.16,6.77
	c6.6-0.29,12.09-8.78,7.64-14.41c-7.16-9.28-16.93-16.04-26.29-22.89c-1.61-0.98-2.18-2.83-2.87-4.45c1.62-1.17,3.07-3.33,5.35-2.91
	c5.46,0.92,9.95,4.48,14.54,7.33c11.86,7.62,21.33,18.53,28.24,30.74c2.43,3.83,3.93,8.19,6.62,11.87
	c2.53,8.36,5.9,16.45,7.94,24.97c6.19,23.4,7.7,47.71,8.51,71.81c1.12,44.38-2.61,88.97-12.04,132.38c-0.33,0.08-1,0.25-1.34,0.33
	c-1.34-8.04-3.5-15.97-6.58-23.52c-1.49-3.38-3.08-6.87-5.84-9.41c-1.55,0.34-2.99,1.04-4.39,1.75
	c-31.06,15.62-59.65,35.72-86.81,57.31c-13.04-15.49-28.5-28.74-44.49-41.07c-7-4.94-14.11-11.33-23.26-11.02
	c-8.38-0.43-14.37,6.21-19.63,11.76c-11.62,12.86-22.46,26.44-32.51,40.56c6.97-1.39,13.93-3.37,21.12-2.87
	c-3.03,6.99-4.99,14.4-6.17,21.92c-3.04,19.14-3.62,38.56-3.57,57.9c0.05,11.03,0.16,22.07,1.08,33.07
	c0.22,3.84,2.33,7.18,4.23,10.42c3.85,6.34,7.85,12.63,12.39,18.51c2.66,3.76,7.33,4.96,11.41,6.53c11.17,3.83,22.64,6.89,34.29,8.9
	c4.11,0.58,8.27,1.37,12.44,1c3.44-0.27,6.42-2.2,9.09-4.23c6.85-5.22,12.36-11.91,17.9-18.44c5.63,2.56,11.04,5.62,16.91,7.66
	c3.93-1.78,8.03-3.25,11.68-5.62l0.41,0.22c8.28-3.7,16.52-7.47,24.83-11.1c4.6-1.73,7.38-6.1,11.63-8.41
	c2.73-1.84,6.41-1.79,8.83-4.13c8.97-8.69,19.79-15.17,30.66-21.18c6.54-3.38,13.1-7.04,20.37-8.57c4.56-0.13,9.12,0.34,13.68,0.2
	c3.93-0.93,7.57-2.97,10.99-5.08c0.88-3.8,0.03-7.79,0.29-11.65c0.66-20.59,5.69-41.43,16.83-58.94c1.93-3.21,4.8-5.9,5.88-9.59
	c1.35-0.96,2.68-1.96,4.03-2.94c-1.57,15.45-2.51,31.1-0.37,46.54c1.02,6.94,2.57,13.96,6.15,20.08
	c38.93-20.42,77.77-41.03,116.75-61.34c-3.3-8.47-7.67-16.48-12.36-24.25c-8.34-13.48-18.44-26.22-31.42-35.52
	c-12.19-8.65-25.47-15.6-38.81-22.29c-15.54-7.81-31.56-14.57-47.46-21.59c8.7-1.69,17.69-1.63,26.41-0.14
	c-3.3-6.3-5.55-13.09-7.02-20.04c-4.65-22.36-4.44-45.35-4.47-68.09c-0.1-21.25,0.88-42.62-1.76-63.77
	c-1.23-7.54-2.45-15.74-7.65-21.71c-1.63,12.26-3.36,24.53-6.25,36.57c-4.95,22.05-13.17,43.16-19.28,64.89
	c-3.59,12.21-5.73,24.76-8.04,37.26c-2-34.08,4.12-67.87,7.81-101.63c2.9-26,5.33-52.36,2.06-78.44
	c-2.24-18.14-8.32-35.64-16.66-51.84c-7.72-14.86-17.27-29.03-29.77-40.3c-9.91-8.97-22.53-15.82-36.19-15.89
	C448.176,279.141,434.136,289.461,422.306,300.301 M157.856,361.571c-11.33,1.86-22.43,4.89-33.79,6.65
	c-0.62,6.58,0.95,13.08,0.88,19.66c4.43,65.55,10.68,131.09,21.05,196.01c10.32,65.34,24.48,130.26,46.07,192.86
	c1.89,5.15,3,10.62,5.72,15.43c0.34-5.46-0.88-10.85-1.15-16.29c-1.06-8.3-0.64-16.67-0.76-25.01c0.1-8.34-0.28-16.71,0.92-24.98
	c1.83-18.89,5.94-37.79,14.36-54.89c0.69-1.59,2-3.15,1.54-4.98c-16.95-73.69-26.77-148.83-33.36-224.09
	c-0.38-2.2-0.23-4.83-2.13-6.38c-5.56-5.42-13.12-7.8-20.16-10.62c-6.63-2.68-13.58-4.43-20.3-6.85c2.96-1.1,6.06-1.75,9.18-2.17
	c50.48-9.35,101.18-17.48,152.07-24.15c1.2-0.15,2.48-0.47,3.11-1.62c3.68-4.99,7.31-10.04,11.39-14.72
	c3.67-4.98,8.98-8.3,13.43-12.5c4.17-3.93,10.4-5.63,13.17-10.95c4.03-6.78,8.83-13.06,13.03-19.73
	C286.886,338.421,222.136,348.971,157.856,361.571 M568.856,338.081c2.3,8.01,6.01,15.54,8.52,23.5
	c3.58,11.4,8.45,22.36,13.92,32.98c45.21,5.99,90.15,13.8,135.05,21.83c2,0.29,3.96,0.89,5.74,1.9
	c-10.94,3.17-21.76,6.85-32.12,11.62c-3.58,2.03-8.06,4.06-9.68,8.04c-4.14,44.06-8.67,88.12-15.62,131.84
	c-0.74,4.89-1.77,9.77-1.61,14.74c10.65,2.84,20.54,8.19,28.91,15.34c6.21,4.67,10.3,11.39,15.42,17.12
	c1.71-6.59,2.26-13.4,3.69-20.05c11.68-70.46,18.78-141.65,23.29-212.89c0.66-5.21,0.84-10.48,0.43-15.72
	C686.526,356.231,627.906,345.611,568.856,338.081 M773.946,375.451c-1.87,29.18-3.83,58.36-6.73,87.46
	c-7.41,75.85-19.72,151.42-40.44,224.83c-0.28,1.22-0.29,2.47-0.35,3.73c15.26-4.51,31.84-7.18,47.33-2.15
	c20.05-89.87,31.21-181.49,37.84-273.26C798.946,402.621,786.716,388.781,773.946,375.451 M95.496,377.771
	c-0.66,5.67-0.76,11.38-0.88,17.08c-0.67,31.99,0.26,64.01,2.3,95.94c5.25,79.65,17.73,158.99,39.65,235.81
	c18.61,64.86,44.15,128.03,79.21,185.81c6.79-3.17,13.37-6.76,19.78-10.62c-10.64-17.19-20.68-34.76-29.74-52.84
	c-31.87-60.33-54.9-125.04-71.41-191.16C111.506,566.161,100.716,471.941,95.496,377.771 M399.236,442.571
	c0.19,0.65,0.56,1.94,0.75,2.58c-0.16,13.91-0.9,27.81-1.63,41.71c0.07,2.83-0.84,6.84,2.35,8.35c5.81,2.5,12.27,0.61,18.13-0.81
	l-0.04-0.37c6.21-1.13,12.17-3.23,18.12-5.25c8.33-3.09,16.77-6.98,22.76-13.76c-5.75-6.6-12.78-11.95-20.26-16.44
	C426.936,451.301,413.366,445.641,399.236,442.571 M417.836,510.311c-6.86,1.49-13.94,2.64-20.95,1.52
	c-11.44-2.21-23.25-8.46-27.55-19.93c-3.42,9.93-5.49,20.47-5.04,31.01c0.55,9.27,5.11,17.59,8.48,26.06
	c14.95,34.31,26.83,69.94,35.64,106.3c0.39,1.27,0.4,3.01,2.05,3.26l-0.16-0.78c17.17-14.43,31.85-31.62,44.81-49.87
	c8.47-12.11,16.39-24.66,22.71-38.04c3.15-6.13,2.94-13.2,3.16-19.9c0.01-20.41-3.55-41.54-14.63-59.03
	C451.416,500.041,434.916,506.511,417.836,510.311 M744.026,711.041c-6.08,3.51-8.56,10.76-9.4,17.36
	c-1.14,10.87,0.78,22.23,6.08,31.84c1.61,3.16,4.8,5.34,5.93,8.74c1.15,4.34-4.01,8.12-7.91,6.27c-5.73-2.79-9.42-8.43-12.07-14.02
	c-5.05-10.71-4.29-22.84-4.69-34.35c0.22-3.17-3.02-5.28-5.93-4.54c-6.23,1.17-11.67,4.68-17.45,7.13
	c-49.99,23.86-99.85,48.02-149.54,72.48c-5.65,2.16-6.94,8.69-7.69,14c-1.96,12.08-1.08,25.21,6.01,35.57
	c2.77,4.1,5.89,8.26,10.2,10.86c4.04,2.01,8.39-0.26,12.31-1.47c43.11-14.49,86.18-29.09,129.19-43.87
	c23.35-8.19,46.89-15.91,69.96-24.88c4.06-1.11,8.15-3,10.81-6.38c3.67-4.55,5.49-10.28,6.61-15.93c2.16-12.2,1.26-25.18-3.9-36.55
	c-3.59-8.06-8.64-15.9-16.2-20.75C759.836,708.291,751.006,707.441,744.026,711.041 M509.916,822.951
	c-0.53,10.33-0.01,20.7,0.59,31.02c0.38,4.35,0.28,9.01,2.63,12.88c2.77,4.82,6.15,9.28,9.6,13.63c-3.13-0.45-5.73-2.3-8.22-4.09
	c-5.14-3.68-10.25-8.6-10.98-15.22c-2.37-16.43-0.29-33.1-1.61-49.59c-5.04-0.08-9.46,3.46-11.43,7.93
	c-2.85,7.13-2.52,15.15-1.8,22.66c1.03,3.81,5.81,5.23,6.73,9.13c1.43,9.12-0.71,19.35,4.69,27.47
	c7.72,11.7,18.42,21.26,30.29,28.62c22.02,12.75,47.25,19.77,67.46,35.65c1.81,1.29,3.69,3.1,6.14,2.69
	c4.4-0.49,7.71-3.83,10.24-7.19c3.27-5.75,4.33-14.01-0.99-18.91c-8.67-7.99-17.12-16.48-23.26-26.63
	c-1.05-5.08-1.99-10.26-4.03-15.05c-3.23-5.37-13.9-5.52-15.64,1.2c-1.28,3.96,2.1,6.83,4.03,9.81c-6.39,0.57-12.6-1.66-18.43-4.02
	c-11.39-4.78-21.13-13.95-25.33-25.71c-6.45-16.19-5-33.87-5.38-50.89C517.226,808.131,510.426,815.171,509.916,822.951
	 M472.586,835.681c-0.83,4.33-1.3,8.82-0.65,13.21c0.31,2.85,3.75,3.63,4.9,6c0.58,5.83-1.54,12.19,1.52,17.61
	c2.11,3.81,4.36,7.62,7.27,10.89c1.71,2.17,5.83,1.15,6.39-1.52c-0.34-2.5-2.21-4.44-3.47-6.53c-3.02-4.2-5.02-9.19-5.17-14.39
	c-0.38-11.81,0.52-23.63-0.03-35.43C478.246,826.461,473.506,830.441,472.586,835.681 M457.256,851.891
	c-1.28,5.72,4.17,9.57,4.51,15.01c1.25,4.16,0.36,10.45,5.14,12.43c3.67,0.49,2.23-3.99,1.62-6.02c-3.7-10.82-4.08-22.46-2.5-33.71
	C461.176,841.771,456.966,846.251,457.256,851.891 M435.196,855.381l-0.11,0.39c-44.14,20.83-88.09,42.09-132.16,63.08
	c-7.21,3.69-14.84,6.63-21.8,10.77c-4.19,2.55-4.77,7.89-5.33,12.32c-0.59,8.53,1.95,18.71,10.24,22.8
	c4.31,2.54,9.57,2.26,14.03,0.29c55.43-21.41,111-42.45,166.36-64.01c-7.84-8.48-14.56-18.27-18.08-29.35
	c-1.6-7.24-0.75-14.72-0.41-22.05C443.646,851.441,439.536,853.681,435.196,855.381 M704.286,860.331
	c-12.63,4.86-23.17,15.05-28.33,27.59c-1.6,4.06-3.27,8.39-2.8,12.83c1.61,2.34,4.05,3.93,6.27,5.66
	c12.06,8.78,24.57,16.96,37.34,24.69c4.74,2.64,9.31,5.8,14.54,7.44c2.2-0.74,1.55-3.87,1.87-5.68
	c-0.32-13.46-2.63-26.79-5.32-39.95c-2.39-9.97-4.36-20.31-9.33-29.38C715.906,858.341,708.996,858.711,704.286,860.331
	 M636.636,921.091c6.61,20.84,4.05,43.82-4.54,63.71c-4.85,11.05-11.32,21.81-20.99,29.3c-2.94,2.18,0.32,6.7,3.41,5.26
	c25.08-11.31,42.64-37.19,44.09-64.68c6.1,3,8.59,9.9,13.07,14.62c2.48,2.05,5.78,2.64,8.84,3.33c8.42,1.46,17.04,1.51,25.55,0.87
	c5.29-0.48,10.82-0.94,15.49-3.73c-4-4.34-9.36-7.02-14.04-10.51c-15.96-10.83-31.6-22.14-46.41-34.51
	c-6.51-5.06-12.65-10.87-20.16-14.42C636.326,911.281,635.236,917.221,636.636,921.091 M237.556,925.401
	c-3.54,1.62-7.67,2.58-10.54,5.27c-4.96,1.75-8.96,6-10.17,11.16c-2.14,8.16-3.2,16.6-3.62,25.02c-0.12,5.63-0.59,11.61,1.99,16.83
	c3.25,6.68,7.78,12.72,12.93,18.07c5.03,5.05,12.77,8.28,19.82,6.01c2.35-0.72,2.85-3.27,2.33-5.37l-0.54,0.11
	c-7.06-8.45-15.14-16.39-20.06-26.35c-2.44-10.31-0.78-21.03,0.65-31.38c0.49-4.22,4.11-7.99,8.47-8.06
	c-1.36,9-1.7,18.12-1.46,27.22c0.13,4.29,0.69,8.78,3.17,12.43c3.23,4.95,7.06,9.59,11.64,13.36c4.31,3.1,10.29,4.9,15.42,2.85
	c1.88-0.53,1.4-2.67,1.75-4.13l-0.46,0.12c-4.94-5.25-10.27-10.31-13.85-16.64c-1.96-3.31-2.02-7.26-2.13-10.98
	c-0.09-6.37,0.22-12.75,1.03-19.06c0.42-2.9,0.8-6,2.68-8.36c4.63-6.01,10.83-10.51,15.99-16.01
	C260.486,917.221,248.756,921.221,237.556,925.401 M440.956,960.041c-8.99,6.49-18.19,12.88-25.88,20.94
	c-3.09,2.76-2.42,7.22-2.51,10.94c0.26,7.35,0.52,14.72,1.11,22.06c1.36,16.06,2.75,32.14,4.98,48.12c0.42,2.55,0.63,5.47,2.68,7.35
	c3.95,3.92,8.64,6.99,13.4,9.81c35.65-23.9,68.38-52.07,97.8-83.3c8.3-9.1,16.61-18.24,24.12-28.01
	c-6.18-9.19-13.99-17.49-23.67-23.01c-10.78-6.53-23.97-8.8-33.25-17.79C479.006,935.901,459.516,947.381,440.956,960.041
	 M200.796,949.721c-4.12,3.65-5.06,9.39-6.46,14.45c-1.18,5.72-2.84,11.59-1.97,17.48c1.45,5.26,4.65,9.81,7.45,14.44
	c2.54,3.77,4.82,7.79,7.94,11.14c3.49,3.18,8.61,5.11,13.29,3.67c-0.27-2.15-0.8-4.29-2.18-6c-4.61-6.48-9.09-13.07-12.91-20.05
	c-1.57-2.72-2.38-5.85-2.27-8.99c0.19-10.17,2.33-20.16,4.26-30.1C205.266,946.451,202.756,947.731,200.796,949.721
	 M306.326,973.361c-4.74,1.37-9.35,3.61-13.04,6.93c-3.19,2.8-1.36,8.58,2.7,9.4c4.9,0.68,10.03-0.83,14.09-3.6
	c3.22-2.39,5.57-7.08,3.8-10.97C312.466,972.331,308.856,972.701,306.326,973.361 M128.706,983.841c-1.89,1.3-4.15,2.35-5.25,4.48
	c-1.97,3.53-1.65,7.84-0.38,11.56c2.81,8.58,6.76,16.77,11.29,24.58c2.61,4.85,9.36,6.29,14.07,3.81c2.1-1.08,3.09-3.9,1.99-6.02
	c-2.14-4.39-4.79-8.51-6.9-12.92c-3.05-6.67-6.92-13.28-7.53-20.73c2.1,0.67,3.8,2.2,5.89,2.86c1.31-0.39,2.6-0.82,3.88-1.29
	c-1.82-3.54-3.75-7.77-7.8-9.15C134.606,980.571,131.546,982.281,128.706,983.841 M573.276,982.961c-0.07,4.72,0.66,9.41,1.82,13.98
	c2.37,9.81,6.38,20.14,14.77,26.33c-0.19-2.23-1.29-4.63-0.32-6.78c1.28-1.63,2.96-2.87,4.57-4.14
	C583.826,1005.621,575.946,995.041,573.276,982.961 M155.986,990.931c-3.19,1.86-7.93,3.45-7.91,7.91
	c-0.69,3.98,2.31,10.26,7.15,8.33c6.79-2.53,14.11-3.67,20.56-7.08c-3.14-4.59-5.98-9.53-6.26-15.23
	C164.446,985.331,160.436,988.791,155.986,990.931 M518.996,1040.911c-27.09,26.65-55.58,51.84-84.31,76.69
	c-43.36-37.01-85.73-75.42-124.02-117.73c-7.9,3.02-16.64,2.93-24.68,0.48c-0.91,2.35-5.23,4.84-2.9,7.39
	c23.32,28.55,48.23,55.79,74.35,81.8c24.71,24.37,50.11,48.15,77.29,69.76c28.46-22.33,55.69-46.16,82.44-70.51
	c-4.06,10.19-9.86,19.57-15.28,29.07c-17.68,29.88-38.36,57.84-59.13,85.6c6.46-4.71,12.28-10.23,18.43-15.32
	c51.64-44.44,101.76-91.12,145.06-143.85c-5.48-0.41-10.99-0.39-16.43-1.13c-7.19-1.11-13.11-6.12-17.17-11.91
	c-6.83-9.71-10.16-21.33-12.59-32.81C546.586,1012.801,533.126,1027.191,518.996,1040.911z"/>
<path class="st0" d="M372.096,74.091c27.26-0.8,54.54-1.14,81.82-1.1c3.31,9.47,6.84,18.86,9.99,28.37
	c-6.34-1.99-12.58-4.36-19.01-6.02c-5.5-0.45-11.03-0.06-16.54-0.16c-0.43,0.43-1.29,1.31-1.72,1.75
	c-0.01,24.97,0.04,49.94-0.03,74.91c-0.51,7.23,3.59,13.58,5.5,20.33c-12.83,0.1-25.66,0.15-38.48,0.53
	c1.87-6.92,6.12-13.4,5.55-20.8c-0.07-22.34,0.07-44.68,0.1-67.01c-0.27-3.17,1.21-7.26-1.84-9.46c-6.84,0.79-14.04-0.64-20.57,2.01
	c-4.97,1.78-9.95,3.5-14.92,5.27C365.296,93.161,368.696,83.631,372.096,74.091z"/>
<path class="st0" d="M477.516,95.661c7.76-7.25,15.7-14.3,23.56-21.43c14.31,0.52,28.6,1.31,42.89,2.21
	c1.99,0.23,4.39-0.07,5.79,1.7c7.47,7.55,15,15.05,22.41,22.66c0.11,24.95,0.33,49.91,0.6,74.86c-7.89,6.82-15.78,13.64-23.67,20.45
	c-14.72-1.06-29.45-1.9-44.2-2.42c-1.52-0.17-3.34,0.13-4.42-1.2c-7.55-7.24-15.01-14.59-22.68-21.71
	C477.516,145.741,477.646,120.701,477.516,95.661 M510.446,98.481c-1.57,2.99-4.06,5.87-3.74,9.46c0.21,17.33,0.1,34.67,0.3,52.01
	c0.74,6.93,7.14,12,13.92,12.26c3.73,0.13,7.45,0.53,11.19,0.48c2.71-0.49,5.16-1.87,7.69-2.88c1.41-2.86,3.8-5.54,3.6-8.9
	c-0.16-16.98-0.27-33.97-0.33-50.95c0.17-3.56-1.91-6.68-3.72-9.56c-2.24-1.72-4.81-3.05-7.46-3.99c-3.95-0.59-7.96-0.58-11.94-0.82
	C516.526,95.291,513.526,97.321,510.446,98.481z"/>
<path class="st0" d="M278.986,80.231c15.3-1.56,30.63-2.69,45.97-3.7c7.86,6.81,15.54,13.82,23.44,20.58
	c0.04,23.58-0.26,47.15-0.27,70.73c-0.16,1.98,0.43,4.41-1.4,5.8c-7.58,7.37-15.05,14.87-22.63,22.25
	c-15.79,0.96-31.57,2.19-47.3,3.81c-7.91-6.57-15.76-13.21-23.62-19.85c0.29-24.99,0.53-49.98,0.81-74.97
	c7.15-7.52,14.44-14.91,21.61-22.41C276.586,81.551,277.496,80.251,278.986,80.231 M294.336,99.461c-3.71,1.52-7.99,3.28-9.49,7.35
	c-2.66,3.89-1.77,8.7-1.94,13.12c-0.12,14.65-0.24,29.3-0.4,43.94c-0.32,3.41,1.76,6.37,3.59,9.03c6.22,4.47,14,2.4,21.01,1.86
	c2.82-0.76,5.4-2.33,7.8-3.97c2.02-2.9,4.19-6.19,4.01-9.88c0.04-16.98,0.19-33.96,0.33-50.94c0.16-3.33-2.16-5.99-3.55-8.83
	c-2.55-1-5.02-2.35-7.75-2.78C303.406,98.511,298.836,98.831,294.336,99.461z"/>
<path class="st0" d="M598.996,81.001c11.81,1.15,23.61,2.44,35.4,3.89c-1.21,5.68-3.72,11.18-3.45,17.08
	c0.29,22.32,0.54,44.64,0.77,66.96c-0.01,3.51,2.04,6.61,3.84,9.48c2.24,1.79,4.77,3.27,7.42,4.37c6.8,0.99,14.49,3.39,20.64-0.95
	c1.61-2.36,3.5-4.92,3.44-7.91c-0.29-22.32-0.65-44.64-0.88-66.95c0.16-6.4-2.58-12.34-3.9-18.49c11.47,1.55,22.91,3.28,34.34,5.08
	c-1.08,5.46-3.53,10.73-3.37,16.38c0.39,22.33,0.71,44.67,1.03,67.01c-0.02,4.66,1.4,9.16,1.96,13.77
	c-7.86,5.98-15.47,12.3-23.21,18.46c-15.29-2.24-30.62-4.2-45.97-5.95c-2.75-0.54-4.2-3.4-6.19-5.13
	c-6.32-6.71-12.91-13.16-19.16-19.93c0.79-4.06,1.75-8.13,1.78-12.29c-0.23-22.29-0.49-44.59-0.65-66.88
	C602.966,92.771,600.296,86.991,598.996,81.001z"/>
<path class="st0" d="M190.996,90.821c11.45-1.72,22.92-3.29,34.41-4.72c-1.19,5.28-3.28,10.38-3.82,15.79
	c-0.4,28.68-0.68,57.37-1.12,86.06c-0.37,6.06,2.2,11.72,3.45,17.54c-11.56,1.43-23.1,3.04-34.62,4.74
	c1.33-6.12,4.03-12.02,3.92-18.38c0.33-28.64,0.8-57.28,1.18-85.92C194.106,100.741,192.096,95.861,190.996,90.821z"/>
<path class="st1" d="M510.446,98.481c3.08-1.16,6.08-3.19,9.51-2.89c3.98,0.24,7.99,0.23,11.94,0.82c2.65,0.94,5.22,2.27,7.46,3.99
	c1.81,2.88,3.89,6,3.72,9.56c0.06,16.98,0.17,33.97,0.33,50.95c0.2,3.36-2.19,6.04-3.6,8.9c-2.53,1.01-4.98,2.39-7.69,2.88
	c-3.74,0.05-7.46-0.35-11.19-0.48c-6.78-0.26-13.18-5.33-13.92-12.26c-0.2-17.34-0.09-34.68-0.3-52.01
	C506.386,104.351,508.876,101.471,510.446,98.481z"/>
<path class="st0" d="M70.796,113.091c24.35-5.51,48.85-10.36,73.43-14.72c7.16,5.5,14.16,11.21,21.3,16.73
	c-0.08,9.29-0.23,18.58-0.42,27.87c0.15,1.37-1.02,2.3-1.76,3.27c-6.18,6.64-12.23,13.39-18.36,20.07
	c3.57,9.2,7.3,18.33,10.88,27.52c2.51,7.35,7.88,13.17,11.75,19.8c-11.47,1.79-22.93,3.66-34.31,5.94
	c-5.1-13.78-9.84-27.7-14.64-41.6c-4.51-1.71-9.16,0.34-13.67,1c-2.2,0.34-5.22,1.11-5.16,3.89c-0.33,8.37-0.28,16.75-0.57,25.13
	c-0.46,6,2.07,11.63,3.29,17.39c-11.46,2.3-22.91,4.73-34.31,7.3c1.46-6.54,4.32-12.89,4.04-19.7c0.54-28.03,1.15-56.05,1.77-84.07
	C74.096,123.461,71.906,118.351,70.796,113.091 M104.876,126.321c-1.69,0.16-2.9,1.34-4.12,2.38c0.04,9.05-0.33,18.1-0.44,27.15
	c-0.29,1.52,0.27,2.56,1.69,3.14c5.88-0.84,11.66-2.36,17.53-3.3c4.88-0.55,8.74-3.84,12.59-6.58c5.29-6.56,6.59-17.41,0.58-23.9
	c-3.78-1.33-7.81-3.15-11.87-2.03C115.516,124.251,110.186,125.241,104.876,126.321z"/>
<path class="st1" d="M294.336,99.461c4.5-0.63,9.07-0.95,13.61-1.1c2.73,0.43,5.2,1.78,7.75,2.78c1.39,2.84,3.71,5.5,3.55,8.83
	c-0.14,16.98-0.29,33.96-0.33,50.94c0.18,3.69-1.99,6.98-4.01,9.88c-2.4,1.64-4.98,3.21-7.8,3.97c-7.01,0.54-14.79,2.61-21.01-1.86
	c-1.83-2.66-3.91-5.62-3.59-9.03c0.16-14.64,0.28-29.29,0.4-43.94c0.17-4.42-0.72-9.23,1.94-13.12
	C286.346,102.741,290.626,100.981,294.336,99.461z"/>
<path class="st0" d="M740.706,103.611c1.24-0.89,2.55-2.32,4.26-1.61c15.02,2.75,29.97,5.86,44.89,9.11
	c3.17,9.2,6.36,18.39,9.47,27.61c-7.13-3.14-13.42-8.44-21.28-9.67c-5.41-1.06-10.78-2.27-16.18-3.3c-3.18-0.72-6.22,0.92-9.22,1.7
	c-2.6,3.77-4.42,8.25-2.99,12.86c2.66,3.25,5.19,7.14,9.39,8.5c7.92,3.36,16.03,6.4,23.72,10.25c6.1,6.31,11.61,13.21,17.44,19.77
	c0.19,10.59,0.52,21.17,0.62,31.76c-7.7,5.54-15.26,11.3-22.83,17.01c-16.56-3.48-33.19-6.61-49.84-9.65
	c-3.32-10.01-6.98-19.9-10.32-29.91c5.37,2.64,10.74,5.28,16.06,8.02c2.75,1.54,5.92,1.87,8.97,2.44
	c5.34,0.93,10.64,2.01,15.96,3.08c3.22,0.76,6.36-0.7,9.45-1.44c1.18-2.05,2.62-4,3.39-6.26c0.26-3.56,0.17-7.15-0.17-10.69
	c-2-2.84-4.26-5.66-7.07-7.73c-8.57-3.93-17.5-7.06-26.07-10.96c-5.13-4.86-9.48-10.51-14.4-15.59c-1.18-1.54-3.21-2.83-3.24-4.94
	c-0.26-8.08-0.22-16.16-0.47-24.25C726.976,114.241,733.916,109.021,740.706,103.611z"/>
<path class="st1" d="M104.876,126.321c5.31-1.08,10.64-2.07,15.96-3.14c4.06-1.12,8.09,0.7,11.87,2.03
	c6.01,6.49,4.71,17.34-0.58,23.9c-3.85,2.74-7.71,6.03-12.59,6.58c-5.87,0.94-11.65,2.46-17.53,3.3c-1.42-0.58-1.98-1.62-1.69-3.14
	c0.11-9.05,0.48-18.1,0.44-27.15C101.976,127.661,103.186,126.481,104.876,126.321z"/>
<path class="st2" d="M417.196,225.941c1.85-3.22,5.26-5.35,7.7-8.16c5.33,0.12,10.75-0.64,16.02,0.3c2.79,2.15,5.03,4.9,7.66,7.23
	c0.11,8.74,0.07,17.48,0.12,26.23c-2.62,2.44-5.21,4.92-7.73,7.47c-5.35,0.13-10.7,0.04-16.04,0.08c-2.63-2.49-5.24-5-7.88-7.46
	C417.166,243.071,416.846,234.491,417.196,225.941 M429.336,225.381c-1.82,0.68-2.52,2.76-2.5,4.56c-0.13,4.98,0.02,9.98-0.06,14.97
	c-0.05,2.13,0.14,4.87,2.37,5.89c2.62,0.88,5.83,0.98,8.25-0.52c1.99-1.9,1.41-4.88,1.53-7.33c-0.2-4.93,0.29-9.89-0.25-14.79
	C437.676,224.201,432.426,224.241,429.336,225.381z"/>
<path class="st2" d="M367.116,219.441c8.25-0.32,16.49-0.8,24.75-1c2.26,2.27,4.81,4.28,6.87,6.75c0.66,3.54,0.11,7.21,0.2,10.81
	c-2.88,2.69-5.41,5.77-8.46,8.26c-4.39,0.75-8.9,0.4-13.33,0.84c-0.33,5.08-0.34,10.24,1.21,15.15c-3.93,0.25-7.87,0.46-11.8,0.65
	c0.7-2.62,1.3-5.29,1.27-8.02c0.07-8.33,0.15-16.66,0.3-24.99C368.206,225.031,367.706,222.221,367.116,219.441 M377.316,226.231
	c-0.16,3.68-0.15,7.36-0.03,11.04c2.81-0.12,5.7,0.02,8.45-0.71c3.9-1.08,4.74-6.81,2.03-9.44
	C384.696,225.001,380.766,226.171,377.316,226.231z"/>
<path class="st2" d="M470.376,218.181c8.13,0.38,16.3,0.31,24.41,1.07c2.94,1.96,5.06,4.9,7.63,7.3c0.06,3.36,0.12,6.72,0.19,10.08
	c-2.25,2.07-4.43,4.2-6.62,6.32c2.47,6.1,4.36,12.5,8.1,17.99c-3.88-0.19-7.76-0.37-11.64-0.56c-1.8-4.88-3.2-9.9-5.11-14.73
	c-0.98-2.5-4.38-1.17-6.44-1.67c-0.04,5.33-0.38,10.77,1.2,15.95c-3.85-0.06-7.69-0.22-11.53-0.49c0.64-2.43,1.23-4.91,1.17-7.45
	c-0.11-8.7-0.17-17.41-0.17-26.11C471.596,223.261,470.956,220.711,470.376,218.181 M480.786,225.741
	c-0.1,3.68-0.09,7.35,0.03,11.02c2.96,0.07,6.05,0.75,8.95-0.11c4.46-1.36,3.94-8.93-0.37-10.2
	C486.626,225.571,483.646,225.871,480.786,225.741z"/>
<path class="st2" d="M327.666,222.531c5.18-1.19,10.63-1.01,15.94-1.5c0.9,2.85,1.83,5.7,2.82,8.53c-4.59-1.23-9.54-1.61-14.12-0.17
	c-2.79,1.06-4.27,5.82-1.05,7.27c2.17,0.76,4.48,0.84,6.73,1.25c3.7,0.12,5.8,3.59,8.3,5.82c-0.12,3.64-0.2,7.27-0.33,10.91
	c-2.79,2.57-5.09,5.68-8.13,7.98c-5.51,0.76-11.09,0.97-16.63,1.43c-1.08-3.11-2.02-6.27-2.99-9.42c4.82,1.57,10.05,1.76,14.95,0.47
	c3.2-0.94,3.14-4.69,3.47-7.37c-3.11-2.86-7.54-2.11-11.28-3.29c-2.03-1.29-3.82-2.96-5.38-4.79c-0.65-2.85-0.35-5.88-0.02-8.76
	C322.056,227.741,324.906,225.121,327.666,222.531z"/>
<path class="st2" d="M520.996,220.661c9.06,0.56,18.1,1.34,27.14,2.1c1.23,3.37,2.42,6.74,3.59,10.12
	c-3.89-1.81-8.01-3.12-12.34-3.12c-0.04,8.37,0.27,16.73,0.34,25.11c-0.05,3.03,0.94,5.91,1.96,8.73c-4.24-0.4-8.48-0.73-12.72-1.01
	c0.92-2.82,1.86-5.71,1.64-8.72c-0.26-8.28-0.18-16.57-0.56-24.84c-4.12-0.65-8.26-0.07-12.22,1.14
	C518.866,226.991,519.916,223.821,520.996,220.661z"/>
<path class="st2" d="M276.116,227.671c7.99-1.04,16.01-1.95,24.03-2.82c0.97,2.86,1.9,5.73,2.83,8.6
	c-5.31-1.62-10.92-0.83-16.25,0.25c-1.34,2.25-0.45,5.45-0.68,8.06c3.55-0.17,6.99-1.03,10.21-2.54c-0.11,3.32-0.19,6.63-0.27,9.95
	c-3.34-0.84-6.77-0.82-10.14-0.24c-0.24,3.67-0.32,7.36-0.19,11.05c6.03-0.42,12.15-1,17.64-3.77c-1.09,3.41-2.32,6.78-3.64,10.11
	c-8.25,0.71-16.47,1.79-24.7,2.8c0.68-2.69,1.39-5.4,1.4-8.18c0.18-8.36,0.42-16.7,0.69-25.05
	C277.176,233.111,276.686,230.371,276.116,227.671z"/>
<path class="st1" d="M429.336,225.381c3.09-1.14,8.34-1.18,9.34,2.78c0.54,4.9,0.05,9.86,0.25,14.79c-0.12,2.45,0.46,5.43-1.53,7.33
	c-2.42,1.5-5.63,1.4-8.25,0.52c-2.23-1.02-2.42-3.76-2.37-5.89c0.08-4.99-0.07-9.99,0.06-14.97
	C426.816,228.141,427.516,226.061,429.336,225.381z"/>
<path class="st1" d="M377.316,226.231c3.45-0.06,7.38-1.23,10.45,0.89c2.71,2.63,1.87,8.36-2.03,9.44
	c-2.75,0.73-5.64,0.59-8.45,0.71C377.166,233.591,377.156,229.911,377.316,226.231z"/>
<path class="st1" d="M480.786,225.741c2.86,0.13,5.84-0.17,8.61,0.71c4.31,1.27,4.83,8.84,0.37,10.2c-2.9,0.86-5.99,0.18-8.95,0.11
	C480.696,233.091,480.686,229.421,480.786,225.741z"/>
<path class="st2" d="M567.026,232.161c2.57-2.26,5.13-4.54,7.75-6.75c5.19,0.7,10.41,1.19,15.59,1.95c1.05,3.06,2.1,6.12,3.17,9.18
	c-4.18-2.06-8.79-3.33-13.48-3.11c-3.12,0.04-4.53,4.62-2.14,6.52c2.93,2.54,7.23,2.42,10.37,4.59c1.98,1.71,3.81,3.62,5.35,5.74
	c0.75,3.56,0.37,7.26,0.69,10.88c-2.65,2.35-4.97,5.26-8.18,6.84c-5.42-0.5-10.9-0.92-16.24-1.95c-1.5-3.2-2.4-6.64-3.61-9.95
	c4.71,2.38,10.02,3.86,15.33,3.38c3.14-0.57,2.66-4.3,2.87-6.68c-2.21-2.44-5.37-3.39-8.42-4.28c-3.8-0.93-6.26-4.25-8.6-7.13
	C566.696,238.391,567.096,235.231,567.026,232.161z"/>
<path class="st3" d="M234.986,231.661c2.66-0.36,5.35-0.43,8.04-0.44c-41.12,9.1-81.85,20-122.12,32.35
	c-2.39,0.72-4.75,1.54-7.09,2.41c11.4,8.39,23.3,16.07,34.9,24.18c3.57,2.6,7.48,4.76,10.68,7.85c-1.68-0.47-3.35-0.98-4.97-1.59
	c-26.91-10.76-53.81-21.53-80.72-32.26c-1.39-0.61-2.75-1.29-4.1-1.97C124.166,249.261,179.376,238.911,234.986,231.661z"/>
<path class="st3" d="M624.956,232.201c3.74,0.04,7.47,0.34,11.16,0.95c45.97,5.85,91.57,14.35,136.86,24.11
	c8.81,1.97,17.67,3.78,26.41,6.06c-3.92,2.39-8.35,3.7-12.56,5.45c-19.98,8-39.96,15.97-59.94,23.96
	c-5.74,2.12-11.24,4.97-17.21,6.41c9.92-7.68,20.62-14.33,30.87-21.58c4.87-3.5,10.14-6.48,14.67-10.45
	c-23.36-7.74-47.14-14.18-70.91-20.56C664.586,241.521,644.896,236.321,624.956,232.201z"/>
<path class="st4" d="M276.796,280.431c11.76-1.58,23.49-4.08,35.38-4.22c-5.58,1.84-11.08,3.91-16.53,6.07
	c4.76,6.4,10.81,11.71,16.11,17.66C300.006,293.631,288.186,287.371,276.796,280.431z"/>
<path class="st4" d="M556.746,277.251c11.89,0.42,23.65,2.69,35.42,4.37c-4.77,3.6-10.36,5.92-15.47,9
	c-6.11,3.22-11.95,6.96-18.26,9.79c4.73-5.9,10.34-11.01,15.32-16.7C568.206,281.221,562.446,279.321,556.746,277.251z"/>
<path class="st3" d="M422.306,300.301c11.83-10.84,25.87-21.16,42.44-22.28c1.07,8.53,2.46,17.13,1.69,25.75
	c-0.19,2.73-1.72,5.09-3.4,7.16c-6.85,8.5-13.48,17.18-20.46,25.57c-2.76,3.33-6.23,6.56-6.82,11.08c-1.26,8.75,0,18.21,4.79,25.78
	c2.71,4.45,7.72,6.45,12.15,8.75c16,8.3,28.62,22.12,37.28,37.78c5.23,9.55,9.59,19.64,12.31,30.2c-2.69-3.68-4.19-8.04-6.62-11.87
	c-6.91-12.21-16.38-23.12-28.24-30.74c-4.59-2.85-9.08-6.41-14.54-7.33c-2.28-0.42-3.73,1.74-5.35,2.91
	c-10.15-5.52-20.47-11.31-31.96-13.47c1.45-1.73,4.03-3.12,3.88-5.69c-0.16-3.06-3.02-4.88-5.48-6.1
	c-9.38-4.34-19.84-5.15-29.97-6.27c-3.72-0.28-6.11-4.03-6.03-7.53c-0.31-6.75,3.69-12.56,7.07-18.05
	C395.706,329.421,407.886,313.731,422.306,300.301z"/>
<path class="st5" d="M464.746,278.021c13.66,0.07,26.28,6.92,36.19,15.89c12.5,11.27,22.05,25.44,29.77,40.3
	c8.34,16.2,14.42,33.7,16.66,51.84c3.27,26.08,0.84,52.44-2.06,78.44c-3.69,33.76-9.81,67.55-7.81,101.63
	c2.31-12.5,4.45-25.05,8.04-37.26c6.11-21.73,14.33-42.84,19.28-64.89c2.89-12.04,4.62-24.31,6.25-36.57
	c5.2,5.97,6.42,14.17,7.65,21.71c2.64,21.15,1.66,42.52,1.76,63.77c0.03,22.74-0.18,45.73,4.47,68.09
	c1.47,6.95,3.72,13.74,7.02,20.04c-8.72-1.49-17.71-1.55-26.41,0.14c15.9,7.02,31.92,13.78,47.46,21.59
	c13.34,6.69,26.62,13.64,38.81,22.29c12.98,9.3,23.08,22.04,31.42,35.52c4.69,7.77,9.06,15.78,12.36,24.25
	c-38.98,20.31-77.82,40.92-116.75,61.34c-3.58-6.12-5.13-13.14-6.15-20.08c-2.14-15.44-1.2-31.09,0.37-46.54
	c-1.35,0.98-2.68,1.98-4.03,2.94c-11.07,7.68-19.53,18.56-26.69,29.84c-10.53,16.84-16.8,35.92-20.98,55.22
	c-7.27,1.53-13.83,5.19-20.37,8.57c-10.87,6.01-21.69,12.49-30.66,21.18c-2.42,2.34-6.1,2.29-8.83,4.13
	c-4.25,2.31-7.03,6.68-11.63,8.41c-8.31,3.63-16.55,7.4-24.83,11.1l-0.41-0.22c-6.72-3.54-13.88-6.7-19.35-12.11
	c-2.77-2.41-2.4-6.34-2.53-9.64c-0.01-14.38-0.24-28.77,0.3-43.14c0.01-6.63,3.77-12.32,6.94-17.86
	c8.4-13.95,17.86-27.25,27.88-40.08c5.03-6.72,12.21-11.26,18.93-16.08c9.88-6.86,19.97-13.4,30.17-19.77
	c2.73-1.67,5.67-3.43,9-3.38c3.64-0.04,6.95,1.67,10.18,3.16c0.17-0.85,0.35-1.7,0.53-2.54c9.43-43.41,13.16-88,12.04-132.38
	c-0.81-24.1-2.32-48.41-8.51-71.81c-2.04-8.52-5.41-16.61-7.94-24.97c-2.72-10.56-7.08-20.65-12.31-30.2
	c-8.66-15.66-21.28-29.48-37.28-37.78c-4.43-2.3-9.44-4.3-12.15-8.75c-4.79-7.57-6.05-17.03-4.79-25.78
	c0.59-4.52,4.06-7.75,6.82-11.08c6.98-8.39,13.61-17.07,20.46-25.57c1.68-2.07,3.21-4.43,3.4-7.16
	C467.206,295.151,465.816,286.551,464.746,278.021z"/>
<path class="st6" d="M157.856,361.571c64.28-12.6,129.03-23.15,194.27-29.32c-4.2,6.67-9,12.95-13.03,19.73
	c-2.77,5.32-9,7.02-13.17,10.95c-4.45,4.2-9.76,7.52-13.43,12.5c-4.08,4.68-7.71,9.73-11.39,14.72c-0.63,1.15-1.91,1.47-3.11,1.62
	c-50.89,6.67-101.59,14.8-152.07,24.15c-3.12,0.42-6.22,1.07-9.18,2.17c6.72,2.42,13.67,4.17,20.3,6.85
	c7.04,2.82,14.6,5.2,20.16,10.62c1.9,1.55,1.75,4.18,2.13,6.38c6.59,75.26,16.41,150.4,33.36,224.09c0.46,1.83-0.85,3.39-1.54,4.98
	c-8.42,17.1-12.53,36-14.36,54.89c-1.2,8.27-0.82,16.64-0.92,24.98c0.12,8.34-0.3,16.71,0.76,25.01c0.27,5.44,1.49,10.83,1.15,16.29
	c-2.72-4.81-3.83-10.28-5.72-15.43c-21.59-62.6-35.75-127.52-46.07-192.86c-10.37-64.92-16.62-130.46-21.05-196.01
	c0.07-6.58-1.5-13.08-0.88-19.66C135.426,366.461,146.526,363.431,157.856,361.571z"/>
<path class="st6" d="M568.856,338.081c59.05,7.53,117.67,18.15,175.94,30.25c0.41,5.24,0.23,10.51-0.43,15.72
	c-4.51,71.24-11.61,142.43-23.29,212.89c-1.43,6.65-1.98,13.46-3.69,20.05c-5.12-5.73-9.21-12.45-15.42-17.12
	c-8.37-7.15-18.26-12.5-28.91-15.34c-0.16-4.97,0.87-9.85,1.61-14.74c6.95-43.72,11.48-87.78,15.62-131.84
	c1.62-3.98,6.1-6.01,9.68-8.04c10.36-4.77,21.18-8.45,32.12-11.62c-1.78-1.01-3.74-1.61-5.74-1.9
	c-44.9-8.03-89.84-15.84-135.05-21.83c-5.47-10.62-10.34-21.58-13.92-32.98C574.866,353.621,571.156,346.091,568.856,338.081z"/>
<path class="st2" d="M773.946,375.451c12.77,13.33,25,27.17,37.65,40.61c-6.63,91.77-17.79,183.39-37.84,273.26
	c-15.49-5.03-32.07-2.36-47.33,2.15c0.06-1.26,0.07-2.51,0.35-3.73c20.72-73.41,33.03-148.98,40.44-224.83
	C770.116,433.811,772.076,404.631,773.946,375.451z"/>
<path class="st2" d="M95.496,377.771c5.22,94.17,16.01,188.39,38.91,280.02c16.51,66.12,39.54,130.83,71.41,191.16
	c9.06,18.08,19.1,35.65,29.74,52.84c-6.41,3.86-12.99,7.45-19.78,10.62c-35.06-57.78-60.6-120.95-79.21-185.81
	c-21.92-76.82-34.4-156.16-39.65-235.81c-2.04-31.93-2.97-63.95-2.3-95.94C94.736,389.151,94.836,383.441,95.496,377.771z"/>
<path class="st3" d="M362.636,393.561c9.32-2.51,18.9-4.77,28.62-4.39c-4.83,2-9.06,6.17-9.33,11.66
	c-0.91,5.07,2.11,9.52,5.44,12.98c-14.26,0.57-28.97,3.25-41,11.38c-6.01,4.16-12.16,9.41-14.08,16.76
	c-1.19,5.66,3.29,10.2,7.74,12.86c-5.02,43.74-0.79,88.16,8.82,131c0.95,4.52,2.39,8.94,3.05,13.54
	c-4.95-8.67-8.15-18.21-11.87-27.44c-8.24-22.06-14.67-44.83-18.65-68.06c-3.71-21.73-5.56-43.92-3.6-65.92
	c0.87-10.3,5.2-20.38,12.78-27.5C339.356,401.851,351.056,397.071,362.636,393.561z"/>
<path class="st5" d="M391.256,389.171c8.05-1.3,16.24,0.11,24.32,0.42c11.49,2.16,21.81,7.95,31.96,13.47
	c0.69,1.62,1.26,3.47,2.87,4.45c9.36,6.85,19.13,13.61,26.29,22.89c4.45,5.63-1.04,14.12-7.64,14.41
	c-5.35,0.37-8.91-4.33-13.16-6.77c-20.39-13.02-43.71-22.58-68.1-23.74l-0.43-0.49c-3.33-3.46-6.35-7.91-5.44-12.98
	C382.196,395.341,386.426,391.171,391.256,389.171z"/>
<path class="st3" d="M399.236,442.571c14.13,3.07,27.7,8.73,40.18,16.01c7.48,4.49,14.51,9.84,20.26,16.44
	c-5.99,6.78-14.43,10.67-22.76,13.76c-5.95,2.02-11.91,4.12-18.12,5.25c0.1-6.78-3.5-12.67-6.46-18.5
	c-5.19-9.67-8.75-20.05-12.35-30.38C399.796,444.511,399.426,443.221,399.236,442.571z"/>
<path class="st5" d="M399.986,445.151c3.6,10.33,7.16,20.71,12.35,30.38c2.96,5.83,6.56,11.72,6.46,18.5l0.04,0.37
	c-5.86,1.42-12.32,3.31-18.13,0.81c-3.19-1.51-2.28-5.52-2.35-8.35C399.086,472.961,399.826,459.061,399.986,445.151z"/>
<path class="st2" d="M417.836,510.311c17.08-3.8,33.58-10.27,48.52-19.4c11.08,17.49,14.64,38.62,14.63,59.03
	c-0.22,6.7-0.01,13.77-3.16,19.9c-6.32,13.38-14.24,25.93-22.71,38.04c-12.96,18.25-27.64,35.44-44.81,49.87
	c-1.29-4.86-0.61-9.9-0.6-14.85c0.28-20.54-1.4-41.07-4.26-61.39c-1.94-12.52-4.1-25.07-8-37.15c-3.63-10.48-2.11-21.81-0.56-32.53
	C403.896,512.951,410.976,511.801,417.836,510.311z"/>
<path class="st4" d="M364.296,522.911c-0.45-10.54,1.62-21.08,5.04-31.01c4.3,11.47,16.11,17.72,27.55,19.93
	c-1.55,10.72-3.07,22.05,0.56,32.53c3.9,12.08,6.06,24.63,8,37.15c2.86,20.32,4.54,40.85,4.26,61.39c-0.01,4.95-0.69,9.99,0.6,14.85
	l0.16,0.78c-1.65-0.25-1.66-1.99-2.05-3.26c-8.81-36.36-20.69-71.99-35.64-106.3C369.406,540.501,364.846,532.181,364.296,522.911z"
	/>
<path class="st3" d="M488.546,648.401c1.4-0.71,2.84-1.41,4.39-1.75c2.76,2.54,4.35,6.03,5.84,9.41c3.08,7.55,5.24,15.48,6.58,23.52
	c0.34-0.08,1.01-0.25,1.34-0.33c-0.18,0.84-0.36,1.69-0.53,2.54c-3.23-1.49-6.54-3.2-10.18-3.16c-3.33-0.05-6.27,1.71-9,3.38
	c-10.2,6.37-20.29,12.91-30.17,19.77c-6.72,4.82-13.9,9.36-18.93,16.08c-10.02,12.83-19.48,26.13-27.88,40.08
	c-3.17,5.54-6.93,11.23-6.94,17.86c-0.54,14.37-0.31,28.76-0.3,43.14c0.13,3.3-0.24,7.23,2.53,9.64
	c5.47,5.41,12.63,8.57,19.35,12.11c-3.65,2.37-7.75,3.84-11.68,5.62c-5.87-2.04-11.28-5.1-16.91-7.66
	c-5.54,6.53-11.05,13.22-17.9,18.44c-2.67,2.03-5.65,3.96-9.09,4.23c-4.17,0.37-8.33-0.42-12.44-1c-11.65-2.01-23.12-5.07-34.29-8.9
	c-4.08-1.57-8.75-2.77-11.41-6.53c-4.54-5.88-8.54-12.17-12.39-18.51c-1.9-3.24-4.01-6.58-4.23-10.42
	c-0.92-11-1.03-22.04-1.08-33.07c-0.05-19.34,0.53-38.76,3.57-57.9c1.18-7.52,3.14-14.93,6.17-21.92
	c-7.19-0.5-14.15,1.48-21.12,2.87c10.05-14.12,20.89-27.7,32.51-40.56c5.26-5.55,11.25-12.19,19.63-11.76
	c9.15-0.31,16.26,6.08,23.26,11.02c15.99,12.33,31.45,25.58,44.49,41.07C428.896,684.121,457.486,664.021,488.546,648.401
	 M407.966,721.761c-3.39,1.77-6.28,4.48-9.85,5.89c-7.73-7.54-14.69-16.04-23.47-22.41c0.55,1.68,1.14,3.37,1.82,5.03
	c8.53,19.81,14.58,40.62,19.11,61.69c10.39-25.63,28.62-46.88,46.76-67.34C430.336,709.121,419.086,715.431,407.966,721.761
	 M363.446,732.541c6.66,12.83,10.83,26.77,14.77,40.62c-1.73-1.36-3.53-2.63-5.4-3.79c-0.36,5.18-0.35,10.37-0.18,15.56
	c-0.12,3.01,2.09,5.3,3.88,7.46c3.58,3.96,7.31,7.82,11.58,11.06c0.28-6.51,0.09-13.01-0.04-19.51c-0.29-7.65,0-15.47-2.48-22.82
	c-5.47-18.12-12.04-35.9-18.85-53.55C362.346,714.871,359.856,724.431,363.446,732.541z"/>
<path class="st3" d="M542.356,732.301c7.16-11.28,15.62-22.16,26.69-29.84c-1.08,3.69-3.95,6.38-5.88,9.59
	c-11.14,17.51-16.17,38.35-16.83,58.94c-0.26,3.86,0.59,7.85-0.29,11.65c-3.42,2.11-7.06,4.15-10.99,5.08
	c-4.56,0.14-9.12-0.33-13.68-0.2C525.556,768.221,531.826,749.141,542.356,732.301z"/>
<path class="st1" d="M407.966,721.761c11.12-6.33,22.37-12.64,34.37-17.14c-18.14,20.46-36.37,41.71-46.76,67.34
	c-4.53-21.07-10.58-41.88-19.11-61.69c-0.68-1.66-1.27-3.35-1.82-5.03c8.78,6.37,15.74,14.87,23.47,22.41
	C401.686,726.241,404.576,723.531,407.966,721.761z"/>
<path class="st5" d="M363.446,732.541c-3.59-8.11-1.1-17.67,3.28-24.97c6.81,17.65,13.38,35.43,18.85,53.55
	c2.48,7.35,2.19,15.17,2.48,22.82c0.13,6.5,0.32,13,0.04,19.51c-4.27-3.24-8-7.1-11.58-11.06c-1.79-2.16-4-4.45-3.88-7.46
	c-0.17-5.19-0.18-10.38,0.18-15.56c1.87,1.16,3.67,2.43,5.4,3.79C374.276,759.311,370.106,745.371,363.446,732.541z"/>
<path class="st5" d="M744.026,711.041c6.98-3.6,15.81-2.75,22.32,1.51c7.56,4.85,12.61,12.69,16.2,20.75
	c5.16,11.37,6.06,24.35,3.9,36.55c-1.12,5.65-2.94,11.38-6.61,15.93c-2.66,3.38-6.75,5.27-10.81,6.38
	c-13.75,1.85-27.83-4.08-37.07-14.22c-4.05-4.43-6.98-9.69-10.27-14.66c-1.15-1.55-2.46-3.61-4.66-3.45
	c-4.53,0.39-8.55,2.76-12.67,4.47c-46.85,20.78-93.68,41.62-140.5,62.48c-3.27,1.38-6.39,3.28-9.92,3.9
	c-3.95,0.32-6.99-3.26-7.85-6.81c-1.93-7.36-0.2-15.16,2.96-21.92c49.69-24.46,99.55-48.62,149.54-72.48
	c5.78-2.45,11.22-5.96,17.45-7.13c2.91-0.74,6.15,1.37,5.93,4.54c0.4,11.51-0.36,23.64,4.69,34.35c2.65,5.59,6.34,11.23,12.07,14.02
	c3.9,1.85,9.06-1.93,7.91-6.27c-1.13-3.4-4.32-5.58-5.93-8.74c-5.3-9.61-7.22-20.97-6.08-31.84
	C735.466,721.801,737.946,714.551,744.026,711.041z"/>
<path class="st3" d="M704.356,764.301c4.12-1.71,8.14-4.08,12.67-4.47c2.2-0.16,3.51,1.9,4.66,3.45
	c3.29,4.97,6.22,10.23,10.27,14.66c9.24,10.14,23.32,16.07,37.07,14.22c-23.07,8.97-46.61,16.69-69.96,24.88
	c-43.01,14.78-86.08,29.38-129.19,43.87c-3.92,1.21-8.27,3.48-12.31,1.47c-4.31-2.6-7.43-6.76-10.2-10.86
	c-7.09-10.36-7.97-23.49-6.01-35.57c0.75-5.31,2.04-11.84,7.69-14c-3.16,6.76-4.89,14.56-2.96,21.92c0.86,3.55,3.9,7.13,7.85,6.81
	c3.53-0.62,6.65-2.52,9.92-3.9C610.676,805.921,657.506,785.081,704.356,764.301z"/>
<path class="st5" d="M509.916,822.951c0.51-7.78,7.31-14.82,15.3-14.61c0.38,17.02-1.07,34.7,5.38,50.89
	c4.2,11.76,13.94,20.93,25.33,25.71c5.83,2.36,12.04,4.59,18.43,4.02c5.54-0.77,11.1,0.86,15.64,4.04
	c6.14,10.15,14.59,18.64,23.26,26.63c5.32,4.9,4.26,13.16,0.99,18.91c-10.63-8.73-21.16-17.6-32.19-25.83
	c-3.94-2.96-8.13-5.74-12.93-7.05c-5.9-1.62-11.98-2.71-17.55-5.32c-10.61-4.92-20.67-11.46-28.84-19.86
	c-3.45-4.35-6.83-8.81-9.6-13.63c-2.35-3.87-2.25-8.53-2.63-12.88C509.906,843.651,509.386,833.281,509.916,822.951z"/>
<path class="st3" d="M490.496,819.511c1.97-4.47,6.39-8.01,11.43-7.93c1.32,16.49-0.76,33.16,1.61,49.59
	c0.73,6.62,5.84,11.54,10.98,15.22c2.49,1.79,5.09,3.64,8.22,4.09c8.17,8.4,18.23,14.94,28.84,19.86c5.57,2.61,11.65,3.7,17.55,5.32
	c4.8,1.31,8.99,4.09,12.93,7.05c11.03,8.23,21.56,17.1,32.19,25.83c-2.53,3.36-5.84,6.7-10.24,7.19c-2.45,0.41-4.33-1.4-6.14-2.69
	c-20.21-15.88-45.44-22.9-67.46-35.65c-11.87-7.36-22.57-16.92-30.29-28.62c-5.4-8.12-3.26-18.35-4.69-27.47
	c-0.92-3.9-5.7-5.32-6.73-9.13C487.976,834.661,487.646,826.641,490.496,819.511z"/>
<path class="st3" d="M472.586,835.681c0.92-5.24,5.66-9.22,10.76-10.16c0.55,11.8-0.35,23.62,0.03,35.43
	c0.15,5.2,2.15,10.19,5.17,14.39c1.26,2.09,3.13,4.03,3.47,6.53c-0.56,2.67-4.68,3.69-6.39,1.52c-2.91-3.27-5.16-7.08-7.27-10.89
	c-3.06-5.42-0.94-11.78-1.52-17.61c-1.15-2.37-4.59-3.15-4.9-6C471.286,844.501,471.756,840.011,472.586,835.681z"/>
<path class="st3" d="M457.256,851.891c-0.29-5.64,3.92-10.12,8.77-12.29c-1.58,11.25-1.2,22.89,2.5,33.71
	c0.61,2.03,2.05,6.51-1.62,6.02c-4.78-1.98-3.89-8.27-5.14-12.43C461.426,861.461,455.976,857.611,457.256,851.891z"/>
<path class="st3" d="M435.196,855.381c4.34-1.7,8.45-3.94,12.74-5.76c-0.34,7.33-1.19,14.81,0.41,22.05
	c3.52,11.08,10.24,20.87,18.08,29.35c-55.36,21.56-110.93,42.6-166.36,64.01c-4.46,1.97-9.72,2.25-14.03-0.29
	c-8.29-4.09-10.83-14.27-10.24-22.8c0.56-4.43,1.14-9.77,5.33-12.32c-1.17,5.69-2.3,12.34,1.71,17.23
	c46.08-19.58,92.1-39.32,138.17-58.91c3.22-1.42,6.66-2.47,9.6-4.46c2.13-1.82,2.09-4.95,2.31-7.51c0.13-6.78-0.09-13.7,2.17-20.2
	L435.196,855.381z"/>
<path class="st5" d="M302.926,918.851c44.07-20.99,88.02-42.25,132.16-63.08c-2.26,6.5-2.04,13.42-2.17,20.2
	c-0.22,2.56-0.18,5.69-2.31,7.51c-2.94,1.99-6.38,3.04-9.6,4.46c-46.07,19.59-92.09,39.33-138.17,58.91
	c-4.01-4.89-2.88-11.54-1.71-17.23C288.086,925.481,295.716,922.541,302.926,918.851z"/>
<path class="st3" d="M704.286,860.331c4.71-1.62,11.62-1.99,14.24,3.2c4.97,9.07,6.94,19.41,9.33,29.38
	c2.69,13.16,5,26.49,5.32,39.95c-0.32,1.81,0.33,4.94-1.87,5.68c-5.23-1.64-9.8-4.8-14.54-7.44c-12.77-7.73-25.28-15.91-37.34-24.69
	c-2.22-1.73-4.66-3.32-6.27-5.66c-0.47-4.44,1.2-8.77,2.8-12.83C681.116,875.381,691.656,865.191,704.286,860.331z"/>
<path class="st3" d="M570.326,879.151c1.74-6.72,12.41-6.57,15.64-1.2c2.04,4.79,2.98,9.97,4.03,15.05
	c-4.54-3.18-10.1-4.81-15.64-4.04C572.426,885.981,569.046,883.111,570.326,879.151z"/>
<path class="st5" d="M636.636,921.091c-1.4-3.87-0.31-9.81,4.31-10.76c7.51,3.55,13.65,9.36,20.16,14.42
	c14.81,12.37,30.45,23.68,46.41,34.51c4.68,3.49,10.04,6.17,14.04,10.51c-4.67,2.79-10.2,3.25-15.49,3.73
	c-8.51,0.64-17.13,0.59-25.55-0.87c-3.06-0.69-6.36-1.28-8.84-3.33c-4.48-4.72-6.97-11.62-13.07-14.62
	c-1.45,27.49-19.01,53.37-44.09,64.68c-3.09,1.44-6.35-3.08-3.41-5.26c9.67-7.49,16.14-18.25,20.99-29.3
	C640.686,964.911,643.246,941.931,636.636,921.091z"/>
<path class="st5" d="M237.556,925.401c11.2-4.18,22.93-8.18,35.04-7.89c-5.16,5.5-11.36,10-15.99,16.01
	c-1.88,2.36-2.26,5.46-2.68,8.36c-0.81,6.31-1.12,12.69-1.03,19.06c0.11,3.72,0.17,7.67,2.13,10.98
	c3.58,6.33,8.91,11.39,13.85,16.64c-4.41,1.87-9.66,1.04-12.98-2.5c-5.99-5.99-12.64-13.08-12.49-22.13
	c-0.21-7.02,0.47-14.01,0.71-21.01c-0.09-1.73,0.22-3.75-1.01-5.15c-1.31-0.75-2.86-0.81-4.29-1.06c-4.36,0.07-7.98,3.84-8.47,8.06
	c-1.43,10.35-3.09,21.07-0.65,31.38c4.92,9.96,13,17.9,20.06,26.35c-3.78,0.85-8.21,1.64-11.57-0.82c-3.13-2.54-5.54-5.81-8.13-8.85
	c-4.37-5.41-8.64-11.59-8.71-18.81c-0.45-14.6,0.9-29.47,5.67-43.35C229.886,927.981,234.016,927.021,237.556,925.401z"/>
<path class="st3" d="M440.956,960.041c18.56-12.66,38.05-24.14,58.78-32.89c9.28,8.99,22.47,11.26,33.25,17.79
	c9.68,5.52,17.49,13.82,23.67,23.01c-7.51,9.77-15.82,18.91-24.12,28.01c-0.61-6.17-1.02-12.39-2.42-18.43
	c-0.7-3.4-3.61-5.57-6.12-7.63c-8.38-6.53-17.2-12.54-26.64-17.41c-2.96-1.39-6.06-3.06-9.41-2.88c-4.78,1.02-8.93,3.79-13.18,6.09
	c-17.22,10.1-33.71,21.42-49.93,33.06c-2.86,2.09-6.05,4.22-7.33,7.7c-2.18,5.58-3.8,11.49-3.83,17.52
	c-0.59-7.34-0.85-14.71-1.11-22.06c0.09-3.72-0.58-8.18,2.51-10.94C422.766,972.921,431.966,966.531,440.956,960.041z"/>
<path class="st3" d="M216.846,941.831c1.21-5.16,5.21-9.41,10.17-11.16c-4.77,13.88-6.12,28.75-5.67,43.35
	c0.07,7.22,4.34,13.4,8.71,18.81c2.59,3.04,5,6.31,8.13,8.85c3.36,2.46,7.79,1.67,11.57,0.82l0.54-0.11
	c0.52,2.1,0.02,4.65-2.33,5.37c-7.05,2.27-14.79-0.96-19.82-6.01c-5.15-5.35-9.68-11.39-12.93-18.07
	c-2.58-5.22-2.11-11.2-1.99-16.83C213.646,958.431,214.706,949.991,216.846,941.831z"/>
<path class="st3" d="M238.816,936.711c1.43,0.25,2.98,0.31,4.29,1.06c1.23,1.4,0.92,3.42,1.01,5.15c-0.24,7-0.92,13.99-0.71,21.01
	c-0.15,9.05,6.5,16.14,12.49,22.13c3.32,3.54,8.57,4.37,12.98,2.5l0.46-0.12c-0.35,1.46,0.13,3.6-1.75,4.13
	c-5.13,2.05-11.11,0.25-15.42-2.85c-4.58-3.77-8.41-8.41-11.64-13.36c-2.48-3.65-3.04-8.14-3.17-12.43
	C237.116,954.831,237.456,945.711,238.816,936.711z"/>
<path class="st3" d="M200.796,949.721c1.96-1.99,4.47-3.27,7.15-3.96c-1.93,9.94-4.07,19.93-4.26,30.1
	c-0.11,3.14,0.7,6.27,2.27,8.99c3.82,6.98,8.3,13.57,12.91,20.05c1.38,1.71,1.91,3.85,2.18,6c-4.68,1.44-9.8-0.49-13.29-3.67
	c-3.12-3.35-5.4-7.37-7.94-11.14c-2.8-4.63-6-9.18-7.45-14.44c-0.87-5.89,0.79-11.76,1.97-17.48
	C195.736,959.111,196.676,953.371,200.796,949.721z"/>
<path class="st5" d="M474.766,955.701c4.25-2.3,8.4-5.07,13.18-6.09c3.35-0.18,6.45,1.49,9.41,2.88
	c9.44,4.87,18.26,10.88,26.64,17.41c2.51,2.06,5.42,4.23,6.12,7.63c1.4,6.04,1.81,12.26,2.42,18.43
	c-29.42,31.23-62.15,59.4-97.8,83.3c-4.76-2.82-9.45-5.89-13.4-9.81c-2.05-1.88-2.26-4.8-2.68-7.35
	c-2.23-15.98-3.62-32.06-4.98-48.12c0.03-6.03,1.65-11.94,3.83-17.52c1.28-3.48,4.47-5.61,7.33-7.7
	C441.056,977.121,457.546,965.801,474.766,955.701z"/>
<path class="st3" d="M306.326,973.361c2.53-0.66,6.14-1.03,7.55,1.76c1.77,3.89-0.58,8.58-3.8,10.97c-4.06,2.77-9.19,4.28-14.09,3.6
	c-4.06-0.82-5.89-6.6-2.7-9.4C296.976,976.971,301.586,974.731,306.326,973.361z"/>
<path class="st5" d="M128.706,983.841c2.84-1.56,5.9-3.27,9.26-2.82c4.05,1.38,5.98,5.61,7.8,9.15c-1.28,0.47-2.57,0.9-3.88,1.29
	c-2.09-0.66-3.79-2.19-5.89-2.86c0.61,7.45,4.48,14.06,7.53,20.73c-2,1.24-4.77,2.98-6.8,0.76c-3.46-4.36-5.12-9.84-7.04-14.99
	C128.256,991.511,128.216,987.611,128.706,983.841z"/>
<path class="st3" d="M573.276,982.961c2.67,12.08,10.55,22.66,20.84,29.39c-1.61,1.27-3.29,2.51-4.57,4.14
	c-0.97,2.15,0.13,4.55,0.32,6.78c-8.39-6.19-12.4-16.52-14.77-26.33C573.936,992.371,573.206,987.681,573.276,982.961z"/>
<path class="st3" d="M123.456,988.321c1.1-2.13,3.36-3.18,5.25-4.48c-0.49,3.77-0.45,7.67,0.98,11.26
	c1.92,5.15,3.58,10.63,7.04,14.99c2.03,2.22,4.8,0.48,6.8-0.76c2.11,4.41,4.76,8.53,6.9,12.92c1.1,2.12,0.11,4.94-1.99,6.02
	c-4.71,2.48-11.46,1.04-14.07-3.81c-4.53-7.81-8.48-16-11.29-24.58C121.806,996.161,121.486,991.851,123.456,988.321z"/>
<path class="st3" d="M155.986,990.931c4.45-2.14,8.46-5.6,13.54-6.07c0.28,5.7,3.12,10.64,6.26,15.23
	c-6.45,3.41-13.77,4.55-20.56,7.08c-4.84,1.93-7.84-4.35-7.15-8.33C148.056,994.381,152.796,992.791,155.986,990.931z"/>
<path class="st2" d="M518.996,1040.911c14.13-13.72,27.59-28.11,41.06-42.47c2.43,11.48,5.76,23.1,12.59,32.81
	c4.06,5.79,9.98,10.8,17.17,11.91c5.44,0.74,10.95,0.72,16.43,1.13c-43.3,52.73-93.42,99.41-145.06,143.85
	c-6.15,5.09-11.97,10.61-18.43,15.32c20.77-27.76,41.45-55.72,59.13-85.6c5.42-9.5,11.22-18.88,15.28-29.07
	c-26.75,24.35-53.98,48.18-82.44,70.51c-27.18-21.61-52.58-45.39-77.29-69.76c-26.12-26.01-51.03-53.25-74.35-81.8
	c-2.33-2.55,1.99-5.04,2.9-7.39c8.04,2.45,16.78,2.54,24.68-0.48c38.29,42.31,80.66,80.72,124.02,117.73
	C463.416,1092.751,491.906,1067.561,518.996,1040.911z"/>
</svg>
