<?xml version="1.0" encoding="utf-8"?>
<!-- Generator: Adobe Illustrator 21.0.0, SVG Export Plug-In . SVG Version: 6.00 Build 0)  -->
<svg version="1.1" id="Layer_1" xmlns="http://www.w3.org/2000/svg" xmlns:xlink="http://www.w3.org/1999/xlink" x="0px" y="0px"
	 viewBox="0 0 379.1 702.4" style="enable-background:new 0 0 379.1 702.4;" xml:space="preserve">
<style type="text/css">
	.st0{fill:#2280FF;stroke:#2280FF;stroke-width:9.375000e-02;}
</style>
<path class="st0" d="M178.2,19.1c3.9-6.3,6.9-13.1,11.4-19c2,2.2,3.3,4.9,4.9,7.3c3.9,7.9,9,15.2,13,23c4.6,7.1,8.4,14.8,12.9,22
	c2.7,5.5,6.1,10.6,9.1,16c6.6,11.7,13.7,23.2,20.2,35c1.5,2.7,3.2,5.3,4.8,8c5.1,9.6,11.1,18.9,16.2,28.5c3.2,4.6,5.6,9.9,8.7,14.6
	c4.9,9.2,10.5,17.9,15.4,27c1,2,3,3.5,3.1,6c-72-0.1-144-0.1-216,0c0.1-1.8,1.1-3.4,2.1-4.9C115.3,128.1,146.7,73.6,178.2,19.1z"/>
<path class="st0" d="M0,258c126.3-0.1,252.7,0,379,0v0.5c-40.7,70.5-81.4,141-122.1,211.5c-1.8,3.4-3.8,6.8-6,10.1
	c42.9,73.7,85.3,147.7,128.1,221.6v0.6c-15.6,0.5-31.3,0.1-47,0.2c-88,0-176,0.1-264-0.1c-22.7-0.4-45.4-0.4-68.1-0.5v-0.3
	c36.2-62.7,72.4-125.4,108.6-188.2c6.7-11,12.7-22.5,19.5-33.4C85.2,406.3,42.8,332.3,0,258.5V258 M143.7,344.8
	c2.1,4.8,4.9,9.2,7.6,13.6c3.2,6.6,7.4,12.6,10.7,19.1c9.3,15.6,18.1,31.5,27.4,47c1.4-1.5,2.3-3.3,3.2-5.1
	c8.2-13.9,16.1-28,24.4-41.9c2.6-5.2,5.9-10,8.6-15.1c3-6,7.1-11.4,9.8-17.6C204.8,344.8,174.3,344.8,143.7,344.8 M189.3,546.6
	c-7.4,13.3-15.3,26.5-22.7,39.8c-7.6,13.3-15.7,26.3-22.8,39.9c30.5-0.1,61-0.1,91.6,0c-4.6-9.4-10.4-18.1-15.4-27.3
	C209.4,581.8,200.2,563.7,189.3,546.6z"/>
</svg>
