<?xml version="1.0" encoding="utf-8"?>
<!-- Generator: Adobe Illustrator 19.0.0, SVG Export Plug-In . SVG Version: 6.00 Build 0)  -->
<svg version="1.1" id="Layer_1" xmlns="http://www.w3.org/2000/svg" xmlns:xlink="http://www.w3.org/1999/xlink" x="0px" y="0px"
	 viewBox="-22 82.89 550 676" style="enable-background:new -22 82.89 550 676;" xml:space="preserve">
<style type="text/css">
	.st0{fill:#2D97D3;}
	.st1{fill:#00253D;}
	.st2{fill:#F5821F;}
	.st3{fill:#FDB713;}
	.st4{fill:#FFFFFF;}
</style>
<g id="_x23_2d97d3ff">
	<path class="st0" d="M257.32,82.89h12.29c19.6,1.22,39.58,4.31,57.24,13.34c11.97,5.53,22.95,13.23,32.23,22.58
		c17.2,16.4,27.61,38.2,37.72,59.33c14.32,31.24,26.03,63.6,36.45,96.32c4.68,16.59,10.1,32.97,13.75,49.83
		c8.36,32.28,13.73,65.3,16.34,98.54c0.41,9.7,0.5,19.43,0.03,29.12c-1.21,11.56-3.79,22.98-7.71,33.91
		c-6.31,16.67-16.86,31.29-28.74,44.43c22.05-2.96,43.96-6.9,66.05-9.55c10.38-1.78,20.87-2.79,31.26-4.48
		c1.28-0.24,2.58-0.53,3.77-1.11v0.59c-23.7,29.03-47.24,58.19-70.94,87.23c-1.82,1.89-1.16,4.51-0.73,6.8
		c2.36-0.39,4.72-0.8,7.08-1.23c0.04,29.88,0,59.76,0.02,89.65c-29.11,3.97-58.08,8.92-87.24,12.5c-9.33,1.73-18.83,2.45-28.12,4.37
		c-16.86,5.1-35.31,6.27-52.17,0.52c-11.25,7.54-24.45,11.98-37.86,13.58c-11.18,0.85-22.73,0.77-33.35-3.31
		c-8.92,5.78-18.95,9.67-29.25,12.17c-8.97,2.17-18.3,1.49-27.34,3.15c-17.74,2.22-35.46,4.69-53.1,7.57
		c-18.3,2.76-36.67,5.04-54.97,7.81c-4.9,0.61-9.83,1.16-14.64,2.34h-1.15c-0.09-35.66,0.08-71.33-0.09-106.99
		c-20.81-17.89-41.7-35.7-62.49-53.61c-1.01-1-2.3-1.57-3.66-1.87v-1.12c26.61-4.2,53.28-7.94,79.97-11.56
		c22.01-3.58,44.1-6.61,66.19-9.61c-3.37-3.12-7-5.93-10.57-8.82c-20.9-16.98-40.71-35.29-59.03-55.04
		c-16.49-18.34-31.65-38.15-42.66-60.31c-5.6-10.2-9.15-21.34-12.61-32.4c-4.9-18.35-6.05-37.74-2.62-56.45
		c3.64-19.39,11.8-37.73,22.66-54.13c26.89-38.43,52.32-77.88,80.13-115.67c20.65-27.58,42.41-54.78,68.99-76.93
		c12.74-10.34,26.78-19.39,42.37-24.75C225.88,84.98,241.71,84.1,257.32,82.89 M215.94,103.02c-20.68,7.16-38.14,21.05-53.69,36.09
		c-24.22,23.86-44.62,51.2-64.38,78.76c-20.22,28.56-39.51,57.75-59.37,86.55c-4.74,7-9.92,13.74-13.77,21.31
		c-8.08,13.83-12.81,29.44-15.08,45.24c-0.85,10.92-0.95,22.05,1.29,32.83c2.69,12.92,6.45,25.75,12.6,37.48
		c4.25,8.45,8.45,17.11,14.55,24.4c0.8-16.33,3.26-32.62,7.52-48.42c7.62-31.45,22.15-61.19,42.04-86.69
		c26.78-34.73,63.01-60.74,100.87-82.15c26.63-14.87,54.85-26.8,83.96-35.88c26.02-7.6,52.63-13.92,79.79-15.27
		c1.38,20.3,4.15,40.87,12.28,59.69c7.52,19.63,19.38,37.12,30.69,54.69c23.03,35.44,36.69,77,38.76,119.24
		c1.49,26.1-2.55,52.77-13.51,76.63c-3.69,7.86-8.86,14.85-13.45,22.17c4.89-5.36,10.51-10.03,15.08-15.69
		c12.22-14.3,21.59-31.46,24.94-50.09c3.42-16.8,2.3-34.1,0.92-51.06c-1.99-20.18-4.7-40.34-9.35-60.1
		c-3.23-15.2-6.43-30.44-10.96-45.32c-3.46-12.71-6.8-25.47-11.17-37.91c-5.51-18.36-12.29-36.29-18.98-54.24
		c-4.62-10.46-8.35-21.3-13.51-31.52c-8.44-18.44-17.68-37.17-32.44-51.45c-18.53-18.92-44.04-30.1-70.12-33.49
		c-9.46-0.88-18.96-1.7-28.48-1.2C240.55,98.65,227.88,99.07,215.94,103.02 M316.46,269.53c-14.01,4.72-28.35,8.46-42.23,13.61
		c-25.02,8.38-49.58,18.04-73.85,28.4c-27.98,12.33-55.6,25.66-81.76,41.54c0.52-9.64,3.58-18.9,5.34-28.34
		c-11.45,12.17-20.08,26.67-27.99,41.31c-5.83,12.16-11.57,24.41-15.66,37.29c-3.59,10.39-7.03,20.88-9.16,31.69
		c-0.49,3.12-1.91,6.3-1.05,9.49c1.92,8.43,5.25,16.45,9.11,24.17c4.99,11.21,11.45,21.66,17.65,32.23
		c13.48,21.56,28.16,42.37,43.65,62.53c6.34,7.46,13.58,14.11,21.76,19.52c-22.75,3.4-45.58,6.26-68.3,9.85
		c-27.53,4.39-55.25,7.47-82.73,12.13c15.87,13.32,31.39,27.05,47.3,40.32c0,32.35,0.03,64.7-0.01,97.04
		c35.42-4.68,70.65-10.75,106.14-14.97c0.13-0.66,0.38-2,0.51-2.66c5.23,0.77,10.54,1.49,15.83,0.79
		c14.85-1.2,30.23-5.65,41.1-16.32c8.94,4.29,18.84,6.9,28.82,6.21c12.21-0.98,24.65-3.75,35.1-10.38c2.89-1.73,5.07-4.4,7.99-6.06
		c4.07,1.37,7.81,3.65,12.06,4.55c13.34,3.88,27.41,0.97,40.35-3.04c33.36-3.83,66.4-9.87,99.72-14.01c0.89-0.27,3.01,0.1,2.6-1.51
		c0.07-19.94,0.05-39.89,0.01-59.84c-2.33,0.32-4.64,0.64-6.96,0.95c0.07-8.76-0.12-17.53,0.07-26.28
		c4.08-6.69,9.81-12.23,14.49-18.5c12.49-15.44,25.12-30.77,37.5-46.28c-13.85,1.75-27.58,4.39-41.45,6.02
		c-15.42,2.35-30.89,4.17-46.29,6.63c-13.97,2.11-27.92,4.41-41.96,6.02c10.52-9.88,19.81-21.18,26.74-33.88
		c12-21.37,18.05-45.64,20.4-69.9c0.19-9.68,1.53-19.35,0.48-29.02c-0.15-9.04-0.77-18.07-2.31-26.99
		c-0.73-3.45-0.5-7.19-2.15-10.37c-10.8-17.32-24.41-32.68-38.94-46.94c-18.54-17.65-38.56-33.83-60.09-47.7
		c6.18-8.53,14.39-15.32,21.73-22.82C325.39,266.7,320.99,268.39,316.46,269.53z"/>
	<path class="st0" d="M269.45,430.38c-0.14-14.88,1.65-30.42,9.1-43.57c-1.78,12.36-0.32,24.83,0.99,37.16
		c0.34,2.99,0.22,6.2,1.45,9c12.91,3.08,25.18,8.36,37.28,13.75c10.57,5.31,21.73,10.14,33.67,11.01c2.62,0.29,6.06-0.2,7.54,2.59
		c1.25,3.08-1.05,6.03-2.51,8.59c-3.06,5-9.27,7.46-14.97,6.35c-15.8-2.56-31.91-4.82-47.91-2.69c11.64,3.5,24.44,5.72,33.86,14.07
		c-3.17,8.01-6.43,16.01-10.77,23.47c-4.89,9.22-10.45,18.39-18.25,25.45c-9.3-1-18.8-2.2-28.07-0.1c6.74,2.57,14.18,3.51,20.4,7.4
		c-5.12,4.96-10.69,9.42-15.79,14.4c-3.7,3.34-6.88,7.24-10.66,10.49c-6.49,1.72-13.27,1.94-19.85,3.21
		c-3.96,0.78-7.95,1.4-11.97,1.77c-2.71-14.19,1.3-28.88,9-40.87c6.97-12.87,13.03-26.44,16.07-40.82
		c1.53-10.38,2.45-22.14-3.87-31.21c-6.5-9.14-18.53-11.87-29.14-11.78c-11.71-0.49-22.42,5.52-34.07,5.62
		c-10.33,0.37-21.63-0.04-30.28-6.44c-7.98-5.28-13.06-13.87-21.31-18.79c-5.65-3.8-12.31-5.7-19.05-6.29
		c0-0.15-0.01-0.44-0.02-0.58c6.16-1.19,12.56-0.73,18.61,0.8c9.13,2.31,16.72,8.13,24.73,12.79c8.83,4.87,19.39,3.63,28.8,1.42
		c17.8-4.64,35.96-9.12,54.49-8.71C254.51,428.06,261.96,429.45,269.45,430.38z"/>
</g>
<g id="_x23_00253dff">
	<path class="st1" d="M215.94,103.02c11.94-3.95,24.61-4.37,37.03-5.4c9.52-0.5,19.02,0.32,28.48,1.2
		c26.08,3.39,51.59,14.57,70.12,33.49c14.76,14.28,24,33.01,32.44,51.45c5.16,10.22,8.89,21.06,13.51,31.52
		c6.69,17.95,13.47,35.88,18.98,54.24c4.37,12.44,7.71,25.2,11.17,37.91c4.53,14.88,7.73,30.12,10.96,45.32
		c4.65,19.76,7.36,39.92,9.35,60.1c1.38,16.96,2.5,34.26-0.92,51.06c-3.35,18.63-12.72,35.79-24.94,50.09
		c-4.57,5.66-10.19,10.33-15.08,15.69c4.59-7.32,9.76-14.31,13.45-22.17c10.96-23.86,15-50.53,13.51-76.63
		c-2.07-42.24-15.73-83.8-38.76-119.24c-11.31-17.57-23.17-35.06-30.69-54.69c-8.13-18.82-10.9-39.39-12.28-59.69
		c-27.16,1.35-53.77,7.67-79.79,15.27c-29.11,9.08-57.33,21.01-83.96,35.88c-37.86,21.41-74.09,47.42-100.87,82.15
		c-19.89,25.5-34.42,55.24-42.04,86.69c-4.26,15.8-6.72,32.09-7.52,48.42c-6.1-7.29-10.3-15.95-14.55-24.4
		c-6.15-11.73-9.91-24.56-12.6-37.48c-2.24-10.78-2.14-21.91-1.29-32.83c2.27-15.8,7-31.41,15.08-45.24
		c3.85-7.57,9.03-14.31,13.77-21.31c19.86-28.8,39.15-57.99,59.37-86.55c19.76-27.56,40.16-54.9,64.38-78.76
		C177.8,124.07,195.26,110.18,215.94,103.02z"/>
	<path class="st1" d="M316.46,269.53c4.53-1.14,8.93-2.83,13.56-3.52c-7.34,7.5-15.55,14.29-21.73,22.82
		c21.53,13.87,41.55,30.05,60.09,47.7c14.53,14.26,28.14,29.62,38.94,46.94c1.65,3.18,1.42,6.92,2.15,10.37
		c1.54,8.92,2.16,17.95,2.31,26.99c1.05,9.67-0.29,19.34-0.48,29.02c-2.35,24.26-8.4,48.53-20.4,69.9
		c-6.93,12.7-16.22,24-26.74,33.88c14.04-1.61,27.99-3.91,41.96-6.02c15.4-2.46,30.87-4.28,46.29-6.63
		c13.87-1.63,27.6-4.27,41.45-6.02c-12.38,15.51-25.01,30.84-37.5,46.28c-4.68,6.27-10.41,11.81-14.49,18.5
		c-0.19,8.75,0,17.52-0.07,26.28c2.32-0.31,4.63-0.63,6.96-0.95c0.04,19.95,0.06,39.9-0.01,59.84c0.41,1.61-1.71,1.24-2.6,1.51
		c-33.32,4.14-66.36,10.18-99.72,14.01c-12.94,4.01-27.01,6.92-40.35,3.04c-4.25-0.9-7.99-3.18-12.06-4.55
		c-2.92,1.66-5.1,4.33-7.99,6.06c-10.45,6.63-22.89,9.4-35.1,10.38c-9.98,0.69-19.88-1.92-28.82-6.21
		c-10.87,10.67-26.25,15.12-41.1,16.32c-5.29,0.7-10.6-0.02-15.83-0.79c-0.13,0.66-0.38,2-0.51,2.66
		c-35.49,4.22-70.72,10.29-106.14,14.97c0.04-32.34,0.01-64.69,0.01-97.04c-15.91-13.27-31.43-27-47.3-40.32
		c27.48-4.66,55.2-7.74,82.73-12.13c22.72-3.59,45.55-6.45,68.3-9.85c-8.18-5.41-15.42-12.06-21.76-19.52
		c-15.49-20.16-30.17-40.97-43.65-62.53c-6.2-10.57-12.66-21.02-17.65-32.23c-3.86-7.72-7.19-15.74-9.11-24.17
		c-0.86-3.19,0.56-6.37,1.05-9.49c2.13-10.81,5.57-21.3,9.16-31.69c4.09-12.88,9.83-25.13,15.66-37.29
		c7.91-14.64,16.54-29.14,27.99-41.31c-1.76,9.44-4.82,18.7-5.34,28.34c26.16-15.88,53.78-29.21,81.76-41.54
		c24.27-10.36,48.83-20.02,73.85-28.4C288.11,277.99,302.45,274.25,316.46,269.53 M285.62,297.12c-4.52,0.87-8.79,2.66-13.24,3.78
		l-0.11,0.32c-8.09,2.19-15.69,5.85-23.63,8.5c-16.49,6.64-32.83,13.78-48.55,22.1c-4.06,1.74-7.9,3.95-11.77,6.07
		c2.86,12.4,10.46,23.39,20.21,31.43c3.87,3.17,7.96,6.27,12.78,7.85c0.61,0.62,1.45,0.96,2.19,1.42
		c-2.73-6.83-4.87-15.14-0.45-21.76c2.85-4.55,8.58-5.64,13.56-5.32c-2.29-4.96-3.91-10.19-5.16-15.5
		c3.88,6.14,8.1,12.1,13.11,17.39c12.5,13.17,26.67,25.05,42.9,33.34l0.04,0.33c1.28,0.52,2.57,1.03,3.87,1.52
		c-1.6-7.78-1.81-15.78-2.57-23.68c0.63-12.05,1.79-25.05,8.94-35.19c-1.45,7.36-1.3,14.93-0.6,22.37c1.61-1.34,3.25-2.65,4.81-4.05
		c5.4-2.63,11.93-3.37,17.17,0.09c8.27,5.92,8.93,16.99,8.55,26.25l-0.62,1.11c10.44,0.62,18.61-7.3,26.61-12.87
		c-0.06,8.66-0.15,17.34,0.04,26c0.28-0.24,0.84-0.73,1.12-0.97c6.67-1.92,12.92-5.28,18.37-9.55c2.14-1.71,4.57-4.54,3.11-7.43
		c-2.41-3.4-5.6-6.17-8.49-9.14c-3.74-4.98-9.06-8.6-13.3-13.16c-6.79-5.93-13.51-11.98-20.75-17.34c-0.27-0.29-0.79-0.86-1.05-1.14
		c-7.1-5.44-14.31-10.73-21.39-16.19c-7.57-5.05-14.83-10.54-22.49-15.46C287.83,297.71,286.83,296.77,285.62,297.12 M148.72,356.68
		c-5.26,2.74-10.42,5.67-15.34,8.99c6.22,15.99,20.38,29.12,37.28,32.77c-0.38-0.81-0.76-1.63-1.14-2.43l-0.33,0.61
		c-1.58-3.67-3.59-7.14-5-10.89c-3.87-11.24-3.81-23.64-0.34-34.97C158.67,352.39,153.69,354.53,148.72,356.68 M184.37,365.28
		c5.08,12,11.31,24.11,21.75,32.33c8.53,6.42,20.26,9.14,30.37,4.97c1.44-0.77,3.67-0.87,4.23-2.67
		c-7.64-3.21-14.41-8.07-21.6-12.12C207.31,380.64,195.87,372.9,184.37,365.28 M269.45,430.38c-7.49-0.93-14.94-2.32-22.5-2.51
		c-18.53-0.41-36.69,4.07-54.49,8.71c-9.41,2.21-19.97,3.45-28.8-1.42c-8.01-4.66-15.6-10.48-24.73-12.79
		c-6.05-1.53-12.45-1.99-18.61-0.8c0.01,0.14,0.02,0.43,0.02,0.58c6.74,0.59,13.4,2.49,19.05,6.29
		c8.25,4.92,13.33,13.51,21.31,18.79c8.65,6.4,19.95,6.81,30.28,6.44c11.65-0.1,22.36-6.11,34.07-5.62
		c10.61-0.09,22.64,2.64,29.14,11.78c6.32,9.07,5.4,20.83,3.87,31.21c-3.04,14.38-9.1,27.95-16.07,40.82
		c-7.7,11.99-11.71,26.68-9,40.87c4.02-0.37,8.01-0.99,11.97-1.77c6.58-1.27,13.36-1.49,19.85-3.21c3.78-3.25,6.96-7.15,10.66-10.49
		c5.1-4.98,10.67-9.44,15.79-14.4c-6.22-3.89-13.66-4.83-20.4-7.4c9.27-2.1,18.77-0.9,28.07,0.1c7.8-7.06,13.36-16.23,18.25-25.45
		c4.34-7.46,7.6-15.46,10.77-23.47c-9.42-8.35-22.22-10.57-33.86-14.07c16-2.13,32.11,0.13,47.91,2.69
		c5.7,1.11,11.91-1.35,14.97-6.35c1.46-2.56,3.76-5.51,2.51-8.59c-1.48-2.79-4.92-2.3-7.54-2.59c-11.94-0.87-23.1-5.7-33.67-11.01
		c-12.1-5.39-24.37-10.67-37.28-13.75c-1.23-2.8-1.11-6.01-1.45-9c-1.31-12.33-2.77-24.8-0.99-37.16
		C271.1,399.96,269.31,415.5,269.45,430.38 M344.23,403.16c-11.89,2.83-23.93,5.15-36.11,6.36c2.67,6.62,10.3,10.25,17.16,8.43
		c12.69-2.96,25.4-8.95,33.59-19.43C354.23,400.73,349.12,401.66,344.23,403.16 M379.04,575c-2.81,0.35-5.6,0.79-8.32,1.57
		c0.33,32.37-0.24,64.76,0.27,97.12c6-0.6,11.95-1.54,17.92-2.34c12.21-2.38,24.65-3.41,36.84-5.83c-0.16-4.47-0.09-8.94-0.07-13.4
		c-11.48,1.41-22.96,2.86-34.38,4.72c-0.23-3.98,0.16-7.98-0.32-11.94c0.26-5.46,0.26-10.94,0.17-16.41
		c9.26-1.17,18.39-3.17,27.68-4.1c0.1-4.7,0.03-9.4,0.04-14.1c-9.04,1.03-18,2.75-27.02,3.87c-0.31-0.22-0.93-0.65-1.24-0.87
		c0.46-1.42,0.66-2.88,0.63-4.36c-0.05-7.21,0-14.41-0.04-21.61c11.37-2.04,22.9-3.02,34.26-5.06c4.5-5.13,9.08-10.28,12.8-16.02
		C418.51,569.1,398.81,572.33,379.04,575 M338.47,580.62c-0.37,26.11-0.01,52.24-0.18,78.35c-1.05,2.19-1.89,4.75-4.12,6.04
		c-3.67,1.88-8.04,2.99-12.1,1.9c-2.97-0.94-4.77-3.97-4.55-7.01c-0.03-25.25-0.06-50.5,0.01-75.75
		c-6.71,0.33-13.27,1.92-19.94,2.53c-0.19,24.41-0.01,48.83-0.09,73.24c0.01,6.23,1.2,13.23,6.39,17.34
		c5.95,4.59,13.98,5.35,21.22,4.46c5.83-1.05,11.77-2.02,17.08-4.8c8.97-3.93,15.16-13.24,15.25-23.05
		c0.06-25.24-0.01-50.48,0.04-75.71C351.06,578.36,344.88,580.39,338.47,580.62 M229.28,606.17c-5.62,8.99-3.26,19.98-3.76,29.99
		c6.74-0.83,13.45-1.89,20.18-2.81c0.02-6.18-0.19-12.38,0.07-18.56c0.36-4.41,4-8.1,8.36-8.69c4.1-0.99,10.18-1.17,11.82,3.69
		c1.26,4.65,0.31,9.6,0.59,14.37c6.25-0.99,12.5-1.99,18.77-2.81c-0.09-5.84,0.56-11.82-1.1-17.5c-1.17-4.5-4.54-8.24-8.68-10.26
		c-6.27-3.27-13.63-2.59-20.42-1.92C245.31,593.47,234.73,597.22,229.28,606.17 M180.78,602.54c-9.6,2.08-19.97,6.48-24.5,15.83
		c-4.74,8.78-2.72,18.94-3.17,28.46c6.84-0.27,13.48-2.06,20.28-2.64c0.16-6.75-0.31-13.52,0.25-20.24
		c1.46-6.64,9.55-8.76,15.44-7.64c3.3,0.36,4.66,3.69,5.17,6.53c0.04,6.2-0.05,12.4,0.06,18.6c6.62-1.52,13.5-1.51,20.11-3.08
		c-0.16-5.81,0.01-11.63-0.08-17.45c-0.13-5.72-2.39-11.75-7.26-15.08C199.6,600.17,189.49,601.04,180.78,602.54 M102.92,614.79
		c-8.94,1.66-17.96,2.97-27,3.87l-0.79,0.45c-3.19,0.18-6.33,0.74-9.46,1.34c4.75,5.21,10.37,9.59,15.88,13.98
		c0.11,27.15-0.08,54.31,0.1,81.47c6.63-1.51,13.44-2.07,20.12-3.38c-0.23-13.04,0.13-26.1-0.19-39.14
		c4.46-1.18,9.28-1.93,13.87-1.27c4.63,0.54,6.3,5.69,6.38,9.7c0.12,9.3,0.01,18.6,0.05,27.9c6.61-0.64,13.14-1.92,19.76-2.51
		c0.21-8.78,0.04-17.56,0.1-26.34c0.01-4.67-0.3-9.67-3.04-13.64c-2.11-3.47-6.14-5.04-9.92-5.9c2.17-1.74,4.57-3.17,6.61-5.07
		c4.21-4.29,6.28-10.39,6.15-16.35c-0.17-5.93,0.78-12.18-1.67-17.79c-1.9-4.43-6.19-7.56-10.87-8.48
		C120.35,611.47,111.55,613.88,102.92,614.79 M221.94,640.77c-11.59,1.98-23.33,2.9-34.91,4.95c-14.68,1.87-29.26,4.46-43.96,6.25
		c5.61,0.8,11.29,0.46,16.93,0.63c16.99,1.02,34.04,0.5,51.06,0.54c6.96-0.62,13.96-0.6,20.94-0.86
		c11.54-1.18,23.16-1.61,34.58-3.81c-0.09,6.14,0.03,12.27-0.05,18.41c0.08,3.46-1.58,7.05-4.7,8.74c-3.48,1.71-7.5,2.26-11.32,1.66
		c-2.87-0.62-4.7-3.54-4.79-6.34c-0.16-5.29-0.01-10.58-0.05-15.86c-6.73,0.45-13.6-0.18-20.23,1.26c0.22,5.83-0.07,11.67,0.15,17.5
		c0.34,5.43,2.45,11.22,7.22,14.26c7.61,5.27,17.51,4.22,26.16,2.83c8.21-1.81,16.98-5.07,21.79-12.41
		c3.43-4.79,4.59-10.79,4.58-16.59c-0.04-10,0.04-19.99-0.05-29.99C264.08,634.17,243.11,638.2,221.94,640.77 M153.21,655.55
		c-0.18,8.76-0.02,17.52-0.09,26.28c-0.1,8.08,4.33,16.74,12.49,19.18c9.94,2.69,20.71,1.3,30.28-2.22
		c8.73-3.09,16.3-10.61,17.87-19.94c1.26-7.45,0.26-15.05,0.65-22.55c-6.71-0.09-13.41,0.21-20.11,0.14
		c-0.08,6.15-0.04,12.3-0.02,18.46c0.03,2.78-0.4,5.63-1.6,8.16c-2.36,4.07-7.42,4.96-11.72,5.19c-3.7,0.24-7.57-2.45-7.47-6.43
		c-0.23-8.51-0.02-17.03-0.09-25.54C166.67,656.14,159.89,656.57,153.21,655.55z"/>
	<path class="st1" d="M101.68,629.29c4.05-0.79,8.15-1.42,12.27-1.72c2.77-0.26,5.87,1.05,6.8,3.86c1.4,3.97,0.64,8.29,0.84,12.42
		c0.14,3.86-0.47,8.35-3.75,10.87c-4.6,3.49-10.71,3.15-16.12,4.27C101.67,649.09,101.74,639.19,101.68,629.29z"/>
</g>
<g id="_x23_f5821fff">
	<path class="st2" d="M285.62,297.12c1.21-0.35,2.21,0.59,3.21,1.12c7.66,4.92,14.92,10.41,22.49,15.46
		c0.12,4.56,0.4,9.21-0.82,13.66c-1.97,7.55-6.48,14.03-10.03,20.89l1.48-0.21c-1.56,1.4-3.2,2.71-4.81,4.05
		c-0.7-7.44-0.85-15.01,0.6-22.37c-7.15,10.14-8.31,23.14-8.94,35.19c0.76,7.9,0.97,15.9,2.57,23.68c-1.3-0.49-2.59-1-3.87-1.52
		l-0.04-0.33c-0.05-0.4-0.15-1.21-0.2-1.61c-7.5-7.87-14.56-16.36-19.34-26.2c-5.06-9.32-8.71-19.53-9.65-30.14
		c3.12,2.75,5.3,6.34,8.03,9.46c0.01-5.5-0.55-11.03,0.32-16.5c0.85-7.09,3.29-13.83,5.65-20.53l0.11-0.32
		C276.83,299.78,281.1,297.99,285.62,297.12z"/>
	<path class="st2" d="M332.71,329.89c0.26,0.28,0.78,0.85,1.05,1.14c2.83,6.21,4.02,13.03,4,19.83c-0.93-0.93-1.85-1.85-2.77-2.78
		c-1.2,9.01-2.61,18.36-7.32,26.3c0.38-9.26-0.28-20.33-8.55-26.25C325.62,343.9,331.02,337.61,332.71,329.89z"/>
	<path class="st2" d="M188.32,337.89c3.87-2.12,7.71-4.33,11.77-6.07c1.88,10.35,4.56,20.77,10.1,29.84
		c2.93,5.7,7.33,10.4,11.12,15.51c-4.82-1.58-8.91-4.68-12.78-7.85C198.78,361.28,191.18,350.29,188.32,337.89z"/>
	<path class="st2" d="M133.38,365.67c4.92-3.32,10.08-6.25,15.34-8.99c-0.32,5.43-0.36,10.99,1.29,16.23
		c3.13,10.1,10.12,18.63,18.66,24.71c0.13-0.25,0.39-0.75,0.52-1l0.33-0.61c0.38,0.8,0.76,1.62,1.14,2.43
		C153.76,394.79,139.6,381.66,133.38,365.67z"/>
	<path class="st2" d="M367.81,361.53c2.89,2.97,6.08,5.74,8.49,9.14c1.46,2.89-0.97,5.72-3.11,7.43c-5.45,4.27-11.7,7.63-18.37,9.55
		c2.2-4.86,4.85-9.52,6.66-14.55c0.95,1.02,1.9,2.04,2.87,3.07C366.64,371.63,367.14,366.5,367.81,361.53z"/>
</g>
<g id="_x23_fdb713ff">
	<path class="st3" d="M248.64,309.72c7.94-2.65,15.54-6.31,23.63-8.5c-2.36,6.7-4.8,13.44-5.65,20.53c-0.87,5.47-0.31,11-0.32,16.5
		c-2.73-3.12-4.91-6.71-8.03-9.46c0.94,10.61,4.59,20.82,9.65,30.14c4.78,9.84,11.84,18.33,19.34,26.2c0.05,0.4,0.15,1.21,0.2,1.61
		c-16.23-8.29-30.4-20.17-42.9-33.34c-5.01-5.29-9.23-11.25-13.11-17.39c1.25,5.31,2.87,10.54,5.16,15.5
		c-4.98-0.32-10.71,0.77-13.56,5.32c-4.42,6.62-2.28,14.93,0.45,21.76c-0.74-0.46-1.58-0.8-2.19-1.42
		c-3.79-5.11-8.19-9.81-11.12-15.51c-5.54-9.07-8.22-19.49-10.1-29.84C215.81,323.5,232.15,316.36,248.64,309.72z"/>
	<path class="st3" d="M311.32,313.7c7.08,5.46,14.29,10.75,21.39,16.19c-1.69,7.72-7.09,14.01-13.59,18.24
		c-5.24-3.46-11.77-2.72-17.17-0.09l-1.48,0.21c3.55-6.86,8.06-13.34,10.03-20.89C311.72,322.91,311.44,318.26,311.32,313.7z"/>
	<path class="st3" d="M333.76,331.03c7.24,5.36,13.96,11.41,20.75,17.34c4.24,4.56,9.56,8.18,13.3,13.16
		c-0.67,4.97-1.17,10.1-3.46,14.64c-0.97-1.03-1.92-2.05-2.87-3.07c-1.81,5.03-4.46,9.69-6.66,14.55c-0.28,0.24-0.84,0.73-1.12,0.97
		c-0.19-8.66-0.1-17.34-0.04-26c-8,5.57-16.17,13.49-26.61,12.87l0.62-1.11c4.71-7.94,6.12-17.29,7.32-26.3
		c0.92,0.93,1.84,1.85,2.77,2.78C337.78,344.06,336.59,337.24,333.76,331.03z"/>
	<path class="st3" d="M148.72,356.68c4.97-2.15,9.95-4.29,15.13-5.92c-3.47,11.33-3.53,23.73,0.34,34.97
		c1.41,3.75,3.42,7.22,5,10.89c-0.13,0.25-0.39,0.75-0.52,1c-8.54-6.08-15.53-14.61-18.66-24.71
		C148.36,367.67,148.4,362.11,148.72,356.68z"/>
</g>
<g id="_x23_ffffffff">
	<path class="st4" d="M184.37,365.28c11.5,7.62,22.94,15.36,34.75,22.51c7.19,4.05,13.96,8.91,21.6,12.12
		c-0.56,1.8-2.79,1.9-4.23,2.67c-10.11,4.17-21.84,1.45-30.37-4.97C195.68,389.39,189.45,377.28,184.37,365.28z"/>
	<path class="st4" d="M344.23,403.16c4.89-1.5,10-2.43,14.64-4.64c-8.19,10.48-20.9,16.47-33.59,19.43
		c-6.86,1.82-14.49-1.81-17.16-8.43C320.3,408.31,332.34,405.99,344.23,403.16z"/>
	<path class="st4" d="M379.04,575c19.77-2.67,39.47-5.9,59.22-8.76c-3.72,5.74-8.3,10.89-12.8,16.02
		c-11.36,2.04-22.89,3.02-34.26,5.06c0.04,7.2-0.01,14.4,0.04,21.61c0.03,1.48-0.17,2.94-0.63,4.36c0.31,0.22,0.93,0.65,1.24,0.87
		c9.02-1.12,17.98-2.84,27.02-3.87c-0.01,4.7,0.06,9.4-0.04,14.1c-9.29,0.93-18.42,2.93-27.68,4.1c0.09,5.47,0.09,10.95-0.17,16.41
		c0.48,3.96,0.09,7.96,0.32,11.94c11.42-1.86,22.9-3.31,34.38-4.72c-0.02,4.46-0.09,8.93,0.07,13.4
		c-12.19,2.42-24.63,3.45-36.84,5.83c-5.97,0.8-11.92,1.74-17.92,2.34c-0.51-32.36,0.06-64.75-0.27-97.12
		C373.44,575.79,376.23,575.35,379.04,575z"/>
	<path class="st4" d="M338.47,580.62c6.41-0.23,12.59-2.26,19.01-2.46c-0.05,25.23,0.02,50.47-0.04,75.71
		c-0.09,9.81-6.28,19.12-15.25,23.05c-5.31,2.78-11.25,3.75-17.08,4.8c-7.24,0.89-15.27,0.13-21.22-4.46
		c-5.19-4.11-6.38-11.11-6.39-17.34c0.08-24.41-0.1-48.83,0.09-73.24c6.67-0.61,13.23-2.2,19.94-2.53
		c-0.07,25.25-0.04,50.5-0.01,75.75c-0.22,3.04,1.58,6.07,4.55,7.01c4.06,1.09,8.43-0.02,12.1-1.9c2.23-1.29,3.07-3.85,4.12-6.04
		C338.46,632.86,338.1,606.73,338.47,580.62z"/>
	<path class="st4" d="M229.28,606.17c5.45-8.95,16.03-12.7,25.83-14.5c6.79-0.67,14.15-1.35,20.42,1.92
		c4.14,2.02,7.51,5.76,8.68,10.26c1.66,5.68,1.01,11.66,1.1,17.5c-6.27,0.82-12.52,1.82-18.77,2.81c-0.28-4.77,0.67-9.72-0.59-14.37
		c-1.64-4.86-7.72-4.68-11.82-3.69c-4.36,0.59-8,4.28-8.36,8.69c-0.26,6.18-0.05,12.38-0.07,18.56c-6.73,0.92-13.44,1.98-20.18,2.81
		C226.02,626.15,223.66,615.16,229.28,606.17z"/>
	<path class="st4" d="M180.78,602.54c8.71-1.5,18.82-2.37,26.3,3.29c4.87,3.33,7.13,9.36,7.26,15.08
		c0.09,5.82-0.08,11.64,0.08,17.45c-6.61,1.57-13.49,1.56-20.11,3.08c-0.11-6.2-0.02-12.4-0.06-18.6c-0.51-2.84-1.87-6.17-5.17-6.53
		c-5.89-1.12-13.98,1-15.44,7.64c-0.56,6.72-0.09,13.49-0.25,20.24c-6.8,0.58-13.44,2.37-20.28,2.64
		c0.45-9.52-1.57-19.68,3.17-28.46C160.81,609.02,171.18,604.62,180.78,602.54z"/>
	<path class="st4" d="M102.92,614.79c8.63-0.91,17.43-3.32,26.08-1.16c4.68,0.92,8.97,4.05,10.87,8.48
		c2.45,5.61,1.5,11.86,1.67,17.79c0.13,5.96-1.94,12.06-6.15,16.35c-2.04,1.9-4.44,3.33-6.61,5.07c3.78,0.86,7.81,2.43,9.92,5.9
		c2.74,3.97,3.05,8.97,3.04,13.64c-0.06,8.78,0.11,17.56-0.1,26.34c-6.62,0.59-13.15,1.87-19.76,2.51c-0.04-9.3,0.07-18.6-0.05-27.9
		c-0.08-4.01-1.75-9.16-6.38-9.7c-4.59-0.66-9.41,0.09-13.87,1.27c0.32,13.04-0.04,26.1,0.19,39.14
		c-6.68,1.31-13.49,1.87-20.12,3.38c-0.18-27.16,0.01-54.32-0.1-81.47c-5.51-4.39-11.13-8.77-15.88-13.98
		c3.13-0.6,6.27-1.16,9.46-1.34l0.79-0.45C84.96,617.76,93.98,616.45,102.92,614.79 M101.68,629.29c0.06,9.9-0.01,19.8,0.04,29.7
		c5.41-1.12,11.52-0.78,16.12-4.27c3.28-2.52,3.89-7.01,3.75-10.87c-0.2-4.13,0.56-8.45-0.84-12.42c-0.93-2.81-4.03-4.12-6.8-3.86
		C109.83,627.87,105.73,628.5,101.68,629.29z"/>
	<path class="st4" d="M221.94,640.77c21.17-2.57,42.14-6.6,63.35-8.83c0.09,10,0.01,19.99,0.05,29.99c0.01,5.8-1.15,11.8-4.58,16.59
		c-4.81,7.34-13.58,10.6-21.79,12.41c-8.65,1.39-18.55,2.44-26.16-2.83c-4.77-3.04-6.88-8.83-7.22-14.26
		c-0.22-5.83,0.07-11.67-0.15-17.5c6.63-1.44,13.5-0.81,20.23-1.26c0.04,5.28-0.11,10.57,0.05,15.86c0.09,2.8,1.92,5.72,4.79,6.34
		c3.82,0.6,7.84,0.05,11.32-1.66c3.12-1.69,4.78-5.28,4.7-8.74c0.08-6.14-0.04-12.27,0.05-18.41c-11.42,2.2-23.04,2.63-34.58,3.81
		c-6.98,0.26-13.98,0.24-20.94,0.86c-17.02-0.04-34.07,0.48-51.06-0.54c-5.64-0.17-11.32,0.17-16.93-0.63
		c14.7-1.79,29.28-4.38,43.96-6.25C198.61,643.67,210.35,642.75,221.94,640.77z"/>
	<path class="st4" d="M153.21,655.55c6.68,1.02,13.46,0.59,20.19,0.73c0.07,8.51-0.14,17.03,0.09,25.54
		c-0.1,3.98,3.77,6.67,7.47,6.43c4.3-0.23,9.36-1.12,11.72-5.19c1.2-2.53,1.63-5.38,1.6-8.16c-0.02-6.16-0.06-12.31,0.02-18.46
		c6.7,0.07,13.4-0.23,20.11-0.14c-0.39,7.5,0.61,15.1-0.65,22.55c-1.57,9.33-9.14,16.85-17.87,19.94
		c-9.57,3.52-20.34,4.91-30.28,2.22c-8.16-2.44-12.59-11.1-12.49-19.18C153.19,673.07,153.03,664.31,153.21,655.55z"/>
</g>
</svg>
