<?xml version="1.0" encoding="utf-8"?>
<!-- Generator: Adobe Illustrator 19.0.0, SVG Export Plug-In . SVG Version: 6.00 Build 0)  -->
<svg version="1.1" id="Layer_1" xmlns="http://www.w3.org/2000/svg" xmlns:xlink="http://www.w3.org/1999/xlink" x="0px" y="0px"
	 viewBox="365.1 67.7 671.1 691" style="enable-background:new 365.1 67.7 671.1 691;" xml:space="preserve">
<style type="text/css">
	.st0{fill:#EAE2AC;}
	.st1{fill:#1A1D2C;}
	.st2{fill:#C4B177;}
</style>
<g id="_x23_eae2acff">
	<path class="st0" d="M735.6,81.5c5.3-4.7,10.6-9.2,16-13.8c2.6,25.2,4.6,51-0.3,76.1c-1,5.5-3.9,10.3-7.6,14.3
		c-1.9,4.8-3.2,9.8-4.6,14.8c-5,23.4-4.9,49.3,7.3,70.6c6.5,1.6,12.5,5.7,15.5,11.8c3.3,0.8,6.7,1.9,10.2,1.7
		c12.8,0.2,26.8,2.4,36.5,11.5c3.5,2.9,6.1,6.6,7.9,10.7c15,2.2,30.5,6.9,42,17.3c6.5,5.9,7.6,15.2,6.5,23.5c1,5.7,2,11.4,4.3,16.8
		c3.8,10.2,4.6,22.2-0.4,32.1c-2.3,4.7-6,8.5-9.8,12.1c-3,5.9-7.1,11.2-12.1,15.6c5,5.6,9.1,12,12.5,18.8c2.1,4.4,2.9,9.4,2.5,14.3
		c11.7,13.3,18.3,30.7,19.8,48.2c0.8,9.9-0.9,19.9-4.7,29c27.9-7.3,55.9-14.5,82.7-25.4c7.7-2.9,14.5-7.5,21.5-11.8
		c4.4,10.6,9.4,22.5,20.3,27.9c8.8,2.7,17.8,4.7,26.6,7.2c-3.8,3.6-7.2,7.6-11,11.3c-3.7,3.7-6.3,8.6-6.3,13.9c0,13.7,0,27.3,0,41
		c-0.1,4.7,2,9.6,5.8,12.5c6.6,5.1,13.1,10.3,19.7,15.4c-11.8,1.1-23.7,2.4-35.5,3.5c8.6,9.2,20.2,14.7,30.7,21.4
		c-5.3,2.7-10.7,5-15.9,7.7c-3.1,1.6-4.9,5.1-4.7,8.5c0,19.7,0,39.3,0,59c-0.1,5,1.8,10.2,5.9,13.3c5.4,4.3,10.7,8.7,16,13
		c-14,3.5-29.5,4.8-41,14.4c-5.8,4.5-5.9,12.4-8.1,18.9c-20-10.3-40.7-19.1-61.6-27.3c-27.7-10.7-56.1-19.9-85-26.5
		c-16.4-3.5-32.7-7.2-49.4-9.1c-27-3.5-54.3-5.3-81.6-6.1c-18.2-0.9-36.5-0.1-54.7,1.2c-51.1,3.9-101.8,13.8-150.4,30.1
		c-30.7,10-60.3,23.2-89,38c-1.6-5.6-0.8-12.2-5-16.7c-5.3-6.2-13.1-9.7-20.8-11.8c-6.9-1.7-13.8-3.4-20.8-5
		c5.4-5.7,12.1-10.1,16.3-16.7c2.2-3.8,3.5-8.2,3.4-12.6c-0.1-22.3,0-44.7-0.1-67c0.1-1.8-2-2.3-3.1-3.1c-5.5-2.4-11.2-4.6-16.7-6.9
		c6-4.3,12-8.6,17.9-12.9c1.7-1.1,1.9-3.3,1.9-5.1c0-23,0-46,0-69.1c0-5.1-1.3-10.4-4.5-14.5c-3-3.8-6-7.5-9.1-11.3
		c7.5-2.6,15.5-4.2,22.3-8.3c5.5-3.2,10.6-7.5,14-12.9c2-3.5,3.7-7.3,5.4-11c31.5,12,63.6,22.4,96.2,30.9
		c-3.7-16.3-0.2-33.5,6.8-48.5c0.4-1.4,1.6-2.7,1-4.2c-2.2-8.8-2.2-18-1.6-27c-8.3-20-8.9-43.4,0.5-63.1c1.3-2.1,1.2-4.7,1.1-7.1
		c-0.6-19.5,4.8-38.9,14-56c-5.6-12.1-13.7-22.8-22.9-32.5c-7.6-7.8-15.5-15.3-24.3-21.7c-7.4-1.4-14.5-4.8-20.1-10
		c-16.5-17.5-29.4-37.9-42.2-58.2c18.6,3,37.5,5.1,55.4,11.1c9.3,3.2,18.7,7.1,25.9,14c3.4,3.4,5.2,7.9,6.8,12.3
		c6.3,4.2,13.4,7.2,20.1,10.7c4.9,2.6,10.2,4.1,15.5,5.5c-1.2-2.3-2.5-4.6-3.7-6.9c-7.8-1.1-14-7-17.6-13.7
		c-9.8-17.1-12-37.2-13.4-56.5c13.9,4.6,29.2,6.6,41.3,15.6c7.2,5.3,13.9,11.9,18.2,19.9c2,4,2.1,8.5,2.1,12.9
		c4.6,4.8,9.3,10,15.6,12.7c3-6.6,4.4-14,3.1-21.1c-0.8-4.4-1.3-8.9-2.9-13.1c-2.4-1.9-5.1-3.5-7-6c-4.8-5.6-6.5-12.9-8.2-19.9
		c-3.7-18.6-1.4-37.6,1.4-56.1c12.4,7.9,25.2,15.5,35.4,26.3c6.7,6.9,12,15.3,14.9,24.5c1.5,5.2,1.3,10.8-0.3,16
		c5.4,10,13.6,18.7,24,23.5c1-4.2,1.6-8.5,2.1-12.7c-7-6.9-7-17.5-6.7-26.6c1.1-18.5,12.9-33.6,21-49.5c5.5,6.4,11.1,12.8,16.5,19.4
		c8.1,11.3,12.3,25.2,12.2,39c0.1,6.2-2.5,12.1-6.6,16.7c0.3,2.1,0.7,4.2,1.1,6.3c8.4-10.6,14.1-23.2,18.6-35.9
		c0.8-1.6,0.1-3.3-0.1-4.9c-0.9-5.8,0.1-11.8,2.3-17.3C714.5,107.3,723.6,93,735.6,81.5 M718.3,125.2c-2.3,5.5-3.7,12.2-0.6,17.7
		c-2.6,6.9-4.6,14.2-8.1,20.7c-5.9,13.1-13.7,26.3-25.9,34.4c-5-8.7-7.2-18.9-7.2-28.8c3.8-1.5,6.3-5.2,6.6-9.2
		c0.8-9.5-1.7-19-5.6-27.6c-2.6-5.8-7-10.6-11.1-15.3c-3.4,6.2-7.2,12.2-9.6,18.8c-3.6,8.9-4.3,19-2,28.3c0.6,3,3.1,4.8,5.7,5.9
		c-0.3,10.6-1.7,21.4-6.7,30.9c-18.5-4.7-33.4-19.2-40.7-36.5c3.3-4.8,3-11.1,0.6-16.2c-6-14.7-18.8-24.9-31.7-33.5
		c-1.3,12.3-1.8,24.8,0.5,37c1.4,5.9,2.7,12.2,7,16.8c1.8,2,4.3,2.9,6.7,3.7c2.4,7.4,4.2,15,4.9,22.7c0.9,10.9-2.4,22-8.6,31
		c-6.1-1.4-12.1-3.6-17-7.5c-5.6-4.6-10.7-9.7-15.1-15.5c2.5-3.4,2.2-8-0.1-11.4c-6-9.3-15.1-16.6-25.4-20.7c-4.2-1.6-8.7-2.7-13-4
		c1.6,13.8,4.6,28,12.1,39.9c2.6,4.4,7.8,7.8,13.1,6.1c5.5,9.1,11.1,18.5,12.9,29c-12.5-0.1-25.1-3.3-36.2-9.1
		c-8.1-4-16.4-7.9-23.9-13c0.7-7.4-5-13.1-11.1-16.2c-14.4-7.8-30.7-11.1-46.8-13.6c8.4,12.6,17.3,25,27.5,36.2
		c3.1,3.4,7.1,5.8,11.4,7.4c2.8,1.1,6.1,0.4,8.5,2.5c13.9,10.7,26.8,22.8,37.5,36.8c6.2,8.2,11.8,17.1,15.2,26.9
		c-8.9,14.8-14.3,31.8-15.1,49.1c-0.2,4.3,0.3,8.6,0,12.9c-6.5,12.1-9.3,26.2-7.6,39.9c0.8,7.7,3.5,15,6.2,22.1
		c-1.2,10.3-0.9,20.9,2.4,30.8c-7.8,13.9-12.4,30.4-9.4,46.3c1.1,6.6,4.4,12.4,7.8,18c-36.9-8.1-72.9-19.6-108.3-32.6
		c-5.9,12-17.5,20.1-29.8,24.8c4.1,5.7,6.3,12.7,6.4,19.8c0,22.6,0,45.3,0,67.9c0.1,4.2-0.3,8.7-2.9,12.1c-1.7,2.5-4.5,4-7.2,5.2
		c4.7,2.1,9.8,6,10,11.6c0.1,22.4,0,44.7,0.1,67.1c0.4,9.2-3.3,18.1-9.3,24.9c13.6,3.2,28.2,10.2,33.7,23.9
		c76.9-38.6,162.1-59.6,247.8-64c23.3-1.3,46.6-0.1,69.8,1.2c25.1,1.6,50.3,3.9,75.1,8.4c18.1,3.7,36.2,7.4,53.9,12.5
		c38.1,10.9,75.2,25.1,111,42.2c4.8-14,19.9-20.4,33.1-24.2c-6.4-5.4-9.7-13.7-9.4-22c0.1-19.7,0-39.3,0.1-59
		c-0.2-6.8,4-12.7,9.4-16.5c-11.4-6.9-21.3-16.5-27.5-28.4c9.2-0.9,18.4-1.9,27.6-2.7c-5.6-4.8-9.3-11.9-9.4-19.4
		c-0.1-14,0-28,0-42.1c-0.1-7.4,3.3-14.4,8.1-19.8c-4.8-1.5-9.9-2.1-14.2-4.8c-8.1-4.9-13.9-12.8-18-21.1
		c-13.5,7.6-28.4,12.4-43.1,17.2c-22,6.9-44.4,12.8-66.8,18.1c-1.2-2.6-2.7-5.1-4.3-7.5c7-9.5,10.3-21.5,9.3-33.2
		c-1.4-17.2-8.3-34.3-20.9-46.3c1.6-4.4,1.6-9.5-0.7-13.6c-4.6-9.1-11-17.5-19.2-23.6c8-4.1,15.2-10.4,19-18.7
		c1.2-2.9,4.1-4.5,6.1-6.8c4.8-5,7-12.1,6.3-18.9c-0.3-7.4-4.2-14-5.5-21.2c-0.5-3-1.1-6-2.4-8.8c1.6-6,1.8-13.6-3.4-17.9
		c-12.1-9.9-28.1-13.6-43.3-14.8c0.1-4.2-1.2-8.6-4.6-11.4c-9.2-9.1-22.9-10.1-35.1-9.9c-4.8-0.9-9.5-2.4-14.4-3
		c-0.3-2.2-0.5-4.7-2.1-6.4c-2.8-3.6-7.6-4.4-11.8-5.2c-9.4-15.8-14.2-34.1-13.8-52.4c0.5-10.4,1.2-21,3.8-31.1
		c1.7-5.6,3.4-11.3,5.2-16.8c3.8-2.5,6-6.8,6.8-11.2c3-17.4,3.2-35.2,1.7-52.8C732.3,98.2,724,111.3,718.3,125.2z"/>
	<path class="st0" d="M705.7,279.6c14-6.8,29.9-9.6,45.4-8.2c12.5,1.2,24.3,6.9,33.2,15.7c1.8,2.4,3,5.2,4.1,8
		c-9.4-8.6-21-15-33.5-17.4c4.3,2.4,8.4,5.3,11.8,8.9c1.4,2,2.8,4,3.8,6.2c-0.1,0.6-0.2,1.7-0.3,2.3c-5-0.3-10.5-0.5-14.4-4
		c-4.1-3.6-9.3-5.8-14.7-6.2c-6.9-0.8-13.5,1.3-20.2,2.7c7.1-4.4,15.5-5.2,23.6-6.4c-13.4-3.7-26.6,2.8-38.7,7.9
		c8-6.6,17.3-11.7,27.5-13.9C723.9,275.2,714.6,276.9,705.7,279.6z"/>
	<path class="st0" d="M779.7,275.2c3.1,0.3,6.4,0.4,9.4,1.6c3,1.4,5.6,3.6,8.3,5.6l-0.4,0.2c-2.4,1-3.3,3.4-4.4,5.5
		c-4-4.2-8-8.4-12.3-12.3L779.7,275.2z"/>
	<path class="st0" d="M617.3,281c1.6-1,3.3-1.7,5-2.5c-7.7,7.2-15.4,14.4-21.7,23c-14.6,19.2-23.4,42.6-25.2,66.7
		c-2-5.2-2.5-10.9-3-16.4c-1.4-20.5,4.4-41.4,16.3-58.2c3.2-4.3,6.3-8.8,10.6-12.2c-7.1,11.7-16.2,23.1-17.8,37.1
		c2.8-3.6,4.8-7.8,7.6-11.5C596.8,296.7,606.4,287.9,617.3,281z"/>
	<path class="st0" d="M796.2,295.5c15.8,0.4,32.5,2.4,46.2,11c2.6,1.5,4.9,3.5,6.9,5.6c-4.8,0.3-10,1.4-14.6-0.4
		c-5.4-4-11.1-7.7-17.4-10.2C810.6,298.7,803.2,297.7,796.2,295.5z"/>
	<path class="st0" d="M733.1,299.9c2.1-1.3,4.3-2.2,6.6-3c-0.4,1.9,0.1,5.2-2.7,5.3C735.7,301.5,734.4,300.7,733.1,299.9z"/>
	<path class="st0" d="M619.3,312.3c5.1-5.7,10.6-11.2,17.2-15.1c-1,2.3-2.2,4.6-3.6,6.7c-12.2,17.3-18.6,39-16.4,60.2
		c1.3,13.9,6,27.4,12.8,39.5c2.6,5,6.1,9.4,8.8,14.3c-14.9-12.1-24.7-30-28-48.8c-1.8-9.7-1.1-19.5-0.5-29.2
		c-8.2,16.4-8,36.1-1.7,53.1c6.9,18.9,20.2,34.5,34.8,47.9c-13.6-7.6-25.3-18.7-33.9-31.7c-10.6-16.1-15-36.3-11.1-55.2
		C601.5,338.5,609,324.2,619.3,312.3z"/>
	<path class="st0" d="M780.6,299.9c4.3-1.4,8.7-3.1,13.3-2.4c12.4,1.1,24.5,7.5,31.3,18.1c-4,3.2-8,6.5-12.5,9
		c-3.3,1.8-7.3,1.3-10.7-0.1c-4.2-4.1-6.4-9.9-11.3-13.4c-2.5-2-5.7-2.8-8.8-3.6c2.9,1.7,6.1,3.4,7.8,6.5c2.7,4.9,4.8,10.1,7.5,15
		c-3.2-2.1-6.3-4.6-8.5-7.8c-2.4-3.3-5.2-6.8-9.4-7.8c-6.9-2.1-13.4,2.1-20,3.6c-5.8,1.5-11.9,1-17.5-0.7c4.6-0.4,9.3-0.7,13.9-1.9
		c8-1.8,15.4-5.8,23.5-7.4c-3.8,0.1-7.7,0.4-11.4,1.5c-5.2,1.4-10.1,4.1-15.6,3.8c2.6-1.5,5.2-3,7.8-4.5
		C766.4,304.1,773.6,302.1,780.6,299.9z"/>
	<path class="st0" d="M738,305.3c4.5-0.5,9-0.9,13.6-1c-0.9,0.8-1.9,1.7-2.9,2.4c2.2,0.4,4.3,0.8,6.5,1.2c-0.9,0.8-1.7,1.5-2.6,2.3
		c-6.3,1.4-12.7,2.8-19.1,1.3c4.3-0.6,8.7-1,13-2.2c-4.3-1-8.6-1.3-12.9-1.8c2.5-0.3,5.1-0.5,7.7-0.7
		C740.2,306.2,739.1,305.8,738,305.3z"/>
	<path class="st0" d="M820.7,327.7c4.8-1.7,11.3-4.3,15.4,0c4.2,4.2,2.8,10.6,1.7,15.7c-2.7,3.2-6.1,5.9-10.2,7.1
		c-13.4,4.8-26.1,11.4-39,17.4c7.8-6,16.7-10.1,24.9-15.4c-5.3,0.8-10.5,2.3-15.8,3.1c8.1-4.4,16.4-8.5,24.9-12.1
		c4.3-1.8,7.9-5.5,8.9-10.1c0.6-2,0.6-4.9-1.7-5.9C827,326.7,823.8,327.3,820.7,327.7z"/>
	<path class="st0" d="M846.4,329.3c0.5-0.5,1.5-1.6,2-2.1c0.7,5.6,1.9,11.2,3.9,16.4c1.7,4.2,2.4,8.8,1.7,13.3
		c-0.6,3.1-2.7,5.6-4.5,8.1c0.1-1.2,0.2-2.4,0.3-3.6c0.6-3.7-2.2-6.5-3.4-9.7c-0.2-2.3,0.4-4.6,0.6-6.9
		C847.9,339.6,846.9,334.4,846.4,329.3z"/>
	<path class="st0" d="M632.8,365.8c0-1.8,0.2-3.5,0.5-5.2c5,24.8,15.6,48.5,31.6,68.3c8.6,9.9,17.1,19.9,25.1,30.3
		c-8.7-5-16.2-12-23.3-19.1C647.3,420.3,634.2,393.7,632.8,365.8z"/>
	<path class="st0" d="M790.3,380.2c12.8-10.5,29-17,45.6-17.6c3.4-0.3,8.6,0.8,8.3,5.2c-1.1,6.5-5.6,11.9-10.2,16.3
		c0.2-0.8,0.6-2.5,0.8-3.3c1.6-3.8,3.3-7.5,3.8-11.6c-1.6-1.4-3.8-1.1-5.7-1c-6.3,0.6-12.3,2.7-18.2,5c-1.1,6.1-3.2,12.4-8.1,16.6
		c0.1-0.7,0.5-2,0.6-2.7c1.2-4.1,1.6-8.3,1.5-12.6c-1.3,1-2.5,2-3.7,3C800.1,378.4,795.3,379.4,790.3,380.2z"/>
	<path class="st0" d="M659.4,383.8c-1-6.4-2.6-12.8-2.1-19.3c6.7,24.5,14.8,48.7,24.5,72.2C670,421.3,662.9,402.8,659.4,383.8z"/>
	<path class="st0" d="M678.5,408.2c-1.5-6.4-3.3-12.9-3.3-19.5c7.7,29.9,21.5,59.3,44.6,80.4c4.2,4.1,9.3,7.2,13.7,11.1
		c-6.2-2.2-11.5-6.2-16.7-10.1C697.3,454.8,684.8,431.9,678.5,408.2z"/>
	<path class="st0" d="M811.1,407.5c1.8,3.3,3.4,6.8,4.9,10.2c-2.1,0.2-4.3,0.4-6.4,0.6c0-2-0.1-4,0-6
		C809.9,410.6,810.6,409,811.1,407.5z"/>
	<path class="st0" d="M835.6,419.6c-0.4-3.5-0.8-6.9-1.2-10.4c2.6,3.5,5.4,6.9,6.9,11C839.4,420.6,837.5,420,835.6,419.6z"/>
	<path class="st0" d="M710.7,420.5c2.8,3.4,5.1,7.2,8,10.5c9,10.5,20.3,18.8,32,26.1c12.6,7.6,25.9,14,39.6,19.5
		c4.4,1.8,9,3.1,13.2,5.3c-14.7-3-29-8.1-42.9-13.7c-15.8-7.4-30.3-18-41-31.9C716.1,431.4,712.4,426.4,710.7,420.5z"/>
	<path class="st0" d="M828.5,438.5c10.7,0.3,19.9,6.6,27.1,14c6.8,11.6,10.4,25.6,7.7,39c-1,5.5-3.2,10.7-6.2,15.5
		c-0.1-1.1-0.3-2.3-0.2-3.4c1.4-7.3-1.1-14.6-4.9-20.7c-5.4-8.5-12.9-16.3-22.8-19.3c6.2,6,13.9,11.1,17.2,19.4
		c-9.5-6.8-19.8-12.7-30.8-16.8c-14.8-5.4-30.2-10.3-43.2-19.4c13.1,4.7,26.1,10.5,40,12.1c-7.4-5-15.5-8.8-22.8-14
		c11.1,2.4,22,5.5,33,8.5c6.4,1.7,12.2,4.9,18.4,7.1c-7.8-9.1-19.5-13.5-30.5-17.5c8.7,0.1,17.2,2.8,25.1,6.3
		c5.3,2.3,9.5,6.3,13.8,10c-2.6-6.2-7.1-11.5-12.6-15.3C834.1,442.2,831.2,440.4,828.5,438.5z"/>
	<path class="st0" d="M935.3,511.4c12.4-4.4,25-8.1,37-13.6c5.8,7.4,12.5,14.5,21.2,18.5c-1.9,4.6-2.8,9.5-2.7,14.5
		c0,11.7,0,23.4,0,35.1c0,5.3-0.4,10.6,0.8,15.7c-3-1.2-6.3-1.6-9.5-2.1c-4.7-7.3-10.4-14.1-17.7-19c2.8-10.6,0.8-21.7,1.3-32.5
		c-7.5,1.7-15,3.4-22.4,5.4c1.1,1.1,2.3,2.2,3.5,3.3c-0.1,20.2,0,40.4,0,60.6c8.7-0.1,17.5-0.2,26.2-0.5
		c5.1,10.1,12.3,19.1,20.9,26.3c-2.5,4.1-3.1,8.9-3.1,13.6c0,17,0,34,0,51c0.2,8.8-0.9,18.1,2.7,26.5c-1.7-0.6-3.5-1-5-1.9
		c-2-3.5-1.8-7.7-2-11.5c0-15.7,0-31.3,0-47c0.1-9.7-0.8-19.5,1.4-29.1c-2-3.6-5.1-6.8-8.5-9.2c-15.8-1.7-31.7-2.1-47.6-2.9
		c-2.1,0.1-3.5-1.6-5-2.8c-2.3-2.2-4.8-4.4-7.3-6.4c2-6.7,1.2-13.8,1.3-20.7c0-11,0-22,0.1-33c0.1-3.9-0.5-7.7-1.5-11.4
		c7.6-6.8,13.7-15.2,18.6-24.1C937.2,513.4,936.3,512.4,935.3,511.4z"/>
	<path class="st0" d="M423.1,498.1c7,2.9,14.1,5.4,21.2,8c0.4,3.8,1.8,7.4,5,9.6c1.2,1.4,2.4,2.8,3.6,4.2c0.1-2,0.3-4,0.2-6
		c-1.2-1.8-3-3-4.6-4.4c-1-0.9-1.9-1.9-2.8-2.9c11.1,3.6,22.1,7.3,33.3,10.5c0,24.2,0.1,48.4,0,72.6c-0.1,1.6,1.2,2.9,2,4.2
		c-4.5-0.1-9,0-13.5-0.1c-5.2-9.2-12.9-16.7-21.3-23c1.6-2.4,3-5.1,3-8c0.2-8.5,0-17.1,0.1-25.6c-5-1.2-10-2.4-15-3.6
		c0,53.6,0,107.2,0,160.8c4.9-1.7,9.9-3.2,14.8-4.9c1.4,1.1,2.8,2.1,4.2,3.2c-7.8,2.6-15.6,5.1-23.4,7.6c0-28.8,0.4-57.7,0.2-86.5
		c-7.6,0.4-15.1,1-22.7,1.9c1-3.6,1.8-7.2,1.7-10.9c-0.1-19.7,0-39.3,0-59c-0.2-9.2,0.8-18.6-1.8-27.6c6-3.5,11.4-8.1,15.7-13.5
		C424.8,502.9,423.4,500.3,423.1,498.1z"/>
	<path class="st0" d="M868.3,529.3c12.7-2.8,25.3-5.7,37.8-9.4c-2.3,1.7-3.8,4.1-3.8,7c-0.1,26,0,52,0,78c-0.2,2.6,0.8,5.1,3.1,6.4
		c-1.9,2-3.3,4.6-3.1,7.4c0,22.4,0,44.7,0,67.1c0,5.1-0.4,10.2,1,15.1c-2-1.7-5.1-3-4.7-6.1c-0.2-18.7-0.4-37.4-0.3-56
		c0.2-9-0.5-17.9,0.6-26.8c-13.9-0.5-27.7-0.7-41.6-0.6c-3.8-8.5-6.9-17.3-11-25.7c1.3,7,3.3,13.9,4.5,21c-0.2,23.1,0,46.1-0.1,69.2
		c0,3.1,0.1,6.3,0.5,9.4c-1.5-1.3-3.3-2.4-4.4-4.1c-0.7-3.4-0.3-6.9-0.3-10.4c0-20.2,0.1-40.4-0.4-60.7c-7.4-0.3-14.8-0.5-22.2-1
		c0.8-16.1,0.2-32.3,0.4-48.4c-0.2-6.2,0.6-12.5-0.4-18.6c-1.1-0.8-2.4-1.4-3.7-2c-1.4-0.7-2.7-1.2-4.1-1.7
		c12.4-1.2,24.6-3.7,36.8-6c-0.9,1.6-2,3.5-0.9,5.3c6.8,16.3,13.6,32.6,19.7,49.2c1.5,4.4,2.7,8.9,4.1,13.4
		c0.8-6.8,0.4-13.6,0.4-20.4c0-14-0.1-28,0.1-42c-0.1-1.8,0-3.8-0.6-5.5c-1.3-0.8-2.8-1.3-4.2-1.8
		C870.4,530.1,869.3,529.7,868.3,529.3z"/>
	<path class="st0" d="M491.2,520.7c20.2,5.2,40.6,10,61.1,13.7c5.5,8.1,13.5,14.2,22,18.8c-1.9,2.1-3.5,4.7-3.3,7.6
		c-0.1,17.7,0,35.4,0,53.1c-0.2,2.5,0.9,4.8,2.1,7c-2-0.4-4-0.8-5.9-1.2c-0.2-3.3-0.4-6.7-0.5-10c-7.3-0.2-14.5,0.4-21.8,0.4
		c-0.8-19.9-0.2-39.8-0.4-59.7c-7.5-1.3-15.1-2.4-22.7-3.5c1.1,1.6,2.3,3.1,3.4,4.7c0.2,22.6-0.4,45.2-0.2,67.7
		c5.2-0.3,10.4-0.6,15.6-0.8c1.4,1.2,2.8,2.5,4.1,3.7c-7.9,1-15.8,1.1-23.7,1.6c0-4.1,0-8.2,0-12.3c-7.8,0.3-15.6,1.2-23.4,1.4
		c2.1-6.1,1.4-12.7,1.4-19c0-20.3,0-40.7,0.1-61c-0.1-1.8,0-3.7-0.7-5.4c-1.3-1.7-3.2-2.9-4.8-4.3
		C492.7,522.4,491.9,521.5,491.2,520.7z"/>
	<path class="st0" d="M770.1,544.1c12.7-1.1,25.4-2.5,38-4.2c-1.8,1.1-3.9,2.6-3.5,5c-0.1,20-0.1,40,0,60c-0.4,2.2,1.7,3.3,3.2,4.3
		c-1.7,1-3.3,2.5-3.2,4.7c-0.1,14.3,0,28.6,0,43c-0.3,2.9,1.4,5.3,2.7,7.7c-0.3-0.1-0.8-0.3-1.1-0.4c-1.9-1-4.3-1.7-5.6-3.5
		c-0.8-5.2-0.1-10.5-0.3-15.7c0.2-11.8-0.4-23.6,0.4-35.4c-7.7-0.2-15.4,0-23.1-0.1c-0.1-20.5,0-41.1,0-61.6
		c-1.5-0.7-2.9-1.4-4.4-2.1C772.1,545.1,771.1,544.6,770.1,544.1z"/>
	<path class="st0" d="M605.7,542.2c12.4,1.4,24.8,2.5,37.2,3.3c1.2,0,2.3,0.5,3.1,1.4c5.8,5.9,13.2,9.9,20.8,12.9
		c-1.8,2.4-3.8,4.9-3.4,8.2c0.5,11.6,0.2,23.3,0.3,35c-0.3,2.3,1.9,3.5,3.5,4.5c-1.9,0.8-3.6,2.2-3.5,4.5c-0.3,10.3,0.2,20.7-0.3,31
		c0,4.9-1.1,10.8,3.3,14.3c-2.4-0.8-5.2-1.2-7.3-2.8c-1.1-4.8-0.5-9.8-0.5-14.6c0.4-10.2-0.2-20.5,0.4-30.7
		c-7.4-0.1-14.9,0.1-22.3-0.2c0-16.7-0.3-33.4-0.3-50.1c-7.5-0.5-15.1-1-22.6-1.3c1,1.4,2.1,2.8,3.1,4.3c0.1,31.5,0,63,0.1,94.4
		c5.3-0.5,10.5-0.9,15.8-1.4c1.3,1.4,2.6,2.7,4,4.1c-8,0.9-16,1.5-24,2c-0.5-17.3-0.2-34.5-0.3-51.8c-7.6,0-15.3,0.1-22.9,0
		c1-8.4,0.7-16.8,0.7-25.3c0-9.2,0.3-18.4-0.6-27.6c5.8-2.8,11.4-5.9,16.7-9.6C606.4,545.2,606,543.7,605.7,542.2z"/>
	<path class="st0" d="M723.1,547.1c12.5-0.8,25-1.2,37.5-2.1c-2.6,1.8-3.8,4.8-3.4,7.9c0.3,33.8,0.3,67.6,0.3,101.4
		c5.5,0.4,11,0.9,16.4,1.2c1.1,1.6,2.3,3.1,3.4,4.6c-8-0.4-15.9-1-23.9-1.6c-0.4-16.3-0.2-32.7-0.3-49c-7.4-0.2-14.8-0.1-22.3,0
		c-0.5-18.9-0.4-37.7-0.5-56.6c0.4-2.7-2.6-3.3-4.4-4.3C725.1,548,724.1,547.5,723.1,547.1z"/>
	<path class="st0" d="M675.8,547c12.7,0.3,25.5,0.2,38.2,0c-1.4,1-3.5,1.8-3.2,3.9c-0.1,33.8,0,67.6-0.1,101.4
		c5.5,0.2,11,0.4,16.5,0.3c1,1.5,2.1,3,3.2,4.4c-8-0.2-15.9-0.3-23.9-0.8c-0.1-15.7,0.1-31.5-0.4-47.2c-7.8,0-15.7,0.1-23.5,0
		c1.9-6.9,1.1-14.2,1.2-21.2c-0.4-12.1-0.1-24.3-0.3-36.4c-1.4-0.9-2.8-1.7-4.3-2.5C678.1,548.2,676.9,547.6,675.8,547z"/>
	<path class="st0" d="M467.4,630c4.7-0.6,9.5-1.1,14.2-1.8c-1.6,2.3-3,4.8-2.9,7.7c0,14,0,28,0,42c-0.1,2.7,0.8,5.3,1.9,7.7
		c-1.5,0.1-3,0.3-4.5,0.3c-1.9-4.1-1.8-8.7-1.9-13.1c0-13,0.1-26.1,0-39.1c-1.6,0-3.2-0.1-4.8-0.1C468.7,632.4,468,631.2,467.4,630z
		"/>
	<path class="st0" d="M553,630.8c1.7,0.4,3.3,0.8,5,1.2c3.3,11.7,7,23.3,10.6,34.9c1.4,4.3,2.4,8.9,4.7,12.9c-1.9-0.5-3.8-1-5.7-1.4
		C562.7,662.6,557.8,646.7,553,630.8z"/>
	<path class="st0" d="M521.1,638.2c3.5-0.5,7-1,10.5-1.3c-1.1,1.8-2.1,4-4.4,4.6c-0.6,0.2-1.7,0.6-2.3,0.8c0,13.2,0,26.5,0,39.7
		c-0.1,3.2,0.7,6.3,2.4,9c-1.9-0.5-3.8-0.9-5.6-1.8c-1.4-2.8-1-6.1-1.1-9.2C520.9,666,520.4,652.1,521.1,638.2z"/>
	<path class="st0" d="M913.9,636.3c4.9,0.5,9.8,1.1,14.7,1.8c5.6,9.6,12.7,18.4,21.2,25.5c-1.5,2.2-2.9,4.5-2.9,7.3
		c-0.2,6.3,0,12.6,0,18.8c5,1.6,10,3.2,15,4.9c1.5,2,2.9,4.1,4.3,6.2c-7.9-2.4-15.8-5.1-23.5-7.9c0.1-9.6-0.9-19.3,1.2-28.7
		c-6.9-6.5-12.5-14.3-18-22c-3.3-0.7-6.7-1.5-9.4-3.8C915.8,638,914.5,636.9,913.9,636.3z"/>
</g>
<g id="_x23_1a1d2cff">
	<path class="st1" d="M718.3,125.2c5.7-13.9,13.9-27,25-37.2c1.5,17.6,1.3,35.4-1.7,52.8c-0.7,4.4-3,8.7-6.8,11.2
		c-1.8,5.6-3.5,11.2-5.2,16.8c-2.7,10.1-3.3,20.7-3.8,31.1c-0.4,18.3,4.4,36.7,13.8,52.4c4.2,0.8,9,1.6,11.8,5.2
		c1.6,1.8,1.7,4.2,2.1,6.4c4.9,0.6,9.6,2.1,14.4,3c12.2-0.2,26,0.8,35.1,9.9c3.4,2.8,4.7,7.1,4.6,11.4c15.3,1.2,31.2,4.9,43.3,14.8
		c5.2,4.4,4.9,11.9,3.4,17.9c1.3,2.8,1.9,5.8,2.4,8.8c1.3,7.2,5.2,13.7,5.5,21.2c0.7,6.8-1.5,13.9-6.3,18.9c-2,2.3-4.9,3.8-6.1,6.8
		c-3.8,8.3-10.9,14.6-19,18.7c8.3,6.1,14.6,14.5,19.2,23.6c2.3,4.2,2.3,9.2,0.7,13.6c12.6,12,19.5,29.1,20.9,46.3
		c0.9,11.7-2.3,23.7-9.3,33.2c1.6,2.4,3.1,4.9,4.3,7.5c22.4-5.4,44.8-11.2,66.8-18.1c14.7-4.7,29.6-9.5,43.1-17.2
		c4.1,8.3,9.9,16.3,18,21.1c4.3,2.7,9.4,3.3,14.2,4.8c-4.8,5.5-8.2,12.5-8.1,19.8c0,14,0,28,0,42.1c0.1,7.5,3.8,14.5,9.4,19.4
		c-9.2,0.8-18.4,1.8-27.6,2.7c6.2,11.9,16.1,21.5,27.5,28.4c-5.4,3.7-9.5,9.7-9.4,16.5c-0.1,19.7,0,39.3-0.1,59
		c-0.4,8.3,3,16.6,9.4,22c-13.2,3.7-28.3,10.1-33.1,24.2c-35.8-17.1-72.9-31.3-111-42.2c-17.7-5.1-35.8-8.8-53.9-12.5
		c-24.8-4.6-50-6.9-75.1-8.4c-23.3-1.2-46.6-2.5-69.8-1.2c-85.8,4.3-171,25.4-247.8,64c-5.5-13.7-20.1-20.7-33.7-23.9
		c6-6.8,9.8-15.8,9.3-24.9c-0.1-22.4,0.1-44.7-0.1-67.1c-0.2-5.7-5.3-9.5-10-11.6c2.7-1.2,5.5-2.7,7.2-5.2c2.6-3.5,3-8,2.9-12.1
		c-0.1-22.6,0-45.3,0-67.9c0-7-2.2-14-6.4-19.8c12.2-4.7,23.9-12.7,29.8-24.8c35.4,13,71.4,24.5,108.3,32.6
		c-3.4-5.6-6.7-11.5-7.8-18c-3-15.9,1.6-32.4,9.4-46.3c-3.3-9.9-3.6-20.5-2.4-30.8c-2.7-7.2-5.4-14.5-6.2-22.1
		c-1.8-13.7,1-27.8,7.6-39.9c0.2-4.3-0.3-8.6,0-12.9c0.7-17.3,6.1-34.3,15.1-49.1c-3.5-9.8-9-18.6-15.2-26.9
		c-10.7-14-23.6-26.1-37.5-36.8c-2.3-2.1-5.7-1.4-8.5-2.5c-4.3-1.6-8.3-4-11.4-7.4c-10.2-11.2-19.1-23.6-27.5-36.2
		c16.1,2.5,32.4,5.8,46.8,13.6c6.1,3.1,11.8,8.9,11.1,16.2c7.5,5.1,15.8,9,23.9,13c11.1,5.8,23.6,8.9,36.2,9.1
		c-1.9-10.6-7.5-20-12.9-29c-5.3,1.7-10.5-1.7-13.1-6.1c-7.5-11.9-10.6-26.1-12.1-39.9c4.3,1.3,8.8,2.4,13,4
		c10.3,4.1,19.4,11.3,25.4,20.7c2.3,3.4,2.6,8,0.1,11.4c4.4,5.8,9.5,10.9,15.1,15.5c4.9,3.9,11,6.1,17,7.5c6.2-9,9.5-20,8.6-31
		c-0.8-7.7-2.6-15.3-4.9-22.7c-2.4-0.9-5-1.8-6.7-3.7c-4.3-4.6-5.5-10.9-7-16.8c-2.4-12.2-1.9-24.7-0.5-37
		c12.8,8.5,25.7,18.8,31.7,33.5c2.4,5.1,2.6,11.4-0.6,16.2c7.3,17.3,22.3,31.8,40.7,36.5c5-9.5,6.4-20.3,6.7-30.9
		c-2.6-1.1-5.1-2.9-5.7-5.9c-2.2-9.4-1.6-19.4,2-28.3c2.4-6.7,6.2-12.7,9.6-18.8c4.2,4.7,8.5,9.5,11.1,15.3
		c3.9,8.6,6.4,18.1,5.6,27.6c-0.3,4.1-2.8,7.7-6.6,9.2c0,10,2.2,20.1,7.2,28.8c12.3-8.1,20-21.3,25.9-34.4
		c3.5-6.5,5.5-13.8,8.1-20.7C714.6,137.3,716.1,130.7,718.3,125.2 M725.9,134.8c-1,2.9-0.2,6-1,8.9c-5.2,15.8-10.2,32.3-20.7,45.6
		c-7.5,9.9-17.6,19-30.2,21.1c-18.1,2.3-36.5-4.8-50-16.8c-12.2-10.8-18.6-26.6-22.9-42c1.8,3,3.4,6.1,5.5,8.8
		c1-2.2,1.7-4.7,0.9-7.1c-3.2-9.6-9.9-17.9-18.2-23.5c-1.7,10.6-0.4,21.7,4.2,31.4c0.8,2.1,3,3,4.9,3.8c-0.4-3.6-1.4-7.1-2.3-10.7
		c5.8,9.7,9.2,20.8,11.2,31.8c1.9,9.1,0.7,18.6-1.4,27.6c-2.6,10.9-8.5,21.6-18.2,27.8c-11.1,8-25.8,8.5-38.9,6.4
		c-18.4-3.4-36-11.2-51-22.4c-2.5-1.6-4.7-4.1-7.8-4.1c-0.3-4-4.2-5.9-7-7.9c-6.4-3.8-13.1-7.2-20.2-9.2c5.2,6.7,11,13.2,17.5,18.6
		c2.1,1.6,4.9,4.1,7.5,2.1c-2-1.9-4.1-3.6-6.1-5.6c6.7,4.4,12.7,9.6,19.5,13.8c15.2,9.6,31.6,18.3,49.6,21.3
		c5.7,1.2,11.5,0.9,17.3,1.6c-11.1,2.1-22.5,1.3-33.5-1.3c11.6,5.9,22,13.7,32,21.9c-2.1-4-4.6-7.7-7-11.5c11.1,0.2,22.6-1,32.6-6.1
		c9.9-4.9,17.7-13.8,21.1-24.3c0.8,4.5,2.3,8.8,4.2,13c-1.4-12.2-1.2-24.6,0.2-36.8c-2.8,6.9-6.4,13.5-10.7,19.5
		c5.4-11.8,8.5-24.9,7.4-37.9c10,11.6,23.9,19.4,38.4,23.9c-8.7-1.4-17.1-4.2-25.2-7.7c7.4,5.6,14.6,11.3,21.3,17.7
		c4.2,3.8,7.9,8.2,12.3,11.7c-3.4-5.2-7.4-10-11.6-14.7c4.3,0.9,8.7,1.9,13.2,2.1c14.2,1.2,29.1-3.1,39.8-12.8
		c1.8,6.2,4.4,12.1,7,18c-0.3-5.1-1.2-10.2-0.6-15.4c0.4-8.1,2.4-16,3.9-24c-3.7,4.8-8.1,9.1-13.2,12.4c8.5-8.5,15-19,19.4-30.2
		c5.8-13.9,9.8-28.5,13.6-43.1c-0.8,5.1-2,10.1-2.7,15.2c1.6-1.4,3.4-2.8,3.7-5.1c2.4-10.3,2.9-21,2.6-31.6
		C731.5,117.2,728.6,126.1,725.9,134.8 M725.8,257.1c1.7-0.8,3.4-1.6,5.2-2.3c-7.7-15.3-13.1-32.4-11.8-49.7
		C714.8,222.4,718.5,241,725.8,257.1 M606.4,259.2c-12.1,5.3-22.1,14.6-30.1,24.9c-10.7,14.1-16.6,32.3-14.9,50
		c1-4.8,1.4-9.6,2.8-14.3c4.3-15.6,14.3-29.2,26.9-39.2c-3.4,3.8-7,7.3-9.9,11.5c-10.7,14.9-15.3,33.5-15.7,51.6
		c0,10.6,0.2,21.5,4,31.6c5,13.6,13,26.2,23.1,36.7c-7.4-13.1-13.9-28.1-11.1-43.5c0.7,15.3,6.7,29.8,15.7,42.1
		c11.8,16.7,27.8,30.2,45.5,40.3c13.1,7.4,27.2,13.5,41.9,16.9c-17.2-10.5-32.7-23.8-45.4-39.4c23.4,23.7,52.1,41.9,83,54.2
		c-13.2-7.8-25.3-18.6-31.2-33c19.9,28,52.7,44.6,86,49.9c13.8,2,27.8,3.3,41.4,6.8c12.9,3.3,26.4,7.3,36.5,16.5
		c3.8,3.2,5.3,8,7.8,12.1c0-8.3-4.5-15.8-10-21.8c-10-10-23.6-15.8-37.5-18.2c-10.3-1.6-20.3-4.4-30.4-7c-11.8-3-23.5-6.6-34.7-11.4
		c-12.6-5.4-25-12.4-34.1-22.9c-25.3-27-40.2-64.2-38.1-101.4c-6.8,14.4-6.3,30.8-3.8,46.2c-10.6-22-15-48-7.6-71.6
		c-7.4,5.3-10.9,14.4-12.2,23.2c-2.4,16,0,32.3,3.3,48c-9.4-14.7-16-31.8-16.8-49.4c0-17.3,7.1-34,16.8-48.1
		c-11.2,10-20.3,22.6-25.9,36.6c-6.6,16.4-7,35.2-1,51.9c-7.9-12.5-9.7-27.9-8.1-42.4c1.4-13,4.8-26.2,12.2-37.2
		c13-19.7,34.4-32.3,56.5-39.5c-17.8,3.8-35.1,10.1-50.8,19.2c-16,9.4-30.5,22.2-39.3,38.7c7.6-21,24.8-37.5,44.2-47.9
		c18.7-10,39.8-14.7,60.9-16.4c5.4-0.5,10.8-0.3,16.1-1.2c-28.4-2.3-58.2-1.6-84.5,10.5c15.1-10.5,33.4-15.9,51.7-16.5
		c-11.8-1.8-23.9-0.7-35.6,1.6c-16.1,3.1-31.4,10.3-44,20.8C622,265,639,256.1,656.8,252C639.8,249.6,622,252,606.4,259.2
		 M730.5,260.3c4.5,1.2,9,2.3,13.5,3.4c-0.4-1.7-0.1-4.1-2.1-4.9C738.1,257.5,734.1,259.1,730.5,260.3 M705.7,279.6
		c8.9-2.8,18.2-4.5,27.6-4.3c-10.2,2.2-19.5,7.3-27.5,13.9c-5.8,4.2-13,5.5-20,6.1c6.9,2.5,13.6,6.7,21.2,6.3c5.9-0.4,12.2-1,17-4.9
		c6-4.5,13.3-7.9,21-7.7c3.9,0.1,8.4,0.7,10.7,4.3c3.6,5.2,10.7,4.9,16.2,4.5c-0.5-1.7-1-3.4-1.5-5c-1-2.2-2.4-4.2-3.8-6.2
		c5.4,3.6,8.7,9.5,14,13.2c-7,2.2-14.2,4.2-20.6,8c-2.6,1.5-5.2,3-7.8,4.5l-0.3,0c-1.3,0.5-2.7,1-4,1.5c1.6-1.2,3.2-2.5,4.8-3.7
		c0.8-0.8,1.7-1.5,2.6-2.3c-2.2-0.4-4.3-0.8-6.5-1.2c1-0.8,1.9-1.6,2.9-2.4c0.3-0.2,1-0.6,1.3-0.8c-3-1.6-5.1-4.5-7.9-6.4
		c-1.7-0.3-3.5-0.2-5.3-0.2c-2.3,0.8-4.6,1.7-6.6,3c-1.3,1.1-2.5,2.1-3.8,3.2c1.6,0.8,3.2,1.6,4.8,2.4c-1.7-0.1-3.5-0.2-5.2-0.2
		c0.5,1,1.5,3,1.9,4c-5-3-11.8-2.3-16.4,1.1c-2.8,2-2,5.8-1.7,8.7c-2.7-3-5.2-6.2-7.5-9.4c1,9.5,3,19.1,7.2,27.8
		c2.5,4.9,6.1,9.6,11.3,11.6c9.1,3.9,20.3,3,28.3-3c5.7-4.4,11.5-8.9,17.8-12.4c-4.7,5-9.6,9.9-13.5,15.6c-1.4,1.6-0.2,3.9,1.4,4.8
		c4.5,3,9.2,5.7,14.2,7.8c3.9,1.6,8.1,0,11.9-1.1c-11,8.9-18.3,21.4-28.9,30.8c5.6-0.4,10.4-3.6,14.3-7.3
		c8.4-7.5,18.5-12.6,28.5-17.6c7.6-3.5,15.2-7.1,23.3-9.5c3.7-1.3,7.5-2.4,10.8-4.4c3.3-2,5.1-5.7,5.8-9.4
		c1.2-5.1,2.5-11.5-1.7-15.7c-4.1-4.3-10.7-1.7-15.4,0c-3.7,1.4-7.5,3.8-11.7,2.8c-3-1.1-4.9-3.7-7-5.9c3.4,1.4,7.4,2,10.7,0.1
		c4.5-2.5,8.5-5.8,12.5-9c2.8-2.1,6.1-3.2,9.5-3.9c4.6,1.8,9.8,0.7,14.6,0.4c-2-2.2-4.4-4.1-6.9-5.6c-13.7-8.6-30.3-10.6-46.2-11
		c-1.1-0.2-2.3-0.4-3.4-0.6c1-0.3,2-0.6,3.1-0.9c0.2-2.1,0.3-4.1,0.5-6.1c0.8,1.3,1.6,2.6,2.5,3.9c0.1-3.3,0.3-6.7-0.9-9.8l-1,0.6
		l0.4-0.2c-2.7-2-5.3-4.2-8.3-5.6c-3-1.2-6.3-1.3-9.4-1.6l0.6,0.6c-1.6,4.4,1.6,7.9,3.9,11.3c-8.9-8.8-20.8-14.4-33.2-15.7
		C735.6,270,719.7,272.8,705.7,279.6 M552.2,299.1c-5.3,7-8.5,15.3-11.7,23.4c-7.5,19.7-7.1,41.8-0.7,61.7
		c5.3,16.5,14.2,31.7,25.4,44.9c-7.5-13.1-14.5-26.6-18.8-41.1c-4.7-15.5-7.1-32.4-3-48.3c-0.4,15.9,3.5,31.7,9.5,46.3
		c8,19.6,20.1,37.3,34.3,52.9c4.2,4.5,8.2,9.1,13,13c7.4,5.9,15,11.7,23.8,15.3c17.6,7.6,36.3,12.5,55,16.3
		c-29.2-10.8-57.5-26.8-77-51.5c2.8,10,10.7,17.3,17.1,25.1c-31.8-22.5-53.1-58.3-59.5-96.5c-0.4,12.9,2.2,25.8,6.6,37.9
		c-8.1-13.5-12.8-28.8-14.7-44.3c-2.2-24.7,3.5-50.2,17.3-70.9C562.3,287.4,556.8,293,552.2,299.1 M845.5,325.4
		c-1.4,0.9-2.3,2.7-1.8,4.4c0.7,5.3,1.6,10.7,0.1,16c-0.5,2.6-1.7,5.8,0.4,7.9c2.1,2.4,4.1,4.9,5.7,7.8c-0.1,1.2-0.2,2.4-0.3,3.6
		c1.8-2.5,3.9-5,4.5-8.1c0.7-4.5-0.1-9.1-1.7-13.3c-2.1-5.3-3.2-10.8-3.9-16.4C847.5,326.5,846.8,324.5,845.5,325.4 M790.3,380.2
		c4.9-0.8,9.8-1.8,14.7-2.6c0.9,3.1,1.7,6.3,2.2,9.5c-0.2,0.7-0.5,2-0.6,2.7c4.9-4.2,7-10.5,8.1-16.6c5.8-2.4,11.9-4.4,18.2-5
		c1.9-0.1,4.1-0.4,5.7,1l-0.5,0.3c-0.8,0.2-2.5,0.6-3.3,0.8c0.1,3.5-0.1,7-0.1,10.5c-0.2,0.8-0.6,2.5-0.8,3.3
		c4.6-4.5,9.1-9.9,10.2-16.3c0.4-4.4-4.9-5.5-8.3-5.2C819.4,363.2,803.1,369.7,790.3,380.2 M698.4,374.3
		c-2.2,13.5-1.9,27.5,2.7,40.5c5.5,16.4,16.1,30.7,28.8,42.3c12.9,12.1,29.6,19,46.2,24.5c20.2,6.7,41.9,7.3,61.8,15.1
		c-4.4-5.7-10.9-9.1-17.3-12.3c-9.9-4.5-19.9-8.6-29.7-13.2c11,3.3,22.1,6.5,33.1,9.7c9.2,3,18.5,6.8,25.9,13.2c3.1,2.5,5.2,6,7,9.5
		c-0.1,1.1,0.1,2.2,0.2,3.4c3-4.8,5.2-10,6.2-15.5c2.7-13.4-1-27.3-7.7-39c-5.5-14.7-20.6-23.6-35.7-25c5.7-0.1,11.4,0.1,16.7,2
		c2.1,0.3,5,1.8,6.8,0c1-3.1,0.3-7.1-2.1-9.3c-1.4-4.1-4.3-7.5-6.9-11l0-0.2c-0.3-0.2-0.9-0.7-1.2-0.9c0.1,3.4,0,6.8-0.3,10.3
		c-5.6-0.9-11.3-1.3-16.9-0.7c-1.5-3.5-3.1-6.9-4.9-10.2c-0.5,1.6-1.2,3.1-1.5,4.8c-1,2.1-2,4.2-2.9,6.3
		c-11.3,3.2-22.6,6.5-33.1,11.7c5.6-0.2,11.3-0.2,16.9,0.7c-5.3,1.4-10.5,2.9-15.6,4.6c-3.2,1.1-6.7,0.6-9.7-1
		c-10.6-5.8-18.1-16-22.9-26.8c-0.3,8.8,4.7,16.5,9.5,23.4c-15.6-11.3-25.6-30.3-25.3-49.6c-4.3,6.2-4.7,14.2-3.7,21.4
		c1.5,9.9,5.2,19.7,11.6,27.6c10.8,13.5,25.1,23.5,39.7,32.5c-26.3-10.9-51.4-28.4-65.4-53.7C702.7,398.5,699.5,386.4,698.4,374.3
		 M528.5,376.1c-2.7,11.6-1.8,24,1.9,35.3c4.8,15.2,14,28.7,24.8,40.3c10.5,11,22.3,20.9,35.1,29c-3.3-3.7-7.4-6.6-11-10.1
		c-11.9-11.2-23.5-23-32.5-36.7c-2.8-4.5-5.6-9.1-7-14.2c8.1,12,18.1,22.7,29.3,31.9c-8.4-11.9-18.7-22.4-25.7-35.2
		C536.2,403.9,531.6,390.1,528.5,376.1 M534.9,436.5c-2.1,12.7,5.2,24.4,12.8,33.8c13.5,15.8,31,27.6,48.9,37.9
		c10.9,6,21.8,12.2,33.5,16.7c-11.8-6.8-23.9-13.3-35.2-20.9c-16.9-11.3-32.9-24.4-45.4-40.6C543.2,455.4,538.1,446.3,534.9,436.5
		 M591.5,464.4c2,3,4.2,5.8,6.6,8.5c22.6,25.6,52.9,44.5,86,53.1c27.1,7.1,55.7,6.9,83.1,1.5c25.3-4.4,51.5-5.6,76.9-1
		c-9.1-6.2-20.3-8.1-30.9-9.6c-23.9-3.1-48.1-2.7-72-1.3c-23,1-46-0.7-68.5-5.6c19,8.8,40.3,10.4,60.7,13.3
		c-16.9-0.5-33.7-2.4-50.1-6.4c-17.8-4.4-35.3-11.2-50.2-22c28.5,11.3,59.6,14.9,90.1,14.5c11.4,0,22.9-0.3,34.1-2.1
		c-23.1,0.7-46.3-0.9-69.2-4.6C653.7,497,619.3,485.9,591.5,464.4 M538.8,511c11.4,13.2,27.7,21.3,44.2,25.9
		c-7.6-5.1-15.6-9.4-22.7-15.3c-9-7.4-18.1-15.7-22.5-26.8c7.9,9.6,18.1,17.3,29.2,22.8c14.8,7.3,30.9,11.9,47.3,13.8
		c-14.5-6.3-29.9-10.9-43.4-19.4c-16.1-9.9-30.5-23.8-37.6-41.5C526.5,483.6,529.3,500.1,538.8,511 M935.3,511.4
		c-5,10.3-12.5,19.3-21.3,26.5c3.6,4.2,3.3,9.8,3.2,15c-0.1,14,0.1,28,0,41.9c0.1,3.5-1.3,6.7-3,9.6c7.8,5.5,14.7,12.3,20.2,20.1
		c0.6,1,1.6,1.6,2.7,1.6c8.4,0.8,16.8,1.4,25.1,2.3c0,22.1-0.6,44.1-0.4,66.2c-5-1.7-10-3.3-15-4.9c0-6.3-0.2-12.6,0-18.8
		c0-2.7,1.4-5.1,2.9-7.3c-8.5-7.1-15.6-15.9-21.2-25.5c-4.9-0.7-9.8-1.3-14.7-1.8c0.6,0.5,1.9,1.7,2.5,2.2
		c0.8,12.4,0.1,24.9,0.4,37.3c0.2,3.8-0.5,7.7-3,10.6c9.2,7.5,16.2,17.4,21.5,28.1c12.7,5.1,25.2,10.8,37.6,16.6
		c5-7.8,12.9-13.3,21.5-16.5l-0.9-0.3c-3.7-8.3-2.6-17.6-2.7-26.5c0-17,0-34,0-51c0-4.7,0.6-9.5,3.1-13.6
		c-8.6-7.2-15.8-16.3-20.9-26.3c-8.7,0.3-17.5,0.5-26.2,0.5c0-20.2,0-40.4,0-60.6c5-1.2,10-2.4,15-3.7c0,6.6,0.1,13.2,0,19.8
		c0,3.3-1.4,6.3-2.9,9.2c9.3,4.8,16.6,12.8,21.1,22.2c4.6-0.3,9.3-0.7,13.9-0.9c-0.8-0.5-1.4-1.2-2.2-1.6
		c-1.2-5.2-0.8-10.5-0.8-15.7c0-11.7,0-23.4,0-35.1c0-5,0.8-9.9,2.7-14.5c-8.7-4-15.4-11.1-21.2-18.5
		C960.3,503.3,947.7,507.1,935.3,511.4 M401.9,516.3c1.9,4.3,3.2,8.9,3.1,13.6c0,25.7,0,51.4,0,77c0.1,3.2-1,6.2-2.8,8.8
		c2.6,2.8,3,6.6,2.9,10.2c-0.1,25.3,0,50.7-0.1,76c0,4.4-1.1,8.7-3,12.7c8.4,3.1,15.8,9,21,16.3c12.3-5.9,24.8-11.3,37.4-16.5
		c5-10.7,12.4-20.5,21.6-28c-0.2-0.2-0.7-0.6-0.9-0.8l-0.5,0.1c-1.1-2.4-2-5-1.9-7.7c0-14,0-28,0-42c-0.2-2.9,1.3-5.5,2.9-7.7
		c-4.7,0.8-9.5,1.3-14.2,1.8c-5.6,9.7-12.9,18.3-21.4,25.6c1.5,2.1,3,4.4,2.9,7.1c0.2,8.9-0.1,17.8,0.1,26.8
		c-4.9,1.7-9.9,3.2-14.8,4.9c0-53.6,0-107.2,0-160.8c5,1.3,10,2.5,15,3.6c-0.1,8.6,0.1,17.1-0.1,25.6c0,3-1.4,5.7-3,8
		c8.4,6.2,16.1,13.8,21.3,23c4.5,0.1,9,0,13.5,0.1c-0.8-1.3-2.1-2.6-2-4.2c0.1-24.2,0.1-48.4,0-72.6c-11.2-3.2-22.2-6.9-33.3-10.5
		c0.9,1,1.8,2,2.8,2.9c0.3,2.1,0.5,4.1,0.9,6.2c-3.2-2.2-4.7-5.9-5-9.6c-7.1-2.6-14.2-5.1-21.2-8
		C417.7,505.8,410.6,512.5,401.9,516.3 M868.3,529.3c1,0.4,2.1,0.8,3.2,1.2c0.4,2.4,0.8,4.9,0.8,7.3c0,14.7-0.1,29.3,0,44
		c0,1.7-0.3,3.4-0.6,5.1c-6.1-16.6-12.9-32.9-19.7-49.2c-1.2-1.8,0-3.7,0.9-5.3c-12.2,2.3-24.4,4.8-36.8,6c1.4,0.5,2.8,1,4.1,1.7
		c0.5,6.2,0.3,12.5,0.3,18.7c0,15.3,0.1,30.6,0,46c0.2,2.2-1.7,3.5-3.2,4.7c1.6,1.4,3.6,2.9,3.3,5.3c0,18.4,0,36.7,0,55.1
		c0,3.8,0.8,8.1-2.5,10.8c12.4,1.9,24.7,4.7,36.9,8c-1.2-1.1-2.4-2.3-3.7-3.4c-0.4-3.1-0.5-6.3-0.5-9.4c0.1-23.1-0.1-46.1,0.1-69.2
		c7.5,16.5,14.7,33.3,21.1,50.2c0.6,10,0.2,20,0.3,30c0.3,2.3-1.7,3.9-3.1,5.5c12.6,3.2,24.9,7.2,37.2,11.4c-1-1-2-1.9-3.1-2.8
		c-1.4-4.9-0.9-10.1-1-15.1c0-22.3,0-44.7,0-67.1c-0.2-2.8,1.2-5.4,3.1-7.4c-2.3-1.4-3.3-3.9-3.1-6.4c0-26,0-52,0-78
		c-0.1-2.9,1.5-5.4,3.8-7C893.6,523.7,880.9,526.5,868.3,529.3 M491.2,520.7c0.8,0.8,1.5,1.7,2.4,2.5c2.4,6.7,1.6,13.8,1.7,20.7
		c0,20.7,0.1,41.4,0,62c0.2,2.8-1.3,5.2-3.2,7.2c1.8,1.9,3.5,4.1,3.2,6.9c0.1,23.3,0,46.7,0,70c0.1,4.7-0.9,9.5-4.1,13.1
		c12.7-4.3,25.5-8.1,38.4-11.6c-0.5-0.1-1.6-0.4-2.1-0.5c-1.8-2.7-2.5-5.8-2.4-9c0-13.2,0-26.5,0-39.7c0.6-0.2,1.7-0.6,2.3-0.8
		c3.3,1,2.8,5.5,4,8.2c3.3,11.5,6.8,22.9,10.2,34.4c0.7,1.7-0.6,3.2-1.2,4.7c11.4-3.1,22.9-5.5,34.5-7.7c-0.2-0.2-0.5-0.7-0.7-1
		l-0.9-0.2c-2.3-4-3.3-8.6-4.7-12.9c-3.6-11.6-7.3-23.2-10.6-34.9c4.8-4.7,10.3-8.5,16.6-10.9l-1.5-0.3c-1.2-2.2-2.3-4.5-2.1-7
		c0-17.7,0-35.4,0-53.1c-0.2-2.9,1.4-5.5,3.3-7.6c-8.5-4.7-16.5-10.8-22-18.8C531.7,530.7,511.4,525.9,491.2,520.7 M770.1,544.1
		c1,0.5,2,1,3,1.5c0.5,3.7,0.4,7.5,0.4,11.2c0,31.3,0,62.7,0,94c0.1,1.5-0.2,3.2,0.5,4.6c-5.5-0.3-11-0.8-16.4-1.2
		c0-33.8,0-67.6-0.3-101.4c-0.3-3.1,0.8-6.2,3.4-7.9c-12.5,0.9-25,1.3-37.5,2.1c1,0.5,2,1,3,1.5c0.6,3.4,0.8,6.9,0.7,10.3
		c-0.1,29.7,0,59.3-0.1,89c0.1,1.6-0.2,3.3,0.5,4.8c-5.5,0.1-11-0.2-16.5-0.3c0.1-33.8-0.1-67.6,0.1-101.4c-0.3-2.1,1.8-3,3.2-3.9
		c-12.7,0.2-25.5,0.2-38.2,0c1.1,0.6,2.3,1.2,3.4,1.9c0.6,18.3,0.2,36.7,0.3,55c0.5,2.3-1.7,3.3-3.1,4.5c1.7,1,3.4,2.4,3.1,4.6
		c0.1,12.7,0,25.3,0,38c0.3,2.4-1.4,4.2-2.7,6c8,2.7,15.9,6.5,22.1,12.4c13,0.2,26.1,0.4,39.2,1.4c1.3-1,2.6-2.1,4-3.1
		c1.8,1.4,3.3,3.7,5.9,3.7c12.4,0.9,24.8,2.3,37.2,3.9c5.8-5.7,13.6-8.3,21-11.1c0.3,0.1,0.8,0.3,1.1,0.4c-1.3-2.4-3.1-4.8-2.7-7.7
		c0.1-14.3-0.1-28.6,0-43c-0.1-2.2,1.5-3.7,3.2-4.7c-1.5-1-3.6-2.1-3.2-4.3c-0.1-20-0.1-40,0-60c-0.3-2.4,1.7-3.9,3.5-5
		C795.4,541.6,782.8,543,770.1,544.1 M583.5,554.2c1.9,2.5,3.3,5.4,3.2,8.6c0,13.4,0.1,26.7,0,40.1c0.1,2.2-1.6,3.8-3,5.3
		c2.1,1.1,3.3,3.2,3.1,5.6c0.1,14,0.1,28.1,0,42.1c0.1,3.2-1,6.3-3.3,8.6c8,2.1,15.8,5.7,22,11.3c13-1.6,26.1-3.2,39.2-4.3
		c6.1-6.5,13.9-11.3,22.2-14.4c-4.4-3.5-3.3-9.4-3.3-14.3c0.5-10.3,0-20.7,0.3-31c-0.2-2.2,1.6-3.7,3.5-4.5c-1.6-1-3.7-2.2-3.5-4.5
		c-0.2-11.7,0.1-23.3-0.3-35c-0.5-3.3,1.5-5.8,3.4-8.2c-7.6-3-15-7.1-20.8-12.9c-0.8-0.9-1.9-1.4-3.1-1.4
		c-12.4-0.8-24.8-1.9-37.2-3.3C599.4,547.9,591.6,551.8,583.5,554.2z"/>
	<path class="st1" d="M525.2,551.6c5.2,0.8,10.3,1.5,15.5,2.2c0,21.5-0.5,43.1-0.2,64.7c-5.2,0.3-10.4,0.5-15.6,0.8
		C524.9,596.8,525.5,574.2,525.2,551.6z"/>
	<path class="st1" d="M617.5,561.8c5.3,0.3,10.5,0.6,15.8,0.9c0.1,30.7,0,61.4,0.1,92.1c-5.3,0.5-10.5,0.9-15.8,1.4
		C617.4,624.7,617.6,593.2,617.5,561.8z"/>
</g>
<g id="_x23_c4b177ff">
	<path class="st2" d="M725.9,134.8c2.7-8.8,5.6-17.6,10.5-25.4c0.2,10.6-0.2,21.3-2.6,31.6c-0.3,2.2-2.1,3.7-3.7,5.1
		c0.8-5.1,1.9-10.1,2.7-15.2C729,145.5,725,160,719.2,174c-4.4,11.2-10.9,21.7-19.4,30.2c5.1-3.2,9.5-7.6,13.2-12.4
		c-1.5,8-3.5,15.9-3.9,24c-0.5,5.1,0.3,10.2,0.6,15.4c-2.6-5.9-5.3-11.8-7-18c-10.7,9.7-25.5,14-39.8,12.8
		c-4.5-0.3-8.8-1.2-13.2-2.1c4.1,4.7,8.2,9.4,11.6,14.7c-4.5-3.5-8.1-7.9-12.3-11.7c-6.7-6.4-14-12.1-21.3-17.7
		c8.1,3.4,16.5,6.3,25.2,7.7c-14.6-4.5-28.4-12.2-38.4-23.9c1.1,13-1.9,26.1-7.4,37.9c4.4-6,7.9-12.6,10.7-19.5
		c-1.4,12.2-1.6,24.6-0.2,36.8c-1.9-4.2-3.4-8.5-4.2-13c-3.4,10.5-11.2,19.4-21.1,24.3c-10,5.1-21.5,6.3-32.6,6.1
		c2.4,3.8,4.9,7.5,7,11.5c-10-8.2-20.4-16-32-21.9c10.9,2.6,22.4,3.4,33.5,1.3c-5.8-0.7-11.6-0.4-17.3-1.6
		c-18-3-34.4-11.6-49.6-21.3c-6.8-4.2-12.8-9.4-19.5-13.8c2,1.9,4.1,3.7,6.1,5.6c-2.7,2-5.5-0.5-7.5-2.1
		c-6.6-5.5-12.3-11.9-17.5-18.6c7.1,2.1,13.8,5.4,20.2,9.2c2.9,2,6.8,3.9,7,7.9c3.1,0.1,5.3,2.6,7.8,4.1c15,11.1,32.6,18.9,51,22.4
		c13.1,2.1,27.7,1.6,38.9-6.4c9.7-6.2,15.5-16.8,18.2-27.8c2.1-9,3.4-18.4,1.4-27.6c-2.1-11.1-5.4-22.1-11.2-31.8
		c0.9,3.5,1.9,7,2.3,10.7c-1.9-0.8-4.1-1.7-4.9-3.8c-4.6-9.7-5.9-20.8-4.2-31.4c8.4,5.7,15,13.9,18.2,23.5c0.9,2.4,0.1,4.9-0.9,7.1
		c-2.1-2.8-3.7-5.9-5.5-8.8c4.3,15.4,10.6,31.1,22.9,42c13.5,12,31.9,19.1,50,16.8c12.7-2.1,22.7-11.3,30.2-21.1
		c10.5-13.3,15.4-29.8,20.7-45.6C725.7,140.9,725,137.7,725.9,134.8z"/>
	<path class="st2" d="M725.8,257.1c-7.3-16.1-11-34.6-6.6-52c-1.4,17.3,4.1,34.4,11.8,49.7C729.3,255.5,727.5,256.3,725.8,257.1z"/>
	<path class="st2" d="M606.4,259.2c15.6-7.2,33.4-9.6,50.4-7.2c-17.7,4-34.8,13-46.9,26.8c12.6-10.5,27.9-17.7,44-20.8
		c11.7-2.2,23.8-3.4,35.6-1.6c-18.3,0.6-36.6,6-51.7,16.5c26.3-12,56.1-12.8,84.5-10.5c-5.3,0.9-10.8,0.8-16.1,1.2
		c-21,1.7-42.1,6.5-60.9,16.4C625.8,290.4,608.7,307,601,328c8.8-16.5,23.3-29.3,39.3-38.7c15.8-9.1,33.1-15.4,50.8-19.2
		c-22.1,7.2-43.5,19.7-56.5,39.5c-7.4,11-10.7,24.1-12.2,37.2c-1.5,14.5,0.3,29.9,8.1,42.4c-6-16.7-5.6-35.4,1-51.9
		c5.6-14,14.7-26.5,25.9-36.6c-9.7,14.1-16.8,30.7-16.8,48.1c0.8,17.6,7.3,34.6,16.8,49.4c-3.3-15.7-5.7-32-3.3-48
		c1.3-8.7,4.8-17.8,12.2-23.2c-7.4,23.7-2.9,49.7,7.6,71.6c-2.5-15.3-3-31.8,3.8-46.2c-2,37.2,12.8,74.4,38.1,101.4
		c9.1,10.5,21.4,17.5,34.1,22.9c11.2,4.8,22.9,8.4,34.7,11.4c10,2.6,20.1,5.4,30.4,7c13.8,2.4,27.5,8.1,37.5,18.2
		c5.4,6,10,13.5,10,21.8c-2.4-4.1-4-8.9-7.8-12.1c-10.1-9.2-23.5-13.3-36.5-16.5c-13.6-3.4-27.6-4.8-41.4-6.8
		c-33.4-5.3-66.2-21.9-86-49.9c5.9,14.4,18.1,25.2,31.2,33c-30.9-12.3-59.6-30.5-83-54.2c12.7,15.6,28.2,28.9,45.4,39.4
		c-14.7-3.4-28.8-9.5-41.9-16.9c-17.8-10.1-33.7-23.6-45.5-40.3c-8.9-12.3-15-26.8-15.7-42.1c-2.9,15.4,3.7,30.4,11.1,43.5
		c-10.1-10.4-18.1-23-23.1-36.7c-3.8-10.1-4-21-4-31.6c0.4-18.2,5-36.7,15.7-51.6c2.9-4.2,6.5-7.8,9.9-11.5
		c-12.6,10-22.6,23.6-26.9,39.2c-1.4,4.7-1.8,9.5-2.8,14.3c-1.7-17.8,4.1-35.9,14.9-50C584.2,273.8,594.2,264.5,606.4,259.2
		 M617.3,281c-10.9,6.9-20.6,15.7-28.1,26.1c-2.8,3.7-4.8,7.8-7.6,11.5c1.5-14,10.7-25.5,17.8-37.1c-4.3,3.3-7.4,7.8-10.6,12.2
		c-11.9,16.8-17.7,37.7-16.3,58.2c0.4,5.5,0.9,11.2,3,16.4c1.8-24,10.7-47.5,25.2-66.7c6.2-8.6,14-15.8,21.7-23
		C620.7,279.3,618.9,280.1,617.3,281 M619.3,312.3c-10.3,11.9-17.9,26.3-21.6,41.5c-3.8,18.9,0.5,39.1,11.1,55.2
		c8.6,13,20.3,24.1,33.9,31.7c-14.6-13.4-28-29-34.8-47.9c-6.3-17-6.5-36.7,1.7-53.1c-0.6,9.7-1.3,19.6,0.5,29.2
		c3.3,18.8,13.1,36.7,28,48.8c-2.7-4.9-6.2-9.3-8.8-14.3c-6.8-12.2-11.5-25.6-12.8-39.5c-2.1-21.2,4.2-42.8,16.4-60.2
		c1.4-2.1,2.6-4.3,3.6-6.7C629.9,301.1,624.4,306.6,619.3,312.3 M632.8,365.8c1.4,27.9,14.5,54.5,34,74.2
		c7.1,7.1,14.5,14.1,23.3,19.1c-8.1-10.3-16.6-20.3-25.1-30.3c-16-19.7-26.6-43.4-31.6-68.3C633,362.4,632.8,364.1,632.8,365.8
		 M659.4,383.8c3.5,19,10.7,37.5,22.4,52.9c-9.7-23.5-17.8-47.6-24.5-72.2C656.7,371.1,658.3,377.5,659.4,383.8 M678.5,408.2
		c6.3,23.7,18.7,46.5,38.3,61.8c5.2,3.9,10.5,7.9,16.7,10.1c-4.4-3.8-9.4-7-13.7-11.1c-23.1-21.1-36.9-50.5-44.6-80.4
		C675.2,395.3,677,401.8,678.5,408.2z"/>
	<path class="st2" d="M730.5,260.3c3.6-1.3,7.6-2.8,11.3-1.5c2,0.8,1.7,3.2,2.1,4.9C739.5,262.7,735,261.5,730.5,260.3z"/>
	<path class="st2" d="M784.3,287.1c-2.3-3.4-5.5-6.9-3.9-11.3c4.2,4,8.3,8.1,12.3,12.3c1.1-2.1,2-4.5,4.4-5.5l1-0.6
		c1.1,3.1,1,6.5,0.9,9.8c-0.9-1.3-1.7-2.6-2.5-3.9c-0.2,2-0.3,4.1-0.5,6.1c-1.1,0.3-2.1,0.6-3.1,0.9c1.1,0.2,2.3,0.3,3.4,0.6
		c7,2.2,14.3,3.1,21.1,6.1c6.3,2.5,12,6.2,17.4,10.2c-3.4,0.7-6.7,1.8-9.5,3.9c-6.8-10.6-18.9-17-31.3-18.1c-4.6-0.7-9,1-13.3,2.4
		c-5.3-3.8-8.6-9.6-14-13.2c-3.4-3.6-7.5-6.5-11.8-8.9c12.6,2.4,24.1,8.8,33.5,17.4C787.3,292.3,786.1,289.6,784.3,287.1z"/>
	<path class="st2" d="M705.8,289.2c12.1-5.1,25.3-11.7,38.7-7.9c-8.1,1.2-16.5,2-23.6,6.4c6.6-1.5,13.3-3.5,20.2-2.7
		c5.4,0.4,10.6,2.6,14.7,6.2c3.9,3.5,9.5,3.7,14.4,4c0.1-0.6,0.2-1.7,0.3-2.3c0.5,1.7,1,3.3,1.5,5c-5.6,0.3-12.7,0.7-16.2-4.5
		c-2.3-3.5-6.8-4.1-10.7-4.3c-7.7-0.2-15,3.2-21,7.7c-4.7,3.8-11.1,4.5-17,4.9c-7.6,0.4-14.3-3.8-21.2-6.3
		C692.8,294.7,700,293.4,705.8,289.2z"/>
	<path class="st2" d="M552.2,299.1c4.6-6.1,10.1-11.7,16.5-16c-13.8,20.7-19.5,46.2-17.3,70.9c1.9,15.5,6.7,30.8,14.7,44.3
		c-4.4-12.1-7-25-6.6-37.9c6.5,38.2,27.8,74,59.5,96.5c-6.4-7.8-14.3-15.1-17.1-25.1c19.6,24.7,47.9,40.7,77,51.5
		c-18.8-3.8-37.4-8.7-55-16.3c-8.8-3.6-16.4-9.5-23.8-15.3c-4.8-3.8-8.8-8.5-13-13c-14.2-15.6-26.3-33.3-34.3-52.9
		c-6-14.7-9.8-30.4-9.5-46.3c-4.1,15.9-1.7,32.8,3,48.3c4.3,14.5,11.3,28.1,18.8,41.1c-11.1-13.2-20.1-28.4-25.4-44.9
		c-6.3-19.9-6.7-42,0.7-61.7C543.7,314.4,547,306.1,552.2,299.1z"/>
	<path class="st2" d="M739.8,296.9c1.8,0,3.5-0.1,5.3,0.2c2.8,1.9,4.8,4.7,7.9,6.4c-0.3,0.2-1,0.6-1.3,0.8c-4.5,0.2-9.1,0.6-13.6,1
		c1.1,0.5,2.1,1,3.2,1.5c-2.6,0.2-5.1,0.4-7.7,0.7c4.3,0.5,8.7,0.8,12.9,1.8c-4.2,1.2-8.6,1.6-13,2.2c6.4,1.4,12.8,0.1,19.1-1.3
		c-1.6,1.3-3.2,2.5-4.8,3.7c1.3-0.5,2.7-1,4-1.5l0.3,0c5.5,0.3,10.4-2.4,15.6-3.8c3.7-1.1,7.5-1.4,11.4-1.5
		c-8.1,1.6-15.5,5.6-23.5,7.4c-4.5,1.2-9.2,1.5-13.9,1.9c5.7,1.8,11.8,2.3,17.5,0.7c6.6-1.5,13-5.7,20-3.6c4.2,1,7,4.5,9.4,7.8
		c2.2,3.2,5.3,5.7,8.5,7.8c-2.7-4.9-4.8-10.1-7.5-15c-1.6-3.1-4.9-4.8-7.8-6.5c3,0.8,6.2,1.6,8.8,3.6c4.8,3.5,7.1,9.3,11.3,13.4
		c2.1,2.2,4,4.8,7,5.9c4.2,1,8-1.4,11.7-2.8c3-0.4,6.2-1,9.2,0c2.3,1,2.3,3.8,1.7,5.9c-1.1,4.6-4.6,8.3-8.9,10.1
		c-8.5,3.6-16.8,7.7-24.9,12.1c5.3-0.8,10.5-2.4,15.8-3.1c-8.2,5.2-17.1,9.4-24.9,15.4c12.9-6.1,25.5-12.6,39-17.4
		c4-1.3,7.5-3.9,10.2-7.1c-0.8,3.7-2.6,7.3-5.8,9.4c-3.4,2-7.1,3.1-10.8,4.4c-8,2.4-15.7,6-23.3,9.5c-10,5-20.2,10.1-28.5,17.6
		c-3.9,3.8-8.7,7-14.3,7.3c10.6-9.4,17.8-21.9,28.9-30.8c-3.8,1.2-8,2.8-11.9,1.1c-5-2.1-9.7-4.8-14.2-7.8c-1.6-0.9-2.8-3.2-1.4-4.8
		c3.9-5.7,8.8-10.6,13.5-15.6c-6.3,3.5-12.1,8-17.8,12.4c-8,6-19.2,6.9-28.3,3c-5.3-2-8.8-6.7-11.3-11.6c-4.3-8.7-6.2-18.2-7.2-27.8
		c2.4,3.2,4.9,6.4,7.5,9.4c-0.4-3-1.2-6.7,1.7-8.7c4.6-3.4,11.4-4.1,16.4-1.1c-0.5-1-1.5-3-1.9-4c1.7,0.1,3.5,0.1,5.2,0.2
		c-1.6-0.8-3.2-1.6-4.8-2.4c1.3-1.1,2.5-2.1,3.8-3.2c1.3,0.8,2.5,1.6,3.9,2.3C739.8,302.1,739.4,298.8,739.8,296.9z"/>
	<path class="st2" d="M845.5,325.4c1.4-0.9,2,1.1,2.9,1.8c-0.5,0.5-1.5,1.6-2,2.1c0.5,5.2,1.5,10.4,0.7,15.6
		c-0.3,2.3-0.8,4.6-0.6,6.9c1.2,3.2,4,6,3.4,9.7c-1.6-2.8-3.5-5.3-5.7-7.8c-2.1-2.2-0.9-5.4-0.4-7.9c1.4-5.2,0.6-10.7-0.1-16
		C843.2,328.1,844,326.3,845.5,325.4z"/>
	<path class="st2" d="M838.6,369.2c-0.5,4.1-2.2,7.8-3.8,11.6c0-3.5,0.2-7,0.1-10.5c0.8-0.2,2.5-0.6,3.3-0.8L838.6,369.2z"/>
	<path class="st2" d="M698.4,374.3c1.1,12.2,4.2,24.2,10.4,34.8c14.1,25.4,39.1,42.8,65.4,53.7c-14.6-8.9-28.9-19-39.7-32.5
		c-6.4-7.8-10-17.6-11.6-27.6c-1-7.3-0.6-15.2,3.7-21.4c-0.4,19.4,9.6,38.3,25.3,49.6c-4.8-6.9-9.7-14.6-9.5-23.4
		c4.8,10.9,12.3,21,22.9,26.8c2.9,1.6,6.5,2.1,9.7,1c5.2-1.6,10.4-3.2,15.6-4.6c-5.6-0.9-11.2-0.9-16.9-0.7
		c10.5-5.2,21.8-8.5,33.1-11.7c0.9-2.1,1.8-4.2,2.9-6.3c-0.1,2,0,4,0,6c2.1-0.2,4.3-0.4,6.4-0.6c5.6-0.7,11.3-0.2,16.9,0.7
		c0.3-3.4,0.4-6.8,0.3-10.3c0.3,0.2,0.9,0.7,1.2,0.9l0,0.2c0.4,3.5,0.8,6.9,1.2,10.4c1.9,0.4,3.8,1,5.7,0.6c2.4,2.2,3.1,6.2,2.1,9.3
		c-1.8,1.8-4.7,0.3-6.8,0c-5.4-1.9-11.1-2.2-16.7-2c15.1,1.5,30.2,10.4,35.7,25c-7.3-7.4-16.4-13.7-27.1-14c2.7,2,5.6,3.7,8.4,5.7
		c5.5,3.8,10,9.1,12.6,15.3c-4.3-3.7-8.5-7.8-13.8-10c-7.9-3.5-16.4-6.2-25.1-6.3c11,4,22.7,8.4,30.5,17.5c-6.2-2.3-12-5.5-18.4-7.1
		c-10.9-3-21.9-6.1-33-8.5c7.3,5.2,15.4,9,22.8,14c-14-1.6-26.9-7.4-40-12.1c13,9.1,28.4,14,43.2,19.4c11,4.1,21.3,9.9,30.8,16.8
		c-3.3-8.3-11-13.4-17.2-19.4c9.8,3,17.4,10.8,22.8,19.3c3.8,6.1,6.3,13.4,4.9,20.7c-1.8-3.5-3.9-6.9-7-9.5
		c-7.4-6.4-16.7-10.2-25.9-13.2c-11-3.2-22.1-6.4-33.1-9.7c9.8,4.6,19.8,8.7,29.7,13.2c6.3,3.1,12.9,6.5,17.3,12.3
		c-19.9-7.8-41.6-8.4-61.8-15.1c-16.5-5.5-33.3-12.4-46.2-24.5c-12.7-11.6-23.3-25.9-28.8-42.3C696.6,401.8,696.2,387.8,698.4,374.3
		 M710.7,420.5c1.7,5.8,5.4,10.8,9,15.7c10.7,13.9,25.2,24.6,41,31.9c13.9,5.6,28.2,10.7,42.9,13.7c-4.2-2.2-8.8-3.5-13.2-5.3
		c-13.7-5.5-27-11.8-39.6-19.5c-11.7-7.2-23-15.6-32-26.1C715.8,427.7,713.5,423.9,710.7,420.5z"/>
	<path class="st2" d="M805,377.6c1.2-1,2.4-2,3.7-3c0.1,4.3-0.3,8.5-1.5,12.6C806.7,384,806,380.8,805,377.6z"/>
	<path class="st2" d="M528.5,376.1c3.1,14,7.7,27.8,15,40.3c7,12.8,17.3,23.3,25.7,35.2c-11.2-9.2-21.2-19.8-29.3-31.9
		c1.5,5.1,4.2,9.7,7,14.2c8.9,13.8,20.5,25.5,32.5,36.7c3.6,3.4,7.7,6.4,11,10.1c-12.8-8.1-24.6-18-35.1-29
		c-10.8-11.6-20-25.1-24.8-40.3C526.7,400,525.8,387.7,528.5,376.1z"/>
	<path class="st2" d="M534.9,436.5c3.2,9.8,8.3,18.8,14.6,26.9c12.5,16.1,28.5,29.2,45.4,40.6c11.3,7.7,23.4,14.1,35.2,20.9
		c-11.6-4.6-22.5-10.7-33.5-16.7c-17.9-10.4-35.3-22.1-48.9-37.9C540.1,460.9,532.8,449.2,534.9,436.5z"/>
	<path class="st2" d="M591.5,464.4c27.8,21.5,62.2,32.6,96.5,38.2c22.8,3.8,46,5.3,69.2,4.6c-11.3,1.8-22.7,2.1-34.1,2.1
		c-30.5,0.4-61.6-3.2-90.1-14.5c15,10.8,32.4,17.6,50.2,22c16.4,4,33.3,5.9,50.1,6.4c-20.5-2.9-41.7-4.5-60.7-13.3
		c22.4,4.9,45.5,6.7,68.5,5.6c24-1.4,48.2-1.8,72,1.3c10.7,1.6,21.8,3.4,30.9,9.6c-25.4-4.6-51.5-3.4-76.9,1
		c-27.4,5.4-56,5.6-83.1-1.5c-33.1-8.6-63.4-27.5-86-53.1C595.7,470.2,593.4,467.4,591.5,464.4z"/>
	<path class="st2" d="M538.8,511c-9.5-10.9-12.4-27.4-5.5-40.4c7.2,17.7,21.6,31.6,37.6,41.5c13.5,8.5,28.9,13.1,43.4,19.4
		c-16.4-1.9-32.5-6.5-47.3-13.8c-11.1-5.5-21.3-13.2-29.2-22.8c4.4,11.1,13.5,19.4,22.5,26.8c7.1,5.8,15.1,10.2,22.7,15.3
		C566.5,532.3,550.2,524.2,538.8,511z"/>
	<path class="st2" d="M401.9,516.3c8.7-3.8,15.8-10.5,21.2-18.2c0.3,2.2,1.6,4.8-0.2,6.6c-4.3,5.5-9.7,10-15.7,13.5
		c2.6,9,1.6,18.4,1.8,27.6c0,19.7,0,39.3,0,59c0,3.7-0.7,7.3-1.7,10.9c7.5-1,15.1-1.5,22.7-1.9c0.2,28.8-0.2,57.7-0.2,86.5
		c7.8-2.5,15.6-5.1,23.4-7.6c-1.4-1.1-2.8-2.2-4.2-3.2c-0.2-8.9,0.1-17.8-0.1-26.8c0.1-2.7-1.4-5-2.9-7.1c8.4-7.3,15.7-16,21.4-25.6
		c0.7,1.2,1.3,2.4,2,3.6c1.6,0,3.2,0.1,4.8,0.1c0.1,13,0,26.1,0,39.1c0.1,4.4-0.1,9,1.9,13.1c1.5,0,3-0.2,4.5-0.3l0.5-0.1
		c0.2,0.2,0.7,0.6,0.9,0.8c-9.2,7.5-16.6,17.3-21.6,28c-12.6,5.2-25.1,10.6-37.4,16.5c-5.2-7.3-12.6-13.1-21-16.3
		c1.9-4,3-8.3,3-12.7c0.1-25.3,0-50.7,0.1-76c0.1-3.6-0.3-7.4-2.9-10.2c1.8-2.6,2.9-5.6,2.8-8.8c0.1-25.7,0-51.4,0-77
		C405.1,525.2,403.8,520.6,401.9,516.3z"/>
	<path class="st2" d="M448.5,509.5c1.6,1.4,3.4,2.7,4.6,4.4c0.2,2,0,4-0.2,6c-1.2-1.4-2.4-2.8-3.6-4.2
		C449,513.7,448.8,511.6,448.5,509.5z"/>
	<path class="st2" d="M914,537.9c8.8-7.2,16.3-16.2,21.3-26.5c0.9,1,1.9,2,2.8,3c-4.9,8.9-11,17.3-18.6,24.1c1,3.7,1.6,7.5,1.5,11.4
		c-0.1,11,0,22-0.1,33c-0.1,6.9,0.7,14-1.3,20.7c2.5,2,4.9,4.2,7.3,6.4c1.4,1.3,2.9,2.9,5,2.8c15.8,0.8,31.8,1.2,47.6,2.9
		c3.4,2.4,6.4,5.6,8.5,9.2c-2.2,9.6-1.3,19.4-1.4,29.1c0,15.7,0,31.3,0,47c0.2,3.8,0,8,2,11.5c1.5,1,3.3,1.4,5,1.9l0.9,0.3
		c-8.5,3.3-16.5,8.7-21.5,16.5c-12.4-5.8-24.9-11.5-37.6-16.6c-5.3-10.6-12.3-20.5-21.5-28.1c2.5-2.9,3.3-6.8,3-10.6
		c-0.3-12.4,0.4-24.9-0.4-37.3c2.7,2.2,6.1,3.1,9.4,3.8c5.5,7.7,11,15.5,18,22c-2,9.4-1.1,19.1-1.2,28.7c7.8,2.8,15.6,5.5,23.5,7.9
		c-1.4-2.1-2.8-4.2-4.3-6.2c-0.2-22.1,0.4-44.2,0.4-66.2c-8.4-0.9-16.8-1.5-25.1-2.3c-1.2,0-2.2-0.6-2.7-1.6
		c-5.5-7.8-12.4-14.6-20.2-20.1c1.7-2.9,3.1-6.1,3-9.6c0.1-14,0-28,0-41.9C917.3,547.7,917.6,542.1,914,537.9z"/>
	<path class="st2" d="M493.6,523.2c1.6,1.4,3.5,2.6,4.8,4.3c0.6,1.7,0.6,3.6,0.7,5.4c-0.1,20.3,0,40.7-0.1,61
		c-0.1,6.3,0.7,12.9-1.4,19c7.8-0.2,15.6-1.1,23.4-1.4c0,4.1,0,8.2,0,12.3c7.9-0.5,15.8-0.7,23.7-1.6c-1.4-1.3-2.8-2.5-4.1-3.7
		c-0.3-21.5,0.2-43.1,0.2-64.7c-5.2-0.8-10.3-1.5-15.5-2.2c-1.1-1.6-2.3-3.1-3.4-4.7c7.6,1.1,15.1,2.3,22.7,3.5
		c0.2,19.9-0.4,39.8,0.4,59.7c7.3,0,14.5-0.6,21.8-0.4c0.1,3.3,0.3,6.6,0.5,10c2,0.4,3.9,0.8,5.9,1.2l1.5,0.3
		c-6.3,2.4-11.9,6.2-16.6,10.9c-1.7-0.4-3.3-0.8-5-1.2c4.8,15.9,9.7,31.8,14.6,47.7c1.9,0.5,3.8,0.9,5.7,1.4l0.9,0.2
		c0.2,0.2,0.5,0.7,0.7,1c-11.6,2.2-23.1,4.6-34.5,7.7c0.6-1.5,1.9-3,1.2-4.7c-3.4-11.5-7-22.9-10.2-34.4c-1.3-2.7-0.7-7.2-4-8.2
		c2.3-0.5,3.3-2.7,4.4-4.6c-3.5,0.3-7,0.8-10.5,1.3c-0.7,13.9-0.2,27.8-0.4,41.7c0.1,3-0.3,6.4,1.1,9.2c1.8,0.9,3.7,1.3,5.6,1.8
		c0.5,0.1,1.5,0.4,2.1,0.5c-12.9,3.5-25.7,7.3-38.4,11.6c3.2-3.6,4.2-8.4,4.1-13.1c-0.1-23.4,0-46.7,0-70c0.3-2.8-1.5-5-3.2-6.9
		c1.9-1.9,3.4-4.3,3.2-7.2c0.1-20.7,0-41.3,0-62C495.1,537,495.9,529.9,493.6,523.2z"/>
	<path class="st2" d="M943.3,533.5c7.4-2,14.9-3.7,22.4-5.4c-0.5,10.8,1.5,21.9-1.3,32.5c7.3,4.8,13,11.6,17.7,19
		c3.2,0.5,6.4,0.9,9.5,2.1c0.8,0.4,1.5,1,2.2,1.6c-4.7,0.3-9.3,0.6-13.9,0.9c-4.5-9.3-11.8-17.4-21.1-22.2c1.5-2.8,3-5.9,2.9-9.2
		c0.1-6.6,0-13.2,0-19.8c-5,1.4-10,2.5-15,3.7C945.6,535.7,944.5,534.6,943.3,533.5z"/>
	<path class="st2" d="M871.5,530.5c1.4,0.5,2.9,1.1,4.2,1.8c0.6,1.7,0.5,3.7,0.6,5.5c-0.2,14,0,28-0.1,42
		c-0.1,6.8,0.3,13.6-0.4,20.4c-1.5-4.4-2.7-8.9-4.1-13.4c0.3-1.7,0.6-3.4,0.6-5.1c-0.1-14.7,0-29.3,0-44
		C872.3,535.4,871.9,533,871.5,530.5z"/>
	<path class="st2" d="M820.2,540.2c1.2,0.6,2.5,1.2,3.7,2c1,6.1,0.2,12.4,0.4,18.6c-0.2,16.1,0.4,32.3-0.4,48.4
		c7.4,0.4,14.8,0.7,22.2,1c0.5,20.2,0.5,40.4,0.4,60.7c0,3.4-0.3,6.9,0.3,10.4c1.1,1.7,2.9,2.8,4.4,4.1c1.3,1.1,2.5,2.2,3.7,3.4
		c-12.2-3.2-24.5-6.1-36.9-8c3.3-2.7,2.5-7,2.5-10.8c0-18.4,0-36.7,0-55.1c0.4-2.4-1.6-3.9-3.3-5.3c1.5-1.2,3.4-2.5,3.2-4.7
		c0.1-15.3,0-30.6,0-46C820.4,552.7,820.7,546.4,820.2,540.2z"/>
	<path class="st2" d="M583.5,554.2c8.1-2.5,15.9-6.4,22.2-12.1c0.4,1.5,0.7,3,1.1,4.5c-5.2,3.7-10.9,6.8-16.7,9.6
		c0.9,9.2,0.6,18.4,0.6,27.6c0,8.4,0.3,16.9-0.7,25.3c7.6,0.1,15.3,0,22.9,0c0.2,17.3-0.1,34.5,0.3,51.8c8-0.5,16-1.1,24-2
		c-1.3-1.4-2.7-2.8-4-4.1c-0.1-30.7,0-61.4-0.1-92.1c-5.3-0.3-10.5-0.7-15.8-0.9c-1-1.4-2.1-2.8-3.1-4.3c7.6,0.3,15.1,0.8,22.6,1.3
		c-0.1,16.7,0.3,33.4,0.3,50.1c7.4,0.3,14.9,0.1,22.3,0.2c-0.6,10.2,0,20.4-0.4,30.7c0,4.9-0.6,9.8,0.5,14.6
		c2.1,1.6,4.8,1.9,7.3,2.8c-8.3,3.1-16.1,7.9-22.2,14.4c-13.1,1-26.2,2.6-39.2,4.3c-6.2-5.5-14-9.2-22-11.3c2.3-2.3,3.4-5.4,3.3-8.6
		c0.1-14,0.1-28.1,0-42.1c0.2-2.4-0.9-4.5-3.1-5.6c1.4-1.5,3.2-3,3-5.3c0.1-13.4,0-26.7,0-40.1C586.9,559.7,585.5,556.7,583.5,554.2
		z"/>
	<path class="st2" d="M773.1,545.6c1.4,0.7,2.9,1.4,4.4,2.1c0.1,20.5,0,41.1,0,61.6c7.7,0.1,15.4-0.1,23.1,0.1
		c-0.8,11.8-0.2,23.6-0.4,35.4c0.2,5.2-0.5,10.5,0.3,15.7c1.2,1.9,3.6,2.6,5.6,3.5c-7.4,2.8-15.2,5.4-21,11.1
		c-12.4-1.6-24.8-2.9-37.2-3.9c-2.5,0-4.1-2.3-5.9-3.7c-1.3,1-2.6,2.1-4,3.1c-13-1-26.1-1.2-39.2-1.4c-6.2-5.8-14.1-9.7-22.1-12.4
		c1.2-1.8,2.9-3.6,2.7-6c0-12.7,0.1-25.3,0-38c0.3-2.2-1.4-3.6-3.1-4.6c1.5-1.2,3.6-2.2,3.1-4.5c-0.1-18.3,0.4-36.7-0.3-55
		c1.4,0.8,2.8,1.7,4.3,2.5c0.1,12.1-0.1,24.3,0.3,36.4c0,7.1,0.7,14.3-1.2,21.2c7.8,0.1,15.7,0,23.5,0c0.5,15.7,0.3,31.5,0.4,47.2
		c8,0.4,15.9,0.6,23.9,0.8c-1.1-1.5-2.2-2.9-3.2-4.4c-0.8-1.5-0.4-3.2-0.5-4.8c0.1-29.7,0-59.3,0.1-89c0.1-3.5-0.1-6.9-0.7-10.3
		c1.8,1.1,4.8,1.7,4.4,4.3c0.1,18.9,0,37.7,0.5,56.6c7.4,0,14.8-0.1,22.3,0c0.1,16.4-0.1,32.7,0.3,49c8,0.5,15.9,1.1,23.9,1.6
		c-1.2-1.5-2.3-3-3.4-4.6c-0.7-1.4-0.4-3.1-0.5-4.6c0.1-31.4,0-62.7,0-94C773.5,553.1,773.6,549.4,773.1,545.6z"/>
	<path class="st2" d="M846.4,585.7c4,8.4,7.2,17.2,11,25.7c13.9-0.1,27.7,0.1,41.6,0.6c-1.1,8.9-0.5,17.9-0.6,26.8
		c-0.1,18.7,0.1,37.4,0.3,56c-0.4,3.1,2.7,4.5,4.7,6.1c1.1,0.8,2.1,1.8,3.1,2.8c-12.3-4.2-24.6-8.2-37.2-11.4
		c1.4-1.6,3.3-3.1,3.1-5.5c-0.1-10,0.4-20-0.3-30c-6.4-17-13.6-33.7-21.1-50.2C849.7,599.7,847.7,592.8,846.4,585.7z"/>
</g>
</svg>
