<?xml version="1.0" encoding="utf-8"?>
<!-- Generator: Adobe Illustrator 19.1.0, SVG Export Plug-In . SVG Version: 6.00 Build 0)  -->
<svg version="1.1" id="Layer_1" xmlns="http://www.w3.org/2000/svg" xmlns:xlink="http://www.w3.org/1999/xlink" x="0px" y="0px"
	 viewBox="0 0 260.9 219.3" style="enable-background:new 0 0 260.9 219.3;" xml:space="preserve">
<style type="text/css">
	.st0{fill:#F59A00;}
</style>
<g>
	<path id="XMLID_8_" class="st0" d="M136,74.1c0,0-5.2-25.2-0.3-34.4c4.5-8.6,19.7-8.5,19.7-8.5s9.8-0.5,20.7,0.6
		c39.8,4.2,65,14.9,65,14.9s20.4,6.8,15.3,22.3c-1.3,3.8-4,9.6-10.6,12.3c-0.6,0.3-1.3-0.1-1.5-0.7l-1.5-4.7
		c-0.8-0.4-3.7-1.9-6.4-2.9h-0.1c-16.6-6.3-49.2-9.8-58.1-10.2c-13.9-0.7-11.8-2.3-9.6,10.4c9.7,38.6,27.3,67.3,39.9,83.3l0,0
		c6.7,7.7,15.3,7.4,21.3,3.4c0,0,4.8-2.8,6.6,3c1.7,5.4,7.8,21.5-0.5,45.6c-1.1,2.9-2.7,7.1-4.5,8.2c-1.2,0.7-2.5,0.2-3.9-0.7
		c-25.6-16.8-51.7-51.4-51.7-51.4c-34.3-45.6-40.2-92.1-40.2-92.1l0,0"/>
	<path id="XMLID_7_" class="st0" d="M129.5,113.6c-6.2,0.1-8.7,3.4-9.2,8.3c-2.4,27.9-3.3,76.2,0,87.6c2.1,7.5,8.6,7.1,8.6,7.1h1.2
		c0,0,7.5,0.2,8.7-7.1c1.9-11.7,2.2-51.9-0.1-86.9C138.4,117.2,135.8,113.6,129.5,113.6"/>
	<path id="XMLID_6_" class="st0" d="M128.4,29.3c4.7,0.6,10.3-2.6,12-8.3c1.2-3.9,2.2-8.3-1.8-13.4c-4.3-5.5-12.9-3.4-12.9-3.4
		s-7.4,1.9-8.3,9C116.9,16.4,116.9,27.9,128.4,29.3"/>
	<path id="XMLID_5_" class="st0" d="M123,74.2c0,0,5.2-25.2,0.3-34.4c-4.9-9.2-19.8-8.3-19.8-8.3c-5.6-0.1-12.4,0-20.5,0.5
		c-24.3,1.9-54.1,8.8-65,14.4c0,0-20.1,7.2-15.1,22.6c1.3,3.8,3.8,9.2,10.3,11.9c0.6,0.3,1.3-0.1,1.5-0.7l1.9-5.2
		c0.8-0.4,3.4-1.4,6.1-2.3h0.1C39.4,66.4,72.1,63,81,62.6c13.9-0.7,12.1-1.7,9.1,11c-2.7,11.4-9.5,29.8-9.5,29.8
		c-3.8,10.8-29.3,17.3-32,18.6c0,0-8.7,3.3-12.4,11.6c-1.7,3.9-2.2,5.4-2.2,5.4c-0.5,1.5,0.7,3.5,3.6,2.6l27-5.9
		c0.2,0-3.6,5.7-3.6,5.7s-4,5.8-5.5,8c0,0-4.4,6.1-5.5,7.4c-6.1,7.4-15.5,7.1-21.4,2.9c0,0-3.6-2.5-5.4,3.2
		c-1.7,5.4-8.1,21.5,0.2,45.6c1.1,2.9,2.8,6.7,4.6,7.9c1.4,1.6,2.5,0.4,3.8-0.6c18.5-14,39.8-34.6,57.2-59.5
		c18.9-27,27.7-57,27.7-57C119,92.6,122,78.8,123,74.2"/>
</g>
</svg>
