<?xml version="1.0" encoding="utf-8"?>
<!-- Generator: Adobe Illustrator 19.0.0, SVG Export Plug-In . SVG Version: 6.00 Build 0)  -->
<svg version="1.1" id="Layer_1" xmlns="http://www.w3.org/2000/svg" xmlns:xlink="http://www.w3.org/1999/xlink" x="0px" y="0px"
	 viewBox="-8 352.9 438.4 115" style="enable-background:new -8 352.9 438.4 115;" xml:space="preserve">
<g id="_x23_ffffffff">
</g>
<g id="_x23_000000ff">
	<path d="M257,352.9c4.1,0,8.3,0,12.4,0c0,12.6,0,25.3,0,38c8.5,0.1,17,0,25.5,0c0,4.4,0,8.7,0,13c-8.5,0-17,0-25.4,0
		c-0.5,7.2,0.4,15.3,6.3,20.2c5.1,4.9,12.5,5.1,19.1,4.8c0,4.4,0,8.7,0,13c-7.4,0.2-15.2-0.3-21.7-4.2c-9.9-5.5-16.2-16.5-16.2-27.8
		C257,390.9,257,371.9,257,352.9z"/>
	<path d="M66.5,390.5c6.9-9.3,19.2-14.2,30.6-12c14.1,2.3,25.5,15.2,26,29.4c0.2,11.3,0,22.7,0.1,34c-4.2,0-8.3,0-12.5,0
		c0-11,0.1-22.1,0-33.1c-0.3-9.6-9-18.1-18.7-17.9c-10-0.7-19.2,8.1-19.5,18c-0.1,11,0,22,0,33c-4.2,0-8.3,0-12.5,0
		c0-10.7,0-21.4,0-32.1C60.1,402.9,62.3,396,66.5,390.5z"/>
	<path d="M192.5,387.4c3.2-5.9,9.8-9.5,16.5-9.5c12.7,0,25.3,0,38,0c0,4.4,0,8.7,0,13c-13,0-26-0.1-39,0.1c-4.3,0.1-7,5.4-5.1,9
		c0.9,2.4,3.4,4.1,6,3.9c8.7,0.1,17.5-0.1,26.2,0.1c7.8,0.4,15.1,5.8,17.2,13.4c2.4,7.5-0.6,16.3-7,20.8c-3.5,2.7-8,3.8-12.3,3.8
		c-12.3,0-24.6,0-36.8,0c0-4.4,0-8.7,0-13c12.7,0,25.3,0,38,0c3.1,0.3,6.2-2,6.5-5.1c0.6-3.3-2.3-6.8-5.6-6.8
		c-8.7-0.2-17.4,0.1-26.1-0.1c-6.2-0.1-12.3-3.1-15.6-8.4C189.1,402.4,188.8,393.9,192.5,387.4z"/>
	<path d="M17.5,379.6c15.9-3.6,33.4,7.4,36.9,23.4c3.8,14.4-4.5,30.6-18.2,36.3c-10.9,4.9-24.4,2.8-33.3-5.1
		c-9.1-7.9-13.1-21.1-9.6-32.6C-3.5,390.4,6.2,381.6,17.5,379.6 M18.5,392.5c-9.9,2.3-16.7,13.5-13.3,23.2
		C8,426,20.2,431.5,30.1,427.9c7.2-2.3,12.6-9.3,12.7-16.9c0.3-6.9-3.8-13.8-10-16.9C28.5,391.7,23.3,391.4,18.5,392.5z"/>
	<path d="M132.2,393c7.4-11.8,23.1-17.4,36.3-12.8c6.9,1.9,12.1,7,16.9,12.1c-11.8,11.7-23.5,23.4-35.2,35.1c4.3,2,9.3,2.7,13.8,1.2
		c5.3-1.3,8.9-5.6,12.5-9.3c2.9,3,5.9,5.9,8.8,8.8c-2.7,2.6-5.3,5.5-8.4,7.7c-6.8,4.9-15.7,6.9-23.9,5.3
		c-8.9-1.5-16.9-7.2-21.5-14.9C125.6,416.3,125.8,402.9,132.2,393 M145,396.8c-5.8,5.6-7.1,14.8-3.6,21.9
		c8.6-8.6,17.1-17.1,25.7-25.6C159.9,389.5,150.6,390.9,145,396.8z"/>
	<path d="M324.5,379.6c15.9-3.5,33.3,7.4,36.8,23.3c3.9,14.7-4.7,31.2-18.9,36.6c-9,3.7-19.7,2.9-28-2.1
		c-9.9-5.7-15.9-17.2-15.4-28.6C299.5,394.7,310.6,382,324.5,379.6 M325.5,392.5c-9.8,2.3-16.7,13.4-13.3,23.2
		c2.8,10.3,15.1,15.8,24.9,12.3c7.2-2.3,12.6-9.4,12.8-17c0.3-6.9-3.8-13.8-9.9-16.8C335.5,391.7,330.2,391.4,325.5,392.5z"/>
	<path d="M367.3,409c0.3-14.9,12.8-28.2,27.5-29.7c17.1-2.7,34.6,11.3,35.4,28.7c1.5,15.3-9.8,30.3-24.8,33.2
		c-8.5,1.5-17.3,0.5-25.9,0.8c0,8.6,0,17.3,0,25.9c-4.1,0-8.3,0-12.4,0C367.3,448.2,367.2,428.6,367.3,409 M385.9,396.7
		c-3.8,3.3-6.1,8.2-6.2,13.3c-0.1,6.3,0,12.6,0,19c6.8,0,13.6,0.1,20.5-0.1c9-0.2,17.2-7.8,17.8-16.9c0.8-6.8-2.9-13.7-8.7-17.2
		C402,390.3,392,391,385.9,396.7z"/>
</g>
</svg>
