<?xml version="1.0" encoding="utf-8"?>
<!-- Generator: Adobe Illustrator 21.0.0, SVG Export Plug-In . SVG Version: 6.00 Build 0)  -->
<svg version="1.1" id="Layer_1" xmlns="http://www.w3.org/2000/svg" xmlns:xlink="http://www.w3.org/1999/xlink" x="0px" y="0px"
	 viewBox="0 0 506.5 609.2" style="enable-background:new 0 0 506.5 609.2;" xml:space="preserve">
<style type="text/css">
	.st0{fill:#2A6C36;}
</style>
<path class="st0" d="M500.7,239.8l-16.3,15.9c0,0-18.1-72.3-125.6-111.5c0,0-1.8-22.9,5.3-65.7c0,0-40.1,19-57.3,59.5l-9.3-1.3
	c0,0-34.4-44.5-59.9-136.6c0,0-95.8,77.4-100.5,250.6c0,0-100.4,27.7-137.1,93.2c0,0,72.3,29.1,138.4,126.1s140.2,149.9,215.1,137.5
	c0,0,7.9-19.4,12.3-69.6l20.3-4.4c0,0,23.8,7.1,35.3-3.5c11.5-10.6,11.5-10.6,11.5-10.6l16.8,7.1c0,0,33.9-70.1,15-100.1l-0.9-36.1
	l11,6.2C474.7,396.3,522.8,364.1,500.7,239.8z M325.6,575.9c0,0-82.6-13.9-138.8-110.4S55.1,328.7,55.1,328.7s32.1-29.8,68.1-29.8
	l0,0c-12.8,11.8-12.8,32-0.1,43.8c18.6,17.1,44.1,42.7,62.9,69.3c33.1,46.9,68.8,112.4,126.3,139.5c0,0,9.3-8.6,13.2-26.4
	C325.6,525,336.8,557.4,325.6,575.9z M196.6,371.6v-46.7c45.4,40.5,56.5,87.1,56.5,87.1l-36.7-13.2L196.6,371.6z M441.7,433.7
	l-26.9-16.3l3.5-13.7c-10.1,4.8-13.7,15-13.7,15l20.3,24.2c0,0-10.6,16.3-12.3,43.2s-26.4,17.6-26.4,17.6
	c15.4-60.4,7.1-100.1,7.1-100.1c-36.1-17.2-38.3-54.7-38.3-54.7c40.6,4,50.3,39.2,50.3,39.2l36.6-4
	C452.7,409.9,441.7,433.7,441.7,433.7z M460.2,359.2l-92.1-42.8L330,335c0,0-25.4-14.1-34.7-43.2c0,0,0,43.2,32.2,84.6
	s41,45.8,41,45.8s2.2,44.1-9.7,71.8L303.3,462c0,0-13.2-87.3-104.9-177.6c0,0-7.5-16.8-12.5-43.4c12.2,4.1,34.9,10.2,72.8,15.6
	c0,0-40.8-18.2-76.5-43.9c-0.8-10.1-1-21-0.4-32.4c11.5,8.8,34,23.9,72.5,43c0,0-39.2-34.9-68.3-76.3c2-10,4.9-20.2,8.6-30.6
	c24.5,38.8,51.1,61.6,51.1,61.6c-17.8-30.9-30.8-68.2-37.8-90.9c5.4-9.8,11.7-19.7,19.2-29.4c0,0,11.8,59.5,48,119
	c0,0-4.3,25.1,11.1,58.6c0,0-2.2-30.4,12.8-53.8c0,0,99.6-19.4,150.8,92.1c0,0-39.7-11.9-83.8-6.6c0,0,55.1,11.9,92.6,35.3
	c0,0,14.5-0.4,25.1-11C483.6,291.4,483.1,333.7,460.2,359.2z"/>
</svg>
