<svg id="Layer_1" data-name="Layer 1" xmlns="http://www.w3.org/2000/svg" xmlns:xlink="http://www.w3.org/1999/xlink" viewBox="0 0 458.97 398.99"><defs><style>.cls-1{fill:#272626;}.cls-2{fill:#fff;}.cls-3{fill:url(#linear-gradient);}</style><linearGradient id="linear-gradient" x1="127.66" y1="254.91" x2="127.66" y2="355.99" gradientUnits="userSpaceOnUse"><stop offset="0.1" stop-color="#fd7b3f"/><stop offset="1" stop-color="#f2da3e"/></linearGradient></defs><title>Artboard 1</title><g id="_272626ff" data-name="#272626ff"><path class="cls-1" d="M.54,94.53Q146.55,47.05,292.7,0q-.12,39.92-.22,79.82C348,61.86,403.42,43.77,459,26.05Q369.15,93.31,279.62,161c26,9.35,52,18.53,77.86,28.22Q314.56,203.11,271.66,217c-.28,32.29-7.44,65.25-24.94,92.74a128.5,128.5,0,0,1-40.57,40.47c-7.55,4.78-15.74,8.43-23.93,11.94C144.73,374.4,107.27,386.76,69.78,399c0-71.27-.1-142.54.18-213.81-23.36,7.4-46.61,15.19-70,22.62Q.33,151.16.54,94.53M239.07,50.15c0,7.73,0,15.45,0,23.18-4.42-6.22-8.38-12.76-12.59-19.12q-97.38,31.58-194.81,63c-.08,15.88-.12,31.75-.28,47.63,23.23-7.63,46.5-15.13,69.76-22.7,0,32.47.07,64.94,0,97.41,28-9.06,55.93-18.24,83.94-27.18,0,13.69-1.23,27.64-6.24,40.5-4.38,11.65-12.82,22.15-24.5,27-.06-8.33,0-16.66,0-25q-26.55,8.6-53.11,17.13c0,28-.24,56-.17,83.95,17.72-5.69,35.33-11.71,53.08-17.29.42-14.16,0-28.33.28-42.49,4,12.7,8,25.43,12,38.14a97.91,97.91,0,0,0,49.82-35.21C233.38,275.91,240,246.47,240.43,218c.29-7.81-.85-15.57-.72-23.37,7.19-2.4,14.42-4.72,21.65-7-7.19-2.73-14.46-5.25-21.69-7.88,0-9.25,0-18.49,0-27.73,17.23-13.06,34.58-25.95,51.77-39.06-35.59,11.6-71.24,23-106.82,34.62q0,15.46-.15,30.94c10.58,3.06,21.14,6.16,31.79,9-20.8,1.39-41.68,1.64-62.5,2.76q0-32.55.07-65.11,53.75-17.42,107.46-34.88c0-15.77.13-31.54.13-47.3C254,45.37,246.52,47.76,239.07,50.15Z"/></g><g id="_ffffffff" data-name="#ffffffff"><path class="cls-2" d="M239.07,50.15c7.45-2.39,14.9-4.78,22.33-7.25,0,15.76-.12,31.53-.13,47.3q-53.71,17.49-107.46,34.88-.09,32.55-.07,65.11c20.82-1.12,41.7-1.37,62.5-2.76-10.65-2.8-21.21-5.9-31.79-9q.15-15.46.15-30.94c35.58-11.61,71.23-23,106.82-34.62-17.19,13.11-34.54,26-51.77,39.06,0,9.24,0,18.48,0,27.73,7.23,2.63,14.5,5.15,21.69,7.88-7.23,2.31-14.46,4.63-21.65,7-.13,7.8,1,15.56.72,23.37-.39,28.49-7,57.93-24.26,81.16a97.91,97.91,0,0,1-49.82,35.21c-4-12.71-8-25.44-12-38.14-.05-5.44,0-10.88-.05-16.31,11.68-4.87,20.12-15.37,24.5-27,5-12.86,6.28-26.81,6.24-40.5-28,8.94-56,18.12-83.94,27.18.11-32.47,0-64.94,0-97.41-23.26,7.57-46.53,15.07-69.76,22.7.16-15.88.2-31.75.28-47.63q97.4-31.53,194.81-63c4.21,6.36,8.17,12.9,12.59,19.12C239,65.6,239,57.88,239.07,50.15Z"/></g><g id="_f7a640ff" data-name="#f7a640ff"><path class="cls-3" d="M101.16,272q26.58-8.51,53.11-17.13c0,8.33,0,16.66,0,25,.1,5.43,0,10.87.05,16.31-.3,14.16.14,28.33-.28,42.49C136.32,344.28,118.71,350.3,101,356,100.92,328,101.16,300,101.16,272Z"/></g></svg>