<?xml version="1.0" encoding="UTF-8" ?>
<!DOCTYPE svg PUBLIC "-//W3C//DTD SVG 1.1//EN" "http://www.w3.org/Graphics/SVG/1.1/DTD/svg11.dtd">
<svg width="667pt" height="667pt" viewBox="0 0 667 667" version="1.1" xmlns="http://www.w3.org/2000/svg">
<g id="#4189ddff">
<path fill="#4189dd" opacity="1.00" d=" M 0.00 0.00 L 667.00 0.00 L 667.00 667.00 L 0.00 667.00 L 0.00 0.00 M 332.99 172.82 C 320.94 209.76 309.00 246.73 296.93 283.66 C 258.06 283.65 219.19 283.70 180.32 283.63 C 211.77 306.48 243.24 329.30 274.67 352.17 C 262.69 389.13 250.68 426.09 238.65 463.03 C 270.11 440.21 301.53 417.34 333.00 394.53 C 364.47 417.34 395.89 440.21 427.35 463.03 C 415.32 426.08 403.31 389.13 391.32 352.17 C 422.76 329.30 454.23 306.48 485.68 283.63 C 446.81 283.71 407.94 283.65 369.07 283.66 C 356.99 246.73 345.07 209.75 332.99 172.82 Z" />
</g>
<g id="#ffffffff">
<path fill="#ffffff" opacity="1.00" d=" M 332.99 172.82 C 345.07 209.75 356.99 246.73 369.07 283.66 C 407.94 283.65 446.81 283.71 485.68 283.63 C 454.23 306.48 422.76 329.30 391.32 352.17 C 403.31 389.13 415.32 426.08 427.35 463.03 C 395.89 440.21 364.47 417.34 333.00 394.53 C 301.53 417.34 270.11 440.21 238.65 463.03 C 250.68 426.09 262.69 389.13 274.67 352.17 C 243.24 329.30 211.77 306.48 180.32 283.63 C 219.19 283.70 258.06 283.65 296.93 283.66 C 309.00 246.73 320.94 209.76 332.99 172.82 Z" />
</g>
</svg>
