<?xml version="1.0" encoding="utf-8"?>
<!-- Generator: Adobe Illustrator 19.0.0, SVG Export Plug-In . SVG Version: 6.00 Build 0)  -->
<svg version="1.1" id="Layer_1" xmlns="http://www.w3.org/2000/svg" xmlns:xlink="http://www.w3.org/1999/xlink" x="0px" y="0px"
	 viewBox="-140.13 323.83 287.01 195.532" style="enable-background:new -140.13 323.83 287.01 195.532;" xml:space="preserve">
<style type="text/css">
	.st0{fill:#030303;}
	.st1{fill:#F5C70A;}
	.st2{fill:#047781;}
	.st3{fill:#02505D;}
	.st4{fill:#FCFDFC;}
</style>
<path class="st0" d="M-0.38,347.52c-0.31-5.51-1.91-11.96,2.1-16.56c9.59,6.73,19.77,12.61,30.28,17.78
	c19.94,8.62,40.83,14.73,61.43,21.54c2.25,0.61,3.69,2.47,4.95,4.3c5.6,7.78,14.16,13.65,23.72,15.12c5.66,1.04,11.29,2.2,16.89,3.5
	c-3.01,8.87-7.04,17.38-10.77,25.97c-4.06,7.01-6.41,15.78-13.9,20.05c-10.49,5.65-22.86,4.69-34.3,3.52
	c-15.17-0.45-30.83,2.34-44.15,9.85c-1.66,0.81-3.44,1.62-4.37,3.32c23.18,0.38,46.37-0.06,69.56,0.3
	c-3.14,4.76-7.23,8.81-10.25,13.65c1.2,4.58,1.32,9.34,1.1,14.04c0.16,5.63-5.35,10.42-10.87,9.93c-38.69,0.04-77.39,0-116.08,0.02
	c-2.14,0.06-4.48,0.29-5.85,2.16c-5.07,5.64-10.03,11.39-15.47,16.68c-23.54,0.13-47.08,0.05-70.62,0.05
	c12.09-16.76,24.79-33.09,37.18-49.64c0.96-1.29,1.65-2.75,2.29-4.21c-6.38-0.23-12.76,0.06-19.15-0.17
	c-7.22-7.76-14.33-15.64-21.2-23.7c11.34,0.06,22.68,0.35,34.02,0.21c11.29-0.03,22.58-0.04,33.87,0.06
	c2.1-0.03,4.35,0.07,6.16-1.18c2.72-5.34,4.45-11.17,7.75-16.22c6.69-10.55,16.5-19.4,28.24-23.92c0.27,5.62-0.07,11.25-0.06,16.87
	c7-6.34,14.13-12.85,23-16.46c0.19,1.7,0.01,3.42-0.63,5.01c-2.38,6.66-5,13.33-5.82,20.41c-0.47,2.7-0.43,5.62-1.74,8.09
	c-2.66,2.99-6.15,5.12-8.9,8.04c-3.84,4.04-8.55,7.61-10.51,13.03c7.09,0.31,14.26,0.74,21.32-0.01c3.67-1.97,6.54-5.11,9.93-7.49
	c2.09-13.33,3.57-27.31,10.84-39.04c2.23-3.97,5.44-7.41,9.55-9.45c-0.67,2.83-1.71,5.54-3.02,8.13
	c-2.61,5.23-3.92,10.96-5.52,16.55c-0.92,3.09-0.97,6.33-0.76,9.53c4.64-3.11,7.68-8.74,13.65-9.53c-0.36,1.32-0.73,2.64-1.12,3.95
	c-7.45,9.68-10.65,22.57-8.54,34.61c0.39,1.51,1.33,2.79,2.1,4.13c3.01-3.21,5.08-7.19,8.22-10.29c8.26-7.8,19.47-12.29,30.81-12.64
	c13-0.19,26.01,0.35,39,0c5.17-0.53,11.74-2.4,13.25-8.07c-0.69-0.09-2.07-0.26-2.75-0.35c-6.83-0.85-13.76-0.09-20.57-1.2
	c-4.59-0.86-9.16,0.28-13.73,0.6c-2.18-0.63-3.82-2.59-6.15-2.75c-5.99-0.65-11.95,0.55-17.9,1.04c0.16-2.37-0.13-5.11,1.71-6.95
	c5.77-7.18,16.13-7.61,24.47-5.92c9.09,3.29,17.82,8.39,27.64,9.14c4.03-0.11,8.19,0.04,12.08-1.16c5.85-2.14,8.3-9.64,6.19-15.2
	c-1.78-3.11-4.61-5.41-7-8.02c0.1-1.77,0.21-3.53,0.32-5.29c-10.89-2.42-21.51-6.65-30.28-13.66c-2.37-1.9-4.24-4.41-6.87-5.96
	c-3.21-1.41-6.7-1.99-10.04-3.01c-21.21-6.13-41.87-14.09-62.16-22.74c-1.27-0.43-2.59-0.73-3.89-1.04
	c-1,10.26,5.26,20.28,14.05,25.27c-1.18,0.37-2.36,0.74-3.55,1.09c-7.71-2.52-13.97-8.2-18.09-15.1c-2.08-3.92-7.06-2.8-10.7-3.14
	c-13,0.24-26.15-1.04-39.03,1.19c4.91,1.81,10.02,3.18,14.54,5.89c-2.47,0.48-4.97,0.91-7.5,0.94c-15.57-0.25-31.93,0.41-46.17,7.36
	c4.5,0.76,9.14,0.98,13.44,2.67c-3.6,2.75-7.97,4.12-11.95,6.21c-8.33,4.22-16.99,8.28-23.79,14.84
	c-1.37-6.85-2.08-13.84-2.39-20.81c9.98-7.17,22.31-10.07,34.22-12.15c6.26-1.62,12.72-2.05,19.15-2.33
	c-1.29-3.51-4.87-5.43-6.49-8.78C-44.37,345.65-22.25,347.27-0.38,347.52 M129.86,393.55c0.71,1.7,1.73,3.26,3.22,4.39
	C133.58,395.5,132.51,393.53,129.86,393.55 M63.7,423.24c4.06-0.2,7.85-1.71,11.59-3.15c0.33,0.63,1.01,1.88,1.34,2.51
	c0.93-1.09,1.83-2.23,3.09-2.95c0.05,1.5,0.08,3,0.09,4.5c2.5-0.75,4.98-2.79,7.7-1.8c2.79,0.91,5.62,1.93,8.62,1.7
	c-1.55-2.63-4.46-3.87-7.06-5.19c-4.41-2.03-9.14-3.96-14.09-3.53C70.04,415.37,65.73,418.9,63.7,423.24 M-120.26,438.75
	c3.97,6.12,9.08,11.39,13.43,17.24c8.6,0.21,17.21,0.03,25.82,0.06c-2.16,3.95-5.82,6.94-7.44,11.19c3.03-1.05,4.13-4.44,6.89-5.91
	c3.45-1.99,4.1-6.46,7.25-8.75c2.43-1.87,5.01-3.65,6.77-6.22c2.42-3.65,7.51-3.94,9.98-7.6c-7.71-1.7-13.43,4.52-19.45,8.1
	c-5.05,1.79-9.84,4.27-14.93,5.97c4.22-5.25,10.25-8.69,14.34-14.04C-91.81,438.55-106.04,438.6-120.26,438.75 M-50.87,438.8
	c-1.8,1.69-2.77,4.03-4.17,6.03c-2.53,3.75-6.4,6.28-9.19,9.81c-2.72,4.09-7.86,5.34-11.05,8.97c-5.12,5.6-13.35,6.33-19.21,10.78
	c-6.57,8.14-12.51,16.78-19.03,24.97c-2.69,3.84-6.07,7.25-8.05,11.55c19.18,0.29,38.38,0.01,57.57,0.15
	c1.91-0.04,3.85,0.1,5.74-0.32c2.99-2.37,5.1-5.65,7.57-8.52c2.07-2.73,4.8-5.02,6.06-8.27c-13.53-0.36-27.06,0.09-40.59-0.23
	c6.17-9.14,14.28-16.98,19.72-26.59c-3.26,0.95-5.48,3.85-8.62,4.97c-2.51-0.28-4.92,0.32-7.18,1.36c4.74-4.63,11-7.45,15.16-12.69
	c3.75-4.58,8.15-8.55,12.21-12.82c3.58-2.57,7.63-4.93,9.45-9.17C-46.6,438.69-48.75,438.5-50.87,438.8 M-70.21,483.65
	c-1.88,2.43-4.11,4.62-5.5,7.4c7.52,0.04,15.06,0.21,22.59-0.05c2.37-1.35,3.27-4.4,5.35-6.2c0.43,2.15,0.97,4.27,1.68,6.34
	c3.2-0.03,6.41-0.02,9.62-0.06c-0.85-8.08-2.53-16.05-3.31-24.14c-0.35-2.03-0.3-4.2-1.21-6.08c-2.85-2.15-6.65-1-9.94-1.22
	C-57.41,467.6-63.74,475.68-70.21,483.65 M-37.83,465.85c1.03,6.93,1.77,13.91,2.88,20.84c1.58-2.02,2.15-4.55,3.07-6.89
	c4.22,3.5,7.54,7.99,11.99,11.2c4.06,0.29,8.14,0.09,12.21,0.03c-3.11-4.42-7.53-7.71-10.66-12.12c4.03-0.82,8.78-1.27,11.49-4.79
	c2.3-3.61,2.65-8.85-0.07-12.33c-2.81-3.19-7.36-1.96-11.08-2.18c-4.97,0.22-10.01-0.44-14.92,0.36
	C-35.77,460.29-38.54,462.78-37.83,465.85 M-4.41,459.63c-0.58,4.24,2.05,8.35,0.6,12.53c-1.3,3.53-4.12,6.2-6.77,8.75
	c-0.8,4.43,3,7.27,5.64,10.15c7.98,0.09,15.97,0.01,23.95,0.06c1.64-2.14,3.05-4.5,5.1-6.29c0.19,2.08,0.35,4.17,0.53,6.26
	c3.28,0.05,6.55,0.03,9.82-0.01c-0.65-7.11-2.12-14.11-3-21.19c-0.48-3.38-0.48-7.04-2.6-9.9c-1.67,1.74-1.99,4.29-3.61,6.06
	c-0.5-2.1-0.79-4.24-1.07-6.37c-2.3,0.18-5.42-1-6.81,1.52c-4.9,6.34-9.86,12.64-14.72,19.01c3.61,0.38,7.27,0.5,10.88,0.07
	c3.38-2.56,4.73-7.06,8.1-9.69c0.84,3.99,1.43,8.03,2.18,12.04c-7.69,0.05-15.37,0.02-23.05,0c1.51-7.88,5-15.2,6.95-22.97
	C3.67,459.56-0.37,459.56-4.41,459.63 M33.79,468.84c1.17,7.18,1.65,14.47,3.13,21.6c2.41-5.38,3.3-11.42,6.25-16.52
	c1.22,5.72,2.11,11.52,3.76,17.14c4,0,8,0.04,12.01,0.01c3.39-10.51,7.29-20.86,10.6-31.4c-3.52-0.08-7.04-0.08-10.56,0
	c-1.88,5.7-3.39,11.5-5.32,17.18c-1.43-5.69-2.58-11.43-3.88-17.15c-4.27-0.13-8.53-0.08-12.8-0.07
	C35.72,462.63,34.49,465.66,33.79,468.84 M65.19,479.56c3.91,0.08,7.82,0.19,11.72,0.48c-0.02,0.64-0.05,1.92-0.06,2.56
	c-4.26,0.12-8.52-0.07-12.77,0.09c-1.84,2.31-2,5.58-2.71,8.39c6.22,0.04,12.45,0.05,18.67,0.01c2.94,0.13,4.92-2.55,6.48-4.67
	c3.26-4.52,1.91-11.53-2.65-14.65c-4.57-0.5-9.19-0.11-13.78-0.17c-0.09-0.7-0.28-2.11-0.37-2.82c5.68-0.64,11.39,0.41,17.06-0.15
	c3.35-2.13,5.47-5.87,7.91-8.96c-7.57-0.18-15.14-0.01-22.71-0.03C69.59,466.24,67.16,472.83,65.19,479.56 M-88.45,467.24
	C-88.86,467.79-88.86,467.79-88.45,467.24z"/>
<path class="st0" d="M52.53,371.92c1.28-2.11,2.64-4.17,4.07-6.19c-0.55,2.46-1.6,4.97-1.14,7.53c5.62,4.38,12.76,5.93,18.83,9.52
	c-3.19,1.62-6.62,2.67-10.09,3.46c-4.84,0.02-9.5-1.34-14.24-2.05c-2.27,1.61-2.84,4.86-4.17,7.24c0.63-2.84,2.09-5.48,2.46-8.36
	c-3.31-3.85-7.85-6.89-9.16-12.12c4.17,0.86,8.27,2.24,12.57,2.32C51.87,372.93,52.31,372.25,52.53,371.92 M46.57,375.83
	c0.59,1.84,1.87,3.22,3.39,4.34c0.57-1.42,1.07-2.87,1.45-4.35C49.79,375.8,48.18,375.81,46.57,375.83 M51.63,379.98
	c1.45,2.23,4.19,1.97,6.52,2.01c0.03-0.75,0.08-2.25,0.1-3c-1.07-0.82-2.12-1.65-3.26-2.36C53.55,377.36,52.72,378.85,51.63,379.98z
	"/>
<path class="st0" d="M-28.3,468.16c4.05-0.39,8.13-0.27,12.19-0.08c-0.02,1.15-0.06,2.3-0.09,3.46c-3.25,0.09-6.5-0.1-9.74,0.09
	c-1.52,0.85-2.72,2.14-4.07,3.22C-29.5,472.6-28.85,470.39-28.3,468.16z"/>
<path class="st0" d="M-58.16,482.61c2.61-4.13,5.53-8.05,8.38-12.01c1.69,3.77,1.19,8.03,1.7,12.04
	C-51.44,482.63-54.8,482.68-58.16,482.61z"/>
<g id="_x23_f5c70aff">
	<path class="st1" d="M-6.27,341.87c-0.208-1.806-0.408-5.687,1.41-10.074c1.765-4.259,4.532-6.822,5.94-7.966
		c13.9,9.25,28.36,17.84,43.91,24.05c6.53,2.61,13.19,4.9,19.87,7.13c3.71,1.35,35.081,11.55,36.24,12.81
		c7.229,7.857,4.463,4.906,7.229,7.857c1.721,1.837,4.389,4.265,8.381,6.543c4.713,1.306,9.833,2.759,15.44,3.57
		c14.73,2.13,0,0,14.73,2.13c-0.71,1.63-4.99,14.89-7.47,19.4c-1.82,4.94,0,0-10.36,22.61c-2.36,6.56-7.07,12.84-13.84,15.28
		c-4.19,1.05-7.72,4.02-12.23,3.81c-31.14,0.24-20.76,0.13-31.14,0.24c7.66,1.2,0,0,23.17,0.06c5.31,0.36,10.65-0.06,15.95,0.29
		c2.23,1.4,0.2,3.85-1.06,5.17c-4.33,4.08-7.17,9.42-11.33,13.65c-1.23,1.17-0.88,2.99-0.91,4.5c0.11,4.01,0.34,8.02,0.76,12.02
		c-1.61,7.79-8.51,13.99-16.42,14.73c-39.25,0.12-78.51-0.07-117.76,0.09c-3.68,3.44-7.13,7.1-10.69,10.67
		c-2.9,3.16-5.12,7.75-9.58,8.81c-23.65,0.13-47.31,0-70.97,0.06c-3.68-0.1,0,0-10.88,0.052c8.8-12.95,19.02-26.492,27.93-39.372
		c3.42-5.07,7.82-9.41,10.78-14.78c-3.52-0.03-7.7,1.02-10.64-1.49c-6.55-6.49-12.15-13.85-18.68-20.35
		c-3.72-4.61-8.13-8.62-11.64-13.39c11.67-0.25,23.36,0.03,35.03,0.01c-1.88-4.98-4.83-9.49-6.42-14.59
		c-3-9.3-5.23-18.87-6.35-28.58c-0.72-5.14-1.57-10.36-0.82-15.54c1.69-2.36,4.27-3.88,6.7-5.38c10.78-6.1,22.98-9.17,35.19-10.75
		c1.78-0.17,3.51-0.63,5.21-1.16c-1.13-1.78-2.31-3.54-3.53-5.26c2.58-1.37,4.39-3.73,6.47-5.56c3.176-0.379,8.303-0.917,14.65-1.24
		c10.109-0.514,15.925-0.103,31-0.01C-19.152,341.944-13.375,341.955-6.27,341.87z M-0.38,347.52c-21.87-0.25-43.99-1.87-65.58,2.5
		c1.62,3.35,5.2,5.27,6.49,8.78c-6.43,0.28-12.89,0.71-19.15,2.33c-11.91,2.08-24.24,4.98-34.22,12.15
		c0.31,6.97,1.02,13.96,2.39,20.81c0.48,3.24,1.671,6.569,1.711,9.849c3.139,7.46,1.479,9.741,3.669,14.251
		c1.98,6.67,6.53,12.08,11.23,17.04c-11.34,0.14-22.68-0.15-34.02-0.21c6.87,8.06,13.98,15.94,21.2,23.7
		c6.39,0.23,12.77-0.06,19.15,0.17c-0.64,1.46-1.33,2.92-2.29,4.21c-12.39,16.55-25.09,32.88-37.18,49.64
		c23.54,0,47.08,0.08,70.62-0.05c5.44-5.29,10.4-11.04,15.47-16.68c1.37-1.87,3.71-2.1,5.85-2.16c38.69-0.02,77.39,0.02,116.08-0.02
		c5.52,0.49,11.03-4.3,10.87-9.93c0.22-4.7,0.1-9.46-1.1-14.04c3.02-4.84,7.11-8.89,10.25-13.65c-23.19-0.36-46.38,0.08-69.56-0.3
		c0.93-1.7,2.71-2.51,4.37-3.32c13.32-7.51,28.98-10.3,44.15-9.85c11.44,1.17,23.81,2.13,34.3-3.52c7.49-4.27,9.84-13.04,13.9-20.05
		c3.73-8.59,7.76-17.1,10.77-25.97c-5.6-1.3-11.23-2.46-16.89-3.5c-9.56-1.47-18.12-7.34-23.72-15.12c-1.26-1.83-2.7-3.69-4.95-4.3
		c-20.6-6.81-41.49-12.92-61.43-21.54c-10.51-5.17-20.69-11.05-30.28-17.78C-2.29,335.56-0.69,342.01-0.38,347.52z"/>
	<path class="st1" d="M46.57,375.83c1.61-0.02,3.22-0.03,4.84-0.01c-0.38,1.48-0.88,2.93-1.45,4.35
		C48.44,379.05,47.16,377.67,46.57,375.83z"/>
	<path class="st1" d="M51.63,379.98c1.09-1.13,1.92-2.62,3.36-3.35c1.14,0.71,2.19,1.54,3.26,2.36c-0.02,0.75-0.07,2.25-0.1,3
		C55.82,381.95,53.08,382.21,51.63,379.98z"/>
	<path class="st1" d="M-120.26,438.75c14.22-0.15,28.45-0.2,42.66,0.04c-4.09,5.35-10.12,8.79-14.34,14.04
		c5.09-1.7,9.88-4.18,14.93-5.97c6.02-3.58,11.74-9.8,19.45-8.1c-2.47,3.66-7.56,3.95-9.98,7.6c-1.76,2.57-4.34,4.35-6.77,6.22
		c-3.15,2.29-3.8,6.76-7.25,8.75c-2.76,1.47-3.86,4.86-6.89,5.91c1.62-4.25,5.28-7.24,7.44-11.19c-8.61-0.03-17.22,0.15-25.82-0.06
		C-111.18,450.14-116.29,444.87-120.26,438.75z"/>
	<path class="st1" d="M-50.87,438.8c2.12-0.3,4.27-0.11,6.39-0.02c-1.82,4.24-5.87,6.6-9.45,9.17c-4.06,4.27-8.46,8.24-12.21,12.82
		c-4.16,5.24-10.42,8.06-15.16,12.69c2.26-1.04,4.67-1.64,7.18-1.36c3.14-1.12,5.36-4.02,8.62-4.97
		c-5.44,9.61-13.55,17.45-19.72,26.59c13.53,0.32,27.06-0.13,40.59,0.23c-1.26,3.25-3.99,5.54-6.06,8.27
		c-2.47,2.87-4.58,6.15-7.57,8.52c-1.89,0.42-3.83,0.28-5.74,0.32c-19.19-0.14-38.39,0.14-57.57-0.15c1.98-4.3,5.36-7.71,8.05-11.55
		c6.52-8.19,12.46-16.83,19.03-24.97c5.86-4.45,14.09-5.18,19.21-10.78c3.19-3.63,8.33-4.88,11.05-8.97
		c2.79-3.53,6.66-6.06,9.19-9.81C-53.64,442.83-52.67,440.49-50.87,438.8z"/>
	<path class="st1" d="M-88.45,467.24C-88.86,467.79-88.86,467.79-88.45,467.24z"/>
</g>
<g id="_x23_047781ff">
	<path class="st2" d="M8.3,346.87c1.3,0.31,2.62,0.61,3.89,1.04c20.29,8.65,40.95,16.61,62.16,22.74c3.34,1.02,6.83,1.6,10.04,3.01
		c2.63,1.55,4.5,4.06,6.87,5.96c8.77,7.01,19.39,11.24,30.28,13.66c-0.11,1.76-0.22,3.52-0.32,5.29c2.39,2.61,5.22,4.91,7,8.02
		c2.11,5.56-0.34,13.06-6.19,15.2c-3.89,1.2-8.05,1.05-12.08,1.16c-0.1-0.42-0.3-1.28-0.4-1.7c3.41-0.77,7.15-1.53,9.53-4.32
		c2.91-3.73,3.21-9.49,0.15-13.24c-3.72-5-10.05-6.68-15.65-8.63c-8.32-2.59-16.67-6.39-25.6-5.53c-4.1,0.16-7.77,2.12-11.33,3.96
		c-0.37-1.12-0.74-2.24-1.11-3.35c-7.59,0.12-14.9,2.58-22.5,2.71c0.91-0.48,1.83-0.95,2.75-1.42c6.34-0.93,12.34-3.21,18.41-5.19
		c3.47-0.79,6.9-1.84,10.09-3.46c-6.07-3.59-13.21-5.14-18.83-9.52c-0.46-2.56,0.59-5.07,1.14-7.53c-1.43,2.02-2.79,4.08-4.07,6.19
		c-6.23-4.09-13.1-6.99-20.01-9.69c-5.43-1.97-10.03-5.94-15.89-6.73c-0.65,6.38,3.54,11.5,7.16,16.23
		c-0.36,0.1-1.08,0.31-1.44,0.41C13.56,367.15,7.3,357.13,8.3,346.87z"/>
	<path class="st2" d="M-49.02,356.18c12.88-2.23,26.03-0.95,39.03-1.19c3.64,0.34,8.62-0.78,10.7,3.14
		c4.12,6.9,10.38,12.58,18.09,15.1c1.42,0.5,2.84,1.02,4.26,1.54c-4.67,0.31-9.34-0.09-14.01-0.11c-0.5,1.99-0.99,3.98-1.49,5.97
		c-4.97-9.1-14.02-17.55-25.02-17.04c0.94,3.97,3.24,7.79,2.33,12c-7.5-3.14-15.36-6.75-23.71-5.85c-4.43,0.66-9.05,1.79-12.48,4.85
		c4.37,1.3,9.44,1.67,12.56,5.43c-4.84,2.89-10.79,2.04-15.95,4.04c-12.99,4.53-25.58,10.95-35.75,20.35
		c-5.1,4.33-10.38,8.53-14.61,13.78c-2.19-4.51-4.9-20.86-5.38-24.1c6.8-6.56,15.46-10.62,23.79-14.84
		c3.98-2.09,8.35-3.46,11.95-6.21c-4.3-1.69-8.94-1.91-13.44-2.67c14.24-6.95,30.6-7.61,46.17-7.36c2.53-0.03,5.03-0.46,7.5-0.94
		C-39,359.36-44.11,357.99-49.02,356.18z"/>
	<path class="st2" d="M-37.41,404.5c6.56-5.34,13.37-10.73,21.55-13.33c1.09,4.69-0.14,9.45-0.24,14.18
		c3.83-1.34,6.35-4.67,9.73-6.74c3.59-2.28,7.49-3.99,11.41-5.6c0.02,0.34,0.06,1.03,0.08,1.37c-8.87,3.61-16,10.12-23,16.46
		c-0.01-5.62,0.33-11.25,0.06-16.87c-11.74,4.52-21.55,13.37-28.24,23.92c-3.3,5.05-5.03,10.88-7.75,16.22
		c0.2-3.17,0.43-6.42,1.79-9.34C-48.58,417.13-43.88,409.91-37.41,404.5z"/>
	<path class="st2" d="M23.85,456.21c-2.11-12.04,1.09-24.93,8.54-34.61c-0.96,4.89-3.85,9.11-4.86,13.98
		c-1.21,5.84-2.04,11.8-1.76,17.77c6.87-3.74,11.77-10.14,18.49-14.07c5.67-2.99,12.21-3.35,18.39-4.56
		c4.3-0.86,8.67-0.02,13.01-0.14c10.88-1.07,21.9,2.48,32.69-0.15c2.9-0.62,4.86-2.9,6.13-5.44c0.68,0.09,2.06,0.26,2.75,0.35
		c-1.51,5.67-8.08,7.54-13.25,8.07c-12.99,0.35-26-0.19-39,0c-11.34,0.35-22.55,4.84-30.81,12.64c-3.14,3.1-5.21,7.08-8.22,10.29
		C25.18,459,24.24,457.72,23.85,456.21z"/>
</g>
<g id="_x23_02505dff">
	<path class="st3" d="M16.63,355.5c5.86,0.79,10.46,4.76,15.89,6.73c6.91,2.7,13.78,5.6,20.01,9.69c-0.22,0.33-0.66,1.01-0.87,1.35
		c-4.3-0.08-8.4-1.46-12.57-2.32c1.31,5.23,5.85,8.27,9.16,12.12c-0.37,2.88-1.83,5.52-2.46,8.36c-0.92,0.47-1.84,0.94-2.75,1.42
		c7.6-0.13,14.91-2.59,22.5-2.71c0.37,1.11,0.74,2.23,1.11,3.35c3.56-1.84,7.23-3.8,11.33-3.96c8.93-0.86,17.28,2.94,25.6,5.53
		c5.6,1.95,11.93,3.63,15.65,8.63c3.06,3.75,2.76,9.51-0.15,13.24c-2.38,2.79-6.12,3.55-9.53,4.32c0.1,0.42,0.3,1.28,0.4,1.7
		c-9.82-0.75-18.55-5.85-27.64-9.14c-8.34-1.69-18.7-1.26-24.47,5.92c-1.84,1.84-1.55,4.58-1.71,6.95
		c5.95-0.49,11.91-1.69,17.9-1.04c2.33,0.16,3.97,2.12,6.15,2.75c4.57-0.32,9.14-1.46,13.73-0.6c6.81,1.11,13.74,0.35,20.57,1.2
		c-1.27,2.54-3.23,4.82-6.13,5.44c-10.79,2.63-21.81-0.92-32.69,0.15c-4.34,0.12-8.71-0.72-13.01,0.14
		c-6.18,1.21-12.72,1.57-18.39,4.56c-6.72,3.93-11.62,10.33-18.49,14.07c-0.28-5.97,0.55-11.93,1.76-17.77
		c1.01-4.87,3.9-9.09,4.86-13.98c0.39-1.31,0.76-2.63,1.12-3.95c-5.97,0.79-9.01,6.42-13.65,9.53c-0.21-3.2-0.16-6.44,0.76-9.53
		c1.6-5.59,2.91-11.32,5.52-16.55c1.31-2.59,2.35-5.3,3.02-8.13c-4.11,2.04-7.32,5.48-9.55,9.45c-7.27,11.73-8.75,25.71-10.84,39.04
		c-3.39,2.38-6.26,5.52-9.93,7.49c-7.06,0.75-14.23,0.32-21.32,0.01c1.96-5.42,6.67-8.99,10.51-13.03c2.75-2.92,6.24-5.05,8.9-8.04
		c1.31-2.47,1.27-5.39,1.74-8.09c0.82-7.08,3.44-13.75,5.82-20.41c0.64-1.59,0.82-3.31,0.63-5.01c-0.02-0.34-0.06-1.03-0.08-1.37
		c-3.92,1.61-7.82,3.32-11.41,5.6c-3.38,2.07-5.9,5.4-9.73,6.74c0.1-4.73,1.33-9.49,0.24-14.18c-8.18,2.6-14.99,7.99-21.55,13.33
		c-6.47,5.41-11.17,12.63-14.61,20.27c-1.36,2.92-1.59,6.17-1.79,9.34c-1.81,1.25-4.06,1.15-6.16,1.18
		c-11.29-0.1-22.58-0.09-33.87-0.06c-4.7-4.96-9.25-10.37-11.23-17.04c4.23-5.25,9.51-9.45,14.61-13.78
		c10.17-9.4,22.76-15.82,35.75-20.35c5.16-2,11.11-1.15,15.95-4.04c-3.12-3.76-8.19-4.13-12.56-5.43c3.43-3.06,8.05-4.19,12.48-4.85
		c8.35-0.9,16.21,2.71,23.71,5.85c0.91-4.21-1.39-8.03-2.33-12c11-0.51,20.05,7.94,25.02,17.04c0.5-1.99,0.99-3.98,1.49-5.97
		c4.67,0.02,9.34,0.42,14.01,0.11c-1.42-0.52-2.84-1.04-4.26-1.54c1.19-0.35,2.37-0.72,3.55-1.09c0.36-0.1,1.08-0.31,1.44-0.41
		C20.17,367,15.98,361.88,16.63,355.5z"/>
	<path class="st3" d="M45.79,391.43c1.33-2.38,1.9-5.63,4.17-7.24c4.74,0.71,9.4,2.07,14.24,2.05
		C58.13,388.22,52.13,390.5,45.79,391.43z"/>
</g>
<g id="_x23_fcfdfcff">
	<path class="st4" d="M129.86,393.55c2.65-0.02,3.72,1.95,3.22,4.39C131.59,396.81,130.57,395.25,129.86,393.55z"/>
	<path class="st4" d="M63.7,423.24c2.03-4.34,6.34-7.87,11.28-7.91c4.95-0.43,9.68,1.5,14.09,3.53c2.6,1.32,5.51,2.56,7.06,5.19
		c-3,0.23-5.83-0.79-8.62-1.7c-2.72-0.99-5.2,1.05-7.7,1.8c-0.01-1.5-0.04-3-0.09-4.5c-1.26,0.72-2.16,1.86-3.09,2.95
		c-0.33-0.63-1.01-1.88-1.34-2.51C71.55,421.53,67.76,423.04,63.7,423.24z"/>
	<path class="st4" d="M-70.21,483.65c6.47-7.97,12.8-16.05,19.28-24.01c3.29,0.22,7.09-0.93,9.94,1.22
		c0.91,1.88,0.86,4.05,1.21,6.08c0.78,8.09,2.46,16.06,3.31,24.14c-3.21,0.04-6.42,0.03-9.62,0.06c-0.71-2.07-1.25-4.19-1.68-6.34
		c-2.08,1.8-2.98,4.85-5.35,6.2c-7.53,0.26-15.07,0.09-22.59,0.05C-74.32,488.27-72.09,486.08-70.21,483.65 M-58.16,482.61
		c3.36,0.07,6.72,0.02,10.08,0.03c-0.51-4.01-0.01-8.27-1.7-12.04C-52.63,474.56-55.55,478.48-58.16,482.61z"/>
	<path class="st4" d="M-37.83,465.85c-0.71-3.07,2.06-5.56,4.91-5.88c4.91-0.8,9.95-0.14,14.92-0.36c3.72,0.22,8.27-1.01,11.08,2.18
		c2.72,3.48,2.37,8.72,0.07,12.33c-2.71,3.52-7.46,3.97-11.49,4.79c3.13,4.41,7.55,7.7,10.66,12.12c-4.07,0.06-8.15,0.26-12.21-0.03
		c-4.45-3.21-7.77-7.7-11.99-11.2c-0.92,2.34-1.49,4.87-3.07,6.89C-36.06,479.76-36.8,472.78-37.83,465.85 M-28.3,468.16
		c-0.55,2.23-1.2,4.44-1.71,6.69c1.35-1.08,2.55-2.37,4.07-3.22c3.24-0.19,6.49,0,9.74-0.09c0.03-1.16,0.07-2.31,0.09-3.46
		C-20.17,467.89-24.25,467.77-28.3,468.16z"/>
	<path class="st4" d="M-4.41,459.63c4.04-0.07,8.08-0.07,12.12,0.03c-1.95,7.77-5.44,15.09-6.95,22.97c7.68,0.02,15.36,0.05,23.05,0
		c-0.75-4.01-1.34-8.05-2.18-12.04c-3.37,2.63-4.72,7.13-8.1,9.69c-3.61,0.43-7.27,0.31-10.88-0.07
		c4.86-6.37,9.82-12.67,14.72-19.01c1.39-2.52,4.51-1.34,6.81-1.52c0.28,2.13,0.57,4.27,1.07,6.37c1.62-1.77,1.94-4.32,3.61-6.06
		c2.12,2.86,2.12,6.52,2.6,9.9c0.88,7.08,2.35,14.08,3,21.19c-3.27,0.04-6.54,0.06-9.82,0.01c-0.18-2.09-0.34-4.18-0.53-6.26
		c-2.05,1.79-3.46,4.15-5.1,6.29c-7.98-0.05-15.97,0.03-23.95-0.06c-2.64-2.88-6.44-5.72-5.64-10.15c2.65-2.55,5.47-5.22,6.77-8.75
		C-2.36,467.98-4.99,463.87-4.41,459.63z"/>
	<path class="st4" d="M33.79,468.84c0.7-3.18,1.93-6.21,3.19-9.21c4.27-0.01,8.53-0.06,12.8,0.07c1.3,5.72,2.45,11.46,3.88,17.15
		c1.93-5.68,3.44-11.48,5.32-17.18c3.52-0.08,7.04-0.08,10.56,0c-3.31,10.54-7.21,20.89-10.6,31.4c-4.01,0.03-8.01-0.01-12.01-0.01
		c-1.65-5.62-2.54-11.42-3.76-17.14c-2.95,5.1-3.84,11.14-6.25,16.52C35.44,483.31,34.96,476.02,33.79,468.84z"/>
	<path class="st4" d="M65.19,479.56c1.97-6.73,4.4-13.32,6.79-19.92c7.57,0.02,15.14-0.15,22.71,0.03
		c-2.44,3.09-4.56,6.83-7.91,8.96c-5.67,0.56-11.38-0.49-17.06,0.15c0.09,0.71,0.28,2.12,0.37,2.82c4.59,0.06,9.21-0.33,13.78,0.17
		c4.56,3.12,5.91,10.13,2.65,14.65c-1.56,2.12-3.54,4.8-6.48,4.67c-6.22,0.04-12.45,0.03-18.67-0.01c0.71-2.81,0.87-6.08,2.71-8.39
		c4.25-0.16,8.51,0.03,12.77-0.09c0.01-0.64,0.04-1.92,0.06-2.56C73.01,479.75,69.1,479.64,65.19,479.56z"/>
</g>
</svg>
