<?xml version="1.0" encoding="utf-8"?>
<!-- Generator: Adobe Illustrator 19.0.0, SVG Export Plug-In . SVG Version: 6.00 Build 0)  -->
<svg version="1.1" id="Layer_1" xmlns="http://www.w3.org/2000/svg" xmlns:xlink="http://www.w3.org/1999/xlink" x="0px" y="0px"
	 viewBox="0 0 187.62 187.62" style="enable-background:new 0 0 187.62 187.62;" xml:space="preserve">
<style type="text/css">
	.st0{opacity:0.5;fill:url(#SVGID_1_);}
	.st1{fill:url(#SVGID_2_);}
	.st2{fill:#AF1F23;}
</style>
<linearGradient id="SVGID_1_" gradientUnits="userSpaceOnUse" x1="93.8099" y1="187.6199" x2="93.8099" y2="1.363569e-007">
	<stop  offset="0" style="stop-color:#AEADAE"/>
	<stop  offset="1" style="stop-color:#FFFFFF"/>
</linearGradient>
<circle class="st0" cx="93.81" cy="93.81" r="93.81"/>
<g>
	<linearGradient id="SVGID_2_" gradientUnits="userSpaceOnUse" x1="93.8099" y1="166.4378" x2="93.8099" y2="17.3558">
		<stop  offset="0" style="stop-color:#CD3F3F"/>
		<stop  offset="0.06" style="stop-color:#CE3232"/>
		<stop  offset="0.3" style="stop-color:#E32827"/>
		<stop  offset="0.53" style="stop-color:#C12126"/>
		<stop  offset="0.92" style="stop-color:#F16061"/>
		<stop  offset="1" style="stop-color:#F58E90"/>
	</linearGradient>
	<path class="st1" d="M86.283,166.438V99.479H35.184l0.019,0.142c2.694,20.635,16.293,38.515,35.496,46.682v16.474
		c-28.009-9.127-48.034-33.91-51.037-63.185l-0.34-5.578l-0.021-0.633c-0.017-0.493-0.033-0.986-0.033-1.483s0.017-0.99,0.033-1.483
		l0.021-0.637l0.329-5.47c3.538-35.005,31.514-63.001,66.52-66.565l3.652-0.277c1.367-0.072,2.71-0.108,3.986-0.108
		s2.619,0.036,3.989,0.108l3.654,0.279c35.003,3.563,62.979,31.56,66.517,66.568l0.327,5.431l0.02,0.612
		c0.018,0.513,0.035,1.025,0.035,1.542s-0.018,1.029-0.035,1.542l-0.02,0.616l-0.332,5.424h-54.73l38.396,39.816
		c-3.572,4.307-7.745,8.091-10.656,10.536l-39.706-41.175v57.781H86.283z M101.338,84.424h51.11l-0.019-0.141
		c-3.42-26.582-24.371-47.554-50.951-51l-0.141-0.019V84.424z M86.142,33.283C59.561,36.728,38.609,57.7,35.189,84.284l-0.019,0.141
		h51.112v-51.16L86.142,33.283z"/>
	<path class="st2" d="M93.809,17.481c1.276,0,2.616,0.036,3.977,0.108l3.651,0.279c34.947,3.558,62.875,31.507,66.407,66.447
		l0.328,5.428l0.02,0.617c0.017,0.511,0.035,1.023,0.035,1.538s-0.017,1.026-0.035,1.538l-0.019,0.609l-0.326,5.31h-15.555h-35.028
		h-3.735h-0.588l0.408,0.424l38.114,39.525c-3.515,4.22-7.597,7.931-10.48,10.359l-39.41-40.868l-0.43-0.446v0.619v57.347H86.408
		V99.604v-0.25h-0.25H35.327h-0.285l0.037,0.282c2.696,20.652,16.29,38.55,35.495,46.748v16.219
		c-27.876-9.155-47.796-33.857-50.787-63.015l-0.34-5.575l-0.02-0.639c-0.017-0.491-0.033-0.982-0.033-1.478
		s0.017-0.987,0.033-1.478l0.02-0.631l0.328-5.464c3.532-34.95,31.461-62.9,66.402-66.458l3.649-0.278
		C91.194,17.517,92.534,17.481,93.809,17.481 M35.029,84.549h0.284h50.845h0.25v-0.25V33.407v-0.285l-0.282,0.037
		c-26.637,3.452-47.634,24.469-51.06,51.109L35.029,84.549 M101.213,84.549h0.25h50.843h0.284l-0.036-0.282
		c-3.427-26.638-24.423-47.655-51.059-51.108l-0.282-0.037v0.284v50.892V84.549 M93.809,17.231c-1.341,0-2.673,0.039-3.996,0.108
		l-3.655,0.278c-35.144,3.578-63.079,31.529-66.632,66.682l-0.329,5.474c-0.02,0.708-0.054,1.411-0.054,2.124
		s0.034,1.416,0.054,2.124l0.341,5.583c3.057,29.806,23.648,54.408,51.286,63.344v-16.729
		c-18.891-8.002-32.747-25.553-35.497-46.615h50.831v66.959h15.234v-57.597l39.572,41.036c3.107-2.604,7.273-6.406,10.833-10.713
		l-38.27-39.686h3.735h35.028h15.79l0.34-5.545c0.021-0.72,0.055-1.438,0.055-2.162s-0.034-1.442-0.055-2.162l-0.328-5.436
		c-3.553-35.152-31.487-63.103-66.631-66.681l-3.657-0.279C96.482,17.27,95.15,17.231,93.809,17.231L93.809,17.231z M35.313,84.299
		c3.407-26.486,24.366-47.461,50.845-50.893v50.893H35.313L35.313,84.299z M101.463,84.299V33.408
		c26.478,3.433,47.436,24.405,50.843,50.892H101.463L101.463,84.299z"/>
</g>
</svg>
