<?xml version="1.0" encoding="utf-8"?>
<!-- Generator: Adobe Illustrator 19.0.0, SVG Export Plug-In . SVG Version: 6.00 Build 0)  -->
<svg version="1.1" id="Layer_1" xmlns="http://www.w3.org/2000/svg" xmlns:xlink="http://www.w3.org/1999/xlink" x="0px" y="0px"
	 viewBox="-67 366.9 460 108" style="enable-background:new -67 366.9 460 108;" xml:space="preserve">
<g id="_x23_ffffffff">
	<path d="M-67,366.9h31.9c-0.1,0.2-0.3,0.6-0.4,0.8c0.4,0.5,1.2,1.5,1.5,2c11.5,23.1,23.3,46.1,34.8,69.2c1.2,2.4,2.2,4.8,3.3,7.2
		c13.8-26.4,27.6-52.9,41.5-79.3h30.4c18.9,35.9,37.8,71.9,56.5,108H101c-3.9-7.6-7.7-15.2-11.5-22.8c-19.1-0.1-38.1,0-57.2,0
		c-3.9,7.6-7.6,15.4-11.7,22.9h-31.2c-18.8-35.3-37.1-70.9-55.8-106.3l0-1.4c-0.2,0-0.5,0.1-0.7,0.2V366.9 M60.9,394.1
		c-3.8,9.9-8.8,19.3-13.8,28.7v0.7c9.3-0.1,18.6,0,27.9,0C69.8,413.9,64.9,404.1,60.9,394.1z"/>
	<path d="M108.2,366.9h102.9c-0.1,9.2,0.2,18.4-0.1,27.5c-12.6,0-25.2,0-37.9,0c0,26.8,0,53.6,0,80.5h-27.4c0-26.8,0-53.6,0-80.5
		c-12.5,0-24.9,0-37.4,0C108.1,385.2,108.2,376.1,108.2,366.9z"/>
	<path d="M223.6,366.9h27.6c0,36,0,72,0,108h-27.6C223.6,438.9,223.6,402.9,223.6,366.9z"/>
	<path d="M298,366.9H364c11.1,0.3,22.5,6,27.2,16.4c-7.9,5.6-15.6,11.4-23.4,17.1c-0.8-2.4-1.8-5.9-4.9-5.8c-21.3,0-42.7,0-64,0
		c-3-0.3-5.8,2.4-5.9,5.4c0,14,0,27.9,0,41.9c0.1,3,2.8,5.5,5.8,5.3c21.4,0,42.7,0,64.1,0c4.3-0.5,6.8-4.6,9.5-7.5
		c6.8,6.1,13.6,12.6,20.4,18.5v0.4c-7.4,7.8-17.4,15.1-28.6,16.3h-66.2c-16.9-0.2-32.2-15-32.4-32c-0.2-14.7-0.1-29.4,0-44
		C265.9,381.9,281.1,367.1,298,366.9z"/>
</g>
</svg>
