<?xml version="1.0" encoding="utf-8"?>
<!-- Generator: Adobe Illustrator 19.0.0, SVG Export Plug-In . SVG Version: 6.00 Build 0)  -->
<svg version="1.1" id="Layer_1" xmlns="http://www.w3.org/2000/svg" xmlns:xlink="http://www.w3.org/1999/xlink" x="0px" y="0px"
	 viewBox="485 -501.11 1566 1842" style="enable-background:new 485 -501.11 1566 1842;" xml:space="preserve">
<style type="text/css">
	.st0{fill:#383637;}
	.st1{fill:#DF333A;}
	.st2{fill:#282828;}
	.st3{fill:none;stroke:#000000;stroke-width:0.5;stroke-linecap:round;stroke-linejoin:round;}
</style>
<g id="XMLID_11_">
	<g>
		<path class="st0" d="M2047.5-87.61c12.7,252.7-8.1,471.6-63,662.5c-22.2,77.4-52.3,155.7-84.6,220.1l-7.8,15.7l7.7,2.7
			c16.6,5.8,32.1,15.9,46.6,30.2c16.7,16.6,30.9,38.1,48.8,73.8c9.2,18.5,10,20.5,10.1,26c0,6.9-2.5,12.8-7.2,16.8
			c-1.7,1.4-18,10.3-36.3,19.8c-18.3,9.5-36.8,19.2-41.1,21.5l-7.9,4.1l11.4,7.8c34.4,23.7,54.1,45.9,69.8,79
			c13.7,28.6,18.8,54.2,17.7,87.5c-1.3,38.6-12.4,69.4-34.8,96.5c-23.1,28.1-54.1,46.8-90.4,54.5c-12.7,2.7-39.6,3.8-51.6,2.1
			c-27.9-4-61.3-17.6-97.5-40c-31.7-19.6-35.9-23.8-35.8-35.7c0-6.1,0.3-6.5,24.3-50.5c13.3-24.4,25.2-45.5,26.4-46.7
			c5.6-6.1,17-8.4,24.7-4.9c1.9,0.8,8.9,6.6,15.5,12.7c20.8,19.5,38.2,30.9,52.3,34.5c5.4,1.4,6.5,1.4,9.7,0.1
			c4.9-2.1,8-9.1,9.6-21.4c1.4-11,0.4-19.3-3.9-31.7c-2.3-6.8-3.7-9-9.4-15c-7.9-8.4-19.9-17.1-28.8-21
			c-36.7-15.9-68.2-38.4-85.7-61.2c-4.5-5.9-5.9-7.1-6.8-6.1c-0.7,0.7-5,5.4-9.7,10.4l-8.5,9.1l-0.6,24.9
			c-1,43.8-6.7,77.9-19.1,113.9c-24.4,71.3-60.7,113.9-107.4,126.2c-13.1,3.4-36.4,4.3-49.5,1.9c-23-4.4-43.2-15.4-62.9-34.5
			c-8.2-7.8-22.8-25.1-25.4-29.9c-0.1-0.2-6.4,3-14,7c-15.4,8.1-14.2,6.5-12.8,17.5c1.2,9.1-5,19.6-13,22.3
			c-8.5,2.8-89.6,19-95.1,19c-4.7,0-8.2,0.8-14.8,3.5c-4.8,1.9-10,3.5-11.7,3.5c-3.1,0-31.2-10.9-57.9-22.5
			c-8.4-3.6-15.4-6.5-15.5-6.3c-0.1,0.2-0.8,2.5-1.4,5.3c-2.5,9.9-10.6,16.5-20.2,16.5c-3.7,0-16.6-2.9-38.5-8.5
			c-19.2-5-33.1-8.1-33.3-7.5c-1.5,4.4-5.6,10-9.1,12.5c-4,2.8-4.9,3-15.4,3.3c-6.2,0.2-32.6-0.3-58.8-1.1
			c-46.1-1.4-47.9-1.5-52.4-3.7c-5.4-2.6-10.1-8.5-11.1-13.8c-0.4-2,0.1-14.2,1-27.1c1.6-22.7,3.5-78.4,3.6-103.7v-12.1l-8.7-6.9
			c-4.9-3.7-13.9-11-20-16.1l-11.3-9.4v87.9c0,96.8,0.2,93.3-6.1,99.8c-1.7,1.8-4.9,4-7.1,5c-3.8,1.7-6.2,1.7-58.1,0.2
			c-58.2-1.6-58.7-1.7-64.5-7.1c-6.3-5.8-7.3-11.6-5.7-31.5c1.2-14.3,2.9-50.1,3.8-79l0.4-11.2l-6.2,11.7
			c-28.4,54.7-72.8,97.6-116,112.1c-18.7,6.3-32.4,7.6-50.5,4.7c-46.2-7.5-83.8-39.3-110-93c-8.7-17.7-12.3-27.8-18-50
			c-8.9-34.8-12.3-65.4-12.4-110c0-76,9.4-123.6,34.4-174.1c25.4-51.1,62.4-84.5,105.9-95.3c11.9-3,21.3-4.1,34.6-4.2l12.3-0.1
			l-9-18.6c-64-132.7-105.6-274.1-128.7-437.7c-14.9-104.9-21-205.8-19.8-328c0.9-87.6,3.1-133.8,12.7-260
			c1.6-21.5,3.2-44.6,3.6-51.5c0.8-14.6,0.1-13.5,14.4-24.4c58.7-45,152.2-83.1,284.7-116c119.7-29.7,266.1-53.4,423.3-68.5
			c26.5-2.6,34.2-2.5,66,0.4c117.6,10.9,247.4,30.2,349,51.9c164.4,35.1,280.4,78.4,348.5,130c14.6,11,15.5,12.1,15.5,17.9
			c0,2.8,2.2,34.1,5,69.6C2043.6-156.81,2045.3-131.11,2047.5-87.61z M2033.1,46.19c0.6,21.9,0.9,40,0.7,40.3
			c-0.4,0.4-2.1-19.7-8.9-104.6c-2.2-27.9-2.7-32.2-2.3-20c3,101.5,3.5,120.8,2.9,119.5c-0.2-0.6-2-22.2-4-48
			c-2-25.9-4.2-54.9-4.9-64.5c-1.7-22.7-2-12.3-0.7,28.5c1.4,40.8,2.1,74.3,1.6,72.5c-0.3-0.8-2.3-24-4.5-51.5
			c-6-74.8-6-74.2-5.4-55.5c0.2,8.5,0.8,28.5,1.4,44.5c1.8,53.8,1.9,60,1.5,59c-0.2-0.6-2.3-23.3-4.5-50.5s-4.7-57.2-5.5-66.5
			l-1.4-17l0.5,18.5c0.2,10.2,0.9,31.3,1.4,47c1.6,47.9,2,63.5,1.5,62.5c-0.4-1-6.6-79.8-11-141c-2.5-35.1-2.5-33.2,0,31.5
			c2.3,61.3,3.6,105.2,3,105.8c-0.3,0.3-0.5-0.4-0.5-1.4c0-1.1-1.6-22-3.5-46.5c-1.9-24.4-4.6-61.1-5.9-81.4
			c-1.4-20.4-2.8-39-3-41.5c-0.6-6.8,0.2,18.2,1.9,59c2.3,58.2,3.6,99.3,3,99.8c-0.3,0.3-0.5-0.8-0.6-2.4c0-1.6-1.6-20.5-3.4-41.9
			l-3.4-39l0.4,22.5c1.5,74,1.6,92.7,0.6,132c-2.6,98.7-9.3,178.5-22,259.2c-3.5,21.9-3.7,24.5-2.3,26c0.9,1.1,2.9,1.8,4.8,1.8
			c2.4,0,4.1,0.9,6.3,3.2c1.7,1.8,3.1,3.6,3.1,3.9c0,0.3,2.9,2.1,6.5,3.9c5.8,2.9,7.1,4.3,6.6,7.2c0,0.4,1.9,2.9,4.4,5.5
			c5.5,5.7,6,8,1.3,5.5c-1.8-0.9-3.6-2.2-4-2.7c-0.4-0.6-0.8-0.2-0.8,0.8s-0.5,1.5-1,1.2c-0.6-0.4-0.7-1.1-0.4-1.7
			c0.4-0.6,0.3-0.8-0.3-0.5c-0.9,0.5-5.6-3.9-5.8-5.3c0-0.5-0.7-0.4-5,0.3c-2.7,0.5-4.6-2.2-3.4-4.6c0.6-0.9,1.5-1.4,2.1-1.1
			c0.7,0.4,0.8,0.3,0.4-0.4c-0.4-0.7-1.6-1.2-2.6-1.2c-2.5,0-5.3-3.9-4-5.5s0.2-2.5-3.1-2.5c-1.5,0-3.9-0.4-5.3-1
			c-2.4-0.9-2.6-0.7-3.2,2.8c-21.5,122.9-62.5,251.7-110.4,347.3c-6,11.8-6,11.9-3.8,12.8c1.3,0.5,11.7,5.2,23.2,10.5
			c11.6,5.3,21.5,9.6,22.1,9.6c3.1,0,34.3-69.3,52.2-115.9c13-33.9,38.3-111.4,36.9-112.9c-0.3-0.3-1.1,0-1.9,0.6
			c-0.9,0.8-4.7-0.5-15-5.1c-7.5-3.3-13.5-6.2-13.3-6.4c0.1-0.2,3.6,0.8,7.6,2.2c4.1,1.4,7.8,2.4,8.1,2.3c0.4-0.2-5.3-3.4-12.7-7.2
			c-7.4-3.8-13.3-7-13.1-7.2c0.1-0.1,9.2,2,20.2,4.7c11,2.7,20.7,4.9,21.5,4.9c1.2,0,2.8-5.1,6.8-20.5c2.9-11.3,5-21,4.7-21.5
			c-1.1-1.9-2.5-1-3.9,2.5c-1.5,3.6-5.6,5.1-5.6,2c0-0.8-0.5-1.5-1.1-1.5c-0.5,0-0.7-0.5-0.4-1c1-1.6-1.1-1.2-2.5,0.5
			c-0.7,0.8-1.6,1.5-2.1,1.5c-1.4,0-4.8-3.3-4.3-4.1c0.2-0.4-0.5-0.5-1.6-0.2c-1,0.3-2.2,1.3-2.5,2.2c-0.6,2.1-6,4.5-8.5,3.8
			c-2.2-0.6-3.2,0.5-3.5,3.7c-0.1,1.1-0.3,2.4-0.4,2.8c-0.1,0.9-3.5,1.1-4.3,0.2c-0.3-0.3-0.2-2.1,0.4-4.1c1.1-4.1,5.5-8.3,8.2-7.9
			c1.2,0.2,3-0.9,4.5-2.6c2.1-2.6,3-2.9,7-2.7c2.5,0.1,5.7-0.2,7.1-0.8c1.4-0.6,2.8-0.9,3.2-0.6c0.5,0.2,1.8-0.3,3-1.1
			c2.7-1.9,5.9-2.1,7.6-0.4c1.7,1.7,2.3,0.7,4.3-7.9c19.6-81,35.2-191.5,41.4-293.3c4.5-73.7,5.2-172.7,1.6-213.5l-2-23l0.4,21.5
			C2031.8-3.31,2032.5,24.29,2033.1,46.19z M2030.7-41.91c0.2-1.8,0.2-4.5,0-6c-0.2-1.5-0.4,0-0.4,3.3S2030.5-40.11,2030.7-41.91z
			 M2014.7-52.41c0.2-2,0.2-5.4,0-7.5c-0.2-2-0.4-0.3-0.4,3.8S2014.5-50.31,2014.7-52.41z M2006.7-59.41c0.2-0.9,0.2-2.3,0-3
			c-0.3-0.6-0.5,0.1-0.5,1.8C2006.2-59.01,2006.4-58.41,2006.7-59.41z M1998.7-72.91c0.2-1.8,0.2-4.5,0-6c-0.2-1.5-0.4,0-0.4,3.3
			S1998.5-71.11,1998.7-72.91z M1998-293.31c0-0.4-4.4-3.7-9.7-7.2c-55.6-36.3-139.1-69.4-245.2-97c-11.7-3.1-21.7-5.3-22.3-5
			c-0.5,0.3-1.4,0.1-2.1-0.5c-0.7-0.5-2.4-1.2-3.7-1.4c-1.4-0.3-7.1-1.7-12.7-3.1c-11.9-3.1-11.7-3-10.9-1.1
			c0.8,2.2-0.4,4.5-2.3,4.5c-2.6,0-3-0.8-2.1-4.1c0.8-2.7,0.6-2.9-2.8-3.8c-22.9-6.1-158.1-31.1-167.8-31.1c-2,0-2.5,0.6-3.1,4.2
			c-0.5,3.4-0.8,3.8-1.4,2.3c-0.4-1.1-0.8-3.2-0.8-4.6c-0.1-3.3,1.4-2.9-29.6-7.3c-49.5-7-100.3-13-153.8-18.1
			c-45.8-4.4-43.1-4.5-120.7,4c-45,5-137.9,17.4-149.6,20c-1.6,0.4-2.3,1.5-2.9,4.7l-0.8,4.3l-0.9-3.8c-0.8-2.8-1.5-3.7-3.1-3.7
			c-9.3,0-127.9,22.5-163,30.9c-8.7,2.1-9.5,2.5-7.9,4.4c1.4,1.6,0.6,2.7-1.9,2.7c-1,0-2.1-0.9-2.4-2c-0.4-1.4-1.3-1.9-2.3-1.6
			c-0.9,0.3-14.5,3.7-30.1,7.6c-116.5,29.3-206.3,65.1-260.9,104.2l-9.3,6.7l6.8,3.9c3.7,2.2,12.3,7.1,19,11l12.3,7.1l9.1-6.9
			c93.6-71.6,314.9-131.8,596.4-162.4c55.1-6,68-6.9,82.5-5.7c24.4,2.1,63.1,6.1,89,9.2c270.9,32.2,472,89.2,562.3,159.5l6.7,5.3
			l21-12.6C1988.6-286.71,1998-292.81,1998-293.31z M1988.7-118.91c0.2-1.2,0.2-3.2,0-4.5c-0.2-1.2-0.4-0.2-0.4,2.3
			S1988.5-117.61,1988.7-118.91z M1980.7-122.91c0.2-1.2,0.2-3.2,0-4.5c-0.2-1.2-0.4-0.2-0.4,2.3S1980.5-121.61,1980.7-122.91z
			 M1978.7-42.41c0.2-1.5,0.2-3.9,0-5.5c-0.2-1.5-0.4-0.2-0.4,2.8S1978.5-40.81,1978.7-42.41z M1958.5,248.89
			c4.5-53.3,6.5-107.6,6.5-174.5c0-84.4-2.5-140-11.9-264.5c-1.7-21.2-3.3-42.9-3.7-48.2c-0.7-11.2-0.2-10.5-16-22.5
			c-65.1-49.6-179.8-91-341.4-123.3c-86.9-17.4-189.7-32.2-284.4-41c-21.6-2-23.6-2.1-30.6-1.3c-1.9,0.2-17.2,1.7-34,3.4
			c-58.6,5.8-131.7,15.6-192.5,25.9c-205.2,34.7-351.7,84.1-424,143c-3.9,3.2-7.6,6.4-8.2,7.1c-0.6,0.8-1.8,11.7-2.7,24.4
			c-0.9,12.6-2.9,41.2-4.6,63.5c-5.6,78.2-7.6,119.4-9,184.2c-4,197.4,16.6,375.7,61.5,531.2c32.3,112.4,78.5,215.6,135.9,304.1
			l9.1,14l0.3-9.1l0.3-9l-8.4-13.5c-94.3-150.7-153.5-338.3-175.6-556.5c-11.7-114.6-13.1-235.1-4.5-377.4
			c1.2-21,8.2-120.2,10-141.5l0.5-7l6.7-5.6c68-57,204.4-104.8,397.2-139.3c93.1-16.7,228.1-33.6,256.2-32.2
			c15.7,0.8,63.9,5.7,103.6,10.6c258.8,31.9,450.8,87.9,534.6,155.9c3.8,3.1,7.7,6.3,8.8,7.1c1.7,1.4,2.1,4.1,3.4,22.5
			c0.8,11.6,2.5,35.6,3.9,53.5c11.2,146.9,13.2,255.1,7,365.5c-13.6,239.2-68.7,445.3-163.4,610.5c-3.74,6.49-6.7,11.82-6.7,12
			c0.1,0,3.2-1.3,7-2.9l6.8-2.9l8.5-15.3c4.7-8.5,14.7-27.8,22.2-42.9C1898.4,612.89,1941.9,445.09,1958.5,248.89z M1878.9,803.09
			l2.2-4.2l-4.3-1.9c-2.4-1.1-13-5.8-23.7-10.5c-10.7-4.7-19.7-8.6-20-8.6c-0.3,0-1.6,1.5-2.8,3.3l-2.1,3.4l23.9,11.8
			c13.1,6.5,24,11.7,24.3,11.4C1876.6,807.59,1877.7,805.49,1878.9,803.09z M1873.9,983.99l-2.5-9.3c-3.9-14.1-9.2-29.8-11.7-34.3
			s-6.2-5.9-7.5-2.8c-0.4,1-0.7,7-0.7,13.3c0,10.4,0.2,12,2.6,16.5c2.5,5,8.1,10,15.9,14.4L1873.9,983.99z M1722,1029.09
			c0-0.7-1.1-3.4-2.4-6c-3.4-6.8-9.2-23.8-10.7-31.3c-0.6-3.5-1.5-6.9-1.8-7.5c-0.3-0.7-2,0.6-3.9,3c-2.7,3.2-3.3,4.7-2.8,7.1
			c2.9,16.3,6.6,39.2,7.2,44.2l0.6,6.2l6.9-7.2C1718.8,1033.59,1721.9,1029.79,1722,1029.09z M1702.1,980.29
			c2.1-2.5,3.9-5.3,3.9-6.2c-0.1-4.4-1.7-4.4-5.5,0.2c-3.1,3.8-3.6,5-3,7.5l0.6,3.1L1702.1,980.29z M1704.5,942.49
			c0.4-3.5,0.6-6.9,0.4-7.5c-0.5-1.5-5.9,5.3-5.9,7.4c0,2.6-3,8.9-5.5,11.5c-2,2.1-2.3,3.1-1.7,5.4l0.8,2.9l5.6-6.6
			C1703.4,949.49,1703.9,948.49,1704.5,942.49z M1437,1251.79l-1.5-2.9c-0.9-1.7-2.1-2.9-2.8-2.9c-0.6,0.1-6.2,2.8-12.4,6l-11.1,5.9
			l1.1,3.5c0.6,1.9,1.4,3.5,1.8,3.5c0.7,0,12.6-6.1,20.7-10.7L1437,1251.79z M1417.3,1211.69c1.6-1.2,1.6-1.7,0.4-5.3
			c-0.7-2.1-1.8-4-2.3-4.1c-1.3-0.3-18.9,9.3-18.8,10.3c0.2,3.1,1.8,8.3,2.5,8.3C1400.3,1220.89,1414.9,1213.49,1417.3,1211.69z
			 M1412,1187.39l-0.6-3.5c-0.4-1.9-0.9-3.8-1.3-4.2c-0.3-0.4-4.6,1.5-9.6,4.2c-4.9,2.7-9.4,5.1-9.8,5.3c-0.5,0.1-0.4,2.1,0.2,4.4
			l1.2,4.2l9.9-5.2L1412,1187.39z M1289.3,1320.39c3.5-1.4,3.5-1.5,2.5-5.5c-0.8-3.2-1.4-4-2.7-3.4c-0.9,0.3-2.3,0.8-3.1,1.1
			c-1.5,0.4-29.1-10.6-55.3-22.1c-7.1-3.1-13-5.6-13.2-5.6c-0.9,0-2.4,7.5-1.7,8.2c1.8,1.8,66.8,28.8,69.2,28.8
			C1285.4,1321.89,1287.3,1321.19,1289.3,1320.39z M1279.7,1267.49c0.2-0.2,0.1-2.1-0.3-4.1c-0.4-2.4-1.4-4-2.8-4.6
			c-1.1-0.5-12.4-5.2-25.1-10.5c-12.6-5.3-23.5-9.8-24.1-10.1c-1.3-0.5-2.9,7.6-1.7,8.8
			C1227.6,1248.79,1278.9,1268.29,1279.7,1267.49z M1273.6,1241.59c0.3-0.3,0.3-2.4-0.1-4.6l-0.7-4.1h-10.1c-5.5,0-9.7,0.4-9.1,0.8
			C1255.3,1235.19,1273,1242.19,1273.6,1241.59z M1119.8,1159.69c0.8-2.9,0.7-3.8-0.4-4.2s-1.4,0.5-1.4,4.1
			C1118,1164.89,1118.4,1164.89,1119.8,1159.69z M977.9,1138.59l0.1-8.7h-13.7c-7.7,0-13.3,0.4-12.7,0.9c0.5,0.4,6.3,5.2,12.8,10.6
			C978.2,1152.59,977.8,1152.69,977.9,1138.59z M807.8,901.79c0.3-3.1-1.1-5.7-11.1-20.5c-6.3-9.3-14.5-21.9-18.2-27.9
			c-3.8-6.1-7.3-11.5-7.9-12.1c-0.8-0.9-2.8-0.6-7.6,1.3c-3.6,1.3-6.8,2.8-7.2,3.1c-0.4,0.4,0.9,2.7,2.9,5.2
			c21.8,27.1,36.5,67,42.7,115.9c1,7.4,2,12,3,13c1.5,1.4,1.6,0.6,1.6-8.4c0.1-5.5,0.5-21.5,1-35.5l0.8-25.5l-6.5-11.5
			c-9.8-17.1-9.8-17.4-0.1-3l6.3,9.5L807.8,901.79z M803.6,1034.39l0.6-10l-3,4.1c-5.6,7.7-6.4,7.8-58.2,12.9
			c-25.6,2.5-48.7,4.5-51.5,4.5c-9.4-0.1-17.7-6.2-20.4-14.9c-0.7-2.5-1.1-11.7-1-25.2c0.2-28-3.4-55.7-8.7-68.6
			c-1.7-3.9-1.9-3.9-6.1-1.3c-8.8,5.3-18,25-25.3,54c-10.9,43.5-12.9,99.7-5.4,152c2.8,19.7,6.2,35.7,10,47.5
			c2.5,7.5,6.8,16.5,8,16.5c8.2,0,27.8-40.8,34.3-71.5c2.5-11.7,5.5-16.8,12.1-20.5c5.5-3,14.7-3.4,19.7-0.7
			c5,2.6,84.4,57.5,87.5,60.4l2.7,2.5l0.5-3.3c0.3-1.9,1.2-31.5,2-65.9C802.3,1072.49,803.3,1039.89,803.6,1034.39z M756.5,837.39
			c3.5-2.9,3.4-3-2.5-0.4c-5.3,2.4-5.4,2.5-4.5,3.8C750.2,842.09,751.9,841.19,756.5,837.39z M752.9,834.79c6.2-4.5,5.7-4.9-1.4-1.2
			c-6.1,3.1-6.1,3.1-4.9,4.2C747.1,838.39,749.7,837.19,752.9,834.79z M583.7-74.41c0.2-2,0.2-5.4,0-7.5c-0.2-2-0.4-0.3-0.4,3.8
			S583.5-72.31,583.7-74.41z M553.7-95.91c0.2-1.2,0.2-3.2,0-4.5c-0.2-1.2-0.4-0.2-0.4,2.3S553.5-94.61,553.7-95.91z M544.7-82.41
			c0.2-0.9,0.2-2.5,0-3.5c-0.3-0.9-0.5-0.1-0.5,1.8S544.4-81.41,544.7-82.41z"/>
		<path class="st1" d="M2033.8,86.49c0.2-0.3-0.1-18.4-0.7-40.3s-1.3-49.5-1.6-61.3l-0.4-21.5l2,23c3.6,40.8,2.9,139.8-1.6,213.5
			c-6.2,101.8-21.8,212.3-41.4,293.3c-2,8.6-2.6,9.6-4.3,7.9c-1.7-1.7-4.9-1.5-7.6,0.4c-1.2,0.8-2.5,1.3-3,1.1
			c-0.4-0.3-1.8,0-3.2,0.6c-1.4,0.6-4.6,0.9-7.1,0.8c-4-0.2-4.9,0.1-7,2.7c-1.5,1.7-3.3,2.8-4.5,2.6c-2.7-0.4-7.1,3.8-8.2,7.9
			c-0.6,2-0.7,3.8-0.4,4.1c0.8,0.9,4.2,0.7,4.3-0.2c0.1-0.4,0.3-1.7,0.4-2.8c0.3-3.2,1.3-4.3,3.5-3.7c2.5,0.7,7.9-1.7,8.5-3.8
			c0.3-0.9,1.5-1.9,2.5-2.2c1.1-0.3,1.8-0.2,1.6,0.2c-0.5,0.8,2.9,4.1,4.3,4.1c0.5,0,1.4-0.7,2.1-1.5c1.4-1.7,3.5-2.1,2.5-0.5
			c-0.3,0.5-0.1,1,0.4,1c0.6,0,1.1,0.7,1.1,1.5c0,3.1,4.1,1.6,5.6-2c1.4-3.5,2.8-4.4,3.9-2.5c0.3,0.5-1.8,10.2-4.7,21.5
			c-4,15.4-5.6,20.5-6.8,20.5c-0.8,0-10.5-2.2-21.5-4.9c-11-2.7-20.1-4.8-20.2-4.7c-0.2,0.2,5.7,3.4,13.1,7.2
			c7.4,3.8,13.1,7,12.7,7.2c-0.3,0.1-4-0.9-8.1-2.3c-4-1.4-7.5-2.4-7.6-2.2c-0.2,0.2,5.8,3.1,13.3,6.4c10.3,4.6,14.1,5.9,15,5.1
			c0.8-0.6,1.6-0.9,1.9-0.6c1.4,1.5-23.9,79-36.9,112.9c-17.9,46.6-49.1,115.9-52.2,115.9c-0.6,0-10.5-4.3-22.1-9.6
			c-11.5-5.3-21.9-10-23.2-10.5c-2.2-0.9-2.2-1,3.8-12.8c47.9-95.6,88.9-224.4,110.4-347.3c0.6-3.5,0.8-3.7,3.2-2.8
			c1.4,0.6,3.8,1,5.3,1c3.3,0,4.4,0.9,3.1,2.5s1.5,5.5,4,5.5c1,0,2.2,0.5,2.6,1.2c0.4,0.7,0.3,0.8-0.4,0.4c-0.6-0.3-1.5,0.2-2.1,1.1
			c-1.2,2.4,0.7,5.1,3.4,4.6c4.3-0.7,5-0.8,5-0.3c0.2,1.4,4.9,5.8,5.8,5.3c0.6-0.3,0.7-0.1,0.3,0.5c-0.3,0.6-0.2,1.3,0.4,1.7
			c0.5,0.3,1-0.2,1-1.2s0.4-1.4,0.8-0.8c0.4,0.5,2.2,1.8,4,2.7c4.7,2.5,4.2,0.2-1.3-5.5c-2.5-2.6-4.4-5.1-4.4-5.5
			c0.5-2.9-0.8-4.3-6.6-7.2c-3.6-1.8-6.5-3.6-6.5-3.9c0-0.3-1.4-2.1-3.1-3.9c-2.2-2.3-3.9-3.2-6.3-3.2c-1.9,0-3.9-0.7-4.8-1.8
			c-1.4-1.5-1.2-4.1,2.3-26c12.7-80.7,19.4-160.5,22-259.2c1-39.3,0.9-58-0.6-132l-0.4-22.5l3.4,39c1.8,21.4,3.4,40.3,3.4,41.9
			c0.1,1.6,0.3,2.7,0.6,2.4c0.6-0.5-0.7-41.6-3-99.8c-1.7-40.8-2.5-65.8-1.9-59c0.2,2.5,1.6,21.1,3,41.5c1.3,20.3,4,57,5.9,81.4
			c1.9,24.5,3.5,45.4,3.5,46.5c0,1,0.2,1.7,0.5,1.4c0.6-0.6-0.7-44.5-3-105.8c-2.5-64.7-2.5-66.6,0-31.5c4.4,61.2,10.6,140,11,141
			c0.5,1,0.1-14.6-1.5-62.5c-0.5-15.7-1.2-36.8-1.4-47l-0.5-18.5l1.4,17c0.8,9.3,3.3,39.3,5.5,66.5s4.3,49.9,4.5,50.5
			c0.4,1,0.3-5.2-1.5-59c-0.6-16-1.2-36-1.4-44.5c-0.6-18.7-0.6-19.3,5.4,55.5c2.2,27.5,4.2,50.7,4.5,51.5
			c0.5,1.8-0.2-31.7-1.6-72.5c-1.3-40.8-1-51.2,0.7-28.5c0.7,9.6,2.9,38.6,4.9,64.5c2,25.8,3.8,47.4,4,48c0.6,1.3,0.1-18-2.9-119.5
			c-0.4-12.2,0.1-7.9,2.3,20C2031.7,66.79,2033.4,86.89,2033.8,86.49z"/>
		<path class="st1" d="M2030.7-47.91c0.2,1.5,0.2,4.2,0,6c-0.2,1.8-0.4,0.6-0.4-2.7S2030.5-49.41,2030.7-47.91z"/>
		<path class="st1" d="M2014.7-59.91c0.2,2.1,0.2,5.5,0,7.5c-0.2,2.1-0.4,0.4-0.4-3.7S2014.5-61.91,2014.7-59.91z"/>
		<path class="st1" d="M2006.7-62.41c0.2,0.7,0.2,2.1,0,3c-0.3,1-0.5,0.4-0.5-1.2C2006.2-62.31,2006.4-63.01,2006.7-62.41z"/>
		<path class="st1" d="M1998.7-78.91c0.2,1.5,0.2,4.2,0,6c-0.2,1.8-0.4,0.6-0.4-2.7S1998.5-80.41,1998.7-78.91z"/>
		<path class="st1" d="M1988.3-300.51c5.3,3.5,9.7,6.8,9.7,7.2c0,0.5-9.4,6.6-21,13.5l-21,12.6l-6.7-5.3
			c-90.3-70.3-291.4-127.3-562.3-159.5c-25.9-3.1-64.6-7.1-89-9.2c-14.5-1.2-27.4-0.3-82.5,5.7c-281.5,30.6-502.8,90.8-596.4,162.4
			l-9.1,6.9l-12.3-7.1c-6.7-3.9-15.3-8.8-19-11l-6.8-3.9l9.3-6.7c54.6-39.1,144.4-74.9,260.9-104.2c15.6-3.9,29.2-7.3,30.1-7.6
			c1-0.3,1.9,0.2,2.3,1.6c0.3,1.1,1.4,2,2.4,2c2.5,0,3.3-1.1,1.9-2.7c-1.6-1.9-0.8-2.3,7.9-4.4c35.1-8.4,153.7-30.9,163-30.9
			c1.6,0,2.3,0.9,3.1,3.7l0.9,3.8l0.8-4.3c0.6-3.2,1.3-4.3,2.9-4.7c11.7-2.6,104.6-15,149.6-20c77.6-8.5,74.9-8.4,120.7-4
			c53.5,5.1,104.3,11.1,153.8,18.1c31,4.4,29.5,4,29.6,7.3c0,1.4,0.4,3.5,0.8,4.6c0.6,1.5,0.9,1.1,1.4-2.3c0.6-3.6,1.1-4.2,3.1-4.2
			c9.7,0,144.9,25,167.8,31.1c3.4,0.9,3.6,1.1,2.8,3.8c-0.9,3.3-0.5,4.1,2.1,4.1c1.9,0,3.1-2.3,2.3-4.5c-0.8-1.9-1-2,10.9,1.1
			c5.6,1.4,11.3,2.8,12.7,3.1c1.3,0.2,3,0.9,3.7,1.4c0.7,0.6,1.6,0.8,2.1,0.5c0.6-0.3,10.6,1.9,22.3,5
			C1849.2-369.91,1932.7-336.81,1988.3-300.51z"/>
		<path class="st1" d="M1988.7-123.41c0.2,1.3,0.2,3.3,0,4.5c-0.2,1.3-0.4,0.3-0.4-2.2S1988.5-124.61,1988.7-123.41z"/>
		<path class="st1" d="M1980.7-127.41c0.2,1.3,0.2,3.3,0,4.5c-0.2,1.3-0.4,0.3-0.4-2.2S1980.5-128.61,1980.7-127.41z"/>
		<path class="st1" d="M1978.7-47.91c0.2,1.6,0.2,4,0,5.5c-0.2,1.6-0.4,0.3-0.4-2.7S1978.5-49.41,1978.7-47.91z"/>
		<path class="st1" d="M1965,74.39c0,66.9-2,121.2-6.5,174.5c-16.6,196.2-60.1,364-131.6,508c-7.5,15.1-17.5,34.4-22.2,42.9
			l-8.5,15.3l-6.8,2.9c-3.8,1.6-6.9,2.9-7,2.9c0-0.18,2.96-5.51,6.7-12c94.7-165.2,149.8-371.3,163.4-610.5
			c6.2-110.4,4.2-218.6-7-365.5c-1.4-17.9-3.1-41.9-3.9-53.5c-1.3-18.4-1.7-21.1-3.4-22.5c-1.1-0.8-5-4-8.8-7.1
			c-83.8-68-275.8-124-534.6-155.9c-39.7-4.9-87.9-9.8-103.6-10.6c-28.1-1.4-163.1,15.5-256.2,32.2
			c-192.8,34.5-329.2,82.3-397.2,139.3l-6.7,5.6l-0.5,7c-1.8,21.3-8.8,120.5-10,141.5c-8.6,142.3-7.2,262.8,4.5,377.4
			c22.1,218.2,81.3,405.8,175.6,556.5l8.4,13.5l-0.3,9l-0.3,9.1l-9.1-14c-57.4-88.5-103.6-191.7-135.9-304.1
			c-44.9-155.5-65.5-333.8-61.5-531.2c1.4-64.8,3.4-106,9-184.2c1.7-22.3,3.7-50.9,4.6-63.5c0.9-12.7,2.1-23.6,2.7-24.4
			c0.6-0.7,4.3-3.9,8.2-7.1c72.3-58.9,218.8-108.3,424-143c60.8-10.3,133.9-20.1,192.5-25.9c16.8-1.7,32.1-3.2,34-3.4
			c7-0.8,9-0.7,30.6,1.3c94.7,8.8,197.5,23.6,284.4,41c161.6,32.3,276.3,73.7,341.4,123.3c15.8,12,15.3,11.3,16,22.5
			c0.4,5.3,2,27,3.7,48.2C1962.5-65.61,1965-10.01,1965,74.39z"/>
		<path class="st1" d="M1881.1,798.89l-2.2,4.2c-1.2,2.4-2.3,4.5-2.5,4.7c-0.3,0.3-11.2-4.9-24.3-11.4l-23.9-11.8l2.1-3.4
			c1.2-1.8,2.5-3.3,2.8-3.3c0.3,0,9.3,3.9,20,8.6c10.7,4.7,21.3,9.4,23.7,10.5L1881.1,798.89z"/>
		<path class="st1" d="M1871.4,974.69l2.5,9.3l-3.9-2.2c-7.8-4.4-13.4-9.4-15.9-14.4c-2.4-4.5-2.6-6.1-2.6-16.5
			c0-6.3,0.3-12.3,0.7-13.3c1.3-3.1,5-1.7,7.5,2.8S1867.5,960.59,1871.4,974.69z"/>
		<path class="st1" d="M1719.6,1023.09c1.3,2.6,2.4,5.3,2.4,6c-0.1,0.7-3.2,4.5-6.9,8.5l-6.9,7.2l-0.6-6.2c-0.6-5-4.3-27.9-7.2-44.2
			c-0.5-2.4,0.1-3.9,2.8-7.1c1.9-2.4,3.6-3.7,3.9-3c0.3,0.6,1.2,4,1.8,7.5C1710.4,999.29,1716.2,1016.29,1719.6,1023.09z"/>
		<path class="st1" d="M1706,974.09c0,0.9-1.8,3.7-3.9,6.2l-4,4.6l-0.6-3.1c-0.6-2.5-0.1-3.7,3-7.5
			C1704.3,969.69,1705.9,969.69,1706,974.09z"/>
		<path class="st1" d="M1704.9,934.99c0.2,0.6,0,4-0.4,7.5c-0.6,6-1.1,7-6.3,13.1l-5.6,6.6l-0.8-2.9c-0.6-2.3-0.3-3.3,1.7-5.4
			c2.5-2.6,5.5-8.9,5.5-11.5C1699,940.29,1704.4,933.49,1704.9,934.99z"/>
		<path class="st1" d="M1435.5,1248.89l1.5,2.9l-4.2,2.4c-8.1,4.6-20,10.7-20.7,10.7c-0.4,0-1.2-1.6-1.8-3.5l-1.1-3.5l11.1-5.9
			c6.2-3.2,11.8-5.9,12.4-6C1433.4,1245.99,1434.6,1247.19,1435.5,1248.89z"/>
		<path class="st1" d="M1417.7,1206.39c1.2,3.6,1.2,4.1-0.4,5.3c-2.4,1.8-17,9.2-18.2,9.2c-0.7,0-2.3-5.2-2.5-8.3
			c-0.1-1,17.5-10.6,18.8-10.3C1415.9,1202.39,1417,1204.29,1417.7,1206.39z"/>
		<path class="st1" d="M1411.4,1183.89l0.6,3.5l-10,5.2l-9.9,5.2l-1.2-4.2c-0.6-2.3-0.7-4.3-0.2-4.4c0.4-0.2,4.9-2.6,9.8-5.3
			c5-2.7,9.3-4.6,9.6-4.2C1410.5,1180.09,1411,1181.99,1411.4,1183.89z"/>
		<path class="st1" d="M1291.8,1314.89c1,4,1,4.1-2.5,5.5c-2,0.8-3.9,1.5-4.3,1.5c-2.4,0-67.4-27-69.2-28.8
			c-0.7-0.7,0.8-8.2,1.7-8.2c0.2,0,6.1,2.5,13.2,5.6c26.2,11.5,53.8,22.5,55.3,22.1c0.8-0.3,2.2-0.8,3.1-1.1
			C1290.4,1310.89,1291,1311.69,1291.8,1314.89z"/>
		<path class="st1" d="M1279.4,1263.39c0.4,2,0.5,3.9,0.3,4.1c-0.8,0.8-52.1-18.7-54-20.5c-1.2-1.2,0.4-9.3,1.7-8.8
			c0.6,0.3,11.5,4.8,24.1,10.1c12.7,5.3,24,10,25.1,10.5C1278,1259.39,1279,1260.99,1279.4,1263.39z"/>
		<path class="st1" d="M1273.5,1236.99c0.4,2.2,0.4,4.3,0.1,4.6c-0.6,0.6-18.3-6.4-20-7.9c-0.6-0.4,3.6-0.8,9.1-0.8h10.1
			L1273.5,1236.99z"/>
		<path class="st1" d="M1119.4,1155.49c1.1,0.4,1.2,1.3,0.4,4.2c-1.4,5.2-1.8,5.2-1.8-0.1
			C1118,1155.99,1118.3,1155.09,1119.4,1155.49z"/>
		<path class="st1" d="M978,1129.89l-0.1,8.7c-0.1,14.1,0.3,14-13.5,2.8c-6.5-5.4-12.3-10.2-12.8-10.6c-0.6-0.5,5-0.9,12.7-0.9H978z
			"/>
		<path class="st1" d="M796.7,881.29c10,14.8,11.4,17.4,11.1,20.5l-0.3,3.6l-6.3-9.5c-9.7-14.4-9.7-14.1,0.1,3l6.5,11.5l-0.8,25.5
			c-0.5,14-0.9,30-1,35.5c0,9-0.1,9.8-1.6,8.4c-1-1-2-5.6-3-13c-6.2-48.9-20.9-88.8-42.7-115.9c-2-2.5-3.3-4.8-2.9-5.2
			c0.4-0.3,3.6-1.8,7.2-3.1c4.8-1.9,6.8-2.2,7.6-1.3c0.6,0.6,4.1,6,7.9,12.1C782.2,859.39,790.4,871.99,796.7,881.29z"/>
		<path class="st1" d="M754,836.99c5.9-2.6,6-2.5,2.5,0.4c-4.6,3.8-6.3,4.7-7,3.4C748.6,839.49,748.7,839.39,754,836.99z"/>
		<path class="st1" d="M751.5,833.59c7.1-3.7,7.6-3.3,1.4,1.2c-3.2,2.4-5.8,3.6-6.3,3C745.4,836.69,745.4,836.69,751.5,833.59z"/>
		<path class="st1" d="M583.7-81.91c0.2,2.1,0.2,5.5,0,7.5c-0.2,2.1-0.4,0.4-0.4-3.7S583.5-83.91,583.7-81.91z"/>
		<path class="st1" d="M553.7-100.41c0.2,1.3,0.2,3.3,0,4.5c-0.2,1.3-0.4,0.3-0.4-2.2S553.5-101.61,553.7-100.41z"/>
		<path class="st1" d="M544.7-85.91c0.2,1,0.2,2.6,0,3.5c-0.3,1-0.5,0.2-0.5-1.7S544.4-86.81,544.7-85.91z"/>
	</g>
	<g>
	</g>
</g>
<g id="XMLID_10_">
	<g>
		<path class="st1" d="M738,782.79l2,3.9l-21.8,10.7c-11.9,5.9-22.1,10.7-22.6,10.8c-0.5,0.1-2-1.7-3.4-4.1l-2.4-4.2l6.9-3.1
			c3.7-1.6,14-6.3,22.8-10.4c8.8-4,16.1-7.4,16.2-7.4C735.9,778.89,736.9,780.69,738,782.79z"/>
	</g>
	<g>
	</g>
</g>
<g id="XMLID_9_">
	<g>
		<path class="st1" d="M575.4-67.11c-2.1,66.7-3.5,128.2-2.9,126c0.3-0.8,2.3-25.4,4.5-54.5c6-79.2,6-79,5.4-52.5
			c-0.2,12.4-0.9,38.9-1.5,58.9c-0.6,19.9-0.9,36.5-0.6,36.7c0.2,0.2,1.2-9.6,2.1-21.8c1-12.3,2.3-29.1,2.9-37.3
			c1-12.9,1.2-3.4,1.2,68.5c0,93.9,1.3,128.9,7.6,199c3.6,41.3,11.8,105.6,17.4,136.9c1.8,10.3,1.1,12.1-4.4,12.1
			c-3.1,0-4.4,0.6-6.5,3.1c-1.4,1.7-2.6,3.5-2.6,4c0,0.6-0.4,0.8-0.9,0.5c-0.5-0.4-2.2,0.5-3.8,1.8c-1.6,1.4-4.1,2.8-5.5,3.1
			c-2,0.5-2.8,1.5-3.3,4.2c-0.4,2.2-2.1,4.9-4.6,7.2c-5.7,5.5-5.3,7.9,0.7,4.2c2.4-1.5,3.5-1.7,4.4-0.8c0.9,0.9,1.1,0.9,0.8-0.3
			c-0.2-0.8,0.3-1.4,1-1.5c1.5,0,3.3-2.6,2.6-3.6c-0.8-1.4,1.5-1.9,4.2-0.9c2.1,0.8,3.2,0.7,5-0.5c2.3-1.5,2.3-1.7,0.8-4
			c-1.5-2.4-1.5-2.5,0.2-2.5c2.2-0.1,5.6-2.4,5.4-3.7c-0.1-0.4-0.6-1.3-1.1-2c-1.2-1.4,0.4-2.6,4-2.8c1.4-0.2,3.4-0.6,4.3-1
			c2-0.8,1.4-3,6.9,25c22.4,114.9,60.6,231.1,105.8,321.3c8,16,8.1,16.3,5.9,17.1c-1.3,0.5-9.9,4.4-19.3,8.6
			c-9.3,4.3-18.9,8.6-21.3,9.6l-4.2,1.8l-5.1-10.2c-19.5-38.8-42.5-94.6-59.9-145.2c-9-26.4-22.2-70.7-21.3-71.5
			c0.4-0.5,6.8-3.4,14-6.6c7.3-3.2,13.1-5.9,12.9-6.1c-0.2-0.2-4.3,0.7-9.2,2.1c-4.8,1.4-8.9,2.5-9,2.3c-0.2-0.1,5.6-3.4,12.9-7.2
			c7.2-3.8,12.7-7,12.2-7.2c-0.6-0.2-9.3,1.9-19.3,4.5c-12,3.2-18.5,4.5-18.8,3.8c-0.8-2.4-10.4-39.4-10.4-40.1
			c0-1.1,1.5,0.4,1.6,1.6c0.1,0.5,0.2,1.3,0.3,1.8c0.2,1.8,3.9,1.8,5.5,0c0.9-1.1,1.3-1.9,0.9-1.9c-0.3,0-0.4-0.3-0.1-0.6
			c0.4-0.3,1.8,0.2,3.2,1.1c2.2,1.4,2.8,1.5,3.9,0.3c0.8-0.7,1.6-1.8,1.8-2.4c0.6-1.7,4.9,0.2,4.9,2.1c0,0.8,0.9,1.5,1.9,1.5
			c1.1,0,2.3,0.5,2.7,1.1c0.3,0.6,1.9,0.9,3.4,0.5c3.1-0.6,4,0.6,4,5c0,1.7,0.6,2.4,1.8,2.4c2.7,0,3.1-0.7,2.1-4.8
			c-0.9-4.3-5.1-8.3-8.1-7.8c-1.5,0.2-3-0.7-4.7-2.6c-2.1-2.6-3-2.9-7-2.7c-2.5,0.2-5.7-0.2-6.9-1c-1.3-0.7-2.6-1-2.9-0.7
			c-0.3,0.3-2-0.2-3.7-1.2c-1.7-0.9-4-1.7-5.1-1.7c-1.7,0-2.4-2-5.7-17c-13.9-63.9-25.6-141.9-32.2-215.5
			c-5.7-62.3-7.5-102.3-8.3-174.5c-0.6-62.7,0.4-103.8,3.6-147c2.3-30.6,2.5-26.3,0.6,21.5c-2.2,57.9-3.7,114.2-3.1,114.8
			c0.4,0.3,0.6-0.4,0.6-1.4c0-1.1,1.6-22,3.5-46.5c4.5-58.1,8.5-115.7,8.5-122.5c0-3,0.3-5.4,0.7-5.4c0.3,0,0.3,6.4-0.1,14.2
			c-2.6,58-5.9,156.8-5.2,157.6c0.4,0.3,0.6-0.4,0.6-1.6c0-1.2,1.6-21.5,3.5-45c2-23.5,4.6-56.4,6-73.2c1.9-24.7,2.3-27.6,1.9-15.5
			c-2.3,75.5-3.5,125.7-2.9,123.5c0.3-0.8,2.3-25.4,4.5-54.5c2.2-29.2,4.7-61.3,5.4-71.5l1.5-18.5l-0.5,14.5
			c-2,65.4-3.5,127.1-2.9,125c0.3-0.8,2.3-25.4,4.5-54.5c2.2-29.2,4.7-61.3,5.5-71.5l1.4-18.5L575.4-67.11z"/>
	</g>
	<g>
	</g>
</g>
<g id="XMLID_8_">
	<g>
		<path class="st1" d="M1988.6,1118.09c12,31,13.6,70.3,4.2,102.3c-9.8,33.4-35.4,63.9-67.4,80.2c-24.8,12.7-56.3,18-81.5,13.8
			c-21.2-3.5-51.6-15.8-77.9-31.4c-15.7-9.4-34-21.5-34-22.5s42.7-79.5,44.1-81c0.4-0.5,4.8,2.9,10.1,7.9
			c30.5,28.7,60.6,44.2,78.8,40.4c7.8-1.6,12-4,17.2-9.8c5.8-6.5,9.5-15.5,11.4-28.5c1.9-12.4,1.4-22.7-2-35.8
			c-3.6-14.3-7.6-21.7-16.3-30.9c-11-11.5-22.6-19.7-38.2-27c-47.3-22-73.1-43.9-88.4-75.1c-9.2-18.7-13.5-36.3-14.4-59.9
			c-1.5-38.9,8.5-67.8,31.7-92.3c20.9-22,48.1-34.6,80.9-37.6c12.7-1.1,14.6-1.1,26.3,0c13.4,1.3,25.6,4.7,37.5,10.6
			c22.4,10.9,39.6,28.8,58.3,60.4c7.5,12.8,23.7,44.7,23,45.4c-0.8,0.7-85.3,44.6-85.9,44.6c-0.3,0-2.1-6.2-4-13.8
			c-6.3-25.6-12.9-43.3-19.2-51.3c-3.7-4.7-11.7-8.9-18.2-9.6c-7.7-0.8-13.5,1.1-18.2,6.1c-5.7,5.9-7.7,12.4-8.2,27.2
			c-0.4,10.1-0.2,13.4,1.6,20.4c4.7,18.7,10.3,23.7,53.1,47C1943.8,1045.59,1972.1,1075.19,1988.6,1118.09z"/>
	</g>
	<g>
	</g>
</g>
<g id="XMLID_7_">
	<g>
		<path class="st1" d="M1681,972.39c17.5,67.5,21.1,119.7,11.9,175.3c-6.9,42.1-23.7,86.8-43.7,116.7c-7.5,11.1-21.4,26.2-30.6,33.2
			c-7.8,5.9-21.9,12.7-32.1,15.5c-11.4,3.1-34.5,3.1-45.6,0.1c-16.3-4.6-30.3-13-45.2-27.2c-21.1-20.3-37-46-48.1-77.9
			c-21.5-62-22.9-158.5-3.4-236.7c21.8-87.1,58.8-134.4,109.8-140.5c9.6-1.1,11.7-1.1,21,0c35.5,4.4,61.1,24.2,88.5,68.5
			c7.2,11.6,22.5,40.7,22.5,42.8c0,0.7-2.5,2.5-5.6,4c-4.9,2.4-5.5,3.1-5,5C1675.8,952.39,1678.3,961.89,1681,972.39z"/>
	</g>
	<g>
	</g>
</g>
<g id="XMLID_6_">
	<g>
		<path class="st1" d="M1403.9,1288.19c2,6.9,2.6,9.9,1.8,10.2c-2.6,0.8-84,17.5-84.3,17.2c-0.5-0.4-13.2-53.9-18.6-78.1l-5.3-23.8
			l-7.5,0.6c-4.1,0.3-21.2,1.1-38,1.7c-16.8,0.7-31.4,1.6-32.6,2c-1.7,0.6-2.3,1.9-2.8,6.1c-1.5,11.1-17.9,90.4-19,91.5
			c-0.3,0.4-81.6-20.5-83.8-21.4c-1.4-0.7-0.7-4,6.4-28.3c46.4-160.5,113.3-389.4,115.8-396.5c8.2-23.3,19.2-37.8,29.8-39.5
			c0.1,0,1.7,0.6,3.5,1.4c6.1,2.5,12.2,12.3,19.2,30.6c6.3,16.4,13.2,42.3,51,190C1365.3,1152.79,1387.3,1233.59,1403.9,1288.19z"/>
	</g>
	<g>
	</g>
</g>
<g id="XMLID_5_">
	<g>
		<path class="st1" d="M1108.8,834.39c0.3,0.3,0,14.8-0.7,32.2c-1.6,41.3-3,187.9-3,333.5l-0.1,115.8h-3.7c-13.4-0.1-99.6-3-100-3.4
			c-0.3-0.3,0-6.3,0.6-13.3c1.8-21,3-51.7,4.1-107.8c0.5-29.2,1.3-59,1.6-66.4l0.6-13.4l-41.7,0.5c-22.9,0.3-41.9,0.9-42.3,1.3
			c-0.4,0.4-0.8,46.1-1,101.6l-0.3,100.9h-3.7c-13-0.1-94.6-3-95-3.5c-0.3-0.2,0-7.6,0.6-16.2c0.7-8.7,1.6-27.1,2.2-40.8
			c1.2-27.8,12-401.2,12-414.3v-8.2h22.8c12.5,0,33.9,0.3,47.6,0.7l24.9,0.6l-0.7,24.6c-0.4,13.5-1.3,37.6-2.1,53.6
			c-1.8,34.6-4.5,95.7-4.5,100.2v3.3h41.4h41.4l0.6-15.3c0.3-8.3,1.3-43.1,2.1-77.2s1.8-68.5,2.1-76.4l0.6-14.4l46.6,0.6
			C1087.4,833.59,1108.6,834.09,1108.8,834.39z"/>
	</g>
	<g>
	</g>
</g>
<g id="XMLID_4_">
	<g>
		<path class="st1" d="M791.6,1003.19l0.7,15.5l-4.4,0.6c-2.4,0.4-21,2.2-41.4,4.1c-20.3,1.9-39.2,3.8-41.9,4.1l-4.9,0.6l0.5-14.3
			c1.1-30.7-4-67.6-11.8-84.9c-2.9-6.4-8.7-12.5-13-13.6c-4.2-1.1-13,0.3-18.7,2.9c-7,3.3-13.7,9.4-19.2,17.6
			c-13,19.7-23.5,56.9-28.7,101.6c-1.7,14.9-1.7,73.2,0,89c6.5,59.7,18.3,94.3,35.3,103c7.6,4,16.8,1.4,26.1-7.3
			c14.1-13.2,29-46.6,37.2-83.4c0.6-2.6,1.4-2.1,41.4,25.4c22.4,15.4,40.9,28.2,41.1,28.4c0.2,0.1-2.9,6.4-6.8,13.9
			c-15.3,29.5-32.9,52.6-56.1,73.8c-16.6,15.1-38.9,28-57,32.9c-22.3,6-51.7-0.4-75-16.2c-24.6-16.7-49.9-53.2-61.6-88.7
			c-19.4-59.1-23.6-142.9-10.8-214.3c10.8-60.2,42.2-116.6,78.7-141.8c26.7-18.4,60.7-25.7,92.2-19.7c51.7,9.8,85.1,58.8,95.5,139.9
			C790.1,980.79,791.3,994.69,791.6,1003.19z"/>
	</g>
	<g>
	</g>
</g>
<g id="XMLID_3_">
	<g>
		<path class="st1" d="M1432.9-98.11c2.5,11.4,0.9,19.1-4.9,24.3c-4.6,4.2-9.6,5.9-28.2,9.2c-17.8,3.3-55.1,11-65.3,13.6
			c-4.3,1.1-10.9,2.3-14.5,2.6c-5.9,0.5-6.9,0.3-9.3-1.8c-3.4-2.9-4.7-8.2-4-15.8c0.8-7.9,2.3-10.3,9-13.8
			c17.8-9.4,79.8-22.8,107.5-23.2l8.6-0.1L1432.9-98.11z"/>
	</g>
	<g>
	</g>
</g>
<g id="XMLID_16_">
	<g>
		<path class="st2" d="M1243-46.81c0,9.1-1.6,15.2-4.3,16.3c-2,0.7-15-1.1-33.5-4.7c-28.3-5.5-78.1-16.8-81.2-18.4
			c-4.6-2.4-6.1-5.6-6.7-14.3c-1.3-19,2.3-21.8,21.7-17.1c8.3,2,59,12.7,82.1,17.4C1240.4-63.81,1243-61.31,1243-46.81z"/>
	</g>
	<g>
	</g>
</g>
<g id="XMLID_15_">
	<g>
		<path class="st2" d="M1432.9-80.11c2.5,11.4,0.9,19.1-4.9,24.3c-4.6,4.2-9.6,5.9-28.2,9.2c-17.8,3.3-55.1,11-65.3,13.6
			c-4.3,1.1-10.9,2.3-14.5,2.6c-5.9,0.5-6.9,0.3-9.3-1.8c-3.4-2.9-4.7-8.2-4-15.8c0.8-7.9,2.3-10.3,9-13.8
			c17.8-9.4,79.8-22.8,107.5-23.2l8.6-0.1L1432.9-80.11z"/>
	</g>
	<g>
	</g>
</g>
<g id="XMLID_14_">
	<g>
		<path class="st2" d="M1648.2,549.79c1.1,14.5,1.5,29,1.2,55.6c-0.2,19.8-0.5,55.1-0.7,78.5c-0.2,40.8-0.3,42.7-2.3,46.5
			c-2.4,4.6-7.3,7.5-12.4,7.4c-6.6-0.2-8.4-1.2-10.2-5.9c-2.2-5.9-2.2-9.7,0.2-20c1.5-6.4,2.2-13.9,2.7-30.1
			c0.6-20.7,0.5-21.7-1.3-22.2c-1-0.4-5-1.3-8.9-2.2c-4.1-0.9-11-3.8-17.1-7l-10.2-5.5l-1.2,3.2c-1.9,5.3-3.2,42-2.6,73.8
			c0.8,35.9,1.7,47,5.2,62.5c2.4,10.6,2.6,12.5,1.6,17.4c-2.1,9.9-6.9,14.1-16.1,14.1c-9.1,0-14.7-5.1-17.2-15.5
			c-0.7-3.5-1.2-26.2-1.4-73.5c-0.4-73.3-1.2-92-4.2-97.2c-1.5-2.6-8.2-6.3-41.8-23.2c-22-11.1-47.4-24.2-56.5-29.1
			s-25.7-13.4-37-18.8c-11.3-5.5-28.2-14.6-37.5-20.2c-21.4-12.8-24.4-14.3-38.6-19.4c-6.4-2.2-17.4-6.8-24.5-10.2
			c-45.2-21.4-57.3-24.9-75.1-21.7c-16.4,2.9-29.6,9.9-56.8,30.1c-7.9,5.9-24,16.9-35.7,24.3c-19.9,12.7-29.5,19.6-71.4,51.7
			c-8.9,6.8-26,19-38,27.1c-12,8.2-27.9,19.4-35.2,25c-23.4,17.7-27.5,20.5-35.2,23.8c-6.6,2.8-8.6,3.2-16.5,3.2
			c-10.3,0-13.8-1.3-18-6.9c-6.2-8.1-7.2-18.3-5.4-59.5c1.6-36.1,1.7-52,0.5-65.5c-1-12,0.3-18.8,6.4-31.1
			c7.3-14.9,10.4-17.5,73.9-59.8c58.2-38.9,115.6-78.9,126.6-88.4c13.6-11.6,26.7-25.1,28.8-29.4c3.8-8.1,1.2-15-6.9-18.4
			c-6-2.5-23-3.3-58.9-2.7c-22.3,0.4-41.2,0.1-55-0.7c-11.5-0.7-48.2-1.5-81.5-1.9l-60.5-0.6l-5.9-2.7c-8.5-4-15.3-9.4-18.2-14.3
			c-3.8-6.6-4-12.6-0.9-31.5c2.6-15.9,2.7-18.2,3-59c0.2-23.4,0.6-43.4,1.1-44.5c4.4-11.8,18.4-15.4,52.2-13.5
			c22.1,1.2,45.2,1.3,45.2,0.1c0-0.5-0.7-1.4-1.4-2.1c-2.6-2.1-13.2-19.1-19.9-32c-19.7-37.5-34.6-89.6-38.7-135
			c-2-22.6-0.9-72.8,2.1-92c0.5-3.6,2.2-9,3.7-12c2.3-4.8,3.5-5.9,8.7-8.5l6-3l58.5-0.1c37.8-0.1,60.1,0.2,63,0.8
			c6.6,1.6,11.4,4.3,14.8,8.3c5.9,7.2,6.5,15,3.1,40.2c-4,29.5-2.5,49.2,5.7,74.1c11.1,34,30.9,61.7,56.5,78.7
			c9.1,6.1,38.9,22.1,47.4,25.5c8.1,3.2,21.2,6.3,34,8.2c12.1,1.7,57.9,1.7,70.5,0c54.1-7.5,107.5-33.2,144.8-69.6
			c16.3-15.9,22.9-26.7,30.7-50c6.2-18.4,7.9-28.1,7.9-46.1c0-14.8-0.2-16.9-3.1-28.1c-5.5-21.3-5.5-27.8-0.1-34
			c6.5-7.4,17.5-10,38.3-9.1c6.6,0.2,15.2,0.1,19-0.3c11-1.1,22.2-1.1,32,0.1c5,0.6,18,1.4,29,1.8c17.5,0.6,20.5,1,24,2.8
			c16.8,8.8,22.4,31.1,21.2,84.3c-1.7,77.8-19.8,129.1-63.1,179c-12.5,14.3-18.3,21.7-17.5,22.4c0.2,0.1,8.7-0.1,18.9-0.6
			s26.2-0.8,35.5-0.6c15.6,0.3,17.4,0.5,22,2.8c6.7,3.2,13.1,9.3,14.6,13.8c0.8,2.5,0.9,6.3,0.3,13.1c-1.1,11.8-1,25.6,0.1,37.9
			c0.5,5.9,0.4,13.4-0.3,20.5c-0.6,6.2-1.5,19.7-2,30.2c-0.8,15.9-1.3,20-3.2,24.9c-4.3,11.3-13.2,18.1-28,21.2
			c-8.4,1.8-30.6,1.6-90.3-0.7c-27.8-1.1-35.7-1.1-52.5,0.2c-19.3,1.4-28.4,1.5-54.7,0.8c-10.8-0.3-14-0.1-18.9,1.5
			c-21.8,7.2-25.4,23.6-8.8,40.2c7.7,7.7,14.2,11.9,36,23.4c10.3,5.4,30.3,16.1,44.4,23.7c14.1,7.7,31.7,16.6,39,19.8
			c7.3,3.3,22.8,10.7,34.3,16.6c11.6,5.9,30.3,14.9,41.5,19.9c39.9,17.9,56.6,27,61.6,33.6c3.6,4.7,3.9,9.2,1.8,26.6
			C1646.7,529.39,1646.7,531.49,1648.2,549.79z"/>
	</g>
	<g>
	</g>
</g>
<g id="XMLID_2_">
	<g>
		<path class="st1" d="M1243-64.81c0,9.1-1.6,15.2-4.3,16.3c-2,0.7-15-1.1-33.5-4.7c-28.3-5.5-78.1-16.8-81.2-18.4
			c-4.6-2.4-6.1-5.6-6.7-14.3c-1.3-19,2.3-21.8,21.7-17.1c8.3,2,59,12.7,82.1,17.4C1240.4-81.81,1243-79.31,1243-64.81z"/>
	</g>
	<g>
	</g>
</g>
<g id="XMLID_1_">
	<g>
		<path class="st1" d="M1648.2,531.79c1.1,14.5,1.5,29,1.2,55.6c-0.2,19.8-0.5,55.1-0.7,78.5c-0.2,40.8-0.3,42.7-2.3,46.5
			c-2.4,4.6-7.3,7.5-12.4,7.4c-6.6-0.2-8.4-1.2-10.2-5.9c-2.2-5.9-2.2-9.7,0.2-20c1.5-6.4,2.2-13.9,2.7-30.1
			c0.6-20.7,0.5-21.7-1.3-22.2c-1-0.4-5-1.3-8.9-2.2c-4.1-0.9-11-3.8-17.1-7l-10.2-5.5l-1.2,3.2c-1.9,5.3-3.2,42-2.6,73.8
			c0.8,35.9,1.7,47,5.2,62.5c2.4,10.6,2.6,12.5,1.6,17.4c-2.1,9.9-6.9,14.1-16.1,14.1c-9.1,0-14.7-5.1-17.2-15.5
			c-0.7-3.5-1.2-26.2-1.4-73.5c-0.4-73.3-1.2-92-4.2-97.2c-1.5-2.6-8.2-6.3-41.8-23.2c-22-11.1-47.4-24.2-56.5-29.1
			s-25.7-13.4-37-18.8c-11.3-5.5-28.2-14.6-37.5-20.2c-21.4-12.8-24.4-14.3-38.6-19.4c-6.4-2.2-17.4-6.8-24.5-10.2
			c-45.2-21.4-57.3-24.9-75.1-21.7c-16.4,2.9-29.6,9.9-56.8,30.1c-7.9,5.9-24,16.9-35.7,24.3c-19.9,12.7-29.5,19.6-71.4,51.7
			c-8.9,6.8-26,19-38,27.1c-12,8.2-27.9,19.4-35.2,25c-23.4,17.7-27.5,20.5-35.2,23.8c-6.6,2.8-8.6,3.2-16.5,3.2
			c-10.3,0-13.8-1.3-18-6.9c-6.2-8.1-7.2-18.3-5.4-59.5c1.6-36.1,1.7-52,0.5-65.5c-1-12,0.3-18.8,6.4-31.1
			c7.3-14.9,10.4-17.5,73.9-59.8c58.2-38.9,115.6-78.9,126.6-88.4c13.6-11.6,26.7-25.1,28.8-29.4c3.8-8.1,1.2-15-6.9-18.4
			c-6-2.5-23-3.3-58.9-2.7c-22.3,0.4-41.2,0.1-55-0.7c-11.5-0.7-48.2-1.5-81.5-1.9l-60.5-0.6l-5.9-2.7c-8.5-4-15.3-9.4-18.2-14.3
			c-3.8-6.6-4-12.6-0.9-31.5c2.6-15.9,2.7-18.2,3-59c0.2-23.4,0.6-43.4,1.1-44.5c4.4-11.8,18.4-15.4,52.2-13.5
			c22.1,1.2,45.2,1.3,45.2,0.1c0-0.5-0.7-1.4-1.4-2.1c-2.6-2.1-13.2-19.1-19.9-32c-19.7-37.5-34.6-89.6-38.7-135
			c-2-22.6-0.9-72.8,2.1-92c0.5-3.6,2.2-9,3.7-12c2.3-4.8,3.5-5.9,8.7-8.5l6-3l58.5-0.1c37.8-0.1,60.1,0.2,63,0.8
			c6.6,1.6,11.4,4.3,14.8,8.3c5.9,7.2,6.5,15,3.1,40.2c-4,29.5-2.5,49.2,5.7,74.1c11.1,34,30.9,61.7,56.5,78.7
			c9.1,6.1,38.9,22.1,47.4,25.5c8.1,3.2,21.2,6.3,34,8.2c12.1,1.7,57.9,1.7,70.5,0c54.1-7.5,107.5-33.2,144.8-69.6
			c16.3-15.9,22.9-26.7,30.7-50c6.2-18.4,7.9-28.1,7.9-46.1c0-14.8-0.2-16.9-3.1-28.1c-5.5-21.3-5.5-27.8-0.1-34
			c6.5-7.4,17.5-10,38.3-9.1c6.6,0.2,15.2,0.1,19-0.3c11-1.1,22.2-1.1,32,0.1c5,0.6,18,1.4,29,1.8c17.5,0.6,20.5,1,24,2.8
			c16.8,8.8,22.4,31.1,21.2,84.3c-1.7,77.8-19.8,129.1-63.1,179c-12.5,14.3-18.3,21.7-17.5,22.4c0.2,0.1,8.7-0.1,18.9-0.6
			s26.2-0.8,35.5-0.6c15.6,0.3,17.4,0.5,22,2.8c6.7,3.2,13.1,9.3,14.6,13.8c0.8,2.5,0.9,6.3,0.3,13.1c-1.1,11.8-1,25.6,0.1,37.9
			c0.5,5.9,0.4,13.4-0.3,20.5c-0.6,6.2-1.5,19.7-2,30.2c-0.8,15.9-1.3,20-3.2,24.9c-4.3,11.3-13.2,18.1-28,21.2
			c-8.4,1.8-30.6,1.6-90.3-0.7c-27.8-1.1-35.7-1.1-52.5,0.2c-19.3,1.4-28.4,1.5-54.7,0.8c-10.8-0.3-14-0.1-18.9,1.5
			c-21.8,7.2-25.4,23.6-8.8,40.2c7.7,7.7,14.2,11.9,36,23.4c10.3,5.4,30.3,16.1,44.4,23.7c14.1,7.7,31.7,16.6,39,19.8
			c7.3,3.3,22.8,10.7,34.3,16.6c11.6,5.9,30.3,14.9,41.5,19.9c39.9,17.9,56.6,27,61.6,33.6c3.6,4.7,3.9,9.2,1.8,26.6
			C1646.7,511.39,1646.7,513.49,1648.2,531.79z"/>
	</g>
	<g>
	</g>
</g>
<path class="st0" d="M1273.5-456.01c-4.4,0.5-18.6,2-31.5,3.4c-210.4,22.7-402.8,60.5-501.1,98.6c-15.5,5.9-21.5,7.9-24.6,7.9
	c-4.7,0-1.6-3.8,7.9-9.7c3.2-2,5.8-3.7,5.8-3.9c0-0.2-3.6,1-8,2.6c-4.4,1.7-11.7,4.4-16.2,6c-20.7,7.7-51.3,21.7-71.8,32.9
	c-15,8.2-47,27.3-47,28c0,0.3,5.6,3.1,12.4,6.2l12.4,5.7l8.3-6c23.8-17,61-35.9,105.9-53.9c129.3-51.5,311.6-88.8,529.9-108.5
	l29.4-2.6l30.6,2.6c231.5,20.2,421,60.4,550.6,117.1c29.9,13,64,31.7,80.3,43.9l7.3,5.4l13.5-8.1c7.3-4.5,13.4-8.4,13.4-8.8
	c0-0.8-26.3-16.5-40.9-24.4c-21.7-11.7-50.8-24.6-83.8-36.9c-6.5-2.4-12.7-4.8-13.8-5.2s0.7,1.3,4.1,3.8c7.7,5.8,10.8,9.6,9.3,11.4
	c-2.5,3-11.1,1.1-33.9-7.5c-102.9-38.9-286.4-74.8-492.5-96.5C1288.1-456.81,1283.4-457.11,1273.5-456.01z"/>
<path class="st0" d="M1257.6,1000.59c-0.4,2.6-5.9,33.1-12.2,67.7c-6.3,34.6-11.3,63-11.1,63.2c0.2,0.3,11,0.7,24,1.1
	c20,0.5,23.7,0.4,23.7-0.8c0-3.6-4.6-30.2-11.9-69.4c-4.5-23.6-8.8-48.1-9.7-54.5c-0.9-6.3-1.7-11.6-1.9-11.8
	C1258.4,995.89,1257.9,997.99,1257.6,1000.59z"/>
<path class="st0" d="M1558.5,916.29c-15.6,6.8-29,50.2-34.5,112.1c-1.8,20.1-2.4,70.3-1.1,87c2.4,30.1,7.6,61.7,13.1,80.4
	c7.7,25.9,18.7,38.4,30.8,35.2c17.9-4.9,28.8-33.5,36.9-96.6c2.5-20,2.6-74.6,0-92.5c-3.9-27.5-9.8-50.4-18.3-71.5
	c-2.5-6-4.7-11.7-5-12.5c-0.4-1.2,1.8-2.3,9-4.9c5.3-1.8,9.6-3.5,9.6-3.7c0-0.3-2.3-5-5.1-10.5c-7.9-15.8-17.4-23.9-27.9-23.8
	C1563.5,914.99,1560.2,915.59,1558.5,916.29z M1577,1071.19v5.3l-6.7,5.5c-3.8,2.9-13.1,10.3-20.8,16.3l-14,10.9l-0.3-5.3
	c-0.3-4.5,0-5.5,2-6.8c4.8-3.4,36.6-29.1,37.2-30.1C1576,1064.49,1577,1066.19,1577,1071.19z M1576.6,1101.49
	c-0.6,2.9-3.1,5.3-18.7,17.6c-9.9,7.9-18.6,14.3-19.2,14.3c-0.7,0-1.3-1.8-1.5-4c-0.3-3.9-0.1-4.2,6-8.7c3.5-2.5,12.4-9.4,19.8-15.2
	C1577,1094.49,1577.9,1094.29,1576.6,1101.49z M1575.3,1119.59c-0.8,8.4-4.4,34.6-5.4,39.5c-1,4.7-2.1,5.9-3.4,3.8
	c-0.9-1.5-4.7-1.2-7.1,0.5c-1.2,0.8-2.4,1.2-2.7,0.9c-0.3-0.3-1.8,0.1-3.4,0.9c-1.9,1-4.1,1.3-6.8,0.8l-4-0.6l-1.7-10l-1.8-9.9
	l3.3-2.7c1.7-1.4,9.7-8.3,17.7-15.2s14.8-12.6,15.1-12.6C1575.5,1114.89,1575.6,1116.99,1575.3,1119.59z M1548.6,1173.59
	c1.7,1.7,2.9,1.6,4.4-0.2c1.4-1.7,3.5-2.1,2.5-0.5c-0.3,0.5-0.1,1,0.4,1c0.6,0,1.1,0.6,1.1,1.4c0,1.6-9.7,8.9-10.3,7.8
	c-0.3-0.4-1-3.1-1.7-6.1c-1-4.4-1-5.5,0.1-6.2c0.9-0.5,1.6-0.4,1.8,0.4C1547.1,1171.79,1547.9,1172.89,1548.6,1173.59z
	 M1559.4,1199.59c-0.9,2.1-2.2,4.4-2.9,5.1c-1,1.1-1.4,0.9-1.9-1.4c-0.5-1.8-0.3-3,0.6-3.5c0.7-0.4,2.2-1.5,3.3-2.3s2.1-1.6,2.2-1.6
	C1560.8,1195.89,1560.2,1197.59,1559.4,1199.59z"/>
<g id="XMLID_13_">
	<g>
		<path class="st1" d="M1432.9-98.11c2.5,11.4,0.9,19.1-4.9,24.3c-4.6,4.2-9.6,5.9-28.2,9.2c-17.8,3.3-55.1,11-65.3,13.6
			c-4.3,1.1-10.9,2.3-14.5,2.6c-5.9,0.5-6.9,0.3-9.3-1.8c-3.4-2.9-4.7-8.2-4-15.8c0.8-7.9,2.3-10.3,9-13.8
			c17.8-9.4,79.8-22.8,107.5-23.2l8.6-0.1L1432.9-98.11z"/>
	</g>
	<g>
	</g>
</g>
<path class="st3" d="M1205.2-53.21c-28.3-5.5-78.1-16.8-81.2-18.4"/>
<g id="XMLID_12_">
	<g>
		<path class="st1" d="M1648.2,531.79c1.1,14.5,1.5,29,1.2,55.6c-0.2,19.8-0.5,55.1-0.7,78.5c-0.2,40.8-0.3,42.7-2.3,46.5
			c-2.4,4.6-7.3,7.5-12.4,7.4c-6.6-0.2-8.4-1.2-10.2-5.9c-2.2-5.9-2.2-9.7,0.2-20c1.5-6.4,2.2-13.9,2.7-30.1
			c0.6-20.7,0.5-21.7-1.3-22.2c-1-0.4-5-1.3-8.9-2.2c-4.1-0.9-11-3.8-17.1-7l-10.2-5.5l-1.2,3.2c-1.9,5.3-3.2,42-2.6,73.8
			c0.8,35.9,1.7,47,5.2,62.5c2.4,10.6,2.6,12.5,1.6,17.4c-2.1,9.9-6.9,14.1-16.1,14.1c-9.1,0-14.7-5.1-17.2-15.5
			c-0.7-3.5-1.2-26.2-1.4-73.5c-0.4-73.3-1.2-92-4.2-97.2c-1.5-2.6-8.2-6.3-41.8-23.2c-22-11.1-47.4-24.2-56.5-29.1
			s-25.7-13.4-37-18.8c-11.3-5.5-28.2-14.6-37.5-20.2c-21.4-12.8-24.4-14.3-38.6-19.4c-6.4-2.2-17.4-6.8-24.5-10.2
			c-45.2-21.4-57.3-24.9-75.1-21.7c-16.4,2.9-29.6,9.9-56.8,30.1c-7.9,5.9-24,16.9-35.7,24.3c-19.9,12.7-29.5,19.6-71.4,51.7
			c-8.9,6.8-26,19-38,27.1c-12,8.2-27.9,19.4-35.2,25c-23.4,17.7-27.5,20.5-35.2,23.8c-6.6,2.8-8.6,3.2-16.5,3.2
			c-10.3,0-13.8-1.3-18-6.9c-6.2-8.1-7.2-18.3-5.4-59.5c1.6-36.1,1.7-52,0.5-65.5c-1-12,0.3-18.8,6.4-31.1
			c7.3-14.9,10.4-17.5,73.9-59.8c58.2-38.9,115.6-78.9,126.6-88.4c13.6-11.6,26.7-25.1,28.8-29.4c3.8-8.1,1.2-15-6.9-18.4
			c-6-2.5-23-3.3-58.9-2.7c-22.3,0.4-41.2,0.1-55-0.7c-11.5-0.7-48.2-1.5-81.5-1.9l-60.5-0.6l-5.9-2.7c-8.5-4-15.3-9.4-18.2-14.3
			c-3.8-6.6-4-12.6-0.9-31.5c2.6-15.9,2.7-18.2,3-59c0.2-23.4,0.6-43.4,1.1-44.5c4.4-11.8,18.4-15.4,52.2-13.5
			c22.1,1.2,45.2,1.3,45.2,0.1c0-0.5-0.7-1.4-1.4-2.1c-2.6-2.1-13.2-19.1-19.9-32c-19.7-37.5-34.6-89.6-38.7-135
			c-2-22.6-0.9-72.8,2.1-92c0.5-3.6,2.2-9,3.7-12c2.3-4.8,3.5-5.9,8.7-8.5l6-3l58.5-0.1c37.8-0.1,60.1,0.2,63,0.8
			c6.6,1.6,11.4,4.3,14.8,8.3c5.9,7.2,6.5,15,3.1,40.2c-4,29.5-2.5,49.2,5.7,74.1c11.1,34,30.9,61.7,56.5,78.7
			c9.1,6.1,38.9,22.1,47.4,25.5c8.1,3.2,21.2,6.3,34,8.2c12.1,1.7,57.9,1.7,70.5,0c54.1-7.5,107.5-33.2,144.8-69.6
			c16.3-15.9,22.9-26.7,30.7-50c6.2-18.4,7.9-28.1,7.9-46.1c0-14.8-0.2-16.9-3.1-28.1c-5.5-21.3-5.5-27.8-0.1-34
			c6.5-7.4,17.5-10,38.3-9.1c6.6,0.2,15.2,0.1,19-0.3c11-1.1,22.2-1.1,32,0.1c5,0.6,18,1.4,29,1.8c17.5,0.6,20.5,1,24,2.8
			c16.8,8.8,22.4,31.1,21.2,84.3c-1.7,77.8-19.8,129.1-63.1,179c-12.5,14.3-18.3,21.7-17.5,22.4c0.2,0.1,8.7-0.1,18.9-0.6
			s26.2-0.8,35.5-0.6c15.6,0.3,17.4,0.5,22,2.8c6.7,3.2,13.1,9.3,14.6,13.8c0.8,2.5,0.9,6.3,0.3,13.1c-1.1,11.8-1,25.6,0.1,37.9
			c0.5,5.9,0.4,13.4-0.3,20.5c-0.6,6.2-1.5,19.7-2,30.2c-0.8,15.9-1.3,20-3.2,24.9c-4.3,11.3-13.2,18.1-28,21.2
			c-8.4,1.8-30.6,1.6-90.3-0.7c-27.8-1.1-35.7-1.1-52.5,0.2c-19.3,1.4-28.4,1.5-54.7,0.8c-10.8-0.3-14-0.1-18.9,1.5
			c-21.8,7.2-25.4,23.6-8.8,40.2c7.7,7.7,14.2,11.9,36,23.4c10.3,5.4,30.3,16.1,44.4,23.7c14.1,7.7,31.7,16.6,39,19.8
			c7.3,3.3,22.8,10.7,34.3,16.6c11.6,5.9,30.3,14.9,41.5,19.9c39.9,17.9,56.6,27,61.6,33.6c3.6,4.7,3.9,9.2,1.8,26.6
			C1646.7,511.39,1646.7,513.49,1648.2,531.79z"/>
	</g>
	<g>
	</g>
</g>
</svg>
