<?xml version="1.0" encoding="utf-8"?>
<!-- Generator: Adobe Illustrator 19.1.0, SVG Export Plug-In . SVG Version: 6.00 Build 0)  -->
<svg version="1.1" id="Layer_1" xmlns="http://www.w3.org/2000/svg" xmlns:xlink="http://www.w3.org/1999/xlink" x="0px" y="0px"
	 viewBox="0 0 500 462" style="enable-background:new 0 0 500 462;" xml:space="preserve">
<style type="text/css">
	.st0{fill:#080B0B;}
	.st1{fill:#FFFFFF;}
	.st2{fill:#141E1F;}
	.st3{fill:#FFCC25;}
	.st4{fill:#00011A;}
	.st5{fill:#F39A31;}
	.st6{fill:#283A3A;}
	.st7{fill:#F39A30;}
	.st8{fill:#000B1C;}
	.st9{fill:#000203;}
	.st10{fill:#070B0C;}
	.st11{fill:#0A0D0D;}
	.st12{fill:#A78F85;}
	.st13{fill:#AD948A;}
	.st14{fill:#9A8278;}
	.st15{fill:#13191A;}
	.st16{fill:#FF2360;}
	.st17{fill:#020505;}
	.st18{fill:#FFE926;}
	.st19{fill:#916328;}
	.st20{fill:#010405;}
	.st21{fill:#FFB734;}
	.st22{fill:#132525;}
	.st23{fill:#0B1F1F;}
	.st24{fill:#0C2020;}
	.st25{fill:#0D2121;}
	.st26{fill:#0A1F1F;}
	.st27{fill:#071D1D;}
	.st28{fill:#071C1C;}
	.st29{fill:#061B1B;}
	.st30{fill:#2A3C3C;}
	.st31{fill:#131D1F;}
	.st32{fill:#111B1C;}
	.st33{fill:#141D1F;}
	.st34{fill:#081D1D;}
	.st35{fill:#081C1C;}
	.st36{fill:#E0E0E0;}
	.st37{fill:#091E1E;}
	.st38{fill:#0D2020;}
	.st39{fill:#131D1E;}
	.st40{fill:#121D1F;}
	.st41{fill:#061C1B;}
	.st42{fill:#122525;}
	.st43{fill:#061919;}
	.st44{fill:#091D1D;}
	.st45{fill:#0F2222;}
	.st46{fill:#2B3E3E;}
	.st47{fill:#000303;}
</style>
<g>
	<g>
		<path class="st0" d="M195.3,455.1c-0.8,0-1.7,0-2.5,0c0.2-9.7,0.2-19.9,0-32l0.8-0.1c4.8-0.6,9.8-1.2,14.6-2.5l3.7-1l-3.8,0
			c-58.3,0.6-109.4,2.9-156.4,7.3c-2.4-1-4.7-2-7.1-3c-5.8-2.4-11.8-5-17.6-7.7c-5.4-5.9-10.8-12-16-18c-2.1-2.4-4.2-4.8-6.3-7.2
			c4.5-16.6,8.9-33.6,13.1-50l3.7-14.4c3.3-2.9,6.7-5.8,9.9-8.7c4.5-4,9.2-8.2,13.9-12.1c1.2-0.2,2.4-0.4,3.7-0.6
			c2-0.4,4.1-0.7,6.2-0.9l0.8-0.1l-0.5-0.7c-10.6-15.5-5.6-35.6-1.4-46.7c4.2,4.8,8.9,9.6,14.8,11.9l1.5,0.6l-0.9-1.3
			c-0.9-1.4-2.2-2.5-3.5-3.5c-0.9-0.8-1.9-1.6-2.7-2.5c-8.7-9-13.5-22.5-13.2-36.8c0.2-10.6,2.3-21.4,6.2-31.2
			c0.3,0.7,0.5,1.4,0.8,2.1c1.5,4.1,3,8.4,6.6,11.4l1.9,1.6l-1.2-2.2C59,196.3,57,184,58.9,172.1c1.3-10,5.1-20.1,11.1-30.3l1.9,3.9
			l1.1,2.3l-0.2-2.6c-0.8-12.5,0.9-23.2,4.9-31.8c2.8-5.8,7.1-10.3,12.3-12.7c1.7,7.1,4,12.5,7.2,17l1.2,1.6l-0.3-2
			c-1.4-10.5-2.4-24.1,2.7-36.3c4.6-11.6,14.9-20.5,27.1-23.4c-0.1,0.7-0.2,1.4-0.2,2.1c-0.5,3.8-1,7.7,0.8,11.2l0.7,1.3l0.3-1.5
			c2.1-12.4,9.3-23.8,19.2-30.6c1.4-0.2,2.2-1.1,3.1-2c0.6-0.6,1.1-1.2,1.8-1.5c5.1-2.9,9.9-4.9,14.6-6.1
			c-3.3,10.8-3.2,22.2,0.1,32.2l0.3,0.9l0.6-0.8c8.5-11.2,21.3-18.7,34.9-20.6l0.2,0l0.1-0.2c5.7-9.7,11.3-19.5,16.8-29l3.7-6.5
			l16.4,0l33.1,0c4.9,8.3,9.7,16.7,14.4,24.9c2,3.5,4,7,6.1,10.5l0.1,0.2l0.2,0c13.5,1.9,26.2,9.4,35,20.6l0.6,0.7l0.3-0.9
			c3.3-10.1,3.3-21.4,0.1-32c15.5,4,28.4,14.3,34.7,27.7c1.1,1.8,1.7,3.8,2.3,5.8c0.6,2.1,1.3,4.3,2.5,6.2l0.7,1.1l0.2-1.3
			c0.7-4.5,0.6-8.8-0.2-12.5c11.4,2.8,21.4,10.9,26.2,21.4c4.9,10.5,6,23.7,3.3,38.3l-0.3,1.8l1.2-1.3c4.2-4.7,5.9-10.9,7.5-17
			c10.8,4.5,15.9,16.3,17.1,25.9c0.8,3.5,0.7,7.1,0.6,10.5c0,2.5-0.1,5,0.2,7.5l0.2,2.1l0.8-2c0.3-0.7,0.5-1.3,0.7-2
			c0.1-0.4,0.3-0.7,0.4-1.1c13.3,20,15.6,45.3,5.8,64.6l-1.3,2.5l2.1-1.9c3.5-3.3,5.2-7.8,6.6-12.1c0.1-0.6,0.3-1.1,0.7-1.5
			c6.3,18.3,7.7,33.8,4.2,47.4c-2.5,10.4-8.8,19.8-17.5,26.4l-1.3,1l1.6-0.1c1.4-0.1,2.6-0.4,3.6-1.1c4.5-2.8,8.4-6.8,11.6-10.4
			c4.1,11,9,30.9-1.3,46.9l-0.5,0.7l0.9,0.1c6.9,0.4,13.9,1.1,20.6,1.7c4.7,0.4,9.5,0.9,14.3,1.3c3.1,11.3,6.1,22.7,8.9,33.9
			c2.3,9,4.8,18.4,7.2,27.6c-1.4,0.9-2.8,1.7-4.2,2.6c-3.1,1.9-6.2,3.8-9.3,5.8l-0.3,0.2l0.1,0.4c1.6,5.9,3,12,4.4,17.9
			c1.5,6.5,3.1,13.2,4.9,19.7c-9.4,2.3-19,4.3-28.3,6.2c-6.2,1.3-12.5,2.6-18.8,4c-1.4,0.4-2.8,0.6-4.5,0.6h0
			c-1.7,0-3.4-0.2-5.1-0.4c-1.1-0.1-2.2-0.2-3.4-0.3c-39.7-2.5-70.2-3.9-99-4.7c-7.1-0.4-14.4-0.5-21.5-0.6
			c-7.4-0.1-15-0.2-22.5-0.7l-4.6-0.3l4.4,1.3c3.8,1.1,7.9,1.9,13.2,2.8c-0.2,10.3-0.2,20.7,0,30.9c-16.3-0.4-33.1-3.8-49.9-10.1
			c-0.5-0.2-1.1-0.3-1.6-0.3c-0.7,0-1.4,0.2-2,0.5C227.6,451.6,211.1,455.1,195.3,455.1z"/>
		<path class="st1" d="M241.3,7.4l16.7,0l16.1,0c4.8,8.2,9.6,16.6,14.3,24.7c2,3.5,4,7,6,10.5l0.2,0.4l0.5,0.1
			c13.3,1.9,26,9.4,34.7,20.4l1.2,1.5l0.6-1.8c3.2-9.9,3.4-21,0.3-31.5c15,4.1,27.4,14.2,33.5,27.2l0,0l0,0c1,1.7,1.6,3.6,2.2,5.6
			c0.6,2.2,1.3,4.4,2.5,6.3l1.4,2.2l0.4-2.6c0.6-4.3,0.6-8.3,0-11.9c10.9,2.9,20.5,10.8,25.1,20.9c4.8,10.4,6,23.5,3.3,38l-0.7,3.5
			l2.4-2.7c4.1-4.6,6-10.9,7.5-16.6c10.2,4.6,15.1,16,16.2,25.2l0,0l0,0c0.7,3.4,0.7,6.9,0.6,10.4c0,2.5-0.1,5,0.2,7.6l0.4,4.3
			l1.5-4c0.3-0.7,0.5-1.4,0.7-2c0,0,0-0.1,0-0.1c12.7,19.8,14.8,44.4,5.3,63.3l-2.6,5l4.1-3.9c3.6-3.3,5.3-7.9,6.8-12.3l0-0.1l0-0.1
			c0-0.1,0-0.2,0.1-0.3c6,17.8,7.2,32.8,3.8,46.1c-2.5,10.3-8.7,19.6-17.3,26.1l-2.6,1.9l3.2-0.1c1.5-0.1,2.8-0.5,3.8-1.2
			c4.3-2.7,8-6.4,11.1-9.9c4,11,8.4,30.2-1.6,45.7l-0.9,1.4l1.7,0.1c6.9,0.4,13.9,1.1,20.6,1.7c4.6,0.4,9.3,0.9,13.9,1.2
			c3,11.1,6,22.5,8.8,33.5c2.3,8.9,4.7,18.2,7.1,27.2c-1.3,0.8-2.6,1.6-3.9,2.4c-3.1,1.9-6.2,3.8-9.3,5.8l-0.6,0.4l0.2,0.7
			c1.6,5.9,3,12,4.4,17.9c1.5,6.3,3.1,12.8,4.8,19.2c-9.2,2.2-18.7,4.2-27.8,6.1c-6.2,1.3-12.5,2.6-18.8,4l0,0l0,0
			c-1.3,0.4-2.7,0.5-4.4,0.5c-1.7,0-3.4-0.2-5.1-0.4c-1.1-0.1-2.2-0.2-3.4-0.3c-39.7-2.5-70.2-3.9-99-4.7
			c-7.2-0.4-14.5-0.5-21.5-0.6c-7.4-0.1-15-0.2-22.5-0.7l-9.2-0.6l8.8,2.5c3.7,1.1,7.7,1.9,12.8,2.7c-0.2,9.9-0.2,20,0,30
			c-16.1-0.5-32.7-3.8-49.2-10c-0.6-0.2-1.2-0.3-1.8-0.3c-0.7,0-1.5,0.2-2.2,0.5c-19.8,7.5-36.3,10.9-52,10.9c-0.7,0-1.3,0-2,0
			c0.1-9.4,0.1-19.3,0-31.1l0.3,0c4.8-0.6,9.8-1.2,14.7-2.5l7.4-2L208,419c-58.2,0.6-109.4,2.9-156.3,7.3c-2.3-1-4.7-2-7-3
			c-5.8-2.4-11.7-4.9-17.4-7.7c-5.4-5.9-10.8-12-16-17.9c-2.1-2.3-4.1-4.6-6.2-7c4.4-16.6,8.8-33.4,13-49.7
			c1.2-4.7,2.5-9.5,3.7-14.2c3.3-2.8,6.6-5.8,9.8-8.6c4.5-4,9.1-8.1,13.8-12c1.2-0.2,2.4-0.4,3.5-0.6c2-0.4,4.1-0.7,6.1-0.9l1.7-0.2
			l-0.9-1.4c-10.2-15-5.7-34.3-1.6-45.5c4.1,4.7,8.7,9.2,14.5,11.4l2.9,1.1l-1.7-2.6c-1-1.5-2.3-2.6-3.6-3.6c-1-0.8-1.8-1.6-2.6-2.4
			l0,0l0,0c-8.6-8.9-13.4-22.2-13.1-36.5c0.2-10.1,2.1-20.3,5.7-29.8c0.1,0.3,0.2,0.6,0.3,0.9c1.5,4.2,3.1,8.5,6.7,11.6l3.9,3.2
			l-2.3-4.5c-5.4-10.3-7.3-22.4-5.4-34.2c1.3-9.6,4.8-19.5,10.6-29.3c0.1,0.2,0.2,0.5,0.3,0.7c0.4,0.9,0.9,1.8,1.1,2.4l2.2,4.6
			l-0.3-5.1c-0.8-12.4,0.8-23,4.9-31.5c2.6-5.5,6.6-9.8,11.5-12.2c1.7,6.9,4,12.2,7.1,16.5l2.3,3.2l-0.5-4
			c-1.4-10.4-2.4-24,2.7-36.1c4.4-11.2,14.3-19.9,26.1-22.9c-0.1,0.5-0.1,0.9-0.2,1.4c-0.5,3.9-1,7.8,0.9,11.5l1.4,2.7l0.5-3
			c2.1-12.2,9.1-23.5,18.9-30.2c1.5-0.3,2.4-1.3,3.2-2.1c0.5-0.6,1.1-1.1,1.7-1.4l0,0l0,0c4.7-2.7,9.2-4.6,13.6-5.8
			c-3,10.6-2.9,21.8,0.3,31.6l0.6,1.8l1.1-1.5c8.5-11.1,21.1-18.5,34.6-20.4l0.5-0.1l0.2-0.4c5.6-9.6,11.3-19.5,16.8-29l3.6-6.3
			C230.6,7.4,235.9,7.4,241.3,7.4 M241.3,6.4c-5.6,0-11.1,0-16.7,0c-6.9,11.9-13.7,23.9-20.7,35.8c-13.9,1.9-26.8,9.7-35.2,20.8
			c-3.5-10.5-3.2-22.2,0.2-32.7c-5.5,1.3-10.7,3.6-15.6,6.4c-1.9,0.9-2.6,3.2-4.9,3.5c-10.3,7-17.4,18.7-19.5,31
			c-2.1-4.2-0.8-9.2-0.4-13.7c-12.6,2.7-23.4,11.9-28.2,23.8c-4.9,11.5-4.4,24.4-2.8,36.6c-3.7-5.1-5.8-11.2-7.3-17.4
			c-5.9,2.5-10.4,7.4-13.1,13.1c-4.7,9.9-5.6,21.2-5,32c-0.6-1.2-1.7-3.5-2.3-4.7c-5.8,9.5-10.2,20.1-11.7,31.2
			c-1.9,11.8,0,24.2,5.5,34.8c-4.3-3.6-5.6-9.4-7.6-14.4c-4.3,10.2-6.6,21.4-6.8,32.5c-0.3,13.4,3.9,27.4,13.4,37.2
			c1.8,2.2,4.5,3.6,6.1,6c-6.2-2.4-10.9-7.5-15.2-12.4c-5.9,15.1-8.5,33.8,1.1,47.9c-3.4,0.3-6.7,1.1-10,1.6
			c-8.1,6.8-15.9,14.1-24,21C15.4,347.8,9.8,369.5,4,391c7.5,8.5,15,17,22.6,25.4c8.1,3.9,16.6,7.3,24.9,10.9
			c52-4.8,104.3-6.8,156.5-7.3c-5.2,1.4-10.5,2-15.8,2.7c0.1,11,0.2,22,0,32.9c1,0,2,0,3,0c18,0,35.6-4.7,52.4-11
			c0.6-0.3,1.2-0.5,1.8-0.5c0.5,0,0.9,0.1,1.4,0.3c16.2,6.1,33.3,9.8,50.6,10.1c-0.2-10.6-0.2-21.2,0-31.9
			c-4.6-0.7-9.1-1.6-13.5-2.8c14.6,0.9,29.3,0.5,44,1.3c33,0.9,66,2.6,99,4.7c2.8,0.2,5.7,0.7,8.5,0.7c1.6,0,3.1-0.1,4.6-0.6
			c15.8-3.5,31.8-6.6,47.6-10.4c-3.5-12.6-6.1-25.4-9.5-38.1c4.6-2.9,9.2-5.7,13.8-8.6c-5.6-20.7-10.7-41.5-16.4-62.1
			c-11.8-0.9-23.5-2.3-35.3-3c9.3-14.4,7-32.9,1.1-48.1c-3.6,4.1-7.4,8.1-12,11c-1,0.7-2.2,1-3.3,1c8.7-6.5,15.1-16,17.7-26.7
			c4.1-16.1,1-32.9-4.4-48.3c-0.8,0.5-1.3,1.2-1.4,2.2c-1.4,4.3-3.1,8.7-6.5,11.9c10.6-21,6.6-47-6.4-66c-0.5,1.3-0.9,2.7-1.4,4
			c-0.6-6,0.5-12.1-0.8-18c-1.3-10.9-7.2-22.3-17.9-26.5c-1.6,6-3.3,12.6-7.6,17.3c2.4-12.8,2.2-26.6-3.4-38.6
			c-5.1-11-15.5-19.2-27.3-21.8c1,4.3,1,8.8,0.4,13.1c-2.3-3.6-2.5-8.2-4.7-12c-6.7-14.3-20.7-24.5-35.9-28.2
			c3.4,10.5,3.6,22.1,0.2,32.6c-8.7-11-21.4-18.8-35.4-20.8c-6.9-11.9-13.7-23.9-20.6-35.7C263.5,6.4,252.4,6.4,241.3,6.4L241.3,6.4
			z"/>
	</g>
	<g>
		<g>
			<path class="st1" d="M224.6,6.4c16.7,0,33.3,0,50,0c7,11.8,13.8,23.8,20.6,35.7c13.9,2,26.7,9.8,35.4,20.8
				c3.4-10.5,3.2-22.1-0.2-32.6c15.2,3.7,29.2,13.9,35.9,28.2c2.2,3.7,2.4,8.3,4.7,11.9c0.6-4.4,0.7-8.8-0.4-13.1
				c11.8,2.6,22.2,10.8,27.3,21.8c5.6,12,5.7,25.8,3.4,38.6c4.2-4.8,6-11.3,7.6-17.3c10.7,4.2,16.6,15.6,17.9,26.5
				c1.3,6,0.2,12.1,0.8,18c0.5-1.3,1-2.7,1.5-4c13,19,17,45,6.4,66c3.4-3.2,5.1-7.6,6.5-11.9c0.2-0.9,0.6-1.7,1.4-2.2
				c5.4,15.4,8.6,32.2,4.4,48.3c-2.6,10.6-9,20.1-17.7,26.7c1.2-0.1,2.3-0.4,3.3-1c4.6-2.9,8.4-6.9,12.1-11
				c5.9,15.2,8.2,33.7-1.1,48.1c11.8,0.7,23.5,2.1,35.3,3c5.6,20.7,10.8,41.5,16.4,62.1c-4.6,2.9-9.3,5.7-13.8,8.6
				c3.4,12.6,6,25.5,9.5,38.1c-15.8,3.8-31.8,6.8-47.6,10.4c-4.3,1.2-8.8,0.2-13.2-0.1c-33-2.1-66-3.8-99-4.7
				c-14.6-0.8-29.4-0.4-44-1.3c4.4,1.3,9,2.1,13.5,2.8c-0.2,10.6-0.2,21.2,0,31.9c-17.3-0.4-34.4-4.1-50.6-10.1
				c-1.1-0.4-2.2-0.3-3.2,0.2c-17.6,6.7-36.4,11.5-55.4,11c0.2-11,0.1-22,0-33c5.3-0.6,10.6-1.2,15.8-2.6
				c-52.2,0.5-104.5,2.5-156.5,7.3c-8.3-3.6-16.7-6.9-24.9-10.9C19,408,11.6,399.5,4,391c5.8-21.5,11.3-43.2,16.9-64.8
				c8.1-7,15.9-14.2,24-21c3.3-0.5,6.6-1.3,10-1.6c-9.6-14.1-7-32.8-1.1-47.9c4.3,4.9,9,10,15.2,12.4c-1.6-2.4-4.2-3.8-6.1-6
				c-9.5-9.8-13.6-23.8-13.4-37.2c0.2-11.1,2.5-22.2,6.8-32.5c2,5,3.3,10.8,7.6,14.4c-5.6-10.6-7.4-23-5.5-34.8
				c1.5-11.1,5.8-21.7,11.7-31.2c0.6,1.2,1.7,3.6,2.3,4.7c-0.7-10.8,0.3-22.1,5-32c2.7-5.7,7.2-10.7,13.1-13.1
				c1.4,6.1,3.6,12.2,7.3,17.4c-1.6-12.1-2.1-25,2.8-36.5c4.7-12,15.6-21.1,28.2-23.9c-0.4,4.5-1.7,9.5,0.4,13.7
				c2.1-12.3,9.1-24,19.5-31c2.2-0.3,3-2.6,4.9-3.5c4.9-2.8,10.1-5.1,15.6-6.4c-3.4,10.5-3.7,22.2-0.2,32.7
				c8.5-11.1,21.4-18.9,35.2-20.8C210.9,30.3,217.8,18.3,224.6,6.4z M206.6,47c-16.9,1.8-31.8,13-39.5,28c-0.8,1.4-1.3,3.2-2.7,4.3
				c1.3-13.8-5.2-27.2-2.3-40.9c-13,5.6-24.2,16.8-27.5,30.8c-2.7,11,1.1,22.4,7.1,31.6c-2.3,2.6-3.9,5.7-6.1,8.3
				c-3.1-15.5-14.2-29.4-12.1-45.8c-3.9,1.4-7.1,4.2-9.9,7.2c-9.8,11.1-15.1,26.7-11.9,41.3c2.1,11,8.4,20.6,15.9,28.7
				c-1.2,2.4-2.2,4.9-3.5,7.3c-2.3-7.8-8.9-13-14.2-18.8c-5.9-6.1-10.5-13.6-12.5-21.9c-3.8,2.7-6.1,7.1-7.4,11.4
				c-3.7,8.9-4.4,18.9-3.1,28.4c2.3,15.7,13.2,29,26.5,37c-0.6,2.3-1,4.6-1.3,7c-3.4-3.7-7.4-6.7-11.3-9.9
				c-8.8-7.2-18.1-15.2-21.8-26.4c-1.5,1.6-2,3.8-2.8,5.8c-5.4,15-4.5,32.5,3.4,46.5c6.2,11.2,17.3,19,29.6,22.3
				c0.2,1.8,0.3,3.7-1.1,5.1c-5.3-3.6-11.7-5.2-17.4-8c-9.7-4.2-18.6-10.7-23.9-20.1c-0.6,3.2-1.8,6.4-1.9,9.7
				c-1.4,8.6-0.7,17.7,2.3,25.8c3.1,10.8,10.4,20.3,19.6,26.8c2.3,1.7,3.2,4.6,4.7,6.8c-2-0.2-4-0.7-6-0.5c-1.2-0.9-2.6-1.1-4-0.6
				l0.1-0.5c-6-1.3-11.8-4.1-16.2-8.5c-4.9,14.7-0.9,31.5,9.1,43.1c-5.9,0.5-11.7,1-17.6,1.5c-6.6,5.8-13.1,11.6-19.7,17.4
				c-1,0.9-2.1,1.9-2.2,3.3c-5.1,19.6-10.2,39.2-15.4,58.9c6.5,7,12.6,14.5,19.2,21.3c8.2,3.6,16.4,7.1,24.8,10.2
				c23.5-2,47-2.9,70.5-4.5l-0.6-0.3c6.9,0.4,14,0,20.9-0.6c0.7,0.1,2,0.2,2.7,0.3l-0.5-0.4c9.2-0.3,18.5-0.2,27.8-0.8
				c11.1-0.1,22.1-0.5,33.2-0.5c4,3.3,8.4,6.2,12.7,9.1c-0.7,0.1-2,0.5-2.7,0.6l0.1,0.2c-6.6,1-13.3,2.1-19.9,3
				c-0.3,7.1,0.2,14.2-0.2,21.2c5.2-0.2,10.4-0.7,15.5-2c11.5-1.7,22.6-5.5,33.4-9.7c15.5,6.3,31.9,10.7,48.7,11.7
				c-0.1-7.2,0.1-14.4-0.1-21.6c-7.6-0.7-15-2-22.5-3.5c4.2-3.1,8.7-5.9,12.8-9.2c11.1,0.1,22.3,0.4,33.4,0.5
				c9.2,0.7,18.5,0.4,27.7,1c0.6,0,1.8,0,2.3,0c6.8,0.6,13.7,0.7,20.5,0.8c7.7,1.1,15.5,0.6,23.2,1.4c15.1,0.8,30.1,1.7,45.2,2.9
				c2.5,0.5,4.9-0.4,7.4-0.9c13.2-2.9,26.5-5.6,39.7-8.5c-2.9-12.2-5.9-24.5-8.9-36.7c4.6-2.8,9.1-5.7,13.7-8.5
				c-4.9-18.3-9.4-36.6-14.5-54.8c-13.5-1.2-27.1-2.5-40.6-3.4c9.8-11.5,13.6-28.1,8.8-42.6c-7,7.1-17.2,9.3-26.8,10
				c1.7-2.5,2.8-5.8,5.6-7.4c9.7-6.3,16.7-16.4,20.1-27.3c3.6-11.3,3-23.5-0.3-34.8c-3.7,7.3-10.1,12.9-17.2,16.9
				c-8,4.8-17.1,7-25.1,11.8c-0.1-1.8-0.1-3.7,0-5.5c14.6-3.8,27.3-14.5,32.6-28.7c5.6-14.7,5.1-32-2.3-46
				c-2.3,7.4-7.4,13.5-12.8,18.8c-6.4,6.3-14.1,11.2-20.4,17.6c-0.3-2.3-0.6-4.7-1.2-6.9c8.9-5.6,16.9-13,21.7-22.5
				c6.3-12,6.9-26.5,3.1-39.4c-1.8-5.5-4.1-11.3-8.8-15c-2,8.4-6.6,15.9-12.6,22.1c-5.2,5.8-11.9,11-14.1,18.8
				c-1.4-2.4-2.2-5.1-3.4-7.5c7.5-7.9,13.7-17.5,15.8-28.3c2.9-13.4-1.2-27.7-9.4-38.5c-3.3-4.3-7.2-8.4-12.4-10.4
				c1,6.4-0.6,12.8-2.4,18.9c-2.3,6.2-4.9,12.3-7.3,18.5c-1.1,2.8-1.8,5.6-2.6,8.4c-1.9-2.8-3.8-5.7-5.9-8.4
				c6.2-9.5,9.9-21.4,6.8-32.6c-3.7-13.5-14.6-24.2-27.2-29.8c2.2,11-1.6,22-2.1,32.9c-0.9,1.9-0.9,4.6,0,6.5c0,0.6,0.1,1.8,0.1,2.4
				c-2.7-3.7-4.2-8-7.1-11.6c-8.2-11.9-21.6-20.2-36.1-21.5c-6.9-11.7-13.7-23.4-20.3-35.2c-14.9-0.2-29.9,0.1-44.8,0
				C220.1,23.5,213.4,35.3,206.6,47z"/>
		</g>
		<path class="st1" d="M159.5,117.1c1.5-2,3-3.9,4.5-5.9c1.4,0.9,2.8,1.8,4.1,2.7c-1,1.5-1.9,2.9-2.9,4.4
			C163.4,117.7,161.5,117.4,159.5,117.1z"/>
		<path class="st1" d="M330.7,114.1c1.5-0.9,3-1.9,4.5-2.9c1.5,2,3.1,3.9,4.6,5.9c-2.2,0.3-4.4,0.8-6.6,1.3
			C332.4,116.9,331.5,115.5,330.7,114.1z"/>
		<path class="st1" d="M142.3,145.6c2.2,0.7,4.3,1.4,6.4,2.1c-0.7,1.1-1.4,2.1-2.2,3.2c-2.2,0-4.5,0.1-6.7,0.1
			C140.7,149.2,141.5,147.4,142.3,145.6z"/>
		<path class="st1" d="M350,147.9c2.4-0.7,4.7-1.5,7-2.3c0.9,1.9,1.7,3.7,2.6,5.6c-2.5-0.2-5-0.3-7.5-0.3
			C351.4,149.9,350.7,148.9,350,147.9z"/>
		<path class="st1" d="M209.9,189.9c7.7-9,17.7-16.5,29.4-19c0.3,0.3,0.9,0.9,1.2,1.3c0.4,0.4,1.2,1.3,1.6,1.7
			c5.7-0.5,11.4-0.9,17.2-0.4c0.2,0.1,0.7,0.3,0.9,0.4c3.5,0.5,7-0.1,10.5-0.3c1.1,0.1,2.1,0.4,3.1,0.7l-1.2,0
			c-10,0.4-20.1-0.4-30,1.6c-8.2,1.4-16.2,3.9-23.4,7.9C215.7,185.5,213,188,209.9,189.9z"/>
		<path class="st1" d="M269.2,187.8c3.6,1.4,7.1,3.1,10.3,5.3c-3.9,11-14.6,18.1-25.4,21.1c-13.9,2.6-28.8,0.1-40.8-7.4
			c-1.2-0.9-2.6-2-3.2-3.4c7.1-7.2,16.2-12.8,26.2-15c0.6,3.8-1.1,7.3-2,11c-1.8,0.3-3,1.7-4.4,2.7c3.6,4,8.5,6.9,13.9,7.5
			c8.9,1.4,18.2-3.5,22.5-11.4C268.1,195.1,268.7,191.4,269.2,187.8z"/>
		<path class="st1" d="M219,218.8c6.7,0,13.9-0.3,19.9,3C232.1,222.8,225.1,221.9,219,218.8z"/>
		<g>
			<path class="st1" d="M276.9,313.7c16.2,0.4,32.5,0.7,48.7,1.1c1.9,0.1,3.8,0.2,5.7,0.4c0.2,2.9,0.5,5.8,0.9,8.6
				c0.2,1.9,0.3,3.8,0.5,5.7c0.4,4.4,0.9,8.9,1.3,13.3c-1.2,0-2.4,0-3.5,0c-4.8-0.1-9.6-0.3-14.4-0.3h-0.9c-0.4-3.1-0.5-6.3-0.6-9.5
				c-4.2-0.3-8.5-0.2-12.7-0.4c0.5,4.2,0.7,8.4,0.9,12.5c4.3,0.1,8.5,0.1,12.8,0.3c0.2,4.1,0.4,8.1,0.9,12.1
				c-4.3-0.1-8.6-0.1-13-0.3c0.3,4.2,0.4,8.3,0.7,12.5c4.4,0.3,8.8,0.2,13.2,0.4c-0.4-3.1-0.6-6.3-0.8-9.4c2.4,0.2,4.8,0.3,7.1,0.3
				c4,0,8,0.3,12.1,0.2c0.2,1.1,0.5,2.3,0.6,3.4c0.1,1.9,0.2,3.8,0.4,5.7c0.6,6.3,1.1,12.6,1.9,18.8c-20-0.7-40.1-1-60.1-1.4
				c0-6.1-0.1-12.3-0.5-18.4c2.2,0,4.4,0,6.7,0.1c-0.4-12.4-1.1-24.7-1.3-37.1c-2.2,0-4.3,0-6.5-0.2c0-6.2-0.2-12.4-0.4-18.6
				L276.9,313.7z M286.6,351.6c-0.1,6.9,0.3,13.7,0.6,20.6c-2.1,0-4.2-0.1-6.4-0.1c-0.1,4.4,0,8.9,0.1,13.3
				c18.2,0.5,36.5,1,54.8,1.3c-0.2-7.5-1.4-15-2-22.5c-4.7-0.8-9.4-0.5-14.1-0.6c0,3.1,0.1,6.1,0.2,9.2c-5.9-0.2-11.9-0.6-17.9-0.2
				c-0.6-5.8-0.7-11.7-1-17.5c4.3,0,8.6,0.6,12.9,0c-0.2-1-0.5-2-0.7-3.1C304.3,351.4,295.4,351.7,286.6,351.6z"/>
		</g>
		<g>
			<path class="st1" d="M219.8,326.9c3.9-4.6,8.4-9,13.1-13c12.5-0.3,25-0.1,37.5-0.1c0.2,8.2,0.1,16.4,0.5,24.7
				c-6.3,0.1-12.6,0.1-18.9,0c0.1-2.1,0.1-4.2,0.1-6.2c-4.6,0.1-9.3,0.1-13.9,0.1c0,2.3-0.1,4.6-0.2,6.9c11,3.3,21.9,6.7,32.9,9.9
				c0.1,0.6,0.2,1.8,0.2,2.4c0.3,8,0.2,16.1,0.5,24.2c-1.6,1.5-3.1,2.9-4.6,4.4c-2.9,2.6-5.7,5.2-8.5,7.9c-13.8,0-27.5,0.1-41.3,0.3
				c0.3-8.2,0.6-16.4,0.9-24.6c6.5-0.1,13-0.2,19.5-0.1c-0.1,2-0.2,4-0.3,6.1c4.9-0.1,9.7-0.1,14.6-0.1c0-2.2,0-4.5,0-6.7
				c-11.1-3.4-22.2-6.6-33.4-9.7C219,344.3,219.5,335.6,219.8,326.9z M223.6,351.3c0.8,0.5,1.6,1,2.5,1.4c9.4,2.5,18.9,5.1,28.2,8.2
				c0.9,3.5,0.2,7.2,0.3,10.8c-6.5,0.4-12.9,0.2-19.4,0.4c0-2.1,0-4.1-0.1-6.2c-4.8,0-9.5-0.2-14.3,0c-0.3,6.5-0.5,13.1-0.9,19.6
				c12.7-0.1,25.4,0.4,38.1-0.3c3.2-2.4,5.9-5.5,8.9-8.2c1-1.1,2.6-2.2,2.5-3.9c-0.1-7.2-0.6-14.4-0.7-21.7
				C253.6,351.3,238.6,351.3,223.6,351.3z"/>
		</g>
		<g>
			<path class="st1" d="M157.3,315.7c5.4-0.1,10.7-0.5,16-0.5c9.5-0.2,19.1-0.6,28.6-0.8c0.5,0.5,1.4,1.4,1.8,1.8
				c3.2,3.4,6.4,6.9,9.8,10.1c0,3.2-0.1,6.4-0.4,9.6c-0.2,1.9-0.3,3.8-0.4,5.8c-0.2,4.7-0.3,9.4-0.6,14.1c-0.2,2.3-0.4,4.6-0.4,6.9
				c-0.1,4.3-0.5,8.6-0.3,12.9c-4.5,4.5-9.7,8.4-14,13.1c-3.9,0-7.8,0.2-11.7,0.3c-3.1-0.1-6.1,0.1-9.2,0.3
				c-7.3,0.1-14.6,0.5-21.9,0.7c-2.4,0-4.9,0.1-7.3,0.3c0.7-6.2,1.5-12.4,2.2-18.6c2.2-0.1,4.4-0.2,6.6-0.3
				c1.2-12.5,2.8-24.9,4.1-37.4c-2.1,0.2-4.2,0.4-6.4,0.5c1-6.2,1.4-12.6,2.4-18.8L157.3,315.7z M178.8,333.6
				c-0.1,3.2-0.3,6.3-0.6,9.5l-0.4,0.3c0.1,0.5,0.2,1.4,0.2,1.9c-0.5,2.9-0.6,5.9-0.8,8.8l-0.5,0.3c0.1,0.5,0.2,1.4,0.2,1.9
				c-0.5,3-0.6,6-0.8,9.1l-0.3,0.3c-0.1,0.7-0.2,2-0.3,2.7c0,0.6-0.1,1.7-0.1,2.3c5.4-0.3,10.8-0.3,16.2-0.4
				c0.5-4.6,0.8-9.3,0.9-13.9c1-5.5,0.9-11.1,1.4-16.7c0.2-2.2,0.4-4.4,0.5-6.6C189.3,333.4,184.1,333.3,178.8,333.6z M195.8,351.8
				c-0.4,6.7-1.2,13.4-1.3,20.1c-7,1.5-14.4,0.9-21.5,1.1c0.4-7,1.3-13.9,1.8-20.8c-4.7,0-9.3,0-14,0.5c-1.1,6.9-1.7,13.8-2.4,20.7
				c-2.2,0.3-4.4,0.6-6.5,0.7c-0.7,4.3-1.2,8.6-1.7,13c5.2,0.5,10.5,0,15.8-0.1c9.3-0.8,18.7-0.5,28.1-0.8c3,0.3,4.9-2.5,6.9-4.2
				c2.5-2.5,5.5-4.4,7.6-7.2c0.9-7.6,0.8-15.3,1.4-23C205.2,351.3,200.5,351.6,195.8,351.8z"/>
		</g>
		<g>
			<path class="st1" d="M337.5,315.3c6.9,0.6,14,0.2,20.8,1.2c6.8,10.9,13.4,21.9,20.3,32.7c0.4-2.8-0.7-5.6-1-8.3
				c-1.1-8-2.5-15.9-3.5-23.9c8.1,0.6,16.2,1,24.3,1.5c1,6.2,2.2,12.4,3.3,18.6c-2.1-0.2-4.2-0.3-6.3-0.5c1,5.2,1.8,10.5,2.9,15.8
				c0.2,1.1,0.3,2.1,0.5,3.2c1,6.2,2.1,12.3,3.1,18.5c2.2,0.1,4.4,0.2,6.6,0.4c1,6.2,2.3,12.3,3.2,18.6c-7.5-0.5-15-1.1-22.4-1.3
				c-5.9-8.8-11.7-17.7-17.4-26.6c-1.5-2.3-2.7-4.9-4.6-6.9c1.9,10.8,2.9,21.7,4.7,32.5c-8.9-0.2-17.8-0.8-26.7-1
				c-0.5-4.3-0.7-8.7-1.5-13c-0.2-1.7-0.3-3.4-0.7-5.1c2.2-0.4,4.5-0.3,6.8-0.2c-1.5-12.4-2.8-24.8-4.3-37.2
				c-2.1-0.1-4.1-0.2-6.2-0.3C338.7,327.6,338.2,321.5,337.5,315.3z M350.3,353.3c0.7,6.8,1.5,13.6,2.4,20.3
				c-2.2,0.1-4.4,0.2-6.6,0.3c0.4,4.4,0.7,8.9,1.6,13.3c7.1,0,14.1,0.8,21.2,0.8c-1.1-9.9-2.9-19.8-3.8-29.8c1.5-0.5,3-1,4.6-1.4
				C376,367,382.6,377,389.1,387c0.8,0.9,1.4,2.4,2.9,2.3c5.6,0.4,11.2,0.9,16.9,0.8c-0.9-4.4-1.5-8.9-2.7-13.3
				c-2.1-0.2-4.2-0.4-6.2-0.7c-1.7-6.9-2.3-14-3.9-20.9C380.9,354.4,365.6,353.4,350.3,353.3z"/>
		</g>
		<g>
			<path class="st1" d="M116.5,317.8c4.3-0.2,8.6-0.5,12.9-0.7c2.8-0.1,5.7-0.3,8.5-0.4c3.5,4,7.1,8,10.7,12
				c-2.3,16.4-4.3,32.8-6.3,49.2c-4.9,4.3-9.7,8.7-14.7,12.8c-6.2,1.1-12.7,0.7-19,1.5c-3.8,0.2-7.6,0.4-11.3,0.6
				c-2.4-2.6-4.8-5.1-7.1-7.6c-1.2-1.4-2.5-2.8-3.7-4.1c3.5-16.5,6.1-33.2,9.8-49.6c4.1-4,8.5-7.7,12.7-11.7
				C110.7,317.5,113.9,318.2,116.5,317.8z M113.4,336.5c-0.4,1.2-0.5,2.5-0.3,3.7c-0.9,1.2-1.1,2.5-0.6,4l-0.5-0.1
				c-1.2,8.6-2.9,17.1-4.2,25.6c-0.2,1-0.4,3.1-0.6,4.1c3.5-0.3,7-0.4,10.4-0.7c2,0.3,4,0,5.9-0.2c1.7-12.4,3.7-24.8,5.6-37.2
				C123.9,335.7,118.7,336.2,113.4,336.5z M128.9,353.8c-1.2,7-2,14.1-3.2,21.1c-7,0.8-14.1,1-21.1,1.5c0.3-7.3,2.4-14.4,3.2-21.6
				c-4.7,0.1-9.3,0.2-13.9,0.9c-1.5,8.3-3.4,16.6-4.6,24.9c3,3.1,5.7,6.5,9,9.3c4.6,0.5,9.2-0.4,13.8-0.5c4.8-0.5,9.7,0,14.4-1
				c3.5-2.4,6.4-5.6,9.8-8.2c1.5-1.5,3.9-2.8,3.9-5.2c0.9-7.2,2.1-14.4,2.6-21.6C138.1,353.3,133.5,353.6,128.9,353.8z"/>
		</g>
		<g>
			<path class="st1" d="M404.5,318.8c1.4,0.1,2.8,0.2,4.2,0.3c3.8,0.2,7.6,0.5,11.4,0.8c0.6,0,1.8,0.1,2.4,0.2
				c3.3,0.3,6.6,0.6,9.9,0.8c1,0.1,2.1,0.2,3.1,0.3c2.7,0.3,5.3,0.5,8,0.6c5.3,0.7,10.6,1,15.9,1.5c1.6,0.2,3.2,0.3,4.9,0.4l1,0
				c2.5,9.4,4.8,18.8,7.5,28.2c-3.8-0.3-7.5-0.5-11.2-1c-1.4-0.2-2.8-0.3-4.2,0c-1.1-3.1-1.7-6.4-2.5-9.6c-2.1-0.3-4.2-0.5-6.4-0.6
				c2.1,8.2,3.9,16.5,5.9,24.7c1,4.2,2.1,8.5,2.9,12.8c2.1,0.2,4.2,0.5,6.3,0.4c1.9,6.2,3.1,12.6,4.8,18.9c-1.7-0.1-3.4-0.3-5.1-0.4
				c-2.7-0.2-5.3-0.5-8-0.6c-1.3-0.1-2.6-0.2-4-0.3c-3.3-0.3-6.7-0.5-10-0.8c-2.1-0.2-4.1-0.4-6.2-0.5c-1.2-6.2-2.6-12.4-3.8-18.6
				c2.2,0.1,4.4,0.3,6.5,0.4c-2.8-12.5-5.3-25-8.1-37.4c-2.1-0.2-4.2-0.4-6.3-0.5c0.7,3.1,1.3,6.2,2.1,9.3c-0.3,0-0.9,0-1.2,0
				c-3.6-0.2-7.2-0.4-10.8-0.6c-1.3-0.2-2.6-0.3-3.9-0.5C408,337.4,406.3,328.1,404.5,318.8z M440.9,378.9c-2.1,0-4.2,0-6.2,0
				c0.6,4.4,1.6,8.8,2.5,13.2c9.3,1.1,18.6,1.9,27.9,2.2c-1-4.4-2-8.8-3.1-13.1c-2.2-0.4-4.5-0.8-6.7-1.2
				c-1.7-7.1-3.2-14.2-5.1-21.2c-4.6-0.4-9.1-0.6-13.7-1.1C437.6,364.8,439.5,371.8,440.9,378.9z"/>
		</g>
		<g>
			<path class="st1" d="M73.6,320.8c3.3-0.2,6.5-0.5,9.8-0.7c3-0.2,6-0.4,9-0.7c-2.1,9.4-3.7,18.9-5.8,28.3c-1.7-0.2-3.3-0.1-5,0.1
				c-0.8,0.1-2.5,0.3-3.3,0.4c-3.2,0.2-6.4,0.4-9.6,0.6l-0.9,0.1c0.8-3.1,1.5-6.3,2.2-9.4c-5.3,0.4-10.5,0.9-15.8,1.4
				c-2.8,12.6-6,25-8.9,37.6c2.3-0.2,4.6-0.5,6.9-0.8c2.4-0.2,4.8-0.4,7.2-0.6c0.6,0,1.7-0.1,2.3-0.2c0.6-3.2,1.3-6.3,2.2-9.4
				c-3.3,0.3-6.6,0.6-9.9,0.9c1.2-4.5,2.3-9.1,3.2-13.7c9.6-0.8,19.1-1.6,28.7-2.2c-3.1,13.8-5.5,27.8-8.4,41.6
				c-4.3,0.3-8.6,0.6-12.9,1.1c-3.2,0.2-6.5,0.5-9.7,0.7c-6.7,0.5-13.5,0.9-20.2,1.8c-3.7-3.6-6.9-7.6-10.4-11.5
				c4.4-16.6,8.8-33.2,13-49.8c5.4-4.6,10.4-9.7,16.1-13.9c1.4-0.1,2.8-0.2,4.3-0.3c1.6-0.2,3.1-0.3,4.7-0.5
				c2.7-0.2,5.4-0.4,8.1-0.6C71.4,321,72.5,320.9,73.6,320.8z M59,357.9c-0.7,2.5-1.3,5.1-1.7,7.7c3.2-0.2,6.3-0.4,9.4-0.5
				c-0.9,4.6-2.1,9.2-3.1,13.9c-7.1,1.3-14.4,1.4-21.5,2c1.6-7.4,3.8-14.8,5.2-22.2c-4.5,0.4-9,0.8-13.5,1.1
				c-2.1,6.5-3.4,13.3-5.4,19.9c-0.5,2-1.3,4-1.3,6.1c2.4,3.3,5.3,6.2,8.1,9.2c13.3-0.9,26.6-2.3,39.9-3.1
				c2.7-11.8,5.1-23.7,7.1-35.7C74.5,356.7,66.7,357.3,59,357.9z"/>
		</g>
	</g>
	<g>
		<g>
			<path class="st2" d="M206.6,47c6.8-11.7,13.5-23.5,20.4-35.2c14.9,0.1,29.9-0.1,44.8,0c6.6,11.8,13.5,23.5,20.3,35.2
				c14.5,1.2,28,9.5,36.1,21.5c2.8,3.6,4.4,7.9,7.1,11.6c0-0.6-0.1-1.8-0.1-2.4c1.4-2,1.1-4.4,0-6.5c0.5-10.9,4.3-21.9,2.1-32.9
				c12.6,5.5,23.6,16.2,27.2,29.8c3.1,11.2-0.6,23.2-6.8,32.6c2.1,2.7,3.9,5.6,5.9,8.4c0.8-2.8,1.5-5.7,2.6-8.4c3,0.3,2.8-3.8,4-5.7
				c1.1-4.2,4.9-8.3,3.3-12.8c1.8-6.1,3.4-12.5,2.4-18.9c5.2,2,9.1,6.1,12.4,10.4c8.2,10.8,12.3,25.1,9.4,38.5
				c-2.1,10.8-8.3,20.4-15.8,28.3c1.2,2.5,2,5.1,3.4,7.5c2.2-7.8,8.9-13,14.1-18.8c6-6.1,10.7-13.7,12.6-22.1c4.7,3.7,7,9.4,8.8,15
				c3.8,12.9,3.2,27.4-3.1,39.4c-4.8,9.5-12.8,16.9-21.7,22.5c0.5,2.3,0.9,4.6,1.2,6.9c6.3-6.4,13.9-11.3,20.4-17.6
				c5.4-5.3,10.5-11.4,12.8-18.8c7.4,14,8,31.3,2.3,46c-5.3,14.2-18,24.9-32.6,28.7c-0.1,1.8-0.2,3.7,0,5.5c8-4.7,17.1-7,25.1-11.8
				c7.1-3.9,13.4-9.6,17.2-16.9c3.3,11.3,3.9,23.5,0.3,34.8c-3.4,11-10.4,21-20.1,27.3c-2.8,1.6-3.9,4.9-5.6,7.4
				c9.6-0.8,19.8-2.9,26.8-10c4.8,14.5,1.1,31.1-8.8,42.6c13.6,1,27.1,2.3,40.6,3.4c5.1,18.2,9.6,36.6,14.5,54.8
				c-4.6,2.8-9.2,5.7-13.7,8.5c3.1,12.2,6,24.5,8.9,36.7c-13.2,2.9-26.5,5.7-39.7,8.5c-2.4,0.5-4.9,1.3-7.4,0.9
				c-15-1.2-30.1-2.1-45.2-2.9c-7.7-0.8-15.5-0.3-23.2-1.4c0.6-0.3,1.8-0.9,2.4-1.2c-7.6-0.5-15.5-1.6-22.9,0.4c-0.6,0-1.8,0-2.3,0
				c0.7-0.6,1.4-1.2,2.1-1.8c-7.6-0.5-15.3-0.3-23-0.5c-2.4-0.2-4.6,0.5-6.8,1.3c-11.1-0.1-22.2-0.4-33.4-0.5
				c-4.1,3.3-8.5,6.1-12.8,9.2c7.4,1.5,14.9,2.8,22.5,3.5c0.1,7.2,0,14.4,0.1,21.6c-16.8-1-33.2-5.5-48.7-11.7
				c-10.8,4.2-21.9,8-33.4,9.7c-4.5-1.1-9,0-13.5,0.3c0.2-6.1-1-12.5,0.6-18.3c6.1-1.2,12.3-1.8,18.4-3c-0.2-0.3-0.6-1-0.8-1.3
				l-0.1-0.2c0.7-0.2,2-0.5,2.7-0.6c-4.3-2.9-8.7-5.8-12.7-9.1c-11.1,0-22.2,0.4-33.2,0.5c-4.8-1.7-9.8-1-14.8-1
				c-5,0-9.9,0.1-14.9,0.3c0.5,0.4,1.5,1.2,1.9,1.5l0.5,0.4c-0.7-0.1-2-0.2-2.7-0.3c-7.5-1.9-15.3-0.9-22.9-0.4c0.5,0.2,1.5,0.8,2,1
				l0.6,0.3c-23.5,1.6-47,2.5-70.5,4.5c-8.3-3.1-16.6-6.6-24.8-10.2c-6.7-6.9-12.7-14.3-19.2-21.3c5.2-19.6,10.3-39.2,15.4-58.9
				c0.2-1.4,1.2-2.4,2.2-3.3c6.6-5.8,13.2-11.6,19.7-17.4c5.9-0.5,11.7-1,17.6-1.5c-10-11.6-13.9-28.4-9.1-43.1
				c4.4,4.4,10.1,7.2,16.2,8.5l-0.1,0.5c-0.1,0.3-0.2,0.9-0.3,1.1c1.4,0.7,2.9,0,4.3-0.6c2-0.2,4,0.4,6,0.5
				c-1.6-2.3-2.5-5.1-4.7-6.8c-9.2-6.5-16.5-16.1-19.6-26.8c0.5-3,0-6-0.8-9c-1.4-5.5,0.2-11.4-1.6-16.9c0.1-3.3,1.3-6.5,1.9-9.7
				c5.3,9.3,14.2,15.8,23.9,20.1c5.7,2.8,12.1,4.4,17.4,8c1.4-1.4,1.2-3.3,1.1-5.1C87.2,226.1,76,218.2,69.8,207
				c-7.9-14-8.8-31.5-3.4-46.5c0.8-2,1.3-4.2,2.8-5.8c3.6,11.2,12.9,19.2,21.8,26.4c3.9,3.1,7.9,6.2,11.3,9.9c0.3-2.4,0.7-4.7,1.3-7
				C90.2,176,79.3,162.7,77,147c2-3.7,1.1-8,1.3-12c-0.1-5.5,2.4-10.8,1.8-16.3c1.3-4.3,3.7-8.7,7.4-11.4
				c1.9,8.3,6.6,15.8,12.5,21.9c5.2,5.8,11.9,11,14.2,18.8c1.3-2.4,2.3-4.9,3.5-7.3c-7.5-8.1-13.8-17.7-15.9-28.7
				c-3.1-14.7,2.1-30.3,11.9-41.3c2.7-3.1,6-5.8,9.9-7.2c-2.1,16.5,9,30.3,12.1,45.8c2.2-2.6,3.8-5.7,6.1-8.3
				c-6.1-9.2-9.8-20.7-7.1-31.6c3.3-14,14.5-25.2,27.5-30.8c-2.9,13.8,3.6,27.2,2.3,40.9c1.4-1.1,1.8-2.8,2.7-4.3
				C174.8,60,189.7,48.8,206.6,47z M266.5,24.6c-25.7,44.6-51.5,89.2-77.2,133.8c-8.7,15.3-17.8,30.4-26.4,45.7
				c6.6-7.6,11.3-16.7,18.1-24.1c-3.9,8.1-8.1,15.9-11.9,24c4-4.4,6.9-9.6,10.6-14.3c3-3.9,5.3-8.3,8.9-11.8
				c-4,8.2-8.4,16.2-12.2,24.5c2.3-2.7,4.3-5.7,6.4-8.5l-0.6,0.8c1.6-0.4,3-0.2,3.4,1.7c-0.6,1.2-1.1,2.4-1.6,3.7
				c6.6-8.1,12.1-17.2,18.7-25.4c-2.2,5.8-5.7,11.1-8.2,16.7c6.9-5.3,10.6-13.4,14.9-20.7c9.5-16.5,19-33,28.6-49.5
				c0.7-1.2,1.3-2.5,1.8-3.8c6.3-10.1,12.3-20.6,18.1-31.1c3-4.5,5.7-9.3,8.2-14c0.7-5.5,0.2-11.1,1-16.6c2.4,6.9,3.3,14.2,4.1,21.4
				c0.3-0.4,1-1.1,1.4-1.5c0.8,3.4,0.7,7,2,10.2c25.5,44.2,51,88.3,76.5,132.5c8.2,14.2,16.4,28.5,24.6,42.8
				c-3.3-10.2-9-19.6-12.9-29.6c5.5,6.8,9.6,14.8,15,21.7c-3.8-9.9-9.1-19.2-12.8-29.1c5.4,7.2,9.5,15.4,15.3,22.3
				c-1.1-2.5-2.3-5-3.4-7.6l0.4,0.8c0.6-1.6,1.2-3.2,1.7-4.8c1,1.6,2.2,3,3.4,4.4c-4.3-9.8-8.9-19.4-13.2-29.2
				c4.2,4.5,6.7,10.4,10.7,15.1c-0.9-4.8-2.8-9.5-5.5-13.7c-13.1-22.6-26.1-45.2-39.1-67.7c-1.5-2.6-2.9-5.3-4.8-7.6
				c-3.6-7.4-8.1-14.4-12.1-21.6C301.1,84.6,284,54.5,266.5,24.6z M343.6,51.7c0.9,7.8-0.1,15.6-1.5,23.2
				c-1.1,5.2-0.7,10.6-0.8,15.8c-4.6-3.3-8.3-7.7-12.5-11.5c-9.1-9.1-18-20.3-31.3-22.9c2.2,3.8,4.1,7.9,6.8,11.4
				c3.2,1.5,6.9,2.1,10,4c4.2,2.7,7.9,6,11.7,9.2c38.3,33.2,61.8,82.5,64.3,133.1c-0.2,3.9,2.1,7.3,4.4,10.1c0-2.5-0.1-5-0.1-7.6
				c5.3-2.5,10.9-4.7,15.5-8.5c9-7.1,13.9-18.1,15.8-29.2c-2.8,3.1-5.1,6.8-8.3,9.6c-4.9,4.6-10.8,7.9-15.9,12.2
				c-3,2.4-5.1,5.7-7.5,8.7c-1-12.2-3.2-24.4-6.3-36.3c4-2.3,8.1-4.6,11.2-8.1c8.8-9.4,11.9-22.7,12.7-35.2c-2.5,3.3-4,7.1-6.5,10.4
				c-4.6,6.7-10.5,12.3-14.7,19.2c-1.9,3-2.3,6.6-3.9,9.8c-4.1-14-9.9-27.5-17.1-40.2c4-5.9,8.8-11.4,11.4-18.1
				c3.3-8,3.4-17,0.7-25.2c-1.6,4-2.1,8.3-3.8,12.2c-2.2,5.6-5.9,10.4-7.9,16c-1.4,3.7-1.6,7.6-2.1,11.4c-2.8-3.4-4.8-7.2-7.3-10.8
				c-5-7.2-10.7-13.9-16.5-20.5c5.2-8.3,6.7-18.5,5.5-28.1C348.5,60.9,347.4,55.4,343.6,51.7z M150.5,62.7
				c-2.1,10.5-1,22.1,4.9,31.3c-6.7,7.5-13.1,15.3-18.7,23.7c-1.7,2.6-3.1,5.3-5.1,7.6c-0.5-4.7-0.9-9.5-3.1-13.7
				c-4.2-8.2-9.2-16.4-10-25.8c-0.9,0.4-1.4,1.2-1.5,2.2c-1.6,6.9-1.8,14.4,0.8,21.1c2.5,7.4,7.6,13.5,12.1,19.8
				c-7.4,12.6-12.6,26.4-17.4,40.2c-2.3-12.4-12.7-20.3-19.3-30.4c-2.2-2.9-3.3-6.4-5.7-9.2c1.2,11.8,3.5,24.3,11.3,33.7
				c3.4,4.3,8.2,7.1,12.9,9.8c-3.3,11.8-5.5,23.9-6.3,36.1c-2.3-2.2-3.9-5.1-6.3-7.3c-5.3-4.9-11.8-8.2-17-13.1
				c-3.2-2.8-5.4-6.4-8.4-9.4c1.9,11.2,7.2,22.4,16.4,29.3c4.3,3.4,9.4,5.5,14.5,7.6c0.1,2,0.2,4,0.3,6c2.7-2.8,4.3-6.5,4.2-10.4
				c3.2-53.8,30.3-105.9,73.3-138.5c3.1-2.3,6.7-3.6,10.3-4.9c2-0.5,2.8-2.6,3.8-4.1c1.4-2.7,3.4-5,4-8
				c-13.9,3.8-22.7,15.9-32.7,25.4c-3.5,3-6.5,6.7-10.3,9.4c0.8-7.8,0.1-15.6-1.4-23.2c-1.1-5.2-0.7-10.5-0.9-15.7
				C152.5,55.1,151.5,59,150.5,62.7z M229.2,64.2l0.5-1c-0.6,0.1-1.8,0.4-2.5,0.6c-0.2-0.5-0.6-1.7-0.8-2.2c0.6-1.2,1.1-2.4,1.5-3.6
				c-2.9,3.3-5.1,7.1-7.8,10.5c-1.2-2.2,0.1-4.4,0.8-6.5l-1.1-0.4c0.2-0.5,0.7-1.5,0.9-2.1c-6.8,8.1-12.2,17.2-18.8,25.5
				c2-5.9,5.7-11,8-16.8c-4.8,4.5-9.1,9.6-12.2,15.4c-11.7,20.3-23.4,40.6-35.1,60.8c-1.5,2.5-3,5-4.2,7.7
				c-9.6,15.8-18.7,32.1-28.1,48.1c-11.6,20.3-23.5,40.5-35,60.9c-0.4,0.7-1.3,2.1-1.7,2.7c-0.6,0.9-1.2,1.9-1.8,2.8
				c64-0.2,128,0,192-0.2c5.8-0.2,11.8,1.3,17.4-0.6c-2.7-0.7-5.6-1.5-8.4-0.9c-6.8-0.7-13.7-1.2-20.5-1.9c-0.2-0.2-0.6-0.7-0.8-1
				c7.8-0.8,15.6-0.8,23.4-1.4c-1.7-0.4-3.4-0.7-5.1-1c-0.1-0.4-0.4-1.1-0.5-1.5c-2.6-0.4-5.3-0.2-7.8-1.2c2.8-0.9,6.8,0.7,8.8-1.9
				c-0.5-0.2-1.4-0.5-1.9-0.7c0.4-0.3,1.1-1,1.5-1.4c-3-0.3-6-0.4-9-0.4c1.1-0.8,2.1-1.6,2.9-2.7c0.3,0,0.8-0.1,1-0.1
				c-10.4-2.1-21-1.9-31.4-3.9c6.2-0.5,12.3-0.7,18.5-1c-4.1-1.7-8.6-2.5-13-2.3c-28.5,0.2-57-0.3-85.4,0.2
				c-4.7-0.3-9.5-0.3-14.2-0.1c-5.1-0.1-10.3-0.4-15.4,0c-6.7,2.7-13,6-19.7,8.9c-1.2-0.3-2.4-0.6-3.6-0.9
				c3.6-4.4,8.3-7.6,11.6-12.2l-1.5,0.3c3.8-4.2,8.6-7.5,11.9-12.3c24.5-42.7,49.3-85.2,73.8-128h0.2c7.5-13.7,15.7-26.9,23.3-40.5
				c-5.8,6.9-10.3,14.9-16.1,21.8c3.4-7.9,7.8-15.3,11.3-23.2C232.8,59,231.1,61.7,229.2,64.2z M162.6,99c4,1.4,8.1,2.2,12.3,2.8
				c1.5-2.2,2.8-4.4,4-6.8c-3.8-1.2-7.9-2-11.8-1C165.1,95.1,163.9,97.2,162.6,99z M319.9,95.2c1.1,2.4,2.5,4.7,4.2,6.7
				c4.4-0.7,8.7-1.6,12.9-3c-1.5-1.8-2.9-3.9-5-5C327.9,93,323.8,93.8,319.9,95.2z M159.5,117.1c1.9,0.3,3.8,0.7,5.7,1.2
				c1-1.4,1.9-2.9,2.9-4.4c-1.4-0.9-2.8-1.8-4.1-2.7C162.6,113.2,161,115.1,159.5,117.1z M330.7,114.1c0.8,1.4,1.7,2.9,2.5,4.3
				c2.2-0.5,4.4-0.9,6.6-1.3c-1.5-2-3.1-3.9-4.6-5.9C333.7,112.2,332.2,113.1,330.7,114.1z M284.5,115.8
				c4.7,10.4,9.4,20.8,14.3,31.1c-5.8-7.1-10.2-15.3-15.6-22.8c0.9,4.1,3.4,7.6,4.9,11.4c-0.8,0.8-1.7,1.6-2.5,2.5
				c-1.4-2.2-2.8-4.4-4.6-6.2c4.1,9.4,8.4,18.9,12.9,28.2c-0.2-0.1-0.7-0.3-1-0.3c-4.9-6.9-9-14.5-14.3-21c4.4,9.8,9,19.6,13.4,29.5
				c-4.2-4.7-6.6-10.7-10.9-15.3c1.8,8.6,7,15.8,11.2,23.3c10.1,17.6,20.2,35,30.3,52.6c0.8,1.4,1.7,2.7,2.6,4
				c5.1,9.6,10.6,19,16.2,28.2c2.8,5.3,4.8,11.5,10.1,14.8c4.3,3.1,8.3,6.7,12.9,9.4l3.3,3.1c-10.6-5-21.4-9.6-32-14.5
				c-2.3-1.2-5-0.7-7.5-0.8c-50.1,0-100.2,0-150.4,0c-12.8,0-25.6,0-38.4-0.1l1.1,0.9c5.3,0.9,10.7,0.9,16,1.7l0.8,0.9
				c-7.7,0.9-15.6,0.4-23.1,2c10.2,0.9,20.3,1.8,30.5,2.7l0.1,0.8c-8.5,0.8-17.1,0.8-25.6,1.5c2.8,0.4,5.6,0.9,8.4,1.2
				c-0.6,0.3-1.8,0.9-2.3,1.3c3.3,0.2,6.5,0.7,9.5,2.2c-3.1,0.3-6.3,0.5-9.4,1c10.2,1.8,20.7,1.6,30.9,3.4c-6,1.1-12.2,0.5-18.2,1.5
				c4.5,1.9,9.5,2.1,14.3,2.8c24.8-0.1,49.7,0.3,74.5-0.2c12.1,0.4,24.3,0.1,36.4,0.2c35.4,0,70.8,0.1,106.1-0.1
				c-10.4-17.2-20.1-34.8-30.3-52.1c-18-31.2-36-62.5-54.1-93.6C297.8,139,291.7,127,284.5,115.8z M141.4,128.4
				c-2.1,2-3.2,4.9-4.5,7.4c6.3,0.1,12.7,0.4,18.9-0.7c1.4-2.4,2.8-4.8,4.1-7.2C153.8,126.6,147.2,125.8,141.4,128.4z M338.9,127.8
				c1.1,2.6,2.5,5,4.2,7.3c6.4,0.8,12.8,1,19.3,0.7c-1.3-3.1-2.5-7-6.1-8.1C350.6,125.8,344.5,126.9,338.9,127.8z M235.1,138.9
				c-7.6,13.3-15.4,26.6-23,39.9c5.7-5.8,12.3-10.8,20-13.8c10.1-4.4,21.6-4.3,32.1-1.4c6.3,1.7,11.6,5.5,16.9,9.1
				c-2.5-3.5-6.2-5.7-9.7-8.1c-6.8-4.3-14.5-7.4-22.6-7.3c5.7-4.2,13.4-5.1,20.3-4c-4.9-3.7-11-5.2-16.9-6.6
				c2.7-1.6,5.8-2.3,8.9-2.8C253.3,139.5,244,137.8,235.1,138.9z M142.3,145.6c-0.8,1.8-1.6,3.6-2.4,5.4c2.2,0,4.5-0.1,6.7-0.1
				c0.7-1.1,1.4-2.1,2.2-3.2C146.6,146.9,144.4,146.2,142.3,145.6z M350,147.9c0.7,1,1.4,2,2.1,3c2.5,0,5,0.1,7.5,0.3
				c-0.9-1.9-1.8-3.7-2.6-5.6C354.7,146.4,352.3,147.1,350,147.9z M126.2,161.2c-1.5,2.4-2.1,5.2-2.9,7.8c4.8-0.4,9.8-0.6,14.3-2.5
				c2-2.7,3.4-5.7,4.9-8.7C136.9,157.6,130.9,158.1,126.2,161.2z M356,157.9c1.6,3,3.3,6,5.1,8.9c4.9,1.1,9.8,2.2,14.8,2.2
				c-0.9-2.6-1.2-5.7-3.1-7.8C368,157.9,361.7,157.6,356,157.9z M239.3,171c-11.7,2.4-21.8,10-29.4,19c3.1-1.9,5.9-4.4,9.1-6.1
				c7.3-4,15.3-6.5,23.4-7.9c1.2,1.4,2.9,1.7,4.6,1.2c7.2-1.4,14.7-0.7,22-1c1.5,0.1,2.7-0.4,3.5-1.8l1.2,0c-1-0.3-2-0.6-3.1-0.7
				C260.7,170.1,249.7,168.6,239.3,171z M269.2,187.8c-0.5,3.6-1.1,7.2-2.9,10.4c-4.2,7.9-13.6,12.8-22.5,11.4
				c-5.4-0.6-10.3-3.6-13.9-7.5c1.4-1,2.6-2.5,4.4-2.7c0.9-3.6,2.6-7.1,2-11c-9.9,2.2-19.1,7.7-26.2,15c0.6,1.4,2,2.5,3.2,3.4
				c2.9,4,7.4,6,11.5,8.4c-10.1-0.3-20.4-3.3-28.1-10c-1.8,4.4-3.3,9-3.1,13.7c0.3,6.6,4.1,12.7,9.5,16.4c-2.4-4-3.1-8.6-3.7-13.1
				c6.7,6.9,16.4,9.4,25.5,11.1c-3-2-6.5-3.1-9.5-5.1c-4.3-2.7-8.1-6.1-11.3-10c18.9,8,40.9,9,60.2,2.1c3.8-1.5,7.7-2.8,10.8-5.4
				c-11.2,4.1-23.5,5.1-35.3,3.3c1-1.2,2.7-1.1,4.1-1.4c3.5-0.4,6.9-1.5,10.2-2.8c10.8-3,21.5-10.1,25.4-21.1
				C276.3,191,272.9,189.2,269.2,187.8z M262.1,191.2c-1.2,3.1-2.8,6.1-5.4,8.2c0.6,0.8,1.3,1.7,2,2.5c2.7-2.8,4.8-6,5.8-9.8
				C263.9,191.9,262.7,191.4,262.1,191.2z M253.6,201.4c-0.9,0.5-1.9,1.1-2.8,1.6c0.5,0.8,0.9,1.6,1.4,2.4c1.2-0.4,2.4-0.8,3.6-1.3
				C255,203.2,254.3,202.3,253.6,201.4z M237.7,203.8c1.2,0.6,2.3,1.1,3.5,1.6c0.2-1,0.4-2,0.6-3
				C240.1,200.6,238.9,202.8,237.7,203.8z M244.6,206.3c1.2,0,2.4,0,3.6-0.1c-0.1-0.8-0.4-2.3-0.6-3.1c-0.7,0-2,0-2.7,0
				C244.9,204.2,244.7,205.2,244.6,206.3z M424,236.1c-5.6,3.5-12.1,5.3-18.1,8c1.9,3.8,4.1,7.4,6.2,11.1
				c11.1-5.2,19.3-15.5,22.8-27.2C431.5,230.9,428,233.9,424,236.1z M64.6,228.5c3.1,11.4,11.4,20.7,21.6,26.5
				c2.7-3.4,4.5-7.4,6.7-11.1c-5.3-2.4-10.9-4-15.9-6.9C72.4,234.9,68.8,231.3,64.6,228.5z M63.7,279c6.7,10.1,18.3,16.8,30.3,18.1
				c-2.3-4.3-4.8-8.6-7.3-12.8C78.8,283.7,71.1,281.8,63.7,279z M412.1,284.2c-2.8,4.2-5.4,8.5-7.6,13c12.5-1.1,24.1-8.1,31.5-18.2
				C428.2,281.7,420.3,284,412.1,284.2z M152.9,312c-1,4.3-1.2,8.8-1.9,13.1c-3.9-3.9-7.2-8.3-11.1-12.1c-4.9-0.8-9.9,0.4-14.9,0.4
				c-5.4,0.5-10.9,0.1-16.2,1.3c-5,3.6-9,8.4-13.8,12.2c0.5-4,1.5-7.9,2.1-11.8C84,316,71,317,57.9,318.1c-2.9,0.4-6.4-0.2-8.7,2.1
				c-4.2,3.8-8.4,7.6-12.8,11.3c-1.4,1.2-3.1,2.5-3.4,4.5c-4.4,17-8.8,34.1-13.3,51.1c3.2,4.5,7.2,8.3,10.7,12.5
				c1,1,1.9,2.5,3.5,2.1c15.5-1.5,31.2-2.4,46.7-3.9c1.1-4.5,1.7-9.1,3-13.6c4.4,3.9,7.7,9,12.4,12.6c8.7-0.1,17.4-1.1,26.1-1.3
				c2.8-0.4,6.2,0.3,8.4-1.8c4.5-3.9,8.9-8,13.6-11.8c-0.3,4.2-0.9,8.3-1.3,12.4c17.7-0.5,35.5-1.5,53.2-1.6
				c1.2-0.1,2.6,0.1,3.6-0.9c4.7-4,9-8.3,13.7-12.3c0.3,4.2-0.1,8.4-0.1,12.6c15.6,0.1,31.2-0.1,46.7-0.3c5.2-3.7,9.1-8.9,14.1-12.8
				c0.5,4.3,0.4,8.6,0.8,13c24.4,0.4,48.7,0.8,73.1,1.8c9.6,0.2,19.1,1.1,28.6,1.1c-0.9-6.1-2-12.2-2.4-18.3c4.9,6,8.3,13,13,19.1
				c9.8,0.2,19.6,1.5,29.4,1.4c-1.2-7.6-2.9-15.2-4-22.9c-0.4-1.1-0.2-2.6-1.3-3.4c-2-0.4-4.1-0.6-6.1-0.9c-1.2-9.7-3.8-19.3-4.6-29
				c1.3,0.1,2.6,0.3,3.8,0.8c0.9,2.9,1.3,5.9,2,8.9c6.8,0.8,13.7,0.9,20.5,1.5c1.7-0.2,1.8,1.8,2.2,3c1.2,5.7,2.4,11.3,3.6,17
				c-2.2-0.2-4.4-0.4-6.6-0.2c1.7,7.7,3.3,15.4,4.9,23.2c0.5,1.2,0.4,3.5,2.2,3.5c11.9,0.8,23.8,1.8,35.7,2.9c1.5,0.1,3.1,0.1,4.6,0
				c-2.4-8.8-4-17.7-6.6-26.5c-2.1-0.4-4.5-0.2-6.5-1.2c-1.5-6.5-3.3-12.9-4.5-19.4c7.3,0.5,14.6,1.8,21.9,1.8c-3-12-6.3-24-9.3-36
				c-13.6-1.6-27.3-2.5-41-3.7c-19.4-1.3-38.9-3-58.3-3.6c0.8,5.8,2,11.5,2.5,17.4c-4.4-5.5-7.3-12-11.3-17.9
				c-29.2-1.6-58.4-2.2-87.6-2.5c-14,0-28-0.4-42,0.2c-5.1,4.2-9.5,9.3-14.3,13.8c-4.4-4.4-8.5-9.1-13-13.4
				C186.8,310.5,169.8,311.3,152.9,312z M176.9,399.8c-31.4,1.3-62.9,2.1-94.3,4.7c1.6,0.9,3.5,0.7,5.3,0.7
				c108.9-4.8,218.1-4.7,327,0c1.8,0.2,3.6,0,5.4-0.6c-8.8-1-17.6-1.4-26.4-1.8C321.7,398.8,249.3,397.7,176.9,399.8z M95.4,410.8
				c-5.8,1.1-11.7,0.2-17.4,1.8c8.7,0.4,17.3-1.2,26-1c52.9-3,106-3.4,159-3.6c45,0.5,90,1,135,3.6c9.3-0.2,18.6,1.4,27.9,1
				c-3.9-0.9-7.9-1.2-11.9-1.2c-19.9-1.9-40-2.7-60-3.8C267.9,403.4,181.5,404.7,95.4,410.8z M246.2,421.2
				c-13.9,5.2-28.5,8.4-43.2,10.2c-0.2,2.3-0.3,4.5-0.2,6.8c17.2-1.7,33.9-6.7,49.7-13.7c2.7-1.2,5.6-2.3,7.8-4.4
				C255.7,420,250.7,419.4,246.2,421.2z M266.7,433.7c7.9,2,15.9,4,24.1,4.3c0-2.1-0.1-4.3-0.1-6.4c-3.5-0.6-7.1-1.2-10.6-1.8
				C275.2,428.4,270.6,431.2,266.7,433.7z"/>
		</g>
		<path class="st2" d="M183,337.3c2.4-0.1,4.8-0.2,7.2-0.3c-0.6,9.8-1.2,19.5-2.1,29.2c-2.7,0.2-5.4,0.2-8.1,0
			C181.1,356.6,181.2,346.8,183,337.3z"/>
		<path class="st2" d="M337.7,337.8c1.4,0.1,2.8,0.1,4.3,0.2c1.2,9.7,2.3,19.4,3.2,29.2c-1.5,0-2.9,0-4.4-0.1
			c-0.8-3.1-1.1-6.3-1.4-9.5c-6.4-0.5-12.8,0.1-19.2-0.7c-0.4-3.4-0.8-6.9-0.6-10.3c6.4-0.1,12.7,0.6,19,0.4
			C338.2,343.9,337.9,340.9,337.7,337.8z"/>
		<path class="st2" d="M117.1,340.2c2.4-0.2,4.8-0.3,7.2-0.4c-1.2,9.8-2.9,19.5-4.3,29.2c-2.6,0.2-5.3,0.3-7.9,0.2
			C113.7,359.5,115.1,349.8,117.1,340.2z"/>
		<path class="st2" d="M57.5,344.5c2.4-0.2,4.9-0.4,7.3-0.4c-0.5,2-0.6,4.2-1.8,5.9c-2.3,0.5-4.6,0.6-6.9,0.7
			C56.5,348.7,57,346.6,57.5,344.5z"/>
	</g>
	<g>
		<path class="st3" d="M266.5,24.6c17.5,29.9,34.6,60,52,89.9c4,7.2,8.5,14.2,12.1,21.6c0,4.1,2.3,7.7,4,11.3
			c7.1,15.2,14.5,30.4,21.4,45.8c0.8,1.9,1.9,3.9,1.2,6c-1.5,6.5-4.5,12.6-6,19.2c-25.5-44.2-51-88.3-76.5-132.5
			c-1.3-3.2-1.2-6.9-2-10.2c-1.6-11-3.3-21.9-4.9-32.9c-0.2,1.6-0.5,3.2-0.7,4.9c-1.9,4-3,8.2-3.9,12.6c-1.7,8.7-4.7,17.2-5.3,26.1
			c-5.7,10.5-11.7,21-18.1,31.1c-2.1,1.8-4.2,3.6-5.7,5.8c-6,8.3-12.3,16.4-18.1,24.9c-1.4,2-2.9,4.1-5.4,4.8
			c-7,2.4-14.1,4.3-21.4,5.6C215,113.8,240.9,69.2,266.5,24.6z"/>
		<path class="st3" d="M196.3,100.2c6.4-2.4,13.4-1.5,20.1-1.5c-24.5,42.7-49.2,85.3-73.8,128c-3.2,4.7-8,8.1-11.9,12.3
			c-6.7,6.4-13.6,12.7-20,19.4c2.3-1,4.5-2.1,6.7-3.2c4.8,0.5,9.2-1.7,13.7-3c9.4-3.1,19.1-5.3,28.3-9.2c4.7-0.2,9.5-0.2,14.2,0.1
			c22.8,2,45.6,3.1,68.5,4.4c2,0,3.6,1.3,4.9,2.5c4.7,4.4,8.4,9.8,12.1,15c-54.5,0.2-109,0.1-163.5,0.1c-0.1-1.2-0.1-2.4-0.2-3.7
			c11.5-20.4,23.4-40.5,35-60.9c9.4-16,18.4-32.3,28.1-48.1c1.9-1.7,3.8-3.4,5.2-5.6c9.6-14.4,19.2-28.8,28.8-43.1
			C193.5,102.2,194.6,100.7,196.3,100.2z"/>
		<path class="st3" d="M300.4,174.6c0.9-8.1,3-16.1,4.3-24.1c18.1,31.2,36,62.4,54.1,93.6c10.2,17.3,19.9,34.9,30.3,52.1
			c-35.4,0.1-70.8,0-106.1,0.1c-12.1-0.1-24.3,0.2-36.4-0.2c-13.4-2.4-27-2.5-40.5-3.4c-4.5-0.4-9.2,0.2-13.6-1.1
			c-6.4-4.9-10.5-12.2-14.7-19c50.1,0,100.2,0,150.4,0c2.5,0.1,5.2-0.4,7.5,0.8c10.7,4.9,21.4,9.5,32,14.5l-3.3-3.1
			c-3.1-4-6.4-7.8-9.9-11.4c-4.2-4.4-8-9.3-13.1-12.8c-5.7-9.2-11.2-18.6-16.2-28.2c-0.6-2.5-1-5.1-2-7.5
			c-6.7-15.1-13.9-30-21.5-44.7C300.7,178.6,300.1,176.6,300.4,174.6z"/>
	</g>
	<g>
		<path class="st4" d="M267.9,42.7c1.6,11,3.2,21.9,4.9,32.9c-0.3,0.4-1,1.1-1.4,1.5c-0.8-7.2-1.8-14.5-4.1-21.4
			c0.1-2.7,0-5.4-0.1-8.1C267.4,45.9,267.6,44.3,267.9,42.7z"/>
		<path class="st4" d="M110.7,258.3c6.4-6.7,13.3-12.9,20-19.4l1.5-0.3c-3.3,4.6-8,7.9-11.6,12.2c1.2,0.3,2.4,0.6,3.6,0.9
			c-2.3,1-4.6,2.2-6.9,3.3C115.2,256.1,113,257.2,110.7,258.3z"/>
		<path class="st4" d="M263.6,257c9-0.6,18-0.7,26.9-1.7c-2,2.6-6,1-8.8,1.9c2.5,1,5.2,0.9,7.8,1.2c0.1,0.4,0.4,1.1,0.5,1.5
			C281.2,259,272.3,258.5,263.6,257z"/>
		<path class="st4" d="M145,285.5c0.6-0.3,1.8-1,2.3-1.3c5.7,0.3,11.3,1.2,17,1.5c2,0.3,4,0.7,6,1.2c-5.3,0.3-10.6,0.5-15.9,0.7
			C151.5,286.2,148.3,285.7,145,285.5z"/>
		<path class="st4" d="M198.2,427.4c6.6-1,13.3-2,19.9-3c0.2,0.3,0.6,1,0.8,1.3c-6.1,1.2-12.3,1.8-18.4,3
			c-1.6,5.8-0.4,12.2-0.6,18.3c4.5-0.3,9-1.4,13.5-0.3c-5.1,1.3-10.3,1.8-15.5,2C198.4,441.6,197.9,434.5,198.2,427.4z"/>
	</g>
	<g>
		<path class="st5" d="M263.3,60.1c0.8-4.3,2-8.6,3.9-12.6c0.1,2.7,0.1,5.4,0.1,8.1c-0.8,5.5-0.3,11.1-1,16.6
			c-2.5,4.8-5.3,9.5-8.2,14C258.6,77.3,261.6,68.8,263.3,60.1z"/>
	</g>
	<g>
		<path class="st6" d="M343.6,51.7c3.8,3.7,4.9,9.2,5.8,14.2c1.2,9.6-0.2,19.8-5.5,28.1c5.8,6.6,11.5,13.2,16.5,20.5
			c2.5,3.6,4.6,7.4,7.3,10.8c0.5-3.8,0.8-7.7,2.1-11.4c2-5.6,5.8-10.5,7.9-16c1.7-3.9,2.2-8.3,3.8-12.2c2.7,8.2,2.6,17.2-0.7,25.2
			c-2.6,6.7-7.4,12.2-11.4,18.1c7.2,12.7,12.9,26.2,17.1,40.2c1.6-3.2,2-6.8,3.9-9.8c4.2-6.9,10.2-12.6,14.7-19.2
			c2.5-3.3,4-7.1,6.5-10.4c-0.9,12.5-3.9,25.8-12.7,35.2c-3.1,3.5-7.2,5.8-11.2,8.1c3.1,11.9,5.3,24,6.3,36.3c2.4-3,4.5-6.2,7.5-8.7
			c5.2-4.2,11.1-7.6,15.9-12.2c3.2-2.8,5.4-6.4,8.3-9.6c-1.9,11.1-6.9,22.1-15.8,29.2c-4.6,3.8-10.2,6-15.5,8.5
			c0.1,2.5,0.1,5,0.1,7.6c-2.4-2.9-4.7-6.2-4.4-10.1c-2.5-50.6-26-99.9-64.3-133.1c-3.8-3.2-7.5-6.5-11.7-9.2c-3.1-1.9-6.7-2.5-10-4
			c-2.7-3.5-4.6-7.5-6.8-11.4c13.3,2.6,22.2,13.8,31.3,22.9c4.2,3.8,7.9,8.2,12.5,11.5c0.1-5.3-0.2-10.6,0.8-15.8
			C343.5,67.3,344.5,59.5,343.6,51.7z"/>
		<path class="st6" d="M150.5,62.7c0.9-3.7,2-7.5,4.7-10.3c0.2,5.2-0.2,10.5,0.9,15.7c1.5,7.6,2.2,15.4,1.4,23.2
			c3.8-2.7,6.8-6.4,10.3-9.4c10-9.4,18.8-21.5,32.7-25.4c-0.6,3-2.7,5.4-4,8c-1,1.6-1.8,3.6-3.8,4.1c-3.6,1.3-7.2,2.5-10.3,4.9
			c-43.1,32.6-70.1,84.7-73.3,138.5c0.1,3.9-1.5,7.6-4.2,10.4c-0.2-2-0.2-4-0.3-6c-5.1-2.1-10.1-4.2-14.5-7.6
			c-9.3-6.9-14.6-18.1-16.4-29.3c3,3,5.2,6.6,8.4,9.4c5.2,4.9,11.7,8.2,17,13.1c2.4,2.2,3.9,5.1,6.3,7.3c0.8-12.2,3-24.3,6.3-36.1
			c-4.7-2.7-9.5-5.5-12.9-9.8c-7.8-9.4-10.1-21.9-11.3-33.7c2.4,2.7,3.6,6.3,5.7,9.2c6.5,10,17,18,19.3,30.4
			c4.8-13.8,9.9-27.6,17.4-40.2c-4.5-6.3-9.6-12.4-12.1-19.8c-2.6-6.7-2.4-14.2-0.8-21.1c0.1-1.1,0.6-1.8,1.5-2.2
			c0.8,9.4,5.8,17.6,10,25.8c2.2,4.2,2.7,9,3.1,13.7c2.1-2.3,3.5-5,5.1-7.6c5.6-8.4,11.9-16.2,18.7-23.7
			C149.5,84.8,148.4,73.2,150.5,62.7z"/>
		<path class="st6" d="M162.6,99c1.3-1.8,2.5-3.8,4.5-4.9c3.9-1,8-0.2,11.8,1c-1.2,2.3-2.6,4.6-4,6.8
			C170.7,101.2,166.5,100.3,162.6,99z"/>
		<path class="st6" d="M319.9,95.2c3.8-1.4,8-2.2,12-1.3c2.2,1.1,3.5,3.2,5,5c-4.2,1.4-8.5,2.3-12.9,3
			C322.4,99.9,321,97.7,319.9,95.2z"/>
		<path class="st6" d="M141.4,128.4c5.9-2.6,12.5-1.8,18.6-0.6c-1.3,2.4-2.7,4.8-4.1,7.2c-6.2,1.1-12.6,0.9-18.9,0.7
			C138.2,133.2,139.3,130.4,141.4,128.4z"/>
		<path class="st6" d="M338.9,127.8c5.7-0.9,11.7-2,17.4-0.1c3.6,1.1,4.8,5,6.1,8.1c-6.4,0.3-12.9,0.2-19.3-0.7
			C341.4,132.8,340,130.4,338.9,127.8z"/>
		<path class="st6" d="M126.2,161.2c4.7-3.1,10.7-3.6,16.2-3.4c-1.5,3-2.9,6-4.9,8.7c-4.5,1.9-9.5,2.1-14.3,2.5
			C124.1,166.4,124.7,163.6,126.2,161.2z"/>
		<path class="st6" d="M356,157.9c5.7-0.2,12,0,16.8,3.3c1.9,2.2,2.2,5.2,3.1,7.8c-5-0.1-9.9-1.2-14.8-2.2
			C359.4,163.8,357.7,160.9,356,157.9z"/>
		<path class="st6" d="M424,236.1c4-2.2,7.5-5.2,11-8.1c-3.5,11.7-11.7,22-22.8,27.2c-2.2-3.7-4.4-7.3-6.2-11.1
			C412,241.4,418.4,239.6,424,236.1z"/>
		<path class="st6" d="M64.6,228.5c4.2,2.8,7.8,6.3,12.4,8.5c5.1,2.9,10.7,4.5,15.9,6.9c-2.2,3.7-4.1,7.7-6.7,11.1
			C76.1,249.3,67.7,239.9,64.6,228.5z"/>
		<path class="st6" d="M63.7,279c7.4,2.8,15.1,4.7,23,5.3c2.5,4.2,5,8.4,7.3,12.8C82,295.8,70.4,289.1,63.7,279z"/>
		<path class="st6" d="M412.1,284.2c8.3-0.2,16.2-2.5,23.9-5.2c-7.4,10.1-19,17.1-31.5,18.2C406.7,292.7,409.3,288.4,412.1,284.2z"
			/>
		<g>
			<path class="st6" d="M152.9,312c16.9-0.7,33.9-1.5,50.8-1.6c4.4,4.4,8.6,9,13,13.4c4.9-4.5,9.2-9.6,14.3-13.8
				c14-0.5,28-0.2,42-0.2c29.2,0.3,58.4,0.9,87.6,2.5c3.9,5.9,6.9,12.4,11.3,17.9c-0.6-5.8-1.7-11.6-2.5-17.4
				c19.5,0.6,38.9,2.2,58.3,3.6c13.7,1.2,27.4,2.1,41,3.7c3.1,12,6.4,23.9,9.3,36c-7.3,0-14.6-1.3-21.9-1.8c1.2,6.5,3,12.9,4.5,19.4
				c2,1,4.3,0.8,6.5,1.2c2.5,8.7,4.2,17.7,6.6,26.5c-1.5,0.1-3.1,0.2-4.6,0c-11.9-1.1-23.8-2.1-35.7-2.9c-1.8,0-1.7-2.3-2.2-3.5
				c-1.5-7.7-3.1-15.5-4.9-23.2c2.2-0.2,4.4-0.1,6.6,0.2c-1.2-5.7-2.4-11.3-3.6-17c-0.4-1.2-0.4-3.1-2.2-3
				c-6.8-0.6-13.7-0.7-20.5-1.5c-0.7-3-1-6-2-8.9c-1.2-0.4-2.5-0.7-3.8-0.8c0.8,9.8,3.4,19.3,4.6,29c2,0.3,4.1,0.4,6.1,0.9
				c1.1,0.7,0.9,2.2,1.3,3.4c1.1,7.7,2.8,15.3,4,22.9c-9.8,0.1-19.6-1.2-29.4-1.4c-4.7-6.1-8.1-13.1-13-19.1
				c0.5,6.1,1.6,12.2,2.4,18.3c-9.6,0-19.1-0.9-28.6-1.1c-24.4-1-48.7-1.4-73.1-1.8c-0.4-4.3-0.3-8.7-0.8-13
				c-5,3.9-8.9,9.2-14.1,12.8c-15.6,0.1-31.2,0.3-46.7,0.3c0.1-4.2,0.4-8.4,0.1-12.6c-4.7,4-9,8.3-13.7,12.3c-0.9,1-2.3,0.8-3.6,0.9
				c-17.8,0.1-35.5,1.1-53.2,1.6c0.4-4.1,1-8.3,1.3-12.4c-4.6,3.8-9,7.9-13.6,11.8c-2.2,2.2-5.6,1.5-8.4,1.8
				c-8.7,0.2-17.4,1.2-26.1,1.3c-4.7-3.5-8-8.6-12.4-12.6c-1.2,4.5-1.9,9.1-3,13.6c-15.5,1.5-31.2,2.4-46.7,3.9
				c-1.6,0.4-2.6-1.1-3.5-2.1c-3.5-4.2-7.5-8-10.7-12.5c4.5-17,9-34,13.3-51.1c0.3-2,2-3.2,3.4-4.5c4.3-3.7,8.5-7.5,12.8-11.3
				c2.3-2.3,5.8-1.8,8.7-2.1c13-1.1,26.1-2.1,39.2-3c-0.6,4-1.6,7.9-2.1,11.8c4.8-3.9,8.8-8.6,13.8-12.2c5.3-1.2,10.8-0.8,16.2-1.3
				c5,0,10-1.1,14.9-0.4c3.9,3.8,7.2,8.3,11.1,12.1C151.7,320.8,151.9,316.3,152.9,312z M275.9,312.4l1,1.3l-0.4,0
				c0.1,6.2,0.4,12.4,0.4,18.6c2.2,0.1,4.3,0.1,6.5,0.2c0.2,12.4,0.9,24.8,1.3,37.1c-2.2-0.1-4.5-0.1-6.7-0.1
				c0.5,6.1,0.5,12.3,0.5,18.4c20,0.4,40.1,0.7,60.1,1.4c-0.8-6.2-1.3-12.5-1.9-18.8c1.8-0.6,1.9-5.6-0.4-5.7
				c-0.2-1.2-0.4-2.3-0.6-3.4l0.6-1.3c-4.2,0-8.8-1-12.7,1.1c-2.4,0-4.8-0.1-7.1-0.3c0.2,3.2,0.4,6.3,0.8,9.4
				c-4.4-0.1-8.8-0.1-13.2-0.4c-0.4-4.2-0.4-8.3-0.7-12.5c4.3,0.2,8.6,0.2,13,0.3c-0.6-4-0.8-8.1-0.9-12.1
				c-4.2-0.2-8.5-0.2-12.8-0.3c-0.2-4.2-0.3-8.4-0.9-12.5c4.2,0.1,8.5,0.1,12.7,0.4c0.1,3.1,0.2,6.3,0.6,9.5h0.9l-0.9,1.4
				c5.1-0.1,10.6,1.2,15.4-1.1c1.2,0,2.4,0,3.5,0c-0.4-4.4-0.8-8.9-1.3-13.3c1.8-0.6,1.9-5.6-0.5-5.7c-0.4-2.9-0.8-5.7-0.9-8.6
				c-1.9-0.1-3.8-0.3-5.7-0.4c0.6-0.3,2-0.9,2.6-1.1c-7.3-1.4-14.9-0.7-22.3-0.9C295.9,313.6,285.9,311.4,275.9,312.4z M155.9,314.3
				c0.4,0.4,1.1,1.1,1.4,1.4l-0.9,0c-1,6.2-1.4,12.5-2.4,18.8c2.1-0.1,4.2-0.3,6.4-0.5c-1.4,12.5-2.9,24.9-4.1,37.4
				c-2.2,0.1-4.4,0.2-6.6,0.3c-0.7,6.2-1.5,12.4-2.2,18.6c2.4-0.2,4.9-0.3,7.3-0.3c2.1,1.5,4.8,1.2,7.2,1.3c5.8,0,11.5-0.1,17.3-0.6
				c-0.6-0.3-1.9-1-2.6-1.4c3.1-0.2,6.1-0.4,9.2-0.3c4.2,1,9.3,1.9,13.2-0.2l-1.5-0.1c4.3-4.7,9.5-8.6,14-13.1l1.2,0.9
				c0.1-4.5,1.4-9.7-0.9-13.8c0-2.3,0.2-4.6,0.4-6.9c0.4,0.4,1.1,1.3,1.5,1.7c0.1-5.2,1.4-10.9-0.9-15.8c0.1-1.9,0.2-3.8,0.4-5.8
				c0.4,0,1.1,0.1,1.4,0.1c-0.1-3.9,1.7-8.9-1.7-11.9c-3.2-3.2-6.1-6.9-9.7-9.7l0.5,1.8c-0.4-0.4-1.4-1.4-1.8-1.8
				c-9.5,0.2-19.1,0.6-28.6,0.8C167.9,312.9,161.6,314.1,155.9,314.3z M219.8,326.9c-0.3,8.7-0.8,17.4-1,26.1
				c11.2,3.1,22.3,6.3,33.4,9.7c0,2.2-0.1,4.5,0,6.7c-4.9,0-9.7,0-14.6,0.1c0.1-2,0.2-4.1,0.3-6.1c-6.5-0.2-13,0-19.5,0.1
				c-0.4,8.2-0.7,16.4-0.9,24.6c13.8-0.2,27.5-0.3,41.3-0.3c2.8-2.7,5.6-5.3,8.5-7.9c3.4,0.2,6.4-3.6,6-6.9
				c-0.1-7.7,0.2-15.5-0.4-23.2c-0.4,0.4-1.1,1.2-1.4,1.6c-0.1-0.6-0.2-1.8-0.2-2.4c-11-3.2-22-6.6-32.9-9.9
				c0.2-2.3,0.2-4.6,0.2-6.9c4.6,0.1,9.3,0,13.9-0.1c0,2.1-0.1,4.1-0.1,6.2c6.3,0.1,12.6,0.2,18.9,0c-0.4-8.2-0.4-16.4-0.5-24.7
				c-12.5,0.1-25-0.2-37.5,0.1C228.2,317.8,223.7,322.2,219.8,326.9z M114.7,316.4c0.4,0.4,1.3,1.1,1.8,1.4c-2.6,0.4-5.8-0.3-7.6,2
				c-4.2,3.9-8.6,7.7-12.7,11.7c-3.7,16.4-6.3,33.1-9.8,49.6c1.2,1.4,2.5,2.7,3.7,4.1c0.4,3.6,3.8,6,6.4,8.1
				c4.8,0.9,9.7,0.4,14.6,0.1c-0.6-0.3-1.9-0.9-2.5-1.2c6.3-0.8,12.8-0.4,19-1.5c5-4.1,9.8-8.5,14.7-12.8c2-16.4,4-32.9,6.3-49.2
				c-3.6-4-7.1-8-10.7-12c-2.8,0.1-5.7,0.3-8.5,0.4C124.9,314.8,119.6,316.2,114.7,316.4z M337.5,315.3c0.7,6.2,1.2,12.3,2,18.5
				c2.1,0.1,4.1,0.2,6.2,0.3c1.5,12.4,2.7,24.8,4.3,37.2c-2.3-0.1-4.6-0.2-6.8,0.2c-1.4,0.3-0.9,2.6-1,3.7c-0.3,0.9,0.9,3.1,1.7,1.5
				c0.7,4.3,0.9,8.7,1.5,13c8.9,0.2,17.8,0.8,26.7,1c-1.8-10.8-2.8-21.7-4.7-32.5c1.9,2,3.1,4.5,4.6,6.9
				c5.7,8.9,11.5,17.8,17.4,26.6c7.5,0.3,15,0.9,22.4,1.3c-0.9-6.2-2.2-12.4-3.2-18.6c-2.2-0.2-4.4-0.3-6.6-0.4
				c-1-6.2-2.1-12.3-3.1-18.5c2.2,0.1,1.3-5.6-0.5-3.2c-1-5.2-1.8-10.5-2.9-15.8c2.1,0.1,4.2,0.3,6.3,0.5
				c-1.1-6.2-2.3-12.4-3.3-18.6c-8.1-0.5-16.2-0.9-24.3-1.5c0.9,8,2.4,15.9,3.5,23.9c0.3,2.8,1.3,5.5,1,8.3
				c-6.9-10.8-13.6-21.8-20.3-32.7C351.4,315.5,344.4,315.9,337.5,315.3z M408.7,319.1c-1.4-0.1-2.8-0.2-4.2-0.3
				c1.8,9.3,3.5,18.6,5.3,27.9c1.3,0.2,2.6,0.4,3.9,0.5l-0.9,1.4c3.8,0.2,8.3,1.5,11.7-0.8c0.3,0,0.9,0,1.2,0
				c-0.8-3.1-1.4-6.2-2.1-9.3c2.1,0.1,4.2,0.3,6.3,0.5c2.8,12.5,5.2,25,8.1,37.4c-2.2-0.1-4.4-0.3-6.5-0.4
				c1.2,6.2,2.6,12.4,3.8,18.6c2.1,0.2,4.1,0.3,6.2,0.5c-0.6,0.4-1.8,1.1-2.4,1.5c4.1,0.1,8.7,1.7,12.4-0.7c1.3,0.1,2.6,0.2,4,0.3
				c-0.6,0.3-1.9,0.8-2.6,1.1c3.4,0.6,7.5,1.8,10.6-0.5c1.7,0.1,3.4,0.2,5.1,0.4c-1.8-6.3-2.9-12.7-4.8-18.9l0.8-1.2
				c-1.9-0.3-3.9-0.5-5.8-0.7c-1.1-4.3-2-8.6-3-12.9c-0.3,0.4-1,1.2-1.3,1.6c-2.1-8.2-3.8-16.5-5.9-24.7c2.1,0.1,4.3,0.3,6.4,0.6
				c0.8,3.2,1.5,6.5,2.5,9.6c0,1.9,4.2,1.9,4.2,0c3.7,0.5,7.5,0.7,11.2,1c-2.6-9.4-4.9-18.8-7.5-28.2l-1,0c0.1-2.2-4.6-2.3-4.9-0.4
				c-5.3-0.5-10.6-0.8-15.9-1.5c0.6-0.3,1.9-0.8,2.6-1.1c-3.4-0.4-7.6-1.9-10.6,0.5c-1-0.1-2.1-0.2-3.1-0.3c0.4-0.4,1.2-1.1,1.6-1.5
				c-3.8-0.2-8.1-1.5-11.5,0.7c-0.6,0-1.8-0.1-2.4-0.2l0.9-1.3C417,318.2,412.3,316.7,408.7,319.1z M71.9,319.4
				c0.4,0.4,1.3,1.1,1.7,1.5c-1.1,0.1-2.2,0.2-3.3,0.3c-2.7-2.5-7-0.7-10.4-0.8c0.6,0.3,1.7,1,2.3,1.4c-1.6,0.1-3.1,0.3-4.7,0.5
				c0-2-6.3-1.6-4.3,0.3c-5.6,4.2-10.7,9.3-16.1,13.9c-4.2,16.6-8.6,33.2-13,49.8c3.4,3.8,6.7,7.9,10.4,11.5
				c6.7-0.9,13.5-1.3,20.2-1.8c3.2,2.5,7.7,0.8,11.5,0.8c-0.4-0.4-1.3-1.1-1.7-1.5c4.3-0.4,8.6-0.7,12.9-1.1
				c2.9-13.9,5.3-27.8,8.4-41.6c-9.6,0.6-19.1,1.4-28.7,2.2c-0.9,4.6-2,9.2-3.2,13.7c3.3-0.3,6.6-0.6,9.9-0.9
				c-0.9,3.1-1.6,6.2-2.2,9.4c-0.6,0-1.7,0.1-2.3,0.2c-3-2.4-7.1-0.9-10.5-0.7c1.1,0.5,2.2,0.9,3.3,1.3c-2.3,0.2-4.6,0.5-6.9,0.8
				c2.9-12.5,6.1-25,8.9-37.6c5.3-0.5,10.5-1,15.8-1.4c-0.7,3.1-1.5,6.3-2.2,9.4l0.9-0.1c3,2.3,7.2,1,10.6,0.7l-1-1.3
				c0.8-0.1,2.5-0.3,3.3-0.4c0.3,1.8,4.8,2,5-0.1c2.1-9.4,3.7-18.9,5.8-28.3c-3,0.3-6,0.5-9,0.7C80.1,317.6,75.6,319.3,71.9,319.4z
				 M275.3,336.4c-1.1,1.7-0.2,4-0.4,5.9c-3.4,0.5-6.8,0-10.2,0.4c3.2,1.6,6.8,2.4,10.2,3.4c0.6,6.5,0.3,13,0.6,19.5
				c1.6,0,3.3,0,5,0c-0.3-9.7-0.9-19.4-1-29.1C278.1,336.4,276.7,336.3,275.3,336.4z M306.2,337.1c0,1.3,0,2.6,0.1,3.9
				c1.5,0.2,3,0.3,4.6,0.3c-0.1-1.4-0.1-2.9-0.2-4.3C309.2,337,307.7,337,306.2,337.1z M151.4,338.4c-1.5,9.7-2.6,19.4-3.9,29.1
				c1.6,0.1,3.2,0.1,4.8,0.1c1.3-9.7,2.4-19.4,3.3-29.1C154.2,338.4,152.8,338.4,151.4,338.4z M337.7,337.8c0.1,3.1,0.4,6.1,0.9,9.2
				c-6.4,0.1-12.7-0.5-19-0.4c-0.1,3.5,0.3,6.9,0.6,10.3c6.4,0.8,12.8,0.2,19.2,0.7c0.3,3.2,0.6,6.4,1.4,9.5c1.5,0,2.9,0,4.4,0.1
				c-0.9-9.8-2.1-19.5-3.2-29.2C340.6,337.9,339.1,337.9,337.7,337.8z M57.5,344.5c-0.5,2.1-1,4.1-1.5,6.2c2.3-0.1,4.7-0.2,6.9-0.7
				c1.2-1.7,1.3-3.9,1.8-5.9C62.4,344.2,60,344.3,57.5,344.5z M216.1,356.8c-0.1,0.6-0.2,1.8-0.3,2.4c2.8,0.1,5.7,0.3,8.5,0.2
				C222.2,357.3,218.9,357,216.1,356.8z M307.7,361.7c0.1,1.5,0.2,2.9,0.3,4.4c1.7-0.1,3.3-0.1,5-0.1c-0.4-1.4,0.2-3.1-0.9-4.2
				C310.6,361.7,309.1,361.6,307.7,361.7z"/>
		</g>
		<g>
			<path class="st6" d="M113.4,336.5c5.2-0.3,10.4-0.7,15.7-0.8c-1.8,12.4-3.9,24.8-5.6,37.2c-2,0.2-3.9,0.5-5.9,0.2
				c-2.7-0.6-5.4-1.1-8.1-1.4c-0.4-0.5-1.3-1.5-1.7-2c1.4-8.6,3-17.1,4.2-25.6l0.5,0.1c0.3,0.1,0.8,0.2,1.1,0.3
				c0.6-1.4,0-2.9-0.5-4.2C112.9,339,113,337.7,113.4,336.5z M117.1,340.2c-2,9.6-3.4,19.4-5,29c2.6,0.1,5.3,0,7.9-0.2
				c1.4-9.7,3.1-19.4,4.3-29.2C121.8,339.9,119.4,340,117.1,340.2z"/>
		</g>
		<path class="st6" d="M246.2,421.2c4.5-1.8,9.4-1.2,14.2-1.1c-2.2,2.1-5.1,3.2-7.8,4.4c-15.7,7-32.5,11.9-49.7,13.7
			c-0.1-2.3,0-4.5,0.2-6.8C217.8,429.6,232.4,426.4,246.2,421.2z"/>
		<path class="st6" d="M266.7,433.7c3.9-2.5,8.6-5.3,13.4-3.9c3.5,0.6,7.1,1.2,10.6,1.8c0.1,2.1,0.1,4.3,0.1,6.4
			C282.6,437.7,274.6,435.7,266.7,433.7z"/>
	</g>
	<g>
		<path class="st7" d="M229.2,64.2c1.9-2.5,3.6-5.3,5.9-7.5c-3.6,7.8-7.9,15.3-11.3,23.2c5.8-6.9,10.3-14.9,16.1-21.8
			c-7.6,13.6-15.8,26.8-23.3,40.5h-0.2c-6.7,0.1-13.7-0.9-20.1,1.5c-1.7,0.5-2.8,2-3.8,3.4c-9.6,14.4-19.2,28.8-28.8,43.1
			c-1.4,2.2-3.3,3.9-5.2,5.6c1.2-2.7,2.7-5.2,4.2-7.7c11.7-20.3,23.4-40.6,35.1-60.8c3.1-5.8,7.4-10.9,12.2-15.4
			c-2.3,5.8-5.9,10.9-8,16.8c6.6-8.3,12-17.4,18.8-25.5c-0.2,0.5-0.7,1.5-0.9,2.1c-3.6,7.5-7.6,14.7-10.9,22.2
			c3.9-5,7.3-10.3,11.1-15.4c2.7-3.5,4.9-7.3,7.8-10.5c-0.4,1.2-0.9,2.4-1.5,3.6c-3.5,6.8-6.9,13.7-10.3,20.5
			C220.9,76.5,224.8,70.2,229.2,64.2z"/>
		<path class="st7" d="M284.5,115.8c7.2,11.3,13.4,23.2,20.2,34.7c-1.2,8.1-3.3,16-4.3,24.1c-0.3,2,0.2,4,1.2,5.7
			c7.6,14.7,14.7,29.6,21.5,44.7c1,2.4,1.5,5,2,7.5c-0.9-1.3-1.8-2.6-2.6-4c-10.1-17.6-20.2-35-30.3-52.6
			c-4.2-7.5-9.5-14.7-11.2-23.3c4.3,4.6,6.7,10.7,10.9,15.3c-4.3-9.9-9-19.6-13.4-29.5c5.4,6.6,9.5,14.1,14.3,21
			c0.2,0.1,0.7,0.2,1,0.3c-4.4-9.3-8.7-18.7-12.9-28.2c1.8,1.9,3.2,4,4.6,6.2c3.6,5.1,6.6,10.6,10.5,15.4c-2.5-6-5.5-11.8-8-17.8
			c-1.5-3.9-3.9-7.4-4.9-11.4c5.4,7.4,9.8,15.6,15.6,22.8C293.9,136.5,289.1,126.2,284.5,115.8z"/>
		<path class="st7" d="M234.2,123.2c1.6-2.3,3.6-4.1,5.7-5.8c-0.6,1.3-1.1,2.6-1.8,3.8c-9.6,16.5-19.1,33-28.6,49.5
			c-4.3,7.3-8,15.4-14.9,20.7c2.5-5.7,5.9-10.9,8.2-16.7c-6.6,8.1-12.1,17.2-18.7,25.4c0.5-1.2,1-2.5,1.6-3.7
			c3.3-6.8,6.8-13.5,10.2-20.3c-4.7,5.6-8.6,11.9-13,17.8c-2.1,2.9-4.1,5.8-6.4,8.5c3.8-8.3,8.1-16.3,12.2-24.5
			c-3.6,3.4-5.9,7.9-8.9,11.8c-3.6,4.7-6.6,9.9-10.6,14.3c3.8-8.1,8-15.9,11.9-24c-6.8,7.4-11.4,16.6-18.1,24.1
			c8.6-15.3,17.7-30.4,26.4-45.7c7.3-1.3,14.4-3.2,21.4-5.6c2.4-0.7,4-2.8,5.4-4.8C222,139.6,228.3,131.5,234.2,123.2z"/>
		<path class="st7" d="M330.6,136c1.9,2.4,3.2,5,4.8,7.6c13,22.6,26,45.2,39.1,67.7c2.6,4.2,4.5,8.8,5.5,13.7
			c-4-4.7-6.4-10.6-10.7-15.1c4.3,9.8,8.9,19.4,13.2,29.2c-1.2-1.4-2.4-2.9-3.4-4.4c-4-5.9-7.6-12.2-12-17.8
			c3.2,7.3,6.6,14.6,10,21.9c1.1,2.5,2.3,5,3.4,7.6c-5.8-6.9-10-15-15.3-22.3c3.6,9.9,9,19.2,12.8,29.1c-5.4-6.9-9.5-14.8-15-21.7
			c3.9,10,9.6,19.4,12.9,29.6c-8.1-14.3-16.3-28.6-24.6-42.8c1.5-6.6,4.4-12.7,6-19.2c0.7-2.1-0.5-4.1-1.2-6
			c-6.9-15.4-14.2-30.5-21.4-45.8C332.9,143.7,330.6,140.2,330.6,136z"/>
		<path class="st7" d="M124.3,251.8c6.6-2.8,13-6.2,19.7-8.9c5.1-0.4,10.3-0.1,15.4,0c-9.2,3.8-18.9,6-28.3,9.2
			c-4.5,1.3-8.9,3.5-13.7,3C119.7,253.9,122,252.8,124.3,251.8z"/>
		<path class="st7" d="M173.6,243c28.5-0.5,56.9,0,85.4-0.2c4.4-0.1,8.9,0.6,13,2.3c-6.2,0.3-12.3,0.5-18.5,1
			c10.4,2,21.1,1.8,31.4,3.9c-0.3,0-0.8,0.1-1,0.1c-8.4,0.7-16.9,0.4-25.3,1.8c10,0.9,19.9,2,29.9,2.7c0.5,0.2,1.4,0.5,1.9,0.7
			c-8.9,1-17.9,1.1-26.9,1.7c8.7,1.5,17.6,1.9,26.4,3c1.7,0.3,3.4,0.6,5.1,1c-7.8,0.7-15.6,0.6-23.4,1.4c0.2,0.2,0.6,0.7,0.8,1
			c6.8,0.6,13.7,1.2,20.5,1.9c-1.9,0.5-3.9,0.9-5.9,0.9c-8.9-0.1-17.9-0.1-26.8,0c-0.3-0.3-0.8-0.9-1.1-1.2
			c-3.7-5.2-7.4-10.6-12.1-15c-1.4-1.3-3-2.5-4.9-2.5C219.2,246.1,196.4,245,173.6,243z"/>
		<path class="st7" d="M341.3,260.7c5.1,3.4,8.9,8.4,13.1,12.8c3.5,3.6,6.8,7.5,9.9,11.4c-4.6-2.7-8.6-6.2-12.9-9.4
			C346.1,272.3,344.1,266,341.3,260.7z"/>
		<path class="st7" d="M139.2,272.6c12.8,0.1,25.6,0.1,38.4,0.1c4.1,6.8,8.2,14.1,14.7,19c4.4,1.2,9.1,0.6,13.6,1.1
			c13.5,0.9,27.2,1,40.5,3.4c-24.8,0.4-49.7,0.1-74.5,0.2c-4.8-0.6-9.8-0.9-14.3-2.8c6-1,12.2-0.4,18.2-1.5
			c-10.2-1.8-20.7-1.6-30.9-3.4c3.1-0.5,6.3-0.8,9.4-1c5.3-0.3,10.6-0.4,15.9-0.7c-2-0.4-4-0.8-6-1.2c0.4-0.3,1.2-1,1.6-1.3
			c-2.8-0.2-5.6-0.4-8.4-0.8c2.3-0.9,4.8-1,7.3-1c0-0.3-0.1-0.9-0.2-1.2l-0.1-0.8c-10.2-0.9-20.4-1.8-30.5-2.7
			c7.6-1.6,15.4-1.1,23.1-2l-0.8-0.9c-5.3-0.9-10.7-0.8-16-1.7L139.2,272.6z"/>
	</g>
	<g>
		<path class="st8" d="M219.9,61.7l1.1,0.4c-0.7,2.1-2,4.3-0.8,6.5c-3.8,5.1-7.2,10.4-11.1,15.4C212.3,76.3,216.3,69.1,219.9,61.7z"
			/>
		<path class="st8" d="M216.1,82.1c3.5-6.8,6.9-13.7,10.3-20.5c0.2,0.5,0.6,1.7,0.8,2.2c0.6-0.1,1.9-0.4,2.5-0.6l-0.5,1
			C224.8,70.2,220.9,76.5,216.1,82.1z"/>
		<path class="st8" d="M285.5,138c0.8-0.8,1.7-1.7,2.5-2.5c2.5,6,5.5,11.8,8,17.8C292.1,148.5,289.1,143.1,285.5,138z"/>
		<path class="st8" d="M195.9,176c-3.3,6.8-6.8,13.5-10.2,20.3c-0.4-1.9-1.8-2.1-3.4-1.7l0.6-0.8C187.2,187.9,191.1,181.6,195.9,176
			z"/>
		<path class="st8" d="M367.1,216.8c4.4,5.7,8,11.9,12,17.8c-0.5,1.6-1.1,3.2-1.7,4.8l-0.4-0.8C373.7,231.4,370.3,224.1,367.1,216.8
			z"/>
		<path class="st8" d="M258.6,251.9c8.4-1.4,16.9-1.1,25.3-1.8c-0.7,1.1-1.8,2-2.9,2.7c3,0,6,0.1,9,0.4c-0.4,0.3-1.1,1-1.5,1.4
			C278.5,253.9,268.6,252.9,258.6,251.9z"/>
		<path class="st8" d="M203.3,314.3c3.6,2.8,6.5,6.4,9.7,9.7c3.4,3,1.6,8,1.7,11.9c-0.4,0-1.1-0.1-1.4-0.1c0.3-3.2,0.4-6.4,0.4-9.6
			c-3.4-3.2-6.6-6.7-9.8-10.1L203.3,314.3z"/>
		<path class="st8" d="M178.8,333.6c5.2-0.3,10.5-0.2,15.7-0.6c-0.1,2.2-0.2,4.4-0.5,6.6c-0.4-1.6-0.8-3.3-1.3-4.9
			c-4.3-0.3-8.6,0-12.9,0.5c0,2.2,0,4.5-0.1,6.8c-0.4,0.3-1.1,0.9-1.5,1.2C178.5,339.9,178.7,336.8,178.8,333.6z"/>
		<path class="st8" d="M90.1,385.2c2.4,2.5,4.8,5,7.1,7.6c3.8-0.2,7.5-0.4,11.3-0.6c0.6,0.3,1.9,0.9,2.5,1.2
			c-4.8,0.3-9.8,0.8-14.6-0.1C93.9,391.2,90.5,388.8,90.1,385.2z"/>
		<path class="st8" d="M185.7,388.9c3.9-0.1,7.8-0.2,11.7-0.3l1.5,0.1C195,390.8,189.9,389.9,185.7,388.9z"/>
	</g>
	<g>
		<path class="st9" d="M335.1,71.3c1.1,2,1.5,4.4,0,6.5C334.3,75.8,334.2,73.2,335.1,71.3z"/>
		<path class="st9" d="M121.8,415.5c7.6-0.5,15.5-1.5,22.9,0.4c-6.9,0.6-14,1-20.9,0.6C123.3,416.3,122.3,415.8,121.8,415.5z"/>
	</g>
	<g>
		<path class="st10" d="M373.4,82.2c1.6,4.5-2.2,8.6-3.3,12.8c-1.2,1.9-1,6-4,5.7C368.5,94.5,371.1,88.4,373.4,82.2z"/>
	</g>
	<g>
		<path class="st11" d="M77,147c-1.4-9.5-0.7-19.5,3.1-28.4c0.6,5.6-1.9,10.8-1.8,16.3C78.1,139,79,143.3,77,147z"/>
	</g>
	<g>
		<path class="st12" d="M235.1,138.9c8.9-1.1,18.2,0.6,26,5c-3.1,0.5-6.2,1.2-8.9,2.8c5.8,1.4,12,2.9,16.9,6.6
			c-6.9-1-14.6-0.2-20.3,4c8.1-0.1,15.9,3.1,22.6,7.3c3.5,2.3,7.2,4.6,9.7,8.1c-5.3-3.6-10.6-7.4-16.9-9.1c-10.5-2.9-22-3-32.1,1.4
			c-7.7,3-14.3,8-20,13.8C219.7,165.5,227.5,152.3,235.1,138.9z"/>
		<g>
			<path class="st12" d="M193.8,219c-0.2-4.8,1.3-9.4,3.1-13.7c7.7,6.7,18,9.6,28.1,10c-4.1-2.4-8.7-4.4-11.5-8.4
				c12,7.5,26.9,9.9,40.8,7.4c-3.3,1.3-6.7,2.4-10.2,2.8c-1.4,0.3-3.1,0.2-4.1,1.4c11.8,1.8,24,0.8,35.3-3.3
				c-3.1,2.7-7.1,4-10.8,5.4c-19.4,7-41.3,5.9-60.2-2.1c3.2,3.9,7.1,7.3,11.3,10c3,1.9,6.5,3,9.5,5.1c-9.1-1.8-18.8-4.2-25.5-11.1
				c0.6,4.5,1.3,9.1,3.7,13.1C197.9,231.7,194.1,225.5,193.8,219z M219,218.8c6.1,3.1,13.2,4,19.9,3
				C232.9,218.4,225.6,218.7,219,218.8z"/>
		</g>
	</g>
	<g>
		<path class="st13" d="M239.3,171c10.4-2.4,21.4-0.9,31.3,2.7c-3.5,0.2-7,0.8-10.5,0.3c-0.2-0.1-0.7-0.3-0.9-0.4
			c-5.8-3-12.5-0.9-18.7-1.3C240.2,171.9,239.6,171.3,239.3,171z"/>
	</g>
	<g>
		<path class="st14" d="M240.5,172.2c6.2,0.4,13-1.7,18.7,1.3c-5.7-0.4-11.5-0.1-17.2,0.4C241.7,173.5,240.9,172.7,240.5,172.2z"/>
	</g>
	<g>
		<path class="st15" d="M242.4,175.9c9.9-2,20-1.2,30-1.6c-0.8,1.3-2,1.9-3.5,1.8c-7.3,0.2-14.7-0.4-22,1
			C245.3,177.6,243.6,177.3,242.4,175.9z"/>
	</g>
	<g>
		<path class="st16" d="M262.1,191.2c0.6,0.2,1.8,0.7,2.4,1c-0.9,3.8-3.1,7-5.8,9.8c-0.7-0.8-1.3-1.7-2-2.5
			C259.3,197.3,260.9,194.3,262.1,191.2z"/>
		<path class="st16" d="M253.6,201.4c0.7,0.9,1.4,1.9,2.1,2.8c-1.2,0.4-2.4,0.8-3.6,1.3c-0.5-0.8-0.9-1.6-1.4-2.4
			C251.7,202.4,252.6,201.9,253.6,201.4z"/>
		<path class="st16" d="M237.7,203.8c1.2-1,2.4-3.2,4-1.4c-0.2,1-0.3,2-0.6,3C240,204.8,238.8,204.3,237.7,203.8z"/>
		<path class="st16" d="M244.6,206.3c0.1-1.1,0.2-2.1,0.4-3.2c0.7,0,2,0,2.7,0c0.1,0.8,0.4,2.3,0.6,3.1
			C247,206.3,245.8,206.3,244.6,206.3z"/>
	</g>
	<g>
		<path class="st17" d="M55.2,216.2c1.8,5.5,0.2,11.3,1.6,16.9c0.7,2.9,1.3,5.9,0.8,9C54.4,233.8,53.7,224.8,55.2,216.2z"/>
	</g>
	<g>
		<path class="st18" d="M95.4,261.3c0,1.2,0.1,2.4,0.2,3.7c54.5,0,109,0.2,163.5-0.1c0.3,0.3,0.9,0.9,1.1,1.2
			c-55.9,0-111.8,0-167.6,0c0.3-0.5,0.9-1.5,1.2-2C94.2,263.4,95,262,95.4,261.3z"/>
	</g>
	<g>
		<path class="st19" d="M92,266.8c0.6-0.9,1.2-1.9,1.8-2.8c-0.3,0.5-0.9,1.5-1.2,2c55.9,0,111.8,0,167.6,0c8.9,0,17.9,0,26.8,0
			c2,0,4-0.4,5.9-0.9c2.8-0.6,5.7,0.2,8.4,0.9c-5.6,1.9-11.6,0.4-17.4,0.6C220,266.9,156,266.6,92,266.8z"/>
	</g>
	<g>
		<path class="st20" d="M71.5,275.7c0.1-0.3,0.2-0.9,0.3-1.1c1.4-0.5,2.8-0.3,4,0.6C74.5,275.7,73,276.4,71.5,275.7z"/>
	</g>
	<g>
		<path class="st21" d="M139,283c8.5-0.7,17.1-0.7,25.6-1.5c0,0.3,0.1,0.9,0.2,1.2c-2.5,0.1-5,0.1-7.3,1c2.8,0.4,5.6,0.6,8.4,0.8
			c-0.4,0.3-1.2,1-1.6,1.3c-5.7-0.3-11.3-1.3-17-1.5C144.6,283.9,141.8,283.4,139,283z"/>
	</g>
	<g>
		<path class="st22" d="M275.9,312.4c10-1,20,1.2,30,0.4c7.4,0.2,15-0.5,22.3,0.9c-0.6,0.3-2,0.9-2.6,1.1
			c-16.2-0.4-32.5-0.8-48.7-1.1L275.9,312.4z"/>
	</g>
	<g>
		<path class="st23" d="M155.9,314.3c5.8-0.2,12-1.4,17.5,0.9c-5.4,0.1-10.7,0.5-16,0.5C156.9,315.3,156.2,314.6,155.9,314.3z"/>
		<path class="st23" d="M323.6,361.2c3.9-2.1,8.5-1.1,12.7-1.1l-0.6,1.3C331.7,361.5,327.7,361.2,323.6,361.2z"/>
	</g>
	<g>
		<path class="st24" d="M114.7,316.4c4.8-0.2,10.2-1.6,14.7,0.7c-4.3,0.2-8.6,0.5-12.9,0.7C116.1,317.5,115.2,316.8,114.7,316.4z"/>
		<path class="st24" d="M457.3,350.8c1.4-0.2,2.8-0.2,4.2,0C461.5,352.6,457.3,352.6,457.3,350.8z"/>
		<path class="st24" d="M48.9,376.4c3.4-0.2,7.5-1.6,10.5,0.7c-2.4,0.2-4.8,0.4-7.2,0.6C51,377.3,49.9,376.9,48.9,376.4z"/>
		<path class="st24" d="M452.8,397.4c0.6-0.3,1.9-0.8,2.6-1.1c2.7,0.2,5.3,0.4,8,0.6C460.2,399.1,456.2,398,452.8,397.4z"/>
	</g>
	<g>
		<path class="st25" d="M408.7,319.1c3.5-2.4,8.3-0.9,12.3-0.6l-0.9,1.3C416.3,319.6,412.5,319.3,408.7,319.1z"/>
		<path class="st25" d="M71.9,319.4c3.8,0,8.2-1.8,11.5,0.8c-3.2,0.2-6.5,0.5-9.8,0.7C73.2,320.5,72.3,319.7,71.9,319.4z"/>
		<path class="st25" d="M422.6,320c3.5-2.2,7.7-0.9,11.5-0.7c-0.4,0.4-1.2,1.1-1.6,1.5C429.2,320.6,425.9,320.4,422.6,320z"/>
		<path class="st25" d="M81.5,347.8c1.7-0.2,3.3-0.3,5-0.1C86.2,349.8,81.8,349.6,81.5,347.8z"/>
		<path class="st25" d="M154.6,389.9c7.3-0.2,14.6-0.6,21.9-0.7c0.6,0.3,1.9,1,2.6,1.4c-5.7,0.5-11.5,0.6-17.3,0.6
			C159.4,391.1,156.8,391.3,154.6,389.9z"/>
		<path class="st25" d="M54.7,395.9c3.2-0.2,6.5-0.5,9.7-0.7c0.4,0.4,1.3,1.1,1.7,1.5C62.4,396.6,57.9,398.4,54.7,395.9z"/>
	</g>
	<g>
		<path class="st26" d="M59.9,320.4c3.3,0,7.7-1.8,10.4,0.8c-2.7,0.3-5.4,0.4-8.1,0.6C61.6,321.4,60.5,320.7,59.9,320.4z"/>
		<path class="st26" d="M435.6,321.1c3-2.4,7.1-0.9,10.6-0.5c-0.7,0.3-1.9,0.8-2.6,1.1C441,321.6,438.3,321.4,435.6,321.1z"/>
	</g>
	<g>
		<path class="st27" d="M53.2,322.6c-2.1-2,4.3-2.4,4.3-0.3C56.1,322.4,54.7,322.5,53.2,322.6z"/>
	</g>
	<g>
		<path class="st28" d="M459.5,323.2c0.2-1.9,4.9-1.8,4.9,0.4C462.7,323.6,461.1,323.4,459.5,323.2z"/>
		<path class="st28" d="M212.8,341.6c2.3,4.9,1,10.6,0.9,15.8c-0.4-0.4-1.1-1.3-1.5-1.7C212.5,351,212.7,346.3,212.8,341.6z"/>
		<path class="st28" d="M316,342.5c4.8,0,9.6,0.2,14.4,0.3c-4.8,2.3-10.3,1-15.4,1.1L316,342.5z"/>
		<path class="st28" d="M178.1,345.3c0.7,2.5,1.3,5,1.1,7.6c-0.5,0.3-1.4,0.9-1.8,1.2C177.5,351.1,177.6,348.2,178.1,345.3z"/>
		<path class="st28" d="M177.1,356.3c0.7,2.9,2.5,7-0.8,9.1C176.4,362.3,176.6,359.3,177.1,356.3z"/>
	</g>
	<g>
		<path class="st29" d="M332.3,323.8c2.4,0.1,2.3,5.1,0.5,5.7C332.6,327.6,332.5,325.7,332.3,323.8z"/>
		<path class="st29" d="M336.3,364.8c2.3,0.1,2.2,5.1,0.4,5.7C336.5,368.6,336.5,366.7,336.3,364.8z"/>
	</g>
	<g>
		<g>
			<path class="st30" d="M179.9,335.2c4.3-0.5,8.6-0.8,12.9-0.5c0.4,1.6,0.9,3.2,1.3,4.9c-0.4,5.6-0.3,11.2-1.4,16.7
				c-0.3-0.6-0.9-1.9-1.2-2.5c-0.9,4.6-0.4,9.4-0.9,14c-0.7,1.2-2.2,0.9-3.4,1.1c-3.8,0.1-7.6-0.2-11.4-0.6c0.1-0.7,0.2-2,0.3-2.7
				l0.3-0.3c3.2-2.1,1.4-6.1,0.8-9.1c-0.1-0.5-0.2-1.4-0.2-1.9l0.5-0.3c0.5-0.3,1.4-0.9,1.8-1.2c0.2-2.6-0.4-5.1-1.1-7.6
				c-0.1-0.5-0.2-1.4-0.2-1.9l0.4-0.3c0.4-0.3,1.1-0.9,1.5-1.2C179.9,339.7,179.9,337.4,179.9,335.2z M183,337.3
				c-1.8,9.5-2,19.3-3,29c2.7,0.1,5.4,0.1,8.1,0c0.8-9.7,1.5-19.5,2.1-29.2C187.9,337.1,185.4,337.2,183,337.3z"/>
		</g>
	</g>
	<g>
		<path class="st31" d="M275.3,336.4c1.4-0.1,2.8,0,4.2,0c0.1,9.7,0.7,19.4,1,29.1c-1.7,0-3.3,0-5,0c-0.3-6.5,0-13-0.6-19.5
			c-3.4-1-7-1.8-10.2-3.4c3.4-0.3,6.8,0.1,10.2-0.4C275.1,340.4,274.3,338.1,275.3,336.4z"/>
	</g>
	<g>
		<path class="st32" d="M306.2,337.1c1.5,0,3,0,4.5,0c0,1.4,0.1,2.8,0.2,4.3c-1.5-0.1-3-0.2-4.6-0.3
			C306.3,339.7,306.3,338.4,306.2,337.1z"/>
	</g>
	<g>
		<path class="st33" d="M151.4,338.4c1.4,0,2.8,0,4.2,0c-0.9,9.7-2,19.4-3.3,29.1c-1.6,0-3.2,0-4.8-0.1
			C148.9,357.8,150,348,151.4,338.4z"/>
	</g>
	<g>
		<path class="st34" d="M113.2,340.2c0.6,1.3,1.2,2.8,0.5,4.2c-0.3-0.1-0.8-0.2-1.1-0.3C112,342.7,112.2,341.4,113.2,340.2z"/>
		<path class="st34" d="M413.7,347.2c3.6,0.2,7.2,0.4,10.8,0.6c-3.4,2.4-7.9,1-11.7,0.8L413.7,347.2z"/>
		<path class="st34" d="M68.6,348.9c3.2-0.2,6.4-0.4,9.6-0.6l1,1.3C75.7,349.9,71.6,351.2,68.6,348.9z"/>
	</g>
	<g>
		<path class="st35" d="M271.3,351.4c0.3-0.4,1.1-1.2,1.4-1.6c0.6,7.7,0.3,15.5,0.4,23.2c0.4,3.3-2.6,7.1-6,6.9
			c1.6-1.5,3.1-2.9,4.6-4.4C271.5,367.5,271.5,359.5,271.3,351.4z"/>
	</g>
	<g>
		<path class="st36" d="M195.8,351.8c4.7-0.2,9.4-0.5,14.1-0.1c-0.6,7.6-0.5,15.3-1.4,23c-2.2,2.8-5.2,4.7-7.6,7.2
			c-2.1,1.7-3.9,4.5-6.9,4.2c-9.4,0.3-18.7,0-28.1,0.8c-5.2,0.1-10.5,0.6-15.8,0.1c0.5-4.3,0.9-8.7,1.7-13c2.2-0.2,4.4-0.4,6.5-0.7
			c0.7-6.9,1.4-13.8,2.4-20.7c4.6-0.5,9.3-0.5,14-0.5c-0.5,6.9-1.4,13.8-1.8,20.8c7.1-0.2,14.5,0.4,21.5-1.1
			C194.6,365.2,195.4,358.5,195.8,351.8z"/>
		<path class="st36" d="M223.6,351.3c15,0,30,0,45,0.1c0.1,7.2,0.6,14.4,0.7,21.7c0.2,1.7-1.4,2.8-2.5,3.9c-3,2.7-5.7,5.7-8.9,8.2
			c-12.7,0.7-25.4,0.2-38.1,0.3c0.5-6.5,0.7-13.1,0.9-19.6c4.8-0.2,9.5,0,14.3,0c0,2.1,0,4.1,0.1,6.2c6.5-0.2,13,0,19.4-0.4
			c-0.1-3.6,0.6-7.3-0.3-10.8c-9.3-3-18.7-5.7-28.2-8.2C225.2,352.3,224.4,351.8,223.6,351.3z"/>
		<path class="st36" d="M286.6,351.6c8.8,0.1,17.7-0.2,26.5,0.4c0.2,1,0.5,2,0.7,3.1c-4.3,0.5-8.6-0.1-12.9,0
			c0.2,5.8,0.3,11.7,1,17.5c5.9-0.3,11.9,0.1,17.9,0.2c-0.1-3.1-0.2-6.1-0.2-9.2c4.7,0.1,9.5-0.2,14.1,0.6c0.6,7.5,1.8,15,2,22.5
			c-18.3-0.4-36.5-0.8-54.8-1.3c-0.2-4.4-0.3-8.8-0.1-13.3c2.1,0,4.2,0.1,6.4,0.1C286.9,365.3,286.5,358.4,286.6,351.6z"/>
		<path class="st36" d="M128.9,353.8c4.6-0.3,9.2-0.5,13.9-0.4c-0.6,7.2-1.7,14.4-2.6,21.6c-0.1,2.4-2.4,3.7-3.9,5.2
			c-3.4,2.6-6.2,5.8-9.8,8.2c-4.7,1-9.6,0.6-14.4,1c-4.6,0.1-9.2,1-13.8,0.5c-3.2-2.8-6-6.2-9-9.3c1.2-8.4,3.1-16.6,4.6-24.9
			c4.6-0.6,9.3-0.8,13.9-0.9c-0.9,7.2-2.9,14.3-3.2,21.6c7-0.4,14.1-0.7,21.1-1.5C126.8,367.9,127.7,360.9,128.9,353.8z"/>
		<path class="st36" d="M350.3,353.3c15.3,0.1,30.5,1.1,45.8,1.9c1.6,6.9,2.2,14,3.9,20.9c2.1,0.3,4.2,0.5,6.2,0.7
			c1.1,4.4,1.8,8.9,2.7,13.3c-5.6,0.1-11.3-0.4-16.9-0.8c-1.5,0.1-2.1-1.4-2.9-2.3c-6.5-10-13.1-20-19.4-30.1
			c-1.5,0.4-3.1,0.8-4.6,1.4c1,10,2.7,19.8,3.8,29.8c-7.1,0-14.1-0.8-21.2-0.8c-0.9-4.4-1.2-8.8-1.6-13.3c2.2-0.1,4.4-0.2,6.6-0.3
			C351.8,366.9,351,360.1,350.3,353.3z"/>
		<path class="st36" d="M59,357.9c7.7-0.6,15.4-1.2,23.2-1.6c-2,12-4.4,23.9-7.1,35.7c-13.3,0.8-26.6,2.1-39.9,3.1
			c-2.8-3-5.7-5.9-8.1-9.2c0-2.1,0.8-4.1,1.3-6.1c1.9-6.6,3.3-13.3,5.4-19.9c4.5-0.3,9-0.7,13.5-1.1c-1.4,7.5-3.6,14.8-5.2,22.2
			c7.2-0.6,14.4-0.7,21.5-2c1-4.6,2.1-9.2,3.1-13.9c-3.1,0.2-6.3,0.4-9.4,0.5C57.7,363,58.3,360.4,59,357.9z"/>
		<path class="st36" d="M440.9,378.9c-1.3-7.1-3.2-14.1-4.4-21.2c4.5,0.5,9.1,0.7,13.7,1.1c1.9,7,3.4,14.1,5.1,21.2
			c2.2,0.4,4.5,0.8,6.7,1.2c1.1,4.4,2.1,8.8,3.1,13.1c-9.3-0.4-18.7-1.1-27.9-2.2c-0.9-4.4-1.9-8.8-2.5-13.2
			C436.7,378.9,438.8,378.9,440.9,378.9z"/>
	</g>
	<g>
		<path class="st37" d="M398.3,352.3c1.8-2.4,2.7,3.3,0.5,3.2C398.6,354.5,398.5,353.4,398.3,352.3z"/>
	</g>
	<g>
		<path class="st38" d="M190.6,367.8c0.5-4.7,0.1-9.4,0.9-14c0.3,0.6,0.9,1.9,1.2,2.5c0,4.6-0.3,9.3-0.9,13.9
			c-5.4,0.1-10.8,0.1-16.2,0.4c0-0.6,0.1-1.7,0.1-2.3c3.8,0.4,7.6,0.7,11.4,0.6C188.4,368.8,189.9,369,190.6,367.8z"/>
	</g>
	<g>
		<path class="st39" d="M216.1,356.8c2.8,0.2,6.1,0.5,8.2,2.6c-2.8,0.1-5.7-0.1-8.5-0.2C215.9,358.6,216.1,357.4,216.1,356.8z"/>
	</g>
	<g>
		<path class="st40" d="M307.7,361.7c1.5,0,2.9,0,4.4,0.1c1.1,1,0.6,2.8,0.9,4.2c-1.7,0-3.3,0.1-5,0.1
			C307.9,364.6,307.8,363.1,307.7,361.7z"/>
	</g>
	<g>
		<path class="st41" d="M211.8,362.6c2.3,4.1,1,9.3,0.9,13.8l-1.2-0.9C211.4,371.2,211.7,366.9,211.8,362.6z"/>
	</g>
	<g>
		<path class="st42" d="M454.4,365.2c0.3-0.4,1-1.2,1.3-1.6c1,4.3,1.9,8.7,3,12.9c1.9,0.2,3.9,0.5,5.8,0.7l-0.8,1.2
			c-2.1,0-4.2-0.2-6.3-0.4C456.4,373.7,455.3,369.4,454.4,365.2z"/>
	</g>
	<g>
		<path class="st43" d="M107.8,369.7c0.4,0.5,1.3,1.5,1.7,2c2.7,0.3,5.5,0.8,8.1,1.4c-3.5,0.3-7,0.4-10.4,0.7
			C107.4,372.7,107.7,370.7,107.8,369.7z"/>
	</g>
	<g>
		<path class="st44" d="M342.1,375.1c0.1-1.1-0.4-3.3,1-3.7c0.3,1.7,0.5,3.4,0.7,5.1C343,378.2,341.8,376,342.1,375.1z"/>
	</g>
	<g>
		<path class="st45" d="M439,396.6c0.6-0.4,1.8-1.1,2.4-1.5c3.3,0.3,6.7,0.5,10,0.8C447.7,398.3,443.1,396.7,439,396.6z"/>
	</g>
	<g>
		<path class="st46" d="M176.9,399.8c72.3-2.1,144.8-1,217,2.9c8.8,0.4,17.7,0.8,26.4,1.8c-1.7,0.6-3.6,0.8-5.4,0.6
			c-108.9-4.6-218.1-4.8-327,0c-1.8,0-3.7,0.2-5.3-0.7C114,401.9,145.5,401.1,176.9,399.8z"/>
		<path class="st46" d="M95.4,410.8c86-6.1,172.4-7.4,258.6-3.2c20,1.1,40,1.9,60,3.8c4,0,8,0.3,11.9,1.2c-9.3,0.4-18.6-1.2-27.9-1
			c-44.9-2.6-90-3.1-135-3.6c-53,0.2-106.1,0.7-159,3.6c-8.7-0.2-17.3,1.4-26,1C83.7,411,89.7,411.9,95.4,410.8z"/>
	</g>
	<g>
		<path class="st47" d="M145.1,414.3c5-0.2,9.9-0.3,14.9-0.3c4.9,0,10-0.7,14.8,1c-9.2,0.6-18.5,0.6-27.8,0.8
			C146.5,415.4,145.6,414.6,145.1,414.3z"/>
		<path class="st47" d="M349.2,416c7.5-2,15.3-0.9,22.9-0.4c-0.6,0.3-1.8,0.9-2.4,1.2C362.9,416.6,356,416.6,349.2,416z"/>
	</g>
	<g>
		<path class="st0" d="M319.2,415c2.2-0.8,4.5-1.5,6.8-1.3c7.6,0.2,15.3,0,23,0.5c-0.7,0.6-1.4,1.2-2.1,1.8
			C337.6,415.4,328.4,415.7,319.2,415z"/>
	</g>
</g>
</svg>
