<?xml version="1.0" encoding="utf-8"?>
<!-- Generator: Adobe Illustrator 21.0.0, SVG Export Plug-In . SVG Version: 6.00 Build 0)  -->
<svg version="1.1" id="Layer_1" xmlns="http://www.w3.org/2000/svg" xmlns:xlink="http://www.w3.org/1999/xlink" x="0px" y="0px"
	 viewBox="0 0 949.4 786.2" style="enable-background:new 0 0 949.4 786.2;" xml:space="preserve">
<style type="text/css">
	.st0{fill:#121B44;stroke:#121B44;stroke-width:9.375000e-02;}
	.st1{fill:#F6F7F8;stroke:#F6F7F8;stroke-width:9.375000e-02;}
	.st2{fill:#2CA8DF;stroke:#2CA8DF;stroke-width:9.375000e-02;}
	.st3{fill:#1572B9;stroke:#1572B9;stroke-width:9.375000e-02;}
	.st4{fill:#B5B5B6;stroke:#B5B5B6;stroke-width:9.375000e-02;}
	.st5{fill:#F5F4F5;stroke:#F5F4F5;stroke-width:9.375000e-02;}
	.st6{fill:#F8FBEF;stroke:#F8FBEF;stroke-width:9.375000e-02;}
</style>
<path class="st0" d="M486.1,3.5c9.8-3.4,20.8-5,30.9-1.4c3.9,1.8,8-0.3,12,0c6.5-0.1,12.8,2.5,17.8,6.5c5.5-1.2,11.7-1.1,16.6,2
	c4.8,2.9,7.7,8,9.4,13.2c14.8,3.5,28.3,11.5,38.8,22.4c14.7,15.1,24.5,34.3,31.4,54c14.8,2.6,29.7,5.1,44.5,7.6
	c-2.8,21.8,1.2,44.5,11.7,63.9c14.3,26.9,40.7,47.1,70.5,53.5c7.9,1.8,16,2.6,24.2,2.5c-0.2,49.3-3.6,98.7-12.8,147.1
	c-10.4,55.7-28.8,110-55.4,160.1c15.1-0.6,30.3-1.4,45.4-2.2c-0.5-3.7-0.9-7.3-1.4-11c47.7-2.5,95.4-5.7,143.1-8.7
	c12.1,75.7,24.3,151.4,36.5,227.1C828.5,724,706.8,714.1,585,710.2c-1.7,0.1-3.7-0.6-5.1,0.8c-33.8,28.1-70.1,52.9-108,75.2
	c-36.8-21.6-72.2-45.7-105.2-72.8c-2-1.5-3.9-4.1-6.8-3.5c-97.6,2.9-195.2,9.4-292.1,21.1c-22.7,2.6-45.2,6-67.8,9.4
	c14.6-75.7,29.2-151.4,43.8-227.1c27.3,2.6,54.6,4.3,81.9,5.8c7,0.5,14.3,0.2,21.1,2.5c6.2,2,12,5.5,16.4,10.4
	c2.1,2.6,5.7,2.8,8.8,3.3c15.8,1.1,31.7,2,47.5,2.8c-19.6-36.3-34.9-74.9-45.8-114.7c-17.5-63.5-23.7-129.7-23.9-195.4
	c28.8,0.5,57.6-11.6,77.5-32.4c22.3-22.8,33.2-55.9,28.9-87.5c15.6-2.6,31.1-5.3,46.7-8c1.7-4,4.3-7.6,5.5-11.8
	c5.5-20.5,19.6-37.8,36.6-50.2c6.8-4.3,12.3-10.5,19.4-14.4c6.5-3.8,13.8-6.6,21.5-6.5c3.8-0.3,7.9,0.4,11.3-1.8
	c11.7-6.8,24.7-11.7,38.3-12.5C452.2,0.2,469.3,1.1,486.1,3.5 M496.8,8.9c-7.3,1.3-13.3,5.9-19.2,10c-18.3,12.6-34.5,28.1-48.8,45
	C422.1,72,415.7,80.6,411,90c-1.9,3.6-3.2,7.6-3,11.7c-0.9,10.5,4.4,20.5,11.8,27.6c1.6,1.7,4,2.2,6.1,2.9c4,1.2,8,2.7,12.3,2.9
	c-2.2-4.2-5.9-7.4-7.5-11.8c-2-4.2-2.2-8.9-2-13.4c2.8-13.7,10.9-25.6,20.2-35.8c13-14,28.4-25.6,44.6-35.6c3.1-2,6.6-3.5,9.3-6
	c4.4-3.8,8.9-8.4,9.9-14.4c0.6-3.7-1.4-7.2-3.9-9.7C504.7,8.1,500.7,8.1,496.8,8.9 M520.3,11.5c0.8,8.2-5.6,14.3-10.3,20.1
	c-3.3,2.9-6.2,6.1-9.5,8.8c-9.1,8.2-19.8,14.2-28.9,22.2c-13.2,11.3-25.7,25.2-29.4,42.7c-0.6,6.3-1,13.5,2.4,19.1
	c7.9,7.1,19,10.1,29.5,10.6c-2.2-5.4-3.9-11-4.2-16.8c-0.2-10.3,5.1-20.2,13.5-26c11-7.2,22.6-13.6,32.6-22.2c4.9-4.1,8.9-9.1,13-14
	c-9.4,15.6-22.5,29.1-38,38.8c-6.2,4-10,11-11.3,18.2c-1.2,5.9-0.7,12.1,0.5,18c0.2,2.2,2.4,3.2,3.8,4.6c3.7-0.3,7.6,0.3,11-1.6
	c10.9-5.6,20.6-13.2,29.2-21.8c8.1-8.6,15.9-17.8,21.2-28.4c1.3-1.3,2-3,2.9-4.5c6.2-11.7,11.1-24,14.4-36.8
	c1.1-4.1,2.4-8.3,2.8-12.5c-0.3-4.6-2.1-9.7-6.2-12.3c-3-1.9-6.7-1.9-10-1.2c-0.8,2.8-1.1,5.6-1.9,8.4c-6.5,18.8-22,34.3-40.6,41.2
	c9.7-6.8,19.6-13.9,26.7-23.6c4.1-6.2,8.2-12.5,10.5-19.6c-0.1-2.4,0.2-5.3-1.8-7C536.7,9.8,527.7,9.4,520.3,11.5 M437.9,12.2
	c-4.3,0.4-7.6,3.5-10.6,6.2c-5.8,5.7-10.8,12.1-15.3,18.9c-5.5,7.7-10.1,16-14.4,24.4c-4.9,10-9.3,20.3-11.2,31.3
	c-0.7,4-0.5,8,0.2,12c2.6,11.8,11.5,21.1,21.6,27.1c-2.3-3.4-5.1-6.6-6.7-10.5c-2.4-5.1-3-10.8-2.6-16.3c0.9-6.8,3.5-13.3,7.1-19.1
	c16.7-27.4,40.9-49.4,66.7-68.3l0.3,0c3.1-2.2,6.3-4.1,9.3-6.4C467.5,10.1,452.5,10,437.9,12.2 M375.8,27.2
	c-6.6,2.5-12.3,6.5-17.6,11c0,2.4,0,4.7,0,7c0.5,15.4,1.5,31,5.8,45.8c0.5,1.6,0.9,3.3,1.9,4.7c2.2,7.7,7,15.8,15,18.5
	c-1.3-3.2-2.3-6.5-3-9.9c-0.8-11.7,2.9-23.1,7.6-33.6c5.4-12,12.2-23.3,19.7-34c1.2-1.8,3.5-3.8,2.1-6.2c-2.3-3.6-7-4.1-10.8-4.7
	C389.6,25.3,382.4,24.5,375.8,27.2 M566.1,50.4c-5.6,15.8-12.2,31.4-21.1,45.7c-4.8,8.2-10.9,15.6-16.8,23.1l0-1.1
	c-4.5,6.4-11,11-17.1,15.7c8-1.1,16-2.3,23.8-4.5c9.4-3,18.1-8.2,25.2-15c10.9-10.5,17.5-25.4,17.5-40.5c0.9-8.2-0.2-16.5-2-24.5
	c-1.1-5.6-2.7-11-4.5-16.3C569.3,38.6,567.9,44.6,566.1,50.4 M574.6,32.8c1.5,4.2,3,8.4,4.2,12.7c3.8,13.5,6.2,27.6,5.1,41.7
	c-0.9,11.8-5.2,23.7-14,32c3.3-0.9,6.6-1.9,9.9-2.8c8.6-1.6,14.3-9.4,17.8-16.8c0.1,5.7-2.9,10.8-5.5,15.7c0.2,3.5,0.6,7.8,3.6,10.2
	c10.4,9.8,21,19.3,32.5,27.8c-10.2-3-19.3-8.7-27.4-15.4c1,3.9,1.1,8.3,3.8,11.5c6,7.3,12.5,14.3,20.2,19.8
	c-7.2-3.1-13.6-7.8-20.1-12.1c0.6,2,0.7,4.4,2.2,6c7,7.4,14.8,14.1,23,20.1c-7.6-3.7-14.8-8.2-22.4-12.1c0.3,2,0.5,4,0.9,6
	c0.3,2.7,2.8,4.2,4.5,6c6.7,6.8,13.6,13.3,20.1,20.3c-7.9-5.1-14.9-11.4-22.7-16.7c0.4,3.9,1,7.8,1.6,11.6
	c8.7,8.5,17.7,16.8,24.6,26.8c-8.2-5.4-15.8-11.7-23.6-17.6c0.6,6.3,1.4,12.6,2.1,18.8c0.1,3.4,3.1,5.4,4.9,7.8
	c6.7,8.1,13.7,15.9,20.1,24.3c-8.1-4.4-15.5-10-22.6-15.9c0.9,3.7,0.7,7.9,2.7,11.3c8,11.1,11.3,24.9,12.5,38.3
	c1.1,10.8-0.1,21.7,0.4,32.5c1.2,0.3,2.5,0.7,3.7,1.1c0.5-5.5,1-11.1,1.6-16.6c0.3-3.5,2.6-6.3,4.1-9.3c2.7-4.8,1.8-10.4,2-15.6
	c0.2-8-0.1-16,0.5-24c1.6-22,3.2-44,4.8-65.9c0.3-6,1.3-11.9,0.5-17.9c-2.8-30.2-8.9-60.5-21.3-88.3c-6.7-14.6-15.2-28.8-27.5-39.4
	c2.8,11,5.7,22.9,2.5,34.1c0.9-11-2.3-21.9-5-32.5c-0.8-2.1-0.7-4.9-2.8-6.3C589.8,38.9,582.4,35.2,574.6,32.8 M334,58.9
	c0.3,2,0.6,3.9,0.9,5.9c3,16.6,9.2,32.7,18.2,46.9c1.4,2.3,2.9,4.6,4.7,6.6c3.4-0.3,6.9-0.6,10.3-0.8c-4.5-4.1-7.4-9.4-9.8-14.9
	c-5.1-17.4-6.1-35.8-5.8-53.8c0.1-2.1,0.1-4.2,0.2-6.3C345.9,47.2,339.5,52.7,334,58.9 M315.7,92.6l-0.5,0.8l0.5,1.1l-0.3-0.7
	c-2.2,3.8-4.1,7.7-5.9,11.7c-12.3,27.7-18.4,58.4-15.8,88.6c2.1,18.5,3.2,37,5,55.5c1.1,6.9,2.5,13.8,3.7,20.8
	c5.5-8.6,10.2-17.6,15.5-26.3c1.2-2.2,2.9-4.3,2.8-6.9c0.2-6.3,0.5-12.5,0.6-18.8c-7.4,6.1-14.1,12.8-21.5,18.8
	c1.4-4,4.3-7.1,6.7-10.5c4.6-6.1,9.8-11.7,14.7-17.5c1.2-3.8,0.7-8,1.1-12c-7.9,6.3-15,13.6-22.9,20c7.5-8.7,14.9-17.5,22.4-26.2
	c2.5-2.6,1.5-6.5,2-9.7c-6.6,4.3-13,9-19.9,13c7.3-6.4,14.2-13.3,20.1-21.1c1.2-1.7,1-3.8,1.5-5.7c-6.4,4.7-12.5,9.9-19.4,13.8
	c7.4-6.4,13.6-13.9,19.1-22c2.3-3.3,2-7.6,2.8-11.4c-7.7,7.2-16.3,13.8-26.2,17.4c10.9-9.4,20.9-20,30.6-30.7
	c1.3-2.4,1.5-5.6,0.9-8.2c-2.4-3.4-3.9-7.3-5.2-11.3c2.5,2.8,5.8,4.6,9,6.4c4-1.1,7.9-2.2,11.9-3.3c-3-3.5-5.4-7.4-7.1-11.7
	c-5.1-12.2-7.5-25.2-9.6-38.1c-0.3-2.1-0.5-4.1-0.8-6.2C323.9,70.8,318.4,81.3,315.7,92.6 M278.8,126.1c-1.5,29.1-13,57.6-32.1,79.6
	c-19.5,22.7-46.8,38.5-76.3,44c1.6,59.5,8.7,119.1,25.4,176.3c11.4,39.3,27.2,77.4,47.4,113c6.2,0.2,12.4,0.6,18.6,0.7
	c4.1,0.5,8.2,0.3,12.4,0.4c11.6,0.4,23.1,0.8,34.6,0.9c9-42.8,14.4-86.3,18.6-129.8c-5-15.7-8.9-31.9-11.5-48.2
	c-0.8-4.5-1-9.1-2.4-13.4c-4.9,3.7-12,0.5-13.9-5c-1.7-5.5-1.6-11.4-1.9-17.1c-5-4.1-8-9.9-10.6-15.6c-5.2-11.8-8.6-24.4-11.9-36.8
	c-1.1-6.3,5.9-9.6,10.6-11.8c2.6,0.8,5.3,1.7,7.9,2.5c-0.9-5.8-2.9-11.3-3.5-17.1c-1.3-15.2-2.5-30.4-3.9-45.6
	c-3.5-26.6-0.6-53.9,7.3-79.4C288.7,124.4,283.8,125.2,278.8,126.1 M517,141.2c-18.9,2.7-38,3.2-57,2.8c-16.7-0.2-33.5-0.2-50.1-2.4
	c-22.9-3.3-45.5-7.9-68.5-10.5c-3,34.4-6.1,68.8-9.1,103.1c-0.3,7.4-4.9,13.6-6.2,20.8c-1.3,7.4-3.3,14.7-4.2,22.1
	c0.4,19.9,0.9,39.8,1.3,59.7c1.7-0.5,3.5-0.8,5.1-1.5c5-0.5,9.8-2,14.8-3c36.4-7.9,73-15.1,110.1-18.7c15.3-1.4,30.7-0.8,46,0
	c23.3,0.9,46.7,2.5,69.9,4.8c20,2.1,40,4.6,59.5,9.8c-1.2-8.3-4.2-16.4-3.4-25c-0.3-16.1-2.6-33.4-12.9-46.4
	c-2.7-11-4.8-22.3-5.9-33.6c-5.4-33.6-13.4-66.8-21.1-99.9C562.5,129.2,540.4,137.8,517,141.2 M650.1,123.5
	c2.6,10.6,4.8,21.2,6.2,32c1.4,11.4,3.4,23,2.1,34.5c-1.8,25.6-3.8,51.1-5.5,76.7c3.7-1.1,7.3-2.4,10.9-3.5c3.7,2,8,3.9,9.9,7.9
	c1.2,2.2,0.1,4.7-0.4,7c-3.3,12-6.6,24.1-11.9,35.4c-2.4,5.2-5.4,10.3-9.9,14.1c-0.3,6,0,12.2-2.2,17.9c-2.4,5.3-9.2,7.4-14,3.9
	c-4.8,25.7-11.9,50.9-20.3,75.6c3.3,38.1,8.6,76.1,16,113.6c12.8-0.2,25.6-0.8,38.3-1.3c3-0.1,6.1-0.2,9.1-0.3
	c7.8-0.3,15.7-0.7,23.5-0.9c25.9-46,44.2-96.2,55.4-147.7c10-45.6,14.6-92.2,15.8-138.9c-24.7-4.6-48-16.4-66.4-33.7
	c-24.9-23.1-40.3-56-42-89.9C660,125.2,655.1,124.4,650.1,123.5 M305.4,271.5c-0.9,1.4-2.5,2.7-2,4.5c3.8,20.9,7.7,41.8,11.4,62.6
	c1.3-0.2,2.7-0.5,4-0.7c-1.9-20.3-3.5-40.6-5.2-60.9c0.5-7,2.8-13.8,3.7-20.8C313,260.9,309.5,266.4,305.4,271.5 M287.4,270.6
	c-2.5,1.5-5.9,4.2-4.4,7.5c2.7,9.3,5.3,18.7,9.5,27.5c1.3,3.1,1.8,6.5,3.8,9.2c2.5,3.6,5,7.4,6.4,11.6c-0.1,5.6-1.7,12.6,3.3,16.7
	c1.7,2.2,4.4,0.6,6-0.9c-0.5-1.8-0.9-3.7-1.3-5.5c-0.6-1.5,0.2-5.2-2.5-3.8c0.6-4.7-0.5-9.3-1.6-13.8c-1.8-7.4-3.4-14.8-5.2-22.1
	c-1.5-6.3-5-11.7-8.4-17.1c1.8,1,3.5,2.2,5.1,3.4c-0.2-1.2-0.4-2.4-0.5-3.6l-0.2,0.1c-0.7-1.9-0.4-4.5-2.3-5.8
	C292.8,272.3,290.3,270,287.4,270.6 M658.1,271.3c-1.9,1.3-4.5,2.5-5.3,4.8c-0.1,2-0.1,3.9-0.1,5.9c1.1-0.7,2.3-1.3,3.4-2
	c-1.1,2-2.5,3.9-3.3,6c-0.3,2.5-0.1,5,0.1,7.6c0.2,6.1-4,11-6.3,16.4l0,0.5c-2,4.4-3,9-4.5,13.5c-0.9,2.6-1.2,5.4-1,8.1
	c-2.3-0.1-1.9,2.4-2.5,3.9c-0.4,2-0.8,4-1.3,5.9c1.6,1.7,4.6,3.1,6.3,0.7c4.8-4.2,3.1-11,3-16.6c1.4-4.1,3.7-7.7,6.1-11.2
	c2.8-3.8,3.2-8.6,5.5-12.6c3.6-8.5,6.3-17.4,8.5-26.4C665.9,272.6,661.7,268.7,658.1,271.3 M452.1,321.6c-15.1,4.3-30.3,8-45.2,12.6
	c-13.8,3.3-27.3,8-41.1,11.7c5.3-2.6,10.6-5,15.7-7.9c6.3-2.7,12.5-5.8,18.5-9.1c-25.7,4.6-51.3,9.8-76.6,16c0,0.6,0,1.9,0,2.6
	c2,18.7,11.8,36.1,25.9,48.4c0.9,0.6,1.8,1.2,2.8,1.7c1.2,1.4,2.8,2.5,4.2,3.7l0.7,0.3c-0.3,0.3-0.9,0.8-1.2,1
	c-9.6-2.6-17.9-8.2-25.6-14.3c2.9,4.2,5.9,8.4,9.5,12c8.3,10.1,18.7,18.3,28.9,26.3c-11.2-1.7-22.2-5.2-31.7-11.4
	c13.6,39.3,34.6,76,61.5,107.6c8.6,3.8,17.6,6.8,26.6,9.7c3.1,1.1,6.6,1.3,9.2,3.4c-4.9,0.1-9.7-0.4-14.6-0.4
	c10.4,2.1,21.1,3.6,31.8,2.8c-12.7,2.5-25.9,2.6-38.7,0.8c18.3,20,38.9,38.1,61.4,53.3c1.7,1.6,3.6-0.1,5.3-0.9
	c31.7-16.7,58-42.3,78.6-71.3c18.5-26.1,33.2-54.7,44.4-84.6c-3,2.6-5.5,5.8-8.6,8.5c-13.6,12.5-30.4,21.2-47.8,27.1
	c-17.3,5.8-35.4,9.2-53.5,10.3c-2,0.2-3.9,0.6-5.8,1.1c0-0.5,0-1.1,0-1.6c2.7,0.9,5.5,0,8.3-0.3c34-4.6,65.9-22.3,88.1-48.4
	c-12.7,6.1-27,7.9-40.9,8.7c21.4-2.8,40.8-14.7,54.7-31c8.9-10.4,16.5-22.1,21.6-34.8c6.4-11.1,8.9-23.7,10.8-36.2
	c0.1-0.8,0.2-1.6,0.4-2.3c-19.2-5.6-39.2-8-59-10.2c-29.1-3-58.3-4.7-87.6-5.6C472.6,320.2,462.3,320.4,452.1,321.6 M347.1,458.9
	c0.9,27.7,3.7,55.4,7.3,82.9c16.8,0.3,33.6,0.4,50.3,0.4C382,517.3,362,489.4,347.1,458.9 M595.5,472.1
	c-11.9,24.4-26.1,47.7-43.4,68.7c11.6-0.2,23.2-0.5,34.8-0.8C590.7,517.5,593.7,494.9,595.5,472.1 M865.2,527.5
	c5.5,36.4,11,72.9,16.4,109.3c0.7,4.8,1.5,9.5,2.1,14.3c-2.1-4.9-4-9.8-6-14.8c-14.2-35.7-28.7-71.3-42.9-107
	c-17.4,0.8-34.8,1.9-52.2,2.7c3.8,32.1,7.6,64.2,11.4,96.3c3.2,27.3,6.5,54.7,9.7,82c13.7,1.5,27.4,2.9,41,4.4
	c-3.6-27.7-7.3-55.4-11-83c-1.5-11.7-3.2-23.4-4.6-35.1c5,12,9.7,24.1,14.7,36.1c11.5,28.7,23.1,57.3,34.5,86
	c19.1,2.6,38.2,5.1,57.3,7.9c-4.5-28.3-9.1-56.6-13.7-84.9c-6.3-38.9-12.7-77.9-19.1-116.8C890.3,525.9,877.7,526.7,865.2,527.5
	 M30.7,642.4c-5.5,28.1-11,56.2-16.4,84.4c13.9-2,27.7-4,41.6-5.8c4.3-23,8.3-46.2,12.7-69.2c7.1-0.5,14.3-0.9,21.4-1.4
	c3.1-0.2,6.5-0.3,9.3,1.3c3.3,1.7,5.6,5.5,4.8,9.3c-3,18.4-6.3,36.7-9.3,55.1c13.7-1.6,27.3-3.3,41-4.5c3.2-17.8,5.6-35.7,8.5-53.6
	c1.6-9.3-1.6-19.3-8.8-25.5l-0.3,0l-1.5-1.5c9.3-6.2,17-15.6,19-26.9c2.6-16.4,5.2-32.8,7.7-49.2c1.7-12.8-10.3-23.7-22.4-24.4
	c-28.1-1.6-56.3-3.2-84.4-5.1C46,564.5,38.3,603.4,30.7,642.4 M168.8,630.1c-3,20.4-6.1,40.8-9,61.3c28.6-2.3,57.3-4.3,86-6
	c0.9-8.2,2-16.4,2.8-24.7c-17.6,0.8-35.3,1.7-52.9,2.6c1.3-10.1,2.7-20.2,4.1-30.3c14.5-0.6,29-0.8,43.5-1.4c0.2-2,0.5-4,0.7-6
	c0.7-6.3,1.5-12.6,2.2-18.8c-14.3,0.3-28.6,0.3-43,0.6c1.4-10.1,2.8-20.2,4.1-30.4c16.8,0.1,33.5,0.4,50.3,0.3
	c0.8-8.2,1.8-16.3,2.7-24.5c-26.6-0.6-53.2-1.4-79.8-2.1C176.7,577.1,172.7,603.6,168.8,630.1 M678.1,563.2
	c-2.2,3.9-1.5,8.5-1.2,12.8c1.1,15.2,2.2,30.4,3.3,45.6h0.2c0.6,14.2,2,28.3,2.9,42.4c0.1,3.7,1,7.4,3.3,10.4
	c5.1,6.7,13.3,10.5,21.5,11c16,1,31.9,2,47.8,3.1c5.9,0.5,12.1-0.9,16.7-4.9c3.7-3,5.5-7.9,4.8-12.6c-1.6-14.8-3.3-29.6-4.9-44.4
	c-2.1-19.1-4.2-38.1-6.3-57.2c-1.5-12.1-14.9-19.4-26.3-18.1c-14.4,0.5-28.7,0.8-43.1,1.2C689.4,552.7,681.7,556.6,678.1,563.2
	 M263.9,624.5c-2.2,20.1-4.5,40.2-6.7,60.3c16.9-1,33.8-1.7,50.7-2.5c12.6-1,25.4-4.8,35.2-12.9c5.8-4.7,10.1-11.6,10.7-19.2
	c0.4-5.4,1.1-10.7,1-16.1c-0.1-5-2.6-9.5-5.9-13c-2-1.6-4.1-3.1-6.3-4.5c5.8-4,10.5-10.2,11.2-17.4c0.8-8.7,1.3-17.4,2-26
	c0.4-3.4-0.1-6.9-2-9.7c-4.1-6.1-11.6-9.2-18.7-9.2c-21-0.3-42.1-0.7-63.1-1.1C269.2,576.9,266.5,600.7,263.9,624.5 M627.2,554
	c1.1,22,2.2,44,3.4,66c1.1,20.6,2,41.3,3.2,61.9c10.7,0.3,21.3,1,32,1.3c-1.3-20.7-2.8-41.4-4-62.1l-0.2,0
	c-1.2-22.5-2.9-45.1-4.3-67.6C647.3,553.6,637.2,553.7,627.2,554 M547.5,555c0.2,21.2,0.6,42.4,0.9,63.6c0.3,20.3,0.6,40.6,0.9,60.9
	c25.4,0.4,50.8,1.2,76.2,2c-0.4-7.9-0.7-15.8-1.2-23.7c-14.6-0.5-29.2-0.5-43.8-1.2c-0.2-12.6-0.7-25.2-1-37.7
	c-0.6-21.4-1.3-42.8-1.8-64.2C567.6,554.7,557.5,554.8,547.5,555 M372.3,620.3c-1.3,20-2.6,39.9-3.8,59.9
	c28.4-0.8,56.7-1.1,85.1-1.4c0.2-7.7,0.5-15.3,0.6-23c-17.5,0.2-35,0.3-52.5,0.5c0.4-9.1,0.9-18.3,1.4-27.4
	c14.4-0.3,28.8-0.1,43.3-0.4c0.1-3.2,0.2-6.4,0.2-9.7h0.1c0.1-4.4,0.3-8.8,0.3-13.3c-14.2,0.1-28.5,0-42.7,0
	c0.7-9.1,0.6-18.4,1.7-27.4c12.1-0.2,24.2,0.3,36.3,0c-8.7-7.4-17.1-15-25.2-23.1c-13.5-0.2-27-0.2-40.5-0.4
	C375.1,576.6,373.7,598.4,372.3,620.3 M475.1,602.2c-2.8-1.7-5.5-3.5-8.3-5.2c-0.2,7.2-0.3,14.4-0.5,21.6c-0.4,20.1-1,40.2-1.3,60.3
	c25.4-0.1,50.7,0,76.1,0.4c-0.2-7.7-0.2-15.4-0.3-23.1c-14.6-0.3-29.1-0.2-43.7-0.4c0-12.4,0.3-24.9,0.2-37.3
	c0.2-9.6,0.2-19.1,0.3-28.7C490.3,594.3,482.8,598.5,475.1,602.2 M392.3,709.1c25.3,20.1,52,38.3,79.6,55.1
	c27.5-16.8,54.2-34.9,79.3-54.9c-10.1-0.1-20.2-0.6-30.2-0.4c-15.8,10.9-32.9,20.1-51.3,25.7c-18.6-5.4-36-14.7-51.8-25.9
	C409.5,708.8,400.9,708.8,392.3,709.1z"/>
<path class="st1" d="M496.8,8.9c3.9-0.9,7.9-0.8,11.9-0.6c2.5,2.5,4.6,6,3.9,9.7c-1,6-5.4,10.6-9.9,14.4c2.5-5,4.1-11.3,1.2-16.5
	c-1.3-2.6-4.3-3.6-7-3.2c-6.8,0.8-13.1,3.6-19.4,6C483.5,14.8,489.5,10.2,496.8,8.9z"/>
<path class="st1" d="M520.3,11.5c7.4-2.1,16.4-1.7,21.9,4.4c2,1.7,1.7,4.6,1.8,7c-2.3-2.6-5.7-3.3-8.9-2.4
	c-9,2.1-17.1,6.7-25.1,11.1C514.7,25.8,521.1,19.7,520.3,11.5z"/>
<path class="st1" d="M437.9,12.2c14.6-2.2,29.6-2.1,44.3-0.7c-3,2.3-6.2,4.2-9.3,6.4l-0.3,0c-21.6-2.3-45.5,3-60.7,19.5
	c4.5-6.8,9.5-13.2,15.3-18.9C430.3,15.7,433.6,12.6,437.9,12.2z"/>
<path class="st2" d="M477.6,18.9c6.3-2.5,12.6-5.3,19.4-6c2.7-0.5,5.8,0.6,7,3.2c2.9,5.2,1.3,11.5-1.2,16.5c-2.7,2.6-6.2,4-9.3,6
	c-16.3,10-31.7,21.5-44.6,35.6c-9.3,10.2-17.4,22.1-20.2,35.8c-0.3,1-0.5,2-0.8,3c-3.1-0.2-6.3-0.4-9.1-1.7
	c-4.5-1.9-7.8-5.7-10.8-9.5c-0.3-4.1,1.1-8.1,3-11.7c4.8-9.5,11.1-18,17.9-26.1C443.2,47,459.4,31.5,477.6,18.9z"/>
<path class="st1" d="M549.2,16.5c3.3-0.6,7.1-0.7,10,1.2c4.1,2.6,5.9,7.7,6.2,12.3c-0.4,4.3-1.7,8.4-2.8,12.5
	c-1.6-8.1-7.6-14.9-15.3-17.7C548.2,22.1,548.5,19.3,549.2,16.5z"/>
<path class="st2" d="M412,37.3c15.2-16.5,39-21.7,60.7-19.5c-25.8,18.8-50,40.8-66.7,68.3c-3.7,5.8-6.2,12.3-7.1,19.1
	c-2.2,0.9-4.4,2.3-6.9,2c-1.9-0.4-3.6-1.4-5.4-2.3c-0.6-4-0.9-8-0.2-12c1.8-11,6.3-21.4,11.2-31.3C401.9,53.3,406.5,45,412,37.3z"/>
<path class="st2" d="M510,31.6c8-4.4,16.1-9.1,25.1-11.1c3.3-1,6.7-0.2,8.9,2.4c-2.3,7.1-6.4,13.4-10.5,19.6
	c-7.1,9.7-17,16.8-26.7,23.6c18.6-6.9,34-22.4,40.6-41.2c7.7,2.8,13.7,9.6,15.3,17.7c-3.3,12.8-8.2,25.2-14.4,36.8
	c-0.9,1.6-1.7,3.2-2.9,4.5c-8.1,6.1-15.8,12.9-24.6,18c-12.7,7.4-26.6,13.4-41.4,14.7c0.1-0.9,0.2-2.6,0.3-3.5
	C480.9,106,484.8,99,491,95c15.5-9.7,28.5-23.2,38-38.8c-4.1,4.8-8.1,9.8-13,14c-10,8.6-21.6,15-32.6,22.2
	c-8.5,5.8-13.7,15.7-13.5,26c-10.6,0.3-21.1-4.7-27.7-12.9c3.7-17.5,16.2-31.4,29.4-42.7c9.1-8.1,19.8-14.1,28.9-22.2
	C503.8,37.7,506.7,34.5,510,31.6z"/>
<path class="st1" d="M375.8,27.2c6.5-2.7,13.8-1.9,20.6-1.4c3.8,0.6,8.5,1.1,10.8,4.7c1.5,2.4-0.8,4.4-2.1,6.2
	c-5.3-2.9-11.1-4.9-17.2-4.7c-11.3,0.1-21.6,6-29.8,13.3c0-2.4,0-4.7,0-7C363.5,33.7,369.3,29.6,375.8,27.2z"/>
<path class="st2" d="M358.2,45.2c8.2-7.3,18.5-13.2,29.8-13.3c6.1-0.2,11.9,1.9,17.2,4.7c-7.5,10.7-14.4,22-19.7,34
	c-4.7,10.6-8.4,21.9-7.6,33.6c-4.3-2.4-8.2-5.4-11.9-8.6c-1-1.4-1.4-3.1-1.9-4.7C359.7,76.2,358.7,60.6,358.2,45.2z"/>
<path class="st1" d="M566.1,50.4c1.8-5.8,3.2-11.8,5.1-17.6c1.8,5.3,3.5,10.8,4.5,16.3c-1.3-2.7-2.9-5.2-4.3-7.8
	C569.6,44.4,567.8,47.3,566.1,50.4z"/>
<path class="st1" d="M574.6,32.8c7.8,2.4,15.2,6.1,21.7,11c2.1,1.3,2,4.2,2.8,6.3c2.7,10.6,5.8,21.4,5,32.5
	c-0.2,0.5-0.5,1.7-0.6,2.2c-0.9-9.9-1.7-20.1-5.8-29.4c-2-4.3-5-8.7-9.7-10.2c-3-1.1-6.1-0.3-9.1,0.3
	C577.6,41.2,576.2,37,574.6,32.8z"/>
<path class="st2" d="M571.4,41.4c1.5,2.6,3,5.1,4.3,7.8c1.8,8,2.9,16.3,2,24.5c-3.1,6.2-5.8,12.6-9.8,18.2
	c-9.1,13.6-23.4,24.1-39.6,27.3c5.9-7.5,12-14.8,16.8-23.1c8.8-14.3,15.5-29.9,21.1-45.7C567.8,47.3,569.6,44.4,571.4,41.4z"/>
<path class="st1" d="M334,58.9c5.5-6.2,11.9-11.7,18.8-16.4c-0.1,2.1-0.1,4.2-0.2,6.3c-6.4,4.7-12.2,10.2-17.6,16
	C334.6,62.9,334.3,60.9,334,58.9z"/>
<path class="st2" d="M578.9,45.5c3-0.6,6.1-1.5,9.1-0.3c4.7,1.6,7.8,5.9,9.7,10.2c4.1,9.2,4.9,19.4,5.8,29.4
	c-1.3,5.2-3.8,9.9-5.8,14.7c-3.5,7.4-9.2,15.2-17.8,16.8c-3.3,0.9-6.6,1.9-9.9,2.8c8.8-8.3,13.1-20.1,14-32
	C585.1,73.1,582.6,59,578.9,45.5z"/>
<path class="st2" d="M334.9,64.8c5.4-5.8,11.2-11.3,17.6-16c-0.3,18.1,0.7,36.4,5.8,53.8c-1,3.4-2.7,6.6-5.2,9.1
	C344.1,97.5,337.9,81.4,334.9,64.8z"/>
<path class="st3" d="M601.6,48.4c12.3,10.6,20.8,24.8,27.5,39.4c12.4,27.8,18.5,58.1,21.3,88.3c0.7,6-0.2,11.9-0.5,17.9
	c-1.6,22-3.2,43.9-4.8,65.9c-0.6,8-0.3,16-0.5,24c-0.2,5.2,0.7,10.9-2,15.6c-1.5,3-3.8,5.8-4.1,9.3c-0.6,5.6-1.1,11.1-1.6,16.6
	c-1.3-0.4-2.5-0.7-3.7-1.1c-0.5-10.8,0.8-21.7-0.4-32.5c-1.3-13.4-4.5-27.2-12.5-38.3c-1.9-3.4-1.8-7.5-2.7-11.3
	c7.1,5.9,14.5,11.5,22.6,15.9c-6.3-8.4-13.4-16.2-20.1-24.3c-1.8-2.5-4.8-4.5-4.9-7.8c-0.7-6.3-1.5-12.6-2.1-18.8
	c7.8,6,15.4,12.3,23.6,17.6c-6.9-10-16-18.3-24.6-26.8c-0.6-3.9-1.2-7.8-1.6-11.6c7.7,5.3,14.8,11.7,22.7,16.7
	c-6.5-7-13.4-13.5-20.1-20.3c-1.7-1.9-4.2-3.3-4.5-6c-0.4-2-0.6-4-0.9-6c7.5,3.9,14.7,8.4,22.4,12.1c-8.2-6.1-16-12.7-23-20.1
	c-1.5-1.6-1.6-4-2.2-6c6.5,4.3,12.9,9,20.1,12.1c-7.7-5.5-14.2-12.5-20.2-19.8c-2.7-3.2-2.8-7.6-3.8-11.5
	c8.1,6.7,17.3,12.5,27.4,15.4c-11.5-8.5-22.1-18.1-32.5-27.8c-3-2.4-3.4-6.6-3.6-10.2c2.5-4.9,5.6-10,5.5-15.7
	c2-4.9,4.5-9.6,5.8-14.7c0.1-0.5,0.5-1.7,0.6-2.2C607.3,71.3,604.5,59.5,601.6,48.4z"/>
<path class="st1" d="M315.7,92.6c2.6-11.3,8.2-21.7,15.6-30.6c0.3,2.1,0.5,4.1,0.8,6.2C325.7,75.6,320.9,84.2,315.7,92.6z"/>
<path class="st2" d="M315.7,92.6c5.2-8.3,10-16.9,16.4-24.4c2.1,12.9,4.6,26,9.6,38.1c1.7,4.2,4.1,8.2,7.1,11.7
	c-4,1.1-7.9,2.2-11.9,3.3c-3.2-1.8-6.5-3.6-9-6.4c-5-6.2-9.1-13.1-12.2-20.5l-0.5-1.1L315.7,92.6z"/>
<path class="st3" d="M567.8,91.9c4-5.6,6.7-12.1,9.8-18.2c-0.1,15.1-6.6,30.1-17.5,40.5c-7.1,6.8-15.8,12-25.2,15
	c-7.8,2.2-15.8,3.4-23.8,4.5c6.1-4.7,12.6-9.3,17.1-15.7l0,1.1C544.4,116,558.7,105.5,567.8,91.9z"/>
<path class="st3" d="M520.7,101.9c8.9-5.1,16.5-11.8,24.6-18c-5.3,10.6-13,19.8-21.2,28.4c-8.6,8.7-18.3,16.3-29.2,21.8
	c-3.4,1.9-7.3,1.3-11,1.6c-1.4-1.4-3.6-2.4-3.8-4.6c-1.2-5.9-1.7-12.1-0.5-18c-0.1,0.9-0.2,2.6-0.3,3.5
	C494.1,115.3,508,109.3,520.7,101.9z"/>
<path class="st3" d="M315.4,93.7l0.3,0.7c3.1,7.4,7.2,14.3,12.2,20.5c1.3,4,2.7,7.9,5.2,11.3c0.6,2.6,0.5,5.9-0.9,8.2
	c-9.6,10.8-19.6,21.3-30.6,30.7c10-3.7,18.5-10.3,26.2-17.4c-0.8,3.8-0.5,8.1-2.8,11.4c-5.5,8-11.7,15.6-19.1,22
	c6.9-3.9,13-9.1,19.4-13.8c-0.4,1.9-0.3,4.1-1.5,5.7c-5.9,7.8-12.8,14.6-20.1,21.1c6.9-3.9,13.3-8.6,19.9-13c-0.5,3.2,0.5,7.2-2,9.7
	c-7.5,8.7-15,17.4-22.4,26.2c7.9-6.3,15-13.6,22.9-20c-0.4,4,0.1,8.2-1.1,12c-4.9,5.9-10.1,11.4-14.7,17.5
	c-2.5,3.3-5.3,6.5-6.7,10.5c7.4-6,14.2-12.7,21.5-18.8c-0.1,6.3-0.4,12.5-0.6,18.8c0.1,2.6-1.6,4.7-2.8,6.9
	c-5.2,8.7-10,17.7-15.5,26.3c-1.2-6.9-2.6-13.8-3.7-20.8c-1.8-18.5-2.9-37.1-5-55.5c-2.6-30.3,3.5-61,15.8-88.6
	C311.2,101.4,313.1,97.5,315.4,93.7z"/>
<path class="st3" d="M365.9,95.7c3.7,3.2,7.7,6.1,11.9,8.6c0.7,3.4,1.8,6.7,3,9.9C372.9,111.5,368.1,103.4,365.9,95.7z"/>
<path class="st3" d="M408,101.7c3,3.7,6.3,7.6,10.8,9.5c2.9,1.4,6,1.5,9.1,1.7c0.3-1,0.5-2,0.8-3c-0.2,4.5,0,9.2,2,13.4
	c1.7,4.4,5.3,7.7,7.5,11.8c-4.3-0.2-8.3-1.7-12.3-2.9c-2.1-0.7-4.5-1.3-6.1-2.9C412.4,122.3,407.1,112.2,408,101.7z"/>
<path class="st3" d="M358.3,102.7c2.4,5.5,5.3,10.8,9.8,14.9c-3.4,0.3-6.9,0.5-10.3,0.8c-1.7-2.1-3.3-4.3-4.7-6.6
	C355.6,109.2,357.3,106,358.3,102.7z"/>
<path class="st3" d="M386.6,105c1.8,0.8,3.5,1.8,5.4,2.3c2.5,0.3,4.7-1.1,6.9-2c-0.4,5.6,0.3,11.3,2.6,16.3
	c1.6,3.9,4.4,7.1,6.7,10.5C398,126.1,389.2,116.7,386.6,105z"/>
<path class="st3" d="M444.6,124.5c-3.4-5.6-3-12.8-2.4-19.1c6.6,8.2,17.1,13.2,27.7,12.9c0.3,5.8,2,11.4,4.2,16.8
	C463.5,134.6,452.5,131.6,444.6,124.5z"/>
<path class="st2" d="M278.8,126.1c5-0.9,10-1.7,15-2.6c-8,25.6-10.9,52.8-7.3,79.4c1.4,15.2,2.6,30.4,3.9,45.6
	c0.6,5.8,2.6,11.4,3.5,17.1c-2.6-0.8-5.3-1.6-7.9-2.5c-4.7,2.2-11.7,5.5-10.6,11.8c3.3,12.5,6.7,25,11.9,36.8
	c2.6,5.7,5.6,11.5,10.6,15.6c0.3,5.7,0.2,11.6,1.9,17.1c1.8,5.5,9,8.6,13.9,5c1.4,4.3,1.7,8.9,2.4,13.4c2.5,16.3,6.4,32.5,11.5,48.2
	c-4.2,43.5-9.6,87-18.6,129.8c-11.5-0.1-23.1-0.5-34.6-0.9c-10.7-41.9-17.5-84.9-21-128c-4.5-56.4-2.9-113.4,5.5-169.4
	c1.1-7.6,2.7-15.1,3.5-22.8c-15.3,15.6-32.7,29.7-53.2,37.9c-5.9,2.4-12.1,3.7-18.3,5c2.3,34.6,6.9,69.1,13.1,103.3
	c7.6,40.2,17.5,80.3,33,118.3c5.7,13.8,12.1,27.4,19.8,40.3c2.8,5,6.2,9.6,9,14.6c-0.9,0.1-2.7,0.4-3.7,0.5
	c-6.2-0.1-12.4-0.5-18.6-0.7c-20.2-35.6-36-73.7-47.4-113c-16.7-57.2-23.8-116.8-25.4-176.3c29.4-5.5,56.8-21.3,76.3-44
	C265.8,183.7,277.3,155.2,278.8,126.1z"/>
<path class="st4" d="M517,141.2c23.4-3.4,45.6-12,68.3-17.9c7.7,33.2,15.7,66.3,21.1,99.9c1.1,11.3,3.2,22.6,5.9,33.6
	c10.3,13,12.7,30.3,12.9,46.4c-0.8,8.5,2.3,16.6,3.4,25c-19.5-5.2-39.5-7.6-59.5-9.8c-23.2-2.3-46.6-3.9-69.9-4.8
	c-1.4-2.2-2.7-4.6-3.2-7.2c3.5-2.3,6.9-5,11-5.7c3.9,1.7,5.9,5.9,8.3,9.2c12.3,1.7,24.6,3.5,36.9,5c-8.3-3.5-16.6-6.7-24.8-10.4
	c27.2-3.7,54.6-6.8,81.6-11.6c-7.6-1.1-15-2.9-22.6-4c-0.2-2.2-0.3-4.4-0.5-6.6c5.6-7.5,10.8-15.2,16.2-22.8
	c-4.9,5.1-11.5,8.1-17.6,11.5c-0.7-3.6-1.4-7.2-2-10.7c5.1-4.6,8.5-10.8,11.7-16.8c2.9-5.6,5.5-11.4,7.9-17.3
	c-7.1,8.4-17,13.8-27.2,17.2c-4.6,1.5-9.4,2.4-14,3.8c-11.8,3.5-23.4,7.7-34.9,12.2c0-7.2,0-14.3,0-21.5c5.5-11.3,6.3-24.3,6.2-36.7
	c-0.4-6.4,0.2-13.1-1.8-19.3C526.5,168,521.4,154.7,517,141.2z"/>
<path class="st2" d="M650.1,123.5c5,0.9,10,1.7,14.9,2.6c1.7,33.9,17.1,66.8,42,89.9c18.3,17.2,41.6,29.1,66.4,33.7
	c-1.2,46.6-5.8,93.3-15.8,138.9c-11.3,51.5-29.5,101.7-55.4,147.7c-7.8,0.2-15.7,0.6-23.5,0.9c20.3-30.4,33.5-64.8,43.8-99.6
	c11.1-38.3,18.7-77.6,24-117.1c2.5-19.1,4.8-38.2,5.8-57.5c-17.9-2.9-34.4-11.6-48.6-22.6c-8.2-6-15.4-13.1-22.8-19.9
	c2.8,18.1,5.8,36.3,7.6,54.5c8.9,87.7,2.1,176.9-18.9,262.4c-12.8,0.5-25.6,1-38.3,1.3c-7.4-37.5-12.7-75.5-16-113.6
	c8.3-24.7,15.4-50,20.3-75.6c4.8,3.5,11.6,1.3,14-3.9c2.2-5.7,1.9-11.9,2.2-17.9c4.4-3.8,7.4-8.9,9.9-14.1
	c5.3-11.3,8.5-23.4,11.9-35.4c0.5-2.3,1.6-4.7,0.4-7c-2-3.9-6.2-5.9-9.9-7.9c-3.7,1.1-7.3,2.4-10.9,3.5c1.7-25.6,3.7-51.2,5.5-76.7
	c1.4-11.5-0.6-23.1-2.1-34.5C654.8,144.7,652.7,134.1,650.1,123.5z"/>
<path class="st1" d="M341.4,131.1c23,2.6,45.6,7.2,68.5,10.5c16.6,2.2,33.4,2.1,50.1,2.4c19,0.4,38.1-0.1,57-2.8
	c4.4,13.5,9.5,26.9,13.4,40.6c2,6.2,1.4,12.9,1.8,19.3c0.1,12.4-0.7,25.3-6.2,36.7c-7.6,9.5-10.5,21.6-13.8,33.1
	c-5.1-7.8-10.5-15.5-15.6-23.3c-1.2-1.9-2.8-3.6-4.5-5.1c-0.7-1.5-1.3-3-2-4.5c0.5,12.4,1.5,24.8,2.3,37.3c-0.1,2.1,1.5,3.5,2.7,4.9
	c2.9,3.2,5.7,6.4,8.5,9.7c-2.6,5.5-5.1,11.1-7.6,16.6c0.5,2.6,1.8,5,3.2,7.2c-15.3-0.7-30.7-1.4-46,0c-0.8,0-2.4-0.1-3.2-0.1
	c-0.3-2.6-0.6-5.2-1.2-7.7l-0.2-0.3c-2.5-5.2-4.8-10.5-7.3-15.7c3.2-4,6.7-7.6,10-11.5c1.6-1.6,1.2-4.1,1.5-6.2
	c0.6-11.4,1.7-22.9,2-34.3c-0.4,1-0.8,2-1.3,3c-7.8,8.9-13.9,19.2-21.2,28.6c-3-10.9-6.1-22.1-12.9-31.3c-0.1,0.1-0.4,0.4-0.5,0.5
	c-4.7,4.9-8.5,10.5-12.8,15.7c-10.3-3.7-20.6-7.2-31.2-9.7c-12-3.2-23.9-9-32.1-18.6c4,9.7,8.4,19.2,14.1,28c-0.8,2.5-1.6,5-2.3,7.6
	c-6.9-3.8-13.2-8.7-20.3-12.4c4.9,10.2,10.7,20,16,30c-1.5,4.9-3.3,9.8-5,14.6c19,4.1,38.2,7.2,57.3,10.7
	c-12.6,6.3-26,10.9-38.9,16.3c-11.7,4.9-23.8,8.9-35.3,14.4c-1.6,0.7-3.4,1.1-5.1,1.5c-0.4-19.9-0.9-39.8-1.3-59.7
	c0.9-7.4,2.9-14.7,4.2-22.1c1.3-7.2,5.8-13.4,6.2-20.8C335.3,199.8,338.4,165.4,341.4,131.1 M363.6,161.7c0.7,1.9,3.6,2.9,2.8,5.3
	c-1.5,7.7-2.9,15.4-4.7,23.1c-0.3,2.1-2.6,2.2-4.3,2.2l-0.2,1c4.2,1,8.3,2.4,12.6,3c-1.1-1.6-3.7-2.7-3.4-5.1
	c0.6-4.2,1.5-8.3,2.4-12.4c2.6,5.4,4.3,11.3,6.6,16.8c1.3,3.9,6.2,3.7,9.6,4.3c-5.9-4.6-7.6-12-10.3-18.6l2.4-0.5
	c-2.9-1.2-6.2-1.6-7.9-4.5c0.7-3.4,1.2-6.9,1.8-10.4c7.4-1.8,9.5,9.1,5.3,13.3c0.7,0.4,1.4,0.7,2.1,1.1c4.4-2.6,7.5-9.7,2.5-13.3
	C375.4,164.5,369.3,163.4,363.6,161.7z"/>
<path class="st0" d="M363.6,161.7c5.8,1.7,11.8,2.8,17.2,5.4c5,3.5,1.9,10.7-2.5,13.3c-0.7-0.4-1.4-0.7-2.1-1.1
	c4.2-4.2,2-15.1-5.3-13.3c-0.6,3.4-1.1,6.9-1.8,10.4c1.8,2.9,5.1,3.4,7.9,4.5l-2.4,0.5c2.8,6.5,4.5,14,10.3,18.6
	c-3.4-0.7-8.3-0.4-9.6-4.3c-2.3-5.6-4-11.4-6.6-16.8c-0.9,4.1-1.8,8.2-2.4,12.4c-0.4,2.3,2.2,3.4,3.4,5.1c-4.3-0.6-8.4-2-12.6-3
	l0.2-1c1.7,0,4,0,4.3-2.2c1.7-7.6,3.2-15.4,4.7-23.1C367.2,164.6,364.3,163.6,363.6,161.7z"/>
<path class="st3" d="M208.9,257.9c20.5-8.2,37.9-22.3,53.2-37.9c-0.8,7.6-2.5,15.2-3.5,22.8c-8.4,56-9.9,112.9-5.5,169.4
	c3.5,43.1,10.3,86.1,21,128c-4.1-0.2-8.3,0.1-12.4-0.4c0.9-0.1,2.7-0.4,3.7-0.5c-2.8-5-6.2-9.6-9-14.6
	c-7.6-12.9-14.1-26.4-19.8-40.3c-15.5-38-25.3-78-33-118.3c-6.2-34.2-10.9-68.6-13.1-103.3C196.8,261.6,203,260.3,208.9,257.9z"/>
<path class="st3" d="M680.8,220.4c7.5,6.8,14.7,14,22.8,19.9c14.3,11,30.7,19.7,48.6,22.6c-1,19.2-3.4,38.4-5.8,57.5
	c-5.3,39.5-12.9,78.8-24,117.1c-10.3,34.8-23.5,69.3-43.8,99.6c-3,0.1-6.1,0.2-9.1,0.3c21-85.6,27.7-174.7,18.9-262.4
	C686.6,256.7,683.6,238.6,680.8,220.4z"/>
<path class="st0" d="M342.7,226c8.2,9.6,20,15.4,32.1,18.6c10.6,2.4,21,6,31.2,9.7c4.3,1.6,8.6,3.2,12.9,4.9c0-6.9,0-13.7-0.1-20.6
	c0.1-0.1,0.3-0.4,0.5-0.5c6.8,9.2,9.9,20.5,12.9,31.3c0.1,0.4,0.2,1,0.3,1.4c3.2,0,6.5,0,9.7-0.1c3.5-10.1,7.9-19.8,11.2-29.9
	c0.4-1,0.8-2,1.3-3c-0.3,11.5-1.4,22.9-2,34.3c-0.3,2.1,0.2,4.5-1.5,6.2c-3.3,3.9-6.8,7.5-10,11.5c2.5,5.2,4.7,10.5,7.3,15.7
	c-3.6-1.5-6.7-4.1-10.6-4.8c-4,1.6-6,5.8-8.4,9.1c-12.3,1.7-24.6,3.5-36.9,5c8.5-3.6,17.1-7.1,25.7-10.6c-0.2-1.3-0.3-2.5-0.5-3.8
	c-12.8-1.3-25.3-4.4-37.8-6.9c-7.2-1.8-14.6-2.7-21.6-5.1c0-2.1,0.2-4.1,0.3-6.2c-5.2-7-10.1-14.1-15-21.2c5.3,3.7,10.8,7,16.6,9.9
	c0.7-3.6,1.3-7.1,1.9-10.7c-2-1.9-3.8-3.9-5.5-6.1C351.2,245.2,346.7,235.6,342.7,226 M375.7,269.8c-3,3-5.6,8.4-2.7,12.3
	c2.7,2.4,6.6,3,10,4c12.7,2.9,25.7,4.2,38.7,3.4c0.3-1.2,0.6-2.3,0.9-3.5c-13.5-5.5-27-11.1-40.7-16.1
	C379.9,269.3,377.4,267.9,375.7,269.8z"/>
<path class="st0" d="M574.9,243.2c10.3-3.5,20.2-8.9,27.2-17.2c-2.4,5.9-5,11.6-7.9,17.3c-3.2,6-6.5,12.2-11.7,16.8
	c0.6,3.6,1.3,7.2,2,10.7c6.1-3.4,12.7-6.4,17.6-11.5c-5.3,7.6-10.6,15.3-16.2,22.8c0.2,2.2,0.3,4.4,0.5,6.6
	c-19.8,3.9-39.4,9.2-59.5,11.6c-0.2,1.3-0.3,2.5-0.5,3.8l0.9,0.3c8.2,3.6,16.6,6.9,24.8,10.4c-12.3-1.5-24.6-3.3-36.9-5
	c-2.4-3.3-4.3-7.5-8.3-9.2c-4.2,0.7-7.6,3.5-11,5.7c2.5-5.6,5-11.1,7.6-16.6c-2.7-3.3-5.6-6.5-8.5-9.7c-1.2-1.5-2.8-2.9-2.7-4.9
	c-0.7-12.4-1.8-24.8-2.3-37.3c0.6,1.5,1.3,3,2,4.5c3,9.6,7.2,18.9,10.5,28.4c3.2,0.1,6.4,0.1,9.6,0c3.2-11.5,6.2-23.6,13.8-33.1
	c0,7.1,0,14.3,0,21.5c11.5-4.5,23.1-8.7,34.9-12.2C565.5,245.6,570.3,244.8,574.9,243.2 M556.4,270.7c-11,4.2-21.8,8.6-32.7,13.1
	c-2.1,0.5-1,2.6-0.7,4c11.1,1,22.2-0.2,33.1-2.1c4.9-1,9.9-1.9,14.4-4.2c3.4-1.8,2.9-6.4,1.4-9.4c-1.1-2-2.4-4.6-4.9-5
	C563.3,267.9,559.9,269.4,556.4,270.7z"/>
<path class="st4" d="M406,254.3c4.3-5.2,8.2-10.8,12.8-15.7c0.1,6.9,0.1,13.7,0.1,20.6C414.7,257.5,410.4,255.9,406,254.3z"/>
<path class="st4" d="M432.3,269.4c7.2-9.4,13.3-19.7,21.2-28.6c-3.3,10.1-7.7,19.9-11.2,29.9c-3.2,0.1-6.5,0.1-9.7,0.1
	C432.5,270.4,432.4,269.7,432.3,269.4z"/>
<path class="st4" d="M492.1,242.3c1.6,1.6,3.3,3.2,4.5,5.1c5.1,7.8,10.5,15.5,15.6,23.3c-3.2,0-6.4,0-9.6,0
	C499.3,261.2,495.1,252,492.1,242.3z"/>
<path class="st4" d="M334.3,249.2c7,3.6,13.3,8.5,20.3,12.4c0.7-2.6,1.5-5.1,2.3-7.6c1.6,2.2,3.5,4.2,5.5,6.1
	c-0.6,3.6-1.3,7.2-1.9,10.7c-5.7-2.9-11.3-6.2-16.6-9.9c4.9,7.1,9.9,14.3,15,21.2c-0.2,2.1-0.4,4.1-0.3,6.2c7,2.4,14.4,3.3,21.6,5.1
	c12.5,2.5,25,5.6,37.8,6.9c0.1,1.3,0.3,2.5,0.5,3.8c-8.6,3.6-17.2,7-25.7,10.6c12.3-1.5,24.6-3.3,36.9-5c2.4-3.3,4.3-7.6,8.4-9.1
	c3.9,0.6,7,3.3,10.6,4.8l0.2,0.3c0.5,2.5,0.8,5.1,1.2,7.7c0.8,0,2.4,0.1,3.2,0.1c-37.1,3.5-73.7,10.8-110.1,18.7
	c-4.9,1-9.7,2.5-14.8,3c11.5-5.5,23.6-9.5,35.3-14.4c13-5.4,26.4-10,38.9-16.3c-19.1-3.5-38.3-6.6-57.3-10.7c1.8-4.8,3.5-9.7,5-14.6
	C345,269.2,339.2,259.4,334.3,249.2z"/>
<path class="st3" d="M305.4,271.5c4.1-5.1,7.6-10.6,12-15.3c-0.9,7-3.2,13.8-3.7,20.8c1.7,20.3,3.3,40.6,5.2,60.9
	c-1.4,0.2-2.7,0.5-4,0.7c-3.7-20.9-7.6-41.8-11.4-62.6C302.9,274.2,304.5,272.9,305.4,271.5z"/>
<path class="st5" d="M556.4,270.7c3.5-1.3,7-2.8,10.7-3.6c2.5,0.5,3.8,3,4.9,5c1.5,3,2,7.6-1.4,9.4c-4.5,2.3-9.5,3.1-14.4,4.2
	c-10.9,1.9-22.1,3.1-33.1,2.1c-0.2-1.4-1.4-3.5,0.7-4C534.5,279.3,545.4,274.9,556.4,270.7z"/>
<path class="st5" d="M375.7,269.8c1.7-1.9,4.2-0.5,6.2,0.1c13.7,5,27.2,10.6,40.7,16.1c-0.3,1.2-0.6,2.3-0.9,3.5
	c-13,0.9-26.1-0.5-38.7-3.4c-3.4-1-7.3-1.6-10-4C370.1,278.2,372.7,272.8,375.7,269.8z"/>
<path class="st1" d="M287.4,270.6c2.9-0.5,5.5,1.7,7.6,3.4c1.9,1.3,1.6,3.9,2.3,5.8c-0.3,0.1-0.9,0.3-1.3,0.3
	c-2.5-1.2-5-2.6-7.5-3.8c4.3,9.1,8.6,18.2,11.3,27.9c3.1,11.2,6.9,22.5,6.4,34.3c1.4-0.6,2.9-1.2,4.4-1.9c0.4,1.8,0.9,3.7,1.3,5.5
	c-1.5,1.5-4.3,3.1-6,0.9c-5-4.1-3.4-11.1-3.3-16.7c-1.4-4.2-3.8-8-6.4-11.6c-2-2.7-2.6-6.1-3.8-9.2c-4.3-8.7-6.8-18.2-9.5-27.5
	C281.5,274.7,284.9,272.1,287.4,270.6z"/>
<path class="st1" d="M658.1,271.3c3.6-2.6,7.7,1.3,8.7,4.7c-2.2,9-4.9,17.9-8.5,26.4c-2.3,4-2.7,8.9-5.5,12.6
	c-2.5,3.5-4.8,7.1-6.1,11.2c0,5.6,1.7,12.4-3,16.6c-1.7,2.4-4.7,1-6.3-0.7c0.5-2,0.9-4,1.3-5.9c1.5,0.8,2.9,1.6,4.4,2.4
	c-0.4-7,1-13.9,2.8-20.7c0.7-2.4,1-4.9,0.8-7.3l0-0.5c2.2-5.4,6.5-10.3,6.3-16.4c2.5-5.8,5.3-11.5,7.9-17.3c-2.6,1.3-5.2,2.7-7.8,4
	c-0.1-1.4-0.1-2.8-0.1-4.2C653.6,273.9,656.2,272.6,658.1,271.3z"/>
<path class="st4" d="M652.7,282c0-2,0-3.9,0.1-5.9c0,1.4,0.1,2.8,0.1,4.2c2.6-1.4,5.2-2.7,7.8-4c-2.6,5.8-5.4,11.5-7.9,17.3
	c-0.2-2.5-0.4-5-0.1-7.6c0.9-2.1,2.2-4,3.3-6C655,280.7,653.9,281.4,652.7,282z"/>
<path class="st4" d="M288.6,276.3c2.5,1.2,4.9,2.6,7.5,3.8c0.3-0.1,0.9-0.3,1.3-0.3l0.2-0.1c0.2,1.2,0.3,2.4,0.5,3.6
	c-1.6-1.3-3.4-2.4-5.1-3.4c3.4,5.4,6.9,10.8,8.4,17.1c1.8,7.4,3.4,14.8,5.2,22.1c1.1,4.5,2.2,9.1,1.6,13.8c2.7-1.4,1.9,2.3,2.5,3.8
	c-1.5,0.6-2.9,1.2-4.4,1.9c0.5-11.8-3.3-23.1-6.4-34.3C297.1,294.5,292.9,285.4,288.6,276.3z"/>
<path class="st1" d="M526.9,300.3c20.1-2.4,39.7-7.6,59.5-11.6c7.5,1.1,15,2.9,22.6,4c-27.1,4.8-54.4,7.9-81.6,11.6l-0.9-0.3
	C526.6,302.8,526.7,301.6,526.9,300.3z"/>
<path class="st4" d="M646.6,310.6c0.2,2.5-0.1,5-0.8,7.3c-1.8,6.8-3.1,13.7-2.8,20.7c-1.5-0.8-3-1.6-4.4-2.4c0.5-1.5,0.2-4,2.5-3.9
	c-0.1-2.8,0.1-5.5,1-8.1C643.7,319.6,644.7,314.9,646.6,310.6z"/>
<path class="st6" d="M452.1,321.6c10.2-1.2,20.6-1.3,30.9-0.9c29.2,1,58.5,2.6,87.6,5.6c19.8,2.2,39.8,4.6,59,10.2
	c-0.1,0.8-0.3,1.6-0.4,2.3c-21.5-4.3-43.4-5.3-65.2-7.1c8.4,4,16.8,8.1,25.1,12.3c-20.1-7.6-41.2-12.6-62.6-15.3
	c-35.4-5-71.5-2.6-106.6,3.4c-4.3,0.9-8.7,1.7-13.1,2C421.8,329.5,437,325.8,452.1,321.6z"/>
<path class="st2" d="M419.9,332.1c35.1-6.1,71.1-8.4,106.6-3.4c21.4,2.7,42.4,7.7,62.6,15.3c-8.3-4.2-16.7-8.3-25.1-12.3
	c21.8,1.8,43.7,2.8,65.2,7.1c-1.9,12.5-4.4,25.1-10.8,36.2c-8.2,11.7-16.8,23.4-27.8,32.8c-17.6,15.7-38.9,27.2-61.8,33
	c7.9,2.8,16.3,3.6,24.5,5.3c-5.5,6.9-13.3,11.4-20.9,15.5c-18.8,9.4-39.3,14.7-59.7,19.2c9.7,3.5,20.2,3.4,30.3,3.1
	c21.9-1.2,43.4-6.3,64.4-12.7c-6.4,13.5-16.6,24.9-27.6,34.7c-24.4,21-56.6,30.9-88.4,32.4c-10.7,0.9-21.3-0.6-31.8-2.8
	c4.9,0,9.7,0.5,14.6,0.4c-2.6-2.2-6.1-2.3-9.2-3.4c-9-2.9-18-5.9-26.6-9.7c-26.8-31.7-47.9-68.4-61.5-107.6
	c9.5,6.1,20.5,9.7,31.7,11.4c-10.2-8.1-20.6-16.2-28.9-26.3c6.1,1.9,12.5,2.4,18.9,3l-1.1-1.7l-0.4,0l-0.7-0.3
	c-1.4-1.2-3-2.3-4.2-3.7c-3.2-4.9-7.1-9.3-10-14.4c-6.6-11.3-11.2-23.7-13.4-36.5c17.6-2.8,35.1-5.9,52.8-8.6
	c-5,3-10.4,5.4-15.7,7.9c13.7-3.7,27.2-8.4,41.1-11.7C411.2,333.8,415.6,333,419.9,332.1z"/>
<path class="st6" d="M400,328.8c-6,3.3-12.2,6.5-18.5,9.1c-17.6,2.7-35.2,5.7-52.8,8.6c-1.8,0.3-3.5,0.6-5.3,0.8c0-0.6,0-1.9,0-2.6
	C348.7,338.6,374.3,333.4,400,328.8z"/>
<path class="st3" d="M323.4,347.3c1.8-0.3,3.5-0.6,5.3-0.8c2.3,12.8,6.9,25.3,13.4,36.5c2.9,5.1,6.8,9.5,10,14.4
	c-1-0.5-1.9-1.1-2.8-1.7C335.2,383.4,325.3,366.1,323.4,347.3z"/>
<path class="st3" d="M590.6,407.7c10.9-9.4,19.5-21,27.8-32.8c-5.1,12.7-12.8,24.4-21.6,34.8c-13.9,16.3-33.3,28.2-54.7,31
	c13.9-0.8,28.2-2.7,40.9-8.7c-22.1,26.1-54.1,43.8-88.1,48.4c-2.7,0.3-5.5,1.2-8.3,0.3c0,0.5,0,1.1,0,1.6c1.9-0.6,3.8-1,5.8-1.1
	c18.2-1.1,36.3-4.5,53.5-10.3c17.4-5.9,34.2-14.6,47.8-27.1c3-2.7,5.5-5.8,8.6-8.5c-11.2,29.9-25.9,58.6-44.4,84.6
	c-20.6,29.1-46.9,54.6-78.6,71.3c-1.6,0.7-3.6,2.4-5.3,0.9c-22.5-15.2-43.1-33.3-61.4-53.3c12.8,1.9,26,1.8,38.7-0.8
	c31.8-1.5,64-11.4,88.4-32.4c11.1-9.8,21.2-21.3,27.6-34.7c-20.9,6.4-42.4,11.5-64.4,12.7c-10.2,0.3-20.6,0.4-30.3-3.1
	c20.4-4.5,40.9-9.9,59.7-19.2c7.7-4,15.5-8.5,20.9-15.5c-8.2-1.7-16.6-2.5-24.5-5.3C551.6,434.9,573,423.4,590.6,407.7z"/>
<path class="st6" d="M330.1,388.1c7.7,6.1,16,11.7,25.6,14.3c0.3-0.3,0.9-0.8,1.2-1l0.4,0l1.1,1.7c-6.3-0.6-12.8-1-18.9-3
	C336,396.5,333.1,392.3,330.1,388.1z"/>
<path class="st1" d="M347.1,458.9c14.9,30.5,34.9,58.3,57.7,83.4c-16.8,0-33.6-0.1-50.3-0.4C350.8,514.4,348,486.7,347.1,458.9z"/>
<path class="st4" d="M595.5,472.1c-1.8,22.8-4.8,45.4-8.6,67.9c-11.6,0.3-23.2,0.6-34.8,0.8C569.4,519.9,583.6,496.5,595.5,472.1z"
	/>
<path class="st1" d="M865.2,527.5c12.5-0.8,25.1-1.6,37.6-2.4c6.4,38.9,12.8,77.8,19.1,116.8c-13.4-1.8-26.8-3.6-40.3-5.1
	C876.2,600.4,870.7,563.9,865.2,527.5z"/>
<path class="st1" d="M30.7,642.4c7.6-38.9,15.3-77.9,23-116.8c28.1,1.9,56.2,3.5,84.4,5.1c12.2,0.7,24.1,11.6,22.4,24.4
	c-2.5,16.4-5.1,32.8-7.7,49.2c-2,11.3-9.7,20.7-19,26.9l1.5,1.5C100.4,635.4,65.5,638.5,30.7,642.4 M75.1,615.9
	c7.6-0.2,15.2-0.4,22.8-0.6c7.5-0.2,15.5-5.5,16.4-13.3c2.1-12.6,4.3-25.1,6.4-37.7c-12-0.2-24-0.5-36-0.8
	C81.5,580.9,78.3,598.4,75.1,615.9z"/>
<path class="st1" d="M782.6,532.1c17.4-0.8,34.8-1.8,52.2-2.7c14.3,35.7,28.8,71.3,42.9,107c-11.3-1.3-22.6-2.5-33.9-3.6
	c-5-12-9.7-24.1-14.7-36.1c1.4,11.7,3.1,23.4,4.6,35.1c-13.2-1.3-26.5-2.4-39.7-3.4C790.2,596.2,786.4,564.1,782.6,532.1z"/>
<path class="st1" d="M168.8,630.1c3.9-26.5,7.9-53,11.8-79.5c26.6,0.8,53.2,1.5,79.8,2.1c-0.9,8.2-1.8,16.3-2.7,24.5
	c-16.8,0.1-33.5-0.2-50.3-0.3c-1.4,10.1-2.8,20.2-4.1,30.4c14.3-0.2,28.6-0.3,43-0.6c-0.7,6.3-1.5,12.5-2.2,18.8
	C218.9,626.8,193.9,628.4,168.8,630.1z"/>
<path class="st1" d="M678.1,563.2c3.7-6.7,11.3-10.5,18.8-10.7c14.4-0.4,28.7-0.7,43.1-1.2c11.4-1.3,24.8,6,26.3,18.1
	c2.1,19.1,4.2,38.1,6.3,57.2c-10.5-0.7-21-1.4-31.5-2c-1.6-15.9-3.1-31.9-4.7-47.8c-9.6,0.1-19.1,0.2-28.7,0.2
	c1.3,15.3,2.6,30.7,3.9,46c-10.4-0.5-20.8-1-31.2-1.4h-0.2c-1.1-15.2-2.2-30.4-3.3-45.6C676.6,571.8,675.9,567.2,678.1,563.2z"/>
<path class="st1" d="M263.9,624.5c2.6-23.8,5.3-47.6,7.9-71.4c21,0.4,42.1,0.8,63.1,1.1c7.2,0,14.6,3.1,18.7,9.2
	c2,2.8,2.4,6.3,2,9.7c-0.7,8.7-1.2,17.4-2,26c-0.7,7.2-5.4,13.3-11.2,17.4c2.2,1.4,4.3,2.9,6.3,4.5
	C320.5,622,292.2,623.1,263.9,624.5 M296.9,606.2c5.4-0.1,10.8,0.2,16.2-0.2c4.6-0.5,9.9-3.8,10-8.9c0.6-6.4,1.1-12.8,1.7-19.2
	c-8.3-0.2-16.6-0.2-25-0.1C298.8,587.2,297.9,596.7,296.9,606.2z"/>
<path class="st1" d="M627.2,554c10.1-0.3,20.2-0.4,30.3-0.6c1.4,22.5,3,45.1,4.3,67.6c-10.4-0.6-20.8-0.8-31.1-1
	C629.4,598,628.3,576,627.2,554z"/>
<path class="st1" d="M547.5,555c10.1-0.2,20.2-0.3,30.2-0.3c0.5,21.4,1.2,42.8,1.8,64.2c-10.4-0.1-20.8-0.3-31.1-0.3
	C548.1,597.4,547.6,576.2,547.5,555z"/>
<path class="st1" d="M372.3,620.3c1.4-21.9,2.8-43.8,4.2-65.7c13.5,0.3,27,0.2,40.5,0.4c8.1,8,16.5,15.7,25.2,23.1
	c-12.1,0.2-24.2-0.2-36.3,0c-1.1,9-1,18.3-1.7,27.4c14.2,0,28.5,0,42.7,0c0,4.4-0.3,8.8-0.3,13.3h-0.1
	C421.7,619.2,397,619.7,372.3,620.3z"/>
<path class="st0" d="M75.1,615.9c3.2-17.5,6.4-35,9.7-52.5c12,0.3,24,0.6,36,0.8c-2.1,12.6-4.3,25.1-6.4,37.7
	c-0.9,7.9-8.9,13.2-16.4,13.3C90.3,615.5,82.7,615.7,75.1,615.9z"/>
<path class="st0" d="M707.6,577.1c9.6,0,19.1-0.1,28.7-0.2c1.6,15.9,3.1,31.9,4.7,47.8c1.2,12.6,2.5,25.3,3.6,37.9
	c-9.9-0.5-19.9-0.9-29.8-1.5c-1.1-12.7-2.2-25.4-3.3-38C710.3,607.7,708.9,592.4,707.6,577.1z"/>
<path class="st0" d="M296.9,606.2c0.9-9.5,1.9-19,2.8-28.5c8.3,0,16.6,0,25,0.1c-0.6,6.4-1.1,12.8-1.7,19.2c-0.1,5.2-5.3,8.4-10,8.9
	C307.7,606.4,302.3,606.1,296.9,606.2z"/>
<path class="st1" d="M475.1,602.2c7.7-3.7,15.2-7.9,22.5-12.4c0,9.6-0.1,19.1-0.3,28.7c-10.4-0.1-20.7,0.2-31.1,0.1
	c0.2-7.2,0.3-14.4,0.5-21.6C469.5,598.7,472.3,600.4,475.1,602.2z"/>
<path class="st3" d="M466.2,618.6c10.4,0.1,20.7-0.2,31.1-0.1c0,12.5-0.2,24.9-0.2,37.3c14.6,0.2,29.1,0.1,43.7,0.4
	c0,7.7,0.1,15.4,0.3,23.1c-25.4-0.4-50.7-0.6-76.1-0.4C465.2,658.7,465.8,638.7,466.2,618.6z"/>
<path class="st3" d="M372.3,620.3c24.7-0.7,49.4-1.1,74.1-1.5c0,3.2-0.1,6.4-0.2,9.7c-14.4,0.3-28.8,0.1-43.3,0.4
	c-0.4,9.2-1,18.3-1.4,27.4c17.5-0.2,35-0.3,52.5-0.5c-0.2,7.7-0.4,15.3-0.6,23c-28.4,0.3-56.8,0.6-85.1,1.4
	C369.7,660.2,371,640.3,372.3,620.3z"/>
<path class="st3" d="M548.4,618.6c10.4-0.1,20.8,0.2,31.1,0.3c0.3,12.6,0.8,25.2,1,37.7c14.6,0.7,29.2,0.7,43.8,1.2
	c0.5,7.9,0.8,15.8,1.2,23.7c-25.4-0.9-50.8-1.7-76.2-2C548.9,659.2,548.6,638.9,548.4,618.6z"/>
<path class="st3" d="M630.6,620c10.4,0.3,20.8,0.5,31.1,1l0.2,0c1.2,20.7,2.7,41.4,4,62.1c-10.7-0.3-21.3-1-32-1.3
	C632.6,661.3,631.6,640.6,630.6,620z"/>
<path class="st3" d="M263.9,624.5c28.3-1.4,56.6-2.4,85-3.5c3.4,3.5,5.8,8.1,5.9,13c0.1,5.4-0.6,10.7-1,16.1
	c-0.6,7.6-4.9,14.4-10.7,19.2c-9.9,8.1-22.6,12-35.2,12.9c-16.9,0.9-33.8,1.5-50.7,2.5C259.4,664.6,261.7,644.6,263.9,624.5
	 M294.3,633c-0.7,8.7-1.8,17.3-2.4,26c8.3-0.7,16.9,0.5,24.8-2.3c3.7-1.2,5.9-4.8,5.8-8.6c0.2-4,1-8,0.7-12.1c-1-4-5.4-6-9.2-6
	c-6-0.1-12,0.1-18.1,0.3C294.2,629.9,294.5,632,294.3,633z"/>
<path class="st3" d="M680.4,621.7c10.4,0.4,20.8,0.9,31.2,1.4c1.1,12.7,2.1,25.3,3.3,38c9.9,0.6,19.9,1,29.8,1.5
	c-1.1-12.6-2.4-25.3-3.6-37.9c10.5,0.6,21,1.3,31.5,2c1.6,14.8,3.3,29.6,4.9,44.4c0.7,4.7-1.1,9.6-4.8,12.6
	c-4.5,4-10.8,5.4-16.7,4.9c-16-1.1-31.9-2.2-47.8-3.1c-8.3-0.5-16.5-4.3-21.5-11c-2.3-2.9-3.1-6.7-3.3-10.4
	C682.4,650,681,635.8,680.4,621.7z"/>
<path class="st3" d="M168.8,630.1c25.1-1.7,50.1-3.3,75.2-4.6c-0.2,2-0.5,4-0.7,6c-14.5,0.6-29,0.8-43.5,1.4
	c-1.4,10.1-2.8,20.2-4.1,30.3c17.6-0.9,35.3-1.8,52.9-2.6c-0.8,8.2-1.9,16.4-2.8,24.7c-28.7,1.7-57.4,3.7-86,6
	C162.7,670.9,165.8,650.5,168.8,630.1z"/>
<path class="st3" d="M794,628.3c13.3,1,26.5,2.2,39.7,3.4c3.7,27.7,7.4,55.4,11,83c-13.7-1.6-27.3-3-41-4.4
	C800.5,683,797.2,655.7,794,628.3z"/>
<path class="st0" d="M294.3,633c0.2-1-0.1-3,1.6-2.6c6-0.1,12-0.4,18.1-0.3c3.8,0,8.2,2,9.2,6c0.2,4-0.5,8-0.7,12.1
	c0.1,3.8-2.1,7.4-5.8,8.6c-7.9,2.8-16.5,1.6-24.8,2.3C292.5,650.3,293.6,641.7,294.3,633z"/>
<path class="st3" d="M135.3,632.6l0.3,0c7.2,6.2,10.4,16.2,8.8,25.5c-2.9,17.8-5.3,35.8-8.5,53.6c-13.7,1.2-27.4,2.9-41,4.5
	c3-18.4,6.3-36.7,9.3-55.1c0.7-3.8-1.5-7.6-4.8-9.3c-2.8-1.6-6.2-1.5-9.3-1.3c-7.1,0.5-14.3,0.9-21.4,1.4
	c-4.4,23.1-8.4,46.2-12.7,69.2c-13.9,1.8-27.8,3.8-41.6,5.8c5.4-28.1,10.9-56.3,16.4-84.4C65.5,638.5,100.4,635.4,135.3,632.6z"/>
<path class="st3" d="M843.8,632.7c11.3,1.1,22.6,2.3,33.9,3.6c2,4.9,3.9,9.9,6,14.8c-0.6-4.8-1.4-9.5-2.1-14.3
	c13.4,1.5,26.8,3.2,40.3,5.1c4.6,28.3,9.2,56.6,13.7,84.9c-19.1-2.8-38.2-5.4-57.3-7.9C866.9,690.1,855.3,661.4,843.8,632.7z"/>
<path class="st2" d="M392.3,709.1c8.5-0.3,17.1-0.3,25.7-0.5c15.8,11.2,33.2,20.5,51.8,25.9c18.4-5.5,35.5-14.8,51.3-25.7
	c10-0.2,20.1,0.3,30.2,0.4c-25.2,20-51.9,38.2-79.3,54.9C444.3,747.4,417.6,729.2,392.3,709.1z"/>
</svg>
