<?xml version="1.0" encoding="utf-8"?>
<!-- Generator: Adobe Illustrator 19.0.0, SVG Export Plug-In . SVG Version: 6.00 Build 0)  -->
<svg version="1.1" id="Layer_1" xmlns="http://www.w3.org/2000/svg" xmlns:xlink="http://www.w3.org/1999/xlink" x="0px" y="0px"
	 viewBox="43 38.9 681 762.8" style="enable-background:new 43 38.9 681 762.8;" xml:space="preserve">
<style type="text/css">
	.st0{fill:#FFFFFF;}
	.st1{fill:#0698D9;}
	.st2{fill:#10151B;}
</style>
<g id="_x23_ffffffff">
	<path class="st0" d="M195.4,133.5c70-19.2,143.2-25.4,215.7-23.2c57.8,2.1,115.6,9.8,171.1,26.5c25.3,7.7,50.1,17.4,73.2,30.3
		c-0.1,31.7,0.1,63.4-0.1,95.1c-16.8-9.8-34.3-18.4-52.8-24.6c-0.5-0.1-1.5-0.2-2-0.2c-3.9,4.5-7.4,9.3-11.4,13.7
		c0.1-13.8,0-27.5,0-41.3c11-0.1,22,0.2,33.1-0.2c-43.1-18.1-89.2-28.1-135.3-34.6c-69.9-9.1-141-9.1-210.8,0.4
		c-24.5,3.4-48.8,8.1-72.8,14.3c-20.2,5.4-40.3,11.5-59.5,19.9c11.1,0.1,22.1,0.1,33.2,0c0,21.3,0,42.5,0,63.8
		c58.8-18.5,120.4-26.9,181.8-28.7c-0.2,63.1-0.1,126.2,0,189.3c-26.2,31.9-59.7,57.6-96.4,76.2c-21.2,10.7-43.5,19.3-66.5,24.9
		c-1.8,0.3-3.7,1.2-5.4,0.2c-27.9-15.8-54.7-33.7-79.6-53.9c29.7,1,59.6-3.6,87.6-13.8c26.9-9.7,52-24,74.3-41.8
		c6.9-5.7,13.9-11.4,19.8-18.1c0.2-25.2,0-50.4,0.1-75.6c-7.9,0-15.9,0.1-23.8-0.1c14.3-8.8,28.8-17.4,43.3-26
		c-25.9,1.7-51.7,5.9-77.2,10.8c-42.9,9-85.6,21.6-124,43.1c-0.1-64.3,0-128.6,0-192.9C137.4,152.2,166.2,141.6,195.4,133.5z"/>
	<path class="st0" d="M407.4,433.9c-0.2-63.1-0.1-126.2-0.1-189.3c54.3,1.7,108.6,8.4,161.1,22.7c30.1,8.3,59.8,19,87,34.3
		c-0.1,19.4,0,38.8-0.1,58.2c-37.3-20.7-78.6-33.3-120.2-42.1c-26.8-5.5-54-9.8-81.3-11.7c14.6,8.5,29,17.2,43.5,26
		c-7.9,0.2-15.9,0.1-23.8,0c-0.1,55,0,110,0,165c-13.8-7.5-27-16.4-38.6-27.1C424,459.5,414.6,447.2,407.4,433.9z"/>
	<path class="st0" d="M589.2,370.4c23,7.3,45.1,17.1,66.2,28.9c0.1,64.5,0,128.9,0,193.4c-31.8,26.2-66.8,48.3-103,67.8
		c-53.2,28.3-109,51.5-166.4,69.7c-2.9,1.3-5.8,0-8.6-0.8c-42.8-13.7-84.7-30.3-125.3-49.5c-50-23.8-98.3-51.8-141.2-87
		c0-22.8,0-45.5,0-68.3C143.3,549,177.6,571,213,591c53.1,29.7,109.1,54.9,168.1,70.1c2.1,0.8,4.3-0.2,6.4-0.6
		c42.1-11,82.7-27.2,121.8-46.4c27.4-13.4,54-28.3,79.9-44.4C589.2,503.3,589.2,436.8,589.2,370.4z"/>
</g>
<g id="_x23_0698d9ff">
	<path class="st1" d="M370.5,38.9H399c6.9,1.1,14,0.4,20.9,1c48.6,1.8,97.1,7.4,144.7,17.3c40,8.4,79.5,19.7,117.1,35.8
		c14.5,6.3,28.8,13.3,42.3,21.7v506.2c-12.4,12.9-26.1,24.5-40,35.8c-59.1,47.4-126.8,83.3-196.9,111.3
		c-30.4,11.9-61.2,22.6-92.7,31.3c-4.9,1.4-10.2,3.4-15.3,1.7c-38.7-10.3-76.5-23.5-113.5-38.9c-37.4-15.5-73.8-33.5-108.6-54.3
		c-41-24.6-80-53.1-114-86.8V114.6c23.4-14.1,48.7-25,74.4-34.1c75.1-26,154.4-37.7,233.6-40.8C357.5,39.4,364.1,39.8,370.5,38.9
		 M363,61.5c-69.9,1.9-140,11-207.2,31.2c-31.2,9.5-61.9,21.4-90.1,37.9c-1.7,0.9-3.4,2.2-2.9,4.3c0,155.7,0,311.4,0,467
		c0.3,2.9-1.1,6.6,1.5,8.8c27.4,26.9,58.3,50.3,90.6,70.9c33.3,21,68.4,39.2,104.5,54.9c38.4,16.7,77.9,30.8,118.3,41.7
		c2.7,0.7,5.6,1.8,8.4,0.7c47.6-12.6,93.9-29.9,138.7-50.3c34.5-16,68.1-34.3,99.8-55.4c28.2-19,55.2-39.9,79.2-64
		c0-159-0.1-317.9,0-476.9c-10.2-6.5-21.1-11.9-32.1-17.1c-37.7-17.1-77.7-28.7-118.1-37.2C490.8,65.3,426.8,60.2,363,61.5z"/>
</g>
<g id="_x23_10151bff">
	<path class="st2" d="M363,61.5c63.8-1.3,127.9,3.8,190.5,16.7c40.4,8.5,80.4,20.1,118.1,37.2c10.9,5.2,21.8,10.5,32.1,17.1
		c-0.1,159-0.1,317.9,0,476.9c-23.9,24.1-51,45-79.2,64c-31.7,21.1-65.2,39.4-99.8,55.4c-44.8,20.5-91.1,37.7-138.7,50.3
		c-2.8,1.1-5.6,0-8.4-0.7c-40.4-11-79.9-25.1-118.3-41.7c-36.1-15.7-71.2-33.9-104.5-54.9c-32.4-20.7-63.2-44-90.6-70.9
		c-2.5-2.2-1.2-5.9-1.5-8.8c0.1-155.7,0-311.4,0-467c-0.5-2.1,1.3-3.4,2.9-4.3c28.2-16.5,58.9-28.4,90.1-37.9
		C222.9,72.5,293,63.4,363,61.5 M195.4,133.5c-29.3,8.2-58,18.7-84.6,33.5c0,64.3,0,128.6,0,192.9c38.4-21.5,81.1-34.1,124-43.1
		c25.5-5,51.3-9.2,77.2-10.8c-14.4,8.6-28.9,17.2-43.3,26c8,0.2,15.9,0.1,23.8,0.1c-0.1,25.2,0.1,50.4-0.1,75.6
		c-5.9,6.8-12.9,12.4-19.8,18.1c-22.3,17.8-47.5,32.1-74.3,41.8c-27.9,10.2-57.8,14.8-87.6,13.8c24.9,20.3,51.7,38.2,79.6,53.9
		c1.7,1.1,3.6,0.1,5.4-0.2c23.1-5.6,45.3-14.2,66.5-24.9c36.8-18.6,70.3-44.3,96.4-76.2c0-63.1-0.1-126.2,0-189.3
		c-61.5,1.9-123,10.3-181.8,28.7c0-21.3,0-42.5,0-63.8c-11.1,0-22.1,0.1-33.2,0c19.2-8.4,39.3-14.6,59.5-19.9
		c23.9-6.2,48.3-10.9,72.8-14.3c69.8-9.5,140.9-9.6,210.8-0.4c46.1,6.5,92.2,16.5,135.3,34.6c-11,0.4-22,0.1-33.1,0.2
		c0,13.8,0.1,27.5,0,41.3c4-4.4,7.5-9.2,11.4-13.7c0.5,0.1,1.5,0.2,2,0.2c18.5,6.2,36,14.8,52.8,24.6c0.1-31.7,0-63.4,0.1-95.1
		c-23.1-12.9-48-22.5-73.2-30.3c-55.5-16.6-113.3-24.4-171.1-26.5C338.7,108,265.5,114.2,195.4,133.5 M407.4,433.9
		c7.2,13.3,16.6,25.6,27.5,36.1c11.6,10.7,24.8,19.6,38.6,27.1c0-55,0-110,0-165c7.9,0,15.9,0.1,23.8,0c-14.4-8.8-28.9-17.5-43.5-26
		c27.3,1.9,54.5,6.2,81.3,11.7c41.6,8.8,82.8,21.4,120.2,42.1c0.1-19.4-0.1-38.8,0.1-58.2c-27.3-15.3-56.9-26-87-34.3
		c-52.5-14.2-106.8-21-161.1-22.7C407.4,307.7,407.2,370.8,407.4,433.9 M589.2,370.4c0,66.4,0,132.9,0,199.3
		c-25.9,16.1-52.5,31-79.9,44.4c-39.1,19.1-79.7,35.3-121.8,46.4c-2.1,0.5-4.3,1.5-6.4,0.6c-59-15.2-115-40.4-168.1-70.1
		c-35.4-20-69.7-42-102.1-66.5c0,22.8,0,45.5,0,68.3c42.9,35.2,91.3,63.1,141.2,87c40.6,19.3,82.5,35.8,125.3,49.5
		c2.8,0.8,5.7,2.2,8.6,0.8c57.4-18.1,113.2-41.4,166.4-69.7c36.2-19.5,71.3-41.5,103-67.8c0-64.5,0.1-128.9,0-193.4
		C634.3,387.5,612.2,377.7,589.2,370.4z"/>
</g>
</svg>
