<?xml version="1.0" encoding="utf-8"?>
<!-- Generator: Adobe Illustrator 19.0.0, SVG Export Plug-In . SVG Version: 6.00 Build 0)  -->
<svg version="1.1" id="Layer_1" xmlns="http://www.w3.org/2000/svg" xmlns:xlink="http://www.w3.org/1999/xlink" x="0px" y="0px"
	 viewBox="676 151.6 488.8 700.3" style="enable-background:new 676 151.6 488.8 700.3;" xml:space="preserve">
<style type="text/css">
	.st0{fill:url(#SVGID_1_);}
</style>
<g id="_x23_bf1115ff">
	<linearGradient id="SVGID_1_" gradientUnits="userSpaceOnUse" x1="675.99" y1="501.7466" x2="1164.8101" y2="501.7466">
		<stop  offset="0" style="stop-color:#FD3025"/>
		<stop  offset="1" style="stop-color:#8F0223"/>
	</linearGradient>
	<path class="st0" d="M676,151.6c139.6,0,279.3,0,418.9,0c14.7,0.2,29.4-0.4,44.1,0.5c8.6-0.1,17.2,0.1,25.8,0
		c-0.2,139.5,0,279.1-0.1,418.7c-35.8,20.6-71.4,41.5-107.2,62c-28.8-16.8-57.8-33.3-86.8-50c6.5-4.4,13.5-7.9,20.2-11.9
		c28.1-16.2,56.2-32.5,84.4-48.7c0.9-0.7,2.3-1,2.8-2.1c0.1-35.1-0.1-70.3,0.1-105.4c-31.6-0.4-63.2,0-94.7-0.2c-0.1-29,0-58,0-86.9
		c31.5,0,62.9-0.1,94.4,0.1c0.6-29.6,0.1-59.4,0.2-89c-105,0.1-209.9-0.2-314.9,0.2c0,93.9,0,187.8,0,281.6
		C897,597.6,1031,674.4,1164.7,751.5c0,33.4-0.1,66.9,0.1,100.3c-13.5-8.3-27.4-15.8-41.1-23.7c-70.2-40.2-140.2-80.5-210.3-120.8
		C834.2,661.9,755,616.5,676,570.7C676,431,676,291.3,676,151.6z"/>
</g>
</svg>
