<?xml version="1.0" encoding="utf-8"?>
<!-- Generator: Adobe Illustrator 19.0.0, SVG Export Plug-In . SVG Version: 6.00 Build 0)  -->
<svg version="1.1" id="Layer_1" xmlns="http://www.w3.org/2000/svg" xmlns:xlink="http://www.w3.org/1999/xlink" x="0px" y="0px"
	 viewBox="267.4 157 790.2 526.8" style="enable-background:new 267.4 157 790.2 526.8;" xml:space="preserve">
<style type="text/css">
	.st0{fill:#132D2F;}
	.st1{fill:#31797D;}
	.st2{fill:#E0FFB3;}
	.st3{fill:#FFFFFF;}
	.st4{fill:#A8A8A8;}
	.st5{fill:#204C4E;}
	.st6{fill:#61C791;}
	.st7{fill:#C2D998;}
	.st8{fill:#4A986F;}
</style>
<g>
	<path class="st0" d="M341.2,316.8c-5.4-14.5-11.5-31.7-14.8-49.7c-2.4-12.6-4.6-29.1-0.7-45l0-0.1l0-0.1c0.1-1.4,1.7-2.1,4.1-2.9
		c9.2-2.9,18.8-3.8,30.2-4.2l1.4,0c23.3,0,46.6,4,68.4,8.1l3.1,0.6l-0.8-3c-1.5-5.8-3.5-11.6-5.4-17.1c-1.8-5.3-3.7-10.8-5.2-16.3
		l-0.4-1.5l-1.5,0c-21.9,0-43.8,0-65.8,0s-43.8,0-65.8,0l-2.4,0l0.4,2.3c3,18.7,8.1,38.3,15.9,61.7c14.5,43.1,33.3,82.3,55.9,116.6
		l3.6-1.4c-0.4-2.4-0.8-5-2.1-7.4C353.3,345.9,347.5,333,341.2,316.8z"/>
	<path class="st0" d="M1033.6,646.9c-3.5-8.6-8-18.4-15-26.3c-1.7-2-3.7-3.8-6.1-5.3c0.6-0.1,1.2-0.2,1.8-0.2c0.2,0,0.4,0,0.6,0
		l0.1,0c6.1,0.1,11.3,4,16.5,8.4l3.7,3.1l-0.4-4.8c-0.3-3.6-0.8-7.2-1.3-10.6l-3.2-21.7c-3.5-23.6-7.1-48.1-10.7-72.1l-0.2-1.2
		l-1.2-0.4c-2.3-0.7-4.7-1.5-6.9-2.3c-5.1-1.7-10.5-3.5-16-4.5l-4.5-0.7l2.5,3.8c5.5,8.3,8.4,16.7,8.8,24.8c0.6,12-2.8,25-10.1,38.7
		c-0.3,0.5-0.6,1-0.8,1.6c-1.2,2.2-2.3,4.3-3.8,6c-2.2-0.7-4.4-1.6-6.6-2.6c-2.2-1-4.5-2-6.9-2.7c-23.9-8.2-47.9-12.4-71.6-12.4
		c-6.3,0-12.6,0.3-18.7,0.9l-0.5,3.9c2.2,0.8,4.5,1.4,6.7,2c3.5,1,7,2,10.4,3.5c9.2,3.8,17.5,8.5,24.9,13.7c-0.7,0-1.4,0-2.1,0
		c-6.4,0-13-0.4-19.4-0.7c-3.7-0.2-7.6-0.4-11.4-0.6c-48.7-2.8-93-7.7-135.3-14.9c-40.9-6.9-76.6-15.9-109.1-27.4
		c-23.9-8.8-54.5-21.6-79.2-42.8c-10-8.5-18-17.9-23.6-27.9c15.4-8.9,29.9-18.9,46.7-31.1l2.5-1.8l-2.6-1.6
		c-15.4-9.1-31.6-17.2-47.2-25.1l-6.6-3.3c-27.6-13.4-60.5-28.5-95.2-39.3c-13.9-4.1-28.9-8-44.4-8.6c-0.6,0-1.3,0-1.9,0
		c-7.9,0-13.9,1.1-19.1,3.4c-4.1,1.8-7.1,4.8-10.1,7.7l-1.9,1.9l1,1.4c1,1.4,2,2.7,3,4.1l0.7,1l1.2-0.2c3.2-0.4,6.6-0.6,10-0.6
		c17.9,0,35.6,5.9,50.7,11.4c31.3,12.2,64,29.2,99.8,51.8c-18.4,8.3-37.3,14.5-56.1,18.4l-5.2,1.1l4.6,2.6c5,2.9,10.2,5.6,15.1,8.2
		c5.8,3.1,11.8,6.2,17.5,9.6c2.1,1.2,4.1,2.4,6.2,3.7c6.9,4,14,8.2,20.7,12.8c-7.4,3.3-15,6.3-22.2,9l-3.9,1.5l3.6,2.1
		c55.4,32.3,118.7,53.6,188.1,63.1c16.8,2.5,33.9,5,50.5,7.3c6.1,0.9,12.2,1.7,18.3,2.6c8.5,1.2,17.1,2.3,25.5,3.5
		c14.3,1.9,29.1,3.8,43.6,6.2c46.9,7.3,85.6,15.2,121.7,25c24.9,6.9,49.1,14.1,71.4,26.3l4.9,2.7L1033.6,646.9z"/>
</g>
<g id="_x23_31797dff_1_">
	<g>
		<path class="st1" d="M755,234.3c-17.5-10.8-37-17.4-52.1-21.8c-45.4-13.2-92.1-19.8-131.8-24.5c-38.4-4.2-67.9-6.7-95.8-7.8
			l-4-0.2l2.3,3.3c2,2.8,4.2,5.4,6.3,7.9c1.5,1.8,3,3.6,4.5,5.4c-1.2,0-2.5,0-3.9,0c-1.8,0-3.6,0-5.4,0c-1.8,0-3.6,0-5.4,0
			c-4,0-7.1,0-10,0.1l-3.4,0.1l1.7,2.9c7,11.8,14.5,23.6,21.8,35l3,4.7l1.3-0.2c13.5-1.7,27.5-2.7,43-3.1c8.6-0.6,17.2-0.7,25.2-0.7
			c2.3,0,4.6,0,6.9,0c2.3,0,4.6,0,6.9,0c1.7,0,3.3,0,5,0c45.7,0.4,94.5,3.4,153.8,9.4c6.4,0.6,12.9,1.4,19.2,2.2
			c7.9,1,16.1,2,24.2,2.7l4.7,0.4l-3-3.7C765.9,241.5,760.6,237.9,755,234.3z"/>
		<path class="st1" d="M658.5,275.3c-1.7,0-3.4,0-5.1,0.1l-1.3,0.1l-0.5,1.2c-0.9,2.4-2,4.9-3,7.3c-1.5,3.4-3,7-4.2,10.7
			c-4.5,14.3-5.5,29.9-2.9,45.2c1.8,8.9,4.3,19.1,10.1,27.6l3.6-1.5c-3.1-17.9-2.5-33.1,1.8-46.4c5.1-15.7,14.2-29.4,25.6-38.6
			l3.4-2.7l-4.2-0.8C674.1,276,666.3,275.3,658.5,275.3z"/>
		<path class="st1" d="M509.9,336.5l-0.3-1.6c-1.7-8.5-3.5-17.3-2.7-26l0.1-1.5l-1.5-0.5c-14.5-5.2-29.9-7.8-45.7-7.8
			c-24.9,0-49.2,6.5-70.2,18.9c-0.7,0.4-1.3,0.8-2,1.3c-3,1.9-6.2,3.8-8.3,7l-2.4,3.6l4.2-0.5c7.5-0.8,14.9-1.2,22-1.2
			c18.7,0,36.1,2.8,51.5,8.4c1,0.4,1.9,0.7,2.9,1.1c2,0.8,4,1.5,5.9,2.3c-3.1,0.4-6.1,1-8.9,2.7l-4.7,2.8l5.4,0.9
			c17.6,2.9,30.6,7.6,41.1,14.7c9.5,7.5,16.7,17.5,23,26.4l3.6-1.7c-1.3-4.6-2.6-9.3-3.9-13.8C515.8,360.3,512.3,348.4,509.9,336.5z
			"/>
		<path class="st1" d="M966.8,435.3c-11.1-3-22.1-6-33.2-9c-19.7-5.4-40-10.9-60-16.2l-3.7-1l1.3,3.6c3.9,11.2,9,22.1,15,32.4
			l0.8,1.1c2.8,4.3,6.1,9.2,11.4,11.4l0.1,0.1l0.1,0c1.6,0.4,3.3,0.6,5.1,0.6c3.6,0,7.1-0.8,10.5-1.5c0.9-0.2,1.8-0.4,2.7-0.6
			c13.6-3.2,26.8-8,40.2-13c4-1.4,7.2-2.8,10.1-4.4l4.4-2.4L966.8,435.3z"/>
		<path class="st1" d="M944,512.8c-0.5-0.2-0.9-0.4-1.4-0.6c-15.7-6.5-33.5-9.9-51.5-9.9c-1.1,0-2.1,0-3.2,0c-1.2,0-2.4,0-3.6,0
			c-5.3,0-10.8,0.1-16.1,1.7l0.3,3.9l2.8,0.4c8,1.1,16.3,2.3,24.2,4.4c11.7,2.9,25,6.9,33.7,16.5l1.5,1.7l1.5-1.7
			c3.1-3.6,5.9-6.2,9.4-7.1l0.1,0l0.1,0c0.7-0.2,1.5-0.4,2.3-0.4c1.6,0,3.2,0.4,4.9,0.8c1,0.2,2,0.5,3.1,0.7l4.4,0.7l-2.4-3.8
			C951.7,516.2,947.6,514.4,944,512.8z"/>
	</g>
	<path class="st1" d="M475.3,182.1c32,1.4,63.9,4.3,95.7,7.8c44.3,5.3,88.6,12,131.4,24.5c17.9,5.3,35.7,11.7,51.6,21.6
		c5.2,3.4,10.5,7,14.5,11.9c-14.5-1.3-28.9-3.4-43.4-4.9c-51.2-5.2-102.5-9-154-9.4c-14.7,0.1-29.4-0.4-44.1,0.7
		c-14.4,0.3-28.8,1.3-43.1,3.1c-8.1-12.8-16.3-25.6-24-38.6c9.5-0.3,19,0,28.5-0.2C484.4,192.7,479.3,187.8,475.3,182.1z"/>
	<path class="st1" d="M653.5,277.4c9.4-0.4,18.8,0.3,28,2.1c-12.5,10.1-21.3,24.4-26.3,39.5c-5,15.3-4.7,31.7-1.9,47.4
		c-5.4-8-7.9-17.5-9.8-26.9c-2.5-14.7-1.6-30,2.9-44.3C648.2,289.1,651.3,283.4,653.5,277.4z"/>
	<path class="st1" d="M390.7,319.5c34.1-20,77-24.1,114.2-10.8c-0.9,9.5,1.2,18.9,3,28.1c3.4,16.7,8.6,32.9,13.1,49.3
		c-6.9-9.7-14.1-19.4-23.5-26.8c-12.5-8.5-27.3-12.6-42-15.1c4.5-2.6,9.8-2.5,14.7-3.1c-4.6-3-9.8-4.7-14.9-6.6
		c-23.7-8.6-49.5-10-74.4-7.3C383.3,323.7,387.3,321.8,390.7,319.5z"/>
	<path class="st1" d="M873,412c31.1,8.3,62.1,16.8,93.2,25.2c-3.2,1.7-6.5,3-9.8,4.2c-13.1,4.9-26.3,9.7-40,12.9
		c-5.7,1.1-11.6,2.9-17.3,1.5c-5.2-2.1-8.2-7.3-11.2-11.7C881.9,433.9,876.9,423.1,873,412z"/>
	<path class="st1" d="M868.8,505.9c6.2-1.9,12.8-1.5,19.2-1.7c18.3-0.4,36.9,2.7,53.8,9.7c3.9,1.8,8.2,3.4,10.6,7.2
		c-3.7-0.6-7.6-2.3-11.3-1c-4.3,1.1-7.6,4.4-10.5,7.7c-8.9-9.9-22.1-13.9-34.6-17.1C887.1,508.4,877.9,507.2,868.8,505.9z"/>
</g>
<g id="_x23_000000ff_1_">
	<path d="M951.7,449.4l-1.3,0.5c-8.9,3.7-18.1,7.5-27.4,10.3c-7,2.1-15.8,4.7-24.3,4.7c-1.7,0-3.4-0.1-5-0.3
		c-0.4-0.1-0.8-0.2-1.2-0.3c-2.1-0.4-3.4-0.8-3.8-1.9c-5.9-14.9-13.7-30.7-24.6-49.8c-19.9-34.1-42.8-64-68-88.7
		c-9.6-9.7-21.1-19-35.3-28.4c-28-17.9-60.4-31.2-96.4-39.5c-26.8-6.3-51-9.4-74-9.4c-1.5,0-2.9,0-4.4,0l-15,0l-42.5,0
		c-12.6,0-25.2,0-37.9,0l-2.7,0l0.7,2.5c5.3,18.5,17.4,33.1,32.3,38.9c4.8,1.9,10.1,2.9,16.1,2.9c4.2,0,8.6-0.4,14-1.4
		c3.9,19.1,7.9,37.9,13.5,56.3c7.9,26.5,19.5,60.7,39.7,90.3c11.1,15.9,22.7,26.9,35.7,33.7c8,4.4,16.9,6.3,25.5,8.1
		c1.4,0.3,2.7,0.6,4.1,0.9c13.1,2.7,27.1,4.1,41.6,4.1c8.4,0,17.1-0.5,25.9-1.4c2.1-0.1,4.3-0.2,6.4-0.4c2.8-0.2,5.6-0.4,8.4-0.4
		c2.5,0,4.7,0.2,6.8,0.5l0.1,0c12,1.2,21.8,9.5,28.2,15.7c11,11.3,19.5,25.9,24.6,42.3l0.6,1.9l1.9-0.5c3.1-0.9,6.2-1.9,9.3-2.9
		c4-1.3,8.1-2.7,12.1-3.6c1.6-0.3,3-1.1,4.1-1.9c0.3-0.2,0.5-0.3,0.8-0.5l2.1-1.2l-1.5-1.8c-13.9-16.4-22.2-31.8-25.3-47.3
		c-1.9-9.3-2.6-22.6,4.7-32.7c4-5.2,9.3-8.3,14.3-8.3c0.1,0,0.1,0,0.2,0c5,1.2,9.2,4.9,13.2,8.4l0.7,0.6c8,7.7,16.2,16.2,21.9,26.3
		c2.6,4.3,7.2,7.3,12.1,7.8c1.5,0.2,3.1,0.2,4.6,0.2c4.3,0,8.5-0.6,12.4-1.8c13.6-3.9,26-10.9,36.5-17.3c1.3-0.9,2.7-1.7,4-2.5
		c4.6-2.9,9.3-5.8,13.6-9.3L951.7,449.4z M813.4,400l-2.5,1.9c-8.3,6.4-17,12.9-26.9,16.1l-0.2,0.1l-0.2,0.1
		c-11.8,6.3-26.6,9.5-43.8,9.5l-0.8,0c-0.4,0-0.7,0-1.1,0c-12.8,0-25.4-2.4-37.5-7.1c-4.8-1.9-9.8-4-14-7.1l-0.3-0.2l-0.3-0.1
		c-3.8-1.2-7.1-3.6-10.6-6.1c-0.5-0.4-1-0.7-1.5-1.1c-24.8-18.4-41.3-47.6-44.1-78.1c-1.3-18.6,0.6-34.1,5.8-47.2
		c4.1-0.7,8.6-0.9,12.8-1c1.8-0.1,3.6-0.1,5.4-0.2c1.6-0.1,3.3-0.1,5-0.1c7.5,0,15.1,0.7,22.6,2.2c24.3,5,46.4,13.5,65.7,25.2
		c-0.6,0.5-1.3,0.9-1.9,1.4c-1.6,1.2-3,2.3-4.6,3.1l-2.9,1.6l2.8,1.8c2.9,1.8,6.1,4,9.2,6.6c-1.1,0-2.2,0-3.3,0c-1.6,0-3.2,0-4.8,0
		c-2.1,0-3.9,0-5.6,0.1l-0.7,0l-0.5,0.4c-2.1,1.8-2.6,4.4-3,6.7c-0.1,0.7-0.2,1.4-0.4,2l0,0.1l0,0.1c-2.9,16.5,8.5,33.8,24.5,38
		l0,0.6l1.9,0.2c2.3,0.2,5,0.4,7.7,0.4c5.2,0,9.3-0.8,13-2.4c7.6-3.1,13.8-8.8,17.4-15.9c1,1.5,2,3,3,4.5
		c4.1,6.2,8.3,12.7,12.4,19.1c0.2,0.3,0.4,0.6,0.5,0.9c0.8,1.4,1.8,3,3.3,4.2l0.4,1.8l0.3,0.4c1.3,1.5,2.4,3.4,3.5,5.4
		c0.8,1.4,1.6,2.9,2.5,4.2C818.7,395.4,816.2,398,813.4,400z"/>
	<path d="M490.6,248.6c31.8-0.1,63.6,0,95.4,0c26.3-0.5,52.4,3.3,77.9,9.3c33.8,7.8,66.5,20.6,95.8,39.3
		c12.5,8.3,24.4,17.4,34.9,28.1c26.6,26.1,49,56.2,67.7,88.3c9.1,16,17.7,32.4,24.5,49.5c0.9,2.6,4.1,2.8,6.5,3.4
		c10.3,1.4,20.5-1.5,30.3-4.4c9.9-2.9,19.4-6.9,28.9-10.9c-5.4,4.4-11.5,7.9-17.4,11.7c-11.3,6.9-23.1,13.3-35.9,17
		c-5.2,1.6-10.8,2-16.2,1.5c-4.4-0.4-8.4-3.1-10.6-6.8c-5.8-10.1-14-18.7-22.3-26.7c-4.5-3.9-9.1-8.1-15-9.5
		c-6.6-0.2-12.5,4.1-16.3,9.1c-7.1,9.8-7.4,22.8-5.1,34.3c3.6,18.2,13.8,34.3,25.7,48.2c-1.4,0.8-2.7,1.8-4.3,2.1
		c-7.3,1.7-14.3,4.5-21.5,6.5c-4.9-16-13.3-31.1-25.1-43.1c-8.1-7.8-17.8-15.1-29.4-16.3c-7.3-1.3-14.7,0-22.1,0.2
		c-22.3,2.3-45,1.9-67-2.7c-9.9-2.2-20.1-3.9-29.1-8.8c-14.4-7.6-25.8-19.9-35-33.1c-18.5-27.2-30.1-58.4-39.4-89.7
		c-5.8-19.1-9.9-38.6-13.9-58.1c-10.2,1.9-21.1,2.9-30.9-1C505.8,280,495.2,264.5,490.6,248.6 M633.9,278.8
		c-6.3,15.5-7.4,32.6-6.3,49.1c2.9,31.3,19.7,60.9,44.9,79.6c4,2.9,7.9,6,12.7,7.5c4.3,3.3,9.4,5.5,14.5,7.4
		c12.5,4.9,25.9,7.4,39.3,7.2c15.6,0.1,31.7-2.3,45.6-9.8c11.3-3.6,20.7-11.2,30-18.3c3.7-2.7,6.7-6,9.4-9.7c-2.7-3.4-4.2-7.8-7-11
		c-0.1-0.5-0.3-1.6-0.4-2.1c-1.9-1.1-2.8-3.2-4-5c-5.4-8.5-11-16.9-16.5-25.4c-0.3-0.1-0.9-0.3-1.2-0.4c-3.2,7.8-9.6,14.2-17.4,17.4
		c-6.2,2.8-13.1,2.5-19.7,1.9l0-0.3c-15.9-3.2-27.4-20.1-24.6-36.1c0.7-2.5,0.6-5.9,2.7-7.7c6.4-0.3,12.8,0.1,19.1-0.1
		c-0.8-0.6-1.5-1.2-2.3-1.8c-3.5-3.1-7.4-5.8-11.3-8.3c3-1.6,5.5-4,8.4-5.8c0-0.3,0-0.8,0-1c-20.8-13-44.2-21.6-68.2-26.6
		c-9.2-1.8-18.6-2.5-28-2.1C647,277.7,640.2,277.5,633.9,278.8z"/>
</g>
<g id="_x23_091617ff">
</g>
<g id="_x23_e0ffb3ff">
	<path class="st2" d="M418.3,157c30.2,0.6,60.5,0.4,90.7,2.3c21.2,0.9,42.3,3.1,63.3,5.2c14.1,2.3,28.5,3,42.5,5.7
		c21.9,3,43.5,7.9,65.2,12c16.6,3.1,32.8,7.9,49,12.4c8.6,2.4,17.2,4.7,25.7,7.3c14,4.3,27.6,9.8,41.4,14.6c1.9,0.7,3.9,1.4,5.9,2.1
		c4.6,8.3,9.4,16.5,15.1,24.1c6.4,8.5,13.6,16.3,20.3,24.5c5.8,7.2,12.8,13.3,19.3,19.9c7.4,7.5,14.9,15.1,23.2,21.8
		c5.7,5.1,11.3,10.3,17.2,15.2c-2.4-10.6-6.3-20.8-9.7-31.1c-5.3-16-11-31.9-16.3-48c16.2,13.4,32.4,26.7,48.5,40.1
		c4.2,3.8,9.2,6.8,12.9,11.1c20.4,31.8,40.4,63.8,60.1,96c1.5,2.2,2.6,5,4.6,6.8c6.1,0.5,11.5,3.5,15.8,7.6c3.1,9.7,6.9,19.1,9.4,29
		c2.6,10.3,4.8,20.6,6.8,31c3.2,28.4,8,56.6,11.9,85c3.6,24,7.2,48,10.7,72.1c2,12.7,3.7,25.3,5.6,38c-1.8-1.1-3.5-2.2-5.3-3.2
		c0.2,1,0.7,3.1,0.9,4.1c1.1,7,3,13.9,3.7,21c-10.5-5.8-21.1-11.4-31.6-17.1c-36.8-20.6-78.8-27.8-119.2-38
		c-15.1-2.7-30.1-6.2-45.2-8.7c-16-2.7-32.1-4.5-48.1-7.4c-16.6-2.2-33.3-4.4-49.9-6.6c-16.6-2.5-33.2-4.5-49.8-7.2
		c-8.8-1-17.5-2.7-26.2-3.7l-0.6-0.4c-27.2-4.1-54-10.4-80.2-18.9c-20.8-6.5-41.2-14.1-61-23.1c-16.3-7.4-32-16.2-47.5-25.1
		c-12.1-6.9-24.3-13.9-36.3-20.9c11.5-2.2,23.1-4.1,34.5-6.5c-18.2-10.3-36.9-19.6-55.4-29.5c-9.5-5.1-19-10.1-28.5-15.1
		c10.7-1.4,21.5-1.7,32.2-2.7c4.4-0.5,8.8-0.7,13.2-0.8l0.7-0.5c8.1-0.5,16.4-0.2,24.2-2.8c4.3-1.4,8.6-2.6,12.9-3.9
		c-18.8-11.2-38.6-20.5-58.8-29c-12.8-5.2-25.6-10.5-39.1-13.1c-5-0.7-9.9-1.5-15-1.4c-6.7-0.1-13.3,1.7-20,2.1
		c-7.4-11.8-15.9-22.8-22.8-34.9c-7.8-13.5-16.2-26.7-23.1-40.8c-14.3-29.4-26.4-60-35.3-91.4c-4.6-15.3-8.9-30.7-10.8-46.5
		c-0.4-2.3-0.7-4.7-1-7c-0.6-3.8-1.1-7.7-1.7-11.5c54.3-0.1,108.6,0,162.8-0.1C426.7,166.1,422.3,161.7,418.3,157 M431.7,162.3
		c3.2,5,7.6,9.1,11.1,13.9c-56.2,0.2-112.4,0-168.6,0.1c1.1,18.8,5.7,37.3,11.3,55.2c11.8,40.9,27.5,81,49.4,117.6
		c8.6,15.1,17.7,29.9,28,44c1.9,2.6,5.4,2.7,8.3,2.1c11.3-2.4,22.9-0.2,34,2.4c8.5,1.9,16.5,5.4,24.6,8.5c9.7,3.8,19.5,7.7,29,12.1
		c17.3,7.7,33.6,17.5,49.6,27.4c-8,3.3-16.5,5.2-24.7,8c-6.3,2.2-13,2.6-19.6,3c-10.2,0.8-20.4,1.7-30.6,2.4
		c4.4,3.3,9.6,5.4,14.3,8.1c21.3,11.5,43.2,21.8,63.6,34.9c-11.3,4.5-23.7,3.5-35.5,5.3c16.1,9.7,32.4,18.9,48.9,27.8
		c33.6,18.3,70.1,30.6,106.7,41.3c17.8,4,35.6,8.7,53.7,11.2c41.5,6.4,83.1,12.5,124.9,17.6c24,3.8,48.2,6.9,72,11.9
		c13.2,2.6,26.5,5,39.5,8.4c32.9,8,66.5,15.2,97.1,30.1c9.5,5.1,18.8,10.4,28.3,15.5c-0.6-8.8-1.5-17.5-3.7-26
		c1.9,1,3.8,2.1,5.7,3.1c-7.2-48.7-14.3-97.4-21.7-146.1c-1.4-11-2.4-22.1-4.2-33c-1.4-9.2-4-18-6-27.1c-2-8.8-4.5-17.3-7.3-25.9
		c-1.2-3.9-3.2-7.9-7-9.9c-3-2-6.7-1-9.9-2c-1.9-2.2-3.2-4.9-4.8-7.4c-18.2-29.7-36.8-59.2-55.3-88.7c-2.9-4.4-5.1-9.5-9.5-12.5
		c-13.4-10.4-26-21.9-39.6-32.2c4.7,15.3,10,30.4,15.2,45.5c3.2,10.1,5.8,20.4,8,30.8c-6-4.2-11.1-9.4-16.8-13.9
		c-16.4-13.2-31.2-28.1-46-43c-9.6-10.1-19.3-20.2-27.8-31.3c-5.8-7.6-11.7-15.2-16.2-23.8c-1.3-2.2-2.3-5.2-5.1-5.9
		c-14.7-5-29.1-10.8-44-15.1c-24-7-47.9-14.4-72.4-19.5c-21.9-4.1-43.7-8.8-65.7-12.1c-13.2-2.7-26.7-3.3-39.9-5.3
		c-12.7-1.1-25.3-3.1-38-3.7c-10-0.5-20-1.9-30.1-1.9C480.5,162.6,456.1,162.5,431.7,162.3z"/>
	<path class="st2" d="M794.9,348c0.3,0.1,0.9,0.3,1.2,0.4c5.5,8.4,11.1,16.8,16.5,25.4c-2.9,3.9-5.9,7.7-8.2,12c-1,0.5-2,0.9-3,1.4
		c-14.6,4.2-29.9,5.3-45,5c0.3-8.3,1.2-16.6,1.3-25c6.6,0.6,13.5,0.9,19.7-1.9C785.2,362.2,791.7,355.9,794.9,348z"/>
</g>
<g id="_x23_ffffffff">
	<path class="st3" d="M431.7,162.3c24.4,0.2,48.9,0.3,73.3,2c10,0,20,1.3,30.1,1.9c12.7,0.6,25.3,2.6,38,3.7
		c13.3,1.9,26.8,2.6,39.9,5.3c22,3.3,43.8,8,65.7,12.1c24.5,5.1,48.4,12.5,72.4,19.5c14.9,4.3,29.3,10.1,44,15.1
		c2.8,0.7,3.8,3.7,5.1,5.9c4.4,8.5,10.3,16.1,16.2,23.8c8.4,11.1,18.1,21.2,27.8,31.3c14.8,14.9,29.6,29.8,46,43
		c5.7,4.5,10.8,9.7,16.8,13.9c-2.2-10.4-4.8-20.6-8-30.8c-5.2-15.1-10.5-30.2-15.2-45.5c13.5,10.3,26.1,21.7,39.6,32.2
		c4.5,3.1,6.7,8.1,9.5,12.5c18.5,29.5,37.1,59,55.3,88.7c1.5,2.5,2.8,5.1,4.8,7.4c3.2,0.9,6.9,0,9.9,2c3.8,2,5.7,6,7,9.9
		c2.8,8.5,5.3,17.1,7.3,25.9c2,9,4.6,17.9,6,27.1c1.7,10.9,2.8,22,4.2,33c7.4,48.7,14.5,97.4,21.7,146.1c-1.9-1.1-3.8-2.1-5.7-3.1
		c2.2,8.5,3.1,17.3,3.7,26c-9.5-5.1-18.8-10.4-28.3-15.5c-30.6-14.9-64.2-22-97.1-30.1c-13-3.4-26.3-5.8-39.5-8.4
		c-23.8-5-48-8.1-72-11.9c-41.7-5.1-83.3-11.2-124.9-17.6c-18.1-2.5-35.8-7.2-53.7-11.2c-36.6-10.7-73.1-22.9-106.7-41.3
		c-16.5-8.9-32.9-18.1-48.9-27.8c11.8-1.8,24.2-0.8,35.5-5.3c-20.4-13.1-42.3-23.4-63.6-34.9c-4.8-2.7-9.9-4.8-14.3-8.1
		c10.2-0.8,20.4-1.6,30.6-2.4c6.6-0.3,13.3-0.8,19.6-3c8.2-2.7,16.7-4.6,24.7-8c-16.1-9.9-32.3-19.7-49.6-27.4
		c-9.5-4.4-19.2-8.3-29-12.1c-8.1-3-16.1-6.6-24.6-8.5c-11.1-2.6-22.7-4.8-34-2.4c-2.9,0.6-6.4,0.5-8.3-2.1
		c-10.2-14-19.3-28.9-28-44c-21.9-36.6-37.6-76.7-49.4-117.6c-5.6-17.9-10.2-36.4-11.3-55.2c56.2-0.1,112.4,0.1,168.6-0.1
		C439.3,171.4,434.9,167.3,431.7,162.3 M444.1,167.6c3.6,4.9,7.8,9.3,11.7,14.1c-58.4,0-116.9,0-175.3,0c1.9,14.2,4.7,28.3,8.8,42
		c3.4,11.1,6.1,22.5,10.4,33.4c8.7,24.7,18.5,49.2,30.9,72.4c11.1,20.4,23.2,40.2,36.3,59.3c18.5-3.2,37.5,0.6,54.9,7.3
		c14.8,5.7,29.5,11.8,43.8,18.5c19.6,9.2,38.1,20.5,56.6,31.5c-12.3,5.5-25.3,9.1-38.2,12.9c-9.8,3.2-20.2,2.5-30.3,3.7
		c13.7,8,28.1,14.9,42,22.5c8.2,4.7,16.4,9.6,24.7,14.3c1.5,0.8,2.9,2,4.1,3.3c-2,0.9-4,1.8-6.1,2.6c-7.4,3.3-15.6,3.7-23.4,5.5
		c23.5,14.2,47.8,27.3,73.4,37.5c18.4,7.3,37.3,13.4,56.2,19.2c39,11.3,79.3,16.1,119.4,22c23,3.4,46.1,6.3,69.2,9.3
		c22.2,4,44.8,6,66.8,10.9c12.4,2.6,24.8,4.6,37.1,7.8c31.5,7.6,63.5,14,93.2,27.2c10.1,3.8,19.5,9.3,28.9,14.5
		c-0.7-5.2-1.3-10.4-3-15.4c-2.3-5.9-5.4-11.5-8.2-17.2c4.3,2.7,8.3,5.7,12.7,8.3c-7.2-49.2-14.4-98.4-21.8-147.6
		c-1.3-9.1-1.8-18.4-3.9-27.3c-3-15.8-6.8-31.5-12.7-46.4c-2-5.1-8.3-3.2-12.5-3.2c-21.9-35.5-43.8-70.9-66.3-106
		c-3-4.6-7.8-7.5-11.8-11.1c-5.4-4.3-10.4-9-16.1-12.9c6.2,17.9,12.9,35.7,16.2,54.3c1.2,6.8,3.3,13.5,4.2,20.4
		c-10-8-19.3-16.8-29.2-24.8c-6.3-5-11.9-10.8-18.1-16c-8-6.6-15.2-14.2-22.5-21.5c-7.3-7.4-15.1-14.2-21.4-22.5
		c-10.9-13-22.4-25.8-30.3-40.9c-1-2.7-3.9-3.4-6.3-4.3c-13.9-4.9-27.6-10.4-41.8-14.4c-10.6-3.2-21.4-5.9-32-9.1
		c-20.2-6.3-41.1-10.1-62-14c-8.4-1.5-16.7-3.6-25.1-4.8c-7.2-1.1-14.3-2.2-21.4-3.4c-11.5-2-23.2-2.6-34.8-4.5
		c-28.8-3.3-57.8-5.3-86.8-6.5C470.7,168.2,457.4,168.5,444.1,167.6z"/>
	<path class="st3" d="M684.9,289c19.8,5.2,38.9,13.1,56.4,23.9c3.9,2.5,7.8,5.2,11.3,8.3l1.4,1.4c-16.7-0.2-33.4,0.2-50.1-0.2
		C697.4,311.4,689.9,300.8,684.9,289z"/>
</g>
<g id="_x23_a8a8a8ff">
	<path class="st4" d="M444.1,167.6c13.3,0.9,26.6,0.6,39.9,0.9c29,1.2,58,3.2,86.8,6.5c11.5,1.9,23.2,2.5,34.8,4.5
		c7.1,1.2,14.3,2.3,21.4,3.4c8.4,1.2,16.7,3.3,25.1,4.8c20.8,3.8,41.7,7.7,62,14c10.6,3.2,21.4,5.9,32,9.1
		c14.2,4,27.9,9.5,41.8,14.4c2.4,0.9,5.3,1.6,6.3,4.3c8,15.1,19.4,27.9,30.3,40.9c6.3,8.2,14.2,15.1,21.4,22.5
		c7.3,7.3,14.5,14.9,22.5,21.5c6.2,5.2,11.8,10.9,18.1,16c9.9,8.1,19.3,16.8,29.2,24.8c-0.9-6.9-2.9-13.5-4.2-20.4
		c-3.3-18.7-10.1-36.5-16.2-54.3c5.7,3.8,10.7,8.6,16.1,12.9c4,3.6,8.8,6.5,11.8,11.1c22.5,35.1,44.4,70.6,66.3,106
		c4.2-0.1,10.5-1.9,12.5,3.2c5.9,15,9.8,30.6,12.7,46.4c2.1,9,2.6,18.2,3.9,27.3c7.4,49.2,14.6,98.4,21.8,147.6
		c-4.4-2.5-8.4-5.6-12.7-8.3c2.8,5.7,5.9,11.3,8.2,17.2c1.7,4.9,2.3,10.2,3,15.4c-9.4-5.3-18.8-10.8-28.9-14.5
		c-29.7-13.2-61.7-19.6-93.2-27.2c-12.2-3.1-24.7-5.2-37.1-7.8c-22-4.9-44.6-6.9-66.8-10.9c-23.1-3-46.2-6-69.2-9.3
		c-40-5.9-80.4-10.8-119.4-22c-19-5.7-37.8-11.9-56.2-19.2c-25.5-10.3-49.8-23.3-73.4-37.5c7.8-1.8,16-2.2,23.4-5.5
		c2-0.9,4.1-1.8,6.1-2.6c-1.2-1.3-2.5-2.5-4.1-3.3c-8.3-4.7-16.4-9.6-24.7-14.3c-14-7.6-28.3-14.5-42-22.5
		c10.1-1.2,20.6-0.5,30.3-3.7c12.9-3.8,25.9-7.4,38.2-12.9c-18.6-11-37.1-22.3-56.6-31.5c-14.4-6.8-29-12.8-43.8-18.5
		c-17.3-6.7-36.3-10.4-54.9-7.3c-13.1-19.1-25.2-39-36.3-59.3c-12.4-23.2-22.2-47.6-30.9-72.4c-4.3-10.9-7-22.2-10.4-33.4
		c-4.1-13.7-6.9-27.8-8.8-42c58.4,0,116.9,0,175.3,0C451.9,176.9,447.7,172.5,444.1,167.6 M458,173.7c3.6,4.7,7.8,9,11.3,13.7
		c-16.6,0-33.1,0-49.7,0c-43.8,0-87.7,0-131.5,0c3.4,20.9,9.1,41.4,15.8,61.4c13.7,40.8,32,80.2,55.7,116.2c1.9,4.6,5.3,8.5,8,12.7
		c1,1.4,2,2.7,3,4.1c21.2-2.8,42.1,3.7,61.7,10.9c35.8,13.9,69.6,32.5,101.9,53.1c1.8,0.6-0.5,1.8-1.1,2
		c-18.4,8.4-37.6,14.8-57.4,18.9c10.8,6.2,21.9,11.5,32.6,17.8c10.1,6,20.4,11.7,29.9,18.5c-8.3,3.9-16.9,7.3-25.5,10.5
		c57.3,33.5,121.8,53.8,187.4,62.9c22.9,3.5,45.8,6.6,68.7,9.9c23,3.3,46.2,5.9,69.1,9.7c41,6.4,81.8,14.2,121.9,25.1
		c24.6,6.8,49.3,14.2,71.8,26.5c-3.7-9.2-8.1-18.3-14.7-25.8c-2.5-3-5.7-5.2-9.2-7c2.2-1.2,4.6-2,7.2-1.8c7,0.1,12.7,4.6,17.8,8.9
		c-0.3-4.1-1-8.1-1.6-12.1c-4.5-30.7-9-61.5-13.7-92.2c-1.9-14.1-4.3-28-5.8-42.2c-2.6-20.5-7.4-40.7-14.7-60
		c-3.4,0.5-6.8,0.8-10.2,1c-22.3-36.4-44.7-72.8-67.9-108.6c-2.6-4.1-6.9-6.8-10.6-9.8c8,22.9,12.6,46.9,16.2,70.8
		c-33.7-26.5-66.4-54.6-96-85.7c-13-14.1-25.8-28.7-35.8-45.1c-1.8-2.8-2.8-6.6-6.5-7.5c-63.1-24.1-129.4-38.6-196.3-47.5
		C546.3,177.4,502.1,173.9,458,173.7z"/>
</g>
<g id="_x23_204c4eff">
	<path class="st5" d="M458,173.7c44.2,0.3,88.3,3.7,132.1,9.5c66.8,8.8,133.2,23.4,196.3,47.5c3.7,0.8,4.7,4.7,6.5,7.5
		c10,16.5,22.8,31,35.8,45.1c29.6,31.1,62.2,59.2,96,85.7c-3.7-23.9-8.3-47.9-16.2-70.8c3.7,3,8,5.7,10.6,9.8
		c23.2,35.9,45.6,72.2,67.9,108.6c3.4-0.2,6.8-0.5,10.2-1c7.3,19.3,12.2,39.5,14.7,60c1.5,14.1,3.9,28.1,5.8,42.2
		c-7.6-2.3-14.9-5.4-22.7-6.7c5.1,7.7,8.7,16.5,9.1,25.8c0.7,13.9-3.9,27.6-10.4,39.7c-1.7,3.1-3.2,6.3-5.7,8.9
		c-5.1-1.3-9.8-4.1-14.8-5.7c-28.6-9.8-59.3-14.3-89.4-11.4c5.7,1.9,11.6,3.2,17.2,5.6c10.6,4.5,20.8,10.2,29.8,17.4
		c-12.9,0.7-25.8-0.6-38.7-1.1c-45.4-2.6-90.7-7.3-135.6-14.9c-37.1-6.3-74-14.9-109.5-27.5c-28.4-10.5-56.6-23.3-79.8-43.2
		c-10-8.5-18.8-18.6-25-30.2c16.8-9.5,32.6-20.7,48.3-32c-17.4-10.3-35.6-19.2-53.7-28.3c-30.8-15-62.2-29-94.9-39.2
		c-14.3-4.2-28.9-8-43.8-8.5c-6.8-0.1-13.9,0.4-20.2,3.2c-4,1.8-7.1,5-10.2,8c-2.7-4.2-6.1-8-8-12.7c-0.4-2.3-0.8-4.7-1.9-6.8
		c-7-13.1-12.9-26.9-18.4-40.8c-6.1-16.3-11.7-32.9-14.9-50c-2.8-15.1-4.3-30.8-0.7-45.8c0.3-2.9,3.2-3.8,5.5-4.6
		c9.9-3.2,20.5-3.9,30.8-4.3c23.6-0.2,47,3.8,70.1,8.1c-2.9-11.3-7.6-22.1-10.6-33.4c16.6-0.1,33.1,0,49.7,0
		C465.7,182.6,461.5,178.4,458,173.7 M475.3,182.1c4,5.8,9.1,10.6,13,16.5c-9.5,0.2-19-0.1-28.5,0.2c7.8,13,15.9,25.8,24,38.6
		c14.3-1.8,28.7-2.8,43.1-3.1c14.7-1.1,29.4-0.6,44.1-0.7c51.5,0.4,102.8,4.2,154,9.4c14.5,1.4,28.9,3.6,43.4,4.9
		c-4-4.9-9.2-8.5-14.5-11.9c-15.9-9.9-33.7-16.3-51.6-21.6c-42.9-12.5-87.2-19.2-131.4-24.5C539.2,186.4,507.3,183.4,475.3,182.1
		 M490.6,248.6c4.6,15.9,15.2,31.4,31.1,37.5c9.8,4,20.8,3,30.9,1c4,19.5,8.1,39,13.9,58.1c9.3,31.3,20.9,62.5,39.4,89.7
		c9.2,13.2,20.6,25.5,35,33.1c9,4.9,19.2,6.6,29.1,8.8c22,4.5,44.7,5,67,2.7c7.4-0.2,14.8-1.5,22.1-0.2c11.6,1.2,21.3,8.4,29.4,16.3
		c11.7,12,20.1,27.1,25.1,43.1c7.2-2,14.2-4.8,21.5-6.5c1.6-0.3,2.9-1.3,4.3-2.1c-11.9-14-22.1-30-25.7-48.2
		c-2.3-11.5-2-24.5,5.1-34.3c3.8-5,9.8-9.3,16.3-9.1c5.9,1.4,10.6,5.6,15,9.5c8.4,8,16.5,16.6,22.3,26.7c2.2,3.8,6.2,6.4,10.6,6.8
		c5.4,0.5,11,0.1,16.2-1.5c12.8-3.7,24.6-10.1,35.9-17c5.9-3.8,11.9-7.3,17.4-11.7c-9.5,4-19,8-28.9,10.9c-9.8,2.9-20,5.8-30.3,4.4
		c-2.3-0.6-5.5-0.8-6.5-3.4c-6.8-17.1-15.4-33.5-24.5-49.5c-18.8-32.1-41.2-62.3-67.7-88.3c-10.5-10.7-22.4-19.8-34.9-28.1
		c-29.2-18.7-62-31.5-95.8-39.3c-25.5-6-51.7-9.7-77.9-9.3C554.2,248.6,522.4,248.5,490.6,248.6 M390.7,319.5
		c-3.4,2.2-7.4,4.2-9.7,7.7c24.9-2.7,50.7-1.3,74.4,7.3c5.1,2,10.4,3.6,14.9,6.6c-5,0.6-10.3,0.4-14.7,3.1
		c14.7,2.5,29.5,6.6,42,15.1c9.4,7.4,16.5,17.1,23.5,26.8c-4.5-16.4-9.7-32.6-13.1-49.3c-1.9-9.2-3.9-18.6-3-28.1
		C467.7,295.4,424.8,299.6,390.7,319.5 M873,412c3.9,11.1,8.9,21.9,14.8,32.1c3,4.5,6,9.6,11.2,11.7c5.8,1.4,11.7-0.3,17.3-1.5
		c13.7-3.2,26.8-8,40-12.9c3.4-1.2,6.7-2.5,9.8-4.2C935.2,428.8,904.1,420.2,873,412 M868.8,505.9c9.1,1.3,18.3,2.5,27.2,4.8
		c12.5,3.1,25.7,7.2,34.6,17.1c2.9-3.3,6.1-6.6,10.5-7.7c3.8-1.3,7.6,0.4,11.3,1c-2.4-3.8-6.7-5.4-10.6-7.2
		c-17-7-35.5-10.1-53.8-9.7C881.6,504.4,875,504,868.8,505.9z"/>
	<path class="st5" d="M633.9,278.8c6.3-1.3,13.1-1.1,19.6-1.4c-2.2,6-5.3,11.7-7.1,17.8c-4.5,14.2-5.4,29.6-2.9,44.3
		c1.9,9.4,4.4,18.9,9.8,26.9c1.1,2.7,2.2,5.4,3.3,8.1c4.8,16.2,16.2,29.5,28.6,40.5c-4.8-1.5-8.7-4.6-12.7-7.5
		c-25.2-18.6-42.1-48.3-44.9-79.6C626.5,311.4,627.6,294.3,633.9,278.8z"/>
	<path class="st5" d="M817,380.9c2.8,3.2,4.3,7.6,7,11c-2.7,3.6-5.7,7-9.4,9.7c-9.3,7-18.7,14.7-30,18.3c10-7.3,19.6-15.5,26.4-26
		C813.5,389.8,816.7,385.9,817,380.9z"/>
</g>
<g id="_x23_31797dff">
	<path class="st1" d="M475.3,182.1c32,1.4,63.9,4.3,95.7,7.8c44.3,5.3,88.6,12,131.4,24.5c17.9,5.3,35.7,11.7,51.6,21.6
		c5.2,3.4,10.5,7,14.5,11.9c-14.5-1.3-28.9-3.4-43.4-4.9c-51.2-5.2-102.5-9-154-9.4c-14.7,0.1-29.4-0.4-44.1,0.7
		c-14.4,0.3-28.8,1.3-43.1,3.1c-8.1-12.8-16.3-25.6-24-38.6c9.5-0.3,19,0,28.5-0.2C484.4,192.7,479.3,187.8,475.3,182.1z"/>
	<path class="st1" d="M653.5,277.4c9.4-0.4,18.8,0.3,28,2.1c-12.5,10.1-21.3,24.4-26.3,39.5c-5,15.3-4.7,31.7-1.9,47.4
		c-5.4-8-7.9-17.5-9.8-26.9c-2.5-14.7-1.6-30,2.9-44.3C648.2,289.1,651.3,283.4,653.5,277.4z"/>
	<path class="st1" d="M390.7,319.5c34.1-20,77-24.1,114.2-10.8c-0.9,9.5,1.2,18.9,3,28.1c3.4,16.7,8.6,32.9,13.1,49.3
		c-6.9-9.7-14.1-19.4-23.5-26.8c-12.5-8.5-27.3-12.6-42-15.1c4.5-2.6,9.8-2.5,14.7-3.1c-4.6-3-9.8-4.7-14.9-6.6
		c-23.7-8.6-49.5-10-74.4-7.3C383.3,323.7,387.3,321.8,390.7,319.5z"/>
	<path class="st1" d="M873,412c31.1,8.3,62.1,16.8,93.2,25.2c-3.2,1.7-6.5,3-9.8,4.2c-13.1,4.9-26.3,9.7-40,12.9
		c-5.7,1.1-11.6,2.9-17.3,1.5c-5.2-2.1-8.2-7.3-11.2-11.7C881.9,433.9,876.9,423.1,873,412z"/>
	<path class="st1" d="M868.8,505.9c6.2-1.9,12.8-1.5,19.2-1.7c18.3-0.4,36.9,2.7,53.8,9.7c3.9,1.8,8.2,3.4,10.6,7.2
		c-3.7-0.6-7.6-2.3-11.3-1c-4.3,1.1-7.6,4.4-10.5,7.7c-8.9-9.9-22.1-13.9-34.6-17.1C887.1,508.4,877.9,507.2,868.8,505.9z"/>
</g>
<g id="_x23_132d2fff">
	<path class="st0" d="M288.1,187.4c43.8,0,87.7,0,131.5,0c3,11.3,7.6,22.1,10.6,33.4c-23.1-4.3-46.5-8.3-70.1-8.1
		c-10.4,0.4-20.9,1.1-30.8,4.3c-2.3,0.8-5.2,1.8-5.5,4.6c-3.6,15-2.1,30.8,0.7,45.8c3.2,17.1,8.8,33.7,14.9,50
		c5.4,13.9,11.3,27.6,18.4,40.8c1.2,2.1,1.6,4.5,1.9,6.8c-23.7-36-42-75.4-55.7-116.2C297.2,228.8,291.5,208.3,288.1,187.4z"/>
	<path class="st0" d="M377.8,369.7c6.3-2.8,13.3-3.3,20.2-3.2c14.9,0.6,29.5,4.3,43.8,8.5c32.8,10.1,64.1,24.2,94.9,39.2
		c18.1,9.1,36.3,18,53.7,28.3c-15.6,11.3-31.5,22.4-48.3,32c6.2,11.6,15,21.7,25,30.2c23.1,19.9,51.3,32.7,79.8,43.2
		c35.5,12.5,72.4,21.1,109.5,27.5c44.8,7.6,90.2,12.3,135.6,14.9c12.9,0.5,25.8,1.8,38.7,1.1c-9-7.2-19.2-13-29.8-17.4
		c-5.6-2.4-11.5-3.6-17.2-5.6c30.1-3,60.9,1.5,89.4,11.4c5.1,1.5,9.7,4.4,14.8,5.7c2.5-2.5,4-5.8,5.7-8.9
		c6.5-12.1,11.1-25.8,10.4-39.7c-0.4-9.3-4-18.1-9.1-25.8c7.8,1.3,15.1,4.4,22.7,6.7c4.7,30.7,9.1,61.4,13.7,92.2
		c0.6,4,1.2,8,1.6,12.1c-5.1-4.3-10.8-8.8-17.8-8.9c-2.6-0.2-5,0.7-7.2,1.8c3.5,1.7,6.7,4,9.2,7c6.6,7.5,10.9,16.6,14.7,25.8
		c-22.5-12.3-47.2-19.7-71.8-26.5C919.8,610.2,879,602.4,838,596c-23-3.7-46.1-6.4-69.1-9.7c-22.9-3.3-45.9-6.4-68.7-9.9
		c-65.6-9-130.1-29.4-187.4-62.9c8.6-3.3,17.2-6.6,25.5-10.5c-9.5-6.8-19.8-12.5-29.9-18.5c-10.7-6.3-21.9-11.7-32.6-17.8
		c19.8-4.1,39-10.5,57.4-18.9c0.6-0.3,3-1.4,1.1-2c-32.3-20.6-66.1-39.2-101.9-53.1c-19.6-7.2-40.5-13.7-61.7-10.9
		c-1-1.4-2-2.7-3-4.1C370.7,374.7,373.8,371.4,377.8,369.7z"/>
</g>
<g id="_x23_000000ff">
	<path d="M490.6,248.6c31.8-0.1,63.6,0,95.4,0c26.3-0.5,52.4,3.3,77.9,9.3c33.8,7.8,66.5,20.6,95.8,39.3
		c12.5,8.3,24.4,17.4,34.9,28.1c26.6,26.1,49,56.2,67.7,88.3c9.1,16,17.7,32.4,24.5,49.5c0.9,2.6,4.1,2.8,6.5,3.4
		c10.3,1.4,20.5-1.5,30.3-4.4c9.9-2.9,19.4-6.9,28.9-10.9c-5.4,4.4-11.5,7.9-17.4,11.7c-11.3,6.9-23.1,13.3-35.9,17
		c-5.2,1.6-10.8,2-16.2,1.5c-4.4-0.4-8.4-3.1-10.6-6.8c-5.8-10.1-14-18.7-22.3-26.7c-4.5-3.9-9.1-8.1-15-9.5
		c-6.6-0.2-12.5,4.1-16.3,9.1c-7.1,9.8-7.4,22.8-5.1,34.3c3.6,18.2,13.8,34.3,25.7,48.2c-1.4,0.8-2.7,1.8-4.3,2.1
		c-7.3,1.7-14.3,4.5-21.5,6.5c-4.9-16-13.3-31.1-25.1-43.1c-8.1-7.8-17.8-15.1-29.4-16.3c-7.3-1.3-14.7,0-22.1,0.2
		c-22.3,2.3-45,1.9-67-2.7c-9.9-2.2-20.1-3.9-29.1-8.8c-14.4-7.6-25.8-19.9-35-33.1c-18.5-27.2-30.1-58.4-39.4-89.7
		c-5.8-19.1-9.9-38.6-13.9-58.1c-10.2,1.9-21.1,2.9-30.9-1C505.8,280,495.2,264.5,490.6,248.6 M633.9,278.8
		c-6.3,15.5-7.4,32.6-6.3,49.1c2.9,31.3,19.7,60.9,44.9,79.6c4,2.9,7.9,6,12.7,7.5c4.3,3.3,9.4,5.5,14.5,7.4
		c12.5,4.9,25.9,7.4,39.3,7.2c15.6,0.1,31.7-2.3,45.6-9.8c11.3-3.6,20.7-11.2,30-18.3c3.7-2.7,6.7-6,9.4-9.7c-2.7-3.4-4.2-7.8-7-11
		c-0.1-0.5-0.3-1.6-0.4-2.1c-1.9-1.1-2.8-3.2-4-5c-5.4-8.5-11-16.9-16.5-25.4c-0.3-0.1-0.9-0.3-1.2-0.4c-3.2,7.8-9.6,14.2-17.4,17.4
		c-6.2,2.8-13.1,2.5-19.7,1.9l0-0.3c-15.9-3.2-27.4-20.1-24.6-36.1c0.7-2.5,0.6-5.9,2.7-7.7c6.4-0.3,12.8,0.1,19.1-0.1
		c-0.8-0.6-1.5-1.2-2.3-1.8c-3.5-3.1-7.4-5.8-11.3-8.3c3-1.6,5.5-4,8.4-5.8c0-0.3,0-0.8,0-1c-20.8-13-44.2-21.6-68.2-26.6
		c-9.2-1.8-18.6-2.5-28-2.1C647,277.7,640.2,277.5,633.9,278.8z"/>
</g>
<g id="_x23_61c791ff">
	<path class="st6" d="M655.2,319c5-15.2,13.8-29.5,26.3-39.5c24,4.9,47.4,13.6,68.2,26.6c0,0.2,0,0.7,0,1c-2.9,1.8-5.5,4.2-8.4,5.8
		c-17.4-10.8-36.6-18.7-56.4-23.9c5,11.8,12.5,22.4,19.1,33.4c16.7,0.4,33.4,0.1,50.1,0.2l-1.4-1.4c0.8,0.6,1.5,1.2,2.3,1.8
		c-6.4,0.2-12.8-0.2-19.1,0.1c-2.1,1.8-2,5.1-2.7,7.7c-2.8,16,8.7,32.9,24.6,36.1l0,0.3c-0.1,8.3-1,16.6-1.3,25
		c15.1,0.3,30.4-0.8,45-5c-9.2,10.7-21.7,18.3-34.9,23.2c-18.4,6.7-39,7.3-57.8,1.8c-18-5.2-34.4-16.1-46.1-30.9
		c-1.9-2.4-3.9-4.6-6-6.8c-1.1-2.7-2.2-5.4-3.3-8.1C650.5,350.7,650.2,334.3,655.2,319z"/>
</g>
<g id="_x23_c2d998ff">
	<path class="st7" d="M812.6,373.8c1.1,1.8,2.1,3.8,4,5c0.1,0.5,0.3,1.6,0.4,2.1c-4.6,0.3-8.3,3.5-12.6,4.9
		C806.7,381.5,809.7,377.7,812.6,373.8z"/>
</g>
<g id="_x23_4a986fff">
	<path class="st8" d="M656.6,374.5c2,2.2,4.1,4.4,6,6.8c11.7,14.8,28,25.6,46.1,30.9c18.8,5.4,39.4,4.8,57.8-1.8
		c13.2-4.9,25.7-12.4,34.9-23.2c1-0.5,2-1,3-1.4c4.3-1.4,8-4.6,12.6-4.9c-0.2,4.9-3.5,8.9-6,12.9c-6.8,10.5-16.4,18.8-26.4,26
		c-13.9,7.4-30,9.8-45.6,9.8c-13.4,0.2-26.8-2.3-39.3-7.2c-5-2-10.1-4.1-14.5-7.4C672.7,404,661.3,390.8,656.6,374.5z"/>
</g>
</svg>
