<?xml version="1.0" encoding="utf-8"?>
<!-- Generator: Adobe Illustrator 19.0.0, SVG Export Plug-In . SVG Version: 6.00 Build 0)  -->
<svg version="1.1" id="Layer_1" xmlns="http://www.w3.org/2000/svg" xmlns:xlink="http://www.w3.org/1999/xlink" x="0px" y="0px"
	 viewBox="-108.8 346.3 163.3 161.3" style="enable-background:new -108.8 346.3 163.3 161.3;" xml:space="preserve">
<style type="text/css">
	.st0{fill:#FFFFFF;}
</style>
<g id="_x23_000000ff">
	<path class="st0" d="M-33,355.7c5.6,0,11.1,0,16.7,0c0,2.2,0,4.3,0,6.5c-4,0-8,0-12,0c-0.3,1.8-0.7,3.5-1,5.3
		c2.8-1,6.1-1.5,8.8,0.1c6.2,3,7.4,11.9,3.1,17c-3.7,5.1-12,5.6-16.4,1.1c-1.8-1.7-2.5-4.2-3.2-6.5c2.1-0.3,4.1-0.6,6.2-0.9
		c0.8,2.2,2,5.2,4.9,5c5.9,0,6.5-10.4,0.8-11.3c-2.5-0.5-4.6,1.1-6.7,2.2c-1.4-0.3-2.9-0.5-4.3-0.8C-35,367.5-33.9,361.6-33,355.7z"
		/>
	<path class="st0" d="M-27.5,406c3.6-0.6,7.4,0.8,9.5,3.9c2.5,3.8,2.7,8.6,2.8,13c-0.1,4.6-0.3,9.7-3.4,13.4
		c-3.3,4-9.8,4.2-13.6,0.8c-3.2-2.8-3.9-7.3-4.2-11.3c-0.2-5.3-0.3-11.1,2.6-15.8C-32.5,407.8-30,406.4-27.5,406 M-28.2,412.4
		c-2.2,3.4-1.4,7.7-1.6,11.5c0.2,3.4-0.5,8.1,3.1,10.1c3.5,0.8,4.7-3.2,4.9-5.9c0.3-4.9,0.7-9.9-0.9-14.6
		C-23.5,411.3-26.8,410.4-28.2,412.4z"/>
	<path class="st0" d="M21.5,406.7c4.3-1.7,9.8-0.4,12.1,3.7c2.4,4.4,2.6,9.6,2.5,14.4c-0.4,4.5-0.9,9.5-4.6,12.6
		c-4.7,4-12.9,1.9-15.1-4c-2.1-5.9-2.1-12.4-0.9-18.5C16.3,411.6,18.1,408,21.5,406.7 M23.4,412.2c-2.1,2.3-1.7,5.8-2,8.7
		c0.1,4-0.5,8.5,1.6,12.1c1.8,2.4,5.6,0.8,5.8-1.9c1-5.3,1.1-10.9,0.1-16.2C28.7,412.2,25.4,409.9,23.4,412.2z"/>
	<path class="st0" d="M-83.6,406.5c5.5,0,11,0,16.5,0c0,2.2,0,4.4,0,6.5c-4,0-8,0-12,0c-0.3,1.7-0.5,3.5-0.8,5.2
		c3.8-1.8,8.6-1.1,11.4,2.1c3.9,4.1,3.8,11,0.2,15.3c-3.9,5.1-12.6,5.2-16.7,0.3c-1.6-1.7-2-4-2.7-6c2-0.1,4-0.4,6-0.8
		c0.9,2.3,2.1,5.1,5,5c5.4-0.1,6.3-8.9,1.8-11c-2-1.1-4.3,0-6,1c-1.8,1.4-4,0.1-6,0.2C-85.8,418.3-84.7,412.4-83.6,406.5z"/>
	<path class="st0" d="M-30.4,460.7c4.2-1.7,9.6-0.5,12,3.5c2.8,4.7,2.8,10.5,2.6,15.8c-0.5,3.9-1,8.2-4.1,11.1
		c-4.2,4.2-12.1,2.9-14.9-2.2c-2.6-4.6-2.2-10.1-2.1-15.2C-36.7,468.7-35.2,462.9-30.4,460.7 M-29,466.8c-1.9,4.1-1.4,8.8-1.4,13.1
		c0.2,2.9,0.2,6.8,3.3,8.3c1.2-0.2,2.4-0.5,3.5-1c1.9-5.9,1.7-12.3,0.8-18.4C-23.1,465.7-27.2,463.8-29,466.8z"/>
</g>
<g id="_x23_fefefeff">
	<path d="M-48.5,346.6c14.2-0.6,28.4-0.1,42.6-0.3c1.4,0.2,3.6-0.4,4.2,1.4c0.3,16.9-0.1,33.9,0.2,50.8C0,398.7,1.5,399,3,399
		c16.4,0,32.8-0.1,49.2,0c1.8-0.2,2.5,1.5,2.4,3c0.1,13.9,0.1,27.8,0,41.7c0.3,1.6-1,2.9-2.6,2.7c-17.3,0.1-34.7-0.1-52,0.1
		c-1.6,0.3-1.5,2.1-1.5,3.4c0,17.7,0,35.4,0,53c0.1,1.6-0.3,3.1-0.9,4.5c-13.5,0.3-27,0-40.5,0.1c-1.7-0.1-3.5,0.2-5.1-0.5
		c-0.6-1.3-0.4-2.8-0.5-4.1c0-17.4,0-34.7,0-52.1c0.1-1.6-0.4-3.1-1.1-4.5c-19,0-38,0.1-57.1-0.1c-1.8,0.1-2.1-2.1-2-3.5
		c0-13.4,0-26.7,0-40.1c0.1-1.4-0.3-3.8,1.8-3.7c18.8-0.4,37.6,0.1,56.4-0.2c1.5,0,2-1.6,2-2.9C-48.5,379.5-48.8,363-48.5,346.6
		 M-33,355.7c-0.9,5.9-2,11.8-3.2,17.6c1.4,0.2,2.9,0.5,4.3,0.8c2.1-1,4.2-2.7,6.7-2.2c5.7,1,5,11.4-0.8,11.3
		c-2.8,0.2-4.1-2.8-4.9-5c-2.1,0.3-4.1,0.6-6.2,0.9c0.7,2.3,1.4,4.8,3.2,6.5c4.4,4.5,12.8,4,16.4-1.1c4.3-5.1,3.1-14-3.1-17
		c-2.7-1.6-6-1.1-8.8-0.1c0.4-1.8,0.7-3.5,1-5.3c4,0,8,0,12,0c0-2.2,0-4.3,0-6.5C-21.9,355.7-27.4,355.7-33,355.7 M-27.5,406
		c-2.5,0.4-5,1.7-6.3,4c-2.9,4.7-2.9,10.5-2.6,15.8c0.3,4,1,8.5,4.2,11.3c3.8,3.4,10.3,3.2,13.6-0.8c3-3.7,3.3-8.8,3.4-13.4
		c0-4.4-0.3-9.2-2.8-13C-20,406.8-23.9,405.4-27.5,406 M21.5,406.7c-3.4,1.3-5.2,4.9-6,8.3c-1.2,6.1-1.2,12.6,0.9,18.5
		c2.1,5.9,10.3,8,15.1,4c3.7-3.1,4.2-8.2,4.6-12.6c0.1-4.9-0.1-10.1-2.5-14.4C31.3,406.3,25.8,404.9,21.5,406.7 M-83.6,406.5
		c-1.1,5.9-2.2,11.8-3.3,17.7c2,0,4.2,1.2,6-0.2c1.8-1,4.1-2.1,6-1c4.5,2.1,3.5,11-1.8,11c-2.9,0.1-4.2-2.8-5-5c-2,0.4-4,0.7-6,0.8
		c0.7,2.1,1.1,4.4,2.7,6c4.1,4.9,12.8,4.8,16.7-0.3c3.6-4.2,3.8-11.2-0.2-15.3c-2.8-3.2-7.6-3.9-11.4-2.1c0.3-1.7,0.5-3.5,0.8-5.2
		c4,0,8,0,12,0c0-2.2,0-4.4,0-6.5C-72.6,406.5-78.1,406.5-83.6,406.5 M-30.4,460.7c-4.8,2.2-6.3,8-6.5,12.9
		c-0.1,5.1-0.4,10.6,2.1,15.2c2.8,5.2,10.7,6.4,14.9,2.2c3-2.8,3.6-7.2,4.1-11.1c0.2-5.3,0.2-11.1-2.6-15.8
		C-20.8,460.1-26.2,459-30.4,460.7z"/>
	<path d="M-28.2,412.4c1.5-2,4.8-1.1,5.5,1.1c1.5,4.7,1.1,9.8,0.9,14.6c-0.2,2.7-1.4,6.7-4.9,5.9c-3.6-2-2.8-6.7-3.1-10.1
		C-29.6,420.1-30.4,415.8-28.2,412.4z"/>
	<path d="M23.4,412.2c2.1-2.3,5.4,0.1,5.6,2.6c0.9,5.3,0.9,10.9-0.1,16.2c-0.3,2.8-4.1,4.3-5.8,1.9c-2.2-3.6-1.5-8.1-1.6-12.1
		C21.6,417.9,21.2,414.5,23.4,412.2z"/>
	<path d="M-29,466.8c1.8-3,5.9-1,6.2,2c0.9,6,1.1,12.5-0.8,18.4c-1.1,0.5-2.3,0.8-3.5,1c-3.1-1.4-3-5.4-3.3-8.3
		C-30.4,475.5-31,470.8-29,466.8z"/>
</g>
</svg>
