<?xml version="1.0" encoding="utf-8"?>
<!-- Generator: Adobe Illustrator 19.0.0, SVG Export Plug-In . SVG Version: 6.00 Build 0)  -->
<svg version="1.1" id="Layer_1" xmlns="http://www.w3.org/2000/svg" xmlns:xlink="http://www.w3.org/1999/xlink" x="0px" y="0px"
	 viewBox="-28.07 203.63 463.12 423.029" style="enable-background:new -28.07 203.63 463.12 423.029;" xml:space="preserve">
<style type="text/css">
	.st0{fill:#070707;}
	.st1{fill:url(#SVGID_1_);}
	.st2{fill:url(#SVGID_2_);}
	.st3{fill:url(#SVGID_3_);}
	.st4{fill:url(#SVGID_4_);}
	.st5{fill:url(#SVGID_5_);}
	.st6{fill:url(#SVGID_6_);}
	.st7{fill:url(#SVGID_7_);}
	.st8{fill:url(#SVGID_8_);}
	.st9{fill:url(#SVGID_9_);}
	.st10{fill:url(#SVGID_10_);}
	.st11{fill:url(#SVGID_11_);}
	.st12{fill:url(#SVGID_12_);}
	.st13{fill:url(#SVGID_13_);}
	.st14{fill:url(#SVGID_14_);}
	.st15{fill:url(#SVGID_15_);}
	.st16{fill:url(#SVGID_16_);}
	.st17{fill:url(#SVGID_17_);}
	.st18{fill:#B000D5;}
	.st19{fill:url(#SVGID_18_);}
	.st20{fill:url(#SVGID_19_);}
</style>
<path class="st0" d="M274.96,213.67c5.17-0.18,8.04,4.83,11.13,8.19c3.12,5.71,5.84,11.71,8.2,17.79
	c3.53,14.09,3.58,29.9-3.93,42.77c-0.84,1.51-1.66,3.03-2.51,4.54c11.26,13.32,16.55,30.75,17.38,47.96
	c1.13,20.12-3.23,40.07-9.31,59.13c11.99,0.68,24.01,0.01,36.01-0.17c6.22,14.21,12.32,28.46,18.52,42.68
	c1.35,2.97,2.38,6.12,4.25,8.83c1.53,3.08,2.28,6.61,4.25,9.44c12.62,0.16,25.24,0.01,37.87,0.06
	c6.73,20.29,14.17,40.33,20.77,60.67c2.58,8.11,5.43,16.14,8.17,24.2c-28.31,4.86-56.64,9.73-84.88,15
	c-1.84,9.99-3.49,20.03-5.03,30.08c-18.98,1.98-37.91,4.74-56.88,7.02c-9.13,0.92-18.2,2.71-27.37,3.06
	c4.79-7.27,9.9-14.6,12.45-23.01c-7.23,8.74-14.6,17.51-23.73,24.37c-9.3,7.12-19.89,12.87-31.37,15.49
	c-3.14,0.33-6.23,2.56-9.33,0.83c-15.4-2.93-29.53-10.93-41.02-21.46c-6.6-5.62-12-12.46-17.42-19.17
	c1.93,7.74,6.7,14.57,11.11,21.15c-21.83-1.91-43.52-4.95-65.3-7.25c-6.67-0.54-13.27-1.96-19.97-2c0.3-4.73-1.2-9.3-1.22-14.01
	c-0.89-4.68-0.69-9.48-1.74-14.12c-16.78-3.97-33.68-7.49-50.49-11.34c-1.67-0.41-3.37-0.63-5.07-0.82c0.75-2.16,1.8-4.19,3.08-6.06
	c96.47,0.06,192.94,0.01,289.42,0.02c23.24-0.15,46.84,1.37,69.66-4.02c6.51-1.7,13.31-3.9,18.25-8.68
	c2.31-2.11,3.29-6.21,0.59-8.42c-6.15-5.78-15.15-6.55-23.15-7.31c1.95-12.55,4.62-24.98,6.68-37.51
	c6.52-0.11,13.04-0.01,19.56-0.06c0.76-4.09,1.54-8.18,2.32-12.27c-20.72-0.05-41.44-0.04-62.16-0.05c-2.6-0.75-2.83,2.17-3.23,3.87
	c-2.04,11.21-4.09,22.41-6.15,33.61c-0.81,3.92-1.77,8.05-4.44,11.15c-3.08,3.34-8.32,3.73-12.42,2.41
	c-4.01-1.66-4.39-6.62-3.76-10.33c2.18-13.63,5.1-27.13,7.26-40.75c-4.94,0.19-9.88-0.1-14.81,0.13
	c-2.09,6.59-2.63,13.75-4.15,20.56c-0.91,3.39-0.65,7.15-2.3,10.31c-0.66-4.87-1.54-9.77-3.93-14.13c6.1-5.41,9.27-14.01,7.24-22.02
	c-1.93,7.3-9.28,10.88-16.27,11.5c-10.92-7.94-26.51-8.6-37.79-1.03c-2.63-0.61-5.22-1.46-7.44-3.02c-1.46-2.21-3.27-4.19-3.69-6.91
	c-0.72,1.51-1.15,3.12-1.42,4.76c-16.49,0.05-32.98,0-49.46,0.02c-1.52-0.16-2.68,0.93-3.75,1.82
	c-7.67,6.97-15.38,13.89-23.13,20.78c1.42-7.53,2.75-15.07,4.19-22.59c-10.85-0.04-21.7,0.07-32.55,0.12
	c4.91,3.03,10.47,4.81,15.63,7.39c-2.63,14.34-5.45,28.65-7.81,43.04c-3.09-16.78-5.9-33.64-8.45-50.51
	c-29.54,0.04-59.08-0.01-88.63,0.08c5,3.63,11.38,4.94,16.61,8.26c-8.35,18.14-17.15,36.09-25.48,54.26
	c5.37-0.08,10.75,0.2,16.11-0.19c3.29-8.65,7.9-16.8,10.63-25.63c11.13,0.13,22.26,0.07,33.39,0.04
	c-5.04,8.69-9.63,17.64-14.27,26.55c5.35-0.04,10.7,0.16,16.05-0.13c1.45-3.18,3.12-6.24,4.69-9.35c-0.9-0.68-1.8-1.37-2.69-2.06
	c9.14,0.04,18.27,0.06,27.41,0c0.67,3.85,1.15,7.72,1.85,11.56c8.61-0.06,17.22,0.07,25.83-0.07c1.55-8.73,3.26-17.43,4.74-26.17
	c6.82,8.59,13.35,17.42,19.98,26.16c5.91,0.14,11.82,0.04,17.73,0.08c-1.59-2.63-3.54-4.98-5.6-7.24
	c-6.05-8.85-13.14-16.92-19.63-25.45c9.53-8.39,18.88-16.99,28.41-25.38c-2.73,16.34-5.88,32.6-8.88,48.89
	c2.46,2.89,3.85,6.52,6.58,9.2c11.44-0.07,22.87-0.01,34.31-0.03c0.8-4.13,1.51-8.28,2.27-12.41c-8.98-0.15-17.97,0.13-26.94-0.15
	c0.82-4.74,1.71-9.48,2.57-14.21c8.18-0.11,16.36,0.11,24.53-0.13c0.89-4.16,1.54-8.37,1.71-12.63c-7.95,0.53-15.94,0.25-23.9,0.18
	c0.69-3.82,1.42-7.63,2-11.46c8.73-0.52,17.46,0.28,26.19-0.19c0.24-1.53,0.49-3.06,0.73-4.58c0.94,1.07,1.87,2.15,2.81,3.24
	c-3.15,4.06-6.25,8.67-6.62,13.95c-0.38,0.6-0.76,1.21-1.14,1.82c-0.42,8.41,1.02,17.18,6.18,24.06
	c7.7,10.84,22.43,15.84,35.17,12.14c4.24-0.99,7.77-3.81,12.03-4.7c4.34-1.11,8.78-1.73,13.23-2.1c6.1,7.61,16.87,8.17,25.78,6.77
	c6.48-0.81,12.42-4.16,16.55-9.19c5.78-1.18,12.01-0.44,17.97-0.72c-0.61,3.07-1.19,6.15-1.69,9.25c5.05,0,10.1,0.03,15.16-0.03
	c0.58-2.83,1.11-5.67,1.57-8.52c4.69,0.77,10.3,0.75,13.55,4.79c-2.07,2.87-5.81,3.22-8.98,3.98c-16.52,2.92-33.33,3.1-50.05,3.45
	c-36.29,0.46-72.58,0.39-108.87,0.43c-64.09,0.02-128.18-0.14-192.27-0.42c1.16-2.91,2.76-5.6,4.25-8.34
	c-10.41,3.2-20.75,6.61-31.12,9.95c4.24,4.08,8.52,8.13,12.72,12.25c1.17,1.17,2.45,2.26,4.01,2.9c-1.05,0.36-2.14,1.17-3.29,0.51
	c-7.31-1.79-14.7-3.28-22.04-4.99c9.85-18.93,19.19-38.12,29.44-56.83c4.47-8.66,8.95-17.31,13.44-25.96
	c7.01-0.05,14.03,0.11,21.04-0.11c1.37-2.92,2.45-5.96,3.86-8.86c8.66-16.33,17.24-32.71,25.93-49.03
	c12.65,0.01,25.31,0.01,37.96,0.01c-11.55-21.53-17.77-46.69-13.74-71.07c1.96-12.53,6.79-24.61,13.95-35.08
	c-6.03-12.08-12.69-24.25-14.4-37.85c-0.99-6.78-0.63-13.88,1.96-20.28c1.6-4.17,2.9-9,6.97-11.47
	c4.66,8.87,11.29,16.75,19.57,22.45c6.71,4.69,13.24,9.8,20.57,13.51c3.23-4.38,8.76-5.84,13.62-7.61
	c22.49-7.71,47.61-10.09,70.39-2.2c4.18,1.18,7.93,3.53,12.08,4.73c5.47-1.25,8.65-6.11,12.93-9.26
	c6.05-4.95,10.25-11.81,12.99-19.06C273.2,220.44,273.12,216.76,274.96,213.67 M277.69,221.59c-0.68,4.22-0.53,8.66-2.51,12.58
	c-5.39,12.22-16.99,20.07-28.23,26.42c-28.35-15.69-65.09-14.64-92.31,3.02c-1.93,1.24-4.1,3.23-6.49,1.74
	c-11.6-5.12-23.22-11.32-31.64-21.03c-3.21-3.61-5.35-7.99-6.59-12.63c-2.96,7.67-2.89,16.3-0.53,24.13
	c3.7,11.9,11.6,22.09,20.92,30.18c-7.12,9.9-12.67,21.04-15.36,32.97c-5.29,21.66-2.07,45.25,8.83,64.7
	c1.09-1.45,4.4-2.49,2.98-4.77c-7.61-19.79-5.92-43.03,4.98-61.29c9.88-16.93,27.07-29.36,46.24-33.47
	c15.42-3.35,31.98-1.52,46.2,5.41c16.13,7.63,28.98,21.64,35.56,38.19c9.18-6.31,20.13-9.78,31.18-10.7
	c-2.21-10.91-7.61-20.93-13.92-30c7.12-8.74,11.74-19.78,11.68-31.16C288.82,243.74,285.29,231.18,277.69,221.59 M261.34,329.78
	c3.91,10.39,4.08,21.59,3.44,32.54c-2.89,26.04-21.61,49.35-46.23,58.17c-18.75,6.71-40.41,5.43-57.92-4.23
	c-14.01-7.39-25.1-19.76-31.6-34.15c-1.25,0.94-2.5,1.89-3.75,2.83c14.52,25.15,41.7,42.81,70.79,44.73
	c17.44,2.24,35.34-1.9,50.88-9.88c5.12-2.5,9.46-6.49,15-8.14c10.81-3.84,22.5-4.05,33.81-2.96c4.75,0.76,9.91,1.49,13.73,4.68
	c2.47,2.12,1.37,6.23-1.04,7.96c-6.9,5.71-15.89,7.96-24.48,9.71c-19.81,3.93-40.09,2.58-60.15,2.52c-9-0.77-18.07-0.97-26.97-2.68
	c-20.95-1.98-41.32-7.72-62.01-11.35c-3.2-0.5-7.03-0.61-9.14-3.47c-1.89-3.84,0.79-7.61,2.61-10.86
	c-11.86-2.71-24.13-5.03-36.3-3.24c-4.78,0.82-9.79,2.11-13.48,5.43c-2.34,1.79-1.22,5-0.45,7.31c3.78,9.94,10.17,18.96,18.61,25.48
	c6.31,4.75,15.04,7.01,22.54,3.79c1.47-0.77,3.81-1.83,2.77-3.86c-1.16-3.13-0.51-8.13,3.23-9.01c13.46-1.25,26.63,2.58,39.85,4.52
	c19.41,2.93,38.56,7.6,58.11,9.55c13.86,1.54,27.85,1.17,41.78,0.93c18.11-1.72,36.92-3.56,53.23-12.28
	c5.93-3.15,11.81-8.73,11.47-15.97c0.5-5.44-2.87-10.59-7.56-13.1c-6.41-3.5-13.87-4.78-21.12-4.5c-6.36,0.23-12.71-0.2-19.02-0.88
	c-2.44-0.23-4.68-1.43-6.18-3.37c16.95-21.19,23.39-50.14,17.15-76.53C281.77,320.12,270.69,323.59,261.34,329.78 M231.1,331.14
	c-9.44,2.92-16.97,10.25-22.11,18.47c7.96-0.14,15.99-0.98,23.64-3.28c3.4-1.16,7.01-2.57,9.34-5.45c1.96-2.41,2.24-6.47-0.26-8.61
	C238.83,329.68,234.54,330.14,231.1,331.14 M143.45,338.53c-2.17,1-3.65,3.52-2.86,5.89c1.05,2.07,3.33,3.08,5.49,3.57
	c7.41,1.82,15.1,1.44,22.66,1.75c-0.22-0.85-0.68-1.55-1.36-2.1c-4.16-3.72-8.67-7.26-14.03-9.02
	C150.19,337.59,146.54,337.01,143.45,338.53 M224.32,378.21c0.07,4.9-1.11,9.86-4.01,13.87c-5.33,7.52-13.89,11.77-22.25,15.05
	c-1.04,0.33-2.06,0.67-3.08,1.03c4.94-0.2,9.67-1.76,14.38-3.12c6.72-2.26,13.63-5,18.72-10.11c3.33-3.3,5.58-8.33,4.11-13.01
	C230.83,378.94,227.11,378.79,224.32,378.21 M159.29,542.75c-28.94,2.14-57.98,5.22-86.27,11.93c-0.55,7.26-0.65,14.55-0.34,21.83
	c3.65-0.27,7.13-1.45,10.71-2.11c10.07-1.9,20.24-3.13,30.35-4.79c25.34-2.47,50.79-4.61,76.31-4.47
	c14.32,0.07,28.66-0.23,42.95,0.88c13.8,0.21,27.59,1.21,41.28,2.97c18.82,1.52,37.63,3.79,56.16,7.62
	c0.87-7.25,1.72-14.6,0.93-21.9c-13.35-3.19-26.94-5.27-40.5-7.34C247.33,541.39,203.17,539.82,159.29,542.75 M105.03,576.15
	c-6.03,0.96-12.17,1.27-18.09,2.83c16.94,1.73,33.84,3.79,50.78,5.63c-1.06-4.2-1.64-8.5-2.78-12.68
	C124.99,573.49,115,574.7,105.03,576.15 M196.23,580.27c-3.38,0.85-6.83,1.34-10.26,1.88c2.23,2.87,5.2,5.14,7.27,8.14
	c0,3.54-0.87,7.05-1.17,10.58c3.32-1.48,6.62-3.03,9.94-4.54c3.3,1.52,6.59,3.05,9.91,4.55c-0.46-3.55-0.85-7.1-1.34-10.64
	c2.45-2.74,5.08-5.3,7.46-8.09c-3.44-0.55-6.91-1.04-10.28-1.88c-2.5-2.71-3.64-6.4-5.75-9.4
	C199.85,573.85,198.75,577.58,196.23,580.27 M267.21,584.55c17.17-1.77,34.31-3.84,51.51-5.43c-15.95-2.97-32.14-4.43-48.08-7.4
	C268.91,575.84,268.91,580.42,267.21,584.55z"/>
<path class="st0" d="M80.18,412.92c4.14,6.6,8.14,13.75,14.94,17.98c7,4.84,15.84,5.84,24.13,5.15c0.61,2.26,0.29,4.96-1.89,6.27
	c-4.01,0.64-8.31,0.77-12.23-0.39C93.2,436.26,84.88,425,80.18,412.92z"/>
<path class="st0" d="M343.21,471.47c4.89,0.15,9.79,0.09,14.69,0.05c-2.46,12.37-4.42,24.83-6.99,37.18
	c-5.33,0.03-10.66,0.17-15.99,0.21c1.59-3.91,2.97-7.91,3.69-12.08C340.14,488.38,341.77,479.94,343.21,471.47z"/>
<path class="st0" d="M57.5,471.21c12.82,0.17,25.66,0.21,38.49-0.01c-2.66,4.69-5.22,9.45-7.64,14.28
	c-11.19-0.07-22.37-0.08-33.55,0c1.31-4.26,3.25-8.3,5.25-12.26C59.41,472.72,58.13,471.71,57.5,471.21z"/>
<path class="st0" d="M244.49,472.42c12.94-4.35,28.53,4.03,31.56,17.43c3.74,12.79-5.05,27.25-17.97,30.17
	c-14.24,4.22-30.56-7.25-31.09-22.13C225.81,486.62,233.69,475.52,244.49,472.42 M256.01,494.11c4.03,0.01,8.56,0.29,12.03-2.14
	c1.67-1.01,2.28-4.43-0.22-4.7C263.1,487.59,259.34,491.08,256.01,494.11 M232.03,490.84c2.07,3.98,7.61,2.62,11.31,2.98
	c-2.89-2.69-6.54-4.7-10.48-5.24C232.65,489.14,232.23,490.27,232.03,490.84 M261.58,503.69c-0.13,5.88-6.82,6.87-10.7,9.59
	c4.71-0.35,10.26-0.92,13.47-4.82C266.17,506.33,263.54,504.23,261.58,503.69z"/>
<path class="st0" d="M96.17,499.61c4.15-7.95,7.88-16.12,12.35-23.89c1.03,8,2.29,15.97,3.46,23.95
	C106.71,499.68,101.43,499.78,96.17,499.61z"/>
<path class="st0" d="M281.89,511.32c2.16-3.33,3.98-6.85,5.52-10.5c-0.49,3.68,0.05,7.35,0.47,11.01
	C285.88,511.65,283.88,511.48,281.89,511.32z"/>
<g id="_x23_cdcccdff">
	<linearGradient id="SVGID_1_" gradientUnits="userSpaceOnUse" x1="203.49" y1="203.63" x2="203.49" y2="626.6586">
		<stop  offset="0" style="stop-color:#E0E0E1"/>
		<stop  offset="1" style="stop-color:#AEADAE"/>
	</linearGradient>
	<path class="st1" d="M269.67,203.63c4.26,1.39,8.84,2.25,12.52,4.98c6.47,5.07,10.67,12.29,14.89,19.19
		c8.47,18.4,10.52,41.62-1.16,59.14l1.32-0.19c0.32,1.26,0.85,2.45,1.37,3.64l0.62,0.01c1.73,3.87,4.05,7.46,5.53,11.44
		c10.66,27.33,9.25,58.12,1.33,85.96c10.51-0.23,21.06,0.39,31.54-0.3c-0.02,0.33-0.07,0.98-0.09,1.31
		c0.94,1.34,1.61,2.85,2.18,4.39c1.73,3.58,3.42,7.17,5.09,10.78c0.24,0.53,0.73,1.6,0.97,2.14c1.67,3.66,3.36,7.32,4.93,11.02
		c2.09,4.32,4.1,8.67,6.01,13.07c2.47,5.07,4.73,10.24,7.05,15.38c0.39,1.42,2.09,1.11,3.21,1.2c11.74-0.01,23.47,0,35.21,0
		c6.76,19.13,12.77,38.5,19.34,57.7c4.48,13.49,9.2,26.89,13.52,40.43c-29.58,5.61-59.2,11.07-88.88,16.16
		c-1.31,10.02-3.28,19.98-5.03,29.94c-32.55,4.56-65.18,8.67-97.76,13.08c-9.62,9.52-21.55,16.67-34.49,20.66
		c-2.29,0.64-4.45,2.02-6.9,1.89c-15.92-4.26-31.02-12.41-42.34-24.55c-32.89-4.45-65.87-8.44-98.74-13
		c-1.25-4.62-0.89-9.45-1.72-14.14c-0.25-4.66-1.23-9.25-1.35-13.92c-28.65-6.3-57.35-12.41-85.91-19.1
		c8.44-17.37,17.81-34.28,26.47-51.55c6.78-13.82,14.07-27.38,21-41.11c0.63-0.98,1.02-2.81,2.59-2.46
		c6.21-0.09,12.42-0.01,18.63-0.04c-0.11-0.48-0.35-1.45-0.47-1.93l1.14-0.21c0.47-2.14,1.64-4.06,3.34-5.44l-0.87-1.61l2.08,0.66
		c-0.24-0.54-0.74-1.62-0.99-2.15l1.83,0.34c-0.14-0.51-0.41-1.53-0.55-2.04l1.53,0.17c-0.11-0.47-0.32-1.43-0.43-1.91l1.6-0.16
		l-0.68-1.68l1.23-0.12c0.38-1.14,0.8-2.27,1.23-3.38l1.02,0.11c-0.07-0.45-0.2-1.34-0.27-1.78l0.98-0.07
		c0.23-0.54,0.71-1.63,0.94-2.18c0.5-0.9,1-1.8,1.49-2.7c0.51-0.8,1.02-1.6,1.53-2.4c5.57-9.81,11.07-19.68,16.65-29.49
		c8.65-0.19,17.33,0.05,25.95-0.87c-7.45-22.7-11.43-47.58-4.97-71.01c2.33-9.32,7.08-17.74,12.1-25.84
		c-8.17-14.29-13.95-30.61-13.04-47.28c0.42-8.88,4.23-17.26,9.62-24.21c2.03-2.56,4.78-4.38,7.53-6.08
		c4.78,5.04,8.57,10.94,13.42,15.94c6.73,7.25,15.45,12.11,23.71,17.37c2.4,1.79,5.13-0.09,7.27-1.33
		c7.98-4.03,16.24-8.24,25.37-8.49c22.42-4.28,45.61-0.8,66.91,6.86c8.44-6.86,17.82-14.19,21.04-25.06
		C269.58,213.95,270.44,208.77,269.67,203.63 M274.96,213.67c-1.84,3.09-1.76,6.77-3.07,10.04c-2.74,7.25-6.94,14.11-12.99,19.06
		c-4.28,3.15-7.46,8.01-12.93,9.26c-4.15-1.2-7.9-3.55-12.08-4.73c-22.78-7.89-47.9-5.51-70.39,2.2
		c-4.86,1.77-10.39,3.23-13.62,7.61c-7.33-3.71-13.86-8.82-20.57-13.51c-8.28-5.7-14.91-13.58-19.57-22.45
		c-4.07,2.47-5.37,7.3-6.97,11.47c-2.59,6.4-2.95,13.5-1.96,20.28c1.71,13.6,8.37,25.77,14.4,37.85
		c-7.16,10.47-11.99,22.55-13.95,35.08c-4.03,24.38,2.19,49.54,13.74,71.07c-12.65,0-25.31,0-37.96-0.01
		c-8.69,16.32-17.27,32.7-25.93,49.03c-1.41,2.9-2.49,5.94-3.86,8.86c-7.01,0.22-14.03,0.06-21.04,0.11
		c-4.49,8.65-8.97,17.3-13.44,25.96c-10.25,18.71-19.59,37.9-29.44,56.83c7.34,1.71,14.73,3.2,22.04,4.99
		c1.15,0.66,2.24-0.15,3.29-0.51c-1.56-0.64-2.84-1.73-4.01-2.9c-4.2-4.12-8.48-8.17-12.72-12.25c10.37-3.34,20.71-6.75,31.12-9.95
		c-1.49,2.74-3.09,5.43-4.25,8.34c64.09,0.28,128.18,0.44,192.27,0.42c36.29-0.04,72.58,0.03,108.87-0.43
		c16.72-0.35,33.53-0.53,50.05-3.45c3.17-0.76,6.91-1.11,8.98-3.98c-3.25-4.04-8.86-4.02-13.55-4.79c-0.46,2.85-0.99,5.69-1.57,8.52
		c-5.06,0.06-10.11,0.03-15.16,0.03c0.5-3.1,1.08-6.18,1.69-9.25c-5.96,0.28-12.19-0.46-17.97,0.72
		c-4.13,5.03-10.07,8.38-16.55,9.19c-8.91,1.4-19.68,0.84-25.78-6.77c-4.45,0.37-8.89,0.99-13.23,2.1
		c-4.26,0.89-7.79,3.71-12.03,4.7c-12.74,3.7-27.47-1.3-35.17-12.14c-5.16-6.88-6.6-15.65-6.18-24.06c0.38-0.61,0.76-1.22,1.14-1.82
		c0.37-5.28,3.47-9.89,6.62-13.95c-0.94-1.09-1.87-2.17-2.81-3.24c-0.24,1.52-0.49,3.05-0.73,4.58c-8.73,0.47-17.46-0.33-26.19,0.19
		c-0.58,3.83-1.31,7.64-2,11.46c7.96,0.07,15.95,0.35,23.9-0.18c-0.17,4.26-0.82,8.47-1.71,12.63c-8.17,0.24-16.35,0.02-24.53,0.13
		c-0.86,4.73-1.75,9.47-2.57,14.21c8.97,0.28,17.96,0,26.94,0.15c-0.76,4.13-1.47,8.28-2.27,12.41
		c-11.44,0.02-22.87-0.04-34.31,0.03c-2.73-2.68-4.12-6.31-6.58-9.2c3-16.29,6.15-32.55,8.88-48.89
		c-9.53,8.39-18.88,16.99-28.41,25.38c6.49,8.53,13.58,16.6,19.63,25.45c2.06,2.26,4.01,4.61,5.6,7.24
		c-5.91-0.04-11.82,0.06-17.73-0.08c-6.63-8.74-13.16-17.57-19.98-26.16c-1.48,8.74-3.19,17.44-4.74,26.17
		c-8.61,0.14-17.22,0.01-25.83,0.07c-0.7-3.84-1.18-7.71-1.85-11.56c-9.14,0.06-18.27,0.04-27.41,0c0.89,0.69,1.79,1.38,2.69,2.06
		c-1.57,3.11-3.24,6.17-4.69,9.35c-5.35,0.29-10.7,0.09-16.05,0.13c4.64-8.91,9.23-17.86,14.27-26.55
		c-11.13,0.03-22.26,0.09-33.39-0.04c-2.73,8.83-7.34,16.98-10.63,25.63c-5.36,0.39-10.74,0.11-16.11,0.19
		c8.33-18.17,17.13-36.12,25.48-54.26c-5.23-3.32-11.61-4.63-16.61-8.26c29.55-0.09,59.09-0.04,88.63-0.08
		c2.55,16.87,5.36,33.73,8.45,50.51c2.36-14.39,5.18-28.7,7.81-43.04c-5.16-2.58-10.72-4.36-15.63-7.39
		c10.85-0.05,21.7-0.16,32.55-0.12c-1.44,7.52-2.77,15.06-4.19,22.59c7.75-6.89,15.46-13.81,23.13-20.78
		c1.07-0.89,2.23-1.98,3.75-1.82c16.48-0.02,32.97,0.03,49.46-0.02c0.27-1.64,0.7-3.25,1.42-4.76c0.42,2.72,2.23,4.7,3.69,6.91
		c2.22,1.56,4.81,2.41,7.44,3.02c11.28-7.57,26.87-6.91,37.79,1.03c6.99-0.62,14.34-4.2,16.27-11.5c2.03,8.01-1.14,16.61-7.24,22.02
		c2.39,4.36,3.27,9.26,3.93,14.13c1.65-3.16,1.39-6.92,2.3-10.31c1.52-6.81,2.06-13.97,4.15-20.56c4.93-0.23,9.87,0.06,14.81-0.13
		c-2.16,13.62-5.08,27.12-7.26,40.75c-0.63,3.71-0.25,8.67,3.76,10.33c4.1,1.32,9.34,0.93,12.42-2.41c2.67-3.1,3.63-7.23,4.44-11.15
		c2.06-11.2,4.11-22.4,6.15-33.61c0.4-1.7,0.63-4.62,3.23-3.87c20.72,0.01,41.44,0,62.16,0.05c-0.78,4.09-1.56,8.18-2.32,12.27
		c-6.52,0.05-13.04-0.05-19.56,0.06c-2.06,12.53-4.73,24.96-6.68,37.51c8,0.76,17,1.53,23.15,7.31c2.7,2.21,1.72,6.31-0.59,8.42
		c-4.94,4.78-11.74,6.98-18.25,8.68c-22.82,5.39-46.42,3.87-69.66,4.02c-96.48-0.01-192.95,0.04-289.42-0.02
		c-1.28,1.87-2.33,3.9-3.08,6.06c1.7,0.19,3.4,0.41,5.07,0.82c16.81,3.85,33.71,7.37,50.49,11.34c1.05,4.64,0.85,9.44,1.74,14.12
		c0.02,4.71,1.52,9.28,1.22,14.01c6.7,0.04,13.3,1.46,19.97,2c21.78,2.3,43.47,5.34,65.3,7.25c-4.41-6.58-9.18-13.41-11.11-21.15
		c5.42,6.71,10.82,13.55,17.42,19.17c11.49,10.53,25.62,18.53,41.02,21.46c3.1,1.73,6.19-0.5,9.33-0.83
		c11.48-2.62,22.07-8.37,31.37-15.49c9.13-6.86,16.5-15.63,23.73-24.37c-2.55,8.41-7.66,15.74-12.45,23.01
		c9.17-0.35,18.24-2.14,27.37-3.06c18.97-2.28,37.9-5.04,56.88-7.02c1.54-10.05,3.19-20.09,5.03-30.08
		c28.24-5.27,56.57-10.14,84.88-15c-2.74-8.06-5.59-16.09-8.17-24.2c-6.6-20.34-14.04-40.38-20.77-60.67
		c-12.63-0.05-25.25,0.1-37.87-0.06c-1.97-2.83-2.72-6.36-4.25-9.44c-1.87-2.71-2.9-5.86-4.25-8.83
		c-6.2-14.22-12.3-28.47-18.52-42.68c-12,0.18-24.02,0.85-36.01,0.17c6.08-19.06,10.44-39.01,9.31-59.13
		c-0.83-17.21-6.12-34.64-17.38-47.96c0.85-1.51,1.67-3.03,2.51-4.54c7.51-12.87,7.46-28.68,3.93-42.77
		c-2.36-6.08-5.08-12.08-8.2-17.79C283,218.5,280.13,213.49,274.96,213.67 M343.21,471.47c-1.44,8.47-3.07,16.91-4.6,25.36
		c-0.72,4.17-2.1,8.17-3.69,12.08c5.33-0.04,10.66-0.18,15.99-0.21c2.57-12.35,4.53-24.81,6.99-37.18
		C353,471.56,348.1,471.62,343.21,471.47 M57.5,471.21c0.63,0.5,1.91,1.51,2.55,2.01c-2,3.96-3.94,8-5.25,12.26
		c11.18-0.08,22.36-0.07,33.55,0c2.42-4.83,4.98-9.59,7.64-14.28C83.16,471.42,70.32,471.38,57.5,471.21 M244.49,472.42
		c-10.8,3.1-18.68,14.2-17.5,25.47c0.53,14.88,16.85,26.35,31.09,22.13c12.92-2.92,21.71-17.38,17.97-30.17
		C273.02,476.45,257.43,468.07,244.49,472.42 M96.17,499.61c5.26,0.17,10.54,0.07,15.81,0.06c-1.17-7.98-2.43-15.95-3.46-23.95
		C104.05,483.49,100.32,491.66,96.17,499.61 M281.89,511.32c1.99,0.16,3.99,0.33,5.99,0.51c-0.42-3.66-0.96-7.33-0.47-11.01
		C285.87,504.47,284.05,507.99,281.89,511.32z"/>
	<linearGradient id="SVGID_2_" gradientUnits="userSpaceOnUse" x1="199.2881" y1="221.59" x2="199.2881" y2="383.67">
		<stop  offset="0" style="stop-color:#E0E0E1"/>
		<stop  offset="1" style="stop-color:#AEADAE"/>
	</linearGradient>
	<path class="st2" d="M277.69,221.59c7.6,9.59,11.13,22.15,10.99,34.29c0.06,11.38-4.56,22.42-11.68,31.16
		c6.31,9.07,11.71,19.09,13.92,30c-11.05,0.92-22,4.39-31.18,10.7c-6.58-16.55-19.43-30.56-35.56-38.19
		c-14.22-6.93-30.78-8.76-46.2-5.41c-19.17,4.11-36.36,16.54-46.24,33.47c-10.9,18.26-12.59,41.5-4.98,61.29
		c1.42,2.28-1.89,3.32-2.98,4.77c-10.9-19.45-14.12-43.04-8.83-64.7c2.69-11.93,8.24-23.07,15.36-32.97
		c-9.32-8.09-17.22-18.28-20.92-30.18c-2.36-7.83-2.43-16.46,0.53-24.13c1.24,4.64,3.38,9.02,6.59,12.63
		c8.42,9.71,20.04,15.91,31.64,21.03c2.39,1.49,4.56-0.5,6.49-1.74c27.22-17.66,63.96-18.71,92.31-3.02
		c11.24-6.35,22.84-14.2,28.23-26.42C277.16,230.25,277.01,225.81,277.69,221.59z"/>
	<linearGradient id="SVGID_3_" gradientUnits="userSpaceOnUse" x1="226.2513" y1="330.3468" x2="226.2513" y2="349.61">
		<stop  offset="0" style="stop-color:#E0E0E1"/>
		<stop  offset="1" style="stop-color:#AEADAE"/>
	</linearGradient>
	<path class="st3" d="M231.1,331.14c3.44-1,7.73-1.46,10.61,1.13c2.5,2.14,2.22,6.2,0.26,8.61c-2.33,2.88-5.94,4.29-9.34,5.45
		c-7.65,2.3-15.68,3.14-23.64,3.28C214.13,341.39,221.66,334.06,231.1,331.14z"/>
	<linearGradient id="SVGID_4_" gradientUnits="userSpaceOnUse" x1="154.5573" y1="337.6027" x2="154.5573" y2="349.74">
		<stop  offset="0" style="stop-color:#E0E0E1"/>
		<stop  offset="1" style="stop-color:#AEADAE"/>
	</linearGradient>
	<path class="st4" d="M143.45,338.53c3.09-1.52,6.74-0.94,9.9,0.09c5.36,1.76,9.87,5.3,14.03,9.02c0.68,0.55,1.14,1.25,1.36,2.1
		c-7.56-0.31-15.25,0.07-22.66-1.75c-2.16-0.49-4.44-1.5-5.49-3.57C139.8,342.05,141.28,339.53,143.45,338.53z"/>
	<linearGradient id="SVGID_5_" gradientUnits="userSpaceOnUse" x1="213.8143" y1="378.21" x2="213.8143" y2="408.16">
		<stop  offset="0" style="stop-color:#E0E0E1"/>
		<stop  offset="1" style="stop-color:#AEADAE"/>
	</linearGradient>
	<path class="st5" d="M224.32,378.21c2.79,0.58,6.51,0.73,7.87,3.71c1.47,4.68-0.78,9.71-4.11,13.01c-5.09,5.11-12,7.85-18.72,10.11
		c-4.71,1.36-9.44,2.92-14.38,3.12c1.02-0.36,2.04-0.7,3.08-1.03c8.36-3.28,16.92-7.53,22.25-15.05
		C223.21,388.07,224.39,383.11,224.32,378.21z"/>
	<linearGradient id="SVGID_6_" gradientUnits="userSpaceOnUse" x1="262.7536" y1="487.27" x2="262.7536" y2="494.1246">
		<stop  offset="0" style="stop-color:#E0E0E1"/>
		<stop  offset="1" style="stop-color:#AEADAE"/>
	</linearGradient>
	<path class="st6" d="M256.01,494.11c3.33-3.03,7.09-6.52,11.81-6.84c2.5,0.27,1.89,3.69,0.22,4.7
		C264.57,494.4,260.04,494.12,256.01,494.11z"/>
	<linearGradient id="SVGID_7_" gradientUnits="userSpaceOnUse" x1="237.685" y1="488.58" x2="237.685" y2="493.82">
		<stop  offset="0" style="stop-color:#E0E0E1"/>
		<stop  offset="1" style="stop-color:#AEADAE"/>
	</linearGradient>
	<path class="st7" d="M232.03,490.84c0.2-0.57,0.62-1.7,0.83-2.26c3.94,0.54,7.59,2.55,10.48,5.24
		C239.64,493.46,234.1,494.82,232.03,490.84z"/>
	<linearGradient id="SVGID_8_" gradientUnits="userSpaceOnUse" x1="257.9212" y1="503.69" x2="257.9212" y2="513.28">
		<stop  offset="0" style="stop-color:#E0E0E1"/>
		<stop  offset="1" style="stop-color:#AEADAE"/>
	</linearGradient>
	<path class="st8" d="M261.58,503.69c1.96,0.54,4.59,2.64,2.77,4.77c-3.21,3.9-8.76,4.47-13.47,4.82
		C254.76,510.56,261.45,509.57,261.58,503.69z"/>
	<linearGradient id="SVGID_9_" gradientUnits="userSpaceOnUse" x1="185.36" y1="544.7566" x2="185.36" y2="562.38">
		<stop  offset="0" style="stop-color:#E0E0E1"/>
		<stop  offset="1" style="stop-color:#AEADAE"/>
	</linearGradient>
	<path class="st9" d="M171.48,545.27c9.24-0.67,18.5-0.48,27.76-0.51c-0.18,1.23-0.35,2.47-0.52,3.71c-3.73-0.06-7.47-0.04-11.2,0
		c0.15,4.6,0.23,9.2,0.11,13.8c-1.75,0.03-3.49,0.07-5.23,0.11c-0.27-4.61-0.35-9.23-0.52-13.84c-3.45,0.12-6.9,0.19-10.35,0.1
		C171.51,547.51,171.5,546.39,171.48,545.27z"/>
	<linearGradient id="SVGID_10_" gradientUnits="userSpaceOnUse" x1="218.685" y1="544.67" x2="218.685" y2="562.54">
		<stop  offset="0" style="stop-color:#E0E0E1"/>
		<stop  offset="1" style="stop-color:#AEADAE"/>
	</linearGradient>
	<path class="st10" d="M216.03,544.67c1.9,0.1,3.79,0.25,5.69,0.43c-0.26,5.81-0.52,11.63-0.9,17.44c-1.72-0.08-3.45-0.15-5.17-0.21
		C215.78,556.44,215.88,550.55,216.03,544.67z"/>
	<linearGradient id="SVGID_11_" gradientUnits="userSpaceOnUse" x1="149.67" y1="546.3631" x2="149.67" y2="564.91">
		<stop  offset="0" style="stop-color:#E0E0E1"/>
		<stop  offset="1" style="stop-color:#AEADAE"/>
	</linearGradient>
	<path class="st11" d="M145.21,547.01c1.98-0.25,4.04-0.99,6.03-0.46c4.94,5.23,9.66,10.7,14.24,16.26c-1.9,0.18-3.8,0.42-5.71,0.4
		c-1.53-0.89-2.52-2.43-3.68-3.72c-4.77,0.32-9.53,0.8-14.31,1.06c-0.8,1.33-1.6,2.66-2.39,4c-1.84,0.12-3.69,0.24-5.53,0.36
		C137.38,558.77,141.52,553.03,145.21,547.01 M148.13,550.56c-1.36,2.07-2.65,4.19-3.85,6.37c3.01-0.15,6-0.43,8.99-0.82
		C151.75,554.08,150.1,552.15,148.13,550.56z"/>
	<linearGradient id="SVGID_12_" gradientUnits="userSpaceOnUse" x1="251.3181" y1="545.9741" x2="251.3181" y2="564.6099">
		<stop  offset="0" style="stop-color:#E0E0E1"/>
		<stop  offset="1" style="stop-color:#AEADAE"/>
	</linearGradient>
	<path class="st12" d="M239.42,546.34c2.82-0.74,5.78-0.16,8.64,0.03c4.97,0.6,10.06,0.19,14.95,1.39c1.53,0.19,2.78,1.66,2.62,3.22
		c-0.21,3.61-0.58,7.21-1.07,10.8c-0.2,1.67-1.77,3.01-3.47,2.81c-6.08,0.04-12.1-0.92-18.16-1.1c-2.28-0.16-6.14-0.33-5.9-3.52
		c0.13-4.28-0.56-8.9,1.07-12.94C238.43,546.86,239.09,546.52,239.42,546.34 M242.84,549.58c-0.11,3.43-0.28,6.85-0.5,10.28
		c5.6,0.34,11.17,1.16,16.8,1.15c0.37-3.41,0.73-6.82,1.05-10.23C254.4,550.55,248.63,549.94,242.84,549.58z"/>
	<linearGradient id="SVGID_13_" gradientUnits="userSpaceOnUse" x1="109.47" y1="548.67" x2="109.47" y2="568.76">
		<stop  offset="0" style="stop-color:#E0E0E1"/>
		<stop  offset="1" style="stop-color:#AEADAE"/>
	</linearGradient>
	<path class="st13" d="M117.9,549.04c1.44-0.13,2.88-0.25,4.33-0.37c0.7,5.8,1.26,11.63,1.7,17.46c-3.55,0.74-6.66-1.36-9.79-2.64
		c-4.58-1.99-9.16-3.99-13.85-5.72c0.54,3.64,0.96,7.29,1.48,10.93c-1.47,0.02-2.94,0.04-4.41,0.06
		c-0.66-5.65-1.73-11.24-2.35-16.89c1.77,0.03,3.65-0.24,5.31,0.55c6.27,2.56,12.44,5.37,18.69,7.98
		C118.53,556.62,118,552.85,117.9,549.04z"/>
	<linearGradient id="SVGID_14_" gradientUnits="userSpaceOnUse" x1="295.975" y1="549.66" x2="295.975" y2="570.37">
		<stop  offset="0" style="stop-color:#E0E0E1"/>
		<stop  offset="1" style="stop-color:#AEADAE"/>
	</linearGradient>
	<path class="st14" d="M283.01,549.66c1.48,0.2,3.16-0.1,4.43,0.89c5.78,4.16,11.25,8.76,16.97,13.01
		c0.57-3.64,1.02-7.29,1.61-10.92c1.51,0.17,3.04,0.34,4.57,0.52c-1.03,5.72-1.79,11.49-2.81,17.21c-1.61-0.41-3.36-0.58-4.65-1.72
		c-5.32-4.23-10.71-8.37-16.16-12.41c-0.35,3.75-0.79,7.49-1.51,11.2c-1.37-0.29-2.74-0.57-4.1-0.85
		C282.02,560.96,282.76,555.33,283.01,549.66z"/>
	<linearGradient id="SVGID_15_" gradientUnits="userSpaceOnUse" x1="202.005" y1="570.87" x2="202.005" y2="600.88">
		<stop  offset="0" style="stop-color:#E0E0E1"/>
		<stop  offset="1" style="stop-color:#AEADAE"/>
	</linearGradient>
	<path class="st15" d="M196.23,580.27c2.52-2.69,3.62-6.42,5.78-9.4c2.11,3,3.25,6.69,5.75,9.4c3.37,0.84,6.84,1.33,10.28,1.88
		c-2.38,2.79-5.01,5.35-7.46,8.09c0.49,3.54,0.88,7.09,1.34,10.64c-3.32-1.5-6.61-3.03-9.91-4.55c-3.32,1.51-6.62,3.06-9.94,4.54
		c0.3-3.53,1.17-7.04,1.17-10.58c-2.07-3-5.04-5.27-7.27-8.14C189.4,581.61,192.85,581.12,196.23,580.27z"/>
</g>
<g id="_x23_7b00a4ff">
	<linearGradient id="SVGID_16_" gradientUnits="userSpaceOnUse" x1="203.4225" y1="319.47" x2="203.4225" y2="446.3202">
		<stop  offset="0" style="stop-color:#B000D5"/>
		<stop  offset="1" style="stop-color:#47005D"/>
	</linearGradient>
	<path class="st16" d="M261.34,329.78c9.35-6.19,20.43-9.66,31.6-10.31c6.24,26.39-0.2,55.34-17.15,76.53
		c1.5,1.94,3.74,3.14,6.18,3.37c6.31,0.68,12.66,1.11,19.02,0.88c7.25-0.28,14.71,1,21.12,4.5c4.69,2.51,8.06,7.66,7.56,13.1
		c0.34,7.24-5.54,12.82-11.47,15.97c-16.31,8.72-35.12,10.56-53.23,12.28c-13.93,0.24-27.92,0.61-41.78-0.93
		c-19.55-1.95-38.7-6.62-58.11-9.55c-13.22-1.94-26.39-5.77-39.85-4.52c-3.74,0.88-4.39,5.88-3.23,9.01
		c1.04,2.03-1.3,3.09-2.77,3.86c-7.5,3.22-16.23,0.96-22.54-3.79c-8.44-6.52-14.83-15.54-18.61-25.48
		c-0.77-2.31-1.89-5.52,0.45-7.31c3.69-3.32,8.7-4.61,13.48-5.43c12.17-1.79,24.44,0.53,36.3,3.24c-1.82,3.25-4.5,7.02-2.61,10.86
		c2.11,2.86,5.94,2.97,9.14,3.47c20.69,3.63,41.06,9.37,62.01,11.35c8.9,1.71,17.97,1.91,26.97,2.68
		c20.06,0.06,40.34,1.41,60.15-2.52c8.59-1.75,17.58-4,24.48-9.71c2.41-1.73,3.51-5.84,1.04-7.96c-3.82-3.19-8.98-3.92-13.73-4.68
		c-11.31-1.09-23-0.88-33.81,2.96c-5.54,1.65-9.88,5.64-15,8.14c-15.54,7.98-33.44,12.12-50.88,9.88
		c-29.09-1.92-56.27-19.58-70.79-44.73c1.25-0.94,2.5-1.89,3.75-2.83c6.5,14.39,17.59,26.76,31.6,34.15
		c17.51,9.66,39.17,10.94,57.92,4.23c24.62-8.82,43.34-32.13,46.23-58.17C265.42,351.37,265.25,340.17,261.34,329.78 M80.18,412.92
		c4.7,12.08,13.02,23.34,24.95,29.01c3.92,1.16,8.22,1.03,12.23,0.39c2.18-1.31,2.5-4.01,1.89-6.27
		c-8.29,0.69-17.13-0.31-24.13-5.15C88.32,426.67,84.32,419.52,80.18,412.92z"/>
	<radialGradient id="SVGID_17_" cx="202.0949" cy="558.963" r="92.4787" gradientUnits="userSpaceOnUse">
		<stop  offset="0.6882" style="stop-color:#B000D5"/>
		<stop  offset="1" style="stop-color:#47005D"/>
	</radialGradient>
	<path class="st17" d="M159.29,542.75c43.88-2.93,88.04-1.36,131.58,4.62c13.56,2.07,27.15,4.15,40.5,7.34
		c0.79,7.3-0.06,14.65-0.93,21.9c-18.53-3.83-37.34-6.1-56.16-7.62c-13.69-1.76-27.48-2.76-41.28-2.97
		c-14.29-1.11-28.63-0.81-42.95-0.88c-25.52-0.14-50.97,2-76.31,4.47c-10.11,1.66-20.28,2.89-30.35,4.79
		c-3.58,0.66-7.06,1.84-10.71,2.11c-0.31-7.28-0.21-14.57,0.34-21.83C101.31,547.97,130.35,544.89,159.29,542.75 M171.48,545.27
		c0.02,1.12,0.03,2.24,0.05,3.37c3.45,0.09,6.9,0.02,10.35-0.1c0.17,4.61,0.25,9.23,0.52,13.84c1.74-0.04,3.48-0.08,5.23-0.11
		c0.12-4.6,0.04-9.2-0.11-13.8c3.73-0.04,7.47-0.06,11.2,0c0.17-1.24,0.34-2.48,0.52-3.71C189.98,544.79,180.72,544.6,171.48,545.27
		 M216.03,544.67c-0.15,5.88-0.25,11.77-0.38,17.66c1.72,0.06,3.45,0.13,5.17,0.21c0.38-5.81,0.64-11.63,0.9-17.44
		C219.82,544.92,217.93,544.77,216.03,544.67 M145.21,547.01c-3.69,6.02-7.83,11.76-11.35,17.9c1.84-0.12,3.69-0.24,5.53-0.36
		c0.79-1.34,1.59-2.67,2.39-4c4.78-0.26,9.54-0.74,14.31-1.06c1.16,1.29,2.15,2.83,3.68,3.72c1.91,0.02,3.81-0.22,5.71-0.4
		c-4.58-5.56-9.3-11.03-14.24-16.26C149.25,546.02,147.19,546.76,145.21,547.01 M239.42,546.34c-0.33,0.18-0.99,0.52-1.32,0.69
		c-1.63,4.04-0.94,8.66-1.07,12.94c-0.24,3.19,3.62,3.36,5.9,3.52c6.06,0.18,12.08,1.14,18.16,1.1c1.7,0.2,3.27-1.14,3.47-2.81
		c0.49-3.59,0.86-7.19,1.07-10.8c0.16-1.56-1.09-3.03-2.62-3.22c-4.89-1.2-9.98-0.79-14.95-1.39
		C245.2,546.18,242.24,545.6,239.42,546.34 M117.9,549.04c0.1,3.81,0.63,7.58,1.11,11.36c-6.25-2.61-12.42-5.42-18.69-7.98
		c-1.66-0.79-3.54-0.52-5.31-0.55c0.62,5.65,1.69,11.24,2.35,16.89c1.47-0.02,2.94-0.04,4.41-0.06c-0.52-3.64-0.94-7.29-1.48-10.93
		c4.69,1.73,9.27,3.73,13.85,5.72c3.13,1.28,6.24,3.38,9.79,2.64c-0.44-5.83-1-11.66-1.7-17.46
		C120.78,548.79,119.34,548.91,117.9,549.04 M283.01,549.66c-0.25,5.67-0.99,11.3-1.65,16.93c1.36,0.28,2.73,0.56,4.1,0.85
		c0.72-3.71,1.16-7.45,1.51-11.2c5.45,4.04,10.84,8.18,16.16,12.41c1.29,1.14,3.04,1.31,4.65,1.72c1.02-5.72,1.78-11.49,2.81-17.21
		c-1.53-0.18-3.06-0.35-4.57-0.52c-0.59,3.63-1.04,7.28-1.61,10.92c-5.72-4.25-11.19-8.85-16.97-13.01
		C286.17,549.56,284.49,549.86,283.01,549.66z"/>
	<path class="st18" d="M242.84,549.58c5.79,0.36,11.56,0.97,17.35,1.2c-0.32,3.41-0.68,6.82-1.05,10.23
		c-5.63,0.01-11.2-0.81-16.8-1.15C242.56,556.43,242.73,553.01,242.84,549.58z"/>
	<path class="st18" d="M148.13,550.56c1.97,1.59,3.62,3.52,5.14,5.55c-2.99,0.39-5.98,0.67-8.99,0.82
		C145.48,554.75,146.77,552.63,148.13,550.56z"/>
	<linearGradient id="SVGID_18_" gradientUnits="userSpaceOnUse" x1="112.33" y1="571.93" x2="112.33" y2="584.61">
		<stop  offset="0" style="stop-color:#B000D5"/>
		<stop  offset="1" style="stop-color:#47005D"/>
	</linearGradient>
	<path class="st19" d="M105.03,576.15c9.97-1.45,19.96-2.66,29.91-4.22c1.14,4.18,1.72,8.48,2.78,12.68
		c-16.94-1.84-33.84-3.9-50.78-5.63C92.86,577.42,99,577.11,105.03,576.15z"/>
	<linearGradient id="SVGID_19_" gradientUnits="userSpaceOnUse" x1="292.965" y1="571.72" x2="292.965" y2="584.55">
		<stop  offset="0" style="stop-color:#B000D5"/>
		<stop  offset="1" style="stop-color:#47005D"/>
	</linearGradient>
	<path class="st20" d="M267.21,584.55c1.7-4.13,1.7-8.71,3.43-12.83c15.94,2.97,32.13,4.43,48.08,7.4
		C301.52,580.71,284.38,582.78,267.21,584.55z"/>
</g>
</svg>
