<?xml version="1.0" encoding="utf-8"?>
<!-- Generator: Adobe Illustrator 21.0.2, SVG Export Plug-In . SVG Version: 6.00 Build 0)  -->
<svg version="1.1" id="Layer_1" xmlns="http://www.w3.org/2000/svg" xmlns:xlink="http://www.w3.org/1999/xlink" x="0px" y="0px"
	 viewBox="0 0 66.9 66.9" style="enable-background:new 0 0 66.9 66.9;" xml:space="preserve">
<style type="text/css">
	.st0{fill:#777576;}
	.st1{fill:#5B595A;}
</style>
<path class="st0" d="M13.8,23.7c-0.3-0.3,0-0.3,0.2-0.2c0,0-0.1,0.1-0.2,0.1c0.1,0.1,0,0.2-0.1,0.3c-0.2,0-0.1-0.2-0.2-0.4
	L13.8,23.7z"/>
<path class="st0" d="M33.3,23.4C33.5,23.3,33.3,23.7,33.3,23.4z"/>
<path class="st0" d="M14.8,23.8c0.3,0.1,0.6,0.2,0.9,0c0,0,0.1,0.1,0.1,0.2c-0.3,0-0.6,0.1-0.9,0c-0.1,0.1-0.2,0.1-0.3,0.2
	c1.8,0,3.7,0.2,5.5,0.2c0,0-0.1,0.1-0.2,0.2c0.1,0,0.2,0,0.2-0.1c0,0.1,0,0.2-0.1,0.3c0.1,0,0.2-0.1,0.3-0.1
	c0.2,0.6,0.5,1.2,0.7,1.8c-0.1-0.5-0.4-1-0.5-1.6c-0.1-0.2,0-0.3,0-0.5c0.7,0,1.3,0.1,2,0.3c0,0,0.1,0.1,0.1,0.2
	c0,0,0.1-0.1,0.2-0.1c0.2,0.1,0.4,0.2,0.7,0.3c0.1,0,0.1,0.1,0.1,0.2c0.4,0.3,0.4,1,0.5,1.5c-0.1,0-0.2,0.1-0.3,0.1
	c-0.2-0.1-0.2-0.3-0.3-0.4c-0.2,0-0.4-0.1-0.5-0.1c-0.1,0.1-0.1,0.1-0.2,0.2c0,0.2,0,0.5,0,0.7c0.1,0,0.2-0.1,0.2-0.1
	c0,0.1-0.1,0.2-0.1,0.3c0.1-0.1,0.2-0.2,0.3-0.2c-0.1,0.1-0.1,0.2-0.2,0.3c0.1,0,0.2,0.1,0.2,0.1c0,0.1,0.1,0.2,0.1,0.3
	c-0.1,0-0.2,0-0.3-0.1c0.1,0.1,0.2,0.3,0.2,0.4c-0.1,0-0.2,0.1-0.3,0.1c0.1,0.2,0.3,0.3,0.5,0.3c0,0.1-0.1,0.1-0.1,0.2
	c0.2,0,0.3,0.2,0.3,0.4c0.1-0.1,0-0.3,0.2-0.3c0,0,0,0.1,0.1,0.2c0,0.1,0.1,0.1,0.1,0.2c-0.2,0-0.4,0-0.6,0c0,0,0.1,0.1,0.2,0.2
	c0,0,0,0.1,0,0.1c-0.1,0-0.2,0-0.4,0c0.1,0.1,0.1,0.3,0,0.4c0.1,0.1,0.1,0.2,0.2,0.2c0-0.1,0-0.2,0-0.2c0,0.1,0,0.2,0,0.3
	c-0.1,0-0.2,0-0.3,0l0-0.2c-0.1,0.1-0.1,0.2-0.2,0.3c0.1,0,0.2-0.1,0.2-0.1c0.1,0.2,0,0.4-0.2,0.5c-0.2,0.1-0.4,0.3-0.5,0.5
	c-0.1,0-0.2-0.1-0.2-0.1c0.1,0.1,0.1,0.2,0,0.4c0-0.1-0.1-0.2-0.1-0.2c0,0.2,0,0.4,0,0.6c0.4,0,0.8,0,1.2,0c0.1,0.1,0.1,0.2,0.2,0.2
	c-0.8,0.8-1.6,1.6-2.4,2.4c-0.4,0.4-0.8,0.8-1.1,1.2c-0.2,0-0.3,0.1-0.5,0.2c0.1,0,0.2,0,0.2,0c-0.6,0.8-1.3,1.4-1.9,2.2
	c-0.4,0.4-0.9,0.8-1.1,1.3c0-1.3-0.1-2.7-0.1-4c-0.1,0-0.2,0-0.3,0c0.1-0.1,0.2-0.1,0.3-0.2c0-0.8,0-1.6-0.1-2.4
	c0-0.1,0.1-0.2,0.1-0.2c0.6,0,1.1,0,1.7,0c0.5,0.1,0.9,0,1.4-0.1c-0.4-0.1-0.9-0.1-1.3-0.1c-0.2,0-0.3-0.2-0.5-0.2
	c0,0.1,0.1,0.2,0.1,0.3c0-0.1-0.1-0.1-0.1-0.2c-0.2,0-0.3,0.1-0.5,0.1c-0.1-0.1-0.1-0.2-0.2-0.4c0.2,0,0.4-0.1,0.6-0.2
	c0-0.1,0-0.2,0-0.4c0.1,0,0.2,0,0.2,0c0.2,0,0.4,0.1,0.5,0.1c0.1,0,0.2-0.1,0.2-0.1c0,0.1,0.1,0.2,0.1,0.3c-0.3,0.1-0.6-0.1-0.8,0.1
	c0.8,0,1.7,0,2.5,0c0-0.1,0-0.2,0-0.2c0,0.1,0.1,0.2,0.1,0.2c0.4,0,0.9,0,1.3-0.1c-0.1-0.1-0.2-0.1-0.3-0.2c0-0.1,0.1-0.1,0.1-0.2
	c0-0.1,0-0.2,0-0.2c0.1-0.1,0.2-0.1,0.3-0.2c-0.9,0.1-1.7-0.1-2.6,0c0,0-0.1,0.1-0.1,0.1c-0.1-0.1-0.3-0.1-0.4,0
	c0,0-0.1-0.1-0.1-0.1c-0.7-0.1-1.3-0.1-2-0.1c-0.1-0.1-0.1-0.1-0.2-0.2c-0.2,0-0.3-0.1-0.5-0.1l0,0.2c0-0.1-0.1-0.2-0.1-0.3
	c0,0-0.1,0-0.2,0c0,0.2,0.1,0.4,0.2,0.5c-0.1,0.2-0.1,0.3-0.2,0.5c0.1,0.1,0.1,0.2,0.2,0.3c0,0-0.1,0-0.2,0c0.1,0.1,0.2,0.2,0.3,0.3
	c0,0-0.1-0.1-0.2-0.1c-0.1,0.1-0.2,0.1-0.2,0.2c-0.1,0.3-0.1,0.6-0.1,0.9c-0.1-0.1-0.2-0.2-0.2-0.2l0,0.1c-0.1-0.1-0.2-0.1-0.3-0.1
	l0,0.2c0,0,0-0.1-0.1-0.1c-0.2,0-0.4,0-0.6,0c0,0,0,0.1,0,0.2c-0.2,0-0.3,0-0.5,0c0-0.1,0.1-0.2,0.2-0.2c-0.2,0-0.5,0-0.7,0
	c0-0.1,0.1-0.2,0.2-0.3c0,0-0.1,0-0.2,0.1c0-0.1,0-0.2,0-0.3c-0.1,0.1-0.2,0.1-0.4,0.1c0-0.3,0-0.5,0-0.8c0,0,0.1,0,0.2,0.1
	c0-0.1,0-0.2,0-0.3c0,0-0.1,0-0.1,0c0-0.3,0-0.7,0-1c0.2,0.1,0.4,0.2,0.6,0.2c-0.3-0.2-0.2-0.6-0.4-0.9c-0.1,0-0.2,0-0.2,0
	c0-0.1,0-0.2,0-0.3c0.1,0,0.1-0.1,0.2-0.1c-0.2-0.2-0.1-0.5-0.1-0.8c0-0.5,0-1,0-1.4c0.1-0.7,0-1.5,0.1-2.2c0.1-0.1,0.2-0.1,0.3-0.2
	c0.2,0,0.4,0.1,0.6,0.1c-0.1-0.1-0.2-0.1-0.3-0.2c0.1-0.1,0.2-0.1,0.2-0.2c-0.2,0.1-0.4,0.1-0.7,0.2c0,0-0.1,0.1-0.1,0.1
	c0-0.1,0-0.2,0-0.3c0.1,0,0.2-0.1,0.3-0.1c0,0,0.1,0.1,0.2,0.1c0,0,0.1-0.1,0.2-0.1C14.6,24.1,14.7,24,14.8,23.8 M14.5,24.9
	c-0.1,0.1,0,0.3,0.1,0.2C14.7,25,14.6,24.8,14.5,24.9 M18.8,26C18.9,26.1,18.9,26.1,18.8,26 M19,26.1c-0.1,0-0.1,0.1-0.2,0.2
	c0.1,0,0.3,0,0.4,0c0,0.1,0,0.2,0,0.2c-0.9,0-1.9-0.1-2.8-0.1c0,0.2,0,0.5,0,0.7c0.1,0.1,0.3,0,0.5,0c0.1,0.1,0.1,0.2,0.1,0.3
	c0,0,0.1-0.1,0.1-0.2c0.2,0.2,0.3,0.5,0.2,0.8c0,0-0.1-0.1-0.1-0.2c0,0-0.1,0.1-0.2,0.1c-0.1,0.1-0.2,0.2-0.3,0.2
	c-0.1-0.2-0.2-0.3-0.4-0.3c0,0.4,0,0.8,0,1.2c0.3-0.1,0.5,0,0.7,0.2c0.1,0,0.3-0.1,0.4-0.1c0.2,0.1,0.4,0.1,0.5,0.2
	c0-0.2-0.1-0.3-0.2-0.4c0.4-0.2,0.9,0.2,1.2-0.1c0,0-0.1-0.1-0.1-0.2c0,0,0.1-0.1,0.2-0.1c0,0.1,0,0.3,0,0.4c0.5,0,1.1,0.1,1.6,0
	c0.3-0.1,0.5-0.3,0.6-0.6c0-0.3-0.1-0.6,0-1c-0.1-0.1-0.2-0.2-0.2-0.2c0,0.1-0.1,0.3-0.1,0.4c0,0-0.1-0.1-0.1-0.1
	c0-0.2,0.1-0.4,0.1-0.6C21,27,20.8,27.2,20.6,27c0.1-0.1,0.3-0.1,0.4-0.2c-0.1-0.1-0.2-0.1-0.3-0.2c0.1,0,0.2,0,0.3-0.1
	c-0.1,0-0.2-0.2-0.3-0.1c-0.3,0.1-0.5,0.1-0.8,0c0-0.1,0-0.2,0.1-0.3c0,0.3-0.4,0.3-0.7,0.2c0-0.1,0-0.2,0-0.2
	C19.2,26.2,19.1,26.2,19,26.1 M20.1,32.5c0.3,0.1,0.6,0.1,0.9,0c0.3,0,0.6,0,0.9,0C21.2,32.5,20.7,32.4,20.1,32.5 M19.7,35.4
	c0.1,0,0.2-0.1,0.3-0.2c0.1-0.1,0.1-0.3,0.2-0.4c-0.1-0.1-0.1-0.2-0.2-0.2C19.7,34.7,19.4,35.2,19.7,35.4z"/>
<path class="st0" d="M47.7,24c0.1,0,0.2,0,0.1,0.1C47.7,24.2,47.7,24.2,47.7,24z"/>
<path class="st0" d="M54.1,24.3c0.1-0.1,0.2,0.2,0.1,0.2C54,24.5,53.9,24.3,54.1,24.3z"/>
<path class="st0" d="M63.2,24.3C63.2,24.3,63.2,24.3,63.2,24.3z"/>
<path class="st0" d="M55.1,24.4c0.1-0.1,0.3,0,0.3,0.1C55.3,24.5,55.1,24.5,55.1,24.4z"/>
<path class="st0" d="M2.1,24.7c0.2-0.1,0.3,0,0.5,0.1c0,0.1,0,0.1-0.1,0.2c-0.1,0-0.2,0-0.3-0.1C2.2,24.8,2.1,24.8,2.1,24.7z"/>
<path class="st0" d="M27.9,25c0-0.1,0-0.5,0.2-0.3C28.2,24.9,28.1,25,27.9,25z"/>
<path class="st0" d="M3.7,24.8C3.8,24.8,3.8,24.8,3.7,24.8z"/>
<path class="st0" d="M2.1,24.9C2.1,24.9,2.1,24.9,2.1,24.9z"/>
<path class="st0" d="M8.4,25.2c0.1-0.1,0.1-0.3,0.2-0.4c0,0.2-0.1,0.4,0,0.6c0,0,0.1-0.1,0.2-0.1l0,0.1c0.1,0,0.2,0,0.4,0
	c0,0,0-0.1,0-0.2c0,0,0,0.1,0,0.2c0.2,0,0.3,0,0.5,0l-0.1-0.1c0.5,0.2,1.1,0.2,1.5,0.6c0,0,0.1-0.1,0.1-0.2c0.1,0.1,0.2,0.1,0.2,0.2
	c-0.1,0-0.2,0.1-0.3,0.1c0.4,0.2,0.4,0.6,0.6,0.9c0.1,0.5,0,1.1,0.2,1.6c-0.1,0-0.2-0.1-0.3-0.1c0,0-0.1,0.1-0.1,0.1
	c-0.6-0.2-1.3,0.1-1.9-0.2c0.3-0.1,0.6-0.1,0.9-0.1c-0.1-0.1-0.2-0.1-0.3,0c0-0.1,0-0.2-0.1-0.3C9.8,27.9,9.6,28,9.4,28
	c0-0.1-0.1-0.2-0.3-0.3c0-0.1,0-0.2,0-0.3c0,0.1-0.1,0.2-0.1,0.3c-0.2-0.1-0.4-0.2-0.6-0.2c-0.7-0.1-1.4,0-2.1,0
	c0,0-0.1-0.1-0.1-0.1c0.1,0,0.2,0,0.3,0c0-0.1,0.1-0.2,0.1-0.3c-0.2,0-0.4,0-0.5,0.2c0,0.1,0,0.2,0,0.3c-0.5,0-1,0-1.5,0
	c-0.3,0-0.6,0.1-0.8,0.3c-0.1-0.1-0.1-0.3-0.2-0.4c0-0.1,0-0.2,0-0.3c0.1-0.1,0.1-0.2,0.2-0.2c-0.3,0-0.3,0.3-0.2,0.6
	c0,0.2,0.2,0.4,0.2,0.6c0,0.2,0,0.6,0.3,0.6c0.7,0.3,1.4,0.1,2.1,0.1c0.1,0.1,0.2,0.2,0.3,0.3c0.2,0,0.3,0.1,0.3,0.3
	c0.1,0,0.1-0.1,0.2-0.1c0.1,0.1,0.2,0.2,0.3,0.2c0-0.1,0-0.2-0.1-0.3c0,0-0.1,0-0.2-0.1C7,29.3,7,29.2,7,29.2c0.1,0,0.2-0.1,0.3-0.1
	c0,0,0.1,0.1,0.1,0.1C7.6,28.9,8,29,8.3,29.1C8.8,28.9,9.4,29,10,29c0.8,0,1.6,0.4,1.9,1.1c0.3,0.7,0.2,1.6,0.1,2.3
	c-0.1,0.5-0.5,0.9-0.9,1.1c-0.4,0.2-0.8,0.3-1.2,0.4c-0.1,0.1-0.2,0.2-0.3,0.2c-0.3,0-0.6,0-0.9,0c0-0.3-0.1-0.6,0-0.9
	C8.9,33.5,9,33.7,9.2,34c0-0.3-0.2-0.5-0.4-0.7c-0.1-0.2-0.1-0.4-0.1-0.6c0,0,0.1-0.1,0.2-0.1C9,32.4,9,32.2,9,32.1
	c0.1,0.1,0.1,0.1,0.2,0.2c0.2-0.2,0.3-0.3,0.5-0.5c0.1-0.1,0.1-0.3,0.2-0.4c0,0,0,0,0-0.1c0.1-0.3,0-0.7-0.1-1
	c-0.1-0.1-0.2-0.1-0.3-0.2c0,0-0.1,0.1-0.2,0.1c-0.1,0-0.1,0-0.2-0.1C9.1,30.3,9,30.4,9,30.5c-0.1,0-0.2,0-0.2,0
	c0,0-0.1,0.1-0.2,0.1c0,0.1,0,0.2,0,0.2c-0.1,0-0.2,0-0.3-0.1l0.1,0c-0.1-0.1-0.2-0.2-0.3-0.3c-0.1,0-0.2,0-0.2,0
	c0-0.1,0-0.2-0.1-0.3c-0.1,0-0.1,0-0.2,0c-0.1,0-0.2-0.1-0.3-0.1c0,0.1,0.1,0.2,0.1,0.3c0,0.1,0,0.1-0.1,0.2
	c0.1,0.1,0.1,0.2,0.2,0.3c-1.4,0-2.9,0-4.3,0c-0.7-0.1-1.5-0.2-1.9-0.8C1,29.3,1,28.4,1,27.7c0.1,0.2,0.3,0.3,0.4,0.4
	c0-0.1,0-0.2,0-0.3c-0.1-0.1-0.1-0.2-0.1-0.3c0,0-0.1,0-0.2,0c0-0.3,0-0.6,0.1-0.8c0.2,0.1,0.3,0.2,0.5,0.3c0.4-0.2,0.7-0.1,1.1-0.1
	c-0.4,0.1-0.8,0-1.2-0.2c0-0.2,0-0.3,0-0.5c0.2-0.2,0.5-0.3,0.6-0.5c0,0.1,0.1,0.2,0.1,0.3c0.2,0,0.3,0,0.5,0
	c0.2-0.3,0.7-0.2,0.9-0.5c0.5,0.2,1,0,1.5,0c0.5,0.1,1,0,1.5,0.1c0,0.1-0.1,0.2-0.1,0.3c0,0,0.1,0,0.1,0c0-0.1,0-0.2,0-0.3
	c0.2,0,0.4,0,0.6,0c0,0,0,0.1,0,0.2c0,0,0-0.1,0-0.2c0.3,0,0.7,0,1,0.1C8.5,25.3,8.4,25.2,8.4,25.2 M3.7,26.5
	c-0.1,0.2,0.2,0.3,0.3,0.4l0-0.1C3.9,26.7,3.8,26.6,3.7,26.5 M5.1,27.3c0.2-0.1,0.3-0.2,0.5-0.4C5.4,27,5.2,27.1,5.1,27.3 M2.7,27.6
	c0.2-0.1,0.5-0.2,0.6-0.4C3.1,27.3,2.9,27.5,2.7,27.6 M1.9,28.2C1.9,28.2,1.9,28.2,1.9,28.2 M9.7,33.1C9.8,33.2,9.8,33.2,9.7,33.1z"
	/>
<path class="st0" d="M9.6,24.9C9.7,24.9,9.7,24.9,9.6,24.9z"/>
<path class="st0" d="M29.8,24.9c0.6,0,1.2,0,1.8,0c-0.2,0.2-0.5,0.4-0.7,0.6c-0.5,0.5-1.1,1-1.7,1.5c-0.2,0.2-0.5,0.4-0.7,0.6
	c0-0.3,0-0.6,0-0.9c0.2,0,0.4-0.1,0.6-0.1c-0.1,0-0.3,0-0.4,0.1c0,0-0.1-0.1-0.1-0.1c0.3-0.4,0.2-1-0.1-1.3l0.1,0
	c0-0.1-0.1-0.2-0.2-0.2C28.8,24.9,29.3,24.9,29.8,24.9z"/>
<path class="st0" d="M3.9,25.2C4,25,4.3,24.8,4.5,25C4.3,25.1,4.1,25.3,3.9,25.2z"/>
<path class="st0" d="M23.3,24.9C23.6,24.8,23.3,25.2,23.3,24.9z"/>
<path class="st0" d="M3,25.1c0.1,0,0.2,0,0.3,0c0,0.1,0.1,0.2,0.1,0.2c-0.1,0.1-0.3,0.2-0.5,0.2C2.9,25.4,2.9,25.2,3,25.1z"/>
<path class="st0" d="M51,25.3C51,25.3,51,25.3,51,25.3z"/>
<path class="st0" d="M1.5,25.4C1.7,25.2,1.5,25.6,1.5,25.4z"/>
<path class="st0" d="M34.5,25.4C34.6,25.4,34.6,25.4,34.5,25.4z"/>
<path class="st0" d="M44.3,25.5C44.3,25.5,44.3,25.5,44.3,25.5z"/>
<path class="st0" d="M46.1,25.9C46.3,25.7,46.1,26.1,46.1,25.9z"/>
<path class="st0" d="M48.5,25.9c0.1-0.1,0.3,0,0.5,0c0.1,0.1-0.1,0.1-0.2,0.1C48.7,25.9,48.6,26,48.5,25.9z"/>
<path class="st0" d="M48.6,26.1C48.6,26.1,48.6,26.1,48.6,26.1z"/>
<path class="st0" d="M64.4,26.3C64.4,26.3,64.4,26.3,64.4,26.3z"/>
<path class="st0" d="M22.9,26.4C23,26.4,23,26.4,22.9,26.4z"/>
<path class="st0" d="M47.5,26.4C47.8,26.4,47.4,26.6,47.5,26.4z"/>
<path class="st0" d="M29.6,26.7c0.1-0.1,0.2,0.1,0.1,0.2C29.6,27,29.5,26.8,29.6,26.7z"/>
<path class="st0" d="M54.4,26.7C54.5,26.8,54.5,26.8,54.4,26.7z"/>
<path class="st0" d="M46.7,26.9C46.7,26.9,46.7,26.9,46.7,26.9z"/>
<path class="st0" d="M0.9,27C0.9,27,0.9,27,0.9,27z"/>
<path class="st0" d="M46.8,27c0.1,0,0.2,0,0.1,0.1C46.8,27.2,46.7,27.2,46.8,27z"/>
<path class="st0" d="M19,27.6c0,0,0.1,0,0.1,0c0,0.2,0,0.3,0,0.5c0,0-0.1,0-0.2,0C19,27.9,19,27.7,19,27.6z"/>
<path class="st0" d="M55.5,27.6C55.6,27.6,55.6,27.6,55.5,27.6z"/>
<path class="st0" d="M30.7,27.9C31,27.9,30.6,28.1,30.7,27.9z"/>
<path class="st0" d="M46.6,27.9C46.6,28,46.6,28,46.6,27.9z"/>
<path class="st0" d="M46.7,27.9C47,27.9,46.6,28.2,46.7,27.9z"/>
<path class="st0" d="M9.8,28C10,28,9.6,28.2,9.8,28z"/>
<path class="st0" d="M12.1,28C12.3,27.8,12.1,28.3,12.1,28z"/>
<path class="st0" d="M23.5,28.2c0.2,0,0.3-0.1,0.5-0.1c0,0.2-0.1,0.4-0.1,0.7c0,0-0.1-0.1-0.1-0.2c0,0-0.1,0-0.1,0.1
	C23.6,28.5,23.5,28.3,23.5,28.2z"/>
<path class="st0" d="M36,28.1c0.1,0,0.2,0,0.1,0.1C36,28.3,36,28.3,36,28.1z"/>
<path class="st0" d="M44.2,28.2C44.3,28.2,44.3,28.2,44.2,28.2z"/>
<path class="st0" d="M46.6,28.1c0.1,0.1,0.1,0.1,0,0.2C46.4,28.3,46.4,28.2,46.6,28.1z"/>
<path class="st0" d="M61.2,28.4c0.1-0.1,0.2,0.1,0,0.2C61.2,28.6,61.1,28.4,61.2,28.4z"/>
<path class="st0" d="M28.6,28.6c0.1,0,0.2,0,0.1,0.1C28.6,28.7,28.6,28.7,28.6,28.6z"/>
<path class="st0" d="M61.4,28.8C61.7,28.8,61.3,29.1,61.4,28.8z"/>
<path class="st0" d="M17.7,29c0-0.1,0-0.2,0.1-0.1C17.9,29,17.8,29.1,17.7,29z"/>
<path class="st0" d="M49.3,29.1c0.1-0.1,0.2,0.1,0.1,0.2C49.3,29.4,49.2,29.2,49.3,29.1z"/>
<path class="st0" d="M31.6,29.3C31.9,29.3,31.5,29.5,31.6,29.3z"/>
<path class="st0" d="M32,29.6c0.1,0,0.2,0,0.1,0.1C32,29.8,31.9,29.7,32,29.6z"/>
<path class="st0" d="M50.7,30C50.8,30.1,50.8,30.1,50.7,30z"/>
<path class="st0" d="M32.4,30.1c0.1,0,0.2,0,0.1,0.1C32.4,30.3,32.3,30.2,32.4,30.1z"/>
<path class="st0" d="M34.3,30.1c0.1-0.1,0.2-0.1,0.2,0.1C34.3,30.2,34.3,30.2,34.3,30.1z"/>
<path class="st0" d="M39.1,30.1c0.1,0,0.2,0,0.1,0.1C39.1,30.3,39,30.2,39.1,30.1z"/>
<path class="st0" d="M53.2,30.6c0.1,0,0.2,0,0.1,0.1C53.2,30.8,53.2,30.7,53.2,30.6z"/>
<path class="st0" d="M58,30.6C58.1,30.6,58.1,30.6,58,30.6z"/>
<path class="st0" d="M53.8,30.8C54.1,30.8,53.7,31,53.8,30.8z"/>
<path class="st0" d="M9.6,31C9.8,31.1,9.4,31.3,9.6,31z"/>
<path class="st0" d="M7.9,31.1L8.1,31c0,0,0,0.1,0,0.2c0.2,0,0.3,0.2,0.3,0.3c-0.1,0-0.2,0.1-0.3,0.1l0.1,0c0,0.2,0.4,0.2,0.4,0.5
	c0,0.3,0,0.6,0,0.9c0,0.4,0,0.7,0.1,1.1c-0.7,0.1-1.5,0.1-2.2,0.1c0-0.1-0.1-0.2-0.1-0.2c0.1,0,0.2,0,0.3,0
	c-0.1-0.2-0.2-0.3-0.4-0.3c0,0,0,0.1,0.1,0.2c0,0-0.1,0-0.2,0C6.1,34,6.2,34,6.3,34.1c-0.2,0.3-0.6,0.2-0.9,0.2
	c-0.9,0-1.9,0.1-2.8-0.1l0,0.1c0,0,0.1,0,0.2,0c0,0.1,0,0.2,0,0.3c-0.2-0.2-0.4-0.4-0.4-0.6c-0.1,0-0.2,0-0.3,0
	C2,33.9,2,33.8,2,33.7c-0.1-0.1-0.1-0.1-0.2-0.1c-0.1,0-0.2,0-0.3-0.1c-0.3-0.4-0.4-0.8-0.4-1.2c0.1,0,0.2,0,0.2-0.1
	c0,0-0.1,0-0.2,0c0-0.1,0-0.2,0-0.3c0,0.1,0.1,0.2,0.1,0.3c0.1-0.1,0.2-0.1,0.3-0.1c-0.2,0-0.2-0.2-0.3-0.3c0.2-0.1,0.4-0.1,0.7-0.1
	c0-0.1,0-0.3-0.1-0.4c0.1,0,0.2,0.1,0.2,0.2c0.4,0,0.8,0,1.2,0c0,0,0.1-0.1,0.1-0.1c0.1,0,0.3,0,0.4,0c0.1,0.1,0.1,0.1,0.2,0.2
	c0,0.1,0,0.2,0,0.2c0,0,0.1,0,0.2,0c0,0.1,0,0.2,0,0.2c0.3,0.1,0.7,0,1,0c1,0,2,0,3,0C8,32,7.9,31.9,7.8,31.9c0,0,0.1,0,0.2,0
	c0-0.1,0-0.3,0-0.4l-0.1,0C8.1,31.3,8,31.2,7.9,31.1 M1.7,32C1.6,32.3,2,32,1.7,32 M8.1,32.2C8.2,32.2,8.2,32.2,8.1,32.2 M7.8,33.5
	c-0.1,0-0.2,0.2,0,0.2C7.8,33.7,7.9,33.5,7.8,33.5 M8.3,33.6c-0.1,0.1-0.1,0.1,0,0.2C8.4,33.8,8.4,33.7,8.3,33.6z"/>
<path class="st0" d="M41.6,31.1C41.6,31.1,41.6,31.1,41.6,31.1z"/>
<path class="st0" d="M18.2,31.2C18.5,31.2,18.1,31.5,18.2,31.2z"/>
<path class="st0" d="M36.1,31.4C36.4,31.4,36,31.6,36.1,31.4z"/>
<path class="st0" d="M53.7,31.4c0.1,0.1,0.1,0.1,0,0.2C53.6,31.5,53.6,31.4,53.7,31.4z"/>
<path class="st0" d="M19.8,31.6c0.1-0.1,0.2-0.2,0.3-0.1C20.1,31.7,19.9,31.6,19.8,31.6z"/>
<path class="st0" d="M20.7,31.4c0.1,0,0.2,0,0.1,0.1C20.7,31.6,20.6,31.5,20.7,31.4z"/>
<path class="st0" d="M1.7,31.6C1.7,31.7,1.7,31.7,1.7,31.6z"/>
<path class="st0" d="M57.6,31.7C57.9,31.6,57.6,32,57.6,31.7z"/>
<path class="st0" d="M17.1,31.8C17.4,31.6,17.2,32,17.1,31.8z"/>
<path class="st0" d="M49.3,31.9C49.5,31.8,49.1,32.1,49.3,31.9z"/>
<path class="st0" d="M54.6,32C54.7,32,54.7,32,54.6,32z"/>
<path class="st0" d="M16.9,32c0.2,0.1,0.7,0,0.6,0.4c-0.2-0.1-0.4-0.1-0.6-0.1C16.9,32.2,16.9,32.1,16.9,32z"/>
<path class="st0" d="M54.4,32.2c0.1-0.1,0.3,0.1,0.3,0.2C54.5,32.5,54.4,32.3,54.4,32.2z"/>
<path class="st0" d="M13.6,32.6c0.1,0,0.2,0,0.2-0.1c0,0.1,0,0.3,0,0.4c-0.1,0-0.2,0-0.2,0C13.6,32.8,13.5,32.7,13.6,32.6z"/>
<path class="st0" d="M54.3,32.6C54.4,32.7,54.4,32.7,54.3,32.6z"/>
<path class="st0" d="M12.7,33.1C12.7,33.2,12.7,33.2,12.7,33.1z"/>
<path class="st0" d="M13.5,33.2c0.3-0.1,0.6,0,0.9,0C14.1,33.2,13.8,33.2,13.5,33.2z"/>
<path class="st0" d="M37.8,33.1C37.9,33.2,37.9,33.2,37.8,33.1z"/>
<path class="st0" d="M12.4,33.4c0.1-0.1,0.2,0,0.2,0.1C12.5,33.6,12.4,33.5,12.4,33.4z"/>
<path class="st0" d="M29.1,33.4c0,0,0.1,0,0.2,0c0.1,0.1,0.2,0.1,0.3,0.2c-0.2,0-0.3,0-0.5,0c0,0,0,0.1,0,0.1
	c-0.1-0.1-0.2-0.1-0.4-0.1C28.9,33.6,29,33.5,29.1,33.4z"/>
<path class="st0" d="M42.2,33.5C42.5,33.3,42.2,33.7,42.2,33.5z"/>
<path class="st0" d="M12.7,33.5C12.9,33.4,12.7,33.8,12.7,33.5z"/>
<path class="st0" d="M52.5,33.6C52.5,33.7,52.5,33.7,52.5,33.6z"/>
<path class="st0" d="M59.4,33.7C59.7,33.6,59.4,34,59.4,33.7z"/>
<path class="st0" d="M11.8,34.1c0.1-0.1,0.3,0,0.2,0.1C12,34.3,11.7,34.2,11.8,34.1z"/>
<path class="st0" d="M48.9,34C49.2,34,48.8,34.3,48.9,34z"/>
<path class="st0" d="M55.3,34C55.6,33.9,55.3,34.3,55.3,34z"/>
<path class="st0" d="M37.1,34.1C37.2,34.2,37.2,34.2,37.1,34.1z"/>
<path class="st0" d="M9.8,34.3c0.1,0,0.2,0,0.2,0c0,0.1,0,0.2-0.1,0.3c0,0,0.1,0,0.2,0c0,0.1,0,0.2,0,0.3C10,34.7,9.8,34.6,9.8,34.3
	z"/>
<path class="st0" d="M36.3,34.3C36.5,34.3,36.1,34.5,36.3,34.3z"/>
<path class="st0" d="M36.6,34.6C36.7,34.6,36.7,34.6,36.6,34.6z"/>
<path class="st0" d="M3.1,34.6C3.2,34.7,3.2,34.7,3.1,34.6z"/>
<path class="st0" d="M36.8,34.7C36.8,34.8,36.8,34.8,36.8,34.7z"/>
<path class="st0" d="M37.3,34.7C37.6,34.8,37.1,35,37.3,34.7z"/>
<path class="st0" d="M58.3,34.8C58.3,34.9,58.3,34.9,58.3,34.8z"/>
<path class="st0" d="M21.9,34.9C22.2,34.9,21.8,35.2,21.9,34.9z"/>
<path class="st0" d="M36,34.9C36,34.9,36,34.9,36,34.9z"/>
<path class="st0" d="M53.7,35C53.9,34.8,53.7,35.3,53.7,35z"/>
<path class="st0" d="M34.8,35.1c0.1,0,0.1,0.1,0.1,0.2C34.7,35.2,34.7,35.2,34.8,35.1z"/>
<path class="st0" d="M57.7,35.1C57.8,35.1,57.8,35.1,57.7,35.1z"/>
<path class="st0" d="M62.9,35.4C63,35.5,63,35.5,62.9,35.4z"/>
<path class="st0" d="M39.9,35.5c0.1,0,0.2,0,0.1,0.1C39.9,35.7,39.9,35.6,39.9,35.5z"/>
<path class="st0" d="M42.4,35.7C42.7,35.7,42.3,36,42.4,35.7z"/>
<path class="st0" d="M60.4,35.8C60.7,35.8,60.3,36.1,60.4,35.8z"/>
<path class="st0" d="M45.8,35.9C45.9,36,45.9,36,45.8,35.9z"/>
<path class="st0" d="M49,35.9C49.3,35.8,49.1,36.2,49,35.9z"/>
<path class="st0" d="M36.7,36C36.8,36,36.8,36,36.7,36z"/>
<path class="st0" d="M29.7,36.1C29.8,36.1,29.8,36.1,29.7,36.1z"/>
<path class="st0" d="M47,36.2C47,36.2,47,36.2,47,36.2z"/>
<path class="st0" d="M53.6,36.2C53.6,36.2,53.6,36.2,53.6,36.2z"/>
<path class="st0" d="M16.6,36.3C16.6,36.3,16.6,36.3,16.6,36.3z"/>
<path class="st0" d="M44.8,36.3C44.8,36.4,44.8,36.4,44.8,36.3z"/>
<path class="st0" d="M29.7,36.4C30,36.3,29.7,36.7,29.7,36.4z"/>
<path class="st0" d="M35,36.4c0.1,0.1,0.1,0.1,0,0.2C34.9,36.5,34.9,36.5,35,36.4z"/>
<path class="st0" d="M31.5,36.5C31.5,36.6,31.5,36.6,31.5,36.5z"/>
<path class="st0" d="M36.5,36.5c0.1,0,0.2,0,0.1,0.1C36.5,36.7,36.5,36.6,36.5,36.5z"/>
<path class="st0" d="M23.9,36.8C24.2,36.8,23.7,37,23.9,36.8z"/>
<path class="st0" d="M59.6,36.8C59.6,36.8,59.6,36.8,59.6,36.8z"/>
<path class="st0" d="M26.5,36.9C26.5,37,26.5,37,26.5,36.9z"/>
<path class="st0" d="M32.3,37.2C32.6,37.1,32.3,37.5,32.3,37.2z"/>
<path class="st0" d="M32.9,37.3C33,37.3,33,37.3,32.9,37.3z"/>
<path class="st0" d="M42.6,37.3c0.1,0,0.2,0,0.4,0c-0.3,0.2-0.3,0.5-0.4,0.8c0,0,0-0.1-0.1-0.2C42.5,37.7,42.5,37.5,42.6,37.3z"/>
<path class="st0" d="M53,37.3C53,37.4,53,37.4,53,37.3z"/>
<path class="st0" d="M30.7,37.4C30.8,37.5,30.8,37.5,30.7,37.4z"/>
<path class="st0" d="M27.4,37.5C27.5,37.6,27.5,37.6,27.4,37.5z"/>
<path class="st0" d="M16.5,37.6c0.1,0,0.2,0,0.1,0.1C16.5,37.8,16.4,37.7,16.5,37.6z"/>
<path class="st0" d="M23.7,37.6c0.1-0.1,0.3,0,0.2,0.1C23.8,37.8,23.6,37.7,23.7,37.6z"/>
<path class="st0" d="M35.6,37.8C35.9,37.8,35.5,38,35.6,37.8z"/>
<path class="st0" d="M27.5,37.8c0.1,0.1,0.2,0.1,0.3,0.2c0,0.1,0,0.3-0.2,0.4C27.6,38.2,27.6,38,27.5,37.8z"/>
<path class="st0" d="M23.6,37.9C23.6,38,23.6,38,23.6,37.9z"/>
<path class="st0" d="M38.4,38.1C38.4,38.1,38.4,38.1,38.4,38.1z"/>
<path class="st0" d="M59.2,38.1C59.3,38.1,59.3,38.1,59.2,38.1z"/>
<path class="st0" d="M28.5,38.2C28.8,38,28.5,38.4,28.5,38.2z"/>
<path class="st0" d="M52.1,38.3C52.2,38.3,52.2,38.3,52.1,38.3z"/>
<path class="st0" d="M59.1,38.4C59.2,38.5,59.2,38.5,59.1,38.4z"/>
<path class="st0" d="M55.4,38.7c0.1,0,0.2,0,0.1,0.1C55.4,38.9,55.4,38.8,55.4,38.7z"/>
<path class="st0" d="M35.8,39.4C36,39.4,35.6,39.6,35.8,39.4z"/>
<path class="st0" d="M17.5,39.7C17.7,39.7,17.3,39.9,17.5,39.7z"/>
<path class="st0" d="M30.6,39.7c0.1,0,0.2,0,0.1,0.1C30.6,39.9,30.5,39.8,30.6,39.7z"/>
<path class="st0" d="M58.5,39.7C58.5,39.8,58.5,39.8,58.5,39.7z"/>
<path class="st0" d="M27.3,40.1C27.6,40.2,27.2,40.4,27.3,40.1z"/>
<path class="st0" d="M19.3,40.8C19.6,40.8,19.2,41.1,19.3,40.8z"/>
<path class="st0" d="M19.2,41C19.4,40.9,19.2,41.3,19.2,41z"/>
<path class="st0" d="M18.7,41.3c0.1,0,0.2,0,0.1,0.2C18.6,41.5,18.6,41.5,18.7,41.3z"/>
<path class="st0" d="M35.8,42.5C36,42.3,35.8,42.8,35.8,42.5z"/>
<path class="st0" d="M19.9,43.7C20.2,43.6,20,44,19.9,43.7z"/>
<path class="st0" d="M36.3,43.8C36.3,43.8,36.3,43.8,36.3,43.8z"/>
<path class="st0" d="M19.1,44.2c0.1,0,0.2,0,0.1,0.1C19.1,44.3,19,44.3,19.1,44.2z"/>
<path class="st0" d="M23,44.8C23,44.8,23,44.8,23,44.8z"/>
<path class="st0" d="M18.6,45.2c0.2,0,0.5,0,0.7,0l0,0.1C19.1,45.3,18.9,45.3,18.6,45.2L18.6,45.2z"/>
<path class="st0" d="M18.7,45.4c0.1,0,0.2,0,0.1,0.1C18.7,45.6,18.6,45.6,18.7,45.4z"/>
<path class="st0" d="M35.9,46.4C35.9,46.4,35.9,46.4,35.9,46.4z"/>
<path class="st0" d="M22.6,46.6c0.1,0,0.1,0.1,0,0.2C22.6,46.7,22.5,46.6,22.6,46.6z"/>
<path class="st0" d="M30.2,46.5C30.3,46.6,30.3,46.6,30.2,46.5z"/>
<path class="st0" d="M20.7,46.8C20.7,46.8,20.7,46.8,20.7,46.8z"/>
<path class="st0" d="M17.5,47C17.5,47,17.5,47,17.5,47z"/>
<path class="st0" d="M33.7,47.5C34,47.6,33.6,47.8,33.7,47.5z"/>
<path class="st0" d="M32.7,48c0.1,0,0.2,0,0.1,0.1C32.7,48.2,32.6,48.2,32.7,48z"/>
<g id="_x23_5b595aff">
	<path class="st1" d="M34.6,22.8c0.3,0.1,0.4,0.4,0.5,0.7c0.1,0,0.2-0.1,0.3-0.1c0,0.2,0,0.3,0,0.5c-0.2-0.1-0.5-0.3-0.3-0.5
		c-0.1,0-0.2,0-0.3,0c0-0.1,0.1-0.1,0.1-0.2C34.8,23.1,34.7,23,34.6,22.8z"/>
	<path class="st1" d="M33,23.9c-0.3-0.1,0.1-0.3,0.2-0.3C33.1,23.6,33,23.8,33,23.9z"/>
	<path class="st1" d="M55.6,24.1c0.1-0.2,0.3-0.4,0.4-0.5c0,0.3,0,0.6,0,0.9c0.1-0.1,0.2-0.2,0.2-0.2c0,0.1,0,0.2,0.1,0.3
		c0,0,0.1,0,0.1-0.1c0,0.1,0.1,0.2,0.2,0.2c0,0,0-0.1,0-0.2l0.1,0.1c0,0,0,0.1,0,0.1c0,0.2,0.1,0.3,0.2,0.5c0.8,1,1.6,2,2.4,2.9
		c0.6-0.6,1.1-1.3,1.6-1.9c0.1-0.2,0.3-0.3,0.4-0.5c0,0,0.1,0,0.1,0c0,0-0.1-0.1-0.1-0.2c0.1,0,0.2,0,0.2,0
		c-0.1-0.1-0.1-0.2-0.2-0.2c0,0,0.1,0,0.2,0c0-0.1-0.1-0.2-0.1-0.2c0.2,0.1,0.3,0.2,0.5,0.1c0,0-0.1-0.1-0.2-0.1c0.1,0,0.2,0,0.2,0
		c0.1-0.2,0.4-0.4,0.4-0.6l0.1,0c0,0.1-0.1,0.2-0.1,0.2c0.1,0,0.3,0,0.4-0.1c0.9,0.1,1.8,0,2.7,0.1c-0.1,0.1-0.2,0.2-0.3,0.3
		c-0.1-0.1-0.3-0.1-0.4-0.2c0.1,0.1,0.2,0.1,0.4,0.2c-0.1,0.1-0.3,0.2-0.4,0.3c0,0,0-0.1,0-0.2c0,0.2-0.3,0.2-0.5,0.1
		c0.1-0.1,0.1-0.2,0.1-0.3c-0.1,0.1-0.2,0.2-0.3,0.4c0.2,0,0.5,0,0.7,0c-0.6,0.7-1.2,1.4-1.8,2.1c0,0,0.1,0.1,0.2,0.1
		c-0.1,0-0.3,0-0.3,0.1c-0.3,0.4-0.7,0.8-1,1.2c0,0-0.1-0.1-0.2-0.1c0,0,0.1,0.1,0.1,0.2c-0.3,0.2-0.5,0.6-0.6,0.9
		c0,0-0.1,0-0.1,0.1c0,0,0,0.1,0,0.1C61,30.1,61,30,60.9,30c-0.1,0.2-0.2,0.3-0.3,0.4c0,0.5,0,1-0.1,1.5c0,0.4,0.1,0.8,0.1,1.2
		c0,0.1,0,0.2,0.1,0.4c-0.2,0-0.3,0-0.5,0c-0.1,0.1-0.3,0.2-0.4,0.2c0-0.1,0-0.2-0.1-0.2c-0.1,0.1-0.3,0.1-0.4,0.2l0.1-0.2l-0.2,0
		c0,0.1,0,0.2-0.2,0.3l0.1-0.1c0-0.1-0.1-0.1-0.1-0.2c-0.2,0-0.4,0-0.6,0c0,0,0-0.1,0-0.2h-0.1c0,0.1,0,0.2,0,0.2c0,0-0.1,0-0.2,0
		c-0.3-0.6-0.2-1.2-0.2-1.9c0-0.2,0.2-0.4,0.2-0.6c0,0.1-0.1,0.2-0.2,0.3c0-0.3,0-0.6,0-0.8c0.1,0,0.2,0,0.2,0c0,0-0.1,0-0.2-0.1
		c-0.3-0.3-0.5-0.7-0.8-1c-0.1,0-0.2,0.1-0.3,0.1c0-0.1,0-0.2,0.1-0.3c0,0-0.2-0.1-0.2-0.1c0-0.3-0.1-0.6-0.1-0.9
		c0-0.3,0.1-0.6-0.1-0.9c0,0.4,0,0.8-0.1,1.1c-0.1-0.1-0.1-0.3-0.1-0.4c-0.2-0.1,0-0.2,0.1-0.4c0-0.1,0-0.3,0-0.4
		c0,0.1-0.1,0.2-0.1,0.3c-0.1-0.2,0-0.3,0-0.5c-0.1,0.1-0.1,0.2-0.2,0.3c-0.1,0-0.2,0.1-0.3,0.1c0,0-0.1,0-0.2-0.1
		c0-0.3,0.1-0.5,0.2-0.8c-0.1,0-0.2,0-0.3-0.1c0,0.2,0,0.4-0.1,0.6c-0.1-0.1-0.2-0.1-0.3-0.2c-0.1-0.1-0.2-0.3-0.3-0.4
		c-0.1,0-0.2,0-0.2,0c0-0.1,0-0.2,0-0.2c-0.3-0.2-0.5-0.6-0.7-0.9c-0.2-0.2-0.4-0.5-0.6-0.7c0.2,0,0.5,0.1,0.6-0.1
		c0.2,0,0.5,0,0.7-0.2c0.1,0.1,0.2,0.2,0.3,0.3c-0.1,0-0.2,0.1-0.3,0.2c0.3-0.1,0.6-0.3,0.8-0.5C55.6,24.4,55.6,24.3,55.6,24.1
		C55.6,24.2,55.6,24.1,55.6,24.1 M55.6,27.2c0.1,0,0.3-0.1,0.4-0.1c0-0.1-0.1-0.2-0.1-0.3c0-0.1,0.1-0.2,0.1-0.3
		C55.8,26.7,55.7,27,55.6,27.2 M60.9,28.3c-0.1,0.1,0,0.3,0.1,0.2C61.1,28.4,61,28.2,60.9,28.3 M61.2,28.4c-0.1,0-0.1,0.2,0,0.2
		C61.4,28.5,61.4,28.3,61.2,28.4 M61.4,28.8C61.3,29.1,61.7,28.8,61.4,28.8 M58,30.6C58.1,30.6,58.1,30.6,58,30.6z"/>
	<path class="st1" d="M47.1,23.8c0.1-0.1,0.2,0.1,0.1,0.2C47.2,24.1,47,23.9,47.1,23.8z"/>
	<path class="st1" d="M45.6,23.9c0.1,0,0.2,0.1,0.3,0.1c0,0,0,0.1-0.1,0.1c0,0,0.1,0.1,0.2,0.1c-0.1,0-0.2,0.1-0.3,0.1
		c0.1,0.1,0.1,0.3,0.2,0.4c-0.2,0.1-0.4,0-0.5-0.1c0-0.1,0-0.2,0.1-0.2c0,0,0.1,0,0.2-0.1c0-0.1-0.3-0.3,0-0.3
		C45.7,24,45.6,24,45.6,23.9z"/>
	<path class="st1" d="M34.4,24.1c0.2,0.1,0.4,0.1,0.5,0.3c0,0.1,0,0.3,0.1,0.4c-0.2,0-0.3,0-0.5-0.1c-0.1,0.1-0.2,0.2-0.4,0.3
		c0.3-0.1,0.5-0.3,0.8-0.2c0.3,0.1,0.3,0.4,0.3,0.7c-0.1,0-0.2-0.1-0.3-0.1c0-0.1-0.1-0.2-0.1-0.2c0,0.1,0,0.2,0,0.3
		c0.1,0,0.2,0,0.3,0c0,0.1-0.1,0.2-0.1,0.3c0,0,0,0.1,0,0.1c-0.1,0-0.2-0.1-0.2-0.1c0,0.1,0.1,0.3,0.1,0.4c0,0.2-0.1,0.4-0.1,0.5
		c-0.9,0-1.8,0.1-2.7,0.1c0,0.2,0.1,0.3,0.1,0.5c-0.2,0-0.2-0.2-0.3-0.3c0,0.1,0,0.2,0,0.4c-0.1,0-0.2,0.1-0.3,0.2
		c0.1-0.2,0.1-0.4-0.1-0.5c0,0,0,0.1,0,0.2c0,0.3-0.3,0.1-0.4,0.1c0,0-0.1,0-0.1,0c-0.1-0.2-0.2-0.2-0.4-0.2
		c0.1,0.1,0.2,0.2,0.3,0.3c-0.1,0.2,0,0.5,0,0.7c0,0.2-0.1,0.3-0.2,0.5c-0.1,0-0.2-0.1-0.2-0.1c0,0.1-0.1,0.1-0.1,0.2
		c0.1,0.2,0,0.4-0.1,0.6c0.1-0.1,0.2-0.2,0.3-0.3c0-0.1,0-0.2,0-0.2c0,0.1,0.1,0.2,0.1,0.3c0,0,0.1,0,0.1,0c0-0.1,0-0.2,0-0.3
		c0,0,0.1,0,0.2,0c0,0,0-0.1-0.1-0.2c0.1,0,0.3-0.1,0.3,0.1c-0.1,0.1-0.2,0.2-0.3,0.3c0,0,0,0,0.1,0c0.1-0.1,0.3-0.1,0.4-0.1
		c0.1,0.1,0.1,0.1,0.2,0.2c0.2,0,0.4-0.1,0.6-0.1c0-0.1,0.1-0.1,0.1-0.2c0.1,0,0.3,0,0.4-0.1c0.1,0.1,0.2,0.2,0.3,0.3
		c0.4,0,0.8,0,1.3,0c0.1,0,0.2-0.1,0.3-0.2c0,0-0.1-0.1-0.2-0.1c0-0.1,0.1-0.2,0.1-0.3c0.1,0.1,0.2,0.2,0.4,0.3
		c-0.3,0-0.2,0.3-0.1,0.5c0.1-0.1,0.1-0.1,0.2-0.2c0.1,0.3,0.1,0.6,0.2,0.9c0,0.1-0.1,0.1-0.1,0.2c0,0.1,0,0.2,0,0.3
		c0.1,0,0.1,0.1,0.2,0.1c0-0.1,0-0.3,0-0.4c0.1-0.1,0.2-0.2,0.3-0.2c0-0.1,0-0.3,0-0.4c0-0.1,0.1-0.1,0.1-0.2c0-0.1,0-0.2-0.1-0.3
		c0.3-0.1,0.6-0.3,0.6-0.6c0.1-0.4,0.1-0.8-0.2-1.1c-0.1-0.1-0.1-0.2-0.1-0.3c-0.1-0.2,0-0.5,0.1-0.7c0.1-0.1,0.2-0.2,0.3-0.3
		c-0.1-0.3,0.1-0.6,0.1-0.9c-0.2-0.2-0.5-0.1-0.7-0.1c0.4-0.2,0.9-0.1,1.3-0.1c0,0.1,0,0.2,0,0.3c0-0.1,0-0.2,0-0.3
		c0.2,0.1,0.4,0.1,0.7,0.2c0,0.1,0,0.2,0,0.3c0-0.1,0.1-0.2,0.1-0.2c0.4,0.1,0.7,0.5,0.8,0.9c0.3,0.8,0.4,1.6,0.4,2.5
		c0,0.5-0.1,1-0.5,1.3c-0.2,0.2-0.5,0.3-0.8,0.5c0.3,0.1,0.5,0.2,0.8,0.3c0.1,0.2,0.2,0.3,0.3,0.5c0,0,0.1-0.1,0.1-0.2l0.1,0
		c0,0-0.1,0.1-0.2,0.1c0.3,0.5,0.3,1.1,0.4,1.6c0,0.1-0.1,0.2-0.1,0.3c0.2,0.2,0.1,0.5,0.1,0.8c-0.1,0-0.3,0.1-0.4,0.1
		c0,0.1,0.1,0.3,0.1,0.4c-0.1,0-0.2,0-0.3,0c0-0.2,0.1-0.3,0.1-0.5c-0.3,0-0.7,0.1-1,0.1c-0.4,0-0.8,0.1-1.2,0c0-0.5,0-1-0.1-1.5
		c-0.1,0.1-0.3,0-0.3-0.1c0.1,0,0.2-0.1,0.3-0.1c-0.1-0.2-0.2-0.4-0.4-0.5c-0.6-0.2-1.2-0.1-1.8-0.1c0.1,0.1,0.2,0.2,0.3,0.3
		c-0.2,0-0.4,0-0.5-0.1c0.1-0.1,0.2-0.2,0.3-0.3c-0.7,0-1.3,0.1-2,0.1c-0.1,0.1-0.1,0.1-0.2,0.2c-0.1-0.1-0.1-0.1-0.2-0.2
		c0.1-0.3,0.1-0.5,0.2-0.8c0,0.1,0.1,0.2,0.1,0.2c0-0.1,0.1-0.3,0.1-0.5c-0.1,0.1-0.2,0.2-0.3,0.2c-0.1,0.2-0.3,0.5-0.2,0.8
		c-0.2,0.1-0.3,0.3-0.5,0.5c-0.1,0.3-0.3,0.5-0.2,0.9c0,0.2,0.1,0.2,0.2,0.3c-0.3,0.1-0.2,0.4-0.2,0.6c-0.1,0-0.2,0.1-0.3,0.1
		c-0.2,0-0.3-0.1-0.5-0.1c-0.2,0-0.4,0-0.5,0.1c0-0.2-0.1-0.5-0.2-0.7c0,0.1,0,0.2,0,0.2c-0.1,0-0.2,0-0.3,0c0.1,0,0.2,0.1,0.3,0.1
		c0,0,0,0.1,0,0.1c0,0,0.1,0.1,0.2,0.1c-0.1,0.2-0.2,0.1-0.4,0.1c-0.1-0.1-0.2-0.1-0.3-0.2c-0.1,0-0.1,0-0.2,0c-0.1,0-0.3,0-0.4,0
		c0,0,0.1-0.1,0.1-0.1c-0.1-0.1-0.1-0.2-0.1-0.4c-0.1-1-0.1-1.9-0.2-2.9c0-0.4-0.1-0.7,0-1.1c0,0.1,0.1,0.2,0.1,0.2
		c0,0,0.1-0.1,0.1-0.1c-0.1-0.1-0.3-0.1-0.3-0.2c-0.1-0.4-0.1-0.8-0.1-1.2c0.3-0.2,0.5-0.4,0.7-0.6c0.5-0.5,1.1-1,1.7-1.5
		c0.2-0.2,0.5-0.4,0.7-0.6c0.4,0,0.9-0.1,1.3-0.1c0.2,0,0.5-0.2,0.7,0.1c0,0,0.1-0.1,0.2-0.1c0.3,0,0.6,0,0.9,0
		C34.5,24.5,34.5,24.3,34.4,24.1 M33.7,25C33.7,25.1,33.7,25.1,33.7,25 M34.5,25.4C34.6,25.4,34.6,25.4,34.5,25.4 M29.6,26.7
		c-0.1,0.1,0,0.3,0.1,0.2C29.8,26.8,29.7,26.6,29.6,26.7 M29.7,27.1c0.1,0,0.2,0,0.4,0.1C30,27,29.8,27.1,29.7,27.1 M30.4,27.1
		C30.4,27.4,30.6,27,30.4,27.1 M30.7,27.9C30.6,28.1,31,27.9,30.7,27.9 M30.2,28.2c0.1,0.1,0.1,0.2,0.2,0.3c0,0,0.1,0,0.2,0
		c0,0,0-0.1-0.1-0.1C30.4,28.3,30.3,28.2,30.2,28.2 M28.6,28.6c0,0.1,0,0.2,0.1,0.1C28.8,28.6,28.7,28.5,28.6,28.6 M31.6,29.3
		C31.5,29.5,31.9,29.3,31.6,29.3 M32,29.6c0,0.1,0,0.2,0.1,0.1C32.1,29.6,32.1,29.5,32,29.6 M32.4,30.1c0,0.1,0,0.2,0.1,0.1
		C32.6,30.1,32.5,30,32.4,30.1 M34.3,30.1c0,0.1,0.1,0.1,0.2,0.1C34.4,30,34.4,30,34.3,30.1 M37.7,31.8c-0.1,0-0.1,0.3,0,0.3
		C37.9,32,37.8,31.8,37.7,31.8 M36.9,32C36.9,32.3,37.1,31.9,36.9,32 M37.8,32.1c0,0.1,0.1,0.2,0.1,0.3c0,0,0,0,0,0.1
		c0.1-0.1,0.1-0.1,0.2-0.2C38,32.3,37.9,32.2,37.8,32.1 M38.4,32.2c0,0.1,0,0.2,0.1,0.3c0,0,0.1,0,0.1,0c0,0,0-0.1,0-0.2
		C38.5,32.3,38.5,32.2,38.4,32.2 M37.8,33.1C37.9,33.2,37.9,33.2,37.8,33.1z"/>
	<path class="st1" d="M45.1,24.2c0.1,0,0.1,0.1,0.1,0.2C45.2,24.5,44.9,24.2,45.1,24.2z"/>
	<path class="st1" d="M32.1,24.4c0-0.2,0.2,0,0.3,0c0,0,0.1,0.1,0.1,0.2C32.4,24.5,32.2,24.5,32.1,24.4z"/>
	<path class="st1" d="M47.9,24.4c0,0,0-0.1,0-0.2l0.1,0L47.9,24.4c0.6,0,1.1,0,1.7,0c0-0.1,0.2-0.3,0.2-0.1c0,0.1,0.1,0.2,0.1,0.4
		c0.1-0.1,0.1-0.3,0.2-0.4c0,0.3,0,0.5,0.1,0.8c0.1-0.1,0.2-0.2,0.3-0.3c0,0.1,0,0.3,0,0.4c0.1,0.1,0.1,0.2,0.2,0.2
		c0.1,0,0.1,0,0.2,0c0,0.1,0.1,0.3-0.1,0.4c0,0-0.1-0.1-0.1-0.2c-0.1,0-0.1,0-0.2,0.1c0.1,0.1,0.1,0.2,0.1,0.3l0.1,0
		c-0.1,0.1-0.1,0.1-0.2,0.2c-0.1-0.1-0.2-0.2-0.2-0.4c-0.1,0-0.1,0-0.2,0c-0.1,0-0.2,0.1-0.3,0c-0.2-0.2-0.4-0.3-0.6-0.4
		c0,0.1,0,0.2,0.1,0.2c0.1,0.1,0.2,0.1,0.4,0.2L49.4,26c0.1,0,0.2,0,0.2-0.1c0,0.1,0,0.2,0,0.3c0.3,0.2,0.7,0,1,0.2
		c0-0.1,0-0.2,0.1-0.3c0.1,0.4,0.3,0.8,0.5,1.2c0.2,0.5,0.5,1,0.8,1.5c0,0.1,0.1,0.1,0.2,0.1c0,0,0,0.1,0,0.2l-0.1,0
		c0.3,0.5,0.5,1,0.8,1.5c0,0.3,0,0.6,0.1,0.9c-0.3,0.1-0.5,0.1-0.8,0.1c0.2,0.2,0.6,0,0.8,0.1c0,0.1,0,0.2,0,0.3c0,0,0,0,0.1,0
		c0-0.3,0-0.7-0.1-1c0.1,0.2,0.2,0.3,0.3,0.5c0,0-0.1,0.1-0.2,0.1c0.1,0,0.2,0,0.2,0c0.3,0.5,0.6,1.1,0.9,1.7c-0.8,0-1.6,0-2.4,0
		c-0.2,0-0.4,0-0.6,0c-0.1-0.2-0.2-0.3-0.2-0.5c0,0-0.1,0.1-0.1,0.2c0-0.1,0.1-0.2,0.1-0.3c-0.1,0-0.2,0-0.2,0c0,0,0.1,0,0.2,0
		c-0.2-0.3-0.4-0.6-0.5-1c0.1,0,0.3,0,0.4,0l0,0c-0.2-0.1-0.4,0-0.6,0c0,0.1,0.1,0.2,0.2,0.2c-0.2,0-0.3-0.1-0.2-0.2
		c-0.3,0.1-0.5,0.3-0.8,0.4c0.1-0.1,0.1-0.2,0.3-0.3c-0.2,0-0.4,0-0.6-0.1c-0.4,0-0.9,0-1.3,0c-0.6,0-1.2,0-1.8,0
		c0.1-0.1,0.1-0.1,0.2-0.2c0-0.1-0.1-0.1-0.1-0.2c0,0-0.1,0.1-0.2,0.1c0,0,0-0.1,0-0.2c0,0,0.1,0.1,0.2,0.1c0,0,0.1-0.1,0.2-0.2
		C46.2,31,46,31,45.8,31c0,0.1,0,0.2,0,0.4c-0.1-0.1-0.1-0.2-0.1-0.3c0,0-0.1-0.1-0.1-0.1c0.1-0.4,0.5-0.7,0.5-1.1
		c-0.2,0.2-0.3,0.5-0.4,0.8c-0.3,0.5-0.6,0.9-0.8,1.4c-0.1,0.1-0.1,0.2-0.2,0.3c0,0.1-0.1,0.2-0.1,0.3c0-0.1,0-0.3,0-0.4
		c-0.1,0.2-0.1,0.5,0,0.7c-0.1,0.1-0.2,0.2-0.3,0.3c-0.2,0-0.1-0.2-0.1-0.3c0,0.1,0,0.2-0.1,0.3c-0.5,0-1-0.1-1.4,0.1
		c0,0-0.1-0.1-0.1-0.1c-0.1,0-0.3,0-0.4,0c0,0.1,0,0.2,0.1,0.2c-0.1,0-0.2,0.1-0.3,0.1c0-0.1,0-0.2,0-0.3c-0.1,0-0.3,0-0.4-0.1
		c0,0-0.1-0.1-0.2-0.1c0.1-0.1,0.2-0.1,0.3,0.1c0.1-0.3,0.3-0.5,0.4-0.8c0,0-0.1-0.1-0.1-0.1c0-0.1,0.1-0.2,0.1-0.2
		c0-0.1-0.1-0.2-0.1-0.3c0.2,0,0.3,0.2,0.3,0.4c0.3-0.6,0.7-1.2,1-1.8c0,0-0.1-0.1-0.1-0.1c0.2-0.1,0.3-0.2,0.4-0.4l0,0.2
		c0.1-0.1,0.2-0.2,0.2-0.3c0,0,0.1,0.1,0.1,0.2c0.1-0.1,0.1-0.1,0.2-0.2c-0.2,0-0.3,0-0.5,0c0.1-0.1,0.1-0.2,0.2-0.4
		c0.1,0,0.3,0,0.4,0c0-0.1,0-0.2,0-0.3c0.5,0,1-0.1,1.5,0c0.2,0,0.4,0.1,0.6,0c-0.5,0-1-0.1-1.5-0.1c0,0,0.1-0.1,0.2-0.1
		c-0.1-0.1-0.2-0.2-0.3-0.2c0,0,0.1-0.1,0.1-0.1c-0.1,0-0.2,0-0.2,0.1c-0.1,0.1-0.2,0.2-0.3,0.3c0,0.1-0.1,0.2-0.1,0.2
		c0-0.1,0.1-0.3,0.2-0.4c0-0.3,0.2-0.5,0.4-0.8c0.3-0.7,0.7-1.3,1-1.9c0.2-0.3,0.4-0.6,0.5-0.9c0.2,0.1,0.4,0.3,0.4,0.5
		c0,0-0.1,0.1-0.1,0.2c0.2,0.2,0.4,0.3,0.7,0.3c-0.1-0.1-0.2-0.3-0.3-0.4c0,0,0.1-0.1,0.1-0.1c-0.1-0.1-0.1-0.2-0.2-0.4
		c-0.1,0-0.2-0.1-0.4-0.1c0,0,0.1-0.1,0.1-0.2c0,0-0.1-0.1-0.2-0.2c0,0,0.1,0.1,0.2,0.1c0.1-0.1,0.2-0.1,0.3-0.2
		C47,24.4,47.4,24.4,47.9,24.4 M50,25.5c0-0.1-0.1-0.2-0.1-0.3c0,0-0.1,0-0.2,0l0-0.2C49.5,25.2,49.9,25.4,50,25.5 M48.9,25.4
		C48.8,25.6,49.2,25.4,48.9,25.4 M45.5,25.8c0.1,0.1,0.2,0.3,0.1,0.5c0.4-0.1,0.3,0.5,0.6,0.6c0-0.1,0.1-0.1,0.1-0.2
		c-0.1-0.1-0.2-0.2-0.1-0.3c-0.1,0-0.2,0-0.2,0c0,0,0-0.2,0-0.2c-0.1-0.1-0.1-0.1-0.2-0.2C45.8,25.9,45.6,25.9,45.5,25.8 M46.1,25.9
		C46.1,26.1,46.3,25.7,46.1,25.9 M48.5,25.9c0,0.1,0.2,0.1,0.3,0.1c0,0,0.3,0,0.2-0.1C48.8,25.8,48.7,25.8,48.5,25.9 M48.6,26.1
		C48.6,26.1,48.6,26.1,48.6,26.1 M47.7,26.6c0,0,0.1,0,0.1,0.1c0,0,0,0.1,0,0.1c-0.3,0.5-0.5,1-0.8,1.5c-0.2,0.2-0.3,0.5-0.4,0.8
		c0.1,0,0.2,0,0.3,0c-0.1,0.1-0.2,0.1-0.3,0.1c-0.2,0.2-0.3,0.4-0.4,0.7c0.6,0,1.2,0,1.8,0L47.9,30c0.2-0.2,0.6-0.3,0.7,0
		c-0.1,0.1-0.4,0.2-0.3,0.5c0.1-0.1,0.2-0.2,0.3-0.3c0,0.1,0,0.2,0,0.3c0,0,0.1,0.1,0.1,0.1c0,0.1-0.1,0.3,0,0.4
		c0.1-0.2,0.2-0.4,0.3-0.5c0,0.2,0,0.3,0,0.5c0.1,0,0.2,0,0.3-0.1c0-0.1,0-0.2,0-0.3c0,0-0.1-0.1-0.2-0.1c0,0,0.1-0.1,0.1-0.1
		c0.1,0,0.2-0.1,0.3-0.2c0,0,0,0.1,0,0.2c0.3,0,0.3,0.2,0.5,0.4c0-0.3-0.2-0.4-0.4-0.6c0.1-0.1,0.2-0.2,0.3-0.2
		c0.2,0.1,0.4,0.2,0.4,0.4c0.2,0,0.3-0.1,0.5-0.1c0,0,0-0.1,0-0.2c0.1,0,0.2,0.1,0.2,0.1c0-0.3,0-0.7-0.3-0.7c0,0.1,0,0.2,0,0.3
		c-0.1-0.1-0.1-0.3-0.2-0.4c-0.1-0.1-0.3-0.2-0.5-0.2c0,0,0,0.1,0,0.2c0-0.1-0.1-0.2-0.1-0.3c0,0.1,0,0.2,0,0.3
		c-0.1-0.1-0.3,0-0.3-0.2c0.1,0,0.1,0.1,0.2,0.1c0.1-0.1,0.1-0.2,0.2-0.3c0-0.1-0.1-0.2-0.1-0.3c0,0,0.1-0.1,0.2-0.2
		c-0.1,0-0.3,0-0.4,0c0,0.1,0.1,0.3,0.1,0.4c-0.1,0.1-0.3,0.1-0.4,0.2c-0.2,0-0.2-0.2-0.3-0.3c-0.3-0.7-0.8-1.4-1.1-2.2
		c0.1-0.1,0.4-0.2,0.4-0.4C48.1,26.3,47.9,26.5,47.7,26.6 M47.5,26.4C47.4,26.6,47.8,26.4,47.5,26.4 M46.7,26.9
		C46.7,26.9,46.7,26.9,46.7,26.9 M46.8,27c0,0.1,0,0.2,0.1,0.1C46.9,27.1,46.9,27,46.8,27 M46.6,27.9C46.6,28,46.6,28,46.6,27.9
		 M46.7,27.9C46.6,28.2,47,27.9,46.7,27.9 M44.2,28.2C44.3,28.2,44.3,28.2,44.2,28.2 M46.6,28.1c-0.1,0.1-0.1,0.1,0,0.2
		C46.7,28.3,46.7,28.2,46.6,28.1 M46.5,28.5C46.5,28.5,46.5,28.5,46.5,28.5 M46.3,30.7c0.1-0.3,0.1-0.5,0.1-0.8
		C46.2,30.1,46.3,30.4,46.3,30.7 M51.1,31.7c0,0.1,0.1,0.2,0.2,0.1c0,0.1,0,0.2,0,0.3c0,0,0.1,0,0.2,0c0,0.1,0,0.3,0,0.4
		c0.1-0.1,0.2-0.3,0.2-0.4c0,0.1,0.1,0.2,0.1,0.3c0,0.1,0.1,0.2,0.1,0.3c0.2-0.3,0-0.6,0-0.9c0,0,0.1-0.1,0.1-0.2
		c-0.1,0-0.2-0.1-0.4-0.1C51.4,31.7,51.2,31.6,51.1,31.7z"/>
	<path class="st1" d="M35.6,25.5c0,0,0.1,0,0.1,0c0.2,0.3,0.4,0.5,0.3,0.9c-0.1,0-0.1,0.1-0.2,0.1c0,0.1,0.1,0.2,0.1,0.3
		c-0.1,0-0.2,0-0.3,0c0-0.1-0.1-0.2-0.1-0.3C35.7,26.2,35.6,25.8,35.6,25.5z"/>
	<path class="st1" d="M51.6,26.3c0-0.1,0-0.3,0.1-0.2C51.8,26.1,51.7,26.3,51.6,26.3z"/>
	<path class="st1" d="M64.1,26.5c0,0.1,0.1,0.1,0.1,0.2c0.1,0,0.2,0.1,0.2,0.1c-0.2,0-0.3-0.1-0.5-0.2
		C64.1,26.6,64.1,26.5,64.1,26.5z"/>
	<path class="st1" d="M50.9,26.6c0.1,0.2,0.3,0,0.4-0.1c0,0.1-0.2,0.2-0.3,0.2C51,26.7,51,26.6,50.9,26.6z"/>
	<path class="st1" d="M64,27C64.1,27,64.1,27,64,27z"/>
	<path class="st1" d="M63.3,27.4c0.1-0.1,0.2-0.2,0.3-0.2c0,0,0,0.1,0,0.2C63.6,27.3,63.5,27.4,63.3,27.4
		C63.4,27.4,63.4,27.4,63.3,27.4z"/>
	<path class="st1" d="M36.4,28.1c0.1,0,0.2,0,0.1,0.1C36.4,28.3,36.3,28.3,36.4,28.1z"/>
	<path class="st1" d="M45.4,31.3c0,0,0.1,0,0.2,0c0,0.1,0.1,0.2,0.1,0.3C45.5,31.7,45.5,31.4,45.4,31.3z"/>
	<path class="st1" d="M33.2,31.7c0.3,0.1,0.7,0,1,0c0.6,0.1,1.3-0.1,1.9,0c0,0.2,0,0.3,0.1,0.5c0,0-0.1,0.1-0.1,0.2
		c0,0,0,0.1,0.1,0.1c-0.1,0.4,0,0.8,0,1.2c0,0.4,0,0.9,0,1.3c-0.1,0.1-0.1,0.2-0.2,0.2c0.1,0,0.2-0.1,0.2-0.1c0,0.3,0,0.5,0,0.8
		c0,0-0.1,0.1-0.2,0.1c0.1,0,0.2,0,0.2,0c0,0.2,0,0.4-0.1,0.5c0.1,0.1,0.1,0.2,0.2,0.3c0.1,0.1,0.1,0.2,0.2,0.2c-0.1,0-0.2,0-0.2,0
		c0,1.5,0.1,3.1,0.1,4.6c0,0.1-0.1,0.2-0.1,0.3c0.1,0.1,0.1,0.2,0.2,0.3c-0.1,0-0.2,0-0.2,0c0,0.1,0,0.2,0,0.2
		c-0.2,0.2-0.4,0.2-0.6,0.3c0,0.1,0,0.2-0.1,0.3c0,0,0.1,0,0.1,0c0,0.1-0.1,0.2-0.1,0.3c0.1,0,0.2,0,0.2,0c0-0.1,0-0.2,0-0.3
		c0,0.1,0,0.2,0.1,0.2c0.1,0,0.2,0,0.3-0.1c0,0.1,0.1,0.3,0.1,0.4c-0.1,0.1-0.1,0.2-0.2,0.3c0,0-0.1-0.1-0.2-0.1c0,0,0,0.1,0,0.1
		c0.1,0,0.2,0,0.4,0c0-0.1,0-0.2,0-0.2c0.3,0.2,0.3,0.6,0,0.8c0-0.1-0.1-0.2-0.2-0.3c-0.1,0.1-0.2,0.1-0.3,0.1
		c0.1,0.1,0.1,0.1,0.2,0.2c-0.1,0.1-0.2,0.1-0.3,0.2c0.1,0,0.2-0.1,0.2-0.1c0.2,0,0.3,0,0.5,0.1c0,0.3,0,0.6,0,1
		c0,0.2-0.1,0.5-0.1,0.7c-0.1,0-0.2,0-0.3,0.1c0-0.1,0.1-0.2,0.1-0.3c0,0-0.1-0.1-0.1-0.2c-0.7,0-1.5,0-2.2,0.1c-0.4,0-0.9,0-1.3,0
		c-0.1,0.3-0.3,0-0.5,0c-0.7-0.1-1.5,0-2.2,0c0,0.1-0.1,0.2-0.1,0.3c-0.3-0.1-0.4-0.4-0.4-0.7c-0.1,0-0.2,0-0.3,0
		c0-0.1,0-0.3-0.1-0.4c-0.2-0.4-0.7-0.7-0.9-1.1c-0.3,0-0.4-0.2-0.5-0.4c-0.1-0.2-0.2-0.4-0.3-0.5c-0.1,0-0.3,0-0.4,0
		c0-0.1,0-0.3,0.1-0.4c-0.2-0.3-0.4-0.5-0.6-0.7c-0.3-0.4-0.6-0.8-1-1.1c-0.2-0.2-0.4-0.5-0.6-0.7c-0.3-0.3-0.5-0.7-0.8-1
		c0,0,0-0.1,0-0.2c-0.1-0.1-0.2-0.2-0.3-0.3c0.2-0.1,0.3-0.1,0.5-0.2c-0.1-0.1-0.1-0.1-0.2-0.2c-0.1,0.1-0.3,0.2-0.4,0.3
		c-0.1-0.2-0.3-0.3-0.3-0.5c0-0.1,0.1-0.1,0.1-0.2c-0.1,0-0.2,0-0.3-0.1c-0.2-0.2,0-0.4,0.1-0.6c-0.1,0.1-0.2,0.1-0.3,0.2
		c0,0.1,0.1,0.2,0.1,0.3c-0.3-0.3-0.5-0.6-0.8-0.9c0.1-0.1,0.2-0.2,0.2-0.3c-0.1,0-0.2,0.1-0.3,0.2c-0.2-0.2-0.3-0.4-0.5-0.6
		c0.1,0,0.2-0.1,0.3-0.1c0,0,0-0.1,0-0.2c0.2-0.1,0.5-0.3,0.7-0.4c0.1,0.2,0.3,0.1,0.5,0c0,0.1,0,0.2,0,0.2c0.1-0.1,0.1-0.1,0.2-0.2
		c0.2,0,0.5-0.1,0.7-0.2c-0.3,0-0.5,0.1-0.8,0.1c-0.1-0.2-0.2-0.2-0.4-0.1c-0.1,0-0.3-0.1-0.4-0.2c-0.1,0-0.2,0.1-0.2,0.1
		c0-0.1-0.1-0.2-0.1-0.2c0,0.2,0,0.3,0,0.5c-0.1,0-0.2-0.1-0.3-0.1c0,0,0.1,0.1,0.2,0.2c-0.2,0.1-0.3,0-0.5,0c0,0.1-0.1,0.2-0.2,0.2
		c0.1,0.1,0.1,0.2,0.2,0.3c-0.1,0-0.3-0.1-0.4-0.1c0.1,0.1,0.2,0.1,0.3,0.2c0,0-0.1,0.1-0.1,0.2c0.3,0.4,0.2,0.9,0.2,1.4
		c-0.1-0.1-0.1-0.1-0.2-0.2c-0.1,0-0.2,0-0.3,0c0,0.1,0.1,0.3,0.1,0.4c0.3,0,0.4,0.3,0.4,0.5c0,1.1,0,2.2,0,3.3
		c-0.1,0-0.2-0.1-0.3-0.1c0,0.1,0,0.2,0,0.3c0.1,0,0.2,0.1,0.3,0.1c0.1,0.6,0,1.3,0,1.9c0,0,0.1,0,0.2,0c-0.1,0-0.1,0-0.2,0.1
		c0,0.7,0,1.4,0,2.2c-0.7,0-1.3,0-2,0c-0.1-0.2,0-0.6-0.2-0.8c-0.1,0.1-0.1,0.1-0.2,0.2c0,0.2,0,0.4,0.2,0.4
		c-0.1,0.1-0.2,0.1-0.2,0.2c-0.1-0.2-0.2-0.4,0-0.6c0,0-0.1-0.1-0.1-0.1c-0.1,0.1-0.1,0.1-0.2,0.2c-0.1-0.1-0.2-0.1-0.3-0.1
		c0.1,0.1,0.1,0.1,0.2,0.2c0.1,0,0.2,0,0.3,0c0,0.2-0.1,0.3-0.2,0.4c0,0.1,0,0.2,0,0.2c0.1,0,0.2-0.1,0.2-0.1c0,0.1,0.1,0.2,0.1,0.3
		c-0.2,0-0.3,0-0.5,0c0-0.1,0-0.2,0-0.3c-0.2,0.1-0.4,0.2-0.6,0.3c0,0-0.1-0.1-0.2-0.1c0,0,0-0.1,0-0.2c-0.2,0-0.4,0.1-0.6,0.1
		c0-0.3,0-0.7,0-1c0-0.2,0.3-0.1,0.4-0.2c-0.1,0-0.3,0-0.4,0c-0.1-0.6,0-1.1-0.1-1.7c0.1-0.1,0.2-0.1,0.3-0.2c-0.1,0-0.3,0-0.3,0
		c0-0.1,0-0.1,0-0.2c0.1,0,0.2,0.2,0.3,0c0-0.1,0-0.2,0-0.2c0,0-0.1-0.1-0.1-0.1c0-0.2,0-0.3,0-0.5c-0.1-0.1-0.1-0.1-0.2-0.2
		c0-0.1,0-0.2,0-0.3l0.1,0c0-0.8-0.1-1.6,0-2.4c0-0.1,0-0.2,0-0.4c-0.1,0-0.2,0.1-0.2,0.1l0,0c0.2-0.5,0.7-0.9,1.1-1.3
		c0.6-0.7,1.3-1.4,1.9-2.2c0.1,0,0.2,0,0.3,0c0.1,0,0.1,0.1,0.2,0.1c0.2,0,0.3-0.1,0.5-0.1c0,0-0.1-0.1-0.1-0.1
		c-0.1,0-0.2,0.1-0.3,0.1c-0.1-0.1-0.2-0.1-0.3-0.2c0.3-0.5,0.7-0.8,1.1-1.2c0.8-0.8,1.6-1.6,2.4-2.4c0.6,0.8,1.3,1.5,1.9,2.4
		c0.2,0.1,0.4,0.2,0.5,0.3C26,34.9,26,35,26,35.1c0,0.5,0,1.1,0,1.6c0.1,0,0.4,0.1,0.3-0.1l-0.1-0.1c0-0.1,0.1-0.2,0.1-0.3
		c0.1,0,0.2,0,0.4,0c0,0.1-0.1,0.2-0.1,0.3c0,0,0,0.1,0,0.2c0,0,0.1,0.1,0.2,0.1c0,0.1,0,0.3,0.1,0.4c0,0.1-0.1,0.2-0.2,0.2
		c0.1,0,0.2,0,0.2,0.1c0,0-0.1,0.1-0.1,0.2c0,0,0,0.1,0.1,0.2c0,0.1,0,0.2,0,0.3c0-0.1,0.1-0.2,0.1-0.3c0.1,0,0.3-0.1,0.4-0.1
		c0,0.2-0.1,0.3-0.1,0.5c0.1,0,0.2,0,0.3,0c0,0.2-0.1,0.3-0.3,0.3c0.1,0.1,0.2,0.2,0.3,0.3c0.1-0.2,0.2-0.4,0.4-0.4
		c0,0.1-0.1,0.2-0.1,0.2c0.1,0.1,0.1,0.1,0.2,0.2c0,0.2,0.1,0.5-0.2,0.5c0.1,0.4,0,0.9,0,1.3c0.1,0,0.1-0.2,0.2-0.2
		c0,0.1,0.1,0.2,0.1,0.2c-0.1,0.1-0.3,0.1-0.4,0.1c0,0,0.1,0.1,0.2,0.1c0.1,0.2,0.3,0.5,0.3,0.8c0.2,0,0.3,0,0.5,0
		c0.1-0.1,0.1-0.2,0.2-0.3c0.1,0,0.2,0.1,0.4,0.1c0-0.1-0.1-0.3,0-0.3c0.2,0.1,0.4,0.2,0.5,0.3c0,0.1,0,0.3,0.1,0.4
		c-0.2,0.2,0,0.4,0.1,0.6c0.1-0.1,0.3-0.2,0.3-0.4c0.2,0,0.2-0.2,0.2-0.3c0.1-0.1,0.1-0.2,0.2-0.3c0,0,0.1-0.1,0.2-0.1
		c0-0.2-0.1-0.3-0.1-0.5c0.2,0.1,0.4,0.3,0.5,0.4c0.2,0.3,0.4,0.6,0.7,0.8c0-0.2,0-0.4-0.1-0.6c0.1-0.2,0-0.5,0-0.7
		c0.2-0.3,0.2-0.6,0.4-0.8c0,0.1,0.1,0.2,0.1,0.3c0.3,0,0.5-0.3,0.6-0.5c0.1,0,0.2,0,0.2-0.1c-0.1-0.1-0.1-0.2-0.2-0.2
		c0.1,0,0.2,0.1,0.2,0.1c0.1-0.3,0.3-0.7,0.3-1c-0.1,0.1-0.2,0.2-0.3,0.4c0-0.1-0.1-0.2-0.1-0.3c-0.1,0.2-0.3,0.2-0.4,0.1
		c-0.1,0.1-0.2,0.1-0.3,0.2c0,0,0,0.1,0,0.2c-0.2,0.1-0.4,0.1-0.6,0.2c0-0.2,0-0.4,0-0.7c0,0-0.1,0-0.1-0.1c0,0,0.1-0.1,0.1-0.2
		c-0.1,0-0.3,0-0.3,0c-0.1,0-0.2,0.1-0.3,0.1c-0.1,0-0.1-0.1-0.2-0.1c0-0.1,0.1-0.1,0.1-0.2c0,0,0.1,0,0.2,0c0,0,0.1-0.1,0.1-0.1
		c-0.1-0.1-0.1-0.2-0.2-0.3c0.2,0,0.4,0.2,0.6,0.1c-0.2-0.5,0-1,0-1.6c0-0.2-0.2-0.3-0.4-0.4c0.1,0,0.2-0.1,0.3-0.1
		c-0.1-0.1-0.1-0.1-0.2-0.2c0.1,0,0.2-0.1,0.3-0.1c-0.1-0.1-0.2-0.3-0.3-0.4l0.2,0.1c0-0.6,0-1.1,0-1.7c0-0.3,0.1-0.6,0.1-0.9
		c0,0.1,0,0.2,0.1,0.3c0.1,0,0.1-0.2,0.1-0.3c0.1-0.1,0.1-0.2,0.1-0.3c0,0,0.1-0.1,0.2-0.1c0-0.1-0.1-0.2-0.1-0.3c0.2,0,0.5,0,0.7,0
		c0,0.1,0.1,0.3,0.1,0.4C33.1,32,33.2,31.8,33.2,31.7 M34.5,34.2C34.6,34.3,34.6,34.3,34.5,34.2 M34.5,34.9c0.1-0.1,0.2-0.3,0.2-0.5
		C34.6,34.5,34.6,34.7,34.5,34.9 M22.8,34.8c0.1,0,0.2,0,0.3,0c0,0.1-0.1,0.2-0.1,0.3c0.1-0.1,0.1-0.2,0.2-0.3
		C23.1,34.7,22.9,34.6,22.8,34.8 M21.9,34.9C21.8,35.2,22.2,34.9,21.9,34.9 M36,34.9C36,34.9,36,34.9,36,34.9 M35.2,35
		C35.2,35,35.2,35,35.2,35 M23.4,35.1c0.1,0.2,0.2,0.3,0.4,0.3C23.8,35.1,23.6,35.1,23.4,35.1 M34.8,35.1c-0.1,0.1-0.1,0.2,0.1,0.2
		C34.9,35.2,34.9,35.1,34.8,35.1 M35.1,35.2C35.1,35.5,35.3,35.1,35.1,35.2 M23.3,35.7c-0.1,0.1,0.1,0.2,0.2,0.1
		C23.6,35.7,23.4,35.6,23.3,35.7 M34.7,35.8c0.1,0.1,0.1,0.1,0.2,0.2c0,0.2-0.1,0.4-0.2,0.5c0.2-0.2,0.3-0.5,0.1-0.7
		C34.8,35.8,34.7,35.8,34.7,35.8 M23.6,36.2c0,0.1,0.1,0.1,0.2,0.1c0.1-0.1,0.1-0.2,0.2-0.3C23.8,36.1,23.7,36.1,23.6,36.2
		 M19.8,36.1c0.1,0.1,0.2,0.1,0.3,0.2c0,0-0.1,0.1-0.1,0.2c0.1,0,0.2-0.1,0.3-0.1C20.1,36.3,20,36.2,19.8,36.1 M23.2,36.3
		C23.3,36.4,23.3,36.4,23.2,36.3 M35,36.4c-0.1,0.1-0.1,0.1,0,0.2C35.1,36.5,35.1,36.5,35,36.4 M35,36.7c-0.1,0.1-0.1,0.1-0.2,0.2
		C34.9,36.9,35,36.8,35,36.7c0.2,0.1,0.3,0.1,0.4,0.2c0.1-0.1,0.1-0.1,0.2-0.2c-0.1-0.1-0.1-0.1-0.2-0.2
		C35.3,36.6,35.2,36.7,35,36.7 M23.9,36.8C23.7,37,24.2,36.8,23.9,36.8 M24.3,36.9c0,0.1,0,0.2,0.1,0.1
		C24.5,36.9,24.4,36.9,24.3,36.9 M26.5,36.9C26.5,37,26.5,37,26.5,36.9 M23.3,37.2c0.1,0,0.2-0.1,0.2-0.2
		C23.4,37,23.2,37.1,23.3,37.2 M24,37.1c0.1,0.2,0.3,0.5,0.5,0.3C24.3,37.3,24.2,37.2,24,37.1 M32.3,37.2
		C32.3,37.5,32.6,37.1,32.3,37.2 M32.9,37.3C33,37.3,33,37.3,32.9,37.3 M23.7,37.6c-0.1,0.1,0.1,0.2,0.2,0.1
		C24,37.6,23.8,37.5,23.7,37.6 M32.2,37.7c-0.1,0.1,0.1,0.2,0.2,0.1C32.5,37.7,32.3,37.6,32.2,37.7 M35.6,37.8
		C35.5,38,35.9,37.8,35.6,37.8 M23.6,37.9C23.6,38,23.6,38,23.6,37.9 M33.7,38.2c-0.1,0-0.2,0.1-0.2,0.2
		C33.5,38.6,33.9,38.3,33.7,38.2 M20.4,38.9c-0.1,0.1,0,0.3,0.1,0.2C20.7,39.1,20.6,38.8,20.4,38.9 M35.8,39.4
		C35.6,39.6,36,39.4,35.8,39.4 M17.4,39.5c0,0.9,0,1.8-0.1,2.7c0.1,0,0.2-0.1,0.3-0.1c0-0.4,0-0.8,0.1-1.1c-0.1-0.4,0-0.8,0-1.3
		C17.6,39.6,17.5,39.6,17.4,39.5 M20.3,40C20.3,40,20.3,40,20.3,40 M27.3,40.1C27.2,40.4,27.6,40.2,27.3,40.1 M18.1,40.5
		c0,0-0.1,0.1-0.1,0.1c0.1,0.1,0.1,0.1,0.2,0.2c-0.1,0.1-0.1,0.3-0.2,0.4c0,0,0.1,0.1,0.1,0.1l0-0.1c0.1,0.1,0.2,0.2,0.3,0.3
		c-0.2,0-0.3,0.1-0.3,0.3c0.1-0.1,0.2-0.1,0.2-0.2c0.1,0,0.2,0.1,0.2,0.1c0,0.1,0,0.2,0,0.3c0.1-0.1,0.1-0.2,0.2-0.3
		c0.1-0.1,0.2-0.1,0.3-0.2c-0.1,0-0.2,0.1-0.3,0.1c0.1-0.1,0-0.2-0.1-0.2c-0.1,0-0.2,0-0.2,0c-0.1-0.1-0.1-0.2-0.2-0.2
		C18.2,40.9,18.2,40.7,18.1,40.5 M20,40.6c0,0.1,0,0.2-0.1,0.2c0.1-0.1,0.3-0.2,0.4-0.3C20.2,40.6,20.1,40.6,20,40.6 M19.3,40.8
		C19.2,41.1,19.6,40.8,19.3,40.8 M19.2,41C19.2,41.3,19.4,40.9,19.2,41 M19.2,41.9c0,0,0.1-0.1,0.1-0.2c0.1,0,0.2,0,0.3,0
		c0,0.1,0.1,0.1,0.1,0.2c0,0,0.1-0.1,0.1-0.1l-0.1,0c0.1-0.1,0.1-0.2,0.2-0.3c-0.1,0-0.3,0-0.4,0c0-0.1,0-0.2,0-0.3
		C19.3,41.4,19.2,41.6,19.2,41.9 M20.3,41.3C20.1,41.6,20.5,41.3,20.3,41.3 M35.6,41.3c0.1,0.2,0.2,0.4,0.3,0.5
		c-0.2-0.1-0.4-0.1-0.7-0.2c0.2,0.2,0.5,0.3,0.6,0.5c0.1,0,0.2,0,0.3,0c0,0-0.1-0.1-0.2-0.2C35.9,41.6,35.7,41.4,35.6,41.3
		 M35.8,42.5C35.8,42.8,36,42.3,35.8,42.5 M18.1,43.3C18.1,43.3,18.1,43.3,18.1,43.3 M19.9,43.7C20,44,20.2,43.6,19.9,43.7
		 M35.1,43.8c0,0.2-0.2,0.3-0.3,0.4c0.1,0,0.2,0.1,0.2,0.1c0.1-0.1,0.2-0.2,0.3-0.4c0,0,0.1,0.1,0.1,0.1c0.1-0.1,0.2-0.1,0.2-0.2
		C35.5,43.8,35.3,43.8,35.1,43.8 M21,44C21.1,44.1,21.1,44.1,21,44 M19.1,44.2c0,0.1,0,0.2,0.1,0.1C19.2,44.2,19.2,44.1,19.1,44.2
		 M35,44.4c0,0.1,0,0.2,0,0.2c0.1,0,0.2,0,0.3-0.1C35.2,44.5,35.1,44.4,35,44.4 M35.4,44.4c-0.1,0-0.1,0.2,0.1,0.2
		C35.6,44.5,35.6,44.3,35.4,44.4 M20.6,45c0,0.1,0.1,0.2,0.1,0.3C20.7,45.2,20.7,45.1,20.6,45c0.1,0,0.2-0.1,0.2-0.1
		C20.7,44.9,20.7,45,20.6,45 M18.6,45.2L18.6,45.2c0.2,0.1,0.5,0.1,0.7,0.1l0-0.1C19.1,45.2,18.9,45.2,18.6,45.2 M18.7,45.4
		c0,0.1,0,0.2,0.1,0.1C18.8,45.4,18.8,45.4,18.7,45.4z"/>
	<path class="st1" d="M48.3,32.8c0.2,0.1,0.3,0.4,0.5,0.5c0,0.1,0,0.2,0,0.3c-0.1-0.1-0.2-0.2-0.3-0.4l-0.1,0
		C48.4,33,48.4,32.9,48.3,32.8z"/>
	<path class="st1" d="M47.2,33.3c0.2-0.1,0.4-0.2,0.5-0.1c-0.1,0-0.2,0-0.2-0.1c-0.1,0.1-0.1,0.2-0.2,0.2
		C47.3,33.4,47.3,33.3,47.2,33.3z"/>
	<path class="st1" d="M46.8,33.6c0.1-0.1,0.3,0.1,0.2,0.2C47,33.9,46.8,33.7,46.8,33.6z"/>
	<path class="st1" d="M48.2,33.5c0.3,0.1,0.4,0.4,0.5,0.7c0.1,0.2,0,0.4-0.2,0.5c0.1,0,0.1,0,0.2,0c-0.2,0-0.1,0.2-0.2,0.4
		c-0.5,0-1.1,0-1.6,0c0,0.1,0.1,0.1,0.1,0.2c-0.1,0.1-0.3,0.2-0.5,0.1c-0.1,0-0.2-0.1-0.3-0.2c0,0.2,0,0.3,0,0.5
		c0,0.1-0.1,0.2-0.1,0.3c0.1,0,0.2,0,0.2,0c0.1,0.1,0.2,0.2,0.3,0.3c0.2,0,0.5-0.1,0.7-0.2c0.3,0.3,0.7,0.2,1,0.1c0-0.1,0-0.2,0-0.4
		c0.1,0.1,0.4,0.2,0.1,0.4c0.1,0,0.1,0.1,0.2,0.1c0,0.2,0.1,0.3,0.1,0.5c0,0.1-0.1,0.2-0.1,0.3c0,0,0.1,0,0.1,0c0,0,0-0.1,0-0.2
		c0,0,0.1-0.1,0.1-0.1c0-0.2,0.1-0.4,0.1-0.5c0.1-0.1,0.2-0.1,0.3-0.2c-0.1,0-0.1-0.1-0.2-0.1c0.3-0.1,0.2-0.5,0-0.7
		c-0.1-0.2,0-0.4,0-0.5c0.1-0.1,0.1-0.1,0.2-0.2c0-0.2,0.1-0.4,0.1-0.6c-0.2,0-0.3,0-0.5,0.1c0,0,0.1-0.1,0.1-0.2
		c0.4-0.1,1,0,1.3,0.2c0.4,0.3,0.4,0.8,0.5,1.2c0,0.3,0,0.7-0.1,1c-0.1,0.3-0.4,0.5-0.7,0.6c0.2,0.1,0.5,0.3,0.7,0.1c0,0,0,0,0,0
		c0,0-0.1,0.1-0.2,0.2c0.1,0,0.2,0,0.2,0c-0.1,0.1,0,0.2,0,0.3c0.1,0.4,0.1,0.9,0.1,1.3c-0.1,0-0.2,0-0.2,0c0,0.1,0,0.2,0,0.3
		c-0.2,0-0.1-0.2-0.1-0.3c-0.4,0-0.8,0-1.2,0c-0.1-0.4,0.1-0.9-0.2-1.2c-0.5-0.2-1.1-0.1-1.6-0.1c-0.3,0-0.6,0-0.9,0.1
		c0-0.1,0-0.3,0-0.4c-0.1,0.3-0.3,0.5-0.4,0.7c-0.1,0.1-0.1,0.2,0,0.3l-0.2-0.1c0,0.1,0.1,0.2,0.1,0.3c-0.1,0.1-0.1,0.3-0.1,0.4
		c-0.3,0-0.6,0-0.8,0c0-0.1,0-0.2,0.1-0.3c0,0.4-0.5,0.2-0.7,0.2c-0.1-0.2-0.1-0.4-0.1-0.7c0-1-0.1-1.9-0.1-2.9c0,0-0.1,0-0.2,0
		c0.1,0,0.2-0.1,0.2-0.2c-0.1,0-0.2,0-0.3,0c0.1,0,0.2,0,0.2-0.1c0-0.2,0-0.4,0.1-0.6c0.1-0.2-0.1-0.5-0.1-0.7c0.1,0,0.3,0,0.4,0
		c0.9,0,1.8,0,2.7,0c0.2,0,0.4,0,0.5-0.1C48.2,33.8,48.2,33.6,48.2,33.5 M45.8,35.9C45.9,36,45.9,36,45.8,35.9 M46,36.3
		c0.1,0.1,0.3-0.1,0.2-0.2C46.1,36,45.9,36.1,46,36.3 M44.8,36.3C44.8,36.4,44.8,36.4,44.8,36.3z"/>
	<path class="st1" d="M44.4,33.8c0.1-0.1,0.2,0,0.1,0.1C44.4,34,44.4,34,44.4,33.8z"/>
	<path class="st1" d="M36.9,34.3c-0.2-0.2,0-0.3,0.1-0.4C37,34,36.9,34.2,36.9,34.3c0.2,0.1,0.5,0.1,0.6-0.1c0.1,0,0.3,0.1,0.4,0.1
		c0-0.1,0-0.2,0-0.3c0.1,0.1,0.2,0.2,0.2,0.3c-0.2,0-0.4,0-0.6,0.1l0,0.1c1,0,2,0.1,3,0.1c0.1,0.1,0.1,0.1,0.2,0.2
		c0.1-0.1,0.2-0.2,0.3-0.1c0.4,0,0.7,0.1,1.1,0.2c0.1,0,0.2,0.1,0.3,0.1c0,0,0.1-0.1,0.1-0.1c0.3,0.3,0.5,0.7,0.4,1.1
		c-0.2,0.1-0.2-0.1-0.3-0.2c-0.1,0-0.3,0-0.4,0c0,0.1,0,0.2,0,0.3c0.1,0,0.3,0,0.4,0.1c-0.1,0-0.2,0-0.3,0c0.2,0.2,0.4,0.2,0.7,0.1
		c-0.1,0-0.2,0.1-0.3,0.1c0,0,0.1,0.1,0.2,0.1c0,0-0.1,0-0.1,0c-0.1-0.1-0.2-0.2-0.3-0.2c0,0.2-0.1,0.5,0.1,0.6c0-0.1,0-0.2,0.1-0.3
		c0.1,0,0.2,0,0.3,0c0,0.1-0.1,0.2-0.1,0.3c0,0-0.1,0.1-0.2,0.1c0.1,0,0.2,0.1,0.3,0.2c-0.1,0-0.2,0-0.4,0c0,0.2-0.1,0.4-0.1,0.6
		c0,0,0,0.1,0.1,0.2c-0.1,0.1-0.2,0.2-0.3,0.3c0,0.1,0.1,0.2,0.1,0.3l-0.1-0.2c-0.1,0.2-0.3,0.3-0.3,0.6c-0.1-0.1-0.2-0.1-0.3-0.2
		c0.1-0.1,0.2-0.2,0.2-0.3c-0.4,0.1-0.7,0-1.1,0c-0.6,0-1.1-0.1-1.7-0.1c-0.2,0-0.3-0.1-0.4-0.1c-0.1,0-0.2,0.1-0.2,0.1
		c0,0.1,0,0.2,0,0.4c0,0.1,0.1,0.2,0.1,0.3c0.1,0,0.2-0.1,0.3-0.1c0,0,0,0.1,0,0.1c-0.1,0-0.2,0-0.3,0c-0.2,0.2-0.2,0.5-0.1,0.8
		c-0.2-0.4-0.7-0.2-1-0.2c0,0-0.1-0.1-0.1-0.2c0,0.1,0,0.1-0.1,0.2c-0.2,0-0.3,0-0.5,0c0.1,0,0.2-0.1,0.3-0.1c0-0.1,0-0.1,0-0.2
		c0,0.1-0.2,0.3-0.3,0.1c0-0.5,0-0.9,0.1-1.4c0.1,0,0.2,0.1,0.3,0.2c-0.1-0.2-0.1-0.5-0.3-0.6c0-0.1,0-0.2,0.1-0.2
		c0-0.5-0.1-1,0-1.4l-0.2,0c0,0,0.1,0,0.1-0.1c0-0.4,0-0.8,0.1-1.2c0.1,0,0.2-0.1,0.4-0.1c-0.1,0-0.3,0-0.4,0.1c0-0.1,0-0.2,0-0.2
		c0,0-0.1,0-0.2,0C36.8,34.4,36.8,34.3,36.9,34.3 M37.3,34.7C37.1,35,37.6,34.8,37.3,34.7 M39.9,35.5c0,0.1,0,0.2,0.1,0.1
		C40.1,35.5,40,35.4,39.9,35.5 M38.5,35.7c0,0.1,0,0.2,0,0.4c0.2,0,0.3,0.1,0.5,0.2c0,0.1,0.1,0.3,0.1,0.4c-0.1,0-0.3,0.1-0.4,0.1
		c-0.1-0.1-0.1-0.1-0.2-0.2c0,0.2,0,0.4,0,0.6c0.1,0,0.3,0,0.4,0.1c0.1,0,0.2-0.1,0.3-0.1c0,0,0.1,0.1,0.1,0.2c0-0.1,0-0.2,0-0.3
		c0.2,0,0.4,0,0.7,0c0-0.1,0.1-0.2,0.1-0.3c0,0.1,0.1,0.2,0.1,0.2c0.4,0.1,0.9,0.2,1.2-0.2c0-0.2,0-0.5-0.1-0.7
		c0,0.1-0.1,0.2-0.2,0.3c0-0.1,0-0.3,0-0.4c-0.1,0-0.2,0.1-0.2,0.1c0.1-0.1,0.1-0.2,0.2-0.3C40.2,35.8,39.4,35.7,38.5,35.7
		 M38.4,38.1C38.4,38.1,38.4,38.1,38.4,38.1z"/>
	<path class="st1" d="M60.3,34c0.1,0,0.1-0.1,0.2-0.1c0,0.1,0,0.2,0,0.4c0.1,0.1,0.3,0.2,0.4,0.3c0,0.2,0.1,0.3,0.3,0.5
		c0.4,0.5,0.8,1,1.3,1.6c0.4-0.5,0.9-1,1.2-1.5c0,0-0.1-0.1-0.1-0.1c0.2-0.1,0.5-0.2,0.6-0.5c0.1,0.1,0.3,0,0.4,0.1
		c0,0,0.1-0.1,0.1-0.2c0,0,0,0.1,0,0.2c0.5,0,0.9,0,1.4,0c-0.2,0.3-0.6,0.6-0.7,0.9c0,0,0.1,0.1,0.1,0.1c0,0.1-0.1,0.1-0.1,0.2
		l0.1,0l0,0.1c-0.1,0-0.1-0.1-0.2-0.1c0,0-0.1-0.1-0.1-0.1c-0.1,0.2-0.3,0.3-0.4,0.5c0.1,0,0.2-0.1,0.3-0.1
		c-0.3,0.2-0.6,0.3-0.7,0.5c-0.3,0.4-0.7,0.7-0.8,1.1c-0.1,0-0.2,0.1-0.3,0.2c0,0.6,0,1.2,0,1.7c0.2,0,0.3,0,0.5,0.1
		c-0.1,0-0.3,0-0.4,0c0,0-0.1,0.1-0.1,0.1c0,0,0-0.1-0.1-0.1c-0.1,0-0.3,0.1-0.4,0.1c-0.1,0-0.3-0.1-0.4-0.1c0,0,0,0.1-0.1,0.1
		c0-0.3-0.4-0.2-0.6-0.2c0,0,0-0.1,0-0.1l-0.1,0c0-0.2,0-0.5,0-0.7c-0.1-0.1-0.2-0.1-0.3-0.2c0.1,0,0.2,0,0.3,0.1c0-0.3,0-0.6,0-0.8
		c-0.1-0.2-0.3-0.3-0.4-0.5c-0.1,0-0.1,0-0.2,0.1c-0.2-0.3-0.2-0.7-0.1-1.1c0,0.2-0.1,0.4-0.1,0.5c-0.1-0.1-0.1-0.2-0.2-0.4
		c0,0,0.1-0.1,0.1-0.1c0-0.1-0.1-0.2-0.1-0.3c-0.1,0.1-0.2,0.2-0.4,0.2c0-0.2,0-0.4,0.1-0.6c-0.1,0.1-0.1,0.2-0.2,0.3
		c-0.1-0.1-0.2-0.3-0.4-0.4c-0.3-0.4-0.5-0.7-0.8-1.1c0.3,0,0.6-0.1,0.9-0.2c0,0.1,0.1,0.2,0.1,0.3C60.2,34.5,60.3,34.2,60.3,34
		 M60.4,35.8C60.3,36.1,60.7,35.8,60.4,35.8z"/>
	<path class="st1" d="M54.4,34c0.1,0.1,0.2,0.2,0.3,0.3c0,0-0.1,0-0.1,0.1c0,0.1,0.1,0.2,0.1,0.4c0.1,0.1,0.1,0.3,0.2,0.4
		c0.1,0.1,0.2,0.1,0.3,0.2c0-0.1-0.1-0.2-0.1-0.2c0-0.2-0.2-0.4-0.3-0.5c0.1-0.1,0.2-0.1,0.3-0.2c0.6,0,1.2,0,1.8,0
		c0-0.1,0-0.2,0-0.4c0.1,0.2,0.1,0.3,0.2,0.5c0,0,0.1-0.1,0.1-0.2c0,0.1,0,0.3,0,0.4c0,0,0.1-0.1,0.1-0.1c0,0.1,0.1,0.2,0.1,0.3
		c0.1,0,0.1-0.1,0.2-0.1c0,0.1,0,0.2,0,0.3c-0.1,0-0.2,0-0.3,0c0,0.1,0.1,0.2,0.2,0.2c0,0.1,0.1,0.2,0.1,0.4c0-0.1,0.1-0.2,0.2-0.2
		c0.1-0.1,0.2-0.1,0.3-0.2c0,0-0.1,0.1-0.1,0.2c-0.1,0-0.2,0.1-0.3,0.1c0,0,0.1,0.1,0.1,0.1c-0.1,0-0.2,0-0.3,0.1
		c0.1,0.1,0.2,0.2,0.2,0.4c0.1,0.3,0.3,0.6,0.5,0.9c0-0.1,0.1-0.2,0.1-0.2c0,0.1,0,0.2,0,0.2c0.2,0,0.3,0,0.5,0.1
		c-0.2,0-0.4,0-0.6,0c0.1,0.2,0.3,0.5,0.4,0.7c0.1,0,0.2,0,0.4,0c0,0.1-0.1,0.2-0.1,0.3c0,0,0-0.1-0.1-0.2c0,0-0.1,0-0.1,0
		c0.1,0.2,0.1,0.4,0.1,0.6c-0.1,0-0.3,0-0.4,0.1c0,0,0,0,0,0c0.1,0,0.3,0,0.4-0.1c0-0.1,0-0.2,0-0.3c0.2,0.5,0.5,0.9,0.7,1.4
		c-0.6,0-1.1,0-1.7,0c-0.1-0.1-0.2-0.2-0.2-0.2c0-0.1,0-0.2-0.1-0.3c0,0-0.1-0.1-0.1-0.1l-0.1,0c0-0.1-0.1-0.2-0.1-0.3
		c0.1,0,0.2-0.1,0.2-0.1c-0.1,0-0.2,0-0.3,0.1c-0.1,0-0.2,0.1-0.3,0.1c0,0.1,0.1,0.2,0.1,0.3c-0.1-0.1-0.2-0.2-0.3-0.3
		c-0.1,0-0.1,0-0.2,0.1l0-0.1c-0.7,0-1.3,0-2,0c0.1,0,0.2-0.1,0.2-0.1c-0.1,0-0.2,0-0.3,0c0,0,0,0.1,0,0.2c-0.1,0-0.2-0.1-0.3-0.2
		c-0.1,0.3-0.4,0.6-0.5,1c0,0.1-0.1,0.1-0.1,0.2c-0.4,0-0.9-0.1-1.2,0.2c0.1-0.1,0.2-0.2,0.2-0.2c-0.2,0-0.3,0.1-0.4,0.2
		c-0.1-0.2-0.3-0.3-0.4-0.4c0.1,0,0.2,0,0.3,0c0.1-0.2,0.1-0.3,0.2-0.5c0-0.1,0-0.3-0.1-0.4c0.1,0.1,0.2,0.2,0.2,0.3
		c0.1-0.2,0.2-0.4,0.3-0.5c0,0-0.2-0.1-0.2-0.2c0.1-0.2,0.2,0,0.3,0c0-0.1,0.1-0.2,0.1-0.3c-0.1,0-0.2,0-0.2,0
		c0.2-0.1,0.4-0.2,0.4-0.4c0.1-0.2,0.3-0.2,0.4-0.3c0.2,0,0.3,0,0.5,0c0,0-0.1,0-0.2,0c0-0.1-0.1-0.2-0.1-0.3c0,0-0.1,0.1-0.1,0.2
		c0,0.1-0.1,0.2-0.2,0.2c0,0,0-0.1,0-0.2c0.4-0.7,0.8-1.4,1.2-2.2c-0.1-0.1-0.3-0.2-0.1-0.4C54.4,34.2,54.4,34.1,54.4,34 M56.5,35
		c0,0.1,0.1,0.2,0.2,0.1C56.8,35.1,56.6,35,56.5,35 M56.9,35.2c-0.1,0.1,0.1,0.2,0.1,0.2c0.1,0,0.2-0.1,0.2-0.1
		C57.1,35.3,57,35.2,56.9,35.2 M54.5,35.3c0,0,0,0.1,0,0.2c0.2,0.1,0.2,0.3,0.4,0.4c-0.1-0.1-0.1-0.2-0.2-0.4
		C54.7,35.4,54.6,35.3,54.5,35.3 M55.1,37c0.1,0.1,0.2,0.1,0.4,0.2c-0.1,0-0.3-0.1-0.4-0.1c-0.1,0.1-0.2,0.2-0.2,0.4
		c0.2,0,0.5,0.1,0.6-0.2c0.2,0.2,0.5,0.2,0.8,0.2c0,0.2,0,0.3,0.1,0.5c0.1-0.1,0.3-0.2,0.5-0.3c0,0,0,0.1,0,0.2
		c0-0.2,0.2-0.3,0.4-0.2c0,0,0,0.1,0,0.2c0.1,0,0.2,0,0.2-0.1c0-0.1,0.1-0.2,0.1-0.3c-0.2-0.1-0.5-0.3-0.8-0.3
		c0-0.1,0.1-0.2,0.1-0.2c0-0.1,0-0.2,0-0.3c0,0.1-0.1,0.2-0.1,0.3c-0.1,0.1-0.1,0.3-0.1,0.4c-0.3-0.5-0.6-1.1-0.9-1.6
		C55.5,36.1,55.3,36.5,55.1,37 M56.4,38c0,0.1,0,0.2,0.1,0.1C56.6,38,56.5,38,56.4,38 M54.4,38.3C54.4,38.3,54.4,38.3,54.4,38.3
		 M57.6,38.6c0,0,0.1,0,0.2,0c0,0.1,0.1,0.2,0.1,0.4c0-0.1,0.1-0.1,0.1-0.2c0,0.1,0.1,0.2,0.1,0.3c0-0.2,0-0.4,0-0.5
		C57.9,38.6,57.7,38.6,57.6,38.6z"/>
	<path class="st1" d="M54.1,34.2c0.1-0.1,0.2,0.1,0.2,0.1C54.2,34.4,54,34.3,54.1,34.2z"/>
	<path class="st1" d="M48.8,34.3c0.2,0.1,0.3,0.3,0.3,0.5C49.1,34.9,49,35,49,35.2c0,0-0.1-0.1-0.1-0.1
		C48.8,34.8,48.8,34.6,48.8,34.3z"/>
	<path class="st1" d="M26.2,34.6c0.1,0,0.2,0.1,0.2,0.1c0.2,0,0.3,0,0.5,0.1c-0.2,0-0.5,0-0.7,0C26.2,34.7,26.2,34.6,26.2,34.6z"/>
	<path class="st1" d="M39.9,36.6c0-0.1,0-0.3,0.1-0.4c0,0.1,0,0.2,0,0.3C40,36.6,39.9,36.6,39.9,36.6z"/>
	<path class="st1" d="M27.3,36.9c0-0.1,0.2-0.2,0.2-0.1C27.5,37,27.3,37,27.3,36.9z"/>
	<path class="st1" d="M30.4,36.9c0.1-0.1,0.2,0.1,0.1,0.2C30.4,37.1,30.3,36.9,30.4,36.9z"/>
	<path class="st1" d="M36.5,37.1c0.1-0.1,0.3,0.1,0.1,0.2C36.5,37.4,36.4,37.2,36.5,37.1z"/>
	<path class="st1" d="M30.1,37.5C30.2,37.6,30.2,37.6,30.1,37.5z"/>
	<path class="st1" d="M27.9,38.3c0.1-0.1,0.2-0.3,0.4-0.2c0,0,0,0.1,0,0.2c0,0,0.1-0.1,0.2-0.1c0,0.3,0,0.6,0.2,0.9
		c0.1-0.1,0.1-0.2,0.2-0.3c-0.1-0.1-0.1-0.3-0.1-0.5c0.1,0.1,0.2,0.2,0.1,0.4c0.1,0,0.2,0,0.2,0c0,0.1,0,0.3,0,0.4
		c0-0.1,0.1-0.2,0.1-0.2c0.2,0.2,0.4,0.4,0.5,0.6c0.1,0,0.2,0,0.3,0.1c0,0.1-0.1,0.1-0.1,0.2c0.1,0.1,0.1,0.2,0.2,0.2
		c-0.2,0.2-0.4,0.4-0.5,0.7l0.1-0.1c0,0,0,0.1,0,0.2c0.1-0.1,0.5-0.2,0.5,0c0,0.1,0,0.2-0.1,0.3c-0.2,0-0.4-0.2-0.6-0.3
		c-0.2,0.1-0.4,0.1-0.7,0.1c-0.2-0.1-0.4-0.2-0.6-0.2c-0.1-0.1-0.1-0.3-0.3-0.4c0-0.1,0-0.2,0-0.3c0.2-0.2,0.1-0.6,0.3-0.8
		c-0.1-0.2-0.2-0.4-0.4-0.6c0.1,0,0.2-0.1,0.2-0.1c-0.1,0-0.2-0.1-0.2-0.2C28,38.3,27.9,38.3,27.9,38.3z"/>
	<path class="st1" d="M40.9,38.5C41.2,38.5,40.8,38.8,40.9,38.5z"/>
	<path class="st1" d="M32.9,38.9c0.1-0.1,0.3,0.1,0.1,0.2C32.9,39.2,32.8,39,32.9,38.9z"/>
	<path class="st1" d="M31.2,39.9c0.1-0.1,0.2-0.1,0.2,0C31.3,40,31.2,40,31.2,39.9z"/>
	<path class="st1" d="M62.5,40.1c0.1,0,0.1-0.1,0.2-0.1c0,0,0,0.1,0.1,0.2c0,0.1-0.1,0.2-0.2,0.2c0-0.1,0.1-0.2,0.1-0.3L62.5,40.1z"
		/>
	<path class="st1" d="M36,43c0.1-0.1,0.2-0.3,0.4-0.2C36.3,42.9,36.2,43,36,43z"/>
	<path class="st1" d="M35.5,46.6c0-0.1,0.1-0.4,0.3-0.4C35.8,46.4,35.6,46.6,35.5,46.6z"/>
	<path class="st1" d="M35.4,46.9c0,0,0-0.1,0.1-0.2c0,0.2-0.1,0.4-0.2,0.5c0,0.1,0.1,0.3,0.1,0.4c0,0-0.1,0.1-0.1,0.2
		c-0.2,0-0.4,0-0.6-0.1c0.1-0.2,0.2-0.4,0.2-0.7c0.1-0.1,0.2-0.1,0.3-0.2C35.3,46.9,35.4,46.9,35.4,46.9z"/>
</g>
</svg>
