<?xml version="1.0" encoding="utf-8"?>
<!-- Generator: Adobe Illustrator 19.0.0, SVG Export Plug-In . SVG Version: 6.00 Build 0)  -->
<svg version="1.1" id="Layer_1" xmlns="http://www.w3.org/2000/svg" xmlns:xlink="http://www.w3.org/1999/xlink" x="0px" y="0px"
	 viewBox="-169.7 343.6 147.3 151.2" style="enable-background:new -169.7 343.6 147.3 151.2;" xml:space="preserve">
<g id="_x23_172f59ff">
</g>
<g id="_x23_fefefdff">
	<path d="M-136.9,356.9c11.5-7.8,25.1-11.9,38.8-13.2c2-0.1,4.1-0.1,6.1,0c17.8,1.6,34.6,9.9,47.5,22.2
		c-13.8,35.7-27.1,71.7-41.1,107.3c-5,2.6-10.9,2.3-16.3,1.7c-2-0.4-4.6-0.7-5.4-2.9c-10.8-29.4-21.2-59.1-32.1-88.5
		c5.3-5,10.8-10,17.4-13.2c0.7,3.8,2.2,7.4,3.4,11.1C-111,404.3-103,427-95.7,450c1.3-2.8,2.4-5.6,3.4-8.5
		c9.5-25.6,18.7-51.2,28-76.8c-15.4-9-34.6-11.2-51.5-5.4c-29.3,9.9-47.4,43.7-41,73.7c4.4,18.3,16.2,35.1,33,43.9
		c10.2,4.7,21.5,7.1,32.7,6.3c17.7-1.7,34.2-11.3,45.2-25.2c9-11,16.5-24.5,15.6-39.1c-0.6-6.5-0.9-13.5-4.9-19
		c-1.3-2.4-4.7-2.2-6.6-0.7c-5.4,3.7-8.5,9.8-12.7,14.6c4.7-14.5,11-28.4,15.6-42.9c11,14.5,17,32.8,16.5,51
		c-0.1,18.5-8.2,36.3-20.8,49.7c-10.1,11-23.8,18.3-38.2,21.6c-15.7,3.5-32.5,1.5-46.8-6c-18.7-9.4-32.8-27.1-38.4-47.1
		c-5.1-16.3-3.4-34.2,3.2-49.8C-157.8,377.1-149,364.9-136.9,356.9z"/>
</g>
</svg>
