<?xml version="1.0" encoding="utf-8"?>
<!-- Generator: Adobe Illustrator 19.0.0, SVG Export Plug-In . SVG Version: 6.00 Build 0)  -->
<svg version="1.1" id="Layer_1" xmlns="http://www.w3.org/2000/svg" xmlns:xlink="http://www.w3.org/1999/xlink" x="0px" y="0px"
	 viewBox="9.248 250.97 347.146 339.65" style="enable-background:new 9.248 250.97 347.146 339.65;" xml:space="preserve">
<style type="text/css">
	.st0{fill:#011520;}
	.st1{fill:#FFFFFF;}
	.st2{fill:#F7941E;}
	.st3{fill:url(#SVGID_1_);}
	.st4{fill:url(#SVGID_2_);}
	.st5{fill:#B3C8D1;}
	.st6{fill:#B4C8D1;}
	.st7{fill:#C67B1E;}
	.st8{fill:#1B739A;}
	.st9{fill:url(#SVGID_3_);}
	.st10{fill:#001320;}
	.st11{fill:#D3D7D8;}
	.st12{fill:#FBCE99;}
	.st13{fill:#C77B1E;}
	.st14{fill:url(#SVGID_4_);}
	.st15{fill:#155774;}
	.st16{fill:#155977;}
	.st17{fill:#145571;}
</style>
<g id="_x23_011520ff">
	<path class="st0" d="M133.41,288.46c5.04-9.65,13.26-17.08,20.96-24.59c-1.63,8.66,2.73,17.13,9.54,22.29
		c13.65-1.26,27.43-0.92,41.09,0.07c3.73-3.44,7.4-7.34,8.83-12.35c1.09-3.24,1.04-6.71,0.88-10.09
		c7.68,7.85,15.54,15.69,21.32,25.09c29.77,3.67,59.31,9.53,88.11,17.95c9.47,2.92,19.08,5.61,28.12,9.7
		c0.65,42.55-9.55,85.51-30.97,122.41c2.18,4.44,3.87,9.09,5.08,13.89c-7.58,24.33-14.5,48.87-22.06,73.2
		c-15.08-0.35-30.18,0.08-45.27-0.24c-5.53,0.3-11.14-0.49-16.6,0.67c3.58,0.9,7.24,1.61,10.66,3.06
		c-18.57,18.03-38.14,35.16-59.66,49.6c-3.32,2.23-6.67,4.43-10.24,6.23c-23.32-14.13-44.25-31.86-64-50.57
		c-1.85-1.78-3.75-3.52-5.41-5.48c3.48-1.12,7.05-1.92,10.55-2.98c-20.64-1.38-41.39,0.36-62.06-0.58
		c-7.24-24.33-14.48-48.66-21.81-72.95c1.97-3.79,4.18-7.44,6.57-10.97c-4.87-8.67-9.45-17.5-13.54-26.56
		c-13.04-31.17-19.54-65-19.04-98.77c5.07-2.26,10.36-4,15.62-5.75C63.65,299.78,98.42,292.85,133.41,288.46 M139.89,303.83
		c0.06,8.66,2.38,17.92,8.75,24.13c-1.58-8.21-4.55-16.47-2.98-24.94c3.01,6.61,4.89,13.68,7.9,20.29c1.02,2.01,2.99,4.43,5.54,3.82
		c3.73-1.38,5.83-5.46,6.01-9.27c-2.91-9.05-8.79-16.85-11.78-25.88c7.21,8.17,13.51,17.18,18.77,26.73c1,1.68,1.77,3.73,3.73,4.52
		c1.21-7.99-3.82-14.64-8.58-20.41c0.82,0.38,1.6,0.85,2.33,1.38c5.85,5.53,10.18,12.38,15.3,18.53c4.26-5.6,7.14-12.37,12.68-16.91
		c-1.41,5.47-3.73,10.65-5.21,16.1c7.28-7.26,13.05-15.93,20.46-23.07c-2.9,7.23-9.49,13.66-8.29,22.01
		c0.16,3.42,3.13,6.36,6.56,6.35c2.58-0.62,4.35-2.85,5.32-5.2c2.82-6.62,4.09-13.91,7.93-20.07c-1.02,8.29-2.3,16.56-3.04,24.88
		c6.5-6.44,8.46-16.14,7.77-24.98c-0.79-8.98-3.68-18.18-9.57-25.12c-1.74,3.92-3.75,7.74-6.39,11.13
		c-7.64,10.42-19.62,16.2-28.63,25.22c-7.23-7.75-16.42-13.29-23.99-20.68c-4.65-4.46-8.53-9.73-11.16-15.62
		C142.92,284.17,140.07,294.17,139.89,303.83 M85.09,313.85c4.33,16.03,9.01,31.98,13.64,47.93c1.98-0.41,3.93-0.94,5.85-1.57
		c-3.12-6.43-6.03-12.96-9.08-19.42c5.15,6.34,7.61,17.15,17.23,17.86c-6.39-10.25-12.05-21.05-15.58-32.65
		c5.27,6.17,9.1,13.35,13.71,19.99c1.6,2.18,3.34,4.7,6.17,5.28c3.93-0.88,6.11-4.69,8.73-7.4c-4.02-6.29-8.94-12.13-11.92-19.01
		c5.73,4.48,11.02,9.48,16.68,14.04C123.38,321.64,103.63,310.06,85.09,313.85 M254.16,320.03c-7.26,4.19-12.91,10.96-15.64,18.9
		c6.14-4.56,11.92-9.64,18.46-13.63c-4.47,6.55-9.49,12.71-13.97,19.25c2.89,2.56,5.57,7.01,9.91,6.56
		c3.36-1.68,5.16-5.18,7.31-8.08c3.91-5.45,7.47-11.17,11.8-16.31c-0.26,1.08-0.6,2.15-1.02,3.18c-4.72,9.69-9.53,19.35-13.99,29.16
		c5-3.35,8.64-8.29,13.06-12.32c-0.92,5.2-3.89,9.65-5.95,14.42c0.79,0.27,2.38,0.81,3.17,1.08c5.86-16.3,11.79-32.59,17.84-48.82
		C274.48,312.65,263.44,314.58,254.16,320.03 M78.61,334.43c-6.76,1.65-13.46,3.5-20.26,4.97c-6.48,1.52-12.93,3.13-19.46,4.46
		c4.21,0.74,8.52,0.36,12.72,1.18c0.15,6.08,0.49,12.21,1.82,18.15c0.03,1.32,0.12,2.63,0.28,3.94c4.68,0.78,9.48,0.22,13.84-1.62
		c4.31-1.17,8.66-2.19,13.06-2.94c2.03-0.25,4.07-0.45,6.1-0.63c3.34,0.01,6.68,0.09,10.01,0.41c-3.06-3.3-5.38-7.17-7.6-11.06
		l0.16-0.21c-0.69-1.52-1.38-3.03-2.07-4.55c-1.63-4.36-2.45-8.95-3.15-13.54C82.24,333.46,80.42,333.94,78.61,334.43
		 M284.95,333.56c-1.08,4.72-2.53,9.35-4.06,13.95c-0.85,1.86-1.7,3.73-2.52,5.6c-2.12,3.8-5.06,7.05-8.43,9.78
		c3.12-0.4,6.24-0.87,9.39-0.96c2.33,0.07,4.65,0.12,6.98,0.21c3.97,0.57,7.87,1.46,11.77,2.37c4.86,1.44,9.95,4.01,15.13,2.67
		c0.93-7.3,1.41-14.66,2.27-21.97c3.68-1.32,8.09-0.7,12.07-1c0.02-0.15,0.06-0.47,0.07-0.63c-6.65-0.8-13.03-2.95-19.6-4.22
		c-6.33-1.53-12.66-3.09-18.96-4.76C287.68,334.26,286.31,333.91,284.95,333.56 M138.51,341.3c-5.32,4.63-9.52,10.39-13.21,16.36
		c12.99-0.12,26.05,0.48,38.83,2.92c3.36,0.77,6.89,1.37,9.87,3.2c1.93,2.12,3,5.13,5.74,6.42c3.91,2.26,8.56-0.8,10.47-4.32
		c1.58-3.31,5.55-3.81,8.69-4.73c13.58-3.02,27.56-3.63,41.43-3.48c-5.15-9.11-12.28-17.62-22.2-21.68
		c5.19,5.06,10.68,9.88,15.03,15.72c-12.17-8.5-26.25-14.56-41.13-15.94c-20.9-2.33-41.94,4.71-58.94,16.66
		c4.46-6.81,10.63-12.25,16.81-17.45C145.91,336.71,141.92,338.59,138.51,341.3 M50.14,373.75c0.15,1.04,0.57,1.93,1.26,2.65
		c0.82,3.43,3.1,6.19,5.2,8.93c6.09,7.38,14.11,13.45,23.37,16.17c4.29,1.32,8.99,1.25,13.13-0.54c-6.68-3.09-13.7-5.44-20.69-7.71
		c0.19-0.34,0.58-1.03,0.77-1.38c1.33,1.01,3.17,0.78,4.74,1.05c5.75,0.33,11.49,0.79,17.2,1.5c2.22,0.7,2.02-2.19,2.62-3.47
		c-1.99-3.36-3.06-7.27-5.46-10.37c-9.7-1.54-19.7-0.53-29.31-2.73c9.03-0.59,18.06-1.16,27.1-1.7c-0.23-1.7-0.43-3.41-0.61-5.12
		c-1.24-0.43-2.47-0.9-3.69-1.38c3.24-0.24,5.77-1.98,7.33-4.79C78.76,367.73,64.5,371,50.14,373.75 M106,366.37
		c-3.46,1.14-8,3.23-7.94,7.49c-0.82,6.29,1.93,13.15,7.7,16.19c-2.27-3.22-4.47-6.64-5.09-10.6c-0.33-2.37-1.06-5.2,0.66-7.21
		c2.47-3.09,6.64-3.8,10.28-4.56c10.77-1.4,21.65-0.49,32.41,0.37C131.64,365.33,118.48,362.94,106,366.37 M221.95,367.97
		c11.01-0.72,22.17-1.83,33.15-0.11c3.86,0.83,8.71,1.94,10.29,6.06c0.78,5.9-1.98,11.45-5.23,16.16c5.67-3.2,8.39-9.94,7.55-16.27
		c0.22-3.98-4.04-5.99-7.18-7.21C247.92,362.81,234.52,365.3,221.95,367.97 M272.07,364.43c1.33,1.51,2.65,3.03,3.92,4.6
		c4.03,0.65,8.49-0.52,12.25,1.33c-3.87,0.95-7.82,1.5-11.73,2.19c-0.4,1.22-0.79,2.44-1.18,3.66c10.24,0.36,20.45,1.22,30.67,1.79
		c-1.56,0.91-3.24,1.69-5.06,1.85c-8.43,1.05-17.04,0.02-25.4,1.71c-3.76,1.61-6.92,6.37-4.73,10.37c1.95,3.22,6.06,2.56,9.19,2.04
		c3.94-0.75,8-0.43,11.91-1.24c1.44,0,2.97-0.07,4.28,0.67c-6.79,2.82-14.16,4.52-20.56,8.11c18.26,2.53,36.63-10.12,42.87-27.01
		l0.57-0.8C303.41,370.57,287.73,367.57,272.07,364.43 M176.5,372.25c-0.04,1.31-0.09,2.63-0.13,3.94c-0.22,0.35-0.67,1.05-0.89,1.4
		c2.1-1.19,3.6-3.07,4.46-5.31C178.79,372.26,177.64,372.25,176.5,372.25 M179.73,378.64c-4.82,1.79-6.75,7.03-8.42,11.44
		c-4.89,7.54-10.47,15.15-18.65,19.36c-4.81,2.7-10.46,2.91-15.83,3.12c-5.21,0.26-10.43-0.03-15.63-0.27
		c-3.62-1.11-7.42-1.86-10.61-4.01c-3.15-1.82-5.24-4.86-7.76-7.38c-0.11,2.53-0.29,5.07-0.1,7.6c0.34,15.63,5.26,30.98,13.61,44.15
		c5.33-0.05,10.71,0.4,16.01-0.17c10.6,0.53,21.24,0.06,31.85,0.26c2.95-0.05,5.9-0.04,8.85-0.04c8.13-0.04,16.26,0.11,24.38-0.1
		c8.79,0.2,17.61,0.22,26.4-0.01c3.9-1.67,7.64-5.66,7.68-9.97l0.17,0.62c0.41-1.4,0.81-2.8,1.23-4.2
		c1.35,4.86,0.26,10.13-3.35,13.74c5.16-0.08,10.32-0.1,15.48-0.06c1.59-0.04,3.34,0.18,4.71-0.84
		c7.83-12.61,12.44-27.13,12.97-41.98l0.22-0.24c-0.14-2.92-0.2-5.84-0.25-8.75c-2.34,2.89-4.76,5.87-8.05,7.71
		c-3.3,2.07-7.17,2.77-10.87,3.77c-4.69,0.22-9.42,0.15-14.1,0.37c-4.78-0.54-9.76-0.36-14.27-2.28
		c-7.23-2.97-12.87-8.74-17.32-15.02c-2.52-3.8-4.61-7.84-6.6-11.93C189.43,379.31,184.2,376.97,179.73,378.64 M159.02,389.58
		c-0.21,6.67-5.3,11.26-9.18,16.05c7.52-1.96,12.51-8.77,14.08-16.12C162.28,389.53,160.65,389.55,159.02,389.58 M201.84,389.61
		c1.69,7.31,6.66,14.12,14.21,16.06c-1.73-2.79-4.58-4.67-6.24-7.51c-1.84-2.58-2.61-5.68-3.29-8.72
		C204.95,389.49,203.39,389.55,201.84,389.61 M60.96,396.71c2.48,8.19,5.89,16.06,9.38,23.86c6.9-3.91,14.65-5.89,21.78-9.3
		C81.13,407.85,70.39,403.41,60.96,396.71 M282.47,409.53c-1.74,0.86-3.65,1.59-4.84,3.21c6.69,1.7,13.12,4.22,19.76,6.07
		c2.74-7.04,6.01-13.89,8.07-21.17C298.03,402.04,290.26,405.82,282.47,409.53 M78.03,422.9c-11.71,3.17-21.16,12.12-26.74,22.69
		c-0.45,1.03-0.9,2.05-1.34,3.09c7.62,1.62,15.08,4.75,23.02,4.03c10.09,0.51,20.08-1.32,29.97-3.07
		c-6.75-1.2-13.59-2.37-20.42-2.72c-5.46-1.55-11.44-0.5-16.74-2.32c8.51-1.33,17.16-1.49,25.71-2.41c3.15-0.74,7.79-2.09,7.44-6.17
		c0.01-2.65-0.39-6.9-3.9-6.97c-7.92-0.22-15.72,1.6-23.6,2.25c-0.03-0.18-0.09-0.52-0.13-0.7c5.92-2.08,11.67-4.59,17.55-6.76
		c1.42-0.6,3.05-1,4.08-2.23C87.94,421.32,82.84,421.41,78.03,422.9 M275.26,421.84c6.07,3.55,13.43,4.35,19.37,8.16
		c-6.29,0.68-12.46-1.16-18.72-1.24c-5.68,0.03-8.23,8.07-4.78,12.01c3.78,2.52,8.6,1.44,12.86,2.11c6,0.84,12.28,0.38,18.1,2.2
		c-5.21,0.77-10.52,0.72-15.66,1.99c-6.87,0.33-13.69,1.71-20.49,2.75c4.87,1.51,10.05,1.36,15.04,2.24
		c5.97,1.02,12.03,0.52,18.05,0.67c6.95,0.5,13.27-2.92,19.9-4.4c-0.46-0.98-0.93-1.96-1.39-2.93
		C309.63,430.43,292.77,418.47,275.26,421.84 M262.08,455.04c2.74,3.05,6.42,4.99,10.08,6.7c13.32,5.92,28.23,6.82,42.61,6.12
		c-0.91,3.31-1.8,6.63-2.43,10c3.25-5.39,5.15-11.47,7.73-17.19C301,467.33,280.12,462.7,262.08,455.04 M84.94,461.68
		c-12.41,3.03-25.6,3.1-37.81-0.87c2.73,5.61,4.8,11.51,7.63,17.06c-0.36-3.44-1.22-6.79-2.03-10.13c11.45,0.82,23.1,0.08,34.2-2.95
		c6.16-2,12.6-4.24,17.31-8.88C97.77,457.69,91.58,460.45,84.94,461.68 M158.6,474.01c0.08,10.23,0.11,20.46-0.02,30.68
		c3.31,0.33,6.64,0.34,9.96,0.05c-0.09-3.98-0.09-7.96-0.02-11.94c6.07-0.02,12.15-0.02,18.22,0.2c-0.04,3.99-0.04,7.98-0.01,11.98
		c3.19-0.01,6.39-0.01,9.59,0c0.04-10.4,0.04-20.8,0-31.2c-3.2-0.01-6.39-0.01-9.59-0.01c-0.03,3.65-0.03,7.29,0.01,10.94
		c-6.07,0.03-12.14-0.1-18.21,0.09c-0.09-3.63-0.07-7.26-0.01-10.88C165.22,473.69,161.89,473.65,158.6,474.01 M75.29,476.16
		c-4.13,2.79-4.83,9.31-1.56,13.01c1.84,1.93,4.5,2.97,7.14,3.14c7.05,0.39,14.14-0.24,21.18,0.27c2.51,0.72,1.42,4.48-1,4.07
		c-8.06,0.16-16.12-0.02-24.18,0.06c-2.09,2.67-4.27,5.29-6.12,8.14c6.1,0.18,12.2-0.16,18.3,0.1c6.38-0.42,13.21,0.99,19.21-1.79
		c3.17-1.46,4.4-4.95,4.74-8.18c-3.38-1.35-5.06-4.58-5.47-8.04c-8.11-1.69-16.48-0.2-24.69-0.89c-1.36-0.21-2.09-1.67-1.51-2.9
		c0.61-1.41,2.48-0.97,3.68-1.15c9.08-0.03,18.15,0.06,27.23-0.04c0.18,2.37,0.22,4.97,1.8,6.92c1.96,2.28,5.04,3.35,7.98,3.46
		c6.83,0.32,13.68-0.26,20.5,0.25c2.24,0.29,1.85,4.44-0.53,4.02c-7.95,0.31-15.91-0.11-23.85,0.19c-0.85,2.88-2.25,5.56-3.92,8.05
		c9.28-0.02,18.56,0.29,27.84-0.07c3.55-0.21,7.51-1.09,9.75-4.11c1.93-2.95,2.36-7.03,0.69-10.19c-1.71-2.97-5.3-4.12-8.53-4.25
		c-6.7-0.24-13.41,0.17-20.1-0.15c-2.22,0.21-3.08-3.44-0.71-3.88c7.61-0.46,15.25,0.15,22.86-0.25c2.75-2.23,4.5-5.42,6.65-8.18
		c-21.89-0.14-43.78,0.08-65.67-0.01C83.03,473.88,78.69,473.78,75.29,476.16 M202.21,473.76c-0.08,10.35,0.02,20.69-0.05,31.04
		c3.24,0.02,6.49,0,9.74,0.02c-0.02-10.29-0.01-20.58-0.01-30.87C208.66,474.01,205.43,473.98,202.21,473.76 M217.73,477.88
		c-0.18,9.03-0.03,18.06-0.06,27.09c2.96-0.11,5.92-0.15,8.89-0.2c-0.11-5.96-0.04-11.91-0.07-17.87
		c6.26,5.57,12.46,11.2,18.7,16.79c1.99,2.16,5.73,2.43,7.78,0.2c1.59-1.57,1.49-3.93,1.56-5.99c0.02-7.98-0.08-15.96,0.05-23.94
		c-3.01-0.24-6.02-0.22-9.03-0.18c-0.09,6,0.04,12-0.07,18.01c-6.37-5.77-12.73-11.55-19.17-17.23
		C223.41,471.8,217.77,473.69,217.73,477.88 M259.86,477.93c0.18,8.92-0.23,17.85,0.2,26.75c5.29,0.78,10.66-0.03,15.98,0.18
		c4.63,0.22,9.25,0.01,13.87-0.06c1.95-2.67,4.2-5.13,5.96-7.94c-8.73-0.38-17.49-0.05-26.23-0.15c0-1.35,0.01-2.7,0.03-4.04
		c6.36-0.01,12.72,0.03,19.08-0.02c1.83-2.33,3.68-4.64,5.46-7.01c-8.21-0.25-16.42,0.04-24.63-0.15c0.03-0.87,0.08-2.63,0.1-3.5
		c6.69-0.17,13.46,0.4,20.11-0.26c2.25-2.45,4.13-5.22,6.12-7.89c-11.3-0.13-22.6-0.05-33.9-0.05
		C259.28,473.14,259.98,476.28,259.86,477.93 M154.49,525.95c4.05,4.19,8.93,7.45,13.51,11.02c4.95,3.59,9.73,7.49,14.99,10.61
		c1.7-0.05,2.99-1.46,4.39-2.27c8.49-6.18,17.17-12.18,24.92-19.28C193.04,525.58,173.76,525.77,154.49,525.95 M230.36,540.32
		c-15.83,10.1-31.55,20.38-47.41,30.43c-15.82-10.11-31.67-20.18-47.47-30.31c-3.08-1.96-5.96-4.33-9.47-5.5
		c5.03,4.3,10.3,8.32,15.45,12.47c13.67,10.69,27.13,21.75,41.59,31.36c4.58-1.91,8.23-5.72,12.46-8.37
		c15.48-11.65,31.62-22.7,45.33-36.47C237.01,535.48,233.85,538.18,230.36,540.32z"/>
</g>
<g id="_x23_ffffffff">
	<path class="st1" d="M129.5,284.25c8.42-12.61,20-22.6,30.81-33.1c-0.51,5.96-2.14,11.8-2.08,17.8c-0.02,4.93,3.09,9.13,6.51,12.38
		c12.62-0.88,25.27-0.74,37.89,0.14c3.61-3.29,6.72-7.61,6.86-12.67c0.17-5.99-1.1-11.89-1.72-17.83
		c10.52,10.82,22.04,20.94,30.36,33.66c33.66,4.05,66.96,11.23,99.24,21.63c6.41,2.18,12.89,4.29,19.02,7.21
		c0.06,18.03-0.73,36.15-4.25,53.87c-4.89,25.63-14.16,50.29-25.79,73.58c1.34,3.74,3.18,7.3,4.27,11.12
		c-7.7,26.21-15.51,52.42-23.46,78.57c-16.43-0.16-32.87,0.02-49.3-0.09c-16.21,16.31-33.55,31.51-52.05,45.17
		c-7.41,5.34-14.93,10.56-22.96,14.93c-10.33-5.51-19.81-12.45-29.15-19.49c-15.87-12.28-31.02-25.53-45.16-39.78
		c-1.14-1.31-3.07-0.65-4.56-0.83c-15.22,0.08-30.45-0.02-45.67,0.05c-7.86-26.21-15.62-52.45-23.53-78.64
		c2.26-3.23,4.7-6.35,6.71-9.75C18.61,403.47,8.14,357.99,9.34,313.19C47.8,298.02,88.61,289.53,129.5,284.25 M133.41,288.46
		c-34.99,4.39-69.76,11.32-103.33,22.28c-5.26,1.75-10.55,3.49-15.62,5.75c-0.5,33.77,6,67.6,19.04,98.77
		c4.09,9.06,8.67,17.89,13.54,26.56c-2.39,3.53-4.6,7.18-6.57,10.97c7.33,24.29,14.57,48.62,21.81,72.95
		c20.67,0.94,41.42-0.8,62.06,0.58c-3.5,1.06-7.07,1.86-10.55,2.98c1.66,1.96,3.56,3.7,5.41,5.48c19.75,18.71,40.68,36.44,64,50.57
		c3.57-1.8,6.92-4,10.24-6.23c21.52-14.44,41.09-31.57,59.66-49.6c-3.42-1.45-7.08-2.16-10.66-3.06c5.46-1.16,11.07-0.37,16.6-0.67
		c15.09,0.32,30.19-0.11,45.27,0.24c7.56-24.33,14.48-48.87,22.06-73.2c-1.21-4.8-2.9-9.45-5.08-13.89
		c21.42-36.9,31.62-79.86,30.97-122.41c-9.04-4.09-18.65-6.78-28.12-9.7c-28.8-8.42-58.34-14.28-88.11-17.95
		c-5.78-9.4-13.64-17.24-21.32-25.09c0.16,3.38,0.21,6.85-0.88,10.09c-1.43,5.01-5.1,8.91-8.83,12.35
		c-13.66-0.99-27.44-1.33-41.09-0.07c-6.81-5.16-11.17-13.63-9.54-22.29C146.67,271.38,138.45,278.81,133.41,288.46z"/>
	<path class="st1" d="M106,366.37c12.48-3.43,25.64-1.04,38.02,1.68c-10.76-0.86-21.64-1.77-32.41-0.37
		c-3.64,0.76-7.81,1.47-10.28,4.56c-1.72,2.01-0.99,4.84-0.66,7.21c0.62,3.96,2.82,7.38,5.09,10.6c-5.77-3.04-8.52-9.9-7.7-16.19
		C98,369.6,102.54,367.51,106,366.37z"/>
	<path class="st1" d="M221.95,367.97c12.57-2.67,25.97-5.16,38.58-1.37c3.14,1.22,7.4,3.23,7.18,7.21
		c0.84,6.33-1.88,13.07-7.55,16.27c3.25-4.71,6.01-10.26,5.23-16.16c-1.58-4.12-6.43-5.23-10.29-6.06
		C244.12,366.14,232.96,367.25,221.95,367.97z"/>
	<path class="st1" d="M176.5,372.25c1.14,0,2.29,0.01,3.44,0.03c-0.86,2.24-2.36,4.12-4.46,5.31c0.22-0.35,0.67-1.05,0.89-1.4
		C176.41,374.88,176.46,373.56,176.5,372.25z"/>
	<path class="st1" d="M159.02,389.58c1.63-0.03,3.26-0.05,4.9-0.07c-1.57,7.35-6.56,14.16-14.08,16.12
		C153.72,400.84,158.81,396.25,159.02,389.58z"/>
	<path class="st1" d="M201.84,389.61c1.55-0.06,3.11-0.12,4.68-0.17c0.68,3.04,1.45,6.14,3.29,8.72c1.66,2.84,4.51,4.72,6.24,7.51
		C208.5,403.73,203.53,396.92,201.84,389.61z"/>
	<path class="st1" d="M188.66,428.47c4.09-1.43,8.33-2.47,12.42-3.95c0.39,0.6,1.18,1.81,1.57,2.41c1.69-3.92,6.12-2.33,9.39-2.41
		c0.35,0.61,1.06,1.84,1.42,2.46c-2.65,1.47-5.12,3.23-7.4,5.22c-1.53-1.19-3.08-2.35-4.66-3.46c-0.87,2.18-1.74,4.36-2.56,6.56
		c-3.12-0.7-6.2-1.58-9.38-2c-0.47-0.06-1.42-0.17-1.9-0.22c0.06,0.55,0.17,1.66,0.22,2.21c-4.27-1.11-9.62-0.01-12.9-3.6
		c3.82-1.03,7.62-2.11,11.39-3.29c0.17,0.59,0.5,1.77,0.67,2.36C187.37,430.19,188.23,429.05,188.66,428.47z"/>
	<path class="st1" d="M196.43,441.43c5.33,0.98,8.15-6.13,13.46-5.32c3.2,0.61,6.03,2.35,8.96,3.7c0.19-1.42,0.38-2.84,0.59-4.26
		c1.18,5.03-0.83,11.32-6.35,12.63c-2.59,0.95-4.11-1.55-5.56-3.18c-1.1,1.95-3.31,3.18-5.49,2.12
		c-6.57-2.81-13.35-5.68-18.75-10.46c2.38-0.19,4.86-0.42,7.09,0.64C190.82,440.15,194.12,440.78,196.43,441.43z"/>
	<path class="st1" d="M158.6,474.01c3.29-0.36,6.62-0.32,9.92-0.09c-0.06,3.62-0.08,7.25,0.01,10.88
		c6.07-0.19,12.14-0.06,18.21-0.09c-0.04-3.65-0.04-7.29-0.01-10.94c3.2,0,6.39,0,9.59,0.01c0.04,10.4,0.04,20.8,0,31.2
		c-3.2-0.01-6.4-0.01-9.59,0c-0.03-4-0.03-7.99,0.01-11.98c-6.07-0.22-12.15-0.22-18.22-0.2c-0.07,3.98-0.07,7.96,0.02,11.94
		c-3.32,0.29-6.65,0.28-9.96-0.05C158.71,494.47,158.68,484.24,158.6,474.01z"/>
	<path class="st1" d="M202.21,473.76c3.22,0.22,6.45,0.25,9.68,0.19c0,10.29-0.01,20.58,0.01,30.87c-3.25-0.02-6.5,0-9.74-0.02
		C202.23,494.45,202.13,484.11,202.21,473.76z"/>
	<path class="st1" d="M217.73,477.88c0.04-4.19,5.68-6.08,8.58-3.32c6.44,5.68,12.8,11.46,19.17,17.23
		c0.11-6.01-0.02-12.01,0.07-18.01c3.01-0.04,6.02-0.06,9.03,0.18c-0.13,7.98-0.03,15.96-0.05,23.94c-0.07,2.06,0.03,4.42-1.56,5.99
		c-2.05,2.23-5.79,1.96-7.78-0.2c-6.24-5.59-12.44-11.22-18.7-16.79c0.03,5.96-0.04,11.91,0.07,17.87c-2.97,0.05-5.93,0.09-8.89,0.2
		C217.7,495.94,217.55,486.91,217.73,477.88z"/>
	<path class="st1" d="M259.86,477.93c0.12-1.65-0.58-4.79,2.15-4.14c11.3,0,22.6-0.08,33.9,0.05c-1.99,2.67-3.87,5.44-6.12,7.89
		c-6.65,0.66-13.42,0.09-20.11,0.26c-0.02,0.87-0.07,2.63-0.1,3.5c8.21,0.19,16.42-0.1,24.63,0.15c-1.78,2.37-3.63,4.68-5.46,7.01
		c-6.36,0.05-12.72,0.01-19.08,0.02c-0.02,1.34-0.03,2.69-0.03,4.04c8.74,0.1,17.5-0.23,26.23,0.15c-1.76,2.81-4.01,5.27-5.96,7.94
		c-4.62,0.07-9.24,0.28-13.87,0.06c-5.32-0.21-10.69,0.6-15.98-0.18C259.63,495.78,260.04,486.85,259.86,477.93z"/>
</g>
<g id="_x23_f7941eff">
	<path class="st2" d="M139.89,303.83c0.18-9.66,3.03-19.66,9.43-27.06c2.63,5.89,6.51,11.16,11.16,15.62
		c7.57,7.39,16.76,12.93,23.99,20.68c9.01-9.02,20.99-14.8,28.63-25.22c2.64-3.39,4.65-7.21,6.39-11.13
		c5.89,6.94,8.78,16.14,9.57,25.12c0.69,8.84-1.27,18.54-7.77,24.98c0.74-8.32,2.02-16.59,3.04-24.88
		c-3.84,6.16-5.11,13.45-7.93,20.07c-0.97,2.35-2.74,4.58-5.32,5.2c-3.43,0.01-6.4-2.93-6.56-6.35c-1.2-8.35,5.39-14.78,8.29-22.01
		c-7.41,7.14-13.18,15.81-20.46,23.07c1.48-5.45,3.8-10.63,5.21-16.1c-5.54,4.54-8.42,11.31-12.68,16.91
		c-5.12-6.15-9.45-13-15.3-18.53c-0.73-0.53-1.51-1-2.33-1.38c4.76,5.77,9.79,12.42,8.58,20.41c-1.96-0.79-2.73-2.84-3.73-4.52
		c-5.26-9.55-11.56-18.56-18.77-26.73c2.99,9.03,8.87,16.83,11.78,25.88c-0.18,3.81-2.28,7.89-6.01,9.27
		c-2.55,0.61-4.52-1.81-5.54-3.82c-3.01-6.61-4.89-13.68-7.9-20.29c-1.57,8.47,1.4,16.73,2.98,24.94
		C142.27,321.75,139.95,312.49,139.89,303.83z"/>
	<path class="st2" d="M85.09,313.85c18.54-3.79,38.29,7.79,45.43,25.05c-5.66-4.56-10.95-9.56-16.68-14.04
		c2.98,6.88,7.9,12.72,11.92,19.01c-2.62,2.71-4.8,6.52-8.73,7.4c-2.83-0.58-4.57-3.1-6.17-5.28c-4.61-6.64-8.44-13.82-13.71-19.99
		c3.53,11.6,9.19,22.4,15.58,32.65c-9.62-0.71-12.08-11.52-17.23-17.86c3.05,6.46,5.96,12.99,9.08,19.42
		c-1.92,0.63-3.87,1.16-5.85,1.57C94.1,345.83,89.42,329.88,85.09,313.85z"/>
	<path class="st2" d="M254.16,320.03c9.28-5.45,20.32-7.38,30.98-6.61c-6.05,16.23-11.98,32.52-17.84,48.82
		c-0.79-0.27-2.38-0.81-3.17-1.08c2.06-4.77,5.03-9.22,5.95-14.42c-4.42,4.03-8.06,8.97-13.06,12.32
		c4.46-9.81,9.27-19.47,13.99-29.16c0.42-1.03,0.76-2.1,1.02-3.18c-4.33,5.14-7.89,10.86-11.8,16.31c-2.15,2.9-3.95,6.4-7.31,8.08
		c-4.34,0.45-7.02-4-9.91-6.56c4.48-6.54,9.5-12.7,13.97-19.25c-6.54,3.99-12.32,9.07-18.46,13.63
		C241.25,330.99,246.9,324.22,254.16,320.03z"/>
	<path class="st2" d="M138.51,341.3c3.41-2.71,7.4-4.59,11.39-6.32c-6.18,5.2-12.35,10.64-16.81,17.45
		c17-11.95,38.04-18.99,58.94-16.66c14.88,1.38,28.96,7.44,41.13,15.94c-4.35-5.84-9.84-10.66-15.03-15.72
		c9.92,4.06,17.05,12.57,22.2,21.68c-13.87-0.15-27.85,0.46-41.43,3.48c-3.14,0.92-7.11,1.42-8.69,4.73
		c-1.91,3.52-6.56,6.58-10.47,4.32c-2.74-1.29-3.81-4.3-5.74-6.42c-2.98-1.83-6.51-2.43-9.87-3.2c-12.78-2.44-25.84-3.04-38.83-2.92
		C128.99,351.69,133.19,345.93,138.51,341.3z"/>
	<path class="st2" d="M50.14,373.75c14.36-2.75,28.62-6.02,42.96-8.89c-1.56,2.81-4.09,4.55-7.33,4.79
		c1.22,0.48,2.45,0.95,3.69,1.38c0.18,1.71,0.38,3.42,0.61,5.12c-9.04,0.54-18.07,1.11-27.1,1.7c9.61,2.2,19.61,1.19,29.31,2.73
		c2.4,3.1,3.47,7.01,5.46,10.37c-0.6,1.28-0.4,4.17-2.62,3.47c-5.71-0.71-11.45-1.17-17.2-1.5c-1.57-0.27-3.41-0.04-4.74-1.05
		c-4.4-3.42-9.54-5.77-13.73-9.47c-2.51-2.22-5.17-4.28-8.05-6C50.71,375.68,50.29,374.79,50.14,373.75z"/>
	<path class="st2" d="M272.07,364.43c15.66,3.14,31.34,6.14,47,9.27l-0.57,0.8c-8.2,6.92-16.34,14.47-26.59,18.23
		c-3.91,0.81-7.97,0.49-11.91,1.24c-3.13,0.52-7.24,1.18-9.19-2.04c-2.19-4,0.97-8.76,4.73-10.37c8.36-1.69,16.97-0.66,25.4-1.71
		c1.82-0.16,3.5-0.94,5.06-1.85c-10.22-0.57-20.43-1.43-30.67-1.79c0.39-1.22,0.78-2.44,1.18-3.66c3.91-0.69,7.86-1.24,11.73-2.19
		c-3.76-1.85-8.22-0.68-12.25-1.33C274.72,367.46,273.4,365.94,272.07,364.43z"/>
	<path class="st2" d="M78.03,422.9c4.81-1.49,9.91-1.58,14.9-1.29c-1.03,1.23-2.66,1.63-4.08,2.23c-5.88,2.17-11.63,4.68-17.55,6.76
		c0.04,0.18,0.1,0.52,0.13,0.7c7.88-0.65,15.68-2.47,23.6-2.25c3.51,0.07,3.91,4.32,3.9,6.97c0.35,4.08-4.29,5.43-7.44,6.17
		c-8.55,0.92-17.2,1.08-25.71,2.41c5.3,1.82,11.28,0.77,16.74,2.32c-10.33,2.86-20.94,0.21-31.23-1.33
		C56.87,435.02,66.32,426.07,78.03,422.9z"/>
	<path class="st2" d="M275.26,421.84c17.51-3.37,34.37,8.59,42.28,23.56c-10.19,2.03-20.79,4.14-31.11,1.67
		c5.14-1.27,10.45-1.22,15.66-1.99c-5.82-1.82-12.1-1.36-18.1-2.2c-4.26-0.67-9.08,0.41-12.86-2.11c-3.45-3.94-0.9-11.98,4.78-12.01
		c6.26,0.08,12.43,1.92,18.72,1.24C288.69,426.19,281.33,425.39,275.26,421.84z"/>
	<path class="st2" d="M75.29,476.16c3.4-2.38,7.74-2.28,11.71-2.4c21.89,0.09,43.78-0.13,65.67,0.01c-2.15,2.76-3.9,5.95-6.65,8.18
		c-7.61,0.4-15.25-0.21-22.86,0.25c-2.37,0.44-1.51,4.09,0.71,3.88c6.69,0.32,13.4-0.09,20.1,0.15c3.23,0.13,6.82,1.28,8.53,4.25
		c1.67,3.16,1.24,7.24-0.69,10.19c-2.24,3.02-6.2,3.9-9.75,4.11c-9.28,0.36-18.56,0.05-27.84,0.07c1.67-2.49,3.07-5.17,3.92-8.05
		c7.94-0.3,15.9,0.12,23.85-0.19c2.38,0.42,2.77-3.73,0.53-4.02c-6.82-0.51-13.67,0.07-20.5-0.25c-2.94-0.11-6.02-1.18-7.98-3.46
		c-1.58-1.95-1.62-4.55-1.8-6.92c-9.08,0.1-18.15,0.01-27.23,0.04c-1.2,0.18-3.07-0.26-3.68,1.15c-0.58,1.23,0.15,2.69,1.51,2.9
		c8.21,0.69,16.58-0.8,24.69,0.89c0.41,3.46,2.09,6.69,5.47,8.04c-0.34,3.23-1.57,6.72-4.74,8.18c-6,2.78-12.83,1.37-19.21,1.79
		c-6.1-0.26-12.2,0.08-18.3-0.1c1.85-2.85,4.03-5.47,6.12-8.14c8.06-0.08,16.12,0.1,24.18-0.06c2.42,0.41,3.51-3.35,1-4.07
		c-7.04-0.51-14.13,0.12-21.18-0.27c-2.64-0.17-5.3-1.21-7.14-3.14C70.46,485.47,71.16,478.95,75.29,476.16z"/>
</g>
<linearGradient id="SVGID_1_" gradientUnits="userSpaceOnUse" x1="43.7041" y1="335.5218" x2="87.398" y2="360.7484">
	<stop  offset="0" style="stop-color:#0788B6"/>
	<stop  offset="0.5914" style="stop-color:#62C9D0"/>
</linearGradient>
<path class="st3" d="M89.28,351.08c-0.69-1.52-1.38-3.03-2.07-4.55c-1.63-4.36-2.45-8.95-3.15-13.54c-1.82,0.47-3.64,0.95-5.45,1.44
	c-6.76,1.65-13.46,3.5-20.26,4.97c-6.48,1.52-12.93,3.13-19.46,4.46c4.21,0.74,8.52,0.36,12.72,1.18
	c0.15,6.08,0.49,12.21,1.82,18.15c0.03,1.32,0.12,2.63,0.28,3.94c4.68,0.78,9.48,0.22,13.84-1.62c4.31-1.17,8.66-2.19,13.06-2.94
	c2.03-0.25,4.07-0.45,6.1-0.63c-0.39-1.35-0.82-2.7-1.06-4.08c0.15-2.58,2.1-4.54,3.47-6.57L89.28,351.08z"/>
<linearGradient id="SVGID_2_" gradientUnits="userSpaceOnUse" x1="278.37" y1="350.5576" x2="327.62" y2="350.5576">
	<stop  offset="0.4086" style="stop-color:#62C9D0"/>
	<stop  offset="1" style="stop-color:#0788B6"/>
</linearGradient>
<path class="st4" d="M308.02,339.36c-6.33-1.53-12.66-3.09-18.96-4.76c-1.38-0.34-2.75-0.69-4.11-1.04
	c-1.08,4.72-2.53,9.35-4.06,13.95c-0.85,1.86-1.7,3.73-2.52,5.6c0.86,1.54,2.35,2.95,2.37,4.84c-0.22,1.4-0.9,2.67-1.41,3.98
	c2.33,0.07,4.65,0.12,6.98,0.21c3.97,0.57,7.87,1.46,11.77,2.37c4.86,1.44,9.95,4.01,15.13,2.67c0.93-7.3,1.41-14.66,2.27-21.97
	c3.68-1.32,8.09-0.7,12.07-1c0.02-0.15,0.06-0.47,0.07-0.63C320.97,342.78,314.59,340.63,308.02,339.36z"/>
<g id="_x23_b3c8d1ff">
	<path class="st5" d="M85.65,357.86c0.15-2.58,2.1-4.54,3.47-6.57c2.22,3.89,4.54,7.76,7.6,11.06c-3.33-0.32-6.67-0.4-10.01-0.41
		C86.32,360.59,85.89,359.24,85.65,357.86z"/>
</g>
<g id="_x23_b4c8d1ff">
	<path class="st6" d="M278.37,353.11c0.86,1.54,2.35,2.95,2.37,4.84c-0.22,1.4-0.9,2.67-1.41,3.98c-3.15,0.09-6.27,0.56-9.39,0.96
		C273.31,360.16,276.25,356.91,278.37,353.11z"/>
</g>
<g id="_x23_c67b1eff">
	<path class="st7" d="M291.91,392.73c10.25-3.76,18.39-11.31,26.59-18.23c-6.24,16.89-24.61,29.54-42.87,27.01
		c6.4-3.59,13.77-5.29,20.56-8.11C294.88,392.66,293.35,392.73,291.91,392.73z"/>
	<path class="st7" d="M51.4,376.4c2.88,1.72,5.54,3.78,8.05,6c4.19,3.7,9.33,6.05,13.73,9.47c-0.19,0.35-0.58,1.04-0.77,1.38
		c6.99,2.27,14.01,4.62,20.69,7.71c-4.14,1.79-8.84,1.86-13.13,0.54c-9.26-2.72-17.28-8.79-23.37-16.17
		C54.5,382.59,52.22,379.83,51.4,376.4z"/>
	<path class="st7" d="M286.43,447.07c10.32,2.47,20.92,0.36,31.11-1.67c0.46,0.97,0.93,1.95,1.39,2.93
		c-6.63,1.48-12.95,4.9-19.9,4.4c-6.02-0.15-12.08,0.35-18.05-0.67c-4.99-0.88-10.17-0.73-15.04-2.24
		C272.74,448.78,279.56,447.4,286.43,447.07z"/>
</g>
<g id="_x23_1b739aff">
	<path class="st8" d="M60.96,396.71c9.43,6.7,20.17,11.14,31.16,14.56c-7.13,3.41-14.88,5.39-21.78,9.3
		C66.85,412.77,63.44,404.9,60.96,396.71z"/>
	<path class="st8" d="M282.47,409.53c7.79-3.71,15.56-7.49,22.99-11.89c-2.06,7.28-5.33,14.13-8.07,21.17
		c-6.64-1.85-13.07-4.37-19.76-6.07C278.82,411.12,280.73,410.39,282.47,409.53z"/>
</g>
<radialGradient id="SVGID_3_" cx="182.7934" cy="398.6937" r="58.5136" gradientUnits="userSpaceOnUse">
	<stop  offset="0" style="stop-color:#CE8636"/>
	<stop  offset="0.5" style="stop-color:#CBA33E"/>
	<stop  offset="1" style="stop-color:#CD7D33"/>
</radialGradient>
<path class="st9" d="M262.69,400.91c-2.34,2.89-4.76,5.87-8.05,7.71c-3.3,2.07-7.17,2.77-10.87,3.77c-4.69,0.22-9.42,0.15-14.1,0.37
	c-4.78-0.54-9.76-0.36-14.27-2.28c-7.23-2.97-12.87-8.74-17.32-15.02c-2.52-3.8-4.61-7.84-6.6-11.93
	c-2.05-4.22-7.28-6.56-11.75-4.89c-4.82,1.79-6.75,7.03-8.42,11.44c-4.89,7.54-10.47,15.15-18.65,19.36
	c-4.81,2.7-10.46,2.91-15.83,3.12c-5.21,0.26-10.43-0.03-15.63-0.27c-3.62-1.11-7.42-1.86-10.61-4.01
	c-3.15-1.82-5.24-4.86-7.76-7.38c-0.11,2.53-0.29,5.07-0.1,7.6c2.72,6.39,9.84,8.64,16.1,9.84c6.5,1.18,13.11,0.73,19.68,0.86
	c0.7,0.02,2.1,0.06,2.81,0.09c4.83-0.51,9.57-1.76,14.12-3.44c1.48-0.87,2.92-1.79,4.35-2.73c4.86-3.67,8.12-8.91,10.93-14.2
	c0.43-0.82,0.86-1.63,1.3-2.43c2.45-3.92,5.69-9.09,11.01-8.56c5.77-0.18,8.88,5.54,11.41,9.84l0.32,0.57
	c2.33,4.08,4.58,8.25,7.63,11.85c3.98,3.39,8.58,5.97,13.48,7.76c2.96,0.54,5.95,0.94,8.95,1.3c0.99-0.02,2.97-0.06,3.96-0.07
	c6.15-0.05,12.35,0.21,18.43-0.94c5.98-0.8,11.78-3.47,15.51-8.34l0.22-0.24C262.8,406.74,262.74,403.82,262.69,400.91z"/>
<g id="_x23_001320ff">
	<path class="st10" d="M173.15,429.36c9.74-2.66,19.17-6.44,29.03-8.66c6.07-0.98,12.81-1.38,18.23,2.09
		c5.8,3.98,9.31,10.86,8.47,17.94c-3.49,8.67-14.05,10.54-22.35,10.19c-5.49-0.63-10.81-2.31-15.76-4.73
		c-2.22-1.11-4.38-2.33-6.47-3.65c-2.76-1.74-5.44-3.6-8.19-5.35c-5.72-3.79-12.73-4.85-19.47-4.74c-3.74,0.06-7.43,0.71-11.15,1.03
		c2.29-2.92,5.97-4.16,9.5-4.75C161.06,427.76,167.1,430.82,173.15,429.36 M188.66,428.47c-0.43,0.58-1.29,1.72-1.72,2.29
		c-0.17-0.59-0.5-1.77-0.67-2.36c-3.77,1.18-7.57,2.26-11.39,3.29c3.28,3.59,8.63,2.49,12.9,3.6c-0.05-0.55-0.16-1.66-0.22-2.21
		c0.48,0.05,1.43,0.16,1.9,0.22c2.65,1.85,5.08,4.97,8.59,4.85c3.25-0.79,3.23-4.89,4.16-7.41c1.06,0.94,1.95,2.09,2.5,3.4
		c-0.16,1.1-1.61,1.45-2.24,2.3c-1.68,1.43-3,3.64-5.46,3.69c-2.43-0.33-4.47-1.79-6.63-2.83c-2.23-1.06-4.71-0.83-7.09-0.64
		c5.4,4.78,12.18,7.65,18.75,10.46c2.18,1.06,4.39-0.17,5.49-2.12c1.45,1.63,2.97,4.13,5.56,3.18c5.52-1.31,7.53-7.6,6.35-12.63
		c-1.99-1.02-4.13-1.95-6.41-1.83c-2.71,0.1-5.65,0.9-8.11-0.69c2.82-0.74,5.68-1.32,8.57-1.72c0.01-1.45,0-2.89-0.03-4.33
		c-0.36-0.62-1.07-1.85-1.42-2.46c-3.27,0.08-7.7-1.51-9.39,2.41c-0.39-0.6-1.18-1.81-1.57-2.41
		C196.99,426,192.75,427.04,188.66,428.47z"/>
	<path class="st10" d="M138.5,442.6c0.09-1.56,0.38-3.11,1.11-4.5c1.53,4.92,6.91,5.82,11.3,6.52c0.76,0.18,1.51,0.39,2.26,0.61
		C148.21,446.48,142.34,446.51,138.5,442.6z"/>
</g>
<g id="_x23_d3d7d8ff">
	<path class="st11" d="M213.46,426.98c0.03,1.44,0.04,2.88,0.03,4.33c-2.89,0.4-5.75,0.98-8.57,1.72c2.46,1.59,5.4,0.79,8.11,0.69
		c2.28-0.12,4.42,0.81,6.41,1.83c-0.21,1.42-0.4,2.84-0.59,4.26c-2.93-1.35-5.76-3.09-8.96-3.7c-5.31-0.81-8.13,6.3-13.46,5.32
		c-2.31-0.65-5.61-1.28-6.05-4.13c2.16,1.04,4.2,2.5,6.63,2.83c2.46-0.05,3.78-2.26,5.46-3.69c0.63-0.85,2.08-1.2,2.24-2.3
		c-0.55-1.31-1.44-2.46-2.5-3.4c-0.93,2.52-0.91,6.62-4.16,7.41c-3.51,0.12-5.94-3-8.59-4.85c3.18,0.42,6.26,1.3,9.38,2
		c0.82-2.2,1.69-4.38,2.56-6.56c1.58,1.11,3.13,2.27,4.66,3.46C208.34,430.21,210.81,428.45,213.46,426.98z"/>
</g>
<g id="_x23_fbce99ff">
	<path class="st12" d="M177.59,445.47c1.95-1.52,4.43-2.09,6.71-2.93c2.09,1.32,4.25,2.54,6.47,3.65c1.43,2.5,2.48,6.1,5.92,6.31
		l0.74,0.1c-8.12,0.21-16.25,0.06-24.38,0.1C174.37,450.19,175.45,447.42,177.59,445.47z"/>
</g>
<g id="_x23_c77b1eff">
	<path class="st13" d="M51.29,445.59c10.29,1.54,20.9,4.19,31.23,1.33c6.83,0.35,13.67,1.52,20.42,2.72
		c-9.89,1.75-19.88,3.58-29.97,3.07c-7.94,0.72-15.4-2.41-23.02-4.03C50.39,447.64,50.84,446.62,51.29,445.59z"/>
</g>
<radialGradient id="SVGID_4_" cx="182.725" cy="420.3362" r="61.0402" gradientUnits="userSpaceOnUse">
	<stop  offset="0" style="stop-color:#FAD653"/>
	<stop  offset="0.5" style="stop-color:#FBC447"/>
	<stop  offset="1" style="stop-color:#FC983A"/>
</radialGradient>
<path class="st14" d="M247.21,418.24c-6.08,1.15-12.28,0.89-18.43,0.94c-0.99,0.01-2.97,0.05-3.96,0.07c-3-0.36-5.99-0.76-8.95-1.3
	c-4.9-1.79-9.5-4.37-13.48-7.76c-3.05-3.6-5.3-7.77-7.63-11.85l-0.32-0.57c-2.53-4.3-5.64-10.02-11.41-9.84
	c-5.32-0.53-8.56,4.64-11.01,8.56c-0.44,0.8-0.87,1.61-1.3,2.43c-2.81,5.29-6.07,10.53-10.93,14.2c-1.43,0.94-2.87,1.86-4.35,2.73
	c-4.55,1.68-9.29,2.93-14.12,3.44c-0.71-0.03-2.11-0.07-2.81-0.09c-6.57-0.13-13.18,0.32-19.68-0.86c-6.26-1.2-13.38-3.45-16.1-9.84
	c0.34,15.63,5.26,30.98,13.61,44.15c5.33-0.05,10.71,0.4,16.01-0.17c10.6,0.53,21.24,0.06,31.85,0.26c2.95-0.05,5.9-0.04,8.85-0.04
	c1.32-2.51,2.4-5.28,4.54-7.23c1.95-1.52,4.43-2.09,6.71-2.93c-2.76-1.74-5.44-3.6-8.19-5.35c-5.72-3.79-12.73-4.85-19.47-4.74
	c-3.74,0.06-7.43,0.71-11.15,1.03c2.29-2.92,5.97-4.16,9.5-4.75c6.07-0.97,12.11,2.09,18.16,0.63c9.74-2.66,19.17-6.44,29.03-8.66
	c6.07-0.98,12.81-1.38,18.23,2.09c5.8,3.98,9.31,10.86,8.47,17.94c-3.49,8.67-14.05,10.54-22.35,10.19
	c-5.49-0.63-10.81-2.31-15.76-4.73c1.43,2.5,2.48,6.1,5.92,6.31l0.74,0.1c8.79,0.2,17.61,0.22,26.4-0.01
	c3.9-1.67,7.64-5.66,7.68-9.97l0.17,0.62c0.41-1.4,0.81-2.8,1.23-4.2c1.35,4.86,0.26,10.13-3.35,13.74
	c5.16-0.08,10.32-0.1,15.48-0.06c1.59-0.04,3.34,0.18,4.71-0.84c7.83-12.61,12.44-27.13,12.97-41.98
	C258.99,414.77,253.19,417.44,247.21,418.24z M150.91,444.62c0.76,0.18,1.51,0.39,2.26,0.61c-4.96,1.25-10.83,1.28-14.67-2.63
	c0.09-1.56,0.38-3.11,1.11-4.5C141.14,443.02,146.52,443.92,150.91,444.62z"/>
<g id="_x23_155774ff">
	<path class="st15" d="M262.08,455.04c18.04,7.66,38.92,12.29,57.99,5.63c-2.58,5.72-4.48,11.8-7.73,17.19
		c0.63-3.37,1.52-6.69,2.43-10c-14.38,0.7-29.29-0.2-42.61-6.12C268.5,460.03,264.82,458.09,262.08,455.04z"/>
	<path class="st15" d="M84.94,461.68c6.64-1.23,12.83-3.99,19.3-5.77c-4.71,4.64-11.15,6.88-17.31,8.88
		c-11.1,3.03-22.75,3.77-34.2,2.95c0.81,3.34,1.67,6.69,2.03,10.13c-2.83-5.55-4.9-11.45-7.63-17.06
		C59.34,464.78,72.53,464.71,84.94,461.68z"/>
</g>
<g id="_x23_155977ff">
	<path class="st16" d="M154.49,525.95c19.27-0.18,38.55-0.37,57.81,0.08c-7.75,7.1-16.43,13.1-24.92,19.28
		c-1.4,0.81-2.69,2.22-4.39,2.27c-5.26-3.12-10.04-7.02-14.99-10.61C163.42,533.4,158.54,530.14,154.49,525.95z"/>
</g>
<g id="_x23_145571ff">
	<path class="st17" d="M230.36,540.32c3.49-2.14,6.65-4.84,10.48-6.39c-13.71,13.77-29.85,24.82-45.33,36.47
		c-4.23,2.65-7.88,6.46-12.46,8.37c-14.46-9.61-27.92-20.67-41.59-31.36c-5.15-4.15-10.42-8.17-15.45-12.47
		c3.51,1.17,6.39,3.54,9.47,5.5c15.8,10.13,31.65,20.2,47.47,30.31C198.81,560.7,214.53,550.42,230.36,540.32z"/>
</g>
</svg>
