<?xml version="1.0" encoding="utf-8"?>
<!-- Generator: Adobe Illustrator 19.0.0, SVG Export Plug-In . SVG Version: 6.00 Build 0)  -->
<svg version="1.1" id="Layer_1" xmlns="http://www.w3.org/2000/svg" xmlns:xlink="http://www.w3.org/1999/xlink" x="0px" y="0px"
	 viewBox="108.2 153.8 588.7 539.1" style="enable-background:new 108.2 153.8 588.7 539.1;" xml:space="preserve">
<style type="text/css">
	.st0{fill:#202020;}
</style>
<g id="_x23_202020ff">
	<path class="st0" d="M174.3,153.8c7.3,2.9,14.9,4.8,22.2,7.7c7.8,3.1,16,5.1,23.9,8.2c6.9,2.9,14.2,4.7,21.2,7.5
		c6.2,2.5,12.6,4,18.9,6.3c7.6,3,15.4,5.4,23.2,7.9c7.5,3.2,15.3,5.4,23,8c9.7,3.9,19.8,6.5,29.5,10.3c7.8,3,16,4.8,23.7,8.2
		c6.8,2.9,14.2,4.2,21,7.2c6.2,2.4,12.5,4.4,18.9,6.3c7.5,3.1,15.2,5.6,23,8c11.3,4.6,23.2,7.5,34.5,12.1
		c11.4,3.5,22.4,8.2,33.9,11.4c7.9,2.9,15.8,5.6,23.9,8.1c11.8,4.8,24.1,8.2,36,12.8c10.7,3,20.9,7.6,31.7,10.6
		c8.3,2.6,16.3,6.4,24.7,8.4c8,3.2,16.2,6,24.5,8.5c10.1,4.2,20.7,6.9,30.9,10.9c7.8,3,16,4.9,23.8,8.2c3.4,1.4,7,2.4,10.6,3.5
		c-17.8,19.2-35.7,38.3-53.6,57.4c-4.8,4.9-9.6,9.7-14,15c-5.7,5.9-11.6,11.7-17,18c-4.5,4.9-9.4,9.3-13.5,14.5
		c-13.2,13.5-25.7,27.6-38.9,41.1c-13,14.4-26.5,28.2-39.6,42.5c-8.1,7.9-15.2,16.7-23.4,24.5c-6.1,7.2-13,13.7-19.1,20.9
		c-7.6,7.1-14.1,15.2-21.4,22.5c-6.7,7.5-14,14.4-20.4,22.1c-5.3-9-10.7-17.9-15.3-27.2c-2.8-5.8-6.6-11-9.3-16.7
		c-14.5-26.2-29.2-52.2-43.5-78.5c-1.6-2.7-3.6-5.3-4.5-8.4c-0.7-2.4,1.5-4,2.9-5.5c2.3-2.2,4.5-4.8,7.4-6.4
		c4.9-1.5,10.7-0.6,14.3,3.2c3.7,4.4,6,9.7,7.5,15.2c0.5,3.9,0.3,7.8,0.2,11.7c-0.2,5.1-3.2,9.6-3.5,14.7c0.2,0.4,0.5,1.1,0.6,1.5
		c5.6,2.5,11.9,2.8,17.9,3.4c5.8,0.6,11.8,0.4,17.5-0.9c3.8-0.6,4-5.3,5.3-8.1c11.4-1.1,21.2-8.3,28.4-16.7c1.6-1.6,2.5-3.7,3.1-5.8
		c-7.4,2.2-14.4,5.6-22.1,6.6c-4.6,0.3-9.2-0.1-13.8,0.1c4.9-4.1,9.9-9,11.2-15.5c-4.7,0.2-10.4,3.1-14.5,0
		c-4.9-11.1-5.6-23.5-7.3-35.4c-0.3-5-0.5-10.1,0.7-15.1c1.1-7.4,2.1-15.5,7.5-21.2c16.4-10.4,36.5-15.8,55.9-12.8
		c-1.5,2.9-3.4,5.7-4.9,8.6c3.9,0.2,8,0.4,11.6-1.3c2.5-1.1,4.5-3,7.1-3.8c1.7-0.2,3.5,0.1,5.3,0.2c0.9,8.6-6.3,14.8-11.5,20.6
		c10.4,1.3,20.2-4.9,26.9-12.4c2.5,2.6,5.1,5.2,7.8,7.6c-2,21.8-10.1,43.3-24.2,60.2c-4.4,4.9-9.2,9.5-14.3,13.7
		c-3,2.6-6.7,4.3-9,7.6c12.7-2.9,24.2-9.4,34.5-17.2c20.5-14.5,36.4-34.9,47.8-57.2c4.2-1.2,10.8-0.5,12.4-5.7
		c1.8-5.9,4.6-11.5,5-17.8c-2.6-1.9-5.9-2.6-8.5-4.7c-1-3.1-1.2-6.8-4.2-8.7c-2.9-1.9-5.2-4.4-6.3-7.7c2,1.7,4.1,3.3,6.3,4.7
		c3,1.7,4.2,5.1,6.8,7.3c2.3,1.3,4.9,2,7.5,2.6c5.5,2,11.8-4,10.6-9.6c-1.6-4.5-5.6-7.3-8.6-10.7c-8.2-8.6-17.6-15.7-26.5-23.5
		c-10.5-8.2-21.5-16.3-34.2-20.8c-1-5.1-2.5-10.3-5.1-14.9c-2-3.9-6.4-5.4-10.1-7.2c-7-2.9-13.9-6.3-21.3-8.4
		c-9-2.4-17.8-6-26.9-7.9c-10.8-1.9-21.3-5.2-32.3-6.4c-20.2-3.4-40.8-0.9-61.2-1.8c-11.8-0.1-22.9-4.5-33.5-9.2
		c-5.4-2.2-9.9-6.2-15.6-7.5c-1.9,5.9-3.9,11.8-3.2,18.1c-0.5,8.2,0.4,16.7,4.3,24.1c2.8,5.1,4.6,11,8.7,15.3
		c8.3,4.1,17.5,5.7,26.7,6.2c-9.2,2-19.4,0.8-27.4-4.5c-8.8-8.5-14.8-19.6-17.9-31.4c-11-0.1-22,0.6-32.9,2.1
		c-5.6,1-11.2,1.9-16.9,2.1c-17.3-30.1-34.2-60.4-51.6-90.4c-6-11.3-12.9-22.2-18.8-33.6C181.1,165.9,177.9,159.8,174.3,153.8z"/>
	<path class="st0" d="M156.2,170.9c2.4-2.1,5.6-1.3,8.3-0.2c3.3,2.4,5,6.3,7.1,9.6c3.6,5.4,3.8,12.6,1.2,18.5c-2,3-4.9,5.4-7.6,7.8
		c-2.8-2.1-5.6-4.1-8.4-6.1c3.1-4.2,8.6-7.8,7.8-13.6c0.4-2.6-2.3-3.4-4.1-4.4c-3.7,4.6-8.7,8.6-10.1,14.5
		c-2,11.1-5.8,21.8-8.3,32.8c-1.6,8.6-8.2,15-13.7,21.3c-3.2,3.9-9.8,2.8-12.4-1.2c-4.5-6.2-9.1-13.6-7.3-21.5
		c0.6-4.2,4.1-7.1,6.5-10.3c1.7-1.9,3.1-4.4,5.7-5.1c3.1,1.4,5.4,3.9,8.1,6c-2.7,4.1-6.5,7.3-9.4,11.3c-2.1,2.6-1,6.1-1,9.1
		c1.1,0.4,2.2,0.7,3.4,0.9c4.7-3.5,8.9-8.2,10.7-13.9c3.7-10.6,5.7-21.7,8.6-32.6C143.7,184.9,148.8,176.7,156.2,170.9z"/>
	<path class="st0" d="M172.3,239.2c7.5-5.6,14.2-12.3,21.9-17.6c2.6,4.2,6.5,9.6,2.9,14.4c-12,19.7-23.9,39.4-36,59
		c-3.2,5.6-6.8,11-9.7,16.7c-1.8-3.7-4.2-7.1-5.7-11c-0.7-1.5,0.2-2.9,1-4.2c6.4-9.7,12.7-19.5,18.8-29.4c2.2-3.4,4.8-6.7,5.9-10.7
		c-1.6,0.6-3.1,1.3-4.4,2.4c-7.3,6.7-15.2,12.8-22.5,19.5c-2.5,2.3-5.2,4.5-7.9,6.5c-2.5-3.4-4.7-7.1-6.5-11
		C144,262.3,158.3,250.9,172.3,239.2z"/>
	<path class="st0" d="M176.4,305.2c13.1-15.3,25.9-31,39.1-46.2c2.4,4.6,5.2,9,7.5,13.7c1.8,3.6,4.5,7,4.6,11.2
		c0.2,4.3-0.2,9.1-3.1,12.5c-4.8,5.9-9.4,11.9-14.6,17.4c-1.9,2.3-4.8,3.3-7.3,4.8c-1.4,2.7-2.1,5.7-3.8,8.1
		c-2.9,4-6.4,7.6-9.6,11.4c-2.8,3.2-5.4,6.6-8.7,9.2c-3,0.5-7,1.1-9-1.9c-5.1-6-8.2-13.5-12-20.4
		C165.3,318.6,170.4,311.5,176.4,305.2 M203.9,289.8c-2.5,2.9-5.5,5.6-6.8,9.2c0.2,2.7,2.4,4.8,3.9,7c5.7-5,10.4-11,15.4-16.7
		c1.9-2.1,1.7-5.3,1-7.8c-0.6-1.4-1.2-3.5-3.2-2.9C209.6,281.2,207.3,286.1,203.9,289.8 M180,317.9c-2.5,3.3-5.9,6.1-7.3,10
		c0.2,2.1,1.3,3.9,2,5.9c1.7-0.2,3.8,0.2,4.9-1.5c4.1-5.2,8.8-9.9,12.9-15.2c2.6-3.4,0.4-7.9-2.2-10.5
		C186.6,310.2,183.1,313.9,180,317.9z"/>
	<path class="st0" d="M239.6,320.5c2-2.4,4.1-5.3,7.5-5.6c5,8.7,9.9,17.4,15.1,25.9c-2.9,1.1-6,2-9,2.8c-2.6-4-5.1-8-8.1-11.7
		c-5.4,5.1-9.7,11.1-14.5,16.7c-1.1,1-1.5,2.7-0.8,4.1c2,4.1,4.2,8.1,6.8,11.8c-2.8,1-5.4,2.5-8.3,3c-2.8-2.2-4.5-5.4-6.6-8.1
		c-4.1,3.6-7.3,8.2-10.9,12.3c-2.5,3-5.5,5.7-7.4,9.2c-0.2,1.5,0.6,2.9,1.2,4.2c2.6,5.4,5.8,10.5,8.9,15.7c-3,0.5-5.9,2.1-8.9,1.6
		c-3.7-3.2-5.8-7.7-8.1-11.8c-1.8-4-4.6-7.5-6.2-11.7c1.5-3,4.2-5.1,6.3-7.7C210.7,354.3,225.1,337.4,239.6,320.5z"/>
	<path class="st0" d="M468.9,318c10.4,2.3,21,5.5,30,11.4c-0.7,0.2-2,0.6-2.6,0.8c0,3.3,0.1,6.6-0.3,9.9c-3-4.7-5.3-10-10-13.3
		C481.1,322.6,475,320.2,468.9,318z"/>
	<path class="st0" d="M257.3,377.2c4.9-6.2,10.4-11.9,14.9-18.4c3.8,6.6,7.8,13.2,11.1,20.1c1.9,3.6,1.6,7.9,1.3,11.8
		c-3.7,8.4-10.9,14.4-16.4,21.6c-2.5,3.5-6,6.1-9.4,8.6c-2.2,2.9-3.4,6.4-5.7,9.3c-6.9,8-13.8,16-20.4,24.2
		c-1.7-3.3-4.3-6.1-5.3-9.7c-0.4-1.2,0.4-2.3,1-3.3c6-7.6,12.7-14.6,18.9-22c2.8-3.4,1.2-8.1-1.4-11c-8.8,8.5-15.6,18.6-24.2,27.3
		c-1.4-3.9-5.7-7.7-4.2-12C231.1,408.3,243.6,392.3,257.3,377.2 M270.7,378.5c-5.1,6.9-11.2,12.9-16.5,19.6c-2,2.3-0.3,5.2,0.3,7.6
		c1.3,0,3,1.1,4.1,0c4.8-4.4,8.3-9.9,12.8-14.5c2.1-2.4,5.2-5.5,3.6-9C274.2,380.4,273.1,377,270.7,378.5z"/>
	<path class="st0" d="M327.8,367.9c16.6-4.5,34-5.6,51.1-4.3c6.1,0.9,12.3,1.8,18.4,2.9c-8.8,0.3-17.7-0.6-26.4,0.8
		c-6.2,0.8-12.4,1.4-18.5,2.9c-15.5,4.4-30.2,11.4-43.3,20.7c-2.3-4.6-4.7-9.1-7.4-13.5C310.1,373.6,319,370.9,327.8,367.9z"/>
	<path class="st0" d="M291.1,410.1c0.5-2.9,3-5.4,5.9-5.8c1.6,0.4,2.3,2.1,3.3,3.2c6.1,11.9,13.3,23.2,19.6,34.9
		c-2.6,0.7-5.1,1.8-7.9,1.9c-4.7-1.7-5.6-7.4-8.8-10.8c-8.2,8.7-15.5,18.1-23.4,27.1c-8.6,10.3-17.6,20.4-26.1,30.8
		c-1.6-3.5-3.9-6.7-4.8-10.5c0.5-2.2,2.4-3.7,3.7-5.4c3.4-3.6,6.5-7.6,9.6-11.5c10.8-11.9,20.7-24.6,31.2-36.7
		c1.3-1.7,3.1-3.3,3.3-5.5C295.6,417.7,291.6,414.6,291.1,410.1z"/>
	<path class="st0" d="M367.9,412.1c3.1-0.8,6.1-1.8,9.3-2.3c-10,5.6-19.1,13.3-25.2,23.1c-3.3,5.4-6.4,10.9-9.1,16.6
		c-3-4.5-5.9-9.3-7.5-14.4C342.8,423.8,354.6,415,367.9,412.1z"/>
	<path class="st0" d="M321.6,458.6c2.5-1,5.5-0.6,7.6,1.2c3.8,2.7,5.4,7.3,7.8,11.1c2.6,5.4,3.7,12.3,0.4,17.6
		c-3.3,5.2-7.7,9.5-11.5,14.4c-11.3,12.4-21.5,25.8-32.7,38.2c-2.4,3-7.4,3.4-10.2,0.8c-3.2-2.9-5.3-6.8-7.3-10.6
		c-3.4-6-3.7-14-0.2-20c13.2-15.5,26.2-31.1,39.4-46.5C316.6,462.3,318.7,459.8,321.6,458.6 M324.3,471.7
		c-4.1,3.4-6.8,8.1-10.7,11.8c-6.7,8.6-14.2,16.5-21,25.1c-3.2,3.9-7,7.3-9.7,11.5c-1.3,3.3-0.3,7.2,2.4,9.5c1.5,0.3,3.2,0,4.1-1.4
		c4-5,8.3-9.8,12.4-14.7c7.1-8.2,13.7-16.9,21.1-24.8c2.8-3.8,8-7.2,6.7-12.6C329.3,473.8,326.9,470.1,324.3,471.7z"/>
	<path class="st0" d="M349.5,508.4c2.3-0.4,4.7-0.4,7,0c3.5,2.2,5.2,6.2,7.5,9.5c3.3,5.3,4.8,11.9,3.1,18
		c-1.7,5.7-6.7,9.3-10.1,13.8c-4.5,4.9-8.4,10.3-12.9,15.2c-6.5,8.1-13.8,15.7-20.1,23.9c-2.3,2.6-5.6,5.7-9.3,4.3
		c-6-2-8.4-8.5-11.3-13.5c-3.6-6.1-2.7-14.2,1.8-19.6c7.3-8.1,13.9-16.8,21.2-24.9C334.1,526.3,341.2,516.8,349.5,508.4
		 M352.4,521.9c-5,5.1-9.2,11-14.1,16.3c-6.9,8.7-14.6,16.8-21.6,25.5c-2,2.7-4.9,4.9-6,8.2c0.1,2.7,0.8,5.6,2.7,7.6
		c2.8,1.5,4.7-1.9,6.5-3.6c6-8,13.1-14.9,19.2-22.8c2.5-3.2,5.6-5.8,7.9-9.2c3.3-4.7,8.2-8.2,10.7-13.5c1.4-2.6-0.2-5.5-1.5-7.9
		C355.5,521,353.5,520.9,352.4,521.9z"/>
	<path class="st0" d="M372,553.8c1.9-2,3.7-4.1,6-5.5c2.3-0.5,3.3,1.7,4.3,3.3c6.4,11.6,12.6,23.3,19.4,34.6c-2.6,0.8-5.1,2-7.8,2.3
		c-4.2-1.9-6-6.3-7.6-10.2c-0.9,0-1.8,0.1-2.7,0.1c-5.1,7.2-11.4,13.5-16.7,20.5c-10.9,11.6-20.6,24.3-31.1,36.2
		c-2.4-3.3-4.7-6.9-5-11.1c0.3-0.5,1-1.5,1.3-2c15.5-17.2,29.8-35.5,45.2-52.8c0.9-1.3,2.2-3,1.1-4.6
		C376.5,560.8,373.9,557.5,372,553.8z"/>
	<path class="st0" d="M404.4,599.2c0.9-1.6,3.4-1.5,4.4-0.1c1.9,2.3,3.3,4.9,4.9,7.4c-7.7,7.4-13.9,16.1-21.1,23.9
		c-1.2,1.6-3.3,3.1-2.7,5.4c1,3.1,2.9,5.9,4.5,8.7c3.6-2,6-5.5,8.6-8.7c5.2-6.5,11-12.5,16.2-19.1c2,3.9,6.1,8.4,3.8,13.1
		c-9.4,10.7-18.6,21.5-27.6,32.5c-4.8,5.5-9.8,10.9-14.3,16.6c-4.1,4.6-7.4,9.9-12.1,14c-2.3-3.2-4.5-6.5-6.2-10
		c5.1-5.6,9.8-11.6,14.9-17.2c3-4.1,7.3-7.2,9.5-11.9c0-3.7-1.9-8.1-5.2-9.9c-9.5,8.5-16.3,19.4-25.3,28.5c-1.7-3.5-3.4-7-5.5-10.3
		c12.9-15.7,26.4-30.9,39.3-46.7C395.5,610.3,399.8,604.6,404.4,599.2z"/>
</g>
</svg>
