<?xml version="1.0" encoding="utf-8"?>
<!-- Generator: Adobe Illustrator 19.0.0, SVG Export Plug-In . SVG Version: 6.00 Build 0)  -->
<svg version="1.1" id="Layer_1" xmlns="http://www.w3.org/2000/svg" xmlns:xlink="http://www.w3.org/1999/xlink" x="0px" y="0px"
	 viewBox="-146.6 220.2 299.3 402.6" style="enable-background:new -146.6 220.2 299.3 402.6;" xml:space="preserve">
<style type="text/css">
	.st0{fill:#02ADF0;}
	.st1{fill:#161244;}
	.st2{fill:#B5B5B5;}
	.st3{fill:#FDFDFD;}
	.st4{fill:#FCFBFB;}
	.st5{fill:#B5B6B5;}
	.st6{fill:#F4F2F2;}
	.st7{fill:#F3F5F5;}
	.st8{fill:#9D9EB5;}
	.st9{fill:#B8B9CB;}
	.st10{fill:#FEFEFC;}
	.st11{fill:#FDFDFC;}
	.st12{fill:#B5B5B4;}
	.st13{fill:#E2E4E9;}
	.st14{fill:#FFFFFD;}
	.st15{fill:#FEFFFE;}
	.st16{fill:#FEFDFC;}
	.st17{fill:#A8A9AD;}
	.st18{fill:#6D6E6F;}
	.st19{fill:#FFFFFF;}
	.st20{fill:#111343;}
	.st21{fill:#A8A6AB;}
	.st22{fill:#36659F;}
	.st23{fill:#38689A;}
	.st24{fill:#04ADF0;}
	.st25{fill:#A6AAAA;}
	.st26{fill:#03ADF2;}
	.st27{fill:#595A72;}
	.st28{fill:#FDFDFB;}
	.st29{fill:#FFFEFC;}
	.st30{fill:#FFFCFF;}
	.st31{fill:#FCFCFB;}
	.st32{fill:#FEFEFD;}
	.st33{fill:#FEFFFC;}
	.st34{fill:#181342;}
	.st35{fill:#A4DDF8;}
	.st36{fill:#A2DEF9;}
	.st37{fill:#A3DDF8;}
	.st38{fill:#A5DDF8;}
	.st39{fill:#00ADF1;}
</style>
<g id="_x23_02adf0ff">
	<path class="st0" d="M-104.8,235.1c17.2-11.4,38.3-16.4,58.7-14.5c3.2,0.2,5.8,2.5,8.5,3.9c5.7,3.2,11.3,6.7,17.1,9.7
		c2.3,8.5,3.6,17.4,7,25.6c-8.4,11.9-22.2,18.5-35.5,23.7c-1.5-1.1-3-2.5-5-2.8c-7.2-1.5-14.8-1-21.9-3.1c1.8,7.1,2.8,14.6,1.1,21.8
		c4.8,1.9,9.2,4.8,12.8,8.4c8.5-1.5,17-3.6,25.4-5.3c5.4-5.3,9-12.4,15.6-16.4c9.8-7.3,22.9-8.6,34.6-6c8.1,1.6,14.9,6.9,19.8,13.3
		c2.4,3.3,5.1,6.7,9.4,7.3c0.1,0.6,0.4,1.9,0.5,2.5c7.9,1.1,15.8,2.5,23.4,5c4.1-3.7,8.7-7,13.9-9c-2.5-7.1-0.6-14.6,0.6-21.8
		c-5.1,1.4-10.3,2.1-15.5,2.3c-3.9,0.1-7.7,1.2-10.8,3.6c-6.1-0.9-11.3-4.5-16.8-7.1c-6.9-3.3-12.4-8.8-17.5-14.4
		c-1.8-1.6-0.4-4.2,0-6.1c2.4-7,3.6-14.4,5.3-21.6c7.1-4.4,14.5-8.3,21.7-12.4c2.4-1.5,5.3-1.1,8-1.3c13.5,0,27.2,1.4,39.8,6.5
		c17.1,8,32.5,20.4,42.8,36.4c10.2,15.8,14.5,34.8,14.1,53.4c-0.2,9.8-2.1,19.3-3.7,28.9c-2.2-1.8-4.1-3.9-6-6c-0.8,3.2-2.4,6-3.6,9
		c-0.3,21.9,0,43.8-0.1,65.7c3.3,0.9,6.7,1.5,10.1,2c0,17.3,0,34.6,0,51.9c-3.4,2-6.9,3.8-10.5,5.6c-1.2,13.4-4.7,26.8-11.1,38.7
		c-1.3,2.2-1.4,4.7-1.6,7.1c7.6,6.5,14.4,13.8,21.8,20.5c-16.2,7-32.6,13.7-48.9,20.5c-2.7,1.5-5-1.9-7.7-1.8
		c-18,16.2-37.2,31.1-57.3,44.6c-10.3,6.9-20.8,13.4-31.8,19.2c-16.2-8.5-31.8-18-46.9-28.2c-15.7-10.8-31.2-22.2-44.5-35.8
		c-1.2,0.6-2.4,1.2-3.6,1.8c-14.5-7.3-29-14.5-43.4-21.9c5.5-5.9,11.8-11.1,17.7-16.6c-6.2-10.2-11.4-21.3-13.6-33.2
		c-1.1-4.9-1.1-10-1.8-14.9c-3.4-2.5-7-4.7-10.3-7.3c-0.2-16.6-0.4-33.2-0.5-49.9c3.6-0.8,7.3-1.6,10.9-2.3
		c-0.1-21.6-0.5-43.1-0.3-64.7c0.3-3.5-2-6.4-2.9-9.5c-1.9,1.6-3.5,3.5-4.9,5.5c-5.3-19.9-6.8-41.4-0.5-61.3
		C-136.3,264.2-122.3,246.8-104.8,235.1 M-97.9,237.9c-18.1,10.5-32.3,27.7-38.7,47.6c-5.3,15.4-5.6,32.2-2.6,48.1
		c1.4-1.5,3-3.1,5-3.8c1,5.7,3.4,11,5.7,16.2c0.3,22.2-0.1,44.5,0.1,66.8c4.5-0.5,9-1.5,13.5-2.4c0.1-15.6-0.3-31.2,0.2-46.8
		c4.8,4.2,9.4,8.8,15.2,11.7c-0.1-2.4-0.4-4.7-1-7c2,1.5,4,2.8,6.1,4.2c0,14.2,0,28.4,0,42.5c-14.5,2.1-28.8,5-43.2,7.9
		c-0.3,11.3-0.1,22.6-0.1,33.9c15.6-2.9,31.2-6.3,47-8.4c75.5-11.1,152.9-8.5,227.6,7.4c1.9,0.4,3.8,0.7,5.8,1
		c0-11.2-0.1-22.4,0.1-33.6c-14.2-3.8-28.8-5.6-43.2-8.5c-0.3-13.9,0-27.9-0.1-41.8c1.8-1.1,3.6-2.1,5.5-3.2
		c0.3,12.4,0,24.9,0.2,37.3c0.2,0.3,0.7,0.7,0.9,1c9,1.4,18,3.2,27,4.7c0.3-21.3-0.2-42.6,0.1-63.9c2.8-6.2,6-12.4,7.2-19.2
		c1.9,0.5,3.1,3.3,5.1,2.7c2.5-12.7,2.5-26-0.4-38.6c-4.4-20.4-16.7-39-33.6-51.2c-16.8-12.2-38.2-18.1-58.9-16.2
		c-7,3.8-14.1,7.6-20.7,12c-2.4,6.6-2.9,13.8-5.4,20.4c6.2,8.5,16.1,13.4,25.6,17.4c2.8,1.3,5.4-0.9,8.1-1.3
		c6.6-1.4,13.6-0.7,20.1-3c3.2-1,5.7-3.3,8.4-5.1c0.5,6.6-1.2,13.1-2.7,19.6c-1.3,5.8,0.1,11.7,2.9,16.8
		c-7.5,1.7-14.8,5.4-19.6,11.5c-11.3-1.9-22.4-4.8-33.8-5.6c0.8-1.2,1.4-2.5,1.9-3.9c-4.6-2.4-6.9-7.3-10.4-10.9
		c-4.2-4.9-10.2-8-16.6-9c-9.4-1.6-19.6-0.3-27.4,5.3c-6.1,4.1-10.2,10.4-14.6,16.1c0.7,0.7,1.4,1.4,2,2.2
		c-11.1,1.2-22.1,3.4-33.1,5.7c-5-6-12.2-9.8-19.7-11.5c3-5.2,4.3-11.3,2.8-17.2c-1.5-6.3-3.1-12.6-2.6-19.1
		c2.4,1.8,4.7,3.8,7.6,4.9c7.9,3.2,16.8,1.3,24.6,4.5c2.7,1.3,5.5-0.4,7.9-1.5c8.1-3.9,16.5-8.4,21.9-15.8
		c-2.3-6.7-3.3-13.8-5.3-20.5c-4.7-3-9.7-5.5-14.4-8.4c-2.3-1.2-4.4-2.9-7-3.6C-64.6,224.9-82.6,229-97.9,237.9 M-137,464.9
		c2.8,2,5.6,4,8.6,5.7c0.4,18.7,7,37,17.3,52.5c-5,4.7-10.3,9-14.8,14.1c10.3,5.4,20.8,10.5,31.2,15.7c2.2,1.3,4.2-0.9,6.2-1.5
		c25.2,25.4,55,45.8,86.5,62.7c1.8,0.8,3.9,2.4,6,1.3c5.1-2.7,10.1-5.7,15-8.7c25.6-15.8,50.1-33.6,71.5-54.8
		c3.3,0.6,6.1,4.1,9.6,2.2c12.5-5,24.8-10.3,37.3-15.3c-3.9-5.4-9.5-9.3-14.2-13.9c-3.1-2.4-2.5-6.6-2.7-10c1.7-4.3,4.4-8.1,6-12.4
		c3.4-8.5,6.2-17.4,6.3-26.6c0.2-1.6-0.2-3.5,0.6-5c2.7-2.2,6-3.4,9-5.3c-0.8-0.5-1.7-0.8-2.6-1.1C48.8,444.6-46.3,444.8-137,464.9z
		"/>
</g>
<g id="_x23_161244ff">
	<path class="st1" d="M-97.9,237.9c15.3-8.9,33.3-12.9,50.9-11.5c2.5,0.6,4.7,2.4,7,3.6c4.8,2.9,9.8,5.4,14.4,8.4
		c2,6.8,3,13.8,5.3,20.5c-5.5,7.4-13.8,11.9-21.9,15.8c-2.5,1-5.2,2.7-7.9,1.5c-7.9-3.2-16.8-1.3-24.6-4.5c-2.9-1.1-5.2-3.1-7.6-4.9
		c-0.5,6.5,1.1,12.9,2.6,19.1c1.5,5.9,0.2,12-2.8,17.2c7.5,1.7,14.7,5.5,19.7,11.5c10.9-2.4,21.9-4.5,33.1-5.7
		c-0.7-0.7-1.4-1.4-2-2.2c4.4-5.7,8.5-12,14.6-16.1c7.9-5.6,18.1-6.9,27.4-5.3c6.4,1,12.4,4.1,16.6,9c3.5,3.6,5.8,8.5,10.4,10.9
		c-0.5,1.4-1.2,2.7-1.9,3.9c11.4,0.9,22.5,3.8,33.8,5.6c4.9-6.1,12.1-9.8,19.6-11.5c-2.9-5.1-4.2-11-2.9-16.8
		c1.5-6.4,3.2-12.9,2.7-19.6c-2.7,1.8-5.2,4.1-8.4,5.1c-6.4,2.3-13.4,1.5-20.1,3c-2.7,0.5-5.4,2.6-8.1,1.3
		c-9.5-4-19.4-8.9-25.6-17.4c2.4-6.6,3-13.8,5.4-20.4c6.7-4.3,13.7-8.2,20.7-12c20.7-1.9,42,4,58.9,16.2
		c16.9,12.2,29.2,30.8,33.6,51.2c2.9,12.6,2.9,25.9,0.4,38.6c-2,0.6-3.2-2.3-5.1-2.7c-1.2,6.8-4.4,13-7.2,19.2
		c-0.3,21.3,0.1,42.6-0.1,63.9c-9-1.5-18-3.3-27-4.7c-0.2-0.3-0.7-0.7-0.9-1c-0.2-12.4,0.2-24.9-0.2-37.3c-1.8,1.1-3.7,2.1-5.5,3.2
		c0.1,13.9-0.2,27.9,0.1,41.8c14.3,2.8,29,4.7,43.2,8.5c-0.1,11.2,0,22.4-0.1,33.6c-1.9-0.3-3.9-0.6-5.8-1
		C62.1,440-15.4,437.4-90.9,448.5c-15.8,2.1-31.3,5.4-47,8.4c0-11.3-0.2-22.6,0.1-33.9c14.3-2.9,28.7-5.8,43.2-7.9
		c0-14.2,0-28.4,0-42.5c-2-1.4-4.1-2.7-6.1-4.2c0.6,2.3,0.9,4.6,1,7c-5.8-2.9-10.4-7.5-15.2-11.7c-0.4,15.6-0.1,31.2-0.2,46.8
		c-4.5,0.9-9,1.9-13.5,2.4c-0.1-22.3,0.2-44.5-0.1-66.8c-2.3-5.3-4.7-10.5-5.7-16.2c-2,0.7-3.5,2.3-5,3.8c-3-15.9-2.7-32.7,2.6-48.1
		C-130.2,265.5-116,248.3-97.9,237.9 M-78.4,238.5c4.7,0.5,9.2-0.9,13.9-0.4c-1.1,0.9-2.3,1.8-3.4,2.7c5.7-1.3,11.6-2.2,17.4-1.4
		c0.2,1.2,0.5,2.5,0.7,3.7c0.7-0.1,2.2-0.2,2.9-0.2c1.9,0.5,3.7,1.4,5.3,2.4c-0.5-4-1.4-8-3.3-11.6c-1.3,0-2.5,0-3.8,0
		C-58.8,233.1-68.8,235.7-78.4,238.5 M47.5,245.1c1.8-1,3.7-1.9,5.7-2.5c0.6,0.1,1.8,0.4,2.4,0.6c0.3-1.3,0.5-2.6,0.8-3.8
		c5.8-0.7,11.6,0.1,17.1,1.5c-0.8-0.7-2.4-2.1-3.1-2.8c4.6-0.2,9.1,0.7,13.7,0.7c-9.4-3.2-19.3-5.4-29.3-5c-1.4,0-2.7,0-4.1-0.1
		C48.9,237.2,47.8,241.1,47.5,245.1 M-37.5,247.2c0.5,0.4,1.6,1.1,2.1,1.4c-0.5-2.7-1.2-5.4-2.2-8C-37.6,242.8-37.6,245-37.5,247.2
		 M41.2,248.7c0.8-0.5,1.5-1.1,2.3-1.6c0.1-2.2,0.1-4.4,0.2-6.6C42.5,243.1,41.7,245.9,41.2,248.7 M-31.8,248.4
		c-0.8,1.3-0.6,2.1,0.6,2.4C-30.4,249.5-30.6,248.7-31.8,248.4 M37.8,250.7c0-0.6,0-1.8,0-2.4C36.3,247.9,36.2,251.2,37.8,250.7
		 M-44.1,248.7c-0.9,2-2.3,4.1-1.9,6.4c1,2.6,3.5,4.3,5.4,6.3c-1.7,1.2-3.4,3-5.5,3.2c-2-1.1-3.7-2.8-5.6-4
		c-6.9-4.5-15.8-6.3-23.6-3.3c4.3,6.2,12,9.1,19.3,9.7c3.5,0.2,6.8,1.6,10.3,1.9l0.6-0.8c6.1-2,11.8-5.1,16.8-9.2c0-0.4,0-1.2,0-1.6
		C-33.6,254.5-39.1,252.1-44.1,248.7 M-28.1,249c0.4,1.9,0.3,4.3,2.1,5.5C-25.9,252.3-26.7,250.5-28.1,249 M34.3,257
		c0,0.5-0.1,1.5-0.2,1.9c5.1,4.1,10.9,7.4,17.2,9.2c0.2,0.2,0.6,0.5,0.8,0.7l0.3-0.1c3.2-0.3,6.2-1.5,9.3-1.7
		c7.3-0.6,15-3.4,19.3-9.7c-10.4-4.1-21.6,0.7-29.7,7.5c-1.7-1.1-3.4-2.2-5.1-3.4c1.8-1.9,4.2-3.5,5.2-6c0.6-2.4-0.8-4.7-1.7-6.9
		C45,251.9,39.7,254.6,34.3,257 M32,253.8c1.3-0.2,1.5-1,0.8-2.4C31.6,251.7,31.3,252.5,32,253.8 M-124.5,290.8
		c-2.7,9.8-1.7,20.5,2.3,29.8c2-2.5,3.8-5.1,6.1-7.4c-0.4,8.4,1.1,17.1,5.5,24.3c4.1,6.9,10.7,11.8,17.9,14.9
		c-0.6-3.7-1.2-7.6-0.6-11.3c0-1.7,0.9-3.5,0.2-5.1c0.2,0.1,0.6,0.4,0.9,0.6c4.6,12.2,15.6,22.2,28.6,24.5c2.1-3.8,5.6-6.4,8.9-9
		c-2.2,13-0.1,26.8,6.3,38.4c-3.3-1-6.4-2.7-9.3-4.6c4.1,5.3,7.9,10.8,12.4,15.7c0.7-1.7,1.3-3.4,2-5.1c10.5,3.4,20.9,6.9,31.3,10.6
		c4.9-4.1,9.8-8.2,14.9-12.1c5.1,3.9,9.9,8.1,14.9,12.1c10.4-3.7,20.9-7.2,31.4-10.5c0.6,1.8,1.2,3.5,1.8,5.3
		c4.5-4.9,8.5-10.3,12.1-15.8c-2.8,2-5.8,3.5-9,4.6c6.4-11.6,8.7-25.4,6.4-38.5c3.4,2.6,6.7,5.4,8.9,9.1c13-2.5,24.1-12.3,28.5-24.7
		c0.1-0.1,0.4-0.3,0.6-0.4c0.7,5.5,1.2,11,0,16.4c5.5-2.4,10.8-5.7,14.6-10.4c6.8-7.9,9.3-18.5,8.8-28.7c2.3,2.3,4.3,4.9,5.9,7.8
		c3.4-7.5,5-15.9,3.7-24.1c-1.8-13.2-8.1-25.3-16.5-35.5c0.7,7-1,13.9-4.4,20c-2-1.7-2.1-4.6-3.4-6.8c-1.3-2.6-3.7-6.1-7.1-5
		c-3.8,3.4-3.4,9.1-3.2,13.7c1,9.3,4,18.9,10.6,25.7l-0.1,0.2c2.5,2,5,4.1,8,5.5c-3.6,1.7-7.8-0.3-11.6-0.3
		c-4.6-0.4-9.3-0.8-13.8,0.5c-6.8,1.7-12.1,7-15.2,13c-3.1,6-4.8,12.6-6.1,19.2c-1.4-2.2-2.6-4.5-3.8-6.8c0-1.7-0.3-3.4-0.4-5.1
		c-5.4,1.6-9.8,5.4-13.3,9.8c1.7,0.8,3.5,1.6,5.3,2.4c0,0.3-0.1,0.9-0.2,1.3c-8.4,2.4-16.5,5.5-24.1,9.9c-3.1,2-6,4.2-9,6.3
		c5.3,0,10.5,1.4,15.3,3.5c-14.1,0.5-27.6,8.4-34.2,20.9c-0.4,0.9-0.9,1.7-1.3,2.6c-0.3-0.7-0.9-2.2-1.2-2.9l-0.3,0.3
		c-6.2-12.6-19.9-20.3-33.7-20.9c4.6-2.4,9.8-3.4,14.9-3.8c-3-2-5.8-4.1-8.8-6.1c-7.8-4.4-16.2-7.8-24.8-10.1
		c0.2-0.3,0.6-0.8,0.8-1.1c1.6-0.8,3.2-1.6,4.9-2.4c-3.4-4.4-7.8-8.1-13.2-9.8c-0.2,1.8-0.4,3.6-0.7,5.4c-1.1,2.2-2.2,4.3-3.5,6.4
		c-1.7-6.3-2.8-12.7-6-18.5C-71,324-74.3,319.6-79,317c-5.6-3.4-12.5-3.2-18.8-2.7c-4.1,0.5-8.2,1.3-12.3,0.9
		c2.7-1.7,5.4-3.3,7.7-5.5c6.9-7,10.5-16.8,11.3-26.5c0.2-4,0.4-8.3-1.4-12.1c-0.9-1.9-3.5-2.6-5.2-1.3c-3.8,2.8-4.9,7.7-6.3,11.9
		c-4.3-5.9-5.6-13.5-5-20.7C-116.2,269.9-121.9,279.9-124.5,290.8 M-17.3,294.1c0.7,1,1.3,1.9,2,2.9c-4.3,0-6,4.5-9.6,5.8l4.6-1
		c-3.8,4.6-3.6,11.5-8.7,15.3c1.7-0.7,3.3-1.4,5-2c-0.8,4.4-2.5,8.7-4.3,12.8c-2,4.3,0,9,1,13.3c1.3-1.5,2.3-3.2,3.1-5
		c1.9,4.9,1.3,10.3,0.9,15.4c0.7-0.6,2-1.9,2.7-2.5c1.9,4.7,4.9,9,8.9,12.1c-2.7-4.6-4.5-9.9-4.3-15.2c-0.1-3,0.8-6.3-1.1-8.9
		c-2.2-3.3-4.4-6.7-5.2-10.6c-1.5-6.1,0.3-13.5,5.3-17.6c-0.5-0.1-1.4-0.4-1.9-0.6c1.1-1.9,2.4-4,4.6-4.6c3.9-1.7,8.1,2.2,11.9-0.1
		c2.4-1.5,3.8-4,5.7-6c-1.3,0.1-3.9,0.4-5.2,0.5c1.2-1.3,2.8-2.3,4.4-3.1c-0.9-2.3-2.7-5.1-5.6-4.4
		C-7.9,291.4-12.3,293.9-17.3,294.1 M13.9,296c1.5,1.1,3,2.2,4.5,3.3c-4.1-1.1-8.7-0.4-11.7,2.8c3.6-1.5,8.8-3.1,11.8,0.3
		c1.4,2.6,2.1,5.7,4.3,7.8c-1-2.9-1.8-5.8-2.9-8.7c1.2,0.3,3.5,1,4.6,1.4C20.8,300.7,18.5,296.2,13.9,296 M-10.1,309.4
		c-1.4,0.5-2.7,1.2-4.1,1.8c0.6,0.3,1.7,0.8,2.3,1c-2.8,1.5-5.3,4.2-5.2,7.5c0.1,6.7,3.8,12.7,7.3,18.3l0.3-2.3
		c0.9-2.7,2.9-4.9,5.6-5.8c1.3,0.2,2.5,0.3,3.8,0.4l-0.9,1.2l-1.3,0.1c0.5,5.1,10.4,5,10.3-0.3l-1.3,0.4c-0.1-0.5-0.2-1.3-0.2-1.8
		c2.3,0.2,5-0.1,6.7,1.9c1.3,1.7,2.2,3.6,3.3,5.4c2.8-5.8,7.2-11.6,6.5-18.4c-0.2-2.9-2.3-5.1-4.9-6.2c0.4-0.4,1.1-1.3,1.5-1.8
		c-2.7-1.4-5.7-1.8-8.7-2l-0.3,0.4c-2.8,0.6-5.4,2-7.5,4C-0.3,309.7-5.5,308.1-10.1,309.4 M28.2,314.6c0.4,6.3,2.8,12.3,3.6,18.6
		c-1.3-1-2.4-2.2-3.5-3.4c-2.1,7.2-3.9,15.2-0.7,22.3c-0.5-5.8,0-11.6,1.7-17.2c1.2,1.9,2,4,2.6,6.1c1.5-4.5,2.2-9.4,0.9-14
		C31.4,322.8,29.3,318.9,28.2,314.6 M-58.4,327.2c5.8,1.6,11.8,3.4,16.5,7.5c3.3-0.4,6.7-0.6,9.7-1.8c1.2-2.5,0.8-5.6,1.1-8.3
		c-2.2-0.5-4.5-1.5-6.8-1.1C-44.8,324.6-51.6,325.7-58.4,327.2 M36.7,326.1c0.4,2.4,0.8,4.7,1,7.1c3.2,0.7,6.6,1.9,9.9,1.4
		c2.5-1.5,4.7-3.3,7.3-4.6C49,328.4,42.9,326.8,36.7,326.1 M-4.2,332.7c-0.7,1.4-1.5,2.8-2.3,4.2c2.4-0.4,4.4,1.4,6.4,2.3
		C-1.8,337.2-3.2,335.1-4.2,332.7 M9.6,332.6C9,335,7.6,337.1,6,338.9c2.1-0.8,4.2-1.6,6.3-2.4C11.9,335,11.1,333.5,9.6,332.6
		 M-5.8,345.9c0.6-1,1.2-2,1.8-3c4.5,1,9.3,0.9,13.9,0.1c0.6,1,1.1,2,1.7,3c0.7-1.8,0.7-3.6-0.3-5.2c-5.5,0.7-11.1,0.7-16.6,0
		C-6.5,342.3-6.4,344.1-5.8,345.9 M-8.4,350.8c-0.3,5.8,1,11.6,4.6,16.2c0-1.2-0.1-3.5-0.1-4.6c1.7,3.6,3.9,6.9,6.8,9.6
		c3-2.7,5.1-6.1,6.8-9.7c0,1.2,0,3.5,0,4.7c3.6-4.5,4.9-10.4,4.3-16.1c-1.1,3.3-2.7,6.5-5.3,8.9c-3.8-0.1-7.7,0.3-11.5-0.1
		C-5.8,357.6-6.8,353.9-8.4,350.8 M-5.1,350.6c0.4,2,0.2,5.4,3,5.6c3.8,0.9,8.1,1,11.8-0.6c1.2-1.4,1-3.5,1.4-5.2
		c-1.3,1.3-2.6,2.6-3.7,4c-2.5-2-6.4-2.1-8.8,0C-2.6,353.1-3.8,351.8-5.1,350.6 M-29.9,414.7c0,7.4,0,14.8,0,22.3
		c7-0.2,14-0.6,21-0.5c0-1.9,0-3.8,0-5.6c-4.5,0.1-9,0.1-13.5,0.1c0-0.9,0-1.8-0.1-2.8c4,0.1,8-0.3,12-0.4c0-1.7,0-3.4-0.1-5.1
		c-4,0.1-8,0.2-12,0.1c0-0.9,0.1-1.9,0.1-2.8c4.5-0.3,9-0.4,13.6-0.4c0-1.9,0-3.7,0-5.6C-15.8,413.9-22.8,414.6-29.9,414.7
		 M2.9,436.1c2.5,0,5,0,7.4,0.1c0.5-1,0.9-2,1.4-2.9c2.8,0.1,5.6-0.1,8.4,0.3c1,0.7,1.4,1.9,2.1,2.9c2.4,0,4.8,0.1,7.2,0.4
		c-2.9-7.7-5.9-15.3-8.9-22.9c-2.9,0-5.8,0-8.7,0C8.7,421.2,6.2,428.8,2.9,436.1 M-64.8,417.7c0,1.8,0,3.7,0.1,5.5
		c2.5-0.3,4.9-0.6,7.4-1c0.2,5.6,0,11.3,0.1,16.9c2.3-0.3,4.6-0.3,6.9-0.6c0.8-5.5,0.3-11.2,0.3-16.7c2.6-0.4,5.3-0.5,7.9-0.8
		c0-1.9,0-3.7,0-5.6C-49.7,416.3-57.3,416.6-64.8,417.7 M41.5,415c-0.1,7.4-0.2,14.9,0,22.3c2.4,0.2,4.7,0.5,7.1,0.6
		c0.1-4,0.1-8.1-0.1-12.1c2.5,4.3,5,8.7,7.6,12.9c2.3-4,5.1-7.7,7.4-11.7c-0.2,4-0.2,8,0,12.1c2.3,0.4,4.7,0.7,7,0.8
		c0.1-7.5,0.2-14.9-0.1-22.4c-2.9-0.2-5.9-0.4-8.8-0.7c-1.8,3-3.7,6-5.6,8.9c-2.2-3.2-3.6-7-6.1-10C47.1,415.4,44.3,415.4,41.5,415z
		"/>
	<path class="st1" d="M-137,464.9c90.8-20.1,185.9-20.4,276.6-0.4c0.9,0.3,1.8,0.7,2.6,1.1c-3,1.8-6.3,3.1-9,5.3
		c-0.8,1.5-0.4,3.3-0.6,5c-0.1,9.2-3,18.1-6.3,26.6c-1.6,4.3-4.3,8.1-6,12.4c0.1,3.4-0.4,7.7,2.7,10c4.7,4.6,10.3,8.5,14.2,13.9
		c-12.5,5-24.8,10.4-37.3,15.3c-3.4,1.9-6.3-1.6-9.6-2.2c-21.4,21.2-45.9,38.9-71.5,54.8c-5,3-9.9,6-15,8.7c-2,1.2-4.1-0.4-6-1.3
		c-31.5-16.9-61.3-37.3-86.5-62.7c-2,0.6-4,2.8-6.2,1.5c-10.4-5.1-20.9-10.3-31.2-15.7c4.5-5.2,9.8-9.5,14.8-14.1
		c-10.3-15.5-16.9-33.8-17.3-52.5C-131.4,468.9-134.3,467-137,464.9 M-50.8,466c-0.4,3.8-0.5,7.6-0.6,11.4c20.4-1.3,40.9-2,61.4-2
		c0,12.2,0.6,24.4,0.6,36.6c5.8,0.1,11.6,0.7,17.5,0.5c-0.3-12.1-0.8-24.2-1.2-36.3c6.6,0.1,13.3,0.6,19.9,1
		c0.8,12.2,1.4,24.4,2.2,36.6c5.8,0.5,11.6,1.2,17.4,1.4c-0.9-12.3-1.9-24.5-2.8-36.7c5.9,0.7,11.9,1.2,17.8,2.1
		c-0.5-3.5-0.6-7.1-0.9-10.6c-0.3-1.4-1.9-1.1-3-1.3C34.9,463.7-8.1,462.9-50.8,466 M-76.4,468.5c-1.1,8.4-1.5,16.8-2.4,25.1
		c-3.7,0.5-7.3,1-11,1.5c0.9-8.5,1.7-17,2.8-25.4c-11.1,1.7-22.3,2.8-33.2,5.4c4.6,1.5,9.3,2.6,13.8,4.4c-0.8,7.1-1.7,14.2-2.5,21.3
		c-0.4,2.6,0.9,5.5,3.2,6.9c3.6,0.8,7.3-0.8,10.9-0.9c-0.6,5.7-1,11.5-1.8,17.2c-2.2,2-4.4,3.9-6.6,5.9c8.3-1.1,16.6-2.5,24.9-3.2
		c0.5-7.4,1.3-14.8,2-22.3c3.8-0.3,7.6-0.5,11.3-1.4c4-1.3,6.1-5.5,6.4-9.5c0.8-8.9,1.2-17.9,1.8-26.9
		C-63.4,467-69.9,467.6-76.4,468.5 M85.6,469.7c1.6,19,4.2,37.8,5.6,56.8c7.7,1,15.4,2.6,23.1,3.3c-1.5-1.3-3.1-2.5-4.7-3.7
		c-2.1-15.4-3.7-30.8-5.6-46.3c5-1.7,10.1-3.2,15.2-4.7C108.2,472.4,96.8,471.4,85.6,469.7 M-51.8,483.8
		c-0.7,10.1-1.2,20.3-1.9,30.4c16.8-1.3,33.6-2.1,50.5-2.3c0-4.1,0-8.1,0-12.2c-10.8,0-21.7,0.2-32.5,1c0.2-2.2,0.4-4.4,0.5-6.6
		c9.3-0.4,18.6-1,28-0.9c0.1-3.8,0.1-7.6,0.1-11.4C-22.1,481.9-37,482.5-51.8,483.8 M-66.8,545.1c0.3,0.8,0.8,1.5,1.6,2.1
		c19.7,16.2,41.1,30.2,63.6,42.2c1.2,0.6,2.5,1,3.8,1.5c0-3.4,0-6.8,0.1-10.1c19.9-10.7,38.9-23.2,56-38c-8-1.3-16.2-1.5-24.3-2.2
		c-2.8,0.1-6-0.7-8.5,1c-7.7,4.6-15.3,9.3-23.5,12.9c-8-4-15.8-8.4-23.5-13.1c-1.3-1-3-0.8-4.6-0.7C-39.6,541.7-53.4,542-66.8,545.1
		z"/>
</g>
<g id="_x23_b5b5b5ff">
	<path class="st2" d="M-78.4,238.5c9.7-2.8,19.6-5.4,29.8-4.9c0.5,3.1,1.1,6.1,1.7,9.2c-0.7,0.1-2.2,0.2-2.9,0.2
		c-0.2-1.2-0.5-2.5-0.7-3.7c-5.8-0.8-11.7,0.1-17.4,1.4c1.2-0.9,2.3-1.8,3.4-2.7C-69.2,237.6-73.8,239-78.4,238.5z"/>
	<path class="st2" d="M-75.3,257.3c7.8-3,16.8-1.2,23.6,3.3c1.9,1.2,3.6,2.8,5.6,4c2.1-0.2,3.8-2,5.5-3.2c0.8,0.7,1.6,1.4,2.4,2.1
		c-2.4,1.3-5.3,2.2-6.9,4.5l-0.6,0.8c-3.5-0.2-6.8-1.7-10.3-1.9C-63.3,266.5-71,263.6-75.3,257.3z"/>
	<path class="st2" d="M-124.5,290.8c2.6-10.9,8.3-21,15.4-29.5c-0.6,7.2,0.8,14.7,5,20.7c1.4-4.3,2.5-9.1,6.3-11.9
		c1.7-1.3,4.3-0.6,5.2,1.3c1.8,3.7,1.6,8,1.4,12.1c-3,0-6.1,0.9-7.9,3.5c-4.7,6.5-6.1,15.4-3.4,23c-2.3,2.2-5.1,3.8-7.7,5.5
		c4.1,0.3,8.2-0.4,12.3-0.9c-1.9,2.5-4.4,5.1-3.9,8.5c0.4,5.6,4.6,9.8,8.7,13.1c0.6,1.6-0.2,3.4-0.2,5.1c-0.6,3.8,0,7.6,0.6,11.3
		c-7.2-3.1-13.8-8-17.9-14.9c-4.4-7.2-5.9-15.9-5.5-24.3c-2.2,2.3-4.1,4.9-6.1,7.4C-126.2,311.3-127.1,300.7-124.5,290.8z"/>
	<path class="st2" d="M115,261.3c8.4,10.1,14.7,22.3,16.5,35.5c1.3,8.2-0.4,16.6-3.7,24.1c-1.6-2.9-3.5-5.5-5.9-7.8
		c0.5,10.2-2,20.9-8.8,28.7c-3.8,4.7-9.1,8-14.6,10.4c1.3-5.4,0.7-11,0-16.4c4-3.3,8.1-7.5,8.4-12.9c0.4-3.3-1.7-5.9-3.3-8.5
		c3.8,0,8,2,11.6,0.3c-2.9-1.4-5.5-3.5-8-5.5l0.1-0.2c2.7-4,1.6-9.1,0.8-13.4c-1.3-5.6-4.7-12.6-11.4-12.3
		c-0.2-4.6-0.6-10.4,3.2-13.7c3.4-1,5.8,2.4,7.1,5c1.3,2.2,1.4,5,3.4,6.8C114,275.2,115.7,268.3,115,261.3z"/>
	<path class="st2" d="M68.6,347.2c1.4-6.6,3-13.2,6.1-19.2c-0.7,3.8,0.1,8.3,3.7,10.5c6.2,3.7,13.7,1,19.6-2.1
		c-4.4,12.4-15.6,22.2-28.5,24.7c-2.2-3.7-5.6-6.5-8.9-9.1c2.3,13.1,0,26.9-6.4,38.5c3.2-1.1,6.3-2.6,9-4.6
		c-3.6,5.6-7.6,11-12.1,15.8c-0.6-1.8-1.2-3.5-1.8-5.3c-10.5,3.3-21,6.9-31.4,10.5c-5-4-9.8-8.2-14.9-12.1c-5.1,3.9-9.9,8-14.9,12.1
		c-10.4-3.7-20.8-7.2-31.3-10.6c-0.7,1.7-1.3,3.4-2,5.1c-4.5-4.9-8.3-10.4-12.4-15.7c2.9,1.8,6,3.6,9.3,4.6
		c-6.5-11.6-8.5-25.4-6.3-38.4c-3.3,2.6-6.8,5.2-8.9,9c-13-2.3-23.9-12.3-28.6-24.5c5.8,3.2,13.4,5.6,19.4,1.7
		c3.3-2,3.5-6.2,4.1-9.5c3.1,5.8,4.3,12.2,6,18.5c1.3-2.1,2.4-4.2,3.5-6.4c2.8,2.5,5.8,4.8,9,6.7c-0.2,0.3-0.6,0.8-0.8,1.1
		c8.7,2.3,17,5.6,24.8,10.1c-5.7-1-11.4,0.8-17.1,1.2c0,9.3,1.3,19.4,7.6,26.7c3,3.8,7.8,5.1,12,7c5,2,9.7,4.5,14.8,6.2
		c4.2-2.6,7.2-6.7,10.3-10.4l0.3-0.3c0.3,0.7,0.9,2.2,1.2,2.9c0.4-0.9,0.9-1.7,1.3-2.6c2.8,3.9,5.9,7.6,9.8,10.5
		c5.1-1.6,9.9-4.2,14.9-6.2c4.3-2.1,9.4-3.3,12.4-7.4c5.9-7.3,7.4-17.1,7.4-26.3c-5.5-0.8-11-2.1-16.5-1.5
		c7.6-4.3,15.7-7.5,24.1-9.9c0-0.3,0.1-1,0.2-1.3c2.7-2.5,5.9-4.4,8.4-7.1C66,342.7,67.2,345,68.6,347.2z"/>
</g>
<g id="_x23_fdfdfdff">
	<path class="st3" d="M-48.6,233.6c1.3,0,2.5,0,3.8,0c1.9,3.6,2.7,7.6,3.3,11.6c-1.7-1-3.4-1.9-5.3-2.4
		C-47.5,239.8-48.1,236.7-48.6,233.6z"/>
</g>
<g id="_x23_fcfbfbff">
	<path class="st4" d="M47.5,245.1c0.3-4,1.4-7.9,3.2-11.5c1.4,0,2.7,0,4.1,0.1c-0.5,3-1,6-1.6,9C51.3,243.3,49.4,244.1,47.5,245.1z"
		/>
</g>
<g id="_x23_b5b6b5ff">
	<path class="st5" d="M54.9,233.7c10-0.4,19.9,1.8,29.3,5c-4.6,0.1-9.1-0.9-13.7-0.7c0.8,0.7,2.4,2.1,3.1,2.8
		c-5.6-1.3-11.4-2.1-17.1-1.5c-0.3,1.3-0.5,2.6-0.8,3.8c-0.6-0.1-1.8-0.4-2.4-0.6C53.8,239.6,54.4,236.6,54.9,233.7z"/>
</g>
<g id="_x23_f4f2f2ff">
	<path class="st6" d="M-37.5,247.2c-0.1-2.2-0.1-4.4-0.1-6.6c1,2.6,1.7,5.3,2.2,8C-35.9,248.2-37,247.5-37.5,247.2z"/>
	<path class="st6" d="M-14.2,311.2c1.4-0.6,2.7-1.3,4.1-1.8c2,0.1,4,0.4,5.9,0.7c-1.1,0.3-3.4,0.9-4.5,1.2c1.2,1,2.3,1.9,3.5,2.9
		c-1.9,0-3.8,0-5.7,0c5,1.3,7.6,5.9,10.5,9.8c-4.6-2-8.4-6.1-13.8-5.8c1.7,2.8,3.1,6.1,5.9,8c2.3,1.1,4.9,1.4,7.3,1.8
		c0.4-0.4,1.1-1.2,1.5-1.6c0.1,1.7,0.1,3.4,0.1,5c-0.4,0-1.2,0.1-1.6,0.1l0.9-1.2c-1.3-0.1-2.6-0.2-3.8-0.4
		c-4.3-1.1-7.8-3.7-10.2-7.3c-0.3,4.9,2.6,8.9,4.6,13.2l-0.3,2.3c-3.4-5.5-7.2-11.5-7.3-18.3c-0.1-3.4,2.4-6,5.2-7.5
		C-12.5,311.9-13.6,311.4-14.2,311.2z"/>
</g>
<g id="_x23_f3f5f5ff">
	<path class="st7" d="M41.2,248.7c0.5-2.8,1.3-5.6,2.5-8.2c-0.1,2.2-0.2,4.4-0.2,6.6C42.7,247.6,42,248.2,41.2,248.7z"/>
	<path class="st7" d="M-28.1,249c1.4,1.5,2.2,3.4,2.1,5.5C-27.7,253.2-27.6,250.9-28.1,249z"/>
	<path class="st7" d="M32,253.8c-0.7-1.3-0.5-2.1,0.8-2.4C33.6,252.8,33.3,253.6,32,253.8z"/>
	<path class="st7" d="M13.9,296c4.7,0.2,6.9,4.7,10.6,6.9c-1.2-0.3-3.5-1-4.6-1.4c1.2,2.8,2,5.8,2.9,8.7c-2.2-2.2-2.9-5.2-4.3-7.8
		c-3-3.4-8.2-1.8-11.8-0.3c2.9-3.2,7.6-3.9,11.7-2.8C16.9,298.2,15.3,297.1,13.9,296z"/>
	<path class="st7" d="M28.2,314.6c1.1,4.3,3.2,8.2,4.6,12.4c1.3,4.6,0.6,9.5-0.9,14c-0.6-2.2-1.5-4.2-2.6-6.1
		c-1.7,5.6-2.2,11.4-1.7,17.2c-3.2-7.1-1.4-15.2,0.7-22.3c1.1,1.2,2.2,2.4,3.5,3.4C30.9,326.9,28.6,321,28.2,314.6z"/>
	<path class="st7" d="M-4.2,332.7c0.9,2.4,2.4,4.6,4.1,6.5c-2.1-0.9-4-2.7-6.4-2.3C-5.7,335.5-4.9,334.1-4.2,332.7z"/>
</g>
<g id="_x23_9d9eb5ff">
	<path class="st8" d="M-31.8,248.4c1.3,0.3,1.5,1.1,0.6,2.4C-32.5,250.5-32.7,249.7-31.8,248.4z"/>
</g>
<g id="_x23_b8b9cbff">
	<path class="st9" d="M37.8,250.7c-1.5,0.5-1.4-2.8,0-2.4C37.8,248.9,37.8,250.1,37.8,250.7z"/>
</g>
<g id="_x23_fefefcff">
	<path class="st10" d="M-44.1,248.7c5,3.3,10.5,5.7,15.7,8.5c0,0.4,0,1.2,0,1.6c-4.9,4.1-10.7,7.2-16.8,9.2c1.7-2.3,4.5-3.2,6.9-4.5
		c-0.8-0.7-1.6-1.4-2.4-2.1c-1.9-1.9-4.4-3.6-5.4-6.3C-46.3,252.8-45,250.8-44.1,248.7z"/>
	<path class="st10" d="M-8.4,350.8c1.6,3.1,2.6,6.8,5.7,8.8c3.8,0.4,7.7,0.1,11.5,0.1c2.6-2.4,4.1-5.6,5.3-8.9
		c0.6,5.7-0.7,11.6-4.3,16.1c0-1.2,0-3.5,0-4.7c-1.7,3.6-3.8,7-6.8,9.7c-2.9-2.7-5.2-6-6.8-9.6c0,1.2,0.1,3.5,0.1,4.6
		C-7.5,362.4-8.7,356.5-8.4,350.8z"/>
	<path class="st10" d="M2.9,436.1c3.3-7.3,5.8-14.8,8.9-22.1c2.9,0,5.8,0,8.7,0c3,7.6,6,15.2,8.9,22.9c-2.4-0.2-4.8-0.3-7.2-0.4
		c-0.7-1-1.1-2.2-2.1-2.9c-2.8-0.4-5.6-0.2-8.4-0.3c-0.4,1-0.9,2-1.4,2.9C7.9,436.1,5.4,436.1,2.9,436.1 M14.1,428.1
		c1.6,0.4,3.2,0.5,4.8,0.6c-0.9-2.6-1.8-5.3-2.6-7.9C15.8,423.2,13.8,425.6,14.1,428.1z"/>
</g>
<g id="_x23_fdfdfcff">
	<path class="st11" d="M34.3,257c5.4-2.4,10.7-5.1,15.7-8.3c0.9,2.2,2.3,4.4,1.7,6.9c-1.1,2.5-3.4,4.1-5.2,6c-0.7,0.7-1.3,1.4-2,2
		c2.5,1.3,4.9,2.6,6.9,4.6c-6.3-1.8-12.1-5.1-17.2-9.2C34.2,258.4,34.2,257.4,34.3,257z"/>
</g>
<g id="_x23_b5b5b4ff">
	<path class="st12" d="M51.5,264.9c8-6.8,19.2-11.7,29.7-7.5c-4.3,6.2-12,9.1-19.3,9.7c-3.2,0.2-6.2,1.4-9.3,1.7
		c-0.1,0-0.2,0.1-0.3,0.1c-0.2-0.2-0.6-0.5-0.8-0.7c-2-1.9-4.4-3.3-6.9-4.6c0.7-0.7,1.3-1.4,2-2C48.1,262.7,49.8,263.8,51.5,264.9z"
		/>
</g>
<g id="_x23_e2e4e9ff">
	<path class="st13" d="M52.2,268.8c0.1,0,0.2-0.1,0.3-0.1L52.2,268.8z"/>
</g>
<g id="_x23_fffffdff">
	<path class="st14" d="M-98.9,286.8c1.7-2.7,4.8-3.5,7.9-3.5c-0.8,9.7-4.4,19.5-11.3,26.5C-105.1,302.3-103.6,293.3-98.9,286.8z"/>
</g>
<g id="_x23_fefffeff">
	<path class="st15" d="M96.9,283.3c6.8-0.3,10.1,6.7,11.4,12.3c0.8,4.4,1.9,9.5-0.8,13.4C100.9,302.1,97.9,292.6,96.9,283.3z"/>
	<path class="st15" d="M-50.8,466c42.7-3,85.7-2.3,128.3,2.7c1,0.3,2.7-0.1,3,1.3c0.4,3.5,0.5,7.1,0.9,10.6
		c-5.9-0.9-11.8-1.4-17.8-2.1c1,12.2,1.9,24.5,2.8,36.7c-5.8-0.3-11.6-0.9-17.4-1.4c-0.8-12.2-1.4-24.4-2.2-36.6
		c-6.6-0.4-13.3-0.9-19.9-1c0.4,12.1,0.9,24.2,1.2,36.3c-5.8,0.3-11.6-0.4-17.5-0.5c-0.1-12.2-0.6-24.4-0.6-36.6
		c-20.5,0-40.9,0.7-61.4,2C-51.3,473.6-51.2,469.8-50.8,466 M52.2,487.1c0.2,7.5,0.5,15.1,1.2,22.6c2.8,0.4,5.5,0.7,8.3,0.6
		c-0.6-7.8-1.1-15.5-1.8-23.3C57.4,487.1,54.8,487.1,52.2,487.1 M15,488.1c-0.5,6.6,0,13.2,0.1,19.8c2.8,0.1,5.6,0.1,8.4,0.2
		c-0.3-6.6,0-13.3-0.8-19.9C20.1,488.2,17.5,488.2,15,488.1z"/>
</g>
<g id="_x23_fefdfcff">
	<path class="st16" d="M-17.3,294.1c5-0.3,9.3-2.8,14.1-3.7c2.9-0.7,4.7,2.1,5.6,4.4c-1.6,0.8-3.1,1.8-4.4,3.1
		c1.3-0.1,3.9-0.4,5.2-0.5c-1.9,2-3.3,4.5-5.7,6c-3.8,2.3-8-1.6-11.9,0.1c-2.2,0.6-3.6,2.6-4.6,4.6c0.5,0.1,1.4,0.4,1.9,0.6
		c-5.1,4.1-6.8,11.5-5.3,17.6c0.8,4,3,7.4,5.2,10.6c1.9,2.6,1,5.9,1.1,8.9c-0.2,5.4,1.6,10.6,4.3,15.2c-4.1-3.1-7-7.4-8.9-12.1
		c-0.7,0.6-2,1.9-2.7,2.5c0.4-5.1,1-10.5-0.9-15.4c-0.7,1.8-1.8,3.5-3.1,5c-1-4.3-2.9-9-1-13.3c1.8-4.1,3.4-8.3,4.3-12.8
		c-1.7,0.6-3.3,1.3-5,2c5.1-3.7,5-10.6,8.7-15.3l-4.6,1c3.6-1.3,5.3-5.8,9.6-5.8C-15.9,296.1-16.6,295.1-17.3,294.1z"/>
</g>
<g id="_x23_a8a9adff">
	<path class="st17" d="M-10.1,309.4c4.6-1.2,9.8,0.3,13,3.8c2.1-2.1,4.7-3.4,7.5-4c-1.8,2.1-3.9,4-6.7,4.7c-0.5,2.5-0.8,5.1-1.3,7.6
		c-0.9,0.8-1.8,1.7-2.8,2.4c-2.9-3.9-5.4-8.5-10.5-9.8c1.9,0,3.8,0,5.7,0c-1.2-1-2.3-1.9-3.5-2.9c1.1-0.3,3.3-0.9,4.5-1.2
		C-6.1,309.8-8.1,309.5-10.1,309.4z"/>
</g>
<g id="_x23_6d6e6fff">
	<path class="st18" d="M10.4,309.2l0.3-0.4c3,0.2,6,0.6,8.7,2c-0.4,0.5-1.1,1.3-1.5,1.8c2.6,1.1,4.7,3.3,4.9,6.2
		c0.6,6.8-3.7,12.6-6.5,18.4c-1.1-1.8-2-3.7-3.3-5.4c-1.6-2-4.4-1.7-6.7-1.9c0.1,0.5,0.2,1.3,0.2,1.8c-0.9,0.3-1.7,0.5-2.6,0.8
		c0.7-2.6,0.8-5.3,0.1-7.8c0.9,1,1.9,2.1,2.8,3.2c2.4-0.5,4.9-0.8,7.2-1.9c2.8-2,4.2-5.2,5.9-8.1c-4.3,0.2-7.9,2.5-11.4,4.8
		c-2.1,1.6-4.3-0.5-6.2-1.3c0.5-2.5,0.8-5.1,1.3-7.6C6.5,313.2,8.6,311.3,10.4,309.2z"/>
</g>
<g id="_x23_ffffffff">
	<path class="st19" d="M-97.8,314.3c6.3-0.5,13.2-0.7,18.8,2.7c4.7,2.6,8,7,10.4,11.7c-0.6,3.4-0.8,7.5-4.1,9.5
		c-6,3.9-13.7,1.4-19.4-1.7c-0.2-0.1-0.6-0.4-0.9-0.6c-4.2-3.3-8.3-7.5-8.7-13.1C-102.2,319.5-99.6,316.8-97.8,314.3z"/>
	<path class="st19" d="M74.7,328c3.1-6.1,8.4-11.4,15.2-13c4.5-1.3,9.2-0.9,13.8-0.5c1.6,2.6,3.7,5.3,3.3,8.5
		c-0.3,5.5-4.4,9.6-8.4,12.9c-0.1,0.1-0.4,0.3-0.6,0.4c-5.8,3.1-13.4,5.8-19.6,2.1C74.8,336.3,74,331.8,74.7,328z"/>
	<path class="st19" d="M-43.3,359.8c5.7-0.4,11.4-2.2,17.1-1.2c3,1.9,5.8,4.1,8.8,6.1c-5.1,0.4-10.3,1.3-14.9,3.8
		c13.8,0.6,27.5,8.3,33.7,20.9c-3.1,3.7-6.1,7.8-10.3,10.4c-5.1-1.7-9.9-4.2-14.8-6.2c-4.2-2-9-3.2-12-7
		C-41.9,379.2-43.3,369.1-43.3,359.8z"/>
	<path class="st19" d="M23.1,364.9c3-2.1,5.9-4.3,9-6.3c5.6-0.7,11.1,0.7,16.5,1.5c0.1,9.1-1.5,18.9-7.4,26.3
		c-3,4.1-8.1,5.3-12.4,7.4c-5,2-9.8,4.6-14.9,6.2c-3.9-2.9-7-6.6-9.8-10.5c6.6-12.5,20.2-20.4,34.2-20.9
		C33.6,366.3,28.4,364.9,23.1,364.9z"/>
</g>
<g id="_x23_111343ff">
	<path class="st20" d="M-14.2,318.1c5.4-0.3,9.2,3.8,13.8,5.8c0.9-0.8,1.9-1.6,2.8-2.4c2,0.8,4.2,3,6.2,1.3
		c3.5-2.3,7.1-4.6,11.4-4.8c-1.6,2.9-3.1,6.1-5.9,8.1c-2.2,1.1-4.8,1.4-7.2,1.9c-0.9-1.1-1.8-2.2-2.8-3.2c-0.5,0-1.6,0-2.1-0.1
		c-0.5,0.6-1,1.1-1.5,1.6c-0.4,0.4-1.1,1.2-1.5,1.6c-2.5-0.4-5.1-0.6-7.3-1.8C-11,324.2-12.5,321-14.2,318.1 M-8,323.2
		c-0.4,1.5,3.3,2.8,3.7,1.2C-5.2,323.5-6.7,322.8-8,323.2 M10.3,324.9c1.2,0.8,3.7-0.2,3.6-1.8C12.7,322.8,10.4,323.5,10.3,324.9z"
		/>
</g>
<g id="_x23_a8a6abff">
	<path class="st21" d="M-14.1,322.5c2.4,3.6,6,6.3,10.2,7.3c-2.8,1-4.7,3.1-5.6,5.8C-11.5,331.5-14.4,327.5-14.1,322.5z"/>
</g>
<g id="_x23_36659fff">
	<path class="st22" d="M-8,323.2c1.3-0.4,2.8,0.3,3.7,1.2C-4.7,326-8.4,324.7-8,323.2z"/>
</g>
<g id="_x23_38689aff">
	<path class="st23" d="M10.3,324.9c0.1-1.4,2.4-2.1,3.6-1.8C14,324.6,11.5,325.6,10.3,324.9z"/>
</g>
<g id="_x23_04adf0ff">
	<path class="st24" d="M-58.4,327.2c6.8-1.5,13.6-2.6,20.5-3.7c2.3-0.4,4.6,0.5,6.8,1.1c-0.3,2.8,0.2,5.8-1.1,8.3
		c-3.1,1.2-6.5,1.4-9.7,1.8C-46.6,330.6-52.5,328.7-58.4,327.2z"/>
</g>
<g id="_x23_a6aaaaff">
	<path class="st25" d="M0.6,326.3c0.5-0.5,1-1.1,1.5-1.6c0.5,0,1.6,0.1,2.1,0.1c0.6,2.6,0.6,5.3-0.1,7.8c0.9-0.3,1.7-0.6,2.6-0.8
		l1.3-0.4c0.1,5.3-9.8,5.5-10.3,0.3l1.3-0.1c0.4,0,1.2-0.1,1.6-0.1C0.7,329.7,0.6,328,0.6,326.3z"/>
</g>
<g id="_x23_03adf2ff">
	<path class="st26" d="M36.7,326.1c6.2,0.7,12.2,2.4,18.3,3.9c-2.6,1.3-4.8,3.1-7.3,4.6c-3.3,0.5-6.7-0.7-9.9-1.4
		C37.5,330.8,37.1,328.4,36.7,326.1z"/>
</g>
<g id="_x23_595a72ff">
	<path class="st27" d="M9.6,332.6c1.5,0.8,2.3,2.3,2.8,4c-2.1,0.8-4.2,1.5-6.3,2.4C7.6,337.1,9,335,9.6,332.6z"/>
</g>
<g id="_x23_fdfdfbff">
	<path class="st28" d="M-59.1,340.8c0.3-1.8,0.5-3.6,0.7-5.4c5.4,1.6,9.8,5.3,13.2,9.8c-1.7,0.7-3.3,1.5-4.9,2.4
		C-53.3,345.5-56.4,343.3-59.1,340.8z"/>
	<path class="st28" d="M85.6,469.7c11.2,1.7,22.6,2.7,33.6,5.5c-5.1,1.5-10.2,3-15.2,4.7c1.9,15.4,3.6,30.9,5.6,46.3
		c1.6,1.2,3.2,2.4,4.7,3.7c-7.8-0.8-15.4-2.4-23.1-3.3C89.8,507.5,87.2,488.7,85.6,469.7 M91.4,484.6c1.7,12.6,2.7,25.3,4.1,37.9
		c3.1,0.8,6.2,1.1,9.4,1.3c-1.5-13.4-3.3-26.8-4.7-40.2C97.2,483.3,94.2,483.6,91.4,484.6z"/>
	<path class="st28" d="M-51.8,483.8c14.8-1.2,29.7-1.9,44.6-1.9c0,3.8,0,7.6-0.1,11.4c-9.3-0.1-18.7,0.5-28,0.9
		c-0.2,2.2-0.3,4.4-0.5,6.6c10.8-0.8,21.7-0.9,32.5-1c0,4.1,0,8.1,0,12.2c-16.8,0.1-33.7,0.9-50.5,2.3
		C-53,504.1-52.5,493.9-51.8,483.8 M-47.6,487.9c0.2,7.2-1.5,14.3-0.9,21.5c8.1-0.4,16.2-1.2,24.4-1.2c5.6-0.5,11.2,0.5,16.7-1
		c-0.2-0.8-0.6-2.3-0.7-3.1c-10.3,0.1-20.7,0.2-31,1c-0.3-0.3-0.8-0.9-1.1-1.2c0.1-4.6,0.6-9.2,0.6-13.8c4.9-1,10-0.4,15-1
		c4.3-0.6,8.6-0.4,12.9-0.8c-5.4-0.7-10.8,0-16.2-0.3C-34.5,487.9-41.1,486.8-47.6,487.9z"/>
</g>
<g id="_x23_fffefcff">
	<path class="st29" d="M51.1,345.1c3.5-4.4,7.8-8.2,13.3-9.8c0.1,1.7,0.4,3.4,0.4,5.1c-2.5,2.7-5.7,4.6-8.4,7.1
		C54.6,346.7,52.9,345.9,51.1,345.1z"/>
</g>
<g id="_x23_fffcffff">
	<path class="st30" d="M-5.8,345.9c-0.7-1.8-0.7-3.6,0.4-5.2c5.5,0.8,11.1,0.7,16.6,0c1.1,1.6,1,3.4,0.3,5.2c-0.6-1-1.1-2-1.7-3
		c-4.5,0.8-9.4,1-13.9-0.1C-4.6,343.9-5.2,344.9-5.8,345.9z"/>
</g>
<g id="_x23_fcfcfbff">
	<path class="st31" d="M-5.1,350.6c1.3,1.2,2.5,2.4,3.7,3.8c2.5-2,6.4-2,8.8,0c1.2-1.4,2.4-2.8,3.7-4c-0.4,1.7-0.2,3.8-1.4,5.2
		c-3.6,1.6-7.9,1.5-11.8,0.6C-4.9,356-4.7,352.7-5.1,350.6z"/>
</g>
<g id="_x23_fefefdff">
	<path class="st32" d="M-29.9,414.7c7-0.1,14-0.8,21.1-0.8c0,1.8,0,3.7,0,5.6c-4.5,0-9.1,0.1-13.6,0.4c0,0.9-0.1,1.9-0.1,2.8
		c4,0.1,8-0.1,12-0.1c0,1.7,0.1,3.4,0.1,5.1c-4,0.1-8,0.5-12,0.4c0,0.9,0.1,1.8,0.1,2.8c4.5,0,9,0,13.5-0.1c0,1.9,0,3.8,0,5.6
		c-7-0.1-14,0.3-21,0.5C-29.9,429.6-29.8,422.1-29.9,414.7z"/>
	<path class="st32" d="M41.5,415c2.8,0.4,5.7,0.4,8.5,0.7c2.5,3,3.9,6.8,6.1,10c1.9-3,3.8-5.9,5.6-8.9c2.9,0.3,5.9,0.5,8.8,0.7
		c0.3,7.5,0.2,14.9,0.1,22.4c-2.4-0.1-4.7-0.4-7-0.8c-0.2-4-0.2-8,0-12.1c-2.4,4-5.1,7.7-7.4,11.7c-2.6-4.3-5.1-8.6-7.6-12.9
		c0.2,4,0.1,8.1,0.1,12.1c-2.4-0.1-4.8-0.4-7.1-0.6C41.3,429.9,41.3,422.4,41.5,415z"/>
	<path class="st32" d="M-76.4,468.5c6.5-0.9,13-1.5,19.5-1.9c-0.7,9-1.1,17.9-1.8,26.9c-0.3,4-2.4,8.2-6.4,9.5
		c-3.7,0.9-7.5,1.1-11.3,1.4c-0.7,7.4-1.5,14.8-2,22.3c-8.4,0.7-16.6,2.2-24.9,3.2c2.2-2,4.4-3.9,6.6-5.9c0.8-5.7,1.2-11.5,1.8-17.2
		c-3.6,0.2-7.3,1.7-10.9,0.9c-2.3-1.4-3.6-4.2-3.2-6.9c0.8-7.1,1.7-14.2,2.5-21.3c-4.5-1.8-9.2-2.9-13.8-4.4
		c10.9-2.6,22.1-3.7,33.2-5.4c-1,8.4-1.8,16.9-2.8,25.4c3.7-0.5,7.3-1,11-1.5C-77.9,485.3-77.4,476.9-76.4,468.5 M-102,482.3
		c-0.9,7.1-2.6,14.3-2.2,21.5c4.7-0.6,9.3-1.5,14-1.8c-0.2,7.3-1.2,14.5-1.8,21.7c3.2-0.1,6.4-0.6,9.5-1.3c0.9-7.3,1-14.6,2-21.9
		c4.7-0.8,9.6-0.8,14.3-1.8c4.1-2.5,3.4-8.3,3.1-12.4c-3.4-0.3-6.8-0.6-10.2-0.9c-0.7,4-1.1,8-1.2,12c-6.2,0.9-12.4,1.4-18.5,2.5
		c-0.4-0.2-1.1-0.6-1.5-0.7c0.5-5.1,1.5-10.2,1.3-15.4C-95.8,482.5-99.1,482.9-102,482.3z"/>
</g>
<g id="_x23_fefffcff">
	<path class="st33" d="M-64.8,417.7c7.5-1.1,15.1-1.4,22.7-2.3c0,1.9,0,3.7,0,5.6c-2.6,0.2-5.3,0.4-7.9,0.8c0,5.6,0.5,11.2-0.3,16.7
		c-2.3,0.3-4.6,0.4-6.9,0.6c-0.1-5.7,0.1-11.3-0.1-16.9c-2.4,0.4-4.9,0.7-7.4,1C-64.7,421.4-64.8,419.5-64.8,417.7z"/>
</g>
<g id="_x23_181342ff">
	<path class="st34" d="M14.1,428.1c-0.3-2.5,1.6-4.8,2.1-7.3c0.8,2.7,1.8,5.3,2.6,7.9C17.3,428.5,15.7,428.5,14.1,428.1z"/>
</g>
<g id="_x23_a4ddf8ff">
	<path class="st35" d="M-102,482.3c2.9,0.6,6.1,0.2,8.8,1.6c0.1,5.2-0.9,10.2-1.3,15.4c0.4,0.2,1.1,0.6,1.5,0.7
		c6.2-1.1,12.4-1.5,18.5-2.5c0.1-4,0.5-8.1,1.2-12c3.4,0.2,6.8,0.6,10.2,0.9c0.3,4.1,1,9.9-3.1,12.4c-4.7,1-9.6,1-14.3,1.8
		c-1,7.3-1.2,14.6-2,21.9c-3.1,0.7-6.3,1.1-9.5,1.3c0.6-7.2,1.6-14.4,1.8-21.7c-4.7,0.3-9.3,1.2-14,1.8
		C-104.6,496.6-102.9,489.4-102,482.3z"/>
	<path class="st35" d="M91.4,484.6c2.8-1,5.8-1.3,8.7-1c1.4,13.4,3.2,26.8,4.7,40.2c-3.2-0.1-6.3-0.5-9.4-1.3
		C94.1,509.9,93.1,497.2,91.4,484.6z"/>
</g>
<g id="_x23_a2def9ff">
	<path class="st36" d="M52.2,487.1c2.6,0,5.2-0.1,7.8-0.1c0.6,7.8,1.2,15.5,1.8,23.3c-2.8,0.1-5.6-0.2-8.3-0.6
		C52.6,502.2,52.4,494.7,52.2,487.1z"/>
</g>
<g id="_x23_a3ddf8ff">
	<path class="st37" d="M-47.6,487.9c6.5-1.1,13.1,0,19.6,0.2c5.4,0.3,10.8-0.4,16.2,0.3c-4.3,0.4-8.6,0.2-12.9,0.8c-5,0.6-10,0-15,1
		c0,4.6-0.4,9.2-0.6,13.8c0.3,0.3,0.8,0.9,1.1,1.2c10.3-0.9,20.7-0.9,31-1c0.2,0.8,0.6,2.3,0.7,3.1c-5.4,1.5-11.1,0.5-16.7,1
		c-8.2,0.1-16.3,0.9-24.4,1.2C-49.1,502.3-47.4,495.1-47.6,487.9z"/>
</g>
<g id="_x23_a5ddf8ff">
	<path class="st38" d="M15,488.1c2.6,0,5.2,0.1,7.8,0.1c0.8,6.6,0.5,13.3,0.8,19.9c-2.8,0-5.6-0.1-8.4-0.2
		C14.9,501.4,14.5,494.7,15,488.1z"/>
</g>
<g id="_x23_00adf1ff">
	<path class="st39" d="M-66.8,545.1c13.4-3,27.2-3.4,40.8-4.5c1.5-0.1,3.2-0.3,4.6,0.7c7.6,4.7,15.4,9.1,23.5,13.1
		c8.2-3.6,15.8-8.3,23.5-12.9c2.5-1.7,5.7-0.9,8.5-1c8.1,0.7,16.2,0.8,24.3,2.2c-17.1,14.8-36.1,27.3-56,38
		c-0.1,3.4-0.1,6.7-0.1,10.1c-1.3-0.4-2.6-0.9-3.8-1.5c-22.5-12-44-25.9-63.6-42.2C-66,546.6-66.5,545.9-66.8,545.1z"/>
</g>
</svg>
