<?xml version="1.0" encoding="utf-8"?>
<!-- Generator: Adobe Illustrator 19.0.0, SVG Export Plug-In . SVG Version: 6.00 Build 0)  -->
<svg version="1.1" id="Layer_1" xmlns="http://www.w3.org/2000/svg" xmlns:xlink="http://www.w3.org/1999/xlink" x="0px" y="0px"
	 viewBox="-127.3 296.7 200.7 198.3" style="enable-background:new -127.3 296.7 200.7 198.3;" xml:space="preserve">
<g id="_x23_ffffffff">
</g>
<g id="_x23_000000ff">
	<path d="M-27.1,297.5c11.1-0.8,22.3-1.4,33.4,0.2c-12.3,3.3-24.4,8.9-33,18.6c-5.8,6.4-9.3,15-9.1,23.6c0,35,0,70,0,105
		c0,7.5-2.7,14.8-7.5,20.5C-48.7,472-56,476.7-63.8,480c-11.8,5.1-24.6,7.1-37.3,8.2c-5.4,0.3-10.8,0.8-16.2,0.3
		c12.9-3,25.6-9.4,34.1-19.8c5.2-6.4,8.1-14.6,7.9-22.8c0-33.3,0-66.6,0-99.9c-16.1,0.5-30.8,9.7-40.8,21.9
		c-4.4,5-7.7,10.8-11.2,16.5c0.1-15.3,3.6-30.9,11.7-44c8.1-13.1,20.6-23,34.4-29.5C-64.3,302.8-45.7,299-27.1,297.5z"/>
	<path d="M15.1,309.8c15.6-5.2,32.1-6.9,48.5-6.6c-13.2,3.3-26.3,9.7-34.7,20.6c-4.9,6.2-7.5,14.2-7.4,22.1c0,33.3,0,66.7,0,100
		c12.2-0.4,23.8-5.7,32.9-13.7c8-6.9,14.1-15.6,19.1-24.8c0.1,15.1-3.4,30.5-11.2,43.6c-10,16.7-26.9,28-45,34.4
		c-24.7,8.7-51.4,11.1-77.3,8.9c12.2-3.5,24.5-9,33-18.7c4.8-5.5,8.1-12.3,8.9-19.6c0.8-11.4-0.2-22.8,0.4-34.1c-0.5-12,0-24-0.1-36
		c-0.4-10.3,0-20.7-0.1-31c0.5-6.6-0.6-13.5,2.3-19.6C-10.5,322.2,2.3,314.2,15.1,309.8z"/>
</g>
</svg>
