<?xml version="1.0" encoding="utf-8"?>
<!-- Generator: Adobe Illustrator 21.0.0, SVG Export Plug-In . SVG Version: 6.00 Build 0)  -->
<svg version="1.1" id="Layer_1" xmlns="http://www.w3.org/2000/svg" xmlns:xlink="http://www.w3.org/1999/xlink" x="0px" y="0px"
	 viewBox="0 0 547.3 442.8" style="enable-background:new 0 0 547.3 442.8;" xml:space="preserve">
<style type="text/css">
	.st0{fill:#090909;stroke:#090909;stroke-width:9.375000e-02;}
	.st1{fill:#F2E301;stroke:#F2E301;stroke-width:9.375000e-02;}
</style>
<path class="st0" d="M417.6,44.7c2.7-14.8,4.6-29.8,7.3-44.6c7.5,12.8,14.5,26,21.9,38.9c5.3-5,13.4-6.9,20.3-4.2
	c11.1,4.1,18.1,15.9,18.5,27.4c0.3,5.8-1.5,11.4-2.4,17c15,3.3,29.3,10.6,39.8,21.9c6.3,6.6,10.9,14.7,14,23.2
	c4.2,10.2,7.3,20.9,9,31.8c1.7,10.3,1.3,20.7,1.2,31c0,6.4-0.7,12.9-1.9,19.2c-9.4-10.5-18.2-21.6-28.7-31
	c-3.3-2.9-6.7-5.9-10.8-7.8c-3.4-1.8-8.3-0.2-9.3,3.6c-1.7,6.4,1.9,12.3,4.4,17.9c2.5,5.6,5.9,10.7,9.3,15.8
	c8.3,15,10.3,32.4,10.9,49.2c0.4,23.5-2.9,47.8-14.4,68.7c-9,16.7-24,30.1-41.5,37.5c-2.1,1-4.7,1.4-6.5,3.1
	c27.8,1.7,55.3-5.7,80.6-16.8c-11,18.5-27.7,32.8-45.6,44.3c-31.4,20-69,27.8-105.8,28.7c-26.4,0.6-53-1.5-78.8-7.6
	c-20.3-4.8-40.1-12.2-57.8-23.4c-11.4-7.3-22-15.9-30.3-26.6c-0.6-0.8-1.3-1.5-2-2.1c2.6,12,9.3,22.7,18.1,31.1
	c-14.3,1.1-29.6,0.2-42.1-7.3c4.2,7,10.4,12.6,16.5,18c23.6,19.7,53,30.9,82.8,37.2c-0.7,0.3-1.4,0.6-2.2,0.6
	c-48.2,3.4-96.8,4.9-145-0.2c-22.1-2.7-44.6-6.3-64.6-16.7C59,412,38.1,394.9,24.1,373.1c-5.4-8-9.2-17-13.5-25.6
	C3.8,333.4,0,317.7,0.1,302.1c-0.6-19.8,4.4-39.4,12.6-57.2c8.8-19.4,22.5-36.5,39.3-49.5c11.8-10.8,26.9-16.9,41.7-22.4
	c8.1-1.8,16.1-4.1,24.4-5.2c28.6-4.3,57.9-0.6,85.5,7.6c10.1-12.8,23.2-22.9,36.9-31.6c24.4-15.2,51.7-25.3,79.4-32.6
	c-14.4,12.9-25.9,29.2-32.5,47.4c-3,7.8-5.6,15.9-7.1,24.1c-2.1,12.7-2.2,25.8-0.2,38.5c3.1,14.2,11.7,26.9,23.2,35.7
	c9.9,7.6,21.3,13,33.2,16.6c18.5,2.5,38.8-1.9,52.7-15c9.9-9,15.9-21.6,19.1-34.4c5-19.5,2.6-40.6-5.5-59c-4-9.4-7.5-19-9.3-29
	c-2-11.9,2.5-24.3,10.3-33.3c-3-3.2-6.1-6.4-8.3-10.3c-2.7-5-6-9.8-7.1-15.5c-2.6-10.6,0.7-22.9,9.4-29.8
	C403.4,42.9,411.2,42.1,417.6,44.7 M429.7,30.9c-1,6.5-2.2,12.9-3.3,19.4c1.6,2,3,4.1,4.5,6.2c-1.7,0.7-3.3,1.5-4.8,2.6
	c-3.3-2.8-7.7-5-12.1-3.8c-7.8,2.4-12.7,11.8-9.5,19.4c3.3,7.4,9,13.5,15.6,18.1c5.4-8.1,13.7-14.7,23.4-16.5
	c8.5-2.1,17.5-0.1,25.4,3.4c3.2-7.4,5.2-15.6,4.1-23.7c-1.3-7.8-9.4-13.2-17.1-11.9c-4.8,0.9-7.9,5.1-9.3,9.5
	c-1.8-0.4-3.6-0.2-5.4,0.3c0.2-2.6,0.4-5.3,0.7-7.9C437.9,41,434.2,35.6,429.7,30.9 M426.4,101.5c-2.4,2.3-4.9,4.6-6.4,7.6
	c-6.5,13.6-7,30-0.9,43.8c6,13.1,11,26.8,13.4,41.1c0.9,7.8-0.2,15.8-1.3,23.5c-3.5,20.8-11.7,41.8-27.5,56.3
	c-11.7,11-27.3,16.7-42.9,19c-24.9,4.2-51.6-1.4-71.8-16.7c-10.2-7.3-17.5-18-22.8-29.3c-8.6-18.2-11.2-39-7.9-58.8
	c2.4-15.6,8.4-30.4,15.8-44.2c-27.4,12.5-50.5,35.5-61,64c-17.8-12.5-38.6-21.1-60.2-24.2c-20.5-2.9-41.9,0.4-60.2,10.2
	c-26.3,14.3-48.8,36.9-60.1,64.9c-14.3,34.1-9.4,75.1,11.5,105.4c9.8,14.3,23.2,26.1,38.2,34.8c19,11.1,40.3,17.7,61.9,21.6
	c19.8,3.5,39.9,5,60,4.8c-22.6-9.6-43.5-24.6-56.9-45.5c-8.9-13.7-13.3-30.1-13.2-46.4c10.8,17.6,30.9,28.4,51.4,29.2
	c-14.1-18.3-20.6-42.9-14.8-65.5c4.5-18.3,15.9-34,29.1-47c-15.2,4.9-28.8,14.7-38.3,27.5c-9.9,13.2-15.1,29.5-16.4,45.8
	c-13-13.9-17.5-34.4-13.3-52.7c-16.7,23.9-25.4,54.5-19.8,83.5c2.8,15.5,10.2,29.7,19.2,42.4c-19.8-4.7-38.5-14.4-53.6-28.2
	c-14.6-13.4-24.8-31.6-28.1-51.2c-3.6-20.7-1.7-42.9,8.1-61.7c9.3-18,25.4-31.8,43.5-40.4c9.8-4.6,20.1-8.4,31-9
	c20.2-1.6,41.4,1.5,58.9,12c12.6,7.4,22.5,19,29.1,32c0.4-4.8,1.2-9.5,2.3-14.2c3.1-13.8,8-28.1,18.3-38.3
	c-4,26.8,2.5,55.8,20.1,76.9c12.2,14.7,29.3,24.8,47.3,30.6c19.9,6.5,41.6,9.2,62.2,4.4c17.3-3.9,33-13.4,45.2-26.1
	c10.4-10.9,18.8-23.8,24.3-37.8c7.6-21.6,8.9-45.2,4.5-67.6c-1.3-6-2.5-12.1-5.3-17.6c-2.7-5.8-5.3-11.6-7.5-17.6
	c-1.7-8.3-1-17.3,2.2-25.2c3-7.4,9.7-13,17.4-14.8c10.5-2.5,21.6-0.9,31.7,2.4c16.3,5.5,29.1,19.3,34.5,35.5
	c-6.9-6.2-16.2-8.6-25.2-9.7c-7.6-1.1-15.4,2.8-19.8,9.1c-5.8,8.3-7.6,18.9-6.8,28.9c1,11.1,3.5,22.2,8.3,32.3
	c4.4,9.1,7.4,18.8,10.4,28.5c5.2,18.3,5.4,38.5-1.9,56.3c-5.4,13.4-15.1,24.8-26.7,33.3c-14.1,10.3-30.7,16.8-47.3,21.8
	c-43.1,12.4-90.3,10.9-132.4-5c-15.3-6-29.6-15.1-40.4-27.5c8,31.8,31.2,59,60.5,73.4c19.2,9.8,40.7,14.2,62,16.3
	c43.6,3.8,87.8-3.8,128.4-19.9c-3.9,0-7.5,1.3-11.3,1.9c-26.7,4.6-53.9,7-80.9,4.9c-18.4-1.6-37.1-5.6-52.8-15.8
	c25.3-0.3,50.7-2.9,75.3-9.1c17.3-4.4,34.3-10.7,49.1-20.7c10.3-6.9,19.3-15.9,25.1-26.9c10.4-18.7,14.9-40.5,13.1-61.7
	c-2.3-17.9-7.6-35.3-15.2-51.7c-6.6-11-10.6-24.4-7.6-37.3c1.5-5.6,3.7-11.8,9-15c4.8-2.9,10.8-1.9,15.6,0.2c14,6.1,25,18,30.9,31.9
	c0.4-10.5-1.3-21-4-31.1c-4.8-17.4-14.5-33.9-29.1-44.8C492.3,95.2,479,89.3,465,88C451,86.8,436.6,91.9,426.4,101.5z"/>
<path class="st1" d="M429.7,30.9c4.5,4.6,8.2,10.1,12.2,15.1c-0.3,2.6-0.4,5.3-0.7,7.9c1.8-0.5,3.6-0.7,5.4-0.3
	c1.4-4.4,4.5-8.6,9.3-9.5c7.6-1.3,15.8,4.2,17.1,11.9c1.1,8.1-1,16.3-4.1,23.7c-7.9-3.5-16.8-5.5-25.4-3.4
	c-9.7,1.9-18,8.4-23.4,16.5c-6.6-4.6-12.3-10.7-15.6-18.1c-3.2-7.7,1.7-17,9.5-19.4c4.4-1.3,8.8,1,12.1,3.8c1.4-1.1,3.1-2,4.8-2.6
	c-1.5-2-3-4.1-4.5-6.2C427.5,43.9,428.7,37.4,429.7,30.9 M431.8,40.3c-0.7,2.8-1.3,5.7-1.8,8.5c1.7,1.6,3.4,3.1,5.2,4.5
	C434,49,433,44.7,431.8,40.3 M450.7,59.4c2.9-1.4,6.8-1.8,9.3,0.6c2.3,1.7,2.8,4.6,2.8,7.3c4.5-3,3.7-10.7-1.3-12.8
	C457.2,52.3,452.1,55.2,450.7,59.4 M412.2,70.2c-0.5,4.9,4.2,8.4,8.7,8.5c-2.5-2.1-4.9-5.1-4.1-8.6c0.5-3.3,3.5-5.1,6.1-6.6
	C418.2,61.8,412.4,65,412.2,70.2z"/>
<path class="st0" d="M431.8,40.3c1.1,4.4,2.1,8.8,3.4,13.1c-1.8-1.4-3.6-3-5.2-4.5C430.6,46,431.1,43.1,431.8,40.3z"/>
<path class="st0" d="M450.7,59.4c1.5-4.2,6.6-7.1,10.8-4.8c5,2.1,5.8,9.7,1.3,12.8c0.1-2.7-0.5-5.6-2.8-7.3
	C457.4,57.6,453.6,58,450.7,59.4z"/>
<path class="st0" d="M412.2,70.2c0.2-5.2,6-8.4,10.8-6.8c-2.6,1.6-5.6,3.3-6.1,6.6c-0.9,3.5,1.6,6.5,4.1,8.6
	C416.4,78.5,411.7,75,412.2,70.2z"/>
<path class="st1" d="M426.4,101.5C436.6,91.9,451,86.8,465,88c14,1.2,27.4,7.1,38.6,15.4c14.6,10.9,24.3,27.4,29.1,44.8
	c2.7,10.1,4.4,20.6,4,31.1c-5.9-13.9-16.9-25.9-30.9-31.9c-4.9-2.1-10.9-3.1-15.6-0.2c-5.2,3.2-7.5,9.4-9,15
	c-3,12.9,1,26.2,7.6,37.3c7.5,16.4,12.9,33.8,15.2,51.7c1.8,21.3-2.8,43.1-13.1,61.7c-5.8,11-14.8,20-25.1,26.9
	c-14.9,10-31.9,16.3-49.1,20.7c-24.6,6.2-50,8.8-75.3,9.1c15.7,10.2,34.4,14.2,52.8,15.8c27,2.2,54.2-0.3,80.9-4.9
	c3.8-0.6,7.4-1.9,11.3-1.9c-40.5,16.1-84.8,23.6-128.4,19.9c-21.3-2-42.8-6.5-62-16.3c-29.3-14.5-52.5-41.6-60.5-73.4
	c10.9,12.4,25.1,21.5,40.4,27.5c42.1,15.8,89.3,17.4,132.4,5c16.6-5,33.2-11.5,47.3-21.8c11.6-8.5,21.3-19.9,26.7-33.3
	c7.3-17.8,7.1-38,1.9-56.3c-2.9-9.7-6-19.4-10.4-28.5c-4.9-10.1-7.3-21.2-8.3-32.3c-0.8-10,1-20.5,6.8-28.9
	c4.3-6.3,12.1-10.2,19.8-9.1c9,1.1,18.3,3.5,25.2,9.7c-5.4-16.2-18.2-30-34.5-35.5c-10.1-3.3-21.2-4.9-31.7-2.4
	c-7.8,1.8-14.5,7.4-17.4,14.8c-3.2,7.9-3.9,16.8-2.2,25.2c2.2,6,4.8,11.8,7.5,17.6c2.8,5.5,4,11.6,5.3,17.6
	c4.4,22.4,3.1,46-4.5,67.6c-5.5,14-13.9,26.9-24.3,37.8c-12.2,12.7-28,22.2-45.2,26.1c-20.6,4.8-42.3,2.1-62.2-4.4
	c-18-5.8-35.1-15.9-47.3-30.6c-17.6-21-24.1-50-20.1-76.9c-10.3,10.2-15.1,24.5-18.3,38.3c-1,4.7-1.8,9.4-2.3,14.2
	c-6.6-13-16.4-24.5-29.1-32c-17.6-10.5-38.8-13.7-58.9-12c-10.9,0.6-21.2,4.5-31,9c-18.1,8.6-34.3,22.4-43.5,40.4
	c-9.8,18.8-11.7,41-8.1,61.7c3.4,19.6,13.5,37.8,28.1,51.2c15,13.8,33.8,23.5,53.6,28.2c-9-12.7-16.4-26.9-19.2-42.4
	c-5.6-29,3.1-59.6,19.8-83.5c-4.2,18.4,0.4,38.8,13.3,52.7c1.3-16.3,6.5-32.6,16.4-45.8c9.5-12.8,23.1-22.6,38.3-27.5
	c-13.2,13-24.6,28.7-29.1,47c-5.9,22.6,0.7,47.2,14.8,65.5c-20.5-0.8-40.6-11.6-51.4-29.2c-0.1,16.3,4.3,32.7,13.2,46.4
	c13.3,20.9,34.3,35.9,56.9,45.5c-20.1,0.2-40.2-1.3-60-4.8c-21.6-3.9-42.9-10.5-61.9-21.6c-15-8.7-28.3-20.5-38.2-34.8
	c-20.9-30.3-25.8-71.4-11.5-105.4c11.4-28,33.8-50.6,60.1-64.9c18.3-9.8,39.7-13.1,60.2-10.2c21.6,3.1,42.4,11.6,60.2,24.2
	c10.5-28.5,33.6-51.5,61-64c-7.4,13.8-13.4,28.6-15.8,44.2c-3.3,19.8-0.7,40.6,7.9,58.8c5.3,11.3,12.6,21.9,22.8,29.3
	c20.2,15.3,46.9,20.9,71.8,16.7c15.6-2.3,31.2-8,42.9-19c15.8-14.5,24.1-35.5,27.5-56.3c1.1-7.8,2.2-15.7,1.3-23.5
	c-2.5-14.3-7.4-28-13.4-41.1c-6.1-13.8-5.6-30.2,0.9-43.8C421.5,106.1,424,103.8,426.4,101.5z"/>
</svg>
