<?xml version="1.0" encoding="utf-8"?>
<!-- Generator: Adobe Illustrator 21.0.0, SVG Export Plug-In . SVG Version: 6.00 Build 0)  -->
<svg version="1.1" id="Layer_1" xmlns="http://www.w3.org/2000/svg" xmlns:xlink="http://www.w3.org/1999/xlink" x="0px" y="0px"
	 viewBox="0 0 948.8 936" style="enable-background:new 0 0 948.8 936;" xml:space="preserve">
<style type="text/css">
	.st0{fill:url(#SVGID_1_);}
</style>
<g id="_x23_c4ab5cff">
	<linearGradient id="SVGID_1_" gradientUnits="userSpaceOnUse" x1="474.3763" y1="935.9838" x2="474.3763" y2="-9.094947e-13">
		<stop  offset="0" style="stop-color:#9C742E"/>
		<stop  offset="1" style="stop-color:#FFFDA0"/>
	</linearGradient>
	<path class="st0" d="M375.2,0c10.1,8.1,19.6,16.9,29.5,25.3c25.3,22,50.7,43.9,76,65.9c0.6-0.5,1.1-1.1,1.7-1.6
		c-9.8-21.1-19.1-42.3-28.7-63.5c-0.8-1.7-1.7-3.3-1.8-5.2c2.1,0.3,3.1,2.4,4.4,3.9c24.1,29.4,48.3,58.6,72.4,88
		c1.1-0.6,2.3-1.2,3.4-1.8c-6.5-17-12.5-34.2-18.8-51.3c0.5-0.3,1.4-1,1.9-1.3c11.1,16.7,21.8,33.7,33,50.3
		c3.7,5.3,7,11.1,11.8,15.4c3.9,3.9,9,6.2,13.5,9.2c24.5,15.5,45.8,35.6,64.4,57.8c2.5,3.2,5.5,7.7,3.1,11.8
		c-3.9,6.4-11.9,8.5-16.6,14.3c-1.6,2-0.4,4.6,0.9,6.3c11,14,26,24.1,41.5,32.4c19.1,10.1,38.3,20.2,57.6,30.1
		c-17.8,11-35.7,21.7-53.6,32.5c-0.1-8.4,0.1-16.8-0.1-25.3c-14.2,5.1-28.4,9.9-42.6,15c0.1-5.2,1.2-10.7-0.6-15.8
		c-2.1-4.8-7.8-6-12.3-7.4c-18-4.5-35.7-10.8-51.4-20.8c-9.3-5.8-17.7-12.9-25.2-20.8c2.5,6.9,4.3,14.1,7.2,20.8
		c8.2,18.8,19.6,36.3,33.9,51.1c7,7,14.4,14.7,24.5,16.9c7.7,1.7,15.2-1.8,21.5-6c-2.3,5.8-4.7,11.6-7.1,17.4
		c8.6,3.6,18.5,4.3,27.5,1.6c13.4-3.8,24.6-12.3,37.2-18c-8.2,12.3-16.8,24.4-25.4,36.4c-2.3,3.6-6.7,4.5-10.6,5.4
		c-26.9,5.9-53,16.3-75.9,31.9c1.6-8.6,4.7-17,4.7-25.8c0.6-15.4-3.2-31.1-11.9-44c-10.1-15.3-25.7-26.1-42.1-33.9
		c-18.8-8.9-39.9-12.6-60.5-11c-17.4,1.3-34.5,5.7-50.5,12.5c-0.6,0-1.8-0.1-2.4-0.1c3.2-14.7,11-28.1,19.9-40.1
		c8.6-11.6,18.7-21.9,29.1-31.8c-15.6,0.4-30.2,7.3-42.9,15.9c-23.7,16.5-41.4,40.1-54.9,65.4c-0.7-0.1-2-0.2-2.7-0.3
		c2.4-12.8,4.8-25.7,8.5-38.3c5.2-16,11.9-31.6,21.1-45.6c7.9-11.9,18.5-21.7,27.5-32.7c-17.7,0.9-35.5,5.9-50.1,16.2
		c-12.7,8.9-22.8,21-30.9,34.1c-11.9,19.7-17.7,42.7-18.7,65.5c-1.7,36.1,4.4,73.3,22.8,104.8c9.4,16.2,21.7,30.7,36,42.8
		c12.7,10.9,27.1,19.9,42.7,25.9c19,7.4,39.5,10.6,59.8,10.8c41,0.4,81.6-9.9,119.1-26c29.1-12.4,56.8-28,83.9-44.3
		c13.6-8.4,26.8-17.5,38.9-28c22.5-19.7,41.3-43.6,55-70.2c14.1-27.5,22.4-57.9,25.2-88.7c3.4-36-1.1-72.8-13.9-106.7
		c-10.8-29.1-27.5-55.6-47-79.5c0.5-0.5,1.5-1.4,2-1.9c20.5,24.2,42.2,47.6,59.4,74.3c35.7,54.2,56.5,117.3,63.9,181.5
		c6.5,56.3-0.2,114.1-20.4,167c-13.3,35.7-32.4,69.6-58.5,97.6c-7.4,8-15.2,15.6-23.5,22.6c-5.6,4.8-11.6,9.1-16.9,14.2
		c0.5,0.8,1.1,1.6,1.7,2.5c14.7-9.6,29.9-18.4,43.8-29.2c31.5-23.9,58.4-54.2,76.9-89.2c18.3-34.2,28.3-72.5,31.7-111
		c2.9-31.4,1.3-63.2-4-94.3c-6.5-37.8-18.7-74.2-28.2-111.2c28.9,40.3,52.1,85,66.4,132.6c14.8,48.6,20,99.9,16.3,150.5
		c-3.3,45.2-14.3,89.8-32.2,131.4c-29.1,67.3-72.8,128.8-129.3,175.8c-32.3,27.1-68.5,49.5-106.8,67.1
		c-37.2,17.3-76.8,29.8-117.3,36.2c-49.7,7.9-100.8,6.8-150.2-3.1c-15-3-30-6.6-45-9.8c-4.1-0.6-8.1-2.4-12.3-1.9
		c-0.1,0.3-0.3,1-0.4,1.3c19.4,8.7,38.8,17.4,59,24c34.5,11.7,70.4,19.1,106.8,21.4c11.9,0.4,23.7,1.5,35.6,0.4
		c44.8-1.3,89.2-11,131-27.1c24.7-9.6,48.8-21,71.5-34.7c-14.9,11.4-30.7,21.7-47,31c-36.8,21-75.6,38.7-116.2,50.8
		c-88.7,26.9-185.9,25.5-273.5-5c-50-17.4-96.8-43.9-138.1-77.1C126.1,788.5,77.9,730.3,46.5,663.5C29,626.6,16.5,587.3,9,547.1
		C-1,493.8-3,438.9,4.8,385.2c7.7-53.9,25.4-106.2,51-154.2c16.9-31.6,36.5-62,60.8-88.4c31.1-34.2,68.8-62.1,109.7-83.4
		c3.1-1.5,6.1-3.7,9.7-3.9c-0.6,1.6-2.2,2.2-3.4,3.1c-14.5,10.1-29.1,20.1-42.7,31.5c-24.7,20.3-46.9,43.5-65.6,69.4
		c-36.8,51-59.2,112.1-64.9,174.7c-4.2,48.8,1.9,98.3,16.9,144.9c12.6,39.1,32.5,75.8,57.9,108c22.1,28.1,48.9,52.7,79.3,71.6
		c33,20.7,70.1,34.4,108.4,41.6c48.3,9.2,98.5,7,146.3-4.3c-16.4-4.4-33.2-7.2-49.3-12.7c-36.6-12.8-70.5-33-100-58.2
		c-27.1-23.3-51.1-50.2-71-79.8c-21.9-32.6-38.3-68.9-47.9-107.1c-6.4-25.2-9.9-51.2-10.7-77.1c-1.5-37.9,3.3-76.3,16.6-111.9
		c8.6-23.1,20.5-45,35.4-64.6c16.9-22.2,38.2-40.8,62.1-55.2C338.2,107.9,379,95.8,420,96.9c5.1,0.3,10.3,0.3,15.3-0.9
		c-3.6-9.9-5.5-20.7-11.8-29.4c-14.4-21-30.3-40.9-45.6-61.3C376.6,3.8,375.8,1.9,375.2,0 M563.9,184.1c1.6,7,3.7,13.9,6.5,20.4
		c2.9,6.7,6.7,14.3,14,16.9c6.8,2.2,13.7-0.7,19.7-3.8c-0.8-7.3-4.5-14.2-10.5-18.4C584.5,192.8,573.2,190.4,563.9,184.1z"/>
</g>
</svg>
