<?xml version="1.0" encoding="utf-8"?>
<!-- Generator: Adobe Illustrator 19.0.0, SVG Export Plug-In . SVG Version: 6.00 Build 0)  -->
<svg version="1.1" id="Layer_1" xmlns="http://www.w3.org/2000/svg" xmlns:xlink="http://www.w3.org/1999/xlink" x="0px" y="0px"
	 viewBox="20.8 371.8 415.9 92.7" style="enable-background:new 20.8 371.8 415.9 92.7;" xml:space="preserve">
<style type="text/css">
	.st0{fill:#DC3232;}
</style>
<g id="_x23_dc3232ff">
	<path class="st0" d="M141.3,372.4c3.7-1.9,7.2,1.3,10.8,2c3.6,1.3,8.1,3.2,8.7,7.4c7.4-0.6,14.7,0.5,22.1-0.3
		c9-0.8,18.1-0.5,27,0.7c2.2,0.4,4.5,1.6,4.7,4.1c-4.2-0.1-8.3-1.3-12.5-0.8c-9.7,1.1-19.8,1.3-28.8,5.6c-3.9,3.1-9.1,4.1-14,3.3
		c-2.6-0.7-4.6-2.6-6.7-4.2c0.1-1.5,0.1-2.9,0.2-4.4c0.5-0.4,1.6-1.2,2.1-1.5c-2.6-0.5-5.2-1.6-7.8-1.1c-6,2.1-12.1,6.4-13.3,13.1
		c-0.3,5.6-1.5,11.1-1.6,16.7c2.8,2.4,6.6,1,9.9,1.4c3.1,0.4,6.2,1.1,9.3,1.4c-0.3,1.3-1,2.8-2.5,2.5c-5.4,0.1-10.8-0.2-16.2,0.7
		c-0.5,2.3-2.3,3.9-3.4,5.8c-0.1,5,0.9,9.9,0.8,14.9c0.1,6,0,12.1,2.1,17.8c0.9,2.2,0.2,4.7-1.1,6.6c-2,1-3.5-1.5-4.7-2.8
		c-2.1-2.4-1.7-5.8-0.2-8.4c-0.8-5.7-0.9-11.5-1.3-17.3c-1.6-9.5-2.8-19.2-2.6-28.9c-0.8-7.9-0.3-16.1,2.2-23.7c0.7-2.7,3.9-2,6-2.8
		C134.7,378.7,137.8,375.2,141.3,372.4z"/>
	<path class="st0" d="M26.5,376c1.8-2.4,4.7-2.9,7.5-3.3c2.1,1.5,5.1,2.6,5.8,5.4c0.6,1.6,0,3.3-0.3,4.9c-1.1,1.1-2.2,2.3-2.4,3.9
		c-2.2,7.1-2.5,14.7-4.7,21.8c-1.5,12.4-4.1,24.6-5,37.1c2.9-0.6,5.9-1.2,8.8-0.6c3.7,0.9,7.1-1.8,10.8-1.3c3.5,0.4,7.3-0.5,9.9-3
		c1.3-1.1,3-2.6,4.8-1.6c4.7,2.4,6,12.1-0.4,13c-4.1,1.5-8.6,0.5-12.8,1.4c-3.3,0.9-6.2,2.9-9.3,4.2c-5.7,0.4-11.3-0.6-16.9-1.7
		c0.6-9.5,2.6-18.8,2.9-28.3c-0.2-5.7,0.8-11.3,0.5-17c-0.1-5.3,1.1-10.6,0.3-16c-0.3-3.3-0.4-6.7-0.8-10
		C26.1,382,26.6,379,26.5,376z"/>
	<path class="st0" d="M363.8,379.2c3.2-0.4,5.9-2.7,9.2-2.3c4.4,0.1,9.2-0.5,13.1,2c4.5,2.6,6.4,7.9,7.4,12.7
		c1.6,5.5-0.2,11.1-0.7,16.5c-0.8,5.4-6.3,7.7-10.2,10.6c2.4,10.1,8.7,18.5,13,27.9c1.6,4,4,7.8,7.2,10.8c1.8,1.7,3.4,3.7,4.6,5.8
		c-2.6,0.5-4.8-1.4-6.7-2.8c-3-2.3-5.2-5.5-7.3-8.7c-4.1-6.2-10.4-10.4-14.6-16.4c-4-5.1-7.5-11.8-14.4-13.5
		c-2.3,10.2-3.7,20.6-3.9,31c1.2,1.6,1.9,3.5,2,5.5c-3.6,1.8-6.2-2.1-6.2-5.3c-0.7-14.2,3.6-28,4.1-42.1c0.1-5.4,1.9-10.6,1.9-16
		c0-2.4,1.3-4.6,1.2-7C363.6,385,362.5,382,363.8,379.2 M371.5,385.5c-2.4,5.5-1.7,11.7-3.9,17.2c-1.3,3-1.1,6.2-1.1,9.4
		c0.6,0.1,1.8,0.4,2.4,0.5c4.3-1.2,9.6-1.3,12.2-5.5c0.5-2.4,0.5-4.9,0.7-7.3c0.5-1.3,1-2.5,0.8-3.9c-0.3-3.5,0.4-7.2-1.2-10.5
		C378.2,383.9,374.7,384,371.5,385.5z"/>
	<path class="st0" d="M73.5,383.2c3.9-2.4,7.5,1.9,11.5,1.2c9.5-0.5,19.3-0.7,28.4,2.3c2.1,1,4.8,2.4,4.7,5.1
		c-2.5,0.5-4.7-1.1-7.1-1.4c-4.2,0.4-8.1,1.9-12,3.4c-7.3,1.9-15.1,0.6-22.4,2.6c-2.7,6-2,12.9-2.9,19.3c1.9-0.8,3.6-1.9,5.3-2.9
		c3.6-0.5,7.4-0.3,11-0.2c4.5,1.2,9.1,2.1,13.6,3.1c-1.9,3.3-5.8,1.4-8.8,1.9c-6,0.8-12.1,1.4-18.1,2.6c-1-0.4-2-0.9-2.9-1.5
		c-0.6,8.8,1.8,18.5,8.7,24.4c6.2,5,14.4,5,21.9,6.4c2.1,0.4,5.6,0.4,4.4,3.6c-8.8-0.1-18.1,0.8-26.3-3c-0.7-0.5-1.4-1.1-2.1-1.6
		c-0.4,0.6-1.2,1.7-1.6,2.2c0.5-4.7-4.8-7.3-4.5-11.9c0-2.7-1.2-5.1-2-7.6c-1.6-4.6-1.3-9.4-1.5-14.2c-0.1-6.7,1-13.4,1.5-20.1
		c-0.4-1.9-2.2-3-3.4-4.4C69.3,389.1,69.3,384.3,73.5,383.2z"/>
	<path class="st0" d="M298.1,386.1c1-1.2,2-2.5,2.9-3.7c1.6,0.2,3.6,1.1,2.5,3c-3.1,5.2-5.6,10.7-7.7,16.4c-4.6,8.3-4.5,18-6.6,27.1
		c-1.4,4.9-3.6,9.5-6.6,13.6c-2,2.5-1.7,6.6-4.9,8.3c-2.1,1.4-6,0.9-6.6-1.9c-0.8-9.1-1-18.4-4.3-26.9c-0.9-4.9-2.4-9.6-4.9-14
		c-1.6-2.2-3.9-3.8-4.9-6.4c-0.6-2.5,0.9-5.4,3.3-6.3c3.5-0.7,7.2,1.5,8.6,4.7c1.6,3.1,0.7,6.8,1.9,10c3.3,7.6,4,16,5.9,24.1
		c3-1.5,3.4-5.1,4.7-7.8c2.3-6.2,5-12.3,6.4-18.7c2.3-3.5,3.6-7.5,5.9-11C295.8,393.3,297,389.7,298.1,386.1z"/>
	<path class="st0" d="M308.8,383.5c2.9-2.1,6.2-0.4,9.1,0.7c7,0.7,14.1-0.9,21.1,0.4c4.9,0.8,10.7,0.9,14.4,4.8
		c0.2,0.7,0.6,2,0.9,2.7c-2.5-0.2-4.8-1.2-7.2-1.7c-4.2,0.4-8.1,2-12,3.4c-7.3,1.9-15.1,0.6-22.4,2.6c-2.7,6-2,12.9-2.9,19.3
		c1.9-0.8,3.6-1.9,5.3-2.9c3.9-0.4,7.9-0.4,11.7,0c4.2,1.3,8.6,2,12.9,3c-1.9,3.3-5.8,1.4-8.8,1.9c-6,0.8-12.1,1.4-18.1,2.6
		c-1-0.5-1.9-1-2.8-1.5c-0.6,8.7,1.8,18.4,8.6,24.3c6.2,5.1,14.4,5.1,21.9,6.4c2,0.5,6.1,0.3,4.2,3.5c-5.9-0.2-11.9,0.8-17.8-0.6
		c-3.6-0.8-7.7-1.1-10.4-3.9c-0.4,0.6-1.2,1.7-1.6,2.3c0.4-3.9-2.9-6.4-4.2-9.8c-0.2-2.8-0.6-5.6-1.7-8.1c-2.1-5-1.8-10.5-2.1-15.8
		c-0.1-6.7,1-13.4,1.5-20.1c-0.4-1.9-2.2-3-3.4-4.4C305.4,389.4,305,384.8,308.8,383.5z"/>
	<path class="st0" d="M424,387c2.2-0.7,4.8-2.9,7.1-1.3c2.9,3.7,6.2,8.1,4.4,13.1c-3.2-0.5-6.4-1.6-8.4-4.3
		c-5-0.9-10.8-0.9-14.8,2.7c-2.8,2.2-5.1,6-3.6,9.6c1.1,3.4,4.8,4.8,7.3,7c4.7,4,11.1,6.4,13.8,12.2c2.2,4.5,4.4,9.6,3.7,14.7
		c-1.2,4.4-3.4,8.9-7.1,11.7c-5.4,2.9-11.9,2.4-17.5,0.4c0.2-0.7,0.6-2.2,0.8-3c2.5,3.5,7,2.8,10.7,2.3c3.3-0.6,6.8-2.4,8-5.8
		c2.5-4.5,3.3-10.1,0.5-14.6c-1.6-5.9-6.8-9.4-11.8-12.2c-2.8-1.4-5.1-3.7-8-5.1c-3.4-1.6-5.6-5-6.5-8.5c-1.2-6.5,3.2-12.6,8.5-16
		C415.1,387.6,420,389.1,424,387z"/>
	<path class="st0" d="M226.3,390.1c1.1-1.4,1.9-1.1,2.3,0.9c1.2-3.8,5.8-2.9,7.9-0.6c2.1,1.5,1.9,4.4,2.3,6.7
		c-2.3,3-5.8,4.7-9.6,4.3c-2.2,2.8-3.8,6-5.7,9.1c-2.3,3.8-2.6,8.4-3.2,12.7c0.4,2.9,1.4,5.7,2.1,8.5c1.4,2.3,2.8,4.5,3.8,7
		c4.5,3.1,10.2,2.1,14.5-0.9c0-1.3,0.1-2.6,0.2-3.9c1.4-2.4,1.3-5.4,2.1-8c0.9-2.8,0.8-5.9-0.4-8.6c-1.7-2.5-4-4.7-5.2-7.5
		c-0.4-2.1,0.6-5.9,3.5-5.2c4.6,0.9,8.2,4.9,9.3,9.4c1.9,4.4,4.1,8.9,3.3,13.8c-1.2,7-4.4,14.1-9.9,18.7c-6.8,4.1-15.9,4-22.5-0.4
		c-5.4-3.2-10.7-7.8-12.2-14.2c-1.1-3.6-0.3-7.5-1.1-11.1c-0.9-3.3,0.9-6.6,1.3-9.8c2.4-4.2,3.8-9.1,7.6-12.4c3.9-2.4,8-4.3,11.7-7
		C227.7,391.3,226.7,390.5,226.3,390.1z"/>
	<path class="st0" d="M175,392c2.8-4.9,10.4,0.1,8.9,4.7c-1.2,5.7-0.9,11.6-2,17.2c-2.5,14.7-0.9,29.6-1.9,44.4
		c-1.6-1.8-0.6-4.3-1-6.4c-1.7-15.3-2-30.7-1.4-46C177.6,401.1,173.4,396.8,175,392z"/>
	<path class="st0" d="M381.4,393.3C381.6,393.5,381.6,393.5,381.4,393.3z"/>
	<path class="st0" d="M433,399.3c1.1-0.7,3.3-0.8,3.7,0.7C436.4,401.9,431.8,401.3,433,399.3z"/>
	<path class="st0" d="M207.2,406.9c1.6-0.5,2.1,0,1.5,1.6C207.1,409.1,206.6,408.5,207.2,406.9z"/>
	<path class="st0" d="M21,411c1.6-0.7,2.2-0.1,1.7,1.5C21.1,413.1,20.5,412.6,21,411z"/>
	<path class="st0" d="M55.5,426.9c1.6-0.5,2.1,0.1,1.6,1.9C55.6,429.1,55,428.5,55.5,426.9z"/>
</g>
</svg>
