<?xml version="1.0" encoding="utf-8"?>
<!-- Generator: Adobe Illustrator 19.0.0, SVG Export Plug-In . SVG Version: 6.00 Build 0)  -->
<svg version="1.1" id="Layer_1" xmlns="http://www.w3.org/2000/svg" xmlns:xlink="http://www.w3.org/1999/xlink" x="0px" y="0px"
	 viewBox="455.4 -54.1 703 976.4" style="enable-background:new 455.4 -54.1 703 976.4;" xml:space="preserve">
<style type="text/css">
	.st0{fill:#86754E;}
</style>
<g id="_x23_86754eff">
	<path class="st0" d="M567.1-54.1c27.3,0,54.6,0,81.9,0c0,2.9,0,5.9,0,8.8c-26-0.2-51.9,0-77.9-0.1c-25.4,25.4-50.8,50.9-76.3,76.2
		c-0.1,25.8,0,51.5-0.1,77.3c-3,0-6.1,0.1-9.1,0c-0.3-26.9,0.1-53.8-0.2-80.6C512.6,0.3,539.9-26.9,567.1-54.1z"/>
	<path class="st0" d="M757.5,23.2c17.7-2.5,35.6-4.2,53.5-3.5c23.2,1.5,46.7,3.9,68.9,11.5c19.6,6.1,38.3,15.7,54.2,28.8
		c12.9,10.5,23.7,23.6,32.1,38c21.6,38,26.6,83.7,20.5,126.5c4,4.9,8.6,9.4,12.2,14.7c5.9,9,11,18.9,12.2,29.8
		c2.1,13.7-1.6,27.7-9.1,39.2c2.2,3.1,5.3,5.3,7.8,8.1c11,11.3,22.1,22.5,33.3,33.7c6.9,6.2,7.7,16.3,8.4,25
		c0.1,22.9-9.5,44.7-21.9,63.5c-6.1,8.8-12.3,17.6-19.9,25.2c-13.6,12-28.6,22.7-45.8,28.9c-9.4,3.3-20,4.8-29.5,1.3
		c-6-2.2-10.6-6.8-15.4-10.8c-6.3-5.4-12.7-10.7-19-16.2c-3.4,16.4-11.2,32.1-23.3,43.8c-10.6,10.6-24.1,18.1-38.4,22.5
		c-11.7,3.8-24,6-36.3,6.4c-16.5-0.6-32.8-4.3-48-10.8c-16.2-7.2-30.5-19.2-39.5-34.5c-4.9-8.6-8.6-17.8-10.5-27.5
		c-6.1,5.3-12.3,10.4-18.5,15.7c-5,4.1-9.6,9-15.8,11.2c-9.6,3.5-20.2,2.1-29.6-1.2c-15.1-5.5-28.7-14.5-41-24.8
		c-8.7-6.8-15-15.9-21.4-24.7c-11.5-16.2-20.8-34.4-24.1-54.1c-1.8-10.6-1.5-21.7,2.3-31.9c1.5-4.5,5.4-7.4,8.5-10.7
		c12.7-12.7,25.1-25.6,37.8-38.3c-7.9-11.3-11.3-25.6-9.3-39.3c1.4-12,7.3-23,14.2-32.7c3-4.3,7.3-7.6,9.8-12
		c-3.5-28.7-3.1-58.2,4.6-86.2c5.9-23,16.7-44.9,32.5-62.7c14.8-17,33.9-29.8,54.5-38.6C724.4,30.4,740.8,25.5,757.5,23.2 M718.1,45
		c-19.7,7.5-38.1,19-52.6,34.4c-14.8,15.6-25.5,35.1-31.4,55.7c-7.6,24.5-9.2,50.4-7.1,75.9c0.5,5.8,1.1,11.6,2.5,17.3
		c-3.9,4.2-8.2,8.1-11.7,12.6c-8.4,10.5-14.8,23.3-14.2,37.1c0,11.7,5.5,22.7,13.6,30.9c-3.7,3.5-7.3,7-10.7,10.8
		c-5.6,6.1-11.8,11.6-17.3,17.7c-7.4,7.6-15.2,14.9-22.4,22.9c-4.2,9-3.4,19.6-1.9,29.2c4.3,20.6,15.1,39.1,28,55.5
		c5.8,8.1,13.2,14.9,21.3,20.6c9.4,7.2,19.9,13.2,31.1,17.1c8.3,2.7,18.5,3.6,25.6-2.5c14.3-12.1,28.6-24.2,42.9-36.4
		c0.1,5.7-0.3,11.5,0.5,17.2c2.4,18.5,12.4,35.9,27,47.5c15.2,12,34.5,17.4,53.4,19.5c8,1.2,16.1-0.1,24-1.4
		c18.2-3.3,36.6-10.2,49.8-23.7c11.9-11.9,19.7-28,21.1-44.8c0.3-4.8,0.1-9.5,0.2-14.3c14.1,12.1,28.2,24,42.4,36
		c4.2,3.9,10.1,5.3,15.7,4.9c9-0.4,17.2-4.4,25-8.4c7.1-3.6,13.6-8.4,20-13.2c6.6-5,12.6-10.9,17.5-17.5
		c10.8-14,20.5-29.2,25.7-46.2c3.3-10,4.9-20.7,3.1-31.2c-0.6-3.2-1.1-6.6-3.4-9c-8.8-9.2-18-18-26.7-27.3
		c-7.8-7.4-14.8-15.6-22.7-22.9c10.1-9.6,15.3-23.9,13.4-37.8c-2-17.2-13.6-31-25.5-42.7c2.3-9.6,2.7-19.5,3.2-29.3
		c0.6-21.9-1.5-44.1-8.2-65c-5.1-17.5-13.7-34-25.3-48.1c-12.9-15.8-29.8-28.1-48.3-36.6c-12.2-5.4-24.9-9.6-37.9-12.5
		c-18.1-3.9-36.6-5.3-55-6.1C774.2,31.3,745.1,34.4,718.1,45z"/>
	<path class="st0" d="M781.1,96.4c29.1-4.8,59.2-4.2,87.9,2.7c20.6,4.6,40.3,13.7,57,26.6c6.3,5.2,12.5,10.9,16.9,17.9
		c-6.2,6.8-11.9,14-16.8,21.7c2.7-1.7,5.1-3.6,7.7-5.5c4.5-3.4,9.6-5.7,14.5-8.4c2.3,4.2,4.5,8.5,5.9,13.1
		c-8.2,2.7-15.9,6.7-23.3,11.2c-3.8,2.5-8.1,4.4-11.1,7.9c12.6-4.7,26.9-5.9,39.6-0.9c1.6,5.6,3,11.4,3.2,17.3
		c0.3,9,0.5,18-1.2,26.9c9.8,13,18.7,26.8,26.4,41.2c4,6.6,3,15.1-1.1,21.3c-7.3,11.5-18,20.3-28.9,28.3c-2.7-2.2-0.3-5,0.9-7.3
		c5.9-10.1,9.6-22.6,5.5-34.1c-5,10.5-7.8,22.2-14.8,31.7c-7.7,11.9-18.8,21.5-31.4,27.9c-12.4,6.6-26.9,11-40.9,8
		c-10.5-1.9-19.7-7.6-28-13.9c-4.8-3.7-8.7-8.3-13.3-12.3c2.9,4.8,6.5,9.1,10.2,13.4c9.1,10.8,23.4,15.7,31.5,27.6
		c2.9,4.5,3.8,10,4.9,15.2c2.9,14.1,4.2,28.6,4.4,43c0.7,21.9-0.4,44.5-8.7,65.1c-2.5,6.3-6.8,11.7-11.5,16.5
		c-10.3,11.1-24.5,18.4-39.3,20.8c-12.6,2.1-25.6,1.6-38.1-0.9c-2.2-0.4-5.1-1.3-5.4-3.9c-0.4-5.2,0-10.4-0.7-15.5
		c-2.8-34.8-17.2-67.7-36.7-96.3c-5.3-7.6-11-15-17.3-21.9c-3.4-3.6-4.3-9.2-2.8-13.8c1.3-4.4,4.3-8.1,7.4-11.4
		c3-3.2,7.2-4.8,10.8-7.2c10.7-7.1,18.9-18.2,22.6-30.5c-7,13.9-21.3,22.6-36,26.5c-18.4,4.9-38.2,0.3-54.3-9.2
		c-11.9-6.2-20.1-17.4-25.8-29.2c10.3,10.2,21.3,20,34.3,26.6c9.5,4.9,19.9,8.6,30.7,8.7c15.8,0.5,31.1-7.4,41.7-18.9
		c10.5-12.6,17.9-28.2,19.6-44.6c0.1-15.4-2.7-30.9-8-45.3c-2.7-7.4-7-13.9-11.8-20.1c-8.1-10.4-15-21.8-19.9-34
		c-5.8-14.8-7.7-32.1-0.9-46.9c0.7-1,0.8-2.7,2.1-3.1c23,7.1,44.3,18.7,64.9,31c-8.2-15.9-19.8-30.2-33.7-41.5
		c-4-3.6-8.6-6.3-12.8-9.7C764.7,103.4,772.5,98.6,781.1,96.4 M868.1,205.6c-9.4,2.1-18.8,5.8-26.1,12.4c-11.2,9.8-17,24.5-18.1,39
		c-1.1,14.1,0,28.3,2.8,42.2c-1.6-20-1.4-40.9,6.9-59.6c5.9-14.1,17.6-25.8,32.1-30.8c6.3-2.4,13-3,19.5-4.4
		C879.5,204,873.7,204.1,868.1,205.6 M885.2,210.2c-17.5,1-33.3,12-42.4,26.7c-8.8,13.5-11.5,30.3-9.4,46.2c2,15.8,10.1,31,22.6,41
		c12.2,10.4,29.6,14.3,45.1,10.4c12.3-2.8,23-10.8,30.7-20.7c8.4-11.4,13.3-25.5,13.2-39.7c0.5-20.9-9.3-42.3-26.5-54.4
		C909,212.6,897,209.3,885.2,210.2 M773.8,341.6c-9.6,2.4-18,7.8-25.7,13.8c4.1,0.8,6.5,4.4,9.3,7.1c11.4,11.5,23,22.7,34.2,34.4
		c7-1.9,14.4-1.9,21.4,0.2c11.5-11.6,23.1-23.1,34.6-34.6c2.6-2.6,5-5.8,8.8-6.8c-5.3-3.9-10.5-7.9-16.6-10.6
		c-9.3-4.2-19.5-6.1-29.7-5.8C798,339.6,785.6,338.1,773.8,341.6 M735.9,369.8c14.8,14.8,23.9,34,34.8,51.6c1.3-7.6,5.7-14,11-19.3
		c-10.6-10.1-20.7-20.7-31.1-30.9c-2.9-3.1-6.5-5.8-8-10C740,363.8,737.9,366.8,735.9,369.8 M861.9,361.5c-1.5,4.2-5.2,6.9-8.2,10
		c-10.4,10.3-20.7,20.7-31.1,31.1c5.6,5.3,9.7,12.1,10.8,19.8c10.8,0,21.7,0,32.5,0c4.1,0,8.4-0.6,12.3,1.3c-0.2-7,0-13.9-0.1-20.9
		C878,387.8,871.7,373,861.9,361.5 M796.5,404.5c-5.7,1.3-10.9,4.8-14,9.8c-5,7.5-5,17.9-0.2,25.4c4,5.8,10.4,10.2,17.6,10.8
		c11,1.3,22-6.6,24.7-17.3c1.5-6.1,0.8-13-2.6-18.4C816.9,406.4,806,402.1,796.5,404.5 M873,433.3c-13.3,0-26.5,0-39.8,0
		c-1.6,7.2-5.9,13.6-11.2,18.6c9.6,9.7,19.3,19.3,29,29c3.7,3.8,7.8,7.3,10.9,11.6c7-8.7,12.6-18.8,14.9-29.9
		c2.3-10.1,0.9-20.6,1.5-30.9C876.6,432.6,874.9,433.5,873,433.3 M787.1,463c4.1,16.9,6,34.2,8.8,51.3c0.2,0.2,0.7,0.6,0.9,0.8
		c8.7,0.5,17.5,0.1,26.2-1c11.6-2,22.7-7.1,31.8-14.6c-6.1-5-11.2-11.1-16.9-16.4c-8.5-8.7-17.3-17.1-25.7-25.9
		c-6.3,1.7-13.1,2-19.4,0.1C790.8,459.2,788.9,461.1,787.1,463z"/>
	<path class="st0" d="M691.1,214.3c10.7-5.4,23.1-7.3,34.8-4.8c9.8,1.8,18.7,7,26,13.6c-17.5-4.4-36.3-5.7-53.9-0.9
		c-12.8,3.4-24.1,11.1-32.8,20.8C670,230.7,679.7,220.7,691.1,214.3z"/>
	<path class="st0" d="M714,229.6h1.3c0,1.2,0,2.4,0,3.6c12.7,0.2,24.7,7.2,31.8,17.7c4.1,6.4,6.1,13.4,6.7,20.9c3.9,0,0,0,3.9,0
		c0,1.5,0,0.2,0,1.7c-4,0,0,0-4,0c-0.8,10.8-5.3,21.5-13.8,28.4c-6.7,6.3-15.8,9.1-24.8,9.5c0,1.7,0,0,0,5c-1.7,0-1.7,0-1.7,0
		c0-5,0,0,0-5c-9.1-0.5-18.2-3.7-25-10c-8.1-7-12.2-17.4-13.1-27.9c-3.8,0,0,0-3.8,0c0-2,0-2,0-2c3.8-0.1,0,0,3.8-0.1
		c0.7-11.9,6.5-23.8,16.6-30.6c6.3-4.8,14.1-7.1,22-7.5C714,232.3,714,230.5,714,229.6 M687.5,249.4c-5.8,6.1-8.4,13.7-8.7,22
		c24.8,0,0.1,0,24.9,0c0.7-5.3,5-9.1,10.3-9.7c0.3-8.2,0.1-16.5,0.1-24.7C703.9,236.9,694,241.7,687.5,249.4 M715.3,237
		c0.1,8.2,0.1,16.3,0,24.5c2.6,1,5.5,1.7,7.3,3.9c1.6,1.8,2.2,4.3,3,6.4c24.8,0,0,0,24.8,0c-0.6-7.9-3-15.9-8.3-22
		C735.6,242,725.6,236.8,715.3,237 M713.9,271.8c-0.1-2.3,0.1-4.8,0-7.1c-3.4,1.1-8.2,3-7.5,7.1 M715.4,264.7c0,7.1,0,0,0,7.1
		c7.6,0-0.1,0,7.5,0C721.6,268.4,719,265.5,715.4,264.7 M678.7,273.4c0.6,6,1.8,12.3,5.1,17.5c6.1,10.5,17.8,17.1,29.9,17.8
		c0.1-8.3-0.1-16.5,0.1-24.8c-5.1-1.3-9.4-5.2-10.3-10.5C678.7,273.5,703.6,273.4,678.7,273.4 M706.3,273.4c1.3,3.4,3.8,6.3,7.5,7.1
		c0-2.3,0-4.7,0-7C706.3,273.4,713.8,273.5,706.3,273.4 M715.3,280.5c3.8-0.5,6.5-3.5,7.5-7c-7.6,0,0,0-7.6,0 M725.6,273.4
		c-0.3,5.6-5.3,9.3-10.4,10.5c0.2,8.3,0.1,16.5-0.2,24.8c10.5-0.5,20.6-5.3,27.3-13.4c5.2-6.1,7.6-14,8.2-21.9
		C725.5,273.4,750.7,273.4,725.6,273.4z"/>
	<path class="st0" d="M933,247.6c5.4,14,7.8,29.8,3,44.3c-3.7,12.2-13.2,21.8-24,28.1c-4.5,2.5-9.3,4.6-14.1,6.5
		c3.3-3.4,7.2-6,10.6-9.3c13.1-13.1,24.4-29.5,26.1-48.4C935.6,261.7,933.9,254.6,933,247.6z"/>
	<path class="st0" d="M767.8,276.7c-0.5,13.7-5.3,27.9-15.7,37.3c-7,7.1-16.5,10.9-25.9,13.5c-2.7,0.8-5.5,1-8.3,1
		c13.3-4.4,25.9-11.8,34.9-22.8C759.8,297.3,764.6,287.2,767.8,276.7z"/>
	<path class="st0" d="M589.1,364.1c9.6-7.8,18.9-16,28.6-23.7c14.2,2.7,26.2,11.6,36.7,21.1c4.5,4.4,9.1,8.7,12.8,13.8
		c-11-6.8-22-13.8-34.4-17.8c3.4,3.5,7.5,6.3,10.6,10.1c7,8.1,13.3,16.9,18.8,26.2c3.2,5.4,6.8,10.6,9.1,16.5
		c-7.6-8.9-16-17.4-26.1-23.4c-4.3-2.5-8.8-4.9-13.7-5.8c2.4,3.1,5.3,5.7,7.8,8.7c14.5,17.1,23.2,39.2,24.1,61.6
		c-2.7-4.2-4-9.1-6.3-13.5c-6.3-13.2-13.5-26-22.9-37.2c-7.2-8.3-16.2-15.9-27.3-17.8c-7.2-1.4-14.5,0.9-20.4,4.9
		C581.1,380.7,581.9,369.4,589.1,364.1z"/>
	<path class="st0" d="M952.2,359.2c9.9-8.6,21.1-16.3,34.2-18.8c9.7,7.7,19,15.8,28.6,23.7c7.2,5.4,8,16.7,2.5,23.5
		c-6.2-4.2-14-6.5-21.5-4.7c-11.9,2.5-21.2,11.2-28.5,20.4c-8.4,10.7-15.1,22.6-20.9,34.9c-2.1,4.2-3.4,8.9-6,12.9
		c0.6-17,5.8-33.7,14.6-48.3c4.6-8.2,11.2-15.1,17.4-22c-16.4,4.4-29.1,16.7-39.9,29.3c2.2-5.7,5.6-10.7,8.7-15.8
		c5.7-9.4,12-18.4,19.2-26.7c3.2-3.7,7.2-6.5,10.6-10.1c-12.3,4-23.3,11-34.3,17.7C941.3,369.3,946.7,364.1,952.2,359.2z"/>
	<path class="st0" d="M633,464.9c-22.5-9.8-38-31.6-44.2-54.9c7.8,14.2,17.9,27.1,29.3,38.6c8.8,8.3,18.6,15.8,29.9,20.4
		C642.7,469.4,637.9,466.7,633,464.9z"/>
	<path class="st0" d="M967.5,462.3c19.3-12.9,34.1-31.4,45.9-51.2c-3.9,14.8-11.9,28.6-22.8,39.4c-9.8,9.6-22.3,16.6-35.8,19
		C958.7,466.6,963.5,465.2,967.5,462.3z"/>
	<path class="st0" d="M821.4,422.4c0.6,4.1,1,8.4-0.8,12.3c-2.7,6.8-9.8,11.1-17,11.2c5.7-2.7,11.2-6.3,14.6-11.8
		C820.7,430.7,820.8,426.4,821.4,422.4z"/>
	<path class="st0" d="M1118.6,424.1c2.9,0.1,5.9,0.1,8.8,0.1c0,26.2,0,52.5,0,78.7c-0.2,1.2,0.1,2.6-0.9,3.5
		c-17.3,17.3-34.7,34.7-52,52c-9.7,9.4-18.9,19.3-28.8,28.5c-6.2,0.9-12.6,0.1-18.8,0.4c-20.7,0-41.3,0.1-62-0.1c0-3,0.1-6,0.1-9
		c25.7,0.1,51.4,0,77.1,0.1c25.4-25.4,50.9-50.7,76.1-76.2C1118.9,476.1,1118.3,450.1,1118.6,424.1z"/>
	<path class="st0" d="M791.4,670.6c21.9-1.4,44.5,1.2,64.6,10.2c24.2,10.1,45,28.4,57.8,51.3c20.7,36.1,21.3,82,3.7,119.4
		c-9.1,19.3-23.3,36-40.8,48.2c-38.1,26.3-90.1,29.7-131.7,9.8c-22.9-10.9-42.2-29.2-54.3-51.5c-8.2-14.5-12.8-30.7-14.9-47.1
		c-0.5-7.6-1.9-15.3-0.8-23c1.2-18.8,5.8-37.5,15-54c16.5-30.7,47.1-52.9,81-60.4C777.8,672,784.6,671.1,791.4,670.6 M794.2,727.1
		c-17.7,2-33.6,12.7-43.6,27.2c-8.1,12.2-12.4,26.9-12.1,41.5c0.1,13.6,4.1,27,10.8,38.7c7.8,12.5,19.5,23.1,33.6,27.7
		c17.2,6.1,37,3.6,52.3-6.3c10.8-7.2,19.6-17.5,24.7-29.5c6.6-14.3,8.2-30.7,5.5-46.2c-3.6-18.1-14.2-35.1-30.2-44.7
		C823.1,728,808.2,725.4,794.2,727.1z"/>
	<path class="st0" d="M455.4,674.2c29.9,0.1,59.7,0,89.6,0c13.7,0.1,27.5-0.7,41,1.8c16.2,3.1,32.8,9.2,44.2,21.7
		c7.9,8.1,12.5,19.1,14.3,30.2c1.3,12,0.6,24.7-4.7,35.8c-4.5,11.2-13.2,20.3-23.3,26.7c13.9,3.9,26,13.8,32.1,26.8
		c4.1,8.6,6.6,18.2,6.2,27.8c0.5,16.5-4.5,33.6-15.7,46c-9.5,10.8-22.5,17.5-36,21.7c-15.3,4.4-31.3,5.7-47.1,5.4c-17,0-34,0-51,0
		c-7.2,0-15.2-0.5-21-5.3c-4.8-4.6-6.4-11.5-6.5-17.9c-0.1-56.5,0.1-112.9-0.1-169.4c-7.4,0.1-14.7,0-22.1,0.1
		C455.3,708.4,455.4,691.3,455.4,674.2 M538.5,725.5c0,14.4-0.1,28.8,0.1,43.2c8.5-0.2,17,0.2,25.5-0.2c8.1-0.1,15.8-5.9,18-13.7
		c2.3-7.7,1.9-17-3.8-23.2c-4.1-4.5-10.5-6-16.4-6.1C554.1,725.3,546.3,725.5,538.5,725.5 M538.6,816.5c0,14.1-0.1,28.3,0.1,42.4
		c-0.2,3.4,1.8,7.2,5.4,7.6c6,0.4,11.9,0,17.9,0.1c5.3-0.1,10.9,0.6,15.8-1.7c7.2-2.9,12.3-9.9,13.7-17.5c1.6-8.8,0.1-19-6.9-25.2
		c-4.4-4.3-10.7-5.7-16.6-5.8C558.1,816.3,548.3,816.5,538.6,816.5z"/>
	<path class="st0" d="M942.4,679.3c5.3-5.4,13.5-5.1,20.5-5.1c57,0,114,0,171,0c6.2,0,13.2,0.2,18.1,4.5c4.9,4.2,5.7,11.1,6.2,17.1
		c0.1,16.8,0,33.6,0.1,50.4c-17.6,0.3-35.2,0-52.8,0.2c-0.4-5.7,0.9-11.7-1.1-17.1c-1.3-3.4-5.3-3.8-8.4-3.8c-6-0.1-12,0-18,0
		c0,64.2,0,128.4,0,192.7c-20.3-0.1-40.6-0.1-60.8,0c0.2-64.2,0.1-128.4,0.1-192.6c-6.4-0.1-12.8-0.2-19.2,0c-3.1,0.1-7,1.1-7.8,4.6
		c-0.9,5.4-0.2,10.9-0.5,16.3c-17.7-0.1-35.5,0.2-53.2-0.1c0-15.8,0-31.6,0-47.4C937,692.1,937,684.2,942.4,679.3z"/>
</g>
</svg>
