<?xml version="1.0" encoding="utf-8"?>
<!-- Generator: Adobe Illustrator 19.0.0, SVG Export Plug-In . SVG Version: 6.00 Build 0)  -->
<svg version="1.1" id="Layer_1" xmlns="http://www.w3.org/2000/svg" xmlns:xlink="http://www.w3.org/1999/xlink" x="0px" y="0px"
	 viewBox="-209.3 320.9 172.8 199.8" style="enable-background:new -209.3 320.9 172.8 199.8;" xml:space="preserve">
<style type="text/css">
	.st0{fill:#FFFFFF;}
</style>
<path d="M-193.8,320.9h145.4c3,0.4,6.7,0.1,8.9,2.6c2.5,2.4,2.6,6.2,2.6,9.4c-0.1,25-0.1,50,0.2,75c-0.4,12.3,1.4,24.6-0.9,36.8
	c-2.5,13-9.6,24.5-18.1,34.4c-11.2,13.1-24.9,23.8-39.8,32.2c-6,3.3-12.1,6.9-18.9,8.4c-7.7,1.9-16,1.1-23.2-2.1
	c-24.5-11.3-47.3-28.1-61.8-51.2c-6.7-10.1-10.1-22.3-9.7-34.4c0.3-33.4,0.3-66.8,0.3-100.1c0-3.1,0.2-6.7,2.8-8.8
	C-202.7,320.4-197.9,321.7-193.8,320.9z"/>
<path class="st0" d="M-82.8,345.6c-1.4-5.4-0.4-11.1-0.6-16.6c2.7,3.4,5.3,6.8,7.9,10.1c2.4-3.2,4.6-6.7,7.6-9.4
	c0,5.2,0.9,10.7-0.6,15.8c-0.9-3.4-1-6.9-1.4-10.3c-1.9,2.4-3.8,4.9-5.8,7.3c-2-2.5-4.1-5-6-7.6C-81.9,338.5-81.7,342.2-82.8,345.6z
	"/>
<path class="st0" d="M-122.9,330.7c3.8-1.3,7.8-0.3,11.6,0.2c0,0.8,0,2.2-0.1,3c-3.9-0.6-7.7-1.3-11.6-2c0.6,3.3,0.4,6.8,1.9,9.9
	c3.1,3,7.4,0.9,9.9-1.6c-0.5,1.8-0.2,4.8-2.8,4.9c-3.3,0-6.6,0.1-9.8-0.5c-2-1.8-1.4-4.9-1.4-7.4
	C-124.9,335-125.4,331.8-122.9,330.7z"/>
<path class="st0" d="M-200.5,331.3c3.3-1.5,7-0.8,10.5-0.9c1.6,0.1,3.9,0,4.4,1.9c0.7,3.9,0.4,8-0.2,11.9c-4.3,1-8.9,0.9-13.2,0.5
	c-1.8-0.1-2.2-2-2.2-3.5C-201.3,337.9-201.6,334.5-200.5,331.3z"/>
<path class="st0" d="M-181.4,331.3l1.8-0.8c2.1,3.6,4.2,7.3,6.3,10.9c2-3.4,3.6-7.1,5.8-10.4c0.5,0,1.4,0,1.9-0.1
	c-2.4,5.3-5.1,10.5-7.9,15.7C-176.1,341.5-178.7,336.4-181.4,331.3z"/>
<path class="st0" d="M-161,332c0.3-0.3,0.8-0.9,1.1-1.2c3.6-0.6,7.3-0.3,10.9-0.4c0,0.5,0,1.5,0,2c-3.4-0.1-7-0.3-9.9,1.8
	c2.1,1.2,4.3,2.1,6.5,3c-1.9,0.4-3.7,1.1-5.4,1.8c-1.7,0.3-0.8,2.4-1,3.5c3.4,0.3,6.8,0.4,10.3,0.5l0.1,1.2c-4.4,0-8.7,0-13.1,0
	C-161.3,340.1-162,335.9-161,332z"/>
<path class="st0" d="M-142.9,331.6c3.9-0.7,8.6-2.4,12,0.2c2.8,2.7,0.3,6.6-2.4,8.3c1.4,1.6,2.8,3.2,3.7,5.1c-3.5-1.3-6.3-3.9-9.3-6
	l0.7-0.2c-0.6-0.1-1.7-0.3-2.2-0.4c-0.7,2.2,0,5.5-2.6,6.6C-143.4,340.7-143.7,336.1-142.9,331.6z"/>
<path class="st0" d="M-104.8,331.1c4.4-1.2,9.2-1.1,13.6-0.1c2.3,2.9,1.3,7.3,1.2,10.8c0.1,3.8-4.5,3-7,3.1
	c-2.7-0.3-6.3,0.8-8.4-1.5C-106.1,339.5-106.9,334.7-104.8,331.1z"/>
<path class="st0" d="M-60.7,330.6c4.3,0,8.5-0.2,12.8,0.2c-3.1,2.2-7.4,0.9-10.5,3.5c2.1,1.1,4.2,2.1,6.4,3.1
	c-2.5,0.5-4.9,1.5-6.6,3.4c2.9,2.6,6.9,2.2,10.5,2c0,0.4-0.1,1.2-0.1,1.6c-4.2,0-8.3,0-12.5,0C-60.7,339.8-60.7,335.2-60.7,330.6z"
	/>
<path d="M-140.9,332.5c2.9-0.9,5.8,0.4,8.1,2.1c-1.7,1.7-4.1,2.2-6.2,3.3l0.4,0.6c-0.8-0.5-1.5-1.1-2.3-1.6
	C-140.9,335.4-140.9,334-140.9,332.5z"/>
<path d="M-103,332.6c3.6,0,7.2,0,10.8,0c0,3.3,0,6.7,0,10c-3.6,0-7.2,0-10.8,0C-103,339.3-103,336-103,332.6z"/>
<path d="M-198.2,342c-1.6-2.9-0.5-6.3-0.4-9.4c3.5,0,7,0,10.5,0c0,3.2,0,6.5,0,9.7C-191.3,342.6-195.2,344.2-198.2,342z"/>
<path class="st0" d="M-144.6,355.7c6-3.4,14-5.8,20.2-1.4c6.1,4.8,12.5,9.4,17.3,15.6c5.4,6.7,12.2,12.4,19.7,16.5
	c2.2,1.3,4.6,2.6,6.1,4.7c2.2,2.9,2.1,6.9,4.1,10c3.9,6.4,8.8,12.1,12.7,18.5c2.3,3.6,2.5,8.4,0.4,12.2c-1.5,2.5-1.5,5.6-2.8,8.2
	c-2.7,3.2-6,5.7-9,8.6c0.5-5.3-1.2-11-5.6-14.4c-9.6-7.6-22.4-7.9-33.1-13.1c-3.9-1.8-6.7-5.2-8.9-8.8c-9.3,5.2-13.3,16.4-12.7,26.5
	c0.6,9.2,3.8,19,11.5,24.7c8.5,6.2,19.3,7.6,29.4,8.6c-9,3.2-19.1,2.5-27.6-1.6c-15.4-7-24.5-25.8-20.4-42.2
	c3.5-12.4,13.7-21.3,23.7-28.6c-10.4,2.4-21.1,7.5-26.5,17.3c-5.8,10.8-6.6,24.3-1.8,35.7c4.3,10.2,12.4,18.1,21.1,24.5
	c-13.3,0.5-25.5-6.8-34.7-15.8c-11.9-11.1-17.9-27.4-18.5-43.5c-0.7-6.5,0.5-13.8,5.7-18.3c6.2-5,13.5-8.4,20.3-12.6
	c-9.2-0.8-16.6,5.4-23.8,10c1.2-6,3.2-12.9,9-16c10.3-5.2,22.2-4.1,33.2-2.3c-7.8-6.8-18.7-8.6-28.8-7.7c2.3-3.3,5.1-7,9.4-7.5
	c11.6-0.6,23.3,3,33.1,9.1C-126.2,363.5-135.8,359.3-144.6,355.7z"/>
<path class="st0" d="M-102.2,355c10.7,3,19.2,10.9,25,20.1c6.6,10.2,10.1,22.3,10.9,34.3c-2.8-3.9-6.3-7.7-7.1-12.6
	c-2.4-12.1-8.5-23.5-17.4-32.1C-94.3,361.1-98.5,358.3-102.2,355z"/>
<path d="M-100.6,391.6c4.8,1.7,9.3,3.9,14,5.9c-1.8,2.1-3.5,4.2-5.3,6.3C-94.8,399.7-98.8,396.3-100.6,391.6z"/>
</svg>
