<?xml version="1.0" encoding="utf-8"?>
<!-- Generator: Adobe Illustrator 19.0.0, SVG Export Plug-In . SVG Version: 6.00 Build 0)  -->
<svg version="1.1" id="Layer_1" xmlns="http://www.w3.org/2000/svg" xmlns:xlink="http://www.w3.org/1999/xlink" x="0px" y="0px"
	 viewBox="162.2 -4.7 886.5 846.6" style="enable-background:new 162.2 -4.7 886.5 846.6;" xml:space="preserve">
<style type="text/css">
	.st0{fill:#1B75BC;}
	.st1{fill:#231F20;}
	.st2{fill:#6B94CD;}
	.st3{fill:#FFFFFF;}
	.st4{fill:#073F82;}
</style>
<g>
	<path class="st0" d="M271.7,320.9c-5.7-1.8-12-3.2-18.7-4l-0.7-0.1l-0.1-0.7c-8.3-42.5-13.9-87.2-16.8-132.6l-0.1-1l1-0.1
		c17.3-1.3,34.6-3.9,49.4-6.3c87-14.5,170.1-44.7,247.1-89.7c27.7-16.4,50.8-32.1,70.8-48.2l0.6-0.5l0.6,0.5
		c38,29.6,80.8,55.9,127.4,77.9c77.7,36.7,158.5,59,240.3,66.3l1,0.1l-0.1,1c-2.7,44.5-8.3,88.8-16.6,131.8l-0.2,0.8l-0.8,0
		c-2.5,0-4.9,0-7.4,0l-11.9,0l0.2-1.2c6.9-35.8,11.8-71,14.8-104.7c-24.9,8.6-50.1,17.4-74.4,25.9c-15.7,5.5-31.4,11-47.1,16.4
		c-1,0.3-1.9,0.7-2.8,1c-2.3,0.8-4.7,1.7-7.2,2.2l-7.5,1.3l6.9-3.2c20.2-9.4,40.8-19,60.6-28.3c19.1-8.9,38.7-18.1,58.2-27.1
		c-0.7-0.1-1.5-0.2-2.2-0.3c-0.4,0-0.8-0.1-1.1-0.2c-84.7-12.3-166.8-39.5-244-80.7c-32.9-17.7-61.2-35.6-86.3-54.5
		C558,97.1,506.4,126,451.3,148.9c-57.6,24-117.6,40.5-178.2,49.2c-0.4,0.1-0.8,0.1-1.2,0.2c-0.4,0.1-0.8,0.1-1.2,0.2
		c17.5,8.1,35.3,16.4,52.4,24.4c21.7,10.2,44.2,20.7,66.4,30.9l6.6,3l-7.2-1.1c-1.1-0.2-2.2-0.4-3.3-0.7
		c-16.2-5.6-32.3-11.3-48.4-16.9c-26.2-9.2-53.2-18.6-79.9-27.8c3.1,35.5,8.4,72.3,15.7,109.5l0.3,1.7L271.7,320.9z"/>
	<path class="st0" d="M731.9,117C686.8,95.6,643.7,69.7,604.3,39c-22.3,18-46.3,33.7-71,48.3c-76.1,44.6-160.4,75.4-247.5,89.8
		c-16.4,2.6-32.9,5.1-49.5,6.3c2.8,44.4,8.2,88.7,16.8,132.5c6.4,0.8,12.7,2.1,18.9,4.1c-7.3-36.7-12.7-73.9-15.9-111.2
		c43.3,14.9,86.5,30.2,129.7,45.2c1,0.3,2.1,0.5,3.2,0.7c-40.5-18.5-80.7-37.8-121.2-56.4c1.5-0.8,3.4-0.9,5.1-1.1
		c61.1-8.8,121-25.5,177.9-49.2c54.4-22.6,106.3-51.5,153.8-86.5c27.3,20.7,56.6,38.7,86.7,54.9C767.2,156.9,850,184.7,935,197
		c2,0.3,4.1,0.4,6.1,1.3c-40.5,18.7-80.8,37.8-121.2,56.5c3.4-0.6,6.6-2,9.9-3.1c41-14.3,81.9-28.8,123-42.9
		c-3.1,35.7-8.2,71.2-14.9,106.3c6,0,12.1,0,18.1,0c8.4-43.5,13.9-87.5,16.6-131.7C889.2,176,807.5,152.7,731.9,117z"/>
	<path class="st0" d="M604.5,807.6c-1.8,0-3.5-0.8-5.2-1.6c-0.9-0.4-1.8-0.9-2.7-1.1l-0.1,0c-67.1-26.8-128.5-69.7-177.5-124
		c-34.4-37.7-64.9-82.8-90.8-134.1l-0.7-1.4l1.6,0c1.8,0,3.6,0,5.4,0c2,0,4,0,6.1,0c3.4,0,6.2,0,8.8,0.1l0.6,0l0.3,0.5
		c35,67.7,79.2,124,131.4,167.4c33.3,27.8,70.8,50.9,111.3,68.5c1.3-12.6,2.6-25.4,3.8-37.8c2.1-21.4,4.4-43.6,6.8-65.3l1-9.3
		l1.2,11.5c3.4,33.5,6.8,67.1,10.2,100.6c65-27.5,124.6-72.1,172.4-129.3c39.3-46.7,72.7-103.7,99.4-169.4l0.3-0.6l0.7,0
		c3.5,0,7,0,10.5,0c2.8,0,5.6,0,8.4,0l1.3,0l-0.8,2.9l0,0.1c-25.4,64.9-58.2,122.5-97.3,171.2c-40.8,50.8-89,91.9-143.4,122.1
		c-19.1,10.7-39.6,20.3-60.7,28.5C606,807.4,605.3,807.6,604.5,807.6z"/>
	<path class="st0" d="M789.2,653c-46.9,56-106.5,101.8-174,130.1c-3.5-34.7-7.1-69.5-10.6-104.2c-3.9,34.8-7.1,69.6-10.8,104.5
		c-40.7-17.5-78.9-40.8-112.8-69.2c-55.1-45.8-98.8-104.3-131.6-167.7c-6.7-0.3-13.5-0.1-20.2-0.1c24.3,48.2,54.2,93.9,90.6,133.9
		c48.7,53.9,109.6,96.8,177.1,123.8c3.1,0.9,6.2,3.6,9.5,2.3c20.8-8.1,41-17.6,60.5-28.5C722.1,747.1,770.6,705,810,655.9
		c41.2-51.3,73.1-109.8,97.1-170.9l0.4-1.5c-6.3,0-12.6,0-18.9,0C864,544.3,831.6,602.6,789.2,653z"/>
</g>
<g>
	<path class="st1" d="M1020.8,397.8c0.1-9,0.2-18.4-2.6-27.3c-3.6-12.5-13.1-23.1-25.4-28.2c-12.9-5.8-26.8-6.3-40-6.3
		c-1.8,0-3.5,0-5.3,0c-1.8,0-3.5,0-5.2,0H942c-7.5,0-14.9,0-22.4,0c-9.8,0-19.6,0-29.5,0c-9.8,0-19.6,0-29.5,0
		c-21,0-37.2,0-52.5,0.1l-1.1,0l-0.6,1c-28.9,48.8-58.4,98.4-87,146.3l-25.9,43.5l3.5,0c7.2,0.1,14.8,0.1,24.6,0.1
		c4.5,0,8.9,0,13.4,0c4.5,0,8.9,0,13.4,0c2.8,0,5.7,0,8.5,0l0.3,0l2.6-0.7l0.4-0.7c23.3-38.9,46.8-78.4,69.6-116.7l10.5-17.6
		c14.2,0,28.4,0,42.6,0l48.2,0c8.9,0,17.8,0,26.6,0l0.7,0c1.9,0,3.7,0.1,5.1,0.8c0.7,1.7,0.6,3.7,0.5,5.8c-0.1,1.3-0.1,2.7,0,4.1
		c-0.1,0.8,0,1.7,0,2.5c0.1,1.4,0.1,2.6-0.3,3.6c-1.3,0.6-2.9,0.7-4.6,0.7c-0.5,0-1,0-1.4,0.1c-8,0-15.9,0-23.9,0l-50.5,0
		c-17.2,0-34.5,0-51.7,0l-1.1,0l-0.6,1c-5.9,9.7-11.7,19.7-17.4,29.2c-4.4,7.4-8.7,14.7-13.1,22l-1.8,3H958
		c13.9-0.1,24.6-2,33.8-5.9c10.6-4.3,19.2-12.3,23.7-21.9c3.9-7.9,5.6-17.5,5.3-29.5C1020.7,403.9,1020.7,400.8,1020.8,397.8z
		 M1009.5,431c-3.4,8.6-10.8,15.9-20.3,19.9c-9.5,4.2-20.2,5.3-30.2,5.7l-75.6,0c-24.8,0-49.7,0-74.5,0c0.2-0.4,0.4-0.7,0.7-1.1
		c2.2-3.5,4.3-7.2,6.4-10.7c2.7-4.7,5.5-9.5,8.5-14.1c1.8-2.9,3.5-5.8,5.2-8.7c1.4-2.4,2.8-4.8,4.3-7.2c0.2,0,0.5-0.1,0.9-0.1
		c0.3,0,0.5,0,0.8,0c0.3,0,0.6,0,0.9,0c0.2,0,0.5,0,0.7,0c14.5,0,29,0,43.5,0l53,0c7.8,0,15.6,0,23.5,0l0.6,0
		c3.3-0.2,7.1-0.3,10.3-2.5l0.1-0.1c2.4-1.9,2.4-4.7,2.3-6.8c0-0.6,0-1.1,0-1.5l0-0.1l0-0.1c-0.1-1.7,0-3.5,0-5.2
		c0-2.9,0.1-5.9-0.3-8.9l0-0.2l-0.1-0.2c-1.9-5.4-8.7-5.7-11-5.7l-6.2,0c-10.4,0-20.8,0-31.2,0c-10.4,0-20.8,0-31.2,0
		c-21,0-38,0-53.4,0.1l-1.1,0l-0.6,1c-4.2,7.1-8.5,14.4-12.7,21.3c-4.5,7.6-9.2,15.4-13.7,23.1c-9.5,16.3-19.3,32.7-28.8,48.6
		c-8.2,13.7-16.7,27.8-24.9,41.8c-4.8,0.1-9.9,0.1-16.4,0.1c-3.4,0-6.8,0-10.1,0c-3.4,0-6.8,0-10.1,0c-5.4,0-9.9,0-14.1,0.1
		c7.5-12.7,15.2-25.6,22.6-38c9.7-16.2,19.6-33,29.4-49.5l0.4,0l0.6-1c9.3-15.8,18.8-31.8,28.1-47.3c8.1-13.7,16.6-27.8,24.8-41.7
		c17.8,0,37.1-0.1,60.5-0.1c14.7,0,29.3,0,44,0c14.6,0,29.2,0,43.7,0c0.1,0,0.2,0,0.2,0c18.8,0.2,33.1,4.8,42.3,13.6
		c10.8,10.2,12.3,25.8,12.2,34.1c-0.1,3.2,0,6.5,0,9.7C1013.6,410.1,1013.7,421.1,1009.5,431z"/>
	<path class="st1" d="M564,452.4c-22.5-37.8-45.8-76.8-68.6-115.3l-0.6-0.9l-1.1,0c-4.1-0.1-8.5-0.2-13.9-0.2c-3,0-6,0-9,0
		c-3,0-6,0-9,0c-12.4,0.2-30,2.8-43.3,14.2c-7.4,6.1-13.8,14.5-19.5,25.8c-6.2,12-12.3,24-18.5,36.1c-9.5,18.4-19.2,37.4-28.8,56.2
		c-9.3-18.2-18.9-36.7-28.1-54.6c-6.3-12.2-12.6-24.4-18.9-36.6c-3.9-7.7-8.9-16.5-16.1-23.6c-7-7.1-16-12.2-26.1-14.7
		c-9-2.4-18.4-2.7-26.4-2.7l-1,0c-2.7,0-5.4,0-8.1,0l-18.5,0c-5,0-10.1,0-15.2,0l-2,0l0,2c0,61.1,0.1,124.3,0,186.8l0,2l2,0
		c8,0.1,16.1,0.2,24.9,0.2c8.2,0,16.9-0.1,26.5-0.2l2,0l0-2c-0.1-43.8-0.1-88.2,0-131.3c2.2,1.6,4.1,4,5.4,6.8
		c8.9,17.2,18,34.6,26.9,51.4c12.7,24.2,25.8,49.3,38.6,74l0.5,1.1l1.2,0c7.6,0.1,15.6,0.2,26,0.2c4.8,0,9.7,0,14.5,0
		c4.8,0,9.7,0,14.5,0c3.2,0,6.4,0,9.6,0l1.2,0l0.6-1.1c18.6-35.7,37.5-72,55.8-107.1l10.4-19.9c2.1-4.3,5.9-7.1,9.9-7.5
		c13.9,23.6,28.1,47.5,41.9,70.6c12.5,20.9,25.4,42.5,38,63.9l0.6,1l1.1,0c8.2,0.1,17,0.2,27.6,0.2c7.5,0,15.1,0,22.6-0.1
		c3.8,0,7.6,0,11.4,0l3.5,0l-1.8-3C592.4,500,578.2,476.2,564,452.4z M590.7,519.6c-4,0-8,0-12,0c-4,0-8,0-12,0
		c-8.4,0-14.9-0.1-21-0.2c-21.8-36.1-38.4-64-53.8-90.2c-4-7-8.2-14-12.3-20.8c-4.7-7.8-9.5-15.8-14-23.8l-0.5-0.9l-1-0.1
		c-0.6-0.1-1.2-0.1-1.8-0.1c-6.8,0-13.5,4.3-16.7,10.6c-6.6,12.6-12.6,24.1-18.3,35.1c-10.3,20.2-21,40.7-31.3,60.4
		c-5.2,9.9-10.4,19.8-15.5,29.8c-12.3,0.1-21.9,0.1-31,0.1c-10,0-19,0-27.7-0.1c-5.6-10.9-11.4-21.8-17-32.5
		c-9.9-18.9-20.2-38.4-30-57.7l-3.3-6.4c-4.8-9.2-9.8-18.7-14.7-28.1c-3.1-6-8.8-10.2-15.3-11.3l-2.3-0.4l0,2.3c0,9.2,0,18.5,0,27.5
		c0,5.7,0,11.3,0,17c0,11.4,0,22.9,0,34.3c0,18.1,0,36.8-0.1,55.2c-2.1,0-4.1,0-6.2,0c-3.2,0-6.5,0-9.7,0c-3.2,0-6.5,0-9.7,0
		c-6.3,0-11.3,0-16-0.1c0-20.3,0-40.9,0-60.8l0-22.9c-0.3-16-0.3-32.3-0.3-48.1c0-6.6,0-13.3,0-19.9c0-2.3,0-4.7,0.2-6.9l0-0.1
		l0-0.1c0-1-0.1-2.1-0.1-3.1c-0.2-5.2-0.4-10.5,0.3-15.5c2.2-0.1,4.6-0.1,7.5-0.1c1.8,0,3.7,0,5.5,0c1.9,0,3.7,0,5.6,0
		c1.3,0,2.6,0,3.8,0c1.3,0,2.7,0,4,0c1.8,0,3.7,0,5.5,0c1.8,0,3.7,0,5.5,0c7.3,0,15.1,0.2,22.7,1.9c9.4,2,17.7,6.2,24.1,12.3
		c5.6,5.2,10.4,11.8,15.5,21.6c4,7.7,7.9,15.4,11.9,23.1c5,9.8,10.2,19.9,15.4,29.8c4.5,8.2,8.9,16.7,13.1,25
		c3.5,6.9,7.2,14.1,10.9,21l0.5,1l1.1,0.1c0.2,0,1.4,0.1,1.5,0.1l1.3,0.1l0.6-1.1c4.1-7.6,8.1-15.4,11.9-22.9
		c3.9-7.6,7.9-15.5,12.1-23.2c5.5-10.5,11-21.3,16.3-31.6c3.4-6.6,6.8-13.3,10.2-19.9c5.1-10.2,10.4-17.5,16.7-23.1
		c12.3-11.4,29.2-13.8,41.1-13.9l1.6,0c2.6,0,5.2,0,7.7,0c2.6,0,5.1,0,7.7,0c4.3,0,7.9,0,11.2,0.1c15.1,25.7,31.4,52.9,52.5,88.1
		c10.1,16.6,20.2,33.5,29.9,49.9c7.7,13,15.7,26.4,23.6,39.5C594.4,519.6,592.5,519.6,590.7,519.6z"/>
	<path class="st1" d="M706.1,501.4l0.4-0.7c12.3-20.6,24.6-41.2,36.9-61.8c19.6-32.7,39.8-66.6,59.7-99.9l1.8-3l-3.5,0
		c-4,0-7.9,0-11.9,0c-4.4,0-8.8,0-13.1,0c-4.4,0-8.8,0-13.1,0c-9.2,0-16.3,0-23,0.1l-1.1,0l-0.6,1c-15,25-30.3,50.3-45.1,74.8
		c-11,18.2-22.4,37-33.5,55.5c-0.4,0.5-0.7,1-1,1.6c-0.6,1.1-1.2,2.1-2,2.6c-1.6,0.2-3.2,0.2-5.2,0.2c-1.6,0-3.2,0-4.7-0.1l-1.8,0
		c-0.8,0-1.5-1-2.4-2.4c-0.2-0.3-0.4-0.6-0.6-0.9c-11.4-19.1-22.8-38.2-34.3-57.3c-14.8-24.7-29.6-49.4-44.3-74.1l-0.6-1l-1.1,0
		c-10.2,0-20.3,0-30.5,0c-7.6,0-34.1,0-34.1,0l1.8,3c18.7,31.3,37.4,62.5,56.1,93.8c15,25,30,50.1,44.9,75.1
		c4.4,7.3,9.3,12.2,14.9,15c7.6,3.8,16,4.1,24,4.1c1.8,0,3.6,0,5.5,0c2,0,9.8,0,11.7,0c4.3,0,7.6,0,10.7-0.1
		c7.3-0.1,17.8-1.8,26.1-8.6C698.9,513.8,702.5,507.5,706.1,501.4z M685.3,514.5c-7.6,4.8-16.8,5.2-25.6,5.2c-1.1,0-2.3,0-3.4,0
		c-1.1,0-2.3,0-3.4,0l-0.9,0c-1.2,0-2.3,0-3.5,0c-1.5,0-3,0-4.6,0c-1.5,0-3,0-4.5,0c-6.3,0-12.9-0.3-19.2-2.3
		c-5.9-1.8-11-6.6-15.6-14.5c-5.4-9.1-10.8-18.1-16.3-27.2c-9.1-15.2-18.5-30.9-27.6-46.4c-10.6-17.8-21.4-35.9-31.9-53.4
		c-6.7-11.3-13.5-22.5-20.2-33.8c3,0,6,0,9.1,0c5.9,0,11.7,0,17.6,0c8.9,0,16.3,0,23.2,0.1c13.6,22.9,27.6,46.2,41.1,68.7l11.9,19.9
		c4.9,7.6,9.6,15.6,14.1,23.2c2.6,4.4,5.3,9,8.1,13.5c0.4,0.6,0.8,1.3,1.1,1.9c2,3.6,4.6,8,10,8.4l0.1,0c1,0,2,0.1,3.1,0.1
		c1.3,0.1,2.6,0.2,3.9,0.2c3.3,0,8.1-0.5,11-4.8c4.3-6.9,8.6-14,12.7-20.8c4.4-7.3,8.9-14.8,13.5-22.2
		c15.4-25.3,31.9-52.6,53.3-88.1c7.1-0.1,14.7-0.1,23.8-0.1c7,0,14.1,0,21.1,0l5,0c-7.9,13.1-15.7,26.3-23.6,39.4
		c-9.5,15.8-19.2,32.2-28.9,48.3c-7.1,12.5-14.6,25-21.9,37.2c-4.6,7.7-9.4,15.6-14,23.4c-1.2,1.9-2.3,3.8-3.4,5.7
		C696.4,503.1,692.2,510.3,685.3,514.5z"/>
</g>
<g>
	<path class="st0" d="M742.4,431.3c9.7-16.1,19.4-32.5,28.9-48.3c8.5-14.2,16.9-28.3,25.4-42.4l0.9-1.5l-10.3,0c-7,0-14.1,0-21.1,0
		c-9.6,0-17.5,0-25,0.1l-0.6,0l-0.3,0.5c-21.6,36-38.2,63.5-53.8,89.1c-4.6,7.3-9.2,14.9-13.6,22.2c-4.1,6.8-8.3,13.9-12.6,20.8
		c-1.6,2.4-4.1,3.4-8.5,3.4c-1.2,0-2.5-0.1-3.7-0.1c-1.1-0.1-2.2-0.1-3.2-0.1c-3.8-0.3-5.7-3.6-7.6-6.9c-0.4-0.7-0.8-1.4-1.2-2
		c-2.7-4.4-5.4-9-8-13.4c-4.6-7.7-9.3-15.6-14.1-23.3l-11.9-19.9c-13.7-22.8-27.8-46.4-41.6-69.7l-0.3-0.5l-0.6,0
		c-7.2-0.1-14.9-0.1-24.3-0.1c-5.9,0-11.8,0-17.6,0c-4.2,0-8.4,0-12.6,0l-1.8,0l0.9,1.5c7.3,12.3,14.7,24.5,22,36.8
		c10.5,17.5,21.3,35.6,31.9,53.4c9.1,15.5,18.5,31.2,27.6,46.4c5.4,9,10.9,18.1,16.2,27.1c5,8.6,10.6,13.8,17.3,15.9
		c6.6,2.2,13.6,2.5,20.1,2.5c1.5,0,3,0,4.6,0c1.5,0,3,0,4.5,0c1.1,0,2.3,0,3.4,0l0.9,0c1.1,0,2.2,0,3.4,0c1.1,0,2.3,0,3.4,0
		c0,0,0,0,0,0c9.2,0,18.8-0.4,27.1-5.6c7.6-4.6,12-12.1,16.2-19.4c1.1-1.9,2.2-3.8,3.3-5.6c4.6-7.8,9.4-15.8,14-23.4
		C727.7,456.4,735.3,443.9,742.4,431.3z M702.3,412c2.3-3.7,4.6-7.5,6.8-11.3c4.3-7.1,8.6-14.2,12.8-21.3
		c7-11.7,14.3-23.7,21.5-35.5c1.5,0,3.1,0,4.6,0c3.9,0,7.8,0,11.7-0.1c3.9,0,7.8-0.1,11.7-0.1c6.9,0,12.5,0.1,17.7,0.3
		c-11.9,19.3-23.7,39.2-35.1,58.3c-5.3,8.9-10.6,17.8-15.9,26.7l-0.9,0.1c3.7-6.9,7.9-13.7,11.8-20.2c2.6-4.3,5.4-8.8,7.9-13.3
		c3.6-6.2,7.4-12.5,11.1-18.6c6.1-10,12.3-20.4,18.1-30.8l0.8-1.4l-1.6,0c-4.1-0.1-8.6-0.2-14.4-0.2c-2.3,0-4.6,0-7,0
		c-2.3,0-4.6,0-7,0c-2.7,0-5.4,0-8.2,0c-0.2,0-0.4,0-0.6,0l-1,0c-1.3,0-3.7,0-4.7,2.4c-7.5,12.5-15.1,25.1-22.5,37.3
		c-8.9,14.7-18.1,29.9-27.1,44.9c-0.3,0-0.6,0-1,0C695.4,423.4,698.9,417.6,702.3,412z M562.9,429.2c-16.2-27.3-33.3-56-50.9-85.2
		c6-0.1,12.5-0.1,20.4-0.1c4.9,0,9.8,0,14.7,0c3.5,0,6.9,0,10.4,0c4.6,7.4,9.2,15.1,13.6,22.5c3.1,5.2,6.2,10.5,9.4,15.7
		c3.8,6.5,7.7,13,11.5,19.3c5.5,9.1,11.1,18.4,16.5,27.8l-1.2,0c-3.7-6.9-7.8-13.7-11.8-20.3c-2.4-3.9-4.8-7.9-7.1-11.9
		c-5.1-8.6-10.3-17.2-15.4-25.7c-4.8-8.1-9.7-16.2-14.5-24.3c-1-2.4-3.5-2.4-4.8-2.4l-0.9,0c-0.2,0-0.4,0-0.7,0
		c-2.7,0-5.3,0.1-8,0.1c-2.3,0-4.7,0-7,0c-2.4,0-4.7,0-7,0c-5.8,0-10.2,0.1-14.3,0.2l-1.6,0.1l0.8,1.4c3.7,6.9,7.8,13.7,11.8,20.3
		c2.5,4.2,5.2,8.5,7.7,12.8c3.3,5.6,6.7,11.2,10,16.7c4.1,6.9,8.3,13.8,12.4,20.7c0.9,1.5,1.8,3,2.7,4.4c1.6,2.6,3.2,5.2,4.6,7.9
		C563.5,429.2,563.2,429.2,562.9,429.2z M691.9,501.1c-3.3,5.6-8.4,9.8-14.3,11.9c-5.7,1.9-11.6,2.1-17.1,2.1c-1.5,0-3,0-4.5,0
		c-1.5,0-3,0-4.5,0c-0.8,0-1.7,0-2.5,0c-0.7,0-1.5,0-2.2,0c-1.2,0-2.5,0-3.7,0c-1.2,0-2.5,0-3.7,0c-7.3,0-13.4-0.5-19-2.8
		c-6.6-3.1-10.4-9.6-14.1-15.9c-0.8-1.4-1.6-2.7-2.4-4c-4.9-8.3-9.9-16.7-14.8-24.7c-7.2-11.8-14.6-24.1-21.5-36.3
		c4.4,0,8.9,0,13.3,0l16.6,0c3,0,6.1,0,9.1,0h0c4,6.8,8.1,13.7,12.1,20.3c3.6,6,7.4,12.2,11,18.4c2.4,4.3,6.1,10.9,12.9,12.2
		c2.3,0.3,4.6,0.4,7.3,0.4c2.2,0,4.6-0.1,7.7-0.3c5.7-0.8,9.2-5.6,11.7-10.2c2.8-4.6,5.7-9.4,8.4-14c5.3-8.9,10.7-18,16.5-26.8
		c5.1,0,10.2,0,15.3,0l14.1,0c3.3,0,6.6,0,9.9,0c-1.7,3.4-3.7,6.6-5.6,9.7c-1.4,2.2-2.8,4.6-4.1,6.9c-3.6,6.1-7.2,12.1-10.9,18.2
		C706.1,477.6,699,489.5,691.9,501.1z"/>
	<path class="st0" d="M1016.4,399.4c0-3.1-0.1-6.4,0-9.6c0.2-15.3-4.5-28.2-13.2-36.4c-9.8-9.4-24.7-14.3-44.4-14.5
		c-14.7,0-29.3,0-44,0c-14.7,0-29.3,0-44,0c-23.9,0-43.5,0-61.7,0.1l-0.6,0l-0.3,0.5c-8.4,14.3-17,28.7-25.4,42.7
		c-9.2,15.5-18.8,31.5-28.1,47.4l-0.8,1.4l1.6,0.1c0.8,0,2.4,0.1,3.2,0.2l0.6,0l0.3-0.5c9.2-15.6,18.6-31.4,27.7-46.7
		c7.6-12.8,15.5-26,23.2-39c0.4-0.8,1-1.3,1.6-1.3c0.1,0,0.3,0,0.4,0l0.1,0l82.6,0c16.2,0,32.4,0,48.6,0c1,0,2,0,2.9,0
		c1.5,0,3,0,4.5,0c1.5,0,3,0,4.5,0c5.7,0,11.9,0.1,18,1.2c9,1.5,21.3,5.2,29,14.9c6,7.4,9,18,8.5,29.9c-0.2,3.8-0.1,7.7,0,11.4
		c0.2,9.4,0.4,19.2-3.1,28.2c-0.4,0.7-0.8,1.4-1.3,2.1c-2.4,4.1-4.9,8.4-8.7,11.3c-9,7.3-21.5,11.1-38.3,11.5c-24.8,0-49.7,0-74.5,0
		c-24.3,0-48.5,0-72.8,0c2.4-4.3,4.9-8.5,7.4-12.6c2.1-3.5,4.2-7,6.3-10.6l0.6-1.1l-4.8-1.5l-0.4,0.6c-3,4.6-5.9,9.5-8.6,14.2
		c-2,3.5-4.2,7.1-6.3,10.6c-0.9,1.3-1.6,2.8-2,4.4l-0.3,1.3l1.3,0c25.8,0,51.6,0,77.5,0l75.6,0c10.4-0.5,21.4-1.6,31.3-6
		c10.2-4.4,18.2-12.2,21.9-21.6C1016.7,421.7,1016.6,410.4,1016.4,399.4z"/>
	<path class="st0" d="M778.5,475.3c8.7-14.5,17.7-29.6,26.4-44.5c6.6-11.3,13.5-22.8,20.2-33.9c3.2-5.3,6.4-10.6,9.5-15.9
		c15.4,0,30.8,0,46.3,0c10.4,0,52,0,62.4,0l14.8,0c6.4,0.1,10.6,1.6,12.9,4.6c2.3,3.2,2.2,7.3,2.2,11.3c0,1.3,0,2.7,0,4
		c0,0.9,0,1.9,0,2.9c0,3.4,0,6.8-2.1,9.3c-2.5,2.9-6.8,4.4-13,4.5c-18.7,0-37.3,0-56,0s-37.3,0-56,0l-0.5,0c-0.8,0-1.5,0-2.3,0
		c-0.8,0-1.6,0-2.4,0c-1.9,0-3.4,0.1-4.8,0.4l-0.4,0.1l-0.2,0.3c-2.7,3.4-4.7,7.3-6.5,11l-0.6,0l-0.3,0.5c-1.7,3.2-3.7,6.4-5.6,9.5
		c-2.6,4.3-5.3,8.7-7.5,13.3l-0.7,1.4l1.6,0c15.3,0.1,32.1,0.2,52.9,0.2c10.5,0,21,0,31.5,0s21,0,31.5,0c5.1,0,10.2,0,15.3,0
		c2,0,4,0.1,6,0.1c10.7,0,23.1-0.6,34.5-5.2c8.7-3.5,15.8-10.1,19.5-18.2c2.9-7.5,4.2-15.5,3.8-23.9c-0.1-3.2-0.1-6.6,0-9.9
		c0.2-9,0.3-18.4-3.1-27.1c-3-7.9-9-14.6-16.5-18.5c-10.8-5.7-23.4-6.6-33.1-6.8c-23.8,0-47.7,0-71.5,0c-23.8,0-47.6,0-71.4,0
		c-0.2,0-0.5-0.1-0.7-0.1c-2.3,0-3.5,2-4.4,3.5c-0.1,0.2-0.2,0.4-0.4,0.6c-7.1,12.3-14.5,24.6-21.7,36.6c-8.6,14.4-17.5,29.2-26,44
		l-0.6,0.3l-0.1,0.2c-8.7,14.5-17.3,29-25.9,43.5c-6.5,10.9-12.9,21.7-19.4,32.6c-0.5,0.8-1,1.6-1.5,2.4c-1.4,2.2-2.9,4.5-3.7,7.2
		l-0.4,1.3l1.4,0c5.8,0.1,12,0.1,19.4,0.1c5.6,0,11.1,0,16.7-0.1l3.3,0c0.2,0,0.3,0,0.5,0c2.2,0,3.3-1.8,4.2-3.3
		c0.2-0.3,0.4-0.7,0.6-1C763.6,500.2,771.2,487.5,778.5,475.3z"/>
	<path class="st0" d="M599,518.3c-8-13.2-16-26.7-23.7-39.7c-9.8-16.4-19.8-33.4-29.9-49.9c-21.4-35.6-37.8-63.1-53.1-89l-0.3-0.5
		l-0.6,0c-3.6-0.1-7.5-0.1-12.4-0.1c-2.6,0-5.2,0-7.7,0c-2.6,0-5.1,0-7.7,0l-1.6,0c-12.5,0.1-30.1,2.7-43.1,14.7
		c-6.6,5.8-12.1,13.5-17.4,24c-3.4,6.6-6.8,13.3-10.2,19.9c-5.3,10.4-10.8,21.1-16.3,31.6c-4.2,7.7-8.2,15.6-12.1,23.2
		c-3.7,7.4-7.6,14.9-11.6,22.3c-0.1,0-0.3,0-0.4,0c-3.6-6.8-7.2-13.7-10.6-20.5c-4.2-8.3-8.6-16.8-13.1-25
		c-5.2-9.9-10.4-20-15.4-29.8c-4-7.7-7.9-15.4-11.9-23.1c-5.2-10.1-10.2-17-16.1-22.4c-6.7-6.4-15.6-10.9-25.5-13
		c-7.9-1.8-15.9-2-23.4-2c-1.8,0-3.7,0-5.5,0c-1.8,0-3.7,0-5.5,0c-1.3,0-2.6,0-4,0c-1.3,0-2.6,0-3.9,0c-1.9,0-3.7,0-5.6,0
		c-1.9,0-3.7,0-5.6,0c-3.6,0-6.6,0.1-9.2,0.2l-0.8,0l-0.2,0.8c-1.2,5.8-0.9,11.9-0.7,17.8c0,1,0.1,2,0.1,3c-0.2,2.3-0.3,4.7-0.2,7.1
		c0,6.6,0,13.3,0,19.9c0,15.8,0,32.1,0.3,48.1l0,22.9c0,20.6,0,41.8,0,62.8l0,1l1,0c5.2,0.1,10.8,0.1,18,0.1c3.2,0,6.5,0,9.7,0
		c3.2,0,6.5,0,9.7,0c2.7,0,5.4,0,8.1,0l1,0l0-1c0.1-19.1,0.1-38.5,0.1-57.3c0-11.4,0-22.9,0-34.3l0-1.1l-4.8,0.5l0,0.9
		c-0.1,11.2-0.1,22.6,0,33.6c0,5.3,0,10.6,0,15.9c-0.3,5.9-0.2,12-0.1,17.8c0.1,6.3,0.2,12.9-0.1,19.3c-7.2,0.1-13.3,0.2-19.1,0.2
		c-6.4,0-12.2-0.1-17.8-0.2c0-0.3,0-0.6,0-0.9l0,0.7l0.9,0c4.6,0.2,9.6,0.3,15.5,0.3c4.2,0,8.5-0.1,12.6-0.1c2.1,0,4.1-0.1,6.2-0.1
		l0.9,0l0-0.9c0.3-6.1,0.2-12.3,0.2-18.4c0-3.5,0-7.2,0-10.7c0-6.9,0-13.7,0-20.6c0-11.8,0.1-24.1-0.1-36.1c0-7.1,0-14.2,0-21.2
		c0-9.5,0-19.1,0-28.6l0.2,0c5.2,0.7,10.5,1.5,14.8,4.5c5,3.4,7.8,9,10.6,14.3l0.7,1.5c2.1,4.2,4.3,8.4,6.5,12.4
		c2.8,5.3,5.7,10.7,8.3,16.2c-0.5,0-1.1,0.1-1.4,0.1l-4.8,0l0.7,1.5c9.8,19.3,20.1,38.8,30,57.7c5.8,11,11.7,22.3,17.5,33.5l0.3,0.5
		l0.6,0c9,0.1,18.5,0.1,28.9,0.1c9.4,0,19.4,0,32.3-0.1l0.6,0l0.3-0.5c5.3-10.3,10.7-20.6,16.1-30.8c10.4-19.8,21.1-40.2,31.3-60.5
		l0.7-1.4l-1.6,0c0,0-4.1-0.1-4.6-0.1c3.4-6.9,7-13.9,10.6-20.6c1.8-3.3,3.5-6.7,5.2-10l0.4-0.7c2.2-4.4,4.5-8.9,8.4-12
		c4.7-4.1,10.8-5,15-5c0.8,0,1.5,0,2.3,0.1c3.9,6.5,7.7,12.9,11.6,19.4c3.5,5.9,7.1,11.8,10.6,17.7c0.8,1.4,1.6,2.7,2.4,4
		c1.4,2.3,2.9,4.7,4.1,7.1l-1.7-0.1l-3.2,0.1l-1.7,0.1l0.8,1.4c15.6,26.5,32.3,54.6,54.4,91.2l0.3,0.5l0.5,0
		c6.4,0.2,13.3,0.2,22.2,0.2c4,0,8,0,12,0c4,0,8,0,12,0c2.8,0,5.6,0,8.4,0l1.3,0l-0.3-1.2C599.8,520.4,599.5,519.4,599,518.3z
		 M199.8,500.1c0,1.2,0,2.5,0,3.8c0-4.4,0-8.9,0-13.3C199.9,493.7,199.8,496.9,199.8,500.1z M276.4,355.4
		c-9.4-7.2-22.2-10.7-39.3-10.7H237c-1.9,0-3.8,0-5.8,0c-2.6,0-5.2,0-7.8,0c-2.6,0-5.2,0-7.8,0c-5.8,0-10.3,0.1-14.4,0.3l-1,0l0,1
		c0,10,0,20.2,0,30.1c0,17.8,0.1,36.2-0.2,54.2c-0.1,3.7-0.2,7.5-0.2,11.2c0-3.7,0-7.3-0.1-11c-0.2-26.6-0.2-54.9,0-86.5
		c7.1,0,14.5-0.1,22-0.1c6.4,0,12.8,0,19.3,0c10.9,0.1,26.3,2.3,37.9,12.2c9.3,7.8,14.9,18.9,20.4,29.6l0.8,1.7c3,6,6.1,12,9.2,17.8
		c4.1,7.9,8.3,16,12.3,24.1l-0.8,0c-4-7.6-8-15.3-11.8-22.8c-3.8-7.4-7.7-15-11.6-22.4C292.4,374,286.3,362.7,276.4,355.4z
		 M397.2,477.2c-6.2,11.9-12.7,24.2-18.9,36.4l0,0.1l0,0.1c-0.4,1.2-1.7,1.4-3.7,1.4l-0.5,0c-4.5,0-9,0-13.5,0c-3.7,0-7.3,0-11,0
		c-3.7,0-7.3,0-11,0c-3.8,0-7.7,0-11.5,0h-0.1l-0.1,0c-0.2,0-0.4,0-0.6,0c-2,0-2.8-1.6-4-4.4c-0.4-0.9-0.8-1.8-1.2-2.5
		c-14.6-27.8-27.7-53-40.2-76.8c4.5-0.2,9.4-0.2,15.3-0.2c3.5,0,7.1,0,10.6,0.1c3.5,0,7.1,0.1,10.6,0.1c0.8,0,1.5,0,2.3,0
		c2.1,3.7,4.1,7.7,6,11.5c1.8,3.5,3.6,7.2,5.5,10.7c4,7.4,7.8,15.1,11.6,22.5c1,2,3.3,6.5,3.3,6.5l0.6,0c1.7,0,3.5,0,5.2,0
		c1.2,0,4.3,0,4.3,0l0.3-0.5c8.4-16.1,17.2-33.1,26-50.7h0c2.1,0,4.3,0,6.4,0c3,0,6,0,9,0c3,0,6,0,9,0c5.5,0,9.9,0.1,14,0.2
		C413.1,446.7,405,462.2,397.2,477.2z M488.7,345.3l-0.3-0.4l-0.4-0.1c-1.8-0.2-3.6-0.3-5-0.3c-0.7,0-1.4,0-2.2,0
		c-0.7,0-1.4,0-2.1,0l-0.8,0c-1,0-1.9,0-2.9,0c-1.2,0-2.5,0-3.7,0c-1.3,0-2.5,0-3.8,0c-7,0-12.9,0.2-18.7,1.3
		c-11.6,1.8-22,7.3-29.4,15.3c-6.8,7-11.2,15.8-15.5,24.4c-0.5,1-1,2.1-1.6,3.1c-2.4,4.8-4.9,9.6-7.4,14.3
		c-4.4,8.5-9,17.3-13.1,26.2h-1.2c4.4-9,9.1-18,13.6-26.8c3.6-6.9,7.3-14,10.8-21c7.1-14.5,15.4-24.3,25.2-30c8.7-5,19.8-7.6,33-7.6
		l0.8,0c1.6,0,3.3,0,4.9,0c1.8,0,3.7,0,5.5,0c1.8,0,3.7,0,5.5,0c3.7,0,6.6,0,9.4,0.1c14.4,24.2,29.3,49.2,44.1,74.1
		c0.8,1.4,1.7,2.8,2.5,4.1c1.4,2.3,2.8,4.6,4,7l-1,0c-8.3-14.2-16.9-28.5-25.1-42.3c-3.8-6.3-7.6-12.6-11.3-19
		c-1.7-2.8-3.4-5.7-5.1-8.5C494.6,354.7,491.8,349.8,488.7,345.3z M575.4,515.1c-2.4,0-4.8,0-7.3,0c-2.4,0-4.9,0-7.3,0
		c-3,0-5.5,0-7.8,0.1c-0.5,0-0.9,0-1.4,0c-2.1,0-3.5-0.1-4.1-1.4c-4.4-7.3-8.8-14.7-13-21.9c-3.2-5.5-6.5-10.9-9.7-16.4
		c-3.4-5.8-6.9-11.7-10.4-17.3c-5.3-8.8-10.8-17.8-15.9-26.9c3.8,0,7.6,0,11.5,0c2.5,0,12.6,0,15.1,0c4.2,0,8.4,0,12.6,0
		c9.1,14.5,17.9,29.5,26.5,43.9c7,11.8,14.2,24,21.5,35.8c0.8,1.2,1.4,2.6,2,3.9C584.1,515,580.3,515.1,575.4,515.1z"/>
	<path class="st0" d="M809.9,429.6l-33.2,56l0,0c-6.8,11.3-14,23.4-21.1,35.4l1.7,1l21-35.4l0,0l3.9-6.4c9.7-16.2,19.7-33,29.4-49.5
		L809.9,429.6z"/>
</g>
<path class="st2" d="M975.1,400.8c-0.1-1.3,0-2.5,0-3.9c0.1-4.3,0.1-8.7-2.5-12.5c-2.7-3.6-7.5-5.4-14.5-5.5l-14.8,0
	c-10.4,0-52,0-62.4,0c-15.6,0-31.2,0-46.8,0l-0.6,0l-0.3,0.5c-3.3,5.5-6.5,10.9-9.8,16.4c-6.6,11.1-13.5,22.6-20.2,33.9l-0.9,1.5
	l1.8,0l3,0l1.3,0l0.3-0.5c4.3-8.1,9.2-16.1,13.8-23.8c2.8-4.7,5.8-9.5,8.5-14.3c0.8-1.1,1.4-2.3,2.1-3.5c1-1.9,2-3.7,3.4-5.2
	c2.8-0.2,5.8-0.3,9.5-0.3c2,0,4.1,0,6.1,0c2,0,4.1,0.1,6.1,0.1c1.3,0,2.6,0,3.9,0l5.8,0c8.7,0,17.4,0,26.1,0c8.7,0,17.4,0,26.1,0
	c12.7,0,25.3,0,37.9,0.1c4.8,0.2,10,0.9,11.6,5c0.9,2.8,0.8,5.7,0.7,8.7c0,1.4-0.1,2.9,0,4.3c0,0.6,0,1.3,0,1.9c0,3,0,6.2-2.1,8.1
	c-2.9,2.5-7.2,2.6-11,2.7l-0.2,0c-12.7,0-25.3,0-38,0l-76.1,0c-0.3,0-0.5,0-0.8,0c-0.6,0-1.2,0-1.8,0c-0.6,0-1.3,0-1.9,0
	c-1.2,0-2.8,0.1-4.3,0.6l-0.3,0.1l-0.2,0.3c-3,4.5-5.7,9.2-8.3,13.9l-1.1,1.9l1.7,0c0.7,0,2.2,0,2.9,0l1.3,0l0.5-1
	c1.8-3.6,3.6-7.3,6.1-10.5c1.2-0.2,2.4-0.3,4.1-0.3c0.8,0,1.5,0,2.3,0c0.8,0,1.6,0,2.4,0l0.6,0c18.7,0,37.3,0,56,0s37.3,0,56,0
	c6.8-0.1,11.5-1.8,14.5-5.2c2.6-3.1,2.6-7.1,2.6-10.6c0-1,0-1.9,0-2.8V400.8z"/>
<g id="_x23_231f20ff">
	<path class="st1" d="M558,32.1C574.2,20.8,590,9,604.3-4.7c6.4,5.3,12.3,11.2,18.9,16.2c30.2,23.8,62.9,44.2,96.9,62.2
		c76,40,159.3,66.4,244.8,75.9c13.7,1.6,27.5,2.5,41.2,3.4c0.2,25.7-1.7,51.4-4.3,76.9c-2.7,27.2-6.8,54.2-11.4,81.1
		c16.6,4.5,32.1,14,42.4,27.9c11,14.5,16.1,32.9,15.8,51c-0.3,12.7,0.9,25.5-1.8,38c-3.3,16.8-12.1,32.7-25.3,43.7
		c-13.3,11.2-30.4,17.1-47.5,19.2c-11.3,1.5-22.8,0.8-34.2,1.1c-24.5,62.4-56.6,122.2-97.7,175.3c-36.1,46.7-79.3,88-128.6,120.5
		c-33.9,22.4-70.5,40.6-108.7,54.3c-2.9-0.2-5.5-1.8-8.2-2.7c-64.8-24.2-124.3-62-174.1-109.9c-61.1-58.6-107.6-131.1-141.4-208.4
		c-2.4-5-4.1-10.3-6.7-15.2c-0.1,16.3,0.2,32.7-0.1,49c-37.3-0.1-74.7,0-112-0.1c0-82.6,0.1-165.2-0.1-247.7
		c18.5-0.5,37.1,0,55.7-0.2c-7.4-41.9-12.5-84.2-14.6-126.7c-0.5-9-0.4-17.9-0.5-26.9c49.7-2.7,99.2-10.6,147.2-24
		C423.9,108.3,494.6,75.5,558,32.1 M565.9,36.7C534,58.9,500.1,78.3,465,94.9c-79.5,37.6-166,60.6-253.8,65.9
		c0.1,7.7,0.2,15.4,0.6,23c2.4,44.1,8,87.9,16,131.3c-19.1,0-38.1,0-57.2,0c0,77.1,0,154.2,0,231.2c31.8,0,63.7,0,95.5,0
		c0.1-25-0.1-50,0.1-75c6.5,13,13.9,25.5,19.4,38.9c16.5,38.6,36,76.1,59,111.3c39.1,60,88.7,113.5,147.9,154.1
		c34.6,23.8,72.2,43.2,111.7,57.5c1.9-0.1,3.6-1.2,5.4-1.7c34.1-12.8,66.9-29.4,97.4-49.3c49.7-32.4,93.2-73.9,129.3-120.9
		c41.4-53.8,73.6-114.3,97.9-177.6c15.5-0.4,31.3,0.9,46.7-2.2c16.3-3.1,32.1-10.7,43-23.5c11.1-12.9,16.4-30,16.6-46.9
		c0-8,0-16,0-24c-0.4-17.9-6.6-36.2-19.3-49.1c-10.6-11.2-25.3-17.7-40.3-20.7c5.4-28.9,9.7-58,12.7-87.2c2.2-23,4.3-46.1,4.2-69.2
		c-119.4-7.1-236.2-47.1-336.6-111.9c-19.6-13-39.2-26.4-56.5-42.4C592.4,17.4,579.3,27.3,565.9,36.7z"/>
	<path class="st1" d="M604.4,16.1c31.2,26.3,65.8,48.4,101.5,67.8c87.6,47.3,185.2,76.6,284.7,83.5c-1.4,49.9-7.7,99.6-16.8,148.6
		c-5.9-0.8-11.9-1-17.8-1c8.4-43.5,13.9-87.5,16.6-131.7c-83.3-7.4-165.1-30.7-240.7-66.4C686.8,95.6,643.7,69.7,604.3,39
		c-22.3,18-46.3,33.7-71,48.3c-76.1,44.6-160.4,75.4-247.4,89.8c-16.4,2.6-32.9,5.1-49.5,6.3c2.8,44.4,8.2,88.8,16.8,132.5
		c-6-0.8-12.1-0.8-18.2-0.8c-8.9-48.7-15.3-98.1-16.6-147.6c89.3-6.2,177.2-30.4,257.6-69.6C509,81.7,540.9,63.2,571,42
		C582.5,33.8,593.8,25.4,604.4,16.1z"/>
	<path class="st1" d="M176,320.2c21.3,0.2,42.6,0,63.9,0.1c16.1,0.1,32.7,3.4,46.4,12.2c12.9,8.1,22.5,20.5,29.4,33.9
		c11.8,22.8,23.6,45.6,35.3,68.5c11.4-22.2,22.8-44.3,34.2-66.5c6-11.8,13.8-22.9,24.2-31.1c14.7-12,33.9-16.8,52.6-16.9
		c36.2-0.1,72.5,0,108.7-0.1c26.5,44.2,52.9,88.4,79.4,132.6c26.8-44.1,53.4-88.4,80.2-132.6c70.2,0,140.5,0,210.7,0
		c13.3,0.1,26.8-0.6,39.8,2.2c14.3,2.8,28.3,9.4,38.1,20.4c11.1,12.5,16.1,29.4,16.2,45.9c-0.2,15.1,1.3,30.7-3.9,45.2
		c-5.3,16.7-18.3,30.7-34.6,37.2c-17.2,7.4-36.2,7.1-54.6,6.9c-45.6,0-91.3,0-136.9,0c-12.7,21-25,42.1-37.7,63
		c-78.1-0.2-156.1,0.1-234.2-0.1c-24.1-40.9-48.6-81.6-72.8-122.4c-0.3-1-2-2.8-2.5-0.8c-21.5,41.1-42.8,82.4-64.5,123.4
		c-28.2-0.1-56.4-0.1-84.6,0c-16.1-30.1-31.5-60.7-47.8-90.8c-0.2,30.2,0,60.5-0.1,90.7c-28.3,0-56.6,0-85,0c0-71.1,0-142.1,0-213.2
		C175.8,325.3,175.8,322.8,176,320.2 M186.4,331c0.1,66.5,0,132.9,0,199.4c21.3-0.1,42.5,0.1,63.8-0.1c0-41.2,0-82.4,0-123.7
		c21.8,41.2,43,82.6,64.9,123.8c24-0.2,48,0.1,72.1-0.2c22.1-42.8,44.6-85.5,66.8-128.3c1.2-2.5,2.8-4.9,4.6-7
		c26.8,45.2,53.8,90.3,80.7,135.5c74.1,0,148.1,0,222.2,0c12.4-21,25-41.9,37.4-62.9c53.7-0.1,107.3,0,161-0.1
		c15.1-0.3,30.9-3.2,43.4-12.2c10.4-7.3,17.2-19,19.7-31.3c2-8.5,1.4-17.3,1.5-26c0-7.3,0.3-14.7-1.2-21.9
		c-2.3-13.1-9.3-25.5-20.3-33.1c-13.3-9.4-30.1-12.1-46-12c-73.6,0-147.2,0-220.8,0c-27.2,45.2-54.7,90.3-81.8,135.6
		c-2.8,0.1-5.6,0.1-8.3,0.1c-27.1-45.2-54.2-90.4-81.2-135.7c-34.6,0-69.3,0-103.9,0c-16.7,0.2-34.1,4.8-46.8,16.1
		c-13.4,11.3-20.1,27.7-28.1,42.8c-11.5,22.6-23.4,45.1-34.7,67.9c-1.4-1.4-2.1-3.2-3-4.9c-13.3-25.8-26.6-51.6-39.9-77.4
		c-3.3-6.5-6.8-13-11.4-18.7c-7.4-9.7-17.5-17.4-29.1-21.3c-10.3-3.6-21.3-4.6-32.1-4.5C219.5,331,202.9,330.9,186.4,331z"/>
	<path class="st1" d="M193.3,338c13.9-0.1,27.8,0,41.8,0c9,0,18.1,0.3,26.8,2.6c9.5,2.3,18.3,7.2,25.2,14.2
		c6.7,6.6,11.5,14.8,15.8,23.1c16.2,31.4,32.5,62.7,48.6,94.2c0.6-0.6,1.2-1.3,1.5-2.1c15.9-31.1,31.9-62.1,47.9-93.2
		c4.8-9.4,10.8-18.4,19-25.2c11.6-9.9,27.1-13.5,42.1-13.7c10.6,0,21.1-0.2,31.7,0.1c36.9,62.3,74.2,124.5,111.2,186.8
		c-20.5,0.1-41.1,0.3-61.6-0.1c-26.6-45.3-53.9-90.1-80.5-135.4c-5.6-0.1-10.4,3.8-12.8,8.6c-22.1,42.3-44.2,84.6-66.2,127
		c-21.6-0.1-43.1,0.2-64.6-0.2c-21.6-41.9-43.7-83.6-65.4-125.4c-1.9-4-5-7.6-9.2-9.3c0,44.9-0.1,89.9,0,134.8
		c-17.1,0.2-34.2,0.3-51.3,0C193.4,462.5,193.4,400.3,193.3,338 M195.3,360.9c-0.2,2.3-0.3,4.7-0.2,7c0.1,22.7-0.2,45.4,0.3,68
		c0,28.5,0,57.1,0,85.6c15.2,0.2,30.4,0,45.6,0.1c0.2-30.5,0-61,0.1-91.6c0-14.8,0-29.6,0-44.5c5.9,1,11.1,4.9,13.8,10.2
		c6.1,11.5,12.1,23,18.1,34.5c15.5,30.6,31.7,60.8,47.5,91.3c20.4,0.2,40.8,0.1,61.1,0c15.8-30.4,31.9-60.7,47.4-91.3
		c6-11.7,12.1-23.4,18.3-35.1c3-6,9.7-10.2,16.5-9.5c8.5,15,17.7,29.6,26.3,44.5c17.9,30.5,36.1,60.9,54.4,91.2
		c18.2,0.5,36.4,0.1,54.7,0.2c-0.2-1-0.6-1.9-1-2.8c-18-29.8-35.6-59.9-53.6-89.7c-17.8-29.6-35.5-59.3-53.1-89
		c-9.8-0.3-19.6-0.1-29.4-0.1c-15.2,0.1-31.1,3.9-42.5,14.4c-7.4,6.6-12.8,15-17.1,23.7c-8.9,17.2-17.6,34.4-26.5,51.6
		c-8.3,15.2-15.7,30.9-24,46.1c-0.4,0-1.2-0.1-1.6-0.1c-8.2-15.2-15.7-30.9-24-46c-9.1-17.6-18.2-35.2-27.3-52.8
		c-4.2-8.1-9.1-16-15.9-22.2c-6.9-6.5-15.8-10.8-25-12.7c-12.5-2.8-25.4-1.8-38.1-2c-8.1,0.1-16.2-0.3-24.2,0.2
		C194.4,346.9,195,354,195.3,360.9z"/>
	<path class="st1" d="M500.8,338c20.4,0,40.7,0,61.1,0c26.2,43.8,52.4,87.6,78.6,131.4c1.2,1.7,2.2,4.1,4.6,4.2
		c4.2,0.1,8.4,0.3,12.5-0.1c2-1,2.9-3.3,4.1-5.1c26.2-43.5,52.6-86.8,78.7-130.3c20.4-0.2,40.8,0,61.1-0.1
		c-32.3,53.9-64.4,107.8-96.6,161.7c-3.6,6.2-7.3,12.6-13,17.1c-6.9,5.7-16,8-24.9,8.2c-9.3,0.1-18.6,0-27.9,0.1
		c-7.8,0-16-0.3-23.1-3.9c-6.1-3-10.6-8.5-14.1-14.2C568.1,450.6,534.5,394.3,500.8,338 M505.2,340.1c17.9,30.1,36,60.1,53.9,90.2
		c14.4,24.6,29.3,49,43.9,73.6c3.8,6.6,9.2,13.1,16.8,15.4c10.4,3.4,21.5,2.1,32.3,2.4c11.5-0.1,24.1,0.9,34.4-5.5
		c9.3-5.6,13.7-15.9,19.2-24.7c11.9-20.3,24.4-40.2,36-60.7c18.2-30.2,36.1-60.5,54.3-90.7c-18.2,0-36.4-0.1-54.5,0
		c-17.9,29.7-35.8,59.4-53.8,89.1c-9,14.2-17.3,28.8-26.2,43c-3.6,5.3-10.9,3.6-16.2,3.5c-5.2-0.3-7.2-5.6-9.5-9.4
		c-7.4-12.2-14.5-24.6-22.2-36.7c-17.9-29.8-35.8-59.6-53.6-89.6C541.6,339.9,523.4,340.1,505.2,340.1z"/>
	<path class="st1" d="M808.2,338.1c44.6-0.2,89.2,0,133.7-0.1c16.8,0,34.3-1,50,6.1c11.5,4.9,20.8,14.9,24.3,27
		c3.7,11.6,2.3,23.9,2.5,35.9c0.3,9.7-0.7,19.7-5,28.5c-4.5,9.6-12.9,16.9-22.7,20.9c-10.4,4.4-21.8,5.6-33,5.7
		c-52.2,0-104.5,0-156.7,0c10.2-17.1,20.3-34.2,30.5-51.3c42,0.1,84.1,0,126.2,0c2.5-0.1,5.3,0.1,7.5-1.4c1.3-2.3,0.5-5,0.7-7.5
		c-0.4-3.7,0.9-7.9-0.9-11.4c-2.2-1.4-4.9-1.3-7.3-1.4c-39.5,0-79.1,0-118.6,0c-26.9,45.1-53.7,90.3-80.7,135.3
		c-0.4,0.1-1.2,0.3-1.6,0.4c-20-0.1-40,0.1-60-0.1C734.2,462.6,771.3,400.4,808.2,338.1 M809.3,340.1c-17.7,30.1-35.8,60-53.5,90.1
		l-0.4,0c-17.5,29.8-35.4,59.4-53,89.2c-0.1,0.6-0.4,1.8-0.5,2.4c18.2-0.2,36.3,0.1,54.5-0.2c18-30.6,36.4-60.8,54.3-91.4
		c8.6-14.9,17.7-29.6,26.4-44.5c40.6-0.1,81.2-0.1,121.9-0.1c3.3,0.1,7.9,0.7,9.1,4.4c0.6,4.6,0.1,9.3,0.3,13.9
		c-0.2,2.3,0.5,5.3-1.6,6.9c-2.8,2-6.5,2-9.8,2.2c-40,0-80,0-120,0c-1.5,0.1-3.1-0.2-4.5,0.3c-3.3,5.5-6.5,11-9.8,16.5
		c-5.3,8.1-9.8,16.6-14.9,24.8c-0.9,1.3-1.5,2.7-1.9,4.1c51,0,102,0,153.1,0c10.5-0.5,21.3-1.6,31-5.9c9.4-4,17.6-11.4,21.4-21
		c5.6-13.3,3.8-27.9,4.1-41.9c0.1-12.8-3.2-26.6-12.9-35.6c-11.5-11.1-28.3-14-43.7-14.2C909,340.1,859.2,340,809.3,340.1z"/>
	<path class="st1" d="M907.7,483.4c6.3,0,12.7,0,19,0c-26.4,67.9-61.5,132.8-108.1,189c-37.7,45.6-82.9,85.2-134,115.2
		c-25.1,14.8-51.5,27.3-78.7,37.5c-2.3,1.1-4.6-0.9-6.8-1.5c-68.7-26.1-131.2-67.9-181.9-121c-43.9-45.8-79.7-99.3-107.3-156.3
		c6.4,0,12.8,0,19.2,0c24.3,48.2,54.2,93.9,90.6,133.9c48.7,53.9,109.6,96.8,177.1,123.8c3.1,0.9,6.2,3.6,9.5,2.3
		c20.8-8.1,41-17.6,60.5-28.5C722.1,747.1,770.6,705,810,655.9c41.2-51.3,73.1-109.8,97.1-170.9
		C907.3,484.6,907.6,483.8,907.7,483.4z"/>
</g>
<path class="st3" d="M565.9,36.7c13.4-9.4,26.5-19.3,38.7-30.2c17.4,15.9,36.9,29.4,56.5,42.4c100.4,64.8,217.2,104.8,336.6,111.9
	c0.1,23.1-2,46.2-4.2,69.2c-3,29.2-7.3,58.3-12.7,87.2c15,3,29.7,9.5,40.3,20.7c12.7,12.9,18.9,31.2,19.3,49.1c0.1,8,0,16,0,24
	c-0.2,16.9-5.5,34-16.6,46.9c-10.8,12.8-26.7,20.4-43,23.5c-15.4,3.1-31.1,1.8-46.7,2.2c-24.3,63.3-56.4,123.9-97.9,177.6
	c-36.2,47-79.6,88.5-129.3,120.9c-30.5,20-63.3,36.5-97.4,49.3c-1.8,0.6-3.5,1.7-5.4,1.7c-39.5-14.3-77.1-33.7-111.7-57.5
	c-59.2-40.6-108.8-94.1-147.9-154.1c-23-35.2-42.5-72.6-59-111.3c-5.5-13.5-12.9-26-19.4-38.9c-0.2,25,0,50-0.1,75
	c-31.8,0-63.7,0-95.5,0c0-77.1,0-154.2,0-231.2c19.1,0,38.1,0,57.2,0c-8-43.4-13.6-87.2-16-131.3c-0.4-7.7-0.6-15.4-0.6-23
	c87.8-5.3,174.3-28.3,253.8-65.9C500.1,78.3,534,58.9,565.9,36.7 M604.4,16.1C593.8,25.4,582.5,33.8,571,42
	c-30.1,21.2-62,39.7-95,55.8c-80.4,39.2-168.3,63.4-257.6,69.6c1.3,49.6,7.7,98.9,16.6,147.6c6.1,0,12.1,0.1,18.2,0.8
	c6.4,0.8,12.7,2.1,18.9,4.1c-7.3-36.7-12.7-73.9-15.9-111.2c43.3,14.9,86.5,30.2,129.7,45.2c1,0.3,2.1,0.5,3.2,0.7
	c-40.5-18.5-80.7-37.8-121.2-56.4c1.5-0.8,3.4-0.9,5.1-1.1c61.1-8.8,121-25.5,177.9-49.1c54.4-22.6,106.3-51.5,153.8-86.5
	c27.3,20.7,56.6,38.7,86.7,54.9C767.2,156.9,850,184.6,935,197c2,0.3,4.1,0.4,6.1,1.3c-40.5,18.7-80.8,37.8-121.2,56.5
	c3.4-0.6,6.6-2,9.9-3.1c41-14.3,81.9-28.8,123-42.9c-3.1,35.7-8.2,71.2-14.9,106.3c6,0,12.1,0,18.1,0c6,0,11.9,0.2,17.8,1
	c9.1-49.1,15.4-98.7,16.8-148.6c-99.4-7-197-36.2-284.7-83.5C670.2,64.4,635.6,42.4,604.4,16.1 M176,320.2c-0.2,2.6-0.2,5.1-0.2,7.7
	c0,71.1,0,142.1,0,213.2c28.3,0,56.6,0,85,0c0-30.2-0.1-60.5,0.1-90.7c16.3,30.1,31.6,60.6,47.8,90.8c28.2-0.1,56.4-0.1,84.6,0
	c21.6-41,42.9-82.3,64.5-123.4c0.6-1.9,2.2-0.2,2.5,0.8c24.2,40.9,48.7,81.5,72.8,122.4c78.1,0.2,156.1,0,234.2,0.1
	c12.8-20.9,25.1-42.1,37.7-63c45.6,0.1,91.3,0,136.9,0c18.3,0.2,37.4,0.4,54.6-6.9c16.3-6.5,29.3-20.4,34.6-37.2
	c5.2-14.5,3.7-30.1,3.9-45.2c-0.1-16.5-5.1-33.4-16.2-45.9c-9.8-11.1-23.7-17.7-38.1-20.4c-13.1-2.8-26.5-2.1-39.8-2.2
	c-70.2,0-140.5,0-210.7,0c-26.8,44.2-53.3,88.4-80.2,132.6c-26.5-44.2-52.9-88.4-79.4-132.6c-36.2,0.1-72.5,0-108.7,0.1
	c-18.7,0.1-37.9,4.9-52.6,16.9c-10.4,8.3-18.2,19.4-24.2,31.1c-11.4,22.2-22.8,44.3-34.2,66.5c-11.7-22.8-23.5-45.7-35.3-68.5
	c-6.9-13.4-16.5-25.8-29.4-33.9c-13.7-8.8-30.3-12-46.4-12.2C218.6,320.2,197.3,320.5,176,320.2 M888.7,483.4
	C864,544.3,831.6,602.6,789.2,653c-46.9,56-106.5,101.8-174,130.1c-3.5-34.7-7.1-69.5-10.6-104.2c-3.9,34.8-7.1,69.6-10.8,104.5
	c-40.7-17.5-78.8-40.8-112.8-69.2c-55.1-45.8-98.8-104.3-131.6-167.7c-6.7-0.3-13.5-0.1-20.2-0.1c-6.4,0-12.8,0-19.2,0
	c27.7,57.1,63.4,110.5,107.3,156.3c50.7,53.1,113.2,95,181.9,121c2.2,0.5,4.5,2.6,6.8,1.5c27.3-10.2,53.7-22.7,78.7-37.5
	c51.1-30,96.3-69.6,134-115.2c46.6-56.2,81.7-121.2,108.1-189c-6.3,0-12.7,0-19,0c-0.1,0.4-0.4,1.1-0.5,1.5l0.4-1.6
	C901.3,483.4,895,483.4,888.7,483.4z"/>
<path class="st3" d="M186.4,331c16.5-0.1,33.1,0,49.6-0.1c10.8-0.1,21.8,0.9,32.1,4.5c11.6,3.9,21.7,11.6,29.1,21.3
	c4.5,5.8,8,12.2,11.4,18.7c13.3,25.8,26.6,51.6,39.9,77.4c0.9,1.7,1.6,3.5,3,4.9c11.3-22.8,23.2-45.2,34.7-67.9
	c7.9-15.1,14.7-31.6,28.1-42.8c12.7-11.3,30-15.9,46.8-16.1c34.6,0,69.2,0,103.9,0c27,45.3,54.1,90.5,81.2,135.7
	c2.8,0,5.6,0,8.3-0.1c27.1-45.3,54.6-90.4,81.8-135.6c73.6-0.1,147.2,0,220.8,0c16-0.1,32.7,2.6,46,12c11,7.6,18.1,20.1,20.3,33.1
	c1.5,7.2,1.2,14.6,1.2,21.9c-0.1,8.7,0.5,17.5-1.5,26c-2.5,12.4-9.3,24-19.7,31.3c-12.5,9-28.3,12-43.4,12.2
	c-53.7,0.1-107.3-0.1-161,0.1c-12.4,21-25,41.9-37.4,62.9c-74.1,0-148.1,0-222.2,0c-26.9-45.1-53.9-90.3-80.7-135.5
	c-1.8,2.2-3.4,4.5-4.6,7c-22.2,42.8-44.7,85.5-66.8,128.3c-24,0.3-48,0-72.1,0.2c-21.8-41.1-43.1-82.6-64.9-123.8
	c0,41.2,0,82.4,0,123.7c-21.3,0.1-42.5,0-63.8,0.1C186.5,464,186.5,397.5,186.4,331 M193.3,338c0.1,62.3,0.1,124.5,0,186.8
	c17.1,0.3,34.2,0.2,51.3,0c-0.1-44.9-0.1-89.9,0-134.8c4.2,1.8,7.3,5.3,9.2,9.3c21.8,41.8,43.8,83.5,65.4,125.4
	c21.5,0.4,43.1,0.1,64.6,0.2c22-42.4,44.1-84.7,66.2-127c2.4-4.8,7.2-8.8,12.8-8.6c26.6,45.3,53.8,90.2,80.5,135.4
	c20.5,0.4,41.1,0.2,61.6,0.1c-37-62.3-74.3-124.4-111.2-186.8c-10.6-0.3-21.1-0.1-31.7-0.1c-14.9,0.2-30.5,3.8-42.1,13.7
	c-8.2,6.8-14.2,15.8-19,25.2C384.9,408,368.9,439,353,470.1c-0.4,0.8-0.9,1.5-1.5,2.1c-16.1-31.4-32.4-62.8-48.6-94.2
	c-4.2-8.3-9.1-16.5-15.8-23.1c-6.8-7-15.7-11.9-25.2-14.2c-8.7-2.3-17.8-2.7-26.8-2.6C221.1,338,207.2,337.9,193.3,338 M500.8,338
	c33.7,56.3,67.4,112.6,101.1,168.9c3.5,5.8,8,11.2,14.1,14.2c7.1,3.6,15.3,3.9,23.1,3.9c9.3,0,18.6,0.1,27.9-0.1
	c8.8-0.2,17.9-2.4,24.9-8.2c5.7-4.5,9.3-10.9,13-17.1c32.2-53.9,64.4-107.8,96.6-161.7c-20.4,0.1-40.8-0.1-61.1,0.1
	c-26.1,43.5-52.5,86.9-78.7,130.3c-1.2,1.8-2.1,4.1-4.1,5.1c-4.1,0.5-8.3,0.3-12.5,0.1c-2.3-0.1-3.4-2.5-4.6-4.2
	c-26.2-43.8-52.5-87.6-78.6-131.4C541.5,338,521.1,338,500.8,338 M808.2,338.1c-36.9,62.3-74,124.5-111.1,186.8c20,0.3,40,0,60,0.1
	c0.4-0.1,1.2-0.3,1.6-0.4c27-45,53.8-90.2,80.7-135.3c39.5-0.1,79.1,0,118.6,0c2.5,0.1,5.2,0,7.3,1.4c1.8,3.4,0.5,7.6,0.9,11.4
	c-0.2,2.5,0.5,5.2-0.7,7.5c-2.2,1.5-5,1.2-7.5,1.4c-42.1,0-84.1,0-126.2,0c-10.3,17.1-20.3,34.2-30.5,51.3c52.2,0,104.5,0,156.7,0
	c11.2-0.1,22.6-1.3,33-5.7c9.7-4,18.2-11.3,22.7-20.9c4.3-8.8,5.3-18.8,5-28.5c-0.3-12,1.2-24.3-2.5-35.9
	c-3.5-12.1-12.7-22.1-24.3-27c-15.7-7-33.2-6-50-6.1C897.4,338,852.8,337.9,808.2,338.1z"/>
<path class="st0" d="M604.3,39c39.4,30.7,82.5,56.7,127.6,78.1c75.6,35.7,157.3,58.9,240.7,66.4c-2.7,44.2-8.2,88.2-16.6,131.7
	c-6,0-12.1,0-18.1,0c6.7-35.1,11.9-70.6,14.9-106.3c-41,14.1-82,28.6-123,42.9c-3.3,1.1-6.5,2.5-9.9,3.1
	c40.5-18.7,80.8-37.8,121.2-56.5c-1.9-0.8-4-1-6.1-1.3c-85.1-12.4-167.8-40.1-243.6-80.6c-30.2-16.2-59.4-34.2-86.7-54.9
	c-47.5,34.9-99.4,63.9-153.8,86.5c-57,23.7-116.9,40.4-177.9,49.1c-1.7,0.3-3.5,0.3-5.1,1.1c40.5,18.6,80.7,37.9,121.2,56.4
	c-1.1-0.2-2.2-0.3-3.2-0.7c-43.2-15.1-86.4-30.3-129.7-45.2c3.2,37.3,8.6,74.4,15.9,111.2c-6.2-2-12.5-3.3-18.9-4.1
	c-8.5-43.7-14-88-16.8-132.5c16.6-1.2,33.1-3.7,49.5-6.3c87-14.5,171.3-45.3,247.4-89.8C558,72.7,582,56.9,604.3,39z"/>
<path class="st0" d="M195.8,340.2c8-0.4,16.1,0,24.2-0.2c12.7,0.2,25.6-0.9,38.1,2c9.3,2,18.1,6.2,25,12.7
	c6.8,6.2,11.7,14.1,15.9,22.2c9.1,17.6,18.1,35.3,27.3,52.8c-0.7,0.2-2.1,0.7-2.8,1c7.9,15.3,15.7,30.7,23.7,46
	c1.2,3.5,7.3,3.3,8.3-0.4c7.5-15.3,15.7-30.3,23.3-45.6c-0.7-0.2-2.1-0.7-2.8-0.9c8.9-17.1,17.7-34.4,26.5-51.6
	c4.4-8.7,9.8-17.2,17.1-23.7c11.4-10.5,27.3-14.4,42.5-14.4c9.8,0,19.6-0.2,29.4,0.1c17.5,29.8,35.3,59.4,53.1,89
	c-0.6,0.3-1.9,1-2.5,1.3c5.6,10.4,12,20.3,17.9,30.4c11.2,19,22.6,37.9,33.9,56.9c-10.6,0.7-21.2,0.1-31.9,0.3
	c-5.3-0.2-10.6,0.4-15.9-0.3c-6.3-9.5-11.8-19.6-17.7-29.4c-10.6-17.8-21.3-35.4-31.7-53.2c-1-1.8-2.2-3.4-3.4-5.1
	c0.8,0,2.4,0.1,3.2,0.2c-1.9-4.5-4.8-8.5-7.2-12.7c-7.5-12.5-14.9-25.1-22.4-37.6c-6.5-0.6-13.5,0.7-18.6,5.1
	c-4.2,3.4-6.6,8.3-9,13.1c-5.5,10.6-11.2,21.2-16.5,32c0.8,0,2.3,0,3,0.1c-15.3,28.4-29.8,57.2-44.9,85.7c-0.9,2.6-3.9,2.1-6,2.2
	c-17-0.1-34,0-51-0.1c-1.8,0.2-2.5-1.7-3.3-2.9c-14.9-28.3-29.5-56.7-44.5-84.9c0.7-0.1,2.2-0.1,2.9-0.2
	c-4.8-10.1-10.4-19.9-15.5-29.9c-3-5.9-6-12.3-11.7-16.2c-4.8-3.5-10.9-4.1-16.5-4.9c0,17,0,34,0,51c-11.4,0-22.8,0-34.3,0
	c0.4-28.1,0.1-56.3,0.2-84.4c11.9-0.5,23.8-0.1,35.7-0.2c13.5,0,27.8,2.1,38.8,10.5c9.6,7.1,15.5,17.8,20.6,28.3
	c8,15.2,15.7,30.6,23.7,45.8c-13.6,0.1-27.3-0.4-40.9,0.2c13.6,26.1,27.2,52.2,40.9,78.2c1.8,2.8,2.4,8,6.9,7.4
	c15.6,0.1,31.3-0.1,47,0c1.9,0,4.5,0.2,5.2-2.1c14.3-27.9,29.2-55.5,43.4-83.6c-13.4-0.6-26.7-0.1-40.1-0.2
	c6.4-13.9,13.9-27.3,20.8-41c4.9-9.5,9.4-19.5,16.9-27.2c7.5-8.2,18-13.3,28.8-15c9.6-1.8,19.3-1.2,29-1.3c3.3,0,6.6-0.2,9.9,0.2
	c5,7.2,9,15.1,13.7,22.6c12.3,20.6,24.6,41.1,36.8,61.7c-13.8,0.1-27.6,0-41.4,0.1c8.6,15.4,18.1,30.4,27.1,45.7
	c7.6,12.7,15.1,25.6,22.8,38.3c1.2,2.3,4.2,1.8,6.3,1.9c12.1-0.3,24.1,0.3,36.2-0.3c-0.8-1.8-1.6-3.7-2.7-5.4
	c-16.3-26.6-31.7-53.8-48.2-80.2c0.8,0,2.4,0.1,3.2,0.1c-2-4.5-4.8-8.5-7.2-12.7c-14.8-24.9-29.6-49.7-44.4-74.6
	c-8.6-0.2-17.2,0-25.9-0.1c-11.8-0.1-24,1.7-34.3,7.7c-11.8,6.8-19.7,18.4-25.6,30.4c-8.2,16.5-17.1,32.6-25.1,49.2
	c0.7,0,2.1,0,2.8,0c-8.6,17.1-17.4,34.2-26.3,51.2c-3,0-6,0-8.9,0c-4.8-9.5-9.5-19.1-14.6-28.5c-4.2-7.4-7.5-15.3-11.8-22.6
	c0.8,0,2.3,0,3,0c-7-14.6-14.9-28.8-22.1-43.3c-5.8-11.3-11.5-23.3-21.5-31.6c-10.6-9-24.9-12.3-38.5-12.4
	c-14.1-0.1-28.2-0.1-42.3,0c-0.2,29.2-0.2,58.3,0,87.5c-0.7-0.1-2.1-0.3-2.8-0.5C195.9,400.1,196.2,370.1,195.8,340.2z"/>
<path class="st0" d="M505.2,340.1c18.2,0,36.3-0.1,54.5,0.1c17.8,29.9,35.7,59.7,53.6,89.6c-0.7,0.3-2.1,0.8-2.8,1.1
	c7.8,13.4,15.9,26.5,23.8,39.9c2,3.2,4.3,7,8.3,7.8c5.4,1,11,1,16.3-0.3c3.8-1,5.4-4.9,7.4-7.9c7.8-13.2,16-26.2,23.7-39.6
	c-0.6-0.4-1.9-1.1-2.5-1.4c18.1-29.6,36-59.3,53.8-89.1c18.2-0.2,36.4-0.1,54.5,0c-18.1,30.2-36.1,60.5-54.3,90.7
	c-0.7-0.2-2-0.5-2.7-0.7c17.3-29,34.4-58.2,52.1-86.9c-16-0.7-32-0.1-48-0.3c-11.7,19-23.1,38.2-34.7,57.3
	c-5.9,10.1-12.3,19.9-17.9,30.1c0.8,0,2.5-0.1,3.3-0.1c-8.8,13.5-16.8,27.5-25.2,41.3c-2.4,4.3-5.7,9-11,9.7
	c-4.9,0.3-9.8,0.5-14.7-0.1c-6-1.1-9.4-6.8-12.2-11.7c-7.7-13.1-15.7-26.1-23.4-39.2c0.7,0,2.2,0,3,0c-9.3-16.4-19.3-32.4-28.8-48.6
	c-7.8-12.9-15.3-25.9-23.3-38.7c-15.9,0-31.9-0.1-47.8,0.1c17.5,29,34.8,58.1,52.1,87.2c-0.8,0-2.4,0.1-3.2,0.1
	C541.3,400.2,523.1,370.2,505.2,340.1z"/>
<path class="st0" d="M809.3,340.1c49.9-0.1,99.8,0,149.7,0c15.4,0.1,32.1,3.1,43.7,14.2c9.6,9.1,13,22.8,12.9,35.6
	c-0.3,14,1.5,28.6-4.1,41.9c-0.5-0.9-1.2-1.5-2.1-1.8c4.9-12.8,2.6-26.7,3.2-40c0.5-10.7-1.8-22-8.7-30.5
	c-7.2-9.1-18.5-13.5-29.6-15.3c-9.9-1.7-20-1.1-30-1.2c-43.7,0-87.4,0-131.1,0c-1.5-0.3-2.5,0.5-3.1,1.8c-16.9,28.6-34,57-50.9,85.7
	c-0.8,0-2.4-0.1-3.2-0.2C773.5,400.1,791.5,370.2,809.3,340.1z"/>
<path class="st0" d="M515.6,345.9c12.1-0.5,24.3,0,36.4-0.2c1.9,0.1,4.5-0.4,5.5,1.8c10,16.7,20,33.4,30,50.1
	c6.3,10.9,13.3,21.5,19.2,32.6c-13.6,0-27.2,0-40.7,0c11.9,21.1,24.9,41.6,37.2,62.6c4.6,7.5,8.5,16.4,16.9,20.4
	c9.2,3.8,19.4,2.7,29.1,2.9c9.7-0.2,19.6,1,29-2.1c6.2-2.2,11.5-6.7,14.8-12.3c10.8-17.7,21.2-35.5,31.9-53.3
	c3.4-6.1,7.5-11.8,10.4-18.1c-13.8,0-27.6,0-41.4,0c16.5-27.6,33.3-55.1,49.9-82.7c0.9-2.3,3.5-1.7,5.5-1.8
	c12.1,0.1,24.3-0.2,36.4,0.2c-9.3,16.7-19.5,32.9-29.2,49.3c-6.8,11.8-14.2,23.2-20.7,35.2c0.8-0.1,2.4-0.2,3.3-0.2
	c-6.7,10-12.5,20.7-18.8,31c-7.4,12.3-14.8,24.5-22,36.9c-4.2,7.4-9.7,14.9-18,17.9c-6.7,2.6-14.1,2-21.1,2.2
	c-10-0.1-20,0.3-29.9-0.3c-5.3-0.3-10.8-1.8-14.9-5.2c-4.3-3.4-7.2-8.2-9.9-12.9c-11.6-19.4-23.3-38.8-34.8-58.3
	c-2.3-3.8-4.4-7.8-7.1-11.3c0.8,0,2.4,0.1,3.2,0.1c-2.2-4.9-5.3-9.3-8-13.9c-7.5-12.5-15-25-22.4-37.5
	C528.7,367.8,521.6,357.1,515.6,345.9z"/>
<path class="st0" d="M810.4,349.2c1-1.7,2.1-4.1,4.5-3.6c47.7,0,95.4,0,143,0c11.1,0.2,22.6,1.4,32.6,6.6
	c7.3,3.7,13.2,10.2,16.1,17.9c4.6,11.7,2.6,24.4,3.1,36.6c0.4,8-0.8,16-3.7,23.5c-58.9-0.4-117.7,0-176.6-0.2c2-3.9,3.9-8,6.7-11.4
	c3.3-0.6,6.6-0.2,9.9-0.3c37.3,0,74.7,0,112,0c4.9-0.1,10.4-0.9,13.7-4.8c3-3.6,2.1-8.6,2.4-12.9c-0.3-5.3,0.9-11.2-2.4-15.8
	c-3.2-4.2-8.9-5-13.8-5.1c-41.3,0-82.7-0.1-124,0c-10,16.8-20.1,33.5-30,50.3c-13.8-0.3-27.6,0.2-41.4-0.2
	C778.2,402.9,794.7,376.3,810.4,349.2z"/>
<path class="st0" d="M238.2,430.4c0.5-16-0.3-32,0.4-47.9c4.1,0.7,8.4,1.4,11.8,4c5.3,3.6,7.7,9.8,10.7,15.3
	c5.1,9.4,9.8,19.1,15,28.5c-0.8,0-2.4,0-3.2,0c-6-11.5-12-23-18.1-34.5c-2.8-5.3-7.9-9.2-13.8-10.2c-0.1,14.8,0,29.7,0,44.5
	C240.3,430.2,238.9,430.3,238.2,430.4z"/>
<path class="st0" d="M444.9,393.9c3.6-7.3,11.9-12,20-10.9c1.2,1.3,2,2.8,2.9,4.2c8.4,14.4,17.2,28.6,25.5,43
	c-0.8,0-2.4,0.1-3.2,0.1c-8.6-14.9-17.8-29.5-26.3-44.5c-6.8-0.7-13.5,3.5-16.5,9.5c-6.1,11.7-12.2,23.4-18.3,35.1
	c-0.8,0-2.4,0-3.2-0.1C432.3,418.2,438.4,405.9,444.9,393.9z"/>
<path class="st0" d="M830.1,392.1c2-3,3.3-6.6,5.8-9.1c8.7-0.6,17.4-0.1,26.1-0.3c32,0,63.9-0.1,95.9,0c4.6,0.2,10.6,0.9,12.5,5.8
	c1.3,4.3,0.6,8.9,0.8,13.4c-0.1,3.6,0.5,8-2.5,10.8c-3.2,2.8-7.8,2.9-11.8,2.9c-38,0-76,0-114,0c-2.9,0.1-5.9-0.4-8.7,0.4
	c-3.1,4.5-5.8,9.4-8.4,14.2c0.7,0,2.2,0,2.9,0c-4.1,7.7-9.3,14.8-13.1,22.7c43.8,0.4,87.5,0.1,131.3,0.1c13.5,0.2,27.4,0,40.1-5.1
	c8.2-3.3,15.2-9.5,18.9-17.6c0.8-0.1,2.4-0.3,3.2-0.4c-2.9,4.9-5.6,10.2-10.2,13.8c-10.9,8.9-25.3,11.4-38.9,11.7
	c-49.7,0-99.3,0-149,0c4.6-8.4,9.7-16.5,14.5-24.8c-0.7-0.2-2.2-0.7-2.9-0.9c3.4-5.5,6.5-11,9.8-16.5c1.4-0.6,3-0.2,4.5-0.3
	c40,0.1,80,0,120,0c3.3-0.2,7-0.2,9.8-2.2c2.1-1.6,1.4-4.6,1.6-6.9c-0.2-4.6,0.3-9.3-0.3-13.9c-1.3-3.7-5.8-4.3-9.1-4.4
	c-40.6,0-81.2-0.1-121.9,0.1c-8.7,14.9-17.7,29.6-26.4,44.5c-0.8,0-2.3,0.1-3.1,0.1C814.7,417.3,822.7,404.9,830.1,392.1z"/>
<path class="st0" d="M198.8,430.4c0.6,0,1.8-0.1,2.3-0.2c-0.6,19.9-0.1,39.8-0.3,59.7c0.1,8.6-0.2,17.2,0.2,25.9
	c11.4,0.6,22.9,0.3,34.3,0.2c0.4-9.7,0.1-19.4,0.2-29c-0.1-18.9,0.2-37.8-0.1-56.7c0.7,0,2.1,0.1,2.8,0.2c-0.1,16.5,0,33,0,49.5
	c-0.6,12.7,0.6,25.4-0.3,38c-12.9,0.2-25.9,0.3-38.8,0c-0.5-14.6-0.3-29.3,0-44C198.5,459.5,199,444.9,198.8,430.4z"/>
<path class="st0" d="M759,430.3c0.8,0,2.3,0.1,3.1,0.1c-15.1,25.4-30.2,50.8-45.3,76.1c-1.8,3.1-4,6-5.1,9.4
	c13.1,0.2,26.3,0.1,39.5,0.1c2.3,0.3,3.2-2.2,4.3-3.8c16.1-27.4,32.7-54.5,48.7-82c0.8,0,2.3,0,3,0c-16.2,27.6-32.9,55-49.1,82.6
	c-1,1.7-1.9,3.4-3.3,4.8c-1.8,0.7-3.7,0.4-5.6,0.5c-14-0.2-28,0.2-42-0.2C724.2,488.7,741.9,459.7,759,430.3z"/>
<path class="st0" d="M888.7,483.4c6.3,0,12.6,0,18.9,0l-0.4,1.6c-24,61.2-55.9,119.6-97.1,170.9c-39.4,49.1-87.9,91.2-143.1,121.8
	c-19.5,10.9-39.8,20.4-60.5,28.5c-3.3,1.3-6.4-1.4-9.5-2.3c-67.5-27-128.4-69.8-177.1-123.8c-36.4-40-66.3-85.6-90.6-133.9
	c6.7,0,13.5-0.2,20.2,0.1c32.8,63.5,76.5,121.9,131.6,167.7c34,28.4,72.2,51.7,112.8,69.2c3.6-34.8,6.9-69.7,10.8-104.5
	c3.5,34.7,7.1,69.5,10.6,104.2c67.5-28.3,127.1-74,174-130.1C831.6,602.6,864,544.3,888.7,483.4z"/>
<g id="_x23_073f82ff">
	<path class="st4" d="M195.3,360.9c-0.2-6.8-0.8-13.9,0.5-20.6c0.4,29.9,0.2,59.8,0.1,89.8c0.7,0.1,2.1,0.3,2.8,0.5
		c0.3,14.5-0.2,29,0.3,43.5c-0.2,14.6-0.5,29.3,0,44c12.9,0.4,25.9,0.3,38.8,0c0.8-12.7-0.3-25.4,0.3-38c0-16.5-0.1-33,0-49.5
		c0.7-0.1,2.1-0.2,2.8-0.3c-0.1,30.5,0.1,61-0.1,91.6c-15.2-0.1-30.4,0.1-45.6-0.1c-0.1-28.5,0-57.1,0-85.6
		c-0.5-22.7-0.2-45.4-0.3-68C195,365.5,195.1,363.2,195.3,360.9z"/>
	<path class="st4" d="M544.5,429.2c18.1,29.8,35.7,59.8,53.6,89.7c0.4,0.9,0.8,1.8,1,2.8c-18.2-0.1-36.5,0.3-54.7-0.2
		c-18.3-30.3-36.4-60.7-54.4-91.2c0.8,0,2.4-0.1,3.2-0.1c1.2,1.7,2.3,3.3,3.4,5.1c10.4,17.8,21.1,35.5,31.7,53.2
		c5.9,9.8,11.4,19.8,17.7,29.4c5.3,0.7,10.6,0.1,15.9,0.3c10.6-0.1,21.3,0.4,31.9-0.3c-11.3-19-22.7-37.9-33.9-56.9
		c-5.9-10.2-12.3-20.1-17.9-30.4C542.6,430.2,543.9,429.5,544.5,429.2z"/>
	<path class="st4" d="M661.3,472.2c8.9-14.2,17.2-28.8,26.2-43c0.6,0.4,1.9,1.1,2.5,1.4c-7.7,13.3-15.9,26.3-23.7,39.6
		c-2,3-3.6,6.9-7.4,7.9c-5.3,1.4-11,1.3-16.3,0.3c-4-0.8-6.3-4.5-8.3-7.8c-7.8-13.3-16-26.5-23.8-39.9c0.7-0.3,2.1-0.8,2.8-1.1
		c7.7,12,14.8,24.5,22.2,36.7c2.4,3.8,4.4,9,9.5,9.4C650.4,475.8,657.7,477.5,661.3,472.2z"/>
	<path class="st4" d="M201.1,430.3c11.4-0.1,22.9,0,34.3,0c0.3,18.9,0.1,37.8,0.1,56.7c-0.1,9.7,0.2,19.4-0.2,29
		c-11.4,0.1-22.9,0.4-34.3-0.2c-0.4-8.6-0.1-17.2-0.2-25.9C201,470,200.5,450.1,201.1,430.3z"/>
	<path class="st4" d="M272.9,430.3c0.8,0,2.4,0,3.2,0c15.1,28.2,29.6,56.6,44.5,84.9c0.8,1.2,1.5,3.1,3.3,2.9c17,0.2,34,0,51,0.1
		c2.2-0.1,5.2,0.4,6-2.2c15.1-28.5,29.6-57.3,44.9-85.7c0.8,0,2.4,0,3.2,0.1c-15.5,30.6-31.6,60.8-47.4,91.3
		c-20.4,0.1-40.8,0.1-61.1,0C304.6,491.1,288.4,460.9,272.9,430.3z"/>
	<path class="st4" d="M279.3,430.5c13.6-0.6,27.3-0.1,40.9-0.2c4.3,7.4,7.6,15.2,11.8,22.6c5,9.4,9.8,19,14.6,28.5c3,0,6,0,8.9,0
		c8.9-17,17.6-34.1,26.3-51.2h0.7c13.4,0.2,26.7-0.3,40.1,0.2c-14.1,28-29,55.6-43.4,83.6c-0.7,2.2-3.3,2-5.2,2.1
		c-15.6-0.1-31.3,0-47,0c-4.4,0.6-5.1-4.5-6.9-7.4C306.5,482.6,292.8,456.6,279.3,430.5z"/>
	<path class="st4" d="M323.4,430.7c0.7-0.3,2.1-0.7,2.8-1c8.3,15.2,15.8,30.8,24,46c0.4,0,1.2,0.1,1.6,0.1
		c8.3-15.2,15.7-30.9,24-46.1c0.7,0.2,2.1,0.7,2.8,0.9c-7.6,15.3-15.7,30.3-23.3,45.6c-1,3.7-7.1,3.9-8.3,0.4
		C339.2,461.4,331.3,446,323.4,430.7z"/>
	<path class="st4" d="M496.8,430.3c13.8-0.1,27.6,0,41.4-0.1c16.5,26.4,31.9,53.6,48.2,80.2c1,1.7,1.9,3.5,2.7,5.4
		c-12,0.7-24.1,0-36.2,0.3c-2.2-0.1-5.2,0.4-6.3-1.9c-7.7-12.7-15.2-25.6-22.8-38.3C514.9,460.7,505.5,445.7,496.8,430.3z"/>
	<path class="st4" d="M559.1,430.3c0.8,0,2.4-0.1,3.2-0.1c2.7,3.5,4.8,7.5,7.1,11.3c11.5,19.5,23.3,38.9,34.8,58.3
		c2.8,4.7,5.6,9.5,9.9,12.9c4.2,3.4,9.6,4.9,14.9,5.2c10,0.6,19.9,0.1,29.9,0.3c7.1-0.3,14.4,0.4,21.1-2.2
		c8.3-3.1,13.7-10.5,18-17.9c7.2-12.4,14.6-24.6,22-36.9c6.3-10.3,12.1-21,18.8-31c0.7,0.2,2,0.5,2.7,0.7
		c-11.6,20.4-24.1,40.4-36,60.7c-5.5,8.8-9.9,19.1-19.2,24.7c-10.2,6.4-22.8,5.4-34.4,5.5c-10.8-0.3-21.9,1-32.3-2.4
		c-7.6-2.4-12.9-8.8-16.8-15.4C588.4,479.3,573.5,454.9,559.1,430.3z"/>
	<path class="st4" d="M565.9,430.3c13.6-0.1,27.2,0,40.7,0h0.6c7.7,13.1,15.7,26.1,23.4,39.2c2.8,4.9,6.2,10.5,12.2,11.7
		c4.9,0.6,9.8,0.4,14.7,0.1c5.3-0.7,8.6-5.4,11-9.7c8.4-13.8,16.4-27.8,25.2-41.3c13.8,0.1,27.6,0,41.4,0c-2.9,6.4-7.1,12-10.4,18.1
		c-10.6,17.8-21.1,35.6-31.9,53.3c-3.4,5.7-8.6,10.2-14.8,12.3c-9.4,3.1-19.3,1.9-29,2.1c-9.7-0.1-19.9,0.9-29.1-2.9
		c-8.4-4-12.3-12.9-16.9-20.4C590.8,471.9,577.7,451.4,565.9,430.3z"/>
	<path class="st4" d="M755.4,430.2l0.4,0c0.8,0,2.4,0.1,3.2,0.2c-17.1,29.4-34.8,58.3-51.9,87.6c14,0.4,28,0,42,0.2
		c1.8-0.1,3.8,0.2,5.6-0.5c1.4-1.3,2.3-3.1,3.3-4.8c16.2-27.6,32.9-55,49.1-82.6l0.7,0c0.8,0,2.3-0.1,3.1-0.1
		c-17.9,30.6-36.3,60.9-54.3,91.4c-18.2,0.3-36.3-0.1-54.5,0.2c0.1-0.6,0.4-1.8,0.5-2.4C720.1,489.6,737.9,460,755.4,430.2z"/>
	<path class="st4" d="M762,430.4l0.6-0.3c13.8,0.4,27.6-0.1,41.4,0.2c-16,27.4-32.6,54.6-48.7,82c-1.1,1.6-2,4.1-4.3,3.8
		c-13.2,0.1-26.3,0.2-39.5-0.1c1.2-3.4,3.3-6.3,5.1-9.4C731.8,481.2,746.9,455.8,762,430.4z"/>
	<path class="st4" d="M807.8,454.6c5.1-8.2,9.7-16.7,14.9-24.8c0.7,0.2,2.2,0.7,2.9,0.9c-4.7,8.3-9.9,16.4-14.5,24.8
		c49.6,0,99.3,0,149,0c13.6-0.3,28.1-2.9,38.9-11.7c4.6-3.6,7.3-8.9,10.2-13.8c0.9,0.3,1.6,0.9,2.1,1.8c-3.8,9.6-12,17-21.4,21
		c-9.7,4.3-20.5,5.4-31,5.9c-51,0-102.1,0-153.1,0C806.3,457.2,806.9,455.8,807.8,454.6z"/>
	<path class="st4" d="M828.8,430.2l0.7,0c58.8,0.1,117.7-0.2,176.6,0.2c-3.7,8.1-10.7,14.3-18.9,17.6c-12.7,5.1-26.7,5.3-40.1,5.1
		c-43.8-0.1-87.5,0.2-131.3-0.1C819.5,445,824.6,437.9,828.8,430.2z"/>
</g>
<g id="_x23_6b94cdff">
	<path class="st2" d="M198.8,343c14.1-0.1,28.2-0.1,42.3,0c13.6,0.1,27.9,3.4,38.5,12.4c10,8.3,15.7,20.2,21.5,31.6
		c7.3,14.5,15.2,28.7,22.1,43.3c-0.8,0-2.3,0-3,0c-8-15.2-15.7-30.6-23.7-45.8c-5.2-10.5-11.1-21.2-20.6-28.3
		c-11-8.5-25.3-10.5-38.8-10.5c-11.9,0.1-23.8-0.3-35.7,0.2c-0.1,28.1,0.2,56.3-0.2,84.4c-0.6,0.1-1.8,0.1-2.3,0.2
		C198.5,401.3,198.6,372.1,198.8,343z"/>
	<path class="st2" d="M429.6,350.6c10.3-6,22.5-7.8,34.3-7.7c8.6,0.1,17.2-0.1,25.9,0.1c14.8,24.9,29.6,49.7,44.4,74.6
		c2.4,4.2,5.3,8.2,7.2,12.7c-0.8,0-2.4-0.1-3.2-0.1c-12.1-20.7-24.5-41.2-36.8-61.7c-4.6-7.5-8.7-15.3-13.7-22.6
		c-3.3-0.4-6.6-0.2-9.9-0.2c-9.7,0.1-19.4-0.5-29,1.3c-10.9,1.7-21.4,6.9-28.8,15c-7.5,7.8-12.1,17.7-16.9,27.2
		c-6.9,13.7-14.4,27.1-20.8,41h-0.7c-0.7,0-2.1,0-2.8,0c8-16.6,16.9-32.8,25.1-49.2C409.9,369,417.8,357.4,429.6,350.6z"/>
	<path class="st2" d="M510.1,343c15.9-0.2,31.9-0.1,47.8-0.1c8,12.8,15.5,25.8,23.3,38.7c9.5,16.2,19.5,32.3,28.8,48.6
		c-0.7,0-2.2,0-3,0h-0.6c-5.9-11.2-12.8-21.7-19.2-32.6c-10-16.7-19.9-33.4-30-50.1c-0.9-2.3-3.5-1.7-5.5-1.8
		c-12.1,0.2-24.3-0.2-36.4,0.2c6,11.3,13.1,22,19.5,33c7.5,12.5,15,25,22.4,37.5c2.7,4.6,5.8,9,8,13.9c-0.8,0-2.4-0.1-3.2-0.1
		C545,401.1,527.6,372,510.1,343z"/>
	<path class="st2" d="M743,342.9c16,0.1,32-0.4,48,0.3c-17.8,28.7-34.8,57.9-52.1,86.9c-0.8,0.1-2.5,0.2-3.3,0.2
		c6.4-12,13.8-23.4,20.7-35.2c9.7-16.5,19.9-32.6,29.2-49.3c-12.1-0.3-24.3,0-36.4-0.2c-2,0.1-4.5-0.4-5.5,1.8
		c-16.6,27.6-33.4,55.1-49.9,82.7c-0.8,0-2.5,0.1-3.3,0.1c5.6-10.3,12-20,17.9-30.1C719.9,381.1,731.3,361.9,743,342.9z"/>
	<path class="st2" d="M809.8,344.7c0.6-1.3,1.6-2,3.1-1.8c43.7,0,87.4,0,131.1,0c10,0.1,20.1-0.5,30,1.2
		c11.1,1.8,22.5,6.2,29.6,15.3c6.9,8.5,9.2,19.8,8.7,30.5c-0.5,13.3,1.8,27.2-3.2,40c-0.8,0.1-2.4,0.3-3.2,0.4
		c2.9-7.5,4.1-15.5,3.7-23.5c-0.4-12.2,1.5-25-3.1-36.6c-2.9-7.7-8.7-14.2-16.1-17.9c-10-5.3-21.5-6.5-32.6-6.6
		c-47.7,0-95.4,0-143,0c-2.4-0.5-3.5,1.9-4.5,3.6c-15.8,27-32.2,53.7-47.8,80.8l-0.6,0.3c-0.8,0-2.3-0.1-3.1-0.1
		C775.8,401.7,793,373.3,809.8,344.7z"/>
	<path class="st2" d="M235.4,379.2c5.7,0.8,11.7,1.4,16.5,4.9c5.7,3.9,8.6,10.3,11.7,16.2c5,10,10.6,19.8,15.5,29.9
		c-0.7,0-2.2,0.1-2.9,0.2c-5.2-9.4-9.9-19.1-15-28.5c-2.9-5.5-5.4-11.7-10.7-15.3c-3.4-2.6-7.7-3.3-11.8-4
		c-0.7,15.9,0.1,31.9-0.4,47.9c-0.7-0.1-2.1-0.2-2.8-0.2C235.4,413.2,235.4,396.2,235.4,379.2z"/>
	<path class="st2" d="M448.3,385.2c5.1-4.4,12.1-5.7,18.6-5.1c7.5,12.5,14.9,25.1,22.4,37.6c2.4,4.2,5.3,8.2,7.2,12.7
		c-0.8,0-2.4-0.1-3.2-0.2c-8.3-14.4-17.1-28.6-25.5-43c-0.9-1.5-1.7-3-2.9-4.2c-8.1-1-16.4,3.7-20,10.9c-6.5,12-12.6,24.3-19.1,36.4
		c-0.8,0-2.3,0-3-0.1c5.3-10.8,11-21.3,16.5-32C441.7,393.5,444.1,388.5,448.3,385.2z"/>
	<path class="st2" d="M834,380c41.3-0.1,82.7,0,124,0c4.9,0,10.6,0.9,13.8,5.1c3.3,4.6,2.1,10.5,2.4,15.8c-0.2,4.3,0.6,9.3-2.4,12.9
		c-3.4,3.9-8.9,4.8-13.7,4.8c-37.3,0-74.7,0-112,0c-3.3,0-6.6-0.3-9.9,0.3c-2.8,3.4-4.7,7.5-6.7,11.4l-0.7,0c-0.7,0-2.2,0-2.9,0
		c2.7-4.8,5.3-9.6,8.4-14.2c2.8-0.9,5.8-0.3,8.7-0.4c38,0,76,0,114,0c4-0.1,8.6-0.2,11.8-2.9c3-2.7,2.4-7.1,2.5-10.8
		c-0.2-4.4,0.5-9.1-0.8-13.4c-2-4.9-8-5.6-12.5-5.8c-32-0.1-63.9,0-95.9,0c-8.7,0.2-17.4-0.4-26.1,0.3c-2.5,2.6-3.8,6.1-5.8,9.1
		c-7.4,12.8-15.5,25.1-22.4,38.1l-0.7,0c-0.8,0-2.3,0-3,0C813.9,413.5,824,396.8,834,380z"/>
</g>
</svg>
