<?xml version="1.0" encoding="utf-8"?>
<!-- Generator: Adobe Illustrator 19.0.0, SVG Export Plug-In . SVG Version: 6.00 Build 0)  -->
<svg version="1.1" id="Layer_1" xmlns="http://www.w3.org/2000/svg" xmlns:xlink="http://www.w3.org/1999/xlink" x="0px" y="0px"
	 viewBox="396.93 67.876 611.141 705.074" style="enable-background:new 396.93 67.876 611.141 705.074;" xml:space="preserve">
<style type="text/css">
	.st0{fill:#89A6BE;}
	.st1{fill:#0A0E13;}
	.st2{fill:#B0BAC6;}
	.st3{fill:#0A0E12;}
	.st4{fill:#9EA9B6;}
	.st5{fill:#C4C8CC;}
	.st6{fill:#0A0F14;}
	.st7{fill:#0A0E14;}
	.st8{fill:#C5C8CC;}
	.st9{fill:#090C10;}
	.st10{fill:#0A1016;}
	.st11{fill:#83A5BE;}
	.st12{fill:#ACB8C6;}
	.st13{fill:#0A111A;}
	.st14{fill:#82A4BE;}
	.st15{fill:#C1C6CC;}
	.st16{fill:#C0C6CC;}
	.st17{fill:#0A1019;}
	.st18{fill:#0A1018;}
	.st19{fill:#AAB7C6;}
	.st20{fill:#81A4BE;}
	.st21{fill:#7FA4BE;}
	.st22{fill:#A9B7C6;}
</style>
<g id="_x23_212225ff">
</g>
<g id="_x23_272c32ff">
</g>
<g id="_x23_2d3138ff">
</g>
<g id="_x23_363a43ff">
</g>
<g id="_x23_3f434aff">
</g>
<g id="_x23_474a50ff">
</g>
<g id="_x23_505257ff">
</g>
<g id="_x23_404248ff">
</g>
<g id="_x23_363a3fff">
</g>
<g id="_x23_2f323aff">
</g>
<g id="_x23_303135ff">
</g>
<g id="_x23_23262dff">
</g>
<g id="_x23_89a6beff">
	<path class="st0" d="M514.27,67.93c2.31-0.01,4.63-0.01,6.95,0.04c9.16,0.17,18.3,1.01,27.33,2.56
		c31.72,5.62,61.89,18.15,89.77,34.07c1.43,0.9,3.14,0.48,4.71,0.32c19.52-2.94,39.2-4.85,58.92-5.73c23.81-0.67,47.59,1.89,71.16,5
		c3.61,0.28,7.65,2.09,10.95-0.2c16.52-9.6,34.01-17.53,52.03-23.87c22.66-8,46.62-12.69,70.71-12.21
		c2.76,4.27,5.67,8.45,8.14,12.91c5.12,9.83,8.86,20.34,11.52,31.09c6.06,24.61,6.83,50.38,3.23,75.43
		c-2.26,15.16-5.8,30.15-10.76,44.66c6.21,6.5,11.93,13.48,16.71,21.11c7.23,11.5,12.42,24.3,14.96,37.65
		c1.57,8.68,2.57,17.45,3.87,26.18c-6.18,0.14-12.35,0.04-18.52,0.23c-5.57,0.14-10.57,2.97-15.13,5.91
		c9.18,4.02,18.29,8.21,27.36,12.48c-6.8,6.94-13.57,13.92-20.4,20.84c-2.36,2.38-4.7,4.78-7.03,7.19
		c7.08,6.12,13.71,12.85,18.96,20.62c5.51,8.13,11,16.26,16.45,24.43c-8.79,1.3-17.59,2.6-26.38,3.9
		c-5.64,0.78-11.1,2.67-16.08,5.42c-2.61,1.51-5.01,3.37-7.04,5.6c1.47,4.82,2.32,9.82,2.53,14.86c-0.68,2.08-17.83,0.7-18.17,0.64
		c-0.25-2.85-0.69-5.67-1.32-8.45c-0.69-3.39-2.09-6.55-3.64-9.6c7.4-14.8,23.18-22.99,38.74-26.44
		c-8.44-11.77-19.87-21.02-32.21-28.45c8.06-8.3,16.25-16.49,24.32-24.79c-9.02-3.59-18.77-4.68-28.35-5.74
		c7.92-18.44,24.42-34.06,44.81-36.89c-3.38-23.98-16.78-46.08-35.67-61.07c7.63-20.84,13.37-42.5,15.17-64.68
		c2.24-29.46-1.27-60.4-15.81-86.55c-19.98,0.6-39.6,5.41-58.33,12.2c-16.94,6.24-33.36,13.93-48.87,23.17
		c-2.13,1.11-4.19,3.2-6.77,2.38c-17.58-2.81-35.28-4.76-53.03-6.09c-31.52-2.25-63.06,1.75-94.19,6.43
		C609,108.2,579.71,95.3,548.79,89.17c-8.15-1.58-16.42-2.51-24.72-2.76c-13.53,24.35-17.49,52.97-16.17,80.49
		c1.15,24.27,7.23,48.03,15.57,70.77c-18.95,14.91-32.26,37.08-35.7,61.03c20.38,2.84,36.94,18.44,44.81,36.92
		c-9.56,0.92-19.21,2.24-28.27,5.58c7.84,8.55,16.2,16.59,24.26,24.92c-12.31,7.48-23.92,16.61-32.19,28.56
		c9.72,2.11,19.19,5.9,27.05,12.08c-0.43,1.62-13.58,11.19-14.11,12.36c-11.79-7.66-26.32-7.21-39.65-9.76
		c-1.58-0.24-3.15-0.49-4.72-0.73c5.43-8.12,10.93-16.2,16.4-24.3c5.27-7.79,11.87-14.58,19-20.68c-8.98-9.5-18.27-18.7-27.36-28.1
		c9.01-4.23,18.06-8.38,27.19-12.36c-4.61-3.58-10.27-6.14-16.2-6.07c-6.02-0.11-12.04-0.09-18.06-0.24
		c0.35-2.05,0.69-4.09,1.07-6.12c0.11-0.53,0.32-1.58,0.42-2.1c2.49-13.63,4.25-27.6,10.13-40.31c1.36-3.08,2.78-6.14,4.4-9.09
		c5.4-10,12.38-19.07,20.23-27.27c-0.19-0.55-0.56-1.67-0.74-2.22c-11.01-33.74-15.46-70.08-9.47-105.25
		c2.78-15.07,7.11-29.97,14.22-43.6C508.55,76.39,511.57,72.26,514.27,67.93z"/>
</g>
<g id="_x23_0a0e13ff">
	<path class="st1" d="M507.9,166.9c-1.32-27.52,2.64-56.14,16.17-80.49c8.3,0.25,16.57,1.18,24.72,2.76
		c30.92,6.13,60.21,19.03,87.08,35.32c31.13-4.68,62.67-8.68,94.19-6.43c17.75,1.33,35.45,3.28,53.03,6.09
		c2.58,0.82,4.64-1.27,6.77-2.38c15.51-9.24,31.93-16.93,48.87-23.17c18.73-6.79,38.35-11.6,58.33-12.2
		c14.54,26.15,18.05,57.09,15.81,86.55c-1.8,22.18-7.54,43.84-15.17,64.68c18.89,14.99,32.29,37.09,35.67,61.07
		c-20.39,2.83-36.89,18.45-44.81,36.89c9.58,1.06,19.33,2.15,28.35,5.74c-8.07,8.3-16.26,16.49-24.32,24.79
		c12.34,7.43,23.77,16.68,32.21,28.45c-15.56,3.45-31.34,11.64-38.74,26.44c2.272,3.025,3.26,7.979,4.231,11.814
		c-0.34,1.3-45.901-13.634-48.711-15.184c-0.34-0.88-0.68-1.75-1.01-2.62c-7.73-0.66-15.56-0.2-23.05,1.9
		c19.62-19.74,47.38-28.94,74.46-32.26c-9.79-6.45-21.61-8.73-33.14-9.42c6.51-12.34,16.17-22.77,27.06-31.37
		c-7.76-0.02-15.49,0.82-23.13,2.08c3.41-11.74,11.4-21.36,19.5-30.21c-7.34,0.51-13.97,3.99-20.34,7.39
		c10.81-18.77,31.2-29.89,51.81-34.5c0.38-0.01,1.16-0.03,1.55-0.04c-0.27-0.92-0.57-1.83-0.9-2.72
		c-7.72-17.01-22.49-30.32-39.49-37.74c-2.56-0.99-5.1-2.39-7.89-2.38c-3.05,0.83-5.8,2.45-8.71,3.62
		c8.98-10.83,17.11-22.48,22.73-35.44c7.14-16.04,11.69-33.3,13.19-50.79c2.13-20.68,1.13-41.68-2.64-62.13
		c-3.72-0.23-7.45-0.18-11.13,0.41c-37.06,3.92-72.27,18.58-103.63,38.29c-10.51,6.55-20.42,13.97-30.14,21.62
		c4.15-9.35,11.03-17.04,18.17-24.21c-18.07-3.53-36.52-4.41-54.88-4.96c-17.94,0.68-36,1.41-53.64,4.99
		c7.15,7.16,14.07,14.87,18.11,24.27c-18.53-15.16-38.84-28.16-60.45-38.48c-22.84-10.84-47.28-18.74-72.48-21.41
		c-3.85-0.61-7.74-0.72-11.63-0.69c-2.26,9.5-3.12,19.28-3.86,28.99c0.24,10.32-0.72,20.74,0.7,31
		c2.21,28.16,11.54,56.13,28.51,78.87c2.4,3.28,5.21,6.24,7.57,9.56c-3.95-1.2-7.86-4.83-12.15-2.87
		c-19.76,7.27-37.18,22.38-45.01,42.14c0.5,0.08,1.51,0.24,2.01,0.32c20.62,4.26,40.77,15.74,51.61,34.3
		c-6.4-3.36-13-6.95-20.37-7.38c8.08,8.83,16.11,18.42,19.44,30.16c-7.62-1.2-15.31-2.11-23.03-2.05
		c10.89,8.6,20.44,19.06,27.06,31.31c-11.53,0.78-23.36,2.99-33.17,9.45c16.8,2.09,23.56,2.319,38.75,9.889
		c-1.08,1.95-37.33,16.501-38.75,17.761c-1.79-1.97-3.72-3.82-5.76-5.53c-7.86-6.18-17.33-9.97-27.05-12.08
		c8.27-11.95,19.88-21.08,32.19-28.56c-8.06-8.33-16.42-16.37-24.26-24.92c9.06-3.34,18.71-4.66,28.27-5.58
		c-7.87-18.48-24.43-34.08-44.81-36.92c3.44-23.95,16.75-46.12,35.7-61.03C515.13,214.93,509.05,191.17,507.9,166.9z"/>
</g>
<g id="_x23_b0bac6ff">
	<path class="st2" d="M529.88,100.84c3.89-0.03,7.78,0.08,11.63,0.69c25.2,2.67,49.64,10.57,72.48,21.41
		c21.61,10.32,41.92,23.32,60.45,38.48c-4.04-9.4-10.96-17.11-18.11-24.27c17.64-3.58,35.7-4.31,53.64-4.99
		c18.36,0.55,36.81,1.43,54.88,4.96c-7.14,7.17-14.02,14.86-18.17,24.21c9.72-7.65,19.63-15.07,30.14-21.62
		c31.36-19.71,66.57-34.37,103.63-38.29c3.68-0.59,7.41-0.64,11.13-0.41c3.77,20.45,4.77,41.45,2.64,62.13
		c-0.17-0.53-0.5-1.59-0.66-2.12c-11.68,35.52-34.82,68.73-68.62,86.18c9.93,2.05,20.58,5.33,26.98,13.76
		c2.56,3.01,3.46,7.11,6.08,10.02c4,0.16,7.95-0.8,11.96-0.84c12.79,0.08,26.09,2.51,36.73,10.04c2.51,1.97,5.06,3.88,7.7,5.69
		c0.33,0.89,0.63,1.8,0.9,2.72c-0.39,0.01-1.17,0.03-1.55,0.04c-3.09-3.24-7.8-3.38-11.86-4.48c-25.26-5.23-51.88,2.35-72.62,17.08
		c-1.12,0.84-0.91,2.39-1.11,3.61c-0.76,16.6-7.47,33.09-19.4,44.78c-3.43,2.91-6.87,6.25-11.44,7.17
		c5.6-8.03,10.83-16.91,11.67-26.86c0.54-5.58-1.43-11.23-5.32-15.27c3.75-3.43,7.79-6.52,11.41-10.09
		c-12.88-0.51-24.65,5.76-35.43,12.08c-10.42,6.09-20.19,13.3-30.99,18.73c-5.7,2.8-12.67,5.27-18.71,1.98
		c1.45,2.08,2.92,4.16,4.44,6.21c-1.04,6.45-2.2,12.88-3.26,19.33c4.02-6.37,9.51-11.69,15.74-15.88c3.03,4.38,6.09,8.75,8.99,13.23
		c2.71,9.98,3.33,20.38,4.08,30.66c0.75,20.21-1.78,41-10.58,59.42c-2.16,4.35-4.95,8.34-7.39,12.54c-1.4,2.36-2.75,4.75-4.13,7.13
		c-11.89-5.53-25.54-5.96-38.36-4.49c-5.59,0.68-11.13,2.01-16.19,4.53c-1.42-2.51-2.77-5.03-4.17-7.53
		c-4.24-6.6-8.25-13.38-10.98-20.76c-5.09-14.02-6.74-29.02-7.13-43.85c0.27-12.32,1.62-24.58,3.81-36.7
		c-0.97-0.43-1.95-0.84-2.93-1.22c0.85,0.05,2.53,0.17,3.37,0.23c3.03-4.39,5.99-8.81,9-13.2c6.22,4.18,11.76,9.48,15.73,15.88
		c-0.83-6.39-2.35-12.67-3.05-19.07c1.01-2.71,3.51-4.49,4.8-7.04c-5.3,4-12.34,1.76-17.78-0.73c-12.97-6.22-24.4-15.14-37-22.03
		c-9.47-5.25-19.86-9.94-30.93-9.46c3.65,3.54,7.69,6.63,11.42,10.08c-4.09,4.35-6.04,10.51-5.18,16.42
		c1.19,9.71,6.42,18.24,11.81,26.16c-11.23-4.89-19.53-14.95-24.45-25.95c-4.14-8.54-6.1-17.97-6.74-27.39
		c0.07-1.61-0.94-2.85-2.24-3.63c-13.63-9.12-29.28-15.51-45.65-17.32c-9.67-0.45-19.59-0.78-28.98,1.95
		c-2.8,0.82-5.64,1.51-8.54,1.87c1.94-3.16,5.17-5.15,8.1-7.26c10.27-7.16,23.14-9.18,35.4-9.32c4.25-0.16,8.61,1.48,12.76,0.49
		c2.38-4.19,4.2-8.83,7.89-12.12c6.3-6.81,15.56-9.77,24.49-11.1c-3.91-2.72-8.16-4.89-12.12-7.52
		c-23.36-15.98-40.56-39.73-51.44-65.64c-1.87-4.51-3.31-9.23-5.83-13.45c-1.42-10.26-0.46-20.68-0.7-31
		C526.76,120.12,527.62,110.34,529.88,100.84 M543.25,112.79c-4.48,7.66-7.13,16.3-8.2,25.08c-0.38,5.8-0.15,11.62,0.03,17.42
		c2.61-2.92,4.47-6.39,6.94-9.41c-2.08,17.19,1.51,34.37,6.48,50.77c2.51-3.23,2.81-7.57,5.12-10.94
		c1.65,12.85,11.64,22.85,22.19,29.43c5.75-22.43,20.74-42.27,40.33-54.49c-1.16,3.89-2.57,7.71-4.29,11.39
		c1.56-0.69,3.17-1.26,4.84-1.64c14.11-2.42,28.44,0.93,41.49,6.26c-1.68-1.72-3.38-3.4-5.22-4.94
		C621.79,143.88,584.73,120.86,543.25,112.79 M849.08,120.91c-32.25,12.27-61.3,32.15-86.22,55.87c9.59-3.9,19.72-7.03,30.15-7.1
		c5.45-0.03,11.13-0.09,16.16,2.32c-1.58-3.75-2.93-7.59-4.33-11.41c4.32,2.29,8.01,5.56,11.79,8.62
		c13.6,12.16,24.46,28.07,28.59,46c10.49-6.51,20.55-16.4,22.19-29.2c0.29,0.28,0.87,0.82,1.16,1.1c1.17,3.4,2.29,6.86,4.1,9.99
		c1.27-6.13,3.51-12.04,4.58-18.23c1.53-6.54,1.98-13.24,2.66-19.91c0.4-4.39-0.7-8.7-0.94-13.06c2.62,2.91,4.52,6.35,6.94,9.41
		c1.44-14.55-0.27-29.91-8.12-42.54C868.06,114.88,858.39,117.33,849.08,120.91 M604.42,225.78c4.1-4.74,8.81-8.96,14.01-12.46
		c18.16-12.05,40.17-17.11,61.72-18.07c-14.44-3.08-29.74-3.81-44.16-0.21c-1.69-1.78-3.42-3.51-5.16-5.23
		C617.03,196.85,607.65,210.83,604.42,225.78 M790.32,189.83c-1.77,1.75-3.53,3.51-5.29,5.27c-14.41-3.81-29.71-2.77-44.19,0.1
		c11.89,0.47,23.72,2.38,35.13,5.77c15.37,4.6,30.27,12.43,40.77,24.81C813.49,210.84,804.13,196.85,790.32,189.83 M700.9,332.09
		c1.69,1.86,3.47,3.76,4.23,6.23c-1.68,0.42-3.31,1.04-4.42,2.45c3.75,3.15,7.55,6.51,9.74,10.97c2.55-4.49,6.58-7.75,10.1-11.42
		c-1.45-0.88-2.99-1.55-4.59-2.08c0.96-2.33,2.5-4.32,4.17-6.18c-3.42,0.07-6.75,0.99-9.63,2.86
		C707.7,332.9,704.3,332.15,700.9,332.09z"/>
</g>
<g id="_x23_0a0e12ff">
	<path class="st3" d="M543.25,112.79c41.48,8.07,78.54,31.09,109.71,58.93c1.84,1.54,3.54,3.22,5.22,4.94
		c-13.05-5.33-27.38-8.68-41.49-6.26c-1.67,0.38-3.28,0.95-4.84,1.64c1.72-3.68,3.13-7.5,4.29-11.39
		c-19.59,12.22-34.58,32.06-40.33,54.49c-10.55-6.58-20.54-16.58-22.19-29.43c-2.31,3.37-2.61,7.71-5.12,10.94
		c-4.97-16.4-8.56-33.58-6.48-50.77c-2.47,3.02-4.33,6.49-6.94,9.41c-0.18-5.8-0.41-11.62-0.03-17.42
		C536.12,129.09,538.77,120.45,543.25,112.79z"/>
	<path class="st3" d="M849.08,120.91c9.31-3.58,18.98-6.03,28.71-8.14c7.85,12.63,9.56,27.99,8.12,42.54
		c-2.42-3.06-4.32-6.5-6.94-9.41c0.24,4.36,1.34,8.67,0.94,13.06c-0.68,6.67-1.13,13.37-2.66,19.91c-1.07,6.19-3.31,12.1-4.58,18.23
		c-1.81-3.13-2.93-6.59-4.1-9.99c-0.29-0.28-0.87-0.82-1.16-1.1c-1.64,12.8-11.7,22.69-22.19,29.2c-4.13-17.93-14.99-33.84-28.59-46
		c-3.78-3.06-7.47-6.33-11.79-8.62c1.4,3.82,2.75,7.66,4.33,11.41c-5.03-2.41-10.71-2.35-16.16-2.32
		c-10.43,0.07-20.56,3.2-30.15,7.1C787.78,153.06,816.83,133.18,849.08,120.91z"/>
	<path class="st3" d="M604.42,225.78c3.23-14.95,12.61-28.93,26.41-35.97c1.74,1.72,3.47,3.45,5.16,5.23
		c14.42-3.6,29.72-2.87,44.16,0.21c-21.55,0.96-43.56,6.02-61.72,18.07C613.23,216.82,608.52,221.04,604.42,225.78z"/>
	<path class="st3" d="M790.32,189.83c13.81,7.02,23.17,21.01,26.42,35.95c-10.5-12.38-25.4-20.21-40.77-24.81
		c-11.41-3.39-23.24-5.3-35.13-5.77c14.48-2.87,29.78-3.91,44.19-0.1C786.79,193.34,788.55,191.58,790.32,189.83z"/>
</g>
<g id="_x23_22252aff">
</g>
<g id="_x23_9ea9b6ff">
	<path class="st4" d="M526.72,160.83c2.52,4.22,3.96,8.94,5.83,13.45c10.88,25.91,28.08,49.66,51.44,65.64
		c3.96,2.63,8.21,4.8,12.12,7.52c-8.93,1.33-18.19,4.29-24.49,11.1c-3.69,3.29-5.51,7.93-7.89,12.12
		c-4.15,0.99-8.51-0.65-12.76-0.49c-12.26,0.14-25.13,2.16-35.4,9.32c-2.93,2.11-6.16,4.1-8.1,7.26c0.04,0.7,0.11,1.4,0.18,2.1
		c-0.5-0.08-1.51-0.24-2.01-0.32c7.83-19.76,25.25-34.87,45.01-42.14c4.29-1.96,8.2,1.67,12.15,2.87c-2.36-3.32-5.17-6.28-7.57-9.56
		C538.26,216.96,528.93,188.99,526.72,160.83z"/>
	<path class="st4" d="M893.56,161.02c0.16,0.53,0.49,1.59,0.66,2.12c-1.5,17.49-6.05,34.75-13.19,50.79
		c-5.62,12.96-13.75,24.61-22.73,35.44c2.91-1.17,5.66-2.79,8.71-3.62c2.79-0.01,5.33,1.39,7.89,2.38
		c17,7.42,31.77,20.73,39.49,37.74c-2.64-1.81-5.19-3.72-7.7-5.69c-10.64-7.53-23.94-9.96-36.73-10.04c-4.01,0.04-7.96,1-11.96,0.84
		c-2.62-2.91-3.52-7.01-6.08-10.02c-6.4-8.43-17.05-11.71-26.98-13.76C858.74,229.75,881.88,196.54,893.56,161.02z"/>
</g>
<g id="_x23_1a1d21ff">
</g>
<g id="_x23_16191eff">
</g>
<g id="_x23_1c2229ff">
</g>
<g id="_x23_343a41ff">
</g>
<g id="_x23_c4c8ccff">
	<path class="st5" d="M516.01,284.88c9.39-2.73,19.31-2.4,28.98-1.95c16.37,1.81,32.02,8.2,45.65,17.32
		c1.3,0.78,2.31,2.02,2.24,3.63c0.64,9.42,2.6,18.85,6.74,27.39c4.92,11,13.22,21.06,24.45,25.95c0.25,0.34,0.77,1.01,1.03,1.35
		c-5.88,6.08-11.8,12.83-13.67,21.32c13.53-12.51,31.54-21.88,50.45-19.91c0.98,0.38,1.96,0.79,2.93,1.22
		c-2.19,12.12-3.54,24.38-3.81,36.7c0.39,14.83,2.04,29.83,7.13,43.85c2.73,7.38,6.74,14.16,10.98,20.76
		c-2.39,14.17,1.9,28.77,10.32,40.24c-13.08-4.05-24.78-12.47-32.42-23.88c-10.94-16.1-14.86-35.83-15.86-54.97
		c-0.43-11.13,0.11-22.28,1.63-33.31c-13.54,17.14-19.22,39.44-19.02,61.02c-17.72-2.58-34.58-8.99-51.1-15.65
		c2.54-6.99,5.35-13.88,7.88-20.87c7.73-0.76,15.59-0.3,23.07,1.86c-7.37-7.65-16.3-13.67-25.78-18.41
		c-15.19-7.57-31.84-11.81-48.64-13.9c9.81-6.46,21.64-8.67,33.17-9.45c-6.62-12.25-16.17-22.71-27.06-31.31
		c7.72-0.06,15.41,0.85,23.03,2.05c-3.33-11.74-11.36-21.33-19.44-30.16c7.37,0.43,13.97,4.02,20.37,7.38
		c-10.84-18.56-30.99-30.04-51.61-34.3c-0.07-0.7-0.14-1.4-0.18-2.1C510.37,286.39,513.21,285.7,516.01,284.88z"/>
	<path class="st5" d="M829.26,301.23c20.74-14.73,47.36-22.31,72.62-17.08c4.06,1.1,8.77,1.24,11.86,4.48
		c-20.61,4.61-41,15.73-51.81,34.5c6.37-3.4,13-6.88,20.34-7.39c-8.1,8.85-16.09,18.47-19.5,30.21c7.64-1.26,15.37-2.1,23.13-2.08
		c-10.89,8.6-20.55,19.03-27.06,31.37c11.53,0.69,23.35,2.97,33.14,9.42c-27.08,3.32-54.84,12.52-74.46,32.26
		c7.49-2.1,15.32-2.56,23.05-1.9c0.33,0.87,0.67,1.74,1.01,2.62c2.23,6.14,4.71,12.19,6.91,18.35c-16.53,6.6-33.37,13.07-51.08,15.6
		c0.14-21.54-5.47-43.77-18.96-60.91c2.37,19.45,2.58,39.4-1.84,58.59c-3.36,14.35-9.57,28.54-20.31,38.92
		c-6.8,6.82-15.43,11.62-24.55,14.56c8.18-11.39,12.88-25.86,10.21-39.88c2.44-4.2,5.23-8.19,7.39-12.54
		c8.8-18.42,11.33-39.21,10.58-59.42c-0.75-10.28-1.37-20.68-4.08-30.66c12.87-1.77,26.11,1.03,37.33,7.5
		c6.06,3.31,11.44,7.67,16.59,12.23c-1.92-8.56-7.86-15.32-13.72-21.5c0.32-0.43,0.95-1.27,1.26-1.69
		c4.57-0.92,8.01-4.26,11.44-7.17c11.93-11.69,18.64-28.18,19.4-44.78C828.35,303.62,828.14,302.07,829.26,301.23z"/>
	<path class="st5" d="M628.12,326.23c5.12,0.55,10.05,2.05,14.86,3.85c-2.55,2.62-2.75,7.23,0.77,9.13
		c3.51,2.37,7.45-0.66,8.73-4.04c3.22,2.5,6.5,4.95,9.32,7.93c-6.1,4.22-14.41,7.13-21.48,3.6
		C632.86,342.68,629.96,333.96,628.12,326.23z"/>
</g>
<g id="_x23_13161aff">
</g>
<g id="_x23_0a0f14ff">
	<path class="st6" d="M606.02,304.56c11.07-0.48,21.46,4.21,30.93,9.46c12.6,6.89,24.03,15.81,37,22.03
		c5.44,2.49,12.48,4.73,17.78,0.73c-1.29,2.55-3.79,4.33-4.8,7.04c0.7,6.4,2.22,12.68,3.05,19.07c-3.97-6.4-9.51-11.7-15.73-15.88
		c-3.01,4.39-5.97,8.81-9,13.2c-0.84-0.06-2.52-0.18-3.37-0.23c-18.91-1.97-36.92,7.4-50.45,19.91c1.87-8.49,7.79-15.24,13.67-21.32
		c-0.26-0.34-0.78-1.01-1.03-1.35c-5.39-7.92-10.62-16.45-11.81-26.16c-0.86-5.91,1.09-12.07,5.18-16.42
		C613.71,311.19,609.67,308.1,606.02,304.56 M628.12,326.23c1.84,7.73,4.74,16.45,12.2,20.47c7.07,3.53,15.38,0.62,21.48-3.6
		c-2.82-2.98-6.1-5.43-9.32-7.93c-1.28,3.38-5.22,6.41-8.73,4.04c-3.52-1.9-3.32-6.51-0.77-9.13
		C638.17,328.28,633.24,326.78,628.12,326.23z"/>
</g>
<g id="_x23_0a0e14ff">
	<path class="st7" d="M779.64,316.65c10.78-6.32,22.55-12.59,35.43-12.08c-3.62,3.57-7.66,6.66-11.41,10.09
		c3.89,4.04,5.86,9.69,5.32,15.27c-0.84,9.95-6.07,18.83-11.67,26.86c-0.31,0.42-0.94,1.26-1.26,1.69
		c5.86,6.18,11.8,12.94,13.72,21.5c-5.15-4.56-10.53-8.92-16.59-12.23c-11.22-6.47-24.46-9.27-37.33-7.5
		c-2.9-4.48-5.96-8.85-8.99-13.23c-6.23,4.19-11.72,9.51-15.74,15.88c1.06-6.45,2.22-12.88,3.26-19.33
		c-1.52-2.05-2.99-4.13-4.44-6.21c6.04,3.29,13.01,0.82,18.71-1.98C759.45,329.95,769.22,322.74,779.64,316.65 M778.14,330.12
		c0.68,1.17,1.75,2.22,1.92,3.64c0.72,3.43-2.82,6.78-6.18,6.19c-2.58-0.21-4.05-2.6-5.06-4.69c-3.37,2.29-6.57,4.83-9.45,7.73
		c6.11,4.58,14.96,7.34,22.07,3.4c7-4.27,9.72-12.57,11.66-20.08C787.92,326.69,782.97,328.31,778.14,330.12z"/>
</g>
<g id="_x23_2c333dff">
</g>
<g id="_x23_c5c8ccff">
	<path class="st8" d="M778.14,330.12c4.83-1.81,9.78-3.43,14.96-3.81c-1.94,7.51-4.66,15.81-11.66,20.08
		c-7.11,3.94-15.96,1.18-22.07-3.4c2.88-2.9,6.08-5.44,9.45-7.73c1.01,2.09,2.48,4.48,5.06,4.69c3.36,0.59,6.9-2.76,6.18-6.19
		C779.89,332.34,778.82,331.29,778.14,330.12z"/>
</g>
<g id="_x23_090c10ff">
	<path class="st9" d="M700.9,332.09c3.4,0.06,6.8,0.81,9.6,2.83c2.88-1.87,6.21-2.79,9.63-2.86c-1.67,1.86-3.21,3.85-4.17,6.18
		c1.6,0.53,3.14,1.2,4.59,2.08c-3.52,3.67-7.55,6.93-10.1,11.42c-2.19-4.46-5.99-7.82-9.74-10.97c1.11-1.41,2.74-2.03,4.42-2.45
		C704.37,335.85,702.59,333.95,700.9,332.09z"/>
</g>
<g id="_x23_232c38ff">
</g>
<g id="_x23_212831ff">
</g>
<g id="_x23_12161cff">
</g>
<g id="_x23_0a1016ff">
	<path class="st10" d="M623.76,451.61c-0.2-21.58,5.48-43.88,19.02-61.02c-1.52,11.03-2.06,22.18-1.63,33.31
		c1,19.14,4.92,38.87,15.86,54.97c7.64,11.41,19.34,19.83,32.42,23.88c-8.42-11.47-12.71-26.07-10.32-40.24
		c1.4,2.5,2.75,5.02,4.17,7.53c5.06-2.52,10.6-3.85,16.19-4.53c12.82-1.47,26.47-1.04,38.36,4.49c1.38-2.38,2.73-4.77,4.13-7.13
		c2.67,14.02-2.03,28.49-10.21,39.88c9.12-2.94,17.75-7.74,24.55-14.56c10.74-10.38,16.95-24.57,20.31-38.92
		c4.42-19.19,4.21-39.14,1.84-58.59c13.49,17.14,19.1,39.37,18.96,60.91c17.71-2.53,34.55-9,51.08-15.6
		c-2.2-6.16-4.845-12.635-7.075-18.775c2.81,1.55,47.833,11.953,47.502,10.459c1.055,3.284,2.159,7.861,2.103,11.386
		c1.05,14.55-1.58,29.04-5.28,43.05c-12.3-1.04-24.55-2.62-36.85-3.74c-6.16,22.83-19.83,43.41-37.87,58.59
		c-0.99,1.05-2.44,1.08-3.7,0.59c-4.95-1.47-9.83-3.17-14.76-4.66c-0.64,1.65-1.26,3.32-1.89,4.99c-8.97,0.24-17.95,0.04-26.92,0.11
		c5.52-7.25,9.79-15.42,12.52-24.12c7.6,1.85,15.23,3.56,22.85,5.34c9.67-9.47,17.91-20.63,23.08-33.19
		c1.33-3.29,2.5-6.68,2.82-10.24c-6.82,11.54-15.88,23.26-29.15,27.47c-8.64-1.11-17.07-3.75-25.62-5.47
		c-12.12,16.23-26.75,31.87-45.99,39.42c-4.34,1.21-8.88,0.7-13.32,0.79c-4.5-0.08-9.07,0.36-13.51-0.6
		c-19.5-7.42-34.32-23.23-46.52-39.62c-6.82,1.6-13.67,3.07-20.48,4.71c-2.35,0.5-4.87,1.34-7.16,0.15
		c-12.37-4.99-20.76-16.13-27.45-27.2c3.46,17.03,14.15,31.63,26.13,43.79c7.64-1.75,15.28-3.5,22.9-5.35
		c2.77,8.68,7.05,16.83,12.5,24.13c-8.87,0-17.74-0.07-26.61,0.04c-0.76-1.72-1.5-3.43-2.24-5.15c-5.53,1.62-10.91,3.8-16.53,5.06
		c-1.37-0.47-2.43-1.48-3.52-2.37c-17.19-15.09-30.22-35.1-36.21-57.24c-12.28,1.2-24.54,2.7-36.83,3.79
		c-3.89-15-6.84-30.62-4.94-46.15c0.64-5.23,2.15-10.34,4.61-15.01c-1.71-3.06-3.57-6.05-5.89-8.68
		c1.42-1.26,34.652-17.339,35.732-19.289c9.48,4.74,31.318,16.299,38.688,23.949c-7.48-2.16-15.34-2.62-23.07-1.86
		c-2.53,6.99-5.34,13.88-7.88,20.87C589.18,442.62,606.04,449.03,623.76,451.61z"/>
</g>
<g id="_x23_83a5beff">
	<path class="st11" d="M522.539,406.081c2.04,1.71,4.861,4.239,6.651,6.209c2.32,2.63,4.18,5.62,5.89,8.68
		c-2.46,4.67-3.97,9.78-4.61,15.01c-1.9,15.53,1.05,31.15,4.94,46.15c12.29-1.09,24.55-2.59,36.83-3.79
		c5.99,22.14,19.02,42.15,36.21,57.24c1.09,0.89,2.15,1.9,3.52,2.37c5.62-1.26,11-3.44,16.53-5.06c0.74,1.72,1.48,3.43,2.24,5.15
		c8.87-0.11,17.74-0.04,26.61-0.04c10.88,0.08,21.76-0.13,32.65,0.07c2.49,0.04,4.97-0.27,7.43-0.68c4.44,0.96,9.01,0.52,13.51,0.6
		c4.44-0.09,8.98,0.42,13.32-0.79c2.21,0.5,4.46,0.89,6.74,0.86c10.92-0.14,21.83,0,32.75-0.07c8.97-0.07,17.95,0.13,26.92-0.11
		c0.63-1.67,1.25-3.34,1.89-4.99c4.93,1.49,9.81,3.19,14.76,4.66c1.26,0.49,2.71,0.46,3.7-0.59c18.04-15.18,31.71-35.76,37.87-58.59
		c12.3,1.12,24.55,2.7,36.85,3.74c3.7-14.01,5.85-29.85,5.239-44.563c0.34,0.06,17.459,1.673,18.139-0.407
		c1.91,21.68-3.968,44.28-9.988,64.89c-12.5-1.31-25-2.59-37.48-3.98c-6.2,14.55-14.7,28.1-25.23,39.91
		c21.45,0.04,42.91,0,64.36,0.02c32.28-0.01,64.56,0.04,96.84-0.03c3.46,0.02,6.92,0.03,10.39,0.03
		c0.03,38.32-0.03,76.65,0.02,114.97c0.45,3.29-2.88,5.01-4.72,7.16c1.73,3.17,5.17,5.86,4.72,9.82
		c-0.04,9.33-0.03,18.65-0.02,27.98c-0.03,19.76-0.02,39.52-0.01,59.28c-0.44,0.06-1.3,0.17-1.74,0.23
		c-0.2-1.82-0.39-3.63-0.57-5.43c-0.79,0.38-1.57,0.77-2.34,1.18c-0.91-1.23-1.82-2.46-2.73-3.66c-0.03,2.39,0.09,4.79,0.34,7.18
		c-0.42,0-1.28,0.01-1.71,0.01c-0.4-2.91,0.65-6.73-2.39-8.48c-0.14-23.78-0.05-47.56-0.04-71.34c-0.17-2.58,0.59-5.52-1.06-7.75
		c-2.26-3.4-4.71-6.67-6.93-10.1c2.65-2.79,5.32-5.58,7.97-8.37c0.02-33.75-0.02-67.51,0.03-101.26
		c-191.11-0.2-382.23,0-573.34-0.09c-0.16,26.86-0.17,53.72-0.12,80.58c-0.1,1.81,0.17,3.85-1.03,5.39
		c-3.56,5.24-7.32,10.34-10.88,15.57c3.81,4.43,8.4,8.28,11.68,13.11c0.37,15.81-0.06,31.64,0.06,47.46
		c-4.52,0.74-6.3,6.29-11.2,5.75c0.01-16.39,0.02-32.78-0.02-49.16c-4.93-5.45-10.06-10.72-15.05-16.12
		c3.42-4.85,6.77-9.76,10.2-14.61c1.82-2.98,5.12-5.55,4.94-9.32c-0.01-23.99,0.03-47.97,0.03-71.95
		c0.04-6.01,0.03-12.02,0.04-18.02c11.11-0.03,22.22,0.01,33.33-0.03c46.42,0.04,92.84,0.04,139.27-0.01
		c-10.35-11.81-19.18-25.1-24.95-39.76c-12.63,0.98-25.2,2.66-37.81,3.8c-2.62-9.46-5.45-18.89-7.4-28.52
		c-3.21-16.41-4.67-33.73-0.11-50.03c-1.61-1.56-4.374-3.737-6.234-4.997C508.766,417.273,522.109,407.701,522.539,406.081z"/>
</g>
<g id="_x23_0b1219ff">
</g>
<g id="_x23_26303bff">
</g>
<g id="_x23_0c1217ff">
</g>
<g id="_x23_161b22ff">
</g>
<g id="_x23_0d1115ff">
</g>
<g id="_x23_acb8c6ff">
	<path class="st12" d="M595.82,475.43c6.69,11.07,15.08,22.21,27.45,27.2c2.29,1.19,4.81,0.35,7.16-0.15
		c6.81-1.64,13.66-3.11,20.48-4.71c12.2,16.39,27.02,32.2,46.52,39.62c-2.46,0.41-4.94,0.72-7.43,0.68
		c-10.89-0.2-21.77,0.01-32.65-0.07c-5.45-7.3-9.73-15.45-12.5-24.13c-7.62,1.85-15.26,3.6-22.9,5.35
		C609.97,507.06,599.28,492.46,595.82,475.43z"/>
	<path class="st12" d="M825.02,475.78c-0.32,3.56-1.49,6.95-2.82,10.24c-5.17,12.56-13.41,23.72-23.08,33.19
		c-7.62-1.78-15.25-3.49-22.85-5.34c-2.73,8.7-7,16.87-12.52,24.12c-10.92,0.07-21.83-0.07-32.75,0.07
		c-2.28,0.03-4.53-0.36-6.74-0.86c19.24-7.55,33.87-23.19,45.99-39.42c8.55,1.72,16.98,4.36,25.62,5.47
		C809.14,499.04,818.2,487.32,825.02,475.78z"/>
</g>
<g id="_x23_0a111aff">
	<path class="st13" d="M423.37,629.89c-0.05-26.86-0.04-53.72,0.12-80.58c191.11,0.09,382.23-0.11,573.34,0.09
		c-0.05,33.75-0.01,67.51-0.03,101.26c-2.65,2.79-5.32,5.58-7.97,8.37c2.22,3.43,4.67,6.7,6.93,10.1c1.65,2.23,0.89,5.17,1.06,7.75
		c-0.01,23.78-0.1,47.56,0.04,71.34c-0.05,2.86-0.09,5.74-0.09,8.62c-23.1-8.38-46.21-16.8-69.76-23.82
		c-18.02-5.1-36.15-9.77-54.39-13.95c-0.35-9.93-0.16-19.86-0.54-29.78c-38.13-6.2-76.57-10.61-115.16-12.52
		c-18.89-1.09-37.82-1.08-56.73-1.41c-0.07-9.45-0.11-18.89-0.11-28.32c-8.8,0.08-17.61-0.02-26.39,0.49
		c0.07,9.43-0.2,18.86-0.1,28.3c-26.24,1.53-52.54,2.63-78.63,5.97c-15.75,1.66-31.4,4.14-47.01,6.81
		c-0.11,9.64-0.18,19.3-0.34,28.95c-21.36,4.8-42.65,9.95-63.61,16.29c-20.54,6-40.64,13.34-60.83,20.39
		c-0.01-14.28,0.1-28.55,0.03-42.82c-0.12-15.82,0.31-31.65-0.06-47.46c-3.28-4.83-7.87-8.68-11.68-13.11
		c3.56-5.23,7.32-10.33,10.88-15.57C423.54,633.74,423.27,631.7,423.37,629.89 M441.16,567.05c-0.2,24.3-0.05,48.61-0.14,72.92
		c-2.28,3.01-4.46,6.1-6.59,9.23c2.04,2.51,4.22,4.89,6.56,7.13c0.04,24.24-0.02,48.49,0.02,72.73c2.6-0.68,5.06-1.8,7.7-2.33
		l-0.06-0.47c26.75-8.64,53.69-16.89,81.2-22.78c0.28-13.63,0.1-27.27,0.29-40.9l0.41-0.98c-10.27,1.07-20.47,3.1-30.59,5.11
		c0.06,3.39,0.01,6.79,0.06,10.2c-6.21,1.82-12.68,2.71-18.96,4.32c-1.72,0.58-3.91,0.23-5.23,1.68c-1.66-0.29-3.27,0.34-4.85,0.75
		c-0.03-12.02,0.13-24.03,0.19-36.04c-0.1-14.89,0.16-29.79,0.24-44.68c9.72-0.73,19.45-1.43,29.18-1.96
		c-0.19,3.6-0.27,7.2-0.26,10.81c2.33,0.14,4.68,0.12,7-0.29c7.75-1,15.6-1.34,23.4-1.91c0.23-14.13,0.31-28.26,0.29-42.38
		c-27.59-0.05-55.19,0.17-82.79-0.11C445.88,566.92,443.51,566.93,441.16,567.05 M547.11,566.99c-0.41,15.47,0.38,30.99-0.68,46.44
		c-1.58,2.15-3.59,3.95-5.3,6c1.72,1.5,3.45,3,5.18,4.5c0.01,4.65-0.14,9.31-0.15,13.97c2.39,0.04,4.79,0.03,7.15-0.43
		c5.4-0.85,10.87-1.35,16.33-1.69c-0.87,10.34-0.46,20.77-0.64,31.15c2.42,0,4.9,0.02,7.19-0.88c5.6-0.75,11.28-1.02,16.82-2.18
		c-0.06-9.39,0.01-18.77,0.2-28.15c-0.03-0.49-0.09-1.48-0.11-1.97c7.81-0.95,15.71-0.87,23.51-1.92
		c0.13-21.54,0.45-43.09,0.36-64.63c-5.55-0.01-11.1,0.15-16.65-0.1c-2.32-0.2-4.65-0.18-6.97,0.03
		c-0.34,14.61-0.33,29.23-0.36,43.84c-2.4,0.14-4.82,0.33-7.15,0.96c-5.2,0.01-10.39,0.32-15.57,0.73
		c0.12-15.14,0.51-30.27,0.53-45.41c-5.55-0.11-11.11,0.11-16.66-0.14C551.79,566.94,549.45,566.92,547.11,566.99 M632.44,567.13
		c-0.36,13.96-0.34,27.92-0.39,41.88c-1.8,1.64-3.6,3.27-5.42,4.88c1.7,2.41,6.01,3.38,5.39,6.94c-0.08,13.32,0.08,26.64-0.11,39.96
		c2.3-0.44,4.61-0.79,6.95-0.95c5.72,0.22,11.37-0.76,17.06-1.08c-0.04-9.63,0.17-19.25-0.06-28.88
		c15.58-0.37,31.16-0.67,46.73-1.07c-0.18-20.49-0.03-40.98-0.08-61.47c-21.06-0.35-42.12,0.13-63.18-0.24
		C637.03,566.89,634.73,566.92,632.44,567.13 M718.01,566.96c-0.03,13.53-0.01,27.06-0.01,40.59c-1.86,1.62-3.74,3.22-5.32,5.12
		c1.82,1.47,3.59,3.01,5.32,4.59c0,13.54,0,27.09,0,40.63c2.31,0,4.63,0,6.95-0.01c5.68-0.09,11.37-0.05,17.04,0.48
		c0.23-11.33-0.44-22.69,0.26-33.99c7.52-0.12,15.16,0.44,22.74,0.45c0.09,11.36-0.14,22.73,0.11,34.09
		c2.29,1.92,6.06,0.64,8.91,0.89c5.11,0.39,10.19,1.4,15.34,0.93c-0.66-14.39-0.04-28.81-0.61-43.2c0.2-16.72-0.28-33.45-0.31-50.18
		c-5.67-0.34-11.34,0.09-17-0.26c-2.17-0.12-4.33-0.15-6.49-0.15c0.04,12.15,0.09,24.3,0.06,36.45c-7.76-0.15-15.51-0.33-23.27-0.4
		c-0.04-11.91-0.03-23.82-0.2-35.72c-5.57-0.15-11.13,0.1-16.69-0.17C722.56,566.95,720.29,566.92,718.01,566.96 M803.77,566.94
		c0.18,14.32,0.3,28.64,0.22,42.96c-1.74,1.49-3.47,3-5.19,4.52c1.66,1.7,3.37,3.34,5.17,4.91c0.2,11.17-0.06,22.35,0.17,33.52
		c0.14,3.34-0.33,6.77,0.65,10.03c2.66-0.03,5.38-0.2,7.97,0.59c3.09,0.33,6.23,0.15,9.29,0.85c17.65,2.12,35.34,4.3,52.83,7.63
		c0.2-10.71-0.13-21.42-0.09-32.13c-5.51-1.27-11.28-1.55-16.91-2.04c-2.28-0.69-4.65-0.94-7-0.97c0.07,2.41,0.11,4.83,0.14,7.26
		c-0.54,0.02-1.63,0.05-2.18,0.06c-6.9-0.93-13.86-1.22-20.74-2.3c-0.07-2.29-0.11-4.56-0.12-6.84c-0.02-2.38-0.02-4.75-0.02-7.11
		c7.77,0.83,15.58,1.3,23.37,2.01c-0.16-7.92-0.15-15.84-0.38-23.75c-7.75-0.11-15.47-0.77-23.2-1.15
		c-0.03-4.93-0.11-9.86-0.15-14.79c7.48,0.35,14.97,0.64,22.46,0.58c0.01,2.65,0.05,5.31,0.12,7.98c2.46,0.11,4.94,0.15,7.43,0.12
		c5.44,0.46,10.89,0.8,16.35,0.86c-0.07-10.83-0.09-21.66-0.29-32.48c-21.07-0.18-42.15,0.16-63.21-0.17
		C808.22,566.97,805.99,566.93,803.77,566.94 M889.02,566.95c-0.14,20.61,0.14,41.23,0.15,61.84c-1.53,2.48-4.23,3.93-6.12,6.11
		c1.02,3.35,4.74,5.31,6.26,8.47c1.13,20.43,0.56,40.92,0.67,61.37c10.02,3.02,20.39,4.91,30.33,8.22c0.09-0.66,0.27-1.97,0.36-2.63
		c-0.53-14.52-0.68-29.06-0.66-43.59c2.06,0.35,4.13,1.33,6.27,0.94c4.11,2.17,9.15,1.5,13.39,3.44c3.29,4.12,6.26,8.53,9.16,12.95
		c0.5,12.47-0.14,24.99,0.31,37.48c10.15,2.7,19.84,6.97,29.97,9.71c-0.05-0.6-0.15-1.81-0.2-2.41c0.01-17.55,0.22-35.13-0.1-52.67
		c-4.08-6.56-8.97-12.6-13.18-19.07c2.22-2.23,4.46-4.45,6.61-6.75c2.1-2.35,4.32-4.59,6.54-6.83c-0.02-25.42,0.08-50.85-0.05-76.28
		c-27.63-0.14-55.28,0.16-82.91-0.15C893.55,566.95,891.28,566.92,889.02,566.95z"/>
</g>
<g id="_x23_82a4beff">
	<path class="st14" d="M441.16,567.05c2.35-0.12,4.72-0.13,7.07,0.05c-0.05,23.26,0.01,46.52-0.05,69.78
		c0.18,4.95-4.39,8.12-6.55,12.17c0.76,0.87,1.54,1.76,2.32,2.64c1.71,2.16,4.42,4.12,4.2,7.2c0.07,16.31-0.14,32.64,0.02,48.96
		c0.17,6.13-0.54,12.31,0.48,18.41l0.06,0.47c-2.64,0.53-5.1,1.65-7.7,2.33c-0.04-24.24,0.02-48.49-0.02-72.73
		c-2.34-2.24-4.52-4.62-6.56-7.13c2.13-3.13,4.31-6.22,6.59-9.23C441.11,615.66,440.96,591.35,441.16,567.05z"/>
	<path class="st14" d="M547.11,566.99c2.34-0.07,4.68-0.05,7.03,0.12c-0.13,14.59-0.44,29.19-0.5,43.79c0.36,3.63-3.2,5.69-5.18,8.2
		c1.53,1.68,3.13,3.31,4.81,4.86c0.22,4.5,0.11,9.01,0.04,13.51c-2.36,0.46-4.76,0.47-7.15,0.43c0.01-4.66,0.16-9.32,0.15-13.97
		c-1.73-1.5-3.46-3-5.18-4.5c1.71-2.05,3.72-3.85,5.3-6C547.49,597.98,546.7,582.46,547.11,566.99z"/>
	<path class="st14" d="M593.35,567.13c2.32-0.21,4.65-0.23,6.97-0.03c-0.07,14.78,0.03,29.58-0.48,44.36
		c-4.66,0.23-9.33,0.53-14,0.47c2.33-0.63,4.75-0.82,7.15-0.96C593.02,596.36,593.01,581.74,593.35,567.13z"/>
	<path class="st14" d="M632.44,567.13c2.29-0.21,4.59-0.24,6.89-0.03c0.16,11.6-0.14,23.2-0.08,34.81c-0.03,2.29,0.05,4.62-0.38,6.9
		c-1.32,2.06-3.36,3.55-4.85,5.5c1.69,1.45,3.8,2.63,4.9,4.64c0.47,4.65,0.01,9.34,0.1,14.01c0,8.96-0.25,17.92-0.16,26.88
		c-2.34,0.16-4.65,0.51-6.95,0.95c0.19-13.32,0.03-26.64,0.11-39.96c0.62-3.56-3.69-4.53-5.39-6.94c1.82-1.61,3.62-3.24,5.42-4.88
		C632.1,595.05,632.08,581.09,632.44,567.13z"/>
	<path class="st14" d="M718.01,566.96c2.28-0.04,4.55-0.01,6.83,0.14c0.06,13.55,0.16,27.1,0.02,40.64
		c-1.67,1.52-3.34,3.03-5.01,4.54c1.61,1.65,3.27,3.25,4.99,4.79c0.28,4.93,0.18,9.87,0.19,14.81c-0.06,8.66,0.08,17.33-0.08,26
		c-2.32,0.01-4.64,0.01-6.95,0.01c0-13.54,0-27.09,0-40.63c-1.73-1.58-3.5-3.12-5.32-4.59c1.58-1.9,3.46-3.5,5.32-5.12
		C718,594.02,717.98,580.49,718.01,566.96z"/>
	<path class="st14" d="M764.94,566.94c2.16,0,4.32,0.03,6.49,0.15c0.58,12.04,0.34,24.11,0.53,36.17c-2.32,0.06-4.64,0.13-6.96,0.13
		C765.03,591.24,764.98,579.09,764.94,566.94z"/>
	<path class="st14" d="M803.77,566.94c2.22-0.01,4.45,0.03,6.69,0.15c0.33,14.27,0.52,28.55,0.52,42.82
		c-1.65,1.54-3.29,3.11-4.92,4.68c1.7,1.69,3.64,3.23,4.89,5.31c0.32,1.88,0.29,3.79,0.31,5.7c-0.24,3.09-0.38,6.2-0.16,9.31
		c0.49,8,0.14,16.02,0.27,24.03c-0.08,1.63,0.72,3.09,1.39,4.53c-2.59-0.79-5.31-0.62-7.97-0.59c-0.98-3.26-0.51-6.69-0.65-10.03
		c-0.23-11.17,0.03-22.35-0.17-33.52c-1.8-1.57-3.51-3.21-5.17-4.91c1.72-1.52,3.45-3.03,5.19-4.52
		C804.07,595.58,803.95,581.26,803.77,566.94z"/>
	<path class="st14" d="M889.02,566.95c2.26-0.03,4.53,0,6.8,0.15c0.26,20.59,0.42,41.18,0.57,61.78c-2.13,2.12-4.27,4.23-6.49,6.25
		c1.48,2.11,3.22,4.01,5.1,5.78c2.61,3.05,1.49,7.3,1.73,10.96c0.21,17.58,0.29,35.15,0.57,52.73c7.76,2.03,15.5,4.19,23.37,5.73
		c-0.09,0.66-0.27,1.97-0.36,2.63c-9.94-3.31-20.31-5.2-30.33-8.22c-0.11-20.45,0.46-40.94-0.67-61.37
		c-1.52-3.16-5.24-5.12-6.26-8.47c1.89-2.18,4.59-3.63,6.12-6.11C889.16,608.18,888.88,587.56,889.02,566.95z"/>
	<path class="st14" d="M678.9,588.64c2.29-0.14,4.59-0.11,6.87,0.19c-0.12,6.34-0.1,12.68-0.06,19.03
		c-2.27,0.23-4.56,0.33-6.83,0.21C678.92,601.59,678.9,595.11,678.9,588.64z"/>
	<path class="st14" d="M850.06,590.78c2.32-0.02,4.65,0.01,6.98,0.06c0.16,2.68,0.35,5.36,0.57,8.04c-2.49,0.03-4.97-0.01-7.43-0.12
		C850.11,596.09,850.07,593.43,850.06,590.78z"/>
	<path class="st14" d="M500.59,600.98c2.26-0.02,4.51,0,6.77,0.02c0.11,3.5,0.1,7-0.03,10.5c-2.32,0.41-4.67,0.43-7,0.29
		C500.32,608.18,500.4,604.58,500.59,600.98z"/>
	<path class="st14" d="M944.64,603.09c3.63-0.66,7.29,0.02,10.93,0.22c-0.09,7.07,0.27,14.14-0.05,21.2
		c-2.4,4.09-6.01,7.35-8.82,11.17c-2.14-0.12-4.26-0.52-6.31-1.07c2.79-3.39,5.66-6.71,8.39-10.14c-0.04-6.85-0.28-13.69-0.12-20.53
		C947.31,603.64,945.98,603.34,944.64,603.09z"/>
	<path class="st14" d="M850.88,636.81c2.35,0.03,4.72,0.28,7,0.97c-0.05,2.4-0.08,4.81-0.1,7.23c-3.01,0.07-5.99-0.37-8.94-0.88
		c0.55-0.01,1.64-0.04,2.18-0.06C850.99,641.64,850.95,639.22,850.88,636.81z"/>
</g>
<g id="_x23_c1c6ccff">
	<path class="st15" d="M448.23,567.1c27.6,0.28,55.2,0.06,82.79,0.11c0.02,14.12-0.06,28.25-0.29,42.38
		c-7.8,0.57-15.65,0.91-23.4,1.91c0.13-3.5,0.14-7,0.03-10.5c-2.26-0.02-4.51-0.04-6.77-0.02c-9.73,0.53-19.46,1.23-29.18,1.96
		c-0.08,14.89-0.34,29.79-0.24,44.68c-9.14,0.8-18.22,2.29-27.22,4.07c-0.78-0.88-1.56-1.77-2.32-2.64
		c2.16-4.05,6.73-7.22,6.55-12.17C448.24,613.62,448.18,590.36,448.23,567.1z"/>
	<path class="st15" d="M639.33,567.1c21.06,0.37,42.12-0.11,63.18,0.24c0.05,20.49-0.1,40.98,0.08,61.47
		c-15.57,0.4-31.15,0.7-46.73,1.07c-0.45,0.87-0.89,1.75-1.33,2.64c-5.16,0.45-10.34,0.41-15.51,0.44
		c-0.09-4.67,0.37-9.36-0.1-14.01c-1.1-2.01-3.21-3.19-4.9-4.64c1.49-1.95,3.53-3.44,4.85-5.5c0.43-2.28,0.35-4.61,0.38-6.9
		C639.19,590.3,639.49,578.7,639.33,567.1 M656.01,588.82c-0.06,6.52-0.04,13.04-0.09,19.56c7.65-0.19,15.3-0.39,22.96-0.31
		c2.27,0.12,4.56,0.02,6.83-0.21c-0.04-6.35-0.06-12.69,0.06-19.03c-2.28-0.3-4.58-0.33-6.87-0.19
		C671.27,588.74,663.64,588.74,656.01,588.82z"/>
	<path class="st15" d="M810.46,567.09c21.06,0.33,42.14-0.01,63.21,0.17c0.2,10.82,0.22,21.65,0.29,32.48
		c-5.46-0.06-10.91-0.4-16.35-0.86c-0.22-2.68-0.41-5.36-0.57-8.04c-2.33-0.05-4.66-0.08-6.98-0.06
		c-7.49,0.06-14.98-0.23-22.46-0.58c0.04,4.93,0.12,9.86,0.15,14.79c7.73,0.38,15.45,1.04,23.2,1.15
		c0.23,7.91,0.22,15.83,0.38,23.75c-7.79-0.71-15.6-1.18-23.37-2.01c0,2.36,0,4.73,0.02,7.11c-5.2-0.47-10.74,0.58-15.69-1.33
		c-0.69-2.64-0.87-5.36-1.03-8.06c-0.02-1.91,0.01-3.82-0.31-5.7c-1.25-2.08-3.19-3.62-4.89-5.31c1.63-1.57,3.27-3.14,4.92-4.68
		C810.98,595.64,810.79,581.36,810.46,567.09z"/>
	<path class="st15" d="M895.82,567.1c27.63,0.31,55.28,0.01,82.91,0.15c0.13,25.43,0.03,50.86,0.05,76.28
		c-2.22,2.24-4.44,4.48-6.54,6.83c-14.25-2.98-28.8-4.36-43.22-6.34c-11.34-0.99-22.6-3.41-34.02-3.11
		c-1.88-1.77-3.62-3.67-5.1-5.78c2.22-2.02,4.36-4.13,6.49-6.25C896.24,608.28,896.08,587.69,895.82,567.1 M919.49,601.43
		c0.05,10.24,0.21,20.47,0.25,30.72c6.76,1.07,13.61,1.61,20.36,2.81l0.29-0.35c2.05,0.55,4.17,0.95,6.31,1.07
		c2.81-3.82,6.42-7.08,8.82-11.17c0.32-7.06-0.04-14.13,0.05-21.2c-3.64-0.2-7.3-0.88-10.93-0.22
		C936.25,602.68,927.88,601.86,919.49,601.43z"/>
</g>
<g id="_x23_c0c6ccff">
	<path class="st16" d="M554.14,567.11c5.55,0.25,11.11,0.03,16.66,0.14c-0.02,15.14-0.41,30.27-0.53,45.41
		c5.18-0.41,10.37-0.72,15.57-0.73c4.67,0.06,9.34-0.24,14-0.47c0.51-14.78,0.41-29.58,0.48-44.36c5.55,0.25,11.1,0.09,16.65,0.1
		c0.09,21.54-0.23,43.09-0.36,64.63c-7.8,1.05-15.7,0.97-23.51,1.92c0.02,0.49,0.08,1.48,0.11,1.97
		c-5.67-0.11-11.31,0.56-16.97,0.38c-2.2-0.12-4.4-0.3-6.6-0.32c-5.46,0.34-10.93,0.84-16.33,1.69c0.07-4.5,0.18-9.01-0.04-13.51
		c-1.68-1.55-3.28-3.18-4.81-4.86c1.98-2.51,5.54-4.57,5.18-8.2C553.7,596.3,554.01,581.7,554.14,567.11z"/>
	<path class="st16" d="M724.84,567.1c5.56,0.27,11.12,0.02,16.69,0.17c0.17,11.9,0.16,23.81,0.2,35.72
		c7.76,0.07,15.51,0.25,23.27,0.4c2.32,0,4.64-0.07,6.96-0.13c-0.19-12.06,0.05-24.13-0.53-36.17c5.66,0.35,11.33-0.08,17,0.26
		c0.03,16.73,0.51,33.46,0.31,50.18c-0.65,5.07-0.27,10.19-0.63,15.29c-5.34,0.31-10.71,0.32-15.99-0.57c-0.02-2.5-0.07-5-0.13-7.48
		c-9.9-0.4-19.86-1.26-29.75-0.67l-0.36,0.05c-0.92,2.43-0.81,5.05-0.92,7.61c-5.31,0.28-10.62,0.12-15.93,0.12
		c-0.01-4.94,0.09-9.88-0.19-14.81c-1.72-1.54-3.38-3.14-4.99-4.79c1.67-1.51,3.34-3.02,5.01-4.54
		C725,594.2,724.9,580.65,724.84,567.1z"/>
</g>
<g id="_x23_0a1019ff">
	<path class="st17" d="M656.01,588.82c7.63-0.08,15.26-0.08,22.89-0.18c0,6.47,0.02,12.95-0.02,19.43
		c-7.66-0.08-15.31,0.12-22.96,0.31C655.97,601.86,655.95,595.34,656.01,588.82z"/>
</g>
<g id="_x23_192230ff">
</g>
<g id="_x23_0a1018ff">
	<path class="st18" d="M919.49,601.43c8.39,0.43,16.76,1.25,25.15,1.66c1.34,0.25,2.67,0.55,4.02,0.85
		c-0.16,6.84,0.08,13.68,0.12,20.53c-2.73,3.43-5.6,6.75-8.39,10.14l-0.29,0.35c-6.75-1.2-13.6-1.74-20.36-2.81
		C919.7,621.9,919.54,611.67,919.49,601.43z"/>
</g>
<g id="_x23_aab7c6ff">
	<path class="st19" d="M788.11,632.82c0.36-5.1-0.02-10.22,0.63-15.29c0.57,14.39-0.05,28.81,0.61,43.2
		c-5.15,0.47-10.23-0.54-15.34-0.93c-0.4-0.3-1.21-0.9-1.61-1.2c-0.28-8.78-0.16-17.57-0.28-26.35
		C777.4,633.14,782.77,633.13,788.11,632.82z"/>
	<path class="st19" d="M741.88,624.15l0.36-0.05l0.01,0.27c-0.7,11.3-0.03,22.66-0.26,33.99c-5.67-0.53-11.36-0.57-17.04-0.48
		c0.16-8.67,0.02-17.34,0.08-26c5.31,0,10.62,0.16,15.93-0.12C741.07,629.2,740.96,626.58,741.88,624.15z"/>
	<path class="st19" d="M811.26,625.6c0.16,2.7,0.34,5.42,1.03,8.06c4.95,1.91,10.49,0.86,15.69,1.33c0.01,2.28,0.05,4.55,0.12,6.84
		c6.88,1.08,13.84,1.37,20.74,2.3c2.95,0.51,5.93,0.95,8.94,0.88c0.02-2.42,0.05-4.83,0.1-7.23c5.63,0.49,11.4,0.77,16.91,2.04
		c-0.04,10.71,0.29,21.42,0.09,32.13c-17.49-3.33-35.18-5.51-52.83-7.63c-3.06-0.7-6.2-0.52-9.29-0.85
		c-0.67-1.44-1.47-2.9-1.39-4.53c-0.13-8.01,0.22-16.03-0.27-24.03C810.88,631.8,811.02,628.69,811.26,625.6z"/>
	<path class="st19" d="M654.53,632.52c0.44-0.89,0.88-1.77,1.33-2.64c0.23,9.63,0.02,19.25,0.06,28.88
		c-5.69,0.32-11.34,1.3-17.06,1.08c-0.09-8.96,0.16-17.92,0.16-26.88C644.19,632.93,649.37,632.97,654.53,632.52z"/>
	<path class="st19" d="M576.24,636.1c5.66,0.18,11.3-0.49,16.97-0.38c-0.19,9.38-0.26,18.76-0.2,28.15
		c-5.54,1.16-11.22,1.43-16.82,2.18C576.34,656.07,576.59,646.08,576.24,636.1z"/>
	<path class="st19" d="M895,640.91c11.42-0.3,22.68,2.12,34.02,3.11c14.42,1.98,28.97,3.36,43.22,6.34
		c-2.15,2.3-4.39,4.52-6.61,6.75c4.21,6.47,9.1,12.51,13.18,19.07c0.32,17.54,0.11,35.12,0.1,52.67
		c-6.57-2.57-13.33-4.59-20.02-6.79c-1-0.49-2.8-0.61-2.63-2.14c-0.56-11.95,0.25-23.98-0.52-35.92c-2-4.08-5.09-7.54-7.57-11.34
		c-1.67-2.94-5.36-2.82-8.24-3.51c-4.54-0.55-9.05-2.75-13.65-1.47c-2.14,0.39-4.21-0.59-6.27-0.94
		c-0.02,14.53,0.13,29.07,0.66,43.59c-7.87-1.54-15.61-3.7-23.37-5.73c-0.28-17.58-0.36-35.15-0.57-52.73
		C896.49,648.21,897.61,643.96,895,640.91z"/>
</g>
<g id="_x23_81a4beff">
	<path class="st20" d="M742.24,624.1c9.89-0.59,19.85,0.27,29.75,0.67c0.06,2.48,0.11,4.98,0.13,7.48c0.12,8.78,0,17.57,0.28,26.35
		c0.4,0.3,1.21,0.9,1.61,1.2c-2.85-0.25-6.62,1.03-8.91-0.89c-0.25-11.36-0.02-22.73-0.11-34.09c-7.58-0.01-15.22-0.57-22.74-0.45
		L742.24,624.1z"/>
	<path class="st20" d="M569.64,635.78c2.2,0.02,4.4,0.2,6.6,0.32c0.35,9.98,0.1,19.97-0.05,29.95c-2.29,0.9-4.77,0.88-7.19,0.88
		C569.18,656.55,568.77,646.12,569.64,635.78z"/>
	<path class="st20" d="M499.96,666.71c10.12-2.01,20.32-4.04,30.59-5.11l-0.41,0.98c-7.59,1.8-15.4,2.51-22.99,4.35
		c-0.07,3.51-0.21,7.03-0.34,10.56c-6.31,1.3-12.62,2.58-18.89,4.05c-3.96,0.87-7.99,2.45-12.09,1.37c1.32-1.45,3.51-1.1,5.23-1.68
		c6.28-1.61,12.75-2.5,18.96-4.32C499.97,673.5,500.02,670.1,499.96,666.71z"/>
	<path class="st20" d="M926.28,667.68c4.6-1.28,9.11,0.92,13.65,1.47c2.88,0.69,6.57,0.57,8.24,3.51c2.48,3.8,5.57,7.26,7.57,11.34
		c0.77,11.94-0.04,23.97,0.52,35.92c-0.17,1.53,1.63,1.65,2.63,2.14c6.69,2.2,13.45,4.22,20.02,6.79c0.05,0.6,0.15,1.81,0.2,2.41
		c-10.13-2.74-19.82-7.01-29.97-9.71c-0.45-12.49,0.19-25.01-0.31-37.48c-2.9-4.42-5.87-8.83-9.16-12.95
		C935.43,669.18,930.39,669.85,926.28,667.68z"/>
</g>
<g id="_x23_121b2aff">
</g>
<g id="_x23_7fa4beff">
	<path class="st21" d="M673.69,647.53c8.78-0.51,17.59-0.41,26.39-0.49c0,9.43,0.04,18.87,0.11,28.32
		c18.91,0.33,37.84,0.32,56.73,1.41c38.59,1.91,77.03,6.32,115.16,12.52c0.38,9.92,0.19,19.85,0.54,29.78
		c18.24,4.18,36.37,8.85,54.39,13.95c23.55,7.02,46.66,15.44,69.76,23.82c0-2.88,0.04-5.76,0.09-8.62c3.04,1.75,1.99,5.57,2.39,8.48
		c0.43,0,1.29-0.01,1.71-0.01c-0.25-2.39-0.37-4.79-0.34-7.18c0.91,1.2,1.82,2.43,2.73,3.66c0.77-0.41,1.55-0.8,2.34-1.18
		c0.18,1.8,0.37,3.61,0.57,5.43c0.44-0.06,1.3-0.17,1.74-0.23c0,0.74,0,2.23,0,2.97c0.01,4.26,0,8.52,0,12.79
		c-15.22-5.47-30.37-11.15-45.66-16.43c-32.73-11.97-66.55-20.52-100.45-28.41l-0.63-0.52c-0.05-9.53-0.16-19.06-0.24-28.58
		c-20.52-3.28-41.14-5.85-61.82-7.84c-14.99-1.41-30.03-2.35-45.06-3.27c-22.36-0.82-44.74-1.57-67.12-1.29
		c-24.36,1.03-48.71,2.37-73.01,4.41c-18.35,2.01-36.69,4.16-54.95,6.86c-0.06,9.57-0.13,19.14-0.23,28.72
		c-8.67,1.98-17.36,3.92-26.02,5.97c-10.26,2.42-20.48,4.97-30.62,7.84c-16.19,4.37-32.19,9.45-48.05,14.9
		c-14.05,4.96-28.1,9.95-42.17,14.85c0-17.66-0.06-35.33,0.03-52.99c4.9,0.54,6.68-5.01,11.2-5.75c0.07,14.27-0.04,28.54-0.03,42.82
		c20.19-7.05,40.29-14.39,60.83-20.39c20.96-6.34,42.25-11.49,63.61-16.29c0.16-9.65,0.23-19.31,0.34-28.95
		c15.61-2.67,31.26-5.15,47.01-6.81c26.09-3.34,52.39-4.44,78.63-5.97C673.49,666.39,673.76,656.96,673.69,647.53z"/>
</g>
<g id="_x23_a9b7c6ff">
	<path class="st22" d="M443.95,651.69c9-1.78,18.08-3.27,27.22-4.07c-0.06,12.01-0.22,24.02-0.19,36.04
		c1.58-0.41,3.19-1.04,4.85-0.75c4.1,1.08,8.13-0.5,12.09-1.37c6.27-1.47,12.58-2.75,18.89-4.05c0.13-3.53,0.27-7.05,0.34-10.56
		c7.59-1.84,15.4-2.55,22.99-4.35c-0.19,13.63-0.01,27.27-0.29,40.9c-27.51,5.89-54.45,14.14-81.2,22.78
		c-1.02-6.1-0.31-12.28-0.48-18.41c-0.16-16.32,0.05-32.65-0.02-48.96C448.37,655.81,445.66,653.85,443.95,651.69z"/>
</g>
<g id="_x23_0c131eff">
</g>
<g id="_x23_1e293aff">
</g>
<g id="_x23_172234ff">
</g>
<g id="_x23_131b27ff">
</g>
<g id="_x23_121e2fff">
</g>
<g id="_x23_0a121eff">
</g>
<g id="_x23_0a121cff">
</g>
</svg>
