<?xml version="1.0" encoding="utf-8"?>
<!-- Generator: Adobe Illustrator 21.0.0, SVG Export Plug-In . SVG Version: 6.00 Build 0)  -->
<svg version="1.1" id="Layer_1" xmlns="http://www.w3.org/2000/svg" xmlns:xlink="http://www.w3.org/1999/xlink" x="0px" y="0px"
	 viewBox="0 0 198.9 158.9" style="enable-background:new 0 0 198.9 158.9;" xml:space="preserve">
<style type="text/css">
	.st0{fill:#0C6CAF;}
	.st1{fill:#B6B8BA;}
	.st2{fill:#616264;}
	.st3{fill:#FCBE82;}
	.st4{fill:#80583D;}
	.st5{fill:#F9AC7C;}
	.st6{fill:#FFFFFF;}
	.st7{fill:#002A52;}
	.st8{fill:#383839;}
	.st9{clip-path:url(#SVGID_2_);}
	.st10{fill:#BCBEC0;}
	.st11{clip-path:url(#SVGID_4_);}
	.st12{clip-path:url(#SVGID_6_);}
</style>
<g>
	<g>
		<path d="M193.5,64.9c-13.8-33.3-37.7-40.6-43.1-39.9c-2.1,0.3-7.7,2.9-14.3,6.1c-4.1-5-9.4-12-11.7-17.7
			C121.5,6.5,117.9,3,113.6,3c-0.3,0-0.6,0-0.9,0.1c-1.1,0-2.4,0.3-13.4,7c-4.9-4.9-9.6-6-12.9-6c-2.1,0-3.4,0.5-3.8,0.6
			c-0.2,0.1-0.4,0.2-0.5,0.3c-1.5,0.7-2.6,1.9-3.2,3c-6.7,7.2-11.9,16-15.6,23.2c-6.8-3.3-12.6-6.1-14.7-6.3
			c-5.3-0.6-29.2,6.6-43.1,39.9c-13.8,33.3,34.9,41.5,34.9,41.5l10.6,4.9H14.4l12,9.1l4.6,30.5l6.6,4.4c0,0,12.6-3.7,32.4-6.3l7.6,7
			h44.2l7.5-6.9c19.2,2.6,31.4,6.2,31.4,6.2l6.6-4.4l4.6-30.5l12-9.1h-35.6l10.4-4.8C158.6,106.4,207.3,98.2,193.5,64.9z M113.6,6.8
			c0.1,0,0.1,0,0.2,0C113.7,6.8,113.6,6.8,113.6,6.8C113.6,6.8,113.6,6.8,113.6,6.8z M112.9,6.8C112.9,6.8,112.9,6.8,112.9,6.8
			C112.9,6.8,112.9,6.8,112.9,6.8C112.9,6.8,112.9,6.8,112.9,6.8z M110.9,7.7c-0.2,0.1-0.4,0.2-0.7,0.4
			C110.5,7.9,110.7,7.8,110.9,7.7z M86.5,7.8c0,0,0.1,0,0.1,0C86.6,7.8,86.5,7.8,86.5,7.8C86.4,7.8,86.5,7.8,86.5,7.8z"/>
		<path class="st0" d="M113.6,3c4.3,0,7.9,3.5,10.7,10.3c2.4,5.7,7.6,12.7,11.7,17.7c6.6-3.2,12.2-5.9,14.3-6.1c0.2,0,0.4,0,0.7,0
			c6.5,0,29.1,7.9,42.4,40c13.8,33.3-34.9,41.5-34.9,41.5l-10.4,4.8h35.6l-12,9.1l-4.6,30.5l-6.6,4.4c0,0-12.1-3.6-31.4-6.2
			l-7.5,6.9H77.6l-7.6-7c-19.9,2.6-32.4,6.3-32.4,6.3l-6.6-4.4l-4.6-30.5l-12-9.1h36.5l-10.6-4.9c0,0-48.7-8.2-34.9-41.5
			c13.3-32.1,35.9-40,42.4-40c0.3,0,0.5,0,0.7,0c2.2,0.3,7.9,3,14.7,6.3c3.7-7.2,8.9-16,15.6-23.2c0.6-1.2,1.7-2.4,3.2-3
			c0.2-0.1,0.3-0.2,0.5-0.3C83.1,4.5,84.4,4,86.5,4c3.3,0,8,1.1,12.9,6c10.9-6.7,12.2-7,13.4-7C113,3,113.3,3,113.6,3 M113.8,6.8
			c-0.1,0-0.1,0-0.2,0c0,0,0,0,0,0C113.6,6.8,113.7,6.8,113.8,6.8 M112.9,6.8C112.9,6.8,112.9,6.8,112.9,6.8
			C112.9,6.8,112.9,6.8,112.9,6.8C112.9,6.8,112.9,6.8,112.9,6.8 M110.2,8.1c0.3-0.1,0.5-0.3,0.7-0.4C110.7,7.8,110.5,7.9,110.2,8.1
			 M86.4,7.8c0.1,0,0.1,0,0.2,0c0,0,0,0,0.1,0C86.6,7.8,86.5,7.8,86.4,7.8C86.5,7.8,86.4,7.8,86.4,7.8 M113.6,0
			c-0.4,0-0.7,0-1.1,0.1c-1.7,0-3.2,0.5-12.8,6.3C94.7,2,89.8,1,86.5,1c-2.5,0-4.2,0.6-4.8,0.8c-0.3,0.1-0.5,0.2-0.8,0.4
			C79,3,77.5,4.4,76.5,6.1c-5.1,5.5-9.8,12.4-14.5,21c-6.7-3.2-10.8-5.1-13.1-5.3c-0.3,0-0.7-0.1-1-0.1c-9.1,0-32,10.2-45.2,41.8
			c-3.7,9-3.6,17.1,0.3,24.3C9.9,100.3,26.6,106,35,108.1H14.4H5.5l7.1,5.4l11,8.4l4.4,29.3l0.2,1.3l1.1,0.7l6.6,4.4l1.2,0.8
			l1.3-0.4c0.1,0,12-3.5,30.6-6l6.6,6.1l0.9,0.8h1.2h44.2h1.2l0.9-0.8l6.5-5.9c18,2.5,29.4,5.8,29.5,5.9l1.3,0.4l1.2-0.8l6.6-4.4
			l1.1-0.7l0.2-1.3l4.4-29.3l11-8.4l7.1-5.4h-8.9h-19.4c8.5-2.2,24.8-7.9,31.5-20.2c4-7.1,4.1-15.3,0.3-24.3
			c-13.1-31.6-36.1-41.8-45.2-41.8c-0.4,0-0.7,0-1,0.1c-2.3,0.3-6.6,2.2-13.2,5.4c-3.7-4.6-7.9-10.4-9.8-15.1
			C123.7,4.1,119.2,0,113.6,0L113.6,0z"/>
	</g>
	<g>
		<path class="st0" d="M113.6,3c4.3,0,7.9,3.5,10.7,10.3c2.4,5.7,7.6,12.7,11.7,17.7c6.6-3.2,12.2-5.9,14.3-6.1c0.2,0,0.4,0,0.7,0
			c6.5,0,29.1,7.9,42.4,40c13.8,33.3-34.9,41.5-34.9,41.5l-10.4,4.8h35.6l-12,9.1l-4.6,30.5l-6.6,4.4c0,0-12.1-3.6-31.4-6.2
			l-7.5,6.9H77.6l-7.6-7c-19.9,2.6-32.4,6.3-32.4,6.3l-6.6-4.4l-4.6-30.5l-12-9.1h36.5l-10.6-4.9c0,0-48.7-8.2-34.9-41.5
			c13.3-32.1,35.9-40,42.4-40c0.3,0,0.5,0,0.7,0c2.2,0.3,7.9,3,14.7,6.3c3.7-7.2,8.9-16,15.6-23.2c0.6-1.2,1.7-2.4,3.2-3
			c0.2-0.1,0.3-0.2,0.5-0.3C83.1,4.5,84.4,4,86.5,4c3.3,0,8,1.1,12.9,6c10.9-6.7,12.2-7,13.4-7C113,3,113.3,3,113.6,3 M113.8,6.8
			c-0.1,0-0.1,0-0.2,0c0,0,0,0,0,0C113.6,6.8,113.7,6.8,113.8,6.8 M112.9,6.8C112.9,6.8,112.9,6.8,112.9,6.8
			C112.9,6.8,112.9,6.8,112.9,6.8C112.9,6.8,112.9,6.8,112.9,6.8 M110.2,8.1c0.3-0.1,0.5-0.3,0.7-0.4C110.7,7.8,110.5,7.9,110.2,8.1
			 M86.4,7.8c0.1,0,0.1,0,0.2,0c0,0,0,0,0.1,0C86.6,7.8,86.5,7.8,86.4,7.8C86.5,7.8,86.4,7.8,86.4,7.8 M113.6,1.6
			c-0.3,0-0.6,0-1,0.1c-1.4,0-2.9,0.5-13.1,6.6c-5-4.7-9.9-5.7-13.1-5.7c-2.2,0-3.7,0.5-4.3,0.7c-0.2,0.1-0.4,0.2-0.7,0.3
			c-2.1,0.9-3.2,2.5-3.8,3.5c-5.3,5.7-10.3,13-15.1,22.2c-7.2-3.5-11.8-5.6-14-5.9c-0.3,0-0.6,0-0.9,0c-3.1,0-10.6,1.7-19.5,8.2
			c-7,5.2-16.9,15-24.2,32.6c-3.5,8.5-3.4,16.2,0.3,22.9c3.7,6.7,10.9,12.2,21.3,16.3c7,2.8,13.1,4,14.2,4.2l4.5,2.1H14.4h-4.2
			l3.3,2.5l11.5,8.8l4.5,29.9l0.1,0.6l0.5,0.3l6.6,4.4l0.6,0.4l0.6-0.2c0.1,0,12.4-3.6,31.6-6.2l7.2,6.6l0.4,0.4h0.6h44.2h0.6
			l0.4-0.4l7-6.4c18.5,2.5,30.4,6,30.5,6l0.6,0.2l0.6-0.4l6.6-4.4l0.5-0.3l0.1-0.6l4.5-29.9l11.5-8.8l3.3-2.5h-4.2h-29.1l4.3-2
			c1.2-0.2,7.2-1.4,14.2-4.2c10.4-4.1,17.6-9.6,21.3-16.3c3.7-6.7,3.8-14.4,0.3-22.9c-7.3-17.6-17.2-27.4-24.2-32.6
			c-8.8-6.5-16.4-8.2-19.5-8.2c-0.3,0-0.6,0-0.9,0c-2.2,0.3-6.7,2.3-13.8,5.8c-3.9-4.8-8.7-11.3-10.8-16.5
			C122.6,5.4,118.5,1.6,113.6,1.6L113.6,1.6z"/>
		<path class="st0" d="M122.9,158.8H76.5l-7.5-6.9c-18.7,2.5-30.5,6-30.6,6l-1.3,0.4l-8.8-5.9l-4.6-30.6L5.8,108.2h29.9
			c-2.7-0.7-6.5-1.8-10.5-3.4c-10.7-4.3-18.2-10-22-17c-3.9-7.1-4.1-15.3-0.3-24.2c7.4-17.9,17.5-28,24.7-33.2
			c9.1-6.7,17.1-8.5,20.4-8.5c0.4,0,0.7,0,1,0.1c2.3,0.3,6.6,2.2,13.1,5.4c4.7-8.7,9.4-15.6,14.5-21.1c0.6-1.1,2-2.9,4.3-3.9
			c0.3-0.1,0.5-0.3,0.8-0.4c0.6-0.2,2.3-0.8,4.8-0.8c3.3,0,8.1,0.9,13.2,5.3c9.2-5.6,11-6.2,12.8-6.3c0.4,0,0.7-0.1,1.1-0.1
			c5.6,0,10.1,4.1,13.4,12.1c2,4.8,6.3,10.8,9.9,15.2c7.5-3.6,11-5.1,13.2-5.4c0.3,0,0.7-0.1,1-0.1c3.3,0,11.2,1.8,20.4,8.5
			c7.2,5.3,17.3,15.4,24.7,33.2c3.7,8.9,3.6,17.1-0.3,24.2c-3.9,7-11.3,12.7-22,17c-3.9,1.5-7.5,2.6-10.1,3.3h28.7l-17.9,13.6
			l-4.6,30.6l-8.8,5.9l-1.3-0.4c-0.1,0-11.7-3.4-29.6-5.9L122.9,158.8z M78.2,154.4h43l7.6-7l0.7,0.1c16.6,2.2,28.1,5.2,30.9,6
			l5.5-3.7l4.6-30.4l8.9-6.8h-38l16.7-7.7l0.2,0c0.3,0,25.6-4.5,33.6-19.1c3.3-5.9,3.3-12.7,0.1-20.4c-13.3-32.1-36.1-39.1-41-39.1
			c-0.2,0-0.4,0-0.5,0c-1.9,0.2-8.3,3.3-13.9,6l-1.1,0.5l-0.7-0.9c-4.1-5-9.5-12.2-12-18.1c-2.6-6.2-5.7-9.4-9.3-9.4
			c-0.2,0-0.5,0-0.7,0l-0.2,0c-0.8,0-2.3,0.5-12.6,6.8l-1,0.6l-0.8-0.8C90.7,3.5,83.8,5.8,83.2,6c-0.1,0-0.2,0.1-0.3,0.2l-0.2,0.1
			c-1.4,0.6-2.2,1.7-2.5,2.4l-0.1,0.2L80,8.9c-5.4,5.8-10.4,13.3-15.4,22.9L64,33.1l-1.3-0.6c-6.1-2.9-12.3-6-14.3-6.2
			c-0.1,0-0.3,0-0.5,0c-4.9,0-27.7,6.9-41,39.1C3.7,73,3.7,79.8,7,85.7c8.1,14.6,33.4,19,33.6,19.1l0.2,0l16.9,7.8H18.9l8.9,6.8
			l4.6,30.4l5.5,3.7c2.9-0.8,14.8-3.9,32-6.2l0.7-0.1L78.2,154.4z M110.9,9.4l-1.4-2.6c0.3-0.1,0.5-0.3,0.7-0.4l0,0c0,0,0,0,0,0
			l1.4,2.7L110.9,9.4z M86.4,9.3l-0.1-3l0.1,1.5l0-1.5l0.1,0l0.2,0l0,3l0-1.5l0,1.5L86.4,9.3z M86.6,7.8l0,1.5L86.6,7.8z M112.9,8.3
			l0-0.5L112.9,8.3l0-1.1l-0.2,1.1l0.2-1.4l-0.3,1.4l0.3-1.4V5.3l0.3,0l-0.3,1.8L112.9,8.3z M113.7,8.3l-0.1,0v-3c0.1,0,0.2,0,0.3,0
			c0,0,0,0,0,0L113.7,8.3z"/>
	</g>
</g>
<g>
	<path d="M120.8,14.8c-3.2-7.7-6.3-8.2-7.9-7.9c-0.2-0.1-2.3,0.7-14.3,8.1C91,5.5,84,8.2,84,8.2s0,0,0,0.1c-1.5,0.3-1.9,1.8-1.9,1.8
		c-13.2,13.8-20.8,35.2-22,35.8c0,0,5,26.4,7.2,27.4c2.2,0.9,6.6-0.6,11.6-2.5c5-1.9,21.4-6.3,29.6-9.4c8.2-3.1,30.2-21.4,30.2-21.4
		S125.2,25.5,120.8,14.8z"/>
	<path d="M113.5,6.8c1.7,0,4.4,1.2,7.2,8c4.4,10.7,17.9,25.2,17.9,25.2s-22,18.2-30.2,21.4c-8.2,3.1-24.5,7.5-29.6,9.4
		c-4,1.5-7.6,2.8-10,2.8c-0.6,0-1.2-0.1-1.6-0.3c-2.2-0.9-7.2-27.4-7.2-27.4c1.3-0.6,8.8-22,22-35.8c0,0,0.5-1.5,1.9-1.8
		c0,0,0-0.1,0-0.1s0.9-0.3,2.4-0.3c2.7,0,7.3,1.1,12.2,7.1c11.3-6.9,13.8-8.1,14.2-8.1c0,0,0,0,0.1,0C113.1,6.8,113.3,6.8,113.5,6.8
		 M113.5,3.2c-0.3,0-0.6,0-0.9,0.1c-1.1,0-2.4,0.3-13.4,7c-4.9-5-9.6-6.1-12.9-6.1c-2,0-3.3,0.4-3.7,0.6c-0.2,0.1-0.4,0.2-0.5,0.2
		c-1.5,0.6-2.6,1.8-3.1,3c-9.7,10.4-16.3,24.2-19.8,31.7c-0.7,1.5-1.5,3.1-1.8,3.7c-0.8,0.8-1.1,2-0.9,3.1c5.4,28.3,7.6,29.2,9.3,30
		c0.9,0.4,1.9,0.6,3,0.6c3,0,6.5-1.3,11.3-3c2-0.8,6.3-2,10.8-3.4c6.5-2,13.9-4.2,18.8-6c8.5-3.3,28.9-20.1,31.2-22
		c0.8-0.6,1.2-1.5,1.3-2.5c0.1-1-0.3-1.9-1-2.7c-0.1-0.1-13.1-14.1-17.2-24.1C121.3,6.7,117.7,3.2,113.5,3.2L113.5,3.2z"/>
</g>
<path class="st1" d="M83.7,8.2c0,0,7.4-2.8,15.3,7.7c7.9,10.5-3.3,7-3.7,7.1c-0.4,0.1-8.6-0.2-9.3-2.8C85.3,17.5,83.7,8.2,83.7,8.2z
	"/>
<path class="st1" d="M112.5,7.1c0,0,2.9-2.8-17.9,10.1c-20.9,13,0.5,9.1,0.5,9.1s13.4,1.7,16.5-0.7c3.1-2.4,3.4-4.4,3.4-6.5
	C114.9,17,112.5,7.1,112.5,7.1z"/>
<path class="st2" d="M59.8,45.9c1.3-0.6,8.8-22,22-35.9c0,0,2.2-6.9,12,5.7c9.7,12.6,17.9-8.5,17.9-8.5s4.4-3.1,8.8,7.5
	c4.4,10.7,17.9,25.2,17.9,25.2s-22,18.2-30.2,21.4c-8.2,3.1-24.5,7.5-29.6,9.4c-5,1.9-9.4,3.5-11.6,2.5
	C64.8,72.3,59.8,45.9,59.8,45.9z"/>
<g>
	<path class="st1" d="M69.2,42.1c0,0,31.9-8.7,68.3,0c36.4,8.7-12.2,6.1-12.2,6.1l-8.5-4.5c0,0-22.4-1.4-35.4,1.7
		C68.4,48.5,69.2,42.1,69.2,42.1z"/>
	<path d="M103.6,38.2c10.1,0,21.7,1,33.9,3.9c22.8,5.5,12.2,6.5,1.1,6.5c-6.6,0-13.3-0.4-13.3-0.4l-8.5-4.5c0,0-5.2-0.3-12-0.3
		c-7.4,0-16.7,0.4-23.4,2c-2.5,0.6-4.5,0.8-6.1,0.8c-6.6,0-6.1-4.1-6.1-4.1S83.3,38.2,103.6,38.2 M103.6,35.4
		c-20.4,0-34.6,3.8-35.1,4c-1.1,0.3-1.9,1.3-2.1,2.4c-0.1,0.4-0.2,2.7,1.6,4.6c1.6,1.8,4,2.7,7.4,2.7c1.9,0,4.2-0.3,6.8-0.9
		c5.3-1.2,13.1-1.9,22.8-1.9c5.3,0,9.7,0.2,11.2,0.3l7.9,4.2c0.4,0.2,0.8,0.3,1.2,0.3c0.1,0,6.9,0.4,13.5,0.4c3.7,0,6.6-0.1,8.7-0.3
		c2.3-0.2,6.1-0.6,6.4-3.7c0.4-3-3.1-4.3-4.7-4.9c-2.4-0.9-6-1.9-10.9-3.1C127.2,36.7,115.5,35.4,103.6,35.4L103.6,35.4z"/>
</g>
<path d="M193.4,64.9c-13.8-33.3-37.7-40.6-43.1-39.9c-5.3,0.6-31.2,15.8-43.1,17.8c-0.4-0.1-0.7-0.1-1.1,0c-3.3,0.5-5.6,0.8-7.4,0.8
	c-1.5-0.1-3.4-0.3-5.7-0.7c-0.2-0.1-0.5-0.1-0.8-0.1c-11.6-1.6-38.4-17.3-43.7-17.9c-5.3-0.6-29.2,6.6-43.1,39.9
	c-13.8,33.3,34.9,41.5,34.9,41.5l45,20.8L99.4,113l14.2,14.2l45-20.8C158.5,106.4,207.3,98.2,193.4,64.9z"/>
<path class="st2" d="M58.2,104.4c0,0-18.6,1.3-32.7-6.9C11.3,89.3-8.2,72.6,39.3,32.4c0,0,4.4-2.1,8.2-2.2c8.2-0.6,28.3,28,51.9,28
	c0,0,6,2.5,6.9,4.4c0.9,1.9,1.3,5.7-4.1,6.3c-5.3,0.6-27.7,0.3-41.8-11.3c0,0-9.1-0.3-13.2,4.7c0,0,7.2-4.4,12.9-1.9
	c0,0,6.3,22.3,3.8,31.8C61.3,101.6,58.2,104.4,58.2,104.4z"/>
<path d="M60,57.6c0,0,5.4,0.2,9,0.5c3.5,0.2,28.3,9,57.1,0.9c28.8-8-20.5,9.9-20.5,9.9l-11.3,1.2l-15.1-1.9L65,61.4L60,57.6z"/>
<g>
	<path class="st3" d="M114.8,63.1c-3.3,1.2-5.8,1.1-6.3,1.2c-0.5,0.1-7,0.5-15.6,0.5c-8.6,0-24.4-3.4-24.4-3.4L67.3,65
		c-1.4-0.8-2.4-1.4-2.4-1.4s-0.3,1.1-0.7,2.8c0.1-1.2,0.2-2.5-0.1-2.9c-0.6-0.7-1.6-3.9-4-3.1c-2.4,0.7-2.7,9.9-1.1,13.4
		c1.5,3.4,1.3,3.4,1.3,4c0,0.4,0.5,1.1,1.1,1.1c0.4-0.2,0.9-0.6,1.6-1.3c0,0-0.4,3.8-0.6,9.8c-0.1,6,3-0.7,3-0.7s14.2-5.3,14.5-5.3
		c0.3,0,7.6-4.2,7.5-4.2c0,0-0.3-0.2-0.7-0.5c2.1-0.5,4.1-1,5.8-1.4l3.2,1.2l10.8-1.9c0,0,0.9-3.1,2-3.7c1.1-0.6,2.1-3.3,5.2-3.7
		C116.7,66.9,118.1,62,114.8,63.1z M72.2,67.3c-0.5-0.2-1-0.4-1.5-0.6L72.2,67.3z"/>
	<path d="M60.8,60.3c1.9,0,2.8,2.6,3.3,3.2c0.3,0.4,0.3,1.7,0.1,2.9c0.4-1.7,0.7-2.8,0.7-2.8s1,0.6,2.4,1.4l1.3-3.7
		c0,0,15.8,3.4,24.4,3.4c8.6,0,15.1-0.4,15.6-0.5c0.5-0.1,2.9,0,6.3-1.2c0.3-0.1,0.6-0.2,0.9-0.2c2.1,0,0.7,4-2.1,4.3
		c-3.1,0.4-4.1,3.1-5.2,3.7c-1.1,0.6-2,3.7-2,3.7l-10.8,1.9l-3.2-1.2c-1.7,0.4-3.7,0.9-5.8,1.4c0.4,0.3,0.7,0.5,0.7,0.5
		c0.1,0-7.2,4.2-7.5,4.2c-0.3,0-14.5,5.3-14.5,5.3s-1.5,3.2-2.4,3.2c-0.4,0-0.7-0.6-0.6-2.5c0.1-6,0.6-9.8,0.6-9.8
		c-0.7,0.7-1.2,1.1-1.6,1.3c0,0,0,0,0,0c-0.5,0-1.1-0.7-1.1-1.1c0-0.6,0.2-0.6-1.3-4c-1.5-3.4-1.3-12.6,1.1-13.4
		C60.3,60.3,60.6,60.3,60.8,60.3 M72.2,67.3l-1.5-0.6C71.3,67,71.8,67.2,72.2,67.3 M60.8,57.9L60.8,57.9c-0.5,0-0.9,0.1-1.4,0.2
		c-1.1,0.3-2,1.2-2.6,2.6c-1.5,3.4-1.5,10.6,0,14c0.9,1.9,1.1,2.5,1.1,2.7c0,0.1,0,0.2,0,0.3c0,1.4,1,2.7,2.4,3.2
		c-0.1,1.6-0.2,3.8-0.3,6.3c0,2.1,0.3,3.3,1,4.1c0.5,0.5,1.2,0.8,2,0.8c0.7,0,2.2,0,4.1-3.7c5-1.9,12.3-4.6,13.3-4.9
		c0.4-0.1,1.1-0.4,4.5-2.3c0.9-0.5,1.9-1,2.5-1.4c0.9-0.5,1.5-0.9,1.9-1.4c1.1-0.3,2-0.5,3-0.7l2.5,1c0.3,0.1,0.6,0.2,0.9,0.2
		c0.1,0,0.3,0,0.4,0l10.8-1.9c0.9-0.2,1.6-0.8,1.9-1.6c0.3-0.9,0.8-2,1.1-2.4c0.6-0.4,1.1-0.9,1.5-1.5c0.9-1,1.5-1.7,2.6-1.8
		c3.1-0.4,5.3-3.4,5.2-5.9c-0.1-1.9-1.5-3.2-3.4-3.2c-0.5,0-1.1,0.1-1.7,0.3c-2.2,0.8-4,0.9-5,1c-0.4,0-0.7,0-0.9,0.1
		c-0.9,0.1-6.9,0.4-15.1,0.4c-8.3,0-23.8-3.3-23.9-3.4c-0.2,0-0.3-0.1-0.5-0.1c-1,0-1.9,0.6-2.2,1.6L66,61.5
		c-0.1-0.1-0.3-0.1-0.5-0.2C64.8,60,63.4,57.9,60.8,57.9L60.8,57.9z"/>
</g>
<path d="M63.9,62.3l-0.4,7.4c0,0,1.1,2.7,1.5,2.7c0.4,0,0.4,0,0.4,0L68,63L63.9,62.3z"/>
<path class="st4" d="M81.5,63.7c-0.6-0.1-1.5-0.2-1.9-0.2l-0.8,2.4v1l-4.8,8.8l-1.4,0.8l-1.6,1.1l-0.5,0.9l4.2-1.8l0.7-0.7l4.8-8.4
	l0.5-0.6L80.5,66c0,0,0.5-1.4,0.6-1.7C81.2,64.3,81.3,64,81.5,63.7z"/>
<path class="st5" d="M116.3,64.7c0,0-0.5,1.1-1.7,1.7c-1.2,0.5,1.1-3.2,1.2-3.2c0,0-0.4-0.1-0.4-0.1s-0.1,0,1-0.2
	c1.1-0.1,1.1,1.9,1,2.7c-0.2,0.8-0.6,1.4-0.7,1.7c-0.1,0.3-0.3,0.5-0.8,0.7c-0.5,0.3-1.5,0.8-2,0.8c-0.5,0-1.5,0.4-2,0.4
	c-0.4,0.1,0,0.1-0.7,0.1c-0.7,0-0.9,0.1-1-0.1c-0.1-0.2-1-1.1,0-1.7c1-0.6,1.9-1,2.3-1.3c0.4-0.3,0.7-0.8,1.1-1.2"/>
<path d="M114.1,64.2"/>
<path class="st6" d="M123.5,66.9c0.2,0,1.1,6,1.1,6l-1.8,1.6l-4.1,0.7l-6.4-0.4l-4.1-1.3l-0.7-1.3l11.6-5L123.5,66.9z"/>
<path d="M29.1,100.3c0,0,25.9,8,27.7-0.5c1.7-8.5-8-10.8-3.9-14.8c4.1-3.9-7.7-5-10.7-9.9c-3-4.9,1.7-15.1,11.3-15.7
	c9.6-0.6,5.2,0,5.2,0s-2,8.3-1.7,9.9c0.3,1.6,3.9,10.7,3.9,10.7s-0.2,3.1-0.5,4.2c-0.3,1.1-1.7,6.9-1.6,7.9c0.2,0.9,0.5,2.5,0.9,3
	c0.5,0.5,2.4,3.5,2.4,4.2c0,0.8,0.2,5.8-0.3,6.4c-0.5,0.6-14.5-0.3-17.3-0.6C41.7,104.9,29.1,100.3,29.1,100.3z"/>
<path d="M135.8,85.7c0,0,1.6,2.5,0.9,3.4c-0.7,0.9-1.3,2.1-1.3,2.1s-5.7-3.7-6-3.9c-0.4-0.2-1.5-0.5-2.8-1.2
	c-1.3-0.7-0.5-0.7-1.3-0.7c-0.8,0-1.3,0-1.3,0s3.2,1.8,4,2.2c0.8,0.5,0.6,0.7,2.9,2.2c2.4,1.5,4,2.1,4.5,2.6c0.5,0.5,0.5,0,0.6,1.1
	c0.1,1.1,0.9,1.2,0.4,2.2c-0.6,1.1-0.6,1.1-0.6,1.1s-4.5-2.6-6.3-3.5c-1.8-0.9-9.8-5.4-12.6-6.6c-2.8-1.2-4.4-0.8-5.2-1.8
	c-0.8-0.9-0.8-0.9-0.8-0.9l-2-0.6c0,0-1.1-0.2-0.6,0.4c0.5,0.6-1.1-0.1,2.1,2c3.2,2.1,5.1,2.8,7.9,4.4c2.8,1.5,3.3,2,4,2.6
	c0.7,0.6,0.9,0.6,1.2,0.9c0.2,0.4,8,4.5,9.1,5.1c1.1,0.6,1.3,0.9,1.3,2.1c0,1.2,0.6,3.1,0.2,3.9c-0.4,0.8,0.7,1.3-1.7,0.8
	c-2.4-0.5-3.8,0-3.8,0l1.4,2c0,0,0.2,0.8,0,1.5c-0.2,0.7-7.2-1.3-8.6-2.8c-1.4-1.5-2.4-3.9-4.1-5.2c-1.8-1.3-4.8-2.1-5.9-2.6
	c-1.1-0.5-1.7-0.4-1.4,0.1c0.2,0.5,2.2,0.8,4.5,2.9c2.2,2.1,4.7,4.7,5.3,5.1c0.6,0.4,2.2,2.5,2.6,2.8c0.4,0.4,10.5,2.9,10.7,2.4
	c0.2-0.6,4.9-2.1,6.1-5.9c1.2-3.8,4.4-10.5,4.4-12.9c0-2.4-5-6.3-5-6.3L135.8,85.7z"/>
<path class="st0" d="M76.7,109.4c0,0,8.2-5,9.7-6.1c1.6-1.1,1.7,0.2,0.8,2c-0.9,1.9-2.4,4.2-2.4,4.2s-2.4-0.6-3.9-0.2
	C79.4,109.9,76.7,109.4,76.7,109.4z"/>
<path class="st4" d="M87.9,64.5c0,0,2.3,0.7,11.6,0.7c0,0,4.9-0.2,3.3,3.1c-1.6,3.3-1.3,3.9-1,4.3c0.2,0.4,3,0.1,3,0.1
	s12-4.2,12.4-4.4c0.5-0.2-0.6-1.2-0.6-1.2s3-3.3-0.3-4.5C113.1,61.5,116.8,65.5,87.9,64.5z"/>
<path d="M107,74.2c0,0,0.1-0.1,0.3-0.3c1.1,0.3,2.9,0.8,5.2,1.1c4,0.6,8.2,1.6,11.9-0.2c3.8-1.9,0.3-7.3,0.9-7.3
	c0.4,0,1.1,0,1.5-0.1c0.6,0.1,1.3,0.4,2.1,0.7c2.5,1.1-4.2-4.5-10.5-1.8c-6.3,2.6-13.7,3.4-13.7,3.4l-0.9,2.1L107,74.2z M108.4,73.2
	c2.3-1.5,7.1-4.2,14-5.5c1,1.6,2.9,5.1,0.4,6.2C116.4,76,110.1,73.9,108.4,73.2z"/>
<path class="st7" d="M96.3,93.2c0,0,1.4,1.7,0.1,2.9c-1.3,1.3-5.4,12.3-5.8,13.1c-0.4,0.8-1.9,1.9-2.6,1.9c-0.7,0-2.9-0.6-2.9-0.6
	s4.2-6.6,5.1-8.7C91,99.7,96.3,93.2,96.3,93.2z"/>
<path d="M132.4,30.8l1.1-0.6c-2.1-3.1-5.2-7.9-6.1-8.9c-1.3-1.6-9.1-11.3-9.1-11.3s-3.6-5.1-5.7-2.6c-2,2.6,2.2,12.5,2,14.2
	c-0.2,1.7,3.8,5-6,5.7c-9.7,0.6-8.3,4.7-3.6,5.3c3.2,0.4,13.1,1.5,19.2,2.1c1.1,0.4,2.6,1,3.2,1.6c1,0.9,6.5-3.1,6.5-3.4
	C134.1,32.9,133.2,31.8,132.4,30.8z"/>
<path d="M63.5,60.1L57,59.8c0,0-2.7,6.5-2.7,8.1c0,1.6,7,12.1,7,12.1l1.3-1.6c0,0,1.5-7.7,2.1-7.9c0.6-0.2,0.7-8.3,0.7-8.3
	L63.5,60.1z"/>
<path class="st1" d="M60,75.9c0,0-2.5,1.3-0.9,3.1c1.6,1.9,2,0.1,2.2-0.4c0.2-0.5-0.5,2.7-2.4,1.8c-1.9-0.9-2.4-2-1.6-3.5
	c0.9-1.5,1.7-1.3,1.7-1.3L60,75.9z"/>
<path class="st1" d="M57.2,74.5c0,0-2.1-0.4-2,1.4c0.1,1.8,1.1,0.9,1.5,0.8c0.4-0.2-1.5,1.4-2.2,0c-0.7-1.4-0.5-2.3,0.7-2.8
	c1.2-0.5,1.5,0,1.5,0L57.2,74.5z"/>
<path class="st8" d="M138.7,76.1c0,0,2.5,1.3,0.9,3.1c-1.6,1.9-2,0.1-2.2-0.4c-0.2-0.5,0.5,2.7,2.4,1.8c1.9-0.9,2.4-2,1.6-3.5
	c-0.9-1.5-1.7-1.3-1.7-1.3L138.7,76.1z"/>
<path class="st4" d="M77.6,64.3c-0.4,0-1-0.1-1.3-0.2l-0.5,1.6v0.7l-3.3,6.1l-0.9,0.6l-1.1,0.8l-0.3,0.6l2.8-1.3l0.5-0.5l3.2-5.8
	l0.3-0.4l-0.1-0.6c0,0,0.4-1,0.4-1.2C77.4,64.7,77.5,64.5,77.6,64.3z"/>
<path class="st6" d="M74.3,67.2c-0.2,0-1.1,6-1.1,6l1.8,1.6l4.1,0.7l6.4-0.4l4.1-1.3l0.7-1.3l-11.6-5L74.3,67.2z"/>
<path d="M93.9,72l-0.9-2.1c0,0-7.4-0.8-13.7-3.4c-6.3-2.6-13,2.9-10.5,1.8c0.9-0.4,1.6-0.6,2.1-0.7c0.5,0,1.1,0.1,1.5,0.1
	c0.6,0-2.9,5.4,0.9,7.3c3.8,1.9,8,0.8,11.9,0.2c2.4-0.3,4.2-0.8,5.2-1.1c0.2,0.2,0.3,0.3,0.3,0.3L93.9,72z M75,74.1
	c-2.5-1.1-0.6-4.6,0.4-6.2c6.9,1.3,11.7,4,14,5.5C87.7,74.1,81.4,76.2,75,74.1z"/>
<g>
	<path class="st0" d="M136.3,87.1c-10.6-6.3-21.2-9.9-28.2-11.8c-2.3-0.4-4.1-0.6-5.1-0.8c-2.1-0.4-3.1-0.5-3.6-0.5c0,0-0.1,0-0.1,0
		c-0.1,0-0.1,0-0.1,0c-0.5,0-1.5,0.1-3.6,0.5c-0.9,0.2-2.7,0.4-5,0.8c-6.7,1.8-17,5.3-27.2,11.2c0,0-0.1,0-0.1,0s-0.5,0.2-1,0.6
		c0,0,0,0,0,0c0,0,0,0,0,0c-0.3,0.3-0.6,0.7-0.9,1.2c-0.6,1.3,0.9,1.2,0.9,2.1c0,0.9-1.9,1.9-1.5,2.8c0.4,0.8,1.6,2.9,2.1,3.1
		c0.1,0,0.1,0.1,0.2,0.1c0.1,0.2,0.1,0.4,0.2,0.6c0.1,0.6-0.1,1.3-0.2,1.6c-0.2,0.5,0.2,1.5,0.7,2.1c0.4,0.6,1.3,3.1,1.6,3.8
		c0,0,0,0,0,0c0.1,0.6,0.1,1.3-0.1,1.6c-0.4,0.6-0.1,2.8,0.9,3.6c0.9,0.8,1.6,1.7,1.7,1.9c0,0,0.1,0.1,0.2,0.2c1.1,3.4,2,5.9,2,5.9
		l27.9,12.4c0,0,0.6-1,1.5-2.5c0.9,1.5,1.5,2.5,1.5,2.5l27.9-12.4c0,0,6.4-19.3,7.1-22.4C136.3,93.3,136.4,89.7,136.3,87.1z"/>
	<path d="M99.3,74.1c0.1,0,0.1,0,0.1,0c0.5,0,1.5,0.1,3.6,0.5c1,0.2,2.8,0.4,5.1,0.8c7,1.9,17.6,5.5,28.2,11.8c0,2.6,0,6.2-0.5,8.3
		c-0.7,3.1-7.1,22.4-7.1,22.4l-27.9,12.4c0,0-0.6-1-1.5-2.5c-0.9,1.5-1.5,2.5-1.5,2.5l-27.9-12.4c0,0-0.8-2.5-2-5.9
		c-0.1-0.1-0.1-0.1-0.2-0.2c-0.2-0.2-0.8-1.1-1.7-1.9c-0.9-0.8-1.3-3.1-0.9-3.6c0.2-0.3,0.2-1,0.1-1.6c0,0,0,0,0,0
		c-0.3-0.7-1.1-3.2-1.6-3.8c-0.4-0.6-0.9-1.6-0.7-2.1c0.1-0.3,0.2-1.1,0.2-1.6c-0.1-0.2-0.1-0.4-0.2-0.6c0-0.1-0.1-0.1-0.2-0.1
		c-0.5-0.2-1.7-2.3-2.1-3.1c-0.4-0.8,1.5-1.8,1.5-2.8c0-0.9-1.5-0.8-0.9-2.1c0.2-0.5,0.5-0.9,0.9-1.2c0,0,0,0,0,0c0,0,0,0,0,0
		c0.5-0.5,1-0.6,1-0.6s0,0,0.1,0c10.3-5.9,20.5-9.4,27.2-11.2c2.2-0.4,4-0.6,5-0.8c2.1-0.4,3.1-0.5,3.6-0.5
		C99.2,74.1,99.3,74.1,99.3,74.1C99.3,74.1,99.3,74.1,99.3,74.1C99.3,74.1,99.3,74.1,99.3,74.1 M99.3,71.2
		C99.3,71.2,99.3,71.2,99.3,71.2C99.3,71.2,99.3,71.2,99.3,71.2c-0.2,0-0.2,0-0.3,0c-0.8,0-2,0.2-3.9,0.5c-0.4,0.1-1,0.2-1.8,0.3
		c-0.9,0.1-1.9,0.3-3.1,0.5c-0.1,0-0.2,0-0.3,0.1c-6.8,1.9-17.2,5.3-27.6,11.3c-0.3,0.1-1,0.4-1.7,1c-0.1,0.1-0.2,0.2-0.3,0.2
		c-0.6,0.6-1.1,1.3-1.5,2c-0.3,0.6-0.7,1.9,0,3.3c-0.7,0.9-1.4,2.3-0.6,4c0.2,0.5,0.7,1.3,1.2,2.1c0.3,0.5,0.6,0.9,0.9,1.3
		c-0.6,1.9,0.6,3.9,1,4.5c0.2,0.4,0.7,1.8,0.9,2.3c0.1,0.2,0.1,0.3,0.2,0.5c-0.8,2-0.1,5.3,1.7,6.8c0.6,0.5,1,1,1.1,1.2
		c1,3.2,1.8,5.5,1.8,5.5c0.3,0.8,0.8,1.4,1.5,1.7l27.9,12.4c0.4,0.2,0.8,0.2,1.1,0.2c0.5,0,1.1-0.2,1.5-0.4c0.4,0.3,1,0.4,1.5,0.4
		c0.4,0,0.8-0.1,1.1-0.2l27.9-12.4c0.7-0.3,1.3-0.9,1.5-1.7c0.7-2,6.5-19.5,7.2-22.7c0.4-1.8,0.6-4.7,0.5-8.9c0-1-0.5-1.9-1.4-2.4
		c-10.8-6.4-21.7-10.1-28.9-12.1c-0.1,0-0.2,0-0.3-0.1c-1.3-0.2-2.4-0.4-3.3-0.5c-0.7-0.1-1.3-0.2-1.8-0.3c-1.9-0.3-3.1-0.5-3.9-0.5
		C99.5,71.2,99.5,71.2,99.3,71.2L99.3,71.2z"/>
</g>
<path class="st7" d="M97.2,74.3c0,0,2.8-0.3,3.4,0.2c0.6,0.5,2.2,2.3,2.3,3c0.1,0.8,1.4,1.6,2.5,2.3c1,0.7,0.2,1.4,0.2,1.4
	s-2.6-0.9-2.8-0.4c-0.2,0.5-0.5,1.6-0.2,2c0.2,0.4,2,2.4,3.1,3.5c1.1,1,1.6,2,0.3,1.7c-1.3-0.2-3-1-3-1s-0.1,1.6,0.1,2.8
	c0.2,1.2,0.6,3.3,0.2,4c-0.5,0.7,3.3,5.7,4,7.5c0.7,1.7,6,12.2,6.5,12.6c0.5,0.4,12.1,2.8,12.9,2.1c0.9-0.6,5.6-6.4,5.6-6.4
	s4.3-13.8,4.3-14.5c0-0.6,0.3-8,0.3-8s-16.4-9.6-28.6-11.8C108.3,75.3,99.7,73,97.2,74.3z"/>
<path class="st7" d="M98.8,73.9c0,0-2,0.2-2,0.5c0,0.3,0.2,0.7,1.1,0.4c0.9-0.3,1.7-0.3,2.2-0.1c0.6,0.2,1.9,1.8,2.6,2.8
	c0.7,1.1,1.1,1.7,2.2,2.2c1.1,0.5,1.1,1.4,0.5,1.3c-0.6-0.1-1.5-0.3-2-0.4c-0.5,0-1.1-0.4-1.1,0.9c0,1.3-0.5,2.1,2,4
	c2.5,1.8,2.1,2.1,2.1,2.1s0.3,0.7-0.7,0.4c-1-0.4-2.1-1-2.3-1.1c-0.2,0-1-0.5-0.8,1.6c0.2,2.1,0.7,3.5,0.7,4.1
	c0,0.6-1.2,0.9-0.4,2.2c0.8,1.3,3.1,4.9,3.5,5.5c0.4,0.6,0.6,1.4,1.6,2.6c1,1.1,1.2-12.5,1.2-12.5l-2.1-12.7c0,0-4.8-3.1-5-3.1
	C102,74.4,98.8,73.9,98.8,73.9z"/>
<path d="M135.3,86c0,0,1.6,0.7,1.5,2.2c-0.1,1.5-0.1,2.3-1.9,2.2c-1.7,0-5.1-4.1-5.7-4.6c-0.6-0.5-4.2-2.3-5.3-2.5
	c-1.1-0.1-3.7,0.4,0.4,2.6c4.2,2.1,3.5,1.9,4.2,2.3c0.7,0.4,2.9,2.1,3.2,2.3c0.3,0.1,4,1.9,4.2,2.3c0.1,0.4-0.3,1.1,0.4,1.9
	c0.7,0.8-0.1,1.1-1.2,1.1c-1.1,0-2.3-1.3-3.1-1.6c-0.8-0.3-6-3.1-6.5-3.4c-0.5-0.3-6.8-3.3-7-3.4c-0.2-0.1-2.7-1.1-3.4-1.4
	c-0.8-0.4-2.7-0.4-3-0.9c-0.3-0.5-1.2-1.3-1.8-1.6c-0.6-0.3-2.9-1.3-2.5,0.2c0.5,1.5,3.2,2.4,3.5,2.6c0.3,0.2,6.4,3.6,8.5,4.7
	c2.1,1.1,2,1.3,2.7,2c0.7,0.7,4.1,2.8,5.4,3.3c1.3,0.5,2.7,1,3.2,1.3c0.5,0.2,3.4-0.4,3.4-0.4s2.1,0.4,2.3,0.3
	c0.1-0.1,1.3-2.5,1.3-2.9c0-0.4-0.4,0.1-0.1-1.9c0.3-2.1,0.3-4.1,0.5-4.4c0.3-0.2,0.4-0.3,0.1-1.2c-0.4-0.9-0.2-1.3-1.2-1.2
	C136.3,86,135.3,86,135.3,86z"/>
<path d="M110.2,98.8c0,0-1-1.2,0.9-0.9c1.9,0.3,6.1,2.9,7,3.8c0.9,0.9,4.8,5.5,6.3,6.1c1.5,0.5,2,1.1,2,1.2c0,0.1-5.1-1.1-5.3-1.5
	c-0.2-0.4-5.1-4.9-5.9-5.7C114.5,101,110.2,98.8,110.2,98.8z"/>
<path d="M117.4,101.7c0,0,1,1.6,5.6,3c4.6,1.4,6.8,0.6,7.5-0.1c0.6-0.6,1.3-0.9,2-2c0.8-1.1,0.4-1.3-0.7-2.3c-1.1-1-2.1-1.7-2.9-2.5
	c-0.8-0.8-1-2.1-0.4-2.3c0.6-0.2,3.6,0.1,4.8,0.9c1.2,0.8,2.3,0.3,3.8,1.8c1.5,1.5,2.7,2,2.7,3c0,1,1.5,2.4-0.5,4.7
	c-2,2.3-0.6,3.5-3.3,3.3c-2.8-0.2-3.8,1.2-5,1.3c-1.2,0.1-1.6,0.6-4.4-0.3c-2.8-0.9-2.4-0.2-2.8-0.9
	C123.4,108.4,117.4,101.7,117.4,101.7z"/>
<path class="st7" d="M62.8,86.7c0,0-2.1,1.7-0.2,2.5c2,0.8,10.7-4.1,12.4-4.9c1.7-0.8,7.4-3.1,7.5-2.5c0.1,0.6-7.9,5.3-10.5,6.2
	c-2.6,0.9-10.2,4.6-10.2,4.6s-1.1,0.4-1,0.1c0.1-0.3,0.9-1.3,1.2-1.9C62.2,90.2,59,88.8,62.8,86.7z"/>
<path class="st7" d="M61.9,91.7c0,0-2,1.9,0.6,1.6c2.5-0.3,21.5-9,23.2-9.8c1.7-0.9,3.3-1.4,5.1-2.1c1.8-0.7,3.2-1.7,4.2-1.1
	c0.9,0.6,0.2,1.3-0.5,2.3c-0.7,0.9-0.5,1.1-3,1.5c-2.5,0.4-17.3,8.7-19.2,10.1c-1.9,1.4-4.6,5-6,6.4c-1.3,1.4-1.4,2-2.3,1.8
	c-0.9-0.2-0.9-0.2-0.9-0.2s-1.4-3.1-0.7-4.2c0.7-1.1,0.5-1.8-0.3-2.2C61.2,95.4,57.9,92.8,61.9,91.7z"/>
<path class="st7" d="M64.9,101.9c0,0-0.2,1.7,0.6,1.7c0.7,0.1,6.5-2.7,7.8-2.8c1.3-0.2,2.4,0.2,0.6,1.1c-1.7,0.9-8.4,4.9-8.5,5.3
	c-0.1,0.4-0.1,0.8-0.1,0.8s-1.5-1.3-0.4-2.8C66,103.7,62.4,102.8,64.9,101.9z"/>
<path d="M79.2,88.5c-0.2,0.2-11.1,7.2-12.7,7.9c-1.7,0.8-4.5,3-4.5,3s0.2,0.4,0.2,0.6c-0.1,0.2-0.4,1.2-0.4,1.2s-0.6,0.2-0.2-1.7
	c0.4-1.9,0.2-1.6-0.2-2.4c-0.4-0.7,6.4-3.2,9.6-5.1C74.1,90.2,79.2,88.5,79.2,88.5z"/>
<path class="st7" d="M67.9,104.4c0,0-4.6,5.2,1.9,2.7s17.6-9,18.6-10.2c0.9-1.3,4.9-3.3,4.9-3.3s1.6-0.5,2-0.5
	c0.5,0,2.5-0.3,0.5,1.3c-2,1.6-8.3,12.3-8.6,14c-0.3,1.7-0.9,1.7-3,2.7c-2,0.9-12.9,2-15.4,1.3c-2.5-0.8-4.9-1.4-4.9-2.2
	C63.8,109.3,66.2,104.7,67.9,104.4z"/>
<path d="M64.4,109.1c0,0,2.2,2.4,6,1.7c3.8-0.6,10.1-3,10.1-3s1.7-1.3,2.7,0.3c1,1.6,4.9,1.9,5.4,1.9c0.5,0,4.4-0.8,7.4-1.1
	c3-0.3,7-0.6,8.1-0.6c1.1,0,5.2-0.6,6.7,0.3c1.4,0.9,1.7,1.9,4.9,1.7c3.2-0.2,5.4,1.1,6.3-0.3c1-1.4,1.4-1.9,2.9-1.9
	c1.4,0,7,1.9,7,1.9s0.8,1.4-0.3,1.9c-1.1,0.5-40.1,0.6-42.8,0.9c-2.7,0.3-22.5,2.2-23.1,1.6C65,113.8,62,109.1,64.4,109.1z"/>
<path d="M74.1,110.7c0,0,12.1-8,13.5-8.5c1.4-0.5,2,0.6,1.6,1.9c-0.5,1.3-4,6.4-4,6.4s-1.8,0.5-2.7,0.5
	C81.5,111,74.1,110.7,74.1,110.7z"/>
<g>
	<path d="M99.5,111.2h-0.2H14.8l11.9,9.1l4.6,30.5l6.6,4.4c0,0,25.7-7.6,61.6-8.6c35.9,1,61.6,8.6,61.6,8.6l6.6-4.4l4.6-30.5l12-9.1
		H99.5z"/>
</g>
<g>
	<g>
		<g>
			<g>
				<path class="st6" d="M52.7,142.4c-1.2,1.4-1.8,2.1-2.9,3.6c-3.2,0.6-6.4,1.3-9.5,2.1c-1.5-0.9-2.3-1.4-3.8-2.4
					c-1.4-8.4-2.7-16.9-4.1-25.3c1.2-1.4,1.8-2.1,3-3.5c3.5,0,6.9,0,10.4,0c1.6,1.3,2.4,1.9,4,3.1C50.8,127.4,51.8,134.9,52.7,142.4
					z M47.2,141c-0.9-6.2-1.8-12.4-2.6-18.6c-2.5,0.1-3.8,0.2-6.3,0.3c1,6.5,2,12.9,2.9,19.4C43.6,141.6,44.8,141.4,47.2,141z"/>
			</g>
			<g>
				<path class="st6" d="M70.7,139.9c-1.3,1.2-1.9,1.8-3.2,3.1c-3.1,0.4-6.3,0.9-9.4,1.4c-1.5-0.9-2.2-1.4-3.7-2.3
					c-1.1-8.4-2.1-16.9-3.2-25.3c2.2,0,3.4,0,5.6,0c0.8,7.4,1.7,14.9,2.5,22.3c2.3-0.3,3.5-0.5,5.9-0.7c-0.7-7.2-1.4-14.4-2.2-21.6
					c2.2,0,3.4,0,5.6,0C69.3,124.5,70,132.2,70.7,139.9z"/>
			</g>
			<g>
				<path class="st6" d="M87.4,121.3c-2.2,0-3.3,0-5.5,0.1c0.3,6.7,0.7,13.4,1,20.1c-2.1,0.1-3.1,0.2-5.2,0.4
					c-0.5-6.8-0.9-13.6-1.4-20.4c-2.2,0-3.3,0.1-5.5,0.1c-0.2-1.9-0.2-2.9-0.4-4.8c5.6,0,11.1,0,16.7,0
					C87.3,118.6,87.3,119.5,87.4,121.3z"/>
			</g>
			<g>
				<path class="st6" d="M102.7,141c-4.3-0.1-8.6,0-12.9,0.2c-0.2-8.1-0.5-16.2-0.7-24.3c2.2,0,3.4,0,5.6,0
					c0.1,6.6,0.2,13.1,0.3,19.7c3.1,0,4.7,0,7.8,0C102.7,138.3,102.7,139.2,102.7,141z"/>
			</g>
			<g>
				<path class="st6" d="M117.6,141.6c-0.4-2.2-0.6-3.4-1-5.6c-2.2-0.1-3.3-0.2-5.5-0.2c-0.6,2.2-0.9,3.2-1.4,5.4
					c-2.1-0.1-3.2-0.1-5.3-0.2c2.1-8.1,4.2-16.2,6.4-24.2c3.1,0,4.7,0,7.9,0c1.5,8.4,2.9,16.8,4.2,25.2
					C120.8,141.8,119.7,141.8,117.6,141.6z M115.8,131.4c-0.5-3-0.8-4.5-1.4-7.4c-0.7,2.4-1.4,4.9-2.1,7.3
					C113.7,131.3,114.4,131.4,115.8,131.4z"/>
			</g>
			<g>
				<path class="st6" d="M148.4,116.8c-2.7,9.2-5.5,18.3-8.3,27.5c-2.1-0.3-3.2-0.5-5.3-0.8c-0.4-3.9-0.8-7.8-1.3-11.6
					c-1.2,3.7-2.4,7.3-3.6,11c-2.1-0.3-3.2-0.4-5.3-0.6c-0.9-8.5-2-17-3.1-25.4c2.3,0,3.4,0,5.7,0c0.4,4.4,0.8,8.8,1.2,13.2
					c1.4-4.4,2.8-8.8,4.2-13.2c1.8,0,2.8,0,4.6,0c0.5,4.7,1,9.3,1.5,14c1.3-4.7,2.5-9.3,3.8-14C144.9,116.8,146.1,116.8,148.4,116.8
					z"/>
			</g>
			<g>
				<path class="st6" d="M162.4,145.6c-1.5,1-2.3,1.5-3.8,2.4c-2.9-0.7-5.9-1.4-8.9-2c-1.2-1.5-1.7-2.2-2.9-3.6
					c0.2-1.8,0.4-2.7,0.6-4.5c2.1,0.3,3.2,0.5,5.3,0.8c-0.1,0.9-0.2,1.4-0.3,2.4c2.1,0.4,3.2,0.6,5.3,1c0.4-2.7,0.6-4,1-6.8
					c-2.9-0.4-4.3-0.6-7.3-1c-1.2-1.4-1.8-2.1-3-3.4c0.5-3.7,1-7.4,1.4-11.1c1.6-1.2,2.4-1.8,4-3.1c3.2,0,6.4,0,9.7,0
					c1.2,1.4,1.8,2,3,3.5c-0.3,2.1-0.5,3.1-0.8,5.1c-2.2-0.2-3.3-0.2-5.5-0.4c0.1-0.9,0.2-1.4,0.4-2.4c-2.2-0.1-3.3-0.2-5.6-0.2
					c-0.4,2.7-0.6,4-0.9,6.7c3,0.3,4.4,0.4,7.4,0.7c1.2,1.5,1.8,2.2,2.9,3.7C163.7,137.6,163.1,141.6,162.4,145.6z"/>
			</g>
		</g>
	</g>
</g>
<g>
	<g>
		<path class="st6" d="M84.2,150.9c-1.2,0.1-1.9,0.1-3.1,0.2c-0.1-1.7-0.2-2.6-0.3-4.3c1.3-0.1,1.9-0.1,3.1-0.2c0,0.3,0,0.5,0,0.8
			c-0.8,0-1.1,0.1-1.9,0.1c0,0.4,0,0.6,0.1,1c0.7,0,1-0.1,1.6-0.1c0,0.3,0,0.5,0,0.8c-0.7,0-1,0.1-1.6,0.1c0,0.4,0,0.6,0.1,1
			c0.8,0,1.2-0.1,1.9-0.1C84.1,150.4,84.1,150.6,84.2,150.9z"/>
		<path class="st6" d="M90,150.2c-0.3,0.2-0.4,0.3-0.7,0.5c-0.8,0-1.2,0-2.1,0.1c-0.3-0.2-0.5-0.2-0.8-0.4c0-0.3,0-0.4,0-0.7
			c0.5,0,0.7,0,1.2-0.1c0,0.1,0,0.2,0,0.4c0.5,0,0.7,0,1.2,0c0-0.4,0-0.6,0-1c-0.7,0-1,0-1.6,0.1c-0.3-0.2-0.5-0.3-0.8-0.4
			c0-0.7,0-1-0.1-1.6c0.3-0.2,0.5-0.3,0.8-0.5c0.8,0,1.3-0.1,2.1-0.1c0.3,0.2,0.5,0.3,0.8,0.4c0,0.3,0,0.4,0,0.7c-0.5,0-0.7,0-1.2,0
			c0-0.1,0-0.2,0-0.3c-0.5,0-0.7,0-1.2,0c0,0.4,0,0.6,0,1c0.7,0,1,0,1.7-0.1c0.3,0.2,0.5,0.3,0.8,0.4C90,149.2,90,149.5,90,150.2z"
			/>
		<path class="st6" d="M95.8,148.6c-0.3,0.2-0.5,0.3-0.8,0.5c-0.7,0-1,0-1.6,0c0,0.6,0,0.9,0,1.5c-0.5,0-0.7,0-1.2,0
			c0-1.7-0.1-2.6-0.1-4.3c1.1,0,1.7,0,2.9-0.1c0.3,0.2,0.5,0.3,0.8,0.4C95.8,147.4,95.8,147.8,95.8,148.6z M94.6,148.2
			c0-0.5,0-0.8,0-1.3c-0.5,0-0.7,0-1.2,0c0,0.5,0,0.8,0,1.3C93.9,148.3,94.1,148.2,94.6,148.2z"/>
		<path class="st6" d="M101.9,150c-0.3,0.2-0.5,0.3-0.8,0.4c-0.9,0-1.3,0-2.2,0c-0.3-0.2-0.5-0.3-0.8-0.4c0-1.4,0-2,0-3.4
			c0.3-0.2,0.5-0.3,0.8-0.5c0.9,0,1.4,0,2.3,0c0.3,0.2,0.5,0.3,0.8,0.5C101.9,148,101.9,148.6,101.9,150z M100.7,149.6
			c0-1.1,0-1.6,0-2.7c-0.6,0-0.8,0-1.4,0c0,1.1,0,1.6,0,2.7C99.9,149.6,100.1,149.6,100.7,149.6z"/>
		<path class="st6" d="M108,150.5c-0.5,0-0.8,0-1.3,0c-0.4-0.7-0.6-1.1-1-1.8c-0.1,0-0.2,0-0.4,0c0,0.7,0,1.1,0,1.8
			c-0.5,0-0.7,0-1.2,0c0-1.7,0-2.6,0.1-4.3c1.2,0,1.7,0,2.9,0c0.3,0.2,0.5,0.3,0.8,0.5c0,0.6,0,0.9,0,1.6c-0.3,0.2-0.5,0.3-0.8,0.5
			C107.4,149.5,107.6,149.8,108,150.5z M105.4,147.9c0.5,0,0.8,0,1.3,0c0-0.4,0-0.6,0-1c-0.5,0-0.8,0-1.3,0
			C105.4,147.4,105.4,147.5,105.4,147.9z"/>
		<path class="st6" d="M114,147.2c-0.5,0-0.7,0-1.2,0c-0.1,1.4-0.1,2.1-0.1,3.5c-0.5,0-0.7,0-1.2,0c0.1-1.4,0.1-2.1,0.1-3.5
			c-0.5,0-0.7,0-1.2,0c0-0.3,0-0.5,0-0.8c1.4,0,2.2,0.1,3.6,0.1C114,146.7,114,146.9,114,147.2z"/>
		<path class="st6" d="M119.7,150.6c-0.3,0.2-0.5,0.2-0.8,0.4c-0.8,0-1.2-0.1-2.1-0.1c-0.3-0.2-0.4-0.3-0.7-0.5c0-0.3,0-0.4,0-0.7
			c0.5,0,0.7,0,1.2,0.1c0,0.1,0,0.2,0,0.3c0.5,0,0.7,0,1.2,0.1c0-0.4,0-0.6,0.1-1c-0.7,0-1-0.1-1.6-0.1c-0.3-0.2-0.5-0.3-0.8-0.5
			c0-0.7,0.1-1,0.1-1.6c0.3-0.2,0.5-0.2,0.8-0.4c0.8,0,1.3,0.1,2.1,0.1c0.3,0.2,0.4,0.3,0.7,0.5c0,0.3,0,0.4,0,0.7
			c-0.5,0-0.7,0-1.2-0.1c0-0.1,0-0.2,0-0.3c-0.5,0-0.7,0-1.2-0.1c0,0.4,0,0.6-0.1,1c0.7,0,1,0.1,1.6,0.1c0.3,0.2,0.4,0.3,0.7,0.5
			C119.8,149.6,119.7,149.9,119.7,150.6z"/>
	</g>
</g>
<g>
	<defs>
		<path id="SVGID_1_" d="M150.6,94.2L91,155.6c0,0,21.1,16,22.2,15.1c1.2-0.9,69.1-65.6,69.1-65.6L150.6,94.2z"/>
	</defs>
	<clipPath id="SVGID_2_">
		<use xlink:href="#SVGID_1_"  style="overflow:visible;"/>
	</clipPath>
	<g class="st9">
		<g>
			<g>
				<g>
					<path class="st10" d="M52.7,142.4c-1.2,1.4-1.8,2.1-2.9,3.6c-3.2,0.6-6.4,1.3-9.5,2.1c-1.5-0.9-2.3-1.4-3.8-2.4
						c-1.4-8.4-2.7-16.9-4.1-25.3c1.2-1.4,1.8-2.1,3-3.5c3.5,0,6.9,0,10.4,0c1.6,1.3,2.4,1.9,4,3.1
						C50.8,127.3,51.7,134.8,52.7,142.4z M47.2,141c-0.9-6.2-1.8-12.4-2.6-18.6c-2.5,0.1-3.8,0.2-6.3,0.3c1,6.5,2,12.9,2.9,19.4
						C43.6,141.6,44.8,141.4,47.2,141z"/>
				</g>
				<g>
					<path class="st10" d="M70.7,139.9c-1.3,1.2-1.9,1.8-3.2,3.1c-3.1,0.4-6.3,0.9-9.4,1.4c-1.5-0.9-2.2-1.4-3.7-2.3
						c-1.1-8.4-2.1-16.9-3.2-25.3c2.2,0,3.4,0,5.6,0c0.8,7.4,1.7,14.9,2.5,22.3c2.3-0.3,3.5-0.5,5.9-0.7c-0.7-7.2-1.4-14.4-2.2-21.6
						c2.2,0,3.4,0,5.6,0C69.3,124.5,70,132.2,70.7,139.9z"/>
				</g>
				<g>
					<path class="st10" d="M87.4,121.3c-2.2,0-3.3,0-5.5,0.1c0.3,6.7,0.7,13.4,1,20.1c-2.1,0.1-3.1,0.2-5.2,0.4
						c-0.5-6.8-0.9-13.6-1.4-20.4c-2.2,0-3.3,0.1-5.5,0.1c-0.2-1.9-0.2-2.9-0.4-4.8c5.6,0,11.1,0,16.7,0
						C87.3,118.6,87.3,119.5,87.4,121.3z"/>
				</g>
				<g>
					<path class="st10" d="M102.7,140.9c-4.3-0.1-8.6,0-12.9,0.2c-0.2-8.1-0.5-16.2-0.7-24.3c2.2,0,3.4,0,5.6,0
						c0.1,6.6,0.2,13.1,0.3,19.7c3.1,0,4.7,0,7.8,0C102.7,138.3,102.7,139.2,102.7,140.9z"/>
				</g>
				<g>
					<path class="st10" d="M117.6,141.6c-0.4-2.2-0.6-3.4-1-5.6c-2.2-0.1-3.3-0.2-5.5-0.2c-0.6,2.2-0.9,3.2-1.4,5.4
						c-2.1-0.1-3.2-0.1-5.3-0.2c2.1-8.1,4.2-16.2,6.4-24.2c3.1,0,4.7,0,7.9,0c1.5,8.4,2.9,16.8,4.2,25.2
						C120.8,141.8,119.7,141.7,117.6,141.6z M115.8,131.4c-0.5-3-0.8-4.5-1.4-7.4c-0.7,2.4-1.4,4.9-2.1,7.3
						C113.7,131.3,114.4,131.4,115.8,131.4z"/>
				</g>
				<g>
					<path class="st10" d="M148.4,116.8c-2.7,9.2-5.5,18.3-8.3,27.5c-2.1-0.3-3.2-0.5-5.3-0.8c-0.4-3.9-0.8-7.8-1.3-11.6
						c-1.2,3.7-2.4,7.3-3.6,11c-2.1-0.3-3.2-0.4-5.3-0.6c-0.9-8.5-2-17-3.1-25.4c2.3,0,3.4,0,5.7,0c0.4,4.4,0.8,8.8,1.2,13.2
						c1.4-4.4,2.8-8.8,4.2-13.2c1.8,0,2.8,0,4.6,0c0.5,4.7,1,9.3,1.5,14c1.3-4.7,2.5-9.3,3.8-14
						C144.9,116.8,146.1,116.8,148.4,116.8z"/>
				</g>
				<g>
					<path class="st10" d="M162.4,145.6c-1.5,1-2.3,1.5-3.8,2.4c-2.9-0.7-5.9-1.4-8.9-2c-1.2-1.5-1.7-2.2-2.9-3.6
						c0.2-1.8,0.4-2.7,0.6-4.5c2.1,0.3,3.2,0.5,5.3,0.8c-0.1,0.9-0.2,1.4-0.3,2.4c2.1,0.4,3.2,0.6,5.3,1c0.4-2.7,0.6-4,1-6.8
						c-2.9-0.4-4.3-0.6-7.3-1c-1.2-1.4-1.8-2.1-3-3.4c0.5-3.7,1-7.4,1.4-11.1c1.6-1.2,2.4-1.8,4-3.1c3.2,0,6.4,0,9.7,0
						c1.2,1.4,1.8,2,3,3.5c-0.3,2.1-0.5,3.1-0.8,5.1c-2.2-0.2-3.3-0.2-5.5-0.4c0.1-0.9,0.2-1.4,0.4-2.4c-2.2-0.1-3.3-0.2-5.6-0.2
						c-0.4,2.7-0.6,4-0.9,6.7c3,0.3,4.4,0.4,7.4,0.7c1.2,1.5,1.8,2.2,2.9,3.7C163.7,137.6,163.1,141.6,162.4,145.6z"/>
				</g>
			</g>
		</g>
	</g>
</g>
<g>
	<defs>
		<path id="SVGID_3_" d="M76.4,106l-55.5,44.8c0,0,22.8,18.4,24.3,18.4c1.5,0,74.5-68.8,74.5-68.8L76.4,106z"/>
	</defs>
	<clipPath id="SVGID_4_">
		<use xlink:href="#SVGID_3_"  style="overflow:visible;"/>
	</clipPath>
	<g class="st11">
		<g>
			<g>
				<g>
					<path class="st10" d="M52.8,142.4c-1.2,1.4-1.8,2.1-2.9,3.5c-3.2,0.6-6.4,1.3-9.5,2.1c-1.5-0.9-2.3-1.4-3.8-2.4
						c-1.4-8.4-2.7-16.9-4.1-25.3c1.2-1.4,1.8-2.1,3-3.5c3.5,0,6.9,0,10.4,0c1.6,1.3,2.4,1.9,4,3.1
						C50.8,127.4,51.8,134.9,52.8,142.4z M47.2,141c-0.9-6.2-1.8-12.4-2.6-18.6c-2.5,0.1-3.8,0.2-6.3,0.3c1,6.5,2,12.9,2.9,19.4
						C43.7,141.6,44.8,141.4,47.2,141z"/>
				</g>
				<g>
					<path class="st10" d="M70.7,139.9c-1.3,1.2-1.9,1.8-3.2,3.1c-3.1,0.4-6.3,0.9-9.4,1.4c-1.5-0.9-2.2-1.4-3.7-2.3
						c-1.1-8.4-2.1-16.9-3.2-25.3c2.2,0,3.4,0,5.6,0c0.8,7.4,1.7,14.9,2.5,22.3c2.3-0.3,3.5-0.5,5.9-0.7c-0.7-7.2-1.4-14.4-2.2-21.6
						c2.2,0,3.4,0,5.6,0C69.4,124.5,70,132.2,70.7,139.9z"/>
				</g>
				<g>
					<path class="st10" d="M87.4,121.3c-2.2,0-3.3,0-5.5,0.1c0.3,6.7,0.7,13.4,1,20.1c-2.1,0.1-3.1,0.2-5.2,0.4
						c-0.5-6.8-0.9-13.6-1.4-20.4c-2.2,0-3.3,0.1-5.5,0.1c-0.2-1.9-0.2-2.9-0.4-4.8c5.6,0,11.1,0,16.7,0
						C87.3,118.6,87.3,119.5,87.4,121.3z"/>
				</g>
				<g>
					<path class="st10" d="M102.7,141c-4.3-0.1-8.6,0-12.9,0.2c-0.2-8.1-0.5-16.2-0.7-24.3c2.2,0,3.4,0,5.6,0
						c0.1,6.6,0.2,13.1,0.3,19.7c3.1,0,4.7,0,7.8,0C102.7,138.3,102.7,139.2,102.7,141z"/>
				</g>
				<g>
					<path class="st10" d="M117.6,141.6c-0.4-2.2-0.6-3.4-1-5.6c-2.2-0.1-3.3-0.2-5.5-0.2c-0.6,2.2-0.9,3.2-1.4,5.4
						c-2.1-0.1-3.2-0.1-5.3-0.2c2.1-8.1,4.2-16.2,6.4-24.2c3.1,0,4.7,0,7.9,0c1.5,8.4,2.9,16.8,4.2,25.2
						C120.8,141.8,119.7,141.7,117.6,141.6z M115.8,131.4c-0.5-3-0.8-4.5-1.4-7.4c-0.7,2.4-1.4,4.9-2.1,7.3
						C113.7,131.3,114.4,131.4,115.8,131.4z"/>
				</g>
				<g>
					<path class="st10" d="M148.4,116.8c-2.7,9.2-5.5,18.3-8.3,27.5c-2.1-0.3-3.2-0.5-5.3-0.8c-0.4-3.9-0.8-7.8-1.3-11.6
						c-1.2,3.7-2.4,7.3-3.6,11c-2.1-0.3-3.2-0.4-5.3-0.6c-0.9-8.5-2-17-3.1-25.4c2.3,0,3.4,0,5.7,0c0.4,4.4,0.8,8.8,1.2,13.2
						c1.4-4.4,2.8-8.8,4.2-13.2c1.8,0,2.8,0,4.6,0c0.5,4.7,1,9.3,1.5,14c1.3-4.7,2.5-9.3,3.8-14
						C144.9,116.8,146.1,116.8,148.4,116.8z"/>
				</g>
				<g>
					<path class="st10" d="M162.4,145.6c-1.5,1-2.3,1.5-3.8,2.4c-2.9-0.7-5.9-1.4-8.9-2c-1.2-1.5-1.7-2.2-2.9-3.6
						c0.2-1.8,0.4-2.7,0.6-4.5c2.1,0.3,3.2,0.5,5.3,0.8c-0.1,0.9-0.2,1.4-0.3,2.4c2.1,0.4,3.2,0.6,5.3,1c0.4-2.7,0.6-4,1-6.8
						c-2.9-0.4-4.3-0.6-7.3-1c-1.2-1.4-1.8-2.1-3-3.4c0.5-3.7,1-7.4,1.4-11.1c1.6-1.2,2.4-1.8,4-3.1c3.2,0,6.4,0,9.7,0
						c1.2,1.4,1.8,2,3,3.5c-0.3,2.1-0.5,3.1-0.8,5.1c-2.2-0.2-3.3-0.2-5.5-0.4c0.1-0.9,0.2-1.4,0.4-2.4c-2.2-0.1-3.3-0.2-5.6-0.2
						c-0.4,2.7-0.6,4-0.9,6.7c3,0.3,4.4,0.4,7.4,0.7c1.2,1.5,1.8,2.2,2.9,3.7C163.7,137.6,163.1,141.6,162.4,145.6z"/>
				</g>
			</g>
		</g>
	</g>
</g>
<g>
	<defs>
		<polygon id="SVGID_5_" points="121.6,108.1 76.1,151.2 131.5,108.3 		"/>
	</defs>
	<clipPath id="SVGID_6_">
		<use xlink:href="#SVGID_5_"  style="overflow:visible;"/>
	</clipPath>
	<g class="st12">
		<g>
			<g>
				<g>
					<path class="st10" d="M52.7,142.3c-1.2,1.4-1.8,2.1-2.9,3.5c-3.2,0.6-6.4,1.3-9.5,2.1c-1.5-0.9-2.3-1.4-3.8-2.4
						c-1.4-8.4-2.7-16.9-4.1-25.3c1.2-1.4,1.8-2.1,3-3.5c3.5,0,6.9,0,10.4,0c1.6,1.3,2.4,1.9,4,3.1
						C50.8,127.3,51.8,134.8,52.7,142.3z M47.2,141c-0.9-6.2-1.8-12.4-2.6-18.6c-2.5,0.1-3.8,0.2-6.3,0.3c1,6.5,2,12.9,2.9,19.4
						C43.6,141.6,44.8,141.4,47.2,141z"/>
				</g>
				<g>
					<path class="st10" d="M70.7,139.9c-1.3,1.2-1.9,1.8-3.2,3.1c-3.1,0.4-6.3,0.9-9.4,1.4c-1.5-0.9-2.2-1.4-3.7-2.3
						c-1.1-8.4-2.1-16.9-3.2-25.3c2.2,0,3.4,0,5.6,0c0.8,7.4,1.7,14.9,2.5,22.3c2.3-0.3,3.5-0.5,5.9-0.7c-0.7-7.2-1.4-14.4-2.2-21.6
						c2.2,0,3.4,0,5.6,0C69.3,124.5,70,132.2,70.7,139.9z"/>
				</g>
				<g>
					<path class="st10" d="M87.4,121.3c-2.2,0-3.3,0-5.5,0.1c0.3,6.7,0.7,13.4,1,20.1c-2.1,0.1-3.1,0.2-5.2,0.4
						c-0.5-6.8-0.9-13.6-1.4-20.4c-2.2,0-3.3,0.1-5.5,0.1c-0.2-1.9-0.2-2.9-0.4-4.8c5.6,0,11.1,0,16.7,0
						C87.3,118.6,87.3,119.5,87.4,121.3z"/>
				</g>
				<g>
					<path class="st10" d="M102.7,140.9c-4.3-0.1-8.6,0-12.9,0.2c-0.2-8.1-0.5-16.2-0.7-24.3c2.2,0,3.4,0,5.6,0
						c0.1,6.6,0.2,13.1,0.3,19.7c3.1,0,4.7,0,7.8,0C102.7,138.3,102.7,139.2,102.7,140.9z"/>
				</g>
				<g>
					<path class="st10" d="M117.6,141.6c-0.4-2.2-0.6-3.4-1-5.6c-2.2-0.1-3.3-0.2-5.5-0.3c-0.6,2.2-0.9,3.2-1.4,5.4
						c-2.1-0.1-3.2-0.1-5.3-0.2c2.1-8.1,4.2-16.2,6.4-24.2c3.1,0,4.7,0,7.9,0c1.5,8.4,2.9,16.8,4.2,25.2
						C120.8,141.8,119.7,141.7,117.6,141.6z M115.8,131.4c-0.5-3-0.8-4.5-1.4-7.4c-0.7,2.4-1.4,4.9-2.1,7.3
						C113.7,131.3,114.4,131.3,115.8,131.4z"/>
				</g>
				<g>
					<path class="st10" d="M148.4,116.8c-2.7,9.2-5.5,18.3-8.3,27.5c-2.1-0.3-3.2-0.5-5.3-0.8c-0.4-3.9-0.8-7.7-1.3-11.6
						c-1.2,3.7-2.4,7.3-3.6,11c-2.1-0.3-3.2-0.4-5.3-0.6c-0.9-8.5-2-17-3.1-25.4c2.3,0,3.4,0,5.7,0c0.4,4.4,0.8,8.8,1.2,13.2
						c1.4-4.4,2.8-8.8,4.2-13.2c1.8,0,2.8,0,4.6,0c0.5,4.7,1,9.3,1.5,14c1.3-4.7,2.5-9.3,3.8-14
						C144.9,116.8,146.1,116.8,148.4,116.8z"/>
				</g>
				<g>
					<path class="st10" d="M162.4,145.6c-1.5,1-2.3,1.5-3.8,2.4c-2.9-0.7-5.9-1.4-8.9-2c-1.2-1.5-1.7-2.2-2.9-3.6
						c0.2-1.8,0.4-2.7,0.6-4.5c2.1,0.3,3.2,0.5,5.3,0.8c-0.1,0.9-0.2,1.4-0.3,2.4c2.1,0.4,3.2,0.6,5.3,1c0.4-2.7,0.6-4,1-6.8
						c-2.9-0.4-4.3-0.6-7.3-1c-1.2-1.4-1.8-2.1-3-3.4c0.5-3.7,1-7.4,1.4-11.1c1.6-1.2,2.4-1.8,4-3.1c3.2,0,6.4,0,9.7,0
						c1.2,1.4,1.8,2,3,3.5c-0.3,2.1-0.5,3.1-0.8,5.1c-2.2-0.2-3.3-0.2-5.5-0.4c0.1-0.9,0.2-1.4,0.4-2.4c-2.2-0.1-3.3-0.2-5.6-0.2
						c-0.4,2.7-0.6,4-0.9,6.7c3,0.3,4.4,0.4,7.4,0.7c1.2,1.5,1.8,2.2,2.9,3.7C163.7,137.6,163.1,141.6,162.4,145.6z"/>
				</g>
			</g>
		</g>
	</g>
</g>
</svg>
