<?xml version="1.0" encoding="utf-8"?>
<!-- Generator: Adobe Illustrator 19.0.0, SVG Export Plug-In . SVG Version: 6.00 Build 0)  -->
<svg version="1.1" id="Layer_1" xmlns="http://www.w3.org/2000/svg" xmlns:xlink="http://www.w3.org/1999/xlink" x="0px" y="0px"
	 viewBox="204 -78.1 997 997" style="enable-background:new 204 -78.1 997 997;" xml:space="preserve">
<g id="_x23_000000ff">
	<path d="M553.5-55.6C658.8-88.4,775-85.3,878.2-46.3c70.8,26.6,135.3,69.8,187.2,124.8c46,48.7,82,106.8,105.2,169.7
		c37.5,101.5,40.5,215.2,8.6,318.5c-21.6,70.5-59.2,135.9-109,190.2c-43.2,47.2-95.5,86-153.2,113.5c-11.3-28.9-22.7-57.8-34-86.7
		c45.4-22.6,86.5-53.8,120.5-91.4c36.8-40.5,65.2-88.6,83-140.4c22-64,27.4-133.5,16.1-200.2c-10.9-64.4-37.8-126.1-77.6-177.9
		C983.1,119.3,927.2,75.4,863.9,48C806,22.7,742.1,11.7,679.1,15.3c62.2,158.7,124.4,317.4,186.5,476c7.2,18.2,14.2,36.5,21.5,54.7
		c38.2-107.5,76.3-215,114.5-322.5c5.4,6.8,9.4,14.5,13.8,22c19.2,34.3,32.7,71.7,39.7,110.3c0.3,2.2,1.2,4.5,0.3,6.6
		c-43.8,111.8-87.7,223.6-131.5,335.4c-25.2,0-50.3,0-75.5,0C750.1,446.7,651.8,195.6,553.5-55.6z"/>
	<path d="M353.1,64.9c38-37.4,82-68.6,129.8-92.1c11.4,28.9,22.7,57.9,34,86.8c-63.3,32.6-117.8,82.1-156.2,142.1
		c-40.7,62.9-63,137.4-64,212.3c-1.4,77.5,20,155.2,61.2,220.9C395.5,695,448.9,745,511.5,778.4c62.2,33.4,133.2,49.9,203.7,47.5
		C679,734,642.9,642.2,606.8,550.4c-43.9,0-87.8,0-131.7,0c10.7-31.1,21.4-62.2,32.1-93.3c21,0,41.9,0,62.9,0
		c-15.9-41.1-31.9-82.2-47.8-123.4c-2.6-6.4-4.7-12.9-7.7-19.2C478.2,416.7,441.8,518.9,405.4,621c-28.5-41.8-47.7-89.9-56.2-139.7
		c-0.2-1.3-0.3-2.7,0.2-3.9c43.3-110.2,86.6-220.3,129.8-330.5c23.8-0.1,47.6-0.1,71.3,0c98.2,250.6,196.7,501.2,294.9,751.8
		c-44.9,13.4-91.8,19.8-138.6,20.1c-62.8,0.6-125.8-10.7-184.4-33.4c-64.6-24.9-123.7-63.6-172.7-112.6
		c-54.3-54.2-95.9-121.1-120.2-193.9c-33.8-100.3-34.3-211.5-1.6-312.1C252.7,190.7,296,120.9,353.1,64.9z"/>
</g>
</svg>
