<?xml version="1.0" encoding="utf-8"?>
<!-- Generator: Adobe Illustrator 19.0.0, SVG Export Plug-In . SVG Version: 6.00 Build 0)  -->
<svg version="1.1" id="Layer_1" xmlns="http://www.w3.org/2000/svg" xmlns:xlink="http://www.w3.org/1999/xlink" x="0px" y="0px"
	 viewBox="-37.69 229.301 369.4 395.739" style="enable-background:new -37.69 229.301 369.4 395.739;" xml:space="preserve">
<style type="text/css">
	.st0{fill:#E26700;}
	.st1{fill:#FFFFFE;}
	.st2{fill:url(#SVGID_1_);}
	.st3{fill:#EA8B39;}
</style>
<path class="st0" d="M121.178,532.303l13.782,84.588l11.85,8.149c4.38-2.768,8.924-5.819,13.577-9.18
	c3.873-2.798,7.515-5.588,10.931-8.337c0-24.979,0-49.957,0-74.936c-6.774,1.234-15.032,2.206-24.443,2.197
	C136.909,534.774,128.218,533.668,121.178,532.303z"/>
<g id="_x23_fffffeff">
	<path class="st1" d="M66.24,264.13c23.78-15.78,52.32-23.91,80.79-24.07c34.93-0.21,69.65,12.91,96.02,35.76
		c23.4,20.11,40.38,47.72,47.26,77.84c6.94,28.84,4.79,59.8-6.1,87.39c-16.3,42.59-53.7,76.47-97.79,88.26
		c-12.84,3.75-26.24,5.06-39.57,5.47c-13.74-0.48-27.54-2.01-40.74-6.01c-33.98-9.7-64.05-32.24-83.01-62.04
		C1.62,433.86-5.28,392.14,3.55,353.98C11.74,317.37,34.95,284.67,66.24,264.13 M136.34,248.23c-42.12,2.71-82.35,26.2-105.45,61.53
		C8.21,343.05,1.42,386.59,12.67,425.25c7.62,27.33,23.96,52.11,45.92,70.05c21.04,17.36,47.31,28.24,74.44,30.95
		c10.31,0.43,20.68,0.63,30.97-0.23c34.53-4.19,67.38-21.69,89.68-48.46c19.82-23.21,31.48-53.14,32.83-83.61
		c1.05-23.18-3.73-46.65-14.03-67.45c-10.65-22.24-27.46-41.42-47.91-55.15c-20.32-13.59-44.27-21.85-68.71-23.21
		C149.38,247.31,142.82,247.5,136.34,248.23z"/>
	<path class="st1" d="M133.37,256.35c27.47-2.78,55.87,3.13,79.62,17.31c36.06,20.35,60.98,59,64.99,100.2
		c1.4,14.48,0.63,29.21-2.6,43.41c-5.84,24.58-18.63,47.58-37.01,64.98c-17.53,17.08-40,29.05-63.97,33.99
		c-24.23,5.23-49.95,3.23-73.15-5.46c-25.87-9.51-48.44-27.46-63.75-50.35c-23.12-34.16-28.9-79.62-14.16-118.22
		c8.3-23.5,23.8-44.28,43.53-59.48C86.06,268.05,109.31,258.73,133.37,256.35 M136.97,291.6c6.7,0.04,13.4,0.02,20.1-0.01
		c-2.79-6.29-6.12-12.44-10.03-18.11C143.22,279.23,139.82,285.31,136.97,291.6 M133.24,298.05c-2.53,3.75-4.96,7.65-6.4,11.96
		c13.48,0.43,27.01,0.39,40.49,0.03c-1.47-4.34-3.89-8.31-6.58-11.99c-4.18-0.84-8.51-0.2-12.75-0.39
		C143.08,297.83,138.1,297.26,133.24,298.05 M121.1,319.08c-1.78,3.09-3.49,6.21-5.03,9.43c20.62-0.06,41.25-0.04,61.87,0
		c-1.81-3.67-3.67-7.32-5.81-10.8c-0.73-1.62-2.72-1.12-4.1-1.28c-14.68,0.08-29.37-0.09-44.04,0.07
		C122.42,316.26,121.86,318.09,121.1,319.08 M40.07,334.79c1.57,4.02,3.59,7.86,5.28,11.83c5.51,0.9,11.1,0.4,16.65,0.52
		c18.1-0.2,36.23,0.41,54.31-0.33c-1.07-3.98-2.91-7.7-4.99-11.23c-1.43-1.37-3.53-0.88-5.3-1.02
		C84.04,334.75,62.04,334.28,40.07,334.79 M182.69,335.57c-2.08,3.52-3.91,7.23-4.99,11.18c4.74,0.61,9.53,0.33,14.3,0.37
		c16.67,0.06,33.33-0.02,50,0.06c2.2,0.03,4.41-0.16,6.59-0.53c1.54-4.06,3.76-7.82,5.35-11.86c-21.98-0.49-43.97-0.04-65.95-0.24
		C186.21,334.71,184.09,334.16,182.69,335.57 M49.07,353.28c1.54,3.84,3.29,7.61,5.22,11.27c0.78,1.8,3.12,1.26,4.68,1.5
		c20,0,40.01-0.03,60.02,0.03c2.3-0.01,4.6-0.19,6.9-0.37c-1.77-4.04-3.3-8.23-5.68-11.96c-1.2-0.84-2.81-0.29-4.17-0.46
		C93.72,353.32,71.39,353.33,49.07,353.28 M168.12,365.67c2.96,0.18,5.91,0.43,8.88,0.41c19.35-0.11,38.7,0.04,58.04-0.06
		c1.54-0.29,3.87,0.31,4.65-1.48c1.91-3.51,3.65-7.13,4.89-10.94c-5.18-0.37-10.39-0.16-15.58-0.2
		c-18.33,0.11-36.67-0.22-54.99,0.16C171.41,357.25,169.95,361.58,168.12,365.67 M58.16,372.1c1.53,3.37,3.01,6.76,4.63,10.09
		c0.56,0.9,0.96,2.52,2.36,2.27c23.26,0.08,46.53-0.06,69.8,0.06c-1.42-4.26-3.83-8.09-5.39-12.29
		C105.76,371.9,81.96,372.23,58.16,372.1 M165.29,372.22c-2.97,3.38-4.5,8.1-6.24,12.29c23.52-0.12,47.05,0.09,70.56-0.1
		c2.82-3.59,4.06-8.28,6.22-12.32C212.32,372.22,188.79,371.93,165.29,372.22 M64.24,390.25c-2.06,4.05-4.68,7.91-5.63,12.41
		c23.66-0.06,47.33,0.16,70.99-0.1c1.61-4.18,3.89-8.07,5.36-12.31C111.39,390.29,87.81,390.31,64.24,390.25 M159.04,390.24
		c1.45,4.25,3.7,8.15,5.37,12.3c21.53,0.32,43.06,0.02,64.6,0.15c2.24,0.05,4.5-0.04,6.72-0.44c-1.49-3.19-2.98-6.38-4.52-9.53
		c-0.62-0.88-0.93-2.67-2.35-2.44C205.59,390.24,182.32,390.35,159.04,390.24 M54.68,409.59c-2.05,3.72-4.01,7.54-5.26,11.61
		c23.5,0.29,47.03,0.29,70.53,0c2.67-3.66,4.11-8.03,5.98-12.12c-22.32-0.09-44.65,0-66.97-0.06
		C57.55,409.18,55.92,408.76,54.68,409.59 M168.1,409.1c1.9,4.15,3.21,8.88,6.28,12.29c21.55,0.19,43.11-0.02,64.66,0.11
		c1.96,0,3.93-0.15,5.89-0.4c-1.8-3.86-3.46-7.82-5.61-11.5c-1.55-0.96-3.56-0.4-5.3-0.58C212.05,409.18,190.06,408.82,168.1,409.1
		 M45.36,428.14c-1.66,3.97-3.71,7.76-5.3,11.76c21.97,0.64,43.97,0.14,65.96,0.28c1.74-0.2,3.92,0.39,5.3-0.98
		c2.18-3.54,3.59-7.48,5.48-11.18c-2.6-0.23-5.21-0.39-7.81-0.38c-19.33,0-38.66,0.01-58,0C49.1,427.64,47.23,427.87,45.36,428.14
		 M177.17,427.92c1.74,3.54,3.18,7.22,5.13,10.64c0.97,2.22,3.78,1.4,5.68,1.63c21.99-0.17,43.99,0.39,65.96-0.34
		c-1.64-3.97-3.76-7.73-5.31-11.75c-5.17-0.86-10.42-0.32-15.63-0.46C214.39,427.85,195.77,427.27,177.17,427.92 M116.06,446.26
		c1.86,4.16,4.46,7.94,6.33,12.09c16.43-0.04,32.87-0.07,49.3,0.01c1.87-4.14,4.35-7.97,6.26-12.1
		C157.32,446.26,136.69,446.26,116.06,446.26 M126.8,464.73c1.47,4.3,4.11,8.03,6.31,11.97c9.19,0.51,18.48,0.72,27.64,0.01
		c2.68-3.71,5.04-7.74,6.71-12C153.92,464.37,140.34,464.29,126.8,464.73 M136.98,483.19c2.72,5.97,6.14,11.61,9.44,17.26
		c0.31,0.01,0.93,0.02,1.24,0.03c3.47-5.56,6.94-11.23,9.43-17.32C150.38,483.12,143.68,483.08,136.98,483.19z"/>
</g>
<g id="_x23_b35400ff">
	<linearGradient id="SVGID_1_" gradientUnits="userSpaceOnUse" x1="233.785" y1="625.04" x2="233.785" y2="229.3008">
		<stop  offset="0" style="stop-color:#B5561D"/>
		<stop  offset="0.8656" style="stop-color:#E57126"/>
		<stop  offset="1" style="stop-color:#994B1E"/>
	</linearGradient>
	<path class="st2" d="M135.86,229.5c19.75-0.68,39.49,0.49,59.18,1.86c5.39-0.13,10.63,1.27,15.96,1.76
		c8.21,0.38,16.23,2.3,24.35,3.46c22.83,3.69,45.31,9.41,67.23,16.76c9.81,3.67,19.97,6.74,29.13,11.87
		c-1.07,56.47-11.13,113-31.67,165.7c-29.33,75.4-80.01,142.93-146.23,189.76c-2.23,1.61-4.56,3.09-7,4.37
		c0.37-30.09-1.115-60.18-1.265-90.26c13.33-0.41,28.035-1.72,40.875-5.47c44.09-11.79,81.49-45.67,97.79-88.26
		c10.89-27.59,13.04-58.55,6.1-87.39c-6.88-30.12-23.86-57.73-47.26-77.84c-26.37-22.85-61.09-35.97-96.02-35.76
		c0.24-3.36,0.29-6.74,0.14-10.11C143.4,229.78,139.63,229.6,135.86,229.5z"/>
</g>
<g id="_x23_ea8b39ff">
	<path class="st3" d="M116.31,230.17c6.47-0.96,13.03-0.54,19.55-0.67c3.77,0.1,7.625-0.369,11.395-0.199
		c0.15,3.37,0.015,7.399-0.225,10.759c-28.47,0.16-57.01,8.29-80.79,24.07c-31.29,20.54-54.5,53.24-62.69,89.85
		c-2.63-1.44-5.42-2.57-8.32-3.31c-8.1-2.15-16-5.03-24.24-6.64c-0.06,1.68-0.13,3.35-0.16,5.03c-1.43-3.49-1.32-7.33-2.09-10.97
		c-4.03-24.1-6.17-48.49-6.43-72.91c1.94-1.58,4.39-2.35,6.65-3.37c42.5-17.9,88.25-26.96,134.03-30.98
		C107.41,230.36,111.88,230.7,116.31,230.17z"/>
</g>
<g id="_x23_e26700ff">
	<path class="st0" d="M136.34,248.23c6.48-0.73,13.04-0.92,19.52-0.09c24.44,1.36,48.39,9.62,68.71,23.21
		c20.45,13.73,37.26,32.91,47.91,55.15c10.3,20.8,15.08,44.27,14.03,67.45c-1.35,30.47-13.01,60.4-32.83,83.61
		c-22.3,26.77-55.15,44.27-89.68,48.46c-10.29,0.86-20.66,0.66-30.97,0.23c-27.13-2.71-53.4-13.59-74.44-30.95
		c-21.96-17.94-38.3-42.72-45.92-70.05c-11.25-38.66-4.46-82.2,18.22-115.49C53.99,274.43,94.22,250.94,136.34,248.23
		 M133.37,256.35c-24.06,2.38-47.31,11.7-66.5,26.38c-19.73,15.2-35.23,35.98-43.53,59.48c-14.74,38.6-8.96,84.06,14.16,118.22
		c15.31,22.89,37.88,40.84,63.75,50.35c23.2,8.69,48.92,10.69,73.15,5.46c23.97-4.94,46.44-16.91,63.97-33.99
		c18.38-17.4,31.17-40.4,37.01-64.98c3.23-14.2,4-28.93,2.6-43.41c-4.01-41.2-28.93-79.85-64.99-100.2
		C189.24,259.48,160.84,253.57,133.37,256.35z"/>
	<path class="st0" d="M136.97,291.6c2.85-6.29,6.25-12.37,10.07-18.12c3.91,5.67,7.24,11.82,10.03,18.11
		C150.37,291.62,143.67,291.64,136.97,291.6z"/>
	<path class="st0" d="M133.24,298.05c4.86-0.79,9.84-0.22,14.76-0.39c4.24,0.19,8.57-0.45,12.75,0.39
		c2.69,3.68,5.11,7.65,6.58,11.99c-13.48,0.36-27.01,0.4-40.49-0.03C128.28,305.7,130.71,301.8,133.24,298.05z"/>
	<path class="st0" d="M121.1,319.08c0.76-0.99,1.32-2.82,2.89-2.58c14.67-0.16,29.36,0.01,44.04-0.07c1.38,0.16,3.37-0.34,4.1,1.28
		c2.14,3.48,4,7.13,5.81,10.8c-20.62-0.04-41.25-0.06-61.87,0C117.61,325.29,119.32,322.17,121.1,319.08z"/>
	<path class="st0" d="M40.07,334.79c21.97-0.51,43.97-0.04,65.95-0.23c1.77,0.14,3.87-0.35,5.3,1.02c2.08,3.53,3.92,7.25,4.99,11.23
		c-18.08,0.74-36.21,0.13-54.31,0.33c-5.55-0.12-11.14,0.38-16.65-0.52C43.66,342.65,41.64,338.81,40.07,334.79z"/>
	<path class="st0" d="M182.69,335.57c1.4-1.41,3.52-0.86,5.3-1.02c21.98,0.2,43.97-0.25,65.95,0.24c-1.59,4.04-3.81,7.8-5.35,11.86
		c-2.18,0.37-4.39,0.56-6.59,0.53c-16.67-0.08-33.33,0-50-0.06c-4.77-0.04-9.56,0.24-14.3-0.37
		C178.78,342.8,180.61,339.09,182.69,335.57z"/>
	<path class="st0" d="M-30.495,343.376c8.24,1.61,17.625,5.144,25.725,7.294c2.9,0.74,5.69,1.87,8.32,3.31
		c-8.83,38.16-1.93,79.88,19.55,112.75c18.96,29.8,49.03,52.34,83.01,62.04c13.2,4,27,5.53,40.74,6.01
		c0.15,30.08,0.33,60.17-0.04,90.26c-32.55-21.3-60.83-48.61-85.74-78.34c-14-17.98-27.44-36.5-38.6-56.41
		C1.3,454.02-14.18,414.53-23.99,373.71C-25.91,365.54-30.555,345.056-30.495,343.376z"/>
	<path class="st0" d="M49.07,353.28c22.32,0.05,44.65,0.04,66.97,0.01c1.36,0.17,2.97-0.38,4.17,0.46
		c2.38,3.73,3.91,7.92,5.68,11.96c-2.3,0.18-4.6,0.36-6.9,0.37c-20.01-0.06-40.02-0.03-60.02-0.03c-1.56-0.24-3.9,0.3-4.68-1.5
		C52.36,360.89,50.61,357.12,49.07,353.28z"/>
	<path class="st0" d="M168.12,365.67c1.83-4.09,3.29-8.42,5.89-12.11c18.32-0.38,36.66-0.05,54.99-0.16
		c5.19,0.04,10.4-0.17,15.58,0.2c-1.24,3.81-2.98,7.43-4.89,10.94c-0.78,1.79-3.11,1.19-4.65,1.48c-19.34,0.1-38.69-0.05-58.04,0.06
		C174.03,366.1,171.08,365.85,168.12,365.67z"/>
	<path class="st0" d="M58.16,372.1c23.8,0.13,47.6-0.2,71.4,0.13c1.56,4.2,3.97,8.03,5.39,12.29c-23.27-0.12-46.54,0.02-69.8-0.06
		c-1.4,0.25-1.8-1.37-2.36-2.27C61.17,378.86,59.69,375.47,58.16,372.1z"/>
	<path class="st0" d="M165.29,372.22c23.5-0.29,47.03,0,70.54-0.13c-2.16,4.04-3.4,8.73-6.22,12.32
		c-23.51,0.19-47.04-0.02-70.56,0.1C160.79,380.32,162.32,375.6,165.29,372.22z"/>
	<path class="st0" d="M64.24,390.25c23.57,0.06,47.15,0.04,70.72,0c-1.47,4.24-3.75,8.13-5.36,12.31
		c-23.66,0.26-47.33,0.04-70.99,0.1C59.56,398.16,62.18,394.3,64.24,390.25z"/>
	<path class="st0" d="M159.04,390.24c23.28,0.11,46.55,0,69.82,0.04c1.42-0.23,1.73,1.56,2.35,2.44c1.54,3.15,3.03,6.34,4.52,9.53
		c-2.22,0.4-4.48,0.49-6.72,0.44c-21.54-0.13-43.07,0.17-64.6-0.15C162.74,398.39,160.49,394.49,159.04,390.24z"/>
	<path class="st0" d="M54.68,409.59c1.24-0.83,2.87-0.41,4.28-0.57c22.32,0.06,44.65-0.03,66.97,0.06
		c-1.87,4.09-3.31,8.46-5.98,12.12c-23.5,0.29-47.03,0.29-70.53,0C50.67,417.13,52.63,413.31,54.68,409.59z"/>
	<path class="st0" d="M168.1,409.1c21.96-0.28,43.95,0.08,65.92-0.08c1.74,0.18,3.75-0.38,5.3,0.58c2.15,3.68,3.81,7.64,5.61,11.5
		c-1.96,0.25-3.93,0.4-5.89,0.4c-21.55-0.13-43.11,0.08-64.66-0.11C171.31,417.98,170,413.25,168.1,409.1z"/>
	<path class="st0" d="M45.36,428.14c1.87-0.27,3.74-0.5,5.63-0.5c19.34,0.01,38.67,0,58,0c2.6-0.01,5.21,0.15,7.81,0.38
		c-1.89,3.7-3.3,7.64-5.48,11.18c-1.38,1.37-3.56,0.78-5.3,0.98c-21.99-0.14-43.99,0.36-65.96-0.28
		C41.65,435.9,43.7,432.11,45.36,428.14z"/>
	<path class="st0" d="M177.17,427.92c18.6-0.65,37.22-0.07,55.83-0.28c5.21,0.14,10.46-0.4,15.63,0.46
		c1.55,4.02,3.67,7.78,5.31,11.75c-21.97,0.73-43.97,0.17-65.96,0.34c-1.9-0.23-4.71,0.59-5.68-1.63
		C180.35,435.14,178.91,431.46,177.17,427.92z"/>
	<path class="st0" d="M116.06,446.26c20.63,0,41.26,0,61.89,0c-1.91,4.13-4.39,7.96-6.26,12.1c-16.43-0.08-32.87-0.05-49.3-0.01
		C120.52,454.2,117.92,450.42,116.06,446.26z"/>
	<path class="st0" d="M126.8,464.73c13.54-0.44,27.12-0.36,40.66-0.02c-1.67,4.26-4.03,8.29-6.71,12
		c-9.16,0.71-18.45,0.5-27.64-0.01C130.91,472.76,128.27,469.03,126.8,464.73z"/>
	<path class="st0" d="M136.98,483.19c6.7-0.11,13.4-0.07,20.11-0.03c-2.49,6.09-5.96,11.76-9.43,17.32
		c-0.31-0.01-0.93-0.02-1.24-0.03C143.12,494.8,139.7,489.16,136.98,483.19z"/>
</g>
</svg>
