<?xml version="1.0" encoding="utf-8"?>
<!-- Generator: Adobe Illustrator 21.0.0, SVG Export Plug-In . SVG Version: 6.00 Build 0)  -->
<svg version="1.1" id="Layer_1" xmlns="http://www.w3.org/2000/svg" xmlns:xlink="http://www.w3.org/1999/xlink" x="0px" y="0px"
	 viewBox="0 0 557.3 566.9" style="enable-background:new 0 0 557.3 566.9;" xml:space="preserve">
<style type="text/css">
	.st0{fill:#FFFFFF;stroke:#FFFFFF;stroke-width:9.375000e-02;}
	.st1{fill:#EF4B25;stroke:#EF4B25;stroke-width:9.375000e-02;}
</style>
<path class="st0" d="M467.5,1.7c-27.5,12.1-55,24.2-83.5,33.7c-9.8,3.4-20.2,4.8-30.4,6.3c-3.9,0.5-7.8,1.2-11.8,1.1
	c-46.3,0-92.7,0-139.1,0c-5-0.1-10,1.2-15,1c-31.1,2.2-61.4,14-86,33.1c-7.4,5.6-13.3,12.7-20,19c-15.4,16.8-26.4,37-35.2,57.9
	c-6.2,15.5-11.2,31.6-14.8,47.9c-5,21.5-7.2,43.4-10.6,65.1c-5.4,34.9-12.1,69.6-17.9,104.3C2,378.1,0.4,385,0,392
	c6.2,0.5,12.5,0.1,18.8,0.2c34.7,0,69.4,0,104,0c8.1-0.1,16.1-2.8,22.7-7.6c7.6-5.3,12.4-13.7,15.3-22.4c2-10.4,4.4-20.8,6.4-31.2
	c0.8-3.6,1.9-7.3,1.9-11c-28.6-0.6-57.3,0-86-0.3c6.4-37,12.7-74,18.9-111.1c1.9-11.8,3.7-23.8,8.8-34.7c3.8-8.9,9.3-17,15.6-24.4
	c6.8-6.6,13-14.3,21.5-18.7c8.9-1,18,0.6,26.9-1c24.2-1.8,48.1-7.5,70.6-16.5c3.6-1.7,7.6-1,11.4-1c-4.3,6.8-10,12.6-14,19.6
	c8.6,4.8,18.6,1.4,27.8,1.4c24.9-3.2,49.7-9.6,72-21.5c6.5-2.3,12.5-6,17.7-10.5c7.3-5.3,14.2-11,20.3-17.7
	c9-8.7,19.6-15.8,29.2-23.8c11.6-9.3,23.3-18.7,34.1-28.9c4.1-4.9,9.9-8.1,13.6-13.4C462.6,12,468.6,7,471.9,0.1
	C470.4,0.6,469,1.1,467.5,1.7 M518.4,177.6c-4.2,1.1-8.1,3.4-12.5,3.2c-96.4,0-192.7,0-289.1,0c-16,0.4-31,12.9-33.4,28.8
	c-2.3,13.9-5.4,27.6-6.8,41.6c88.3,0.2,176.7,0.1,265,0c0,6.3-1.1,12.5-2,18.8c-0.5,7.1-1.7,14.2-2.5,21.3c-1,6.2-5.1,11.2-8.9,16
	c-7.9,8.1-18.9,13.9-30.4,13.4c-49,0-98-0.1-147.1,0c-9.7,2.8-18.8,9.2-24.3,17.7c-4,5.7-3.4,12.9-4.2,19.4
	c-4.1,32.9-10.6,65.4-15.8,98.1c-6.4-1.8-12.3-5.1-18.7-6.8c-7.4-2-15.1-3.4-22.8-2.8c2.7,5,6.4,9.3,9.3,14.2
	c7.1,12.4,13.3,25.8,14.6,40.2c1.3,6.4,0.6,12.9-0.8,19.2c-1.4-3.2-1.9-6.7-2.6-10.1c-2.8-13.3-8.9-25.6-15.4-37.3
	c-2.4-3.5-4.2-7.7-7.9-10.1c2.9,9.2,7,18.1,9.8,27.4c6.9,20,12.5,40.4,16.5,61.2c0.4,4-1.1,7.9-1.6,11.9
	c5.9,0.4,147.1,3.4,157.1,3.7c4.3-0.2,8.8,0.6,12.9-1.1c6.7-2.8,13.1-6.4,18.5-11.4c4.8-5.3,8.2-12,9.6-19
	c2.1-12.1,4.1-24.2,6.3-36.3c0.2-1.6,0.9-3.1,1.5-4.5c15.4,0,30.9,0,46.3,0c4.1,0.1,7.7-2.5,11.1-4.4c4.9-3.3,9.9-6.8,13-12
	c2.1-3.4,2.5-7.5,3.3-11.4c2.1-12,3.5-24.1,5.5-36.2c0.5-2.4,0.4-5,0.4-7.4c-14.1,0-28.2,0.1-42.4,0c-12.5-0.5-24.8,8-29,19.7
	c-2.1,5.2-2.4,10.9-3.6,16.4c-2.3,11.4-3.8,23-6.5,34.4c-39.3,0-78.5,0.1-117.8,0c-2.2,0.3-1.6-2.2-1.5-3.5
	c5.5-32.6,11-65.2,16.7-97.8c40.9-0.1,81.8,0,122.7,0c5-0.1,10.1,0.6,14.8-1.5c19.7-8,38.7-19.1,53.3-34.7
	c6.4-5.9,11.3-13.1,16.1-20.3c9.2,8.1,17.2,17.4,26.3,25.7c6.8,5.1,11.9,12.1,18.7,17.3c5.5,4.7,10.3,10.7,17.2,13.5
	c-0.8-2.3-1.8-4.4-3.3-6.3c-6.2-7.5-11.3-15.7-16-24.1c-13.7-25-19.8-53.6-21.3-81.9c0.3-9.8-0.7-19.6,0.8-29.3
	c1-18,4.7-35.7,8.7-53.2c1.8-7.9,4.6-15.6,6.1-23.7C527.4,174.6,523,176.3,518.4,177.6"/>
<path class="st1" d="M467.5,1.7c1.4-0.6,2.9-1.1,4.4-1.6c-3.3,6.9-9.3,12-14.4,17.6c-3.7,5.3-9.5,8.5-13.6,13.4
	c-10.8,10.2-22.5,19.6-34.1,28.9c-9.6,8-20.2,15-29.2,23.8c-6.1,6.7-13,12.4-20.3,17.7c-5.2,4.5-11.2,8.1-17.7,10.5
	c-22.3,11.9-47.1,18.3-72,21.5c-9.2,0.1-19.2,3.5-27.8-1.4c4-7,9.7-12.8,14-19.6c-3.8,0-7.9-0.7-11.4,1c-22.5,9-46.4,14.7-70.6,16.5
	c-8.9,1.6-18,0-26.9,1c-8.5,4.5-14.7,12.1-21.5,18.7c-6.2,7.4-11.7,15.5-15.6,24.4c-5.2,10.9-7,22.9-8.8,34.7
	c-6.2,37.1-12.5,74.1-18.9,111.1c28.7,0.3,57.4-0.3,86,0.3c0,3.8-1.1,7.4-1.9,11c-2,10.4-4.4,20.8-6.4,31.2
	c-2.9,8.6-7.7,17.1-15.3,22.4c-6.6,4.8-14.5,7.5-22.7,7.6c-34.7-0.1-69.4,0-104,0c-6.3-0.1-12.5,0.3-18.8-0.2
	c0.4-7,1.9-13.9,3.2-20.8c5.9-34.8,12.5-69.5,17.9-104.3c3.4-21.7,5.6-43.7,10.6-65.1c3.5-16.4,8.5-32.4,14.8-47.9
	c8.8-20.9,19.8-41.1,35.2-57.9c6.7-6.3,12.6-13.4,20-19c24.6-19.1,54.9-30.9,86-33.1c5,0.2,10-1.1,15-1c46.4,0,92.7,0,139.1,0
	c4,0.1,7.9-0.7,11.8-1.1c10.2-1.4,20.6-2.9,30.4-6.3C412.5,25.9,440.1,13.8,467.5,1.7z"/>
<path class="st1" d="M518.4,177.6c4.6-1.2,9-2.9,13.7-3.8c-1.5,8-4.3,15.7-6.1,23.7c-3.9,17.5-7.6,35.3-8.7,53.2
	c-1.5,9.7-0.5,19.5-0.8,29.3c1.5,28.3,7.6,56.9,21.3,81.9c4.8,8.4,9.9,16.6,16,24.1c1.5,1.9,2.6,4,3.3,6.3
	c-6.9-2.8-11.7-8.8-17.2-13.5c-6.7-5.2-11.8-12.2-18.7-17.3c-9.1-8.3-17.1-17.6-26.3-25.7c-4.8,7.2-9.7,14.5-16.1,20.3
	c-14.7,15.7-33.6,26.7-53.3,34.7c-4.7,2.1-9.9,1.4-14.8,1.5c-40.9,0-81.8,0-122.7,0c-5.7,32.6-11.2,65.2-16.7,97.8
	c-0.1,1.3-0.7,3.8,1.5,3.5c39.3,0.1,78.5,0,117.8,0c2.6-11.4,4.2-22.9,6.5-34.4c1.2-5.5,1.5-11.1,3.6-16.4
	c4.2-11.8,16.5-20.2,29-19.7c14.1,0.1,28.2,0,42.4,0c0,2.5,0.1,5-0.4,7.4c-2,12-3.4,24.1-5.5,36.2c-0.7,3.9-1.2,8-3.3,11.4
	c-3.1,5.2-8.1,8.6-13,12c-3.4,2-7,4.5-11.1,4.4c-15.5-0.1-30.9,0-46.3,0c-0.6,1.5-1.2,3-1.5,4.5c-2.2,12.1-4.2,24.2-6.3,36.3
	c-1.5,7-4.8,13.7-9.6,19c-5.3,5-11.8,8.5-18.5,11.4c-4.1,1.8-8.6,1-12.9,1.1c-10-0.2-151.1-3.3-157.1-3.7c0.5-4,2-7.9,1.6-11.9
	c-4-20.8-9.5-41.2-16.5-61.2c-2.8-9.3-6.9-18.1-9.8-27.4c3.7,2.4,5.5,6.6,7.9,10.1c6.5,11.8,12.6,24,15.4,37.3
	c0.7,3.4,1.2,6.9,2.6,10.1c1.4-6.3,2.1-12.9,0.8-19.2c-1.3-14.4-7.5-27.8-14.6-40.2c-2.9-4.9-6.7-9.2-9.3-14.2
	c7.7-0.5,15.4,0.9,22.8,2.8c6.5,1.6,12.3,5,18.7,6.8c5.3-32.7,11.8-65.2,15.8-98.1c0.8-6.6,0.3-13.7,4.2-19.4
	c5.5-8.6,14.6-14.9,24.3-17.7c49-0.1,98,0,147.1,0c11.5,0.4,22.5-5.3,30.4-13.4c3.8-4.8,8-9.8,8.9-16c0.8-7.1,1.9-14.2,2.5-21.3
	c0.8-6.3,1.9-12.5,2-18.8c-88.3,0.1-176.7,0.1-265,0c1.4-14,4.5-27.8,6.8-41.6c2.4-16,17.4-28.5,33.4-28.8c96.4,0,192.7,0,289.1,0
	C510.3,180.9,514.2,178.7,518.4,177.6z"/>
</svg>
