<?xml version="1.0" encoding="utf-8"?>
<!-- Generator: Adobe Illustrator 19.0.0, SVG Export Plug-In . SVG Version: 6.00 Build 0)  -->
<svg version="1.1" id="Layer_1" xmlns="http://www.w3.org/2000/svg" xmlns:xlink="http://www.w3.org/1999/xlink" x="0px" y="0px"
	 viewBox="568.5 -169 753.8 1180.6" style="enable-background:new 568.5 -169 753.8 1180.6;" xml:space="preserve">
<style type="text/css">
	.st0{fill:#EC1C2D;}
	.st1{fill:#FFFFFF;}
	.st2{fill:#171717;}
</style>
<g id="_x23_ec1c2dff_1_">
	<path class="st0" d="M914.2,436.8c-21.7,0-44.9-3.5-69.1-10.5c-2.6-0.8-5.2-1.6-7.7-2.4c-12.4-3.8-25.3-7.7-37.2-13.9l-0.2-0.1
		c-4.8-2.7-10.7-6.2-13.2-12.3c-1.6-4.4,0.1-9.2,4.6-13.3c19.2-18.6,35.2-33.8,50.5-47.6l1.3-1.2l1.7,0.6c18,6.4,36.9,8.8,51.3,10.3
		c12.1,1.1,24.4,1.7,37.8,1.7c9.9,0,20.1-0.3,31.1-0.9l1.7,5.6c-15.8,9.2-34.2,12.5-48.4,14.3c-5.5,0.7-11.2,1.2-17.6,1.5
		c1.3,0.3,2.5,0.6,3.8,0.8c11.6,2.3,24.3,3.6,40.1,3.8l9.3,0.1l-7.6,5.3c-6.9,4.8-14.9,6.7-21.1,7.8c-4.6,0.8-9.4,1.2-14.5,1.4
		c8.9,1.7,17.6,2.8,25.6,3.8c15,1.7,31.1,2.7,52.1,3.2l1.1,5.8c-17.2,7.2-36.1,9.3-52.2,10.5c-7.2,0.4-14.7,0.7-22.3,0.7
		c-7.1,0-14.3-0.2-21.7-0.6c6.7,1.4,13.3,2.6,19.5,3.7c16.3,2.8,33.8,5.1,56.6,7.3l0.7,5.8C952.9,433.7,934.1,436.8,914.2,436.8z"/>
	<path class="st0" d="M793.4,386.4c16.6-16.1,33.3-32,50.4-47.6c16.7,5.9,34.4,8.7,52,10.4c23,2.2,46.3,2.1,69.4,0.8
		c-14.4,8.4-31,11.8-47.3,13.9c-11,1.4-22.1,1.8-33.1,1.8c5.9,3.3,12.5,5,19,6.4c13.4,2.7,27,3.7,40.6,3.9c-5.9,4.1-12.9,6-19.9,7.3
		c-14.3,2.4-28.9,1.6-43.2,0c17.6,6.1,36,9,54.5,11.2c17.4,2,34.9,2.8,52.4,3.2c-16.2,6.7-33.9,9-51.3,10.3
		c-25.6,1.6-51.2,0.2-76.6-2.7c16.8,5.9,34.3,9.4,51.8,12.5c18.8,3.2,37.8,5.5,56.8,7.3c-39.7,13.8-83.3,9.9-123-1.6
		c-15-4.7-30.3-8.8-44.3-16c-4.7-2.7-9.9-5.7-12-10.9C788.2,392.6,790.7,388.9,793.4,386.4z"/>
	<path class="st0" d="M824.9,883.9c-11.7-6.1-22.9-14.9-35.4-27.5c-18.3-18.7-33-41.5-43.9-67.7c-11.7-28.1-18.6-60-20.7-94.8
		c-10,3.6-20.4,8.2-33.3,14.9c-24.6,13-43.9,27.4-58.9,44.1l-6.6,7.3l1.4-9.7c1.9-13.8,8.7-27.2,21.4-42.3
		c16.6-19.2,38.8-35.7,69.7-51.9c29.1-15,62.9-27.8,103.2-39.1l8.4-2.3l-5.1,7c-9.3,12.7-14.1,29.9-14.3,51.1
		c0.2,26.5,7.8,55.1,23.3,87.3c8.3,17.3,18.7,35,33.7,57.2l-3.9,4.3c-8.7-4.6-17.3-10.2-25.6-16.6c-3.1-2.4-5.9-4.8-8.5-7.1
		c5.8,11.5,12.4,22.3,19.5,32.4c4.7,6.6,10.3,13,17.2,19.6l-3.7,4.7c-13.6-8.7-26.2-18.1-36.7-26.2c-3.1-2.5-6.3-5-9.4-7.6
		c9,14.1,18.4,28.2,29,41.1l-3.8,4.5c-14.4-8.4-27.1-16.9-38.8-26c-0.9-0.7-1.9-1.5-2.8-2.2c8,14.2,17.1,28.3,28.4,40.9L824.9,883.9
		z"/>
	<path class="st0" d="M720,658.9c32.6-16.8,67.4-29,102.7-38.9c-11.1,15.2-14.7,34.4-14.9,52.9c0.2,31,10.3,61,23.5,88.6
		c9.6,20.1,21.5,39.1,33.9,57.6c-8.8-4.7-17.3-10.2-25.2-16.3c-8.5-6.5-16.4-14-22.1-23.1c7.7,18.4,17.2,36.2,28.8,52.4
		c5.2,7.3,11.1,13.9,17.5,20.1c-12.6-8.1-24.7-17-36.5-26.1c-9.5-7.5-18.9-15.2-26.8-24.3c13.3,21.2,26.4,42.7,42.2,62.1
		c-13.3-7.8-26.3-16.3-38.5-25.8c-5.8-4.5-11.1-9.5-16.1-14.9c10.6,20.4,22.2,40.7,37.7,57.9c-13-6.8-24.4-16.5-34.7-26.9
		c-18.7-19.1-33.1-42.1-43.3-66.7c-12.8-31-19.1-64.4-20.7-97.8c-12.9,4.3-25.4,10.1-37.5,16.3c-22.1,11.6-43,26.1-59.8,44.8
		c2.2-15.5,10.9-29.1,20.7-40.8C670,688.2,694.5,672.1,720,658.9z"/>
	<path class="st0" d="M945.1,965.2c-17.6-1.5-34.1-7.9-50.9-14.8c-20.4-8.7-40.8-19-62.5-31.4l-3.1-1.8l2.4-2.8
		c41.7-48.6,83.4-97.3,125.1-145.9c39.5-46.1,79-92.1,118.5-138.2l1.3-1.5l1.9,0.6c3.1,0.9,6.2,1.9,9.3,2.8c3.2,1,6.5,2,9.7,2.9
		l5.1,1.5l-3.9,3.6c-14.8,13.6-25.1,31.7-32.4,46c-2.3,4.7-5,10.3-7.7,16.4c13.6-12.5,29.8-22.4,47.6-28.9l3.3,4.8
		c-23.6,27-46,54.9-66.3,83.1c-18.7,25.9-33.9,48.5-46.9,69.6c15.4-13.9,32.2-27.8,51.1-42.2l4.4,3.9
		c-11.6,19.5-23.6,39.3-35.1,58.5c-7.6,12.5-15.2,25.1-22.7,37.6c-5.8,9.5-11.5,19-17.2,28.5c-9.1,15.2-18.6,30.9-28,46.2l-1,1.6
		L945.1,965.2z"/>
	<path class="st0" d="M833.2,916.4c81.2-94.7,162.4-189.4,243.6-284.1c6.4,1.9,12.7,3.8,19.1,5.7c-14.2,13-24.3,29.8-33.1,46.8
		c-4.9,9.9-9.5,20-13.2,30.4c15.3-17.4,35.1-30.8,56.8-38.8c-23.4,26.7-45.7,54.5-66.5,83.3c-20.5,28.5-40.3,57.7-58,88.1
		c20.9-20.2,43.3-38.9,66.4-56.5c-19.1,32.1-38.6,64-57.8,96.1c-15.1,24.9-30,49.9-45.2,74.8c-17.4-1.5-34-8-50-14.6
		C874,938.5,853.3,928,833.2,916.4z"/>
</g>
<g id="_x23_ffffffff">
	<path class="st1" d="M692.3-169c18.9,0.5,37.8,0.9,56.7,1.3c32-0.4,63.6,12.1,88,32.6c24.6,20.5,41.4,49.4,50.1,80
		c4.2,13.9,6.2,28.3,9,42.6c13,9.5,22.8,23,28.2,38.1c5.7,15.7,7,32.7,5.7,49.3c-1.1,13.2-2.1,26.4-3.2,39.6
		c12.3-0.6,24.6-0.6,36.9,0c-1-14.3-1.9-28.5-2.9-42.8c-1.1-19,1.4-38.7,10.1-55.9c5.7-11.1,13.8-21,23.9-28.3
		c3.4-18.5,6.3-37.3,13-55c11-30.7,30.9-58.5,58.2-76.7c19.6-13.1,42.4-21.6,66-23.2c22.2-0.6,44.4-1,66.6-1.6
		c-6.4,20.8-12.8,41.6-19.2,62.4c-2.4,11,0.6,22.2,2.9,32.9c4.3,18.8,11.3,36.9,16.1,55.6c6.1,26.6,6.7,54.1,6,81.3
		c15.1,0,30.2,0,45.3,0c-0.2,16.9-0.6,33.7-1,50.6c-0.7,24.2-6.3,48-14.3,70.7c3.4,10.2,6.2,20.8,12.1,29.9
		c8.2,13,18.5,24.8,30.7,34.3c8.7,7,17.3,14.1,25.9,21.1c-6.9,11.5-13.8,22.9-20.7,34.4c-6.6,10.9-11.7,22.7-15,34.9
		c9.3,24.7,12,51.4,11.2,77.6c-0.8,13.7-1.8,27.5-2.7,41.2c-10.9,1.5-21.8,3-32.7,4.4c6.1,22.1,12.2,44.2,18.3,66.3
		c-3.4,4.4-6.8,8.8-10.2,13.3c0.6,18.6,1.4,37.3,2,55.9c-3.2,13.2-8.7,25.8-16.1,37.2c29.1,20,54.1,46.3,71.2,77.3
		c5.1,10,9.4,20.3,14.1,30.5c-11,15.7-21.8,31.5-33.6,46.6c-70,90.2-165.5,159.9-271.8,201c-23.1,8.8-46.8,16.6-71.1,21.2
		c-19.9-3.3-39.2-9.5-58.2-16.1c-115.4-41.5-218.8-116.7-292.3-215c-9.3-12.3-17.9-25.1-26.8-37.7c6.3-13.2,11.4-26.9,19.3-39.3
		c16.9-27.1,39.7-50.3,66-68.4c-6-9.3-10.9-19.5-14.1-30.1c-0.7-2.7-2.1-5.3-2-8.1c0.7-18.3,1.4-36.6,2-54.9
		c-3.4-4.4-6.8-8.8-10.2-13.3c6.1-22.1,12.2-44.2,18.3-66.3c-10.9-1.5-21.8-3-32.8-4.5c-1.1-22.1-4-44.1-2.3-66.2
		c1.2-17.9,4.4-35.8,10.8-52.6c-2.9-10.3-6.9-20.4-12-29.8c-7.7-13.3-15.8-26.4-23.6-39.6c9.8-8,19.5-15.9,29.3-23.9
		c6.3-5.1,11.8-11,17-17.2c7.8-9.5,14.7-20.1,18.3-31.9c1.2-4.3,3.3-8.5,4-12.9c-8.4-23.1-13.7-47.6-14.3-72.2
		c-0.3-16.2-0.6-32.4-0.9-48.6c15.1,0.1,30.2,0,45.3,0c-0.8-29.6,0-59.8,7.8-88.5c6.1-19.8,12.9-39.5,16.6-59.9
		c1.2-7.6,2.4-15.5,0-23C704.7-128.4,698.5-148.7,692.3-169 M728.9-141.3c2.8,9.1,5.6,18.1,8.3,27.2c3.4,12,1.8,24.8-0.4,36.9
		c-3.6,18-9.2,35.5-14.7,53c-2.5,7.5-4.3,15.2-5.6,23c-4.7,30.2-3.8,60.9-1.7,91.3c-15.4,0-30.9,0-46.3,0c0,6.6,0.2,13.1,0.4,19.7
		c0.4,25.4,6.5,50.6,16.2,74c-3.4,10-6.5,20-10.3,29.9c-6.8,16.5-18,31-30.4,43.7c-6.6,6.9-14.3,12.5-21.7,18.6
		c4.4,7.6,9.2,14.9,13.3,22.7c7.2,13.6,12.5,28.1,15.4,43.2c-13.3,28.8-13.9,61.5-11.3,92.5c13.7,1.8,28,2.9,40.3,10
		c-7.3,26.2-14.5,52.4-21.8,78.6c2.1,2.9,4.5,5.5,6.4,8.6c2.2,4.4,1.1,9.5,1.1,14.2c-0.5,16.4-1.4,32.8-1.7,49.1
		c4.9,18.4,16.3,34.5,30.4,47c-11.1,5.5-21.7,11.9-31.7,19.2c-27.4,20.3-51,47-64.2,78.8c14.1,20.5,29.1,40.4,45.5,59
		c52.4,60,117.1,109.1,188.6,144.4c32.9,16.1,67.2,29.8,102.8,38.9c4.2,0.8,8.5,2.8,12.8,1.4c27.7-6.4,54.5-16.2,80.6-27.3
		c37.8-16.4,74-36.6,107.9-60.1c60.5-42,113-95.3,154.3-156.3c-3.7-8.3-7.4-16.6-12.5-24.2c-20.3-31.6-49.7-57.2-83.4-73.8
		c14.2-12.5,25.6-28.8,30.4-47.2c-0.5-19.3-1.5-38.6-1.9-57.9c-0.1-5.8,4.9-9.5,7.8-14c-7.4-26.1-14.4-52.3-21.8-78.4
		c12.2-7.2,26.6-8.2,40.3-10.1c1-12.5,1.9-25,1.1-37.5c-1-18.8-4.1-37.8-12.3-54.9c2.3-12.2,6.3-24.1,11.5-35.4
		c4.8-10.7,11.3-20.5,17.2-30.6c-6.7-5.6-13.9-10.9-20.1-17.1c-10-9.9-19-20.9-26-33.1c-7.7-13-11.1-27.9-16.3-42
		c7.3-17.5,12.6-35.9,14.9-54.8c1.7-12.9,1.4-26,1.8-39c-15.5,0-30.9,0-46.4,0c1.1-12.7,1.6-25.5,1.8-38.2c0.1-23.4-0.8-47.2-7-69.9
		c-3.4-11.2-7.1-22.3-10.3-33.6c-4.4-16.1-8.9-32.5-8.7-49.3c0-9.1,3.4-17.5,5.9-26.1c1.5-4.7,2.9-9.5,4.4-14.2
		c-10.3,0.4-20.6,0.3-30.9,0.9c-12.8,1.3-25.2,5.1-36.7,10.8c-28.1,13.5-49.1,39.2-60.1,68.1c-6.8,16.9-9.7,34.9-12.9,52.8
		c6,1.2,12.1,2.3,18.1,3.4c3.4,0.6,6.3,2.6,8.8,4.7c-8.6,0.3-17.4,0-25.4,3.2c-16,5.6-27.9,20-32.3,36.1c-5.9,19.7-2.1,40.4-1,60.5
		c8.3-2.9,16.5-6,24.8-8.8c8.7-2.2,18.4-2.6,26.5,1.5c7,3.5,11.3,10.8,13.6,18c5.4,17.2,7.2,35.7,3.9,53.4
		c-27.9-13.5-58.8-19.6-89.5-21.6c-24-1.5-48.2-0.8-72,2.6c-22.2,3.3-44.2,9.2-64.5,19c-3.4-17.8-1.5-36.3,3.8-53.4
		c2.5-7.8,7.3-15.6,15.2-18.8c9.7-3.9,20.8-2.6,30.4,1.1c6.4,2.3,12.8,4.6,19.2,6.9c1.2-19.7,5-39.9-0.5-59.3
		c-4.3-16.7-16.4-31.7-33-37.4c-8-3.2-16.7-2.9-25.1-3.1c2.4-2.1,5.2-4,8.5-4.6c6.2-1,12.4-1.7,18.6-2.7
		c-2.5-13.5-4.5-27.1-8.5-40.3c-6-20.4-16-39.9-30.4-55.7c-18.3-20.2-44-33.8-71.2-36.6C749.3-140.9,739.1-140.9,728.9-141.3z"/>
	<path class="st1" d="M1091.1-98.9c12.3-9.3,26.5-16.4,41.7-19.3c-20.8,21.7-33.3,50.5-38,79.9c-18.1-0.2-35.5,6.9-50.6,16.4
		C1051.2-51.6,1066.4-80.3,1091.1-98.9z"/>
	<path class="st1" d="M756.8-117.8c20.6,21,35.9,47.7,41.4,76.8c0.1,1.6,0.9,3.3,0.1,4.8c-8.7,20.2-14.9,41.4-19.4,62.9
		c-9.5,46.4-9.9,95,1.8,141c8.8,35.2,24.9,68.4,46.4,97.5l1.2,0.9c-0.3,0.1-0.7,0.2-1,0.3c-2.6-3.4-5.9-6-8.7-9.1
		c-23.8-24.8-43.8-53.4-58.5-84.5c-17.5-36.9-26.7-78.1-23.9-119c2.3-33.6,6-67.3,14.7-99.9c2.9-11.3,6.7-22.4,8.4-34
		C761.2-92.7,759.4-105.5,756.8-117.8z"/>
	<path class="st1" d="M1048-15.8c14.8-7.8,31-14.2,48-14.4c5.4,18.1,4.4,37.9-1.7,55.8c-4.1,11.9-10.6,22.8-18.5,32.5
		c5-15.2,9.5-31.3,6.9-47.4c-1.2,9.1-2.9,18.1-6,26.7c-1.7,4.7-4,9.2-7.4,12.9c2.9-12.9,6.2-26.5,2.8-39.7
		c-1.4,11.2-2.5,22.9-7.9,33.1c0.5-12.6,0-25.5-3.5-37.7C1058.3-2.2,1054.5-10.1,1048-15.8z"/>
	<path class="st1" d="M796.9,14.6c7.4,9.6,15.3,19.3,25.7,25.7c6.8,4.4,15.4,3.6,23,2c4.9-1.2,10.2-3.9,12-9
		c1.6-4.2,0.3-8.7-1.1-12.7c8.9,1.9,16.5,8,20.9,15.9c6,10.7,7,23.4,6.6,35.4c-4-5.6-7.6-11.8-13.4-15.7c-3.6-2.5-8.2-0.8-12.1,0.3
		c-8.5,2.4-15.8,8.2-24.7,9.2c-16.2,2.5-35.3-3.8-42.7-19.4c6.5,3.1,13.1,6.3,20.4,6.7c-6.8-4.6-13.6-9.4-19-15.6
		c-1.7-1.9-2.9-4.3-3.8-6.7c7.5,4.9,15.1,9.9,23.9,12.2C806.4,34.2,798.5,25.6,796.9,14.6z"/>
	<path class="st1" d="M1107.8,29.1c6.4,23.8,10.1,48.3,11.7,72.9c2.6,41.9-1.3,85-17.6,124.1c-12.2,29.5-32.3,55.8-58.2,74.6
		c-12.1,8.9-25.2,16.2-39,22c22.7-22.2,42-48,56.6-76.3c11-21.6,19-44.9,21.9-69c4.2-32.9-2.6-66.8-18.2-95.9
		C1085,69.8,1098.6,49.8,1107.8,29.1z"/>
	<path class="st1" d="M691.3,116.7c8.6-1.8,17.3-3.4,25.9-5.1c1.9,5.6,6,10,9.9,14.2c4.6,4.9,9.7,9.3,14.8,13.7c-4.3-2-8.6-4-13-6
		c4.1,5.2,8.4,10.3,12.5,15.5c-4.2-1.8-8.3-3.7-12.5-5.5c4.8,6.1,9.9,11.9,14.6,18c-17.7-14.6-35-29.5-52.5-44.3
		C691.1,117.1,691.2,116.8,691.3,116.7z"/>
	<path class="st1" d="M690.5,126.2c7.9,6.2,15.7,12.5,23.6,18.7c5.6,27.4,19.6,52.2,35.1,75.1c-5.6-11.9-7.6-25.1-8.2-38.1
		c7.4,17.1,18.8,32.1,31.2,45.9c19.1,21.1,40.8,39.8,63.5,57c-35.1-9.4-69.1-25.8-95.5-51.2C710.9,205.8,692,166.7,690.5,126.2z"/>
	<path class="st1" d="M849.4,177.3c27.6-11.9,58.4-14.5,88.1-11.9c-17.5,4.6-34.9,10.9-49.9,21.1c-9.7,6.7-18.6,16-20.6,28
		c12-10.5,24.8-20.2,38.6-28.1c9.7-5.5,20-10.1,31-12.4c-9.7,17.4-17.7,36-23,55.3c-4.4,16.1-6.9,33-4.5,49.7c0.3,1.1,0,2.9,1.4,3.4
		c13,6.7,27.5,10.4,42.1,11.4c-18.8,4.6-38.8,4.4-57.7-0.1c-20-4.7-38.4-15.1-53-29.5c-16-15.6-27.6-35.2-35.7-55.9
		C817.6,194.5,833,184.4,849.4,177.3z"/>
	<path class="st1" d="M695.4,214.7c14,15,33.2,23.6,51.9,31.3c-5,11.7-10,23.4-15.1,35.1c-5.2-7.6-6-17-7.3-25.8
		c-5.7-2.3-11.1-5.2-16.8-7.6c3.7,13.4,12.6,24.4,21.3,34.9c10.6,11.8,22.2,23.7,37,30.1c16.7,4.9,30.6,16.4,42,29.3
		c-7.3,0.5-14.2-2.3-20.5-5.6c2.3,10.3,9,18.8,14.3,27.7c-7.6-8.8-16.6-17.5-28.1-20.9c-7.2-2.2-15.3,0-20.4,5.4
		c-6.6,6.2-8.6,15.8-7.2,24.5c2,13.3,8.7,25.4,16.2,36.4c-13.8-6.8-24.3-18.5-34-30.1c-6.2-7.6-12-15.5-17.4-23.6
		c5.2,4,11,7.1,17.2,9.2c-1.7-5.8-2-12.3,0.5-17.9c3.9-9,11.9-15.4,20.3-19.9c-29-15.2-48.1-45.3-54-77c-6.8,12.1-16,22.8-27,31.2
		c-0.1,11.8-0.3,23.6-0.6,35.4c-6.4-12.6-12.3-25.4-18.7-38C671.9,264.2,687,240,695.4,214.7z"/>
	<path class="st1" d="M890.8,302.8c20.7,4.5,42,5.6,63.1,6c9.8,0.1,19.5,0.2,29.2-0.4c-18.2,6.5-37.4,9.2-56.5,11.4
		c14.6,2.5,29.5,2.8,44.3,2.8c-13.3,4.8-27.3,7.5-41,10.8c16,2.5,32.2,1.9,48.3,2.5c-12.3,2.7-24.8,3.8-37.3,4.9
		c-14.3,1.1-28.7,2-43.1,1.5c-5.3-0.5-11.5-0.9-15.1-5.2c-3-4.2-1.2-9.7,0.3-14.2C885.5,316.1,888.1,309.4,890.8,302.8z"/>
	<path class="st1" d="M1097.3,364.9c-1.3-11.4,6.3-23.1,17.5-26.2c-3.5,9.6-5.7,21.2,0.1,30.4c5.1,7.8,15.1,9.9,23.8,10.3
		c-7.6,4.1-16.4,7.4-25.2,5.8C1104,383.5,1098,374,1097.3,364.9z"/>
	<path class="st1" d="M662.4,371.8c1.9-9,4.4-18.3,9.9-25.9c5.2,4.8,10.5,9.4,15.7,14.1c-9.4,12.7-12.9,29.2-10.8,44.7
		c14,3.8,26.6,12,36.2,22.8c9,10.2,15.3,22.7,18.8,35.8c-17.3-24.1-44.3-41.1-73.7-45.3C658.5,402.6,659.5,387,662.4,371.8z"/>
	<path class="st1" d="M800,424.8c3-2.8,6.4-5,10-6.9c3.1,19.8,11.9,40.2,28.9,51.9c-10.7-0.7-21.9-2.4-30.7-8.9
		c3.5,9.7,11.8,17,21.4,20.5c14.3,5.2,30.6,4.7,44.3-1.9c18-8.5,32.5-22.8,44.4-38.6c6,7.1,9.5,16.8,7.1,26c10.3-5.8,23-10.1,34.7-6
		c-16.5,8.6-28.9,24.3-34.5,41.9c-5.6,17.2-5.1,35.8-1.7,53.3c12-6.2,20.5-17.6,26.1-29.7c2.3,22-1.8,46-16.4,63.3
		c13.6-0.2,29.1,2.1,38.7,12.8c10.9,0.6,24.1,3.5,29.2,14.4c-6.5,3.2-14.9,4.8-21.1,0.2c-5.7,3.5-13.5,4.3-19,0
		c-5,3.4-12.3,4.7-17,0c-4.7,2.4-10.8,3.6-15.2,0c-7.3,3.7-16.8,5.3-23.8,0.1c-7.9,1.2-17.2,4.7-24.4-0.3
		c-1.5-11.6,7-21.6,16.3-27.2c-12.2,0.7-24.9,5.9-31.9,16.4c1.6-18.3-3.3-37.3-14.6-51.9c-13.5-17.7-35-27.3-56.4-31.6
		c-6.9-19.8-11.5-40.8-9.9-61.8C785.4,447.6,790,434,800,424.8z"/>
	<path class="st1" d="M678.8,519.6c7-25.3,14.1-50.5,21.2-75.8c5.7,4.1,11.3,8.3,17,12.4c-7.1,19.2-14.2,38.4-21.2,57.5
		c4,7.7,10.4,13.8,16.5,19.9c11.7,11.1,24.4,21.2,37.4,30.9C722.3,556.8,697.8,540.5,678.8,519.6z"/>
	<path class="st1" d="M1051.8,480.9c14.7-1.3,30.3-8.4,36.5-22.6c2,8.9,1.8,18.9-2.9,27c-3.9,6.9-10.9,11.5-18.3,14
		c-9.3,3.1-19.2,3.5-28.8,3.3c8.5,4.6,18.4,6.3,27.9,4.6c-17.3,5-36.8,8.1-53.9,0.5c-13.2-5.7-21.4-18.9-24.3-32.5
		c10,10.9,24.5,17,39.1,17.9c14.6,1.1,29-2.8,42.3-8.5C1063.3,485,1057.1,483.8,1051.8,480.9z"/>
	<path class="st1" d="M1111.3,509.4c3.9,5.6,5.2,12.4,6.8,18.9c2.1-4.7,2.5-9.9,2.9-15c3.7,10.4,3.7,21.8,2.9,32.7
		c-0.7,9.2-2.6,18.3-4.4,27.3c0.2-6.3-1.3-12.5-3-18.6c-0.4,7.4-3.7,14.1-7.4,20.4C1114.9,553.7,1113.5,531.2,1111.3,509.4z"/>
	<path class="st1" d="M684.3,538c6,5,11.9,10,17.9,14.9c-1.4,12.8-3,25.5-4.5,38.2c7.8,12.9,16.5,25.4,26.5,36.6
		c4.5,5.2,9.6,9.9,15.1,14c-15.6-5.7-30.3-14.3-42.3-25.8c-7.6-7.4-14.2-16.1-18.1-26C680.4,572.6,682.5,555.3,684.3,538z"/>
	<path class="st1" d="M755.9,540.9c14.2-0.8,28.7,2.5,40.7,10.3c11.7,7.6,20.8,18.9,26.2,31.7c-4.5-8.3-12.3-14.5-20.8-18.2
		c7.4,6.5,11.9,15.6,14.5,25C802.5,567.1,779.7,551.5,755.9,540.9z"/>
	<path class="st1" d="M814.6,552.9c13.1,5.4,26.3,13.1,34,25.4c4.5,6.8,4,15.1,5.8,22.8c2.8,13.1,8,26.2,17.4,36
		c4.8,5.1,10.7,9.2,17.4,11.4c-4.9-7.1-9.8-15.9-7.3-24.8c5.7,0.5,11.1,2.9,15.3,6.7c7.3-2.8,15,0.5,20.9,4.8c7-4.4,15.9-3.5,23,0
		c7.1-3.5,16-4.4,23,0c5.9-4.4,13.6-7.6,20.9-4.8c4.2-3.6,9.4-6.3,15-6.6c3.6,2.4,3.1,7.8,1.7,11.5c-3.7,9.1-11,16-18,22.6
		c12.8-3.8,25.6-8,36.9-15.1c-3.5,11.6-12.3,20.6-21.5,28.1c-17.2,13.6-37.5,22.5-58,29.5c-25.9-8.2-50.8-20.5-71.8-37.8
		c-11.1-9.3-21.3-20.1-28-33.1c-7.1-16.1-7.6-34-13-50.6C825.3,569.5,820.9,560.5,814.6,552.9z"/>
	<path class="st1" d="M1114.1,592c1.7-4.4,3.5-8.8,5.2-13.3c-0.5,24.2-1,48.5-1.5,72.7c-4.8,0-9.6,0-14.4,0
		c2.1-23.8,4.1-47.6,6.1-71.5C1111,584,1112.4,588,1114.1,592z"/>
</g>
<g id="_x23_171717ff">
	<path class="st2" d="M728.9-141.3c10.2,0.4,20.4,0.3,30.7,0.9c27.2,2.8,52.9,16.4,71.2,36.6c14.4,15.8,24.4,35.3,30.4,55.7
		c4,13.2,5.9,26.8,8.5,40.3c-6.2,1-12.4,1.7-18.6,2.7c-3.3,0.6-6,2.5-8.5,4.6c8.4,0.3,17.1,0,25.1,3.1c16.5,5.7,28.7,20.7,33,37.4
		c5.5,19.4,1.7,39.6,0.5,59.3c-6.4-2.3-12.8-4.6-19.2-6.9c-9.5-3.8-20.7-5-30.4-1.1c-7.9,3.2-12.7,11-15.2,18.8
		c-5.4,17.2-7.2,35.7-3.8,53.4c20.3-9.8,42.2-15.7,64.5-19c23.8-3.5,48-4.1,72-2.6c30.8,2,61.6,8.2,89.5,21.6
		c3.4-17.8,1.5-36.2-3.9-53.4c-2.3-7.3-6.6-14.5-13.6-18c-8.2-4.1-17.9-3.7-26.5-1.5c-8.3,2.8-16.6,5.9-24.8,8.8
		c-1-20.1-4.9-40.8,1-60.5c4.5-16.1,16.3-30.5,32.3-36.1c8.1-3.3,16.9-3,25.4-3.2c-2.6-2.2-5.5-4.1-8.8-4.7
		c-6-1.2-12.1-2.2-18.1-3.4c3.2-17.8,6-35.9,12.9-52.8c11-28.9,32-54.6,60.1-68.1c11.5-5.6,24-9.5,36.7-10.8
		c10.3-0.6,20.6-0.5,30.9-0.9c-1.5,4.7-2.9,9.5-4.4,14.2c-2.5,8.5-5.9,17-5.9,26.1c-0.3,16.8,4.2,33.2,8.7,49.3
		c3.2,11.3,6.9,22.4,10.3,33.6c6.2,22.7,7.1,46.4,7,69.9c-0.2,12.8-0.7,25.5-1.8,38.2c15.5,0,30.9,0,46.4,0c-0.4,13,0,26-1.8,39
		c-2.3,18.9-7.6,37.3-14.9,54.8c5.1,14.1,8.6,29,16.3,42c7,12.2,16,23.2,26,33.1c6.2,6.2,13.3,11.4,20.1,17.1
		c-5.9,10.1-12.4,19.9-17.2,30.6c-5.2,11.3-9.3,23.1-11.5,35.4c8.2,17.1,11.3,36.1,12.3,54.9c0.8,12.5-0.1,25-1.1,37.5
		c-13.7,1.9-28.1,2.8-40.3,10.1c7.4,26.1,14.5,52.3,21.8,78.4c-2.8,4.5-7.9,8.2-7.8,14c0.4,19.3,1.5,38.6,1.9,57.9
		c-4.9,18.4-16.3,34.7-30.4,47.2c33.7,16.6,63,42.2,83.4,73.8c5,7.6,8.8,15.9,12.5,24.2c-41.2,61-93.8,114.3-154.3,156.3
		c-33.8,23.6-70,43.7-107.9,60.1c-26.1,11.2-52.9,20.9-80.6,27.3c-4.3,1.4-8.6-0.6-12.8-1.4c-35.6-9.1-69.8-22.8-102.8-38.9
		C761.9,908.1,697.2,859,644.8,799c-16.4-18.7-31.5-38.5-45.5-59c13.1-31.8,36.7-58.5,64.2-78.8c10-7.3,20.6-13.7,31.7-19.2
		c-14.1-12.5-25.5-28.7-30.4-47c0.3-16.4,1.2-32.8,1.7-49.1c0-4.7,1.1-9.8-1.1-14.2c-1.9-3-4.3-5.7-6.4-8.6
		c7.3-26.2,14.5-52.4,21.8-78.6c-12.3-7-26.6-8.1-40.3-10c-2.6-31-2-63.7,11.3-92.5c-2.9-15.1-8.3-29.6-15.4-43.2
		c-4.1-7.8-8.9-15.1-13.3-22.7c7.3-6.1,15-11.8,21.7-18.6c12.5-12.7,23.6-27.2,30.4-43.7c3.7-9.9,6.8-19.9,10.3-29.9
		c-9.8-23.4-15.9-48.6-16.2-74c-0.2-6.6-0.3-13.2-0.4-19.7c15.4,0,30.9,0,46.3,0c-2.1-30.4-3.1-61.1,1.7-91.3
		c1.3-7.8,3.1-15.5,5.6-23c5.5-17.5,11.1-35,14.7-53c2.3-12.1,3.8-24.8,0.4-36.9C734.5-123.1,731.6-132.2,728.9-141.3 M1091.1-98.9
		c-24.6,18.7-39.9,47.3-46.9,77c15.1-9.5,32.5-16.6,50.6-16.4c4.7-29.5,17.2-58.2,38-79.9C1117.5-115.3,1103.3-108.3,1091.1-98.9
		 M756.8-117.8c2.6,12.4,4.4,25.2,2.6,37.8c-1.7,11.6-5.5,22.6-8.4,34c-8.7,32.6-12.5,66.3-14.7,99.9c-2.7,40.9,6.5,82.1,23.9,119
		c14.7,31.1,34.7,59.7,58.5,84.5c2.9,3.1,6.2,5.8,8.7,9.1c0.3-0.1,0.7-0.2,1-0.3l-1.2-0.9c-21.5-29.1-37.6-62.3-46.4-97.5
		c-11.7-46-11.3-94.7-1.8-141c4.5-21.5,10.7-42.7,19.4-62.9c0.8-1.5,0-3.3-0.1-4.8C792.7-70.1,777.3-96.8,756.8-117.8 M1048-15.8
		c6.4,5.7,10.3,13.7,12.6,21.8c3.5,12.2,4,25.1,3.5,37.7c5.4-10.2,6.5-21.8,7.9-33.1c3.5,13.1,0.1,26.7-2.8,39.7
		c3.4-3.7,5.7-8.3,7.4-12.9c3.1-8.6,4.8-17.7,6-26.7c2.6,16.1-1.9,32.2-6.9,47.4c7.9-9.7,14.5-20.6,18.5-32.5
		c6.1-17.8,7.2-37.6,1.7-55.8C1079.1-30,1062.9-23.7,1048-15.8 M796.9,14.6c1.6,11,9.5,19.6,15.7,28.3c-8.8-2.3-16.4-7.3-23.9-12.2
		c0.9,2.4,2.1,4.7,3.8,6.7c5.4,6.3,12.2,11,19,15.6c-7.3-0.4-14-3.6-20.4-6.7c7.4,15.6,26.5,21.9,42.7,19.4c8.9-1,16.2-6.9,24.7-9.2
		c3.9-1,8.4-2.7,12.1-0.3c5.8,3.9,9.5,10.1,13.4,15.7c0.4-12-0.5-24.7-6.6-35.4c-4.4-7.9-12-14-20.9-15.9c1.3,4.1,2.7,8.5,1.1,12.7
		c-1.8,5.1-7,7.8-12,9c-7.5,1.6-16.2,2.4-23-2C812.2,33.8,804.3,24.1,796.9,14.6 M1107.8,29.1c-9.2,20.7-22.7,40.8-42.7,52.3
		c15.6,29.1,22.4,63,18.2,95.9c-2.9,24.1-10.9,47.5-21.9,69c-14.5,28.3-33.8,54.1-56.6,76.3c13.8-5.9,26.9-13.2,39-22
		c25.9-18.8,46-45.1,58.2-74.6c16.3-39,20.2-82.2,17.6-124.1C1117.9,77.3,1114.2,52.9,1107.8,29.1 M691.3,116.7
		c0,0.1-0.2,0.4-0.2,0.6c17.5,14.8,34.9,29.7,52.5,44.3c-4.7-6.1-9.8-12-14.6-18c4.2,1.8,8.3,3.7,12.5,5.5
		c-4.1-5.2-8.4-10.3-12.5-15.5c4.3,2,8.6,4,13,6c-5.1-4.4-10.2-8.8-14.8-13.7c-3.9-4.2-8-8.6-9.9-14.2
		C708.5,113.3,699.9,114.9,691.3,116.7 M690.5,126.2c1.6,40.5,20.5,79.6,49.6,107.5c26.4,25.4,60.4,41.8,95.5,51.2
		c-22.7-17.2-44.4-35.9-63.5-57c-12.3-13.8-23.8-28.8-31.2-45.9c0.7,13,2.6,26.2,8.2,38.1c-15.5-22.9-29.5-47.7-35.1-75.1
		C706.2,138.7,698.3,132.4,690.5,126.2 M849.4,177.3c-16.4,7.1-31.8,17.2-43.3,31c8.1,20.7,19.8,40.3,35.7,55.9
		c14.6,14.3,33.1,24.7,53,29.5c18.9,4.5,38.8,4.7,57.7,0.1c-14.6-0.9-29-4.7-42.1-11.4c-1.4-0.5-1.1-2.3-1.4-3.4
		c-2.4-16.6,0.1-33.6,4.5-49.7c5.3-19.3,13.3-37.8,23-55.3c-11,2.3-21.3,6.9-31,12.4c-13.9,7.9-26.7,17.5-38.6,28.1
		c2-12,11-21.3,20.6-28c15-10.3,32.4-16.6,49.9-21.1C907.8,162.8,877,165.5,849.4,177.3 M695.4,214.7c-8.3,25.3-23.5,49.5-46.3,64
		c6.3,12.6,12.3,25.4,18.7,38c0.3-11.8,0.5-23.6,0.6-35.4c11-8.4,20.3-19.1,27-31.2c5.8,31.7,25,61.8,54,77
		c-8.4,4.6-16.4,11-20.3,19.9c-2.5,5.6-2.3,12.1-0.5,17.9c-6.2-2.1-12-5.3-17.2-9.2c5.4,8.1,11.1,16.1,17.4,23.6
		c9.8,11.6,20.3,23.3,34,30.1c-7.6-11-14.2-23.1-16.2-36.4c-1.4-8.7,0.6-18.3,7.2-24.5c5.1-5.4,13.2-7.6,20.4-5.4
		c11.5,3.4,20.5,12.1,28.1,20.9c-5.3-8.9-12-17.4-14.3-27.7c6.3,3.3,13.2,6.1,20.5,5.6c-11.3-12.8-25.3-24.4-42-29.3
		c-14.8-6.4-26.4-18.3-37-30.1c-8.7-10.5-17.6-21.6-21.3-34.9c5.6,2.4,11.1,5.2,16.8,7.6c1.3,8.8,2.1,18.2,7.3,25.8
		c5.1-11.7,10.1-23.4,15.1-35.1C728.6,238.3,709.4,229.7,695.4,214.7 M890.8,302.8c-2.7,6.6-5.3,13.3-7.7,20.1
		c-1.5,4.4-3.3,10-0.3,14.2c3.7,4.3,9.9,4.8,15.1,5.2c14.4,0.4,28.7-0.5,43.1-1.5c12.5-1.1,25-2.2,37.3-4.9
		c-16.1-0.6-32.3,0-48.3-2.5c13.8-3.3,27.7-6,41-10.8c-14.8-0.1-29.7-0.3-44.3-2.8c19.1-2.2,38.3-4.9,56.5-11.4
		c-9.7,0.6-19.5,0.5-29.2,0.4C932.8,308.3,911.6,307.3,890.8,302.8 M793.4,386.4c-2.7,2.5-5.3,6.2-3.8,10c2.1,5.2,7.3,8.2,12,10.9
		c14,7.3,29.4,11.3,44.3,16c39.7,11.5,83.4,15.4,123,1.6c-19-1.9-38-4.1-56.8-7.3c-17.5-3.1-35-6.6-51.8-12.5
		c25.4,2.9,51.1,4.3,76.6,2.7c17.4-1.3,35.1-3.5,51.3-10.3c-17.5-0.4-35-1.2-52.4-3.2c-18.4-2.2-36.9-5.1-54.5-11.2
		c14.3,1.6,28.9,2.4,43.2,0c7-1.2,14-3.2,19.9-7.3c-13.6-0.2-27.3-1.2-40.6-3.9c-6.5-1.4-13.1-3.2-19-6.4c11.1,0,22.1-0.4,33.1-1.8
		c16.3-2.1,32.9-5.5,47.3-13.9c-23.1,1.3-46.3,1.4-69.4-0.8c-17.6-1.7-35.3-4.5-52-10.4C826.8,354.4,810,370.3,793.4,386.4
		 M1097.3,364.9c0.8,9.1,6.8,18.6,16.3,20.3c8.8,1.5,17.6-1.7,25.2-5.8c-8.7-0.4-18.7-2.4-23.8-10.3c-5.8-9.2-3.6-20.8-0.1-30.4
		C1103.5,341.8,1096,353.5,1097.3,364.9 M662.4,371.8c-3,15.2-3.9,30.8-3.9,46.2c29.4,4.2,56.4,21.3,73.7,45.3
		c-3.5-13.1-9.8-25.6-18.8-35.8c-9.6-10.8-22.2-19-36.2-22.8c-2.1-15.5,1.4-32,10.8-44.7c-5.2-4.8-10.5-9.4-15.7-14.1
		C666.8,353.5,664.4,362.8,662.4,371.8 M800,424.8c-10,9.1-14.6,22.8-15.6,36c-1.6,21,3,42,9.9,61.8c21.4,4.3,42.8,13.9,56.4,31.6
		c11.3,14.6,16.2,33.6,14.6,51.9c7-10.4,19.7-15.7,31.9-16.4c-9.4,5.6-17.8,15.6-16.3,27.2c7.3,5,16.6,1.5,24.4,0.3
		c7,5.2,16.5,3.6,23.8-0.1c4.4,3.6,10.5,2.4,15.2,0c4.7,4.6,12,3.4,17,0c5.5,4.3,13.3,3.5,19,0c6.2,4.6,14.6,3.1,21.1-0.2
		c-5.1-10.9-18.3-13.8-29.2-14.4c-9.6-10.7-25-13-38.7-12.8c14.6-17.3,18.7-41.3,16.4-63.3c-5.6,12.1-14.1,23.4-26.1,29.7
		c-3.4-17.6-3.9-36.1,1.7-53.3c5.6-17.6,17.9-33.3,34.5-41.9c-11.7-4.1-24.3,0.2-34.7,6c2.5-9.2-1.1-18.9-7.1-26
		c-11.9,15.7-26.5,30-44.4,38.6c-13.7,6.6-30.1,7.1-44.3,1.9c-9.5-3.5-17.9-10.8-21.4-20.5c8.8,6.5,20,8.2,30.7,8.9
		c-17-11.7-25.8-32-28.9-51.9C806.4,419.8,803,422,800,424.8 M678.8,519.6c19,20.9,43.5,37.3,70.9,44.9
		c-12.9-9.7-25.6-19.7-37.4-30.9c-6.2-6-12.5-12.2-16.5-19.9c7-19.2,14.2-38.4,21.2-57.5c-5.7-4.2-11.3-8.3-17-12.4
		C692.9,469,685.8,494.3,678.8,519.6 M1051.8,480.9c5.4,2.9,11.5,4.1,17.6,3.6c-13.3,5.7-27.7,9.5-42.3,8.5
		c-14.6-0.9-29.1-7-39.1-17.9c2.9,13.6,11.2,26.9,24.3,32.5c17.1,7.6,36.6,4.6,53.9-0.5c-9.5,1.7-19.4,0-27.9-4.6
		c9.7,0.3,19.6-0.1,28.8-3.3c7.4-2.4,14.4-7.1,18.3-14c4.7-8.1,4.9-18.1,2.9-27C1082.1,472.5,1066.5,479.6,1051.8,480.9
		 M1111.3,509.4c2.2,21.8,3.6,44.3-2.2,65.6c3.7-6.2,7-13,7.4-20.4c1.7,6,3.1,12.3,3,18.6c1.8-9,3.7-18.1,4.4-27.3
		c0.8-10.9,0.9-22.2-2.9-32.7c-0.4,5.1-0.8,10.3-2.9,15C1116.5,521.8,1115.2,515,1111.3,509.4 M684.3,538c-1.8,17.3-3.9,34.6-5.4,52
		c3.9,9.9,10.5,18.6,18.1,26c12,11.5,26.7,20.2,42.3,25.8c-5.5-4.2-10.5-8.9-15.1-14c-10-11.3-18.7-23.7-26.5-36.6
		c1.5-12.7,3.1-25.5,4.5-38.2C696.2,548,690.3,542.9,684.3,538 M755.9,540.9c23.8,10.6,46.7,26.1,60.5,48.7c-2.5-9.4-7-18.6-14.5-25
		c8.6,3.8,16.3,9.9,20.8,18.2c-5.4-12.8-14.5-24.1-26.2-31.7C784.6,543.5,770.1,540.2,755.9,540.9 M814.6,552.9
		c6.3,7.6,10.6,16.7,13.5,26.1c5.4,16.6,6,34.5,13,50.6c6.7,13,17,23.7,28,33.1c21.1,17.3,45.9,29.6,71.8,37.8
		c20.6-7.1,40.9-16,58-29.5c9.2-7.5,18-16.5,21.5-28.1c-11.3,7.1-24.2,11.3-36.9,15.1c7.1-6.5,14.4-13.5,18-22.6
		c1.4-3.7,1.9-9-1.7-11.5c-5.6,0.3-10.8,3-15,6.6c-7.3-2.8-15,0.4-20.9,4.8c-7-4.4-15.9-3.5-23,0c-7.1-3.5-16-4.4-23,0
		c-5.9-4.3-13.6-7.6-20.9-4.8c-4.2-3.8-9.6-6.3-15.3-6.7c-2.6,8.9,2.3,17.7,7.3,24.8c-6.7-2.2-12.6-6.3-17.4-11.4
		c-9.3-9.9-14.6-22.9-17.4-36c-1.8-7.6-1.3-16-5.8-22.8C840.9,566,827.7,558.3,814.6,552.9 M1114.1,592c-1.7-4-3.1-8-4.6-12.1
		c-2.1,23.8-4.1,47.6-6.1,71.5c4.8,0,9.6,0,14.4,0c0.5-24.2,1-48.5,1.5-72.7C1117.6,583.2,1115.8,587.6,1114.1,592 M720,658.9
		c-25.4,13.3-50,29.3-68.8,51.2c-9.9,11.8-18.6,25.4-20.7,40.8c16.8-18.7,37.7-33.1,59.8-44.8c12.1-6.3,24.5-12,37.5-16.3
		c1.6,33.4,7.9,66.8,20.7,97.8c10.2,24.6,24.6,47.6,43.3,66.7c10.3,10.4,21.6,20.1,34.7,26.9c-15.5-17.2-27.1-37.4-37.7-57.9
		c5,5.4,10.3,10.4,16.1,14.9c12.2,9.5,25.1,18,38.5,25.8c-15.8-19.4-28.9-40.9-42.2-62.1c7.9,9.2,17.3,16.9,26.8,24.3
		c11.9,9.1,23.9,18,36.5,26.1c-6.4-6.2-12.4-12.8-17.5-20.1c-11.6-16.3-21.2-34-28.8-52.4c5.7,9.1,13.6,16.5,22.1,23.1
		c7.9,6.1,16.3,11.6,25.2,16.3c-12.5-18.5-24.3-37.5-33.9-57.6c-13.3-27.7-23.3-57.7-23.5-88.6c0.1-18.4,3.8-37.7,14.9-52.9
		C787.4,629.9,752.6,642.1,720,658.9 M833.2,916.4c20.1,11.5,40.8,22.1,62.1,31.2c16,6.6,32.6,13.1,50,14.6
		c15.2-24.8,30.1-49.9,45.2-74.8c19.2-32,38.7-63.9,57.8-96.1c-23.1,17.6-45.5,36.3-66.4,56.5c17.6-30.4,37.4-59.5,58-88.1
		c20.8-28.8,43.1-56.6,66.5-83.3c-21.7,8-41.5,21.3-56.8,38.8c3.6-10.5,8.3-20.5,13.2-30.4c8.7-17,18.8-33.8,33.1-46.8
		c-6.4-1.9-12.7-3.8-19.1-5.7C995.6,727,914.4,821.8,833.2,916.4z"/>
</g>
<g id="_x23_ec1c2dff">
	<path class="st0" d="M793.4,386.4c16.6-16.1,33.3-32,50.4-47.6c16.7,5.9,34.4,8.7,52,10.4c23,2.2,46.3,2.1,69.4,0.8
		c-14.4,8.4-31,11.8-47.3,13.9c-11,1.4-22.1,1.8-33.1,1.8c5.9,3.3,12.5,5,19,6.4c13.4,2.7,27,3.7,40.6,3.9c-5.9,4.1-12.9,6-19.9,7.3
		c-14.3,2.4-28.9,1.6-43.2,0c17.6,6.1,36,9,54.5,11.2c17.4,2,34.9,2.8,52.4,3.2c-16.2,6.7-33.9,9-51.3,10.3
		c-25.6,1.6-51.2,0.2-76.6-2.7c16.8,5.9,34.3,9.4,51.8,12.5c18.8,3.2,37.8,5.5,56.8,7.3c-39.7,13.8-83.3,9.9-123-1.6
		c-15-4.7-30.3-8.8-44.3-16c-4.7-2.7-9.9-5.7-12-10.9C788.2,392.6,790.7,388.9,793.4,386.4z"/>
	<path class="st0" d="M720,658.9c32.6-16.8,67.4-29,102.7-38.9c-11.1,15.2-14.7,34.4-14.9,52.9c0.2,31,10.3,61,23.5,88.6
		c9.6,20.1,21.5,39.1,33.9,57.6c-8.8-4.7-17.3-10.2-25.2-16.3c-8.5-6.5-16.4-14-22.1-23.1c7.7,18.4,17.2,36.2,28.8,52.4
		c5.2,7.3,11.1,13.9,17.5,20.1c-12.6-8.1-24.7-17-36.5-26.1c-9.5-7.5-18.9-15.2-26.8-24.3c13.3,21.2,26.4,42.7,42.2,62.1
		c-13.3-7.8-26.3-16.3-38.5-25.8c-5.8-4.5-11.1-9.5-16.1-14.9c10.6,20.4,22.2,40.7,37.7,57.9c-13-6.8-24.4-16.5-34.7-26.9
		c-18.7-19.1-33.1-42.1-43.3-66.7c-12.8-31-19.1-64.4-20.7-97.8c-12.9,4.3-25.4,10.1-37.5,16.3c-22.1,11.6-43,26.1-59.8,44.8
		c2.2-15.5,10.9-29.1,20.7-40.8C670,688.2,694.5,672.1,720,658.9z"/>
	<path class="st0" d="M833.2,916.4c81.2-94.7,162.4-189.4,243.6-284.1c6.4,1.9,12.7,3.8,19.1,5.7c-14.2,13-24.3,29.8-33.1,46.8
		c-4.9,9.9-9.5,20-13.2,30.4c15.3-17.4,35.1-30.8,56.8-38.8c-23.4,26.7-45.7,54.5-66.5,83.3c-20.5,28.5-40.3,57.7-58,88.1
		c20.9-20.2,43.3-38.9,66.4-56.5c-19.1,32.1-38.6,64-57.8,96.1c-15.1,24.9-30,49.9-45.2,74.8c-17.4-1.5-34-8-50-14.6
		C874,938.5,853.3,928,833.2,916.4z"/>
</g>
</svg>
