<?xml version="1.0" encoding="utf-8"?>
<!-- Generator: Adobe Illustrator 19.0.0, SVG Export Plug-In . SVG Version: 6.00 Build 0)  -->
<svg version="1.1" id="Layer_1" xmlns="http://www.w3.org/2000/svg" xmlns:xlink="http://www.w3.org/1999/xlink" x="0px" y="0px"
	 viewBox="109.7 -26.6 811.5 894.5" style="enable-background:new 109.7 -26.6 811.5 894.5;" xml:space="preserve">
<style type="text/css">
	.st0{fill:#0E121A;}
	.st1{fill:#D92027;}
	.st2{fill:#A62C2A;}
	.st3{fill:#6A0C0D;}
	.st4{fill:#581211;}
	.st5{fill:#F4F5F6;}
	.st6{fill:#060606;}
	.st7{fill:#0C0C0D;}
	.st8{fill:#010101;}
	.st9{fill:#0B0C0D;}
	.st10{fill:#070707;}
	.st11{fill:#010102;}
	.st12{fill:#000003;}
	.st13{fill:#00000C;}
	.st14{fill:#040404;}
	.st15{fill:#050505;}
	.st16{fill:#000004;}
</style>
<g id="_x23_0e121aff_1_">
	<path class="st0" d="M515.6,836.5c-61.8-53.4-113.9-104.8-159-157.3c-0.4-0.4-0.8-0.9-1.2-1.3c-1-1.2-1.8-2.2-2.9-2.5
		c-47.7-12.8-90.8-31-128.1-54c-2.3,2.6-4.6,5.1-6.9,7.7c-4.8,5.3-9.7,10.7-14.4,16.2l-1.9,2.2l-1.4-2.5c-2.9-5.1-5.5-10.4-8-15.6
		c-1.6-3.3-3.3-6.7-5.1-10.1c-4.5-8.1-5.7-17.3-6.9-26.1c-0.2-1.4-0.4-2.7-0.5-4.1c-2-17.7-3.6-35.7-5.1-53.1
		c-1.2-14.4-2.5-29.2-4-43.8l0-0.2l0-0.2c0.3-6.2,0.7-12.4,1.1-18.5c0.3-5.3,0.7-10.7,1-16.1l0-0.1c0.2-1.5,0.2-3.1,0.3-4.6
		c0.2-3.7,0.4-7.4,1.6-11.1c3.8-13.9,6.4-26.7,8.1-39.1c-8-20.8-16.3-43.2-23-65.7c-19.1-63.3-28.6-126.4-28.1-187.6
		c0.7-28.8,2.8-52.1,6.7-73.3c2.1-12.5,5.8-24.8,9.4-36.7c1.7-5.6,3.4-11.3,4.9-17l0.6-2.1l2,0.7c7.4,2.6,14.8,5.6,21.9,8.4
		c5.6,2.2,11.5,4.6,17.3,6.7c44,16.3,92.7,24.6,144.6,24.6c27.5,0,56-2.4,84.6-7c3.4-14.5,11.9-27.5,23.8-36.7
		c9.4-7.5,21-12.5,33.5-14.4c0-2.8-0.1-5.7-0.2-9.1l-0.1-2.1l2.1,0c9.3,0,18.6,0,27.8,0l34.4,0l11.8,0v2c0,3.4,0,6.4-0.1,9.2
		C575,5.2,592.5,16,603,31.2c4.3,5.9,7.5,13.1,10,22.4c29.4,4.4,56.3,6.6,82.2,6.6c5.9,0,11.9-0.1,17.7-0.3
		c46.8-1.5,91-10.2,131.5-25.8c4.5-1.7,9.1-3.5,13.5-5.3c7-2.8,14.3-5.7,21.5-8.3l2-0.7l0.6,2.1c1.1,3.6,2.1,7.3,3.2,10.9
		c2.9,9.7,5.9,19.8,8.5,29.8c7.4,32.8,10.4,69.6,9.1,112.5c-1.8,46.2-9.1,93.4-21.7,140.3c-6.7,25.3-15.4,51.6-27.4,82.9
		c1.4,11.1,3.7,23.3,7.1,37.1c0.3,1.5,0.8,3,1.2,4.5c1,3.5,2,7.2,2,11.1c0.2,6.1,0.6,12.3,1,18.3c0.5,7.7,1.1,15.7,1.2,23.6l0,0.1
		l0,0.1c-1.5,14-2.7,28.3-3.9,42.1c-1.6,18.4-3.2,37.4-5.4,56c-0.2,1.1-0.3,2.1-0.4,3.1c-1.1,8.1-2.3,16.5-6.2,24
		c-1.7,3.3-3.3,6.6-5,9.9c-2.7,5.4-5.5,11.1-8.4,16.6l-1.3,2.5l-1.9-2c-3-3.1-5.9-6.4-8.7-9.5c-1.8-2-3.6-4-5.4-6
		c-43.8,18.4-90.5,34-139,46.5c-0.4,0.2-0.7,0.5-1,0.9l-0.1,0.1l-0.1,0.1c-44.2,51.5-95.1,102.2-155.6,154.8l-0.1,0.1
		c-0.6,0.4-1.2,1-1.8,1.6c-1.2,1.2-2.5,2.5-4.4,3.2l-1.1,0.4L515.6,836.5z M465.2,695c0.7,0.7,1.4,1.4,2.1,2.1
		c0.8,0.8,1.5,1.5,2.3,2.3c9.3,9.4,17.2,17.1,24.6,24.2c2.4,2.3,4.9,4.6,7.2,6.9c5.1,5,10.4,10.1,16,14.7c3.3-3.2,6.8-6.4,10.1-9.5
		c5.9-5.5,12-11.2,17.7-17.1c-4.5-3.9-8.9-8-13.1-12c-3-2.8-6.1-5.8-9.2-8.6l-0.1-0.1l-0.1-0.1c-0.4-0.5-0.9-0.7-2.4-0.7
		c-0.4,0-0.8,0-1.2,0c-0.5,0-0.9,0-1.4,0c-0.3,0-0.6,0-0.8,0c-2,0-4,0.1-6.1,0.1c-12,0-24.2-0.8-36-1.6
		C471.6,695.4,468.4,695.2,465.2,695z M545,700.9c1.1,0,2.1,0.1,3.1,0.1c1.6,0,3.2-0.1,4.8-0.2c0.3-11.7,0.2-23.6,0.2-35.1
		c0-7.8-0.1-15.9,0-23.8c0-18.9,0-37.9,0-56.8c0-30.8,0-62.7,0-94.1c-0.1-0.5-0.1-1.1,0-1.6c0-0.3,0-0.6,0-0.9
		c-3.5,0.1-7.4,0.1-12.1,0.1c-2.6,0-5.2,0-7.8,0c-2.6,0-5.2,0-7.8,0c-4.5,0-8.2,0-11.6,0.1c-5,3.4-9.8,7.1-14.5,10.7
		c-4.3,3.3-8.8,6.8-13.3,9.9c0.3,23.2,0.2,46.7,0.2,69.4c0,14.1-0.1,28.7,0,43.1c0,6,0,12,0,17.9c0,9.7,0.1,19.6-0.2,29.5l0,0.3
		l-0.1,0.3c-0.5,1.2-0.9,2.5-1.4,3.7c-0.2,0.5-0.4,1-0.6,1.4c0.1,0,0.1,0,0.2,0c0.6,0.1,1.1,0.1,1.7,0.2l4.1,0.4l-1.2,1.2
		c3.5,0.1,6.9,0.1,10.3,0.1c2.4,0,4.8,0,7.2,0c0.4,0,0.8,0,1.2,0l1.2,0c1.5,0,2.9-0.1,4-0.7l0.5-0.3l0.6,0c0.7,0,1.4,0,2.1,0
		c1.2,0,2.5,0,3.7,0c1.2,0,2.4,0,3.6,0c1,0,2.1,0,3.1,0l1,0l0.6,0.8c3.6,4.9,7.2,9.9,10.7,14.8c2.2,3.1,4.4,6.1,6.6,9.2L545,700.9z
		 M563,674.9c1.7,0.1,3.4,0.2,5,0.2c1.4,0,2.6-0.1,3.8-0.2c0.3,0,0.4,0,0.5-0.4l0.4-1.3l1.3-0.1c12.1-1.4,21.3-2.7,29.9-4.3
		c4.8-4.1,9.4-8.6,13.8-13c3.3-3.2,6.7-6.6,10.2-9.8c0.4-0.4,0.8-0.8,1.2-1.1c0.9-0.8,1.3-1.2,1.3-1.6l0-0.1v-0.1
		c0-51.4,0-102.8,0-154.2c-4.4-0.1-8.6-0.1-12-0.1c-2.2,0-4.3,0-6.5,0c-2.2,0-4.3,0-6.5,0c-0.7,0-1.3,0-2,0c0,17.5,0,34.9,0,52.4
		c0,27.5,0,55.8,0.1,83.8l0,1.8l-1.7,0.2c-0.9,0.1-1.9,0.2-2.8,0.4c-2.3,0.3-4.7,0.6-7.1,0.9l-2.2,0.2l0-2.2c0-18.6,0-37.3,0-55.9
		c0-26.7,0-54.3,0-81.5c-1.5,0-3,0-4.5,0c-2,0-4,0-6,0c-2,0-4,0-6,0c-4.1,0-7.3,0-10.3-0.1c-0.1,0.4-0.1,0.9-0.2,1.6
		c0,0.3,0,0.5,0,0.8c0.1,28.7,0,58,0,86.2c0,14.6,0,29.2,0,43.7c0.1,7.4,0,14.9,0,22.1C562.8,653.5,562.7,664.3,563,674.9z
		 M447,671.3c6.2,0.9,12.4,1.5,18.5,2.1c2.8,0.3,5.6,0.5,8.3,0.8c0.1-0.4,0.2-0.8,0.1-1.2l0-0.1c0-20.7,0-41.4,0-62.1
		c0-31,0-61.9,0-92.9c-0.1-1.1,0-2.2,0-3.2c0-1.4,0.1-2.8-0.1-4.1l-0.3-0.2c-3-2.5-6-4.9-8.9-7.4c-5.7-4.8-11.6-9.7-17.6-14.3
		c-6.8-0.1-13.6-0.1-20.2-0.1c-6.8,0-13.7,0-20.4,0.1c0,27.5,0,54.9,0,82.4c0,28.3,0,56.6,0,84.9c0,2.6-1.1,4.8-2,7
		c-0.1,0.2-0.2,0.5-0.3,0.7c1.3,0.3,2.6,0.6,3.9,0.8c8.3,1.8,16.8,3.6,25.3,5.2c0-22.4,0-44.8,0-67.1c0-30.8,0-61.6,0-92.4l0-2l2,0
		c1.4,0,2.9,0,4.3,0c1.8,0,3.5,0,5.3,0l2,0l0,2C447,557.8,447,614.2,447,671.3z M640,655.8c0.1,1,0.1,2.1,0,3.1
		c-0.1,1.3-0.2,2.4,0.1,3c23.6-7,46.6-14,69-23.2c0.2-3.6,0.2-7.3,0.1-10.9c0-2.6-0.1-5.3,0-7.9c-0.1-4.4,0-8.9,0-13.2
		c0-5.1,0.1-10.4-0.1-15.6l-0.3,0.3l-0.4,0.1c-7.3,2.3-15.2,4.5-24.8,6.9c0,10.2,0,22.1,0,34.2l0,1.5l-1.5,0.4
		c-1.1,0.3-2.2,0.6-3.3,0.9c-0.7,0.2-1.4,0.4-2.1,0.6l-0.4,0.1l-0.7-0.1c-1.3-0.2-2.5-0.4-3.8-0.6l-1.7-0.2l0-1.7
		c-0.1-9.1-0.1-18.3,0-27.3c0-3.1,0-6.3,0-9.4l0-0.6c-0.1-4.3-0.2-8.8,0.5-13.3l0.2-1.4l1.4-0.3c1.7-0.3,3.4-0.7,5.2-1
		c3.8-0.7,7.8-1.5,11.7-2.4c2.4-5.4,5-10.8,7.5-16c0.2-0.4,0.4-0.9,0.6-1.3c-6.9,1.3-13.9,2.3-20.7,3.3c-2.1,0.3-4.1,0.6-6.2,0.9
		l-2.3,0.4l0-2.3c-0.1-18.7-0.1-37.2,0-54.9l0-1.9l1.9-0.1c1.8-0.1,3.6-0.1,5.4-0.1c0.9,0,1.7,0,2.6,0l1.9,0l0,1.9
		c0.1,6.9,0.1,13.9,0.1,20.7c0,2.4,0,4.9,0,7.3c0,0.6,0,1.3,0,2c0,1.1,0,2.2,0.1,3.2l1-0.1c7.9-0.9,16-1.9,24-3c0-16.5,0-33,0-49.4
		c-1.3,0-2.6,0-3.9,0c-2.2,0-4.5,0-6.7,0c-2.2,0-4.5,0-6.7,0c-6.3,0-13.7,0-21,0.4c-8.6,6.1-17.7,12.7-26.2,19.9l-0.4,0.4
		c-0.3,10-0.2,20-0.2,29.8c0,6.5,0.1,13.3,0,19.9c0,14,0,28,0,41.9C640,618.9,640,637.5,640,655.8z M364.5,653
		c0.5,0.1,1,0.3,1.4,0.4c0.6,0.2,1.1,0.4,1.5,0.4c0.1,0,0.2,0,0.3-0.1c10.1-4.2,17.6-7.8,24.5-11.6l0.4-0.2c0,0,2.1,0,2.9,0
		c0.1,0,0.3,0,0.4,0c0-50.8,0-102.3,0-153.2l-17.4,0c-5.5,0-11,0-16.6,0c-0.2,0-0.9,0-0.9,0c-1.1,0-2,0-2.6,0.4l-0.1,0.1l-5.1,2.9
		c-7.2,4.1-14.4,8.2-21.6,12.4c-1.2,0.6-2.3,1.1-3.6,1.5l-0.1,0c0,0.2,0,0.4,0,0.6c0,0.5,0,1-0.1,1.5c0,11.2,0,22.4,0,33.6
		c0,15.8,0,31.5,0,47.3c0,6,0,12.1,0,18c-0.1,10-0.1,20.3,0.2,30.4l0,0.5l-0.2,0.4c-0.2,0.5-0.5,1-0.8,1.5
		C340.5,645,352.7,649.4,364.5,653z M718,488.6c0,42.6,0,88.1,0,146.7c8.6-3.9,17.4-7.9,25.9-12.2c0.1-12,0.1-24.1,0-35.9
		c0-7.2,0-14.3,0-21.5l0-1.5l1.4-0.4c1.2-0.4,2.5-0.7,3.7-1.1c2.3-0.7,4.6-1.3,6.8-2.1l2.6-0.9l0,2.7c0.1,14.6,0.1,30.3,0,49.2
		c3.7,1.2,7.5,2.4,11.2,3.5c4,1.2,8.1,2.5,12.2,3.8c0-0.3,0-0.7,0.1-1.2c0-0.4,0-0.7,0-1.1c-0.1-8.2,0-16.5,0-24.5
		c0-11.8,0.1-24-0.2-36l-0.2-0.2c-1.3-0.9-2.5-1.8-3.8-2.7c-1.4-1-2.9-2.1-4.4-3.2l-1.5-1.2l1.1-1.6c2.5-3.6,4.7-6.4,6.8-8.9
		l0.2-0.2l0.2-0.2c0.4-0.2,0.7-0.4,1.1-0.6c0.2-0.1,0.6-0.3,0.8-0.4l0-0.2c0-4.2,0-8.4,0-12.5c0.1-7.3,0.1-14.8-0.2-22.1l-0.1,0
		c-9-4.1-18-8.7-26.7-13.5c-4.3-0.1-9.1-0.2-15-0.2c-3.1,0-6.2,0-9.2,0c-3.1,0-6.2,0-9.3,0C720.5,488.6,719.3,488.6,718,488.6z
		 M254.6,603.4c13.9,8.5,26.4,15.4,38.4,20.9l1.2,0.5l0,2.5c3.2-1.1,6.4-2.2,9.5-3.4c4.7-1.7,9.5-3.4,14.4-5c0-0.2,0-0.5,0-0.7
		c0-0.5,0-1.1,0.1-1.6c-0.1-5.3,0-10.7,0-15.8c0-7.4,0.1-15.1-0.1-22.6c-4.4-1.6-9-2.9-13.4-4.3c-4.1-1.2-8.4-2.5-12.5-4
		c0,0.2,0,0.3,0,0.5c0,0.5,0,1.1-0.1,1.7c0,5,0,9.9,0,14.9c0,6.2,0,12.6,0,18.8c0.1,2.2-1.2,3.9-3.5,4.4l-0.7,0.2l-1.8-0.9
		c-1.2-0.6-2.5-1.2-3.7-1.9l-1-0.6l0-1.2c-0.2-31-0.2-62.5-0.1-93l0-10.4l1.7-0.2c1.4-0.2,2.7-0.4,3.7-0.9l0.5-0.3l1.8,0.1l0.5,0.6
		c0.7,0.7,1.6,1.3,3,1.8l1.3,0.5l0,1.4c0.1,4.3,0.1,8.7,0.1,13c0,4.7-0.1,9.6,0.1,14.4l7.3,1.2c5.8,1,11.9,2,17.8,2.9v-48.3
		c-4.4,0-8.7,0-13.1,0c-7.3,0-14.6,0-21.8,0H284l-0.1,0c-0.1,0-0.2,0-0.3,0c-1.1,0-2.3,0.7-3.6,1.4c-0.4,0.2-0.8,0.4-1.1,0.6
		c-7.1,4-14.9,7.8-23.7,11.6c-0.3,10.9-0.2,22-0.1,32.7c0,7.9,0.1,16,0,24c0.1,5.4,0,10.9,0,16.2c-0.1,8.6-0.2,17.6,0.3,26.3l0,0.6
		C255.4,602,254.7,603.1,254.6,603.4z M755,421.2c9.7,9.5,18,20.5,24.7,32.7c15.1,27.1,22.6,57.6,29.8,87c1.3,5.1,2.5,10.2,3.8,15.3
		c2.4,9.6,5.4,20.8,10,31.4c1.6,3.4,3.5,7.3,6.1,10.7c0,0,0,0,0-0.1c1.5-6.6,2.3-13.5,3-20.2c0.1-1.2,0.3-2.4,0.4-3.5
		c1.5-14.6,2.8-29.6,4-44c1-12.1,2.1-24.7,3.3-37c0.3-2.4,0.5-4.7,0.8-7c0.9-8.4,1.8-17.1,3.9-25.5c-1.4-0.6-2.8-1.3-4.2-1.9
		c-3.4-1.5-6.8-3-10.2-4.5c-10.6-4.8-21.4-9.6-31.9-14.2c-6.7-3-13.4-6-20.1-8.9c-4.3-1.8-8.6-3.8-12.8-5.7
		C762.1,424.3,758.5,422.7,755,421.2z M191.6,461.2c2.2,8.6,3.1,17.4,4,26c0.3,2.5,0.5,5.1,0.8,7.6c1.2,12.3,2.3,24.7,3.3,36.7
		c1.2,14.5,2.5,29.4,4.1,44.1c0.2,1.8,0.4,3.6,0.6,5.4c0.7,5.8,1.3,11.7,2.7,17.4c1.6-2.1,2.8-4.6,4-7.1l0.4-0.9
		c4.5-10.6,6.9-21.9,9.3-34.5c0.8-4,1.5-8.1,2.3-12.1c2.2-12,4.5-24.3,7.6-36.4c7-28.2,17.1-50.3,30.8-67.7
		c4.5-5.8,9.8-11.4,16.3-17c-7.4,3.3-14.8,6.6-22.2,9.8c-16.3,7.2-33.1,14.7-49.7,22.2c-3.7,1.5-7.4,3.2-10.9,4.8
		C194,460.1,192.8,460.6,191.6,461.2z M330,322.9c0.1,1.8,0.3,3.6,0.4,5.3c0.3,4.2,0.7,8.5,0.7,12.7c0,1.8,0,3.7,0,5.6
		c-0.1,3.1-0.1,6.4,0.1,9.5l0,0.1l0,0.1c-1.6,34.7-9.4,66.9-23.1,95.8c-0.6,1.2-1.2,2.4-1.8,3.6c-0.5,1-1,1.9-1.5,2.8
		c32.3-0.1,65.1-0.1,96.8-0.1c32.9,0,66.9,0,100.3-0.1c0.3-12.8,0.2-25.7,0.2-38.3c0-7.9-0.1-16.1,0-24.1c0-7.4,0-15,0-22.3
		c0-11.9,0.1-24.2-0.2-36.3l0-0.1c0-0.7,0.1-1.5,0.1-2.2c0.2-4.4,0.4-9-0.5-13.3c-2.5-8.9-10.5-16-19.9-17.7
		c-7.7-1.6-15.4-3.1-23.1-4.7c-8-1.7-16-3.3-24-4.9C403.6,310.6,367.4,320.5,330,322.9z M534.5,322.7c-0.5,3.3-0.4,6.7-0.3,10.3
		c0,1.4,0.1,2.7,0.1,4.1c-0.1,21.8-0.1,43.9-0.1,65.3c0,17.2,0,35,0,52.4c0,1.1,0.1,2.3,0.2,3.5c22,0,44,0,66,0l76.2,0
		c18.3,0,36.6,0,54.9,0c-17.6-34.4-26.7-74.2-26.2-115.2c0.1-1.9,0.2-3.7,0.3-5.5c0.2-4.8,0.4-9.8,1.1-14.7
		c-37.7-2.6-74-12.5-104.9-28.7c-9.1,2-18.4,3.9-27.4,5.7c-6.8,1.4-13.8,2.8-20.7,4.3C544.2,306.4,536.6,313.8,534.5,322.7z
		 M829.3,443.4c1.8,0.9,3.6,1.8,5.3,2.7c1.3,0.7,2.6,1.4,4,2.1c-3.2-11.1-5.8-22.6-7.8-34.1c-4.6-25-6.6-50.6-8.6-75.5
		c-0.9-10.9-1.8-22.1-2.9-33.2c-8.3,6.3-15.5,11.1-22.4,15c-18.9,10.5-40.6,16.7-62.9,17.9c2.7,19.9,5.6,39.3,8.6,57.8l0,0.1l0,0.1
		c0.2,2.8,2.7,4.7,6.4,6.7c14.8,7.5,30,15.1,44.7,22.3c11.4,5.6,23.2,11.5,34.7,17.3l0.9,0.5L829.3,443.4z M217.1,305.4
		c-0.8,8.6-1.4,17.3-2.1,25.7c-1.9,24.6-3.9,50.1-7.9,75c-2,13-5,26.8-9.1,42c2.5-1.3,5-2.6,7.5-4c1.2-0.6,2.4-1.3,3.6-1.9
		c12.7-6.5,25.7-12.9,38.2-19.1c11.6-5.7,23.5-11.7,35.3-17.6c0.7-0.4,1.5-0.7,2.2-1.1c2.9-1.5,5.7-2.8,7.9-5c1-1,1.2-2.5,1.5-4.2
		c0.1-0.6,0.2-1.1,0.3-1.7l0.3-2c2.8-17.5,5.6-35.5,7.8-53.3c-21.7-0.9-43.5-7-63-17.9c-7.3-4-14-8.9-20.6-13.6
		C218.3,306.3,217.7,305.8,217.1,305.4z M787.8,275.2c-9.4,14.8-21.3,31.4-38.2,42.7c-2.1,1.5-4.4,2.8-6.7,4.1
		c10.7-0.3,20.9-3.6,28.8-6.5c16.5-6.2,31.9-14.8,45.8-25.5c6.3-5.3,13.5-11.6,17.8-19.7c0.2-0.5,0.4-1,0.7-1.4
		c0.1-0.1,0.2-0.3,0.3-0.5c-11.8-5-25.2-5.5-36.9-5.5c-0.9,0-1.8,0-2.6,0c-2.5,1.6-4.1,4.4-5.7,7.3
		C789.9,271.8,789,273.6,787.8,275.2z M200.4,268.2c3.7,8.7,11.3,15.5,18.2,21.3c6.3,5.1,13.7,10.1,22.8,15.2
		c15.1,8.2,28.8,13.5,41.9,16.1c3.3,0.7,6.7,1.1,10.3,1.2c-1.7-0.9-3.5-1.9-5.2-3c-18-11.4-30.5-29.1-39.4-43.3
		c-1.3-1.7-2.4-3.5-3.4-5.3c-1.6-2.8-3.2-5.5-5.4-7.4c-2.2-0.1-4.2-0.1-6.1-0.1C220,262.8,209.5,264.5,200.4,268.2z M248.5,247.3
		c-1.8,2.1-0.1,5.6,1.1,7.5c3.2,4.8,7.1,9.7,11.8,15c11.2,13.1,29.4,29.4,52.9,32.3c3,0.4,6,0.6,9.1,0.6c6.9,0,14.1-1,22.1-3
		c14.3-3.4,28-7.7,40.8-12.8c7-3.2,14.7-4.8,22.1-6.3c7.4-1.5,15-3.1,21.9-6.3c2.6-1.3,5.7-3.1,6.8-6.1c0.7-2.5,0.2-5.6-1.7-9.5
		c-3.6-7.1-9.2-13.2-14.6-19.2c-6.8-7.6-13.8-15.4-17.5-25.4l-0.1-0.2l0-0.2c-0.4-3.1-0.2-6.3-0.1-9.3c0.2-3.4,0.3-6.7-0.3-9.9
		c-1.1-2.8-2.5-5.8-5-7.1c-2.1,0.4-3.9,2.5-5.4,4.4c-2.7,4-5.4,8.3-7.9,12.4c-2.7,4.4-5.5,8.9-8.5,13.2c-2.3,3.7-6.2,5.3-9.7,6.8
		c-1.2,0.5-2.3,1-3.3,1.5l-0.1,0.1c-27.6,12.1-58,14.4-87.3,16.5c-4.8,0.4-9.6,0.7-14.4,1.1c-0.5,0.1-1.1,0.1-1.6,0.2
		C255.4,244.2,251.3,244.7,248.5,247.3z M633.7,194.4c-0.7,3.3-0.5,6.6-0.3,10.2c0.2,3,0.3,6-0.1,9.1l0,0.2l-0.1,0.2
		c-3.3,9.6-10.1,17.1-16.6,24.4c-2.3,2.6-4.7,5.2-6.8,7.9l-0.5,0.6c-4.5,5.5-9.1,11.3-10.1,18.1c-0.7,4,3,7.3,6.7,9
		c7,3.4,14.8,5,22.4,6.5c7.5,1.5,15.3,3.2,22.5,6.5c9.6,3.8,19.8,7.2,31.1,10.3c9.5,2.5,19.3,5.1,29.1,5.3c0.7,0,1.3,0,2,0
		c9.3,0,18.7-1.9,27.2-5.6c11.8-5.1,22.9-13.7,34.8-27c0.9-1.1,1.9-2.3,2.8-3.4c3.4-4.1,6.9-8.3,9.6-12.8c0.9-1.4,2.6-5.3,0-7
		c-3.9-2.7-8.8-3.1-13.6-3.6c-0.7-0.1-1.3-0.1-1.9-0.2c-3.4-0.3-6.9-0.5-10.4-0.8c-29.9-2.2-60.9-4.5-89-17.1l-0.1-0.1
		c-0.9-0.5-2-0.9-3-1.4c-3.1-1.4-6.7-2.9-8.8-6.3c-3.1-4.5-6.1-9.3-9-13.9c-2.3-3.6-4.6-7.4-7-11c-1.4-1.9-3.3-4.3-5.8-5.2
		c-2.4,0.7-3.7,3.7-4.9,6.4L633.7,194.4z M429,140.5c-3.4,16.7-6.9,34-10.9,50.9c-0.2,1.1-0.5,2.2-0.8,3.3c-0.8,3.2-1.6,6.1-1.6,9.2
		c0,3.4,2.3,6.4,4.6,8.8c1.3,1.4,2.5,2.8,3.7,4.3c1.4,1.7,2.8,3.3,4.3,4.8l0.3,0.3l0.2,0.4c0.3,0.7,0.8,1.5,1.4,2.2
		c0.2,0.3,0.5,0.6,0.7,0.9c2.6,3.5,5.2,7.1,7.7,10.7c4.4,6.4,9,13,14.4,18.7c4.4,4.8,10.5,8.4,19.2,11.5c8.2,3.1,16.6,5.9,24.7,8.6
		c1.9,0.6,3.9,1.3,5.8,1.9c-1-19-1.9-38.3-2.8-57c-0.9-17.7-1.7-36-2.7-54c-2.3,0.3-4.7,0.5-7,0.8c-5.9,0.6-12.1,1.3-18.1,2.1
		c-5.9,29.1-10.8,52.7-15.5,74.1l-3.9,0c-2.1-9.4-2-19.2-1.8-28.6l0-2.6c0-5.2,0.6-10.4,1.2-15.4c0.7-6.1,1.5-12.3,1-18.5
		c-0.3-11-2.8-21.9-5.1-32.4c-2.6-11.4-5.2-23.2-5.3-35.3l0-2.6l2.5,0.6c10.1,2.5,20.2,5.3,30.1,7.9c6.8,1.8,13.7,3.7,20.6,5.5
		c-0.3-15.3-0.8-30.8-1.3-45.9c-0.4-11.2-0.7-22.8-1-34.1c-0.1-6.3-0.4-12.6-0.6-18c-1.1-0.1-2.2-0.1-3.2-0.1
		c-14.6,0-29.1,8.3-36.9,21.3c-3.9,6.5-5.2,14.3-6.4,21.9c-0.3,2.1-0.7,4.3-1.1,6.4c-1,5.2-2.3,10.5-3.6,15.5
		c-1.2,4.8-2.5,9.7-3.4,14.6l-3.9,0l-0.1-0.3c-0.4-1.9-0.8-3.9-0.8-6c-0.1-3.4-0.1-6.8-0.2-10.2c-0.1-4.6-0.1-9.3-0.3-14
		c-1.2,0.9-2.3,1.7-3.4,2.5c-3.9,2.9-7.9,5.8-11.6,9c-1.4,4.8-2.6,9.8-3.8,14.7c-0.6,2.5-1.2,4.9-1.8,7.4c1.4,1.6,2.8,3.2,4.2,4.7
		c3.8,4.1,7.7,8.3,10.3,13.6c1.9,3.7,3.7,8.1,2.6,12.7L429,140.5z M539.2,166.1c-0.8,18.7-1.7,37.6-2.6,55.9
		c-0.9,18-1.8,36.7-2.6,55.1c3.5-1.2,7-2.4,10.5-3.5c9.1-3,18.5-6.1,27.4-10c5.6-2.4,10.8-6.8,16-13.3c3.9-5,7.6-10.2,11.2-15.3
		c2.8-4,5.8-8.2,8.8-12.2c1.9-2.6,4-5,6.1-7.3c1.6-1.8,3.2-3.7,4.7-5.6c2.1-2.6,2.8-6.3,1.9-9.8c-4.7-19.2-9.1-39.7-13.6-62.7
		c-1.1-4.7,0.8-9.4,2.7-12.8c2.3-4.7,5.8-8.6,9.3-12.3c1.7-1.8,3.4-3.7,5-5.7c-1.6-7.5-3.4-14.9-5.6-22.1c-4.8-4-10-7.8-15-11.5
		c0,2.3,0,4.7-0.1,7c-0.1,7.6-0.1,15.5-0.6,23.3l-3.9,0.5c-1.8-5.4-3.1-11.1-4.4-16.6c-0.7-2.8-1.3-5.8-2.1-8.6
		c-0.9-3.8-1.6-7.7-2.1-11.5c-1.2-7.5-2.3-14.6-5.8-21c-7.5-13.2-22.3-22.1-37-22.1c-1.3,0-2.6,0.1-3.8,0.2c0,2.8-0.1,5.6-0.2,8.3
		c-0.1,3.2-0.2,6.4-0.2,9.5c-0.6,14.7-1,29.6-1.4,44c-0.3,11.8-0.7,24-1.1,36c8.4-2.2,16.8-4.4,25-6.6c8.5-2.3,17.2-4.6,25.8-6.8
		l2.7-0.7l-0.2,2.8c-0.1,1.7-0.2,3.5-0.3,5.2c-0.2,3.8-0.4,7.7-1.1,11.5c-1,5.3-2.2,10.7-3.4,16c-3,13.2-6,26.9-5.8,40.7
		c0,3.9,0.5,7.6,1,11.6c0.5,3.8,1.1,7.6,1.1,11.6c0,1.9,0.1,3.9,0.2,5.9c0.3,10.1,0.7,20.5-1.9,30.6l-3.9-0.1
		c-3.3-17-6.9-34.2-10.4-50.8c-1.7-7.9-3.3-15.7-4.9-23.6C556,167.9,547.6,166.9,539.2,166.1z M209.1,241.7c0,0.2,0.1,0.4,0.1,0.6
		c0,0.1,0,0.2,0,0.2c3-0.5,6.1-0.8,9.1-1c2-0.2,4.2-0.4,6.2-0.6c4.2-9,13.1-15.6,24-17.9c8.8-1.9,17.9-2.4,26.7-2.9
		c5.2-0.3,10.5-0.6,15.7-1.2c22.5-1.9,46.2-5.2,67.2-15.7c1.3-0.6,2-2,2.7-3.7c0.3-0.6,0.6-1.3,1-1.9l0.1-0.2
		c5-10.1,10.1-20.5,19.9-27.1c4.2-3.1,9.5-4.8,16.3-5.2c0.3-1.5,0.6-3,1-4.5c1.5-7.1,3.1-14.3,4.3-21.6c-3.1-3.4-5.8-7.5-8.2-12.4
		c-9,0.8-18.2,1.4-27.1,2l-2,0.1c-8.9,0.4-17.8,0.6-26.6,0.6c-47.2,0-93.1-6-136.5-18c-1.7,15-1.8,30.2-1.8,44.7
		c0.1,23.1,2.1,46.9,6,73l0.4,2.6C208.1,234.8,208.6,238.3,209.1,241.7z M815.5,241.1c3.3,0.4,6.7,0.7,10.1,1c0.8-4,1.5-8.1,2-12.1
		l0.2-1.3c6.3-41.7,7.5-81.3,3.7-117.6c-43.1,12-88.8,18.1-135.6,18.1c-10,0-20.1-0.3-30.1-0.8c-4.5-0.1-9.2-0.5-13.6-0.9
		c-3.8-0.3-7.7-0.6-11.6-0.8c-0.3,0.4-0.6,1-0.9,1.7c-0.3,0.6-0.5,1.2-0.9,1.8c-1.2,2.7-3.1,4.9-4.9,7c-0.5,0.6-1,1.1-1.4,1.7
		c1,6.2,2.4,12.5,3.6,18.6c0.5,2.5,1.1,5,1.6,7.5c7.6,0.2,14.7,3,20.1,7.8c7.2,6,11.4,14.3,15.5,22.3c1.2,2.4,2.5,5,3.8,7.4
		c0.4,0.5,1.2,0.8,2,1.1c0.5,0.2,1,0.4,1.5,0.7c24.1,11.4,51.4,13.6,77.8,15.6l4.4,0.3c1.6,0.1,3.2,0.2,4.8,0.3
		c10.3,0.6,20.9,1.3,30.4,6.2c5.9,2.9,10.6,7.8,13.5,13.9C813,240.9,814.3,241,815.5,241.1z M513.2,177.9c0.9,2,1.7,4,2.5,6
		c0.8,2.1,1.6,4,2.5,6c2.1-5,4.2-10,6.3-14.8c1.1-2.6,2.3-5.3,3.4-7.9c0.6-1.3,0.6-2.9,0.6-4.6c0-0.6,0-1.1,0-1.7
		c0.2-23.5,0.5-47.5,0.8-70.7c0.3-25.3,0.7-51.4,0.9-77.1c-3.2,0-6.6,0-10.6,0c-3.4,0-6.8,0-10.2,0l-3.3,0
		c0.2,18.5,0.3,39.3,0.9,59.7c0.1,30,0.6,59.8,1.2,92.9c0.7,2.4,1.8,4.7,2.9,7.2C511.7,174.5,512.5,176.2,513.2,177.9z"/>
	<path class="st0" d="M482.1-7.1c24-0.1,48,0,72,0c0,3.6,0,7.3-0.1,10.9c18.8,2.6,36.5,12.9,47.3,28.5c5,6.9,7.9,14.9,10,23.1
		C645,60.5,679,63.2,713,61.9c45-1.5,90-9.7,132.2-25.9c11.7-4.5,23.3-9.3,35-13.6c3.9,13.5,8.1,27,11.7,40.6
		c8.3,36.6,10.2,74.5,9,111.9c-1.8,47.3-9.4,94.2-21.7,139.9c-7.5,28.3-17.1,55.9-27.6,83.2c1.5,12.7,4.1,25.4,7.2,37.8
		c1.1,5,3.1,9.9,3.2,15.1c0.5,14,2,27.9,2.3,41.9c-3.4,32.7-5.4,65.5-9.3,98.1c-1.3,8.9-2.2,18.2-6.4,26.3
		c-4.5,8.8-8.8,17.7-13.4,26.5c-5.1-5.4-10-11.1-15-16.6c-45.4,19.2-92.4,34.7-140.1,47c-0.8,0.3-1.5,0.9-2,1.6
		c-47.6,55.5-100.2,106.6-155.4,154.6c-1.9,1.4-3.4,3.6-5.6,4.5c-56.4-48.7-110.2-100.6-158.8-157.1c-1.5-1.6-2.8-3.9-5.1-4.5
		c-45.2-12.2-89.2-29.9-129-54.7c-7.5,8.4-15.2,16.6-22.5,25.2c-4.7-8.3-8.6-17.1-13-25.6c-5-9-5.8-19.5-7.2-29.5
		c-3.7-32.2-5.7-64.6-9.1-96.9c0.6-11.5,1.4-23.1,2-34.6c0.5-5.1,0.2-10.4,1.9-15.4c3.6-13.1,6.5-26.5,8.2-40
		c-8.4-21.7-16.5-43.6-23.1-66c-18.3-60.6-28.5-123.7-28.1-187c0.6-24.4,2.3-48.9,6.7-72.9c3.1-18.3,9.5-35.7,14.3-53.6
		c13.2,4.7,26.1,10.2,39.2,15.1C266.9,64.8,347.8,67.7,424.8,55c3.1-14.6,11.6-27.8,23.4-36.8C458,10.3,470,5.5,482.4,3.8
		C482.4,0.2,482.3-3.5,482.1-7.1 M504.1,11c0.2,20.6,0.4,41.2,0.9,61.8c0.1,31,0.6,62.1,1.2,93.1c1.3,4.4,3.5,8.4,5.2,12.7
		c2.5,5.3,4.2,10.9,7.1,15.9c3.7-8.9,7.5-17.8,11.3-26.7c1-2.2,0.7-4.6,0.8-7C531,110.9,532,61,532.3,11
		C522.9,11.1,513.5,11.1,504.1,11 M451.1,43.9c-5.2,8.7-5.9,19.1-7.7,28.9c-1.9,10.1-5,20-7,30.1c-0.4-2-0.8-3.9-0.8-5.9
		c-0.2-9.4-0.2-18.7-0.6-28.1c-6.2,4.8-12.8,9.2-18.7,14.3c-2.3,7.8-4,15.8-6,23.7c5.1,6.2,11.4,11.4,14.9,18.7
		c1.7,3.5,3.4,7.4,2.4,11.4c-3.6,18-7.3,36.1-11.6,54c-1,4.3-2.4,8.5-2.4,12.9c0,4,2.5,7.4,5.1,10.2c2.8,3,5.2,6.3,8,9.2
		c0.5,1.4,1.5,2.5,2.3,3.6c7.5,9.8,13.8,20.5,22.2,29.6c5.4,5.9,12.6,9.4,20,12c11,4.1,22.2,7.7,33.4,11.5
		c-2-38.7-3.7-77.4-5.7-116.1c-9.6,1.1-19.2,1.9-28.7,3.3c-5.1,25.2-10.3,50.4-15.8,75.5c-2.3-10-1.9-20.4-1.7-30.7
		c-0.1-11.4,3.1-22.6,2.2-34.1c-0.6-22.9-10.4-44.6-10.4-67.6c17.8,4.4,35.5,9.5,53.3,14c-0.6-27.6-1.7-55.1-2.4-82.7
		c-0.1-6.6-0.4-13.2-0.7-19.8C477.7,19.7,460,29.2,451.1,43.9 M541.3,22.2c-0.1,6.5-0.3,13.1-0.4,19.6c-1.1,27.5-1.6,55.1-2.7,82.6
		c17.8-4.5,35.6-9.5,53.4-14.1c-0.4,5.5-0.3,11.1-1.4,16.5c-3.5,18.9-9.5,37.6-9.2,57.1c-0.1,7.8,2.1,15.4,2.1,23.1
		c0.3,11.9,1.3,24.2-1.7,35.9c-5-25.3-10.5-50.5-15.7-75.8c-9.5-1.2-19.1-2.3-28.7-3.2c-1.6,38.7-3.9,77.4-5.4,116
		c13.6-4.8,27.5-8.8,40.8-14.6c6.8-2.9,12.2-8.2,16.8-13.9c7-8.9,13.2-18.5,20-27.5c3.3-4.5,7.3-8.5,10.8-12.9
		c2.6-3.3,3.3-7.6,2.2-11.6c-5.1-20.8-9.5-41.7-13.5-62.6c-1-4,0.6-8,2.5-11.5c3.5-7.1,9.9-12.2,14.6-18.4c-1.6-8-3.6-16-5.9-23.8
		c-6-5-12.4-9.6-18.7-14.2c-0.2,11.3,0,22.7-0.7,34c-2.7-8.2-4.3-16.7-6.5-25c-2.7-11-2.5-22.9-8.2-33
		C577.3,29.6,559,19.5,541.3,22.2 M201.2,108.7c-1.9,15.6-2.1,31.5-2.1,47.2c0.1,24.5,2.4,49,6,73.3c0.7,4.3,1.4,8.5,2,12.9
		c0.2,1,0.2,3.3,1.9,2.5c5.6-0.9,11.2-1.1,16.8-1.9c4-9.5,13.2-15.7,23-17.7c13.9-2.9,28.1-2.6,42.1-4.1c23.2-2,46.9-5.4,67.9-15.9
		c2.6-1.2,3.3-4.2,4.6-6.4c4.9-9.8,10-20.3,19.4-26.6c4.8-3.6,10.8-4.8,16.7-4.9c2-9.5,4.2-19.1,5.8-28.6c-3.9-4.1-6.8-8.8-9.2-13.9
		c-10.1,0.9-20.3,1.6-30.4,2.2C310.5,129.2,254.6,123.6,201.2,108.7 M666,126.4c-8.7-0.3-17.3-1.4-26-1.8c-1.5,1-1.8,3.1-2.8,4.6
		c-1.5,3.5-4.4,6.1-6.7,9.1c1.6,9.6,3.8,19.1,5.7,28.6c7.4-0.2,14.8,2.3,20.4,7.3c9.2,7.6,13.3,19.2,19,29.3c1,1.3,2.8,1.7,4.3,2.5
		c25.8,12.2,54.9,13.9,82.9,16.2c11.6,0.8,23.9,0.8,34.5,6.3c5.9,2.9,10.5,8,13.1,14c5.6,0.6,11.2,1.2,16.8,1.7
		c1.2-5,1.9-10.2,2.6-15.3c6-39.8,7.9-80.4,3.5-120.5C779.1,123.9,722.3,129.5,666,126.4 M631.8,193.7c-1.4,6.5,0.3,13.1-0.5,19.7
		c-4.4,12.6-14.9,21.5-23.1,31.7c-4.7,5.8-9.9,12-11,19.7c-0.9,5.2,3.6,9.1,7.8,11.1c14.2,6.8,30.6,6.5,44.9,13
		c10.3,4.1,20.8,7.5,31.4,10.4c9.7,2.6,19.5,5.2,29.6,5.4c10.3,0.3,20.5-1.7,30-5.7c14-6,25.5-16.3,35.5-27.5
		c4.4-5.4,9-10.6,12.7-16.5c1.8-2.9,2.8-7.5-0.6-9.7c-4.8-3.3-10.9-3.5-16.5-4c-33.3-2.6-67.8-3.8-98.7-17.7c-3.8-2-8.6-3.1-11-7
		c-5.6-8.2-10.5-16.7-16-25c-1.8-2.6-4.2-5.3-7.3-6.2C635,185.9,633.3,190.4,631.8,193.7 M390.7,190.6c-5.7,8.4-10.7,17.2-16.5,25.6
		c-2.7,4.3-8,5.5-12.3,7.7c-31.8,14-67.1,14.7-101.1,17.5c-4.8,0.7-10.1,1-13.8,4.5c-2.7,2.9-1,7.1,0.8,9.9
		c3.6,5.4,7.7,10.4,12,15.3c13.9,16.3,32.3,30.3,54.1,33c10.7,1.5,21.6,0.2,32-2.4c13.9-3.3,27.7-7.6,41-12.9
		c14-6.3,30.1-6.1,44-12.6c3.2-1.6,6.6-3.7,7.9-7.3c1.1-3.7-0.2-7.6-1.8-11c-8.4-16.4-25.6-26.8-32-44.4c-0.8-6.5,0.8-13.1-0.4-19.5
		c-1.3-3.3-3.1-7.2-6.6-8.6C394.9,185.6,392.6,188.3,390.7,190.6 M197.9,267.1c3.5,10,11.6,17.3,19.5,23.9
		c7.2,5.9,15,10.9,23.1,15.4c13.3,7.3,27.5,13.3,42.5,16.3c5.8,1.2,11.7,1.5,17.6,1c-3.4-2.6-7.4-4.1-10.9-6.5
		c-16.5-10.5-28.6-26.4-38.9-42.8c-3.4-4.4-5.2-10.1-9.7-13.5C226.4,260.5,211.4,261.1,197.9,267.1 M786.1,274
		c-10.1,15.9-21.7,31.6-37.6,42.1c-4,2.9-8.6,4.8-12.7,7.5c12.5,1.2,24.9-2.1,36.5-6.4c16.6-6.2,32.3-15,46.3-25.8
		c7.1-5.9,14.1-12.3,18.4-20.5c0.4-1.3,1.8-2.6,1-4c-13.1-6-27.9-6.2-42.1-6.2C791.2,263.5,789.4,269.7,786.1,274 M434.4,292.2
		c-32.8,17.3-69.5,26.7-106.5,28.8c0.4,6.6,1.3,13.3,1.3,19.9c0.1,5.1-0.3,10.2,0.1,15.3c-1.5,32.7-8.8,65.4-22.9,95.1
		c-1.4,3.1-3.4,6-4.4,9.3c67.3-0.2,134.7,0,202-0.2c0.5-21.5,0.1-42.9,0.2-64.4c-0.1-19.6,0.3-39.1-0.2-58.7
		c0.2-5.3,0.6-10.8-0.5-16c-2.7-9.8-11.6-17.4-21.5-19.2C466.1,298.7,450.3,295.4,434.4,292.2 M553,302.3
		c-9.8,2.3-18.1,10.2-20.4,20c-0.8,4.9-0.3,9.9-0.3,14.8c-0.2,39.3,0,78.5-0.1,117.8c0,1.8,0.2,3.7,0.5,5.5c67.4,0,134.7,0,202.1,0
		c-19-35.8-28-76.7-27.5-117.2c0.4-7.4,0.5-14.8,1.6-22.1c-37.1-2.3-74-11.6-106.9-29C585.6,295.7,569.3,298.8,553,302.3
		 M215.4,301.7c-3.1,34.7-4.8,69.6-10.2,104.1c-2.4,15.6-6,31-10.3,46.2c5.1-2.5,10.1-5.2,15.1-7.9c24.4-12.4,49-24.3,73.4-36.7
		c3.7-1.9,7.7-3.5,10.6-6.5c1.9-1.8,1.8-4.5,2.3-6.9c3-19.2,6.1-38.4,8.5-57.6c-22.5-0.5-44.7-6.8-64.3-17.7
		C231.6,313.8,223.6,307.6,215.4,301.7 M795.9,318.7c-19.6,10.9-41.8,16.9-64.2,17.8c2.7,20,5.7,40,8.9,60c0.3,4.1,4.2,6.5,7.5,8.3
		c26.4,13.4,53,26.4,79.4,39.7l0,0.3c4.8,2.3,9.4,5.1,14.3,7.2c-3.8-12.5-6.8-25.3-9-38.2c-6.8-37-7.9-74.7-11.8-112.1
		C812.9,307.8,804.7,313.7,795.9,318.7 M280.7,419.4c-25.1,11.2-50.3,22.3-75.4,33.6c-5.4,2.2-10.7,4.7-16,7.1
		c3.2,11.4,3.9,23.3,5.2,34.9c2.7,26.9,4.5,53.9,7.4,80.8c1.1,8.9,1.7,17.9,4.4,26.5c3.5-2.9,5.3-7.1,7.3-11
		c4.8-11.1,7.2-23.1,9.5-35c3.1-16.1,5.8-32.4,9.8-48.3c5.9-23.9,15-47.5,30.4-66.9c7.8-10.2,17.6-18.6,28-26.1
		C287.5,416.1,284.1,417.9,280.7,419.4 M744.9,414.8c13.5,11.1,24.6,24.8,33,40c17.5,31.5,24.6,67.3,33.4,101.9
		c2.7,10.8,5.7,21.5,10.1,31.7c2.2,4.7,4.6,9.4,8,13.3c1.5,0.3,1.3-1.9,1.8-2.8c1.8-8,2.6-16.1,3.5-24.2c2.8-27,4.7-54.1,7.4-81.1
		c1.3-11.3,2.1-22.8,5-33.8c-5.4-2.4-10.7-4.8-16.1-7.1c-17.3-7.8-34.6-15.4-52-23.1C767.7,424.8,756.5,419.4,744.9,414.8
		 M277.9,488.8c-7.7,4.3-15.7,8.2-23.9,11.6l-0.9-0.8c-0.6,19.7,0,39.5-0.2,59.3c0.2,14.2-0.5,28.5,0.3,42.7c-0.5,0.8-1,1.6-1.6,2.5
		c13,8.1,26.4,15.6,40.3,22.1c0,1.3,0,2.7,0,4c8.9-2.9,17.6-6.4,26.5-9.2c2-0.2,1.1-2.7,1.4-4.1c-0.2-13.7,0.3-27.4-0.2-41.1
		l-1.1,0.7c-9-3.2-18.3-5.5-27.4-8.8c-2.1,0.3-1.2,2.9-1.5,4.3c0,11.3,0.1,22.6,0,33.9c0.1,1.3-0.6,2.1-2,2.4
		c-1.6-0.8-3.2-1.6-4.8-2.4c-0.2-33.9-0.1-67.8-0.1-101.7c1.5-0.2,3-0.4,4.4-1.1l0.4,0c1,1.1,2.4,1.8,3.8,2.4
		c0.3,9.8-0.2,19.6,0.3,29.4l1.1-0.2c9.3,1.5,18.6,3.1,27.9,4.5c0-17.5,0-35.1,0-52.6c-12.3,0-24.6,0-36.9,0
		C281.8,486.4,279.9,487.8,277.9,488.8 M357.4,487.5c-8.9,5.1-17.8,10.1-26.7,15.3c-1,0.5-2.1,1-3.1,1.3c-2.2-0.3-1.4,2.5-1.6,3.8
		c0,27,0,54,0,81c0.1,16.1-0.3,32.3,0.2,48.4c-0.5,1.2-1.1,2.3-1.7,3.4c12.9,5.3,26.1,10.1,39.5,14.2c1.5,0.3,3,1.3,4.5,0.6
		c8.4-3.5,16.7-7.3,24.7-11.7c1.6,0,3.2,0,4.9,0c0-52.4,0-104.8,0-157.2c-12,0-24,0-36,0C360.4,486.7,358.8,486.6,357.4,487.5
		 M404.5,486.7c0,56.4,0,112.8,0,169.2c-0.1,3.3-2.1,6.1-3.1,9.1c11.3,2.4,22.6,4.9,33.9,7c0-54,0-108,0-162c3.2,0,6.5,0,9.7,0
		c0,54.3,0,108.7,0,163c9.9,1.5,20,2.2,30,3.3c0.8-1,1.1-2.2,1.1-3.4c0-51.7,0-103.4,0-155c-0.2-3.4,0.7-7.1-0.9-10.3l-0.1,1.3
		c-9-7.4-17.8-15.1-27.1-22.1C433.4,486.5,419,486.5,404.5,486.7 M483.8,508.3L483.8,508.3c0.4,37.8,0.1,75.7,0.2,113.6
		c-0.1,15.8,0.3,31.6-0.2,47.3c-0.9,2.5-1.9,5-2.9,7.6c1.5,0.1,3,0.3,4.5,0.4c-0.3,0.4-1,1.1-1.4,1.4c7.4,0.4,14.7,0.2,22.1,0.3
		c2.5-0.1,5.1,0.3,7.3-1.1c4.2-0.1,8.4,0.1,12.6,0c5.9,7.9,11.5,16,17.3,23.9l0,0.9c3.9,0.3,7.8,0.2,11.6-0.2
		c0.5-20.2,0-40.5,0.2-60.7c0-50.4-0.1-100.7,0-151.1c-0.3-1.5,0.5-3.7-1.3-4.3c-13.6,0.3-27.2-0.1-40.7,0.2
		C503,493.4,493.8,501.4,483.8,508.3 M560.8,490.9c0.1,43.3,0,86.7,0,130c0.2,18.6-0.4,37.3,0.3,55.9c3.7,0.3,7.4,0.6,11,0.1
		c1.1-0.1,1.8-0.7,2.2-1.8c10.2-1.1,20.5-2.5,30.6-4.5c8.5-7.4,16.2-15.7,24.5-23.3c1.1-1.3,3.3-2.4,3-4.4c0-52.1,0-104.1,0-156.2
		c-10.3-0.3-20.6-0.1-30.8-0.1c0.1,46.1-0.1,92.1,0.1,138.2c-3.3,0.4-6.6,0.9-9.9,1.3c0-46.5,0-92.9,0-139.4
		c-9.9-0.1-19.9,0.1-29.8-0.1C560.6,487.5,560.9,489.4,560.8,490.9 M639.3,507.3l-1.1-0.6c-0.5,17.4-0.1,34.8-0.3,52.2
		c0,32.3,0.1,64.7,0,97c0.4,2.6-1.2,6.6,1.4,8.3c23.8-7,47.7-14.3,70.6-23.7l0.9,0.7c0.6-7.1,0.1-14.2,0.3-21.3
		c-0.1-10.5,0.2-20.9-0.1-31.3c-1.3-0.2-2.4,0.2-3.3,1c-8.6,2.7-17.4,5.1-26.2,7.2c0,11.9,0,23.8,0,35.8c-1.8,0.5-3.6,1-5.4,1.5
		c-1.4-0.2-2.7-0.4-4.1-0.6c-0.1-12.2,0-24.5,0-36.7c-0.1-4.5-0.3-9.1,0.5-13.6c6-1.2,12-2.2,17.9-3.7c3.3-7.3,6.8-14.5,10.3-21.7
		c-10.2,2.1-20.5,3.5-30.7,5c-0.1-18.3-0.1-36.6,0-54.9c2.6-0.1,5.3-0.1,7.9-0.1c0.2,9.3,0.1,18.6,0,28c0.1,2.7-0.4,5.7,0.9,8.2
		l0.1-0.8c9.4-1.1,18.8-2.1,28.1-3.5c0-17.7,0-35.5,0-53.2c-13.6,0.1-27.4-0.3-40.9,0.4C657,493.5,647.8,500.1,639.3,507.3
		 M716,486.6c0,50.6,0,101.2,0,151.8c9.9-4.5,19.9-9,29.6-13.9l0.3-0.5c0.1-19.4,0-38.9,0-58.3c3.5-1.1,7.1-2,10.6-3.2
		c0.1,16.9,0.1,33.8,0,50.7c8.7,2.9,17.6,5.4,26.3,8.3c1.5-1.1,1.1-3,1.2-4.6c-0.2-21.1,0.3-42.2-0.3-63.2l-1,0.8
		c-2.7-2-5.5-3.9-8.1-5.9c2.1-3,4.3-5.9,6.7-8.7c1.1-0.7,3.1-1.1,2.8-2.9c-0.1-12.4,0.4-24.9-0.2-37.3l-1.2,0.8
		c-9.2-4.2-18.2-8.8-27-13.7C742.6,486.3,729.3,486.7,716,486.6 M460.6,692.8c2.1,3,5,5.4,7.5,8c8.1,8.2,16.3,16.3,24.6,24.3
		c8.2,7.7,16,15.8,24.7,22.8c10.1-9.9,20.9-19.1,30.6-29.5c-8.3-7-15.8-14.7-23.8-21.9c-1.8-2.1-4.9-1.2-7.3-1.4
		C498.1,695.6,479.4,693.8,460.6,692.8z"/>
	<path class="st0" d="M749.8,548.9c-1.3-0.1-2.5-0.3-3.8-0.4l-1.7-0.2l0-1.7c-0.1-14.6-0.1-29,0-42.4l0-1.9l1.9-0.1
		c0.2,0,0.5,0,0.7,0c0.7,0,1.4,0,2.1,0.1c0.6,0,1.3,0.1,1.9,0.1c1.8,0,2.9-0.3,3.7-1.1l3.4-3l-0.1,4.5c-0.2,14.3-0.1,28.9,0,43.1
		l0,1.6l-1.6,0.3c-0.6,0.1-1.2,0.3-1.8,0.4c-1.4,0.3-2.8,0.7-4.3,0.8l-0.2,0L749.8,548.9z"/>
	<path class="st0" d="M755.9,502.6c-0.2,14.4-0.1,28.7,0,43.1c-2,0.4-3.9,1.1-5.9,1.2c-1.3-0.1-2.5-0.3-3.7-0.4
		c-0.1-14.1-0.1-28.3,0-42.4C749.4,503.9,753.2,505,755.9,502.6z"/>
	<path class="st0" d="M363.4,637.8c-1-0.3-1.9-0.6-2.9-0.9c-1-0.3-2-0.6-2.9-0.9l-1.4-0.5l0-17.7c0-35.8,0.1-72.8-0.1-109.3l0-4
		l3.2,2.4c1.4,1,3.3,1.1,5.4,1.1c0.4,0,0.8,0,1.3,0l1.9,0.1l0,1.9c0.1,30.5,0.1,61.4,0.1,91.4c0,10.1,0,20.2,0,30.3
		c0.2,2.1-1,3.6-1.9,4.7c-0.2,0.2-0.3,0.4-0.5,0.6l-0.9,1.1L363.4,637.8z"/>
	<path class="st0" d="M358.1,634.1c0-41.8,0.1-83.7,0-125.5c2.3,1.7,5.1,1.4,7.8,1.5c0.1,40.6,0.1,81.2,0.1,121.8
		c0.2,1.6-1,2.7-1.9,3.9C362.1,635.3,360.1,634.8,358.1,634.1z"/>
	<path class="st0" d="M510.4,656.6c0.2-49,0.2-98.7,0.2-146.9v-2l2,0c3.8,0,7.7,0,11.5,0h2l0,2c0,18,0,36,0,54c0,27.2,0,55.4,0,83.1
		l0,0.9l-0.7,0.6c-2.8,2.4-5.7,4.8-8.5,7.2l-6.4,5.4L510.4,656.6z"/>
	<path class="st0" d="M512.6,509.7c3.8,0,7.7,0,11.5,0c0,45.7,0.1,91.4,0,137.1c-3.9,3.3-7.8,6.5-11.7,9.8
		C512.6,607.7,512.6,558.7,512.6,509.7z"/>
</g>
<g>
	<path class="st1" d="M516.7,195.6c-1.9-3.3-3.3-6.8-4.7-10.2c-0.8-1.9-1.6-4-2.5-5.9l-0.1-0.1c-0.6-1.6-1.4-3.3-2.1-4.9
		c-1.1-2.5-2.3-5.2-3.1-7.9l-0.1-0.3l0-0.3c-0.6-33.2-1.1-63.1-1.2-93.2c-0.5-21.2-0.7-42.7-0.9-61.8l0-2l7.4,0c3.4,0,6.8,0,10.2,0
		c4.8,0,8.8,0,12.6-0.1l2,0l0,2c-0.1,26.4-0.5,53.2-0.9,79.2c-0.3,23.2-0.6,47.1-0.8,70.7c0,0.6,0,1.1,0,1.6c0,1.9,0,4.1-1,6.2
		c-1.1,2.6-2.2,5.2-3.4,7.9c-2.6,6.1-5.4,12.5-7.9,18.7l-1.5,3.7L516.7,195.6z"/>
	<path class="st1" d="M504.1,11c9.4,0,18.8,0.1,28.2,0c-0.3,50-1.3,99.9-1.7,149.8c-0.1,2.3,0.2,4.8-0.8,7
		c-3.8,8.9-7.7,17.8-11.3,26.7c-2.9-5-4.7-10.6-7.1-15.9c-1.6-4.3-3.9-8.3-5.2-12.7c-0.5-31-1.1-62.1-1.2-93.1
		C504.5,52.3,504.3,31.6,504.1,11z"/>
	<path class="st1" d="M504.2,281.8c-2.9-1-5.7-1.9-8.6-2.9c-8.2-2.7-16.6-5.5-24.8-8.6c-9.3-3.2-15.9-7.2-20.8-12.5
		c-5.5-6-10.2-12.7-14.7-19.2c-2.5-3.5-5-7.2-7.6-10.6c-0.2-0.3-0.4-0.6-0.6-0.9c-0.7-0.9-1.5-2-2-3.3l-0.2-0.5l0.1-0.5
		c0.6-3.6,1.1-7.3,1.5-10.9c0.4-2.9,0.7-5.8,1.2-8.8c0.6-4,1.2-8,1.8-12c2.2-14.5,4.5-29.5,4.6-44.3c-0.7-16.7-0.2-36.3,8.5-53.5
		l1.1-2.4c5.5-11.5,11.2-23.4,20.5-32.7c7.8-7.8,18.1-14,30.7-18.4l2.6-0.9l0.1,2.7c0.3,11.4,0.7,22.9,1,34.1
		c0.5,15.9,1,32.4,1.4,48.6l0.1,2.6l-2.6-0.7c-7.8-2-15.6-4.1-23.2-6.2c-9-2.4-18.3-4.9-27.5-7.2c0.4,10.8,2.8,21.4,5.1,31.8
		c2.4,10.7,4.9,21.8,5.2,33.1c0.5,6.4-0.3,12.9-1,19.2c-0.6,4.9-1.2,10-1.2,15l0,2.6c-0.1,5.5-0.2,11.1,0.2,16.6
		c4-18.9,8.4-39.7,13.4-64.4l0.3-1.4l1.4-0.2c6.5-1,13.2-1.7,19.6-2.3c3-0.3,6.1-0.6,9.1-1l2.1-0.2l0.1,2.1
		c1,18.7,1.9,37.7,2.8,56.1c0.9,19.7,1.9,40,3,60l0.2,2.9L504.2,281.8z"/>
	<path class="st1" d="M465.6,59.6c8.3-8.3,18.9-14.1,30-17.9c0.7,27.6,1.8,55.1,2.4,82.7c-17.8-4.6-35.5-9.6-53.3-14
		c0,23,9.8,44.6,10.4,67.6c0.9,11.4-2.3,22.7-2.2,34.1c-0.2,10.2-0.6,20.6,1.7,30.7c5.5-25.1,10.7-50.3,15.8-75.5
		c9.5-1.4,19.1-2.2,28.7-3.3c2,38.7,3.7,77.4,5.7,116.1c-11.1-3.8-22.4-7.3-33.4-11.5c-7.4-2.6-14.7-6.2-20-12
		c-8.4-9.1-14.7-19.8-22.2-29.6c-0.8-1.2-1.8-2.3-2.3-3.6c1.1-6.5,1.7-13.1,2.7-19.7c2.7-18.8,6.3-37.6,6.5-56.7
		c-0.7-17.8,0.1-36.5,8.3-52.6C450.2,82,455.9,69.3,465.6,59.6z"/>
	<path class="st1" d="M529.8,279.8c0.8-19.4,1.8-39,2.7-58c0.9-19,1.9-38.7,2.7-58l0.1-2.1l2.1,0.2c9.7,0.9,19.4,2,28.7,3.2l1.4,0.2
		l0.3,1.4c1.7,8.3,3.5,16.6,5.2,25c2.8,13.1,5.6,26.5,8.3,39.9c0.5-6.2,0.3-12.4,0.1-18.6c-0.1-2-0.1-4-0.2-5.9
		c0-3.7-0.5-7.5-1-11.1c-0.5-3.9-1.1-8-1.1-12.1c-0.2-14.2,2.9-28.1,5.9-41.6c1.2-5.2,2.4-10.6,3.3-15.9c0.7-3.6,0.9-7.2,1-10.9
		c0-0.8,0.1-1.7,0.1-2.5c-7.7,2-15.5,4.1-23.1,6.1c-9.1,2.4-18.4,4.9-27.7,7.3l-2.6,0.7l0.1-2.7c0.5-12.9,0.9-26,1.2-38.7
		c0.4-14.4,0.8-29.3,1.4-44l0.1-2.7l2.6,0.9c12.3,4.4,21.9,9.9,29.3,17c11.5,11.2,18.2,25.9,24.6,40.1l0.8,1.7
		c6.6,15.9,6.5,33.1,6.4,49.7c0,1.8,0,3.6,0,5.5c0.6,12.9,2.6,26.1,4.6,38.8c1.6,10.1,3.2,20.6,4.1,31l0.1,0.8l-0.5,0.6
		c-3,4-5.9,8.1-8.7,12.1c-3.6,5.1-7.4,10.4-11.3,15.5c-5.7,7.1-11.4,11.8-17.6,14.5c-9.1,4-18.6,7.1-27.7,10.2
		c-4.3,1.4-8.8,2.9-13.2,4.5l-2.8,1L529.8,279.8z"/>
	<path class="st1" d="M540.9,41.8c10.4,3.7,20.6,8.9,28.6,16.6c11.7,11.4,18.3,26.6,24.9,41.2c7.1,17.2,6.2,36.2,6.2,54.4
		c1.1,23.5,6.7,46.6,8.7,70c-6.8,9.1-13,18.6-20,27.5c-4.6,5.7-10,11-16.8,13.9c-13.3,5.8-27.2,9.8-40.8,14.6
		c1.6-38.7,3.9-77.3,5.4-116c9.6,0.9,19.1,2,28.7,3.2c5.2,25.3,10.7,50.5,15.7,75.8c3-11.7,1.9-24,1.7-35.9c0-7.8-2.2-15.4-2.1-23.1
		c-0.3-19.4,5.7-38.1,9.2-57.1c1.1-5.4,0.9-11,1.4-16.5c-17.8,4.6-35.6,9.6-53.4,14.1C539.3,96.9,539.8,69.3,540.9,41.8z"/>
	<path class="st1" d="M323.3,306.7c-3.3,0-6.5-0.2-9.7-0.7c-24.7-3.1-43.8-20-55.4-33.6l-1.9-2.3l2.9-0.9c14-4.4,28.4-8.1,42.3-11.7
		c12.8-3.3,26-6.7,38.8-10.6c14.8-4.6,31.8-10.3,46.7-19.6c6.4-4,11.9-9,16.5-15l2.2-2.9l1.2,3.4c3.4,9.3,9.8,16.5,16.7,24.1
		c5.5,6.2,11.3,12.5,15.2,20.1c1.5,3.2,3.3,7.8,1.9,12.5l0,0.1c-1.6,4.3-5.6,6.7-8.9,8.4c-7.3,3.4-15.2,5-22.8,6.6
		c-7.2,1.5-14.6,3-21.3,6c-13,5.2-26.9,9.5-41.4,13C338.1,305.7,330.5,306.7,323.3,306.7z"/>
	<path class="st1" d="M388.1,228.9c6.5-4.1,12.3-9.4,17-15.5c6.4,17.6,23.5,28.1,32,44.4c1.6,3.4,2.8,7.3,1.8,11
		c-1.3,3.5-4.6,5.7-7.9,7.3c-14,6.5-30,6.3-44,12.6c-13.3,5.3-27.1,9.6-41,12.9c-10.4,2.6-21.3,4-32,2.4
		c-21.8-2.7-40.3-16.6-54.1-33c26.7-8.5,54.3-14.1,81.1-22.4C357.2,243.6,373.5,238,388.1,228.9z"/>
	<path class="st1" d="M713,306.7c-0.7,0-1.4,0-2.1,0c-10.3-0.2-20.4-2.9-30.1-5.4c-11.5-3.1-21.8-6.5-31.7-10.5
		c-6.9-3.2-14.4-4.7-21.7-6.2c-7.8-1.6-15.9-3.3-23.3-6.9c-5-2.4-10-7.1-9-13.3c1.2-7.9,6.4-14.3,11-20l0.5-0.6c2.2-2.7,4.6-5.4,7-8
		c6.2-6.9,12.7-14.1,15.8-23l1.1-3.3l2.3,2.6c5.7,6.6,10.8,11.7,17,15.2c18.8,11.7,40.6,17.9,61.7,23.9l0.7,0.2
		c7.7,2.1,15.5,4.1,23.1,6.1c12,3.1,24.5,6.4,36.7,9.9c1.9,0.5,3.7,1.3,5.4,2.1l2.3,1.2l-1.7,1.9c-12.3,13.8-23.8,22.7-36.2,28
		C732.8,304.6,722.9,306.7,713,306.7z"/>
	<path class="st1" d="M631.3,213.4c5.1,5.9,10.6,11.7,17.5,15.7c19.2,12,41.2,18.1,62.8,24.3c19.9,5.4,40,10.3,59.7,16
		c1.8,0.5,3.5,1.2,5.1,2c-10,11.2-21.5,21.5-35.5,27.5c-9.4,4.1-19.7,6-30,5.7c-10.1-0.2-19.9-2.8-29.6-5.4
		c-10.7-2.9-21.2-6.3-31.4-10.4c-14.3-6.6-30.7-6.2-44.9-13c-4.2-2-8.8-5.9-7.8-11.1c1.1-7.6,6.3-13.8,11-19.7
		C616.4,235,627,226.1,631.3,213.4z"/>
	<path class="st1" d="M741.1,325.9c-1.9,0-3.7-0.1-5.5-0.3l-5.6-0.5l4.7-3.1c1.9-1.3,3.9-2.3,5.8-3.4c2.4-1.3,4.6-2.5,6.7-4
		c16.4-10.9,28-27.1,37.1-41.6l0.9-1.4l1.5,0.6c1.3,0.5,2.7,1.1,4,1.6c9.1,3.6,18.4,7.3,26.5,13.3l0.1,0.1l0.1,0.1
		c0.8,0.8,1.5,1.6,2.2,2.3l1.9,2.2l-1.7,1.3c-14.2,11-30,19.8-46.9,26.1C764.4,322.3,753,325.9,741.1,325.9z"/>
	<path class="st1" d="M786.1,274c10.3,4.2,21,8,30,14.7c0.9,0.9,1.7,1.8,2.5,2.8c-14,10.9-29.7,19.6-46.3,25.8
		c-11.7,4.3-24,7.6-36.5,6.4c4.1-2.7,8.7-4.6,12.7-7.5C764.4,305.6,776,289.9,786.1,274z"/>
	<path class="st1" d="M295.1,325.9c-4.4,0-8.6-0.4-12.6-1.3c-13.5-2.7-27.5-8.1-43-16.5c-9.3-5.2-17-10.3-23.4-15.6l-1.9-1.6l2-1.5
		c9.7-7.5,21.5-13.3,34-16.9l1.4-0.4l0.8,1.3c8.7,13.8,20.9,31.1,38.3,42.1c1.6,1.1,3.2,1.9,4.9,2.9c2.1,1.1,4.2,2.2,6.1,3.7
		l4.1,3.2l-5.2,0.4C298.8,325.8,296.9,325.9,295.1,325.9z"/>
	<path class="st1" d="M217.3,290.9c9.9-7.6,21.4-13.1,33.3-16.5c10.3,16.4,22.4,32.3,38.9,42.8c3.5,2.4,7.5,3.9,10.9,6.5
		c-5.9,0.4-11.8,0.2-17.6-1c-15-3-29.1-9-42.5-16.3C232.4,301.8,224.5,296.8,217.3,290.9z"/>
	<path class="st1" d="M300,459.9c0.7-2.2,1.8-4.2,2.8-6.1c0.6-1.2,1.2-2.2,1.7-3.4c13.5-28.5,21.1-60.2,22.7-94.3l0-0.1
		c0.3-2.9,0.4-5.9,0.5-8.8c0-1.3,0.1-2.7,0.1-4l0.1-1.7l1.7-0.2c7.8-0.8,15.5-3.2,23-5.5c3.2-1,6.5-2,9.8-2.9
		c18.2-5.1,36-10.3,51.1-14.7c11.5-2.8,26.6-6,41.5-6c8.2,0,15.6,0.9,22.7,2.8c12.9,3.2,23.1,11,28.2,21.4l0.2,0.4l0,0.4
		c0.3,12.1,0.2,24.5,0.2,36.4c0,7.3,0,14.9,0,22.3c-0.1,8.1,0,16.2,0,24.1c0,13.2,0.1,26.9-0.2,40.4l0,1.9l-1.9,0
		c-34.1,0.1-68.8,0.1-102.3,0.1c-32.7,0-66.5,0-99.7,0.1l-2.7,0L300,459.9z"/>
	<path class="st1" d="M414,320c20.5-5,42.3-8.7,63.1-3.2c11.2,2.8,21.8,9.7,26.9,20.4c0.4,19.5,0.1,39.1,0.2,58.7
		c-0.1,21.5,0.3,43-0.2,64.4c-67.3,0.2-134.7,0-202,0.2c1-3.3,3-6.1,4.4-9.3c14-29.7,21.3-62.3,22.9-95.1c0.4-4.3,0.4-8.6,0.6-12.9
		c11.4-1.2,22.1-5.5,33.1-8.5C380,330,397,325,414,320z"/>
	<path class="st1" d="M530.6,460.6c-0.3-1.9-0.5-3.8-0.5-5.8c0.1-17.5,0-35.2,0-52.4c0-21.4,0-43.6,0.1-65.4l0-0.4l0.2-0.4
		c2.5-5.2,6.1-9.7,10.4-12.9c7.9-6,18.3-9.6,32-11c2.6-0.2,5.2-0.3,7.9-0.3c13.7,0,28.5,2.3,46.4,7.2c10,3.1,20.2,6,30.1,8.7
		c7.7,2.2,15.6,4.4,23.4,6.7c1.8,0.5,3.5,1.1,5.3,1.6c6.9,2.1,14,4.4,21.3,4.8l1.9,0.1l0,1.9c-0.5,41.5,8.9,81.7,27.3,116.2l1.6,2.9
		l-3.3,0c-19.4,0-38.8,0-58.2,0l-76.3,0c-22.5,0-45.1,0-67.6,0l-1.8,0L530.6,460.6z"/>
	<path class="st1" d="M542,325c8.9-6.8,20.1-9.5,31-10.6c18.1-1.2,36.2,2.1,53.6,6.8c17.7,5.5,35.7,10.2,53.5,15.5
		c8.9,2.6,17.7,6,27,6.5c-0.5,40.5,8.5,81.3,27.5,117.2c-67.3,0-134.7,0-202.1,0c-0.2-1.8-0.5-3.7-0.5-5.5
		c0.1-39.3-0.1-78.5,0.1-117.8C534.5,332.4,537.8,328.1,542,325z"/>
	<path class="st1" d="M206.2,445.8l0.6-2.3c0.6-2.3,1.3-4.6,2-6.8c1.1-3.4,2.2-7,2.8-10.5l0-0.1c2.2-9.3,3.3-18.9,4.3-28.3
		c0.5-4.7,1.1-9.5,1.7-14.2c1.6-10.8,6-20.7,10.3-30.4c5.1-11.5,9.9-22.4,10.5-34.7l0.2-3.2l2.8,1.6c19.7,10.9,41.6,16.9,63.4,17.4
		l2.2,0.1l-0.3,2.2c-2.3,18.6-5.3,37.4-8.1,55.6l-0.3,2.1c-0.1,0.6-0.2,1.1-0.3,1.6c-0.3,2-0.7,4.6-2.6,6.5
		c-2.6,2.6-5.8,4.2-8.9,5.8c-0.7,0.4-1.4,0.7-2.2,1.1c-11.8,5.9-23.7,11.9-35.3,17.6c-12.5,6.2-25.5,12.6-38.1,19.1l-0.5,0.3
		L206.2,445.8z"/>
	<path class="st1" d="M240.5,318.6c19.6,10.9,41.8,17.1,64.3,17.7c-2.4,19.3-5.4,38.5-8.5,57.6c-0.5,2.4-0.5,5.1-2.3,6.9
		c-2.9,3-6.9,4.6-10.6,6.5c-24.4,12.4-49,24.3-73.4,36.7l-1.2-0.1c1.5-5.8,3.7-11.5,4.8-17.4c3.3-14,4.1-28.5,6.1-42.7
		C223.1,361,239.3,342,240.5,318.6z"/>
	<path class="st1" d="M826.6,446.3c-11.5-5.8-23.3-11.6-34.7-17.3c-14.7-7.3-29.9-14.8-44.7-22.4c-2.7-1.4-8.1-4.3-8.6-9.9
		c-3.2-19.2-6.2-39.3-8.9-60l-0.3-2.2l2.2-0.1c22.5-0.9,44.4-7,63.3-17.5l2.8-1.5l0.2,3.1c0.8,12.2,5.8,23.6,10.6,34.6
		c3,6.8,6.1,13.9,8.2,21.2c2.2,7.3,2.9,14.9,3.7,22.2c0.3,2.7,0.6,5.4,0.9,8.1c1.1,8.5,2.4,17.6,4.8,26.5c0.4,1.7,0.9,3.2,1.4,4.8
		c0.8,2.6,1.7,5.3,2,8.2l0.4,3.7L826.6,446.3z"/>
	<path class="st1" d="M731.6,336.5c22.4-0.9,44.6-6.9,64.2-17.8c1.4,20.2,13.3,37.3,18.9,56.3c2.9,9.8,3.2,20,4.5,30
		c1.1,9,2.5,18,4.9,26.8c1,4.3,2.8,8.4,3.3,12.7c-26.4-13.3-53.1-26.2-79.4-39.7c-3.3-1.8-7.2-4.2-7.5-8.3
		C737.3,376.5,734.3,356.5,731.6,336.5z"/>
	<path class="st1" d="M221.3,557.5c-5.8-8-12.1-17.4-13.8-28.6c-1.2-8-2.3-16.7-3.4-26.7c-1.6-14.2-1.9-29.9-0.8-49.3l0.1-1.2
		l1.1-0.5c16.5-7.5,33.4-14.9,49.7-22.2c8.6-3.8,17.2-7.6,25.7-11.4c1.2-0.5,2.4-1.1,3.6-1.6c2.3-1.1,4.6-2.2,7.1-2.9l1.8,3.5
		c-12,8.7-20.8,16.9-27.5,25.7c-13.4,16.9-23.2,38.5-30.1,66.2c-3,11.9-5.3,24.2-7.5,36.1c-0.8,4-1.5,8.1-2.3,12.1l-0.9,4.5
		L221.3,557.5z"/>
	<path class="st1" d="M280.7,419.4c3.5-1.5,6.8-3.3,10.5-4.4c-10.3,7.5-20.1,15.9-28,26.1c-15.4,19.4-24.5,43-30.4,66.9
		c-4.1,16-6.7,32.2-9.8,48.3c-6-8.3-11.8-17.3-13.4-27.7c-1.3-8.8-2.4-17.8-3.4-26.6c-1.8-16.3-1.7-32.7-0.8-49
		C230.3,441.6,255.5,430.6,280.7,419.4z"/>
	<path class="st1" d="M811.2,559.5c-0.3-0.3-1-1-1.3-1.3l-0.4-0.4l-0.1-0.5c-1.3-5.1-2.6-10.2-3.8-15.4
		c-7.2-29.2-14.6-59.4-29.4-86.1c-8.4-15.3-19.3-28.6-32.5-39.5l2-3.4c7.3,2.8,14.5,6.1,21.5,9.3c4.2,1.9,8.5,3.8,12.7,5.7
		c6.7,3,13.4,6,20.1,9c10.4,4.6,21.3,9.4,31.9,14.2l1.1,0.5l0.1,1.2c1.7,19.8,0.8,41.5-2.7,66.5c-0.2,1.2-0.3,2.3-0.5,3.5
		c-0.7,5.4-1.5,11.1-3.7,16.4c-2.5,5.9-6,11.3-9.5,16.5c-0.8,1.2-1.6,2.4-2.4,3.7l-1.4,2.1L811.2,559.5z"/>
	<path class="st1" d="M744.9,414.8c11.6,4.5,22.8,10,34.2,14.9c17.3,7.7,34.7,15.4,52,23.1c1.9,22,0.3,44.2-2.7,66
		c-1,6.5-1.5,13.2-4.1,19.4c-3,7.1-7.5,13.4-11.7,19.8c-0.3-0.3-1-1-1.3-1.3c-8.8-34.6-15.9-70.4-33.4-101.9
		C769.5,439.6,758.4,425.9,744.9,414.8z"/>
</g>
<g id="_x23_a62c2aff_1_">
	<path class="st2" d="M425.4,224.6c-1.6-1.6-3.1-3.4-4.5-5.1c-1.1-1.4-2.3-2.8-3.5-4.1c-2.6-2.9-5.6-6.7-5.7-11.6
		c0-3.6,0.9-6.9,1.7-10.2c0.3-1.1,0.5-2.1,0.8-3.2c4-16.8,7.5-34.1,10.9-50.8l0.7-3.3c0.9-3.2-0.6-6.7-2.3-10
		c-2.3-4.7-5.9-8.6-9.6-12.6c-1.7-1.8-3.4-3.7-5-5.7l-0.6-0.8l0.3-1c0.7-2.8,1.4-5.5,2-8.3c1.2-5.1,2.5-10.3,4-15.4l0.2-0.6l0.4-0.4
		c3.9-3.4,8.2-6.6,12.3-9.6c2.1-1.6,4.3-3.2,6.5-4.8l3.1-2.4l0.1,3.9c0.2,6,0.3,12,0.4,17.9c0,0.9,0,1.8,0,2.7
		c0.1-0.6,0.3-1.1,0.4-1.7c1.3-5,2.6-10.2,3.5-15.3c0.4-2.1,0.7-4.2,1.1-6.3c1.3-7.9,2.6-16.1,6.9-23.3
		c8.5-14.1,24.3-23.2,40.4-23.2c1.8,0,3.6,0.1,5.4,0.4l1.7,0.2l0.1,1.7c0.3,5.8,0.5,12.7,0.7,19.8l0,1.5l-1.4,0.5
		c-12,4.2-21.9,10-29.2,17.4c-8.9,8.8-14.4,20.4-19.7,31.6l-1.2,2.4c-8.3,16.5-8.8,35.4-8.1,51.7c-0.1,15.2-2.4,30.4-4.7,45
		c-0.6,4-1.2,8-1.8,12c-0.5,2.9-0.8,5.8-1.2,8.7c-0.5,3.6-0.9,7.4-1.6,11.1l-0.7,3.8L425.4,224.6z"/>
	<path class="st2" d="M451.1,43.9c8.9-14.7,26.5-24.2,43.8-21.9c0.3,6.6,0.5,13.2,0.7,19.8c-11.1,3.8-21.7,9.5-30,17.9
		c-9.7,9.7-15.4,22.4-21.3,34.6c-8.2,16.2-9,34.9-8.3,52.6c-0.2,19.1-3.8,37.9-6.5,56.7c-1,6.5-1.6,13.1-2.7,19.7
		c-2.9-2.9-5.2-6.2-8-9.2c-2.6-2.8-5.1-6.2-5.1-10.2c0-4.4,1.5-8.6,2.4-12.9c4.3-17.9,7.9-35.9,11.6-54c1-4-0.7-7.9-2.4-11.4
		c-3.6-7.3-9.9-12.5-14.9-18.7c2-7.9,3.7-15.9,6-23.7c5.9-5.1,12.5-9.6,18.7-14.3c0.4,9.3,0.4,18.7,0.6,28.1c0,2,0.4,4,0.8,5.9
		c1.9-10.1,5.1-20,7-30.1C445.3,63,445.9,52.6,451.1,43.9z"/>
	<path class="st2" d="M607.4,224.1c-0.9-10.3-2.5-20.7-4.1-30.8c-2-12.8-4-26.1-4.6-39.3c0-1.9,0-3.7,0-5.6
		c0.1-16.2,0.2-33-6.1-48.1l-0.7-1.6c-6.3-13.9-12.8-28.2-23.7-38.9c-7-6.7-16.1-12-27.9-16.1l-1.3-0.5l0-1.4c0-3.2,0.1-6.4,0.2-9.6
		c0.1-3.3,0.2-6.7,0.2-10l0-1.7l1.7-0.3c2-0.3,4-0.5,6.1-0.5c16.1,0,32.4,9.7,40.5,24.2c3.9,7,5.1,14.8,6.3,22.4
		c0.6,3.7,1.2,7.5,2.1,11.1c0.7,2.9,1.4,5.8,2.1,8.7c0.3,1.3,0.6,2.6,0.9,3.8c0.1-3.4,0.1-6.8,0.1-10.2c0-3.6,0.1-7.3,0.1-10.9
		l0.1-3.8l5,3.6c5.6,4.1,11.5,8.4,16.9,12.9l0.5,0.4l0.2,0.6c2.3,7.8,4.3,15.8,6,24l0.2,0.9l-0.5,0.7c-1.8,2.4-3.8,4.6-5.8,6.7
		c-3.4,3.7-6.6,7.1-8.6,11.4c-1.5,2.9-3.2,6.7-2.3,10.2c4.5,23,8.9,43.5,13.5,62.6c1.2,4.7,0.2,9.7-2.6,13.3c-1.6,2-3.2,3.9-4.9,5.8
		c-2,2.3-4.1,4.6-5.9,7.1l-3.1,4.3L607.4,224.1z"/>
	<path class="st2" d="M541.3,22.2c17.7-2.7,35.9,7.4,44.6,22.7c5.6,10.1,5.4,22,8.2,33c2.2,8.3,3.7,16.8,6.5,25
		c0.7-11.3,0.5-22.7,0.7-34c6.3,4.6,12.7,9.2,18.7,14.2c2.3,7.8,4.3,15.8,5.9,23.8c-4.7,6.3-11.1,11.3-14.6,18.4
		c-1.8,3.5-3.4,7.5-2.5,11.5c4,21,8.5,41.9,13.5,62.6c1,4,0.3,8.3-2.2,11.6c-3.5,4.4-7.4,8.4-10.8,12.9c-2-23.4-7.6-46.5-8.7-70
		c0-18.2,0.9-37.2-6.2-54.4c-6.6-14.6-13.3-29.8-24.9-41.2c-8.1-7.7-18.2-12.9-28.6-16.6C541,35.2,541.3,28.7,541.3,22.2z"/>
	<path class="st2" d="M775.5,273.2c-1.5-0.8-3.1-1.4-4.7-1.9c-12.1-3.5-24.5-6.8-36.6-9.9c-7.6-2-15.4-4-23.2-6.1l-0.7-0.2
		c-21.4-6.1-43.4-12.3-62.7-24.3c-6.6-3.8-12-9.2-17.9-16.1l-0.6-0.7l0.1-0.9c0.3-2.7,0.2-5.5,0-8.4c-0.2-3.7-0.4-7.6,0.5-11.4
		l0-0.2l0.5-1c1.5-3.4,3.6-8,8.4-8.8l0.5-0.1l0.5,0.1c3.9,1.2,6.5,4.4,8.4,7c2.5,3.7,4.8,7.5,7.1,11.1c2.9,4.6,5.8,9.3,8.9,13.9
		c1.5,2.4,4.2,3.6,7,4.8c1.1,0.5,2.2,1,3.3,1.5c27.4,12.3,58,14.5,87.5,16.7c3.5,0.3,7,0.5,10.4,0.8c0.7,0.1,1.3,0.1,2,0.2
		c5.1,0.5,10.8,1,15.5,4.2c4.1,2.7,3.7,8.3,1.1,12.4c-2.9,4.7-6.5,9.1-10,13.2c-1,1.2-1.9,2.3-2.9,3.5l-1,1.3L775.5,273.2z"/>
	<path class="st2" d="M631.8,193.7c1.5-3.3,3.2-7.8,7.3-8.5c3.1,1,5.5,3.6,7.3,6.2c5.5,8.2,10.4,16.8,16,25c2.4,3.9,7.2,5,11,7
		c31,13.9,65.4,15.1,98.7,17.7c5.6,0.6,11.7,0.8,16.5,4c3.4,2.2,2.4,6.8,0.6,9.7c-3.7,5.9-8.3,11.1-12.7,16.5
		c-1.6-0.8-3.3-1.5-5.1-2c-19.8-5.8-39.8-10.6-59.7-16c-21.6-6.1-43.6-12.3-62.8-24.3c-6.9-4-12.3-9.8-17.5-15.7
		C632.1,206.9,630.3,200.2,631.8,193.7z"/>
	<path class="st2" d="M258.3,272.4c-4.8-5.4-8.7-10.5-12.1-15.5c-3.2-5-3.4-9.4-0.6-12.4l0.1-0.1c3.7-3.5,8.8-4.2,13.3-4.8
		c0.6-0.1,1.1-0.1,1.6-0.2l0.1,0c4.8-0.4,9.6-0.8,14.5-1.1c29-2.1,58.9-4.4,85.9-16.2c1.2-0.6,2.4-1.1,3.6-1.6
		c3.2-1.4,6.2-2.7,7.9-5.3c3-4.3,5.8-8.8,8.5-13.1c2.6-4.1,5.3-8.4,8-12.5l0.1-0.1c2.2-2.8,4.8-5.8,8.8-6.1l0.5,0l0.4,0.2
		c4.1,1.6,6.2,5.6,7.8,9.7l0.1,0.2l0,0.2c0.7,3.7,0.5,7.4,0.3,11c-0.1,3-0.3,5.8,0.1,8.7l0.1,0.8l-0.5,0.6
		c-4.9,6.3-10.8,11.7-17.6,16c-15.3,9.5-32.6,15.3-47.6,20c-12.9,4-26.1,7.4-39,10.7c-13.9,3.6-28.2,7.3-42.1,11.7l-1.2,0.4
		L258.3,272.4z"/>
	<path class="st2" d="M390.7,190.6c1.9-2.4,4.2-5.1,7.4-5.3c3.5,1.4,5.3,5.2,6.6,8.6c1.2,6.4-0.4,13,0.4,19.5
		c-4.7,6.1-10.5,11.4-17,15.5c-14.6,9.1-30.9,14.7-47.2,19.8c-26.8,8.2-54.3,13.9-81.1,22.4c-4.3-4.9-8.3-9.9-12-15.3
		c-1.8-2.9-3.5-7-0.8-9.9c3.7-3.5,9.1-3.8,13.8-4.5c34-2.8,69.3-3.5,101.1-17.5c4.2-2.2,9.6-3.4,12.3-7.7
		C380,207.8,385,199,390.7,190.6z"/>
	<path class="st2" d="M216.1,292.5c-7.8-6.4-16.4-14.2-20.1-24.8l-0.6-1.7l1.7-0.7c10-4.4,21.5-6.4,37.1-6.4c2.2,0,4.4,0,6.9,0.1
		l0.6,0l0.5,0.4c3.1,2.4,5.1,5.7,6.9,8.9c1,1.8,2,3.4,3.2,4.9l1.8,2.3l-2.8,0.8c-12,3.4-23.3,9-32.7,16.2l-1.3,1L216.1,292.5z"/>
	<path class="st2" d="M197.9,267.1c13.5-6,28.6-6.6,43.1-6.1c4.5,3.4,6.3,9.1,9.7,13.5c-12,3.4-23.4,8.9-33.3,16.5
		C209.4,284.4,201.3,277,197.9,267.1z"/>
	<path class="st2" d="M816.7,292.2c-0.6-0.7-1.2-1.4-1.8-2c-7.6-5.6-16.7-9.3-25.5-12.8c-1.3-0.5-2.7-1.1-4-1.6l-2.4-1l1.6-2.1
		c1-1.4,1.9-2.9,2.9-4.6c1.9-3.5,4-7,7.7-9.1l0.4-0.3l0.5,0c1.1,0,2.1,0,3.2,0c12.5,0,26.8,0.5,39.7,6.4l0.6,0.3l0.3,0.6
		c1,1.9,0.1,3.6-0.5,4.6c-0.2,0.3-0.3,0.6-0.4,0.8l-0.1,0.2l-0.1,0.2c-4.6,8.8-12.2,15.6-18.9,21.1l-1.5,1.3L816.7,292.2z"/>
	<path class="st2" d="M786.1,274c3.3-4.3,5.1-10.5,10-13.2c14.2-0.1,28.9,0.2,42.1,6.2c0.7,1.3-0.7,2.7-1,4
		c-4.3,8.3-11.3,14.6-18.4,20.5c-0.8-0.9-1.6-1.9-2.5-2.8C807.1,282,796.4,278.2,786.1,274z"/>
	<path class="st2" d="M327.3,356.3c-0.3-3.3-0.2-6.7-0.1-9.9c0-1.8,0.1-3.7,0-5.5c0-4.1-0.4-8.4-0.7-12.4c-0.2-2.4-0.4-4.9-0.6-7.4
		l-0.1-2l2-0.1c37.8-2.1,74.3-12,105.6-28.6l0.6-0.3l0.7,0.1c8.2,1.7,16.5,3.4,24.7,5.1c7.7,1.6,15.3,3.2,23,4.7
		c10.9,1.9,20.1,10.2,23,20.6l0,0.1c1,4.8,0.8,9.6,0.6,14.3c0,0.7-0.1,1.5-0.1,2.2l-3.8,0.8c-4.5-9.3-13.9-16.4-25.6-19.3
		c-6.8-1.8-13.9-2.6-21.7-2.6c-14.5,0-29.2,3.1-40.5,5.9c-15,4.4-32.8,9.6-51.1,14.7c-3.2,0.9-6.5,1.9-9.6,2.9
		c-7.1,2.2-14.4,4.5-22,5.5c0,0.8,0,1.5-0.1,2.3c-0.1,3-0.2,6-0.5,9.1L327.3,356.3z"/>
	<path class="st2" d="M434.4,292.2c15.9,3.2,31.8,6.6,47.7,9.8c10,1.8,18.8,9.4,21.5,19.2c1.1,5.3,0.7,10.7,0.5,16
		c-5.2-10.6-15.7-17.6-26.9-20.4c-20.8-5.4-42.6-1.8-63.1,3.2c-17,5-34,9.9-51.1,14.7c-11,3-21.7,7.4-33.1,8.5
		c-0.2,4.3-0.1,8.6-0.6,12.9c-0.4-5.1,0-10.2-0.1-15.3c0-6.7-0.9-13.3-1.3-19.9C364.8,318.9,401.6,309.5,434.4,292.2z"/>
	<path class="st2" d="M707.1,345.2c-7.7-0.4-15.1-2.7-22.2-5c-1.8-0.5-3.5-1.1-5.3-1.6c-7.8-2.3-15.7-4.6-23.4-6.7
		c-9.9-2.8-20.1-5.7-30.1-8.7c-17.5-4.8-31.9-7-45.3-7c-2.5,0-5.1,0.1-7.5,0.3c-12.9,1.3-22.7,4.6-30,10.2c-3.8,2.8-7,6.8-9.2,11.4
		l-3.8-0.9c0-1.3,0-2.7-0.1-4c-0.1-3.6-0.2-7.3,0.4-11.1l0-0.1c2.4-10.4,11.2-19.1,21.9-21.5c7-1.5,14-2.9,20.8-4.3
		c9.2-1.9,18.8-3.8,28.1-5.9l0.7-0.2l0.6,0.3c31.2,16.5,67.9,26.4,106.1,28.7l2.2,0.1l-0.3,2.2c-0.8,5.4-1.1,11-1.3,16.4
		c-0.1,1.8-0.2,3.6-0.3,5.5l-0.1,2L707.1,345.2z"/>
	<path class="st2" d="M553,302.3c16.3-3.5,32.6-6.6,48.9-10.2c32.9,17.4,69.8,26.7,106.9,29c-1.1,7.3-1.2,14.7-1.6,22.1
		c-9.3-0.5-18.2-3.9-27-6.5c-17.8-5.3-35.7-10-53.5-15.5c-17.4-4.7-35.5-8-53.6-6.8c-11,1.1-22.1,3.8-31,10.6
		c-4.2,3.1-7.5,7.4-9.8,12.1c0-4.9-0.4-9.9,0.3-14.8C534.8,312.5,543.2,304.5,553,302.3z"/>
	<path class="st2" d="M192.9,451.4c4.7-16.8,8-31.9,10.2-45.9c3.9-24.7,5.9-50.1,7.8-74.7c0.7-9.6,1.5-19.5,2.4-29.3l0.3-3.5l2.8,2
		c1.6,1.1,3.2,2.3,4.8,3.4c6.4,4.7,13.1,9.5,20.1,13.4l1.1,0.6l-0.1,1.3c-0.6,13-5.8,24.7-10.8,36.1c-4.2,9.4-8.4,19.1-10,29.3
		c-0.7,4.7-1.2,9.5-1.7,14.1c-1.1,9.5-2.2,19.2-4.4,28.7c-0.7,3.7-1.8,7.4-2.9,10.9c-0.4,1.4-0.9,2.9-1.3,4.3l5.6,0.5l-6,3.2
		c-1.2,0.6-2.4,1.3-3.6,1.9c-3.8,2-7.7,4.1-11.6,6l-4,1.9L192.9,451.4z"/>
	<path class="st2" d="M215.4,301.7c8.2,5.9,16.2,12.1,25.1,16.9c-1.1,23.4-17.3,42.4-20.8,65.2c-2,14.2-2.8,28.7-6.1,42.7
		c-1.1,5.9-3.3,11.6-4.8,17.4l1.2,0.1c-5,2.7-10,5.4-15.1,7.9c4.2-15.2,7.9-30.6,10.3-46.2C210.6,371.3,212.2,336.4,215.4,301.7z"/>
	<path class="st2" d="M841,453.8c-2.8-1.2-5.6-2.7-8.2-4.1c-2-1.1-4-2.1-6.1-3.1l-1-0.5l-0.2-1.3c-0.3-2.6-1-5-1.8-7.6
		c-0.5-1.6-1-3.3-1.4-5.1c-2.4-9.1-3.8-18.3-4.9-27c-0.3-2.7-0.6-5.5-0.9-8.2c-0.7-7.1-1.5-14.5-3.5-21.5c-2.1-7.1-5.1-14-8-20.7
		c-4.9-11.3-10.1-23-10.9-35.9l-0.1-1.3l1.1-0.6c7.6-4.3,15.4-9.6,24.8-16.9l2.8-2.2l0.4,3.6c1.3,12.3,2.3,24.8,3.2,36.8
		c2,24.7,4,50.3,8.6,75.1c2.3,12.9,5.3,25.7,9,38l1.2,4.1L841,453.8z"/>
	<path class="st2" d="M795.9,318.7c8.8-5,17-10.9,25-17c3.9,37.3,5,75.1,11.8,112.1c2.3,12.9,5.3,25.7,9,38.2
		c-4.9-2.1-9.4-4.9-14.3-7.2l0-0.3c-0.5-4.4-2.3-8.5-3.3-12.7c-2.4-8.8-3.7-17.8-4.9-26.8c-1.3-10-1.6-20.2-4.5-30
		C809.2,356,797.2,338.9,795.9,318.7z"/>
	<path class="st2" d="M204.3,602.9c-2.2-7-3-14.4-3.8-21.5c-0.2-1.8-0.4-3.6-0.6-5.4c-1.5-14.8-2.8-29.7-4.1-44.2
		c-1-12-2.1-24.4-3.3-36.6c-0.3-2.5-0.6-5-0.8-7.6c-0.9-9-1.9-18.3-4.4-27l-0.5-1.7l1.6-0.7c1.7-0.8,3.4-1.5,5.1-2.3
		c3.6-1.6,7.3-3.3,11-4.8l2.9-1.2l-0.2,3.2c-1,19.2-0.8,34.6,0.8,48.7c1.1,9.9,2.2,18.6,3.4,26.6c1.6,10.3,7.6,19.2,13,26.8l0.5,0.7
		l-0.2,0.8c-2.4,12.8-4.8,24.4-9.6,35.4l-0.5,1c-1.9,3.9-3.8,7.9-7.3,10.8l-2.3,1.9L204.3,602.9z"/>
	<path class="st2" d="M189.2,460c5.3-2.4,10.6-4.9,16-7.1c-0.9,16.3-1,32.7,0.8,49c1,8.9,2.1,17.8,3.4,26.6
		c1.6,10.4,7.4,19.4,13.4,27.7c-2.3,11.9-4.7,23.8-9.5,35c-1.9,4-3.8,8.2-7.3,11c-2.6-8.6-3.3-17.6-4.4-26.5
		c-2.8-26.9-4.7-53.9-7.4-80.8C193.1,483.3,192.4,471.4,189.2,460z"/>
	<path class="st2" d="M829.7,603.9c-0.2,0-0.5,0-0.7-0.1l-0.7-0.1l-0.4-0.5c-3.8-4.3-6.4-9.4-8.4-13.8c-4.8-11-7.9-22.4-10.2-32.1
		l-1.7-7l4.6,4.6c0.4-0.5,0.7-1.1,1.1-1.6c3.3-5,6.8-10.3,9.1-15.8c2-4.8,2.7-10.2,3.4-15.4c0.2-1.2,0.3-2.4,0.5-3.5
		c3.5-24.6,4.4-46.1,2.7-65.5l-0.3-3.3l3.1,1.3c3.5,1.5,6.9,3,10.3,4.5c1.9,0.9,3.9,1.7,5.8,2.6l1.6,0.7l-0.4,1.7
		c-2.3,8.6-3.3,17.7-4.2,26.5c-0.2,2.3-0.5,4.7-0.8,7c-1.2,12.3-2.3,24.8-3.3,36.9c-1.2,14.5-2.5,29.4-4.1,44.1
		c-0.1,1.2-0.3,2.4-0.4,3.5c-0.8,6.9-1.6,14-3.1,20.9l-0.1,0.3L833,600c0,0-0.1,0.3-0.1,0.5C832.7,601.4,832.2,603.9,829.7,603.9z"
		/>
	<path class="st2" d="M831.1,452.9c5.4,2.3,10.7,4.7,16.1,7.1c-3,11-3.7,22.5-5,33.8c-2.7,27-4.5,54.1-7.4,81.1
		c-0.9,8.1-1.7,16.2-3.5,24.2c-0.5,0.9-0.2,3.1-1.8,2.8c-3.4-3.9-5.9-8.6-8-13.3c-4.4-10.2-7.5-21-10.1-31.7c0.3,0.3,1,1,1.3,1.3
		c4.2-6.4,8.7-12.7,11.7-19.8c2.6-6.1,3.1-12.8,4.1-19.4C831.4,497.1,833,474.9,831.1,452.9z"/>
</g>
<g id="_x23_6a0c0dff_1_">
	<path class="st3" d="M203.1,229.5c-3.9-26.2-5.9-50.3-6-73.5c0-15.3,0.1-31.5,2.1-47.5l0.3-2.3l2.2,0.6
		c43.7,12.2,90,18.4,137.7,18.4c8.7,0,17.6-0.2,26.3-0.6l0.1,0l1.2,0.1c2,0.1,4,0.2,6,0.8l0.6,0.2l0.4,0.5c1.1,1.4,2.1,2.8,3,4.3
		c1.7,2.5,3.3,4.9,5.5,6.7c6.1,5.1,4.9,9.3,3.7,11.4l-0.1,0.1l-0.1,0.1c-4.4,5.7-10.5,9.3-16.3,12.8c-2.2,1.3-4.5,2.7-6.6,4.1
		c-6,4.1-9.6,10.7-13.4,18.2c-3.1,6.5-8.9,11.4-15.3,13.1c-7.6,2.1-16.1,3.1-26,3.1c-0.5,0-0.9,0-1.4,0c-5.3,0.5-10.7,0.7-16,0.9
		c-8.5,0.4-17.3,0.7-25.8,2.1c-1.1,0.2-2.2,0.4-3.4,0.6c-7,1.1-14.1,2.3-20.3,5.6c-4.6,2.2-8.4,5.6-12.3,9.1c-3.4,3-7,6.2-11.1,8.6
		c-3.9,2.5-8.6,3.5-12.7,4.3l-2.1,0.4L203.1,229.5z"/>
	<path class="st3" d="M201.2,108.7c53.4,14.9,109.3,20.5,164.6,17.9c2.2,0.1,4.5,0.2,6.7,0.8c3,3.7,5.1,8.2,8.8,11.3
		c2.5,2.1,5.3,5.4,3.3,8.8c-5.8,7.5-14.8,11.3-22.5,16.4c-6.7,4.6-10.5,11.9-14,19c-2.8,5.7-7.9,10.4-14,12c-8.8,2.4-17.9,3.1-27,3
		c-14,1.2-28.1,0.8-42,3.1c-8.3,1.4-16.8,2.4-24.3,6.4c-8.9,4.3-14.9,12.7-23.5,17.6c-3.6,2.3-7.9,3.3-12.1,4.1
		c-3.6-24.3-5.8-48.7-6-73.3C199.1,140.2,199.2,124.3,201.2,108.7z"/>
	<path class="st3" d="M829.4,231c-7.2-1.8-12.8-4.4-17.1-8.1c-1.6-1.3-3.2-2.7-4.7-4.1c-5.1-4.5-9.9-8.8-16-11.2
		c-10.8-3.6-22.1-4.9-34.7-6c-4-0.5-8-0.6-11.9-0.6c-4,0-8.1-0.1-12.2-0.7l-3-0.1c-8.6-0.3-17.4-0.6-26-2.7c-7.7-2.2-13.2-6-16-11.1
		c-0.7-1.2-1.3-2.5-1.9-3.7c-1.9-3.8-3.8-7.5-6.3-10.7c-3.7-4.8-8.8-7.9-14.2-11.1c-5.1-3.1-10.4-6.3-14.5-11.1
		c-2.2-2.8-2.6-5.9-1.1-8.2c1.3-2.2,3.1-3.9,4.8-5.6c1.7-1.6,3.3-3.2,4.4-5c0.3-0.5,0.5-0.9,0.8-1.4c1.1-2,2.5-4.6,5.8-5.1l0.2,0
		l0.2,0c9.9,0.5,20,0.8,29.9,0.8c47.3,0,93.3-6.3,136.8-18.6l2.3-0.6l0.3,2.3c4.1,37.3,2.9,78-3.5,121l-0.3,2.2L829.4,231z"/>
	<path class="st3" d="M666,126.4c56.2,3.1,113.1-2.4,167.3-17.8c4.4,40.1,2.5,80.7-3.5,120.5c-5.9-1.5-11.6-3.7-16.2-7.7
		c-6.8-5.6-12.9-12.4-21.3-15.7c-11.4-3.8-23.4-5.1-35.2-6.2c-8-1.1-16.1-0.2-24.2-1.3c-9.6-0.3-19.3-0.4-28.6-2.7
		c-5.8-1.6-11.7-4.7-14.7-10.2c-2.6-5-4.9-10.2-8.4-14.7c-7.6-9.8-20.8-12.8-28.8-22.3c-1.3-1.6-2.2-4-0.9-5.9
		c2.5-4.1,6.9-6.5,9.3-10.7C662.2,129.6,663.1,126.8,666,126.4z"/>
	<path class="st3" d="M516.2,749.5c-6.2-5-12-10.6-17.6-16c-2.4-2.3-4.8-4.6-7.2-6.9c-7.5-7.2-15.3-14.9-24.7-24.4
		c-0.7-0.8-1.5-1.5-2.2-2.2c-1.9-1.9-3.9-3.8-5.5-6.1l-2.4-3.4l4.1,0.2c4.8,0.3,9.6,0.6,14.3,0.9c11.7,0.8,23.9,1.6,35.8,1.6
		c2.1,0,4.1,0,6.1-0.1l0.1,0l0.1,0c0.2,0,0.4,0,0.6,0c0.4,0,0.8,0,1.2,0c0.5,0,0.9,0,1.4,0c1.7,0,3.8,0.2,5.4,2
		c3.1,2.8,6.2,5.7,9.1,8.5c4.7,4.4,9.5,9,14.5,13.3l1.6,1.4l-1.4,1.5c-6.2,6.6-12.9,12.8-19.4,18.8c-3.7,3.5-7.6,7.1-11.3,10.7
		l-1.3,1.2L516.2,749.5z"/>
	<path class="st3" d="M460.6,692.8c18.8,1,37.5,2.8,56.3,2.4c2.5,0.2,5.5-0.8,7.3,1.4c8,7.2,15.5,15,23.8,21.9
		c-9.7,10.3-20.5,19.6-30.6,29.5c-8.7-7-16.5-15.2-24.7-22.8c-8.3-8-16.5-16.1-24.6-24.3C465.6,698.2,462.7,695.8,460.6,692.8z"/>
</g>
<g id="_x23_581211ff_1_">
	<path class="st4" d="M208.4,246.7c-2.7,0-3.1-2.9-3.2-3.9c0-0.2,0-0.3-0.1-0.4l0-0.1c-0.5-3.4-1-6.9-1.6-10.2l-0.7-4.5l1.9-0.4
		c3.9-0.8,7.9-1.7,11.4-3.8c3.9-2.2,7.1-5.1,10.5-8.1c4-3.5,8.1-7.2,13.1-9.6c6.7-3.6,14.2-4.9,21.5-6c1.1-0.2,2.2-0.4,3.4-0.6
		c8.8-1.4,17.7-1.8,26.3-2.2c5.2-0.2,10.6-0.4,15.9-0.9l0.1,0c0,0,1.1,0,1.6,0c9.5,0,17.7-1,24.9-3c5.3-1.4,10.1-5.5,12.8-11
		c3.3-6.6,7.3-14.7,14.7-19.8c2.2-1.5,4.6-2.9,6.8-4.2c5.8-3.4,11.2-6.7,15.1-11.7c1-1.7,0-3.8-2.9-6.2c-2.6-2.2-4.5-4.9-6.2-7.6
		c-0.8-1.2-1.6-2.4-2.4-3.5c-1.4-0.3-3-0.4-4.6-0.5l-1.1-0.1l0-4l2.1-0.1c9.3-0.6,18.9-1.2,28.3-2.1l1.4-0.1l0.6,1.3
		c2.6,5.5,5.4,9.9,8.8,13.4l0.7,0.7l-0.2,1c-1.3,7.6-2.9,15.3-4.5,22.7c-0.4,2-0.9,4-1.3,6l-0.3,1.5l-1.6,0
		c-6.7,0.2-11.8,1.7-15.6,4.5l-0.1,0.1c-8.9,5.9-13.8,15.9-18.6,25.5l-0.2,0.3l0,0.1c-0.3,0.5-0.6,1.1-0.9,1.7
		c-0.9,1.9-2.1,4.3-4.6,5.5c-21.6,10.8-45.7,14.2-68.6,16.1c-5.2,0.6-10.6,0.9-15.8,1.2c-8.6,0.5-17.6,1.1-26.1,2.9
		c-10,2.1-18.1,8.3-21.6,16.6l-0.4,1l-1.1,0.2c-2.5,0.3-5,0.6-7.5,0.8c-3,0.3-6.1,0.6-9.1,1C209.2,246.6,208.8,246.7,208.4,246.7z"
		/>
	<path class="st4" d="M365.8,126.6c10.1-0.7,20.3-1.3,30.4-2.2c2.4,5.1,5.3,9.8,9.2,13.9c-1.6,9.6-3.8,19.1-5.8,28.6
		c-5.9,0.2-11.9,1.3-16.7,4.9c-9.4,6.3-14.5,16.7-19.4,26.6c-1.3,2.3-2,5.2-4.6,6.4c-21,10.6-44.7,13.9-67.9,15.9
		c-14,1.6-28.3,1.2-42.1,4.1c-9.9,2-19,8.3-23,17.7c-5.6,0.8-11.2,1-16.8,1.9c-1.8,0.7-1.8-1.5-1.9-2.5c-0.6-4.3-1.3-8.6-2-12.9
		c4.2-0.8,8.4-1.8,12.1-4.1c8.6-4.9,14.6-13.3,23.5-17.6c7.5-4.1,16.1-5,24.3-6.4c13.9-2.3,28-1.8,42-3.1c9,0.1,18.2-0.6,27-3
		c6.2-1.6,11.3-6.3,14-12c3.5-7.1,7.4-14.4,14-19c7.7-5.2,16.7-8.9,22.5-16.4c2.1-3.4-0.7-6.7-3.3-8.8c-3.7-3.1-5.8-7.6-8.8-11.3
		C370.3,126.8,368,126.7,365.8,126.6z"/>
	<path class="st4" d="M827.1,246.3c-4-0.3-8.1-0.8-12-1.2c-1.6-0.2-3.3-0.3-4.9-0.5l-1.2-0.1l-0.5-1.1c-2.4-5.7-6.7-10.4-12.1-13
		c-8.8-4.6-19-5.2-28.9-5.8c-1.6-0.1-3.2-0.2-4.9-0.3l-4.4-0.3c-26.8-2.1-54.4-4.3-79.3-16l-0.1-0.1c-0.4-0.2-0.8-0.4-1.2-0.6
		c-1.2-0.5-2.6-1.1-3.6-2.5l-0.1-0.1l-0.1-0.1c-1.4-2.5-2.7-5.1-4-7.7c-3.9-7.7-7.9-15.6-14.5-21.1c-5-4.4-11.5-6.8-18.5-6.8
		c-0.2,0-0.4,0-0.6,0l-1.7,0l-0.3-1.6c-0.6-3-1.2-6.1-1.9-9.1c-1.3-6.4-2.7-13-3.8-19.6l-0.1-0.9l0.5-0.7c0.7-0.9,1.4-1.7,2.1-2.5
		c1.7-2,3.3-3.9,4.3-6.1l0.1-0.1l0.1-0.1c0.2-0.4,0.5-0.9,0.7-1.4c0.5-1.2,1.2-2.8,2.7-3.8l0.5-0.4l0.7,0c4.2,0.2,8.4,0.5,12.5,0.9
		c4.4,0.4,9,0.7,13.5,0.9l0.2,4c-1.3,0.2-1.9,1.2-2.9,3c-0.3,0.5-0.6,1-0.8,1.5c-1.3,2.3-3.2,4.1-5,5.9c-1.6,1.6-3.2,3-4.2,4.8
		l-0.1,0.1c-0.7,1,0,2.5,0.8,3.5c3.6,4.3,8.4,7.1,13.5,10.2c5.5,3.3,11.1,6.7,15.3,12.1c2.8,3.5,4.8,7.5,6.7,11.3
		c0.6,1.2,1.2,2.4,1.9,3.6c2.9,5.3,8.9,7.9,13.5,9.2c8.1,2,16.7,2.3,25.1,2.6l3.2,0.1l0.1,0c3.9,0.5,7.9,0.6,11.8,0.6
		c4,0,8.2,0.1,12.3,0.7c12.7,1.2,24.3,2.5,35.6,6.3c6.8,2.7,12.1,7.4,17.3,12c1.5,1.3,3.1,2.7,4.6,4c3.8,3.3,8.9,5.7,15.4,7.3
		l1.8,0.4l-0.5,3.1c-0.7,4.7-1.4,9.5-2.5,14.2l-0.4,1.7L827.1,246.3z"/>
	<path class="st4" d="M637.2,129.2c0.9-1.5,1.3-3.6,2.8-4.6c8.7,0.4,17.3,1.5,26,1.8c-2.9,0.4-3.8,3.3-5.2,5.4
		c-2.3,4.2-6.8,6.6-9.3,10.7c-1.3,1.9-0.4,4.2,0.9,5.9c8,9.4,21.2,12.4,28.8,22.3c3.5,4.4,5.8,9.7,8.4,14.7c3,5.5,8.9,8.5,14.7,10.2
		c9.4,2.3,19,2.4,28.6,2.7c8,1.1,16.1,0.2,24.2,1.3c11.9,1.1,23.9,2.4,35.2,6.2c8.4,3.3,14.5,10,21.3,15.7c4.6,4,10.4,6.3,16.2,7.7
		c-0.8,5.1-1.5,10.2-2.6,15.3c-5.6-0.5-11.2-1.1-16.8-1.7c-2.5-6-7.2-11.1-13.1-14c-10.6-5.5-22.9-5.5-34.5-6.3
		c-28-2.2-57.1-3.9-82.9-16.2c-1.4-0.8-3.3-1.2-4.3-2.5c-5.7-10.1-9.8-21.7-19-29.3c-5.6-4.9-13-7.4-20.4-7.3
		c-1.9-9.5-4.1-19-5.7-28.6C632.9,135.3,635.7,132.7,637.2,129.2z"/>
</g>
<path class="st1" d="M458.1-26.5c38.9-0.2,77.9,0,116.8-0.1c0,5.4-0.2,10.7-0.1,16.1C597-2.6,616,14.4,625.5,36
	c0.5,1.2,1.1,2.4,2.6,2.3c68.5,9.2,139.8,5.1,205-19.3c20-7.7,39.9-15.6,59.9-23.4c5,16.8,9.8,33.7,14.8,50.5
	c5.9,19.1,8.9,39,11,58.8c6.8,67.9,0,136.7-16,202.9c-7.7,32.4-18.2,64-29.9,95.2c1.6,14.1,5.2,27.9,8.8,41.6
	c1.3,10.4,1.3,20.9,2.2,31.4c0,8.2,1.9,16.3,0.5,24.5c-2.3,21.9-3.9,43.8-5.9,65.6c-1.6,16.4-2.8,32.9-6.3,49
	c-1.8,8.8-6.5,16.6-10.4,24.6c-7.6,15.2-15.3,30.4-22.9,45.6c-9-9.5-17.4-19.5-26.3-29.1c-39.9,16.1-81,29.3-122.5,40.6
	c-7,7.3-13.5,15.2-20.4,22.6c-24.5,26.8-49.8,52.8-76.3,77.8c-20.8,19.9-42.4,38.9-64,58c-4.4,4.4-9.7,7.9-13.6,12.8h-0.4
	c0.1-0.2,0.2-0.4,0.3-0.6c-8.1-6.9-16-14.1-24-21.1c-53.5-46.7-104.4-96.5-150.8-150.2c-39.6-11.1-78.2-26.2-114-46.5
	c-10.9,11.8-21.4,24-32.4,35.8c-9.6-19.3-19.3-38.5-28.9-57.8c-3.8-7.7-5.3-16.2-6.6-24.6c-4.7-35.5-6.5-71.3-10.4-107
	c0.6-15,2.1-30,3-45c0.3-4,0.5-8.1,1.7-12c2.8-9.8,4.8-19.7,6.6-29.7c0.2-1.2,0.3-2.4-0.2-3.6c-34-86.4-53.1-179.5-49.2-272.6
	c1.4-25.9,4.1-51.8,10.3-77c5.7-20.1,11.6-40.2,17.5-60.3C160,4,181.8,12.9,203.8,21.1c43.3,15.5,89.4,21.7,135.2,21.8
	c22.5-0.5,45.2-1.7,67.5-5.2c9.3-22.7,29.1-40.2,51.9-48.5C458.3-16.1,458.3-21.3,458.1-26.5 M482.1-7.1c0.2,3.6,0.3,7.3,0.2,10.9
	C470,5.5,458,10.3,448.1,18.1c-11.8,9.1-20.2,22.3-23.4,36.8c-77,12.7-157.9,9.8-231.5-17.5c-13.1-4.9-26-10.4-39.2-15.1
	c-4.8,17.8-11.1,35.3-14.3,53.6c-4.4,24.1-6.1,48.5-6.7,72.9c-0.4,63.3,9.8,126.5,28.1,187c6.6,22.4,14.7,44.3,23.1,66
	c-1.8,13.5-4.6,26.9-8.2,40c-1.7,5-1.3,10.3-1.9,15.4c-0.6,11.5-1.5,23.1-2,34.6c3.4,32.3,5.4,64.6,9.1,96.9
	c1.4,10,2.2,20.5,7.2,29.5c4.4,8.5,8.4,17.2,13,25.6c7.3-8.6,15-16.8,22.5-25.2c39.8,24.8,83.8,42.5,129,54.7
	c2.3,0.6,3.6,2.9,5.1,4.5c48.7,56.5,102.4,108.4,158.8,157.1c2.2-0.8,3.7-3.1,5.6-4.5c55.2-48,107.8-99.1,155.4-154.6
	c0.5-0.8,1.2-1.3,2-1.6c47.7-12.3,94.7-27.9,140.1-47c5.1,5.5,9.9,11.2,15,16.6c4.6-8.8,8.9-17.7,13.4-26.5
	c4.3-8.1,5.1-17.4,6.4-26.3c3.8-32.6,5.9-65.5,9.3-98.1c-0.3-14-1.7-27.9-2.3-41.9c0-5.2-2-10.1-3.2-15.1
	c-3.1-12.5-5.7-25.1-7.2-37.8c10.5-27.3,20.1-54.9,27.6-83.2c12.3-45.6,19.8-92.6,21.7-139.9c1.2-37.4-0.7-75.3-9-111.9
	c-3.6-13.6-7.7-27.1-11.7-40.6c-11.8,4.3-23.3,9.1-35,13.6C803,52.2,758,60.4,713,61.9c-34,1.4-68-1.3-101.6-6.4
	c-2.1-8.2-5-16.2-10-23.1c-10.8-15.6-28.5-26-47.3-28.5c0.1-3.6,0.1-7.3,0.1-10.9C530.2-7.1,506.1-7.2,482.1-7.1z"/>
<g>
	<path class="st1" d="M504.1,11c9.4,0,18.8,0.1,28.2,0c-0.3,50-1.3,99.9-1.7,149.8c-0.1,2.3,0.2,4.8-0.8,7
		c-3.8,8.9-7.7,17.8-11.3,26.7c-2.9-5-4.7-10.6-7.1-15.9c-1.6-4.3-3.9-8.3-5.2-12.7c-0.5-31-1.1-62.1-1.2-93.1
		C504.5,52.3,504.3,31.6,504.1,11z"/>
	<path class="st1" d="M465.6,59.6c8.3-8.3,18.9-14.1,30-17.9c0.7,27.6,1.8,55.1,2.4,82.7c-17.8-4.6-35.5-9.6-53.3-14
		c0,23,9.8,44.6,10.4,67.6c0.9,11.4-2.3,22.7-2.2,34.1c-0.2,10.2-0.6,20.6,1.7,30.7c5.5-25.1,10.7-50.3,15.8-75.5
		c9.5-1.4,19.1-2.2,28.7-3.3c2,38.7,3.7,77.4,5.7,116.1c-11.1-3.8-22.4-7.3-33.4-11.5c-7.4-2.6-14.7-6.2-20-12
		c-8.4-9.1-14.7-19.8-22.2-29.6c-0.8-1.2-1.8-2.3-2.3-3.6c1.1-6.5,1.7-13.1,2.7-19.7c2.7-18.8,6.3-37.6,6.5-56.7
		c-0.7-17.8,0.1-36.5,8.3-52.6C450.2,82,455.9,69.3,465.6,59.6z"/>
	<path class="st1" d="M540.9,41.8c10.4,3.7,20.6,8.9,28.6,16.6c11.7,11.4,18.3,26.6,24.9,41.2c7.1,17.2,6.2,36.2,6.2,54.4
		c1.1,23.5,6.7,46.6,8.7,70c-6.8,9.1-13,18.6-20,27.5c-4.6,5.7-10,11-16.8,13.9c-13.3,5.8-27.2,9.8-40.8,14.6
		c1.6-38.7,3.9-77.3,5.4-116c9.6,0.9,19.1,2,28.7,3.2c5.2,25.3,10.7,50.5,15.7,75.8c3-11.7,1.9-24,1.7-35.9c0-7.8-2.2-15.4-2.1-23.1
		c-0.3-19.4,5.7-38.1,9.2-57.1c1.1-5.4,0.9-11,1.4-16.5c-17.8,4.6-35.6,9.6-53.4,14.1C539.3,96.9,539.8,69.3,540.9,41.8z"/>
	<path class="st1" d="M388.1,228.9c6.5-4.1,12.3-9.4,17-15.5c6.4,17.6,23.5,28.1,32,44.4c1.6,3.4,2.8,7.3,1.8,11
		c-1.3,3.5-4.6,5.7-7.9,7.3c-14,6.5-30,6.3-44,12.6c-13.3,5.3-27.1,9.6-41,12.9c-10.4,2.6-21.3,4-32,2.4
		c-21.8-2.7-40.3-16.6-54.1-33c26.7-8.5,54.3-14.1,81.1-22.4C357.2,243.6,373.5,238,388.1,228.9z"/>
	<path class="st1" d="M631.3,213.4c5.1,5.9,10.6,11.7,17.5,15.7c19.2,12,41.2,18.1,62.8,24.3c19.9,5.4,40,10.3,59.7,16
		c1.8,0.5,3.5,1.2,5.1,2c-10,11.2-21.5,21.5-35.5,27.5c-9.4,4.1-19.7,6-30,5.7c-10.1-0.2-19.9-2.8-29.6-5.4
		c-10.7-2.9-21.2-6.3-31.4-10.4c-14.3-6.6-30.7-6.2-44.9-13c-4.2-2-8.8-5.9-7.8-11.1c1.1-7.6,6.3-13.8,11-19.7
		C616.4,235,627,226.1,631.3,213.4z"/>
	<path class="st1" d="M786.1,274c10.3,4.2,21,8,30,14.7c0.9,0.9,1.7,1.8,2.5,2.8c-14,10.9-29.7,19.6-46.3,25.8
		c-11.7,4.3-24,7.6-36.5,6.4c4.1-2.7,8.7-4.6,12.7-7.5C764.4,305.6,776,289.9,786.1,274z"/>
	<path class="st1" d="M217.3,290.9c9.9-7.6,21.4-13.1,33.3-16.5c10.3,16.4,22.4,32.3,38.9,42.8c3.5,2.4,7.5,3.9,10.9,6.5
		c-5.9,0.4-11.8,0.2-17.6-1c-15-3-29.1-9-42.5-16.3C232.4,301.8,224.5,296.8,217.3,290.9z"/>
	<path class="st1" d="M414,320c20.5-5,42.3-8.7,63.1-3.2c11.2,2.8,21.8,9.7,26.9,20.4c0.4,19.5,0.1,39.1,0.2,58.7
		c-0.1,21.5,0.3,43-0.2,64.4c-67.3,0.2-134.7,0-202,0.2c1-3.3,3-6.1,4.4-9.3c14-29.7,21.3-62.3,22.9-95.1c0.4-4.3,0.4-8.6,0.6-12.9
		c11.4-1.2,22.1-5.5,33.1-8.5C380,330,397,325,414,320z"/>
	<path class="st1" d="M542,325c8.9-6.8,20.1-9.5,31-10.6c18.1-1.2,36.2,2.1,53.6,6.8c17.7,5.5,35.7,10.2,53.5,15.5
		c8.9,2.6,17.7,6,27,6.5c-0.5,40.5,8.5,81.3,27.5,117.2c-67.3,0-134.7,0-202.1,0c-0.2-1.8-0.5-3.7-0.5-5.5
		c0.1-39.3-0.1-78.5,0.1-117.8C534.5,332.4,537.8,328.1,542,325z"/>
	<path class="st1" d="M240.5,318.6c19.6,10.9,41.8,17.1,64.3,17.7c-2.4,19.3-5.4,38.5-8.5,57.6c-0.5,2.4-0.5,5.1-2.3,6.9
		c-2.9,3-6.9,4.6-10.6,6.5c-24.4,12.4-49,24.3-73.4,36.7l-1.2-0.1c1.5-5.8,3.7-11.5,4.8-17.4c3.3-14,4.1-28.5,6.1-42.7
		C223.1,361,239.3,342,240.5,318.6z"/>
	<path class="st1" d="M731.6,336.5c22.4-0.9,44.6-6.9,64.2-17.8c1.4,20.2,13.3,37.3,18.9,56.3c2.9,9.8,3.2,20,4.5,30
		c1.1,9,2.5,18,4.9,26.8c1,4.3,2.8,8.4,3.3,12.7c-26.4-13.3-53.1-26.2-79.4-39.7c-3.3-1.8-7.2-4.2-7.5-8.3
		C737.3,376.5,734.3,356.5,731.6,336.5z"/>
	<path class="st1" d="M280.7,419.4c3.5-1.5,6.8-3.3,10.5-4.4c-10.3,7.5-20.1,15.9-28,26.1c-15.4,19.4-24.5,43-30.4,66.9
		c-4.1,16-6.7,32.2-9.8,48.3c-6-8.3-11.8-17.3-13.4-27.7c-1.3-8.8-2.4-17.8-3.4-26.6c-1.8-16.3-1.7-32.7-0.8-49
		C230.3,441.6,255.5,430.6,280.7,419.4z"/>
	<path class="st1" d="M744.9,414.8c11.6,4.5,22.8,10,34.2,14.9c17.3,7.7,34.7,15.4,52,23.1c1.9,22,0.3,44.2-2.7,66
		c-1,6.5-1.5,13.2-4.1,19.4c-3,7.1-7.5,13.4-11.7,19.8c-0.3-0.3-1-1-1.3-1.3c-8.8-34.6-15.9-70.4-33.4-101.9
		C769.5,439.6,758.4,425.9,744.9,414.8z"/>
</g>
<g id="_x23_0e121aff">
	<path class="st0" d="M482.1-7.1c24-0.1,48,0,72,0c0,3.6,0,7.3-0.1,10.9c18.8,2.6,36.5,12.9,47.3,28.5c5,6.9,7.9,14.9,10,23.1
		C645,60.5,679,63.2,713,61.9c45-1.5,90-9.7,132.2-25.9c11.7-4.5,23.3-9.3,35-13.6c3.9,13.5,8.1,27,11.7,40.6
		c8.3,36.6,10.2,74.5,9,111.9c-1.8,47.3-9.4,94.2-21.7,139.9c-7.5,28.3-17.1,55.9-27.6,83.2c1.5,12.7,4.1,25.4,7.2,37.8
		c1.1,5,3.1,9.9,3.2,15.1c0.5,14,2,27.9,2.3,41.9c-3.4,32.7-5.4,65.5-9.3,98.1c-1.3,8.9-2.2,18.2-6.4,26.3
		c-4.5,8.8-8.8,17.7-13.4,26.5c-5.1-5.4-10-11.1-15-16.6c-45.4,19.2-92.4,34.7-140.1,47c-0.8,0.3-1.5,0.9-2,1.6
		c-47.6,55.5-100.2,106.6-155.4,154.6c-1.9,1.4-3.4,3.6-5.6,4.5c-56.4-48.7-110.2-100.6-158.8-157.1c-1.5-1.6-2.8-3.9-5.1-4.5
		c-45.2-12.2-89.2-29.9-129-54.7c-7.5,8.4-15.2,16.6-22.5,25.2c-4.7-8.3-8.6-17.1-13-25.6c-5-9-5.8-19.5-7.2-29.5
		c-3.7-32.2-5.7-64.6-9.1-96.9c0.6-11.5,1.4-23.1,2-34.6c0.5-5.1,0.2-10.4,1.9-15.4c3.6-13.1,6.5-26.5,8.2-40
		c-8.4-21.7-16.5-43.6-23.1-66c-18.3-60.6-28.5-123.7-28.1-187c0.6-24.4,2.3-48.9,6.7-72.9c3.1-18.3,9.5-35.7,14.3-53.6
		c13.2,4.7,26.1,10.2,39.2,15.1C266.9,64.8,347.8,67.7,424.8,55c3.1-14.6,11.6-27.8,23.4-36.8C458,10.3,470,5.5,482.4,3.8
		C482.4,0.2,482.3-3.5,482.1-7.1 M504.1,11c0.2,20.6,0.4,41.2,0.9,61.8c0.1,31,0.6,62.1,1.2,93.1c1.3,4.4,3.5,8.4,5.2,12.7
		c2.5,5.3,4.2,10.9,7.1,15.9c3.7-8.9,7.5-17.8,11.3-26.7c1-2.2,0.7-4.6,0.8-7C531,110.9,532,61,532.3,11
		C522.9,11.1,513.5,11.1,504.1,11 M451.1,43.9c-5.2,8.7-5.9,19.1-7.7,28.9c-1.9,10.1-5,20-7,30.1c-0.4-2-0.8-3.9-0.8-5.9
		c-0.2-9.4-0.2-18.7-0.6-28.1c-6.2,4.8-12.8,9.2-18.7,14.3c-2.3,7.8-4,15.8-6,23.7c5.1,6.2,11.4,11.4,14.9,18.7
		c1.7,3.5,3.4,7.4,2.4,11.4c-3.6,18-7.3,36.1-11.6,54c-1,4.3-2.4,8.5-2.4,12.9c0,4,2.5,7.4,5.1,10.2c2.8,3,5.2,6.3,8,9.2
		c0.5,1.4,1.5,2.5,2.3,3.6c7.5,9.8,13.8,20.5,22.2,29.6c5.4,5.9,12.6,9.4,20,12c11,4.1,22.2,7.7,33.4,11.5
		c-2-38.7-3.7-77.4-5.7-116.1c-9.6,1.1-19.2,1.9-28.7,3.3c-5.1,25.2-10.3,50.4-15.8,75.5c-2.3-10-1.9-20.4-1.7-30.7
		c-0.1-11.4,3.1-22.6,2.2-34.1c-0.6-22.9-10.4-44.6-10.4-67.6c17.8,4.4,35.5,9.5,53.3,14c-0.6-27.6-1.7-55.1-2.4-82.7
		c-0.1-6.6-0.4-13.2-0.7-19.8C477.7,19.7,460,29.2,451.1,43.9 M541.3,22.2c-0.1,6.5-0.3,13.1-0.4,19.6c-1.1,27.5-1.6,55.1-2.7,82.6
		c17.8-4.5,35.6-9.5,53.4-14.1c-0.4,5.5-0.3,11.1-1.4,16.5c-3.5,18.9-9.5,37.6-9.2,57.1c-0.1,7.8,2.1,15.4,2.1,23.1
		c0.3,11.9,1.3,24.2-1.7,35.9c-5-25.3-10.5-50.5-15.7-75.8c-9.5-1.2-19.1-2.3-28.7-3.2c-1.6,38.7-3.9,77.4-5.4,116
		c13.6-4.8,27.5-8.8,40.8-14.6c6.8-2.9,12.2-8.2,16.8-13.9c7-8.9,13.2-18.5,20-27.5c3.3-4.5,7.3-8.5,10.8-12.9
		c2.6-3.3,3.3-7.6,2.2-11.6c-5.1-20.8-9.5-41.7-13.5-62.6c-1-4,0.6-8,2.5-11.5c3.5-7.1,9.9-12.2,14.6-18.4c-1.6-8-3.6-16-5.9-23.8
		c-6-5-12.4-9.6-18.7-14.2c-0.2,11.3,0,22.7-0.7,34c-2.7-8.2-4.3-16.7-6.5-25c-2.7-11-2.5-22.9-8.2-33
		C577.3,29.6,559,19.5,541.3,22.2 M201.2,108.7c-1.9,15.6-2.1,31.5-2.1,47.2c0.1,24.5,2.4,49,6,73.3c0.7,4.3,1.4,8.5,2,12.9
		c0.2,1,0.2,3.3,1.9,2.5c5.6-0.9,11.2-1.1,16.8-1.9c4-9.5,13.2-15.7,23-17.7c13.9-2.9,28.1-2.6,42.1-4.1c23.2-2,46.9-5.4,67.9-15.9
		c2.6-1.2,3.3-4.2,4.6-6.4c4.9-9.8,10-20.3,19.4-26.6c4.8-3.6,10.8-4.8,16.7-4.9c2-9.5,4.2-19.1,5.8-28.6c-3.9-4.1-6.8-8.8-9.2-13.9
		c-10.1,0.9-20.3,1.6-30.4,2.2C310.5,129.2,254.6,123.6,201.2,108.7 M666,126.4c-8.7-0.3-17.3-1.4-26-1.8c-1.5,1-1.8,3.1-2.8,4.6
		c-1.5,3.5-4.4,6.1-6.7,9.1c1.6,9.6,3.8,19.1,5.7,28.6c7.4-0.2,14.8,2.3,20.4,7.3c9.2,7.6,13.3,19.2,19,29.3c1,1.3,2.8,1.7,4.3,2.5
		c25.8,12.2,54.9,13.9,82.9,16.2c11.6,0.8,23.9,0.8,34.5,6.3c5.9,2.9,10.5,8,13.1,14c5.6,0.6,11.2,1.2,16.8,1.7
		c1.2-5,1.9-10.2,2.6-15.3c6-39.8,7.9-80.4,3.5-120.5C779.1,123.9,722.3,129.5,666,126.4 M631.8,193.7c-1.4,6.5,0.3,13.1-0.5,19.7
		c-4.4,12.6-14.9,21.5-23.1,31.7c-4.7,5.8-9.9,12-11,19.7c-0.9,5.2,3.6,9.1,7.8,11.1c14.2,6.8,30.6,6.5,44.9,13
		c10.3,4.1,20.8,7.5,31.4,10.4c9.7,2.6,19.5,5.2,29.6,5.4c10.3,0.3,20.5-1.7,30-5.7c14-6,25.5-16.3,35.5-27.5
		c4.4-5.4,9-10.6,12.7-16.5c1.8-2.9,2.8-7.5-0.6-9.7c-4.8-3.3-10.9-3.5-16.5-4c-33.3-2.6-67.8-3.8-98.7-17.7c-3.8-2-8.6-3.1-11-7
		c-5.6-8.2-10.5-16.7-16-25c-1.8-2.6-4.2-5.3-7.3-6.2C635,185.9,633.3,190.4,631.8,193.7 M390.7,190.6c-5.7,8.4-10.7,17.2-16.5,25.6
		c-2.7,4.3-8,5.5-12.3,7.7c-31.8,14-67.1,14.7-101.1,17.5c-4.8,0.7-10.1,1-13.8,4.5c-2.7,2.9-1,7.1,0.8,9.9
		c3.6,5.4,7.7,10.4,12,15.3c13.9,16.3,32.3,30.3,54.1,33c10.7,1.5,21.6,0.2,32-2.4c13.9-3.3,27.7-7.6,41-12.9
		c14-6.3,30.1-6.1,44-12.6c3.2-1.6,6.6-3.7,7.9-7.3c1.1-3.7-0.2-7.6-1.8-11c-8.4-16.4-25.6-26.8-32-44.4c-0.8-6.5,0.8-13.1-0.4-19.5
		c-1.3-3.3-3.1-7.2-6.6-8.6C394.9,185.6,392.6,188.3,390.7,190.6 M197.9,267.1c3.5,10,11.6,17.3,19.5,23.9
		c7.2,5.9,15,10.9,23.1,15.4c13.3,7.3,27.5,13.3,42.5,16.3c5.8,1.2,11.7,1.5,17.6,1c-3.4-2.6-7.4-4.1-10.9-6.5
		c-16.5-10.5-28.6-26.4-38.9-42.8c-3.4-4.4-5.2-10.1-9.7-13.5C226.4,260.5,211.4,261.1,197.9,267.1 M786.1,274
		c-10.1,15.9-21.7,31.6-37.6,42.1c-4,2.9-8.6,4.8-12.7,7.5c12.5,1.2,24.9-2.1,36.5-6.4c16.6-6.2,32.3-15,46.3-25.8
		c7.1-5.9,14.1-12.3,18.4-20.5c0.4-1.3,1.8-2.6,1-4c-13.1-6-27.9-6.2-42.1-6.2C791.2,263.5,789.4,269.7,786.1,274 M434.4,292.2
		c-32.8,17.3-69.5,26.7-106.5,28.8c0.4,6.6,1.3,13.3,1.3,19.9c0.1,5.1-0.3,10.2,0.1,15.3c-1.5,32.7-8.8,65.4-22.9,95.1
		c-1.4,3.1-3.4,6-4.4,9.3c67.3-0.2,134.7,0,202-0.2c0.5-21.5,0.1-42.9,0.2-64.4c-0.1-19.6,0.3-39.1-0.2-58.7
		c0.2-5.3,0.6-10.8-0.5-16c-2.7-9.8-11.6-17.4-21.5-19.2C466.1,298.7,450.3,295.4,434.4,292.2 M553,302.3
		c-9.8,2.3-18.1,10.2-20.4,20c-0.8,4.9-0.3,9.9-0.3,14.8c-0.2,39.3,0,78.5-0.1,117.8c0,1.8,0.2,3.7,0.5,5.5c67.4,0,134.7,0,202.1,0
		c-19-35.8-28-76.7-27.5-117.2c0.4-7.4,0.5-14.8,1.6-22.1c-37.1-2.3-74-11.6-106.9-29C585.6,295.7,569.3,298.8,553,302.3
		 M215.4,301.7c-3.1,34.7-4.8,69.6-10.2,104.1c-2.4,15.6-6,31-10.3,46.2c5.1-2.5,10.1-5.2,15.1-7.9c24.4-12.4,49-24.3,73.4-36.7
		c3.7-1.9,7.7-3.5,10.6-6.5c1.9-1.8,1.8-4.5,2.3-6.9c3-19.2,6.1-38.4,8.5-57.6c-22.5-0.5-44.7-6.8-64.3-17.7
		C231.6,313.8,223.6,307.6,215.4,301.7 M795.9,318.7c-19.6,10.9-41.8,16.9-64.2,17.8c2.7,20,5.7,40,8.9,60c0.3,4.1,4.2,6.5,7.5,8.3
		c26.4,13.4,53,26.4,79.4,39.7l0,0.3c4.8,2.3,9.4,5.1,14.3,7.2c-3.8-12.5-6.8-25.3-9-38.2c-6.8-37-7.9-74.7-11.8-112.1
		C812.9,307.8,804.7,313.7,795.9,318.7 M280.7,419.4c-25.1,11.2-50.3,22.3-75.4,33.6c-5.4,2.2-10.7,4.7-16,7.1
		c3.2,11.4,3.9,23.3,5.2,34.9c2.7,26.9,4.5,53.9,7.4,80.8c1.1,8.9,1.7,17.9,4.4,26.5c3.5-2.9,5.3-7.1,7.3-11
		c4.8-11.1,7.2-23.1,9.5-35c3.1-16.1,5.8-32.4,9.8-48.3c5.9-23.9,15-47.5,30.4-66.9c7.8-10.2,17.6-18.6,28-26.1
		C287.5,416.1,284.1,417.9,280.7,419.4 M744.9,414.8c13.5,11.1,24.6,24.8,33,40c17.5,31.5,24.6,67.3,33.4,101.9
		c2.7,10.8,5.7,21.5,10.1,31.7c2.2,4.7,4.6,9.4,8,13.3c1.5,0.3,1.3-1.9,1.8-2.8c1.8-8,2.6-16.1,3.5-24.2c2.8-27,4.7-54.1,7.4-81.1
		c1.3-11.3,2.1-22.8,5-33.8c-5.4-2.4-10.7-4.8-16.1-7.1c-17.3-7.8-34.6-15.4-52-23.1C767.7,424.8,756.5,419.4,744.9,414.8
		 M277.9,488.8c-7.7,4.3-15.7,8.2-23.9,11.6l-0.9-0.8c-0.6,19.7,0,39.5-0.2,59.3c0.2,14.2-0.5,28.5,0.3,42.7c-0.5,0.8-1,1.6-1.6,2.5
		c13,8.1,26.4,15.6,40.3,22.1c0,1.3,0,2.7,0,4c8.9-2.9,17.6-6.4,26.5-9.2c2-0.2,1.1-2.7,1.4-4.1c-0.2-13.7,0.3-27.4-0.2-41.1
		l-1.1,0.7c-9-3.2-18.3-5.5-27.4-8.8c-2.1,0.3-1.2,2.9-1.5,4.3c0,11.3,0.1,22.6,0,33.9c0.1,1.3-0.6,2.1-2,2.4
		c-1.6-0.8-3.2-1.6-4.8-2.4c-0.2-33.9-0.1-67.8-0.1-101.7c1.5-0.2,3-0.4,4.4-1.1l0.4,0c1,1.1,2.4,1.8,3.8,2.4
		c0.3,9.8-0.2,19.6,0.3,29.4l1.1-0.2c9.3,1.5,18.6,3.1,27.9,4.5c0-17.5,0-35.1,0-52.6c-12.3,0-24.6,0-36.9,0
		C281.8,486.4,279.9,487.8,277.9,488.8 M357.4,487.5c-8.9,5.1-17.8,10.1-26.7,15.3c-1,0.5-2.1,1-3.1,1.3c-2.2-0.3-1.4,2.5-1.6,3.8
		c0,27,0,54,0,81c0.1,16.1-0.3,32.3,0.2,48.4c-0.5,1.2-1.1,2.3-1.7,3.4c12.9,5.3,26.1,10.1,39.5,14.2c1.5,0.3,3,1.3,4.5,0.6
		c8.4-3.5,16.7-7.3,24.7-11.7c1.6,0,3.2,0,4.9,0c0-52.4,0-104.8,0-157.2c-12,0-24,0-36,0C360.4,486.7,358.8,486.6,357.4,487.5
		 M404.5,486.7c0,56.4,0,112.8,0,169.2c-0.1,3.3-2.1,6.1-3.1,9.1c11.3,2.4,22.6,4.9,33.9,7c0-54,0-108,0-162c3.2,0,6.5,0,9.7,0
		c0,54.3,0,108.7,0,163c9.9,1.5,20,2.2,30,3.3c0.8-1,1.1-2.2,1.1-3.4c0-51.7,0-103.4,0-155c-0.2-3.4,0.7-7.1-0.9-10.3l-0.1,1.3
		c-9-7.4-17.8-15.1-27.1-22.1C433.4,486.5,419,486.5,404.5,486.7 M483.8,508.3L483.8,508.3c0.4,37.8,0.1,75.7,0.2,113.6
		c-0.1,15.8,0.3,31.6-0.2,47.3c-0.9,2.5-1.9,5-2.9,7.6c1.5,0.1,3,0.3,4.5,0.4c-0.3,0.4-1,1.1-1.4,1.4c7.4,0.4,14.7,0.2,22.1,0.3
		c2.5-0.1,5.1,0.3,7.3-1.1c4.2-0.1,8.4,0.1,12.6,0c5.9,7.9,11.5,16,17.3,23.9l0,0.9c3.9,0.3,7.8,0.2,11.6-0.2
		c0.5-20.2,0-40.5,0.2-60.7c0-50.4-0.1-100.7,0-151.1c-0.3-1.5,0.5-3.7-1.3-4.3c-13.6,0.3-27.2-0.1-40.7,0.2
		C503,493.4,493.8,501.4,483.8,508.3 M560.8,490.9c0.1,43.3,0,86.7,0,130c0.2,18.6-0.4,37.3,0.3,55.9c3.7,0.3,7.4,0.6,11,0.1
		c1.1-0.1,1.8-0.7,2.2-1.8c10.2-1.1,20.5-2.5,30.6-4.5c8.5-7.4,16.2-15.7,24.5-23.3c1.1-1.3,3.3-2.4,3-4.4c0-52.1,0-104.1,0-156.2
		c-10.3-0.3-20.6-0.1-30.8-0.1c0.1,46.1-0.1,92.1,0.1,138.2c-3.3,0.4-6.6,0.9-9.9,1.3c0-46.5,0-92.9,0-139.4
		c-9.9-0.1-19.9,0.1-29.8-0.1C560.6,487.5,560.9,489.4,560.8,490.9 M639.3,507.3l-1.1-0.6c-0.5,17.4-0.1,34.8-0.3,52.2
		c0,32.3,0.1,64.7,0,97c0.4,2.6-1.2,6.6,1.4,8.3c23.8-7,47.7-14.3,70.6-23.7l0.9,0.7c0.6-7.1,0.1-14.2,0.3-21.3
		c-0.1-10.5,0.2-20.9-0.1-31.3c-1.3-0.2-2.4,0.2-3.3,1c-8.6,2.7-17.4,5.1-26.2,7.2c0,11.9,0,23.8,0,35.8c-1.8,0.5-3.6,1-5.4,1.5
		c-1.4-0.2-2.7-0.4-4.1-0.6c-0.1-12.2,0-24.5,0-36.7c-0.1-4.5-0.3-9.1,0.5-13.6c6-1.2,12-2.2,17.9-3.7c3.3-7.3,6.8-14.5,10.3-21.7
		c-10.2,2.1-20.5,3.5-30.7,5c-0.1-18.3-0.1-36.6,0-54.9c2.6-0.1,5.3-0.1,7.9-0.1c0.2,9.3,0.1,18.6,0,28c0.1,2.7-0.4,5.7,0.9,8.2
		l0.1-0.8c9.4-1.1,18.8-2.1,28.1-3.5c0-17.7,0-35.5,0-53.2c-13.6,0.1-27.4-0.3-40.9,0.4C657,493.5,647.8,500.1,639.3,507.3
		 M716,486.6c0,50.6,0,101.2,0,151.8c9.9-4.5,19.9-9,29.6-13.9l0.3-0.5c0.1-19.4,0-38.9,0-58.3c3.5-1.1,7.1-2,10.6-3.2
		c0.1,16.9,0.1,33.8,0,50.7c8.7,2.9,17.6,5.4,26.3,8.3c1.5-1.1,1.1-3,1.2-4.6c-0.2-21.1,0.3-42.2-0.3-63.2l-1,0.8
		c-2.7-2-5.5-3.9-8.1-5.9c2.1-3,4.3-5.9,6.7-8.7c1.1-0.7,3.1-1.1,2.8-2.9c-0.1-12.4,0.4-24.9-0.2-37.3l-1.2,0.8
		c-9.2-4.2-18.2-8.8-27-13.7C742.6,486.3,729.3,486.7,716,486.6 M460.6,692.8c2.1,3,5,5.4,7.5,8c8.1,8.2,16.3,16.3,24.6,24.3
		c8.2,7.7,16,15.8,24.7,22.8c10.1-9.9,20.9-19.1,30.6-29.5c-8.3-7-15.8-14.7-23.8-21.9c-1.8-2.1-4.9-1.2-7.3-1.4
		C498.1,695.6,479.4,693.8,460.6,692.8z"/>
	<path class="st0" d="M755.9,502.6c-0.2,14.4-0.1,28.7,0,43.1c-2,0.4-3.9,1.1-5.9,1.2c-1.3-0.1-2.5-0.3-3.7-0.4
		c-0.1-14.1-0.1-28.3,0-42.4C749.4,503.9,753.2,505,755.9,502.6z"/>
	<path class="st0" d="M358.1,634.1c0-41.8,0.1-83.7,0-125.5c2.3,1.7,5.1,1.4,7.8,1.5c0.1,40.6,0.1,81.2,0.1,121.8
		c0.2,1.6-1,2.7-1.9,3.9C362.1,635.3,360.1,634.8,358.1,634.1z"/>
	<path class="st0" d="M512.6,509.7c3.8,0,7.7,0,11.5,0c0,45.7,0.1,91.4,0,137.1c-3.9,3.3-7.8,6.5-11.7,9.8
		C512.6,607.7,512.6,558.7,512.6,509.7z"/>
</g>
<g id="_x23_a62c2aff">
	<path class="st2" d="M451.1,43.9c8.9-14.7,26.5-24.2,43.8-21.9c0.3,6.6,0.5,13.2,0.7,19.8c-11.1,3.8-21.7,9.5-30,17.9
		c-9.7,9.7-15.4,22.4-21.3,34.6c-8.2,16.2-9,34.9-8.3,52.6c-0.2,19.1-3.8,37.9-6.5,56.7c-1,6.5-1.6,13.1-2.7,19.7
		c-2.9-2.9-5.2-6.2-8-9.2c-2.6-2.8-5.1-6.2-5.1-10.2c0-4.4,1.5-8.6,2.4-12.9c4.3-17.9,7.9-35.9,11.6-54c1-4-0.7-7.9-2.4-11.4
		c-3.6-7.3-9.9-12.5-14.9-18.7c2-7.9,3.7-15.9,6-23.7c5.9-5.1,12.5-9.6,18.7-14.3c0.4,9.3,0.4,18.7,0.6,28.1c0,2,0.4,4,0.8,5.9
		c1.9-10.1,5.1-20,7-30.1C445.3,63,445.9,52.6,451.1,43.9z"/>
	<path class="st2" d="M541.3,22.2c17.7-2.7,35.9,7.4,44.6,22.7c5.6,10.1,5.4,22,8.2,33c2.2,8.3,3.7,16.8,6.5,25
		c0.7-11.3,0.5-22.7,0.7-34c6.3,4.6,12.7,9.2,18.7,14.2c2.3,7.8,4.3,15.8,5.9,23.8c-4.7,6.3-11.1,11.3-14.6,18.4
		c-1.8,3.5-3.4,7.5-2.5,11.5c4,21,8.5,41.9,13.5,62.6c1,4,0.3,8.3-2.2,11.6c-3.5,4.4-7.4,8.4-10.8,12.9c-2-23.4-7.6-46.5-8.7-70
		c0-18.2,0.9-37.2-6.2-54.4c-6.6-14.6-13.3-29.8-24.9-41.2c-8.1-7.7-18.2-12.9-28.6-16.6C541,35.2,541.3,28.7,541.3,22.2z"/>
	<path class="st2" d="M631.8,193.7c1.5-3.3,3.2-7.8,7.3-8.5c3.1,1,5.5,3.6,7.3,6.2c5.5,8.2,10.4,16.8,16,25c2.4,3.9,7.2,5,11,7
		c31,13.9,65.4,15.1,98.7,17.7c5.6,0.6,11.7,0.8,16.5,4c3.4,2.2,2.4,6.8,0.6,9.7c-3.7,5.9-8.3,11.1-12.7,16.5
		c-1.6-0.8-3.3-1.5-5.1-2c-19.8-5.8-39.8-10.6-59.7-16c-21.6-6.1-43.6-12.3-62.8-24.3c-6.9-4-12.3-9.8-17.5-15.7
		C632.1,206.9,630.3,200.2,631.8,193.7z"/>
	<path class="st2" d="M390.7,190.6c1.9-2.4,4.2-5.1,7.4-5.3c3.5,1.4,5.3,5.2,6.6,8.6c1.2,6.4-0.4,13,0.4,19.5
		c-4.7,6.1-10.5,11.4-17,15.5c-14.6,9.1-30.9,14.7-47.2,19.8c-26.8,8.2-54.3,13.9-81.1,22.4c-4.3-4.9-8.3-9.9-12-15.3
		c-1.8-2.9-3.5-7-0.8-9.9c3.7-3.5,9.1-3.8,13.8-4.5c34-2.8,69.3-3.5,101.1-17.5c4.2-2.2,9.6-3.4,12.3-7.7
		C380,207.8,385,199,390.7,190.6z"/>
	<path class="st2" d="M197.9,267.1c13.5-6,28.6-6.6,43.1-6.1c4.5,3.4,6.3,9.1,9.7,13.5c-12,3.4-23.4,8.9-33.3,16.5
		C209.4,284.4,201.3,277,197.9,267.1z"/>
	<path class="st2" d="M786.1,274c3.3-4.3,5.1-10.5,10-13.2c14.2-0.1,28.9,0.2,42.1,6.2c0.7,1.3-0.7,2.7-1,4
		c-4.3,8.3-11.3,14.6-18.4,20.5c-0.8-0.9-1.6-1.9-2.5-2.8C807.1,282,796.4,278.2,786.1,274z"/>
	<path class="st2" d="M434.4,292.2c15.9,3.2,31.8,6.6,47.7,9.8c10,1.8,18.8,9.4,21.5,19.2c1.1,5.3,0.7,10.7,0.5,16
		c-5.2-10.6-15.7-17.6-26.9-20.4c-20.8-5.4-42.6-1.8-63.1,3.2c-17,5-34,9.9-51.1,14.7c-11,3-21.7,7.4-33.1,8.5
		c-0.2,4.3-0.1,8.6-0.6,12.9c-0.4-5.1,0-10.2-0.1-15.3c0-6.7-0.9-13.3-1.3-19.9C364.8,318.9,401.6,309.5,434.4,292.2z"/>
	<path class="st2" d="M553,302.3c16.3-3.5,32.6-6.6,48.9-10.2c32.9,17.4,69.8,26.7,106.9,29c-1.1,7.3-1.2,14.7-1.6,22.1
		c-9.3-0.5-18.2-3.9-27-6.5c-17.8-5.3-35.7-10-53.5-15.5c-17.4-4.7-35.5-8-53.6-6.8c-11,1.1-22.1,3.8-31,10.6
		c-4.2,3.1-7.5,7.4-9.8,12.1c0-4.9-0.4-9.9,0.3-14.8C534.8,312.5,543.2,304.5,553,302.3z"/>
	<path class="st2" d="M215.4,301.7c8.2,5.9,16.2,12.1,25.1,16.9c-1.1,23.4-17.3,42.4-20.8,65.2c-2,14.2-2.8,28.7-6.1,42.7
		c-1.1,5.9-3.3,11.6-4.8,17.4l1.2,0.1c-5,2.7-10,5.4-15.1,7.9c4.2-15.2,7.9-30.6,10.3-46.2C210.6,371.3,212.2,336.4,215.4,301.7z"/>
	<path class="st2" d="M795.9,318.7c8.8-5,17-10.9,25-17c3.9,37.3,5,75.1,11.8,112.1c2.3,12.9,5.3,25.7,9,38.2
		c-4.9-2.1-9.4-4.9-14.3-7.2l0-0.3c-0.5-4.4-2.3-8.5-3.3-12.7c-2.4-8.8-3.7-17.8-4.9-26.8c-1.3-10-1.6-20.2-4.5-30
		C809.2,356,797.2,338.9,795.9,318.7z"/>
	<path class="st2" d="M189.2,460c5.3-2.4,10.6-4.9,16-7.1c-0.9,16.3-1,32.7,0.8,49c1,8.9,2.1,17.8,3.4,26.6
		c1.6,10.4,7.4,19.4,13.4,27.7c-2.3,11.9-4.7,23.8-9.5,35c-1.9,4-3.8,8.2-7.3,11c-2.6-8.6-3.3-17.6-4.4-26.5
		c-2.8-26.9-4.7-53.9-7.4-80.8C193.1,483.3,192.4,471.4,189.2,460z"/>
	<path class="st2" d="M831.1,452.9c5.4,2.3,10.7,4.7,16.1,7.1c-3,11-3.7,22.5-5,33.8c-2.7,27-4.5,54.1-7.4,81.1
		c-0.9,8.1-1.7,16.2-3.5,24.2c-0.5,0.9-0.2,3.1-1.8,2.8c-3.4-3.9-5.9-8.6-8-13.3c-4.4-10.2-7.5-21-10.1-31.7c0.3,0.3,1,1,1.3,1.3
		c4.2-6.4,8.7-12.7,11.7-19.8c2.6-6.1,3.1-12.8,4.1-19.4C831.4,497.1,833,474.9,831.1,452.9z"/>
</g>
<g id="_x23_6a0c0dff">
	<path class="st3" d="M201.2,108.7c53.4,14.9,109.3,20.5,164.6,17.9c2.2,0.1,4.5,0.2,6.7,0.8c3,3.7,5.1,8.2,8.8,11.3
		c2.5,2.1,5.3,5.4,3.3,8.8c-5.8,7.5-14.8,11.3-22.5,16.4c-6.7,4.6-10.5,11.9-14,19c-2.8,5.7-7.9,10.4-14,12c-8.8,2.4-17.9,3.1-27,3
		c-14,1.2-28.1,0.8-42,3.1c-8.3,1.4-16.8,2.4-24.3,6.4c-8.9,4.3-14.9,12.7-23.5,17.6c-3.6,2.3-7.9,3.3-12.1,4.1
		c-3.6-24.3-5.8-48.7-6-73.3C199.1,140.2,199.2,124.3,201.2,108.7z"/>
	<path class="st3" d="M666,126.4c56.2,3.1,113.1-2.4,167.3-17.8c4.4,40.1,2.5,80.7-3.5,120.5c-5.9-1.5-11.6-3.7-16.2-7.7
		c-6.8-5.6-12.9-12.4-21.3-15.7c-11.4-3.8-23.4-5.1-35.2-6.2c-8-1.1-16.1-0.2-24.2-1.3c-9.6-0.3-19.3-0.4-28.6-2.7
		c-5.8-1.6-11.7-4.7-14.7-10.2c-2.6-5-4.9-10.2-8.4-14.7c-7.6-9.8-20.8-12.8-28.8-22.3c-1.3-1.6-2.2-4-0.9-5.9
		c2.5-4.1,6.9-6.5,9.3-10.7C662.2,129.6,663.1,126.8,666,126.4z"/>
	<path class="st3" d="M460.6,692.8c18.8,1,37.5,2.8,56.3,2.4c2.5,0.2,5.5-0.8,7.3,1.4c8,7.2,15.5,15,23.8,21.9
		c-9.7,10.3-20.5,19.6-30.6,29.5c-8.7-7-16.5-15.2-24.7-22.8c-8.3-8-16.5-16.1-24.6-24.3C465.6,698.2,462.7,695.8,460.6,692.8z"/>
</g>
<g id="_x23_581211ff">
	<path class="st4" d="M365.8,126.6c10.1-0.7,20.3-1.3,30.4-2.2c2.4,5.1,5.3,9.8,9.2,13.9c-1.6,9.6-3.8,19.1-5.8,28.6
		c-5.9,0.2-11.9,1.3-16.7,4.9c-9.4,6.3-14.5,16.7-19.4,26.6c-1.3,2.3-2,5.2-4.6,6.4c-21,10.6-44.7,13.9-67.9,15.9
		c-14,1.6-28.3,1.2-42.1,4.1c-9.9,2-19,8.3-23,17.7c-5.6,0.8-11.2,1-16.8,1.9c-1.8,0.7-1.8-1.5-1.9-2.5c-0.6-4.3-1.3-8.6-2-12.9
		c4.2-0.8,8.4-1.8,12.1-4.1c8.6-4.9,14.6-13.3,23.5-17.6c7.5-4.1,16.1-5,24.3-6.4c13.9-2.3,28-1.8,42-3.1c9,0.1,18.2-0.6,27-3
		c6.2-1.6,11.3-6.3,14-12c3.5-7.1,7.4-14.4,14-19c7.7-5.2,16.7-8.9,22.5-16.4c2.1-3.4-0.7-6.7-3.3-8.8c-3.7-3.1-5.8-7.6-8.8-11.3
		C370.3,126.8,368,126.7,365.8,126.6z"/>
	<path class="st4" d="M637.2,129.2c0.9-1.5,1.3-3.6,2.8-4.6c8.7,0.4,17.3,1.5,26,1.8c-2.9,0.4-3.8,3.3-5.2,5.4
		c-2.3,4.2-6.8,6.6-9.3,10.7c-1.3,1.9-0.4,4.2,0.9,5.9c8,9.4,21.2,12.4,28.8,22.3c3.5,4.4,5.8,9.7,8.4,14.7c3,5.5,8.9,8.5,14.7,10.2
		c9.4,2.3,19,2.4,28.6,2.7c8,1.1,16.1,0.2,24.2,1.3c11.9,1.1,23.9,2.4,35.2,6.2c8.4,3.3,14.5,10,21.3,15.7c4.6,4,10.4,6.3,16.2,7.7
		c-0.8,5.1-1.5,10.2-2.6,15.3c-5.6-0.5-11.2-1.1-16.8-1.7c-2.5-6-7.2-11.1-13.1-14c-10.6-5.5-22.9-5.5-34.5-6.3
		c-28-2.2-57.1-3.9-82.9-16.2c-1.4-0.8-3.3-1.2-4.3-2.5c-5.7-10.1-9.8-21.7-19-29.3c-5.6-4.9-13-7.4-20.4-7.3
		c-1.9-9.5-4.1-19-5.7-28.6C632.9,135.3,635.7,132.7,637.2,129.2z"/>
</g>
<g id="_x23_f4f5f6ff">
	<path class="st5" d="M277.9,488.8c1.9-1,3.9-2.4,6.1-2.2c12.3,0,24.6,0,36.9,0c0,17.5,0,35.1,0,52.6c-9.3-1.5-18.6-3-27.9-4.5
		c-0.1-10.5,0.1-20.9-0.1-31.3c-1.7-0.1-3.4-0.1-5.1-0.3l-0.4,0c-1.9-0.1-3.8-0.2-5.7-0.3c0.1,34.1,0,68.2,0,102.3
		c0.4,0.2,1.1,0.6,1.4,0.8c1.6,0.8,3.2,1.6,4.8,2.4c1.2,0.6,2.3,1.1,3.5,1.7c0-14.1,0.1-28.2,0-42.4c9,3.2,18.3,5.6,27.4,8.8
		c-0.4,14.8-0.1,29.7-0.1,44.5c-8.9,2.9-17.6,6.3-26.5,9.2c0-1.3,0-2.7,0-4c-13.9-6.5-27.3-14-40.3-22.1c0.5-0.8,1.1-1.7,1.6-2.5
		c1.1-1.7,0.9-3.8,0.9-5.7c-0.2-31.8,0.2-63.7-0.2-95.5C262.2,496.9,270.2,493.1,277.9,488.8z"/>
	<path class="st5" d="M357.4,487.5c1.4-0.9,3-0.7,4.6-0.8c12,0,24,0,36,0c0,52.4,0,104.8,0,157.2c-1.6,0-3.2,0-4.9,0
		c-8,4.4-16.3,8.2-24.7,11.7c-1.5,0.7-3.1-0.3-4.5-0.6c-13.4-4.1-26.5-8.9-39.5-14.2c0.6-1.2,1.2-2.3,1.7-3.4
		c0.7-1.4,1.3-2.9,1.2-4.4c0-29.7,0-59.4,0-89c0.1-13.3-0.3-26.6,0.2-39.9c1.1-0.3,2.1-0.8,3.1-1.3
		C339.6,497.6,348.5,492.5,357.4,487.5 M358.1,634.1c1.9,0.6,3.9,1.1,5.9,1.8c0.8,0.1,2.3,0.5,3,0.6c0-42.7,0-85.4,0-128
		c-3,0-5.9-0.1-8.9,0.1C358.3,550.4,358.2,592.3,358.1,634.1z"/>
	<path class="st5" d="M404.5,486.7c14.4-0.2,28.9-0.2,43.3,0c9.3,7.1,18.1,14.8,27.1,22.1c-0.4,53.3,0,106.7-0.2,160.1
		c0,2.5,0,4.9,0.2,7.4c-10-1.1-20-1.8-30-3.3c0-54.3,0-108.7,0-163c-3.2,0-6.5,0-9.7,0c0.1,54,0,108,0,162
		c-11.4-2.1-22.6-4.6-33.9-7c1-3,3.1-5.8,3.1-9.1C404.5,599.5,404.5,543.2,404.5,486.7z"/>
	<path class="st5" d="M483.8,508.3c10-6.8,19.2-14.9,29.2-21.6c13.6-0.3,27.2,0.1,40.7-0.2c-0.1,71.8-0.1,143.5,0,215.3
		c-3.5,0.1-7,0.1-10.5,0.1c-5.8-8-11.4-16-17.3-23.9c-4.2,0.1-8.4-0.1-12.6,0c-9.3-0.1-18.7-0.1-28-0.7c-1.5-0.1-3-0.3-4.5-0.4
		c0.9-2.5,1.9-5.1,2.9-7.6c0.6-14.1,0.1-28.2,0.2-42.3c0-32,0-64,0-96C483.9,523.4,484.3,515.8,483.8,508.3 M512.6,509.7
		c0,49,0,97.9-0.2,146.9c3.9-3.3,7.8-6.5,11.7-9.8c0.1-45.7,0-91.4,0-137.1C520.3,509.7,516.4,509.7,512.6,509.7z"/>
	<path class="st5" d="M562,486.5c9.9,0.3,19.9,0,29.8,0.1c-0.1,46.5,0,92.9,0,139.4c3.3-0.4,6.6-0.8,9.9-1.3
		c-0.2-46,0-92.1-0.1-138.2c10.3,0.1,20.5-0.1,30.8,0.1c0,52.1,0,104.1,0,156.2c0.3,2-1.9,3.1-3,4.4c-8.3,7.6-16,15.9-24.5,23.3
		c-10.1,2-20.4,3.3-30.6,4.5c-4,0.5-8.1,0.9-12.2,0.8C562.2,612.7,562.3,549.6,562,486.5z"/>
	<path class="st5" d="M639.3,507.3c8.5-7.3,17.7-13.8,26.8-20.3c13.6-0.7,27.3-0.3,40.9-0.4c0,17.7,0,35.5,0,53.2
		c-9.3,1.4-18.7,2.4-28.1,3.5c0.4-12.3,0-24.6,0.2-36.9c-3.5,0.1-7,0.3-10.5,0.3c0,18.8,0,37.6,0,56.4l1.5-0.3
		c10.3-1.6,20.5-3,30.7-5c-3.5,7.2-7,14.4-10.3,21.7c-5.9,1.5-11.9,2.5-17.9,3.7c-0.5,0.1-1.6,0.4-2.1,0.5c-0.1,17.3,0,34.6-0.1,52
		c1.9-0.6,3.8-1.1,5.7-1.6c1.8-0.5,3.6-1,5.4-1.5c0-11.9,0-23.8,0-35.8c8.8-2.1,17.5-4.5,26.2-7.2l2-0.7c0.3,17.2-0.2,34.4,0.3,51.5
		c-23,9.5-46.8,16.7-70.6,23.7c0.2-31.1,0-62.2,0.1-93.3C639.4,549.7,639.7,528.5,639.3,507.3z"/>
	<path class="st5" d="M716,486.6c13.3,0.1,26.6-0.3,39.8,0.2c8.8,4.9,17.8,9.5,27,13.7c-0.3,12.1,0,24.3-0.2,36.5
		c0.1,1.1-0.8,2-1.3,2.9c-2.4,2.8-4.6,5.7-6.7,8.7c2.7,2,5.5,3.9,8.1,5.9c-0.2,22.3-0.2,44.7,0,67c-8.7-2.9-17.6-5.4-26.3-8.3
		c0.1-16.9,0.1-33.8,0-50.7c-3.5,1.2-7,2.1-10.6,3.2c0,19.5,0.1,38.9,0,58.3l-0.3,0.5c-9.7,4.9-19.7,9.4-29.6,13.9
		C716,587.8,716,537.2,716,486.6 M744.6,502.9c-0.1,15.1,0,30.3,0,45.4c1.8-0.4,3.6-0.9,5.4-1.4c2-0.1,3.9-0.8,5.9-1.2
		c-0.1-14.4-0.1-28.7,0-43.1C752.1,502.6,748.4,502.9,744.6,502.9z"/>
</g>
<g id="_x23_000000ff">
	<path d="M553.7,486.5c1.9,0.6,1.1,2.9,1.3,4.3c-0.1,50.4,0,100.7,0,151.1c-0.2,20.2,0.3,40.5-0.2,60.7c-3.9,0.4-7.8,0.5-11.6,0.2
		l0-0.9c3.5,0,7,0,10.5-0.1C553.6,630,553.6,558.3,553.7,486.5z"/>
	<path d="M253.2,499.6l0.9,0.8c0.4,31.8,0,63.6,0.2,95.5c-0.1,1.9,0.2,4-0.9,5.7c-0.8-14.2-0.1-28.4-0.3-42.7
		C253.2,539.1,252.6,519.4,253.2,499.6z"/>
	<path d="M668.6,506.8c3.5-0.1,7-0.2,10.5-0.3c-0.1,12.3,0.2,24.6-0.2,36.9l-0.1,0.8c-1.3-2.5-0.8-5.5-0.9-8.2c0-9.3,0.1-18.6,0-28
		c-2.6,0-5.3,0-7.9,0.1c-0.1,18.3,0,36.6,0,54.9l-1.5,0.3C668.6,544.4,668.6,525.6,668.6,506.8z"/>
	<path d="M475.1,507.6c1.6,3.2,0.7,6.9,0.9,10.3c-0.1,51.7,0,103.4,0,155c0.1,1.3-0.3,2.4-1.1,3.4c-0.2-2.5-0.2-5-0.2-7.4
		c0.1-53.4-0.2-106.7,0.2-160.1L475.1,507.6z"/>
	<path d="M782.8,554.5l1-0.8c0.5,21.1,0.1,42.2,0.3,63.2c-0.1,1.6,0.3,3.5-1.2,4.6C782.6,599.1,782.6,576.8,782.8,554.5z"/>
	<path d="M318.7,576.4l1.1-0.7c0.5,13.7,0.1,27.4,0.2,41.1c-0.3,1.3,0.6,3.8-1.4,4.1C318.6,606,318.3,591.2,318.7,576.4z"/>
</g>
<g id="_x23_060606ff">
	<path class="st6" d="M560.8,490.9c0.1-1.5-0.2-3.3,1.3-4.4c0.2,63.1,0.1,126.2,0.1,189.4c4.1,0.1,8.1-0.3,12.2-0.8
		c-0.3,1.1-1.1,1.7-2.2,1.8c-3.7,0.5-7.4,0.1-11-0.1c-0.7-18.6-0.1-37.3-0.3-55.9C560.8,577.5,560.9,534.2,560.8,490.9z"/>
</g>
<g id="_x23_0c0c0dff">
	<path class="st7" d="M782.8,500.5l1.2-0.8c0.6,12.4,0.1,24.9,0.2,37.3c0.3,1.8-1.7,2.2-2.8,2.9c0.5-0.9,1.3-1.8,1.3-2.9
		C782.8,524.8,782.5,512.6,782.8,500.5z"/>
</g>
<g id="_x23_010101ff">
	<path class="st8" d="M281.7,502.7c1.9,0.1,3.8,0.2,5.7,0.3c-1.3,0.7-2.9,0.9-4.4,1.1c-0.1,33.9-0.1,67.8,0.1,101.7
		c-0.4-0.2-1.1-0.6-1.4-0.8C281.7,570.9,281.7,536.8,281.7,502.7z"/>
</g>
<g id="_x23_0b0c0dff">
	<path class="st9" d="M287.9,503.1c1.7,0.1,3.4,0.2,5.1,0.3c0.2,10.4,0,20.9,0.1,31.3l-1.1,0.2c-0.5-9.8,0-19.6-0.3-29.4
		C290.3,504.9,288.9,504.2,287.9,503.1z"/>
</g>
<g id="_x23_070707ff">
	<path class="st10" d="M744.6,502.9c3.8,0,7.5-0.3,11.3-0.3c-2.7,2.4-6.5,1.3-9.7,1.4c-0.1,14.1-0.1,28.3,0,42.4
		c1.2,0.2,2.5,0.3,3.7,0.4c-1.8,0.5-3.6,0.9-5.4,1.4C744.6,533.2,744.5,518,744.6,502.9z"/>
</g>
<g id="_x23_010102ff">
	<path class="st11" d="M326,507.8c0.3-1.3-0.6-4.1,1.6-3.8c-0.5,13.3-0.1,26.6-0.2,39.9c0,29.7,0,59.4,0,89c0.1,1.5-0.5,3-1.2,4.4
		c-0.5-16.1-0.1-32.3-0.2-48.4C325.9,561.9,326,534.9,326,507.8z"/>
</g>
<g id="_x23_000003ff">
	<path class="st12" d="M638.2,506.7l1.1,0.6c0.4,21.2,0.1,42.4,0.2,63.5c0,31.1,0.1,62.2-0.1,93.3c-2.6-1.6-1-5.6-1.4-8.3
		c0.1-32.3,0-64.7,0-97C638.2,541.5,637.7,524.1,638.2,506.7z"/>
</g>
<g id="_x23_00000cff">
	<path class="st13" d="M358.1,508.6c3-0.2,5.9-0.2,8.9-0.1c0,42.7,0,85.4,0,128c-0.8-0.1-2.3-0.5-3-0.6c0.9-1.2,2.2-2.3,1.9-3.9
		c0-40.6,0.1-81.2-0.1-121.8C363.2,510,360.4,510.3,358.1,508.6z"/>
</g>
<g id="_x23_040404ff">
	<path class="st14" d="M289.9,571.9c0.3-1.4-0.6-4,1.5-4.3c0.1,14.1,0,28.2,0,42.4c-1.2-0.6-2.3-1.1-3.5-1.7c1.4-0.3,2-1.1,2-2.4
		C289.9,594.5,289.9,583.2,289.9,571.9z"/>
	<path class="st14" d="M670.6,583.8c0.5-0.1,1.6-0.4,2.1-0.5c-0.8,4.5-0.6,9-0.5,13.6c0,12.2-0.1,24.4,0,36.7
		c1.4,0.2,2.7,0.4,4.1,0.6c-1.9,0.5-3.8,1.1-5.7,1.6C670.6,618.4,670.5,601.1,670.6,583.8z"/>
</g>
<g id="_x23_050505ff">
	<path class="st15" d="M707.8,589.6c0.9-0.8,2-1.2,3.3-1c0.3,10.4,0,20.9,0.1,31.3c-0.1,7.1,0.3,14.2-0.3,21.3l-0.9-0.7
		c-0.4-17.2,0.1-34.4-0.3-51.5L707.8,589.6z"/>
</g>
<g id="_x23_000004ff">
	<path class="st16" d="M484,678.7c0.4-0.4,1-1.1,1.4-1.4c9.3,0.6,18.7,0.6,28,0.7c-2.2,1.4-4.9,1-7.3,1.1
		C498.7,678.9,491.3,679.1,484,678.7z"/>
</g>
</svg>
