<?xml version="1.0" encoding="utf-8"?>
<!-- Generator: Adobe Illustrator 21.0.0, SVG Export Plug-In . SVG Version: 6.00 Build 0)  -->
<svg version="1.1" id="Layer_1" xmlns="http://www.w3.org/2000/svg" xmlns:xlink="http://www.w3.org/1999/xlink" x="0px" y="0px"
	 viewBox="0 0 470 326" style="enable-background:new 0 0 470 326;" xml:space="preserve">
<style type="text/css">
	.st0{fill:#453BD7;}
	.st1{fill:#FFFFFF;}
	.st2{fill:#EF2800;}
</style>
<g id="_x23_fa300fff">
	<path class="st0" d="M0,0h123c0,40.3,0,80.7,0,121c-41,0-82,0-123,0V0z"/>
	<path class="st0" d="M206,0h264v121c-88,0-176,0-264,0C206,80.7,206,40.3,206,0z"/>
	<path class="st0" d="M0,204c41,0,82,0,123,0c0,40.7,0,81.3,0,122H0V204z"/>
	<path class="st0" d="M206,204c88,0,176,0,264,0v122H206C206,285.3,206,244.7,206,204z"/>
</g>
<g id="_x23_ffffffff">
	<path class="st1" d="M123,0h22c0,47.7,0,95.3,0,143c-48.3,0-96.7,0-145,0v-22c41,0,82,0,123,0C123,80.7,123,40.3,123,0z"/>
	<path class="st1" d="M183,0h23c0,40.3,0,80.7,0,121c88,0,176,0,264,0v22c-95.7,0-191.3,0-287,0C183,95.3,183,47.7,183,0z"/>
	<path class="st1" d="M0,181c48.3,0,96.7,0,145,0c0,48.3,0,96.7,0,145h-22c0-40.7,0-81.3,0-122c-41,0-82,0-123,0V181z"/>
	<path class="st1" d="M183,181c95.7,0,191.3,0.1,287-0.1V204c-88,0-176,0-264,0c0,40.7,0,81.3,0,122h-23
		C183,277.7,183,229.3,183,181z"/>
</g>
<g id="_x23_1d4d93ff">
	<path class="st2" d="M145,0h38c0,47.7,0,95.3,0,143c95.7,0,191.3,0,287,0v37.9c-95.7,0.1-191.3,0-287,0.1c0,48.3,0,96.7,0,145h-38
		c0-48.3,0-96.7,0-145c-48.3,0-96.7,0-145,0v-38c48.3,0,96.7,0,145,0C145,95.3,145,47.7,145,0z"/>
</g>
</svg>
