<?xml version="1.0" encoding="utf-8"?>
<!-- Generator: Adobe Illustrator 19.0.0, SVG Export Plug-In . SVG Version: 6.00 Build 0)  -->
<svg version="1.1" id="Layer_1" xmlns="http://www.w3.org/2000/svg" xmlns:xlink="http://www.w3.org/1999/xlink" x="0px" y="0px"
	 viewBox="-42.1 267.8 274 307" style="enable-background:new -42.1 267.8 274 307;" xml:space="preserve">
<style type="text/css">
	.st0{fill:url(#SVGID_1_);}
</style>
<g id="_x23_2b2b33ff">
</g>
<g id="_x23_5488fdff">
	<linearGradient id="SVGID_1_" gradientUnits="userSpaceOnUse" x1="156.4139" y1="274.885" x2="4.8136" y2="537.4644">
		<stop  offset="0" style="stop-color:#6377F3"/>
		<stop  offset="0.3978" style="stop-color:#1197F8"/>
		<stop  offset="1" style="stop-color:#4D83F5"/>
	</linearGradient>
	<path class="st0" d="M17,279.9c24.7-8.7,51-11,77-12.2c23,0.3,46.1,4.3,67.6,12.6c18,6.8,35.2,16.5,48.8,30.2
		c11.1,11.5,19.6,26.2,21.1,42.3c0.7,6,0.5,12.1-0.2,18.2c-4.1,23.1-12.5,45.2-21.5,66.7c-14.8,34.7-32.8,68.6-57.2,97.6
		c-10.8,12.6-23.2,24.2-38,31.9c-13.4,7.1-29.6,9.7-44.3,5.4c-16.9-4.6-30.8-16-42.4-28.7c-7.7-7.8-14-16.8-20.1-25.9
		c-16-24.3-28-51.1-37.3-78.6c-0.8-2.3-1.6-4.5-2.5-6.8c-5.3-19.2-10.2-38.8-10.1-58.9c0.6-8.4,1.1-16.9,4.4-24.7
		c5-13,16.4-22.2,28.4-28.6c13.1-6.8,27.6-10.6,42.2-13c30.4-4.4,61.7-0.8,90.9,8.7c10.3,3.8,20.4,8.4,29.8,14.1
		c4.4,2.1,8.9,6.1,8.3,11.5c-0.2,6.8-8.3,11.8-14.4,8.4c-23.3-11.7-49.5-16.7-75.4-16.7c-15.4,0.5-30.8,2.5-45.6,6.7
		c-10.7,3.6-21.7,8-29.6,16.4c-3.7,3.7-4.1,9.2-4.3,14.2c-0.2,13.7,3.3,27.1,7.1,40.2c9.8,32.8,24.4,64.2,44,92.3
		c8.6,11.5,18,23.2,30.8,30.3c6.1,3.6,13.9,4.1,20.3,1.1c12.8-5.5,22.8-15.8,31.8-26.2c9.7-11.3,18-23.6,25.7-36.3
		c18.2-30.1,33.6-62.1,44.4-95.7c2.4-7.9,4.9-16.3,3-24.6c-2.6-13.6-12.8-24.1-23.3-32.4c-14.3-10.8-30.9-18.2-48-23.3
		c-16.9-5.4-34.7-7.5-52.3-7.6c-17.7-0.1-35.4,1.1-52.8,4.5c-5.1,1-10.5,4-15.5,0.9c-1.3-2.5-2.3-5.4-1.1-8.1
		C8.8,282.2,13.3,281.3,17,279.9z"/>
</g>
</svg>
