<?xml version="1.0" encoding="utf-8"?>
<!-- Generator: Adobe Illustrator 19.0.0, SVG Export Plug-In . SVG Version: 6.00 Build 0)  -->
<svg version="1.1" id="Layer_1" xmlns="http://www.w3.org/2000/svg" xmlns:xlink="http://www.w3.org/1999/xlink" x="0px" y="0px"
	 viewBox="-47 144.9 500 552" style="enable-background:new -47 144.9 500 552;" xml:space="preserve">
<style type="text/css">
	.st0{fill:#FF2727;}
	.st1{fill:#D71E1E;}
	.st2{fill:#FFFFFF;}
	.st3{fill:#292B2A;}
	.st4{fill:url(#SVGID_1_);}
	.st5{fill:url(#SVGID_2_);}
</style>
<g id="_x23_ff2727ff_1_">
	<path class="st0" d="M132.1,294.2c-1.7-0.6-3.4-1.2-5.1-1.7c-2.6-0.8-5.2-1.6-7.8-2.7l-0.9-0.4l-0.3-0.9
		c-3.1-10.8-3.6-22.3-1.3-33.3c2.5-11.2,8.6-20.7,16.8-26l4.3-2.8l-1.7,6.3l0,0.1c-1.4,3.6-2.2,7.7-2.6,12.3
		c-2.1,16,0.3,32.3,2.8,46.3l0.3,1.8l-1.7,0.5c-0.4,0.1-1.2,0.4-1.6,0.5l-0.7,0.2L132.1,294.2z"/>
	<path class="st0" d="M118.7,255.6c2.1-9.8,7.4-19.3,16-24.8l-0.3,1.3c-1.5,4.1-2.4,8.5-2.8,12.8c-2.1,15.6,0.1,31.4,2.8,46.8
		c-0.4,0.1-1.2,0.4-1.6,0.5c-4.2-1.5-8.6-2.6-12.8-4.4C117,277.5,116.6,266.3,118.7,255.6z"/>
	<path class="st0" d="M156.5,365.3c-5.2-1.5-9.8-3.2-13.9-5.2l-0.1-0.1c-0.2-0.1-0.4-0.2-0.7-0.4c-1.2-0.6-2.6-1.4-3.4-3
		c-6.5-12.2-11.4-22.7-15.4-32.9l-0.2-0.6c-2-5.5-4-11.1-4.3-17.2l-0.1-2.7l2.6,0.7c3.3,0.9,6.7,1.6,9.2,2.2l1.6,0.3v1.8
		c0,2.8,0,6.5,1,10c2.6,10.3,7.3,19.9,11.9,28.8c2,4,5.3,6.9,8.8,10c1.7,1.5,3.5,3.1,5.1,4.9l4.9,5.3L156.5,365.3z"/>
	<path class="st0" d="M120.5,305.9c3.1,0.8,6.2,1.5,9.3,2.2v0.2c-0.1,3.5,0.1,7.1,1,10.5c2.6,10.2,7.2,19.8,12,29.2
		c3.2,6.4,9.4,10.3,14.2,15.4c-4.6-1.3-9.2-3-13.6-5.1c-1.2-0.7-2.7-1.2-3.3-2.5c-5.7-10.6-10.9-21.5-15.3-32.7
		C122.9,317.5,120.8,311.8,120.5,305.9z"/>
	<path class="st0" d="M197,376.6c-1,0-2-0.1-2.9-0.3l-6.1-1.1l5.5-2.7c6.8-3.3,13-8,18.8-12.7c16.6-13.7,31.3-30.1,45.6-45.9
		l1.6-1.8l3.4,1.9c-0.1,0.4-0.2,0.9-0.3,1.3c-0.3,1.3-0.6,2.6-1.3,4l-0.2,0.3l-0.2,0.2c-2.1,1.9-3.5,4.4-5,7.1
		c-0.6,1.1-1.3,2.2-1.9,3.3c-12.5,20.5-26.4,34.2-42.6,42l-0.9,0.4C206.5,374.5,201.9,376.6,197,376.6z"/>
	<path class="st0" d="M213.6,361.5c17.4-14.4,32.4-31.2,47.4-47.9c-0.5,1.6-0.7,3.4-1.5,4.9c-3.2,3-4.9,7.1-7.2,10.8
		c-10.3,16.8-23.7,32.6-41.7,41.2c-5,2.3-10.4,5-16.1,3.9C201.4,371,207.6,366.3,213.6,361.5z"/>
	<path class="st0" d="M262.9,410.5c-1.1-14.4,4.3-29.7,15.1-43.2c11.3-14,29.2-22.3,47.8-22.3c7.9,0,15.4,1.5,22.4,4.4l-0.7,3.8
		c-0.5,0-0.9,0-1.4,0c-1.6,0-3.3-0.1-4.8-0.1c-1.1,0-2.2-0.1-3.3-0.1c-15.4,0.4-31.1,7.8-44,20.9c-11.7,11.2-20.4,25.2-27.4,37.4
		l-3.2,5.7L262.9,410.5z"/>
	<path class="st0" d="M279.6,368.5c15.8-19.5,44.7-27.1,67.9-17.3c-3.2,0.1-6.3-0.2-9.5-0.3c-17.3,0.5-33.5,9.4-45.5,21.4
		c-11.4,10.9-19.9,24.3-27.7,37.9C263.7,395.1,270.2,380.2,279.6,368.5z"/>
	<path class="st0" d="M209.4,679.8c-1.2,0-2.3,0-3.5,0l-1.5,0c-20.7,0-41.1-2.3-60.9-4.6C88.3,668.9,39.4,660-6,648.2l-1.2-0.3
		l-0.3-1.2c-9.5-44.2-14.1-89-17-123c-1.3-17.8-2.3-35.9-2.9-53.7l-0.1-2.9l2.7,0.9c3.1,1,6.5,2.3,10.5,4l1.2,0.5l0.1,1.3
		c2.5,60.2,8.4,113.2,18,162.1c48.6,12.3,101.2,21.1,165.5,27.5c12.2,1.2,24.6,1.8,36.9,1.8c28.6,0,57.4-3.3,85.6-9.7
		c46.3-10.2,86.1-22.8,121.5-38.5l1-0.4l0.9,0.6c2.7,1.7,5.9,2.6,9.2,3.5c1,0.3,2.1,0.6,3.1,0.9l5.2,1.6l-4.3,2.3
		c-15.2,8.1-30.9,14.1-45.7,19.5c-22.8,8.1-47.4,15.4-72.9,21.4C274.2,675.4,241,679.8,209.4,679.8z"/>
	<path class="st0" d="M-25.4,469.9c3.5,1.2,6.9,2.5,10.3,3.9c2.3,54.9,7.6,109.7,18.3,163.6c54.8,14,110.8,22.3,167,27.9
		c41.1,4.1,82.9,1.3,123.2-8c41.7-9.1,82.9-21.3,121.9-38.6c3.9,2.4,8.4,3.3,12.7,4.7l0.6,0.2c-14.5,7.7-29.9,13.8-45.4,19.3
		c-23.8,8.5-48.1,15.5-72.7,21.4c-34.2,8.5-69.2,13.8-104.5,13.5c-20.8,0.1-41.5-2.2-62.2-4.6C93.6,667.5,43.5,659-5.5,646.3
		c-8.7-40.4-13.4-81.6-17-122.8C-23.8,505.7-24.8,487.8-25.4,469.9z"/>
</g>
<g id="_x23_d71e1eff_1_">
	<path class="st1" d="M178.6,370.8c-4.2-0.7-8.4-1.8-12.3-2.8c-3-0.8-6.2-1.7-9.3-2.3l-0.6-0.1l-0.7-0.8c-1.5-1.6-3.2-3.1-4.9-4.7
		c-3.6-3.2-7.3-6.6-9.6-11.2c-4.7-9.1-9.4-19-12.2-29.6c-1.1-3.9-1.1-7.9-1.1-11l0-2.4l2.4,0.5c4.1,0.9,8.2,1.8,12.1,2.8
		c4.6,1.1,9.3,2.2,14,3.2c10.8-7,21.9-14,32.6-20.8c10.4-6.5,21.1-13.3,31.6-20.1c-4-5-7.5-9.4-11-13.8c-8,6.1-15.9,12.3-23.8,18.4
		c-10.2,7.9-20.7,16-31.1,24l-0.7,0.6l-0.9-0.2c-4-0.8-7.8-2.1-11.6-3.4c-3-1-6.1-2.1-9.1-2.9l-6.8-1.7l6.6-2.1
		c-2.4-13.9-4.6-29.9-2.5-45.7c0.4-4.9,1.4-9.3,2.9-13.3l2.4-6.4l1.4,6.7c1.1,5.1,2,10.3,2.9,15.3c1,5.7,2.1,11.7,3.4,17.5
		c0.3,1.3,0.6,2.7,0.9,4.1c0.9,4.3,1.9,8.6,3.5,12.7c0.2-0.1,0.5-0.2,0.7-0.4c-3.4-15.4-4.7-28.8-3.9-41.1
		c0.6-9.3,2.7-17.4,6.4-23.9l0.5-0.8l0.9-0.2c5.6-1.1,11.4-1.7,17-1.7c15.2,0,28.9,4.1,39.8,11.8c10.5,7.4,18.8,19.4,23.4,33.9
		c2.3-1.3,4.5-1.9,6.7-1.9c0.2,0,0.5,0,0.7,0l2.7,0.2l-0.9,2.5c-2.7,7.3-4.9,15-1.2,21.2c1.1,2,3.2,3.1,5.4,4.2
		c0.9,0.5,1.8,1,2.7,1.5l2.8,1.7l-2.8,1.7c-2.9,1.7-6.3,3.5-9.9,3.5c-1.6,0-3.2-0.4-4.6-1.1c-4.4-2.4-6.3-6.9-7.4-11.2
		c-0.9,0.5-1.7,1.1-2.6,1.6c-2.9,1.8-5.9,3.7-8.9,5.6c4.1,1.8,8.3,3.8,12.1,6.4l0.1,0.1c1.8,1.3,4.1,2.9,5,5.6
		c1.4,3.8,2.7,7.6,3.9,11.4c0.5,1.5,1.8,5.2,1.8,5.2l-0.3,0.7c-10.8,22.8-31.7,42.1-57.3,52.8l-0.5,0.2L178.6,370.8z M143.9,340.1
		c3.3,1.1,6.6,2.1,9.9,3.2c2.9,0.9,5.8,1.9,8.7,2.8c-0.5-0.9-1-1.8-1.6-2.7l-6.3-1.8c-3.8-1.1-7.6-2.2-11.4-3.3
		C143.5,338.9,143.7,339.5,143.9,340.1z M175.4,339.2c0.6,1.5,1.3,2.9,2,4.4c4-3.9,8.2-7.8,12.2-11.6c3.2-3,6.5-6.1,9.7-9.2
		c0-0.5,0-0.9,0.1-1.4c-1.3,1-2.7,2.1-4,3.1C188.9,329.4,182.3,334.5,175.4,339.2z M138.8,327.8c2.1,0.7,4.2,1.3,6.3,2
		c4,1.3,8.2,2.6,12.3,4c-0.5-1-1.1-2-1.8-2.7c-4.6-1.4-9.4-2.8-14-4.1c-1.2-0.3-2.4-0.7-3.6-1C138.3,326.6,138.6,327.2,138.8,327.8z
		 M169.5,326.6c0.7,1.5,1.4,2.9,2,4.3c2.3-2.2,4.6-4.4,6.9-6.6c4.7-4.5,9.5-9.2,14.5-13.7l0.1-0.1c0.5-0.4,0.6-1,0.6-2
		c-1.2,0.9-2.4,1.9-3.6,2.8C183.4,316.5,176.5,321.8,169.5,326.6z"/>
	<path class="st1" d="M152,216.8c18.7-3.7,39.4-1.5,55.2,9.8c11.9,8.4,19.5,21.6,23.4,35.4c2.5-1.8,5.3-3.1,8.4-2.9
		c-2.6,7.2-5.3,15.8-1,22.9c1.9,3.4,5.7,4.5,8.8,6.4c-3.7,2.2-8.3,4.5-12.6,2.4c-4.6-2.4-5.9-7.9-7.1-12.6
		c-5.7,3.6-11.4,7.1-17,10.7c5.2,2.2,10.5,4.5,15.3,7.7c1.7,1.3,3.6,2.6,4.3,4.7c1.9,5.2,3.6,10.5,5.4,15.8
		c-11.2,23.6-32.4,41.8-56.3,51.8c-7.3-1.1-14.3-3.7-21.6-5.1l-0.3-0.3c-4.8-5.1-11-9-14.2-15.4c-4.8-9.4-9.4-19-12-29.2
		c-0.9-3.4-1.1-7-1-10.5c9,1.9,18,4.3,27,6.1c22.1-14.4,44.7-28.1,66.7-42.5c-4.6-5.6-9.1-11.3-13.6-17
		c-18.9,14.5-37.6,29.2-56.5,43.7c-7-1.4-13.7-4.5-20.6-6.3c0.4-0.1,1.2-0.4,1.6-0.5c-2.7-15.4-4.9-31.2-2.8-46.8
		c0.4-4.4,1.2-8.7,2.8-12.8c2.3,10.9,3.9,21.9,6.3,32.8c1.5,6.4,2.6,13,5.4,19c1.3-0.6,2.7-1.3,4-2c-3.2-13.8-5.1-27.9-4.2-42.1
		C146.4,231.9,148.1,223.8,152,216.8 M167,326c1.3,2.8,2.6,5.6,3.9,8.3c7.8-7.3,15.4-14.9,23.3-22.1c2.3-1.8,1-5.1,1.3-7.5
		C186.1,311.8,176.8,319.3,167,326 M173,338.4c1.1,2.9,2.5,5.7,3.9,8.5c8-7.9,16.3-15.5,24.4-23.3c0.1-2.1,0.2-4.3,0.2-6.4
		C192.1,324.4,182.8,331.9,173,338.4 M134.9,322.9c0.8,2.2,1.6,4.4,2.5,6.5c8.1,2.6,16.3,5,24.3,8c-1.7-2.6-2.7-5.9-4.9-8.1
		C149.5,327,142.1,325,134.9,322.9 M140,335.3c0.8,2.1,1.6,4.3,2.4,6.4c8.1,2.7,16.2,5.2,24.3,7.9c-1.4-2.6-2.9-5.3-4.5-7.9
		C154.9,339.5,147.4,337.4,140,335.3z"/>
	<path class="st1" d="M213.2,391.4c-1.8-1-3.6-2-5.4-3c-6-3.4-12.3-7-18.5-10.2l-3.7-1.9c0,0,6.6-3,8-3.7l0.6-0.3l0.6,0.1
		c0.7,0.1,1.5,0.2,2.2,0.2h0c4,0,8-1.8,11.9-3.6l0.8-0.4c15.4-7.4,28.8-20.6,40.9-40.5c0.7-1,1.2-2.1,1.9-3.2c1.6-2.8,3.2-5.7,5.7-8
		l3.9-3.6l-0.5,5.2c-0.3,2.7-1.1,5.1-1.9,7.5c-0.2,0.8-0.5,1.5-0.7,2.3c-5.1,15.3-11.2,28.1-18.7,39.2
		c-7.9,11.4-16.1,19.2-25.1,23.8l-1,0.5L213.2,391.4z"/>
	<path class="st1" d="M252.3,329.2c2.3-3.7,4-7.8,7.2-10.8c-0.3,3.2-1.6,6.3-2.5,9.4c-4.5,13.6-10.4,26.8-18.5,38.7
		c-6.4,9.3-14.2,18-24.4,23.2c-8-4.5-15.9-9.1-24-13.3c1.4-0.6,2.8-1.3,4.3-2c5.7,1,11.1-1.6,16.1-3.9
		C228.6,361.8,242,346,252.3,329.2z"/>
	<path class="st1" d="M427.4,625.4c-1-0.3-2-0.6-3-0.9c-3.4-1-7-2-10.2-4l-0.5-0.3l-0.3-0.5c-8.8-17.5-19.9-34-30.4-49.5
		c-24-34.2-45.5-60.2-67.7-81.7c-26.7-26.1-57-49-90.1-68.2c-47.2-28.1-87.2-48.7-125.6-65c-37.6,33.5-74,71.4-111.2,115.9
		c-0.9,1-1.6,1.9-1.7,2.8l-0.4,2.6l-2.4-1c-3.9-1.6-7.2-2.9-10.2-3.8l-2.8-0.9l1.9-2.3c26.5-32.1,52.2-60.3,78.4-86.3
		c14.7-14.5,29.2-28.6,45-41.7l0.9-0.8l1.1,0.5c35.1,14.7,71.2,32.7,110.3,55c13.1,7.5,28.2,16.2,42.8,25.5
		c42.3,27.1,79.6,60.7,111,99.8c25.7,32.1,44.9,60.1,60.4,88.1l0.7,1.4c2.2,4.1,4.4,8.3,6.2,12.7l1.6,3.9L427.4,625.4z"/>
	<path class="st1" d="M52.9,383.7c14.5-14.3,29.2-28.6,44.8-41.6c37.8,15.9,74.4,34.6,110.1,54.9c14.4,8.2,28.7,16.5,42.7,25.5
		c41.9,26.9,79.4,60.6,110.5,99.4c22.2,27.7,43,56.7,60.2,87.8c2.4,4.5,4.8,9.1,6.8,13.8c-4.3-1.4-8.9-2.2-12.7-4.7
		c-8.8-17.4-19.6-33.7-30.5-49.7c-20.4-29.1-42.4-57.3-67.9-82c-27.1-26.5-57.6-49.5-90.4-68.5c-41-24.3-83-47.1-126.9-65.6
		C59,388.9,21.8,428.5-12.9,470c-1,1.1-2,2.3-2.2,3.8c-3.4-1.4-6.8-2.8-10.3-3.9C-0.7,440,25.3,411.1,52.9,383.7z"/>
	<path class="st1" d="M319.7,467c-17.9-16.6-36.7-31.6-56-44.7l-0.9-0.6l0-1c-0.1-3.4-0.2-7,0.1-10.5l0-0.5l0.2-0.4
		c7.1-12.5,16-26.8,28-38.3c13.6-13.7,30.3-21.6,46.8-22c1.2,0,2.4,0.1,3.5,0.1c1.5,0.1,3.1,0.1,4.7,0.1c0.4,0,0.9,0,1.3,0l0.5,0
		l0.7,0.3c8.4,4.1,18.8,9.1,21.6,19.6c3,12.4-1.6,24.8-6.2,35.6c-11.5,24.7-28.2,46.1-41.4,62l-1.4,1.6L319.7,467z"/>
	<path class="st1" d="M292.6,372.5c12-12.1,28.2-21,45.5-21.4c3.1,0.1,6.3,0.3,9.5,0.3c8.3,4,18.2,8.7,20.8,18.5
		c2.9,11.7-1.5,23.6-6.1,34.3c-10.5,22.5-25.3,42.6-41.1,61.5c-17.6-16.3-36.3-31.4-56.2-44.8c-0.1-3.5-0.2-6.9,0.1-10.4
		C272.6,396.8,281.2,383.4,292.6,372.5z"/>
	<path class="st1" d="M86.4,379.5c0.1,0,0.1-0.1,0.2-0.2C86.5,379.4,86.4,379.4,86.4,379.5z"/>
	<path class="st1" d="M86.4,379.5c0.1,0,0.1-0.1,0.2-0.2C86.5,379.4,86.4,379.4,86.4,379.5z"/>
	<path class="st1" d="M83.9,390.3c-0.3-0.1-0.5-0.3-0.6-0.4l1.6-2.2L83.9,390.3z"/>
	<path class="st1" d="M84.4,388.4c0,0,0.1,0.1,0.2,0.1C84.6,388.4,84.5,388.4,84.4,388.4z"/>
	<path class="st1" d="M137.4,395.3c0,0,0.1,0.2,0.1,0.2C137.5,395.4,137.5,395.3,137.4,395.3z"/>
	<path class="st1" d="M137.4,395.3c0,0,0.1,0.2,0.1,0.2C137.5,395.4,137.5,395.3,137.4,395.3z"/>
	<polygon class="st1" points="108.9,412.6 112,410.1 112.1,410.2 109,412.7 	"/>
	<path class="st1" d="M110.4,411.3c0,0,0.1,0.1,0.1,0.2C110.5,411.4,110.5,411.4,110.4,411.3z"/>
	
		<rect x="153.5" y="426.3" transform="matrix(-0.8691 0.4947 -0.4947 -0.8691 501.5956 720.0734)" class="st1" width="4" height="0.3"/>
	<path class="st1" d="M155.4,426.3c0,0.1,0.1,0.2,0.2,0.3C155.5,426.5,155.5,426.3,155.4,426.3z"/>
	<polygon class="st1" points="174,428 174.2,427.9 177,430.7 176.8,430.9 	"/>
	<path class="st1" d="M175.4,429.5c0,0,0.1-0.1,0.2-0.1C175.5,429.3,175.5,429.4,175.4,429.5z"/>
	<polygon class="st1" points="248.2,448.9 250.6,445.7 250.8,445.8 249.6,447.4 248.4,449.1 	"/>
	<path class="st1" d="M249.4,447.3c0,0,0.1,0.1,0.2,0.1C249.5,447.4,249.4,447.3,249.4,447.3z"/>
	<path class="st1" d="M133.7,457.3l3.4-2.1c0.1,0.1,0.2,0.4,0.3,0.5l-3.6,1.8C133.8,457.4,133.7,457.3,133.7,457.3z"/>
	<path class="st1" d="M135.4,456.2c0.1,0.1,0.1,0.2,0.2,0.3C135.5,456.5,135.5,456.3,135.4,456.2z"/>
	<path class="st1" d="M84.8,465.3l1.2-3.8c0.1,0,0.3,0.1,0.3,0.1l-0.7,1.9l-0.7,1.9L84.8,465.3z"/>
	<path class="st1" d="M85.4,463.3c0.1,0,0.2,0.1,0.2,0.1C85.6,463.4,85.5,463.4,85.4,463.3z"/>
	<path class="st1" d="M87.7,466.2l1.5-3.7c0.1,0,0.1,0,0.2,0.1l-0.8,1.9l-0.7,1.9C87.8,466.3,87.7,466.2,87.7,466.2z"/>
	<path class="st1" d="M88.4,464.4c0.1,0,0.2,0,0.2,0.1C88.6,464.4,88.5,464.4,88.4,464.4z"/>
</g>
<g id="_x23_ffffffff">
	<path class="st2" d="M216.4,144.9h0.3c3.3,5.6,6.1,11.5,9.2,17.2c4.2,7.5,5.3,16.6,3,24.9c-1.9,5.1-0.1,10.6-1.5,15.8
		c14.6,11,24.3,27.8,28.1,45.5c5.2,3.4,9.7,8.3,11.6,14.3c1.9,5.3,2,11.1,1.1,16.6c9,7,20.1,10.4,31,13.1c8.4,1.9,17,3.5,25.6,4
		c16-3.9,33.1-5.8,49.2-1.4c21.4,5.4,39,21,50.4,39.5c11,18.1,15.6,40.7,9.5,61.3c-6.2,1.9-12.8,2.4-18.9-0.2
		c-5.8,15.9-14.4,30.6-23.6,44.8c-10.8,16.4-22.6,32-34.9,47.2c25.9,29.2,49.2,60.7,69.7,93.8c10.2,16.1,18.3,33.5,26.7,50.6v0.1
		c-16,7.8-31.7,16.2-48.3,22.5c-41.5,16.2-84.8,27.9-128.6,36.1c-21.6,3.8-43.5,5.8-65.4,6.1h-10.4c-21.7-0.2-43.3-2.7-64.9-5.2
		C81.7,685.4,28.3,675.9-24,661.6c-6.6-29.1-11.2-58.6-14.9-88.2c-4.4-36.1-7-72.4-8.2-108.8v-2.1c17.1-21,34.8-41.5,53.3-61.3
		c27.2-29,55.5-57.1,86.1-82.6c3.2,1.3,6.3,2.7,9.5,4c-3.2-10.2-5.8-20.6-7.6-31.1c1.1-1.5,2.1-3,3.1-4.5
		c-6.9-28.5,4-59.8,26.3-78.6c1.5-4.2,1.9-8.8,3.8-12.9c4-10.6,12.4-20,23.6-22.9c12.5-2.9,25.8-1.1,37.6,3.6
		c5.4,2.6,12.3,0.9,16.2-3.5c3.6-4,4.9-9.4,6.9-14.3C213.2,153.9,215.4,149.6,216.4,144.9 M218.4,169c-1.6,3.9-3.6,7.7-6.6,10.7
		c-5.9,6.3-15.3,8.9-23.6,6.9c-8.9-3.9-18.6-6.2-28.3-5.4c-5.5,0.3-11,2-15.1,5.7c-7.5,6.6-10.3,16.8-11.6,26.3
		c-9.3,7.6-17.3,17-22.1,28.1c-6.7,14.8-7.7,32-3.1,47.6c-1.1,1.6-2.3,3.3-3.4,5c3.4,16.3,7.7,32.8,15.6,47.6
		c-8.6-4-17.4-7.6-26.1-11.3c-19.2,16-37.3,33.4-54.9,51.1c-26.8,27-52.2,55.3-76.2,84.8c1.1,35.8,3.7,71.5,8.1,107
		c3.4,27,7.4,54,13.3,80.6C46.8,670.3,110.8,680,175,685.9c28,2.1,56.3,1.4,84.2-2.4c19.8-2.6,39.3-7.1,58.6-11.8
		c42-10.6,83.7-23.8,122.2-44c-8.4-17.7-17.7-34.9-28.4-51.3c-20.3-31.2-42.7-61-68-88.4c16.5-20.2,32.5-41,46.2-63.3
		c8.1-13.7,16.1-27.9,19.1-43.7c5.2,3.2,10.7,6.9,17.1,6.6c3.1-17.4-1.7-35.7-11.3-50.4c-9.3-14-22.5-26-38.6-31.4
		c-14.4-4.9-30.1-4.1-44.8-0.7c-2.4,0.5-4.7,1.5-7.2,1.1c-15.1-1.5-30.3-4.3-44.5-9.8c-8.2-3.3-16.3-7.6-22.1-14.4
		c2-6.1,2.5-13.2-0.7-19c-2.1-3.9-5.9-6.4-9.9-8.2c-3-19.4-13.7-38.3-31.1-48.2c2.2-4.3,2.8-9.2,2.6-14c-2.1,2.6-4.8,4.6-7.7,6.3
		C218.4,191.5,223.2,179.5,218.4,169z"/>
	<path class="st2" d="M185.5,280.9c2.4,1.6,4.8,3.3,7.2,5c-8.6,4.5-17.2,9-25.9,13.4C173,293.2,179.3,287.1,185.5,280.9z"/>
	<path class="st2" d="M133.3,299.2c3.9,1.8,7.7,3.6,11.5,5.5c-5,0-9.9,0-14.9,0C131,302.9,132.2,301,133.3,299.2z"/>
	<path class="st2" d="M287.6,344.2c13.3-10.4,28.8-18.7,45.5-21.7c11.7-2.1,24.5-0.2,34.2,7.1c6.2,4.5,11.1,10.6,14.8,17.2
		c-11.4-10.2-27-14.8-42.1-15.1C321.8,331.3,304,336.8,287.6,344.2z"/>
	<path class="st2" d="M102.5,365c14.1,6.5,26.8,16.8,34.9,30.3c0,0,0.1,0.2,0.1,0.2c6,10.3,11.9,20.5,17.9,30.8
		c0,0.1,0.1,0.2,0.2,0.3c2.7,4.6,5.3,9.2,8,13.8c4-3.6,7.9-7.3,11.9-10.9c0,0,0.1-0.1,0.2-0.1c6.1-5.6,12.2-11.2,18.2-16.8
		c0.8-1.3,2.1,0.1,3,0.5c17.5,11.5,35.1,22.8,52.6,34.3c0,0,0.1,0.1,0.2,0.1c8.5,5.3,16.5,11.4,24.4,17.5
		c11.5,9,22.8,18.4,32.7,29.2c9,9.7,18.1,19.3,27.1,29c-44-24-87.9-48.2-131.9-72.3c-14.2,12.5-28.4,25-42.7,37.5
		c67,22.8,134,45.5,201,68.2c10.1,15.2,20.2,30.4,30.3,45.7c-129.8-44-259.5-88-389.2-132c7.9-9.1,15.7-18.3,23.6-27.4
		c20.2,6.8,40.3,13.7,60.5,20.5c0.1,0,0.2,0.1,0.2,0.1c0.7,0.2,2.1,0.7,2.8,1c0.1,0,0.2,0,0.2,0.1c11.9,4,23.8,8,35.7,12.1
		c5-4.4,10-8.7,15-13.1c-1.2-2.3-2.4-4.6-3.7-6.9c0-0.1-0.1-0.2-0.2-0.3c-4.4-8.2-8.8-16.4-13.1-24.7c-3.7-6.8-7-13.9-11.7-20.1
		c0,0-0.1-0.1-0.1-0.2c-6.9-9.3-15.8-17.2-25.8-22.9c0,0-0.1-0.1-0.2-0.1c-1.6-0.9-3.3-1.8-5-2.7c2.3-2.1,4.6-4.2,6.9-6.2
		c0.1,0,0.1-0.1,0.2-0.2C91.9,374.5,97.2,369.8,102.5,365 M84.1,385.4c16.3,8.1,29.3,22.3,37,38.7c7.1,13.2,14,26.5,20.9,39.8
		c-5.5,5.3-11.4,10.1-17.2,15c-32.9-11.1-65.8-22.4-98.8-33.6c-3,2.2-5.1,5.4-7.6,8.1c-4.4,5.5-9.6,10.4-13.5,16.2
		c116.5,39.3,232.8,78.8,349.4,117.7c1.3,0.3,2.6,0.3,4,0.3c-2.7-1.5-5.3-3.2-7.7-5.1c-24.2-16.8-48.3-33.8-72.3-50.8
		c-0.9-0.5-1.8-0.9-2.8-1.2c-39.9-13.8-79.9-27.5-119.9-41c0.1-0.3,0.4-0.9,0.6-1.2c12.4-11.4,25.2-22.4,37.5-33.9
		c-7.4-5.3-15-10.3-22.3-15.8c-4-1-5.2,6.5-9.3,4.7c-2.5-4.6-5-9.1-7.9-13.4c-22.2-16.1-45.1-31.3-67.1-47.6
		C85.9,383.1,84.9,384.2,84.1,385.4z"/>
	<path class="st2" d="M-3,483.3c35.4,12.1,70.8,24.4,106.3,36.4c-8.7,8.8-17.5,17.5-26.3,26.2c-15.7-5.3-31.4-10.7-47.2-16
		c3.9,21.6,7.7,43.2,11.6,64.8c22.3,5.8,44.5,11.6,66.8,17.2c41.6,10.2,84.8,14.5,127.6,11.3c12.8-0.7,25.6-3.6,36.8-9.8
		c0.1-0.2,0.4-0.5,0.5-0.7c-41.2-14-82.4-27.9-123.6-41.9c0.6-1.7,1.1-3.4,1.7-5.1c-3.9,3.4-7.7,6.8-11.6,10.2
		c-11.6-3.9-23.1-7.8-34.7-11.8c14.6-12.8,29.1-25.7,43.8-38.4c11.5,4,23.1,7.8,34.6,11.8c-2.6,2.4-5.2,4.6-7.9,6.9
		c21.9,7.7,44.1,14.5,66.1,22.1c48.3,16.4,96.5,32.7,144.8,49.1c-23.1,6.7-46.2,13.6-69.3,20.4c-21.6,6.5-43.8,11.1-66.1,14.7
		c-18.4,3.4-37.1,5.1-55.9,4.4c-15.4-0.3-30.6-3.1-45.9-4.9c-22.9-3.2-46-5.4-68.6-10.1c-22.2-4.5-44.4-9.1-66.6-13.6
		c-3.6-22.9-7.2-45.7-10.7-68.6c-1.3-10.6-2.4-21.3-3.5-31.9C-1.4,511.8-2.2,497.5-3,483.3 M-1.1,486.4c0,5.6,1.2,11,1.1,16.6
		c0.9,18.7,2.9,37.3,5.4,55.8c1.3,8.9,3.2,17.7,4.3,26.6c5.2,0,10.2,1.7,15.4,1.2c3.9,0.5,7.7,1.4,11.7,1.1c0-2.7,0.1-5.5-0.3-8.2
		c-3.1-17.5-5.9-35.1-9.2-52.6c15.5,5.2,31,10.4,46.4,15.7c1.2,0.3,2.9,1.2,3.8-0.1c6.4-6.3,12.8-12.6,19.3-18.9
		c1.1-1,2-2.1,2.7-3.3c-31.3-10.6-62.5-21.4-93.7-32.2C3.4,487.4,1.3,486.4-1.1,486.4 M149.2,528c-12.1,10.3-23.8,21-35.7,31.4
		c-1.3,1.2-3.1,2.2-3.6,4.1c8.6,3,17.2,5.8,25.8,8.8c1.7,0.5,3.9,1.2,5.3-0.4c4.8-4.1,9.4-8.5,14.4-12.4c-0.8,3.4-2.5,6.6-2.4,10.2
		c41.8,14.1,83.6,28.1,125.3,42.2l0.4,1c-3.7,2.5-7.7,4.4-11.9,6c-0.2,0.4-0.6,1.2-0.9,1.5c3.6,0.2,7.3-0.5,10.9,0.5
		c3.6,1.1,7.4-0.2,11,1c3.6,1.1,7.4-0.2,11,1c3.6,1.1,7.5-0.2,11,1c3.9,1.1,8.1-0.3,12,1c3.3,1,6.8-0.1,10,0.8
		c3.9,1.1,8.1,1.1,11.9-0.3c11.7-3.3,23.4-6.8,35.2-10c-15.8-4.7-31.1-10.6-46.7-15.7c-24.1-8.2-48.2-16.5-72.3-24.7
		c-17.8-5.9-35.4-12.4-53.3-17.9c-11.6-3.9-23.1-8-34.7-11.8c2.1-2.8,5.2-4.5,7.4-7.2C169.3,534.7,159.3,531.3,149.2,528z"/>
</g>
<g id="_x23_292b2aff">
	<path class="st3" d="M218.4,169c4.8,10.5-0.1,22.6-7.8,30.3c2.9-1.7,5.6-3.7,7.7-6.3c0.3,4.8-0.4,9.7-2.6,14
		c17.4,9.8,28.2,28.8,31.1,48.2c4,1.7,7.8,4.3,9.9,8.2c3.2,5.8,2.7,12.9,0.7,19c5.8,6.8,13.9,11.1,22.1,14.4
		c14.3,5.5,29.4,8.3,44.5,9.8c2.5,0.3,4.8-0.7,7.2-1.1c14.6-3.5,30.3-4.3,44.8,0.7c16.1,5.4,29.3,17.4,38.6,31.4
		c9.6,14.7,14.5,33,11.3,50.4c-6.4,0.3-11.9-3.4-17.1-6.6c-2.9,15.8-10.9,30.1-19.1,43.7c-13.7,22.3-29.7,43-46.2,63.3
		c25.2,27.3,47.7,57.2,68,88.4c10.7,16.4,20,33.6,28.4,51.3c-38.5,20.2-80.2,33.4-122.2,44c-19.4,4.7-38.9,9.1-58.6,11.8
		c-27.9,3.8-56.1,4.5-84.2,2.4c-64.2-5.9-128.2-15.6-190.5-32.3c-5.9-26.6-10-53.6-13.3-80.6c-4.4-35.5-7-71.2-8.1-107
		c24-29.5,49.5-57.8,76.2-84.8c17.7-17.7,35.7-35,54.9-51.1c8.7,3.7,17.5,7.3,26.1,11.3c-7.8-14.8-12.2-31.2-15.6-47.6
		c1.1-1.6,2.3-3.3,3.4-5c-4.6-15.6-3.6-32.8,3.1-47.6c4.8-11.1,12.8-20.5,22.1-28.1c1.2-9.6,4.1-19.7,11.6-26.3
		c4.1-3.7,9.6-5.4,15.1-5.7c9.7-0.7,19.4,1.6,28.3,5.4c8.3,2,17.7-0.6,23.6-6.9C214.8,176.6,216.8,172.9,218.4,169 M152,216.8
		c-3.9,7-5.6,15.1-6.1,23.1c-0.9,14.1,1,28.3,4.2,42.1c-1.3,0.7-2.7,1.3-4,2c-2.8-6-3.9-12.6-5.4-19c-2.4-10.9-4-21.9-6.3-32.8
		l0.3-1.3c-8.5,5.5-13.8,15-16,24.8c-2.2,10.7-1.7,21.9,1.3,32.3c4.2,1.7,8.6,2.8,12.8,4.4c7,1.7,13.7,4.8,20.6,6.3
		c18.9-14.5,37.6-29.1,56.5-43.7c4.5,5.7,9,11.4,13.6,17c-22,14.4-44.7,28.1-66.7,42.5c-9.1-1.8-18-4.2-27-6.1v-0.2
		c-3.1-0.7-6.2-1.4-9.3-2.2c0.3,5.9,2.4,11.6,4.4,17.1c4.4,11.2,9.6,22.1,15.3,32.7c0.6,1.3,2.1,1.9,3.3,2.5
		c4.3,2.1,8.9,3.8,13.6,5.1l0.3,0.3c7.2,1.4,14.2,4,21.6,5.1c23.9-10,45.1-28.1,56.3-51.8c-1.8-5.3-3.6-10.6-5.4-15.8
		c-0.7-2.1-2.6-3.5-4.3-4.7c-4.7-3.2-10-5.5-15.3-7.7c5.6-3.6,11.3-7.2,17-10.7c1.2,4.7,2.5,10.1,7.1,12.6c4.2,2.2,8.9-0.1,12.6-2.4
		c-3.1-1.9-6.9-3-8.8-6.4c-4.3-7.1-1.6-15.7,1-22.9c-3.1-0.2-5.9,1.2-8.4,2.9c-3.9-13.8-11.5-27-23.4-35.4
		C191.5,215.3,170.7,213,152,216.8 M185.5,280.9c-6.2,6.2-12.5,12.2-18.7,18.4c8.6-4.4,17.3-8.9,25.9-13.4
		C190.3,284.2,188,282.5,185.5,280.9 M133.3,299.2c-1.1,1.8-2.3,3.7-3.4,5.5c5,0,9.9,0,14.9,0C141,302.8,137.2,301,133.3,299.2
		 M213.6,361.5c-6,4.8-12.2,9.5-19.1,12.9c-1.4,0.7-2.9,1.3-4.3,2c8.1,4.2,16,8.8,24,13.3c10.2-5.2,18-13.9,24.4-23.2
		c8-11.9,14-25.1,18.5-38.7c0.9-3.1,2.2-6.1,2.5-9.4c0.8-1.5,1.1-3.2,1.5-4.9C246,330.3,231,347.1,213.6,361.5 M287.6,344.2
		c16.4-7.4,34.2-12.9,52.4-12.5c15.1,0.3,30.7,4.9,42.1,15.1c-3.7-6.6-8.6-12.7-14.8-17.2c-9.7-7.3-22.5-9.2-34.2-7.1
		C316.4,325.5,300.9,333.8,287.6,344.2 M52.9,383.7C25.3,411.1-0.7,440-25.4,469.9c0.6,17.9,1.6,35.8,2.9,53.6
		c3.5,41.1,8.3,82.3,17,122.8c49,12.8,99.1,21.2,149.3,26.9c20.6,2.4,41.3,4.7,62.2,4.6c35.3,0.4,70.3-5,104.5-13.5
		c24.6-5.8,48.9-12.9,72.7-21.4c15.5-5.6,30.9-11.6,45.4-19.3l-0.6-0.2c-2-4.8-4.4-9.3-6.8-13.8c-17.2-31.1-38-60.1-60.2-87.8
		c-31.2-38.8-68.7-72.5-110.5-99.4c-14-8.9-28.3-17.2-42.7-25.5c-35.6-20.3-72.2-39-110.1-54.9C82,355.1,67.4,369.4,52.9,383.7
		 M279.6,368.5c-9.4,11.7-15.9,26.6-14.7,41.8c-0.2,3.4-0.1,6.9-0.1,10.4c19.9,13.5,38.6,28.5,56.2,44.8
		c15.8-19,30.7-39.1,41.1-61.5c4.6-10.6,9-22.5,6.1-34.3c-2.6-9.7-12.5-14.4-20.8-18.5C324.3,341.5,295.4,349,279.6,368.5z"/>
	<path class="st3" d="M167,326c9.8-6.7,19.1-14.1,28.6-21.3c-0.4,2.5,1,5.7-1.3,7.5c-7.9,7.2-15.5,14.8-23.3,22.1
		C169.6,331.5,168.3,328.8,167,326z"/>
	<path class="st3" d="M173,338.4c9.9-6.5,19.1-14,28.5-21.2c0,2.1-0.1,4.3-0.2,6.4c-8.1,7.8-16.4,15.4-24.4,23.3
		C175.5,344.1,174,341.3,173,338.4z"/>
	<path class="st3" d="M134.9,322.9c7.3,2.1,14.6,4.1,21.9,6.4c2.2,2.2,3.2,5.5,4.9,8.1c-8-3-16.2-5.4-24.3-8
		C136.5,327.3,135.6,325.1,134.9,322.9z"/>
	<path class="st3" d="M140,335.3c7.4,2.1,14.8,4.3,22.2,6.4c1.6,2.6,3,5.2,4.5,7.9c-8.1-2.7-16.2-5.2-24.3-7.9
		C141.6,339.5,140.8,337.4,140,335.3z"/>
	<path class="st3" d="M99.4,353c43.9,18.5,86,41.2,126.9,65.6c32.8,19,63.3,42,90.4,68.5c25.5,24.8,47.5,52.9,67.9,82
		c11,16.1,21.7,32.3,30.5,49.7c-39,17.3-80.2,29.5-121.9,38.6c-40.3,9.3-82,12.1-123.2,8c-56.2-5.7-112.3-13.9-167-27.9
		c-10.7-53.9-16-108.8-18.3-163.6c0.2-1.5,1.2-2.7,2.2-3.8C21.8,428.5,59,388.9,99.4,353 M102.5,365c-5.3,4.8-10.6,9.5-15.9,14.3
		c-0.1,0-0.1,0.1-0.2,0.2c-2.3,2.1-4.6,4.1-6.9,6.2c1.7,0.9,3.4,1.7,5,2.7c0,0,0.1,0.1,0.2,0.1c10.1,5.7,18.9,13.6,25.8,22.9
		c0,0,0.1,0.1,0.1,0.2c4.7,6.2,8.1,13.3,11.7,20.1c4.4,8.2,8.7,16.5,13.1,24.7c0.1,0.1,0.1,0.2,0.2,0.3c1.2,2.3,2.5,4.6,3.7,6.9
		c-5,4.4-10,8.7-15,13.1c-11.9-4.1-23.8-8.1-35.7-12.1c0,0-0.1,0-0.2-0.1c-0.7-0.2-2.1-0.7-2.8-1c0,0-0.2,0-0.2-0.1
		c-20.1-6.8-40.3-13.7-60.5-20.5C17,452,9.2,461.1,1.3,470.2c129.7,44,259.5,88,389.2,132c-10.1-15.3-20.2-30.5-30.3-45.7
		c-67-22.7-134-45.4-201-68.2c14.2-12.5,28.4-25,42.7-37.5c44,24.1,87.8,48.3,131.9,72.3c-9-9.7-18.1-19.3-27.1-29
		c-10-10.7-21.3-20.1-32.7-29.2c-7.9-6.1-15.9-12.3-24.4-17.5c0,0-0.1-0.1-0.2-0.1c-17.5-11.4-35.1-22.8-52.6-34.3
		c-0.9-0.4-2.1-1.9-3-0.5c-6.1,5.6-12.2,11.2-18.2,16.8c0,0-0.1,0.1-0.2,0.1c-4,3.6-7.9,7.3-11.9,10.9c-2.7-4.6-5.3-9.2-8-13.8
		c0-0.1-0.1-0.2-0.2-0.3c-5.9-10.3-11.9-20.6-17.9-30.8c0-0.1-0.1-0.2-0.1-0.2C129.3,381.8,116.7,371.5,102.5,365 M-3,483.3
		c0.9,14.2,1.6,28.5,2.6,42.7c1.2,10.7,2.3,21.3,3.5,31.9c3.5,22.9,7.1,45.7,10.7,68.6c22.2,4.5,44.4,9.1,66.6,13.6
		c22.7,4.7,45.7,6.9,68.6,10.1c15.3,1.8,30.5,4.6,45.9,4.9c18.7,0.7,37.5-1.1,55.9-4.4c22.3-3.5,44.4-8.2,66.1-14.7
		c23.1-6.8,46.2-13.6,69.3-20.4c-48.3-16.4-96.5-32.7-144.8-49.1c-21.9-7.6-44.1-14.5-66.1-22.1c2.6-2.3,5.3-4.6,7.9-6.9
		c-11.5-3.9-23.1-7.8-34.6-11.8c-14.7,12.7-29.2,25.6-43.8,38.4c11.5,4,23.1,7.9,34.7,11.8c3.9-3.4,7.7-6.8,11.6-10.2
		c-0.6,1.7-1.1,3.4-1.7,5.1c41.2,14,82.4,28,123.6,41.9c-0.1,0.2-0.4,0.5-0.5,0.7c-11.3,6.2-24.1,9.1-36.8,9.8
		c-42.8,3.2-86-1.2-127.6-11.3c-22.3-5.6-44.5-11.5-66.8-17.2c-3.9-21.6-7.8-43.2-11.6-64.8c15.7,5.3,31.4,10.7,47.2,16
		c8.8-8.7,17.6-17.4,26.3-26.2C67.8,507.7,32.4,495.4-3,483.3z"/>
</g>
<g id="_x23_d71e1eff">
	<path class="st1" d="M152,216.8c18.7-3.7,39.4-1.5,55.2,9.8c11.9,8.4,19.5,21.6,23.4,35.4c2.5-1.8,5.3-3.1,8.4-2.9
		c-2.6,7.2-5.3,15.8-1,22.9c1.9,3.4,5.7,4.5,8.8,6.4c-3.7,2.2-8.3,4.5-12.6,2.4c-4.6-2.4-5.9-7.9-7.1-12.6
		c-5.7,3.6-11.4,7.1-17,10.7c5.2,2.2,10.5,4.5,15.3,7.7c1.7,1.3,3.6,2.6,4.3,4.7c1.9,5.2,3.6,10.5,5.4,15.8
		c-11.2,23.6-32.4,41.8-56.3,51.8c-7.3-1.1-14.3-3.7-21.6-5.1l-0.3-0.3c-4.8-5.1-11-9-14.2-15.4c-4.8-9.4-9.4-19-12-29.2
		c-0.9-3.4-1.1-7-1-10.5c9,1.9,18,4.3,27,6.1c22.1-14.4,44.7-28.1,66.7-42.5c-4.6-5.6-9.1-11.3-13.6-17
		c-18.9,14.5-37.6,29.2-56.5,43.7c-7-1.4-13.7-4.5-20.6-6.3c0.4-0.1,1.2-0.4,1.6-0.5c-2.7-15.4-4.9-31.2-2.8-46.8
		c0.4-4.4,1.2-8.7,2.8-12.8c2.3,10.9,3.9,21.9,6.3,32.8c1.5,6.4,2.6,13,5.4,19c1.3-0.6,2.7-1.3,4-2c-3.2-13.8-5.1-27.9-4.2-42.1
		C146.4,231.9,148.1,223.8,152,216.8 M167,326c1.3,2.8,2.6,5.6,3.9,8.3c7.8-7.3,15.4-14.9,23.3-22.1c2.3-1.8,1-5.1,1.3-7.5
		C186.1,311.8,176.8,319.3,167,326 M173,338.4c1.1,2.9,2.5,5.7,3.9,8.5c8-7.9,16.3-15.5,24.4-23.3c0.1-2.1,0.2-4.3,0.2-6.4
		C192.1,324.4,182.8,331.9,173,338.4 M134.9,322.9c0.8,2.2,1.6,4.4,2.5,6.5c8.1,2.6,16.3,5,24.3,8c-1.7-2.6-2.7-5.9-4.9-8.1
		C149.5,327,142.1,325,134.9,322.9 M140,335.3c0.8,2.1,1.6,4.3,2.4,6.4c8.1,2.7,16.2,5.2,24.3,7.9c-1.4-2.6-2.9-5.3-4.5-7.9
		C154.9,339.5,147.4,337.4,140,335.3z"/>
	<path class="st1" d="M252.3,329.2c2.3-3.7,4-7.8,7.2-10.8c-0.3,3.2-1.6,6.3-2.5,9.4c-4.5,13.6-10.4,26.8-18.5,38.7
		c-6.4,9.3-14.2,18-24.4,23.2c-8-4.5-15.9-9.1-24-13.3c1.4-0.6,2.8-1.3,4.3-2c5.7,1,11.1-1.6,16.1-3.9
		C228.6,361.8,242,346,252.3,329.2z"/>
	<path class="st1" d="M52.9,383.7c14.5-14.3,29.2-28.6,44.8-41.6c37.8,15.9,74.4,34.6,110.1,54.9c14.4,8.2,28.7,16.5,42.7,25.5
		c41.9,26.9,79.4,60.6,110.5,99.4c22.2,27.7,43,56.7,60.2,87.8c2.4,4.5,4.8,9.1,6.8,13.8c-4.3-1.4-8.9-2.2-12.7-4.7
		c-8.8-17.4-19.6-33.7-30.5-49.7c-20.4-29.1-42.4-57.3-67.9-82c-27.1-26.5-57.6-49.5-90.4-68.5c-41-24.3-83-47.1-126.9-65.6
		C59,388.9,21.8,428.5-12.9,470c-1,1.1-2,2.3-2.2,3.8c-3.4-1.4-6.8-2.8-10.3-3.9C-0.7,440,25.3,411.1,52.9,383.7z"/>
	<path class="st1" d="M292.6,372.5c12-12.1,28.2-21,45.5-21.4c3.1,0.1,6.3,0.3,9.5,0.3c8.3,4,18.2,8.7,20.8,18.5
		c2.9,11.7-1.5,23.6-6.1,34.3c-10.5,22.5-25.3,42.6-41.1,61.5c-17.6-16.3-36.3-31.4-56.2-44.8c-0.1-3.5-0.2-6.9,0.1-10.4
		C272.6,396.8,281.2,383.4,292.6,372.5z"/>
	<path class="st1" d="M86.4,379.5c0.1,0,0.1-0.1,0.2-0.2C86.5,379.4,86.4,379.4,86.4,379.5z"/>
	<path class="st1" d="M84.4,388.4c0,0,0.1,0.1,0.2,0.1C84.6,388.4,84.5,388.4,84.4,388.4z"/>
	<path class="st1" d="M137.4,395.3c0,0,0.1,0.2,0.1,0.2C137.5,395.4,137.5,395.3,137.4,395.3z"/>
	<path class="st1" d="M110.4,411.3c0,0,0.1,0.1,0.1,0.2C110.5,411.4,110.5,411.4,110.4,411.3z"/>
	<path class="st1" d="M155.4,426.3c0,0.1,0.1,0.2,0.2,0.3C155.5,426.5,155.5,426.3,155.4,426.3z"/>
	<path class="st1" d="M175.4,429.5c0,0,0.1-0.1,0.2-0.1C175.5,429.3,175.5,429.4,175.4,429.5z"/>
	<path class="st1" d="M249.4,447.3c0,0,0.1,0.1,0.2,0.1C249.5,447.4,249.4,447.3,249.4,447.3z"/>
	<path class="st1" d="M135.4,456.2c0.1,0.1,0.1,0.2,0.2,0.3C135.5,456.5,135.5,456.3,135.4,456.2z"/>
	<path class="st1" d="M85.4,463.3c0.1,0,0.2,0.1,0.2,0.1C85.6,463.4,85.5,463.4,85.4,463.3z"/>
	<path class="st1" d="M88.4,464.4c0.1,0,0.2,0,0.2,0.1C88.6,464.4,88.5,464.4,88.4,464.4z"/>
</g>
<g id="_x23_ff2727ff">
	<path class="st0" d="M118.7,255.6c2.1-9.8,7.4-19.3,16-24.8l-0.3,1.3c-1.5,4.1-2.4,8.5-2.8,12.8c-2.1,15.6,0.1,31.4,2.8,46.8
		c-0.4,0.1-1.2,0.4-1.6,0.5c-4.2-1.5-8.6-2.6-12.8-4.4C117,277.5,116.6,266.3,118.7,255.6z"/>
	<path class="st0" d="M120.5,305.9c3.1,0.8,6.2,1.5,9.3,2.2v0.2c-0.1,3.5,0.1,7.1,1,10.5c2.6,10.2,7.2,19.8,12,29.2
		c3.2,6.4,9.4,10.3,14.2,15.4c-4.6-1.3-9.2-3-13.6-5.1c-1.2-0.7-2.7-1.2-3.3-2.5c-5.7-10.6-10.9-21.5-15.3-32.7
		C122.9,317.5,120.8,311.8,120.5,305.9z"/>
	<path class="st0" d="M213.6,361.5c17.4-14.4,32.4-31.2,47.4-47.9c-0.5,1.6-0.7,3.4-1.5,4.9c-3.2,3-4.9,7.1-7.2,10.8
		c-10.3,16.8-23.7,32.6-41.7,41.2c-5,2.3-10.4,5-16.1,3.9C201.4,371,207.6,366.3,213.6,361.5z"/>
	<path class="st0" d="M279.6,368.5c15.8-19.5,44.7-27.1,67.9-17.3c-3.2,0.1-6.3-0.2-9.5-0.3c-17.3,0.5-33.5,9.4-45.5,21.4
		c-11.4,10.9-19.9,24.3-27.7,37.9C263.7,395.1,270.2,380.2,279.6,368.5z"/>
	<path class="st0" d="M-25.4,469.9c3.5,1.2,6.9,2.5,10.3,3.9c2.3,54.9,7.6,109.7,18.3,163.6c54.8,14,110.8,22.3,167,27.9
		c41.1,4.1,82.9,1.3,123.2-8c41.7-9.1,82.9-21.3,121.9-38.6c3.9,2.4,8.4,3.3,12.7,4.7l0.6,0.2c-14.5,7.7-29.9,13.8-45.4,19.3
		c-23.8,8.5-48.1,15.5-72.7,21.4c-34.2,8.5-69.2,13.8-104.5,13.5c-20.8,0.1-41.5-2.2-62.2-4.6C93.6,667.5,43.5,659-5.5,646.3
		c-8.7-40.4-13.4-81.6-17-122.8C-23.8,505.7-24.8,487.8-25.4,469.9z"/>
</g>
<linearGradient id="SVGID_1_" gradientUnits="userSpaceOnUse" x1="4.85" y1="483.2567" x2="386.3778" y2="483.2567">
	<stop  offset="0" style="stop-color:#B2B3B3"/>
	<stop  offset="0.5" style="stop-color:#FCFCFC"/>
</linearGradient>
<path class="st4" d="M84.1,385.4c0.9-1.1,18.6-17,19.6-18c11.9,5.9,19.7,12.6,24.5,17.7c8.6,9,15.1,21.3,27.5,45.6
	c2.7,5.3,4.9,9.6,6.3,12.6c4.1,1.8,30-30.3,33.9-29.3c0.2,0.2,0.6,0.5,1.1,0.8c42.8,28.8,35.8,24.5,42.8,28.8
	c19.7,12,46.9,31.8,61.3,47.8c4.4,4.8,10.5,12.6,21.2,21.4c2.9,2.4,8.1,7.5,7.8,7.9c-0.3,0.4,0,0-112.1-63.3
	c-7.6-4.3-15.5-9.6-16.5-8.7c-10.6,9.1-37.2,32.2-45.4,39.7c-0.1,0.3-0.4,0.9-0.6,1.2c40,13.5,79.9,27.2,119.9,41
	c1,0.3,2.8,1.2,84.5,28.2c2.4,1.9,27.6,40.7,26.3,40.5c-116.6-38.9-265-90.3-381.5-129.6c4-5.8,9.1-10.8,13.5-16.2
	c2.5-2.7,4.6-5.9,7.6-8.1c32.9,11.2,65.8,22.5,98.8,33.6c5.8-4.9,11.7-9.7,17.2-15c-6.9-13.3-13.8-26.6-20.9-39.7
	C113.3,407.7,100.4,393.5,84.1,385.4z"/>
<linearGradient id="SVGID_2_" gradientUnits="userSpaceOnUse" x1="-1.1" y1="569.3337" x2="378.95" y2="569.3337">
	<stop  offset="0" style="stop-color:#B2B3B3"/>
	<stop  offset="0.5" style="stop-color:#FCFCFC"/>
</linearGradient>
<path class="st5" d="M379,615.4c-15.8-4.7-31.1-10.6-46.7-15.7c-24.1-8.2-48.2-16.5-72.3-24.7c-17.8-5.9-35.4-12.4-53.3-17.9
	c-11.6-3.9-23.1-8-34.7-11.8c2.1-2.8,5.2-4.5,7.4-7.2c-10-3.5-20-6.9-30.1-10.2c-12,10.3-23.8,21-35.7,31.4
	c-1.3,1.2-3.1,2.2-3.6,4.1c8.6,3,17.2,5.8,25.8,8.8c1.7,0.5,3.9,1.2,5.3-0.4c4.8-4.1,9.4-8.5,14.5-12.4c-0.8,3.4-2.5,6.6-2.5,10.2
	c41.8,14.1,83.6,28.1,125.3,42.2l0.4,1c-3.7,2.5-7.7,4.4-11.9,6c-2.9,0.9-12,4.2-25,5.9c-5.4,0.7-15.1,1.7-28.7,1.9
	c-16.7,0.2-28.7-1-48.8-3.1c-23.5-2.4-39.3-4.2-58.6-9.3c-7.7-2-12-3.5-26.2-7.2c-7.7-2-15.3-4.6-23.2-6c-8.9-1.6-12.1-1.4-15.2-4.5
	c-3.3-3.2-3.4-7-4.8-17.2c-1-6.9-2.4-13.7-3.5-20.5c-1.8-10.7-3.6-21.4-5.6-32c15.5,5.2,31,10.4,46.4,15.7c1.2,0.3,2.9,1.2,3.8-0.1
	c6.4-6.3,12.8-12.6,19.3-18.9c1-1,2-2.1,2.7-3.3c-31.3-10.6-62.5-21.4-93.7-32.2c-2.2-0.7-4.4-1.8-6.7-1.8c0,5.6,1.2,11,1.1,16.6
	c0.9,18.7,2.9,37.3,5.4,55.8c2.4,17.4,5.4,39.3,10.3,64.7C57,633.5,92,639.7,117.8,643.7c40.2,6.1,60.3,9.2,87.2,8.6
	c41.5-1,77.2-10.1,98.6-15.5c14.9-3.7,27.4-7.5,36.9-10.5c1.1-0.2,2.2-0.5,3.3-0.9C355.5,622.1,367.2,618.5,379,615.4z"/>
</svg>
