<?xml version="1.0" encoding="utf-8"?>
<!-- Generator: Adobe Illustrator 21.0.2, SVG Export Plug-In . SVG Version: 6.00 Build 0)  -->
<svg version="1.1" id="Layer_1" xmlns="http://www.w3.org/2000/svg" xmlns:xlink="http://www.w3.org/1999/xlink" x="0px" y="0px"
	 viewBox="0 0 297.3 402.8" style="enable-background:new 0 0 297.3 402.8;" xml:space="preserve">
<style type="text/css">
	.st0{fill:#EEEEEE;}
	.st1{fill:url(#SVGID_1_);}
	.st2{fill:url(#SVGID_2_);}
	.st3{fill:url(#SVGID_3_);}
	.st4{fill:url(#SVGID_4_);}
	.st5{opacity:0.4;fill:url(#SVGID_5_);}
	.st6{opacity:0.77;fill:url(#SVGID_6_);}
	.st7{opacity:0.4;fill:url(#SVGID_7_);}
	.st8{opacity:0.77;fill:url(#SVGID_8_);}
	.st9{fill:url(#SVGID_9_);}
</style>
<g>
	<polygon class="st0" points="139.1,0 297.3,140.7 297.3,218.1 139.1,89.6 	"/>
	<linearGradient id="SVGID_1_" gradientUnits="userSpaceOnUse" x1="119.1994" y1="161.994" x2="261.45" y2="161.994">
		<stop  offset="0" style="stop-color:#A21615"/>
		<stop  offset="1" style="stop-color:#E20615"/>
	</linearGradient>
	<path class="st1" d="M261.1,195.5L176.8,127c-0.2-0.1-0.4-0.2-0.6-0.2h-56c-0.4,0-0.8,0.3-0.9,0.6s0,0.8,0.3,1.1l83.8,68.5
		c0.2,0.2,0.4,0.2,0.7,0.2h56.5c0.4,0,0.8-0.3,0.9-0.7C261.5,196.2,261.4,195.7,261.1,195.5"/>
	<linearGradient id="SVGID_2_" gradientUnits="userSpaceOnUse" x1="138.6234" y1="178.1979" x2="138.6234" y2="60.5239">
		<stop  offset="0" style="stop-color:#F1F1F1"/>
		<stop  offset="1" style="stop-color:#6E6E6E"/>
	</linearGradient>
	<path class="st2" d="M277.2,122.9l-70.1-62.3l-113.3,0c-0.5,0-0.9,0.2-1.2,0.6L0.3,175.8c-0.4,0.5-0.4,1.1-0.2,1.6
		c0.2,0.5,0.8,0.9,1.4,0.9l76.7,0c0.5,0,0.9-0.2,1.2-0.6l39.5-55h60.7L277.2,122.9z"/>
	<linearGradient id="SVGID_3_" gradientUnits="userSpaceOnUse" x1="178.102" y1="240.8027" x2="35.8514" y2="240.8027">
		<stop  offset="0" style="stop-color:#A21615"/>
		<stop  offset="1" style="stop-color:#E20615"/>
	</linearGradient>
	<path class="st3" d="M36.2,207.3l84.3,68.5c0.2,0.1,0.4,0.2,0.6,0.2h56c0.4,0,0.8-0.3,0.9-0.6s0-0.8-0.3-1.1L94,205.8
		c-0.2-0.2-0.4-0.2-0.7-0.2H36.9c-0.4,0-0.8,0.3-0.9,0.7C35.8,206.6,35.9,207.1,36.2,207.3"/>
	<polygon class="st0" points="158.2,402.8 0,262.1 0,184.7 158.2,313.2 	"/>
	<linearGradient id="SVGID_4_" gradientUnits="userSpaceOnUse" x1="158.678" y1="224.5987" x2="158.678" y2="342.2727">
		<stop  offset="0" style="stop-color:#F1F1F1"/>
		<stop  offset="1" style="stop-color:#6E6E6E"/>
	</linearGradient>
	<path class="st4" d="M20.1,279.9l70.1,62.3l113.3,0c0.5,0,0.9-0.2,1.2-0.6L297,227c0.4-0.5,0.4-1.1,0.2-1.6
		c-0.2-0.5-0.8-0.9-1.4-0.9l-76.7,0c-0.5,0-0.9,0.2-1.2,0.6l-39.5,54.9h-60.7L20.1,279.9z"/>
	<path class="st0" d="M138.6,60.5l68.1,0l70.1,62.3l-97.5-0.3l62.7,51c20.7-10.6,38.5-22.4,52.7-34.8L138.6,0V60.5z"/>
	
		<linearGradient id="SVGID_5_" gradientUnits="userSpaceOnUse" x1="178.5116" y1="-17.8498" x2="178.5116" y2="206.6046" gradientTransform="matrix(0.9997 -2.499782e-02 2.499782e-02 0.9997 -3.8323 17.3063)">
		<stop  offset="0" style="stop-color:#F1F1F1;stop-opacity:0"/>
		<stop  offset="0.7296" style="stop-color:#FFFFFF"/>
	</linearGradient>
	<path class="st5" d="M176,126.8h-56c-0.4,0-0.8,0.3-0.9,0.7s0,0.8,0.3,1.1l78.7,64.3c13.9-5.1,26.9-10.7,39.1-16.7L176.7,127
		C176.5,126.8,176.3,126.8,176,126.8z"/>
	<linearGradient id="SVGID_6_" gradientUnits="userSpaceOnUse" x1="138.6234" y1="-55.0935" x2="138.6234" y2="346.4458">
		<stop  offset="0" style="stop-color:#F1F1F1;stop-opacity:0"/>
		<stop  offset="0.7296" style="stop-color:#FFFFFF"/>
	</linearGradient>
	<path class="st6" d="M207.2,60.5l-68.1,0l-45.3,0c-0.5,0-0.9,0.2-1.2,0.6L0.3,175.8c-0.4,0.5-0.4,1.1-0.2,1.6
		c0.2,0.5,0.8,0.9,1.4,0.9l76.7,0c0.5,0,0.9-0.2,1.2-0.6l39.5-55h60.7l0.1,0l97.5,0.3L207.2,60.5z"/>
	
		<linearGradient id="SVGID_7_" gradientUnits="userSpaceOnUse" x1="70.2777" y1="-17.8504" x2="70.2777" y2="206.6039" gradientTransform="matrix(0.9997 -2.499782e-02 2.499782e-02 0.9997 -3.8323 17.3063)">
		<stop  offset="0" style="stop-color:#F1F1F1;stop-opacity:0"/>
		<stop  offset="0.7296" style="stop-color:#FFFFFF"/>
	</linearGradient>
	<path class="st7" d="M93.2,205.6H36.7c-0.4,0-0.8,0.3-0.9,0.7c-0.1,0.4,0,0.8,0.3,1.1l18.4,15c17-0.9,34.5-2.8,52.5-5.8l-13.1-10.8
		C93.6,205.6,93.4,205.6,93.2,205.6z"/>
	
		<linearGradient id="SVGID_8_" gradientUnits="userSpaceOnUse" x1="22.0857" y1="-17.846" x2="22.0857" y2="206.6084" gradientTransform="matrix(0.9997 -2.499782e-02 2.499782e-02 0.9997 -3.8323 17.3063)">
		<stop  offset="0" style="stop-color:#F1F1F1;stop-opacity:0"/>
		<stop  offset="0.7296" style="stop-color:#FFFFFF"/>
	</linearGradient>
	<path class="st8" d="M0,221.8c14.8,1.2,30.5,1.5,46.8,0.9L0,184.7V221.8z"/>
	<g>
		<linearGradient id="SVGID_9_" gradientUnits="userSpaceOnUse" x1="311.2295" y1="206.4429" x2="266.4953" y2="153.1307">
			<stop  offset="0" style="stop-color:#FFFFFF"/>
			<stop  offset="0.3144" style="stop-color:#FDFDFD"/>
			<stop  offset="0.4981" style="stop-color:#F4F4F4"/>
			<stop  offset="0.6481" style="stop-color:#E6E6E6"/>
			<stop  offset="0.7801" style="stop-color:#D2D2D2"/>
			<stop  offset="0.8989" style="stop-color:#B9B9B9"/>
			<stop  offset="1" style="stop-color:#9C9C9C"/>
		</linearGradient>
		<path class="st9" d="M297.3,140.7l-2.3-2.1c-14.2,12.4-32,24.1-52.7,34.8l55,44.7V140.7z"/>
	</g>
</g>
</svg>
