<?xml version="1.0" encoding="utf-8"?>
<!-- Generator: Adobe Illustrator 19.0.0, SVG Export Plug-In . SVG Version: 6.00 Build 0)  -->
<svg version="1.1" id="Layer_1" xmlns="http://www.w3.org/2000/svg" xmlns:xlink="http://www.w3.org/1999/xlink" x="0px" y="0px"
	 viewBox="-60.1 291.9 327.1 280.6" style="enable-background:new -60.1 291.9 327.1 280.6;" xml:space="preserve">
<style type="text/css">
	.st0{fill:#222222;}
</style>
<g id="_x23_222222ff">
	<path class="st0" d="M22,294.9c20.6-2.7,41.3-2.6,62-2.9c6.2,0,12.5-0.1,18.7,0.1c-0.2,84.6-0.3,169.2-0.3,253.8
		c-0.1,8.8,0.2,17.6-0.3,26.5c-5.7-7.5-10.9-15.3-16.9-22.5c-7.7-9.5-15.4-19.3-25-27c9.1,1.9,16.2,8.3,23.9,13
		c2.5,1.4,5.6,3.1,8.4,1.5c4.1-3.3,4.1-9.6,2.2-14.1c-3.3-7.3-9.5-12.9-16.5-16.5c-11.7-5.7-24.1-10-36.7-13.3
		c-6.2-1.5-12-5.1-15.7-10.3c-5.7-7.8-7.4-17.7-7.5-27.2c5.2,6.9,13.1,12.3,21.8,12.9c7.9-0.3,16.6-5.1,18.9-13.1
		c1.5-6.8-2.4-13.2-6.5-18.2c-5.4-6.6-13.9-10.2-22.4-10.2c-9.5-0.3-18.7,2.8-27.4,6.3c8-15.1,25.5-24.1,42.5-22.8
		c9.1,0.1,17.7,5,26.9,2.9c10.1-1.7,18.1-11.6,16.9-21.9c-0.3-6.1-5.1-11.6-11.2-12.5c-8-1.4-15.7,1.9-22.8,5.3
		c-11.9,5.6-25.7,6.2-38.2,2.5c-17.8-5.1-32.3-17.2-46.5-28.5c-4.6-3.8-10.1-6.7-16.1-7.1c-4.8-0.6-9.5,1-14.1,2.3
		c1-5.5,5.8-9.2,10.4-11.7c8.5-4.5,18.8-4.4,27.9-1.5c16,4.9,33.7,7.8,50,2.3c5.6-2,11.6-4.7,15-9.9c2.2-3.3,1.5-7.8-0.6-10.9
		c-5.4-8.4-14.7-14.1-24.6-15.3c-15.2-2.1-30.1,2.3-44.4,7.1c3.5-4.8,8.8-7.8,14-10.4C-1.5,298.8,10.3,296.4,22,294.9z"/>
	<path class="st0" d="M109.8,291.9c52.4,0,104.8-0.1,157.2,0c-8.4,15.2-17,30.3-25.4,45.5c-0.8,2.4-3.7,1.7-5.6,1.9
		c-20.9-0.1-41.9,0.1-62.8-0.1c-0.2,12.1-0.2,24.2,0,36.3c15.7-0.1,31.4-0.3,47,0.1c-8.6,15.9-17.5,31.5-26.3,47.3
		c-6.9,0-13.9-0.1-20.8,0.1c0,11.3,0,22.7,0,34c0,2-0.3,4-1.3,5.7c-18.7,33.3-37.3,66.7-55.9,100.1c-1.9,3.3-3.5,6.9-5.9,9.8
		c-0.4-5.9-0.1-11.8-0.2-17.6C109.7,467.2,109.6,379.6,109.8,291.9z"/>
</g>
</svg>
