<?xml version="1.0" encoding="utf-8"?>
<!-- Generator: Adobe Illustrator 20.0.0, SVG Export Plug-In . SVG Version: 6.00 Build 0)  -->
<svg version="1.1" id="Layer_2" xmlns="http://www.w3.org/2000/svg" xmlns:xlink="http://www.w3.org/1999/xlink" x="0px" y="0px"
	 viewBox="0 0 523.5 457" style="enable-background:new 0 0 523.5 457;" xml:space="preserve">
<style type="text/css">
	.st0{fill:none;}
	.st1{fill:#F9E910;stroke:#000000;stroke-width:12;stroke-miterlimit:10;}
</style>
<g>
	<g>
		<polygon class="st0" points="232.5,422.3 236,399.6 230.5,399.6 229.1,408.5 222.1,408.5 223.2,399.6 217.4,399.6 213.9,422.3 
			219.7,422.3 221.1,413.5 228.4,413.5 227,422.3 		"/>
		<polygon class="st0" points="246.1,417.5 239.8,417.5 242.6,399.6 237.1,399.6 233.3,422.3 245.2,422.3 		"/>
		<g>
			<polygon class="st0" points="259.3,399.6 244.7,399.6 243.8,404.6 248.7,404.6 246.8,417.5 246.8,417.5 245.9,422.3 245.9,422.3 
				245.9,422.3 251.9,422.3 254.6,404.6 258.6,404.6 			"/>
			<polygon class="st0" points="274.9,399.6 267.3,413.5 264,399.6 260.3,399.6 260.1,399.6 259.2,405.7 263.7,422.3 268.1,422.3 
				281.5,399.6 			"/>
		</g>
	</g>
	<g>
		<path class="st0" d="M278.9,420.7c-0.2,1.3-1.4,2.3-2.5,2.3c-1.3,0-2.1-1.1-1.7-2.3c0.2-1.3,1.4-2.3,2.5-2.3
			C278.1,418.4,279.1,419.6,278.9,420.7z"/>
		<path class="st0" d="M289.7,416.8c-0.6,3-1.9,6.2-5.5,6.2s-4-3.2-3.6-6.2c0.6-3,1.9-6.2,5.5-6.2
			C289.7,410.7,290.2,413.8,289.7,416.8z M284,416.8c0,0.7-0.6,3.2,0.7,3.2c1.1,0,1.5-2.5,1.5-3.2c0-0.7,0.6-3.2-0.7-3.2
			C284.4,413.7,284.2,416.1,284,416.8z"/>
		<path class="st0" d="M295.3,411l-0.2,1.4l0,0c0.9-1.1,1.5-1.7,3-1.7l-0.6,3.2c-0.2,0-0.4,0-0.6,0c-2.3,0-2.5,1.4-2.7,3.2l-0.9,5.9
			h-3.2l1.7-11.8L295.3,411L295.3,411z"/>
		<path class="st0" d="M300.2,424.3c0,0.7,0,1.5,0.9,1.5c1.4,0,1.5-2.3,1.7-3.2l0.2-1.5l0,0c-0.4,0.4-0.7,0.9-0.9,1.3
			c-0.4,0.4-0.9,0.6-1.4,0.6c-1.3,0-1.7-0.9-2.3-1.9c-0.4-1.3-0.4-2.7-0.2-4c0.4-2.1,1.4-6.4,4.2-6.4c1.1,0,1.7,0.7,1.9,1.5l0,0
			l0.2-1.4h3.2l-2.1,12.9c-0.6,3.4-2.3,4.8-5.1,4.8c-2.8,0-3.9-1.5-3.6-4.2L300.2,424.3L300.2,424.3z M304,416.8
			c0-0.7,0.6-3.2-0.7-3.2c-1.1,0-1.5,2.5-1.5,3.2c0,0.7-0.6,3.2,0.7,3.2C303.5,420,303.8,417.5,304,416.8z"/>
	</g>
</g>
<g>
	<polygon class="st1" points="249.1,359.3 274.8,356.6 294,315.1 256,210.7 129.7,189.7 80.8,124.6 107.9,77.4 219.3,92.3 
		264.5,39.5 77,19.2 13.7,128.6 97.2,242 212.4,259.5 	"/>
	<polygon class="st1" points="440.9,14.7 300.9,30.2 228.1,121.2 123.4,103 113,126.6 139.4,164 248.7,183.3 330,84.5 410.8,74.6 
		438.2,121.7 369.7,210.8 392.8,276.4 504,124.1 	"/>
	<polygon class="st1" points="407.6,123.5 392.3,102.7 346.9,106.8 275.5,191.9 320.5,311.7 288.6,386.5 234.1,386.7 191.3,282.8 
		123,270 199.2,442.7 325.6,442.7 382,313.7 339.5,205.1 	"/>
</g>
</svg>
