<?xml version="1.0" encoding="utf-8"?>
<!-- Generator: Adobe Illustrator 21.0.0, SVG Export Plug-In . SVG Version: 6.00 Build 0)  -->
<svg version="1.1" id="Layer_1" xmlns="http://www.w3.org/2000/svg" xmlns:xlink="http://www.w3.org/1999/xlink" x="0px" y="0px"
	 viewBox="0 0 425.2 822.6" style="enable-background:new 0 0 425.2 822.6;" xml:space="preserve">
<style type="text/css">
	.st0{fill:#1E1E1E;stroke:#1E1E1E;stroke-width:9.375000e-02;}
	.st1{fill:#FFFFFF;stroke:#FFFFFF;stroke-width:9.375000e-02;}
</style>
<path class="st0" d="M309.3,34.7c14.1-10,26.8-21.9,38.7-34.6c4.1,16.6,0.4,34.5-8,49.2c-11.3,19.7-28.9,35.2-48.1,47
	c22.6,20.4,34,50.7,36.5,80.5c0.9,6.4,0.5,12.8,0.8,19.2c15.4,9.3,27.9,22.7,38.2,37.3c20.8,30.2,33,65.5,41.5,100.9
	c9.2,39.1,13.8,79.1,15.5,119.2c1,14,0.6,28,0.7,42c0.3,33.5-2,66.9-5.3,100.1c-6.9,63.4-19.2,126.5-39.7,186.9
	c-4.8,13.5-9.4,27.2-15.6,40.1c0.9-16.4-4-32.5-12.2-46.6c-12.5-21.7-31.1-39.2-51.1-53.9c-15.5-11.1-31.9-21.2-49.7-28.2
	c-33.6-13.8-67.5-27.5-98.7-46.2c-33.1-19.6-63.7-44.1-87.5-74.5c-25.3-31.9-42.4-70-50.4-109.8C3.4,407.3,8.2,349,20.3,293.3
	c0.4-1.3,0.3-2.6-0.3-3.8c-11.8-24-19.3-50.4-19.8-77.1c-1.2-34,7.9-68.5,26.6-97c-7.9-15.6-11.9-33.8-8.3-51.2
	c3.1-15.3,12.4-29,24.7-38.3c-3.5,17.1,2,35.4,13.4,48.5c11.9-10,25.5-17.6,39.6-23.7c18.5-8,38-13.7,57.7-17.7
	c23.1-7.4,46.9-13.4,71.1-15.5c4.7-0.2,9.3-0.3,14-0.2c-7.8,4.8-16.3,9.6-21.1,17.8c14.6,6.3,28.9,14,41.1,24.3
	C277.3,54.7,294.1,45.5,309.3,34.7 M316.7,42c-16.1,11.5-34.1,20.6-53.1,26c-17.5,3.5-34.5,9.4-50.4,17.5
	c-20.8,10.5-39.1,25.1-55.7,41.3c-17.5,17.2-33.5,35.9-48.9,55c13.7-10.8,31.5-13.5,47.9-17.7c13-3.4,26.6-7.1,37.1-15.9
	c10.4-8.6,19.7-18.6,30.4-26.9c17.3-13.7,37.1-24,57.4-32.4c5.5-2.3,11.3-4.2,16.2-7.8c8.6-6.3,16.6-13.4,23.5-21.5
	c9.1-10.6,16.3-23.3,18.3-37.3C332.2,28.9,325,36.1,316.7,42 M189.4,33.6c-26.4,8.2-52,22.9-68,46c7.2-4,14.8-7,22.7-9.3
	c-14,19.7-28,39.5-38.5,61.4c-0.6,1.8-2.2,3.6-1.4,5.7c3,10.6,2.3,21.8,1,32.7c17.8-30.8,42.5-57.7,71.9-77.7
	c20.6-13.9,43.9-23.9,68.3-28.4c-12.6-10.4-28.1-16.6-44-20c1.4-5.8,4.8-10.9,9.1-15.1C203.3,29.9,196.3,31.5,189.4,33.6 M34,91.4
	c6.3,11.3,16.6,19.5,25.8,28.3c10.4,9.5,20.2,20,26.1,33c3.4,7.3,5.3,15.2,6.4,23.1c3.2-16.6,1.4-34.5-7.4-49.1
	c-8.2-14.3-21-25-31.8-37.2c-6.7-7.5-12.7-15.9-15.6-25.6c-1.3-4.4-2.1-9-3.4-13.4C28.2,63.1,27,78.9,34,91.4 M246,117.7
	c13.8,14.3,22.4,33.7,22.9,53.7c1.3,28.6-14.5,57.1-39.2,71.5c-17.6,10.6-39.5,13.9-59.4,8.8c-14.9-3.8-28.5-12-39.1-23.1
	c-9.5,14.5-19.4,29.2-25.2,45.7c0.9,14.2,4.7,29.6,15.9,39.3c8.9,7.5,19.9,12.2,31.2,14.8c20.4,4.8,42.3,0.5,60.1-10.2
	c11.7-8.5,19.3-21.3,30.5-30.4c7.5-6.1,15.4-11.9,22.6-18.4c23-20,41.8-45.4,51.2-74.6c2.5-20.2-1.5-40.9-9.5-59.5
	c-6.1-13.5-14.3-26.8-26.7-35.3C269.1,105.1,257.2,110.8,246,117.7 M224.6,137.7c10.4,11.1,14.9,27.2,11.9,42.1
	c-2.7,14.2-12.4,27-25.7,33.1c-12.7,6-28.3,5.3-40.4-1.8c-12.2-7-20.5-19.8-22.6-33.6c-11.3,1.3-23.3,4.6-31.3,13.1
	c7.3,30.8,35.8,55.5,67.5,57.7c17,1.3,34.4-3.7,48.2-13.7c13-9.3,22.9-22.9,27.7-38.1c5.3-16.7,4.4-35.3-2.4-51.5
	c-7.4,1.5-14.8,3-22.3,4.5c5.2-5.6,10.5-11.1,15.7-16.7c-2.9-4.2-6.3-8.1-9.7-11.9C234.7,125.3,228.8,130.9,224.6,137.7 M23.2,156.4
	c-3.3,10.6-5.3,21.9-4,33c0.9,8.5,3.6,17.1,9.1,23.8c3.9,4.9,9.6,8.5,15.9,9.2c8,1.1,15.9-2.1,22.1-6.9c1.7-1.2,1.7-3.5,2.3-5.4
	c1.6-6.8,4.4-13.4,8.6-19c-0.3-0.6-0.9-1.7-1.3-2.2c-4.3,6.2-10.8,11.8-18.8,11.9c-8,0.1-14.8-5.6-18.2-12.5
	c-9-17.9-3.5-42.7,13.8-53.5c-2.9-1.6-5.7-3.3-8.4-5.1C33.9,135.1,26.7,145.4,23.2,156.4 M75,208.2c-6.5,21.3-6.8,44.7,0.4,65.9
	c0.4,4.8,3.5,8.5,5.4,12.6c5.6,10.1,12.9,19.4,21.5,27.1c-1.4-12.4-2.5-25-2.6-37.5c-0.2-2.6,1.3-5,2.1-7.4
	c5.9-16.2,15.3-30.8,25.2-44.8c-7-9.5-12.2-20.4-15-31.9c-0.9-4.8-6.4-6.4-10.3-7.7c-2.3,4.8-5.3,9.4-8.5,13.7
	c-1,1.1-1.7,2.9-3.4,2.9c0.4-6,1.1-12.1,3.6-17.6C84.5,189.2,77.8,198.2,75,208.2 M325.1,204.7c-18.2,37.4-45.3,69.9-75.1,98.5
	c-15,14.2-27,31.4-36.2,49.8c-18.7,37.5-26.2,79.7-27.2,121.3c0,4.5,0,9.7,3.2,13.3c2.8,3.2,7.6,3.9,11.5,2.5
	c4.6-1.6,8.8-4.2,12.9-6.7c15.1-9.8,28.3-22.4,40.8-35.4c23-24.3,43.8-50.6,63.3-77.8c-3.4,7.2-7.3,14.1-11.1,21.1
	c-17.3,31.3-35.6,62.1-57.2,90.6c-11.8,15.3-24.5,30.5-40.7,41.2c-6.1,4.5-9.5,11.9-10.8,19.2c-1,5.5-0.3,11.3,2.3,16.3
	c11.1,22.3,27.6,41.6,46.6,57.6c7.2,5.9,18.9,9.2,26.7,2.7c22.4-15.5,43.6-33.3,59-56c22.1-31.9,32.4-70.2,38.7-108
	c0.9,29.8-4.3,59.7-14,87.9c-11.8,33.9-30.4,65.7-55.9,91c-6.6,6.4-5.4,17.5-0.8,24.7c9.7,7.6,19.8,14.8,29.3,22.7
	c20.3,16.7,40,35.7,50.9,60c0.2,0.5,1.3,3.1,1.6,1.1c14.8-53.3,24.2-107.9,29.3-162.9c4.9-54.2,5.6-108.9,0.6-163.1
	c-4.1-42.3-11.4-84.5-26-124.6c-7.1-19.3-16-38.1-28-54.9C349.4,224.4,338.4,212.9,325.1,204.7 M111.3,337.9
	c1.7,33.8,11.9,66.7,25.2,97.7c-11.1-13.3-21.1-27.6-30.5-42.2c-1.4-1.8-1.7-4.3-3.5-5.8c-0.2,2.2,0.3,4.4,0.5,6.6
	c0.4,16.2,4.9,31.9,10,47.1c7,20.3,16.3,39.7,27.1,58.2c-11-10.5-21.3-21.7-30.9-33.4c1.7,8.8,2.9,17.7,6.2,26.1
	c10,26.1,24.5,50.2,40.9,72.6c-8.4-6.4-16.5-13.3-24.4-20.4c8.3,18.8,18.6,36.7,31.4,52.7c20.9,26.3,48.7,47.3,80,59.4
	c-26.5-19.3-49.3-44.3-63.4-74c-18.8-38.7-22.3-83.3-15.9-125.4c5.8-38.4,18.4-75.8,36.5-110.1C171.2,355.4,137.8,354,111.3,337.9z"
	/>
<path class="st1" d="M316.7,42c8.3-5.8,15.4-13,22.9-19.8c-2,14-9.3,26.7-18.3,37.3c-6.9,8.1-14.9,15.3-23.5,21.5
	c-4.9,3.6-10.7,5.5-16.2,7.8c-20.4,8.3-40.1,18.7-57.4,32.4c-10.7,8.3-20,18.3-30.4,26.9c-10.6,8.8-24.1,12.6-37.1,15.9
	c-16.4,4.3-34.2,6.9-47.9,17.7c15.4-19.1,31.3-37.8,48.9-55c16.6-16.2,34.9-30.8,55.7-41.3c15.9-8,32.9-13.9,50.4-17.5
	C282.7,62.6,300.6,53.5,316.7,42z"/>
<path class="st1" d="M189.4,33.6c6.9-2.1,13.9-3.7,21.1-4.7c-4.2,4.2-7.7,9.2-9.1,15.1c15.9,3.4,31.4,9.6,44,20
	c-24.4,4.6-47.7,14.5-68.3,28.4c-29.4,20-54.1,46.9-71.9,77.7c1.3-10.8,2-22-1-32.7c-0.8-2,0.8-3.9,1.4-5.7
	c10.4-21.9,24.4-41.7,38.5-61.4c-7.9,2.2-15.6,5.2-22.7,9.3C137.4,56.4,162.9,41.8,189.4,33.6z"/>
<path class="st1" d="M34,91.4c-7-12.5-5.8-28.3,0.1-41c1.3,4.4,2.1,8.9,3.4,13.4c2.9,9.7,8.9,18.1,15.6,25.6
	C64,101.6,76.7,112.3,85,126.6c8.9,14.6,10.6,32.5,7.4,49.1c-1.2-7.9-3-15.8-6.4-23.1c-5.9-12.9-15.7-23.5-26.1-33
	C50.6,110.9,40.3,102.8,34,91.4z"/>
<path class="st1" d="M246,117.7c11.2-6.9,23.1-12.5,35.3-17.4c12.4,8.5,20.6,21.8,26.7,35.3c8,18.6,12,39.3,9.5,59.5
	c-9.4,29.1-28.2,54.6-51.2,74.6c-7.3,6.5-15.1,12.2-22.6,18.4c-11.2,9.1-18.7,21.9-30.5,30.4c-17.8,10.7-39.7,14.9-60.1,10.2
	c-11.3-2.7-22.3-7.3-31.2-14.8c-11.1-9.7-15-25.1-15.9-39.3c5.7-16.5,15.7-31.1,25.2-45.7c10.6,11.1,24.2,19.3,39.1,23.1
	c19.9,5.1,41.8,1.8,59.4-8.8c24.7-14.4,40.5-42.9,39.2-71.5C268.4,151.4,259.9,132,246,117.7z"/>
<path class="st1" d="M224.6,137.7c4.3-6.8,10.2-12.4,16.8-16.9c3.4,3.8,6.8,7.7,9.7,11.9c-5.2,5.6-10.5,11.1-15.7,16.7
	c7.4-1.5,14.8-3,22.3-4.5c6.8,16.2,7.7,34.8,2.4,51.5c-4.8,15.3-14.7,28.9-27.7,38.1c-13.8,10-31.2,14.9-48.2,13.7
	c-31.7-2.1-60.3-26.8-67.5-57.7c8-8.6,20-11.8,31.3-13.1c2.1,13.8,10.4,26.7,22.6,33.6c12.1,7.1,27.7,7.8,40.4,1.8
	c13.2-6.1,22.9-18.9,25.7-33.1C239.5,165,235,148.8,224.6,137.7z"/>
<path class="st1" d="M23.2,156.4c3.5-11,10.7-21.3,21.2-26.6c2.7,1.8,5.5,3.5,8.4,5.1c-17.4,10.7-22.8,35.6-13.8,53.5
	c3.4,6.9,10.2,12.6,18.2,12.5c7.9-0.1,14.5-5.7,18.8-11.9c0.3,0.5,0.9,1.6,1.3,2.2c-4.2,5.7-7,12.2-8.6,19c-0.6,1.8-0.6,4.1-2.3,5.4
	c-6.2,4.8-14.2,8-22.1,6.9c-6.3-0.8-11.9-4.4-15.9-9.2c-5.5-6.7-8.1-15.3-9.1-23.8C18,178.3,20,167.1,23.2,156.4z"/>
<path class="st1" d="M75,208.2c2.8-10,9.5-19,18.3-24.6c-2.5,5.5-3.3,11.6-3.6,17.6c1.7-0.1,2.4-1.9,3.4-2.9
	c3.3-4.3,6.2-8.8,8.5-13.7c4,1.3,9.5,2.9,10.3,7.7c2.8,11.5,8,22.4,15,31.9c-9.9,14-19.3,28.6-25.2,44.8c-0.9,2.4-2.3,4.8-2.1,7.4
	c0.2,12.5,1.2,25.1,2.6,37.5c-8.6-7.8-15.8-17-21.5-27.1c-1.9-4.2-5-7.9-5.4-12.6C68.1,252.9,68.5,229.6,75,208.2 M97.8,216.3
	c-2,6.6-2.6,13.5-3,20.3c4-5.5,8-11.4,8.8-18.3c0.5-2.8-0.7-5.4-2.4-7.5C99.6,212.3,98.4,214.1,97.8,216.3z"/>
<path class="st1" d="M325.1,204.7c13.3,8.2,24.3,19.7,33.4,32.3c12,16.8,20.9,35.6,28,54.9c14.6,40,21.9,82.3,26,124.6
	c5.1,54.2,4.3,108.9-0.6,163.1c-5.1,55-14.5,109.7-29.3,162.9c-0.2,2-1.4-0.5-1.6-1.1c-10.9-24.3-30.6-43.3-50.9-60
	c-9.5-7.9-19.6-15.1-29.3-22.7c-4.6-7.2-5.8-18.3,0.8-24.7c25.5-25.4,44.1-57.1,55.9-91c9.7-28.2,14.9-58,14-87.9
	c-6.3,37.9-16.6,76.1-38.7,108c-15.4,22.7-36.7,40.5-59,56c-7.8,6.5-19.5,3.2-26.7-2.7c-19-16-35.5-35.3-46.6-57.6
	c-2.6-5-3.3-10.8-2.3-16.3c1.3-7.3,4.7-14.7,10.8-19.2c16.2-10.8,28.9-26,40.7-41.2c21.6-28.5,40-59.3,57.2-90.6
	c3.8-7,7.7-13.9,11.1-21.1c-19.5,27.2-40.2,53.6-63.3,77.8c-12.5,13-25.6,25.5-40.8,35.4c-4.1,2.5-8.3,5.2-12.9,6.7
	c-3.9,1.3-8.7,0.7-11.5-2.5c-3.2-3.6-3.2-8.8-3.2-13.3c1-41.6,8.5-83.8,27.2-121.3c9.2-18.5,21.2-35.6,36.2-49.8
	C279.8,274.5,306.8,242.1,325.1,204.7z"/>
<path class="st0" d="M97.8,216.3c0.6-2.1,1.8-3.9,3.4-5.4c1.8,2.1,2.9,4.7,2.4,7.5c-0.9,6.9-4.9,12.8-8.8,18.3
	C95.3,229.8,95.9,222.8,97.8,216.3z"/>
<path class="st1" d="M111.3,337.9c26.5,16.1,59.8,17.5,89.2,9.2c-18.2,34.3-30.7,71.7-36.5,110.1c-6.3,42.1-2.8,86.7,15.9,125.4
	c14.1,29.8,36.9,54.7,63.4,74c-31.3-12.2-59.1-33.1-80-59.4c-12.9-16-23.2-34-31.4-52.7c7.8,7.1,16,13.9,24.4,20.4
	c-16.4-22.5-30.9-46.6-40.9-72.6c-3.3-8.4-4.4-17.3-6.2-26.1c9.6,11.8,20,22.9,30.9,33.4c-10.8-18.5-20.1-38-27.1-58.2
	c-5.1-15.2-9.6-31-10-47.1c-0.2-2.2-0.7-4.4-0.5-6.6c1.8,1.5,2.2,3.9,3.5,5.8c9.4,14.6,19.3,28.8,30.5,42.2
	C123.2,404.6,113,371.7,111.3,337.9z"/>
</svg>
