<?xml version="1.0" encoding="utf-8"?>
<!-- Generator: Adobe Illustrator 21.0.0, SVG Export Plug-In . SVG Version: 6.00 Build 0)  -->
<svg version="1.1" id="Layer_1" xmlns="http://www.w3.org/2000/svg" xmlns:xlink="http://www.w3.org/1999/xlink" x="0px" y="0px"
	 viewBox="0 0 293.873 482.264" style="enable-background:new 0 0 293.873 482.264;" xml:space="preserve">
<style type="text/css">
	.st0{fill:#E6E6E6;stroke:#E6E6E6;stroke-width:0.0938;}
	.st1{fill:#1A1A1A;stroke:#1A1A1A;stroke-width:0.0938;}
	.st2{fill:#9C353A;stroke:#9C353A;stroke-width:0.0938;}
</style>
<path class="st0" d="M81.834,18.14c4.44-6.9,9.72-13.47,16.59-18.09c18.31,4.47,36.11,10.88,53.48,18.16
	c37.47,15.95,73,37.18,102.94,64.94c14.76,13.62,27.94,28.99,38.98,45.79c-2.29,14.17-6.07,28.14-11.72,41.35
	c-3.53,8.27-8.17,16.11-14.26,22.77c-5.18,15.45-9.79,31.15-16.04,46.23c-2.99,7.65-9.25,13.31-15.28,18.6
	c-17.28,14.32-38.38,23.19-59.78,29.35c-8.27,2.85-16.22,7.23-22.26,13.66c-3.88,4.05-6.22,9.22-8.75,14.15
	c-5.59,12.05-9.3,24.86-12.51,37.71c-10.3,42.34-13.51,85.98-15.42,129.39c-12.2-12.99-23.44-26.86-33.4-41.64
	c-24.34-35.94-43.55-75.62-54.48-117.72c-3.81-1.1-7.63-2.47-10.75-4.99c-6.06-4.49-8.81-11.89-11-18.82
	c-5.26-17.91-5.67-36.85-4.45-55.34c1.18-16.83,3.89-33.54,7.63-49.98c1.31-3.75-1.35-7.17-2.15-10.73
	c-6.36-21.12-10.81-43.35-8.57-65.48c0.15-3.57,2.35-6.5,4.08-9.47c13.68-22.05,33.23-40.49,56.22-52.58
	c0.99-0.64,2.42-0.96,2.81-2.24C68.934,41.09,74.594,29.14,81.834,18.14 M88.144,20.41c-7.35,11.11-13.17,23.16-18.35,35.4
	c-0.6,1.08-0.8,2.6-2.02,3.19c-23.9,12.65-43.73,32.2-58.6,54.64c-3.02,4-2.47,9.29-2.84,14.01c-0.11,21.48,5.57,42.47,12.29,62.69
	c-3.59,18.95-7.05,37.98-8.26,57.26c-0.88,13.64-0.97,27.45,1.52,40.94c1.46,7.32,3.56,14.9,8.61,20.64
	c0.05-14.7,1.61-29.54,6.65-43.43c3.56,52.1,21.52,102.43,47.75,147.32c10.93,18.6,23.03,36.6,37.09,53
	c2.13-39.17,5.8-78.48,15.25-116.64c4.25-16.45,9.22-33.03,18.23-47.58c7.76-11.53,20.75-18.42,33.87-22.03
	c21.89-6.75,43.67-16.63,59.86-33.27c6.13-5.78,8.33-14.12,11.16-21.76c3.68-10.73,7.31-21.49,10.68-32.33
	c1.01-4.16,5.01-6.49,7.07-10.07c10.4-15.47,15.31-33.87,18.88-51.96c-22.68-34.36-54.91-61.45-90.04-82.41
	c-30.37-17.88-63.04-31.99-97.1-41.16C95.184,10.66,91.454,15.43,88.144,20.41z"/>
<path class="st1" d="M88.144,20.41c3.31-4.98,7.04-9.75,11.7-13.55c34.06,9.17,66.73,23.28,97.1,41.16
	c35.13,20.96,67.36,48.05,90.04,82.41c-3.57,18.09-8.48,36.49-18.88,51.96c-2.06,3.58-6.06,5.91-7.07,10.07
	c-3.37,10.84-7,21.6-10.68,32.33c-2.83,7.64-5.03,15.98-11.16,21.76c-16.19,16.64-37.97,26.52-59.86,33.27
	c-13.12,3.61-26.11,10.5-33.87,22.03c-9.01,14.55-13.98,31.13-18.23,47.58c-9.45,38.16-13.12,77.47-15.25,116.64
	c-14.06-16.4-26.16-34.4-37.09-53c-26.23-44.89-44.19-95.22-47.75-147.32c-5.04,13.89-6.6,28.73-6.65,43.43
	c-5.05-5.74-7.15-13.32-8.61-20.64c-2.49-13.49-2.4-27.3-1.52-40.94c1.21-19.28,4.67-38.31,8.26-57.26
	c-6.72-20.22-12.4-41.21-12.29-62.69c0.37-4.72-0.18-10.01,2.84-14.01c14.87-22.44,34.7-41.99,58.6-54.64
	c1.22-0.59,1.42-2.11,2.02-3.19C74.974,43.57,80.794,31.52,88.144,20.41 M107.834,27.32c-1.64,0.97-2.45,2.83-3.49,4.35
	c-4.87,8.11-10.1,16-14.89,24.15c-2.16,2.95,0.24,7.37,3.78,7.5c11.58,1.42,22.09,6.86,32.21,12.33c2.59,1.65,6.3,0.54,7.52-2.28
	c4.83-8.54,9.61-17.12,14.48-25.64c0.87-1.72,2.21-3.65,1.4-5.65c-0.6-2.25-2.82-3.3-4.84-3.98c-10.2-3.53-20.39-7.13-30.57-10.72
	C111.624,26.73,109.584,26.26,107.834,27.32 M160.414,52.71c-6.65,10.21-12.79,20.81-17.78,31.94c0.18,0.43,0.55,1.3,0.73,1.74
	c3.32,3.04,7.1,5.65,9.75,9.38c4.73,5.77,7.43,13.91,4.5,21.13c-2.34,5.52-4.04,12.36-9.86,15.25c-7.29,3.79-15.75,3.56-23.74,3.57
	c-1.14,2.84,2.07,4.08,3.98,5.27c6.12,3.2,12.66,5.57,19.31,7.39c1.62,0.6,2.86-0.91,3.61-2.12c15.56-24.21,31.17-48.4,46.04-73.04
	c1.29-1.76,1.2-4.26-0.24-5.9c-2.67-3.19-6.67-4.75-10.19-6.77c-7.25-3.74-14.4-7.91-22.27-10.21
	C162.474,49.51,161.294,51.53,160.414,52.71 M75.424,78.69c-14.5,13.86-28.97,27.75-43.45,41.63c-4.04,3.5-3.2,9.48-2.87,14.25
	c2.41,18.17,11.2,34.62,16.19,52.08c2.59,23.26,12.86,45.88,29.85,62.13c2.4,2.19,4.9,4.26,7.18,6.56
	c-15.95-8.88-29.3-22.17-38.97-37.6c-0.23,35.34,5.79,70.61,16.34,104.3c9.18,28.75,21.73,56.54,37.96,82.01
	c3.88-33.2,8.64-66.93,22.26-97.77c5.25-11.66,11.96-22.92,21.32-31.77c4.16-3.66,8.55-7.41,13.93-9.11
	c9.58-3.08,19-6.67,28.26-10.62c12.13-5.3,24.16-11.21,34.64-19.41c2.86-2.45,6.35-4.67,7.55-8.46
	c5.46-14.33,11.24-28.55,16.62-42.91c-9.09,3.74-17.93,8.04-26.93,11.96c-7.96-3.75-15.96-7.43-23.85-11.33
	c-0.89-2.01-1.63-4.34-3.68-5.48c-4.4-2.67-9.79-1.73-14.6-1.09c3.79,9.97,7.69,20.04,9.22,30.65c0.51,4.64-0.05,10.03-3.47,13.51
	c-2.3,2.22-6,0.89-7.39-1.67c-3.41-5.73-1.04-12.55-1.92-18.77c-1.2-9.47-4.63-19.05-11.44-25.96c-7.73-8.29-16.96-15.6-27.75-19.41
	c-10.12-3.08-20.99-6.69-28.06-15.03c-7.48,2.88-15.34,4.93-23.38,5.23c5.84-1.83,12.07-4.52,15.12-10.18
	c3.28-5.42,0.33-11.86-1.92-17.07c4.75,3.2,10.18,6.06,16.09,5.64c11.88-0.45,23.99,0.79,35.69-1.7c2.96-3.3,4.91-7.48,6.06-11.74
	c0.55-2.88,0.87-6.83-2.06-8.56c-13.87-9.53-28.68-17.6-43.63-25.28c-3.8-1.95-7.56-4.37-11.93-4.69
	C86.274,72.34,79.814,74.29,75.424,78.69 M204.784,85.22c-1.2,1.14-2.1,2.54-3.05,3.88c-10.66,15.33-21.02,30.98-29.16,47.83
	c-2.61,5.73-5.21,11.63-5.91,17.94c-0.28,3.63,3.2,5.85,5.59,7.97c3.85,2.92,8.73,6.24,13.78,4.58c5.99-2.08,10.76-6.52,15.25-10.84
	c13.78-14.38,24.26-31.49,34.26-48.6c1.68-2.39,2.06-6.01-0.44-7.99c-6.26-5.98-13.2-11.59-21.34-14.77
	C210.954,84.33,207.354,83.18,204.784,85.22 M242.214,122.48c-10.93,18.87-24.18,36.54-40.33,51.26c2.94,4.24,8,6.02,12.61,7.82
	c2.03,0.87,4.32,0.83,6.29-0.2c9.14-4.17,18.29-8.35,27.19-13.01c9.94-4.67,14.84-15.55,17.42-25.64c0.68-3.07,1.84-6.86-0.71-9.4
	c-4.79-5.34-10.6-9.88-17.13-12.88C245.564,119.22,243.064,120.48,242.214,122.48z"/>
<path class="st2" d="M107.834,27.32c1.75-1.06,3.79-0.59,5.6,0.06c10.18,3.59,20.37,7.19,30.57,10.72c2.02,0.68,4.24,1.73,4.84,3.98
	c0.81,2-0.53,3.93-1.4,5.65c-4.87,8.52-9.65,17.1-14.48,25.64c-1.22,2.82-4.93,3.93-7.52,2.28c-10.12-5.47-20.63-10.91-32.21-12.33
	c-3.54-0.13-5.94-4.55-3.78-7.5c4.79-8.15,10.02-16.04,14.89-24.15C105.384,30.15,106.194,28.29,107.834,27.32z"/>
<path class="st2" d="M160.414,52.71c0.88-1.18,2.06-3.2,3.84-2.37c7.87,2.3,15.02,6.47,22.27,10.21c3.52,2.02,7.52,3.58,10.19,6.77
	c1.44,1.64,1.53,4.14,0.24,5.9c-14.87,24.64-30.48,48.83-46.04,73.04c-0.75,1.21-1.99,2.72-3.61,2.12
	c-6.65-1.82-13.19-4.19-19.31-7.39c-1.91-1.19-5.12-2.43-3.98-5.27c7.99-0.01,16.45,0.22,23.74-3.57c5.82-2.89,7.52-9.73,9.86-15.25
	c2.93-7.22,0.23-15.36-4.5-21.13c-2.65-3.73-6.43-6.34-9.75-9.38c-0.18-0.44-0.55-1.31-0.73-1.74
	C147.624,73.52,153.764,62.92,160.414,52.71z"/>
<path class="st2" d="M75.424,78.69c4.39-4.4,10.85-6.35,16.98-5.66c4.37,0.32,8.13,2.74,11.93,4.69
	c14.95,7.68,29.76,15.75,43.63,25.28c2.93,1.73,2.61,5.68,2.06,8.56c-1.15,4.26-3.1,8.44-6.06,11.74
	c-11.7,2.49-23.81,1.25-35.69,1.7c-5.91,0.42-11.34-2.44-16.09-5.64c2.25,5.21,5.2,11.65,1.92,17.07
	c-3.05,5.66-9.28,8.35-15.12,10.18c8.04-0.3,15.9-2.35,23.38-5.23c7.07,8.34,17.94,11.95,28.06,15.03
	c10.79,3.81,20.02,11.12,27.75,19.41c6.81,6.91,10.24,16.49,11.44,25.96c0.88,6.22-1.49,13.04,1.92,18.77
	c1.39,2.56,5.09,3.89,7.39,1.67c3.42-3.48,3.98-8.87,3.47-13.51c-1.53-10.61-5.43-20.68-9.22-30.65c4.81-0.64,10.2-1.58,14.6,1.09
	c2.05,1.14,2.79,3.47,3.68,5.48c7.89,3.9,15.89,7.58,23.85,11.33c9-3.92,17.84-8.22,26.93-11.96
	c-5.38,14.36-11.16,28.58-16.62,42.91c-1.2,3.79-4.69,6.01-7.55,8.46c-10.48,8.2-22.51,14.11-34.64,19.41
	c-9.26,3.95-18.68,7.54-28.26,10.62c-5.38,1.7-9.77,5.45-13.93,9.11c-9.36,8.85-16.07,20.11-21.32,31.77
	c-13.62,30.84-18.38,64.57-22.26,97.77c-16.23-25.47-28.78-53.26-37.96-82.01c-10.55-33.69-16.57-68.96-16.34-104.3
	c9.67,15.43,23.02,28.72,38.97,37.6c-2.28-2.3-4.78-4.37-7.18-6.56c-16.99-16.25-27.26-38.87-29.85-62.13
	c-4.99-17.46-13.78-33.91-16.19-52.08c-0.33-4.77-1.17-10.75,2.87-14.25C46.454,106.44,60.924,92.55,75.424,78.69z"/>
<path class="st2" d="M204.784,85.22c2.57-2.04,6.17-0.89,8.98,0c8.14,3.18,15.08,8.79,21.34,14.77c2.5,1.98,2.12,5.6,0.44,7.99
	c-10,17.11-20.48,34.22-34.26,48.6c-4.49,4.32-9.26,8.76-15.25,10.84c-5.05,1.66-9.93-1.66-13.78-4.58
	c-2.39-2.12-5.87-4.34-5.59-7.97c0.7-6.31,3.3-12.21,5.91-17.94c8.14-16.85,18.5-32.5,29.16-47.83
	C202.684,87.76,203.584,86.36,204.784,85.22z"/>
<path class="st2" d="M242.214,122.48c0.85-2,3.35-3.26,5.34-2.05c6.53,3,12.34,7.54,17.13,12.88c2.55,2.54,1.39,6.33,0.71,9.4
	c-2.58,10.09-7.48,20.97-17.42,25.64c-8.9,4.66-18.05,8.84-27.19,13.01c-1.97,1.03-4.26,1.07-6.29,0.2
	c-4.61-1.8-9.67-3.58-12.61-7.82C218.034,159.02,231.284,141.35,242.214,122.48z"/>
</svg>
