<?xml version="1.0" encoding="utf-8"?>
<!-- Generator: Adobe Illustrator 19.0.0, SVG Export Plug-In . SVG Version: 6.00 Build 0)  -->
<svg version="1.1" id="Layer_1" xmlns="http://www.w3.org/2000/svg" xmlns:xlink="http://www.w3.org/1999/xlink" x="0px" y="0px"
	 viewBox="535.9 301.3 252.2 240" style="enable-background:new 535.9 301.3 252.2 240;" xml:space="preserve">
<style type="text/css">
	.st0{fill:#000204;}
</style>
<path class="st0" d="M668.9,301.3c5.4,4.5,10.1,9.8,15.1,14.6c30.9,30.8,61.7,61.6,92.6,92.4c3.7,3.8,7.7,7.3,11,11.5
	c-9.4,0.5-19,1-28.3,0.1c-10.2-9.5-19.8-19.7-29.8-29.5c-19.7-19.7-39.4-39.3-59.1-58.9c-2.4-1.8-1.9-5-2-7.6
	C668.5,316.4,668.4,308.8,668.9,301.3z"/>
<path class="st0" d="M644.6,306.5c6.7-1,13.7-0.2,20.5-0.4c0.4,7,0.5,13.1,0.3,20.2c-12.5,0,0,0-37.5,0.1
	C633.1,319.5,638.9,313,644.6,306.5z"/>
<path class="st0" d="M623.4,332.4c1.3-1.2,2.6-2.8,4.5-2.7c11-0.4,22-0.2,33.1-0.3c1.8,0.2,3.9-0.3,5.3,1c3.3,2.8,5.9,6.1,8.8,9.3
	c3.1,3.5,6.6,6.7,9.4,10.5c-16.1,0.6-32.3,0.1-48.5,0.3c-1.8-0.1-2.9,1.4-4,2.4c-22,22-44,44-66.1,66c-1.5,1.8-3.9,1.4-6,1.5
	c-8-0.1-16.1,0.1-24.1-0.5C564.9,390.6,594.4,361.6,623.4,332.4z"/>
<path class="st0" d="M687.3,380.4c8,16,14.9,32.5,22.4,48.8c2.8,6.4,6,12.6,8.4,19.2c-6.6,0.9-13.3,1.5-19.8,0.3
	c-3.8-7.8-7.2-15.8-11-23.6c-3.6,7.8-7.2,15.6-10.7,23.4c-6.7,1.4-13.5,0.9-20.2-0.3C666.6,425.6,676.4,402.7,687.3,380.4z"/>
<path class="st0" d="M617.3,382.2c21,0,42-0.1,62.9,0c-5.6,14.3-12.4,28.2-18.7,42.2c-8.7,0.5-17.5-0.8-26.1,0.9
	c-0.3,7.8,0,15.5-0.4,23.3c-5.9,1-12,1-17.9-0.1c-0.8-13.5-0.1-27.1-0.3-40.7C616.5,399.3,617.2,390.8,617.3,382.2 M635.4,400.3
	c0,2,0,4.1,0.1,6.1c4.7,0.1,9.3,0,14-0.2c0.8-2,1.7-4,2.6-5.9C646.4,400.3,640.9,400.3,635.4,400.3z"/>
<path class="st0" d="M751.9,429.7c2.7-2.7,5-5.9,8.3-8c9.3-0.9,18.7-0.2,28,0.7c-11.4,12.1-23.4,23.6-35.1,35.4
	c-17.5,17.5-35.1,34.9-52.5,52.5c-1.5,1.4-3.1,3.2-5.4,2.9c-11.4,0.1-22.8,0.1-34.1,0c-3.3,0.1-5.2-3-7.4-5
	c-4.8-5.5-10.1-10.6-14.9-16.2c15.8-0.2,31.6,0,47.4-0.1c1.9,0,4-0.3,5.3-1.9C711.5,470,731.7,449.9,751.9,429.7z"/>
<path class="st0" d="M536.5,422.6c8.2-0.5,16.4-0.3,24.6-0.3c1.5,0.2,3.4-0.4,4.6,0.8c28.7,28.7,57.2,57.6,86.4,85.8
	c1.5,1.7,3.9,3.3,3.6,5.9c-0.1,8.8,0.3,17.7-0.3,26.5c-5-3.9-9.2-8.6-13.7-13c-30.8-30.8-61.7-61.6-92.5-92.5
	C544.8,431.5,540.3,427.4,536.5,422.6z"/>
<path class="st0" d="M658.6,514.5c12.6,0,25.3-0.3,37.9,0.2c-3.3,4.9-7.5,9-11.1,13.6c-2,2.3,11.1-13.6-6.1,6.8
	c-20.7,0.2,0,0-20.7,0.2C658.6,528.3,658.6,521.4,658.6,514.5z"/>
</svg>
