<?xml version="1.0" encoding="utf-8"?>
<!-- Generator: Adobe Illustrator 19.0.0, SVG Export Plug-In . SVG Version: 6.00 Build 0)  -->
<svg version="1.1" id="Layer_1" xmlns="http://www.w3.org/2000/svg" xmlns:xlink="http://www.w3.org/1999/xlink" x="0px" y="0px"
	 viewBox="446.4 349.3 431.2 144" style="enable-background:new 446.4 349.3 431.2 144;" xml:space="preserve">
<style type="text/css">
	.st0{fill:#000308;}
	.st1{fill:#9FFF00;}
	.st2{fill:#FFFF04;}
	.st3{fill:#0199DF;}
</style>
<path class="st0" d="M447.5,349.3c5.5-0.1,11.1-0.1,16.6,0c0.3,8.2,0.2,16.4,0.2,24.7c0.2,3-2,5.3-3.4,7.8
	c-8.1,12.6-7.4,29.9,1.3,42c2,2.3,2.2,5.4,2.1,8.3c-5.6,0.2-11.3,0.2-16.9,0C447.4,404.4,447.3,376.9,447.5,349.3z"/>
<path class="st0" d="M615.2,349.3c5.5,0,11,0,16.5,0c0.9,17.2,0.6,34.4,0.7,51.6c-0.2,10.4,0.3,20.8-0.7,31.1
	c-5.6,0.2-11.1,0.2-16.7,0c-0.4-18-0.1-36.1-0.2-54.1C614.9,368.4,614.4,358.8,615.2,349.3z"/>
<path class="st0" d="M471.8,376.7c7.9-6.6,19.5-8.5,29.1-4.6c2.4,0.7,2.8,3.4,3.7,5.4c3.3,9.6,6.9,19.1,9.8,28.8
	c-12.4,0.3-24.7,0-37.1,0.2c1.5,4.4,2.9,9.3,7,12.2c3.5,2.8,8.9,2.8,12.2-0.2c2.1-1.6,3.5-4.5,6.5-4.6c5-0.5,10.1,0.2,15.1,0.4
	c-3.2,6.1-7.1,12.1-13.4,15.4c-8.4,5-19.3,5.2-27.9,0.6c-5.7-3.1-10.5-8-13.3-13.9C457,403.3,460.2,385.8,471.8,376.7 M477.9,394.4
	c8,1.3,16.3,1.3,24.3,0c-1-3.5-2.6-7-5.6-9.2c-2.5-2.5-6.2-2.3-9.4-1.9C482.2,384.7,479.8,390,477.9,394.4z"/>
<path class="st0" d="M579,371.9c9.8-3.8,21.2-1.5,29.2,5.2c0.2,9.7,0.1,19.5,0,29.2c-10.7,0.2-21.4,0-32,0.1
	c1.3,4.1,2.5,8.5,5.9,11.4c2.8,2.8,7.3,3.7,11,2.1c2.6-1.2,4.4-3.7,6.5-5.5c2.8-0.5,5.7-0.2,8.6-0.3c-0.2,4.1,0.9,8.5-0.5,12.4
	c-7.6,7.2-19.5,8.9-29.1,5c-8.7-3.5-15.4-11.2-18.1-20.2C555.1,396.1,563.7,377.4,579,371.9 M585.5,383.5c-4.7,1.7-6.8,6.6-8.6,10.8
	c8,1.3,16.3,1.3,24.4,0c-1.2-3.4-2.7-6.9-5.6-9.1C592.9,382.7,588.9,382.8,585.5,383.5z"/>
<path class="st0" d="M509,371.8c6.1-0.2,12.1-0.2,18.2-0.1c4.4,13.3,8.4,26.7,12.6,40c3.8-13.4,8.1-26.6,12.3-39.9
	c5.1-0.1,10.2-0.1,15.3,0.1c-6.1,6.1-11.4,13.6-12.8,22.3c-0.6,6.6,0,13.1,0.3,19.7c-1.2,6.2-4.2,11.9-6.2,17.9
	c-5.7,0.5-11.6,1-17.3,0c-2-1.7-2.3-4.7-3.3-7C521.8,407,514.9,389.6,509,371.8z"/>
<path class="st0" d="M447.7,445.1c143.2,0,286.4,0,429.6,0c0,1.6,0.1,3.2,0.1,4.8c-104.5,0.3-209,0.1-313.4,0.1
	c-38.8-0.1-77.6,0.1-116.4-0.1C447.6,448.4,447.6,446.7,447.7,445.1z"/>
<path class="st0" d="M454.4,465.3c5-2.8,11-1.3,15.5,1.7c0,0.7-0.1,2.2-0.1,2.9c-4.4-2.1-9.8-4.4-14.5-1.6c-6.4,3.3-8,13-2.6,17.9
	c3.6,4,9.5,3.9,14.1,1.8c0-2.2,0-4.5,0-6.7c-2.3-0.1-4.5-0.3-6.7-0.5c0.1-0.6,0.2-1.9,0.3-2.6c3.1-0.1,6.3-0.1,9.4,0
	c0.1,3.7,0.9,7.6-0.3,11.2c-6.1,5.3-16.5,3.6-20.8-3.3C443.9,479.3,446.8,468.8,454.4,465.3z"/>
<path class="st0" d="M496.4,480.3c3.6-5.7,7-11.6,10.9-17.1c4.9,4.8,7.9,11.1,11.9,16.5c2.7,4,5.7,7.8,7.5,12.4
	c-12.2,0.6-24.5,0.4-36.8,0.1C491.1,487.7,494,484.1,496.4,480.3 M507.5,468.5c-4.3,6.9-8.8,13.6-12.8,20.7c8.9,0.1,17.8,0.2,26.7,0
	C517.1,482.1,512.5,475.1,507.5,468.5z"/>
<path class="st0" d="M541,463.4c1.4,0.7,2.8,1.5,3.5,3.1c3.6,6.9,6.8,13.9,10.5,20.8c4-7.6,7.7-15.3,11.6-22.9
	c0.7-0.1,1.9-0.3,2.6-0.4c0.4,7.7,0.2,15.3,0.2,23c0,2.3,0.3,5.4-2.6,6.1c-1-6.6-0.2-13.3-0.8-19.9c-4.1,6.5-6.6,13.9-11,20.1
	c-4.5-6.3-7-13.7-11-20.1c-0.6,6.6,0.3,13.3-0.8,19.9c-3.2-1-2.4-4.6-2.6-7.1C540.8,478.4,540.3,470.9,541,463.4z"/>
<path class="st0" d="M594.5,464.4c0.7-0.2,2-0.4,2.7-0.6c0.5,9.5,0.3,19.1,0.1,28.6c-0.7-0.1-2.1-0.3-2.8-0.4
	C594.4,482.8,594.4,473.6,594.5,464.4z"/>
<path class="st0" d="M623,463.3c1.5,1,3,2,4.2,3.5c5.1,6.3,9.6,13,15.2,18.9c0.3-7.1,0.1-14.2,0.3-21.3c0.7-0.1,2-0.5,2.7-0.6
	c0.4,9.7,0.6,19.5,0,29.1c-3.7-1.6-5.7-5.2-8-8.2c-3.7-4.8-7.4-9.7-11.4-14.4c-0.2,7.2-0.1,14.4-0.2,21.7c-0.7,0.1-2.1,0.3-2.9,0.4
	C622.7,482.7,622.2,473,623,463.3z"/>
<path class="st0" d="M675.5,466.3c5.5-4,14.7-3.4,18.3,2.9c-4.4,0.4-8.1-3.3-12.5-2.1c-8.3,1.2-12,12.7-6.1,18.6
	c3.5,4.4,9.9,4.4,14.6,2.2c0-2.2,0-4.4,0.1-6.6c-2.8-0.3-6.3,0.4-7.8-2.6c3.5-0.7,7.1-0.7,10.6-0.5c0,4.2,2.4,10.7-2.7,12.8
	c-6.4,3.5-15.1,1-18.8-5.4C667.4,479.4,669.2,470.4,675.5,466.3z"/>
<path class="st0" d="M727.6,477.9c-0.1-7.9,7.5-14.8,15.3-14c3.6,0.4,8.3,1.8,8.6,6c-3.7-1.1-7.3-3.5-11.4-2.8
	c-6.3,0.7-10.9,7.6-9.3,13.7c1.2,5.3,6.6,9.3,12,8.6c3-0.5,5.6-2,8.5-2.8c-0.5,4.5-5.7,5.8-9.5,5.9
	C734.2,492.8,727.2,485.6,727.6,477.9z"/>
<path class="st0" d="M774.9,463.1c0.6,0.5,1.7,1.5,2.3,2c0.5,8.1,0,16.2,0.2,24.3c5.2,0,10.4-0.1,15.5,0.2c-0.1,0.7-0.4,2-0.5,2.7
	c-6,0.1-12,0.2-18,0C774.5,482.6,773.8,472.8,774.9,463.1z"/>
<path class="st0" d="M816.8,465.1c0.6-0.5,1.7-1.5,2.3-2c1.2,6.5,0.2,13.2,0.7,19.8c0.2,3.3,2.9,6.4,6.2,6.5
	c3.4,0.4,7.1-2.2,7.5-5.7c0.6-6.2-0.2-12.4,0.4-18.5c0.6-0.5,1.7-1.5,2.2-2c1,6.5,0.5,13.1,0.5,19.7c0.1,5.1-4.6,9.7-9.7,9.7
	c-5.3,0.4-10.3-4.3-10.3-9.6C816.6,477,816.5,471.1,816.8,465.1z"/>
<path class="st0" d="M860.7,463.7c4.2,0.2,9.7-1,12.6,2.9c2.3,2.6,1.3,6.3,0.4,9.2c3.4,3.3,5.6,8.8,2.3,13
	c-3.5,5.1-10.3,3.4-15.5,3.5C860.4,482.8,860.1,473.3,860.7,463.7 M863.4,466.9c0,2.8,0,5.5,0,8.3c3.2,0.2,8.2,0.1,8.2-4.3
	C871.7,466.6,866.5,467,863.4,466.9 M863.5,478.2c0,3.8,0,7.5,0,11.3c2.6-0.1,5.2,0.2,7.8-0.6c3.5-1.3,4.5-6.4,1.8-9
	C870.4,477.6,866.6,478.5,863.5,478.2z"/>
<g id="_x23_9fff00ff">
	<path class="st1" d="M669.4,350.6c6.7-1,13.6-0.5,20,2c12.5,4.8,22.2,16.2,24.9,29.3c2.7,11.5,0.1,24-6.7,33.6
		c-5.8,8.3-14.8,14.3-24.8,16.1c-11,2.2-22.8-0.9-31.4-8c-14.5-11.5-19.3-33-11.5-49.7C645.1,361.9,656.5,352.6,669.4,350.6
		 M674.4,375.1c-8.2,0.5-14.7,8.6-14,16.7c0,8.6,8,16.2,16.7,15.3c9.1-0.7,15.9-10.4,13.9-19.2C689.7,380.4,682.2,374.2,674.4,375.1
		z"/>
</g>
<g id="_x23_ffff04ff">
	<path class="st2" d="M712.6,349.8c15.3,0.2,31.5,1.6,44.9,9.6c4.5,2.8,8.6,6.4,10.9,11.2c-0.2-6.7,0-13.3,0-20
		c7.7,0,15.4-0.1,23.1,0c-5.5,5.8-10.8,11.6-16.5,17.1c4.3-0.1,8.6,0.3,12.9,0.4c0,16.3,0,32.7,0,49c-3.4,0-6.7,0.1-10,0.1
		c0,4.8,0,9.6,0,14.4c-2.8,0-5.6,0-8.4,0c-0.2-11-1.8-22.6-8.5-31.6c-3.7-5.2-9.4-8.8-15.6-10.3c-0.2,14.1,0,28.1-0.1,42.2
		c-8.1,0.3-16.3,0.1-24.4,0.1c-0.1-19.2-0.1-38.4-0.1-57.6c-2.7,0.1-5.4,0-8.1,0.1C712.6,366.2,712.5,358,712.6,349.8z"/>
</g>
<g id="_x23_0199dfff">
	<path class="st3" d="M812.3,350.6c21.7,0,43.4,0.1,65.1,0.1c0.1,8,0.1,15.9,0,23.9c-16,0.1-32.1,0-48.1,0c0,2.3,0,4.7-0.1,7
		c11.8,0,23.5,0,35.3,0.1c0.1,6.2,0,12.4,0,18.6c-11.8,0.1-23.5,0.1-35.2,0.1c0,2,0,4.1,0,6.1c16,0,31.9,0,47.9,0.1
		c0.1,8.4,0.2,16.7,0,25c-17.6,0.5-35.2,0.7-52.8,0c0-4.8,0-9.6,0-14.4c-4,0-8-0.1-12-0.1C812.3,394.9,812.3,372.8,812.3,350.6z"/>
</g>
</svg>
