<?xml version="1.0" encoding="utf-8"?>
<!-- Generator: Adobe Illustrator 19.0.0, SVG Export Plug-In . SVG Version: 6.00 Build 0)  -->
<svg version="1.1" id="Layer_1" xmlns="http://www.w3.org/2000/svg" xmlns:xlink="http://www.w3.org/1999/xlink" x="0px" y="0px"
	 viewBox="112.03 155.015 659.47 529.644" style="enable-background:new 112.03 155.015 659.47 529.644;" xml:space="preserve">
<style type="text/css">
	.st0{fill:#FFFFFF;}
	.st1{fill:#212121;}
	.st2{fill:#F7AE00;}
	.st3{fill:#7D5800;}
	.st4{fill:#D6D6D6;}
</style>
<path class="st0" d="M451.2,183.86c22.92-8.47,48.85-8.57,71.96-0.78c-5.88,3.71-12.36,6.24-19.04,8.07
	C486.29,194.81,467.51,191.73,451.2,183.86z"/>
<path class="st0" d="M273.87,208.86c13.89-8.11,30.14-11.76,46.14-11.71c33.9-0.96,66.79,8.68,100.1,13.36
	c2.18,0.17,4.35,0.33,6.54,0.47c-16.16,1.9-32.5,0.27-48.59-1.63c-13.5-1.64-27.02-3.11-40.56-4.32c-9.8-0.75-19.66-1.56-29.47-0.7
	c-7.07,0.63-13.72,3.37-19.91,6.72c-6.62,3.64-13.64,6.71-19.57,11.47c-10.16,8.53-17,20.12-23.35,31.58
	c-2.52,4.88-5.36,9.62-7.42,14.72c-0.1-1.28,0.06-2.52,0.48-3.71c0.22-7,2.22-13.79,4.52-20.37
	C248.57,229.63,259.76,216.78,273.87,208.86z"/>
<path class="st0" d="M547.19,211.15c35.05-3.78,69.32-14.84,104.83-14.01c19.23-0.33,38.93,4.7,54.57,16.17
	c17.64,12.61,28.29,33.71,29.22,55.25c-4.48-9.14-9.26-18.14-14.63-26.78c-5.56-8.84-12.23-17.32-21.23-22.85
	c-6.54-3.99-13.46-7.28-20.28-10.73c-9.5-4.64-20.32-4.46-30.62-4.08c-24.78,1.4-49.36,5.06-74.06,7.36
	C565.73,211.65,556.42,212.21,547.19,211.15z"/>
<path class="st0" d="M638.18,372.92c11.53-3.45,22.98-7.22,34.61-10.34c2.11-0.13,4.24-0.13,6.37-0.01
	c1.57,0.52,3.16,0.96,4.76,1.41c5.72,2.21,9.91,7.26,11.94,12.94c0.48,1.93,0.89,3.88,1.44,5.81c0.27,24.48,0.25,48.98,0.01,73.46
	c-0.53,1.84-1,3.7-1.51,5.56c-2.71,7.55-8.37,14-15.62,17.48c-3,1.02-6.05,1.84-9.05,2.82c-3.37,0.87-6.68,1.92-10.01,2.95
	c-7.67,2.16-15.28,4.55-22.93,6.79C638.16,452.17,638.18,412.54,638.18,372.92 M659.65,388.53c0.12,24.76,0.04,49.53,0.04,74.29
	c3.78-0.83,7.5-1.97,11.19-3.15c1.62-0.38,3.2-0.87,4.8-1.39c-0.12-21.11,0.09-42.22-0.11-63.32c0.21-3.35-1.33-7.07-4.55-8.41
	C667.14,385.52,663.13,386.79,659.65,388.53 M678.71,422.81c-0.29,12.45,0.45,24.93-0.38,37.35c-5.23,2.09-10.7,3.47-16.07,5.12
	c-1.73,0.75-3.44-0.03-5.04-0.67c-0.25-11.98,0.02-23.95-0.13-35.93c-5.37,1.47-10.62,3.41-16.14,4.27
	c-0.12,18.35-0.03,36.71-0.04,55.07c11.32-3.45,22.7-6.74,34.08-10.04c11.31-3.02,19.78-14.4,19.52-26.08
	c-0.03-11.2,0.07-22.41-0.05-33.62C689.16,419.62,683.87,421.04,678.71,422.81z"/>
<path class="st0" d="M609.87,381.76c6.59-1.76,13.09-3.85,19.66-5.67c0.03,7.38,0.02,14.77,0.01,22.16
	c-8.79,2.67-17.65,5.13-26.39,7.96c-0.67,0.1-2.02,0.3-2.7,0.4c-0.35,9.92-0.81,19.82-0.6,29.77c2.4-0.24,4.71-0.96,6.99-1.73
	c1.02-0.29,2.04-0.6,3.06-0.91c2.32-0.62,4.64-1.27,6.92-2.04c1.56-0.41,3.1-0.89,4.64-1.39c0.15,7.57,0.2,15.15-0.03,22.72
	c-1.18,0.2-2.35,0.42-3.51,0.66c-3.55,1.3-7.26,2.11-10.82,3.35c-2.4,0.67-4.79,1.34-7.22,1.84c-0.11,2.24-0.06,4.49,0.43,6.69
	c0.16,3.49-0.24,7.16,1.45,10.37c1.42,1.72,3.68,2.29,5.27,3.77c0.96-1.72,3.33-1.11,4.93-1.83c5.85-1.77,11.71-3.5,17.58-5.24
	c0.01,7.46,0.04,14.92-0.02,22.39c-6.84,1.91-13.63,4.01-20.43,6.06c-6.5,2.11-14.19,2.44-20.12-1.39
	c-3.71-2.26-6.39-5.83-8.24-9.69c-0.87-2.3-1.32-4.71-1.97-7.06c-0.37-24.41-0.23-48.84-0.07-73.25
	c1.74-10.31,8.39-19.9,18.13-24.08c1-0.3,2.01-0.61,3.03-0.91c1.02-0.29,2.04-0.6,3.06-0.92
	C605.24,383.15,607.58,382.54,609.87,381.76 M581.7,450.06c-0.36,9.61-0.07,19.23-0.16,28.84c-0.15,7.06,2.8,14.58,9,18.38
	c4.58,2.85,10.35,3.25,15.45,1.67c7.01-2.05,14.03-4.09,20.97-6.41c0.24-5.35,0.11-10.7,0.1-16.05c-6.18,1.37-12.08,3.81-18.28,5.04
	c-5.31,1.21-10.17-3.34-10.96-8.38c-0.71-4.64-0.58-9.39-0.32-14.06c-0.05-1.92,1.9-2.78,3.45-3.24c5.96-1.85,11.99-3.47,17.94-5.36
	c0.21-3.63,0.18-7.26,0.11-10.89C606.5,442.86,594.2,446.82,581.7,450.06z"/>
<path class="st0" d="M529.94,405.86c14.66-4.21,29.17-8.92,43.86-12.99c-0.02,7.71,0.23,15.44-0.13,23.14
	c-4.86,1.01-9.49,2.84-14.29,4.04c-0.02,32.04,0,64.07,0,96.11c-7.43,2.12-14.78,4.48-22.21,6.6c-0.1-28.64-0.01-57.28-0.05-85.91
	c-0.24-3.28-0.53-6.55-0.41-9.84c-3.57,0.92-7.11,1.96-10.61,3.09c-1.21,0.31-2.58,0.4-3.29,1.57c-0.28-0.36-0.83-1.08-1.11-1.44
	c0.15-7.14-0.13-14.28,0.12-21.4c1.07-1.62,3.39-1.41,5.02-2.13C527.88,406.43,528.91,406.16,529.94,405.86 M539.86,461.89
	c-0.12,19.02-0.05,38.04-0.04,57.07c5.52-1.67,11.05-3.31,16.56-5.02c0.09-18.88,0.1-37.76,0-56.64
	C550.81,458.61,545.35,460.31,539.86,461.89z"/>
<path class="st0" d="M487.8,417.53c5.04-1.3,9.95-3.75,15.29-3.27c5.26,0.04,9.89,3.88,11.97,8.55c2.3,4.86,1.46,10.38,1.67,15.58
	c-7.12,2.26-14.31,4.32-21.46,6.48c-0.06-2.49-0.1-4.96-0.12-7.44c-4.28,1.05-8.95,2.15-11.76,5.87c-3.83,3.94-4.29,9.64-4.02,14.84
	c0.02,0.63,0.05,1.87,0.06,2.5c0,2.56-0.06,5.12-0.02,7.7c9.21-2.84,18.45-5.62,27.71-8.28c3.16-1.02,6.36-1.93,9.56-2.84
	c0.03,12.56,0.01,25.12,0.01,37.68c0.2,14.33-7.2,28.44-18.79,36.79c-6.12,4.53-13.79,5.87-20.9,8.09
	c-6.81,2.1-15.11-1.17-17.83-7.94c-0.5-1.61-0.96-3.22-1.46-4.81c-0.16-3.54-0.09-7.08-0.16-10.62c7.26-2.2,14.44-4.78,21.87-6.31
	c-0.01,2.37-0.01,4.77-0.01,7.16c4.57-1.17,9.65-2.52,12.3-6.83c5.42-7.01,2.85-16.32,3.53-24.46
	c-12.63,3.37-24.96,7.85-37.65,10.92c0.12-14.7-0.34-29.42,0.18-44.1c0.51-1.92,0.85-3.87,1.38-5.77c0.49-1.44,1-2.87,1.49-4.3
	C465.64,431.11,475.28,420.79,487.8,417.53 M487.04,476.9c-8.9,2.63-17.93,4.79-26.75,7.63c-0.73,2.8-0.21,5.78-0.28,8.65
	c11.29-2.83,22.3-6.69,33.53-9.75c1.49-0.35,4.17-0.58,4.17,1.63c0.38,5.63,0.13,11.3,0.13,16.94
	c-0.34,10.32-10.34,18.8-20.57,17.72c-0.52-1.92-0.9-3.89-1.17-5.86c-5.16,1.38-10.2,3.18-15.4,4.4c-0.25,5.3-0.89,11.55,3.25,15.65
	c3.64,4.02,9.72,4.04,14.54,2.46c5.17-1.73,10.67-2.73,15.42-5.55c10.71-6.34,17.83-17.97,19.54-30.21
	c1.31-10.32,0.4-20.77,0.63-31.14C504.96,471.57,496.08,474.52,487.04,476.9z"/>
<path class="st0" d="M445.87,430.67c1.23-0.23,2.46-0.44,3.7-0.64c-0.1,39.66,0.16,79.33-0.13,118.98
	c-2.19,0.52-4.35,1.12-6.52,1.72c-2.55,0.92-5.23,1.42-7.78,2.35c-1.03,0.29-2.07,0.6-3.09,0.92c-1.3,0.3-2.72,0.47-3.37,1.82
	c-0.86-3.25-0.51-6.63-0.55-9.94c0-29,0-58,0-87c0.14-7.73-0.29-15.47,0.24-23.19c2.56-0.43,5.1-1.05,7.51-2.07
	c0.56-0.11,1.68-0.33,2.24-0.45C440.62,432.08,443.38,431.78,445.87,430.67 M430.76,492.9c-0.05,19.5-0.05,38.99,0,58.49
	c5.21-1.48,10.4-3.05,15.6-4.58c0.31-19.46,0.13-38.94,0.09-58.41C441.19,489.8,435.95,491.26,430.76,492.9z"/>
<path class="st0" d="M396.42,445.46c7.49-2.15,14.87-4.71,22.44-6.55c-0.03,39.7,0.2,79.41-0.12,119.1
	c-7.74,1.81-15.27,4.43-22.94,6.52c-7.86,2.2-17.05-1.6-20.74-8.96c-3.65,8-8.57,16.65-17.14,20.09c-1.29,0.46-2.58,0.94-3.85,1.44
	c-0.56,0.11-1.68,0.33-2.23,0.44c-2.5,1.06-5.18,1.56-7.73,2.47c-3.83,1.02-7.56,2.36-11.4,3.36c-0.03-39.64,0.05-79.28-0.04-118.92
	c7.38-2.22,14.7-4.73,22.21-6.43c0.06,14.28-0.07,28.56,0.05,42.83c1.19,11.01-0.33,22.03-0.04,33.05c0.03,6.1-0.08,12.2,0.07,18.3
	l0.55-1.86c2.05,0.62,3.14-1.37,4.41-2.54c2.62-2.77,3.98-6.39,5.31-9.89c0.85-27.72,0.13-55.49,0.37-83.23
	c6.66-1.92,13.24-4.11,19.96-5.83c0.05,25.68,0.02,51.35,0.01,77.02c-0.06,1.34,0.14,2.64,0.6,3.91c0.19,1.04,0.36,2.1,0.52,3.16
	c1.97,3.63,5.41,6.45,9.73,6.45C396.44,508.08,396.44,476.77,396.42,445.46 M398.97,501.87c-0.07,12.63,0.11,25.27-0.06,37.89
	c0.07,2.61-3.11,2.17-4.84,2.07c-6.06-0.31-10.13-6.37-10.82-11.93c-0.51-7.81-0.05-15.64-0.24-23.45c-4.83,0.85-9.44,2.6-14.2,3.75
	c-0.43,7.56,0,15.14-0.21,22.7c-0.11,5.46-2.05,10.88-5.33,15.23c-2.52,2.94-5.7,6.37-9.98,5.69c-1.52-3.43-1-7.23-1.05-10.86
	c0-9.25,0.03-18.49-0.01-27.73c-5.59,1.31-11.08,2.96-16.58,4.6c-0.05,19.88-0.1,39.76,0.03,59.64c6.72-1.83,13.4-3.85,20.04-5.98
	c8.35-2.79,12.81-11.07,16.47-18.47c0.83-2.49,4.83-2.55,5.8-0.13c3.28,5.75,10.59,8.49,16.91,6.82c7.11-1.82,14.06-4.26,21.22-5.88
	c0.16-19.52,0.07-39.05,0.05-58.58C410.35,498.45,404.67,500.21,398.97,501.87z"/>
<path class="st0" d="M287.93,476.84c12.56-3.55,24.95-7.71,37.56-11.06c0.08,7.6-0.01,15.2,0.05,22.81
	c-4.95,1.62-9.99,2.95-14.92,4.63c0.14,31.97,0.03,63.95,0.06,95.93c-7.46,2.1-14.82,4.55-22.3,6.56c-0.04-31.87-0.06-63.75,0-95.63
	c-5.19,0.74-9.96,3.22-15.19,3.79c0.13-7.71-0.36-15.45,0.27-23.14c1.51-0.2,3.04-0.38,4.46-0.94c2.31-0.66,4.64-1.29,6.93-2.04
	C285.88,477.45,286.9,477.15,287.93,476.84 M290.95,531.96c-0.18,20.01-0.02,40.02-0.08,60.03c5.71-1.71,11.44-3.35,17.1-5.21
	c0.13-19.74,0.04-39.47,0.05-59.2C302.31,528.95,296.77,531.02,290.95,531.96z"/>
<g id="_x23_212121ff">
	<path class="st1" d="M414.87,166.75c18.76-5.07,37.63-10.63,57.16-11.56c28.32-0.92,57.02,1.66,84.04,10.61
		c1.01,0.32,14.56,4.79,15.82,5.27c9.8,2.86,20.18,1.23,30.22,1c12.31-1.41,24.68-2.62,37.1-2.93c3.54-0.88,7.23-0.43,10.84-0.53
		c3.25,0.09,6.56-0.29,9.75,0.52c3.99,0.42,8.11-0.12,12.03,1c4.06,0.3,8.1,0.98,12.08,1.85c19.41,3.8,37.89,13.08,51.85,27.18
		c15.23,15.33,25.13,35.25,31.16,55.83c0.37,1.31,2.49,10.62,2.88,14.01c0.82,2.26,1.52,17.59,1.7,22.84
		c-0.24,3.63-0.76,16.38-1.74,18.93c-0.2,2.02-1.52,9.35-1.96,10.99c-0.75,3.72-1.81,7.36-2.91,11c-3.55,11.77-8.5,23.1-14.18,34
		c-1.44,2.78-2.96,5.52-4.5,8.25c-8.99,15.9-20.09,30.47-31.59,44.61c-0.7,22.78-0.1,45.72-0.3,68.56
		c-13.76,4.31-27.56,8.5-41.37,12.66c-1.03,0.31-2.05,0.61-3.07,0.91c-2.56,0.88-5.24,1.41-7.75,2.44c-0.55,0.12-1.65,0.36-2.2,0.48
		c-1.03,0.34-2.06,0.67-3.09,0.98c-2.56,0.87-5.19,1.49-7.75,2.36c-21.77,6.45-43.41,13.32-65.19,19.76
		c-1.02,0.31-2.04,0.6-3.06,0.89c-2.43,0.84-4.89,1.61-7.43,2.01c-0.05,0.39-0.16,1.16-0.22,1.54c24.41,2.66,48.57,7.9,71.91,15.55
		c2.69,0.96,5.36,1.98,8.07,2.86c1.61,0.73,3.27,1.37,4.96,1.94c2.27,1.12,4.63,2.03,6.97,3.02c13.58,6.31,26.65,14.27,37.06,25.16
		c8.09,8.36,14.28,18.77,16.79,30.2c0.5,1.64,0.67,3.36,0.89,5.07c1.03,6.15,1.04,12.62,0,18.77c-0.23,1.69-0.39,3.41-0.87,5.07
		c-3.36,15.29-14.94,27.69-28.89,34.23c-2.05,0.88-4.06,1.83-6.15,2.61c-20.91,7.94-43.77,8.97-65.87,7.27
		c-54.69-0.07-109.4-0.01-164.1-0.03c-19.66-0.12-39.33,0.29-58.99-0.3c-38.98-0.2-77.97-0.43-116.95-0.65
		c-8.42-0.01-15.92-5.74-19.88-12.89c-5.05-9.16-5.85-19.97-5.28-30.22c0.27-6.03,1.69-11.96,1.72-18
		c-0.02-24.83-0.01-49.65-0.01-74.47c-23.76-3.61-47.92-1.22-71.66,1.35c-2.27,0.69-38.96,6.74-40.91,7.19
		c-10.07,1.93-19.99,4.54-29.97,6.89c18.23-23.04,41.78-41.78,68.14-54.7c3.58-1.8,7.21-3.52,10.95-4.93
		c1.61-0.81,3.28-1.49,4.99-2.06c18.69-7.34,38.4-12.39,58.46-13.93c-0.01-5.62,0.01-11.24-0.02-16.85
		c10.17-3.16,20.33-6.38,30.54-9.38c0.55-0.21,1.64-0.63,2.18-0.84c-26.88-32.06-50.66-67.34-66.07-106.41
		c-0.49-1.24-0.97-2.49-1.47-3.72c-0.49-1.44-0.99-2.88-1.46-4.31c-1.3-3.52-2.28-7.13-3.42-10.69
		c-6.84-23.95-9.69-49.61-3.91-74.09c1.16-5.03,2.66-9.98,4.34-14.86c0.92-2.71,1.76-5.45,2.96-8.05
		c8.11-21.29,21.72-41.69,42.05-52.93c14.74-8.5,31.97-11.22,48.75-11.54c12.82-0.07,25.57,1.42,38.36,2.09
		c15.63,1.9,31.35-0.48,46.65-3.64C395.39,171.63,413.57,167.14,414.87,166.75 M425.18,182.35c-0.78,1.57,1.09,1.79,2.11,2.36
		c10.32,4.37,19.88,10.37,28.73,17.22c-7.15-1.17-14.44-0.44-21.62-1.4c-16.61-1-33.17-2.82-49.68-4.95
		c-8.9-1.05-17.72-2.88-26.69-3.38c-19.27-1.89-38.88-4.91-58.11-0.92c-18.88,3.4-37.17,12.07-50.39,26.17
		c-14.1,15.24-21,35.95-22.37,56.4c-0.08,12.91-0.77,26.01,2.32,38.67c1.94,10.06,4.96,19.87,8.27,29.55
		c0.48,1.24,0.95,2.49,1.46,3.73c0.5,1.39,1.01,2.79,1.51,4.19c0.95,1.87,1.54,3.91,2.51,5.78c0.89,2.36,1.95,4.65,3.03,6.94
		c13.41,28.78,30.93,55.48,50.26,80.61c2.81,3.74,6,7.2,8.52,11.16c3.53,0.21,6.69-1.65,10.06-2.37c5.62-1.79,11.28-3.5,16.93-5.23
		c-3.07-4.6-6.83-8.67-10.14-13.09c-9.34-12.1-18.41-24.43-26.7-37.28c-1.7-2.56-3.49-5.05-4.93-7.76
		c-6.93-11.01-13.46-22.32-18.98-34.11c-1.64-3.15-2.99-6.44-4.51-9.64c-0.81-2.08-1.79-4.09-2.49-6.21
		c-3.6-8.57-6.2-17.52-8.7-26.47l-0.66,0.06l0.99-0.11c-2.21-8.28-3.12-16.83-3.61-25.36c-0.14-13.31,2.64-27.7,12.33-37.49
		c9.23-9.27,22.69-12.33,35.34-12.86c19.72-0.44,38.65,5.82,57.38,11.16c22.9,7.23,43.32,21.8,58.06,40.72
		c4.98,6.64,12.33,11.14,20.03,13.93c-0.79,3.12-0.92,6.34-0.97,9.55l1.35,0.53l-0.53-0.03c0.01,3.22,0.07,6.43,0.33,9.64
		c0.95,2.43,1.85,4.92,2.02,7.55c-2.88-0.96-4.99-3.15-7.22-5.09c-5.09-3.48-11.56-2.39-17.37-2.49
		c-5.61-0.05-10.07,3.61-14.42,6.62c-4.02,6.07-1.59,13.62-3.25,20.32c-0.15,8.79-0.39,17.59-0.5,26.39
		c-8.03-4.53-15.94-9.44-22.96-15.43c-10.61-8.08-18.59-18.99-25.78-30.09c-3.2-6.37-7.14-12.57-8.46-19.68
		c-0.44-0.38-1.32-1.14-1.76-1.52c-2.17,2.17-1.12,5.58-1.11,8.33c1.45,5.03,0.12,10.34,1.48,15.38
		c2.58,24.52,10.12,48.34,20.55,70.62c2.03,5.7,5.63,10.61,8.18,16.06c1.79,3.3,3.97,6.4,6.44,9.23c-0.63,0.29-1.18,0.24-1.66-0.15
		c-5.39-5.94-11.23-11.48-16.91-17.16c-14.51-16.27-26.91-34.47-36.9-53.86c-0.7-1.32-1.85-1.87-3.44-1.68
		c1.21,12.57,2.22,25.24,5.54,37.52c4.17,18.18,10.82,35.69,18.12,52.81c1.62,0.12,3.17-0.47,4.7-0.91
		c32.45-10.1,65.04-19.66,97.43-29.97c0.3-3.93-0.91-7.7-1.62-11.5c-1.07-8.82-2.59-17.59-2.35-26.51
		c-0.86-7.67,0.24-15.34,0.09-23.02c1.15-7.92,1.9-15.98,4.62-23.57c0.11,1.23,0.32,2.45,0.62,3.66
		c4.34,12.18,9.91,24.07,17.73,34.44c3.51,4.56,7.33,9.14,12.36,12.07c0.11-12.06-1.91-24.09-1.59-36.17
		c13.76,5.23,29.01,4.23,43.03,0.68c0.35,5.34-0.66,10.62-0.69,15.95c-0.17,3.28,0.03,6.62-0.76,9.84
		c-0.49,3.59-0.63,7.22-0.68,10.84c10.49-6.33,18.47-15.99,24.33-26.59c0.01-0.29,0.04-0.86,0.05-1.15
		c3.93-7.35-0.158-1.965,7.49-23.9c0.8-5.76,1.22-11.57,1.55-17.37c0.3-3.48,0.1-6.97-0.27-10.43c5.2-2.91,10.23-6.39,13.79-11.25
		c15.25-20.77,38.78-33.38,62.38-42.4c18.4-6.83,37.79-12.17,57.56-11.92c12.85,0.61,26.67,3.86,35.67,13.71
		c8.9,9.15,11.13,22.4,11.76,34.64c-0.32,9.3-2.01,18.45-3.33,27.63h-0.34c-0.28,1.11-0.55,2.23-0.85,3.34
		c-0.34,1.3-0.69,2.6-1.04,3.9c-1.07,5.08-3.91,9.79-3.7,15.1c0.07,19.57-0.11,39.15,0.1,58.73c1.09-0.72,1.92-1.75,2.47-2.93
		c2.02-3.97,4.2-7.87,6-11.94c1.39-2.45,2.29-5.12,3.58-7.61c0.9-2.37,1.95-4.67,2.95-7c6.73-16.57,11.92-33.83,14.42-51.56
		c0.98-4.84,1.34-9.78,1.85-14.68c-0.07-11.01,0.83-22.13-1.04-33.05c-2.32-17.81-9.81-35.12-22.2-48.25
		c-13.08-13.47-30.78-21.89-49.15-25.22c-10.59-2.26-21.44-2.21-32.2-1.83c-7.68,0.82-15.34,1.64-23.04,2.2
		c-25.06,3.96-50.27,7.21-75.6,8.77c-7.16,0.94-14.41,0.31-21.55,1.36c8.9-7.38,19.1-13.01,29.56-17.84
		c-15.56-9.99-34.12-13.84-52.28-15.59c-7.66-0.22-15.33-0.2-22.99-0.02C457.8,170.01,440.26,173.49,425.18,182.35 M640.84,309.73
		c-1.68,5.23-4.61,9.92-7.65,14.45c-9.86,14.35-23.47,25.94-38.7,34.27c-4.54,2.53-9.1,5.24-14.2,6.46
		c-0.12-4.33,0.15-8.67-0.4-12.97c-0.82-6.75-0.01-13.68-1.73-20.31c-2.58-5.8-8.78-9.99-15.22-9.55
		c-6.76-0.64-12.99,2.21-19.09,4.64c-0.74,1.61-1.75,3.31-1.29,5.17c1.96,9.19,3.29,18.57,3.32,27.99
		c0.29,7.26-0.61,14.6,0.45,21.81c17.71-5.54,35.47-10.92,53.2-16.4c13.65-3.89,27.07-8.7,40.83-12.13
		c0.74-1.33,1.48-2.68,1.87-4.17c3.37-13.07,2.23-26.66,2.42-40c0.1-1.49-0.28-2.92-0.87-4.26
		C642.31,306.07,641.41,307.85,640.84,309.73 M672.12,329.14c-6.66,8.25-15.08,14.78-23.66,20.85c9.46-2.03,18.46-5.74,27.87-7.87
		c0.57-1.35,1.05-2.74,1.11-4.21c0.34-5.42,1.58-10.79,1.08-16.24C675.73,323.54,674.32,326.7,672.12,329.14 M638.18,372.92
		c0,39.62-0.02,79.25,0.01,118.87c7.65-2.24,15.26-4.63,22.93-6.79c3.33-1.03,6.64-2.08,10.01-2.95c3-0.98,6.05-1.8,9.05-2.82
		c7.25-3.48,12.91-9.93,15.62-17.48c0.51-1.86,0.98-3.72,1.51-5.56c0.24-24.48,0.26-48.98-0.01-73.46
		c-0.55-1.93-0.96-3.88-1.44-5.81c-2.03-5.68-6.22-10.73-11.94-12.94c-1.6-0.45-3.19-0.89-4.76-1.41c-2.13-0.12-4.26-0.12-6.37,0.01
		C661.16,365.7,649.71,369.47,638.18,372.92 M609.87,381.76c-2.29,0.78-4.63,1.39-6.96,2.03c-1.02,0.32-2.04,0.63-3.06,0.92
		c-1.02,0.3-2.03,0.61-3.03,0.91c-9.74,4.18-16.39,13.77-18.13,24.08c-0.16,24.41-0.3,48.84,0.07,73.25
		c0.65,2.35,1.1,4.76,1.97,7.06c1.85,3.86,4.53,7.43,8.24,9.69c5.93,3.83,13.62,3.5,20.12,1.39c6.8-2.05,13.59-4.15,20.43-6.06
		c0.06-7.47,0.03-14.93,0.02-22.39c-5.87,1.74-11.73,3.47-17.58,5.24c-1.6,0.72-3.97,0.11-4.93,1.83c-1.59-1.48-3.85-2.05-5.27-3.77
		c-1.69-3.21-1.29-6.88-1.45-10.37c-0.49-2.2-0.54-4.45-0.43-6.69c2.43-0.5,4.82-1.17,7.22-1.84c3.56-1.24,7.27-2.05,10.82-3.35
		c1.16-0.24,2.33-0.46,3.51-0.66c0.23-7.57,0.18-15.15,0.03-22.72c-1.54,0.5-3.08,0.98-4.64,1.39c-2.28,0.77-4.6,1.42-6.92,2.04
		c-1.02,0.31-2.04,0.62-3.06,0.91c-2.28,0.77-4.59,1.49-6.99,1.73c-0.21-9.95,0.25-19.85,0.6-29.77c0.68-0.1,2.03-0.3,2.7-0.4
		c8.74-2.83,17.6-5.29,26.39-7.96c0.01-7.39,0.02-14.78-0.01-22.16C622.96,377.91,616.46,380,609.87,381.76 M529.94,405.86
		c-1.03,0.3-2.06,0.57-3.1,0.84c-1.63,0.72-3.95,0.51-5.02,2.13c-0.25,7.12,0.03,14.26-0.12,21.4c0.28,0.36,0.83,1.08,1.11,1.44
		c0.71-1.17,2.08-1.26,3.29-1.57c3.5-1.13,7.04-2.17,10.61-3.09c-0.12,3.29,0.17,6.56,0.41,9.84c0.04,28.63-0.05,57.27,0.05,85.91
		c7.43-2.12,14.78-4.48,22.21-6.6c0-32.04-0.02-64.07,0-96.11c4.8-1.2,9.43-3.03,14.29-4.04c0.36-7.7,0.11-15.43,0.13-23.14
		C559.11,396.94,544.6,401.65,529.94,405.86 M487.8,417.53c-12.52,3.26-22.16,13.58-27.16,25.19c-0.49,1.43-1,2.86-1.49,4.3
		c-0.53,1.9-0.87,3.85-1.38,5.77c-0.52,14.68-0.06,29.4-0.18,44.1c12.69-3.07,25.02-7.55,37.65-10.92
		c-0.68,8.14,1.89,17.45-3.53,24.46c-2.65,4.31-7.73,5.66-12.3,6.83c0-2.39,0-4.79,0.01-7.16c-7.43,1.53-14.61,4.11-21.87,6.31
		c0.07,3.54,0,7.08,0.16,10.62c0.5,1.59,0.96,3.2,1.46,4.81c2.72,6.77,11.02,10.04,17.83,7.94c7.11-2.22,14.78-3.56,20.9-8.09
		c11.59-8.35,18.99-22.46,18.79-36.79c0-12.56,0.02-25.12-0.01-37.68c-3.2,0.91-6.4,1.82-9.56,2.84c-9.26,2.66-18.5,5.44-27.71,8.28
		c-0.04-2.58,0.02-5.14,0.02-7.7c-0.01-0.63-0.04-1.87-0.06-2.5c-0.27-5.2,0.19-10.9,4.02-14.84c2.81-3.72,7.48-4.82,11.76-5.87
		c0.02,2.48,0.06,4.95,0.12,7.44c7.15-2.16,14.34-4.22,21.46-6.48c-0.21-5.2,0.63-10.72-1.67-15.58c-2.08-4.67-6.71-8.51-11.97-8.55
		C497.75,413.78,492.84,416.23,487.8,417.53 M445.87,430.67c-2.49,1.11-5.25,1.41-7.75,2.5c-0.56,0.12-1.68,0.34-2.24,0.45
		c-2.41,1.02-4.95,1.64-7.51,2.07c-0.53,7.72-0.1,15.46-0.24,23.19c0,29,0,58,0,87c0.04,3.31-0.31,6.69,0.55,9.94
		c0.65-1.35,2.07-1.52,3.37-1.82c1.02-0.32,2.06-0.63,3.09-0.92c2.55-0.93,5.23-1.43,7.78-2.35c2.17-0.6,4.33-1.2,6.52-1.72
		c0.29-39.65,0.03-79.32,0.13-118.98C448.33,430.23,447.1,430.44,445.87,430.67 M396.42,445.46c0.02,31.31,0.02,62.62,0,93.93
		c-4.32,0-7.76-2.82-9.73-6.45c-0.16-1.06-0.33-2.12-0.52-3.16c-0.46-1.27-0.66-2.57-0.6-3.91c0.01-25.67,0.04-51.34-0.01-77.02
		c-6.72,1.72-13.3,3.91-19.96,5.83c-0.24,27.74,0.48,55.51-0.37,83.23c-1.33,3.5-2.69,7.12-5.31,9.89
		c-1.27,1.17-2.36,3.16-4.41,2.54l-0.55,1.86c-0.15-6.1-0.04-12.2-0.07-18.3c-0.29-11.02,1.23-22.04,0.04-33.05
		c-0.12-14.27,0.01-28.55-0.05-42.83c-7.51,1.7-14.83,4.21-22.21,6.43c0.09,39.64,0.01,79.28,0.04,118.92
		c3.84-1,7.57-2.34,11.4-3.36c2.55-0.91,5.23-1.41,7.73-2.47c0.55-0.11,1.67-0.33,2.23-0.44c1.27-0.5,2.56-0.98,3.85-1.44
		c8.57-3.44,13.49-12.09,17.14-20.09c3.69,7.36,12.88,11.16,20.74,8.96c7.67-2.09,15.2-4.71,22.94-6.52
		c0.32-39.69,0.09-79.4,0.12-119.1C411.29,440.75,403.91,443.31,396.42,445.46 M287.93,476.84c-1.03,0.31-2.05,0.61-3.08,0.91
		c-2.29,0.75-4.62,1.38-6.93,2.04c-1.42,0.56-2.95,0.74-4.46,0.94c-0.63,7.69-0.14,15.43-0.27,23.14c5.23-0.57,10-3.05,15.19-3.79
		c-0.06,31.88-0.04,63.76,0,95.63c7.48-2.01,14.84-4.46,22.3-6.56c-0.03-31.98,0.08-63.96-0.06-95.93
		c4.93-1.68,9.97-3.01,14.92-4.63c-0.06-7.61,0.03-15.21-0.05-22.81C312.88,469.13,300.49,473.29,287.93,476.84 M182.18,530.27
		c-1.41,0.66-2.56,1.72-3.7,2.75c12.34-2.66,24.75-5.67,37.45-5.97c12.87-0.47,25.77,0.47,38.61-0.66
		c0.72-5.96,0.49-11.97,0.5-17.95C229.81,511.65,204.79,518.45,182.18,530.27 M537.42,536.58c-0.05,3.76-0.12,7.52-0.07,11.29
		c-0.17,1.45,0.27,3.42,2.19,3.37c2.8,0.1,5.5-1.16,8.15-2.01c0.1,3.05,0.14,6.12,0.12,9.18c-1.77,0.56-3.56,1.09-5.34,1.61
		c-1.1-1.85-3.38-0.35-5.01-0.4c-0.04,1.31-0.07,2.61-0.09,3.93c0.9,0.49,1.8,0.98,2.71,1.48c3.41-0.8,6.78-1.76,10.15-2.74
		c4.14-3.68,2.88-9.47,2.95-14.37c0.09-1.84-1.79-2.71-2.96-3.73c-2.61,0.74-5.23,1.48-7.81,2.31c-0.05-3.07-0.06-6.13-0.03-9.18
		c3.54-1.69,7.67,0.07,11.01-2.16c-0.48-1.22-0.85-2.47-1.09-3.75C547.05,531,540.71,532,537.42,536.58 M519.26,538.93
		c-0.04,1.56-0.06,3.12-0.08,4.69c1.75-0.51,3.51-1,5.28-1.47c-0.01,9.05-0.05,18.1,0.02,27.15c1.6-0.45,3.2-0.88,4.81-1.3
		c0.09-9.11-0.09-18.22,0.1-27.33c1.72-0.43,3.44-0.88,5.16-1.33c0.03-1.42,0.07-2.83,0.11-4.24
		C529.39,535.79,524.44,537.84,519.26,538.93 M500.77,543.88c-0.02,10.53-0.01,21.06,0,31.59c1.82-0.42,3.62-0.92,5.41-1.45
		c0.02-4.62-0.01-9.23,0.05-13.85c0.58-0.05,1.75-0.16,2.33-0.21c1.11,4.12,1.71,8.37,2.22,12.61c1.73-0.21,3.42-0.62,5.06-1.19
		c-0.75-4.45-2.13-8.92-1.64-13.47c3.37-4.68,1.38-10.68,1.9-16.01c-0.94-0.5-1.88-0.99-2.82-1.47
		C509.13,541.64,504.97,542.82,500.77,543.88 M481.57,551.49c0.12,8.8-0.08,17.61,0.11,26.41c0.59,0.37,1.77,1.1,2.36,1.47
		c3.42-0.33,6.58-1.86,9.99-2.29c1.27-1.5,3.17-2.93,2.84-5.14c0-8.3,0.08-16.6-0.07-24.89c-0.88-0.61-1.76-1.2-2.63-1.8
		C489.78,546.91,483.94,546.67,481.57,551.49 M464.38,553.53c0,10.42,0.02,20.85-0.01,31.28c1.64-0.3,3.28-0.59,4.93-0.86
		c0.17-4.51,0.11-9.03,0.08-13.54c2.57-0.78,5.15-1.52,7.74-2.25c1.02-1.19,2.05-2.36,3.09-3.52c0.02-3.9,0.03-7.81-0.03-11.71
		c-0.26-0.59-0.78-1.77-1.04-2.36C474.06,549.85,469.25,552.43,464.38,553.53 M569.68,551.23c-0.03,5.35,0.03,10.71-0.03,16.07
		c-10.61,2.85-21.14,5.97-31.81,8.55c-0.65,3.4-1.11,6.85-1.29,10.32l-0.29-0.06c-1.17,4.87-0.96,9.9-0.91,14.86
		c0.04,1.74,0.16,3.78,1.63,4.97c7.8,3.95,16.03,7.03,23.74,11.2c10.49,5.77,21.44,10.84,31.22,17.83
		c6.79,4.36,13.46,9.07,18.92,15.07c1.48,1.7,3.39,2.99,5.64,3.46c7.79,1.98,15.62,3.85,23.55,5.19c4.5,0.74,8.96,2.08,13.57,1.98
		c5.65,0.45,11.38,0.68,16.96-0.49c8.9-1.6,17.68-6.44,22.18-14.52c5.2-8.85,5.57-19.56,4.57-29.51
		c-1.62-12.35-9.61-22.84-19.15-30.37c-13.64-10.9-30.23-17.2-46.69-22.42C611.36,557.23,590.57,553.43,569.68,551.23
		 M446.35,561.93c-0.41,4.39-0.04,8.82-0.13,13.22c3.25,2.37,7-0.14,10.38-0.91c0.02,3.04,0.04,6.07,0.07,9.11
		c-1.71,0.52-3.42,1.01-5.16,1.38c-1.61-0.96-3.48-0.35-5.2-0.2c-0.03,1.35-0.06,2.71-0.07,4.07c0.92,0.45,1.84,0.91,2.76,1.38
		c3.35-0.82,6.7-1.69,9.99-2.75c0.85-1.08,1.72-2.14,2.6-3.19c0.02-4.4,0.04-8.8-0.04-13.19c-0.63-0.4-1.89-1.19-2.52-1.59
		c-2.54,0.73-5.11,1.3-7.73,1.65c-0.01-2.89-0.01-5.78-0.01-8.66c3.34-1.48,7.03-0.29,10.41-1.56c0.17-2.29-0.38-4.41-2.69-5.27
		C454.81,557.64,448.47,556.73,446.35,561.93 M428.71,564.3c0.12,10.42,0.01,20.85,0.05,31.28c5.01-1.16,9.98-2.51,14.89-3.99
		c0.81-1.37,0.3-3.09,0.49-4.59c-3.32,0.87-6.63,1.78-9.94,2.7c-0.02-3.1-0.01-6.2,0.03-9.29c1.77-0.44,3.55-0.89,5.33-1.32
		c-0.05-1.58-0.1-3.16-0.14-4.72c-1.67,0.71-3.42,1.17-5.21,1.43c-0.03-2.93-0.02-5.86,0.01-8.78c3.21-0.79,6.4-1.69,9.6-2.58
		c0-1.48,0.02-2.95,0.03-4.42C438.74,561.2,433.68,562.62,428.71,564.3 M487.06,589.95c-24.5,6.92-49.19,13.16-73.63,20.29
		c-3.59,6.39-6.08,13.3-9.03,20c-2.56,6.71-2.7,14.1-1.82,21.16c0.98,6.42,7.3,10.47,13.38,11.01c42.36,0.06,84.72,0.51,127.08,0.38
		c16.45-0.18,32.93,0.37,49.37-0.27c-9.02-2.81-18.47-4.17-27.23-7.8c-10.14-4.04-20.14-9.27-27.71-17.29
		c-3.13-3.07-6.22-6.18-8.98-9.58c-9.37-13.3-12.38-29.97-11.34-45.96C507,584.07,497.11,587.33,487.06,589.95 M369.61,592.49
		c-23.82,7.17-47.67,14.25-71.43,21.59c-4.01,1.22-6.46,4.91-9.72,7.31c-4.4,3.32-8.19,7.41-10.93,12.21
		c-1.77,3.74-3.02,7.92-2.2,12.09c1.29,6.22,5.13,11.86,10.28,15.54c4.76,0.51,9.57,0.04,14.36,0.21c26.03-0.05,52.07,0.54,78.1,0.3
		c-1.72-4.87-3.84-9.67-4.3-14.87c-0.75-4.52-0.13-9.1-0.56-13.64c1.6-6.77,3.33-13.54,6.04-19.97c3.05-7.51,4.86-16.12,1.7-23.9
		C377.06,589.96,373.38,591.4,369.61,592.49z"/>
	<path class="st1" d="M494.45,223.12c5.71-1.59,11.36-4.7,17.49-3.53c9.18,1.09,17.03,7.26,21.57,15.12
		c-6.64-4.2-14.54-7.39-22.53-6.07c-8.81,0.71-15.97,7.69-25.04,6.99c-7.64,0.48-13.34-6.36-20.96-5.82
		c-8.67,0.02-17.11,2.77-24.95,6.28c4.75-7.73,12.55-13.86,21.64-15.33c4.46-0.9,8.94,0.29,13.29,1.22
		C481.3,223.51,487.98,224.33,494.45,223.12z"/>
	<path class="st1" d="M418.73,258.86c3.45-2.26,8-1.89,11.93-1.39c8.63,1.54,14.6,8.41,20.39,14.39
		c5.78,6.21,13.42,11.65,22.17,12.03c-6.28,3.75-14.37,4.19-20.92,0.85c-4.02-2.15-9.24-2.11-12.35-5.82
		c-2.35-2.15-1.5-6.01-3.92-8.05C430.7,266.28,424.76,262.47,418.73,258.86z"/>
	<path class="st1" d="M550.41,258.31c4.88-1.91,10.17-1.07,15.2-0.35c-0.5,1.41-1.94,1.96-3.08,2.72
		c-5.59,3.25-10.86,7.07-15.7,11.35c-0.34,4.66-3.34,9.13-8.05,10.24c-4.74,1.12-8.91,3.96-13.79,4.55
		c-4.92,0.88-9.84-0.83-14.22-2.94c8.29-0.23,15.71-5.16,21.27-10.99C537.58,267.39,542.75,260.88,550.41,258.31z"/>
	<path class="st1" d="M471.11,312.53c-1.8-5.06-2.06-11.77,2.82-15.21c4.89,3.78,4.64,10.89,2.15,15.98
		C474.42,314.78,472.2,314.44,471.11,312.53z"/>
	<path class="st1" d="M507.07,313.3c-2.07-4.82-3.03-12.04,1.94-15.4c1.88,0.09,2.87,1.98,3.48,3.52c1.39,3.65,0.71,7.65-0.55,11.22
		C510.83,314.7,508.76,314.6,507.07,313.3z"/>
	<path class="st0" d="M443.86,312.52c0.34,0.01,1.01,0.01,1.34,0.02c5.32,4.38,10.13,9.61,16.55,12.46
		c13.06,6.92,28.77,8.02,42.85,3.72c10.61-3.26,20.63-8.54,29.35-15.42c0.37-0.17,1.11-0.51,1.48-0.68
		c-1.26,7.05-1.48,14.28-3.58,21.19c-3.22,12.45-8.09,24.81-16.27,34.86c1.89-11.79,3.73-23.61,4.11-35.56
		c-4.8,1.45-9.48,3.31-14.4,4.31c-14.96,3.62-31.72,3.22-45.15-5.03c-0.03,8.2,0.42,16.41,1.95,24.49
		c0.46,3.59,1.14,7.16,1.45,10.78C451.57,351.81,445.89,332.06,443.86,312.52z"/>
	<path class="st1" d="M659.65,388.53c3.48-1.74,7.49-3.01,11.37-1.98c3.22,1.34,4.76,5.06,4.55,8.41c0.2,21.1-0.01,42.21,0.11,63.32
		c-1.6,0.52-3.18,1.01-4.8,1.39c-3.69,1.18-7.41,2.32-11.19,3.15C659.69,438.06,659.77,413.29,659.65,388.53z"/>
	<path class="st1" d="M506.37,546.69c1.7-0.27,3.38-0.68,5.02-1.23c0.01,2.94,0.03,5.89,0.07,8.84c-1.72,0.56-3.48,1.03-5.25,1.44
		C506.14,552.72,506.14,549.7,506.37,546.69z"/>
	<path class="st1" d="M487.16,551.59c1.65-0.36,3.29-0.79,4.93-1.21c-0.2,7.65,0.39,15.33-0.35,22.96c-1.55,0.14-3.08,0.3-4.62,0.47
		C487.14,566.4,487.08,558.99,487.16,551.59z"/>
	<path class="st1" d="M469.49,556.47c1.78-0.4,3.56-0.88,5.33-1.35c0,3.06,0,6.12,0,9.18c-1.84,0.49-3.67,0.98-5.5,1.48
		C469.38,562.67,469.42,559.57,469.49,556.47z"/>
</g>
<path class="st2" d="M744.48,264.84c-2.32-17.81-9.81-35.12-22.2-48.25c-13.08-13.47-30.78-21.89-49.15-25.22
	c-10.59-2.26-21.44-2.21-32.2-1.83c-7.68,0.82-15.34,1.64-23.04,2.2c-25.06,3.96-50.27,7.21-75.6,8.77
	c-7.16,0.94-14.41,0.31-21.55,1.36c8.9-7.38,19.1-13.01,29.56-17.84c-15.56-9.99-34.12-13.84-52.28-15.59
	c-7.66-0.22-15.33-0.2-22.99-0.02c-17.23,1.59-34.77,5.07-49.85,13.93c-0.78,1.57,1.09,1.79,2.11,2.36
	c10.32,4.37,19.88,10.37,28.73,17.22c-7.15-1.17-14.44-0.44-21.62-1.4c-16.61-1-33.17-2.82-49.68-4.95
	c-8.9-1.05-17.72-2.88-26.69-3.38c-19.27-1.89-38.88-4.91-58.11-0.92c-18.88,3.4-37.17,12.07-50.39,26.17
	c-14.1,15.24-21,35.95-22.37,56.4c-0.08,12.91-0.77,26.01,2.32,38.67c1.94,10.06,4.96,19.87,8.27,29.55
	c0.48,1.24,0.95,2.49,1.46,3.73c0.5,1.39,1.01,2.79,1.51,4.19c0.95,1.87,1.54,3.91,2.51,5.78c0.89,2.36,1.95,4.65,3.03,6.94
	c13.41,28.78,30.93,55.48,50.26,80.61c2.81,3.74,6,7.2,8.52,11.16c3.53,0.21,6.69-1.65,10.06-2.37c5.62-1.79,11.28-3.5,16.93-5.23
	c-3.07-4.6-6.83-8.67-10.14-13.09c-9.34-12.1-18.41-24.43-26.7-37.28c-1.7-2.56-3.49-5.05-4.93-7.76
	c-6.93-11.01-13.46-22.32-18.98-34.11c-1.64-3.15-2.99-6.44-4.51-9.64c-0.81-2.08-1.79-4.09-2.49-6.21
	c-3.6-8.57-6.2-17.52-8.7-26.47l-0.66,0.06l0.99-0.11c-2.21-8.28-3.12-16.83-3.61-25.36c-0.14-13.31,2.64-27.7,12.33-37.49
	c9.23-9.27,22.69-12.33,35.34-12.86c19.72-0.44,38.65,5.82,57.38,11.16c22.9,7.23,43.32,21.8,58.06,40.72
	c4.98,6.64,12.33,11.14,20.03,13.93c-0.79,3.12-0.92,6.34-0.97,9.55c0,0,0,0,1.15,10.14c0.95,2.43,0,0,2.02,7.55
	c0.36,0.16,1.08,0.49,1.44,0.65c0.11,1.23,0.32,2.45,0.62,3.66c4.34,12.18,9.91,24.07,17.73,34.44c3.51,4.56,7.33,9.14,12.36,12.07
	c0.11-12.06-1.91-24.09-1.59-36.17c13.76,5.23,29.01,4.23,43.03,0.68c0.35,5.34-0.66,10.62-0.69,15.95
	c-0.17,3.28,0.03,6.62-0.76,9.84c-0.49,3.59-0.63,7.22-0.68,10.84c10.49-6.33,18.47-15.99,24.33-26.59
	c0.01-0.29,7.11-16.63,7.54-25.05c0.8-5.76,1.22-11.57,1.55-17.37c0.3-3.48,0.1-6.97-0.27-10.43c5.2-2.91,10.23-6.39,13.79-11.25
	c15.25-20.77,38.78-33.38,62.38-42.4c18.4-6.83,37.79-12.17,57.56-11.92c12.85,0.61,26.67,3.86,35.67,13.71
	c8.9,9.15,11.13,22.4,11.76,34.64c-0.32,9.3-2.01,18.45-3.33,27.63h-0.34c-0.28,1.11-0.55,2.23-0.85,3.34
	c-0.34,1.3-0.69,2.6-1.04,3.9c-1.07,5.08-3.91,9.79-3.7,15.1c0.07,19.57-0.11,39.15,0.1,58.73c1.09-0.72,1.92-1.75,2.47-2.93
	c2.02-3.97,4.2-7.87,6-11.94c1.39-2.45,2.29-5.12,3.58-7.61c0.9-2.37,1.95-4.67,2.95-7c6.73-16.57,11.92-33.83,14.42-51.56
	c0.98-4.84,1.34-9.78,1.85-14.68C745.45,286.88,746.35,275.76,744.48,264.84z M451.2,183.86c22.92-8.47,48.85-8.57,71.96-0.78
	c-5.88,3.71-12.36,6.24-19.04,8.07C486.29,194.81,467.51,191.73,451.2,183.86z M461.67,220.76c4.46-0.9,8.94,0.29,13.29,1.22
	c6.34,1.53,13.02,2.35,19.49,1.14c5.71-1.59,11.36-4.7,17.49-3.53c9.18,1.09,17.03,7.26,21.57,15.12
	c-6.64-4.2-14.54-7.39-22.53-6.07c-8.81,0.71-15.97,7.69-25.04,6.99c-7.64,0.48-13.34-6.36-20.96-5.82
	c-8.67,0.02-17.11,2.77-24.95,6.28C444.78,228.36,452.58,222.23,461.67,220.76z M511.94,312.64c-1.11,2.06-3.18,1.96-4.87,0.66
	c-2.07-4.82-3.03-12.04,1.94-15.4c1.88,0.09,2.87,1.98,3.48,3.52C513.88,305.07,513.2,309.07,511.94,312.64z M473.93,297.32
	c4.89,3.78,4.64,10.89,2.15,15.98c-1.66,1.48-3.88,1.14-4.97-0.77C469.31,307.47,469.05,300.76,473.93,297.32z M378.06,209.35
	c-13.5-1.64-27.02-3.11-40.56-4.32c-9.8-0.75-19.66-1.56-29.47-0.7c-7.07,0.63-13.72,3.37-19.91,6.72
	c-6.62,3.64-13.64,6.71-19.57,11.47c-10.16,8.53-17,20.12-23.35,31.58c-2.52,4.88-5.36,9.62-7.42,14.72
	c-0.1-1.28,0.06-2.52,0.48-3.71c0.22-7,2.22-13.79,4.52-20.37c5.79-15.11,16.98-27.96,31.09-35.88
	c13.89-8.11,30.14-11.76,46.14-11.71c33.9-0.96,66.79,8.68,100.1,13.36c2.18,0.17,4.35,0.33,6.54,0.47
	C410.49,212.88,394.15,211.25,378.06,209.35z M418.73,258.86c3.45-2.26,8-1.89,11.93-1.39c8.63,1.54,14.6,8.41,20.39,14.39
	c5.78,6.21,13.42,11.65,22.17,12.03c-6.28,3.75-14.37,4.19-20.92,0.85c-4.02-2.15-9.24-2.11-12.35-5.82
	c-2.35-2.15-1.5-6.01-3.92-8.05C430.7,266.28,424.76,262.47,418.73,258.86z M531.85,333.81c-3.22,12.45-8.09,24.81-16.27,34.86
	c1.89-11.79,3.73-23.61,4.11-35.56c-4.8,1.45-9.48,3.31-14.4,4.31c-14.96,3.62-31.72,3.22-45.15-5.03
	c-0.03,8.2,0.42,16.41,1.95,24.49c0.46,3.59,1.14,7.16,1.45,10.78c-11.97-15.85-17.65-35.6-19.68-55.14
	c0.34,0.01,1.01,0.01,1.34,0.02c5.32,4.38,10.13,9.61,16.55,12.46c13.06,6.92,28.77,8.02,42.85,3.72
	c10.61-3.26,20.63-8.54,29.35-15.42c0.37-0.17,1.11-0.51,1.48-0.68C534.17,319.67,533.95,326.9,531.85,333.81z M562.53,260.68
	c-5.59,3.25-10.86,7.07-15.7,11.35c-0.34,4.66-3.34,9.13-8.05,10.24c-4.74,1.12-8.91,3.96-13.79,4.55
	c-4.92,0.88-9.84-0.83-14.22-2.94c8.29-0.23,15.71-5.16,21.27-10.99c5.54-5.5,10.71-12.01,18.37-14.58
	c4.88-1.91,10.17-1.07,15.2-0.35C565.11,259.37,563.67,259.92,562.53,260.68z M721.18,241.78c-5.56-8.84-12.23-17.32-21.23-22.85
	c-6.54-3.99-13.46-7.28-20.28-10.73c-9.5-4.64-20.32-4.46-30.62-4.08c-24.78,1.4-49.36,5.06-74.06,7.36
	c-9.26,0.17-18.57,0.73-27.8-0.33c35.05-3.78,69.32-14.84,104.83-14.01c19.23-0.33,38.93,4.7,54.57,16.17
	c17.64,12.61,28.29,33.71,29.22,55.25C731.33,259.42,726.55,250.42,721.18,241.78z"/>
<g id="_x23_8f8f8fff">
	<path class="st3" d="M640.84,309.73c0.57-1.88,1.47-3.66,2.94-5c0.59,1.34,0.97,2.77,0.87,4.26c-0.19,13.34,0.95,26.93-2.42,40
		c-0.39,1.49-1.13,2.84-1.87,4.17c-13.76,3.43-27.18,8.24-40.83,12.13c-17.73,5.48-35.49,10.86-53.2,16.4
		c-1.06-7.21-0.16-14.55-0.45-21.81c-0.03-9.42-1.36-18.8-3.32-27.99c-0.46-1.86,0.55-3.56,1.29-5.17
		c6.1-2.43,12.33-5.28,19.09-4.64c6.44-0.44,12.64,3.75,15.22,9.55c1.72,6.63,0.91,13.56,1.73,20.31c0.55,4.3,0.28,8.64,0.4,12.97
		c5.1-1.22,9.66-3.93,14.2-6.46c15.23-8.33,28.84-19.92,38.7-34.27C636.23,319.65,639.16,314.96,640.84,309.73z"/>
	<path class="st3" d="M334.81,316.97c-0.01-2.75-1.06-6.16,1.11-8.33c0.44,0.38,1.32,1.14,1.76,1.52
		c1.32,7.11,5.26,13.31,8.46,19.68c7.19,11.1,15.17,22.01,25.78,30.09c7.02,5.99,14.93,10.9,22.96,15.43
		c0.11-8.8,0.35-17.6,0.5-26.39c1.66-6.7-0.77-14.25,3.25-20.32c4.35-3.01,8.81-6.67,14.42-6.62c5.81,0.1,12.28-0.99,17.37,2.49
		c2.23,1.94,4.34,4.13,7.22,5.09c0.36,0.16,1.08,0.49,1.44,0.65c-2.72,7.59-3.47,15.65-4.62,23.57c0.15,7.68-0.95,15.35-0.09,23.02
		c-0.24,8.92,1.28,17.69,2.35,26.51c0.71,3.8,1.92,7.57,1.62,11.5c-32.39,10.31-64.98,19.87-97.43,29.97
		c-1.53,0.44-3.08,1.03-4.7,0.91c-7.3-17.12-13.95-34.63-18.12-52.81c-3.32-12.28-4.33-24.95-5.54-37.52
		c1.59-0.19,2.74,0.36,3.44,1.68c9.99,19.39,22.39,37.59,36.9,53.86c5.68,5.68,11.52,11.22,16.91,17.16
		c0.48,0.39,1.03,0.44,1.66,0.15c-2.47-2.83-4.65-5.93-6.44-9.23c-2.55-5.45-6.15-10.36-8.18-16.06
		c-10.43-22.28-17.97-46.1-20.55-70.62C334.93,327.31,336.26,322,334.81,316.97z"/>
	<path class="st3" d="M672.12,329.14c2.2-2.44,3.61-5.6,6.4-7.47c0.5,5.45-0.74,10.82-1.08,16.24c-0.06,1.47-0.54,2.86-1.11,4.21
		c-9.41,2.13-18.41,5.84-27.87,7.87C657.04,343.92,665.46,337.39,672.12,329.14z"/>
</g>
<g id="_x23_d6d6d6ff">
	<path class="st4" d="M678.71,422.81c5.16-1.77,10.45-3.19,15.75-4.53c0.12,11.21,0.02,22.42,0.05,33.62
		c0.26,11.68-8.21,23.06-19.52,26.08c-11.38,3.3-22.76,6.59-34.08,10.04c0.01-18.36-0.08-36.72,0.04-55.07
		c5.52-0.86,10.77-2.8,16.14-4.27c0.15,11.98-0.12,23.95,0.13,35.93c1.6,0.64,3.31,1.42,5.04,0.67c5.37-1.65,10.84-3.03,16.07-5.12
		C679.16,447.74,678.42,435.26,678.71,422.81z"/>
	<path class="st4" d="M581.7,450.06c12.5-3.24,24.8-7.2,37.3-10.46c0.07,3.63,0.1,7.26-0.11,10.89c-5.95,1.89-11.98,3.51-17.94,5.36
		c-1.55,0.46-3.5,1.32-3.45,3.24c-0.26,4.67-0.39,9.42,0.32,14.06c0.79,5.04,5.65,9.59,10.96,8.38c6.2-1.23,12.1-3.67,18.28-5.04
		c0.01,5.35,0.14,10.7-0.1,16.05c-6.94,2.32-13.96,4.36-20.97,6.41c-5.1,1.58-10.87,1.18-15.45-1.67c-6.2-3.8-9.15-11.32-9-18.38
		C581.63,469.29,581.34,459.67,581.7,450.06z"/>
	<path class="st4" d="M539.86,461.89c5.49-1.58,10.95-3.28,16.52-4.59c0.1,18.88,0.09,37.76,0,56.64
		c-5.51,1.71-11.04,3.35-16.56,5.02C539.81,499.93,539.74,480.91,539.86,461.89z"/>
	<path class="st4" d="M487.04,476.9c9.04-2.38,17.92-5.33,27.04-7.43c-0.23,10.37,0.68,20.82-0.63,31.14
		c-1.71,12.24-8.83,23.87-19.54,30.21c-4.75,2.82-10.25,3.82-15.42,5.55c-4.82,1.58-10.9,1.56-14.54-2.46
		c-4.14-4.1-3.5-10.35-3.25-15.65c5.2-1.22,10.24-3.02,15.4-4.4c0.27,1.97,0.65,3.94,1.17,5.86c10.23,1.08,20.23-7.4,20.57-17.72
		c0-5.64,0.25-11.31-0.13-16.94c0-2.21-2.68-1.98-4.17-1.63c-11.23,3.06-22.24,6.92-33.53,9.75c0.07-2.87-0.45-5.85,0.28-8.65
		C469.11,481.69,478.14,479.53,487.04,476.9z"/>
	<path class="st4" d="M430.76,492.9c5.19-1.64,10.43-3.1,15.69-4.5c0.04,19.47,0.22,38.95-0.09,58.41c-5.2,1.53-10.39,3.1-15.6,4.58
		C430.71,531.89,430.71,512.4,430.76,492.9z"/>
	<path class="st4" d="M398.97,501.87c5.7-1.66,11.38-3.42,17.2-4.62c0.02,19.53,0.11,39.06-0.05,58.58
		c-7.16,1.62-14.11,4.06-21.22,5.88c-6.32,1.67-13.63-1.07-16.91-6.82c-0.97-2.42-4.97-2.36-5.8,0.13
		c-3.66,7.4-8.12,15.68-16.47,18.47c-6.64,2.13-13.32,4.15-20.04,5.98c-0.13-19.88-0.08-39.76-0.03-59.64
		c5.5-1.64,10.99-3.29,16.58-4.6c0.04,9.24,0.01,18.48,0.01,27.73c0.05,3.63-0.47,7.43,1.05,10.86c4.28,0.68,7.46-2.75,9.98-5.69
		c3.28-4.35,5.22-9.77,5.33-15.23c0.21-7.56-0.22-15.14,0.21-22.7c4.76-1.15,9.37-2.9,14.2-3.75c0.19,7.81-0.27,15.64,0.24,23.45
		c0.69,5.56,4.76,11.62,10.82,11.93c1.73,0.1,4.91,0.54,4.84-2.07C399.08,527.14,398.9,514.5,398.97,501.87z"/>
	<path class="st4" d="M290.95,531.96c5.82-0.94,11.36-3.01,17.07-4.38c-0.01,19.73,0.08,39.46-0.05,59.2
		c-5.66,1.86-11.39,3.5-17.1,5.21C290.93,571.98,290.77,551.97,290.95,531.96z"/>
	<path class="st4" d="M537.42,536.58c3.29-4.58,9.63-5.58,14.88-5.17c0.24,1.28,0.61,2.53,1.09,3.75
		c-3.34,2.23-7.47,0.47-11.01,2.16c-0.03,3.05-0.02,6.11,0.03,9.18c2.58-0.83,5.2-1.57,7.81-2.31c1.17,1.02,3.05,1.89,2.96,3.73
		c-0.07,4.9,1.19,10.69-2.95,14.37c-3.37,0.98-6.74,1.94-10.15,2.74c-0.91-0.5-1.81-0.99-2.71-1.48c0.02-1.32,0.05-2.62,0.09-3.93
		c1.63,0.05,3.91-1.45,5.01,0.4c1.78-0.52,3.57-1.05,5.34-1.61c0.02-3.06-0.02-6.13-0.12-9.18c-2.65,0.85-5.35,2.11-8.15,2.01
		c-1.92,0.05-2.36-1.92-2.19-3.37C537.3,544.1,537.37,540.34,537.42,536.58z"/>
	<path class="st4" d="M519.26,538.93c5.18-1.09,10.13-3.14,15.4-3.83c-0.04,1.41-0.08,2.82-0.11,4.24c-1.72,0.45-3.44,0.9-5.16,1.33
		c-0.19,9.11-0.01,18.22-0.1,27.33c-1.61,0.42-3.21,0.85-4.81,1.3c-0.07-9.05-0.03-18.1-0.02-27.15c-1.77,0.47-3.53,0.96-5.28,1.47
		C519.2,542.05,519.22,540.49,519.26,538.93z"/>
	<path class="st4" d="M500.77,543.88c4.2-1.06,8.36-2.24,12.51-3.45c0.94,0.48,1.88,0.97,2.82,1.47c-0.52,5.33,1.47,11.33-1.9,16.01
		c-0.49,4.55,0.89,9.02,1.64,13.47c-1.64,0.57-3.33,0.98-5.06,1.19c-0.51-4.24-1.11-8.49-2.22-12.61c-0.58,0.05-1.75,0.16-2.33,0.21
		c-0.06,4.62-0.03,9.23-0.05,13.85c-1.79,0.53-3.59,1.03-5.41,1.45C500.76,564.94,500.75,554.41,500.77,543.88 M506.37,546.69
		c-0.23,3.01-0.23,6.03-0.16,9.05c1.77-0.41,3.53-0.88,5.25-1.44c-0.04-2.95-0.06-5.9-0.07-8.84
		C509.75,546.01,508.07,546.42,506.37,546.69z"/>
	<path class="st4" d="M481.57,551.49c2.37-4.82,8.21-4.58,12.6-6.24c0.87,0.6,1.75,1.19,2.63,1.8c0.15,8.29,0.07,16.59,0.07,24.89
		c0.33,2.21-1.57,3.64-2.84,5.14c-3.41,0.43-6.57,1.96-9.99,2.29c-0.59-0.37-1.77-1.1-2.36-1.47
		C481.49,569.1,481.69,560.29,481.57,551.49 M487.16,551.59c-0.08,7.4-0.02,14.81-0.04,22.22c1.54-0.17,3.07-0.33,4.62-0.47
		c0.74-7.63,0.15-15.31,0.35-22.96C490.45,550.8,488.81,551.23,487.16,551.59z"/>
	<path class="st4" d="M464.38,553.53c4.87-1.1,9.68-3.68,14.76-2.96c0.26,0.59,0.78,1.77,1.04,2.36c0.06,3.9,0.05,7.81,0.03,11.71
		c-1.04,1.16-2.07,2.33-3.09,3.52c-2.59,0.73-5.17,1.47-7.74,2.25c0.03,4.51,0.09,9.03-0.08,13.54c-1.65,0.27-3.29,0.56-4.93,0.86
		C464.4,574.38,464.38,563.95,464.38,553.53 M469.49,556.47c-0.07,3.1-0.11,6.2-0.17,9.31c1.83-0.5,3.66-0.99,5.5-1.48
		c0-3.06,0-6.12,0-9.18C473.05,555.59,471.27,556.07,469.49,556.47z"/>
	<path class="st4" d="M446.35,561.93c2.12-5.2,8.46-4.29,12.66-6.51c2.31,0.86,2.86,2.98,2.69,5.27c-3.38,1.27-7.07,0.08-10.41,1.56
		c0,2.88,0,5.77,0.01,8.66c2.62-0.35,5.19-0.92,7.73-1.65c0.63,0.4,1.89,1.19,2.52,1.59c0.08,4.39,0.06,8.79,0.04,13.19
		c-0.88,1.05-1.75,2.11-2.6,3.19c-3.29,1.06-6.64,1.93-9.99,2.75c-0.92-0.47-1.84-0.93-2.76-1.38c0.01-1.36,0.04-2.72,0.07-4.07
		c1.72-0.15,3.59-0.76,5.2,0.2c1.74-0.37,3.45-0.86,5.16-1.38c-0.03-3.04-0.05-6.07-0.07-9.11c-3.38,0.77-7.13,3.28-10.38,0.91
		C446.31,570.75,445.94,566.32,446.35,561.93z"/>
	<path class="st4" d="M428.71,564.3c4.97-1.68,10.03-3.1,15.14-4.28c-0.01,1.47-0.03,2.94-0.03,4.42c-3.2,0.89-6.39,1.79-9.6,2.58
		c-0.03,2.92-0.04,5.85-0.01,8.78c1.79-0.26,3.54-0.72,5.21-1.43c0.04,1.56,0.09,3.14,0.14,4.72c-1.78,0.43-3.56,0.88-5.33,1.32
		c-0.04,3.09-0.05,6.19-0.03,9.29c3.31-0.92,6.62-1.83,9.94-2.7c-0.19,1.5,0.32,3.22-0.49,4.59c-4.91,1.48-9.88,2.83-14.89,3.99
		C428.72,585.15,428.83,574.72,428.71,564.3z"/>
</g>
<g id="_x23_21468bff">
	<path class="st2" d="M182.18,530.27c22.61-11.82,47.63-18.62,72.86-21.83c-0.01,5.98,0.22,11.99-0.5,17.95
		c-12.84,1.13-25.74,0.19-38.61,0.66c-12.7,0.3-25.11,3.31-37.45,5.97C179.62,531.99,180.77,530.93,182.18,530.27z"/>
	<path class="st2" d="M569.68,551.23c20.89,2.2,41.68,6,61.81,12.13c16.46,5.22,33.05,11.52,46.69,22.42
		c9.54,7.53,17.53,18.02,19.15,30.37c1,9.95,0.63,20.66-4.57,29.51c-4.5,8.08-13.28,12.92-22.18,14.52
		c-5.58,1.17-11.31,0.94-16.96,0.49c4.36-7.32,5.76-16.41,3.06-24.56c-4.76-11.36-15.72-18.25-26.12-23.85
		c-29.44-14.4-61.94-20.71-94.01-26.09c0.18-3.47,0.64-6.92,1.29-10.32c10.67-2.58,21.2-5.7,31.81-8.55
		C569.71,561.94,569.65,556.58,569.68,551.23z"/>
	<path class="st2" d="M487.06,589.95c10.05-2.62,19.94-5.88,30.09-8.06c-1.04,15.99,1.97,32.66,11.34,45.96
		c-0.35,2.99-0.02,6.78-2.87,8.7c-3.51,3.08-8.41,1.65-12.6,1.75c-30.02-0.02-60.05-0.01-90.07,0c-6.68-0.33-14.84-1.84-18.55-8.06
		c2.95-6.7,5.44-13.61,9.03-20C437.87,603.11,462.56,596.87,487.06,589.95z"/>
	<path class="st2" d="M369.61,592.49c3.77-1.09,7.45-2.53,11.34-3.13c3.16,7.78,1.35,16.39-1.7,23.9
		c-2.71,6.43-4.44,13.2-6.04,19.97c-3.8,8.87-14.45,11.31-23.19,11.02c-12.36-0.11-24.71,0.01-37.06-0.05
		c-12.55-0.27-24.27-5.33-35.43-10.6c2.74-4.8,6.53-8.89,10.93-12.21c3.26-2.4,5.71-6.09,9.72-7.31
		C321.94,606.74,345.79,599.66,369.61,592.49z"/>
</g>
<g id="_x23_13274eff">
	<path class="st3" d="M536.26,586.11l0.29,0.06c32.07,5.38,64.57,11.69,94.01,26.09c10.4,5.6,21.36,12.49,26.12,23.85
		c2.7,8.15,1.3,17.24-3.06,24.56c-4.61,0.1-9.07-1.24-13.57-1.98c-7.93-1.34-15.76-3.21-23.55-5.19c-2.25-0.47-4.16-1.76-5.64-3.46
		c-5.46-6-12.13-10.71-18.92-15.07c-9.78-6.99-20.73-12.06-31.22-17.83c-7.71-4.17-15.94-7.25-23.74-11.2
		c-1.47-1.19-1.59-3.23-1.63-4.97C535.3,596.01,535.09,590.98,536.26,586.11z"/>
	<path class="st3" d="M528.49,627.85c2.76,3.4,5.85,6.51,8.98,9.58c7.57,8.02,17.57,13.25,27.71,17.29
		c8.76,3.63,18.21,4.99,27.23,7.8c-16.44,0.64-32.92,0.09-49.37,0.27c-42.36,0.13-84.72-0.32-127.08-0.38
		c-6.08-0.54-12.4-4.59-13.38-11.01c-0.88-7.06-0.74-14.45,1.82-21.16c3.71,6.22,11.87,7.73,18.55,8.06
		c30.02-0.01,60.05-0.02,90.07,0c4.19-0.1,9.09,1.33,12.6-1.75C528.47,634.63,528.14,630.84,528.49,627.85z"/>
	<path class="st3" d="M275.33,645.69c-0.82-4.17,0.43-8.35,2.2-12.09c11.16,5.27,22.88,10.33,35.43,10.6
		c12.35,0.06,24.7-0.06,37.06,0.05c8.74,0.29,19.39-2.15,23.19-11.02c0.43,4.54-0.19,9.12,0.56,13.64c0.46,5.2,2.58,10,4.3,14.87
		c-26.03,0.24-52.07-0.35-78.1-0.3c-4.79-0.17-9.6,0.3-14.36-0.21C280.46,657.55,276.62,651.91,275.33,645.69z"/>
</g>
</svg>
