<?xml version="1.0" encoding="utf-8"?>
<!-- Generator: Adobe Illustrator 19.0.0, SVG Export Plug-In . SVG Version: 6.00 Build 0)  -->
<svg version="1.1" id="Layer_1" xmlns="http://www.w3.org/2000/svg" xmlns:xlink="http://www.w3.org/1999/xlink" x="0px" y="0px"
	 viewBox="425.9 -12.7 552.1 682.5" style="enable-background:new 425.9 -12.7 552.1 682.5;" xml:space="preserve">
<style type="text/css">
	.st0{fill:url(#SVGID_1_);}
	.st1{fill:url(#SVGID_2_);}
	.st2{fill:url(#SVGID_3_);}
</style>
<linearGradient id="SVGID_1_" gradientUnits="userSpaceOnUse" x1="701.115" y1="-12.72" x2="701.115" y2="350.68">
	<stop  offset="0" style="stop-color:#128EEE"/>
	<stop  offset="1" style="stop-color:#04B1F3"/>
</linearGradient>
<path class="st0" d="M647.4,23.3c17.9-12,35.9-23.8,53.6-36.1c9.9,6.6,19.8,13.2,29.6,19.8c1.6,1.2,3.6,1.8,5.3,2.9
	c77.5,51.9,155,103.7,232.5,155.7c0,2-0.1,4-0.1,6c-17,11-33.7,22.5-50.5,33.9c-2.1-2.2-4.9-3.7-7.4-5.4
	c-66.5-44.4-132.9-89-199.4-133.5c-3.1-2.1-6.3-4-9.2-6.4c-1.5-0.1-2.6,1-3.8,1.7c-8.1,5.6-16.4,11.1-24.6,16.6
	c-15.6,11.2-31.8,21.5-47.6,32.2c-27.1,18.3-54.3,36.3-81.4,54.6c-1.8,1.2-3.6,2.4-5.5,3.5c39.7,26.6,79.5,53.2,119.2,79.8
	c4.2,2.8,8.5,5.4,12.4,8.6c9.7,6.6,19.6,13.1,29.3,19.7c0.8,0.9,2,0.6,2.8-0.1c17.6-11.9,35.3-23.5,52.8-35.4c2-1.6,4.5-2.6,6.3-4.5
	l-0.2-0.7c-32.6-21.8-65.2-43.6-97.7-65.4c-2.3-1.6-4.9-2.9-6.9-4.9c17.9-12.1,35.7-24.3,53.5-36.6c51,33.9,0,0,160.5,107
	c0.3-0.3-112.7,76-169.9,114.3c-31.4-21.3-63-42.3-94.5-63.4c-41.1-27.5-82.2-55.1-123.4-82.6c-6.4-4.3-12.9-8.4-19-13.1
	c-10.2-6.8-20.5-13.5-30.5-20.6c0-1.4,0-2.8,0-4.2c12.1-8.5,24.7-16.2,36.6-25C529.4,102.4,588.4,62.9,647.4,23.3z"/>
<linearGradient id="SVGID_2_" gradientUnits="userSpaceOnUse" x1="425.94" y1="433.365" x2="695.21" y2="433.365">
	<stop  offset="0" style="stop-color:#00A1FF"/>
	<stop  offset="1" style="stop-color:#04BEED"/>
</linearGradient>
<path class="st1" d="M427,196.9c77.6,49.1,155.5,98,233.2,147c11.2,7.9,23.1,14.5,34.4,22.1c0.3,22.8,0.1,45.6,0.1,68.4
	c-69.1-43.5-138.3-87-207.3-130.6c-0.1,54.4,0,108.7-0.1,163.1c0.2,1.3-0.6,3.1,0.8,3.9c65,41,130.1,82,195.2,123
	c4,2.6,8.2,4.9,12.1,7.8c-0.1,22.7,0,45.5-0.1,68.2c-89.8-56.4-179.5-113-269.2-169.6c0.7-1,1-2,1-3.2C427,397,427,297,427,196.9z"
	/>
<linearGradient id="SVGID_3_" gradientUnits="userSpaceOnUse" x1="978" y1="432.775" x2="709.07" y2="432.775">
	<stop  offset="0" style="stop-color:#00A1FF"/>
	<stop  offset="1" style="stop-color:#04BEED"/>
</linearGradient>
<path class="st2" d="M978,198.2c0,22.9,0.1,45.7,0,68.6c-69.6,43.8-139.1,87.7-208.7,131.5c0,54.2-0.2,108.4,0.1,162.6
	c49.5-31.3,99.2-62.4,148.7-93.8c-0.3-11.4,0.2-22.8-0.3-34.1c-29.3,18.8-59,37-88.2,55.9c-0.3-15.1-0.3-48-0.3-68.6
	c47.4-29.9,146.4-91.2,148.7-91.1c0,56.3,0,112.5,0,168.8c-89.6,56.5-179.3,113-268.9,169.5c0.2-100.1-0.1-200.3,0.2-300.4
	C710.7,366.6,889.8,253.9,978,198.2z"/>
</svg>
