<?xml version="1.0" encoding="utf-8"?>
<!-- Generator: Adobe Illustrator 19.0.0, SVG Export Plug-In . SVG Version: 6.00 Build 0)  -->
<svg version="1.1" id="Layer_1" xmlns="http://www.w3.org/2000/svg" xmlns:xlink="http://www.w3.org/1999/xlink" x="0px" y="0px"
	 viewBox="171.4 -96.1 937.2 1032.5" style="enable-background:new 171.4 -96.1 937.2 1032.5;" xml:space="preserve">
<style type="text/css">
	.st0{fill:#B6BCC3;}
	.st1{fill:#E2ECF4;}
	.st2{fill:#232527;}
	.st3{fill:#969C9E;}
</style>
<g id="_x23_b6bcc3ff">
	<path class="st0" d="M312.9-96.1h15.9c2,0.5,4.1,1,6.2,1c10.7-0.2,21.3,1.8,32,2.3c18.7-0.1,37.3,2.4,55.9,2.1
		c11.7,0.7,23.3,1.3,35,2c9.3,0.3,18.7-0.4,28,0.5c5.4,0.1,10.7-0.1,16.1,0.5c13.7-0.1,27.3,1.6,41,1.1c20,1.4,40-0.5,60,1.2
		c19.4-0.1,38.7,0,58-0.1c5.7-0.6,11.4-1,17.1-0.1c9,0.1,18,0.5,26.9-0.5c14.7-0.3,29.3,0.5,44-0.6c9.3,0,18.7,0.3,28-0.5
		c17.7,0.4,35.3-0.8,53-1.5c13.4,0.6,26.7-1.2,40-1c9-0.6,18-1.3,27.1-1c9.9,0.4,19.7-1.7,29.6-1.5c8.1-0.6,16.3-0.6,24.4-1.3
		c5.4,0.7,10.8-1.9,16.1-0.1c5.6,1.3,11.5,2.1,16.7,4.8c10.4,4.2,17.7,13.1,24.9,21.2c2.5,4.8,5.9,9.3,6.5,14.7
		c1.9,11.3,4,22.6,6.3,33.8c2,6.6,3.1,13.3,4.4,20c2.3,11.9,5.3,23.8,7.2,35.8c4.8,16.9,6.6,34.5,11.3,51.4
		c1.3,4.8,0.9,9.9,2.7,14.6c3.6,15,5.7,30.3,9.8,45.2c2.9,16.1,6.5,32.1,9.6,48.2c3.3,14,6.1,28,9,42.1c1.2,4.9,2.4,9.8,2.9,14.9
		c3.7,14.4,6.2,29,9.2,43.6c2.5,8.3,3,17.1,5.5,25.5c1.2,14.3,0.9,28.7,1.8,43c-0.2,8,0.9,16,0.5,24c-0.3,10,0.6,20,0.6,30.1
		c0.8,6.9,0.1,14,0.9,20.9c-0.1,9.4,0.9,18.7,0.5,28c-0.3,9,0.7,18,0.5,27.1c0.8,7.3,0.1,14.7,0.9,22c-0.3,7,0.7,14,0.5,21
		c-0.3,21,1.2,42,1.6,63c2,11.6,0.1,23.5,1.3,35.2c0.4,17.3,1,34.5,1.7,51.8c-0.1,17.2-0.2,34.3,0.7,51.5c1.2,5.1,0.6,10.3,0.9,15.5
		c0.8,8.6,0.3,17.3,0.4,26c0.7,17.3,1.2,34.5,1.7,51.8c0.9,11.4-0.3,22.8,0.8,34.2c0.5,7-0.4,14-2.7,20.7
		c-2.1,8.7-8.4,15.5-13.7,22.5c-1.8,1.9-4,3.3-5.6,5.3c-3,3.5-7.1,5.6-11,8c-3.9,2.9-8.3,5-12.6,7.3c-8.8,2.6-17.9,3.5-26.9,5.2
		c-4.9,1-10,0.6-15,0.6c-256,0-512,0-768,0c-7.1,0-14-1.7-21-2.6c-7.2-1.6-14.7-2.8-21.1-6.8c-5.8-3.8-12.3-6.8-17-12.1
		c-7.5-5.9-13.5-13.6-17.9-22.1c-3.1-7.9-5.2-16.4-4.5-24.9c1-11,0.1-22.1,0.6-33.1c0.7-5.6,0-11.3,0.7-16.9c0.5-5-0.1-10,0.5-14.9
		c0.6-5.3-0.1-10.7,0.5-16.1c0.7-10.7-0.4-21.4,0.6-32.1c0.3-4.7-0.4-9.4,0.6-14c0.7-3.3,0.4-6.7,0.5-10c1.3-18-0.3-36,1-54
		c0.1-13.4,1-26.7,1.1-40c1.3-11.9-0.8-24,1.3-35.9c-0.1-8.1,0.8-16.1,0.6-24.1c0.8-6.6,0.1-13.3,0.9-19.9c0.4-10.3-0.4-20.7,0.5-31
		c0.1-13.7,1-27.4,1.1-41.1c1.1-11.3-0.2-22.6,0.8-33.9c0.5-16.7,1-33.4,1.7-50.1c0.1-8.6-0.4-17.3,0.3-26c0.6-17,0.9-34,1.8-51
		c0.2-4.2,2.3-8,2.5-12.2c0.8-5.4,1.9-10.8,3.4-16c2-10.2,4.1-20.3,6.2-30.4c0.8-5.8,3.2-11.3,3.5-17.3c2.7-11.9,5-23.8,7.5-35.7
		c4.9-21.8,9.3-43.7,13.5-65.6c2.9-10.8,4.9-21.9,7.1-32.9c1-7.8,4.2-15.1,4.5-22.9c4.8-17.9,7-36.4,11.9-54.3
		c2.7-15.7,6.7-31.2,9.4-46.9c4-14.7,6.5-29.7,8.4-44.7c0.4-4.9,4.4-8,6.6-12c2.4-4.4,5.9-8.1,8.9-12
		C288.8-88.1,300.5-94,312.9-96.1 M294.5-64.5c-3.7,5-7.3,10.1-10.1,15.7c-1,7.6-2.7,15.1-4.2,22.7c-1.6,11.1-5,21.9-6.5,33.1
		c-4.1,14-5.7,28.6-9.2,42.8c-1.5,4-1.8,8.4-3,12.5c-0.2,3-0.3,6-1.5,8.8c-2.5,11.9-4.8,23.9-7.4,35.9c-1.4,3.9-2,8.1-2.7,12.2
		c-2.6,11.6-4.5,23.4-7.4,35c-1.4,11.4-5,22.3-6.9,33.5c-2.1,9-3.2,18.3-5.9,27.2c-0.6,5.1-1.6,10.1-3,15
		c-2.4,11.4-4.5,22.8-6.8,34.2c-0.8,5.1-2.8,10-3.2,15.1c-2.9,11.2-4.5,22.6-7.2,33.8c-0.1,5.8-3.3,11.2-2.6,17.1
		c-0.1,3.3-0.9,6.6-0.6,10c-0.6,20.7-1.8,41.3-1.5,62c-0.7,16.7-1.2,33.4-1.7,50.1c-1,11.6,0.2,23.3-0.8,34.9
		c-0.3,22.3-1.9,44.7-1.6,67c-0.5,16.7-1.4,33.3-1.5,50c-1.9,10.9-0.6,22-0.9,32.9c-0.8,4.3-0.6,8.6-0.4,13c-1.8,25-1.7,50-1.7,75
		c-0.9,7,0.2,14.1-1.2,21.1c-0.9,4.9,0.5,10-0.5,14.9c-1.1,11,0.7,22.1-0.8,33c-0.2,16.7-1.1,33.3-1.5,50c0.3,3.8-0.8,7.9,0.9,11.4
		c-0.1,1.9-0.8,3.7-0.8,5.6c0.2,6.7-1.9,13.6,1.1,20c2.1,4.1,4,8.4,7.2,11.8c1.5,2,3,4.2,5.2,5.6c3.9,2.3,6.1,6.7,10.6,8.1
		c3.9,2.7,8.1,5.1,12.7,6.5c7.9,1.5,15.9,2.8,24,3.3c72.7,0.3,145.4,0,218.1,0.2c177,0,354,0,531.1,0c9.5-0.3,19.1,0.5,28.6-0.4
		l0,0.5c6.5-1.6,13.4-1.8,19.8-3.7c5.5,0,9.5-4.4,14.3-6.3l0-0.3c2-1.5,4.3-2.6,6.4-4c2.9-3.2,6.3-5.8,8.5-9.5l0.2,0.3
		c2.8-4,5.4-8.3,7.4-12.9c2.8-7.7,0.3-15.9,0.6-23.8c0.1-6.8,0.5-13.6,0.1-20.3c-0.7-5.3,0.1-10.6-0.6-15.9
		c-0.6-5.4,0.2-10.8-0.6-16.2c-0.6-5,0.5-10.1-0.9-15c0.3-8.3,0.1-16.5,0.2-24.8c0.2-2.8-1.2-5.4-0.7-8.2c0.3-4.1,0.5-8.4-0.6-12.4
		c-0.7-5.4,0.2-10.9-0.6-16.3c-0.6-16.4,0.5-32.8-0.7-49.2c0.4-6.7-0.8-13.3-0.5-20c0.2-2.4-0.6-4.6-0.8-6.9
		c0.3-5.1,0.7-10.2-0.5-15.2c0.4-8,0.1-15.9,0.3-23.9c0.2-2.7-1-5.3-1-8c0.1-13.4-1-26.7-1-40.1c-1-10.6-0.1-21.3-0.6-31.9
		c-0.8-6.7-0.1-13.4-0.9-20c0.3-8-0.8-16-0.5-24c-1-10.9-0.1-21.9-0.6-32.9c-0.8-5.5,0-11.1-0.7-16.7c-0.5-4.7,0.1-9.5-0.4-14.3
		c-0.8-5.7,0.1-11.5-0.7-17.3c-0.5-11,0.5-21.9-0.6-32.9c0.1-5.4-0.1-10.7-0.5-16.1c0.4-7-0.8-14-0.5-21c0.2-2.7-1.2-5.3-0.7-8.1
		c0.6-3.8-1.3-7.3-1.9-11c-0.7-7.1-2.9-13.8-4.1-20.8c-1.1-8.4-3.9-16.4-4.9-24.7c-1.8-4.3-1.9-9-3.2-13.4c-2.5-13-5-26.1-8.1-39
		c-0.1-5.6-2.8-10.6-3.3-16.1c-3-15-6-30-9.6-44.9c-0.8-2.3,0-4.9-1-7.1c-1.8-4.1-1.5-8.7-2.9-12.9c-1.2-6-2.4-12-3.6-17.9
		c-1.3-4.5-1.2-9.3-3.1-13.6c-1.6-6.8-2.6-13.6-4.3-20.4c-0.4-4.5-2.3-8.7-2.5-13.2c-0.2-3.1-2.4-5.7-2-8.9c0.3-3.1-1.4-5.9-1.6-9
		c-0.2-3.8-2.5-7.1-2.7-11c-2.2-10.7-4.2-21.4-6.4-32.1c-2.3-5.2-2.1-11-3.9-16.3c-0.6-4.8-2.1-9.3-2.7-14.1
		c-1.4-4.9-1.3-10.1-3.3-14.8c-2.1-4.7-1-10-2.8-14.8c-0.7-4.9-4.1-8.7-6.8-12.6c-5.1-6.6-12.5-11.2-20.5-13.4
		c-5.3-1.5-10.8-0.2-16.1-0.2c-12,0.2-23.9,1.6-35.9,1.9c-12,1.7-24.1,0.3-36.1,1.3c-9,0.8-18,0.3-26.9,1.1c-10,1-20-0.1-30,0.8
		c-15,0.9-30,1.4-45.1,1.2c-9.3,0.8-18.7,0.4-28,0.5c-14.3,1-28.7,0.2-43,0.5c-10,0.8-20,0.4-30,0.4c-6.6-1-13.3,0.3-19.9,0.1
		c-18.4,0-36.7,0-55.1,0c-17.7-1.1-35.4-0.2-53-0.6c-7.3-0.7-14.7-0.2-22-0.4c-14.7-1-29.4-1.3-44.1-1.7
		c-10.3-0.9-20.6,0.2-30.9-0.7c-13.7-0.7-27.3-1.8-41-1.7c-10.7-0.6-21.4-1-32-1.8c-4.3-0.7-8.6-0.4-12.9-0.5c-12-0.8-24-2.1-36-2.1
		C317.4-78.5,303.2-74.3,294.5-64.5z"/>
</g>
<g id="_x23_e2ecf4ff">
	<path class="st1" d="M294.5-64.5c8.7-9.8,22.9-13.9,35.5-10.4c12,0,24,1.4,36,2.1c4.3,0.1,8.6-0.2,12.9,0.5
		c10.7,0.7,21.4,1.2,32,1.8c13.7-0.2,27.4,1,41,1.7c10.3,0.9,20.6-0.2,30.9,0.7c14.7,0.5,29.4,0.7,44.1,1.7c7.3,0.2,14.7-0.3,22,0.4
		c17.7,0.4,35.4-0.5,53,0.6c18.3,0,36.7,0,55.1,0c6.6,0.3,13.3-1,19.9-0.1c10,0,20,0.4,30-0.4c14.3-0.3,28.7,0.5,43-0.5
		c9.3-0.1,18.7,0.3,28-0.5c15,0.2,30.1-0.3,45.1-1.2c10-0.9,20,0.2,30-0.8c9-0.9,18-0.4,26.9-1.1c12-1,24.1,0.3,36.1-1.3
		c12-0.3,23.9-1.7,35.9-1.9c5.4,0,10.8-1.3,16.1,0.2c8,2.2,15.4,6.8,20.5,13.4c2.7,3.9,6.1,7.7,6.8,12.6c1.8,4.8,0.8,10.1,2.8,14.8
		c2,4.7,1.8,10,3.3,14.8c0.6,4.8,2.1,9.3,2.7,14.1c0.3,9.8,1,19.5,0.6,29.3c0.7,15.7,0.8,31.3,1.5,47c-0.3,8.7,0.9,17.3,0.5,26
		c0.9,8,0,16,0.9,24c0.3,5-0.2,10,0.3,15c0.6,6-0.2,12,0.5,17.9c0.6,5.7-0.1,11.4,0.5,17c0.6,6-0.2,12,0.5,17.9
		c0.6,5.7-0.1,11.4,0.5,17.1c0.6,6-0.2,12,0.5,17.9c0.6,5.4-0.1,10.8,0.4,16.2c0.7,6.9-0.2,13.9,0.7,20.9c0.1,16,1,32.1,1.1,48.1
		c0.8,7.6,0,15.3,0.9,23c0,10.2,0.6,20.4,0.8,30.6c0.1,9.5-5.8,17.5-11.6,24.4c-3.2,3.5-5.5,8-9.8,10.2c-5.5,2.9-11.3,5.3-17.3,7.3
		c-13.5,2.7-27.2,3.9-40.7,6c-12.6,3.2-25.7,3.4-38.4,6.2c-8.1,1.9-16.5,1.9-24.7,3.4c-8.3,1.5-16.8,1.3-25.1,2.4
		c-6.3,0.9-12.6,0.6-18.9,1.5c-23.9,3.2-48.1,3.1-72,6.2c-6.8,0.5-13.6-0.9-20.3,0.3c-9.2,1.3-18.4,0.7-27.6,1.5
		c-7.7-0.1-15.4,0-23,0.5c-18.7-0.3-37.4,0.6-56-0.7c-5-0.2-10.1,0.3-15-0.7c-4.6-0.9-9.3-0.6-14-0.8c-24.7-1.7-49.5-1.3-74.2-3.6
		c-22-0.3-43.9-2.2-65.8-3.8c-11.4-0.2-22.7-2.1-34-3c-18.1-1.3-36-4-54-5.8c-12.5-2.3-25.4-2.6-37.9-4.9
		c-11.1-1.1-22.1-3.2-33.2-4.4c-5.9-0.5-10.8-4-15.5-7.3c-5.3-3.8-8.6-9.4-12.6-14.4c-2.3-3.1-5.2-6-6.2-9.9
		c-0.4-1.5-0.8-3.1-2.2-3.9c-21.4,144-42.6,288-64.1,432c-2.5,17.3-5.4,34.5-7.4,51.9c-1.7-3.6-0.6-7.6-0.9-11.4
		c0.4-16.7,1.3-33.3,1.5-50c1.5-10.9-0.3-22,0.8-33c1-4.9-0.4-10,0.5-14.9c1.4-7,0.3-14.1,1.2-21.1c0-25-0.1-50.1,1.7-75
		c-0.2-4.3-0.4-8.7,0.4-13c0.4-11-1-22.1,0.9-32.9c0.2-16.7,1-33.3,1.5-50c-0.4-22.4,1.3-44.7,1.6-67c1-11.6-0.2-23.3,0.8-34.9
		c0.4-16.7,1-33.4,1.7-50.1c-0.3-20.7,0.9-41.3,1.5-62c-0.3-3.4,0.6-6.6,0.6-10c-0.7-5.9,2.5-11.3,2.6-17.1
		c2.8-11.2,4.4-22.7,7.2-33.8c0.5-5.2,2.5-10,3.2-15.1c2.3-11.4,4.4-22.8,6.8-34.2c1.4-4.9,2.5-9.9,3-15c2.7-8.9,3.8-18.1,5.9-27.2
		c1.9-11.3,5.5-22.2,6.9-33.5c2.9-11.5,4.8-23.3,7.4-35c0.7-4.1,1.4-8.2,2.7-12.2c2.6-11.9,4.9-23.9,7.4-35.9
		c1.2-2.8,1.4-5.8,1.5-8.8c1.2-4.1,1.5-8.5,3-12.5c3.5-14.2,5.1-28.8,9.2-42.8c1.5-11.2,4.9-21.9,6.5-33.1
		c1.5-7.5,3.3-15.1,4.2-22.7C287.2-54.5,290.8-59.5,294.5-64.5z"/>
	<path class="st1" d="M269.6,389.6c4.8,4.2,8.4,9.6,12.6,14.3c-21.4,166.2-43.1,332.3-64.6,498.4c-0.2,1.4-0.9,2.7-1.5,4
		c-4.5-1.5-6.7-5.8-10.6-8.1c-2.2-1.4-3.7-3.6-5.2-5.6c0.5-0.9,0.9-1.8,1.2-2.7C224.2,723.2,246.8,556.4,269.6,389.6z"/>
	<path class="st1" d="M297.6,410.9c6,0.8,12,1.4,17.9,2.4c1.1,2.6-0.3,5.8-0.4,8.6c-20.8,164.8-41.7,329.5-62.3,494.3
		c-8.1-0.5-16.1-1.8-24-3.3C251.5,745.5,274.8,578.2,297.6,410.9z"/>
	<path class="st1" d="M436,717.8c-0.5-1.1-0.2-2.2,0.7-3c17.5,45.1,34.7,90.3,52,135.4c0.2,1.8,1.8,1.9,3.3,2.3
		c13.7-35.4,27-71,40.6-106.5c13.1,34.3,26.3,68.6,39.3,103c0.6,1.1,0.8,2.6,2,3.3c1.7,0.4,2.4-1.3,2.8-2.5
		c13.8-35.8,27.5-71.6,41.5-107.3c0.1,2.2,0.1,4.4,0.1,6.6c-2.1,2-2.6,5-3.7,7.6c-12.7,33-25.4,66-38.1,98.9c-0.3,2.4-3.7,2.3-4,0
		c-12.1-31.6-24.2-63.2-36.3-94.8c-1.2-3.1-2.1-6.3-3.9-9.1c-13,34.2-26.1,68.5-39,102.7c-0.5,1.2-0.8,2.8-2.3,3.1
		c-1.7,0.2-2.1-1.7-2.6-2.8C471,808.9,453.5,763.4,436,717.8z"/>
	<path class="st1" d="M968.3,714.6c0.8,0.6,1.5,1.3,2.1,2.1c-12.8,17.8-25.4,35.6-38.1,53.5c-4.3,5.7-8,11.8-12.6,17.2
		c0-1.5,0-3.1,0-4.6C935.8,760,952,737.3,968.3,714.6z"/>
	<path class="st1" d="M362.5,737c9.6-3.9,20.6-4.7,30.4-1.1c17.6,6.2,29.7,24.5,29.2,43c-1.7-12-7.4-23.6-17.1-31.1
		c-10.6-8.7-25.7-11.7-38.8-7l-0.4,0.1C364.8,739.5,363.7,738.2,362.5,737z"/>
	<path class="st1" d="M795.8,733.5c6.4,0,12.8,0,19.2,0c0,1.7,0,3.4,0,5.1c-5.8,0-11.6-0.1-17.4,0
		C797.1,736.8,796.4,735.2,795.8,733.5z"/>
	<path class="st1" d="M841,733.5c5.9,0,11.8-0.1,17.7,0.1c11.3,16,22.9,31.8,34,47.9c1.2,1.5,0.8,3.6,1,5.4
		c-2.5-1.7-3.8-4.6-5.6-6.9c-9.9-13.8-19.6-27.8-29.8-41.5c-5.8,0.2-11.5,0-17.3,0.1C841,736.8,841,735.1,841,733.5z"/>
	<path class="st1" d="M644.6,734.9c20.7,0.1,41.4-0.2,62.1,0.2c6.1,10,12.6,19.7,18.7,29.7c-0.6,0.2-1.8,0.6-2.4,0.8
		c-6.1-8.2-10.9-17.3-16.8-25.7c-20.6,0.2-41.2,0-61.7,0.1C644.6,738.2,644.6,736.5,644.6,734.9z"/>
	<path class="st1" d="M736.2,735.4c9.4,0.5,19.3-1.4,28.4,2c5.8,2.1,8.7,8.3,8.5,14.2c-1.9-3.8-4.4-7.7-8.6-9.2
		c-7.8-3-16.4-1.8-24.6-1.9l-0.4,0C738.3,738.8,737.3,737.1,736.2,735.4z"/>
	<path class="st1" d="M336.6,781.9c-0.6-9.8,1.7-19.6,6.3-28.2c19.3,21.2,38.6,42.3,57.9,63.5c-1.1,0.5-2.2,1.1-3.3,1.7
		c-18-20.2-36.4-40.1-54.6-60.1C339.1,765.9,336.7,773.8,336.6,781.9z"/>
	<path class="st1" d="M798.2,759.4c1.3,3.5-0.3,7.1-1.3,10.5c-3.5,11-13.2,19-23.9,22.5c-0.9-1.4-1.7-2.8-2.6-4.1
		c5-1.7,9.9-3.8,14.1-6.9C791.8,776.3,797,768.2,798.2,759.4z"/>
	<path class="st1" d="M310.6,790.9c-0.1-1.2,0-2.3,0.3-3.4c1.9,18.2,11.4,35.4,25.9,46.6c12.7,10,29.1,15.1,45.2,14.4
		c13-0.3,25.5-4.8,36.3-11.9c4.4,3.5,7.9,8.2,12,12.1c0.8,0.8,2.3,2.1,3.5,0.9c5.3-4.5,10.1-9.6,15.3-14.3c0.7,1,1.4,2.1,2,3.1
		c-5.4,5-10.7,10.2-16.1,15.3c-0.9,0.8-2.5,2.2-3.6,0.9c-4.6-4.1-8.4-9.1-13-13.1c-11.6,8.3-26,12.5-40.2,12.1
		c-18.9-0.2-37.6-8.5-50.1-22.8C318,819.9,312,805.6,310.6,790.9z"/>
	<path class="st1" d="M447.2,790.3c0.5,1.2,0.6,2.4,0.4,3.7c-1.3,9-4.3,17.7-8.7,25.7l-0.8-0.6c-0.3-0.3-0.9-0.9-1.1-1.2
		C442,809.4,445.9,800.1,447.2,790.3z"/>
	<path class="st1" d="M644.6,790.6c18.5-0.1,36.9,0.1,55.4-0.1c0.1,1.7,0,3.4-0.1,5.1c-18.4,0.2-36.9,0-55.3,0.1
		C644.6,794,644.6,792.3,644.6,790.6z"/>
	<path class="st1" d="M732.2,791.1c3.2,0,6.4,0,9.5,0c11.3,18.1,22.6,36.1,33.9,54.2c0.6,1.3,1.9,1.8,3.3,1.6
		c8.4,0.1,16.8-0.1,25.2,0c0.9,1.4,1.8,3,1.8,4.8c-9.7,0.5-19.5,0.1-29.2,0.2c-11.9-18.5-23.3-37.2-35-55.7c-3.2,0-6.4,0-9.6-0.1
		C732.2,794.4,732.2,792.8,732.2,791.1z"/>
	<path class="st1" d="M618.3,846.8l0.8,0c37.4,0.2,74.8,0,112.2,0.1h1.1c-0.1,1.6-0.2,3.2-0.3,4.9c-37.7,0.3-75.5,0.1-113.2,0.1
		C618.4,850.2,618.3,848.5,618.3,846.8z"/>
	<path class="st1" d="M814.9,846.7l1.2,0.1c7.9,0.2,15.8,0.2,23.7,0l1.2-0.1c-0.2,1.5,0.3,3.3-0.5,4.8c-1.4,0.7-3.1,0.3-4.6,0.5
		c-6.9-0.2-13.9,0.2-20.8-0.2C815.1,850,815,848.4,814.9,846.7z"/>
	<path class="st1" d="M893.7,846.7c8.4,0.3,16.8,0.2,25.3,0.1l0.8,0c-0.3,1.6,0.5,3.8-0.9,5c-8.4,0.3-16.8,0.1-25.2,0
		C893.5,850.1,893.4,848.4,893.7,846.7z"/>
</g>
<g id="_x23_232527ff">
	<path class="st2" d="M1004.2-3.4c1.8,5.3,1.7,11.1,3.9,16.3c2.2,10.7,4.1,21.4,6.4,32.1c0.2,3.9,2.5,7.2,2.7,11
		c0.2,3.1,2,5.9,1.6,9c-0.4,3.1,1.9,5.8,2,8.9c0.2,4.5,2.1,8.7,2.5,13.2c1.6,6.8,2.7,13.6,4.3,20.4c1.9,4.3,1.8,9.1,3.1,13.6
		c1.2,6,2.4,11.9,3.6,17.9c1.4,4.2,1.1,8.8,2.9,12.9c1,2.2,0.2,4.8,1,7.1c3.6,14.9,6.6,29.9,9.6,44.9c0.5,5.5,3.2,10.5,3.3,16.1
		c3.1,12.9,5.6,25.9,8.1,39c1.3,4.4,1.3,9.1,3.2,13.4c1,8.4,3.8,16.4,4.9,24.7c1.2,7,3.4,13.7,4.1,20.8c0.6,3.7,2.6,7.2,1.9,11
		c-0.5,2.7,0.8,5.3,0.7,8.1c-0.4,7,0.8,14,0.5,21c0.4,5.4,0.6,10.7,0.5,16.1c1.1,10.9,0.1,21.9,0.6,32.9c0.8,5.7,0,11.5,0.7,17.3
		c0.5,4.7-0.2,9.5,0.4,14.3c0.7,5.5-0.1,11.1,0.7,16.7c0.5,11-0.4,22,0.6,32.9c-0.3,8,0.8,16,0.5,24c0.8,6.6,0.1,13.4,0.9,20
		c0.4,10.6-0.4,21.3,0.6,31.9c0,13.4,1.1,26.7,1,40.1c0.1,2.7,1.2,5.3,1,8c-0.1,8,0.2,15.9-0.3,23.9c1.2,5,0.8,10.1,0.5,15.2
		c0.2,2.3,0.9,4.5,0.8,6.9c-0.4,6.7,0.9,13.3,0.5,20c1.1,16.4,0.1,32.8,0.7,49.2c0.8,5.4-0.1,10.9,0.6,16.3c1.1,4,0.8,8.3,0.6,12.4
		c-0.5,2.8,0.9,5.4,0.7,8.2c-0.1,8.3,0.1,16.5-0.2,24.8c1.3,4.9,0.3,10,0.9,15c0.7,5.4,0,10.8,0.6,16.2c0.7,5.3-0.1,10.6,0.6,15.9
		c0.5,6.8,0,13.6-0.1,20.3c-3.1-24.5-7.2-48.9-10.7-73.3c-16.3-109-32.6-218-48.9-327c-4.5-30.5-9.2-60.9-13.6-91.4
		c-0.2-10.2-0.8-20.4-0.8-30.6c-0.9-7.6,0-15.3-0.9-23c-0.1-16-1-32-1.1-48.1c-0.9-6.9,0-13.9-0.7-20.9c-0.5-5.4,0.2-10.9-0.4-16.2
		c-0.7-6,0.1-12-0.5-17.9c-0.7-5.7,0.1-11.4-0.5-17.1c-0.7-6,0.1-12-0.5-17.9c-0.6-5.7,0.1-11.4-0.5-17c-0.7-6,0.1-12-0.5-17.9
		c-0.6-5,0-10-0.3-15c-0.9-8,0-16-0.9-24c0.4-8.7-0.8-17.3-0.5-26c-0.8-15.7-0.8-31.3-1.5-47C1005.1,16.1,1004.4,6.3,1004.2-3.4z"/>
	<path class="st2" d="M999.7,401.8c3-5.7,7.4-10.6,11.4-15.6c22.5,168.4,45,336.8,67.6,505.2c0.2,0.3,0.7,0.9,1,1.3
		c-2.2,3.7-5.6,6.4-8.5,9.5c-2.1,1.4-4.3,2.6-6.4,4c-13.6-106.4-27.5-212.8-41.3-319.2C1015.6,525.3,1007.3,463.5,999.7,401.8z"/>
	<path class="st2" d="M962.7,413c6-1.1,12-2,18.1-2.9c15.8,117.5,31.5,235.1,47.3,352.6c6.6,49.9,13.6,99.8,19.9,149.8
		c0.6,0.1,1.8,0.2,2.5,0.2c-6.4,2-13.3,2.1-19.8,3.7l0-0.5c-0.1-1.3-0.2-2.7-0.3-4C1007.7,745.6,985.4,579.3,962.7,413z"/>
	<path class="st2" d="M351.9,713.5c15.1-6.3,32.4-7,48.1-2.3c16,4.7,30,15.8,38.4,30.2c8.7,14.6,11.7,32.3,8.7,49
		c-1.3,9.8-5.1,19.1-10.2,27.5c0.3,0.3,0.9,0.9,1.1,1.2c4,4.5,8.4,8.8,12.4,13.4c1,1.1-0.9,2.1-1.5,3c-5.2,4.6-10,9.8-15.3,14.3
		c-1.1,1.2-2.6-0.1-3.5-0.9c-4.1-3.9-7.6-8.5-12-12.1c-10.7,7.1-23.3,11.7-36.3,11.9c-16.1,0.7-32.5-4.4-45.2-14.4
		c-14.4-11.2-23.9-28.5-25.9-46.6c-1.7-14,0.2-28.5,6.5-41.2C324.4,731.7,336.9,719.6,351.9,713.5 M362.5,737
		c1.1,1.3,2.3,2.6,3.4,3.9l0.4-0.1c2.3,3.3,5.2,6,7.9,9.1c13.9,15.4,27.9,30.7,41.8,46.1c0.7,0.6,1.3,1.6,2.3,1.8
		c2.4-6,3.7-12.4,3.9-18.8c0.5-18.6-11.6-36.8-29.2-43C383.1,732.2,372.1,733,362.5,737 M336.6,781.9c1,14,8.2,27.8,20.4,35.1
		c12.1,7.6,27.9,8.2,40.6,1.9c1.1-0.6,2.2-1.1,3.3-1.7c-19.3-21.2-38.6-42.3-57.9-63.5C338.2,762.3,336,772.1,336.6,781.9z"/>
	<path class="st2" d="M436.7,714.8c-0.4-1.4-2.3-4.4,0.3-4.6c8.6-0.3,17.3,0,26-0.1c9.5,24.6,18.3,49.4,27.5,74.1
		c1.6-1.9,2.2-4.4,3.1-6.7c8.4-22,16.7-44,25.1-66c0.5-2.4,3.5-1.2,5.3-1.5c7.4,0.4,15.1-0.6,22.3,0.5c9.6,24.7,18.9,49.5,28.3,74.2
		c9.5-24.4,18.3-49.2,27.7-73.7c0.5-1.6,2.6-0.8,3.8-1c47.7,0.1,95.3,0,143,0c13.4-0.4,27.3,3.2,37.9,11.7c0.3-3.8-1-7.8,0.4-11.4
		c27.2-0.6,54.4-0.1,81.6-0.3c2.1,0,4.9-0.5,6,1.9c10.5,14.7,21.1,29.3,31.5,44.1c9.9-13.1,19.1-26.6,28.8-39.8c1.6-2,2.7-4.5,4.8-6
		c9.8-0.1,19.8-0.3,29.6,0.1c1.2,1.6-0.6,2.9-1.4,4.3c-16.3,22.7-32.4,45.4-48.6,68.2c0,1.5,0,3.1,0,4.6c-0.2,16.5,0,33-0.1,49.5
		c-0.2,3.3,0.5,6.8-0.6,10c-8.4,0-16.8,0.2-25.3-0.1c-0.5-20-0.1-39.9-0.1-59.9c-0.2-1.8,0.3-3.9-1-5.4
		c-11.2-16.1-22.8-31.9-34-47.9c-5.9-0.1-11.8,0-17.7-0.1c0,1.7,0,3.4,0,5.1c-0.1,35.7,0.1,71.4-0.1,107.1c-0.3,0.3-0.8,0.8-1,1.1
		c-7.9,0.2-15.8,0.2-23.7,0c-1-0.7-1.3-1.6-1.1-2.8c0-35.1,0-70.3,0-105.4c0-1.7,0-3.4,0-5.1c-6.4,0-12.8,0-19.2,0
		c0.6,1.7,1.3,3.4,1.8,5.1c1.9,6.8,1.8,13.9,0.6,20.8c-1.2,8.8-6.4,16.9-13.6,22c-4.3,3.1-9.2,5.2-14.1,6.9c0.8,1.4,1.7,2.7,2.6,4.1
		c10.8,17.1,21.4,34.3,32.2,51.4c0.9,0.9,0.5,2.1,0.2,3.1l-1.3,0c-8.4-0.1-16.8,0-25.2,0c-1.4,0.2-2.7-0.3-3.3-1.6
		c-11.3-18-22.6-36.1-33.9-54.2c-3.2,0-6.4,0-9.5,0c0,1.7-0.1,3.3-0.1,5c-0.1,14.2,0,28.5,0,42.7c-0.1,2.7,0.5,5.6-0.8,8.1
		c-37.4-0.1-74.8,0.1-112.2-0.1c-0.3-1-0.5-1.9-0.6-2.9c-0.1-31.6,0.2-63.3-0.1-94.9c0-2.2,0-4.4-0.1-6.6
		c-14,35.7-27.6,71.6-41.5,107.3c-0.5,1.2-1.1,2.9-2.8,2.5c-1.2-0.7-1.5-2.2-2-3.3c-13-34.3-26.2-68.6-39.3-103
		c-13.6,35.5-26.9,71-40.6,106.5c-1.4-0.3-3.1-0.5-3.3-2.3C471.4,805,454.2,759.8,436.7,714.8 M644.6,734.9c0,1.7,0,3.4,0,5.1
		c-0.1,8.6-0.1,17.3,0,25.9c16.8-0.1,33.7,0,50.5-0.1c1.6,0.1,3.2-0.2,4.7,0.4c0.8,1.4,0.4,3.2,0.5,4.8c-0.2,6.5-0.1,13-0.2,19.5
		c-18.5,0.2-36.9,0-55.4,0.1c0,1.7,0,3.4,0,5.1c-0.1,8.6,0,17.2-0.1,25.7c20.5,0.1,40.9-0.1,61.4,0.1c0.6-18.4-0.3-37,0.5-55.4
		c6.5-1.1,13.3-0.4,19.9-0.2c-0.1-0.3-0.3-1.1-0.4-1.4l-0.4,0.2c-6.1-10-12.6-19.7-18.7-29.7C686,734.7,665.3,735,644.6,734.9
		 M736.2,735.4c1.1,1.7,2.1,3.4,3.2,5.2l0.4,0c4.5,8.6,10.3,16.5,15.3,25c4.6-0.2,9.5-1.3,13.2-4.3c2.9-2.3,4.3-6,4.8-9.6
		c0.2-5.9-2.7-12.1-8.5-14.2C755.5,734,745.6,735.9,736.2,735.4z"/>
</g>
<g id="_x23_969c9eff">
	<path class="st3" d="M1014.5,364.5c4.3,30.5,9.1,60.9,13.6,91.4c16.3,109,32.6,218,48.9,327c3.5,24.5,7.6,48.8,10.7,73.3
		c-0.3,7.9,2.2,16.1-0.6,23.8c-2,4.6-4.5,8.8-7.4,12.9l-0.2-0.3c-0.2-0.3-0.7-0.9-1-1.3C1056,723,1033.5,554.6,1011,386.2
		c-4,5-8.4,9.9-11.4,15.6c7.7,61.8,15.9,123.5,23.8,185.2c13.7,106.4,27.6,212.8,41.3,319.2l0,0.3c-4.8,1.9-8.8,6.3-14.3,6.3
		c-0.6-0.1-1.8-0.2-2.5-0.2c-6.4-50-13.3-99.8-19.9-149.8c-15.8-117.5-31.5-235.1-47.3-352.6c-6.1,0.8-12.1,1.8-18.1,2.9
		c22.7,166.3,45,332.7,67.6,499c0.2,1.3,0.3,2.6,0.3,4c-9.5,0.9-19.1,0.2-28.6,0.4c-177,0-354,0-531.1,0
		c-72.7-0.1-145.4,0.2-218.1-0.2c20.6-164.8,41.5-329.5,62.3-494.3c0.1-2.8,1.5-6,0.4-8.6c-5.9-1-12-1.6-17.9-2.4
		c-22.8,167.3-46,334.6-68.8,502c-4.6-1.4-8.8-3.8-12.7-6.5c0.6-1.3,1.3-2.6,1.5-4c21.5-166.2,43.2-332.3,64.6-498.4
		c-4.3-4.7-7.8-10.1-12.6-14.3c-22.8,166.8-45.4,333.6-68.1,500.4c-0.3,0.9-0.7,1.8-1.2,2.7c-3.1-3.4-5.1-7.7-7.2-11.8
		c-3-6.3-0.9-13.3-1.1-20c0-1.9,0.7-3.7,0.8-5.6c2-17.4,4.8-34.6,7.4-51.9c21.5-144,42.7-288,64.1-432c1.4,0.9,1.7,2.5,2.2,3.9
		c1.1,3.8,3.9,6.8,6.2,9.9c4,5,7.4,10.6,12.6,14.4c4.6,3.3,9.6,6.8,15.5,7.3c11.1,1.2,22.1,3.2,33.2,4.4c12.5,2.3,25.4,2.5,37.9,4.9
		c18,1.8,35.9,4.5,54,5.8c11.4,0.8,22.6,2.7,34,3c21.9,1.6,43.8,3.5,65.8,3.8c24.7,2.2,49.5,1.9,74.2,3.6c4.7,0.2,9.4-0.2,14,0.8
		c4.9,1,10,0.5,15,0.7c18.6,1.3,37.4,0.5,56,0.7c7.7-0.5,15.3-0.6,23-0.5c9.2-0.8,18.4-0.2,27.6-1.5c6.8-1.1,13.5,0.2,20.3-0.3
		c23.9-3.1,48.1-3,72-6.2c6.2-0.9,12.6-0.7,18.9-1.5c8.3-1.1,16.8-0.9,25.1-2.4c8.2-1.5,16.6-1.5,24.7-3.4c12.7-2.7,25.8-3,38.4-6.2
		c13.6-2.1,27.3-3.3,40.7-6c5.9-1.9,11.7-4.3,17.3-7.3c4.4-2.2,6.7-6.7,9.8-10.2C1008.8,382,1014.6,374,1014.5,364.5 M351.9,713.5
		c-15.1,6.2-27.5,18.2-34.5,32.9c-6.3,12.7-8.2,27.2-6.5,41.2c-0.3,1.1-0.4,2.3-0.3,3.4c1.5,14.7,7.4,29,17.3,40
		c12.5,14.2,31.2,22.6,50.1,22.8c14.2,0.4,28.6-3.9,40.2-12.1c4.7,4,8.5,9,13,13.1c1.1,1.3,2.7-0.1,3.6-0.9
		c5.4-5.1,10.7-10.2,16.1-15.3c-0.7-1-1.4-2.1-2-3.1c0.6-0.8,2.5-1.8,1.5-3c-4-4.6-8.3-8.8-12.4-13.4l0.8,0.6
		c4.4-8,7.4-16.7,8.7-25.7c0.2-1.3,0.1-2.5-0.4-3.7c3-16.7,0-34.4-8.7-49c-8.4-14.4-22.4-25.5-38.4-30.2
		C384.4,706.5,367,707.2,351.9,713.5 M436.7,714.8c-0.9,0.9-1.2,1.9-0.7,3c17.5,45.6,35,91.1,52.5,136.8c0.5,1.2,0.9,3,2.6,2.8
		c1.5-0.4,1.8-2,2.3-3.1c13-34.3,26-68.5,39-102.7c1.8,2.8,2.6,6.1,3.9,9.1c12.1,31.6,24.1,63.2,36.3,94.8c0.3,2.3,3.7,2.4,4,0
		c12.8-33,25.4-66,38.1-98.9c1.1-2.6,1.6-5.6,3.7-7.6c0.3,31.6,0.1,63.3,0.1,94.9c0.1,1,0.3,1.9,0.6,2.9l-0.8,0
		c0,1.7,0.2,3.4,0.5,5.1c37.7,0,75.5,0.2,113.2-0.1c0.1-1.6,0.2-3.3,0.3-4.9h-1.1c1.3-2.5,0.7-5.4,0.8-8.1c0-14.2-0.1-28.5,0-42.7
		c3.2,0,6.4,0,9.6,0.1c11.7,18.6,23.1,37.3,35,55.7c9.7-0.1,19.5,0.3,29.2-0.2c-0.1-1.8-0.9-3.3-1.8-4.8l1.3,0
		c0.3-1.1,0.7-2.2-0.2-3.1c-10.7-17.1-21.4-34.3-32.2-51.4c10.7-3.5,20.4-11.5,23.9-22.5c0.9-3.4,2.6-7.1,1.3-10.5
		c1.3-6.9,1.4-14-0.6-20.8c5.8-0.1,11.6,0,17.4,0c0,35.1,0,70.3,0,105.4c-0.2,1.2,0.2,2.1,1.1,2.8l-1.2-0.1c0.1,1.7,0.2,3.3,0.3,5
		c6.9,0.5,13.8,0.1,20.8,0.2c1.5-0.2,3.2,0.3,4.6-0.5c0.8-1.4,0.3-3.2,0.5-4.8l-1.2,0.1c0.3-0.3,0.8-0.8,1-1.1
		c0.2-35.7,0-71.4,0.1-107.1c5.8-0.1,11.5,0.1,17.3-0.1c10.2,13.6,19.9,27.6,29.8,41.5c1.8,2.3,3,5.2,5.6,6.9
		c0,20-0.3,39.9,0.1,59.9c-0.3,1.7-0.2,3.4,0.1,5.1c8.4,0.1,16.8,0.3,25.2,0c1.4-1.2,0.6-3.4,0.9-5l-0.8,0c1.1-3.2,0.4-6.7,0.6-10
		c0-16.5-0.1-33,0.1-49.5c4.6-5.4,8.3-11.5,12.6-17.2c12.7-17.8,25.3-35.7,38.1-53.5c-0.6-0.8-1.3-1.5-2.1-2.1
		c0.8-1.3,2.5-2.7,1.4-4.3c-9.8-0.5-19.8-0.3-29.6-0.1c-2.1,1.5-3.2,4-4.8,6c-9.6,13.3-18.9,26.8-28.8,39.8
		c-10.4-14.8-21-29.4-31.5-44.1c-1.1-2.4-3.9-1.8-6-1.9c-27.2,0.2-54.4-0.3-81.6,0.3c-1.4,3.6-0.2,7.6-0.4,11.4
		c-10.6-8.4-24.5-12-37.9-11.7c-47.7,0-95.3,0-143,0c-1.2,0.3-3.4-0.6-3.8,1c-9.4,24.5-18.1,49.3-27.7,73.7
		c-9.4-24.8-18.7-49.6-28.3-74.2c-7.2-1.1-14.9-0.1-22.3-0.5c-1.8,0.3-4.8-0.9-5.3,1.5c-8.4,22-16.7,44-25.1,66
		c-0.9,2.3-1.5,4.8-3.1,6.7c-9.3-24.7-18.1-49.5-27.5-74.1c-8.6,0-17.3-0.2-26,0.1C434.4,710.3,436.4,713.3,436.7,714.8z"/>
	<path class="st3" d="M366.3,740.8c13-4.6,28.1-1.7,38.8,7c9.6,7.5,15.4,19.1,17.1,31.1c-0.2,6.4-1.5,12.8-3.9,18.8
		c-1-0.2-1.6-1.1-2.3-1.8c-13.9-15.4-27.9-30.7-41.8-46.1C371.5,746.8,368.6,744,366.3,740.8z"/>
	<path class="st3" d="M644.5,739.9c20.6-0.1,41.2,0.1,61.7-0.1c5.9,8.4,10.7,17.5,16.8,25.7c0.6-0.2,1.8-0.6,2.4-0.8l0.4-0.2
		c0.1,0.4,0.3,1.1,0.4,1.4c-6.6-0.2-13.5-0.9-19.9,0.2c-0.8,18.4,0.1,36.9-0.5,55.4c-20.5-0.2-40.9,0-61.4-0.1
		c0-8.6-0.1-17.2,0.1-25.7c18.4-0.1,36.9,0.1,55.3-0.1c0.2-1.7,0.2-3.4,0.1-5.1c0.2-6.5,0-13,0.2-19.5c-0.1-1.6,0.3-3.3-0.5-4.8
		c-1.5-0.6-3.2-0.4-4.7-0.4c-16.8,0.1-33.7,0-50.5,0.1C644.5,757.2,644.4,748.5,644.5,739.9z"/>
	<path class="st3" d="M739.8,740.5c8.2,0.1,16.8-1.1,24.6,1.9c4.2,1.5,6.7,5.4,8.6,9.2c-0.5,3.6-1.9,7.3-4.8,9.6
		c-3.7,3.1-8.5,4.1-13.2,4.3C750.2,757,744.3,749.2,739.8,740.5z"/>
	<path class="st3" d="M336.6,781.9c0.2-8.1,2.6-16,6.3-23.1c18.2,20,36.6,39.9,54.6,60.1c-12.7,6.3-28.5,5.7-40.6-1.9
		C344.7,809.7,337.6,795.8,336.6,781.9z"/>
</g>
</svg>
