<?xml version="1.0" encoding="utf-8"?>
<!-- Generator: Adobe Illustrator 19.0.0, SVG Export Plug-In . SVG Version: 6.00 Build 0)  -->
<svg version="1.1" id="Layer_1" xmlns="http://www.w3.org/2000/svg" xmlns:xlink="http://www.w3.org/1999/xlink" x="0px" y="0px"
	 viewBox="402 -124.1 708.5 794.3" style="enable-background:new 402 -124.1 708.5 794.3;" xml:space="preserve">
<style type="text/css">
	.st0{fill:#FF0000;}
	.st1{fill:#13151C;}
	.st2{fill:#FFFFFF;}
</style>
<g id="_x23_ff0000ff">
	<path class="st0" d="M515.5-92.6c71.4-20.1,145.5-29.6,219.5-31.3c50.8-1.1,101.7,1.7,152.1,8.6c43.8,6,87.2,15.2,129.3,28.5
		c32.6,10.5,64.7,23.4,94.1,41.1c0,175.9,0,351.8,0,527.8c-35.6,35-76.1,64.8-118.9,90.3c-52.1,31-107.7,56.1-164.9,76.3
		c-23.2,8-46.6,15.7-70.5,21.5c-36.6-9.1-72.3-21.5-107.4-35.3c-68-27.1-133.7-61.4-192.2-105.7c-19.2-14.6-37.5-30.3-54.6-47.2
		c0-175.9,0-351.8,0-527.8C437.3-66.8,476.1-81.2,515.5-92.6 M533.4-72.6c-38.5,10.8-76.5,24.7-110.9,45.3
		c-0.1,165.6,0,331.2,0,496.8c15.2,15.1,31.5,29.1,48.5,42.2c53.9,41.3,114.4,73.5,177.1,99.1c35,14.1,70.7,26.5,107.2,35.8
		c7.4-1,14.6-3.7,21.9-5.6c61.7-18.2,121.7-42.7,178.1-73.7c48.5-26.8,94.6-58.8,134.1-97.8c-0.1-165.6,0-331.2-0.1-496.9
		c-22-13.2-45.7-23.6-69.8-32.3c-42-15-85.6-25-129.6-31.6c-49.9-7.5-100.5-10.6-151-9.7C669.7-99.5,600.3-91,533.4-72.6z"/>
</g>
<g id="_x23_13151cff">
	<path class="st1" d="M533.4-72.6c66.9-18.4,136.3-27,205.6-28.4c50.5-0.9,101,2.2,151,9.7c44,6.7,87.7,16.7,129.6,31.6
		c24.2,8.7,47.8,19.1,69.8,32.3c0.1,165.6,0,331.2,0.1,496.9c-39.5,39-85.6,71-134.1,97.8c-56.4,31-116.4,55.5-178.1,73.7
		c-7.3,1.9-14.5,4.6-21.9,5.6c-36.5-9.3-72.3-21.7-107.2-35.8c-62.8-25.6-123.3-57.7-177.1-99.1c-17-13.1-33.3-27.1-48.5-42.2
		c0-165.6,0-331.2,0-496.8C456.9-47.9,494.9-61.7,533.4-72.6 M577.5-30.4c-36.3,9-72.3,21.1-105,39.4c0.1,66.9,0,133.8,0,200.8
		c25.1-14,52.1-24.3,79.6-32.5c42.4-12.5,86.2-19.9,130.2-23.8c-15.2,9.2-30.4,18.3-45.7,27.4c8.4,0,16.8,0,25.2,0
		c0,26.3,0,52.5,0,78.8c-19.2,19.8-42.1,35.8-66.5,48.5c-37.7,19.6-80.3,29.8-122.8,28.1c26.4,21.4,54.7,40.3,84.3,56.9
		c34-7.6,66.4-21.5,96.1-39.4c28.7-17.4,54.7-39.2,76.2-64.9c0.6-0.9,1.8-1.7,1.6-3c0-65.4,0-130.7,0-196.1
		c-64,2-128.1,10.7-189.3,30c0-22.2,0-44.3,0-66.5c-11.5,0-23,0-34.5,0c17.4-7.7,35.6-13.5,53.9-18.6
		c40.2-11.1,81.5-17.9,123.1-21.5c45.9-3.9,92.1-4.1,138-0.5c45.7,3.7,91.2,11.1,135.3,23.8c16.2,4.7,32.3,10,47.7,16.9
		c-11.5,0-23,0-34.4,0c0,14.4,0,28.8,0,43.2c4-4.9,8-9.8,12-14.8c19.9,6.5,38.9,15.6,56.9,26.3c0-33,0-66.1,0-99.1
		c-37.3-20.7-78.4-33.6-119.9-42.8C869.7-44.7,818.8-49.8,768-50.5C704-51.3,639.7-45.5,577.5-30.4 M781.1,89.8
		c0,64,0,128.1,0,192.1c0.1,2.3-0.5,4.9,1,7c8.4,14.1,18.3,27.4,30.7,38.3c11.3,9.9,24,18.3,37.2,25.5c0-57.3,0-114.5,0-171.8
		c8.4,0,16.8,0,25.2,0c-15.2-9.1-30.5-18.2-45.6-27.4c37,3.3,73.7,9.1,109.7,18.2c34.6,8.9,68.8,20.6,100.1,38c0-20.2,0-40.4,0-60.6
		c-35.6-19.8-74.8-32.4-114.4-41.6C877.7,96.7,829.4,91.3,781.1,89.8 M970.4,220.8c0,69.2,0,138.3,0,207.5
		c-37.4,23.2-76.2,44.1-116.5,61.7c-31.7,13.7-64.3,25.6-97.9,33.9c-31-7.5-61.1-18.3-90.5-30.7c-37.2-15.7-73.1-34.3-107.8-55
		c-29.3-17.6-58-36.4-85.2-57.1c0,23.7,0,47.4,0,71.1c51.8,42.5,111.1,74.9,172.1,102.1c36.3,15.9,73.3,30.4,111.3,41.7
		c6.1-1.6,12-3.7,18-5.6c38.6-12.9,76.5-28.1,113.4-45.3c53.8-25.3,106-55.1,152-93c0-67.1,0-134.2,0-201.3
		C1017.4,238.6,994.3,228.4,970.4,220.8z"/>
</g>
<g id="_x23_ffffffff">
	<path class="st2" d="M577.5-30.4C639.7-45.5,704-51.3,768-50.5c50.9,0.8,101.8,5.8,151.5,16.7c41.5,9.2,82.6,22.1,119.9,42.8
		c0,33,0,66.1,0,99.1c-18-10.6-37-19.8-56.9-26.3c-4,4.9-8,9.8-12,14.8c0-14.4,0-28.8,0-43.2c11.5,0,23,0,34.4,0
		c-15.4-6.9-31.5-12.2-47.7-16.9C913,23.8,867.5,16.4,821.8,12.7c-45.9-3.6-92.1-3.4-138,0.5c-41.5,3.7-82.9,10.4-123.1,21.5
		c-18.3,5.1-36.5,10.9-53.9,18.6c11.5,0,23,0,34.5,0c0,22.2,0,44.3,0,66.5c61.2-19.3,125.3-28,189.3-30c0,65.4,0,130.7,0,196.1
		c0.2,1.2-1,2.1-1.6,3c-21.6,25.7-47.6,47.5-76.2,64.9c-29.8,17.9-62.2,31.8-96.1,39.4c-29.6-16.6-58-35.5-84.3-56.9
		c42.5,1.7,85.1-8.5,122.8-28.1c24.4-12.7,47.3-28.7,66.5-48.5c0-26.3,0-52.5,0-78.8c-8.4,0-16.8,0-25.2,0
		c15.2-9.2,30.5-18.2,45.7-27.4c-44,3.9-87.8,11.4-130.2,23.8c-27.5,8.2-54.5,18.5-79.6,32.5c0-66.9,0-133.8,0-200.8
		C505.2-9.3,541.1-21.4,577.5-30.4z"/>
	<path class="st2" d="M781.1,89.8c48.3,1.5,96.7,6.9,143.8,17.6c39.6,9.2,78.8,21.8,114.4,41.6c0,20.2,0,40.4,0,60.6
		c-31.3-17.4-65.5-29.1-100.1-38c-36-9.1-72.8-14.9-109.7-18.2c15.2,9.2,30.4,18.2,45.6,27.4c-8.4,0-16.8,0-25.2,0
		c0,57.3,0,114.5,0,171.8c-13.2-7.3-25.9-15.6-37.2-25.5c-12.4-10.8-22.3-24.2-30.7-38.3c-1.5-2-1-4.6-1-7
		C781.1,217.9,781,153.9,781.1,89.8z"/>
	<path class="st2" d="M970.4,220.8c24,7.6,47,17.8,68.9,30.1c0,67.1,0,134.2,0,201.3c-46,37.9-98.2,67.6-152,93
		c-36.9,17.2-74.8,32.4-113.4,45.3c-6,1.9-11.9,4-18,5.6c-38-11.4-75-25.8-111.3-41.7c-61-27.2-120.3-59.6-172.1-102.1
		c0-23.7,0-47.4,0-71.1c27.2,20.7,55.8,39.5,85.2,57.1c34.7,20.6,70.6,39.2,107.8,55c29.4,12.3,59.5,23.1,90.5,30.7
		c33.6-8.3,66.2-20.2,97.9-33.9c40.3-17.6,79.2-38.4,116.5-61.7C970.4,359.1,970.4,290,970.4,220.8z"/>
</g>
</svg>
