<?xml version="1.0" encoding="utf-8"?>
<!-- Generator: Adobe Illustrator 19.0.0, SVG Export Plug-In . SVG Version: 6.00 Build 0)  -->
<svg version="1.1" id="Layer_1" xmlns="http://www.w3.org/2000/svg" xmlns:xlink="http://www.w3.org/1999/xlink" x="0px" y="0px"
	 viewBox="168.2 -92 931.7 1023.7" style="enable-background:new 168.2 -92 931.7 1023.7;" xml:space="preserve">
<style type="text/css">
	.st0{fill:#413051;}
	.st1{fill:#BD5104;}
	.st2{fill:#FD6A02;}
	.st3{fill:#850700;}
	.st4{fill:#FF8B26;}
	.st5{fill:#FEFEFE;}
	.st6{fill:#E9DF04;}
	.st7{fill:#BDBDBD;}
	.st8{fill:#1A131F;}
	.st9{fill:#2D2137;}
	.st10{fill:#402F4F;}
	.st11{fill:#73090D;}
	.st12{fill:#8A1317;}
	.st13{fill:#C1C1C1;}
	.st14{fill:#FFED00;}
	.st15{fill:#009819;}
	.st16{fill:#1FB538;}
	.st17{fill:#C2B500;}
	.st18{fill:#EFEFEF;}
	.st19{fill:#9E0A02;}
	.st20{fill:#A20A02;}
	.st21{fill:#008216;}
	.st22{fill:#09070B;}
	.st23{fill:#A3140D;}
</style>
<g id="_x23_000000ff">
	<path class="st0" d="M345.3-10.8c0,0,0,0.1,0,0.1c-0.3,2,1.5,3.9,3.1,4.9c2.7,4.2,6.2,7.7,9.6,11.1c1.3,1.3,2.6,2.5,3.8,3.8
		c3.3,3.4,7.8,4.6,11.8,5.4l1.8,0.3l0.5-1.8c0.1-0.3,0.1-0.7,0.2-1c1.3,4.8,2.7,9.6,6.3,13.5l0.3,0.3c3.8,4.1,7.7,8.4,11.9,12.2
		l1.6,1.4l1.3-1.7c2.5-3.1,6.2-7.7,5-13.1c-0.9-4.8-4.5-7.6-7.8-10c1.1-0.2,2.3-0.4,3.5-0.5c1.1-0.2,2.3-0.3,3.5-0.5l4.1-0.7
		l-3.2-2.7c-5.5-4.7-11.7-8.5-17.7-12.2c-2.3-1.4-4.7-2.8-7-4.3l0.4-0.2l0.1-0.1c2.9-2.1,6.7-2.4,10.5-2.7c0.5,0,0.9-0.1,1.4-0.1
		c0.7,0,1.4-0.1,2.1-0.1c5.4,0,11,1.3,16.3,3.9c4.9,2.3,10,4.4,14.9,6.5c2.3,0.9,4.6,1.9,6.9,2.9L431,4l0.8-0.4
		c0.2-0.1,0.6-0.3,1-0.4c-1.7,2-3.5,4.1-5.4,5.9c-8.2,7.1-14.7,16.6-18.8,27.5c-4.3,11.8-5.1,21.8-2.5,30.6l0.5,1.7l1.7-0.2
		c3.2-0.4,6.2-0.7,9-0.7c3.9,0,7.5,0.5,10.8,1.4c-5.7,1.5-12.4,4.5-16.7,10.5c-3.6,5.1-4.6,11.9-3,20.3l0.7,3.9l2.7-2.9
		c3-3.3,6.6-7.2,9.8-11.1c5.5-4.6,11.3-8.1,17.3-10.3l0.2-0.1l0.2-0.1c4.3-2.7,9.4-4.1,14.8-4.1c4.8,0,9.6,1.2,13.9,3.4l2.8,1.4
		l0.1-3.2c0.2-5.7-1-11.2-2.3-16.8l-0.7-2.9l-2.1,0.7c-2.1,0.7-4,1.6-6,2.5c-3.7,1.7-7.2,3.3-10.9,3.3c-0.5,0-1.1,0-1.6-0.1
		c-2-0.5-3-2.6-4.2-5.7c-0.2-0.5-0.4-1-0.6-1.5l-0.5-1.2l-1.4,0c-2.1,0-4.3,0.1-6.3,0.3c0.2-0.1,0.6-0.4,0.6-0.4l0.1-0.1
		c3.9-3.9,9.6-5.5,14.2-6.5c2.1-0.4,4.2-0.6,6.3-0.6c6.7,0,12.6,2.1,16.8,5.8c4.9,4.2,7.9,11,8.5,19.3c0.5,4.3,0,8.6-0.5,13.1
		c-0.3,3.1-0.7,6.3-0.7,9.6l0,0.2l0,0.2c0.5,3.2,1.4,6.4,2.4,9.3l1,3.3l2.3-2.5c2.6-2.8,5.8-5,9.4-6.5l1-0.4l0.2-1.1
		c0.2-1.6,0.5-2.7,1.3-3.2l0.1-0.1c4.2-3,7.9-4.5,11.4-4.5c0.1,0,0.2,0,0.3,0c0.4,0.3,0.7,0.7,1,0.9l1,0.9l1.2-0.6
		c2.9-1.4,5.4-2.3,8-2.5l0.7,0c1.5,0.1,3,0.3,4.5,0.5l4.8,0.5l-1.5-3.2c-2.1-4.7-5.1-8.9-8-13l1.6,1.1l-0.3-4.2
		c-0.9-12.7,3.3-23.5,11.3-28.8c10.4-7,23.3-8,34.6-8c3.2,0,6.5,0.1,9.6,0.2l4.8,0.1l-1.8-3.1c-3-5-7.4-8.4-11.8-11.7
		c-0.1-0.1-0.2-0.2-0.3-0.2c2.1-0.2,4.3-0.3,6.8-0.3c3.3,0,6.5,0.1,9.6,0.3l3.4,0.1l-1.6-3.1c-3.5-6.8-9.2-12.1-14.3-16.4
		c-16.3-12.7-32.9-20.5-49.2-23.2c-3.6-0.7-7.2-0.7-10.7-0.7c-2,0-4,0-5.9-0.2c2.9-6.6,7.8-12.4,12.6-18l0.9-1
		c5.2-5.7,11.4-11.9,18.8-16.4c-3.5,5-7,10.2-8.7,16.4l-1,3.6l3.6-1.2c1.3-0.4,2.6-0.9,3.8-1.3c0.9-0.3,1.8-0.7,2.8-1
		c-0.5,1.4-1.2,2.8-1.9,4.3c-0.7,1.4-1.4,2.8-1.9,4.3c-1.1,2.7-1.2,5.4-1.3,8.1l-0.1,2.5l1.5,0.4c3.1,0.9,6.1,1.7,9.2,2.6
		c1.7,0.5,3.5,1,5.2,1.5l2.5,0.7l0-2.6c0-3.5,0-7.1,0-10.6c0-6.8,0-13.8,0-20.7c0.9-1.3,2-2.5,3.2-3.8c2.9-3.1,6.1-6.5,5.8-11.6
		c0.3-5.4,0.5-11.2,0.5-17.1v-2.3l-2.3,0.3c-9.4,1.3-18.4,4.3-25.9,7.1c-10.9,4-26.1,11-32.1,25.3c-2.1,3.3-3.5,6.9-5,10.5
		c-1.4,3.4-2.7,6.7-4.6,9.7c0.2-1.3,0.4-2.7,0.8-4.2L494-42l-3.2,0.8c-5.1,1.3-10.1,3.3-14.8,5.1c-2.8,1.1-5.6,2.2-8.5,3.2
		c-3.1,1.2-6.4,2.3-9.5,3.3c-5.6,1.8-11.4,3.8-16.7,6.5l-4.6,2.4l2.9,0.8c-2.5-0.2-4.9-0.3-7.3-0.5c-4.5-0.3-9.1-0.7-13.7-0.9
		l-6.1-0.3l4.8,3.8c0.7,0.6,1.4,1.1,2.1,1.6c1.1,0.8,2.2,1.6,3.1,2.5c-0.6-0.2-1.2-0.5-1.8-0.8c-2.1-0.9-4.4-1.9-6.7-2.4
		c-8.2-2-17-3.7-27.6-5.4l-0.1,0l-0.1,0c-0.7,0-1.3,0-2,0c-11,0-21.4,3.7-31.5,7.3c-1.4,0.5-2.9,1-4.3,1.5c-1.5,0.3-2.3,1-2.6,1.7
		l-1.3-0.6L345.3-10.8z M524.9,23.6c1.2,3.5,2,7,0,9.4c-3.9,4.5-10.1,5.8-16.1,7.1c-0.7,0.1-1.4,0.3-2,0.4l-1.4,0.3l-0.1,1.2
		c0.1-1.6,0.3-3.2,0.6-4.7c1.7-6.2,5.2-11,9.6-13.1c3.9-1.9,8.1-2.9,12.3-3.7c-0.1,0-0.2,0.1-0.3,0.1l-3.3,1L524.9,23.6z"/>
	<path class="st0" d="M589.1,73.9l-0.1-0.2l-0.1-0.2c-1.3-1.8-3.3-2.8-5-3.6c-0.4-0.2-0.8-0.4-1.2-0.6l-0.1-0.1
		c-8.1-3.9-15.8-7.1-23.4-9.8l-3.3-1.2l0.6,3.4c1,5.6,3.2,10.9,5.3,16.1c2.6,6.5,5.1,12.6,5.5,19.3c0.1,0.7,0.1,1.4,0.1,2.2
		c0.1,3.7,0.3,7.8,3.5,10.9c4.3,4,8.3,7.5,13,10.1l2.6,1.4l0.9-6.5c1.4-10.2,2.9-20.8,3.1-31.4c0-0.4,0-0.8,0-1.2
		C590.3,79.7,590.3,76.8,589.1,73.9z"/>
	<path class="st0" d="M535.4,94.2c-0.3,2.4-1.2,4.6-2.2,7c-1.2,3-2.4,6-2.6,9.5c-0.1,0.6-0.1,1.3-0.2,1.9c-0.1,1.4-0.2,2.8-0.7,3.9
		c-3.7,5.9-10.8,9.5-18.4,9.5c-2,0-4-0.3-6-0.8c-3.5-0.9-5.5-4-6.4-5.7l-0.5-1.1l-1.2,0c-6.6-0.1-13-1.7-19.5-3.5l-5.4-1.5l3.3,4.6
		c2.2,3.1,5,6.1,8.4,9.1l-0.1,0l2.1,1.6c0.9,0.8,1.9,1.5,2.9,2.3l0,0c8.5,6.8,16,11.4,23.4,14.7l0.1,0.1c0.4,0.1,0.8,0.3,1.2,0.4
		c1.4,0.6,3,1.2,4.8,1.2c0.3,0,0.6,0,0.9-0.1l0.5-0.1l0.4-0.3c2.9-1.9,5.3-4.2,7.7-6.5c0.5-0.5,1.1-1,1.6-1.5l0.1,0l0.5-0.5l4-3.7
		l-0.6,0c0.2-0.2,0.3-0.4,0.5-0.5c6.4-6.8,13-13.8,18.5-21.7l0-0.1l0-0.1c4.8-8.3,9.1-17.3,8.2-26.9l0-0.1l0-0.1
		c-1.6-8.2-5-15.7-10.1-21.9l-1.3-1.6l-1.5,1.3c-5.9,4.9-9,12-11.4,18.9c-1,2.5-0.9,5-0.7,7.4c0.1,1.6,0.2,3.1-0.1,4.5L535.4,94.2z"
		/>
	<path class="st0" d="M470,119.5l-0.1-0.8l-0.1,0c-0.4-2.6-0.8-5.3-1.3-8.4l-0.2-1.1l-1-0.4c-3-1.2-6-2.6-9-4l-1.7-0.8l-0.9,1.6
		c-3.3,5.6-6.3,11.5-4.4,18.1c1,7.8,2.5,16.9,6.8,25l1.3,2.5l1.9-2c3.9-4.2,7.1-9.3,9.5-15.3l0.1-0.2l0-0.2c0.6-3.1,0.2-6.1-0.3-9
		l0.1,0.1L470,119.5z"/>
	<path class="st0" d="M709.4,906.6L709.4,906.6l-3.7-2c0,0,0,0,0,0l0,0c-15.4-8.3-26.9-17.5-35.3-28c-3.3-4.1-5.4-9.2-7-13.8l0,0
		l-0.6-1.6l-0.8-2.3l-0.1,0.1c-1-2.6-2.2-5.2-3.2-7.5l-0.7-1.6l-1.7,0.5c-2.7,0.8-5.3,1.8-7.8,2.9c-2.2,0.9-4.3,1.8-6.5,2.5
		c-5.1,1.6-9.4,3-13.7,4.6l-0.8,0.3c-3.3,1.2-6.7,2.4-10.1,2.4c-0.5,0-0.9,0-1.4-0.1c-5.1-0.5-10.3-1.6-15.3-2.7
		c-1.3-0.3-2.6-0.6-4-0.8l-2.3-0.5l-0.1,2.3c-0.2,4-0.2,8.1-0.2,12.1c0,6.1,0.1,12.3-0.9,18.3l-0.3,1.7l1.6,0.5
		c2,0.7,4.1,1.4,6.1,2.1c2.7,0.9,5.4,1.9,8.2,2.8l2.6,0.9l0-2.7c0.1-5.2,0.2-10.5,0.4-15.9c0.7,0.7,1.4,1.5,2.1,2.3
		c0.5,0.6,1,1.1,1.4,1.6c3.7,4.2,8.1,7.7,12.3,11.1c1.1,0.9,2.2,1.8,3.3,2.7c1.6,1.3,3.2,2.8,4.7,4.2c2.1,1.9,4.2,4,6.6,5.7
		c11.2,8.4,22.6,13.8,33.9,16c3.6,0.7,7.4,1.1,11.1,1.1c11.7,0,23-3.5,31.8-10l2.4-1.8l-2.5-1.6
		C716.1,910.4,712.8,908.5,709.4,906.6z"/>
	<path class="st0" d="M559.9,857c-4.6,2.2-9,4.2-13.9,4.3c-0.2,0-0.7,0-0.7,0c-6.7,0-13.6-2.4-21.3-7.3c-2.5-3-5.8-5.7-10-8.4
		l-1.4-0.9l-1.1,1.3c-1.8,2-3.5,4.1-5.1,6.1c-4,4.9-7.7,9.5-12.7,13c-5.7,4.2-12.9,7.1-22.8,9c-2.5,0.4-5,0.8-7.4,1.2
		c-4.9,0.8-9.9,1.6-14.8,2.7l-5,1.1l4.4,2.6c5.2,3,11.2,5.6,18.3,8c11.7,3.7,24.1,4.3,36.1,4.8l2.6,0.1l0.1,0
		c8.3-0.4,15.8-3.4,23.1-6.3c6-2.4,11.8-4.7,17.9-5.6c1.1,2.9,2.5,5.9,4.8,8.4l0.5,0.6l0.8,0.1c1.7,0.1,3.1,0.2,4.4,0.2
		c5.2,0,9.3-0.8,12.8-2.5l1-0.5l0.1-1.1c0.4-5.3,0.9-10.8,1.4-16c0.5-5.5,1-11.2,1.4-16.8l0.2-2.7l-2.6,0.6
		C567,853.7,563.4,855.4,559.9,857z"/>
	<path class="st0" d="M562.7,199c-1.8,10.6-4.9,21.2-7.9,31.4c-3.7,12.6-7.5,25.7-9,39.2l-0.6,5.3l3.9-3.6
		c5.1-4.7,8.2-10.9,11.2-16.8c0.3-0.7,0.7-1.4,1.1-2.1c6.3-13.3,11.4-26.8,16.1-39.4c1.1-3,2.2-6,3.2-9c4.9-13.5,9.9-27.4,13.3-41.6
		c3.1-12.6,6-26.2,6.2-40.1l0.1-3.5l-3,1.7c-1.4,0.7-2.7,1.5-4,2.3c-1.8,1.1-3.7,2.2-5.7,3.2c0,0-0.2,0-0.4,0
		c-0.8-0.8-1.6-1.5-2.5-2.3c-3.8-3.6-7.7-7.4-12.6-9.9l-2.9-1.5l-0.1,4.3c-0.1,3.8-0.2,7.8,0.2,11.8
		C570.2,153.1,566.4,177.9,562.7,199z"/>
	<path class="st0" d="M462.1,151.9c-1.5,2.6-2.9,5-4.6,7.3c-2.3-0.8-4.5-1.5-6.6-2.1l-3.3-1l0.8,3.4c1.4,6.1,4.1,11.7,6.9,17.4
		c8.7,16.8,16.4,29,24.8,39.7c8.9,11.4,19.5,22.8,32.7,34.8c1.5,1.4,3.1,2.7,4.7,4.1c3.2,2.8,6.5,5.6,9.5,8.7
		c2.3,2.4,4.5,4.3,6.7,5.8l5.1,3.4l-2.1-5.8c-3.7-10.3-9.7-19.5-15.5-28.5c-3-4.7-6.2-9.5-8.9-14.4c-1.9-3.5-3.5-7.4-5-11.1
		c-1.2-3-2.4-6.1-3.9-9l-4.1-8.4c-4.6-9.5-9.3-19.1-13.9-28.6c-0.6-1.3-1.2-2.6-1.9-3.8c-1.8-3.6-3.6-7.3-4.9-11.2
		c-1.5-4.7-3.2-8.5-5.1-11.7l-1.3-2.1l-1.8,1.7C466.8,143.6,464.4,147.8,462.1,151.9z"/>
	<path class="st0" d="M781.7,366.5c-7.4,7.6-18,12-29,12c-0.9,0-1.7,0-2.6-0.1c-12.3-0.8-22-2.7-30.7-5.9l-2.1,3.3
		c1.8,1.8,4.1,3.8,7,4.9c8.4,3.5,21,8.2,34.1,8.2c2,0,3.9-0.1,5.8-0.3c8.7-1,16.8-6.6,24.2-16.8l0.1-0.1l0.7-1.2
		c2.9-4.9,5.8-9.9,6.7-15.8l1-6.9l-4.5,5.3c-1.5,1.8-3,3.8-4.4,5.6C785.9,361.6,783.9,364.2,781.7,366.5z"/>
	<path class="st0" d="M1050.2,226.7C1020.6,162.4,975.6,105,920,60.6c-54.3-43.5-118.8-74.4-186.4-89.3
		c-32.4-7.2-65.9-10.8-99.5-10.8c-25.1,0-50.3,2-75.1,6.1l-1.9,0.3l0.3,1.9c0.2,1.1,0.3,2.3,0.4,3.5c0.3,3.9,0.7,7.9,3,11.4l0.1,0.1
		l0.1,0.1c3.2,3.5,6.8,6.6,10.2,9.6c2.2,1.9,4.4,3.9,6.5,5.9c8.6,8.3,16.6,16.7,20.2,27.1c-0.9-0.1-1.8-0.3-2.8-0.4
		c-3-0.4-6.1-0.9-9.2-1.2l-4.1-0.4l2.2,3.5c3.2,5,5.8,9.7,7.8,14.2c-2.1-0.4-4.1-0.9-6.2-1.3c-4.3-1-8.8-1.9-13.3-2.7l-5-0.8l3.2,4
		c1.3,1.7,2.8,3.3,4.2,4.9c2.3,2.6,4.5,5,6.2,7.8c-2,0.1-4,0.1-6,0.2c-2.3,0.1-4.7,0.1-7,0.2l-6.9,0.4l6.1,3.3
		c10.8,6,22.7,9.6,34.2,13c2.5,0.8,5,1.5,7.6,2.3c2.6,0.9,5.4,1.8,8.4,1.8c0.3,0,0.7,0,1,0c5.5-0.3,11.1-0.4,16.6-0.4
		c22.2,0,44.9,2.3,67.4,6.7c63.2,12.6,123.6,44.2,170.1,89.1c45.1,43.1,77.5,97.7,93.8,157.7c19.9,73,15,151.4-13.6,220.8
		c-23.5,57.4-62.2,107.4-112,144.7c-53,39.9-118.1,64-183.2,67.9l-1.9,0.1l0.1,4.5c0.3,12.7,0.6,25.8,4.1,38.4
		c2.4,8.8,5.8,17.5,10,25.8c1.8,3.5,2.8,7.3,3.1,11.1c-0.7,0.4-1.3,0.8-2,1.3c-1.8,1.1-3.6,2.3-5.4,3.6l-0.7,0.6l0,0.9
		c-0.3,7.8,3.4,14.5,7.1,20.9c1,1.7,1.9,3.3,2.7,4.9l0.6,1.2l1.3-0.1c42-3.7,83.5-13.5,123.4-28.9c39.8-15.4,77.1-36.2,110.7-61.8
		c62.7-47.3,112.4-110.2,143.7-181.8c25.4-57.8,38.7-122.1,38.4-185.9C1092.1,351.3,1077.6,285.6,1050.2,226.7z M841.1,90.3
		c-4.8,6.6-9.4,13.4-13.9,20.1l-0.1,0.1c-3.2-2-6.3-4.2-9.3-6.3c-0.7-0.5-1.3-0.9-2-1.4c10.3-14.9,20.7-30,30.8-44.6l5.8-8.5
		c2.1,1.4,4.2,2.9,6.2,4.3c5.5,3.8,11.3,7.7,16.6,11.9c2.9,2.2,7.9,6.9,8.4,13.2c0.8,7.4-3.3,15.3-10.3,19.6c-2,1.2-4.4,1.8-7.1,1.8
		c-2.4,0-5-0.5-7.7-1.5l-2.7-1l0,2.9c0,5.4-0.1,11-0.2,16.3c-0.1,4.3-0.2,8.7-0.2,13.1c-2.4-1.7-4.9-3.4-7.2-5c-2-1.4-4-2.8-6-4.2
		c0.2-3,0.5-6.1,0.7-9.1c0.5-6.7,1.1-13.6,1.5-20.5l0.4-6.8L841.1,90.3z M784.1,65.1c3.6-8.6,7.4-17.5,10.8-26.4l0.7-1.9l-1.9-0.7
		c-4.1-1.6-8.3-3.4-12.2-5c0.2-0.5,0.5-1.1,0.7-1.6c1.3-3.1,2.7-6.3,4-9.5c13.9,5.6,27.8,11.5,42,17.4c-1.6,3.8-3.2,7.5-4.6,11.1
		c-3.4-1.2-6.7-2.7-10-4.1l-4.1-1.8l-0.8,1.8c-4,9.3-8,18.8-11.8,28c-2.5,6.1-5.1,12.3-7.7,18.5c-4.5-1.9-9.1-3.8-13.5-5.6
		C778.4,78.6,781.3,71.8,784.1,65.1z M897.5,100.2l9.6-11.9c3.7,3,7.5,6.1,11.6,9.3c-7.7,9.7-15.6,19.4-23.2,28.9
		c-5.8,7.1-11.5,14.3-17.3,21.4c-2.1-1.7-4.3-3.4-6.3-5.1c-1.7-1.4-3.5-2.8-5.2-4.2C876.9,125.7,887.4,112.8,897.5,100.2z
		 M966.2,203l-0.7,0.4c-3.4,2-6.7,4.1-10.1,6.1c-4.8,2.9-9.7,5.9-14.6,8.8c-1.6-2.7-3.2-5.4-4.8-8c-0.9-1.5-1.8-3-2.7-4.4
		c18.5-11.1,37.1-22.4,55.2-33.4c1.2,1.9,2.3,3.8,3.4,5.7c1.3,2.2,2.7,4.5,4.1,6.7c-5.3,3.4-10.8,6.7-16.2,9.9
		c-2.9,1.7-5.8,3.4-8.6,5.2L966.2,203L966.2,203z M958.9,161.2c-0.3-6.2-2.3-11-5.9-14.3c-3.4-3.7-8.4-5.9-13.8-5.9
		c-2.9,0-5.8,0.6-8.4,1.9c-8.1,3.9-13.5,11.2-14.1,18.9c-0.7,6.6,2.6,13.4,8.3,17.5c3.1,2.4,6.8,3.4,10.6,3.8
		c-3.5,3.2-7.1,6.5-10.5,9.9c-8.8-3.6-16-10.2-19.8-18.4c-4.3-9.6-3.3-21.5,2.5-30.4c5.8-8.8,14.4-14.9,23.5-16.6
		c2.3-0.4,4.5-0.5,6.7-0.5c4.6,0,8.8,0.8,12.4,2.5c8.7,3.9,15.7,12,19.1,21.9C966,154.5,962.6,157.7,958.9,161.2z M958.8,247.8
		c-1.6-2.6-3.2-5.3-4.8-7.9c3.4-8.1,6.9-16.2,10.2-24.2l5.3-12.5l2.7,0.2c7,0.6,14,1.1,20.9,1.5c5.2,0.3,10.6,0.6,15.9,1
		c1.4,2.3,2.7,4.5,4.1,6.8c1.5,2.5,3,5,4.5,7.4c-12.6-1.3-25-2.6-37.7-3.9l-1.5-0.2l-0.6,1.4c-2.1,5.4-4.1,10.9-6.1,16.1
		c-2.7,7.1-5.4,14.5-8.3,21.7C961.9,252.9,960.3,250.4,958.8,247.8z M1029.3,459.6l-0.6-2.8l-2.5,1.5c-4.9,3.1-10,6.2-14.9,9.1
		c-3.3,2-6.8,4.1-10.2,6.2c0.2-5,0.4-10.3,0.7-16.1l0,0c0.2-0.1,0.4-0.2,0.6-0.3c0.3-0.1,0.5-0.3,0.7-0.4c3.1-1.7,6.3-3.3,9.3-4.8
		c5.2-2.6,10.5-5.4,15.6-8.4l5.7-3.4l-6.7-0.3c-8.1-0.4-16.4-0.8-24.4-1.2c0.3-4.5,0.5-9.1,0.7-13.5c10.7,0.5,21.4,1,32.2,1.6
		c10.7,0.5,21.5,1.1,32.2,1.6c-0.2,6.3-0.5,12.6-0.9,19.5c-0.1,0.9-0.1,1.8-0.2,2.6c-0.4,6.1-0.9,12.4-4.6,17.2
		c-3.3,4.3-8.7,6.7-14.9,6.7c-3.6,0-7.1-0.8-10.2-2.5C1031.9,469.1,1030,463,1029.3,459.6z M1054.8,379.2l-2,0.2
		c-2.2,0.2-4.3,0.4-6.5,0.6c-1.8,0.2-3.6,0.4-5.4,0.5l-2,0.2l0.2,2c0.4,4.8,0.9,9.6,1.4,14.2c0.2,2.1,0.5,4.1,0.7,6.2
		c-2.9,0.3-5.8,0.6-8.6,0.9c-0.7,0.1-1.3,0.1-2,0.2c-0.5-4.6-1-9.2-1.4-13.7c-0.2-2.2-0.5-4.4-0.7-6.6l-0.2-2l-2,0.2
		c-4,0.4-8.1,0.8-11.5,1.2l-1.9,0.2l0.2,1.9c0.4,4.9,0.9,9.8,1.5,14.5c0.3,2.4,0.5,4.8,0.8,7.2c-2.7,0.2-5.3,0.5-7.9,0.8
		c-1.1,0.1-2.2,0.2-3.3,0.4c-1.4-12.9-2.8-25.6-4-37.9c17.9-1.8,40.9-4.2,64.1-6.8c0.9,7.3,1.7,14.6,2.4,21.8
		c0.5,5.3,1.1,10.7,1.7,16c-1.1,0.1-2.2,0.2-3.3,0.4c-2.5,0.3-5.1,0.6-7.7,0.8c-0.3-2.6-0.5-5.2-0.8-7.7c-0.5-4.5-1-9.2-1.4-13.8
		L1054.8,379.2z M1060.9,341.5c-1.4,0.3-2.8,0.7-4.1,1c-2.5,0.6-5.1,1.3-7.7,1.9c-0.3-1.2-0.6-2.5-0.9-3.7c-0.8-3-1.5-6-2.2-9.1
		l-0.4-2l-2,0.5c-8.3,1.9-16.7,4.1-24.8,6.1c-7.9,2-16.1,4.1-24.2,6c-0.9-3.8-1.9-7.6-2.8-11.3c-0.2-1-0.5-1.9-0.7-2.9
		c6.9-1.7,13.8-3.5,20.7-5.2c9.4-2.4,18.7-4.7,28.1-7l1.9-0.5l-1.5-5.8c-0.8-3-1.6-6.1-2.3-9.2c3-0.7,6-1.5,8.9-2.2
		c1-0.2,1.9-0.5,2.9-0.7c1.6,6.5,3.3,13,4.9,19.5C1056.8,325.2,1058.8,333.4,1060.9,341.5z M981.8,273c0.3,5.4,2.5,9.6,6.1,11.7
		c1.3,0.8,2.7,1.2,4.3,1.2c4.1,0,8.7-3,9-7.8c0.3-3.1-0.1-6.1-0.4-9c-0.3-2.7-0.6-5.3-0.4-7.9l0-0.1c0.1-4.7,1.7-8.7,4.5-11
		c3.7-3.1,8.6-4.8,13.4-4.8c3,0,5.8,0.7,8.3,2c10.8,5.7,14.2,19.4,12.9,30.3c-0.1,0-0.2,0-0.3,0c-2.4,0-4.8-0.1-7.1-0.1
		c-1,0-2,0-3.1-0.1c1.3-6.3,0.6-11.6-2.1-15.6c-1.5-2.3-3.9-3.3-5.9-4l-1-0.4l-0.7,0.2c-5.3,1.9-6.5,5-6.5,7.3
		c-0.1,3,0.2,5.9,0.5,8.8c0.5,4.6,0.9,8.9-0.1,13.1c-2.7,8.3-12.5,10.9-15.4,11.5c-1.2,0.3-2.5,0.4-3.8,0.4
		c-6.2,0-12.4-3.1-16.3-8.1c-4.2-5.4-6.7-12.1-7.1-18.9c-0.3-4.2,0.8-8.4,1.9-12.3c3,0.3,5.9,0.8,8.8,1.3c1,0.2,2.1,0.3,3.1,0.5
		C983,264.7,981.8,268.7,981.8,273z M1049.2,538.1c-2.8-2.3-5.6-4.4-8.2-6.3c5.7-5.3,8.2-10.8,7.4-16.2c-0.5-3.5-3.7-6.2-7.4-6.2
		c-2.1,0-4,0.9-5.3,2.4c-2.1,2.5-3.7,5.3-5.3,8c-2.2,3.7-4.2,7.3-7.3,9.9c-2.9,2.4-6.5,2.9-9,2.9c-2.1,0-4.3-0.3-6.4-1
		c-6.3-1.7-11.4-5.9-13.7-11.4c-3.9-8.4-1.1-17.7,0.9-22.6c2.7-6.5,7.5-10.9,11.5-13.6c2.2,1.7,4.1,3.8,6.2,6
		c0.8,0.8,1.5,1.6,2.3,2.4c-6.2,3.6-12.4,9.4-12,17.6c0.1,4.7,4.3,8.7,9.2,8.7c1.4,0,2.7-0.3,4-1l0.1-0.1l0.1-0.1
		c3.2-2.3,5-5.5,6.8-8.7c0.7-1.2,1.3-2.4,2.1-3.5c2.5-4,6.1-8.7,11.3-9.7c0.9-0.2,1.9-0.2,2.8-0.2c3.8,0,7.8,1.2,11.4,3.5
		c6.2,4,9.6,12.1,8.3,19.8C1057.8,526,1054.3,533,1049.2,538.1z"/>
	<path class="st0" d="M495.5,855.6l0.9-0.9c0.6-0.6,1.2-1.2,1.7-1.9c3.4-3.6,7-7.3,8.8-12.3l0.3-0.8l-0.3-0.7
		c-1.2-2.6-3.1-4.6-5-6.5c-0.2-0.2-0.4-0.4-0.6-0.6c0.9-0.9,1.8-1.7,2.6-2.6c3.5-3.5,6.7-6.8,10.7-9.4c4-2.7,3.9-7.3,3.9-10.9
		c0-1.1,0-2.1,0-3.1c0.2-0.1,0.5-0.2,0.8-0.3c1.7-0.6,4.2-1.6,4.7-4.5c0.5-3.2,0.4-6.4,0.2-9.5c-0.1-2.3-0.2-4.4,0-6.6
		c0.1-2.4,0.9-4.8,1.7-7.3c0.7-2,1.3-4,1.7-6.1c1-5.7,0.8-11.5,0.7-17.1c-0.1-2.2-0.1-4.6-0.1-6.8l0-1.5l-1.4-0.5
		C473,728,424.1,697.1,385.5,656.6c-45.5-47.4-77.2-108.8-89.4-173c-10.7-56.2-7.3-114.3,9.7-168.2
		c18.7-59.7,53.5-113.2,100.6-154.6c2.5-1.7,2.9-4.3,3.3-6.4c0.2-1.5,0.4-2.8,1.3-3.6c2.2-2.3,4.3-4.7,6.3-6.9
		c2.9-3.2,5.8-6.5,8.9-9.6l0.1-0.1c3-3.4,6.3-6.6,9.6-9.7c6-5.7,12.2-11.6,16.4-19.2l1.8-3.1l-3.6,0.1c-7.3,0.3-14,3.1-18.5,7.9
		c-2.3,2.5-4.3,5.2-6.2,7.8c-1.3,1.7-2.6,3.5-3.9,5.1c-0.1-0.1-0.1-0.2-0.2-0.3c-2.6-3.8-3.2-8.7-3.8-13.5c-0.1-0.8-0.2-1.5-0.3-2.3
		l-0.5-3.5l-2.8,2.2c-2.6,2.1-4.5,4.8-6.1,7.6c-3.2-5.7-4.8-13-5-22.6l-0.1-4.1l-3.2,2.5c-1.1,0.9-2.5,2-3.8,3.3
		c-2.7-5-4.4-10.4-5.2-15.9c-1-5.9-0.9-12-0.9-18c0-3.2,0-6.6-0.1-9.8c0-4.6-2.6-8.3-4.8-11.5l-1.7-2.4l-1.6,1.1
		c-29.6,19.4-57.2,42.6-82,69c-50.1,53.2-87.1,118.3-106.9,188.3c-26.3,92.2-22.7,192.5,10.1,282.2
		c23.9,65.8,63.5,126.3,114.5,174.8c50.6,48.2,111.7,84.5,176.7,104.9L495.5,855.6z M242.7,479.9c7.9-3.3,15.9-6.7,23.8-10
		c0.4,1.8,0.9,3.5,1.3,5.3c0.6,2.6,1.3,5.1,1.9,7.6c-3.7,1.5-7.5,3-11.1,4.5c-9.1,3.7-18.6,7.6-28.1,10.6c-1.7,0.4-2,2.1-2.2,2.7
		l-1.2,5.7l4.4-3.8c0.4-0.4,1-0.5,2-0.5c0.4,0,0.7,0,1.1,0c0.4,0,0.9,0,1.3,0c0.3,0,0.7,0,1,0c6.8,0.2,13.8,0.4,20.5,0.7
		c5.7,0.2,11.6,0.5,17.4,0.6l0.2,0.7c0.7,2.8,1.4,5.7,2.1,8.5c-5,2.8-10,5.8-14.9,8.6c-3.2,1.9-6.3,3.7-9.5,5.5
		c-1.1,0.6-2.3,1.3-3.4,2c-3.6,2.1-7,4.1-10.8,5.6L237,535l0.5,1.7c0,0.2,0.1,0.5,0.2,0.6l0.5,2.4l2.3-1c2.1-1,4.5-1.2,7-1.6
		c1.1-0.1,2.2-0.3,3.4-0.5l4.6-0.5c8.9-1,18-2.1,27-3c0.5,2,1,3.9,1.5,5.8c0.6,2.3,1.2,4.7,1.7,7.1c-12.4,1.1-25,2.3-37.2,3.4
		c-9.1,0.9-18.5,1.7-27.8,2.6c-1.2-5.2-2.5-10-3.7-14.7c3.9-2.3,7.9-4.7,11.7-6.9c8.6-5.1,17.5-10.4,26.5-15.2l-1-3.8
		c-1.4,0-2.7,0-4.1,0c-7.6,0-15.4-0.4-23-0.8c-5.6-0.3-11.3-0.6-17-0.7c-1.3-4.9-2.6-9.9-3.7-15
		C218.5,490.1,230.8,484.9,242.7,479.9z M290.3,569.8c-1.4,1.2-2.8,2.5-4.3,3.8l-1.2,1l0.6,1.4c2.3,4.9,4.7,9.8,7,14.5
		c1.5,3.1,3.1,6.3,4.6,9.4l0.7,1.4l1.5-0.3c1.4-0.2,2.7-0.5,4.1-0.7c2.2-0.4,4.5-0.8,6.8-1.2c1.6,2.6,3,5.5,4.4,8.5
		c0.7,1.4,1.3,2.9,2.1,4.3c-12.1,1.6-24.4,3.1-36.3,4.5c-10.3,1.3-20.9,2.6-31.4,3.9c-1.2-2.4-2.3-4.7-3.5-7.1
		c-1.8-3.7-3.7-7.5-5.6-11.3c17.1-17.3,32.7-32.9,48.2-48.4c0.9,2,1.9,3.9,2.8,5.8c1.1,2.3,2.3,4.6,3.4,6.9
		C293,567.4,291.7,568.6,290.3,569.8z M275.5,652.1c0.9-0.6,1.7-1.2,2.6-1.8c1.8,2.6,3.6,5.1,5.3,7.7c2.3,3.3,4.7,6.8,7,10.2
		l1.1,1.7l1.7-1.1c3.9-2.6,7-4.8,9.9-6.9l1.6-1.2l-1.2-1.6c-2.8-3.8-5.5-7.8-8.1-11.6c-1.2-1.7-2.3-3.4-3.5-5.1
		c3.2-2.2,6-4.1,8.8-6.1c1.5,2.1,3,4.3,4.4,6.3c2.3,3.4,4.8,7,7.3,10.4l1.1,1.5l1.6-0.9c2.2-1.3,4.2-2.8,6.2-4.2
		c1.1-0.8,2.2-1.6,3.4-2.4l1.7-1.1l-1.2-1.7c-2.4-3.4-4.8-6.8-7.1-10.2c-1.8-2.5-3.5-5.1-5.3-7.6c1.3-0.9,2.6-1.8,3.8-2.7
		c1.8-1.2,3.6-2.5,5.4-3.8c5.8,8.2,11.5,16.5,17.1,24.6c1.5,2.2,3.1,4.4,4.6,6.7c-9,6.2-18.2,12.6-27,18.7c-8.5,5.9-17.3,12-26,18.1
		c-6.6-9.6-14.2-20.5-21.7-31.2C271.1,655.1,273.4,653.6,275.5,652.1z M306.9,703.8c2.2-2.1,4.4-4.2,6.7-6.3
		c1.1,1.2,2.3,2.5,3.4,3.7c1.9,2,3.7,4,5.6,6l1.4,1.5l1.5-1.4c11.6-10.7,23.3-21.7,34.6-32.3l2.2-2.1c3.9,4.1,7.2,7.5,10.1,10.8
		c-6.5,6.1-13,12.1-19.5,18.2c-5.7,5.4-11.5,10.7-17.2,16.1l-1.4,1.3l1.3,1.5c1.9,2.2,3.9,4.3,5.9,6.4c1.1,1.1,2.2,2.3,3.3,3.5
		c-2.8,2.6-5.6,5.2-8.3,7.8l-0.6,0.6c-6.2-6.5-12.5-13.2-18.6-19.7c-4.2-4.5-8.3-8.9-12.5-13.4C305.5,705.2,306.2,704.5,306.9,703.8
		z"/>
	<path class="st0" d="M849,86.6c2.9,1.9,6.2,4.1,10,4.1c1.1,0,2.2-0.2,3.2-0.5l0.1,0l0.1-0.1c4.6-2.3,7.5-7.6,6.9-12.4l0-0.2l0-0.2
		c-1.3-4.5-5.1-7.1-8.5-9.3c-0.5-0.3-1-0.7-1.4-1l-1.7-1.2l-1.1,1.7c-1.4,2.1-2.9,4.2-4.3,6.3c-2,2.8-4,5.7-5.9,8.7l-1.1,1.7
		l1.7,1.1C847.7,85.8,848.3,86.2,849,86.6z"/>
	<path class="st0" d="M839.1,280.6l1-1.3l-1-1.2c-4.6-5.3-9.7-11.8-13.4-19.2l-1.1-2.2l-1.9,1.5c-1,0.8-2.1,1.5-3.2,2.3
		c0-0.9-0.3-6.4-0.3-6.4l-3,2.3c-1.8,1.4-3.5,2.9-5.2,4.3c-1.9,1.6-3.9,3.3-6,4.9c-1.3,1-2.6,2-3.9,2.9c-2.3,1.6-4.6,3.3-6.7,5.3
		l-5.5,5.4l7.4-2c4-1.1,8-2.5,12.2-4.4c3.6,3.5,7,7.3,10.3,10.9c2.4,2.7,5,5.5,7.5,8.2l1.4,1.4l1.7-1.6
		C832.7,288.3,836,284.7,839.1,280.6z"/>
	<path class="st0" d="M822.5,334.5c-1.5,14.3-6.8,27.4-15.2,38c-6.7,8.5-15.4,16-25.3,21.7c-1.5,0.9-2.9,1.9-4.3,2.9
		c-0.7,0.5-1.5,1-2.2,1.5l1.4,3.6c19.5-2.7,37.3-16.1,45.3-34.1c5.7-10.9,7.2-23,4.3-33.9L822.5,334.5z"/>
	<path class="st0" d="M1052.5,457.8l0.1-0.1c3.7-3.2,3.9-8.2,4.1-12.2c0-0.7,0.1-1.5,0.1-2.2l0.1-2l-2-0.1c-2-0.1-4-0.2-6-0.3
		c-4-0.2-8-0.4-12.1-0.6l-2.1-0.1l0,2.1c0,0.7,0,1.5-0.1,2.3c-0.2,4.2-0.3,8.9,3,12.5l0.1,0.1l0.1,0.1c2,1.7,4.7,2.7,7.6,2.7
		c2.5,0,4.9-0.7,6.9-1.9L1052.5,457.8z"/>
	<path class="st0" d="M278.9,583.7l-1.2-2.4l-2,1.8c-2.5,2.3-5.1,4.8-7.5,7.1c-5.4,5.1-10.9,10.3-16.7,15.1l1.7,3.5
		c7.4-1.6,14.9-2.8,22.3-3.9c3.4-0.5,6.7-1.1,10.1-1.6l2.7-0.5l-1.2-2.4c-1.8-3.7-3.7-7.4-5.5-11.1
		C280.7,587.4,279.8,585.6,278.9,583.7z"/>
	<path class="st0" d="M589.4,853.8c-0.2-2.8-2.2-4.6-5.1-4.6c-2.9,0-6.2,2-6.6,5.2c-0.9,5.3-0.9,10.7-0.9,16l0,3.3l1.8,0.2
		c3.2,0.3,6.1,0.6,8.7,0.9l2.2,0.2l-0.1-2.2c-0.1-2.6,0-5.2,0-7.7C589.6,861.3,589.7,857.5,589.4,853.8z"/>
	<path class="st0" d="M596.2,848c1.3,1,2.7,2.1,4,3.2c2.9,2.4,5.9,4.8,9.2,6.9l0.5,0.3l0.5,0c0.3,0,0.6,0,0.9,0
		c6.3,0,12.1-2.2,17.8-4.3c2.6-1,5.3-2,7.9-2.7l0.1,0c1.7-0.6,3.4-1,5.3-1.5c4.2-1.1,8.5-2.2,12.1-5c1.3-1,2.7-1.7,4.2-2.5
		c1.6-0.8,3.2-1.6,4.7-2.7l0.9-0.7l-0.1-1.1c-0.6-8.1-2.5-15.2-5.7-21l-0.7-1.2l-1.4,0.2c-3.6,0.6-5.2,3.7-6.4,6.2
		c-0.3,0.7-0.7,1.4-1,1.9c-0.7,0.4-1.3,0.9-2,1.4c-5.4,3.7-11,7.6-17.3,8.3l-0.5,0c-2.5,0.2-5,0.4-7.4,0.4c-1.9,0-3.7-0.1-5.2-0.4
		c0.8-0.3,1.8-0.5,3.1-0.7c0.8-0.1,1.6-0.3,2.3-0.5l0.3-0.1c5.6-1.2,12.6-2.7,16.8-7.8c4-2.9,6-7.5,7.5-11c0.3-0.8,0.7-1.6,1-2.4
		c1.5-3.3,3-6.8,3.7-10.6c0.8-4.1,0.1-8.2-0.6-12.1l-0.2-1c-1.4-7.7-1.8-15.7-2.1-23.5c-0.1-2.1-0.2-4.2-0.3-6.3
		c-0.2-3.2-0.3-6.3-0.5-9.5c-0.9-18.8-1.8-38.3-5.3-57.2c-0.4-2.1-1.1-4.1-1.9-6l-1.2-3.1l-2.2,2.6c-1.4,1.7-2.8,3.3-4.2,5l-0.7,0.8
		l0,0.1c-0.1,0.1-0.1,0.1-0.2,0.2c-0.4,0.3-1,0.9-1.4,0.9c0,0,0,0,0,0l-0.1,0l-0.1,0c-3.9-0.8-9.1-2.6-12-6.8
		c-1.9-2.7-3.5-5.8-4.9-9.2c1.4,1.9,3,3.7,5,5.2c3,2.3,6.4,3.6,9.5,3.6c0.8,0,1.6-0.1,2.4-0.2l0.7-0.2l0.4-0.6
		c1.8-2.3,2.8-4.9,3.7-7.5c0.3-0.7,0.5-1.4,0.8-2.1l0-0.1c0.4-1.1,0.8-2.3,1.2-3.4c1.6-4.5,3.3-9.2,3.3-14.2c0.2-7.4,0-14.8-0.2-22
		c-0.1-5.2-0.3-10.7-0.3-16l0-2.1c0-6.4,0.1-12.9,1.1-19.2c0.2,0.8,0.3,1.6,0.5,2.4l0.8,3.6l2.7-2.7c1-1.1,2.5-2.5,2.6-4.7
		c0.4-2.1,0.7-4.1,1.1-6.2c2.8-16,5.7-32.5,5.5-49.1c-0.2-11.9,0.9-23.9,2-35.6c1.3-14.2,2.6-29,1.7-43.7l-0.1-0.8
		c-0.5-4.4-1.1-9.8-5.3-13.2c-4.1-3.1-8.4-6.1-12.5-9.1c-8.6-6.1-17.5-12.5-25.4-19.8c-6.9-6.3-14.8-11.4-22.5-16.4
		c-6.2-4-12.7-8.2-18.4-12.9l-0.2-0.1l-0.2-0.1c-0.2-0.1-0.5-0.3-0.7-0.5c-0.8-0.6-1.9-1.5-3.3-1.5c-0.8,0-1.5,0.3-2.1,0.8l-0.2,0.2
		l-0.2,0.2c-1.3,1.7-2.4,3.6-3.4,5.5c-1.2,2.2-2.4,4.3-3.9,6c-2.7,3-5.6,5.9-8.5,8.7c-4.1,4.1-8.4,8.3-12,13l-0.3,0.3
		c-5.9,7.8-12.1,15.9-16.8,24.8c-1.8,1.8-3.2,3.8-4.5,5.7c-0.8,1.1-1.5,2.2-2.4,3.3c-1.3,1.7-2.7,3.4-4,5c-1.8,2.2-3.6,4.4-5.2,6.7
		c-2.3,3.2-1.9,7.1-1.6,10.2l0.1,1.1c1.3,8.7,2.1,17.7,2.9,26.4c0.8,9.2,1.7,18.8,3.1,28c1.8,14.4,4.1,27,7.1,38.5
		c0.9,3.3,1.7,6.6,2.6,10c4,15.8,8.2,32.1,12.8,48l0.7,2.4l2.2-1.3c5.7-3.3,10-8.1,13.8-13.1c-1.5,2.8-2.9,5.7-4.2,8.6
		c-3,3.8-6.2,7.9-9.9,11.3l-0.7,0.6l0.1,0.9c0.2,4.1,1,8.2,1.7,12.1c0.6,3.6,1.3,7.3,1.6,10.9c1.3,18.7,0.2,36.3-3.3,52.4
		c-2.2,10.4-3.3,21.7-3.6,35.3c-0.1,4.8-0.6,9.6-1,14.3c-0.7,7.4-1.4,15-0.9,22.6l0,0.6l0.3,0.5c1.5,2.1,4.2,2.6,6.3,3
		c0.5,0.1,1,0.2,1.4,0.3c1.4,0.3,2.9,0.6,4.3,0.9c3.7,0.7,7.2,1.4,10.1,3c-0.2,0-0.4,0-0.6,0c-2.9,0-5.9-0.1-8.8-0.3
		c-2.6-0.1-5.2-0.2-7.8-0.3l-0.4,0c-1.2,0-2.5,0.1-3.7,0.3L530,794l-0.5,0.6c-3.2,4.1-5.2,9.2-5.4,14.2l0,0.3l0.1,0.3
		c1.1,4.1,4.4,6.8,7.4,9.1l1,0.8l0.1,0.1c5.4,3.4,10.8,5.5,16.3,6.2l0.1,0l0.1,0c0.1,0,0.2,0,0.2,0c-0.2,0.1-0.3,0.1-0.5,0.1
		c-0.9,0.1-1.9,0.1-2.9,0.1c-5.6,0-11.5-1.4-17.1-3.9l-0.2-0.1l-0.2,0c-0.3-0.1-0.8-0.3-1.3-0.5c-1-0.4-2-0.9-3.3-0.9
		c-1.1,0-2.1,0.4-3,1.2c-4.5,3.4-8,7.2-10.4,11.3l-0.7,1.2l0.9,1.1c3.7,4.6,8,8.8,12.6,12.6l0,0.2l0.7,0.5c0.9,0.6,1.8,1.3,2.7,2
		c4.4,3.4,9,6.9,14.8,8l0.4,0.1l0.4-0.1c4.1-1,7.7-3.7,10.1-5.7c2.1-0.5,4.2-1.3,6.1-2.3c3.8-2,7.9-3.3,12.3-4.5
		c2.2-0.6,4.5-1.3,6.7-2.1l1.4-0.5l-0.1-1.5c-0.2-3.6,0.4-7.1,1-10.8c0.7-4.3,1.4-8.7,0.9-13.3c-0.4-3.8-0.5-7.7-0.5-11.5
		c0-5.8-0.1-11.9-1.5-17.7c-2.7-11.2-2.3-23-1.9-34.5c0.4-12.2,2.4-24.4,4.3-36.3c1.2-7.8,2.5-15.9,3.4-23.9
		c0.1-1.2,0.2-2.4,0.3-3.7c0.4-4.8,0.8-9.7-0.1-14.6l0.3-1.7l1.1-6.2l-4.4,4.4c-2.2,2.2-3.5,5.1-4.6,7.8c-1,2.3-1.9,4.5-3.3,6.1
		c0.6-2.4,1.6-4.8,2.7-7.3c0.7-1.7,1.5-3.5,2.1-5.3c3.7-9.4,5.5-18.9,5.4-28.3c0.4-14.1-2.8-27.9-5.8-41.3l-0.2-0.7
		c0-3.9-0.6-7.8-1.2-11.5c-0.2-1.6-0.5-3.2-0.7-4.9c-2.6-16.4-4.5-33.2-6.4-49.4c-0.6-5.1-1.2-10.3-1.8-15.4
		c-0.4-10.3-0.3-20.9-0.3-31.1c0.1-12.8,0.2-26-0.7-38.9c-0.1-2.2-0.3-6.7-3.8-9.2c-2.3-1.7-4.6-3.6-6.7-5.5
		c0.6,0.2,1.2,0.5,1.9,0.7c3.3,1.2,6.6,2.5,10,3.6c2.5,0.8,4.2,3.4,4.1,6.4l0,0.1l0,0.1c0.3,10-0.1,20.3-0.4,30.2
		c-0.4,11.8-0.9,24-0.2,36c0.9,10,1.6,20.3,1.9,30.8c0.1,3.9,0.9,7.6,1.7,11.2c0.7,3.4,1.4,6.5,1.6,9.8c0.5,10.6,3.1,21,5.6,31
		c0.6,2.5,1.2,5,1.8,7.5c2.6,10.9,6.3,21.5,11,31.4c0.9,1.8,1.8,3.6,2.6,5.4c1,2,2,4,2.9,6c-3.9-4.6-7.3-10.4-10.6-18.1l-3.8,0.9
		c0.2,4.7,0.9,9.5,1.7,14c1,6.4,2,12.5,1.5,18.7c-1,10.3-1.6,20.7-2.1,30.8c-0.7,13.2-1.5,26.8-3.2,40.2c-0.1,1.3-0.3,2.5-0.5,3.8
		c-0.8,6.6-1.7,13.4,0.3,20.1c1.8,6,6.1,10.7,10.7,14.8l0,0.2l0.4,0.5c4.7,5.3,10.7,8.9,16.4,12.5l0.4,0.2c0.7,0.5,1.5,0.9,2.3,1.4
		c1.2,0.7,2.3,1.4,3.4,2.1c-9.2-0.9-18.8-5.7-27.3-13.8c-1.1-1.1-2.4-2.2-3.9-3.5l-3.6-3.2l0.3,4.8c0.3,4.3,0.5,8.6,0.6,12.8
		c0.4,9.6,0.8,19.6,2.6,29.3c0.1,1.7,0.3,3.3,0.6,4.9c0.6,3.9,1.2,7.4-1,10.3l-0.3,0.3l-0.1,0.4c-0.1,0.3-0.2,0.6-0.4,1
		c-0.5,1.3-1.5,3.6,0.3,5.6c2.2,2.7,4.8,4.9,7.4,7c1.1,0.9,2.2,1.8,3.3,2.8L596.2,848z"/>
	<path class="st0" d="M588.8,121.3l3.1-1.4c1.4-0.6,2.7-1.3,4-2c2-1.1,3.9-2.1,5.9-2.6c0,12.5-1.2,24.3-3.6,35.2
		c-0.4,2-0.9,4.1-1.3,6.1c-0.9,4-1.9,8.1-2.3,12.3c-0.7,3,1.8,4.5,3,5.2c0.3,0.2,0.7,0.4,0.9,0.6l0.1,0.1l0.1,0.1
		c0.9,0.5,1.8,1,2.8,1.4l0.8,0.4l0.8-0.4c1.3-0.6,2.4-1.3,3.5-2c0.8,1.2,1.6,2.4,2.4,3.5c1.1,1.7,2.3,3.5,3.6,5.2
		c0.5,0.7,1.6,1.6,3.3,1.6c-6.1,3.3-13.5,5.1-22.4,5.7l-1.4,0.1l-0.2,0.6c-0.1,0-0.1,0-0.2,0c-1.2,0-2.5,0.1-3.8,0.8l-0.6,0.4
		l-0.3,0.7c-7.2,18.6-15.3,37.2-23,55.2c-1.5,3.5-3,6.9-4.5,10.4c-0.7,1.6-1,3.2-1.4,4.8c-2.5,4.1-4.4,8.5-6.2,12.8
		c-0.5,1.1-0.9,2.2-1.4,3.3c-1.2,2.6-0.5,5.1,0.1,7.2c0.2,0.6,0.3,1.2,0.5,1.7l0,0.1c1.5,5.1,2.8,10.2,4.2,15.2
		c1.7,6.3,3.4,12.8,5.3,19.2l0,0.1l0,0.1c5.8,14.4,13.3,28.3,20.4,41.1c7,12.6,15.7,25,26.6,37.9c3.8,4.5,8.1,8.4,12.3,12.2
		c2,1.8,4.1,3.7,6.1,5.6c1.1,1.1,2.2,2.2,3.3,3.3c2.9,2.9,5.9,5.9,9.5,8.3c10.7,7.3,21.4,13.3,32,17.7l1.3,0.5
		c3.6,1.4,7.3,2.8,11.4,2.8l3.5,0l-1.6-2.9c-0.6-1.1-1.2-2.1-1.8-3c-0.8-3.3-2.1-6.4-3.3-9.4c-0.5-1.3-1.1-2.5-1.6-3.8l-3.1-7.8
		c-10.6-26.2-21.5-53.3-32.4-79.9c-7.2-18.8-12.2-37.3-14.8-54.9c-3.3-22.2-3.6-46.5-0.8-74.5c0.2-2,0.4-4,0.6-5.9
		c0.7-6,1.4-12.3,1.1-18.5c-0.1-3.1-0.4-6.3-0.7-9.3c-0.3-2.9-0.6-5.7-0.7-8.5c2.2,6.5,6,12.4,9.6,18l0.4,0.6
		c9.1,13,19.5,25.2,29.6,37.1c2.2,2.6,4.5,5.3,6.7,7.9c6.2,7.5,13.4,14.1,20.3,20.5c1.8,1.7,3.7,3.4,5.5,5.1
		c3.1,2.7,6.2,5.6,9.2,8.4c4.3,4,8.7,8.2,13.4,12l1.2,1l1.3-1c2.7-2.1,4.7-4.8,6.7-7.5c1.1-1.6,2.2-3,3.4-4.3
		c0.7-0.7,1.4-1.4,2.1-2.1c1.2-1.1,2.4-2.3,3.5-3.6c5.7-5.6,9.1-13.3,12-20l0.6-1.4l-1.2-1c-2.4-1.9-4.8-3.9-7.1-5.8
		c-4.3-3.6-8.8-7.3-13.5-10.7c-0.7-1.1-1.7-1.8-2.6-2.5c-0.3-0.2-0.6-0.4-0.9-0.7l-1.1-0.9l-1.2,0.7c-3.2,1.8-5,4.7-6.7,7.5
		c-0.1,0.2-0.3,0.4-0.4,0.7c-0.2-1.3-0.4-2.6-0.6-3.7l-0.3-2l-2,0.3c-1.4,0.2-2.9,0.4-4.3,0.5c0.4-0.4,0.8-0.8,1.2-1.2
		c1.2-1.2,2.5-2.4,3.5-4l1.1-1.7l-1.7-1.1c-1.4-0.9-3-1.4-4.6-1.8c-0.6-0.2-1.2-0.3-1.7-0.5c1.2-0.1,2.4-0.1,3.5-0.2l4.5-0.3
		l-1.1-2.6c-1.8-4.4-3.9-8.7-6-12.8c-1.3-2.6-2.6-5.2-3.8-7.9c-1.3-2.6-2.6-5.3-3.8-7.9c-2.8-5.9-5.6-12-9.3-17.7
		c-1.1-4.6-3.3-8.8-5.3-12.9c-0.9-1.8-1.8-3.6-2.7-5.4c-1.7-3.6-3.4-7.3-5-11c-6-13.5-12.1-27.4-23.2-37.9l-0.1-0.1
		c-6.2-5-13-10-21-12.7l-1.1-0.4l-0.9,0.8c-4.1,3.8-6.4,8.9-8.4,13.9l-0.4,1c-0.4,1.2-0.9,2.4-1.2,3.6l0,0.1
		c-1.2,4.9-2.1,9.6-2.8,14c0.2-4.5,0.7-8.8,1.2-12.3l0.4-2.9c0,0-3.3,0.7-3.6,0.8c1.3-3.1,3.3-5.9,5.5-8.8c2.1-2.9,4.3-5.9,5.8-9.3
		l0.9-2l-2.1-0.7c-4.9-1.5-9.9-3-14.7-4.5c-7.1-2.1-14.5-4.4-21.7-6.7l-2.3-0.8l-0.3,2.4c-0.3,2.6-0.3,5-0.1,7.3
		c0.9,11.3-0.3,22.9-1.5,34L588.8,121.3z M557.1,283.6l-0.2,0.1c-0.1-0.1-0.2-0.3-0.2-0.4l0.2,0l0,0
		C557.1,283.3,557.1,283.5,557.1,283.6z"/>
	<path class="st0" d="M493.4,462.8L493,467l3.5-2.2c1.7-1.1,3.9-2.6,5.8-4.6c1.3-1.3,2.6-2.6,3.9-3.8c4.3-4.2,8.8-8.5,12.1-13.8
		c9.4-14.9,16.9-31.1,24.2-46.8l0.5-1c7.7-16.3,12.4-34.7,14.1-54.7c0.7-15.9-4.3-31.5-9.1-44.8c-2.1-6.6-6.2-13-12.9-20
		c-0.5-1.2-1.3-2.1-2-2.9l-0.2-0.2c-4.9-5.1-10.1-10.1-15.5-14.7c-4.2-4.1-8.4-8.3-12.5-12.4c-4.1-4.1-8.4-8.3-12.6-12.5
		c-4.4-4-8.1-8.9-11.7-13.5c-1.1-1.4-2.1-2.7-3.2-4.1c-1.8-2.5-3.6-4.9-5.4-7.3c-4.4-5.8-9-11.8-12.1-18.5c-0.6-1.3-1.2-2.6-1.9-3.9
		c-4.9-10.1-9.9-20.5-12.4-31.4c1.4,0.1,2.8,0.6,4.3,1.1c1.6,0.5,3.2,1.1,5,1.3l2.9,0.4l-0.7-2.8c-0.7-3-1.5-6-2.2-9
		c-1.7-6.9-3.5-14-5-21l-0.8-3.5l-2.6,2.5c-0.9,0.9-1.9,1.9-2.8,2.8c-3.4,3.4-6.9,6.9-10.7,9.9l-0.7,0.6l-0.1,0.9
		c-0.2,2.5-0.2,5.1-0.3,7.6c-0.1-0.6-1.2-6.5-1.2-6.5l-5.7,3.6l-0.1,0.4c-6.6,4.7-10.8,12.6-11.2,20.8c-0.4,8.4,1.1,16.7,2.5,24.6
		c0.6,3.2,1.2,6.4,1.6,9.7c1.8,12.6,4.9,25.1,7.8,37.1c1.8,7.5,3.7,15.3,5.3,23c0.8,3.8,1.5,7.6,2.2,11.4
		c1.9,10.7,3.9,21.7,8.1,32.1c7.3,17.3,21.9,29.4,35.2,39.5c1.2,0.9,2.4,1.7,3.6,2.6c5.7,4,11.6,8.2,18,11.4l2.7,1.3l0.2-2.9
		c0.5-6.4,0.5-12.7,0.4-20.2l0-0.1c-0.1-1.4-0.1-2.8-0.2-4.2c-0.1-3.3-0.1-6.6-1.2-9.9c-0.1-8-2.1-15.5-5.9-21.7l-1.4-2.3l-1.8,2
		c-0.4,0.5-0.9,1-1.3,1.4c0.1-1.3,0.2-2.7,0.3-4.3l0.2-2.3l-2.3,0.1c-1.2,0.1-2.7,0.2-4.2,0.5c0.9-1,2-2,3.1-3.1l2.3-2.2l-2.9-1.1
		c-1.1-0.4-2.2-0.8-3.4-1.2c-0.9-0.3-1.9-0.7-2.8-1c0,0,0.1-0.1,0.1-0.1c0.6-0.2,1.1-0.3,1.7-0.5c0.7-0.2,1.5-0.4,2.2-0.6l2.3-0.7
		l-1-2.1c-1.7-3.5-3.8-6.9-5.9-10.1c-1.4-2.2-2.9-4.5-4.2-6.9l0-0.1l-0.1-0.1c-1-1.5-2-3.2-3-4.8c-1.9-3.2-3.8-6.4-6.4-9.2
		c-2.3-4.4-4.8-8.8-7.2-13c-4-6.9-8.1-14.1-11.3-21.6c-2.9-6.6-5.8-14-7.7-21.8c3,7.6,6.2,15.3,9.9,22.7c6.9,14.2,15.9,27.3,24.6,40
		l1.5,2.2c1.2,1.7,2.4,3.4,4,4.8c1.2,2.8,2.8,5.3,4,7.2c8.7,13.3,19.1,31.1,21.2,50.8c1.9,15.1,1.9,30.7,1.8,45.7c0,3.2,0,6.4,0,9.6
		c0,2-0.2,4-0.5,6.2c-0.3,2.6-0.6,5.3-0.5,8c-1.3,12.3-3.6,24.6-5.9,36.6C497.1,437.2,494.7,450,493.4,462.8z"/>
	<path d="M535.2-84.8c9.8-3.3,19.8-6.7,30.2-7.2c2.3,7.4,2.3,15.2,1.8,22.9c-0.3,3.5-0.8,7.3-3,10.1c-2.4,3.1-5.4,5.9-6.4,9.8
		c-0.3,2.7,0.3,5.4,0.6,8.1c49.8-7.6,100.8-8,150.6,0.1c77.4,12.4,151.5,45.1,213,93.7c60.9,47.8,109.6,111.1,140.1,182.2
		c25.9,60,38.6,125.6,37.7,190.9c-0.9,55.7-11.7,111.3-32.1,163.2c-29.1,74.3-77.8,140.7-139.6,191c-69.6,56.9-155.9,93-245.4,102
		c2,3.1,5.2,5,8.2,7c8.6,5.4,17.1,10.8,25.7,16.2c3.7,2.4,8.2,3.2,12.1,5.3c0.6,2.2-1.2,4.2-2.3,5.9c-5.2,6.1-12.1,10.6-19.5,13.5
		c-4.7,2-9.9,1.8-14.9,1.8c-13.3-0.1-26.5-3.3-38.3-9.5c-9.1-4.6-17.1-11.1-26-16c-4.2-2.5-9.1,0.4-13.6-1c-9.2-2-18.4-4.7-26.5-9.5
		c-0.2-4.5-0.1-9-0.1-13.5c-3.2-0.5-6.4-0.8-9.6-1c-0.5,4.9,0.7,11.3-3.9,14.5c-5.2,2.8-11.3,2.6-17,3.4c-3.8,0.1-8.5,1.1-11.6-1.8
		c-1.7-2.4-2.9-5.2-4.4-7.6c-6.7,2.4-12.4,6.9-19.4,8.5c-14.6,3.5-29.8,1.9-44.5,0.2c-13.4-1.5-27.3-4.8-37.8-13.8
		c-2.8-2.4-5.8-5.3-6.2-9.1c11.5-3.3,23.5-4.7,35-7.8c6-1.7,12.4-3.1,17.2-7.3c-71.3-24-136.6-65.7-188.5-120.2
		c-51.8-54.2-90.3-121.1-110.8-193.3c-12.5-43.8-18.4-89.4-17.8-134.9c1.1-74.2,20-148.1,55.3-213.4C256.3,137.4,303,83.8,359,42.8
		c6.4-4.7,13-9.1,19.5-13.6c-1.6-2.6-3-5.4-5.1-7.6c-4.8-2.3-11-2-14.6-6.4c-8.1-8.9-15.8-18.3-22.3-28.4c6.4-4.3,13.9-6.6,21-9.2
		c12.5-4.3,26.1-5.3,39.1-3.5c12.7,1.3,26,3.5,38.3-1c9.6-3.3,19.6-5.4,29-9.3c9.7-5.1,20-9.5,28.6-16.4c8.4-6.6,12.8-17.2,21.9-23
		C520.9-79.5,528.1-82,535.2-84.8 M534.8-78.2c-12.5,4.6-25.7,11.4-31,24.4c-4.2,6.6-5.8,14.6-10.2,21.2c-0.8,1.2-2.1,2-3.3,2.8
		c-0.2-3.2,0.3-6.3,1-9.4c-8,2-15.4,5.6-23.1,8.3c-8.6,3.4-17.8,5.5-26,9.8c3,0.8,6.1,1.6,8.3,3.9c-10.7-0.2-21.3-1.4-32-1.9
		c3.4,2.7,7.4,5,9.1,9.2c-5-0.6-9.2-3.7-14.2-4.8c-9.1-2.2-18.3-3.9-27.5-5.4c-13-0.5-25.2,4.5-37.3,8.7c-3.1,0.4-0.7,3.4,1,4.1
		c3.5,5.8,8.8,10.2,13.5,15.1c2.8,2.9,6.8,4.1,10.7,4.8c0.5-2.2,0-5.4,2.6-6.4c1.9,6.1,2.7,13.1,7.3,18c3.9,4.3,7.8,8.5,12.1,12.4
		c2.6-3.2,5.5-7.1,4.6-11.5c-1-5.1-5.8-7.6-9.5-10.5c0.1-0.3,0.2-0.8,0.2-1.1c3.2-1,6.7-1.2,10-1.8c-8.7-7.5-19.2-12.5-28.5-19.1
		c1.4-0.2,2.7-0.4,4.1-0.7l0.3-0.2c5-0.1,10.1-0.3,15.1,0.7c11.5,2.1,21.1,9.1,31.7,13.5c2.4-1.4,4.7-2.7,7.1-4
		c1.6-0.7,3.2-1.5,4.8-2.2c4.8-1.7,9.7-3.8,14.9-3.3c-5.5,2.2-11.2,4.4-16.1,7.9c-9.7,5.2-18.1,13.1-23.6,22.6
		c-4,6.8-8.4,13.5-10.6,21.2c-3,10.3-1.3,21.2,0.5,31.6c3-0.7,5.1-3.6,7.9-5c7.3-4.6,16.2-5.9,24.8-5.6l0.8,0.3
		c-0.9,0.4-1.8,0.8-2.8,1.2c-7,1.3-14.2,4.4-18.5,10.4c-3.8,5.4-3.9,12.5-2.7,18.8c3.4-3.7,6.8-7.4,9.9-11.2
		c5.4-4.6,11.4-8.3,18.1-10.8c4.9-0.8,9.8-1.6,14.7-1c7.2,0.6,13.7,3.9,20.4,6.3c0.3-7.9-0.9-16.6-6.7-22.5l-0.2-0.8
		c-6.4,2.1-12.4,6.8-19.5,5.8c-3.8-0.9-4.9-5.2-6.3-8.4c-4.6,0-9.2,0.6-13.8,0.9c2-1.9,4.5-3,6.7-4.6c10-3.4,21.2-4.5,31.3-0.5
		c7.5,2.8,13.8,9.4,15.4,17.4c1.3,8.4,0.7,17,1.4,25.4c0.5,3.1,1.4,6.1,2.3,9c2,4,5.3,7.8,9.9,8.7c4.9,0.7,10.1,0.3,14.5-2
		c-0.6-3.5-1.3-9.4-6.4-7.7c-0.5-1.5-0.7-3.2-1.8-4.4c-1.3,0.3-2.4,1-3.3,2.1c-0.9-1.2-1.9-2.4-2.8-3.6c0.3-1.7,0.6-3.6,2.3-4.6
		c3.9-2.8,8.7-5.2,13.7-4.8c0.4,0.4,1.2,1.1,1.5,1.4c0.5,1.2,0.9,2.4,1.4,3.6c-1.3,0.4-3,0.3-3.7,1.6c-0.2,2,1.6,3.2,2.6,4.7
		c-3.8,3-0.1,7.1,2.1,9.7c0.9-0.3,1.7-0.6,2.6-0.8c4.7-1.2,9.6-3.8,11.6-8.5c1.6-4,0.4-8.4-1-12.3c-3.6-8-9.6-14.5-14.2-21.8
		c2.5,1.6,4.9,3.3,7.4,5c-0.8-11.3,2.3-24,12.2-30.6c13.6-9.2,30.9-8.5,46.6-8.1c-3.7-6.2-10-9.9-15.4-14.4
		c7.1-1.2,14.3-0.9,21.5-0.6c-3.2-6.3-8.4-11.3-13.8-15.7c-14.1-11-30.5-19.9-48.3-22.8c-6.3-1.2-12.8-0.3-19.2-1.1
		c3-8.5,9.1-15.3,14.8-22.1c7.4-8.2,15.8-16,26.1-20.2c-4.4,7.2-10.4,13.7-12.6,22.1c3.3-1.1,6.6-2.4,10-3.5
		c-0.4,4.5-3.2,8.2-4.7,12.3c-1,2.6-1,5.5-1.2,8.3c4.8,1.4,9.6,2.7,14.4,4c0-10.6,0.1-21.3,0-31.9c3-4.9,9.5-8.4,9.1-14.8
		c0.3-5.7,0.5-11.4,0.5-17.1C551.5-84,543-81.2,534.8-78.2 M559.2-31.5c0.7,4.7,0.3,9.9,3,14c5.1,5.6,11.2,10.2,16.6,15.5
		c9,8.8,18.4,18.4,21.7,30.9c-5-0.6-10-1.5-15-2c3.6,5.7,6.9,11.6,9.4,17.9c-7.7-1.4-15.3-3.5-23-4.7c4.1,5.2,9.3,9.6,12.1,15.7
		c-5.4,0.4-10.8,0.3-16.1,0.6c12.9,7.1,27.3,10.8,41.3,15.2c2.8,0.9,5.7,1.9,8.7,1.6c28.3-1.4,56.8,0.8,84.5,6.4
		c64,12.8,124.1,44.3,171.1,89.6c45,43,78.1,98.5,94.3,158.6c19.8,72.9,15.1,152.3-13.7,222.1c-23.5,57.5-62.9,108.3-112.6,145.6
		c-53.1,40-117.9,64.3-184.3,68.3c0.3,13.6,0.4,27.4,4.1,40.5c2.4,8.8,5.8,17.3,9.9,25.4c2.1,4.1,3.2,8.5,3.3,13.1
		c-2.7,1.8-5.6,3.4-8.2,5.4c-0.3,9.2,5.5,17,9.5,24.9C760,865.7,841.8,834,909,782.9c62-46.9,111.9-109.8,143.1-181
		c25.6-58.1,38.6-121.6,38.3-185c-0.2-65.1-14.5-130.3-41.9-189.4c-29.6-64.2-74.5-121.2-129.7-165.3c-54-43.3-118-74-185.6-88.9
		C676.2-39.4,616.8-40.9,559.2-31.5 M301.4,106.4C251.6,159.2,214.7,224,195,293.9c-26.1,91.6-22.6,191.5,10.1,281
		c23.9,65.8,63.3,125.8,114,174.1c49.8,47.5,110.3,83.8,175.9,104.4c3.8-4.1,8.1-8.1,10.1-13.5c-1.5-3.2-4.3-5.4-6.6-8
		c4.9-4.6,9.3-9.8,15-13.6c4.5-3,2.4-9.1,3.2-13.6c1.8-1.1,4.9-1.3,5.4-3.8c0.8-5.3-0.2-10.6,0.2-15.9c0.2-4.8,2.7-9,3.5-13.6
		c1.4-7.8,0.5-15.7,0.5-23.6c-53.7-17.8-103-48.8-142.1-89.7c-45.9-47.7-77.6-108.9-89.9-174c-10.6-56-7.4-114.7,9.8-169.2
		c18.7-59.8,54.2-114.2,101.4-155.6c3.5-2.2,1.5-7.1,4.3-9.8c5.2-5.5,9.9-11.3,15.2-16.6c8.4-9.7,19.4-17.3,25.8-28.6
		c-6.3,0.2-12.7,2.6-17.1,7.2c-4,4.4-7.2,9.5-11.1,14c-1.2,0.5-1.8-0.8-2.4-1.6c-3.4-4.9-3.7-11-4.4-16.6c-3.3,2.6-5.3,6.3-7.2,9.9
		c-5.5-7.6-6.9-17.4-7.1-26.5c-2,1.6-3.8,3.2-5.5,5.1c-3.5-5.8-5.8-12.2-6.8-18.9c-1.5-9.3-0.6-18.7-1-28.1c0-4.3-2.7-7.8-5-11.2
		C353.2,57.2,325.8,80.4,301.4,106.4 M533.1,50c-4,4.8-6,10.9-6.6,17c-0.5,4.7,1.8,9,3.3,13.3c3.4-6.6,6.3-13.6,10.9-19.6
		c2.6-3.5,6.5-5.9,10.7-7c7-1.9,14.3-2.5,21.5-3.5c-3.9-4.3-9-7.7-14.8-8.9C549,39.2,539,42.8,533.1,50 M443.3,56.6
		c1.2,2.1,2.2,4.8,4.8,5.5c5.5,1.5,10.6-1.9,15.3-4.3c-2.9-1.6-6.1-2.5-9.4-2.8c-0.1,1.9-0.1,3.8-0.2,5.7c-2.1-1.4-3.6-3.4-4.4-5.8
		C447.2,55.3,445.2,55.9,443.3,56.6 M558.5,61.3c2.3,12.3,10,23,10.8,35.6c0.3,4-0.3,8.7,2.9,11.8c3.9,3.6,7.9,7.3,12.6,9.9
		c1.6-11.5,3.3-23.1,3.5-34.7c-0.1-3.1,0.1-6.3-1.2-9.2c-1.3-1.8-3.6-2.6-5.5-3.7C574.2,67.4,566.5,64.1,558.5,61.3 M538.1,82.9
		c-1.5,3.7,0,7.7-0.8,11.6c-0.8,5.7-4.5,10.6-4.8,16.4c-0.3,2.2-0.2,4.6-1.1,6.6c-5.4,8.7-17,12.4-26.7,9.7
		c-3.5-0.9-6.1-3.6-7.7-6.7c-6.8-0.1-13.5-1.8-20-3.6c3.5,4.9,8.1,9,12.9,12.6c7.1,5.6,14.7,10.8,23,14.4c1.9,0.7,3.9,1.8,5.9,1.5
		c3.5-2.3,6.4-5.4,9.5-8.3c7.7-8.3,15.7-16.3,22.2-25.6c4.5-7.8,8.8-16.5,7.9-25.7c-1.4-7.6-4.8-15-9.7-21
		C543.4,69.4,540.5,76.3,538.1,82.9 M592.8,76c-0.3,2.3-0.3,4.6,0,6.9c0.9,11.8-0.4,23.5-1.6,35.2c4.2-1.8,7.9-4.8,12.6-5.2
		c0.1,12.8-0.9,25.5-3.6,38c-1.2,6.1-3,12.2-3.7,18.4c-0.6,2.1,1.9,2.8,3.2,3.8c0.9,0.5,1.8,0.9,2.7,1.4c1.7-0.8,3.2-1.9,4.8-2.9
		c2.5,3.3,4.6,6.9,7.1,10.3c1.2,1.6,3.5,0.3,5.2,0.4c-0.4,1.2-0.3,2.8-1.5,3.6c-7.4,4.2-15.9,6-24.3,6.5l-0.2,0.5
		c-1.5,0.3-3.2,0-4.5,0.7c-8.6,22.1-18.1,43.9-27.5,65.7c-0.6,1.5-1,3.2-1.3,4.8c-3.2,5.1-5.3,10.7-7.7,16.2
		c-1.2,2.5,0.2,5.2,0.7,7.6c3.3,11.4,6,23,9.5,34.4c5.7,14.1,12.9,27.6,20.3,40.9c7.5,13.4,16.5,25.8,26.4,37.5
		c5.4,6.5,12.2,11.8,18.3,17.6c4.1,3.9,7.8,8.2,12.6,11.4c9.9,6.8,20.4,12.8,31.5,17.5c3.9,1.5,7.9,3.3,12.1,3.2
		c-0.6-1.1-1.2-2.2-1.9-3.2c-1-4.6-3.2-8.9-4.8-13.2c-11.8-29.3-23.5-58.5-35.5-87.7c-6.9-17.8-12.1-36.3-14.9-55.3
		c-3.7-24.8-3.3-50.1-0.9-75c0.8-8,2.1-16.1,1.7-24.2c-0.3-8.8-2.3-17.5-1.1-26.3c1.3,1.5,1.8,3.4,2.8,5.1c2,7.6,6.3,14.2,10.5,20.7
		c11.1,15.7,23.8,30.2,36.2,44.9c7.7,9.3,16.8,17.1,25.6,25.3c7.6,6.7,14.7,14,22.5,20.4c4-3,6.5-7.8,9.9-11.6
		c1.8-1.9,3.9-3.6,5.6-5.7c5.5-5.4,8.6-12.6,11.7-19.5c-6.9-5.6-13.6-11.5-20.8-16.8c-0.7-1.3-2.2-2.1-3.3-3c-4.6,2.6-6,8-9.5,11.6
		c-0.2-2.9-0.7-5.7-1.2-8.6c-2.9,0.5-5.8,0.7-8.7,0.7c1.6-3.5,5.1-5.3,7.2-8.4c-3.3-2.1-8.4-1.6-10.1-5.6c3.3-0.4,6.7-0.5,10-0.7
		c-2.9-7-6.5-13.7-9.7-20.5c-4.3-8.6-7.9-17.6-13.2-25.7c-1.5-6.5-5.2-12.2-7.9-18.3c-8-16.7-14-35.2-27.7-48.3
		c-6.2-5-12.8-9.8-20.4-12.3c-3.8,3.6-6,8.4-7.8,13.2c-0.5,1.5-1.1,3-1.6,4.5c-1.5,6.1-2.6,12.3-3.4,18.5c-0.4,1.7-0.7,3.4-1.2,5.1
		c-0.9-1.5-1.7-3.1-2.2-4.8c-0.2-5.9,0.4-11.9,1.3-17.7c-1.4,0.3-2.8,0.6-4.1,0.9c1.8-8.4,9.1-13.9,12.4-21.6
		C617.1,83.5,604.8,80,592.8,76 M639.5,82.4c5.4,2.9,11,5.5,15.8,9.2c10.7,7.7,18.7,18.6,24.7,30.2c8.2,15.3,13.2,31.9,20.7,47.5
		c4.6,9.9,9.7,19.6,13.8,29.7c4.5,13.2,16,22.3,26.8,30.3c5.4,3.7,10.7,7.8,16.8,10.4c6.9-2.6,13.4-6.4,20.3-9.1
		c7-2.7,13.9-6.6,21.5-7.1c3.8-0.3,7,2.1,8.9,5.1c8-3,15.5-7.4,24-9c2.2-0.6,4.4,0.2,6.4,1c0.4,1.7,1.2,3.5,0.6,5.2
		c-1.9,7.1-6.8,13.1-8.4,20.4c-1.1,5.7,0.9,11.3,3.3,16.4c1.4-5.1,7.6-9.2,12.5-6.1c4.1,2.6,3.5,8,3.3,12.1
		c6.1,4,7.9,11.4,11.6,17.3c7.8-5.4,9.2-15.5,11.5-24.1c2.2-7.3,2.1-15.1,1-22.7c-3.1-0.9-6.4-1.4-8.9-3.6c-5.6-4.4-7.1-13-3.2-18.9
		c3.8-6.6,13-8.8,19.5-5.1c7.1,3.8,9.5,13.5,5.4,20.3c5.9,13.6,12.1,27.7,11.8,42.9c0.3,15.4-6.6,29.6-13.6,42.8
		c-3.3,6.1-7.2,11.9-12.1,16.8c-4.9,4.8-9.9,9.8-16.1,12.9c-6.5,3.2-13.9,2.7-21,3.1c-0.7,4.2-1.4,8.4-3,12.3
		c-2.6,6.6-6.9,12.3-10.9,18c-4.7,6.7-10.5,12.8-17.5,17.2c-11.9,7.5-25.9,12.2-40.1,11.7c-15.6,0.1-30.7-6.4-42.7-16.2
		c-7.8-5.6-15.2-11.7-21.4-19.1c-4.1,2.4-9.6,2.9-13.7,0.1c-6.4-3.9-7.1-14.1-1.4-18.8c4.5-4.4,12.4-4,16.6,0.6
		c2.3,1.9,2.2,5.6,4.9,7.1c15,7.5,32,9.7,48.6,9.1c6.2-0.4,13.6-1.5,17-7.3c-11.3-0.4-24.1-1.8-32-10.9c-4.5,1.9-10.5,1.3-12.9-3.5
		c-3.6-6.9,6.7-13.9,12.3-9.4c2.3,1.7,2.6,4.7,3.1,7.2c8.6,0.4,17.1-1,25.5-2.3c-4-7.8-9.3-15.1-16.2-20.5
		c-4.5-3.6-9.9-7.7-15.9-6.4c-5.7,1.5-10.3,5.3-15.3,8.1c-4.4,2.4-9.1,5.9-14.3,4.7c-3.1-1-3.1-4.9-2.1-7.4
		c3.7-10.6,11.2-19.2,17.4-28.4c0-0.4,0.1-1.1,0.1-1.5c-2.2-3.4-5.4-5.9-8.4-8.6c-7.7-6.3-13.6-14.3-20.8-21.2
		c-8.4-8-16.4-16.3-24.5-24.5c-10.2-10-18.5-21.7-26.4-33.5c-2.8-4-5.2-8.3-8.7-11.8c-2.1,28-3.2,56.3,0.1,84.3
		c1.7,15.7,5.9,31,11,45.9c7.5,23,16.7,45.3,25.3,67.9c7.1,15.6,13,31.8,18.8,48c1.9,6.9,5.6,13.1,7,20.1c-10.3,0.4-20-3.1-29.9-5.4
		c2.7,30.4-5.7,60.3-5,90.6c0,6.4-1.1,12.7-2.2,18.9c-2.6,14.1-4.1,28.4-6.1,42.5c-1.3,11.5-3.7,22.9-3.8,34.5
		c-0.4,23.7,0.5,47.4,3.3,71c1.5,13.5,2.3,27.2,3.8,40.7c62-3.9,122.8-25.7,173.2-61.9c47.6-33.9,86-80.5,110.4-133.6
		c33.3-72,39.5-155.9,17.8-232.1c-18.8-67-59.4-127.7-113.8-171.1C786.5,109.6,713.3,83.1,639.5,82.4 M426.1,94
		c-3.5,4.1-3.7,9.7-3.1,14.8c2.9-2.6,5.5-5.8,9.1-7.5c6.8-3.4,14.2-6.4,21.9-5.5c7.6,0.8,13.5,6.1,20.4,8.7
		c-1-5.7-3.6-11.3-8.3-14.9c-6.5-5.1-15.4-6.1-23.2-4.4C436.7,86.5,430.3,89,426.1,94 M559,107.8c-7,12.5-16.5,23.4-26.5,33.7
		c-2.2,2.2-4.1,4.5-5.7,7.1c3.4,2.8,7.2,5,11.3,6.6c5.5-4,10.4-8.8,15-13.9c2.7-2.4,4.8-5.5,7.3-8.2c2-2.3,3.2-5.3,2.8-8.3
		c-0.6-6.7-1.3-13.4-1.9-20.2C560.4,105.7,559.6,106.7,559,107.8 M453.4,123.2c1,8.4,2.6,16.9,6.6,24.4c4-4.2,7-9.3,9.1-14.7
		c0.8-4.4-0.6-8.8-1-13.1c-0.5-3.1-1-6.2-1.4-9.2c-3.1-1.3-6.1-2.6-9.1-4.1C454.6,111.5,451.6,117.2,453.4,123.2 M506.7,119.3
		c1.3,2.3,3.7,3.8,6.4,3.9c6,0.1,11.8-4.6,12.8-10.6C519.4,114.7,513,117.1,506.7,119.3 M571.3,115.5c-0.1,4.2-0.2,8.5,0.2,12.7
		c0.7,23.9-2.6,47.7-6.8,71.2c-4.1,23.8-14.2,46.4-16.9,70.5c5.4-5,8.5-11.9,11.8-18.3c6-12.8,11.1-26,16-39.2
		c5.9-16.7,12.4-33.2,16.5-50.4c3.2-13,5.9-26.2,6.2-39.6c-3.4,1.9-6.8,3.9-10.3,5.8c-0.4-0.1-1.2-0.2-1.7-0.2
		C581.5,123.4,577.1,118.5,571.3,115.5 M434,137c-0.4,7.3-0.3,14.6-0.5,21.9c-2.3-5.6-3.3-11.7-4.4-17.6c-0.8,0.5-1.7,1.1-2.5,1.6
		l-0.1,0.3c-6.5,4.4-10.6,11.9-10.9,19.7c-0.6,11.5,2.5,22.6,4.1,33.9c3,20.3,9,39.9,13.1,60c3,14.4,4.6,29.3,10.1,43.1
		c6.9,16.3,20.7,28.2,34.5,38.6c6.9,4.9,13.7,10.1,21.4,13.8c0.5-6.7,0.5-13.4,0.4-20.1c-0.4-4.6,0.2-9.5-1.3-14
		c0-7.3-1.8-14.8-5.6-21c-1.5,1.7-3.2,3.3-5,4.8c0-3.1,0.2-6.1,0.4-9.2c-1.6,0.1-3.3,0.3-4.8,0.6c-1.5,0.1-3,0.2-4.4,0.4
		c2-2.5,4.3-4.8,6.7-7.1c-3.3-1.3-6.8-2.3-10-3.9c1.3-0.7,2.6-1.5,3.9-2.2c1.4-0.4,2.8-0.8,4.1-1.2c-2.9-5.9-6.8-11.2-10-16.9
		c-3.1-4.6-5.5-9.9-9.4-14c-6.1-11.7-13.5-22.8-18.7-35c-5.2-12-9.7-24.7-9.9-38c5.2,12.4,9.7,25,15.7,37.1
		c7.2,14.8,16.7,28.4,26,42c1.2,1.7,2.4,3.4,4,4.8c1,2.6,2.5,5,4,7.2c10.3,15.6,19.4,32.7,21.5,51.6c2.3,18.4,1.8,37,1.8,55.5
		c-0.1,4.8-1.1,9.5-0.9,14.2c-2.7,25.1-9.3,49.6-11.9,74.7c1.9-1.3,3.8-2.6,5.4-4.3c5.5-5.5,11.6-10.5,15.7-17.3
		c9.6-15.1,17-31.4,24.5-47.6c8-16.9,12.4-35.4,13.9-54c0.6-15.2-4-29.9-9-44.1c-2.4-7.5-7.3-13.9-12.7-19.5c-0.3-1.1-1.2-2-1.9-2.8
		c-4.9-5.1-10-10-15.4-14.6c-8.5-8.2-16.7-16.6-25.2-24.9c-5.8-5.3-10.3-11.8-15.1-17.9c-6.1-8.6-13.3-16.5-17.7-26.2
		c-5.9-12.3-12.3-24.6-14.9-38.1c4.2-0.9,7.9,1.8,12,2.3c-2.5-10-5.1-20-7.3-30.1C443.3,128.5,439,133.1,434,137 M475,123.3
		c1.1,5.6,2.3,11.3,3.9,16.8c0.9,2.5,1.6,5.5,4,7c7.4,5.1,14.8,10.2,22.1,15.4c3.6-3.6,7.3-7.2,9-12.1c-6.9-3.9-13.8-7.7-20.7-11.7
		C486.3,134.6,481.5,127.9,475,123.3 M560.7,141.6c-5.9,7.3-13.8,12.7-19.3,20.3c-1.6-0.5-3.2-2-4.8-1.7c-1.3,4-3.8,7.5-4.7,11.6
		c-1.1,7,3.8,12.6,6.5,18.6c5.3,9.4,9.6,19.4,15.5,28.5c0.9-3.8,1.8-7.5,2.8-11.2c2.3-9.1,3.4-18.5,5.5-27.7
		c1.5-11,2.9-22.1,3.1-33.1c-0.3-2.8-0.8-5.6-1.7-8.2C562.6,139.6,561.5,140.5,560.7,141.6 M458.2,161.5c-2.6-0.9-5.2-1.8-7.8-2.6
		c1.4,5.9,4,11.5,6.8,16.9c7.1,13.7,15,27.2,24.6,39.4c9.7,12.5,20.8,23.9,32.4,34.5c4.8,4.3,9.8,8.2,14.2,12.9c1.9,2,4,3.9,6.4,5.5
		c-5.6-15.5-16.3-28.3-24.2-42.6c-3.5-6.5-5.7-13.6-8.9-20.2c-6-12.3-12-24.7-18-37c-2.4-5-5.1-9.9-6.9-15.2
		c-1.3-3.9-2.8-7.8-4.9-11.4C465.8,147.3,463.3,155.3,458.2,161.5 M513,161.9c0.4,1.1,1.6,1.8,2.4,2.6c1.3,1,2.6,2,3.9,3l-0.1,0.1
		c1.8,1.1,3.7,4.2,6,2.5c4.5-3,6.1-8.8,5.9-13.9l-0.8,0.7c-1.6-1.2-3.2-2.3-4.8-3.4c-1.6-0.8-3.1-1.5-4.7-2.3
		C517.5,154.1,514.2,157.5,513,161.9 M485.8,157.9c1.3,3.4,2.7,6.7,4.5,9.8c6.6,14,14.4,27.5,20,42c1,2.7,2.5,5.1,4,7.5
		c1.4-14.1,4.1-28.2,4.4-42.4c-1.1-1.2-2.3-2.3-3.4-3.5c-1.8-1.5-3.5-3.1-5.3-4.6c-1.3,1.4-2.7,2.8-4,4.2
		C498.5,167.7,492.7,161.9,485.8,157.9 M364.4,217.4c-38,50.6-61.3,112.3-65.9,175.4c-3.5,45.6,2.3,91.9,17.1,135.2
		c11.6,33.8,28.6,65.6,50.2,94c40.3,53.3,96.7,94,159.9,115.5c0.1-4.5-0.4-9.1-0.2-13.6c5.4-11.5,4.9-24.6,5.1-37
		c-0.3-23.7-1.9-47.7-7.9-70.7c-4.9-19.7-12-38.8-16-58.8c-5.1-25.1-9.8-50.3-11.9-75.8c-4.6,2.5-5.3,8.5-9.5,11.5
		c-1.1-3-1.8-6.1-2-9.3c-0.7-15.4,1.3-30.7,3.3-45.9c3.1-21.4,6.7-42.9,11.4-64c0.6-3.5,1.4-7.8-1.7-10.3
		c-5.3-4.4-11.4-7.9-16.6-12.4c-7.1-6.2-14.4-12.3-21.3-18.7c-6-5.4-10.9-11.8-16.5-17.5c-3-3-4.3-7.1-5.7-10.9
		c-7.7-21.8-11.2-44.6-16.7-67c-5.3-22.2-10.1-44.5-12.1-67.3C391.8,184.3,377.2,200.2,364.4,217.4 M594.6,174.9
		c-0.6,2.4-1.1,4.8-1.5,7.3c2.3-1.4,4.5-3,6.1-5.1C597.6,176.4,596.1,175.7,594.6,174.9 M595.3,187.3c5.4,0.6,10.8-0.5,15.8-2.5
		c-0.5-3.4-2.3-6.4-4.8-8.7C602.3,179.5,597.5,182.4,595.3,187.3 M524.1,179.7c-1.5,5.4-2.4,11-2.5,16.6l-0.2,0.1
		c-0.3,3-0.5,6-0.7,8.9c-0.2,2.7-0.2,5.3-0.2,8c0,2.7,0,5.4,0,8.1c0.2,2.5,0.6,5,1,7.5c0.9,1.7,1.7,3.5,2.6,5.2
		c0.8,1.6,1.7,3.2,2.5,4.8c0.9,1.7,1.8,3.4,2.6,5.1c0.9,1.8,1.9,3.5,2.8,5.3c0.8,1.4,1.5,2.8,2.3,4.2c1,1.7,2,3.5,3,5.2
		c1.4,2.1,2.9,4.1,4.4,6.1c2.6-4.9,3.9-10.4,4.8-15.9l0.2-0.1c0.8-2.8,1.3-5.7,1.8-8.6c1.7-3.4,2-7.3,2-11c-0.6-1.9-1.3-3.8-1.9-5.7
		c-0.8-1.8-1.5-3.7-2.2-5.5c-0.7-1.8-1.5-3.5-2.3-5.2c-0.8-1.8-1.6-3.6-2.4-5.3c-1-1.8-1.9-3.7-2.9-5.5l-0.1,0.1
		c-0.9-1.7-1.8-3.3-2.7-5c-0.9-1.6-1.8-3.3-2.7-4.9c-1-1.7-2-3.4-3-5C528.6,184.5,526.8,181.7,524.1,179.7 M872.4,216.6
		c-2.7,1-4.9,3.4-5.4,6.3c-1.1,4.8,3,9.9,7.9,9.9c5.1,0.4,9.6-4.8,8.5-9.8C882.6,218.1,877.1,214.8,872.4,216.6 M812.3,235.2
		c-0.6,2.8,0.4,5.8,0.6,8.7c1.2-0.4,2.4-0.9,3.5-1.3c-3.4,6.3-7.9,11.8-12.6,17c-0.7,0.9-1.6,1.7-1.9,2.8c-2.5,1.8-4.9,3.9-7.3,5.9
		c-12.4,11-27,19.3-41.2,27.7c-8,4.3-15.7,9.4-24.5,12c7.9-8.3,17.4-14.8,26.1-22.2c11.5-9.6,23.7-18.3,34.3-28.7
		c1.4-1.2-0.1-2.9-0.4-4.3c-9.4,6.5-18.5,13.4-27.8,20.1c-13.8,11.5-26.2,24.5-39.2,36.8c-4.1,3.8-7.9,8.5-8,14.4
		c3.2-2.3,6.3-4.6,9.8-6.6c13.4-7.6,27.4-14.4,42.1-19.3c0.1,1.2-0.4,2.2-1.4,2.8c-3.8,2.8-7.6,5.5-11.4,8.2
		c6.2,3.4,10.4,9.1,14.1,15c2.5,3.9,4.7,8.1,7.8,11.6c1.7,2,4.4,3.7,7.2,2.9c6.3-1.5,10.8-6.7,16.5-9.4c-0.7,3.7-3.3,6.6-5.3,9.6
		c-2.9,4.2-8.3,5.2-12.8,6.6c0.9,4.2,1.8,8.3,2.7,12.5c4-2.7,7.8-5.7,12.3-7.6c-0.6,1.3-1.2,2.5-1.6,3.9c-3.7,4.4-6.8,9.3-10.8,13.4
		c-8.5,8.7-20.9,13.3-33.1,12.5c-10.6-0.7-21.3-2.3-31.3-6c-3.9-2.7-8.5-4.5-13-6.3c-0.3,0.5-1,1.4-1.4,1.9c2,2.5,4.7,4.2,7.3,6.1
		c6.3,4.3,12,9.6,18.7,13.4c7,4,13.6,9.6,21.8,10.7c8,1.3,16.5,2.1,24.4,0c18.9-2.6,36-15.6,43.8-33c5.2-9.9,7.1-21.6,4.2-32.5
		c-0.2-3.7-0.8-7.4-0.5-11.2c3.7,4.8,9,8.2,14.4,10.8c7.4,3.6,17,3.4,23.8-1.4c8.1-5.8,15.2-13.2,19.7-22.1
		c8.8-17.1,10.6-37.3,6.4-55.9c-1.4-5.5-2.8-11.2-6-16c-0.3,16.9-1.4,34.8-10.6,49.6C866.3,296,857,300.1,848,300
		c-5-0.1-10.6-0.5-14.6-3.9c6.8-1.8,14-0.9,20.8-3c-2.3-2.7-5.7-3.9-8.5-6.1c-3-2.3-5.6-5.1-8.2-7.7c-5.2-6.1-10.1-12.5-13.7-19.7
		c-2,1.5-4.1,2.9-6.2,4.3c-0.1-2.1-0.2-4.1-0.3-6.2c-3.8,2.9-7.3,6.3-11.2,9.1c-3.4,2.8-7.3,5-10.4,8.1c-1.5,0.5-3,1.2-4.3,2
		c2.3-2.7,5-5,7.4-7.7c14-11.7,27.9-25,34.4-42.5C825.7,228.3,818.5,231.2,812.3,235.2 M758.3,248.2c-4.5,2.4-6.3,7.6-8.4,11.8
		c1.7-0.6,3.4-0.9,5.2-1c-0.4,1.5-0.9,2.9-2.3,3.7c-7.1,4.6-14.8,9.2-19.3,16.7c-2.4,3.9-2,8.6-1.8,13c1.9-1.3,3.7-2.7,5.5-4.1
		c7-5.7,13.3-12.3,18.9-19.3c5.2-5.4,10.1-11.2,15.5-16.4c5.9-3.9,13-5.8,20.1-6.3c2.1,3.4,3.7,7.1,6.4,10l0.5-1.3
		c3.6-3.3,7.4-7.6,6.9-12.9c-0.2-3.6-2.2-6.6-4.1-9.5C785.8,233.8,771.9,241.2,758.3,248.2 M842.3,259.3c-3,0.7-4,4.9-1.8,7
		c2,2.3,6.3,1.2,7-1.8C848.6,261.4,845.3,258.2,842.3,259.3 M837.8,268.1c2.6,3.8,5.6,7.3,9.5,9.8c-0.2-2.3-0.4-4.6-0.7-6.9
		C843.5,270.7,840.4,270,837.8,268.1 M851.4,274.6c-0.2,2.5-0.3,5-0.3,7.5c1.8,1.7,3.6,3.3,5.5,4.8
		C855.9,282.4,854.4,278,851.4,274.6 M733.4,344.2c-2.5,1.6-2,5.7,0.7,6.8c2.7,1.5,6.2-1.1,5.6-4.1
		C739.6,344,735.6,342.3,733.4,344.2 M561.4,344.5c-0.6,6.6-0.5,13.5,2.3,19.6c2.9,6.5,5.9,13.1,10.9,18.2
		c4.7,4.9,9.9,9.6,16.3,12.4c-7.4-12.5-15.1-24.8-22.5-37.3C565.9,353.2,564.7,348.2,561.4,344.5 M756.1,352.4
		c-3.5-0.1-6.9-0.2-10.4,0c7,7.1,17.5,7.3,26.8,7.7c-0.3-3-0.7-5.9-1-8.9C766.3,351.5,761.2,352.5,756.1,352.4 M691.4,358.4
		c-4.7,1.7-5.6,8.8-1.4,11.6c4,3.4,10.8,0.1,10.7-5.1C701,360.1,695.7,356.5,691.4,358.4 M546,406.8c5.5-5.2,10.2-11.3,14-17.9
		c1.6-3.1,3.6-6.4,3.3-10.1c-1.1-3.4-3.4-6.2-5.5-9.1C553.8,382.1,549.7,394.4,546,406.8 M568.7,388.5c-2.8,3.6-4.3,8.1-7.4,11.6
		c-6.6,7.4-14.4,13.7-20.4,21.7c-6.1,8-12.3,16.2-17,25.1c-2.8,2.6-4.5,6-6.9,9c-2.9,4-6.4,7.6-9.2,11.8c-2.1,2.9-1.4,6.6-1.1,9.8
		c2.6,18.1,3.3,36.4,6,54.5c1.6,12.9,3.8,25.7,7,38.3c5,19.3,9.8,38.7,15.4,57.9c8.4-4.9,13.7-13.4,19.3-21.1
		c1.9-1.1,3.2-2.9,4.9-4.3c0.1,2.6-1.4,4.7-2.7,6.8c-3.6,5.2-6.5,11-9.2,16.8c-3.2,4.1-6.4,8.2-10.2,11.7c0.5,7.7,2.7,15.2,3.2,22.9
		c1.2,17.7,0.4,35.6-3.3,53c-2.4,11.5-3.3,23.2-3.5,35c-0.3,12.3-2.8,24.5-2,36.8c1.3,1.8,4.4,2,6.6,2.5c6.6,1.6,14.5,1.9,19.2,7.7
		c-7.5,0.6-14.9-0.3-22.4-0.3c-1.3,0-2.5,0.1-3.7,0.3c-2.9,3.7-4.8,8.4-5,13.1c1,3.9,4.6,6.3,7.5,8.7c4.7,3,9.9,5.2,15.5,6
		c1.7,0,2.7,1.3,3.8,2.5c-1.3,0.6-2.4,1.5-3.9,1.6c-7.2,0.6-14.4-1-21-4c-1.8-0.4-4-2.4-5.7-0.6c-3.9,3-7.5,6.5-9.9,10.8
		c3.8,4.7,8.2,9,13,12.8l0,0.2c5.1,3.8,10.2,8.4,16.6,9.6c3.6-0.9,6.8-3.2,9.7-5.6c2.1-0.5,4.2-1.2,6.1-2.2c6-3.2,12.9-4.5,19.3-6.8
		c-0.5-8.1,2.8-15.9,1.8-24c-1.1-9.7,0.4-19.5-2-29c-2.7-11.4-2.3-23.3-2-35c0.7-20.3,5.5-40.1,7.6-60.3c0.4-6,1.4-12.1,0.1-18.1
		c0.1-0.5,0.3-1.6,0.4-2.1c-4.9,4.9-4.5,14.1-12.1,16.5c0.4-6.2,3.6-11.6,5.6-17.4c3.5-8.8,5.4-18.1,5.3-27.6
		c0.4-14.2-2.9-28-6-41.7c0-5.5-1.2-10.9-1.9-16.4c-3.4-21.6-5.7-43.3-8.3-64.9c-0.9-23.4,0.5-46.8-1-70.1c-0.1-2.8-0.5-5.9-3-7.6
		c-3.8-2.9-7.5-6-10.9-9.4c-0.2-0.5-0.5-1.5-0.6-2c6.2,2.1,12.2,4.7,18.4,6.6c3.6,1.1,5.7,4.7,5.5,8.4c0.7,22-1.9,44.1-0.6,66.1
		c0.9,10.3,1.6,20.6,1.9,31c0.2,7.1,2.9,13.8,3.2,20.9c0.6,13,4.4,25.5,7.4,38.1c2.5,10.7,6.1,21.1,10.9,31c2.8,6,6.2,11.9,8.3,18.3
		c-0.5-0.1-1.4-0.3-1.9-0.4c-6.9-6.3-11.5-14.5-15.1-23c0.4,11.1,4,21.9,3.2,33c-2.3,23.6-2.2,47.5-5.3,71
		c-0.8,7.6-2.5,15.5-0.2,23.1c1.7,5.9,6.2,10.4,10.6,14.4l0,0.4c4.6,5.2,10.6,8.8,16.4,12.4c3.5,2.2,7.4,4,10,7.3
		c-12.9,0.8-24.9-5.8-34-14.4c-1.3-1.2-2.6-2.4-3.9-3.5c1,14,0.6,28.2,3.2,42c0.2,5.6,3,11.6-0.8,16.6c-0.4,1.5-1.8,3.4-0.5,4.8
		c3,3.7,6.9,6.4,10.4,9.5c4.3,3.3,8.4,7,13.1,10c9.1,0.3,17.4-4.5,25.9-7c5.6-2,12-2.5,16.9-6.2c2.8-2.1,6.2-3.2,8.9-5.3
		c-0.5-6.9-2.1-14-5.4-20.1c-3.6,0.6-4.5,4.9-6.3,7.6c-6.3,4.3-12.7,9.3-20.6,10.2c-5.7,0.5-11.5,1-17-0.8c1.3-3.7,5.6-3.5,8.7-4.3
		c5.7-1.2,12.4-2.6,16.2-7.3c3.5-2.5,5.4-6.5,7-10.3c1.7-4.1,3.8-8.1,4.6-12.5c0.8-4.1-0.1-8.3-0.8-12.3c-1.8-9.9-1.9-20-2.5-30
		c-1.1-22.2-1.7-44.5-5.8-66.4c-0.4-2-1-3.8-1.8-5.6c-1.4,1.7-2.8,3.3-4.2,5l0.1,0.4c-1.5,0.8-2.7,2.8-4.6,2.2
		c-5.1-1-10.2-3.2-13.3-7.6c-4.1-5.7-6.5-12.5-7.8-19.2c4,3.8,6.3,9,10.8,12.4c2.9,2.2,6.6,3.8,10.3,3c2.1-2.7,3-6,4.2-9.1
		c1.9-5.6,4.4-11.1,4.5-17.1c0.3-12.7-0.5-25.3-0.5-38c0.1-9.9-0.1-20,3.1-29.5c1.2,3.3,1.8,6.7,2.5,10.1c1-1,2.1-2.1,2.2-3.6
		c3.1-18.2,6.8-36.5,6.6-55c-0.4-26.4,5.3-52.6,3.6-79.1c-0.5-4.4-0.8-9.6-4.6-12.6c-12.7-9.6-26.3-18.1-38-29
		c-12.4-11.4-27.9-18.5-40.8-29.2C571.5,389.5,570.1,387.4,568.7,388.5 M494.8,866.7c-6.9,5.2-15.3,7.8-23.6,9.4
		c-7.4,1.3-14.8,2.3-22.2,3.9c5.6,3.3,11.7,5.8,17.9,7.8c12.3,3.9,25.3,4.2,38,4.8c15-0.6,27.6-10.5,42.4-12.1
		c1.2,3.3,2.5,6.6,4.9,9.3c5.5,0.3,11.2,0.3,16.2-2.1c0.9-10.9,1.9-21.9,2.8-32.8c-8.8,1.9-16.1,8.4-25.3,8.5
		c-8.5,0.2-16.4-3.3-23.4-7.8c-2.7-3.3-6.2-6-9.8-8.3C507,853.9,502.1,861.5,494.8,866.7 M579.8,854.6c-1,5.7-0.9,11.5-0.9,17.2
		c2.9,0.3,5.8,0.6,8.7,0.8c-0.2-6.3,0.3-12.5-0.1-18.8C587.1,849.4,580.1,850.9,579.8,854.6 M642.8,857.7c-4.6,1.4-9.1,2.9-13.6,4.5
		c-4.2,1.5-8.6,3.2-13.2,2.7c-6.6-0.7-13-2.2-19.4-3.6c-0.6,10.2,0.5,20.5-1.1,30.6c4.8,1.6,9.5,3.4,14.3,4.9
		c0.1-6.5,0.3-12.9,0.6-19.4c3,1.1,4.8,3.9,6.9,6.1c4.5,5.2,10.1,9.2,15.4,13.5c3.9,3.1,7.2,6.9,11.2,9.8c9.8,7.4,21,13.3,33.1,15.7
		c14.2,2.8,29.6,0,41.4-8.6c-4.4-2.7-8.9-5.3-13.5-7.8c-13.5-7.3-26.3-16.4-35.9-28.5c-3.8-4.7-6-10.3-7.9-16
		c-1.2-3.2-2.6-6.4-4-9.5C652.1,853.7,647.6,856.2,642.8,857.7z"/>
	<path d="M514.7,22.4c8-3.9,17.1-4.4,25.7-5.7c-3.8,3.5-8.8,4.8-13.6,6.2c1.3,3.6,2.4,8.1-0.4,11.4c-4.8,5.5-12.5,6.7-19.2,8.1
		c-0.6,4.8-1.2,9.6-2,14.4c-1.8-6.5-2.8-13.4-1.3-20.1C505.5,30.9,509,25.1,514.7,22.4 M517.2,26.7c1,2.5,1.4,5.1,1,7.8
		c-1.6-1.6-3.2-3.2-4.8-4.8c-2.7,2.3-4,5.5-4.9,8.8c5.3-0.7,11.1-2.1,14.7-6.4c2.1-2.4,1.3-5.6,0.1-8.1
		C521.3,24.8,519.2,25.7,517.2,26.7z"/>
	<path class="st1" d="M534.8-78.2c8.3-3,16.7-5.8,25.5-7c0,5.7-0.2,11.4-0.5,17.1c0.4,6.4-6.1,9.9-9.1,14.8c0,10.6,0,21.3,0,31.9
		c-4.8-1.3-9.6-2.7-14.4-4c0.1-2.8,0.1-5.7,1.2-8.3c1.5-4.1,4.3-7.8,4.7-12.3c-3.3,1.1-6.6,2.3-10,3.5c2.2-8.3,8.2-14.8,12.6-22.1
		c-10.4,4.2-18.7,12.1-26.1,20.2c-5.7,6.8-11.8,13.6-14.8,22.1c6.4,0.8,12.8-0.1,19.2,1.1c17.8,3,34.2,11.8,48.3,22.8
		c5.4,4.5,10.6,9.4,13.8,15.7c-7.2-0.3-14.4-0.6-21.5,0.6c5.4,4.5,11.7,8.2,15.4,14.4c-15.7-0.4-33-1.1-46.6,8.1
		c-9.9,6.6-13,19.3-12.2,30.6c-2.4-1.7-4.9-3.4-7.4-5c4.7,7.3,10.6,13.8,14.2,21.8c-2-0.2-3.9-0.4-5.9-0.6c-0.2,0-0.7,0-0.9,0
		c-6-9.5-12.1-19.2-15.1-30.1c0.8-4.8,1.4-9.6,2-14.4c6.8-1.5,14.5-2.6,19.2-8.1c2.8-3.3,1.7-7.7,0.4-11.4c4.8-1.5,9.8-2.7,13.6-6.2
		c11-3.6,22.7-3.6,34.2-3.8c-4.7-5-10.4-8.8-16.2-12.4c-18.4-11.5-39.8-17.8-61.5-18c4.1-12,10.9-23,19.3-32.5
		c3.8-4.3,8.2-8,12.3-12.1c-8.8,0.7-16.9,4.4-24.7,8.2C509.1-66.8,522.3-73.6,534.8-78.2z"/>
	<path class="st1" d="M418.5-19.2c10.7,0.4,21.3,1.7,32,1.9c4.3-0.1,8.7,0,13,0.2c-3.3,2.9-6.8,5.5-9.2,9.2
		c-1.2,1.4-1.9,3.3-3.6,4.2c-5.2-0.5-10.1,1.6-14.9,3.3c-2.6-3.3-5.6-6.3-8.2-9.6C425.9-14.2,421.9-16.5,418.5-19.2z"/>
	<path class="st1" d="M349.7-7.3c8.9,4.5,16.9,10.9,26.8,13.5c-2.6,1-2.1,4.2-2.6,6.4c-3.9-0.7-7.9-1.8-10.7-4.8
		C358.6,2.8,353.3-1.5,349.7-7.3z"/>
	<path class="st1" d="M558.5,61.3c7.9,2.8,15.7,6.1,23.2,9.7c1.9,1,4.1,1.9,5.5,3.7c1.2,2.9,1.1,6.1,1.2,9.2
		c-0.2,11.6-2,23.2-3.5,34.7c-4.7-2.6-8.7-6.2-12.6-9.9c-3.2-3-2.6-7.8-2.9-11.8C568.5,84.3,560.8,73.6,558.5,61.3z"/>
	<path class="st1" d="M538.1,82.9c2.4-6.6,5.3-13.5,10.8-18.1c4.9,6,8.2,13.4,9.7,21c0.9,9.2-3.5,17.9-7.9,25.7
		c-6.5,9.3-14.5,17.4-22.2,25.6c-6.1,0.3-12.4,0.5-18.1-1.7c-3.8-1.2-6.8-3.9-10.4-5.4c-3.3-0.7-6.6-0.3-10-0.5
		c-4.8-3.6-9.4-7.7-12.9-12.6c6.5,1.8,13.2,3.4,20,3.6c1.6,3.1,4.2,5.8,7.7,6.7c9.7,2.8,21.2-1,26.7-9.7c1-2,0.8-4.4,1.1-6.6
		c0.3-5.8,4-10.7,4.8-16.4C538.1,90.6,536.6,86.6,538.1,82.9z"/>
	<path class="st1" d="M413,80.9c4.3-6,11.5-9,18.5-10.4c-4.8,5.3-10.4,10.5-11.3,18c-3.1,3.8-6.5,7.5-9.9,11.2
		C409.2,93.4,409.2,86.3,413,80.9z"/>
	<path class="st1" d="M453.4,123.2c-1.8-6,1.2-11.7,4.2-16.7c3,1.4,6,2.8,9.1,4.1c0.4,3.1,0.9,6.2,1.4,9.2c-0.5-0.4-1.5-1.1-2-1.5
		C461.4,118.9,457.3,120.9,453.4,123.2z"/>
	<path class="st1" d="M571.3,115.5c5.8,3,10.3,7.9,15,12.3c-5.1-0.4-10-2-14.5-4.3c-0.1,1.6-0.3,3.1-0.3,4.7
		C571,124,571.2,119.7,571.3,115.5z"/>
	<path class="st1" d="M642.8,857.7c4.9-1.5,9.4-4,14.3-5.4c1.4,3.1,2.8,6.3,4,9.5c-10.7,6.1-22.7,9-34.5,12c4,5,9.6,8.6,15.6,10.7
		c9.8,3.3,19.4,8.1,27,15.2c-4.5-0.2-9-0.3-13.5,0c8.1,6,18.3,8.8,28.3,9.4c7,0.2,14.2-0.2,20.8-2.9c4.6,2.5,9.1,5,13.5,7.8
		c-11.8,8.5-27.2,11.3-41.4,8.6c-12.1-2.4-23.3-8.3-33.1-15.7c-4-3-7.4-6.7-11.2-9.8c-5.3-4.3-10.9-8.4-15.4-13.5
		c-2.1-2.3-3.8-5.1-6.9-6.1c-0.3,6.5-0.5,12.9-0.6,19.4c-4.8-1.6-9.5-3.3-14.3-4.9c1.6-10.1,0.5-20.4,1.1-30.6
		c6.5,1.3,12.9,2.9,19.4,3.6c4.6,0.5,8.9-1.2,13.2-2.7C633.6,860.6,638.2,859.1,642.8,857.7z"/>
	<path class="st1" d="M546,863.3c9.2-0.1,16.5-6.6,25.3-8.5c-0.8,10.9-1.9,21.8-2.8,32.8c-5,2.4-10.8,2.5-16.2,2.1
		c-2.4-2.6-3.8-5.9-4.9-9.3c-14.8,1.7-27.4,11.5-42.4,12.1c-12.8-0.6-25.8-0.9-38-4.8c-6.2-2-12.3-4.5-17.9-7.8
		c7.3-1.6,14.8-2.6,22.2-3.9c2.6,1.1,5.3,2,8.1,2.4c10.7,1.6,21.5,2.7,32.4,2.7c-1-5.3-5.2-8.9-8.8-12.6c10.1-2.3,19.4,3.6,27.9,8.3
		c0.3-8-5-14.4-8.2-21.3C529.6,860,537.5,863.5,546,863.3z"/>
	<path class="st2" d="M503.8-53.8c7.8-3.8,15.9-7.5,24.7-8.2c-4,4.1-8.5,7.7-12.3,12.1c-8.4,9.5-15.2,20.5-19.3,32.5
		c21.7,0.3,43.1,6.5,61.5,18c5.7,3.6,11.5,7.4,16.2,12.4c-11.5,0.2-23.1,0.3-34.2,3.8c-8.7,1.3-17.7,1.8-25.7,5.7
		c-5.7,2.7-9.1,8.5-10.7,14.4c-1.6,6.7-0.5,13.6,1.3,20.1c3,11,9.1,20.6,15.1,30.1c-3.1,0.3-6,1.4-8.8,2.7c-0.4-0.4-1.2-1.1-1.5-1.4
		c-5-0.4-9.7,2-13.7,4.8c-1.6,1-2,2.9-2.3,4.6c-3.8,1.6-7.3,4-10.1,7c-1-3-1.8-6-2.3-9c0-7.7,2-15.3,1.1-22.9
		c-0.6-7.6-3.3-15.5-9.2-20.6c-6.6-6-16.2-7.3-24.8-5.7c-5.5,1.2-11.1,3-15.2,7c-2.2,1.6-4.7,2.7-6.7,4.6c4.6-0.3,9.2-0.9,13.8-0.9
		c1.3,3.1,2.4,7.4,6.3,8.4c7.1,1,13.1-3.7,19.5-5.8l0.2,0.8c1.3,5.3,2.4,10.8,2.3,16.3c-9.5-4.9-21.5-4.9-30.7,0.9
		c-6.7,2.4-12.7,6.2-18.1,10.8c0.9-7.5,6.5-12.7,11.3-18c0.9-0.4,1.9-0.8,2.8-1.2l-0.8-0.3c-8-3.5-17-3.6-25.5-2.4
		c-2.9-9.7-0.9-20.1,2.4-29.4c3.9-10.2,10-19.5,18.3-26.7c2.2-1.9,4-4.2,5.9-6.4c4.9-3.5,10.6-5.7,16.1-7.9c1.7-0.9,2.4-2.8,3.6-4.2
		c2.4-3.7,6-6.3,9.2-9.2c-4.3-0.3-8.7-0.3-13-0.2c-2.2-2.3-5.3-3.1-8.3-3.9c8.2-4.3,17.4-6.4,26-9.8c7.7-2.7,15.1-6.3,23.1-8.3
		c-0.7,3.1-1.2,6.2-1,9.4c1.2-0.8,2.5-1.5,3.3-2.8C498-39.2,499.5-47.2,503.8-53.8z"/>
	<path class="st2" d="M348.7-11.4c12-4.2,24.3-9.3,37.3-8.7c9.2,1.5,18.4,3.2,27.5,5.4c4.9,1.1,9.1,4.2,14.2,4.8
		c2.6,3.3,5.6,6.3,8.2,9.6c-1.6,0.7-3.2,1.5-4.8,2.2c-7.2-3.1-14.6-5.9-21.6-9.3c-6-2.9-12.7-4.5-19.4-4c-4.4,0.4-9.2,0.4-12.9,3.2
		l-0.3,0.2c-1.4,0.2-2.7,0.4-4.1,0.7c9.4,6.5,19.8,11.6,28.5,19.1c-3.3,0.6-6.7,0.8-10,1.8c-0.1,0.3-0.2,0.8-0.2,1.1
		c3.7,2.9,8.5,5.5,9.5,10.5c0.9,4.4-2,8.3-4.6,11.5c-4.3-3.9-8.2-8.1-12.1-12.4c-4.6-4.9-5.4-11.9-7.3-18
		c-9.8-2.6-17.9-8.9-26.8-13.5C348.1-8,345.6-11,348.7-11.4z"/>
	<path class="st2" d="M453.4,123.2c3.9-2.3,8.1-4.3,12.7-4.9c0.5,0.4,1.5,1.1,2,1.5c0.4,4.3,1.9,8.8,1,13.1
		c-2.1,5.4-5.1,10.5-9.1,14.7C456,140.1,454.4,131.6,453.4,123.2z"/>
	<path class="st2" d="M588,128c3.5-1.8,6.8-3.9,10.3-5.8c-0.3,13.4-3,26.6-6.2,39.6c-4.2,17.2-10.6,33.8-16.5,50.4
		c-4.9,13.3-10,26.4-16,39.2c-3.3,6.5-6.3,13.3-11.8,18.3c2.7-24.1,12.8-46.6,16.9-70.5c4.2-23.5,7.5-47.3,6.8-71.2
		c0.1-1.6,0.2-3.1,0.3-4.7c4.6,2.2,9.4,3.9,14.5,4.3C586.7,127.9,587.6,128,588,128z"/>
	<path class="st2" d="M490,129.5c3.3,0.2,6.7-0.2,10,0.5c3.6,1.5,6.6,4.2,10.4,5.4c5.8,2.2,12.1,2,18.1,1.7c-3.1,2.9-6,5.9-9.5,8.3
		c-2.1,0.3-4-0.8-5.9-1.5C504.7,140.2,497.1,135.1,490,129.5z"/>
	<path class="st2" d="M458.2,161.5c5.1-6.2,7.7-14.3,13.7-19.8c2.1,3.6,3.6,7.4,4.9,11.4c1.7,5.3,4.5,10.2,6.9,15.2
		c6,12.3,12,24.7,18,37c3.2,6.6,5.4,13.7,8.9,20.2c8,14.3,18.7,27.1,24.2,42.6c-2.3-1.6-4.4-3.5-6.4-5.5c-4.4-4.6-9.5-8.6-14.2-12.9
		c-11.7-10.6-22.8-22-32.4-34.5c-9.6-12.2-17.4-25.6-24.6-39.4c-2.7-5.4-5.4-11-6.8-16.9C453,159.8,455.6,160.6,458.2,161.5z"/>
	<path class="st2" d="M494.8,866.7c7.3-5.2,12.2-12.8,18.1-19.4c3.6,2.3,7,5,9.8,8.3c3.2,6.9,8.5,13.3,8.2,21.3
		c-8.5-4.6-17.8-10.5-27.9-8.3c3.6,3.7,7.8,7.3,8.8,12.6c-10.8-0.1-21.7-1.1-32.4-2.7c-2.8-0.4-5.5-1.3-8.1-2.4
		C479.5,874.5,487.9,871.8,494.8,866.7z"/>
	<path class="st2" d="M626.5,873.9c11.8-3,23.8-5.9,34.5-12c1.9,5.6,4.1,11.3,7.9,16c9.6,12.1,22.4,21.2,35.9,28.5
		c-6.6,2.7-13.8,3.1-20.8,2.9c-10-0.6-20.2-3.3-28.3-9.4c4.5-0.3,9-0.2,13.5,0c-7.6-7.2-17.2-11.9-27-15.2
		C636.1,882.5,630.6,878.9,626.5,873.9z"/>
	<path class="st3" d="M559.2-31.5c57.6-9.4,116.9-7.9,173.9,4.8c67.6,14.9,131.6,45.6,185.6,88.9c55.2,44.1,100.1,101.1,129.7,165.3
		c27.4,59.1,41.7,124.2,41.9,189.4c0.3,63.4-12.7,127-38.3,185c-31.2,71.3-81,134.1-143.1,181c-67.3,51.1-149,82.8-233.1,90.3
		c-4-7.9-9.9-15.7-9.5-24.9c2.6-2,5.5-3.6,8.2-5.4c-0.1-4.6-1.3-9-3.3-13.1c-4.1-8.1-7.5-16.6-9.9-25.4c-3.7-13.2-3.7-27-4.1-40.5
		c66.4-4,131.3-28.3,184.3-68.3c49.7-37.3,89.1-88.1,112.6-145.6c28.8-69.9,33.5-149.2,13.7-222.1c-16.3-60.1-49.3-115.6-94.3-158.6
		c-47-45.3-107.1-76.9-171.1-89.6c-27.8-5.5-56.3-7.8-84.5-6.4c-3,0.2-5.9-0.7-8.7-1.6c-14-4.4-28.4-8-41.3-15.2
		c5.4-0.3,10.8-0.2,16.1-0.6c-2.8-6.1-8-10.5-12.1-15.7c7.8,1.2,15.3,3.3,23,4.7c-2.5-6.3-5.8-12.2-9.4-17.9c5,0.5,10,1.4,15,2
		C597.3,16.4,588,6.7,578.9-2c-5.5-5.3-11.5-9.9-16.6-15.5C559.5-21.6,559.9-26.8,559.2-31.5 M785.1,17.4c-1.9,5-4.1,9.9-6.1,14.9
		c4.7,2,9.3,4,14.1,5.8c-6.4,16.3-13.5,32.3-20,48.5c5.7,2.4,11.5,4.7,17.2,7.2c6.8-16.1,13.3-32.3,20.3-48.4
		c4.7,2,9.3,4.2,14.2,5.8c2-4.9,4-9.9,6.1-14.7C815.6,29.9,800.4,23.5,785.1,17.4 M813.1,103.2c4.8,3.4,9.6,6.9,14.6,9.9
		c4.9-7.3,9.8-14.6,15-21.7c-0.6,10.2-1.5,20.4-2.3,30.7c5.8,4,11.6,7.9,17.3,12c0-11.1,0.4-22.2,0.4-33.3
		c5.3,1.9,11.5,2.5,16.5-0.5c7.2-4.4,12.2-13,11.2-21.6c-0.5-6-4.6-11.1-9.2-14.6c-7.9-6.2-16.4-11.6-24.6-17.4
		C839,65.7,826.1,84.5,813.1,103.2 M863.8,138.9c4.9,3.9,9.8,7.9,14.7,11.8c14.3-17.8,28.7-35.6,43-53.4c-4.9-3.9-9.8-7.8-14.7-11.8
		C892.5,103.3,878.1,121,863.8,138.9 M906.2,143c-6.2,9.4-7.3,22-2.7,32.3c4.3,9.3,12.6,16.4,22.1,19.9c4.8-4.7,9.8-9.3,14.8-13.9
		c-4.9-0.2-10.1-0.7-14.2-3.7c-4.9-3.5-8.1-9.6-7.5-15.7c0.5-7.7,6.3-14,13-17.3c6.5-3.1,15-1.8,19.9,3.6c4.9,4.5,5.7,11.4,5.3,17.6
		c5-4.7,9.9-9.3,14.9-13.9c-3.2-10.4-10.5-19.8-20.5-24.3c-6.3-2.9-13.5-3.1-20.2-2.1C920.8,127.5,911.9,134.4,906.2,143
		 M930.6,205.2c3.2,5.3,6.4,10.5,9.5,15.8c8.9-5.2,17.6-10.6,26.4-15.9c-4.9,11.7-9.8,23.3-14.8,35c4,6.6,8,13.2,12,19.8
		c5.6-13.8,10.6-27.8,15.9-41.6c13.9,1.5,27.8,3,41.7,4.4c-3.8-6.2-7.5-12.4-11.2-18.5c-12.6-1-25.2-1.4-37.8-2.6
		c8.9-5.4,17.9-10.5,26.5-16.2c-3.4-5.1-6.3-10.5-9.7-15.6C969.7,181.6,950.2,193.4,930.6,205.2 M1003.6,248.4
		c-3.7,3-5.2,7.9-5.2,12.5c-0.4,5.7,1.4,11.3,0.9,17c-0.3,4.7-6.3,7.5-10.3,5.1c-3.5-2-4.9-6.3-5.1-10.1c-0.1-4.7,1.6-9.1,3.6-13.3
		c-5.4-0.8-10.8-1.8-16.3-2.4c-1.4,4.7-2.8,9.6-2.5,14.6c0.4,7.2,3.1,14.3,7.5,19.9c5.1,6.5,13.8,10.1,22,8.4
		c7.1-1.5,14.6-5.6,16.9-12.9c1.8-7.4-0.6-14.9-0.4-22.4c0.1-3,2.7-4.6,5.2-5.5c1.9,0.8,4,1.5,5.2,3.3c3.3,4.8,2.8,11.1,1.3,16.5
		c4.9,0,9.8,0.3,14.8,0.2c2.1-12.5-1.8-27.8-13.7-34.1C1019.9,241.3,1010.1,243.1,1003.6,248.4 M1035.6,299c1.2,5,2.5,10,3.7,15
		c-17,4.2-33.9,8.5-50.8,12.7c1.5,6,3.1,12,4.5,18c17.1-3.9,33.9-8.6,51-12.6c1.1,5,2.4,9.8,3.6,14.8c5.3-1.2,10.5-2.6,15.8-3.9
		c-4.1-16-8-31.9-12.1-47.9C1046,296.4,1040.8,297.8,1035.6,299 M997.8,368.8c1.4,14,2.9,27.9,4.5,41.8c5.1-0.5,10.1-1.2,15.2-1.6
		c-0.8-7.9-1.8-15.8-2.4-23.7c3.8-0.4,7.6-0.9,11.4-1.2c0.8,7.4,1.6,14.9,2.4,22.3c4.9-0.5,9.7-1.1,14.6-1.5
		c-0.8-7.5-1.7-14.9-2.3-22.4c3.9-0.3,7.9-0.9,11.9-1.2c0.6,7.9,1.6,15.7,2.4,23.5c5-0.3,10-1,15-1.5c-1.7-13.9-2.8-27.9-4.6-41.8
		C1043.2,364.1,1020.5,366.4,997.8,368.8 M1001.6,423c-0.3,5.8-0.5,11.7-0.9,17.5c8.8,0.5,17.6,0.9,26.5,1.3
		c-8.1,4.8-16.6,8.8-24.9,13.2c-1,0.6-2.5,1-2.4,2.4c-0.3,6.6-0.6,13.2-0.8,19.8c9.4-5.8,18.9-11.4,28.3-17.3c1.1,5.5,3.9,11,9,13.7
		c8.8,4.6,21.3,3.4,27.6-4.9c4.6-5.9,4.6-13.8,5.2-20.9c0.4-7.2,0.8-14.4,0.9-21.6C1047.2,425.3,1024.4,424.1,1001.6,423
		 M992.8,496.7c-3.1,7.6-4.4,16.5-0.9,24.2c2.7,6.3,8.5,10.8,15,12.5c5.7,1.7,12.5,1.6,17.3-2.3c5.8-4.9,8.1-12.5,12.9-18.1
		c2.8-3.3,8.6-1.5,9.2,2.8c1,6.6-3.8,12.2-8.5,16.1c3.8,2.9,7.7,5.8,11.5,8.8c6.3-5.6,10.4-13.5,11.6-21.8
		c1.4-8.2-2.1-17.2-9.2-21.8c-4.6-2.9-10.3-4.5-15.7-3.5c-5.8,1.1-9.7,5.9-12.7,10.6c-2.6,4-4.4,8.8-8.3,11.6
		c-4.3,2.3-10.2-1-10.3-6c-0.4-8.1,6.8-13.8,13.3-17.2c-4-3.7-7.4-8.3-11.8-11.3C1000.4,485.1,995.5,490.3,992.8,496.7z"/>
	<path class="st3" d="M301.4,106.4c24.4-26,51.8-49.2,81.6-68.7c2.3,3.4,5,6.9,5,11.2c0.4,9.3-0.5,18.8,1,28.1
		c1,6.7,3.3,13.1,6.8,18.9c1.7-1.9,3.6-3.5,5.5-5.1c0.2,9.1,1.6,18.9,7.1,26.5c1.9-3.6,3.9-7.3,7.2-9.9c0.8,5.7,1.1,11.8,4.4,16.6
		c0.6,0.8,1.1,2.1,2.4,1.6c3.9-4.5,7.1-9.6,11.1-14c4.4-4.6,10.8-7,17.1-7.2c-6.4,11.3-17.4,18.9-25.8,28.6
		c-5.3,5.3-10.1,11.1-15.2,16.6c-2.8,2.7-0.8,7.6-4.3,9.8c-47.1,41.3-82.6,95.8-101.4,155.6c-17.2,54.4-20.4,113.1-9.8,169.2
		c12.3,65.1,44,126.2,89.9,174c39.1,41,88.4,71.9,142.1,89.7c0,7.9,0.8,15.8-0.5,23.6c-0.8,4.6-3.2,8.9-3.5,13.6
		c-0.4,5.3,0.7,10.6-0.2,15.9c-0.5,2.5-3.6,2.7-5.4,3.8c-0.8,4.5,1.3,10.6-3.2,13.6c-5.6,3.8-10.1,9-15,13.6c2.3,2.6,5.1,4.8,6.6,8
		c-2,5.4-6.3,9.4-10.1,13.5c-65.6-20.6-126.2-57-175.9-104.4c-50.7-48.3-90.1-108.3-114-174.1c-32.7-89.5-36.2-189.4-10.1-281
		C214.7,224,251.6,159.2,301.4,106.4 M204,494c1.3,6.1,2.9,12.1,4.5,18.1c15.2,0.3,30.4,1.7,45.6,1.4c-13.5,7.1-26.4,15.3-39.6,22.9
		c1.6,5.9,3.1,11.9,4.5,17.9c23-2,46-4.4,69-6.3c-1.1-5.7-2.8-11.2-4-16.9c-11.2,1.1-22.3,2.4-33.5,3.7c-3.6,0.7-7.5,0.6-10.9,2.2
		c0-0.2-0.1-0.5-0.2-0.7c5.1-2,9.7-5,14.4-7.7c8.6-4.9,17-10,25.7-14.9c-0.9-4.1-2-8.2-3-12.2c-13.2-0.4-26.3-1-39.5-1.4
		c-2.2,0.2-4.8-0.6-6.6,0.9c0.1-0.5,0.2-1,0.8-1.2c14-4.4,27.4-10.5,41-15.8c-1.5-5.6-2.8-11.3-4.3-16.9
		C246.6,476.1,225.3,485.1,204,494 M237.5,601.5c3.5,6.9,6.9,14,10.3,21c24-3.1,48-5.9,72-9c-3-5.4-5.1-11.4-8.5-16.5
		c-4.1,0.5-8.2,1.4-12.3,2.1c-3.9-8-7.9-15.9-11.6-23.9c3.2-2.7,6.2-5.6,9.5-8.3c-2.6-5.6-5.5-11.1-8.1-16.7
		C271.6,567.1,254.5,584.3,237.5,601.5 M309.9,625.8c4.5,6.5,9,13,13.6,19.5c-3.2,2.1-6.2,4.5-9.5,6.5c-4.4-6-8.5-12.3-12.8-18.3
		c-4,2.8-8,5.6-12,8.4c4.3,6.1,8.5,12.3,12.8,18.4c-3.2,2.3-6.5,4.6-9.8,6.8c-4.5-6.5-9-13-13.5-19.5c-4.1,2.9-8.3,5.7-12.4,8.7
		c8,11.4,16,22.9,23.9,34.4c18.8-13,37.5-26.1,56.4-39c-8-11.5-15.9-23.1-24-34.5C318.3,620,314.1,622.8,309.9,625.8 M324.1,705.9
		c-3.4-3.7-6.9-7.4-10.3-11.2c-4.1,3.5-8,7.4-11.9,11.1c11.3,12,22.4,24.1,33.8,36c3.9-3.7,7.8-7.4,11.8-11.1
		c-3.4-3.8-7.1-7.4-10.5-11.3c12.7-11.9,25.4-23.8,38.2-35.7c-4.2-4.7-8.5-9.2-12.8-13.7C349.6,682.1,336.9,694,324.1,705.9z"/>
	<path class="st3" d="M858.2,68.7c3.5,2.4,7.9,4.8,9.2,9.2c0.5,4.1-2.2,8.5-5.8,10.4c-5.1,1.8-9.5-2.2-13.5-4.6
		C851.3,78.6,854.9,73.7,858.2,68.7z"/>
	<path class="st3" d="M806.1,267c3.9-2.8,7.4-6.2,11.2-9.1c0.1,2,0.2,4.1,0.3,6.2c2.1-1.4,4.2-2.8,6.2-4.3
		c3.6,7.2,8.5,13.6,13.7,19.7c-2.9,3.8-6,7.4-9.6,10.7l-0.3,0.3c-6.4-6.6-12.2-13.8-18.9-20.1c-4.2,2-8.6,3.7-13.1,4.9
		C798.8,272,802.7,269.7,806.1,267z"/>
	<path class="st3" d="M824.5,334.7c2.9,10.9,1,22.6-4.2,32.5c-7.8,17.5-24.9,30.4-43.8,33c2.1-1.4,4.2-3,6.4-4.3
		c9.9-5.7,18.8-13.2,25.8-22.2C817.7,362.6,823,348.8,824.5,334.7z"/>
	<path class="st3" d="M1036.8,442.3c6,0.2,12,0.6,18.1,0.9c-0.3,4.4,0.2,9.8-3.5,13c-3.6,2.2-8.9,2.3-12.2-0.5
		C1035.8,452.1,1036.8,446.8,1036.8,442.3z"/>
	<path class="st3" d="M252.8,606.9c8.5-7,16.2-14.8,24.3-22.3c2.7,5.6,5.4,11.1,8.2,16.7C274.5,603.1,263.6,604.6,252.8,606.9z"/>
	<path class="st3" d="M579.8,854.6c0.4-3.7,7.4-5.2,7.7-0.7c0.4,6.3-0.1,12.5,0.1,18.8c-2.9-0.3-5.8-0.5-8.7-0.8
		C578.9,866.1,578.8,860.3,579.8,854.6z"/>
</g>
<g id="_x23_ff8b26ff">
	<path class="st4" d="M377.1-8.3c3.7-2.8,8.5-2.8,12.9-3.2c6.7-0.4,13.4,1.1,19.4,4c7.1,3.4,14.4,6.2,21.6,9.3
		c-2.4,1.3-4.7,2.7-7.1,4c-10.6-4.4-20.3-11.4-31.7-13.5C387.2-8.7,382.1-8.4,377.1-8.3z"/>
	<path class="st4" d="M410.9,26.8c5.5-9.6,13.9-17.4,23.6-22.6c-1.9,2.2-3.7,4.4-5.9,6.4c-8.2,7.2-14.4,16.5-18.3,26.7
		c-3.4,9.3-5.3,19.7-2.4,29.4c8.5-1.2,17.5-1.1,25.5,2.4c-8.5-0.2-17.4,1-24.8,5.6c-2.8,1.4-4.9,4.3-7.9,5
		c-1.8-10.4-3.5-21.3-0.5-31.6C402.6,40.4,407,33.6,410.9,26.8z"/>
	<path class="st4" d="M448.9,46.6c8.5-1.6,18.1-0.3,24.8,5.7c5.9,5.1,8.6,13,9.2,20.6c0.9,7.7-1.1,15.3-1.1,22.9
		c-0.8-8.4-0.2-17-1.4-25.4c-1.5-8-7.9-14.5-15.4-17.4c-10-3.9-21.3-2.9-31.3,0.5C437.7,49.5,443.4,47.7,448.9,46.6z"/>
	<path class="st4" d="M466.7,60.6c5.8,5.8,7,14.6,6.7,22.5c-6.7-2.3-13.2-5.6-20.4-6.3c-4.9-0.7-9.9,0.2-14.7,1
		c9.2-5.8,21.1-5.8,30.7-0.9C469.1,71.3,468,65.9,466.7,60.6z"/>
</g>
<g id="_x23_fefefeff">
	<path class="st5" d="M785.1,17.4c15.3,6.2,30.5,12.6,45.7,19c-2.1,4.9-4.2,9.8-6.1,14.7c-4.8-1.6-9.5-3.8-14.2-5.8
		c-6.9,16.1-13.5,32.3-20.3,48.4c-5.7-2.4-11.5-4.8-17.2-7.2c6.5-16.2,13.6-32.2,20-48.5c-4.7-1.9-9.4-3.8-14.1-5.8
		C781.1,27.3,783.2,22.4,785.1,17.4z"/>
	<path class="st5" d="M813.1,103.2c13-18.7,26-37.6,38.9-56.4c8.2,5.8,16.7,11.2,24.6,17.4c4.7,3.5,8.7,8.6,9.2,14.6
		c1,8.6-4,17.1-11.2,21.6c-5,3.1-11.2,2.5-16.5,0.5c0,11.1-0.4,22.2-0.4,33.3c-5.7-4.1-11.5-8-17.3-12c0.8-10.2,1.6-20.4,2.3-30.7
		c-5.2,7.1-10.1,14.4-15,21.7C822.6,110.1,817.9,106.6,813.1,103.2 M858.2,68.7c-3.3,5-7,9.9-10.1,15c4,2.5,8.4,6.4,13.5,4.6
		c3.7-1.9,6.3-6.3,5.8-10.4C866.1,73.5,861.8,71.1,858.2,68.7z"/>
	<path class="st5" d="M426.1,94c4.2-5,10.6-7.5,16.8-8.9c7.9-1.7,16.8-0.7,23.2,4.4c4.7,3.6,7.3,9.3,8.3,14.9
		c-7-2.5-12.8-7.9-20.4-8.7c-7.7-0.9-15.2,2.1-21.9,5.5c-3.6,1.7-6.2,4.9-9.1,7.5C422.4,103.7,422.6,98.1,426.1,94z"/>
	<path class="st5" d="M863.8,138.9c14.3-17.9,28.7-35.6,43-53.4c4.9,4,9.8,7.9,14.7,11.8c-14.3,17.8-28.7,35.6-43,53.4
		C873.6,146.8,868.7,142.8,863.8,138.9z"/>
	<path class="st5" d="M511.6,89.8c2.8-1.3,5.7-2.5,8.8-2.7c0.2,0,0.7,0,0.9,0c1.1,3.5,2.5,7.1,1.8,10.8c-0.7,4.3-4,7.3-6.5,10.5
		c-0.9,0.3-1.7,0.6-2.6,0.8c-2.2-2.6-5.9-6.7-2.1-9.7c-1-1.5-2.8-2.7-2.6-4.7c0.8-1.3,2.5-1.2,3.7-1.6C512.5,92.2,512,91,511.6,89.8
		z"/>
	<path class="st5" d="M484,104.8c2.8-3.1,6.3-5.4,10.1-7c0.9,1.2,1.8,2.4,2.8,3.6c0.9-1.1,2-1.8,3.3-2.1c1.1,1.2,1.4,2.9,1.8,4.4
		c5.1-1.6,5.9,4.2,6.4,7.7c-4.4,2.3-9.6,2.7-14.5,2C489.3,112.6,486,108.8,484,104.8z"/>
	<path class="st5" d="M475,123.3c6.5,4.6,11.3,11.3,18.2,15.4c6.9,3.9,13.8,7.7,20.7,11.7c-1.7,4.9-5.4,8.6-9,12.1
		c-7.4-5.1-14.8-10.2-22.1-15.4c-2.4-1.5-3.1-4.5-4-7C477.3,134.6,476.1,129,475,123.3z"/>
	<path class="st5" d="M906.2,143c5.7-8.6,14.6-15.5,24.9-17.5c6.8-1,13.9-0.8,20.2,2.1c10,4.5,17.4,13.9,20.5,24.3
		c-5,4.6-10,9.3-14.9,13.9c0.5-6.2-0.4-13.1-5.3-17.6c-4.9-5.5-13.4-6.8-19.9-3.6c-6.7,3.2-12.4,9.6-13,17.3
		c-0.6,6.1,2.6,12.2,7.5,15.7c4,3,9.3,3.6,14.2,3.7c-5,4.6-10,9.1-14.8,13.9c-9.6-3.5-17.8-10.6-22.1-19.9
		C898.9,165,900,152.4,906.2,143z"/>
	<path class="st5" d="M532.5,141.6c6.7,2.7,13.8,1.3,20.5-0.2c-4.5,5.1-9.4,9.9-15,13.9c-4.1-1.6-7.9-3.8-11.3-6.6
		C528.4,146.1,530.3,143.7,532.5,141.6z"/>
	<path class="st5" d="M546,166.7c6.5-6.5,12.5-13.6,19.2-19.9c-0.2,11.1-1.6,22.1-3.1,33.1c-2,9.2-3.1,18.6-5.5,27.7
		c-4.5-5.4-8.5-11.2-12.4-17c-2.5-4-5.1-8-6.6-12.4c-1.3-4.5,0-9.2,1.5-13.5C541.4,165.4,543.7,166,546,166.7z"/>
	<path class="st5" d="M490.2,167.7c5.3,4.3,11.5,7.2,17.6,10.1c2.5-2.1,5-4.3,7.4-6.5c1.1,1.2,2.3,2.3,3.4,3.5
		c-0.3,14.2-2.9,28.3-4.4,42.4c-1.5-2.4-3-4.9-4-7.5C504.7,195.2,496.8,181.7,490.2,167.7z"/>
	<path class="st5" d="M930.6,205.2c19.6-11.8,39.1-23.6,58.6-35.4c3.3,5.1,6.3,10.5,9.7,15.6c-8.7,5.6-17.7,10.8-26.5,16.2
		c12.6,1.1,25.2,1.6,37.8,2.6c3.8,6.2,7.5,12.4,11.2,18.5c-13.9-1.4-27.8-2.9-41.7-4.4c-5.4,13.9-10.4,27.9-15.9,41.6
		c-4-6.6-8-13.2-12-19.8c5-11.6,9.9-23.3,14.8-35c-8.8,5.3-17.5,10.7-26.4,15.9C937,215.7,933.8,210.4,930.6,205.2z"/>
	<path class="st5" d="M595.3,187.3c2.2-5,7-7.9,11-11.2c2.5,2.3,4.3,5.3,4.8,8.7C606.1,186.9,600.7,187.9,595.3,187.3z"/>
	<path class="st5" d="M1003.6,248.4c6.5-5.4,16.3-7.1,24-3c11.9,6.3,15.8,21.6,13.7,34.1c-4.9,0.1-9.8-0.1-14.8-0.2
		c1.5-5.4,2-11.7-1.3-16.5c-1.2-1.9-3.3-2.6-5.2-3.3c-2.5,0.9-5.1,2.5-5.2,5.5c-0.2,7.4,2.2,15,0.4,22.4
		c-2.3,7.3-9.8,11.5-16.9,12.9c-8.2,1.8-17-1.9-22-8.4c-4.4-5.7-7.1-12.8-7.5-19.9c-0.3-5,1.1-9.9,2.5-14.6
		c5.5,0.5,10.9,1.6,16.3,2.4c-1.9,4.2-3.6,8.6-3.6,13.3c0.2,3.8,1.6,8.1,5.1,10.1c4,2.4,10-0.4,10.3-5.1c0.5-5.7-1.3-11.3-0.9-17
		C998.4,256.3,999.9,251.5,1003.6,248.4z"/>
	<path class="st5" d="M1035.6,299c5.3-1.2,10.5-2.6,15.7-3.9c4,16,8,32,12.1,47.9c-5.3,1.3-10.5,2.7-15.8,3.9
		c-1.2-4.9-2.5-9.8-3.6-14.8c-17,4-33.9,8.6-51,12.6c-1.4-6-3-12-4.5-18c16.9-4.2,33.9-8.5,50.8-12.7
		C1038.1,309,1036.8,304,1035.6,299z"/>
	<path class="st5" d="M997.8,368.8c22.7-2.3,45.4-4.7,68-7.3c1.8,13.9,3,27.9,4.6,41.8c-5,0.5-10,1.2-15,1.5
		c-0.7-7.8-1.8-15.6-2.4-23.5c-4,0.3-7.9,0.8-11.9,1.2c0.6,7.5,1.6,15,2.3,22.4c-4.9,0.4-9.8,1-14.6,1.5c-0.7-7.4-1.6-14.9-2.4-22.3
		c-3.8,0.4-7.6,0.8-11.4,1.2c0.7,7.9,1.7,15.8,2.4,23.7c-5.1,0.4-10.1,1.1-15.2,1.6C1000.7,396.7,999.2,382.7,997.8,368.8z"/>
	<path class="st5" d="M1001.6,423c22.8,1,45.6,2.3,68.3,3.3c-0.2,7.2-0.5,14.4-0.9,21.6c-0.6,7.1-0.6,15-5.2,20.9
		c-6.3,8.3-18.8,9.5-27.6,4.9c-5.1-2.7-7.9-8.2-9-13.7c-9.4,5.9-18.9,11.5-28.3,17.3c0.2-6.6,0.5-13.2,0.8-19.8
		c-0.1-1.4,1.4-1.8,2.4-2.4c8.3-4.5,16.8-8.4,24.9-13.2c-8.8-0.4-17.6-0.8-26.5-1.3C1001.1,434.7,1001.3,428.9,1001.6,423
		 M1036.8,442.3c0,4.5-0.9,9.8,2.4,13.4c3.3,2.8,8.6,2.8,12.2,0.5c3.7-3.2,3.2-8.6,3.5-13C1048.8,442.9,1042.8,442.5,1036.8,442.3z"
		/>
	<path class="st5" d="M204,494c21.3-8.9,42.6-17.9,63.8-26.8c1.5,5.6,2.8,11.3,4.3,16.9c-13.7,5.3-27.1,11.4-41,15.8
		c-0.6,0.1-0.6,0.7-0.8,1.2c1.8-1.6,4.4-0.7,6.6-0.9c13.2,0.3,26.3,1,39.5,1.4c1,4.1,2.1,8.1,3,12.2c-8.6,4.8-17.1,9.9-25.7,14.9
		c-4.7,2.7-9.3,5.7-14.4,7.7c0.1,0.2,0.1,0.5,0.2,0.7c3.4-1.5,7.3-1.5,10.9-2.2c11.2-1.3,22.3-2.6,33.5-3.7c1.2,5.6,2.9,11.2,4,16.9
		c-23,1.9-46,4.3-69,6.3c-1.4-6-2.9-11.9-4.5-17.9c13.2-7.6,26.1-15.8,39.6-22.9c-15.2,0.3-30.4-1.2-45.6-1.4
		C207,506.1,205.4,500,204,494z"/>
	<path class="st5" d="M992.8,496.7c2.6-6.4,7.6-11.6,13.4-15.3c4.4,3,7.8,7.6,11.8,11.3c-6.5,3.4-13.7,9-13.3,17.2
		c0.1,4.9,5.9,8.3,10.3,6c4-2.9,5.7-7.7,8.3-11.6c3-4.7,6.9-9.5,12.7-10.6c5.4-0.9,11.1,0.6,15.7,3.5c7.1,4.5,10.6,13.6,9.2,21.8
		c-1.2,8.3-5.3,16.2-11.6,21.8c-3.8-3-7.6-5.9-11.5-8.8c4.8-3.9,9.6-9.5,8.5-16.1c-0.6-4.2-6.4-6-9.2-2.8
		c-4.8,5.7-7.1,13.3-12.9,18.1c-4.8,3.9-11.6,3.9-17.3,2.3c-6.5-1.7-12.4-6.3-15-12.5C988.4,513.3,989.7,504.3,992.8,496.7z"/>
	<path class="st5" d="M237.5,601.5c17-17.2,34.1-34.4,51.3-51.5c2.6,5.6,5.5,11.1,8.1,16.7c-3.2,2.7-6.3,5.6-9.5,8.3
		c3.7,8.1,7.8,15.9,11.6,23.9c4.1-0.7,8.1-1.6,12.3-2.1c3.4,5.1,5.5,11.1,8.5,16.5c-24,3.1-48,5.9-72,9
		C244.4,615.5,241,608.5,237.5,601.5 M252.8,606.9c10.8-2.3,21.6-3.7,32.5-5.6c-2.8-5.5-5.5-11.1-8.2-16.7
		C269,592,261.3,599.9,252.8,606.9z"/>
	<path class="st5" d="M309.9,625.8c4.1-3,8.4-5.8,12.5-8.8c8.1,11.5,16,23,24,34.5c-18.8,13-37.5,26.1-56.4,39
		c-7.9-11.5-15.9-23-23.9-34.4c4-3,8.3-5.8,12.4-8.7c4.5,6.5,9,13,13.5,19.5c3.3-2.2,6.6-4.5,9.8-6.8c-4.4-6.1-8.5-12.3-12.8-18.4
		c4-2.8,8.1-5.5,12-8.4c4.4,6.1,8.4,12.3,12.8,18.3c3.3-2,6.3-4.4,9.5-6.5C318.9,638.8,314.5,632.3,309.9,625.8z"/>
	<path class="st5" d="M324.1,705.9c12.8-11.9,25.5-23.8,38.2-35.8c4.3,4.5,8.6,9,12.8,13.7c-12.8,11.8-25.4,23.8-38.2,35.7
		c3.4,3.9,7,7.5,10.5,11.3c-4,3.6-7.9,7.4-11.8,11.1c-11.4-11.9-22.5-24-33.8-36c4-3.7,7.8-7.5,11.9-11.1
		C317.2,698.5,320.7,702.2,324.1,705.9z"/>
</g>
<g id="_x23_e9df04ff">
	<path class="st6" d="M517.2,26.7c2-1,4.1-1.9,6.3-2.7c1.2,2.6,1.9,5.8-0.1,8.1c-3.6,4.3-9.4,5.6-14.7,6.4c0.9-3.3,2.3-6.6,4.9-8.8
		c1.6,1.6,3.2,3.2,4.8,4.8C518.5,31.8,518.2,29.2,517.2,26.7z"/>
	<path class="st6" d="M443.3,56.6c1.9-0.7,3.9-1.3,6-1.7c0.8,2.4,2.3,4.4,4.4,5.8c0.1-1.9,0.1-3.8,0.2-5.7c3.3,0.3,6.5,1.2,9.4,2.8
		c-4.7,2.4-9.8,5.8-15.3,4.3C445.5,61.4,444.5,58.7,443.3,56.6z"/>
</g>
<g id="_x23_bdbdbdff">
	<path class="st7" d="M533.1,50c5.9-7.2,15.9-10.7,25-8.7c5.8,1.1,10.9,4.5,14.8,8.9c-7.2,1.1-14.5,1.6-21.5,3.5
		c-4.2,1.1-8.1,3.5-10.7,7c-4.6,6-7.5,13-10.9,19.6c-1.5-4.3-3.8-8.6-3.3-13.3C527.2,60.8,529.2,54.7,533.1,50z"/>
	<path class="st7" d="M521.2,87.1c2,0.2,3.9,0.4,5.9,0.6c1.4,3.9,2.6,8.3,1,12.3c-2,4.7-6.9,7.3-11.6,8.5c2.6-3.2,5.8-6.3,6.5-10.5
		C523.7,94.2,522.3,90.6,521.2,87.1z"/>
	<path class="st7" d="M559,107.8c0.6-1.1,1.4-2.1,2.2-3.1c0.7,6.7,1.3,13.4,1.9,20.2c0.4,3.1-0.8,6.1-2.8,8.3
		c-2.4,2.7-4.6,5.8-7.3,8.2c-6.8,1.5-13.8,2.9-20.5,0.2C542.4,131.2,551.9,120.3,559,107.8z"/>
	<path class="st7" d="M506.7,119.3c6.4-2.2,12.7-4.6,19.1-6.7c-0.9,6-6.7,10.7-12.8,10.6C510.4,123.1,508,121.6,506.7,119.3z"/>
	<path class="st7" d="M560.7,141.6c0.9-1.1,1.9-2,2.9-2.9c1,2.6,1.4,5.4,1.7,8.2c-6.8,6.3-12.7,13.4-19.2,19.9
		c-2.3-0.7-4.6-1.3-6.9-2c-1.5,4.3-2.8,9-1.5,13.5c1.5,4.5,4.1,8.5,6.6,12.4c3.9,5.8,7.9,11.6,12.4,17c-0.9,3.7-1.8,7.5-2.8,11.2
		c-6-9-10.3-19-15.5-28.5c-2.7-6-7.6-11.6-6.5-18.6c1-4.1,3.4-7.6,4.7-11.6c1.6-0.3,3.2,1.2,4.8,1.7
		C546.9,154.3,554.8,148.9,560.7,141.6z"/>
	<path class="st7" d="M485.8,157.9c7,4,12.8,9.8,20.2,13.1c1.3-1.4,2.6-2.8,4-4.2c1.8,1.5,3.6,3,5.3,4.6c-2.5,2.2-4.9,4.3-7.4,6.5
		c-6.1-2.9-12.3-5.8-17.6-10.1C488.4,164.6,487.1,161.2,485.8,157.9z"/>
	<path class="st7" d="M771.8,247.5c5.8-3.2,11.7-6.4,18.3-7.7c2.5-0.6,5.6-0.4,7,2c2.3,3.9,2.6,8.7,1.5,13l-0.5,1.3
		c-2.7-3-4.3-6.7-6.4-10c-7,0.5-14.1,2.5-20.1,6.3c-5.4,5.3-10.3,11-15.5,16.4c-5.6,7-11.9,13.6-18.9,19.3c-0.2-5.8,2.4-11.6,7.2-15
		c7.7-5.5,14.1-12.7,19.9-20.1C766.1,250.5,769.1,249.1,771.8,247.5z"/>
	<path class="st7" d="M561.4,344.5c3.4,3.7,4.5,8.7,7,12.9c7.4,12.5,15.2,24.8,22.5,37.3c-6.3-2.7-11.5-7.4-16.3-12.4
		c-5-5.1-8-11.8-10.9-18.2C560.9,358,560.7,351.1,561.4,344.5z"/>
	<path class="st7" d="M546,406.8c3.7-12.4,7.8-24.7,11.8-37c2.1,2.9,4.5,5.7,5.5,9.1c0.2,3.6-1.7,7-3.3,10.1
		C556.2,395.5,551.5,401.5,546,406.8z"/>
</g>
<g id="_x23_1a131fff">
	<path class="st8" d="M592.8,76c12.1,4,24.3,7.4,36.5,11.2c-3.3,7.7-10.6,13.2-12.4,21.6c1.4-0.3,2.8-0.6,4.1-0.9
		c-0.9,5.9-1.5,11.8-1.3,17.7c-3.9,0.5-7.7,1.3-11.5,2.4c-1.8,15.2-4.3,30.3-8.6,45c-1.3-1-3.8-1.7-3.2-3.8
		c0.7-6.2,2.5-12.3,3.7-18.4c2.7-12.5,3.8-25.3,3.6-38c-4.7,0.4-8.4,3.4-12.6,5.2c1.2-11.7,2.5-23.4,1.6-35.2
		C592.4,80.6,592.5,78.3,592.8,76z"/>
	<path class="st8" d="M628,102.5c1.8-4.8,4-9.6,7.8-13.2c7.6,2.5,14.2,7.3,20.4,12.3c13.7,13.1,19.7,31.6,27.7,48.3
		c2.7,6,6.4,11.7,7.9,18.3c-9.4-13.5-17.5-27.9-26.7-41.5c-4.1-6.3-8.3-13.1-14.8-17.3C643.7,105.3,635.8,103.1,628,102.5z"/>
	<path class="st8" d="M623,125.4c0.8-6.2,1.9-12.4,3.4-18.5c0.3,0.6,0.7,1.8,1,2.4c4,2.5,8.6,3.8,12.4,6.7c5.5,4.1,10.5,9,14.4,14.7
		C644.2,127.3,633.8,123.8,623,125.4z"/>
	<path class="st8" d="M625.4,164.4c0.3,0.3,0.8,0.8,1,1.1c-1.2,8.8,0.8,17.5,1.1,26.3c0.4,8.1-0.9,16.1-1.7,24.2
		c-2.5,24.9-2.9,50.2,0.9,75c2.8,18.9,8,37.4,14.9,55.3c12,29.2,23.7,58.4,35.5,87.7c1.7,4.4,3.8,8.6,4.8,13.2
		c-8.5-12-15.4-25-22.2-38c-9.9-19.5-18.4-39.8-25.7-60.4c-6.1-18-11.9-36.1-15.2-54.9c-1.8-16.1-2.2-32.3-1.4-48.4
		c0.5-11.3,3.5-22.2,4.9-33.4c1.3-9.7,2.2-19.4,2.8-29.1C625.6,176.7,625,170.6,625.4,164.4z"/>
	<path class="st8" d="M629.2,170.6c21.1,26.7,43.5,52.5,69.2,74.9c11,9.3,22.5,18.3,35.5,24.8c-3.4,3.7-5.9,8.5-9.9,11.6
		c-7.8-6.4-14.9-13.7-22.5-20.4c-8.8-8.2-17.9-16.1-25.6-25.3c-12.4-14.7-25.1-29.1-36.2-44.9C635.5,184.8,631.1,178.1,629.2,170.6z
		"/>
	<path class="st8" d="M588.8,193.6c1.4-0.8,3-0.5,4.5-0.7c-2.8,9-6.3,17.7-10.1,26.3c-6.9,15.4-14.1,30.7-23.3,44.9
		c0.3-1.6,0.7-3.3,1.3-4.8C570.7,237.5,580.2,215.7,588.8,193.6z"/>
	<path class="st8" d="M463.8,248.7c3.9,4.1,6.2,9.3,9.4,14c3.2,5.7,7.1,11,10,16.9c-1.4,0.4-2.8,0.8-4.1,1.2
		C473.8,270.2,468.5,259.6,463.8,248.7z"/>
	<path class="st8" d="M480.9,259.7c7.3,5.5,12.4,13.3,17.3,21c12.5,21.2,16.6,46.7,13.5,71c-0.9,7.5-2.9,14.8-3.4,22.4
		c0-18.5,0.5-37.1-1.8-55.5c-2.1-18.9-11.2-36-21.5-51.6C483.4,264.7,482,262.3,480.9,259.7z"/>
	<path class="st8" d="M482.9,293.6c1.6-0.4,3.2-0.5,4.8-0.6c-0.2,3-0.4,6.1-0.4,9.2c1.8-1.5,3.4-3.1,5-4.8c3.9,6.2,5.6,13.7,5.6,21
		c-2.2-4.2-3.8-8.7-6.5-12.6c-2.1,1.1-4.2,2.3-6.4,3.4c0.1-5,0.5-10.1,0.9-15.1C485.2,293.9,483.6,293.7,482.9,293.6z"/>
	<path class="st8" d="M568.7,388.5c1.5-1.1,2.8,0.9,4.1,1.5c12.9,10.7,28.5,17.8,40.8,29.2c11.7,10.9,25.3,19.4,38,29
		c3.8,3,4.1,8.2,4.6,12.6c1.6,26.5-4,52.6-3.6,79.1c0.2,18.6-3.4,36.8-6.6,55c-0.1,1.5-1.2,2.6-2.2,3.6c-0.8-3.4-1.3-6.8-2.5-10.1
		c0.5-2.5,0.7-5,0.8-7.6c0.2-27.9-0.6-55.8,0.4-83.6c0.1-10,3.1-20.2,0.1-30c-1.4-4.3-3.4-9.1-7.8-11.1
		c-17.4-8.3-34.4-17.7-50.3-28.6c-6.2-3.8-11.8-8.7-18.7-11.2c-6.9-2.1-12.8,3.3-17.5,7.6c-8.4,7.3-15.9,15.6-24.4,22.9
		c4.7-9,10.9-17.1,17-25.1c6-7.9,13.8-14.2,20.4-21.7C564.4,396.7,565.9,392.2,568.7,388.5z"/>
	<path class="st8" d="M550.9,434.9c3.4,3.4,7,6.5,10.9,9.4c2.5,1.7,2.9,4.9,3,7.6c1.5,23.3,0,46.7,1,70.1
		c2.6,21.7,4.9,43.4,8.3,64.9c0.7,5.5,1.9,10.9,1.9,16.4c-1.4-4.1-2.8-8.2-3.9-12.4c-11.5-43.3-14.7-88.4-13.1-133
		c0.1-2.9,0.4-6-1.3-8.6C554.8,444.7,552.3,440,550.9,434.9z"/>
	<path class="st8" d="M569.5,734.6c3.8-19.8,8.3-39.5,13.1-59.1c1.3,6,0.3,12.1-0.1,18.1c-2.1,20.2-6.9,40-7.6,60.3
		c-0.4,11.7-0.8,23.5,2,35c2.3,9.5,0.8,19.4,2,29c1,8.1-2.3,15.9-1.8,24c-6.4,2.3-13.2,3.5-19.3,6.8c-1.9,1-4,1.8-6.1,2.2
		c3.9-4,8.4-7.3,13.2-10.1c2.4-1.5,5.7-2.9,5.7-6.2c1.9-17-0.8-34-3.2-50.7C566.6,767.4,567,750.8,569.5,734.6z"/>
	<path class="st8" d="M638.7,686c0.7,1.8,1.4,3.7,1.8,5.6c4.1,21.9,4.6,44.2,5.8,66.4c0.5,10,0.7,20.1,2.5,30
		c0.7,4,1.6,8.2,0.8,12.3c-0.9,4.4-2.9,8.4-4.6,12.5c-1.7,3.8-3.5,7.8-7,10.3c1.5-15.3,2.6-30.7,2.5-46.2c0.3-26.4-0.5-52.9-4-79.1
		c-0.3-2.2-0.9-4.4-1.6-6.5l-0.1-0.4C635.9,689.3,637.3,687.6,638.7,686z"/>
	<path class="st8" d="M650.5,825.3c1.8-2.6,2.7-7,6.3-7.6c3.4,6.1,5,13.2,5.4,20.1c-2.8,2.1-6.2,3.1-8.9,5.3
		c-4.9,3.8-11.2,4.3-16.9,6.2c-8.6,2.5-16.8,7.3-25.9,7c-4.6-3-8.7-6.6-13.1-10c-3.5-3.1-7.5-5.9-10.4-9.5c-1.3-1.5,0.1-3.3,0.5-4.8
		c7.1,5.7,14.8,10.7,22,16.3c1.8,1.3,3.9,3.2,6.3,2.3c10.3-2.8,20.3-6.8,30.1-10.8c1.8-0.8,3.8-1.5,5.1-3
		C651.7,833,651,829.2,650.5,825.3z"/>
</g>
<g id="_x23_2d2137ff">
	<path class="st9" d="M628,102.5c7.8,0.7,15.7,2.8,22.4,7c6.5,4.2,10.7,10.9,14.8,17.3c9.3,13.6,17.3,28,26.7,41.5
		c5.3,8.1,8.8,17.1,13.2,25.7c3.2,6.9,6.9,13.5,9.7,20.5c-3.3,0.2-6.7,0.4-10,0.7c1.7,4,6.8,3.5,10.1,5.6c-2,3.1-5.6,5-7.2,8.4
		c2.9,0,5.8-0.2,8.7-0.7c0.5,2.8,0.9,5.7,1.2,8.6c3.5-3.6,5-9,9.5-11.6c1.1,0.9,2.5,1.7,3.3,3c3.2,6.8,9.3,11.7,13.2,18
		c1,1.8,0.2,3.8-0.2,5.7c-1.3,4.2-2.7,8.3-3.9,12.5c-1.7,2.1-3.8,3.8-5.6,5.7c-13-6.5-24.4-15.5-35.5-24.8
		c-25.7-22.4-48.1-48.2-69.2-74.9c-1-1.7-1.5-3.6-2.8-5.1c-0.3-0.3-0.8-0.8-1-1.1c-0.3,6.2,0.3,12.4-0.2,18.6
		c-0.7,9.7-1.5,19.5-2.8,29.1c-1.4,11.2-4.4,22.1-4.9,33.4c-0.8,16.1-0.3,32.4,1.4,48.4c3.2,18.7,9.1,36.9,15.2,54.9
		c7.2,20.7,15.8,40.9,25.7,60.4c6.8,13,13.7,26,22.2,38c0.7,1.1,1.3,2.1,1.9,3.2c-4.3,0-8.3-1.7-12.1-3.2
		c-11.1-4.7-21.6-10.7-31.5-17.5c-4.7-3.2-8.5-7.5-12.6-11.4c-6.1-5.9-12.8-11.1-18.3-17.6c-9.9-11.7-18.9-24.2-26.4-37.5
		c-7.4-13.3-14.6-26.8-20.3-40.9c-3.4-11.4-6.2-23-9.5-34.4c-0.5-2.5-2-5.2-0.7-7.6c2.4-5.5,4.5-11.1,7.7-16.2
		c9.2-14.2,16.3-29.5,23.3-44.9c3.8-8.6,7.3-17.3,10.1-26.3l0.2-0.5c8.4-0.6,16.9-2.3,24.3-6.5c1.3-0.7,1.1-2.4,1.5-3.6
		c-1.7-0.1-4,1.2-5.2-0.4c-2.5-3.3-4.5-7-7.1-10.3c-1.6,1-3.1,2.2-4.8,2.9c-0.9-0.4-1.8-0.9-2.7-1.4c4.3-14.7,6.8-29.8,8.6-45
		c3.8-1.1,7.6-2,11.5-2.4c0.5,1.7,1.3,3.3,2.2,4.8c0.4-1.7,0.8-3.4,1.2-5.1c10.7-1.7,21.2,1.9,31.2,5.3c-3.9-5.7-8.8-10.6-14.4-14.7
		c-3.8-2.9-8.4-4.2-12.4-6.7c-0.3-0.6-0.7-1.8-1-2.4C626.9,105.5,627.5,104,628,102.5 M556.4,281.3c-3,0.5-1.6,5.2,1.3,4.2
		C560.4,284.9,559,280.3,556.4,281.3 M566.3,293.8c1,11.2,3.5,22.3,6.6,33.2c6.1,20.8,17.7,39.8,32.5,55.6
		c4.2,4.4,8.7,8.7,13.7,12.2c-3.8-6.7-8.6-12.7-12.7-19.3c-10.9-16-20.3-33-28.2-50.7C573.8,314.6,570.2,304.1,566.3,293.8z"/>
	<path class="st9" d="M434,137c5-3.8,9.3-8.4,13.7-12.8c2.3,10.1,4.9,20.1,7.3,30.1c-4.1-0.5-7.8-3.2-12-2.3
		c2.6,13.5,9,25.8,14.9,38.1c4.4,9.7,11.6,17.6,17.7,26.2c4.9,6.1,9.4,12.6,15.1,17.9c8.5,8.2,16.7,16.6,25.2,24.9
		c5.4,4.6,10.5,9.5,15.4,14.6c0.8,0.8,1.6,1.7,1.9,2.8c0.4,1.3,0.7,2.7,1.3,3.9c9.2,15.2,14.4,33.1,12.9,51
		c-1.1,19.4-2.5,39.1-9.8,57.4c-6.6,16.3-16.5,31-27.4,44.7c-1.9,2.5-4,4.7-6.3,6.9c1.2-10.8,2.8-21.5,3.5-32.3
		c0.4-6.5,1.4-13.1-0.3-19.5c-0.2-4.8,0.9-9.5,0.9-14.2c0.5-7.6,2.5-14.9,3.4-22.4c3.2-24.3-0.9-49.8-13.5-71
		c-4.8-7.7-9.9-15.4-17.3-21c-1.6-1.4-2.8-3.1-4-4.8c-9.3-13.6-18.7-27.2-26-42c-6-12-10.5-24.7-15.7-37.1c0.2,13.2,4.7,26,9.9,38
		c5.2,12.2,12.6,23.2,18.7,35c4.6,10.9,10,21.4,15.2,32.1c-1.3,0.7-2.6,1.4-3.9,2.2c3.2,1.5,6.7,2.6,10,3.9
		c-2.3,2.2-4.6,4.5-6.7,7.1c1.5-0.2,3-0.3,4.4-0.4c0.8,0.1,2.3,0.3,3.1,0.4c-0.4,5-0.8,10-0.9,15.1c2.1-1.1,4.3-2.2,6.4-3.4
		c2.7,3.9,4.3,8.4,6.5,12.6c1.5,4.5,1,9.3,1.3,14c-9.9-1.3-19.4-4.8-28.2-9.4c-5.7-3.4-11.8-6.9-15.6-12.5
		c-4.5-6.5-8.8-13.4-10.9-21c-3.4-12.2-5.6-24.6-8.1-37c-5.3-26.1-9.7-52.5-15.3-78.5c-1.4-5.7-1.4-11.8,0.2-17.5
		c1.1-4.6,4.2-8.5,5.1-13.1l0.1-0.3c0.8-0.5,1.7-1.1,2.5-1.6c1.1,6,2.1,12,4.4,17.6C433.8,151.6,433.6,144.3,434,137 M449.1,189.9
		c0.4,4,2,7.7,3.5,11.4c8.4,21.6,23.9,40.3,43.4,52.8c1.9,1.3,4,2.2,6.1,3c-4.4-5.3-9.6-9.8-14.3-14.8
		c-9.9-10.3-18.8-21.4-26.9-33.1C456.6,202.9,453.1,196.2,449.1,189.9z"/>
	<path class="st9" d="M548.2,424c4.7-4.3,10.6-9.8,17.5-7.6c6.9,2.5,12.6,7.3,18.7,11.2c15.9,11,32.9,20.3,50.3,28.6
		c4.4,2,6.5,6.7,7.8,11.1c3,9.8,0.1,20-0.1,30c-0.9,27.9-0.1,55.8-0.4,83.6c-0.1,2.5-0.3,5.1-0.8,7.6c-3.2,9.5-3,19.6-3.1,29.5
		c0,12.7,0.8,25.3,0.5,38c0,6-2.6,11.5-4.5,17.1c-1.2,3.1-2.1,6.5-4.2,9.1c-3.6,0.8-7.4-0.8-10.3-3c-4.5-3.3-6.8-8.6-10.8-12.4
		c1.3,6.8,3.7,13.6,7.8,19.2c3.1,4.3,8.2,6.6,13.3,7.6c1.9,0.6,3.1-1.4,4.6-2.2c0.7,2.1,1.3,4.3,1.6,6.5c3.6,26.2,4.4,52.7,4,79.1
		c0.1,15.4-1,30.8-2.5,46.2c-3.8,4.8-10.5,6.1-16.2,7.3c-3.1,0.8-7.5,0.6-8.7,4.3c5.5,1.8,11.4,1.3,17,0.8
		c7.9-0.9,14.3-5.9,20.6-10.2c0.5,3.8,1.2,7.7,0.5,11.5c-1.3,1.5-3.3,2.2-5.1,3c-9.9,4-19.8,7.9-30.1,10.8c-2.4,0.9-4.5-1.1-6.3-2.3
		c-7.2-5.6-14.9-10.6-22-16.3c3.8-5.1,1-11.1,0.8-16.6c1.1-6.1,0.4-12.4,0.5-18.5c0-6.7-0.1-13.3,0.2-20c9.1,8.6,21.2,15.2,34,14.4
		c-2.7-3.3-6.5-5.1-10-7.3c-5.8-3.6-11.8-7.2-16.4-12.4l0-0.4c-0.6-5.2-2-10.3-2.8-15.4c-2.2-14.2-2.3-28.8-0.6-43.1
		c2.3-21.5,2-43.2,1.7-64.9c2.6,2,5.1,4.2,8.5,4.8c0.5,0.1,1.4,0.3,1.9,0.4c-2.1-6.4-5.5-12.2-8.3-18.3c-4.8-9.9-8.4-20.3-10.9-31
		c-3-12.6-6.7-25.1-7.4-38.1c-0.3-7.1-3.1-13.8-3.2-20.9c-0.4-10.3-1-20.7-1.9-31c-1.3-22,1.3-44.1,0.6-66.1
		c0.2-3.7-1.9-7.3-5.5-8.4c-6.2-2-12.2-4.6-18.4-6.6c0.2,0.5,0.5,1.5,0.6,2c1.4,5.2,3.9,9.9,6.7,14.4c1.7,2.5,1.4,5.7,1.3,8.6
		c-1.6,44.6,1.6,89.7,13.1,133c1.1,4.2,2.4,8.3,3.9,12.4c3.1,13.7,6.4,27.6,6,41.7c0.1,9.4-1.8,18.8-5.3,27.6
		c-2,5.8-5.2,11.2-5.6,17.4c7.5-2.4,7.1-11.7,12.1-16.5c-0.1,0.5-0.3,1.6-0.4,2.1c-4.8,19.6-9.3,39.3-13.1,59.1
		c-2.6,16.3-2.9,32.9-2.2,49.3c2.4,16.8,5.1,33.8,3.2,50.7c0,3.3-3.3,4.7-5.7,6.2c-4.8,2.8-9.3,6.1-13.2,10.1
		c-2.8,2.4-6,4.7-9.7,5.6c-6.5-1.2-11.5-5.9-16.6-9.6l0-0.2c-1.5-7.7-1.2-15.9,2.6-23c6.5,3,13.8,4.6,21,4c1.4-0.1,2.6-1.1,3.9-1.6
		c-1-1.2-2.1-2.5-3.8-2.5c-5.5-0.7-10.8-3-15.5-6c0.4-7.4-0.9-14.8,1.2-22c7.5,0.1,14.9,0.9,22.4,0.3c-4.6-5.8-12.5-6.1-19.2-7.7
		c0.6-0.1,1.9-0.3,2.5-0.4c-0.2-25,0.7-50.1,4.8-74.8c1.2-8.3,4.2-16.1,5.3-24.4c3.1-20.8,0.7-41.9-3.2-62.3
		c2.7-5.8,5.5-11.5,9.2-16.8c1.3-2.1,2.8-4.2,2.7-6.8c-1.7,1.4-3,3.2-4.9,4.3c-4.5,1.4-8.5,4.3-13.3,5.1c-3.6-4.3-5.2-9.8-7.4-14.9
		c-8.2-22.7-14.6-46-20.4-69.4c-0.3,1.4-0.5,2.8-0.7,4.2c-2.7-18-3.4-36.4-6-54.5c-0.3-3.3-1-7,1.1-9.8c2.8-4.1,6.3-7.7,9.2-11.8
		c2.3-3,4.1-6.4,6.9-9C532.3,439.6,539.8,431.4,548.2,424 M583.5,468.8c-1.6,6.7-1.3,13.6-2,20.4c-1.5,35.1,0.6,70.5,8.6,104.7
		c3.5,14,7.3,28.2,13.8,41.2c-0.2-5.3-1.6-10.4-2.4-15.6C593,569.6,587.6,519.2,583.5,468.8z"/>
</g>
<g id="_x23_402f4fff">
	<path class="st10" d="M415.6,162.9c0.3-7.8,4.4-15.3,10.9-19.7c-1,4.6-4,8.5-5.1,13.1c-1.6,5.7-1.6,11.7-0.2,17.5
		c5.6,26.1,10,52.4,15.3,78.5c2.6,12.4,4.8,24.8,8.1,37c2.1,7.7,6.4,14.5,10.9,21c3.8,5.6,9.8,9.1,15.6,12.5
		c8.8,4.6,18.3,8.1,28.2,9.4c0.1,6.7,0.1,13.4-0.4,20.1c-7.6-3.7-14.4-8.9-21.4-13.8c-13.8-10.5-27.6-22.3-34.5-38.6
		c-5.5-13.8-7.1-28.7-10.1-43.1c-4.1-20.1-10.1-39.7-13.1-60C418.1,185.5,415.1,174.3,415.6,162.9z"/>
	<path class="st10" d="M449.1,189.9c4,6.3,7.5,13,11.8,19.2c8.1,11.7,17,22.8,26.9,33.1c4.7,5,10,9.5,14.3,14.8
		c-2.1-0.8-4.2-1.7-6.1-3c-19.5-12.5-34.9-31.2-43.4-52.8C451.1,197.6,449.5,193.9,449.1,189.9z"/>
	<path class="st10" d="M743.5,246.4c-3.9-6.3-10-11.2-13.2-18c7.2,5.3,13.9,11.2,20.8,16.8c-3,6.9-6.2,14.1-11.7,19.5
		c1.2-4.2,2.6-8.4,3.9-12.5C743.7,250.2,744.5,248.1,743.5,246.4z"/>
	<path class="st10" d="M534.6,280.3c-0.6-1.3-0.9-2.6-1.3-3.9c5.4,5.6,10.3,12,12.7,19.5c5,14.1,9.6,28.9,9,44.1
		c-1.5,18.6-5.9,37-13.9,54c-7.5,16.2-15,32.5-24.5,47.6c-4.1,6.7-10.2,11.7-15.7,17.3c-1.6,1.7-3.5,3-5.4,4.3
		c2.6-25.1,9.2-49.6,11.9-74.7c1.7,6.4,0.7,13,0.3,19.5c-0.8,10.8-2.3,21.6-3.5,32.3c2.2-2.2,4.3-4.5,6.3-6.9
		c10.9-13.7,20.9-28.4,27.4-44.7c7.2-18.2,8.6-38,9.8-57.4C549,313.4,543.8,295.4,534.6,280.3z"/>
	<path class="st10" d="M566.3,293.8c3.9,10.4,7.5,20.8,11.9,31c8,17.7,17.3,34.7,28.2,50.7c4,6.5,8.9,12.6,12.7,19.3
		c-5.1-3.4-9.5-7.7-13.7-12.2c-14.7-15.8-26.3-34.8-32.5-55.6C569.7,316.1,567.2,305,566.3,293.8z"/>
	<path class="st10" d="M583.5,468.8c4.1,50.4,9.5,100.8,18,150.7c0.8,5.2,2.3,10.3,2.4,15.6c-6.5-13-10.3-27.2-13.8-41.2
		c-8-34.2-10.1-69.6-8.6-104.7C582.1,482.4,581.9,475.5,583.5,468.8z"/>
	<path class="st10" d="M512.6,531.9c0.2-1.4,0.4-2.8,0.7-4.2c5.8,23.4,12.2,46.7,20.4,69.4c2.2,5.1,3.8,10.6,7.4,14.9
		c4.7-0.7,8.7-3.7,13.3-5.1c-5.5,7.7-10.8,16.2-19.3,21.1c-5.6-19.2-10.4-38.5-15.4-57.9C516.4,557.6,514.2,544.8,512.6,531.9z"/>
	<path class="st10" d="M537.1,638c3.8-3.6,7-7.6,10.2-11.7c3.9,20.5,6.3,41.6,3.2,62.3c-1,8.3-4,16.2-5.3,24.4
		c-4,24.7-5,49.8-4.8,74.8c-0.6,0.1-1.9,0.3-2.5,0.4c-2.2-0.5-5.2-0.7-6.6-2.5c-0.8-12.3,1.6-24.5,2-36.8c0.2-11.7,1.1-23.5,3.5-35
		c3.8-17.4,4.6-35.3,3.3-53C539.8,653.2,537.5,645.7,537.1,638z"/>
	<path class="st10" d="M588.2,629.8c3.6,8.5,8.2,16.7,15.1,23c-3.3-0.5-5.9-2.8-8.5-4.8c0.3,21.6,0.6,43.3-1.7,64.9
		c-1.7,14.3-1.6,28.8,0.6,43.1c0.8,5.2,2.2,10.2,2.8,15.4c-4.5-4-8.9-8.5-10.6-14.4c-2.3-7.5-0.6-15.5,0.2-23.1
		c3.1-23.6,3-47.4,5.3-71C592.3,651.7,588.7,640.9,588.2,629.8z"/>
	<path class="st10" d="M531.1,795.8c1.2-0.2,2.5-0.3,3.7-0.3c-2.1,7.2-0.8,14.7-1.2,22c-3-2.4-6.5-4.8-7.5-8.7
		C526.3,804.2,528.2,799.5,531.1,795.8z"/>
	<path class="st10" d="M522.3,823.1c1.7-1.8,3.9,0.2,5.7,0.6c-3.9,7.1-4.2,15.3-2.6,23c-4.8-3.8-9.2-8.1-13-12.8
		C514.8,829.6,518.4,826,522.3,823.1z"/>
</g>
<g id="_x23_73090dff">
	<path class="st11" d="M513,161.9c1.1-4.4,4.4-7.8,7.8-10.6c1.6,0.8,3.1,1.5,4.7,2.3c-3.4,3.6-6.9,7.2-10.1,11
		C514.6,163.7,513.5,163,513,161.9z"/>
	<path class="st11" d="M530.4,157l0.8-0.7c0.1,5.1-1.5,10.9-5.9,13.9c-2.3,1.8-4.2-1.4-6-2.5l0.1-0.1
		C523.3,164.3,526.6,160.4,530.4,157z"/>
	<path class="st11" d="M524.1,179.7c2.7,2,4.6,4.8,6.3,7.6c-2.6,3.3-5.5,6.5-8.9,9C521.7,190.7,522.5,185.1,524.1,179.7z"/>
	<path class="st11" d="M520.6,205.4c4.7-3.9,8.1-9.1,12.7-13.1c0.9,1.6,1.8,3.3,2.7,4.9c-5.1,5.4-9.5,11.6-15.6,16.1
		C520.4,210.7,520.5,208,520.6,205.4z"/>
	<path class="st11" d="M538.7,202.2l0.1-0.1c1,1.9,1.9,3.7,2.9,5.5c-7.2,6.7-13.2,14.5-20.3,21.4c-0.4-2.5-0.7-5-1-7.5
		C527.2,215.7,532.6,208.6,538.7,202.2z"/>
	<path class="st11" d="M524,234.2c6.3-7.5,13.3-14.2,20.1-21.2c0.8,1.7,1.5,3.5,2.3,5.2c-7.1,6.5-12.9,14.2-19.8,20.9
		C525.7,237.4,524.8,235.8,524,234.2z"/>
	<path class="st11" d="M548.5,223.7c0.6,1.9,1.3,3.8,1.9,5.7c-6.2,6.6-12.5,13.1-18.5,20c-1-1.8-1.9-3.5-2.8-5.3
		C535.4,237.1,541.9,230.3,548.5,223.7z"/>
	<path class="st11" d="M534.2,253.6c5.1-4.1,9.1-9.2,14.2-13.2c-0.5,2.9-1,5.8-1.8,8.6l-0.2,0.1c-3.9,2.3-6.3,6.3-9.2,9.7
		C536.2,257.1,535.2,255.4,534.2,253.6z"/>
</g>
<g id="_x23_8a1317ff">
	<path class="st12" d="M525.6,153.6c1.6,1.1,3.2,2.2,4.8,3.4c-3.8,3.4-7.1,7.3-11.1,10.6c-1.3-1-2.6-2-3.9-3
		C518.7,160.8,522.2,157.2,525.6,153.6z"/>
	<path class="st12" d="M521.5,196.3c3.4-2.5,6.3-5.7,8.9-9c1,1.7,2,3.4,3,5c-4.6,4-8,9.2-12.7,13.1c0.2-3,0.4-6,0.7-8.9L521.5,196.3
		z"/>
	<path class="st12" d="M520.4,213.3c6.1-4.4,10.5-10.6,15.6-16.1c0.9,1.7,1.8,3.3,2.7,5c-6.1,6.4-11.5,13.5-18.3,19.2
		C520.4,218.7,520.4,216,520.4,213.3z"/>
	<path class="st12" d="M521.4,229c7-6.9,13-14.7,20.3-21.4c0.8,1.8,1.6,3.6,2.4,5.3c-6.7,7-13.8,13.7-20.1,21.2
		C523.2,232.4,522.3,230.7,521.4,229z"/>
	<path class="st12" d="M526.5,239c6.9-6.7,12.8-14.3,19.8-20.9c0.7,1.9,1.4,3.7,2.2,5.5c-6.6,6.6-13.1,13.4-19.4,20.4
		C528.3,242.4,527.4,240.7,526.5,239z"/>
	<path class="st12" d="M532,249.4c5.9-6.9,12.3-13.4,18.5-20c0.1,3.7-0.2,7.6-2,11c-5.1,4-9.2,9.2-14.2,13.2
		C533.5,252.2,532.7,250.8,532,249.4z"/>
	<path class="st12" d="M537.2,258.9c2.9-3.4,5.3-7.4,9.2-9.7c-0.9,5.5-2.2,10.9-4.8,15.9C540.1,263,538.6,261,537.2,258.9z"/>
</g>
<g id="_x23_c1c1c1ff">
	<path class="st13" d="M594.6,174.9c1.5,0.7,3,1.4,4.5,2.2c-1.6,2.1-3.8,3.7-6.1,5.1C593.4,179.8,594,177.3,594.6,174.9z"/>
</g>
<g id="_x23_ffed00ff">
	<path class="st14" d="M872.4,216.6c4.6-1.8,10.2,1.5,11,6.4c1.1,5-3.4,10.2-8.5,9.8c-4.9,0-9-5.1-7.9-9.9
		C867.6,220,869.7,217.5,872.4,216.6z"/>
	<path class="st14" d="M691.4,358.4c4.3-1.9,9.6,1.7,9.3,6.5c0.1,5.2-6.7,8.5-10.7,5.1C685.8,367.2,686.7,360.1,691.4,358.4z"/>
</g>
<g id="_x23_009819ff">
	<path class="st15" d="M812.3,235.2c6.3-4,13.5-6.9,20.8-8.3c-6.5,17.5-20.4,30.8-34.4,42.5c1.4-2.1,2.2-4.5,3.1-6.9
		c0.3-1.1,1.2-2,1.9-2.8c4.8-5.2,9.3-10.8,12.6-17c-1.2,0.4-2.4,0.8-3.5,1.3C812.7,241.1,811.6,238.1,812.3,235.2z"/>
	<path class="st15" d="M882.3,238.9c3.2,4.8,4.6,10.5,6,16c4.1,18.6,2.3,38.8-6.4,55.9c-4.5,8.9-11.6,16.3-19.7,22.1
		c-6.9,4.8-16.4,5-23.8,1.4c-5.4-2.7-10.6-6-14.4-10.8c-4.7-6.3-9.5-12.5-14.3-18.7c6.1-4.7,12.3-9.3,18-14.6l0.3-0.3
		c1.8,2.1,3.5,4.2,5.5,6.1c4,3.4,9.5,3.8,14.6,3.9c9.1,0.1,18.4-4,23.8-11.5C880.9,273.7,882.1,255.9,882.3,238.9 M876.7,291.6
		c-4.1,5-9,9.5-15.1,11.9c-9.5,3.5-20.6,3.9-29.4-1.6c-2.6,4.1-5.5,8.8-4.5,13.9c1,5.4,6.1,9.1,11.3,10.1c6.6,1.3,13.9,0.6,19.7-3.3
		c14.4-9,23.1-25.4,25.2-42C881.3,284.2,879.5,288.2,876.7,291.6z"/>
	<path class="st15" d="M765.8,298.4c9.4-5.1,17-12.9,24.6-20.3c6.5,8.9,12.8,17.9,19.3,26.8c-13.3,8.4-27.5,15.3-42.6,19.6
		c-3.7-5.9-7.8-11.6-14.1-15c3.8-2.8,7.6-5.4,11.4-8.2C765.4,300.6,765.9,299.5,765.8,298.4z"/>
	<path class="st15" d="M756.1,352.4c5.2,0.1,10.3-0.9,15.4-1.3c0.4,3,0.7,5.9,1,8.9c-9.3-0.4-19.8-0.6-26.8-7.7
		C749.2,352.2,752.6,352.3,756.1,352.4z"/>
</g>
<g id="_x23_1fb538ff">
	<path class="st16" d="M761.1,273c9.3-6.7,18.4-13.6,27.8-20.1c0.3,1.4,1.8,3.1,0.4,4.3c-10.7,10.4-22.9,19.1-34.3,28.7
		c-8.7,7.4-18.2,13.9-26.1,22.2c8.7-2.6,16.5-7.6,24.5-12c14.2-8.4,28.8-16.7,41.2-27.7c2.4-2,4.8-4,7.3-5.9
		c-0.9,2.4-1.8,4.8-3.1,6.9c-2.4,2.6-5,5-7.4,7.7c-0.2,0.2-0.7,0.7-1,0.9c-7.5,7.5-15.1,15.3-24.6,20.3
		c-14.7,4.9-28.7,11.6-42.1,19.3c-3.4,1.9-6.6,4.2-9.8,6.6c0.2-5.8,3.9-10.6,8-14.4C734.9,297.5,747.4,284.5,761.1,273z"/>
	<path class="st16" d="M876.7,291.6c2.8-3.4,4.6-7.4,7.2-10.9c-2.1,16.6-10.8,33-25.2,42c-5.7,3.8-13,4.6-19.7,3.3
		c-5.1-1-10.3-4.7-11.3-10.1c-1-5.1,1.8-9.8,4.5-13.9c8.8,5.5,19.9,5,29.4,1.6C867.7,301.1,872.7,296.6,876.7,291.6z"/>
</g>
<g id="_x23_c2b500ff">
	<path class="st17" d="M842.3,259.3c3.1-1.1,6.3,2.2,5.3,5.3c-0.7,3-5,4-7,1.8C838.3,264.2,839.3,260,842.3,259.3z"/>
	<path class="st17" d="M733.4,344.2c2.3-2,6.2-0.2,6.3,2.7c0.5,3-3,5.6-5.6,4.1C731.4,349.9,730.9,345.9,733.4,344.2z"/>
</g>
<g id="_x23_efefefff">
	<path class="st18" d="M837.8,268.1c2.6,1.9,5.7,2.7,8.8,2.9c0.3,2.3,0.5,4.6,0.7,6.9C843.4,275.4,840.4,271.9,837.8,268.1z"/>
</g>
<g id="_x23_9e0a02ff">
	<path class="st19" d="M795.7,275.1c4.5-1.2,8.9-2.9,13.1-4.9c6.7,6.3,12.5,13.5,18.9,20.1c-5.6,5.3-11.9,9.9-18,14.6
		c4.8,6.2,9.6,12.4,14.3,18.7c-0.3,3.7,0.3,7.4,0.5,11.2c-1.5,14.1-6.8,27.9-15.7,39.1c-7.1,9-16,16.5-25.8,22.2
		c-2.2,1.3-4.3,2.9-6.4,4.3c-8,2.1-16.4,1.3-24.4,0c-8.3-1.1-14.8-6.7-21.8-10.7c-6.7-3.8-12.3-9.1-18.7-13.4
		c-2.5-1.9-5.3-3.6-7.3-6.1c0.3-0.5,1-1.4,1.4-1.9c4.5,1.7,9,3.5,13,6.3c1.8,1.8,3.8,3.5,6.3,4.4c12.2,5.2,25.6,9.3,39,7.8
		c9.8-1.1,17.3-8.4,22.8-16c3-5.1,6.2-10.3,7-16.2c0.4-1.4,1-2.6,1.6-3.9c-4.5,1.9-8.3,4.9-12.3,7.6c-0.9-4.2-1.8-8.3-2.7-12.5
		c4.5-1.4,9.9-2.3,12.8-6.6c2.1-3,4.6-5.9,5.3-9.6c-5.8,2.7-10.2,7.9-16.5,9.4c-2.8,0.8-5.5-0.9-7.2-2.9c-3.1-3.5-5.3-7.7-7.8-11.6
		c15.1-4.3,29.4-11.2,42.6-19.6c-6.5-8.9-12.8-17.9-19.3-26.8c0.2-0.2,0.7-0.7,1-0.9C792.7,276.3,794.1,275.5,795.7,275.1z"/>
</g>
<g id="_x23_a20a02ff">
	<path class="st20" d="M851.4,274.6c3,3.4,4.5,7.8,5.2,12.3c-1.9-1.5-3.7-3.2-5.5-4.8C851.1,279.5,851.2,277,851.4,274.6z"/>
</g>
<g id="_x23_008216ff">
	<path class="st21" d="M837.5,279.4c2.7,2.7,5.2,5.4,8.2,7.7c2.8,2.1,6.2,3.3,8.5,6.1c-6.8,2.1-14,1.2-20.8,3
		c-2-1.9-3.7-4.1-5.5-6.1C831.4,286.8,834.6,283.2,837.5,279.4z"/>
</g>
<g id="_x23_09070bff">
	<path class="st22" d="M556.4,281.3c2.5-1.1,3.9,3.6,1.3,4.2C554.9,286.5,553.4,281.8,556.4,281.3z"/>
</g>
<g id="_x23_a3140dff">
	<path class="st23" d="M783.1,367.9c4-4.1,7.1-9.1,10.8-13.4c-0.9,5.9-4.1,11.1-7,16.2c-5.5,7.6-13,14.9-22.8,16
		c-13.4,1.5-26.7-2.6-39-7.8c-2.5-0.9-4.5-2.6-6.3-4.4c10,3.7,20.7,5.3,31.3,6C762.2,381.2,774.6,376.7,783.1,367.9z"/>
</g>
<g id="_x23_413051ff">
	<path class="st0" d="M585.1,773.4c1.3,1.1,2.6,2.3,3.9,3.5c-0.3,6.6-0.2,13.3-0.2,20c0,6.2,0.7,12.4-0.5,18.5
		C585.7,801.6,586,787.4,585.1,773.4z"/>
</g>
</svg>
