<?xml version="1.0" encoding="utf-8"?>
<!-- Generator: Adobe Illustrator 21.0.0, SVG Export Plug-In . SVG Version: 6.00 Build 0)  -->
<svg version="1.1" id="Layer_1" xmlns="http://www.w3.org/2000/svg" xmlns:xlink="http://www.w3.org/1999/xlink" x="0px" y="0px"
	 viewBox="0 0 979.085 1012.027" style="enable-background:new 0 0 979.085 1012.027;" xml:space="preserve">
<style type="text/css">
	.st0{fill:#1B75BC;}
	.st1{fill:#F1F1F2;}
	.st2{fill:#231F20;}
</style>
<g id="_x23_1b75bcff">
	<path class="st0" d="M444.505,14.446c14.76-10.73,33.45-15.74,51.6-14.16c24.59,1.77,47.7,16.4,59.74,37.94
		c137.55,223.46,275.11,446.91,412.66,670.37c3.34,5.62,7.36,10.99,9.08,17.4c1.83,5.8,1.52,11.95,1.28,17.94
		c-5.72,15.94-12.68,31.45-18.96,47.19c-19.46,47.54-39.06,95.02-58.44,142.59c-55.11,0.36-110.25,0.05-165.37,0.15
		c-181.66,0-363.32,0-544.98,0c-37.82-0.12-75.68,0.25-113.48-0.18c-21.81-53.53-43.86-106.97-65.77-160.46
		c-3.92-9.75-8.21-19.39-11.63-29.31c-0.78-9.37,0.22-19.25,5.44-27.32c139.19-226.14,278.39-452.27,417.58-678.41
		C428.645,28.956,435.815,20.706,444.505,14.446 M443.265,26.246c-8.12,7.25-13.21,17-18.9,26.09
		c-137.02,222.6-274.04,445.21-411.06,667.81c-3.58,5.53-5.34,12.23-4.79,18.81c0.28,5.89,3.15,11.15,5.23,16.54
		c23.19,56.59,46.52,113.13,69.6,169.77c7.81,0.57,15.81,0.07,23.69,0.24c262.73,0.03,525.46-0.05,788.19,0.04
		c2.35-3.88,3.63-8.57,5.57-12.77c22.58-55.04,45.17-110.08,67.74-165.12c3.56-8.68,2.62-18.98-2.36-26.91
		c-139.56-226.74-279.13-453.47-418.71-680.2c-11.61-19.53-33.73-32.09-56.43-32.27C473.585,7.766,456.025,14.296,443.265,26.246z"
		/>
	<path class="st0" d="M489.275,104.846l0.65,0.33c18.26,30.31,36.26,60.77,54.55,91.05c-15.91,27.72-32.4,55.14-48.53,82.75
		c-71.13,120.76-142.1,241.62-213.32,362.33c9.08,0.62,18.34,0.08,27.49,0.26c47.29,0.04,94.58-0.08,141.86,0.06
		c18.74,30.92,37.73,61.7,56.43,92.65c-131.81-0.01-263.61,0.08-395.41-0.05C238.315,524.376,363.945,314.696,489.275,104.846z"/>
	<path class="st0" d="M556.465,218.366l0.56-0.37l0.61,0.31c72.23,120.81,144.47,241.6,216.71,362.39
		c30.49,51.11,61.2,102.1,91.55,153.28l-0.42,0.38c-106.49-0.18-212.97,0.01-319.46-0.09c-37.64-61.75-75.38-123.45-112.94-185.25
		c37.68-0.12,75.38-0.17,113.05,0.02c18.78,30.86,37.62,61.68,56.42,92.52c31.13,0.06,62.26-0.07,93.39,0.07
		c-0.01-0.31-0.04-0.93-0.06-1.24c-36.6-62.13-73.14-124.29-109.73-186.43c-27.99-47.72-56.24-95.29-84.07-143.08
		C520.135,279.996,538.365,249.216,556.465,218.366z"/>
	<path class="st0" d="M150.625,789.816c46.47-0.02,92.94-0.03,139.41,0c0.03,30.49,0.03,60.97,0,91.46
		c-6.1,0.06-12.2-0.07-18.29,0.06l-0.35-0.55c-0.04-8.99,0.02-17.99-0.03-26.97c-33.84-0.05-67.69,0.02-101.53-0.04l-0.52,0.37
		c0.02,9.04,0.02,18.08,0,27.13c-6.24,0.02-12.47,0.01-18.7,0.01C150.605,850.796,150.595,820.306,150.625,789.816 M169.265,808.226
		c-0.02,9.01,0.05,18.02-0.03,27.04c4.8,0.58,9.88,0.07,14.8,0.24c29.12,0,58.23,0.01,87.35,0c-0.06-9.1,0.11-18.21-0.09-27.29
		C237.285,808.246,203.275,808.216,169.265,808.226z"/>
	<path class="st0" d="M457.205,789.826c6.17,0.14,12.54-0.4,18.59,0.27c-0.02,30.28-0.02,60.57,0,90.85l-0.51,0.37
		c-46.15-0.04-92.3-0.07-138.45,0.02l-0.39-0.49c-0.02-15.12-0.02-30.23,0-45.35c6.15,0,12.29,0.07,18.44-0.04
		c0.42,9.13,0.02,18.32,0.19,27.48c34.05-0.01,68.09,0.01,102.13-0.01C457.215,838.556,457.205,814.186,457.205,789.826z"/>
	<path class="st0" d="M522.205,789.826c46.34-0.05,92.68-0.02,139.02-0.01l0.34,0.49c-0.02,30.13,0.02,60.27-0.02,90.4l-0.23,0.63
		c-6.13-0.12-12.27,0-18.39-0.07c-0.04-9.15,0.01-18.31-0.02-27.46c-34.04,0-68.07-0.03-102.11,0.01c-0.04,9.06-0.01,18.13,0,27.2
		c-6.04,0.63-12.41,0.09-18.58,0.27C522.195,850.796,522.215,820.316,522.205,789.826 M540.795,808.226
		c-0.03,9.09-0.01,18.18-0.01,27.27c34.05-0.06,68.13,0.18,102.16-0.12c-0.09-9.06,0.01-18.11-0.05-27.16
		C608.865,808.236,574.825,808.226,540.795,808.226z"/>
	<path class="st0" d="M708.185,789.706c9.27,0.15,18.55-0.12,27.82,0.14c13.76,11.33,27.57,22.63,41.32,33.98
		c2.48-0.89,4.33-3.46,6.61-4.95c10.79-8.89,21.59-17.75,32.39-26.62c1.22-0.79,2.09-2.23,3.58-2.53c8.98,0,17.97,0.09,26.96-0.04
		c-1.89,2.65-5.08,4.34-7.48,6.63c-15.91,12.97-31.63,26.17-47.64,39c14.59,12.68,29.96,24.62,44.84,37.04
		c3.37,3.02,7.45,5.51,10.33,8.9c-9.27-0.27-18.72,0.42-27.87-0.35c-13.33-10.93-26.65-21.87-39.97-32.82
		c-0.44-0.24-1.32-0.72-1.77-0.96c-13.74,11.36-27.54,22.65-41.32,33.96c-9.24,0.35-18.54,0.02-27.8,0.16
		c18.02-15.44,36.78-30.23,55.11-45.4l0.09-0.6c-15.04-12.15-29.88-24.54-44.86-36.77
		C715.125,795.496,711.345,792.906,708.185,789.706z"/>
</g>
<g id="_x23_f1f1f2ff">
	<path class="st1" d="M443.265,26.246c12.76-11.95,30.32-18.48,47.77-17.97c22.7,0.18,44.82,12.74,56.43,32.27
		c139.58,226.73,279.15,453.46,418.71,680.2c4.98,7.93,5.92,18.23,2.36,26.91c-22.57,55.04-45.16,110.08-67.74,165.12
		c-1.94,4.2-3.22,8.89-5.57,12.77c-262.73-0.09-525.46-0.01-788.19-0.04c-7.88-0.17-15.88,0.33-23.69-0.24
		c-23.08-56.64-46.41-113.18-69.6-169.77c-2.08-5.39-4.95-10.65-5.23-16.54c-0.55-6.58,1.21-13.28,4.79-18.81
		c137.02-222.6,274.04-445.21,411.06-667.81C430.055,43.246,435.145,33.496,443.265,26.246 M489.275,104.846
		c-125.33,209.85-250.96,419.53-376.28,629.38c131.8,0.13,263.6,0.04,395.41,0.05c-18.7-30.95-37.69-61.73-56.43-92.65
		c-47.28-0.14-94.57-0.02-141.86-0.06c-9.15-0.18-18.41,0.36-27.49-0.26c71.22-120.71,142.19-241.57,213.32-362.33
		c16.13-27.61,32.62-55.03,48.53-82.75c-18.29-30.28-36.29-60.74-54.55-91.05L489.275,104.846 M556.465,218.366
		c-18.1,30.85-36.33,61.63-54.39,92.51c27.83,47.79,56.08,95.36,84.07,143.08c36.59,62.14,73.13,124.3,109.73,186.43
		c0.02,0.31,0.05,0.93,0.06,1.24c-31.13-0.14-62.26-0.01-93.39-0.07c-18.8-30.84-37.64-61.66-56.42-92.52
		c-37.67-0.19-75.37-0.14-113.05-0.02c37.56,61.8,75.3,123.5,112.94,185.25c106.49,0.1,212.97-0.09,319.46,0.09l0.42-0.38
		c-30.35-51.18-61.06-102.17-91.55-153.28c-72.24-120.79-144.48-241.58-216.71-362.39l-0.61-0.31L556.465,218.366 M150.625,789.816
		c-0.03,30.49-0.02,60.98-0.01,91.47c6.23,0,12.46,0.01,18.7-0.01c0.02-9.05,0.02-18.09,0-27.13l0.52-0.37
		c33.84,0.06,67.69-0.01,101.53,0.04c0.05,8.98-0.01,17.98,0.03,26.97l0.35,0.55c6.09-0.13,12.19,0,18.29-0.06
		c0.03-30.49,0.03-60.97,0-91.46C243.565,789.786,197.095,789.796,150.625,789.816 M457.205,789.826c0,24.36,0.01,48.73,0,73.1
		c-34.04,0.02-68.08,0-102.13,0.01c-0.17-9.16,0.23-18.35-0.19-27.48c-6.15,0.11-12.29,0.04-18.44,0.04
		c-0.02,15.12-0.02,30.23,0,45.35l0.39,0.49c46.15-0.09,92.3-0.06,138.45-0.02l0.51-0.37c-0.02-30.28-0.02-60.57,0-90.85
		C469.745,789.426,463.375,789.966,457.205,789.826 M522.205,789.826c0.01,30.49-0.01,60.97,0.01,91.46
		c6.17-0.18,12.54,0.36,18.58-0.27c-0.01-9.07-0.04-18.14,0-27.2c34.04-0.04,68.07-0.01,102.11-0.01
		c0.03,9.15-0.02,18.31,0.02,27.46c6.12,0.07,12.26-0.05,18.39,0.07l0.23-0.63c0.04-30.13,0-60.27,0.02-90.4l-0.34-0.49
		C614.885,789.806,568.545,789.776,522.205,789.826 M708.185,789.706c3.16,3.2,6.94,5.79,10.34,8.77
		c14.98,12.23,29.82,24.62,44.86,36.77l-0.09,0.6c-18.33,15.17-37.09,29.96-55.11,45.4c9.26-0.14,18.56,0.19,27.8-0.16
		c13.78-11.31,27.58-22.6,41.32-33.96c0.45,0.24,1.33,0.72,1.77,0.96c13.32,10.95,26.64,21.89,39.97,32.82
		c9.15,0.77,18.6,0.08,27.87,0.35c-2.88-3.39-6.96-5.88-10.33-8.9c-14.88-12.42-30.25-24.36-44.84-37.04
		c16.01-12.83,31.73-26.03,47.64-39c2.4-2.29,5.59-3.98,7.48-6.63c-8.99,0.13-17.98,0.04-26.96,0.04c-1.49,0.3-2.36,1.74-3.58,2.53
		c-10.8,8.87-21.6,17.73-32.39,26.62c-2.28,1.49-4.13,4.06-6.61,4.95c-13.75-11.35-27.56-22.65-41.32-33.98
		C726.735,789.586,717.455,789.856,708.185,789.706z"/>
	<path class="st1" d="M169.265,808.226c34.01-0.01,68.02,0.02,102.03-0.01c0.2,9.08,0.03,18.19,0.09,27.29
		c-29.12,0.01-58.23,0-87.35,0c-4.92-0.17-10,0.34-14.8-0.24C169.315,826.246,169.245,817.236,169.265,808.226z"/>
	<path class="st1" d="M540.795,808.226c34.03,0,68.07,0.01,102.1-0.01c0.06,9.05-0.04,18.1,0.05,27.16
		c-34.03,0.3-68.11,0.06-102.16,0.12C540.785,826.406,540.765,817.316,540.795,808.226z"/>
</g>
<g id="_x23_231f20ff">
	<path class="st2" d="M0.235,743.916c3.42,9.92,7.71,19.56,11.63,29.31c21.91,53.49,43.96,106.93,65.77,160.46
		c37.8,0.43,75.66,0.06,113.48,0.18c181.66,0,363.32,0,544.98,0c55.12-0.1,110.26,0.21,165.37-0.15
		c19.38-47.57,38.98-95.05,58.44-142.59c6.28-15.74,13.24-31.25,18.96-47.19c0.44,24.34,0.06,48.73,0.2,73.09
		c0.24,9.93-4.98,18.7-8.25,27.76c-22.3,55.72-44.7,111.42-66.95,167.17c-238.27,0.14-476.54,0.02-714.81,0.06
		c-37.93-0.05-75.87,0.1-113.8-0.08c-24.15-60.55-48.5-121.02-72.69-181.56c-1.77-4.57-2.63-9.48-2.51-14.38
		C0.175,791.976-0.185,767.926,0.235,743.916z"/>
</g>
</svg>
