<?xml version="1.0" encoding="utf-8"?>
<!-- Generator: Adobe Illustrator 21.0.0, SVG Export Plug-In . SVG Version: 6.00 Build 0)  -->
<svg version="1.1" id="Layer_1" xmlns="http://www.w3.org/2000/svg" xmlns:xlink="http://www.w3.org/1999/xlink" x="0px" y="0px"
	 viewBox="0 0 91 91.6" style="enable-background:new 0 0 91 91.6;" xml:space="preserve">
<style type="text/css">
	.st0{fill:#020202;}
</style>
<g id="_x23_020202ff">
	<path class="st0" d="M0.2,0C20,0.1,39.8,0,59.6,0c9.5,0.1,18.7,4.8,24.5,12.2c7.8,9.5,9.1,23.6,3.3,34.5
		c-3.6,7.1-9.9,12.4-17.2,15.4c5.9,10,12.6,19.4,18.6,29.4c-9.3,0-18.5,0.2-27.8-0.1C50,73.9,38.5,56.5,27.4,39c8.6,0,17.2,0,25.8,0
		c0,2.2,0,4.4,0.1,6.7c6.6-4.4,13.2-8.8,19.5-13.7c-6.5-4.5-12.9-9.1-19.5-13.4c-0.1,2.2-0.1,4.3-0.1,6.5c-17.7,0.4-35.4,0-53.2,0.2
		C0.2,16.8,0,8.4,0.2,0z"/>
	<path class="st0" d="M0.1,25.2c1.4,1.7,2.8,4.3,3.9,6.1c12.8,20.1,25.8,40.1,38.5,60.2c-14.1,0-28.3,0-42.4,0
		C0.1,69.7-0.2,47.1,0.1,25.2z"/>
</g>
</svg>
