<?xml version="1.0" encoding="utf-8"?>
<!-- Generator: Adobe Illustrator 19.0.0, SVG Export Plug-In . SVG Version: 6.00 Build 0)  -->
<svg version="1.1" id="Layer_1" xmlns="http://www.w3.org/2000/svg" xmlns:xlink="http://www.w3.org/1999/xlink" x="0px" y="0px"
	 viewBox="160.46 151.983 583.05 517.827" style="enable-background:new 160.46 151.983 583.05 517.827;" xml:space="preserve">
<style type="text/css">
	.st0{fill:#FFB400;}
	.st1{fill:#C50409;}
</style>
<g id="_x23_ffffffff">
</g>
<g id="_x23_ffb400ff">
	<path class="st0" d="M160.46,152.05c194.35-0.12,388.7-0.04,583.05-0.05c-0.01,172.6-0.01,345.2,0,517.79
		c-194.34,0.03-388.68,0.02-583.01,0.01C160.48,497.22,160.56,324.63,160.46,152.05 M165.39,157.03c0.04,1.95,0.08,3.9,0.1,5.84
		c0.05,167.38-0.05,334.75,0.05,502.13c190.99-0.23,381.99,0.06,572.98-0.13c-0.01-169.32-0.01-338.64,0-507.95
		c-164.83-0.14-329.66-0.01-494.48-0.07C217.82,157.02,191.6,156.58,165.39,157.03z"/>
	<path class="st0" d="M253.39,212.34c4.08-9.73,12.35-16.74,19.96-23.68c1.27,10.98-0.33,23.15-7.67,31.85
		c-2.84,3.62-7.1,5.54-10.65,8.29c-4.47,6.69-6.66,14.62-8.96,22.26c-0.42,1.83-1.34,4.51,0.42,5.85c-0.62,0.22-1.85,0.65-2.47,0.86
		c-2.86,11.28-4.82,22.8-5.27,34.44c0.61-0.73,1.82-2.19,2.42-2.92c-2.3-8.19,2.64-16.48,9.51-20.7c6.05-3.63,12.27-7,18.69-9.92
		c-1.13,10.44-6.04,20.68-14.39,27.23c-2.52,2.05-5.57,3.38-8.78,3.83c-2.1,0.52-4.61,0.4-6.18,2.13c-2.26,2.01-1.86,5.29-1.98,8.01
		c0.29,11.79-0.07,23.79,2.99,35.29c2.57-5.04-2.42-9.96-0.93-15.2c2.06-13.11,13.7-21.26,22.47-30.03
		c0.72,9.08,0.11,18.48-3.61,26.91c-2.63,5.9-6.66,11.63-12.79,14.26c-3.1,1.16-5.74,4.14-5.21,7.64
		c2.07,13.74,6.27,27.1,11.34,40.01c0.54,0.06,1.61,0.17,2.14,0.23c-1.04,4.72,1.86,8.86,3.57,13.02
		c4.85,9.86,10.2,19.57,16.99,28.24c0.06-0.85,0.17-2.55,0.23-3.4c-6.32-4.89-9.34-13.08-9.07-20.92
		c0.25-11.31,4.06-22.11,6.75-32.99c8,12.62,11.66,28.33,7.97,43.01c-1.44,4.7-5.35,8.7-4.8,13.91c-0.06,3.41,2.63,5.87,4.51,8.41
		c8.07,9.6,16.49,19.19,26.87,26.37c-0.63-4.07-5.1-4.91-7.51-7.6c-3.85-4.25-6.92-9.38-7.99-15.07
		c-2.17-10.59-1.57-21.45-2.21-32.18c12.05,9.93,19.31,25.45,19.11,41.07c0.1,5.11-2.87,10.92,0.54,15.51
		c4.54,4.35,10.1,7.45,15.42,10.74c6.14,3.51,12.37,7.03,19.15,9.19c-2.02-4.32-7.29-4.09-10.81-6.47
		c-7.24-4.13-10.73-12.14-13.3-19.67c-2.31-7.33-4.41-14.72-6.63-22.07c14.16,6.06,24.84,19.1,28.55,33.97
		c0.89,5.17,0.73,10.67,3.73,15.24c12.75,4.34,26.07,7.74,39.64,7.46c-1.2-0.71-2.16-2.24-3.74-1.88
		c-9.34,1.09-18.02-4.82-23.13-12.25c-4.56-6.72-8.87-13.61-13.06-20.56c14.37,0.59,27.85,9.35,34.7,21.89
		c1.87,3.39,2.54,7.29,4.43,10.67c0.86,1.66,2.68,2.81,4.59,2.45c7.28-0.46,14.59-1.04,21.73-2.65c2.48-0.52,5.76-1.06,7.19,1.7
		c-8.91,2.74-18.3,2.86-27.43,4.33c-3.03,0.5-4.36,3.4-4.72,6.14c-1.48,7.67-8.22,12.79-14.78,16.15
		c-9.26,3.94-19.87,6.67-29.78,3.67c5.7-11.18,15.07-21.86,27.82-24.61c6.07-1.56,12.42,0.6,18.43-1.13
		c-10.13-1.37-20.51-1.59-30.29-4.89c-3.59-0.95-7.7-3.39-11.21-0.88c-2.13,2.82-3.48,6.36-6.58,8.36
		c-6.56,5.12-15.3,5.74-23.31,5.4c-7.13-0.25-14.11-2.32-20.36-5.74c9.07-10.46,23.72-17.01,37.59-14.1
		c4.65,0.85,8.67,3.74,13.41,4.2c-9.75-4.51-19.69-8.85-28.3-15.42c-3.66-2.4-9.27-6.87-13.16-2.53
		c-6.42,6.42-16.56,5.89-24.56,3.18c-8.93-3.19-17.59-8.1-23.58-15.62c8.63-4.95,19.15-5.92,28.7-3.4
		c6.4,1.89,12.44,5.06,17.57,9.34c1.92,1.61,4.02,3.01,6.37,3.93c-3.07-3.45-7.03-5.89-10.43-8.96c-4.38-3.89-8.63-7.94-12.57-12.27
		c-4.31-4.71-7.95-10.25-13.67-13.4c-3.66,1.54-7.56,3.34-11.63,2.47c-11.87-1.98-20.87-10.67-29.09-18.79
		c-2.91-2.74-4.93-6.22-6.36-9.92c12.66-1.35,25.17,3.75,35.22,11.14c5.59,3.91,8.46,10.37,13.43,14.91
		c-6.24-10.01-13.2-19.71-17.6-30.74c-1.28-3.48-3.64-6.39-6.58-8.61c-9.14,1.86-17.37-4.34-23.34-10.55
		c-7.02-8.49-13.59-17.89-16.15-28.78c13.01,2.75,24.71,10.77,32.49,21.48c4.2,5.58,5.42,12.68,9.18,18.5
		c-2.27-8.9-6.29-17.26-8.55-26.17c-1.52-4.64-1.55-10.09-5.11-13.79c-1.36-2.07-3.94-2.3-6.07-3.08c-4.45-1.27-8.04-4.52-10.8-8.12
		c-4.33-6.09-7.36-12.99-10.04-19.93c-2.23-5.87-3.79-12.06-3.7-18.38c7.39,3.93,14.27,9.11,19.15,15.98
		c5.49,7.39,8.23,16.39,9.77,25.36c0.37,2.61,1.25,5.13,2.56,7.42c-0.71-8.16-2.8-16.17-3.02-24.39
		c-0.48-5.32,0.56-10.96-1.71-15.97c-1.06-3.27-4.94-3.77-7.28-5.82c-6.18-4.94-8.87-12.82-10.8-20.22
		c-2.26-9.25-3.64-18.95-1.89-28.4c11.07,8.16,17.42,21.41,19.62,34.74c1.21,6.01-0.25,12.2,1.17,18.16
		c0.29-1.83,0.49-3.67,0.67-5.51c-0.05-10.3,2.02-20.43,3.87-30.51c0.57-2.62-0.19-5.23-0.81-7.75
		c-7.99-4.24-11.32-13.35-12.23-21.85c-0.95-10.02,0.23-20.59,5.11-29.52c1.65-0.9,2.09,1.29,2.86,2.29
		c5.96,11.76,9.89,25.2,7.76,38.46c-0.6,4.52-3.42,8.9-1.82,13.52c3.46-12.13,6.99-24.32,12.73-35.6
		C252,222.99,251.23,217.34,253.39,212.34z"/>
	<path class="st0" d="M640.8,223.01c-9.45-8.46-11.55-22.31-10.15-34.35c7.61,6.95,15.91,13.95,19.96,23.7
		c2.14,5,1.36,10.63-0.61,15.55c3.83,7.86,6.95,16.06,9.46,24.44c1.06,3.72,1.99,7.5,3.51,11.07c0.31-2.11,0.42-4.27-0.28-6.32
		c-5.59-16.52-0.65-34.82,8.22-49.23c6.42,12.04,7.9,26.76,3.71,39.77c-1.54,5.54-5.34,10.08-10.24,13
		c-0.61,2.49-1.37,5.05-0.82,7.62c1.17,6.58,2.52,13.14,3.23,19.8c0.74,5.46,0.44,11,1.34,16.44c1.37-6.29-0.09-12.8,1.28-19.11
		c2.4-13,8.57-26.13,19.66-33.89c1.54,10.28,0.05,20.74-2.68,30.68c-2.28,8.98-7.25,18.26-16.51,21.5c-2.08,4.1-2.7,8.66-2.51,13.22
		c0.16,9.95-2.03,19.69-3.35,29.49c3.48-5.47,2.94-12.3,5.26-18.22c3.82-13.48,14.02-24.42,26.39-30.66
		c0.16,9.97-3.8,19.34-7.88,28.23c-2.9,5.75-6.01,11.77-11.4,15.6c-2.79,2.26-6.43,2.77-9.65,4.13c-1.5,1.26-2.68,2.84-3.96,4.31
		c-2.69,12.72-7.49,24.81-11.49,37.13c3.83-5.23,4.75-11.94,8.51-17.24c7.7-11.39,19.89-19.82,33.37-22.69
		c-2.37,9.76-7.99,18.26-13.99,26.15c-4.42,5.67-10.3,10.3-17.05,12.84c-2.74,1.06-5.73,0.57-8.57,0.36
		c-2.88,2.24-5.26,5.1-6.52,8.55c-4.45,11.08-11.37,20.87-17.73,30.88c5.05-4.52,7.9-11.07,13.54-15
		c10.04-7.33,22.56-12.61,35.21-11.02c-1.56,3.89-3.8,7.5-6.88,10.36c-8.11,7.87-16.94,16.34-28.56,18.24
		c-4.08,0.86-7.98-0.9-11.62-2.49c-7.31,4.2-11.47,11.85-17.53,17.46c-5.9,6.29-12.87,11.38-19.29,17.07
		c3.91-1.08,6.64-4.18,9.89-6.39c8.38-5.78,18.72-9.21,28.95-7.94c4.75,0.51,9.22,2.29,13.59,4.16c-3.21,5.86-9.23,9.25-14.86,12.42
		c-7.91,4.16-17.29,7.12-26.19,4.55c-3.1-0.81-5.44-3.08-7.87-5.01c-1.96-1.91-4.97-0.67-7.07,0.34
		c-5.92,3.31-11.13,7.77-17.19,10.86c-5.24,3.03-11.06,4.85-16.31,7.84c5.07-0.86,9.51-3.74,14.59-4.57
		c13.62-2.46,27.77,4.1,36.67,14.29c-10.33,5.76-22.76,7.08-34.25,4.73c-7.03-1.48-13.32-6.31-15.88-13.12
		c-4.7-1.72-9.24,0.73-13.72,1.94c-9.09,2.74-18.63,2.88-27.96,4.22c6.33,1.67,12.99-0.55,19.34,1.29
		c12.33,3.08,21.32,13.49,26.94,24.4c-8.62,2.71-17.87,0.77-26.17-2.17c-5.94-2.11-11.43-5.76-15.36-10.72
		c-2.51-3.04-2.83-7.09-4.14-10.65c-1.59-2.36-4.64-2.71-7.23-3c-8.01-0.78-16.12-1.41-23.85-3.79c2.26-3.86,6.42-1.68,9.81-1.11
		c5.59,1.21,11.33,1.47,17.02,2c1.77-0.01,3.86,0.59,5.37-0.67c1.66-1.54,2.38-3.78,3.16-5.83c4.9-16.01,20.71-27.68,37.34-28.41
		c-4.07,6.73-8.25,13.39-12.62,19.93c-5.29,7.98-14.81,14.69-24.76,12.67c-0.61,0.49-1.82,1.49-2.43,1.98
		c13.54,0.55,26.81-3.09,39.53-7.35c3.93-5.98,2.27-13.48,5.06-19.86c4.69-12.89,14.46-23.84,27.11-29.33
		c-3.15,10.22-5.41,20.81-10,30.53c-2.91,6.42-8.49,11.62-15.32,13.58c-2.39,0.51-4.21,2.04-5.4,4.15c8.85-3,16.97-7.81,24.89-12.71
		c3.5-2.4,7.32-4.54,10.13-7.78c2.74-4.64,0.08-9.98,0.15-14.93c-0.21-15.64,7.04-31.21,19.12-41.16
		c-0.59,10.15-0.13,20.38-1.87,30.43c-1.37,8.31-6.04,16.48-13.53,20.66c-1.44,0.71-1.63,2.43-2.2,3.76
		c8.92-6.25,16.39-14.31,23.5-22.49c2.67-3.35,5.95-6.4,7.58-10.43c1.82-5.88-3.14-10.62-4.66-15.91
		c-3.62-14.65,0.03-30.28,8.02-42.86c2.63,10.56,6.21,21.04,6.73,32c0.47,7.93-2.24,16.48-8.67,21.51
		c-0.02,1.23-0.02,2.47-0.02,3.72c6.68-8.73,12.07-18.37,16.9-28.21c1.7-4.11,4.53-8.22,3.51-12.87c0.54-0.1,1.63-0.3,2.17-0.4
		c5.07-12.88,9.26-26.21,11.31-39.92c0.67-3.55-2.1-6.43-5.18-7.62c-6.13-2.65-10.18-8.39-12.82-14.31
		c-3.69-8.42-4.37-17.82-3.55-26.89c8.07,8.09,18.13,15.39,21.75,26.72c1.72,4.82,0.4,9.85-1.15,14.52
		c-0.59,1.25,0.74,2.24,1.11,3.36c2.82-11.66,2.54-23.73,2.77-35.64c0.13-3.1-0.43-6.92-3.69-8.23c-4.11-1.07-8.65-1.19-12.12-3.93
		c-8.81-6.39-14.57-16.98-15.27-27.81c5.8,2.24,11.09,5.58,16.57,8.51c7.75,4.07,13.91,12.84,11.39,21.88
		c0.81,1.02,1.63,2.04,2.47,3.05c-0.53-10.23-1.92-20.42-4.31-30.39c-0.56-1.93-0.84-4.39-3.18-5.02c0.29-0.78,0.6-1.56,0.92-2.33
		c-1.86-8.01-4.39-15.92-8.12-23.27C648.81,227.11,643.83,226.11,640.8,223.01z"/>
	<path class="st0" d="M624.68,231.09c9.13,2.69,19.56,3.4,26.75,10.34c3.62,3.09,5.04,7.81,5.49,12.4
		c-5.22,3.6-12.16,1.19-17.19-1.66C631.71,247.93,627.2,239.47,624.68,231.09z"/>
	<path class="st0" d="M252.09,241.9c7.14-7.42,17.95-7.98,27.24-10.86c-2.59,8.9-7.64,17.78-16.37,21.84
		c-4.96,3.08-10.91,2.56-16.48,2.8C247.63,250.87,248.17,245.4,252.09,241.9z"/>
	<path class="st0" d="M315.61,243.36c12.85,0.66,25.69,1.62,38.54,2.3c35.88,68.4,71.69,136.84,107.53,205.26
		c-2.38,5.04-4.88,10.03-7.24,15.08c-1.68-0.23-3.74-0.12-4.35-2.11c-29.84-56.54-59.56-113.14-89.36-169.7
		c-7.15-13.82-15.41-27.52-27.38-37.72c-5.14-4.45-11.29-7.59-17.8-9.49C315.57,246.07,315.6,244.27,315.61,243.36z"/>
	<path class="st0" d="M370.5,245.77c14.79-0.26,29.58-0.94,44.3-2.5c0.04,1.24,0.08,2.49,0.11,3.75c-3.3,1.38-6.9,2.75-9.04,5.8
		c-3.42,4.55-2.92,10.68-1.76,15.93c2.71,11.24,7.81,21.72,12.99,32c12.72,24.23,25.6,48.39,38.36,72.61
		c4.65,8.5,8.88,17.23,13.75,25.61c14.06-29.53,28.16-59.03,42.22-88.56c5.05-10.81,10.77-21.43,13.87-33.03
		c1.96-7.09,2.21-15.31-2.08-21.64c-2.86-4.48-7.81-6.86-12.56-8.8c0-0.9,0.01-2.68,0.01-3.58c14.88,1.09,29.79,3.05,44.73,1.95
		c7.37-0.52,14.72-1.29,22.08-1.96c-0.01,0.93-0.01,2.81-0.02,3.74c-9.71,4.28-18.78,10.55-24.91,19.35
		c-8.37,11.93-14.48,25.23-20.81,38.31c-20.88,43.42-41.7,86.89-62.62,130.29C436.23,371.96,403.36,308.87,370.5,245.77z"/>
	<path class="st0" d="M248.91,357.9c1.71-11.6,8.3-21.65,13.84-31.73c4.97,12.86,5.94,27.85,0.07,40.58
		c-1.95,4.59-5.82,7.87-8.87,11.7C251.75,371.75,247.93,365.25,248.91,357.9z"/>
	<path class="st0" d="M641.51,367.42c-6.03-12.73-5.71-28.2,0-40.99c4.86,9.08,10.48,17.97,12.99,28.06
		c2.05,8.31-0.9,16.89-5.3,23.93C647.43,374.21,643.22,371.68,641.51,367.42z"/>
	<path class="st0" d="M170.53,551.42c187.65,0,375.29-0.01,562.93,0.01c0.05,35.97,0.07,71.95-0.01,107.93
		c-187.64,0-375.27,0.02-562.91-0.01C170.5,623.37,170.51,587.4,170.53,551.42 M189.28,571.64c5.15,2.58,9.73,6.35,12.45,11.51
		c10.33,18.84,19.88,38.11,30.29,56.9c0.94-1.72,1.86-3.43,2.78-5.15c-10.54-20.03-21.07-40.06-31.51-60.13
		c-0.68-0.97-1.09-2.53-2.53-2.52C196.98,571.59,193.11,571.67,189.28,571.64 M206.9,572.33c9.63,18.34,19.13,36.75,28.73,55.09
		c0.22,1.07,1.78,2.18,2.28,0.63c5.1-10.11,9.78-20.42,14.77-30.59c2.97-5.97,5.49-12.18,9.06-17.83c2.17-3.52,5.83-5.62,9.04-8.03
		c-7.21,0.73-14.45,0.66-21.65-0.13c1.81,1.69,4.33,2.98,5.17,5.45c0.85,4.05-1.11,7.92-2.69,11.52
		c-4.89,10.16-9.7,20.36-14.6,30.52c-5.35-10.03-10.67-20.09-15.97-30.15c-1.83-3.78-3.93-7.64-4.14-11.91
		c0.03-2.54,2.55-3.8,4.08-5.41C216.29,571.84,211.6,572.14,206.9,572.33 M280.39,571.54c2.67,1.92,5.95,3.53,7.33,6.72
		c1.67,4,1.59,8.44,1.64,12.7c-0.07,9.95,0.03,19.91-0.05,29.86c-0.19,4.1-0.11,8.49-2.19,12.19c-1.45,2.67-4.41,3.92-6.72,5.68
		c4.7-0.34,9.4-0.65,14.11-0.77c0.07-21.85-0.07-43.7,0.07-65.55C289.85,572.03,285.13,571.66,280.39,571.54 M299.02,572.23
		c-0.23,21.87,0.05,43.75-0.07,65.62c12.59,0.14,25.21-0.2,37.77,0.83c1.25-5.27,3.64-10.23,4.25-15.64c-2.9,3-5.17,6.93-9.15,8.66
		c-4.65,2.01-9.83,1.63-14.77,1.69c-3.95-0.09-7.94,0.3-11.84-0.44c-1.52-8.91-0.83-18.02-1-27.02c5.59-0.27,11.21-0.41,16.81-0.17
		c2.92,0.22,6.2,0.55,8.38,2.74c1.73,2.37,2.49,5.26,3.71,7.9c-0.14-7.76,0.3-15.56-0.47-23.29c-1.86,2.79-2.95,7.07-6.84,7.58
		c-7.12,1.22-14.4,0.4-21.59,0.59c0.01-8.16-0.16-16.36,1.11-24.44c5.89-0.51,11.81-0.47,17.72-0.28c2.84,0.18,5.88,0.33,8.36,1.89
		c2.27,2.02,3.71,4.77,5.5,7.19c-0.07-4.72-0.38-9.44-0.39-14.16C324.02,572.29,311.52,572.3,299.02,572.23 M348.71,571.75
		c5.61,2.49,10.93,5.76,14.95,10.49c6.88,7.88,13.15,16.28,19.82,24.34c-10.03,11.58-18.85,25.22-33.24,31.84
		c8.33-0.41,16.64-0.16,24.96,0.09c-1.54-1.08-3.25-1.99-4.51-3.4c-1.59-2.94,0.59-6,2.24-8.35c4.29-5.65,9.07-10.91,13.5-16.45
		c5.32,7.06,12,13.28,15.93,21.27c1.76,3.04-1.3,5.25-3.24,7.12c5.35-0.29,10.69-0.52,16.04-0.74
		c-17.58-21.91-35.34-43.67-52.89-65.61C357.76,571.92,353.24,571.65,348.71,571.75 M367.89,572.33
		c16.01,19.88,32.05,39.74,48.03,59.64c1.65,1.94,3.01,4.23,5.1,5.75c4.02,0.83,8.17,0.67,12.26,0.78
		c-6.43-3.6-12.03-8.46-16.79-14.07c-7.15-8.3-13.86-16.98-20.74-25.5c5.54-6.55,10.73-13.41,16.68-19.59
		c3.32-3.62,7.92-5.53,12.23-7.65c-8.17,0.44-16.34,0.6-24.5-0.14c1.57,1.16,3.25,2.19,4.69,3.54c1.16,2.41-0.29,5.02-1.58,7.06
		c-3.19,4.58-7,8.68-10.48,13.04c-3.52-4.19-7.07-8.35-10.35-12.72c-1.39-2.02-2.95-4.1-3.3-6.58c0.35-1.67,1.6-2.97,2.42-4.42
		C377.01,571.8,372.45,572.08,367.89,572.33 M442.77,571.61c2.6,1.77,5.87,3.14,7.28,6.17c1.44,3.16,1.66,6.69,1.79,10.11
		c0.15,11.29,0.19,22.58-0.07,33.87c-0.21,3.69-0.44,7.52-2.05,10.92c-1.36,2.98-4.66,4.16-7.27,5.79c4.9,0.08,9.78-0.24,14.67-0.59
		c-0.23-21.86-0.11-43.72-0.17-65.58C452.22,572.05,447.5,571.71,442.77,571.61 M461.72,572.25c-0.07,21.89-0.04,43.79-0.02,65.68
		c4.82,0.15,9.64,0.42,14.47,0.68c-2.61-1.93-5.86-3.42-7.4-6.44c-1.69-3.49-1.7-7.46-1.74-11.24c0.03-10.35,0.03-20.7,0-31.04
		c0.05-4.11,0.04-8.4,1.77-12.22c1.47-3.03,4.81-4.33,7.47-6.06C471.42,571.88,466.58,572.19,461.72,572.25 M490.23,571.59
		c2.65,1.95,6.04,3.51,7.3,6.78c1.62,4.31,1.29,9,1.37,13.52c0.1,9.66,0.04,19.32-0.01,28.98c-0.1,3.76-0.27,7.66-1.77,11.18
		c-1.25,2.97-4.32,4.51-6.68,6.47c4.5-0.23,9.01-0.43,13.52-0.62c0.02-21.88,0.03-43.77,0-65.65
		C499.39,571.87,494.81,571.63,490.23,571.59 M508.72,572.26c-0.11,21.91-0.04,43.82-0.04,65.74c13.23,0.13,26.51-0.53,39.71,0.63
		c1.6-5.58,4.07-10.92,4.87-16.71c-3.62,4.12-6.77,9.48-12.62,10.59c-8.18,1.66-16.63,0.63-24.93,0.72
		c-3.03-11.89-1.38-24.21-1.91-36.31c0.02-5.93-0.45-12.06,1.39-17.78c1.07-3.86,5.01-5.52,8.07-7.5
		C518.4,571.63,513.56,571.98,508.72,572.26 M563.44,571.65c2.22,1.66,4.84,3.01,6.43,5.37c1.95,3.26,1.95,7.21,2.07,10.89
		c0.12,10.31,0.11,20.62,0.04,30.93c-0.09,4.19-0.09,8.49-1.48,12.5c-1.11,3.38-4.47,5.15-7.06,7.26c4.57-0.31,9.16-0.59,13.75-0.68
		c-0.03-21.89,0.1-43.78-0.07-65.66C572.58,571.81,568.01,571.65,563.44,571.65 M581.58,572.4c0.24,21.86,0.01,43.73,0.11,65.59
		c13.23,0.23,26.51-0.59,39.7,0.66c1.64-5.54,4.11-10.86,4.93-16.61c-2.08,2.29-3.97,4.75-6.09,7.01c-3.54,3.31-8.6,4.24-13.29,4.32
		c-6.07,0.05-12.14,0.03-18.2-0.14c-2.25-8.59-1.63-17.52-1.69-26.3c0.02-6.34-0.07-12.68-0.02-19.02
		c0.09-3.68,0.26-7.58,2.19-10.83c1.73-2.6,4.77-3.82,7.3-5.47C591.52,571.6,586.55,571.95,581.58,572.4 M647.41,571.72
		c3.59,1.3,7.5,1.88,10.77,3.94c2.75,1.71,4.58,4.46,6.4,7.08c-7.41,14.18-14.58,28.49-22.05,42.65
		c-2.72,5.37-7.16,9.52-11.82,13.22c7.21-0.51,14.43-0.74,21.63,0.09c-2.79-2.19-6.49-4.7-5.6-8.84c1.28-6.78,5.52-12.54,8.43-18.7
		c7.79,0.1,15.57,0.01,23.36,0.08c2.88,6.9,7.33,13.29,8.67,20.74c0.65,3.56-2.99,5.11-5.5,6.48c5.12,0.12,10.23-0.2,15.34-0.54
		c-10.41-21.89-21.02-43.69-31.4-65.6C659.57,571.97,653.49,571.13,647.41,571.72 M670.47,572.3
		c10.53,21.84,20.98,43.73,31.48,65.59c4.44,0.37,8.9,0.65,13.37,0.53c-7.78-4.07-12.98-11.42-16.68-19.16
		c-7.5-15.61-15.34-31.08-22.03-47.06C674.56,572.22,672.51,572.25,670.47,572.3z"/>
	<path class="st0" d="M657.55,606.52c3.19-6.25,6.45-12.47,9.66-18.71c3.11,6.19,5.99,12.49,9.03,18.72
		C670.01,606.6,663.78,606.6,657.55,606.52z"/>
</g>
<g id="_x23_c50409ff">
	<path class="st1" d="M165.39,157.03c26.21-0.45,52.43-0.01,78.65-0.18c164.82,0.06,329.65-0.07,494.48,0.07
		c-0.01,169.31-0.01,338.63,0,507.95c-190.99,0.19-381.99-0.1-572.98,0.13c-0.1-167.38,0-334.75-0.05-502.13
		C165.47,160.93,165.43,158.98,165.39,157.03 M253.39,212.34c-2.16,5-1.39,10.65,0.64,15.56c-5.74,11.28-9.27,23.47-12.73,35.6
		c-1.6-4.62,1.22-9,1.82-13.52c2.13-13.26-1.8-26.7-7.76-38.46c-0.77-1-1.21-3.19-2.86-2.29c-4.88,8.93-6.06,19.5-5.11,29.52
		c0.91,8.5,4.24,17.61,12.23,21.85c0.62,2.52,1.38,5.13,0.81,7.75c-1.85,10.08-3.92,20.21-3.87,30.51
		c-0.18,1.84-0.38,3.68-0.67,5.51c-1.42-5.96,0.04-12.15-1.17-18.16c-2.2-13.33-8.55-26.58-19.62-34.74
		c-1.75,9.45-0.37,19.15,1.89,28.4c1.93,7.4,4.62,15.28,10.8,20.22c2.34,2.05,6.22,2.55,7.28,5.82c2.27,5.01,1.23,10.65,1.71,15.97
		c0.22,8.22,2.31,16.23,3.02,24.39c-1.31-2.29-2.19-4.81-2.56-7.42c-1.54-8.97-4.28-17.97-9.77-25.36
		c-4.88-6.87-11.76-12.05-19.15-15.98c-0.09,6.32,1.47,12.51,3.7,18.38c2.68,6.94,5.71,13.84,10.04,19.93
		c2.76,3.6,6.35,6.85,10.8,8.12c2.13,0.78,4.71,1.01,6.07,3.08c3.56,3.7,3.59,9.15,5.11,13.79c2.26,8.91,6.28,17.27,8.55,26.17
		c-3.76-5.82-4.98-12.92-9.18-18.5c-7.78-10.71-19.48-18.73-32.49-21.48c2.56,10.89,9.13,20.29,16.15,28.78
		c5.97,6.21,14.2,12.41,23.34,10.55c2.94,2.22,5.3,5.13,6.58,8.61c4.4,11.03,11.36,20.73,17.6,30.74c-4.97-4.54-7.84-11-13.43-14.91
		c-10.05-7.39-22.56-12.49-35.22-11.14c1.43,3.7,3.45,7.18,6.36,9.92c8.22,8.12,17.22,16.81,29.09,18.79
		c4.07,0.87,7.97-0.93,11.63-2.47c5.72,3.15,9.36,8.69,13.67,13.4c3.94,4.33,8.19,8.38,12.57,12.27c3.4,3.07,7.36,5.51,10.43,8.96
		c-2.35-0.92-4.45-2.32-6.37-3.93c-5.13-4.28-11.17-7.45-17.57-9.34c-9.55-2.52-20.07-1.55-28.7,3.4
		c5.99,7.52,14.65,12.43,23.58,15.62c8,2.71,18.14,3.24,24.56-3.18c3.89-4.34,9.5,0.13,13.16,2.53c8.61,6.57,18.55,10.91,28.3,15.42
		c-4.74-0.46-8.76-3.35-13.41-4.2c-13.87-2.91-28.52,3.64-37.59,14.1c6.25,3.42,13.23,5.49,20.36,5.74
		c8.01,0.34,16.75-0.28,23.31-5.4c3.1-2,4.45-5.54,6.58-8.36c3.51-2.51,7.62-0.07,11.21,0.88c9.78,3.3,20.16,3.52,30.29,4.89
		c-6.01,1.73-12.36-0.43-18.43,1.13c-12.75,2.75-22.12,13.43-27.82,24.61c9.91,3,20.52,0.27,29.78-3.67
		c6.56-3.36,13.3-8.48,14.78-16.15c0.36-2.74,1.69-5.64,4.72-6.14c9.13-1.47,18.52-1.59,27.43-4.33c-1.43-2.76-4.71-2.22-7.19-1.7
		c-7.14,1.61-14.45,2.19-21.73,2.65c-1.91,0.36-3.73-0.79-4.59-2.45c-1.89-3.38-2.56-7.28-4.43-10.67
		c-6.85-12.54-20.33-21.3-34.7-21.89c4.19,6.95,8.5,13.84,13.06,20.56c5.11,7.43,13.79,13.34,23.13,12.25
		c1.58-0.36,2.54,1.17,3.74,1.88c-13.57,0.28-26.89-3.12-39.64-7.46c-3-4.57-2.84-10.07-3.73-15.24
		c-3.71-14.87-14.39-27.91-28.55-33.97c2.22,7.35,4.32,14.74,6.63,22.07c2.57,7.53,6.06,15.54,13.3,19.67
		c3.52,2.38,8.79,2.15,10.81,6.47c-6.78-2.16-13.01-5.68-19.15-9.19c-5.32-3.29-10.88-6.39-15.42-10.74
		c-3.41-4.59-0.44-10.4-0.54-15.51c0.2-15.62-7.06-31.14-19.11-41.07c0.64,10.73,0.04,21.59,2.21,32.18
		c1.07,5.69,4.14,10.82,7.99,15.07c2.41,2.69,6.88,3.53,7.51,7.6c-10.38-7.18-18.8-16.77-26.87-26.37c-1.88-2.54-4.57-5-4.51-8.41
		c-0.55-5.21,3.36-9.21,4.8-13.91c3.69-14.68,0.03-30.39-7.97-43.01c-2.69,10.88-6.5,21.68-6.75,32.99
		c-0.27,7.84,2.75,16.03,9.07,20.92c-0.06,0.85-0.17,2.55-0.23,3.4c-6.79-8.67-12.14-18.38-16.99-28.24
		c-1.71-4.16-4.61-8.3-3.57-13.02c-0.53-0.06-1.6-0.17-2.14-0.23c-5.07-12.91-9.27-26.27-11.34-40.01c-0.53-3.5,2.11-6.48,5.21-7.64
		c6.13-2.63,10.16-8.36,12.79-14.26c3.72-8.43,4.33-17.83,3.61-26.91c-8.77,8.77-20.41,16.92-22.47,30.03
		c-1.49,5.24,3.5,10.16,0.93,15.2c-3.06-11.5-2.7-23.5-2.99-35.29c0.12-2.72-0.28-6,1.98-8.01c1.57-1.73,4.08-1.61,6.18-2.13
		c3.21-0.45,6.26-1.78,8.78-3.83c8.35-6.55,13.26-16.79,14.39-27.23c-6.42,2.92-12.64,6.29-18.69,9.92
		c-6.87,4.22-11.81,12.51-9.51,20.7c-0.6,0.73-1.81,2.19-2.42,2.92c0.45-11.64,2.41-23.16,5.27-34.44c0.62-0.21,1.85-0.64,2.47-0.86
		c-1.76-1.34-0.84-4.02-0.42-5.85c2.3-7.64,4.49-15.57,8.96-22.26c3.55-2.75,7.81-4.67,10.65-8.29c7.34-8.7,8.94-20.87,7.67-31.85
		C265.74,195.6,257.47,202.61,253.39,212.34 M640.8,223.01c3.03,3.1,8.01,4.1,9.82,8.34c3.73,7.35,6.26,15.26,8.12,23.27
		c-0.32,0.77-0.63,1.55-0.92,2.33c2.34,0.63,2.62,3.09,3.18,5.02c2.39,9.97,3.78,20.16,4.31,30.39c-0.84-1.01-1.66-2.03-2.47-3.05
		c2.52-9.04-3.64-17.81-11.39-21.88c-5.48-2.93-10.77-6.27-16.57-8.51c0.7,10.83,6.46,21.42,15.27,27.81
		c3.47,2.74,8.01,2.86,12.12,3.93c3.26,1.31,3.82,5.13,3.69,8.23c-0.23,11.91,0.05,23.98-2.77,35.64c-0.37-1.12-1.7-2.11-1.11-3.36
		c1.55-4.67,2.87-9.7,1.15-14.52c-3.62-11.33-13.68-18.63-21.75-26.72c-0.82,9.07-0.14,18.47,3.55,26.89
		c2.64,5.92,6.69,11.66,12.82,14.31c3.08,1.19,5.85,4.07,5.18,7.62c-2.05,13.71-6.24,27.04-11.31,39.92c-0.54,0.1-1.63,0.3-2.17,0.4
		c1.02,4.65-1.81,8.76-3.51,12.87c-4.83,9.84-10.22,19.48-16.9,28.21c0-1.25,0-2.49,0.02-3.72c6.43-5.03,9.14-13.58,8.67-21.51
		c-0.52-10.96-4.1-21.44-6.73-32c-7.99,12.58-11.64,28.21-8.02,42.86c1.52,5.29,6.48,10.03,4.66,15.91
		c-1.63,4.03-4.91,7.08-7.58,10.43c-7.11,8.18-14.58,16.24-23.5,22.49c0.57-1.33,0.76-3.05,2.2-3.76
		c7.49-4.18,12.16-12.35,13.53-20.66c1.74-10.05,1.28-20.28,1.87-30.43c-12.08,9.95-19.33,25.52-19.12,41.16
		c-0.07,4.95,2.59,10.29-0.15,14.93c-2.81,3.24-6.63,5.38-10.13,7.78c-7.92,4.9-16.04,9.71-24.89,12.71
		c1.19-2.11,3.01-3.64,5.4-4.15c6.83-1.96,12.41-7.16,15.32-13.58c4.59-9.72,6.85-20.31,10-30.53
		c-12.65,5.49-22.42,16.44-27.11,29.33c-2.79,6.38-1.13,13.88-5.06,19.86c-12.72,4.26-25.99,7.9-39.53,7.35
		c0.61-0.49,1.82-1.49,2.43-1.98c9.95,2.02,19.47-4.69,24.76-12.67c4.37-6.54,8.55-13.2,12.62-19.93
		c-16.63,0.73-32.44,12.4-37.34,28.41c-0.78,2.05-1.5,4.29-3.16,5.83c-1.51,1.26-3.6,0.66-5.37,0.67c-5.69-0.53-11.43-0.79-17.02-2
		c-3.39-0.57-7.55-2.75-9.81,1.11c7.73,2.38,15.84,3.01,23.85,3.79c2.59,0.29,5.64,0.64,7.23,3c1.31,3.56,1.63,7.61,4.14,10.65
		c3.93,4.96,9.42,8.61,15.36,10.72c8.3,2.94,17.55,4.88,26.17,2.17c-5.62-10.91-14.61-21.32-26.94-24.4
		c-6.35-1.84-13.01,0.38-19.34-1.29c9.33-1.34,18.87-1.48,27.96-4.22c4.48-1.21,9.02-3.66,13.72-1.94
		c2.56,6.81,8.85,11.64,15.88,13.12c11.49,2.35,23.92,1.03,34.25-4.73c-8.9-10.19-23.05-16.75-36.67-14.29
		c-5.08,0.83-9.52,3.71-14.59,4.57c5.25-2.99,11.07-4.81,16.31-7.84c6.06-3.09,11.27-7.55,17.19-10.86c2.1-1.01,5.11-2.25,7.07-0.34
		c2.43,1.93,4.77,4.2,7.87,5.01c8.9,2.57,18.28-0.39,26.19-4.55c5.63-3.17,11.65-6.56,14.86-12.42c-4.37-1.87-8.84-3.65-13.59-4.16
		c-10.23-1.27-20.57,2.16-28.95,7.94c-3.25,2.21-5.98,5.31-9.89,6.39c6.42-5.69,13.39-10.78,19.29-17.07
		c6.06-5.61,10.22-13.26,17.53-17.46c3.64,1.59,7.54,3.35,11.62,2.49c11.62-1.9,20.45-10.37,28.56-18.24
		c3.08-2.86,5.32-6.47,6.88-10.36c-12.65-1.59-25.17,3.69-35.21,11.02c-5.64,3.93-8.49,10.48-13.54,15
		c6.36-10.01,13.28-19.8,17.73-30.88c1.26-3.45,3.64-6.31,6.52-8.55c2.84,0.21,5.83,0.7,8.57-0.36c6.75-2.54,12.63-7.17,17.05-12.84
		c6-7.89,11.62-16.39,13.99-26.15c-13.48,2.87-25.67,11.3-33.37,22.69c-3.76,5.3-4.68,12.01-8.51,17.24
		c4-12.32,8.8-24.41,11.49-37.13c1.28-1.47,2.46-3.05,3.96-4.31c3.22-1.36,6.86-1.87,9.65-4.13c5.39-3.83,8.5-9.85,11.4-15.6
		c4.08-8.89,8.04-18.26,7.88-28.23c-12.37,6.24-22.57,17.18-26.39,30.66c-2.32,5.92-1.78,12.75-5.26,18.22
		c1.32-9.8,3.51-19.54,3.35-29.49c-0.19-4.56,0.43-9.12,2.51-13.22c9.26-3.24,14.23-12.52,16.51-21.5
		c2.73-9.94,4.22-20.4,2.68-30.68c-11.09,7.76-17.26,20.89-19.66,33.89c-1.37,6.31,0.09,12.82-1.28,19.11
		c-0.9-5.44-0.6-10.98-1.34-16.44c-0.71-6.66-2.06-13.22-3.23-19.8c-0.55-2.57,0.21-5.13,0.82-7.62c4.9-2.92,8.7-7.46,10.24-13
		c4.19-13.01,2.71-27.73-3.71-39.77c-8.87,14.41-13.81,32.71-8.22,49.23c0.7,2.05,0.59,4.21,0.28,6.32
		c-1.52-3.57-2.45-7.35-3.51-11.07c-2.51-8.38-5.63-16.58-9.46-24.44c1.97-4.92,2.75-10.55,0.61-15.55
		c-4.05-9.75-12.35-16.75-19.96-23.7C629.25,200.7,631.35,214.55,640.8,223.01 M624.68,231.09c2.52,8.38,7.03,16.84,15.05,21.08
		c5.03,2.85,11.97,5.26,17.19,1.66c-0.45-4.59-1.87-9.31-5.49-12.4C644.24,234.49,633.81,233.78,624.68,231.09 M252.09,241.9
		c-3.92,3.5-4.46,8.97-5.61,13.78c5.57-0.24,11.52,0.28,16.48-2.8c8.73-4.06,13.78-12.94,16.37-21.84
		C270.04,233.92,259.23,234.48,252.09,241.9 M315.61,243.36c-0.01,0.91-0.04,2.71-0.06,3.62c6.51,1.9,12.66,5.04,17.8,9.49
		c11.97,10.2,20.23,23.9,27.38,37.72c29.8,56.56,59.52,113.16,89.36,169.7c0.61,1.99,2.67,1.88,4.35,2.11
		c2.36-5.05,4.86-10.04,7.24-15.08c-35.84-68.42-71.65-136.86-107.53-205.26C341.3,244.98,328.46,244.02,315.61,243.36
		 M370.5,245.77c32.86,63.1,65.73,126.19,98.62,189.27c20.92-43.4,41.74-86.87,62.62-130.29c6.33-13.08,12.44-26.38,20.81-38.31
		c6.13-8.8,15.2-15.07,24.91-19.35c0.01-0.93,0.01-2.81,0.02-3.74c-7.36,0.67-14.71,1.44-22.08,1.96
		c-14.94,1.1-29.85-0.86-44.73-1.95c0,0.9-0.01,2.68-0.01,3.58c4.75,1.94,9.7,4.32,12.56,8.8c4.29,6.33,4.04,14.55,2.08,21.64
		c-3.1,11.6-8.82,22.22-13.87,33.03c-14.06,29.53-28.16,59.03-42.22,88.56c-4.87-8.38-9.1-17.11-13.75-25.61
		c-12.76-24.22-25.64-48.38-38.36-72.61c-5.18-10.28-10.28-20.76-12.99-32c-1.16-5.25-1.66-11.38,1.76-15.93
		c2.14-3.05,5.74-4.42,9.04-5.8c-0.03-1.26-0.07-2.51-0.11-3.75C400.08,244.83,385.29,245.51,370.5,245.77 M248.91,357.9
		c-0.98,7.35,2.84,13.85,5.04,20.55c3.05-3.83,6.92-7.11,8.87-11.7c5.87-12.73,4.9-27.72-0.07-40.58
		C257.21,336.25,250.62,346.3,248.91,357.9 M641.51,367.42c1.71,4.26,5.92,6.79,7.69,11c4.4-7.04,7.35-15.62,5.3-23.93
		c-2.51-10.09-8.13-18.98-12.99-28.06C635.8,339.22,635.48,354.69,641.51,367.42 M170.53,551.42c-0.02,35.98-0.03,71.95,0.01,107.93
		c187.64,0.03,375.27,0.01,562.91,0.01c0.08-35.98,0.06-71.96,0.01-107.93C545.82,551.41,358.18,551.42,170.53,551.42z"/>
	<path class="st1" d="M189.28,571.64c3.83,0.03,7.7-0.05,11.48,0.61c1.44-0.01,1.85,1.55,2.53,2.52
		c10.44,20.07,20.97,40.1,31.51,60.13c-0.92,1.72-1.84,3.43-2.78,5.15c-10.41-18.79-19.96-38.06-30.29-56.9
		C199.01,577.99,194.43,574.22,189.28,571.64z"/>
	<path class="st1" d="M206.9,572.33c4.7-0.19,9.39-0.49,14.08-0.84c-1.53,1.61-4.05,2.87-4.08,5.41c0.21,4.27,2.31,8.13,4.14,11.91
		c5.3,10.06,10.62,20.12,15.97,30.15c4.9-10.16,9.71-20.36,14.6-30.52c1.58-3.6,3.54-7.47,2.69-11.52
		c-0.84-2.47-3.36-3.76-5.17-5.45c7.2,0.79,14.44,0.86,21.65,0.13c-3.21,2.41-6.87,4.51-9.04,8.03c-3.57,5.65-6.09,11.86-9.06,17.83
		c-4.99,10.17-9.67,20.48-14.77,30.59c-0.5,1.55-2.06,0.44-2.28-0.63C226.03,609.08,216.53,590.67,206.9,572.33z"/>
	<path class="st1" d="M280.39,571.54c4.74,0.12,9.46,0.49,14.19,0.83c-0.14,21.85,0,43.7-0.07,65.55
		c-4.71,0.12-9.41,0.43-14.11,0.77c2.31-1.76,5.27-3.01,6.72-5.68c2.08-3.7,2-8.09,2.19-12.19c0.08-9.95-0.02-19.91,0.05-29.86
		c-0.05-4.26,0.03-8.7-1.64-12.7C286.34,575.07,283.06,573.46,280.39,571.54z"/>
	<path class="st1" d="M299.02,572.23c12.5,0.07,25,0.06,37.49-0.75c0.01,4.72,0.32,9.44,0.39,14.16c-1.79-2.42-3.23-5.17-5.5-7.19
		c-2.48-1.56-5.52-1.71-8.36-1.89c-5.91-0.19-11.83-0.23-17.72,0.28c-1.27,8.08-1.1,16.28-1.11,24.44
		c7.19-0.19,14.47,0.63,21.59-0.59c3.89-0.51,4.98-4.79,6.84-7.58c0.77,7.73,0.33,15.53,0.47,23.29c-1.22-2.64-1.98-5.53-3.71-7.9
		c-2.18-2.19-5.46-2.52-8.38-2.74c-5.6-0.24-11.22-0.1-16.81,0.17c0.17,9-0.52,18.11,1,27.02c3.9,0.74,7.89,0.35,11.84,0.44
		c4.94-0.06,10.12,0.32,14.77-1.69c3.98-1.73,6.25-5.66,9.15-8.66c-0.61,5.41-3,10.37-4.25,15.64c-12.56-1.03-25.18-0.69-37.77-0.83
		C299.07,615.98,298.79,594.1,299.02,572.23z"/>
	<path class="st1" d="M348.71,571.75c4.53-0.1,9.05,0.17,13.56,0.6c17.55,21.94,35.31,43.7,52.89,65.61
		c-5.35,0.22-10.69,0.45-16.04,0.74c1.94-1.87,5-4.08,3.24-7.12c-3.93-7.99-10.61-14.21-15.93-21.27
		c-4.43,5.54-9.21,10.8-13.5,16.45c-1.65,2.35-3.83,5.41-2.24,8.35c1.26,1.41,2.97,2.32,4.51,3.4c-8.32-0.25-16.63-0.5-24.96-0.09
		c14.39-6.62,23.21-20.26,33.24-31.84c-6.67-8.06-12.94-16.46-19.82-24.34C359.64,577.51,354.32,574.24,348.71,571.75z"/>
	<path class="st1" d="M367.89,572.33c4.56-0.25,9.12-0.53,13.67-0.86c-0.82,1.45-2.07,2.75-2.42,4.42c0.35,2.48,1.91,4.56,3.3,6.58
		c3.28,4.37,6.83,8.53,10.35,12.72c3.48-4.36,7.29-8.46,10.48-13.04c1.29-2.04,2.74-4.65,1.58-7.06c-1.44-1.35-3.12-2.38-4.69-3.54
		c8.16,0.74,16.33,0.58,24.5,0.14c-4.31,2.12-8.91,4.03-12.23,7.65c-5.95,6.18-11.14,13.04-16.68,19.59
		c6.88,8.52,13.59,17.2,20.74,25.5c4.76,5.61,10.36,10.47,16.79,14.07c-4.09-0.11-8.24,0.05-12.26-0.78
		c-2.09-1.52-3.45-3.81-5.1-5.75C399.94,612.07,383.9,592.21,367.89,572.33z"/>
	<path class="st1" d="M442.77,571.61c4.73,0.1,9.45,0.44,14.18,0.69c0.06,21.86-0.06,43.72,0.17,65.58
		c-4.89,0.35-9.77,0.67-14.67,0.59c2.61-1.63,5.91-2.81,7.27-5.79c1.61-3.4,1.84-7.23,2.05-10.92c0.26-11.29,0.22-22.58,0.07-33.87
		c-0.13-3.42-0.35-6.95-1.79-10.11C448.64,574.75,445.37,573.38,442.77,571.61z"/>
	<path class="st1" d="M461.72,572.25c4.86-0.06,9.7-0.37,14.55-0.64c-2.66,1.73-6,3.03-7.47,6.06c-1.73,3.82-1.72,8.11-1.77,12.22
		c0.03,10.34,0.03,20.69,0,31.04c0.04,3.78,0.05,7.75,1.74,11.24c1.54,3.02,4.79,4.51,7.4,6.44c-4.83-0.26-9.65-0.53-14.47-0.68
		C461.68,616.04,461.65,594.14,461.72,572.25z"/>
	<path class="st1" d="M490.23,571.59c4.58,0.04,9.16,0.28,13.73,0.66c0.03,21.88,0.02,43.77,0,65.65
		c-4.51,0.19-9.02,0.39-13.52,0.62c2.36-1.96,5.43-3.5,6.68-6.47c1.5-3.52,1.67-7.42,1.77-11.18c0.05-9.66,0.11-19.32,0.01-28.98
		c-0.08-4.52,0.25-9.21-1.37-13.52C496.27,575.1,492.88,573.54,490.23,571.59z"/>
	<path class="st1" d="M508.72,572.26c4.84-0.28,9.68-0.63,14.54-0.62c-3.06,1.98-7,3.64-8.07,7.5c-1.84,5.72-1.37,11.85-1.39,17.78
		c0.53,12.1-1.12,24.42,1.91,36.31c8.3-0.09,16.75,0.94,24.93-0.72c5.85-1.11,9-6.47,12.62-10.59c-0.8,5.79-3.27,11.13-4.87,16.71
		c-13.2-1.16-26.48-0.5-39.71-0.63C508.68,616.08,508.61,594.17,508.72,572.26z"/>
	<path class="st1" d="M563.44,571.65c4.57,0,9.14,0.16,13.68,0.61c0.17,21.88,0.04,43.77,0.07,65.66
		c-4.59,0.09-9.18,0.37-13.75,0.68c2.59-2.11,5.95-3.88,7.06-7.26c1.39-4.01,1.39-8.31,1.48-12.5c0.07-10.31,0.08-20.62-0.04-30.93
		c-0.12-3.68-0.12-7.63-2.07-10.89C568.28,574.66,565.66,573.31,563.44,571.65z"/>
	<path class="st1" d="M581.58,572.4c4.97-0.45,9.94-0.8,14.94-0.79c-2.53,1.65-5.57,2.87-7.3,5.47c-1.93,3.25-2.1,7.15-2.19,10.83
		c-0.05,6.34,0.04,12.68,0.02,19.02c0.06,8.78-0.56,17.71,1.69,26.3c6.06,0.17,12.13,0.19,18.2,0.14c4.69-0.08,9.75-1.01,13.29-4.32
		c2.12-2.26,4.01-4.72,6.09-7.01c-0.82,5.75-3.29,11.07-4.93,16.61c-13.19-1.25-26.47-0.43-39.7-0.66
		C581.59,616.13,581.82,594.26,581.58,572.4z"/>
	<path class="st1" d="M647.41,571.72c6.08-0.59,12.16,0.25,18.23,0.6c10.38,21.91,20.99,43.71,31.4,65.6
		c-5.11,0.34-10.22,0.66-15.34,0.54c2.51-1.37,6.15-2.92,5.5-6.48c-1.34-7.45-5.79-13.84-8.67-20.74
		c-7.79-0.07-15.57,0.02-23.36-0.08c-2.91,6.16-7.15,11.92-8.43,18.7c-0.89,4.14,2.81,6.65,5.6,8.84c-7.2-0.83-14.42-0.6-21.63-0.09
		c4.66-3.7,9.1-7.85,11.82-13.22c7.47-14.16,14.64-28.47,22.05-42.65c-1.82-2.62-3.65-5.37-6.4-7.08
		C654.91,573.6,651,573.02,647.41,571.72 M657.55,606.52c6.23,0.08,12.46,0.08,18.69,0.01c-3.04-6.23-5.92-12.53-9.03-18.72
		C664,594.05,660.74,600.27,657.55,606.52z"/>
	<path class="st1" d="M670.47,572.3c2.04-0.05,4.09-0.08,6.14-0.1c6.69,15.98,14.53,31.45,22.03,47.06
		c3.7,7.74,8.9,15.09,16.68,19.16c-4.47,0.12-8.93-0.16-13.37-0.53C691.45,616.03,681,594.14,670.47,572.3z"/>
</g>
</svg>
