<?xml version="1.0" encoding="utf-8"?>
<!-- Generator: Adobe Illustrator 21.0.0, SVG Export Plug-In . SVG Version: 6.00 Build 0)  -->
<svg version="1.1" id="Layer_1" xmlns="http://www.w3.org/2000/svg" xmlns:xlink="http://www.w3.org/1999/xlink" x="0px" y="0px"
	 viewBox="0 0 284.1 213.8" style="enable-background:new 0 0 284.1 213.8;" xml:space="preserve">
<style type="text/css">
	.st0{fill:#221E1F;}
	.st1{fill:#701011;}
</style>
<g id="_x23_9a9a9aff">
</g>
<g id="_x23_221e1fff">
	<path class="st0" d="M0,25.3C17.3,16.8,34.5,8.2,52,0.2c11.9,24.6,23.8,49.1,35.9,73.5C96.8,55,106,36.5,115,17.9
		c3.1-5.9,5.6-12.1,9-17.9c17.1,8.5,34.2,16.9,51.6,25c-5,11.4-10.9,22.4-16.2,33.6c-8-2.2-16.6-1.7-24.1,1.7
		c-18.7,8.3-30.9,28.1-32.2,48.2c-0.9,13.1,3.9,27.1,14.7,35.1c-8.3,16.8-16.5,33.6-24.8,50.3c-1.7,3.4-3.1,7-5.2,10.2
		C58.4,144.5,29.3,84.9,0,25.3z"/>
	<path class="st0" d="M166.6,62.4c9.7-20.4,19.7-40.6,29.7-60.9c29.4,59.7,58.4,119.6,87.8,179.3c-17.3,8.5-34.6,17.1-52,25.2
		c-11.8-24.6-24-49-35.7-73.5c-5.5,10.9-10.7,21.9-16.1,32.8c-1.2,2.2-2.3,4.5-3.1,6.9c9.1,0.1,18.3-0.1,27.4,0.1
		c-15.2,18.3-35.6,32.9-58.8,38.9c-16.6,4.3-34.5,3.5-50.4-3.1c9.6-20.4,19.7-40.6,29.6-60.8c9.2,3.2,19.6,1.5,28-3.2
		c14.6-7.9,24.5-23.1,27.7-39.3C183.8,89.6,179.9,71.5,166.6,62.4z"/>
</g>
<g id="_x23_701011ff">
	<path class="st1" d="M131.1,80.6c6.9-0.2,13.7-0.1,20.6,0c-0.6,5.2-1.7,10.4-2.3,15.7c5.1-0.8,10.3-1.6,15.5-2.3
		c0.1,6.8,0.1,13.6,0,20.4c-5.2-0.7-10.4-1.5-15.6-2.3c0.7,5.3,1.7,10.5,2.4,15.8c-6.9,0-13.8,0.1-20.7,0c0.7-5.3,1.7-10.5,2.4-15.7
		c-5.2,0.7-10.3,1.8-15.5,2.3c0-6.8,0-13.6,0.1-20.5c5.1,0.9,10.3,1.5,15.4,2.4C132.9,91,131.9,85.8,131.1,80.6z"/>
</g>
</svg>
