<?xml version="1.0" encoding="utf-8"?>
<!-- Generator: Adobe Illustrator 19.0.0, SVG Export Plug-In . SVG Version: 6.00 Build 0)  -->
<svg version="1.1" id="Layer_1" xmlns="http://www.w3.org/2000/svg" xmlns:xlink="http://www.w3.org/1999/xlink" x="0px" y="0px"
	 viewBox="174 -309.1 943 1458" style="enable-background:new 174 -309.1 943 1458;" xml:space="preserve">
<style type="text/css">
	.st0{fill:#4172A7;}
	.st1{fill:#FFFFFF;}
	.st2{fill:#201F1E;}
</style>
<g id="_x23_4172a7ff_1_">
	<path class="st0" d="M625,324c-12.5,0-24.8-1.8-36.5-5.2c-27.5-7.9-52.2-25-69.5-48.3c-13-17.4-21.5-37.7-24.6-58.6
		c-2.9-19.1-1.7-38.8,3.5-56.9l0.3-1.1l1.1-0.3c9-2.6,18.3-5,27.2-7.3l2.7-0.7c0.5-0.2,1.1-0.3,1.7-0.3c2.1,0,3.8,1.2,5.2,2.2
		c0.4,0.3,0.7,0.5,1,0.7l0.1,0l0.1,0.1c2.4,1.9,5,3.8,7.5,5.5c2.5,1.8,5.1,3.7,7.6,5.6l1,0.8l-0.8,3.1c-1.2,5-2.5,10.1-2.8,15.3
		c0.4,4.1-3.8,4.7-5.4,4.9c-0.3,0-0.6,0.1-0.9,0.1l-0.1,0l-0.1,0c-4.8,0.5-9.7,1.2-14.5,1.8c2.9,0.4,5.8,0.8,8.7,1.1
		c3.5,0.5,7,0.9,10.5,1.4l1.7,0.2l0,1.8c0,7.4,2.1,14.7,3.9,21l0.5,1.5l-1.3,0.8c-4,2.3-8.1,4.6-12,6.7c-1.8,1-3.6,1.9-5.4,2.9
		c0.3-0.1,0.5-0.2,0.8-0.2c6.2-1.8,12.6-3.7,19.1-4.8l1.5-0.3l0.6,1.4c2.7,6,6.8,11.3,10.8,16.5l1.8,2.4l-1,1.2
		c-3.1,4-6.5,7.9-9.8,11.6c-1.3,1.5-2.7,3-4,4.6c0.4-0.3,0.7-0.6,1.1-0.8c1.8-1.4,3.8-2.8,5.6-4.2c3.5-2.5,7-5.1,10.3-7.9l1.1-1
		l1.3,0.8c1.8,1.1,3.5,2.4,5.2,3.7c2.4,1.8,4.7,3.5,7.3,4.8l0.1,0l0.1,0c0.5,0.3,1.1,0.6,1.7,0.9c1.4,0.7,3,1.5,4.3,2.9l0.6,0.7
		l-0.2,1c-1.1,5.2-2.7,10.3-4.3,15.3c-0.4,1.3-0.8,2.6-1.2,3.9c0,0,0,0,0,0c3.3-5.8,6.7-11.8,10.3-17.5l0.8-1.3l1.5,0.5
		c5.9,2,12.3,2.9,18.4,3.7c3,0.2,3.4,3.3,3.6,4.5c0,0.3,0.1,0.7,0.1,0.9l0,0.2l0,0.2c0.4,4.5,1,9,1.5,13.4c0.1,1.2,0.3,2.4,0.4,3.6
		c0.2-2,0.4-3.9,0.6-5.8c0.5-5,1-10.1,1.8-15.2l0.2-1.6l1.6-0.1c6.4-0.6,13.1-1.8,20.4-3.9l1.4-0.4l0.8,1.2
		c4.2,6.5,7.8,12.2,11.1,17.6c-0.5-1.4-1-2.8-1.5-4.1c-1.8-5-3.7-10.3-5-15.6l-0.4-1.6l1.5-0.7c5.5-2.5,11-6,17.1-11l1.3-1.1
		l1.3,1.1c3.7,3.3,7.6,6.5,11.4,9.6c1.3,1,2.6,2.1,4,3.2c-1.6-2-3.1-4-4.7-6c-2.1-2.7-4.2-5.4-6.3-8.2c-2.7-2.8-0.2-5.8,0.9-7
		c0.3-0.3,0.5-0.6,0.7-0.9l0.1-0.1l0.1-0.1c3.2-3.6,5.7-7.9,8.1-12.1c0.6-1,1.2-2.1,1.8-3.1l0.8-1.4l1.5,0.5
		c2.6,0.8,5.3,1.7,7.9,2.5c3.4,1.1,6.9,2.2,10.4,3.3c-1.4-0.8-2.8-1.6-4.2-2.5c-4.2-2.5-8.6-5-12.7-7.9l-1.2-0.9l0.5-1.4
		c2-5.7,3.2-12,4.1-20.4l0.2-1.6l1.6-0.2c3.7-0.4,7.4-0.8,11.1-1.3c3.2-0.4,6.4-0.7,9.6-1.1c-1.8-0.2-3.6-0.4-5.4-0.6
		c-5-0.6-10.1-1.2-15.2-1.7l-1.5-0.2l-0.3-1.5c-0.3-1.7-0.6-3.4-0.8-5.1c-0.5-3.6-1.1-7.3-2-10.8l0-0.1l0-0.1c0-0.3-0.1-0.6-0.2-1
		c-0.4-1.4-0.9-3.7,0.9-5.4c2.4-2.7,5.1-5,7.8-7.3c0.8-0.7,1.5-1.3,2.3-2c-1.2,0.5-2.4,1.1-3.6,1.7c-2.8,1.3-5.7,2.7-8.7,3.9
		l-1.7,0.7l-0.8-1.7c-3-6.2-6.6-12-10.8-17.3l-3.2-3.9l5,0.7c22.7,3.2,44.7,8.1,65.5,14.7l1,0.3l0.3,1c6,19.9,8,38.5,5.8,55.2
		c-3.5,36.4-23.4,71.2-53.2,93C681.6,314.8,653.6,324,625,324z"/>
	<path class="st0" d="M684.2,136c22.1,3.1,43.9,7.9,65.1,14.6c5.3,17.5,8.1,36.1,5.7,54.3c-3.4,36.1-23.2,70.3-52.4,91.6
		c-31.9,24-75.3,31.7-113.6,20.3c-27.2-7.8-51.6-24.8-68.5-47.6c-12.6-16.9-21.1-36.8-24.3-57.7c-2.8-18.6-1.7-37.9,3.4-56.1
		c9.9-2.9,20-5.5,30-8.1c2.4-0.8,4.4,1.3,6.2,2.5c5,3.9,10.2,7.3,15.1,11.2c-1.4,5.8-2.9,11.7-3.3,17.7c0.3,2.8-2.8,2.6-4.7,3
		c-9.1,1-18.1,2.4-27.2,3.5c1.7,0.6,3.4,1.2,5.3,1.4c8.9,1.1,17.7,2.3,26.6,3.5c0,7.4,1.9,14.6,4,21.6c-9.8,5.8-20.3,10.6-29.8,17
		c11.3-2.5,22.2-6.7,33.6-8.7c3,6.6,7.6,12.3,12,18.1c-7.2,9.3-15.8,17.5-22.5,27.1c4.5-2.5,8.4-5.9,12.6-8.9
		c5.3-4.1,11-7.8,16-12.2c4.3,2.7,8,6.3,12.6,8.6c1.8,1.1,4.1,1.7,5.5,3.4c-2.2,10.5-6.6,20.5-8.7,31.1c1.2-1.4,2.4-2.7,3.3-4.3
		c4.6-8,9-16,13.9-23.8c6.1,2.1,12.5,3,18.9,3.8c1.9,0.1,1.6,2.6,2,4c1.1,11.1,2.6,22.1,3.5,33.2c2.5-12.2,2.9-24.7,4.8-37
		c7-0.6,13.9-2,20.7-4c5,7.7,9.8,15.5,14.6,23.3c1.1,1.7,2.4,3.3,3.8,4.8c-2.5-10.9-7.4-21-10.1-31.8c6.3-2.9,12.1-6.9,17.5-11.3
		c6.3,5.7,13.2,10.8,19.7,16.4c2.3,2,4.8,3.9,7.5,5.5c-6.4-8.9-13.3-17.5-20-26.2c-1.9-1.9,0.7-3.9,1.8-5.4
		c4.2-4.6,7-10.2,10.2-15.5c10.1,3.1,20.1,6.8,30.4,9c-8.6-6.4-18.4-11-27.2-17.1c2.3-6.7,3.5-13.8,4.2-20.9
		c10.2-1.1,20.4-2.4,30.7-3.4c1.8-0.2,3.6-0.8,5.3-1.3c-12-1.1-23.9-2.7-35.8-3.9c-0.9-5.4-1.5-10.8-2.9-16.1
		c-0.2-1.6-1.3-3.5,0.2-4.7c5.2-5.8,11.8-10,16.7-16c-7.3,2.2-13.9,6.3-21.1,9C692.2,147.3,688.5,141.4,684.2,136z"/>
	<path class="st0" d="M553.8,155.4c-0.9-0.5-1.9-1-2.8-1.4c-4.5-2.3-9.1-4.6-13.4-7.5l-3.3-2.2l3.7-1.3c8.6-3.1,17.7-5.3,26.4-7.4
		l9.4-2.2l-5.3,5.1c-4.4,4.2-9.3,9.4-12,16l-0.8,2L553.8,155.4z"/>
	<path class="st0" d="M538.7,144.8c9.3-3.4,18.9-5.5,28.5-7.8c-5.1,4.8-9.7,10.1-12.5,16.6C549.3,150.8,543.8,148.2,538.7,144.8z"/>
</g>
<g id="_x23_ffffffff">
	<path class="st1" d="M553.6,1.5C576.3-7.9,601-14.3,625.8-12C663.4-8.2,699,5.7,732.7,22.1c35.5,17.8,69.3,39.1,100.8,63.4
		c10,8,20.3,15.7,28.7,25.3c2.8,6,1.9,13,2,19.5c-3.9-3.3-7.1-7.3-10.7-10.8c-22.1-21.8-47.1-40.6-74-56.1
		C747.2,45,712,31.6,675.3,25.5c-49.3-8.5-100.6-3.3-147.4,14.2c-51.9,19.2-98.4,51.6-136.7,91.4c-5.5,5.8-10.9,11.8-15.9,18.1
		c-1.9,2.5-4.9,4.5-8.2,3.8c-2.4,0-5.2-3-3.4-5.3c35.6-35.9,72.1-71.2,113-101.1C500.7,29,526.1,13,553.6,1.5z"/>
	<path class="st1" d="M562.5,52.5c19.5-4.7,39.4-8.2,59.5-9.5c20.7-1.1,41.3,3.2,61.2,8.8c36,10.8,70.5,26.4,101.9,47.1
		c29.5,19.3,53.2,45.7,81,67c13.7,10.6,29.7,18.3,46.8,21.2c6.5,14.6,9.9,31.3,6.1,47.1c-5.2,0.2-9.5-3-13.8-5.3
		c-16.6-10-32.3-21.6-48.1-32.9c-29.3-21.1-57.5-43.7-88.2-62.7c-31.2-19.3-65.2-35.1-101.5-41.4c-21.5-3.7-43.5-2.7-64.8,1.5
		c-40.8,7.5-80.2,21.3-118,38.1c-62,28-120.5,65.1-169,113c-6.5,5.9-8.4,15.2-7.6,23.7c0.6,6.8,4.1,13.7,10.2,17.1
		c4.9,3,10.8,2.9,16.3,3.6c21,2.2,42.3,3.8,62.5,10.5c7.4,2.5,14.7,5.6,21.2,10c33.2,23.1,71.6,37.7,110.8,47.2
		c40.7,9.8,82.6,14.3,124.4,14.9c44.1-0.1,87.9-10,128.6-26.8c36.7-15,71.1-35.4,103-58.9c4.9-3.4,9.5-7.3,14.6-10.5
		c-12.8,15.8-27.4,30-42.6,43.5c-5.3,5-11.3,9.2-16.6,14.3c18.8-9,36-21,52.9-33.1c-3.5,4.8-8.2,8.6-12.4,12.7
		c-24,22.4-50.3,42.4-78.2,59.7c-29.5,18.1-61.2,33.2-94.6,42.6c-21.7,6.3-44.2,9.8-66.8,10.3c-39.3,0.2-79.4-3-116.6-16.6
		c-16.1-5.9-31.4-14-45.6-23.5c-17.5-11.4-34.1-25-54.1-31.8c-11.4-3.6-22.7-7.6-33.6-12.4c-4.1-2-8.5-3.9-11.8-7.2
		c-1.3-1.1-1.6-3.5,0.1-4.3c3.7-2.5,8.4-2.4,12.6-1.3c11.5,2.9,22.4,7.9,33,13.1c10.5,5.2,20.8,10.9,30.7,17.2
		c15.3,10.3,32,18.1,49,25.1c41.9,16.9,87.1,27.2,132.5,24.6c3.8-0.1,7.5-0.5,11.2-1.6c-20.9-2.8-41.6-7.5-62-12.6
		c-41.6-10.7-82.8-24.6-120.5-45.5c-31.6-18.3-64.9-36.1-101.7-40.6c-11.4-1.7-23.2-1-34.4-4.4c-11.8-3.5-24.3-5.5-34.9-12.1
		c-5.4-3.2-9.5-8.8-9.6-15.2c-0.3-8.5,4.4-16.2,9-23c12.9-18.2,29.6-33.2,46.8-47.2c9.6-7.9,20.3-14.3,30.2-21.8
		c27.5-20.8,53.7-43.4,79.1-66.8c9.1-8.6,18.1-17.3,26.4-26.7C482.9,83.8,491,79.2,499,75C519.1,64.8,540.7,58.2,562.5,52.5z"/>
	<path class="st1" d="M766.1,156.1c5.5,2.1,11.1,4.2,16.6,6.3c4.3,17.8,5.7,36.3,5.3,54.6c-0.9,18.9-4.4,38.1-13,55.1
		c3.7-3.5,6-8.2,8.5-12.6c9.7-17.8,14.6-37.8,17.2-57.8c1.3-9.8,1.8-19.8,1.7-29.7c5,2.3,9.6,5.3,14.3,8.2
		c1.8,13.1,2.4,26.4,1.5,39.6c-1,19.4-5.6,39.3-17.4,55.1c7.3-5.3,12.2-12.9,16.6-20.6c10.4-18.9,14.6-40.3,17.6-61.5
		c1.6,1,3.5,1.8,4.6,3.5c1.3,3.7,1.5,7.7,2.1,11.6c2.3,21.8,2.5,44.8-6.8,65.2c4.1-3.9,6.8-8.8,9.5-13.7
		c7.8-15.1,11.2-31.9,13.8-48.6c3.4,2.3,6.4,5,9.6,7.5c2.1,16.4,0.6,33.3-4.8,48.9c10.2-9.8,15.9-23.2,21-36.1
		c3.3,2.1,6.7,4.2,10,6.2c1.1,6.8,1.4,13.8,0.7,20.7c-0.2,4.1-3.7,6.8-6.3,9.5c-11.9,11-25.3,20.4-39,29
		c-46,28.5-97.8,47.9-151.5,55.5c-24.5,3.6-49.3,4-74,2.8c-21.2-1.6-42.4-3.8-63.2-8.3c-22.8-4.5-45.2-11.1-66.9-19.3
		c-19.3-7.3-38.1-15.7-56.9-24.1c-24.9-10.9-50.6-21.3-78-23.3c-10.4-1.1-21.2,0.8-31.4-2.3c-3.5-1.1-7.6-3.3-8-7.5
		c-0.5-5.7,3.2-10.6,6.5-14.9c9-11,20.3-19.8,31.5-28.5c1-0.6,2.4-2.1,3.4-0.6c7.2,8.6,11.6,19.8,11.1,31.1c0.1,4.8-1.2,9.4-2,14
		c8.9-11.1,11.7-26.3,9.2-40.1c-0.6-5.6-2.9-10.7-4.5-16c3.1-3.7,7.9-5.6,11.7-8.5c2.2,5.5,3.1,11.5,5.1,17.1
		c3.3,10,6.8,20.2,13.4,28.5c-4.8-16.5-4-33.8-2.5-50.7c0.3-1.9,0.3-4,1.3-5.7c3.8-2.7,7.8-5.2,12.1-7.1
		c1.3,18.2,4.5,36.7,12.2,53.4c3.1,6.5,6.9,13,12.1,18c-1.6-4.1-3.7-8-5-12.1c-4-11.8-4.7-24.5-4.4-36.9c0.2-10.3,1.6-20.6,3.7-30.6
		c0.2-2.9,3.2-3.5,5.4-4.4c2.3,20.1,6.2,40.1,13.2,59.1c5.1,13.6,11.9,27.2,23.2,36.7c-9.9-12.5-14.4-28.3-16.7-43.9
		c-2.7-19.5-2.8-39.2-1.3-58.8c8.2-3,16.5-6,25-8.2c-4.3,21.9-4.3,44.8,1.4,66.5c8.1,32.6,28.3,62,55.5,81.7
		c22.9,16.8,50.9,26.4,79.3,27.6c28.4,1.1,57.1-6.2,81.4-21.1c24.1-14.7,43.8-36.5,55.8-62C770.9,223.4,774.3,188.3,766.1,156.1z"/>
</g>
<g id="_x23_201f1eff">
	<path class="st2" d="M618.8-303.3c4.3-2.9,9.7-4.8,14.8-3.5c4.4,1.2,8.8,3.8,11.2,7.8C797-52.4,949.1,194.2,1101.2,440.7
		c4.8,8.2,10.3,15.9,14.8,24.3c-9.3-5.1-18.9-9.5-28.9-13.2c-10.2-3.1-20.5-5.9-31.1-6.9c-7.4-0.1-14.7-0.1-22.1,0
		c-10.8,1-21.3,3.4-31.8,6.2c-8.6,2.6-16.7,6.4-24.9,10.1c-13,7.5-25.7,15.9-36.1,26.9C919,509,903.7,536.3,894.1,565
		c-4.3,12.5-6.2,25.7-7.2,38.9c0.9,11.1,2.2,22.6,7.4,32.7c5.1,10.8,13.1,20.4,23.3,26.5c4.2-15.7,11.5-30.9,23.1-42.5
		c5.9-5.1,12.7-9.7,20.7-10.2c22.4,0.6,45.2,7.1,62.9,21.2c15.1,11.6,25.6,28.1,32.3,45.7c3.2,7.2,4.8,14.9,6.5,22.5
		c2.4,11.2,3.9,22.6,4.1,34c1.4,7.3,0.6,14.7,0.9,22.1c0.3,5.7-1.3,11.3-1.1,17c-1.8,22.1-5.9,44.2-14,64.9
		c-7.7,20.5-19.3,39.7-34.5,55.4c-4.9,4.1-8.9,9.3-14.4,12.6c-5.1,3.9-10.9,6.8-16.9,9c-17.2,6.8-35.6,10.8-54.1,9.9
		c-18.9,1.1-37.9-4.9-53.4-15.6c-15.9-11.1-27-27.9-34.5-45.5c-9.8-23.3-13.7-48.5-15.5-73.5c-0.8-4.4-0.6-9-0.6-13.4
		c0-13.3,0-26.7,0-40c0.4-5,1.3-10,1-15c2.5-25.7,5.2-51.4,10.1-76.8c2.4-11.6,4.8-23.1,7.3-34.7c3.9-14.1,7.2-28.4,11.5-42.4
		c2.6-8.9,5.9-17.6,8.4-26.6c5-13.1,9.1-26.5,14.7-39.3c26.8-67.4,61.9-131.6,104.7-190.3c4.3-6,9.3-11.6,13.4-17.7
		c-3.4-6.4-7.5-12.4-12.1-18c-3.3-4.2-7.7-7.5-10.4-12.1c-3.4,3.2-5.8,7.3-8.8,10.9c-7.4,8.9-14.6,18-22.5,26.5
		c-4.5,3.9-7.7,9-12,13c-5,4.7-9.4,10-14.8,14.2c-3.9,3-6.9,7.1-10.9,10.1c-30.9,27.5-64.5,52-100.5,72.5c-2.5,1.5-5.2,2.6-7.2,4.8
		c-17.7,27.4-34.7,55.3-49.8,84.2c-3.9,8.5-9.2,16.4-12.9,25c-3.4,8.4-8.1,16.2-11.4,24.6c-5.1,9.9-8.9,20.4-13.3,30.6
		c-5.2,13-10.4,26-14.7,39.3c-4.5,13.4-9.1,26.8-12.4,40.6c-4.5,15.5-7.9,31.4-10.6,47.4c-4.1,19.6-6,39.5-7.6,59.4
		c0,5.8,0.5,11.6-0.7,17.3c-0.5,6.1-0.6,12.3,0.1,18.4c1.4,7.2-0.3,14.6,1.1,21.8c1.5,22,5.4,43.8,10.8,65.2
		c6.1,23.4,15,46.1,26.8,67.2c3.2,5.7,6.5,11.4,10.6,16.4c3.8,1.4,8.1,1.9,11.3,4.8c-11.9,21-25.9,40.9-41.8,59.2
		c-3.5,3.2-6.3,7-9.5,10.5c-4.6,4.4-8.8,9.3-13.9,13.1c-15.3,14.4-32.3,26.9-50.3,37.7c-26,16.2-54.8,27.4-84.2,35.8
		c-21.5,5.3-43.2,9.8-65.3,11.6c-5.4-0.3-10.7,1.4-16,1.1c-6-0.4-12,1.3-18,0.9c-6.7,0.1-13.4,0-20-0.9c-6.4,0.4-12.7-0.9-19.1-1.1
		c-25.2-2.1-50.1-6.8-74.8-12.1c-21.9-5.6-43.9-11.3-64.6-20.5c-6.5-3-12.9-6.2-18.8-10.2c-3.6-2.9-8-6.8-6.8-11.9
		c2-6.2,7.8-9.8,13-13.1c9.3-6,19.7-9.8,29.7-14.3c11-3.9,22-8.2,33.2-11.9c9-2.6,17.8-5.7,26.7-8.3c8.3-2.8,17-4.4,25-7.9
		c7.5-3.5,13.8-11.1,13.4-19.6c-0.1-6.7-0.1-13.4-0.1-20c-0.1-7.3,0,0-0.9-22c-0.3-12-0.8-59.3-1.1-71c-0.5-10.2,1-20.8,6.4-29.6
		c2.9-4.4,8.1-6.5,13-8c7.3-2.2,15.1-1.2,22.6-1.4c10.3,0.1,170.2,11.5,207.1,16.1c-1-9.4-2.6-18.7-3.1-28c0.3-5.1-1.2-10-1.1-15
		c0.1-11.3,0-22.7,0.1-34c0.1-5.1-0.4-10.3,0.6-15.4c0.9-4.8,0.1-9.8,0.5-14.6c1.3-10.3,1.7-20.6,2.9-30.9
		c0.2-8.1,2.2-16.1,2.1-24.2c-23.8,8.2-108,15.6-115,15.2c-28.7-0.1-57.3-0.1-86,0c-5,0-32.8,0.6-39.7-5.3
		c-7.7-7.5-10.5-18.4-12.5-28.6c-0.8-7.4-2.8-30.8-2.8-35.1c0.1-25,0-50,0-75c0-5.1,0.8-24.5,1-29c1.6-16.5,2.5-33.5,8.8-49.1
		c1.4-3.9,4.3-7.6,8.3-8.8c8.2,0.9,16.2,3.3,24.3,4.6c9.5,1.9,19,4.2,28.4,6.6c19.4,4.2,38.5,10,57.6,15.4
		c35.5,10.6,70.4,23,104.6,37.5c5.9,2.4,11.7,4.8,17.3,7.6c6.4,2.9,13.1,5.4,19.3,8.7c7.4,3.9,15.2,7.2,22.4,11.6
		c1.5,0.8,3.1,1.5,4.7,2.3c2.3-10.8,5.5-21.4,8.5-32c2-7.3,5-14.3,7.6-21.4c5.4-15,12.3-29.3,19.5-43.5
		c9.9-20.4,22.4-39.4,34.8-58.3c-16.2,3.3-39.7,6.5-82.2,8.1c-8.2,1.2-62.4-0.7-68.1-1.8c-21.8-2.1-43.4-5.3-65-9.2
		c-22.7-4.9-45.4-10.2-67.6-17.4c-8.9-2.4-17.5-5.7-26.1-9c-11.4-3.9-22.5-8.6-33.3-13.8c-0.3-13.1,1-26.4-1.4-39.4
		c-10.8-2.3-20.7-7.1-30.7-11.4c-3.4-1.4-6.3-3.6-9.7-4.8c-39.8,27.2-83.1,49.2-127.9,67c-12.7,4.9-25.5,9.5-38.5,13.6
		c14.7-24.9,30.1-49.4,44.9-74.2c46.4-76.2,92.7-152.6,139.2-228.8c11.4-19.2,23.4-38,34.7-57.3c4.7-6.8,8.3-14.2,13-21
		c63-103.7,126.1-207.3,189-311c4.4-6.7,8.1-13.8,12.6-20.4C612.2-294.5,614.2-300,618.8-303.3 M553.6,1.5
		C526.1,13,500.7,29,476.7,46.6c-40.9,29.9-77.4,65.2-113,101.1c-1.8,2.2,1,5.3,3.4,5.3c3.3,0.7,6.3-1.3,8.2-3.8
		c5-6.3,10.4-12.3,15.9-18.1c38.3-39.7,84.8-72.2,136.7-91.4c46.8-17.4,98.2-22.6,147.4-14.2c36.7,6,71.9,19.4,104.2,37.9
		c26.9,15.4,51.9,34.3,74,56.1c3.7,3.5,6.8,7.5,10.7,10.8c-0.1-6.5,0.8-13.5-2-19.5c-8.4-9.6-18.8-17.3-28.7-25.3
		C802,61.3,768.2,39.9,732.7,22.1C699,5.7,663.4-8.2,625.8-12C601-14.3,576.3-7.9,553.6,1.5 M562.5,52.5
		C540.7,58.2,519.1,64.8,499,75c-8.1,4.2-16.2,8.8-22.5,15.4c-8.3,9.4-17.3,18.1-26.4,26.7c-25.4,23.4-51.5,46-79.1,66.8
		c-9.9,7.5-20.5,13.9-30.2,21.8c-17.2,13.9-33.9,29-46.8,47.2c-4.6,6.8-9.2,14.5-9,23c0.1,6.4,4.3,12,9.6,15.2
		c10.6,6.6,23.1,8.6,34.9,12.1c11.1,3.4,22.9,2.7,34.4,4.4c36.8,4.5,70.1,22.3,101.7,40.6c37.7,20.9,78.9,34.8,120.5,45.5
		c20.5,5.1,41.1,9.8,62,12.6c-3.6,1.1-7.4,1.5-11.2,1.6c-45.3,2.6-90.6-7.7-132.5-24.6c-17-7-33.7-14.8-49-25.1
		c-9.9-6.3-20.2-12-30.7-17.2c-10.7-5.1-21.5-10.2-33-13.1c-4.2-1.1-8.9-1.2-12.6,1.3c-1.7,0.9-1.3,3.3-0.1,4.3
		c3.3,3.3,7.6,5.2,11.8,7.2c10.9,4.8,22.2,8.9,33.6,12.4c20.1,6.8,36.6,20.3,54.1,31.8c14.3,9.5,29.5,17.6,45.6,23.5
		c37.2,13.6,77.2,16.8,116.6,16.6c22.6-0.5,45.1-4.1,66.8-10.3c33.4-9.4,65-24.4,94.6-42.6c27.9-17.3,54.2-37.3,78.2-59.7
		c4.3-4.1,8.9-7.9,12.4-12.7c-16.9,12.1-34.1,24.1-52.9,33.1c5.3-5,11.3-9.3,16.6-14.3c15.1-13.5,29.8-27.7,42.6-43.5
		c-5.1,3.2-9.7,7-14.6,10.5c-31.9,23.5-66.3,43.9-103,58.9c-40.7,16.8-84.5,26.6-128.6,26.8c-41.8-0.6-83.7-5-124.4-14.9
		c-39.1-9.5-77.5-24.2-110.8-47.2c-6.5-4.4-13.7-7.5-21.2-10c-20.1-6.8-41.5-8.4-62.5-10.5c-5.5-0.7-11.4-0.6-16.3-3.6
		c-6.1-3.4-9.6-10.3-10.2-17.1c-0.8-8.4,1.1-17.8,7.6-23.7c48.6-47.9,107-85,169-113c37.8-16.8,77.3-30.6,118-38.1
		c21.3-4.1,43.4-5.2,64.8-1.5c36.4,6.3,70.3,22.1,101.5,41.4c30.7,19,59,41.6,88.2,62.7c15.8,11.4,31.4,22.9,48.1,32.9
		c4.3,2.3,8.7,5.5,13.8,5.3c3.8-15.8,0.4-32.5-6.1-47.1c-17.2-2.8-33.1-10.6-46.8-21.2c-27.9-21.3-51.6-47.7-81-67
		c-31.4-20.6-66-36.3-101.9-47.1c-19.9-5.6-40.4-9.9-61.2-8.8C601.9,44.3,582,47.8,562.5,52.5 M684.2,136
		c4.4,5.4,8.1,11.4,11.1,17.6c7.1-2.8,13.7-6.8,21.1-9c-4.9,6-11.5,10.3-16.7,16c-1.4,1.3-0.4,3.2-0.2,4.7c1.5,5.3,2,10.7,2.9,16.1
		c11.9,1.2,23.9,2.8,35.8,3.9c-1.7,0.6-3.5,1.1-5.3,1.3c-10.3,1-20.5,2.3-30.7,3.4c-0.7,7.1-1.8,14.1-4.2,20.9
		c8.8,6.1,18.6,10.7,27.2,17.1c-10.3-2.3-20.3-5.9-30.4-9c-3.1,5.3-6,10.9-10.2,15.5c-1.1,1.5-3.7,3.5-1.8,5.4
		c6.7,8.7,13.5,17.3,20,26.2c-2.6-1.7-5.1-3.5-7.5-5.5c-6.5-5.6-13.4-10.6-19.7-16.4c-5.4,4.4-11.2,8.4-17.5,11.3
		c2.6,10.8,7.6,20.9,10.1,31.8c-1.4-1.5-2.7-3.1-3.8-4.8c-4.7-7.8-9.6-15.6-14.6-23.3c-6.8,1.9-13.7,3.3-20.7,4
		c-1.8,12.3-2.3,24.8-4.8,37c-0.9-11.1-2.4-22.1-3.5-33.2c-0.4-1.3-0.1-3.8-2-4c-6.4-0.9-12.8-1.8-18.9-3.8
		c-4.9,7.8-9.3,15.8-13.9,23.8c-0.9,1.5-2.1,2.9-3.3,4.3c2.1-10.6,6.5-20.6,8.7-31.1c-1.4-1.7-3.7-2.3-5.5-3.4
		c-4.6-2.3-8.3-5.9-12.6-8.6c-5.1,4.4-10.7,8.1-16,12.2c-4.2,3-8,6.4-12.6,8.9c6.8-9.6,15.3-17.9,22.5-27.1c-4.4-5.7-9-11.4-12-18.1
		c-11.4,2-22.3,6.2-33.6,8.7c9.5-6.3,19.9-11.1,29.8-17c-2.1-7-4-14.2-4-21.6c-8.9-1.1-17.7-2.4-26.6-3.5c-1.8-0.2-3.6-0.8-5.3-1.4
		c9.1-1.1,18.1-2.4,27.2-3.5c1.9-0.4,5-0.2,4.7-3c0.3-6,1.9-11.9,3.3-17.7c-4.9-3.9-10.2-7.3-15.1-11.2c-1.9-1.2-3.8-3.3-6.2-2.5
		c-10,2.6-20.1,5.1-30,8.1c-5.1,18.2-6.2,37.4-3.4,56.1c3.1,20.8,11.7,40.8,24.3,57.7c16.9,22.7,41.3,39.8,68.5,47.6
		c38.3,11.3,81.7,3.7,113.6-20.3c29.3-21.4,49-55.5,52.4-91.6c2.4-18.2-0.5-36.8-5.7-54.3C728,143.9,706.2,139.1,684.2,136
		 M538.7,144.8c5.1,3.4,10.6,6,16,8.8c2.7-6.5,7.4-11.8,12.5-16.6C557.6,139.2,547.9,141.4,538.7,144.8 M766.1,156.1
		c8.2,32.3,4.8,67.4-9.5,97.4c-12,25.5-31.7,47.4-55.8,62c-24.2,14.9-53,22.2-81.4,21.1c-28.4-1.2-56.4-10.8-79.3-27.6
		c-27.2-19.7-47.3-49-55.5-81.7c-5.7-21.7-5.7-44.6-1.4-66.5c-8.5,2.2-16.8,5.1-25,8.2c-1.5,19.6-1.5,39.3,1.3,58.8
		c2.3,15.6,6.8,31.4,16.7,43.9c-11.3-9.5-18.1-23.1-23.2-36.7c-6.9-19-10.8-39.1-13.2-59.1c-2.2,0.9-5.2,1.5-5.4,4.4
		c-2.1,10.1-3.5,20.3-3.7,30.6c-0.4,12.4,0.4,25.1,4.4,36.9c1.3,4.2,3.4,8.1,5,12.1c-5.3-5.1-9-11.5-12.1-18
		c-7.7-16.7-10.9-35.2-12.2-53.4c-4.3,1.9-8.3,4.3-12.1,7.1c-1,1.7-0.9,3.8-1.3,5.7c-1.6,16.9-2.4,34.3,2.5,50.7
		c-6.6-8.3-10.1-18.5-13.4-28.5c-1.9-5.6-2.8-11.6-5.1-17.1c-3.8,2.9-8.6,4.8-11.7,8.5c1.6,5.3,3.9,10.4,4.5,16
		c2.5,13.8-0.3,29-9.2,40.1c0.8-4.6,2.1-9.3,2-14c0.6-11.3-3.9-22.5-11.1-31.1c-0.9-1.5-2.4,0-3.4,0.6
		c-11.2,8.7-22.5,17.5-31.5,28.5c-3.3,4.3-7,9.2-6.5,14.9c0.3,4.2,4.4,6.3,8,7.5c10.2,3.1,20.9,1.2,31.4,2.3
		c27.4,2.1,53.1,12.5,78,23.3c18.8,8.3,37.6,16.8,56.9,24.1c21.7,8.2,44.1,14.7,66.9,19.3c20.8,4.5,42,6.7,63.2,8.3
		c24.7,1.2,49.5,0.8,74-2.8c53.7-7.6,105.5-26.9,151.5-55.5c13.7-8.7,27.1-18,39-29c2.7-2.7,6.1-5.4,6.3-9.5
		c0.6-6.9,0.4-13.9-0.7-20.7c-3.4-2-6.7-4.1-10-6.2c-5.2,12.9-10.8,26.3-21,36.1c5.4-15.6,6.9-32.6,4.8-48.9
		c-3.2-2.5-6.2-5.2-9.6-7.5c-2.5,16.6-6,33.5-13.8,48.6c-2.6,4.9-5.4,9.9-9.5,13.7c9.3-20.3,9.1-43.4,6.8-65.2
		c-0.5-3.9-0.8-7.8-2.1-11.6c-1.1-1.7-3-2.4-4.6-3.5c-3,21.1-7.2,42.6-17.6,61.5c-4.4,7.7-9.4,15.3-16.6,20.6
		c11.8-15.8,16.4-35.7,17.4-55.1c0.9-13.2,0.3-26.5-1.5-39.6c-4.7-2.9-9.3-5.9-14.3-8.2c0.1,9.9-0.4,19.9-1.7,29.7
		c-2.6,20-7.5,40-17.2,57.8c-2.5,4.4-4.8,9.1-8.5,12.6c8.6-17.1,12.1-36.2,13-55.1c0.4-18.3-1-36.7-5.3-54.6
		C777.1,160.3,771.6,158.2,766.1,156.1z"/>
</g>
<g id="_x23_4172a7ff">
	<path class="st0" d="M684.2,136c22.1,3.1,43.9,7.9,65.1,14.6c5.3,17.5,8.1,36.1,5.7,54.3c-3.4,36.1-23.2,70.3-52.4,91.6
		c-31.9,24-75.3,31.7-113.6,20.3c-27.2-7.8-51.6-24.8-68.5-47.6c-12.6-16.9-21.1-36.8-24.3-57.7c-2.8-18.6-1.7-37.9,3.4-56.1
		c9.9-2.9,20-5.5,30-8.1c2.4-0.8,4.4,1.3,6.2,2.5c5,3.9,10.2,7.3,15.1,11.2c-1.4,5.8-2.9,11.7-3.3,17.7c0.3,2.8-2.8,2.6-4.7,3
		c-9.1,1-18.1,2.4-27.2,3.5c1.7,0.6,3.4,1.2,5.3,1.4c8.9,1.1,17.7,2.3,26.6,3.5c0,7.4,1.9,14.6,4,21.6c-9.8,5.8-20.3,10.6-29.8,17
		c11.3-2.5,22.2-6.7,33.6-8.7c3,6.6,7.6,12.3,12,18.1c-7.2,9.3-15.8,17.5-22.5,27.1c4.5-2.5,8.4-5.9,12.6-8.9
		c5.3-4.1,11-7.8,16-12.2c4.3,2.7,8,6.3,12.6,8.6c1.8,1.1,4.1,1.7,5.5,3.4c-2.2,10.5-6.6,20.5-8.7,31.1c1.2-1.4,2.4-2.7,3.3-4.3
		c4.6-8,9-16,13.9-23.8c6.1,2.1,12.5,3,18.9,3.8c1.9,0.1,1.6,2.6,2,4c1.1,11.1,2.6,22.1,3.5,33.2c2.5-12.2,2.9-24.7,4.8-37
		c7-0.6,13.9-2,20.7-4c5,7.7,9.8,15.5,14.6,23.3c1.1,1.7,2.4,3.3,3.8,4.8c-2.5-10.9-7.4-21-10.1-31.8c6.3-2.9,12.1-6.9,17.5-11.3
		c6.3,5.7,13.2,10.8,19.7,16.4c2.3,2,4.8,3.9,7.5,5.5c-6.4-8.9-13.3-17.5-20-26.2c-1.9-1.9,0.7-3.9,1.8-5.4
		c4.2-4.6,7-10.2,10.2-15.5c10.1,3.1,20.1,6.8,30.4,9c-8.6-6.4-18.4-11-27.2-17.1c2.3-6.7,3.5-13.8,4.2-20.9
		c10.2-1.1,20.4-2.4,30.7-3.4c1.8-0.2,3.6-0.8,5.3-1.3c-12-1.1-23.9-2.7-35.8-3.9c-0.9-5.4-1.5-10.8-2.9-16.1
		c-0.2-1.6-1.3-3.5,0.2-4.7c5.2-5.8,11.8-10,16.7-16c-7.3,2.2-13.9,6.3-21.1,9C692.2,147.3,688.5,141.4,684.2,136z"/>
	<path class="st0" d="M538.7,144.8c9.3-3.4,18.9-5.5,28.5-7.8c-5.1,4.8-9.7,10.1-12.5,16.6C549.3,150.8,543.8,148.2,538.7,144.8z"/>
</g>
</svg>
