<?xml version="1.0" encoding="utf-8"?>
<!-- Generator: Adobe Illustrator 21.0.2, SVG Export Plug-In . SVG Version: 6.00 Build 0)  -->
<svg version="1.1" id="Layer_1" xmlns="http://www.w3.org/2000/svg" xmlns:xlink="http://www.w3.org/1999/xlink" x="0px" y="0px"
	 viewBox="0 0 1984.3 1984.3" style="enable-background:new 0 0 1984.3 1984.3;" xml:space="preserve">
<style type="text/css">
	.st0{fill:#171717;}
	.st1{fill:#AE0B17;}
</style>
<g id="_x23_ffffffff">
</g>
<g id="_x23_171717ff">
	<path class="st0" d="M133.4,764h467c2,1.3,3,3.5,3.9,5.6c1,1.7,2,3.3,3.1,4.9c0.2,0.5,0.6,1.5,0.9,2.1c1,1.7,2.1,3.3,3.1,5
		c1,1.7,2,3.3,3,4.9c0.5,1,0.9,1.9,1.4,2.9c1,1.6,2.1,3.2,3,4.9c1.3,2.9,3.2,5.4,4.6,8.3c0.9,1.7,2,3.3,3,5c1.6,2.6,3.2,5.1,4.5,7.8
		c1.3,2,2.6,4,3.6,6.2c1.1,1.9,2.3,3.8,3.4,5.7c1.1,2.5,2.6,4.7,4,7.1c0.8,1.4,1.7,2.8,2.6,4.1c0.5,0.9,0.9,1.9,1.4,2.9
		c1,1.6,2.1,3.2,3,4.9c1,2.2,2.3,4.2,3.6,6.2c0.5,0.9,0.9,1.9,1.4,2.9c0.9,1.4,1.8,2.7,2.6,4.1c1,1.7,2,3.3,3,5c1.1,2.4,2.5,4.7,4,7
		c1.3,2.7,2.9,5.3,4.4,7.8c0.8,1.4,1.7,2.8,2.6,4.2c1.1,2.4,2.5,4.8,4,7c0.4,1,0.9,1.9,1.3,2.8c1,1.6,2.1,3.3,3.1,4.9
		c0.3,0.5,0.9,1.6,1.2,2.2c0,0.5,0,1.5,0,1.9c-1.8,3.3-4,6.5-5.7,9.9c-1,1.6-2.1,3.3-3,4.9c-1.1,2.4-2.6,4.7-4,7
		c-1.3,2-2.5,4.1-3.6,6.3c-1.1,1.9-2.3,3.8-3.4,5.7c-1.3,2.9-3.2,5.4-4.6,8.3c-1.1,2-2.3,3.8-3.4,5.8c-1.3,2-2.5,4.1-3.5,6.2
		c-1.1,1.9-2.3,3.8-3.4,5.7c-1.3,2.9-3.2,5.4-4.6,8.3c-1,1.7-2,3.3-3,5c-1.1,1.9-2.3,3.8-3.4,5.8c-1.1,2.5-2.6,4.8-4.2,7
		c-0.5,1.3-0.9,2.7-1.3,4.1c1.7,2.3,3.3,4.6,4.4,7.2c1.4,2.3,2.9,4.5,4,7c1.4,2.3,2.9,4.5,4,7c1.4,2.3,2.9,4.6,4,7
		c1.4,2.3,2.9,4.6,4,7c1.1,2,2.3,3.8,3.4,5.8c1.3,2,2.5,4,3.6,6.2c1.1,1.9,2.3,3.8,3.4,5.8c1.3,2.9,3.2,5.4,4.6,8.3
		c0.9,1.7,2,3.3,3,5c1.3,2.7,2.9,5.2,4.4,7.8c1,2.2,2.3,4.2,3.6,6.2c0.2,0.5,0.7,1.6,0.9,2.1c1,1.7,2.1,3.3,3,5c1,1.7,2,3.3,3,5
		c1.1,2.4,2.5,4.7,4.1,7c0.2,0.5,0.7,1.6,0.9,2.1c1,1.7,2.1,3.3,3.1,4.9c0.4,0.9,0.9,1.9,1.3,2.8c1,1.6,2.1,3.3,3.1,4.9
		c0.2,0.5,0.6,1.6,0.8,2.1c0.9,1.4,1.8,2.7,2.7,4.1c0.2,0.5,0.6,1.6,0.9,2.1c1.4,2.3,2.9,4.5,4.1,7c1.1,1.9,2.3,3.8,3.5,5.7
		c0.2,0.5,0.6,1.6,0.9,2.1c1,1.6,2.1,3.3,3.1,5c0.8,1.4,1.7,2.8,2.6,4.2c0.4,0.9,0.9,1.9,1.3,2.8c1,1.6,2.1,3.3,3.1,4.9
		c0.2,0.5,0.6,1.6,0.9,2.1c0.9,1.4,1.8,2.8,2.7,4.2c1.1,2.4,2.5,4.8,4,7c0.4,0.9,0.9,1.9,1.3,2.8c1,1.6,2.1,3.3,3,5
		c1.1,2.5,2.6,4.7,4.1,7c0.2,0.5,0.6,1.6,0.9,2.1c1,1.6,2.1,3.2,3.1,4.9c0.2,0.5,0.6,1.6,0.9,2.1c1,1.6,2.1,3.3,3.1,5
		c1,1.7,2,3.3,3.1,5c0.2,0.5,0.6,1.5,0.9,2.1c1.5,2.2,2.9,4.5,4,7c1,1.7,2.1,3.3,3.1,5c0.2,0.5,0.6,1.6,0.9,2.1
		c1,1.6,2.1,3.3,3.1,4.9c0.2,0.5,0.6,1.6,0.8,2.1c1.2,1.9,2.4,3.8,3.7,5.6H654.4c-1.5-1.1-2.5-2.7-3.4-4.3c-0.2-0.5-0.6-1.6-0.9-2.1
		c-1-1.6-2.1-3.3-3.1-5s-2.1-3.3-3-5c-0.2-0.5-0.7-1.5-0.9-2.1c-1.5-2.2-2.9-4.5-4-7c-0.9-1.4-1.8-2.8-2.7-4.2
		c-0.4-1-0.9-1.9-1.3-2.8c-0.9-1.4-1.8-2.8-2.7-4.2c-0.4-0.9-0.9-1.9-1.3-2.8c-1.5-2.3-2.9-4.6-4-7c-1-1.7-2.1-3.3-3.1-5
		c-0.2-0.5-0.6-1.5-0.9-2.1c-1.5-2.2-2.9-4.5-4.1-7c-0.8-1.4-1.8-2.8-2.6-4.2c-1.4-2.3-2.9-4.6-4-7c-1.1-2-2.3-3.8-3.5-5.7
		c-0.2-0.5-0.6-1.5-0.9-2c-1-1.6-2.1-3.3-3.1-4.9c-0.2-0.5-0.6-1.6-0.9-2.1c-1.5-2.2-2.9-4.5-4-7c-1.5-2.3-2.9-4.6-4-7
		c-0.8-1.4-1.8-2.8-2.6-4.2c-1.3-2.7-2.9-5.2-4.4-7.8c-1-1.7-2.1-3.3-3.1-5c-0.2-0.5-0.6-1.5-0.9-2c-1-1.6-2.1-3.3-3.1-4.9
		c-1-2.2-2.3-4.2-3.6-6.3c-0.4-0.9-0.9-1.9-1.3-2.8c-0.9-1.4-1.8-2.8-2.7-4.2c-0.4-1-0.9-1.9-1.3-2.9c-0.9-1.4-1.8-2.7-2.7-4.1
		c-0.2-0.5-0.7-1.6-0.9-2.1c-1-1.7-2.1-3.3-3.1-4.9c-1.1-2.4-2.5-4.7-4-7c-1.2-2.4-2.5-4.7-4-7c-1-1.7-2-3.3-3-5
		c-1.3-2.7-2.9-5.2-4.4-7.8c-1-1.8-1.5-5-4.2-4.6c-138.2,0-276.5-0.1-414.7,0c1.3,3,3.3,5.6,4.7,8.6c1.1,1.9,2.3,3.8,3.4,5.7
		c1,2.2,2.3,4.2,3.6,6.3c1,1.7,2,3.3,3.1,5c0.2,0.5,0.6,1.6,0.9,2.1c1,1.7,2.1,3.3,3.1,4.9c0.4,0.9,0.9,1.9,1.3,2.8
		c0.9,1.4,1.8,2.8,2.6,4.2c1,1.8,2.1,3.6,3.1,5.4c29.4,0,58.8-0.1,88.2,0.1c2.4,1.1,3.3,4.2,4.7,6.3c1,1.7,2.1,3.3,3,5
		c1,2.2,2.3,4.2,3.6,6.2c0.2,0.5,0.7,1.5,0.9,2.1c1,1.7,2.1,3.3,3.1,5c1.1,1.9,2.3,3.8,3.4,5.7c1,2.2,2.3,4.2,3.6,6.2
		c0.2,0.5,0.7,1.6,0.9,2.1c1,1.7,2.1,3.3,3.2,4.9c0.2,0.6,0.7,1.8,0.9,2.4c66.1,0,132.4,0,198.5,0c1.3,2.2,2.6,4.3,3.7,6.6
		c1,1.7,2,3.3,3,5c0.4,0.9,0.9,1.9,1.3,2.8c1,1.6,2.1,3.3,3,5c1,1.7,2,3.3,3,5c1.5,3.1,3.6,5.9,5,9c1,1.7,2.1,3.3,3.1,5
		c0.2,0.5,0.6,1.6,0.9,2.1c1,1.6,2.1,3.3,3.1,5c1,1.7,2,3.3,3.1,5c0.2,0.5,0.6,1.6,0.9,2.1c1.5,2.2,2.9,4.5,4.1,7c1,1.7,2.1,3.3,3,5
		c1.4,2.3,2.8,4.6,4,7c0.8,1.4,1.8,2.8,2.6,4.2c0.4,0.9,0.9,1.9,1.3,2.8c0.9,1.4,1.8,2.8,2.7,4.2c0.4,0.9,0.9,1.9,1.3,2.8
		c0.9,1.4,1.8,2.8,2.7,4.1c0.2,0.6,0.7,1.9,0.9,2.5h-393c-1.5-1.1-2.5-2.7-3.3-4.3c-1.4-2.3-2.8-4.6-4-7c-1-1.7-2.1-3.3-3.1-5
		c-0.2-0.5-0.6-1.6-0.8-2.1c-1.1-1.6-2.1-3.3-3.2-4.9c-0.2-0.5-0.6-1.6-0.8-2.1c-1.1-1.6-2.1-3.3-3.1-5c-1.4-2.3-2.8-4.6-4-7
		c-1-1.7-2.1-3.3-3.1-5c-0.2-0.5-0.7-1.5-0.9-2.1c-1.5-2.2-2.9-4.5-4.1-7c-0.8-1.4-1.8-2.8-2.6-4.2c-1.5-2.6-3.1-5.1-4.4-7.8
		c-1.5-2.3-2.9-4.6-4-7c-1-1.7-2.1-3.3-3-5c-1-2.2-2.3-4.2-3.6-6.3c-1.1-1.9-2.3-3.8-3.5-5.7c-0.2-0.5-0.6-1.5-0.9-2.1
		c-1.1-1.7-2.1-3.3-3.2-4.9c-0.2-0.5-0.6-1.5-0.9-2.1c-0.9-1.4-1.8-2.8-2.6-4.2c-1-1.7-2-3.3-3.1-5c-0.2-0.5-0.6-1.5-0.9-2.1
		c-1-1.7-2.1-3.3-3.2-4.9c-0.2-0.5-0.6-1.6-0.9-2.1c-1-1.7-2.1-3.3-3.1-4.9c-1.1-2.4-2.5-4.8-4-7c-1.1-1.9-2.3-3.8-3.4-5.7
		c-1-2.2-2.3-4.2-3.6-6.2c-1.3-2.7-2.9-5.2-4.4-7.8c-1-2.2-2.3-4.2-3.6-6.3c-1.4-2.3-2.9-4.6-4-7c-1.4-2.3-2.9-4.5-4-7
		c-1.1-2-2.3-3.8-3.4-5.8c-1-2.2-2.3-4.2-3.6-6.2c-1.1-1.9-2.3-3.8-3.4-5.8c-1.1-2.5-2.6-4.7-4-7c-1.4-2.9-3.2-5.4-4.6-8.3
		c-0.9-1.7-2-3.3-3-5c-1.1-1.9-2.3-3.8-3.4-5.8c-1.1-2.4-2.6-4.7-4-7c-1.5-3.2-3.6-6.1-5.3-9.2V994c0.9-1.4,1.9-2.8,2.7-4.2
		c1.1-2.5,2.6-4.7,4-7c1.3-2.8,3.2-5.4,4.6-8.3c0.9-1.7,2-3.3,3-5c1.1-1.9,2.3-3.8,3.4-5.8c1.1-2.4,2.6-4.7,4-7
		c1.3-2.9,3.2-5.4,4.6-8.3c0.9-1.7,2-3.3,3-5c1.1-1.9,2.4-3.8,3.5-5.8c1.1-2.4,2.6-4.7,4-7c1-2.2,2.3-4.2,3.5-6.2
		c1.1-1.9,2.3-3.8,3.4-5.8c1.5-3.1,3.6-5.9,5-9c1.3-2,2.6-4,3.6-6.2c0.9-1.7,2-3.3,3-5c1.4-2.3,2.9-4.6,4-7c1.4-2.3,2.9-4.6,4-7
		c1.1-1.9,2.3-3.8,3.4-5.7c1-2.2,2.3-4.2,3.6-6.2c1.1-1.9,2.3-3.8,3.4-5.8c1.3-2.8,3.2-5.4,4.6-8.3c1.4-2.3,2.9-4.6,4-7
		c1.1-2,2.3-3.8,3.4-5.8c1-1.6,2-3.3,3-5c1.5-3.1,3.6-5.9,5-9c0.8-1.4,1.7-2.8,2.5-4.2c1.4-2.3,2.9-4.6,4-7c1.1-1.9,2.3-3.8,3.4-5.8
		c1-2.2,2.3-4.2,3.6-6.2c0.2-0.5,0.7-1.5,0.9-2c1.2-1.9,2.4-3.8,3.5-5.8c1-1.7,2-3.3,3-5c1.4-2.8,3.2-5.4,4.6-8.3
		c1.4-2.3,2.9-4.6,4-7c1.1-2,2.3-3.8,3.4-5.8c0.8-1.4,1.7-2.8,2.6-4.2C130.4,768.9,131.9,766.4,133.4,764 M187,855.6
		c-0.2,0.6-0.7,1.8-0.9,2.4c-1.1,1.6-2.2,3.2-3.1,4.9c-1,1.7-2.1,3.3-3.1,5c-0.2,0.5-0.6,1.6-0.9,2.1c-1.6,2.2-3,4.5-4,7
		c-1,1.7-2.1,3.3-3.1,4.9c-0.2,0.5-0.6,1.6-0.9,2.1c-1.1,1.6-2.2,3.2-3.1,5c-1.4,2.3-2.9,4.5-4,7c-1,1.7-2.1,3.2-3.1,4.9
		c-0.9,2.2-2.3,4.2-3.5,6.2c-0.9,1.7-2,3.3-3,5c-1.1,2.5-2.5,4.8-4,7c-1.1,2.8-2.9,5.2-4.4,7.8c-1,2.5-2.7,4.6-4,7
		c-1.2,2-2.7,4-3.5,6.3c-1.2,2.2-2.7,4.2-4,6.4c136.9,0,273.7,0,410.7,0c3,0.2,3.6-3.8,5.3-5.6c0.2-0.5,0.7-1.6,0.9-2.1
		c1.1-1.9,2.5-3.8,3.5-5.8c1-1.7,2.1-3.3,3-5c1-2.5,2.7-4.6,4-7c0.9-2.3,2.3-4.2,3.5-6.3c1-2,2.4-3.8,3.5-5.8
		c0.9-2.2,2.2-4.3,3.7-6.2c0.7-1.3,0.8-2.7,0-4c-1.1-1.6-2.3-3.2-3.1-4.9c-0.8-1.4-1.8-2.8-2.6-4.2c-0.5-1-0.9-1.9-1.3-2.9
		c-0.9-1.4-1.8-2.8-2.7-4.2c-1.1-2.5-2.5-4.8-4-7c-0.2-0.5-0.6-1.6-0.9-2.1c-1-1.7-2.1-3.3-3.1-5c-0.9-1.7-2-3.3-3.1-4.9
		c-0.2-0.5-0.7-1.6-0.9-2.1c-1.4-2.1-2.4-4.5-4.2-6.3c-20.8-0.3-41.5,0-62.4-0.1C385.3,855.6,286.1,855.5,187,855.6z"/>
	<path class="st0" d="M1306.9,764h546.6c1,1.1,2,2.3,2.9,3.5c0.2,0.5,0.5,1.6,0.7,2.1c1,1.7,2.1,3.3,3.1,5c0.9,1.7,2,3.3,3,5
		c1.1,2.4,2.5,4.7,4,7c1.2,2.4,2.5,4.8,4,7.1c0.9,1.7,2,3.3,3,4.9c0.4,1,0.9,1.9,1.4,2.9c1.3,2,2.6,4,3.6,6.2c1.1,2,2.3,3.8,3.5,5.7
		c0.2,0.5,0.7,1.5,0.9,2.1c1,1.7,2.1,3.3,3.1,5c1.4,2.3,2.8,4.6,4,7c1.3,2,2.5,4,3.6,6.2c1.4,2.3,2.8,4.6,4,7c1.1,2,2.3,3.8,3.4,5.8
		c1.3,2,2.5,4,3.5,6.2c1.1,1.9,2.3,3.8,3.4,5.7c1.5,3.1,3.6,5.9,5,9.1c1,1.7,2,3.3,3,5c1,1.7,2,3.3,3,5c1,2.2,2.3,4.2,3.6,6.2
		c1.2,2.4,2.5,4.7,4,7c1.1,2,2.3,3.8,3.5,5.8c0.2,0.5,0.6,1.5,0.8,2c1,1.7,2.1,3.3,3.2,4.9c0.2,0.5,0.6,1.6,0.8,2.1
		c1.3,2,2.6,4,3.6,6.2c1.1,1.9,2.3,3.8,3.4,5.8c0.8,1.4,1.7,2.8,2.6,4.2c1.4,3.1,3.5,5.9,5,9c1.1,1.9,2.3,3.8,3.4,5.7
		c1.1,2.5,2.6,4.7,4,7c1.3,2,2.5,4.1,3.6,6.2c1.1,1.9,2.3,3.8,3.4,5.7c1.1,2.5,2.6,4.7,4,7c1.1,2.4,2.6,4.7,4,7c1,1.7,2,3.3,3,5
		c1.1,2.4,2.6,4.7,4,7c1.5,3.2,3.5,6.1,5.3,9.2v0.6c-1.3,1.7-2.4,3.5-3.3,5.5c-1.4,2.3-2.9,4.6-4,7c-1.1,1.9-2.3,3.8-3.4,5.7
		c-1.2,2.5-2.7,4.7-4,7c-1,1.7-2.1,3.3-3,5c-1.2,2.4-2.7,4.7-4,7c-1.2,2.5-2.6,4.7-4,7c-1,2.2-2.3,4.2-3.6,6.3
		c-1.1,1.9-2.3,3.8-3.4,5.7c-1.2,2.4-2.6,4.7-4,7c-1,2.2-2.3,4.2-3.6,6.3c-1.6,2.5-3.2,5.1-4.4,7.8c-1,1.7-2.1,3.3-3.1,4.9
		c-0.2,0.5-0.7,1.6-0.9,2.1c-1.4,2-2.7,4-3.7,6.2c-1.1,1.9-2.3,3.8-3.4,5.8c-0.9,1.4-1.8,2.8-2.6,4.2c-0.5,0.9-0.9,1.9-1.3,2.8
		c-0.9,1.4-1.8,2.8-2.7,4.2c-0.5,0.9-0.9,1.9-1.3,2.8c-1,1.6-2.1,3.3-3,4.9c-1,2.2-2.3,4.2-3.6,6.3c-1.6,2.5-3.2,5.1-4.4,7.8
		c-0.9,1.4-1.8,2.8-2.6,4.2c-1.2,2.4-2.6,4.7-4,7c-1,1.7-2.1,3.3-3.1,5c-0.5,0.9-0.9,1.9-1.3,2.8c-0.9,1.4-1.8,2.8-2.7,4.1
		c-0.2,0.5-0.6,1.6-0.8,2.1c-1,1.7-2.1,3.3-3.1,5c-1.3,2.7-2.9,5.2-4.4,7.8c-0.9,1.4-1.8,2.8-2.7,4.2c-0.2,0.5-0.7,1.6-0.9,2.1
		c-1,1.7-2.1,3.3-3.1,4.9c-0.2,0.5-0.7,1.6-0.9,2.1c-1,1.7-2.1,3.3-3.1,4.9c-1.1,2.4-2.6,4.7-4,7c-1,1.7-2,3.3-3.1,5
		c-0.5,0.9-0.9,1.9-1.3,2.8c-0.9,1.4-1.8,2.8-2.7,4.1c-0.5,0.9-0.9,1.9-1.3,2.8c-0.9,1.4-1.8,2.8-2.6,4.2c-1,1.7-2,3.3-3.1,5
		c-0.2,0.5-0.7,1.5-0.9,2.1c-1,1.7-2.1,3.3-3.1,5c-1.2,2.5-2.7,4.9-4.1,7.4h-546.7c0.3-0.6,0.8-1.9,1-2.5c0.9-1.4,1.8-2.8,2.7-4.1
		c0.4-0.9,0.9-1.9,1.3-2.8c0.9-1.4,1.8-2.8,2.7-4.1c0.2-0.5,0.6-1.6,0.8-2.1c1-1.7,2.1-3.3,3.2-4.9c0.2-0.5,0.6-1.5,0.9-2.1
		c1-1.7,2.1-3.3,3.1-5c0.9-1.7,2-3.3,3-5c1.1-2.4,2.5-4.7,4-7c1.1-2.4,2.5-4.7,4-7c0.4-0.9,0.9-1.9,1.3-2.8c0.8-1.4,1.8-2.8,2.6-4.2
		c0.9-1.7,2-3.3,3.1-5c0.2-0.5,0.7-1.6,0.9-2.1c1-1.7,2.1-3.3,3.1-4.9c0.4-1,0.9-1.9,1.3-2.8c0.9-1.4,1.8-2.8,2.7-4.2
		c0.4-0.9,0.9-1.9,1.3-2.8c0.8-1.4,1.8-2.8,2.6-4.2c0.9-1.7,2-3.3,3-5c0.4-0.9,0.9-1.9,1.3-2.8c0.9-1.4,1.8-2.8,2.7-4.2
		c0.4-0.9,0.9-1.9,1.3-2.8c1-1.7,2.1-3.3,3.1-5c1.2-2,2.5-4.1,3.5-6.3c0.9-1.7,2-3.3,3.1-5c0.4-1,0.9-1.9,1.3-2.8
		c0.9-1.4,1.8-2.8,2.7-4.2c0.4-1,0.9-1.9,1.3-2.8c1-1.6,2.1-3.3,3-5c1-1.7,2.1-3.3,3.1-5c0.2-0.5,0.6-1.5,0.9-2c1.5-2.2,2.9-4.5,4-7
		c1.3-2,2.6-4.1,3.6-6.3c1.1-1.9,2.3-3.8,3.4-5.7c1-1.7,2-3.3,3-5c1.5-3.1,3.5-5.9,5-9c1-1.7,2-3.3,3-5c1.3-2,2.5-4.1,3.6-6.2
		c1.4-2.3,2.9-4.6,4-7c1.4-2.3,2.9-4.5,4-7c1.1-2,2.3-3.8,3.4-5.8c1-1.7,2-3.3,3-5c1.4-2.8,3.2-5.4,4.6-8.3c1.4-2.3,2.9-4.6,4-7
		c0.9-1.7,2-3.3,3-5c1.4-2.3,2.9-4.6,4-7c0.5-0.9,1.1-1.9,1.7-2.8c-1.3-2-2.5-3.9-3.7-5.9c-1.1-2.5-2.6-4.7-4-7
		c-1.3-2-2.6-4.1-3.6-6.2c-1.4-2.3-2.9-4.5-4-7c-1.1-2-2.3-3.8-3.4-5.8c-1.5-2.3-2.8-4.6-4-7c-1-1.7-2.1-3.3-3-4.9
		c-1.3-2.9-3.2-5.4-4.6-8.3c-1.1-2-2.3-3.8-3.4-5.8c-1.3-2-2.6-4.1-3.6-6.2c-1.4-2.3-2.9-4.6-4-7c-1-1.7-2-3.3-3-4.9
		c-0.5-0.9-0.9-1.9-1.4-2.9c-1-1.6-2.1-3.3-3-4.9c-1.3-2-2.6-4.1-3.6-6.3c-1.1-1.9-2.3-3.8-3.4-5.7c-1.1-2.4-2.6-4.7-4-7
		c-1-2.2-2.3-4.2-3.6-6.3c-1.4-2.3-2.9-4.6-4-7c-1.5-2.6-3.2-5.1-4.4-7.8c-1-1.7-2.1-3.3-3-5c-1.3-2-2.6-4.1-3.6-6.2
		c-0.9-1.7-2-3.3-3-4.9c-1.4-3.1-3.5-5.9-5-9c-0.9-1.7-2-3.3-3-5c-1-1.7-2-3.3-3.1-5c-0.5-1-0.9-1.9-1.4-2.9c-1.3-2-2.6-4-3.6-6.2
		c-1.1-1.9-2.3-3.8-3.4-5.7c-1.2-2.5-2.7-4.7-4-7c-0.9-1.4-1.8-2.8-2.6-4.2c-0.5-1-0.9-1.9-1.4-2.9c-1.3-2-2.6-4-3.6-6.2
		c-1.4-2.3-2.9-4.6-4-7c-0.9-1.7-2-3.3-3-5c-1-1.7-2-3.3-3-5c-1.5-3.1-3.5-5.9-5-9.1C1309.7,768.2,1308.3,766,1306.9,764
		 M1467.2,855.6c0.6,1.5,1.3,3,2,4.5c0.9,1.4,1.8,2.7,2.7,4.1c0.2,0.5,0.7,1.6,0.9,2.1c1,1.7,2.1,3.3,3.1,5c0.9,1.7,2,3.3,3,5
		c0.4,1,0.9,1.9,1.3,2.9c0.8,1.4,1.8,2.7,2.7,4.1c1.1,2.5,2.5,4.8,4,7c0.2,0.5,0.6,1.6,0.8,2.1c1,1.7,2.1,3.3,3.1,5
		c1.4,2.6,3.2,5,4.4,7.8c1,1.7,2.1,3.2,3.1,5c1,2.5,2.7,4.6,4,7c0.9,1.7,2.1,3.3,3,5c0.9,2.3,2.3,4.2,3.6,6.2c1,2.5,2.5,4.8,4,7
		c1,2.5,2.5,4.7,4,7c0.9,1.7,2,3.3,3,5c0.4,0.9,0.9,1.9,1.3,2.8c1,1.7,2.1,3.3,3.1,4.9c0.2,0.5,0.6,1.6,0.8,2.1
		c0.9,1.4,1.8,2.7,2.7,4.1c0.2,0.5,0.6,1.6,0.8,2.1c1.1,1.9,2.5,3.7,3.5,5.7c0.9,1.7,2.1,3.3,3.1,5c0.2,0.5,0.6,1.6,0.8,2.1
		c0.9,1.4,1.8,2.7,2.7,4.2c0.4,0.9,0.8,1.9,1.3,2.8c0.8,1.4,1.8,2.8,2.7,4.2c0.6,1.1,1.1,2.3,1.7,3.4c-0.7,1.3-1.7,2.3-2.4,3.6
		c-0.4,0.9-0.9,1.9-1.3,2.8c-1,1.6-2.2,3.2-3.1,4.9c-0.8,2.3-2.3,4.2-3.6,6.2c-0.5,0.9-0.9,1.9-1.3,2.8c-0.9,1.4-1.9,2.8-2.7,4.2
		c-0.9,1.8-2,3.3-3,5c-0.5,0.9-0.9,1.9-1.3,2.8c-0.9,1.4-1.8,2.8-2.7,4.2c-0.2,0.5-0.6,1.6-0.8,2.1c-1,1.7-2.1,3.3-3.1,5
		c-0.9,1.8-2,3.3-3.1,5c-0.2,0.5-0.6,1.6-0.8,2.1c-1.4,2.3-3.1,4.4-4,7c-0.9,1.7-2.1,3.3-3.1,4.9c-0.2,0.5-0.6,1.6-0.8,2.1
		c-1,1.7-2.1,3.3-3.1,4.9c-0.9,1.8-2,3.3-3.1,5c-0.2,0.5-0.6,1.6-0.8,2.1c-1,1.7-2.1,3.3-3.2,4.9c-0.2,0.5-0.6,1.6-0.8,2.1
		c-1,1.7-2.1,3.3-3.2,4.9c-0.2,0.5-0.6,1.6-0.8,2.1c-1,1.7-2.1,3.3-3.1,5c-0.9,1.8-2,3.3-3.1,5c-0.2,0.5-0.6,1.6-0.9,2.1
		c-1,1.7-2.1,3.3-3.1,4.9c-0.2,0.5-0.6,1.5-0.8,2.1c-1,1.7-2.1,3.3-3.2,4.9c-0.2,0.5-0.6,1.5-0.8,2.1c-1,1.7-2.1,3.3-3.1,5
		c-1,2-2.4,3.8-3.4,5.7c-0.9,2.6-2.7,4.7-4,7c-0.7,1.6-1.5,3.2-2.4,4.7c80.8-0.1,161.5,0,242.2,0c2.2,0.4,3.3-2,4.3-3.6
		c0.2-0.5,0.6-1.6,0.8-2.1c1-1.7,2.1-3.3,3.1-4.9c1-2.5,2.5-4.8,4-7c0.2-0.5,0.6-1.6,0.8-2.1c1-1.7,2.1-3.3,3.1-5c0.8-1.8,2-3.3,3-5
		c1-2.5,2.5-4.8,4-7c1-2.5,2.5-4.8,4.1-7c0.2-0.6,0.6-1.8,0.8-2.4c29.7-0.1,59.4,0.1,88.9-0.1c1.7-1.8,2.8-4.2,4.2-6.3
		c0.8-2.3,2.3-4.2,3.6-6.3c0.9-1.7,2-3.3,3-5c0.4-0.9,0.8-1.9,1.3-2.8c0.8-1.4,1.8-2.8,2.7-4.2c0.2-0.5,0.6-1.6,0.8-2.1
		c1-1.7,2.1-3.3,3.1-5c0.8-1.8,2-3.3,3-5c1-2.5,2.5-4.8,4-7c0.4-0.9,0.8-1.9,1.3-2.8c0.8-1.4,1.8-2.8,2.7-4.2c1-2.5,2.6-4.7,4-7
		c0.8-1.8,2-3.3,3-5c1-2.5,2.5-4.8,4-7c1-2.5,2.5-4.8,4-7c0.4-0.9,0.8-1.9,1.3-2.8c0.8-1.4,1.8-2.8,2.7-4.2c0.8-1.8,2-3.3,3-5
		c0.7-1.7,1.6-3.3,2.6-4.8c-1-1.8-2.2-3.4-3.3-5.2c-0.5-0.9-0.9-1.9-1.3-2.8c-1-1.7-2.2-3.2-3-5c-1.4-2.3-3-4.5-4-7
		c-0.9-1.4-1.8-2.8-2.7-4.2c-1-2.5-2.5-4.8-4-7c-1.1-2.8-3-5.2-4.4-7.8c-0.8-1.4-1.8-2.8-2.6-4.2c-1.2-3.3-3.7-5.8-4.9-9
		c-1-1.7-2.1-3.3-3-5c-1.3-2.4-3-4.5-4-7c-0.9-1.7-2.1-3.3-3.1-4.9c-0.2-0.5-0.6-1.6-0.8-2.1c-1.4-2.3-3.1-4.5-4-7
		c-1.1-2-2.4-3.8-3.5-5.8c-0.8-1.4-1.8-2.8-2.6-4.2c-1.1-2.5-2.5-4.8-4-7c-0.2-0.5-0.6-1.6-0.8-2.1c-1-1.7-2.1-3.3-3.1-5
		c-1.1-2.5-2.6-4.7-4-7c-1.1-2-2.4-3.8-3.5-5.8c-0.9-2.2-2.3-4.2-3.6-6.2c-0.2-0.5-0.6-1.6-0.8-2.1c-1-1.7-2.1-3.3-3.1-5
		c-1.3-2.1-2.4-4.5-4.1-6.3c-2.9-0.3-5.7-0.1-8.6-0.1C1683.3,855.6,1575.2,855.5,1467.2,855.6z"/>
</g>
<g id="_x23_ae0b17ff">
	<path class="st1" d="M651.8,763.1h601.7c2.2,1.5,3.2,4.1,4.3,6.4c1,1.6,2.1,3.3,3,4.9c1,2.2,2.3,4.2,3.6,6.3
		c1.1,1.9,2.3,3.8,3.5,5.8c0.2,0.5,0.6,1.6,0.9,2.1c0.9,1.4,1.8,2.7,2.6,4.1c1.4,3.2,3.5,6,5,9.1c0.9,1.7,2,3.3,3,5
		c1.1,1.9,2.3,3.8,3.4,5.8c1.5,3.1,3.5,5.9,5,9c1,1.7,2.1,3.3,3.1,5c0.2,0.5,0.7,1.6,0.9,2.1c0.9,1.4,1.8,2.8,2.6,4.2
		c0.9,1.7,2,3.3,3,5c0.4,0.9,0.9,1.9,1.4,2.9c0.9,1.4,1.8,2.7,2.6,4.1c0.4,1,0.9,1.9,1.4,2.9c1,1.6,2.1,3.3,3.1,4.9
		c0.4,0.9,0.9,1.8,1.4,2.7c-165.1-0.1-330.3,0-495.4-0.1c0.9,1.2,1.8,2.3,2.6,3.5c0.4,1,0.8,2,1.3,2.9c0.9,1.4,1.8,2.7,2.7,4.1
		c0.2,0.5,0.6,1.6,0.9,2.1c1.5,2.3,2.9,4.6,4.1,7c0.9,1.7,2,3.3,3,5c1.4,2.3,2.8,4.6,4,7c1.4,2.3,2.8,4.6,4,7c1.1,2,2.4,3.9,3.7,5.8
		c0,0.5,0,1.6,0,2.1c-1.1,1.7-2.2,3.3-3.3,5.1c-1,1.7-2,3.3-3,5c-1.3,2.7-2.9,5.2-4.4,7.8c-1,2.2-2.3,4.2-3.6,6.2
		c-0.5,0.9-0.9,1.9-1.4,2.9c-0.9,1.4-1.8,2.7-2.6,4.1c-1,1.7-2,3.3-3,5c-0.5,0.9-0.9,1.9-1.4,2.9c-1.2,1.9-2.4,3.7-3.6,5.6
		c86.1,0,172.2,0,258.3,0c3.1-0.3,3.4,3.5,4.7,5.4c1.5,2.2,2.9,4.6,4,7c0.8,1.4,1.7,2.8,2.5,4.2c1,1.7,2,3.3,3.1,5
		c0.4,1,0.9,1.9,1.4,2.9c0.8,1.4,1.8,2.7,2.6,4.1c0.4,1,0.9,2,1.4,2.9c0.9,1.4,1.8,2.7,2.6,4.1c0.4,1,0.9,2,1.4,2.9
		c0.9,1.4,1.8,2.7,2.7,4.1c0.5,1.1,1.1,2.3,1.6,3.5c-0.4,1.2-1,2.3-1.6,3.4c-1.4,2-2.7,4-3.7,6.2c-1.5,2.6-3.2,5.1-4.4,7.8
		c-0.9,1.4-1.8,2.7-2.6,4.1c-0.5,1-0.9,1.9-1.4,2.9c-1,1.6-2.1,3.3-3,5c-0.9,1.4-1.8,2.8-2.6,4.2c-0.2,0.5-0.7,1.6-0.9,2.1
		c-1,1.7-2.1,3.3-3.2,4.9c-0.2,0.5-0.6,1.6-0.8,2.1c-0.9,1.4-1.7,3.8-3.8,3.3c-86.8,0-173.6-0.1-260.4,0.1c1.1,2.6,2.6,5,4.2,7.3
		c0.2,0.5,0.6,1.6,0.9,2.1c0.9,1.4,1.8,2.7,2.7,4.1c0.4,1,0.9,1.9,1.3,2.9c0.9,1.4,1.8,2.8,2.6,4.2c0.9,1.7,2,3.3,3,4.9
		c0.5,1,0.9,1.9,1.4,2.9c0.9,1.4,1.8,2.7,2.7,4.1c0.4,1,0.9,1.9,1.3,2.9c0.9,1.4,1.8,2.7,2.6,4.1c1.1,2.4,2.5,4.8,4,7.1
		c8.1,14,16.3,27.9,24.2,42c0.6,0.8,1.2,1.7,1.9,2.5c148.3-0.2,296.6,0.1,444.9-0.1c-16.4,28.5-32.9,57-49.4,85.5
		c-1.3,2.3-2.2,4.9-4.4,6.5H808.4c-3.2-3.8-5.3-8.4-7.8-12.6c-22.1-38.3-44.2-76.5-66.3-114.8c-1.4-2.3-2.8-4.6-4-7
		c-0.8-1.4-1.7-2.8-2.6-4.1c-1.6-3.4-3.8-6.5-5.4-9.9c-1.9-3.1-3.7-6.1-5.6-9.1c-0.5-1-0.9-1.9-1.4-2.9c-1.5-2.2-2.9-4.5-4-7
		c-1-1.7-2.1-3.3-3-5c-0.8-1.4-1.7-2.8-2.6-4.1c-0.5-1-0.9-1.9-1.4-2.9c-0.9-1.4-1.8-2.7-2.7-4.1c-0.5-1-0.9-2-1.4-2.9
		c-0.9-1.4-1.8-2.7-2.6-4.1c-1.2-2.4-2.5-4.7-4-7c-1-1.7-2-3.3-3.1-5c-0.5-1-0.9-1.9-1.3-2.9c-0.9-1.4-1.8-2.8-2.7-4.1
		c-0.5-1-0.9-1.9-1.3-2.9c-1-1.7-2.1-3.3-3.1-4.9c-0.2-0.5-0.7-1.6-0.9-2.1c-0.9-1.4-1.8-2.7-2.6-4.1c-0.6-1.1-1.3-2.1-1.9-3.2
		c0.8-1.3,1.7-2.5,2.5-3.8c0.4-1,0.9-2,1.3-2.9c0.9-1.4,1.8-2.7,2.7-4.1c0.4-1,0.9-1.9,1.3-2.9c0.9-1.4,1.8-2.7,2.7-4.1
		c0.4-1,0.9-1.9,1.3-2.9c1-1.7,2.1-3.3,3.1-5s2-3.3,3-5c1-2.2,2.3-4.2,3.6-6.2c0.5-1,0.9-2,1.4-2.9c0.8-1.4,1.8-2.7,2.6-4.1
		c1.3-2.7,2.9-5.3,4.4-7.9c0.8-1.4,1.7-2.8,2.6-4.1c0.5-1,0.9-1.9,1.4-2.9c0.9-1.4,1.8-2.7,2.6-4.1c0.4-1,0.9-2,1.4-2.9
		c1-1.6,2.1-3.3,3.1-4.9c0.2-0.5,0.7-1.6,0.9-2.1c0.9-1.4,1.8-2.8,2.6-4.1c0.9-1.7,2-3.3,3-5c0.5-1,0.9-1.9,1.4-2.9
		c0.9-1.4,1.8-2.7,2.6-4.1c0.9-1.8,1.8-3.5,2.8-5.2c-1-1.5-2-3.1-2.9-4.7c-0.2-0.5-0.7-1.6-0.9-2.1c-1.1-1.7-2.1-3.3-3.1-5
		c-0.8-1.4-1.7-2.8-2.6-4.2c-0.5-1-0.9-1.9-1.4-2.9c-0.9-1.4-1.8-2.7-2.6-4.1c-0.5-1-0.9-1.9-1.4-2.9c-1-1.7-2.1-3.3-3-5
		c-1.4-2.3-2.8-4.6-4-7.1c-0.9-1.4-1.8-2.8-2.6-4.1c-0.5-1-0.9-1.9-1.4-2.9c-1-1.6-2.1-3.3-3-4.9c-1.2-2.4-2.6-4.7-4-7
		c-1.3-2-2.5-4.1-3.5-6.2c-1.4-2.3-2.8-4.6-4-7c-1.1-1.9-2.3-3.8-3.5-5.7c-0.2-0.5-0.7-1.5-0.9-2.1c-0.9-1.4-1.8-2.8-2.6-4.2
		c-1.4-2.3-2.8-4.6-4-7c-1.6-2.5-3.2-5.1-4.4-7.8c-0.8-1.4-1.7-2.8-2.5-4.2c-1-1.7-2-3.3-3-5c-0.5-1-0.9-1.9-1.4-2.9
		c-1.3-2-2.6-4-3.6-6.2c-1.6-2.6-3.2-5.1-4.4-7.8c-0.8-1.4-1.7-2.8-2.5-4.2c-1.1-1.9-2.3-3.8-3.4-5.8
		C653.6,766.1,652.8,764.6,651.8,763.1z"/>
</g>
</svg>
