<?xml version="1.0" encoding="utf-8"?>
<!-- Generator: Adobe Illustrator 21.0.0, SVG Export Plug-In . SVG Version: 6.00 Build 0)  -->
<svg version="1.1" id="Layer_1" xmlns="http://www.w3.org/2000/svg" xmlns:xlink="http://www.w3.org/1999/xlink" x="0px" y="0px"
	 viewBox="0 0 298.806 487.552" style="enable-background:new 0 0 298.806 487.552;" xml:space="preserve">
<style type="text/css">
	.st0{fill:#FFFFFF;}
	.st1{fill:#94959A;}
	.st2{fill:#010101;}
	.st3{fill:#CE161D;}
</style>
<g id="_x23_ffffffff">
	<path class="st0" d="M0.08,88.83C49.85,59.25,99.47,29.44,149.32,0c17.81,9.97,35.04,20.97,52.62,31.35
		c32.22,19.56,64.49,39.03,96.74,58.54c0.24,84.65,0,169.31,0.12,253.97c0.07,4.29-0.5,8.58-1.54,12.74
		c-5.19,19.43-16.25,36.73-29.33,51.79c-21.39,24.52-48.4,43.46-76.63,59.32c-4.56,2.77-9.28,5.27-14.31,7.07
		c-6.9,4.75-14.83,7.62-22.3,11.34c-2.6,1.39-5.74,1.94-8.55,0.87c-26.38-11.74-51.86-25.66-75.31-42.55
		c-13.38-10.12-26.46-20.82-37.56-33.45c-13.4-14.57-24.49-31.59-30.63-50.5c-1.59-5.06-2.65-10.32-2.64-15.64
		C0.09,259.51-0.06,174.17,0.08,88.83 M149.53,4.59c-0.37,19.75-0.06,39.51-0.16,59.27c-0.13,10.21,0.34,20.43-0.39,30.62
		c-23.17,15.82-46.4,31.57-69.54,47.44c-1.25,0.79-2.58,1.59-4.09,1.68c-5.26,0.39-10.53,0.03-15.79,0.07
		c-0.13-4.75-0.82-9.67,0.47-14.31c2.86-4.02,6.76-7.17,10.06-10.82c15.31-16.34,30.85-32.47,46.15-48.83
		c3.66-3.95,7.97-7.4,10.63-12.17c-4.7,1.91-8.67,5.13-12.87,7.9c-25.09,16.91-50.12,33.9-75.18,50.84
		c-6.57,4.51-13.36,8.71-19.72,13.52c-0.13,11.04-0.11,22.08-0.06,33.12c-0.34,2.61,2.15,4.02,3.94,5.35
		c11.68,7.76,23.14,15.84,34.81,23.61c-0.31,12.68-1.44,25.35-1.86,38.04c-0.09,4.81-1.04,9.62-0.25,14.42
		c-16.56,24.69-33.01,49.45-49.65,74.09c-1.02,1.63-2.11,3.37-2.05,5.38c-0.16,7.01,0.04,14.03-0.07,21.05
		c-0.19,9.9,3.56,19.3,7.5,28.2c11.06,22.51,28.35,41.34,47.45,57.32c27.25,22.39,58.28,39.81,90.53,53.88
		c17.6-7.65,34.73-16.39,51.2-26.22c27.58-16.71,53.72-36.82,73.2-62.78c8.79-12.02,16.35-25.27,19.93-39.84
		c1.84-7.39,0.93-15.04,1.14-22.56c-0.11-3.91,0.42-7.91-0.4-11.76c0.67-14.4,0.13-28.83,0.3-43.24c-0.01-58,0-116,0-174
		c-0.04-4,0.27-8-0.12-11.99c0.02-1.71-1.73-2.5-2.9-3.37c-43.61-25.68-87.11-51.55-130.64-77.35
		C157.31,8.84,153.51,6.54,149.53,4.59z"/>
	<path class="st0" d="M115.77,233.9c7.35-2.78,14.38-6.36,21.69-9.29l0.05,0.65c0.64,15.51,0.36,31.08,0.09,46.61
		c-7.42,2.9-16.58,2.61-22.23,8.96c-5.31,4.61-9.7,10.43-15.76,14.08c-6.34-6.46-11.55-13.94-17.62-20.65
		c-3.59-3.87-9.16-4.5-13.83-6.45c4.73-8.8,10.65-16.89,15.67-25.52c1.36-1.81,2.31-4.53,4.8-4.96
		C97.59,235.64,106.88,236.05,115.77,233.9z"/>
	<path class="st0" d="M137.76,294.32c4.24-0.57,8.55-0.14,12.82-0.25c0.08,4.29,0.07,8.59-0.02,12.88
		c-3.03,0.06-6.06,0.09-9.09,0.09c-2.71,4.42-4.72,9.23-7.26,13.74c-0.88,1.78-2.85,2.46-4.54,3.22c-4.35,1.78-8.73,3.48-13.19,4.95
		c-0.06-4.83-1.05-9.94,0.49-14.58c3.45-4.18,7.75-7.55,11.5-11.43C131.59,300.1,134.21,296.65,137.76,294.32z"/>
</g>
<g id="_x23_94959aff">
	<path class="st1" d="M149.53,4.59c3.98,1.95,7.78,4.25,11.57,6.56c43.53,25.8,87.03,51.67,130.64,77.35
		c1.17,0.87,2.92,1.66,2.9,3.37c0.39,3.99,0.08,7.99,0.12,11.99c0,58-0.01,116,0,174c-0.17,14.41,0.37,28.84-0.3,43.24
		c-17.21-25.54-34.4-51.1-51.31-76.83c0.78-17.5-2.51-34.86-2.07-52.35c8.9-6.26,18.02-12.21,26.94-18.44
		c3.69-2.65,7.98-4.64,11-8.1c1.56-4.99,0.51-10.37,0.72-15.52c-0.29-6.56,0.79-13.23-0.53-19.7c-2.95-3.86-7.62-5.84-11.49-8.63
		c-28.12-19.23-56.34-38.31-84.49-57.5c-4.14-2.88-8.31-5.74-12.7-8.24c5.05,6.84,11.31,12.64,17.12,18.81
		c14.49,15.51,29.11,30.9,43.55,46.45c2.65,2.93,6.1,5.38,7.69,9.1c1.11,4.4,0.55,9,0.44,13.48c-4.98,0.15-9.98,0.69-14.94,0.08
		c-3.77-0.45-6.78-2.96-9.83-5c-15.42-10.6-30.91-21.11-46.37-31.65c-6.39-4.2-12.39-9.04-19.21-12.58
		c0.73-10.19,0.26-20.41,0.39-30.62C149.47,44.1,149.16,24.34,149.53,4.59z"/>
	<path class="st1" d="M160.925,225.913c-0.41-1.93-0.375-1.813,0.125-1.933c6.39,2.67,15.01,7.23,21.5,9.65
		c9.25,2.54,19.04,1.84,28.37,3.91c2.53,1.35,3.65,4.32,5.23,6.59c4.64,8.03,10.17,15.5,14.54,23.69
		c-5.13,2.01-11.23,2.89-14.82,7.51c-5.55,6.66-11,13.41-16.72,19.93c-4.92-3.75-9.27-8.16-13.68-12.48
		c-2.75-2.62-5.54-5.48-9.27-6.62c-4.97-1.58-10.07-2.66-15.02-4.29c-0.06-2.62-0.12-5.24-0.14-7.86
		C161.33,251.31,159.935,238.573,160.925,225.913z"/>
	<path class="st1" d="M150.58,294.07c4.42,0.04,8.97-0.61,13.31,0.45c3.3,2.24,5.79,5.44,8.71,8.14c3.88,4.18,8.74,7.53,11.89,12.33
		c0.82,4.59,0.25,9.28,0.06,13.9c-5.52-2.09-11.35-3.67-16.38-6.8c-3.52-4.43-5.32-9.97-8.09-14.87c-3.17-0.12-6.35-0.21-9.52-0.27
		C150.65,302.66,150.66,298.36,150.58,294.07z"/>
</g>
<g id="_x23_010101ff">
	<path class="st2" d="M161.37,199.17c17.2,0.08,34.4-0.14,51.59,0.11c4.71,7.56,9.66,14.98,14.73,22.32
		c5.28,7.47,9.81,15.45,15.46,22.67c16.91,25.73,34.1,51.29,51.31,76.83c0.82,3.85,0.29,7.85,0.4,11.76
		c-0.21,7.52,0.7,15.17-1.14,22.56c-3.58,14.57-11.14,27.82-19.93,39.84c-19.48,25.96-45.62,46.07-73.2,62.78
		c-16.47,9.83-33.6,18.57-51.2,26.22c-32.25-14.07-63.28-31.49-90.53-53.88c-19.1-15.98-36.39-34.81-47.45-57.32
		c-3.94-8.9-7.69-18.3-7.5-28.2c0.11-7.02-0.09-14.04,0.07-21.05c-0.06-2.01,1.03-3.75,2.05-5.38
		c16.64-24.64,33.09-49.4,49.65-74.09c2.51-3.26,4.99-6.55,7.21-10.01c6.37-9.92,13.16-19.56,19.49-29.5
		c1.56-2.1,3.06-5.02,6.01-5.18c5.65-0.56,11.34-0.04,17.01-0.15c10.59,0.1,21.19-0.32,31.77,0.22c0.31,8.29-0.38,16.61,0.29,24.89
		c-7.31,2.93-14.34,6.51-21.69,9.29c-8.89,2.15-18.18,1.74-27.14,3.43c-2.49,0.43-3.44,3.15-4.8,4.96
		c-5.02,8.63-10.94,16.72-15.67,25.52c4.67,1.95,10.24,2.58,13.83,6.45c6.07,6.71,11.28,14.19,17.62,20.65
		c6.06-3.65,10.45-9.47,15.76-14.08c5.65-6.35,14.81-6.06,22.23-8.96c0.27-15.53,0.55-31.1-0.09-46.61
		c1.24,12.91-0.06,25.9,0.68,38.85c7.61,0.34,15.24,0.24,22.85-0.1c0.02,2.62,0.08,5.24,0.14,7.86c4.95,1.63,10.05,2.71,15.02,4.29
		c3.73,1.14,6.52,4,9.27,6.62c4.41,4.32,8.76,8.73,13.68,12.48c5.72-6.52,11.17-13.27,16.72-19.93c3.59-4.62,9.69-5.5,14.82-7.51
		c-4.37-8.19-9.9-15.66-14.54-23.69c-1.58-2.27-2.7-5.24-5.23-6.59c-9.33-2.07-19.12-1.37-28.37-3.91
		c-6.49-2.42-12.7-5.54-19.09-8.21c-0.82-0.47-1.62-0.95-2.41-1.44C161.09,215.71,160.79,207.43,161.37,199.17 M137.76,294.32
		c-3.55,2.33-6.17,5.78-9.29,8.62c-3.75,3.88-8.05,7.25-11.5,11.43c-1.54,4.64-0.55,9.75-0.49,14.58c4.46-1.47,8.84-3.17,13.19-4.95
		c1.69-0.76,3.66-1.44,4.54-3.22c2.54-4.51,4.55-9.32,7.26-13.74c3.03,0,6.06-0.03,9.09-0.09c3.17,0.06,6.35,0.15,9.52,0.27
		c2.77,4.9,4.57,10.44,8.09,14.87c5.03,3.13,10.86,4.71,16.38,6.8c0.19-4.62,0.76-9.31-0.06-13.9c-3.15-4.8-8.01-8.15-11.89-12.33
		c-2.92-2.7-5.41-5.9-8.71-8.14c-4.34-1.06-8.89-0.41-13.31-0.45C146.31,294.18,142,293.75,137.76,294.32z"/>
</g>
<g id="_x23_ce161dff">
	<path class="st3" d="M170.53,55.79c4.39,2.5,8.56,5.36,12.7,8.24c28.15,19.19,56.37,38.27,84.49,57.5
		c3.87,2.79,8.54,4.77,11.49,8.63c1.32,6.47,0.24,13.14,0.53,19.7c-0.21,5.15,0.84,10.53-0.72,15.52c-3.02,3.46-7.31,5.45-11,8.1
		c-8.92,6.23-18.04,12.18-26.94,18.44c-0.44,17.49,2.85,34.85,2.07,52.35c-5.65-7.22-10.18-15.2-15.46-22.67
		c-5.07-7.34-10.02-14.76-14.73-22.32c-17.19-0.25-34.39-0.03-51.59-0.11c-0.58,8.26-0.28,16.54-0.32,24.81
		c0.077,1.945,0,0,0.077,1.945c-0.072,12.642,0.203,25.385-0.087,38.085c-7.61,0.34-15.702,0.65-23.312,0.31
		c-0.74-12.95,0,0-0.218-39.06l-0.05-0.65c-0.67-8.28,0.02-16.6-0.29-24.89c-10.58-0.54-21.18-0.12-31.77-0.22
		c-5.67,0.11-11.36-0.41-17.01,0.15c-2.95,0.16-4.45,3.08-6.01,5.18c-6.33,9.94-13.12,19.58-19.49,29.5
		c-2.22,3.46-4.7,6.75-7.21,10.01c-0.79-4.8,0.16-9.61,0.25-14.42c0.42-12.69,1.55-25.36,1.86-38.04
		c-11.67-7.77-23.13-15.85-34.81-23.61c-1.79-1.33-4.28-2.74-3.94-5.35c-0.05-11.04-0.07-22.08,0.06-33.12
		c6.36-4.81,13.15-9.01,19.72-13.52C63.88,99.34,88.91,82.35,114,65.44c4.2-2.77,8.17-5.99,12.87-7.9
		c-2.66,4.77-6.97,8.22-10.63,12.17c-15.3,16.36-30.84,32.49-46.15,48.83c-3.3,3.65-7.2,6.8-10.06,10.82
		c-1.29,4.64-0.6,9.56-0.47,14.31c5.26-0.04,10.53,0.32,15.79-0.07c1.51-0.09,2.84-0.89,4.09-1.68
		c23.14-15.87,46.37-31.62,69.54-47.44c6.82,3.54,12.82,8.38,19.21,12.58c15.46,10.54,30.95,21.05,46.37,31.65
		c3.05,2.04,6.06,4.55,9.83,5c4.96,0.61,9.96,0.07,14.94-0.08c0.11-4.48,0.67-9.08-0.44-13.48c-1.59-3.72-5.04-6.17-7.69-9.1
		c-14.44-15.55-29.06-30.94-43.55-46.45C181.84,68.43,175.58,62.63,170.53,55.79z"/>
</g>
</svg>
