<?xml version="1.0" encoding="utf-8"?>
<!-- Generator: Adobe Illustrator 21.0.0, SVG Export Plug-In . SVG Version: 6.00 Build 0)  -->
<svg version="1.1" id="Layer_1" xmlns="http://www.w3.org/2000/svg" xmlns:xlink="http://www.w3.org/1999/xlink" x="0px" y="0px"
	 viewBox="0 0 600 285" style="enable-background:new 0 0 600 285;" xml:space="preserve">
<style type="text/css">
	.st0{fill:#414142;stroke:#414142;stroke-width:9.375000e-02;}
	.st1{fill:#BCBEC0;stroke:#BCBEC0;stroke-width:9.375000e-02;}
	.st2{fill:#FFFFFF;stroke:#FFFFFF;stroke-width:9.375000e-02;}
</style>
<path class="st0" d="M171.8,0h427.7c-9.3,7.3-19.2,13.8-28.8,20.7c-42,29.7-84,59.5-126,89.2c22,0,44,0,66,0
	c-21.3,44.3-42.6,88.6-64,132.8c-6.3,12.3-12.6,25.5-24.3,33.6c-12.2,8.1-27.4,8.2-41.5,8.6H0l0,0C38.3,205.3,76.7,125.6,115,46
	c5-10,9.5-20.5,16.7-29.2c5.7-7,13.6-12.1,22.3-14.3C159.8,0.8,165.9,0.5,171.8,0 M160.8,24.6c-5.2,1.1-9.6,4.4-12.6,8.7
	c-4.9,6.8-8.2,14.5-11.9,22C103.2,124,70,192.7,37.1,261.5c52.8,0,105.5,0,158.3,0c7.4-15.4,14.8-30.7,22.1-46.1l0.3,0
	c1.2-2.5,2.4-4.9,3.5-7.4c-29.1,0.1-58.2-0.2-87.3,0.1c21-43.8,42.1-87.4,63.1-131.2c29,0,58,0,87,0c8.6-17.5,16.9-35.2,25.4-52.7
	c0.1-0.3,0.3-0.9,0.4-1.2c-39.7-0.1-79.3,0-119,0C180.9,23.2,170.7,22.6,160.8,24.6 M334.9,23c-0.9,1.7-1.8,3.5-2.6,5.2
	c-37.3,77.8-74.9,155.4-112.2,233.3c55.3-0.1,110.6,0.1,165.9-0.1c8.8-0.3,19-0.1,25.9-6.5c6.7-6.6,10.2-15.5,14.4-23.7
	c15.8-32.6,31.4-65.3,47.2-97.9c-4.2-0.5-8.3-0.3-12.5-0.3c-27,0-54,0-81,0c-7.8,15.7-15.2,31.6-22.9,47.3c-1,2-1.9,4-2.6,6.1
	c-0.2,0.1-0.6,0.3-0.8,0.4c7.5,0.1,15.1,0.2,22.6,0c-3.3,7.1-6.7,14.2-10.2,21.2c-16.4,0-32.7-0.2-49.1,0.1
	c21-43.8,42.1-87.4,63.1-131.2c16.4-0.1,32.7,0.1,49.1-0.1c-3.5,7.7-7.5,15.1-10.8,22.8c1-0.6,2-1.2,2.9-1.8l0.1-0.3
	c34.6-24.6,70.2-49.5,104.7-74.3c0,0-5.4-0.1-8.2-0.3C457,23.1,396,23.1,334.9,23z"/>
<path class="st1" d="M160.8,24.6c9.9-2,20.1-1.4,30.2-1.5c39.7,0,79.3,0,119,0c-0.1,0.3-0.3,0.9-0.4,1.2c-6.4,0.3-12.3,3.3-18.4,4.9
	c-6.1,2.4-12.7,1.6-19.1,1.7c-29.7,0-59.3-0.1-89,0c-8,0.3-17.1,0.1-23.4,5.7c-6.1,5.6-9.4,13.6-13.1,20.8c-30.4,63-60.7,126-91,189
	c-1.2,2.4-3.4,4-5.5,5.5c-4.3,3.1-8.5,6.5-12.9,9.6C70,192.7,103.2,124,136.3,55.3c3.7-7.5,7-15.2,11.9-22
	C151.2,29,155.6,25.7,160.8,24.6z"/>
<path class="st1" d="M334.9,23c61,0.1,122,0,183,0c2.8,0.1,0,0,8.2,0.3c0,0-19.5,5-28.9,7c-5,0.9-10.2,0.5-15.2,0.5
	c-46.6,0.1-93.2-0.1-139.8,0.1c-34.7,72.1-69.4,144.2-104.1,216.4c-1.1,2.4-3.4,3.9-5.5,5.4c-4.2,2.9-8.2,6.1-12.5,8.9
	c37.2-77.8,74.8-155.5,112.2-233.3C333.1,26.5,334,24.8,334.9,23z"/>
<path class="st2" d="M291.1,29.2c6.1-1.6,12-4.6,18.4-4.9C301,41.9,292.7,59.5,284.1,77c-29-0.1-58,0-87,0
	c-21,43.7-42.1,87.4-63.1,131.2c-4.5,2.1-8.9,4.5-13.2,7.1c32.2,0.5,64.5,0,96.7,0.3c-7.4,15.4-14.8,30.7-22.1,46.1
	c-52.8,0-105.5,0-158.3,0c4.4-3.1,8.6-6.4,12.9-9.6c2.1-1.6,4.4-3.1,5.5-5.5c30.3-63,60.6-126,91-189c3.7-7.3,7-15.2,13.1-20.8
	c6.4-5.6,15.4-5.4,23.4-5.7c29.7-0.1,59.4,0,89,0C278.4,30.8,285,31.6,291.1,29.2z"/>
<path class="st2" d="M497.3,30.3c9.4-2,19.5-5.4,28.9-7c-34.5,24.8-70.1,49.7-104.7,74.3c0.1-0.4,0.2-1.1,0.3-1.4
	c7.7-9.5,16.3-18.3,23.9-27.8c-5.6,2.5-10.8,6-16.4,8.5c-16.4,0.2-32.7,0-49.1,0.1c-21,43.7-42.1,87.4-63.1,131.2
	c-4.2,2.1-8.2,4.4-12.1,7.1c23,0.4,45.9,0.1,68.9,0.1c6.3-12.8,12.8-25.4,18.9-38.3c-5.7,3-10.8,7-16.5,9.8
	c-7.5,0.1-15.1,0.1-22.6,0c0.2-0.1,0.6-0.3,0.8-0.4c4.7-2.5,9.1-5.5,13.5-8.4c1.9-1.1,3-3.1,3.9-5.1c5-10.7,10.3-21.3,15.3-32
	c22.6-0.4,45.2,0.1,67.8-0.2c6.5-1.3,12.3-5,18.5-7.4c-15.8,32.6-31.4,65.3-47.2,97.9c-4.2,8.2-7.8,17.1-14.4,23.7
	c-6.9,6.4-17,6.3-25.9,6.5c-55.3,0.2-110.6,0-165.9,0.1c4.3-2.8,8.3-6,12.5-8.9c2.1-1.5,4.4-3,5.5-5.4
	c34.7-72.1,69.4-144.2,104.1-216.4c46.6-0.2,93.2,0,139.8-0.1C487.1,30.8,492.3,31.3,497.3,30.3z"/>
<path class="st1" d="M429.3,76.9c5.7-2.5,10.8-6,16.4-8.5c-7.6,9.6-16.2,18.3-23.9,27.8c-0.1,0.3-0.2,1.1-0.3,1.4l-0.1,0.3
	c-1,0.6-2,1.2-2.9,1.8C421.8,92,425.8,84.6,429.3,76.9z"/>
<path class="st1" d="M380,133c27,0.1,54,0,81,0c4.2,0,8.3-0.2,12.5,0.3c-6.2,2.4-12,6.1-18.5,7.4c-22.6,0.3-45.2-0.2-67.8,0.2
	c-5,10.7-10.3,21.3-15.3,32c-0.9,2-2,3.9-3.9,5.1c-4.4,2.9-8.8,5.9-13.5,8.4c0.7-2.1,1.6-4.1,2.6-6.1
	C364.8,164.6,372.2,148.7,380,133z"/>
<path class="st1" d="M376.3,186.9c5.7-2.9,10.8-6.8,16.5-9.8c-6.1,12.9-12.6,25.5-18.9,38.3c-23,0-46,0.3-68.9-0.1
	c3.8-2.6,7.9-5,12.1-7.1c16.3-0.4,32.7-0.1,49.1-0.1C369.6,201,373,194,376.3,186.9z"/>
<path class="st1" d="M120.8,215.2c4.3-2.6,8.7-5,13.2-7.1c29.1-0.4,58.2-0.1,87.3-0.1c-1.1,2.5-2.3,5-3.5,7.4l-0.3,0
	C185.3,215.2,153.1,215.7,120.8,215.2z"/>
</svg>
