<?xml version="1.0" encoding="utf-8"?>
<!-- Generator: Adobe Illustrator 21.0.0, SVG Export Plug-In . SVG Version: 6.00 Build 0)  -->
<svg version="1.1" id="Layer_1" xmlns="http://www.w3.org/2000/svg" xmlns:xlink="http://www.w3.org/1999/xlink" x="0px" y="0px"
	 viewBox="0 0 499.6 338.6" style="enable-background:new 0 0 499.6 338.6;" xml:space="preserve">
<style type="text/css">
	.st0{fill:#8811FD;stroke:#8811FD;stroke-width:9.375000e-02;}
	.st1{fill:#010101;stroke:#010101;stroke-width:9.375000e-02;}
	.st2{fill:#FFFFFF;stroke:#FFFFFF;stroke-width:9.375000e-02;}
</style>
<path class="st0" d="M200,1c9.7-1.3,19.4-1.3,29.1,0c18.8,1.6,37.4,6.4,54.6,14.1c28.8,12.6,53.5,33.7,71.1,59.7
	C370.4,59.4,386.3,44.3,402,29c-3.9,5.3-8.6,9.9-12.9,14.8c-21.5,24.3-43.2,48.3-64.7,72.6c55.5-0.2,111.1,0,166.6-0.1
	c2.5-0.1,5,0.5,7.4,1c1.5,3.3,1.4,7,0.4,10.5c-7.7,31.1-15.5,62.2-23.2,93.3c-2,8-3.6,16.1-6.3,23.8c-2.3,0.8-4.7,1.4-7.2,1.4
	c-32.7,0-65.4,0-98,0c-2.5,0.1-5-0.5-7.4-1.2c-1.8-4.5-0.9-9.5,0-14.1c-1.5-0.2-3.1-0.5-4.6-0.5c-41.3,0.1-82.7,0-124,0.1
	c-2.3-0.3-3.3,2-4.5,3.5c-7.7,10.6-15.7,21.1-23.4,31.7c-6,9.4-11.7,18.9-17.5,28.4c-15.8,0.2-31.6,0.1-47.5,0.7
	c21-21.7,42.6-42.6,63.6-64.3c-28.9,0-57.8,0-86.8,0c-2.8-0.3-4.3,2.4-6.1,4c-33.2,33.1-98,97.2-105.8,104v-0.5
	c5.2-3.6,8.7-9,13.1-13.4c18.7-20.3,37.2-40.7,55.6-61.3c0.9-1.6,3.9-3,2.9-5.2c-4.9-8.1-9.4-16.5-12.9-25.4
	c-14.3-34.8-16.4-74.4-5.9-110.5c9-31.8,27.7-60.7,53-81.9C132.1,18,165.5,3.9,200,1 M173.6,27.2c-28.6,8.3-54.6,25.6-73.4,48.7
	c-21.7,26.4-33.6,60.7-33,94.9c0.1,23.5,6.2,46.9,17.2,67.6c0.7,1.4,1.6,2.6,2.9,3.4c5.4-5.9,10.9-11.7,16.1-17.6
	c6.8-31.2,14-62.4,21-93.6c1.2-4.4,1.5-9,3.6-13c2-0.6,4-1.3,6.1-1.2c19.4-0.1,38.8,0.1,58.2-0.1c8.5-14.2,17.4-28.1,25.9-42.2
	c16.3-0.1,32.5,0.1,48.8,0.1c-12.3,12.5-24.9,24.8-37.4,37.3c-1.6,1.6-3.5,3-4.6,5c29.1-0.1,58.2,0.1,87.4-0.1
	c8.8-9.2,17.9-18.2,26.5-27.5c-6.5-9.6-13.8-18.8-22.3-26.7c-23.4-22.4-54.4-36.6-86.6-39.9C211.2,20,191.9,21.9,173.6,27.2
	 M132.1,121.9c-0.7,1.8-1.3,3.7-1.7,5.6c-6.3,28.4-12.9,56.8-19.2,85.2c-1.1,4.1-2.1,8.3-2.1,12.6c84.1,0,168.3,0,252.4,0
	c0.2,0.3,0.5,0.8,0.7,1c-0.6,5-1.6,9.9-1.9,14.9c34.9,0,69.9,0.1,104.8-0.1c6.7-27.1,13.4-54.2,20.1-81.3c2.6-13,6.7-25.6,9.5-38.6
	c-20.8,0.6-15.6,0.5-20.8,0.6C360.1,121.9,246.1,121.8,132.1,121.9z"/>
<path class="st1" d="M132.1,121.9c114-0.1,227.9,0,341.9,0c5.2-0.1,0,0,20.8-0.6c-2.7,13-6.8,25.6-9.5,38.6
	c-6.8,27.1-13.4,54.2-20.1,81.3c-34.9,0.2-69.9,0-104.8,0.1c0.3-5,1.4-9.9,1.9-14.9c-0.2-0.2-0.5-0.7-0.7-1c-84.1,0-168.3,0-252.4,0
	c0-4.3,1-8.5,2.1-12.6c6.3-28.4,12.8-56.8,19.2-85.2C130.8,125.6,131.4,123.7,132.1,121.9 M141,130.9c-6.6,27.7-12.8,55.4-19.3,83.1
	c18.8-0.3,37.6,0.2,56.3-0.2c3.5-4.6,4.4-10.7,5.2-16.3c-8.9-1.3-18-1-26.9-2c1.2-4.8,2.3-9.6,3.4-14.4c8.7-0.1,17.4,0,26.2-0.1
	c1.5-5.2,3.4-10.2,5-15.3c0.2-1.7-1.9-1.2-2.9-1.4c-7.9-0.3-15.8-0.7-23.8-1.1c0.5-4.4,1.4-8.6,2.6-12.9c9.2-0.1,18.4,0.2,27.6,0.1
	c1.3-6.6,2.9-13.1,4.6-19.5C179.7,130.9,160.3,131.1,141,130.9 M358.4,130.8c-6.4,27.7-12.8,55.4-19.1,83.1
	c18.6-0.2,37.2-0.1,55.8,0c4.1-4.4,4.7-11,5.8-16.7c-9-0.8-18.1-1-27.1-1.7c1.3-4.8,2.4-9.6,3.5-14.5c8.6-0.1,17.2,0.2,25.8-0.2
	c2.3-4.7,3.6-10.2,5.4-15.2l-0.2-1.1c-8.8-0.9-17.8-0.9-26.6-1.4c0.7-4.3,1.6-8.5,2.5-12.7c9.2-0.3,18.4,0,27.6,0.1
	c1.7-6.5,3.1-13.1,4.7-19.7C397.2,130.9,377.8,130.7,358.4,130.8 M424.3,130.8c-6.3,27.6-12.7,55.3-19.1,82.9
	c18.3,0.1,36.6,0.1,54.9,0c2,0.2,2.8-2,3.5-3.4c1.5-4.3,2.8-8.7,3.3-13.3c-9-0.7-18-1-27-1.7c1.1-4.8,2.3-9.7,3.4-14.5
	c8.7,0,17.3,0,26,0c1.8-5.2,3.5-10.4,5.2-15.6l-0.3-0.8c-8.7-1-17.6-0.9-26.4-1.5c0.5-4.3,1.6-8.5,2.4-12.7
	c9.2-0.2,18.5,0.1,27.7,0.1c1.6-6.6,3.1-13.1,4.6-19.7C463.1,130.9,443.7,130.7,424.3,130.8 M204.5,138.9c3.8,11.3,7.5,22.7,11.4,34
	c0.9,1.3-0.4,2.5-1,3.5c-8.1,10.6-16.2,21.3-24.1,32c-1.1,1.5-1.5,3.2-1.9,5c3.4-0.3,22.9,0,29.3-0.2c4.6-5,8.6-10.5,12.9-15.7
	c2,5,4.1,10,6.4,14.9c6.5,0.1,13.1,0.5,19.6,0.5c1-2.4,2.6-5.1,1.5-7.8c-3.4-10.1-6.8-20.1-10-30.3c7.9-9.6,14.1-20.3,20.8-30.8
	c2.1-3.8,5.5-6.8,6.3-11.2c-9.6-1.1-19.2-0.1-28.8-0.5c-5.5,6-9.5,13.2-14.8,19.4c-3.3-6.1-5.4-12.8-8.3-19.2
	c-6-0.1-11.9,0.1-17.9-0.1C204.9,134.4,203.5,136.6,204.5,138.9 M266,211.1c18,0.1,36,0,54.1,0.1c5.8,0.6,9.6-4.7,12.8-8.7
	c6.8-19.1,10.5-39.1,15-58.8c-0.1-3.9-1.6-9.3-5.8-10.3c-19.8-0.2-39.5,0-59.3-0.1C276.4,159.1,271.2,185.1,266,211.1 M387.6,219.1
	c-0.3,1.5-0.6,3.1-0.9,4.6c2.8-0.1,5.5-0.1,8.3,0.2c-1.2,2-4,0.6-5.8,1.3c-4.1,0.4-5.4,5.1-5.5,8.5c-0.4,2.4,2.6,2.9,4.3,2.8
	c3.2-0.3,6.6,0.1,9.6-1c1.5-5.2,2.5-10.5,3.3-15.8C396.8,218.3,392,219.5,387.6,219.1 M370.2,224.6c-0.6,3.7-2.8,7.6-1.3,11.4
	c3.6-0.1,7.6,0.8,11.1-0.4c1.3-2.9,2.1-6.3,3.7-9.2c-2.3-0.1-4.7-0.1-7-0.1c-1.3,2.1,0.9,5.3-2.3,6.1c-0.1-3.4,0.6-7.1,2.5-10
	c0.4,0.5,1.1,1.6,1.5,2.1c1.5,0,3.1,0,4.6,0c0.1-1.6,1.7-4,0-5.1c-3.4-0.1-6.7-0.1-10.1,0C370.7,220,370.8,222.8,370.2,224.6
	 M403,219.9c-1.1,5.1-2.1,10.3-3.3,15.4c1.4,0.1,2.7,0.1,4.1,0.2c0.4-2.2,0.8-4.5,1.5-6.6c0.7,2.2,1.3,4.3,2.1,6.5
	c1.2,0.2,2.4,0.3,3.6,0.5c1.7-2.1,2.8-4.7,4.9-6.3c-0.3,2.1-0.6,4.3-0.9,6.4c1.9,0,3.7-0.1,5.6-0.4c1-5.2,2.2-10.4,3.6-15.6
	c-2.6,0-5.3,0-7.9,0c-1.7,1.9-2.5,4.7-4.7,6.1c-0.4-2.1-0.7-4.1-1.1-6.1C407.9,219.9,405.4,219.9,403,219.9 M425.6,219.9
	c-1,5.3-2.2,10.5-3.6,15.6c2,0,4,0,6,0.1c1.2-5.3,2.7-10.5,3.5-15.8C429.5,219.8,427.5,219.8,425.6,219.9 M433.4,219.3
	c-1.1,5.6-2.5,11.1-3.8,16.7c0.9,0,2.7-0.1,3.7-0.2c0.5-2.4,0.9-4.9,1.7-7.2c1,2.6,2,5.2,3.2,7.7c1.9-0.2,4.2,0.6,5.7-0.6
	c1.5-5.4,2.3-10.9,3.7-16.3c-0.9,0-2.6-0.1-3.4-0.2c-0.5,2.5-1,4.9-1.6,7.3c-1.4-2.2-1.8-4.8-2.6-7.2
	C437.7,219.3,435.5,219.3,433.4,219.3 M449.2,220.9c-1.3,4.9-2.6,9.8-3.2,14.8c3.6,1.2,7.5,0.8,11.1,0.2c3.1-2.2,3.3-6.5,4.6-9.8
	c-2.3-0.1-4.6-0.1-6.9-0.1c-0.3,0.6-0.8,2-1.1,2.6c1.6,1.6,0.5,3.3-1.3,3.7c0.2-3.3,0.9-6.7,2.5-9.7c0.4,0.4,1.4,1.2,1.8,1.6
	c1.5,0,3,0,4.6,0c0.4-1.5,2.1-4.3-0.3-5C457.1,219.4,452.3,218,449.2,220.9z"/>
<path class="st2" d="M141,130.9c19.3,0.1,38.7,0,58,0.1c-1.6,6.5-3.2,13-4.6,19.5c-9.2,0.1-18.4-0.2-27.6-0.1
	c-1.1,4.2-2.1,8.5-2.6,12.9c7.9,0.3,15.8,0.8,23.8,1.1c1,0.2,3-0.2,2.9,1.4c-1.6,5.1-3.5,10.1-5,15.3c-8.7,0.1-17.5,0-26.2,0.1
	c-1.1,4.8-2.3,9.6-3.4,14.4c8.9,0.9,18.1,0.7,26.9,2c-0.8,5.5-1.7,11.7-5.2,16.3c-18.8,0.5-37.5,0-56.3,0.2
	C128.2,186.4,134.4,158.6,141,130.9z"/>
<path class="st2" d="M358.4,130.8c19.4-0.1,38.7,0.1,58.1-0.1c-1.6,6.5-3,13.1-4.7,19.7c-9.2,0-18.4-0.4-27.6-0.1
	c-0.9,4.2-1.8,8.4-2.5,12.7c8.9,0.5,17.8,0.5,26.6,1.4l0.2,1.1c-1.8,5-3.1,10.5-5.4,15.2c-8.6,0.3-17.2,0-25.8,0.2
	c-1.1,4.8-2.3,9.7-3.5,14.5c9,0.7,18.1,1,27.1,1.7c-1,5.7-1.6,12.3-5.8,16.7c-18.6-0.1-37.2-0.1-55.8,0
	C345.6,186.2,352.1,158.5,358.4,130.8z"/>
<path class="st2" d="M424.3,130.8c19.4-0.1,38.7,0,58.1-0.1c-1.5,6.6-3.1,13.1-4.6,19.7c-9.2-0.1-18.5-0.3-27.7-0.1
	c-0.8,4.3-1.8,8.4-2.4,12.7c8.8,0.6,17.7,0.5,26.4,1.5l0.3,0.8c-1.7,5.2-3.4,10.4-5.2,15.6c-8.7,0-17.4,0-26,0
	c-1.2,4.8-2.4,9.7-3.4,14.5c9,0.6,18,1,27,1.7c-0.5,4.5-1.7,9-3.3,13.3c-0.6,1.4-1.5,3.6-3.5,3.4c-18.3,0-36.6,0.1-54.9,0
	C411.6,186.1,418,158.5,424.3,130.8z"/>
<path class="st2" d="M204.5,138.9c-1-2.3,0.4-4.5,1.4-6.4c5.9,0.1,11.9,0,17.9,0.1c2.8,6.4,4.9,13,8.3,19.2
	c5.3-6.2,9.3-13.4,14.8-19.4c9.6,0.4,19.2-0.6,28.8,0.5c-0.8,4.4-4.2,7.4-6.3,11.2c-6.6,10.5-12.9,21.2-20.8,30.8
	c3.2,10.1,6.7,20.2,10,30.3c1.1,2.7-0.4,5.4-1.5,7.8c-6.6,0-13.1-0.4-19.6-0.5c-2.3-4.9-4.3-9.9-6.4-14.9
	c-4.3,5.2-8.3,10.7-12.9,15.7c-6.4,0.2-25.9-0.1-29.3,0.2c0.4-1.7,0.8-3.5,1.9-5c7.9-10.7,16-21.4,24.1-32c0.7-1,1.9-2.2,1-3.5
	C212,161.6,208.3,150.2,204.5,138.9z"/>
<path class="st2" d="M266,211.1c5.2-26,10.4-52.1,16.8-77.8c19.8,0.2,39.5-0.1,59.3,0.1c4.3,1,5.7,6.4,5.8,10.3
	c-4.5,19.7-8.2,39.7-15,58.8c-3.2,4-7,9.3-12.8,8.7C302,211.1,284,211.3,266,211.1 M296.2,188.8c3.7,0,7.3,0,11,0
	c1.8-4.4,3.5-8.9,4.5-13.6c1.9-8.3,4.5-16.3,6.1-24.6c-4.3,0.2-8.6-0.1-12.9,0.2C301.8,163.4,299,176.1,296.2,188.8z"/>
<path class="st1" d="M296.2,188.8c2.8-12.7,5.6-25.4,8.7-38.1c4.3-0.3,8.6,0,12.9-0.2c-1.6,8.3-4.2,16.4-6.1,24.6
	c-1,4.7-2.7,9.2-4.5,13.6C303.5,188.8,299.9,188.8,296.2,188.8z"/>
<path class="st2" d="M387.6,219.1c4.4,0.4,9.2-0.9,13.2,0.6c-0.8,5.3-1.8,10.6-3.3,15.8c-3,1.1-6.4,0.7-9.6,1
	c-1.8,0.1-4.7-0.4-4.3-2.8c0.1-3.4,1.4-8.1,5.5-8.5c1.9-0.7,4.6,0.7,5.8-1.3c-2.8-0.3-5.5-0.3-8.3-0.2
	C387,222.2,387.3,220.7,387.6,219.1 M389.2,231.4c1.6,0,4.1,0.9,4.2-1.5c-0.9,0-2.7-0.1-3.6-0.1C389.7,230.1,389.4,231,389.2,231.4z
	"/>
<path class="st2" d="M370.2,224.6c0.6-1.8,0.5-4.6,2.8-5.1c3.4-0.1,6.7-0.1,10.1,0c1.7,1.1,0.1,3.4,0,5.1c-1.6,0-3.1,0-4.6,0
	c-0.4-0.5-1.1-1.6-1.5-2.1c-1.9,2.9-2.6,6.6-2.5,10c3.1-0.8,1-4,2.3-6.1c2.3,0,4.6,0,7,0.1c-1.6,2.9-2.4,6.3-3.7,9.2
	c-3.4,1.1-7.4,0.2-11.1,0.4C367.4,232.2,369.6,228.3,370.2,224.6z"/>
<path class="st2" d="M403,219.9c2.4,0,4.9,0,7.4-0.1c0.5,2,0.8,4.1,1.1,6.1c2.2-1.5,3-4.2,4.7-6.1c2.6,0.1,5.3,0,7.9,0
	c-1.4,5.1-2.6,10.3-3.6,15.6c-1.9,0.3-3.7,0.4-5.6,0.4c0.3-2.1,0.6-4.3,0.9-6.4c-2.2,1.6-3.2,4.3-4.9,6.3c-1.2-0.2-2.4-0.4-3.6-0.5
	c-0.7-2.1-1.3-4.3-2.1-6.5c-0.7,2.2-1.1,4.4-1.5,6.6c-1.4,0-2.7-0.1-4.1-0.2C400.9,230.2,401.9,225,403,219.9z"/>
<path class="st2" d="M425.6,219.9c2-0.1,3.9-0.2,5.9-0.1c-0.8,5.4-2.3,10.6-3.5,15.8c-2,0-4,0-6-0.1
	C423.4,230.4,424.5,225.2,425.6,219.9z"/>
<path class="st2" d="M433.4,219.3c2.2,0,4.4,0,6.5,0c0.8,2.4,1.2,5,2.6,7.2c0.7-2.4,1.2-4.9,1.6-7.3c0.9,0.1,2.6,0.1,3.4,0.2
	c-1.4,5.4-2.1,10.9-3.7,16.3c-1.5,1.3-3.9,0.4-5.7,0.6c-1.3-2.5-2.2-5.1-3.2-7.7c-0.8,2.3-1.2,4.8-1.7,7.2c-0.9,0-2.7,0.1-3.7,0.2
	C430.8,230.5,432.2,224.9,433.4,219.3z"/>
<path class="st2" d="M449.2,220.9c3.1-2.9,7.9-1.4,11.8-1.6c2.5,0.6,0.8,3.4,0.3,5c-1.5,0-3,0-4.6,0c-0.4-0.4-1.4-1.2-1.8-1.6
	c-1.6,3-2.3,6.4-2.5,9.7c1.8-0.5,2.9-2.2,1.3-3.7c0.3-0.7,0.8-2,1.1-2.6c2.3,0,4.6,0,6.9,0.1c-1.3,3.3-1.5,7.6-4.6,9.8
	c-3.6,0.5-7.6,1-11.1-0.2C446.6,230.7,447.9,225.7,449.2,220.9z"/>
<path class="st1" d="M389.2,231.4c0.2-0.4,0.5-1.2,0.6-1.6c0.9,0,2.7,0.1,3.6,0.1C393.4,232.3,390.8,231.4,389.2,231.4z"/>
</svg>
