<?xml version="1.0" encoding="utf-8"?>
<!-- Generator: Adobe Illustrator 21.0.0, SVG Export Plug-In . SVG Version: 6.00 Build 0)  -->
<svg version="1.1" id="Layer_1" xmlns="http://www.w3.org/2000/svg" xmlns:xlink="http://www.w3.org/1999/xlink" x="0px" y="0px"
	 viewBox="0 0 437.3 433.1" style="enable-background:new 0 0 437.3 433.1;" xml:space="preserve">
<style type="text/css">
	.st0{fill:url(#_da4b22ff_1_);}
</style>
<title>7655</title>
<linearGradient id="_da4b22ff_1_" gradientUnits="userSpaceOnUse" x1="218.65" y1="436" x2="218.65" y2="2.88" gradientTransform="matrix(1 0 0 -1 0 436)">
	<stop  offset="0" style="stop-color:#EB662A"/>
	<stop  offset="1" style="stop-color:#CB321C"/>
</linearGradient>
<path id="_da4b22ff" class="st0" d="M103,0c28,28.2,56,56.4,83.9,84.7c0,66.3,0,132.7,0,199c11.2,11.5,22.4,23.1,33.5,34.7
	c10.7-11,21-22.3,31.5-33.5c0-66.7,0-133.5,0-200.2c29.1-28.2,58.1-56.4,87.2-84.7c0,104,0,208.1,0,312.1
	c-39.7,40.4-79.7,80.5-119.4,120.9l-1.4-0.7c-38.6-38.5-76.7-77.5-115.3-116C103,211,102.9,105.5,103,0z M0,21.6
	c25.3,25.5,50.3,51.2,75.5,76.8c1.4,1,0.8,2.9,1,4.4c-0.1,48.8-0.1,97.6,0,146.4C58,231.1,39.6,213,21.2,195c0-24.2,0-48.4,0-72.6
	C14.1,115.2,7,108,0,100.8C0,74.4,0,48,0,21.6z M159.2,23c40.3,0,80.5,0,120.8,0c-20.1,20-40.3,40-60.5,60
	C199.4,63,179.3,43,159.2,23z M366.5,97.4c23.6-25.3,47.1-50.7,70.8-75.9c0,26.4,0,52.8,0,79.3c-6.7,7.2-13.3,14.3-20,21.5
	c0,24.2,0,48.4,0,72.6c-17.5,18.1-35,36.1-52.5,54.3c0-49.4,0-98.9,0-148.4C364.5,99.3,365.6,98.4,366.5,97.4z"/>
</svg>
