<?xml version="1.0" encoding="utf-8"?>
<!-- Generator: Adobe Illustrator 21.0.0, SVG Export Plug-In . SVG Version: 6.00 Build 0)  -->
<svg version="1.1" id="Layer_1" xmlns="http://www.w3.org/2000/svg" xmlns:xlink="http://www.w3.org/1999/xlink" x="0px" y="0px"
	 viewBox="0 0 271.5 140.6" style="enable-background:new 0 0 271.5 140.6;" xml:space="preserve">
<style type="text/css">
	.st0{fill:#F7931E;}
	.st1{fill:#FFFFFF;}
</style>
<g id="_x23_f7931eff_1_">
	<path class="st0" d="M146.5,124c-5.4,0-10.9,0-16.3,0c-5.4,0-10.9,0-16.3,0c-3.6,0-7.2,0-10.8,0l-2,0l0-8.9c0-4.6,0-9.2,0-13.8
		l0-1.1l0.9-0.6c12.6-8.2,26.9-18.2,37-31.8c5.7-7.8,7.8-14.9,6.3-21.4c-1.1-2.7-4.1-3.7-6.6-3.7c-1.5,0-3,0.4-4.2,1
		c-4.3,2.6-5.2,8.6-5.9,13.4l-0.3,1.7l-1.8,0c-2.3,0-4.5,0-6.8,0c-1.6,0-3.1,0-4.7,0c-1.6,0-3.2,0-4.7,0c-3.6,0-6.3,0-8.9-0.1l-2,0
		l0.1-2c0.3-11.7,2.7-20.2,7.6-26.8c5.9-8.3,16.6-13.7,28.7-14.4c1.2-0.1,2.4-0.1,3.6-0.1c7.4,0,18,1.5,26.5,8.5
		c6.3,5.1,10,13.4,9.9,22.2c0.4,9.6-2.9,19.9-9.9,30.5c-3.8,5.6-8.2,10.9-13.1,15.7c2.7,0,5.6,0.1,9.1,0.1c2,0,4,0,6.1,0
		c2,0,4.1,0,6.1,0l3.1,0l0,2c0.1,4.6,0.1,9.2,0.1,13.7c0,4.5,0,9.1,0.1,13.7l0,2l-2,0C166.8,124,158,124,146.5,124z M149.3,97.1
		c0-0.5,0-1,0-1.6c-0.6,0.5-1.2,1.1-1.8,1.6C147.6,97.1,148.8,97.1,149.3,97.1z"/>
	<path class="st0" d="M108.6,31.2c6.1-8.7,16.9-13,27.2-13.5c10-0.6,20.8,1.4,28.6,7.9c6.1,5,9.2,12.9,9.2,20.7
		c0.5,10.6-3.9,20.7-9.6,29.3c-6,8.9-13.5,16.8-21.9,23.5c3,0.1,6.1,0.1,9.1,0c0-1.6,0.1-3.1,0.1-4.7c7.9,0.1,15.8,0.1,23.7,0.1
		c0.2,9.1-0.1,18.3,0.1,27.4c-24.1,0.3-48.1,0-72.2,0.1c0-6.9,0-13.8,0-20.7c13.8-9,27.6-18.9,37.5-32.3c4.8-6.6,8.6-14.8,6.6-23.1
		c-2-5.2-9.2-6.2-13.6-3.8c-5.1,3.1-6.1,9.5-6.9,14.9c-8.4-0.1-16.7,0.1-25.1-0.1C101.7,47.9,103.2,38.5,108.6,31.2z"/>
</g>
<g id="_x23_000000ff">
	<path d="M0,0c47.3,0,94.6,0,141.9,0c11.7,0.3,24,2.5,33.7,9.5c2.5,1.7,4.3,4.2,6.9,5.8c3-5.2,6.2-10.2,9.3-15.3
		c26-0.1,52-0.1,77.9,0c-15.7,22.7-31.5,45.2-47.2,67.9c-1.1,1-0.2,2.2,0.5,3.2c16.2,23.2,32.3,46.4,48.5,69.6
		c-90.5,0.1-181-0.1-271.4-0.1C0,93.7,0,46.9,0,0 M108.6,31.2c-5.4,7.4-6.9,16.7-7.2,25.6c8.4,0.2,16.7,0,25.1,0.1
		c0.8-5.4,1.8-11.8,6.9-14.9c4.5-2.4,11.7-1.4,13.6,3.8c2,8.3-1.8,16.6-6.6,23.1c-9.9,13.4-23.7,23.3-37.5,32.3c0,6.9,0,13.8,0,20.7
		c24.1-0.1,48.1,0.2,72.2-0.1c-0.2-9.1,0.1-18.3-0.1-27.4c-7.9,0-15.8,0.1-23.7-0.1c-0.1,1.6-0.1,3.1-0.1,4.7c-3.1,0.1-6.1,0-9.1,0
		c8.4-6.6,15.9-14.5,21.9-23.5c5.7-8.6,10.1-18.8,9.6-29.3c0.1-7.8-3.1-15.7-9.2-20.7c-7.9-6.5-18.6-8.6-28.6-7.9
		C125.5,18.2,114.8,22.5,108.6,31.2 M203.4,18.8c-10.7,17.5-21.5,35-32.3,52.5c10.5,16.9,21.2,33.7,31.7,50.6
		c10.7,0,21.3,0.2,31.9-0.1c-11.8-16.7-23.4-33.6-35.2-50.4c-1.2-1.2-0.6-2.8,0.3-3.9c11.7-16.5,23-33.3,34.8-49.7
		c-8.9-0.5-17.9-0.1-26.9-0.3C206.3,17.8,204,16.9,203.4,18.8 M18.5,19.8c0,34.4,0,68.9,0,103.3c16.4,0,32.9,0.1,49.3-0.1
		c8.1-1.3,16-5.2,21.5-11.4c7.4-8.5,8.3-21.1,4.7-31.5c-2.2-6.4-8-11.3-14.7-12.6c7.9-4.3,11.6-13.6,11.6-22.3
		c0.1-14.1-13.1-26.2-27-25.6C48.8,19.8,33.6,19.7,18.5,19.8z"/>
	<path d="M44.3,43.7c5.4,0.3,11-0.7,16.3,0.6c6,1.8,6.2,11.3,0.3,13.4c-5.3,1.8-11.1,0.5-16.6,0.9C44.3,53.6,44.4,48.7,44.3,43.7z"
		/>
	<path d="M44.3,81.8c5.5,0.1,11-0.1,16.4,0.1c4.4,0.2,8.9,3.6,8.8,8.3c0.7,4.7-3.1,8.8-7.6,9.4c-5.8,0.5-11.7,0.1-17.6,0.2
		C44.4,93.8,44.3,87.8,44.3,81.8z"/>
</g>
<g id="_x23_f7931eff">
	<path class="st0" d="M108.6,31.2c6.1-8.7,16.9-13,27.2-13.5c10-0.6,20.8,1.4,28.6,7.9c6.1,5,9.2,12.9,9.2,20.7
		c0.5,10.6-3.9,20.7-9.6,29.3c-6,8.9-13.5,16.8-21.9,23.5c3,0.1,6.1,0.1,9.1,0c0-1.6,0.1-3.1,0.1-4.7c7.9,0.1,15.8,0.1,23.7,0.1
		c0.2,9.1-0.1,18.3,0.1,27.4c-24.1,0.3-48.1,0-72.2,0.1c0-6.9,0-13.8,0-20.7c13.8-9,27.6-18.9,37.5-32.3c4.8-6.6,8.6-14.8,6.6-23.1
		c-2-5.2-9.2-6.2-13.6-3.8c-5.1,3.1-6.1,9.5-6.9,14.9c-8.4-0.1-16.7,0.1-25.1-0.1C101.7,47.9,103.2,38.5,108.6,31.2z"/>
</g>
<g id="_x23_ffffffff">
	<path class="st1" d="M203.4,18.8c0.6-1.9,2.9-1.1,4.5-1.3c8.9,0.2,17.9-0.3,26.9,0.3c-11.8,16.4-23.1,33.2-34.8,49.7
		c-1,1.1-1.5,2.8-0.3,3.9c11.7,16.8,23.3,33.7,35.2,50.4c-10.6,0.2-21.3,0.1-31.9,0.1c-10.5-16.9-21.2-33.7-31.7-50.6
		C181.8,53.8,192.6,36.3,203.4,18.8z"/>
	<path class="st1" d="M18.5,19.8c15.1-0.1,30.3,0,45.4,0c13.9-0.7,27.1,11.5,27,25.6c0,8.7-3.7,18-11.6,22.3
		c6.7,1.2,12.4,6.1,14.7,12.6c3.6,10.4,2.7,23-4.7,31.5c-5.5,6.2-13.4,10.1-21.5,11.4c-16.4,0.2-32.9,0.1-49.3,0.1
		C18.5,88.7,18.5,54.2,18.5,19.8 M44.3,43.7c0,5,0,9.9,0,14.9c5.5-0.4,11.3,0.9,16.6-0.9c5.8-2.1,5.6-11.6-0.3-13.4
		C55.4,43,49.8,44,44.3,43.7 M44.3,81.8c0,6,0,12,0,18c5.8-0.1,11.7,0.3,17.6-0.2c4.5-0.6,8.3-4.7,7.6-9.4c0.2-4.7-4.3-8.2-8.8-8.3
		C55.3,81.7,49.8,81.9,44.3,81.8z"/>
</g>
</svg>
