<?xml version="1.0" encoding="utf-8"?>
<!-- Generator: Adobe Illustrator 21.0.0, SVG Export Plug-In . SVG Version: 6.00 Build 0)  -->
<svg version="1.1" id="Layer_1" xmlns="http://www.w3.org/2000/svg" xmlns:xlink="http://www.w3.org/1999/xlink" x="0px" y="0px"
	 viewBox="0 0 690.3 712.3" style="enable-background:new 0 0 690.3 712.3;" xml:space="preserve">
<style type="text/css">
	.st0{fill:#0084FF;}
	.st1{fill:#3F3F41;}
	.st2{fill:#BDBEC0;}
	.st3{fill:#232321;}
	.st4{fill:#949599;}
	.st5{fill:#F1F3F2;}
	.st6{fill:#08B6FF;}
</style>
<g id="_x23_0084ffff_1_">
	<path class="st0" d="M148.4,605c1.9-27.6,11.7-55.9,30-86.4c-3.3,2-6.3,4.3-9.2,6.6c-10.6,8.7-21,18.9-33.6,33.2l-0.8,1l-1.2-0.4
		c-40.4-12.1-68.7-39.7-85.4-60.6l-0.7-0.8l0.3-1c3.2-10.3,7.8-20.9,14.7-33.1l1.5-2.6l1.9,2.3c17,21.5,35.7,37.2,55.6,46.9
		c17.7-13.9,33.9-25.7,49.5-36.3c12-8,23.8-15.6,36.7-21.7l1-0.5l0.9,0.7c0.8,0.5,1.6,1,2.4,1.5c2.6,1.7,5.4,3.4,7.3,6.2
		c2.9,4,6.7,7.7,11.7,11.4l0.5,0.4l0.2,0.6c0.6,1.9,1.2,3.8,1.7,5.7l0,0.1l0,0.1c5.4,32.5,26.5,62,56.3,78.9l-1.7,3.6
		c-17-6.8-33.7-16.5-51-29.8c-4-3-7.9-6.4-11.5-9.6c-0.4-0.3-0.7-0.7-1.1-1c4.1,10.6,10.3,21.2,19.4,33c7.3,9.5,15.8,18.6,25.1,27.1
		l3.1,2.8l-4.1,0.6c-4.8,0.7-9.7,1.5-14.5,2.2c-9.2,1.3-18.7,2.7-27.9,4.4l-1.2,0.2l-0.7-1c-6.7-8.8-12.2-18.5-17.6-27.9
		c-5,11-7.5,22.7-9.2,32.9l-0.2,1.4l-1.3,0.3c-2.2,0.4-4.4,0.9-6.6,1.4c-2.6,0.6-5.4,1.2-8.1,1.7l-2.4,0.5l0-2.4
		c0.1-17.4,3-35.6,8.5-53.9c0.6-2.2,1.4-4.4,2.2-6.6l-0.6,1.1c-10.7,20.6-16.7,42.8-21.7,63.7l-0.3,1.2l-2.2,0.6
		c-4.3,1.1-8.7,2.3-13.1,3.5l-2.7,0.8L148.4,605z M75.2,500.1c13,14.2,29.5,26.6,48.3,36.3c0.5,0.2,1,0.5,1.6,0.8
		c1.6,0.8,3.1,1.6,4.7,1.9c1.6-1.6,3.1-3.2,4.6-4.8c2.4-2.6,4.9-5.3,7.5-7.7c5.9-6.1,12.5-11.6,18.7-16.2
		c-11.3,5-21.4,11.8-29.8,20.1l-0.9,0.9l-1.2-0.5C111.5,523.9,94,513.9,75.2,500.1z"/>
	<path class="st0" d="M172,475.5c11.8-7.8,23.7-15.5,36.4-21.5c3.2,2.2,6.9,4,9.2,7.2c3.3,4.6,7.5,8.5,12.1,11.8
		c0.6,1.9,1.2,3.8,1.7,5.7c5.6,33.6,27.8,63.6,57.3,80.3c-18.2-7.3-35-17.6-50.5-29.5c-6.4-4.7-12.1-10.3-18.1-15.4
		c4.4,14.9,12.7,28.3,22,40.6c7.6,9.9,16.1,19,25.3,27.3c-14.1,2.2-28.3,4-42.4,6.6c-7.4-9.7-13.3-20.4-19.4-31
		c-5.9,11.5-8.9,24.2-11,36.8c-4.9,1-9.8,2.1-14.7,3.1c0.1-18.1,3.2-36.1,8.4-53.4c2.2-7.6,5.7-14.8,8.2-22.3
		c-4.5,4.3-7.3,9.9-10.3,15.3c-10.5,20.2-16.7,42.2-21.9,64.2c-4.7,1.2-9.5,2.5-14.2,3.8c2.3-32.9,16-63.9,33.4-91.5
		c-5.8,2.3-10.9,6-15.8,9.9c-12.3,10.1-23.4,21.5-33.9,33.4c-33.7-10.1-62.7-32.6-84.4-59.9c3.5-11.4,8.7-22.3,14.5-32.7
		c15.6,19.7,34.6,37.2,57.4,48C138,499.6,154.7,487.1,172,475.5 M63.7,489.2c15.2,20.9,36,37.3,58.9,49c2.5,1.2,5.1,2.7,7.9,3
		c4.3-4.3,8.3-9.1,12.8-13.3c9.1-9.4,19.6-17.2,30.4-24.5c-16.5,4.7-32.2,13.4-44.4,25.5c-19.1-7.7-36.9-18.7-53.5-30.9
		C71.8,495.1,68.2,491.5,63.7,489.2z"/>
	<path class="st0" d="M539.6,607.1c-1.7-0.5-3.4-0.9-5.2-1.4c-3-0.8-6.1-1.6-9.2-2.4l-1.2-0.3l-0.3-1.2
		c-4.9-21.9-10.8-40.5-18.1-56.6c-0.5-1.1-1.1-2.2-1.7-3.4c-0.8-1.7-1.7-3.4-2.5-5.1c0.1,0.2,0.2,0.4,0.2,0.6
		c6.7,19.3,10.3,39.6,10.7,60.3l0,2.6l-2.5-0.6c-4.5-1-9.3-2.1-14.8-3.2l-1.4-0.3l-0.2-1.4c-1.5-9.5-4-21.6-9.2-32.9
		c-0.2,0.3-0.4,0.6-0.5,0.9c-5.2,9.1-10.5,18.5-17.2,26.9l-0.7,0.9l-1.2-0.2c-8.1-1.4-16.3-2.6-24.3-3.8c-5.9-0.9-12.1-1.8-18.1-2.8
		l-4.2-0.7l3.2-2.8c11-9.8,21.3-21.3,30.5-34.3c6.2-9,10.8-17.4,14-25.6c-10.1,9.2-21.6,17.7-34.4,25.6
		c-11.5,6.9-20.6,11.5-29.5,14.9l-1.7-3.6c13-7.6,23.7-16.5,31.8-26.4c13.6-16.3,22.3-35.4,25.3-55.2l0-0.1l0-0.1c0.3-1,0.6-2,0.9-3
		l0.2-0.6l0.5-0.4c5.2-3.8,9-7.5,11.8-11.4c1.7-2.5,4.1-4.1,6.4-5.6c1.1-0.7,2.2-1.4,3.2-2.2l1-0.8l1.2,0.6
		c18.1,9,35.2,20.5,50.9,31.6c12.9,9.2,24.4,17.9,35.3,26.5c19.8-9.6,38.5-25.3,55.6-46.9l1.8-2.3l1.5,2.6
		c6.7,11.8,11.5,22.6,14.6,33.1l0.3,1l-0.6,0.8c-23.7,29.9-53.2,50.8-85.3,60.6l-1.2,0.4l-0.9-1c-12.7-14.2-22.9-24.3-33.2-32.8
		c-2.7-2.2-5.9-4.7-9.6-6.9c17.9,29.9,28.1,58.9,30.1,86.3l0.2,2.8L539.6,607.1z M531.3,511.3c5.4,4,10.4,8.6,15.2,13.1
		c1,0.9,2,1.9,3,2.8c1.8,1.7,3.4,3.5,4.9,5.3c2.1,2.4,4.1,4.7,6.4,6.6c19.1-8,37.3-20.9,54-38.4l0.4-0.4c-1.4,1.1-2.8,2.1-4.3,3.1
		c-18.3,12.7-33.9,21.5-49.2,27.6l-1.3,0.5l-0.9-1c-6.5-6.9-15-12.8-26.6-18.6c0,0-2.1-1-2.7-1.2C530.7,510.8,531,511,531.3,511.3z"
		/>
	<path class="st0" d="M472.7,461.3c2.3-3.4,6.2-5,9.3-7.5c17.8,8.9,34.4,20,50.6,31.4c12.3,8.8,24.4,17.8,36.2,27.2
		c22.9-10.8,41.8-28.3,57.4-48c5.9,10.4,11,21.2,14.5,32.7C619,524.5,590,546.8,556.4,557c-10.4-11.7-21.3-23-33.4-33
		c-5-4.1-10.4-7.9-16.4-10.4c17.5,27.6,31.2,58.6,33.6,91.6c-4.8-1.3-9.6-2.6-14.3-3.8c-4.3-19.5-10-38.8-18.2-57
		c-3.8-7.6-7.2-15.6-13.3-21.7c1.3,5.3,3.9,10.2,5.6,15.3c6.7,19.2,10.2,39.4,10.6,59.7c-4.9-1.1-9.9-2.2-14.8-3.2
		c-2-12.7-5-25.4-11-36.8c-6,10.5-11.8,21.3-19.4,30.9c-14.1-2.4-28.3-4.3-42.3-6.5c11.6-10.3,21.8-22,30.8-34.7
		c7.1-10.4,13.3-21.6,16.8-33.8c-12,11.9-25.5,22.1-39.9,30.9c-9.4,5.6-19,10.8-29.2,14.8c12.1-7.1,23.4-16,32.3-26.8
		c13.3-16,22.6-35.5,25.8-56.2c0.3-1,0.6-2,0.9-3C465.1,469.8,469.4,466,472.7,461.3 M609.9,501.6c-15.3,10.7-31.5,20.5-48.9,27.4
		c-7.7-8.1-17.2-14-27.1-19c-5.1-2.3-10.2-4.8-15.7-5.8c3.6,3.4,8.1,5.6,11.9,8.8c6.4,4.8,12.2,10.4,18.1,15.8
		c4.3,4,7.6,9.3,12.4,12.7c21.2-8.7,40-22.8,55.7-39.3c3.4-3.8,7-7.5,9.5-12C620,493.1,615.4,498,609.9,501.6z"/>
</g>
<g id="_x23_3f3f41ff_1_">
	<path class="st1" d="M400.4,461.5c-9.2,0-18.3-1.8-26.5-5.2c-9.8-3.9-19.2-10.1-28.6-19.1c-14.6,13.7-29.9,21.7-45.4,23.7
		c-3.7,0.4-7.1,0.5-10.3,0.5c-10.5,0-19.1-1.9-26.4-5.9c-13.8-7.6-24.7-22-30-39.3c-3.4-12.1-4.1-21.7-2.4-30.4
		c2.9-19.7,14.4-35.3,26.4-46.7c-5.2,2.9-10.6,6.5-16.3,10.9c-18.8,14.6-31.1,35.2-33.8,56.6l-0.5,3.9l-2.9-2.7
		c-11.3-10.7-19.4-24-25.9-35.5c-11.8-22.1-19.4-44.9-22.6-67.7c-4.6-31.5-1.3-65,9.5-96.9c11.2-29.6,32-56.8,58.8-76.7
		c15-11.5,32.2-19.5,45.6-25.1c26.9-10.5,50.4-15.7,71.9-15.7c1.8,0,3.7,0,5.5,0.1c1.5-0.1,3.1-0.1,4.6-0.1c19.3,0,38.4,5,52.9,9.4
		c17,5.5,33.2,12.7,48.2,21.4c33.5,20.5,59.4,50.6,72.8,84.9c6.9,19.6,10.8,39.5,11.8,59.3l0,0.1c0,2.6,0,5.3,0.1,7.9
		c0.1,8.3,0.2,16.9-1,25.3c-2.4,22.1-8.8,44-18.9,65.2c-7.9,15.4-17,31.4-30.3,44l-2.9,2.7l-0.5-3.9c-2.4-18.8-12-36.8-27-50.7
		c-7.6-6.8-15.4-12.5-23.4-16.9c0.5,0.5,1.1,1,1.6,1.6c9.7,9.5,22,25,25,44.6c2.4,11.4,0.8,24.2-4.7,38.3c-8,19-21.7,32.1-37.5,36.2
		C411.7,460.8,406.1,461.5,400.4,461.5z M287.5,373.7c-0.4,0-0.9,0.1-1.3,0.2l-0.1,0l-0.2,0c-7.8,1.1-14.2,5-17.2,10.7
		c-3.6,6.6-5.3,14.2-4.7,21.3c9-5.8,16.8-11.3,23.6-16.9l0.8-0.7c2.2-2,4.4-4,5.2-6.5c0.5-1.7,0-3.7-1.2-5.4
		C291,374.7,289.3,373.7,287.5,373.7z M396.5,380.1c0.5,3.9,3.8,7,6.7,9.2c7.7,5.9,15.3,11.6,23.3,16.5c0.1-7.8-0.9-16.8-6.2-23.5
		c-4.2-5.3-11.2-8.5-18.8-8.5l-0.1,0C399.1,374.8,396.7,377.2,396.5,380.1z M262.7,264.4c-4.2,0-8.3,1-11.8,2.9
		c-8.8,4.6-14.4,14.2-14,23.9c0,10.1,6.6,19.8,16.1,23.8c3,1.3,6.3,1.9,9.8,1.9c5.8,0,11.6-1.9,16-5.3l-0.3-0.8
		c5-2.6,8.5-6.9,9.6-11.8l0-0.1l0-0.1c2.8-8.6,0.8-18.5-5-25.2C278.2,267.8,270.6,264.4,262.7,264.4z M411.6,311.4
		c4.5,3.4,10.3,5.4,16.2,5.4c0,0,0,0,0,0c2.3,0,4.6-0.3,6.7-0.8c8.7-2.4,15.8-9.5,18.2-18.2c2.9-9.9-0.7-21.2-8.7-27.6
		c-4.4-3.8-10.2-5.8-16.3-5.8c-3.9,0-7.8,0.9-11.3,2.5c-11.7,5.2-18.1,19.4-14,31.2l0.1,0.2l0,0.2c0.7,5.2,4.1,9.7,9.4,12.4
		L411.6,311.4z M428.9,245.1c14,1.2,27.1,8.1,35.7,18.5c0.2-2.5-0.1-5.1-0.8-7.8l0-0.1c-1.7-8.1-8.4-15.4-17.5-19
		c-4-1.4-8.2-2.2-12.5-2.2c-5.4,0-10.7,1.2-15.3,3.4c-3.5,1.5-6.4,4.2-8.4,7.7c0.6-0.1,1.3-0.2,1.9-0.2c3.5-0.4,7.1-0.9,10.7-0.9
		C424.9,244.6,426.9,244.8,428.9,245.1z M256,234.7c-10.6,0-20.9,5.5-26.3,14c-2.7,4.6-3.9,9.7-3.7,14.5
		c8.5-10.5,21.7-17.2,36.4-18.3c1.7-0.3,3.4-0.4,5.4-0.4c2.7,0,5.4,0.3,8.1,0.6c1.4,0.1,2.8,0.3,4.2,0.4
		c-4.5-7.6-14.6-10.5-22.5-10.6C257,234.7,256.5,234.7,256,234.7z"/>
	<path class="st1" d="M269.9,107.7c24.3-9.5,50.3-16.5,76.7-15.4c19.4-0.8,38.5,3.7,56.9,9.3c16.6,5.4,32.7,12.4,47.7,21.2
		c31.9,19.5,58.2,48.9,71.9,83.9c6.6,18.9,10.7,38.7,11.7,58.7c0,11,0.6,22-0.9,32.9c-2.5,22.4-9.1,44.3-18.8,64.7
		c-8,15.6-17,31.2-29.9,43.4c-2.5-19.9-13-38.4-27.6-51.9c-10.7-9.6-22.9-17.9-36.4-23.1c3.6,3.8,8.1,6.8,11.7,10.6
		c12,11.7,21.9,26.7,24.5,43.6c2.6,12.5,0,25.5-4.6,37.2c-6.7,15.7-19,30.6-36.1,35c-13.9,3.3-28.8,2.4-42-3.1
		c-11.1-4.4-20.9-11.7-29.3-20.1c-12.6,12.1-28.1,22.2-45.7,24.5c-11.9,1.2-24.6,0.8-35.4-5.1c-14.4-8-24.3-22.6-29-38.2
		c-2.6-9.5-4.3-19.6-2.4-29.4c3.4-22.7,19-41.5,36.9-54.9c-10.9,3.9-20.8,10.2-30,17.2c-18.2,14.1-31.7,34.8-34.6,57.9
		c-10.5-10-18.4-22.4-25.5-35c-11.1-20.9-19.1-43.5-22.3-67c-4.6-32.2-1-65.3,9.4-96c11.4-30.2,32.3-56.5,58.1-75.7
		C238.5,122,254.1,114.4,269.9,107.7 M228,247.6c-3.6,6.1-5.1,13.7-3.2,20.6c8.2-12.8,22.9-20.3,37.8-21.4
		c6.9-1.3,13.7,0.6,20.5,0.7c-3.7-10.3-15.5-14.6-25.6-14.8C246.1,232.2,234.2,237.8,228,247.6 M417.6,236.2
		c-5.2,2.2-8.9,6.7-10.9,11.9c7.3-0.7,14.6-2.3,21.9-1c14.7,1.3,28.7,9,37.1,21.2c1.4-4.3,1.2-8.8,0-13.1c-2-9.6-9.9-17-18.7-20.4
		C437.5,231.4,426.6,231.7,417.6,236.2 M249.9,265.6c-9.3,4.8-15.5,15.2-15,25.7c0,11,7.3,21.3,17.3,25.5c9.5,3.9,21.2,2.1,29-4.6
		l-1.8,0.5c5.3-2.7,9.4-7.3,10.6-13.2c3-9.2,1-19.8-5.4-27.1C276.4,262.5,261.1,259.4,249.9,265.6 M415.5,265
		c-12.4,5.5-19.5,20.7-15,33.6c0.8,6.1,5,11.1,10.4,13.9l-1.7-0.4c7,6,16.9,8.1,25.8,5.8c9.3-2.6,17-10.3,19.6-19.6
		c3.1-10.6-0.7-22.8-9.4-29.7C437.2,261.7,425.1,260.6,415.5,265 M285.7,371.9c-7.5,1-15.1,4.8-18.7,11.7c-4.3,7.7-6.1,17-4.5,25.6
		c9.2-5.8,18.1-11.9,26.5-18.8c2.6-2.3,5.6-4.7,6.6-8.2C297,376.7,291.4,370.3,285.7,371.9 M401,371.8c-3.4,1.4-6.3,4.7-6.5,8.5
		c0.4,4.6,4,8,7.4,10.7c8.5,6.5,17.1,13,26.5,18.4c0.4-9.7-0.3-20.3-6.5-28.2C417,374.8,408.8,371.6,401,371.8z"/>
	<path class="st1" d="M58.9,231.3c1-14.3,2.2-28.8,3.4-42.9l0.8-9.1l0.8-0.5c6.5-4.4,14.3-8,23.2-10.5l2.7-0.8l-0.1,2.8
		c-0.3,8-0.9,16.1-1.4,24c-0.3,4.6-0.6,9.2-0.9,13.8c0,0.7-0.1,1.3-0.1,2c0,1.8-0.1,3.7-0.6,5.6l-0.1,0.4l-0.2,0.3
		c-1.7,2.3-3.9,3.8-6.1,5.3c-0.9,0.6-1.8,1.2-2.6,1.9l-0.1,0.1c-1,0.7-1.9,1.4-2.9,2c-4,2.9-8.2,5.8-13,7.6l-2.9,1.1L58.9,231.3z"/>
	<path class="st1" d="M65,180.5c6.9-4.7,14.6-8,22.6-10.3c-0.5,12.6-1.6,25.1-2.3,37.7c-0.1,2.4,0,4.9-0.6,7.3
		c-2.2,2.9-5.5,4.6-8.3,6.8c-5,3.4-9.8,7.3-15.5,9.5C62.1,214.4,63.6,197.4,65,180.5z"/>
	<path class="st1" d="M628.6,233.4c-6.2-2.8-11.7-6.9-17-10.9c-1.3-1-2.6-1.9-3.9-2.9l-0.1-0.1c-0.2-0.2-0.4-0.3-0.6-0.5
		c-1.3-1-3-2.4-3.3-4.7c-0.3-2.9-0.5-6-0.6-8.9c-0.1-2-0.2-4.1-0.4-6.1l0-0.1c-0.1-4.1-0.5-8.3-0.8-12.3c-0.4-5.4-0.9-11.1-0.8-16.7
		l0-2.5l2.4,0.6c6.9,1.6,13.3,4.7,18.7,7.5l0.1,0l0.1,0.1c0.3,0.2,0.6,0.4,0.9,0.6c1.6,1,4.1,2.5,4.3,5.4c0.4,2.6,0.6,5.3,0.8,7.9
		c0.1,2,0.3,4,0.5,6l0,0.1c0.3,4.7,0.7,9.6,1.1,14.2c0.6,7,1.3,14.2,1.4,21.3l0,3.1L628.6,233.4z"/>
	<path class="st1" d="M603.1,170.4c6.4,1.5,12.4,4.3,18.2,7.3c1.7,1.1,4.2,2.1,4.3,4.5c0.7,4.6,0.7,9.3,1.3,13.9
		c0.6,11.8,2.4,23.6,2.5,35.4c-7.5-3.4-13.9-8.7-20.5-13.5c-1.3-1.1-3-2.1-3.2-3.9c-0.6-4.9-0.6-10-1-14.9
		C604.4,189.6,603,180,603.1,170.4z"/>
	<path class="st1" d="M82.8,281c-0.6-7.6,0.3-15.1,1.4-23.5l0.1-1.1l1.2-0.5c6.6-3.2,12.2-5.3,17.4-6.6l2.7-0.7l-0.2,2.7
		c-0.4,6.3-0.8,13.6-0.6,20.7l0,1.3l-1.2,0.6c-3.9,1.8-7.8,3.7-11.6,5.5c-2.2,1.1-4.3,2.1-6.5,3.2l-2.6,1.3L82.8,281z"/>
	<path class="st1" d="M86.4,257.7c5.5-2.6,11.2-5,17.1-6.5c-0.4,7-0.8,13.9-0.6,20.9c-6.1,2.8-12.1,5.8-18.1,8.7
		c-0.6-7.7,0.4-15.4,1.4-23L86.4,257.7z"/>
	<path class="st1" d="M604.6,282.6c-6.4-3.3-12.3-6.1-17.9-8.6l-1.2-0.5l0-1.3c0-1.8,0-3.7,0-5.5c0-5,0-10.2-0.5-15.2l-0.3-2.8
		l2.7,0.6c5.8,1.4,11.3,3.7,16.1,5.9l2.3-0.4l1.1,6.4l-0.1,0c1,7.2,1.5,13.5,0.7,19.9l-0.4,2.8L604.6,282.6z"/>
	<path class="st1" d="M587,251.3c6,1.4,11.7,3.9,17.3,6.5c-0.1-0.6-0.3-1.9-0.4-2.6c1.4,8.4,2.7,17.1,1.6,25.7c-5.9-3-11.9-6-18-8.7
		C587.5,265.2,587.7,258.2,587,251.3z"/>
	<path class="st1" d="M83.3,385.9C69.4,378,58.9,363.4,52,342.6c-5.8-16.8-10.6-41.6-0.2-64.1l0.9,0.3c1.8-1.4,3.6-2.8,5.3-4.2
		c4.4-3.5,8.9-7.1,13.8-10.3l3.6-2.3l-0.5,4.2c-0.6,4.9-1,10-1.5,14.9l-0.2,2.3c-0.2,17.4,2.2,33.9,7.2,49.2
		c3.7,12.3,9.3,24.8,18,40.5l0.8,1.4l-1.2,1.1c-2.1,1.8-4.4,3.6-6.5,5.3c-1.9,1.5-3.9,3.1-5.8,4.7l-1.1,0.9L83.3,385.9z M68.9,292.6
		c-4.3,2.7-8.6,5.6-12.4,8.9c4.1-1.9,8.2-3.9,12.5-5.6C68.9,294.7,68.9,293.6,68.9,292.6z"/>
	<path class="st1" d="M53.1,281.1c6.6-5,12.8-10.5,19.8-15c-0.7,5.8-1.2,11.5-1.7,17.3c-0.2,16.9,2,33.9,7.3,50
		c4.3,14.3,10.9,27.8,18.2,40.9c-4,3.4-8.3,6.6-12.3,10c-15.6-8.9-24.9-25.6-30.4-42.1c-6.9-20-9.4-42.9-0.3-62.6L53.1,281.1
		 M48.1,307.5c7.7-3.3,15.1-7.3,22.9-10.3c-0.1-2.7-0.2-5.4-0.3-8.1C62.5,294.2,53.9,299.5,48.1,307.5z"/>
	<path class="st1" d="M605.3,385.6c-2.7-1.8-5.3-3.9-7.7-5.9c-1.6-1.3-3.3-2.7-5-3.9l-1.4-1.1l0.9-1.5
		c13.4-23.2,21.6-46.2,24.2-68.3c0.4-3.4,0.5-6.9,0.6-10.4c0.1-2.4,0.1-4.9,0.3-7.4c0.3-4.1-0.2-8.2-0.7-12.5
		c-0.3-2.7-0.7-5.6-0.8-8.4l-0.2-3.8l3.2,2.1c4.1,2.6,8,5.7,11.7,8.7c2.7,2.2,5.5,4.4,8.4,6.5l0.3,0.2l0.2,0.4
		c1.4,2.4,2,5.1,2.6,7.7c0.2,1.1,0.5,2.1,0.8,3.1l0,0.1l0,0.1c0.2,0.9,0.3,1.8,0.5,2.7c0.8,4.1,1.6,8.3,0.8,12.6l0.8,0.4l-0.1,1.3
		c-0.7,17.5-5.3,35-13.2,50.5c-5.2,9.4-12.6,20.9-24.5,27.1l-1.1,0.6L605.3,385.6z M621.4,295.8c4.3,1.8,8.5,3.7,12.4,5.5
		c-3.8-3.2-8-6.1-12.3-8.9C621.5,293.5,621.5,294.6,621.4,295.8z"/>
	<path class="st1" d="M617.7,266.1c7.1,4.5,13.2,10.3,20.1,15.1c1.8,3.1,2.2,6.9,3.2,10.3c0.9,5,2.4,10.2,1.1,15.3
		c-6.2-7.5-14.4-12.9-22.6-18c-0.1,2.8-0.1,5.5-0.2,8.3c8.1,3.2,15.9,7,23.6,10.9c-0.7,17.2-5.1,34.3-13,49.6
		c-5.7,10.3-12.9,20.7-23.6,26.3c-4.4-3-8.4-6.6-12.6-9.8c12.3-21.2,21.6-44.6,24.5-69.1c0.8-5.9,0.5-11.9,0.9-17.8
		C619.8,280.1,618,273.2,617.7,266.1z"/>
	<path class="st1" d="M109.2,366c-0.8-0.8-1.6-1.7-2.2-2.7c-13.7-24.6-21.6-48.6-23.5-71.3l-0.1-1.6l1.6-0.5
		c6.1-1.8,12.3-3.4,18.5-4.6l2.2-0.4l0.2,2.2c2.1,20.7,6.5,47.2,21.4,68.5l1.3,1.9l-2.1,1c-2.3,1.1-4.6,2.4-6.8,3.6
		c-2.6,1.5-5.3,3-8.2,4.3l-1.3,0.6L109.2,366z"/>
	<path class="st1" d="M85.5,291.8c6-1.8,12.1-3.3,18.3-4.5c2.5,24.2,7.6,49.2,21.7,69.5c-5.1,2.4-9.8,5.5-14.9,7.8
		c-0.7-0.7-1.4-1.5-1.9-2.4C96.7,340.5,87.7,316.7,85.5,291.8z"/>
	<path class="st1" d="M579.6,366.5c-0.5,0-1.2-0.1-1.9-0.7c-0.8-0.4-1.6-0.9-2.3-1.3c-3.7-2-7.5-4.1-11.3-5.8l-2.3-1l1.6-2.1
		c4.4-5.8,7.6-12.6,9.8-17.8c6-14.4,9.8-30.9,11.6-50.7l0.2-2.2l2.2,0.4c5.6,1,11.6,2.5,18.7,4.6l1.6,0.5l-0.2,1.7
		c-2.6,24-10.6,48-23.8,71.3l-0.1,0.1l-0.1,0.1c-0.1,0.1-0.2,0.3-0.3,0.4C582.4,364.9,581.4,366.5,579.6,366.5z"/>
	<path class="st1" d="M586.7,287.3c6.3,1.2,12.4,2.8,18.5,4.5c-2.6,24.9-11.2,48.8-23.6,70.5c-0.6,0.9-1.5,3.1-2.8,1.8
		c-4.6-2.5-9.2-5.1-14-7.3l0.1-0.1c4.2-5.5,7.3-11.8,10-18.2C581.7,322.3,585,304.8,586.7,287.3z"/>
	<path class="st1" d="M107,676.4c-17.5-3.4-33.6-11.3-46.3-23c-13.8-12.7-23.2-31.2-26.6-52.1c-3.3-17.9-2.6-37.4,2.2-59.6l0.6-2.7
		l2.4,1.4c2.3,1.4,4.7,3,6.9,5c12.9,10.5,27.9,20.1,47.4,30.1c5.8,2.9,12,5.6,17.9,8.1c3.5,1.5,7.2,3.1,10.7,4.7l1.8,0.8l-0.8,1.8
		c-6,13.7-8.2,28.9-10.3,43.6l-0.2,1.1c-0.2,2.2-0.5,4.4-0.8,6.6c-1.2,10.6-2.5,21.5-2.7,32.3l0,2.4L107,676.4z"/>
	<path class="st1" d="M38.2,542.1c2.4,1.4,4.6,3,6.7,4.8c14.6,12,31,21.7,47.8,30.3c9.4,4.7,19.2,8.5,28.7,12.8
		c-6.3,14.3-8.4,29.9-10.6,45.2c-1.4,13-3.2,26.1-3.4,39.2c-16.7-3.3-32.7-11-45.4-22.5c-14.4-13.2-22.9-31.8-26-50.9
		C32.3,581.5,34,561.4,38.2,542.1z"/>
	<path class="st1" d="M581.6,674.6c-0.2-2.7-0.5-5.5-0.7-8.2c-1.2-13.7-2.4-27.8-4.6-41.5c-2.2-12.5-4.3-23.7-9-34.1l-0.9-1.9
		l1.9-0.8c33.1-13.1,60-28.7,82.4-47.7l2.4-2.1l0.8,3.1c3.1,11.8,4.6,23.8,4.4,35.8c0.5,19.8-3.5,38.5-11.7,54.1
		c-11.5,22.5-34.9,39.4-62.6,45l-2.2,0.4L581.6,674.6z"/>
	<path class="st1" d="M569,590c29.8-11.8,58.4-27.2,83-48c3,11.5,4.5,23.4,4.3,35.3c0.5,18.3-3,36.9-11.5,53.2
		c-11.9,23.4-35.9,38.8-61.2,44c-1.5-16.6-2.7-33.3-5.3-49.8C576.2,612.8,574,600.9,569,590z"/>
</g>
<g id="_x23_bdbec0ff">
	<path class="st2" d="M252.4,64.9c27.7-11,57.4-17.4,87.2-17.9c45.5-1.2,91.3,10.7,130.7,33.6c43,24.8,77.3,63.4,99.2,107.7
		c-8.8-12.4-17.5-24.9-27.8-36.2c-24.2-27.4-53.4-50.6-86.1-67c-46.5-23.7-100.7-31.8-152-22.7c-30.3,5.1-59.4,16.3-85.7,32.1
		c-39.2,23.4-72.4,56.4-97.1,94.7c9.9-21.1,23.3-40.6,38.6-58.2C184.6,102,216.7,79.1,252.4,64.9z"/>
	<path class="st2" d="M100.4,417.9c12.9-12.4,27.3-23.4,42.9-32.1c15.9,26.9,39.1,48.7,63.8,67.5c-7.7-0.2-15.1-2.5-22.4-5
		c-18-6.3-34.6-16.9-47.6-31c-13.2,13-25.6,27-35.6,42.6c-0.4-12,0.7-24,2-35.9c-10.4,7.8-19.4,17.2-29.4,25.3
		C81.3,437.7,90.7,427.5,100.4,417.9z"/>
	<path class="st2" d="M511.7,429.3c13.7-12.9,25.9-27.5,35.7-43.6c23.4,13.6,44.5,31.4,61.2,52.7c2.5,3.3,5.4,6.5,7.2,10.3
		c-10-7.6-18.5-17.1-28.7-24.4c1,11.8,2.4,23.7,1.9,35.6c-9.8-15.7-22.4-29.4-35.3-42.7c-18.4,19.5-43.5,33.1-70.3,36.3
		C492.9,445.5,502.9,438.1,511.7,429.3z"/>
	<path class="st2" d="M428.6,516.1c12.9-11,24.9-23.9,31-40c-3.1,20.7-12.4,40.2-25.8,56.2c-9,10.9-20.2,19.7-32.3,26.8
		c-17.3,8.6-36.5,13.2-55.8,14.1c-19.6-0.7-39.3-5.5-56.9-14.2c-29.5-16.8-51.6-46.7-57.3-80.3c4.2,7.8,8.7,15.5,14.6,22
		c11.5,12.8,25,23.8,40,32.5c-0.7-6.5-1.9-13-1.9-19.5c4,5.9,7.6,12.1,12.5,17.4c11.8,13.5,27.8,23.4,45.2,27.9
		c4.5,1.3,9-0.7,13.3-2.1c22-7.4,40.8-23.9,51.2-44.6c-0.2,7-1.2,14-2.2,20.9C413,528.5,420.9,522.4,428.6,516.1z"/>
</g>
<g id="_x23_232321ff">
	<path class="st3" d="M261.6,13.1c31-9.4,63.6-14.6,96.1-12.8c20.1,0.7,40.1,4.4,59.5,9.5c36.5,9.7,71.9,24.3,103.2,45.6
		c27.1,18.4,50.8,42.2,67.7,70.3c4.2,6.9,7.9,14.2,11.4,21.5c16.8,4.8,32.9,12.5,46.9,23.1c4.4,26.4,5.8,53.4,4.7,80.1
		c11.5,12.3,17.9,28.6,19.8,45.2c2.5,23.1-3.1,46.4-12.3,67.6c-7.4,16.2-15.1,32.5-26.3,46.5c22.5,22.1,36.5,51.5,45.4,81.5
		c6,20.5,9.9,41.7,11.4,63c2.6,29.8,1.2,60.8-9.7,89c-6.2,15.8-15.7,30.4-28.4,41.6c-13.7,12.2-30.7,20.2-48.5,24.3
		c-12,2.6-24.4,4.1-36.6,2.6c-5.5-0.7-8.5-5.9-10.7-10.3c-5.5-12.4-7.6-25.9-9.6-39.2c-6-6.3-13.9-10.4-21.6-14.4
		c-19.8-9.5-41.2-15.3-62.6-20.1c-38.2-8.3-77.1-13.3-116.1-15.9c-21.8,1.2-43.4,3.8-65,6.7c-28,4-55.9,9.2-82.9,17.3
		c-16.5,5.2-33,11.3-47.2,21.3c-2.2,2-5.8,3.3-6.1,6.7c-1.8,12.7-3.9,25.5-9.1,37.3c-2.2,4.9-5.6,10.5-11.6,10.8
		c-16.2,1.5-32.7-1.1-48.1-6.2c-18-6.1-34.6-16.9-46.7-31.6C17,659.7,9.3,642.3,5.1,624.3c-3.5-14.4-4.7-29.3-5.1-44.1
		c0.6-43.8,8.4-88.2,27.8-127.8c7.8-15.7,17.9-30.3,30.3-42.8c-7.7-9.4-13.9-20-19-31c-10.7-20.6-18.9-43-20-66.4
		c-1-19.2,3.4-39.1,14.7-54.9c1.7-2.4,4-4.4,5.4-7c-0.6-26.8,0.1-53.8,5-80.2c12.7-9.4,26.9-16.6,41.9-21.4c2.3-0.8,5.4-1.1,6.1-3.8
		c14.7-31.5,37.6-58.8,65-80C188.1,40.9,224.2,24.3,261.6,13.1 M252.4,64.9c-35.7,14.2-67.8,37.1-93,66
		c-15.2,17.7-28.6,37.1-38.6,58.2c24.7-38.3,57.9-71.3,97.1-94.7c26.3-15.8,55.5-27,85.7-32.1c51.4-9.1,105.6-0.9,152,22.7
		c32.7,16.4,61.9,39.6,86.1,67c10.2,11.3,19,23.7,27.8,36.2c-22-44.3-56.3-82.9-99.2-107.7c-39.4-22.8-85.1-34.8-130.7-33.6
		C309.8,47.5,280.1,54,252.4,64.9 M269.9,107.7c-15.8,6.7-31.4,14.4-45.1,24.9c-25.8,19.2-46.7,45.5-58.1,75.7
		c-10.4,30.7-14,63.9-9.4,96c3.3,23.4,11.2,46.1,22.3,67c7.1,12.6,15,25,25.5,35c2.9-23.1,16.4-43.8,34.6-57.9
		c9.1-7,19.1-13.3,30-17.2c-17.9,13.4-33.5,32.2-36.9,54.9c-2,9.8-0.3,19.9,2.4,29.4c4.7,15.5,14.6,30.2,29,38.2
		c10.8,5.9,23.5,6.3,35.4,5.1c17.6-2.3,33.1-12.4,45.7-24.5c8.5,8.3,18.2,15.7,29.3,20.1c13.2,5.5,28.2,6.4,42,3.1
		c17.1-4.4,29.5-19.3,36.1-35c4.6-11.7,7.3-24.7,4.6-37.2c-2.5-16.9-12.4-31.8-24.5-43.6c-3.7-3.8-8.1-6.8-11.7-10.6
		c13.5,5.2,25.7,13.4,36.4,23.1c14.7,13.5,25.1,32,27.6,51.9c12.8-12.2,21.9-27.8,29.9-43.4c9.7-20.3,16.3-42.2,18.8-64.7
		c1.5-10.9,0.8-22,0.9-32.9c-1-20-5-39.8-11.7-58.7c-13.7-35-40-64.4-71.9-83.9c-15.1-8.8-31.1-15.9-47.7-21.2
		c-18.4-5.6-37.6-10.1-56.9-9.3C320.3,91.2,294.3,98.1,269.9,107.7 M65,180.5c-1.4,17-2.9,34-4.1,51c5.7-2.1,10.5-6,15.5-9.5
		c2.8-2.2,6.1-3.9,8.3-6.8c0.6-2.4,0.4-4.8,0.6-7.3c0.8-12.6,1.8-25.1,2.3-37.7C79.6,172.5,71.9,175.8,65,180.5 M603.1,170.4
		c0,9.7,1.3,19.3,1.6,28.9c0.4,5,0.5,10,1,14.9c0.2,1.8,1.9,2.8,3.2,3.9c6.6,4.8,13,10.1,20.5,13.5c-0.1-11.8-1.9-23.6-2.5-35.4
		c-0.6-4.6-0.6-9.3-1.3-13.9c-0.1-2.4-2.6-3.4-4.3-4.5C615.5,174.7,609.5,171.9,603.1,170.4 M90,242.7c-1.5,4.9-2.7,9.9-3.5,15
		l-0.2,0.1c-1,7.6-2,15.4-1.4,23c0.2,3.6,0.4,7.3,0.7,10.9c2.2,24.9,11.2,48.7,23.3,70.4c0.5,0.9,1.2,1.7,1.9,2.4
		c5.1-2.3,9.8-5.4,14.9-7.8c-7.8-27.7-9.6-56.8-9.3-85.5c-0.2-13,1.2-25.9,1.8-38.9C108.4,235,98.9,238.4,90,242.7 M572.3,232.1
		c0.3,10.4,1.8,20.7,1.7,31.1c-0.1,14.7,0.5,29.5-1,44.2c-1.1,16.7-4,33.2-8.2,49.3l-0.1,0.1c4.8,2.1,9.4,4.8,14,7.3
		c1.3,1.2,2.2-1,2.8-1.8c12.4-21.6,21-45.6,23.6-70.5c0.2-3.6,0.5-7.2,0.8-10.8l-0.5-0.2c1.1-8.5-0.2-17.2-1.6-25.7
		c-0.7-4.3-1.9-8.6-3.3-12.8C591.5,238.2,582,234.6,572.3,232.1 M53.6,279.4C44.5,299.1,47,322,53.9,342
		c5.5,16.6,14.8,33.2,30.4,42.1c4-3.4,8.3-6.5,12.3-10c-7.2-13-13.8-26.5-18.2-40.9c-5.3-16.1-7.5-33.1-7.3-50
		c0.5-5.8,1-11.5,1.7-17.3c1.2-5.4,2.6-10.8,4.6-16C66.8,257.1,58.5,267.7,53.6,279.4 M612.8,249.5c1.7,5.4,3.5,10.8,4.5,16.3
		l0.4,0.3c0.3,7.1,2.1,14,1.5,21.1c-0.4,5.9-0.2,11.9-0.9,17.8c-2.9,24.5-12.2,47.8-24.5,69.1c4.3,3.2,8.2,6.9,12.6,9.8
		c10.7-5.6,17.9-16,23.6-26.3c7.8-15.3,12.3-32.4,13-49.6c-0.2-0.3-0.6-0.9-0.9-1.2c1.3-5.1-0.3-10.3-1.1-15.3
		c-1-3.4-1.4-7.2-3.2-10.3C633.1,268.4,624.2,257.1,612.8,249.5 M100.4,417.9c-9.6,9.7-19,19.8-26.2,31.4c-3.9,4.6-6.7,10-9.9,15.1
		c-5.8,10.4-11,21.3-14.5,32.7c21.7,27.3,50.7,49.8,84.4,59.9c10.5-11.9,21.6-23.4,33.9-33.4c4.9-3.9,10-7.6,15.8-9.9
		c-17.4,27.6-31.2,58.6-33.4,91.5c4.7-1.3,9.5-2.6,14.2-3.8c5.2-1.3,10.3-2.5,15.5-3.6v-0.2c4.9-1,9.8-2.1,14.7-3.1
		c10.1-2.2,20.2-4,30.4-5.8c14.1-2.6,28.3-4.4,42.4-6.6c-9.2-8.4-17.7-17.5-25.3-27.3c-9.4-12.2-17.6-25.7-22-40.6
		c6.1,5.1,11.8,10.7,18.1,15.4c15.5,11.9,32.3,22.3,50.5,29.5c17.6,8.8,37.2,13.5,56.9,14.2c19.3-0.9,38.5-5.5,55.8-14.1
		c10.2-3.9,19.8-9.2,29.2-14.8c14.4-8.8,27.9-19,39.9-30.9c-3.5,12.2-9.7,23.4-16.8,33.8c-8.9,12.6-19.2,24.4-30.8,34.7
		c14.1,2.3,28.3,4.1,42.3,6.5l-0.1,0.1c10.2,1.7,20.4,3.7,30.5,5.8c5,1,9.9,2.1,14.8,3.2c5.1,1.2,10.2,2.4,15.3,3.7
		c4.8,1.2,9.6,2.5,14.3,3.8c-2.4-32.9-16.1-64-33.6-91.6c6,2.5,11.3,6.3,16.4,10.4c12.1,10,23,21.3,33.4,33
		c33.6-10.2,62.7-32.6,84.3-59.9c-3.5-11.4-8.6-22.3-14.5-32.7c-3.3-5.4-6.2-11.2-10.5-15.9c-1.8-3.8-4.7-7-7.2-10.3
		c-16.8-21.3-37.8-39.1-61.2-52.7c-9.8,16.1-22,30.7-35.7,43.6c-8.8,8.8-18.8,16.2-28.3,24.2c-0.3,0.1-1,0.3-1.4,0.3
		c-3.1,2.5-7,4.1-9.3,7.5c-3.3,4.7-7.7,8.5-12.3,11.9c-13.1,9-29.3,11.6-44.8,12.6c-12.2,9.9-25.9,18.2-41,23
		c-15.1,5-31.4,6.5-47,3.1c-19.4-4-37.6-13.2-52.6-26.2c-15.8-0.8-32.1-3.5-45.3-12.7c-4.6-3.3-8.8-7.2-12.1-11.8
		c-2.3-3.3-6-5-9.2-7.2c-0.3-0.2-1-0.6-1.4-0.8c-24.7-18.8-47.8-40.6-63.8-67.5C127.6,394.4,113.3,405.5,100.4,417.9 M38.2,542.1
		C34,561.4,32.3,581.5,36,601c3.1,19.1,11.7,37.7,26,50.9c12.6,11.5,28.6,19.2,45.4,22.5c0.2-13.1,2-26.1,3.4-39.2
		c2.2-15.3,4.3-30.9,10.6-45.2c-9.5-4.3-19.4-8.1-28.7-12.8c-16.8-8.6-33.2-18.3-47.8-30.3C42.8,545.1,40.6,543.5,38.2,542.1
		 M569,590c4.9,11,7.1,22.8,9.2,34.6c2.6,16.5,3.8,33.2,5.3,49.8c25.3-5.1,49.3-20.6,61.2-44c8.5-16.3,12-35,11.5-53.2
		c0.2-11.9-1.3-23.8-4.3-35.3C627.5,562.8,598.8,578.2,569,590z"/>
	<path class="st3" d="M228,247.6c6.2-9.9,18-15.5,29.5-14.9c10.1,0.2,22,4.5,25.6,14.8c-6.9,0-13.7-1.9-20.5-0.7
		c-14.9,1.1-29.6,8.6-37.8,21.4C222.9,261.3,224.5,253.8,228,247.6z"/>
	<path class="st3" d="M417.6,236.2c9-4.5,19.9-4.7,29.4-1.4c8.8,3.5,16.8,10.8,18.7,20.4c1.2,4.3,1.4,8.8,0,13.1
		c-8.3-12.3-22.4-20-37.1-21.2c-7.3-1.4-14.6,0.3-21.9,1C408.7,242.9,412.4,238.4,417.6,236.2z"/>
	<path class="st3" d="M264.4,285.1c4.7-3.9,11.4-3.9,16.9-2c-1.5,1.8-3.8,3.5-3.5,6.1c-0.2,3.2,2.6,6.2,5.8,6.1
		c2.3,0.2,4.1-1.5,6-2.6c0.1,2.2,0.3,4.4,0.3,6.6c-1.3,5.9-5.4,10.5-10.6,13.2c-6.3,2.2-13.8,0-17.8-5.3
		C256.3,300.7,257.6,290.1,264.4,285.1z"/>
	<path class="st3" d="M409.3,283.1c4.4-1.5,9.3-2.1,13.5,0c7.5,3.2,11.3,12.5,8.4,20.1c-2.8,8-12.4,12.3-20.3,9.4
		c-5.4-2.8-9.6-7.7-10.4-13.9c0.1-2,0.3-4,0.4-6c1.8,1.1,3.4,2.8,5.7,2.6c3.7,0.2,6.8-3.6,6.1-7.1
		C412.3,286.1,410.5,284.7,409.3,283.1z"/>
	<path class="st3" d="M285.7,371.9c5.7-1.7,11.4,4.8,9.8,10.3c-1,3.5-4,5.9-6.6,8.2c-8.4,6.9-17.3,13-26.5,18.8
		c-1.5-8.6,0.3-18,4.5-25.6C270.6,376.7,278.2,372.9,285.7,371.9z"/>
	<path class="st3" d="M401,371.8c7.9-0.1,16,3,20.9,9.3c6.2,8,6.9,18.5,6.5,28.2c-9.3-5.3-18-11.8-26.5-18.4
		c-3.5-2.7-7-6.1-7.4-10.7C394.7,376.4,397.6,373.1,401,371.8z"/>
	<path class="st3" d="M331.2,652.1c7.7-0.7,15.8-1,23.2,1.5c5.4,1.8,8.7,7.3,9.7,12.7c1.5,8.2,1.4,16.6,0.8,24.9
		c-0.6,5.7-1.7,12.1-6.4,15.9c-5,3.9-11.8,4.1-17.9,4.3c-5.9-0.1-12-0.1-17.4-2.7c-4.7-2.3-7.2-7.4-8.1-12.3
		c-1.4-7.6-1.4-15.5-0.9-23.2c0.5-5.4,1.3-11.2,4.8-15.5C321.9,654,326.7,652.6,331.2,652.1 M335.1,663.9c-4.8,1.3-5.9,6.9-6,11.3
		c-0.1,6.4-0.8,13.1,1.2,19.4c1.8,5,7.8,5.7,12.3,4.8c3.3-0.3,6-2.9,6.7-6.1c1.2-5.6,0.9-11.3,0.8-17c-0.3-3.8-0.3-8.2-3.4-10.9
		C343.5,662.9,338.9,663,335.1,663.9z"/>
	<path class="st3" d="M170.8,659.4c0.1-4,3.7-7.1,7.6-7c10.3-0.2,20.5-0.1,30.8,0c-0.1,3.9-0.1,7.8,0,11.7
		c-7.5,0.3-15.1-0.6-22.5,0.5c-2.6,2.9-0.9,7.5-1.4,11.1c7.7,0,15.4,0,23.1,0c0,3.6,0,7.3,0,10.9c-7.7,0-15.4,0-23.1,0
		c0,3.6-0.4,7.3,0.3,10.8c0.6,1.6,2.5,1.5,3.9,1.6c6.7,0.1,13.3,0,20,0c0,3.9,0,7.8,0,11.7c-9.6,0-19.3,0-28.9,0c-2.8,0-6-0.3-8-2.5
		c-2.2-2.4-1.9-5.9-2-8.9C170.8,686,170.5,672.7,170.8,659.4z"/>
	<path class="st3" d="M215,659.7c1.3-4.5,6-7.3,10.6-7.3c9.6-0.2,19.3,0,28.9-0.1c0,3.9,0,7.8,0,11.7c-7,0-13.9,0-20.9,0
		c-1.7,0.1-4.4,0-4.9,2.2c-0.6,2.2,1.1,4.1,2.8,5.2c6.4,4,13.6,6.7,19.7,11.2c3.4,2.4,5.2,6.5,5.3,10.6c0.2,4.5,0.1,9.6-2.7,13.4
		c-2.3,3.2-6.5,4.1-10.3,4.1c-9.7,0-19.3,0-28.9,0c0-3.9,0-7.8,0-11.7c8-0.1,15.9,0.2,23.9-0.1c2.9,0.1,4.3-3.8,2.3-5.8
		c-3.2-3.2-7.6-4.5-11.5-6.6c-5-2.7-11.2-4.7-13.7-10.3C213.6,671,213.6,665,215,659.7z"/>
	<path class="st3" d="M265.7,654.3c2.7-2.4,6.6-2,10-2.1c6.7,0.1,13.3-0.1,20,0.1c5.1,0.1,10.1,3.2,11.8,8.1c2,6.7,1.8,14,0.7,20.8
		c-0.9,5.3-5.2,9.7-10.6,10.3c-6.6,0.7-13.2,0.1-19.8,0.3c0,6.2,0,12.5,0,18.7c-4.9,0-9.7,0-14.6,0c0-16.1,0-32.2,0-48.4
		C263.2,659.5,263.4,656.2,265.7,654.3 M278,666.5c-0.4,4.5-0.1,9.1-0.2,13.7c4.5-0.3,9.3,0.9,13.5-1.1c3.3-2.7,2.9-7.8,1.9-11.5
		c-1.5-3.8-6.3-3.4-9.6-3.6C281.6,664,278.2,663.7,278,666.5z"/>
	<path class="st3" d="M374.9,654.5c2-2,5-2.3,7.6-2.3c7.3,0,14.7,0,22,0c4.5-0.1,9.7,0.6,12.6,4.5c3.2,4.5,3.2,10.3,3.3,15.6
		c-0.2,5.8-0.6,12.5-5,16.8c-2,2.1-5,2.3-7.7,2.7c4.7,6.3,9.3,12.6,13.9,18.9c-5.6,0-11.3,0-16.9,0c-3.5-5.7-7.3-11.2-10.8-16.9
		c-2.1-3.3-3.1-7.8-1.3-11.4c3-3.7,9.5,0.3,12.1-4.2c1.4-3.5,1.3-7.6,0.2-11.2c-1.7-3.9-6.9-2.7-10.3-3c-2.6,0.1-7.5-0.7-7.3,3.3
		c-0.2,14.5,0.1,28.9-0.1,43.4c-4.8-0.1-9.7-0.1-14.5-0.1c0-16.2,0-32.3,0-48.5C372.7,659.5,372.9,656.5,374.9,654.5z"/>
	<path class="st3" d="M423.8,652.3c16,0,31.9,0,47.9,0c0,3.9,0,7.8,0,11.8c-5.5,0-11,0-16.5-0.1c-0.2,15.6,0,31.1-0.1,46.7
		c-4.9,0-9.7,0-14.6,0c0-15.5,0-31.1,0-46.6c-5.5,0-11.1,0-16.7,0C423.8,660.1,423.8,656.2,423.8,652.3z"/>
	<path class="st3" d="M477,656.7c2.3-3.3,6.7-4.5,10.6-4.4c9.1,0,18.2,0,27.4,0c0,3.9,0,7.8,0,11.8c-6.8,0-13.5,0-20.3,0
		c-1.8,0.1-3.8,0-5.1,1.3c-1.2,2.2,0.1,4.7,2.1,5.9c4.3,2.8,9.1,5,13.7,7.5c4.5,2.4,9.6,5.3,11.1,10.6c1.2,4.9,1.1,10.2-0.6,14.9
		c-1.5,4.2-6,6.5-10.3,6.5c-10.1,0.1-20.2,0-30.3,0c0-3.9,0-7.8,0-11.7c7.5,0,15,0,22.5,0c1.8,0.1,4.2-0.6,4.5-2.7
		c0.5-2.4-1.6-4.1-3.4-5.2c-5.8-3.3-12.1-5.8-17.8-9.3c-3.9-2.4-6.1-6.9-6.4-11.4C474.3,665.7,474.3,660.6,477,656.7z"/>
</g>
<g id="_x23_3f3f41ff">
	<path class="st1" d="M269.9,107.7c24.3-9.5,50.3-16.5,76.7-15.4c19.4-0.8,38.5,3.7,56.9,9.3c16.6,5.4,32.7,12.4,47.7,21.2
		c31.9,19.5,58.2,48.9,71.9,83.9c6.6,18.9,10.7,38.7,11.7,58.7c0,11,0.6,22-0.9,32.9c-2.5,22.4-9.1,44.3-18.8,64.7
		c-8,15.6-17,31.2-29.9,43.4c-2.5-19.9-13-38.4-27.6-51.9c-10.7-9.6-22.9-17.9-36.4-23.1c3.6,3.8,8.1,6.8,11.7,10.6
		c12,11.7,21.9,26.7,24.5,43.6c2.6,12.5,0,25.5-4.6,37.2c-6.7,15.7-19,30.6-36.1,35c-13.9,3.3-28.8,2.4-42-3.1
		c-11.1-4.4-20.9-11.7-29.3-20.1c-12.6,12.1-28.1,22.2-45.7,24.5c-11.9,1.2-24.6,0.8-35.4-5.1c-14.4-8-24.3-22.6-29-38.2
		c-2.6-9.5-4.3-19.6-2.4-29.4c3.4-22.7,19-41.5,36.9-54.9c-10.9,3.9-20.8,10.2-30,17.2c-18.2,14.1-31.7,34.8-34.6,57.9
		c-10.5-10-18.4-22.4-25.5-35c-11.1-20.9-19.1-43.5-22.3-67c-4.6-32.2-1-65.3,9.4-96c11.4-30.2,32.3-56.5,58.1-75.7
		C238.5,122,254.1,114.4,269.9,107.7 M228,247.6c-3.6,6.1-5.1,13.7-3.2,20.6c8.2-12.8,22.9-20.3,37.8-21.4
		c6.9-1.3,13.7,0.6,20.5,0.7c-3.7-10.3-15.5-14.6-25.6-14.8C246.1,232.2,234.2,237.8,228,247.6 M417.6,236.2
		c-5.2,2.2-8.9,6.7-10.9,11.9c7.3-0.7,14.6-2.3,21.9-1c14.7,1.3,28.7,9,37.1,21.2c1.4-4.3,1.2-8.8,0-13.1c-2-9.6-9.9-17-18.7-20.4
		C437.5,231.4,426.6,231.7,417.6,236.2 M249.9,265.6c-9.3,4.8-15.5,15.2-15,25.7c0,11,7.3,21.3,17.3,25.5c9.5,3.9,21.2,2.1,29-4.6
		l-1.8,0.5c5.3-2.7,9.4-7.3,10.6-13.2c3-9.2,1-19.8-5.4-27.1C276.4,262.5,261.1,259.4,249.9,265.6 M415.5,265
		c-12.4,5.5-19.5,20.7-15,33.6c0.8,6.1,5,11.1,10.4,13.9l-1.7-0.4c7,6,16.9,8.1,25.8,5.8c9.3-2.6,17-10.3,19.6-19.6
		c3.1-10.6-0.7-22.8-9.4-29.7C437.2,261.7,425.1,260.6,415.5,265 M285.7,371.9c-7.5,1-15.1,4.8-18.7,11.7c-4.3,7.7-6.1,17-4.5,25.6
		c9.2-5.8,18.1-11.9,26.5-18.8c2.6-2.3,5.6-4.7,6.6-8.2C297,376.7,291.4,370.3,285.7,371.9 M401,371.8c-3.4,1.4-6.3,4.7-6.5,8.5
		c0.4,4.6,4,8,7.4,10.7c8.5,6.5,17.1,13,26.5,18.4c0.4-9.7-0.3-20.3-6.5-28.2C417,374.8,408.8,371.6,401,371.8z"/>
	<path class="st1" d="M65,180.5c6.9-4.7,14.6-8,22.6-10.3c-0.5,12.6-1.6,25.1-2.3,37.7c-0.1,2.4,0,4.9-0.6,7.3
		c-2.2,2.9-5.5,4.6-8.3,6.8c-5,3.4-9.8,7.3-15.5,9.5C62.1,214.4,63.6,197.4,65,180.5z"/>
	<path class="st1" d="M603.1,170.4c6.4,1.5,12.4,4.3,18.2,7.3c1.7,1.1,4.2,2.1,4.3,4.5c0.7,4.6,0.7,9.3,1.3,13.9
		c0.6,11.8,2.4,23.6,2.5,35.4c-7.5-3.4-13.9-8.7-20.5-13.5c-1.3-1.1-3-2.1-3.2-3.9c-0.6-4.9-0.6-10-1-14.9
		C604.4,189.6,603,180,603.1,170.4z"/>
	<path class="st1" d="M86.4,257.7c5.5-2.6,11.2-5,17.1-6.5c-0.4,7-0.8,13.9-0.6,20.9c-6.1,2.8-12.1,5.8-18.1,8.7
		c-0.6-7.7,0.4-15.4,1.4-23L86.4,257.7z"/>
	<path class="st1" d="M587,251.3c6,1.4,11.7,3.9,17.3,6.5c-0.1-0.6-0.3-1.9-0.4-2.6c1.4,8.4,2.7,17.1,1.6,25.7c-5.9-3-11.9-6-18-8.7
		C587.5,265.2,587.7,258.2,587,251.3z"/>
	<path class="st1" d="M53.1,281.1c6.6-5,12.8-10.5,19.8-15c-0.7,5.8-1.2,11.5-1.7,17.3c-0.2,16.9,2,33.9,7.3,50
		c4.3,14.3,10.9,27.8,18.2,40.9c-4,3.4-8.3,6.6-12.3,10c-15.6-8.9-24.9-25.6-30.4-42.1c-6.9-20-9.4-42.9-0.3-62.6L53.1,281.1
		 M48.1,307.5c7.7-3.3,15.1-7.3,22.9-10.3c-0.1-2.7-0.2-5.4-0.3-8.1C62.5,294.2,53.9,299.5,48.1,307.5z"/>
	<path class="st1" d="M617.7,266.1c7.1,4.5,13.2,10.3,20.1,15.1c1.8,3.1,2.2,6.9,3.2,10.3c0.9,5,2.4,10.2,1.1,15.3
		c-6.2-7.5-14.4-12.9-22.6-18c-0.1,2.8-0.1,5.5-0.2,8.3c8.1,3.2,15.9,7,23.6,10.9c-0.7,17.2-5.1,34.3-13,49.6
		c-5.7,10.3-12.9,20.7-23.6,26.3c-4.4-3-8.4-6.6-12.6-9.8c12.3-21.2,21.6-44.6,24.5-69.1c0.8-5.9,0.5-11.9,0.9-17.8
		C619.8,280.1,618,273.2,617.7,266.1z"/>
	<path class="st1" d="M85.5,291.8c6-1.8,12.1-3.3,18.3-4.5c2.5,24.2,7.6,49.2,21.7,69.5c-5.1,2.4-9.8,5.5-14.9,7.8
		c-0.7-0.7-1.4-1.5-1.9-2.4C96.7,340.5,87.7,316.7,85.5,291.8z"/>
	<path class="st1" d="M586.7,287.3c6.3,1.2,12.4,2.8,18.5,4.5c-2.6,24.9-11.2,48.8-23.6,70.5c-0.6,0.9-1.5,3.1-2.8,1.8
		c-4.6-2.5-9.2-5.1-14-7.3l0.1-0.1c4.2-5.5,7.3-11.8,10-18.2C581.7,322.3,585,304.8,586.7,287.3z"/>
	<path class="st1" d="M38.2,542.1c2.4,1.4,4.6,3,6.7,4.8c14.6,12,31,21.7,47.8,30.3c9.4,4.7,19.2,8.5,28.7,12.8
		c-6.3,14.3-8.4,29.9-10.6,45.2c-1.4,13-3.2,26.1-3.4,39.2c-16.7-3.3-32.7-11-45.4-22.5c-14.4-13.2-22.9-31.8-26-50.9
		C32.3,581.5,34,561.4,38.2,542.1z"/>
	<path class="st1" d="M569,590c29.8-11.8,58.4-27.2,83-48c3,11.5,4.5,23.4,4.3,35.3c0.5,18.3-3,36.9-11.5,53.2
		c-11.9,23.4-35.9,38.8-61.2,44c-1.5-16.6-2.7-33.3-5.3-49.8C576.2,612.8,574,600.9,569,590z"/>
</g>
<g id="_x23_949599ff">
	<path class="st4" d="M90,242.7c9-4.4,18.4-7.7,28-10.4c-0.6,13-2,25.9-1.8,38.9c-0.3,28.7,1.6,57.7,9.3,85.5
		c-14.2-20.3-19.2-45.3-21.7-69.5c-6.2,1.2-12.3,2.8-18.3,4.5c-0.3-3.6-0.4-7.3-0.7-10.9c6.1-2.9,12-5.9,18.1-8.7
		c-0.2-7,0.1-13.9,0.6-20.9c-5.9,1.5-11.6,3.8-17.1,6.5C87.3,252.7,88.5,247.7,90,242.7z"/>
	<path class="st4" d="M572.3,232.1c9.7,2.5,19.1,6.1,28.3,10.3c1.4,4.2,2.5,8.4,3.3,12.8c0.1,0.6,0.3,1.9,0.4,2.6
		c-5.6-2.6-11.3-5.1-17.3-6.5c0.6,6.9,0.4,13.9,0.5,20.9c6.1,2.7,12,5.6,18,8.7l0.5,0.2c-0.3,3.6-0.6,7.2-0.8,10.8
		c-6.1-1.8-12.3-3.4-18.5-4.5c-1.6,17.5-5,35-11.7,51.3c-2.7,6.4-5.8,12.7-10,18.2c4.2-16.2,7.1-32.7,8.2-49.3
		c1.4-14.7,0.8-29.4,1-44.2C574.1,252.9,572.7,242.5,572.3,232.1z"/>
	<path class="st4" d="M53.6,279.4c5-11.7,13.2-22.3,23.9-29.3c-2,5.2-3.4,10.6-4.6,16c-7,4.5-13.2,10-19.8,15L53.6,279.4z"/>
	<path class="st4" d="M612.8,249.5c11.4,7.6,20.3,18.9,25,31.7c-6.8-4.8-13-10.6-20.1-15.1l-0.4-0.3
		C616.3,260.3,614.5,254.9,612.8,249.5z"/>
	<path class="st4" d="M48.1,307.5c5.8-8,14.4-13.3,22.6-18.4c0.1,2.7,0.2,5.4,0.3,8.1C63.2,300.1,55.8,304.1,48.1,307.5z"/>
	<path class="st4" d="M619.6,288.8c8.2,5.1,16.4,10.5,22.6,18c0.2,0.3,0.6,0.9,0.9,1.2c-7.7-3.9-15.5-7.7-23.6-10.9
		C619.5,294.3,619.5,291.6,619.6,288.8z"/>
</g>
<g id="_x23_f1f3f2ff">
	<path class="st5" d="M249.9,265.6c11.3-6.2,26.5-3.1,34.7,6.7c6.4,7.3,8.4,17.9,5.4,27.1c0-2.2-0.2-4.4-0.3-6.6
		c-1.9,1.1-3.7,2.8-6,2.6c-3.2,0.1-6.1-2.9-5.8-6.1c-0.3-2.6,2-4.4,3.5-6.1c-5.6-2-12.2-2-16.9,2c-6.8,5-8.1,15.7-2.8,22.2
		c4,5.3,11.5,7.5,17.8,5.3l1.8-0.5c-7.8,6.7-19.5,8.6-29,4.6c-10.1-4.2-17.3-14.5-17.3-25.5C234.4,280.7,240.6,270.4,249.9,265.6z"
		/>
	<path class="st5" d="M415.5,265c9.5-4.5,21.6-3.3,29.7,3.6c8.6,6.9,12.5,19.1,9.4,29.7c-2.5,9.3-10.3,17-19.6,19.6
		c-8.8,2.3-18.8,0.2-25.8-5.8l1.7,0.4c7.9,2.9,17.5-1.4,20.3-9.4c3-7.6-0.9-16.9-8.4-20.1c-4.3-2.1-9.2-1.4-13.5,0
		c1.3,1.6,3,3,3.4,5.1c0.7,3.6-2.4,7.4-6.1,7.1c-2.2,0.2-3.9-1.5-5.7-2.6c-0.2,2-0.4,4-0.4,6C396,285.8,403.1,270.5,415.5,265z"/>
	<path class="st5" d="M101.6,459.8c9.9-15.7,22.3-29.7,35.6-42.6c12.9,14.1,29.6,24.7,47.6,31c7.3,2.4,14.7,4.8,22.4,5
		c0.4,0.2,1,0.6,1.4,0.8c-12.8,6-24.7,13.7-36.4,21.5c-17.3,11.6-34,24.1-50.4,36.9c-22.8-10.8-41.8-28.3-57.4-48
		c3.1-5.1,5.9-10.5,9.9-15.1c10.1-8.2,19.1-17.5,29.4-25.3C102.3,435.9,101.2,447.9,101.6,459.8z"/>
	<path class="st5" d="M483.4,453.5c26.8-3.2,51.8-16.8,70.3-36.3c12.9,13.2,25.5,26.9,35.3,42.7c0.5-11.9-0.8-23.8-1.9-35.6
		c10.3,7.3,18.7,16.8,28.7,24.4c4.2,4.7,7.2,10.5,10.5,15.9c-15.6,19.6-34.6,37.2-57.4,48c-11.8-9.4-23.9-18.4-36.2-27.2
		c-16.2-11.4-32.8-22.6-50.6-31.4C482.3,453.7,483,453.6,483.4,453.5z"/>
	<path class="st5" d="M229.8,473c13.2,9.2,29.6,11.9,45.3,12.7c15,12.9,33.2,22.2,52.6,26.2c15.6,3.4,31.9,1.8,47-3.1
		c15.1-4.8,28.8-13,41-23c15.5-1,31.7-3.5,44.8-12.6c-0.3,1-0.6,2-0.9,3c-6.1,16.1-18.1,29-31,40c-7.7,6.3-15.6,12.5-24.3,17.1
		c1-7,2-13.9,2.2-20.9c-10.5,20.7-29.2,37.2-51.2,44.6c-4.3,1.4-8.8,3.3-13.3,2.1c-17.4-4.5-33.4-14.3-45.2-27.9
		c-4.9-5.3-8.5-11.5-12.5-17.4c0,6.6,1.1,13,1.9,19.5c-14.9-8.6-28.5-19.6-40-32.5c-6-6.6-10.4-14.3-14.6-22
		C231,476.8,230.4,474.9,229.8,473z"/>
	<path class="st5" d="M205.8,557.6c6,10.6,12,21.3,19.4,31c-10.2,1.8-20.3,3.7-30.4,5.8C196.9,581.8,199.9,569.1,205.8,557.6z"/>
	<path class="st5" d="M465.3,588.6c7.6-9.6,13.4-20.4,19.4-30.9c6,11.5,9,24.2,11,36.8c-10.1-2.1-20.3-4.1-30.5-5.8L465.3,588.6z"/>
</g>
<g id="_x23_0084ffff">
	<path class="st0" d="M172,475.5c11.8-7.8,23.7-15.5,36.4-21.5c3.2,2.2,6.9,4,9.2,7.2c3.3,4.6,7.5,8.5,12.1,11.8
		c0.6,1.9,1.2,3.8,1.7,5.7c5.6,33.6,27.8,63.6,57.3,80.3c-18.2-7.3-35-17.6-50.5-29.5c-6.4-4.7-12.1-10.3-18.1-15.4
		c4.4,14.9,12.7,28.3,22,40.6c7.6,9.9,16.1,19,25.3,27.3c-14.1,2.2-28.3,4-42.4,6.6c-7.4-9.7-13.3-20.4-19.4-31
		c-5.9,11.5-8.9,24.2-11,36.8c-4.9,1-9.8,2.1-14.7,3.1c0.1-18.1,3.2-36.1,8.4-53.4c2.2-7.6,5.7-14.8,8.2-22.3
		c-4.5,4.3-7.3,9.9-10.3,15.3c-10.5,20.2-16.7,42.2-21.9,64.2c-4.7,1.2-9.5,2.5-14.2,3.8c2.3-32.9,16-63.9,33.4-91.5
		c-5.8,2.3-10.9,6-15.8,9.9c-12.3,10.1-23.4,21.5-33.9,33.4c-33.7-10.1-62.7-32.6-84.4-59.9c3.5-11.4,8.7-22.3,14.5-32.7
		c15.6,19.7,34.6,37.2,57.4,48C138,499.6,154.7,487.1,172,475.5 M63.7,489.2c15.2,20.9,36,37.3,58.9,49c2.5,1.2,5.1,2.7,7.9,3
		c4.3-4.3,8.3-9.1,12.8-13.3c9.1-9.4,19.6-17.2,30.4-24.5c-16.5,4.7-32.2,13.4-44.4,25.5c-19.1-7.7-36.9-18.7-53.5-30.9
		C71.8,495.1,68.2,491.5,63.7,489.2z"/>
	<path class="st0" d="M472.7,461.3c2.3-3.4,6.2-5,9.3-7.5c17.8,8.9,34.4,20,50.6,31.4c12.3,8.8,24.4,17.8,36.2,27.2
		c22.9-10.8,41.8-28.3,57.4-48c5.9,10.4,11,21.2,14.5,32.7C619,524.5,590,546.8,556.4,557c-10.4-11.7-21.3-23-33.4-33
		c-5-4.1-10.4-7.9-16.4-10.4c17.5,27.6,31.2,58.6,33.6,91.6c-4.8-1.3-9.6-2.6-14.3-3.8c-4.3-19.5-10-38.8-18.2-57
		c-3.8-7.6-7.2-15.6-13.3-21.7c1.3,5.3,3.9,10.2,5.6,15.3c6.7,19.2,10.2,39.4,10.6,59.7c-4.9-1.1-9.9-2.2-14.8-3.2
		c-2-12.7-5-25.4-11-36.8c-6,10.5-11.8,21.3-19.4,30.9c-14.1-2.4-28.3-4.3-42.3-6.5c11.6-10.3,21.8-22,30.8-34.7
		c7.1-10.4,13.3-21.6,16.8-33.8c-12,11.9-25.5,22.1-39.9,30.9c-9.4,5.6-19,10.8-29.2,14.8c12.1-7.1,23.4-16,32.3-26.8
		c13.3-16,22.6-35.5,25.8-56.2c0.3-1,0.6-2,0.9-3C465.1,469.8,469.4,466,472.7,461.3 M609.9,501.6c-15.3,10.7-31.5,20.5-48.9,27.4
		c-7.7-8.1-17.2-14-27.1-19c-5.1-2.3-10.2-4.8-15.7-5.8c3.6,3.4,8.1,5.6,11.9,8.8c6.4,4.8,12.2,10.4,18.1,15.8
		c4.3,4,7.6,9.3,12.4,12.7c21.2-8.7,40-22.8,55.7-39.3c3.4-3.8,7-7.5,9.5-12C620,493.1,615.4,498,609.9,501.6z"/>
</g>
<g id="_x23_08b6ffff">
	<path class="st6" d="M63.7,489.2c4.5,2.3,8.1,5.9,12.1,8.9c16.6,12.2,34.4,23.1,53.5,30.9c12.2-12.2,27.9-20.8,44.4-25.5
		c-10.8,7.3-21.4,15.1-30.4,24.5c-4.5,4.2-8.4,8.9-12.8,13.3c-2.9-0.3-5.4-1.8-7.9-3C99.7,526.5,78.9,510.1,63.7,489.2z"/>
	<path class="st6" d="M609.9,501.6c5.5-3.6,10.1-8.5,16-11.7c-2.5,4.5-6.1,8.2-9.5,12c-15.8,16.5-34.5,30.7-55.7,39.3
		c-4.8-3.4-8.1-8.6-12.4-12.7c-5.9-5.4-11.7-11-18.1-15.8c-3.8-3.1-8.3-5.4-11.9-8.8c5.5,1,10.6,3.5,15.7,5.8c9.9,5,19.4,11,27.1,19
		C578.4,522.1,594.6,512.3,609.9,501.6z"/>
	<path class="st6" d="M186.5,537.1c2.9-5.4,5.8-11,10.3-15.3c-2.5,7.5-6,14.7-8.2,22.3c-5.2,17.3-8.3,35.3-8.4,53.4v0.2
		c-5.2,1.1-10.3,2.4-15.5,3.6C169.8,579.3,176,557.3,186.5,537.1z"/>
	<path class="st6" d="M494.3,522.6c6.1,6,9.5,14.1,13.3,21.7c8.2,18.2,13.9,37.5,18.2,57c-5.1-1.2-10.2-2.5-15.3-3.7
		c-0.4-20.3-3.9-40.5-10.6-59.7C498.2,532.8,495.6,527.9,494.3,522.6z"/>
</g>
</svg>
