<?xml version="1.0" encoding="utf-8"?>
<!-- Generator: Adobe Illustrator 21.0.0, SVG Export Plug-In . SVG Version: 6.00 Build 0)  -->
<svg version="1.1" id="Layer_1" xmlns="http://www.w3.org/2000/svg" xmlns:xlink="http://www.w3.org/1999/xlink" x="0px" y="0px"
	 viewBox="0 0 745.7 445.5" style="enable-background:new 0 0 745.7 445.5;" xml:space="preserve">
<style type="text/css">
	.st0{fill:#ED1B24;}
</style>
<g id="_x23_000000ff">
</g>
<g id="_x23_ed1b24ff">
	<path class="st0" d="M257.3,0C275.9,0,294.4,0,313,0c-25,43.7-50.4,87.2-75.5,130.8c36.5,0,73,0,109.5,0c0-43.6,0-87.2,0-130.9
		c17.1,0,34.2,0,51.4,0c0,43.6,0,87.3,0,130.9c36.5,0,73.1,0,109.6,0C483,87.2,457.7,43.7,432.6,0c18.6,0,37.2,0,55.8,0
		c34.2,59.2,68.4,118.3,102.5,177.5c-145.4,0-290.7,0-436.1,0C188.9,118.3,223.1,59.2,257.3,0z"/>
	<path class="st0" d="M134.9,212c32.5,0.1,65,0,97.6,0c29.3,50.8,58.7,101.6,88,152.4c-19.8,0-39.5,0.1-59.3-0.1
		c-20.1-35.3-40.7-70.3-60.8-105.5c-11.1-0.3-22.3-0.1-33.4-0.1c-35.9,62.3-72,124.4-107.8,186.7c-19.8,0.3-39.5,0-59.3,0.1
		C45,367.7,89.9,289.8,134.9,212z"/>
	<path class="st0" d="M276.2,212c107.2-0.1,214.4,0,321.6,0c4.4,0,8.8-0.1,13.2,0.1c44.8,77.9,89.9,155.6,134.7,233.4
		c-77.2,0-154.5,0-231.7,0c-29.3-50.8-58.7-101.5-87.9-152.3c19.6-0.1,39.3,0.1,58.9-0.1c20.7,35.2,40.7,70.8,61.5,105.9
		c37.7-0.2,75.4,0,113.2-0.1c-27-46.8-54-93.5-81-140.2c-72.1,0-144.3,0-216.4,0c35.9,62.3,72,124.5,107.9,186.9
		c-122.4,0-244.9,0-367.3,0c9-15.5,17.9-31.2,27-46.7c84.8,0.1,169.5,0,254.3,0C348.1,336.6,312.1,274.3,276.2,212z"/>
</g>
</svg>
