<?xml version="1.0" encoding="utf-8"?>
<!-- Generator: Adobe Illustrator 21.0.0, SVG Export Plug-In . SVG Version: 6.00 Build 0)  -->
<svg version="1.1" id="Layer_1" xmlns="http://www.w3.org/2000/svg" xmlns:xlink="http://www.w3.org/1999/xlink" x="0px" y="0px"
	 viewBox="0 0 280.4 200.3" style="enable-background:new 0 0 280.4 200.3;" xml:space="preserve">
<style type="text/css">
	.st0{fill:#FFFFFF;}
	.st1{fill:#FF0538;}
</style>
<rect x="-677.5" y="1147.6" width="1186.9" height="566.9"/>
<rect x="-677.5" y="537.6" class="st0" width="566.9" height="566.9"/>
<rect x="-57.5" y="537.6" width="566.9" height="566.9"/>
<g>
	<path class="st0" d="M223.5,101.3L223.5,101.3c0.1,0,0.1-0.1,0.1-0.1c2.3-1.1,18.4-9.3,23.3-12.7c3.3-2.3,5.6-4.5,4.4-11.6
		c-0.8-4.9-5.9-9-10.6-11.9c-2.1-1.3-4.1-2.3-5.6-3c0,0,0,0,0,0c0,0,0,0,0,0c0,0-0.1-0.1-0.2-0.1c0,0,0,0,0,0c0,0,0,0,0,0
		c-0.2-0.1-0.4-0.2-0.7-0.3c0,0,0,0,0,0c0,0-0.1,0-0.1-0.1c0,0-0.1,0-0.1-0.1l0,0c-1-0.5-2.5-1.2-4.5-2.1c-0.1,0-0.2-0.1-0.3-0.1
		c-0.1-0.1-0.2-0.1-0.4-0.2c-0.2-0.1-0.3-0.1-0.5-0.2c-0.1,0-0.1-0.1-0.2-0.1c-0.2-0.1-0.4-0.2-0.7-0.3c-0.2-0.1-0.3-0.1-0.5-0.2
		c-5.8-2.4-14.2-5-23.9-5.7c-7.2-0.5-19.1,1.2-38.3,4.6c-14.7,2.6-29.3,3.5-44,5.8c-3.3,0.5-12.6,0.7-13.7-1.9
		c-0.5-1.2,0.8-2.9,1.3-3.4c5.7-6,24.3-7,47.4-7.9c10.9-0.4-0.2,0.1,27-1.7c10.1-0.6,13.2-0.8,13.8-2.5c0.3-0.7,0.1-1.6-1-2.7
		l-4.6-2.2l0,0c-0.2-0.1-0.4-0.2-0.6-0.3l-21.8-10.6c-9.3-4.4-15.1-6.7-20.7-7.6c-4.2-0.7-4.4-0.8-11.7-0.4
		c-11.6,0.7-38,14.6-40.2,15.6c0,0,0,0,0,0L36.9,66.2c-1.7,0.9-3.6,1.9-5,2.8c-2.5,1.6-4.9,4-5.6,8.3c-0.8,4.9,3.3,9.7,9.9,14.3
		c4.2,2.9,9.4,5.5,15.1,7.6c6.3,2.2,13,3.7,19.6,4.2c4.2,0.3,10.3-0.4,22.4-2c30.7-3.9,34-6.7,51.9-8.4c9-0.9,41.3-3.6,42.6,2.2
		c0.5,2-1.2,3.2-5.4,3.7c-4,0.5-42,2.1-64.4,7.5c-15.5,3.7-18.6,7.6-19.2,10.6c-0.5,2.8,0.9,5.4,2.1,7.1c0,0,0,0,0,0
		c0.4,0.5,0.9,1,1.1,1.3c1.1,1.3,2.7,3,4.6,3.8c3,1.8,6,2.5,9.2,3.4c1.8,0.5,3.6,0.9,5.5,1.2c21,3.2,44.2-7.7,53.6-10.4
		c5.3-1.5,15.1-5.9,15.7-6.1l0,0l32.8-15.9C223.4,101.4,223.4,101.4,223.5,101.3z"/>
	<polygon class="st0" points="269.3,94.2 144.9,155.1 144.9,181.7 269.3,121.3 269.3,94.2 	"/>
	<polygon class="st0" points="133.8,155.5 133.8,155.5 11.1,94.3 11.1,121.4 133.8,182.1 	"/>
	<rect x="280.4" y="79.5" class="st1" width="0" height="0.1"/>
	<polygon class="st1" points="0,115.9 0,88.8 0,88.8 0,115.8 0,115.8 0,130.9 0,130.9 0,115.9 	"/>
	<path d="M280.4,79.6L280.4,79.6v-5.9v-4.4L139.3,0L0,69.3v4.4v10.7v4.4l0,0l0,0v27.1l0,0v15v0.1l139.2,69.3L280.4,131v-4.3h0
		L280.4,79.6L280.4,79.6L280.4,79.6z M133.8,182.1L11.1,121.4V94.3l122.7,61.2l0,0V182.1z M121.3,133.8c-1.8-0.3-3.7-0.7-5.5-1.2
		c-3.2-0.9-6.3-1.6-9.2-3.4c-1.9-0.8-3.6-2.5-4.6-3.8c-0.2-0.3-0.7-0.8-1.1-1.3c0,0,0,0,0,0c-1.2-1.7-2.6-4.3-2.1-7.1
		c0.6-3,3.7-6.9,19.2-10.6c22.4-5.4,60.4-7,64.4-7.5c4.2-0.5,5.9-1.7,5.4-3.7c-1.3-5.8-33.7-3-42.6-2.2c-17.9,1.8-21.2,4.6-51.9,8.4
		c-12.1,1.5-18.2,2.3-22.4,2c-6.5-0.5-13.3-2-19.6-4.2c-5.7-2.1-11-4.7-15.1-7.6c-6.6-4.6-10.7-9.4-9.9-14.3
		c0.7-4.3,3.2-6.8,5.6-8.3c1.3-0.9,3.2-1.9,5-2.8l58.6-28.9c0,0,0,0,0,0c2.3-1,28.6-14.9,40.2-15.6c7.3-0.4,7.5-0.3,11.7,0.4
		c5.6,0.9,11.4,3.2,20.7,7.6L190,40.3c0.2,0.1,0.4,0.2,0.6,0.3l0,0l4.6,2.2c1.1,1.1,1.3,2,1,2.7c-0.6,1.7-3.8,1.8-13.8,2.5
		c-27.2,1.7-16.1,1.3-27,1.7c-23,0.9-41.6,1.9-47.4,7.9c-0.5,0.5-1.8,2.2-1.3,3.4c1.1,2.6,10.4,2.4,13.7,1.9
		c14.8-2.3,29.4-3.1,44-5.8c19.2-3.4,31-5.1,38.3-4.6c9.7,0.7,18.1,3.3,23.9,5.7c0.2,0.1,0.3,0.1,0.5,0.2c0.2,0.1,0.4,0.2,0.7,0.3
		c0.1,0,0.2,0.1,0.2,0.1c0.2,0.1,0.3,0.1,0.5,0.2c0.1,0.1,0.2,0.1,0.4,0.2c0.1,0,0.2,0.1,0.3,0.1c2,0.9,3.5,1.6,4.5,2.1l0,0
		c0,0,0.1,0,0.1,0.1c0,0,0.1,0,0.1,0.1c0,0,0,0,0,0c0.3,0.1,0.5,0.3,0.7,0.3c0,0,0,0,0,0c0,0,0,0,0,0c0.1,0.1,0.2,0.1,0.2,0.1
		c0,0,0,0,0,0c0,0,0,0,0,0c1.5,0.7,3.6,1.8,5.6,3c4.7,2.9,9.8,7.1,10.6,11.9c1.2,7.1-1.1,9.3-4.4,11.6c-4.9,3.4-21,11.6-23.3,12.7
		c0,0,0,0-0.1,0l-0.1,0c-0.1,0-0.1,0.1-0.1,0.1l-32.8,15.9l0,0c-0.5,0.1-10.4,4.6-15.7,6.1C165.6,126.1,142.3,136.9,121.3,133.8z
		 M269.3,121.3l-124.5,60.5v-26.6l124.5-60.9l0,0V121.3z"/>
</g>
</svg>
