<?xml version="1.0" encoding="utf-8"?>
<!-- Generator: Adobe Illustrator 21.0.0, SVG Export Plug-In . SVG Version: 6.00 Build 0)  -->
<svg version="1.1" id="Layer_1" xmlns="http://www.w3.org/2000/svg" xmlns:xlink="http://www.w3.org/1999/xlink" x="0px" y="0px"
	 viewBox="0 0 513 451" style="enable-background:new 0 0 513 451;" xml:space="preserve">
<style type="text/css">
	.st0{fill:#094F8D;}
	.st1{fill:#FFFFFF;}
	.st2{fill:#D1D2D4;}
	.st3{fill:#091732;}
	.st4{fill:#9B9190;}
	.st5{fill:#1B96D2;}
</style>
<g id="_x23_094f8dff_1_">
	<path class="st0" d="M460.5,188.9c-3-9.2-6.6-18.5-10.1-27.4c-2.1-5.4-4.2-10.9-6.3-16.4c-1.9-4.9-3.7-9.8-5.6-14.7
		c-3.2-8.2-6.4-16.7-9.5-25.1l-0.9-2.5l5.9-3c9.2-4.7,18.4-9.5,27.6-14.3l2.3-1.2l1.5,2.1c2.2,3.1,4.3,6.3,6.4,9.4
		c1.9,2.8,3.8,5.7,5.7,8.5c1.8,2.6,3.3,5.6,4.3,8.9c1.5,4.7,3.1,9.5,4.6,14.1c0.7,2,1.4,4.1,2.1,6.1l0.4,1.3l-0.7,1.2
		c-1.7,3.1-3.5,6.1-5.3,9.2c-4.4,7.6-8.9,15.5-13.2,23.3c-1.7,5.5-2.6,11.7-2.7,18.5l-0.6,0l0.8,2.4c-1,0.6-1.8,1.1-2.6,1.5
		l-3.1,1.6L460.5,188.9z"/>
	<path class="st0" d="M431.8,104.2c10.4-5.3,20.8-10.7,31.1-16.1c4.2,5.9,8,12,12.1,17.8c1.8,2.5,3,5.2,3.9,8.1
		c2.2,6.8,4.5,13.5,6.7,20.3c-6.2,10.9-12.6,21.8-18.6,32.8c-2,6.3-2.8,13-3,19.6c0.4,0,1.2-0.1,1.6-0.1c-0.8,0.5-1.6,0.9-2.4,1.4
		c-4.9-14.9-11-29.3-16.4-43.9C441.9,130.8,436.7,117.5,431.8,104.2z"/>
	<path class="st0" d="M90.5,424.6c-3.7,0-7-1.4-9.9-2.6c-0.7-0.3-1.4-0.6-2.1-0.8c-5.5-2.2-11.1-4.4-16.6-6.5
		c-4.5-1.8-9.1-3.6-13.6-5.3l-1.2-0.5l-0.5-1.2c-2.8-7.2-5.7-14.3-8.5-21.5c-3.1-8-6.4-16.3-9.6-24.4l-1-2.5l2.4-1.3
		c8.7-4.6,17.5-9.1,26.1-13.5c4.3-2.2,8.8-4.5,13.2-6.8c-2.2,0.1-4.5,0.3-6.7,0.4c-7.1,0.4-14.5,0.8-21.8,0.9l-10.6,0.1l9-5.7
		c19.9-12.6,39.9-24.9,62-38.5c0.2-3.5,0.2-7.1,0.2-10.5c0-3.5,0.1-7.1,0.2-10.7l0.1-2l15.1-5.7c14.3-5.4,28.6-10.7,42.9-16.1
		c-3.1,0.1-6.2,0.1-9.3,0.2c-5.9,0.2-12,0.3-18,0.3c-1.1,0-2.2,0-3.3,0l-7.5-0.1l5.5-5.1c2.8-2.6,5.9-4.9,8.8-7.2
		c1.1-0.9,2.3-1.7,3.4-2.6c8.7-6.6,17.3-13.2,26-19.8c8.5-6.5,17.1-13.1,25.6-19.6c1.5-1.1,3.1-2.3,4.6-3.5c-2.8-1-5.5-1.9-8.3-2.8
		c-8.4-2.9-17.1-5.9-25.6-9l-6.2-2.3l5.8-3.1c6.2-3.3,12.6-6.5,18.7-9.5c4.6-2.3,9.4-4.6,14.1-7.1c1.7-1,3.6-1.5,5.5-1.5
		c0.9,0,1.7,0.1,2.6,0.3c7.7,1.5,15.5,3,23.2,4.5c7.7,1.5,15.5,3,23.2,4.5l0.1,0c0.3,0.1,0.5,0.1,0.8,0.1c1.3,0,2.9-0.7,4.5-1.5
		c0.7-0.3,1.3-0.7,2-0.9c11.7-5.4,23.8-11,35.4-16.3c11.1-5.1,22.5-10.3,33.7-15.5c1.1-0.6,2.4-0.9,3.7-0.9c2.2,0,4.2,0.9,6,1.7
		c0.8,0.4,1.6,0.7,2.3,0.9l0.1,0c2.4,0.8,4.8,1.8,7.2,2.8c3.5,1.5,6.9,2.8,10.3,3.7c6.9-3.3,13.7-6.8,20.3-10.3
		c5.7-3,11.5-6,17.4-8.9l3.1-1.5l1.1,3.3c6.8,20.7,13.9,41.6,20.7,61.9c4.4,13.2,8.9,26.4,13.3,39.6c1,3.3-0.1,6.3-1,8.7
		c-0.3,0.8-0.6,1.5-0.7,2.2l0,0.2l-0.1,0.2c-0.4,1.1-0.8,2.3-1.2,3.5c-0.7,2.5-1.4,5-3.1,7.3l-0.8,1.1l-1.4,0.1
		c-2.2,0.2-4.7,0.3-7.6,0.3c-1.5,0-3.1,0-4.6-0.1c-0.9,0-1.7,0-2.6,0c1.2,1.7,2.4,3.4,3.6,5.1c3,4.2,6.1,8.6,8.7,13.3l0.5,0.8
		l-0.1,1c-1.1,8.2-2.5,16.4-4,24.3c-0.7,3.8-1.4,7.6-2,11.5l-0.4,2.1l-2.1,0.4c-2.1,0.4-4.1,0.7-6.1,1.1c-0.4,3.8-0.8,7.7-1.3,11.4
		c-0.2,1.8-1.1,9.8-1.1,9.8l-4-2.3c-3.8-2.2-7.7-4.6-11.3-6.9c-1.7-1.1-3.5-2.2-5.3-3.2c0.1,0.3,0.2,0.6,0.2,0.9
		c0.8,3.4,1.7,6.8,2.3,10.4l0.8,5l-4.8-1.7c-5.3-1.8-10.7-3.9-15.8-5.8c-4.4-1.7-8.8-3.4-13.3-5c-4.8,12.2-9.5,24.4-14.3,36.6
		c-2.7,7-5.5,14.1-8.2,21.1l-1.2,3.1l-3-1.5c-3.6-1.8-7.1-3.8-10.6-5.7c-1.9-1.1-3.8-2.1-5.8-3.2c0.2,0.7,0.3,1.5,0.5,2.2
		c0.6,2.9,1.2,5.9,1.8,8.8l1.4,7.5l-6.1-4.6c-3.1-2.4-6.2-4.9-9.1-7.3c-1.2-1-2.4-2-3.6-3c-0.1,0.9-0.2,1.9-0.3,2.8
		c-0.3,3.4-0.7,7-1.2,10.5c-0.2,3.2-3.1,4.2-4.2,4.6c-0.2,0.1-0.4,0.1-0.6,0.2l-0.2,0.1c0,0-18.5,5.7-27.7,8.5
		c-24.6,7.5-50.1,15.3-75.1,23l-0.4,0.1l-0.4,0c-9.7,0.1-19.9,0.1-33.2,0.1c-6.3,0-12.6,0-18.9,0c-6.3,0-12.6,0-18.9,0
		c-7.2,0-14.3,0-21.5,0C90.9,424.6,90.7,424.6,90.5,424.6z M245.8,198c2.5,0.5,5.1,0.9,7.6,1.3c2.9,0.5,5.9,0.9,8.8,1.5l2.5,0.5
		c0,0-0.1,3.1-0.1,3.5c2.2-3.6,4.4-7.3,6.5-10.9c1.7-2.9,3.4-5.8,5.1-8.7c-2.6-1.1-5.1-2.2-7.4-3.1c0.2,0.4,0.5,0.8,0.7,1.2l3,4.7
		l-5.6-0.1c-8.8-0.2-17.6-0.7-26.6-1.2c-2.2,3.4-4.1,6.6-5.9,9.6c0.4-0.2,0.7-0.3,1.1-0.5c3.1-1.5,6.3-3,9.5-4.3l3,5.1
		C247.2,197,246.5,197.5,245.8,198z"/>
	<path class="st0" d="M354.8,143.8c13.1-6.1,25.7-13.3,38.7-19.7c11.2,33.9,22.7,67.6,34,101.5c1,3.1-1,6.1-1.8,9.1
		c-1.4,3.4-1.8,7.3-3.9,10.3c-6.6,0.7-13.4,0-20,0.3c4.7,7.8,10.8,14.8,15.1,22.8c-1.5,12-4,23.8-6,35.7c-2.8,0.5-5.5,1-8.3,1.5
		c-0.6,6.3-1.4,12.6-2.1,18.9c-7.6-4.4-15-9.3-22.6-13.7c1.2,6,3.1,11.9,4.1,18c-10.7-3.7-21.1-8.1-31.9-11.7
		c-7.9,20.1-15.7,40.3-23.5,60.4c-7.4-3.8-14.5-8.1-21.9-11.8c1.1,5.7,2.4,11.4,3.4,17.2c-5.8-4.3-11.1-9.2-16.9-13.6
		c-0.9,6.2-1.1,12.5-2.2,18.8c0,1.7-2,1.9-3.2,2.4c-34.2,10.5-68.4,20.9-102.6,31.4c-30.8,0.2-61.6,0-92.4,0.1
		c-4.1,0.2-7.7-1.8-11.4-3.2c-10.1-4-20.1-7.9-30.2-11.9c-6.1-15.3-12-30.7-18.1-46c16.9-9,34.2-17.5,51.1-26.4
		c-13.9,0.3-27.8,1.7-41.8,1.8c21-13.3,42.1-26.3,63.3-39.3c0.4-7.6,0.2-15.2,0.6-22.8c18.7-7,37.4-14,56.2-21.1
		c4.8-1.9,9.8-3.4,14.5-5.8c-15.4-0.4-30.8,0.7-46.2,0.6c3.8-3.5,8-6.4,12-9.6c17.2-13.1,34.4-26.3,51.5-39.4c3-2.2,6-4.5,8.7-7
		c-12.9-4.5-25.9-8.8-38.7-13.5c10.8-5.8,22-10.9,32.9-16.6c1.8-1.1,3.9-1.4,5.9-0.9c15.5,3.1,31,6,46.5,9.1
		c3.3,0.8,6.3-1.3,9.2-2.5c23.1-10.7,46.2-21.2,69.3-31.9c3.3-1.8,6.6,1,9.7,1.9C342.3,139.1,348.3,142.4,354.8,143.8 M261.9,176.1
		c1.6,2.9,3.3,5.8,5.1,8.7c-9.4-0.3-18.9-0.8-28.3-1.3c-4.1,6.3-8,12.7-11.5,19.2c6.4-2.6,12.5-6,18.9-8.6c-2.4,1.9-4.9,3.7-7.4,5.6
		c7.6,1.8,15.3,2.7,22.9,4.1c-0.1,3.9-0.2,7.7-0.2,11.6c6.8-10.2,12.7-21.1,19.1-31.6C274.4,181,268.2,178.4,261.9,176.1z"/>
</g>
<g id="_x23_ffffffff">
	<path class="st1" d="M0,352.8c0.2,0.3,0.6,0.8,0.8,1C9,376.5,18,399,26.2,421.7c16.2,9.3,31.7,19.9,47.9,29.3H0V352.8z"/>
</g>
<g id="_x23_d1d2d4ff">
	<path class="st2" d="M283.5,0h3.4c23.7,6,47.6,11.1,71.3,16.7c15.5,3.5,30.9,7.2,46.4,10.7c1.6,0.4,3.6,0.9,4.2,2.7
		c4.1,9.2,7,18.9,10.9,28.2c2.5,7.1,5.7,13.9,7.8,21.1c8-3.7,15.1-9,22.9-13.1c9.9,2.6,19.7,5.8,29.7,8.4c2,0.6,4.2,1.1,6,2.2
		c1.3,1.6,1.8,3.6,2.5,5.5c2.5,7.8,5.2,15.5,7.8,23.3c4.8,12.8,11.2,25,15.7,37.9c0.2,0.2,0.6,0.6,0.7,0.8v0.6
		c-0.2,0.3-0.6,0.8-0.8,1.1c-4.3,8.8-9.3,17.3-12.8,26.5c-2.4,6.2-6.6,11.4-10.1,16.9c-4.1,6.8-9.2,12.9-13.4,19.6
		c-4.7,7.5-10.4,14.4-15,22c-1.6,2.5-0.5,5.6-0.1,8.3c2.8,14,4.1,28.3,7.5,42.2c-5.9-4.2-10.6-9.9-16.8-13.6
		c-0.9,4.8-2.1,9.5-2.4,14.4c-0.3,2.1,1.3,3.8,2.4,5.5c4.5,6,9,12,12.9,18.5c-4.7,0-9.5,0-14.2,0c1.8,8.9,3,17.9,4.1,26.9
		c-2.2,0.1-4.4,0.1-6.6,0.2c7,6.5,15,11.7,22.4,17.8c12.4,9.8,25.2,19,37.4,29.1c-7.7,0.1-15.3-0.1-23,0.2
		c3.4,5.3,8.3,9.4,11.9,14.5c0.1,3.8-1.8,7.2-3,10.7c-5.6,15.2-11.2,30.4-16.4,45.7H74.1c-16.2-9.4-31.6-20-47.9-29.3
		C18,399,9,376.5,0.8,353.9c-0.2-0.3-0.6-0.8-0.8-1v-0.6c9.3-8.7,18.1-18,27.3-27c4.6-4.1,10-7.3,14.9-11
		c11.3-7.7,22.2-15.8,33.4-23.6c2.5-1.8,5.2-3.3,7.2-5.7c0.7-9.7,0-19.5,0.3-29.3c18.4-14.5,35.7-30.4,54.9-43.7
		c3.3-2.9,7.9-4.5,10.2-8.4c-10.8-4.2-20.9-9.9-31.4-14.9c8.7-11.1,17.8-22.1,26.5-33.3c2.3-3.2,5.8-5.2,9.3-6.8
		c6.4-3,12.4-6.6,19-9.2c6.7-2.6,12.9-6.5,19.4-9.5c2.4-1.4,5.2-0.1,7.7,0.4c15.9,4.7,31.8,9.8,47.8,14.2c3.4,1.2,6.1-1.9,8.9-3.3
		c18.8-11.1,37.2-22.9,55.9-34c3.8-2.2,7.3-5.5,11.7-6.3c3.1,0.3,5.6,2.4,8.4,3.6c9.1,4.2,18.3,8.3,27.4,12.7
		c2.7,1.6,5.5-0.5,7.8-1.8c5-3.2,10.2-6.1,15.4-9c-3-8.6-5.8-17.2-8.6-25.8c-1.4-4.2-2.3-9.1-6.2-11.9C339.1,46,311.5,22.8,283.5,0
		 M303.1,9.3c22.2,18.3,44.4,36.6,66.7,54.9c2.3,2,5.3,3.6,5.9,6.9c4.1,12.9,8.9,25.7,12.7,38.7c-8.8,5.4-17.7,10.4-26.6,15.7
		c-13-6-26-12-39-18c-24.4,14.8-48.7,29.7-73,44.5c-18.6-5.5-37.1-11-55.7-16.5c-14.4,7.1-29.1,13.7-43.4,21.1
		c-8.2,9.7-16,19.7-23.8,29.7c11.3,5.5,22.6,11.2,33.9,16.8c-11.8,8.7-23.8,17.3-35.6,26.1c-11.4,9.3-22.7,18.7-34.1,28
		c-0.8,0.8-2.1,1.5-1.8,2.8c-0.1,9.6,0,19.1-0.1,28.7c-17.9,12.6-35.7,25.4-53.5,38c-2.3,1.6-4.7,3.3-6.7,5.3
		c-7.1,7.3-14.3,14.7-21.4,22c7.6,20.2,15.3,40.3,22.8,60.5c0.6,1.4,1.1,3,2.5,3.7c13.6,8.4,27.2,16.8,40.8,25.3
		c1.3,0.9,2.8,1.3,4.3,1.2c131.5,0,263,0,394.5,0c5.8-16.1,11.6-32.1,17.4-48.2c-6.5-7.4-13-14.8-19.5-22.3c6.5,0,13,0,19.5,0
		c-20.3-15.8-40.9-31.3-61.1-47.3c6.1-0.1,12.3-0.1,18.4-0.1c-1.4-9.1-3-18.2-4.3-27.3c3.1,0,6.2,0,9.4,0
		c-3.4-4.8-6.8-9.6-10.1-14.4c1.7-10,3.4-20,5-30.1c3.9,3.4,7.7,6.7,11.6,10.1c-1.9-11.3-3.9-22.6-5.8-33.9
		c10.6-15.5,21.2-31,31.8-46.4c2.3-3.4,4.8-6.7,6.5-10.4c4.8-10.1,9.8-20.2,14.6-30.4c-4.4-10.3-8.7-20.5-13.1-30.8
		c-4.3-9.3-6.8-19.3-10.1-29c-0.5-0.9-0.5-2.5-1.8-2.7c-9.8-2.9-19.7-5.6-29.5-8.4c-8.6,5.1-17.1,10.1-25.8,15.1
		c-7-18.5-14.1-37-21.2-55.5C370.6,24.9,336.9,17.1,303.1,9.3z"/>
	<path class="st2" d="M336.9,26c20.4,4.6,40.7,9.4,61,14c19.6,51.5,39.4,102.9,58.9,154.4c-7.9,7.1-15.7,14.3-23.5,21.5
		c-16.4-48.7-32.7-97.4-49-146.2c-1.1-2.7-1.4-6.1-4-7.9C365.9,49.8,351.4,37.9,336.9,26z"/>
	<path class="st2" d="M466.4,87.1c2.1,0,4.3,0,6.4,0c2.8,4.9,6,9.5,8.7,14.5c0.8,3.2,0.2,6.6,0.3,9.9
		C476.7,103.3,471.5,95.2,466.4,87.1z"/>
	<path class="st2" d="M403.3,339.6c13.4,8.8,26.8,17.8,40.2,26.6c-5,1.7-9.9,3.3-14.9,5c11.1,6.2,22.6,11.8,33.7,18
		c-6.3,3.3-12.5,6.7-18.8,10c6.3,6,12.6,12,18.9,18c-19.7,0-39.4,0-59.1,0c4.7-10.8,9.4-21.6,14.1-32.3
		C412.8,369.8,408,354.7,403.3,339.6z"/>
</g>
<g id="_x23_091732ff">
	<path class="st3" d="M303.1,9.3c33.8,7.8,67.5,15.5,101.3,23.3c7,18.5,14.1,37,21.2,55.5c8.6-4.9,17.2-10,25.8-15.1
		c9.9,2.8,19.7,5.5,29.5,8.4c1.3,0.2,1.3,1.8,1.8,2.7c3.3,9.7,5.9,19.7,10.1,29c4.4,10.3,8.7,20.5,13.1,30.8
		c-4.9,10.1-9.8,20.2-14.6,30.4c-1.7,3.7-4.2,7-6.5,10.4c-10.6,15.5-21.2,31-31.8,46.4c1.9,11.3,3.9,22.6,5.8,33.9
		c-3.9-3.4-7.7-6.7-11.6-10.1c-1.7,10-3.4,20-5,30.1c3.4,4.8,6.8,9.6,10.1,14.4c-3.1,0-6.2,0-9.4,0c1.3,9.1,2.9,18.2,4.3,27.3
		c-6.1,0-12.3-0.1-18.4,0.1c20.2,16,40.8,31.5,61.1,47.3c-6.5,0-13,0-19.5,0c6.5,7.4,13,14.8,19.5,22.3
		c-5.8,16.1-11.6,32.1-17.4,48.2c-131.5,0-263,0-394.5,0c-1.5,0.1-3.1-0.3-4.3-1.2C60,435,46.4,426.6,32.8,418.2
		c-1.5-0.7-2-2.3-2.5-3.7c-7.6-20.2-15.2-40.3-22.8-60.5c7.1-7.3,14.3-14.6,21.4-22c2-2.1,4.4-3.7,6.7-5.3
		c17.8-12.6,35.6-25.4,53.5-38c0.1-9.6-0.1-19.1,0.1-28.7c-0.2-1.3,1.1-2,1.8-2.8c11.4-9.3,22.7-18.7,34.1-28
		c11.8-8.8,23.7-17.3,35.6-26.1c-11.3-5.6-22.6-11.3-33.9-16.8c7.8-10,15.7-20,23.8-29.7c14.2-7.4,29-14,43.4-21.1
		c18.6,5.5,37.1,11,55.7,16.5c24.3-14.8,48.7-29.7,73-44.5c13,6,26,12,39,18c8.8-5.3,17.8-10.3,26.6-15.7
		c-3.8-13-8.6-25.8-12.7-38.7c-0.6-3.2-3.6-4.9-5.9-6.9C347.5,46,325.3,27.6,303.1,9.3 M336.9,26c14.5,11.9,28.9,23.9,43.4,35.8
		c2.6,1.8,2.9,5.2,4,7.9c16.3,48.7,32.6,97.5,49,146.2c7.8-7.2,15.6-14.4,23.5-21.5C437.4,142.9,417.5,91.5,397.9,40
		C377.6,35.3,357.3,30.6,336.9,26 M466.4,87.1c5.1,8.1,10.3,16.3,15.5,24.4c-0.1-3.3,0.5-6.7-0.3-9.9c-2.7-5-5.9-9.6-8.7-14.5
		C470.7,87.1,468.5,87.1,466.4,87.1 M431.8,104.2c4.9,13.3,10.1,26.5,15.1,39.8c5.4,14.7,11.6,29.1,16.4,43.9
		c0.8-0.4,1.6-0.9,2.4-1.4c2.3-2.3,4.5-4.7,7-6.8c2.4-2.2,5.3-4.2,6.5-7.4c3.5-8.5,7.1-17,10.6-25.5c-1.4-4.2-2.8-8.4-4.2-12.5
		c-2.2-6.8-4.5-13.5-6.7-20.3c-0.9-2.9-2.2-5.7-3.9-8.1c-4.1-5.9-8-12-12.1-17.8C452.6,93.5,442.2,98.9,431.8,104.2 M354.8,143.8
		c-6.5-1.4-12.5-4.7-18.8-6.8c-3.1-0.9-6.4-3.7-9.7-1.9c-23.1,10.7-46.2,21.2-69.3,31.9c-2.9,1.2-5.9,3.4-9.2,2.5
		c-15.5-3.1-31-6-46.5-9.1c-2.1-0.5-4.1-0.2-5.9,0.9c-10.9,5.6-22.1,10.8-32.9,16.6c12.8,4.8,25.8,9,38.7,13.5
		c-2.7,2.5-5.7,4.8-8.7,7c-17.2,13.1-34.4,26.3-51.5,39.4c-4,3.2-8.3,6.1-12,9.6c15.4,0.2,30.8-1,46.2-0.6
		c-4.6,2.4-9.6,3.9-14.5,5.8c-18.7,7.1-37.4,14.1-56.2,21.1c-0.3,7.6-0.1,15.2-0.6,22.8c-21.2,13-42.3,26-63.3,39.3
		c13.9-0.2,27.8-1.6,41.8-1.8c-17,9-34.2,17.5-51.1,26.4c6.1,15.3,12,30.7,18.1,46c10,4,20.1,7.9,30.2,11.9
		c3.7,1.4,7.3,3.4,11.4,3.2c30.8-0.1,61.6,0.1,92.4-0.1c6.5,0.4,13,0.1,19.4,0.2c58.6,0,117.1,0,175.6,0
		c5.2-12.9,10.4-25.7,15.7-38.6c0.8-1.6,0.8-3.4,0.4-5c-4-16.5-8.2-33-12.2-49.5l-0.4-0.1c-1-6.1-2.9-11.9-4.1-18
		c7.6,4.4,15,9.3,22.6,13.7c0.7-6.3,1.5-12.6,2.1-18.9c2.8-0.5,5.5-1,8.3-1.5c2-11.9,4.4-23.7,6-35.7c-4.3-8-10.4-15-15.1-22.8
		c6.7-0.2,13.4,0.4,20-0.3c2.1-3,2.5-6.9,3.9-10.3c0.8-2.9,2.7-6,1.8-9.1c-11.3-33.8-22.8-67.6-34-101.5
		C380.5,130.5,367.9,137.7,354.8,143.8 M403.3,339.6c4.7,15.1,9.4,30.2,14.1,45.3c-4.7,10.8-9.4,21.6-14.1,32.3
		c19.7,0,39.4,0,59.1,0c-6.3-6-12.6-12-18.9-18c6.3-3.3,12.5-6.7,18.8-10c-11.1-6.2-22.6-11.8-33.7-18c4.9-1.7,9.9-3.4,14.9-5
		C430.1,357.3,416.7,348.4,403.3,339.6z"/>
	<path class="st3" d="M261.9,176.1c6.3,2.3,12.5,4.9,18.7,7.6c-6.4,10.5-12.3,21.3-19.1,31.6c0-3.8,0.1-7.7,0.2-11.6
		c-7.6-1.4-15.4-2.3-22.9-4.1c2.5-1.8,5-3.7,7.4-5.6c-6.4,2.6-12.5,6-18.9,8.6c3.6-6.6,7.5-12.9,11.5-19.2
		c9.4,0.6,18.8,1.1,28.3,1.3C265.2,181.9,263.5,179,261.9,176.1 M251.9,192.8c1.1,1.4,2.2,2.8,3.4,4.1c4-0.9,7.9-1.9,11.8-3
		C262.2,192.1,257,191.3,251.9,192.8z"/>
</g>
<g id="_x23_094f8dff">
	<path class="st0" d="M431.8,104.2c10.4-5.3,20.8-10.7,31.1-16.1c4.2,5.9,8,12,12.1,17.8c1.8,2.5,3,5.2,3.9,8.1
		c2.2,6.8,4.5,13.5,6.7,20.3c-6.2,10.9-12.6,21.8-18.6,32.8c-2,6.3-2.8,13-3,19.6c0.4,0,1.2-0.1,1.6-0.1c-0.8,0.5-1.6,0.9-2.4,1.4
		c-4.9-14.9-11-29.3-16.4-43.9C441.9,130.8,436.7,117.5,431.8,104.2z"/>
	<path class="st0" d="M354.8,143.8c13.1-6.1,25.7-13.3,38.7-19.7c11.2,33.9,22.7,67.6,34,101.5c1,3.1-1,6.1-1.8,9.1
		c-1.4,3.4-1.8,7.3-3.9,10.3c-6.6,0.7-13.4,0-20,0.3c4.7,7.8,10.8,14.8,15.1,22.8c-1.5,12-4,23.8-6,35.7c-2.8,0.5-5.5,1-8.3,1.5
		c-0.6,6.3-1.4,12.6-2.1,18.9c-7.6-4.4-15-9.3-22.6-13.7c1.2,6,3.1,11.9,4.1,18c-10.7-3.7-21.1-8.1-31.9-11.7
		c-7.9,20.1-15.7,40.3-23.5,60.4c-7.4-3.8-14.5-8.1-21.9-11.8c1.1,5.7,2.4,11.4,3.4,17.2c-5.8-4.3-11.1-9.2-16.9-13.6
		c-0.9,6.2-1.1,12.5-2.2,18.8c0,1.7-2,1.9-3.2,2.4c-34.2,10.5-68.4,20.9-102.6,31.4c-30.8,0.2-61.6,0-92.4,0.1
		c-4.1,0.2-7.7-1.8-11.4-3.2c-10.1-4-20.1-7.9-30.2-11.9c-6.1-15.3-12-30.7-18.1-46c16.9-9,34.2-17.5,51.1-26.4
		c-13.9,0.3-27.8,1.7-41.8,1.8c21-13.3,42.1-26.3,63.3-39.3c0.4-7.6,0.2-15.2,0.6-22.8c18.7-7,37.4-14,56.2-21.1
		c4.8-1.9,9.8-3.4,14.5-5.8c-15.4-0.4-30.8,0.7-46.2,0.6c3.8-3.5,8-6.4,12-9.6c17.2-13.1,34.4-26.3,51.5-39.4c3-2.2,6-4.5,8.7-7
		c-12.9-4.5-25.9-8.8-38.7-13.5c10.8-5.8,22-10.9,32.9-16.6c1.8-1.1,3.9-1.4,5.9-0.9c15.5,3.1,31,6,46.5,9.1
		c3.3,0.8,6.3-1.3,9.2-2.5c23.1-10.7,46.2-21.2,69.3-31.9c3.3-1.8,6.6,1,9.7,1.9C342.3,139.1,348.3,142.4,354.8,143.8 M261.9,176.1
		c1.6,2.9,3.3,5.8,5.1,8.7c-9.4-0.3-18.9-0.8-28.3-1.3c-4.1,6.3-8,12.7-11.5,19.2c6.4-2.6,12.5-6,18.9-8.6c-2.4,1.9-4.9,3.7-7.4,5.6
		c7.6,1.8,15.3,2.7,22.9,4.1c-0.1,3.9-0.2,7.7-0.2,11.6c6.8-10.2,12.7-21.1,19.1-31.6C274.4,181,268.2,178.4,261.9,176.1z"/>
</g>
<g id="_x23_9b9190ff">
	<path class="st4" d="M467.2,167.2c6-11,12.4-21.9,18.6-32.8c1.5,4.2,2.8,8.4,4.2,12.5c-3.6,8.5-7.1,17-10.6,25.5
		c-1.2,3.2-4.1,5.2-6.5,7.4c-2.5,2.1-4.7,4.5-7,6.8c-0.4,0-1.2,0.1-1.6,0.1C464.4,180.1,465.2,173.4,467.2,167.2z"/>
</g>
<g id="_x23_1b96d2ff">
	<path class="st5" d="M251.9,192.8c5.1-1.4,10.3-0.6,15.2,1.1c-3.9,1.1-7.9,2.1-11.8,3C254.1,195.5,253,194.1,251.9,192.8z"/>
	<path class="st5" d="M350.2,316.7c10.7,3.7,21.1,8.1,31.9,11.7l0.4,0.1c4,16.5,8.1,33,12.2,49.5c0.5,1.7,0.4,3.4-0.4,5
		c-5.3,12.9-10.5,25.7-15.7,38.6c-58.5,0.1-117.1,0-175.6,0c-6.5-0.1-13,0.2-19.4-0.2c34.2-10.6,68.4-21,102.6-31.4
		c1.2-0.6,3.2-0.8,3.2-2.4c1-6.2,1.3-12.5,2.2-18.8c5.7,4.4,11.1,9.3,16.9,13.6c-1-5.7-2.4-11.4-3.4-17.2c7.4,3.8,14.5,8,21.9,11.8
		C334.5,357,342.3,336.8,350.2,316.7z"/>
</g>
</svg>
