<?xml version="1.0" encoding="utf-8"?>
<!-- Generator: Adobe Illustrator 21.0.0, SVG Export Plug-In . SVG Version: 6.00 Build 0)  -->
<svg version="1.1" id="Layer_1" xmlns="http://www.w3.org/2000/svg" xmlns:xlink="http://www.w3.org/1999/xlink" x="0px" y="0px"
	 viewBox="0 0 52.4 50.1" style="enable-background:new 0 0 52.4 50.1;" xml:space="preserve">
<style type="text/css">
	.st0{fill:#009DB0;}
</style>
<g id="_x23_009db0ff">
	<path class="st0" d="M40.5,10.8c1.4-3.5,1-7.7,3.3-10.8c0.1-0.1,0.3-0.1,0.3,0.1c0.4,12-2.5,24.3-9.4,34.2
		c5.7,1.5,12.5,1.8,16.6,6.6c1.8,1.6,1.3,4.8-0.9,5.8c-4,1.8-8.4,1.2-12.6,0.6C32,46.4,25.9,45.2,21,41.6c-0.1-0.1-0.1-0.3,0.1-0.3
		c6.3,0.1,12.8,2.9,18.9,1.6c1.3-0.3,1.5-2,0.3-2.5c-8.6-3.5-18.2-4.2-27.4-3.3c-2.3,0.2-4.5,0.8-6.6,1.7c-1.5,0.6-1.7,2.6-0.4,3.6
		c7.4,5.6,17.9,4.8,26.8,5.4c0.2,0,0.2,0.3,0.1,0.3c-2.1,1.1-4.4,1.9-6.9,1.9c-8,0.4-16.7-0.5-23.4-5.4c-1.8-1.3-3.7-4.5-1.6-6.3
		c3.8-3.2,9.1-3.3,13.7-4.5C9.3,24.2,5.3,13.2,6.4,2.1c0-0.1,0.2-0.1,0.2,0c3.1,7.1,4.2,15.1,8.9,21.5c2.5,3.8,7.4,8.2,12.1,5.4
		C34.2,25,38,17.8,40.5,10.8z"/>
	<path class="st0" d="M22.3,1.6c5.4-2.8,12.3,2.6,10.9,8.5c-1.1,6.1-9.8,7.9-13.7,3.5C16.2,10,17.5,3.3,22.3,1.6z"/>
</g>
</svg>
