<?xml version="1.0" encoding="utf-8"?>
<!-- Generator: Adobe Illustrator 20.0.0, SVG Export Plug-In . SVG Version: 6.00 Build 0)  -->
<svg version="1.1" id="Layer_1" xmlns="http://www.w3.org/2000/svg" xmlns:xlink="http://www.w3.org/1999/xlink" x="0px" y="0px"
	 viewBox="0 0 482.5 556.2" style="enable-background:new 0 0 482.5 556.2;" xml:space="preserve">
<style type="text/css">
	.st0{fill:url(#SVGID_1_);}
	.st1{fill:#C53017;}
	.st2{fill:url(#SVGID_2_);}
	.st3{fill:url(#SVGID_3_);}
	.st4{fill:#FFFFFF;}
</style>
<linearGradient id="SVGID_1_" gradientUnits="userSpaceOnUse" x1="242.2" y1="550.62" x2="242.2" y2="9.12" gradientTransform="matrix(1 0 0 -1 0 557.3201)">
	<stop  offset="0" style="stop-color:#33302D"/>
	<stop  offset="1" style="stop-color:#201E1A"/>
</linearGradient>
<path class="st0" d="M422.3,173.8c-12.6,11.4-24.1,18.9-24.1,18.9s6.2,32.4,11.9,42.1c7.9,13.7,17.4,28.3,30.7,39
	c11.1,9,35.2,26.4,35.2,26.4s-24.2,40.6-36.9,58.3c-9.2,12.9-43.8,56-61.6,74.9c-17.8,18.9-49.6,47.5-66.8,62.5
	c-16.7,14.5-65.3,49.9-68.4,52.2v0.1c0,0,0,0-0.1-0.1l-0.1,0.1v-0.1c-3.1-2.3-51.7-37.6-68.4-52.2c-17.3-15-49.1-43.7-66.8-62.5
	c-17.8-18.9-52.3-62-61.6-74.9c-12.7-17.7-36.9-58.3-36.9-58.3s24.1-17.4,35.2-26.4c13.3-10.7,22.8-25.4,30.7-39
	c5.7-9.7,11.9-42.1,11.9-42.1s-11.6-7.5-24.1-18.9C51,163.8,38.9,146,38.9,146s28.6-3.5,49.3-6.7c24-3.7,39.3-13.6,39.3-13.6
	s-2.7-9-2.2-20.9c0.5-12,0.3-19,6.7-39s19.5-37.4,30.9-46.9c11.4-9.4,21.7-12.2,21.7-12.2s6.9,15,12,24.2
	c4.6,8.1,11.2,17.8,21.2,25.2c10.2,7.6,23.5,10.6,24.6,10.8c1.1-0.2,14.4-3.2,24.6-10.8c9.9-7.4,16.6-17.1,21.2-25.2
	c5.2-9.2,12-24.2,12-24.2s10.4,2.7,21.7,12.2c11.4,9.4,24.5,26.9,30.9,46.9s6.2,27,6.7,39s-2.2,20.9-2.2,20.9s15.4,9.9,39.3,13.6
	c20.6,3.2,49.3,6.7,49.3,6.7S433.3,163.7,422.3,173.8z"/>
<g>
	<path class="st1" d="M445.6,304.7c-1-0.7-2.1-1.5-3.4-2.5c-2.3-1.7-5-3.8-7.9-6.1c-8-6.5-14.9-11.9-19.6-16.6s-13-14.8-16.3-20.3
		s-6.6-11.9-9-18.5c-1.6-4.4-3.9-10.1-5.7-16.1c-0.1-0.2-0.1-0.4-0.2-0.6c-0.1-0.2-0.1-0.4-0.2-0.7c-0.1-0.4-0.2-0.9-0.4-1.3
		c0-0.1-0.1-0.3-0.1-0.4c-0.1-0.4-0.2-0.8-0.3-1.1c-0.4-1.7-0.8-3.3-1.1-5c-1.7-9.4-2.4-15.3-2.8-20.2c-0.4-5-0.2-7.3-0.2-7.3
		l-13.5,4.7l-0.4,0.1c-5.9,2-8.8,3.3-8.8,3.3s0,0,0,0.1l-0.1,0c0,0,0.1,16.3-0.2,25.4c-0.2,9-0.6,31.8-1.2,43.6
		c-0.6,11.8-2.8,31.3-4.1,38.2c-1.3,7-2.7,11.7-5.4,19.3c-3.5,9.9-9.4,22.1-14.1,30.7c-4.7,8.7-14.2,22.4-19.8,30.1
		c-5.6,7.7-15.1,18.6-23.4,27c-8.4,8.4-18.1,16.3-26.4,22.1c-5.1,3.6-11.4,7.1-15.4,9.2c-2.5,1.2-3.9,1.8-3.9,1.8
		s-20.9-8.5-45.5-33.1c-24.7-24.6-43.8-55.6-51.2-72.4c-6.3-14.4-10.6-25.7-13-42c-0.5-3.7-1-8.2-1.5-12.8
		c-1.8-20.5-2.1-46.3-2.6-60.1c-0.4-14.7,0.2-27.2,0.2-27.2s-3.2-1.3-9.5-3.5l0,0l-12.9-4.6c0,0,0,0,0,0.1c-0.1,0-0.1,0-0.1,0
		s0.1,19.8-6.3,39.3c-6.4,19.5-11.8,31.3-24,45.7c-4.4,5.3-11,11.2-17.6,16.7c-1.7,1.4-3.4,2.8-5.2,4.2
		c-9.5,7.5-17.8,13.3-17.8,13.3s8.2,12.3,17.5,25.9c2,2.9,3.9,5.6,5.9,8.4c3.1,4.4,6.2,8.7,9,12.5c0.4,0.6,0.9,1.2,1.3,1.8
		c3.4,4.7,8.3,11,13.8,17.8c8,10.1,15.7,19.3,23.6,28.2c1.2,1.3,2.4,2.6,3.6,4c11.7,12.9,25.3,26.5,25.3,26.5l0-0.1
		c0.1,0.1,0.1,0.1,0.1,0.1s7.8-11.6,12.8-18.3S164,395,164,395s-2.3,5.8-4.3,13c-2,6.7-3.9,13.7-4.2,14.6l0,0c0,0,0,0,0,0
		c0,0,0,0.1,0,0.1s19,18.6,28.9,27.4c2.6,2.2,5.4,4.7,8.2,7.2c5.3,4.7,10.2,8.9,13,11.4c1.2,1.1,2.1,1.8,2.5,2.2
		c-0.2,0.1-4.2,3.3-9.2,6.9c-5.1,3.8-8.5,6.1-8.5,6.1s0.1,0.1,0.2,0.2c-0.1,0.1-0.2,0.1-0.2,0.1s8.2,7.4,14.9,12.8
		c6.7,5.5,22.5,16.2,22.5,16.2l14.4-9.8l14.4,9.8c0,0,5.7-3.9,11.8-8.2c1.3-0.9,2.6-1.8,3.8-2.7c2.6-1.9,5.1-3.8,6.9-5.2
		c6.7-5.4,14.9-12.8,14.9-12.8s-0.1,0-0.2-0.1c0.1-0.1,0.2-0.2,0.2-0.2s-3.4-2.4-8.5-6.1c-5-3.6-9-6.8-9.2-6.9
		c0.4-0.3,1.3-1.2,2.7-2.3c2.2-1.9,5.7-4.9,9.6-8.4c3.8-3.3,7.9-6.9,11.6-10.1c9.9-8.8,28.9-27.4,28.9-27.4s-2.2-7.5-4.2-14.7
		c-2.1-7.2-4.3-13-4.3-13s11.2,12.5,16.2,19.2s12.8,18.3,12.8,18.3s0,0,0,0l0,0.2c0,0,18.4-18.6,30.9-32.9
		c12.6-14.2,27.7-33.2,35.4-43.7c7.8-10.6,14.1-19.5,21.3-30.2c7.2-10.6,12.4-18.4,12.4-18.4S447.9,306.4,445.6,304.7z"/>
	<path class="st1" d="M76.5,158.3c-0.1,0-0.2,0-0.2,0s9.1,7.5,20.9,13.6c11.8,6.1,44.9,18.4,60.1,24.5c15,5.9,24.5,11.1,36.7,18.7
		c4.9,3.2,10.5,7,15.5,10.5c7.2,5.3,13.5,10.7,17.5,14.4c5.4,5,11.7,13.1,14,16.2c0.6,0.9,1,1.4,1,1.4s4.1-5.6,8.1-10.3
		c3.3-3.7,6.4-7.1,12.3-12.1c1.3-1.1,2.8-2.3,4.3-3.5c7.9-6.2,22.2-15.9,30.3-20.8c2.6-1.5,5.1-2.9,7.7-4.3
		c4.9-2.6,10.2-5.1,15.1-7.3c2.2-0.9,4.4-1.9,6.8-2.8c2.7-1.1,6.1-2.4,9.7-3.8c6.9-2.7,14.9-5.7,21.6-8.4c6.3-2.5,14.9-5.8,23.1-9.6
		c2.2-1,4.1-1.9,5.7-2.7c0.3-0.2,0.6-0.3,0.9-0.5c2.4-1.2,4.6-2.4,6.7-3.7c4.2-2.6,7.2-4.6,9.3-6.1c2.8-2,4.4-3.3,4.4-3.3
		s-0.1,0-0.2,0c0.2-0.2,0.3-0.3,0.3-0.3l-1.1,0.2c-5.1-0.4-27.8-2.5-41.1-6.3c-15-4.3-27.2-12.5-27.2-12.5s-13,20.4-26.9,34.1
		c-12.8,12.6-27.5,21.7-27.5,21.7s23.8-26.8,30.5-37.4c7-11,10.5-18.7,14.2-28c3.7-9.2,6.3-19.3,6.9-26.5c0.6-7.2,0.3-14.4-1.6-23.5
		c-2-9.1-5.8-19.5-11.4-28.1c-5.6-8.7-10.7-11.4-10.7-11.4s-4.3,7.8-9.1,13.6c-6,7.1-13.6,13.6-13.6,13.6s5.9,7.6,8,13
		c2.1,5.4,4.5,14.1,3.2,24.3c-1.3,10.3-4.5,18.9-4.5,18.9s-8-2.9-14.6-7.2c-6.5-4.3-8.9-5.6-19.5-14.1c-10.6-8.5-20-16.8-20-16.8
		s-9.4,8.3-20,16.8c-10.5,8.5-12.9,9.8-19.5,14.1c-6.6,4.3-14.6,7.2-14.6,7.2s-3.2-8.7-4.5-18.9s1.1-18.9,3.2-24.3
		c2.1-5.5,8-13,8-13s-7.7-6.5-13.6-13.6c-4.8-5.8-9.1-13.6-9.1-13.6s-5.1,2.8-10.7,11.4c-5.6,8.6-9.5,19-11.4,28.1
		c-1.9,9.1-2.2,16.3-1.6,23.5c0.7,7.2,3.2,17.2,6.9,26.5c3.6,9.3,7.2,17,14.2,28c6.7,10.5,30.5,37.4,30.5,37.4s-14.7-9.1-27.5-21.7
		c-13.9-13.7-26.9-34.1-26.9-34.1s-12.2,8.2-27.2,12.5c-13.4,3.8-36,5.9-41.1,6.3l-1.1-0.2C76.2,158,76.3,158.1,76.5,158.3z"/>
</g>
<linearGradient id="SVGID_2_" gradientUnits="userSpaceOnUse" x1="303.8" y1="230.6937" x2="303.8" y2="180.8937" gradientTransform="matrix(1 0 0 -1 0 557.3201)">
	<stop  offset="0" style="stop-color:#E9E8E9"/>
	<stop  offset="1" style="stop-color:#E2E1E1"/>
</linearGradient>
<path class="st2" d="M274.8,368.4v8.1c0,0,10.4-8.8,14.3-13.5s7-8.8,8.9-12.2s3.6-7.1,3.6-7.1s4.2-1,7.7-2.2c3.6-1.2,9-3.3,9-3.3
	l14.5-11.5c0,0-4.7,1.9-9.7,3.8c-4.9,1.9-7.3,2.3-12.5,3.8s-13.9,3.8-13.9,3.8s-4.1,7.7-6.4,11.4c-2.3,3.6-4.8,7-7.5,10.2
	C280.2,362.6,274.8,368.4,274.8,368.4z"/>
<linearGradient id="SVGID_3_" gradientUnits="userSpaceOnUse" x1="299.35" y1="313.32" x2="299.35" y2="231.92" gradientTransform="matrix(1 0 0 -1 0 557.3201)">
	<stop  offset="0" style="stop-color:#E9E8E9"/>
	<stop  offset="1" style="stop-color:#E2E1E1"/>
</linearGradient>
<path class="st3" d="M270,325.4c0,0,10.6-13.9,14.9-21.7c4.3-7.8,7.7-13.8,7.7-13.8s7-3.4,10.1-5.4c3.1-2.1,4.9-3.4,6.9-5.4
	c2-2.1,4-4.4,6-8.7c2-4.3,3-6.3,3.8-10.8c0.9-4.5,1.3-12.3,1.3-12.3l8-3.3c0,0-0.2,6.7-1,12.2c-0.7,5.4-1.8,8.9-1.8,8.9
	s-3.5,7.5-5.4,10.6c-1.8,3-5,7-5,7l-4,3.6c0,0-3.1,1.9-5.4,3.2c-2.2,1.3-8.6,3.5-8.6,3.5L270,325.4z"/>
<g>
	<path class="st4" d="M238.6,266.4c0,0-6.2-10.2-21.4-22.7c-0.2-0.2-0.4-0.3-0.6-0.5c-3-2.5-6.3-5.2-10.2-8.1
		c-0.2-0.1-0.4-0.3-0.6-0.4c-6.9-5.2-13.6-9.7-21.4-14.1c-2.6-1.6-5.1-3-7.5-4.3c-4.1-2.3-12.5-6-20.5-9.3
		c-7.2-3.1-12.9-5.3-15.9-6.5c-1.6-0.6-2.6-1-2.6-1l0.1,0.2c0,0,0,0.1,0,0.2l-0.1-0.2c0,0-0.2,18,0.1,28.9
		c0.4,10.9,1.3,39.2,1.9,47.8c0.6,8.5,0.8,10.8,2,18.2c1.2,7.3,1.9,9.9,3.7,16.6c1.9,6.7,3.4,11.3,6.6,18.9
		c3.2,7.6,5.5,12.2,10.1,20.4s10.3,16.9,15.2,23.6s10.1,13.1,14.3,18.1s11.9,12.6,15.8,16.1c3.9,3.5,8.6,7.3,14.2,11.6
		c5.6,4.3,16.8,11.6,16.8,11.6l-0.2-0.3c0.1,0.1,0.2,0.1,0.2,0.2l0.1,0.1l0-0.1c0.1,0,0.1,0.1,0.1,0.1s0.2-49.7,0.2-69.5
		s0-62.4,0-62.4s-0.2,0-0.5-0.1c-2-0.3-11.7-1.8-19.3-3.4c-0.6-0.1-1.3-0.3-1.9-0.4c-0.6-0.1-1.1-0.2-1.7-0.4
		c-3.9-0.9-7.2-1.8-10.2-2.7c-4.5-1.4-9-3.2-13-4.8c-6.7-2.9-15.2-6.9-15.2-6.9l0,0v0l0,0l0,0c0,0,0,0.1,0,0.3l-0.1-0.2
		c0,0,0.7,5.5,1.4,10.5c0.8,5,1.6,9.8,3.5,17.8c1.8,7.5,5,14.6,5,14.6s3.8,1.9,9.4,4c5.6,2.1,11.7,4,11.7,4l0.3-0.1l0.8,36.7
		c0,0,0,0-0.1-0.1l0-0.3c0,0-1.9-2.2-4.5-5.3c-2.5-3.2-5.9-7.9-10.1-14.1c-9.4-13.8-13.1-23.8-17-35.5c-3.8-11.7-6.1-31.7-7-44
		c-0.9-12.3-1.9-24-1.9-24s9.9,5.9,19.2,12.8c9.3,6.9,18.9,15.8,18.9,15.8l1,10.3l-0.2,0.2c0,0,2.4,1.1,7.1,2.5
		c4.7,1.5,7,2,10.8,2.7c4,0.8,11.6,1.6,13.4,1.8l0.2,0.1l0-0.1c0.1,0,0.2,0,0.2,0l-0.2-0.1c0.2,0,0.4,0,0.4,0L238.6,266.4z"/>
	<path class="st4" d="M348.4,198.7C348.4,198.7,348.4,198.7,348.4,198.7c-0.1-0.1-0.1-0.2-0.1-0.2l-0.1,0.2c0-0.1,0-0.1,0-0.1
		s-21.7,8.4-32.6,13.4c-10.9,5-15.4,7.7-27.2,15.7c-6.7,4.6-12.1,8.9-16.9,13c-2.4,1.9-4.6,3.8-6.5,5.5c-1,0.9-1.9,1.8-2.9,2.8
		c-0.3,0.3-0.6,0.6-1,0.8c-7.8,6.9-15.8,16.5-15.8,16.5l0.1,24.5c0,0,0,0,0.1,0v0.4l0,0c0,0,11.5-1.3,15.3-1.9
		c3.7-0.6,5.1-0.9,9.8-2.3c4.6-1.4,7.5-2.7,7.6-2.7l-0.3-0.2c0.1,0,0.2-0.1,0.2-0.1v-10.1c0,0,4.8-3.5,8.5-6.2c3.7-2.7,9.9-7,9.9-7
		s4-5.2,5.1-7c1.2-1.8,6.8-11.8,9-16c1.3-2.5,3.6-7,5.3-10.2l1.8-3.4l0,0c-0.6,1.9-3.9,12.1-5.2,16.7c-1.4,5.1-4.3,12.8-4.3,12.8
		s3-2,5.9-3.4c2.9-1.4,6.6-3.2,6.6-3.2s0,8.8-1.8,14.7c-1.8,5.9-5,12.1-6.6,14.2c-1.6,2.1-4.8,5.1-8.5,7.7
		c-3.7,2.6-11.2,6.1-11.2,6.1s-9.9,18.1-13.1,22.9s-9.6,13-9.6,13s4.1-9.8,6.7-16c1.4-3.4,3.3-7.9,4.8-11.4c0,0,0,0,0,0l2.1-5.1
		c0,0-11,2.9-21.4,4.5c-10.4,1.6-16.8,1.8-16.8,1.8v132c0,0,0,0,0.1-0.1l0,0.1l-0.1,0.2c0,0,8.7-4.9,15.1-9.3
		c6.3-4.5,14.7-11.2,19.7-15.8c5-4.6,14.6-15.3,20.4-22.9c5.9-7.6,10.5-14,14.5-20.6c4-6.6,7.1-12.6,11.1-20.7c4-8.1,7-15.7,7-15.7
		l-0.4,0.3c0.1-0.3,0.2-0.5,0.2-0.5s-9.9,4.5-17.8,6.6c-7.4,1.9-18.4,5-18.4,5s-6.3,11.9-9.9,16.7c-3.7,5-12,13.9-12,13.9l1-36.6
		l0,0c0,0,16.8-2.9,23.6-4.7c6.8-1.6,12.9-3.1,19.1-5.2c1.7-0.6,3.8-1.3,6-2.2c7.3-2.6,13.2-4.9,13.2-4.9s0.5-1.9,1.4-5.3
		c0.8-3.3,1.9-7.7,2.7-12c0,0,0-0.1,0-0.1c0.3-1.6,0.7-3.3,1-5c0.9-4.8,1.6-9.8,2.2-15.2c0.5-3.7,0.9-7.4,1.2-10.8
		c0.2-3.3,0.5-8.1,0.8-13.6c0.2-3.7,0.4-7.7,0.6-11.9c0.1-2.1,0.2-4.2,0.2-6.3c0.3-6.7,0.4-13.3,0.5-18.7c0.1-10.7,0-15.9,0-17.2
		L348.4,198.7z"/>
</g>
</svg>
