<svg xmlns="http://www.w3.org/2000/svg" xmlns:xlink="http://www.w3.org/1999/xlink" viewBox="0 0 558.19 681.87"><defs><style>.cls-1{isolation:isolate;}.cls-2{fill:#fff;}.cls-3{fill:url(#linear-gradient);}.cls-4{fill:url(#Gold_08);}.cls-5{fill:url(#linear-gradient-2);}.cls-6{fill:url(#linear-gradient-3);}.cls-7{fill:url(#linear-gradient-4);}.cls-8{fill:url(#Gold_25);}.cls-9{fill:url(#linear-gradient-5);}.cls-10,.cls-11{mix-blend-mode:overlay;}.cls-11{opacity:0.5;}</style><linearGradient id="linear-gradient" x1="657.7" y1="537.04" x2="1215.88" y2="537.04" gradientUnits="userSpaceOnUse"><stop offset="0" stop-color="#030002"/><stop offset="0.1" stop-color="#060305"/><stop offset="0.17" stop-color="#0f0c0e"/><stop offset="0.23" stop-color="#1e1c1d"/><stop offset="0.29" stop-color="#343233"/><stop offset="0.34" stop-color="#504e4f"/><stop offset="0.39" stop-color="#727171"/><stop offset="0.43" stop-color="#969696"/><stop offset="0.47" stop-color="#686868"/><stop offset="0.52" stop-color="#353434"/><stop offset="0.56" stop-color="#151414"/><stop offset="0.58" stop-color="#090808"/><stop offset="0.62" stop-color="#0e0c0c"/><stop offset="0.68" stop-color="#1b1a1a"/><stop offset="0.73" stop-color="#312f2f"/><stop offset="0.79" stop-color="#504e4e"/><stop offset="0.79" stop-color="#545252"/><stop offset="0.84" stop-color="#3a3939"/><stop offset="0.91" stop-color="#1a1a1a"/><stop offset="0.96" stop-color="#070707"/><stop offset="1"/></linearGradient><linearGradient id="Gold_08" x1="1029.87" y1="233.32" x2="1029.87" y2="776.43" gradientUnits="userSpaceOnUse"><stop offset="0" stop-color="#ffa81b"/><stop offset="0.13" stop-color="#ffd54f"/><stop offset="0.17" stop-color="#ffd54f"/><stop offset="0.29" stop-color="#ffa61a"/><stop offset="0.35" stop-color="#ffa61a"/><stop offset="0.46" stop-color="#fed24f"/><stop offset="0.52" stop-color="#fed24f"/><stop offset="0.62" stop-color="#ffa61a"/><stop offset="0.67" stop-color="#ffa61a"/><stop offset="0.8" stop-color="#ffd34e"/><stop offset="0.84" stop-color="#ffd34e"/><stop offset="1" stop-color="#ffa61a"/></linearGradient><linearGradient id="linear-gradient-2" x1="859.34" y1="306.4" x2="859.34" y2="680.55" gradientUnits="userSpaceOnUse"><stop offset="0" stop-color="#bfbdbe"/><stop offset="0.04" stop-color="#cccbcc"/><stop offset="0.12" stop-color="#e4e3e4"/><stop offset="0.2" stop-color="#f3f2f3"/><stop offset="0.26" stop-color="#f8f7f8"/><stop offset="0.29" stop-color="#f2f1f2"/><stop offset="0.32" stop-color="#e1e0e1"/><stop offset="0.36" stop-color="#c5c4c5"/><stop offset="0.4" stop-color="#9e9e9e"/><stop offset="0.45" stop-color="#6d6d6d"/><stop offset="0.45" stop-color="#6b6b6b"/><stop offset="0.46" stop-color="#767676"/><stop offset="0.51" stop-color="#9e9d9d"/><stop offset="0.56" stop-color="#b6b4b5"/><stop offset="0.58" stop-color="#bfbdbe"/><stop offset="0.64" stop-color="#979697"/><stop offset="0.69" stop-color="#787777"/><stop offset="0.74" stop-color="#616161"/><stop offset="0.79" stop-color="#545454"/><stop offset="0.83" stop-color="#4f4f4f"/><stop offset="1" stop-color="#c0bebf"/></linearGradient><linearGradient id="linear-gradient-3" x1="888.55" y1="344.99" x2="1017.17" y2="344.99" gradientUnits="userSpaceOnUse"><stop offset="0" stop-color="#4f4f4f" stop-opacity="0"/><stop offset="0.14" stop-color="#757575" stop-opacity="0.22"/><stop offset="0.33" stop-color="#a5a5a5" stop-opacity="0.49"/><stop offset="0.5" stop-color="#cbcbcb" stop-opacity="0.71"/><stop offset="0.64" stop-color="#e6e6e6" stop-opacity="0.87"/><stop offset="0.76" stop-color="#f7f7f7" stop-opacity="0.96"/><stop offset="0.83" stop-color="#fdfdfd"/></linearGradient><linearGradient id="linear-gradient-4" x1="728.38" y1="386.83" x2="941.04" y2="386.83" xlink:href="#linear-gradient-3"/><linearGradient id="Gold_25" x1="883.9" y1="517.65" x2="1180.12" y2="517.65" gradientUnits="userSpaceOnUse"><stop offset="0" stop-color="#ffe964"/><stop offset="0.01" stop-color="#f6da5c"/><stop offset="0.05" stop-color="#dcae43"/><stop offset="0.09" stop-color="#ca8e31"/><stop offset="0.12" stop-color="#be7a26"/><stop offset="0.14" stop-color="#ba7322"/><stop offset="0.17" stop-color="#aa6118"/><stop offset="0.22" stop-color="#8b3e04"/><stop offset="0.24" stop-color="#a05b17"/><stop offset="0.3" stop-color="#d3a045"/><stop offset="0.34" stop-color="#f3cb62"/><stop offset="0.36" stop-color="#ffdc6d"/><stop offset="0.45" stop-color="#ffffb5"/><stop offset="0.56" stop-color="#fcfdf6"/><stop offset="0.65" stop-color="#ffff9c"/><stop offset="0.78" stop-color="#fddc53"/><stop offset="0.8" stop-color="#f5cf4a"/><stop offset="0.84" stop-color="#e1ad31"/><stop offset="0.89" stop-color="#c0770a"/><stop offset="0.9" stop-color="#bb6e03"/><stop offset="1" stop-color="#5b1f03"/></linearGradient><linearGradient id="linear-gradient-5" x1="716.96" y1="493.66" x2="994.9" y2="493.66" gradientUnits="userSpaceOnUse"><stop offset="0.22" stop-color="#fdfdfd"/><stop offset="0.24" stop-color="#f4f4f4"/><stop offset="0.29" stop-color="#dcdcdc"/><stop offset="0.34" stop-color="#b5b4b4"/><stop offset="0.4" stop-color="#848383"/><stop offset="0.42" stop-color="#828181"/><stop offset="0.43" stop-color="#7d7d7d"/><stop offset="0.43" stop-color="#7b7b7b"/><stop offset="0.44" stop-color="#656565"/><stop offset="0.46" stop-color="#545454"/><stop offset="0.47" stop-color="#494949"/><stop offset="0.49" stop-color="#424242"/><stop offset="0.56" stop-color="#404040"/><stop offset="0.56" stop-color="#424242"/><stop offset="0.56" stop-color="#5d5d5d"/><stop offset="0.57" stop-color="#727273"/><stop offset="0.58" stop-color="#838384"/><stop offset="0.59" stop-color="#8e8e8f"/><stop offset="0.6" stop-color="#959596"/><stop offset="0.64" stop-color="#979798"/><stop offset="0.66" stop-color="#b0b0b0"/><stop offset="0.69" stop-color="#ccc"/><stop offset="0.73" stop-color="#e2e2e2"/><stop offset="0.77" stop-color="#f1f1f1"/><stop offset="0.82" stop-color="#fafafa"/><stop offset="0.88" stop-color="#fdfdfd"/><stop offset="0.93" stop-color="#b5b9bc"/></linearGradient></defs><title>vector text simple - editable file with adobe illsutrator</title><g class="cls-1"><g id="Layer_1" data-name="Layer 1"><path class="cls-2" d="M1180.12,412.5,1163.81,409c-47.44-10.27-117.17-25.49-133.91-29.43-22.17-73.23-63-139.79-64.77-142.64l-6.81-11L883.9,370.52l4.82,3.72c73.56,56.83,123.47,154.38,152.38,226.21,31.51,78.27,45.61,143.85,45.75,144.5l13.69,64.48.79-65.91c1.4-117.08-33.87-220.88-42.87-245.39Z" transform="translate(-657.7 -196.11)"/><path class="cls-3" d="M1215.88,405.25l-49-10.61c-46.65-10.1-101.88-22.17-125.53-27.51C1018.2,295.32,979.3,232,977.6,229.2l-20.44-33.09L867.47,370.42c-6.19-4.87-12.21-9.43-18-13.66-53.89-39.44-98.59-60.18-100.46-61L657.7,253h0L846.07,496.23,774.3,728.9,1005.56,556c8.34,17.4,15.65,34.29,21.95,49.93,30.86,76.66,44.87,141.43,45,142.07l38,130h0L1116,743.69c1.27-106.48-26.7-201.18-40-240Z" transform="translate(-657.7 -196.11)"/><path class="cls-2" d="M840.81,368.59C788.1,330,744.69,309.87,742.87,309L717,297.11l145.3,196.36L801.57,690.21,994.9,545.66l-2.59-5.42C955.46,463,889.58,404.29,840.81,368.59Z" transform="translate(-657.7 -196.11)"/><path class="cls-4" d="M1090.43,744.19c-.14-.65-14.28-66.48-45.93-145.11C1015.42,526.83,965.17,428.67,891,371.34l-2.41-1.86,70.06-136.17,3.41,5.51c1.72,2.78,42.33,68.93,64.38,141.77l.61,2,2.05.48c15.82,3.72,80.54,17.87,134,29.44l8.16,1.77-117.13,82.44,1,2.64c10.35,28.19,44,129.12,42.64,244.08l-.39,33Z" transform="translate(-657.7 -196.11)"/><path class="cls-5" d="M866.3,492.78,728.38,306.4l13,6c1.81.83,44.91,20.84,97.31,59.18C887.08,407,952.49,465.31,989,541.82l1.29,2.71-181.92,136Z" transform="translate(-657.7 -196.11)"/><path class="cls-6" d="M985.44,425.92c6.18-33.12,14-59.78,31.73-72.75C994.61,291.91,963.51,241.25,962,238.83l-3.41-5.51L888.55,369.48l2.41,1.86c30.06,23.22,56.18,53.14,78.56,85.32C977.27,449.93,982.84,439.84,985.44,425.92Z" transform="translate(-657.7 -196.11)"/><path class="cls-7" d="M855.93,434.7C885.74,456,916.69,468.38,941,467.19c-33-40.52-71.21-72.83-102.39-95.65-52.4-38.35-95.5-58.35-97.31-59.18l-13-6,79.93,108C818,411.87,832.94,418.25,855.93,434.7Z" transform="translate(-657.7 -196.11)"/><path class="cls-8" d="M958.9,240.75h0c1.71,2.76,42.08,68.52,64,140.91l1.22,4,4.11,1c15.84,3.73,80.58,17.88,134,29.46l-108,76-4.6,3.23,1.94,5.28a713.86,713.86,0,0,1,25.06,87.06c12.11,54.1,17.95,106.5,17.36,155.72-.14-.66-14.36-66.82-46.12-145.71C1018.64,525,968.06,426.28,893.2,368.45l65.7-127.7m-.58-14.87L883.9,370.52l4.82,3.72c73.56,56.83,123.47,154.38,152.38,226.21,31.51,78.27,45.61,143.85,45.75,144.5l13.69,64.48.79-65.91c1.4-117.08-33.87-220.88-42.87-245.39l121.65-85.63L1163.81,409c-47.44-10.27-117.17-25.49-133.91-29.43-22.17-73.23-63-139.79-64.77-142.64l-6.81-11Z" transform="translate(-657.7 -196.11)"/><path class="cls-9" d="M739.81,315.68h0c1.8.83,44.57,20.68,96.67,58.81,48.1,35.2,113,93.08,149.22,168.9h0L815.19,670.88l54.06-175.26,1.09-3.54-2.2-3L739.81,315.68M717,297.11l145.3,196.36L801.57,690.21,994.9,545.66l-2.59-5.42c-36.85-77.2-102.73-136-151.51-171.65C788.1,330,744.69,309.87,742.87,309L717,297.11Z" transform="translate(-657.7 -196.11)"/><g class="cls-10"><path class="cls-2" d="M1023.86,395.39s1.86.27,5.11.82,7.89,1.32,13.43,2.36,12,2.27,18.91,3.66l10.64,2.19,11,2.34,10.95,2.44c3.61.79,7.15,1.65,10.59,2.44,6.86,1.6,13.26,3.16,18.72,4.54s10,2.62,13.19,3.45,5,1.38,5,1.38-1.86-.27-5.11-.82-7.89-1.32-13.43-2.36-12-2.26-18.91-3.67c-3.45-.71-7-1.41-10.64-2.19l-11-2.34-10.95-2.44-10.59-2.44c-6.86-1.6-13.25-3.16-18.72-4.54s-10-2.62-13.19-3.44S1023.86,395.39,1023.86,395.39Z" transform="translate(-657.7 -196.11)"/><path class="cls-2" d="M1045,484.82s1.36-1,3.79-2.76,5.88-4.22,10.1-7.1,9.13-6.24,14.45-9.76c2.67-1.75,5.4-3.59,8.22-5.4l8.53-5.5,8.58-5.42c2.82-1.8,5.65-3.5,8.36-5.19,5.43-3.35,10.53-6.42,14.94-9s8.12-4.67,10.69-6.17,4.1-2.28,4.1-2.28-1.36,1-3.79,2.76-5.88,4.22-10.1,7.1-9.13,6.24-14.45,9.76c-2.67,1.75-5.4,3.59-8.22,5.4l-8.53,5.5-8.58,5.42c-2.83,1.8-5.65,3.5-8.36,5.18-5.43,3.34-10.53,6.41-14.94,9s-8.12,4.67-10.69,6.17S1045,484.82,1045,484.82Z" transform="translate(-657.7 -196.11)"/><path class="cls-2" d="M960,253l.8,1.4c.51.92,1.29,2.24,2.22,4,1.85,3.44,4.58,8.33,7.65,14.3s6.61,12.94,10.26,20.49c1.81,3.78,3.68,7.69,5.53,11.69L992,317c1.76,4.12,3.57,8.21,5.25,12.28s3.34,8.08,4.82,12,3,7.7,4.19,11.36,2.48,7.07,3.41,10.31,1.9,6.16,2.48,8.83l.9,3.72a30.85,30.85,0,0,1,.68,3.18c.64,3.88,1,6.08,1,6.08s-.58-2.17-1.52-6a30.56,30.56,0,0,0-.91-3.1l-1.17-3.62c-.78-2.6-1.91-5.46-3-8.6s-2.48-6.51-3.86-10.08-3-7.29-4.54-11.16-3.36-7.81-5-11.87-3.55-8.11-5.32-12.2L983.93,306l-5.29-11.77-9.44-20.85Z" transform="translate(-657.7 -196.11)"/><path class="cls-2" d="M1041.06,497l.79,1.93c.52,1.25,1.26,3.1,2.15,5.47s2,5.24,3.21,8.56l3.95,11.18c1.48,4.09,2.83,8.6,4.35,13.34s3.17,9.73,4.61,15l4.5,16.14c.74,2.75,1.54,5.52,2.25,8.32l2,8.44,4,16.84,1,4.15.8,4.14,1.56,8.13,2.89,15.4c.44,2.45.93,4.82,1.29,7.14l.92,6.72c1.19,8.61,2.05,15.81,2.72,20.83l1,7.9-1.52-7.82c-.91-5-2.3-12.09-3.81-20.63l-1.19-6.66c-.44-2.29-1-4.65-1.5-7.08l-3.27-15.28-1.7-8.07-.88-4.11-1-4.13-4-16.77-2-8.43c-.69-2.79-1.47-5.55-2.2-8.3l-4.25-16.16c-1.36-5.25-2.9-10.26-4.22-15s-2.56-9.33-3.86-13.46l-3.38-11.35c-1-3.39-2-6.3-2.72-8.72l-1.77-5.61Z" transform="translate(-657.7 -196.11)"/></g><g class="cls-11"><path class="cls-2" d="M876.1,497s-.63,2.35-1.79,6.43-2.82,9.93-4.91,16.9-4.54,15.1-7.26,23.79l-4.21,13.38-4.43,13.79L849,585.06l-4.45,13.3c-2.91,8.62-5.68,16.65-8.11,23.51s-4.53,12.56-6,16.56-2.33,6.26-2.33,6.26.63-2.35,1.79-6.43,2.81-9.93,4.91-16.9,4.54-15.1,7.26-23.79l4.21-13.38,4.43-13.79,4.52-13.76,4.45-13.3c2.91-8.62,5.68-16.65,8.11-23.51s4.53-12.56,6-16.56S876.1,497,876.1,497Z" transform="translate(-657.7 -196.11)"/><path class="cls-2" d="M974.2,542.41l-5.68,4.53c-3.65,2.84-8.81,7-15.1,11.78s-13.63,10.44-21.54,16.39l-12.23,9.14L907,593.62l-12.73,9.29-12.37,8.94c-8,5.78-15.58,11.12-22.07,15.66s-12,8.25-15.75,10.89l-6,4.07,5.68-4.53c3.65-2.84,8.81-7,15.1-11.78s13.62-10.44,21.54-16.39l12.23-9.14,12.67-9.37L918,582,930.36,573c8-5.78,15.58-11.12,22.07-15.66s12-8.25,15.75-10.89Z" transform="translate(-657.7 -196.11)"/><path class="cls-2" d="M876.1,482.87l-5.42-6.39c-3.41-4.1-8.34-9.9-14.14-17S844,444.22,836.8,435.33l-11-13.72L814.44,407.4l-11.25-14.28-10.84-13.88c-7-9-13.51-17.47-19-24.74S763.25,341.11,760,336.85l-5-6.74,5.42,6.39c3.41,4.1,8.34,9.9,14.15,17s12.56,15.3,19.74,24.19l11,13.72,11.33,14.22L828,419.86l10.83,13.88c7,9,13.51,17.47,19,24.74s10.07,13.39,13.28,17.65Z" transform="translate(-657.7 -196.11)"/></g></g></g></svg>