<?xml version="1.0" encoding="utf-8"?>
<!-- Generator: Adobe Illustrator 21.0.0, SVG Export Plug-In . SVG Version: 6.00 Build 0)  -->
<svg version="1.1" id="Layer_1" xmlns="http://www.w3.org/2000/svg" xmlns:xlink="http://www.w3.org/1999/xlink" x="0px" y="0px"
	 viewBox="0 0 971 676" style="enable-background:new 0 0 971 676;" xml:space="preserve">
<style type="text/css">
	.st0{fill:url(#SVGID_1_);}
</style>
<path d="M348.2,0h0.2c39.6,58.8,79.3,117.6,118.8,176.5c2,3.3,4.3,6.3,6.2,9.6c1.1,0.1,2.2,0.2,3.3,0.1c-0.8,0.3-1.5,0.5-2.3,0.7
	c50.4,75,101,149.9,151.3,224.9c2.4,3.9,5,7.6,7.6,11.4c13.5,19.7,26.5,39.7,40.1,59.3c44.5-66.4,89.3-132.7,133.9-199.1
	c12.8-18.8,25.3-37.9,38.3-56.6c-0.1,29.7-0.1,59.5-0.1,89.2c-0.1,1.6,0.4,3.5-0.6,4.9c-9.1,13.3-18.2,26.6-27.3,40
	c51.1,76.2,102.2,152.4,153.4,228.5V676h0c-2.2-1.9-3.5-4.5-5.2-6.8c-32.6-48.1-65.4-96.1-98-144.3c-46,0.1-92,0.5-137.9,0.8
	c0.2-0.5,0.7-1.4,0.9-1.8c10.8-15.9,21.7-31.7,32.4-47.7c23.5-0.4,47.1-0.6,70.6-0.9C818.5,452,802.6,429,787,405.9
	c-37.4,54.9-74.9,109.8-112.3,164.8c-6-8.2-11.6-16.7-17.4-25.1c-6.1-7.4-11-15.7-16.6-23.5c-12.3-18.2-24.8-36.2-37-54.5
	c-2.7-4.1-5.4-8.1-8.3-12.1C538.5,372.5,482,289.2,425.3,206.1l-1.3,0.4c0.3-0.2,0.9-0.6,1.2-0.8c-2.3-3.6-4.8-7.1-7.2-10.7
	c-0.8,0.2-2.3,0.7-3.1,0.9c0.7-0.2,2.1-0.7,2.8-0.9c-23-34.2-46.5-68-69.4-102.3C348.2,61.8,348.2,30.9,348.2,0z"/>
<path d="M0,93.4c81.5,121.3,163,242.7,244.6,364c6.4,9.9,13.6,19.4,19.3,29.8c16.8,28.3,40.5,52.4,68.6,69.6
	c0.1,11.8-0.1,23.5,0.3,35.3c-0.1,27.7-0.2,55.4-0.3,83.1c-1.2-1.3-2.2-2.8-3.2-4.3c-71.9-105.7-143.8-211.5-215.8-317.3
	c-0.8-1.3-1.6-2.6-2.7-3.6c-0.2,49.3-0.4,98.7-0.5,148c0.3,1.5-0.7,2.6-1.5,3.8c-15.9,23.1-31.4,46.4-47.4,69.4
	C61.1,474.1,60.9,377,60.7,280c-0.1-1.6,0.4-3.5-0.6-4.9C40,245.6,20,216.1,0,186.7V93.4z"/>
<path d="M282.3,94c0.3,0.1,0.8,0.4,1,0.5c16,23.5,32,47,48,70.5c0.1,15.8,0,31.6,0.2,47.3c-17.4,11.2-33.5,24.5-47,40.3
	c-0.8,0.9-1.4,2-2.5,2.5C282.1,201.3,282.3,147.6,282.3,94z"/>
<linearGradient id="SVGID_1_" gradientUnits="userSpaceOnUse" x1="304.8517" y1="516.5685" x2="791.4901" y2="29.9301">
	<stop  offset="0" style="stop-color:#F7AE06"/>
	<stop  offset="0.75" style="stop-color:#C6341B"/>
</linearGradient>
<path class="st0" d="M690.4,93.5c8.2-0.5,16.6-0.1,24.9-0.2c-1.7,1-3.7,1.6-5.6,2.3c-77.7,30.2-155.5,60.1-233,90.6
	c-1.1,0.1-2.2,0-3.3-0.1c-1.9-3.3-4.3-6.3-6.2-9.6C541.6,148.9,616,121.3,690.4,93.5z M807.7,93.5c2.7-0.4,5.5,0,8.3-0.2
	c-6.2,8.8-12.4,17.9-18.9,26.5c-2.2-1.3-4.2-3.8-7-4.3C795.7,108,801.9,100.9,807.7,93.5z M846.4,93.4c2.8-0.1,5.7-0.1,8.5-0.1
	c-73.8,110-147.6,220-221.5,330c-2.6-3.7-5.2-7.5-7.6-11.4c29.7-43,59.5-85.9,89.3-128.8C758.8,219.8,802.8,156.8,846.4,93.4z
	 M608.7,164c39.7-18.2,79.6-36.2,119.3-54.4c1.7,1.3,5.1,1,5.8,3.1c-41,21.9-81.9,44-122.7,66.2c0.2-4.9,0-10.2-2.9-14.3L608.7,164z
	 M775.4,124.6c5-2,10.8-0.9,15.3,1.7c2.4,1.3,1.8,4.4,1.6,6.6c-1,4.5-1.9,9.2-4.3,13.1c-4.4,2.6-9.3,4.1-14,6.1
	c-5.2,2.1-10.9-4.1-9-9.1c0.8-4.5,2.2-8.9,3.8-13.2C769.6,126.8,772.7,125.5,775.4,124.6z M749.3,165.3c2-2.4,3.7-5.2,6.2-7.1
	c2.9,3.4,7.8,3.6,12,3.4c-49.8,70.5-100,140.8-149.8,211.3c-1-0.4-1.4-1.6-2-2.4c-5-7.5-10.1-14.8-15-22.4
	c10.3-12.2,19.9-24.7,30.2-36.9c3.7-5.3,8.4-9.8,11.9-15.1c0-0.7,1.7-1.2,2.1-2.3C679.7,251,714.6,208.2,749.3,165.3z M697,170.1
	c4.1-2.7,7.9-5.9,12.2-8.1c0.2,1.8,0,3.5,0.2,5.3c-7.3,8-15.4,15.4-23,23.1c-28.2,27.9-56.4,55.8-84.5,83.8l-1.1,0.8
	c0.1-8-0.1-15.9-0.7-23.9c-0.6-2.1-0.1-4.7-1.8-6.2c-1.6-0.9-3.4-1.4-5.1-1.9l0.1-0.9C627.6,217.9,662.4,194.1,697,170.1z
	 M579.7,169.8c3-2.4,7.1-5.9,11.1-3.5c3.1,1.9,7.7,4.4,7.1,8.8c-0.1,5.7-0.2,11.4-1.2,17.1c-0.2,1.9-2.3,2.5-3.7,3.4
	c-3.5,1.6-7.2,3.1-11.1,3.1c-3-2.9-4.9-6.8-6.8-10.5C571.5,182,574.3,173.8,579.7,169.8z M508.3,209.6c17.7-8,35.4-16,53-24.1
	c0.1,6.1,1.1,12.4,4.5,17.4c-10.1,6.1-20.8,11.3-31.1,17.1c-5.2,2.5-10,5.9-15.4,7.8c-3.6-5.8-7.6-11.3-11.3-17
	C508.2,210.5,508.3,209.9,508.3,209.6z M369,213.1c15.3-5.8,30.6-11.4,46-17.2c0.8-0.2,2.4-0.7,3.1-0.9c2.3,3.6,4.9,7.1,7.2,10.7
	c-0.3,0.2-0.9,0.6-1.2,0.8c-13,5.1-26.1,10.1-39.1,15.2c-8.5,3.3-17.1,6.5-25.3,10.7c-31.6,15.7-58,41.3-74.7,72.4
	c-15,27.7-22,59.7-20,91.2c2.2,41.3,20.4,81.4,49.7,110.5c26,26.3,60.9,43.8,97.6,48.8c38.1,5.4,77.9-2.5,110.8-22.3
	c19.4-11.5,36.4-26.9,49.9-45c7.6-10.7,15.1-21.6,22.6-32.4c2.9,3.9,5.6,8,8.3,12.1c-8.5,11.8-15.8,24.3-25.1,35.5
	c-22.7,27.7-53.7,48.7-87.9,59.3c-39.4,12.4-82.9,11-121.3-3.9c-38.1-14.6-70.9-42.2-92-77c-19-31.2-28.4-68.1-26.5-104.6
	c1.6-36.8,14.7-72.9,36.9-102.2C308.4,247.2,336.8,225.6,369,213.1z M357.4,267.7c5.1-6.8,13-11.7,21.5-12.6c9-1.2,18.3,2,25,8.1
	c11.7-3.5,23.9-5.2,36.1-5.4c22,31.8,43.6,64,65.5,95.9c-5.9,0.2-13.5,1.9-15.6,8.3c-1.7,7.1,3.1,13.6,7.8,18.3
	c10.1,9.8,23.7,16.1,37.7,17.2c9.4,13.8,18.8,27.6,28.2,41.4c-15.7,39.9-52.2,70.8-94.1,79.8c-4.5,9.6-13.9,16.7-24.4,17.9
	c-13.1,1.9-26.8-5.8-32.2-17.8c-32.6-7.1-62.1-27.1-80.8-54.7c-12.3-18.1-20.1-39.3-22.2-61c-3-29.2,4.1-59.3,19.9-84
	c6.2-9.9,13.9-18.8,22.4-26.8C350.4,283.8,352.5,274.7,357.4,267.7 M377.5,264.6c-6,1.5-11.9,5.5-14.2,11.4
	c-1.5,3.2,0.4,7.2,3.8,8.1c6.1,1.6,12.5-1.2,17-5.3c2.9-2.7,5.6-6.8,4.2-11C386.4,263.9,381.2,263.7,377.5,264.6 M365.6,351.7
	c-6.7,2.1-12.8,6.5-16.5,12.5c-1.6,2.7-2.9,6.5-0.4,9.1c3.3,2.8,8.1,1.5,11.8,0.1c6.1-2.6,11.7-7,14.7-13.1c1.1-2.4,1.7-5.9-0.6-7.8
	C372.1,350.4,368.5,350.9,365.6,351.7 M395.5,368.7c-4,1.8-6.8,5.8-7.3,10.2c-1,7.3,5.4,14.6,12.8,14.1c7.2,0.3,13.4-6.7,12.6-13.8
	C413.1,370.6,403.1,364.8,395.5,368.7 M357.6,400.7c-7.3,1.1-12,8.3-12.2,15.3c-0.4,11.3,5,22.1,11.9,30.8
	c7.1,8.7,16.6,16.3,27.8,18.7c6.3,1.5,14,0.1,17.9-5.5c4.3-6.2,3.7-14.5,1.6-21.4c-4-12.8-12.7-23.9-23.7-31.4
	C374.1,402.7,365.8,399.2,357.6,400.7 M435.6,509.7c-2.5,0.8-5,2.1-6.6,4.3c-1.7,2.4-1,5.9,1.2,7.8c4.3,3.8,10.5,4.4,15.9,3.2
	c3.7-0.9,7.7-3.1,8.4-7.1c0.3-2.8-1.7-5.2-3.9-6.5C446.1,508.6,440.5,508.3,435.6,509.7z M573.5,256.8c4.2-0.4,9.3-1.9,12.9,0.8
	c2.9,8.8,2.1,18.3,1.9,27.4c0.5,5.1-5.2,7.4-9.3,8c-5.2-1.5-9.5-5-13.7-8.3c-2.2-2-5.5-4.2-5-7.6c0.2-5.4,1.7-10.8,4.1-15.7
	C566,257.9,570.3,257.6,573.5,256.8z"/>
</svg>
