<?xml version="1.0" encoding="utf-8"?>
<!-- Generator: Adobe Illustrator 21.0.0, SVG Export Plug-In . SVG Version: 6.00 Build 0)  -->
<svg version="1.1" id="Layer_1" xmlns="http://www.w3.org/2000/svg" xmlns:xlink="http://www.w3.org/1999/xlink" x="0px" y="0px"
	 viewBox="0 0 863.9 860.1" style="enable-background:new 0 0 863.9 860.1;" xml:space="preserve">
<style type="text/css">
	.st0{fill:#BF1010;}
	.st1{fill:#FFFFFF;}
</style>
<g id="_x23_000000ff_1_">
	<path d="M431.9,770.4c-25.6,0-51.2-2.2-76.1-6.6c-4.3-0.8-8.5-2.1-12.5-3.3l-2.1-0.6c-34.7-11-67.4-26.1-97.4-44.8
		c0,4.8-0.1,10.2-2.9,14.9l-0.1,0.1c-4.3,6.6-12.4,7.3-18.2,7.3c-0.4,0-0.8,0-1.2,0c-0.7,0-1.4,0-2,0c-0.7,0-1.4,0-2.1,0
		c-0.7,0-1.5,0-2.2,0c-4.5,0-9.3-0.4-13.4-3.3c-4.4-3.1-6.9-8.6-6.8-15.5c0-7,0-14.1,0-21.2c0-7.3,0-14.5,0-21.8
		c-7.9-7.5-15.7-15.7-23.3-24.3c-0.6,0-1.2,0-1.9,0c-1,0-2,0-3.1,0c-1.1,0-2.2,0.1-3.3,0.1c-4.6,0-9.8-0.5-14.3-3.8
		c-6.4-4.7-6.3-13.4-6.2-18c0-1,0-2.1,0-3.1c0-3.8-0.1-7.7,0.8-11.6c-1.2-2.1-2.4-4.2-3.7-6.2c-1.1-1.9-2.3-3.9-3.4-5.8
		c-10.1,0-20.1,0-30.2,0c-10.6,0-21.3,0-31.9,0c-5.7,0-11-1.5-16.2-3l-0.8-0.2l-0.2-0.1c-6.7-3.1-12.4-8.6-15.6-15.2l-0.1-0.2
		l-0.1-0.2c-1.9-6.7-3.9-14.5-3.1-22.4c-0.2-16.8-0.1-33.8-0.1-50.3c0-11.6,0-23.7,0-35.5l0-0.2c0.2-2.7,0.2-5.6,0.3-8.3
		c0.1-6.5,0.3-13.2,1.7-19.8c0.4-1.7,0.7-3.3,1.1-4.9c2.3-10.6,4.8-21.6,11-31.1l1-1.4c5.3-7.7,10.7-15.7,18.3-21.7
		c6.2-4.8,13.5-10.2,21.6-14.3c0.3-1.9,0.6-3.8,0.8-5.8c1-7.2,2.1-14.7,4.2-21.9c-3.1,0-6.2,0-9.3,0c-4.5,0-9,0-13.5,0
		c-0.3,0-0.6,0-0.9,0c-6,0-11.7-1.6-17.6-3.4l-0.3-0.1l-0.3-0.1c-9-4.8-14.9-12.1-16.2-20l-0.3-1.5c-0.8-3.4-1.6-6.9-1.6-10.6
		c0-5.3,0-10.6,0-15.8c0-8.9,0-18.1,0.1-27.1c0.2-5,1.4-9.8,2.7-14.3l0.6-2.1l0.1-0.2c2.9-6.4,8.2-11.8,14.9-15.1l0.3-0.1l1.7-0.5
		c4.7-1.3,9.6-2.7,14.7-2.9l0.2,0c6.4,0,12.9,0,19.3,0l28.8,0c9.6,0,19.2,0,28.7,0c0.4,0,0.9,0,1.2,0c0.3,0,0.6,0,0.8,0l0,0
		c21.6-28,46.5-53.3,74.1-75.1c4.9-4.1,10.2-7.5,14.4-10.1c30.1-19.2,63.1-34.6,97.9-45.9c1-0.3,2-0.6,2.9-0.9
		c5-1.6,10.1-3.2,15.5-4.1c24.7-4.2,50-6.4,75-6.4c26.6,0,53.1,2.4,78.9,7.2l0.1,0l0.1,0c34.5,9.6,68.6,24.2,101.2,43.5
		c1.9,1.2,3.7,2.3,5.5,3.4c6.8,4.1,13.8,8.4,20.1,13.7c27.2,21.6,51.8,46.5,73,74c0.1,0.1,0.5,0.6,0.6,0.7c1.7,0.1,3.6,0.1,5.8,0.1
		c2,0,4,0,6.1,0c2,0,4.1,0,6.1,0c4.2,0,9.7,0.1,15.3,0.8c7.1,0.6,14,2.2,20.7,3.8c1.7,0.4,3.4,0.8,5.1,1.2
		c10.1,2.3,19.6,6.2,28.1,11.5l0.1,0.1c9.5,6.5,18,12.5,24.4,20.9l0.5,0.7c4.9,6.6,10,13.4,13.4,21.3c3,6.9,4.7,14.2,6.3,21.3
		c0.5,2.2,1,4.4,1.5,6.6c2.4,9.8,2.3,19.9,2.2,29.6c0,2.2,0,4.4,0,6.6c0,1.2,0,2.4,0,3.5c0,6.6,0.1,13.4-1.2,20.1
		c-1.1,5.7-2.5,11.4-3.9,16.9l-0.3,1.3c-1.5,6-4.1,12.1-8.2,19.3c3.7,6.1,6.5,12.7,8.3,19.6c0.4,1.5,0.7,3,1.1,4.4
		c2.2,9,4.5,18.3,4.3,28c-0.1,4.1,0,8.3,0,12.3c0.1,11.4,0.2,23.3-2.5,34.8c-0.5,2-0.9,4-1.4,5.9c-1.6,6.9-3.2,14-6.2,20.8
		c-3.1,7.4-8,13.8-12.6,20.1l-0.6,0.9c-7.2,9.4-17,16-25.6,21.7c-12.3,7.9-26.4,11-40.1,13.9l-1.9,0.4c-7.7,1.6-16,2.3-26,2.3
		c-1,0-2,0-3,0l-0.9,1.4c-6.7,11.3-13.6,23.1-22.4,33.3c-0.8,1.1-1.7,2.1-2.5,3c-2.1,2.3-3.4,3.8-3.2,5.7l0,0.1v0.1
		c0,8.6,0,17.2,0,25.8c0,15.8,0,32.2,0,48.3c0.2,4.1-1.4,8.2-4.4,11.4c-3,3.2-7.2,5.1-11.4,5.2c-1.5,0-3,0.1-4.5,0.1
		c-1.9,0.1-3.8,0.1-5.7,0.1c-4.8,0-8.5-0.4-11.9-1.4c-6-1.7-10.4-7.6-10.7-14.3c-0.3-5.4-0.2-10.9-0.2-16.2c0-0.1,0-0.2,0-0.3
		c-0.2,0.3-0.3,0.5-0.5,0.8c-5.8,9.2-11.9,18.8-21,25.7c-4.2,3.5-9.6,5.5-14.7,5.5c-2,0-3.9-0.3-5.7-0.8c-4.9-1.1-8.6-4.3-11.9-7.2
		c0,0,0,0,0,0c-24.4,12.9-49.5,23.3-74.5,31.1c-9.5,3.3-19.5,4.7-29.2,6c-1.7,0.2-3.4,0.5-5,0.7
		C468.7,769.3,450.2,770.4,431.9,770.4z M565.3,651c6.5,10.6,13.3,21.2,19.9,31.4c4,6.2,8.2,12.7,12.2,19.1
		c3.7,5.8,7.7,11.9,13.3,16.2l0.1,0.1c0.7,0.6,1.6,0.9,2.6,0.9c0.6,0,1.4-0.1,2.1-0.7l0.1-0.1c7.7-5.6,12.9-14,18-22
		c1.3-2.1,2.7-4.4,4.2-6.5c4.5-6.9,9-13.9,13.3-20.7c3.8-6,7.6-11.9,11.5-17.9l5.5-8.4l0.1,10c0.1,13.7,0.1,27.5,0.1,41
		c0,8.4,0,16.8,0,25.2h11.8c0-13.9,0-27.8,0-41.7c0-18.7,0-37.4,0-56.1c-1.6,0-3.2,0-4.8,0c-2.1,0-4.1,0-6.2,0
		c-18.5,28.4-35.7,54.9-52.7,80.9l-2.5,3.9l-2.5-3.9c-9.4-14.6-19.1-29.4-28.4-43.7c-7.9-12.2-16.1-24.7-24.2-37.1
		c-2.6,0-5.2,0-7.8,0l-3,0c0,18.8,0,37.6,0,56.4c0,13.8,0,27.5,0,41.3c1,0,2,0,3,0c1.2,0,2.3,0,3.5,0c1.5,0,3.4,0,5.4-0.1
		c0-7.5,0-15,0-22.3c0-14.3-0.1-29.1,0.2-43.7l0.2-10.3L565.3,651z M352.4,620.9c-11.3,0-22.6,0-33.9,0c-6.6,0-11.5,1-15.5,3.1
		l-0.1,0.1c-6.2,2.9-10.6,9.4-11.2,16.7c-1,9-1.2,20.1,5.8,26.8l2,1.9l-1.8,2.2c-4.1,4.9-6.1,9.5-6.2,14c-0.4,7.8-0.8,16.6,3.5,23.2
		c3.9,6.1,11.8,9.8,21,9.8c0.5,0,0.9,0,1.4,0l0.1,0c10.9,0,21.8,0,32.6,0l56.5,0c0-3.8,0-7.7,0-11.5c-3.8,0-7.7,0-11.5,0
		c-7.1,0-14.3,0-21.4,0c-7.1,0-14.3,0-21.4,0c-15.1,0-26.8-0.1-37.9-0.2l-0.4,0l-0.4-0.1c-4.2-1.1-7.5-4.1-9.3-8.3
		c-2.2-5.2-1.7-11.7,1.1-16.7c2.3-4,7-6.2,12.7-6.2l0.4,0c15.5,0,31,0,46.5,0l41.5,0l0-1.5c0-3.4,0-6.7,0-10.1l-49.1,0
		c-13,0-26,0-39,0c-0.2,0-0.4,0-0.6,0c-4.2,0-8.1-1.6-10.8-4.3l-0.1-0.1c-4.8-5.4-4.7-12.8-3-18c1.5-5.2,6.9-9,12.8-9
		c0.2,0,0.4,0,0.7,0c11.4,0,22.8,0,34.2,0l54.8,0c0-3.9,0-7.9,0-11.8L352.4,620.9z M521.7,718.6c1.7,0,3.6,0.1,5.8,0.1
		c1.5,0,3.1,0,4.6,0c1.3,0,2.5,0,3.8,0c-7-13.3-13.9-26.8-20.7-39.9c-7.3-14.1-14.8-28.6-22.3-42.8c-3.3-5.9-7.1-11.9-12.9-14.6
		c-0.6,0-1.2,0-1.9,0c-1.1,0-2.3,0-3.4,0c-2.7,1.2-5.6,2.6-7.5,4.8c-3.6,4.2-6.1,9.1-8.8,14.4c-0.6,1.2-1.3,2.5-1.9,3.7l-4.2,8
		c-11.5,22.2-23,44.3-34.4,66.5l13.8,0c10.8-20.5,21.7-41.3,32.3-61.4l12.5-23.8l2.7,4.6c3,5,5.7,10.3,8.3,15.3
		c1.3,2.4,2.5,4.9,3.8,7.3c4.4,8.5,8.9,17,13.3,25.5c5.2,10,10.7,20.3,15.9,30.5c0.2,0.3,0.4,0.7,0.6,1
		C521.4,718.1,521.5,718.3,521.7,718.6z M225,718.6l0-18.7c0-21.4,0-42.8,0-64.2l0-3l29.6,0c7.4,0,14.8,0,22.2,0c0-1.5,0-3,0-4.4
		c0-2.5,0-4.9,0-7.4c-4.6,0-9.2,0-13.8,0c-9.3,0-18.6,0-27.9,0c-9.3,0-18.6,0-27.9,0c-18,0-32.2,0-45.5,0.1c0.2,3.5,0.2,7.2,0,11.7
		c1.2,0.1,2.4,0.1,3.5,0.1c0.6,0,1.3,0,1.9,0c0.6,0,1.3,0,1.9,0c0,0,9.7,0,14.3,0l30.4,0l0,24.7c0,20.4,0,40.8,0,61.2H225z
		 M72.6,568.4c58.9,0,117.9,0,176.8,0s117.9,0,176.8,0c0-8.5,0-17.1,0-25.6c0-6.6,0-13.3,0-19.9c-36.2,0-72.4,0-108.6,0l-135.2,0
		c-20.2,0-40.4,0-60.6,0l-3,0l0-3c0-6.9,0-13.9,0-20.7c0-6.8,0-13.8,0-20.7l0-0.1c0.8-14.2,4.8-24.2,12.2-30.4
		c7.9-6.9,18.3-7.8,26.6-7.9l0-7c0-12.5,0-25.3,0-38.1c-0.5,0-0.9,0-1.4,0c-8.7,0-17.5,0.9-26.1,2.6c-14.5,2.9-26.4,8.1-35.3,15.7
		c-9.9,8-17.1,19.7-20.1,32.9c-2.3,9.2-2.2,18.9-2.2,28.3c0,2.1,0,4.1,0,6.2c0,11.1,0,22.1,0,33.2C72.7,532,72.7,550.2,72.6,568.4z
		 M735.5,568.4c18.9-0.1,36.2-5.1,50-14.7c12.1-8.2,21.2-21.7,24.8-37c2.9-11.1,2.8-22.9,2.7-34.3c0-3.9-0.1-8,0-11.9
		c0.2-5.4-0.5-10.9-1.2-15.6c-2.7-12.9-9.5-25.4-19.1-35.2l-2.1-2.1l2.1-2.1c12.8-13,20.2-30.1,20.3-47c0-4.1,0-8.4,0-12.6
		c0.1-8,0.1-16.2-0.4-24.3c-1.9-15.2-6.5-27.7-13.7-37.1c-9-12-23.5-20.9-40.9-25.2c-10-2.5-20.2-3-32.4-3c-2.3,0-4.6,0-6.9,0
		c-2.3,0-4.6,0-6.9,0c-1.4,0-2.9,0-4.3,0l-167.8,0c-27,0-54,0-80.9,0c0,6.3,0,12.7,0,18.9c0,8.8,0,17.8,0,26.7
		c35.3,0,70.5,0,105.8,0l107.2,0c16.6,0,33.2,0,49.8,0c1.2,0,2.5-0.1,3.9-0.1c7.4,0,18.3,0.7,27.1,7c7.9,5.3,13.2,15,14.3,26.4
		c0.7,9,0.8,20.6-4.4,30.9c-4.4,8.7-13,15.3-23.1,17.6l-0.1,0l-0.1,0c-1.6,0.2-3.3,0.5-4.9,0.8l-0.2,0l-0.2,0
		c-3.3,0.3-6.8,0.4-11.3,0.4c-1.9,0-3.7,0-5.6,0c-1.8,0-3.7,0-5.5,0c-1.2,0-2.5,0-3.7,0c-15.8,0-31.5,0-47.2,0l-101.7,0
		c-33.3,0-66.6,0-99.9,0c0.1,7.9,0.1,16,0,23.7c0,7.2,0,14.6,0,21.9c38.6,0,77.2,0,115.7,0l158.2,0c7.8,0.3,15.2,2.9,21,7.1
		c8.1,6,11.3,15.5,12.6,22.4c1.1,6.7,1.2,14,0.3,21.7c-1.6,11.4-7.7,21-16.1,25.6c-8.4,5-17.8,5.5-25.9,5.5c-1.4,0-2.9,0-4.3,0
		c-1.4,0-2.8,0-4.2,0c-0.5,0-1,0-1.5,0c-43.2,0-86.3,0-129.4,0c-42.1,0-84.2,0-126.4,0l0,12.3c0,11.1,0,22.1,0,33.2
		c33.7,0,67.3,0,101,0l109.5,0L735.5,568.4z M341.4,395.1c0.2,7.1,0.3,14.9,0.1,22.6l0,0.1c-0.2,3.9-0.1,7.9,0,11.7
		c0.1,3.5,0.2,7,0.1,10.6c13.6,0,25.7-1.5,37-4.4c14.2-3.8,25.1-9.9,32.4-18.3c12.6-14,15.3-33.7,15.4-47.8c0-4.1,0-8.2,0-12.2
		c0.1-10.3,0.1-21-0.6-31.4c-2-13.1-5.5-22.9-11.1-30.6c-7.5-11-20.2-19.5-35.6-24c-11.8-3.4-25.2-5.1-40.7-5.1c-1.6,0-3.1,0-4.7,0
		l-175.9,0c-28.3,0-56.6,0-84.9,0c0,5.9,0,11.9,0,17.8c0,9.1,0,18.5-0.1,27.8c40.5,0,81,0,121.5,0l149.3,0
		c11.7,0.3,20.4,3.5,26.2,9.5c6.9,6.9,10.3,17.4,10.3,31c0.3,14.4-3,25-9.9,32.4c-4.7,5.2-11.9,8.5-21.2,9.7
		C346.4,394.9,343.9,395,341.4,395.1z"/>
	<path d="M357.6,99c50.5-8.6,102.5-8.6,152.9,0.8c35.2,9.8,69,24.6,100.5,43.2c8.5,5.3,17.4,10.3,25.2,16.8
		c27,21.5,51.5,46.2,72.6,73.6c0.7,0.8,1.4,2,2.7,1.8c11,0.4,22.1-0.6,33.1,0.8c8.6,0.7,17,3,25.4,5c9.6,2.2,18.8,5.9,27.2,11.1
		c8.6,5.8,17.3,11.9,23.7,20.2c5,6.8,10.2,13.5,13.6,21.4c3.9,8.7,5.4,18.2,7.7,27.5c2.8,11.6,2.1,23.6,2.2,35.5
		c0,7.7,0.3,15.4-1.2,23c-1.2,6.1-2.7,12-4.1,18c-1.7,7.1-5.1,13.7-8.8,20c4,6.2,7.1,13.1,8.9,20.3c2.5,10.4,5.5,20.8,5.2,31.6
		c-0.3,15.5,1.2,31.3-2.4,46.5c-2.2,8.8-3.7,17.8-7.4,26.2c-3.1,7.5-8.1,13.9-12.9,20.3c-6.7,8.7-15.8,15-24.9,21
		c-12.3,7.9-26.9,10.8-41,13.9c-9.9,2-20,2.4-30,2.2c-7.3,12.4-14.5,25-23.9,35.9c-2.4,3.4-6.8,6.2-6.3,10.8c0,24.7,0,49.4,0,74.1
		c0.3,7.1-5.8,13.4-12.9,13.5c-7,0.1-14.3,0.9-21.2-1c-5-1.4-8.3-6.5-8.5-11.6c-0.4-8.8,0-17.6-0.2-26.4
		c-8.2,11.8-14.6,25.4-26.4,34.2c-4.8,4.1-11.6,6-17.8,4.1c-4.9-1.1-8.6-4.8-12.3-7.9c-24.2,12.9-49.6,23.7-75.8,31.9
		c-10.9,3.8-22.4,5-33.7,6.6c-43.3,5.4-87.4,4.4-130.3-3.2c-4.9-0.9-9.5-2.4-14.2-3.9c-35.6-11.3-69.8-27.2-101.3-47.4
		c-0.2,6.3,0.9,13.2-2.5,18.8c-3.6,5.5-10.8,6.1-16.8,6c-6-0.3-12.8,1-18.1-2.7c-4.2-2.9-5.5-8.2-5.5-13c0.1-14.8,0-29.5,0.1-44.3
		c-8.7-8.2-17-16.9-24.8-26c-7.4-0.6-15.8,1.6-22.2-3.3c-4.8-3.5-5.1-10.1-5-15.6c0.1-5.1-0.3-10.2,1-15.2
		c-2.8-4.9-5.8-9.7-8.6-14.6c-21.3,0-42.6,0-63.9,0c-5.5,0-10.8-1.6-16-3C52.4,594,47.3,589,44.4,583c-2-7-3.7-14.2-3-21.5
		c-0.3-28.6,0-57.3-0.1-86c0.5-9.2-0.1-18.5,1.9-27.6c2.8-12,4.8-24.5,11.7-35c5.5-8,11-16.3,18.7-22.4c7.1-5.5,14.4-10.8,22.5-14.7
		c1.7-10.9,2.6-22.2,6.5-32.6c-9,0-18-0.1-27,0c-6,0.2-11.9-1.5-17.7-3.3c-6.9-3.7-13.4-9.9-14.7-18c-0.9-3.8-1.9-7.6-1.9-11.5
		c0-14.3,0-28.6,0.1-43c0.2-5.3,1.7-10.4,3.1-15.5c2.7-6,7.7-10.8,13.6-13.7c5.1-1.4,10.2-2.9,15.5-3.2c25.7,0,51.3,0,77,0
		c1.5-0.2,3.5,0.4,4.3-1.3c21.4-27.7,46.1-52.9,73.6-74.6c4.4-3.7,9.2-6.8,14.1-9.9c30.3-19.3,63.1-34.5,97.2-45.6
		C345.5,102.1,351.4,100,357.6,99 M69.7,263.4c-0.1,17.2,0.1,34.4-0.1,51.6c91.3,0.1,182.6,0,273.9,0c8.6,0.2,17.9,2.2,24,8.6
		c7.5,7.6,9.5,18.7,9.5,29c0.2,10.6-1.5,22.3-9.1,30.4c-5,5.5-12.3,7.8-19.4,8.8c-3.4,0.3-6.8,0.4-10.3,0.4c0.2,8.5,0.4,17,0.2,25.5
		c-0.5,8.5,0.5,17-0.2,25.5c13.7,0.2,27.6-1,40.9-4.5c12.7-3.4,25.2-9.2,33.9-19.3c12.1-13.4,16-32.1,16.1-49.7
		c-0.1-14.6,0.5-29.3-0.6-43.9c-1.7-11.3-4.9-22.6-11.6-32c-8.7-12.8-22.6-20.9-37.3-25.1c-15-4.3-30.8-5.5-46.3-5.1
		C245.5,263.4,157.6,263.4,69.7,263.4 M455.7,315c88.6,0.1,177.2,0,265.8,0c10-0.3,20.8,0.3,29.2,6.3c8,5.4,12.1,14.9,13,24.3
		c0.8,9.9,0.5,20.3-4.1,29.2c-4.1,8.2-12.2,14-21.1,16c-1.7,0.2-3.4,0.5-5.1,0.8c-8.6,0.7-17.3,0.2-26,0.4c-84,0-167.9,0-251.8,0
		c0.2,17.2,0,34.4,0.1,51.6c92.2,0,184.5,0,276.7,0c6.8,0.3,13.8,2.4,19.3,6.5c6.5,4.8,10,12.7,11.4,20.5c1.1,6.8,1.1,13.9,0.3,20.8
		c-1.3,9.4-6.1,18.7-14.6,23.4c-10.4,6.3-22.8,4.9-34.4,5c-86.3,0-172.5,0-258.7,0c0,17.2,0,34.3,0,51.5c93.3,0,186.5,0,279.8,0
		c18.2-0.1,36.6-4.8,51.7-15.2c13.2-9,22.4-23.3,26-38.8c4-15.3,2.4-31.2,2.8-46.9c0.2-5.5-0.5-10.9-1.3-16.2
		c-2.9-13.8-10-26.7-19.9-36.7c12.8-13,21-30.7,21.2-49c-0.1-12.4,0.4-24.8-0.4-37.2c-1.7-13.7-5.8-27.6-14.4-38.6
		c-10.3-13.7-26.1-22.3-42.5-26.3c-16.7-4.2-34.1-2.9-51.2-3.1c-83.9,0-167.8,0-251.8,0C455.7,280.6,455.9,297.8,455.7,315
		 M129.6,394.6c-13.2,2.6-26.3,7.6-36.6,16.3c-10.8,8.6-18,21.1-21.1,34.5c-2.8,11.5-2.2,23.4-2.2,35.1c0,30.3,0,60.6,0,90.8
		c119.9,0,239.8,0,359.6,0c-0.1-17.2,0-34.3,0-51.5c-102.5,0.1-204.9,0-307.4,0c0.1-13.8,0-27.6,0.1-41.4
		c0.5-10.2,2.9-21.4,11.1-28.3c7.6-6.6,18.1-7.4,27.7-7.1c0-17,0-34,0-51C150.3,391.7,139.8,392.6,129.6,394.6 M158.4,618
		c0.6,5.7,0.4,11.5,0.1,17.3c3.6,0.6,7.3,0.4,11,0.4c13.7,0,27.4,0,41.2,0c0,28.6,0,57.3,0,85.9c5.8,0,11.6,0,17.4,0
		c0-28.6,0-57.3,0-85.9c17.3,0,34.5,0,51.7,0c0-6,0-11.9,0-17.8C239.3,618,198.8,617.8,158.4,618 M301.5,621.4
		c-7.4,3.4-12.2,11.2-12.9,19.2c-1.1,10-1.2,21.7,6.7,29.2c-3.7,4.5-6.8,9.9-6.9,15.9c-0.4,8.4-0.8,17.6,4,24.9
		c5.3,8.2,15.7,11.5,25,11.1c30.7,0,61.4,0,92.2,0c0-5.8,0-11.7,0-17.5c-31.7-0.1-63.5,0.2-95.2-0.2c-8.7-2.3-10.4-13.6-6.4-20.6
		c2.1-3.6,6.5-4.8,10.4-4.7c30.4,0,60.8,0,91.1,0c0-5.9,0-11.7,0-17.6c-30.4,0-60.8,0-91.2,0c-3.3,0.1-6.8-0.9-9.2-3.4
		c-3.6-4-4-10.2-2.4-15.1c1.3-4.5,6.1-7.2,10.5-6.9c30.7,0,61.4,0,92.1,0c0-6,0-11.9,0-17.8c-30.4,0-60.7,0-91.1,0
		C312.6,618,306.7,618.7,301.5,621.4 M544.7,617.9c0.1,34.6,0,69.2,0,103.7c5.9,0,11.9,0.1,17.8-0.2c0.1-23-0.2-45.9,0.1-68.9
		c10.4,17,21.5,33.6,32.2,50.5c3.9,6.2,8.1,12.4,14,17c2.3,2,6,2.2,8.4,0.3c10.2-7.5,16-19,22.9-29.3c8.3-12.8,16.5-25.8,24.8-38.7
		c0.1,23.1,0,46.1,0.1,69.2c5.9,0,11.9,0,17.8,0c0-34.6,0-69.1,0-103.7c-5.2,0-10.4,0-15.6,0c-17.8,27.4-35.7,54.8-53.6,82.2
		c-17.7-27.5-35.8-54.8-53.5-82.2C555.1,617.9,549.9,617.9,544.7,617.9 M465,624.1c-4.8,5.5-7.8,12.2-11.1,18.6
		c-13.6,26.3-27.3,52.6-40.9,78.9c6.8,0,13.7,0,20.5,0c14.4-27.3,28.8-54.7,43.1-82c4.3,7.3,8,15,12.1,22.5
		c9.7,18.7,19.6,37.3,29.3,56c0.7,1.1,1.2,2.5,2.2,3.4c6.9,0.2,13.7,0,20.6,0.1c-15.2-29-30.1-58.2-45.3-87.1
		c-3.6-6.4-7.9-13.3-15-16.2c-2.2,0-4.4,0-6.5,0C470.8,619.8,467.4,621.4,465,624.1z"/>
</g>
<g id="_x23_000000ff">
	<path d="M357.6,99c50.5-8.6,102.5-8.6,152.9,0.8c35.2,9.8,69,24.6,100.5,43.2c8.5,5.3,17.4,10.3,25.2,16.8
		c27,21.5,51.5,46.2,72.6,73.6c0.7,0.8,1.4,2,2.7,1.8c11,0.4,22.1-0.6,33.1,0.8c8.6,0.7,17,3,25.4,5c9.6,2.2,18.8,5.9,27.2,11.1
		c8.6,5.8,17.3,11.9,23.7,20.2c5,6.8,10.2,13.5,13.6,21.4c3.9,8.7,5.4,18.2,7.7,27.5c2.8,11.6,2.1,23.6,2.2,35.5
		c0,7.7,0.3,15.4-1.2,23c-1.2,6.1-2.7,12-4.1,18c-1.7,7.1-5.1,13.7-8.8,20c4,6.2,7.1,13.1,8.9,20.3c2.5,10.4,5.5,20.8,5.2,31.6
		c-0.3,15.5,1.2,31.3-2.4,46.5c-2.2,8.8-3.7,17.8-7.4,26.2c-3.1,7.5-8.1,13.9-12.9,20.3c-6.7,8.7-15.8,15-24.9,21
		c-12.3,7.9-26.9,10.8-41,13.9c-9.9,2-20,2.4-30,2.2c-7.3,12.4-14.5,25-23.9,35.9c-2.4,3.4-6.8,6.2-6.3,10.8c0,24.7,0,49.4,0,74.1
		c0.3,7.1-5.8,13.4-12.9,13.5c-7,0.1-14.3,0.9-21.2-1c-5-1.4-8.3-6.5-8.5-11.6c-0.4-8.8,0-17.6-0.2-26.4
		c-8.2,11.8-14.6,25.4-26.4,34.2c-4.8,4.1-11.6,6-17.8,4.1c-4.9-1.1-8.6-4.8-12.3-7.9c-24.2,12.9-49.6,23.7-75.8,31.9
		c-10.9,3.8-22.4,5-33.7,6.6c-43.3,5.4-87.4,4.4-130.3-3.2c-4.9-0.9-9.5-2.4-14.2-3.9c-35.6-11.3-69.8-27.2-101.3-47.4
		c-0.2,6.3,0.9,13.2-2.5,18.8c-3.6,5.5-10.8,6.1-16.8,6c-6-0.3-12.8,1-18.1-2.7c-4.2-2.9-5.5-8.2-5.5-13c0.1-14.8,0-29.5,0.1-44.3
		c-8.7-8.2-17-16.9-24.8-26c-7.4-0.6-15.8,1.6-22.2-3.3c-4.8-3.5-5.1-10.1-5-15.6c0.1-5.1-0.3-10.2,1-15.2
		c-2.8-4.9-5.8-9.7-8.6-14.6c-21.3,0-42.6,0-63.9,0c-5.5,0-10.8-1.6-16-3C52.4,594,47.3,589,44.4,583c-2-7-3.7-14.2-3-21.5
		c-0.3-28.6,0-57.3-0.1-86c0.5-9.2-0.1-18.5,1.9-27.6c2.8-12,4.8-24.5,11.7-35c5.5-8,11-16.3,18.7-22.4c7.1-5.5,14.4-10.8,22.5-14.7
		c1.7-10.9,2.6-22.2,6.5-32.6c-9,0-18-0.1-27,0c-6,0.2-11.9-1.5-17.7-3.3c-6.9-3.7-13.4-9.9-14.7-18c-0.9-3.8-1.9-7.6-1.9-11.5
		c0-14.3,0-28.6,0.1-43c0.2-5.3,1.7-10.4,3.1-15.5c2.7-6,7.7-10.8,13.6-13.7c5.1-1.4,10.2-2.9,15.5-3.2c25.7,0,51.3,0,77,0
		c1.5-0.2,3.5,0.4,4.3-1.3c21.4-27.7,46.1-52.9,73.6-74.6c4.4-3.7,9.2-6.8,14.1-9.9c30.3-19.3,63.1-34.5,97.2-45.6
		C345.5,102.1,351.4,100,357.6,99 M69.7,263.4c-0.1,17.2,0.1,34.4-0.1,51.6c91.3,0.1,182.6,0,273.9,0c8.6,0.2,17.9,2.2,24,8.6
		c7.5,7.6,9.5,18.7,9.5,29c0.2,10.6-1.5,22.3-9.1,30.4c-5,5.5-12.3,7.8-19.4,8.8c-3.4,0.3-6.8,0.4-10.3,0.4c0.2,8.5,0.4,17,0.2,25.5
		c-0.5,8.5,0.5,17-0.2,25.5c13.7,0.2,27.6-1,40.9-4.5c12.7-3.4,25.2-9.2,33.9-19.3c12.1-13.4,16-32.1,16.1-49.7
		c-0.1-14.6,0.5-29.3-0.6-43.9c-1.7-11.3-4.9-22.6-11.6-32c-8.7-12.8-22.6-20.9-37.3-25.1c-15-4.3-30.8-5.5-46.3-5.1
		C245.5,263.4,157.6,263.4,69.7,263.4 M455.7,315c88.6,0.1,177.2,0,265.8,0c10-0.3,20.8,0.3,29.2,6.3c8,5.4,12.1,14.9,13,24.3
		c0.8,9.9,0.5,20.3-4.1,29.2c-4.1,8.2-12.2,14-21.1,16c-1.7,0.2-3.4,0.5-5.1,0.8c-8.6,0.7-17.3,0.2-26,0.4c-84,0-167.9,0-251.8,0
		c0.2,17.2,0,34.4,0.1,51.6c92.2,0,184.5,0,276.7,0c6.8,0.3,13.8,2.4,19.3,6.5c6.5,4.8,10,12.7,11.4,20.5c1.1,6.8,1.1,13.9,0.3,20.8
		c-1.3,9.4-6.1,18.7-14.6,23.4c-10.4,6.3-22.8,4.9-34.4,5c-86.3,0-172.5,0-258.7,0c0,17.2,0,34.3,0,51.5c93.3,0,186.5,0,279.8,0
		c18.2-0.1,36.6-4.8,51.7-15.2c13.2-9,22.4-23.3,26-38.8c4-15.3,2.4-31.2,2.8-46.9c0.2-5.5-0.5-10.9-1.3-16.2
		c-2.9-13.8-10-26.7-19.9-36.7c12.8-13,21-30.7,21.2-49c-0.1-12.4,0.4-24.8-0.4-37.2c-1.7-13.7-5.8-27.6-14.4-38.6
		c-10.3-13.7-26.1-22.3-42.5-26.3c-16.7-4.2-34.1-2.9-51.2-3.1c-83.9,0-167.8,0-251.8,0C455.7,280.6,455.9,297.8,455.7,315
		 M129.6,394.6c-13.2,2.6-26.3,7.6-36.6,16.3c-10.8,8.6-18,21.1-21.1,34.5c-2.8,11.5-2.2,23.4-2.2,35.1c0,30.3,0,60.6,0,90.8
		c119.9,0,239.8,0,359.6,0c-0.1-17.2,0-34.3,0-51.5c-102.5,0.1-204.9,0-307.4,0c0.1-13.8,0-27.6,0.1-41.4
		c0.5-10.2,2.9-21.4,11.1-28.3c7.6-6.6,18.1-7.4,27.7-7.1c0-17,0-34,0-51C150.3,391.7,139.8,392.6,129.6,394.6 M158.4,618
		c0.6,5.7,0.4,11.5,0.1,17.3c3.6,0.6,7.3,0.4,11,0.4c13.7,0,27.4,0,41.2,0c0,28.6,0,57.3,0,85.9c5.8,0,11.6,0,17.4,0
		c0-28.6,0-57.3,0-85.9c17.3,0,34.5,0,51.7,0c0-6,0-11.9,0-17.8C239.3,618,198.8,617.8,158.4,618 M301.5,621.4
		c-7.4,3.4-12.2,11.2-12.9,19.2c-1.1,10-1.2,21.7,6.7,29.2c-3.7,4.5-6.8,9.9-6.9,15.9c-0.4,8.4-0.8,17.6,4,24.9
		c5.3,8.2,15.7,11.5,25,11.1c30.7,0,61.4,0,92.2,0c0-5.8,0-11.7,0-17.5c-31.7-0.1-63.5,0.2-95.2-0.2c-8.7-2.3-10.4-13.6-6.4-20.6
		c2.1-3.6,6.5-4.8,10.4-4.7c30.4,0,60.8,0,91.1,0c0-5.9,0-11.7,0-17.6c-30.4,0-60.8,0-91.2,0c-3.3,0.1-6.8-0.9-9.2-3.4
		c-3.6-4-4-10.2-2.4-15.1c1.3-4.5,6.1-7.2,10.5-6.9c30.7,0,61.4,0,92.1,0c0-6,0-11.9,0-17.8c-30.4,0-60.7,0-91.1,0
		C312.6,618,306.7,618.7,301.5,621.4 M544.7,617.9c0.1,34.6,0,69.2,0,103.7c5.9,0,11.9,0.1,17.8-0.2c0.1-23-0.2-45.9,0.1-68.9
		c10.4,17,21.5,33.6,32.2,50.5c3.9,6.2,8.1,12.4,14,17c2.3,2,6,2.2,8.4,0.3c10.2-7.5,16-19,22.9-29.3c8.3-12.8,16.5-25.8,24.8-38.7
		c0.1,23.1,0,46.1,0.1,69.2c5.9,0,11.9,0,17.8,0c0-34.6,0-69.1,0-103.7c-5.2,0-10.4,0-15.6,0c-17.8,27.4-35.7,54.8-53.6,82.2
		c-17.7-27.5-35.8-54.8-53.5-82.2C555.1,617.9,549.9,617.9,544.7,617.9 M465,624.1c-4.8,5.5-7.8,12.2-11.1,18.6
		c-13.6,26.3-27.3,52.6-40.9,78.9c6.8,0,13.7,0,20.5,0c14.4-27.3,28.8-54.7,43.1-82c4.3,7.3,8,15,12.1,22.5
		c9.7,18.7,19.6,37.3,29.3,56c0.7,1.1,1.2,2.5,2.2,3.4c6.9,0.2,13.7,0,20.6,0.1c-15.2-29-30.1-58.2-45.3-87.1
		c-3.6-6.4-7.9-13.3-15-16.2c-2.2,0-4.4,0-6.5,0C470.8,619.8,467.4,621.4,465,624.1z"/>
</g>
<g id="_x23_bf1010ff">
	<path class="st0" d="M413.5,0.4c81.5-3.5,164,16.4,234.7,57.3c62.1,35.8,115.2,87.3,152.6,148.4c34.1,55.4,55.2,118.6,61.2,183.4
		c5.5,57.3-0.7,115.8-18.2,170.6c-26.8,84.5-80.7,160-151.6,213.1c-43.4,32.8-93.2,57.2-145.7,71.5c-58.1,15.9-119.4,19.4-179,10.5
		c-66.2-9.8-130.1-35.4-184.8-74c-14.7-10.5-28.9-21.7-42.2-33.8c-13.7-13-27.1-26.2-39.2-40.8c-47.4-56-80.2-124.3-93.8-196.4
		c-14.2-75-8.2-153.8,17.8-225.7c17.5-48.5,43.9-93.7,77.3-132.9c11.2-13.3,23.6-25.6,36.3-37.6C192,65.3,257.5,29.9,327.6,12.7
		C355.7,5.7,384.6,1.7,413.5,0.4 M357.6,99c-6.1,1-12,3.1-18,4.9c-34.1,11.1-66.9,26.3-97.2,45.6c-4.9,3-9.7,6.2-14.1,9.9
		c-27.5,21.7-52.2,46.8-73.6,74.6c-0.8,1.6-2.8,1.1-4.3,1.3c-25.7-0.1-51.3,0-77,0c-5.3,0.3-10.4,1.8-15.5,3.2
		c-5.8,2.9-10.8,7.7-13.6,13.7c-1.3,5.1-2.9,10.2-3.1,15.5c-0.1,14.3,0,28.6-0.1,43c0,3.9,1,7.7,1.9,11.5c1.3,8.1,7.7,14.3,14.7,18
		c5.7,1.8,11.6,3.5,17.7,3.3c9-0.1,18,0,27,0c-3.9,10.5-4.8,21.7-6.5,32.6c-8.1,3.9-15.4,9.1-22.5,14.7
		c-7.7,6.1-13.2,14.4-18.7,22.4c-6.9,10.5-8.9,23-11.7,35c-2,9.1-1.4,18.4-1.9,27.6c0.1,28.7-0.1,57.3,0.1,86
		c-0.8,7.3,1,14.5,3,21.5c2.9,6,8,11,14.1,13.7c5.2,1.5,10.5,3,16,3c21.3,0,42.6,0,63.9,0c2.8,4.9,5.8,9.7,8.6,14.6
		c-1.3,5-0.9,10.1-1,15.2c-0.1,5.4,0.1,12,5,15.6c6.4,4.8,14.8,2.6,22.2,3.3c7.8,9,16.1,17.8,24.8,26c-0.1,14.8,0,29.5-0.1,44.3
		c-0.1,4.8,1.3,10.1,5.5,13c5.3,3.7,12,2.5,18.1,2.7c6,0.1,13.2-0.5,16.8-6c3.4-5.7,2.3-12.5,2.5-18.8
		c31.4,20.2,65.7,36.1,101.3,47.4c4.7,1.4,9.4,3,14.2,3.9c43,7.6,87,8.6,130.3,3.2c11.3-1.6,22.9-2.8,33.7-6.6
		c26.2-8.2,51.6-19,75.8-31.9c3.7,3.1,7.4,6.8,12.3,7.9c6.2,1.9,13-0.1,17.8-4.1c11.7-8.9,18.2-22.4,26.4-34.2
		c0.1,8.8-0.3,17.6,0.2,26.4c0.2,5.1,3.4,10.1,8.5,11.6c6.9,1.9,14.1,1.1,21.2,1c7.1-0.1,13.2-6.4,12.9-13.5c0.1-24.7,0-49.4,0-74.1
		c-0.5-4.7,3.9-7.4,6.3-10.8c9.5-10.9,16.6-23.5,23.9-35.9c10,0.2,20.1-0.2,30-2.2c14.1-3.1,28.7-6,41-13.9c9-6,18.2-12.3,24.9-21
		c4.8-6.4,9.8-12.9,12.9-20.3c3.7-8.3,5.3-17.4,7.4-26.2c3.6-15.3,2.1-31,2.4-46.5c0.3-10.8-2.8-21.2-5.2-31.6
		c-1.8-7.2-4.9-14.1-8.9-20.3c3.8-6.3,7.1-12.9,8.8-20c1.5-6,2.9-12,4.1-18c1.5-7.6,1.2-15.3,1.2-23c-0.1-11.8,0.6-23.9-2.2-35.5
		c-2.3-9.2-3.8-18.7-7.7-27.5c-3.3-7.8-8.5-14.6-13.6-21.4c-6.4-8.3-15.1-14.4-23.7-20.2c-8.3-5.2-17.6-9-27.2-11.1
		c-8.4-1.9-16.8-4.3-25.4-5c-11-1.4-22.1-0.4-33.1-0.8c-1.3,0.2-2-1-2.7-1.8c-21.1-27.4-45.5-52.1-72.6-73.6
		c-7.7-6.5-16.6-11.4-25.2-16.8c-31.5-18.5-65.3-33.4-100.5-43.2C460.1,90.5,408,90.4,357.6,99z"/>
</g>
<g id="_x23_ffffffff">
	<path class="st1" d="M69.7,263.4c87.9,0,175.9,0,263.8,0c15.6-0.3,31.3,0.8,46.3,5.1c14.6,4.2,28.6,12.4,37.3,25.1
		c6.7,9.4,9.9,20.7,11.6,32c1,14.6,0.5,29.3,0.6,43.9c-0.1,17.6-4,36.3-16.1,49.7c-8.7,10.1-21.2,15.9-33.9,19.3
		c-13.3,3.4-27.2,4.6-40.9,4.5c0.7-8.5-0.4-17,0.2-25.5c0.2-8.5,0-17-0.2-25.5c3.4,0,6.8,0,10.3-0.4c7.1-0.9,14.4-3.3,19.4-8.8
		c7.5-8.1,9.3-19.7,9.1-30.4c0-10.2-2-21.4-9.5-29c-6.2-6.4-15.4-8.4-24-8.6c-91.3,0-182.6,0-273.9,0
		C69.8,297.8,69.6,280.6,69.7,263.4z"/>
	<path class="st1" d="M455.7,315c0.2-17.2,0-34.4,0.1-51.6c83.9,0,167.9,0,251.8,0c17.1,0.2,34.4-1.1,51.2,3.1
		c16.4,4,32.3,12.6,42.5,26.3c8.6,11.1,12.7,24.9,14.4,38.6c0.8,12.4,0.3,24.8,0.4,37.2c-0.2,18.4-8.4,36-21.2,49
		c9.9,10.1,17,22.9,19.9,36.7c0.8,5.4,1.5,10.8,1.3,16.2c-0.3,15.6,1.3,31.6-2.8,46.9c-3.7,15.5-12.8,29.8-26,38.8
		c-15.1,10.4-33.5,15.1-51.7,15.2c-93.3,0-186.5,0-279.8,0c0-17.2,0-34.3,0-51.5c86.2,0,172.5,0,258.7,0c11.5-0.1,24,1.3,34.4-5
		c8.5-4.7,13.3-14,14.6-23.4c0.8-6.9,0.9-14-0.3-20.8c-1.4-7.8-4.9-15.7-11.4-20.5c-5.5-4.1-12.4-6.3-19.3-6.5
		c-92.3,0-184.5,0-276.7,0c-0.2-17.2,0.1-34.4-0.1-51.6c83.9-0.1,167.9,0,251.8,0c8.7-0.2,17.3,0.4,26-0.4c1.7-0.3,3.4-0.6,5.1-0.8
		c8.9-2,17-7.8,21.1-16c4.6-9,4.9-19.4,4.1-29.2c-0.9-9.4-5-18.9-13-24.3c-8.5-6-19.2-6.6-29.2-6.3C632.9,315,544.3,315,455.7,315z"
		/>
	<path class="st1" d="M129.6,394.6c10.2-2,20.7-2.9,31.1-2.6c-0.1,17,0,34,0,51c-9.6-0.2-20.1,0.6-27.7,7.1
		c-8.2,6.9-10.6,18.1-11.1,28.3c-0.1,13.8,0,27.6-0.1,41.4c102.5,0,204.9,0,307.4,0c0,17.2,0,34.3,0,51.5c-119.9,0-239.8,0-359.6,0
		c0-30.3,0-60.6,0-90.8c0.1-11.7-0.6-23.6,2.2-35.1c3-13.4,10.3-25.9,21.1-34.5C103.3,402.2,116.4,397.3,129.6,394.6z"/>
	<path class="st1" d="M158.4,618c40.5-0.3,81,0,121.4-0.1c0,5.9,0,11.9,0,17.8c-17.2,0-34.5,0-51.7,0c0,28.6,0,57.3,0,85.9
		c-5.8,0-11.6,0-17.4,0c0-28.6,0-57.3,0-85.9c-13.7,0-27.4,0-41.2,0c-3.7,0-7.4,0.2-11-0.4C158.8,629.6,158.9,623.8,158.4,618z"/>
	<path class="st1" d="M301.5,621.4c5.2-2.7,11.1-3.5,16.9-3.5c30.4,0,60.7,0,91.1,0c0,5.9,0,11.9,0,17.8c-30.7,0-61.4,0-92.1,0
		c-4.5-0.3-9.3,2.5-10.5,6.9c-1.6,5-1.2,11.1,2.4,15.1c2.3,2.4,5.8,3.5,9.2,3.4c30.4,0,60.8,0,91.2,0c0,5.8,0,11.7,0,17.6
		c-30.4,0-60.8,0-91.1,0c-3.9-0.1-8.3,1.1-10.4,4.7c-4,6.9-2.4,18.2,6.4,20.6c31.7,0.4,63.5,0.1,95.2,0.2c0,5.8,0,11.6,0,17.5
		c-30.7,0-61.4,0-92.2,0c-9.3,0.4-19.8-2.9-25-11.1c-4.8-7.3-4.4-16.5-4-24.9c0.2-6,3.2-11.4,6.9-15.9c-7.8-7.5-7.8-19.2-6.7-29.2
		C289.3,632.6,294.1,624.8,301.5,621.4z"/>
	<path class="st1" d="M544.7,617.9c5.2,0,10.3,0,15.5,0c17.7,27.5,35.8,54.7,53.5,82.2c17.9-27.4,35.8-54.8,53.6-82.2
		c5.2,0,10.4,0,15.6,0c0,34.6,0,69.1,0,103.7c-5.9,0-11.9,0-17.8,0c-0.1-23.1,0.1-46.1-0.1-69.2c-8.3,12.8-16.5,25.8-24.8,38.7
		c-6.8,10.3-12.6,21.8-22.9,29.3c-2.4,1.9-6.1,1.6-8.4-0.3c-5.9-4.5-10.1-10.8-14-17c-10.7-16.9-21.8-33.5-32.2-50.5
		c-0.3,23-0.1,45.9-0.1,68.9c-6,0.3-11.9,0.1-17.8,0.2C544.7,687.1,544.8,652.5,544.7,617.9z"/>
	<path class="st1" d="M465,624.1c2.4-2.8,5.8-4.3,9.1-5.8c2.2,0,4.3,0,6.5,0c7.1,3,11.3,9.8,15,16.2c15.2,29,30,58.2,45.3,87.1
		c-6.9-0.1-13.7,0.1-20.6-0.1c-1.1-0.9-1.6-2.2-2.2-3.4c-9.7-18.7-19.6-37.3-29.3-56c-4-7.5-7.7-15.2-12.1-22.5
		c-14.4,27.3-28.7,54.7-43.1,82c-6.8,0-13.7,0-20.5,0c13.6-26.3,27.2-52.6,40.9-78.9C457.3,636.3,460.2,629.6,465,624.1z"/>
</g>
</svg>
