<?xml version="1.0" encoding="utf-8"?>
<!-- Generator: Adobe Illustrator 21.0.0, SVG Export Plug-In . SVG Version: 6.00 Build 0)  -->
<svg version="1.1" id="Слой_1" xmlns="http://www.w3.org/2000/svg" xmlns:xlink="http://www.w3.org/1999/xlink" x="0px" y="0px"
	 viewBox="0 0 113 138" style="enable-background:new 0 0 113 138;" xml:space="preserve">
<style type="text/css">
	.st0{fill:#FFFFFF;}
	.st1{fill:#BF4D47;}
	.st2{fill:#1D2020;}
</style>
<g>
	<path class="st0" d="M109.3,104.9l-6.9-3.8l-4.5-16c2.4-0.3,4.4-1.5,5.4-3.4c0.9-1.6,1.4-4.3-0.5-8.3c-1.1-10.4-6.7-15.3-10.5-17.6
		c-0.9-3-2.4-5.5-4.5-7.3l-4.2-8.8L83,38.3l-1.6,0.1l-4.6,0.4l-2.6-2.1l-1-0.8l-1.2,0.4l-1,0.3c-0.3-1.6-0.6-3.3-0.8-4.2l0.6-1.3
		l0.3-0.7L71,29.8l-1.4-8.6l-0.1-0.8l-0.6-0.5l-1.4-1.3c-0.5-1.3-1.8-4.2-4.7-6.2l1.7-7.7l0.3-1.5l-1.3-0.9C63.2,2,60.2,0,56.5,0
		c-3.7,0-6.7,2-7,2.2l-1.3,0.9l0.3,1.5l1.7,7.7c-2.9,2-4.3,4.9-4.7,6.2l-1.4,1.3l-0.6,0.5l-0.1,0.8L42,29.8l-0.1,0.7l0.3,0.7
		l0.6,1.3c-0.2,0.9-0.5,2.6-0.8,4.2l-1-0.3L39.9,36l-1,0.8l-2.6,2.1l-4.6-0.4L30,38.3l-0.7,1.5l-4.1,8.8c-2.1,1.9-3.6,4.4-4.5,7.4
		c-4.4,2.5-9.4,7.6-10.5,17.6c-2,4-1.4,6.7-0.5,8.3c1,1.9,3,3.1,5.4,3.4l-4.5,16l-6.9,3.8L0,107l3.7,2l51.7,28.4l1.1,0.6l1.1-0.6
		l51.7-28.4l3.7-2L109.3,104.9z"/>
	<path class="st1" d="M82.4,72.3c0,0,0.7-3.6-0.3-5.2L66,62.8l0.8,4.7C66.9,67.5,82.5,74.5,82.4,72.3z"/>
	<path class="st1" d="M82.8,67.8c12.7,3.4,16.1,10.5,16.1,10.5l-1.1,3l-11-0.6l-7.5-3.4C79.3,77.3,83,74.8,82.8,67.8z"/>
	<path class="st1" d="M76.1,48.1c3.7,1.4,5.9,3.5,7.7,8.8c0,0-0.2-0.4-1.7-0.4c4.3,2,6.2,5.7,7.1,7.8c-3.4-0.8-9.2-0.4-9.2-0.4
		l-11.7-5.7l4.4-7.5L76.1,48.1z"/>
	<path class="st2" d="M100.4,102.7L94.8,83c0.9,0,1.8-0.1,2.7-0.2c3.5-0.4,5.7-3.4,2.9-8.7c-0.9-9.3-5.5-14.3-10.2-16.7
		c-0.8-3.2-2.4-5.8-4.4-7.5l-4.4-9.2L76,41.3l-3.4-2.7l-3.5,1.1c-0.5-2.6-1.4-7.5-1.4-7.5l1-2l-1.4-8.6l-1.8-1.7
		c0,0-1.2-4.5-5.4-6.3l2-9.4c0,0-2.6-1.8-5.7-1.8c-3.1,0-5.7,1.8-5.7,1.8l2,9.4c-4.1,1.8-5.4,6.3-5.4,6.3l-1.8,1.7l-1.4,8.6l1,2
		c0,0-1,4.9-1.4,7.5l-3.5-1.1L37,41.3l-5.6-0.5L27.1,50c-2,1.7-3.6,4.2-4.4,7.5c-4.7,2.4-9.3,7.3-10.2,16.7
		c-2.8,5.3-0.6,8.3,2.9,8.7c0.9,0.1,1.8,0.1,2.7,0.2l-5.5,19.7L4.8,107l51.7,28.4l51.7-28.4L100.4,102.7z M47,60.8
		c-0.6,1.3-0.9,2.9-1,4.4c-2.7,1-7.7,2.8-11,4c-2.2,0.8-3.2,0.7-2.9-1.4c0.1-0.7,0.3-1.4,0.6-2c0.8-1.6,1.5-2.4,3.4-2.7
		C37.7,62.8,43.8,61.5,47,60.8z M78,69.2c-3.1-1.1-7.8-2.8-10.6-3.8c0-1.5-0.4-3.1-0.9-4.4c3.3,0.7,8.8,1.8,10.3,2.1
		c1.9,0.4,2.7,1.1,3.4,2.7c0.3,0.6,0.5,1.3,0.6,2C81.2,69.8,80.2,69.9,78,69.2z M96.8,72.9c3.7,6.9-0.8,4.8-1.6,4.5
		c-4.4-1.6-7.4-2.1-10-1.3c0,0,3.1,0.5,5.3,2.7c0.9,0.9-1.5,1-2.9,0.7c-1.8-0.3-3.8-0.8-5.4-1.7c2-3,2.9-9.3,0.9-13.2
		c5.4-0.9,9.4,1.7,9.4,1.7c-3.3-3.9-7.2-4.5-11.8-4.5c0,0-0.8-0.6-2.3-0.9c-0.7-0.1-1.7-0.3-3-0.6c1.5-2.6,3.3-3.9,3.3-3.9
		s-3.1,0.4-4.6-1.2c-1.6-1.6-0.7-6,2-6.6c3.5-0.8,9.1,3.2,10.1,7.7c0,0-3.1-0.4-4.3-0.1C87.5,58.4,96,62.6,96.8,72.9z M16.1,72.9
		c0.9-10.4,9.4-14.6,14.7-16.4c-1.2-0.3-4.3,0.1-4.3,0.1c1.3-6,7.5-7.7,12.5-6.2l-0.2-1.5c4.7,1.8,11.6,3.9,9.9,8.1h0
		c-0.3,0.5-0.5,1.1-0.8,1.6c-1.3,0.2-3.2,0.6-5.1,0.9c-3.3,0.5-6.3-2.4-6.3-2.4c0.4,1.2,0.6,2.5,0.6,3.5c-1.2,0.2-2.1,0.4-2.8,0.5
		c-1.5,0.3-2.3,0.9-2.3,0.9c-4.6-0.1-8.4,0.6-11.8,4.5c0,0,4-2.7,9.4-1.7c-2,3.9-1.2,10.2,0.9,13.2c-1.6,0.9-3.6,1.4-5.4,1.7
		c-1.4,0.2-3.9,0.2-2.9-0.7c2.2-2.2,5.3-2.7,5.3-2.7c-2.6-0.8-5.6-0.2-10,1.3C16.9,77.8,12.4,79.9,16.1,72.9z"/>
	<path class="st1" d="M56.5,5c-1.5,0-2.6,0.6-2.6,0.6l1.6,7.2l1.1-3.6l1.1,3.6l1.6-7.2C59.1,5.6,58,5,56.5,5z"/>
	<path class="st0" d="M50.9,18c2.3-1.3,5.5-1.5,5.5-1.5s-0.4-0.4-1-1.3C55.3,15.2,52.3,15.5,50.9,18z"/>
	<path class="st1" d="M62.9,30.8l2.7-1.6c-0.2-3.3-0.7-5.9-0.7-5.9s-2.3-1.3-3.5-1.9c0,0,0.6-0.6,1-1c0,0-2.4-1.5-6-1.5
		c-3.6,0-6,1.5-6,1.5c0.5,0.5,1,1,1,1c-1.2,0.6-3.5,1.9-3.5,1.9s-0.5,2.7-0.7,5.9l2.7,1.6l-1.6,0.4c-0.5,4.5-0.9,8.5-0.9,8.5
		s1.6-3.6,7.1-6.1l-1.3-5.8c-1.7-1-3.2-1.7-3.2-1.7v-1.3c0,0,2-1.4,5-1.4l-0.5,3.8l1.9,1.1l1.9-1.1l-0.5-3.8c3,0,5,1.4,5,1.4V26
		c0,0-1.5,0.8-3.2,1.7l-1.3,5.8c5.4,2.5,7.1,6.1,7.1,6.1s-0.4-4.1-0.9-8.5L62.9,30.8z"/>
	<path class="st0" d="M56.5,27v-5.8l-1.6-1.3c4-0.8,7.5,0.4,7.5,0.4s-2.4-1.5-6-1.5c-3.6,0-6,1.5-6,1.5c0.5,0.5,1,1,1,1
		c-1.2,0.6-3.5,1.9-3.5,1.9s-0.5,2.7-0.7,5.9l2.7,1.6l-1.6,0.4c-0.5,4.5-0.9,8.5-0.9,8.5s0.9-4.4,5.4-6.7L52,28.5c0,0-1.2-0.7-3-1.6
		l0-2.9c0,0,2.8-1.9,6.8-1.9c-0.8,1.1-0.8,1.1-0.8,1.1l-0.5,3.8l1.9,1.1l1.9-1.1L56.5,27z M59.8,32.9l1-4.5c1.1-0.7,3.1-1.8,3.1-1.8
		l-0.2-2.2l-0.8,0.5V26c0,0-1.5,0.8-3.2,1.7l-1.3,5.8c5.4,2.5,7.1,6.1,7.1,6.1S64.9,35.8,59.8,32.9z"/>
	<path class="st0" d="M51,43.7c1.6,1.4,4.4,2.4,5.5,1.5c0.9-0.7,0.8-6.3-0.8-6.5C54,38.5,48.8,41.8,51,43.7z"/>
	<polygon class="st0" points="56.5,69.2 53.7,70.7 56.5,72.3 59.3,70.7 	"/>
	<path class="st1" d="M55.7,67.9l-5.1,2.8l5.9,3.2v1.5l-8.6-4.7c0,0,2.9-1.6,3.8-2.1C54.5,67.1,55.7,67.9,55.7,67.9z"/>
	<path class="st1" d="M58.4,52.5l0.8-1.1l1.8,0.2c0,0-1.2-3.3-4.5-3.3c-3.3,0-4.5,3.3-4.5,3.3l0.9,1.1C54,52.2,55.6,52.2,58.4,52.5z
		"/>
	<path class="st0" d="M54.5,52.3l-0.7-0.9c0.4-0.7,1.3-1.6,2.7-1.6v-1.5c-3.3,0-4.5,3.3-4.5,3.3l0.9,1.1
		C53.3,52.5,53.8,52.4,54.5,52.3z"/>
	<g>
		<path class="st1" d="M59.1,65.6c1.6,1.5,2.8,2,3.7,2.1c1.5,0.1,2.1-0.7,2.7-0.5c0.6,0.2-0.5,2-2.1,2.2c-1.3,0.2-2.7-0.6-4.3-2.6
			c0,0-1.3-0.7-3.2-0.8C56,66,57.5,65.3,59.1,65.6z"/>
		<path class="st1" d="M61.5,56.3c-1.3-0.2-4.5-0.2-4.6-0.1c1.2,0.5,4,0.8,5.1,1.2c0,0,0.5,0.4,1.1,1.1c0.3,0.4,0.2,1.3,0.2,1.3
			l-2.3-1.3c-0.9-0.1-4.8-0.3-4.8-0.2l4.7,1.1c0,0,2.9,2.1,4.1,2.9c0,0-0.4,0.8-1.6,0.6L61,61.2l-5.5-0.4c0,0,2.9,0.9,4.7,1.4
			c1.6,1.2,3.8,3.1,3.8,3.1c-0.5,0.8-2.2,0.3-4.5-1.6c-1.9,0.1-4.1-0.3-4.1-0.3c-1.6,2.3-4.8,3.1-6.7,2.6c0,0-0.9-2.9,3-8.9
			c1.6-2.4,2.9-2.6,3.5-2.5c1.5,0.1,3.5,0.2,5,0.4C60.9,55,61.3,55.7,61.5,56.3z"/>
		<path class="st0" d="M59.4,55.6c-1.2,0-2,0.1-2.5,0.6c1.2,0.5,4,0.8,5.1,1.2c0,0-0.1,0.4-1,0.4c-1-0.1-2.6-0.2-3.3-0.2
			c-0.5,0-1.1,0.3-1.4,0.8l4.7,1.1c0,0-0.2,0.7-1.3,0.6c-0.8,0-1.4-0.1-2.2-0.1c-1.5-0.1-2.1,0.8-2.1,0.8s2.9,0.9,4.7,1.4
			c0,0-0.1,0.6-1.8,0.4c-1.3-0.1-3.9-0.5-3.9-0.5C52,66,48.8,66,48.8,66s-0.9-2.9,3-8.9c1.6-2.4,2.9-2.6,3.5-2.5
			c1.5,0.1,3.5,0.2,5,0.4c0.2,0,0.4,0.1,0.5,0.2C61.1,55.4,60.4,55.6,59.4,55.6z"/>
	</g>
	<g>
		<path class="st1" d="M50.1,47.5c0,0-3.3-2.7-5.4-5.3L41,41C41,41,44,44.5,50.1,47.5z"/>
		<path class="st1" d="M49.7,49.5c0,0-6.1-2.5-10.7-6L33.2,43l-2.3,4.9c0,0,1.3-0.6,3.1-1c0,0-0.1-2.3-0.1-2.7
			C33.9,44.1,43.2,48.4,49.7,49.5z"/>
		<path class="st1" d="M62.8,47.5c0,0,3.3-2.7,5.4-5.3L72,41C72,41,69,44.5,62.8,47.5z"/>
		<path class="st1" d="M63.2,49.5c0,0,6.1-2.5,10.7-6l5.8-0.5l2.3,4.9c0,0-1.3-0.6-3.1-1c0,0,0.1-2.3,0.1-2.7
			C79.1,44.1,69.7,48.4,63.2,49.5z"/>
	</g>
	<g>
		<path class="st1" d="M56.5,84l-41.8,23l41.8,23l41.8-23L56.5,84L56.5,84z"/>
		<polygon class="st0" points="92.7,107 56.5,87.1 20.3,107 56.5,126.9 		"/>
		<path class="st1" d="M77.1,101.4l-21.5,11.8c-1.6-1.3-2.7-3.7-2.7-6.5c0-1.4,0.3-2.7,0.7-3.8l5.9-3.2c1.1,1.1,1,3.2,1,3.2h4.1v-6
			l2.2-1.2l-10.2-5.6L25.8,107l10.2,5.6l9.1-5c0.2,3.6,2,6.8,4.6,8.9l-3.3,1.8l10.1,5.6L87.2,107L77.1,101.4z M56.8,117.6
			c-5.8,0-10.4-4.8-10.4-10.7c0-5.9,4.7-10.7,10.4-10.7c3.3,0,4.8,1.6,4.8,1.6v-1.6h1.6v5.4h-1.6c-0.5-3.6-3.1-4-4.6-3.7
			c-3.2,0.7-5.6,4.4-5.6,8.9c0,5,3,8.9,6.7,8.9c1.9,0,3.7-0.9,5.1-2.4l0.9,1.3C62.3,116.4,59.7,117.6,56.8,117.6z"/>
	</g>
	<g>
		<polygon class="st0" points="51,81.6 55.2,79.3 55.2,76.7 51,74.5 		"/>
		<polygon class="st1" points="57.8,76.7 57.8,79.3 62,81.6 62,74.4 		"/>
	</g>
	<path class="st1" d="M90.2,83.3l-1.4,8c-4.7-11.6-3.4-3.2-2.5,3.7l7.9,4.4L90.2,83.3z M24.1,91.3l-1.4-8l-4.1,16.1l7.9-4.4
		C27.5,88.1,28.8,79.7,24.1,91.3z"/>
	<path class="st1" d="M34,74.8c-1,0.4,0,2.4,1.2,1.9c1.1-0.4,7.6-3.3,10.9-4.9l-1.9-1C41,72,35.2,74.3,34,74.8z M79.1,74.8
		c-1.2-0.5-7.1-2.8-10.3-4.1l-1.9,1c3.3,1.5,9.9,4.5,11,4.9C79.1,77.1,80.1,75.2,79.1,74.8z"/>
</g>
</svg>
