<?xml version="1.0" encoding="utf-8"?>
<!-- Generator: Adobe Illustrator 21.1.0, SVG Export Plug-In . SVG Version: 6.00 Build 0)  -->
<svg version="1.1" id="Layer_1" xmlns="http://www.w3.org/2000/svg" xmlns:xlink="http://www.w3.org/1999/xlink" x="0px" y="0px"
	 viewBox="0 0 89.7 141.7" style="enable-background:new 0 0 89.7 141.7;" xml:space="preserve">
<style type="text/css">
	.st0{fill:#1D1D1B;}
</style>
<path class="st0" d="M40.8,28.4h42c2.6,0,4.7-2.1,4.7-4.7V4.7c0-2.6-2.1-4.7-4.7-4.7h-52h0C15,0,2.2,12.8,2.2,28.6v27.8
	c0,15.8,12.8,28.6,28.6,28.6h0h28v56.8h0c15.9,0,28.8-12.9,28.8-28.8V84.9V65.6v-4.4c0-2.6-2.1-4.7-4.7-4.7h-42
	c-8.1,0-10-3.5-10-12.4v-3.3C30.8,31.8,32.7,28.4,40.8,28.4z"/>
</svg>
