<?xml version="1.0" encoding="utf-8"?>
<!-- Generator: Adobe Illustrator 21.0.0, SVG Export Plug-In . SVG Version: 6.00 Build 0)  -->
<svg version="1.1" id="Layer_1" xmlns="http://www.w3.org/2000/svg" xmlns:xlink="http://www.w3.org/1999/xlink" x="0px" y="0px"
	 viewBox="0 0 309.9 356.9" style="enable-background:new 0 0 309.9 356.9;" xml:space="preserve">
<style type="text/css">
	.st0{fill:url(#SVGID_1_);stroke:#989797;stroke-width:9.375000e-02;}
</style>
<linearGradient id="SVGID_1_" gradientUnits="userSpaceOnUse" x1="154.9645" y1="4.089563e-02" x2="154.9645" y2="356.8609">
	<stop  offset="0" style="stop-color:#F1F1F1"/>
	<stop  offset="1" style="stop-color:#6F6C6C"/>
</linearGradient>
<path class="st0" d="M155,0C207,29.1,258.5,59.2,309.9,89.3c-1.7,59.4-0.1,119-0.8,178.4c-50.9,30.3-102.8,59.1-153.9,89.2
	c-44.8-26.3-89.9-52.2-135-78c-6-4.5-15.1-6.7-19.2-12.8c-1.8-58.9-0.4-118-0.7-177C51.8,59.3,103.2,29.3,155,0 M153.5,23.2
	c-44.4,25.7-88.6,51.6-133.2,76.8c-0.1,52.2-0.3,104.3,0.1,156.5c45.2,25.3,89.4,52.3,134.8,77.3c45.2-25.2,89.4-52.2,134.8-77.2
	c0.4-52.1,0.2-104.3,0.1-156.5c-41.7-24-83.2-48.3-124.9-72.1C161.3,26.7,157.9,21.9,153.5,23.2z M155.4,39.3
	c35.7,19.7,70.7,41.1,106.4,61.1c1.4,1.3,4.8,1.8,4.1,4.2c-22.5,12.9-45.1,26-67.5,39C169.6,128,142,110.3,113.1,95
	c-4.4,2.4-12,4.7-13.9,9.7c25,14.4,49.9,28.9,74.9,43.3c1.8,2.2,7.2,2.2,7.1,5.8c-8.9,4.1-17.1,10.2-25.9,14.1
	c-37-21.5-74.7-42.3-111-64.6C67.4,90.5,89.9,76.4,113.2,64c28.3,15.5,55.7,32.5,84.1,47.9c5.1-1.1,13.1-4,14.8-8.8
	c-27.2-16.8-55.3-32.2-82.8-48.4C137.5,49,146.9,44.8,155.4,39.3z M34.2,119.9c37.4,22.1,75.3,43.4,112.7,65.4
	c-1.6,26.2-0.2,52.5-0.8,78.8c-28.8-14.5-55.6-33.8-84.8-47.3c0,5.6-0.4,11.3,0.1,17c28.1,16.6,56.8,32.4,84.7,49.4
	c0.3,10,0.2,19.9,0,29.9C108.5,292.6,72,270,34.4,249.6C33.9,206.4,34.3,163.1,34.2,119.9 M62.3,167c-3.1,5.2-0.2,12-1,17.7
	c19,10.6,37.5,22.4,56.7,32.3c0.2-5.6,0.6-11.3,1-16.9C100.6,188.3,81,178.3,62.3,167z M275.5,121.3c0.4-0.2,1.2-0.4,1.6-0.6
	c0.8,43-2.5,85.9-0.1,128.9c-23.5,12.7-46.4,26.4-69.7,39.5c-0.3-32.4,0.1-64.9-0.2-97.3c-5.4,1.8-10.1,5.2-14.8,8.4
	c-0.6,32.8,0.3,65.7-0.4,98.4c-9.1,4.3-17.2,10.7-26.6,14.3c-2.7-42.4-0.5-85.3-1.1-127.8c23.6-13.4,46.8-27.6,70.8-40.4
	c0.3,32.4-0.1,64.9,0.2,97.3c4.8-2,9.1-5.1,13.7-7.6c0.8-32.8-0.2-65.6,0.4-98.3C258,131.1,266.4,125.6,275.5,121.3z"/>
</svg>
