<?xml version="1.0" encoding="utf-8"?>
<!-- Generator: Adobe Illustrator 21.0.0, SVG Export Plug-In . SVG Version: 6.00 Build 0)  -->
<svg version="1.1" id="Layer_1" xmlns="http://www.w3.org/2000/svg" xmlns:xlink="http://www.w3.org/1999/xlink" x="0px" y="0px"
	 viewBox="0 0 674.6 402.1" style="enable-background:new 0 0 674.6 402.1;" xml:space="preserve">
<style type="text/css">
	.st0{stroke:#F8F9FA;stroke-width:9.375000e-02;}
</style>
<path class="st0" d="M240.9,0.1c8.5,13.6,0,0,25.2,43.1c-8.1,10.6,0,0-24.3,34.7c-0.4,0,0,0-29.8-34.8C221.7,29,240.9,0.1,240.9,0.1
	z"/>
<path class="st0" d="M0.1,88.1c12.6,0,25.2-0.3,37.8,0.1c23,59.7,45.5,119.9,68.3,179.8c7.6,20.7,15.9,41.2,23.2,62
	c0.4,0,1.1,0,1.5,0C161.3,250,225,86.9,228,88.1c11,0.1,22-0.2,33,0.1c0.1,8.7-0.1,17.3,0.1,26c0.4-0.1,1.3-0.3,1.7-0.3
	C289,88.1,331.2,83,364.1,98.1c19.2,8.6,35.9,23.2,45.9,41.8c-11.6,5.1-22.3,11.6-33.7,17.1c-7.8-11.8-18.5-22.2-32.1-27
	c-12.6-4.8-26.6-4.8-39.2,0c-14,5.5-24.8,17.9-28.5,32.5c-4,15.1,6.4,29.6,17.7,38.4c24.1,19.6,55.6,25,82.8,39.2
	c0.7-34.9,13.2-69.6,35.2-96.8c20-25.2,48.5-43.6,79.8-51.3c39.1-9.9,81.9-1.6,115,21.1c36.5,24.9,61,66.2,66.1,110
	c4.9,36.2-2.7,74-21.8,105.3c-18.5,31.2-48.6,55.2-83.1,66.1c-26,10.1-49.3,8.5-73.5,3c-19.3-4.3-37.5-13.1-53.6-24.5
	c-8.8-7.4-18.7-14.1-25.2-23.8c-2.9,1.6-4,6.5-6.4,9.2c-11.8,17-28.3,31.5-44.7,43.9c-1.7,1.3-18.8-20.7-24.8-30.1
	c15.1-11.6,32.3-22.6,40.7-40.4c3.8-9.8,2.1-20.5,2.3-30.7c-2-17.5-19.2-25.9-33.2-32.7c-17.1-7.4-35.3-12.3-51.7-21.3
	c-13.6-6.4-25.6-15.5-37-25.1c-0.2,23.1,0.2,46.1-0.2,69.2c-7.2-10.6-11.5-23-18-34l-0.7,0c-5.5,12.1-12.6,23.5-19,35.1
	c-0.5-32.5,0.1-65-0.3-97.4c-1,0.8-1.4,2.1-1.9,3.2c-21.1,56.7-42.8,113.3-64,170c-4.3,11-9,23.4-14,34.1c-9.6-0.1-17.4,0.4-27-0.1
	c-25.1-66.5-50.8-134.4-76.3-200.8c-0.8-2.4-3.4-8.5-1.7,1.7c-0.1,65.6,0.3,133.4,0,199c-38,0,0,0-38,0C0,297.8,0,192.4,0.1,88.1
	 M513.4,128.6c-30.5,3.7-58.3,22.2-75.1,47.7c-22.2,33.1-26.6,77.1-11.5,114c12.7,33.9,43,61,78.6,68.3c25.4,5.4,52.8,0.4,74.7-13.4
	c27.2-16.8,45.7-46,51.8-77.2c7.2-37.4-3.4-78.2-29.6-106.2C580,137.7,546.3,124,513.4,128.6z"/>
<path class="st0" d="M527.2,172.2c1.4-0.4,1.6,1.7,2.2,2.6c10.1,23,21.5,45.3,31.5,68.4c-11,18.9-22.1,37.8-33.1,56.8l-0.7,0.2
	c-11.7-18.7-23.5-37.4-35-56.2c0-0.5,0-1.3,0-1.8C503.8,218.8,514.9,195.2,527.2,172.2z"/>
<path class="st0" d="M242.4,271.4l0.6-0.5c8.4,16.9,16.3,34,24.1,51.1c3.1,4.3-2,7.8-3.6,11.4c-5.8,10.7-12.3,21.1-18.3,31.7
	c-0.8,1.2-0.9,3.5-2.9,2.9c-8.8-13.6-17.1-27.6-25.8-41.2c-0.7-1.2-0.4-2.8,0.3-4C225.3,305.6,233.8,288.5,242.4,271.4z"/>
<path class="st0" d="M223.2,350.8c7.2,9.4,12.7,20.9,19.8,30.1c6.6-9.6,11.7-20.2,17.9-30.1c0.3,16.7,0.2,34.8,0.2,51.5
	c-12.6,0-25.4,0.2-38.1,0C223,385.6,222.9,367.5,223.2,350.8z"/>
</svg>
