<?xml version="1.0" encoding="utf-8"?>
<!-- Generator: Adobe Illustrator 21.0.0, SVG Export Plug-In . SVG Version: 6.00 Build 0)  -->
<svg version="1.1" id="Layer_1" xmlns="http://www.w3.org/2000/svg" xmlns:xlink="http://www.w3.org/1999/xlink" x="0px" y="0px"
	 viewBox="0 0 647.5 917.9" style="enable-background:new 0 0 647.5 917.9;" xml:space="preserve">
<style type="text/css">
	.st0{fill:#FEFEFE;stroke:#FEFEFE;stroke-width:9.375000e-02;}
	.st1{stroke:#000000;stroke-width:9.375000e-02;}
</style>
<path class="st0" d="M298.8,11.1c3.1-5.4,8.1-11.2,14.9-11c7.5-0.5,14.3,6.4,14,13.9c-0.2,2.7-1.5,5.2-1.8,7.9
	c0.6,4.4,2.6,8.5,4.2,12.6c2.2,5.7,3.6,11.7,4.9,17.7c5.1-3.7,9.7-9.4,16.6-8.9c8.8-0.1,15.8,10,12.4,18.2
	c-2.2,5.2-7.3,8.6-8.5,14.3c-2.9,11.7,3,23.4,10.3,32.1c12.9,14.9,32.9,21.3,46.1,35.8c6.9,7.5,11.4,17.2,12.3,27.4
	c1.4,16.6-3.3,33.8-13.4,47.1c-12.5,16.9-30.8,28.6-50.1,36.3c1.1,4.2,2.5,8.3,3,12.6c1.7,12-1.2,24.1-6.3,35c1.4,2,2.8,4,4.3,5.9
	c11.9-1.7,24.5,0.5,34.5,7.4c10.4,7.1,17.2,18.4,20.4,30.4c2.5,9.6,2,20.3-3.3,28.9c-6.2,10.4-17.7,16.9-29.5,18.3
	c-5.6,0.7-10.1,4.4-14.5,7.6c-4.9,3.8-9.8,7.6-14.1,12c8.1,8.2,11.9,20,11.2,31.4c0.2,6.3-2.4,12.1-5,17.8c4.5,7.6,7,16.4,6.5,25.2
	c-0.2,5.4-1.8,10.6-3.6,15.8c2.7,4.2,4.7,8.8,5.9,13.7c24,1.3,47.9,3.2,71.7,6.4c23.6,3.3,47.2,7.6,69.9,15.3
	c11.6,4.1,23.1,9.1,32.7,17c3.6,2.9,6.3,6.8,9.2,10.4c9.7-19.4,15-40.7,16.5-62.3c1.2-15.5-0.8-31.6-8.5-45.3
	c-9.1-16.8-23.7-29.6-35.8-44.2c-10.8-13.3-19.8-29.4-19.8-46.9c-0.3-13.7,5.9-26.7,14.5-37.1c8.9-11.2,20.7-19.4,32-28
	c17.8-13,36.1-25.7,56.2-34.9c3.5-1.6,7.6-2.9,11.4-1.6c7.7,2.1,12.4,11.6,8.6,18.9c-7.9,15.8-19.6,30-23.2,47.7
	c-2.2,9,3.4,17,7.5,24.5c11.6,19.1,18.6,40.6,23.8,62.2c5.9,24.3,8.7,49.4,7.2,74.4c-1.7,35.4-10.9,70.2-25.2,102.6
	c7.5,7.5,12.8,17.6,13.2,28.4c0.3,6.7-1.7,13.1-4.2,19.2c6.9,3.1,13.6,7.7,16.8,14.8c4.7,9.7,2.5,21-1.5,30.6
	c-4.7,11.6-12.5,21.4-19.1,31.9c-9.3,14.5-17.8,29.6-24.7,45.4c-3.9,9.4-7.5,19-8.8,29.1c-0.6,5.3-0.4,11.5,3.8,15.4
	c1.5,1.6,3.6,0.3,5.2-0.4c4.7-2.8,8.4-7,12-11c3.7-4.2,6.3-10.2,12.3-11.6c8.1-2.6,17.2,4.1,17.4,12.6c-0.2,9-3.8,17.6-8.7,25
	c-7.5,11-17.8,19.9-29.2,26.7c-11.8,7-25.9,10.4-39.5,8.6c-17.8-1.9-34.6-12.4-43.3-28.1c-6.9-12-8.5-26.5-6.3-40
	c2.7-16,9-31.1,16.2-45.5c3.5-7.4,8.1-14.3,11.6-21.7c-7.7,6.6-16.6,11.7-26.1,15.1c-18.7,6.8-38.3,10.7-57.9,14
	c-24.7,4-49.6,6.3-74.6,7.7c1.3,1.5,2.9,2.8,4.5,3.9c10.4,8,18.8,19.2,21.3,32.3c3,13.4-0.6,27.4-7.3,39.2
	c-5.8,10.1-13.6,19-22.2,26.8c-3.6,3.3-7.9,5.7-11.3,9.1c13.8-1.7,27.1-7,38.6-14.8c6.1-4.2,15.3-2.1,19,4.3
	c3.7,5.6,2.1,13.5-3,17.7c-19.3,17.1-42.7,30.4-68.1,35.7c-16.3,3.5-33.5,1.4-49-4.3c-12.9-4.8-25-12.7-33.1-23.9
	c-9.3-12.5-12.5-29.5-7.9-44.5c1.7-5.9,5.6-10.7,9.7-15.2c-9.5-4.7-17.7-12.4-21.8-22.3c-6.4-14.1-4.6-31.1,3.4-44.2
	c-5.4-0.9-11-1-16.5-1.4c-26.7-2.3-53.4-5.6-79.5-11.8c-19.4-4.6-39.7-9.9-54.9-23.5c2.4,5.2,5.6,10,8.2,15.1
	c8.2,15.5,15.4,31.7,19,48.9c2.8,13.5,2,28.1-4.3,40.6c-7.9,16-24,27.5-41.6,30.3c-15.6,2.7-31.9-1.2-45.1-9.7
	c-14.3-9.1-27.3-21.7-33.2-37.9c-1.6-5.4-3.4-11.4-1.2-16.9c2.5-6.8,11.1-10.5,17.8-7.6c5.4,2,7.5,7.8,11.2,11.7
	c3.7,4,7.5,8.1,12.2,10.8c1.8,1.2,4.3,0.5,5.6-1.2c3.8-4.7,3.3-11.2,2.3-16.8c-2.3-12.4-7.2-24.1-12.5-35.4
	c-8.7-18.3-19.6-35.4-31-52.1c-7-11-13.5-23.5-12.8-36.9c0.2-8.3,5.1-16.1,11.9-20.7c2.4-1.6,5-2.8,7.5-4.2c-3.6-8-5.4-17-3.4-25.6
	c1.8-8.3,6.4-15.8,12.3-21.9C13.5,561.7,4,525.2,3,488c-0.7-19.7,0.9-39.5,5-58.8c5.4-25.5,12.8-51,26.5-73.4c4-7.2,9.3-15,7.2-23.6
	c-3.6-17.4-14.9-31.8-23-47.2c-2.8-5.3-1.8-12.3,2.7-16.3c4.1-4.2,10.8-4.9,15.9-2.3c21.5,9.6,40.9,23.2,59.8,37.1
	c12.5,9.3,25.3,18.9,34,32c7.7,11.1,11.8,25,9.8,38.5c-2.5,17.6-12.8,32.8-24.3,45.8c-11.9,12.9-24.6,25.6-32.4,41.5
	c-6.8,14-8.1,30.2-6.4,45.5c1.6,20.3,6.9,40.4,16.1,58.7c5.6-8.3,13.6-14.5,22.4-19.1c16.3-8.5,34.2-13.2,52.1-17.2
	c19.3-4.2,38.9-6.7,58.5-9.1c2.4-10.3,8.3-20,17.2-26c5.9-4.3,13.2-6.2,20.4-6.8c0.1-4.3,0.3-8.8,2.1-12.9c2-5.1,5.4-9.5,8.6-13.8
	c-4.8-6.1-9-13-10.1-20.8c-1.2-7.1,1-14.6,5.9-19.9c6.8-6.9,14-13.4,20.5-20.6c0.3-3.1-0.4-6.2-0.8-9.2c-13-4.7-24.8-13.1-32.8-24.4
	c-6.5-9.3-11.3-21.7-7-32.9c2.3-5.2,8.3-8.2,13.9-7.5c8.4,0.9,11.7,10.6,19.7,12.6c-0.2-6.7-1.6-13.4-2.1-20
	c-0.7-8-3.3-15.7-6.8-22.9c-5-10.9-11.9-21.3-13.3-33.4c-0.9-6.2,0.5-12.4,1.7-18.4c-12.2,1.5-24.7-1.8-34.8-8.8
	C211.7,223,201,202,202.4,181c1.4-18.3,10.3-35.4,22.6-48.7c7.9-9.1,18-16.2,24.9-26.1c3.1-4.5,5.3-10.3,3.2-15.7
	c-4.1-11.4-12.6-21.2-13.7-33.6c-0.7-7.8,6.4-15,14.2-14.6c4.7,0.2,9.3,2.9,11.5,7.2c4.1,7.6,12.3,11.2,19.2,15.8
	c4.3,2.6,7.9,6.1,12,9c0.5-8.4,0.5-17-1.1-25.3C293.1,36.5,292.8,22.7,298.8,11.1 M308.4,44.6c2.7,14.5,3,29.6-1.1,43.9
	c-2.1,8.4-6.6,16.1-7.4,24.8c-1.6,11.2,2.1,24.1,11.9,30.6c6.6,4.2,13,9,17.9,15.1c2.8,3.7,5.2,8.2,4.7,13c-0.1,4.3-2.7,9.6-7.6,9.5
	c-4.5-0.4-7.9-3.8-10.1-7.4c-2.2-3.2-3.3-7.5-7-9.2c-4.2-0.9-8.6,0.4-12.6,2c1.3,3.1,3.4,5.9,4.6,9.1c-3.5,5.8-11.6,9.6-18.1,6.4
	c-7.3-3.6-10.8-11.6-13.3-18.9c-2.7-7.2-2.8-15.8,1.7-22.3c5.6-8.3,13.9-14.5,18.6-23.4c3.3-6.1,5.7-13.4,3.8-20.4
	c-1.3-5.5-4.8-10.2-8.9-14c-6.9-6.7-16.2-10.3-23.4-16.6c-3.4-2.6-5.7-6.1-8.6-9.3c2.7,12.2,12.6,21.8,14,34.4
	c1.2,8.4-2.1,16.8-7.2,23.5c-6.8,9.1-15.8,16.2-23.6,24.5c-10.1,10.4-17.9,23.6-20.1,38.1c-2.2,14.4,3,29.6,13.6,39.7
	c7.9,8,19.2,13.4,30.7,12.1c7.7-0.9,14.3-5.7,19.7-11c10.3-10.4,17.5-23.4,23-36.8c5.4,11.6,17.5,20.1,30.2,21.3
	c14.1,0.9,25.8-12.7,25.7-26.2c0.4-10.2-4.8-19.8-11.9-26.8c-8-8.2-19.6-12.2-26-22c-5.3-8.8-2.9-19.5-1.5-29.1
	c3.1-17.5,4.5-35.8-0.4-53.1c-2-7.8-6.5-14.9-7.3-23.1c-0.4-3.1,0.4-6.1,0.9-9C306.8,22.7,306.6,34.3,308.4,44.6 M335.3,74.6
	c-6,9.8-8.2,22.1-4.4,33.1c5.2,15.3,16,27.8,26.1,40.1c5.8,7.2,11.7,15.5,11.1,25.3c-0.8,7.5-4.2,14.6-8.9,20.4
	c-9.3,11.3-22.4,18.6-35.6,24.3c-11.5,5.2-24.2,8-34.6,15.5c-7.4,5.1-13.3,13.4-13.2,22.7c-0.7,8.3,3.4,15.8,7.1,22.9
	c5.3,9.8,10.1,20.1,12.1,31.1c1.5,10.2,2.5,20.5,3.7,30.8c5.1-4.1,9.4-10,9.6-16.8c0.2-7-3.1-13.5-5.7-19.8
	c-1.8-4.4-3.6-9.7-0.6-13.9c2.7-4.4,8.6-4.5,13.1-3.3c9.9,2.7,19.2,7.4,28.3,12.3c5.7-9.2,8.1-20.3,7-31.1c-1-8.4-6-16.1-13.3-20.4
	c19.6-5.2,38.8-13.6,54-27.3c10.6-9.6,18-22.8,19.5-37.1c1.7-10.7-1-22.4-8.7-30.2c-11.9-12.6-28.8-18.7-41.2-30.8
	c-11.3-10.5-20.2-25.2-19.5-41.1c0-8.5,3.7-16.4,8.8-23C344,62.5,339.2,68.3,335.3,74.6 M31.1,278.7c3.9,8.2,9,15.7,13.4,23.6
	c6.1,10.9,11.9,22.9,11.5,35.7c-0.3,9.1-5.4,16.9-9.7,24.5c-7,12.1-12.5,24.9-16.7,38.2c-8,26-13.3,53-13,80.3
	c0.6,42.1,11.1,84.2,31,121.3c-4.3,0.1-8.6,1.7-11.4,5c-5.7,6.6-8.9,16.2-6.1,24.8c2.6,9.1,9.1,16.3,16,22.5
	c-7-0.8-14.2-0.4-21.1,1.5c-5.4,1.6-10.4,6-10.9,11.9c-1.2,10.3,4.4,19.8,9.6,28.2c13.8,20.4,27,41.4,36.9,64
	c5.2,12.3,9.8,25.3,10.1,38.8c0.2,8.5-2.9,17.7-10,22.8c-5,3.9-12,3.7-17.4,0.9c-9.9-4.7-16.7-13.5-23.3-21.8
	c2.4,14,12,25.7,23.3,33.9c6.9,5,14.6,9.3,23,11.2c14.3,3.6,30.4-0.3,41.3-10.4c8.7-8,13.2-19.8,13.3-31.5
	c-0.1-13-4.3-25.6-9.3-37.4c-8.3-19.2-19.1-37.2-31.3-54.1c8.9,1.2,19.6-2.3,22.8-11.4c2.5-8.7,0-18-4.3-25.7
	c-7.4-12.9-18.7-22.8-29.9-32.3c9,3.5,18.6,9.6,28.6,6.1c7.8-2.2,13-10.2,12.9-18.2c-0.2-9.4-4.6-18-9.3-26
	c-7.8-13.1-16.2-25.9-22.2-39.9c-9.7-22-14.8-46.1-14.9-70.2c-0.1-17.3,4.1-35,13.7-49.6c9.9-16,24.5-28.3,36.1-42.9
	c8.9-11.4,16.2-25.5,14.1-40.3c-2.3-16.1-14.1-28.7-26.4-38.5C79,306.8,56.2,290.5,31.1,278.7 M591.2,292.4
	c-16.1,10-31.5,20.9-46.3,32.7c-11.3,9.4-22,21.2-24.5,36.2c-2.2,13.1,3.1,26.1,10.6,36.7c10.8,15.6,26,27.6,36.7,43.3
	c10.5,14.4,16,32,16.4,49.8c0.5,24.6-4.4,49.4-14,72.1c-6.6,16-16.4,30.2-25,45.1c-4.8,8.7-9.4,19-6.4,29.1
	c2.4,8.5,11.7,13.7,20.3,12.8c7.1-1.2,13.6-4.4,20.2-7.1c-3.9,3.5-8.1,6.6-11.8,10.4c-9.3,9-18.7,19.1-22.2,31.9
	c-1.8,6.7-2.2,14.6,2.3,20.3c4.9,5.9,13.1,7.8,20.4,6.9c-9.3,12.6-17.4,26-24.6,39.8c-7.1,14.2-13.6,29-15.6,44.9
	c-1.7,12.7,1.6,26.3,10.4,35.9c8.3,9.3,20.7,14.1,33,14.2c10.8-0.1,21.3-4,30.2-10.1c12.8-8.3,24.1-20.8,26.8-36.2
	c-6.6,8.2-13.4,17-23.2,21.7c-5.2,2.7-12,3.1-17-0.4c-6.3-4.3-9.9-11.7-10.4-19.2c-0.9-12.3,2.7-24.3,7-35.7
	c9.5-24,23-46.2,37.4-67.5c5.6-8.4,11.4-17.4,12.2-27.7c0.6-5.8-2.1-12-7.6-14.4c-7.7-3.7-16.7-3.9-25-2.9c7-5.6,12.9-12.8,16-21.2
	c3.5-9.1,0.3-19.7-6.2-26.7c-2.8-3.1-6.9-4.4-11-4.5c19.4-36.3,29.9-77.2,31-118.3c0.5-26.3-4-52.5-11.3-77.7
	c-4.9-17.4-12.3-34.1-21.6-49.6c-5-7.9-7.8-17.4-5.9-26.8c3.4-19,16-34.4,24.4-51.2C607.6,282.5,599.4,287.5,591.2,292.4
	 M307.9,293.3c-0.6,1.7-0.7,3.6,0,5.3c2.7,7.7,7.1,15,7.3,23.4c0.4,6.9-2.3,13.6-6.8,18.7c-5.2,6.2-12.3,11.8-20.7,11.7
	c-9.8-0.2-18.1-6.4-24.7-13c-0.8,8.9,4,17.1,9.8,23.5c8.3,8.9,19.7,15.2,31.9,16.5c10.4,1,20.7-3.3,28.5-9.9
	c5.3-4.4,7.6-11,11.5-16.5c2.3-2.5,5.1-5.9,8.9-5.2c-0.2,3.2-1.7,6.1-3.5,8.6c-4.4,6.5-9.8,12.1-15,18c-16.2,17.1-32.7,34-49.5,50.5
	c-3,2.8-6.8,5.6-7.2,10.1c-0.3,5.7,2.5,11.1,5.9,15.4c2.4,3.3,6.4,4.6,10.3,4.9c-3.3,5.5-6.4,11.1-10.5,16.2
	c-2.7,3.4-5.8,7-5.9,11.6c0.1,5.3,4.3,9.3,8.3,12.2c5.3,3.8,12.1,5,18.4,3.4c-2,5.3-4.7,10.8-9.6,14c-3.4,2.2-8.5,2.6-11.2-0.9
	c-3.1-3.9-5.8-8.8-11-9.9c-8.6-1.7-18.7,0-25,6.6c-5.3,5.2-7.6,12.5-8.6,19.7c3.3-2.8,7.5-4.8,12-3.8c6.9,1.8,11.4,8.5,18.3,10.3
	c5.4,1,10.3-2.3,15.2-4.1c-10.1,11.8-21.5,22.3-32.4,33.3c-7.6,7-14.6,14.8-23.1,20.9c-23.7,17.3-54.8,23.2-83.4,17.7
	c7.8,4.6,16.5,7.4,25.4,8.6c19.1,2.5,38.4-1.1,56.3-7.8c16.1-6.3,30.7-16.1,43.8-27.3c15-12.9,28.3-27.8,39.9-43.9
	c-0.2,47.3-0.9,94.5-1.5,141.8c-17.1,7.9-30.5,24.4-32.8,43.4c-1.1,8.6-1.5,18.3,3.6,25.8c3.1,4.4,8.7,5.5,13.8,4.9
	c-7.3,3.8-14,8.6-20.3,13.8c-11.7,10.1-15.5,28.8-7.4,42.2c5.5,9.3,16.2,14.6,26.7,15.5c12.8,0.8,25.3-4.8,34.9-12.9
	c-5.2,1.3-10.5,2.4-15.9,2.3c-6.7,0.2-14.2-0.6-19.2-5.5c-3.7-3.6-3.5-9.5-1.6-13.9c4-9.4,12.5-16.2,21.5-20.5
	c9.1-4.1,18.8-6.3,28-9.9c3.5-1.4,7.3-3.5,8.6-7.2c0.8-4,0.7-8.4-0.7-12.3c-2.2-6.2-7.8-10.4-13.9-12.3c5.6-5.8,10.4-12.5,12.8-20.3
	c3.3-10,2.4-21.4-2.6-30.7c-2.8-5.3-8.6-8.9-14.7-8.5c-0.3-19.5-0.1-38.9,0.9-58.3c0.6-17.7,0.7-36.2,8.1-52.7
	c3.1-7.2,8.2-13.1,12.7-19.3c5.1-7,5.9-17.1,1.5-24.6c-2.3-3.9-6.5-6-10.7-7.2c5.6-3.2,9.5-8.9,10.3-15.3c0.8-7.6-0.2-16-5.1-22.1
	c-3.1-4.1-8.1-6.1-13-6.7c5-2,11.1-3,14.1-7.9c4.5-6.9,3.3-15.9,0.6-23.3c-3-7.9-10.9-12.8-19.1-13.8c7.9-8.2,16.4-15.9,25.2-23
	c5.9-4.6,12-9.1,18.9-12c3.6-1.6,7.7-1.4,11.4-2.6c7.7-2.2,14.7-8.2,16.7-16.2c1.8-7.4-0.3-15-3.6-21.6c-3.7-7.8-10-14.8-18.5-17.6
	c-9.6-3.4-20-1.4-29.3,2.1c0-5.5-2.1-11-6.2-14.7c-6.6-6.3-15.1-10.1-23.4-13.6C318.1,295.1,313.2,292.6,307.9,293.3 M304,386.3
	c0.3,3,0.6,6.1,1.1,9.1c3.2-3,6.2-6.2,9.3-9.3C311,386.3,307.5,386.4,304,386.3 M363.5,530c-1.6,6.6-5.5,12.2-9.7,17.3
	c33.6,1.3,67.4,3.5,100.4,10.4c9.7,2.2,19.6,4.6,28.5,9.3c2.8,1.7,6.1,3.7,6.8,7.2c0.7,4.3-3.4,7-6.6,9c-8.6,4.7-18.2,7.1-27.6,9.2
	c-38.2,8-77.3,10.1-116.2,11c-0.2,7.6-0.9,15.1-0.8,22.7c39.2-0.8,78.5-3.3,117.2-9.7c18.7-3.2,37.3-7.1,55.1-13.5
	c9-3.4,18.2-7.2,25.6-13.5c3.3-3,6.4-6.8,6.4-11.4c0.3-5.8-4-10.3-8.2-13.6c-9.2-6.9-20.1-10.9-30.9-14.4
	c-23.6-7.3-48-11.4-72.4-14.6C408.6,532.6,386.1,530.9,363.5,530 M243.5,534.7c-3,2.9-7,0.9-9.8-1.2c-20.3,1.8-40.4,4.8-60.4,8.9
	c-17.9,3.9-35.9,8.4-52.3,16.9c-6.1,3.5-12.7,7.6-15.5,14.4c-2,5.4,0.7,11.2,4.8,14.8c8.2,7.5,18.8,11.5,29,15.4
	c0.4-3.8,2.3-8.1,6.6-8.3c16.4,2.9,33.8,2.9,49.7-2.2c-10.8-2.7-22-4.9-31.7-10.5c-3-1.8-6.6-4.6-6-8.6c0.7-3.2,3.7-5.1,6.2-6.8
	c6.6-3.8,14-5.9,21.3-7.9c23.6-5.9,47.9-8.2,72-10.4c3-2.5,5.6-5.5,8.5-8.3c-5-2.2-9-5.9-13.6-8.6
	C249.3,531.2,245.7,532.2,243.5,534.7 M243.4,603.6c-13.4,7.3-28.2,11.2-43,14.1c34.1,5.1,68.7,7.6,103.2,8.2
	c0.5-7.5,0.3-15,0.4-22.5c-17.4-0.6-34.9-1.1-52.3-2.8C248.5,599.9,246.1,602.5,243.4,603.6 M130.3,624.6c-6.1,2.8-12.4,6-16.5,11.5
	c-2.6,3.4-2.6,8.5,0,11.8c3.6,4.9,9.1,7.9,14.5,10.5c10.9,5.1,22.5,8.3,34.1,11.1c40.2,9.2,81.4,12.4,122.5,14.3
	c5.4-5.7,11.6-10.5,18.2-14.6c0-1.9,0-3.7,0.1-5.6c-38.5-1.3-77.2-3.8-114.8-12.5c-11.8-3-23.8-6.2-34.3-12.6
	c-3.9-2.5-8.2-6.4-7.8-11.5c0.9-5.3,5.8-8,9.6-11C147.3,618.1,138.6,621,130.3,624.6 M491.4,616c3.3,2.8,7.6,5,9.2,9.3
	c1.8,4.2-1.2,8.5-4.4,11c-5.9,4.7-13.1,7.5-20.2,9.9c-19.5,6.4-39.9,9.6-60.2,12.2c-23.9,2.9-48,4.4-72.2,4.9
	c6.8,4.7,10.7,12.4,12.5,20.3c31.2-0.8,62.3-3.3,93.1-7.6c20.6-3.2,41.2-6.9,60.9-14c7.9-3.1,16.2-6.4,22.2-12.6
	c3.4-3.3,4.5-8.9,1.7-12.9c-3.2-4.9-8.5-7.9-13.5-10.5C511.2,621.7,501.3,618.5,491.4,616 M120.3,695.5c-4.1,2.9-8.8,6.9-8.4,12.5
	c0,3.1,2,5.7,4,7.8c4.6,4.5,10.5,7.3,16.3,9.8c11.9,5,24.5,8.1,37.1,10.9c35.3,7.3,71.3,10.5,107.3,12.4c-5.1-5.9-6.6-13.8-7-21.3
	c-20.5-1.3-41-3.4-61.3-6.9c-17-3.2-34.3-6.5-49.9-14.3c-5.1-2.7-11-6.3-12-12.5c0-6.2,6-9.5,10.3-12.7
	C144.2,684.8,131.3,688.3,120.3,695.5 M490.7,681.3c4.6,3.3,11.1,7.1,10.3,13.7c-2.3,7.1-9.7,10.5-16,13.5
	c-18.3,7.7-38,11.1-57.5,14.1c-25.2,3.5-50.7,5.6-76.1,6.3c4.5,5.9,6.8,13.2,6.2,20.6c42.4-1.6,85-4.9,126.5-14.2
	c13.7-3.4,27.6-7,40-13.9c4.2-2.5,8.6-5.5,10.8-10.1c1.2-3,0.9-6.7-1-9.4c-2.7-4-6.9-6.6-11-9C512.7,687.5,501.7,684.2,490.7,681.3
	 M332.8,772.1c-3.8,3.8-4.2,9.4-4.3,14.4c-3.8,0.4-7.8,0.6-11.5,1.9c-3.7,1.4-5.6,5.3-6.3,8.9c2.7-1.2,5.6-3.7,8.8-2.5
	c6.8,2.7,11.9,9,19.2,10.5c4.9,0.8,9.4-2.3,12.3-6c3.7-5.7,12-3.7,16.5-0.2c6.4,5.6,7,14.9,6.6,22.9c-1.3,18.2-12.3,34.2-25.5,46.1
	c18.1-8.8,34-22.9,43.1-41c5.6-11,6.6-24.8,0.5-35.8c-7.6-13.8-22.4-23-37.9-24.7C347.1,766,338.4,766.4,332.8,772.1 M312.2,823.5
	c-3.5,0.7-5.6,3.8-8.6,5.5c-6.9,3.8-15.3,5.1-21,10.9c-5.3,5.2-6.5,13.1-5.9,20.2c0.9,12.4,8.5,23.4,18.3,30.6
	c12.5,9.3,28.3,13.2,43.7,13.5c16.9-0.2,33.1-6.4,47.7-14.6c9.3-5.5,18.5-11.4,26.5-18.7c-12.9,7.7-27.1,13.9-42.1,15.8
	c-10,1.2-21.2,1.8-30.1-3.8c-5.5-3.4-6.9-12.4-1.6-16.5c6.3-3.8,11.3-9.4,15.9-15.1c3.2-3.3,1.9-8.3,0.6-12.2
	c-1.8-5.3-8.8-6.6-10-12.2c-1.2-5.7,0.9-11.4,3.3-16.5c-4.8,2.2-10.1,2.3-15.1,0.9C327.2,816.2,320.2,821.1,312.2,823.5z"/>
<path class="st1" d="M308.4,44.6c-1.8-10.3-1.6-21.9,4.9-30.6c-0.5,3-1.3,6-0.9,9c0.7,8.2,5.3,15.2,7.3,23.1
	c5,17.3,3.6,35.6,0.4,53.1c-1.4,9.6-3.9,20.3,1.5,29.1c6.4,9.8,18.1,13.8,26,22c7,7.1,12.3,16.6,11.9,26.8
	c0.1,13.5-11.6,27.1-25.7,26.2c-12.8-1.2-24.8-9.6-30.2-21.3c-5.5,13.4-12.7,26.4-23,36.8c-5.4,5.3-12,10.1-19.7,11
	c-11.4,1.2-22.7-4.1-30.7-12.1c-10.6-10-15.8-25.3-13.6-39.7c2.2-14.5,10-27.6,20.1-38.1c7.7-8.3,16.7-15.4,23.6-24.5
	c5.1-6.6,8.3-15,7.2-23.5c-1.4-12.7-11.3-22.2-14-34.4c2.8,3.1,5.2,6.7,8.6,9.3c7.2,6.3,16.5,9.8,23.4,16.6c4.1,3.8,7.7,8.5,8.9,14
	c1.9,7-0.5,14.2-3.8,20.4c-4.7,8.9-13,15.1-18.6,23.4c-4.5,6.5-4.3,15.1-1.7,22.3c2.6,7.3,6,15.3,13.3,18.9
	c6.5,3.2,14.6-0.6,18.1-6.4c-1.2-3.2-3.3-6-4.6-9.1c3.9-1.6,8.4-2.9,12.6-2c3.7,1.7,4.9,6,7,9.2c2.2,3.6,5.6,7.1,10.1,7.4
	c4.9,0.1,7.5-5.3,7.6-9.5c0.5-4.8-1.9-9.3-4.7-13c-4.9-6.1-11.3-10.9-17.9-15.1c-9.9-6.5-13.5-19.3-11.9-30.6
	c0.7-8.7,5.3-16.4,7.4-24.8C311.5,74.2,311.1,59.1,308.4,44.6z"/>
<path class="st1" d="M335.3,74.6c3.9-6.3,8.7-12.1,14.7-16.6c-5.1,6.6-8.8,14.6-8.8,23c-0.7,15.9,8.2,30.6,19.5,41.1
	c12.3,12.1,29.3,18.3,41.2,30.8c7.7,7.9,10.4,19.5,8.7,30.2c-1.4,14.3-8.9,27.6-19.5,37.1c-15.2,13.7-34.4,22.1-54,27.3
	c7.3,4.3,12.3,12,13.3,20.4c1.1,10.7-1.3,21.9-7,31.1c-9-4.9-18.3-9.5-28.3-12.3c-4.5-1.2-10.4-1-13.1,3.3c-3,4.3-1.1,9.6,0.6,13.9
	c2.6,6.3,5.9,12.8,5.7,19.8c-0.2,6.8-4.5,12.7-9.6,16.8c-1.2-10.3-2.3-20.5-3.7-30.8c-1.9-11.1-6.8-21.3-12.1-31.1
	c-3.7-7.1-7.7-14.6-7.1-22.9c-0.2-9.3,5.8-17.5,13.2-22.7c10.4-7.5,23-10.3,34.6-15.5c13.2-5.8,26.3-13,35.6-24.3
	c4.7-5.8,8-12.9,8.9-20.4c0.7-9.7-5.3-18.1-11.1-25.3c-10.1-12.3-20.8-24.8-26.1-40.1C327.1,96.7,329.3,84.4,335.3,74.6z"/>
<path class="st1" d="M31.1,278.7c25.2,11.8,48,28.1,69.9,45.1c12.3,9.8,24,22.4,26.4,38.5c2.1,14.8-5.3,28.9-14.1,40.3
	c-11.6,14.6-26.2,26.9-36.1,42.9c-9.6,14.6-13.8,32.2-13.7,49.6c0.2,24.1,5.2,48.1,14.9,70.2c6.1,14,14.4,26.8,22.2,39.9
	c4.7,7.9,9,16.6,9.3,26c0.1,8-5,15.9-12.9,18.2c-9.9,3.4-19.6-2.6-28.6-6.1c11.2,9.5,22.5,19.4,29.9,32.3c4.3,7.7,6.8,17,4.3,25.7
	c-3.2,9.1-13.9,12.6-22.8,11.4c12.2,16.9,23,35,31.3,54.1c5,11.9,9.2,24.4,9.3,37.4c0,11.7-4.5,23.5-13.3,31.5
	c-10.8,10.1-27,14-41.3,10.4c-8.4-1.8-16-6.2-23-11.2c-11.3-8.2-20.9-19.9-23.3-33.9c6.7,8.3,13.5,17.1,23.3,21.8
	c5.4,2.8,12.5,3,17.4-0.9c7.1-5.2,10.2-14.3,10-22.8c-0.3-13.5-4.9-26.5-10.1-38.8c-9.8-22.7-23-43.7-36.9-64
	c-5.2-8.5-10.8-17.9-9.6-28.2c0.5-5.9,5.5-10.3,10.9-11.9c6.8-1.9,14-2.3,21.1-1.5c-6.9-6.2-13.4-13.4-16-22.5
	c-2.8-8.6,0.4-18.1,6.1-24.8c2.8-3.4,7.1-5,11.4-5c-19.9-37.1-30.4-79.2-31-121.3c-0.2-27.3,5-54.3,13-80.3
	c4.2-13.3,9.7-26.1,16.7-38.2c4.3-7.7,9.4-15.4,9.7-24.5c0.4-12.9-5.4-24.8-11.5-35.7C40.1,294.4,35,286.8,31.1,278.7z"/>
<path class="st1" d="M591.2,292.4c8.2-4.9,16.5-9.8,25.3-13.6c-8.4,16.9-21,32.2-24.4,51.2c-1.9,9.3,1,18.8,5.9,26.8
	c9.3,15.5,16.7,32.2,21.6,49.6c7.3,25.2,11.9,51.4,11.3,77.7c-1.1,41.1-11.6,82-31,118.3c4.1,0.1,8.2,1.4,11,4.5
	c6.5,7,9.7,17.6,6.2,26.7c-3.1,8.4-9.1,15.6-16,21.2c8.3-1,17.3-0.8,25,2.9c5.4,2.5,8.2,8.7,7.6,14.4c-0.8,10.3-6.6,19.3-12.2,27.7
	c-14.4,21.3-27.9,43.5-37.4,67.5c-4.3,11.4-7.9,23.4-7,35.7c0.5,7.5,4.1,14.9,10.4,19.2c4.9,3.5,11.8,3.1,17,0.4
	c9.8-4.7,16.5-13.5,23.2-21.7c-2.7,15.5-14,28-26.8,36.2c-8.9,6.1-19.4,10-30.2,10.1c-12.3-0.1-24.7-5-33-14.2
	c-8.7-9.6-12-23.2-10.4-35.9c2-15.9,8.5-30.7,15.6-44.9c7.2-13.8,15.4-27.3,24.6-39.8c-7.3,1-15.5-1-20.4-6.9
	c-4.5-5.7-4.1-13.6-2.3-20.3c3.5-12.8,12.9-22.9,22.2-31.9c3.7-3.7,7.9-6.9,11.8-10.4c-6.6,2.7-13.1,5.9-20.2,7.1
	c-8.6,1-17.9-4.3-20.3-12.8c-3-10.1,1.6-20.4,6.4-29.1c8.6-14.9,18.4-29.2,25-45.1c9.6-22.7,14.5-47.5,14-72.1
	c-0.4-17.7-5.9-35.4-16.4-49.8c-10.7-15.7-25.8-27.7-36.7-43.3c-7.4-10.6-12.8-23.6-10.6-36.7c2.5-15,13.3-26.8,24.5-36.2
	C559.6,313.3,575.1,302.4,591.2,292.4z"/>
<path class="st1" d="M307.9,293.3c5.3-0.7,10.2,1.8,15,3.6c8.3,3.5,16.8,7.3,23.4,13.6c4.1,3.7,6.2,9.2,6.2,14.7
	c9.3-3.5,19.7-5.4,29.3-2.1c8.4,2.8,14.7,9.8,18.5,17.6c3.4,6.6,5.5,14.3,3.6,21.6c-2,8-9,13.9-16.7,16.2c-3.7,1.2-7.8,1-11.4,2.6
	c-6.9,2.9-13,7.4-18.9,12c-8.9,7.1-17.4,14.8-25.2,23c8.2,1,16.1,5.9,19.1,13.8c2.7,7.4,3.8,16.4-0.6,23.3
	c-3.1,4.9-9.2,5.9-14.1,7.9c5,0.6,10,2.6,13,6.7c4.9,6.2,5.9,14.5,5.1,22.1c-0.8,6.4-4.7,12.1-10.3,15.3c4.2,1.2,8.4,3.3,10.7,7.2
	c4.4,7.5,3.6,17.6-1.5,24.6c-4.5,6.3-9.6,12.2-12.7,19.3c-7.4,16.5-7.5,34.9-8.1,52.7c-1,19.4-1.1,38.9-0.9,58.3
	c6.1-0.3,11.9,3.2,14.7,8.5c5,9.3,5.8,20.7,2.6,30.7c-2.4,7.8-7.2,14.5-12.8,20.3c6.1,2,11.7,6.1,13.9,12.3
	c1.4,3.9,1.5,8.2,0.7,12.3c-1.4,3.8-5.1,5.8-8.6,7.2c-9.2,3.6-19,5.9-28,9.9c-9,4.4-17.5,11.1-21.5,20.5c-1.9,4.5-2.1,10.3,1.6,13.9
	c5,4.9,12.5,5.7,19.2,5.5c5.4,0.1,10.7-1.1,15.9-2.3c-9.7,8.1-22.1,13.7-34.9,12.9c-10.5-0.9-21.2-6.2-26.7-15.5
	c-8.1-13.4-4.3-32.1,7.4-42.2c6.3-5.2,13-10,20.3-13.8c-5.1,0.6-10.7-0.5-13.8-4.9c-5.1-7.5-4.7-17.2-3.6-25.8
	c2.3-19,15.6-35.5,32.8-43.4c0.6-47.3,1.2-94.5,1.5-141.8c-11.5,16.1-24.9,30.9-39.9,43.9c-13.1,11.2-27.6,21-43.8,27.3
	c-17.9,6.7-37.3,10.3-56.3,7.8c-8.9-1.2-17.7-4-25.4-8.6c28.6,5.5,59.7-0.4,83.4-17.7c8.5-6,15.5-13.8,23.1-20.9
	c10.9-10.9,22.4-21.5,32.4-33.3c-4.9,1.8-9.7,5.1-15.2,4.1c-7-1.8-11.4-8.6-18.3-10.3c-4.4-1-8.6,0.9-12,3.8
	c0.9-7.2,3.3-14.5,8.6-19.7c6.3-6.6,16.3-8.3,25-6.6c5.3,1.1,8,6,11,9.9c2.7,3.5,7.8,3.1,11.2,0.9c4.9-3.2,7.6-8.7,9.6-14
	c-6.3,1.6-13.1,0.3-18.4-3.4c-4.1-2.9-8.2-6.9-8.3-12.2c0.2-4.6,3.3-8.2,5.9-11.6c4-5,7.1-10.7,10.5-16.2c-3.9-0.3-7.9-1.6-10.3-4.9
	c-3.4-4.4-6.1-9.8-5.9-15.4c0.4-4.5,4.2-7.3,7.2-10.1c16.8-16.5,33.3-33.4,49.5-50.5c5.2-5.8,10.7-11.5,15-18
	c1.8-2.6,3.3-5.4,3.5-8.6c-3.8-0.7-6.6,2.7-8.9,5.2c-3.8,5.5-6.2,12.1-11.5,16.5c-7.8,6.6-18.1,10.9-28.5,9.9
	c-12.2-1.3-23.5-7.6-31.9-16.5c-5.8-6.4-10.6-14.6-9.8-23.5c6.6,6.6,14.9,12.8,24.7,13c8.5,0.1,15.6-5.5,20.7-11.7
	c4.4-5.2,7.2-11.9,6.8-18.7c-0.2-8.3-4.5-15.7-7.3-23.4C307.2,296.9,307.3,295,307.9,293.3 M316.2,694.4
	c-6.7,3.2-11.6,9.1-16.4,14.7c-3.1,4.1-6.6,8.1-8.3,13c-1,2.5,0.3,5.9,3.3,6c4.4-0.1,8.2-2.9,11.4-5.7c6.1-5.7,11.3-12.4,15-19.9
	c1-2.5,2.5-5.4,0.9-8C320.4,693.1,318.1,693.5,316.2,694.4z"/>
<path class="st1" d="M304,386.3c3.5,0.1,7,0,10.4-0.2c-3.1,3.1-6.1,6.3-9.3,9.3C304.6,392.4,304.3,389.4,304,386.3z"/>
<path class="st1" d="M363.5,530c22.6,0.8,45.1,2.6,67.5,5.4c24.4,3.1,48.8,7.3,72.4,14.6c10.8,3.6,21.7,7.5,30.9,14.4
	c4.2,3.3,8.5,7.9,8.2,13.6c0,4.6-3.1,8.5-6.4,11.4c-7.4,6.3-16.5,10.1-25.6,13.5c-17.8,6.4-36.5,10.2-55.1,13.5
	c-38.7,6.4-78,8.9-117.2,9.7c-0.1-7.6,0.6-15.1,0.8-22.7c38.9-0.9,78-2.9,116.2-11c9.5-2.2,19-4.5,27.6-9.2c3.2-1.9,7.3-4.7,6.6-9
	c-0.8-3.4-4-5.5-6.8-7.2c-8.9-4.8-18.7-7.1-28.5-9.3c-33-6.9-66.8-9.1-100.4-10.4C358,542.2,361.9,536.6,363.5,530z"/>
<path class="st1" d="M243.5,534.7c2.2-2.5,5.8-3.5,8.9-2.5c4.6,2.8,8.6,6.4,13.6,8.6c-2.8,2.8-5.5,5.8-8.5,8.3
	c-24.2,2.2-48.4,4.5-72,10.4c-7.3,1.9-14.7,4-21.3,7.9c-2.6,1.6-5.5,3.6-6.2,6.8c-0.7,4,3,6.8,6,8.6c9.7,5.6,20.9,7.8,31.7,10.5
	c-16,5.2-33.3,5.1-49.7,2.2c-4.3,0.3-6.3,4.6-6.6,8.3c-10.2-3.9-20.9-7.9-29-15.4c-4-3.7-6.7-9.4-4.8-14.8
	c2.8-6.8,9.4-10.9,15.5-14.4c16.3-8.5,34.4-13,52.3-16.9c19.9-4.1,40.1-7.1,60.4-8.9C236.5,535.6,240.5,537.6,243.5,534.7z"/>
<path class="st1" d="M243.4,603.6c2.7-1.2,5.1-3.7,8.3-3c17.4,1.7,34.8,2.2,52.3,2.8c-0.2,7.5,0.1,15-0.4,22.5
	c-34.5-0.6-69-3.1-103.2-8.2C215.2,614.8,230,610.9,243.4,603.6z"/>
<path class="st1" d="M130.3,624.6c8.3-3.6,16.9-6.4,25.7-8.5c-3.8,3.1-8.7,5.8-9.6,11c-0.4,5.1,3.9,8.9,7.8,11.5
	c10.4,6.5,22.5,9.7,34.3,12.6c37.6,8.6,76.3,11.2,114.8,12.5c0,1.9-0.1,3.7-0.1,5.6c-6.7,4-12.9,8.9-18.2,14.6
	c-41.1-1.9-82.3-5.1-122.5-14.3c-11.6-2.8-23.3-6-34.1-11.1c-5.4-2.6-10.9-5.6-14.5-10.5c-2.6-3.4-2.6-8.5,0-11.8
	C117.9,630.6,124.2,627.4,130.3,624.6z"/>
<path class="st1" d="M491.4,616c10,2.5,19.9,5.6,29.2,10.1c5.1,2.6,10.3,5.6,13.5,10.5c2.7,4,1.6,9.6-1.7,12.9
	c-6,6.2-14.3,9.5-22.2,12.6c-19.7,7-40.3,10.8-60.9,14c-30.8,4.4-62,6.9-93.1,7.6c-1.8-7.9-5.6-15.6-12.5-20.3
	c24.1-0.5,48.2-2,72.2-4.9c20.3-2.6,40.7-5.8,60.2-12.2c7.1-2.5,14.3-5.2,20.2-9.9c3.1-2.6,6.2-6.9,4.4-11
	C499,621,494.7,618.8,491.4,616z"/>
<path class="st1" d="M120.3,695.5c11-7.2,23.9-10.7,36.4-14.3c-4.3,3.3-10.3,6.6-10.3,12.7c1,6.2,6.9,9.8,12,12.5
	c15.6,7.7,32.9,11.1,49.9,14.3c20.3,3.5,40.8,5.6,61.3,6.9c0.4,7.6,2,15.4,7,21.3c-36-1.9-72-5-107.3-12.4
	c-12.6-2.8-25.2-5.9-37.1-10.9c-5.8-2.5-11.7-5.3-16.3-9.8c-2-2.1-4-4.8-4-7.8C111.5,702.4,116.2,698.4,120.3,695.5z"/>
<path class="st1" d="M490.7,681.3c11,3,22,6.2,32.1,11.6c4.1,2.4,8.4,5,11,9c1.9,2.7,2.2,6.3,1,9.4c-2.2,4.6-6.5,7.6-10.8,10.1
	c-12.4,6.9-26.3,10.5-40,13.9c-41.5,9.3-84.1,12.6-126.5,14.2c0.6-7.4-1.7-14.7-6.2-20.6c25.5-0.7,50.9-2.7,76.1-6.3
	c19.5-3.1,39.2-6.4,57.5-14.1c6.3-2.9,13.7-6.4,16-13.5C501.8,688.4,495.4,684.5,490.7,681.3z"/>
<path class="st0" d="M316.2,694.4c1.9-0.9,4.2-1.3,6,0.1c1.5,2.6,0.1,5.5-0.9,8c-3.7,7.5-8.9,14.2-15,19.9c-3.2,2.8-7,5.6-11.4,5.7
	c-3-0.2-4.3-3.5-3.3-6c1.7-4.9,5.1-9,8.3-13C304.6,703.6,309.5,697.6,316.2,694.4z"/>
<path class="st1" d="M332.8,772.1c5.6-5.7,14.3-6.1,21.7-5.5c15.6,1.6,30.3,10.9,37.9,24.7c6,11,5.1,24.8-0.5,35.8
	c-9.1,18.1-25,32.2-43.1,41c13.2-12,24.2-27.9,25.5-46.1c0.4-7.9-0.2-17.3-6.6-22.9c-4.6-3.5-12.9-5.4-16.5,0.2
	c-2.8,3.8-7.3,6.9-12.3,6c-7.4-1.5-12.4-7.8-19.2-10.5c-3.2-1.2-6,1.3-8.8,2.5c0.7-3.7,2.6-7.5,6.3-8.9c3.7-1.3,7.6-1.5,11.5-1.9
	C328.7,781.4,329.1,775.9,332.8,772.1z"/>
<path class="st1" d="M312.2,823.5c8-2.5,15-7.3,21.6-12.2c5,1.4,10.4,1.2,15.1-0.9c-2.4,5.1-4.5,10.9-3.3,16.5
	c1.2,5.6,8.1,7,10,12.2c1.3,3.8,2.6,8.9-0.6,12.2c-4.6,5.7-9.6,11.3-15.9,15.1c-5.3,4.2-3.9,13.2,1.6,16.5c8.9,5.5,20.1,5,30.1,3.8
	c15-2,29.1-8.1,42.1-15.8c-8,7.3-17.2,13.2-26.5,18.7c-14.6,8.1-30.8,14.4-47.7,14.6c-15.4-0.3-31.2-4.2-43.7-13.5
	c-9.8-7.3-17.4-18.3-18.3-30.6c-0.6-7.1,0.6-15,5.9-20.2c5.6-5.8,14.1-7.1,21-10.9C306.6,827.4,308.7,824.2,312.2,823.5z"/>
</svg>
