<?xml version="1.0" encoding="utf-8"?>
<!-- Generator: Adobe Illustrator 21.0.0, SVG Export Plug-In . SVG Version: 6.00 Build 0)  -->
<svg version="1.1" id="Layer_1" xmlns="http://www.w3.org/2000/svg" xmlns:xlink="http://www.w3.org/1999/xlink" x="0px" y="0px"
	 viewBox="0 0 507.6 507.6" style="enable-background:new 0 0 507.6 507.6;" xml:space="preserve">
<style type="text/css">
	.st0{fill:#CC0001;stroke:#CC0001;stroke-width:9.375000e-02;}
	.st1{fill:#FEFEFE;stroke:#FEFEFE;stroke-width:9.375000e-02;}
	.st2{stroke:#000000;stroke-width:9.375000e-02;}
</style>
<path class="st0" d="M232.5,0.9c47.9-4.1,97,5.8,139.5,28.3c30.5,16.1,57.8,38.4,79.4,65.4c23.2,28.8,40,62.7,48.8,98.6
	c10.9,44,9.6,91-3.5,134.3c-9.8,32.3-26.1,62.6-47.6,88.6c-22.7,27.4-51.3,49.9-83.3,65.6c-34.6,17-73.1,26.2-111.7,25.9
	C212,508,169.9,497.1,133,477.1c-31.4-17-59.1-40.7-80.7-69.1C24,371.2,6.3,326.4,1.5,280.3c-3.9-34.6,0.1-70,10.5-103.2
	C24,139.2,45,104.3,72.9,76C114.8,33,172.6,5.9,232.5,0.9 M232.6,24c-18.2,1.7-36.3,5.5-53.5,11.5C122.6,54.6,74.5,96.8,47.8,150.1
	c-16.3,32.1-24.5,68-24.8,104c0.2,44.1,12.8,88.2,36.8,125.2c21.2,32.9,50.8,60.3,85.2,78.7c33.9,18.2,72.5,27.9,111,27.1
	c42.6,0.3,85-12.4,121-35c27.8-17.4,51.7-40.9,69.9-68.2c24.7-37.3,38.6-82,38.1-126.9c0.9-56.4-20.6-112.7-58.3-154.7
	c-28.8-32.5-67-56.6-108.8-68.4C290.3,23.9,261.2,21.5,232.6,24z"/>
<path class="st1" d="M232.6,24c28.6-2.5,57.7-0.1,85.4,7.9c41.8,11.9,79.9,35.9,108.8,68.4c37.7,41.9,59.2,98.2,58.3,154.7
	c0.4,44.8-13.4,89.6-38.1,126.9c-18.1,27.3-42.1,50.7-69.9,68.2c-36,22.6-78.4,35.3-121,35c-38.5,0.8-77.1-8.9-111-27.1
	c-34.5-18.4-64.1-45.9-85.2-78.7c-24-37-36.6-81.1-36.8-125.2c0.3-35.9,8.5-71.9,24.8-104C74.5,96.8,122.6,54.6,179,35.5
	C196.3,29.5,214.4,25.7,232.6,24 M233.5,26.8C176.1,32,121,59.7,83,103.1c-27,30.7-45.5,68.8-53,109c-11.4,58.8,2,121.7,35.9,171.1
	c20.4,30.3,48.5,55.3,80.8,72.4c37,19.8,79.5,29.2,121.4,26.6c42-2.5,83.3-17,117.7-41.3c28.2-19.6,51.5-45.9,68.1-76
	c20.9-37.8,30.9-81.6,28.2-124.7c-2.5-41.1-16.4-81.4-39.7-115.4C421.9,94.8,394,70,362,53C323,32,277.7,22.7,233.5,26.8z"/>
<path class="st0" d="M233.5,26.8C277.7,22.7,323,32,362,53c32,17,59.8,41.8,80.2,71.8c23.3,34,37.2,74.3,39.7,115.4
	c2.8,43.1-7.3,86.9-28.2,124.7c-16.5,30-39.9,56.3-68.1,76c-34.4,24.3-75.7,38.7-117.7,41.3c-41.9,2.6-84.4-6.8-121.4-26.6
	c-32.3-17.1-60.3-42.1-80.8-72.4C32,333.8,18.6,270.8,30,212.1c7.5-40.2,26-78.2,53-109C121,59.7,176.1,32,233.5,26.8 M233.1,28.4
	c-49.6,4.4-97.5,25.9-133.7,60C53.8,130.8,26.6,192.8,28,255.2c-0.5,40.8,11.6,81.5,32.7,116.3c18,29.7,43,55.1,72.4,73.7
	c34.2,21.7,74.4,33.9,114.9,35c42.3,1.1,84.9-10,121.3-31.6c26.8-15.9,50.2-37.4,68.4-62.7c22.3-31,36.5-67.8,40.9-105.7
	c4.6-40.2-1.5-81.6-18.1-118.6C445.7,128.1,422.6,98.5,394,76c-27.7-21.9-60.5-37.1-95.1-44.1C277.3,27.4,255.1,26.7,233.1,28.4z"/>
<path class="st2" d="M233.1,28.4c21.9-1.7,44.2-1,65.8,3.5c34.6,7,67.4,22.2,95.1,44.1c28.7,22.6,51.7,52.2,66.5,85.5
	c16.6,36.9,22.7,78.4,18.1,118.6c-4.4,38-18.6,74.7-40.9,105.7c-18.2,25.3-41.6,46.8-68.4,62.7c-36.4,21.6-79,32.8-121.3,31.6
	c-40.5-1.1-80.7-13.3-114.9-35c-29.4-18.6-54.4-44-72.4-73.7C39.6,336.6,27.5,296,28,255.2c-1.4-62.4,25.8-124.4,71.4-166.8
	C135.7,54.3,183.5,32.8,233.1,28.4 M273.4,50.2c-2.7,4.2-0.1,9.4,2.7,12.8c4.4,4.1,10.8,4,16.4,3.8c0.3,3-2.1,5.3-2.7,8.1
	c-0.3,4.7-0.4,9.6,1.2,14.1c1.6,3.2,3.9,6.2,6.1,9.1c2.6,1.9,5.8,3,8.8,4c4.4,0.6,9.1-1.1,11.9-4.7c-5.5,0.5-12-0.8-14.9-6.1
	c-2.6-5.8-3.5-13.2,0.3-18.7c4-6.6,11.6-9.9,18.9-11.7c10-2.6,20.7,1.2,28,8.1c4.5,2.7,6,8,9.3,11.8c1.5,1.7,1.8,4,2.5,6
	c3.7-0.6,7.4-1.2,11.2-1.7c-1.4-5-4.3-9.4-7.3-13.6c-4-6.3-10.3-10.8-16.5-14.7c-4.9-3.3-10.6-4.8-16.3-6.1
	c-8.7-1.8-17.9,0.3-25.8,4.2c-6.9,3.3-15,4.7-22.4,2.4c-4.3-1.8-6.2-6.8-6.1-11.2C276.7,47.2,274.1,47.9,273.4,50.2 M141.8,70.9
	c-4.5,8.4-7.7,17.7-8.4,27.3c-1.4,8.3-0.5,16.9,2.5,24.7c2,3.9,4.8,7.3,7.5,10.6c4,2.9,8.2,5.8,13.1,7.2c0.4-2.2,0.8-4.3,1.1-6.5
	c-4.8-2.1-8.7-5.9-11.6-10.2c-3.6-6.6-3.6-14.4-3.4-21.8c-0.1-5.8,2.6-11.2,3.3-16.9c3.1-4.9,6.5-9.6,10.1-14.1
	c3.5-2.8,6.7-6.3,11-7.9c10.6-5.5,23.9-5.5,34.3,0.5c7,5.1,12.3,14.7,8.8,23.4c-1,4.9-5.6,7.8-10.2,8.7c-2.3-0.3-4.7-0.7-7-0.5
	c0.6,1.3,1.3,2.6,2,3.8c4.3,2.3,9.1,4.7,14.1,3.6c3.9-0.4,6.7-3.5,9.1-6.3c4-5.5,5.5-13,3-19.5c-1.3-2.1-3.1-3.8-4.8-5.6
	c-0.8-0.9-0.1-3.4,1.5-2.8c7.3,1.3,16.6-1.2,19.8-8.5c1.2-4-1.7-7.2-4.7-9.2c-1.4,0-2.8-0.1-4.2-0.1c0,1.5,0,3.1,0,4.6
	c-1.2,1.3-2.1,3.2-4,3.7c-5.9,2.2-11.7-1.2-17.2-3c-6-1.7-11-6.2-17.3-6.9c-5-0.7-10.2-1.8-15.3-0.8
	C161.4,50.7,149.4,59.5,141.8,70.9 M256.4,60c-3,7.6-5.7,15.3-8,23.2c-3.8,11.3-8,22.4-11.3,33.9c-4,10.7-7.4,21.6-11.4,32.3
	c2.2,3.9,5.1,7.3,8.8,9.8c3.3-7.2,5.5-14.7,8.2-22.1c3.7-11.3,8.3-22.4,11.4-33.9c0.1-2.3,3.6-1.8,4.1,0c2.7,6,3.9,12.6,6.1,18.8
	c4.5,14.7,9.6,29.2,14,43.9c3.1,10.9,7.7,21.3,10.2,32.4c4.4,0.3,8.8-0.3,13.1-0.4c0.8-4,2.7-7.5,4.2-11.2c-3.1,0-6.4,0.4-9.3-0.8
	c-2.8-14.8-8.8-28.7-12.9-43.2c-7.6-23.1-14.8-46.4-22.5-69.6C259.6,68.7,258.8,64.1,256.4,60 M179,62.6
	c-12.5,1.9-22.6,11.2-28.7,21.8c-3.6,8-6.6,16.8-4.9,25.6c0.2,8.3,5.1,16,12.3,20.1c-1.4-6.6-4.7-12.6-6.8-19
	c-3-18.3,8.9-37.7,26.2-43.9c4.8-0.5,10-1.8,14.7,0.2c6.8,2,11.4,9.8,9.7,16.7c-0.1,3-2.1,5.3-3.5,7.8c1.8-0.1,3.6-0.3,5.1-1.3
	c3.6-1.7,4.2-6.1,5.4-9.4c-1.3-6.1-5-11.8-10.2-15.2C192.2,63.6,185.6,60.9,179,62.6 M305,74.2c-4,7.7,1.1,20.6,10.9,19.7
	c-2.1-3.3-4.9-6.7-4.5-10.9c-0.6-4.3,2-8,4.7-11c9-6.3,21.3-2.7,29.2,3.8c3.2,4.2,7,8.1,8.9,13.1c1.3-0.8,4.3-0.5,3.9-2.8
	c-0.5-3.7-3.8-6.1-5.5-9.3c-1.8-3.4-5.1-5.5-7.6-8.3c-5.3-2.6-10.7-5.7-16.8-5.3C319.2,63,310.6,67.4,305,74.2 M97,101.1
	c-3.8,4-8.2,7.6-10.2,12.9c-5.7,10.3-5.4,22.6-4.2,34c0.6,5-1.2,10.3-4.6,13.9c-2.3,2.4-5.8,2.1-8.8,2.8c-1.5,1.4,0.1,3.1,0.7,4.6
	c2.3,3.4,7.2,4.3,11,3c4.2-1,7.2-4.6,9.3-8.2c0.5-2.7,0.9-5.4,1.2-8.1c0.6-0.1,1.2-0.1,1.9-0.2c4,3.5,8.4,6.9,13.8,7.6
	c4.1,0.3,8.7,1,12.3-1.5c5.1-1.2,8.9-5.3,11.1-9.8c0.1-3,1.3-7.1-1.7-9.1c-0.2,4.4-4,7.4-7.3,9.8c-5.4,3.5-12.4,2.6-17.8-0.4
	c-3.8-2.9-5.9-7.4-7.5-11.8c-0.9-2.6-2.1-5.4-1.1-8.2c-1.6-6.3,1.2-13.1,5.2-17.9c2.3-4.3,5.8-8,10.3-10c0.3-0.3,0.9-1.1,1.3-1.4
	c4.5-1.4,8.7-4.1,13.6-3.8c0.8-0.3,1.5-0.7,2.3-1c-0.1-3,0.1-5.9,1-8.7C117,88.5,106.2,94.4,97,101.1 M342.6,101.5
	c-2.8,2.5-6,4.8-7.9,8.1c-2.6,4.3-5.8,8.7-5.5,14c4-0.7,7.9-1.8,11.5-3.4c2.3-3.4,4.3-7.2,7.3-10.1c5.8-4.6,12.7-8.3,20.2-8.9
	c4.6-0.6,9.3-1.5,13.9-0.2c3.8,2.1,8.5,1.4,12.1,4.1c8.4,5.4,16.5,14.3,15.6,25c0.5,5.6-1,11.1-3.6,15.9c-3.7,4.8-9.9,7.3-15.9,6.9
	c-5-1.3-9.9-3.8-13.2-7.9c-1.3,4-0.6,8.7,2.2,11.9c3.2,2.4,5.8,5.8,9.9,6.6c4.8,1.2,10,1.3,14.9,0c3.6-0.7,5.8-4.4,9.6-4.4
	c1,3.2,1.7,6.7,4,9.3c3.2,2.9,7.1,5.1,11.4,5.8c5-0.2,9.8-3.3,11.2-8.2c-0.6-1.1-1.2-2.2-1.8-3.4c-3.4,1.8-7.6,0.8-10.4-1.6
	c-4.3-6.1-3.9-14-4.7-21.1c-0.1-4-1.1-7.9-1-11.9c0.5-4.4-2.9-7.9-4.5-11.8c-2.2-5.1-6-9.4-10.2-13.1c-8.5-6.5-18.8-11.5-29.6-11.9
	C365.4,89.3,352.5,93.9,342.6,101.5 M157.8,95.3c-0.3,2.7-0.8,5.3-1.3,8c8.6,5.3,12.8,15,15.1,24.4c0.6,10.6,0.4,21.7-4.6,31.3
	c-2.5,3.9-5.4,7.5-8.5,11c3.9,2.6,7.8,5.2,11.4,8.3c1.7,1.4,2.8,3.9,5.2,4.2c4.9,0.2,9.7-0.1,14.6,0.1c-3.3-4.1-7.4-7.5-11.6-10.6
	c-2.3-1.7-5.3-1.7-7.8-3c-0.2-3.4,4-4.6,5.3-7.5c4.2-7.4,5.1-16.1,5.6-24.5c-0.4-6.8-1.3-13.8-4.2-20.1c-3-7.7-9-13.6-14.8-19.3
	C161,96.5,159.4,95.9,157.8,95.3 M111.4,107.3c-3.5,2.1-5.8,5.7-9,8.2c-2.7,5.4-5.6,11.3-4.2,17.5c-0.3,4.4,1.1,8.7,3.6,12.4
	c2.9,4.7,8.9,6.9,14.2,6.1c4.2-0.6,7.1-4.1,9.5-7.4c-0.6,0.4-1.8,1.3-2.4,1.7c-4.6,1.2-9.4,0.8-13.8-0.9c-1.6-1.2-3-2.7-4.4-4.1
	c-2.6-6.9-2.8-15.1,1.3-21.5c3.9-6.6,11.4-9.7,18.5-11.5c0.6,0,2-0.1,2.6-0.1c0-1.9-0.1-3.8-0.1-5.7
	C121.7,103.1,116.1,104.2,111.4,107.3 M356.2,108.1c-4.8,1.8-7.9,5.9-11,9.8c2.8-1.2,5.3-3,7.7-4.9c6.6-2.6,13.8-4.1,21-3.8
	c10.8-0.5,22.6,6,25.5,16.9c1.7,4.9,0.6,10.7-3,14.5c-4.2,3.8-10.6,4-15.6,1.7c2.1,1.7,4,3.7,6.1,5.4c4,2.1,8.9,1.1,12.5-1.3
	c3.3-3.4,6.7-7.4,6.7-12.3c-0.1-3.7,0.4-7.5-1.2-10.9c-1.9-3.7-3.2-7.9-6.8-10.3c-5.5-5.9-13.5-8.1-21.2-9.2
	C369.9,103.9,362.5,104.5,356.2,108.1 M252.4,117c-4.6,14.1-9.7,28.1-14.6,42.1c-1.2,1.7,0.4,3.5,2.3,3.3c2.3-3.1,3.2-6.9,4.5-10.5
	c3-9.2,7.2-18,9.4-27.5c0.8,0,2.4,0.2,3.2,0.2c2.6,5.9,3.6,12.4,6.3,18.4c3.2,10.6,6.8,21.1,10,31.7c4,10.1,6.3,20.8,10.6,30.8
	c4.6,0,9.2,0.2,13.8,0.2c1.7,0.1,2.2-2,3.2-2.9c-5.4-1.8-11.1-1.3-16.7-0.9c1.2-7.5-2.6-14.5-4.6-21.4c-2-7.4-4.6-14.5-6.4-22
	c-5.7-17.2-11.2-34.4-16.7-51.7C255.1,110.2,253.6,113.5,252.4,117 M157,107.9c-0.7,5.9,4.2,9.9,5.6,15.3c2.3,6,1,12.5,0.5,18.7
	c-0.5,5.7-3.7,10.5-5.8,15.7c-3.6,4.2-6.5,8.8-9.7,13.2c6.1,3.8,11.7,8.3,18,11.8c1.2,0.1,2.4,0.2,3.6,0.3
	c-4.3-4.2-8.9-8.4-14.6-10.5c0.3-1.9,0.3-4.3,1.9-5.7c5-4.7,9.3-10.7,10.6-17.6c1-5.3,1.7-10.7,1.8-16c0.3-4.2-1.9-8-3-11.9
	C164.4,116,160.8,111.6,157,107.9 M366.2,114.5c-4,5.9-8.3,11.7-14.1,16c-8.4,5.4-18.1,8.8-28.1,9.3c-6.8,1.2-13.9,0.5-20.6-1.2
	c-1.8,3.9-2.8,8.2-4.5,12.1c-1.4,3.2-3.3,6.1-4.5,9.3c1.1,3.7,2.8,7.3,3.3,11.1c2.4-1.2,3.8-3.8,5.4-5.8c2.9-5.2,6.6-10.4,6.4-16.6
	c1.1-0.5,2.3-0.9,3.5-1.3c5.5,0.9,11.2,1.4,16.7,0.3c7.3-1.9,14.9-3.3,21.3-7.6c5.5-3.7,11.1-7.5,15.2-12.8c2.5-2.9,4.9-5.9,6.6-9.4
	c0.7-1.3,1.2-2.9,0.6-4.3C371,113.9,368.6,114.2,366.2,114.5 M346.5,123.8c-5.1,3.1-10.8,4.8-16.5,6.3c-10.7,1.4-21.6-0.3-31.7-4
	c-1.6,7.2-3.5,14.4-6.5,21.1c-1.4,2.7,0.4,5.5,0.9,8.2c4.1-6.8,6-14.5,7-22.2c2.9,0.2,5.4,1.8,8.1,2.7c9.6,3,19.9,0.7,29.4-1.6
	c9-3.6,18.2-9.3,22.5-18.3C354.8,117.7,351.5,122.1,346.5,123.8 M186.1,128.4c0.1,1.6,0.3,3.2,0.4,4.8c6.7,1.6,13.2-1.1,19.6-2.2
	c1.7,11.1,8.3,20.4,14.3,29.6c8.5,10.4,22.1,16.3,35.5,15.7c4-0.4,7.6-2.4,11.6-3.2c-0.2-0.7-0.7-2.1-0.9-2.8
	c-5.5,0.3-11,2.6-16.6,1.7c-6.1-1.4-12.8-2-17.9-6c-8.1-6.3-13.1-15.5-17.1-24.7c-2.7-5.4-4.1-11.1-5.4-16.9
	C201.9,126.7,194.2,129.1,186.1,128.4 M186.7,136.8c-0.3,3.3-0.2,6.6-0.2,9.8c4,0.9,7.9,0.4,11.5-1.4c1.1,1.4,1.9,3,2.1,4.8
	c1,5.7,5,10,8.1,14.6c2.8,4.5,7.4,7.3,11.2,10.9c8.2,5,16.6,11,26.6,11.4c8.2,1.3,16.9,1.1,24.8-1.8c-0.4-3.1-1.7-5.9-2.5-8.9
	c-9.2,4.9-20.2,4.3-29.8,1.1c-8.2-2.9-15.3-8.3-20.8-15c-5.9-8.5-11.1-17.5-14.4-27.3C197.8,136.6,192.3,137.1,186.7,136.8
	 M252.7,144.2c2.2,0.4,4.8,2.1,6.4-0.3C256.9,143.6,254.7,143.5,252.7,144.2 M258.2,147.3c-0.5,1.6,0.1,2.2,1.7,1.7
	C260.3,147.3,259.8,146.8,258.2,147.3 M345.3,150.3c-0.1,6.9,3.3,13.3,6.7,19.1c-4,3.9-9.5,5.6-13.9,8.9c-8,7.3-13.1,17.4-15.2,28
	c-0.6,4.3-2.4,8.7-1.2,13.1c1,5.6,3.5,10.8,6.2,15.8c1.3-0.9,2.5-1.7,3.7-2.6c-2.9-3.9-3.9-8.7-5.3-13.3c0.1-4.8-1-9.5,0-14.2
	c1-7.5,5.1-14.1,9-20.5c2.8-2.9,6-5.4,9.2-7.9c4.6-2.6,9.3-4.9,14-7.3c-3.6-6.6-9.4-12.6-9.3-20.7
	C347.9,149.1,346.5,149.6,345.3,150.3 M250,153.6c0.4,1.8,3.5,0.1,3.6,2.4c-0.2,0.6-0.7,1.8-0.9,2.4c1.3,1.5,2.9,2.8,3.4,4.8
	c1.4,0.9,2.7,1.8,4.1,2.7c-1-1.6-2.2-3.1-3.1-4.8c0.3-2.8,3.5-0.8,4.6,0.4c0.8-0.5,1.6-1,2.4-1.5c-0.7,0-2.1,0-2.8,0
	c1-3.6-0.6-6.7-0.9-10.2c-0.3,1-0.6,2-0.9,3.1c-1.4,0.2-2.7,0.4-4.1,0.6c0.4,0.9,0.8,1.8,1.1,2.8c1-0.9,2-1.8,3.4-2.1
	c0.4,1.8,0.8,3.7,0.8,5.6c-1.1-0.4-2.2-0.8-3.2-1.3c-0.7,0.3-2.2,1.1-2.9,1.4c-0.6-2.3-0.3-5.2-2.6-6.7c0.9-0.7,1.7-1.4,2.6-2.1
	C252.6,150.6,251.4,152.7,250,153.6 M331.2,153.1c0,3.9,0.3,8,2.7,11.2c1,1.2,1,2.6,1.1,4.1c-3.7,1.4-7.7,2.3-10.8,4.9
	c-9.1,5.8-13,16.4-16.8,25.9c-4.5,15-2.3,32.5,7.6,44.8c3.3-2.2,6.5-4.5,9.8-6.7c-3.7-5.7-5.8-12.5-6.8-19.2
	c-0.6-15.1,5.3-30.4,16.2-40.9c4-3.3,7.2-8.1,12.7-9.2c-2.4-5.4-5-10.7-5.1-16.7C338.2,152.1,334.7,152.6,331.2,153.1 M184.3,153.2
	c-0.5,1.4-0.1,1.9,1.3,1.4C186.2,153.1,185.7,152.6,184.3,153.2 M188.2,153.4C188.8,153.9,188.8,153.9,188.2,153.4 M191.1,153.2
	c1.7,1.5,3.3,3.1,4.9,4.7c-0.8-1.5-1.7-3-2.2-4.6C193.1,153.3,191.8,153.3,191.1,153.2 M316.4,160c1.1-1.3,2.3-2.7,3.5-3.9
	c0-0.7-0.1-2.1-0.2-2.8C317.9,155,317.6,157.7,316.4,160 M188.3,155.6c-1.3,0.7-2.9,1.2-2.9,3c-0.7,0-2.1-0.1-2.7-0.1
	c2,1.1,3.5,2.8,5,4.6c-0.8,1.5-1.6,3-2.4,4.5c-2.7-0.6-2.8-3.1-3.1-5.3c-0.3,0.2-1,0.6-1.3,0.8c1.2,1.6,1.5,3.6,1.8,5.6
	c2.3-1.8,5.1,0.1,7.6,0.4c0.1,1,0.4,3,0.5,4.1c-0.7-0.3-2.1-1-2.9-1.4c1.8,1,3.6,2.2,4,4.4c1.3,0.8,3.4,1.1,3.4,3.1
	c-0.5,2.2,1.7,2.3,3.2,2.6c0-0.2,0-0.6,0-0.7c-0.6-0.3-1.8-0.7-2.4-1c-0.2-0.8-0.5-2.6-0.7-3.4c0.7,0,2.1-0.1,2.8-0.2
	c-0.1-0.9-0.3-1.8-0.4-2.7c1.5-0.8,2.8,0.1,3.8,1.2c-0.6,1.5-1.5,2.8-2.6,3.9c1.1-0.5,2.2-1.1,3.5-0.9c1.3,0.4,2.7,0.6,4.1,0.9
	c0.3-0.6,0.9-1.9,1.2-2.5c1-0.1,1.9,0.1,2.8,0.6c-0.3-0.9-0.6-1.8-0.8-2.6c-0.9,0.5-1.9,0.9-2.9,1.2c-0.5-0.2-1.4-0.6-1.9-0.8
	c0.6,1,0.9,2.1,0.9,3.3c-1.7-0.3-3.2-1.4-3.9-3c0.4-0.2,1.1-0.6,1.5-0.9c-1.9,0.9-2.3-1.1-3.2-2.1c-1,0.4-2.1,0.5-3.1,0.7
	c-0.9,1.2-1.8,2.4-2.4,3.8c-2.4,0.8-2.6-1.5-3.1-3.2c2.8-0.1,2.6-2.7,1.4-4.4c1.6-1.5,1.5-3.1-0.4-5c-0.7,1.3-1.4,2.6-2,4
	c-1.3-0.6-1.8-1.8-1.9-3.2c1-0.5,2-0.9,3-1.4c-1.3-1-2.7-1.7-4.2-2.1c0-0.9-0.2-2.6-0.2-3.4c2.6,0,3.5,1.8,3.1,4.2
	c0.9-0.1,2.6-0.4,3.4-0.5c0.1,0.9,0.2,1.9,0.4,2.9c1.5,0.1,2.7,0.8,3.9,1.6c0.1,0.5,0.1,1.5,0.2,2c-0.6,0-1.9,0.1-2.5,0.1
	c0,0.5,0.1,1.4,0.1,1.8c1.3-0.1,2.7,0,4.1-0.1c0.4-1.5,0.7-3,1.1-4.5c-2.4-0.4-4.4-2-3.5-4.6c-0.5,0.5-1.5,1.6-2,2.1
	c-0.4-1-0.8-1.9-1.2-2.9C192.5,158.2,190.6,156.6,188.3,155.6 M251.5,165.8c1.1-0.6,2.1-1.2,3.2-1.7l0.1-0.5l-1.8,0.5l0.5-1.6
	c-1.3,0.5-2.5,0.3-3.6-0.4c-0.5-1.1-0.1-2.1,0.9-2.9l-1.6,0.3c0-0.8-0.1-2.6-0.1-3.4C247,159.4,249,163.2,251.5,165.8 M321.6,156
	c-0.1,0.8-0.4,2.3-0.6,3.1c-1.3,0.8-2.7,1.4-3,3.1c-0.7,0-2.2,0.1-3,0.1c-0.2,0.6-0.7,1.7-0.9,2.3c-1.2-0.4-2.4-0.9-3.6-1.4
	c-1.4,2.7-3.7,5.1-3.5,8.4c-0.5-0.1-1.6-0.2-2.1-0.3l0.9,1.4c-1.8-0.5-3.2,0.7-4.6,1.6c0.7,0.3,2.1,0.9,2.9,1.3
	c0.4-2.1,1.4-2.4,3.3-0.9c-0.7-2,0-3.1,1.9-3.3c-0.4,2,0.8,3.1,2.6,3.7c-0.4-3-3.6-6.1-1.8-9c2.2-1.8,3.1,1.3,4.4,2.6
	c0.1,1.3-0.2,2.8,0.7,3.9c0.6-0.3,1.9-0.8,2.5-1c0.2-0.7,0.5-1.5,0.8-2.2c-0.2-0.6-0.7-1.7-0.9-2.3c0.4,1.7,0.3,5.9-2.3,3.8
	c-0.3-1.1-0.3-2.2,0.1-3.3c-0.1-1.3-0.2-2.7-0.3-4c2.4,0.6,4.5-0.1,6.3-1.6c0-1.1,0-2.3,0-3.4c0.8,0,2.4,0,3.1,0
	C323.6,157.7,322.7,156.8,321.6,156 M313.1,157c-0.6,1.7-1.3,3.3-2,4.9c1.2-1.6,2.9-2.5,5.1-2C314.8,159.3,313.7,158.4,313.1,157
	 M323.8,165.2c1.2-0.5,1.8-3.1,0.3-3.6C322.5,161.9,321.9,164.9,323.8,165.2 M202.1,169.5c0.8,1.7,3.4,1.2,4.8,2.4
	C205.2,171.1,204,167.2,202.1,169.5 M202.4,182.6c1.4,1.9,3.5-0.3,1.8-1.7C202.9,179.1,200.3,181.2,202.4,182.6 M214.4,180
	c-0.7,2.2-1.4,4.3-2.1,6.5c-1.1,0.3-2.2,0.6-3.2,0.9c-5.3-1-10.7,0.2-16.1,0.1c-37.3,0.2-74.7,0-112,0.3c-4.2-0.1-8.5-0.3-12.7,0.2
	c2,2.4,4.5,4.1,7.1,5.9c21.9,16.1,44.4,31.6,66.7,47.2c1.9,1.3,3.9,3.3,6.4,2.7c3.6-0.8,7-2.2,10.5-3.4c-4.4-3.7-9.1-7-13.9-10.2
	c-10.6-8.2-21.8-15.7-32.6-23.6c-2.3-1.7-5.1-2.9-7-5c-1-0.9-1-1.9-0.1-3c12.5,0.6,25.1,0.5,37.6,0.1c12,0.6,24-0.1,36,0.5
	c13.3-0.2,26.7-0.4,40-0.8c3.5-3.1,3.7-8.5,4.9-12.9C220.8,183.7,217.7,181.6,214.4,180 M342,186.7c-3.1,3.6-5.7,7.7-7.5,12.1
	c16.2,0.5,32.4,0.5,48.6,0.5c4.3,0,8.7-0.8,13,0c-0.2,1.2,0,2.8-1.5,3.3c-5.6,3.2-10.3,7.6-15.6,11.2c-9.6,6.6-18.8,13.8-28.4,20.5
	c-13.4,9.8-27.4,18.9-40.1,29.6c0.2,3.1,1.4,6.1,2.4,9c4.2,0.1,8.5,0.3,12.7,1c-0.4-2.2-1.3-4.3-1.1-6.5
	c31.3-22.3,62.9-44.3,93.7-67.2c6.7-4.4,13.1-9.1,19.3-14.3c-26.2,0.5-52.4,0.1-78.6,0.2C353.3,186.3,347.6,186.1,342,186.7
	 M222.4,200.5c-1.6,2.4-4.9,1-7.3,1.3c-35-0.4-70,0-105-0.2c15.6,11.3,31.5,22.2,47.2,33.3c2.3,1.4,5.2,4.3,7.6,1.4
	c-12.4-9-24.5-18.5-37.5-26.6c0-1.1,0-2.3,0-3.4c21.5-0.1,43.1,0.2,64.6-0.3c10.4,0.3,20.8-0.2,31.1-0.7c2.1-1.5,2.6-4.3,3.7-6.5
	c1.2-3.3,3-6.6,3-10.3c-0.7-0.3-2.1-0.9-2.8-1.2C225.4,191.7,224,196.1,222.4,200.5 M434.9,218.3c1.3,3.2,5,5.2,4.6,9
	c-2.9,0.1-5.8-0.3-8.5-1.5c-9.6-0.8-21.5,4.6-22.3,15.3c-1.1,5.5,3.2,9.8,6.9,13.3c0.1-3.9,1.1-8,3.6-11.1c3.1-5,9.4-6.5,14.9-6
	c4.4,0.2,7.6,3.6,11.4,5.5c7.5,4.3,9.8,13.3,10.5,21.3c-1.5,9.6-4.4,19.3-10.7,26.8c1.3,2,2.5,4.1,3.7,6.1c0.2,1.8,0.7,3.5,1.3,5.2
	c4.4-2.5,7.1-6.9,10.2-10.7c4.8-7.4,6.8-16.2,8.2-24.7c-0.6-3.5-0.4-7.1-1.2-10.6c-1-5.8-4.8-10.5-6.6-16
	c-4.7-6.8-10.9-12.6-14.5-20.1c-2.3-5.4-0.3-11.9,4.7-15c-1.4-2.5-3.9-4.9-7-4.1C436.4,202.2,432.6,211.4,434.9,218.3 M52.8,208.4
	c8.5,0.5,10.8,11.2,7.3,17.6c-4.7,8.1-13.7,13.3-16.5,22.5c-4.4,10.3-5.6,22.5-0.8,32.8c5,12.1,14.8,21.6,25.7,28.4
	c6.6,2.5,13.3,5.8,20.6,5.8c11.6,1.8,24.4-1.3,32.9-9.7c-3.6-2.7-7.8-5.1-12.4-5.7c-3.1,2.3-6.8,3.4-10.4,4.7
	c-10.3,1.1-20.6-1.6-29.6-6.5c-6.8-4.8-12.4-11-16.6-18.1c-2-6-5.3-12.3-3.7-18.8c0.2-10.4,6.7-20.4,15.5-25.7
	c3.4-0.8,6.9-1,10.4-0.9c3.3,1.4,6.8,2.7,9.8,4.8c4.3,3.6,5.6,9,6.6,14.2c3.7-1.9,6.2-5.6,6.1-9.8c-0.4-9.4-8.3-18-17.6-19.1
	c-3.2,0-7.2,2.2-9-1.7c0.8-0.8,1.6-1.6,2.4-2.4c0.2-1.6,0.4-3.2,0.8-4.8c-1.1-5.4-4-10.8-9.5-12.7C60.2,200.8,54.2,203.5,52.8,208.4
	 M332.1,205.5c13.6,0.7,27.2,0.7,40.8,0.3c0.4,0.5,1.2,1.6,1.6,2.2c-9.6,7-19.4,13.6-28.8,20.8c-9.5,7.3-19.7,13.5-29.1,21
	c-5,3.9-10.5,7.2-15.2,11.5c1.1,3.8,1.9,7.6,3.4,11.2c0.5,2,2.9,1.4,4.3,0.8c-0.1-3.9-2.1-7.4-2.8-11.3c18.4-11.9,36-25,53.9-37.7
	c9.9-7.4,20.2-14.3,29.9-21.9c-5.7-0.6-11.4,0-17.1-0.3c-12.7,0.4-25.3-0.6-38-0.3C332.6,201.2,332.7,204.1,332.1,205.5
	 M146.7,210.9c0.2,1.6,0.4,3.1-1.4,3.8c1.6-0.1,3.2-0.2,4.8-0.1c-1.1-1-1.7-2.2-1.7-3.7C148,210.9,147.1,210.9,146.7,210.9 M158,211
	c0.3,0.8,0.8,2.3,1.1,3.1c-0.6,0.4-1.8,1.3-2.5,1.7c0.5,1.1,0.8,2.2,0.5,3.3c-0.5,1.5-2.5,0.8-3.7,1.3c3.3-0.4,3.2,3.3,5.4,4.7
	c-0.4-1.7-2-3.4-0.7-5.1c2.5-1.1,2.2,2.8,2.4,4.3c1.2-1.1,1.1-2.8,1.6-4.2c1.7-1.3,3.3,0.4,4.2,1.9c-0.3,1.5-1.7,2.4-2.5,3.7
	c1.2-0.8,2.4-1.7,3.5-2.7c-0.5-2.7,0-5.4,0.4-8.1c0.5-0.1,1.6-0.4,2.1-0.6c0.5-1.3,1.4-2.5,2.3-3.6c-1.3,0.9-2.7,1.9-4.1,2.7
	c0.2-4.2-6.3-2.5-4.9,1.1c-0.4,0-1.3-0.1-1.7-0.1c0.4,1.6,0.5,3.1,0.3,4.7c-4.2,1-2.4-4.6-1.9-6.9c0.3-0.4,0.7-1,1-1.4
	C159.9,210.9,158.9,211,158,211 M332.6,210.7c-2.2,2.2,2.4,3.4,1.9,0.5C334,211.1,333.1,210.8,332.6,210.7 M143.7,213.2
	c1.5-0.9,1.6-1.7,0.3-2.5C142.5,211.6,142.4,212.4,143.7,213.2 M152.5,211.4c0,1,0.1,2,0.2,3.1c0.9,0,1.7,0,2.6-0.1
	c0.1-0.5,0.3-1.4,0.4-1.9C154.7,211.8,153.7,210.4,152.5,211.4 M180.1,210.9c0.3,7.3-0.8,14.8-3.9,21.4c-2.2,3-5.2,5.5-7.9,8.1
	c-13.7,8.5-30.4,10.6-46.2,9.9c0.1,3.9,0.2,7.9,0,11.8c-1,3.1-1.4,6.3-1.7,9.5c1.1,0.3,2.3,0.7,3.4,1c1.9-5,4.3-10.5,2.4-15.8
	c0.9-0.6,1.8-1.3,2.8-1.9c14.7,0.3,30.1-2.9,42.1-11.7c4.8-3,8.9-7.2,11.6-12.1c2.8-6.3,2.7-13.4,1.2-20
	C182.8,210.9,181.5,210.9,180.1,210.9 M187.9,211.6c2,9.4,0.3,19.8-5.9,27.4c-9.3,8.9-21.1,14.9-33.8,17.1
	c-5.7,1.8-11.6,1.2-17.4,2.3c-0.4,5.4-1.4,10.7-3.3,15.8c3.7,1.3,7.1,3.3,10.7,4.8c2.3-3.5,1.8-8.1,2.6-12.1c4.7-1.4,9.7-0.7,14.5-2
	c6.1-0.8,11.3-4,17-5.8c6-2.7,11.4-6.7,16-11.4c2.8-2.3,3.8-5.8,5.8-8.6c3-4.4,4.2-9.7,4.9-14.9c1.3-4,1.1-8.5-0.5-12.4
	C195,210.8,191.4,210.9,187.9,211.6 M336.6,210.9c0,0.9-0.1,2.7-0.1,3.5c-0.8-0.1-2.5-0.2-3.4-0.3c1.6,0.9,2,2.5,1.8,4.2
	c3.2-0.1,0.4-6.8,4.2-4.2c0,0.6-0.1,1.8-0.2,2.4c0.6,1,0.3,3,1.9,2.9c-0.4-1.4-1.4-2.8-0.8-4.3c0.8-0.2,2.2-0.5,3-0.7
	c0.1,1.7,0.3,3.5,1.3,5c1.3-2.6,0.5-5.4,0.2-8.1c0,4.5-5.2,1-7.8,1.5C336.7,212.3,336.6,211.4,336.6,210.9 M341.3,211.3
	C341.8,211.9,341.8,211.9,341.3,211.3 M352.8,210.7c-0.7,1.1-1.5,2-2.6,2.7c-1,1.1-2.2,2-3.4,3c2.1,0.1,3.1-3.6,5-2.3
	c0.3,0.6,0.8,1.8,1.1,2.4C353.3,214.5,353.3,212.6,352.8,210.7 M150.5,216.5c-0.1,0.6-0.2,1.8-0.3,2.4c1.6-0.5,3.2-1,4.8-1.5
	C153.7,216.3,152,216.6,150.5,216.5 M170.2,216.3c-0.4,1.7-0.7,3.4-0.9,5.1c0.6,0.1,1.7,0.3,2.3,0.5c-1.1-1.2-1.5-2.6-1.3-4.3
	c1-0.1,3-0.3,4-0.3C173.1,216.3,171.6,216.4,170.2,216.3 M332.2,218.1c-0.5,1.6,0,2.2,1.7,1.6C334.3,218.1,333.8,217.6,332.2,218.1
	 M334.7,220.8c-0.3,2.3-0.1,4.5,1.3,6.4c0.4-1.8,0-3.7-0.5-5.4c1.2-0.4,2.5-0.8,3.7-1.3C337.7,220.3,336.2,220.4,334.7,220.8
	 M341.5,221.6c-0.2,0.3-0.5,0.7-0.7,1c1.1,0.4,2.2,0.9,3.3,1.3c0.6-0.5,1.2-1,1.9-1.5c-0.8,0-2.4,0-3.2,0
	C342.5,222.1,341.8,221.8,341.5,221.6 M68.6,238.8c-5.7,0.9-9.6,5.8-13,10.1c-2,4.2-3.4,8.7-4,13.3c-0.3,5.7,2.6,10.8,4,16.2
	c0.5,1.9,2.2,3.2,3.1,4.9c3,5.2,8.1,8.6,12.7,12.2c2.8,2.3,6.4,3.3,9.7,4.6c7.7,2.6,16.7,3.8,24-0.4c-9.6-1.3-19.7-1.8-28.6-5.9
	c-10.7-5.2-17.6-16.7-18.5-28.4c-0.7-5.5,2-10.5,4.9-14.9c1.7-1.4,3.7-2.4,5.6-3.5c5.1-3,11.8-2.2,16.6,1c0.6,0.9,1.3,1.8,2,2.7
	C85.6,242.2,76.5,237.1,68.6,238.8 M426.5,241.9c-3.4,2.4-6.8,5.9-6.5,10.4c2.7-2.8,5.9-5.9,10-6c4.5-0.6,9,1.7,11.9,5
	c3,4.3,5.7,9.5,5.3,14.9c-1.1,5.6-2.7,11.2-5.6,16.1c-1.4,2,0.9,3.9,1.6,5.7c4.8-5,6.4-11.9,8.2-18.4c2.4-6.7,0.4-14.5-3.6-20.1
	C442.3,244.1,434.3,238.8,426.5,241.9 M362,248.4c-2.9-0.4-4.8,2-7.1,3.3c6.9,1.5,14.1,1.4,20.9-0.2c1.4-0.2,3.3-0.8,4.5,0.2
	c1.8,3.9,0.6,8.4,1.4,12.5c1,10.8,5.9,20.9,12.8,29.1c5.9,4.3,12.3,8.3,19.7,9.4c-3.1-4.3-7.9-6.8-12.1-9.7
	c-4.5-2.8-7.7-7.2-11-11.2c-2.5-5.1-5.2-10.3-5.9-16c-1.9-6.7-1.7-13.6-1.7-20.5C376.4,246.6,369.3,248.6,362,248.4 M187.7,255.3
	c3.7,4,8.4,6.8,13,9.6c-11.8,32-22,64.7-32.8,97c9.1-5.7,17.3-12.8,26.4-18.6c6.5-5.3,14.1-9.2,20.1-15.1c-0.6-1.1-1.2-2.1-1.8-3.2
	c-8.1,6.1-16.7,11.6-24.8,17.7c-3.3,2.2-6.5,5.5-10.8,5.1c9.2-27.3,18.8-54.5,27.8-81.9c0.7-1.4-0.5-2.6-1.5-3.4
	c-2.3-1.8-4.7-3.2-7-4.9C193.8,256,191,252.9,187.7,255.3 M348.5,256.4c-2.9,1.9-5.7,3.9-8.5,5.9c7,2.4,14.7,4.6,21.9,1.9
	c1.8-0.4,3.7-1.6,5.5-0.6c1,5.1,1.8,10.3,2.9,15.5c3.3,5.9,6.1,12.1,9.9,17.7c3.7,4.8,8,9.1,12.9,12.6c8.5,3.8,18.2,8.3,27.6,5
	c-1.1-2.6-2.4-5.1-3.6-7.6c-6.5-0.9-13.2-2.3-18.6-6.3c-10.6-6.6-17.1-18.4-19.2-30.6c-0.5-4.9-2-9.6-1.7-14.6
	c-8.6-0.3-17.7,2.5-25.8-1.1C350.5,254.4,349.6,255.7,348.5,256.4 M175.1,264.3c2.1,1.8,4.6,3.1,6.8,4.9c1.9,2.5,0.1,5.6-0.8,8.1
	c-6.3,16.8-11.1,34-17.3,50.8c-7.8,24.1-15.4,48.3-23.8,72.2c4.1-2,7.5-5.3,11.3-7.9c10.5-7.1,20.8-14.6,31.2-21.8
	c9.7-7.6,20.2-14.2,30-21.6c1.3-1.1,3.3-1.6,3.8-3.3c1.2-4.5,0-9.2-0.8-13.7c-6.3,2.8-11.2,7.8-16.9,11.5
	c-9.2,6-17.7,13.1-26.7,19.5c-2.8,1.8-5.2,4.4-8.5,5c0-4.1,2.2-7.6,3.4-11.3c8.2-24,15.9-48.1,24-72.1c2.1-6.1,4.6-12.2,6.1-18.5
	c-4-2.5-7.8-5.3-11.7-8C181.9,260.3,178.6,262.4,175.1,264.3 M168.6,267.2c-0.3,2.7-2.9,3.5-5,4.5c-0.3-1.2-0.6-2.4-1-3.6
	c-0.1,0.9-0.2,2.8-0.2,3.8c-1.7-0.1-3.1-1-4.4-2.1c-0.4,0.2-1.2,0.5-1.6,0.7c0.6,0.5,1.8,1.6,2.4,2.2c-1.9,2.3-6.3,1.1-5.5-2.2
	c-0.8,0.4-1.5,0.8-2.3,1.2c1.6,0.2,1.9,1.8,1.6,3.1c-0.7,0.2-2.2,0.5-2.9,0.6c0.7,0.1,2.1,0.3,2.8,0.4c-0.1,0.7-0.4,2-0.5,2.6
	c-1.3,0.2-3.1-0.6-4.1,0.6c-0.8,2.2-1.2,4.5-1.6,6.8c0.8-0.7,1.4-1.5,2.1-2.3c-1.7-2.2,0.6-5.3,3.3-4.1c0.1,2.9-0.6,6.3-3,8.1
	c1.5-0.2,3-0.8,3.1-2.5c0.7-3.5,3.9-5.7,7.2-6.7c1.2,1.5,4.9,2.5,2.8,4.7c-2.1,1.3-4.4-1-6.5,0.5c0.2,1.8-0.1,3.6-1.1,5.2
	c1.7-1.2,2.1-3.3,2.6-5.1c1.5,0.2,3,1.2,4.5,0.7c2.1-0.6,3.4-2.6,5.7-2.9c0.6-3.6-0.5-7.3-1-10.8c0.6-0.1,1.8-0.2,2.4-0.3
	c0.6-1.2,1.3-2.3,2.3-3.1C170.1,267.2,169.1,267.2,168.6,267.2 M340.5,269.6c0.9,1,1.5,3.1-0.7,3.1c-1-0.5-1.9-1.2-2.6-2
	c-0.6,0-1.7,0-2.3,0c0.8,0.6,1.6,1.2,2.4,1.7c1.3,0.2,2.5,0.6,3.8,0.8c0.9-1,1-2.6,1.6-3.8C342.2,269.5,341,269.5,340.5,269.6
	 M147.9,274.7c0.2,0,0.5,0.1,0.7,0.1c-0.3-1.5,0.3-3.5-1.5-4.1C145.3,272,147.3,273.4,147.9,274.7 M346.5,270.9
	c-0.5,1.1-1,2.1-1.4,3.2c-1,1.7-2.9,3.2-5,2.9c-0.7-0.6-1.4-1.2-2.1-1.8c-2,0.2-4,0.3-6,0.4c3.2-0.5,5.9,1.3,8.8,2.4
	c1.2-0.3,2.3-0.6,3.5-0.7c1.7-3.4,5.5-0.5,7.5,1.1c-1.1,0.8-1.7,1.9-1.8,3.2c2.7,0.2,5.5-0.2,8.1-0.7c0-0.7,0.1-1.9,0.2-2.6
	l-1.5-0.1c-0.1,0.6-0.2,1.8-0.2,2.4c-0.6,0-1.8,0.1-2.3,0.1c-2-0.5-1.3-3.4-3.5-3.7c-0.2-2.6,3.8-2.6,3.5,0c0.5,0.1,1.6,0.3,2.1,0.4
	c0.2-1.6,1.3-2.4,2.8-2.9c-0.5-1-1-2-1.5-3c-1.1-0.1-2.2-0.1-3.3,0c1.1,1,2.4,1.7,3.6,2.6c-2,1.3-3.8,1.1-5.1-0.6
	c-1.4,0.6-2.9,1-4.4,1.1c0-0.8-0.1-2.3-0.1-3C347.8,271.4,347,271.1,346.5,270.9 M395,273.2c1.5,3.6,2.9,7.4,5.8,10.2
	c7.8,1.5,15.6,4.1,22.2,8.7c3.3,2.9,5.8,6.6,8.4,10.1c3,4.1,3.5,9.2,5,13.9c0.4,9.1,0.5,18.9-4.4,27c-3,4.4-5.6,9.5-10.8,11.5
	c-6.9,3.9-15.3,4.7-22.7,2c-3.8-2.3-8-4.9-9.8-9.2c-2.3-4.6-3.1-10.8,0.4-15c-7.4-1-15.7,4.9-15.7,12.7c-0.9,5.8,2.5,11.4,6.8,15
	c2.1,1.2,4.6,1.6,6.9,2.4c0.3,3.7-3.7,4.2-6.2,5.6c-1.7,2.6-3.7,5.2-4.5,8.2c-0.2,4.6-0.9,10,3,13.4c3,3.5,8,3.5,11.9,1.6
	c-0.7-2.3-2.1-4.5-2-7c1-3.4,1.6-7.1,4.2-9.6c4.5-3.6,10.4-3.8,15.6-5.4c3.6-0.9,7.3-1.5,10.7-3.1c4.3-1.3,7.5-4.5,11-7.1
	c7.5-6.6,11.4-16.2,14.5-25.4c0.9-3.8,0.9-7.6,1.7-11.4c1.2-4.3-0.1-8.7-0.7-12.9c-2.1-7.5-5-15-10.4-20.7
	c-7.3-7.9-17-14.3-27.9-15.3C403.7,272.8,399.2,271.5,395,273.2 M75.2,286.1c3.2,2.6,7,4.3,11,5.4c7.4-4.7,16.3-5.2,24.8-5.4
	c5.5,0.8,11,1.9,16.1,4.1c4.3,1.5,7.7,4.7,11.5,7.1c4.8,2.8,8.3,7.1,11.2,11.7c3-2.4,6-4.7,9-7c3.2-2.4,7.4-3.3,10.5-5.8
	c2-2.8,2.4-6.5,3.9-9.6c-3.9,2.3-8,4.4-12,6.5c-3.8,1.8-5.7,5.8-9.2,8c-3.1-1.4-3.7-4.8-5.7-7.2c-3.4-3.3-7.6-5.6-10.8-9.1
	c-8.5-5.4-18.4-9.2-28.6-9.3C95.5,274.4,83.6,278,75.2,286.1 M358.7,277.1c2,0.4,3.9-0.3,5.6-1.3
	C362.3,275.5,360.2,275.6,358.7,277.1 M346.4,280.6c1.7-0.4,1.7-3.4-0.4-2.7C344.6,278.2,344.6,281.5,346.4,280.6 M169.6,279.8
	c0.4,2.5,3.6-0.4,1.1-1C170.4,279,169.9,279.5,169.6,279.8 M291.3,284.2c-7.5,4.9-15.3,10.7-18,19.8c2.9,2,5.7,4.2,8.4,6.5
	c0.8-2.3,1.6-4.6,3.3-6.4c6.4-7.3,14.9-13.3,24.7-14.4c6.4-0.5,12.9-2,19.2-0.2c11.8,2.5,25.2,5.6,32,16.4c3.1-4,6.8-7.7,9.9-11.6
	c-1.6-3.1-2.9-6.5-5-9.4c-2.8,2.4-5.1,5.2-6.8,8.5c-1,0.3-2.1,0.6-3.1,0.9c-9.7-8.8-22.6-12.5-35-15.4
	C310.9,277.7,300.2,279.1,291.3,284.2 M203.6,285.5c-1,3.3-1.9,6.6-3.2,9.9c4.5,1.8,9.5,2.7,13.3,6c3.7,2.6,6.6,6,9.5,9.5
	c5.4,4.6,6.5,11.9,8.3,18.3c0.6,5.6,1.9,11.3,1.1,16.9c-0.8,7.7-3.1,15.2-5.3,22.6c3.9,1.9,7.9,3.8,11.5,6.4c2.7-3.9,7-6.2,9.8-9.9
	c-3-1.6-6-3.3-9.2-4.2c0.4-4.4,2.6-8.3,2.8-12.8c0.2-6,0.5-12.1-0.5-18.1c0-10.3-4.4-20-10.2-28.3c-3.2-3.6-7.1-6.4-10.9-9.3
	C215.4,289.2,209.8,285.9,203.6,285.5 M404.1,287.2c3.2,2.5,6.3,5,9.6,7.2c4,2.6,6.9,6.6,9.3,10.7c1.7,3.9,2.8,8,4.3,12
	c0,4.9,0.4,9.9-1.1,14.5c-1.9,3.8-4,7.6-7,10.7c-1.3,2.3-4,2.8-6.1,3.9c-2.9,1.2-6,2.2-9.1,1.7c-5.7-0.7-10-5.4-12.7-10.1
	c-1.4,3.5,0.3,7.2,2.3,10.1c3.8,3.9,8.9,6.8,14.5,6.6c5.5-0.5,10.9-2.5,15.3-6c3-1.4,4.1-4.7,5.6-7.3c3.3-5,3.6-11.2,4.6-16.9
	c-0.9-2.7,0.2-5.5-0.8-8.2c-1.2-4.2-1.7-8.8-4.5-12.3c-2.6-3.3-5-6.8-8.1-9.6C415.2,290.9,409.7,288.7,404.1,287.2 M92.7,292.6
	c10.3,0.1,21.3,0.6,30.4,6c10.5,5.4,17.7,15,24.7,24.2c3-3.7,6.1-7.5,10.4-9.7c3-1.4,5.7-3.6,7.9-6.1c1-2.2,1.6-4.5,2.4-6.8
	c-5.5,1.8-9.5,6-14,9.3c-1.7,1.2-2.9,2.9-4.1,4.6c-3.4-2.1-5.9-5.3-8-8.6c-5-5.8-11.1-11.1-18.5-13.5
	C113.9,288.8,102.2,287.4,92.7,292.6 M306.9,293.4c-9.8,3-18.8,10-22.7,19.5c1.2,0.9,2.4,1.8,3.6,2.7c3.5-7.6,10.6-12.8,18.1-15.9
	c3.7-2,8-2.9,12.2-2.8c14.4-0.7,28.3,5.8,39,15.1c1.7,1.6,3.1,3.5,4.6,5.4c4.1-5.7,9.5-10.2,14.3-15.3c-0.4-1.8-1.9-3.2-2.8-4.7
	c-4.3,3.9-7.8,8.6-11,13.5c-1-0.6-2-1.3-3-1.9c-3.4-2.6-5.7-6.5-9.5-8.6C337.1,292.6,321.3,290.2,306.9,293.4 M248.4,298.4
	c-2.7,2-5.5,3.8-8,6.1c-0.2,1.7,1.1,3.2,1.6,4.7c3.9-2.4,7.7-5.1,11.2-8.1c0.9,1.1,1.7,2.3,2.5,3.4c7.5,5.7,15.6,10.9,23,16.7
	c3.3,2.5,6.9,4.4,10.2,6.8c16.1,11.8,32.6,23.2,48.9,34.8c-3.3-10.1-6-20.3-9.5-30.3c-3.3-9.3-5.3-19-9.2-28c-1,0.1-2.9,0.2-3.9,0.3
	c0.6,4.9,2.6,9.5,4,14.3c2.8,8,5.1,16.1,8.1,24.1c-0.5,1.9-0.1,4.1-1.3,5.7c-4.4-1.8-7.8-5.4-11.8-8c-19.7-15.2-40.5-28.8-60.4-43.6
	C252.1,295.4,250,297.4,248.4,298.4 M196.8,305.2c7.9,1.7,15.1,6.6,19.6,13.3c4.9,8.4,6.1,18.3,6.4,27.8c-0.9,9.1-3.7,17.8-6.7,26.4
	c5.9,2.3,11.5,5.2,16.5,9c1.2-1.4,2.3-2.8,3.4-4.2c-4.1-2.8-9-4.3-12.9-7.3c-0.4-1.6,0.2-3.2,1-4.6c3-6.1,2.9-13,4.5-19.5
	c-0.4-4.3-1.3-8.6-1.2-13c-1.5-9.6-6.4-18.6-13.1-25.6c-4.1-3.5-9.2-5.8-14.5-6.9C197.8,300.7,197.8,303.7,196.8,305.2 M322.4,303.8
	c0.5,4.6,2.5,8.9,3.8,13.3c4.7,15.1,9.5,30.1,14.7,45.1c0.6,1.6,0.7,3.2,0.9,4.9c-0.7,0.1-2.1,0.4-2.8,0.5
	c-13.3-10.4-27.2-19.8-40.8-29.8c-12.8-9.2-25.8-18.2-38.6-27.4c-2.5-1.2-4.6-4.2-7.5-4c-3.1,1.8-5.9,4.1-8.8,6.3
	c1.4,4,2.4,8,3.4,12.1c2.3-2.1,4.5-4.4,7.3-5.7c11,9.1,23.3,16.5,34.5,25.3c17.3,12.1,34.2,24.6,51.7,36.4
	c8.1,5.2,15.6,11.3,23.8,16.3c-0.7-4.7-2.3-9.1-3.6-13.6c-3.3-9.1-5.6-18.6-8.9-27.7c-3.2-9.4-5.6-19-9-28.3
	c-2.4-7-4.2-14.1-6.9-20.9C331.8,303.8,326.8,305.1,322.4,303.8 M303.9,311.6c1.6,0.3,3.1,0.8,4.7,1c1.5-0.5,0.8-2.6,0.5-3.7
	c-0.2,0.6-0.6,1.8-0.8,2.5L307,312l-1.4-0.5c0-0.9-0.1-2.8-0.2-3.7C304.8,309,304.3,310.2,303.9,311.6 M55.9,322.2
	c0.1,0.7,0.4,2.1,0.5,2.8c-1,6.4,0.7,13,3,19c2.1,8.5,8.5,15.2,15.2,20.5c8.2,6.2,18.5,7.6,28.2,9.9c4.2,1.3,9,2.3,11.9,5.9
	c3.6,3.4,2.7,8.8,1.7,13.1c6.5,3.6,13.6-3.8,12.9-10.4c-1.3-3.7-3.3-7.3-5.9-10.3c-2.5-2.1-5.5-3.4-8-5.4c0.8-0.8,1.7-1.6,2.6-2.4
	c2.4,0.2,4.6-1,6-2.8c3-4,6.6-7.9,7.1-13.1c1.2-4.5-1.6-8.6-4-12.2c-2.1-2-4.9-3.1-7.2-4.9c1.7,3.4,1.4,7.2,0.4,10.8
	c-2.9,4.8-6.2,9.9-11.6,12.2c-5.2,2-10.8,3.8-16.4,2.6c-5.8-2.1-12.4-3.7-16.5-8.8c-5.7-5.5-7.4-13.8-7.6-21.4
	c-0.9-3.5-0.3-6.9,0.4-10.4c-3.4-2.4-7.4-3.9-10.6-6.6C56.5,314.1,56.8,318.3,55.9,322.2 M297.9,313.8c-1.2,2.6-3.3,5-2.8,8
	c1.3-2.2,0.6-5.2,3.1-6.7c0.3,2.5,0.8,4.9,1.4,7.3c-0.3,0.3-0.9,1-1.1,1.3c0.8-0.6,1.6-1.1,2.5-1.7c-0.5-1.7-0.9-3.3-1.3-5
	c-0.7-1.3-1.6-3.5,0.3-4.2c1.3,0.5,1.9,1.5,1.7,3c0.8,0.5,1.5,1.1,2.3,1.6c2.1-0.7,4-0.3,3.5,2.3c1,1.1,1.3,2.3,1,3.6
	c-2,0.2-3.2-1.6-4.7-2.6c-0.1,1.9-0.7,3.8-1.3,5.6c1.4,0.6,2.8,1.2,4.2,1.7c0-0.3,0.1-0.9,0.1-1.2c-1.6,0.2-2.6-1.1-3.5-2.2l1.8-0.9
	l1.1,0.2c0.2,0.5,0.6,1.6,0.8,2.1c2.2-1.7,4.3-4.8,7.4-4.1c-0.4,1.5,0,2.6,1.3,3.2c-0.2-1.3-0.4-2.6-0.6-3.9
	c-1.8,0.1-3.5,0.5-5.1,1.2c-1.6-2.1-2.4-4.7-0.1-6.7c-2-0.1-3.9,0.8-5.8,0.5c-1.9-0.9-2.3-3.1-2.5-5
	C300.1,311.9,298.3,312.2,297.9,313.8 M195,314.6c1.3,0,2.6,0.2,3.9,0.6c0.3,0.8,0.9,2.3,1.1,3c-2,0.1-4,0.4-6.1,0.3
	c0.1,0.7,0.5,2.2,0.6,2.9c0.6-0.9,1.1-1.7,1.6-2.6c2.5-0.1,4.8,0.7,6.9,2.2c-0.9,2-1.8,4-2.5,6.1c2-1.2,2.9-3.5,4.8-4.9
	c-0.1-1.3-0.1-2.5-0.1-3.7c-1.4,0.4-2.6,1.2-4.1,1.2c-0.9-2.1-1.4-4.3-2.3-6.4C197.6,313.7,196.3,314.1,195,314.6 M312.7,314.9
	c-0.9,1.1-1.8,2.2-2.8,3.3c0.5,0.5,1,1,1.5,1.5C312,318.2,314,316.6,312.7,314.9 M72.4,318.1c-0.5,1.6-1,3.3-1.5,5
	c0.5,1.6,0.3,3.3,0.1,4.9c0.2,5.4,2.3,10.4,4.5,15.2c0.4,0.2,1.2,0.7,1.6,0.9c2.3,4,6.6,6,10.6,7.7c3.3,1.3,6.7,3.4,10.4,2.7
	c4-0.7,8.3-1.3,11.7-3.6c3-2.6,5.3-5.8,7.5-9.1c0.1-1.6,0.4-3.2,0.7-4.7c-0.4-0.9-0.9-1.9-1.3-2.8c-2,1.6-1.8,4.9-3.9,6.6
	c-3.6,4.9-9.3,8.9-15.6,7.7c-13.7-0.6-22.2-16.4-18.5-28.8C76.6,319,74.5,318.4,72.4,318.1 M192.6,321c0.3,2-0.2,3.7-2.2,4.3
	c0.6,1.7,0.5,4.8-2.1,4.7c0.5,1.6,1,3.2,1.2,4.8c0.9-3.5,2.2-6.9,4.3-9.9C193.4,323.6,193,322.3,192.6,321 M196.1,323.6
	c0.1,1.2,0.3,2.4,0.4,3.5c1.3-1.5,2.6-3.2,3.8-4.8C198.9,322.8,197.5,323.2,196.1,323.6 M254,326.4c-0.2,1.5-0.4,2.9-0.6,4.4
	c1.2,0,2.4-0.1,3.5-0.1C255.7,329.5,254.8,328,254,326.4 M193.8,327.8c-0.1,0.8-0.2,2.4-0.2,3.2c0.5-0.1,1.6-0.3,2.1-0.4
	C195.2,329.6,194.7,328.5,193.8,327.8 M259.2,329.3c-0.4,0.5-1.3,1.5-1.8,2c0.6,2.1-1.5,3.4-3.1,2.1c-2.2-2.5-5.1,0.4-6.4,2.3
	c2.6-2.4,6.2-0.8,9.4-1.2c0.7-1.1,1.4-2.2,2.2-3.3C259.4,330.6,259.3,329.9,259.2,329.3 M255.8,341.7c0.2,0.4,0.7,1.1,0.9,1.5
	c-0.3,0.4-0.9,1.3-1.2,1.8c1.3,1.5,2,3.5,0.1,4.9c1.5,0,3,0.5,4,1.8c1.3,0.1,2.5,0.3,3.8,0.4c-1.2-0.7-2.4-1.3-3.6-2
	c0.6-2.6,2.1-5.1,1.6-7.9c-1.4,2.2-1.8,4.7-2.3,7.1c-0.9-1.4-1.8-2.8-2.7-4.1c1.6-3.2,1.6-6.8,2.4-10.2
	C257.3,336.9,257.4,339.7,255.8,341.7 M266.4,340.9c0.8,6.3,2.7,12.4,4.4,18.5c-2.2,2.3-5.2,3.3-8.1,4.5
	c-14.5,6.1-25.7,19-30.5,33.9c-2.8,8.9-2.3,19.1,2.7,27.2c2.2-2.3,4.4-4.6,6.8-6.7c-3.6-5.7-2.6-12.9-1.4-19.2
	c2-5.6,5.2-10.8,9.1-15.3c3.9-3.2,7.7-6.5,12-9.2c7.4-3.8,14.7-8.2,23-9.2c-1.7-3.5-3.2-7.2-4.9-10.8c-1.6-4.2-1.8-9-4.2-12.9
	c-2.6-2.1-5.5-3.9-8-6.1C267.1,337.2,266.7,339,266.4,340.9 M248,337.1c-0.1,1.5-0.2,3-0.2,4.6c2.3-0.8,4.5-1.6,6.9-2
	c-0.4-0.7-0.7-1.4-1.1-2.1c-1.3,1.3-2.7,2.3-4.4,3C248.8,339.4,248.4,338.3,248,337.1 M251,343.3c2.2,1.1,1,3.7,1.2,5.5l-1.6-0.4
	c0.2,1.8,1.2,3.6,0.8,5.5c-1.5,1.1-3.5,0.9-5.2,0.9c1.1,0.4,2.1,0.8,3.2,1.2c0,0.6,0,1.8,0.1,2.4c0.4-0.8,0.9-1.6,1.3-2.5
	c1.7-1.5,3.1-3.2,5.2-4.3c-1.3,0.1-2.6,0.2-3.9,0.3c0.2-1.4,0.8-2.6,1.8-3.7l-1.4-0.2c0.4-1.8,0.8-3.5,1.3-5.3
	C252.7,342.9,251.8,342.9,251,343.3 M280.2,344.8c0.9,5.3,3.2,10.1,5.4,15c1.2,2,3.4,3.7,3.3,6.3c-0.8,2.2-3.5,2.6-5.4,3.3
	c-7.4,0.5-13.8,4.7-20.2,7.9c-8.9,5.6-17.5,13.2-20.2,23.8c-0.8,4.6-1.4,9.5,0.9,13.8c1.5-3.9,3.9-7.4,5.5-11.2
	c3.7-9.7,10.2-18.7,19.5-23.6c4.3-1.8,7.9-5,12.4-6.5c4.4-1.5,8.7-3.3,13.2-4.8c-3.6-5.4-4.3-12.3-7-18.1
	C285.6,348.2,282.7,346.7,280.2,344.8 M253,358.3c0.8,0.1,2.3,0.3,3.1,0.4c0.4,0.2,1.3,0.7,1.8,0.9c0.8-0.7,1.6-1.4,2.5-2.1
	c1-0.4,2-0.9,3-1.4c-2.6-0.6-3.7,3.3-6.2,2c-0.2-0.5-0.6-1.4-0.8-1.9C255.2,356.8,254.1,357.5,253,358.3 M178.2,399.2
	c-1.7,3-1.3,6.7-2.9,9.9c-2.4-1.8-4.7-3.8-7.1-5.5c-2.5-1.2-5.5-0.5-8.1-0.6c-2.6,2.5-6.6,3.2-8.7,6.4c-1.7,3.4-1.6,7.8,1.6,10.3
	c2.9-2.9,6.8-5.8,11.1-4.5c4.8,0.6,8.1,4.6,10.3,8.6c2.4,4.7,5.2,9.2,8.8,13.2c4.2,4.5,7.7,9.8,13.2,13c6.3,3.7,13.6,4.5,20.6,6
	c9.7,0.4,18.9-3.7,27.7-7.3c14.2-7.8,24.1-22.6,27.2-38.4c-0.7-7.4-1-15.2-5.1-21.7c-3.1,2.6-5.9,5.8-8.1,9.2
	c3.8,8.3,2.2,18.2-2.4,25.8c-5.6,9.1-14.6,15.9-24.3,20.3c-9.4,3-20.3,3.4-29.1-1.6c-4.7-1.9-8.5-5.2-12.1-8.7
	c-4.2-5.1-6.5-11.8-6.2-18.4c0.9-2.6,1.4-5.3,1.8-7.9c1.8-3.1,5.1-4.9,7.9-7c4.8-2.7,10.5-1.1,15.2,0.8c0.6-7.6-7.5-13.4-14.6-11.7
	C188.1,389.4,181.1,392.8,178.2,399.2 M295,404c3.3-2,7.2-2.1,10.9-1.6c5.5,2.3,8.8,8.1,10.5,13.6c0,5.1,0,10.5-2.8,14.9
	c-2.2,4.8-6.7,7.8-10.8,10.8c-5.4,4.1-12.3,4.7-18.8,5.5c-7.3,0.6-14-2.9-19.8-7.1c-3.1,2.4-5.1,5.9-8.2,8.3
	c5,4.8,11.8,7.3,18.6,8.7c5.3-0.1,10.5,2.6,15.8,1c5.5-1.6,11.4-2.2,16.5-5.2c5.3-3.2,10.6-6.6,14.4-11.6c1.8-3.3,4.6-5.8,6.1-9.3
	c1.9-4,2.3-8.9,5.6-12.1c1.8-1.9,3.4-4.3,6.2-4.8c4-0.8,9.1-0.9,11.8,2.8c1.2-1.9,2.6-3.8,3.4-6c0-4.3-3.4-7.8-7.4-9
	c-5.2-3.2-12-1.1-16.1,3c-1.1,1.3-2.7,1.8-4.3,2c-0.5-2.3-1.2-4.5-2.1-6.7c-4.2-4.7-9.7-9.2-16.4-8.7C301.7,392.9,297,398.3,295,404
	 M196,403.1c-3,2.5-6.4,5.1-7.4,9.1c-2.1,5.3,0.3,10.9,2.6,15.7c4.6,6.9,12.2,11,19.8,13.8c8.4,1.7,17.7,1,25.1-3.7
	c8.6-5.1,16.5-12.3,20-21.8c1.5-3.6,0.7-7.6,1.8-11.3c-0.6-0.9-1.1-1.8-1.7-2.7c-3.7,9.3-7.1,19.5-15.5,25.6
	c-7.6,5.6-17.3,9.1-26.8,7.8c-6.5-1.6-13.6-4-17.4-9.9c-3.5-3.6-2.9-9.1-2.7-13.6c1.3-4.8,6.1-7.9,10.7-8.9
	C201.6,402.6,198.8,402.5,196,403.1 M299,406.2c2.9,2.2,5,5.1,6.5,8.4c1,5-0.2,10.1-2.7,14.5c-3.6,3.7-8.1,6.3-12.8,8.4
	c-7.1,0.4-14.8,0.5-21-3.6c-0.8,1-1.5,2-2.1,3.1c4.8,5.1,12.3,6.8,19.1,6.9c5-1.2,10.2-2.5,14.3-5.7c3-1.9,4.9-5,7.2-7.6
	c2.8-3.3,3.5-7.7,5.2-11.5C311.9,412.6,306.7,403.7,299,406.2z"/>
<path class="st1" d="M273.4,50.2c0.8-2.4,3.4-3,5.3-4.1c-0.1,4.4,1.8,9.4,6.1,11.2c7.4,2.4,15.5,0.9,22.4-2.4
	c7.9-3.9,17-6.1,25.8-4.2c5.7,1.3,11.4,2.8,16.3,6.1c6.2,4,12.4,8.4,16.5,14.7c3,4.2,5.8,8.6,7.3,13.6c-3.7,0.5-7.4,1.1-11.2,1.7
	c-0.7-2.1-0.9-4.4-2.5-6c-3.3-3.8-4.8-9.1-9.3-11.8c-7.4-6.9-18.1-10.7-28-8.1c-7.2,1.8-14.8,5.1-18.9,11.7
	c-3.8,5.4-2.9,12.9-0.3,18.7c2.8,5.3,9.3,6.6,14.9,6.1c-2.8,3.6-7.4,5.3-11.9,4.7c-3.1-1-6.2-2.1-8.8-4c-2.2-2.9-4.4-5.8-6.1-9.1
	c-1.6-4.5-1.5-9.4-1.2-14.1c0.6-2.8,2.9-5.1,2.7-8.1c-5.6,0.2-12,0.2-16.4-3.8C273.2,59.6,270.6,54.4,273.4,50.2z"/>
<path class="st1" d="M141.8,70.9c7.6-11.4,19.6-20.3,33.2-22.7c5.1-1.1,10.2,0.1,15.3,0.8c6.3,0.7,11.3,5.2,17.3,6.9
	c5.5,1.7,11.4,5.1,17.2,3c1.9-0.5,2.8-2.4,4-3.7c0-1.5,0-3.1,0-4.6c1.4,0,2.8,0.1,4.2,0.1c3,2.1,5.9,5.3,4.7,9.2
	c-3.2,7.4-12.5,9.9-19.8,8.5c-1.6-0.6-2.3,1.9-1.5,2.8c1.6,1.8,3.5,3.5,4.8,5.6c2.5,6.5,1,14-3,19.5c-2.4,2.8-5.2,5.9-9.1,6.3
	c-5.1,1.1-9.8-1.2-14.1-3.6c-0.7-1.3-1.4-2.5-2-3.8c2.4-0.2,4.7,0.2,7,0.5c4.6-0.9,9.2-3.9,10.2-8.7c3.6-8.7-1.7-18.2-8.8-23.4
	c-10.4-6-23.7-6-34.3-0.5c-4.3,1.6-7.5,5.1-11,7.9c-3.6,4.5-7,9.2-10.1,14.1c-0.7,5.7-3.4,11-3.3,16.9c-0.2,7.4-0.3,15.2,3.4,21.8
	c2.9,4.3,6.8,8.1,11.6,10.2c-0.3,2.2-0.7,4.4-1.1,6.5c-4.9-1.3-9.1-4.2-13.1-7.2c-2.8-3.3-5.6-6.7-7.5-10.6
	c-3-7.8-3.9-16.5-2.5-24.7C134.1,88.6,137.2,79.4,141.8,70.9z"/>
<path class="st0" d="M256.4,60c2.4,4,3.2,8.7,4.6,13.1c7.7,23.1,14.8,46.4,22.5,69.6c4.2,14.4,10.1,28.4,12.9,43.2
	c3,1.2,6.2,0.8,9.3,0.8c-1.5,3.7-3.5,7.2-4.2,11.2c-4.4,0-8.8,0.7-13.1,0.4c-2.5-11.1-7.1-21.5-10.2-32.4
	c-4.3-14.8-9.5-29.2-14-43.9c-2.3-6.2-3.4-12.8-6.1-18.8c-0.5-1.7-4-2.3-4.1,0c-3.1,11.5-7.7,22.6-11.4,33.9
	c-2.7,7.4-4.9,14.9-8.2,22.1c-3.7-2.5-6.6-6-8.8-9.8c4-10.7,7.4-21.6,11.4-32.3c3.3-11.4,7.5-22.6,11.3-33.9
	C250.7,75.4,253.4,67.6,256.4,60z"/>
<path class="st1" d="M179,62.6c6.6-1.7,13.1,1,19.2,3.3c5.3,3.4,8.9,9.1,10.2,15.2c-1.2,3.3-1.8,7.7-5.4,9.4c-1.5,1-3.4,1.2-5.1,1.3
	c1.4-2.5,3.5-4.8,3.5-7.8c1.8-6.9-2.8-14.7-9.7-16.7c-4.7-2-9.8-0.7-14.7-0.2c-17.4,6.2-29.2,25.6-26.2,43.9
	c2.1,6.4,5.4,12.4,6.8,19c-7.1-4.1-12.1-11.8-12.3-20.1c-1.7-8.8,1.3-17.6,4.9-25.6C156.5,73.7,166.5,64.5,179,62.6z"/>
<path class="st1" d="M305,74.2c5.6-6.8,14.2-11.2,23-10.9c6-0.4,11.5,2.8,16.8,5.3c2.5,2.8,5.8,4.9,7.6,8.3c1.7,3.2,5,5.5,5.5,9.3
	c0.4,2.3-2.6,1.9-3.9,2.8c-1.9-5-5.7-8.9-8.9-13.1c-7.8-6.4-20.2-10-29.2-3.8c-2.6,3.1-5.3,6.8-4.7,11c-0.3,4.1,2.4,7.6,4.5,10.9
	C306.1,94.8,301.1,81.9,305,74.2z"/>
<path class="st1" d="M97,101.1c9.2-6.7,20-12.6,31.8-11.6c-1,2.8-1.1,5.8-1,8.7c-0.8,0.3-1.5,0.7-2.3,1c-4.9-0.2-9.1,2.4-13.6,3.8
	c-0.3,0.4-0.9,1.1-1.3,1.4c-4.5,1.9-8,5.7-10.3,10c-4,4.8-6.8,11.6-5.2,17.9c-0.9,2.8,0.3,5.5,1.1,8.2c1.5,4.4,3.7,8.9,7.5,11.8
	c5.4,2.9,12.4,3.9,17.8,0.4c3.3-2.4,7.1-5.4,7.3-9.8c2.9,2,1.8,6.1,1.7,9.1c-2.2,4.5-6.1,8.6-11.1,9.8c-3.6,2.5-8.2,1.8-12.3,1.5
	c-5.4-0.7-9.9-4.2-13.8-7.6c-0.6,0.1-1.3,0.1-1.9,0.2c-0.4,2.7-0.7,5.4-1.2,8.1c-2,3.6-5.1,7.1-9.3,8.2c-3.7,1.3-8.6,0.4-11-3
	c-0.6-1.4-2.2-3.2-0.7-4.6c3-0.7,6.5-0.4,8.8-2.8c3.5-3.7,5.3-8.9,4.6-13.9c-1.2-11.4-1.5-23.6,4.2-34C88.8,108.7,93.2,105,97,101.1
	z"/>
<path class="st1" d="M342.6,101.5c10-7.7,22.9-12.3,35.5-10.2c10.9,0.4,21.1,5.4,29.6,11.9c4.2,3.6,7.9,8,10.2,13.1
	c1.6,3.9,4.9,7.3,4.5,11.8c-0.1,4,0.9,7.9,1,11.9c0.7,7.1,0.4,15,4.7,21.1c2.8,2.5,7,3.4,10.4,1.6c0.6,1.1,1.2,2.2,1.8,3.4
	c-1.4,4.9-6.3,8-11.2,8.2c-4.3-0.7-8.2-3-11.4-5.8c-2.3-2.6-3.1-6.1-4-9.3c-3.8-0.1-6,3.6-9.6,4.4c-4.8,1.3-10,1.3-14.9,0
	c-4.1-0.8-6.8-4.2-9.9-6.6c-2.8-3.2-3.5-7.9-2.2-11.9c3.3,4.1,8.1,6.6,13.2,7.9c6,0.4,12.1-2.1,15.9-6.9c2.7-4.8,4.2-10.4,3.6-15.9
	c0.9-10.7-7.2-19.6-15.6-25c-3.5-2.7-8.3-2-12.1-4.1c-4.6-1.3-9.3-0.4-13.9,0.2c-7.5,0.5-14.4,4.2-20.2,8.9c-3,3-5,6.7-7.3,10.1
	c-3.7,1.6-7.6,2.7-11.5,3.4c-0.3-5.3,2.8-9.7,5.5-14C336.6,106.3,339.7,104,342.6,101.5z"/>
<path class="st1" d="M157.8,95.3c1.5,0.6,3.2,1.2,4.4,2.5c5.8,5.7,11.8,11.6,14.8,19.3c2.9,6.3,3.8,13.2,4.2,20.1
	c-0.5,8.3-1.4,17.1-5.6,24.5c-1.3,2.9-5.5,4.1-5.3,7.5c2.4,1.3,5.5,1.3,7.8,3c4.2,3.1,8.3,6.5,11.6,10.6c-4.9-0.2-9.7,0.1-14.6-0.1
	c-2.4-0.3-3.5-2.8-5.2-4.2c-3.6-3-7.5-5.7-11.4-8.3c3.1-3.5,6-7.1,8.5-11c4.9-9.7,5.1-20.8,4.6-31.3c-2.3-9.4-6.5-19.1-15.1-24.4
	C157,100.6,157.5,98,157.8,95.3z"/>
<path class="st1" d="M111.4,107.3c4.7-3.2,10.3-4.2,15.8-5.3c0,1.9,0.1,3.8,0.1,5.7c-0.6,0-2,0.1-2.6,0.1
	c-7.1,1.8-14.6,4.9-18.5,11.5c-4.1,6.4-4,14.6-1.3,21.5c1.4,1.4,2.8,2.9,4.4,4.1c4.4,1.7,9.2,2,13.8,0.9c0.6-0.4,1.8-1.3,2.4-1.7
	c-2.4,3.2-5.3,6.7-9.5,7.4c-5.3,0.8-11.3-1.4-14.2-6.1c-2.5-3.6-3.9-7.9-3.6-12.4c-1.4-6.2,1.5-12.1,4.2-17.5
	C105.6,113,107.9,109.5,111.4,107.3z"/>
<path class="st1" d="M356.2,108.1c6.3-3.6,13.7-4.1,20.8-4.4c7.7,1.1,15.8,3.3,21.2,9.2c3.6,2.4,4.9,6.6,6.8,10.3
	c1.6,3.4,1.1,7.3,1.2,10.9c0,5-3.4,9-6.7,12.3c-3.6,2.4-8.5,3.4-12.5,1.3c-2.1-1.7-4-3.7-6.1-5.4c5,2.3,11.4,2.1,15.6-1.7
	c3.6-3.8,4.7-9.6,3-14.5c-2.9-10.8-14.8-17.4-25.5-16.9c-7.2-0.4-14.3,1.1-21,3.8c-2.4,1.9-4.9,3.6-7.7,4.9
	C348.3,114,351.5,109.9,356.2,108.1z"/>
<path class="st0" d="M252.4,117c1.2-3.5,2.7-6.8,4.1-10.2c5.5,17.3,11,34.5,16.7,51.7c1.8,7.4,4.4,14.6,6.4,22
	c2.1,7,5.8,13.9,4.6,21.4c5.5-0.4,11.3-0.9,16.7,0.9c-1,0.9-1.5,3-3.2,2.9c-4.6,0-9.2-0.2-13.8-0.2c-4.3-10-6.6-20.7-10.6-30.8
	c-3.1-10.6-6.8-21.1-10-31.7c-2.6-5.9-3.6-12.4-6.3-18.4c-0.8-0.1-2.4-0.2-3.2-0.2c-2.2,9.5-6.4,18.3-9.4,27.5
	c-1.3,3.6-2.2,7.4-4.5,10.5c-1.9,0.2-3.5-1.6-2.3-3.3C242.7,145.1,247.8,131.1,252.4,117z"/>
<path class="st1" d="M157,107.9c3.8,3.7,7.4,8.1,8.9,13.3c1.1,3.9,3.2,7.7,3,11.9c-0.1,5.4-0.8,10.8-1.8,16
	c-1.3,6.9-5.6,12.8-10.6,17.6c-1.6,1.4-1.6,3.7-1.9,5.7c5.7,2.1,10.3,6.3,14.6,10.5c-1.2-0.1-2.4-0.2-3.6-0.3
	c-6.3-3.5-11.9-8.1-18-11.8c3.3-4.4,6.2-9,9.7-13.2c2.2-5.1,5.4-10,5.8-15.7c0.5-6.2,1.7-12.7-0.5-18.7
	C161.2,117.9,156.3,113.8,157,107.9z"/>
<path class="st1" d="M366.2,114.5c2.4-0.2,4.8-0.6,7.2-0.8c0.6,1.4,0.1,3-0.6,4.3c-1.8,3.4-4.1,6.5-6.6,9.4
	c-4.1,5.3-9.7,9.1-15.2,12.8c-6.4,4.3-14,5.7-21.3,7.6c-5.5,1.1-11.2,0.6-16.7-0.3c-1.2,0.4-2.3,0.8-3.5,1.3
	c0.2,6.2-3.6,11.4-6.4,16.6c-1.6,2.1-3,4.6-5.4,5.8c-0.5-3.9-2.1-7.4-3.3-11.1c1.2-3.2,3.1-6.1,4.5-9.3c1.7-3.9,2.7-8.2,4.5-12.1
	c6.7,1.7,13.8,2.4,20.6,1.2c10-0.5,19.7-3.9,28.1-9.3C357.9,126.2,362.2,120.3,366.2,114.5z"/>
<path class="st1" d="M346.5,123.8c4.9-1.8,8.3-6.1,13.2-7.9c-4.3,9-13.4,14.7-22.5,18.3c-9.5,2.3-19.8,4.6-29.4,1.6
	c-2.7-0.9-5.2-2.5-8.1-2.7c-0.9,7.8-2.9,15.4-7,22.2c-0.5-2.7-2.2-5.5-0.9-8.2c3-6.8,4.9-13.9,6.5-21.1c10.1,3.7,21,5.4,31.7,4
	C335.8,128.6,341.4,126.9,346.5,123.8z"/>
<path class="st1" d="M186.1,128.4c8.1,0.7,15.8-1.7,23.4-4.1c1.3,5.8,2.7,11.6,5.4,16.9c3.9,9.2,9,18.4,17.1,24.7
	c5.1,4,11.8,4.6,17.9,6c5.6,0.9,11.1-1.4,16.6-1.7c0.2,0.7,0.7,2.1,0.9,2.8c-3.9,0.8-7.6,2.8-11.6,3.2c-13.4,0.7-27-5.3-35.5-15.7
	c-6-9.1-12.6-18.5-14.3-29.6c-6.5,1.1-13,3.7-19.6,2.2C186.4,131.6,186.2,130,186.1,128.4z"/>
<path class="st1" d="M186.7,136.8c5.6,0.3,11.2-0.3,16.6-1.7c3.3,9.8,8.6,18.8,14.4,27.3c5.5,6.7,12.6,12.1,20.8,15
	c9.6,3.2,20.6,3.7,29.8-1.1c0.8,3,2.1,5.8,2.5,8.9c-7.9,2.8-16.6,3.1-24.8,1.8c-10-0.4-18.4-6.4-26.6-11.4
	c-3.8-3.6-8.4-6.4-11.2-10.9c-3.1-4.6-7.1-9-8.1-14.6c-0.2-1.8-1-3.4-2.1-4.8c-3.6,1.8-7.6,2.4-11.5,1.4
	C186.5,143.4,186.3,140.1,186.7,136.8z"/>
<path class="st1" d="M252.7,144.2c2.1-0.7,4.3-0.6,6.4-0.3C257.5,146.3,254.8,144.6,252.7,144.2z"/>
<path class="st1" d="M258.2,147.3c1.6-0.5,2.2,0.1,1.7,1.7C258.2,149.4,257.6,148.9,258.2,147.3z"/>
<path class="st1" d="M345.3,150.3c1.3-0.7,2.6-1.1,3.9-1.7c-0.2,8,5.6,14.1,9.3,20.7c-4.7,2.4-9.4,4.7-14,7.3
	c-3.2,2.5-6.4,5-9.2,7.9c-3.9,6.4-8,13-9,20.5c-1,4.7,0.1,9.4,0,14.2c1.4,4.6,2.4,9.4,5.3,13.3c-1.2,0.9-2.5,1.8-3.7,2.6
	c-2.7-5-5.2-10.1-6.2-15.8c-1.2-4.4,0.5-8.7,1.2-13.1c2.1-10.6,7.2-20.7,15.2-28c4.5-3.3,10-5,13.9-8.9
	C348.6,163.5,345.2,157.2,345.3,150.3z"/>
<path class="st1" d="M250,153.6c1.4-0.9,2.6-3,4.5-2.6c-0.9,0.7-1.7,1.4-2.6,2.1c2.3,1.5,2,4.4,2.6,6.7c0.7-0.3,2.2-1.1,2.9-1.4
	c1.1,0.4,2.1,0.9,3.2,1.3c-0.1-1.9-0.4-3.7-0.8-5.6c-1.4,0.2-2.4,1.1-3.4,2.1c-0.4-0.9-0.8-1.8-1.1-2.8c1.4-0.2,2.7-0.4,4.1-0.6
	c0.3-1,0.6-2.1,0.9-3.1c0.3,3.5,1.9,6.6,0.9,10.2c0.7,0,2.1,0,2.8,0c-0.8,0.5-1.6,1-2.4,1.5c-1.1-1.1-4.4-3.2-4.6-0.4
	c1,1.6,2.2,3.1,3.1,4.8c-1.4-0.9-2.7-1.8-4.1-2.7c-0.5-2-2.1-3.3-3.4-4.8c0.2-0.6,0.7-1.8,0.9-2.4
	C253.6,153.7,250.4,155.3,250,153.6z"/>
<path class="st1" d="M331.2,153.1c3.5-0.5,7-0.9,10.5-1.8c0.1,6,2.7,11.3,5.1,16.7c-5.5,1.1-8.7,5.8-12.7,9.2
	c-10.9,10.6-16.8,25.8-16.2,40.9c1,6.7,3.1,13.5,6.8,19.2c-3.3,2.2-6.5,4.5-9.8,6.7c-9.9-12.4-12.1-29.9-7.6-44.8
	c3.8-9.5,7.7-20.1,16.8-25.9c3.1-2.6,7.1-3.5,10.8-4.9c0-1.4-0.1-2.9-1.1-4.1C331.4,161.1,331.2,156.9,331.2,153.1z"/>
<path class="st1" d="M184.3,153.2c1.4-0.5,1.8-0.1,1.3,1.4C184.2,155,183.8,154.6,184.3,153.2z"/>
<path class="st0" d="M188.2,153.4C188.8,153.9,188.8,153.9,188.2,153.4z"/>
<path class="st1" d="M191.1,153.2c0.7,0,2,0.1,2.7,0.1c0.5,1.6,1.3,3.1,2.2,4.6C194.4,156.3,192.8,154.7,191.1,153.2z"/>
<path class="st1" d="M316.4,160c1.2-2.2,1.5-4.9,3.3-6.8c0,0.7,0.1,2.1,0.2,2.8C318.6,157.3,317.5,158.6,316.4,160z"/>
<path class="st1" d="M188.3,155.6c2.4,0.9,4.2,2.6,6.3,4.1c0.4,1,0.8,1.9,1.2,2.9c0.5-0.5,1.5-1.6,2-2.1c-0.8,2.7,1.2,4.3,3.5,4.6
	c-0.4,1.5-0.6,3-1.1,4.5c-1.4,0.1-2.7,0.1-4.1,0.1c0-0.5-0.1-1.4-0.1-1.8c0.6,0,1.9-0.1,2.5-0.1c-0.1-0.5-0.1-1.5-0.2-2
	c-1.2-0.8-2.4-1.5-3.9-1.6c-0.1-1-0.2-1.9-0.4-2.9c-0.9,0.1-2.5,0.4-3.4,0.5c0.4-2.4-0.5-4.2-3.1-4.2c0.1,0.9,0.2,2.6,0.2,3.4
	c1.5,0.4,2.9,1.1,4.2,2.1c-1,0.5-2,1-3,1.4c0.1,1.4,0.5,2.6,1.9,3.2c0.6-1.3,1.3-2.7,2-4c1.9,1.9,2.1,3.5,0.4,5
	c1.2,1.7,1.3,4.3-1.4,4.4c0.5,1.7,0.6,4,3.1,3.2c0.6-1.4,1.4-2.7,2.4-3.8c1-0.2,2.1-0.3,3.1-0.7c0.9,1,1.3,3,3.2,2.1
	c-0.4,0.2-1.1,0.7-1.5,0.9c0.7,1.6,2.2,2.7,3.9,3c0-1.2-0.3-2.3-0.9-3.3c0.5,0.2,1.4,0.6,1.9,0.8c1-0.3,2-0.7,2.9-1.2
	c0.3,0.9,0.5,1.8,0.8,2.6c-0.9-0.5-1.8-0.7-2.8-0.6c-0.3,0.6-0.9,1.9-1.2,2.5c-1.4-0.3-2.8-0.4-4.1-0.9c-1.3-0.2-2.4,0.4-3.5,0.9
	c1-1.2,2-2.5,2.6-3.9c-1-1.1-2.3-2-3.8-1.2c0.1,0.9,0.2,1.8,0.4,2.7c-0.7,0-2.1,0.1-2.8,0.2c0.2,0.8,0.5,2.6,0.7,3.4
	c0.6,0.3,1.8,0.7,2.4,1c0,0.2,0,0.5,0,0.7c-1.5-0.3-3.6-0.4-3.2-2.6c0.1-1.9-2.1-2.3-3.4-3.1c-0.5-2.2-2.2-3.4-4-4.4
	c0.7,0.3,2.1,1,2.9,1.4c-0.1-1-0.3-3-0.5-4.1c-2.5-0.3-5.3-2.2-7.6-0.4c-0.3-1.9-0.5-4-1.8-5.6c0.3-0.2,1-0.6,1.3-0.8
	c0.3,2.2,0.4,4.7,3.1,5.3c0.8-1.5,1.6-3,2.4-4.5c-1.5-1.8-3-3.4-5-4.6c0.7,0,2,0.1,2.7,0.1C185.4,156.8,187,156.3,188.3,155.6z"/>
<path class="st1" d="M251.5,165.8c-2.5-2.6-4.5-6.4-2.2-9.8c0,0.8,0.1,2.6,0.1,3.4l1.6-0.3c-1,0.8-1.4,1.8-0.9,2.9
	c1.1,0.7,2.3,0.9,3.6,0.4l-0.5,1.6l1.8-0.5l-0.1,0.5C253.6,164.7,252.6,165.3,251.5,165.8z"/>
<path class="st1" d="M321.6,156c1,0.8,2,1.7,2.9,2.7c-0.8,0-2.3,0-3.1,0c0,1.1,0,2.3,0,3.4c-1.9,1.4-4,2.2-6.3,1.6
	c0.1,1.3,0.2,2.7,0.3,4c-0.4,1.1-0.4,2.2-0.1,3.3c2.6,2.1,2.7-2.1,2.3-3.8c0.2,0.6,0.7,1.7,0.9,2.3c-0.3,0.7-0.5,1.4-0.8,2.2
	c-0.6,0.3-1.9,0.8-2.5,1c-1-1.1-0.7-2.6-0.7-3.9c-1.3-1.3-2.2-4.4-4.4-2.6c-1.8,2.8,1.4,6,1.8,9c-1.8-0.6-2.9-1.7-2.6-3.7
	c-1.9,0.2-2.6,1.3-1.9,3.3c-1.8-1.5-2.9-1.2-3.3,0.9c-0.7-0.3-2.1-0.9-2.9-1.3c1.4-0.9,2.8-2.1,4.6-1.6l-0.9-1.4
	c0.5,0.1,1.6,0.2,2.1,0.3c-0.3-3.3,2.1-5.7,3.5-8.4c1.2,0.4,2.4,0.9,3.6,1.4c0.2-0.6,0.6-1.7,0.9-2.3c0.7,0,2.2-0.1,3-0.1
	c0.3-1.6,1.7-2.3,3-3.1C321.2,158.4,321.5,156.8,321.6,156z"/>
<path class="st1" d="M313.1,157c0.6,1.4,1.7,2.3,3,2.9c-2.1-0.5-3.8,0.3-5.1,2C311.8,160.3,312.5,158.7,313.1,157z"/>
<path class="st1" d="M323.8,165.2c-1.8-0.3-1.3-3.3,0.3-3.6C325.6,162.1,325,164.7,323.8,165.2z"/>
<path class="st1" d="M202.1,169.5c1.9-2.3,3.1,1.6,4.8,2.4C205.5,170.7,202.9,171.2,202.1,169.5z"/>
<path class="st1" d="M202.4,182.6c-2.1-1.4,0.5-3.4,1.8-1.7C206,182.3,203.8,184.5,202.4,182.6z"/>
<path class="st0" d="M214.4,180c3.3,1.6,6.4,3.7,9.6,5.5c-1.3,4.3-1.5,9.8-4.9,12.9c-13.3,0.4-26.7,0.6-40,0.8
	c-12-0.6-24,0.1-36-0.5c-12.5,0.4-25.1,0.5-37.6-0.1c-0.9,1-0.8,2,0.1,3c1.9,2.2,4.7,3.3,7,5c10.8,8,22,15.4,32.6,23.6
	c4.8,3.1,9.5,6.5,13.9,10.2c-3.5,1.2-6.9,2.5-10.5,3.4c-2.5,0.6-4.5-1.4-6.4-2.7c-22.3-15.6-44.7-31.1-66.7-47.2
	c-2.5-1.7-5.1-3.5-7.1-5.9c4.2-0.5,8.4-0.3,12.7-0.2c37.3-0.3,74.7-0.2,112-0.3c5.4,0.1,10.7-1.1,16.1-0.1c1.1-0.3,2.1-0.6,3.2-0.9
	C213,184.3,213.7,182.1,214.4,180z"/>
<path class="st0" d="M342,186.7c5.6-0.7,11.3-0.4,17-0.5c26.2-0.2,52.4,0.3,78.6-0.2c-6.1,5.1-12.6,9.9-19.3,14.3
	c-30.9,22.9-62.4,45-93.7,67.2c-0.3,2.2,0.7,4.4,1.1,6.5c-4.2-0.8-8.4-1-12.7-1c-1-3-2.3-5.9-2.4-9c12.7-10.7,26.7-19.8,40.1-29.6
	c9.5-6.7,18.8-13.9,28.4-20.5c5.3-3.6,10-8,15.6-11.2c1.4-0.5,1.2-2.1,1.5-3.3c-4.3-0.8-8.6,0-13,0c-16.2,0-32.4,0.1-48.6-0.5
	C336.2,194.4,338.9,190.4,342,186.7z"/>
<path class="st0" d="M222.4,200.5c1.7-4.4,3.1-8.8,4.6-13.2c0.7,0.3,2.1,0.9,2.8,1.2c0,3.6-1.8,6.9-3,10.3c-1,2.2-1.6,5-3.7,6.5
	c-10.4,0.5-20.7,1-31.1,0.7c-21.5,0.6-43.1,0.3-64.6,0.3c0,1.1,0,2.3,0,3.4c13,8.1,25.1,17.6,37.5,26.6c-2.4,2.9-5.3,0-7.6-1.4
	c-15.7-11.1-31.6-22-47.2-33.3c35,0.2,70-0.1,105,0.2C217.4,201.5,220.8,202.9,222.4,200.5z"/>
<path class="st1" d="M434.9,218.3c-2.2-6.9,1.5-16.1,9.3-17.4c3.1-0.8,5.6,1.6,7,4.1c-5,3.2-7,9.6-4.7,15
	c3.6,7.5,9.8,13.3,14.5,20.1c1.8,5.5,5.6,10.3,6.6,16c0.8,3.5,0.6,7.1,1.2,10.6c-1.5,8.6-3.4,17.3-8.2,24.7
	c-3.1,3.8-5.8,8.3-10.2,10.7c-0.6-1.7-1.1-3.4-1.3-5.2c-1.3-2-2.5-4.1-3.7-6.1c6.3-7.6,9.2-17.3,10.7-26.8c-0.7-8-3-17.1-10.5-21.3
	c-3.8-1.9-7-5.3-11.4-5.5c-5.5-0.5-11.8,1.1-14.9,6c-2.5,3.1-3.5,7.1-3.6,11.1c-3.6-3.5-8-7.8-6.9-13.3
	c0.8-10.7,12.7-16.1,22.3-15.3c2.7,1.2,5.6,1.6,8.5,1.5C439.9,223.5,436.1,221.5,434.9,218.3z"/>
<path class="st1" d="M52.8,208.4c1.4-5,7.4-7.6,11.9-5.1c5.4,2,8.4,7.3,9.5,12.7c-0.4,1.6-0.6,3.2-0.8,4.8c-0.8,0.8-1.6,1.6-2.4,2.4
	c1.8,3.9,5.8,1.7,9,1.7c9.4,1.1,17.2,9.7,17.6,19.1c0.1,4.2-2.4,7.9-6.1,9.8c-1-5.2-2.3-10.6-6.6-14.2c-3-2.1-6.4-3.3-9.8-4.8
	c-3.5-0.1-7,0.1-10.4,0.9c-8.8,5.4-15.2,15.3-15.5,25.7c-1.6,6.5,1.6,12.8,3.7,18.8c4.2,7.1,9.9,13.4,16.6,18.1
	c9,4.9,19.4,7.6,29.6,6.5c3.6-1.2,7.3-2.4,10.4-4.7c4.6,0.6,8.8,3,12.4,5.7c-8.6,8.4-21.3,11.5-32.9,9.7c-7.3,0-13.9-3.3-20.6-5.8
	c-10.9-6.9-20.7-16.3-25.7-28.4c-4.9-10.3-3.7-22.5,0.8-32.8c2.9-9.2,11.8-14.4,16.5-22.5C63.6,219.6,61.3,208.9,52.8,208.4z"/>
<path class="st0" d="M332.1,205.5c0.6-1.5,0.5-4.3,2.9-3.8c12.7-0.3,25.3,0.8,38,0.3c5.7,0.3,11.4-0.3,17.1,0.3
	c-9.8,7.6-20,14.5-29.9,21.9c-17.8,12.7-35.4,25.8-53.9,37.7c0.6,3.8,2.6,7.4,2.8,11.3c-1.4,0.6-3.8,1.2-4.3-0.8
	c-1.4-3.6-2.3-7.5-3.4-11.2c4.7-4.3,10.2-7.6,15.2-11.5c9.3-7.5,19.6-13.7,29.1-21c9.4-7.2,19.3-13.8,28.8-20.8
	c-0.4-0.5-1.2-1.6-1.6-2.2C359.3,206.3,345.7,206.2,332.1,205.5z"/>
<path class="st1" d="M146.7,210.9c0.4,0,1.3,0,1.7,0c0,1.5,0.6,2.7,1.7,3.7c-1.6-0.1-3.2,0-4.8,0.1C147,214,146.9,212.4,146.7,210.9
	z"/>
<path class="st1" d="M158,211c0.9-0.1,1.8-0.1,2.8-0.2c-0.2,0.4-0.7,1-1,1.4c-0.5,2.3-2.3,7.8,1.9,6.9c0.2-1.6,0.1-3.2-0.3-4.7
	c0.4,0,1.3,0.1,1.7,0.1c-1.4-3.6,5.1-5.3,4.9-1.1c1.4-0.8,2.8-1.7,4.1-2.7c-0.9,1.1-1.8,2.3-2.3,3.6c-0.5,0.1-1.6,0.4-2.1,0.6
	c-0.3,2.7-0.9,5.4-0.4,8.1c-1.1,1-2.2,1.9-3.5,2.7c0.8-1.2,2.2-2.1,2.5-3.7c-0.9-1.4-2.5-3.2-4.2-1.9c-0.5,1.4-0.4,3.1-1.6,4.2
	c-0.2-1.5,0.1-5.4-2.4-4.3c-1.3,1.7,0.3,3.4,0.7,5.1c-2.2-1.4-2.2-5.1-5.4-4.7c1.2-0.5,3.2,0.2,3.7-1.3c0.3-1.2-0.1-2.3-0.5-3.3
	c0.6-0.4,1.9-1.3,2.5-1.7C158.8,213.3,158.3,211.8,158,211 M164.9,212.4c0.2,2.5-2.3,4.7-1,7.1c2.9,1.9,2.6-1.9,2.8-3.6
	c0.2-0.9,0.7-2.5,0.9-3.4C166.9,212.4,165.6,212.4,164.9,212.4z"/>
<path class="st1" d="M332.6,210.7c0.5,0.1,1.5,0.4,1.9,0.5C335,214,330.4,212.8,332.6,210.7z"/>
<path class="st1" d="M143.7,213.2c-1.4-0.8-1.3-1.6,0.3-2.5C145.4,211.5,145.3,212.3,143.7,213.2z"/>
<path class="st1" d="M152.5,211.4c1.3-0.9,2.2,0.4,3.2,1.1c-0.1,0.5-0.3,1.4-0.4,1.9c-0.9,0-1.7,0-2.6,0.1
	C152.6,213.4,152.5,212.4,152.5,211.4z"/>
<path class="st1" d="M180.1,210.9c1.3,0,2.6,0.1,4,0.1c1.4,6.6,1.6,13.7-1.2,20c-2.8,5-6.8,9.2-11.6,12.1c-12,8.9-27.4,12-42.1,11.7
	c-0.9,0.6-1.8,1.3-2.8,1.9c1.9,5.3-0.6,10.9-2.4,15.8c-1.1-0.3-2.3-0.7-3.4-1c0.3-3.2,0.7-6.4,1.7-9.5c0.2-3.9,0.1-7.9,0-11.8
	c15.9,0.8,32.5-1.4,46.2-9.9c2.7-2.6,5.6-5.1,7.9-8.1C179.4,225.6,180.4,218.2,180.1,210.9z"/>
<path class="st1" d="M187.9,211.6c3.5-0.7,7.1-0.8,10.6,0.2c1.6,3.9,1.8,8.4,0.5,12.4c-0.8,5.2-1.9,10.5-4.9,14.9
	c-2,2.8-3.1,6.3-5.8,8.6c-4.6,4.7-10,8.7-16,11.4c-5.7,1.8-11,5-17,5.8c-4.7,1.3-9.7,0.6-14.5,2c-0.8,4-0.3,8.6-2.6,12.1
	c-3.6-1.6-6.9-3.6-10.7-4.8c1.9-5.1,2.9-10.3,3.3-15.8c5.8-1.1,11.8-0.5,17.4-2.3c12.7-2.1,24.6-8.2,33.8-17.1
	C188.2,231.4,189.9,221,187.9,211.6z"/>
<path class="st1" d="M336.6,210.9c0,0.5,0.1,1.4,0.2,1.9c2.6-0.5,7.8,3,7.8-1.5c0.3,2.7,1.1,5.5-0.2,8.1c-1.1-1.5-1.3-3.2-1.3-5
	c-0.8,0.2-2.2,0.6-3,0.7c-0.6,1.5,0.4,2.9,0.8,4.3c-1.6,0.1-1.3-1.9-1.9-2.9c0-0.6,0.1-1.8,0.2-2.4c-3.9-2.6-1.1,4.1-4.2,4.2
	c0.2-1.7-0.2-3.3-1.8-4.2c0.8,0.1,2.5,0.2,3.4,0.3C336.5,213.6,336.5,211.8,336.6,210.9z"/>
<path class="st0" d="M341.3,211.3C341.8,211.9,341.8,211.9,341.3,211.3z"/>
<path class="st1" d="M352.8,210.7c0.4,1.9,0.5,3.8,0.1,5.7c-0.3-0.6-0.8-1.8-1.1-2.4c-2-1.3-2.9,2.4-5,2.3c1.1-1,2.4-1.8,3.4-3
	C351.3,212.7,352.2,211.8,352.8,210.7z"/>
<path class="st2" d="M164.9,212.4c0.7,0,2,0,2.7,0c-0.2,0.9-0.7,2.5-0.9,3.4c-0.1,1.8,0.1,5.5-2.8,3.6
	C162.6,217.1,165.1,214.9,164.9,212.4z"/>
<path class="st1" d="M150.5,216.5c1.5,0.1,3.2-0.2,4.5,0.9c-1.6,0.5-3.2,1-4.8,1.5C150.3,218.3,150.4,217.1,150.5,216.5z"/>
<path class="st1" d="M170.2,216.3c1.4,0.1,2.9,0,4.1,0.9c-1,0.1-3,0.3-4,0.3c-0.2,1.6,0.2,3.1,1.3,4.3c-0.6-0.1-1.7-0.4-2.3-0.5
	C169.6,219.7,169.9,218,170.2,216.3z"/>
<path class="st1" d="M332.2,218.1c1.6-0.5,2.2,0,1.7,1.6C332.2,220.3,331.6,219.8,332.2,218.1z"/>
<path class="st1" d="M334.7,220.8c1.5-0.4,3-0.5,4.5-0.3c-1.2,0.5-2.4,0.9-3.7,1.3c0.5,1.8,0.9,3.6,0.5,5.4
	C334.6,225.3,334.4,223.1,334.7,220.8z"/>
<path class="st1" d="M341.5,221.6c0.3,0.2,0.9,0.6,1.2,0.8c0.8,0,2.4,0,3.2,0c-0.6,0.5-1.2,1-1.9,1.5c-1.1-0.5-2.2-0.9-3.3-1.3
	C341,222.3,341.4,221.8,341.5,221.6z"/>
<path class="st1" d="M68.6,238.8c7.9-1.7,17,3.4,18.5,11.6c-0.7-0.9-1.4-1.8-2-2.7c-4.8-3.2-11.4-4-16.6-1c-1.9,1.1-3.9,2.1-5.6,3.5
	c-2.9,4.4-5.6,9.5-4.9,14.9c0.9,11.7,7.8,23.2,18.5,28.4c8.9,4.1,19,4.6,28.6,5.9c-7.3,4.2-16.3,3-24,0.4c-3.4-1.3-6.9-2.3-9.7-4.6
	c-4.6-3.6-9.7-7-12.7-12.2c-1-1.7-2.7-2.9-3.1-4.9c-1.4-5.4-4.3-10.5-4-16.2c0.5-4.6,2-9.1,4-13.3C59,244.6,62.9,239.6,68.6,238.8z"
	/>
<path class="st1" d="M426.5,241.9c7.8-3.1,15.8,2.2,21.3,7.5c4,5.7,6,13.4,3.6,20.1c-1.8,6.5-3.4,13.4-8.2,18.4
	c-0.8-1.8-3-3.6-1.6-5.7c2.9-5,4.5-10.6,5.6-16.1c0.4-5.4-2.3-10.5-5.3-14.9c-2.9-3.3-7.4-5.6-11.9-5c-4.2,0.2-7.3,3.2-10,6
	C419.7,247.8,423.1,244.3,426.5,241.9z"/>
<path class="st1" d="M362,248.4c7.3,0.3,14.4-1.8,21.5-3.1c0.1,6.9-0.2,13.8,1.7,20.5c0.7,5.7,3.4,10.9,5.9,16
	c3.3,4.1,6.5,8.4,11,11.2c4.3,2.9,9,5.5,12.1,9.7c-7.4-1.1-13.8-5.1-19.7-9.4c-6.9-8.2-11.8-18.3-12.8-29.1
	c-0.8-4.1,0.4-8.6-1.4-12.5c-1.2-1-3.1-0.4-4.5-0.2c-6.9,1.6-14.1,1.7-20.9,0.2C357.1,250.4,359.1,247.9,362,248.4z"/>
<path class="st0" d="M187.7,255.3c3.3-2.4,6.1,0.7,8.7,2.5c2.3,1.7,4.8,3.2,7,4.9c1,0.7,2.2,2,1.5,3.4c-9,27.4-18.6,54.6-27.8,81.9
	c4.3,0.4,7.5-2.9,10.8-5.1c8.1-6.2,16.7-11.6,24.8-17.7c0.6,1.1,1.2,2.1,1.8,3.2c-6,5.9-13.6,9.9-20.1,15.1
	c-9.1,5.7-17.3,12.9-26.4,18.6c10.8-32.4,21-65,32.8-97C196.1,262.1,191.3,259.3,187.7,255.3z"/>
<path class="st1" d="M348.5,256.4c1.1-0.7,2-2,3.4-2.1c8.2,3.6,17.3,0.8,25.8,1.1c-0.4,4.9,1.1,9.7,1.7,14.6
	c2.1,12.1,8.6,23.9,19.2,30.6c5.3,4.1,12.1,5.4,18.6,6.3c1.2,2.5,2.4,5.1,3.6,7.6c-9.4,3.3-19.1-1.2-27.6-5
	c-4.9-3.5-9.2-7.8-12.9-12.6c-3.8-5.6-6.6-11.8-9.9-17.7c-1-5.1-1.8-10.3-2.9-15.5c-1.8-1-3.7,0.2-5.5,0.6c-7.2,2.6-15,0.4-21.9-1.9
	C342.9,260.3,345.7,258.3,348.5,256.4z"/>
<path class="st0" d="M175.1,264.3c3.5-1.9,6.8-4,10-6.3c3.9,2.7,7.7,5.5,11.7,8c-1.5,6.3-3.9,12.4-6.1,18.5c-8,24-15.8,48.2-24,72.1
	c-1.2,3.8-3.4,7.3-3.4,11.3c3.4-0.6,5.8-3.2,8.5-5c9-6.3,17.5-13.4,26.7-19.5c5.7-3.8,10.7-8.8,16.9-11.5c0.7,4.5,2,9.2,0.8,13.7
	c-0.5,1.7-2.5,2.3-3.8,3.3c-9.8,7.4-20.3,14-30,21.6c-10.4,7.2-20.7,14.7-31.2,21.8c-3.8,2.5-7.1,5.8-11.3,7.9
	c8.4-23.9,16-48.1,23.8-72.2c6.2-16.8,11-34,17.3-50.8c0.9-2.5,2.8-5.6,0.8-8.1C179.8,267.4,177.3,266.1,175.1,264.3z"/>
<path class="st1" d="M168.6,267.2c0.5,0,1.5,0.1,2.1,0.1c-1,0.9-1.7,1.9-2.3,3.1c-0.6,0.1-1.8,0.2-2.4,0.3c0.5,3.6,1.6,7.2,1,10.8
	c-2.3,0.2-3.6,2.3-5.7,2.9c-1.5,0.6-3.1-0.4-4.5-0.7c-0.5,1.9-0.9,3.9-2.6,5.1c1-1.6,1.3-3.4,1.1-5.2c2.2-1.5,4.5,0.7,6.5-0.5
	c2-2.3-1.6-3.3-2.8-4.7c-3.3,1-6.5,3.2-7.2,6.7c-0.1,1.8-1.6,2.3-3.1,2.5c2.5-1.9,3.1-5.3,3-8.1c-2.7-1.2-4.9,1.9-3.3,4.1
	c-0.7,0.8-1.4,1.6-2.1,2.3c0.5-2.3,0.9-4.6,1.6-6.8c1-1.1,2.8-0.3,4.1-0.6c0.1-0.7,0.4-2,0.5-2.6c-0.7-0.1-2.1-0.3-2.8-0.4
	c0.7-0.1,2.2-0.4,2.9-0.6c0.3-1.3,0-2.9-1.6-3.1c0.8-0.4,1.5-0.8,2.3-1.2c-0.8,3.3,3.6,4.5,5.5,2.2c-0.6-0.6-1.8-1.7-2.4-2.2
	c0.4-0.2,1.2-0.5,1.6-0.7c1.3,1,2.7,1.9,4.4,2.1c0-0.9,0.2-2.8,0.2-3.8c0.3,1.2,0.6,2.4,1,3.6C165.7,270.7,168.2,269.9,168.6,267.2
	 M154.9,274.7c-2.9-0.4-3.6,5.1-0.7,5.2c1.9,0.4,2.6-2.1,3.8-3.2c1.7,1,3.2,0,4.3-1.4c0.2,2.1,0,6.5,3.1,6.2c0.8-2.9,0.3-6,0.4-9
	C161.8,271.9,158.7,274.7,154.9,274.7z"/>
<path class="st1" d="M340.5,269.6c0.6,0,1.7-0.1,2.2-0.1c-0.5,1.2-0.6,2.8-1.6,3.8c-1.3-0.2-2.5-0.6-3.8-0.8
	c-0.8-0.6-1.6-1.1-2.4-1.7c0.6,0,1.7,0,2.3,0c0.8,0.8,1.7,1.4,2.6,2C341.9,272.6,341.3,270.6,340.5,269.6z"/>
<path class="st1" d="M147.9,274.7c-0.6-1.3-2.7-2.7-0.8-4c1.9,0.6,1.3,2.6,1.5,4.1C148.5,274.8,148.1,274.8,147.9,274.7z"/>
<path class="st1" d="M346.5,270.9c0.4,0.2,1.3,0.5,1.7,0.7c0,0.8,0.1,2.3,0.1,3c1.5-0.1,3-0.4,4.4-1.1c1.4,1.7,3.1,1.9,5.1,0.6
	c-1.2-0.9-2.4-1.7-3.6-2.6c1.1-0.1,2.2-0.1,3.3,0c0.5,1,1,2,1.5,3c-1.5,0.4-2.6,1.3-2.8,2.9c-0.5-0.1-1.6-0.3-2.1-0.4
	c0.3-2.7-3.7-2.7-3.5,0c2.2,0.3,1.5,3.2,3.5,3.7c0.6,0,1.8-0.1,2.3-0.1c0.1-0.6,0.2-1.8,0.2-2.4l1.5,0.1c0,0.6-0.1,1.9-0.2,2.6
	c-2.7,0.6-5.4,0.9-8.1,0.7c0.2-1.3,0.8-2.4,1.8-3.2c-2-1.5-5.8-4.4-7.5-1.1c-1.2,0.2-2.4,0.4-3.5,0.7c-2.9-1-5.5-2.8-8.8-2.4
	c2,0,4-0.2,6-0.4c0.7,0.6,1.4,1.2,2.1,1.8c2.1,0.3,4-1.1,5-2.9C345.6,273.1,346.1,272,346.5,270.9z"/>
<path class="st2" d="M154.9,274.7c3.8,0,6.9-2.8,10.8-2.2c-0.1,3,0.4,6.1-0.4,9c-3,0.3-2.8-4.1-3.1-6.2c-1,1.4-2.5,2.5-4.3,1.4
	c-1.1,1.1-1.9,3.5-3.8,3.2C151.3,279.9,152,274.4,154.9,274.7z"/>
<path class="st1" d="M395,273.2c4.2-1.7,8.7-0.5,13,0c10.9,1,20.6,7.4,27.9,15.3c5.4,5.7,8.3,13.3,10.4,20.7
	c0.6,4.3,1.9,8.7,0.7,12.9c-0.8,3.8-0.8,7.6-1.7,11.4c-3.1,9.2-7,18.8-14.5,25.4c-3.5,2.5-6.8,5.8-11,7.1c-3.4,1.7-7.1,2.2-10.7,3.1
	c-5.3,1.6-11.1,1.9-15.6,5.4c-2.6,2.6-3.2,6.3-4.2,9.6c-0.1,2.4,1.4,4.7,2,7c-3.9,2-8.9,1.9-11.9-1.6c-3.9-3.4-3.2-8.8-3-13.4
	c0.8-3,2.9-5.6,4.5-8.2c2.5-1.4,6.6-1.9,6.2-5.6c-2.3-0.8-4.8-1.2-6.9-2.4c-4.3-3.6-7.7-9.1-6.8-15c0-7.8,8.3-13.7,15.7-12.7
	c-3.5,4.2-2.7,10.4-0.4,15c1.8,4.3,6,6.9,9.8,9.2c7.4,2.7,15.8,1.9,22.7-2c5.2-2,7.9-7.1,10.8-11.5c4.9-8,4.8-17.9,4.4-27
	c-1.4-4.7-2-9.9-5-13.9c-2.6-3.5-5.1-7.1-8.4-10.1c-6.6-4.6-14.3-7.2-22.2-8.7C397.9,280.7,396.5,276.9,395,273.2z"/>
<path class="st1" d="M75.2,286.1c8.3-8.2,20.3-11.7,31.8-10.8c10.2,0.1,20.1,3.8,28.6,9.3c3.2,3.5,7.4,5.9,10.8,9.1
	c1.9,2.4,2.6,5.8,5.7,7.2c3.5-2.2,5.4-6.2,9.2-8c4-2.1,8.1-4.1,12-6.5c-1.5,3.1-1.9,6.8-3.9,9.6c-3.2,2.5-7.3,3.4-10.5,5.8
	c-3,2.3-6,4.6-9,7c-2.9-4.6-6.5-9-11.2-11.7c-3.8-2.4-7.2-5.6-11.5-7.1c-5.1-2.2-10.6-3.3-16.1-4.1c-8.5,0.3-17.5,0.7-24.8,5.4
	C82.3,290.4,78.4,288.8,75.2,286.1z"/>
<path class="st1" d="M358.7,277.1c1.5-1.5,3.6-1.7,5.6-1.3C362.6,276.8,360.7,277.5,358.7,277.1z"/>
<path class="st1" d="M346.4,280.6c-1.8,0.9-1.8-2.4-0.4-2.7C348.1,277.2,348.1,280.2,346.4,280.6z"/>
<path class="st1" d="M169.6,279.8c0.3-0.2,0.8-0.7,1.1-1C173.2,279.3,170,282.2,169.6,279.8z"/>
<path class="st1" d="M291.3,284.2c9-5.1,19.6-6.5,29.7-5.3c12.5,2.8,25.3,6.5,35,15.4c1-0.3,2-0.6,3.1-0.9c1.6-3.2,4-6.1,6.8-8.5
	c2.1,2.8,3.4,6.2,5,9.4c-3.2,3.9-6.8,7.6-9.9,11.6c-6.9-10.8-20.3-14-32-16.4c-6.3-1.8-12.8-0.3-19.2,0.2
	c-9.8,1.2-18.3,7.1-24.7,14.4c-1.6,1.8-2.4,4.1-3.3,6.4c-2.7-2.3-5.5-4.4-8.4-6.5C275.9,295,283.7,289.1,291.3,284.2z"/>
<path class="st1" d="M203.6,285.5c6.2,0.4,11.8,3.7,16.9,7c3.8,2.9,7.7,5.7,10.9,9.3c5.8,8.3,10.2,18,10.2,28.3c1,6,0.7,12,0.5,18.1
	c-0.2,4.4-2.4,8.4-2.8,12.8c3.3,0.9,6.3,2.5,9.2,4.2c-2.8,3.7-7.1,6-9.8,9.9c-3.5-2.6-7.5-4.4-11.5-6.4c2.2-7.4,4.5-14.9,5.3-22.6
	c0.8-5.7-0.5-11.3-1.1-16.9c-1.8-6.4-2.9-13.7-8.3-18.3c-2.8-3.5-5.8-6.9-9.5-9.5c-3.8-3.3-8.8-4.2-13.3-6
	C201.7,292.2,202.6,288.9,203.6,285.5z"/>
<path class="st1" d="M404.1,287.2c5.6,1.6,11.1,3.8,16,6.9c3.1,2.9,5.6,6.3,8.1,9.6c2.8,3.5,3.3,8.1,4.5,12.3c1,2.7-0.1,5.5,0.8,8.2
	c-1,5.7-1.3,11.9-4.6,16.9c-1.5,2.7-2.5,6-5.6,7.3c-4.4,3.5-9.7,5.5-15.3,6c-5.6,0.2-10.7-2.7-14.5-6.6c-1.9-2.9-3.6-6.6-2.3-10.1
	c2.7,4.8,6.9,9.4,12.7,10.1c3.1,0.5,6.3-0.5,9.1-1.7c2.2-1,4.9-1.6,6.1-3.9c3-3.1,5.1-6.9,7-10.7c1.5-4.7,1.1-9.7,1.1-14.5
	c-1.5-4-2.6-8.1-4.3-12c-2.4-4.1-5.3-8.1-9.3-10.7C410.4,292.1,407.3,289.6,404.1,287.2z"/>
<path class="st1" d="M92.7,292.6c9.5-5.3,21.2-3.8,31.2-0.5c7.4,2.4,13.5,7.7,18.5,13.5c2.2,3.3,4.6,6.5,8,8.6
	c1.1-1.7,2.4-3.4,4.1-4.6c4.6-3.3,8.6-7.5,14-9.3c-0.9,2.2-1.5,4.6-2.4,6.8c-2.2,2.5-4.9,4.6-7.9,6.1c-4.3,2.2-7.4,6-10.4,9.7
	c-7-9.2-14.2-18.7-24.7-24.2C114,293.2,103,292.8,92.7,292.6z"/>
<path class="st1" d="M306.9,293.4c14.4-3.3,30.1-0.8,42.8,6.9c3.8,2.1,6.1,6,9.5,8.6c1,0.6,2,1.3,3,1.9c3.2-4.9,6.7-9.5,11-13.5
	c0.9,1.6,2.4,2.9,2.8,4.7c-4.8,5.1-10.2,9.6-14.3,15.3c-1.5-1.9-2.9-3.8-4.6-5.4c-10.7-9.3-24.6-15.8-39-15.1
	c-4.2-0.1-8.5,0.8-12.2,2.8c-7.5,3.2-14.6,8.3-18.1,15.9c-1.2-0.9-2.4-1.8-3.6-2.7C288.1,303.4,297.2,296.4,306.9,293.4z"/>
<path class="st0" d="M248.4,298.4c1.6-1,3.7-3,5.5-1.3c19.9,14.8,40.7,28.5,60.4,43.6c4,2.6,7.3,6.2,11.8,8c1.3-1.5,0.9-3.8,1.3-5.7
	c-3-7.9-5.3-16.1-8.1-24.1c-1.4-4.7-3.4-9.3-4-14.3c1-0.1,2.9-0.2,3.9-0.3c3.9,9.1,6,18.8,9.2,28c3.5,10,6.2,20.3,9.5,30.3
	c-16.3-11.7-32.8-23-48.9-34.8c-3.3-2.4-7-4.3-10.2-6.8c-7.4-5.9-15.5-11-23-16.7c-0.8-1.1-1.7-2.3-2.5-3.4
	c-3.5,3.1-7.3,5.7-11.2,8.1c-0.6-1.5-1.8-3-1.6-4.7C242.9,302.3,245.7,300.4,248.4,298.4z"/>
<path class="st1" d="M196.8,305.2c1-1.4,0.9-4.4,3-4.5c5.3,1.1,10.4,3.4,14.5,6.9c6.8,7,11.6,16,13.1,25.6c0,4.4,0.8,8.6,1.2,13
	c-1.6,6.5-1.5,13.4-4.5,19.5c-0.8,1.4-1.4,3-1,4.6c3.9,3,8.8,4.5,12.9,7.3c-1.1,1.4-2.2,2.9-3.4,4.2c-5.1-3.8-10.7-6.7-16.5-9
	c3-8.6,5.8-17.3,6.7-26.4c-0.4-9.5-1.5-19.5-6.4-27.8C211.9,311.7,204.7,306.8,196.8,305.2z"/>
<path class="st0" d="M322.4,303.8c4.3,1.3,9.4,0.1,13.2,2.8c2.8,6.8,4.5,14,6.9,20.9c3.4,9.3,5.8,18.9,9,28.3
	c3.3,9.1,5.6,18.6,8.9,27.7c1.3,4.5,3,8.9,3.6,13.6c-8.2-5.1-15.7-11.1-23.8-16.3c-17.5-11.7-34.4-24.3-51.7-36.4
	c-11.3-8.8-23.5-16.2-34.5-25.3c-2.8,1.3-5,3.6-7.3,5.7c-0.9-4.1-2-8.2-3.4-12.1c2.8-2.2,5.6-4.5,8.8-6.3c2.9-0.2,5,2.8,7.5,4
	c12.8,9.3,25.8,18.2,38.6,27.4c13.6,10,27.5,19.4,40.8,29.8c0.7-0.1,2.1-0.4,2.8-0.5c-0.2-1.7-0.3-3.3-0.9-4.9
	c-5.1-14.9-10-30-14.7-45.1C324.9,312.7,323,308.4,322.4,303.8z"/>
<path class="st1" d="M303.9,311.6c0.4-1.3,0.8-2.6,1.5-3.8c0,0.9,0.1,2.8,0.2,3.7l1.4,0.5l1.3-0.7c0.2-0.6,0.6-1.8,0.8-2.5
	c0.3,1.1,1.1,3.2-0.5,3.7C307,312.4,305.5,311.9,303.9,311.6z"/>
<path class="st1" d="M55.9,322.2c0.9-3.9,0.6-8,2.2-11.8c3.2,2.7,7.2,4.2,10.6,6.6c-0.8,3.4-1.4,6.9-0.4,10.4
	c0.2,7.6,2,15.9,7.6,21.4c4.1,5,10.7,6.6,16.5,8.8c5.6,1.2,11.2-0.6,16.4-2.6c5.4-2.4,8.6-7.4,11.6-12.2c1.1-3.5,1.3-7.4-0.4-10.8
	c2.3,1.8,5.1,2.8,7.2,4.9c2.4,3.6,5.2,7.7,4,12.2c-0.5,5.2-4.1,9.1-7.1,13.1c-1.5,1.9-3.6,3-6,2.8c-0.9,0.8-1.7,1.6-2.6,2.4
	c2.5,2,5.5,3.3,8,5.4c2.6,3,4.5,6.6,5.9,10.3c0.7,6.5-6.3,14-12.9,10.4c0.9-4.3,1.9-9.8-1.7-13.1c-2.9-3.6-7.7-4.6-11.9-5.9
	c-9.7-2.3-20.1-3.7-28.2-9.9c-6.6-5.3-13.1-12-15.2-20.5c-2.3-6-4.1-12.7-3-19C56.3,324.2,56,322.9,55.9,322.2z"/>
<path class="st1" d="M297.9,313.8c0.5-1.6,2.2-1.9,3.5-2.7c0.2,1.9,0.6,4.1,2.5,5c1.9,0.4,3.8-0.5,5.8-0.5c-2.3,2-1.5,4.6,0.1,6.7
	c1.6-0.7,3.4-1.1,5.1-1.2c0.2,1.3,0.5,2.6,0.6,3.9c-1.2-0.6-1.6-1.6-1.3-3.2c-3.2-0.6-5.2,2.4-7.4,4.1c-0.2-0.5-0.6-1.6-0.8-2.1
	l-1.1-0.2l-1.8,0.9c0.9,1,1.9,2.4,3.5,2.2c0,0.3-0.1,0.9-0.1,1.2c-1.4-0.5-2.8-1.1-4.2-1.7c0.5-1.8,1.1-3.7,1.3-5.6
	c1.5,1,2.7,2.8,4.7,2.6c0.3-1.3,0-2.5-1-3.6c0.5-2.7-1.4-3-3.5-2.3c-0.8-0.6-1.5-1.1-2.3-1.6c0.2-1.5-0.4-2.5-1.7-3
	c-1.9,0.6-1,2.9-0.3,4.2c0.4,1.7,0.8,3.3,1.3,5c-0.8,0.6-1.6,1.1-2.5,1.7c0.3-0.3,0.9-1,1.1-1.3c-0.6-2.4-1.1-4.9-1.4-7.3
	c-2.5,1.5-1.8,4.5-3.1,6.7C294.6,318.8,296.7,316.4,297.9,313.8z"/>
<path class="st1" d="M195,314.6c1.3-0.4,2.5-0.9,3.8-1.3c0.9,2.1,1.4,4.3,2.3,6.4c1.4,0,2.7-0.8,4.1-1.2c0,1.2,0.1,2.5,0.1,3.7
	c-1.8,1.4-2.8,3.7-4.8,4.9c0.7-2.1,1.6-4.1,2.5-6.1c-2-1.5-4.4-2.2-6.9-2.2c-0.5,0.9-1.1,1.7-1.6,2.6c-0.1-0.7-0.5-2.2-0.6-2.9
	c2,0.1,4-0.1,6.1-0.3c-0.3-0.8-0.9-2.3-1.1-3C197.6,314.8,196.4,314.6,195,314.6z"/>
<path class="st1" d="M312.7,314.9c1.3,1.7-0.8,3.3-1.3,4.8c-0.5-0.5-1-1-1.5-1.5C310.9,317.1,311.8,316,312.7,314.9z"/>
<path class="st1" d="M72.4,318.1c2.1,0.4,4.2,0.9,6.2,1.6c-3.8,12.4,4.8,28.3,18.5,28.8c6.3,1.1,12-2.9,15.6-7.7
	c2.1-1.7,1.9-5,3.9-6.6c0.5,0.9,0.9,1.8,1.3,2.8c-0.4,1.6-0.6,3.1-0.7,4.7c-2.1,3.3-4.5,6.5-7.5,9.1c-3.4,2.3-7.7,2.8-11.7,3.6
	c-3.7,0.7-7.1-1.4-10.4-2.7c-4-1.7-8.4-3.7-10.6-7.7c-0.4-0.2-1.2-0.7-1.6-0.9c-2.1-4.9-4.2-9.8-4.5-15.2c0.2-1.6,0.5-3.3-0.1-4.9
	C71.3,321.4,71.9,319.7,72.4,318.1z"/>
<path class="st1" d="M192.6,321c0.4,1.3,0.8,2.6,1.2,3.8c-2.1,3-3.3,6.4-4.3,9.9c-0.2-1.7-0.7-3.3-1.2-4.8c2.6,0.2,2.7-3,2.1-4.7
	C192.5,324.7,192.9,323,192.6,321z"/>
<path class="st1" d="M196.1,323.6c1.4-0.4,2.8-0.8,4.3-1.2c-1.3,1.6-2.5,3.2-3.8,4.8C196.4,325.9,196.2,324.8,196.1,323.6z"/>
<path class="st1" d="M254,326.4c0.8,1.5,1.7,3,2.9,4.3c-1.2,0-2.4,0.1-3.5,0.1C253.5,329.4,253.8,327.9,254,326.4z"/>
<path class="st1" d="M193.8,327.8c1,0.7,1.4,1.8,1.9,2.8c-0.5,0.1-1.6,0.3-2.1,0.4C193.6,330.2,193.7,328.6,193.8,327.8z"/>
<path class="st1" d="M259.2,329.3c0.1,0.7,0.2,1.3,0.3,2c-0.8,1.1-1.5,2.1-2.2,3.3c-3.1,0.3-6.8-1.2-9.4,1.2c1.3-2,4.2-4.8,6.4-2.3
	c1.6,1.3,3.7,0,3.1-2.1C257.8,330.8,258.7,329.8,259.2,329.3z"/>
<path class="st1" d="M255.8,341.7c1.6-2,1.5-4.7,3-6.7c-0.8,3.4-0.8,7-2.4,10.2c0.9,1.4,1.8,2.8,2.7,4.1c0.5-2.4,0.9-5,2.3-7.1
	c0.5,2.8-1,5.3-1.6,7.9c1.2,0.7,2.4,1.4,3.6,2c-1.3-0.2-2.5-0.3-3.8-0.4c-1-1.3-2.4-1.8-4-1.8c1.9-1.4,1.2-3.3-0.1-4.9
	c0.3-0.4,0.9-1.3,1.2-1.8C256.5,342.8,256,342,255.8,341.7z"/>
<path class="st1" d="M266.4,340.9c0.3-1.8,0.6-3.7,1-5.5c2.5,2.2,5.4,4,8,6.1c2.3,4,2.5,8.7,4.2,12.9c1.7,3.6,3.2,7.2,4.9,10.8
	c-8.4,1.1-15.7,5.5-23,9.2c-4.3,2.7-8.1,5.9-12,9.2c-3.9,4.5-7.1,9.7-9.1,15.3c-1.1,6.3-2.2,13.5,1.4,19.2c-2.4,2.1-4.6,4.4-6.8,6.7
	c-5-8.1-5.5-18.3-2.7-27.2c4.9-14.9,16-27.8,30.5-33.9c2.9-1.2,5.9-2.2,8.1-4.5C269.1,353.2,267.2,347.2,266.4,340.9z"/>
<path class="st1" d="M248,337.1c0.4,1.1,0.8,2.3,1.2,3.4c1.7-0.7,3.1-1.7,4.4-3c0.3,0.7,0.7,1.4,1.1,2.1c-2.4,0.5-4.7,1.2-6.9,2
	C247.8,340.2,247.9,338.7,248,337.1z"/>
<path class="st1" d="M251,343.3c0.8-0.4,1.7-0.4,2.6-0.4c-0.5,1.7-0.9,3.5-1.3,5.3l1.4,0.2c-1,1-1.5,2.3-1.8,3.7
	c1.3-0.1,2.6-0.2,3.9-0.3c-2,1-3.5,2.8-5.2,4.3c-0.4,0.8-0.9,1.6-1.3,2.5c0-0.6-0.1-1.8-0.1-2.4c-1.1-0.4-2.1-0.8-3.2-1.2
	c1.8-0.1,3.7,0.2,5.2-0.9c0.5-1.9-0.5-3.7-0.8-5.5l1.6,0.4C251.9,347,253.2,344.4,251,343.3z"/>
<path class="st1" d="M280.2,344.8c2.5,1.9,5.4,3.4,7.4,5.9c2.7,5.9,3.3,12.7,7,18.1c-4.5,1.4-8.8,3.2-13.2,4.8
	c-4.5,1.5-8.1,4.7-12.4,6.5c-9.4,4.9-15.8,13.9-19.5,23.6c-1.6,3.8-3.9,7.3-5.5,11.2c-2.3-4.3-1.7-9.2-0.9-13.8
	c2.7-10.5,11.3-18.1,20.2-23.8c6.4-3.3,12.8-7.5,20.2-7.9c2-0.7,4.6-1.2,5.4-3.3c0.2-2.6-2.1-4.3-3.3-6.3
	C283.4,355,281.1,350.1,280.2,344.8z"/>
<path class="st1" d="M253,358.3c1.1-0.8,2.2-1.5,3.3-2.2c0.2,0.5,0.6,1.4,0.8,1.9c2.5,1.3,3.6-2.6,6.2-2c-0.9,0.5-1.9,1-3,1.4
	c-0.8,0.7-1.7,1.4-2.5,2.1c-0.4-0.2-1.3-0.7-1.8-0.9C255.3,358.6,253.8,358.4,253,358.3z"/>
<path class="st1" d="M178.2,399.2c3-6.4,9.9-9.8,16.7-9.9c7-1.8,15.2,4,14.6,11.7c-4.8-1.9-10.4-3.5-15.2-0.8
	c-2.8,2.1-6.1,3.8-7.9,7c-0.4,2.7-1,5.4-1.8,7.9c-0.3,6.6,2,13.3,6.2,18.4c3.6,3.5,7.4,6.8,12.1,8.7c8.8,5,19.7,4.6,29.1,1.6
	c9.7-4.4,18.6-11.1,24.3-20.3c4.6-7.6,6.3-17.5,2.4-25.8c2.2-3.4,4.9-6.6,8.1-9.2c4.1,6.5,4.4,14.3,5.1,21.7
	c-3.1,15.8-13,30.6-27.2,38.4c-8.8,3.6-18,7.7-27.7,7.3c-7-1.5-14.3-2.3-20.6-6c-5.4-3.2-9-8.5-13.2-13c-3.5-4-6.4-8.5-8.8-13.2
	c-2.2-4-5.5-8-10.3-8.6c-4.3-1.2-8.2,1.7-11.1,4.5c-3.2-2.4-3.3-6.9-1.6-10.3c2.1-3.1,6.1-3.9,8.7-6.4c2.7,0.1,5.6-0.6,8.1,0.6
	c2.4,1.7,4.7,3.7,7.1,5.5C176.8,405.9,176.4,402.2,178.2,399.2z"/>
<path class="st1" d="M295,404c2-5.7,6.7-11.2,13.2-11.4c6.7-0.5,12.2,4,16.4,8.7c0.9,2.1,1.6,4.4,2.1,6.7c1.6-0.2,3.2-0.7,4.3-2
	c4-4.1,10.8-6.2,16.1-3c4,1.2,7.4,4.7,7.4,9c-0.8,2.1-2.2,4-3.4,6c-2.7-3.7-7.8-3.6-11.8-2.8c-2.8,0.5-4.3,2.9-6.2,4.8
	c-3.4,3.2-3.7,8.1-5.6,12.1c-1.5,3.5-4.3,6-6.1,9.3c-3.8,5-9.1,8.4-14.4,11.6c-5,3-10.9,3.5-16.5,5.2c-5.3,1.6-10.4-1.1-15.8-1
	c-6.7-1.4-13.5-3.9-18.6-8.7c3.1-2.4,5.1-5.9,8.2-8.3c5.7,4.2,12.5,7.7,19.8,7.1c6.4-0.8,13.4-1.5,18.8-5.5c4.1-3,8.6-6,10.8-10.8
	c2.7-4.4,2.8-9.9,2.8-14.9c-1.7-5.5-5-11.2-10.5-13.6C302.2,401.9,298.3,402.1,295,404z"/>
<path class="st1" d="M196,403.1c2.8-0.6,5.6-0.5,8.4,0.1c-4.6,1.1-9.5,4.1-10.7,8.9c-0.2,4.6-0.8,10.1,2.7,13.6
	c3.8,5.9,10.9,8.3,17.4,9.9c9.5,1.3,19.2-2.2,26.8-7.8c8.4-6.2,11.8-16.4,15.5-25.6c0.6,0.9,1.1,1.8,1.7,2.7
	c-1.2,3.7-0.3,7.7-1.8,11.3c-3.4,9.6-11.4,16.8-20,21.8c-7.4,4.7-16.7,5.5-25.1,3.7c-7.6-2.8-15.1-6.9-19.8-13.8
	c-2.2-4.8-4.6-10.4-2.6-15.7C189.6,408.2,193,405.6,196,403.1z"/>
<path class="st1" d="M299,406.2c7.7-2.5,12.9,6.4,13.8,12.8c-1.8,3.8-2.5,8.2-5.2,11.5c-2.3,2.6-4.2,5.7-7.2,7.6
	c-4.1,3.2-9.3,4.5-14.3,5.7c-6.8-0.1-14.3-1.8-19.1-6.9c0.6-1.1,1.4-2.1,2.1-3.1c6.2,4.1,13.9,4,21,3.6c4.6-2.1,9.2-4.7,12.8-8.4
	c2.5-4.4,3.7-9.5,2.7-14.5C304,411.3,301.9,408.4,299,406.2z"/>
</svg>
