<?xml version="1.0" encoding="utf-8"?>
<!-- Generator: Adobe Illustrator 21.0.0, SVG Export Plug-In . SVG Version: 6.00 Build 0)  -->
<svg version="1.1" id="Layer_1" xmlns="http://www.w3.org/2000/svg" xmlns:xlink="http://www.w3.org/1999/xlink" x="0px" y="0px"
	 viewBox="0 0 678 710" style="enable-background:new 0 0 678 710;" xml:space="preserve">
<style type="text/css">
	.st0{fill:#1B3767;stroke:#1B3767;stroke-width:9.375000e-02;}
	.st1{fill:#FFFEFE;stroke:#FFFEFE;stroke-width:9.375000e-02;}
	.st2{fill:#1B3767;}
	.st3{fill:#FFFEFE;}
</style>
<path class="st0" d="M251.8,11.7c30.7-8,62.5-11.2,94.2-11.5c4.4,0,8.6,0.9,13,1.1c60.1,3.4,119.1,22.6,169.8,55
	c59.5,37.7,107.6,93.5,135.5,158.2c4.2,9.8,8.1,19.8,11.5,29.9c-39.6,14.2-79.2,28.6-118.8,42.9c-2.8,1-5.5,2.2-8.4,2.7
	c-6.2-17.9-13.8-35.4-24-51.4c-21.6-34.2-52.8-62.3-89.1-80.1c-28.1-13.9-59.2-21.7-90.5-22.6c-39.3-1.2-78.8,8.8-113,28.1
	c-34.4,19.3-63.5,47.8-83.1,82c-8.3,13.9-14.1,29.1-19.9,44.2c-42.3-15.3-84.6-30.6-126.9-46c4.1-10.9,8.1-21.8,12.8-32.4
	c22-49.9,55.9-94.3,97.9-129.1C153.1,49.3,201,24.8,251.8,11.7 M313,6c-75.9,5.5-149.5,37.1-206.4,87.7
	c-45,39.8-79.6,91.2-98.8,148.1c39.5,14.3,79.1,28.6,118.5,42.9c2.6-5.7,4.5-11.7,7-17.4c15.2-35.8,40.2-67.3,71.3-90.7
	c29.3-22.1,64-36.9,100.3-42.6c29.4-4.6,59.7-3.2,88.6,4.2c28.8,7.3,56.1,20.5,79.8,38.4c32.8,24.6,58.7,58.2,73.6,96.4
	c1.6,3.9,2.8,7.9,4.7,11.7c39.5-14.5,79-28.7,118.5-43c-23.3-68.8-69.1-129.6-128.3-171.5C476.1,23.1,393.7-0.5,313,6z"/>
<path class="st1" d="M313,6c80.7-6.5,163.1,17.1,228.8,64.2c59.2,41.9,105.1,102.7,128.3,171.5c-39.5,14.3-79.1,28.5-118.5,43
	c-1.9-3.8-3.1-7.8-4.7-11.7c-15-38.1-40.9-71.8-73.6-96.4c-23.7-17.9-51-31-79.8-38.4c-28.8-7.4-59.2-8.8-88.6-4.2
	c-36.3,5.6-71,20.5-100.3,42.6c-31.1,23.4-56.1,54.8-71.3,90.7c-2.5,5.7-4.4,11.7-7,17.4c-39.5-14.4-79-28.7-118.5-42.9
	C27,184.9,61.7,133.4,106.6,93.7C163.5,43.1,237.1,11.5,313,6 M261,24.8c-50.4,11.8-97.9,35.5-137.8,68.5
	C78.1,130.4,42.7,179.4,22,234.1c-1,1.7,1.6,1.8,2.6,2.3c31.6,11.4,63.2,22.9,94.8,34.3c1.5,0.7,1.5-1.9,2.1-2.7
	c19.4-49,56-90.8,101.8-116.8c31.3-17.9,66.7-28.2,102.7-30.2c12-0.2,24-0.6,35.9,0.8c48.9,4.5,96,25.3,132.6,57.9
	c28,24.8,49.8,56.4,63.4,91.3c11.7-4.5,23.5-8.5,35.2-12.9c21-7.5,41.9-15.4,63-22.6c-0.1-2.9-1.6-5.4-2.6-8
	C627.5,163.3,581.3,107.5,523,70c-44.8-29.1-96.7-47.3-149.9-52.6C335.7,13.8,297.6,16.1,261,24.8z"/>
<path class="st0" d="M261,24.8c36.6-8.7,74.7-11,112.2-7.3c53.2,5.3,105,23.4,149.9,52.6c58.2,37.5,104.5,93.3,130.4,157.6
	c1,2.6,2.5,5.1,2.6,8c-21.1,7.3-42,15.1-63,22.6c-11.7,4.3-23.6,8.4-35.2,12.9c-13.6-34.8-35.3-66.5-63.4-91.3
	c-36.6-32.7-83.7-53.4-132.6-57.9c-11.9-1.4-23.9-1-35.9-0.8c-35.9,2-71.4,12.3-102.7,30.2c-45.8,26-82.5,67.8-101.8,116.8
	c-0.6,0.8-0.6,3.4-2.1,2.7c-31.6-11.4-63.2-22.9-94.8-34.3c-0.9-0.5-3.6-0.6-2.6-2.3c20.6-54.7,56.1-103.7,101.2-140.9
	C163.1,60.2,210.6,36.5,261,24.8 M344.1,40c-0.7,12.6-1.7,25.2-2.3,37.9c-0.5,5.8-1.2,11.6-0.6,17.4c10.2,0.4,20.4,1.5,30.6,1.6
	c0.1-3.1,0.3-6.3-0.1-9.4c-6.2-0.4-12.4-0.5-18.6-1c-0.6-4.8,0.1-9.7,0.5-14.5c0.5-10.5,1.2-21,1.9-31.4
	C351.7,40.2,347.9,40,344.1,40 M297.2,43.1c-2.8,18.8-5.8,37.6-8.3,56.4c4-0.5,8-0.6,11.9-1.4c0.2-4,0.6-7.9,1.4-11.9
	c4.7-0.2,9.4-1.1,14.1-1.4c1.3,3.7,2.5,7.5,3.8,11.2c3.9-0.2,7.8-1,11.8-1.3c-6.8-17.8-13.8-35.6-20.7-53.4
	C306.5,42,301.8,42.1,297.2,43.1 M393.9,44.9c-4.1,17.9-8.3,35.9-12,53.9c10,2.4,20.1,4.6,30.1,6.8c0.9-3.1,1.6-6.2,2.1-9.3
	c-6.4-1.3-12.8-2.8-19.1-4.3c3.5-14.9,6.8-29.8,10.1-44.8C401.4,46.4,397.7,45.4,393.9,44.9 M230,59.1c5.4,17.7,10.7,35.4,16.2,53
	c5.3-1.6,10.6-3.3,15.9-4.8c4.6-1.3,9.3-3.1,12.2-7c3.8-4.6,3.1-11.3,1-16.5c-1.8-4.7-6.8-8.3-11.9-7.3c2.3-2.3,4.5-5,4.6-8.4
	c0.3-7.3-4.7-16.1-12.9-15.7C246.3,53.2,238.3,56.8,230,59.1 M180.4,82.6c1.5,2.7,2.8,5.5,4.3,8.2c3.5-1.8,7.1-3.6,10.6-5.4
	c7.1,13.6,13.8,27.3,20.8,40.9c3.4-1.5,6.5-3.4,9.9-4.8c-0.9-3.6-3-6.6-4.6-9.9c-5.2-10.5-10.8-20.9-15.8-31.5
	c3.5-1.8,7-3.6,10.5-5.3c-1.4-2.8-2.4-5.9-4.4-8.3C201.3,71.8,190.6,76.8,180.4,82.6 M462.8,82.7c-4.3,6.4-7.9,13.2-10.8,20.3
	c-1.7,4.1-2.6,8.6-1.7,12.9c1,4,3.9,7.2,7.3,9.3c4.9,3.2,11.3,5.7,17,3.2c5.5-2.5,8.9-7.9,11.5-13.1c-3.4-1.6-6.5-3.6-10-5.1
	c-2.4,3.4-4.2,7.8-8.2,9.6c-3.1,0.9-7.4-1.3-7.3-4.9c0-5.5,3-10.2,5.3-15c3-5.5,5.7-11.5,10.4-15.8c3.1-3.2,9.3-0.5,9.3,3.9
	c-0.1,3.1-1.7,5.8-2.7,8.7c3.4,1.7,6.6,3.5,10,5.2c1.4-3,2.9-6,3.6-9.3c1.2-5.1-1.2-10.7-5.3-13.8c-4.1-3.1-9-5.5-14.2-5.6
	C471,73.6,466,77.9,462.8,82.7 M519.4,97c-11,14.8-22.6,29.1-33.5,44c8.2,6.3,16.3,12.6,24.6,18.8c1.9-2.5,3.9-4.9,5.7-7.5
	c-5.1-3.9-10.2-8-15.4-11.7c8.9-12.5,18.7-24.3,27.8-36.7C525.5,101.5,522.5,99.2,519.4,97 M157.2,98.3c-5.2,1.3-9.7,4.6-13.1,8.6
	c-4.1,4.8-3.9,11.9-1.2,17.3c3.1,6.5,7.6,12.2,12.1,17.8c3.8,4.5,8.2,9.2,14.1,10.7c4.9,1.2,9.8-1.1,13.7-3.9
	c4.1-3.1,8.4-7.3,8.4-12.8c0.5-6.5-3.3-12.2-6.8-17.4c-3.5-5-7.3-9.9-11.6-14.3C168.7,100.3,163,97.1,157.2,98.3 M530.8,153.8
	c-4,3.6-8.2,8.3-7.8,14.1c-0.2,4.1,2.3,7.5,4.8,10.5c3.4,4,7.8,7.9,13.3,8.2c5.2,0,9.8-2.8,13.4-6.4c9.2-8.6,18.8-16.9,27.7-25.8
	c-2.7-2.6-5.1-5.5-7.8-8.2c-8.9,8.4-18,16.7-27,25c-2.2,1.9-4.2,4.3-7.2,4.8c-4.2,0.9-8.6-4.2-6.4-8.1c1.6-3.3,4.7-5.6,7.3-8
	c8.3-7.6,16.5-15.3,24.8-22.8c-2.4-2.9-4.8-6.1-7.8-8.3C548.8,137,539.9,145.6,530.8,153.8 M115.4,135.4c-5.5,1.3-9.7,5.6-12.8,10.1
	c-3.2,4.5-3.6,10.7-0.8,15.5c3.7,6.9,9.9,12.1,15.7,17.2c5.1,4.1,10.6,8.9,17.5,9c4.6,0.3,8.5-2.4,11.6-5.5c3.7-3.6,7-8.4,7-13.8
	c-0.4-5.5-3.7-10.2-7.4-14.1c-4.8-5.2-10.1-10-15.9-14.1C126.1,136.8,120.8,134.1,115.4,135.4 M82.4,171.3
	c-5.4,8.9-11.3,17.4-16.5,26.4c15.7,9.7,31,19.9,46.7,29.6c2-3.2,4.1-6.4,6-9.7c-6.7-4.1-13.3-8.5-20-12.7
	c2.8-5.4,7.2-10.2,9.4-15.8c-2.3-2-5-3.3-7.6-4.9c-3.2,5.2-6.4,10.5-9.9,15.5c-3.4-2.4-7-4.5-10.5-6.8c2.9-4.4,5.6-8.9,8.5-13.3
	c0.5-1.1,1.8-2.1,1.5-3.4C87.6,174.3,85,172.8,82.4,171.3 M548.7,201.8c3.9,5.9,7.4,12.2,11.5,18c3.4,4.8,9.4,8.4,15.4,6.7
	c5-1.5,10.2-4.4,12.2-9.5c1.1-2.5,0.6-5.3,0.1-7.9c7.2,5.3,17.5,0.1,20.7-7.4c1.3-4.1,0-8.5-2.1-12.1c-3.5-5.9-7.3-11.5-10.8-17.4
	C580,182,564.3,191.9,548.7,201.8z"/>
<path class="st1" d="M344.1,40c3.8,0,7.6,0.2,11.5,0.6c-0.7,10.5-1.4,20.9-1.9,31.4c-0.4,4.8-1.1,9.7-0.5,14.5
	c6.2,0.4,12.4,0.6,18.6,1c0.4,3.1,0.2,6.3,0.1,9.4c-10.2-0.1-20.4-1.3-30.6-1.6c-0.6-5.8,0.1-11.6,0.6-17.4
	C342.4,65.3,343.4,52.7,344.1,40z"/>
<path class="st1" d="M297.2,43.1c4.6-1,9.3-1.1,13.9-1.8c6.9,17.8,13.8,35.6,20.7,53.4c-3.9,0.3-7.8,1.1-11.8,1.3
	c-1.3-3.7-2.6-7.4-3.8-11.2c-4.7,0.2-9.4,1.2-14.1,1.4c-0.8,3.9-1.2,7.9-1.4,11.9c-3.9,0.8-7.9,0.9-11.9,1.4
	C291.4,80.7,294.4,61.9,297.2,43.1 M305.2,52.5c-0.8,8.1-1.6,16.2-2.5,24.3c3.4-0.4,6.9-0.8,10.3-0.9
	C310.5,68,308.1,60.2,305.2,52.5z"/>
<path class="st1" d="M393.9,44.9c3.8,0.5,7.4,1.5,11.1,2.4c-3.3,14.9-6.6,29.9-10.1,44.8c6.3,1.5,12.7,3,19.1,4.3
	c-0.5,3.1-1.2,6.2-2.1,9.3c-10-2.3-20.1-4.5-30.1-6.8C385.6,80.7,389.9,62.8,393.9,44.9z"/>
<path class="st1" d="M230,59.1c8.3-2.2,16.4-5.8,25-6.7c8.2-0.4,13.3,8.3,12.9,15.7c-0.1,3.4-2.3,6.1-4.6,8.4
	c5.1-1,10.1,2.6,11.9,7.3c2.2,5.2,2.9,11.9-1,16.5c-3,3.9-7.7,5.8-12.2,7c-5.3,1.6-10.6,3.2-15.9,4.8
	C240.6,94.4,235.4,76.7,230,59.1 M243.8,63.9c0.4,4.5,2.7,8.8,3.5,13.2c3.5-0.7,7.9-1.7,9.5-5.3c0.8-2.9-0.3-6.2-2.2-8.5
	C251.5,60.6,247.1,62.7,243.8,63.9 M249.8,85.1c1.5,5.1,3.3,10.1,4.5,15.3c3.9-0.7,8.4-1.8,10.4-5.5c1.1-3.7-0.3-8-3.2-10.6
	C258,81.5,253.6,84.1,249.8,85.1z"/>
<path class="st0" d="M305.2,52.5c2.8,7.7,5.3,15.6,7.9,23.4c-3.5,0.2-6.9,0.5-10.3,0.9C303.6,68.7,304.5,60.6,305.2,52.5z"/>
<path class="st0" d="M243.8,63.9c3.3-1.2,7.8-3.3,10.8-0.5c1.9,2.3,3,5.5,2.2,8.5c-1.7,3.6-6,4.5-9.5,5.3
	C246.4,72.7,244.2,68.4,243.8,63.9z"/>
<path class="st1" d="M180.4,82.6c10.2-5.8,20.9-10.7,31.4-16.1c2,2.4,3,5.5,4.4,8.3c-3.5,1.8-7,3.6-10.5,5.3
	c5.1,10.6,10.6,21,15.8,31.5c1.5,3.3,3.7,6.3,4.6,9.9c-3.4,1.4-6.6,3.3-9.9,4.8c-7-13.6-13.8-27.3-20.8-40.9
	c-3.6,1.8-7.1,3.6-10.6,5.4C183.2,88,181.9,85.3,180.4,82.6z"/>
<path class="st1" d="M462.8,82.7c3.2-4.8,8.1-9.1,14.1-9.4c5.2,0.1,10.1,2.5,14.2,5.6c4.1,3.1,6.5,8.7,5.3,13.8
	c-0.7,3.3-2.2,6.3-3.6,9.3c-3.3-1.8-6.6-3.6-10-5.2c1-2.9,2.5-5.6,2.7-8.7c0.1-4.4-6.2-7.1-9.3-3.9c-4.7,4.3-7.3,10.3-10.4,15.8
	c-2.3,4.8-5.3,9.6-5.3,15c-0.1,3.5,4.2,5.8,7.3,4.9c4-1.8,5.8-6.1,8.2-9.6c3.4,1.5,6.6,3.5,10,5.1c-2.6,5.2-6.1,10.6-11.5,13.1
	c-5.8,2.5-12.1,0-17-3.2c-3.4-2.1-6.3-5.3-7.3-9.3c-0.9-4.4,0-8.9,1.7-12.9C454.9,95.9,458.6,89.1,462.8,82.7z"/>
<path class="st0" d="M249.8,85.1c3.8-1,8.2-3.5,11.8-0.8c2.9,2.5,4.2,6.9,3.2,10.6c-2,3.8-6.6,4.9-10.4,5.5
	C253.1,95.2,251.3,90.2,249.8,85.1z"/>
<path class="st1" d="M519.4,97c3.1,2.2,6.1,4.5,9.1,6.9c-9.1,12.4-18.9,24.2-27.8,36.7c5.3,3.7,10.3,7.8,15.4,11.7
	c-1.8,2.6-3.7,5-5.7,7.5c-8.3-6.2-16.4-12.6-24.6-18.8C496.8,126.2,508.3,111.8,519.4,97z"/>
<path class="st1" d="M157.2,98.3c5.8-1.3,11.5,1.9,15.5,5.9c4.3,4.4,8.1,9.3,11.6,14.3c3.5,5.2,7.3,10.8,6.8,17.4
	c0,5.5-4.2,9.7-8.4,12.8c-3.9,2.8-8.8,5.1-13.7,3.9c-5.9-1.5-10.3-6.1-14.1-10.7c-4.4-5.6-9-11.3-12.1-17.8
	c-2.7-5.4-2.9-12.5,1.2-17.3C147.5,103,152,99.7,157.2,98.3 M155.4,108.5c-2.5,1.2-4.9,4-4,6.9c1.5,5.5,5.4,10,8.7,14.6
	c3.5,4.4,6.7,9.4,11.6,12.5c4.5,2.8,11.3-2.8,8.9-7.7c-1.8-5.2-5.4-9.4-8.5-13.8c-3.1-3.9-5.9-8-9.8-11.2
	C160.3,108.3,157.6,107.2,155.4,108.5z"/>
<path class="st0" d="M155.4,108.5c2.3-1.3,4.9-0.2,6.8,1.3c3.9,3.1,6.7,7.3,9.8,11.2c3.1,4.4,6.7,8.6,8.5,13.8
	c2.4,4.9-4.3,10.6-8.9,7.7c-4.9-3.1-8.1-8.1-11.6-12.5c-3.3-4.6-7.1-9-8.7-14.6C150.4,112.4,152.8,109.7,155.4,108.5z"/>
<path class="st1" d="M530.8,153.8c9.1-8.2,18-16.8,27.2-24.9c3.1,2.2,5.4,5.3,7.8,8.3c-8.3,7.5-16.5,15.2-24.8,22.8
	c-2.6,2.5-5.7,4.7-7.3,8c-2.2,3.9,2.3,9,6.4,8.1c2.9-0.5,5-2.9,7.2-4.8c9-8.3,18.1-16.6,27-25c2.7,2.7,5,5.6,7.8,8.2
	c-8.9,8.9-18.5,17.2-27.7,25.8c-3.6,3.6-8.3,6.4-13.4,6.4c-5.5-0.3-9.9-4.2-13.3-8.2c-2.5-3-5-6.4-4.8-10.5
	C522.5,162.1,526.7,157.4,530.8,153.8z"/>
<path class="st1" d="M115.4,135.4c5.3-1.3,10.6,1.4,14.9,4.3c5.7,4.2,11,8.9,15.9,14.1c3.7,3.9,7,8.6,7.4,14.1
	c0,5.4-3.2,10.1-7,13.8c-3.1,3-7.1,5.7-11.6,5.5c-6.9-0.1-12.4-4.8-17.5-9c-5.8-5.1-12-10.3-15.7-17.2c-2.7-4.8-2.4-11,0.8-15.5
	C105.8,141,109.9,136.7,115.4,135.4 M113.3,146.2c-2.3,1.7-4.4,4.7-3,7.6c2.4,5.2,7,8.9,11.1,12.8c4.3,3.7,8.4,8,13.7,10.3
	c5.2,2.1,10.6-4.8,7.4-9.4c-4.5-7-11.4-12.1-17.5-17.6C121.8,147.4,117.6,143.9,113.3,146.2z"/>
<path class="st0" d="M113.3,146.2c4.2-2.3,8.5,1.3,11.7,3.7c6.1,5.5,13,10.6,17.5,17.6c3.3,4.6-2.2,11.5-7.4,9.4
	c-5.3-2.3-9.4-6.6-13.7-10.3c-4.1-3.9-8.7-7.6-11.1-12.8C108.9,150.8,111.1,147.9,113.3,146.2z"/>
<path class="st1" d="M82.4,171.3c2.5,1.5,5.2,3,7.5,4.8c0.3,1.3-1,2.3-1.5,3.4c-2.9,4.4-5.7,8.9-8.5,13.3c3.4,2.3,7.1,4.4,10.5,6.8
	c3.5-5.1,6.7-10.3,9.9-15.5c2.6,1.5,5.4,2.8,7.6,4.9c-2.2,5.6-6.6,10.3-9.4,15.8c6.7,4.2,13.3,8.6,20,12.7c-1.9,3.3-4,6.4-6,9.7
	c-15.7-9.7-31-19.9-46.7-29.6C71.1,188.6,77.1,180.1,82.4,171.3z"/>
<path class="st1" d="M548.7,201.8c15.6-9.9,31.3-19.8,47-29.5c3.5,5.8,7.3,11.5,10.8,17.4c2.1,3.6,3.3,8,2.1,12.1
	c-3.1,7.6-13.5,12.7-20.7,7.4c0.5,2.6,1,5.3-0.1,7.9c-2,5.1-7.2,8.1-12.2,9.5c-5.9,1.7-12-2-15.4-6.7
	C556.1,214,552.6,207.8,548.7,201.8 M582.9,193.9c1,2.8,3,5.2,5.3,6.9c3.5,1.6,7.9-0.7,9.7-3.9c1.5-3.9-1.6-7.3-3.3-10.5
	C590.7,188.9,586.6,191.1,582.9,193.9 M562.2,207c2,3.7,4.9,8.9,9.8,8.1c3.5-0.8,7.1-3.4,8-7c0.3-3.8-2.6-6.7-4.2-9.8
	C571.3,201.2,566.5,203.7,562.2,207z"/>
<path class="st0" d="M582.9,193.9c3.7-2.8,7.8-5.1,11.8-7.4c1.7,3.2,4.8,6.6,3.3,10.5c-1.9,3.1-6.2,5.5-9.7,3.9
	C585.9,199.2,583.9,196.7,582.9,193.9z"/>
<path class="st0" d="M185.1,223.1c10-12.5,22.1-23.2,35.9-31.3c-0.3,23.7-0.9,47.4-1.1,71.1c15.7,0.1,31.4,0,47.1,0
	c0.2-20,0-40,0.1-60c16.1,0,32.3,0,48.4,0c0,20,0.1,39.9,0,59.9c7.2,0.2,14.3,0,21.5,0.2l-0.1,0.9c-2.3,9.4-5.4,18.6-9.7,27.3
	c-2.5,5.2-5.5,10.1-7.8,15.4c4.1-0.5,8.6-1.6,11.2-5c2.5-3.1,2.8-7.1,3.4-10.8c0.6-0.1,1.9-0.4,2.5-0.5c0,8.6,0.1,17.1,0,25.7
	c-4.8,0.9-9.5,3.1-12.5,7.1c-5,6.3-4.4,16.1,1.3,21.8c2.9,3.1,7,4.7,11.1,5.5c0.1,6.9,0.1,13.7,0.1,20.5c-10-1-18-7.4-27.1-11.1
	c-8.8-3.8-19.3-5.7-28.4-1.7c-9.5,4.8-16.3,13.7-20.7,23.1c-7.8,16.1-7.8,35-16.3,50.8c-3.3,6.2-8.7,11.8-15.8,13c-4,1-9.1,0-11-4.1
	c-2.3-5-1.4-11.4,2-15.7c2.9-3.5,8-2.7,11.6-4.8c-0.7-2.9-2.6-5.7-5.9-5.9c-9.6-1-18.2,6.6-21.3,15.3c-2.8,7.6,0.1,17.1,7.1,21.4
	c4.3,2.6,9.3,3.5,14.2,3.8c2.4,0.3,5.4-0.1,7.1,2c7.8,7.9,15.7,15.6,23.3,23.7c9.5,8.8,18.2,18.5,27.6,27.5
	c18.2,18.5,37,36.4,53.8,56.1c0,0.4,0.2,1.3,0.2,1.8c-36.9-0.8-74.2-10.9-104.4-32.7c-10-7.4-19.6-15.7-27.3-25.4
	c-1.4-23.4-3.1-46.7-5.6-70c-2.7-24.8-5.8-49.6-11.3-73.9c-2.3-10.5-5.7-20.8-9.5-30.9c-6.4-17.2-12-34.9-21-51
	c-3.7-5.6-0.9-12.4,1.3-18C165.8,249.3,175.1,235.8,185.1,223.1 M216.1,297c-3.7,9.9-7.2,19.8-10.7,29.8c7.2,3.1,14.7,5.6,22.1,8.2
	c0.7-2.3,1.5-4.7,2.4-7c-5.5-1.8-11.1-3.6-16.6-5.6c0.6-1.6,1.2-3.2,1.7-4.8c5.2,1.5,10.3,3.2,15.3,5.1c1.8-1.8,4.1-5.3,1.3-7.3
	c-4.4-2.1-9.2-3.2-13.8-4.7c0.3-1.8,0.7-3.6,1.8-5.1c5.3,2,10.6,3.9,16.1,5.3c1.1-2,3.1-4.6,1.3-6.8c-2.4-1.6-5.3-2.1-8-3.1
	C224.8,299.7,220.6,297.9,216.1,297 M257.5,308.5c-5.1,2.1-7.6,9.6-3.9,14c3.7,4.5,10.1,5,14.7,8.2c1.7,1.1,0.7,4.2-1.3,4.3
	c-5.8,0.3-11.3-2.3-15.7-5.9c-1.4,1.8-4,3.3-4.2,5.7c1.7,2.1,4.3,3.2,6.6,4.4c5.7,2.6,12.5,4.3,18.5,1.9c5.3-2.1,7.8-9.9,3.7-14.3
	c-4-4.2-10.1-5.1-14.8-8.2c-1.7-1.4-0.3-4.5,1.9-4.2c5.3-0.2,10.3,2.3,14,6c1.6-1.5,3.9-2.9,3.4-5.4c-1.4-3.1-4.7-4.6-7.6-5.7
	C267.9,307.6,262.4,306.5,257.5,308.5 M288.6,317c-1.4,9.5-2.6,18.9-3.9,28.4c2.7,0.4,5.4,0.6,8.1,0.8c0.4-3.5,0.9-6.9,1.3-10.3
	c5.1,1,10.7,2,15.6-0.3c6.4-3,7.8-13.1,2.3-17.6c-5.3-4.3-12.5-4.4-19-4.7C290.8,313.1,288.8,314.9,288.6,317 M237.8,318.7
	c-1,1.3-1.8,3.5-0.5,4.8c2.8,1,5.8,1.5,8.6,2.3c0.7-1.6,1-3.3,1.1-5C244,320.1,241,318.9,237.8,318.7z"/>
<path class="st2" d="M457.7,191.8c15.9,9.4,29.5,22.3,40.3,37.2c7.9,10.7,15.4,21.9,20.9,34c1.9,4.7,4,9.7,3.4,14.9
	c-1.1,4-3.6,7.5-5.4,11.2c-5.8,11.4-9.9,23.6-14.3,35.6c-3.8,10.7-8.1,21.3-10.8,32.3c-5.9,23.3-9.1,47.2-11.9,71
	c-3,26.7-5.1,53.4-6.6,80.2C461.3,522.1,447,534,430.9,543c-27,15.2-58,22.3-88.9,23c0-0.5,0.1-1.5,0.2-1.9
	c12.1-15.1,26.3-28.3,39.8-42c20.3-20.4,40.5-40.8,60.8-61.2c1.7-1.7,3.3-3.6,5.3-4.9c4.9-0.5,10,0,14.6-2.1
	c7.9-3,13.2-11.3,12.7-19.7c-0.4-5-1.4-10.6-5.4-14.1c-3.8-3.3-8.8-6-13.9-5.4c-2.9,0.5-6.6,2.1-7.1,5.3c0.5,2.9,4,3,6.3,3.9
	c6.6,1.6,10.1,10.8,5.9,16.2c-3.3,4-9.3,3.8-13.8,2.3c-7-2.4-13-7.9-15.8-14.8c-6.8-16-7-34.2-15.5-49.6
	c-5.7-9.7-14.2-18.5-25.1-21.9c-6.8-2.1-13.9-0.3-20.1,2.7c-9.5,4.3-18.5,10.2-28.9,12.1c0.1-6.9,0-13.8,0-20.7
	c4.4-1.1,8.9-2.9,11.7-6.6c5-5.9,4.9-15.3-0.1-21.1c-2.9-3.6-7.3-5.5-11.6-6.6c0-8.5-0.2-17.1,0.1-25.6c0.6,0,1.8,0.1,2.4,0.1
	c0.5,4.2,0.9,8.8,4.1,11.9c2.6,2.9,6.7,3.6,10.4,4.2c-1.6-3.5-3.5-6.8-5.3-10.2c-5.3-10.3-9-21.3-11.7-32.5l-0.1-0.9
	c7-0.2,14.1-0.1,21.1-0.1c0-20,0-40,0-60c16.2,0,32.3-0.2,48.5,0.1c-0.1,20-0.2,39.9,0.1,59.9c15.7-0.1,31.4,0,47.1,0
	C458.5,239.2,457.8,215.5,457.7,191.8 M436.6,305.6c-3.4,4.7-0.9,12.6,4.9,14c5.5,1.6,11-1,16.5-0.6c2.4,0.2,2.7,3.9,0.5,4.7
	c-4.8,2.9-10.6,3.1-16,2.6c-0.3,2.4-0.6,4.7-1,7c8.3,1,17.6-0.1,24.1-5.8c5-4.1,3.6-13.5-2.6-15.6c-5.9-2-11.9,0.8-17.9,0.3
	c-2.3-0.3-2.2-3.6-0.4-4.6c4.4-2.8,10-3.1,15-1.9c0.5-2,1.6-4.6-0.1-6.3c-2.5-1.8-5.9-1.5-8.8-1.1
	C445.6,299.2,439.9,301,436.6,305.6 M397,312.8c-0.1,2.4-0.3,6.3,3,6.7c3.4-0.3,6.6-1.4,10-1.8c1.8,8.2,3.9,16.3,5.9,24.5
	c2.7-0.5,5.3-1.1,8-1.6c-1.6-8.4-4.3-16.5-5.7-24.9c3.6-0.6,7.1-1.5,10.6-2.2c0.8-2.7,0.1-7.4-3.6-6.8
	C415.7,308.4,406.4,310.7,397,312.8 M368.9,315.3c-2.4,0.3-5.7,1.5-5.1,4.6c1.1,9.6,2.7,19.2,3.8,28.8c2.7-0.3,5.3-0.6,8-0.9
	c-0.3-3.7-1-7.4-1.2-11.1c2.1-0.1,4.3-0.3,6.4-0.5c2.7,3.1,4.6,6.7,7.2,9.9c3-0.1,6-0.6,9-0.9c-2.1-4.4-5.6-8-8.5-12
	c5.9-4.1,5.2-14.2-1.1-17.5C381.6,312.8,374.9,314.3,368.9,315.3z"/>
<path class="st0" d="M562.2,207c4.3-3.2,9.1-5.8,13.6-8.7c1.7,3.1,4.6,6.1,4.2,9.8c-0.9,3.7-4.4,6.3-8,7
	C567,215.8,564.2,210.7,562.2,207z"/>
<path class="st3" d="M327.2,291.1c4.3-8.7,7.5-18.9,9.8-28.2c5,0.1,0,0,5,0.1c2.7,11.2,6.5,23.1,11.8,33.4c1.7,3.4,3.7,6.7,5.3,10.2
	c-3.7-0.6-7.8-1.3-10.4-4.2c-3.2-3.1-3.6-7.8-4.1-11.9c-0.6,0-1.8-0.1-2.4-0.1c-0.3,8.5-0.1,17.1-0.1,25.6c4.3,1.1,8.8,2.9,11.6,6.6
	c5,5.9,5,15.2,0.1,21.1c-2.8,3.7-7.3,5.5-11.7,6.6c0,6.9,0,13.8,0,20.7c10.4-2,19.4-7.8,28.9-12.1c6.2-3,13.4-4.8,20.1-2.7
	c11,3.4,19.4,12.2,25.1,21.9c8.5,15.4,8.7,33.6,15.5,49.6c2.8,6.9,8.8,12.4,15.8,14.8c4.5,1.5,10.4,1.6,13.8-2.3
	c4.2-5.4,0.8-14.6-5.9-16.2c-2.3-0.9-5.8-1-6.3-3.9c0.4-3.3,4.2-4.8,7.1-5.3c5.2-0.6,10.1,2.1,13.9,5.4c4,3.5,5,9.1,5.4,14.1
	c0.5,8.4-4.9,16.7-12.7,19.7c-4.6,2.2-9.7,1.6-14.6,2.1c-2,1.3-3.6,3.2-5.3,4.9c-20.3,20.4-40.5,40.8-60.8,61.2
	c-13.5,13.8-27.9,28.9-40,44h-5c-16.8-19.7-35.8-39.4-54-57.9c-9.4-9-18-18.7-27.6-27.5c-7.6-8-15.5-15.8-23.3-23.7
	c-1.7-2.1-4.7-1.7-7.1-2c-4.9-0.3-10-1.2-14.2-3.8c-6.9-4.3-9.9-13.8-7.1-21.4c3.1-8.7,11.6-16.3,21.3-15.3c3.3,0.1,5.2,3,5.9,5.9
	c-3.7,2.1-8.7,1.3-11.6,4.8c-3.4,4.3-4.3,10.7-2,15.7c1.9,4.1,7,5.1,11,4.1c7.2-1.2,12.6-6.8,15.8-13c8.5-15.9,8.5-34.7,16.3-50.8
	c4.4-9.4,11.3-18.3,20.7-23.1c9.1-4,19.6-2.1,28.4,1.7c9,3.6,17.1,10.1,27.1,11.1c0-6.9,0.1-13.7-0.1-20.5
	c-4.1-0.8-8.2-2.4-11.1-5.5c-5.7-5.6-6.3-15.5-1.3-21.8c2.9-4,7.7-6.2,12.5-7.1c0.1-8.6,0-17.1,0-25.7c-0.6,0.1-1.9,0.4-2.5,0.5
	c-0.6,3.7-0.9,7.7-3.4,10.8c-2.6,3.5-7.1,4.5-11.2,5C321.7,301.3,324.8,296.3,327.2,291.1 M330,329.1c-2.4,5.3,0.8,12.1,6.4,13.6
	c0.1-6.4,0.1-12.8,0-19.2C333.6,324.4,331,326.2,330,329.1 M342,323.6c0,6.3,0,12.6,0,18.9C350.8,340.1,351,325.9,342,323.6
	 M274.2,390.1c-7,8.8-8.5,20.2-12.7,30.3c-4.5,12.5-11.8,24.2-22.6,32.1c29.7,30.1,59.1,60.5,89,90.4c2.2-2.5,5-4.2,7.2-6.6
	c-0.5-0.4-1.5-1.2-2-1.6c-1.6,1.3-3.2,2.6-4.9,3.7c0-0.9,0-2.6,0-3.5c-0.4-3.9,4.4-5,6.2-7.7c1-0.8-0.9-1.6-1.1-2.3
	c-1.6,1.4-3.3,2.7-5,4c0-3-0.2-5.9,0-8.9c1.7-2.2,4.4-3.7,6.5-5.5c-0.3-0.8-0.7-1.4-1.3-2c-2,0.7-3.5,2.4-5.2,3.6
	c0-2.9-0.2-5.9,0-8.8c1.9-2.2,4.4-3.8,6.4-5.8c-0.5-0.7-1-1.4-1.4-2.1c-1.7,1.4-3.4,2.8-5.2,3.9c-0.6-6.4,8.7-8,8.3-14.3
	c0.1-33.8-0.2-67.5,0.1-101.3c-3.7-2.5-8.2-3.5-12.3-5.1c-9.7-3.1-19.9-6.1-30.1-5.1C286,378.4,278.8,383.5,274.2,390.1
	 M342.3,387.4c-0.4,11.5,0,23.1,0,34.6c0.1,23-0.1,46,0.1,69c1.8,4.9,9,7.2,8.4,13.1c-1.8-1.2-3.3-2.6-5.1-3.7
	c-0.9-0.8-2.2,1.5-1.2,2.1c2,1.9,4.4,3.4,6.2,5.5c0.2,2.7,0.1,5.4,0,8.2c-1.8-1.3-3.5-2.6-5.1-4c-0.5,0.7-2,1.5-1,2.4
	c2,2,4.3,3.7,6.3,5.7c0,2.7,0,5.3,0,8c-1.9-1.3-3.7-2.8-5.6-4.1c-0.3,0.5-0.8,1.5-1,2.1c2,2.3,4.8,3.8,6.5,6.3
	c0.3,2.1,0.1,4.3,0.1,6.4c-1.6-1.3-3.2-2.8-4.9-3.9c-1.1,0.1-1.7,0.7-1.8,1.8c2.3,2.2,5,4.1,7.2,6.4c13.8-13.8,27.6-27.7,41.2-41.7
	c15.9-16.4,32.3-32.5,48.1-49c-7.8-6.3-13.2-15-18.4-23.4c-6.9-11.1-10.3-23.9-16.8-35.3c-4.3-8-11.7-15.4-21.3-16.2
	C369.5,376.5,355.9,383.1,342.3,387.4z"/>
<path class="st1" d="M216.1,297c4.5,0.8,8.7,2.6,13,4c2.7,0.9,5.5,1.5,8,3.1c1.8,2.2-0.3,4.8-1.3,6.8c-5.4-1.4-10.8-3.3-16.1-5.3
	c-1.1,1.5-1.5,3.3-1.8,5.1c4.6,1.5,9.4,2.6,13.8,4.7c2.7,1.9,0.4,5.5-1.3,7.3c-5.1-1.8-10.2-3.5-15.3-5.1c-0.6,1.6-1.1,3.2-1.7,4.8
	c5.5,2,11.1,3.7,16.6,5.6c-0.8,2.3-1.6,4.6-2.4,7c-7.4-2.5-14.9-5.1-22.1-8.2C208.9,316.9,212.4,306.9,216.1,297z"/>
<path class="st1" d="M436.6,305.6c3.3-4.5,8.9-6.4,14.2-7.3c2.9-0.4,6.3-0.7,8.8,1.1c1.8,1.7,0.7,4.3,0.1,6.3
	c-5-1.1-10.6-0.9-15,1.9c-1.8,0.9-1.9,4.2,0.4,4.6c5.9,0.5,12-2.3,17.9-0.3c6.2,2.1,7.6,11.5,2.6,15.6c-6.5,5.7-15.8,6.8-24.1,5.8
	c0.4-2.3,0.7-4.7,1-7c5.4,0.4,11.3,0.2,16-2.6c2.2-0.8,1.9-4.6-0.5-4.7c-5.5-0.4-11,2.2-16.5,0.6
	C435.8,318.2,433.2,310.3,436.6,305.6z"/>
<path class="st1" d="M397,312.8c9.4-2,18.7-4.4,28.1-6.2c3.8-0.6,4.5,4.1,3.6,6.8c-3.5,0.7-7.1,1.5-10.6,2.2
	c1.4,8.4,4.1,16.5,5.7,24.9c-2.7,0.5-5.3,1.1-8,1.6c-2-8.1-4.1-16.3-5.9-24.5c-3.4,0.5-6.6,1.6-10,1.8
	C396.7,319.1,396.9,315.2,397,312.8z"/>
<path class="st1" d="M257.5,308.5c4.9-2.1,10.4-1,15.3,0.8c3,1.2,6.3,2.6,7.6,5.7c0.5,2.5-1.8,4-3.4,5.4c-3.7-3.6-8.7-6.1-14-6
	c-2.2-0.2-3.6,2.9-1.9,4.2c4.7,3,10.8,4,14.8,8.2c4.1,4.3,1.5,12.2-3.7,14.3c-6.1,2.4-12.8,0.6-18.5-1.9c-2.3-1.3-5-2.3-6.6-4.4
	c0.2-2.4,2.8-3.8,4.2-5.7c4.4,3.6,9.9,6.2,15.7,5.9c2-0.1,3-3.1,1.3-4.3c-4.6-3.2-11-3.7-14.7-8.2
	C249.9,318.1,252.4,310.7,257.5,308.5z"/>
<path class="st1" d="M288.6,317c0.2-2.2,2.2-4,4.4-3.6c6.5,0.3,13.7,0.3,19,4.7c5.5,4.5,4.1,14.6-2.3,17.6
	c-4.9,2.3-10.5,1.3-15.6,0.3c-0.4,3.4-1,6.9-1.3,10.3c-2.7-0.1-5.4-0.4-8.1-0.8C285.9,336,287.2,326.5,288.6,317 M296.1,320.5
	c-0.4,3-0.7,6-1,9c2.9,0.3,5.9,1.1,8.8,0.4c3.1-0.8,4.1-5.4,1.5-7.3C302.8,320.5,299.3,320.7,296.1,320.5z"/>
<path class="st1" d="M368.9,315.3c6-1,12.7-2.5,18.4,0.5c6.3,3.3,7,13.3,1.1,17.5c2.9,3.9,6.4,7.5,8.5,12c-3,0.3-6,0.8-9,0.9
	c-2.6-3.2-4.5-6.8-7.2-9.9c-2.1,0.2-4.3,0.4-6.4,0.5c0.2,3.7,0.9,7.4,1.2,11.1c-2.7,0.3-5.3,0.6-8,0.9c-1.1-9.6-2.7-19.2-3.8-28.8
	C363.2,316.9,366.5,315.6,368.9,315.3 M372.2,321.5c0.2,2.9,0.6,5.7,1,8.6c3.3-0.2,6.7-0.3,9.6-2.1c2.1-1.8,1.4-5.8-1.3-6.6
	C378.5,320.3,375.3,321.3,372.2,321.5z"/>
<path class="st1" d="M237.8,318.7c3.2,0.1,6.2,1.3,9.2,2.2c-0.1,1.7-0.3,3.4-1.1,5c-2.9-0.8-5.8-1.3-8.6-2.3
	C236,322.3,236.8,320,237.8,318.7z"/>
<path class="st0" d="M33.2,321c3.8-0.1,7.5-0.1,11.3-0.1c0,20,0.1,40.1,0,60.1c-5.2-0.1-10.5-0.1-15.7,0c-0.1-13.6,0-27.3,0-40.9
	c-3.8-0.1-7.5-0.1-11.3,0c-0.1-3.3-0.1-6.5,0-9.8c3.9-0.2,8.1-0.2,11.4-2.5C31.1,326.3,32.2,323.5,33.2,321z"/>
<path class="st0" d="M60.2,322.3c6.4-1.9,13.5-1.8,19.7,0.8c6,2.7,8.5,9.5,9.2,15.5c0.8,7.1,0.5,14.4,0.3,21.5
	c-0.4,5.9-1.1,12.5-5.3,17c-3.9,4.1-9.8,4.9-15.2,4.9c-5.4-0.1-11.3-0.6-15.4-4.6c-2.9-2.8-3.4-6.9-3.7-10.6
	c4.9,0.1,9.9-0.2,14.8,0.2c0.5,1.5,0.3,3.6,1.7,4.6c2.3,1.9,6.3,0.4,6.7-2.6c0.7-3.9,0.1-7.9,0.3-11.8c-5.7,7.5-20.2,6-23.2-3.4
	c-2-6-1.8-12.6-0.6-18.8C50.7,329.4,54.5,323.9,60.2,322.3 M67.2,331.2c-3.3,2.4-2.5,7.2-2.7,10.8c0.3,2.9-0.3,7.7,3.5,8.5
	c2.3,0.7,4.4-1.3,4.7-3.4c0.8-4.5,0.8-9.2-0.2-13.6C72,331.1,69.2,330.3,67.2,331.2z"/>
<path class="st0" d="M296.1,320.5c3.1,0.2,6.7,0,9.3,2c2.6,1.9,1.5,6.5-1.5,7.3c-2.9,0.8-5.9,0-8.8-0.4
	C295.4,326.5,295.8,323.5,296.1,320.5z"/>
<path class="st0" d="M372.2,321.5c3-0.3,6.3-1.2,9.2-0.1c2.7,0.8,3.5,4.8,1.3,6.6c-2.9,1.7-6.3,1.9-9.6,2.1
	C372.8,327.3,372.5,324.4,372.2,321.5z"/>
<path class="st0" d="M583,333c1.7-5.8,7-10,12.9-10.8c6.6-0.8,14-0.9,19.7,3.1c3.8,2.6,5,7.5,5.2,11.9c-4.9,0-9.8,0-14.6,0
	c-0.4-2-0.6-4.9-3.1-5.4c-2.7-1-5.5,1.5-5.6,4.1c-0.3,3.6,0,7.3-0.2,10.9c5.7-7.6,20.3-6,23.3,3.5c2.1,7,1.9,14.8-0.3,21.8
	c-1.8,5.4-6.7,9.3-12.2,10.2c-6.3,0.9-13.2,0.9-18.9-2.3c-6.5-4.3-7.7-12.9-8-20.1C581.1,351,580.4,341.8,583,333 M599.4,354.4
	c-1.9,1.6-1.8,4.3-2,6.5c-0.1,3.3-0.3,6.8,0.8,10c0.8,3.1,6,3.1,6.9,0c1.5-4.4,1-9.3,0.5-13.9C605.4,354.1,601.5,352.4,599.4,354.4z
	"/>
<path class="st0" d="M640.1,322.3c6.4-0.8,13.9-0.8,19.1,3.6c6.1,6.3,6.3,15.8,6.8,24c0,8.9,0.2,18.6-4.6,26.5
	c-3.2,5.2-9.7,6.4-15.4,6.4c-5.2-0.1-11.3-0.6-14.9-4.8c-4.5-5.2-5.2-12.4-5.8-19c-0.3-9.1-0.5-18.5,2.7-27.1
	C629.8,326.7,634.5,322.8,640.1,322.3 M643.3,332.3c-2.3,1.8-2.1,5.1-2.3,7.7c-0.2,8-0.1,16-0.1,24c0.2,2.8,0,6,1.9,8.3
	c2.2,2.1,6.2,0.8,6.7-2.2c1.3-6.3,0.5-12.7,0.7-19c-0.2-5.4,0.5-10.9-0.7-16.1C649,332.1,645.6,330.7,643.3,332.3z"/>
<path class="st0" d="M330,329.1c1-2.9,3.7-4.7,6.4-5.6c0.1,6.4,0.1,12.8,0,19.2C330.7,341.2,327.6,334.4,330,329.1z"/>
<path class="st0" d="M342,323.6c9,2.3,8.8,16.4,0,18.9C342,336.2,342,329.9,342,323.6z"/>
<path class="st0" d="M274.2,390.1c4.7-6.5,11.8-11.6,19.9-12.5c10.3-1,20.4,2,30.1,5.1c4.2,1.5,8.6,2.6,12.3,5.1
	c-0.3,33.8,0,67.5-0.1,101.3c0.3,6.3-8.9,7.9-8.3,14.3c1.8-1.2,3.5-2.5,5.2-3.9c0.5,0.7,1,1.4,1.4,2.1c-2.1,2-4.6,3.6-6.4,5.8
	c-0.2,2.9,0,5.9,0,8.8c1.8-1.1,3.2-2.9,5.2-3.6c0.6,0.5,1,1.2,1.3,2c-2.1,1.9-4.7,3.3-6.5,5.5c-0.3,3-0.1,5.9,0,8.9
	c1.7-1.3,3.3-2.6,5-4c0.3,0.7,2.1,1.5,1.1,2.3c-1.8,2.8-6.6,3.8-6.2,7.7c0,0.9,0,2.6,0,3.5c1.7-1.1,3.3-2.4,4.9-3.7
	c0.5,0.4,1.5,1.2,2,1.6c-2.2,2.4-5,4.1-7.2,6.6c-29.9-29.9-59.3-60.3-89-90.4c10.9-7.9,18.2-19.6,22.6-32.1
	C265.6,410.2,267.2,398.8,274.2,390.1z"/>
<path class="st0" d="M342.3,387.4c13.6-4.3,27.1-10.9,41.7-9.9c9.6,0.8,16.9,8.2,21.3,16.2c6.5,11.3,10,24.1,16.8,35.3
	c5.2,8.5,10.6,17.1,18.4,23.4c-15.8,16.5-32.1,32.6-48.1,49c-13.7,14-27.4,27.9-41.2,41.7c-2.2-2.3-4.9-4.1-7.2-6.4
	c0.1-1.1,0.7-1.7,1.8-1.8c1.8,1.1,3.3,2.6,4.9,3.9c0-2.1,0.2-4.3-0.1-6.4c-1.7-2.5-4.5-4-6.5-6.3c0.3-0.5,0.8-1.5,1-2.1
	c1.8,1.4,3.7,2.8,5.6,4.1c0-2.7,0-5.3,0-8c-2-2-4.3-3.7-6.3-5.7c-1-0.9,0.6-1.7,1-2.4c1.7,1.4,3.4,2.8,5.1,4c0.1-2.7,0.2-5.4,0-8.2
	c-1.8-2.1-4.2-3.5-6.2-5.5c-1-0.6,0.4-2.9,1.2-2.1c1.8,1.1,3.4,2.5,5.1,3.7c0.5-5.9-6.6-8.2-8.4-13.1c-0.2-23,0-46-0.1-69
	C342.4,410.5,341.9,398.9,342.3,387.4z"/>
<path class="st0" d="M0.8,461.9c42.3-15.4,84.7-30.8,127.1-46c4.7,13.3,9.5,26.7,16.1,39.2c17.8,34.7,45.1,64.3,78,85.1
	c33.9,21.5,73.8,33.5,114,34c39.8,0.6,79.7-10.1,114-30.3c33.5-19.7,61.7-48.3,80.6-82.3c8.3-14.5,14.1-30.1,19.6-45.7
	c42.3,15.1,84.5,30.7,126.8,45.8c-20.8,66.2-61.8,125.9-116,169.3c-50.2,40.4-111.5,66.9-175.4,75.3c-12.4,1.9-25,2.2-37.5,3.5
	c-9.4-0.1-18.7,0.2-28-0.9c-80-4.2-158-36.7-217.5-90.3c-30.1-26.9-55.5-59-74.9-94.5C16.7,504.3,8.1,483.3,0.8,461.9 M53.3,447.4
	c-15.6,5.8-31.5,11.1-47,17.2c3.2,8.5,6.1,17.1,9.7,25.4c30.3,73.2,86.7,135,156.3,172.6c36.2,19.7,75.9,33,116.7,38.8
	c63,9.3,128.4,0.7,186.9-24.4c72-30.5,133.2-85.9,170.5-154.6c10.2-18.4,18.2-38,25.3-57.8c-39.5-14.7-79.3-28.8-119-43.2
	c-5.1,14.4-10.7,28.8-18.3,42.1c-26,47-69.6,83.9-120.2,101.9c-41.8,15.1-88.3,17.2-131.3,5.9c-57.1-14.6-107.7-52.9-137.2-104
	c-8.7-14.5-14.9-30.2-20.6-46C101.2,430,77.2,438.7,53.3,447.4z"/>
<path class="st1" d="M53.3,447.4c24-8.7,47.9-17.3,71.9-26c5.7,15.8,11.9,31.5,20.6,46c29.5,51,80.1,89.3,137.2,104
	c43,11.3,89.4,9.2,131.3-5.9c50.6-18,94.3-54.9,120.2-101.9c7.6-13.3,13.2-27.7,18.3-42.1c39.6,14.4,79.4,28.5,119,43.2
	c-7.1,19.8-15.1,39.4-25.3,57.8c-37.4,68.7-98.5,124-170.5,154.6C417.4,702.1,352,710.7,289,701.4c-40.8-5.9-80.5-19.1-116.7-38.8
	C102.7,625,46.3,563.2,16,490c-3.6-8.3-6.5-16.9-9.7-25.4C21.8,458.5,37.6,453.2,53.3,447.4 M20,471c2.5,6.4,4.9,12.9,7.7,19.2
	c30.4,70.5,85.7,129.9,153.8,165.4c63.3,33.5,137.4,45.7,208.1,34.9c44.8-6.6,88.2-22.5,126.7-46.2
	c64.9-39.7,115.8-101.8,141.7-173.4c-32.9-12-65.9-23.8-98.8-35.8c-9.8,27.2-24.9,52.5-44,74.3c-27.5,31.5-63.6,55.4-103.3,68.4
	c-33.2,11-68.8,13.9-103.4,9.6c-43.1-5.5-84.4-23.4-117.9-51c-32.4-26.5-57.6-61.8-71.8-101.2C85.9,447.1,52.9,458.8,20,471z"/>
<path class="st0" d="M20,471c32.8-12.2,65.9-23.9,98.8-35.9c14.2,39.4,39.4,74.8,71.8,101.2c33.5,27.6,74.8,45.5,117.9,51
	c34.6,4.3,70.2,1.4,103.4-9.6c39.7-13,75.8-36.9,103.3-68.4c19.1-21.7,34.1-47,44-74.3c32.9,12,65.9,23.8,98.8,35.8
	c-25.9,71.6-76.7,133.7-141.7,173.4c-38.5,23.7-81.9,39.6-126.7,46.2c-70.7,10.7-144.8-1.5-208.1-34.9
	C113.5,620,58.2,560.6,27.8,490.1C25,483.8,22.5,477.4,20,471 M63.2,511c3,4.7,6,9.3,9,14c2.4,3.7,5.3,7.6,9.7,9
	c4.8,1.9,10,0.3,14.5-1.6c7.1-3.2,13.7-7.5,19.6-12.5c3.6-3.1,6.9-7.1,7.2-12c0.5-3.9-1-7.8-3.1-11c-3.4-5.3-6.8-10.6-10.3-15.9
	C94.3,491,78.7,500.9,63.2,511 M548.9,511.7c2.6,1.5,5,3.1,7.4,4.7c3-2.9,4.4-6.9,7.3-9.9c12.3,8.4,25,16.4,37.6,24.4
	c0.3-0.1,0.9-0.2,1.2-0.3c1.9-2.8,3.8-5.7,5.5-8.6c-0.7-1-1.9-1.5-2.8-2.2c-11.9-7.6-23.8-15.3-35.6-22.9c2-3.5,4.5-6.7,6.4-10.3
	c-2.6-1.6-5.2-3.3-7.9-4.9C561.7,491.7,554.8,501.4,548.9,511.7 M134.5,519.3c-4.5,10.2-9,20.4-13.5,30.7c-0.6,1.6-1.7,3-3,4.1
	c-4.7,4.2-9.3,8.6-13.9,12.9c2.6,2.7,4.9,5.7,7.8,8.1c5.8-4.6,10.6-10.2,16.4-14.8c11.1-4.2,22.5-8,33.6-12.3
	c-2.2-3.4-5.6-6-8.2-9.1c-6.9,3-13.9,5.8-20.7,9c3.4-6.7,7.1-13.2,10.5-19.9c-2.9-2.9-5.5-6.3-8.6-9L134.5,519.3 M530.7,530.7
	c-3.8,3.8-7.3,8.8-6.7,14.4c0.3,5.4,4.3,9.7,8.4,12.7c4.4,3.3,10.5,3,15.3,0.8c4.4-1.7,8.2-5.1,13.1-5.2c4.1,0.3,8.6,4.9,6.6,9.1
	c-1.2,2.8-4,5.3-7.3,4.9c-2.6-0.4-4.5-2.6-6.5-4.1c-2.6,2.7-5,5.5-7.7,8.1c3.9,4.5,9.8,8.1,16,6.4c5.8-1.9,10-6.7,13.4-11.6
	c3.3-4.9,4.1-11.9,0.4-16.8c-3.2-4.3-7.9-8.7-13.6-8.3c-6.8,0.6-12.5,4.8-18.9,6.9c-3.9,1.2-7.5-1.7-9-5c-0.7-2.9,1.5-5.8,4-7.1
	c2.9-1.3,5.7,1,8,2.6c2.5-2.7,5.4-5.1,7.2-8.2c-2.7-2.2-5.6-4.6-9.1-5.1C539,524.3,534.2,527.2,530.7,530.7 M485.4,571.8
	c11.2,14.6,22.3,29.4,33.6,44c8.4-6.4,16.8-12.8,25.2-19.1c-1.6-2.7-3.7-5.1-5.5-7.6c-5.7,3.9-10.8,8.4-16.5,12.3
	c-2.7-3.8-5.8-7.4-8.4-11.3c4.2-4.3,9.6-7.5,14.3-11.4c-1.7-2.6-3.7-5-5.5-7.6c-5,3.5-9.6,7.5-14.7,11c-3.1-2.8-5.1-6.7-7.9-9.8
	c5.3-3.9,10.5-8,15.7-11.9c-2-2.4-3.5-5.1-5.7-7.3C501.7,559.1,493.5,565.3,485.4,571.8 M170.1,554.8c-11,14.8-21.9,29.7-32.8,44.6
	c2.8,2.1,5.6,4.2,8.4,6.3c7.5-9.9,14.5-20.3,22.3-30c-3.5,12.1-7.3,24.1-10.9,36.2c0,0.5-0.1,1.5-0.1,1.9c3.1,2.7,6.7,5,10,7.5
	c10.9-15,22.1-29.7,32.7-44.9c-2.9-1.9-5.6-4-8.4-6c-7.5,9.7-14.2,20.2-22.1,29.5c4-12.3,7.6-24.7,11.2-37.1
	C177.5,559.7,173.5,557.5,170.1,554.8 M462.3,585.3c-6.9,3.1-13.4,7-20.3,10.1c8,16.7,16.7,33.1,25.2,49.6c3.4-1.7,6.8-3.4,10.1-5.2
	c-3.4-7-7-13.8-10.5-20.7c3.5-1.7,7.9-5.4,11.6-2.4c4.3,4.6,5.9,11.1,10,15.9c1.1,1.3,2.6,0.2,3.8-0.3c2.7-1.5,5.8-2.5,8.2-4.6
	c-1.2-0.8-2.6-1.3-3.4-2.6c-3.5-4.9-5.5-10.9-9.7-15.2c-2.1-2.4-5.4-1.7-8.2-1.8c5.7-5.9,2.7-15.3-2.4-20.6
	C473,583.5,466.9,583.1,462.3,585.3 M185.1,632.3c3.6,1.6,7,4.3,10.9,4.7c2.6-2.8,4.6-6.1,7.1-8.9c4.4,2,8.7,4.1,13.1,6.1
	c-0.6,3.9-2.5,7.9-2.2,11.7c3.4,1.8,6.8,3.5,10.5,4.7c3.1-18.8,7-37.5,10-56.4c-4.2-1.8-8.3-3.9-12.5-5.8
	C209.5,603,197.3,617.6,185.1,632.3 M257.4,604.1c-4,18.1-8.3,36.1-12.1,54.3c3.4,0.7,6.8,1.4,10.1,2.2c3.2-13.6,6.4-27.2,9.1-40.8
	c0.3,1.4,0.6,2.8,0.6,4.2c0,12.9-0.1,25.9,0,38.8c2.8,0.7,5.7,1.3,8.5,1.9c6-12.9,12.4-25.7,18.1-38.7c0.3,2.6-0.6,5.1-1.2,7.7
	c-2.5,11-5,22.1-7.5,33.1c3.5,0.8,6.9,1.9,10.4,2.2c3.8-17.9,7.9-35.7,12.1-53.5c-5.2-2.2-10.9-2.6-16.3-4.1
	c-5.4,11.6-10.6,23.3-15.9,35c-0.8-3.4-0.3-6.9-0.4-10.4c0.4-9.3,0.6-18.7,0.9-28C268.4,606.5,262.9,605.5,257.4,604.1 M395,610.5
	c0.2,1.2,0.3,2.5,0.7,3.7c4.9,16.6,9.6,33.3,14.5,49.9c6.4-2,12.9-3.7,19.3-5.7c4.8-1.5,9.4-4.7,11.2-9.5c1.4-4.9,0.6-10.3-1.9-14.7
	c-2-3.8-6.4-6.2-10.7-5.6c4.5-3.8,5.6-10.4,3.1-15.7c-1.7-5.6-7.6-9.4-13.4-8.4C410.1,605.7,402.7,608.8,395,610.5 M332.2,615.3
	c-6.6,1-11.4,6.8-12.6,13.2c-1.7,10.1-1.9,20.4-0.2,30.5c1,4.7,3.6,9.3,8,11.5c4.5,2.1,9.7,2,14.6,1.5c5-0.5,9.6-3.9,11.5-8.6
	c3.1-7.4,2.5-15.6,2.6-23.4c0-7-0.3-15.1-5.5-20.5C345.8,614.6,338.5,614.5,332.2,615.3z"/>
<path class="st1" d="M63.2,511c15.5-10.1,31.1-20,46.6-30c3.4,5.3,6.8,10.6,10.3,15.9c2.1,3.3,3.6,7.1,3.1,11
	c-0.3,4.9-3.6,8.9-7.2,12c-5.9,5-12.6,9.2-19.6,12.5c-4.5,1.9-9.7,3.5-14.5,1.6c-4.4-1.5-7.3-5.3-9.7-9
	C69.2,520.3,66.2,515.7,63.2,511 M108.6,495.2c-10.5,7.1-21.3,13.8-32,20.8c2.1,3.5,4.5,8.7,9.4,8.1c6-1,10.9-4.8,16-8
	c4.1-2.8,8.8-5.5,10.8-10.3C113.9,501.7,110.9,498.2,108.6,495.2z"/>
<path class="st1" d="M548.9,511.7c5.9-10.3,12.8-20,19.1-30c2.7,1.5,5.3,3.2,7.9,4.9c-1.9,3.5-4.3,6.8-6.4,10.3
	c11.9,7.7,23.7,15.4,35.6,22.9c0.9,0.7,2.1,1.2,2.8,2.2c-1.7,3-3.6,5.8-5.5,8.6c-0.3,0.1-0.9,0.2-1.2,0.3
	c-12.6-8.1-25.3-16-37.6-24.4c-2.9,3-4.3,7.1-7.3,9.9C553.9,514.8,551.5,513.1,548.9,511.7z"/>
<path class="st0" d="M108.6,495.2c2.3,3,5.3,6.5,4.2,10.6c-2,4.8-6.7,7.5-10.8,10.3c-5,3.1-10,6.9-16,8c-5,0.6-7.3-4.6-9.4-8.1
	C87.2,509,98.1,502.4,108.6,495.2z"/>
<path class="st1" d="M134.5,519.3l0.5-0.2c3.1,2.7,5.7,6,8.6,9c-3.4,6.7-7.1,13.2-10.5,19.9c6.8-3.2,13.8-5.9,20.7-9
	c2.6,3.1,6,5.7,8.2,9.1c-11.1,4.3-22.4,8.1-33.6,12.3c-5.8,4.5-10.7,10.2-16.4,14.8c-2.9-2.4-5.2-5.4-7.8-8.1
	c4.6-4.3,9.2-8.7,13.9-12.9c1.3-1.1,2.4-2.5,3-4.1C125.5,539.8,130.1,529.6,134.5,519.3z"/>
<path class="st1" d="M530.7,530.7c3.5-3.5,8.3-6.4,13.4-5.5c3.6,0.5,6.4,2.9,9.1,5.1c-1.9,3.2-4.8,5.5-7.2,8.2c-2.3-1.6-5-3.9-8-2.6
	c-2.5,1.2-4.7,4.2-4,7.1c1.5,3.4,5.1,6.2,9,5c6.4-2,12.1-6.2,18.9-6.9c5.8-0.3,10.4,4,13.6,8.3c3.7,4.9,2.9,11.9-0.4,16.8
	c-3.3,4.9-7.6,9.7-13.4,11.6c-6.1,1.7-12.1-1.9-16-6.4c2.7-2.6,5.1-5.4,7.7-8.1c2,1.5,3.9,3.7,6.5,4.1c3.2,0.4,6.1-2.1,7.3-4.9
	c2-4.2-2.4-8.8-6.6-9.1c-4.9,0.1-8.8,3.5-13.1,5.2c-4.8,2.2-10.9,2.5-15.3-0.8c-4.2-3-8.1-7.3-8.4-12.7
	C523.5,539.5,526.9,534.4,530.7,530.7z"/>
<path class="st1" d="M485.4,571.8c8.1-6.5,16.3-12.7,24.7-18.8c2.2,2.2,3.8,4.9,5.7,7.3c-5.2,4-10.4,8-15.7,11.9
	c2.8,3.1,4.8,7,7.9,9.8c5-3.4,9.7-7.4,14.7-11c1.8,2.6,3.8,5,5.5,7.6c-4.7,3.9-10.2,7-14.3,11.4c2.6,3.9,5.6,7.4,8.4,11.3
	c5.7-3.9,10.8-8.4,16.5-12.3c1.8,2.5,3.9,4.9,5.5,7.6c-8.5,6.3-16.8,12.8-25.2,19.1C507.7,601.2,496.6,586.4,485.4,571.8z"/>
<path class="st1" d="M170.1,554.8c3.4,2.7,7.5,4.8,10.4,8c-3.6,12.4-7.2,24.8-11.2,37.1c7.9-9.4,14.6-19.8,22.1-29.5
	c2.8,2,5.5,4.1,8.4,6c-10.6,15.2-21.9,29.9-32.7,44.9c-3.4-2.5-6.9-4.7-10-7.5c0-0.5,0.1-1.4,0.1-1.9c3.6-12.1,7.4-24.1,10.9-36.2
	c-7.8,9.7-14.8,20-22.3,30c-2.8-2-5.6-4.2-8.4-6.3C148.2,584.6,159.1,569.7,170.1,554.8z"/>
<path class="st1" d="M462.3,585.3c4.7-2.2,10.7-1.8,14.4,2.1c5,5.3,8.1,14.7,2.4,20.6c2.8,0.1,6.1-0.5,8.2,1.8
	c4.3,4.3,6.2,10.3,9.7,15.2c0.7,1.3,2.2,1.8,3.4,2.6c-2.4,2.1-5.4,3.1-8.2,4.6c-1.2,0.5-2.7,1.7-3.8,0.3c-4.2-4.7-5.7-11.3-10-15.9
	c-3.7-3-8.1,0.7-11.6,2.4c3.4,6.9,7.1,13.8,10.5,20.7c-3.3,1.8-6.7,3.5-10.1,5.2c-8.5-16.5-17.1-32.9-25.2-49.6
	C448.8,592.3,455.4,588.4,462.3,585.3 M455.9,598.1c2.5,4.5,4.6,9.3,7.2,13.8c3.5-1.8,8.1-3.5,9-7.9c-0.5-3.9-2.5-9-7-9.4
	C461.6,594.5,458.8,596.6,455.9,598.1z"/>
<path class="st1" d="M185.1,632.3c12.2-14.6,24.4-29.3,36.8-43.9c4.2,1.9,8.3,4,12.5,5.8c-3,18.9-6.9,37.6-10,56.4
	c-3.6-1.2-7.1-3-10.5-4.7c-0.3-3.9,1.6-7.9,2.2-11.7c-4.4-2-8.7-4.1-13.1-6.1c-2.5,2.9-4.5,6.2-7.1,8.9
	C192.1,636.5,188.6,633.8,185.1,632.3 M209,620.4c3.1,1.4,6.1,2.8,9.2,4.2c1.9-7.9,3.6-15.8,5.6-23.7
	C218.7,607.2,213.6,613.7,209,620.4z"/>
<path class="st0" d="M455.9,598.1c2.9-1.5,5.7-3.6,9.1-3.5c4.5,0.3,6.6,5.5,7,9.4c-0.9,4.4-5.4,6.1-9,7.9
	C460.5,607.3,458.4,602.6,455.9,598.1z"/>
<path class="st0" d="M209,620.4c4.6-6.7,9.6-13.2,14.8-19.5c-1.9,7.9-3.6,15.8-5.6,23.7C215.1,623.2,212.1,621.8,209,620.4z"/>
<path class="st1" d="M257.4,604.1c5.5,1.3,11.1,2.4,16.5,3.8c-0.2,9.3-0.5,18.7-0.9,28c0,3.5-0.4,7,0.4,10.4
	c5.3-11.7,10.4-23.4,15.9-35c5.4,1.5,11.1,2,16.3,4.1c-4.2,17.8-8.2,35.6-12.1,53.5c-3.5-0.3-7-1.4-10.4-2.2c2.5-11,5-22.1,7.5-33.1
	c0.5-2.5,1.4-5.1,1.2-7.7c-5.7,13-12.1,25.8-18.1,38.7c-2.8-0.6-5.7-1.2-8.5-1.9c-0.1-12.9,0-25.9,0-38.8c0-1.4-0.2-2.8-0.6-4.2
	c-2.8,13.7-6,27.3-9.1,40.8c-3.4-0.8-6.7-1.5-10.1-2.2C249.1,640.3,253.3,622.2,257.4,604.1z"/>
<path class="st1" d="M395,610.5c7.7-1.7,15.1-4.8,22.9-6.1c5.8-1,11.7,2.8,13.4,8.4c2.5,5.3,1.4,11.8-3.1,15.7
	c4.3-0.6,8.6,1.8,10.7,5.6c2.4,4.4,3.3,9.8,1.9,14.7c-1.8,4.8-6.4,8-11.2,9.5c-6.4,2-12.9,3.7-19.3,5.7
	c-4.9-16.6-9.6-33.3-14.5-49.9C395.3,612.9,395.2,611.7,395,610.5 M408.2,615.5c1.1,4.6,2.5,9.1,3.8,13.6c3.6-1,8.7-2,9.6-6.3
	c0.3-3.4-1.1-7.8-4.7-8.9C414,613.6,411.1,614.9,408.2,615.5 M414.2,637.4c1.8,4.9,3,10.1,4.5,15.1c3.6-0.8,7.7-1.7,10-4.9
	c1.5-3.9,0.3-8.9-3-11.4C422.2,633.7,417.7,635.9,414.2,637.4z"/>
<path class="st0" d="M408.2,615.5c2.9-0.6,5.8-2,8.8-1.5c3.6,1.1,5,5.5,4.7,8.9c-1,4.3-6,5.3-9.6,6.3
	C410.7,624.7,409.2,620.2,408.2,615.5z"/>
<path class="st1" d="M332.2,615.3c6.3-0.8,13.6-0.7,18.4,4.2c5.2,5.4,5.5,13.5,5.5,20.5c-0.1,7.8,0.6,16-2.6,23.4
	c-1.9,4.7-6.5,8.1-11.5,8.6c-4.9,0.5-10.1,0.6-14.6-1.5c-4.4-2.2-7-6.8-8-11.5c-1.7-10.1-1.5-20.4,0.2-30.5
	C320.8,622.1,325.6,616.3,332.2,615.3 M334.2,624.1c-2,1.2-3,3.6-3.4,5.8c-1.2,5.3-0.8,10.7-0.9,16.1c0.1,5.1-0.4,10.5,1.9,15.2
	c1.5,2.8,5.1,3.6,7.9,2.6c2.7-1,3.8-4.1,4.2-6.7c1-8.3,1.4-16.8,0.3-25.2c-0.3-2.2-0.6-4.5-2-6.2
	C340.5,623.1,336.8,623.2,334.2,624.1z"/>
<path class="st0" d="M334.2,624.1c2.6-1,6.3-1,8.1,1.5c1.4,1.8,1.7,4,2,6.2c1,8.4,0.7,16.8-0.3,25.2c-0.5,2.6-1.5,5.7-4.2,6.7
	c-2.8,1-6.5,0.3-7.9-2.6c-2.3-4.7-1.8-10.1-1.9-15.2c0.1-5.4-0.3-10.8,0.9-16.1C331.2,627.7,332.1,625.3,334.2,624.1z"/>
<path class="st0" d="M414.2,637.4c3.5-1.5,8-3.7,11.5-1.2c3.3,2.5,4.5,7.6,3,11.4c-2.3,3.2-6.4,4.1-10,4.9
	C417.2,647.5,416,642.3,414.2,637.4z"/>
</svg>
