<?xml version="1.0" encoding="utf-8"?>
<!-- Generator: Adobe Illustrator 21.0.0, SVG Export Plug-In . SVG Version: 6.00 Build 0)  -->
<svg version="1.1" id="Layer_1" xmlns="http://www.w3.org/2000/svg" xmlns:xlink="http://www.w3.org/1999/xlink" x="0px" y="0px"
	 viewBox="0 0 799.7 654.1" style="enable-background:new 0 0 799.7 654.1;" xml:space="preserve">
<style type="text/css">
	.st0{fill:#222222;stroke:#222222;stroke-width:9.375000e-02;}
</style>
<path class="st0" d="M359.9,0.1c27.3-0.2,54.6-0.1,81.8,0C524,134.5,606.1,269.1,688.4,403.5c35,57.4,70.2,114.6,105.1,172
	c-191.4,0.2-382.8,0-574.2,0.1c-11.7,0-23.4,0.1-35.1-0.1c11.7-20.1,23.6-40.1,35.2-60.2c135.6-0.2,271.3,0,406.9-0.1
	c19.9-0.2,39.9,0.4,59.8-0.3c-3.6-6.9-8.4-13.1-12.5-19.8c-39.5-61.9-78.6-123.9-118-185.9C491.3,208,427,106.6,362.7,5.2
	C361.7,3.6,360.8,1.9,359.9,0.1z"/>
<path class="st0" d="M125.2,384.6C201,260.9,276.5,137,352.4,13.2c23.1,35.8,45.6,71.9,68.5,107.8c80.4,127,160.9,253.8,241.2,380.9
	c-22.6,0.3-45.2,0-67.8,0.2c-1.9-0.2-4.6,0.4-5.6-1.8C512.7,377.2,436.8,254.1,360.9,131c-1.1-1.7-2.2-3.3-3.5-4.8
	c-22.6,35.3-44.7,71.1-67,106.5c-85.5,136.2-171,272.4-256.5,408.7c-0.3,0-0.9,0-1.2,0c-10.8-17.3-21.8-34.5-32.6-51.8
	C41.6,521.2,83.6,453,125.2,384.6z"/>
<path class="st0" d="M353.3,155.7c1.1-1.9,2.3-3.8,3.9-5.4c2.2,2.4,3.7,5.3,5.4,8c9,14.7,18.2,29.2,27.1,43.9c1.5,1.9-0.5,4-1.3,5.8
	C317.9,325.1,247.8,442.5,177,559.5c-5.7,9.4-11.6,18.7-17,28.2c6.1,0.6,12.2,0.3,18.2,0.3c207.1,0,414.2-0.1,621.3,0.1
	c-5.8,9-12.6,17.3-18.9,26c-9.8,13.3-19.6,26.6-29.4,39.9c-188,0-376,0-564,0c-48.4-0.1-96.9,0.1-145.3-0.1
	C145.5,487.7,249.6,321.9,353.3,155.7z"/>
</svg>
