<?xml version="1.0" encoding="utf-8"?>
<!-- Generator: Adobe Illustrator 21.0.0, SVG Export Plug-In . SVG Version: 6.00 Build 0)  -->
<svg version="1.1" id="Layer_1" xmlns="http://www.w3.org/2000/svg" xmlns:xlink="http://www.w3.org/1999/xlink" x="0px" y="0px"
	 viewBox="0 0 488 626" style="enable-background:new 0 0 488 626;" xml:space="preserve">
<style type="text/css">
	.st0{fill:#003F99;stroke:#003F99;stroke-width:9.375000e-02;}
	.st1{fill:#D4AE30;stroke:#D4AE30;stroke-width:9.375000e-02;}
</style>
<path class="st0" d="M177.8,51.5c22-17.2,44-34.2,65.9-51.4C266,17.4,288,35.1,310.2,52.6c0,88.9,0.2,177.8,0.2,266.7
	c0.4,2.8-2.3,4.3-3.8,6c-21,20.9-42,41.9-63,62.8c-20.8-20.6-41.4-41.2-62.2-61.8c-1.6-1.8-4.2-3.3-3.8-6
	C177.7,230.7,177.8,141.1,177.8,51.5z"/>
<path class="st1" d="M333.3,69.6c22.1,17.5,43.9,35.3,65.9,52.9c0,39.2-0.2,78.4,0.1,117.5c-21.8-17.5-44.3-34.1-66.1-51.7
	C333.4,148.7,333.1,109.1,333.3,69.6z"/>
<path class="st1" d="M90.4,120.1c20.9-16.4,41.5-33,62.4-49.4c0.1,38.8,0,77.6,0,116.4c-21.5,17.5-42.8,35-64.2,52.6
	c-0.3-3.5-0.3-7-0.2-10.5c0-35,0-70,0-105.1C88.2,122.5,89,121,90.4,120.1z"/>
<path class="st1" d="M422.1,139.8c21.3,17,42.5,34.1,63.7,51.1c0.9,0.9,2.4,1.7,2.1,3.2c0,82.2,0,164.4,0,246.6
	c-22-17.8-44-35.5-65.7-53.5C422.1,304.8,422.1,222.3,422.1,139.8z"/>
<path class="st1" d="M0.1,190.2c22.3-16.3,44.5-32.8,66.8-49.2c0,82.4,0.1,164.8-0.1,247.2c-1.9,2.8-4.9,4.6-7.4,6.8
	c-19.5,16.1-39.1,32.1-58.6,48.3C1,362,0.8,280.6,0.9,199.2C0.9,196.2,1.1,193.1,0.1,190.2z"/>
<path class="st0" d="M333.2,213.6c9.7,6.8,18.5,14.8,27.9,22c12.1,9.9,24.3,19.7,36.5,29.5c1.3,0.9,0.8,2.6,0.9,3.9
	c-0.2,37.9,0.2,75.9-0.2,113.8c-6.3,7-13.3,13.4-19.9,20.2c-14.3,14.4-28.7,28.7-43,43c-1.3,1-1.2,2.6-1.2,4c0,36.7,0,73.5,0,110.2
	c-21.5-15.5-42.9-31.1-64.5-46.5c-0.2-30.2,0-60.4-0.1-90.6c0.2-8.5-0.4-17.1,0.3-25.5c19.9-21.1,40-42,60-63
	c1.1-1.4,3.1-2.6,3.1-4.6C333.2,291.3,332.9,252.5,333.2,213.6z"/>
<path class="st0" d="M93,260.7c20.6-15.2,40.9-30.8,61.7-45.9c0.2,38.4,0,76.8,0.1,115.2c-0.1,1.3,1.1,2.1,1.8,3
	c20.9,20.8,41.7,41.7,62.5,62.5c1.2,0.8,1.2,2.3,1.2,3.6c0,38-0.1,76,0,114c-21.8,16.9-43.8,33.4-65.7,50.2c0-37.4,0-74.8,0-112.1
	c0.2-1.7-0.4-3.3-1.8-4.4c-20.9-20.8-41.7-41.7-62.5-62.5c-1.3-0.9-1.4-2.5-1.4-4c0-38,0-76.1,0-114.1
	C88.6,263.5,91.2,262.1,93,260.7z"/>
<path class="st0" d="M15.6,458.6c21.8-17,43.1-34.5,64.8-51.6c17.1,16,34.5,31.7,51.5,47.8c0.4,18.1,0.3,36.3,0.4,54.4
	c0.6,11.8,0.1,23.5,0.4,35.3C93.6,516,54.6,487.3,15.6,458.6z"/>
<path class="st0" d="M356.3,455.3c17.5-15.7,34.9-31.6,52.4-47.4c21.1,17.1,42,34.4,63.1,51.5c-33.2,24.5-66.6,48.7-99.9,73.1
	c-5.2,3.7-10.2,7.6-15.5,11.1C356.2,514.2,356.3,484.7,356.3,455.3z"/>
<path class="st0" d="M181.6,573.3c21-15.6,42-31.1,63-46.7c22.4,16.6,44.8,33.3,67.1,50c-22.2,16.7-44.8,32.8-67.1,49.3
	c-23-16.3-46.1-32.7-69.2-48.9C177.5,575.9,179.7,574.8,181.6,573.3z"/>
</svg>
