<?xml version="1.0" encoding="utf-8"?>
<!-- Generator: Adobe Illustrator 21.0.0, SVG Export Plug-In . SVG Version: 6.00 Build 0)  -->
<svg version="1.1" id="Layer_1" xmlns="http://www.w3.org/2000/svg" xmlns:xlink="http://www.w3.org/1999/xlink" x="0px" y="0px"
	 viewBox="0 0 747.3 790.2" style="enable-background:new 0 0 747.3 790.2;" xml:space="preserve">
<style type="text/css">
	.st0{fill:#58585A;stroke:#58585A;stroke-width:9.375000e-02;}
	.st1{stroke:#000000;stroke-width:9.375000e-02;}
	.st2{fill:#FFFFFF;stroke:#FFFFFF;stroke-width:9.375000e-02;}
</style>
<path class="st0" d="M246.6,8.2c32.9-3.9,66-6.3,99.1-7.1c2.7-0.1,5.4-1,8.1-0.3c3.6,0.7,7.2,0.1,10.9,0.1c6,0.3,12,0.1,18.1,0.2
	c2.4,0.3,4.6-1.2,7-1c10.8,2.3,21.9,0.9,32.8,2.1c23.8,1.2,47.5,3.1,71.2,6.1c4,0.5,8.1-0.2,12.1,0c-4.7,0.6-9.5,0.6-14.2,1.6
	c-24.1,4.4-48.5,7.1-73.1,6.8c-23,0.2-46.1-0.5-69.1,0.8c-11.6,0.4-23.3,0-34.9,1c-11.4,0-22.9,0.6-34.1-1.3
	c-12.9-3.4-26-6-39.1-8.8C243.2,8.3,244.9,8.3,246.6,8.2z"/>
<path class="st1" d="M199.6,6.4c13.8-3.6,28.4-1.8,42,1.9c13.1,2.8,26.2,5.4,39.1,8.8c11.3,1.9,22.8,1.3,34.1,1.3
	c11.6-0.9,23.3-0.6,34.9-1c23-1.4,46-0.6,69.1-0.8c24.5,0.4,49-2.4,73.1-6.8c4.7-1,9.5-1,14.2-1.6c17.9-0.6,35.8,3,52.6,9
	c21.4,7.1,41.6,17.4,60.6,29.4c5.8,2.8,12.3,3.2,18.4,4.9c16.1,4.7,32.9,5.4,49.2,9.4c9.4,2.3,18.8,4.7,27.8,8.1
	c11.1,4.3,23.5,10.2,28,22.1c5.4,13.9,4.9,29.2,4.5,43.9c-1.8,21.4-5.5,44-18.8,61.6c-3.7,5.5-9,9.6-13.2,14.7
	c-4.9,3-9.2,6.9-14.2,9.8c-1.4,1.1-3.6,1.8-3.6,3.9c-4.2,39.6-10.6,79.1-20.8,117.7c-3.6,15.3-8.8,30.1-12.9,45.3
	c-2.2,10.8-5.6,21.3-11,30.9c-5.1,11.4-9.4,23.2-14.6,34.6c-13.1,29.8-28.3,58.7-45.3,86.5c-0.3,0.2-0.8,0.7-1.1,0.9
	c-7.2,0.6-14.3,0.1-21.5,0.2c13.8-21.3,26.2-43.5,37.5-66.2c2.1-4.2,4.3-8.4,5.9-12.9c-11,7.6-22.9,13.9-35.3,18.8
	c-0.1-3.8-0.2-7.6-0.3-11.4c-4.6,1.5-9.2,3.3-13.8,5c2-4.1,1.8-9.8-2.2-12.7c-5.9-4.1-13.4-4.8-20.3-5.4c-21.2-0.7-42.2,2.5-63,6.1
	c-8,1.5-16,3.1-23.9,5.1c2.5-5.2,6.3-9.7,8.9-14.9c-21.4,0.3-42.2,7.3-61.1,17.1c-33.6,17.9-62.2,43.7-88.3,71
	c-4.1,0.8-8.3,0.4-12.5,0.5c-41.6,0-83.1,0-124.7,0c-5.1-4-10-8.3-15-12.3c2.6,3.8,4.8,7.8,7.5,11.5c-3.5,1.1-7.2,0.6-10.8,0.7
	c-3.6,0-7.1,0.3-10.7-0.2c-13.4-20.9-24.8-43-35.9-65.2c-2-3.6-4.7-6.7-7-10c-21.4-30.3-38.8-63.8-49.4-99.4c-1.4,1-2.8,2.1-3.7,3.6
	c-4.5,9.5-6,20-7.4,30.2c-0.8,8-1.7,16-1.7,24c-1.1,10-0.4,20.1-0.7,30.2c-2.6-2.5-3.8-6-5.7-9c-10.6-20.2-17-42.5-20.1-65.1
	c-5.8-39.9-3.5-80.7,3.7-120.2c-6.3-4.1-13.5-7-20.2-10.7c6.5-13.9,14.9-26.9,24.1-39.1c5-6.9,10.7-13.3,15.9-20.1
	c0.6-8.3-0.6-16.6-0.6-24.9c0-13-0.3-26,0.4-39c0.5-7.4,0.1-14.9,0.8-22.3c1.1-11.6,1.4-23.3,2.8-34.8c3.6-1.8,7.6-2.6,11.4-3.8
	c7.1-2.2,14.1-4.7,21.2-6.5c11.8-3,23.4-6.8,35.4-9.2c23.7-6,47.7-10.6,71.8-15.1c-0.9-6-1.6-12.4,1.4-17.9
	C187.7,10.9,193.8,8,199.6,6.4 M397.1,59.7c0.9-6,3.5-11.5,4.7-17.4c-5,0.4-10.1,0.3-15.1,0.6c-7.9,1.1-16,0.3-23.9,1.4
	c-20.3,0.9-40.5,2.1-60.7,3.3c3.8,7.8,7.6,15.6,12.5,22.7c3,4.1,6.2,8.3,10.7,10.8c-0.1,0.2-0.2,0.4-0.3,0.6
	c-19.8-6.6-37.1-20.2-48-38c-4.3-1-8.6-1.3-12.9-2.1c-11.6-1.5-23.1-4-34.7-5.2c4.4,21.2,15.1,41.3,30.9,56.2
	c12.6,11.9,28.7,19.9,45.6,23.5c12.9,2.9,26.3,4,39.6,2.7c-4.6,7.2-8.5,14.9-10.8,23.2c-1.8,6.9-1.9,14-1.2,21
	c-0.5-1.3-0.9-2.6-1.4-3.9c-3.3-6.9-6-14-9.1-20.9c-18.6,1.5-37.7-0.8-55.1-7.9c-18.2-7.1-34.2-19.6-45.9-35.3
	c-5,3-9.7,6.5-14.6,9.7c-1.1,0.7-2.2,1.8-1.7,3.3c1.7,14.1,4,28.2,7.8,41.9c4.9,18.6,11.4,37.6,24.2,52.4
	c-11.3-0.7-21.8-5.6-30.7-12.3c-18.1-13.7-29.2-34.5-36.3-55.7c-8.4,5.7-16,12.4-23.4,19.2c-2.9,2.9-6.1,5.9-8,9.6
	c-1,5.6,1.8,10.8,3.7,15.9c8.9,20.7,21.8,39.5,36.9,56.1c12.9,14,27.8,26.2,44.9,34.7c-21-6.6-41.3-15.4-61-25.3
	c-22.1-11.6-43.6-25.1-61-43.2c-0.7,4.3-0.4,8.6,0,12.9c0.9,12.3,3.2,24.5,7.2,36.1c11.1,34.6,32.5,64.9,57.7,90.7
	c-21.1-6.2-41.8-14.5-60.9-25.5c-13.9-8.2-27.1-18.1-36.6-31.2c7.5,39.1,19,77.7,35.7,113.9c10.9,23,24.2,45.4,43.2,62.7
	c8.3,7.3,17.5,14.1,28.2,17.3c-0.4-20.1,0.8-40.2,4.2-60c2.1-11.5,4.4-23.2,10.2-33.5c2.1-3.3,4.2-7.3,8.1-8.8
	c-1.2,11.4-1.7,22.8-1.8,34.2c0.5,26.4,4.2,53.7,17.9,76.8c5.5,8.6,12.1,17.2,21.2,22.2c-1.8-18.3-4-36.5-5-54.9
	c7.2,5.8,14.2,12,21.4,17.8c-0.4-11.1-1-22.4,2.4-33.1c0.8-2.9,2.5-5.4,4.7-7.4c1.2,10.8,3.3,21.7,7.7,31.7
	c4.2,10.3,11.3,19.9,21.7,24.6c-4.1-9.7-7.8-19.9-7.5-30.6c-0.1-13.2,5.9-25.9,15.1-35.2c14.4-14.9,33.9-23.7,53.4-29.9
	c2.9-1.1,6.2-1.2,8.9-2.9c-3.8-1-7.3-2.5-10.9-4.1c-19-8.3-37.4-19.1-51.6-34.5c-6.5-7.5-12.5-15.9-14.9-25.7
	c8.6,7.8,17.6,15.1,27.2,21.7c14.3,9.6,30,18.6,47.4,20.5c-2.2,2.8-5.3,4.6-8,6.8c20.7-3,41.8-4.9,62.7-3.6
	c23.1,1.1,46.4,3.3,68.9,9.1c10.8,2.6,21.7,6,31,12.2c4.6,2.8,7,8.3,6.8,13.6c0.5,8.2-3.2,16.3-9.5,21.4c8.8-2.6,17.7-5,26.9-5.8
	c3.7-0.2,7.6-0.3,11.1,1.4c0.4,1,0.9,2,1.3,3c2.8-1.4,4.5-4.6,7.4-6.2c16.5-11.3,36.9-14.6,56.3-17.5c10.5-2,21.8-4.6,29.1-12.9
	c6.3-7,5.9-17.5,2.5-25.7c-1.5-3.4-2.8-7.3-5.8-9.6c-6.4-3.6-14-2.4-21-2.5c-14,1.4-27.6,5.3-41,9.5c-5.3,1.5-10.2,4.6-15.9,4.7
	c-4.1,0.1-8.3,0.3-12.3-0.5c-6.1-1.8-11.6-5-17.3-7.8c-15.4-8.5-30.4-17.8-45.1-27.5c-4.3-28.2-1.7-57.9,10.1-84.1
	c8.4-18.4,21.9-34.4,39-45.3c7.6-4.8,15.6-9.3,24.5-11.3c8.1-2,16.5-2.1,24.8-1.7c19.9,1.4,39.1,8.1,56.9,17
	c7.6,4.2,15.6,8.1,24.3,9.4c8.4,1.6,17.2-1,24-5.9c9.3-7.1,15-17.9,18.7-28.9c2.8-8.1,4.8-16.5,5.9-25.1c0.9-11.6-1.2-23.4-5.8-34.1
	c-4.5-10.9-13.2-20.1-24.3-24.4c-20.7-8.5-42.7-13-64.4-18.2c-21.3-4.5-42.5-8.8-64-12c-17.6-2.6-35.3-5.8-53.1-4.8
	c5-9.4,15.4-15.8,26.1-15.3c11.4,0.4,21.9,5.9,31,12.4c13.3-0.2,26.6-0.8,40-1.3c-28-18.1-62-25.1-94.9-24.7
	C466.5,31.8,430,42.6,397.1,59.7 M511.5,55.8c13.5-0.2,27,1.8,40.1,4.7c-0.4-1-1-1.8-1.9-2.4c-7.1-4.9-15.2-9.4-24.1-8.9
	C520.3,49.1,515,51.7,511.5,55.8 M172.7,59.2c-12.1,2-24,5-35.9,7.5c-10.1,2-20,5-30,7.3c-14.5,3.9-28.9,8-43.2,12.5
	c-2.7,27.4-3.9,54.9-3.4,82.5c39-38.9,84.3-71.1,132-98.3c-0.9-4.8-2.2-9.5-3.1-14.3C183.6,57.1,178.1,58.1,172.7,59.2 M633.4,64.9
	c0.2,0.3,0.7,1,0.9,1.3c11.4,0.5,22.8,2.4,33.8,5.3c8.4,2.3,16.9,4.8,24.1,9.9c1,0.6,2,1.7,3.4,1.5c6.9-0.3,13.8-0.5,20.7-0.5
	c-0.1-0.3-0.3-1-0.4-1.3C690.7,67.7,661.6,63.2,633.4,64.9 M724,126.9c5.1,25.6-2.9,52.2-16.5,74c-1.7,3.2-4.4,5.8-5.8,9.2
	c11.4-7.4,19.6-18.7,25.3-30.8c8.7-18.9,12.4-39.8,13-60.5C734.4,120.8,729.2,124,724,126.9 M549.8,226c8.1-3.1,17-5.7,25.8-3.6
	c6.6,0.9,13.4,4.2,16.1,10.7c4.7,11.2,1.5,23.6-1.6,34.7c11.2-7,19.1-19.4,19.2-32.8c0.8,2.4,1.7,4.7,2.4,7.1c2.4-0.7,4.2-2.5,6.1-4
	c1.3,1.8,2.7,3.7,4.1,5.5c1.8-1.4,3.4-2.9,5.1-4.4c3.8,9.3,2.5,19.6,1.3,29.3c6.3-2,11.4-6.6,15.4-11.8c5.7-7.6,9.7-16.3,12.7-25.2
	c-9,4.1-19.3,3.4-28.6,0.7c-6.5-1.9-12.6-4.7-18.6-7.7c-9.3-4.3-18.1-10.3-28.3-12.1C568.9,210.7,557.5,217.4,549.8,226
	 M666.8,237.1c-1.3,6.8-4.6,13-8.2,18.8c-9.4,14.5-23.6,25.4-39.2,32.8c-1.5-9.8-3.5-19.6-5.2-29.4c-9.6,12.4-24.5,19-38.8,24.2
	c3.1-7.5,5.4-15.4,6.2-23.5c0.2-3.5,0.5-7.7-2.4-10.3c-2.6-2.1-6.3-1-8.9,0.5c-5.4,3.3-9,8.8-12,14.2c-5.5,10.9-9.3,22.7-11.3,34.7
	c-2,11.2-3,22.7-1.3,33.9c1,6,3.3,13,9.5,15.3c6.6,1.6,11.7-4,15.6-8.4c10.4-13.3,17-29.1,23.2-44.7c1.7,0.1,2.8,1.5,4.1,2.4
	c8.4,6.9,13.6,17.8,13.1,28.8c4.5-3.8,7.8-8.8,12-12.9c3.8-4.6,8-8.8,11.8-13.5c2.9,11.6,6.3,23.2,9.7,34.7c0.5,1.5,0.8,3.3,2.1,4.3
	c3.2,2.8,6,5.9,8.8,9.1c10.1-37.6,17.2-76.1,20.7-114.9C673.3,234.8,669.4,234.9,666.8,237.1 M542.9,264.2
	c-8.5,8.2-15.9,17.8-20.2,28.9c-4.9,12.2-6.7,26.1-2.7,38.8c4.1,1.5,8.2,3.2,12.5,4.1c-0.1-3-1-6-1.1-9c-2.1-19.5,3.8-39.1,13.2-56
	c2.8-5.3,6.4-10,9.2-15.2C549.5,257.6,546.5,261.5,542.9,264.2 M595,313.1c-4.8,15-14.4,27.7-24.4,39.6c8.7-4.4,17.9-8,27.5-10.1
	c13.3-2.6,27.1-4.2,40.5-2.1c-1.7-9.3-4.4-18.3-6.5-27.5c-8.5,7.9-16.2,16.9-25.4,24.1c-0.1-10.4-3.7-20.7-10.2-28.8
	C595.4,309.6,595.3,311.4,595,313.1z"/>
<path class="st0" d="M176.9,18.3c2.7-0.5,5.5-0.6,8-1.9c-3.1,5.5-2.4,11.9-1.4,17.9c-24,4.5-48.1,9.1-71.8,15.1
	c-12,2.4-23.6,6.3-35.4,9.2c-7.2,1.8-14.2,4.3-21.2,6.5c-3.8,1.2-7.8,2-11.4,3.8c-1.4,11.5-1.7,23.2-2.8,34.8
	c-0.7,7.4-0.3,14.9-0.8,22.3c-0.8,13-0.5,26-0.4,39c0,8.3,1.2,16.6,0.6,24.9c-5.3,6.7-10.9,13.1-15.9,20.1
	c-0.4-14.6-1.6-29.3-1.8-43.9c-0.8-36.5,1.5-73.1,4.9-109.4c9.8-4.5,20.3-7.1,30.5-10.5C96.9,34.5,136.7,25.4,176.9,18.3z"/>
<path class="st0" d="M558.5,17.2C600,25,641.3,33.8,681.7,46.1c10.3,3.3,20.7,6.3,30.8,10.3c1.3,4.1-0.2,8.9,2.1,12.7
	c-9-3.5-18.5-5.8-27.8-8.1c-16.2-4-33.1-4.7-49.2-9.4c-6.1-1.8-12.6-2.2-18.4-4.9C600.1,34.6,579.9,24.3,558.5,17.2z"/>
<path class="st2" d="M397.1,59.7c32.9-17.1,69.4-27.9,106.6-28.9c33-0.4,67,6.6,94.9,24.7c-13.3,0.6-26.6,1.1-40,1.3
	c-9.1-6.5-19.6-12-31-12.4c-10.7-0.5-21.1,6-26.1,15.3c17.8-1,35.5,2.2,53.1,4.8c21.5,3.1,42.8,7.5,64,12
	c21.7,5.2,43.7,9.8,64.4,18.2c11.1,4.3,19.8,13.5,24.3,24.4c4.6,10.7,6.7,22.5,5.8,34.1c-1.1,8.5-3.1,16.9-5.9,25.1
	c-3.7,10.9-9.4,21.7-18.7,28.9c-6.8,4.9-15.6,7.5-24,5.9c-8.7-1.3-16.7-5.2-24.3-9.4c-17.7-9-36.9-15.6-56.9-17
	c-8.3-0.4-16.7-0.3-24.8,1.7c-8.8,2-16.8,6.5-24.5,11.3c-17.1,10.8-30.7,26.9-39,45.3c-11.7,26.2-14.3,55.9-10.1,84.1
	c14.7,9.7,29.7,19,45.1,27.5c5.6,2.8,11.2,6,17.3,7.8c4,0.9,8.2,0.6,12.3,0.5c5.6-0.1,10.5-3.2,15.9-4.7c13.4-4.1,27-8.1,41-9.5
	c7,0,14.6-1.2,21,2.5c3.1,2.3,4.3,6.2,5.8,9.6c3.4,8.2,3.7,18.7-2.5,25.7c-7.3,8.3-18.7,11-29.1,12.9c-19.4,2.9-39.7,6.3-56.3,17.5
	c-2.9,1.6-4.5,4.8-7.4,6.2c-0.5-1-0.9-2-1.3-3c-3.5-1.6-7.4-1.6-11.1-1.4c-9.2,0.8-18.1,3.2-26.9,5.8c6.3-5.1,10-13.2,9.5-21.4
	c0.2-5.3-2.2-10.7-6.8-13.6c-9.4-6.1-20.3-9.5-31-12.2c-22.5-5.8-45.8-8-68.9-9.1c-21-1.3-42,0.6-62.7,3.6c2.7-2.2,5.8-4,8-6.8
	c-17.4-1.9-33.1-10.9-47.4-20.5c-9.6-6.6-18.6-13.9-27.2-21.7c2.4,9.8,8.4,18.2,14.9,25.7c14.2,15.4,32.6,26.2,51.6,34.5
	c3.5,1.6,7.1,3.1,10.9,4.1c-2.7,1.7-6,1.8-8.9,2.9c-19.5,6.2-39,14.9-53.4,29.9c-9.2,9.3-15.2,22-15.1,35.2
	c-0.4,10.7,3.4,20.9,7.5,30.6c-10.4-4.6-17.4-14.3-21.7-24.6c-4.5-10-6.5-20.9-7.7-31.7c-2.1,2.1-3.9,4.6-4.7,7.4
	c-3.4,10.7-2.8,22.1-2.4,33.1c-7.2-5.8-14.2-12-21.4-17.8c1.1,18.3,3.2,36.6,5,54.9c-9.1-5-15.7-13.6-21.2-22.2
	c-13.7-23-17.4-50.4-17.9-76.8c0.1-11.4,0.6-22.9,1.8-34.2c-3.9,1.4-6,5.4-8.1,8.8c-5.8,10.3-8.1,22-10.2,33.5
	c-3.3,19.8-4.5,39.9-4.2,60c-10.7-3.2-19.9-10-28.2-17.3c-18.9-17.3-32.2-39.7-43.2-62.7C89,361.8,77.5,323.2,70,284.1
	c9.6,13.1,22.8,23,36.6,31.2c19.1,11,39.7,19.3,60.9,25.5c-25.2-25.7-46.7-56.1-57.7-90.7c-4-11.7-6.3-23.9-7.2-36.1
	c-0.4-4.3-0.6-8.6,0-12.9c17.4,18.1,38.9,31.6,61,43.2c19.6,9.9,39.9,18.7,61,25.3c-17-8.5-32-20.7-44.9-34.7
	c-15.1-16.7-28-35.4-36.9-56.1c-1.9-5.1-4.7-10.3-3.7-15.9c1.9-3.7,5.1-6.6,8-9.6c7.5-6.8,15.1-13.5,23.4-19.2
	c7.1,21.2,18.2,42,36.3,55.7c8.9,6.7,19.5,11.6,30.7,12.3c-12.8-14.8-19.3-33.8-24.2-52.4c-3.8-13.7-6.1-27.8-7.8-41.9
	c-0.6-1.4,0.6-2.6,1.7-3.3c4.9-3.2,9.6-6.7,14.6-9.7c11.6,15.7,27.7,28.1,45.9,35.3c17.4,7.1,36.5,9.4,55.1,7.9
	c3.1,6.9,5.8,14,9.1,20.9c0.5,1.3,0.9,2.6,1.4,3.9c-0.6-7-0.5-14.2,1.2-21c2.3-8.3,6.1-16,10.8-23.2c-13.2,1.3-26.6,0.1-39.6-2.7
	c-16.9-3.6-32.9-11.7-45.6-23.5c-15.9-14.9-26.5-35-30.9-56.2c11.6,1.2,23.1,3.7,34.7,5.2c4.3,0.8,8.7,1.1,12.9,2.1
	c10.9,17.8,28.2,31.4,48,38c0.1-0.1,0.2-0.4,0.3-0.6c-4.5-2.5-7.8-6.7-10.7-10.8c-4.9-7.1-8.7-14.9-12.5-22.7
	c20.2-1.2,40.5-2.4,60.7-3.3c7.9-1.1,16-0.3,23.9-1.4c5-0.3,10.1-0.2,15.1-0.6C400.6,48.2,398,53.7,397.1,59.7 M480.7,72.8
	c-35.9,3.8-71.5,15.6-100.9,36.9c11.4-5.7,24-9.2,36.7-10.1c-4.5,8.8-11,16.6-19.1,22.3c-0.8,0.5-1.6,1-2.5,1.4
	c6.1-1.6,12.3-2.7,18.5-3.7c19.3-3,39.4-5.1,58.4,0.6c8.4,2.5,16.4,8,19.9,16.2c36.4-1.7,72.8-3.6,109.2-5.3
	c6.9-1,14.1,0.1,20.9-1.3c2.8-0.4,5.5-0.4,8.3-0.3c-6.6-1.5-13.6-0.5-20.3-1.7c-15-0.9-29.9-2.5-44.9-3.5c4.1-3.2,7.7-6.9,11.4-10.7
	c-4.1-1.3-8.4-1.1-12.5-1.9c-14.7-1.7-29.3-3.7-44-5.3c-15.8-1.4-31.4-3.8-47.2-5.1c4.3-0.2,8.7-0.1,13,0.5
	c48.4,3.1,96.7,5.9,145.1,9.3c7,0,13.9,1.6,20.9,0.8c-2.7-0.3-5.3-0.4-7.9-0.8c-17.2-3.8-34.8-6-52.2-9.5c4.4-3.4,9.3-6,13.8-9.2
	c2-1.6,4.8-2.3,6.3-4.6C569.6,74,524.8,68.4,480.7,72.8 M354.8,173c-0.1,14,3,28.8,12.4,39.6c0.8,1.1,2.3,2,2.3,3.5
	c-4.1,1.3-7.9,3.4-11.7,5.4c17.7,6.5,35.3,13.5,53,20.2c-0.9-1.1-1.9-2-2.9-2.9c-18.3-16.2-33.2-36.6-40.7-59.9
	c-4.4-13.9-6.1-28.5-4.7-43C358.3,147.9,355.2,160.3,354.8,173 M492,140.8c0.1,6.6,0.4,13.1,0.5,19.7c3.8,0.2,7.5,0,11.3-0.2
	c9-0.9,18-0.5,27-1.4c20.3-0.8,40.6-2,61-2.9c9.3-1,18.8,0,27.9-2c-9.3-1.4-18.7-1.3-28-2.4c-6.5,0-12.8-1.3-19.3-1.3
	c-1-4.3-2-8.6-2.6-12.9c-9-0.4-18,1-27,1C525.8,139.2,508.9,140.1,492,140.8 M297.5,225.6c-4.4-3.5-8-7.9-11.1-12.6
	c0.4,18.5,5.1,37.2,15.5,52.6c9.7,14.5,24.3,25.7,40.6,31.7c7.2,3.1,15,4.4,22.5,6.6c21.2,6.5,41.6,15.4,61.8,24.7
	c13.3,6.5,26.8,12.6,39.5,20c-6.1-25.7-8.3-52.4-4.9-78.7c3.6-23.8,13.7-47,31.2-63.8c22.4-21.9,53.8-32.5,84.6-34.4
	c-0.2-3.3-0.3-6.7-0.4-10c-28.2,1.5-56.3,2.8-84.5,4.1c-0.1,5.7-3.8,10.4-7.3,14.6c-7.8,9.2-17.1,17.1-26.5,24.7
	c-5.1,3.8-10,8-13.6,13.3c-9.1,12.6-12.2,28.4-13.6,43.6c-0.7,14.1,0,28.3,2.7,42.2c-24,1.7-48.7-2.3-70-13.7
	c-14.3-7.6-27.1-18.3-36.5-31.5c13.3,6.8,27.9,12.9,43.2,11.7c-2.3-1.9-5.2-2.7-7.7-4.4c-15.3-8.7-27.8-21.7-37.4-36.3
	c-14-21.6-22.9-46.5-26.7-72C294.4,180.2,294,203.2,297.5,225.6z"/>
<path class="st2" d="M511.5,55.8c3.5-4.1,8.7-6.7,14.1-6.5c8.9-0.5,17,4,24.1,8.9c0.9,0.5,1.5,1.4,1.9,2.4
	C538.5,57.6,525,55.6,511.5,55.8z"/>
<path class="st2" d="M172.7,59.2c5.4-1.1,10.9-2.1,16.3-2.9c0.9,4.8,2.1,9.5,3.1,14.3c-47.7,27.2-93,59.4-132,98.3
	c-0.5-27.5,0.7-55.1,3.4-82.5c14.3-4.5,28.7-8.6,43.2-12.5c10-2.3,19.9-5.2,30-7.3C148.8,64.2,160.7,61.2,172.7,59.2z"/>
<path class="st2" d="M633.4,64.9c28.2-1.7,57.3,2.9,82.5,16.1c0.1,0.3,0.3,1,0.4,1.3c-6.9,0-13.8,0.3-20.7,0.5
	c-1.3,0.2-2.3-0.8-3.4-1.5c-7.2-5.1-15.7-7.6-24.1-9.9c-11.1-2.8-22.4-4.8-33.8-5.3C634.1,65.9,633.7,65.2,633.4,64.9z"/>
<path class="st1" d="M480.7,72.8c44.1-4.4,89,1.3,130.9,15.2c-1.5,2.2-4.3,3-6.3,4.6c-4.5,3.2-9.4,5.8-13.8,9.2
	c17.3,3.5,34.9,5.7,52.2,9.5c2.6,0.4,5.3,0.6,7.9,0.8c-7,0.8-13.9-0.8-20.9-0.8c-48.4-3.4-96.7-6.2-145.1-9.3
	c-4.3-0.6-8.7-0.7-13-0.5c15.8,1.2,31.4,3.7,47.2,5.1c14.7,1.6,29.3,3.6,44,5.3c4.1,0.8,8.4,0.5,12.5,1.9
	c-3.6,3.7-7.3,7.4-11.4,10.7c15,0.9,29.9,2.6,44.9,3.5c6.7,1.1,13.6,0.2,20.3,1.7c-2.8-0.1-5.6-0.1-8.3,0.3
	c-6.8,1.4-14,0.3-20.9,1.3c-36.4,1.7-72.8,3.6-109.2,5.3c-3.5-8.3-11.5-13.8-19.9-16.2c-19-5.7-39.1-3.6-58.4-0.6
	c-6.2,1-12.4,2.2-18.5,3.7c0.8-0.5,1.6-1,2.5-1.4c8.1-5.7,14.6-13.5,19.1-22.3c-12.7,1-25.3,4.4-36.7,10.1
	C409.2,88.4,444.8,76.6,480.7,72.8z"/>
<path class="st2" d="M724,126.9c5.3-2.9,10.4-6.1,16.1-8.1c-0.7,20.7-4.4,41.6-13,60.5c-5.8,12.1-14,23.4-25.3,30.8
	c1.4-3.4,4.1-6,5.8-9.2C721.1,179.1,729.1,152.5,724,126.9z"/>
<path class="st1" d="M354.8,173c0.4-12.7,3.6-25.1,7.6-37.1c-1.3,14.5,0.4,29.1,4.7,43c7.5,23.3,22.5,43.8,40.7,59.9
	c1,0.9,2,1.8,2.9,2.9c-17.7-6.7-35.2-13.7-53-20.2c3.8-2.1,7.6-4.1,11.7-5.4c0-1.5-1.5-2.4-2.3-3.5C357.8,201.8,354.7,187,354.8,173
	z"/>
<path class="st1" d="M492,140.8c16.9-0.8,33.8-1.6,50.8-2.4c9,0,18-1.3,27-1c0.6,4.4,1.5,8.6,2.6,12.9c6.5,0,12.9,1.2,19.3,1.3
	c9.3,1.1,18.7,1,28,2.4c-9.1,2-18.6,1-27.9,2c-20.3,0.9-40.6,2.1-61,2.9c-9,0.9-18,0.4-27,1.4c-3.8,0.2-7.5,0.4-11.3,0.2
	C492.4,154,492.1,147.4,492,140.8z"/>
<path class="st1" d="M297.5,225.6c-3.6-22.4-3.2-45.4,1.6-67.6c3.8,25.5,12.7,50.3,26.7,72c9.6,14.6,22.1,27.6,37.4,36.3
	c2.5,1.6,5.4,2.5,7.7,4.4c-15.3,1.3-29.9-4.9-43.2-11.7c9.5,13.2,22.3,23.9,36.5,31.5c21.3,11.5,46,15.5,70,13.7
	c-2.7-13.9-3.4-28.1-2.7-42.2c1.4-15.2,4.5-30.9,13.6-43.6c3.6-5.3,8.5-9.4,13.6-13.3c9.4-7.6,18.7-15.4,26.5-24.7
	c3.4-4.2,7.1-8.9,7.3-14.6c28.2-1.3,56.3-2.7,84.5-4.1c0.1,3.3,0.2,6.6,0.4,10c-30.8,2-62.2,12.5-84.6,34.4
	c-17.5,16.8-27.6,40.1-31.2,63.8c-3.4,26.2-1.2,53,4.9,78.7c-12.8-7.4-26.3-13.5-39.5-20c-20.2-9.3-40.6-18.1-61.8-24.7
	c-7.5-2.2-15.3-3.5-22.5-6.6c-16.3-6.1-30.9-17.2-40.6-31.7c-10.4-15.4-15.2-34.2-15.5-52.6C289.5,217.7,293.1,222.1,297.5,225.6z"
	/>
<path class="st2" d="M549.8,226c7.7-8.6,19.1-15.3,31-13.6c10.3,1.9,19,7.8,28.3,12.1c6,3,12.1,5.8,18.6,7.7
	c9.3,2.7,19.6,3.4,28.6-0.7c-3,9-7,17.7-12.7,25.2c-4,5.2-9.1,9.8-15.4,11.8c1.2-9.7,2.5-20-1.3-29.3c-1.7,1.5-3.3,3-5.1,4.4
	c-1.4-1.8-2.8-3.7-4.1-5.5c-1.9,1.5-3.6,3.4-6.1,4c-0.7-2.4-1.6-4.8-2.4-7.1c-0.1,13.4-8,25.8-19.2,32.8c3.1-11.1,6.3-23.6,1.6-34.7
	c-2.7-6.5-9.5-9.8-16.1-10.7C566.9,220.3,558,222.9,549.8,226z"/>
<path class="st0" d="M700.9,221.2c5-2.9,9.3-6.8,14.2-9.8c0.6,5.3-0.5,10.5-0.8,15.7c-10.1,111.7-45.5,221.2-103.9,317.1
	c-0.3,1.4,1.8,1.3,2.7,1c5.6-2.4,11.6-3.9,17.7-3.9c17.2-0.2,34.3,0.1,51.5-0.1c4.6,23.4,9,46.8,13,70.2c-1.9-0.1-3.9-0.3-5.8-0.4
	c2.5,11.2,1.3,22.7,1.6,34.1c0,13.2,0.8,27.7-7.2,39.1c-7.2,11.3-21.2,16-34,15.9c-54.4,0-108.8,0-163.1,0
	c-34.1,32.8-70.5,63.3-110.7,88.4c-3.8,2.6-9.2,2-12.8-0.7c-37-23.4-70.9-51.3-102.7-81.3c-2-1.8-3.7-4.1-6.2-5.4
	c0.6-0.6,1.1-1.2,1.7-1.8c7.6,0.6,15.3,0.1,22.9,0.4c2.1,2.7,4.6,4.9,7.2,7c13.5,12.2,27.5,24,41.9,35.2
	c13.6,10.5,27.5,20.8,42.1,29.7c25.5-15.9,49.2-34.7,72-54.3c6.4-5.7,13-11.2,19-17.3c-9.5,0-19.2-0.6-28.7,0.3
	c-3.9-0.5-7.8-0.4-11.6-0.4c-26.7,0-53.3,0-80,0c-11.3-0.4-22.6-0.4-34-0.2c-6.6,0.4-13.2,0.5-19.8,0.1c-10-1-20.2,0-30.3-0.6
	c-5,0.4-10,0.6-15,0.4c-65.6,0-131.2,0.1-196.8,0c-0.1-52.8,0-105.6,0-158.5c22.6,0.1,45.3,0,67.9,0c5.4-0.1,10.7,1.4,15.7,3.2
	c0.5-3-1.9-5.3-3.2-7.8c-30.6-52-54.9-107.7-71.9-165.6c-0.3-0.3-0.9-0.9-1.2-1.2c0.9-1.5,2.3-2.6,3.7-3.6
	c10.6,35.6,28,69.1,49.4,99.4c2.3,3.4,5,6.5,7,10c11.1,22.2,22.5,44.3,35.9,65.2c3.5,0.5,7.1,0.2,10.7,0.2c3.6-0.1,7.3,0.4,10.8-0.7
	c0.2,0.2,0.5,0.6,0.7,0.8c2.3,0.1,4.6,0,6.9,0c41.6,0,83.1,0,124.7,0c4.2,0,8.4,0.3,12.5-0.5c3.5,0.6,7,0.5,10.5,0.5
	c81.8,0,163.6,0,245.4,0c7.2-0.2,14.4,0.4,21.5-0.2c0.3-0.2,0.8-0.7,1.1-0.9c17-27.8,32.1-56.7,45.3-86.5
	c5.2-11.4,9.5-23.2,14.6-34.6c5.4-9.6,8.8-20.2,11-30.9c4.1-15.2,9.3-30,12.9-45.3c10.2-38.5,16.6-78,20.8-117.7
	C697.3,223,699.5,222.2,700.9,221.2 M57.4,553.7c-0.2,43.8,0,87.6-0.1,131.4c-0.5,2.2,2,2.1,3.4,2.1c9.6-0.6,19.3-0.2,29-0.4
	c13.4,0.6,26.7-0.3,40.1,0.1c9-0.4,18,0.6,26.9-0.1c18.7-0.1,37.3,0.2,56,0c41.7,0.5,83.4-0.3,125.1,0.2c-0.2-3.7-1.3-7.3-2.1-10.9
	c-4-19.7-8.7-39.3-12.8-59c0.2-4.6,2.3-8.9,3.2-13.4c2.5-11.7,6.4-23,8.9-34.7c1.1-5.1,2.9-10.1,3.9-15.3c-28.8-0.2-57.5,0-86.3-0.1
	c-0.5,0.5-1.4,1.4-1.9,1.8c-7.4-2.5-15.3-1.6-23-1.8c-13.8,0-27.6-0.1-41.4,0.1c-0.1,4.8,0.1,9.6-0.2,14.4
	c-1.8-4.6-1.6-9.7-3.1-14.4c-14.5,0-29.1,0-43.6,0c-1.4,5.4-2,11-3.2,16.4c-2-4.5-4.4-9-8.7-11.8c-6.2-4.8-14.4-4.8-21.9-4.6
	C89.6,553.7,73.5,553.5,57.4,553.7 M341.3,556.9c-3.9,14-8.2,27.9-11.7,42c6.2,0,12.3-0.1,18.5,0c0.1,29.6,0.1,59.1,0,88.7
	c29.6-0.1,59.3,0,88.9,0c0.3-0.5,1-1.5,1.4-2c3.6,1.2,7.4,2,11.2,2c66,0,132,0,198,0c7.5,0.3,15.6-1.1,21.6-6.1
	c6.1-4.9,8.7-13,8.8-20.5c0-13,0-26,0-39c0.1-5.3-1.3-10.6-4.5-14.9c-3.5-4.8-9.3-7.1-15-7.8c7.1-1.1,14.4-0.4,21.6-0.5
	c-1.1-8.4-3.2-16.6-4.5-24.9c-1.5-6.8-2.1-13.7-3.8-20.4c-13.4,0-26.8,0-40.2,0c-6.9,0-14,1.9-19.2,6.5c-5.2-3.7-11.2-6.4-17.8-6.5
	c-49.4-0.1-98.7,0-148.1,0c-2.7-0.1-5.2,1.1-7.9,1c-4.9-1.6-10-0.7-15.1-0.9c-26.7,0-53.4-0.1-80.1,0
	C341.9,553.4,341.8,555.8,341.3,556.9z"/>
<path class="st2" d="M666.8,237.1c2.6-2.2,6.5-2.3,9.5-3.9c-3.4,38.8-10.6,77.3-20.7,114.9c-2.8-3.2-5.6-6.3-8.8-9.1
	c-1.4-1-1.6-2.8-2.1-4.3c-3.4-11.5-6.7-23-9.7-34.7c-3.8,4.6-8,8.9-11.8,13.5c-4.2,4.1-7.5,9.1-12,12.9c0.6-11-4.7-21.8-13.1-28.8
	c-1.3-1-2.4-2.3-4.1-2.4c-6.2,15.6-12.8,31.4-23.2,44.7c-3.9,4.4-9.1,10-15.6,8.4c-6.2-2.4-8.5-9.4-9.5-15.3
	c-1.7-11.3-0.7-22.8,1.3-33.9c2.1-12,5.8-23.8,11.3-34.7c3-5.4,6.5-10.9,12-14.2c2.6-1.5,6.3-2.6,8.9-0.5c2.9,2.5,2.6,6.8,2.4,10.3
	c-0.8,8.1-3.1,16-6.2,23.5c14.4-5.3,29.2-11.8,38.8-24.2c1.7,9.8,3.8,19.5,5.2,29.4c15.5-7.4,29.8-18.3,39.2-32.8
	C662.2,250,665.4,243.8,666.8,237.1z"/>
<path class="st0" d="M542.9,264.2c3.7-2.8,6.6-6.7,11-8.5c-2.8,5.2-6.5,10-9.2,15.2c-9.4,17-15.3,36.5-13.2,56c0.2,3,1,5.9,1.1,9
	c-4.3-0.9-8.4-2.6-12.5-4.1c-4-12.7-2.2-26.6,2.7-38.8C526.9,282,534.4,272.4,542.9,264.2z"/>
<path class="st2" d="M595,313.1c0.3-1.7,0.4-3.5,1.6-4.9c6.5,8.1,10.1,18.4,10.2,28.8c9.2-7.2,16.9-16.1,25.4-24.1
	c2,9.2,4.7,18.3,6.5,27.5c-13.4-2.1-27.2-0.5-40.5,2.1c-9.6,2.1-18.8,5.7-27.5,10.1C580.6,340.8,590.2,328.1,595,313.1z"/>
<path class="st2" d="M402.6,469.7c18.9-9.8,39.7-16.8,61.1-17.1c-2.6,5.2-6.4,9.6-8.9,14.9c7.9-2,15.9-3.6,23.9-5.1
	c20.8-3.6,41.9-6.8,63-6.1c7,0.6,14.4,1.2,20.3,5.4c4,2.9,4.2,8.6,2.2,12.7c4.6-1.7,9.1-3.5,13.8-5c0.1,3.8,0.2,7.6,0.3,11.4
	c12.4-4.9,24.3-11.2,35.3-18.8c-1.6,4.4-3.8,8.7-5.9,12.9c-11.3,22.7-23.8,44.9-37.5,66.2c-81.8,0-163.6,0-245.4,0
	c-3.5,0-7,0.1-10.5-0.5C340.4,513.4,368.9,487.6,402.6,469.7z"/>
<path class="st2" d="M162,528.8c5,4.1,9.9,8.3,15,12.3c-2.3,0.1-4.6,0.2-6.9,0c-0.2-0.2-0.5-0.6-0.7-0.8
	C166.9,536.6,164.6,532.6,162,528.8z"/>
<path class="st1" d="M57.4,553.7c16.1-0.2,32.2,0,48.4-0.1c7.5-0.2,15.7-0.2,21.9,4.6c4.2,2.8,6.7,7.3,8.7,11.8
	c1.3-5.4,1.8-11,3.2-16.4c14.5,0.1,29.1,0,43.6,0c1.5,4.7,1.3,9.8,3.1,14.4c0.2-4.8,0.1-9.6,0.2-14.4c13.8-0.2,27.6,0,41.4-0.1
	c7.7,0.1,15.6-0.8,23,1.8c0.5-0.5,1.4-1.4,1.9-1.8c28.8,0.2,57.5-0.1,86.3,0.1c-1.1,5.1-2.8,10.1-3.9,15.3
	c-2.6,11.7-6.4,23-8.9,34.7c-0.9,4.5-3,8.8-3.2,13.4c4.1,19.7,8.8,39.3,12.8,59c0.8,3.6,1.9,7.2,2.1,10.9
	c-41.7-0.4-83.4,0.3-125.1-0.2c-18.7,0.2-37.3-0.1-56,0c-9,0.6-17.9-0.4-26.9,0.1c-13.4-0.4-26.7,0.5-40.1-0.1
	c-9.7,0.1-19.3-0.2-29,0.4c-1.4,0-3.9,0.1-3.4-2.1C57.4,641.3,57.2,597.5,57.4,553.7 M69.4,566c0,36.3,0,72.6,0,108.9
	c13.1-0.1,26.2,0,39.3-0.1c4.3,0,9-0.6,12.5-3.5c2.9-3,4-7.3,4.1-11.3c0-27,0-54,0-81c0.1-3.1-0.8-6.3-2.6-8.8
	c-2.3-3-6.3-4.3-10-4.2C98.3,566,83.8,566.1,69.4,566 M133.5,654.9c-1.2,6.7-2.8,13.3-3.5,20.1c7.4-0.2,14.8,0,22.1-0.1
	c1-4.4,0.7-9.1,2.2-13.3c4.8,0.2,9.6-0.3,14.3,0.3c0.6,2.5,0.6,5,0.9,7.5c0.4,1.8,0.6,3.6,0.8,5.5c7.4,0.2,14.8-0.1,22.1,0.1
	c-1.3-12-4.1-23.8-6.2-35.8c-4.2-24.4-8.9-48.7-13.1-73c-7.9-0.3-15.8,0-23.6-0.2C144.1,595.6,138.9,625.2,133.5,654.9 M198.5,566
	c0,36.3-0.1,72.6,0,108.9c7.3-0.1,14.7,0,22,0c-0.1-11.5,0-23,0-34.5c0.7,0,2,0.1,2.6,0.1c3.4,11.4,7.2,22.8,10.3,34.3
	c7.6,0.2,15.3,0,23,0.1c-3.4-11.5-7.4-22.9-11.2-34.3c4.3-0.5,8.8-3.2,9.3-7.8c0.3-12.9-0.1-25.8,0.5-38.7c-1-6.5,0.5-13.2-0.9-19.7
	c-1.5-5.2-7-8.4-12.3-8.3C227.3,566,212.9,566.1,198.5,566 M263.4,566.2c0,36.2,0.1,72.3-0.1,108.5c7.6,0.5,15.2,0.1,22.8,0.2
	c0-14.8,0-29.7,0-44.5c1.4,0,2.7,0,4.1,0c3.1,14.8,5.5,29.7,8.5,44.5c8.1,0,16.2,0,24.3,0c-4.3-18.6-8.1-37.2-12.4-55.8
	c-1.4-3.9,0.9-7.6,1.6-11.4c3.9-13.8,7.1-27.9,10.9-41.7c-7.6,0-15.2,0.1-22.9,0c-2.1,8-4,16-5.8,24c-1.6,7.6-3.6,15.1-5.5,22.6
	c-1,0-2,0-2.9,0c0-15.5,0-31,0-46.5C278.6,566.2,271,565.8,263.4,566.2z"/>
<path class="st1" d="M341.3,556.9c0.5-1.2,0.5-3.5,2.4-3.2c26.7-0.1,53.4,0,80.1,0c5,0.2,10.2-0.7,15.1,0.9c2.7,0.1,5.2-1,7.9-1
	c49.4,0,98.7,0,148.1,0c6.5,0.1,12.5,2.8,17.8,6.5c5.2-4.7,12.3-6.5,19.2-6.5c13.4,0,26.8,0,40.2,0c1.7,6.7,2.3,13.6,3.8,20.4
	c1.4,8.3,3.5,16.5,4.5,24.9c-7.2,0.1-14.5-0.6-21.6,0.5c5.7,0.7,11.5,3,15,7.8c3.2,4.2,4.6,9.6,4.5,14.9c-0.1,13,0,26,0,39
	c-0.2,7.6-2.7,15.7-8.8,20.5c-5.9,5-14,6.3-21.6,6.1c-66,0-132,0-198,0c-3.8,0-7.6-0.9-11.2-2c-0.3,0.5-1,1.5-1.4,2
	c-29.6,0-59.3,0-88.9,0c0-29.6,0.1-59.1,0-88.7c-6.2-0.1-12.3,0-18.5,0C333.2,584.8,337.4,570.9,341.3,556.9 M351.3,566.1
	c-1.8,6.8-3.8,13.6-5.7,20.3c4.9,0.1,9.7-0.1,14.6,0.1c-0.2,29.5,0.1,59-0.1,88.5c7.6,0.4,15.3,0.1,22.9,0.1c0-29.6,0-59.1,0-88.7
	c4.8,0,9.7,0,14.5,0c-1.5-6.8-3.7-13.5-5.3-20.3C378.6,565.9,365,566.1,351.3,566.1 M403.1,566.2c0.1,36.3,0.1,72.5,0,108.8
	c7.4,0.3,14.9,0.3,22.3,0c-0.1-36.3-0.1-72.6,0-108.9C418,566,410.5,565.9,403.1,566.2 M439.6,567.7c-3.6,2-5.3,6.3-5.5,10.3
	c0,27.4,0,54.7,0,82.1c0.2,4.1,1,8.6,4.1,11.5c3.3,3.2,8.3,3.5,12.6,3.5c12.9-0.2,25.8,0.2,38.8-0.2c-0.1-21-0.1-41.9,0-62.8
	c-7.2,0-14.4,0-21.5,0c0.1,13.6,0,27.2,0,40.8c-0.1,0.5-0.3,1.4-0.4,1.9c-3.3,0.8-6.8,0.1-10.2,0.4c-1.4-1.5-1-3.5-1.1-5.3
	c0.1-20.7-0.1-41.4,0.1-62.1c0.2-0.3,0.6-1,0.9-1.3c8.3-0.4,16.7,0,25-0.2c-1.3-6.8-2.6-13.6-4-20.4c-10.2,0-20.4,0.1-30.6,0
	C445,566,442,566.2,439.6,567.7 M497.9,566.1c0.1,36.3,0,72.7,0,109c13.8,0.1,27.5,0.1,41.3,0l0.7-0.6c1-6.6,2.3-13.1,3.5-19.7
	c-7.6,0-15.2-0.1-22.8,0.1c-0.3-7.8,0-15.6-0.1-23.4c6,0,11.9,0,17.9,0c0.1-6.4,0-12.9,0.1-19.3c-6,0-12,0-17.9,0
	c-0.1-8.5,0.1-17.1-0.1-25.6c8-0.3,15.9-0.1,23.9-0.1c-1.1-6.7-3-13.3-3.4-20c-2-0.4-4.1-0.5-6.1-0.4
	C522.5,566.2,510.2,565.9,497.9,566.1 M551.4,566c0,36.4,0,72.8,0,109.2c7.4-0.1,14.8,0.2,22.1-0.2c-0.1-11.5,0-23-0.1-34.4
	c0.6,0,2,0,2.6,0c3.7,11.4,7,23,10.5,34.5c7.6,0.1,15.3,0,22.9,0c-3.6-11.5-7.3-23-11.3-34.4c5.3,0.1,9.8-4.5,9.8-9.7
	c0.1-16.7,0-33.3,0-50c0-3.9-0.7-8-3.4-11c-2.8-3-7-4.1-11-4C579.6,566.1,565.5,566.1,551.4,566 M622.5,568c-4,2-5.7,6.8-5.6,11.1
	c0,13.3,0,26.7,0,40c-0.1,3.8,1.5,8.2,5.4,9.6c7,2.6,15-0.7,21.9,2c0,7.9,0.2,15.7-0.1,23.6c-8.6,1-17.3,0.2-25.9,0.4
	c0.5,4.6,1.8,9,2.4,13.5c0.5,2.2,0.9,4.5,1.4,6.7c8.9,0.4,17.9,0,26.8,0.2c4.4,0,9.4,0,13-3.1c3.6-2.9,4.3-7.8,4.4-12.1
	c0-13,0-26,0-39c0-4.2-2.6-8.5-6.9-9.4c-6.5-0.9-13-0.1-19.5-0.5c-2-1-1.5-3.4-1.5-5.2c0.1-5.9-0.1-11.8,0.1-17.7
	c0-1.4,1.6-2,2.7-1.9c8.2-0.1,16.4,0,24.5,0c-0.9-6.9-2.5-13.6-3.7-20.4c-9.7,0-19.5,0.1-29.2,0C629.2,566,625.5,566.1,622.5,568z"
	/>
<path class="st2" d="M69.4,566c14.4,0.1,28.9,0,43.3,0c3.7-0.1,7.7,1.2,10,4.2c1.8,2.5,2.7,5.7,2.6,8.8c0,27,0,54,0,81
	c-0.1,4-1.2,8.4-4.1,11.3c-3.4,2.9-8.1,3.4-12.5,3.5c-13.1,0.1-26.2,0-39.3,0.1C69.3,638.6,69.4,602.3,69.4,566 M91.2,585.4
	c0.1,23.4,0.1,46.8,0,70.2c4,0.1,7.9,0.2,11.9-0.2c0.7-5.8,0.2-11.5,0.3-17.3c-0.1-17.5,0.3-35-0.2-52.5
	C99.3,585.2,95.2,585.3,91.2,585.4z"/>
<path class="st2" d="M133.5,654.9c5.3-29.6,10.6-59.3,16.1-88.8c7.9,0.2,15.8-0.1,23.6,0.2c4.1,24.4,8.9,48.7,13.1,73
	c2.1,11.9,4.9,23.7,6.2,35.8c-7.4-0.2-14.8,0.1-22.1-0.1c-0.1-1.9-0.3-3.7-0.8-5.5c-0.3-2.5-0.3-5.1-0.9-7.5
	c-4.7-0.6-9.5-0.1-14.3-0.3c-1.5,4.3-1.2,8.9-2.2,13.3c-7.4,0.2-14.8-0.1-22.1,0.1C130.7,668.2,132.3,661.5,133.5,654.9
	 M161.6,607.1c-2.1,12.1-2.9,24.4-5.1,36.4c3.3,0.2,6.5,0.1,9.8,0.1C164.6,631.5,162.8,619.4,161.6,607.1z"/>
<path class="st2" d="M198.5,566c14.4,0.1,28.9,0,43.3,0c5.3-0.1,10.7,3.1,12.3,8.3c1.4,6.5-0.2,13.1,0.9,19.7
	c-0.6,12.9-0.2,25.8-0.5,38.7c-0.5,4.6-5,7.4-9.3,7.8c3.8,11.4,7.8,22.8,11.2,34.3c-7.7-0.2-15.3,0.1-23-0.1
	c-3.1-11.5-6.9-22.9-10.3-34.3c-0.7,0-2-0.1-2.6-0.1c0.1,11.5,0,23,0,34.5c-7.3,0-14.7,0-22,0C198.4,638.6,198.5,602.3,198.5,566
	 M220.5,585.4c0,12.3,0,24.7,0,37c3.8-0.1,7.6,0.1,11.4-0.1c1.8-0.6,1-2.9,1.2-4.3c-0.1-10.4,0.1-20.7-0.1-31
	c-0.3-0.4-0.8-1.1-1.1-1.5C228.1,585.2,224.3,585.4,220.5,585.4z"/>
<path class="st2" d="M263.4,566.2c7.6-0.4,15.2,0,22.8-0.1c0,15.5,0,31,0,46.5c1,0,1.9,0,2.9,0c1.9-7.5,3.8-15,5.5-22.6
	c1.8-8,3.7-16,5.8-24c7.6,0.2,15.2,0.1,22.9,0c-3.9,13.8-7.1,27.8-10.9,41.7c-0.6,3.8-3,7.5-1.6,11.4c4.2,18.6,8.1,37.3,12.4,55.8
	c-8.1-0.1-16.2,0-24.3,0c-3.1-14.8-5.5-29.7-8.5-44.5c-1.4,0-2.7,0-4.1,0c0,14.9,0,29.7,0,44.5c-7.6-0.1-15.2,0.3-22.8-0.2
	C263.6,638.5,263.4,602.4,263.4,566.2z"/>
<path class="st2" d="M351.3,566.1c13.6,0,27.2-0.1,40.9,0.1c1.6,6.8,3.8,13.5,5.3,20.3c-4.8,0-9.6,0-14.5,0c0,29.6,0,59.1,0,88.7
	c-7.6,0-15.3,0.2-22.9-0.1c0.2-29.5,0-59,0.1-88.5c-4.9-0.1-9.7,0-14.6-0.1C347.5,579.6,349.5,572.9,351.3,566.1z"/>
<path class="st2" d="M403.1,566.2c7.4-0.3,14.8-0.2,22.3,0c-0.1,36.3-0.1,72.6,0,108.9c-7.4,0.3-14.9,0.3-22.3,0
	C403.3,638.7,403.3,602.5,403.1,566.2z"/>
<path class="st2" d="M439.6,567.7c2.5-1.5,5.4-1.8,8.2-1.7c10.2,0.1,20.4,0,30.6,0c1.4,6.8,2.6,13.6,4,20.4
	c-8.3,0.1-16.7-0.3-25,0.2c-0.2,0.3-0.6,1-0.9,1.3c-0.2,20.7,0,41.4-0.1,62.1c0.1,1.8-0.3,3.9,1.1,5.3c3.4-0.3,6.9,0.4,10.2-0.4
	c0.1-0.5,0.3-1.4,0.4-1.9c0-13.6,0-27.2,0-40.8c7.2-0.1,14.4,0,21.5,0c0,20.9-0.1,41.9,0,62.8c-12.9,0.4-25.8,0-38.8,0.2
	c-4.4,0-9.3-0.4-12.6-3.5c-3.1-2.9-3.9-7.4-4.1-11.5c0-27.4,0-54.7,0-82.1C434.2,574.1,435.9,569.7,439.6,567.7z"/>
<path class="st2" d="M497.9,566.1c12.3-0.2,24.6,0.1,36.9-0.1c2.1-0.1,4.1,0,6.1,0.4c0.4,6.8,2.3,13.4,3.4,20c-8,0-16-0.2-23.9,0.1
	c0.2,8.5,0,17.1,0.1,25.6c6,0,12,0,17.9,0c-0.1,6.4,0.1,12.9-0.1,19.3c-6-0.1-11.9,0-17.9,0c0.1,7.8-0.1,15.6,0.1,23.4
	c7.6-0.1,15.2,0,22.8-0.1c-1.3,6.6-2.6,13.1-3.5,19.7l-0.7,0.6c-13.8,0.2-27.5,0.1-41.3,0C497.9,638.8,497.9,602.4,497.9,566.1z"/>
<path class="st2" d="M551.4,566c14.1,0.1,28.2,0,42.3,0c4-0.1,8.2,1,11,4c2.7,2.9,3.4,7.1,3.4,11c0,16.7,0,33.3,0,50
	c0,5.2-4.6,9.8-9.8,9.7c4,11.4,7.7,22.9,11.3,34.4c-7.7,0-15.3,0-22.9,0c-3.5-11.5-6.9-23.1-10.5-34.5c-0.7,0-2,0-2.6,0
	c0.1,11.5-0.1,23,0.1,34.4c-7.4,0.3-14.8,0.1-22.1,0.2C551.4,638.8,551.4,602.4,551.4,566 M573.4,585.6c0.1,12.3,0.1,24.6,0,36.9
	c4.2,0,8.4,0.1,12.6-0.1c0.3-10.8,0-21.5,0.1-32.3c-0.2-1.5,0.5-3.5-0.8-4.6C581.4,585.3,577.4,585.4,573.4,585.6z"/>
<path class="st2" d="M622.5,568c3-1.9,6.7-2.1,10.2-2c9.7,0.1,19.4,0,29.2,0c1.2,6.8,2.8,13.6,3.7,20.4c-8.2,0-16.4-0.1-24.5,0
	c-1.2-0.1-2.8,0.5-2.7,1.9c-0.2,5.9,0,11.8-0.1,17.7c0.1,1.8-0.5,4.2,1.5,5.2c6.5,0.4,13-0.4,19.5,0.5c4.3,0.9,7,5.1,6.9,9.4
	c0.1,13,0,26,0,39c-0.1,4.3-0.8,9.3-4.4,12.1c-3.6,3-8.5,3-13,3.1c-8.9-0.1-17.9,0.2-26.8-0.2c-0.5-2.3-0.9-4.5-1.4-6.7
	c-0.6-4.5-1.9-9-2.4-13.5c8.6-0.3,17.3,0.6,25.9-0.4c0.3-7.9,0.1-15.7,0.1-23.6c-6.9-2.7-14.9,0.6-21.9-2c-3.8-1.5-5.5-5.8-5.4-9.6
	c0-13.3,0-26.7,0-40C616.8,574.8,618.5,570,622.5,568z"/>
<path class="st1" d="M91.2,585.4c4-0.1,8-0.2,12,0.1c0.5,17.5,0.1,35,0.2,52.5c-0.2,5.8,0.4,11.6-0.3,17.3
	c-3.9,0.4-7.9,0.3-11.9,0.2C91.3,632.2,91.4,608.8,91.2,585.4z"/>
<path class="st1" d="M573.4,585.6c4-0.1,8-0.3,12,0c1.3,1.1,0.6,3.1,0.8,4.6c-0.1,10.8,0.1,21.5-0.1,32.3c-4.2,0.2-8.4,0.1-12.6,0.1
	C573.5,610.2,573.5,597.9,573.4,585.6z"/>
<path class="st1" d="M220.5,585.4c3.8,0,7.6-0.2,11.4,0.1c0.3,0.4,0.8,1.1,1.1,1.5c0.2,10.3,0,20.7,0.1,31c-0.2,1.4,0.6,3.7-1.2,4.3
	c-3.8,0.2-7.6,0-11.4,0.1C220.5,610,220.5,597.7,220.5,585.4z"/>
<path class="st1" d="M161.6,607.1c1.2,12.2,3,24.4,4.7,36.6c-3.3,0-6.6,0.1-9.8-0.1C158.7,631.5,159.5,619.2,161.6,607.1z"/>
<path class="st2" d="M306.8,699.8c11.3-0.2,22.6-0.2,34,0.2c26.7,0,53.3,0,80,0c3.9,0,7.8-0.2,11.6,0.4
	c-16.6,13.9-33.5,27.6-51.3,40c-3.8,2.4-7.3,5.5-11.3,7.4c-16.1-10.6-31.6-22.2-46.5-34.5C317.7,709,312.6,704,306.8,699.8z"/>
<path class="st1" d="M278.9,699.7c2.7,0,5.4,0,8.1,0.2c6.6,0.4,13.2,0.4,19.8-0.1c5.8,4.2,10.9,9.2,16.6,13.5
	c14.9,12.2,30.4,23.8,46.5,34.5c4-1.9,7.5-5,11.3-7.4c17.8-12.4,34.7-26.1,51.3-40c9.5-0.8,19.1-0.3,28.7-0.3
	c-6.1,6.1-12.6,11.5-19,17.3c-22.8,19.6-46.5,38.4-72,54.3c-14.7-9-28.5-19.3-42.1-29.7c-14.4-11.2-28.4-22.9-41.9-35.2
	C283.5,704.6,280.9,702.4,278.9,699.7z"/>
</svg>
