<?xml version="1.0" encoding="utf-8"?>
<!-- Generator: Adobe Illustrator 21.0.2, SVG Export Plug-In . SVG Version: 6.00 Build 0)  -->
<svg version="1.1" id="Layer_1" xmlns="http://www.w3.org/2000/svg" xmlns:xlink="http://www.w3.org/1999/xlink" x="0px" y="0px"
	 viewBox="0 0 198.4 198.4" style="enable-background:new 0 0 198.4 198.4;" xml:space="preserve">
<style type="text/css">
	.st0{fill:#E50D00;stroke:#E50D00;stroke-width:9.375000e-02;}
</style>
<g id="_x23_ffffffff">
</g>
<path class="st0" d="M0,67.2c15.1,0,30.1,0,45.2,0c0,2.5,0.1,5.1,0,7.6c-4.3,0-8.6,0-12.9,0c0,22.5,0,45.1,0,67.6
	c-6.4,0-12.8,0-19.2,0c-0.3-1.6-0.2-3.2-0.2-4.9c0-20.9,0-41.8,0-62.7c-4.1-0.1-8.3,0-12.5,0l-0.3-0.3C-0.1,72.1,0.1,69.7,0,67.2z"
	/>
<path class="st0" d="M51.2,67.3c15.1-0.2,30.1,0,45.2-0.1c0,2.6,0.2,5.2-0.1,7.7c-4.2-0.1-8.4,0-12.6,0c0,22.5,0.1,45,0,67.5
	c-6.4,0.3-12.9,0-19.3,0.1c-0.3-6.7,0-13.4-0.1-20.1c0-15.8,0-31.7,0-47.5c-4.3,0-8.6,0-12.9,0C51.2,72.4,51.2,69.8,51.2,67.3z"/>
<path class="st0" d="M105.9,67.2c12.5-0.1,25,0,37.5,0c0,2.5,0.1,5.1-0.1,7.7c-6.4,0-12.9,0-19.3,0c0,8.6,0.1,17.1,0,25.7
	c5.2,0.2,10.3,0,15.4,0.1c0.8-0.1,1,0.8,1,1.4c0,2.2,0.2,4.4-0.3,6.6c-5.4-0.1-10.7,0-16.1-0.1c0,11.3,0,22.6,0,33.8
	c-6,0-12.1,0.1-18.1-0.1C105.8,117.3,105.8,92.3,105.9,67.2z"/>
<path class="st0" d="M152.8,67.2c6-0.1,12.1,0,18.1,0c0,22.5,0,44.9,0,67.3c3.1,0,6.3,0,9.4,0c0-22.4,0-44.8,0-67.3
	c6-0.2,12.1,0,18.1-0.1c0,22.8,0,45.6,0,68.3c0,2-1.5,3.8-3.3,4.6c-3.7,1.9-8,2.5-12.2,2.3c-5.9,0-11.8,0-17.8,0
	c-3.1-0.3-6.3-0.8-9.1-2.3c-1.8-1.1-3.3-2.9-3.3-5C152.8,112.5,152.7,89.9,152.8,67.2z"/>
</svg>
