<?xml version="1.0" encoding="utf-8"?>
<!-- Generator: Adobe Illustrator 21.0.0, SVG Export Plug-In . SVG Version: 6.00 Build 0)  -->
<svg version="1.1" id="Layer_1" xmlns="http://www.w3.org/2000/svg" xmlns:xlink="http://www.w3.org/1999/xlink" x="0px" y="0px"
	 viewBox="0 0 1281.2 879.9" style="enable-background:new 0 0 1281.2 879.9;" xml:space="preserve">
<style type="text/css">
	.st0{fill:#FFFFFF;stroke:#FFFFFF;stroke-width:9.375000e-02;}
	.st1{fill:#0D0907;stroke:#0D0907;stroke-width:9.375000e-02;}
	.st2{fill:#EE4752;stroke:#EE4752;stroke-width:9.375000e-02;}
	.st3{fill:#97363D;stroke:#97363D;stroke-width:9.375000e-02;}
	.st4{fill:#FCC799;stroke:#FCC799;stroke-width:9.375000e-02;}
	.st5{fill:#AC8D9E;stroke:#AC8D9E;stroke-width:9.375000e-02;}
	.st6{fill:#896983;stroke:#896983;stroke-width:9.375000e-02;}
</style>
<path class="st0" d="M38.8,28.4c4.1-9.9,10-18.9,15.2-28.3c5.6,9.2,11,18.5,16.9,27.5c26.9,40.9,62.5,75.6,102.5,103.5
	c52.4,36.5,111.7,62.2,173.1,79.1c14.8,4,29.8,7.6,44.9,10.4c1.5-5.6,3.1-11.2,4.7-16.8c6.4,4.2,12.4,8.9,19.2,12.6
	c28.5,15.6,60.1,25,92,30.3c6.1-16.2,22.4-26,38.7-29.6c7.8-13.3,20.8-22.6,34.3-29.3c19.7-9.7,41.2-15.2,62.7-19.3
	c23.3-4.4,46.9-6.3,70.5-7.1c-3.8,6.2-7.7,12.4-11.5,18.7c14.9,0.6,29.8,1.3,44.7,2c-15,10.5-30,21-45.1,31.5
	c16.5,9.6,31.3,22,43.5,36.8c40-3.3,79.8-12.8,115.7-31c8.7-4.2,16.4-10,24.4-15.5c1.6,5.6,3.1,11.3,4.7,16.9
	c56.9-11,112.2-30,163.6-56.7c57.7-30,110.4-71.3,148.5-124.3c9.3-12.6,17.1-26.2,25.2-39.5c5.2,9.2,11,18.2,15.1,28
	c15.9,37,21.2,79.1,11.7,118.5c-7.8,33.2-26.1,63.2-50,87.3c25.7-0.8,51.5-1.5,77.2-2.3c-0.1,15.7,0.3,31.4-0.3,47
	c0,16.7-5.8,33.1-15,47c-9.7,14.7-23.3,26.5-38.2,35.8c-19,11.7-40,19.6-61.5,25.5c27.6,13.1,55.9,26,86.3,30.5
	c-0.8,6-0.7,12.3-3.2,17.9c-6.1,14.5-18.6,25.3-31.9,33.1c-3.2,2.1-7,3.3-9.8,5.9c-13.4,12.3-27,24.4-40.4,36.7
	c-4.3,4.4-10.2,6.7-15.6,9.4c-34.5,15.9-72.8,22.8-110.7,22.4c8.9,39.9,17.8,79.8,26.8,119.7c-7.2,1.6-14.4,3.2-21.6,4.8
	c10.3,48.8,20.6,97.6,30.8,146.3c-23.5,4.9-47,10-70.6,14.6c-17.7,3.6-35.6,6.2-53.3,10c-20.3,2.7-40.5,6.4-60.8,8.9
	c-13.1,2-26.4,2.9-39.6,4.7c-27.5,3.7-55.2,5-82.8,7.8c-16.7,0.3-33.4,1.9-50,2.4c-12.9,1.4-25.9,0.8-38.9,1.4
	c-29.4,1.4-58.7,0.2-88.1,0.3c-31.5-1.8-63-1.7-94.4-4.6c-0.7,6.9-1.4,13.9-2,20.8c-42.5-3.7-84.9-8.2-127.2-13.3
	c0.8-7,1.6-13.9,2.4-20.9c-10.3-1.4-20.5-2.8-30.8-4.1c-1.7-0.2-3.3-0.9-5-1.3c-9.8-0.8-19.4-3.2-29.1-4.7c-13-2.5-26.2-3.9-39-7.2
	c-20.2-3.9-40.4-8.2-60.5-12.3c9.4-45.2,18.2-90.6,28.1-135.7c-1.8-3.9-3.3-7.9-4.2-12.1c-5.3-1.2-10.6-2.3-16-3.5
	c9.5-40.6,19.1-81.1,27.8-121.9c-39.4,0.8-79.4-6.2-115.2-23.1c-4.8-2.5-9.9-4.5-13.7-8.3c-14-12.7-28.1-25.3-42.2-37.9
	c-2.3-2.1-5.4-3.2-8-4.9c-13.4-7.8-26-18.5-32.2-33.1c-2.6-5.7-2.6-12-3.3-18.1c30.5-4.4,58.8-17.3,86.4-30.5
	c-30.1-8.3-60-20.6-83.2-42C13.2,328,0.6,304,0,278.6c0-15.7,0-31.3,0-47c25.7,0.8,51.5,1.5,77.2,2.3c-23-23.1-40.8-51.8-49.1-83.5
	C17.4,110,22.5,66.5,38.8,28.4 M35,82.6c-4.2,30-0.3,61.3,12.1,89c12.9,29.4,34.7,54.2,59.7,74c-31.9-0.9-63.9-1.9-95.8-2.8
	c0,11.3,0,22.5,0,33.8c0,15.9,5.3,31.6,14.4,44.6C39.1,341,60.1,354.5,81.8,364c20.6,9,42.5,14.8,64.6,19
	c-19.1,10.4-38.8,20-58.9,28.3c-15.3,6.3-30.9,12-47.2,15.1c2.4,10.3,9.8,18.6,17.9,25.1c16.1,12.6,35.8,19.5,55.3,24.5
	c23.1,5.7,46.8,8.3,70.6,9.6c-13.9,5.4-27.9,10.6-42.1,15.1c-6.2,1.9-12.5,3.9-19.1,4.3c40.7,22,88,29.6,133.8,26.3
	c-8.9,41.8-18.4,83.6-28.3,125.2c4.3,0.9,8.5,1.8,12.8,2.8c0,6.9,2.4,13.5,5.7,19.6c-9.5,42.8-17.8,85.8-26.8,128.8
	c41.4,8.5,82.8,17.1,124.7,23.1c12.8,2.6,25.9,3.7,38.9,5.8c-0.7,6.9-1.6,13.8-2.4,20.7c35,4.3,70.1,7.9,105.3,11
	c0.7-6.9,1.4-13.8,2-20.7c15.7,1.6,31.5,1.7,47.3,3.1c33.9,1.3,67.9,2.6,101.8,2.6c14.4-0.5,28.8,0.1,43.1-0.6
	c21.7-0.3,43.5-1.6,65.2-2.7c26.3-1.5,52.7-3.2,78.9-6.1c80.5-7.5,160.2-21.2,239.1-38.5c-10.3-48.7-20.5-97.5-30.8-146.2
	c7.1-1.6,14.3-3.2,21.4-4.8c-9.1-41-18.3-82-27.4-122.9c44.9,2.7,91.1-5,130.9-26.5c-5.6-0.4-11-1.9-16.3-3.4
	c-15.2-4.6-30.1-10.2-44.9-15.9c22.3-1.2,44.6-3.6,66.4-8.6c17.6-4.1,35.1-9.7,50.5-19.2c11.7-7.4,23.4-17.4,26.8-31.4
	c-19.1-3.7-37.4-10.9-55.2-18.5c-17.3-7.5-34.3-15.9-50.8-24.9c25.2-4.8,50.3-11.7,73.4-23.1c15.8-7.9,30.8-18.1,42.3-31.7
	c10.2-12,17.3-26.8,19.1-42.5c1-14.3,0.5-28.6,0.6-42.8c-31.9,0.9-63.9,1.9-95.8,2.8c10.5-8.3,20.3-17.4,29.2-27.3
	c19.7-21.9,34.4-48.6,40.5-77.4c8.6-40.2,1.6-83-17.2-119.3c-29.3,48.8-70.6,89.7-117.5,121.6c-44.4,30.2-93.6,52.9-144.6,69.5
	c-27.4,8.8-55.4,16-83.8,20.6c-0.5-4-1.4-7.9-2.4-11.7c-10.5,6.7-21.8,12.1-33.3,16.8c-33.5,13.6-69.4,20.9-105.5,23.2
	c-15.3-20.4-36.3-36.4-59.6-46.5c11.2-7.8,22.5-15.7,33.7-23.5c-10.4-0.5-20.7-0.9-31.1-1.4c3.4-5.6,6.9-11.3,10.3-16.9
	c-20.6,1.3-41.1,4.1-61.2,8.6c-17.4,4-34.7,9.1-50.5,17.5c-11.7,6.3-23,15-28.5,27.6c-10.7,1.7-21.7,5.6-29.4,13.6
	c-4.9,4.9-7.6,11.7-8.2,18.5c-24.1-3.3-48-8.8-70.9-17.3c-14.7-5.4-29.1-11.9-42.3-20.3c-1,3.9-1.8,7.8-2.4,11.7
	c-21.1-3.4-42-8.3-62.6-14.2c-62.4-17.9-122.6-44.7-175.4-82.6c-43-30.8-80.6-69.5-107.9-114.9C44.2,40.5,37.9,61.4,35,82.6z"/>
<path class="st1" d="M35,82.6c2.9-21.2,9.2-42.1,19.2-61.1c27.3,45.4,64.9,84.1,107.9,114.9c52.8,37.9,113,64.7,175.4,82.6
	c20.6,5.8,41.5,10.8,62.6,14.2c0.5-3.9,1.4-7.8,2.4-11.7c13.3,8.4,27.6,14.8,42.3,20.3c22.9,8.4,46.8,14,70.9,17.3
	c0.6-6.9,3.3-13.6,8.2-18.5c7.7-7.9,18.6-11.9,29.4-13.6c5.5-12.5,16.8-21.3,28.5-27.6c15.8-8.4,33.1-13.6,50.5-17.5
	c20.1-4.4,40.6-7.3,61.2-8.6c-3.4,5.6-6.9,11.3-10.3,16.9c10.3,0.5,20.7,0.9,31.1,1.4c-11.2,7.8-22.4,15.7-33.7,23.5
	c23.3,10.2,44.3,26.1,59.6,46.5c36-2.4,71.9-9.6,105.5-23.2c11.5-4.7,22.8-10.1,33.3-16.8c1,3.9,1.8,7.8,2.4,11.7
	c28.4-4.6,56.4-11.8,83.8-20.6c51-16.5,100.2-39.2,144.6-69.5c46.9-31.9,88.2-72.8,117.5-121.6c18.7,36.3,25.7,79.2,17.2,119.3
	c-6.1,28.9-20.8,55.6-40.5,77.4c-8.9,10-18.8,19-29.2,27.3c31.9-0.9,63.9-1.9,95.8-2.8c-0.1,14.3,0.4,28.6-0.6,42.8
	c-1.8,15.7-8.9,30.5-19.1,42.5c-11.5,13.6-26.5,23.8-42.3,31.7c-23.1,11.4-48.2,18.3-73.4,23.1c16.6,9,33.5,17.4,50.8,24.9
	c17.8,7.6,36.1,14.8,55.2,18.5c-3.5,14-15.1,24-26.8,31.4c-15.5,9.4-33,15.1-50.5,19.2c-21.8,5-44.1,7.4-66.4,8.6
	c14.8,5.7,29.7,11.3,44.9,15.9c5.3,1.6,10.7,3.1,16.3,3.4c-39.8,21.5-86.1,29.3-130.9,26.5c9.1,41,18.4,81.9,27.4,122.9
	c-7.1,1.5-14.3,3.2-21.4,4.8c10.3,48.7,20.5,97.5,30.8,146.2c-78.9,17.2-158.7,31-239.1,38.5c-26.2,2.9-52.6,4.5-78.9,6.1
	c-21.7,1.1-43.4,2.3-65.2,2.7c-14.4,0.7-28.8,0.1-43.1,0.6c-34,0-67.9-1.3-101.8-2.6c-15.7-1.5-31.5-1.5-47.3-3.1
	c-0.7,6.9-1.3,13.8-2,20.7c-35.2-3.1-70.3-6.8-105.3-11c0.8-6.9,1.6-13.8,2.4-20.7c-13-2-26-3.1-38.9-5.8
	c-41.9-6-83.3-14.5-124.7-23.1c8.9-42.9,17.3-86,26.8-128.8c-3.3-6-5.7-12.6-5.7-19.6c-4.3-1-8.5-1.9-12.8-2.8
	c9.9-41.6,19.4-83.4,28.3-125.2c-45.8,3.3-93.2-4.4-133.8-26.3c6.5-0.4,12.8-2.4,19.1-4.3c14.2-4.5,28.2-9.7,42.1-15.1
	c-23.7-1.3-47.5-3.9-70.6-9.6c-19.6-5-39.3-11.9-55.3-24.5c-8.1-6.5-15.4-14.8-17.9-25.1c16.3-3.1,31.9-8.8,47.2-15.1
	c20.1-8.4,39.8-17.9,58.9-28.3c-22.1-4.2-43.9-10-64.6-19c-21.8-9.5-42.7-23-56.5-42.7c-9.1-13-14.4-28.7-14.4-44.6
	c0-11.3,0-22.5,0-33.8c31.9,0.9,63.9,1.9,95.8,2.8C81.7,225.8,60,201,47,171.6C34.6,143.9,30.8,112.7,35,82.6 M65,138.6
	c9.4,31.9,28.8,59.7,51.1,83.9c23.9,26,56.1,43.3,89.7,53.4l0.3,0.4c2,0.6,4,1.1,5.8,2.1l0.5,0.4c-2.4,0-4.8,0.3-7.3,0.1
	c-56-0.4-112-0.9-168-1.3c-0.2,2.6-0.3,5.1-0.3,7.7c0.6,5,1.7,10,3.7,14.7c7.7,18.1,23.5,31.2,39.9,41.1
	c26.7,15.8,56.7,25,86.8,31.8c2.5,1.2,5.4,1.1,8,2c0.1,0.4,0.3,1.1,0.3,1.4c-3.5,8.1-9.5,14.8-16.1,20.5
	c-22.8,19.1-51.1,30-79.1,39.1c2.1,1.1,4.2,2.1,6.3,3c21.2,8.7,43.5,14.1,65.8,19.2c22.6,5.1,45.5,9.3,68.4,13.1
	c5.7,0.1,11.3-1.7,16.9-3c18.1-4.9,35.8-12.9,49.5-25.8c-12,2.1-24.1,3.8-36.2,4.9c-42.9,3.8-87,2.8-128.3-10.4
	c1.3-1.9,3.7-2.1,5.6-3c43-17.6,86.1-35.2,129-53.2c-25.7-1.3-51-6.8-75.3-15.1c-32.6-11.3-63.2-28.4-89.2-51
	c69-7.4,138.2-13.8,207.5-17.8c-17.5-3.9-35.2-7.1-52.7-10.9c15.8-0.5,31.7-0.6,47.5-1c-18-5.9-35.6-12.7-52.8-20.7
	c-53.5-24.9-102.4-60.3-140.5-105.5c-4.5-5.6-9.3-11.1-13-17.4c29.8,33.2,68.3,56.9,107.9,76.5c33.2,16.3,67.7,29.7,102.7,41.3
	c42.9,14.2,86.6,25.7,130.8,35.1c7.1,1.9,14.6,1.2,21.9,1.7c12.3,0.3,24.5,1.6,36.7,1.7c0.3,0.1,0.9,0.5,1.3,0.6
	c-2.4,1.4-4.7,3.1-7,4.9c-4,3.5-8.3,7.6-8.9,13.2c-0.5,4.9,3.8,8.1,6,11.9c8.8,13.8,18.9,27.2,32.7,36.2
	c16.5,11.2,37,15.2,56.8,13.9c-1.6,6.8-3.9,13.3-6,19.9c-5,14.6-10.2,29.3-17.9,42.7c10.7-6.5,21.3-13.1,31.4-20.5
	c3.3-14.7,6.8-29.4,11.5-43.7l-0.1-0.3c2.4-7.6,4.9-15.1,7.8-22.6c-5.8,3.2-11.6,6.5-17.4,9.8c3-8.5,6-17,9-25.5l-0.8,0.7
	c-11.5,4.9-23.5,9.6-36.1,10.6c-10.3,0.8-21.1-2.2-28.9-9.1c-6.9-6-11-14.8-12.1-23.8c-1.5-11.6,1.3-23.3,5.7-33.9
	c-21.5-3.5-43.1-7.6-64-13.9c-8.9-2.9-18-5.8-25.4-11.6c-1.1,2.5-2.1,5-3.2,7.6c-39.5-7.1-78.5-17.4-116.6-29.8
	c-57.7-19.1-114.1-43.8-164.1-78.6c-0.7-0.7-1.5-1.3-2.3-1.9c-29.2-20.6-55.7-45.7-75.7-75.6C57.6,98.1,59.5,119.3,65,138.6
	 M1171.7,130.3c-10.4,9.5-21.8,17.8-33,26.3c-53.2,36.8-113.3,62.4-174.7,81.9c-34.7,10.9-70.1,20-105.9,26.4
	c-1.1-2.5-2.2-5-3.3-7.5c-7,5.6-15.7,8.4-24.1,11.2c-21.3,6.5-43.2,10.7-65.2,14.3c6.1,14.5,9,31.7,2.1,46.5
	c-5.3,11.4-17,19.1-29.4,20.3c-12.8,1.2-25.3-3-37-7.5c-0.1,0.4-0.3,1.3-0.3,1.8c-2,7.4-4.1,14.7-6.6,21.9c-3-4.2-5.8-8.6-9.4-12.4
	c7.7,20.9,13.9,42.3,18.6,64c0.4,1.5,0.6,3.3,1.9,4.4c-1.9-16.2-4.5-32.2-6.5-48.4c29.7-1.3,60.1-8.7,84.2-26.8
	c6.9-5.3,13.8-11,18.4-18.6c2.2-3.7,6.3-6.8,5.7-11.5c-0.7-5.6-5-9.7-8.9-13.2c-2.3-1.8-4.6-3.5-7.1-4.9c0.5-0.1,1.4-0.4,1.8-0.6
	c15.7-0.3,31.3-1.8,47-2.1c6.2,0.1,12.2-1.6,18.3-2.9c48.4-10.5,96.2-23.7,143-40.1c39.5-14,78.3-30.4,114.6-51.3
	c28.4-16.5,55.6-35.9,77.3-60.7c-6.2,9.6-13.6,18.3-21.2,26.8c-22.5,25-48.5,46.9-76.6,65.4c-38.9,25.8-82.1,44.7-127,57.5
	c2.8,0.8,5.7,0.4,8.6,0.4c30-0.6,60-4.2,89-11.9c3-1,6.4-1.2,9.2-2.8c34.1-10.2,66.7-27.9,90.8-54.5c22.1-24.3,41.4-52.1,50.5-83.9
	c5.3-19,7.1-39.9,0.4-58.8C1204.2,97.9,1188.8,115.1,1171.7,130.3 M596.9,217.5c-9.7,4.1-19.3,8.8-27.3,15.7c-1.4,0.9-1.8,2.4-1.7,4
	c0.2,0.5,0.5,1.4,0.7,1.9c7.2,2.9,12.3,8.9,17.8,14.2c9.5,8.7,20.2,16.9,33,19.6c-7.5,1.4-15.1,3.3-22.8,2.3
	c6.9,7.9,7.1,19.6,3.5,29l0.1,0.3c-3.6,7.9-8.6,15-14.3,21.5c6.6-1.2,13-3.1,19.6-4.5c-2,6.2-4.3,12.3-6.3,18.5
	c3.3-4,6.4-8.2,9.6-12.3c2.5,10.3,7.7,19.8,14.6,27.8c5.5-8.3,10.9-16.6,16.4-24.9c6.4,8.4,12.3,17.1,18.9,25.4
	c7.3-7.5,13.3-17.6,11.6-28.5c7.5,3.4,16,6.2,20.9,13.1c1.7-4.5,2.8-9.2,3-14c0.7-14.4-2.8-28.5-7.5-42c6.2,1.5,12.7,3,17.7,7.1
	c-4.9-17.2-12.2-34-23.3-48.1c-2.3-2.6-4.3-5.7-7.4-7.4c-4.3-5.3-10.4-8.8-16.6-11.6c-3.1-1.2-6.4-2-9.7-2.7c-2-0.2-4.1-0.5-6.1-0.3
	c-8.7-0.7-17.1,2.2-25,5.4c-1.1,8.2-4.3,16.7-11.5,21.4c1.7,0.1,3.4,0.1,5.1,0.3c-2.9,1.1-5.9,2-9,1.8c-3.9,0.1-7.4-1.9-11-3
	c-3.1-2.9-6.3-5.8-8.7-9.4c25.2-14.4,53.1-23.6,81.2-30.4c-12.1,1.6-24.1,3.6-36,6c-7,1.1-13.9,2.7-20.8,4.4
	c10.2-4.6,20.4-9.1,30.7-13.5C622.9,208,609.7,212.2,596.9,217.5 M607.9,231c-2.5,1.6-5.1,3.2-7.6,4.9c0.8,1.9,0.5,4.6-1.7,5.4
	c-2.1,1-4-0.7-4.9-2.4c-1.8,0.5-3.5,1.1-5.3,1.7c3,2.9,7.3,6.6,11.7,4.4C605,242.1,606.6,236.1,607.9,231 M553.2,249.9
	c-6.1,1.5-12.6,4.5-15.6,10.3c-3.1,6.1-1.3,13.5,1.9,19.2c0.3,0.8,0.7,1.6,1.1,2.4c2-4.9,3.2-11.3,8.5-13.7
	c11.3-3.7,22.7-6.9,34.1-10.3c-0.2,4.3-0.8,8.9-3.6,12.3c-1.8,2.2-4.6,4.1-7.6,3.3c-5-1-10-2.4-15-3.4c6.3,4.1,13.3,8,21,8.3
	c4.7,0.2,10-2.2,11.8-6.8c0.1-3,0.5-6.1,2.8-8.3c-7.3-6-14.6-12.1-21.9-18.1c-0.6-0.5-1.9-1.6-2.5-2.1
	C564.5,247.6,558.6,248.8,553.2,249.9 M1125,278.6c-3.3-0.2-5.9,2.1-8.7,3.4c-5,2.3-10,4.7-15,7c-11.9,5.1-24.1,9.6-36.5,13.5
	c4,1,8.2,0.8,12.3,1.4c37.1,3.2,74.3,6.8,111.3,10.8c-25.1,21.8-53.8,39.7-85,51.4c-19.1,7.1-39.2,12.2-59.7,13
	c39.7,16.7,78.7,35.3,115.6,57.6c-39,10.1-79,16.3-119.2,18.7c6.6,5.8,13.8,10.9,21.1,15.8c23-3.7,46-8,68.6-13.1
	c21.9-5,43.9-10.4,64.7-19c2.1-1,4.3-2,6.4-3c-26.5-8.6-53.1-18.8-75.4-36c-8.4-6.8-16.6-14.6-20.3-25c2.8-0.6,5.6-0.8,8.3-1.9
	c20.8-4.6,41.4-10.6,61.2-18.9c17.4-7.4,34.5-16.6,48.4-29.7c11-10.3,20-23.9,21.4-39.2c0.1-2.6,0-5.1-0.3-7.7
	C1204.4,278,1164.7,278.3,1125,278.6 M256,315.7c-3.7,0.2-7.6-0.4-11.3,0.6c-40.6,1.6-81.3,3.8-121.9,6
	c25.4,15.3,54.3,24.2,83.5,28.7c0.1,0.1,0.4,0.3,0.6,0.4c5.7,0.4,11.2,1.3,16.9,1.9c26.9,2.8,54.1,2.5,81.1,0.2
	c43.2-3.7,86-12.2,127.5-24.6c-11.7,0.1-23.3,1.5-35,2c-54.2,3.5-108.4,6.6-162.6,9.4c-2.4,0.1-4.9,0.1-7.3-0.1
	c14.4-1.7,28.8-4,43.2-5.9c50.6-6.8,101.3-13.2,152-19.5c3.1-0.4,6.3-0.6,9.4-1.4c-10.3-1.5-20.8-1.4-31.2-1.6
	C352.6,311.7,304.3,313.8,256,315.7 M1153.6,323.1c-16.5,8.5-35,12.1-53.1,15.4c-40.9,5.4-82.5,4.4-123.5,0.2
	c-33.4-2.5-66.7-4.8-100.1-7.4c-4.5-0.3-9,0.8-13.3,1.5c7.6,2.8,15.6,4.3,23.5,6.3c61,14.1,124.5,21,186.8,12.3l0.3-0.3
	c29.4-4.5,58.6-13.3,84.1-28.9C1156.6,322,1155,322.3,1153.6,323.1 M403.2,361.9c-38.2,12.1-78.2,19.5-118.3,19.9
	c-1.4-0.1-2.7,0.3-3.9,1c-18.1,9-36.5,17.4-54.9,25.6c-21.4,9.3-43,18.3-65.6,24.4c24.3,6,49.5,5.4,74.3,3.7
	c31.4-3.1,62.5-9.9,92.5-19.5c32-10.3,63.2-23.1,93.1-38.5c-3.9,0.8-7.7,2.4-11.5,3.7c-39.9,13.5-80.1,26.2-120.9,36.5
	c-10.4,2.4-20.7,5.5-31.3,6.8c18-6.1,35.8-12.8,53.7-19.4c33.5-12.6,67-25.5,99.6-40.3c13.1-6.3,26.7-12.1,38.2-21
	C433.5,351.3,418.5,357.1,403.2,361.9 M594.8,435.6c0.5,18.4,5.1,37.9,18.2,51.6c1.7-6.1,3.4-12.3,7.1-17.4c0.5,9.9-0.5,22.2,8,29.2
	c5.5-2.6,10.8-6.9,12.4-13c0.6,1.4,1.3,2.8,2,4.2c0.2-1.4,0.5-2.8,0.7-4.2c14.1-7.5,21.2-23.1,24-38.1c4.4-23.8,2.3-48.3-2.2-71.8
	c-3.9,4.7-7.6,9.6-11.5,14.3c-1.3,0.6-1.4-1.5-2-2.1c-4.8-9-9.7-17.9-14.6-26.9c-2.4,4-5.2,7.7-7.8,11.5c-1.7,1.7-3.3,3.4-5.1,5.1
	c-5.4-6.7-11.3-13.3-14.7-21.3C600.3,381.9,594.2,408.6,594.8,435.6 M913,371.8c30.3,10.8,60.3,22.6,90.6,33.4
	c15.3,5.1,30.8,9.2,46.6,12.6c7.5,1.5,14.9,3.5,22.6,4.1c8.8,2.2,17.9,3,26.9,4.3c-15.4-5.5-30.5-11.9-45.6-18.3
	c-0.2-0.1-0.5-0.4-0.7-0.6c-18.3-7.7-36.2-16.4-54.1-25.1c-1.3-0.6-2.8-0.5-4.2-0.6c-14-0.1-28.1-1.2-42-3
	C939.5,377.2,926.3,374.2,913,371.8 M318.1,437.8c-21.3,14.3-43.1,27.8-66.3,38.8l-0.1,0.4c-12,5.6-24.1,10.9-36.5,15.4
	c-7.4,2.4-14.8,4.7-22.4,6.4c12,5.1,25,7.9,38,9c9.3,1.1,18.8,0.9,28.2,0.3c1.8-0.2,3.7-0.1,5.3-1c1.7-7,4.1-13.7,6.1-20.5
	c17.2,3.9,34.3,8.3,51.5,12.3c8.2-5.3,16.4-10.5,24.5-15.8c12.9-8.5,26.5-15.9,39-25c27.9-20,53.5-43.3,76.3-68.9
	c-39.5,23.1-79,46.3-119.2,68c-12.4,6.5-24.5,13.7-38,17.7c5.5-3.5,11.5-6.2,16.9-9.9c31.5-19.5,62.7-39.5,92.7-61.3
	c10.5-7.9,21.3-15.5,30.7-24.6C404.2,401.9,362.3,422.8,318.1,437.8 M836.2,379.1c12.2,11.4,25.9,21,39.4,30.8
	c9.8,6.7,19.2,14,29.7,19.5c13.7,7.6,27.4,15.2,41.1,22.8c7.9,4.5,16.1,8.5,23.5,13.6c19.2,12,40.2,21.1,62.1,27
	c6.7,1.5,13.3,3.8,20.3,3.8l0.5,0.5c11.7,1.9,23.6,2.5,35.4,1.8c-21-5-40.9-13.3-60.2-22.7l-0.3-0.4c-22.4-10.8-43.6-23.8-64.1-37.7
	c-3.2-1.6-6.8-2.4-10.2-3.7C912.6,419.7,873.9,400.1,836.2,379.1 M471.7,406.4c-28.6,22.8-57.4,45.3-86.5,67.4
	c-2.8,2.2-5.8,4.2-8.3,6.6c-8,7.6-15.9,15.3-23.9,22.9c19.8,6.2,40.4,9.2,60.9,11.6c11.3-11.8,22.4-23.8,33.9-35.5
	c22.5-23.7,42.8-49.4,61.2-76.4c-28.1,22.1-55.8,44.6-84.2,66.3c-4.8,3.5-9.4,7.5-14.7,10.4c3-4.3,6.8-7.9,10.3-11.7
	c19.4-20.3,39.3-40.1,58-61c4.4-5.1,9-10,12.3-15.8C484.2,396,478.1,401.4,471.7,406.4 M524.5,481.1c-5.5,7.9-10.3,16.8-10.6,26.6
	c-0.4,8.4,3.7,16.7,10.5,21.7l0.1,0.5c0.7,0.4,1.4,0.7,2.2,1.1c1.5-16.8,8-32.6,13.9-48.3c-1.4-2.3-3.5-3.7-6-4.4
	C531.2,478.5,526.4,477.4,524.5,481.1 M744.3,478.9l0.1,0.1c-1.5,1-2.8,2.3-3.8,3.7c5.9,15.7,12.4,31.5,13.9,48.3
	c0.4-0.3,1.1-0.8,1.5-1c4-2.8,7.4-6.8,9.3-11.4c-0.8-14.4-5.7-28.7-14.5-40.1C748.7,477.7,746.4,478.7,744.3,478.9 M488.7,483.5
	c-5.5,6.8-10.4,15-10.1,24.1c0.2,8.7,6.1,16.3,13.3,20.8c0.8,0.7,1.8,1.1,2.8,1.7c1.3-15.7,4.3-32.5,15-44.7
	c-1.9-3.5-5.3-5.8-9.2-6.2C496.3,479.6,491.4,479.9,488.7,483.5 M771.6,485.3c10.6,12.1,13.7,28.8,14.9,44.4
	c0.4-0.2,1.2-0.5,1.7-0.7c7.7-4.3,14.2-12.2,14.4-21.4c0.3-9.2-4.7-17.5-10.3-24.4c-1.7-2.5-4.9-3-7.6-3.9
	C779.6,478.3,774.1,480.5,771.6,485.3 M542.7,511.6c0,8.2,5.5,16,13.3,18.5c-0.8-1.4-1.5-2.8-2.5-4c-4.8-13.4,0-27.6,6.2-39.6
	c-0.9-0.6-1.7-1.2-2.6-1.8c-1.5-0.6-3-1.1-4.5-1.7C547.2,491.5,542.6,501.3,542.7,511.6 M720.3,487.4c-1.2,1.5-2.3,3-3.3,4.5
	c-0.7,1.6-1.3,3.3-2,4.9c6.6,9.2,10.5,20.2,10.8,31.5c-0.1,0.5-0.2,1.4-0.3,1.9c1.5-1,4.5-1.2,4.5-3.5
	C731,512.9,726.4,499.4,720.3,487.4 M282.3,513c2.1,4.7,4.4,9.3,6.6,14c-7.7,35.5-15.3,70.9-23.7,106.2c13,2.7,25.9,5.7,39,7.9
	c-2.2-4.8-5.7-9.2-7-14.4c6.9-35.4,14.1-70.7,21.1-106C306.3,518.2,294.3,515.5,282.3,513 M903.7,530.2c3.2,3.7,7,6.9,10.7,10.2
	c2.4,14.4,5,28.7,7.9,43c10.6,2.8,21.2,5.5,31.8,8.1c9.1,2.2,18.5,3.6,27.4,6.5c1.2,5.8,2.5,11.6,3.5,17.5
	c-10.6,2.2-21.3,4.4-32,6.2c-8.5-1.3-16.8-4-25.1-6.2c1.8,10.8,3.7,21.6,5.6,32.5c28.5-4.9,56.8-10.5,85-16.8
	c-4.2-18.8-8.4-37.6-12.7-56.5c-19.6-5.2-39.7-8.8-59.1-15c-0.9-4.7-1.9-9.3-2.5-14c10.3-2,20.5-4.2,30.8-6.1
	c8.2,1.3,16.2,3.7,24.3,5.5c-2.3-10.7-4.8-21.4-7.2-32.1C962.7,519.5,933.3,525.2,903.7,530.2 M334.8,524.2c2,4.9,5.3,9.2,6.5,14.4
	c-6.4,35.4-12.7,70.9-20,106.1c13,2.3,25.9,4.7,39,6.7c-2-4.8-5-9.1-7.4-13.7c3.7-22.4,7.4-44.7,11.1-67.1c9.1-3.6,18.7-6,28.1-8.8
	c-4.6,30.8-9.2,61.6-13.8,92.5c13,1.9,26,3.9,39.1,5.3c-2.2-5.1-6.9-9.2-7.7-14.7c4.6-35.5,9.4-70.9,14.1-106.4
	c-8.9-1.1-17.8-2.6-26.7-3.7c-9.5,2.4-18.7,5.9-28.3,8c0.6-4.1,1.3-8.2,2-12.3C358.6,528.5,346.7,526.1,334.8,524.2 M850.3,538.2
	c3.6,3.7,7.3,7.3,11,10.9c2.9,22.7,6.8,45.3,8.9,68.2c-8.5,5.2-16.8,10.8-25.3,16c-3.8-31-7.5-62-11.3-93c-12,1.5-24,2.7-36,4
	c3,4.4,7.9,7.5,10.2,12.3c3.9,35.7,7.5,71.4,11.3,107.1c9.5-1.1,19.2-1.8,28.7-3.4c9.1-4.7,17.5-10.5,26.2-15.8
	c0.6,4.1,1.1,8.3,1.7,12.4c13-1.9,26.2-3.5,39.1-6c-3.7-3.9-8.7-6.7-11.5-11.4c-5.7-35.5-11-71.1-16.6-106.6
	C874.5,534.9,862.4,536.4,850.3,538.2 M441.3,540.4c2.4,5.5,5.9,10.5,9.2,15.6c1.4,10.2,2.1,20.5,3.2,30.7
	c2.5,25.9,5.3,51.8,8.2,77.7c13.3,1.3,26.6,2.5,39.9,3.6c10.1-34,19.8-68.1,29.1-102.4c2.1-3.7,5.4-6.6,7.9-10
	c-3.5-1.6-7.1-3.3-10.3-5.6c-1.2-0.7-2.3-1.8-3.7-1.8c-5.2-0.4-10.4-0.7-15.7-1.1c-6.5,23.9-13,47.7-20.1,71.4
	c-1.5,5.2-2.4,10.5-4.8,15.4c-3.3-29.9-5.9-59.9-8.5-89.8C464.4,543,452.9,541.6,441.3,540.4 M777.7,549.9c0.1-1,0.3-2.9,0.4-3.9
	c-6.4,0.5-12.7,1.1-19.1,1.5c-5,0.1-9.4,2.5-14.2,3.4c0.1-0.6,0.2-1.8,0.3-2.3c-9.5,0.9-19.1,0.5-28.4,2.3c-5.8-1.2-12,0.3-18,0.1
	c-0.5,10.2,0.4,20.4,0.7,30.6c7.2-3.7,14.2-7.5,21.4-11.2c3.2-1.8,7-1.1,10.5-1.4c2,33.8,3.9,67.6,5.8,101.3
	c13.3-0.8,26.5-1.6,39.7-2.8c-2.7-3.5-5.9-6.6-9-9.8c-1-0.8-1.5-1.9-1.4-3.1c-2.1-29-4.4-58.1-6.4-87.1c2.2-1.3,5.4-0.8,8-1
	c8.1,2.9,15.9,6.5,24.2,8.8c-0.9-10-1.9-19.9-2.8-29.9C785.6,547.4,781.8,548.9,777.7,549.9 M551.5,550c2.8,4.3,5.8,8.5,8.8,12.7
	c-1.7,36.2-3.3,72.4-5.7,108.6c13.1,0.6,26.3,1.2,39.4,1.4c-2.8-4.5-7-8.2-9.1-13.1c0.9-36.1,2.2-72.1,3.2-108.1
	C575.9,551.1,563.7,550.4,551.5,550 M604.7,551.8c2.1,4.4,5.8,8,8.6,12c-0.5,36.4-1.1,72.8-1.6,109.2c27.2,0.4,54.4,0.2,81.6-0.7
	c-0.4-10.2-0.6-20.4-1-30.6c-7.6,3.7-14.9,8-22.8,11.1c-9.4,0.3-18.8,0.5-28.1,0.3c-0.1-0.6-0.3-1.8-0.4-2.4
	c1-26.2-0.1-52.4,0.5-78.5c8.8,0,17.6-0.3,26.4-0.2c7.8,2.6,14.9,7,22.6,10c-0.2-10.2-0.6-20.4-0.9-30.6
	C661.2,552.2,633,552.4,604.7,551.8 M271.6,659.2c1.9,5.1,5,9.5,7.8,14.1c-8.4,36.7-15.6,73.6-23.2,110.4c14.5,2.9,29,5.9,43.6,8.3
	c-2.2-5-6-9.2-8.2-14.2c1.7-9.7,3.6-19.3,5.3-28.9c10,1.5,20,3.4,30,5.3c-2.3,13.8-4.7,27.6-7,41.4c14.5,2.4,29,4.8,43.6,6.9
	c-2.4-4.9-5.6-9.2-8.6-13.7c5.6-37.2,11.3-74.3,16.9-111.5c-9.9-1.4-19.7-3.3-29.6-4.6c-10.9,1.6-21.5,4.8-32.3,7.2
	c0.8-4.2,1.6-8.5,2.4-12.7C298.6,664.7,285.1,662,271.6,659.2 M902.8,677.4c3.5,3.9,7.7,7.2,11.7,10.6c2.3,14.9,4.7,29.7,7.6,44.5
	c12.2,3,24.5,5.9,36.8,8.7c9.7,2.1,19.6,3.4,29,6.4c1.1,6,2.4,12,3.3,18.1c-12,2.3-24.1,4.7-36.2,6.5c-9.4-1.4-18.5-4.2-27.7-6.4
	c1.7,11.2,3.5,22.4,5.3,33.6c32-5,63.8-10.9,95.4-17.6c-4.1-19.5-8.2-38.9-12.2-58.3c-4.2-1.7-8.6-2.1-12.9-3.1
	c-17.7-3.8-35.5-7.3-52.9-12.4c-0.8-4.8-1.8-9.6-2.4-14.4c11.5-2.1,23-4.3,34.5-6.4c9.2,1.2,18.1,3.7,27.2,5.5
	c-2.3-11.1-4.7-22.2-7-33.3C969.3,666.3,936.1,672.2,902.8,677.4 M391.1,680.3c2.4,4.7,5.6,8.9,8.4,13.4c-5,37.3-10,74.6-15,111.9
	c11,1.5,22,2.9,33,4.2c-0.5,6.8-1.5,13.6-2.2,20.5c14.7,1.7,29.5,3.3,44.3,4.6c-2.8-5-6.6-9.3-10-13.8c0.3-2.5,0.5-5,0.8-7.5
	c10.4,0.3,20.7,1.9,31.1,2.5c3.1-37.4,6.2-74.8,9.2-112.1c-4.1-4.7-7.8-9.9-12.7-13.7C448.9,687.5,420,684.1,391.1,680.3
	 M853.5,684.3c-9.9,4.7-19.1,10.7-28.7,16.1c-0.5-4.3-0.9-8.5-1.4-12.8c-13.7,1.4-27.3,2.7-41,3.9c3.3,4.3,7.5,7.7,11.5,11.3
	c2.4,37.5,6.1,75,9.3,112.4c14.7-1.3,29.4-2.7,44-4.5c-3.6-4-8.1-7.3-12-11c-1-9.8-2.1-19.7-3.1-29.5c9.9-1.6,20-2.3,30-3.6
	c2.1,13.9,3.5,27.9,5.3,41.8c14.6-1.8,29.2-3.7,43.7-5.9c-3.1-3.3-6.6-6.1-10.2-9c-0.8-0.8-2.2-1.4-2.1-2.7
	c-5.2-36.9-10.3-73.8-15.5-110.6C873.4,681.7,863.4,682.6,853.5,684.3 M499.8,692.1c2.7,5,7.2,8.9,9,14.3c-2.5,37-5.3,74-7.9,111.1
	c10.7,0.7,21.4,1.7,32.2,1.9c10.9-3,21.4-7.4,32.1-11.3c-0.1,4.3-0.3,8.6-0.5,12.9c14.7,0.5,29.4,1.1,44.1,1.1
	c-3-4.8-8-8.3-10.3-13.6c0.6-37.2,1.5-74.4,2.2-111.6c-13.7-0.3-27.5-0.8-41.2-1.3c3.2,4.5,6.7,8.8,10.1,13.2
	c-1.2,23.6-1.2,47.3-3.3,70.9c-10.4,3.8-20.6,7.8-31,11.6c1.7-32.2,3.5-64.4,5.3-96.6C526.9,694,513.4,692.9,499.8,692.1
	 M680.1,697.2c3.1,4.3,7,7.9,10.4,11.9c1.1,37.5,2.2,75,3.4,112.5c29.9-0.9,59.7-2.5,89.5-4.8c-0.8-10.4-1.6-20.9-2.4-31.3
	c-7.7,4-15.4,7.9-23.2,11.6c-2.6,1.5-5.7,1.2-8.5,1.4c-7.6,0.3-15.3,1.1-22.9,1c-1.8-34.6-3.3-69.3-5-104
	C707.5,696.3,693.8,696.6,680.1,697.2 M620.1,697.3c3.4,4.3,7,8.5,10.5,12.7c-0.1,37.5-0.1,74.9-1,112.4c14.7-0.1,29.5,0.1,44.2-0.5
	c-3.2-4.2-7.4-7.5-10.3-11.9c-0.9-1.3-0.6-2.9-0.7-4.4c-0.4-36.2-1-72.3-1.5-108.5C647.6,697.4,633.8,697.3,620.1,697.3z"/>
<path class="st2" d="M65,138.6c-5.5-19.3-7.5-40.5-0.7-59.7c19.9,29.9,46.4,55,75.7,75.6c0.8,0.6,1.6,1.2,2.3,1.9
	c3.8,3.9,8.6,6.6,13,9.9c52.2,35.8,110.8,61.5,170.9,80.9c32.5,10.4,65.6,19.1,99.1,25.1c1.4-1.8,2.8-3.6,4.2-5.4
	c24.1,7.1,48.2,14,72.3,21.3c-2.2,15.9-1.1,33.2,7.7,47.1c8.7,13.7,25.7,20.6,41.5,18.9c13.1-1.4,25.8-6.9,36.1-15.1l0.8-0.7
	c-3,8.5-6,17-9,25.5c5.8-3.2,11.6-6.5,17.4-9.8c-2.9,7.4-5.4,15-7.8,22.6c-0.9-2.9-0.9-5.8-0.9-8.8c-3.9,1.6-7.7,3.2-11.6,4.8
	c-0.4-5.5-0.5-11.1-0.9-16.6c-12.6,6.2-27.3,8.8-41,5.2c-13.3-3.3-24.5-12.3-32.8-23.1c-8.1-10.5-13.7-22.5-18.3-34.8
	c2.2-1.7,4.5-3.4,7-4.9c-0.3-0.1-1-0.5-1.3-0.6c-18-8.5-36.3-16.3-54.4-24.3c-0.7,2.4-1.5,4.8-2.3,7.2
	c-44.9-7.6-89.1-19.3-132.2-33.9c-33.7-11.5-66.8-25.2-98.4-41.7c-29.7-15.5-58.2-33.6-83.8-55.3c-16.9-14.2-32.2-30.3-45.8-47.7
	c1.4,12.9,4.9,25.4,8.9,37.7c11.3,33.8,30.2,65.3,55.9,90.2c19.3,18.8,42.3,33.7,67.1,44c0.9,0.4,1.7,0.9,2.2,1.9
	c-33.6-10.1-65.7-27.4-89.7-53.4C93.9,198.3,74.4,170.5,65,138.6z"/>
<path class="st2" d="M1171.7,130.3c17.1-15.2,32.5-32.4,45.2-51.4c6.6,18.9,4.8,39.8-0.4,58.8c-9.1,31.8-28.4,59.7-50.5,83.9
	c-24.1,26.6-56.7,44.2-90.8,54.5c0.2-0.3,0.7-0.8,0.9-1.1c14.4-6.4,28.7-13.6,41.6-22.7c29.6-20.3,53.5-48.4,69.6-80.4
	c10.8-21.8,19.1-45.2,22.1-69.4c-9.1,11-18.3,22-28.7,31.9c-25.2,24.5-54.2,44.8-84.8,62.1c-45.5,25.6-94.3,44.8-144.2,59.9
	c-33.7,10-67.9,18.7-102.7,24.3c-0.8-2.4-1.5-4.7-2.2-7.1c-12.3,5.3-24.5,10.8-36.7,16.2c-5.8,2.6-11.7,4.8-17.2,8
	c-0.5,0.1-1.4,0.4-1.8,0.6c2.5,1.5,4.8,3.2,7.1,4.9c-6.3,16.7-14.6,33.2-28,45.3c-9.8,8.9-22.8,14.4-36.1,14.2
	c-9.5-0.1-19.1-2.3-27.4-6.9c-2.4-3.5-3.1-7.9-5-11.7c10.7,6.3,22.9,10.6,35.5,10c14.1-0.6,28.2-7.9,35.4-20.3
	c8.1-13.7,9.1-30.4,6.9-45.9c24.1-7.2,48.2-14.2,72.4-21.2c1.3,1.8,2.7,3.6,4.1,5.4c36.3-6.5,72-16.2,107.1-27.7
	c57.7-19.3,113.8-44.4,164-79.1c3.9-3,8.4-5.3,11.8-9C1149.9,148.1,1161.3,139.8,1171.7,130.3z"/>
<path class="st3" d="M71.8,102.2c13.6,17.4,28.9,33.5,45.8,47.7c25.6,21.7,54.1,39.8,83.8,55.3c31.6,16.5,64.7,30.1,98.4,41.7
	c43.1,14.6,87.3,26.3,132.2,33.9c0.8-2.4,1.5-4.8,2.3-7.2c18.2,8,36.4,15.8,54.4,24.3c-12.3-0.1-24.5-1.4-36.7-1.7
	c-7.3-0.6-14.8,0.1-21.9-1.7c-44.2-9.3-87.9-20.9-130.8-35.1c-35-11.6-69.6-25-102.7-41.3c-39.6-19.6-78.1-43.4-107.9-76.5
	c3.7,6.2,8.5,11.7,13,17.4c38.1,45.2,87.1,80.6,140.5,105.5c17.1,8,34.8,14.7,52.8,20.7c-15.8,0.3-31.7,0.4-47.5,1
	c17.5,3.8,35.2,7,52.7,10.9c-69.3,4-138.4,10.4-207.5,17.8c26.1,22.6,56.7,39.7,89.2,51c24.3,8.3,49.6,13.8,75.3,15.1
	c-42.9,17.9-85.9,35.6-129,53.2c-1.9,0.9-4.3,1.2-5.6,3c41.3,13.2,85.5,14.2,128.3,10.4c12.1-1.1,24.2-2.8,36.2-4.9
	c-13.8,12.9-31.4,20.9-49.5,25.8c-5.6,1.3-11.2,3.1-16.9,3c-22.9-3.7-45.8-8-68.4-13.1c-16.5-7.1-33.7-12.6-49.9-20.5
	c36.6-15,70.5-35.5,103.5-57c-6.7-1-13.5-1.7-20-3.6c-3.3-0.8-6.6-1.6-9.9-2.1c-0.2,0.3-0.5,1-0.7,1.3c-0.1-0.3-0.3-1.1-0.3-1.4
	c-2.6-0.8-5.5-0.8-8-2c-3.9-2.4-8.3-3.4-12.4-5.1c-30.1-11.8-57.3-31.1-78.6-55.4c-5.3-6.1-10.4-12.5-14.7-19.4
	c26.8-1.4,53.6-1.8,80.4-2.8c29-1,58-1.8,87-2.9c-5.1-2.9-9.4-8.3-15.7-8.2c-0.2-0.1-0.5-0.3-0.7-0.4l-0.5-0.4
	c-1.8-1-3.9-1.5-5.8-2.1l-0.3-0.4c-0.4-0.9-1.3-1.5-2.2-1.9c-24.8-10.3-47.8-25.2-67.1-44c-25.7-24.9-44.6-56.3-55.9-90.2
	C76.6,127.7,73.2,115.1,71.8,102.2z"/>
<path class="st3" d="M1180.7,134.4c10.4-9.9,19.6-20.9,28.7-31.9c-3.1,24.2-11.3,47.6-22.1,69.4c-16.1,32-40,60.1-69.6,80.4
	c-13,9.1-27.2,16.3-41.6,22.7c-0.2,0.3-0.7,0.8-0.9,1.1c-2.7,1.6-6.2,1.8-9.2,2.8c-29,7.7-59,11.4-89,11.9c-2.9,0-5.8,0.4-8.6-0.4
	c44.9-12.8,88.1-31.7,127-57.5c28.1-18.5,54.1-40.4,76.6-65.4c7.5-8.5,15-17.2,21.2-26.8c-21.8,24.8-48.9,44.2-77.3,60.7
	c-36.4,20.9-75.2,37.3-114.6,51.3c-46.7,16.4-94.6,29.6-143,40.1c-6,1.2-12,3-18.3,2.9c-15.7,0.3-31.4,1.8-47,2.1
	c5.5-3.2,11.5-5.4,17.2-8c12.3-5.4,24.4-10.9,36.7-16.2c0.7,2.4,1.5,4.7,2.2,7.1c34.8-5.6,69-14.3,102.7-24.3
	c49.9-15.1,98.7-34.3,144.2-59.9C1126.5,179.2,1155.5,158.9,1180.7,134.4z"/>
<path class="st4" d="M142.3,156.4c50.1,34.8,106.4,59.5,164.1,78.6c38.2,12.4,77.1,22.7,116.6,29.8c1.1-2.5,2.2-5,3.2-7.6
	c7.4,5.8,16.6,8.7,25.4,11.6c20.9,6.3,42.4,10.4,64,13.9c-4.4,10.7-7.2,22.3-5.7,33.9c1.1,9,5.2,17.8,12.1,23.8
	c7.8,6.9,18.6,10,28.9,9.1c12.6-1,24.6-5.6,36.1-10.6c-10.3,8.2-22.9,13.8-36.1,15.1c-15.8,1.7-32.9-5.2-41.5-18.9
	c-8.8-13.9-9.9-31.2-7.7-47.1c-24-7.3-48.2-14.1-72.3-21.3c-1.4,1.8-2.8,3.6-4.2,5.4c-33.6-6-66.6-14.8-99.1-25.1
	c-60.1-19.4-118.6-45.1-170.9-80.9C150.9,163,146.1,160.3,142.3,156.4z"/>
<path class="st4" d="M964,238.4c61.4-19.4,121.5-45.1,174.7-81.9c-3.4,3.6-7.8,6-11.8,9c-50.2,34.6-106.3,59.8-164,79.1
	c-35,11.5-70.8,21.2-107.1,27.7c-1.4-1.8-2.7-3.6-4.1-5.4c-24.2,7-48.3,14.1-72.4,21.2c2.1,15.5,1.1,32.2-6.9,45.9
	c-7.2,12.4-21.3,19.7-35.4,20.3c-12.5,0.6-24.8-3.7-35.5-10l-0.9-0.6c0.1-0.4,0.3-1.3,0.3-1.8c11.8,4.5,24.2,8.7,37,7.5
	c12.4-1.1,24.2-8.8,29.4-20.3c7-14.7,4-32-2.1-46.5c22-3.5,43.9-7.7,65.2-14.3c8.4-2.8,17.1-5.6,24.1-11.2c1.1,2.5,2.2,5,3.3,7.5
	C894,258.4,929.3,249.3,964,238.4z"/>
<path class="st4" d="M596.9,217.5c12.8-5.3,26-9.5,39.4-12.8c-10.3,4.3-20.5,8.9-30.7,13.5c6.8-1.8,13.8-3.3,20.8-4.4
	c-10.7,4.2-21.4,8.4-31.8,13.3c0.6-1.6,1.2-3.3,1.8-4.9c-5.3,3.9-10.6,8-15.9,12c-3.6,2.7-8.4,2.6-12.7,3.1c-0.1-1.6,0.3-3.1,1.7-4
	C577.6,226.3,587.2,221.6,596.9,217.5z"/>
<path class="st2" d="M626.4,213.8c11.9-2.3,24-4.4,36-6c-28.1,6.7-56,16-81.2,30.4c2.3,3.6,5.6,6.5,8.7,9.4
	c3.6,4.3,9.2,6.2,14.5,7.6c7.7,1.9,15.7,1.5,23.5,0.1c-2.6-2.3-5.3-4.5-8-6.6c3.3-3.2,6.5-6.6,8.6-10.7c1.9-3.3,2.8-7,4.6-10.4
	c1.7-3.1,5.1-4.6,8.2-5.9c2-0.2,4.1,0.1,6.1,0.3c-5.1,5.7-5.8,13.6-10.5,19.5c-2,2.7-4.6,4.9-7.2,7c3.8,4.1,7.7,8.2,11.4,12.3
	c-9.1,0.1-18.1-0.2-27.2,0.3c12.8,1.1,25.6,2.7,38.5,3.9c-4.8-5.3-9.8-10.4-14.7-15.6c3.4-4.4,6.5-9.1,8.6-14.4
	c1.5-5.2,7.1-7,10.8-10.3c6.1,2.8,12.3,6.3,16.6,11.6c5.6,9.7,11.4,19.4,14.2,30.3c-3-2-5.9-4.1-8.8-6.1c1.7,4.2,3.9,8.1,5.7,12.3
	c-4.5-2.1-8.8-4.5-13.3-6.6c5.8,15.1,10.8,30.5,13.5,46.5c-9.6-18.1-26.5-31.8-45.7-38.7c7.5,8.6,14.8,17.7,19.4,28.4
	c-6.9-6.4-14.4-12.3-23.4-15.5c10.6,12.4,14.6,28.8,16.1,44.7c-5.1-5.6-9.3-12.1-12.4-19.1c-4.6,7.4-8.4,15.3-13.4,22.4
	c-0.2-7.8,0.3-15.6,0.3-23.4c-2.6,5.7-4.9,11.6-7.8,17.2c-2.8-8.5-3.1-17.7-1.4-26.4c-4.5,3.4-9,7-14.1,9.6
	c-0.8-2.4-1.6-4.9-2.4-7.3l-0.1-0.3c3.6-9.4,3.5-21.1-3.5-29c7.7,1.1,15.3-0.9,22.8-2.3c-12.8-2.7-23.5-11-33-19.6
	c-5.5-5.2-10.6-11.2-17.8-14.2c-0.2-0.5-0.5-1.4-0.7-1.9c4.3-0.5,9-0.4,12.7-3.1c5.3-4,10.5-8.1,15.9-12c-0.6,1.6-1.2,3.3-1.8,4.9
	C605,222.2,615.7,218,626.4,213.8z"/>
<path class="st3" d="M616.3,227.1c7.9-3.2,16.3-6.1,25-5.4c-3.1,1.3-6.5,2.8-8.2,5.9c-1.8,3.3-2.7,7.1-4.6,10.4
	c-2.1,4.1-5.3,7.5-8.6,10.7c2.7,2.2,5.4,4.3,8,6.6c-7.7,1.4-15.8,1.7-23.5-0.1c-5.3-1.4-10.8-3.3-14.5-7.6c3.7,1.1,7.1,3.1,11,3
	c3.1,0.2,6.1-0.7,9-1.8c-1.7-0.1-3.4-0.2-5.1-0.3C612,243.8,615.2,235.3,616.3,227.1z"/>
<path class="st4" d="M647.3,222c3.3,0.6,6.5,1.5,9.7,2.7c-3.7,3.3-9.3,5.1-10.8,10.3c-2,5.3-5.2,10-8.6,14.4
	c4.9,5.2,9.9,10.4,14.7,15.6c-12.8-1.2-25.6-2.8-38.5-3.9c9.1-0.4,18.1-0.1,27.2-0.3c-3.7-4.2-7.6-8.2-11.4-12.3
	c2.6-2.1,5.3-4.2,7.2-7C641.5,235.6,642.3,227.7,647.3,222z"/>
<path class="st0" d="M607.9,231c-1.3,5.1-2.9,11.1-7.8,14c-4.4,2.2-8.8-1.4-11.7-4.4c1.8-0.6,3.5-1.1,5.3-1.7c1,1.7,2.9,3.3,4.9,2.4
	c2.2-0.8,2.5-3.5,1.7-5.4C602.9,234.2,605.4,232.6,607.9,231z"/>
<path class="st3" d="M673.6,236.2c3.1,1.7,5.2,4.8,7.4,7.4c11.1,14.1,18.3,30.9,23.3,48.1c-5-4.1-11.5-5.6-17.7-7.1
	c4.6,13.5,8.1,27.6,7.5,42c-0.2,4.8-1.3,9.5-3,14c-5-7-13.5-9.8-20.9-13.1c1.7,10.9-4.4,21-11.6,28.5c-6.6-8.2-12.5-17-18.9-25.4
	c-5.5,8.3-10.9,16.6-16.4,24.9c-6.9-8-12.1-17.5-14.6-27.8c-3.2,4.1-6.2,8.3-9.6,12.3c2-6.2,4.3-12.3,6.3-18.5
	c-6.6,1.4-13,3.3-19.6,4.5c5.8-6.5,10.7-13.6,14.3-21.5c0.8,2.4,1.6,4.9,2.4,7.3c5.1-2.6,9.6-6.1,14.1-9.6
	c-1.7,8.8-1.4,17.9,1.4,26.4c2.9-5.6,5.2-11.4,7.8-17.2c0,7.8-0.5,15.6-0.3,23.4c5-7.2,8.8-15,13.4-22.4c3.1,7,7.2,13.5,12.4,19.1
	c-1.5-15.9-5.5-32.3-16.1-44.7c9,3.2,16.5,9.1,23.4,15.5c-4.5-10.6-11.8-19.7-19.4-28.4c19.2,6.9,36.1,20.6,45.7,38.7
	c-2.7-16-7.7-31.4-13.5-46.5c4.5,2.1,8.8,4.5,13.3,6.6c-1.8-4.1-4-8.1-5.7-12.3c3,2,5.9,4.1,8.8,6.1
	C685,255.6,679.2,245.9,673.6,236.2z"/>
<path class="st5" d="M553.2,249.9c5.4-1,11.3-2.3,14.9-6.9c0.6,0.5,1.9,1.6,2.5,2.1c-2,4.2-5.6,7.6-10,9.2c-5.7,2.5-13,1.5-17.3,6.7
	c-4.4,5.1-3.4,12.1-3.8,18.3c-3.2-5.7-5-13.1-1.9-19.2C540.6,254.3,547.1,251.3,553.2,249.9z"/>
<path class="st6" d="M570.6,245c7.3,6,14.6,12.1,21.9,18.1c-2.3,2.2-2.7,5.3-2.8,8.3c-1.9,4.5-7.1,7-11.8,6.8
	c-7.7-0.3-14.6-4.2-21-8.3c5,1.1,10,2.5,15,3.4c2.9,0.8,5.8-1.1,7.6-3.3c2.8-3.4,3.4-8,3.6-12.3c-11.4,3.4-22.8,6.7-34.1,10.3
	c-5.3,2.4-6.5,8.8-8.5,13.7c-0.5-0.8-0.8-1.6-1.1-2.4c0.4-6.2-0.6-13.3,3.8-18.3c4.3-5.2,11.6-4.3,17.3-6.7
	C565,252.6,568.6,249.3,570.6,245z"/>
<path class="st4" d="M37,277.7c56,0.4,112,0.9,168,1.3c2.4,0.2,4.8-0.2,7.3-0.1c0.2,0.1,0.5,0.3,0.7,0.4
	c-42.6,2.6-85.3,4.8-127.9,6.1c-16.1,0.4-32.2,0.8-48.3,0C36.7,282.8,36.8,280.2,37,277.7z"/>
<path class="st4" d="M1125,278.6c39.7-0.3,79.5-0.6,119.2-1c0.3,2.6,0.3,5.1,0.3,7.7c-19.5,0.9-39,0.2-58.4-0.3
	c-23.3-0.7-46.5-1.9-69.7-3C1119.1,280.7,1121.7,278.4,1125,278.6z"/>
<path class="st2" d="M85.1,285.3c42.7-1.3,85.3-3.5,127.9-6.1c6.3-0.1,10.6,5.3,15.7,8.2c-29,1-58,1.9-87,2.9
	c-26.8,1-53.6,1.5-80.4,2.8c4.3,6.9,9.4,13.3,14.7,19.4c21.4,24.3,48.5,43.6,78.6,55.4c4.1,1.7,8.6,2.7,12.4,5.1
	c-30.1-6.8-60.1-16.1-86.8-31.8c-16.4-10-32.2-23.1-39.9-41.1c-2-4.7-3.2-9.6-3.7-14.7C52.9,286.1,69,285.7,85.1,285.3z"/>
<path class="st2" d="M1101.3,289c5-2.3,10-4.8,15-7c23.2,1.1,46.5,2.3,69.7,3c19.5,0.6,39,1.2,58.4,0.3
	c-1.4,15.4-10.4,28.9-21.4,39.2c-13.9,13.1-30.9,22.3-48.4,29.7c-19.7,8.2-40.3,14.3-61.2,18.9c5.9-3.1,12.4-4.6,18.4-7.5
	c35.3-15.3,66.7-40.5,88-72.6C1180.4,291.5,1140.8,290.5,1101.3,289z"/>
<path class="st3" d="M1064.8,302.5c12.4-3.9,24.5-8.4,36.5-13.5c39.5,1.5,79.1,2.5,118.7,4c-21.3,32.2-52.6,57.4-88,72.6
	c-6,2.8-12.6,4.3-18.4,7.5c-2.6,1.1-5.5,1.3-8.3,1.9c-3.4,0.6-6.8,1.3-10.1,2.1c-6.5,1.8-13.3,2.5-20,3.6
	c32.9,21.7,67,42.1,103.5,57.1c-10.5,4.9-21.4,9-32.2,13.3c-5.6,2.4-11.5,3.8-16.8,6.9c-22.7,5.2-45.6,9.5-68.6,13.1
	c-7.3-4.9-14.5-10-21.1-15.8c40.2-2.3,80.2-8.6,119.2-18.7c-36.9-22.3-75.9-40.8-115.6-57.6c20.5-0.8,40.6-5.9,59.7-13
	c31.2-11.7,59.9-29.6,85-51.4c-37.1-4.1-74.2-7.6-111.3-10.8C1073,303.4,1068.8,303.6,1064.8,302.5z"/>
<path class="st3" d="M474.1,316.6c0.6-5.6,5-9.7,8.9-13.2c4.6,12.3,10.3,24.4,18.3,34.8c8.2,10.8,19.4,19.8,32.8,23.1
	c13.7,3.6,28.4,0.9,41-5.2c0.4,5.5,0.5,11.1,0.9,16.6c3.9-1.6,7.7-3.2,11.6-4.8c0,3,0,5.9,0.9,8.8l0.1,0.3
	c-4.8,14.3-8.3,29-11.5,43.7c-10.1,7.5-20.7,14.1-31.4,20.5c7.7-13.4,13-28.1,17.9-42.7c2.1-6.6,4.4-13.2,6-19.9
	c-19.7,1.4-40.2-2.6-56.8-13.9c-13.8-9.1-24-22.5-32.7-36.2C477.9,324.7,473.6,321.5,474.1,316.6z"/>
<path class="st3" d="M798.1,303.4c4,3.5,8.3,7.6,8.9,13.2c0.6,4.7-3.5,7.8-5.7,11.5c-4.5,7.6-11.5,13.3-18.4,18.6
	c-24.2,18-54.5,25.5-84.2,26.8c2,16.1,4.6,32.2,6.5,48.4c-1.3-1.1-1.5-2.9-1.9-4.4c-4.7-21.7-11-43.1-18.6-64
	c3.6,3.7,6.4,8.2,9.4,12.4c2.5-7.2,4.6-14.6,6.6-21.9l0.9,0.6c1.8,3.8,2.5,8.2,5,11.7c8.3,4.6,17.9,6.7,27.4,6.9
	c13.3,0.2,26.3-5.3,36.1-14.2C783.5,336.6,791.9,320,798.1,303.4z"/>
<path class="st3" d="M256,315.7c48.3-1.9,96.6-4,145-3.8c10.4,0.2,20.9,0.1,31.2,1.6c-3,0.9-6.2,1-9.4,1.4
	c-50.7,6.3-101.4,12.6-152,19.5c-14.4,1.9-28.7,4.2-43.2,5.9c2.4,0.2,4.9,0.2,7.3,0.1c54.2-2.8,108.4-5.9,162.6-9.4
	c11.6-0.6,23.3-2,35-2c-41.5,12.5-84.3,20.9-127.5,24.6c-27,2.3-54.2,2.6-81.1-0.2c-5.6-0.5-11.2-1.5-16.9-1.9
	c-0.1-0.1-0.4-0.3-0.6-0.4c-1.1-0.8-2.3-1.6-3.7-2.2c-10.3-3.9-20.5-8.6-29.4-15.2c7.8-0.1,15.5,1.3,23.2,0.7
	c-11-2.9-22.1-5.4-33-8.4c22.5-2.7,45-4.9,67.6-7.4c4.6-0.6,9.3-0.5,13.7-2.2C248.4,315.3,252.2,315.9,256,315.7z"/>
<path class="st2" d="M122.8,322.3c40.6-2.2,81.2-4.4,121.9-6c-4.4,1.7-9.1,1.6-13.7,2.2c-22.5,2.5-45.1,4.7-67.6,7.4
	c11,3,22.1,5.5,33,8.4c-7.8,0.6-15.5-0.7-23.2-0.7c8.9,6.6,19.1,11.3,29.4,15.2c1.3,0.5,2.5,1.3,3.7,2.2
	C177.2,346.5,148.3,337.6,122.8,322.3z"/>
<path class="st2" d="M1153.6,323.1c1.5-0.8,3.1-1.1,4.8-0.9c-25.5,15.6-54.7,24.4-84.1,28.9c0.8-0.9,2-1.5,3.2-1.9
	c8-2.8,15.8-6.3,23.1-10.8C1118.6,335.2,1137.1,331.6,1153.6,323.1z"/>
<path class="st3" d="M863.6,332.9c4.4-0.8,8.8-1.9,13.3-1.5c33.3,2.5,66.7,4.8,100.1,7.4c41,4.1,82.5,5.2,123.5-0.2
	c-7.3,4.5-15.1,8-23.1,10.8c-1.2,0.4-2.3,1-3.2,1.9l-0.3,0.3c-62.3,8.7-125.8,1.8-186.8-12.3C879.2,337.1,871.2,335.6,863.6,332.9z"
	/>
<path class="st3" d="M403.2,361.9c15.3-4.8,30.3-10.6,45-17.1c-11.5,9-25.1,14.8-38.2,21c-32.6,14.8-66.1,27.7-99.6,40.3
	c-17.8,6.6-35.7,13.3-53.7,19.4c10.6-1.3,20.9-4.4,31.3-6.8c40.8-10.4,81-23,120.9-36.5c3.8-1.3,7.5-2.8,11.5-3.7
	c-29.9,15.4-61.1,28.3-93.1,38.5c-30.1,9.6-61.1,16.4-92.5,19.5c-7-2.3-14.5-1.8-21.6-3.3c7.5-1.9,15.1-3.2,22.6-5.3
	c-11.3-1.3-22.8-0.8-34.2-1.5c8.4-6.1,17.3-11.5,25.8-17.6l-1.3-0.4c18.5-8.2,36.8-16.6,54.9-25.6c1.2-0.6,2.5-1,3.9-1
	C325.1,381.4,365,374,403.2,361.9z"/>
<path class="st5" d="M594.8,435.6c-0.6-27,5.5-53.7,14.4-79c3.4,8,9.4,14.5,14.7,21.3c1.7-1.6,3.4-3.4,5.1-5.1
	c-2.2,6.3-5.6,12.1-8.8,18c-3.1-6.7-5.5-13.6-8.7-20.3c-5.6,16.4-8.5,33.8-9,51.1c-0.5,17.4,2.1,35,8.9,51.1
	c3.8-5.5,6.3-11.8,10.2-17.3c-0.5,4.8-1.5,9.5-1.5,14.3c-3.7,5.2-5.5,11.4-7.1,17.4C599.9,473.5,595.3,454,594.8,435.6z"/>
<path class="st6" d="M629,372.8c2.6-3.8,5.4-7.5,7.8-11.5c4.9,8.9,9.8,17.9,14.6,26.9c0.6,0.6,0.7,2.7,2,2.1
	c4-4.7,7.6-9.6,11.5-14.3c4.5,23.6,6.6,48.1,2.2,71.8c-2.8,15-9.9,30.6-24,38.1c-0.2,1.4-0.5,2.8-0.7,4.2c-0.7-1.4-1.3-2.8-2-4.2
	c-1.7,6.1-6.9,10.4-12.4,13c-8.5-6.9-7.5-19.3-8-29.2c0-4.8,1-9.6,1.5-14.3c-3.9,5.5-6.3,11.8-10.2,17.3
	c-6.8-16.1-9.4-33.7-8.9-51.1c0.5-17.3,3.5-34.7,9-51.1c3.1,6.7,5.6,13.6,8.7,20.3C623.4,384.9,626.9,379.2,629,372.8z"/>
<path class="st3" d="M913,371.8c13.3,2.3,26.6,5.4,40,6.9c13.9,1.8,27.9,2.9,42,3c1.4,0.1,2.9-0.1,4.2,0.6
	c17.9,8.7,35.8,17.4,54.1,25.1c0.2,0.2,0.5,0.4,0.7,0.6c1.4,2.4,4,3.7,6.3,5.2c4.2,2.8,8.5,5.5,12.4,8.8c-7.6-0.7-15.1-2.6-22.6-4.1
	c-15.7-3.4-31.3-7.5-46.6-12.6C973.3,394.4,943.3,382.6,913,371.8z"/>
<path class="st4" d="M176.2,375.1c3.3,0.5,6.6,1.3,9.9,2.1c-7.5,11.2-17.9,20-28.8,27.8c-21.6,15.1-45.9,25.6-70.7,34.1
	c-2.1-1-4.3-2-6.3-3c28-9.1,56.3-19.9,79.1-39.1c6.6-5.7,12.7-12.4,16.1-20.5C175.7,376.1,176,375.4,176.2,375.1z"/>
<path class="st4" d="M1095.2,377.2c3.3-0.9,6.7-1.6,10.1-2.1c3.7,10.4,11.9,18.2,20.3,25c22.3,17.2,48.9,27.4,75.4,36
	c-2.1,1.1-4.2,2.1-6.4,3c-29.4-10.2-58.7-23-82.6-43.4C1105.6,390.2,1099.7,384.2,1095.2,377.2z"/>
<path class="st2" d="M1075.2,380.8c6.7-1.1,13.4-1.8,20-3.6c4.5,7.1,10.4,13.1,16.7,18.5c24,20.3,53.2,33.1,82.6,43.4
	c-20.9,8.5-42.8,14-64.7,19c5.3-3,11.2-4.5,16.8-6.9c10.8-4.3,21.6-8.4,32.2-13.3C1142.2,422.8,1108.2,402.4,1075.2,380.8z"/>
<path class="st2" d="M186.1,377.2c6.5,1.8,13.3,2.5,20,3.6c-33,21.5-67,42.1-103.5,57c16.2,7.9,33.4,13.4,49.9,20.5
	c-22.3-5.1-44.6-10.6-65.8-19.2c24.8-8.5,49.2-19,70.7-34.1C168.2,397.2,178.6,388.3,186.1,377.2z"/>
<path class="st3" d="M318.1,437.8c44.2-15,86.1-35.9,126.7-58.7c-9.4,9.1-20.2,16.8-30.7,24.6c-30,21.8-61.2,41.8-92.7,61.3
	c-5.4,3.6-11.4,6.4-16.9,9.9c13.5-4,25.7-11.2,38-17.7c40.3-21.7,79.7-44.9,119.2-68c-22.8,25.7-48.4,49-76.3,68.9
	c-12.5,9.1-26.1,16.5-39,25c-8.2,5.3-16.4,10.5-24.5,15.8c-17.2-4-34.3-8.3-51.5-12.3c-1.9,6.9-4.4,13.6-6.1,20.5
	c-12.8-0.9-25.4-4.3-37.1-9.6c7.3-6,14.9-11.7,22.3-17.5c1-0.8,2.1-1.7,2.2-3.1l0.1-0.4C275,465.6,296.9,452.1,318.1,437.8z"/>
<path class="st3" d="M836.2,379.1c37.7,21,76.4,40.6,117.1,55.2c3.4,1.3,7,2.1,10.2,3.7c20.5,13.9,41.7,27,64.1,37.7l0.3,0.4
	c2.5,3.7,6.6,5.8,9.9,8.7c4.8,3.9,10,7.4,14.4,11.8c-6.9,0-13.6-2.3-20.3-3.8c-21.9-5.9-42.8-15-62.1-27
	c-7.5-5.2-15.7-9.1-23.5-13.6c-13.7-7.6-27.4-15.2-41.1-22.8c-10.5-5.5-19.9-12.8-29.7-19.5C862.1,400.1,848.4,390.5,836.2,379.1z"
	/>
<path class="st3" d="M471.7,406.4c6.4-5,12.5-10.3,19.1-15.1c-3.4,5.8-8,10.7-12.3,15.8c-18.8,20.9-38.7,40.7-58,61
	c-3.5,3.8-7.3,7.4-10.3,11.7c5.3-2.9,9.9-6.8,14.7-10.4c28.4-21.7,56.1-44.3,84.2-66.3c-18.4,27-38.7,52.7-61.2,76.4
	c-11.5,11.6-22.6,23.6-33.9,35.5c-20.5-2.3-41.2-5.4-60.9-11.6c8-7.6,15.9-15.3,23.9-22.9c2.6-2.5,5.5-4.5,8.3-6.6
	C414.3,451.7,443.1,429.2,471.7,406.4z"/>
<path class="st2" d="M160.5,432.8c22.6-6.1,44.2-15.1,65.6-24.4l1.3,0.4c-8.5,6.1-17.3,11.5-25.8,17.6c11.4,0.7,22.9,0.1,34.2,1.5
	c-7.5,2.1-15.1,3.4-22.6,5.3c7.2,1.5,14.6,1,21.6,3.3C210,438.2,184.8,438.7,160.5,432.8z"/>
<path class="st2" d="M1060.3,413.3c-2.3-1.5-4.8-2.8-6.3-5.2c15.1,6.4,30.2,12.7,45.6,18.3c-9-1.3-18.1-2.1-26.9-4.3
	C1068.8,418.7,1064.5,416.1,1060.3,413.3z"/>
<path class="st2" d="M1027.9,476.1c19.3,9.4,39.3,17.7,60.2,22.7c-11.8,0.7-23.7,0.2-35.4-1.8l-0.5-0.5c-4.4-4.4-9.6-7.8-14.4-11.8
	C1034.5,481.9,1030.4,479.8,1027.9,476.1z"/>
<path class="st2" d="M215.2,492.4c12.4-4.5,24.6-9.8,36.5-15.4c-0.1,1.4-1.2,2.3-2.2,3.1c-7.5,5.8-15,11.5-22.3,17.5
	c11.7,5.3,24.3,8.8,37.1,9.6c-1.6,0.9-3.5,0.8-5.3,1c-9.4,0.6-18.8,0.8-28.2-0.3c-7.4-2.9-14.9-5.6-22.3-8.8
	C210.8,496.8,212.9,494.5,215.2,492.4z"/>
<path class="st5" d="M524.5,481.1c1.9-3.7,6.7-2.6,10.1-2.8c-7.7,9.8-14.9,21.3-14.4,34.3c-0.2,5.9,2.7,11.2,4.2,16.7
	c-6.8-4.9-10.8-13.3-10.5-21.7C514.2,497.9,519,488.9,524.5,481.1z"/>
<path class="st6" d="M534.6,478.3c2.5,0.7,4.6,2.1,6,4.4c-5.9,15.6-12.4,31.5-13.9,48.3c-0.7-0.4-1.4-0.8-2.2-1.1l-0.1-0.5
	c-1.5-5.5-4.4-10.8-4.2-16.7C519.7,499.6,526.9,488.1,534.6,478.3z"/>
<path class="st6" d="M744.3,478.9c2.1-0.2,4.4-1.2,6.5-0.4c8.7,11.5,13.6,25.8,14.5,40.1c-1.9,4.6-5.2,8.5-9.3,11.4
	c1.5-6.4,2.7-13.1,1.5-19.6c-1.9-11.2-6.3-22.1-13-31.3L744.3,478.9z"/>
<path class="st5" d="M488.7,483.5c2.6-3.6,7.5-3.9,11.6-4.4c-6.6,6.7-12,15-12.8,24.6c-1.2,8.5,1.9,16.7,4.3,24.7
	c-7.2-4.5-13-12.1-13.3-20.8C478.3,498.5,483.2,490.3,488.7,483.5z"/>
<path class="st6" d="M500.3,479.1c4,0.4,7.3,2.8,9.2,6.2c-10.7,12.2-13.7,29-15,44.7c-0.9-0.6-1.9-1-2.8-1.7
	c-2.3-8-5.5-16.2-4.3-24.7C488.3,494.1,493.8,485.7,500.3,479.1z"/>
<path class="st5" d="M740.6,482.7c1-1.5,2.3-2.7,3.8-3.7c6.7,9.2,11.1,20.1,13,31.3c1.2,6.6,0,13.2-1.5,19.6c-0.4,0.3-1.1,0.8-1.5,1
	C753,514.2,746.5,498.4,740.6,482.7z"/>
<path class="st5" d="M771.6,485.3c2.4-4.8,7.9-7,13.1-5.9c4.7,9,7.6,19,7.1,29.2c-0.2,6.9-1.8,13.7-3.6,20.4
	c-0.4,0.2-1.3,0.5-1.7,0.7C785.3,514.1,782.2,497.5,771.6,485.3z"/>
<path class="st6" d="M784.7,479.4c2.7,0.9,5.9,1.4,7.6,3.9c5.6,6.9,10.6,15.2,10.3,24.4c-0.3,9.2-6.7,17.1-14.4,21.4
	c1.8-6.6,3.5-13.4,3.6-20.4C792.3,498.4,789.4,488.4,784.7,479.4z"/>
<path class="st5" d="M542.7,511.6c-0.1-10.3,4.5-20.1,9.9-28.7c1.5,0.6,3,1.1,4.5,1.7c-4.6,7.3-8.6,15.2-9.1,23.9
	c-0.4,6.2,0.8,13,5.5,17.5c1,1.2,1.7,2.6,2.5,4C548.2,527.6,542.7,519.8,542.7,511.6z"/>
<path class="st6" d="M557.2,484.6c0.9,0.6,1.7,1.2,2.6,1.8c-6.3,12-11,26.3-6.2,39.6c-4.7-4.5-5.9-11.3-5.5-17.5
	C548.6,499.9,552.6,491.9,557.2,484.6z"/>
<path class="st6" d="M720.3,487.4c6.2,12.1,10.8,25.5,9.8,39.2c-0.1,2.3-3.1,2.5-4.5,3.5c0.1-0.5,0.2-1.4,0.3-1.9
	c2.6-5.1,2.3-11,0.9-16.5c-1.8-7.2-5.4-13.9-9.8-19.9C718,490.4,719.1,488.8,720.3,487.4z"/>
<path class="st4" d="M192.9,498.8c7.6-1.8,15-4.1,22.4-6.4c-2.3,2.1-4.4,4.4-6.6,6.7c7.3,3.2,14.8,5.9,22.3,8.8
	C217.9,506.8,204.9,504,192.9,498.8z"/>
<path class="st5" d="M716.9,491.9c4.4,6,8,12.6,9.8,19.9c1.3,5.4,1.6,11.4-0.9,16.5c-0.3-11.3-4.3-22.3-10.8-31.5
	C715.6,495.1,716.3,493.5,716.9,491.9z"/>
<path class="st0" d="M282.3,513c12,2.5,24,5.2,36,7.6c-7,35.3-14.3,70.7-21.1,106c1.3,5.2,4.7,9.6,7,14.4c-13.1-2.2-26-5.1-39-7.9
	c8.4-35.3,16-70.7,23.7-106.2C286.6,522.4,284.4,517.7,282.3,513z"/>
<path class="st0" d="M903.7,530.2c29.6-5,59-10.7,88.3-17.2c2.4,10.7,4.8,21.4,7.2,32.1c-8.1-1.8-16.1-4.2-24.3-5.5
	c-10.3,1.9-20.5,4.1-30.8,6.1c0.7,4.7,1.7,9.3,2.5,14c19.4,6.1,39.5,9.7,59.1,15c4.3,18.8,8.4,37.6,12.7,56.5
	c-28.2,6.3-56.5,11.9-85,16.8c-1.9-10.8-3.8-21.6-5.6-32.5c8.4,2.1,16.6,4.9,25.1,6.2c10.7-1.8,21.4-4,32-6.2
	c-1-5.9-2.3-11.7-3.5-17.5c-8.9-2.9-18.3-4.3-27.4-6.5c-10.6-2.6-21.2-5.3-31.8-8.1c-3-14.3-5.5-28.6-7.9-43
	C910.7,537.1,906.9,533.9,903.7,530.2z"/>
<path class="st0" d="M334.8,524.2c12,2,23.9,4.3,35.9,6.3c-0.7,4.1-1.4,8.2-2,12.3c9.6-2.1,18.8-5.6,28.3-8
	c8.9,1.1,17.8,2.6,26.7,3.7c-4.7,35.5-9.4,70.9-14.1,106.4c0.8,5.6,5.5,9.7,7.7,14.7c-13.1-1.5-26.1-3.4-39.1-5.3
	c4.6-30.8,9.3-61.6,13.8-92.5c-9.4,2.9-19,5.2-28.1,8.8c-3.7,22.4-7.4,44.7-11.1,67.1c2.4,4.6,5.4,8.9,7.4,13.7c-13-2-26-4.3-39-6.7
	c7.3-35.2,13.5-70.7,20-106.1C340,533.4,336.7,529,334.8,524.2z"/>
<path class="st0" d="M850.3,538.2c12.1-1.8,24.2-3.4,36.3-5.3c5.6,35.5,10.9,71.1,16.6,106.6c2.8,4.7,7.8,7.5,11.5,11.4
	c-13,2.5-26.1,4.1-39.1,6c-0.6-4.1-1.1-8.3-1.7-12.4c-8.7,5.4-17.1,11.2-26.2,15.8c-9.5,1.6-19.1,2.3-28.7,3.4
	c-3.8-35.7-7.4-71.4-11.3-107.1c-2.3-4.9-7.2-7.9-10.2-12.3c12-1.3,24-2.5,36-4c3.8,31,7.5,62,11.3,93c8.5-5.2,16.8-10.8,25.3-16
	c-2.1-22.8-6-45.4-8.9-68.2C857.6,545.5,853.9,542,850.3,538.2z"/>
<path class="st0" d="M441.3,540.4c11.5,1.2,23,2.6,34.6,3.7c2.6,30,5.2,59.9,8.5,89.8c2.4-4.9,3.3-10.3,4.8-15.4
	c7.1-23.7,13.6-47.5,20.1-71.4c5.2,0.4,10.4,0.8,15.7,1.1c1.5,0,2.5,1,3.7,1.8c3.2,2.3,6.7,4,10.3,5.6c-2.5,3.4-5.8,6.3-7.9,10
	c-9.3,34.2-19,68.4-29.1,102.4c-13.3-1-26.6-2.2-39.9-3.6c-2.9-25.9-5.6-51.8-8.2-77.7c-1.1-10.2-1.8-20.5-3.2-30.7
	C447.3,550.9,443.8,545.9,441.3,540.4z"/>
<path class="st0" d="M777.7,549.9c4-1,7.9-2.5,11.7-4.4c0.9,10,1.9,19.9,2.8,29.9c-8.3-2.4-16.1-6-24.2-8.8c-2.6,0.2-5.8-0.3-8,1
	c2,29.1,4.3,58.1,6.4,87.1c-0.1,1.2,0.5,2.3,1.4,3.1c3.1,3.2,6.3,6.3,9,9.8c-13.2,1.1-26.5,2-39.7,2.8c-1.9-33.8-3.8-67.6-5.8-101.3
	c-3.5,0.2-7.3-0.4-10.5,1.4c-7.2,3.6-14.2,7.5-21.4,11.2c-0.3-10.2-1.2-20.4-0.7-30.6c6,0.1,12.1-1.4,18-0.1
	c9.4-1.8,19-1.4,28.4-2.3c-0.1,0.6-0.2,1.8-0.3,2.3c4.8-0.9,9.3-3.3,14.2-3.4c6.4-0.4,12.7-1,19.1-1.5
	C778,547,777.8,548.9,777.7,549.9z"/>
<path class="st0" d="M551.5,550c12.2,0.4,24.4,1.1,36.6,1.4c-1,36-2.3,72.1-3.2,108.1c2.1,4.9,6.3,8.5,9.1,13.1
	c-13.2-0.2-26.3-0.8-39.4-1.4c2.4-36.2,4-72.4,5.7-108.6C557.3,558.5,554.3,554.3,551.5,550z"/>
<path class="st0" d="M604.7,551.8c28.3,0.6,56.5,0.4,84.7-0.5c0.3,10.2,0.7,20.4,0.9,30.6c-7.7-3-14.7-7.4-22.6-10
	c-8.8-0.1-17.6,0.2-26.4,0.2c-0.5,26.2,0.5,52.4-0.5,78.5c0.1,0.6,0.3,1.8,0.4,2.4c9.4,0.2,18.8,0.1,28.1-0.3
	c7.9-3.1,15.2-7.4,22.8-11.1c0.4,10.2,0.7,20.4,1,30.6c-27.2,0.9-54.4,1.1-81.6,0.7c0.5-36.4,1.1-72.8,1.6-109.2
	C610.5,559.8,606.8,556.3,604.7,551.8z"/>
<path class="st0" d="M271.6,659.2c13.5,2.8,27,5.5,40.5,8c-0.8,4.2-1.6,8.5-2.4,12.7c10.8-2.4,21.4-5.6,32.3-7.2
	c9.9,1.3,19.7,3.2,29.6,4.6c-5.6,37.2-11.3,74.4-16.9,111.5c3,4.5,6.3,8.8,8.6,13.7c-14.6-2-29.1-4.4-43.6-6.9
	c2.3-13.8,4.7-27.6,7-41.4c-10-1.9-19.9-3.8-30-5.3c-1.8,9.6-3.7,19.2-5.3,28.9c2.2,5,6.1,9.1,8.2,14.2c-14.6-2.4-29.1-5.4-43.6-8.3
	c7.6-36.8,14.8-73.7,23.2-110.4C276.6,668.8,273.5,664.3,271.6,659.2 M308,707.1c-1.5,0.4-3.7,0.5-3.7,2.5c-1,5.3-2.2,10.5-2.8,15.9
	c9.8,1.7,19.5,3.7,29.3,5.1c1.8-10,3.5-20,5.1-30.1C326.5,702.3,317.3,705,308,707.1z"/>
<path class="st0" d="M902.8,677.4c33.3-5.1,66.5-11.1,99.5-18c2.3,11.1,4.7,22.2,7,33.3c-9.1-1.8-18-4.4-27.2-5.5
	c-11.5,2.1-23,4.3-34.5,6.4c0.6,4.8,1.6,9.6,2.4,14.4c17.4,5.1,35.2,8.6,52.9,12.4c4.3,1,8.8,1.4,12.9,3.1
	c4,19.5,8.2,38.9,12.2,58.3c-31.7,6.7-63.5,12.5-95.4,17.6c-1.7-11.2-3.6-22.4-5.3-33.6c9.2,2.2,18.3,5,27.7,6.4
	c12.1-1.8,24.2-4.2,36.2-6.5c-0.9-6.1-2.3-12-3.3-18.1c-9.5-3-19.3-4.3-29-6.4c-12.3-2.7-24.6-5.7-36.8-8.7
	c-2.9-14.8-5.3-29.6-7.6-44.5C910.5,684.5,906.3,681.3,902.8,677.4z"/>
<path class="st0" d="M391.1,680.3c28.9,3.8,57.8,7.3,86.8,9.9c4.9,3.8,8.6,9,12.7,13.7c-3,37.4-6.2,74.8-9.2,112.1
	c-10.4-0.7-20.7-2.2-31.1-2.5c-0.2,2.5-0.5,5-0.8,7.5c3.4,4.5,7.2,8.8,10,13.8c-14.8-1.3-29.5-2.9-44.3-4.6
	c0.7-6.8,1.8-13.6,2.2-20.5c-11-1.3-22-2.7-33-4.2c5-37.3,10-74.6,15-111.9C396.7,689.2,393.5,685,391.1,680.3 M419.5,788.9
	c10.1,1.8,20.4,2.5,30.6,3.5c2.9-27.7,5.5-55.4,8.4-83.1c-9.5-1.4-19.1-2.2-28.6-3.2C426.2,733.6,423.9,761.4,419.5,788.9z"/>
<path class="st0" d="M853.5,684.3c9.9-1.7,19.9-2.6,29.8-4.1c5.2,36.9,10.3,73.8,15.5,110.6c0,1.3,1.3,1.9,2.1,2.7
	c3.5,2.8,7.1,5.6,10.2,9c-14.5,2.2-29.1,4.1-43.7,5.9c-1.8-13.9-3.2-27.9-5.3-41.8c-10,1.4-20.1,2.1-30,3.6c1,9.8,2.1,19.7,3.1,29.5
	c3.9,3.7,8.4,6.9,12,11c-14.6,1.8-29.3,3.1-44,4.5c-3.2-37.5-6.9-74.9-9.3-112.4c-4-3.6-8.3-7-11.5-11.3c13.7-1.2,27.3-2.5,41-3.9
	c0.4,4.3,0.9,8.5,1.4,12.8C834.4,695,843.6,689,853.5,684.3 M828.1,728.7c0,5.9,1,11.8,1.7,17.7c9.9-1,19.8-1.9,29.7-3.5
	c-1.3-10.1-2.3-20.2-3.9-30.2C846.3,717.7,837.1,723.2,828.1,728.7z"/>
<path class="st0" d="M499.8,692.1c13.6,0.8,27.1,1.9,40.7,2.6c-1.7,32.2-3.6,64.4-5.3,96.6c10.4-3.7,20.6-7.8,31-11.6
	c2.1-23.6,2.1-47.3,3.3-70.9c-3.4-4.4-6.9-8.7-10.1-13.2c13.7,0.5,27.5,1,41.2,1.3c-0.7,37.2-1.7,74.4-2.2,111.6
	c2.3,5.3,7.3,8.8,10.3,13.6c-14.7,0-29.4-0.6-44.1-1.1c0.2-4.3,0.3-8.6,0.5-12.9c-10.7,3.8-21.2,8.3-32.1,11.3
	c-10.7-0.2-21.4-1.2-32.2-1.9c2.6-37,5.4-74,7.9-111.1C507.1,701.1,502.5,697.1,499.8,692.1z"/>
<path class="st0" d="M680.1,697.2c13.7-0.6,27.5-0.9,41.2-1.6c1.7,34.7,3.2,69.3,5,104c7.6,0.1,15.3-0.7,22.9-1
	c2.9-0.3,5.9,0,8.5-1.4c7.8-3.7,15.5-7.7,23.2-11.6c0.8,10.4,1.6,20.9,2.4,31.3c-29.8,2.3-59.6,3.9-89.5,4.8
	c-1.1-37.5-2.2-75-3.4-112.5C687,705.1,683.1,701.5,680.1,697.2z"/>
<path class="st0" d="M620.1,697.3c13.7,0,27.5,0.1,41.2-0.2c0.5,36.2,1,72.3,1.5,108.5c0.1,1.5-0.2,3.1,0.7,4.4
	c2.9,4.4,7.1,7.7,10.3,11.9c-14.7,0.6-29.5,0.4-44.2,0.5c0.9-37.5,0.9-74.9,1-112.4C627.1,705.8,623.5,701.6,620.1,697.3z"/>
<path class="st1" d="M308,707.1c9.3-2.1,18.5-4.9,28-6.5c-1.6,10-3.3,20-5.1,30.1c-9.8-1.4-19.6-3.4-29.3-5.1
	c0.6-5.4,1.8-10.6,2.8-15.9C304.2,707.6,306.5,707.5,308,707.1z"/>
<path class="st1" d="M419.5,788.9c4.5-27.5,6.8-55.3,10.4-82.8c9.5,1,19.1,1.8,28.6,3.2c-2.9,27.7-5.5,55.4-8.4,83.1
	C439.9,791.4,429.6,790.7,419.5,788.9z"/>
<path class="st1" d="M828.1,728.7c9-5.6,18.1-11,27.5-16c1.6,10,2.5,20.1,3.9,30.2c-9.8,1.6-19.8,2.5-29.7,3.5
	C829.1,740.6,828.1,734.6,828.1,728.7z"/>
</svg>
