<?xml version="1.0" encoding="utf-8"?>
<!-- Generator: Adobe Illustrator 21.0.0, SVG Export Plug-In . SVG Version: 6.00 Build 0)  -->
<svg version="1.1" id="Layer_1" xmlns="http://www.w3.org/2000/svg" xmlns:xlink="http://www.w3.org/1999/xlink" x="0px" y="0px"
	 viewBox="0 0 909.6 908.4" style="enable-background:new 0 0 909.6 908.4;" xml:space="preserve">
<style type="text/css">
	.st0{fill:#FFFFFF;stroke:#FFFFFF;stroke-width:9.375000e-02;}
	.st1{fill:#EF4036;stroke:#EF4036;stroke-width:9.375000e-02;}
	.st2{fill:#D1D2D4;stroke:#D1D2D4;stroke-width:9.375000e-02;}
</style>
<path class="st0" d="M465.2,0c80.5,1.7,160.5,25.3,228.9,67.8c64.7,39.9,119,96.3,156.5,162.5c31.2,54.8,50.6,116.1,56.7,178.9
	c6.3,63.9-0.9,129.1-21.4,189.9c-24.6,73.2-68.4,139.8-125.7,191.6c-62.8,57-141.8,96-225.3,110.7c-19.9,3.5-40.1,5.8-60.4,6.6
	c-0.2-28.9-0.6-57.8-0.8-86.7c59.6-3,118.4-20.8,169.6-51.6c45.9-27.4,85.8-65,115.9-109.2c31.6-46.2,52.4-99.8,60-155.2
	c10.4-73.7-2.1-150.4-35.9-216.8c-32.2-63.6-83.3-117.5-145.1-153c-52.2-30.2-111.9-47.2-172.2-48.9C465.9,57.8,465.6,28.9,465.2,0z
	"/>
<path class="st0" d="M309.9,23.5C350.2,10,392.5,2.2,435,0.4c0.3,28.9,0.6,57.8,0.9,86.6c-69,3.4-136.9,26.9-193.3,66.9
	c-56.2,39.6-101,95.3-127.5,158.8c-25,59.4-33.6,125.5-25.2,189.3c9.6,74.8,43.3,146.2,94.7,201.4c46.7,50.6,107.8,87.7,174.2,105.6
	c27.6,7.5,56.1,11.7,84.7,12.6c0.3,28.9,0.6,57.8,0.9,86.7c-64.4-1.4-128.4-16.6-186.4-44.6c-65.7-31.5-123.6-79.1-167.3-137.5
	c-45.8-61-75.9-133.7-86.2-209.3c-9.1-65.7-3.8-133.4,15.7-196.7c21.1-68.7,59-132.2,109.3-183.5C179.5,85.5,241.9,46.2,309.9,23.5z
	"/>
<path class="st1" d="M428.3,124.9c51.2-3.8,103.2,4.4,150.6,24.1c59.1,24.4,110.7,66.5,146.7,119.3c19.9,29.1,35.1,61.5,44.8,95.4
	c20.7,72.4,15.9,151.9-14,221c-24.3,56.8-64.8,106.4-115.5,141.6c-54.5,38-120.7,58.8-187.1,58.9c-44.5,0.2-89-8.6-130-26
	c-59.1-24.9-110.6-67.6-146.2-120.9c-20-29.8-35-62.9-44.3-97.5c-14.6-54.3-15.1-112.2-1.5-166.7c15.8-63.4,51-121.7,99.6-165.3
	C285.3,160,355.7,129.9,428.3,124.9 M439.3,272c-26.7,3.4-51.9,18.4-67.1,40.7c-57.7,79.3-115.4,158.7-173.1,238
	c-11.8,13.4-9.7,36,3.6,47.6c11.5,11.1,31.1,12.4,43.9,2.7c4.3-3,7.5-7.1,10.4-11.3c52.8-71.6,105.6-143.2,158.4-214.9
	c5.5-7.3,10.6-15.1,17.4-21.4c5.1-5.4,12-10.4,19.9-9.7c8.9,0.4,15.3,7.4,21.4,13.1c5.6,5.1,9.9,11.5,14.5,17.4
	c55.1,72,110.1,143.9,165.2,215.9c7.5,10,21,14.4,33.1,12.1c16.1-2.5,29.1-17.8,28.8-34.1c0.5-10.2-5-19.3-11.3-26.7
	C645.7,464.6,587,387.6,528.2,310.7c-4-5.3-8.1-10.6-13-15.1C495.1,277,466.4,268.3,439.3,272 M444,481.4
	c-20,3.5-36.1,22.3-36.3,42.7c-0.6,12.1,3.6,24.4,12.1,33.1c8.5,9.4,21.2,14.8,33.9,14.2c13.4,0.4,26.4-6.2,34.7-16.5
	c8.5-10,11.7-24,9.5-36.8c-2-13.8-11.4-26-23.6-32.5C465.1,480.7,454.2,479.7,444,481.4z"/>
<path class="st0" d="M439.3,272c27.1-3.6,55.8,5,76,23.7c4.9,4.5,9,9.8,13,15.1c58.8,76.9,117.5,153.8,176.2,230.7
	c6.3,7.4,11.8,16.6,11.3,26.7c0.3,16.3-12.7,31.6-28.8,34.1c-12.2,2.3-25.6-2.1-33.1-12.1c-55.1-72-110.1-143.9-165.2-215.9
	c-4.7-5.9-8.9-12.3-14.5-17.4c-6.1-5.7-12.4-12.7-21.4-13.1c-7.9-0.7-14.7,4.2-19.9,9.7c-6.8,6.3-11.9,14.1-17.4,21.4
	C362.7,446.4,309.9,518,257.1,589.6c-3,4.2-6.2,8.3-10.4,11.3c-12.8,9.7-32.4,8.4-43.9-2.7c-13.3-11.6-15.4-34.3-3.6-47.6
	c57.7-79.3,115.4-158.7,173.1-238C387.4,290.4,412.6,275.3,439.3,272z"/>
<path class="st2" d="M444,481.4c10.2-1.7,21.1-0.8,30.3,4.2c12.2,6.5,21.6,18.7,23.6,32.5c2.3,12.8-1,26.8-9.5,36.8
	c-8.3,10.3-21.4,16.8-34.7,16.5c-12.7,0.6-25.4-4.8-33.9-14.2c-8.5-8.7-12.7-21-12.1-33.1C407.9,503.8,424,485,444,481.4z"/>
</svg>
