<?xml version="1.0" encoding="utf-8"?>
<!-- Generator: Adobe Illustrator 21.0.0, SVG Export Plug-In . SVG Version: 6.00 Build 0)  -->
<svg version="1.1" id="Layer_1" xmlns="http://www.w3.org/2000/svg" xmlns:xlink="http://www.w3.org/1999/xlink" x="0px" y="0px"
	 viewBox="0 0 509.1 227.3" style="enable-background:new 0 0 509.1 227.3;" xml:space="preserve">
<style type="text/css">
	.st0{fill:#CC0000;stroke:#CC0000;stroke-width:9.375000e-02;}
	.st1{stroke:#000000;stroke-width:9.375000e-02;}
</style>
<path class="st0" d="M152.9,1.5c2.8,0,5.6,0,8.2-1c3.6-0.6,7.3-0.3,10.9-0.5c0.1,22.8-0.1,45.7,0.2,68.5c1.9,4,6.4,4.7,9.7,7.1
	c0,11.2,0,22.3,0,33.5c4.9,0.9,10,0.9,14.7,2.6c0.1,10.3-0.2,20.7,0.1,31c0.7,2.9,4.1,3.1,6.5,3.2c5.8,0.3,10,5.4,12.2,10.4
	c1.9,4.6,2.8,10.2,0.2,14.7c-1.8,3.1-5.4,4-8.5,4.8c-0.9,3.9,1.1,7.6,2.4,11.1c6,3.1,12.7,5.1,19.6,4.8c5.3-0.1,10.6-1.6,15.9-1.6
	c2.3,0,3,2.6,2.9,4.4c0,9.4-0.2,18.8-0.2,28.2c0.1,1.8-0.3,4.5-2.6,4.7c-3.9-0.3-7.2-2.6-10.9-3.8c-7.7-2.7-15.8-4.4-23.1-8
	c-7.2-3.1-13.4-8-20.4-11.6c-4.1-1.1-9.9,1.4-12.3-3.3c2.1-3.8,0.2-7.8-1.1-11.5c-1-2.6-2.5-5-4.1-7.3c-4.1,2.1-8.5,4.8-10.2,9.4
	c-0.7,1.3-0.7,3.2-2.4,3.6c-0.6-6.7,2.6-13.1,7.7-17.3c-2.2-1.1-4.4-2.9-7-1.9c-1.3,0.1-3.2,1.3-4.1-0.3c-1.2-3.9-0.4-8.1,0.9-11.9
	c0.1-15.7,0-31.4,0-47.1c0.1-1.6-0.3-3.5,1.1-4.6c-0.3-3.6,1.5-6.8,1.2-10.4c-0.1-24.3,0-48.6,0-72.9c0.1-5.1-4.3-8.9-4-14.1
	C156.5,9.8,151,6.3,152.9,1.5 M198,151.3c-1.7,1.9-2,4.5-2.7,6.9c0.7,0.1,2.1,0.3,2.8,0.4c0.2,1.1,0.4,2.2,0.6,3.3
	c4.6-0.5,8.4-3.1,11.2-6.6c-0.7,7.3-8.2,9.9-13.5,13.3c3.6,6.8,16.7,4.8,17.4-3.2c0.5-5.8-1.6-12-6.3-15.5
	C204.6,147.9,200.3,148.7,198,151.3z"/>
<path class="st1" d="M310.1,57.4c4.3-2.8,9.9-3.4,14.8-1.7c3.6,1.3,6,4.5,8.6,7.1c0.1-2,0.1-4.1,0.1-6.1c5,0,10,0,14.9,0
	c0,13.3-0.1,26.6,0.1,39.9c-5,0.3-10,0.2-15,0.1c0.3-7.6-0.3-15.7-4.6-22.2c-2.3-3.6-7.3-5.2-11.1-2.9c-2.9,1.9-3.6,5.6-4.1,8.8
	c-2.1,15-0.9,30.2-1.2,45.2c-0.1,10,0.2,20.1,1.8,30c0.7,4.5,2.9,9.9,7.9,11c4.8,1.1,9-3,10.3-7.3c2.2-7.2,2.8-14.8,2.5-22.3
	c5,1.4,10.1,2.6,15.1,4.3c-1.1,11.7-2.1,24.6-10.3,33.8c-5,6-13.2,8.5-20.8,7c-8.9-1.3-15.4-8.6-18.6-16.6
	c-4.8-11.7-5.9-24.5-6.3-37c-0.7-6.3-0.6-12.6,0.1-18.9c0.3-12.1,1.4-24.4,5.2-36C301.4,67.3,304.5,61.1,310.1,57.4z"/>
<path class="st1" d="M0,56.1C11,56,22,56,32.9,56.1c-0.1,4.8-0.1,9.5,0,14.3c-1.8,0-3.6-0.1-5.3-0.1c-1,4.7-0.5,9.5-0.6,14.2
	c0,23,0,46,0,69c0,3.6,0.6,7.4,2.6,10.4c2.7,3.7,7.9,3.8,11.9,2.8c5-1.7,6.1-7.6,6.4-12.2C48,130.2,48,105.9,48,81.5
	c0-3.5,0.3-7.1-0.3-10.6c-1.8-0.6-3.8-0.5-5.7-0.6c0-4.7,0-9.5,0-14.2c10.1,0,20.2-0.1,30.2,0.1c-0.3,4.7-0.4,9.5-0.3,14.2
	c-3.3-0.1-6.7-0.1-10,0.5c0.3,26.9,0.1,53.7,0.1,80.6c0,8.6-2,18.2-9,23.9c-4.6,4.3-10.9,5.5-17,5.8c-4.2-0.6-8.7-0.4-12.5-2.4
	c-4.2-2.7-7.5-6.6-10.5-10.5c-3.6-5.6-3.1-12.5-3.1-18.8C10,123.2,10.2,96.9,10,70.6c-3.3-0.2-6.6-0.2-9.9-0.3V56.1z"/>
<path class="st1" d="M80.9,56.1c8.6,0,17.3,0,25.9,0c5.9,21.8,12.4,43.5,18.3,65.3c1.9,5.5,2.5,11.4,5,16.6
	c2.2-5.7-0.2-11.7,0.1-17.5c-1-15.3-1.3-30.7-1.1-46c-0.2-1.3,0.5-3.4-1.2-4c-2.5-0.2-5-0.1-7.4-0.2c0-4.3-0.1-8.6,0-13
	c-0.3-1.5,1.4-1.4,2.4-1.4c9.7,0.1,19.3,0,29,0c0,4.2,0,8.5,0,12.7c-2.7,0.4-5.5,0.7-8.2,1c-0.4,36.5,0.1,73.1-0.2,109.7
	c-4.4,0-8.9,0-13.3,0c-7-22.4-14.2-44.7-19.9-67.5c-2.3-8.6-4.1-17.3-6.6-25.8l-1.4-0.8c0.5,16,0.9,32.1,0.6,48.1
	c0.8,10.5,0.4,21,0.5,31.5c2.6,0.4,5.2,0.5,7.8,0.4c0,4.7,0.1,9.4-0.1,14c-10.1-0.1-20.2,0-30.3,0c-0.1-4.7-0.1-9.4-0.1-14
	c2.8,0.1,5.7,0.2,8.5-0.5c-0.2-31.7,0-63.4-0.1-95c-2.8-0.3-5.6-0.3-8.4-0.2C80.9,65.1,80.8,60.6,80.9,56.1z"/>
<path class="st1" d="M212,56.7c11,0,21.9,0,32.9,0c0,4.8,0,9.7,0,14.5c-1.9,0-3.8,0.1-5.7,0.1c-0.5,26.7-0.1,53.5-0.2,80.2
	c-0.1,4.3,0.1,8.8,2.3,12.7c2.6,4,8.2,4.4,12.4,3.1c4.6-1.8,5.9-7.3,6.1-11.7c0-26.7,0-53.4,0-80.1c0-1.4-0.2-2.8-0.3-4.2
	c-1.8,0-3.6,0-5.5,0c-0.1-4.8-0.1-9.7,0-14.5c10,0,20.1,0,30.2,0c-0.1,4.8-0.1,9.7,0,14.5c-3.2,0-6.3,0-9.5,0.1
	c-0.1,1.4-0.3,2.9-0.3,4.3c0,25,0,49.9,0,74.9c-0.4,7.3-0.9,15-5.2,21.2c-5.8,8.7-17.2,12.2-27.1,10c-9-1.1-16.7-8.2-19.1-16.9
	c-1.2-4.3-1.3-8.8-1.2-13.3c0-25.3,0-50.7,0-76c0-1.4-0.2-2.8-0.3-4.3c-3.1,0-6.3-0.1-9.4-0.1C212.1,66.3,212.1,61.5,212,56.7z"/>
<path class="st1" d="M361.1,56.7c11.2,0.1,22.4,0,33.7,0.1c-0.1,4.8,0,9.5-0.1,14.3c-2.3,0-4.6,0-6.9,0.2c-0.1,31.5,0.1,63-0.1,94.5
	c2.4,0.3,4.8,0.5,7.2,0.6c-0.1,4.7-0.1,9.4-0.1,14.1c-11.2,0-22.5-0.1-33.7,0c0-4.8,0-9.6,0-14.4c2.7,0,5.5,0.2,8.2-0.1
	c1.2-0.1,1.5-1.4,1.4-2.3c0.1-30.5-0.2-61,0.1-91.5c-2.6-2.3-6.6-0.7-9.8-1.1C361,66.3,361,61.5,361.1,56.7z"/>
<path class="st1" d="M399.4,56.6c10.3,0,20.7,0,31,0c0,4.9,0.1,9.7-0.1,14.6c-2.6,0-5.1-0.1-7.7-0.1c-1.7,2.8-2.6,6-3.8,9
	c-4.3,11.1-8.4,22.2-12.7,33.3c6.6,17.3,12.5,34.9,19,52.3c2.7,0.3,5.7-0.3,8.1,0.5c0.7,4.6,0,9.5,0.3,14.2c-11.4,0-22.8,0-34.2,0
	c0-4.8,0-9.7,0-14.5c2.8,0,5.6-0.1,8.4-0.2c-5.6-15.7-11.2-31.4-17-47c-1.4-3.3,1.1-6.4,2-9.5c4.6-12.7,10.1-25.1,14.2-38
	c-2.6-0.1-5.1-0.1-7.7-0.1C399.4,66.3,399.4,61.5,399.4,56.6z"/>
<path class="st1" d="M435.4,56.7c11.2,0,22.4,0,33.6,0c0,4.8,0,9.7,0,14.5c-2.8,0-5.6,0.1-8.4,0.2c2.1,6.6,4.7,13.1,6.9,19.7
	c1.7,4.5,2.9,9.3,5.4,13.5c4.2-11,8.1-22.1,11.7-33.3c-2.6-0.1-5.2-0.1-7.8-0.1c0-4.8,0-9.7,0-14.5c10.4,0,20.9,0,31.4,0
	c0.3,1.4,0.8,4.1,1,5.5v-3.8c-0.2,3.2-0.6,9.6-0.9,12.8c-2.7,0.1-5.4,0.1-8,0.2c-6.3,16.7-12,33.5-18.2,50.2
	c-1.3,3.2-0.9,6.7-0.9,10c0.2,11.5-0.2,22.9,0.2,34.4c3.2,0.1,6.4,0.1,9.6,0.1c0,4.8,0,9.7,0,14.5c-12.2,0-24.4,0-36.7,0
	c0-4.8,0-9.7,0-14.5c3.1,0,6.3-0.1,9.4-0.1c0.4-12.1,0-24.3,0.2-36.4c0.2-3.4-0.7-6.6-2-9.7c-6.3-16.1-11.9-32.6-18.5-48.6
	c-2.6,0-5.3,0-7.9,0C435.4,66.3,435.4,61.5,435.4,56.7z"/>
<path class="st1" d="M282.8,184.7c6.2,5.1,12.1,10.7,16.9,17.1c2.4,3.4,5.1,7.6,3.6,12c-2,4.5-7.8,5.8-12.2,4.7
	c-2.7-0.7-4.1-3.3-5.9-5.2c0.3,4.6,3.8,7.8,5.1,12c-5.1,0-10.3,0.1-15.4-0.1c2.3-3.9,5.3-7.4,6.2-11.9c-1.9,1.8-3.6,4.1-6.1,5
	c-4.2,1.3-9.4,0.2-11.8-3.7c-1.9-3.2-0.5-7,1.2-10C269,196.8,275.9,190.6,282.8,184.7z"/>
<path class="st0" d="M339.1,190.6c3.4-7,14.1-7.8,18.8-1.8c2.8,3.7,2.5,8.8,0.4,12.7c-4.3,8.3-10.7,15.2-17.2,21.9
	c-0.8,1.2-2.5,1.5-3.5,0.4c-6.3-5.4-11.6-11.9-15.7-19.1c-2.4-4.5-4.6-10.2-1.9-15.1C324,182.9,335.7,183.3,339.1,190.6z"/>
<path class="st1" d="M389.3,190.6c2.4-6.9,13.3-8,17-1.6c3.2,4.9,0.6,11.8-4.8,14.1c3.9-1.6,8.6-3.7,12.6-1.5
	c4.9,2.2,6.3,9.1,3.2,13.4c-3.3,5.1-12.3,5.1-15.3-0.3c-0.7-1.2-1.5-2.2-2.4-3.2c-0.9,5.3,2.7,9.4,4.7,14c-4.2,0.1-8.4,0.1-12.6-0.1
	c2-4.5,6-8.6,4.5-14c-1.2,2-2,4.4-4,5.7c-4.1,3.1-10.9,2.2-13.6-2.4c-2.9-4.2-1.2-10.6,3.3-12.9c3.2-1.8,7-0.8,10.4-0.2
	C389.5,198.9,387.4,194.4,389.3,190.6z"/>
<path class="st0" d="M455.1,185.5c0.4,0,1,0,1.4,0c4.9,5.2,9.8,10.5,15.3,15.2c1.6,1.5,3.8,2.7,4.5,5c-7.4,6-14.3,12.6-20.4,19.9
	c-6.4-7.4-13.5-14.1-20.9-20.4C442,198.9,449.1,192.7,455.1,185.5z"/>
</svg>
