<?xml version="1.0" encoding="utf-8"?>
<!-- Generator: Adobe Illustrator 21.0.0, SVG Export Plug-In . SVG Version: 6.00 Build 0)  -->
<svg version="1.1" id="Layer_1" xmlns="http://www.w3.org/2000/svg" xmlns:xlink="http://www.w3.org/1999/xlink" x="0px" y="0px"
	 viewBox="0 0 1502.1 749.1" style="enable-background:new 0 0 1502.1 749.1;" xml:space="preserve">
<style type="text/css">
	.st0{fill:#7E00F8;}
	.st1{fill:#020202;stroke:#020202;stroke-width:9.375000e-02;}
	.st2{fill:#FFFFFF;stroke:#FFFFFF;stroke-width:9.375000e-02;}
</style>
<path class="st0" d="M0,0h1502v0.2c-82.8,58.4-165.3,117.1-248,175.7c0,189.5,0,378.9,0,568.4c-30.7-20.3-61.3-40.9-91.9-61.4
	c-32.2-21.5-64.4-42.8-96.5-64.5c-41.2-27.4-82.4-55-123.5-82.5c-0.2,22.6-0.1,45.3,0,67.9c-63.2,45.9-126.9,91.1-190.2,136.9
	c-64.1-45.1-128.3-90.1-192.4-135.2c0.1-25.7,0-51.5,0-77.2C455.6,601.9,351.7,675.5,247.8,749H247c0.1-191.1-0.1-382.1,0.1-573.2
	c-11.8-8.9-24.1-17.1-36-25.8C140.7,100.2,70.3,50.4,0,0.4V0 M59.9,17.6c20.2,15.1,40.7,29.8,60.9,44.7
	C168.6,97.2,216.3,132,264,166.9c0,137.1,0,274.1,0,411.2c0.1,44.9-0.2,89.9,0.2,134.8c55.2-38.3,110.5-76.5,165.6-114.9
	c-0.1-21,0-41.9,0-62.8c48-34.1,95.9-68.3,143.8-102.4c1.7-1.3,3.4-2.6,5.4-3.4c0.2,55.8-0.2,111.6,0.1,167.4
	c54.5,38.7,109,77.4,163.4,116.2c0-51.1-0.1-102.1,0-153.2c5.9,3,11,7.4,16.4,11.2c0,47.6-0.2,95.3,0.1,143
	c54.4-39.5,108.8-79.1,163.2-118.6c0-36.8,0.1-73.6-0.1-110.4c-16.4-11.7-33.3-22.9-49.4-35c11.6-8.2,23.2-16.5,35-24.5
	c109.8,77.6,219.6,155,329.4,232.5c0-163.6,0-327.3,0-490.9c69.1-50,138.4-99.6,207.5-149.6C983.1,17.6,521.5,17.4,59.9,17.6z"/>
<path class="st1" d="M59.9,17.6c461.6-0.2,923.1,0,1384.7-0.1c-69.1,49.9-138.4,99.6-207.5,149.6c0,163.7,0,327.3,0,490.9
	c-109.8-77.5-219.6-154.9-329.4-232.5c-11.8,8-23.3,16.3-35,24.5c16.1,12.1,33,23.2,49.4,35c0.1,36.8,0,73.6,0.1,110.4
	c-54.4,39.5-108.8,79-163.2,118.6c-0.3-47.6-0.1-95.3-0.1-143c-5.4-3.8-10.5-8.2-16.4-11.2c-0.1,51.1,0,102.1,0,153.2
	c-54.5-38.8-108.9-77.5-163.4-116.2c-0.3-55.8,0-111.6-0.1-167.4c-2,0.8-3.7,2.1-5.4,3.4c-48,34.1-95.9,68.3-143.8,102.4
	c0,21-0.1,41.9,0,62.8c-55.1,38.4-110.5,76.6-165.6,114.9c-0.4-44.9-0.1-89.9-0.2-134.8c0-137.1,0-274.1,0-411.2
	C216.3,132,168.6,97.2,120.9,62.3C100.6,47.3,80.1,32.7,59.9,17.6 M147.1,45.9c49.2,35.5,98.4,71,147.6,106.5c0.1,0.7,0.2,2,0.3,2.7
	c-0.3,167.5-0.7,334.9-1.1,502.4c35.9-24.7,71.8-49.2,107.6-74c-0.1-20.9,0-41.8-0.1-62.7c59.1-42.1,118.1-84.2,177.2-126.2
	c0.1-116.2,0.1-232.4,0.2-348.6C435,45.9,291,45.9,147.1,45.9 M607.5,582.3c35.6,25.3,71.2,50.6,106.7,75.9c0-51.2,0-102.4,0-153.5
	c24.4,17.3,48.8,34.5,73.2,51.7c0,34.1,0,68.1,0,102.2c35.6-25.8,71.2-51.7,106.8-77.6c0-27.1,0-54.1,0-81.2
	c-23.2-16.4-46.5-32.7-69.8-49.1c23.1-16.6,46.2-33.1,69.3-49.8c-0.1-118.3,0-236.7,0-355c-95.4,0-190.8,0-286.2,0
	C607.4,224.7,607.4,403.5,607.5,582.3 M922.6,45.9c0,118.5,0.1,237-0.1,355.5c95.4,67.6,190.9,134.8,286.4,202.3
	c0.2-150.4,0.1-300.8,0.3-451.1c49.3-35.5,98.6-71.1,147.9-106.7C1212.4,45.9,1067.5,45.9,922.6,45.9z"/>
<path class="st2" d="M147.1,45.9c143.9,0,287.9,0,431.8,0c-0.1,116.2-0.1,232.4-0.2,348.6c-59.1,42-118.1,84.2-177.2,126.2
	c0,20.9-0.1,41.8,0.1,62.7c-35.8,24.8-71.7,49.4-107.6,74c0.4-167.4,0.7-334.9,1.1-502.4c-0.1-0.7-0.3-2-0.3-2.7
	C245.5,116.9,196.3,81.4,147.1,45.9 M413.6,131.5c-4.3,4.2-8.7,8.3-13,12.4c8.2,6.6,16.6,13.1,24.8,19.8c-0.1,65.2,0,130.4,0,195.5
	c10.6-7.5,21-15.1,31.6-22.5c0.1-68.9,0-137.8,0-206.8c-13.3,0-26.6,0-40,0C415.5,129.5,414.5,130.6,413.6,131.5z"/>
<path class="st2" d="M607.5,582.3c0-178.8,0-357.6,0-536.4c95.4,0,190.8,0,286.2,0c0,118.3,0,236.7,0,355
	c-23.1,16.6-46.2,33.2-69.3,49.8c23.2,16.4,46.6,32.7,69.8,49.1c0,27.1,0,54.1,0,81.2c-35.6,25.9-71.1,51.8-106.8,77.6
	c0-34.1,0-68.1,0-102.2c-24.4-17.2-48.8-34.5-73.2-51.7c0,51.2,0,102.4,0,153.5C678.6,632.9,643.1,607.5,607.5,582.3 M710,143.9
	c0.1,61-0.1,121.9,0.1,182.9c13.7,10.6,27.2,21.3,40.8,32c13.7-10.7,27.3-21.5,40.9-32.2c0-60.8,0-121.7,0-182.5
	c-4-4.2-8.6-8-12.8-12c-1.2-1-2.2-2.6-4-2.1c-16.7,0-33.3,0-50,0C720.1,134.7,715,139.3,710,143.9z"/>
<path class="st2" d="M922.6,45.9c144.9,0,289.7,0,434.6,0c-49.3,35.5-98.6,71.2-147.9,106.7c-0.2,150.4-0.2,300.8-0.3,451.1
	c-95.4-67.5-191-134.8-286.4-202.3C922.7,282.9,922.6,164.4,922.6,45.9 M1038.3,130c-5,4.7-10.2,9.3-15.2,14.1
	c0.1,60.9,0,121.8,0.1,182.6c27.3,21.3,54.5,42.6,81.8,64c0.1-82.3,0-164.5,0-246.7c-5-4.7-10.1-9.3-15.1-14
	C1072.7,129.9,1055.5,129.9,1038.3,130z"/>
<path class="st1" d="M413.6,131.5c0.9-0.9,1.9-2,3.4-1.6c13.3,0,26.6,0,40,0c0,68.9,0.1,137.9,0,206.8c-10.6,7.4-21,15-31.6,22.5
	c0-65.2-0.1-130.4,0-195.5c-8.2-6.7-16.6-13.2-24.8-19.8C404.9,139.8,409.3,135.7,413.6,131.5z"/>
<path class="st1" d="M710,143.9c5-4.7,10.1-9.3,15.1-14c16.7-0.1,33.3,0,50,0c1.8-0.4,2.8,1.2,4,2.1c4.2,4.1,8.8,7.8,12.8,12
	c0.1,60.8,0,121.7,0,182.5c-13.7,10.7-27.3,21.5-40.9,32.2c-13.6-10.7-27.1-21.4-40.8-32C709.8,265.9,710.1,204.9,710,143.9
	 M741.4,311.8c3.1,2.4,6.3,4.8,9.5,7.3c3.2-2.4,6.3-4.8,9.5-7.1c0.2-49.4,0-98.8,0.1-148.3c-6.3,0-12.7,0-19,0
	C741.4,213,741.4,262.4,741.4,311.8z"/>
<path class="st1" d="M1038.3,130c17.2,0,34.4,0,51.7,0c5,4.7,10.1,9.3,15.1,14c0,82.3,0,164.5,0,246.7c-27.3-21.3-54.5-42.7-81.8-64
	c-0.1-60.9,0-121.8-0.1-182.6C1028.1,139.3,1033.3,134.7,1038.3,130 M1054.6,163.6c0,49.4-0.1,98.8,0,148.2
	c6.4,4.9,12.7,9.8,19,14.8c0.1-54.3,0-108.7,0-163C1067.3,163.7,1061,163.6,1054.6,163.6z"/>
<path class="st2" d="M741.4,311.8c0-49.4,0-98.8,0-148.1c6.3,0,12.7,0,19,0c0,49.4,0.1,98.8-0.1,148.3c-3.2,2.3-6.3,4.8-9.5,7.1
	C747.7,316.6,744.5,314.2,741.4,311.8z"/>
<path class="st2" d="M1054.6,163.6c6.3,0,12.7,0,19,0c0,54.3,0.1,108.7,0,163c-6.3-5-12.6-9.9-19-14.8
	C1054.5,262.5,1054.6,213,1054.6,163.6z"/>
</svg>
