<?xml version="1.0" encoding="utf-8"?>
<!-- Generator: Adobe Illustrator 21.0.0, SVG Export Plug-In . SVG Version: 6.00 Build 0)  -->
<svg version="1.1" id="Layer_1" xmlns="http://www.w3.org/2000/svg" xmlns:xlink="http://www.w3.org/1999/xlink" x="0px" y="0px"
	 viewBox="0 0 928.4 944.2" style="enable-background:new 0 0 928.4 944.2;" xml:space="preserve">
<style type="text/css">
	.st0{stroke:#000000;stroke-width:9.375000e-02;}
	.st1{fill:#FEFEFE;stroke:#FEFEFE;stroke-width:9.375000e-02;}
	.st2{fill:#C01E2E;stroke:#C01E2E;stroke-width:9.375000e-02;}
</style>
<path class="st0" d="M0,0L0,0C0.1,0,0.1,0.1,0,0L0,0z"/>
<path class="st0" d="M169,0h0.3c9.1,23.3,23.1,44.2,36.9,64.9c23.8,34.8,49.7,68.1,76.1,101c74.1,92,152.4,180.6,231.7,268.1
	c51.3,56.3,103.2,111.9,155.9,166.9c-23.4,4.1-47.3,6.2-70.9,4.2c-17.5-1.4-34.9-5-51.2-11.8c-18.7-7.7-35.8-19.8-48.4-35.7
	c-10.3-12.8-17.6-27.9-22.2-43.7c0.5,5.2,2.4,10.2,4,15.2c4.9,13.5,11.9,26.4,21.1,37.5c11.7,14,26.6,25.1,43.1,32.8
	c21.1,10.1,44.3,15,67.5,16.7c23.3,1.6,46.8,0.2,69.9-3.4c12-1.7,24,2.5,34.6,7.9c14.9,7.7,28.1,18.2,40.7,29.3
	c21.3,18.9,40.7,39.9,60.1,60.8c5,5.9,10.9,11.2,15.6,17.4c0.4,10.6,0.2,21.3,0.1,31.9c-5.2,9.4-14.6,16-24.3,20.3
	c3-4.4,4.4-10.2,2.4-15.4c-2.3-5.9-7.9-9.7-13.2-12.6c-9.5-4.8-19.8-7.7-30.1-10.1c-15.7-3.6-31.7-5.8-47.7-7.6
	c-3,0.1-4.3-2.9-5.8-4.9c-3.5-5.7-8.6-10.2-14.8-12.8c-12.1-5-25.5-5.2-38.5-5c-21.9,0.8-43.7,4-65.1,8.7c-16.2,3.4-32.2,9-48.9,8
	c-19.7-0.7-38.3-9.7-53.1-22.4c-12.8-10.4-23.1-23.6-36.1-33.9c-8.7-7-21.2-10.2-31.8-5.9c-9.3,3.9-13.4,14.3-14.5,23.7
	c-1.7,18,2,36,6.8,53.3c6.6,23.1,15.6,45.5,26.7,66.8c-19.4-12.9-38.4-26.8-59.9-36.1c-15.5-6.7-32.2-11.3-49.3-11
	c-19.1-0.3-37.9,6.1-53.9,16.3c-16.9,10.8-31.2,25.3-43.3,41.2c-1.3-4-1.8-8.2-2.5-12.3c-6.7-40.4-5.9-82.3,4.5-122
	c10.2-39.3,29.3-76.2,54.2-108.2c2.1,15,6.9,30,15.6,42.5c8.4,12,21,20.8,35,25.2c19.8,6.3,41,6,61.5,3.8c23.7-2.8,47.1-8.1,69.9-15
	c-33.8,7.1-68.4,13.6-103,10c-17.1-2.2-34.9-7.4-47.2-20.1c-12.5-12.6-17.5-30.6-19.3-47.9c7.5,7.5,16,14.1,25.7,18.5
	c15.8,7.5,34.7,8.8,51,2.3c-6.6-2.2-13.4-3.8-19.7-6.8c-13.6-5.9-25.5-15.6-34.6-27.3c-12.9-16.3-21.5-35.5-28.5-54.9
	c-6.5-18.8-11.8-38.2-15.2-57.8c17.2,14.6,35.7,27.7,54.8,39.6c35,21.4,72.5,39.2,111.9,50.9c-30.9-21.6-62.4-42.5-92.4-65.3
	c-31.1-23.5-61.3-48.5-88.2-76.7c-19.2-20.3-36.9-42.3-50.3-66.9c-5.1-9.8-10.2-19.7-13.3-30.3c-3.7-21.5-3.7-43.5-2.2-65.3
	c21.2,30.3,47.8,56.8,77.8,78.6c22.2,15.9,46.3,29.4,72.2,38.3c-14.3-11.5-28.9-22.7-42.4-35.1c-44.1-39.4-82.1-86-109.5-138.6
	C186,141.6,171.7,100.6,167.6,58C165.7,38.7,166.3,19.2,169,0 M196.9,81.3c-1.1,38.3,11.6,76,31.4,108.5
	c12,19.3,26.6,37.2,43.6,52.4c20.8,18.9,45.3,34.1,72.1,42.6c-0.5-1-1.1-1.9-2.2-2.3c-0.1-2.4-1.9-4.2-3.2-6.1
	c-46.1-63.6-92.1-127.3-138.2-190.9c-0.7-1-1.7-1.9-2.7-2.6C197.5,82.3,197.2,81.8,196.9,81.3 M284.2,361.5c2.3,3.7,3.9,7.7,6,11.5
	c12.3,22.5,29.2,42.6,49.6,58.3c21.6,16.5,47.1,28,74.1,31.9c21.3,3.5,43.2,2.1,64.1-3.4l-1.2-0.2c-3.7-3-8.2-4.7-12.3-6.9
	c-56.7-28.9-113.3-58-170-86.9c-2.6-1.3-5-3.2-8-3.4c-0.2-0.2-0.6-0.7-0.8-0.9C285.2,361.5,284.6,361.5,284.2,361.5 M513.9,608
	c2.9,9.5,4.4,19.5,9.2,28.3c4.5,8.6,11.2,15.9,18.5,22.1c13.8,11.3,30.6,18.2,47.4,23.6c-9.7,2.9-19.9,4.1-30.1,3.9
	c-14.6,0.3-29.1-1.5-43.4-4.5c-7-1.6-14-3.1-20.7-5.7c-0.2,0.1-0.6,0.3-0.9,0.4c17.5,8.8,36.5,14.4,55.9,16.8
	c14.9,1.7,30.4,1.8,45-2.4c7.5-2.1,14.3-6,21.1-9.6c0.9-0.4,1.7-1,2.3-1.8c-21.2-5.5-42.8-11.7-61.4-23.6
	c-8.5-5.6-16.8-12.3-21.9-21.2c27,14.6,59,19.8,89.2,13.6c-8-0.6-16.1-0.3-24.1-1.5c-20.4-2.4-40.2-9.1-57.9-19.4
	C532.2,621.4,523.4,614.2,513.9,608 M266.8,670.6c-7.9,11.8-11.8,26.3-10.9,40.4c1.2,17.9,9.2,34.9,21.2,48.1
	c0.4,0.2,1.2,0.7,1.6,0.9c-0.1-0.3-0.3-0.9-0.4-1.2c1.3-1.2,1.4-3.1,1.8-4.7c7.5-31.7,15.1-63.3,22.6-95c1.1-6.2,3.6-12.2,3.8-18.5
	c0.1-0.3,0.3-0.8,0.3-1C290.9,645.6,276.3,656.2,266.8,670.6 M695.6,648.5c-0.3,4.4,0.1,8.8,1.2,13c2.1,8,8.4,14.2,15.3,18.5
	c4.1,2.4,9.8,4.3,14,1.2c3-2.4,3-6.7,2.2-10.1c-1.3-4.9-4.3-9.1-7.5-12.9C714.8,651.1,704.9,647.5,695.6,648.5 M322.6,672.7
	c-13,12.2-16.1,32.9-9,49c4.5,10.4,13.4,19.5,24.5,22.4c-0.2-0.3-0.5-0.9-0.7-1.2c1.5-1.6,0.8-3.9,1-5.8c0.1-4.7-0.1-9.3,0.1-13.9
	c1.2-11.3,0.3-22.7,1.1-34c-0.2-8,1-16-0.2-23.9c0.2-0.3,0.5-0.8,0.7-1C333.6,664.8,327.5,668.3,322.6,672.7 M367.2,691.2
	c-3.9,12.5-2.1,26.4,3.9,38c8.2,16,22.6,28,38.6,35.7c-0.1-0.4-0.3-1.3-0.4-1.8l-0.6-0.6c-0.1-1.6-0.1-3.2-0.7-4.6
	c-9.8-28.6-18.6-57.4-28.6-85.9C373.4,676.8,369.6,684,367.2,691.2z"/>
<path class="st0" d="M230.5,79.5C299.2,39.3,378.4,17,458,16.2c85.5-1.6,171.2,21.4,244.5,65.4c66.7,39.8,123,96.6,162.3,163.5
	c36.8,62.3,58.5,133.5,62.9,205.8c1.1,14,0.6,28,0.7,42.1c-2.2,89.7-31.3,178.7-83,252.1c0-7.3,0-14.5,0-21.8
	c-25.1-27.2-49.8-54.8-77.1-79.9c37.3-70.3,48.4-153.6,32.5-231.4c-14.2-70.7-51.3-136.5-104.2-185.5
	c-31.6-29.6-68.9-53.1-109.1-69.1c-91.6-36.6-198.9-32-286.6,13.4C276.8,141,252.9,110.8,230.5,79.5 M387.9,119.6
	c8.2-0.2,16.4,0,24.5-0.7c-0.9-1.1-4.1-1.7-2.7-3.5c12.7-19.8,25-39.7,37.9-59.3c3,4.6,6,9.3,9.1,13.9c-5.5,0-11.1,0.1-16.5,0.7
	c-3.4,5.5-7.1,10.9-10.1,16.6c11.6-0.7,23.3-0.7,35-0.9c6.5,8.9,12.2,18.5,18.3,27.7c-1.1,1-2.1,2-3.2,3.1
	c8.1-0.1,16.1-0.3,24.2-0.4c-19.1-30.6-38.5-60.9-57.6-91.5C426.9,56.4,407.8,88.2,387.9,119.6 M532.2,32.6c1.2,2.5,2.7,4.8,4,7.2
	c-6.5,25.1-12.6,50.4-18.9,75.6c-2.1,1.1-4.2,2.2-6.3,3.2c2.9,1.6,6.4,1.7,9.5,2.7c17.2,4.5,34.5,8.3,51.6,13.1
	c4.8-3.2,9-7.4,13.5-11c-16.8-4.3-33.7-8.4-50.5-12.6c0.4-3,1.2-6,1.9-8.9c4.8-19.2,9.6-38.3,14.4-57.5c1.4-2.4,5.1-2.7,6.5-5.3
	C549.4,37.1,540.7,35.2,532.2,32.6 M335.1,46.9c2.3,1.4,5,2.2,7,4c3,9,6,18,8.8,27c-10.2,3.3-20.3,6.6-30.5,10
	c-0.9,5.1-1.6,10.1-2.4,15.2c-4.9-13.3-8.9-27-13.4-40.4c1.2-2.2,2.4-4.4,3.5-6.7c-9.1,2.3-17.8,5.7-26.8,8.5
	c2.2,2.2,6.6,2.3,7.2,5.8c7.1,22.2,14.4,44.4,21.6,66.6c0.5,1.9,1.6,3.8,1.5,5.8c-1,2.1-2.1,4.1-3.1,6.1c8.8-3,17.7-5.8,26.5-8.7
	c-2.1-1.2-4.2-2.3-6.3-3.3c-3.4-10.7-6.9-21.2-10.3-31.9c12.7-3.6,25-8.4,37.7-11.8c3,10.3,6.6,20.5,9.9,30.8
	c-1.1,2.4-2.2,4.8-3.3,7.1c8.9-2.9,18-5.4,26.6-8.9c-2.2-1.2-4.6-2.1-6.8-3.5c-1-1.8-1.4-3.8-2.1-5.7c-7.3-22.6-14.7-45.2-22.1-67.8
	c1.3-2.3,2.6-4.6,3.7-7C353.1,41.1,344.2,44.2,335.1,46.9 M582.8,132.5c0.8,1.6,2.6,2.1,4,3c5.6,3,11,6.5,16.7,9.3
	c-0.5-1.3-1-2.6-1.5-3.9c11.5-5.8,23-11.5,34.6-17.3c9.9-4.7,19.5-10.2,29.6-14.5c0,5.5,0.5,11,0.5,16.5c-4.5-2.8-9.3-5.1-13.8-8
	c-6,2.9-12.1,5.9-17.9,9.3c10.3,5.6,20.5,11.5,30.7,17.2c0.7,11.1,0.9,22.1,1.1,33.2c-1.3,0.2-2.6,0.5-3.8,0.7
	c0.2,0.3,0.7,0.8,1,1.1c6.5,3.9,13.3,7.3,19.7,11.3c-0.9-36.1-1.4-72.1-2.5-108.2C648.4,98.7,615.7,115.9,582.8,132.5 M737.1,238.4
	c4.2,6.9,7.8,14.2,12.5,20.8c0.1-0.9,0.2-2.8,0.3-3.7c5-0.5,10,0.3,15.1,0.4c19,1.5,38,2,56.9,3.6c-2.9,4.7-5.3,9.7-7.8,14.5
	c-2.8-4.4-5.5-9-8.1-13.6c-6.7-0.9-13.4-0.7-20.2-1.2c6.1,10.2,12.2,20.4,18.1,30.7c-5.4,9.5-10.2,19.4-15.5,29c-1-0.4-3-1-4-1.4
	c3.1,7.4,8.3,13.9,11.8,21.2c17.4-31.7,34.8-63.4,52-95.1C811.1,241.9,774.1,240.1,737.1,238.4 M880,328.6
	c-24.3,6.4-48.7,12.6-73,18.9c-3.4,1.3-6.2-1.6-9.4-2.2c2.7,8.8,4.6,17.9,7.1,26.7c1.5-2.4,2.9-4.9,4.3-7.3
	c21.4-5.5,42.8-11.2,64.3-16.5c1.2,5.7,2.9,11.2,4.3,16.8c0.3,2.1,1,4.8-0.9,6.4c-8.9-5.3-18-10.3-26.7-16c-0.5,0.5-1,1-1.5,1.4
	c4.3,11.4,4,25.6-4.3,35.1c-6.2,7.5-16.3,9.4-25.3,11.3c-2.3-1.4-4.7-2.9-7.1-4c2.3,8.3,4.6,16.5,6.4,24.9c2.5-1.2,2.7-4.6,4.8-6.3
	c9.8-2.1,19.8-5,27.8-11.3c8-6.2,11.9-16.4,12.3-26.3c5.3,3.2,10.6,6.4,15.8,9.6c1.3,0.8,2.7,1.8,4.3,1.1c4.5-1.1,8.4-4.4,10.3-8.6
	c2.8-5.7,2.5-12.5,0.7-18.4c-3.6-13.7-7-27.5-10.7-41.1C882.2,324.8,881.1,326.7,880,328.6 M846.1,434.5
	c-11.2,5-19.5,15.4-22.7,27.2c-3,9.1-2,18.9-2.4,28.3c-0.1,5.7,0.1,11.5-0.1,17.2c-0.1,1.6-1.7,2.3-2.6,3.4
	c4.6,2.7,9.6,4.7,14.4,6.9c0.9-1.2,2.4-2,2.9-3.5c0.1-5.7-0.2-11.3,0.2-17c-0.3-6.3-0.1-12.6-0.1-19c0.5-5.2,1.9-10.4,3.7-15.3
	c6.2-15.5,27.5-21.7,41.3-12.7c7.7,5.1,11.5,14.3,12.7,23.1c0.3,11.3,0,22.5,0,33.8c-1,1-2,2.1-3,3.1c4.6,3.5,9.5,6.7,14.1,10.4
	c1.1-1.1,2.2-2.3,3.3-3.4c0-11,0-22,0-33c0.6-9.5,0.2-19.2-3.3-28.1c-4.8-12.7-16.2-23.1-29.8-25.2
	C865.4,429.5,855.2,430.5,846.1,434.5 M860.4,465.8c-0.3,11.5-0.1,22.9-0.2,34.4c0.5,2-1.6,3-2.9,4.1c4.5,3.4,9.3,6.6,13.8,10
	c0.9-0.8,1.8-1.6,2.6-2.3c0-12.6,0.1-25.3,0.2-37.9C869.5,471.1,864.8,468.6,860.4,465.8 M820.5,525.6c-8.8,31.1-18,62.1-26.4,93.3
	c4.5,4,10.9,5.4,16.8,4.3c14.2-2.2,26.4-10.3,37.9-18.4c13-9.5,24.8-20.6,36.4-31.7c-5.3,18-10.4,36-15.6,54
	c-1.2,0.6-2.3,1.2-3.4,1.9c4.4,4,8.1,8.7,12.9,12.2c6.1-22.1,12.7-44.1,19-66.2c1.6-4.3,2.5-9.5-0.2-13.6c-2.1-3.8-6.8-5.1-10.9-4.7
	c-4,0.7-7.3,3.3-10,6.3c-6.1,6.9-13.1,12.8-20,18.9c-9.9,8.3-20.1,16.5-31.4,22.8c-4.5,2.5-9.5,4.6-14.8,4.1
	C819,580,827,551,835.6,522.3C830.5,523.2,825.6,524.6,820.5,525.6z"/>
<path class="st1" d="M387.9,119.6c19.9-31.3,39-63.2,58.9-94.5c19,30.6,38.5,61,57.6,91.5c-8.1,0.1-16.1,0.3-24.2,0.4
	c1-1,2.1-2,3.2-3.1c-6.1-9.2-11.8-18.8-18.3-27.7c-11.6,0.3-23.3,0.3-35,0.9c3.1-5.7,6.8-11.1,10.1-16.6c5.4-0.6,11-0.7,16.5-0.7
	c-3.1-4.6-6.1-9.3-9.1-13.9c-12.9,19.6-25.3,39.6-37.9,59.3c-1.3,1.8,1.9,2.5,2.7,3.5C404.2,119.6,396.1,119.4,387.9,119.6z"/>
<path class="st1" d="M532.2,32.6c8.5,2.6,17.1,4.5,25.8,6.5c-1.4,2.5-5,2.8-6.5,5.3c-4.8,19.2-9.5,38.3-14.4,57.5
	c-0.7,3-1.6,5.9-1.9,8.9c16.8,4.2,33.7,8.3,50.5,12.6c-4.5,3.6-8.6,7.8-13.5,11c-17.1-4.8-34.4-8.6-51.6-13.1
	c-3.1-1-6.6-1.1-9.5-2.7c2.1-1,4.2-2.1,6.3-3.2c6.3-25.2,12.4-50.5,18.9-75.6C534.9,37.4,533.4,35.1,532.2,32.6z"/>
<path class="st1" d="M335.1,46.9c9-2.8,17.9-5.9,26.9-8.7c-1.2,2.4-2.4,4.7-3.7,7c7.4,22.6,14.8,45.2,22.1,67.8
	c0.6,1.9,1.1,3.9,2.1,5.7c2.1,1.4,4.5,2.3,6.8,3.5c-8.6,3.6-17.7,6-26.6,8.9c1.1-2.3,2.3-4.7,3.3-7.1c-3.3-10.3-6.9-20.4-9.9-30.8
	c-12.7,3.4-25,8.2-37.7,11.8c3.4,10.7,6.9,21.2,10.3,31.9c2.1,1.1,4.2,2.2,6.3,3.3c-8.8,2.9-17.7,5.7-26.5,8.7c1-2.1,2.2-4,3.1-6.1
	c0-2-1-3.9-1.5-5.8c-7.2-22.2-14.5-44.4-21.6-66.6c-0.6-3.6-5-3.7-7.2-5.8c8.9-2.8,17.7-6.2,26.8-8.5c-1.1,2.3-2.3,4.4-3.5,6.7
	c4.6,13.4,8.5,27.1,13.4,40.4c0.8-5.1,1.6-10.1,2.4-15.2c10.1-3.3,20.3-6.7,30.5-10c-2.8-9-5.8-18-8.8-27
	C340.2,49.1,337.4,48.3,335.1,46.9z"/>
<path class="st1" d="M196.9,81.3c0.4,0.5,0.6,1.1,0.8,1.6c7,32.6,20.3,63.7,37.6,92c22.4,36.3,51.5,68.4,85.7,93.9
	c6.8,4.7,13.3,10,20.7,13.7c1.1,0.4,1.7,1.3,2.2,2.3c-26.9-8.5-51.4-23.6-72.1-42.6c-17-15.2-31.5-33.1-43.6-52.4
	C208.4,157.3,195.8,119.6,196.9,81.3z"/>
<path class="st2" d="M197.7,82.9c1,0.8,2,1.6,2.7,2.6c46.1,63.6,92.1,127.3,138.2,190.9c1.3,1.9,3.1,3.6,3.2,6.1
	c-7.5-3.7-13.9-9-20.7-13.7c-34.2-25.5-63.3-57.6-85.7-93.9C218,146.5,204.7,115.5,197.7,82.9z"/>
<path class="st1" d="M582.8,132.5c32.9-16.6,65.5-33.7,98.4-50.5c1.1,36.1,1.6,72.2,2.5,108.2c-6.4-4-13.2-7.4-19.7-11.3
	c-0.2-0.3-0.7-0.8-1-1.1c1.3-0.3,2.5-0.5,3.8-0.7c-0.1-11.1-0.4-22.2-1.1-33.2c-10.3-5.7-20.4-11.7-30.7-17.2
	c5.8-3.4,11.9-6.3,17.9-9.3c4.4,2.9,9.2,5.2,13.8,8c0-5.5-0.5-11-0.5-16.5c-10.1,4.3-19.7,9.8-29.6,14.5
	c-11.5,5.8-23,11.5-34.6,17.3c0.5,1.3,1,2.6,1.5,3.9c-5.7-2.8-11.1-6.2-16.7-9.3C585.5,134.6,583.6,134.1,582.8,132.5z"/>
<path class="st0" d="M66.4,242.4c24-40.1,54-76.6,88.8-107.8c5.1,15.5,11.9,30.4,19.3,45c6.9,14.6,14.3,28.8,23.1,42.3
	c-0.7,5-0.4,10.3-2.5,15c-2.9,7.6-4.3,15.5-5.9,23.4c-40.6,49.5-67.5,110.2-76,173.7c-10,71.9,2.9,146.8,37,210.9
	c18.3,34.6,42.4,66.1,71.1,92.8c0.7,0.6,1,1.5,0.9,2.5c-1.6,25.8,0.6,51.9,5.2,77.3c-4.8,1.1-9.6,2.3-14.4,3.4
	c5.6,5.2,11.8,9.8,17.8,14.7c-0.5,7.7-1.3,15.4-1.7,23.2c6.3-4.3,12.9-8.2,19.2-12.6c7.3,2.7,14.4,5.9,21.6,8.9
	c-2-7.4-3.7-14.8-6-22.1c5-6.1,10.1-12,15.3-17.9c-6.3-0.3-12.5-0.9-18.8-0.8c1.3-2.3,3.3-4,5.1-5.8c7.5-7.8,15.9-14.7,25.1-20.4
	c47.9,26.2,101.9,41.3,156.5,43c8.4,1,17.1-1.2,25.1,2c-0.1-0.5-0.4-1.6-0.5-2.1c85.8-2.4,170.1-38.7,231.1-99
	c4.5,4.8,7.3,12.1,14.5,13.5c16.7,2.1,33.5,4.1,49.9,8c10.2,2.5,20.7,5.2,29.7,10.8c2.5,1.8,6.3,4.3,4.7,7.9
	c-3.7,5.9-10.1,9.4-16,12.8c-11.4,6-23.4,10.9-34.7,17c11.1-1,22.2-2.4,33.3-3.5c7.8-1,15.6-2.2,23-5.1
	c-60.8,66.8-141.5,115.2-229.1,137c-62.3,15.7-127.8,18.1-191,7.4c-71.7-12-140.3-41.4-198.5-84.9c-63.5-47.1-114.7-110.6-147-182.8
	C10.1,600.5-3.4,523.2,2.1,447.2C7,375.2,29.2,304.4,66.4,242.4 M141.6,206.5c-7.6,0.8-15.1,1.5-22.7,2.1
	c4.7,6.2,10.5,11.4,15.6,17.2c-1.9,7.4-3.4,14.8-5,22.3c7-3,13.9-6.3,20.8-9.6c6.7,3.8,13.2,7.7,19.8,11.7c-0.3-7.7-1.8-15.3-2.4-23
	c5.8-5.1,11.6-10.2,17.3-15.3c-7.5-1.4-15-2.8-22.5-4.5c-3.5-6.9-6.4-14.2-9.4-21.3C149.1,192.8,145.4,199.7,141.6,206.5
	 M81.2,306.3c-7.5,0.9-14.9,2.1-22.4,2.8c0.4,1,0.9,1.9,1.7,2.6c4.8,4.7,9.4,9.4,14.1,14.1c-1.4,7.6-2.9,15.2-4.2,22.8
	c6.8-3.7,13.6-7.3,20.6-10.4c6.9,3.3,13.5,7.3,20.3,10.9c-1.3-7.6-2.3-15.3-3.7-22.9c5.7-5.3,11.3-10.7,16.9-16.1
	c-7.7-1-15.3-2.3-23-3.5c-3.3-6.9-6.6-13.8-9.8-20.6C87.9,292.4,84.9,299.5,81.2,306.3 M48.3,419.4c-7.6,1-15.3,2-22.9,3.1
	c5.5,5.5,11,10.8,16.4,16.3c-1.3,7.6-2.8,15.2-4.1,22.9c6.8-3.5,13.5-7.2,20.5-10.5c7,3.2,13.7,7.3,20.6,10.9
	c-1.2-7.7-2.7-15.3-3.5-23.1c5.4-5.4,11.3-10.4,16.6-16c-7.7-0.9-15.3-2.3-23-3.4c-3.3-6.9-6.7-13.7-9.8-20.7
	C55,405.5,51.9,412.6,48.3,419.4 M48.5,537.4c-7.4,0.9-14.7,1.7-22.1,2.6c-0.1,0.2-0.2,0.5-0.3,0.7c5,5.6,10.6,10.6,15.6,16.2
	c-1.7,7.5-3,15.1-4.6,22.6c7-3.5,13.9-6.9,21-10.3c6.5,4,13.4,7.3,19.8,11.3c-0.4-7.8-2.6-15.5-2.8-23.3c5.7-5,11.1-10.3,16.7-15.4
	c-6.6-1-13.2-2.3-19.8-3.3c-1.3-0.3-3.2-0.1-3.6-1.8c-3-6.6-6.1-13.2-9.1-19.7C55.5,523.6,52.2,530.6,48.5,537.4 M87.3,642.6
	c-7.6,1-15.4,1.4-23,2.5c4.7,4.8,9.2,9.8,13.9,14.7c0.7,0.9,2.2,1.8,1.6,3.2c-1.3,7.2-3.2,14.3-4.4,21.6c6.8-3.5,13.8-6.5,20.6-10
	c6.5,3.6,12.8,7.5,19.4,11.1l1-0.1c-1.3-7.4-2.2-15-3-22.5c5.6-5.2,11.7-9.8,16.8-15.5c-7.5-1.4-15-2.7-22.4-4.1
	c-3.2-7.1-6.2-14.2-9.5-21.2C94.8,629.1,90.9,635.8,87.3,642.6 M147.7,737.5c-7.6,1-15.2,1.4-22.8,2.1c4.8,6,10.4,11.4,15.5,17.2
	c-1.9,7.5-3.6,15-5.2,22.5c6.9-3.4,14-6.3,20.9-9.7c6.6,4,13.3,7.9,19.9,12c-0.7-7.7-1.7-15.3-2.6-23c5.8-5.1,11.7-10.1,17.4-15.2
	c-7.5-1.7-15.1-3.1-22.6-4.7c-3-7.1-5.9-14.3-9.1-21.3C155.2,724.1,151.6,730.9,147.7,737.5 M693.3,791.6c-7.6,2-15.5,2.6-23.2,4.1
	c4.8,4.6,9.8,9.1,14.5,13.8c0.9,1,2.6,1.9,2.1,3.5c-1.1,7.2-2.3,14.3-3.3,21.5c6.8-3.8,13.6-7.6,20.5-11.2c6.7,3.8,13.7,7,20.5,10.5
	c-1.5-7.6-2.9-15.2-4.3-22.8c5.3-5.5,10.8-10.9,16.1-16.4c-7.6-1.2-15.2-2-22.8-3c-3.5-6.9-7.2-13.7-10.5-20.7
	C699.6,777.7,696.2,784.6,693.3,791.6 M586.1,851.2c-7.7,0.7-15.3,2.2-23,2.8c5.4,5.6,11,11,16.5,16.6c-1.5,7.6-2.8,15.2-4.3,22.8
	c6.9-3.5,13.6-7.2,20.7-10.3c7,3.2,13.6,7.4,20.5,10.9c-1.5-7.6-2.4-15.4-3.8-23c5.8-5,11-10.7,16.8-15.7
	c-7.5-1.6-15.1-2.5-22.7-3.8c-3.4-6.9-6.6-13.8-9.9-20.7C592.8,837.3,589.7,844.4,586.1,851.2 M353.3,842.3
	c-3.3,5.8-6.6,11.6-10,17.3c-7.7,0.4-15.3,1.2-23,1.7c5.1,5.8,10.4,11.5,15.5,17.3c-1.8,7.5-3.7,14.9-5.4,22.4c7-3.1,14-6,20.9-9.3
	c6.7,3.9,13.2,8.1,19.8,12.1c-0.6-7.6-1.4-15.3-2.3-22.9c5.8-5.1,11.9-9.9,17.5-15.2c-7.5-1.6-14.9-3.4-22.3-4.7
	c-2.9-7-5.8-14.1-8.7-21.2C354.4,840.6,353.7,841.4,353.3,842.3 M469.7,860.7c-2.2,4.4-4.7,8.6-6.7,13c-7.6,1.4-15.3,2-23,3
	c4.9,5.8,10.5,11,15.8,16.4c-1.2,7.7-3,15.3-4.3,23c6.8-3.6,13.9-6.6,20.6-10.3c6.8,3.7,13.5,7.6,20.3,11.2
	c-1-7.7-2.5-15.2-3.2-22.9c5.6-5.2,11.2-10.4,16.9-15.6c-7.6-1.5-15.2-2.6-22.8-4c-3.1-6.9-6.4-13.7-9.5-20.6
	C471.8,855.7,471,858.3,469.7,860.7z"/>
<path class="st2" d="M310.1,181.6c48.8-24.1,103.5-36.3,158-34.6c37.3,0.9,74.5,8.2,109.4,21.4c71,26.7,132.1,78.4,170.4,143.8
	c28.2,47.7,44.2,102.5,45.9,157.9c-0.3,5.7,1,11.3,0.2,16.9c-0.5,51.1-13.2,102-36.5,147.4c-13.1-11.1-27.3-21.2-43.2-27.8
	c-8.3-3.3-17.2-5.7-26.3-5.4c-1.8,0.3-3-1-4-2.1C632.7,546,582.4,492,532.5,437.5C457.6,355.3,383.8,272,313.1,186
	C311.9,184.7,310.6,183.4,310.1,181.6 M631.2,220.5c-20.5,3.5-40.5,11.7-56.2,25.5c-14.5,12.5-24.7,29.4-30.7,47.5
	c-7.7,22.6-9.5,46.8-8.6,70.6c0.9,14.5,2.5,28.9,5.6,43.1c0.4,1.4,0.5,3.1,1.4,4.3c53,58.2,106.3,116.1,159.2,174.4
	c-4.3-10.7-8.8-21.3-13.3-32c-8-19.9-15.2-40-21.9-60.3c-14.6-44.8-26.8-90.6-32.9-137.5c-2.3-19.9-4-40-2.4-60.1
	c1.3-19.3,5-39,14.6-56.1c4.6-8.5,11.5-15.4,18-22.4C653,218,642,218.6,631.2,220.5z"/>
<path class="st1" d="M141.6,206.5c3.9-6.8,7.5-13.7,11.4-20.4c2.9,7.2,5.9,14.4,9.4,21.3c7.5,1.6,15,3,22.5,4.5
	c-5.7,5.2-11.5,10.2-17.3,15.3c0.6,7.7,2.1,15.3,2.4,23c-6.6-4-13.1-7.9-19.8-11.7c-6.9,3.4-13.8,6.6-20.8,9.6
	c1.6-7.4,3.1-14.9,5-22.3c-5.1-5.8-10.9-11-15.6-17.2C126.4,207.9,134,207.2,141.6,206.5z"/>
<path class="st1" d="M631.2,220.5c10.8-1.9,21.8-2.5,32.8-2.9c-6.5,7.1-13.4,14-18,22.4c-9.5,17.1-13.3,36.7-14.6,56.1
	c-1.6,20,0.1,40.2,2.4,60.1c6,46.8,18.3,92.6,32.9,137.5c6.7,20.3,13.9,40.5,21.9,60.3c4.5,10.6,9,21.3,13.3,32
	C649,527.6,595.7,469.7,542.7,411.5c-1-1.2-1.1-2.9-1.4-4.3c-3.1-14.2-4.7-28.7-5.6-43.1c-0.9-23.8,0.9-47.9,8.6-70.6
	c6-18,16.3-34.9,30.7-47.5C590.6,232.2,610.7,224,631.2,220.5 M578.4,258.2c-16.2,15.9-25,37.7-28.9,59.7c-0.7,3.7-0.9,7.4-2,11
	c4.4-10.7,10.1-20.9,17.9-29.5c9.3-10.4,20.8-19.5,34.5-23c-18.6,13.5-32.3,33.3-39.3,55.1c-5.5,16.2-6.1,33.7-3.6,50.5
	c1.1-7.1,1.7-14.4,4.7-21.1c6.8-17.6,21.8-30.6,38.4-38.8c-9.5,10-19.5,20-25,32.9c-5.7,12.4-6.5,26.7-3.3,39.9
	c4.9,21.5,16.4,40.7,28.3,59c4.9,7,9.4,14.4,15.4,20.5c17.5,19.2,35.1,38.3,52.5,57.5c-20-56.1-37.3-113.7-45.1-172.9
	c-2.8-22.6-4.3-45.4-2.4-68.1c1.8-21,6.5-42.4,18-60.4C616.5,233.7,594.3,242,578.4,258.2z"/>
<path class="st0" d="M578.4,258.2c15.8-16.2,38-24.5,60.1-27.6c-11.5,17.9-16.2,39.4-18,60.4c-2,22.7-0.4,45.6,2.4,68.1
	c7.8,59.3,25.1,116.8,45.1,172.9c-17.4-19.2-35-38.4-52.5-57.5c-6-6.1-10.5-13.5-15.4-20.5c-11.9-18.3-23.5-37.5-28.3-59
	c-3.1-13.2-2.3-27.5,3.3-39.9c5.5-12.9,15.5-22.9,25-32.9c-16.6,8.2-31.6,21.2-38.4,38.8c-2.9,6.7-3.5,14-4.7,21.1
	c-2.5-16.8-1.9-34.3,3.6-50.5c7-21.8,20.7-41.6,39.3-55.1c-13.7,3.5-25.2,12.6-34.5,23c-7.8,8.6-13.5,18.8-17.9,29.5
	c1.1-3.6,1.3-7.4,2-11C553.4,295.9,562.3,274.1,578.4,258.2z"/>
<path class="st1" d="M737.1,238.4c37,1.8,74,3.6,111.1,5.3c-17.2,31.8-34.6,63.5-52,95.1c-3.5-7.3-8.7-13.8-11.8-21.2
	c1,0.4,3,1,4,1.4c5.3-9.6,10.1-19.5,15.5-29c-5.9-10.3-12-20.5-18.1-30.7c6.7,0.4,13.5,0.3,20.2,1.2c2.6,4.6,5.3,9.2,8.1,13.6
	c2.5-4.9,4.9-9.9,7.8-14.5c-18.9-1.6-38-2.1-56.9-3.6c-5-0.1-10-0.8-15.1-0.4c-0.1,0.9-0.2,2.8-0.3,3.7
	C744.9,252.6,741.3,245.3,737.1,238.4z"/>
<path class="st2" d="M124.4,502.1c-4.9-77.1,18-155.7,64.1-217.8c1,26.9,9.8,53,22.7,76.5c14.9,27.8,35.6,51.9,58.2,73.8
	c0.8,16.5,2,33,3.8,49.4c0.4,16.7,3.5,33.4,9.2,49.2c2.7,8.6,6.1,16.9,9.4,25.3c1.7,3.5-0.6,7-2.6,9.8c-26.6,34-47.4,73-58.2,115
	c-3.3,12.4-5.5,25-7.2,37.7c-26.3-25.8-48.2-56.1-64.8-89.1C138.9,591.5,127,547.1,124.4,502.1z"/>
<path class="st1" d="M81.2,306.3c3.7-6.7,6.7-13.9,10.8-20.4c3.3,6.9,6.6,13.8,9.8,20.6c7.6,1.3,15.3,2.6,23,3.5
	c-5.6,5.4-11.2,10.8-16.9,16.1c1.3,7.6,2.4,15.3,3.7,22.9c-6.8-3.5-13.4-7.5-20.3-10.9c-7,3.2-13.9,6.8-20.6,10.4
	c1.3-7.6,2.7-15.2,4.2-22.8c-4.7-4.7-9.4-9.4-14.1-14.1c-0.8-0.7-1.3-1.6-1.7-2.6C66.3,308.3,73.7,307.2,81.2,306.3z"/>
<path class="st1" d="M880,328.6c1-2,2.2-3.9,3.4-5.8c3.7,13.7,7.1,27.4,10.7,41.1c1.8,6,2.1,12.7-0.7,18.4
	c-1.9,4.3-5.8,7.5-10.3,8.6c-1.6,0.7-3-0.4-4.3-1.1c-5.3-3.2-10.6-6.4-15.8-9.6c-0.4,9.9-4.3,20.2-12.3,26.3
	c-8,6.3-18.1,9.2-27.8,11.3c-2.2,1.6-2.3,5.1-4.8,6.3c-1.9-8.4-4.1-16.7-6.4-24.9c2.5,1.2,4.8,2.6,7.1,4c9-1.9,19.2-3.8,25.3-11.3
	c8.3-9.5,8.6-23.7,4.3-35.1c0.5-0.5,1-1,1.5-1.4c8.7,5.6,17.8,10.6,26.7,16c1.9-1.6,1.1-4.3,0.9-6.4c-1.3-5.6-3.1-11.1-4.3-16.8
	c-21.5,5.3-42.8,11-64.3,16.5c-1.4,2.4-2.8,4.9-4.3,7.3c-2.5-8.9-4.4-17.9-7.1-26.7c3.2,0.5,6,3.5,9.4,2.2
	C831.4,341.2,855.7,335,880,328.6z"/>
<path class="st1" d="M284.2,361.5c0.3,0,1,0,1.3,0c0.2,0.2,0.6,0.7,0.8,0.9c29.6,31.6,62.9,61.2,103.4,77.8
	c27.5,11.8,57.3,16.7,86.9,19.4l1.2,0.2c-20.8,5.5-42.8,6.9-64.1,3.4c-26.9-3.9-52.5-15.4-74.1-31.9c-20.4-15.7-37.3-35.8-49.6-58.3
	C288.2,369.2,286.5,365.1,284.2,361.5z"/>
<path class="st2" d="M286.4,362.4c3,0.2,5.4,2,8,3.4c56.7,28.9,113.3,58,170,86.9c4.1,2.3,8.6,3.9,12.3,6.9
	c-29.6-2.6-59.4-7.6-86.9-19.4C349.3,423.7,316,394,286.4,362.4z"/>
<path class="st1" d="M48.3,419.4c3.6-6.8,6.7-13.9,10.7-20.5c3.2,6.9,6.6,13.8,9.8,20.7c7.7,1.2,15.3,2.6,23,3.4
	c-5.3,5.6-11.2,10.6-16.6,16c0.8,7.7,2.3,15.4,3.5,23.1c-6.9-3.5-13.5-7.7-20.6-10.9c-6.9,3.3-13.7,7-20.5,10.5
	c1.3-7.6,2.8-15.2,4.1-22.9c-5.4-5.5-11-10.9-16.4-16.3C33,421.4,40.6,420.4,48.3,419.4z"/>
<path class="st1" d="M846.1,434.5c9-4,19.3-5,29-3.8c13.6,2.1,25,12.5,29.8,25.2c3.5,8.9,3.9,18.7,3.3,28.1c-0.1,11,0,22,0,33
	c-1.1,1.1-2.2,2.2-3.3,3.4c-4.6-3.6-9.5-6.8-14.1-10.4c1-1.1,2-2.1,3-3.1c0-11.3,0.3-22.5,0-33.8c-1.2-8.8-5-18-12.7-23.1
	c-13.8-8.9-35.2-2.7-41.3,12.7c-1.9,4.9-3.3,10-3.7,15.3c-0.1,6.3-0.2,12.7,0.1,19c-0.4,5.7-0.1,11.3-0.2,17c-0.5,1.5-2,2.3-2.9,3.5
	c-4.9-2.2-9.8-4.2-14.4-6.9c0.9-1.1,2.5-1.9,2.6-3.4c0.2-5.7,0-11.5,0.1-17.2c0.3-9.5-0.7-19.2,2.4-28.3
	C826.6,449.9,835,439.5,846.1,434.5z"/>
<path class="st1" d="M860.4,465.8c4.4,2.8,9.1,5.4,13.6,8.1c-0.1,12.6-0.2,25.3-0.2,37.9c-0.9,0.8-1.8,1.5-2.6,2.3
	c-4.6-3.4-9.3-6.6-13.8-10c1.3-1,3.3-2.1,2.9-4.1C860.2,488.7,860,477.2,860.4,465.8z"/>
<path class="st1" d="M48.5,537.4c3.7-6.8,7-13.8,10.9-20.4c3,6.6,6.1,13.1,9.1,19.7c0.4,1.6,2.3,1.5,3.6,1.8
	c6.6,1,13.2,2.3,19.8,3.3c-5.6,5.1-10.9,10.4-16.7,15.4c0.1,7.9,2.4,15.5,2.8,23.3c-6.4-4-13.3-7.4-19.8-11.3c-7,3.4-14,6.8-21,10.3
	c1.6-7.5,2.9-15.1,4.6-22.6c-5.1-5.5-10.6-10.6-15.6-16.2c0.1-0.2,0.2-0.5,0.3-0.7C33.8,539.1,41.2,538.3,48.5,537.4z"/>
<path class="st1" d="M820.5,525.6c5-1,10-2.4,15-3.3C827,551,819,580,810.8,608.9c5.3,0.5,10.3-1.6,14.8-4.1
	c11.4-6.3,21.5-14.5,31.4-22.8c6.8-6.1,13.9-12,20-18.9c2.7-2.9,6-5.5,10-6.3c4.1-0.4,8.8,0.8,10.9,4.7c2.7,4.1,1.8,9.3,0.2,13.6
	c-6.3,22.1-12.9,44.1-19,66.2c-4.8-3.6-8.5-8.2-12.9-12.2c1.1-0.6,2.3-1.3,3.4-1.9c5.2-18,10.4-36,15.6-54
	c-11.6,11.1-23.4,22.2-36.4,31.7c-11.5,8.1-23.7,16.2-37.9,18.4c-5.9,1.1-12.3-0.2-16.8-4.3C802.5,587.7,811.7,556.7,820.5,525.6z"
	/>
<path class="st1" d="M513.9,608c9.5,6.2,18.3,13.4,28.3,18.9c17.7,10.3,37.5,17,57.9,19.4c8,1.1,16.1,0.9,24.1,1.5
	c-30.1,6.3-62.2,1.1-89.2-13.6c5.1,8.9,13.5,15.6,21.9,21.2c18.6,11.9,40.2,18.1,61.4,23.6c-0.6,0.8-1.4,1.4-2.3,1.8
	c-6.9,3.5-13.6,7.5-21.1,9.6c-14.5,4.2-30,4.1-45,2.4c-19.4-2.4-38.4-8-55.9-16.8c0.2-0.1,0.6-0.3,0.9-0.4
	c6.7,2.6,13.7,4.1,20.7,5.7c14.3,3,28.8,4.9,43.4,4.5c10.1,0.2,20.3-1,30.1-3.9c-16.8-5.4-33.6-12.3-47.4-23.6
	c-7.4-6.2-14-13.5-18.5-22.1C518.3,627.5,516.8,617.5,513.9,608z"/>
<path class="st1" d="M87.3,642.6c3.6-6.8,7.5-13.5,11-20.4c3.3,7,6.4,14.1,9.5,21.2c7.5,1.5,14.9,2.8,22.4,4.1
	c-5.1,5.6-11.2,10.3-16.8,15.5c0.8,7.5,1.7,15,3,22.5l-1,0.1c-6.5-3.6-12.8-7.5-19.4-11.1c-6.8,3.6-13.8,6.5-20.6,10
	c1.2-7.2,3.1-14.4,4.4-21.6c0.5-1.4-0.9-2.3-1.6-3.2c-4.7-4.8-9.2-9.8-13.9-14.7C71.9,644.1,79.7,643.7,87.3,642.6z"/>
<path class="st1" d="M266.8,670.6c9.5-14.4,24.1-24.9,40.1-31c-0.1,0.3-0.3,0.8-0.3,1c-12.1,12.8-24.2,26.2-31.3,42.5
	c-5.9,13.2-7,28.1-5.1,42.3c1.6,11.4,4.5,22.5,8.2,33.4c0.1,0.3,0.3,0.9,0.4,1.2c-0.4-0.2-1.2-0.7-1.6-0.9
	c-12-13.1-20-30.2-21.2-48.1C255,696.8,258.8,682.4,266.8,670.6z"/>
<path class="st2" d="M275.2,683.1c7.1-16.3,19.2-29.8,31.3-42.5c-0.2,6.3-2.7,12.3-3.8,18.5c-7.5,31.7-15.1,63.3-22.6,95
	c-0.5,1.6-0.6,3.5-1.8,4.7c-3.7-10.8-6.6-22-8.2-33.4C268.2,711.2,269.3,696.3,275.2,683.1z"/>
<path class="st1" d="M695.6,648.5c9.3-1,19.1,2.6,25.2,9.8c3.2,3.8,6.2,8,7.5,12.9c0.8,3.4,0.9,7.7-2.2,10.1c-4.2,3.1-10,1.2-14-1.2
	c-6.8-4.3-13.1-10.5-15.3-18.5C695.7,657.2,695.3,652.9,695.6,648.5 M696.2,649.1c1.3,7.8,4.6,15.8,10.9,20.9
	c4.1,3.3,8.6,6.7,14,7.3c2.6-0.5,2.2-3.5,1.5-5.3C718.9,660.3,708.7,650.4,696.2,649.1z"/>
<path class="st2" d="M696.2,649.1c12.5,1.4,22.7,11.2,26.5,22.8c0.7,1.8,1.1,4.8-1.5,5.3c-5.4-0.6-9.9-4-14-7.3
	C700.8,664.9,697.5,656.9,696.2,649.1z"/>
<path class="st1" d="M322.6,672.7c4.9-4.4,10.9-7.9,17.5-8.5c-0.2,0.3-0.5,0.8-0.7,1c-9,9.3-14.7,21.9-15.4,34.9
	c-1.1,15.3,4.6,30.4,13.4,42.7c0.2,0.3,0.5,0.9,0.7,1.2c-11.2-2.9-20.1-12-24.5-22.4C306.5,705.6,309.6,684.9,322.6,672.7z"/>
<path class="st2" d="M324.1,700.1c0.7-13,6.4-25.6,15.4-34.9c1.3,7.9,0.1,15.9,0.2,23.9c-0.8,11.3,0.1,22.7-1.1,34
	c-0.1,4.6,0.1,9.3-0.1,13.9c-0.2,1.9,0.4,4.2-1,5.8C328.7,730.5,323,715.4,324.1,700.1z"/>
<path class="st1" d="M367.2,691.2c2.5-7.2,6.3-14.4,12.3-19.3c-4.3,12.4-6.5,26-3.1,38.8c3.9,15.4,13.6,28.4,23.3,40.7
	c3,3.7,5.7,7.7,9.1,11l0.6,0.6c0.1,0.4,0.3,1.3,0.4,1.8c-16-7.7-30.4-19.8-38.6-35.7C365.1,717.6,363.2,703.7,367.2,691.2z"/>
<path class="st2" d="M379.4,671.9c10,28.5,18.8,57.4,28.6,85.9c0.5,1.5,0.6,3.1,0.7,4.6c-3.4-3.3-6.1-7.3-9.1-11
	c-9.7-12.3-19.4-25.3-23.3-40.7C372.9,697.9,375.1,684.3,379.4,671.9z"/>
<path class="st2" d="M429.1,678.2c4.8-4.1,11.9-2.8,17.3-0.6c7.2,3.7,12.8,9.8,18.5,15.4c13.5,14,27.8,28.1,45.4,36.9
	c17,8.8,36.7,11.7,55.5,8.9c9-1.1,17.6-3.8,26.4-5.7c21.6-5,43.5-8.9,65.7-9.8c10.3-0.9,20.8-0.2,31,1.5c-0.6,2.2-2.8,3.4-4.4,5
	c-48.7,44.8-111.1,74.5-176.6,84c-14.9,2.2-30,3.4-45.1,3.6c-11.7-20-21-41.3-28.5-63.2c-5.8-18.2-11.1-36.9-11.1-56.1
	C423.5,691.1,424.2,683.5,429.1,678.2z"/>
<path class="st1" d="M147.7,737.5c3.9-6.6,7.5-13.4,11.4-20c3.2,7,6.1,14.2,9.1,21.3c7.5,1.6,15.1,3,22.6,4.7
	c-5.8,5.1-11.6,10.1-17.4,15.2c0.9,7.6,1.9,15.3,2.6,23c-6.6-4.1-13.3-8-19.9-12c-6.9,3.4-14,6.3-20.9,9.7c1.6-7.5,3.3-15,5.2-22.5
	c-5.1-5.9-10.6-11.2-15.5-17.2C132.5,738.9,140.1,738.5,147.7,737.5z"/>
<path class="st1" d="M693.3,791.6c3-7,6.4-13.8,9.8-20.7c3.3,7,6.9,13.8,10.5,20.7c7.6,1,15.2,1.8,22.8,3
	c-5.3,5.5-10.8,10.9-16.1,16.4c1.4,7.6,2.8,15.2,4.3,22.8c-6.8-3.6-13.8-6.7-20.5-10.5c-6.9,3.6-13.7,7.4-20.5,11.2
	c1-7.2,2.2-14.3,3.3-21.5c0.6-1.7-1.1-2.5-2.1-3.5c-4.8-4.7-9.7-9.1-14.5-13.8C677.8,794.2,685.7,793.5,693.3,791.6z"/>
<path class="st2" d="M306,779.9c18.7-7.3,39.9-7.6,59-1.8c25.8,7.5,48.2,23.1,70,38.3c-43-2.8-85.4-14.5-124.1-33.5
	C309.3,782,307.3,781.5,306,779.9z"/>
<path class="st1" d="M586.1,851.2c3.6-6.8,6.6-14,10.8-20.4c3.3,6.9,6.5,13.9,9.9,20.7c7.6,1.2,15.2,2.1,22.7,3.8
	c-5.8,5-11,10.7-16.8,15.7c1.4,7.7,2.2,15.4,3.8,23c-6.9-3.6-13.5-7.7-20.5-10.9c-7,3.1-13.8,6.8-20.7,10.3
	c1.5-7.6,2.8-15.2,4.3-22.8c-5.5-5.5-11.1-10.9-16.5-16.6C570.8,853.4,578.4,851.9,586.1,851.2z"/>
<path class="st1" d="M353.3,842.3c0.5-1,1.1-1.8,2-2.4c2.8,7.1,5.8,14.1,8.7,21.2c7.5,1.3,14.9,3.2,22.3,4.7
	c-5.6,5.3-11.7,10-17.5,15.2c0.9,7.6,1.7,15.3,2.3,22.9c-6.6-4-13.1-8.2-19.8-12.1c-6.9,3.3-13.9,6.3-20.9,9.3
	c1.7-7.5,3.6-15,5.4-22.4c-5.1-5.8-10.3-11.5-15.5-17.3c7.7-0.5,15.3-1.3,23-1.7C346.6,853.9,350,848.1,353.3,842.3z"/>
<path class="st1" d="M469.7,860.7c1.3-2.3,2.1-5,4.1-6.8c3,6.9,6.3,13.7,9.5,20.6c7.6,1.3,15.3,2.5,22.8,4
	c-5.6,5.2-11.3,10.4-16.9,15.6c0.8,7.7,2.3,15.2,3.2,22.9c-6.9-3.6-13.5-7.5-20.3-11.2c-6.7,3.7-13.8,6.7-20.6,10.3
	c1.3-7.7,3.2-15.3,4.3-23c-5.4-5.4-11-10.6-15.8-16.4c7.7-1,15.4-1.5,23-3C465,869.2,467.5,865,469.7,860.7z"/>
</svg>
