<?xml version="1.0" encoding="utf-8"?>
<!-- Generator: Adobe Illustrator 21.0.0, SVG Export Plug-In . SVG Version: 6.00 Build 0)  -->
<svg version="1.1" id="Layer_1" xmlns="http://www.w3.org/2000/svg" xmlns:xlink="http://www.w3.org/1999/xlink" x="0px" y="0px"
	 viewBox="0 0 939.1 242.1" style="enable-background:new 0 0 939.1 242.1;" xml:space="preserve">
<style type="text/css">
	.st0{stroke:#000000;stroke-width:9.375000e-02;}
</style>
<path class="st0" d="M0,0h209.9C225.2,14.8,240,30,255.1,45c2.6,3.1,6.6,5.4,7.7,9.5c-44.6,0.2-89.3-0.1-133.9,0.2
	c7.5,7.3,14.9,14.9,22.4,22.3c1.3,1.2,2.2,2.7,3.1,4.2c-24.8,0.5-49.6,0-74.4,0.3C53,55.1,26.7,28.4,0,1.9V0z"/>
<path class="st0" d="M218.5,0h222.6c0,0.5,0.1,1.5,0.2,2c-11.5,6.2-21,16.8-24.5,29.5c-1.8,6.2-1,12.6-0.1,18.9
	c-15.4,0.2-30.8-0.1-46.3,0.1c-0.4,36.2,0,72.3-0.2,108.5c0,2.8,0.1,5.5,0.3,8.3c15.4,0.1,30.8-0.1,46.3,0.1
	c-0.6,5.5-0.8,11.1-0.3,16.6c3.1,13.9,13.5,25.1,25.5,32.1c-0.5,0.3-1.6,0.8-2.1,1.1c-101.3,0-202.6,0-304,0
	c-3.3-0.2-6.8,0.8-9.8-0.9c16.7-16.1,32.9-32.6,49.2-49c46.2-0.2,92.4,0,138.6-0.1c1.5-0.1,3-0.2,4.5-0.3
	c-0.1-38.8,0-77.6-0.1-116.4c-16.1-0.2-32.3,0-48.5-0.1c-1.5,0-3.1-0.1-4.1-1.4c-15.8-15.6-31.3-31.5-47.2-47
	C218.8,1.6,218.6,0.6,218.5,0z"/>
<path class="st0" d="M464.5,0h147.6c3.7,1.3,7.5,2.1,11.4,2.8c10.8,3.3,21.3,9.6,26.9,19.8c6.8,10.9,6.6,24.1,7.4,36.4
	c0,22.7,0,45.3,0,68c-0.2,15.7,0.7,31.4-1.1,47.1c-0.6,12.1-6.1,24.2-15.6,31.9c-8.9,6.8-19.9,10.2-31,11.1c-47,0-94,0.1-141,0
	c-11.4-0.7-22.8-4.2-32-11.1c-8.2-6.5-13.2-16.4-15.1-26.5c-0.8-7.5-1.4-15-1.8-22.5c0-32,0-64,0-96c0.3-7.7,1-15.4,1.8-23.1
	c1.7-9.1,5.9-17.9,12.7-24.3c4.6-4.3,10.8-7.1,15.4-9.3c2.1-1,4.2-1.9,6.8-2.7C460,0.7,462.6,0.3,464.5,0 M470,41.9
	c-0.1,29.4,0,58.7,0,88.1c0.2,15.6-0.4,31.2,0.3,46.7c45.9,0.1,91.8,0,137.6,0c0.6-4.6,0.2-9.2,0.3-13.8c0-40.4,0.1-80.7-0.1-121.1
	c-0.2-0.3-0.7-0.8-1-1.1c-45.4-0.1-90.8-0.1-136.2,0C470.7,41.1,470.2,41.7,470,41.9z"/>
<path class="st0" d="M636.5,0H939v2.2c-15.8,16.3-32.1,32.1-48,48.3c-40.7,0.1-81.4,0-122.1,0c-1.5-0.4-2.5,1-2.3,2.3
	c0,45.7,0,91.5,0,137.2c0.2,2.1-1.6,3.5-2.8,5c-14,14-27.8,28.1-41.6,42.2c-1.2,1.4-2.8,2.2-4.5,2.7c-0.1-62,0-124,0-186
	c-0.2-1.3,0.4-3.8-1.7-3.4c-18.3-0.4-36.6,0.2-54.9-0.3c0.5-4.1,1.8-8.1,1.2-12.3C661,22.7,650.1,9.5,637,2.2
	C636.9,1.6,636.6,0.6,636.5,0z"/>
<path class="st0" d="M80.9,83.3c26.7-0.4,53.4,0.2,80.2-0.4c36,0,72,0,108,0c1.2,0.1,2.4,0.3,3.7,0.4c-0.2,15.9,0,31.7-0.1,47.6
	c0.5,1.8-1.3,1.9-2.5,1.8c-46.8,0.1-93.5-0.2-140.2-0.1c-15.9-15.6-31.4-31.5-47.2-47.1C81.9,84.9,81.3,84.1,80.9,83.3z"/>
<path class="st0" d="M128.6,135.6c1.2-1.2,3-0.7,4.5-0.9c22.8,0.2,45.7-0.2,68.6,0.2c-1.8,2.5-3.7,4.8-5.9,6.9c-27,27-53.9,54-81,81
	c-6.5,6.5-12.9,13.1-19.7,19.3H22.4c2.2-2.9,4.7-5.8,7.3-8.3c29-29,58-58,87-87C120.5,142.9,124.4,139,128.6,135.6z"/>
</svg>
