<?xml version="1.0" encoding="utf-8"?>
<!-- Generator: Adobe Illustrator 21.0.0, SVG Export Plug-In . SVG Version: 6.00 Build 0)  -->
<svg version="1.1" id="Layer_1" xmlns="http://www.w3.org/2000/svg" xmlns:xlink="http://www.w3.org/1999/xlink" x="0px" y="0px"
	 viewBox="0 0 366.668 397.597" style="enable-background:new 0 0 366.668 397.597;" xml:space="preserve">
<style type="text/css">
	.st0{fill:#262626;stroke:#262626;stroke-width:0.0938;}
	.st1{fill:#0098D9;stroke:#0098D9;stroke-width:0.0938;}
	.st2{fill:#00A9E3;stroke:#00A9E3;stroke-width:0.0938;}
	.st3{fill:#E6E7E8;stroke:#E6E7E8;stroke-width:0.0938;}
	.st4{fill:#FAFAFA;stroke:#FAFAFA;stroke-width:0.0938;}
</style>
<path class="st0" d="M210.191,0.647c12.77-0.78,25.67-1.03,38.39,0.69c11.15,1.18,22,4.12,32.92,6.56c4.43,0.86,8.08,3.7,12.33,5.07
	c17.68,6.75,33.25,17.66,49.22,27.59c-7.38,2.57-14.5,5.82-21.75,8.72c-11.07,4.34-20.15,13.04-25.61,23.53
	c-8.28,15.61-11.51,33.28-13.32,50.69c6.45-3.05,12.66-6.57,18.96-9.91c-5.2,15.67-8.95,31.83-15.07,47.18
	c-4.66,13.04-8.53,26.36-11.76,39.82c-2.22,8.81-4.08,18.13-1.75,27.12c1.6,6.87,5.71,12.98,11.22,17.35
	c12.94,10.78,25.63,21.88,38.69,32.52c-5.01-1.01-9.95-2.5-15.07-2.9c1.68,2.46,4.66,3.01,7.28,3.94
	c-4.01,4.14-8.14,8.19-11.89,12.57c6.73-0.34,13.35-1.77,20.08-2.21c-0.04,0.58-0.13,1.75-0.17,2.34
	c13.4-1.94,26.65-4.83,40.06-6.67c0.73,17.21,0.93,34.46,1.74,51.68c0.48-0.03,1.44-0.09,1.93-0.12c-0.01,20.45-0.03,40.89,0,61.34
	c-17.15-1.26-34.07-4.77-51.2-6.35c-12.49-0.06-24.98,0.12-37.47,0.07c-0.03-0.7-0.09-2.11-0.13-2.82
	c-12.25,0.03-24.51-0.18-36.76-0.54c0.02-0.75,0.07-2.26,0.09-3.02c-11.24,0.01-22.48,0.55-33.73,0.52
	c-6.47,0.07-12.95-0.11-19.39,0.5c-0.02-0.49-0.04-1.48-0.05-1.97c-7.54-0.36-14.93,2.01-22.46,1.15c-4.46-0.6-8.69,1.25-13.1,1.37
	c-7.99,0.28-15.98,0.56-23.98,0.61c-9.99,0.22-20.03-0.36-29.97,0.91c-11.33,0.92-22.56,3.49-33.97,2.86
	c-0.99,1.94-3.32,1.5-5.09,1.83c-7.64,0.59-15.32,0.25-22.95,1.08c-12.13,0.5-24.29,0.38-36.41,1.35
	c1.75-22.79,0.58-45.68,1.57-68.5c0.01-12.82,0.03-25.63,0.15-38.45c6.88,0.03,13.76,0.32,20.64,0.24
	c8.48-0.19,16.92,0.86,25.41,0.6c0.43,0.92,0.86,1.83,1.3,2.76c4.22,0.02,8.45,0.09,12.67,0.24c8.36-18.86,14.55-39.47,13.04-60.31
	c-0.39-9.29-4.8-17.63-7.96-26.17c-6.94-17.84-13.69-36.47-12.81-55.91c1.09-20.33,8.36-39.77,17.5-57.77
	c9.79-17.16,21.82-33.25,36.71-46.32c19.03-17.58,42.41-30.11,67.03-37.93c1.22-0.48,2.51-0.04,3.74,0.14
	C188.751,3.087,199.651,2.047,210.191,0.647 M214.311,13.307c-1.05,13.25-0.68,26.55-1.44,39.81c-3.15-12.89-6.91-25.63-10.79-38.33
	c-5.4,0.73-10.81,1.67-15.92,3.64c1.23,13.26,4.3,26.26,6.85,39.31c-6.29-12.06-12.05-24.42-19.04-36.1
	c-15.4,4.97-29.84,12.64-43.04,21.96c3.01,11.42,6.58,22.69,10.16,33.95c-6.69-8.73-12.99-17.74-20.02-26.21
	c-14.87,12.35-27.37,27.51-36.84,44.35c5.42,6.6,11.55,12.54,17.25,18.88c-7.29-3.36-14.46-7.06-22.05-9.74
	c-4.5,10.12-8.88,20.51-10.48,31.53c-2.39,8.16-2.43,16.87-1.63,25.29c2.44,19.3,10.98,37,17.58,55.08
	c7.92,23.18,2.21,48.67-8.49,69.97c-1.56,3.6-4.14,6.66-5.75,10.21c14.47-14.52,26.5-32.62,29.72-53.2
	c1.99-11.39-1.4-22.72-1.1-34.12c-0.64-24.39,5.93-49.34,20.66-69.01c-4.49-0.58-9-1-13.5-1.49c5.81-11.37,14.99-20.67,25.15-28.23
	c20.11-14.82,45.06-21.99,69.81-23.14c24.85-1.06,49.8,6.63,69.97,21.15c0.41-3.06,1.21-6.08,1.27-9.17
	c3.93-14.49,8.09-29.43,17.25-41.62c6.39-8.8,15.27-15.38,24.89-20.26c-11.22-6.92-23.25-12.45-35.7-16.77
	c-9.58,7.32-17.94,17.03-21,28.93c-1.01-11.32,1.34-23.01,7.47-32.67C248.791,13.357,231.471,12.077,214.311,13.307 M180.391,98.127
	c-11.22,2.15-22.54,5.17-32.42,11.05c-11.29,5.19-20.85,13.62-28.89,23.01c5.3,0.83,10.64,1.32,15.95,2.02
	c23.38-18.73,55.27-26.65,84.6-20.06c15.9,3.29,30.73,12.15,40.35,25.36c0.52,0.8,1.05,1.6,1.61,2.39c0.28-7.7,0.61-15.4,0.67-23.1
	C240.011,99.807,208.961,92.437,180.391,98.127 M156.201,129.697c-13.26,7-24.8,17.73-31.6,31.21c-8.94,17.07-11.39,37.2-8.06,56.09
	c0.38,5.12,2.01,10.03,3.42,14.95c2.99-8.14,7.49-15.92,14.41-21.33c10.18-8.24,24.06-11.37,36.81-8.5
	c7.46,2.75,14.78,6.53,19.99,12.7c6.29,7,8.81,16.63,8.77,25.86c0.05,10.24-4.16,20.71-12.14,27.3c-7.62,6.26-17.74,8.78-27.46,8.36
	c-10.55,0.1-20.43-4.27-29.42-9.38c-4.33-3.53-8.91-6.81-12.48-11.16c6.5,17.26,22.9,30.2,41.03,33.21
	c13.68,2.21,28.73,1.14,40.47-6.87c11.65-7.75,18.28-21.17,20.57-34.68c2.75,5.94,4.24,12.58,3.44,19.13
	c-0.93,9.36-4.81,18.11-9.66,26.06c24.8,7.74,52.66,3.22,74.51-10.55c-2.25-1.3-4.52-2.65-6.99-3.48
	c-9.27-6.01-18.4-12.4-25.99-20.51c-11.49-11.66-20.47-27.17-20-43.99c-5.19,0.66-10.17-1.18-14.44-4.01
	c-2.45,1.61-4.85,3.31-7.2,5.08c1.14-2.92,2.36-5.79,3.45-8.72c-3.28-4.57-4.37-10.28-3.31-15.79c-3.87-5.04-8.79-10.1-15.4-10.99
	l-0.39-0.33c-4.76-1.07-9.59-1.76-14.37-2.7c18.42-1.98,39.06-1.56,54.4,10.22c2.46-1.05,4.87-2.23,7.26-3.44
	c-1.51,1.99-2.99,3.99-4.38,6.06c1.46,1.89,2.88,3.81,4.21,5.8c-1.07,13.22-0.05,27.08,5.65,39.24
	c4.52,9.71,13.59,16.74,23.71,19.87c-3.81-3.32-6.95-7.26-9.95-11.29c-3.36-7.05-6.1-14.59-6.17-22.49
	c-0.29-5.64,0.49-11.26,1.75-16.75c4.32-19.53,10-38.77,17.36-57.37c-7.85,7.43-15.35,15.22-22.88,22.98
	c-7.9-3.59-16.09-6.6-24.56-8.5c-20.88-5.21-43.02-3.68-63.58,2.23l0.75,0.01c-4.47,0.54-8.7,2.32-13.01,3.56
	c8.28-13.08,23.08-20.33,37.7-23.85c19.94-4.91,41.24-1.93,59.77,6.59l0.13,0.31c1.4,0.69,2.83,1.35,4.26,1.98
	c-7.63-15.82-23.34-26.8-40.28-30.57C196.111,116.827,174.441,120.047,156.201,129.697 M153.231,209.017
	c-9.1,2.11-16.93,8.83-20.26,17.58c5.62,4.69,11.75,8.71,17.63,13.07c-6.52-2.54-12.63-6.07-19.32-8.19
	c-0.48,5.78-0.37,11.81,2.11,17.17c3.36,8.04,10.67,14.1,19.06,16.29c10.42,2.91,22.25-0.76,29.22-9.03c7.3-8.29,9-20.89,4.32-30.88
	C180.611,212.857,166.151,205.747,153.231,209.017 M89.531,293.777c7,0.01,13.97,0.66,20.96,0.66c0.14,0.53,0.41,1.6,0.55,2.13
	c9.38-0.06,18.77-0.03,28.15-0.37c-3.42-2.53-7.3-4.37-10.68-6.97c-8.53-6.56-15.61-14.97-20.47-24.58
	C102.771,274.897,96.691,284.717,89.531,293.777 M316.881,302.497c0.37,13.88-0.24,27.78,0.48,41.64
	c-0.43,12.19-0.11,24.41-0.13,36.61c13.01,1.79,26,3.77,38.97,5.87c0.01-8.87-0.06-17.74-0.07-26.61
	c-7.05,0.14-14.06,0.99-21.11,0.94c0.39-13.31,0.64-26.62,0.9-39.93c6-0.4,12-0.9,18.01-1.12c-0.22-7.27-0.39-14.54-0.72-21.8
	c0.07-0.64,0.2-1.92,0.27-2.57C341.291,297.907,329.091,300.207,316.881,302.497 M12.341,297.217c0.18,18.36-0.5,36.73-0.09,55.08
	c-0.65,10.87-0.25,21.79-0.68,32.68c12.46-0.83,24.96-1.15,37.44-1.84c0.18-8.36,0.45-16.71,0.4-25.07
	c-6.07,0.38-12.12,0.86-18.18,1.29c0.18-12.51,0.64-25.01,0.73-37.52c0.09-7.97,0.52-15.95,0.53-23.91
	C25.821,296.967,19.051,297.517,12.341,297.217 M292.111,302.637c0.14,1.92,0.28,3.84,0.52,5.76c-0.06,24.23,0.18,48.45,0.32,72.68
	c6.56,0.01,13.11-0.01,19.67,0.01c-0.14-13.7,0.06-27.42-0.34-41.11c0.55-13.38-0.29-26.77-0.01-40.15
	C305.551,300.777,298.821,301.607,292.111,302.637 M54.721,301.037c-0.01,6.26-0.22,12.51-0.11,18.77
	c-0.56,1.88-0.42,3.88-0.49,5.83c-0.07,17.93-0.51,35.86-0.94,53.78c7.68,0.46,15.43,1.92,23.11,0.59
	c7.92-1.19,15.9-1.95,23.82-3.16c0.62-6.04,2.48-12.05,1.67-18.16c-1.04-11.4-1.63-22.84-2.77-34.23
	c-0.37-6.86-1.19-13.68-1.43-20.55C83.311,302.757,69.011,301.907,54.721,301.037 M241.761,306.627c-0.11,3.82-0.11,7.64,0.01,11.46
	c0.03,2.74,0.01,5.48-0.01,8.22c4.77-0.24,9.54-0.6,14.28-1.18c0.13,17.48-0.08,34.96-0.08,52.45c6.46,0.35,12.94,0.36,19.41,0.51
	c-0.61-18.02-1.47-36.02-1.93-54.04c5.21-0.14,10.42-0.31,15.64-0.39c-0.09-2.49-0.2-4.97-0.33-7.44
	c-0.14-4.86-0.32-9.72-0.53-14.58C272.721,303.157,257.271,305.197,241.761,306.627 M201.501,311.707
	c-0.25,6.83-1.05,13.62-1.29,20.44c-0.3,1.59-0.37,3.21-0.53,4.83c7.19,4.11,14.21,8.5,21.22,12.89c-0.09,2.1-0.19,4.19-0.29,6.29
	c-7.24-0.61-14.48-1.34-21.71-2.04c0.76,6.77,0.99,13.58,1.79,20.35c12.58-0.15,25.17-0.35,37.74-0.88
	c0.18-11.22,0.99-22.41,1.42-33.62c-6.81-3.27-13.62-6.56-20.42-9.86c0.31-1.57,0.62-3.13,0.93-4.7c5.89-0.17,11.77-0.53,17.67-0.67
	c0.53-6.23,0.07-12.48,0.2-18.72C225.911,307.417,213.621,309.047,201.501,311.707 M104.361,306.817c0.05,0.35,0.16,1.04,0.21,1.39
	c0.1,22.76-0.02,45.52,0.11,68.28c13.01-0.02,26.02-0.6,39.04-0.69c0.02-6.67-0.05-13.34,0.01-20c-7.05,0.55-14.08,1.35-21.14,1.82
	c0.2-10.94,0.38-21.87,0.78-32.81c5.97,0.08,11.94,0.25,17.91,0.4c-0.15-6.28-0.41-12.56-0.54-18.84l-0.02,0.35
	C128.601,306.047,116.481,306.877,104.361,306.817 M161.211,309.757c-2.54,5.05-4.95,10.16-7.39,15.25
	c-2.6,5.8-6.39,11.48-5.61,18.15c-0.98,10.57-1.22,21.21-2.12,31.8c5.66-0.47,11.33-0.77,16.99-1.2c0.16-3.72,0.45-7.43,0.73-11.14
	c4.73-0.49,9.43-1.18,14.13-1.85c0.41,4.07,0.78,8.14,1.05,12.23c5.94-0.72,11.94-0.75,17.9-0.15c-1.16-9.84-1.48-19.8-3.05-29.57
	c-0.04-4.02,0.33-8.46-2.14-11.91c-4.52-6.92-8.89-13.93-13.21-20.98C172.731,310.207,166.961,310.047,161.211,309.757z"/>
<path class="st1" d="M214.311,13.307c17.16-1.23,34.48,0.05,51.24,4c-6.13,9.66-8.48,21.35-7.47,32.67
	c3.06-11.9,11.42-21.61,21-28.93c12.45,4.32,24.48,9.85,35.7,16.77c-9.62,4.88-18.5,11.46-24.89,20.26
	c-9.16,12.19-13.32,27.13-17.25,41.62c-0.5-2.78-1.14-5.59-0.84-8.43c1.64-14.55,5.63-29.14,13.75-41.47
	c3.21-4.93,7.91-8.59,12.34-12.36c-4.42-2.1-8.89-4.12-13.43-5.95c-1.82-0.64-3.89-1.7-5.75-0.58c-7.03,3.67-12.93,9.72-16.08,17.05
	c-1.86,4.22-3.03,8.71-4.47,13.09c-6.15-11.67-5.84-25.48-3.08-38.04c-11.65-2.04-23.61-4.42-35.45-2.47
	c-1.72,16.72-2.07,33.55-3.62,50.29c-6.19-15.52-10.51-31.73-16.59-47.3c-2.37,0.46-4.73,0.92-7.09,1.38
	c1.18,15.8,5.13,31.28,6.03,47.11c-9.85-13.2-18.16-27.49-27.99-40.72c-9.57,2.68-19.54,5.55-27.45,11.82
	c-1.79,1.39-3.54,3.34-2.94,5.78c1.89,13.33,4.75,26.52,6.39,39.89c-9.07-9.53-17.24-19.87-26.16-29.55
	c-11.55,7.12-18.93,18.88-26.51,29.77c-1.4,2.43-4.28,5.42-1.93,8.18c4.62,6.92,9.98,13.33,14.58,20.28
	c-6.16-0.81-12.24-2.11-18.29-3.51c-2.32-0.43-4.69-1.17-7.06-0.79c-5.36,6.97-7.07,15.96-12.05,23.19
	c1.6-11.02,5.98-21.41,10.48-31.53c7.59,2.68,14.76,6.38,22.05,9.74c-5.7-6.34-11.83-12.28-17.25-18.88
	c9.47-16.84,21.97-32,36.84-44.35c7.03,8.47,13.33,17.48,20.02,26.21c-3.58-11.26-7.15-22.53-10.16-33.95
	c13.2-9.32,27.64-16.99,43.04-21.96c6.99,11.68,12.75,24.04,19.04,36.1c-2.55-13.05-5.62-26.05-6.85-39.31
	c5.11-1.97,10.52-2.91,15.92-3.64c3.88,12.7,7.64,25.44,10.79,38.33C213.631,39.857,213.261,26.557,214.311,13.307z"/>
<path class="st2" d="M219.631,20.537c11.84-1.95,23.8,0.43,35.45,2.47c-2.76,12.56-3.07,26.37,3.08,38.04
	c1.44-4.38,2.61-8.87,4.47-13.09c3.15-7.33,9.05-13.38,16.08-17.05c1.86-1.12,3.93-0.06,5.75,0.58c4.54,1.83,9.01,3.85,13.43,5.95
	c-4.43,3.77-9.13,7.43-12.34,12.36c-8.12,12.33-12.11,26.92-13.75,41.47c-0.3,2.84,0.34,5.65,0.84,8.43
	c-0.06,3.09-0.86,6.11-1.27,9.17c-20.17-14.52-45.12-22.21-69.97-21.15c-24.75,1.15-49.7,8.32-69.81,23.14
	c-10.16,7.56-19.34,16.86-25.15,28.23c4.5,0.49,9.01,0.91,13.5,1.49c-14.73,19.67-21.3,44.62-20.66,69.01
	c-0.3,11.4,3.09,22.73,1.1,34.12c-3.22,20.58-15.25,38.68-29.72,53.2c1.61-3.55,4.19-6.61,5.75-10.21
	c10.7-21.3,16.41-46.79,8.49-69.97c-6.6-18.08-15.14-35.78-17.58-55.08c-0.8-8.42-0.76-17.13,1.63-25.29
	c4.98-7.23,6.69-16.22,12.05-23.19c2.37-0.38,4.74,0.36,7.06,0.79c6.05,1.4,12.13,2.7,18.29,3.51c-4.6-6.95-9.96-13.36-14.58-20.28
	c-2.35-2.76,0.53-5.75,1.93-8.18c7.58-10.89,14.96-22.65,26.51-29.77c8.92,9.68,17.09,20.02,26.16,29.55
	c-1.64-13.37-4.5-26.56-6.39-39.89c-0.6-2.44,1.15-4.39,2.94-5.78c7.91-6.27,17.88-9.14,27.45-11.82
	c9.83,13.23,18.14,27.52,27.99,40.72c-0.9-15.83-4.85-31.31-6.03-47.11c2.36-0.46,4.72-0.92,7.09-1.38
	c6.08,15.57,10.4,31.78,16.59,47.3C217.561,54.087,217.911,37.257,219.631,20.537z"/>
<path class="st3" d="M180.391,98.127c28.57-5.69,59.62,1.68,81.87,20.67c-0.06,7.7-0.39,15.4-0.67,23.1
	c-0.56-0.79-1.09-1.59-1.61-2.39c0.46-5.74-0.9-11.42-2.67-16.84c-0.84-2.83-3.33-4.65-5.55-6.36
	c-13.72-10.07-30.48-15.52-47.37-16.75c-12.43-0.86-24.89,1-36.89,4.16c-6.58,1.59-12.76,4.63-19.53,5.46
	C157.851,103.297,169.171,100.277,180.391,98.127z"/>
<path class="st4" d="M167.501,103.717c12-3.16,24.46-5.02,36.89-4.16c16.89,1.23,33.65,6.68,47.37,16.75
	c2.22,1.71,4.71,3.53,5.55,6.36c1.77,5.42,3.13,11.1,2.67,16.84c-9.62-13.21-24.45-22.07-40.35-25.36
	c-29.33-6.59-61.22,1.33-84.6,20.06c-5.31-0.7-10.65-1.19-15.95-2.02c8.04-9.39,17.6-17.82,28.89-23.01
	C154.741,108.347,160.921,105.307,167.501,103.717z"/>
<path class="st3" d="M156.201,129.697c18.24-9.65,39.91-12.87,60.1-8.45c16.94,3.77,32.65,14.75,40.28,30.57
	c-1.43-0.63-2.86-1.29-4.26-1.98l-0.13-0.31c-1.24-4.23-5.01-6.81-8.33-9.35c-11.8-8.97-26.6-14.15-41.47-13.71
	c-16.34,0.47-32.75,4.77-46.65,13.5c-11.95,7.59-22,19.43-24.4,33.7c-2.06,8.97-0.99,18.3,1.94,26.95
	c-3.67,2.18-7.58,4.17-10.49,7.39c-2.44,2.72-4.41,5.83-6.25,8.99c-3.33-18.89-0.88-39.02,8.06-56.09
	C131.401,147.427,142.941,136.697,156.201,129.697z"/>
<path class="st4" d="M155.741,139.967c13.9-8.73,30.31-13.03,46.65-13.5c14.87-0.44,29.67,4.74,41.47,13.71
	c3.32,2.54,7.09,5.12,8.33,9.35c-18.53-8.52-39.83-11.5-59.77-6.59c-14.62,3.52-29.42,10.77-37.7,23.85
	c4.31-1.24,8.54-3.02,13.01-3.56c5.6,0.23,11.18-0.22,16.75-0.69c14.23-0.65,28.84-0.9,42.59,3.42c9.48,2.83,18.8,6.36,27.29,11.52
	c2.42-1.66,4.84-3.3,7.28-4.93c-3.35,13.45-7.18,27.06-6.47,41.07c0.43,10.39,2.35,21.76,9.89,29.5c3,4.03,6.14,7.97,9.95,11.29
	c-10.12-3.13-19.19-10.16-23.71-19.87c-5.7-12.16-6.72-26.02-5.65-39.24c-1.33-1.99-2.75-3.91-4.21-5.8
	c1.39-2.07,2.87-4.07,4.38-6.06c-2.39,1.21-4.8,2.39-7.26,3.44c-15.34-11.78-35.98-12.2-54.4-10.22c4.78,0.94,9.61,1.63,14.37,2.7
	l0.39,0.33c3.13,3.04,7.41,4.88,9.92,8.52c1.48,4.3-1,9.05,0.67,13.36c0.9,3.1,3.35,6.08,2.36,9.46c-0.77,3.49-1.83,6.91-2.61,10.4
	c3.75-1.89,7.21-4.48,11.28-5.64c4.24,0.5,8.17,2.34,12.28,3.42c-0.33,12.16,3.48,24.38,11.2,33.85
	c6.98,8.81,16.47,15.17,25.96,20.98c3.59,2.34,7.68,3.68,11.83,4.58c2.47,0.83,4.74,2.18,6.99,3.48
	c-21.85,13.77-49.71,18.29-74.51,10.55c4.85-7.95,8.73-16.7,9.66-26.06c0.8-6.55-0.69-13.19-3.44-19.13
	c-2.29,13.51-8.92,26.93-20.57,34.68c-11.74,8.01-26.79,9.08-40.47,6.87c-18.13-3.01-34.53-15.95-41.03-33.21
	c3.57,4.35,8.15,7.63,12.48,11.16c4.53,5.27,10.95,8.29,17.29,10.78c8.51,3.28,17.9,3.74,26.85,2.38
	c10.12-1.9,19.86-7.55,25.39-16.41c9.86-14.89,8.99-36.51-3.32-49.76c-6.59-7.16-16.09-12.04-25.95-11.83
	c-12.75-2.87-26.63,0.26-36.81,8.5c-6.92,5.41-11.42,13.19-14.41,21.33c-1.41-4.92-3.04-9.83-3.42-14.95
	c1.84-3.16,3.81-6.27,6.25-8.99c2.91-3.22,6.82-5.21,10.49-7.39c-2.93-8.65-4-17.98-1.94-26.95
	C133.741,159.397,143.791,147.557,155.741,139.967 M229.741,256.527c-0.48,6.43,0.21,13.1-2.12,19.25
	c-1.86,4.93-4.28,9.63-6.15,14.57c17.02,4.41,34.76,0.34,50.95-5.34c-8.73-0.44-17.33,1.36-26.02,1.82
	c-5.82,0.38-11.66,0.2-17.47-0.26c1.08-5,3.46-9.76,3.42-14.96C232.511,266.457,231.371,261.387,229.741,256.527z"/>
<path class="st3" d="M255.121,169.487c7.53-7.76,15.03-15.55,22.88-22.98c-7.36,18.6-13.04,37.84-17.36,57.37
	c-1.26,5.49-2.04,11.11-1.75,16.75c0.07,7.9,2.81,15.44,6.17,22.49c-7.54-7.74-9.46-19.11-9.89-29.5
	c-0.71-14.01,3.12-27.62,6.47-41.07c-2.44,1.63-4.86,3.27-7.28,4.93c-8.49-5.16-17.81-8.69-27.29-11.52
	c-13.75-4.32-28.36-4.07-42.59-3.42c-5.57,0.47-11.15,0.92-16.75,0.69l-0.75-0.01c20.56-5.91,42.7-7.44,63.58-2.23
	C239.031,162.887,247.221,165.897,255.121,169.487z"/>
<path class="st3" d="M198.921,179.687c6.61,0.89,11.53,5.95,15.4,10.99c-1.06,5.51,0.03,11.22,3.31,15.79
	c-1.09,2.93-2.31,5.8-3.45,8.72c2.35-1.77,4.75-3.47,7.2-5.08c4.27,2.83,9.25,4.67,14.44,4.01c-0.47,16.82,8.51,32.33,20,43.99
	c7.59,8.11,16.72,14.5,25.99,20.51c-4.15-0.9-8.24-2.24-11.83-4.58c-9.49-5.81-18.98-12.17-25.96-20.98
	c-7.72-9.47-11.53-21.69-11.2-33.85c-4.11-1.08-8.04-2.92-12.28-3.42c-4.07,1.16-7.53,3.75-11.28,5.64
	c0.78-3.49,1.84-6.91,2.61-10.4c0.99-3.38-1.46-6.36-2.36-9.46c-1.67-4.31,0.81-9.06-0.67-13.36
	C206.331,184.567,202.051,182.727,198.921,179.687z"/>
<path class="st3" d="M171.181,202.117c9.86-0.21,19.36,4.67,25.95,11.83c12.31,13.25,13.18,34.87,3.32,49.76
	c-5.53,8.86-15.27,14.51-25.39,16.41c-8.95,1.36-18.34,0.9-26.85-2.38c-6.34-2.49-12.76-5.51-17.29-10.78
	c8.99,5.11,18.87,9.48,29.42,9.38c9.72,0.42,19.84-2.1,27.46-8.36c7.98-6.59,12.19-17.06,12.14-27.3
	c0.04-9.23-2.48-18.86-8.77-25.86C185.961,208.647,178.641,204.867,171.181,202.117z"/>
<path class="st1" d="M153.231,209.017c12.92-3.27,27.38,3.84,32.76,16.01c4.68,9.99,2.98,22.59-4.32,30.88
	c-6.97,8.27-18.8,11.94-29.22,9.03c4.92-1.42,10.24-1.22,14.97-3.27c13.42-6.89,18.89-25.47,11.62-38.62
	C173.851,214.067,163.301,209.397,153.231,209.017z"/>
<path class="st2" d="M132.971,226.597c3.33-8.75,11.16-15.47,20.26-17.58c10.07,0.38,20.62,5.05,25.81,14.03
	c7.27,13.15,1.8,31.73-11.62,38.62c-4.73,2.05-10.05,1.85-14.97,3.27c-8.39-2.19-15.7-8.25-19.06-16.29
	c-2.48-5.36-2.59-11.39-2.11-17.17c6.69,2.12,12.8,5.65,19.32,8.19C144.721,235.307,138.591,231.287,132.971,226.597z"/>
<path class="st3" d="M229.741,256.527c1.63,4.86,2.77,9.93,2.61,15.08c0.04,5.2-2.34,9.96-3.42,14.96
	c5.81,0.46,11.65,0.64,17.47,0.26c8.69-0.46,17.29-2.26,26.02-1.82c-16.19,5.68-33.93,9.75-50.95,5.34
	c1.87-4.94,4.29-9.64,6.15-14.57C229.951,269.627,229.261,262.957,229.741,256.527z"/>
<path class="st1" d="M316.881,302.497c12.21-2.29,24.41-4.59,36.6-6.97c-0.07,0.65-0.2,1.93-0.27,2.57
	c-0.43,3.52-0.74,7.06-0.95,10.6c-2.28-2.08-4.31-5.45-7.82-5.12c-7.96,0.51-15.94,0.98-23.85,2.07
	c-0.18,8.68-1.12,17.33-1.28,26.01c-0.04,4.24-1.04,8.37-1.95,12.48C316.641,330.277,317.251,316.377,316.881,302.497z"/>
<path class="st1" d="M12.341,297.217c6.71,0.3,13.48-0.25,20.15,0.71c-0.01,7.96-0.44,15.94-0.53,23.91
	c0.02-6.4-2.13-12.48-4.93-18.14c-2.48-0.01-4.95-0.01-7.42-0.01c-1.82,9.89-2.67,19.91-4.02,29.87
	c-0.63,6.32-1.44,12.65-3.34,18.74C11.841,333.947,12.521,315.577,12.341,297.217z"/>
<path class="st2" d="M352.261,308.697c0.21-3.54,0.52-7.08,0.95-10.6c0.33,7.26,0.5,14.53,0.72,21.8
	c-6.01,0.22-12.01,0.72-18.01,1.12c-0.26,13.31-0.51,26.62-0.9,39.93c7.05,0.05,14.06-0.8,21.11-0.94
	c0.01,8.87,0.08,17.74,0.07,26.61c-12.97-2.1-25.96-4.08-38.97-5.87c0.02-12.2-0.3-24.42,0.13-36.61c0.91-4.11,1.91-8.24,1.95-12.48
	c0.16-8.68,1.1-17.33,1.28-26.01c7.91-1.09,15.89-1.56,23.85-2.07C347.951,303.247,349.981,306.617,352.261,308.697z"/>
<path class="st1" d="M292.111,302.637c6.71-1.03,13.44-1.86,20.16-2.81c-0.28,13.38,0.56,26.77,0.01,40.15
	c-1.66-12.15-3.41-24.29-5.2-36.41c-3.53,0.76-7.03,1.6-10.53,2.49c-1.39,7.21-1.61,14.57-2.81,21.81
	c-0.61-6.48-0.13-13.02-1.11-19.47C292.391,306.477,292.251,304.557,292.111,302.637z"/>
<path class="st1" d="M54.721,301.037c14.29,0.87,28.59,1.72,42.86,2.87c0.24,6.87,1.06,13.69,1.43,20.55
	c-3.2-3.52-5.1-7.91-7.64-11.87c-1.6-2.77-5.17-2.59-7.93-2.83c-7.96-0.18-15.87-1.32-23.83-1.14c-1.68,3.72-3.53,7.37-5,11.19
	C54.501,313.547,54.711,307.297,54.721,301.037z"/>
<path class="st1" d="M241.761,306.627c15.51-1.43,30.96-3.47,46.46-4.99c0.21,4.86,0.39,9.72,0.53,14.58
	c-2.89-2.89-5.1-6.61-8.57-8.83c-6-0.15-11.89,1.55-17.85,2.11c-5.2,0.92-10.66,0.63-15.64,2.5c-2.07,1.63-3.38,4-4.92,6.09
	C241.651,314.267,241.651,310.447,241.761,306.627z"/>
<path class="st2" d="M19.611,303.687c2.47,0,4.94,0,7.42,0.01c2.8,5.66,4.95,11.74,4.93,18.14c-0.09,12.51-0.55,25.01-0.73,37.52
	c6.06-0.43,12.11-0.91,18.18-1.29c0.05,8.36-0.22,16.71-0.4,25.07c-12.48,0.69-24.98,1.01-37.44,1.84
	c0.43-10.89,0.03-21.81,0.68-32.68c1.9-6.09,2.71-12.42,3.34-18.74C16.941,323.597,17.791,313.577,19.611,303.687z"/>
<path class="st2" d="M296.551,306.057c3.5-0.89,7-1.73,10.53-2.49c1.79,12.12,3.54,24.26,5.2,36.41c0.4,13.69,0.2,27.41,0.34,41.11
	c-6.56-0.02-13.11,0-19.67-0.01c-0.14-24.23-0.38-48.45-0.32-72.68c0.98,6.45,0.5,12.99,1.11,19.47
	C294.941,320.627,295.161,313.267,296.551,306.057z"/>
<path class="st1" d="M201.501,311.707c12.12-2.66,24.41-4.29,36.73-5.69c-0.13,6.24,0.33,12.49-0.2,18.72
	c-0.56-3.89,0.31-8.84-3.27-11.51c-2.02-1.86-4.95-0.99-7.37-0.82c-6.02,0.91-12.11,1.52-18,3.09c-1.59,0.55-3.6,0.92-4.39,2.62
	c-2.17,4.45-3.34,9.31-4.79,14.03C200.451,325.327,201.251,318.537,201.501,311.707z"/>
<path class="st1" d="M104.361,306.817c12.12,0.06,24.24-0.77,36.36-0.1c-0.24,3.31-0.5,6.62-0.77,9.94
	c-1.63-1.93-3.24-3.87-4.86-5.8c-8.84-0.18-17.67-0.07-26.51,0.01c-1.23,6.6-1.72,13.31-2.84,19.93
	c-0.86-7.51,0.17-15.12-1.17-22.59C104.521,307.857,104.411,307.167,104.361,306.817z"/>
<path class="st2" d="M140.721,306.717l0.02-0.35c0.13,6.28,0.39,12.56,0.54,18.84c-5.97-0.15-11.94-0.32-17.91-0.4
	c-0.4,10.94-0.58,21.87-0.78,32.81c7.06-0.47,14.09-1.27,21.14-1.82c-0.06,6.66,0.01,13.33-0.01,20
	c-13.02,0.09-26.03,0.67-39.04,0.69c-0.13-22.76-0.01-45.52-0.11-68.28c1.34,7.47,0.31,15.08,1.17,22.59
	c1.12-6.62,1.61-13.33,2.84-19.93c8.84-0.08,17.67-0.19,26.51-0.01c1.62,1.93,3.23,3.87,4.86,5.8
	C140.221,313.337,140.481,310.027,140.721,306.717z"/>
<path class="st2" d="M262.331,309.497c5.96-0.56,11.85-2.26,17.85-2.11c3.47,2.22,5.68,5.94,8.57,8.83
	c0.13,2.47,0.24,4.95,0.33,7.44c-5.22,0.08-10.43,0.25-15.64,0.39c0.46,18.02,1.32,36.02,1.93,54.04
	c-6.47-0.15-12.95-0.16-19.41-0.51c0-17.49,0.21-34.97,0.08-52.45c-4.74,0.58-9.51,0.94-14.28,1.18c0.02-2.74,0.04-5.48,0.01-8.22
	c1.54-2.09,2.85-4.46,4.92-6.09C251.671,310.127,257.131,310.417,262.331,309.497z"/>
<path class="st2" d="M59.611,308.617c7.96-0.18,15.87,0.96,23.83,1.14c2.76,0.24,6.33,0.06,7.93,2.83
	c2.54,3.96,4.44,8.35,7.64,11.87c1.14,11.39,1.73,22.83,2.77,34.23c0.81,6.11-1.05,12.12-1.67,18.16
	c-7.92,1.21-15.9,1.97-23.82,3.16c-7.68,1.33-15.43-0.13-23.11-0.59c0.43-17.92,0.87-35.85,0.94-53.78
	c0.07-1.95-0.07-3.95,0.49-5.83C56.081,315.987,57.931,312.337,59.611,308.617 M70.871,323.177c-0.32,11.92-0.25,23.85-0.36,35.77
	c4.29-0.38,8.58-0.73,12.87-1.13c-0.48-11.12-0.97-22.24-1.37-33.37C78.301,324.007,74.591,323.577,70.871,323.177z"/>
<path class="st1" d="M161.211,309.757c5.75,0.29,11.52,0.45,17.28,0.63c4.32,7.05,8.69,14.06,13.21,20.98
	c2.47,3.45,2.1,7.89,2.14,11.91c-3.68-6.25-7.29-12.56-11.65-18.37c-2.74-3.55-4.69-7.82-8.19-10.71c-2.93-0.95-6.22-0.92-9.17-0.08
	c-1.19,1.18-1.99,2.68-2.81,4.12c-4.51,8.36-8.75,16.87-13.81,24.92c-0.78-6.67,3.01-12.35,5.61-18.15
	C156.261,319.917,158.671,314.807,161.211,309.757z"/>
<path class="st2" d="M227.391,312.407c2.42-0.17,5.35-1.04,7.37,0.82c3.58,2.67,2.71,7.62,3.27,11.51
	c-5.9,0.14-11.78,0.5-17.67,0.67c-0.31,1.57-0.62,3.13-0.93,4.7c6.8,3.3,13.61,6.59,20.42,9.86c-0.43,11.21-1.24,22.4-1.42,33.62
	c-12.57,0.53-25.16,0.73-37.74,0.88c-0.8-6.77-1.03-13.58-1.79-20.35c7.23,0.7,14.47,1.43,21.71,2.04c0.1-2.1,0.2-4.19,0.29-6.29
	c-7.01-4.39-14.03-8.78-21.22-12.89c0.16-1.62,0.23-3.24,0.53-4.83c1.45-4.72,2.62-9.58,4.79-14.03c0.79-1.7,2.8-2.07,4.39-2.62
	C215.281,313.927,221.371,313.317,227.391,312.407z"/>
<path class="st2" d="M164.831,314.117c2.95-0.84,6.24-0.87,9.17,0.08c3.5,2.89,5.45,7.16,8.19,10.71
	c4.36,5.81,7.97,12.12,11.65,18.37c1.57,9.77,1.89,19.73,3.05,29.57c-5.96-0.6-11.96-0.57-17.9,0.15
	c-0.27-4.09-0.64-8.16-1.05-12.23c-4.7,0.67-9.4,1.36-14.13,1.85c-0.28,3.71-0.57,7.42-0.73,11.14c-5.66,0.43-11.33,0.73-16.99,1.2
	c0.9-10.59,1.14-21.23,2.12-31.8c5.06-8.05,9.3-16.56,13.81-24.92C162.841,316.797,163.641,315.297,164.831,314.117
	 M165.391,337.597c-0.83,3.16-0.73,6.47-1.02,9.71c4.1-0.21,8.21-0.45,12.31-0.73c-0.32-3.54,0.04-7.31-1.62-10.58
	c-1.48-3.2-3.1-6.33-4.59-9.52C168.801,330.187,166.771,333.757,165.391,337.597z"/>
<path class="st0" d="M70.871,323.177c3.72,0.4,7.43,0.83,11.14,1.27c0.4,11.13,0.89,22.25,1.37,33.37
	c-4.29,0.4-8.58,0.75-12.87,1.13C70.621,347.027,70.551,335.097,70.871,323.177z"/>
<path class="st0" d="M165.391,337.597c1.38-3.84,3.41-7.41,5.08-11.12c1.49,3.19,3.11,6.32,4.59,9.52c1.66,3.27,1.3,7.04,1.62,10.58
	c-4.1,0.28-8.21,0.52-12.31,0.73C164.661,344.067,164.561,340.757,165.391,337.597z"/>
</svg>
