<?xml version="1.0" encoding="utf-8"?>
<!-- Generator: Adobe Illustrator 21.0.0, SVG Export Plug-In . SVG Version: 6.00 Build 0)  -->
<svg version="1.1" id="Layer_1" xmlns="http://www.w3.org/2000/svg" xmlns:xlink="http://www.w3.org/1999/xlink" x="0px" y="0px"
	 viewBox="0 0 692.5 1287.9" style="enable-background:new 0 0 692.5 1287.9;" xml:space="preserve">
<style type="text/css">
	.st0{stroke:#000000;stroke-width:9.375000e-02;}
	.st1{fill:#FFBA40;stroke:#FFBA40;stroke-width:9.375000e-02;}
	.st2{fill:#DD6B1D;stroke:#DD6B1D;stroke-width:9.375000e-02;}
</style>
<path class="st0" d="M342.9,1.6c27.9-2.5,56.1-1.9,83.9,1.3c44.2,5.2,88,16.6,128.1,36.2c16,8.1,31.8,17.4,44.8,30
	c5.2,5,9.6,10.8,13.4,17c2.2,1.2,5,0.9,7.4,1.4c-0.6,4.9-1.4,9.7-2,14.6c0.3,4,0.5,8-0.2,12c-13.5,92.6-27.4,185.2-40.2,278
	c32.6,14.8,63.3,35.9,84.4,65.2c19.2,26.2,29.2,58.4,29.7,90.7c0.7,37.6-9.5,74.6-24.2,108.9c-13.5,31.4-30.9,61.1-50.7,89
	c0.2,27.4-0.8,54.8-3.1,82c-0.3,6.4-1.4,12.7-1.4,19.1c-0.3-1.7-0.5-3.3-0.8-5c1.5,11-2.8,21.9-1.9,32.8c-0.2-0.9-0.4-1.8-0.6-2.8
	c-5.5,46.2-15,92-29.4,136.3c-11.6,35.3-26.6,69.7-47.4,100.6c-20.8,30-46.8,55.9-73.7,80.4c-38.9,34.6-80.5,66.3-124.2,94.7
	c-2.1,1.3-3.9,3.1-6.3,3.8c0-1.8,0-3.5,0-5.2c-34.8-22.2-68.1-46.5-100-72.6c-29.6-24.4-58.3-50.3-83.1-79.8
	c-29.8-35.2-49.4-77.8-64.1-121.2C60.1,944.8,49.6,877.4,44.6,810c-1.2-20-2.2-40-2.1-60c0.9-16.4,1.3-32.8,2.3-49.1
	c0.7,3.6,0.2,7.2,0.5,10.8c0.2-4.2,0.5-8.5-0.3-12.7c0.2-6.3,0-12.7,1.2-18.9c4.1-26.7,8.2-53.4,12.3-80.2c0.9-5.3,1-10.9,3.6-15.8
	c2.5-7.6,5.8-15.1,7.7-22.9c-30.9-21.4-56.4-52.5-65.8-89.4c-6.8-26.1-4.7-54.6,6.9-79c12.2-26.2,34.4-46.8,59.7-60.1
	c28.8-15.1,61.3-21.4,93.3-24.9c2.9-0.2,6-1,8.8,0.3c-1.2-0.6-2.4-1.2-3.6-1.8c6,0.7,12,0.3,18-0.1c12.4-86.2,25.7-172.3,39.6-258.3
	c7.8-13.2,21.5-21.5,35.2-27.8C287.4,9,315.3,4.2,342.9,1.6 M283.4,77.5c-9.8,4.5-19.6,10.2-25.7,19.4c-1.5,4.9-1.4,10.1-2.6,15
	c-11.3,75.9-22.9,151.7-32.8,227.7c-2.4,0.9-5,0.6-7.5,0.6c-29.2,1.3-58.8,5.5-86,16.7c-14.7,6.2-28.4,15-39.4,26.6
	c-15.1,15.1-25.1,35.2-27.5,56.4c-2.4,19.1,0.9,38.8,8.7,56.3c8.4,19.1,21.8,35.7,37.7,49.2c30.3,25.5,68.8,39.5,107.5,45.6
	c25.5,4.5,51.5,3.4,77.1,6.6c21.4,2.2,42.6,6.3,63.5,11.8c20.6,5.7,40.7,13.3,59.8,23.1c36.8,13.8,66,43,85.8,76.3
	c7.2,10.4,13.1,21.8,17.2,33.8c4.9,11.2,8.7,22.8,12.3,34.4c14.1-16.7,28.2-33.3,42.1-50.1c15.7-22.8,29.6-46.9,40.8-72.2
	c15.5-34.7,26.3-72.5,24.4-110.8c-1.2-23.4-8.1-46.5-20.6-66.3c-18.5-29.3-48-49.8-79.4-63.5c11.5-87.4,23.9-174.7,36.1-262.1
	c0.7-4-0.1-8.1,0.1-12.1c-2.1-2.8-3-6.2-4.9-9.1c-5-8.1-12.3-14.5-19.7-20.3c-13-9.8-27.5-17.2-42.4-23.6
	c-45.7-19.1-95.8-27.4-145.2-25.4C335.8,62.9,308.4,66.7,283.4,77.5 M118.1,574.9c-1.4,5.4-3.8,10.6-5.2,16
	c-2.1,28.3,5,57.4,21.3,80.7c19.1,27.2,47.7,46.8,78.9,57.6c33.7-26.1,67.1-52.6,100.6-78.9c-12-2.3-24-4-35.9-6.6
	c-23.9-5.1-47.4-11.7-70.5-19.5c-18.3-6.2-36.5-13.2-53.7-22C140.3,595.3,126.8,587.4,118.1,574.9 M362.6,650.3
	c3.2,3.1,7,5.6,10.4,8.4c29.9,23.5,59.9,47,89.8,70.5c11.3-3.7,22.2-8.7,32.2-15c-18.4-31.7-44.8-60.3-79.2-74.5
	C398.3,644.2,380.5,647.1,362.6,650.3 M105.4,696.8c-1,7.3-1.7,14.7-2.7,22.1c-0.8,8.3-2.4,16.6-1.7,25c0.1,22,1.3,44,3.1,66
	c3.4,40.1,9.2,80,18.6,119.1c7.8,32.2,17.9,63.9,32.3,93.7c10,21.2,22.8,41,38.1,58.8c15.1,17.9,31.8,34.2,49,50.1
	c27.5,24.7,56.4,48,86.8,69.2c1.2-16.9,1.8-33.9,2.8-50.9c-27.9-28.2-55.7-56.4-82.1-85.9c-13.9-15.4-27.2-31.4-37.6-49.4
	c-18.2-30.5-30.4-64.2-39-98.6c-10.1-41.3-15.4-83.8-15.9-126.3c19.7,13.1,39.2,26.4,58.7,39.8c19.8-13.1,39.3-26.7,59.1-39.8
	c-0.1,51.8,0,103.5-0.1,155.3c7.7,6.9,15.7,13.5,23.5,20.3c10.4,8.6,20.3,17.8,30.9,26.1c-0.2-94,0.1-188-0.1-282
	c-37.1,22.6-74.2,45-111.4,67.4C180.4,750.1,142.9,723.4,105.4,696.8 M341.6,710.5c0,94.1,0.1,188.2,0,282.3
	c19.6-11.9,39-24.3,58.6-36.1c0.3-56.1,0-112.3,0.1-168.4c19.5,14.1,39,28.3,58.5,42.3c19.8-13.2,39.5-26.5,59.2-39.8
	c0,25-2.3,50-5.8,74.8c-7.8,51.9-22,103.7-48.6,149.3c-9.6,16.6-21.5,31.6-34,46c-26.2,30.8-53.5,60.6-80.9,90.3
	c-0.1,16.9-0.9,33.8-0.8,50.7c34.8-25,68.1-52.2,98.9-81.9c23.5-23.1,46.3-47.6,62.7-76.3c22.9-40.2,36.7-84.8,46.5-129.8
	c12.2-57.5,17.7-116.3,18.3-175.1c-16.4,18.9-32.2,38.3-48.5,57.3c-3.4-18.8-9.6-37-17.1-54.6c-17.3,11.4-34.3,23.3-51.4,35
	c-0.9,0.5-2,1.9-3.1,1C416.7,755.1,379.1,732.8,341.6,710.5z"/>
<path class="st1" d="M283.4,77.5c25-10.8,52.4-14.6,79.4-16.1c49.5-2,99.5,6.3,145.2,25.4c14.8,6.4,29.4,13.8,42.4,23.6
	c-3.5,6-6.8,12.1-10.4,18c-8.4-5.1-17.5-8.9-26.6-12.4c8.2,5.4,16.5,10.9,23.1,18.3c-1.8,5-5.1,9.4-6.9,14.5
	c-2.7,2.7-6.4,3.6-9.9,4.9c-20.3,7.2-41.7,10.9-63.1,11.9c-32.2,1.1-64.3-3.8-95.7-10.6c-18.6-4.1-36.9-9.2-54.9-15.1
	c11.9,7.2,24,14.2,36.6,20.3c12.1,5.9,24.7,11.3,38.1,13.4c29.4,4.8,59.3,7.6,89.1,5.7c15.2-0.7,30.5-2.2,45.5-4.7
	c-1.3,4.3-3.8,8-5.7,12c-35.5,72.6-65.3,147.9-91.9,224.2c-12,34.9-23.7,69.9-34.2,105.3c-4.6,0.4-9.3,0.1-13.9-0.1
	c-22.2-0.9-44.4-4-65.8-10.3c-18-5.4-35.4-13.3-50.5-24.6c-17.7-13.1-31.8-31.5-38-52.8c-5.7,8.3-10.1,18.1-9,28.4
	c1.3,14.8,10.8,27.3,21.4,37.1c13.4,12.6,30.1,21,46.9,28.1c31.7,13.1,65.6,20.7,99.7,23.7c-6.1,21.2-12.5,42.3-18,63.6
	c-20.8-5.5-42.1-9.6-63.5-11.8c-25.6-3.2-51.6-2.1-77.1-6.6c-38.7-6.2-77.2-20.2-107.5-45.6C92.4,532,79,515.4,70.6,496.3
	c-7.8-17.5-11.2-37.2-8.7-56.3c2.4-21.2,12.4-41.4,27.5-56.4c11.1-11.5,24.8-20.3,39.4-26.6c27.2-11.3,56.8-15.4,86-16.7
	c2.5-0.1,5.1,0.3,7.5-0.6c9.9-76.1,21.5-151.9,32.8-227.7c1.2-4.9,1.1-10.2,2.6-15C263.8,87.7,273.6,82,283.4,77.5z"/>
<path class="st2" d="M550.4,110.4c7.4,5.9,14.7,12.2,19.7,20.3c1.9,2.9,2.8,6.4,4.9,9.1c-0.2,4,0.6,8.1-0.1,12.1
	c-12.2,87.3-24.5,174.6-36.1,262.1c31.3,13.7,60.9,34.2,79.4,63.5c12.6,19.8,19.4,42.9,20.6,66.3c2,38.3-8.9,76.1-24.4,110.8
	c-11.3,25.3-25.2,49.4-40.8,72.2c-13.9,16.8-28,33.4-42.1,50.1c-3.6-11.6-7.4-23.2-12.3-34.4c-4.1-12-10-23.4-17.2-33.8
	c-19.9-33.3-49-62.5-85.8-76.3c-19-9.8-39.1-17.4-59.8-23.1c5.5-21.3,12-42.4,18-63.6c13.8,1.5,27.6,1,41.4,1
	c21-0.9,42.2-3.5,62.3-9.7c16.6-5.5,33.6-14.7,42.3-30.5c6.6-11.6,6.8-25.6,3.6-38.3c-7.2,13.1-19.6,22.5-32.7,29.3
	c-22.1,11.4-47,15.9-71.6,18.1c-16.7,1-33.5,1.6-50.2,0.5c4.6,0.2,9.3,0.5,13.9,0.1c10.5-35.4,22.2-70.4,34.2-105.3
	c26.6-76.3,56.4-151.6,91.9-224.2c1.9-4,4.3-7.8,5.7-12c11.9-1.5,23.5-5.4,34.1-11c4-2.2,8-4.6,10.9-8.2c2.5-3,0.9-7.3-0.8-10.3
	c-4.7-7.4-12.3-12.3-19.6-16.8C543.6,122.5,546.9,116.4,550.4,110.4z"/>
<path class="st0" d="M513.3,116c9.1,3.5,18.2,7.3,26.6,12.4c7.3,4.6,14.9,9.4,19.6,16.8c1.7,3,3.3,7.2,0.8,10.3
	c-2.9,3.6-6.9,6-10.9,8.2c-10.6,5.6-22.2,9.5-34.1,11c-15.1,2.4-30.3,4-45.5,4.7c-29.8,1.8-59.7-1-89.1-5.7
	c-13.4-2-26-7.5-38.1-13.4c-12.6-6.1-24.7-13.1-36.6-20.3c18,5.9,36.4,11.1,54.9,15.1c31.4,6.8,63.5,11.7,95.7,10.6
	c21.4-1,42.9-4.7,63.1-11.9c3.4-1.3,7.2-2.3,9.9-4.9c3.6-1.6,7.7-2.7,10.3-5.9c0.4-3.3-1.8-6-3.4-8.6
	C529.9,126.9,521.5,121.4,513.3,116z"/>
<path class="st2" d="M536.4,134.3c1.6,2.6,3.9,5.4,3.4,8.6c-2.6,3.2-6.7,4.3-10.3,5.9C531.3,143.7,534.6,139.3,536.4,134.3z"/>
<path class="st0" d="M215.4,428.5c6.2,21.3,20.3,39.7,38,52.8c15.1,11.3,32.5,19.2,50.5,24.6c21.4,6.3,43.5,9.4,65.8,10.3
	c16.7,1.1,33.5,0.5,50.2-0.5c24.6-2.2,49.5-6.7,71.6-18.1c13.1-6.7,25.5-16.1,32.7-29.3c3.3,12.6,3,26.7-3.6,38.3
	c-8.7,15.9-25.7,25-42.3,30.5c-20.2,6.2-41.3,8.8-62.3,9.7c-13.8,0-27.6,0.5-41.4-1c-34.1-3-68-10.6-99.7-23.7
	c-16.8-7.1-33.5-15.4-46.9-28.1c-10.6-9.8-20-22.3-21.4-37.1C205.4,446.6,209.7,436.8,215.4,428.5z"/>
<path class="st1" d="M118.1,574.9c8.7,12.5,22.2,20.4,35.4,27.5c17.3,8.8,35.4,15.8,53.7,22c23.1,7.8,46.7,14.3,70.5,19.5
	c11.9,2.5,24,4.3,35.9,6.6c-33.5,26.3-66.9,52.8-100.6,78.9c-31.1-10.8-59.8-30.5-78.9-57.6c-16.4-23.3-23.5-52.5-21.3-80.7
	C114.3,585.5,116.7,580.3,118.1,574.9z"/>
<path class="st2" d="M362.6,650.3c17.8-3.2,35.7-6,53.2-10.5c34.4,14.2,60.8,42.8,79.2,74.5c-10.1,6.3-20.9,11.3-32.2,15
	c-29.9-23.5-59.9-47-89.8-70.5C369.6,655.9,365.8,653.4,362.6,650.3z"/>
<path class="st1" d="M105.4,696.8c37.5,26.6,75,53.3,112.4,80c37.2-22.4,74.3-44.8,111.4-67.4c0.3,94,0,188,0.1,282
	c-10.6-8.4-20.5-17.5-30.9-26.1c-7.8-6.8-15.8-13.4-23.5-20.3c0.1-51.8-0.1-103.5,0.1-155.3c-19.8,13.1-39.3,26.7-59.1,39.8
	c-19.5-13.3-39.1-26.6-58.7-39.8c0.4,42.5,5.7,85,15.9,126.3c8.6,34.3,20.8,68.1,39,98.6c10.4,18,23.7,34,37.6,49.4
	c26.4,29.6,54.3,57.8,82.1,85.9c-1,16.9-1.6,33.9-2.8,50.9c-30.3-21.2-59.2-44.5-86.8-69.2c-17.2-15.9-34-32.2-49-50.1
	c-15.3-17.7-28.1-37.6-38.1-58.8c-14.5-29.8-24.6-61.6-32.3-93.7c-9.4-39.1-15.1-79-18.6-119.1c-1.8-21.9-3-44-3.1-66
	c-0.7-8.4,0.9-16.7,1.7-25C103.7,711.6,104.4,704.2,105.4,696.8z"/>
<path class="st2" d="M341.6,710.5c37.6,22.3,75.1,44.6,112.7,67c1.1,0.9,2.2-0.5,3.1-1c17.1-11.7,34.1-23.6,51.4-35
	c7.5,17.6,13.7,35.8,17.1,54.6c16.3-19,32.1-38.4,48.5-57.3c-0.6,58.8-6.1,117.6-18.3,175.1c-9.7,45-23.6,89.6-46.5,129.8
	c-16.5,28.7-39.2,53.2-62.7,76.3c-30.9,29.7-64.1,56.9-98.9,81.9c-0.1-16.9,0.7-33.8,0.8-50.7c27.4-29.7,54.7-59.5,80.9-90.3
	c12.4-14.5,24.4-29.5,34-46c26.7-45.6,40.9-97.3,48.6-149.3c3.5-24.8,5.9-49.8,5.8-74.8c-19.7,13.3-39.4,26.7-59.2,39.8
	c-19.5-14.1-39-28.2-58.5-42.3c-0.1,56.1,0.1,112.3-0.1,168.4c-19.6,11.9-39,24.3-58.6,36.1C341.7,898.7,341.6,804.6,341.6,710.5z"
	/>
</svg>
