<?xml version="1.0" encoding="utf-8"?>
<!-- Generator: Adobe Illustrator 21.0.0, SVG Export Plug-In . SVG Version: 6.00 Build 0)  -->
<svg version="1.1" id="Layer_1" xmlns="http://www.w3.org/2000/svg" xmlns:xlink="http://www.w3.org/1999/xlink" x="0px" y="0px"
	 viewBox="0 0 310.1 380.3" style="enable-background:new 0 0 310.1 380.3;" xml:space="preserve">
<style type="text/css">
	.st0{stroke:#FFFFFF;stroke-width:9.375000e-02;}
</style>
<path class="st0" d="M95.3,6.6c20.5-3,41-6.9,61.7-6.5c14.8-0.3,29.6,1,44.2,3.5c36.2,5.9,72.4,11.8,108.6,17.7
	c0,38.6-0.2,77.2,0.1,115.8c0.3,39.7,0,79.3,0.2,119c-0.7,17.4-9.1,34.4-22.5,45.6c-5.8,5.1-12.9,8.5-19.4,12.5
	c-37.8,22-75.4,44.3-113.2,66.1c-37.7-22.1-75.4-44.1-113.1-66.1c-7.6-4.5-15.7-8.5-22-14.8C8,288.2,0.6,272.3,0,256
	c0-78.4,0-156.8,0-235.1C31.8,16.2,63.6,11.3,95.3,6.6 M123.5,17.3C87.3,22.8,51,28.3,14.8,33.7c0,73.8,0,147.6,0,221.5
	c0.6,14.1,7.7,27.7,18.8,36.3c3.2,2.6,6.9,4.5,10.4,6.6c37.1,21.6,74.1,43.3,111.2,65c35.9-21.1,71.9-42.1,107.9-63.1
	c5.9-3.5,12.3-6.7,17.2-11.6c9.8-9.3,15.5-22.8,15.1-36.3c0-29,0-58,0-87c-0.5-30.7-0.1-61.3-0.3-92c-0.1-13.1,0.3-26.2-0.4-39.3
	c-28.2-4.5-56.4-9.2-84.6-13.8c-9.4-1.5-18.7-3.2-28.2-4.1C162.5,14.1,142.8,14.5,123.5,17.3z"/>
<path class="st0" d="M124,26.6c23.5-3.5,47.5-3.4,71,0.3c30,4.9,60.1,9.8,90.1,14.7c0,15,0,30.1,0,45.1C279,81.6,271.5,78.3,264,76
	c-14.2-4.3-29.2-5.6-44-6.1c-46.4,0-92.7,0-139.1,0C62.1,116,43.6,162.3,24.6,208.4c-0.1-55.6,0-111.2-0.1-166.7
	C57.7,36.6,90.9,31.6,124,26.6z"/>
<path class="st0" d="M93.4,88.6c28.9,0,57.8,0,86.7,0c25.7,0.1,51.8-2,77,4.2c8.5,2.3,18.3,5.6,22.4,14.1c4,8.8,1.5,19-1.7,27.6
	c-5,13.8-15.6,25.3-28.6,31.9c4.6,3.1,8.4,7.4,9.8,12.9c1.4,6,0.6,12.4-1.2,18.2c-3.3,9.6-8,18.9-15,26.3
	c-5.6,5.8-12.1,10.9-19.4,14.5c-18.7,9-39.4,13.8-60.2,14.3c-45.4,0-90.9,0-136.3,0C49,197.9,71.1,143.2,93.4,88.6 M133.6,130.3
	c-2.8,6.9-5.6,13.8-8.4,20.8c18.6,0,37.2,0,55.7,0c8.1-0.4,16.2-0.3,24.2-1.9c3.8-0.7,5.6-4.6,7.2-7.7c1.1-2.3,2.6-5.3,0.3-7.4
	c-4.1-3.2-9.6-3.4-14.6-3.8C176.6,130.3,155.1,130.4,133.6,130.3 M110.6,187.3c-3.2,7.8-6.4,15.7-9.6,23.5c22.7,0,45.5,0,68.2,0
	c5.7-0.3,11.4-0.5,16.9-1.9c5.3-1.1,7.4-6.9,9.3-11.4c0.5-2.4,2.5-5.5,0.6-7.6c-7.4-2.4-15.2-2.1-22.9-2.6
	C152.3,187.3,131.4,187.3,110.6,187.3z"/>
<path class="st0" d="M275.3,171c3.7-3.6,7-7.6,10-11.9c-0.1,30.7,0.2,61.4,0.3,92.1c0.2,10.4-3.8,20.9-11,28.4
	c-3.1,3.3-7,5.8-10.9,8.1c-36.2,21.1-72.3,42.3-108.5,63.4c-37.2-21.7-74.4-43.5-111.7-65.3c-5.8-3.5-10.6-8.5-13.8-14.4
	c41.8-0.1,83.6,0,125.4,0c18.7,0.1,37.5-2.3,55.3-8.1c11.3-3.8,22.6-8.3,32.3-15.4c6.9-5.1,13.5-10.8,18.7-17.7
	c5.5-7.3,9.2-15.7,12.5-24.2C277.8,194.8,279.2,182.3,275.3,171z"/>
</svg>
