<?xml version="1.0" encoding="utf-8"?>
<!-- Generator: Adobe Illustrator 21.0.0, SVG Export Plug-In . SVG Version: 6.00 Build 0)  -->
<svg version="1.1" id="Layer_1" xmlns="http://www.w3.org/2000/svg" xmlns:xlink="http://www.w3.org/1999/xlink" x="0px" y="0px"
	 viewBox="0 0 1074.2 1054.7" style="enable-background:new 0 0 1074.2 1054.7;" xml:space="preserve">
<style type="text/css">
	.st0{stroke:#000000;stroke-width:9.375000e-02;}
	.st1{fill:#FFFFFF;stroke:#FFFFFF;stroke-width:9.375000e-02;}
	.st2{fill:#3FE00B;stroke:#3FE00B;stroke-width:9.375000e-02;}
</style>
<path class="st0" d="M520.4,23.8c6-7.9,11.4-16.1,17.7-23.7c32.3,45.4,63.7,91.5,96.6,136.5c-13.5,10.1-29.6,15.3-44.3,23.2
	c-7.9,4.1-15.2,10.9-17.2,19.9c-1.9,9.2-1.4,19.6,4.4,27.4c4.5,6.4,12,9.8,19.4,11.5c9.6,2,19.6,1.6,29.3,0.1
	c7.9-1.3,14.5-7.2,17.5-14.4c1.7-3.9,1.4-8.8-1.1-12.3c-3.5-5.2-9.4-7.9-14.8-10.6c7-6.9,15.4-12.3,23.7-17.4
	c7.2-4.5,14.3-9.2,21.9-13.1c16.6-8.2,33.5-15.9,51.1-21.9c20.9-7.8,42.5-13.7,64.5-17.3c-8.6,6.4-17.9,11.8-26,18.8
	c-5.4,4.6-10.9,9.1-15.9,14.1c-6.7,6.5-12.1,14.1-17.3,21.7c-9.2,13.3-15.2,29.1-15.9,45.3c-0.4,7,0.2,13.9,0.5,20.9
	c18.7-19.9,37-40.6,60.3-55.3c6.1-3.9,12.2-8,18.7-11.3c15.9-7.7,32.4-14.5,50-17.3c-6.2,11.4-13.4,22.2-19.9,33.3
	c-22.9,37.7-45.8,75.5-68.8,113.2c-6.5,10.4-12.4,21-19.2,31.2c-6.1-7.5-14.4-12.7-22.5-17.7c-16.6-9.9-34.2-18.2-51.8-26.2
	c-38.3-17.2-77.5-32.5-116.9-47.1c-2.9-0.9-5.9-2.9-8.9-1.3c-33.1,12.1-65.9,24.9-98.4,38.7c-19.6,8.4-39.1,17.1-58,27
	c-13.7,7.6-28.2,14.8-38.8,26.7c-36-59.3-72-118.6-108-177.9c15.2,2.5,29.7,7.8,43.6,14.2c9.3,3.9,17.7,9.5,26.1,14.9
	c22.9,14.7,41.2,35.2,59.7,54.9c1-13.8,1.4-28-3.2-41.3c-4.4-14.7-13.4-27.3-22.8-39.2c-7.6-9.1-16.8-16.6-25.9-24.1
	c-7.3-5.8-15.2-10.6-22.7-16.1c23.9,3.7,47.1,10.7,69.7,19.1c15.3,5.4,30.1,12.3,44.6,19.4c8.3,4.1,16,9.3,23.8,14.2
	c8.1,5.1,16.3,10.3,23.1,17c-6,3-12.8,6.1-15.9,12.5c-2.3,4.7-0.8,10.2,2,14.3c3.6,5.6,9.6,9.8,16.3,10.6
	c12.9,1.8,26.8,2.1,38.7-3.9c7.9-3.8,13.1-12,14.2-20.6c0.8-6.9,0.4-14.2-2.9-20.4c-2.8-5.3-7.6-9.2-12.7-12.2
	c-8-4.6-16.7-7.9-25-12c-7.3-3.5-14.3-7.6-20.9-12.3c-1.8-1,0.1-2.9,0.6-4.1c11.7-18.4,24.6-36,37.3-53.8
	C493.4,60.8,506.8,42.3,520.4,23.8 M535.5,101c-14.2,2.3-24.3,16.4-23.9,30.4c-0.4,14.4,10.7,29,25.4,30.3
	c9.3,0.1,18.1-5.8,22.8-13.6c7.7-12.2,5.8-29.7-4.8-39.7C549.9,103.6,542.7,100.1,535.5,101 M357.4,246c-9.5,2.2-16.7,12.4-14,22.1
	c2.8,11.7,17.3,17.5,27.9,12.6c8.3-3.3,13.7-13,11-21.7C379.5,248.8,367.4,243.2,357.4,246 M708.4,245.9c-8.1,1.8-15,9.1-15,17.6
	c-0.3,6.4,3.5,12.5,8.9,15.8c8.1,5.2,19.8,3.8,26.4-3.3c4.8-5,6.3-13,3.3-19.3C728,248,717.5,243.6,708.4,245.9z"/>
<path class="st0" d="M514.8,255.2c6.8-2,13.5-4,20.4-5.7c3.6-1.1,7.2,0.2,10.7,1.1c28.1,7.7,55.6,17.3,82.3,28.8
	c33.2,14.4,65.3,31.8,94.2,53.8c25,19.2,47.7,42.2,63.1,69.9c1.6,3.3,4.7,6.2,4.5,10.2c-0.3,9.2-1.8,18.7,0.6,27.8
	c1.2,5,5.5,8.6,6.3,13.7c2.2,11.4,2.9,22.9,3.8,34.5c2.8,41.7,3.8,83.5,4.8,125.3c0.4,16.7,0.3,33.4,1.1,50.1
	c89.2,0.2,178.4,0,267.6,0.1c-9.5,16-19.7,31.6-29.4,47.4c-2.2,4-5.3,7.7-5.9,12.3c-0.3,72.5-0.2,145-0.7,217.5
	c-15.4-2.1-30.7-5.1-46.1-7.7c-21.5-3.5-42.7-8.8-64.1-12.9c-22.1-4.8-44.5-8.3-66.7-12.4c-44.9-6.9-89.9-13.5-135.2-17.4
	c-3.2,7.5-4.5,15.8-7.8,23.2c-2.6,2.5-6.1,3.9-9.1,5.9c-27.9,17.2-53.5,38.1-75.9,62.1c-4.6,5-9.1,10.3-14.5,14.5
	c-18.7,14.7-38.3,28.3-57.2,42.8c-6.1,4.5-11.7,9.7-17.9,14.1c0.1-2.5,0.3-5,0.5-7.4c3.1-26.9,6-53.9,9-80.8
	c3-27.8,6.5-55.5,9.1-83.4c-16.1-0.4-32.2-0.7-48.2-0.1c6.1,57.4,13,114.8,18.9,172.2c-20.3-17-42-32.1-63.1-47.9
	c-7.9-6.1-16.1-11.8-22.6-19.3c-20.3-22.5-43.4-42.6-68.6-59.4c-6.5-4.6-13.7-8.3-20.2-12.9c-3.4-7.8-5.2-16.3-7.9-24.4
	c-10.7,0.1-21.4,1.8-32.1,2.6c-28.6,3.2-57.1,6.8-85.5,11c-20.6,2.6-40.9,6.5-61.3,10.1c-24.8,4.5-49.5,9.2-74,14.7
	c-19,4.1-37.9,9-56.9,12.9c-0.5-12.5,0-25-0.1-37.5c0-56,0.1-112,0.3-168c-0.2-4.1,0.7-8.6-1.5-12.3c-3.5-6.3-7.5-12.4-11.6-18.5
	C18.5,692.3,9.7,678.4,0,665.2v-0.6c33.7,0.2,67.3,0,101,0.1c55.5-0.1,111,0.1,166.5-0.1c0.6-10.4,0.5-20.8,0.8-31.1
	c0.5-30.7,1.4-61.3,2.4-92c1.2-24.8,2-49.7,4.6-74.4c0.5-4.4,1-8.8,2.1-13.1c1-4.4,4.6-7.7,6-12c3-8.5,2.5-17.6,2.7-26.5
	c0.1-2,0.1-4.1,1.1-5.9c4.9-7.7,9.1-15.9,14.6-23.2c19-26.7,44.3-48.4,71.5-66.6C416.7,291,465.1,270.5,514.8,255.2 M311.8,512.3
	c-0.7,1.6-0.2,2.6,1.5,2.8c43.6,11.9,87.2,23.7,130.8,35.5c18.8,5,37.4,10.4,56.2,15c0.8-1.7,0.4-2.8-1.3-3.1
	c-60.3-16.5-120.6-32.7-180.8-49.2C316,513,314,512.1,311.8,512.3 M578,562.5c-1.7,0.3-2.6,1.3-1.9,3c2.2-0.2,4.4-0.7,6.5-1.3
	c60.8-16.7,121.8-32.9,182.6-49.8c0.2-2-1.3-2.8-3-2C700.8,529.2,639.4,545.8,578,562.5 M340.9,540.5c2.6,9.3,9.3,16.6,16.8,22.3
	c15,13,32.8,23.2,44.8,39.4c12.5-0.6,24.9-2.4,37.3-3.3c14.1-1.2,28.2-3.2,42.3-3.8c2.7,23.1,5,46.3,7.8,69.4
	c8.8,0.3,17.6,0.2,26.4,0c-7.2-23.6-15.3-46.8-22.8-70.3c-0.1-4.7,2.7-9,2.9-13.7c-0.5-1.9-2-3.2-3.9-3.5
	c-46.4-12.6-92.8-25.2-139.2-37.8c-3-0.8-6-1.8-9.2-2.3C342.2,536.7,340.4,538.6,340.9,540.5 M720.6,540
	c-45.6,12.4-91.3,24.8-136.9,37.2c-2,0.3-3.6,2.2-3.5,4.3c0.6,4.1,2.4,7.9,2.9,11.9c-0.5,2.9-1.7,5.7-2.5,8.5
	c-6.7,20.9-13.8,41.7-20.5,62.6c8.9,0.3,17.8,0.3,26.7,0c2.7-23.2,5-46.4,7.9-69.5c23.8,1.9,47.5,4.4,71.2,6.7
	c2.8,0.1,5.8,1.1,8.5,0.2c5-6.3,10.5-12.2,16.8-17.2c10.8-8.5,21.9-16.7,32.3-25.8c5.6-4.7,9.8-10.9,12.1-17.8c1-2.2-1.3-4.7-3.5-4
	C728.2,537.8,724.4,539.1,720.6,540 M770.4,538.4c0.6,23.3-0.7,46.7-2.5,70c-4.8,10.9-11,21.3-15.6,32.3c-1,8-1.9,16.1-2.4,24.2
	c0.4-0.2,1.2-0.6,1.7-0.8c2.1-6.1,4.5-12,7-17.9c4-14,9.5-29,21.9-37.7C777.2,585.1,774.1,561.7,770.4,538.4 M463.3,648.5
	c0.4,5.2,0.8,10.4,1.3,15.6c0.3,0.2,1,0.5,1.3,0.6C465.2,659.2,464.6,653.8,463.3,648.5 M50,691.1c5.9,9.1,11.6,18.3,16.6,27.9
	c1.2,2.3,0.6,5,0.7,7.5c0,60.8-0.4,121.6-0.3,182.5c32.6-7.6,65.4-14.3,98.3-20.4c6.2-8.4,10.8-17.8,16-26.8
	c1.3-1.8,1.5-4.1,1.4-6.2c0.1-45.7,0.6-91.4,0.8-137.1c-0.4-1.6-1.4-2.9-2.2-4.3c-4.7-7.8-9.3-15.7-14.8-23
	C127.7,691.1,88.9,691.1,50,691.1 M977.3,691c-0.8,29-1,58-1.1,87c-12.6-0.8-25.2-2.2-37.8-3.1c0.3-27.9,1.2-55.9,2.1-83.8
	c-12,0-24-0.1-36,0.3c-2.2,43.4-3.4,86.8-5,130.2c12.7,1.8,25.5,3.3,38.1,5.3c-0.6,22.5-1.1,45.1-1.9,67.6c-0.5,2,2.1,1.8,3.4,2.2
	c11.6,2.1,23.1,5,34.7,7.1c0.3-23.7,0.7-47.5,0.9-71.2c12.6,1.6,25.1,4.1,37.6,6c0.1-40.3,0-80.7,0-121c0-2.8,2-5,3.1-7.5
	c3.3-6.4,7.4-12.4,10.8-18.8c-3.4-0.2-6.8-0.1-10.2,0.4C1003.2,690.5,990.2,691.4,977.3,691 M186.7,691.3c5,9.3,12,17.6,16.4,27.3
	c0.2,9,0,18,0,27c-0.8,23.9-0.3,47.9-0.8,71.8c13-1.4,26-2.9,39-4.2c0,21.1-0.3,42.2-0.3,63.4c12.8-1.8,25.5-3.6,38.3-5
	c0.3-20.7,0.2-41.4,0.4-62.1c13-1.1,26-2.3,39-3.3c0-38.3,0.1-76.6,0-114.9c-12.5-0.1-25.1-0.1-37.6,0c-0.7,24.8-0.4,49.6-0.7,74.4
	c-13.2,0.2-26.4,1.6-39.7,1.6c0.7-25.3,0.5-50.7,0.6-76C223.2,691.2,205,691.1,186.7,691.3 M325,691.3c5.2,7.9,10.4,15.8,15.5,23.7
	c0.6,1.1,1.6,2.2,1.6,3.5c0.2,48.7-0.4,97.3-0.4,146c12.9-1,25.7-2.3,38.6-3.1c0.1-28.7-0.1-57.4,0-86.2c4.3,5.4,7.8,11.4,11.8,17
	c14.4,21.4,29.3,42.6,44.6,63.4c0.8,0.9,1.6,2.6,3.1,2.2c7.1-0.4,14.3-0.5,21.4-1c-0.1-55.2,0-110.4-0.1-165.6
	c-12.8-0.1-25.7-0.1-38.5,0c-0.2,28.2,0,56.4-0.1,84.6c-5.6-7.2-10.4-15-15.6-22.4c-13.1-19.3-26.2-38.5-39.3-57.7
	c-1.1-1.6-2.1-3.4-3.8-4.5C351,691.1,338,691.2,325,691.3 M482.7,691.3c5.1,8.7,11.6,16.6,17,25.2c-10.3,46.7-19.9,93.6-30.3,140.3
	c10.3-0.3,20.6-0.5,31-0.7c3.9-17.3,7.6-34.6,11.3-51.9c14.4-0.1,28.8,0,43.3,0c4.1,17.3,7.6,34.7,11.6,52
	c13.9,0.2,27.8,0.8,41.8,1.1c-12-55.2-23.6-110.4-35.7-165.6c-6.5-0.8-13.1-0.2-19.6-0.4c-2.2-0.2-2.2,2.6-3,4
	c-3.2,9.5-6.1,19.1-9.4,28.6c-2-3.8-1.4-8.3-2.1-12.5c-1.2,4.4-1.4,8.9-2.1,13.3c-3.9-9.6-6.5-19.8-10-29.5
	c-0.5-1.7-1.1-4.2-3.4-3.9C509.6,691.2,496.2,691.1,482.7,691.3 M602.7,691.3c4.6,8.1,10.4,15.3,15.5,23.1c2.4,2.8,1.1,6.7,1.4,10.1
	c0.2,23.2-0.1,46.5,0.2,69.7c25.3,0.5,50.7,1.5,76,2.8c0,8.6-0.1,17.2,0,25.8c-5.6,0.1-11.2-0.8-16.8-0.9
	c-19.8-1.3-39.6-1.8-59.4-2.5c-0.1,12.7,0,25.5-0.1,38.2c32.4,1.6,64.8,3.3,97.1,6.6c5.9,0.3,11.8,1.7,17.7,1.2
	c0.6-36,2.2-71.9,2.4-107.9c-26.2-0.9-52.4-1.3-78.5-2.1c0-8.6,0-17.1,0-25.7c26.5,0.3,53.1,0.3,79.6,0.7c0.2-13,0.8-26.1,0.9-39.2
	C693.5,691.2,648.1,691.1,602.7,691.3 M747,691.3c9.5,12.8,18.3,26,26.8,39.4c9.3,0.1,18.5,0.2,27.8,0.3
	c-1.9,47.3-4.2,94.6-6.4,141.9c13.3,1.6,26.6,3.6,39.9,5.5c2.8-48.9,4.5-97.8,6.8-146.6c12.9,0.1,25.8,0.4,38.8,0.6
	c0.4-13.7,1.1-27.4,1.8-41.1C837.3,691.2,792.2,691.2,747,691.3 M485.2,882.7c3.3,36.3,6.9,72.6,10.3,108.9
	c-7.5-6.3-15.6-12.2-24.6-16.3c5.5,6,11.9,11,18.1,16.3c4.3,3.4,8.4,7.2,13.5,9.4c-0.1-6.2-0.9-12.3-1.4-18.5
	c-3.2-33.3-6.7-66.6-10.2-99.9C488.9,882.7,487,882.7,485.2,882.7 M703.5,889.8c-1.6,4.4-3.5,8.6-5.2,12.9c-0.9,2-1.5,4.3-3.5,5.6
	c-18.8,15-37.6,30.1-56.5,45c1.5,0,2.3-1.4,3.5-2.1c19.1-13.9,38.5-27.4,57.6-41.4c2.8-6.6,5.2-13.4,7.1-20.3
	C705.7,889.5,704.2,889.7,703.5,889.8z"/>
<path class="st1" d="M50,691.1c38.9,0,77.7,0,116.6,0.1c5.5,7.3,10.1,15.2,14.8,23c0.8,1.4,1.8,2.7,2.2,4.3
	c-0.1,45.7-0.7,91.4-0.8,137.1c0.1,2.2-0.2,4.4-1.4,6.2c-5.2,9-9.9,18.5-16,26.8c-32.9,6-65.7,12.7-98.3,20.4
	c0-60.8,0.3-121.6,0.3-182.5c-0.2-2.5,0.5-5.2-0.7-7.5C61.6,709.4,55.9,700.2,50,691.1 M57.7,695.3c4.2,7.6,9,14.9,12.8,22.6
	c0.6,1.1,0.8,2.3,0.8,3.5C71.2,782.2,71,843,71.1,903.8c30.4-6.9,60.9-13.2,91.6-18.8c4.7-5.8,7.9-12.8,11.8-19.2
	c1.6-3.3,4.5-6.4,4.3-10.3c0.3-44.7,0.5-89.4,0.8-134.1c0.3-3.1-1.9-5.6-3.3-8.1c-3.7-6-7.2-12.2-11.4-17.8
	c-6.2-0.9-12.5-0.1-18.7-0.4C116.6,695.2,87.1,694.9,57.7,695.3z"/>
<path class="st1" d="M977.3,691c12.9,0.4,25.9-0.5,38.7,0.6c3.4-0.4,6.8-0.6,10.2-0.4c-3.4,6.4-7.4,12.4-10.8,18.8
	c-1.1,2.4-3.1,4.7-3.1,7.5c0,40.3,0.1,80.7,0,121c-12.6-1.9-25-4.4-37.6-6c-0.2,23.8-0.6,47.5-0.9,71.2c-11.6-2.1-23.1-5-34.7-7.1
	c-1.2-0.4-3.8-0.2-3.4-2.2c0.8-22.5,1.3-45.1,1.9-67.6c-12.7-2-25.4-3.5-38.1-5.3c1.6-43.4,2.8-86.8,5-130.2c12-0.4,24-0.3,36-0.3
	c-0.8,27.9-1.7,55.9-2.1,83.8c12.6,0.9,25.2,2.3,37.8,3.1C976.3,749,976.5,720,977.3,691 M908.3,695.3c-1,17.4-1.6,34.8-2.2,52.2
	c-0.7,23.6-2,47.2-2.3,70.8c12.6,1.5,25.3,3.2,37.8,5.2c-0.3,23-1.2,46.1-1.7,69.1c9.9,2.1,19.8,4.4,29.8,6.1
	c0.5-23.6,0.6-47.2,1.1-70.8c12.5,1.5,24.9,4,37.3,5.8c0.3-39.3-0.1-78.7,0.2-118c2.7-7.2,7.3-13.5,10.8-20.3
	c-3.1,0.1-6.1,0.5-9.2,0.6c-9.6-1.5-19.3-0.6-29-0.7c-0.6,29.1-0.8,58.2-1.2,87.2c-15.3-1.3-30.5-2.6-45.7-3.9
	c0.6-27.8,1.4-55.6,2.2-83.3C927,695.1,917.6,695,908.3,695.3z"/>
<path class="st1" d="M186.7,691.3c18.3-0.2,36.5-0.1,54.8-0.1c-0.1,25.3,0.1,50.7-0.6,76c13.2,0,26.4-1.4,39.7-1.6
	c0.4-24.8,0-49.6,0.7-74.4c12.5-0.1,25.1-0.1,37.6,0c0.1,38.3,0,76.6,0,114.9c-13,1-26,2.1-39,3.3c-0.2,20.7-0.1,41.4-0.4,62.1
	c-12.8,1.4-25.6,3.2-38.3,5c0-21.1,0.4-42.2,0.3-63.4c-13,1.3-26,2.8-39,4.2c0.5-23.9,0-47.9,0.8-71.8c-0.1-9,0.1-18,0-27
	C198.7,708.9,191.7,700.6,186.7,691.3 M193.9,695.3c3.1,5.3,6.6,10.3,9.8,15.6c1.5,2.7,3.8,5.3,3.6,8.5c-0.2,31.1-0.6,62.2-0.6,93.3
	c12.9-1.2,25.8-2.9,38.8-4c0.2,21-0.3,42-0.2,63c10-1.1,19.8-2.8,29.8-3.7c0.2-1.1,0.4-2.2,0.4-3.4c0.3-19.6-0.1-39.3,0.5-58.9
	c12.9-1.2,25.9-2.2,38.9-3.3c0.1-35.7,0.2-71.4,0.3-107.1c-10-0.2-20.1-0.2-30.1,0c-0.2,24.7-0.2,49.3-0.4,74
	c-15.9,0.9-31.7,1.6-47.6,2.4c0.1-25.5,0.5-51,0.4-76.4C222.9,695.1,208.4,695,193.9,695.3z"/>
<path class="st1" d="M325,691.3c13-0.1,26-0.1,39,0c1.7,1.1,2.6,2.9,3.8,4.5c13.1,19.2,26.3,38.4,39.3,57.7
	c5.2,7.5,10,15.2,15.6,22.4c0.1-28.2,0-56.4,0.1-84.6c12.8-0.1,25.6-0.1,38.5,0c0.2,55.2,0,110.4,0.1,165.6
	c-7.1,0.5-14.3,0.6-21.4,1c-1.5,0.3-2.3-1.3-3.1-2.2c-15.3-20.8-30.1-42-44.6-63.4c-4-5.6-7.5-11.6-11.8-17
	c-0.1,28.7,0.1,57.4,0,86.2c-12.9,0.8-25.8,2.1-38.6,3.1c-0.1-48.7,0.6-97.3,0.4-146c-0.1-1.3-1-2.4-1.6-3.5
	C335.5,707,330.2,699.1,325,691.3 M332.7,695.3c4.1,7.3,9.4,13.9,13.3,21.3c0.2,47.8-0.3,95.6-0.1,143.4c10.2-0.6,20.3-1.7,30.5-2.4
	c0.3-31.7,0-63.5,0.1-95.2c1.6,1.6,2.9,3.5,4.2,5.5c19,28.5,38.3,56.7,58.6,84.3c0.6,1.1,1.5,1.6,2.7,1.5c5,0,10-0.4,15-0.5
	c0.1-1.2,0.2-2.4,0.3-3.6c0-51.5,0.3-102.9,0-154.3c-10.1-0.1-20.3-0.2-30.5,0c-0.3,31.1-0.1,62.3-0.2,93.4
	c-3.6-4.1-6.3-8.9-9.5-13.3c-17.7-25.9-35.3-52-53-77.9c-0.8-1-1.5-2.6-3.1-2.3C351.6,695.1,342.2,695,332.7,695.3z"/>
<path class="st1" d="M482.7,691.3c13.5-0.2,26.9-0.1,40.3-0.1c2.3-0.3,2.8,2.2,3.4,3.9c-12,0.2-24.1-0.2-36.1,0.2
	c3.8,6.6,8.8,12.5,12.8,19c1,1.2,0.4,2.8,0.2,4.2c-9.5,42.7-18.1,85.7-27.7,128.4c-0.4,1.9-0.7,3.7-1.1,5.6
	c7.4-0.1,14.9-0.4,22.3-0.4c4.4-17.1,7.6-34.5,11.5-51.7c8.6-0.7,17.1-0.2,25.7-0.4c7.9,0.1,15.9-0.2,23.8,0.3
	c0.2,0.3,0.6,1,0.9,1.3c3.7,16.8,7.3,33.6,11.1,50.3c11.1,0.5,22.3,0.7,33.4,0.9c-10.9-51.5-22-103-33.1-154.5
	c-0.4-1.2-0.4-3.4-2.1-3.2c-6-0.3-11.9,0-17.9,0c0.8-1.4,0.8-4.2,3-4c6.5,0.2,13.1-0.5,19.6,0.4c12.1,55.1,23.7,110.4,35.7,165.6
	c-13.9-0.3-27.8-0.9-41.8-1.1c-4-17.3-7.5-34.8-11.6-52c-14.4,0.1-28.8-0.1-43.3,0c-3.7,17.3-7.5,34.6-11.3,51.9
	c-10.3,0.2-20.6,0.4-31,0.7c10.4-46.7,20-93.6,30.3-140.3C494.3,707.9,487.9,700,482.7,691.3z"/>
<path class="st1" d="M602.7,691.3c45.4-0.2,90.8-0.1,136.2-0.1c-0.1,13.1-0.8,26.1-0.9,39.2c-26.5-0.3-53-0.3-79.6-0.7
	c0,8.5,0,17.1,0,25.7c26.2,0.8,52.4,1.2,78.5,2.1c-0.2,36-1.9,71.9-2.4,107.9c-5.9,0.5-11.8-0.9-17.7-1.2c-32.3-3.2-64.7-5-97.1-6.6
	c0-12.7,0-25.5,0.1-38.2c19.8,0.7,39.6,1.2,59.4,2.5c5.6,0.2,11.2,1.1,16.8,0.9c-0.2-8.6-0.1-17.2,0-25.8c-25.3-1.3-50.7-2.3-76-2.8
	c-0.4-23.2,0-46.5-0.2-69.7c-0.3-3.4,1-7.3-1.4-10.1C613.2,706.6,607.3,699.3,602.7,691.3 M610.3,695.2c3.8,7,9,13,13,19.8
	c0.8,3,0.2,6.3,0.4,9.5c0.1,21.9-0.2,43.9,0.1,65.8c25.4,0.6,50.8,1.3,76.1,3.1c0.1,11.3,0,22.6-0.1,33.9c-25.3-1.9-50.7-3.1-76-3.8
	c0,10.2-0.5,20.4,0.4,30.5c35.5,1.1,71,4.1,106.4,7.3c0.7-33.3,1.8-66.6,2.5-99.9c-26.2-0.8-52.5-1.3-78.7-2.1c0-11.2,0-22.4,0-33.6
	c26.5,0.3,53.1,0.5,79.7,0.7c0.5-10.4,0.6-20.7,0.9-31.1c-15.6-0.3-31.2,0-46.8-0.1C662.1,695.2,636.2,695,610.3,695.2z"/>
<path class="st1" d="M747,691.3c45.1-0.1,90.2-0.1,135.4,0c-0.6,13.7-1.4,27.4-1.8,41.1c-12.9-0.2-25.8-0.5-38.8-0.6
	c-2.3,48.9-4,97.8-6.8,146.6c-13.3-1.9-26.5-3.9-39.9-5.5c2.2-47.3,4.5-94.6,6.4-141.9c-9.3-0.1-18.5-0.2-27.8-0.3
	C765.3,717.3,756.5,704,747,691.3 M755.3,695.2c2.1,4.1,5.2,7.6,7.7,11.4c4.6,6.6,8.7,13.4,13.1,20.1c9.9,0,19.8,0.3,29.7,0.2
	c-1.8,47.5-4.4,95-6.2,142.4c10.7,1,21.2,3.2,31.9,4c2.5-48.6,4.3-97.2,6.7-145.8c12.9,0.2,25.7,0.5,38.6,0.7c0.5-11,1-22,1.5-33.1
	C837.2,695.1,796.2,695,755.3,695.2z"/>
<path class="st2" d="M57.7,695.3c29.4-0.3,58.9-0.1,88.3-0.1c6.2,0.2,12.6-0.5,18.7,0.4c4.2,5.7,7.7,11.8,11.4,17.8
	c1.4,2.6,3.6,5,3.3,8.1c-0.3,44.7-0.5,89.4-0.8,134.1c0.2,3.9-2.7,7-4.3,10.3c-3.9,6.4-7.1,13.4-11.8,19.2
	c-30.7,5.5-61.2,11.9-91.6,18.8C71,843,71.2,782.2,71.3,721.5c0-1.3-0.2-2.4-0.8-3.5C66.7,710.2,61.9,702.9,57.7,695.3 M102.1,731
	c-0.8,4.1-0.3,8.3-0.4,12.5c-0.2,39.4-0.2,78.7-0.5,118.1c15.8-2.8,31.7-5.3,47.4-8.3c0-41.2,0.8-82.4,0.5-123.6
	C133.5,730,117.8,730.8,102.1,731z"/>
<path class="st2" d="M193.9,695.3c14.5-0.3,29-0.2,43.5-0.1c0.1,25.5-0.2,50.9-0.4,76.4c15.9-0.8,31.7-1.5,47.6-2.4
	c0.1-24.7,0.1-49.3,0.4-74c10-0.2,20.1-0.2,30.1,0c-0.1,35.7-0.2,71.4-0.3,107.1c-13,1.1-25.9,2.1-38.9,3.3
	c-0.6,19.6-0.2,39.3-0.5,58.9c-0.1,1.1-0.2,2.3-0.4,3.4c-10,0.9-19.9,2.6-29.8,3.7c-0.1-21,0.4-42,0.2-63c-12.9,1.1-25.8,2.8-38.8,4
	c0-31.1,0.3-62.2,0.6-93.3c0.2-3.3-2-5.9-3.6-8.5C200.5,705.6,197,700.5,193.9,695.3z"/>
<path class="st2" d="M332.7,695.3c9.4-0.3,18.9-0.1,28.3-0.1c1.5-0.2,2.3,1.3,3.1,2.3c17.8,25.9,35.3,51.9,53,77.9
	c3.2,4.4,5.9,9.2,9.5,13.3c0.1-31.1-0.1-62.3,0.2-93.4c10.2-0.2,20.3-0.1,30.5,0c0.2,51.5,0,102.9,0,154.3c-0.1,1.2-0.2,2.4-0.3,3.6
	c-5,0.1-10,0.5-15,0.5c-1.2,0-2.1-0.5-2.7-1.5c-20.3-27.5-39.6-55.8-58.6-84.3c-1.2-1.9-2.6-3.9-4.2-5.5
	c-0.1,31.7,0.2,63.5-0.1,95.2c-10.2,0.8-20.3,1.8-30.5,2.4c-0.2-47.8,0.3-95.6,0.1-143.4C342.1,709.2,336.8,702.6,332.7,695.3z"/>
<path class="st2" d="M490.3,695.3c12-0.4,24.1,0,36.1-0.2c3.6,9.8,6.2,19.9,10,29.5c0.6-4.4,0.9-9,2.1-13.3c0.7,4.1,0,8.7,2.1,12.5
	c3.3-9.5,6.2-19.1,9.4-28.6c6,0,11.9-0.3,17.9,0c1.8-0.2,1.7,2,2.1,3.2c11.1,51.5,22.2,103,33.1,154.5c-11.1-0.3-22.3-0.4-33.4-0.9
	c-3.8-16.8-7.4-33.5-11.1-50.3c-0.2-0.3-0.7-1-0.9-1.3c-7.9-0.6-15.9-0.2-23.8-0.3c-8.6,0.1-17.2-0.3-25.7,0.4
	c-3.9,17.2-7.1,34.6-11.5,51.7c-7.4,0-14.9,0.3-22.3,0.4c0.3-1.9,0.7-3.8,1.1-5.6c9.6-42.7,18.2-85.6,27.7-128.4
	c0.2-1.4,0.8-3-0.2-4.2C499.1,707.8,494.2,701.9,490.3,695.3 M524.8,725c-3.7,14.6-6.6,29.4-9.7,44.2c12.3,0,24.5-0.1,36.8,0.1
	c-3.2-14.8-6.1-29.6-9.7-44.2C536.4,725,530.6,725,524.8,725z"/>
<path class="st2" d="M610.3,695.2c25.9-0.3,51.8,0,77.8-0.1c15.6,0.1,31.2-0.2,46.8,0.1c-0.3,10.4-0.4,20.7-0.9,31.1
	c-26.5-0.2-53.1-0.4-79.7-0.7c0,11.2,0,22.4,0,33.6c26.2,0.7,52.5,1.3,78.7,2.1c-0.7,33.3-1.8,66.6-2.5,99.9
	c-35.4-3.3-70.8-6.3-106.4-7.3c-0.9-10.1-0.4-20.3-0.4-30.5c25.4,0.7,50.7,1.9,76,3.8c0.1-11.3,0.2-22.6,0.1-33.9
	c-25.3-1.7-50.7-2.5-76.1-3.1c-0.3-21.9,0-43.9-0.1-65.8c-0.2-3.2,0.4-6.4-0.4-9.5C619.3,708.2,614.1,702.2,610.3,695.2z"/>
<path class="st2" d="M755.3,695.2c41-0.2,82-0.2,123,0c-0.4,11-1,22-1.5,33.1c-12.9-0.2-25.7-0.5-38.6-0.7
	c-2.4,48.6-4.2,97.2-6.7,145.8c-10.7-0.9-21.2-3.1-31.9-4c1.8-47.5,4.4-95,6.2-142.4c-9.9,0.1-19.8-0.2-29.7-0.2
	c-4.5-6.6-8.5-13.5-13.1-20.1C760.4,702.8,757.4,699.3,755.3,695.2z"/>
<path class="st2" d="M908.3,695.3c9.3-0.3,18.7-0.2,28.1-0.1c-0.8,27.8-1.5,55.5-2.2,83.3c15.2,1.4,30.5,2.6,45.7,3.9
	c0.4-29.1,0.6-58.2,1.2-87.2c9.6,0.1,19.4-0.8,29,0.7c3-0.1,6.1-0.5,9.2-0.6c-3.5,6.8-8.1,13.2-10.8,20.3
	c-0.3,39.3,0.1,78.7-0.2,118c-12.5-1.8-24.8-4.3-37.3-5.8c-0.5,23.6-0.6,47.2-1.1,70.8c-10-1.8-19.9-4-29.8-6.1
	c0.5-23,1.3-46.1,1.7-69.1c-12.6-2-25.2-3.7-37.8-5.2c0.3-23.6,1.6-47.2,2.3-70.8C906.7,730.1,907.2,712.7,908.3,695.3z"/>
<path class="st1" d="M524.8,725c5.8,0,11.6,0,17.3,0c3.6,14.7,6.5,29.5,9.7,44.2c-12.3-0.1-24.5-0.1-36.8-0.1
	C518.2,754.4,521.1,739.6,524.8,725 M527.8,729c-2.6,12-5.3,24.1-7.7,36.1c8.9,0,17.9,0,26.8,0c-2.5-12.1-5.2-24.1-7.7-36.1
	C535.4,729,531.6,729,527.8,729z"/>
<path class="st1" d="M102.1,731c15.7-0.2,31.4-1,47.1-1.3c0.3,41.2-0.5,82.4-0.5,123.6c-15.8,3-31.6,5.5-47.4,8.3
	c0.3-39.3,0.3-78.7,0.5-118.1C101.8,739.3,101.2,735.1,102.1,731 M105.6,735.2c0,40.5-0.2,81-0.3,121.5c13.1-2,26.2-4.6,39.3-6.6
	c0.1-38.7,0.8-77.4,0.7-116.2C132.1,734.1,118.8,734.3,105.6,735.2z"/>
<path class="st0" d="M527.8,729c3.8,0,7.6-0.1,11.4,0c2.5,12,5.2,24,7.7,36.1c-8.9,0-17.9,0-26.8,0
	C522.5,753.1,525.2,741.1,527.8,729z"/>
<path class="st0" d="M105.6,735.2c13.2-0.9,26.5-1.1,39.7-1.3c0,38.7-0.6,77.4-0.7,116.2c-13.1,2-26.2,4.6-39.3,6.6
	C105.4,816.2,105.6,775.7,105.6,735.2z"/>
</svg>
