<?xml version="1.0" encoding="utf-8"?>
<!-- Generator: Adobe Illustrator 21.1.0, SVG Export Plug-In . SVG Version: 6.00 Build 0)  -->
<svg version="1.1" id="Layer_1" xmlns="http://www.w3.org/2000/svg" xmlns:xlink="http://www.w3.org/1999/xlink" x="0px" y="0px"
	 viewBox="0 0 141.7 141.7" style="enable-background:new 0 0 141.7 141.7;" xml:space="preserve">
<style type="text/css">
	.st0{fill:#F7890F;}
</style>
<g>
	<g>
		<path class="st0" d="M68.7,0h0.1c0.3,2.4-0.1,5,1,7.3c2.3,5,7.3,8,12.2,10c0.5,0.1,1.2,0.6,1.5,0c1-1.9,2.2-4,4.2-5
			c-0.1,1.7-0.5,3.5,0.4,5c1-1.4,1.4-3.2,3-4.1c0.4,1.9-0.2,3.9,0.2,5.8c0.6,3.7,3.7,6.4,7.1,7.6c2.9,1,4.8,3.5,6.2,6.1
			c2.6-1.8,1.6-5.2,1.8-7.8c3.3,1.9,6.1,5.1,6.2,9.1c0.2,3.4-1,6.8-0.6,10.2c0.3,3.3,2.8,6,5.8,7.2c-0.3-1.8,0-3.9,1.7-4.9
			c0,1.5,0,3.1,0.9,4.4c2.5,4.2,5.1,8.4,7.6,12.7c1.5,2.7,2.2,6,1.2,8.9c-0.8,2.4-2.9,4.3-3.5,6.8c1.8,2.5,6.4,2.7,8-0.2
			c0.7,2.3-1,4.2-2.7,5.5c-2.1,1.9-1.6,4.9-2.1,7.4c-0.2,2.2-1.6,3.9-2.4,5.8c2.5,0.5,4.3-1.5,4.5-3.8c2.7,3.9,1.4,9.7-2.8,11.9
			c-3.2,2.4-7.9,3.3-10,7c-1.2,3.6-1.5,7.4-2.8,10.9c-1.7,3.9-6.3,5.5-10.2,5.9c-1.8,0.4-3.9,0.3-5.6,1.1c2.6,2.8,6.6,2.3,9.9,1.5
			c0,2.6-3.7,3.8-5.9,4.4c-4.4,1.8-8.9-0.1-13.3-0.6c-1.6,0.4-1.9,2.6-3.5,3.3c-1.6-0.3-2.5-2.2-4.1-2.3c-1.3,0.1-2,1.5-3,2.3
			c-1.6,1.4-3.7,2-5.7,2.3c-2.8,0-5-1.8-7.4-3c-3.1-1.4-6.6-0.5-9.8,0.2c-5.7,0.8-12.2,0.7-16.4-3.8c-2.1-2-2.6-5.1-4.6-7.2
			c-2.3-1.8-5,0.5-7.3,0.9c-4.1,0.6-8.5-1.7-10.6-5.3c1.7-0.1,3.5,0.2,5.2,0c0.9-0.9-1.1-1.3-1.7-1.7c-2.6-1.5-6.9-2.9-6.3-6.7
			c0.4-6.4-0.8-12.8-2.8-18.9c-1.2-3.6-3.7-6.7-4.3-10.5c-0.3-2.8-0.1-6,1.4-8.5c0.3,2.4,3.8,1.2,4.3-0.5c2.6-8.7-3.4-17.7,0-26.3
			c1.5-3.2,3.9-6.1,6.9-7.9c-1.1,1.2-0.2,4.4,1.6,2.9c1.8-3.5,4.2-6.7,7.5-8.9c-0.3,2.9,3.6,2.8,5.2,1.5c3.7-3.2,5.4-8.2,5.2-13
			c-0.2-7.5,3-14.7,7.3-20.7c0.7,4,0.6,8.3,2.8,11.8c0.6-1.2,0.7-2.6,1.7-3.5c0.7,1.9-0.2,4.2,1,6c2.3,3.7,8.8,4.1,11.4,0.5
			c1.8-2.9-0.9-5.9-1-8.8C62.9,5.9,65.7,2.5,68.7,0z M33,51.8C24.7,61.1,20.2,73.6,20.8,86c0.2,8.8,3.2,17.5,8.1,24.8
			c1.4-1.6,2.6-3.4,3.3-5.4c0.8-2.4-0.7-5.2-3.2-5.6c-1.8-0.7-4.6-0.7-5.1-3c3.7,0.7,8,0,10.2-3.4c2.7-4.3,5-8.9,6.6-13.7
			c0.4-1.3,0.7-3-0.2-4.1c-0.9-1-2.6-0.5-3.3,0.5c-0.9,1-0.4,2.5-0.9,3.7c-2.5-2.1-2.9-6.6-0.3-8.8c2.6-2.3,6.4-2,9.3-3.7
			c3.2-1.6,4.7-4.9,7.3-7.2c1.3-1,2-2.8,1.4-4.4c-0.6-1-1.9-0.7-2.7-1.4c1-1.2,2.6-1.7,4.1-1.7c4.2,0.1,7.9-2.2,11.8-3.6
			c1.3-0.4,2.8-1.4,2.8-2.9c-0.3-0.3-1.4-0.8-0.6-1.2c2.3-0.2,4.2,2,6.5,1.5c1,0,2.2-0.8,1.7-1.9c-0.3-1.2,1.2-0.2,1.6,0.1
			c4.7,2.7,10.6,1.5,15.5,3.7c1.6,0.6-0.3-2.1,1.1-1.4c4.4,3.7,10.8,7.5,10.4,14.2c-0.4,1.5,1.3,1.8,2.2,2.3
			c4.1,2.2,8.1,5.6,9.3,10.3c1,4.9-1.5,9.7-4.8,13.2c-0.6-1.9,0.4-5-1.9-6.3c-3.3,2-7.3,3-11,1.9c-3.6-0.9-7.9-2.1-10.7,1.1
			c-0.2-0.9,0-2.4-1.1-2.6c-1.7,0.9-1.7,3.2-1.5,4.9c-1.1-1.4-3.5-0.5-2.1,1.2c3.6,2.4,8.2,3.2,11.4,6.2c0.4,0.5,0.2,1,0,1.5
			c-1.2-1.3-4.9-2.2-4.8,0.5c2.1,2.8,5.6,4.5,7.6,7.5c1.5,2.1,2.2,4.5,2.9,6.9c-1.4-0.2-1.9-2.5-3.4-2.8c-1.4,0-2.4,1.5-2.1,2.9
			c0.8,4.4,3.6,8.4,3.2,13c13.3-9.6,21.4-26.5,19.6-43c-0.7-9.9-4.6-19.6-11.1-27.1c-7.1-8.2-16.7-14.6-27.5-16.7
			C63.1,32.9,44.3,38.5,33,51.8z M71.5,49.9c-4.4,2.3-9,4.8-12.2,8.7c5.4-1.6,11.1-1.2,16.7-1.8c1.9-0.2,3.5-1.4,4.4-3
			c0.2-0.4,0.9-1.3,1.2-0.5c-0.1,2.2,0.6,4.6,2.7,5.6c4.3,2.5,9.7,4.2,14.5,2.4c-0.1,2.2-3.4,2.5-5.2,2.1c-1.9-0.7-3.7,0.3-5.1,1.6
			c-2.8,1.6-6.9,1.3-9.2-1.1c-1.3-1.8-2.8-3.5-5.1-3.9c-6.5-1.8-14.3-1.3-19.6,3.4c-5.6,5.3-8.9,12.4-11.8,19.3
			c-3.6,7.6-5.2,16-7.7,24c-1.3,3.9-0.8,8.5,1.6,11.9c2.6,3.7,6.3,6.4,10.2,8.5c9.3,4.9,20.3,6.8,30.7,4.9c2.3-0.2,4.6-0.8,6.4-2.3
			c8.6-5.7,11.6-17.8,7.8-27.1c-2.7-5.2-7.4-9-10.6-13.8c-0.9-1.3-1.4-3-0.8-4.6c1-2.2,2.9-3.7,4.5-5.5c-2.7-0.8-6-2.1-8.5-0.3
			c-2.7,2.2-3.7,5.9-3.5,9.2c-1.4-0.7-1.6-2.6-1.7-4.1c0.1-3.9,2-8.2,5.8-9.8c5.3-2.9,12.7-1,16.8-6.1c1.5-2.8,4.9-3.3,7.5-4.6
			c1.5-0.7,2-2.6,1.6-4.1c-1-4-4.4-7.1-8.2-8.4C87.3,48.1,78.8,46.4,71.5,49.9z M80.9,61.3c0.2,3,4.9,4.5,6.3,1.5
			c-0.7-0.5-1.4-0.8-2.1-1.2c-0.1,0.8-0.4,2.1-1.5,1.8c-1.3-0.2-0.9-1.7-1-2.6C82,60.8,81,60.6,80.9,61.3z M96.2,67.6
			c-3.1,3-6.5,6.3-11.1,6.5c4,1.4,8.6-1.2,12.7,0.3c2,0.7,3,3.1,5.3,3.4c2.5,0.2,5.1-0.3,7.6,0c1.9,0.3,2.7,2.4,4,3.6
			c1.8-5.3-1-11.2-5.8-13.8C105.2,65.3,99.6,64.2,96.2,67.6z M82.8,75.7c4.3,1.8,9.3,0.5,13.5,2.7c3,1.5,6.8,2.6,10,1.2
			c-1.8-0.1-3.7,0.3-5.3-0.7c-1.8-1.1-3.3-2.9-5.5-3.3c-4-0.7-8.2,0.6-12.2-0.5C82.8,74.9,82.2,75.4,82.8,75.7z"/>
	</g>
</g>
</svg>
