<?xml version="1.0" encoding="utf-8"?>
<!-- Generator: Adobe Illustrator 21.0.0, SVG Export Plug-In . SVG Version: 6.00 Build 0)  -->
<svg version="1.1" id="Layer_1" xmlns="http://www.w3.org/2000/svg" xmlns:xlink="http://www.w3.org/1999/xlink" x="0px" y="0px"
	 viewBox="0 0 648.4 996.5" style="enable-background:new 0 0 648.4 996.5;" xml:space="preserve">
<style type="text/css">
	.st0{fill:url(#SVGID_1_);}
</style>
<linearGradient id="SVGID_1_" gradientUnits="userSpaceOnUse" x1="6.5616" y1="907.4073" x2="641.8948" y2="272.0741" gradientTransform="matrix(1 0 0 -1 0 1013.5823)">
	<stop  offset="0" style="stop-color:#8A7339"/>
	<stop  offset="1" style="stop-color:#E2C678"/>
</linearGradient>
<path class="st0" d="M315,1c11.3-2.5,23.5-0.2,33.3,6.1c10.9,7,18.8,18.7,20.4,31.6c3,18.1-6.8,37-22.8,45.8
	c41.3,52,82.4,104.3,123.8,156.3c33-26.9,66-53.8,98.8-80.9c-8.2-10-12-23.6-9.6-36.4c2.1-12.6,10-24,20.9-30.7
	c10.6-6.6,24-8.4,35.9-4.9c12.9,3.6,23.9,13.3,29.1,25.6c5.9,13.4,4.5,29.6-3.4,41.9c-8,12.9-22.9,21.2-38.1,20.9
	c0,201.2,0,402.3,0.3,603.5c-12.8,10.5-26.2,20.3-39.1,30.6c-20.8-19.3-41.2-39.2-61.8-58.6c-54.3-51.7-108.6-103.4-162.9-155
	c69.4-56.9,139-113.7,208.5-170.6c0-59.6,0-119.2,0-178.8c-28.8,23.1-57.1,46.7-85.8,70c-61.8,50.7-123.8,101.4-185.8,152.1
	c-7.5,6.1-14.9,12.4-22.6,18.3c0-38.1,0.1-76.3,0-114.4c-34.9-28.5-69.7-57.1-104.5-85.6c-16.6-13.4-32.9-27.3-49.7-40.4
	c0,168.6,0,337.3,0.1,505.9c51.3,39.7,102.6,79.5,153.9,119.1c0.1-57.6,0.1-115.2,0.1-172.8c68,64.4,135.7,129,203.6,193.4
	c-44.3,34.7-89,68.8-133.3,103.5c-36.9-28.2-73.4-56.9-110.2-85.2C158.3,868,102.5,824.8,46.7,781.6c-0.5-0.4-1.4-1.2-1.9-1.7
	c0.3-201.2,0.1-402.5,0.4-603.7c-11.4,0.3-22.6-4.4-31-12c-9.1-8.6-14.5-21-14.2-33.5c0-12.9,6.1-25.5,16-33.7
	c14-12.4,35.9-14,51.8-4.4c11.5,6.7,19.8,18.8,21.6,32c1.7,11.1-0.9,22.9-7.4,32.2c-0.7,1.2-2.1,2.3-1.9,3.9c1.6,0.9,3,2.1,4.4,3.3
	c31.2,25.5,62.4,51,93.6,76.5c2,0,2.7-2.5,3.9-3.6c40.2-50.8,80.2-101.7,120.6-152.3c-11.2-6.3-19.8-17.4-22.3-30.1
	c-2.5-11.1-0.3-23,5.6-32.7C292.2,11.2,303,3.4,315,1z"/>
</svg>
