<?xml version="1.0" encoding="utf-8"?>
<!-- Generator: Adobe Illustrator 21.0.0, SVG Export Plug-In . SVG Version: 6.00 Build 0)  -->
<svg version="1.1" id="Ebene_1" xmlns="http://www.w3.org/2000/svg" xmlns:xlink="http://www.w3.org/1999/xlink" x="0px" y="0px"
	 viewBox="0 0 187.4 209.5" style="enable-background:new 0 0 187.4 209.5;" xml:space="preserve">
<style type="text/css">
	.st0{fill:#FFD400;}
</style>
<g>
	<polygon class="st0" points="121.2,99.2 99.2,99.2 99.2,121.3 99.2,143.3 121.2,143.3 121.2,121.3 132.3,121.3 132.3,154.3 
		88.2,154.3 88.2,132.3 66.1,132.3 66.1,176.4 77.1,176.4 88.2,176.4 154.3,176.4 154.3,99.2 132.3,99.2 	"/>
	<polygon class="st0" points="55.1,121.3 60.6,121.3 85.4,121.3 88.2,121.3 88.2,99.2 85.4,99.2 60.6,99.2 55.1,99.2 55.1,55.1 
		154.3,55.1 154.3,33.1 154.3,33.1 55.1,33.1 52.3,33.1 33.1,33.1 33.1,176.4 55.1,176.4 	"/>
	<polygon class="st0" points="66.1,88.2 88.2,88.2 132.3,88.2 154.3,88.2 154.3,66.1 66.1,66.1 	"/>
	<path class="st0" d="M0,0v209.5h187.4V0H0z M165.3,187.4H22V22h143.3V187.4z"/>
</g>
</svg>
