<?xml version="1.0" encoding="utf-8"?>
<!-- Generator: Adobe Illustrator 21.0.0, SVG Export Plug-In . SVG Version: 6.00 Build 0)  -->
<svg version="1.1" id="Layer_1" xmlns="http://www.w3.org/2000/svg" xmlns:xlink="http://www.w3.org/1999/xlink" x="0px" y="0px"
	 viewBox="0 0 376 225.5" style="enable-background:new 0 0 376 225.5;" xml:space="preserve">
<style type="text/css">
	.st0{fill:#F62131;stroke:#F62131;stroke-width:9.375000e-02;}
</style>
<path class="st0" d="M18.9,0.2C125-0.1,231,0.1,337,0.1c11.1-0.1,22.8,2.6,31,10.4c5.8,5.3,8.4,13.3,7.9,21c0.5,8.7-2.8,17-5.7,25
	c-16.6,47.4-33.1,94.8-49.9,142.1c-2.4,7.2-5.8,14.4-11.7,19.4c-4.2,4.1-9.9,5.6-15.3,7.4H151.1c5.1-14.1,9.8-28.3,14.6-42.4
	c1.3-3.4,1.7-7.1,3.7-10.2c3.5-0.5,7.1-0.2,10.6-0.2c22.7,0,45.3,0,68,0c6.3,0,12.8-0.9,18.3-4.1c4.9-3.3,6.9-9.2,8.4-14.6
	c10.2-29.1,20.5-58.3,30.5-87.5c1.3-3.3,1.9-7.6-0.8-10.4c-3.3-3-8.1-3.4-12.4-3.4c-30,0.1-59.9,0-89.9,0.1
	c-3.5,8.2-5.6,16.8-8.8,25.1c-1.3,3.4-2.5,6.8-3.4,10.3c11.7,0.3,23.3-0.3,35,0.3c-2.9,11-7.2,21.6-10.6,32.4
	c-2.3,6.7-4,13.6-6.7,20.1c-11.9-0.1-23.9-0.2-35.8,0c-3.4,6.9-5,14.5-7.8,21.7c-7.6,20.8-14.2,42-22,62.8H81
	c7.7-22.2,15.6-44.4,23.4-66.6c1.8-6,4.8-11.8,5.7-18.1c-21-0.1-42,0.2-63-0.1c2.9-10.9,7.7-21.1,11.2-31.8c2.7-6.8,4.6-14,7.7-20.7
	c21.2-0.2,42.3,0.1,63.5-0.2c4.1-11.8,8.1-23.6,12.3-35.4c-45.3,0-90.5,0-135.8,0c-2,0-4-0.2-6-0.3c1.9-7.1,4.8-13.7,7.3-20.6
	C11.4,21.3,14.6,10.5,18.9,0.2z"/>
</svg>
