<?xml version="1.0" encoding="utf-8"?>
<!-- Generator: Adobe Illustrator 20.0.0, SVG Export Plug-In . SVG Version: 6.00 Build 0)  -->
<svg version="1.1" id="Layer_1" xmlns="http://www.w3.org/2000/svg" xmlns:xlink="http://www.w3.org/1999/xlink" x="0px" y="0px"
	 viewBox="0 0 1000 1000" style="enable-background:new 0 0 1000 1000;" xml:space="preserve">
<style type="text/css">
	.st0{fill:#FFFFFF;}
	.st1{fill:none;}
	.st2{fill:#D2E0F2;}
	.st3{fill:#658DC8;}
	.st4{fill:#1E4696;}
	.st5{fill:#2B98CD;}
	.st6{fill:#D7DC26;}
	.st7{fill:#166080;}
	.st8{fill:#A1A1A1;}
	.st9{fill:#DAF0FC;}
</style>
<g>
	<path class="st0" d="M995.7,861.3l-2.7-22.6l-0.1-0.8l-0.5-3.9l-0.5-4.2l-2.3-3.6l-2-3.3c-10.2-16.4-20.6-32.9-30.9-49l13-3.2
		l-1.9-16.9l-1.8-15.3l-12.3-107.1l-1.6-13.5l-1.7-14.9l-12.4-1.7c-8.7-35.4-25.8-83.6-59.6-132.1c-35.6-51.2-82.5-91.9-139.4-121.1
		c-0.4-0.2-0.8-0.4-1.2-0.6c-6.8-11.2-20.5-28.7-44.6-40.3c-1-9.2-1.9-18.4-2.6-26.1c12.3,1,26.7,2.6,33.4,3.4l77.1,9.1l-63.9-44.1
		c-9.9-6.8-32-11.8-48.7-14.7c-0.7-4.9-1.7-10.3-2.9-15.6c1.6-1.9,3.3-4,5.1-6.3c5-6.4,12-16,16.6-23.9c9.3-15.6,5.7-35.6,1-49.6
		c-4.1-12.4-11.8-28.1-21.4-35.6C684,101.2,672.5,93,655.4,93c-3.5,0-6.9,0.3-10.3,1c-4.4-7.7-10.9-16.7-20.5-25.6
		c-13.2-12.3-29.5-22-48.5-28.9C553.4,31.2,526.5,27,496.4,27c-93.9,0-132.3,39.3-147.3,64.8c-3-0.7-6.3-1.1-9.8-1.1
		c-5.1,0-10.2,0.9-14.9,2.7c-12.7,4.7-24.4,15.6-32,29.8c-8.1,15.1-11.3,32.5-9,50.3c0,0.4,0.1,0.7,0.1,1.1
		c0.4,3.5,1.1,9.4,4.7,15.2c3.4,5.5,9.6,13.9,20.4,24.6c-1.1,5.6-2.3,12.3-3.2,18.7c-15,1.2-37.1,4.4-57.5,13.2l-111.1,47.4
		l120.3-10.5c9-0.8,29.5-2.5,44.9-3.3c-0.2,9.9-0.5,19.3-1,25.4c-10.1,5.6-23.7,15.3-35.4,28.5c-10.7,4.4-20.9,9.2-30.4,14
		C178.2,377.1,131.3,417.8,95.7,469c-34,48.9-51.2,97.3-59.8,132.9L28,603l-14.7,2l-1.8,14.8l-1.6,13.4
		c-1.6,13.6,3.6,23.2,12.4,34.4l0,0.2l-1.8,15.8c-4.9,42.7-10.3,86.2-15.6,128.3l0,0.1l-0.5,4.3l-1.2,9.5l-1.3,10.5l8.1,6.7l7.4,6.1
		c8.3,6.9,12.4,10.3,20.8,17.2l5.8,4.8l6.4,5.3l8.3-1l7.5-1c36-4.6,72.5-8.7,108.5-12.3l5.5-0.5l0.3,0l0.3,0
		c7-0.9,14.4-1.8,21.1-2.7l-0.5,7.2l5.1,5.9l1.3,1.5l0,0.3c-1.2,18.2-2.5,37-3.7,55.6l0,0.2l0,0.2l-1.2,20l-1.3,22l22-1.6l20-1.5
		c18.1-1.3,36.5-2.5,54.6-3.5l8.8-0.5l5-0.3c16.2-0.9,32.8-1.6,49.6-2.2l5.8-0.2l18.5-0.6c11.2-0.3,16.6-0.5,27.8-0.7l16.7-0.4
		l31.6-0.4l6.4,0c9.1-0.1,15.2-0.1,21.3-0.1c6.3,0,12.8,0,22.3,0.1l6.1,0l6.8,0l0.1-0.1l8.6,0.1c11.2,0.1,16.6,0.2,27.8,0.5
		l14.4,0.3l0.1,0l2,0.1l1.8,0c8.8,0.2,13.1,0.4,21.9,0.7l15.9,0.5l16,0.7c11.3,0.5,16.8,0.7,28.2,1.3L677,965l15.5,0.9
		c20.3,1.2,40.9,2.7,61.2,4.3l20.2,1.6l22.2,1.7l-1.5-22.2l-1.3-20.2l-1.1-17l-1.4-20.7l0-0.1l0,0l-1.3-20.2l-0.7-10.6l-0.1-2.1
		c20.9,1.9,42,4.1,62.8,6.4l21.2,2.4l16.9,2.1l7.3,0.9c18.1,2.2,36.4,4.7,54.4,7.3l22.6,3.2l24.8,3.6L995.7,861.3z"/>
	<path d="M954,860.3l22.6,3.2l-2.7-22.6l-0.1-0.8l-0.5-3.9l-2-3.3c-12.9-20.8-26.3-41.8-39.2-62c-2-3.1-4-6.3-6-9.4
		c2.2-0.6,4.8-1.2,7.6-1.9l15-3.7l-1.8-15.3l-12.3-107.1l-1.6-13.5l-10.9-1.5c-6.5-31.7-22.3-84.9-59.6-138.4
		c-33.8-48.5-78.3-87.2-132.4-114.9c-2.1-1.1-4.2-2-6.3-3.1c-4.8-9.4-18.5-31-48.7-41.6c0,0-6.2-54.6-4.9-59.5
		c0.9-0.1,2.1-0.2,3.6-0.2c14,0,52.3,4.5,52.3,4.5c-10.9-7.6-55.2-13.9-55.2-13.9s-2.2-25.5-7.4-38.2c0.1,0.1,0.1,0.1,0.2,0.1
		c2.5,0,19.2-21.6,26.8-34.2c9.9-16.6-6.4-53.1-15.8-60.3c0,0-7.7-6.4-19.5-6.4c-5.9,0-12.9,1.6-20.5,6.4c0,0-16.3-72.4-138.5-72.4
		s-137.5,70.9-137.5,70.9s-8.7-7.2-19.6-7.2c-2.6,0-5.4,0.4-8.2,1.5c-16.1,6-32.4,29.8-28.7,59.7c0.4,3,0.5,6,2.1,8.6
		c3.2,5.2,10.3,14.8,25.1,28.1c0,0-7.2,33.5-6.6,44c0,0-0.7,0-2,0c-8.1,0-38.7,0.8-65.6,12.3c0,0,46-4,61.4-4c2.2,0,3.8,0.1,4.5,0.3
		c0,0,0.4,57.5-3.7,58.2c-0.9,0.2-23.2,9.9-40.4,31.3c-11.5,4.6-22.6,9.6-33.3,15.1c-54,27.7-98.6,66.4-132.4,114.9
		c-37.6,54-53.3,107.5-59.7,139.1c-2.6,0.3-5.1,0.7-7.7,1L30.7,622l-1.6,13.4c-0.9,7.6,1.8,12.5,13.3,26.2l-0.9,8.2l-1.8,15.8
		c-4.9,42.9-10.4,86.4-15.6,128.6l-0.5,4.3l-1.2,9.5l7.4,6.1c8.2,6.8,12.4,10.3,20.7,17.2l5.8,4.8l7.5-1c36.1-4.6,72.8-8.7,109-12.3
		l5.5-0.5c0,0,41.6-5.3,44.2-5.5l-1,15.2l0,0.3l-0.5,7.1l4.6,5.4c0.6,0.7,1.2,1.4,1.8,2.1l-0.5,7.6c-1.3,18.4-2.6,37.4-3.8,56.1
		l0,0.2l0,0.2l-1.2,20l20-1.5c18.2-1.3,36.7-2.5,55-3.6l8.8-0.5l5.1-0.3c18.5-1,37.3-1.8,55.8-2.5l0,0.1l18.5-0.6
		c11.2-0.3,16.7-0.5,28-0.7l16.8-0.4l31.8-0.4l6.4,0c9.1-0.1,15.3-0.1,21.4-0.1c6.4,0,12.9,0,22.4,0.1l6.1,0l0.2-0.1l15.5,0.2
		c11.2,0.1,16.7,0.2,27.9,0.5l16.4,0.3l0.2,0l1.8,0c8.9,0.2,13.2,0.4,22,0.7l16,0.5l16.1,0.7c11.4,0.5,16.9,0.7,28.3,1.3l15.6,0.8
		l15.6,0.9c20.4,1.2,41.2,2.7,61.6,4.3l20.2,1.6l-1.3-20.2l-1.1-17l-1.4-20.7c0,0,0-0.1,0-0.1l0,0l-1.3-20.2l-0.7-10.6l-0.7-10.9
		l-0.9-13.9l1.3,0.1l0,0.1l14.8,1.3c23.1,2.1,46.5,4.4,69.6,7l21.4,2.4l17,2.1l7.3,0.9C917.5,855.3,935.9,857.7,954,860.3z"/>
	<path class="st1" d="M316.5,333.6c-3.7,1-9.1,3.8-14.8,7.3c4.8-1.6,9.6-3.1,14.4-4.6C316.3,334.6,316.5,333.6,316.5,333.6z"/>
	<path class="st1" d="M719.7,359.9c-16.1-14.7-40.2-24.2-40.2-24.2c0.5,2.7,1.1,5.4,1.7,8.2C694.5,348.7,707.4,354,719.7,359.9z"/>
	<path class="st0" d="M738.9,405.5c-14.2-8.5-29.9-16.4-47-23.4c1.7,5.3,3.5,10.6,5.4,16C714,414.7,728.2,412.8,738.9,405.5z"/>
	<path class="st0" d="M292.1,378.3c0,0,4.1,8.1,10.7,17.1c4.1-10.8,6-18.9,7.2-23.5c-28.4,9.4-53.1,20.8-74.7,33.7
		C249,415,268.7,415.4,292.1,378.3z"/>
	<path class="st2" d="M213.8,450.2c0,0,14.9,34.1,39.1,32.6c4.6-7.9,10.9-18,20-31.3c15.4-22.6,24.5-41.8,29.9-56.2
		c-6.6-8.9-10.7-17.1-10.7-17.1c-23.3,37.1-43,36.7-56.9,27.2c-35.8,21.3-63,46.5-83.5,71.9C156.7,489.2,171.4,497,213.8,450.2z"/>
	<path class="st2" d="M760.3,450.2c42.4,46.8,57.1,39,62.1,27.2c-20.5-25.5-47.7-50.6-83.5-71.9c-10.7,7.3-24.9,9.2-41.6-7.5
		c10.6,30,23.2,59.9,33.4,83.6C749.2,475.6,760.3,450.2,760.3,450.2z"/>
	<path class="st3" d="M238.8,518.7c2.7-10.1,3.2-16.9,14.1-35.9c-24.1,1.6-39.1-32.6-39.1-32.6c-42.4,46.8-57.1,39-62.1,27.2
		c-12.6,15.7-22.8,31.5-30.9,46.6c0,0,26.5,73.4,93,0c0,0,9.4,21.5,25.3,29.6C237.1,538,237.2,524.6,238.8,518.7z"/>
	<path class="st3" d="M853.3,524c-8.1-15.1-18.3-30.9-30.9-46.6c-5.1,11.8-19.7,19.6-62.1-27.2c0,0-11.1,25.3-29.6,31.3
		c5,11.5,9.4,21.5,12.7,29.3c3.6,8.6,5.2,19.5,5.4,31.2c7.4-8.7,11.4-18,11.4-18C826.9,597.4,853.3,524,853.3,524z"/>
	<path class="st4" d="M213.8,524c-66.6,73.4-93,0-93,0c-21.1,39.2-28.6,73.9-31.2,90.2c32.1-4.1,64.4-7.7,96.4-10.9l0,0l0,0l0.8-0.1
		h0.8c7.3,0,11.8,3.9,17.4,8.9c0.8,0.7,1.7,1.5,2.6,2.4c0,0,0,0,0-0.1L210,601l13.6-1.1c9-0.7,18-1.4,27.1-2.1
		c-6-14.1-9.7-30.1-11.5-44.2C223.2,545.5,213.8,524,213.8,524z"/>
	<path class="st4" d="M755.9,599.9c42.7,3.8,85.8,8.3,128.6,13.6c-2.7-16.5-10.3-50.9-31.1-89.6c0,0-26.5,73.4-93,0
		c0,0-4.1,9.3-11.4,18c0.4,19.6-2.8,41.1-5.8,56.8l5.2,0.5L755.9,599.9L755.9,599.9z"/>
	<path class="st0" d="M405.1,280.4c-0.7-3.2-1.8-8.7-2.1-12.7c0-0.2-4.9-1-10.1-1.8C397.2,272.3,401.8,278,405.1,280.4z"/>
	<path class="st5" d="M334.7,138.7c-3.8,0.1-7.2,3.7-9.7,7.2c0.2,8.9,2.7,27.5,23.7,33.8c0,0,3.5,40.9,23.7,59.3
		c1.9,1.7,3.9,3.3,6.1,4.6v0c0,0,0,0.1,0.1,0.2c11.5-8.1,41.3-18,118.4-18c77.5,0,107.2,10,118.6,18v0c2.2-1.3,4.2-2.8,6.1-4.6
		c20.2-18.4,23.7-59.3,23.7-59.3c21.7-6.6,23.6-26.1,23.7-34.7c-2.5-3.4-5.9-6.8-9.6-7c-7.4-0.2-19.5,3.9-21.5,11.4
		c-0.3,1-0.5,1.6-0.8,2.1c-1,6-2.4,10.5-2.4,10.5S619.3,68,497,68c-20.9,0-38.7,2.8-53.8,7.3c3.6,1.7,6.4,4.3,7.9,7.9
		c4,9.6-3.7,22-17.2,27.7c-13.5,5.6-27.7,2.4-31.7-7.3c-0.9-2.2-1.2-4.6-1-7c-35.8,27.7-42,65.7-42,65.7s-1.5-4.5-2.4-10.5
		c-0.2-0.4-0.4-1-0.6-1.7C354.2,142.6,342.1,138.4,334.7,138.7z M526.2,167.1c0,0.2,0,0.4,0,0.6c0-0.1,0-0.2,0-0.3
		c-0.1-1.8,3.9,30.7,13.3,25.2c9.3-5.5,66-32.9,66-32.9l-1.6,1.5c0.9-0.5,1.5-0.7,1.5-0.7c-18.4,83.7-69.3,50.6-69.3,50.6
		C517,211.5,526.2,167.1,526.2,167.1z M388.7,160c0,0,56.7,27.4,66,32.9c7.6,4.5,11.7-16.1,12.9-23c0.1-0.9,0.1-1.8,0.2-2.7
		c0,0,0.1,0.3,0.1,0.7c0-0.2,0-0.3,0-0.1c0,0.1,0,0.1,0,0.2c1.1,6,7.5,43.5-10,43.1c0,0-50.9,33.1-69.3-50.6c0,0,0.4,0.2,1.1,0.6
		L388.7,160z"/>
	<path class="st6" d="M438.4,203l-31.7-21.2C415.9,210.8,438.4,203,438.4,203z"/>
	<path class="st5" d="M419.7,341.9C419.7,341.9,419.7,341.8,419.7,341.9L419.7,341.9c-2.7-1-5.4-2.4-8.2-4
		c-12.4,10.7-31.6,28.5-36.8,40.3c0,0,6.6-24.9,26.5-47.6c-8.9-7.2-17.7-16.5-25.6-26c-14.3,6.4-37.7,17-41.6,20
		c0,0-0.2,52.8-20.6,95.2c-21.8,45.4-46.9,75.7-51.4,96.6c0,0,0.1-0.1,0.1-0.1c22.5-39.6,47.3-58.7,47.3-58.7
		c-1.7-7.6-0.7-15.5,3.2-22.5c11.8-21.5,44.5-27.7,60.7-30.8c5.3-1,15.5-1.3,27.6-0.5C411,390.3,416.9,360.5,419.7,341.9z"/>
	<path class="st5" d="M309.3,457.6c0,0.1,0,0.1,0.1,0.2C309.4,457.7,309.4,457.7,309.3,457.6z"/>
	<path class="st5" d="M344.4,261.2c0,0-5,13.3-8.8,22.1c-0.1,13.9,0.4,27.5,0.4,27.5c3.2-2.2,21.5-9.4,33.3-14
		C356.4,280.3,346.7,264.9,344.4,261.2z"/>
	<path class="st0" d="M262.1,516.3c0,0.1-0.1,0.1-0.1,0.2c-0.2,1.2-0.4,2.3-0.6,3.4c2.6,7.7,39.3,106.2,209.1-0.5
		c9.5-8.4,19.5-17.1,29.4-25.5c53-45.1,70.9-42.5,77.1-40.3s61.3,22.8,43.8-3.5c-17.5-26.3-70.6-41.3-92.5-35.8
		c-10.3,2.6-65.7,37.9-84.7,52c-18.7,13.8-55.3,32.5-91.7,26c-24.3-4.4-39-18.9-42.5-34.4c0-0.1,0-0.1-0.1-0.2
		C309.3,457.6,284.5,476.7,262.1,516.3z"/>
	<path class="st0" d="M439.8,425.6c-70.8-18.1-98.4-2.5-110.2,14.8c-8.3,12.1-7.3,23.9,6.9,31.1c0,0,0,0,0,0
		C430,474.2,439,430.9,439.8,425.6z"/>
	<path class="st5" d="M648.4,261.9c-2.9,4.6-12.1,19-24.2,34.5c12.9,5.4,33.3,14,34.5,15.6c0,0-0.9-15.9-1.5-29.8
		c-3.2-7.6-7.1-17.6-8.1-20.3H648.4z"/>
	<path class="st0" d="M572.3,342.3c-32.5,12-75.2,10.3-75.2,10.3s-43.7,1.2-76.1-10.3c0,0,0,0,0,0c-0.4-0.2-0.8-0.3-1.2-0.5
		c-2.8,18.6-8.7,48.5-18.8,62c6.4,0.4,13.3,1.1,20.3,2.1c8-1.3,80.8-9.5,95.4-6.6c2.3-1,4.3-1.7,5.8-2c10.8-2.1,44.6-0.3,68.1,8.4
		C580.5,390.9,574.8,360,572.3,342.3z"/>
	<path class="st0" d="M619.4,495.2c-8.5,1.3-35.8-11.2-50.8-9.5c-8.8,1-16.1,8.5-20.6,14.4c18.6,4.3,46.7,13.9,65.6,34.1
		c30.4,32.6,86.7,32,105.7,18.1c0.1-0.1,0.2-0.2,0.4-0.3c1.5-14.3,2.4-30.4,1.2-43.5c-35.7-69.4-85.9-86.6-107.2-91.3
		c14,8.8,23.9,19.4,26.7,30.8c3.2,13.3,4.2,25.2,1,30.9c0,0.2,0,0.3-0.1,0.5C639.4,485.9,627.9,493.9,619.4,495.2z"/>
	<path class="st7" d="M572.3,342.3c0.4-0.2,0.9-0.3,1.3-0.5c3-1.2,6.1-2.7,9.1-4.6c-4.1-3.7-7.9-6.8-11.2-8.5c0,0-0.5,0.1-1.4,0.4
		l0.6,0C570.6,329.1,571.1,334.4,572.3,342.3z"/>
	<path class="st7" d="M617.6,304.6c-5.5-2.5-10.1-4.4-12.3-5c0,0-19.4,20.4-22.6,22.1c0,0,3.8,3.5,9,9.1
		C600.8,323.6,609.6,314.2,617.6,304.6z"/>
	<path class="st7" d="M649.1,261.9c1,2.7,4.8,12.8,8.1,20.3c-0.4-9.6-0.6-18.4-0.3-20.3H649.1z"/>
	<path class="st7" d="M638.5,261.9c0,0-20.7,27.4-24.9,30.2c0,0,4.4,1.8,10.5,4.3c12.1-15.5,21.3-29.9,24.2-34.5H638.5z"/>
	<path class="st7" d="M419.7,341.9c0.4,0.2,0.8,0.3,1.2,0.5c0,0,0,0,0,0C420.5,342.1,420.1,342,419.7,341.9
		C419.7,341.8,419.7,341.9,419.7,341.9z"/>
	<path class="st7" d="M401.2,330.6c2.5-2.9,5.2-5.7,8.1-8.4c0,0-13.2-14.1-22.6-22.6c0,0-4.7,2-11.2,5
		C383.4,314,392.2,323.3,401.2,330.6z"/>
	<path class="st7" d="M422.6,329.1l0.5,0c-0.3-0.1-0.5-0.3-0.5-0.4c0,0-4.6,3.6-11,9.1c2.7,1.6,5.4,3,8.1,4
		C420.8,333.9,422.6,329.1,422.6,329.1z"/>
	<path class="st7" d="M369.3,296.8c5.9-2.3,10.2-3.9,10.2-3.9c-15-12-26.8-31.4-26.8-31.4l-16.1-1.1c-0.8,5.6-1,14.3-1.1,23
		c3.9-8.9,8.8-22.1,8.8-22.1C346.7,264.9,356.4,280.3,369.3,296.8z"/>
	<path class="st8" d="M419.6,341.8L419.6,341.8c0.4,0.2,0.9,0.3,1.3,0.5c32.4,11.5,76.1,10.3,76.1,10.3s42.6,1.7,75.2-10.3
		c-1.1-8-1.7-13.3-1.7-13.3l-0.6,0c-6.9,1.8-37.8,9.2-73,9.2c-37.9,0-69.2-6.7-73.9-9.3l-0.5,0C422.6,329.1,420.8,333.9,419.6,341.8
		z"/>
	<path class="st8" d="M421.2,405.9c20.5,2.9,42.4,8.6,56,17.9c0,0,25.2-18.1,39.4-24.5C502,396.5,429.2,404.6,421.2,405.9z"/>
	<path class="st8" d="M465.2,432.9c-9-2.9-17.5-5.3-25.4-7.3c-0.8,5.3-9.8,48.6-103.3,45.9c0,0,0,0,0,0c8.3,4.2,21.2,6.8,39.5,7
		C425.5,478.9,465.2,432.9,465.2,432.9z"/>
	<path class="st8" d="M261.4,519.8c-0.2,1.4-0.2,2.8-0.1,4.2c1.3,21,12.7,54.7,25,64.8h108.6c0,0,34.4-32.9,75.7-69.5
		C300.7,626,264,527.5,261.4,519.8z"/>
	<path class="st5" d="M721,508.7c-0.4-4.5-1.1-8.7-2.1-12.3c-7.9-28.5-51.7-83.2-61.3-172.5c0,0-24.1-12.1-40-19.3
		c-8,9.6-16.8,18.9-25.9,26.2c10.1,11,25.3,30.2,27.3,47.8c0,0-20-26.4-36.3-41.4c-3.1,1.9-6.1,3.5-9.1,4.6
		c-0.4,0.2-0.9,0.3-1.3,0.5c2.5,17.7,8.2,48.6,18.2,63.4c1.3,0.5,2.5,1,3.7,1.5c7.1,3,13.7,6.5,19.6,10.2
		C635.1,422.1,685.2,439.3,721,508.7z"/>
	<path class="st8" d="M637,588.8h77.5c0,0,3.2-16.6,5.3-36.6c-0.1,0.1-0.2,0.2-0.4,0.3c-19.1,13.8-75.3,14.5-105.7-18.1
		c-18.9-20.2-47-29.8-65.6-34.1c4.5-6,11.7-13.4,20.6-14.4c15-1.8,42.3,10.8,50.8,9.5c8.5-1.3,20-9.3,22-15.6c0-0.2,0.1-0.3,0.1-0.5
		c-0.7,1.2-1.6,2.2-2.6,2.8c-12.6,7-59-10.4-68.6-8.2c-9.6,2.2-51.1,27-54.6,33.6C515.7,507.4,600.7,519.2,637,588.8z"/>
	<path class="st0" d="M497,225.8c-77.2,0-107,9.9-118.4,18c0.6,1,3.4,5.7,7.1,11.5c9.6,1.6,18.5,4,18.5,4c0-1.6,0.9-7.6,1.3-10.4
		l0-0.1c0,0,0,0,0,0c0-0.2,0.1-0.5,0.1-0.7c0,0.3,0,0.6,0,0.9c0.6,1.2,2.9,5.9,6.1,12.2c16,4.9,24.6,13.5,24.6,13.5
		c-3.7-2.2-14.2-4.1-20.2-5c1.9,3.6,3.9,7.4,5.9,11l5.8,0l-4.6,2.1c5.3,9.5,10.6,18,13.9,20.9c0.1,0.1,0.1,0.1,0.2,0.2l0.4-0.2
		l-0.1,0.5c8.9,7.6,25.5,11.4,59.3,14.5c25.3-1.6,50.1-6.7,59.4-14.3l-0.1-0.7l0.7,0.2c3.3-3,8.6-11.6,14-21.1l-4.7-2.2l6,0
		c2-3.7,4.1-7.5,5.9-11.1c-6,0.9-16.7,2.7-20.4,5c0,0,8.7-8.7,24.8-13.5c3-5.9,5.2-10.4,5.8-11.7c0.1-0.5,0.1-1,0.1-1.3
		c0,0.2,0.1,0.6,0.1,0.9l0,0v0c0.4,2.9,1.2,8.7,1.2,10.2c0,0,9.1-2.5,18.7-4c4.1-6.4,7-11.4,7-11.4
		C604.2,235.7,574.5,225.8,497,225.8z M497,265.4c0,0,31.8-2.6,31.8,14c0,16.6-12,18.1-31.8,18.1c-19.9,0-31.8-1.5-31.8-18.1
		C465.2,262.7,497,265.4,497,265.4z"/>
	<path class="st0" d="M601.5,265.9c-5.3,0.8-10.4,1.6-10.4,1.8c-0.3,4.1-1.5,9.9-2.2,13.1C592.2,278.4,596.9,272.4,601.5,265.9z"/>
	<path class="st8" d="M557,304.1l9.2,3.3c0,0,0,0,9.3-22.3l-4.6-2.1C565.6,292.5,560.3,301.1,557,304.1z"/>
	<path class="st8" d="M585.3,290c-0.1,0.4-2.5,6.8-2.5,8.3c0,0,6.8-0.3,9.9-5C592.9,292.9,585.4,289.7,585.3,290z"/>
	<path class="st8" d="M588.9,280.8c-0.3,1.5-0.5,2.4-0.5,2.4l10.8,3.4c7.6-6.5,13.8-22.3,14.5-22.4c0,0-6.3,0.9-12.2,1.8
		C596.9,272.4,592.2,278.4,588.9,280.8z"/>
	<polygon class="st8" points="588.6,249 588.6,249 588.6,249 	"/>
	<path class="st8" d="M615.6,243.8c0,0-2.9,5-7,11.4c4.9-0.8,9.9-1.3,14-1.2C622.5,254,623.3,249.3,615.6,243.8z"/>
	<path class="st8" d="M585.2,260.4c0,0,2.7-7,3.2-10.9c-0.7,1.3-2.8,5.8-5.8,11.7C583.4,260.9,584.3,260.6,585.2,260.4z"/>
	<polygon class="st8" points="622.5,254 622.5,254 622.5,254 	"/>
	<path class="st8" d="M577.1,280.8c0,0,3.5-8.2,5.2-11.6c0,0-1.7,0.2-4.1,0.6c-1.9,3.6-3.9,7.4-5.9,11.1L577.1,280.8z"/>
	<path class="st8" d="M392.8,266c-6-0.9-12.4-1.9-12.4-1.9c0.7,0.1,6.9,16,14.5,22.4l10.8-3.4c0,0-0.3-1.1-0.6-2.7
		C401.8,278,397.2,272.3,392.8,266z"/>
	<path class="st8" d="M411.8,269.1c1.7,3.4,5.2,11.6,5.2,11.6l5.1,0c-2-3.7-4-7.4-5.9-11C413.5,269.4,411.8,269.1,411.8,269.1z"/>
	<path class="st8" d="M405.5,248.8C405.5,248.8,405.5,248.8,405.5,248.8c0-0.1,0-0.1,0-0.1L405.5,248.8z"/>
	<path class="st8" d="M408.9,260.4c1,0.3,1.9,0.5,2.8,0.8c-3.2-6.3-5.5-11-6.1-12.2C405.9,252.9,408.9,260.4,408.9,260.4z"/>
	<path class="st8" d="M497,318.9c-33.8-3.1-50.4-7-59.3-14.5l-1.1,8.9c10.8,9.6,60.4,6.7,60.4,6.7s49.6,2.9,60.4-6.7l-1.1-8.6
		C547.2,312.3,522.3,317.3,497,318.9z"/>
	<path class="st8" d="M423.2,282.9l-4.8,2.2c9.3,22.3,9.3,22.3,9.3,22.3l9.5-3.3c-0.1-0.1-0.1-0.1-0.2-0.2
		C433.8,300.9,428.6,292.4,423.2,282.9z"/>
	<path class="st8" d="M411.3,298.3c0-1.5-2.3-8-2.5-8.3c-0.1-0.4-7.6,2.9-7.4,3.3C404.5,298,411.3,298.3,411.3,298.3z"/>
	<path class="st8" d="M378.5,243.5c-7.8,5.5-7,10.2-7,10.2c-0.2-0.1-0.4-0.1-0.6-0.2c0.3,0.3,0.6,0.5,0.6,0.5
		c4.2-0.1,9.3,0.5,14.2,1.3c-3.7-5.8-6.5-10.6-7.1-11.5C378.5,243.6,378.5,243.5,378.5,243.5z"/>
	<path class="st7" d="M342.9,189.2c0.8,38.6,24.2,60.9,28.1,64.3c0.2,0.1,0.4,0.1,0.6,0.2c0,0-0.8-4.6,7-10.2v0
		c-2.2-1.3-4.2-2.8-6.1-4.6c-20.2-18.4-23.7-59.3-23.7-59.3c-21.1-6.4-23.5-24.9-23.7-33.8c-2.5,3.4-4,6.8-4,6.8l-0.2-0.3
		c-1.3,5.8-1,11.8,2,16C332.2,181.8,342.9,189.2,342.9,189.2z"/>
	<path class="st7" d="M669.1,145.3c-0.1,8.6-2,28.1-23.7,34.7c0,0-3.5,40.9-23.7,59.3c-1.9,1.7-3.9,3.3-6.1,4.6v0
		c7.8,5.5,7,10.2,7,10.2l0,0c0,0,27.7-22.8,28.6-64.8c0,0,13.4-11.5,20.1-20.7c3.1-4.3,3.4-10.2,2-16.1l0,0
		C673.3,152.4,671.7,148.8,669.1,145.3z"/>
	<path class="st6" d="M587.4,181.8L555.6,203C555.6,203,578.2,210.8,587.4,181.8z"/>
	<path class="st9" d="M325,145.8c2.5-3.5,6-7.1,9.7-7.2c7.4-0.2,19.5,3.9,21.5,11.4c0.2,0.7,0.4,1.3,0.6,1.7
		c-0.4-2.4-0.7-5.1-0.8-7.9c-0.3-9.6-15.5-13.4-23.1-10.8c-4.6,1.6-10.2,10.3-12.2,19.3l0.2,0.3C320.9,152.7,322.5,149.3,325,145.8z
		"/>
	<path class="st9" d="M402.2,103.6c4,9.6,18.2,12.9,31.7,7.3c13.5-5.6,21.2-18,17.2-27.7c-1.5-3.5-4.3-6.2-7.9-7.9
		c-17.2,5.2-31,12.8-42,21.3C401,99,401.3,101.4,402.2,103.6z"/>
	<path class="st9" d="M467.7,169.8c-1.2,6.9-5.3,27.5-12.9,23c-9.3-5.5-66-32.9-66-32.9l1.1,1c7.2,3.7,47.5,24.5,68.3,42
		C458.1,203,465.4,198.1,467.7,169.8z"/>
	<path class="st9" d="M468,167.7c0-0.1,0-0.1,0,0.1c0,0,0,0.1,0,0.1C468,167.8,468,167.8,468,167.7z"/>
	<path class="st9" d="M659.5,138.3c3.7,0.1,7.1,3.5,9.6,7c2.6,3.5,4.2,7.1,4.2,7.1l0,0c-2-9-7.7-17.6-12.3-19.2
		c-7.6-2.6-22.8,1.2-23.1,10.8c-0.1,2.8-0.4,5.5-0.8,7.9c0.3-0.4,0.6-1.1,0.8-2.1C640,142.3,652.1,138.1,659.5,138.3z"/>
	<path class="st9" d="M535.9,203c20.5-17.3,60-37.8,68-41.8l1.6-1.5c0,0-56.7,27.4-66,32.9c-9.3,5.5-13.4-26.9-13.3-25.2
		c0,0.1,0,0.2,0,0.3C528.2,197.8,535.9,203,535.9,203z"/>
	<path d="M497,297.5c19.9,0,31.8-1.5,31.8-18.1c0-16.6-31.8-14-31.8-14s-31.8-2.6-31.8,14C465.2,296,477.2,297.5,497,297.5z"/>
	<path d="M458,211.1c17.5,0.4,11.1-37.2,10-43.1c0,0,0-0.1,0-0.1c-0.1-0.4-0.1-0.7-0.1-0.7c-0.1,0.9-0.1,1.8-0.2,2.7
		c-2.2,28.3-9.5,33.2-9.5,33.2c-20.8-17.5-61-38.3-68.3-42c-0.7-0.4-1.1-0.6-1.1-0.6C407.1,244.1,458,211.1,458,211.1z M438.4,203
		c0,0-22.6,7.8-31.7-21.2L438.4,203z"/>
	<path d="M536,211.1c0,0,50.9,33.1,69.3-50.6c0,0-0.5,0.3-1.5,0.7c-8,4.1-47.4,24.6-68,41.8c0,0-7.7-5.2-9.7-35.4c0-0.2,0-0.4,0-0.6
		C526.2,167.1,517,211.5,536,211.1z M587.4,181.8c-9.2,29-31.7,21.2-31.7,21.2L587.4,181.8z"/>
	<path d="M499.3,856.9c-7.3,0-10.9,0-18.2,0c-0.5,0.1-0.8,0.3-0.8,0.6c0,17.3-0.1,34.7-0.1,52c0.1,0.4,0.3,0.6,0.8,0.6
		c7.4,0,11.1,0,18.4,0c0.5,0,0.7-0.2,0.7-0.6c0-17.3-0.1-34.7-0.1-52C500,857.1,499.8,856.9,499.3,856.9z"/>
	<path d="M869.9,667.5c-17.6-2.1-26.4-3.1-44-5c-1.1,0-1.7,0.4-1.6,1.4c1.6,18.4,3.3,36.9,4.9,55.3c1.4,0.1,13.2-3.7,35.1-11.1
		c7.4-2.3,11-4,10.9-5.1c-1.4-13.5-2.1-20.3-3.4-33.8C871.7,668.2,871,667.6,869.9,667.5z"/>
	<path d="M573.2,859.8c-7.3-0.2-10.9-0.3-18.2-0.4c-0.5,0-0.7,0.2-0.7,0.6c0.1,8.6,0.2,12.8,0.4,21.4c0.6,0,5.5-1.9,14.8-5.5
		c3.1-1.2,4.7-2,4.7-2.4c-0.1-5.2-0.2-7.8-0.3-13.1C573.9,860,573.7,859.8,573.2,859.8z"/>
	<path d="M426,857.5c-7.1,0.1-10.7,0.2-17.8,0.4c-0.5,0.1-0.8,0.3-0.8,0.6c-0.2,9.2-0.3,13.8-0.5,23.1c0.8,0,7.4-2.8,19.5-8.2
		c0.1-6.1,0.1-9.2,0.2-15.3C426.7,857.7,426.4,857.5,426,857.5z"/>
	<path d="M156.6,658.8c0.1-1-0.4-1.5-1.6-1.4c-17.6,1.9-26.4,2.9-44,5c-1.3,0.3-1.9,0.9-2,1.8c-4.5,44.9-9.1,89.7-13.6,134.6
		c0.1,1,0.7,1.5,1.8,1.3c18.2-2.2,27.4-3.2,45.6-5.2c1.2-0.1,1.8-0.7,1.9-1.8C148.7,748.4,152.6,703.6,156.6,658.8z"/>
	<path class="st0" d="M208.1,638.8c-12.8-12.2-19.6-18.2-20.4-18.1c-47.2,4.7-94.2,10.3-141.2,16.8c-0.1,1.1,4.5,7.3,14.2,18.6
		c-1.4,12.6-2.2,18.9-3.6,31.5c-5.1,44.4-10.7,88.7-16.2,133.1c8.2,6.8,12.4,10.3,20.7,17.1c36.5-4.6,72.9-8.8,109.5-12.4
		c16.4-14.1,24.6-21.5,24.6-22.3C199.8,748.4,204,693.6,208.1,638.8z M142.8,794.9c-18.3,1.9-27.4,3-45.6,5.2
		c-1.1,0.1-1.7-0.3-1.8-1.3c4.5-44.9,9.1-89.7,13.6-134.6c0.1-0.9,0.8-1.5,2-1.8c17.6-2.1,26.4-3.1,44-5c1.1-0.1,1.7,0.3,1.6,1.4
		c-4,44.8-8,89.6-11.9,134.4C144.6,794.2,144,794.8,142.8,794.9z"/>
	<path class="st0" d="M326.5,794c2.1-49.9,4.2-99.8,6.3-149.7c0-0.9,0.6-1.4,1.8-1.7c5.3-0.3,7.9-0.4,13.2-0.6
		c26.1,11.1,40.3,16.8,41.9,16.7c0.5-17,0.9-34.1,1.4-51.1c-55.5,1.9-110.8,5.1-166.1,9.6c-1.1,6.3-1.7,10.9-1.9,13.6
		c-1.1,15.1-1.6,22.6-2.7,37.7c0.4,0,0.6,0,0.9-0.1c14.7-7.5,29.3-15.3,44.5-21.8c5.3-0.4,7.9-0.6,13.2-0.9c1.2-0.1,1.7,0.4,1.6,1.5
		c-3.2,56.6-6.3,113.2-9.5,169.8c23.7-1.6,47.4-2.9,71.1-3.9C342.3,811.9,337,805.5,326.5,794z"/>
	<path class="st0" d="M574.5,607.3c-55.4-1.3-110.8-1.4-166.3-0.1c-0.8,6.3-1.2,10.8-1.2,13.5c-0.3,15-0.5,22.5-0.8,37.6
		c0.4,0,0.6,0,0.9,0c28-13,42.4-19.2,43.6-19.2c5.3-0.1,7.9-0.1,13.2-0.1c1.2,0,1.7,0.5,1.7,1.6c-0.4,56.5-0.7,113-1.1,169.4
		c23.7-0.2,47.5-0.1,71.2,0.2c0-1.2-5.7-8-16.8-20.1c-0.4-49.8-0.8-99.7-1.1-149.5c0-0.9,0.6-1.4,1.7-1.5c5.3,0.1,7.9,0.1,13.2,0.2
		c26.8,12.6,41.2,19.2,42.9,19.2C575.3,641.4,574.9,624.4,574.5,607.3z"/>
	<path class="st0" d="M747.6,766.6c-29.1,10.9-44.3,16.7-45.2,16.6c-14.3-0.9-21.4-1.4-35.7-2.1c-1-0.1-1.6-0.6-1.9-1.7
		c-0.8-17.9-1.6-35.7-2.4-53.6c0-0.9,0.5-1.5,1.7-1.6c21,1.1,42,2.5,63,4c-0.9-14.7-1.4-22.1-2.3-36.8c-20.8-1.5-41.6-2.9-62.4-4
		c-1-0.1-1.6-0.6-1.8-1.7c-0.7-16-1.1-24-1.8-40c0-0.9,0.5-1.3,1.7-1.5c27.1,1.6,54.1,3.4,81.2,5.4c-0.9-13.5-1.4-20.2-2.3-33.7
		c-49.5-3.8-99-6.6-148.7-8.3c0,0.3,0,0.5,0,0.9c10.1,12.4,15.9,18.9,17.3,19.7c1.6,61,3,122,4.9,183c0,0.3,0,0.5,0,0.9
		c46.2,1.9,92.2,4.6,138.3,8.1C750,802.4,748.8,784.5,747.6,766.6z"/>
	<path class="st0" d="M899.9,752.9c-0.2-1.9,9.8-5.4,29.7-10.3c-4.1-35.7-8.2-71.4-12.3-107.1c-54.2-7.3-108.4-13.3-162.9-18.1
		c0,0.3,0,0.5,0.1,0.9c10.6,12.9,16.7,19.8,18.1,20.6c3.8,56.7,7.7,113.3,11.9,169.9c0.4,5.8,0.7,8.7,1.1,14.4
		c23.3,2.1,46.7,4.4,70,7c-0.1-0.6-0.1-0.9-0.1-1.6c-12.1-13-18.2-20.6-18.4-22.7c-1.2-13.2-1.8-19.7-2.9-32.9
		c-0.1-0.7,6.6-3.2,19.9-7.5c1.5,0.2,3.8,2.8,7,8c13.1,20.8,25.7,42.4,40.6,62c18.4,2.3,36.7,4.7,55.1,7.4c0-0.3-0.1-0.5-0.1-0.9
		C937.9,812.2,918.7,782.6,899.9,752.9z M864.3,708.1c-21.9,7.4-33.7,11.2-35.1,11.1c-1.6-18.4-3.3-36.9-4.9-55.3
		c-0.1-1,0.4-1.4,1.6-1.4c17.6,1.9,26.4,2.9,44,5c1.1,0.1,1.8,0.7,1.9,1.8c1.4,13.5,2.1,20.3,3.4,33.8
		C875.3,704.1,871.7,705.8,864.3,708.1z"/>
	<path class="st0" d="M239,853.5c3.7,4.4,5.9,6.7,6.4,6.9c-1.6,23.8-3.3,47.5-4.8,71.3c0,0.1,0,0.2,0,0.3
		c18.4-1.4,36.9-2.6,55.3-3.6c0.4-8.3,0.6-12.5,1-20.8c-12.4,5.9-18.8,8.8-19.1,8.9c-5.7,0.4-8.6,0.5-14.3,0.9
		c-0.4,0-0.6-0.2-0.7-0.6c0.5-8.3,0.7-12.5,1.2-20.8c0-0.4,0.3-0.6,0.8-0.7c10.2-0.7,15.4-1,25.6-1.6c0.3-5.7,0.4-8.6,0.7-14.3
		c-10.2,0.6-15.3,0.9-25.5,1.6c-0.4,0-0.6-0.2-0.7-0.6c0.4-6.2,0.5-9.3,0.9-15.6c0-0.3,0.3-0.6,0.7-0.7c13.4-0.9,20-1.3,33.4-2.1
		c0.3-5.2,0.4-7.8,0.6-13.1c-20.5,1.2-41,2.5-61.5,4C239,853.3,239,853.4,239,853.5z"/>
	<path class="st0" d="M312.6,856.2c-0.2,4.4-0.3,6.5-0.5,10.9c-0.2,4-0.3,9.9-0.4,17.7c9,3.3,13.5,4.9,22.6,8.2
		c11.6,3.9,17.4,6.1,17.3,6.7c-0.2,4.4-0.2,6.5-0.4,10.9c0,0.4-0.3,0.6-0.7,0.6c-9.1,0.4-13.7,0.6-22.8,1c-0.7,0-6.3-2-16.7-6
		c-0.1,0-0.2,0-0.3,0c-0.4,8.6-0.6,12.9-1,21.4c20.7-1.1,41.3-2,62-2.7c0.4-15,0.7-22.5,1.1-37.6c0-0.2-0.6-0.6-1.8-1.2
		c-25.3-9.7-37.9-14.5-38.1-14.9c0.1-3.5,0.2-5.2,0.3-8.7c0-0.3,0.3-0.5,0.7-0.6c9-0.4,13.5-0.6,22.5-1c0.7,0,6.2,2,16.6,6.2
		c0.1,0,0.2,0,0.3,0c0.3-8.6,0.4-12.8,0.6-21.4c-22.6,0.8-45.1,1.8-67.6,3C306.5,849.3,308.5,851.8,312.6,856.2z"/>
	<path class="st0" d="M438.9,844.2c-19.6,0.4-39.1,0.8-58.7,1.4c0,0.6,2.1,3.1,6.3,7.6c-0.6,23.8-1.2,47.7-1.9,71.5
		c11.3-0.3,16.9-0.5,28.1-0.7c0-0.2,0-0.4,0-0.6c-2.6-2.8-3.9-4.2-6.6-7c0.1-7.1,0.2-10.6,0.4-17.7c26.8-11.5,40.4-16.9,41-17
		c0.1-11.8,0.2-17.7,0.3-29.5C447.7,851.5,444.6,848.8,438.9,844.2z M426.4,873.3c-12.2,5.4-18.7,8.2-19.5,8.2
		c0.2-9.2,0.3-13.8,0.5-23.1c0-0.3,0.3-0.5,0.8-0.6c7.1-0.2,10.7-0.2,17.8-0.4c0.5,0,0.7,0.2,0.7,0.6
		C426.6,864.2,426.5,867.2,426.4,873.3z"/>
	<path class="st0" d="M511.6,843.9c-19.6-0.1-39.2,0-58.7,0.1c0,0.4,2.3,3.1,6.8,8c0,4.9-0.1,7.3-0.1,12.2
		c-0.1,17.1-0.5,34.2-0.8,51.3c3.7,3.1,5.5,4.6,9.2,7.7c17.6-0.1,26.4-0.1,44,0c6.2-4.9,9.2-7.4,9.2-7.7
		c-0.2-21.2-0.3-42.5-0.5-63.7C515,846.5,511.9,843.9,511.6,843.9z M499.4,910.1c-7.4,0-11.1,0-18.4,0c-0.4,0-0.7-0.2-0.8-0.6
		c0-17.3,0.1-34.6,0.1-52c0-0.3,0.3-0.5,0.8-0.6c7.3,0,10.9,0,18.2,0c0.5,0,0.7,0.2,0.7,0.6c0,17.3,0.1,34.7,0.1,52
		C500.2,909.9,499.9,910.1,499.4,910.1z"/>
	<path class="st0" d="M582.7,892c0-0.7,4.2-2.5,12.6-5.2c-0.4-16.5-0.7-24.8-1.1-41.3c-22.6-0.7-45.1-1.2-67.7-1.4
		c0,0.1,0,0.2,0,0.3c4.1,4.7,6.4,7.2,7,7.5c0.1,22,0.1,43.9,0.3,65.9c0,2.2,0,3.4,0.1,5.6c11.2,0.1,16.9,0.2,28.1,0.5
		c0-0.2,0-0.4,0-0.6c-4.5-4.7-6.8-7.4-6.8-8.2c-0.1-5.1-0.1-7.6-0.2-12.7c0-0.3,2.8-1.5,8.4-3.6c0.6,0,1.5,1,2.6,2.9
		c9.1,15,14,22.6,14.5,22.7c8.9,0.2,13.3,0.4,22.2,0.7c0-0.1,0-0.2,0-0.3C599.9,919.8,593.2,909,582.7,892z M569.5,875.9
		c-9.3,3.7-14.3,5.6-14.8,5.5c-0.1-8.6-0.2-12.8-0.4-21.4c0-0.4,0.2-0.6,0.7-0.6c7.3,0.1,10.9,0.2,18.2,0.4c0.5,0,0.7,0.2,0.7,0.6
		c0.1,5.2,0.2,7.8,0.3,13.1C574.2,873.9,572.7,874.7,569.5,875.9z"/>
	<path class="st0" d="M654.7,860.6c2.2,0.1,3.3,0.2,5.4,0.3c11.1,5.3,17.1,8,17.8,8.1c-0.4-8-0.6-11.9-0.9-19.9
		c-22.9-1.3-45.8-2.3-68.7-3.2c-0.2,2.4-0.3,4.2-0.2,5.2c0.2,5.8,0.3,8.8,0.4,14.6c0.2,0,0.2,0,0.4,0c11.2-4.4,17-6.5,17.6-6.5
		c2.2,0.1,3.3,0.1,5.4,0.2c0.5,0,0.7,0.2,0.7,0.6c0.8,22,1.6,43.9,2.4,65.9c11.4,0.5,17.1,0.8,28.5,1.3c0-0.5-2.3-3.2-7-8.1
		c-0.8-19.4-1.6-38.8-2.4-58.2C654,860.9,654.2,860.7,654.7,860.6z"/>
	<path class="st0" d="M752.2,894.4c-26.3-12.6-39.4-18.8-39.6-19.3c-0.2-3.5-0.3-5.2-0.5-8.7c0-0.3,0.2-0.5,0.7-0.6
		c9,0.6,13.5,0.9,22.5,1.6c0.7,0.1,6.4,2.7,17.2,8.1c0.1,0,0.2,0,0.3,0c-0.6-8.6-0.9-12.9-1.4-21.5c-22.5-1.8-45-3.3-67.6-4.6
		c0,0.5,2.3,3.2,6.9,8.1c0.2,4.4,0.3,6.5,0.6,10.9c0.2,4,0.6,9.9,1.3,17.7c9.4,4.3,14.1,6.5,23.5,10.8c12,5.2,18,8.1,18,8.7
		c0.3,4.4,0.4,6.6,0.7,10.9c0,0.4-0.2,0.6-0.7,0.6c-9.1-0.7-13.7-1-22.8-1.6c-0.7,0-6.5-2.7-17.3-7.9c-0.1,0-0.2,0-0.3,0
		c0.4,8.6,0.7,12.9,1.1,21.4c20.7,1.2,41.3,2.7,61.9,4.3c-1-15.1-1.5-22.6-2.5-37.6C754.1,895.6,753.4,895.2,752.2,894.4z"/>
</g>
</svg>
