<?xml version="1.0" encoding="utf-8"?>
<!-- Generator: Adobe Illustrator 21.1.0, SVG Export Plug-In . SVG Version: 6.00 Build 0)  -->
<svg version="1.1" id="Layer_1" xmlns="http://www.w3.org/2000/svg" xmlns:xlink="http://www.w3.org/1999/xlink" x="0px" y="0px"
	 viewBox="0 0 834 820.2" style="enable-background:new 0 0 834 820.2;" xml:space="preserve">
<style type="text/css">
	.st0{fill:none;}
	.st1{fill:#1C1C1B;}
	.st2{fill:#FDFDFD;}
	.st3{fill:#DFDFDF;}
</style>
<g>
	<path class="st0" d="M458.8,349.8c-8.9-1-24.2-1.5-22.5,11.7c27.3,121.9,55.4,243.7,83.1,365.5l0.1,0.4
		c16.6,3.6,32.9,8.8,48.2,15.9c-0.1-14.1,1.4-28.6-0.8-42.5c-7.7-7.5-24.8-0.8-28-15C511.9,573.9,485.6,461.7,458.8,349.8z"/>
	<path class="st0" d="M332.1,639.1c-5.9,23.4-10.7,47.2-16.3,70.7c-1.7,5.5,0.6,11.6,5.8,14c0,0.5,0,1.3,0,1.8
		c16.9-3.7,34.2-5.8,51.4-7.5c-1-6.8,3.3-18.2-5.7-20.7c-8.8,0.6-22.3-2.5-19.3-14.3c5.9-16.1,3.2-37.1,15.5-49.8
		C353.3,634.8,338.3,628.3,332.1,639.1z"/>
	<path class="st1" d="M807.7,344.8c-1.2-11.1-6.1-22.8-16.3-28.5c11.5-31.3,9.1-66.5-5.8-96.3c-0.2-20.7-1.3-42.8-11.7-61.4
		c-4.1-7.9-12.5-13.7-21.6-12.7c0.6-17.8,4.1-35.8,0.6-53.5c-5.7-24.4-15.7-51.1-38.4-64.5c-11.9-7.1-26.1-5.4-39.2-4.7
		c-3.1,57.4,6.7,116.4-9.1,172.5c-5.8-13.4-17.6-22-29.1-30.2c-12.3,12.9-20.4,29.5-17.8,47.8c1.3,24.3-10.5,46.2-15.8,69.3
		c-4.1,19.3-14.4,36.4-23,54c-13.5,27.9-30.6,54.4-53.4,75.6c-11.7,6.4-23.6,14.8-27.3,28.3c-11.3-46.6-22.1-93.2-33.4-139.8
		c-3.2-11.9-14.9-20.6-27.2-20.5c-29.7-0.2-59.3-0.1-89-0.1c-6.9-0.1-14,2.2-19,7.1c-11.9,11.9-6,30-7.4,45
		c-1.8,14.7,10.7,28.1,25.3,28.3c-5.3,25.3-11.4,50.4-16.8,75.7c-4.5-12.3-16.7-18.6-27.1-25.1c-17.5-18-33.3-37.9-44.6-60.5
		c-11.5-23.1-25.8-45.5-31.2-71c-5.2-21.8-16.4-42.5-14.9-65.4c2.4-18.6-5.2-35.9-18.2-48.8c-11.4,8.3-22.8,17.2-29.1,30
		c-15.2-56.2-6-115-8.8-172.4c-12.3-0.3-25.4-2.3-36.9,3.6c-23.4,12-34,38.6-40.1,62.7c-4.2,18.5-1.1,37.7,0.3,56.3
		c-8.5-0.6-16.6,4-20.9,11.2c-11.5,18.9-12.4,41.8-12.8,63.2c-14.9,29.7-17.1,64.8-5.8,96.1c-14.3,8.4-17.8,26.7-16.3,42
		c2.1,19.5,9.8,38.5,23.3,52.9c-17.3,19-6.4,49,11.1,64c-2.9,21.2,17.5,36.1,32.2,47.7c5.8,19.9,21.6,35.5,40.3,43.8
		c-1.8,23.1,20.3,39.2,41.2,41.7c31.3,33,88.4,30.7,119.7-1c-5.7,24.4-10.5,49.1-16.9,73.4c-13.7-0.4-27.6,10.1-27.5,24.5
		c0.3,22.4-0.8,45,0.6,67.4c4.8,8,3.4,22.7,13.3,25.8c48.4-24.2,103.6-30.2,157-31.2c49.8,0.1,100.4,5.5,147.2,23.6
		c9.9-1.2,13-13.9,19.1-20.5c0.3-23.3,0.5-46.7,0-70c-1.5-14.7-16.5-22.8-30.1-22.2c-5.8-23.9-11.5-47.7-17-71.6
		c28.1,29.4,78.4,34.9,111,10c5-3.2,8.2-9.6,14.9-9.4c19-3.2,37.3-19.6,35.5-40c18.4-8.6,34.6-23.8,40.3-43.8
		c14.7-12,35.3-26.8,32.5-48.4c17.5-14.6,28.1-45,10.8-63.5C800.9,393.7,809.5,368.9,807.7,344.8z M774.4,246
		c15,37.8,1,85.5-31.8,109.7c-35,26-75.6,43.2-114.6,62.3c-0.9-3.8-0.1-7.6,3.9-9c22.9-12.6,47.1-23.4,66.3-41.6
		c-22.7,14.1-46.9,25.9-72,34.8c-2.3-3.3-10.2-7.5-5.6-11.6c14.3-9.6,31.1-15,45.7-24.3c29.5-16.9,55.1-40.7,74.5-68.5
		C754.6,282.6,767.3,265.6,774.4,246z M760.3,175.4c8.2,21.2,8.5,45.1,3,67c-10.7,38.4-40,67.5-69.4,92.7
		c-14.1,13.7-28.7,29.6-48.9,33.4c-1.1-9.9,6-16.8,13.7-21.7c24.9-17.2,49.8-36.9,63.7-64.4c-21.7,24-44.9,47.2-73.1,63.4
		c-2.6-5.5-2.3-11.7-3.3-17.6c51.7-39.9,89.8-97.7,105.3-161.1C756.5,165.3,758.5,171.7,760.3,175.4z M73.5,175.6
		c1.8-3.7,3.6-10.1,9-8.6c16,63.2,53.5,121.4,105.5,161c-0.6,5.9-0.9,11.8-2.9,17.5c-28.7-15.6-52.5-39.3-73.7-63.8
		c14,29.3,41.2,49.3,67.1,67.6c6.8,4.2,11,11,10.5,19.2c-18.6-3.2-32.6-17.3-45.7-30C113.3,312,82,282.8,70.8,243
		C64.9,221,65.3,197,73.5,175.6z M59.2,245.8c7.4,19.5,20.1,37,34.2,52.4c26.6,38.9,66,68,109.4,85.7c3.8,3,8.3,4.8,11.9,8
		c0.8,4.5-4.5,7-6.9,10.1c-25.4-8.2-50-20.6-72.7-35.1c20.3,19.9,47,30.2,70.8,44.9c0.1,2.2,0,4.4-0.3,6.5
		c-30.7-15.1-61.8-29.6-91.3-46.9c-21.9-12.9-43.4-29.7-52.9-54.1C52.7,294.8,50,268.2,59.2,245.8z M45.8,343.2
		c1.1-9.8,13-10.6,18.3-3.7c39.8,43.4,94.2,69,145.7,95.4c2.8,0.6,5.7,2.5,4.6,5.8c-28.7-2.6-53.2-19-79.4-29.3
		c22.3,14,47.2,23.6,69.8,37.3c0.5,2.2-0.1,4.4-0.2,6.6c-35.4-11.8-74.2-12.2-108-28.4C65.2,412.9,37.7,379.3,45.8,343.2z
		 M59.6,442.1c-1.5-6.3-0.4-16.2,7.6-17c41.7,11.4,84.1,20.4,124.7,35.7c9.9-0.1,14.8,15.2,8.5,20.9c-29.4,1-57.2-11.3-85.1-19.1
		c25.2,15.7,55.4,21.8,84.6,25c0,3.1,1.3,8.9-3.6,8.2c-34-0.6-68.7-4.2-100.4-17C79.7,472.2,62.6,460.6,59.6,442.1z M98.8,507.9
		c-8.2-6.9-18.3-14.6-20.5-25.6c18.7,7.3,37.2,16,57.2,18.9c21.7,3,43.6,1.9,65.4,3.8c2.7,1.3,4,4.4,4.4,7.2
		c-29.5,5.9-59.4-3.4-89-5.3c26.5,11.1,55.7,13.4,84,16.5c2.1,0.4,3.8,1.8,5.3,3.2C169.5,535.6,130.3,526.9,98.8,507.9z
		 M169.6,592.1c-9-2.3-17.7-9.4-18.2-19.2c23.3-2,46.8,0.1,69.9-4.6c6.1,0.3,14.1-2.6,18.9,2.3c-21.1,6.4-43.3,7-64.9,10.4
		c25.8,2.1,51.4-3.7,77.2-3.9C227,588.8,197.9,598.6,169.6,592.1z M268.8,586.6c0.9-12.7,13.1-19.3,21.6-26.9
		c-18.6,1.6-42.3,7.6-56-9.3c4.7-7.3,14.9-5.8,21-10.6c-12.3-4.2-25.2-7.4-36.4-14.2c-6.3-3.2-6.8-16.9,2.2-16.4
		c7,1.5,13.9,5.5,21.3,3.9c-8.5-4.3-19.1-3.3-26.9-9.1c-5.3-4-3-13.4,3.3-15c9.4-1.9,19.3,2.1,28.4-1.7c-4.5-4.4-12.5-4.5-18-7.9
		c-12.8-5.2-23.7-19.9-18.8-33.9c11.7,0.8,20.9,9.1,30.6,14.8c-12.3-16.6-29.6-34-28.3-56.4c6.2-6.4,15.1,0,22.6-0.7
		c-17.2-17.1-37.8-35.1-40.4-60.9c-0.7-4.4-0.3-13.1,6.2-11.7c11.9,6.1,13.7,23.7,26.7,28.3c-10.1-14-13.8-34.3-31.2-43.1
		c-23.8-17.8-45.3-40.9-54-69.9c-4.3-14.2-4.7-29.2-8.3-43.5c-3.9,23.1,8.1,47.1,10.1,70.5c-17.9-12.8-29.8-33.1-35.7-54
		c-4.8-32.7-8.7-65.6-10.8-98.6c-1.9-21.4,5.5-42.7,16.7-60.6c6.2-9.1,15.9-17.3,27.6-16.6c-0.6,40.9-2.5,82,1.4,122.8
		c3.2,33.4,14.4,67.1,38.4,91.3c-4.2-21.1-4.9-48.1,12-64c7,17.4,0.5,37.2,7,55c10.3,29.4,15.2,60.7,31.3,87.9
		c14.7,29.6,30.5,59.3,54,82.9c7.6,12.8,25.6,14.6,31.4,28.7c8.5,22.9-19.3,43.2-8.7,65.9c1.3-0.3,2.6-0.5,3.9-0.8
		c1.7-5.1,4.3-9.8,6.9-14.5c-6.6,29-12.8,58.1-19.4,87C290.4,590.5,279.4,585.4,268.8,586.6z M279.3,775.5c-1.8-5.3-4-10.5-5-16
		c33.2-15.1,69.8-21.2,106-24c1.9,5.7,3.8,11.4,5.7,17.1C349.6,755.8,313.1,761.7,279.3,775.5z M553,769.4
		c-39.4-12.4-80.8-17.2-121.9-17.9c3-5.8,7-11.2,10.4-16.8c40.3,1.9,81.2,7.6,118.5,23.7C557.8,762.1,555.4,765.7,553,769.4z
		 M567,700.7c2.1,13.8,0.6,28.4,0.8,42.5c-15.4-7.2-31.7-12.3-48.2-15.9l-0.1-0.4c-23.4-4.9-47.1-8.1-70.9-9.7
		c0.5-5.7-2.3-14.4,4.7-17c8.4-2.1,22.5,0.3,24.6-11.1c0.5-15.2-5.5-29.7-7.9-44.5c-0.4-6.1-5.1-12.2-11.7-11.7
		c-31.6,0.2-63.2-0.5-94.8,0.4c-12.3,12.7-9.6,33.7-15.5,49.8c-3,11.8,10.5,14.9,19.3,14.3c9,2.5,4.7,13.9,5.7,20.7
		c-17.2,1.7-34.5,3.8-51.4,7.5c-19.1,3.8-37.8,9.5-55.6,17.5c0-12.6-0.2-25.2,0.1-37.7c1.6-7.5,10.7-5.6,16.2-7.2
		c8.7-1.7,10.8-11.6,12.6-18.9c24.9-111,50-221.9,74.7-332.9c-10.1-3.1-31.6,1.7-29.1-14.9c2.1-10.3-4.6-24.9,4.4-32.3
		c30.7-1,61.6-0.1,92.4-0.4c5.1-0.5,10.2,3.2,11.2,8.2c3.4,14.3,6.8,28.6,10.2,42.9c26.8,112,53.1,224.1,80.2,336
		C542.2,699.9,559.3,693.3,567,700.7z M565.2,586.4c-10.7-0.8-21.9,4.1-32-1c-5.9-29-13.2-57.7-18.7-86.8c2,4.8,4.9,9.3,6.4,14.3
		c1.2,0.3,2.5,0.7,3.7,1c11.2-22.4-16.8-42.8-8.6-65.7c5.1-14,22.8-15.6,30.4-27.7c31.8-32.5,51.2-74.5,69.5-115.5
		c5.2-20,11.9-39.7,17.6-59.6c5.6-16.9-0.4-35.6,6.2-52c17,15.6,16.2,42.9,12,63.9c13-13.7,23.4-30.1,29.4-48.1
		c16.6-53.6,10.7-110.6,10.5-165.9c12.1-1,22.2,7.8,28.3,17.4c10.6,17.4,17.9,38,16,58.6c-1.4,28.5-5,56.7-8.6,85
		c-1.9,26.9-16.6,52.5-37.8,68.8c1.7-23.2,14.2-48,9.8-70c-3.9,17-4.1,34.9-11,51.2c-11,27.4-32.9,48.5-56.4,65.5
		c-14.3,8.8-15.7,27.3-26.1,38.9c13.5-3.8,15-22.8,27.5-28.2c6.7-0.7,6,8.3,5.6,12.7c-3,25.4-23.3,43-40.4,60
		c6.4-0.2,12.5-2.3,18.9-2.4c10.5,12-2.9,30.1-10.8,40.9c-4.7,6.1-7.4,14.1-14,18.6c10-5.4,18.9-13.8,30.7-14.9
		c7.2,23.3-18.7,36.3-37.1,41.2c9,5.6,20.3-0.3,29.9,2.8c6.1,2.5,7,12.6,0.8,15.6c-8.2,4.5-17.7,4.8-26.4,7.9
		c9.4,3.6,18.5-6.8,27.2-2c2.9,4.6,1.9,12.7-3.7,15.2c-11.2,6.4-23.8,9.6-35.9,13.8c6.6,4.2,15.7,3.6,21.3,9.7
		c-12.7,18.2-37.5,11.5-56.1,10.1C552,567.1,564,573.8,565.2,586.4z M660.1,593.1c-27.3,4.5-54.5-5-79-16.1
		c25.8,0,51.5,6.1,77.3,3.9c-21.1-3.7-43.9-3.4-63.9-10.6c8.1-5.5,21.6-0.8,31.6-0.4c18.7,4.2,38.1-0.3,56.7,3.3
		C681.2,584.4,670.7,591.5,660.1,593.1z M734.9,508.1c-31.5,18.9-70.6,27.4-106.7,18.6c1.3-1.6,3.2-2.7,5.2-3.2
		c28.2-3.3,57.6-5.2,83.9-16.6c-29.5,1.8-59.8,11.6-89,4.9c1.1-2.5,2.1-5.6,4.8-6.8c21-1.7,42.2-0.9,63.2-3.5
		c20.8-2.7,40.1-11.5,59.3-19.2C753.5,493.3,743.2,501.1,734.9,508.1z M774.4,441.4c-2.9,19.2-20.7,31.1-37.3,37.9
		c-31.7,12.5-66.1,16.1-99.9,16.5c-4.6,0.3-3.4-5.4-3.2-8.3c29-3.1,59.3-9.1,84.3-24.9c-26.8,8-53.6,18.7-81.9,19.4
		c-10.1-0.1-4.3-12.7-2.4-17.9c42.6-17.5,88.1-26.7,132.3-38.9C774.3,425.4,775.8,435.2,774.4,441.4z M702.6,438.7
		c-24.6,4.8-49.2,9.7-73.2,16.6c-0.4-2.2-0.6-4.3-0.8-6.5c23.1-13.3,47.8-23.8,70.8-37.3c-26.4,9.8-50.8,26.2-79.5,29.5
		c-0.9-2.4-0.4-5.2,2.5-5.5c53.4-26.4,108.7-53.9,150-98c4-3.8,11.9-4.1,14.1,1.8c7,15.8,1.7,34-5.5,48.8
		C764.5,416,733.5,432.4,702.6,438.7z"/>
	<path class="st1" d="M413.2,364.3c-13.4,63.4-26.9,126.8-40.3,190.2c-1.6,6.3,3.8,13.1,10.3,12.8c20,0,40.1,0,60.1,0
		c6.3,0.3,11.7-6.2,10.4-12.4c-12.8-62.8-25.8-125.6-38.6-188.5C415,365.2,414.4,364.5,413.2,364.3z"/>
	<path class="st1" d="M293.3,449.4c5.5,3.4,5,10.1,1.8,14.9c-8.2,14.1-11.5,32.8-2.2,47.1c-2.6-17.3,3.8-34,11.1-49.3
		c4-6.9-1.3-14.5-6.3-19.3c-14.8-13.5-33.1-23.2-45.4-39.4C258.7,424.1,278.3,435.6,293.3,449.4z"/>
	<path class="st1" d="M540.8,509.3c0.5,0,1.4,0,1.9,0c9.2-17.9,0.2-36.2-6.7-52.9c11.9-19.4,39.6-28.5,45.1-52.9
		c-10.9,14.8-27.1,24.2-41,35.8c-5.9,4.9-12.8,11.6-11.5,20C535.4,475,543.9,491.7,540.8,509.3z"/>
	<path class="st1" d="M288.3,530.4c-19.6-18.2-16.7-49.7-4.2-71.2c-10.7-4.5-22-10.4-28.3-20.6c2.5,11.7,12.1,19,22.7,23
		c-7.5,12.2-13.8,26.2-13.3,40.8c3.5,19.8,17.2,36.6,34.3,46.7C305.5,540.5,293.7,535,288.3,530.4z"/>
	<path class="st1" d="M576.1,442.4c-7.7,7.1-16.5,13.1-26.3,16.9c13.1,22.1,15.4,55.7-6.7,73c-5.3,3.7-14,9.3-9,16.8
		c17.2-9.5,30.4-26.2,34.4-45.6c1-15-5.4-29.5-13.2-41.9C563.9,457.5,574.5,452.9,576.1,442.4z"/>
	<path class="st2" d="M807.9,311.3c8.6-30.7,6.2-64-7.7-92.8c-1.6-29.5-2.9-68.6-32.8-84.2c5.1-37.6-4.4-78.2-30.4-106.6
		C718.3,5.7,687.9,7.6,661.9,9.7c-3.8,51.3,3,102.8-3.2,154c-8.6-5.2-15.9-12.2-24.3-17.8c-7.4,10.2-15.6,19.7-22.5,30.2
		c-11,18.8-3.6,41.4-9.4,61.5c-9.7,26.5-13.7,55.2-28,79.9c-17.3,33.4-34.5,70.7-67.8,90.8c-9-37-17.6-74-26.5-111
		c-4.7-18.4-23-31.8-41.9-31.1c-30,0-60,0-90,0c-15.1,0-29.7,9.7-35.4,23.7c-5.5,13.5-2.2,28.3-3.1,42.5
		c-1.2,15.9,8.1,31.7,22.5,38.4c-2,12-5.2,23.7-7.7,35.6c-15.4-7.6-24.8-23-35.5-35.8c-20-32.7-40.2-66.6-48.7-104.4
		c-4.3-15.5-11.7-30.4-11.6-46.8c-0.2-15.6,0.8-32.6-8.5-46c-6.9-9.3-13.9-18.5-21-27.6c-8.1,5.9-15.8,12.4-24,18.1
		c-6.3-51.2,0.6-102.9-3.3-154.2C147,8,118,5.3,99.2,25.3C71.3,53.5,61.3,95.7,66.5,134.3c-29.8,15.4-31.3,54.4-32.7,83.8
		c-14,29-16.5,62.5-7.8,93.4c-23.1,26.7-15,68.2,2.5,95.9c5.5,4.7-0.3,10.6-0.9,16.1c-4.1,20.6,4.2,41.8,17.8,57.2
		c1.6,22.1,19.2,38.3,35.3,51.4c7,18.6,21.2,33.8,38.3,43.7c3,18.8,16.6,34.9,34.4,41.6c5.7,2.9,13.1,2.3,17.7,7.4
		c27.4,23.8,68.3,27.8,101.3,13.9c-1.9,9.9-4.3,19.7-6.5,29.5c-18.5,4.1-32.2,22.4-30.7,41.3c1.6,29.2-5.1,59.8,8.2,87.1
		c2.3,12.4,14.6,17.8,25.6,15.2c3-1.5,6-3,9.2-4.4c79.5-35.7,228.7-31.9,288.2-2.5c5.6,0.6,11.2-0.4,15.8-4.6
		c7-7.6,12.5-16.5,18.4-24.9c0.8-24.2,0.3-48.5,0.4-72.7c-0.1-18.5-15.1-34.7-33.2-37.6c-1.9-8.9-4.3-17.6-6.1-26.5
		c30.5,12.8,67.7,10.5,95-8.9c5.1-3,8.6-8.8,14.9-9.4c21.6-4.6,39.8-22.2,43.5-44.3c16.8-10.2,31.3-25,38.1-43.7
		c16.3-13.4,33.9-29.9,35.7-52.2c16.4-17.8,24-45,13.8-67.8C821.6,383.6,832.7,340,807.9,311.3z M773.6,474.9
		c2.8,21.6-17.8,36.4-32.5,48.4c-5.7,20-21.8,35.2-40.3,43.8c1.8,20.4-16.5,36.9-35.5,40c-6.7-0.1-9.9,6.2-14.9,9.4
		c-32.7,24.9-82.9,19.4-111-10c5.5,23.9,11.2,47.8,17,71.6c13.6-0.7,28.6,7.5,30.1,22.2c0.4,23.3,0.3,46.7,0,70
		c-6.1,6.7-9.2,19.3-19.1,20.5c-46.7-18.1-97.4-23.5-147.2-23.6c-53.5,1-108.6,7-157,31.2c-9.9-3.1-8.4-17.8-13.3-25.8
		c-1.3-22.3-0.2-44.9-0.6-67.4c-0.1-14.4,13.9-24.9,27.5-24.5c6.4-24.2,11.2-48.9,16.9-73.4c-31.3,31.7-88.5,34-119.7,1
		c-20.9-2.5-43-18.6-41.2-41.7c-18.7-8.3-34.5-23.9-40.3-43.8c-14.7-11.6-35.1-26.5-32.2-47.7c-17.4-15-28.4-45-11.1-64
		c-13.5-14.4-21.2-33.4-23.3-52.9c-1.6-15.3,2-33.7,16.3-42c-11.3-31.3-9.1-66.4,5.8-96.1c0.4-21.4,1.3-44.3,12.8-63.2
		c4.3-7.2,12.4-11.8,20.9-11.2c-1.4-18.7-4.5-37.8-0.3-56.3c6.1-24.2,16.6-50.8,40.1-62.7c11.5-5.9,24.6-3.8,36.9-3.6
		c2.8,57.4-6.4,116.2,8.8,172.4c6.3-12.9,17.7-21.7,29.1-30c13,12.9,20.6,30.2,18.2,48.8c-1.4,23,9.7,43.7,14.9,65.4
		c5.4,25.6,19.7,47.9,31.2,71c11.2,22.6,27,42.5,44.6,60.5c10.4,6.5,22.6,12.8,27.1,25.1c5.4-25.3,11.5-50.4,16.8-75.7
		c-14.6-0.2-27.1-13.6-25.3-28.3c1.5-14.9-4.5-33.1,7.4-45c5-4.9,12-7.3,19-7.1c29.7,0,59.3-0.1,89,0.1c12.3-0.2,24.1,8.5,27.2,20.5
		c11.2,46.6,22.1,93.2,33.4,139.8c3.6-13.6,15.6-21.9,27.3-28.3c22.8-21.2,39.9-47.7,53.4-75.6c8.6-17.5,18.9-34.7,23-54
		c5.3-23.2,17.1-45,15.8-69.3c-2.6-18.3,5.5-34.9,17.8-47.8c11.4,8.2,23.3,16.8,29.1,30.2c15.8-56.2,6-115.1,9.1-172.5
		c13.1-0.6,27.3-2.4,39.2,4.7c22.7,13.4,32.7,40,38.4,64.5c3.4,17.7-0.1,35.7-0.6,53.5c9.1-1,17.5,4.9,21.6,12.7
		c10.4,18.6,11.5,40.7,11.7,61.4c14.9,29.8,17.3,64.9,5.8,96.3c10.2,5.6,15.1,17.3,16.3,28.5c1.8,24.1-6.8,48.9-23.3,66.5
		C801.6,429.9,791.1,460.3,773.6,474.9z"/>
	<path class="st2" d="M268.9,811.8c3.3-0.8,6.5-2.2,9.2-4.4C274.9,808.8,271.9,810.3,268.9,811.8z"/>
	<path class="st2" d="M319.9,498.6c-2.6,4.7-5.2,9.4-6.9,14.5c-1.3,0.2-2.6,0.5-3.9,0.8c-10.6-22.7,17.2-43,8.7-65.9
		c-5.7-14.1-23.8-15.9-31.4-28.7c-23.6-23.7-39.3-53.3-54-82.9c-16-27.2-20.9-58.6-31.3-87.9c-6.4-17.8,0-37.7-7-55
		c-16.9,15.9-16.2,42.9-12,64c-24-24.3-35.2-58-38.4-91.3c-3.9-40.8-2-81.9-1.4-122.8c-11.7-0.7-21.4,7.5-27.6,16.6
		C103.4,77.7,96.1,99.1,98,120.4c2.1,33,6,65.9,10.8,98.6c5.9,20.9,17.8,41.2,35.7,54c-2-23.5-14-47.5-10.1-70.5
		c3.6,14.4,3.9,29.3,8.3,43.5c8.8,29,30.3,52.1,54,69.9c17.3,8.7,21,29.1,31.2,43.1c-13-4.6-14.8-22.2-26.7-28.3
		c-6.5-1.4-6.9,7.3-6.2,11.7c2.6,25.7,23.2,43.7,40.4,60.9c-7.5,0.6-16.5-5.8-22.6,0.7c-1.3,22.4,16,39.8,28.3,56.4
		c-9.7-5.7-18.9-14-30.6-14.8c-4.8,14.1,6.1,28.7,18.8,33.9c5.6,3.5,13.5,3.5,18,7.9c-9.1,3.8-19-0.2-28.4,1.7
		c-6.3,1.6-8.6,11-3.3,15c7.8,5.9,18.4,4.8,26.9,9.1c-7.4,1.6-14.3-2.4-21.3-3.9c-9-0.5-8.5,13.2-2.2,16.4
		c11.2,6.7,24.1,9.9,36.4,14.2c-6.1,4.8-16.3,3.3-21,10.6c13.7,16.9,37.3,11,56,9.3c-8.5,7.6-20.7,14.2-21.6,26.9
		c10.6-1.2,21.6,3.9,31.8-1C307.1,556.7,313.3,527.6,319.9,498.6z M252.4,403.5c12.3,16.2,30.6,25.9,45.4,39.4
		c5,4.7,10.3,12.4,6.3,19.3c-7.3,15.3-13.7,32-11.1,49.3c-9.3-14.3-6.1-33,2.2-47.1c3.2-4.8,3.7-11.5-1.8-14.9
		C278.3,435.6,258.7,424.1,252.4,403.5z M265.1,502.4c-0.4-14.6,5.8-28.6,13.3-40.8c-10.6-4-20.2-11.3-22.7-23
		c6.3,10.2,17.6,16.1,28.3,20.6c-12.5,21.5-15.4,53,4.2,71.2c5.4,4.7,17.2,10.1,11.1,18.8C282.3,539.1,268.6,522.2,265.1,502.4z"/>
	<path class="st2" d="M599.4,549.6c-5.6-6.1-14.7-5.6-21.3-9.7c12.1-4.2,24.7-7.4,35.9-13.8c5.5-2.5,6.6-10.6,3.7-15.2
		c-8.8-4.8-17.8,5.6-27.2,2c8.7-3.1,18.2-3.4,26.4-7.9c6.2-3,5.3-13.1-0.8-15.6c-9.6-3.1-21,2.8-29.9-2.8
		c18.4-4.9,44.4-18,37.1-41.2c-11.8,1.2-20.7,9.5-30.7,14.9c6.5-4.5,9.3-12.5,14-18.6c7.9-10.8,21.3-28.8,10.8-40.9
		c-6.4,0.2-12.5,2.3-18.9,2.4c17.1-16.9,37.4-34.6,40.4-60c0.4-4.4,1.2-13.4-5.6-12.7c-12.6,5.5-14,24.4-27.5,28.2
		c10.4-11.6,11.8-30.1,26.1-38.9c23.5-17,45.5-38.1,56.4-65.5c6.9-16.2,7.1-34.2,11-51.2c4.3,22-8.1,46.8-9.8,70
		c21.2-16.3,35.9-41.9,37.8-68.8c3.6-28.2,7.2-56.5,8.6-85c1.8-20.7-5.4-41.2-16-58.6c-6.1-9.6-16.2-18.4-28.3-17.4
		c0.2,55.3,6.1,112.2-10.5,165.9c-6,18-16.4,34.4-29.4,48.1c4.2-21,5-48.3-12-63.9c-6.6,16.4-0.6,35.1-6.2,52
		c-5.7,19.9-12.4,39.5-17.6,59.6c-18.2,41-37.7,83-69.5,115.5c-7.5,12.1-25.2,13.7-30.4,27.7c-8.2,22.9,19.7,43.3,8.6,65.7
		c-1.2-0.3-2.5-0.7-3.7-1c-1.5-5.1-4.3-9.5-6.4-14.3c5.5,29.1,12.8,57.8,18.7,86.8c10.1,5,21.3,0.1,32,1
		c-1.2-12.6-13.1-19.3-21.8-26.7C561.9,561.1,586.7,567.8,599.4,549.6z M540.1,439.3c14-11.5,30.2-20.9,41-35.8
		c-5.6,24.4-33.2,33.5-45.1,52.9c6.9,16.6,15.9,35,6.7,52.9c-0.5,0-1.4,0-1.9,0c3.1-17.6-5.4-34.3-12.2-50
		C527.3,450.9,534.2,444.2,540.1,439.3z M568.6,503.5c-4,19.3-17.3,36.1-34.4,45.6c-5-7.5,3.7-13.1,9-16.8
		c22.1-17.3,19.8-50.9,6.7-73c9.8-3.9,18.6-9.8,26.3-16.9c-1.6,10.5-12.3,15.1-20.7,19.3C563.2,474.1,569.6,488.5,568.6,503.5z"/>
	<path class="st2" d="M645.9,328.2c1,5.9,0.7,12.1,3.3,17.6c28.2-16.2,51.5-39.4,73.1-63.4c-13.9,27.5-38.8,47.2-63.7,64.4
		c-7.7,4.8-14.9,11.7-13.7,21.7c20.2-3.8,34.8-19.7,48.9-33.4c29.4-25.2,58.8-54.3,69.4-92.7c5.6-21.9,5.2-45.8-3-67
		c-1.8-3.7-3.8-10.1-9.1-8.3C735.6,230.5,697.5,288.3,645.9,328.2z"/>
	<path class="st2" d="M143.3,338.4c13,12.7,27,26.8,45.7,30c0.5-8.1-3.7-15-10.5-19.2c-25.9-18.3-53.1-38.2-67.1-67.6
		c21.2,24.6,45,48.2,73.7,63.8c2-5.6,2.3-11.6,2.9-17.5C136,288.3,98.4,230.2,82.5,167c-5.4-1.5-7.2,4.9-9,8.6
		C65.3,197,64.9,221,70.8,243C82,282.8,113.3,312,143.3,338.4z"/>
	<path class="st2" d="M114.3,371.4c29.5,17.3,60.6,31.7,91.3,46.9c0.3-2.2,0.4-4.3,0.3-6.5c-23.8-14.6-50.5-25-70.8-44.9
		c22.7,14.5,47.3,26.8,72.7,35.1c2.4-3.1,7.7-5.6,6.9-10.1c-3.6-3.2-8.1-5-11.9-8c-43.4-17.7-82.8-46.8-109.4-85.7
		c-14.1-15.4-26.9-32.9-34.2-52.4c-9.3,22.4-6.5,49,2.1,71.5C70.9,341.7,92.4,358.5,114.3,371.4z"/>
	<path class="st2" d="M666.2,366.4c-14.6,9.3-31.4,14.6-45.7,24.3c-4.6,4.1,3.3,8.4,5.6,11.6c25.2-8.9,49.3-20.7,72-34.8
		c-19.2,18.2-43.4,29-66.3,41.6c-4,1.4-4.8,5.2-3.9,9c39-19.1,79.5-36.3,114.6-62.3c32.9-24.2,46.9-71.9,31.8-109.7
		c-7.1,19.6-19.9,36.5-33.7,51.8C721.3,325.7,695.7,349.5,666.2,366.4z"/>
	<path class="st2" d="M458.8,349.8c-3.4-14.3-6.8-28.6-10.2-42.9c-1.1-5-6.1-8.7-11.2-8.2c-30.8,0.3-61.7-0.6-92.4,0.4
		c-9,7.5-2.3,22-4.4,32.3c-2.6,16.6,19,11.8,29.1,14.9c-24.7,111-49.8,222-74.7,332.9c-1.9,7.3-4,17.2-12.6,18.9
		c-5.5,1.6-14.7-0.3-16.2,7.2c-0.3,12.6-0.1,25.1-0.1,37.7c17.8-7.9,36.5-13.6,55.6-17.5c0-0.4,0-1.3,0-1.8c-5.3-2.5-7.5-8.6-5.8-14
		c5.6-23.5,10.4-47.3,16.3-70.7c6.3-10.8,21.3-4.3,31.4-5.9c31.6-0.8,63.2-0.1,94.8-0.4c6.6-0.5,11.3,5.5,11.7,11.7
		c2.4,14.9,8.4,29.4,7.9,44.5c-2.1,11.4-16.2,8.9-24.6,11.1c-7.1,2.6-4.2,11.3-4.7,17c23.8,1.5,47.5,4.8,70.9,9.7
		c-27.8-121.8-55.8-243.6-83.1-365.5C434.6,348.3,449.9,348.7,458.8,349.8z M443.3,567.2c-20,0-40.1,0-60.1,0
		c-6.5,0.3-11.9-6.5-10.3-12.8c13.4-63.4,26.9-126.8,40.3-190.2c1.2,0.2,1.8,0.9,1.8,2.1c12.8,62.8,25.8,125.6,38.6,188.5
		C455.1,561,449.6,567.6,443.3,567.2z"/>
	<path class="st2" d="M96.7,426.9c33.9,16.3,72.6,16.6,108,28.4c0.1-2.2,0.6-4.4,0.2-6.6c-22.6-13.7-47.6-23.2-69.8-37.3
		c26.2,10.3,50.7,26.7,79.4,29.3c1.1-3.3-1.8-5.2-4.6-5.8c-51.5-26.4-105.9-52-145.7-95.4c-5.4-7-17.2-6.2-18.3,3.7
		C37.7,379.3,65.2,412.9,96.7,426.9z"/>
	<path class="st2" d="M786.4,339.3c-2.2-6-10.1-5.6-14.1-1.8c-41.3,44.2-96.5,71.6-150,98c-2.9,0.4-3.4,3.1-2.5,5.5
		c28.7-3.3,53-19.7,79.5-29.5c-23,13.4-47.7,23.9-70.8,37.3c0.1,2.2,0.4,4.3,0.8,6.5c24.1-6.9,48.7-11.8,73.2-16.6
		c31-6.4,62-22.7,78.4-50.6C788.1,373.4,793.4,355.1,786.4,339.3z"/>
	<path class="st2" d="M196.3,495.9c5,0.6,3.7-5.2,3.6-8.2c-29.2-3.2-59.4-9.3-84.6-25c27.9,7.8,55.7,20,85.1,19.1
		c6.2-5.7,1.4-21-8.5-20.9c-40.6-15.2-83-24.3-124.7-35.7c-8,0.7-9.2,10.7-7.6,17c3.1,18.5,20.2,30.1,36.3,36.8
		C127.6,491.7,162.3,495.3,196.3,495.9z"/>
	<path class="st2" d="M766.3,425.2c-44.2,12.3-89.7,21.5-132.3,38.9c-1.9,5.2-7.7,17.8,2.4,17.9c28.3-0.8,55.1-11.5,81.9-19.4
		c-24.9,15.8-55.2,21.8-84.3,24.9c-0.2,2.9-1.4,8.6,3.2,8.3c33.8-0.5,68.2-4.1,99.9-16.5c16.6-6.8,34.5-18.7,37.3-37.9
		C775.8,435.2,774.3,425.4,766.3,425.2z"/>
	<path class="st2" d="M205.6,526.6c-1.6-1.4-3.2-2.8-5.3-3.2c-28.3-3.1-57.5-5.4-84-16.5c29.5,1.9,59.5,11.1,89,5.3
		c-0.4-2.8-1.6-5.9-4.4-7.2c-21.8-1.9-43.7-0.8-65.4-3.8c-20.1-2.9-38.5-11.6-57.2-18.9c2.2,11,12.3,18.7,20.5,25.6
		C130.3,526.9,169.5,535.6,205.6,526.6z"/>
	<path class="st2" d="M633.1,505c-2.8,1.2-3.7,4.3-4.8,6.8c29.3,6.7,59.5-3.1,89-4.9c-26.4,11.4-55.7,13.3-83.9,16.6
		c-2,0.6-3.8,1.6-5.2,3.2c36.1,8.7,75.1,0.3,106.7-18.6c8.3-6.9,18.6-14.8,20.7-25.8c-19.3,7.8-38.5,16.6-59.3,19.2
		C675.3,504.1,654.1,503.2,633.1,505z"/>
	<path class="st2" d="M626.1,569.9c-10-0.4-23.6-5.1-31.6,0.4c20,7.2,42.7,6.9,63.9,10.6c-25.8,2.2-51.5-3.8-77.3-3.9
		c24.5,11.1,51.7,20.5,79,16.1c10.6-1.5,21-8.7,22.7-19.8C664.3,569.6,644.8,574.1,626.1,569.9z"/>
	<path class="st2" d="M175.2,580.9c21.6-3.4,43.8-4,64.9-10.4c-4.8-4.9-12.7-2-18.9-2.3c-23.1,4.7-46.7,2.6-69.9,4.6
		c0.5,9.8,9.2,17,18.2,19.2c28.3,6.6,57.5-3.2,82.8-15.1C226.7,577.2,201,583,175.2,580.9z"/>
	<path class="st2" d="M431.1,751.4c41.2,0.7,82.5,5.5,121.9,17.9c2.4-3.6,4.8-7.3,7-11c-37.3-16.1-78.2-21.8-118.5-23.7
		C438,740.3,434.1,745.6,431.1,751.4z"/>
	<path class="st2" d="M274.2,759.6c1,5.5,3.3,10.7,5,16c33.9-13.9,70.3-19.8,106.6-22.8c-1.9-5.7-3.8-11.4-5.7-17.1
		C344,738.3,307.4,744.4,274.2,759.6z"/>
</g>
<g>
	<path class="st3" d="M436.3,361.4c-1.7-13.1,13.6-12.7,22.5-11.7c26.8,112,53.1,224.1,80.2,336c3.2,14.1,20.4,7.5,28,15
		c2.1,13.8,0.6,28.4,0.8,42.4c-15.4-7.2-31.7-12.3-48.2-15.9l-0.1-0.4C491.6,605.1,463.6,483.3,436.3,361.4z"/>
	<path class="st3" d="M577.3,438.7"/>
	<path class="st3" d="M540.6,510.5"/>
	<path class="st3" d="M332.1,639.1c6.3-10.8,21.3-4.3,31.4-5.9c-12.3,12.7-9.6,33.7-15.5,49.8c-3,11.8,10.5,14.9,19.3,14.3
		c9,2.5,4.7,14,5.7,20.7c-17.2,1.7-34.5,3.8-51.4,7.5c0-0.5,0-1.3,0-1.8c-5.3-2.5-7.5-8.6-5.8-14
		C321.4,686.3,326.2,662.5,332.1,639.1z"/>
</g>
</svg>
