<?xml version="1.0" encoding="utf-8"?>
<!-- Generator: Adobe Illustrator 21.0.0, SVG Export Plug-In . SVG Version: 6.00 Build 0)  -->
<svg version="1.1" id="Layer_1" xmlns="http://www.w3.org/2000/svg" xmlns:xlink="http://www.w3.org/1999/xlink" x="0px" y="0px"
	 viewBox="0 0 282.9 327" style="enable-background:new 0 0 282.9 327;" xml:space="preserve">
<style type="text/css">
	.st0{fill:#DDAE22;stroke:#FFFFFF;stroke-width:9.375000e-02;}
</style>
<path class="st0" d="M123.2,0.2c23.2-0.3,46.4,0,69.6-0.2c2.6,0,5.3,0.1,7.9,0.3c-5.3,1.5-10.5,3.1-15.9,3.8
	c-9.3,1.3-18.7,2.7-28,1.8c-8.1,0.6-16.1-0.7-24-2.2C129.4,3,126.3,1.7,123.2,0.2z"/>
<path class="st0" d="M224.9,0.1c18.2,0,36.4,0,54.5,1.6c-1.1,10.2-3.1,20.2-4.6,30.3c-1,8.6-2.7,17-3.9,25.5c-1.6-2.1-3.5-4-4.5-6.5
	c-2.2-5.6,1.9-11.9-1.3-17.3c-2.5-4-5.8-7.9-6.1-12.8c-0.1-3.7-2.4-7.6-6.2-8.4C242.5,10.8,233.4,5.6,224.9,0.1z"/>
<path class="st0" d="M98.2,4.4c6.9-1.6,14.4-1.6,21,1.2c4.8,1.4,9.2,3.9,13.5,6.4c7.6,1.2,15.4-0.2,23-0.2c8.3-0.5,16.6-2,24.9-2
	c0.4-0.1,1.3-0.5,1.8-0.6c5.4-1.3,11.1-1.5,16.4-3.3c2.8-1,5.8-0.8,8.6-1.6c11.3-1.5,22.7,3.3,30.5,11.4c3.1,3.3,7.7,2.9,11.8,2.5
	c3.1,1.2,2.5,5.2,3.1,7.8c0.2,3.9,2.9,6.9,4.2,10.5c0.8,2.8,0.1,5.7,1,8.5c0.8,3,2.4,5.8,2.4,8.9c0.1,3.6-2.4,7-5.9,7.9
	c-3,0.7-5.2,5.3-8.6,3.1c-3.5-4-6.6-8.4-10.4-12.1c-1.6,2.7,1.3,4.7,2.5,6.8c3.4,4.4,2.5,10.2,3,15.4c1,5.8-7.5,8.9-11.2,5
	c-1.6-1.4-1.8-3.5-2.2-5.5c-3.3,0.5-6.6,1.6-9.9,0.9c-2.1-1.9-3.2-4.8-3.2-7.6c0.5-4,4.1-6.5,7.6-8c-1.1-1.4-2.2-3.3-4.3-3.1
	c-5.3-0.1-9.9,3.2-15.1,3.8c-2.4,0.2-3.8-1.8-5.1-3.6c-6.5,3-13.7,4.7-20.9,4.1c-12.9-1.3-25.2-5.8-37.4-9.6
	c-3.5-1.3-7.7-1.9-11.1,0.1c-3.7,2.1-6.1,5.8-9.4,8.4c-6.7,5.8-15.3,8.8-24,10c-3.5,0.5-7,0.3-10.3,1.8c-4.4,1.6-8,4.7-11.9,7.2
	c1-5.7,1.6-11.5,2.4-17.2c0.3-2.9,2.4-5.1,3.9-7.4c-0.8-0.3-2.3-0.9-3-1.2c0.8-5.6,1.5-11.2,2.4-16.7c1.4,0.7,2.7,1.5,4,2.3
	C86,39,90,39.3,93.4,37.5c4.3-1.9,6.2-6.5,9.2-9.8c4.3-5.4,10.3-9.6,17.2-10.9c-5.2-3.6-11.7-5.5-18-4c-6.7,1.9-12.9,5.4-18,10.1
	c-12,10.4-23.2,23.1-38.9,27.8c-6.5,2.5-14.1-0.3-18-6c-5.7-8.1-7.1-18.6-5.3-28.2c0.4-2.8,2.9-4.4,4.7-6.3c1.6,1.9,3.8,3.8,3.9,6.5
	c0.3,7.1-1.8,15,2.3,21.3c2.1,4,7.3,5.2,11.3,3.6c8.8-1.7,15.4-8.2,22-13.8C76,19.5,85,8.4,98.2,4.4z"/>
<path class="st0" d="M84.2,24.9c8.4-5.7,18.5-11.2,29-8.3c-8.2,1.5-13.3,8.5-18.2,14.6c-3.1,3.9-8.4,4-12.9,3.9
	C82.8,31.7,83.5,28.3,84.2,24.9z"/>
<path class="st0" d="M126.6,61c1.8-2.3,4-4.5,7-4.8c7.2-1,13.1,4,19.6,6c13.5,6,29.6,8.3,43.4,1.8c3,1.3,6,2.7,9.3,3.2
	c2,0,3.7-1.4,5.4-2.1c-0.6,3.2-1.8,7.6,1.3,9.9c3.5,3.4,8.8,2.5,13,4.2c1.1,1.6,1.3,3.7,1.8,5.5c-22.2,0-44.5-0.2-66.7-0.3
	c-2.2,0.5-3.2-1.7-4.6-3c-3-3.6-7.9-5.5-9.9-10c-0.4-2.2-0.2-4.5-0.2-6.7c-3.6-0.2-7.2-0.5-10.7-0.7c0.5-1,0.9-2,1.4-3
	C133.3,61,130,61.1,126.6,61z"/>
<path class="st0" d="M111.9,68.2c6-2.5,12.4-3.5,18.9-2.9c-0.1,0.5-0.4,1.5-0.6,2c3.6,0,7.3,0,10.9,0.1c-1.2,1.4-2.4,2.8-3.5,4.3
	c1.5,0.7,3,1.5,4.5,2.2c1.8,5,7,7.4,10.3,11.3c-0.1,0.3-0.3,0.8-0.4,1.1l-0.5-1.6c-1-0.2-3.1-0.4-4.1-0.6c1.6,6.6,4.9,12.8,9.2,18.1
	c1.9,2.7,4.8,5.6,3.7,9.1c-1.5,3.3-3.8,6.1-5.7,9.1c-1.4,2.2-3.8,4.7-6.6,3.8c-3.4-1.6-6.5-3.9-9.7-5.9c-1.8,3.5-2.8,7.5-5.5,10.5
	c-1.2,1.3-0.9,3.2-1.2,4.8c-0.5-0.4-1.4-1.3-1.8-1.8c-0.3,2.6-0.6,5.3-0.8,7.9c-0.5-0.2-1.5-0.6-2-0.8c-0.6,3.6-2.5,7.8-6.7,8.1
	c0.3,0.7,0.9,2.1,1.2,2.8c-5.3,2.9-10.5,6.4-13.6,11.8c-1.6-2.1-3.1-4.2-4.7-6.4c-0.6,0.8-1.3,1.6-1.9,2.4c0-0.8,0-2.4,0-3.2
	c-0.8,0.8-1.6,1.6-2.4,2.5c-0.3-2.1-0.6-4.2-1.2-6.2c-1,2.5-2,5.1-2.9,7.6c-1.3-3.4-2.1-6.9-3-10.4c-0.6,1.6-1.2,3.2-1.7,4.8
	c-0.6-1.6-1.2-3.3-1.8-4.9c-0.7,1.3-1.4,2.5-2.2,3.8c-0.7-1.4-1.4-2.8-2.1-4.1c-1.2,6.1-2.2,12.3-3.1,18.4
	c-5.3-0.7-10.4-2.1-15.6-3.3c-0.7-4.6-1.2-9.1-2-13.7c2.8-19.5,5.6-39.1,8.4-58.6c0.8-0.3,1.5-0.5,2.3-0.8c-2-0.3-2.2-1.8-2-3.5
	c4-1.9,7.9-3.9,11.8-5.9l-1.1-1.4c3.7-0.7,7.5-1.5,11.2-2.1c-0.4-0.5-1.2-1.5-1.6-1.9C99,73.2,105.5,70.8,111.9,68.2z"/>
<path class="st0" d="M165.8,107.7c11.4,0.7,22.8,2.1,34.2,3.1c10.3,1.6,21.1,1.9,30.7,6.6c12.4,5.4,22.9,14.8,30.8,25.7
	c-5.1-3.6-11-5.8-17-7.5c-10.7-2.5-21.6-4.1-32.5-5.1c-7.9-0.9-11.3-9.4-18.2-12.3c-5.8-2.7-12.2-3-18.4-3.9
	C171.3,113.4,168.2,110.6,165.8,107.7z"/>
<path class="st0" d="M164.5,121.7c3.6-1.8,7.1-4.9,11.4-4.6c4.9,0.8,9.1,3.8,13.5,5.9c5.2,3.3,9.4,8,14.5,11.4
	c5.2,3.3,11.6,2,17.3,3.5c12,1.3,23.6,4.8,35,8.5c2.8,1,6.3,1.2,8.6,3.1c12,19,20.4,41.6,17.2,64.4c-3.2,17.9-7.2,36-15.8,52.1
	c-1.3-2.3-2.6-4.6-4.2-6.8c3-4.2,3.2-9.5,3.3-14.5c-0.2-5.4-4.8-9.3-9.3-11.5c-5.5-2.2-11.4-3.7-17.4-3c-2.1,0.2-4.4,1.2-5.2,3.4
	c-0.3,2.6,1.6,4.8,2.8,6.9c-5.5-1.5-11.2-1.4-16.8-0.6c-4.9,0.6-9.7,2.3-14.7,1.2c2.3-1.6,5.8-1.2,7.4-3.7c1.4-1.7,0.2-4-0.9-5.5
	c-2.2-3.6-7-4.7-11-4.2c-5.2,0.7-9,4.9-11.5,9.2c-3.4-0.2-6.9-0.1-10.4,0.2c6.7-9.4,8.7-21.5,6.2-32.7c-1.8-5.8-4.3-11.8-9.1-15.8
	c-5.7-2.5-12.2,1.3-18-1.2c-4.8-2.3-9.2-5.4-14-7.9c-4.3-2.5-8.8,0.6-13.1,1.4c-0.1-2.7,0.9-5.1,1.9-7.5c-8.5,3-15.8,8.9-24.8,10.5
	c-10.8,3-22.3,1.3-32.7-2.6c-4.3-1.6-9-2.6-12.9-5.1c-4.9-2.6-8.8-7.4-14.5-8.3c-0.8,0.3-2.4,1-3.1,1.4c-2.8-1-5.3-4.6-3.3-7.4
	c0.7-1.7,2.9-0.7,4.3-0.7c4.4,0.6,8.9,0.5,12.9,2.6c10.1,4.8,20.7,10.2,32.3,9.6c8.3-0.5,15.9-4.4,22.3-9.5
	c6.5-5.6,13.7-10.4,20.7-15.3c2.1-1.5,4.3-2.9,5.9-5c2.1-2.6,2.7-6,4.3-8.8c2.6-1.5,5.6-2.2,8.2-3.8
	C156.9,128.9,159.8,124.1,164.5,121.7z"/>
<path class="st0" d="M195.4,234.5c3.2-4.8,11.6-3.5,14.1,1.2c-2.9,0.6-7.5-2.3-9,1.4c-1.2,2.7,0.3,5.6,1,8.3
	c5.8-0.6,11.7,0.8,17.4-0.6c4.5-1.2,9.3-2.3,13.9-1.4c4.7,1.2,8.9,3.8,13.1,6.2c1.9,1.6,4.7-0.4,4.5-2.7c-0.2-2.9-1.2-6.3-3.8-7.9
	c-2.7-1.2-5.7-1.6-8.3-3c9.1-4.3,20.5,3.2,21.5,12.9c0.8,4.1-1.9,7.7-4.6,10.5c2.2,1.8,4.4,3.6,6.4,5.7c-0.3,0.3-0.9,0.8-1.2,1.1
	c0.9,1.2,1.9,2.5,2.8,3.7l-2.8-0.3c0.6,0.7,1.8,2.1,2.4,2.8c-2-1.1-3.9-2.1-6-3.1c0.1,2.3,1.2,4.3,2.2,6.2c-1.6-1-3.3-1.8-4.9-2.6
	c-0.1,3.7,2.6,7.7,0.7,11.2c-2.3,1.3-4.6,2.5-7.1,3.4c-3,0.2-5.9-1.1-8.9-1.1c-3.7,1.9-7.7,2.5-11.8,3.1c-3.9,1.7-8.1,4-9.9,8.1
	c-1.6,3.5-5.3,5.4-7,8.8c-3.1,5.4-6.9,10.4-11.8,14.3c-8.5,2.5-17.3,3.2-26,4.8c-1.3-2.5-1.5-5.8-3.8-7.6
	c-6.2-1.1-11.8,2.4-17.8,3.2c-3.8,0-7.6-0.3-11.3-0.4c1.8-8.1,5.7-15.7,7.7-23.7c1.5-7.4,1.9-15.3-0.9-22.4
	c-3.6-8.9-9.7-16.7-17.3-22.4c13,0.1,26.1-1.3,38.6-5.2c8.5-3.8,18-1.8,27-1.3C194.2,241.8,193.4,237.8,195.4,234.5z"/>
<path class="st0" d="M36.6,243.8c-0.3-2.8-0.8-6.1,2.1-7.9c1.8,3.1,4,6.8,8.1,6.7c4.3-0.4,7.4-3.8,11.1-5.6c4-1.4,8.3,0.9,10.2,4.5
	c1.8,3.4,6.1,3.2,9.3,4.1c4.4,0.9,7.9,4.4,12.5,4.6c5,0.3,10-0.8,15-0.5c13.3,0.5,25.6,8.2,33.2,18.9c4.2,7.5,5.7,16.5,3.5,24.9
	c-1.7,4.6-3.6,9.1-4.9,13.9c-0.9,3.5-0.3,7.1-1.3,10.6c-0.8,2.9-0.8,5.9-0.7,8.9c-3.4-0.3-6.8-0.7-10.2-1.2
	c1.1-6.3,1.9-12.9,0.7-19.3c-0.7-2.3-2.4-7-5.5-4.8c-3.7,2.1-1.2,6.8-0.6,10c1.6,4.4,0.1,8.9-1.3,13.1c-3.4-0.5-6.8-1.1-10.2-1.6
	c1.5-5.3-2.2-10-3.2-15.1c-4.4,1.1-9.6-1.1-13.4,2.1c-2.9,2.2-3.9,6-5.4,9.2c-4.5-0.7-8.9-1.7-13.3-2.9c0-2.1,1-4.6-0.5-6.5
	c-2-2.4-5.4-2.4-8.2-2.6c-0.6,1.9-1.2,3.9-1.8,5.8c-5.7-2.3-11.4-5-16.1-9c-5.3-4.1-1.1-11.6-3.5-17c-6.2,3.6-13.3,5.9-20.4,7
	c-3.4,0.8-6-2-8.8-3.5c-2.3-1.6-5.5-2.8-6.2-5.8c-0.2-4,0.4-8.2-1.2-12c-3.2-7.2-6.1-15-5.3-23c0-1.6,1-2.8,1.7-4.1
	c2.9,7.4,5.1,17.2,13.7,19.9c2.3-1.8,5-3.5,8-3.6c6.1,0.1,11.4-6.3,9.9-12.3c-0.6-2.5-2.8-4.2-4.1-6.4c-0.8-1.8-0.3-3.9-0.2-5.8
	C31.8,239.7,34.2,241.7,36.6,243.8z"/>
</svg>
