<?xml version="1.0" encoding="utf-8"?>
<!-- Generator: Adobe Illustrator 21.0.0, SVG Export Plug-In . SVG Version: 6.00 Build 0)  -->
<svg version="1.1" id="Layer_1" xmlns="http://www.w3.org/2000/svg" xmlns:xlink="http://www.w3.org/1999/xlink" x="0px" y="0px"
	 viewBox="0 0 108.1 95.1" style="enable-background:new 0 0 108.1 95.1;" xml:space="preserve">
<style type="text/css">
	.st0{fill:#1F2121;stroke:#1F2121;stroke-width:9.375000e-02;}
	.st1{fill:#9A0A0A;stroke:#9A0A0A;stroke-width:9.375000e-02;}
	.st2{fill:#D4D4D4;stroke:#D4D4D4;stroke-width:9.375000e-02;}
</style>
<path class="st0" d="M21.5,0h65.1c3.4,1.5,6.6,3.7,8.4,7c4,6.7,7.8,13.5,11.6,20.3c2.7,4.4,1.1,9.8-1.3,14
	c-9,15.7-17.9,31.4-26.9,47c-1.8,3.4-5.3,5.3-8.8,6.7H38.5c-2.7-1.2-5.7-2.4-7.5-4.9C29,87.6,27.6,84.8,26,82
	C18.3,68.5,10.5,54.9,2.8,41.4c-2.4-4.1-4-9.6-1.3-14C5.3,20.6,9.1,13.8,13,7.1C14.9,3.8,18.1,1.6,21.5,0 M18.6,15.4
	c2,3.9,6.5,11.6,12.1,19.6c7.6-15.9,0,0,7.6-15.9c10.9,0.2,21.8,0,32.7,0.3c-7.9,14.8-16.6,29.1-24.7,43.7
	c8.3,13.5,8.1,13.5,8.3,13.5c11.5-20.7,23.5-41.3,35.2-61.9c1.9-3.9-1.4-9.3-5.8-9.1c-19.7-0.1-39.3,0-59,0
	C20.1,4.9,15.9,11.2,18.6,15.4 M6.3,31.3c-1.3,2.4,0.4,4.9,1.5,7.1C16.6,53.6,25.3,68.8,34,84.1c1.4,2.2,3.1,4.9,6.1,4.8
	c4.1,0.1,8.1-0.1,12.2,0c-4-8.6-9.7-16.5-13.9-25.1c0.1-3.2,3-5.4,4.3-8.1C48,45.8,54.1,36.4,59,26.4c-4.3,0-8.6-0.2-12.8,0
	c-2.3,0-3.9,2-5,3.7c-3.6,6.1-6.7,12.5-10.4,18.6c-0.3,0-0.9,0-1.2-0.1C24.3,39.2,18.2,29.9,13,20.4 M56.5,89.2
	c3.9,0,7.7,0.3,11.6,0c2.5-0.2,4.7-2,5.8-4.2c8-14,16.1-27.9,24-42c1.6-2.9,3.7-5.6,4.5-8.9c-6.6-13.6,0,0-6.6-13.6
	C92.5,24.5,56.7,88.5,56.5,89.2z"/>
<path class="st1" d="M18.6,15.4c-2.6-4.3,1.5-10.6,6.5-9.8c19.7,0,39.3,0,59,0c4.4-0.3,7.7,5.2,5.8,9.1
	C78.1,35.3,66.2,55.9,54.6,76.6c-0.3,0,0,0-8.3-13.5C54.4,48.5,63.1,34.2,71,19.4c-10.9-0.2-21.8,0-32.7-0.3c-7.6,15.9,0,0-7.6,15.9
	C25.1,27,20.6,19.4,18.6,15.4z"/>
<path class="st2" d="M13,20.4c5.2,9.5,11.4,18.8,16.6,28.2c0.3,0,0.9,0,1.2,0.1c3.7-6,6.9-12.4,10.4-18.6c1.2-1.7,2.8-3.6,5-3.7
	c4.3-0.2,8.6,0,12.8,0c-4.9,10-11,19.4-16.3,29.2c-1.3,2.8-4.2,5-4.3,8.1c4.2,8.6,9.8,16.5,13.9,25.1c-4.1-0.1-8.2,0.1-12.2,0
	c-2.9,0.1-4.7-2.6-6.1-4.8C25.3,68.8,16.6,53.6,7.8,38.4c-1.1-2.2-2.8-4.7-1.5-7.1C8,27.5,12.7,20.4,13,20.4z"/>
<path class="st2" d="M95.7,20.4c6.6,13.6,0,0,6.6,13.6c-0.7,3.3-2.9,6-4.5,8.9c-7.9,14.1-16,28-24,42c-1.2,2.2-3.3,4-5.8,4.2
	c-3.8,0.3-7.7,0-11.6,0C56.7,88.5,92.5,24.5,95.7,20.4z"/>
</svg>
