<?xml version="1.0" encoding="utf-8"?>
<!-- Generator: Adobe Illustrator 21.0.0, SVG Export Plug-In . SVG Version: 6.00 Build 0)  -->
<svg version="1.1" id="Layer_1" xmlns="http://www.w3.org/2000/svg" xmlns:xlink="http://www.w3.org/1999/xlink" x="0px" y="0px"
	 viewBox="0 0 405.5 510.8" style="enable-background:new 0 0 405.5 510.8;" xml:space="preserve">
<style type="text/css">
	.st0{fill:url(#SVGID_1_);stroke:#0D2346;stroke-width:9.375000e-02;}
	.st1{fill:#E1E1E1;stroke:#E1E1E1;stroke-width:9.375000e-02;}
</style>
<linearGradient id="SVGID_1_" gradientUnits="userSpaceOnUse" x1="202.7637" y1="4.687500e-02" x2="202.7637" y2="510.7057">
	<stop  offset="0" style="stop-color:#133059"/>
	<stop  offset="1" style="stop-color:#081831"/>
</linearGradient>
<path class="st0" d="M137.4,43c42.4-25.4,90.9-41.2,140.4-42.9c8.3,0.2,16.6-0.5,24.9,0.6C314.2,1,325.2,4,336.4,6.2
	c-2.9,8.4-6.1,16.7-10.2,24.6c-7.9,16.2-10.6,34.9-7.4,52.6c1.6,9.3,4.4,18.3,8.2,26.9c0.8,1.8,1.9,3.3,3.1,4.9
	c1.5-0.2,3.4,0.5,4.7-0.7c3.6-3.1,6.2-7.1,9.8-10.2c9.7-9,22.9-14.2,36.1-13.6c8.7-0.1,17,3,24.7,6.6c0.1,1.2,0,2.4-0.5,3.4
	c-2.1,4.3-3.9,8.7-6.3,12.8c-2.1,3.7-5.1,6.8-7.1,10.6c-3.9,7-5.4,15.2-5.2,23.2c2.5,28.7,5.8,57.3,9.4,85.8
	c2.6,22.1,8.1,43.9,7.6,66.2c0,34.1-11.6,67.6-31,95.5c-21.8,31.5-48.3,60-79,83c-14.4,10.6-29.3,21.1-46.4,27.1
	c-10.6,3.6-21.9,6.1-33.1,5.8c-20.1,0.6-39.9-5.6-57.8-14.5c-32.9-16.1-61.1-40.5-85-68C43.9,396.7,22.4,360,9.4,320.4
	c-6.2-19.7-9.7-40.3-9.4-61c-0.2-34.6,9.9-68.8,25.5-99.5C50.7,111.3,90.7,71.1,137.4,43 M57.3,341.8c-3.6,1.2-4.9,6-3,9
	c0.9,1.4,2.2,2.4,3.6,3.4c18.6,10.9,37.4,21.7,55.8,33.1c6.3,3.7,10.6,9.6,15.4,14.9c-8.3,3-17.6,2.7-26-0.2
	c-6.4-2.3-13-5.9-16.7-11.8c4.7-0.2,9.4,0,14.1-0.2c-8.8-12-22.9-17.9-35.6-24.8c-5.2-2.6-9.9-6.1-14.9-9.2
	c5.4,20.1,19.6,37.3,37.6,47.4c17.3,9.9,37.5,13.3,57.3,13.1c-11.1,6-24.7,7.1-36.8,3.5C94.4,416,82.8,407.3,71,399.5
	c3.9,11.8,13.6,20,22.1,28.6c27,26.1,61.5,44.3,98.4,51.7c11.6,2.3,23.5,3.2,35.4,2.3c19.5-1.3,38.4-7.8,55.1-17.7
	c15.2-8.9,28.6-20.6,40.9-33.1c-33.5,14.9-68.9,28.6-106.1,28.9c-21.9,0.4-43.8-4.7-63.4-14.4c-1.2-0.7-3.2-1.1-2.9-3.1
	c10.8,2.6,21.4,6.1,32.4,8c16.7,3.3,34.3,3.4,50.7-1.5c0-0.6,0.1-1.9,0.1-2.6c-5-1.2-9.9-2.5-15-3.3c-12.3-2.1-23.5-8.9-32.1-17.9
	c-18.8-19.8-39.1-38.3-60.4-55.4c-16.1-12.8-33.8-24.3-53.9-29.4C67.4,339.8,62.1,339.9,57.3,341.8 M298.8,388.8
	c1.6,3.9,2.8,8.4,0.9,12.5c-2,5.1-7,7.9-11.3,10.8c-9.6,6.2-21.4,8.8-32.8,7.2c4.9-4.3,10.7-7.5,15.9-11.3c-0.1-0.6-0.4-1.7-0.6-2.2
	c-16.2,2.1-32.3,4.3-48.5,6.7c3.6,5,9.4,7.9,14.9,10.4c15.1,6.1,32.2,4.9,47.6,0.7c11.8-3.6,22.2-10.5,31.5-18.5
	c10.1-9.3,20.2-19.9,23.9-33.5C326.4,377.1,312.7,383.2,298.8,388.8z"/>
<path class="st1" d="M57.3,341.8c4.7-1.8,10-2,15-1.1c20.1,5.1,37.8,16.6,53.9,29.4c21.3,17.1,41.6,35.6,60.4,55.4
	c8.6,8.9,19.8,15.7,32.1,17.9c5.1,0.8,10,2.1,15,3.3c0,0.6-0.1,1.9-0.1,2.6c-16.4,4.9-34,4.8-50.7,1.5c-11-1.9-21.6-5.4-32.4-8
	c-0.4,1.9,1.7,2.4,2.9,3.1c19.6,9.7,41.5,14.9,63.4,14.4c37.2-0.3,72.5-14,106.1-28.9c-12.4,12.5-25.7,24.2-40.9,33.1
	c-16.7,10-35.7,16.4-55.1,17.7c-11.8,0.9-23.8,0-35.4-2.3c-36.8-7.4-71.4-25.6-98.4-51.7c-8.5-8.6-18.2-16.7-22.1-28.6
	c11.8,7.8,23.5,16.4,37.3,20.4c12.1,3.6,25.7,2.5,36.8-3.5c-19.7,0.2-40-3.2-57.3-13.1c-18.1-10.1-32.2-27.3-37.6-47.4
	c5,3.1,9.7,6.5,14.9,9.2c12.7,6.9,26.8,12.8,35.6,24.8c-4.7,0.3-9.4,0-14.1,0.2c3.8,5.9,10.3,9.5,16.7,11.8c8.3,2.9,17.6,3.3,26,0.2
	c-4.8-5.3-9.2-11.2-15.4-14.9c-18.4-11.4-37.2-22.1-55.8-33.1c-1.4-0.9-2.7-2-3.6-3.4C52.4,347.8,53.8,342.9,57.3,341.8z"/>
<path class="st1" d="M298.8,388.8c13.9-5.6,27.6-11.7,41.5-17.2c-3.7,13.6-13.7,24.2-23.9,33.5c-9.3,8-19.7,14.9-31.5,18.5
	c-15.5,4.2-32.5,5.3-47.6-0.7c-5.5-2.5-11.3-5.4-14.9-10.4c16.1-2.4,32.3-4.6,48.5-6.7c0.1,0.6,0.4,1.7,0.6,2.2
	c-5.2,3.9-11,7-15.9,11.3c11.3,1.7,23.2-1,32.8-7.2c4.3-2.9,9.3-5.7,11.3-10.8C301.6,397.2,300.4,392.7,298.8,388.8z"/>
</svg>
