<?xml version="1.0" encoding="utf-8"?>
<!-- Generator: Adobe Illustrator 21.0.0, SVG Export Plug-In . SVG Version: 6.00 Build 0)  -->
<svg version="1.1" id="Layer_1" xmlns="http://www.w3.org/2000/svg" xmlns:xlink="http://www.w3.org/1999/xlink" x="0px" y="0px"
	 viewBox="0 0 362.8 160.8" style="enable-background:new 0 0 362.8 160.8;" xml:space="preserve">
<style type="text/css">
	.st0{stroke:#FFFFFF;stroke-width:9.375000e-02;}
	.st1{fill:#FFCA00;stroke:#FFCA00;stroke-width:9.375000e-02;}
</style>
<path class="st0" d="M11.1,9.6c6.2-5.8,14.4-9.5,23-9.5c27,0,54,0,81.1,0c1.5-0.2,2.8,0.6,4.2,1.1c2.6-0.5,5.2-1.1,7.9-1.1
	c64.6,0,129.3,0,193.9,0c5.3,0.1,10.6-0.5,15.8,1c8.2,2.2,16.1,7,20.2,14.6c2.5,6.1,5.7,12.2,5.6,18.9c0.2,41.9-0.1,83.8,0.2,125.7
	c-75.3-0.3-150.5,0-225.8-0.1c-6.7,0.2-12.5-3.4-18.8-4.8c-0.1,1.7-0.2,3.4-0.4,5.2c-9.6-0.5-55.4,0-68.8,0.2
	c-10.8,0.2-21.7-3.2-30.1-9.9c-4-4.4-8.9-8.3-11.4-13.8c-6-10.4-7.3-22.6-7.5-34.3c0-18.3,0-36.7,0.3-55C-1,34.3,1.7,19.7,11.1,9.6
	 M9.3,19.8c-5.1,9-4.9,19.7-4.5,29.8c0.1,19.3,0,38.7,0,58c0.3,12.1,3.3,24.6,11.3,34c6.9,8.3,17.1,13.9,28,14.4
	c23.2,0.2,46.4-0.2,69.6-0.1c0.1-3.4,0.1-6.8-0.1-10.2c6.9,6.3,16.1,10.1,25.5,10.2c73.1,0,146.3,0,219.4,0c0.1-38.1,0-76.2,0-114.3
	c0-5.8-0.5-11.6-2.5-17c-2.9-8.3-9.2-15.6-17.5-18.5c-5.9-2.2-12.3-1.5-18.4-1.6c-64,0.1-128,0.2-192,0.1c-5-0.2-9.9,1.4-14.3,3.8
	c0-0.9-0.1-2.8-0.1-3.8c-26.9,0-53.8,0-80.7,0C23,4.7,13.7,11,9.3,19.8z"/>
<path class="st1" d="M22,26.5c2.4-5.4,8.5-7.8,14-7.7c21,0,42-0.1,62.9,0.1c0.3,9.8,0.4,19.7,0,29.5c-26.5,0.2-53.1,0.2-79.6,0
	C19.6,41.1,18,33.2,22,26.5z"/>
<path class="st1" d="M115.9,26.4c2.5-4.7,7.8-7.7,13.2-7.6c29.1,0,58.1,0,87.1,0c1.8,0,3.6,0.1,5.4,0.3c0.1,9.8,0.1,19.6,0,29.4
	c-36.1,0.1-72.1,0.2-108.2,0C113.4,41,112.3,33.2,115.9,26.4z"/>
<path class="st1" d="M235.7,18.9c30.8-0.2,61.6,0,92.4-0.1c4.6-0.2,9.1,2.2,12,5.8c3.1,4.7,4.1,10.5,3.9,16
	c-0.1,33.6,0.2,67.1-0.1,100.7c-9.8-0.1-19.6,0.3-29.4,0c-0.4-31,0-62-0.2-93c-20.1,0-40.1,0.1-60.2,0.1c-6.1,0-12.2,0.4-18.3-0.2
	C235.6,38.5,235.7,28.7,235.7,18.9z"/>
<path class="st0" d="M19.3,62.3c21.3,0,42.6,0,63.9,0c0,8.7,0,17.4,0,26.1c-11.5,0-23,0-34.5,0c0.2,5.3-0.5,10.8,0.5,16
	c1.1,4.8,6.3,6.9,10.8,7c13,0.1,26,0,39.1,0.1c0.1,9.9,0.1,19.9,0,29.8c-13.3,0-26.6,0-40,0c-5.3,0.2-10.7,0.4-16-0.1
	c-8.2-0.9-15.3-6.5-19.1-13.6c-3.4-6.4-4.5-13.8-4.6-21.1C19.4,91.8,19.4,77,19.3,62.3z"/>
<path class="st0" d="M113.3,62.5c9.9-0.3,19.7-0.1,29.6-0.3c-0.2,12.8,0,25.6-0.1,38.3c0,2.8,0.4,5.8,2.4,7.8
	c2.8,3,7.1,3.2,10.9,3.4c12.4,0,24.8,0,37.2,0c0-7.1,0-14.3,0-21.4c-12.2,0-24.3-0.1-36.5,0c0-9.4,0-18.8,0-28.1
	c21.6,0,43.1,0,64.6,0c-0.1,26.3,0,52.6-0.1,78.9c-24.4,0.1-48.8,0.2-73.3,0.2c-5.2-0.1-10.6,0.5-15.6-1.1
	c-6.8-2.1-12.3-7.4-15.3-13.8c-3.2-6.8-3.8-14.4-3.9-21.8C113.2,90.6,113.4,76.6,113.3,62.5z"/>
<path class="st0" d="M235.8,62.3c9.8,0,19.5,0,29.3,0c0,26.3,0,52.6,0,79c-9.8,0.1-19.5,0-29.3,0C235.9,115,235.9,88.6,235.8,62.3z"
	/>
</svg>
