<?xml version="1.0" encoding="utf-8"?>
<!-- Generator: Adobe Illustrator 19.1.0, SVG Export Plug-In . SVG Version: 6.00 Build 0)  -->
<svg version="1.1" id="Layer_1" xmlns="http://www.w3.org/2000/svg" xmlns:xlink="http://www.w3.org/1999/xlink" x="0px" y="0px"
	 viewBox="0 0 441 539.2" enable-background="new 0 0 441 539.2" xml:space="preserve">
<g>
	<g>
		<polygon fill="none" points="172.6,172.3 194.3,157.7 190.1,153.1 181.6,158.7 176.1,152.7 184.5,147.1 180,142.2 158.2,156.6 
			162.7,161.6 171.4,155.8 176.9,161.9 168.3,167.7 		"/>
		<polygon fill="none" points="187.1,179.8 182.3,174.5 199.3,163.2 195.1,158.6 173.3,173.1 182.3,182.9 		"/>
		<g>
			<polygon fill="none" points="212.3,177.4 201,165 196.2,168.2 199.9,172.3 187.7,180.5 187.7,180.5 183,183.6 183,183.6 
				183,183.6 187.6,188.6 204.5,177.3 207.5,180.5 			"/>
			<polygon fill="none" points="224.4,190.5 206.9,194.7 216,181.3 213.1,178.1 212.9,178 207.2,181.7 196.6,198.4 200.1,202.2 
				229.4,195.9 			"/>
		</g>
	</g>
	<g>
		<path fill="none" d="M209.6,209.9c-1.2,0.8-2.9,0.6-3.8-0.4c-0.9-1-0.7-2.6,0.4-3.3c1.2-0.8,2.9-0.6,3.8,0.4
			S210.8,209.1,209.6,209.9z"/>
		<path fill="none" d="M221.3,216c-2.9,1.9-6.6,3.1-9.4,0.1c-2.7-2.9-0.5-5.8,2.5-7.7c2.9-1.9,6.6-3.1,9.4-0.1
			C226.5,211.2,224.2,214.1,221.3,216z M216.9,211.3c-0.6,0.5-3,2.1-2.1,3.1c0.9,0.9,3.3-0.6,4-1.1c0.7-0.4,3-2.1,2.1-3.1
			C220,209.3,217.6,210.8,216.9,211.3z"/>
		<path fill="none" d="M230.7,216.2l-1.4,0.9l0,0c1.5-0.1,2.8,0.1,3.9,1.1l-3,2.1c-0.1-0.1-0.2-0.3-0.3-0.4c-1.7-1.9-3.1-1-4.8,0.2
			l-5.7,3.8l-2.7-2.9l11.3-7.5L230.7,216.2L230.7,216.2z"/>
		<path fill="none" d="M223.2,230.5c-0.6,0.5-1.4,1.3-0.7,2.1c1.1,1.2,3.1-0.4,4.1-1l1.4-1l0,0c-0.6,0.1-1.2,0.1-1.7,0.2
			c-0.6-0.1-1.2-0.3-1.6-0.8c-0.9-1-0.7-2.3,0-3.4c0.7-1.3,2.1-2.4,3.2-3.2c2-1.4,6.3-3.7,8.5-1.3c0.9,0.9,0.8,2,0.1,3l0,0l1.4-0.9
			l2.5,2.7L228,235c-3.3,2.2-5.9,1.8-8.1-0.6c-2.2-2.3-1.6-4.4,0.8-6.3L223.2,230.5L223.2,230.5z M232.4,227.9c0.6-0.4,3-2.1,2.2-3
			c-0.9-0.9-3.3,0.6-4,1.1c-0.7,0.4-3,2.1-2.1,3.1C229.3,229.9,231.7,228.3,232.4,227.9z"/>
	</g>
</g>
<linearGradient id="SVGID_1_" gradientUnits="userSpaceOnUse" x1="144.4651" y1="61.1607" x2="423.731" y2="443.3769">
	<stop  offset="0" style="stop-color:#9A1C20"/>
	<stop  offset="3.703888e-03" style="stop-color:#9B1C20"/>
	<stop  offset="7.642034e-02" style="stop-color:#B11F24"/>
	<stop  offset="0.1528" style="stop-color:#C22126"/>
	<stop  offset="0.2351" style="stop-color:#CC2228"/>
	<stop  offset="0.3333" style="stop-color:#CF2228"/>
	<stop  offset="0.5712" style="stop-color:#7D3D36"/>
	<stop  offset="0.7957" style="stop-color:#343434"/>
</linearGradient>
<path fill="url(#SVGID_1_)" d="M5.6,9.4c0,0,143.7,29.2,279.8,212.8c0,0,103.2-97.3,144-103.8c19.9-3.2-11.6,34.1-54.8,82.4
	c-56,62.6-105.8,114-142.3,184.2c0,0,3.6-4.8,30.9-37.6c42.3-50.8,62.4-62.8,64.4-59c5.8,10.8,22.7,56.5,34.1,129
	c9.8,61.6,3.9,130-0.2,113.5C350,484.4,290.1,349.3,288,350.3c-8.1,4.1-23.6,19.3-46,44.2c-14.2,15.8-33.3,41.8-43.6,55.6
	c-11.5,15.3-12.5,8.7-11.3,2.5c2.1-10.8,15.4-53.7,30.1-82.8c11.3-22.3,22.7-46.5,38.6-68.9C301.4,236.5,358,179.6,353.4,181
	c-2.8,0.9-29.8,25.8-55.3,52.6c-30,31.5-50.9,57-54.3,52.1C204.9,229.1,196.3,193,5.6,9.4z"/>
</svg>
