<?xml version="1.0" encoding="utf-8"?>
<!-- Generator: Adobe Illustrator 21.0.0, SVG Export Plug-In . SVG Version: 6.00 Build 0)  -->
<svg version="1.1" id="Layer_1" xmlns="http://www.w3.org/2000/svg" xmlns:xlink="http://www.w3.org/1999/xlink" x="0px" y="0px"
	 viewBox="0 0 863.8 466" style="enable-background:new 0 0 863.8 466;" xml:space="preserve">
<style type="text/css">
	.st0{fill:url(#SVGID_1_);}
	.st1{fill:url(#SVGID_2_);stroke:#109040;stroke-width:9.375000e-02;}
	.st2{fill:url(#SVGID_3_);}
	.st3{fill:url(#SVGID_4_);stroke:#109040;stroke-width:9.375000e-02;}
	.st4{fill:url(#SVGID_5_);stroke:#109040;stroke-width:9.375000e-02;}
</style>
<linearGradient id="SVGID_1_" gradientUnits="userSpaceOnUse" x1="266.8731" y1="466.0165" x2="266.8731" y2="0.2495">
	<stop  offset="0" style="stop-color:#16DE2B"/>
	<stop  offset="1" style="stop-color:#0D7148"/>
</linearGradient>
<path class="st0" d="M233.9,0.2c20.3,0.1,40.6,0,60.9,0C374.5,155.4,454,310.9,533.7,466c-334.9,0,0,0-334.9,0
	c10.3-20,20.9-40.5,31.3-60.4c1.6-2.7,2.9-7,6.8-6.5c65.5-0.2,131-0.5,196.6-0.6c-56.3-109.1-112.8-218.1-169-327.3
	c-24,47.4-47.4,95-71.2,142.5C151.5,297.5,109.6,382.2,67.8,466c-67.8,0,0,0-67.8,0C78,310.9,155.8,155.4,233.9,0.2z"/>
<linearGradient id="SVGID_2_" gradientUnits="userSpaceOnUse" x1="588.4085" y1="465.9695" x2="588.4085" y2="4.946011e-02">
	<stop  offset="0" style="stop-color:#13B436"/>
	<stop  offset="1" style="stop-color:#0A4E52"/>
</linearGradient>
<path class="st1" d="M313.1,0.2c22.4,0.4,44.8,0.5,67.1,0.8c65.9,132.2,131.6,264.5,197.5,396.6c50.4-0.1,100.8,0,151.2,0
	c7.6-0.1,15.4,0.8,22.9-1.5c11.6-3,21.3-11.7,26.2-22.5c7.3-15.6,7.5-33.3,6.4-50.1c-1.2-14.4-4.1-29.5-13.3-41.1
	c-5.4-6.8-13.5-11.5-22.2-12c-26.3,0.5-52.7-0.2-79,0c-39.9-0.3-79.8,0-119.6-0.4c11.7-20.4,22.7-41.3,34.4-61.7
	c51.8,0.1,103.5,0.1,155.3,0c9.8,0.3,20.2-1.6,28-8c10.1-8.2,14.8-21,17.5-33.4c3.2-15.6,4.1-31.7,3-47.6
	c-1.2-13.5-4.3-27.5-12.9-38.4c-6.4-8.1-16.2-13.7-26.6-13.8c-31.6-0.1-63.1-0.3-94.7-0.3c11.6-22.2,23-44.5,34.5-66.6
	c23.1,0.3,46.1,0.6,69.2,0.8c29.8,0.2,60,13,78.9,36.4c13.7,16.8,21.1,37.8,24.2,59c2.4,16.9,2.4,34,1.7,51.1
	c-1,18.8-3.6,37.8-10.1,55.6c-4,10.8-9.6,21.5-18.1,29.4c10.4,11.8,17.4,26.3,22,41.3c6.2,20.2,7.9,41.5,7,62.6
	c-0.8,16.4-2.7,32.9-7.9,48.5c-5.3,16.5-13.9,31.9-25.8,44.5c-19.5,20.6-46.8,33.3-74.9,36.4c-69.1,0.4-138.1-0.1-207.2,0.3
	c-15.7-30.3-30.7-60.9-46.1-91.3C438.7,249.8,375.8,125.1,313.1,0.2z"/>
<linearGradient id="SVGID_3_" gradientUnits="userSpaceOnUse" x1="500.7432" y1="252.893" x2="652.4688" y2="-9.9034">
	<stop  offset="0" style="stop-color:#109040"/>
	<stop  offset="1" style="stop-color:#0B5650"/>
</linearGradient>
<path class="st2" d="M602.1,0.2c22.6-0.4,45.1-0.1,67.7-0.1c-37.4,75-74.7,149.9-112.1,224.9c-8,15.6-15.4,31.6-23.7,47.1
	c-11.3-22.6-22.9-45.1-34.3-67.7C534,136.4,568.2,68.4,602.1,0.2z"/>
<linearGradient id="SVGID_4_" gradientUnits="userSpaceOnUse" x1="358.8682" y1="356.9611" x2="518.6977" y2="80.1283">
	<stop  offset="0" style="stop-color:#13B436"/>
	<stop  offset="1" style="stop-color:#0C7049"/>
</linearGradient>
<path class="st3" d="M547.7,466c-15.7-30.3-30.7-60.9-46.1-91.3C438.7,249.8,375.8,125.1,313.1,0.2c22.4,0.4,44.8-0.3,67.1,0
	c65.9,132.2,131.5,265.2,197.5,397.4"/>
<linearGradient id="SVGID_5_" gradientUnits="userSpaceOnUse" x1="705.6935" y1="465.9695" x2="705.6935" y2="4.946011e-02">
	<stop  offset="0" style="stop-color:#13B436"/>
	<stop  offset="0.8" style="stop-color:#0A4E52"/>
</linearGradient>
<path class="st4" d="M577.7,397.5c50.4-0.1,100.8,0,151.2,0c7.6-0.1,15.4,0.8,22.9-1.5c11.6-3,21.3-11.7,26.2-22.5
	c7.3-15.6,7.5-33.3,6.4-50.1c-1.2-14.4-4.1-29.5-13.3-41.1c-5.4-6.8-13.5-11.5-22.2-12c-26.3,0.5-52.7-0.2-79,0
	c-39.9-0.3-79.8,0-119.6-0.4c11.7-20.4,22.7-41.3,34.4-61.7c51.8,0.1,103.5,0.1,155.3,0c9.8,0.3,20.2-1.6,28-8
	c10.1-8.2,14.8-21,17.5-33.4c3.2-15.6,4.1-31.7,3-47.6c-1.2-13.5-4.3-27.5-12.9-38.4c-6.4-8.1-16.2-13.7-26.6-13.8
	c-31.6-0.1-63.1-0.3-94.7-0.3c11.6-22.2,23-44.5,34.5-66.6c23.1,0.3,46.1,0.6,69.2,0.8c29.8,0.2,60,13,78.9,36.4
	c13.7,16.8,21.1,37.8,24.2,59c2.4,16.9,2.4,34,1.7,51.1c-1,18.8-3.6,37.8-10.1,55.6c-4,10.8-9.6,21.5-18.1,29.4
	c10.4,11.8,17.4,26.3,22,41.3c6.2,20.2,7.9,41.5,7,62.6c-0.8,16.4-2.7,32.9-7.9,48.5c-5.3,16.5-13.9,31.9-25.8,44.5
	c-19.5,20.6-46.8,33.3-74.9,36.4c-69.1,0.4-138.1-0.1-207.2,0.3"/>
</svg>
