<?xml version="1.0" encoding="utf-8"?>
<!-- Generator: Adobe Illustrator 21.0.0, SVG Export Plug-In . SVG Version: 6.00 Build 0)  -->
<svg version="1.1" id="Layer_1" xmlns="http://www.w3.org/2000/svg" xmlns:xlink="http://www.w3.org/1999/xlink" x="0px" y="0px"
	 viewBox="0 0 1161.3 1003.7" style="enable-background:new 0 0 1161.3 1003.7;" xml:space="preserve">
<style type="text/css">
	.st0{fill:#FFA200;stroke:#FFA200;stroke-width:9.375000e-02;}
</style>
<path class="st0" d="M640.2,26.6c5.2-8.8,9.9-17.9,15.5-26.5c160,275.7,320.1,551.4,480.2,827.1c8.3,14.8,17.4,29.2,25.3,44.2
	c-123.8,0.2-247.6,0.5-371.3,0.6c-8.4-0.3-16.7,0.8-25,0.4c-168,0-336,0.4-504,0.6c-6.3-0.3-12.6,0.6-18.9,0.6
	c12.1-22.1,25.3-43.6,37.7-65.6c0.8-1.6,2.1-3.4,4.2-3c175.3-0.1,350.6-0.3,525.9-0.6c11-1,22-0.3,33-0.5c32,0,64-0.3,96-0.2
	c35.1,0.1,70.1,0.3,105.2,0c-8.4-15.3-17.5-30.3-26.2-45.5C897.2,550.6,776.6,342.7,655.8,135c-10.3,17.8-20.5,35.7-30.7,53.6
	c-0.9,1.3-1.2,3.6-3.1,3.6c-12.6-20.8-25.2-41.6-37.8-62.3c-1-1.4-1.6-3.2-0.5-4.8C602.5,92.2,621.5,59.4,640.2,26.6z"/>
<path class="st0" d="M450.8,89c17-29.6,33.9-59.2,51.1-88.7c25.4,43,50.1,86.4,75.4,129.5c4.2,5,7.2,10.8,10.6,16.4
	c11.6,19.1,23.2,38.2,34.7,57.3C732.7,393,842.7,582.7,952.8,772.2c4.9,8.4,9.7,16.9,14.8,25.2c-9.5,0.7-19.2,0.1-28.7,0.3
	c-17.2,0.1-34.5-0.1-51.7,0.1c-44.8-76.6-89.1-153.5-133.7-230.2c-57.2-98.4-114.3-196.9-171.5-295.4c-13.9-23.6-27.2-47.5-41-71.2
	c-10.8-17.3-20.7-35.2-31-52.8c-2.7-4.4-4.9-9.1-7.9-13.3c-18.5,33.1-37.8,65.8-56.5,98.7C365.8,372.5,286.1,511.2,206.5,650
	c-29.9,51.9-59.6,104-89.6,155.8c22.1,0,44.2-0.1,66.3,0c-12.6,22.7-25.7,45.1-38.4,67.8c-48.3,0-96.5,0.2-144.8,0.1
	c8.3-13.6,15.9-27.6,23.9-41.3C166.2,584.6,308.5,336.8,450.8,89z"/>
<path class="st0" d="M196.3,797.6C309.1,601,422,404.4,534.8,207.8c13.2,23.1,26.4,46.2,39.6,69.3c-8.5,13.6-16,27.9-24.1,41.7
	C470.9,457,391.6,595.3,312.2,733.5c-26.1,45.8-52.8,91.2-79.2,136.9c-5.4,7.4-9.5,15.7-14.3,23.6c-7.8,13.9-16.1,27.6-23.7,41.6
	c32.9-0.1,65.9-0.1,98.8-0.2c12.7,0.2,25.3-0.8,38-0.4c147.7-0.3,295.3-0.3,443-0.5c7.7-1.2,15.3,0.3,23-0.5
	c54.7-0.1,109.3-0.1,164-0.2c2.2,0,4.4,0,6.7-0.2c-11-18.5-21.6-37.2-32.5-55.8c26-0.1,51.9,0,77.9-0.1
	c20.5,35.3,41,70.6,61.5,105.9c3.2,5.8,7,11.2,9.6,17.3c-28.8,0-57.5,0.1-86.3,0.1c-3.3,0-6.6,0.6-9.9,0.5
	c-126.7,0-253.3,0.2-380,0.3c-10.6,1-21.3,0.4-32,0.6c-118.7,0.2-237.3,0.4-356,0.5c-12.4,0.2-24.9-0.5-37.3,0.6
	c-35.2,0-70.4,0.1-105.6,0.2c21.4-37.4,42.9-74.7,64.3-112.1C160.8,860.6,178,828.8,196.3,797.6z"/>
</svg>
