<?xml version="1.0" encoding="utf-8"?>
<!-- Generator: Adobe Illustrator 21.0.0, SVG Export Plug-In . SVG Version: 6.00 Build 0)  -->
<svg version="1.1" id="Layer_1" xmlns="http://www.w3.org/2000/svg" xmlns:xlink="http://www.w3.org/1999/xlink" x="0px" y="0px"
	 viewBox="0 0 1161.6 920.5" style="enable-background:new 0 0 1161.6 920.5;" xml:space="preserve">
<style type="text/css">
	.st0{fill:url(#SVGID_1_);}
</style>
<linearGradient id="SVGID_1_" gradientUnits="userSpaceOnUse" x1="339.7237" y1="48.7089" x2="818.8187" y2="878.5258">
	<stop  offset="0" style="stop-color:#00BF27"/>
	<stop  offset="1" style="stop-color:#007718"/>
</linearGradient>
<path class="st0" d="M266.5,431.5C319.2,287.7,371.5,143.8,424.1,0c107.4,240.9,214.8,481.7,322.2,722.7
	c36.1-98.5,72.3-197,108.3-295.5c77.5-0.2,155.1,0,232.6-0.1c24.9,24.6,49.6,49.4,74.5,74c-84.2-0.2-168.4,0-252.6-0.1
	c-54.3,139.8-108.7,279.6-163,419.5C640.8,682,535.5,443.6,430.1,205.2c-36.7,100.4-73.3,200.9-110,301.4c-74,0-148,0-222,0
	c-32.7-25-65.4-50.1-98.1-75C88.8,431.5,177.7,431.5,266.5,431.5z M494.2,53.9c-2.9-7.1-6.4-14.1-8.8-21.4
	C620,89.8,754.8,146.9,889.6,204c-89-8.3-178-16.6-267-25c32.1,126.9,64.1,253.7,96.1,380.6c4.1,16.7,8.7,33.2,12.4,49.9
	C652.3,424.3,573.1,239.1,494.2,53.9z M452.3,342.5c78.2,184.3,156.1,368.8,234.4,553.1c-85.1-34.7-170.3-69.2-255.4-103.7
	c-51.6-20.9-103-42-154.6-62.7c92.2,9.7,184.3,20,276.4,29.9C519.5,620.2,485.7,481.4,452.3,342.5z"/>
</svg>
