<?xml version="1.0" encoding="utf-8"?>
<!-- Generator: Adobe Illustrator 21.0.0, SVG Export Plug-In . SVG Version: 6.00 Build 0)  -->
<svg version="1.1" id="Layer_1" xmlns="http://www.w3.org/2000/svg" xmlns:xlink="http://www.w3.org/1999/xlink" x="0px" y="0px"
	 viewBox="0 0 420.5 425.6" style="enable-background:new 0 0 420.5 425.6;" xml:space="preserve">
<style type="text/css">
	.st0{fill:#FFFFFF;stroke:#FFFFFF;stroke-width:9.375000e-02;}
	.st1{fill:#393939;stroke:#393939;stroke-width:9.375000e-02;}
</style>
<path class="st0" d="M86.6,1.5c-0.2-1.9,4.4-1.9,4.2,0C89.4,1.6,88,1.6,86.6,1.5z"/>
<path class="st0" d="M330.6,1.5c0.2-1.9,5-1.9,5.3,0C334.1,1.6,332.3,1.6,330.6,1.5z"/>
<path class="st1" d="M38.5,12.7C53,4.6,69.9,0.5,86.6,1.5c1.4,0.1,2.8,0.1,4.2,0c13.6-1.1,27.1,1.8,40.2,5.1
	c6.3,1.6,12.1,4.6,18.1,7c2.4,1.2,4.8-0.5,7-1.2c9.3-4,19.2-6.6,29.2-7.8c7.3-0.8,14.5-2.4,21.9-2.2C220.6,2,234,3.9,247.1,6.5
	c7.9,2,15.6,4.7,23.1,7.8C283.3,7.9,297.6,4.1,312,2.1c6.1-1.1,12.4-0.8,18.5-0.7c1.7,0.1,3.5,0.1,5.3,0c15.8-0.6,31.8,3,45.7,10.6
	c13.1,6.9,22.8,19,28.5,32.5c3.7,11,7.3,22.5,6,34.3c-0.1,1.1-0.1,2.2,0,3.2c0.3,6.4,0.6,13.1-1.3,19.3c-0.2,0.5-0.5,1.5-0.6,2
	c-0.7,9.8-4.5,19.1-7.7,28.3c-0.5,1.3,0.4,2.6,0.8,3.8c4.2,9.4,6.1,19.5,8.6,29.4c2.3,13.8,4.9,27.6,4.4,41.6
	c0.1,3.9,0.8,26.1-0.6,33.2c-2.1,24.2-8.9,47.9-19.3,69.8c-13.1,25.7-31.6,48.8-54,67.1c-17.1,14.3-36.7,25.3-57.1,33.9
	c-5.3,2.3-10.9,3.7-16.3,5.7c-9.7,3.5-19.8,5.1-29.9,7.1c-10.5,1.5-21.1,2.7-31.8,2.3c-24.7,0.9-49.3-4.4-72.6-12.4
	c-11.1-4.5-22.5-8.8-32.7-15.3c-16.8-9.4-32.6-21-45.9-35.1c-17.6-16.5-31.1-36.9-41.5-58.5C8.2,281.3,2.3,256.4,1.1,231.4
	c-1.3-9.9-1.5-20.1-0.1-30c0.9-20.2,4.1-40.4,10.5-59.6c1-3.4,3.2-6.6,3.4-10.2c-1-3.7-3-7.1-4.1-10.8C7.1,108,4.8,94.8,4.1,81.4
	c0.7-18.5,4.5-37.9,16.3-52.8C25,22,31.4,16.7,38.5,12.7 M56.1,40.1c6-0.6,12.1-1.2,18.2-0.6c17.9,1.6,34.7,8.8,50.1,17.6
	c6.3-2.9,12.5-6,18.8-9c-17.4-13.7-40.7-15.8-62-14.6C72.6,34.5,63.5,35.4,56.1,40.1 M278,48.2c5.7,2.8,11.5,5.5,17.2,8.2
	c1.9,1.2,3.8-0.6,5.5-1.4c19.5-10.8,42-18.3,64.6-15c-12.5-6.6-27.3-7.2-41.1-6.6C307.8,33.9,291,37.8,278,48.2 M210.5,37.7
	c-3.9,10.4-5.6,21.6-5.1,32.7c-0.3,12.5,2.3,24.8,5.1,36.8c7.1-2.9,13.8-6.5,20.7-9.7c-6,5.3-12.7,9.9-19.1,14.8
	c-1.2,1.4-2.8,0-3.9-0.8c-6-4.6-12.1-9.2-18.1-13.9c6,9.9,13.2,18.9,19.5,28.5c1.6,1.9,0.6,4.4-0.4,6.3c-3.2,6.4-10.2,9.3-16.6,11.5
	c-12.7,4.5-26.3,2.5-39.4,1.7c-20.8-2-41.3-7.7-60-17.1c3.9,3.8,8.6,6.7,13.1,9.8c21.1,13.8,43.2,26,65.9,37.1
	c5.2,2.1,10.5,5.8,16.3,4.4c7.3-1.6,13.8-5.3,20.3-8.7c1.6-1.2,3.4,0,4.9,0.7c6,3.3,12.1,6.5,18.8,8c2.7,0.7,5.5,0.2,8.1-0.9
	c7.4-2.9,14.5-6.7,21.7-10.2c18.3-9.7,36.4-19.8,53.7-31.2c4.6-3,8.7-6.5,13.3-9.4c0.2,5.4-2.1,10.5-4.4,15.2
	c10.3,5.5,20.8,10.9,29.5,18.8c-1.8,0.2-3.5,0.4-5.3,0.5c-7,13.3-14.1,26.7-23.2,38.6c-3.7,4.6-7.9,9.6-13.9,11
	c-12,2.9-24.3,0.1-36.3-1c5.8,4.1,12.2,7.1,18.7,9.7c8,3.2,16.8,1.4,24.9-0.3c4-1,8.4-1.5,11.4-4.6c7.3-7.2,12.9-15.7,19.3-23.6
	c-4.1,8.3-9,16.1-13.9,23.9c-2.1,3.1-4.1,6.9-7.9,8c-7.9,2.4-16,4.3-24.2,5.3c-8.5,1-16.6-2.5-24.6-4.8
	c-14.1-4.7-28.2-10.2-40.8-18.2c-9.3-5.4-17.9-12.4-28.3-15.2c0,2.2,0,4.4,0,6.5c4.6,1.3,9.5,2.5,12.9,6.1
	c-4.3-0.8-8.6-2.1-13.1-1.9c0,1.5,0.1,3,0.1,4.5c3.9,0.9,7.8,1.9,11,4.4c-3.7-0.1-7.3-0.4-11-0.6c0,6.3,0.2,12.5-0.1,18.8
	c-6.8,0.4-13.6,0.9-20.3,0.1c0.2-2.4,0.5-4.7,0.8-7.1c-7.7,2.8-14.5,7.6-19.5,14.1c-1.4,2.2-4,2.4-6.3,2.7
	c-22.9,3.3-45.7,9.4-65.8,21.1c-14.3,8.2-26.4,19.9-35.1,33.9c-1.2,2-2.2,4.1-3,6.2c3.9-4.8,7.2-10.1,11.7-14.5
	c12.1-12.9,27.3-22.6,43.5-29.5c17.2-7.2,35.4-11.6,53.9-13.6c2.1,0.1,3.1-2,4.3-3.3c3.1-4.3,7.3-7.6,11.3-11
	c0.4,1.8-0.5,4.9,1.9,5.4c5.8,1.2,11.7-0.1,17.6-0.3c8.7-0.6,17.4,1,26.1,0.7c1.3-0.2,3.1-0.1,3.9-1.4c0.3-1.5,0.4-3,0.5-4.4
	c4.3,3.8,8.6,7.6,12.1,12.2c1.6,2.6,5,2,7.6,2.5c25,3.5,49.8,10.9,71.2,24.6c15.3,9.9,28.8,23.2,37.3,39.5c3.5-4.2,5.7-9.2,8.2-14.1
	c10.9-22.4,15.8-47.2,16.3-72c0.6-23.5-2.2-47.3-9.4-69.7c-2.4,0-4.9-0.1-7.3,0.4c-3.5,0.9-6.3,3.3-9.5,4.6c-1.4,0.2-2.5-1-3.6-1.6
	c-5.5-3.9-11-7.9-17-10.9c-2.7-1.3-5.2-2.9-7.5-4.7c7.8-9.3,19.2-15.3,31.1-17.2c-13-19.9-29.2-38.4-49.8-50.8
	c5,1.2,9.9,3.1,14.9,4.4c8.3-6.7,18.1-12.5,29.1-12.9c6.1-0.4,12.1,3.5,14,9.4c1.9,6.5,0.5,13.3-0.4,19.8c3.3,2.1,6.5,4.4,9.9,6.4
	c2.8-15.3,2.7-32-4.7-46c-3.5-6.8-12.1-7.6-18.9-8.3c-21.7-0.7-43.4,6.4-61.2,18.7c-14.5-7-28.7-14.9-44.4-19.1
	C239.5,40.3,225.1,37.1,210.5,37.7 M51.5,80.6c2.1-2.9,2.8-7.1,6.5-8.3c7.2-2,14.2,1.4,21.3,2.2c-5.8-4-12.9-6.4-20-5.8
	C53.9,69.4,51,75.5,51.5,80.6 M342,74.5c6.6-0.8,13.1-3.7,19.9-2.6c4,0.6,5.5,4.7,7.6,7.6c0-4.4-1.9-9.5-6.6-10.6
	C355.5,67.6,348,70.3,342,74.5 M56.5,131.6c-0.8,1.6-1.6,3.2-2.3,4.7c1.7-1.6,3.4-3.2,5.1-4.9C58.5,131.5,57.2,131.6,56.5,131.6
	 M362.1,131.5c1.4,1.3,2.8,2.7,4.2,4c-0.5-1.3-0.9-2.6-1.4-3.9C364.2,131.6,362.8,131.5,362.1,131.5 M63.4,133.6
	c-1.6,1.9-3.2,3.8-4.4,5.9c2.7-1.1,5.2-2.7,7.2-4.8C65.2,134.4,64.3,134,63.4,133.6 M355,135c2.6,2,5.3,3.9,8.1,5.5
	c-1.6-2.4-3-4.9-5.3-6.6C356.7,133.7,355.9,134.6,355,135 M69.9,138.1c-3.7,2.2-6.8,5.2-9.7,8.3c4.5-2.3,9.1-4.2,13.3-7
	C73.7,137.1,71.2,137.3,69.9,138.1 M347,139.1c4.6,2.7,9.3,5.1,14.2,7.3c-3.4-3.3-6.8-6.8-11.2-8.9C348.9,137.8,348,138.5,347,139.1
	 M72.2,163.4c1.4,7.6,3.7,14.9,5.6,22.4c3.2,10,6.2,20.2,11.9,29.1c2.9,4.7,8.9,5,13.6,6.3c7.4,1.4,15.3,2.9,22.6,0.2
	c6.8-2.6,13.4-5.8,19.4-9.9c-12,1.3-24.3,3.8-36.2,1c-6.1-1.4-10.3-6.3-14-11C86.1,189.7,79.4,176.4,72.2,163.4 M135.5,167.8
	c-8.8,1.9-15.7,10.5-15.2,19.6c-0.3,10.1,8.8,19.3,18.9,19.4c7.9,0.6,15.6-4.5,18.8-11.6c2.9-6.3,2.1-14-1.9-19.6
	C151.6,169.1,143.1,166.1,135.5,167.8 M276.5,167.9c-10.3,2.2-17.3,13.6-14.5,23.7c2,9.1,10.9,15.9,20.2,15.2
	c10.4-0.2,19.6-10,18.7-20.4C301.1,174.3,288.1,164.7,276.5,167.9 M180.1,248.4c3.9,3.6,8.3,6.6,13,9.2c-2.9-3.5-6.4-6.4-9.3-9.8
	c-2-2-0.9-5-1-7.4C181.2,242.6,177.1,245.8,180.1,248.4 M238.5,240.4c-0.2,2.4,0.8,5.3-1.1,7.2c-3,3.4-6.4,6.4-9.2,10
	c4.5-2.7,9-5.6,12.9-9.2C243.9,245.7,240,242.7,238.5,240.4 M245.6,250.6c-8.9,11.4-18.5,23.7-32.4,29c-0.2,5.6-0.6,12.6,4.1,16.6
	c9.8,4.8,21,5.7,31,9.9c5.4,2.4,6,9,7.8,13.9c-13-6.2-27.8-6.9-42-7.1c-4.7-0.2-10.5,1.1-12.5,6c-1.4,4.5,1.3,9,2.8,13.1
	c4.5,0.1,9,0.2,13.5-0.1c8.2-0.5,16.1-3.4,24.4-2.8c-1.5,3.4-3.5,6.6-6,9.3c-7,7.8-15.5,14.7-25.8,17.5c-4.1,12-4.2,26.3,3.1,37.2
	c9.3,0.4,18.6-0.9,27.8-2.5c46-8,88.5-34.4,115.8-72.3c2.3-2.2,0.4-5-0.7-7.3c-6.2-11.3-14.8-21.1-24.8-29.1
	C307.3,262.4,276.2,253.7,245.6,250.6 M166.6,257.7c-2.1,1.2-1.9,5.1,0.3,6.1c2.6,1.6,6.1-1.2,5.1-4.1
	C171.8,257.2,168.5,256.4,166.6,257.7 M150.6,259.8c-2.8,0.5-3.4,5-1,6.4c2.1,1.5,5.8,0,5.5-2.8C155.4,261,152.9,259,150.6,259.8
	 M133.6,263.8c-4.2,0.9-2.8,8.1,1.6,6.8C139.8,270.2,138.2,262,133.6,263.8 M116.4,270.5c-2.3,1.2-2.8,4.7-0.5,6.2
	c2.6,2.2,6.8-0.8,5.4-4C121.1,270.2,118.3,270.2,116.4,270.5 M101.7,279.9c-2.2,1-2.9,3.8-1.7,5.8c1.7,1.4,5.1,1.9,6.1-0.6
	C107.8,282.3,104.6,278.8,101.7,279.9 M85.6,291.8c-0.3,2.1-0.3,4.2,0,6.2c1.4,0.1,2.8,0.3,4.2,0.1c2.2-0.6,2.8-3.3,1.9-5.2
	C90.3,290.9,87.7,291.8,85.6,291.8 M74.6,305.8c-2.8,1.2-2.5,6.3,0.7,6.8c2.5,0.8,5-1.6,4.3-4.2C79.5,306.1,76.6,305.1,74.6,305.8z"
	/>
<path class="st0" d="M56.1,40.1c7.5-4.7,16.5-5.6,25.1-6.6c21.3-1.2,44.7,0.9,62,14.6c-6.3,3-12.5,6.1-18.8,9
	c-15.5-8.8-32.3-16.1-50.1-17.6C68.2,38.9,62.1,39.5,56.1,40.1z"/>
<path class="st0" d="M278,48.2c13-10.3,29.9-14.3,46.2-14.7c13.9-0.5,28.6,0,41.1,6.6c-22.6-3.4-45.1,4.1-64.6,15
	c-1.7,0.8-3.5,2.5-5.5,1.4C289.4,53.7,283.7,50.9,278,48.2z"/>
<path class="st0" d="M210.5,37.7c14.6-0.6,29.1,2.6,43.1,6.2C269.3,48,283.5,56,298,63c17.8-12.4,39.5-19.4,61.2-18.7
	c6.8,0.7,15.4,1.5,18.9,8.3c7.4,14,7.5,30.7,4.7,46c-3.4-2-6.6-4.2-9.9-6.4c0.9-6.5,2.2-13.3,0.4-19.8c-1.8-5.9-7.9-9.8-14-9.4
	c-10.9,0.4-20.8,6.2-29.1,12.9c-5-1.3-9.9-3.2-14.9-4.4c20.6,12.3,36.8,30.8,49.8,50.8c-11.9,2-23.3,8-31.1,17.2
	c2.3,1.8,4.9,3.4,7.5,4.7c6,3,11.5,7,17,10.9c1.1,0.6,2.2,1.8,3.6,1.6c3.3-1.4,6.1-3.8,9.5-4.6c2.4-0.5,4.9-0.4,7.3-0.4
	c7.2,22.5,10,46.2,9.4,69.7c-0.5,24.8-5.5,49.6-16.3,72c-2.5,4.8-4.7,9.9-8.2,14.1c-8.4-16.3-21.9-29.6-37.3-39.5
	c-21.3-13.8-46.2-21.1-71.2-24.6c-2.6-0.5-6,0-7.6-2.5c-3.5-4.6-7.8-8.4-12.1-12.2c-0.1,1.5-0.2,3-0.5,4.4c-0.8,1.3-2.6,1.2-3.9,1.4
	c-8.7,0.3-17.4-1.3-26.1-0.7c-5.8,0.2-11.8,1.5-17.6,0.3c-2.4-0.6-1.4-3.7-1.9-5.4c-4,3.5-8.2,6.7-11.3,11c-1.2,1.3-2.2,3.4-4.3,3.3
	c-18.5,1.9-36.7,6.4-53.9,13.6c-16.2,6.9-31.4,16.6-43.5,29.5c-4.5,4.4-7.8,9.7-11.7,14.5c0.9-2.1,1.8-4.2,3-6.2
	c8.6-14,20.8-25.8,35.1-33.9c20.1-11.7,43-17.8,65.8-21.1c2.3-0.3,5-0.5,6.3-2.7c5-6.4,11.9-11.3,19.5-14.1
	c-0.3,2.4-0.6,4.7-0.8,7.1c6.8,0.8,13.6,0.3,20.3-0.1c0.3-6.3,0.1-12.5,0.1-18.8c3.7,0.2,7.3,0.5,11,0.6c-3.2-2.5-7.1-3.5-11-4.4
	c0-1.5-0.1-3-0.1-4.5c4.4-0.2,8.7,1.1,13.1,1.9c-3.4-3.6-8.3-4.8-12.9-6.1c0-2.2,0-4.4,0-6.5c10.5,2.9,19.1,9.8,28.3,15.2
	c12.6,8,26.6,13.5,40.8,18.2c8,2.3,16.1,5.8,24.6,4.8c8.2-0.9,16.3-2.8,24.2-5.3c3.9-1.1,5.8-4.9,7.9-8c4.9-7.8,9.7-15.7,13.9-23.9
	c-6.4,7.9-12.1,16.4-19.3,23.6c-3,3.1-7.5,3.6-11.4,4.6c-8.1,1.7-16.9,3.5-24.9,0.3c-6.6-2.6-13-5.6-18.7-9.7
	c12,1.1,24.3,3.9,36.3,1c6-1.5,10.2-6.4,13.9-11c9.1-12,16.2-25.4,23.2-38.6c1.8-0.2,3.5-0.4,5.3-0.5c-8.7-7.9-19.2-13.4-29.5-18.8
	c2.3-4.8,4.6-9.8,4.4-15.2c-4.6,2.9-8.8,6.4-13.3,9.4c-17.3,11.4-35.4,21.6-53.7,31.2c-7.2,3.6-14.3,7.3-21.7,10.2
	c-2.6,1.1-5.4,1.5-8.1,0.9c-6.7-1.5-12.8-4.8-18.8-8c-1.5-0.7-3.3-1.9-4.9-0.7c-6.5,3.4-13.1,7.1-20.3,8.7
	c-5.9,1.4-11.1-2.3-16.3-4.4c-22.7-11-44.8-23.3-65.9-37.1c-4.5-3.1-9.2-6-13.1-9.8c18.7,9.4,39.2,15,60,17.1
	c13.1,0.8,26.7,2.8,39.4-1.7c6.4-2.2,13.4-5,16.6-11.5c1-1.9,2-4.4,0.4-6.3c-6.3-9.6-13.6-18.6-19.5-28.5c6,4.7,12,9.3,18.1,13.9
	c1.1,0.8,2.7,2.2,3.9,0.8c6.4-4.9,13-9.5,19.1-14.8c-6.9,3.2-13.6,6.9-20.7,9.7c-2.9-12.1-5.5-24.3-5.1-36.8
	C204.9,59.3,206.6,48.1,210.5,37.7z"/>
<path class="st0" d="M51.5,80.6c-0.5-5.1,2.3-11.2,7.8-11.9c7.1-0.6,14.2,1.8,20,5.8c-7.1-0.8-14.1-4.3-21.3-2.2
	C54.3,73.4,53.6,77.7,51.5,80.6z"/>
<path class="st0" d="M342,74.5c6-4.1,13.5-6.9,20.9-5.6c4.7,1.1,6.6,6.3,6.6,10.6c-2-2.9-3.6-7-7.6-7.6
	C355.1,70.8,348.6,73.7,342,74.5z"/>
<path class="st0" d="M416.1,78.8c1.9-0.5,1.9,3.7,0,3.2C416,81,416,79.9,416.1,78.8z"/>
<path class="st0" d="M414.1,103.4c0.2-0.5,0.5-1.5,0.6-2l0.6,0.7l-0.3,1L414.1,103.4z"/>
<path class="st0" d="M56.5,131.6c0.7,0,2.1-0.1,2.7-0.1c-1.6,1.7-3.3,3.3-5.1,4.9C54.9,134.7,55.7,133.2,56.5,131.6z"/>
<path class="st0" d="M362.1,131.5c0.7,0,2.1,0.1,2.8,0.1c0.4,1.3,0.9,2.6,1.4,3.9C364.9,134.2,363.5,132.8,362.1,131.5z"/>
<path class="st0" d="M63.4,133.6c0.9,0.4,1.9,0.8,2.8,1.1c-2.1,2.1-4.5,3.7-7.2,4.8C60.2,137.4,61.8,135.5,63.4,133.6z"/>
<path class="st0" d="M355,135c0.9-0.4,1.7-1.3,2.8-1.1c2.3,1.7,3.8,4.3,5.3,6.6C360.3,138.9,357.6,137,355,135z"/>
<path class="st0" d="M69.9,138.1c1.4-0.8,3.8-1,3.6,1.3c-4.2,2.8-8.9,4.8-13.3,7C63.1,143.3,66.2,140.3,69.9,138.1z"/>
<path class="st0" d="M347,139.1c1-0.6,1.9-1.3,3-1.6c4.3,2,7.8,5.5,11.2,8.9C356.3,144.2,351.6,141.8,347,139.1z"/>
<path class="st0" d="M72.2,163.4c7.2,12.9,13.9,26.2,23,38c3.7,4.7,7.9,9.6,14,11c12,2.8,24.2,0.2,36.2-1c-6,4.2-12.6,7.4-19.4,9.9
	c-7.3,2.7-15.2,1.2-22.6-0.2c-4.8-1.3-10.8-1.6-13.6-6.3C84,206,81,195.7,77.9,185.8C75.9,178.3,73.6,171,72.2,163.4z"/>
<path class="st0" d="M135.5,167.8c7.5-1.8,16.1,1.3,20.5,7.7c4,5.6,4.8,13.3,1.9,19.6c-3.2,7.1-10.9,12.2-18.8,11.6
	c-10.1-0.1-19.2-9.3-18.9-19.4C119.8,178.3,126.7,169.7,135.5,167.8z"/>
<path class="st0" d="M276.5,167.9c11.6-3.2,24.5,6.4,24.4,18.5c0.8,10.4-8.4,20.2-18.7,20.4c-9.3,0.7-18.3-6.2-20.2-15.2
	C259.3,181.5,266.3,170.1,276.5,167.9z"/>
<path class="st0" d="M180.1,248.4c-3.1-2.6,1.1-5.8,2.7-8c0.1,2.5-1,5.4,1,7.4c2.9,3.4,6.4,6.3,9.3,9.8
	C188.5,255,184,252,180.1,248.4z"/>
<path class="st0" d="M238.5,240.4c1.5,2.3,5.4,5.3,2.7,8c-3.9,3.6-8.4,6.5-12.9,9.2c2.8-3.6,6.2-6.6,9.2-10
	C239.3,245.7,238.4,242.8,238.5,240.4z"/>
<path class="st0" d="M245.6,250.6c30.6,3.1,61.7,11.8,86,31.3c10,8,18.6,17.9,24.8,29.1c1.1,2.2,2.9,5.1,0.7,7.3
	c-27.3,37.9-69.8,64.3-115.8,72.3c-9.2,1.6-18.5,2.9-27.8,2.5c-7.3-10.9-7.2-25.1-3.1-37.2c10.3-2.8,18.8-9.7,25.8-17.5
	c2.5-2.8,4.5-5.9,6-9.3c-8.3-0.6-16.2,2.3-24.4,2.8c-4.5,0.3-9,0.2-13.5,0.1c-1.5-4.1-4.2-8.6-2.8-13.1c1.9-4.9,7.8-6.2,12.5-6
	c14.2,0.2,29,0.9,42,7.1c-1.8-4.9-2.4-11.6-7.8-13.9c-10-4.2-21.2-5.1-31-9.9c-4.7-4-4.3-11-4.1-16.6
	C227.1,274.3,236.8,262.1,245.6,250.6z"/>
<path class="st0" d="M166.6,257.7c1.9-1.2,5.2-0.5,5.4,2c1,2.9-2.6,5.7-5.1,4.1C164.7,262.7,164.6,258.8,166.6,257.7z"/>
<path class="st0" d="M150.6,259.8c2.3-0.8,4.7,1.2,4.5,3.6c0.3,2.8-3.4,4.3-5.5,2.8C147.2,264.8,147.8,260.3,150.6,259.8z"/>
<path class="st0" d="M133.6,263.8c4.6-1.7,6.2,6.5,1.6,6.8C130.7,271.9,129.3,264.7,133.6,263.8z"/>
<path class="st0" d="M116.4,270.5c1.8-0.3,4.7-0.3,4.9,2.1c1.4,3.2-2.8,6.2-5.4,4C113.7,275.2,114.1,271.7,116.4,270.5z"/>
<path class="st0" d="M101.7,279.9c2.9-1.1,6.2,2.4,4.4,5.2c-1,2.5-4.4,2-6.1,0.6C98.8,283.6,99.5,280.8,101.7,279.9z"/>
<path class="st0" d="M85.6,291.8c2.1,0,4.7-0.9,6.1,1.2c0.9,1.9,0.3,4.6-1.9,5.2c-1.4,0.1-2.8-0.1-4.2-0.1
	C85.3,296,85.3,293.9,85.6,291.8z"/>
<path class="st0" d="M74.6,305.8c1.9-0.7,4.9,0.3,5,2.6c0.8,2.6-1.7,4.9-4.3,4.2C72.1,312.1,71.8,307.1,74.6,305.8z"/>
</svg>
