<?xml version="1.0" encoding="utf-8"?>
<!-- Generator: Adobe Illustrator 21.0.0, SVG Export Plug-In . SVG Version: 6.00 Build 0)  -->
<svg version="1.1" id="Layer_1" xmlns="http://www.w3.org/2000/svg" xmlns:xlink="http://www.w3.org/1999/xlink" x="0px" y="0px"
	 viewBox="0 0 284.2 310.4" style="enable-background:new 0 0 284.2 310.4;" xml:space="preserve">
<style type="text/css">
	.st0{fill:#EA3935;stroke:#EA3935;stroke-width:9.375000e-02;}
</style>
<path class="st0" d="M149.4,0.1c10.7,11.5,21.7,22.9,32.5,34.3c5.5-5.4,10.9-10.9,16.7-15.9c16-0.2,32,0,48-0.1
	c-13.4,13.1-27.2,25.8-40.5,38.9c25.1,22.6,49.8,45.6,74.8,68.3c-16.4-0.1-32.8,0-49.2-0.1c-16.6-15.4-33.1-31-49.8-46.3
	c0.1,15.5,0.1,30.9,0,46.4c-10.8,0-21.7,0-32.5,0C149.4,83.8,149.5,42,149.4,0.1z"/>
<path class="st0" d="M99.2,34.5c10.9-11.2,21.6-22.6,32.3-34c0,41.7,0,83.4,0,125.1c-10.7,0-21.5,0-32.2,0c0-15.5,0-30.9,0-46.4
	c-10,9.3-20,18.6-30,28c-6.9,5.9-13,12.8-20.2,18.3c-16.3,0.3-32.6-0.1-48.9,0.2C25.2,103,50,80.1,74.9,57.2
	c-13.5-13.1-27.1-26-40.7-38.8c16.2,0.1,32.4,0,48.6,0C88.4,23.7,93.8,29.1,99.2,34.5z"/>
<path class="st0" d="M2.9,134.1c3.6,0,7.2,0,10.8,0c0,4.9,0,9.8,0,14.7c5.5-5,11.1-9.8,16.7-14.7c5.4,0,10.8,0,16.2,0
	c-8.2,7.2-16.5,14.3-24.7,21.6c8.3,7.2,16.8,14.1,25.2,21.2c-5.5-0.2-11-0.1-16.5-0.1c-5.7-4.8-11.4-9.5-16.9-14.4
	c0,4.8,0,9.6,0,14.4c-3.6,0-7.2,0-10.8,0C2.9,162.6,2.9,148.3,2.9,134.1z"/>
<path class="st0" d="M50.1,134.1c3.6,0,7.2,0,10.9,0c0,5.3,0,10.6,0,15.8c6.9,0,13.7,0,20.6,0c0-5.3,0-10.6,0-15.8
	c3.6,0,7.2,0,10.8,0c0,14.2-0.1,28.4,0,42.6c-3.6,0.1-7.3,0.1-10.9,0.1c0-5.3,0-10.5,0-15.7c-6.9,0-13.8,0-20.6,0
	c0,5.3,0,10.5,0,15.7c-3.6,0-7.2,0-10.8,0C50.1,162.6,50.1,148.3,50.1,134.1z"/>
<path class="st0" d="M96.1,134.1c25.5,0,51,0,76.5,0c-2.2,3.7-4.7,7.3-6.8,11c-6.8,0-13.5,0-20.3,0c0,1.5,0,3,0.1,4.5
	c8.5-0.1,17,0.1,25.5-0.1c-2.4,3.7-4.8,7.4-7.2,11.1c-6.1-0.1-12.2,0-18.4,0c0,1.7,0,3.5,0,5.2c9,0,18.1,0,27.1,0
	c-2.3,3.7-4.6,7.4-6.9,11c-10.3,0-20.6,0-30.9,0c0-13.4,0.1-26.7,0-40.1c-0.2-0.4-0.5-1.1-0.7-1.4c-0.2,0-0.7-0.1-0.9-0.1
	c-2.1,3.3-4.1,6.7-6.2,10c-6.7,0-13.4,0-20,0c0,1.5,0,3,0,4.5c8.4,0,16.9,0.1,25.3-0.1c-2.4,3.7-4.7,7.5-7.2,11.2
	c-6-0.2-12.1,0-18.1-0.1c0,1.7,0,3.5,0,5.2c9,0,17.9,0,26.9,0c-2.2,3.7-4.7,7.3-7,11c-10.2-0.1-20.4,0-30.7,0
	C96.1,162.6,96.2,148.3,96.1,134.1z"/>
<path class="st0" d="M174.3,149c1.8-8.6,10.3-14.9,19-14.9c8.7,0,17.3,0,26,0c-2.4,3.6-4.7,7.4-7.2,11c-6.3,0-12.6-0.1-18.9,0
	c-7.6,0.8-11.8,10.9-6.8,16.7c5,6.3,14,3.2,20.9,3.9c0-1.3,0-2.6,0-3.9c-4.5,0-9.1,0-13.6,0c-2.3-3.6-4.8-7.1-7.2-10.7
	c10.6-0.1,21.1,0,31.6,0c0,8.6,0,17.1,0,25.7c-8-0.1-15.9,0-23.9,0c-5.9,0-11.8-2.6-15.5-7.2C173.9,164.1,172.4,156.1,174.3,149z"/>
<path class="st0" d="M222.1,134.1c3.6,0,7.3,0,10.9,0c0,8.4-0.1,16.7,0.1,25.1c-0.1,2.9,2.3,5.5,5.2,6c4.8,0.9,9.8,1.1,14.5-0.2
	c2.8-0.9,4.3-3.9,4.3-6.7c0.1-8,0-16.1,0-24.1c3.6,0,7.3,0,10.9,0c-0.1,8,0.1,16.1,0,24.1c-0.1,5.6-2.1,11.6-6.9,14.8
	c-5.5,3.8-12.5,4-18.9,3.8c-5.9-0.2-12.3-1.8-16.3-6.5c-2.7-3.4-3.8-7.8-3.8-12.1C222.1,150.1,222.1,142.1,222.1,134.1z"/>
<path class="st0" d="M273.2,134.1c3.7,0,7.3,0,11,0c0,14.2,0,28.5,0,42.7c-3.7,0-7.3,0-10.9,0C273.2,162.6,273.3,148.3,273.2,134.1z
	"/>
<path class="st0" d="M0.4,184.8c16.5,0.2,32.9-0.1,49.4,0.2c16.4,15.5,33,30.7,49.4,46.1c0-15.4,0-30.8,0-46.3c10.7,0,21.5,0,32.2,0
	c0,41.6-0.1,83.3,0,124.9c-10.7-11.3-21.5-22.6-32.2-34c-5.4,5.5-11.1,10.6-16.5,16.1c-16.2-0.1-32.4-0.1-48.6,0
	c13.7-12.9,27.2-25.8,40.7-38.8C50.2,230.3,25.3,207.7,0.4,184.8z"/>
<path class="st0" d="M149.4,184.9c10.8,0,21.7,0,32.5,0c0,15.4,0.1,30.8-0.1,46.2c16.6-15.3,33-30.8,49.6-46.1
	c16.4-0.1,32.8,0,49.2-0.1c-25,22.7-49.8,45.6-74.7,68.3c7.1,6.6,14.1,13.3,21,20.1c6.6,6.2,13.3,12.3,19.6,18.8
	c-16-0.3-32.1-0.1-48.1-0.1c-5.5-5.3-11.4-10.3-16.5-16.1c-10.9,11.5-21.9,22.9-32.6,34.5C149.6,268.5,149.4,226.7,149.4,184.9z"/>
</svg>
