<?xml version="1.0" encoding="utf-8"?>
<!-- Generator: Adobe Illustrator 21.0.0, SVG Export Plug-In . SVG Version: 6.00 Build 0)  -->
<svg version="1.1" id="Layer_1" xmlns="http://www.w3.org/2000/svg" xmlns:xlink="http://www.w3.org/1999/xlink" x="0px" y="0px"
	 viewBox="0 0 985.1 998.9" style="enable-background:new 0 0 985.1 998.9;" xml:space="preserve">
<style type="text/css">
	.st0{fill:#3A3A3C;stroke:#3A3A3C;stroke-width:9.375000e-02;}
</style>
<path class="st0" d="M687.2,2.5c0.4-0.8,0.8-1.6,1.2-2.3c2.7,22.8-1.7,46-10.6,66.9c-13.4,31.8-35.4,59.2-59.3,83.8
	c-24.8,25.1-52.2,47.5-80.7,68.3c-39.1,28.4-80.3,53.8-122.1,77.9c-4.9,2.6-8.1,7.9-8.3,13.4c-0.2,7,0.5,14,0.5,21
	c-0.2,23.9-2.9,47.9-10.1,70.8c-8.2,26.5-23.2,51.5-45.6,68.4c-6.7,5-13.9,9.4-21.4,12.9c3.3-22.8,1.7-46.5-6.2-68.2
	c5.9-2,11.1-6,13.8-11.7c4.3-8.8,4.8-19.8,0-28.5c-2.8-5.1-8.9-6.5-13.4-9.6c-9.2-5.7-16.8-14.6-19.3-25.3
	c-2.7-11.1,0.7-23,7.1-32.2c8.4-12.6,21.1-21.4,34-29c38.3-22.7,77.3-44.3,115-68c34.9-21.6,69.1-44.4,101.8-69.3
	c29.4-22.6,57.8-46.7,82.4-74.6C662.7,47.9,678.1,26.6,687.2,2.5z"/>
<path class="st0" d="M660.4,113.8c2.6-3.6,4.9-7.6,7.7-11.1c2.3,18.5-1.1,37.4-6.8,55c-11.2,34-33.1,63.6-58.9,88.1
	c-31.8,29.8-69.5,52.7-108.8,71.1c-4.1,2.3-8.3-2.3-7.7-6.3c0.8-10.7,0.6-21.4,0.6-32.1c0.1-6.7,2.3-13.6,7.3-18.3
	c3.4-3.1,7.5-5.2,11.3-7.8c31.1-20.7,61.4-42.8,89.5-67.4C618.9,163.6,641.7,140.3,660.4,113.8z"/>
<path class="st0" d="M650.3,198.8c0.6-0.9,1.2-1.8,1.9-2.7c-1.2,36.1-14.5,71.5-36.4,100.1c-20.4,26.8-47.4,48-76.8,64.3
	c-18,9.9-36.9,18.2-56.4,24.5c-4,1.7-7.6-2.7-6.4-6.5c2.9-12.5,5.4-25.2,7-38c0.6-5.9,3.9-11.8,9.6-14.2
	c30.1-13.9,59.3-30.2,85.9-50.2C606.9,254.9,632.3,229.3,650.3,198.8z"/>
<path class="st0" d="M465.1,278.5c2.3-1.4,5-3.1,7.8-2.1c4.5,1.5,6.7,6.5,6.5,11c-0.6,41.1-5.4,82.9-21.3,121.2
	c-11.7,28.4-30.6,54.3-55.6,72.4c-23.9,17.5-52.3,28.2-81.3,33.6c2.9-6.4,4.9-13.1,7-19.7c18.4-7.5,34.9-19.3,47.7-34.4
	c22.5-26.5,33.8-60.8,37.6-94.9c2.1-15.6,2.1-31.4,1.7-47.1c-0.4-5.6,2.3-11.5,7.2-14.5C436.8,295.6,451.1,287.3,465.1,278.5z"/>
<path class="st0" d="M610.8,315.2c3-3.3,5.6-6.9,8.8-10.1c-3.3,15.7-10.8,30.2-19,43.8c-18.6,29.8-43.5,55.9-73.3,74.7
	c-22.1,13.9-47.2,23.3-73.2,26c-3.7,0.3-5.8-4.8-3.4-7.6c6.6-10.8,12.3-22.2,16.8-34.1c1.6-4.3,4.1-8.6,8.1-11
	c4.2-2.2,9-2.9,13.5-4.6c31.5-10.6,61.2-26.2,87.8-46.2C589,336.9,600.5,326.6,610.8,315.2z"/>
<path class="st0" d="M508.8,444.2c12.2-5.3,23.3-12.6,34.4-19.9c-6.2,12.2-16.1,22-26.2,31c-15,12.6-32.3,22.7-50.8,29.2
	c-15.3,5.2-31.8,8-47.9,5.5c-2.9-0.2-4.9-3.4-3.8-6.1c1.5-2.1,3.7-3.7,5.6-5.5c5.2-4.5,9.8-9.5,14.4-14.6c2.1-2.5,5.3-4,8.6-4.1
	C465.7,458.8,488.2,453.7,508.8,444.2z"/>
<path class="st0" d="M432,500.1c16.1,0.4,31.7-4.6,46.6-10.1c-2.6,3.1-6,5.4-9.2,7.8c-15.1,11-31.9,20.4-50.3,24.6
	c-14.9,3.6-32,2.1-44.3-7.7c-2.3-1.4-2.8-5.4-0.2-6.7c5.4-3,11.2-5.3,16.4-8.6c3.6-2,7.6-5.3,12-3.7
	C412.4,498.6,422.2,500.5,432,500.1z"/>
<path class="st0" d="M356.7,515.1c3.3-1.4,6.7,0.4,8.9,2.8c9.3,9.3,22.1,14.5,35.1,15.6c-2,1-4.1,1.8-6.2,2.4
	c-23,6.4-46.3,11.8-69.6,17c-11.8,2.5-23.5,5.3-35.4,7c8.8-9,17.3-18.6,23.7-29.5c1.4-1.9,2.1-4.9,4.8-5.1
	C331.2,523.5,344.1,519.6,356.7,515.1z"/>
<path class="st0" d="M276.2,594.6c0.8-1.7,2.7-3.3,4.6-2.2c7.3,2.7,14,6.5,20.6,10.5c4.1,2.7,8.7,5.5,11,10
	c1.7,3.4,1.2,7.4-0.2,10.8c-14.9,33.2-31.2,65.8-49.7,97.1c-18.9,31.9-40,62.6-64.3,90.6c-2.1,1.8-1.8,4.7,0.1,6.5
	c16.9,21,37,39.1,57.6,56.4c27,22.4,55.4,43.1,84.6,62.4c4.1,2.6,8,5.7,12.7,6.9c-2.6-5.1-7.1-8.7-10.7-13c-13.7-15.8-27-31.9-39-49
	c-4.6-6.8-9.3-13.7-11.7-21.7c5.3-1.2,10.8-1.6,16.1-0.9c1.6,0.1,2.4,1.8,3.3,2.8c9.2,12.7,19.4,24.7,30,36.2c6-1.6,12.4-3.3,16.7-8
	c3.4-3.4,4-8.4,4.6-13c1.8-16,0.9-32,1.7-48.1c0.3-25.3,0.1-50.6,0.1-76c-0.1-13.4,0.4-26.8-1.1-40.1c-0.7-4.9-1.5-10.4-5.6-13.7
	c-5.9-5.4-14.2-6.1-21.7-7.6c0-1.1,0-2.1,0-3.2c36.1,0.5,72.1-1.3,108.2,0.4c9.9,0.6,20.1,1.4,29.4,5.3
	c12.4,4.7,23.5,13.3,30.2,24.9c5.6,10.1,7,22.1,5.8,33.4c-1.6,14.8-11.2,27.7-23.3,35.9c-7.7,5.4-16.7,8.6-25.3,12.4
	c7.2,4.8,13.1,11.1,18,18.1c8.2,11.8,16.3,23.7,24.6,35.4c8.6,12.2,16.7,25.1,28.6,34.4c7.6,5.9,16.9,9.2,26.4,10.8
	c0.1,1,0.1,2,0.2,3.1c-17.3,0-34.6,0-51.9,0c-3.1-0.1-6.3,0.3-9.3-0.3c-5.7-4.7-9.5-11.2-13.6-17.2c-12.4-17.6-23.1-36.5-37.1-53
	c-7.5-9.1-15.1-18.4-25.1-24.9c-7.4-4.6-16.4-5-24.9-5.2c0.1,21-0.4,42.1,0.6,63.1c0.4,7.8-0.7,16.6,4.4,23.1
	c6.6,7.9,17.2,11,27.2,11.4c0,1,0,2.1-0.1,3.1c-27.6,0-55.2-0.3-82.7,0.1c3.4,4.2,7.4,7.9,11.3,11.6c15,14.2,30.9,27.4,48,39.1
	c4,2.6,6,7.7,4.9,12.3c-1.9,8.1-4,16.1-6.7,23.9c-1.6,4.8-6.1,9.8-11.7,8.5c-8.7-1.7-16.7-5.9-24.7-9.5
	c-41.7-19.9-80.6-45.4-116.4-74.6c-28.1-22.9-53.8-48.6-77.7-75.9c-14.8,15.6-32.6,29.1-53.2,35.8c-17.2,5.9-36.2,6.5-53.8,1.7
	c-29.9-7.8-54.7-32.4-62.8-62.2c-1.9-6.3-2.3-12.8-3.5-19.2v-7.7c0.6-3.2,0.9-6.4,1.3-9.6c2.1-17,8.9-33.5,20.1-46.5
	c10.9-12.7,26.1-21.8,42.6-24.8c13.8-2.6,28.2-0.2,40.9,5.4c15,6.5,27.7,17.5,37.6,30.4c10.5,14,20.1,28.6,30.4,42.8
	c19.7-29.2,37.9-59.4,55-90.3C245.6,662,262.5,628.9,276.2,594.6 M399.7,694.2c-1.3,2.5-1.3,5.5-1.5,8.2c-1.6,32-1.4,64-1.3,96
	c11.4-0.3,22.9-0.4,34-2.9c11.9-2.7,24-7.4,32.3-16.8c11.3-12.2,14.6-30.1,11.3-46.1c-2.9-13-11.7-24.1-23.2-30.6
	C435.9,692.9,417.1,692.2,399.7,694.2 M44.4,730.9c-11.4,5.1-21.2,13.5-28,23.9c-9,13.4-12.6,30.5-9.1,46.4
	c6.4,28.6,30.1,53.3,59.3,58.4c14.4,2.1,28.8-3.2,41.1-10.5c17-10.1,31.4-24.1,44.3-39c-9.2-16.8-18.6-33.6-29.2-49.6
	c-8.3-12.6-19.3-23.9-33.3-29.9C75.5,724.3,58.6,724.6,44.4,730.9z"/>
<path class="st0" d="M864,698.4c13.7-9.3,30.7-12.6,47-12.6c17.9-0.2,36.2,4.1,51,14.3c2.8-2.9,5-6.1,7.5-9.2
	c0.9-1.4,2.8-1.4,4.3-1.9c0.2,18.5,0.3,36.9-0.1,55.3c-1.1-0.1-2.2-0.1-3.3-0.1c-6.4-16.7-15.9-33-30.6-43.7
	c-7.8-5.6-17-9.6-26.8-9.8c-11.7-0.6-23.9,2.1-33.2,9.5c-9,7.2-13.9,18.7-14,30.1c-0.5,9,1.7,18.5,7.7,25.4
	c7.1,8.1,16.8,13.4,26.8,17.2c12.7,5.1,25.8,8.8,38.6,13.4c15.8,5.2,31.1,15,39.1,29.9c4.4,7.5,5.4,16.3,6.9,24.7v5.7
	c-1,5.2-1.4,10.6-3.2,15.7c-3.1,9.4-8.9,17.9-16.3,24.4c-13,11.6-30.5,16.4-47.5,17.7c-18.4,1.1-37.4,0.2-54.8-6.3
	c-4.6-1.5-8.5-4.5-13-6c-4.8,2.6-6.1,9.5-11.8,10.6c-0.4-7.9-0.1-15.7-0.3-23.6c-0.1-12-0.7-24-0.4-36.1c0.8,0.1,2.3,0.3,3.1,0.4
	c5.9,16.4,15.4,31.9,28.6,43.5c8,6.8,18.3,10.3,28.4,12.7c15.2,2.6,32-0.6,44-10.7c12.5-10.3,16.6-28.2,12.9-43.6
	c-3.1-11.5-12.7-19.9-23.3-24.5c-17.6-7.9-36.3-12.7-54.2-19.9c-15-6-27.6-18-34-33c-4.3-9.5-5-20.2-3.6-30.5
	C841.4,721.9,850.8,707.3,864,698.4z"/>
<path class="st0" d="M592.8,689.1c43.1-0.3,86.2,0,129.3-0.1c11.6,0.1,23.3-0.2,34.9,0.1c6.5,16.5,13.7,32.7,20.1,49.3
	c-1.3,0.2-3.1,1.6-4,0c-8.2-9.7-16.6-19.4-26.6-27.4c-8.3-6.7-17.5-13.3-28.4-14.6c-21-3.3-42.6-4.2-63.7-1.5
	c-2.1,32-1.7,64.2-1.2,96.3c8.4,0,16.8,0.1,25.1-0.8c11.9-0.5,24.6-3.5,33.5-12c8-8,10.8-19.6,12.9-30.4c1.3,0,2.6-0.1,3.9-0.1
	c0,31.2-0.1,62.3,0,93.5c-1.2,0.1-2.5,0.1-3.7,0.2c-3-10.2-6.9-20.4-12.9-29.2c-6.2-9.3-17.3-14.1-28.1-15.3
	c-10.1-1.2-20.3-1-30.4-1c-0.9,5.1-0.8,10.2-0.8,15.4c0.1,22.8-0.5,45.7,1.6,68.4c0.7,5,1.6,11.1,6.5,13.7c5.5,3,12,3.4,18.1,4.2
	c14.3,1.1,28.8,0.6,43-1.2c12.5-1.5,24.4-6.9,33.8-15.3c11.3-10,19.8-22.8,27.4-35.8c1.2,0.1,2.4,0.2,3.6,0.4
	c-4.9,19.1-9.8,38.2-15,57.2c-60.6-0.1-121.1-0.1-181.7,0c0-1,0-2.1,0-3.1c9.3-1.8,19.8-4.6,25.4-12.9c5-13.2,4-27.7,4.4-41.6
	c0.8-31.3,0.4-62.7,0.5-94c0-12.7,0.2-25.4-1-38c-0.7-5.2-1.4-11.1-5.9-14.5c-5.5-5.2-13.5-5.4-20.5-6.8
	C593,691.4,592.9,689.9,592.8,689.1z"/>
</svg>
