<?xml version="1.0" encoding="utf-8"?>
<!-- Generator: Adobe Illustrator 21.0.0, SVG Export Plug-In . SVG Version: 6.00 Build 0)  -->
<svg version="1.1" id="Layer_1" xmlns="http://www.w3.org/2000/svg" xmlns:xlink="http://www.w3.org/1999/xlink" x="0px" y="0px"
	 viewBox="0 0 683.3 248.5" style="enable-background:new 0 0 683.3 248.5;" xml:space="preserve">
<style type="text/css">
	.st0{stroke:#000000;stroke-width:9.375000e-02;}
</style>
<path class="st0" d="M48,0.1c51.7-0.1,103.4,0,155.1,0c3-0.3,5.6,1.4,7.3,3.6c3.1,3.9,5.3,9.2,3.6,14.2
	c-12.7,41.7-25.4,83.4-38.1,125c-0.3,1.3-1.6,1.8-2.6,2.5c-27.5,15.3-54.8,30.7-82.3,46c-1.8-16.8-3.5-33.6-5.4-50.4
	c15.2-8.9,30.7-17.4,46-26.2c1.8-0.7,1.9-2.8,2.5-4.3c6.3-20.8,12.9-41.6,19.1-62.4c-13.4-0.1-26.8,0-40.3-0.1
	c-8.1,25.1-15.3,50.6-23.4,75.6c-5.1,4.1-10.6,7.8-15.8,11.7c0.8,9.6,2,19.3,2.9,28.9c0.2,1.8-0.5,3.6-1,5.4
	c-8.2,26.3-16,52.7-24.3,78.9c-17.1-0.1-34.2,0-51.3-0.1c21.4-70.3,43-140.5,64.5-210.8c0.3-1.3,1.1-2.8,0.3-4.1
	C59.2,22.4,53.6,11.3,48,0.1z"/>
<path class="st0" d="M255.5,0.3c28.5-0.4,57-0.1,85.5-0.2c-7.3,54.1-14.7,108.1-21.9,162.2c16.9-54,33.1-108.1,49.9-162.2
	c41-0.1,82.1,0,123.1,0c2.6-0.2,5,1.4,6.6,3.3c3.2,3.8,5.7,9.2,4,14.2c-9.4,30.6-18.7,61.2-28,91.9c-13.9-10.9-27.1-22.6-40.8-33.7
	c2.5-9.3,5.8-18.4,8.3-27.8c-12.3,0-24.5-0.2-36.8,0.1c-15.4,50.9-31.4,101.6-46.6,152.5c12.2,0,24.4,0,36.6,0
	c5.4-17.1,10.3-34.3,16-51.3c13.5,11.5,27,22.8,40.6,34.2c-6.5,21.7-13.3,43.2-20,64.8c-60.1,0-120.2,0.1-180.3,0
	c0.7-7.4,1.7-14.9,2.3-22.3c0.3-2.4-1.6-4.3-2.6-6.3c-11.1-18.3-22.4-36.5-33.3-54.9c15.5-0.1,31,0,46.6-0.1
	c4.6-30.8,9-61.6,13.6-92.4c0.5-2.9,0.5-5.8,0.5-8.7c-14.5,30.4-28.3,61.1-42.7,91.6c-12.6,0-25.2,0-37.8,0
	c7.1,12.3,14.3,24.5,21.4,36.7c-8.9,18.8-18.1,37.4-26.9,56.2c-18.6,0.2-37.2,0.1-55.8,0.1C176.4,165.6,216.2,83.1,255.5,0.3z"/>
<path class="st0" d="M503.3,0.1c60-0.1,119.9,0,179.9,0c-7.1,23.6-14.5,47.2-21.6,70.9c-17.2,0.3-34.4,0.1-51.5,0.1
	c2.3-7.7,4.7-15.4,7-23.1c-4.3-0.1-8.7,0-13,0c-20.5,66.6-40.8,133.3-61.4,200l-0.7,0.4c-16.9,0.2-33.9,0-50.8,0.1
	c20.4-66.8,41-133.6,61.4-200.4c-8.1-0.1-16.2,0-24.2-0.1C520,32,511.6,16.1,503.3,0.1z"/>
</svg>
