<?xml version="1.0" encoding="utf-8"?>
<!-- Generator: Adobe Illustrator 21.0.0, SVG Export Plug-In . SVG Version: 6.00 Build 0)  -->
<svg version="1.1" id="Layer_1" xmlns="http://www.w3.org/2000/svg" xmlns:xlink="http://www.w3.org/1999/xlink" x="0px" y="0px"
	 viewBox="0 0 342.2 393.5" style="enable-background:new 0 0 342.2 393.5;" xml:space="preserve">
<style type="text/css">
	.st0{fill:#FEFEFE;stroke:#FEFEFE;stroke-width:9.375000e-02;}
	.st1{fill:#C30101;stroke:#C30101;stroke-width:9.375000e-02;}
</style>
<path class="st0" d="M135.4,46.6c11.2-16.1,23.6-31.4,36.1-46.5c5.7,8.3,12.4,15.9,18.5,24c8.8,10.7,16.9,21.9,24.8,33.2
	c4,1.9,8.4,2.7,12.5,4.3c10.3,3.4,20.1,8.1,29.4,13.5c5.8-5,7.4-13.3,6.7-20.6c-1.4-13.2-8.2-25-11.9-37.7
	c15.1,9.6,29.5,20.7,41.4,34.2c5.2,6.3,10.3,12.9,13.6,20.5c5.9,12.1,7.5,26.2,4.4,39.4c-0.2,3.5-2.5,6.7-2.3,10.3
	c2,3.3,4.5,6.3,6.6,9.5c7.4,11.3,13.3,23.5,17.7,36.3c3.9,10.5,5.6,21.7,7.6,32.7c2.7,19.2,1.9,38.8-2.1,57.8
	c-3.8,21.8-13,42.6-25.5,60.7c-8.1,12.6-18.5,23.6-29.5,33.7c5,1.1,10.2-0.2,15.1-1.5c5.7-1.4,10.7-5.9,12-11.7
	c1-4.2,1.2-8.6,1.6-12.9c9.9-0.3,19.9-0.2,29.9,0c-0.3,22.4,0,44.9-0.2,67.3c-24.5,0.5-48.9,0.1-73.4,0.2c-89,0-178,0-267,0
	c0.2-22.7-0.2-45.4,0.2-68.1c10.1,0.3,20.2,0.3,30.3,0.7c0.8,5.8,0.4,12.1,3.9,17.2c4.9,7.7,15.2,9.7,23.7,8.7
	c-35-29.9-56.8-74.5-59.1-120.4c-2.1-39,10.3-78.4,33.2-109.9c1.1-1.2,0.4-2.9,0-4.2c-5.1-14.4-3.2-30.3,2.4-44.3
	c4.8-11.4,11.3-22.2,20-31c9.3-8.6,20.5-14.7,32.1-19.5c-2.5,11.2-8.5,21.5-9.4,33c-0.5,7,1.9,14.3,6.6,19.5
	c13.3-7.5,27.3-13.6,42-17.5C130.6,54.6,132.4,50.1,135.4,46.6 M164,21.3c-9.5,13.5-18.7,27.3-28.1,40.9c-1.2,1.7-2.4,3.7-4.6,4.1
	c-14.1,4-28.1,8.8-40.5,16.7c-2.3,1.2-4.6,3.2-7.3,3c-6.6-4.4-10.7-11.7-13.5-18.9c-3.5-9.6,0.2-19.6,4.4-28.2
	c-7.5,5.3-13.5,12.4-19.2,19.5c-11,14.6-18.3,33.7-13.9,52.1c0.7,4,3.1,7.8,2.8,11.9c-0.9,2.7-3.2,4.7-4.8,7.1
	C22.8,153.2,12.4,181.2,9.9,210c-0.3,9.5-0.4,19,0.2,28.5c4.2,40.3,23.6,79.4,54.8,105.6c5.6,5.6,12.8,9.2,18.6,14.6
	c-8.1,2.8-16.7,3-25.1,3.1c-10.2-0.3-21.6-2.6-28.6-10.7c-4.2-4.4-5.4-10.5-6.9-16.2c-4,0.1-8,0-12,0c-0.1,16.4,0,32.7,0,49.1
	c50.5,0,101.1,0,151.6,0c2,0.4,1.4-2.4,1.6-3.5c0.1-11.7,0.1-23.3,0-35c-36.7-2.1-71.4-24.8-88.1-57.6c-3.7-0.9-8-0.3-11.2-2.8
	c-3.6-2.7-8-4.6-11-8.1c-8.2-8.6-11.1-21.3-9.4-32.9c1.3-9.4,6.8-18.4,15.5-22.6c-0.4-1.7-1-3.4-1-5.2c3.4-8.4,1.5-17.7,2-26.5
	c2.1-6.9,5.4-13.5,9.4-19.6c2-3.2,4.8-5.9,6.4-9.4c4.1-11.2,8.1-22.7,14.9-32.6c-0.3,5.7,0,11.7,3.7,16.3c3.7-14.9,7-31.3,18.6-42.3
	c-1.4,7.9-1.6,16.6,2.9,23.6c0.3,0,0.9,0,1.1,0c7.2-10.6,13.2-21.9,20.6-32.3c9.8-15.2,21.3-29.3,32.3-43.7
	c6.1,8.1,12.7,15.9,19.5,23.4c13.7,15.8,29.7,29.4,42.5,45.9c-0.3-9.1-3.5-17.9-7.5-26c6.2,6.4,11.2,13.9,15.6,21.6
	c7.5,12.1,13.2,25.2,18.2,38.5c0.8,2.1,2,4,3.5,5.6c8.6,9.3,15.1,20.6,18.8,32.7c-1.3,5.5-0.5,11.2-0.5,16.8c0,3.7,2.1,7.1,1.9,10.9
	c2.7,1.7,5.3,3.6,7.1,6.2c5.1,6.8,8.5,15.2,8,23.8c0.8,12-6.2,23.1-15.1,30.5c-3.4,2.6-6.1,6-9.9,7.9c-10.3,5.5-17.1,15.1-25.2,23.2
	c-6.8,8.1-14.6,15.5-23.6,21.2c-13.3,8.4-28.9,12.3-44.4,13.5c-0.2,12.8-0.1,25.6,0.1,38.3c51,0.1,102,0.1,153,0
	c0.1-16.3,0-32.7,0-49c-4.3,0-8.5-0.1-12.8,0.1c0.3,8.4-4.6,16.4-11.5,20.8c-10.4,6.2-23.1,6.6-34.9,5.3c-4.9,0-9.7-1.2-14.4-2.6
	c4.9-4.6,10.7-7.9,15.8-12.3c12.5-10.6,23.6-22.9,32.3-36.8c13.3-19.6,20.8-42.6,24.3-65.9c1.4-11.7,1.7-23.5,0.8-35.3
	c-3-29.8-13.8-59-32.3-82.6c-2.3-2.4-1.9-6-0.9-8.9c2.6-7.1,3.9-14.8,3.2-22.3c-1.9-16.7-10.4-32.1-22-44.1
	c-3.9-4.4-8.1-8.5-13-11.9c2.7,5.8,6.2,11.6,6.4,18.2c0.6,11.8-6.7,22.5-15.5,29.7c-4.4-1.9-8.4-4.6-12.6-6.9
	c-9.9-5-20.3-9.3-31.1-12.1c-2.9-0.8-6.1-1.8-7.6-4.6c-10.5-15.4-21.3-30.7-31.8-46.2c-1.2-1.7-2.3-3.6-4-4.8
	C168.2,14.3,166.4,18,164,21.3 M250.3,245.5c-11.9,5.6-22.3,13.8-33.9,20c-1.6-4.6-3.7-8.9-6.3-13c1.2,5,2.1,10.1,2,15.3
	c-6.3,4.8-14.1,7.2-21.5,9.7c5.8,5.1,11.7,10.9,19.5,12.6c3.6,1.3,7.3,0.3,11-0.3c2.7,4.6,5.5,9.1,8.1,13.8
	c-0.6-5.7-3.1-11-3.5-16.7c8.8-7,13.8-17.1,19.7-26.4c3.7-6.4,8.4-12.2,12.2-18.5C255.2,243.2,252.7,244.4,250.3,245.5 M84.4,242.5
	c9.8,12.6,16.3,27.3,26.7,39.4c4.1,5.2,10.5,9,17.3,9c8.9-1.1,16.3-6.9,22.3-13.3c-4.8-2-9.8-3.7-14.4-6
	C118.3,262.9,103.2,249.2,84.4,242.5 M144.4,320.7c-1,0.7-1.1,2.2-0.1,2.9c3.2,3.1,6.4,6.4,10.2,8.7c3.3-1.6,5.6-4.9,9.1-6.2
	c8.6-4.4,18.5-2.8,27.7-3.2c-6.2-3.6-13.5-4.8-20.4-6.3C162,315.2,152.2,315.6,144.4,320.7z"/>
<path class="st1" d="M164,21.3c2.4-3.3,4.2-7,7.4-9.5c1.7,1.3,2.8,3.1,4,4.8c10.5,15.5,21.2,30.8,31.8,46.2c1.5,2.8,4.7,3.8,7.6,4.6
	c10.8,2.8,21.1,7.1,31.1,12.1c4.2,2.3,8.2,5,12.6,6.9c8.8-7.2,16.1-17.9,15.5-29.7c-0.2-6.6-3.7-12.4-6.4-18.2
	c4.8,3.4,9,7.6,13,11.9c11.6,12,20.1,27.4,22,44.1c0.7,7.6-0.5,15.3-3.2,22.3c-1,2.9-1.4,6.5,0.9,8.9c18.5,23.6,29.2,52.9,32.3,82.6
	c0.9,11.8,0.6,23.6-0.8,35.3c-3.5,23.3-11,46.3-24.3,65.9c-8.7,13.9-19.8,26.2-32.3,36.8c-5,4.4-10.9,7.7-15.8,12.3
	c4.7,1.4,9.5,2.6,14.4,2.6c11.8,1.3,24.4,0.9,34.9-5.3c6.9-4.5,11.8-12.4,11.5-20.8c4.3-0.1,8.5-0.1,12.8-0.1c0,16.3,0,32.6,0,49
	c-51,0.1-102,0.1-153,0c-0.2-12.8-0.3-25.6-0.1-38.3c15.5-1.1,31.2-5,44.4-13.5c9-5.7,16.8-13.1,23.6-21.2
	c8.1-8,14.9-17.7,25.2-23.2c3.8-1.9,6.6-5.3,9.9-7.9c8.9-7.4,15.9-18.5,15.1-30.5c0.6-8.6-2.9-17-8-23.8c-1.9-2.6-4.5-4.5-7.1-6.2
	c0.3-3.8-1.8-7.2-1.9-10.9c0-5.6-0.9-11.3,0.5-16.8c-3.7-12.1-10.2-23.4-18.8-32.7c-1.6-1.6-2.8-3.5-3.5-5.6
	c-5-13.3-10.7-26.4-18.2-38.5c-4.4-7.7-9.4-15.2-15.6-21.6c3.9,8.2,7.1,16.9,7.5,26c-12.8-16.5-28.9-30.1-42.5-45.9
	c-6.9-7.5-13.4-15.3-19.5-23.4c-11.1,14.3-22.5,28.4-32.3,43.7c-7.4,10.4-13.4,21.7-20.6,32.3c-0.3,0-0.9,0-1.1,0
	c-4.5-7-4.3-15.7-2.9-23.6c-11.5,11.1-14.9,27.4-18.6,42.3c-3.8-4.6-4-10.7-3.7-16.3c-6.8,9.9-10.8,21.4-14.9,32.6
	c-1.7,3.4-4.4,6.2-6.4,9.4c-4,6.1-7.3,12.7-9.4,19.6c-0.5,8.8,1.4,18.1-2,26.5c0.1,1.8,0.6,3.4,1,5.2c-8.7,4.2-14.2,13.3-15.5,22.6
	c-1.6,11.6,1.2,24.3,9.4,32.9c3,3.5,7.4,5.4,11,8.1c3.2,2.5,7.4,1.9,11.2,2.8c16.7,32.8,51.3,55.6,88.1,57.6c0.1,11.7,0.1,23.3,0,35
	c-0.2,1.1,0.4,3.9-1.6,3.5c-50.5,0-101.1,0-151.6,0c0-16.4,0-32.7,0-49.1c4,0,8,0.1,12,0c1.6,5.6,2.7,11.8,6.9,16.2
	c7,8.1,18.4,10.3,28.6,10.7c8.4-0.1,17-0.4,25.1-3.1c-5.8-5.4-13-9-18.6-14.6c-31.2-26.2-50.6-65.3-54.8-105.6
	c-0.6-9.5-0.5-19-0.2-28.5c2.4-28.8,12.9-56.8,29.4-80.6c1.6-2.4,3.8-4.4,4.8-7.1c0.2-4.2-2.1-7.9-2.8-11.9
	C36.8,92,44.1,72.9,55.1,58.3c5.7-7.1,11.7-14.2,19.2-19.5c-4.2,8.6-7.9,18.7-4.4,28.2c2.9,7.2,7,14.5,13.5,18.9
	c2.7,0.2,5-1.8,7.3-3c12.4-7.9,26.4-12.8,40.5-16.7c2.2-0.4,3.4-2.4,4.6-4.1C145.3,48.5,154.5,34.8,164,21.3z"/>
<path class="st1" d="M250.3,245.5c2.5-1.1,4.9-2.3,7.3-3.5c-3.8,6.3-8.6,12.1-12.2,18.5c-5.9,9.2-11,19.4-19.7,26.4
	c0.4,5.7,2.9,11,3.5,16.7c-2.6-4.6-5.5-9.1-8.1-13.8c-3.6,0.5-7.3,1.6-11,0.3c-7.8-1.7-13.7-7.5-19.5-12.6c7.4-2.5,15.2-5,21.5-9.7
	c0.2-5.1-0.8-10.3-2-15.3c2.6,4.1,4.7,8.4,6.3,13C227.9,259.3,238.4,251.1,250.3,245.5z"/>
<path class="st1" d="M84.4,242.5c18.8,6.7,34,20.4,51.8,29c4.7,2.3,9.6,4,14.4,6c-5.9,6.4-13.3,12.2-22.3,13.3
	c-6.8,0-13.1-3.7-17.3-9C100.7,269.8,94.1,255.1,84.4,242.5z"/>
<path class="st1" d="M144.4,320.7c7.8-5.1,17.6-5.5,26.5-4.2c7,1.5,14.2,2.7,20.4,6.3c-9.3,0.4-19.1-1.2-27.7,3.2
	c-3.5,1.4-5.8,4.6-9.1,6.2c-3.9-2.3-7-5.6-10.2-8.7C143.3,322.9,143.5,321.4,144.4,320.7z"/>
</svg>
