<?xml version="1.0" encoding="utf-8"?>
<!-- Generator: Adobe Illustrator 21.0.0, SVG Export Plug-In . SVG Version: 6.00 Build 0)  -->
<svg version="1.1" id="Layer_1" xmlns="http://www.w3.org/2000/svg" xmlns:xlink="http://www.w3.org/1999/xlink" x="0px" y="0px"
	 viewBox="0 0 316.7 293.5" style="enable-background:new 0 0 316.7 293.5;" xml:space="preserve">
<style type="text/css">
	.st0{fill:#151515;stroke:#151515;stroke-width:9.375000e-02;}
	.st1{fill:#F9F9FA;stroke:#F9F9FA;stroke-width:9.375000e-02;}
	.st2{fill:#E8E8EC;stroke:#E8E8EC;stroke-width:9.375000e-02;}
	.st3{fill:#222222;stroke:#222222;stroke-width:9.375000e-02;}
</style>
<path class="st0" d="M106.5,0.1c5.8,5.6,11.5,11.4,17.2,17.1c3-1.3,6-2.6,9-4c7.3,3.7,14.7,7.3,22,11c7.3-3.7,14.7-7.3,22-11
	c3,1.3,6,2.7,9,4c5.7-5.7,11.4-11.5,17.2-17.1c13.7,39.3,27.5,78.5,41.2,117.8c0.4,1.4,0.8,2.8,0.1,4.2c-1.9,4.9-4.2,9.5-6.2,14.3
	c4.5,4.7,9.4,9,13.6,13.9c-21.7,22.2-44,44-65.9,66.1c19.7,0,39.4,0,59.1,0c2.4-3,4.7-5.9,7-9c17.9-0.1,35.7,0,53.6,0
	c-2.4,12.4-4.7,24.8-7.1,37.1c-0.5,1.9-0.3,3.9,0.6,5.6c5.9,14.4,11.7,28.8,17.6,43.2c-17.3,0.1-34.6,0-51.8,0
	c-4.3,0.6-5.7-5.6-10-5c-66.7,0-133.4,0-200.1,0c-5.8-0.1-10.2,5-16,5c-7.6,0-15.3,0-22.9,0c-5.5,0.3-10.4-3.2-13.8-7.2
	c-2.5-3.1-2.1-7.2-1.5-10.9c2.2-17.7,4.2-35.4,6.5-53.1c0.6-5.5,4.6-9.7,8.8-12.9c3.5-2.6,8-1.9,12-2c6,0.2,12-0.3,18,0.2
	c5.2,1.6,9,5.8,13.4,8.8c21.5,0.1,43,0,64.4,0c-22-22.1-44.1-44.1-66.1-66.1c4.6-4.7,9.3-9.3,13.9-13.9c-2-4.8-4.3-9.4-6.2-14.3
	c-0.7-1.4-0.3-2.8,0.1-4.2C79,78.6,92.8,39.4,106.5,0.1 M114.6,22.3c-1.8,5.7-4.2,11.3-5.3,17.2l0-0.8
	c-9.1,27.4-17.6,55.1-26.6,82.5c-0.4,1.8-1.6,3.7-0.5,5.5c2.4,4.8,4.7,9.6,7.1,14.5c-3.5,3.5-7.1,7.1-10.6,10.6
	c24.1,23.8,47.8,47.9,72.1,71.5c1,1.5,2.4,2.6,3.7,3.9c1.3-1.5,2.7-2.9,4-4.5c4.6-4,8.5-8.5,13-12.6c19.6-19.6,39.6-38.8,59.2-58.4
	c-3.5-3.6-7.1-7.1-10.6-10.6c2.5-5.3,5.3-10.4,7.6-15.8c-1.2-5.8-3.5-11.3-5.2-17c-7.9-24.2-15.2-48.5-23.4-72.6
	c-1-4.4-2.7-8.7-4.1-13c-4.1,4.6-8.6,8.9-12.9,13.3c-2.3-2.1-4.6-4.3-6.9-6.6c-6.9,2.5-13.7,5.1-20.5,7.7c-6.6-2.5-13.2-5-19.8-7.4
	c-2.1,2.1-4.2,4.2-6.3,6.3C124.1,31.4,119.2,26.9,114.6,22.3 M14.4,226.3c-1.7,16.1-4.4,32-5.9,48.1c-0.4,4.6,3.6,9,8.3,8.9
	c6.4,0.1,12.8,0,19.1,0c5.5,0.3,10.9-4.4,11-10c0.9-8.1,1.5-16.3,2.2-24.5c0.6-7.8,1.5-15.7,2-23.5c0.3-4.4-3.8-8.1-8.1-8
	c-6,0-12,0-18.1,0C19.7,217.1,14.8,221.2,14.4,226.3 M255.1,217.4c2.1,22.3,3.4,44.7,5.8,66.9c4.4,0,8.9,0,13.3,0
	c-0.9-9.4-1.8-18.8-2.7-28.2c1.4,0,2.9,0,4.3,0c3.7,9.4,7.2,18.8,10.9,28.2c4.6,0,9.2,0,13.8,0c-4.5-11.7-9.1-23.4-13.8-35.1
	c1.8-10.6,3.8-21.2,5.6-31.8c-4.3,0-8.5,0-12.8,0c-1.6,8.5-3.3,17-4.9,25.5c-1.5,0-3,0-4.5,0c-0.8-8.5-1.7-17-2.4-25.5
	C263.5,217.4,259.3,217.4,255.1,217.4 M56.4,230.4c1.7,15.9,3,31.8,5,47.6c4.2,0.4,8.4,0.1,12.6,0.1c4.1-15.9,7.7-31.8,11.6-47.7
	c-3.1,0-6.2,0-9.3,0c-3,12-5.5,24.1-8.1,36.2c-0.2-12.1-1.6-24.1-2.7-36.2C62.6,230.4,59.5,230.4,56.4,230.4 M89,230.4
	c-0.8,15.9-2,31.8-2.8,47.7c8.3,0.1,16.6,0,24.9,0c0.4-3,0.4-6.1,0.3-9.1c-5-0.1-10,0-15,0c0.2-3.6,0.3-7.2,0.3-10.8
	c4.2,0,8.4,0,12.6,0c0.2-3,0.3-5.9,0.3-8.9c-4.2-0.1-8.4,0-12.5,0c0.1-3.4,0.3-6.8,0.5-10.2c4.9,0,9.9,0,14.8,0
	c0-2.8,0.2-5.7,0.3-8.5C104.9,230.4,97,230.4,89,230.4 M117.3,230.4c-0.5,15.9-1.6,31.8-1.5,47.8c3.2,0,6.4,0.2,9.6-0.2
	c0.3-5.9,0.2-11.7,0.4-17.6c2,0,4.1,0,6.1,0c0.6,1,1.6,1.8,1.8,2.9c0.4,4.9-0.3,9.8-0.4,14.8c3.3,0.1,6.6,0,9.9,0
	c0-5.2,0.1-10.5,0-15.7c0-2.4-1.4-4.5-2.8-6.4c1.4-2,3-4.1,2.9-6.6c0-4.3,0.1-8.7,0-13c0.1-3.4-3.2-6-6.4-6
	C130.3,230.3,123.8,230.4,117.3,230.4 M147.5,230.4c2.6,15.9,4.9,31.8,7.6,47.7c4.2,0.1,8.4,0,12.7,0c1.6-9.5,2.7-19.2,4.3-28.7
	c0.1-1.5,0.3-3.1,0.6-4.6c0.1,0.2,0.4,0.7,0.5,0.9c0.8,10.9,3.5,21.5,5.1,32.3c4.3,0,8.6,0,12.9,0c2.1-15.9,4-31.8,6-47.7
	c-3.1,0-6.2,0-9.2,0c-1.4,11.8-2.8,23.6-3.6,35.5c-2.3-11.8-4.2-23.7-6.2-35.5c-3.8,0-7.6,0-11.4,0c-1.6,12-3.2,24-5.2,36
	c-0.8-12.1-2.9-24-4.6-36C153.7,230.4,150.6,230.4,147.5,230.4 M206.9,230.4c-2.2,15.9-4.8,31.8-7,47.7c3.3,0.1,6.5,0,9.8,0.1
	c0.7-3.3,1.1-6.6,1.4-10c2.5,0,5,0,7.5,0c0.6,3.3,1.4,6.7,2.2,10c3.3,0,6.6,0,9.9-0.1c-3.8-15.9-7.9-31.8-11.8-47.7
	C214.9,230.4,210.9,230.4,206.9,230.4 M230.8,230.4c1.2,15.9,1.7,31.8,3.2,47.7c7.4,0,14.9,0,22.3,0c-0.3-3-0.5-6-0.7-9.1
	c-4.2-0.1-8.5-0.1-12.7,0c-0.7-12.9-2.2-25.7-2.9-38.6C236.9,230.4,233.8,230.4,230.8,230.4z"/>
<path class="st1" d="M114.6,22.3c4.7,4.6,9.5,9,14,13.8c2.1-2.1,4.2-4.2,6.3-6.3c6.6,2.5,13.2,5,19.8,7.4c6.9-2.5,13.7-5.2,20.5-7.7
	c2.2,2.3,4.5,4.4,6.9,6.6c4.3-4.4,8.8-8.7,12.9-13.3c1.4,4.3,3.1,8.6,4.1,13c0.4,5.2,1.2,10.4,2.5,15.5c4.3,21.7,9.1,43.3,13.4,65
	c0.7,3.7,1.9,7.3,2.1,11.1c-0.2,4.9-3.6,8.9-4,13.8c1.6,3.9,4.6,7.1,7,10.4c-17.1,19.9-34.8,39.4-52,59.2c-3.6,3.7-6.9,7.6-9.7,11.9
	c-1.3,1.6-2.7,3-4,4.5c-1.3-1.3-2.7-2.4-3.7-3.9c-1.1-1.9-2.1-3.9-3.4-5.6c-16.7-18.9-33.5-37.9-50.2-56.8c-2.6-3-5.8-5.7-7.5-9.4
	c1.7-3.7,5.1-6.4,6.6-10.2c-0.6-5.8-5.4-10.8-3.8-16.9c5-23.4,9.8-46.9,14.6-70.3c1.2-4.7,1.9-9.6,2.1-14.5
	C110.4,33.7,112.8,28.1,114.6,22.3 M99.6,141.4c4.6,4.3,9,8.7,13.4,13.2c0.8,4.9,4.8,8.3,7.4,12.2c5.5,7.9,11.4,15.5,16.8,23.5
	c6.1-5.5,11.6-11.6,17.6-17.2c6.2,5.6,11.8,11.9,18.2,17.3c5.9-8.6,12.2-17,18.1-25.7c2.4-3.5,5.5-6.7,6.5-11
	c4.1-4.2,8.2-8.3,12.3-12.4c-12.8-31.1-25.5-62.2-38.4-93.2c-1.6,10.7-2.9,21.4-4.5,32.1c-0.3,1.9-0.6,3.9,0.2,5.7
	c5.6,15.6,11.2,31.2,16.8,46.9c-4.4,4.3-8.7,8.6-13,13c-5.4-7.4-10.8-14.8-16.2-22.2c-5.6,7.2-11.1,14.5-16.6,21.7
	c-4.2-4.1-8.4-8.3-12.6-12.5c5.1-14.4,10.3-28.8,15.5-43.3c0.9-2.6,2.4-5.3,1.7-8.2c-1.6-11.1-3-22.2-4.7-33.3
	C125.1,79.1,112.3,110.3,99.6,141.4 M141.9,54.9c0.8,5.8,1.6,11.7,2.4,17.5c7-0.1,14,0.3,20.9-0.2c0.9-5.7,1.6-11.5,2.4-17.2
	C159.1,54.9,150.5,54.9,141.9,54.9 M124.1,63.8c-1.8,4.2-1.2,8.9-1.2,13.3c3.3-7.1,6.3-14.3,9.2-21.5
	C128.6,57.5,125.8,60.4,124.1,63.8 M177.6,55.6c2.7,8,6.1,15.8,9,23.8c0.2-3.7,0.3-7.5,0-11.2C186.2,62.8,182,58.4,177.6,55.6
	 M164.8,132.5c2.3,3,4.6,6.1,7,9.1c2.9-3,5.9-5.9,8.9-8.9c-5.1-15.3-10.5-30.5-15.7-45.8C164.5,102,164.9,117.3,164.8,132.5
	 M128.8,132.5c3,2.9,5.8,6.1,9,8.8c2.5-2.8,4.6-5.9,7-8.9c0-14.6,0.1-29.1-0.1-43.7C139.2,103.3,134.1,117.9,128.8,132.5z"/>
<path class="st2" d="M199.2,35.8c8.2,24.1,15.5,48.4,23.4,72.6c1.6,5.7,4,11.2,5.2,17c-2.3,5.4-5.1,10.5-7.6,15.8
	c3.5,3.5,7.1,7.1,10.6,10.6c-19.6,19.6-39.6,38.8-59.2,58.4c-4.4,4.1-8.4,8.6-13,12.6c2.9-4.3,6.2-8.2,9.7-11.9
	c17.2-19.9,34.9-39.3,52-59.2c-2.5-3.4-5.5-6.5-7-10.4c0.4-4.8,3.7-8.9,4-13.8c-0.2-3.8-1.4-7.4-2.1-11.1c-4.3-21.7-9-43.3-13.4-65
	C200.5,46.2,199.6,41,199.2,35.8z"/>
<path class="st2" d="M109.3,38.7l0,0.8c-0.1,4.9-0.9,9.7-2.1,14.5c-4.9,23.4-9.6,46.9-14.6,70.3c-1.6,6,3.2,11.1,3.8,16.9
	c-1.6,3.8-4.9,6.5-6.6,10.2c1.7,3.7,4.9,6.4,7.5,9.4c16.7,19,33.4,37.9,50.2,56.8c1.3,1.8,2.3,3.7,3.4,5.6
	c-24.3-23.6-48-47.8-72.1-71.5c3.5-3.5,7.1-7.1,10.6-10.6c-2.4-4.8-4.7-9.6-7.1-14.5c-1.1-1.7,0.1-3.7,0.5-5.5
	C91.7,93.8,100.2,66.1,109.3,38.7z"/>
<path class="st3" d="M99.6,141.4c12.8-31.1,25.5-62.2,38.5-93.3c1.6,11.1,3.1,22.2,4.7,33.3c0.7,2.9-0.8,5.5-1.7,8.2
	c-5.2,14.4-10.3,28.8-15.5,43.3c4.2,4.1,8.3,8.4,12.6,12.5c5.6-7.2,11.1-14.5,16.6-21.7c5.4,7.4,10.8,14.8,16.2,22.2
	c4.3-4.4,8.6-8.7,13-13c-5.5-15.6-11.2-31.2-16.8-46.9c-0.9-1.8-0.5-3.8-0.2-5.7c1.6-10.7,2.9-21.4,4.5-32.1
	c13,31,25.7,62.1,38.4,93.2c-4.1,4.1-8.2,8.3-12.3,12.4c-8.4,8.1-16.3,16.7-24.7,24.9c-6.1-5.7-12-11.6-18.1-17.4
	c-5.8,5.8-11.6,11.6-17.4,17.4c-8-8.1-16.3-16-24.4-24.1C108.6,150.1,104.2,145.6,99.6,141.4z"/>
<path class="st3" d="M141.9,54.9c8.6,0,17.2,0,25.8,0c-0.8,5.8-1.5,11.5-2.4,17.2c-6.9,0.5-14,0.1-20.9,0.2
	C143.5,66.5,142.7,60.7,141.9,54.9z"/>
<path class="st3" d="M124.1,63.8c1.8-3.4,4.5-6.4,8-8.2c-2.8,7.3-5.9,14.5-9.2,21.5C122.8,72.7,122.2,68,124.1,63.8z"/>
<path class="st3" d="M177.6,55.6c4.4,2.8,8.6,7.1,9,12.6c0.3,3.7,0.2,7.4,0,11.2C183.7,71.4,180.3,63.7,177.6,55.6z"/>
<path class="st3" d="M164.8,132.5c0.1-15.2-0.3-30.4,0.2-45.6c5.2,15.3,10.5,30.5,15.7,45.8c-3,2.9-6,5.9-8.9,8.9
	C169.4,138.5,167.1,135.5,164.8,132.5z"/>
<path class="st3" d="M128.8,132.5c5.3-14.6,10.4-29.3,15.9-43.8c0.2,14.6,0,29.1,0.1,43.7c-2.3,3-4.5,6.1-7,8.9
	C134.6,138.7,131.9,135.4,128.8,132.5z"/>
<path class="st2" d="M172.9,178.6c8.4-8.1,16.3-16.8,24.7-24.9c-1,4.3-4.1,7.5-6.5,11c-5.9,8.6-12.2,17-18.1,25.7
	c-6.4-5.4-11.9-11.7-18.2-17.3c-6,5.6-11.5,11.7-17.6,17.2c-5.5-7.9-11.3-15.6-16.8-23.5c-2.6-4-6.6-7.3-7.4-12.2
	c8.1,8,16.4,15.9,24.4,24.1c5.8-5.8,11.6-11.6,17.4-17.4C160.9,167,166.8,172.9,172.9,178.6z"/>
<path class="st1" d="M14.4,226.3c0.4-5.1,5.4-9.2,10.4-8.9c6,0,12.1,0,18.1,0c4.3-0.1,8.4,3.6,8.1,8c-0.5,7.9-1.4,15.7-2,23.5
	c-0.7,8.2-1.3,16.3-2.2,24.5c-0.1,5.6-5.5,10.3-11,10c-6.4,0-12.7,0-19.1,0c-4.7,0.1-8.7-4.3-8.3-8.9
	C9.9,258.3,12.6,242.3,14.4,226.3 M26.6,229.9c-1.4,13.2-3,26.4-4.2,39.5c3.8,0,7.6,0,11.3,0c1.3-13.2,3-26.3,4.2-39.6
	C34.2,229.9,30.4,229.9,26.6,229.9 M13.7,250.5c-0.8,6.7-1.6,13.3-2.5,20c-0.2,2.9-1.1,6.7,1.7,8.7c3.8,2.4,8.6,1.7,12.9,1.9
	c5-0.2,10.3,0.6,15-1.7c2.9-1.5,3.6-5,3.8-8c0.6-7,1.2-14,1.8-20.9c-2.7,0.1-5.4,0.1-8.2,0.1c-0.6,5.6-1,11.3-1.6,16.9
	c-0.1,1.7-0.8,3.9-2.9,4c-4.2,0.5-8.6,0.8-12.6-0.3c-0.2-0.3-0.7-0.8-0.9-1.1c-0.3-6.6,1.5-13,1.7-19.6
	C19.1,250.5,16.4,250.5,13.7,250.5z"/>
<path class="st1" d="M255.1,217.4c4.2,0,8.4,0,12.6,0c0.7,8.5,1.7,17,2.4,25.5c1.5,0,3,0,4.5,0c1.7-8.5,3.4-17,4.9-25.5
	c4.3,0,8.5,0,12.8,0c-1.8,10.6-3.8,21.2-5.6,31.8c4.7,11.7,9.3,23.4,13.8,35.1c-4.6,0-9.2,0-13.8,0c-3.7-9.4-7.2-18.8-10.9-28.2
	c-1.4,0-2.9,0-4.3,0c0.9,9.4,1.9,18.8,2.7,28.2c-4.5,0-8.9,0-13.3,0C258.6,262,257.2,239.7,255.1,217.4 M260.7,251.6
	c0.4,10.1,1.2,20.3,2.8,30.3c2.6,0.3,5.3,0.2,8,0.1c-0.4-7.6-1.5-15.1-2.1-22.6c-0.1-2-0.3-4.6,1.6-5.7c2.5-0.7,6.3-0.7,7.3,2.2
	c3.8,8.4,6.3,17.5,10.4,25.8c2.7,0.6,5.4,0.4,8.2,0.5c-3.3-10.4-8.1-20.2-11.6-30.5C277,251.4,268.9,251.4,260.7,251.6z"/>
<path class="st0" d="M26.6,229.9c3.8,0,7.6,0,11.4,0c-1.2,13.2-2.9,26.4-4.2,39.6c-3.8,0-7.5,0-11.3,0
	C23.7,256.2,25.2,243.1,26.6,229.9z"/>
<path class="st1" d="M56.4,230.4c3.1,0,6.1,0,9.2,0c1.1,12,2.5,24.1,2.7,36.2c2.6-12.1,5.1-24.2,8.1-36.2c3.1,0,6.2,0,9.3,0
	c-4,15.9-7.6,31.9-11.6,47.7c-4.2-0.1-8.4,0.2-12.6-0.1C59.5,262.1,58.2,246.2,56.4,230.4 M60.9,251.6c1.3,7.8,1.2,15.8,3,23.5
	c2.8,0.5,5.6,0.3,8.3,0.2c1.8-8,4.1-15.8,5.7-23.8c-1.3,0-2.6,0.1-3.8,0.1c-1.5,5.8-2.1,11.8-3.8,17.5c-0.9,2.7-4.3,0.4-4.3-1.7
	c-0.5-5.3-0.2-10.6-1.1-15.9C63.6,251.6,62.2,251.6,60.9,251.6z"/>
<path class="st1" d="M89,230.4c7.9,0,15.9,0,23.8,0c-0.2,2.8-0.3,5.7-0.3,8.5c-4.9,0-9.9,0-14.8,0c-0.1,3.4-0.3,6.8-0.5,10.2
	c4.2,0,8.4,0,12.5,0c0,3-0.2,6-0.3,8.9c-4.2,0.1-8.4,0-12.6,0c0,3.6-0.1,7.2-0.3,10.8c5,0,10,0,15,0c0.1,3,0,6.1-0.3,9.1
	c-8.3,0-16.6,0.1-24.9,0C87,262.2,88.2,246.3,89,230.4 M90,251.6c0.2,7.9-1,15.8-1.1,23.7c6.6,0.2,13.2,0.2,19.8,0
	c0-1.3,0-2.6,0-3.9c-4.2-0.1-8.4,0.3-12.6-0.4c-3.2-1.5-2-5.7-2-8.5c0.5-2.3,0-5.3,2.1-6.8c3.5-0.8,7.1-0.4,10.6-0.4
	c0-1.2,0-2.5,0-3.7C101.2,251.4,95.6,251.4,90,251.6z"/>
<path class="st1" d="M117.3,230.4c6.5,0.1,13-0.1,19.6,0.1c3.2,0,6.6,2.6,6.4,6c0.1,4.3,0,8.7,0,13c0.1,2.6-1.5,4.7-2.9,6.6
	c1.4,1.9,2.8,3.9,2.8,6.4c0.1,5.2,0,10.5,0,15.7c-3.3,0-6.6,0-9.9,0c0.1-4.9,0.8-9.9,0.4-14.8c-0.2-1.2-1.2-2-1.8-2.9
	c-2,0-4.1,0-6.1,0c-0.1,5.8-0.1,11.7-0.4,17.6c-3.2,0.4-6.4,0.1-9.6,0.2C115.6,262.2,116.8,246.3,117.3,230.4 M126.1,238.9
	c0,4.2-0.3,8.4-0.3,12.6c2.8-0.1,6.1,0.6,8.3-1.8c-0.1-3.6,0.1-7.2,0.3-10.8C131.6,238.9,128.8,238.9,126.1,238.9 M118.9,251.1
	c0.1,8.1-0.7,16.1-0.9,24.2c1.6,0,3.1,0.1,4.7,0.1c0.5-5.4-1.1-11.5,1.6-16.4c3.4-1.9,9.7-1.6,11.2,2.6c0.9,4.5,0.3,9.2,0.4,13.8
	c1.6,0,3.1,0,4.7,0c0-6.5,1.7-13.9-3-19.2c0.8-1.6,1.6-3.3,2.4-4.9c-4,0-7.4,2.4-11.2,2.9C125.4,253.5,122.4,251.4,118.9,251.1z"/>
<path class="st1" d="M147.5,230.4c3.1,0,6.1,0,9.2,0c1.7,11.9,3.8,23.9,4.6,36c2.1-11.9,3.6-23.9,5.2-36c3.8,0,7.6,0,11.4,0
	c2,11.9,3.9,23.7,6.2,35.5c0.8-11.9,2.2-23.7,3.6-35.5c3.1,0,6.1,0,9.2,0c-2,15.9-3.9,31.8-6,47.7c-4.3,0-8.6,0-12.9,0
	c-1.6-10.8-4.3-21.4-5.1-32.3c-0.1-0.2-0.4-0.7-0.5-0.9c-0.3,1.5-0.5,3-0.6,4.6c-1.6,9.6-2.7,19.2-4.3,28.7c-4.2,0-8.4,0-12.7,0
	C152.4,262.2,150.2,246.3,147.5,230.4 M153.6,251.5c0.9,8,2.3,15.9,3.5,23.8c2.8,0,5.7,0,8.5,0c1.2-8,2.6-15.9,3.2-23.9
	c-0.7,0-2.1,0.1-2.8,0.1c-1.1,6-0.9,12.4-3,18.2c-1.3,2.3-3.4-0.4-3.7-2c-1.1-5.3-1.1-10.8-2-16.1
	C156.1,251.6,154.9,251.6,153.6,251.5 M176.1,251.6c1.6,7.9,2.9,15.8,4.2,23.7c2.8,0,5.6,0,8.4,0.1c1.3-7.9,2.3-15.9,3.1-23.9
	c-1.3,0-2.5,0-3.7,0c-1,5.5-0.8,11.1-1.7,16.6c-0.3,1.9-2.5,3.2-3.9,1.5c-1.9-5.8-2.1-12.1-3.2-18.1
	C178.2,251.6,177.1,251.6,176.1,251.6z"/>
<path class="st1" d="M206.9,230.4c4,0,8,0,12,0c3.8,15.9,8,31.8,11.8,47.7c-3.3,0.1-6.6,0.1-9.9,0.1c-0.8-3.3-1.6-6.6-2.2-10
	c-2.5,0-5,0-7.5,0c-0.2,3.4-0.7,6.7-1.4,10c-3.3,0-6.5,0-9.8-0.1C202.1,262.1,204.7,246.3,206.9,230.4 M212.5,259c0.9,0,2.7,0,3.6,0
	c-1-6.2-1.7-12.4-2.8-18.5C213,246.6,212.7,252.8,212.5,259 M206.2,251.6c-0.8,8-2.4,15.8-3.3,23.8c1.5,0,3,0,4.5,0
	c0.7-3.1,0.4-7.1,3-9.3c2.7-1.2,6-1,8.7,0.1c2.6,2.2,2.2,6.1,3.8,9c1.5,0.3,3.1,0.4,4.6,0.5c-2.1-8-3.9-16-6-24
	c-1.3,0-2.5-0.1-3.7-0.1c0.2,2.5,0.9,5.1,0.6,7.7c-1.2,3.3-6.9,3.1-8.3,0c-0.5-2.5,0.1-5.1,0.3-7.6
	C209,251.6,207.6,251.6,206.2,251.6z"/>
<path class="st1" d="M230.8,230.4c3.1,0,6.1,0,9.2,0c0.7,12.9,2.1,25.7,2.9,38.6c4.2,0,8.5-0.1,12.7,0c0.1,3,0.3,6.1,0.7,9.1
	c-7.4,0-14.9,0-22.3,0C232.5,262.2,232,246.3,230.8,230.4 M234.8,251.5c-0.2,7.9,1.2,15.8,1.3,23.8c5.8,0.2,11.7,0.2,17.5,0
	c0-1.3,0-2.5-0.1-3.8c-4-0.1-8.3,0.5-12.2-0.7c-2.3-6.1-1.2-12.9-2.4-19.2C237.5,251.5,236.1,251.5,234.8,251.5z"/>
<path class="st0" d="M126.1,238.9c2.8,0,5.5,0,8.3,0c-0.2,3.6-0.4,7.2-0.3,10.8c-2.1,2.4-5.4,1.6-8.3,1.8
	C125.8,247.3,126.1,243.1,126.1,238.9z"/>
<path class="st0" d="M212.5,259c0.2-6.2,0.5-12.4,0.8-18.6c1.1,6.1,1.8,12.4,2.8,18.5C215.2,258.9,213.4,258.9,212.5,259z"/>
<path class="st2" d="M13.7,250.5c2.7,0,5.4,0,8.1,0c-0.2,6.6-1.9,13-1.7,19.6c0.2,0.3,0.7,0.8,0.9,1.1c4.1,1.1,8.5,0.8,12.6,0.3
	c2-0.1,2.8-2.3,2.9-4c0.7-5.6,1-11.2,1.6-16.9c2.7,0,5.4,0,8.2-0.1c-0.6,7-1.2,14-1.8,20.9c-0.2,3-0.9,6.5-3.8,8
	c-4.6,2.3-10,1.5-15,1.7c-4.3-0.2-9.1,0.5-12.9-1.9c-2.8-2-1.9-5.8-1.7-8.7C12.1,263.8,12.9,257.1,13.7,250.5z"/>
<path class="st2" d="M60.9,251.6c1.3,0,2.7-0.1,4-0.1c0.9,5.3,0.6,10.6,1.1,15.9c0,2.1,3.3,4.4,4.3,1.7c1.7-5.7,2.2-11.7,3.8-17.5
	c1.3,0,2.6-0.1,3.8-0.1c-1.5,8-3.8,15.9-5.7,23.8c-2.8,0.1-5.6,0.3-8.3-0.2C62,267.4,62.2,259.4,60.9,251.6z"/>
<path class="st2" d="M90,251.6c5.6-0.2,11.2-0.2,16.8,0c0,1.2,0,2.5,0,3.7c-3.5,0-7.2-0.3-10.6,0.4c-2,1.5-1.6,4.6-2.1,6.8
	c0,2.8-1.2,7,2,8.5c4.2,0.7,8.4,0.3,12.6,0.4c0,1.3,0,2.6,0,3.9c-6.6,0.2-13.2,0.2-19.8,0C89,267.4,90.1,259.6,90,251.6z"/>
<path class="st2" d="M118.9,251.1c3.5,0.3,6.5,2.4,9.9,3.1c3.8-0.5,7.2-2.9,11.2-2.9c-0.8,1.6-1.6,3.3-2.4,4.9
	c4.7,5.3,3,12.7,3,19.2c-1.6,0-3.1,0-4.7,0c0-4.6,0.5-9.3-0.4-13.8c-1.6-4.2-7.9-4.5-11.2-2.6c-2.7,4.9-1.1,11-1.6,16.4
	c-1.6-0.1-3.1-0.1-4.7-0.1C118.1,267.2,119,259.2,118.9,251.1z"/>
<path class="st2" d="M153.6,251.5c1.2,0,2.5,0.1,3.7,0.1c0.9,5.3,0.9,10.8,2,16.1c0.4,1.6,2.4,4.3,3.7,2c2.2-5.8,1.9-12.1,3-18.2
	c0.7,0,2.1-0.1,2.8-0.1c-0.6,8-2,16-3.2,23.9c-2.8-0.1-5.7-0.1-8.5,0C155.9,267.4,154.5,259.5,153.6,251.5z"/>
<path class="st2" d="M176.1,251.6c1.1,0,2.2,0,3.2,0c1.1,6,1.2,12.2,3.2,18.1c1.4,1.7,3.7,0.4,3.9-1.5c0.8-5.5,0.7-11.1,1.7-16.6
	c1.2,0,2.5,0,3.7,0c-0.8,8-1.8,16-3.1,23.9c-2.8-0.1-5.6-0.1-8.4-0.1C178.9,267.4,177.6,259.5,176.1,251.6z"/>
<path class="st2" d="M206.2,251.6c1.4,0,2.8,0,4.2,0c-0.2,2.5-0.8,5.1-0.3,7.6c1.4,3.1,7.1,3.3,8.3,0c0.4-2.6-0.3-5.1-0.6-7.7
	c1.2,0,2.5,0.1,3.7,0.1c2.1,8,3.9,16,6,24c-1.5-0.1-3.1-0.3-4.6-0.5c-1.6-2.9-1.1-6.8-3.8-9c-2.7-1.1-6-1.2-8.7-0.1
	c-2.6,2.3-2.3,6.2-3,9.3c-1.5,0-3,0-4.5,0C203.8,267.4,205.3,259.5,206.2,251.6z"/>
<path class="st2" d="M234.8,251.5c1.4,0,2.8,0,4.1,0c1.2,6.4,0.1,13.1,2.4,19.2c3.9,1.2,8.1,0.6,12.2,0.7c0,1.3,0,2.5,0.1,3.8
	c-5.8,0.2-11.7,0.2-17.5,0C235.9,267.3,234.6,259.5,234.8,251.5z"/>
<path class="st2" d="M260.7,251.6c8.1-0.1,16.3-0.2,24.5,0c3.5,10.3,8.3,20.1,11.6,30.5c-2.7,0-5.5,0.1-8.2-0.5
	c-4.1-8.3-6.6-17.4-10.4-25.8c-1-2.9-4.8-2.9-7.3-2.2c-2,1.1-1.7,3.7-1.6,5.7c0.6,7.6,1.7,15.1,2.1,22.6c-2.7,0-5.3,0.2-8-0.1
	C261.9,271.8,261.1,261.7,260.7,251.6z"/>
</svg>
