<?xml version="1.0" encoding="utf-8"?>
<!-- Generator: Adobe Illustrator 21.0.0, SVG Export Plug-In . SVG Version: 6.00 Build 0)  -->
<svg version="1.1" id="Layer_1" xmlns="http://www.w3.org/2000/svg" xmlns:xlink="http://www.w3.org/1999/xlink" x="0px" y="0px"
	 viewBox="0 0 226.759 226.761" style="enable-background:new 0 0 226.759 226.761;" xml:space="preserve">
<style type="text/css">
	.st0{fill:#EB148B;}
	.st1{fill:#031014;}
	.st2{fill:#AF0F67;}
	.st3{fill:#E9FAEB;}
</style>
<g>
	<g>
		<g>
			<path class="st0" d="M101.7,115.66h-5.79v-5.755h5.79v-5.893h5.961v5.893h5.791l-0.001,5.755h-5.79v5.894H101.7V115.66z"/>
		</g>
		<g>
			<polygon class="st1" points="144.263,122.177 112.888,153.552 36.604,77.268 0,113.872 112.888,226.761 112.889,226.761 
				180.866,158.78 			"/>
			<polygon class="st0" points="36.48,138.15 36.604,89.47 106.787,159.652 112.888,165.754 144.263,134.378 168.665,158.78 
				112.889,214.56 			"/>
			<polygon class="st2" points="36.499,129.447 36.604,89.47 106.787,159.652 112.888,165.754 144.263,134.378 156.874,146.99 
				143.802,160.064 155.593,171.855 117.245,210.202 			"/>
			<g>
				<path class="st3" d="M36.543,113.471v5.126h-5.097l0.001-5.126H26.23v-5.277l5.216-0.001l0.001-5.126h5.096v5.127l5.217-0.001
					v5.278H36.543z"/>
			</g>
			<polygon class="st3" points="124.786,199.702 124.786,194.575 119.692,194.575 119.69,199.701 109.318,199.701 109.318,194.575 
				104.223,194.575 104.223,199.701 99.005,199.701 99.005,204.98 104.223,204.98 104.223,210.105 109.318,210.105 109.318,204.98 
				119.692,204.98 119.69,210.105 124.786,210.105 124.786,204.98 130.005,204.98 130.005,199.702 			"/>
			
				<rect x="25.134" y="123.818" transform="matrix(0.707 -0.7072 0.7072 0.707 -81.4982 57.1883)" class="st0" width="6.279" height="6.279"/>
			
				<rect x="20.559" y="116.129" transform="matrix(0.7071 -0.7071 0.7071 0.7071 -76.8601 50.3998)" class="st0" width="3.698" height="3.698"/>
			
				<rect x="149.51" y="157.141" transform="matrix(0.7072 -0.707 0.707 0.7072 -68.6253 154.8626)" class="st2" width="6.28" height="6.28"/>
			
				<rect x="158.971" y="156.591" transform="matrix(0.7074 -0.7068 0.7068 0.7074 -64.9314 160.0406)" class="st2" width="3.697" height="3.697"/>
		</g>
		<g>
			<polygon class="st1" points="82.496,104.585 113.871,73.21 190.155,149.494 226.759,112.889 113.871,0.001 113.871,0 
				45.892,67.98 			"/>
			<polygon class="st0" points="190.28,88.611 190.155,137.292 119.972,67.109 113.871,61.009 82.496,92.383 58.094,67.98 
				113.871,12.202 			"/>
			<polygon class="st2" points="190.261,97.314 190.155,137.292 119.972,67.109 113.871,61.009 82.496,92.383 69.883,79.771 
				82.956,66.698 71.166,54.907 109.514,16.56 			"/>
			<g>
				<path class="st3" d="M190.216,113.291v-5.127l5.096,0.001v5.126h5.217v5.277h-5.217v5.126h-5.096v-5.126h-5.217v-5.277H190.216z
					"/>
			</g>
			<polygon class="st3" points="122.536,21.782 122.536,16.656 117.44,16.656 117.44,21.782 107.067,21.782 107.067,16.656 
				101.973,16.656 101.973,21.782 96.754,21.782 96.754,27.06 101.973,27.061 101.973,32.186 107.067,32.186 107.067,27.061 
				117.44,27.06 117.44,32.186 122.536,32.186 122.536,27.061 127.755,27.06 127.755,21.782 			"/>
			
				<rect x="195.346" y="96.665" transform="matrix(0.707 -0.7072 0.7072 0.707 -12.4297 169.6062)" class="st0" width="6.279" height="6.279"/>
			
				<rect x="202.501" y="106.935" transform="matrix(0.7073 -0.707 0.707 0.7073 -17.083 176.3127)" class="st0" width="3.697" height="3.697"/>
			
				<rect x="70.969" y="63.34" transform="matrix(0.7071 -0.7071 0.7071 0.7071 -25.302 71.8746)" class="st2" width="6.28" height="6.28"/>
			
				<rect x="64.09" y="66.473" transform="matrix(0.707 -0.7072 0.7072 0.707 -28.998 66.6544)" class="st2" width="3.698" height="3.698"/>
		</g>
		<rect x="119.183" y="106.22" class="st0" width="5.775" height="5.777"/>
		<rect x="125.011" y="113.7" class="st0" width="5.777" height="5.777"/>
	</g>
</g>
</svg>
