<?xml version="1.0" encoding="utf-8"?>
<!-- Generator: Adobe Illustrator 21.0.0, SVG Export Plug-In . SVG Version: 6.00 Build 0)  -->
<svg version="1.1" id="Layer_1" xmlns="http://www.w3.org/2000/svg" xmlns:xlink="http://www.w3.org/1999/xlink" x="0px" y="0px"
	 viewBox="0 0 780.631 1037.949" style="enable-background:new 0 0 780.631 1037.949;" xml:space="preserve">
<style type="text/css">
	.st0{fill:#090909;stroke:#090909;stroke-width:0.0938;}
	.st1{fill:#C39970;stroke:#C39970;stroke-width:0.0938;}
	.st2{fill:#F4D5B6;stroke:#F4D5B6;stroke-width:0.0938;}
	.st3{fill:#9C0000;stroke:#9C0000;stroke-width:0.0938;}
	.st4{fill:#9D1212;stroke:#9D1212;stroke-width:0.0938;}
	.st5{fill:#FF0000;stroke:#FF0000;stroke-width:0.0938;}
	.st6{fill:#FF1212;stroke:#FF1212;stroke-width:0.0938;}
	.st7{fill:#FEFCFA;stroke:#FEFCFA;stroke-width:0.0938;}
</style>
<path class="st0" d="M526.607,87.534c37.03-25.65,70.34-56.21,102.68-87.44c3.93,20.7,0.91,41.93-3.27,62.34
	c-7.64,35.18-20.09,69.11-34,102.25c-5.47,13.02-11.39,25.84-17.45,38.59c6.18,6.11,6.92,15.31,8.7,23.36
	c36.77,9.14,73.22,19.81,108.57,33.53c19.64,7.66,38.94,16.3,57.28,26.73c10.58,5.93,20.6,12.8,30.81,19.35
	c1.88,37.46-0.47,74.99-4.59,112.23c-8.31,72.85-24.64,144.86-49.31,213.93c16.28-4.62,33.22-9.04,47.13-19.09
	c-0.06,76.19,0,152.39-0.03,228.59c-44.5,0.02-89-0.02-133.5,0.02c0.01,40.49,0,80.98,0,121.48c-46.03,0.06-92.06-0.12-138.08,0.09
	c-4.94,3.13-9.15,7.48-13.9,10.97c-29.26,23.6-60.77,44.2-93.02,63.43c-14.95-9.16-30.01-18.17-44.56-27.97
	c-18.82-12.6-37.05-26.08-54.59-40.41c-2.66-1.92-4.85-4.58-7.78-6.03c-40.02-0.2-80.05-0.02-120.07-0.08c0-37.34,0.01-74.67,0-112
	c-55.86-0.1-111.73,0.18-167.58-0.14c0.23-79.45-0.05-158.9,0.14-238.35c20.6,5.92,41.3,11.54,62.06,16.88
	c-28.08-80.01-45.55-163.76-51.74-248.34c-1.81-25.03-2.46-50.17-1.14-75.24c9.79-6.24,19.37-12.83,29.47-18.58
	c41.38-23.51,86.83-38.7,132.37-51.88c2.2-7.42,3.66-15.1,6.38-22.38c0.48-1.94,2-3.95,0.93-5.94
	c-15.93-38.02-28.39-77.59-35.76-118.18c-4.41-25.06-7.51-50.56-6.32-76.05c41.43,33.38,81.9,67.93,122.92,101.8
	c47.96-25.72,104.14-36.78,158.1-28.33c24.41,3.86,48.56,10.92,70.32,22.81C501.587,103.854,514.287,95.874,526.607,87.534
	 M606.147,37.274c-1.48,2.02-2.97,4.03-4.49,6.01l-0.04,0.35c-25.9,33.72-56.21,64.7-92.42,87.34c-9.18,6.11-19.69,9.86-28.72,16.21
	c-10.6,7.19-20.71,16.7-24.14,29.46c-2.34,11.33,2.72,22.9,10.62,30.89c-0.11-11.16-0.41-22.6,3.02-33.35
	c2.8,1.34,4.83,3.75,7.07,5.82c4.54,4.56,8.98,9.37,12.1,15.05c1.22,2.13,1.48,4.7,2.96,6.7c1.48-11.69,1.05-23.53,1.19-35.28
	c8.22,5.6,16.75,10.97,26.32,13.97c-2.15-7.56-5.6-14.87-10.99-20.67c5.82,3.94,12.01,7.31,18.39,10.24
	c5.58,2.44,11.54,4.72,17.75,4.06c-7.06-7.95-15.07-15.01-22.32-22.8c13.52,3.76,26.97,9,41.16,9.28
	c-2.01-9.09-7.66-17.3-15.89-21.8c8.83,3.24,18.47,3.68,27.72,2.3c-6.95-7.05-11.4-16.02-16.11-24.6c7.17,4,15.55,7.47,23.87,5.23
	c-2.77-6.36-5.62-13.45-11.8-17.25c7.15-0.19,14.22,1.05,21.32,1.69l0.62-0.47c4.48-9.19,8.04-18.84,10.74-28.7
	C607.387,64.114,609.687,50.314,606.147,37.274 M155.017,41.604c0.44,10.3,1.19,20.63,3.1,30.78c3.62,19.42,10.41,39.58,25.33,53.29
	c2.73,1.97,5.56,5.64,9.33,4.23c6.9-1.64,13.59-4.19,19.96-7.3c0.21,0.12,0.63,0.36,0.85,0.48c-1.76,0.46-2.52,2.45-3.61,3.75
	c-5.79,9.18-9.65,19.42-13.31,29.59c12.16-3.34,22.52-11.01,32.75-18.08c-3.39,8.23-2.37,17.29-2.18,25.95
	c1.59-2.73,3.54-5.3,6.22-7.05c7.01-4.84,15.24-7.5,23.39-9.74c-4.48,8.1-9.39,15.96-14.03,23.97c9.67-5.8,19.23-11.79,28.84-17.69
	c2.02,1.57,1.03,4.16,0.39,6.18c-2.37,6.4-6.05,12.2-9.4,18.12c6.99-4.78,13.88-9.72,21.02-14.26c3.15,4.78-0.06,10.2-2.14,14.69
	c4.1-3.51,7.87-7.39,12.24-10.58c2.97,1.91,3.16,5.31,3.13,8.52c-0.64,3.52-1.45,7-2.49,10.43c2.08-1.27,4.01-2.76,5.85-4.35
	c1.71-2.41,3.42-5.07,3.27-8.15c-0.17-5.88-4.02-10.8-7.84-14.93c-8.57-8.79-19.06-15.38-29.64-21.47
	c-5.3-2.87-10.48-6.14-16.36-7.71c-11.99-4.15-22.33-11.87-32.04-19.85C193.947,90.264,173.727,66.354,155.017,41.604
	 M375.847,99.574c1.02,4.87,2.42,9.68,2.86,14.66l0.38-0.22c0.58,3.9,1.63,7.71,2.39,11.58c-11.67-9.46-27.5-10.76-41.92-9.59
	c-18.12,1.48-35.78,6.37-52.89,12.35c-3.3,1.03-6.03,3.2-8.78,5.21c10.23,7.01,19.63,15.38,27.04,25.38
	c8.48,2.45,16.94,5.69,23.88,11.3c6.83,5.35,11.55,13.42,12.34,22.12c1.12,12-3.19,23.88-9.34,34.01c0.78-2.23,1.77-4.41,2.19-6.74
	c3.04-7.09,3.42-15.3,1.26-22.7c-3.23-10.81-12.18-19-22.07-23.85c1.4,4.61,2.76,9.24,3.37,14.03c0.33,6.86-0.42,13.82-2.98,20.24
	c-5.29,13.52-15.62,24.47-26.97,33.19c-9.73,4.62-20.01,8.24-30.55,10.49c-3.68,0.5-7.64,1.49-11.26,0.37
	c-4.82-5.17-8.79-11.1-13.81-16.09c-2.17,7.1-4.2,14.84-1.78,22.14c1.93,6.08,7.43,10.27,13.32,12.17
	c11.03,3.7,22.84,2.41,34.16,1.14c-10.84,3.91-22.29,6.38-33.85,6.34c-3.94-1.35-8.23-1.82-11.77-4.14
	c-5.41-3.21-8.79-9.02-10.09-15.06c-2.34-10.7-0.19-21.71,2.51-32.13c-2.15-2.53-4.27-5.07-6.45-7.55
	c-2.88-3.66-5.8-7.28-8.87-10.77c-0.24,0.05-0.72,0.17-0.96,0.23c-7.27,15.74-13.22,32.36-15.15,49.67
	c-0.36,6.32-1.13,13.1,1.78,18.97c9.05,20.88,21.15,40.58,36.63,57.32c9.28,9.87,19.77,18.85,31.79,25.2
	c12.59,1.8,25.15,5.14,36.14,11.76c15.72,9.05,27.55,23.98,34.1,40.79c-11.49-11.63-23.98-22.51-38.42-30.36
	c-9.36-5.03-19.7-8.95-30.47-8.84c-3.7,0.31-6.31-2.82-9.34-4.4c-13.29-8.86-27.11-17.47-37.93-29.37
	c-2.31,7.58-3.56,15.69-2.1,23.56c0.95,4.56,2.87,9.24,6.54,12.25c20.07,4.68,40.72,12.6,54.45,28.66
	c3.34,3.41,4.61,8.55,8.89,11.03c8.26,5.85,16.73,11.42,25.47,16.52c11.44,6.46,23.18,12.93,36.02,16.06
	c-1.33-3.44-2.82-6.81-4.05-10.28c8.95,6.91,17.35,14.64,27.17,20.35c1.51-7.28,2.8-14.78,1.9-22.22c-0.2-2.33-1.41-4.36-2.47-6.37
	c8.12,0.98,13.8,8.28,14.7,16.09c0.03,0.37,0.09,1.11,0.12,1.48c0.57,5.49-0.02,11-0.96,16.42c-12.85,5.19-25.66,10.86-36.95,18.99
	c-5.71,4.17-11.29,9.18-13.67,16.05c-15.29-11.74-35.84-17.26-54.69-11.95c-0.98-1.12-1.71-2.55-2.99-3.34
	c-2.49-4.81-6.18-8.85-9.19-13.32c-12.36-16.77-24.24-33.91-36.9-50.44c1.14,8.15,2.82,16.22,4.11,24.36
	c-2.46,1.56-4.87,3.2-7.22,4.92c-5.65,4.63-11.81,10.4-12.17,18.19c2.02,18.33,14.02,33.99,28.29,44.94
	c15.34,11.8,33.64,19.05,52.21,24.03c-7.16,6.95-12.83,15.46-15.95,24.97c-5.31,15.49-4.27,32.51,0.33,48.04
	c6.03,20.3,17.22,38.65,29.96,55.41c2.27,3.15,3.91,6.7,6.21,9.85c7.72,11,18.37,20.4,31.27,24.71c11.2,3.82,23.55,3.3,34.73-0.3
	c3.11-1.26,6.34,0.13,9.46,0.56c13.7,2.53,27.91,3.54,41.78,1.67c9.88-1.47,20.56-5.1,26.23-13.91c2.29-3.14,2.65-7.13,4.21-10.57
	c14.58-19.55,27.07-41.03,34.19-64.47c4.97-16.76,6.85-35.36,0.25-51.95c-3.19-8.39-8.8-15.53-15.08-21.83
	c19.13-8.22,37.69-18.22,53.82-31.49c9.96-8.47,19.53-18.68,22.86-31.67c0.74-3.88,1.97-8.39-0.63-11.83
	c-5-7.75-9.61-16.59-18-21.12c1.09-7.75,3.01-15.37,3.98-23.14c-6.07,6.27-11.79,12.87-17.47,19.5c-1.04,1.16-1.86,2.49-2.52,3.9
	c-0.76,0.38-1.4,0.92-1.92,1.6c-10.37,12.66-19.88,26.1-27.46,40.64c-8.73-1.5-17.76-1.32-26.43,0.46
	c-8.92,1.9-17.81,6.09-23.45,13.48c-2.97-4.04-5.52-8.43-9.16-11.93c-8.47-8.91-20.56-14.24-32.89-14.16
	c-5.01-5.23-8.99-11.3-12.33-17.7c-0.81-3.85-2.34-7.67-1.58-11.68c0.4-4.04,3.37-7,5.49-10.23c1.36-0.56,2.68-1.22,4.02-1.85
	c-1.95,8.92-2.98,20.27,4.85,26.75c1.34,0.55,2.67,1.1,4.02,1.67c4.48-5.98,8.95-11.96,13.43-17.93c1.78-2.41,3.82-4.67,5.04-7.44
	c0.35-0.18,1.04-0.53,1.39-0.71c-0.18,2.89-0.17,5.79-0.16,8.69c-0.01,2.47,0,4.95,0.04,7.43c14.12-5.08,27.81-11.4,40.87-18.8
	c10.28-6,20.45-12.58,28.71-21.23c3.34-6.4,6.67-12.98,11.91-18.1c9.2-9.99,23.21-15.19,36.7-13.59c1.54-0.03,3.22,0.69,4.71,0.08
	c3.29-6.55,5.66-13.57,7.27-20.72c1.49-7.09,2.28-15.12-1.82-21.52c-3.1,2.13-5.95,4.58-8.98,6.79l0.06,0.36
	c-13.7,9.65-26.99,20.25-42.46,26.99c-9.82,3.2-18.86,8.3-28.01,13c-13.26,7.27-26.66,14.79-37.54,25.44
	c0.71-1.19,1.53-2.31,2.1-3.57c12.39-15.2,25.06-31.21,42.77-40.5c6.48-3.63,14.06-3.69,21.01-5.88c8.23-2.4,16.2-5.93,23.18-10.95
	c6.58-4.66,11.45-11.19,16.67-17.23c8.49-10.44,17.05-21.05,22.96-33.22c2.17-4.01,1.99-8.76,3.96-12.83
	c4.17-9.37,3.91-20.01,2.17-29.92c-3.01-16.35-9.41-31.9-16.93-46.65c-2.37,2.62-4.54,5.41-6.71,8.2
	c-3.7,4.61-7.33,9.29-11.13,13.81c2.59,10.91,4.6,22.67,0.93,33.58c-2.25,7.1-8.4,12.63-15.64,14.31
	c-12.07,2.94-24.42-0.49-36.06-3.74c6.17-0.81,12.35,0.69,18.54,0.03c8.58-0.55,18.34-2.58,23.7-9.97
	c5.07-7.23,3.67-16.73,1.07-24.61c-3.25,3.62-6.09,7.59-9.25,11.28l0.11,0.62c-8.98,0.24-17.92-1.24-26.61-3.39
	c-15.23-3.9-30.48-11.6-39.26-25.13c-7.63-11.43-9.07-25.81-7.38-39.17c0.6-3.2,1.15-6.41,1.68-9.62
	c-11.03,4.99-21.27,13.83-24.48,25.91c-1.84,7.65-1.42,16.19,2.19,23.27l-0.07,0.19c0.37,1.39,0.76,2.79,1.11,4.19
	c-5.6-9.68-9.61-20.79-8.89-32.11c0.56-8.94,5.18-17.38,12.16-22.93c3.97-3.58,9.04-5.47,13.48-8.26c4.11-1.14,8.35-2.18,12.21-3.99
	c9.24-8.33,17.61-17.59,25.94-26.82c-26.43-17.58-57.38-28.2-88.92-31.39C387.587,99.524,381.697,99.464,375.847,99.574
	 M275.447,186.474c2.52-1.5,3.66-4.38,5.14-6.78C278.557,181.694,276.637,183.864,275.447,186.474 M613.687,248.844
	c47.05,23.2,94.29,46.02,141.42,69.06c2.17,11.02,2.64,22.29,2.75,33.5c0.01,18-1.29,35.98-3.03,53.89
	c-6.32,61.23-17.59,121.82-30.05,182.06c-2.79,14.1-6.35,28.06-8.96,42.18c21.71-59.91,36.8-122.18,45.42-185.3
	c5.68-42.34,8.84-85.11,7.63-127.83c-0.32-1.73,0.45-4.03-1.1-5.27c-13.43-11.53-28.84-20.52-44.75-28.16
	C688.367,266.634,651.247,256.034,613.687,248.844 M142.737,254.304c-40.49,16.95-79.77,36.62-119.09,56.11
	c-2.85,12.11-4.25,24.53-4.9,36.95c-1.38,31.86,2.2,63.72,7.75,95.06c11.14,61.59,29.84,121.57,51.85,180.07
	c-0.8-6.16-2.98-12.04-4.33-18.09c-15.23-60.36-27.95-121.66-32.1-183.89c-1.46-25.69-1.73-51.66,2.71-77.08
	c1.35-6.6,2.58-13.38,5.57-19.46c35.4-25.08,71.24-49.6,106.66-74.66C151.987,250.464,147.387,252.504,142.737,254.304
	 M604.117,285.444c2.51,14.26,1.33,29.06-2.49,42.98c-2.87,9.59-6.54,19.2-12.83,27.11c-9.31,13.75-12.12,31.04-10.15,47.33
	c-3.22-1.07-6.44-2.15-9.64-3.25c-1.62,13.2-2.17,26.54-1.74,39.83c0.51,9.25,1.22,18.74,4.83,27.38c1.16,2.92,3.17,5.39,5.5,7.49
	c-2.49,4.52-4.73,9.18-6.53,14.03c1.48,6.11,3.45,12.1,5.97,17.86c1.83,2.96,3.61,6.66,7.37,7.41c4.56-11.24,9.97-22.77,9.72-35.16
	c-2.18-1.01-4.32-2.09-6.44-3.19c8.69-11.65,15.11-25.02,18.49-39.16c3.73-15.59,3.26-32.32-2.21-47.45
	c-3.51,1.38-6.97,2.86-10.53,4.09c7.49-21.73,16.19-43.09,22.38-65.26c0.59-2.62,1.58-5.29,1.2-7.99c-1.1-3.78-2.71-7.38-4.03-11.09
	C609.967,300.774,607.437,292.944,604.117,285.444 M150.597,330.974c0.22,9.37,3.25,18.87,9.32,26.11
	c3.21,3.73,5.25,8.26,7.57,12.56c4.34,8.73,8.41,17.85,9.53,27.63c-3.57-3.75-6.59-7.98-10-11.87c-3.34,11.04-5.78,22.42-6.41,33.96
	c-0.57,11.22,0.36,23.04,5.92,33.04c5.28,8.15,9.92,16.69,14.83,25.08c-1.8,1.43-3.61,2.86-5.45,4.24
	c-1.33,9.85-0.32,21.26,7.22,28.54l-0.09,0.13c1.95,1.23,3.96,2.43,6.2,3.11c4.25-7.16,9.41-14.04,11.58-22.19
	c0.45-5.89-5.17-10.91-3.67-16.91c2.54-15.55,4.54-31.24,4.73-47.01c-0.03-7.44-0.12-15.22-3.52-22.02
	c-2.11,0.42-4.17,1.05-6.18,1.8c-1.8-16.69-4.12-33.58-10.01-49.38c-2-6.38-7.62-10.42-10.88-16.04
	c-10.21-16.06-13.18-35.71-12-54.44C153.417,300.984,149.647,316.034,150.597,330.974 M629.407,316.804
	c1.55,5.75,1.56,11.79,0.75,17.66c-2.01,14.52-7,28.44-12.65,41.89c-0.9,2.62-3.32,5.3-1.75,8.14c4.09,12.17,4.96,25.24,3.79,37.97
	c-1.57,16.3-6.2,32.28-13.22,47.06c2.75,7.08,1.02,14.8-0.14,22.03c-3.38,16.88-8.56,33.35-14.31,49.55
	c-12.31-5.36-20.87-16.11-29.55-25.88c-1.84,6.96-5.59,13.22-9.93,18.91c-8.4,10.88-18.57,20.29-29.41,28.71
	c-0.5,21.37-2.28,42.85-7.58,63.62c-4.08,16.36-10.55,32.21-19.97,46.26c48.1-6,96.1-13.02,143.8-21.63
	c12.12-28.91,22.81-58.44,31.65-88.53c20.45-69.7,32.63-141.89,35.46-214.48c-5.23-3.13-10.82-5.6-16.31-8.21
	C670.347,330.914,650.047,323.274,629.407,316.804 M82.917,348.104c0.98,24.52,2.94,49,6.04,73.35
	c9.99,78.57,29.97,156,60.85,228.98c20.66,4.44,41.43,8.37,62.3,11.68c23.23,3.58,46.65,6.56,70.19,6.71
	c-22.99-31.94-33.64-71.14-37.49-109.86c-2.79-2.8-5.85-5.4-7.95-8.82c-9.59-14.34-15.47-30.72-21.47-46.78
	c-0.4,4.14-1.63,8.21-3.98,11.68c-5.73,8.61-14.48,14.78-23.58,19.43c-8.59-9.97-16.73-20.84-20.62-33.58
	c-2.44-7.99-2.77-17.26,1.89-24.54c-9.86-7.23-17.88-17.65-20.23-29.84c-1.85-8.65,0.4-17.38,0.96-26.04
	c1.2-15.27,2.27-30.73,0.65-45.99c-10.14-14.26-15.64-31.51-16.25-48.96C116.727,332.074,99.337,339.134,82.917,348.104
	 M277.747,434.744c1.52,12.18,7.46,25.01,19.09,30.45c12.4,5.78,26.67,2.59,38.92-1.97c-1.23-1.39-2.45-2.78-3.58-4.25
	c-1.32-1.5-2.65-2.99-3.97-4.47c-8.9,4.58-20.29,7.26-29.48,1.96c-7.74-4.45-11.13-13.31-13.38-21.46
	C282.907,434.184,280.267,434.834,277.747,434.744 M291.147,437.194c1.77,6.34,5.67,12.23,11.38,15.67
	c5.23,2.52,11.34,1.94,16.51-0.46c-4.04-2.9-8.65-4.86-12.96-7.31C301.107,442.454,296.237,439.604,291.147,437.194
	 M485.687,438.024c-4.48,9.14-11.52,17.99-21.63,21.03c-7.5,2.35-15.54,0.17-22.24-3.47c-1.55,1.52-3.12,3.02-4.79,4.4l0.4,0.01
	c-1.18,1.02-2.26,2.14-3.34,3.26c12.74,4.14,27.25,5.95,39.84,0.37c9.23-4.05,15.48-12.87,18.34-22.31
	c-0.77-0.41-2.31-1.21-3.09-1.62C488.007,439.134,486.837,438.574,485.687,438.024 M462.027,446.574l0.08,0.17
	c-4.56,2.06-9.8,2.85-13.89,5.77c5.34,1.48,11,1.71,16.44,0.55l-0.08-0.21c5.79-1.2,10.44-5.91,12.2-11.47
	C471.797,442.934,467.037,445.124,462.027,446.574 M34.467,646.484c1.07,4.34,3.16,8.44,3.75,12.89
	c0.37,49.65,0.41,99.31,0.77,148.96c0.27,4.93-2.59,9.26-3.93,13.87c30.22,1.13,60.45,2.46,90.68,3.11
	c5.73-2.79,11.27-5.98,16.95-8.87c-1.1-44.53-2.17-89.06-3.42-133.58c-6-4.14-11.52-9.01-17.57-13.04
	C92.347,663.134,63.187,655.514,34.467,646.484 M701.797,657.324c-13.87,29.16-29.03,57.67-44.67,85.91
	c-14.03-22.08-28.04-44.19-42.78-65.82c-13.04,2.34-26.09,4.64-39.19,6.65c1.55,3.68,4.8,7.04,4.2,11.31
	c-1.19,40.86-2.21,81.73-3.43,122.6c-1.06,3.36-3.2,6.3-4.7,9.5c14.5-0.44,29.01-0.72,43.51-1.05c-1.28-3.36-3.56-6.41-4.13-9.97
	c0.66-28.09,1.49-56.18,2.22-84.27c12.1,17.6,23.16,35.9,34.51,53.99c5.82-0.52,11.65-0.99,17.49-1.44
	c12.66-21.81,24.52-44.09,36.2-66.44c-0.53,30.7-0.89,61.4-1.32,92.11c0.22,4.93-3.05,9.01-4.63,13.48
	c14.4-0.57,28.79-1.05,43.18-1.7c-1.37-3.94-3.83-7.59-4.32-11.76c0.25-50.36,0.42-100.73,0.79-151.09
	c0.84-4.43,2.93-8.51,4.08-12.86C726.527,650.284,714.187,653.884,701.797,657.324 M163.007,678.194c1.42,3.77,4.03,7.19,4.64,11.22
	c1.21,42.32,2.32,84.64,3.48,126.95c-0.31,3.62-2.76,6.65-4.08,9.96c14.4,0.92,28.88,0.84,43.31,1.21
	c-1.45-3.01-3.31-5.82-4.56-8.91c-0.62-17.15-0.97-34.32-1.49-51.47c2.03-0.94,4.11-2.17,6.44-1.62c3.77,0.64,8.55-0.54,11.32,2.76
	c5.55,17.09,10.69,34.32,16.25,51.41c-0.96,2.78-2.06,5.52-2.87,8.37c14.42,0.22,28.83,0.41,43.24,0.58
	c-2.04-3.81-5.34-6.96-6.51-11.2c-5.05-16.33-10.27-32.61-15.28-48.95c5.74-2.43,11.41-5.05,17.18-7.41
	c-0.31-19.85-0.75-39.7-1.23-59.55c-5.87-3.2-11.59-6.66-17.45-9.86c-2.83-0.78-5.81-0.81-8.71-1.19
	C218.657,687.394,190.757,683.204,163.007,678.194 M491.107,693.944c-7.54,9.51-16.9,17.53-27.43,23.55
	c-12.08,32.31-24.3,64.56-36.29,96.89c-1.81,5.74-6.43,9.9-9.5,14.94c14.53-0.07,29.05-0.16,43.58-0.28
	c-0.92-1.86-1.83-3.72-2.74-5.58c3.1-8.59,6.19-17.18,9.3-25.77c2.11-0.88,4.14-2.28,6.52-2.24c9.05-0.29,18.09-0.51,27.14-0.81
	c2.35-0.21,4.32,1.32,6.4,2.18c2.84,8.58,5.72,17.15,8.62,25.71c-0.97,1.98-1.96,3.94-2.95,5.92c14.52-0.25,29.04-0.46,43.56-0.75
	c-2.72-4.32-5.98-8.3-8.34-12.82c-12.21-37.62-24.67-75.18-37.83-112.48c-1.87-3.79,1.98-7.13,3.05-10.59
	C506.497,692.564,498.807,693.284,491.107,693.944 M303.367,706.374c0.54,38.02,1.34,76.03,1.8,114.05
	c-1.11,2.96-2.84,5.65-4.2,8.51c34.83,0.32,69.66,0.54,104.5,0.39c2.12-6.18,4.35-12.33,6.54-18.49c-8.12,0.71-16.2,2.25-24.38,1.99
	c-11.67,0.01-23.34-0.02-35.01-0.12c-4.35-0.11-9.06,0.68-12.8-2.09c-0.05-12.43-0.21-24.87-0.29-37.31
	c3.62-2.4,7.96-1.78,12.06-1.71c7.87-0.11,15.6,1.53,23.4,2.34c0.02-6.85-0.03-13.69-0.04-20.52c-10.56,1.22-21.22,2.72-31.83,1.45
	c-1.29-0.5-2.53-1.12-3.77-1.68c-0.23-9.45-0.12-18.91-0.38-28.35c-0.81-0.96-2.27-0.92-3.35-1.41
	C323.887,719.884,313.077,713.794,303.367,706.374 M185.527,842.524c1.04,2.91,2.83,5.72,2.63,8.93
	c-0.04,28.62-0.02,57.24-0.01,85.86c0.07,3.06-1.64,5.75-2.57,8.59c20.08-0.07,40.17,0.1,60.25-0.09c1.19-4.8,2.38-9.6,3.72-14.36
	c-12.18,2.11-24.55,1.19-36.85,1.39c-1.72,0.22-3.19-0.58-4.61-1.41c0.04-9.77,0.06-19.54-0.01-29.31c1.1-0.56,2.11-1.54,3.43-1.44
	c5.69-0.45,11.31,0.67,16.88,1.65c-0.01-5.44,0.05-10.88-0.04-16.32c-6.59,0.87-13.88,3.28-20.22,0.38
	c-0.07-9.77,0.09-19.55-0.08-29.32c1.36-0.98,2.83-1.9,4.59-1.59c12.3,0.32,24.71-0.93,36.87,1.52c-1.26-4.83-2.49-9.65-3.75-14.47
	C225.677,842.524,205.597,842.534,185.527,842.524 M278.927,842.644c0.69,2.5,2.64,5.03,1.61,7.71
	c-7.49,28.02-14.99,56.04-22.45,84.08c-1.01,4.14-3.54,7.65-5.36,11.46c8.38,0,16.75-0.01,25.13,0c-0.51-1.47-1.08-2.91-1.43-4.4
	c1.32-6.16,3.09-12.2,4.58-18.31c0.25-2.13,2.71-3.14,4.62-3.05c4.98,0,9.97-0.06,14.95,0.03c1.41-0.09,2.47,1.04,3.67,1.61
	c1.76,6.6,3.56,13.19,5.35,19.78c-0.54,1.44-1.08,2.86-1.61,4.33c8.38-0.05,16.76,0.15,25.13-0.1c-1.76-3.52-4.1-6.77-5.29-10.53
	c-7.63-28.31-15.27-56.61-22.94-84.91c-1.03-2.71,0.94-5.26,1.63-7.77C297.317,842.544,288.117,842.414,278.927,842.644
	 M329.677,842.524c-1.31,4.87-2.51,9.77-3.78,14.66c7.82-1.48,15.77-1.87,23.7-1.39c0.8,0.37,1.58,0.79,2.34,1.27
	c-0.09,26.77-0.03,53.55-0.03,80.32c0.18,3.04-1.52,5.72-2.53,8.48c8.39,0.07,16.78,0,25.17,0.04c-0.96-2.79-2.75-5.42-2.56-8.47
	c0.02-26.82,0.02-53.63,0-80.45c0.65-0.31,1.95-0.93,2.6-1.24c7.76-0.43,15.52,0.04,23.16,1.44c-1.12-4.92-2.43-9.78-3.69-14.66
	C372.597,842.534,351.137,842.534,329.677,842.524 M406.497,842.534c1.01,2.89,2.85,5.66,2.63,8.85
	c-0.04,28.67-0.03,57.35-0.01,86.02c0.07,3.04-1.69,5.7-2.56,8.54c20.09-0.04,40.18,0.03,60.27-0.04c1.19-4.87,2.48-9.7,3.7-14.55
	c-12.18,2.31-24.59,1.23-36.9,1.48c-1.76,0.28-3.18-0.65-4.54-1.57c0.14-9.74,0.03-19.49,0.06-29.23c1.34-0.79,2.76-1.58,4.39-1.35
	c5.36-0.35,10.6,0.82,15.86,1.65c-0.02-5.46,0.03-10.92-0.04-16.37c-3.89,0.62-7.74,1.55-11.68,1.68c-2.93-0.02-6.13,0.53-8.58-1.44
	c0.1-9.76,0.06-19.51,0.02-29.26c2.43-1.99,5.61-1.34,8.5-1.41c10.98,0.2,22.06-0.75,32.9,1.51c-1.21-4.85-2.49-9.68-3.73-14.52
	C446.687,842.524,426.587,842.524,406.497,842.534 M479.497,842.524c0.98,2.89,2.74,5.65,2.62,8.81c-0.02,28.69-0.02,57.38,0,86.08
	c0.1,3.04-1.66,5.7-2.55,8.53c8.37-0.03,16.76-0.02,25.14-0.01c-0.92-2.8-2.67-5.44-2.57-8.46c0-11.75,0.05-23.49-0.02-35.24
	c2.85-2.09,6.84-1.81,10.01-0.64c2.74,11.86,5.39,23.74,8.13,35.61c1.1,2.97-0.59,5.87-1.3,8.72c8.43,0,16.86,0.04,25.29-0.03
	c-1.34-2.79-3.08-5.44-3.71-8.51c-2.76-12.12-5.31-24.3-8.19-36.4c3.22-2.41,6.72-4.41,10.04-6.68
	c-0.09-15.14,0.06-30.27-0.07-45.41c-3.37-1.98-6.5-4.36-9.93-6.22C514.767,842.334,497.127,842.624,479.497,842.524
	 M567.887,842.664c-3.55,1.91-6.87,4.22-10.26,6.4c0.1,15.1,0.04,30.21,0.03,45.31c3.39,2.06,6.65,4.33,10.11,6.29
	c8.89,0.44,17.83,0.02,26.74,0.18c1.25-0.04,2.25,0.86,3.35,1.36c-0.05,9.8-0.03,19.6,0,29.4c-2.95,2.26-6.83,1.09-10.24,1.37
	c-3.21-0.2-6.75,0.73-9.57-1.26c-0.59-4.12,0.85-7.95,2.54-11.62c-8.44-0.01-16.88,0.01-25.31,0c3.32,5.99,2.28,12.88,2.4,19.44
	c3.38,2.04,6.61,4.34,10.07,6.25c13.28,0.31,26.59,0.13,39.88,0.09c3.81-1.4,6.96-4.32,10.52-6.31c0-15.11,0-30.22,0-45.33
	c-3.36-2.05-6.52-4.4-9.96-6.29c-8.84-0.32-17.7-0.01-26.54-0.12c-1.45,0.21-2.49-0.92-3.66-1.49c0.12-9.78,0.04-19.56,0.04-29.34
	c2.8-2.09,6.41-1.08,9.65-1.28c3.41,0.27,7.31-0.95,10.23,1.4c0.37,4.01-0.88,7.81-2.47,11.43c8.46,0,16.91-0.01,25.37,0
	c-1.1-2.97-2.99-5.84-2.68-9.13c0.01-3.45,0-6.89,0.09-10.33c-3.52-2.17-6.78-5.02-10.61-6.5
	C594.367,842.534,581.107,842.384,567.887,842.664 M394.497,995.694c-2.35-0.15-4.5-1.41-6.75-2.06
	c-24.77-8.7-49.42-17.77-74.25-26.27c25.94,18.49,52.24,36.49,78.23,54.91c1.07,0.57,2.39,2.31,3.6,0.85
	c28.09-19.23,56.37-38.19,84.38-57.54C451.277,975.524,422.947,985.784,394.497,995.694z"/>
<path class="st1" d="M606.147,37.274c3.54,13.04,1.24,26.84-2.07,39.68c-2.7,9.86-6.26,19.51-10.74,28.7l-0.62,0.47
	c-7.1-0.64-14.17-1.88-21.32-1.69c6.18,3.8,9.03,10.89,11.8,17.25c-8.32,2.24-16.7-1.23-23.87-5.23c4.71,8.58,9.16,17.55,16.11,24.6
	c-9.25,1.38-18.89,0.94-27.72-2.3c8.23,4.5,13.88,12.71,15.89,21.8c-14.19-0.28-27.64-5.52-41.16-9.28
	c7.25,7.79,15.26,14.85,22.32,22.8c-6.21,0.66-12.17-1.62-17.75-4.06c-6.38-2.93-12.57-6.3-18.39-10.24
	c5.39,5.8,8.84,13.11,10.99,20.67c-9.57-3-18.1-8.37-26.32-13.97c-0.14,11.75,0.29,23.59-1.19,35.28c-1.48-2-1.74-4.57-2.96-6.7
	c-3.12-5.68-7.56-10.49-12.1-15.05c-2.24-2.07-4.27-4.48-7.07-5.82c-3.43,10.75-3.13,22.19-3.02,33.35
	c-7.9-7.99-12.96-19.56-10.62-30.89c0.95,1.02,1.9,2.05,2.86,3.08c4.04-5.71,7.8-11.62,11.98-17.22c3.99,4.34,7.76,8.89,12.07,12.93
	c1.44-8.03,2.54-16.12,4.38-24.08c5.13,4.2,9.93,8.79,15.02,13.05c-0.34-6.3-1.48-12.51-1.87-18.8c5.74,5.05,11.87,9.63,17.63,14.65
	c-0.85-7.73-2.33-15.36-3.45-23.05c10.79,3.87,20.83,9.57,31.65,13.38c-4.67-7.16-10.02-13.86-14.47-21.16
	c8.25,0.67,16.4,2.13,24.63,3c-2.19-7.37-5.18-14.46-7.32-21.84c5.76-0.08,11.51,0.05,17.27-0.09c-1.03-3.99-2.1-7.96-3.11-11.95
	c6.52-1.69,13.27-2.52,19.7-4.53c2.56-3.7,3.71-8.19,5.72-12.2c3.19-7.81,7.45-15.25,9.35-23.53c1.16-4.86,2.96-9.61,3.24-14.65
	l0.04-0.35C603.177,41.304,604.667,39.294,606.147,37.274z"/>
<path class="st1" d="M155.017,41.604c18.71,24.75,38.93,48.66,62.63,68.82c9.71,7.98,20.05,15.7,32.04,19.85
	c5.88,1.57,11.06,4.84,16.36,7.71c10.58,6.09,21.07,12.68,29.64,21.47c3.82,4.13,7.67,9.05,7.84,14.93
	c0.15,3.08-1.56,5.74-3.27,8.15c-0.66-2.5-1.39-4.98-2.31-7.39c-0.26,0.32-0.79,0.98-1.05,1.31c0.03-3.21-0.16-6.61-3.13-8.52
	c-9.7-11.63-22.84-19.64-36.19-26.44c-10.55-5.22-21.46-9.72-32.64-13.4c-3.94-1.29-7.65-3.16-11.35-5.01
	c-0.22-0.12-0.64-0.36-0.85-0.48c-21.09-13.75-37.89-32.79-54.2-51.7l-0.42,1.48C156.207,62.234,155.457,51.904,155.017,41.604z"/>
<path class="st2" d="M509.197,130.974c36.21-22.64,66.52-53.62,92.42-87.34c-0.28,5.04-2.08,9.79-3.24,14.65
	c-1.9,8.28-6.16,15.72-9.35,23.53c-2.01,4.01-3.16,8.5-5.72,12.2c-6.43,2.01-13.18,2.84-19.7,4.53c1.01,3.99,2.08,7.96,3.11,11.95
	c-5.76,0.14-11.51,0.01-17.27,0.09c2.14,7.38,5.13,14.47,7.32,21.84c-8.23-0.87-16.38-2.33-24.63-3c4.45,7.3,9.8,14,14.47,21.16
	c-10.82-3.81-20.86-9.51-31.65-13.38c1.12,7.69,2.6,15.32,3.45,23.05c-5.76-5.02-11.89-9.6-17.63-14.65
	c0.39,6.29,1.53,12.5,1.87,18.8c-5.09-4.26-9.89-8.85-15.02-13.05c-1.84,7.96-2.94,16.05-4.38,24.08
	c-4.31-4.04-8.08-8.59-12.07-12.93c-4.18,5.6-7.94,11.51-11.98,17.22c-0.96-1.03-1.91-2.06-2.86-3.08
	c3.43-12.76,13.54-22.27,24.14-29.46C489.507,140.834,500.017,137.084,509.197,130.974z"/>
<path class="st2" d="M158.537,70.904c16.31,18.91,33.11,37.95,54.2,51.7c-6.37,3.11-13.06,5.66-19.96,7.3
	c-3.77,1.41-6.6-2.26-9.33-4.23c-14.92-13.71-21.71-33.87-25.33-53.29L158.537,70.904z"/>
<path class="st3" d="M375.847,99.574c5.85-0.11,11.74-0.05,17.56,0.46c-1.56,0.16-3.12,0.34-4.67,0.53
	c-0.17,4.72-0.15,9.45-0.15,14.18c-3.09-0.26-6.59-2.42-9.5-0.73l-0.38,0.22C378.267,109.254,376.867,104.444,375.847,99.574z"/>
<path class="st4" d="M388.737,100.564c1.55-0.19,3.11-0.37,4.67-0.53c31.54,3.19,62.49,13.81,88.92,31.39
	c-8.33,9.23-16.7,18.49-25.94,26.82c-3.86,1.81-8.1,2.85-12.21,3.99c5.46-7.33,11.6-14.27,15.71-22.51
	c1.07-2.28,2.04-4.77,1.76-7.33c-0.19-1.98-2.37-2.55-3.96-2.95c-23.03-4.9-46.08-9.71-69.1-14.7
	C388.587,110.014,388.567,105.284,388.737,100.564z"/>
<path class="st5" d="M379.087,114.014c2.91-1.69,6.41,0.47,9.5,0.73c0.12,64.6-0.06,129.2,0.08,193.8
	c-5.77,1.59-11.79,2.88-16.83,6.27c-16.04-3.65-32.82-5.78-49.14-2.71c-3.86,0.8-7.79,1.6-11.3,3.48c17.91,2,35.87,4.35,53.29,9.06
	c5.19,1.39,10.25,3.33,14.84,6.15c2.92-1.06,5.83-2.13,8.76-3.18c0.12,1.6,0.25,3.21,0.38,4.82c-5.97,2.23-12.23,3.89-17.73,7.22
	c-23.8-5.1-47.89-9.52-72.28-10.3c-10.12-0.22-20.39,0-30.23,2.59c22.74,2.04,45.42,5.31,67.59,10.84
	c16.75,4.46,33.94,9.56,47.93,20.18c1.51-0.62,3.03-1.25,4.54-1.89c0.44,23.9-0.22,47.82,0.35,71.72
	c-3.25,2.95-4.92,7.12-5.98,11.28c-0.9-7.81-6.58-15.11-14.7-16.09c1.06,2.01,2.27,4.04,2.47,6.37c0.9,7.44-0.39,14.94-1.9,22.22
	c-9.82-5.71-18.22-13.44-27.17-20.35c1.23,3.47,2.72,6.84,4.05,10.28c-12.84-3.13-24.58-9.6-36.02-16.06
	c-8.74-5.1-17.21-10.67-25.47-16.52c-4.28-2.48-5.55-7.62-8.89-11.03c-13.73-16.06-34.38-23.98-54.45-28.66
	c-3.67-3.01-5.59-7.69-6.54-12.25c-1.46-7.87-0.21-15.98,2.1-23.56c10.82,11.9,24.64,20.51,37.93,29.37
	c3.03,1.58,5.64,4.71,9.34,4.4c10.77-0.11,21.11,3.81,30.47,8.84c14.44,7.85,26.93,18.73,38.42,30.36
	c-6.55-16.81-18.38-31.74-34.1-40.79c-10.99-6.62-23.55-9.96-36.14-11.76c-12.02-6.35-22.51-15.33-31.79-25.2
	c-15.48-16.74-27.58-36.44-36.63-57.32c-2.91-5.87-2.14-12.65-1.78-18.97c1.93-17.31,7.88-33.93,15.15-49.67
	c0.24-0.06,0.72-0.18,0.96-0.23c3.07,3.49,5.99,7.11,8.87,10.77c-4.12,10.82-6.4,22.54-5.52,34.13c0.65,8.1,4.1,16.59,11.32,20.95
	c5.94,3.56,13.16,4.96,20,3.8c11.56,0.04,23.01-2.43,33.85-6.34c-11.32,1.27-23.13,2.56-34.16-1.14
	c-5.89-1.9-11.39-6.09-13.32-12.17c-2.42-7.3-0.39-15.04,1.78-22.14c5.02,4.99,8.99,10.92,13.81,16.09
	c3.62,1.12,7.58,0.13,11.26-0.37c10.54-2.25,20.82-5.87,30.55-10.49c11.35-8.72,21.68-19.67,26.97-33.19
	c2.56-6.42,3.31-13.38,2.98-20.24c5.57,3.41,10.58,8.03,13.33,14.06c2.89,5.71,3.44,12.19,4.11,18.46
	c-0.42,2.33-1.41,4.51-2.19,6.74c6.15-10.13,10.46-22.01,9.34-34.01c-0.79-8.7-5.51-16.77-12.34-22.12
	c-6.94-5.61-15.4-8.85-23.88-11.3c-7.41-10-16.81-18.37-27.04-25.38c2.75-2.01,5.48-4.18,8.78-5.21
	c17.11-5.98,34.77-10.87,52.89-12.35c14.42-1.17,30.25,0.13,41.92,9.59C380.717,121.724,379.667,117.914,379.087,114.014
	 M289.517,135.204c29.04-10.95,61.26-10.75,91.25-4.05C351.977,118.124,317.087,119.924,289.517,135.204 M320.027,192.254
	c-0.57,5.05-0.65,10.17-1.8,15.15c-2.66,13.75-10.73,26.35-22.32,34.26c-15.17,10.42-34.01,14.39-52.19,14.29
	c-3.33-3.9-6.5-7.93-10.02-11.65c2.44,6.97,5.01,13.89,7.52,20.83c11.39-1.96,22.7-4.56,33.6-8.45
	c14.99-5.44,29.98-13.46,39.28-26.84C321.737,219.074,323.807,204.854,320.027,192.254 M307.167,252.964
	c-3.6,3.16-7.56,5.93-10.84,9.43c11.6-4.04,23.42-11.49,27.91-23.48C318.337,243.324,312.887,248.314,307.167,252.964
	 M221.617,368.774c9.53,1.67,18.68,5.07,27.41,9.16c14.45,6.88,27.91,16.95,36.29,30.82c0.91,1.78,2.88,2.48,4.49,3.48
	c14.98,8.3,29.73,17.04,44.81,25.16c-13.95-10.73-28.23-21.04-42.16-31.79c-9.07-10.71-19.74-20.21-32.17-26.85
	C248.467,372.474,235.117,368.174,221.617,368.774z"/>
<path class="st6" d="M388.587,114.744c23.02,4.99,46.07,9.8,69.1,14.7c1.59,0.4,3.77,0.97,3.96,2.95c0.28,2.56-0.69,5.05-1.76,7.33
	c-4.11,8.24-10.25,15.18-15.71,22.51c-4.44,2.79-9.51,4.68-13.48,8.26c-6.98,5.55-11.6,13.99-12.16,22.93
	c-0.72,11.32,3.29,22.43,8.89,32.11c-0.35-1.4-0.74-2.8-1.11-4.19l0.07-0.19c3.57-11.59,5.14-24.33,12.81-34.2
	c1.89-2.67,4.79-4.27,7.8-5.36c-1.69,13.36-0.25,27.74,7.38,39.17c8.78,13.53,24.03,21.23,39.26,25.13
	c8.69,2.15,17.63,3.63,26.61,3.39c1.19,3.84-0.16,8-3.12,10.65c-5.88,5.49-13.93,7.66-21.51,9.66c-4.32,1.27-8.85,0.98-13.28,1.07
	c1.23,0.45,2.47,0.91,3.74,1.27c11.64,3.25,23.99,6.68,36.06,3.74c7.24-1.68,13.39-7.21,15.64-14.31
	c3.67-10.91,1.66-22.67-0.93-33.58c3.8-4.52,7.43-9.2,11.13-13.81c8.22,12.57,13.51,27.32,13.67,42.44
	c0.31,16.12-5.23,31.85-13.59,45.46c-9.24,14.97-21.62,27.83-35.44,38.64c-3.44,2.82-8.01,3.26-12.12,4.58
	c-16.42,4.96-32.7,12-45.47,23.72c-9.38,8.74-16.78,20.92-16.13,34.14c-0.57,1.26-1.39,2.38-2.1,3.57
	c10.88-10.65,24.28-18.17,37.54-25.44c9.15-4.7,18.19-9.8,28.01-13c15.47-6.74,28.76-17.34,42.46-26.99
	c1.56,8.87,1.21,18.07-0.8,26.85c-11.34-1.64-22.59,2.57-31.82,8.93c-8.78,6.05-16.6,13.54-22.96,22.11
	c-3.47,4.56-8.07,8.05-12.63,11.44c-16.1,11.6-33.75,20.75-51.26,29.97c-0.01-2.9-0.02-5.8,0.16-8.69
	c-0.35,0.18-1.04,0.53-1.39,0.71c-12.13,1.35-18.13,13.77-22.49,23.7c-7.83-6.48-6.8-17.83-4.85-26.75
	c-1.34,0.63-2.66,1.29-4.02,1.85c-1.32,0.52-2.63,1.02-3.91,1.58c-0.57-23.9,0.09-47.82-0.35-71.72
	c17.73-7.87,35.73-15.21,54.07-21.57c12.51-4.24,25.22-8.32,38.41-9.8c-3.22-0.67-6.46-1.23-9.69-1.86
	c-5.13-3.44-11.46-4.03-17.41-4.9c-22.13-2.21-44.24,2.75-65.2,9.49c-0.13-1.61-0.26-3.22-0.38-4.82
	c18.37-6.18,37.03-12.82,56.58-13.58c-4.85-1.22-9.71-2.43-14.62-3.36c-1.62-0.68-3.19-1.45-4.88-1.9
	c-12.04-2.73-24.62-2.68-36.7-0.23C388.527,243.944,388.707,179.344,388.587,114.744 M443.097,186.344
	c-4.08,9.34-5.24,20.08-2.92,30.03c2.2,9.44,8.52,17.58,16.58,22.81c11.7,7.68,25.72,10.74,39.44,12.34
	c5.78,0.78,11.67,0.41,17.42,1.56c-6.87-1.78-14.05-1.74-20.91-3.58c-16.11-3.67-32.72-10.69-42.6-24.57
	C442.117,213.884,440.757,199.454,443.097,186.344 M435.537,238.774c0.63,3.69,2.79,6.84,5.2,9.61
	c6.03,6.85,14.19,11.71,23.02,13.98C454.387,254.454,444.997,246.564,435.537,238.774z"/>
<path class="st7" d="M289.517,135.204c27.57-15.28,62.46-17.08,91.25-4.05C350.777,124.454,318.557,124.254,289.517,135.204z"/>
<path class="st2" d="M209.977,126.834c1.09-1.3,1.85-3.29,3.61-3.75c3.7,1.85,7.41,3.72,11.35,5.01
	c11.18,3.68,22.09,8.18,32.64,13.4c13.35,6.8,26.49,14.81,36.19,26.44c-4.37,3.19-8.14,7.07-12.24,10.58
	c2.08-4.49,5.29-9.91,2.14-14.69c-7.14,4.54-14.03,9.48-21.02,14.26c3.35-5.92,7.03-11.72,9.4-18.12c0.64-2.02,1.63-4.61-0.39-6.18
	c-9.61,5.9-19.17,11.89-28.84,17.69c4.64-8.01,9.55-15.87,14.03-23.97c-8.15,2.24-16.38,4.9-23.39,9.74
	c-2.68,1.75-4.63,4.32-6.22,7.05c-0.19-8.66-1.21-17.72,2.18-25.95c-10.23,7.07-20.59,14.74-32.75,18.08
	C200.327,146.254,204.187,136.014,209.977,126.834 M229.697,138.244c1.78-1.16,3.52-2.41,5.01-3.94
	C232.497,134.784,230.697,136.234,229.697,138.244z"/>
<path class="st0" d="M229.697,138.244c1-2.01,2.8-3.46,5.01-3.94C233.217,135.834,231.477,137.084,229.697,138.244z"/>
<path class="st4" d="M424.197,197.884c3.21-12.08,13.45-20.92,24.48-25.91c-0.53,3.21-1.08,6.42-1.68,9.62
	c-3.01,1.09-5.91,2.69-7.8,5.36c-7.67,9.87-9.24,22.61-12.81,34.2C422.777,214.074,422.357,205.534,424.197,197.884z"/>
<path class="st3" d="M313.187,173.084c9.89,4.85,18.84,13.04,22.07,23.85c2.16,7.4,1.78,15.61-1.26,22.7
	c-0.67-6.27-1.22-12.75-4.11-18.46c-2.75-6.03-7.76-10.65-13.33-14.06C315.947,182.324,314.587,177.694,313.187,173.084z"/>
<path class="st2" d="M297.947,175.144c0.92,2.41,1.65,4.89,2.31,7.39c-1.84,1.59-3.77,3.08-5.85,4.35
	c1.04-3.43,1.85-6.91,2.49-10.43C297.157,176.124,297.687,175.464,297.947,175.144z"/>
<path class="st1" d="M275.447,186.474c1.19-2.61,3.11-4.78,5.14-6.78C279.107,182.094,277.967,184.974,275.447,186.474z"/>
<path class="st7" d="M443.097,186.344c-2.34,13.11-0.98,27.54,7.01,38.59c9.88,13.88,26.49,20.9,42.6,24.57
	c6.86,1.84,14.04,1.8,20.91,3.58c-5.75-1.15-11.64-0.78-17.42-1.56c-13.72-1.6-27.74-4.66-39.44-12.34
	c-8.06-5.23-14.38-13.37-16.58-22.81C437.857,206.424,439.017,195.684,443.097,186.344z"/>
<path class="st7" d="M320.027,192.254c3.78,12.6,1.71,26.82-5.93,37.59c-9.3,13.38-24.29,21.4-39.28,26.84
	c-10.9,3.89-22.21,6.49-33.6,8.45c-2.51-6.94-5.08-13.86-7.52-20.83c3.52,3.72,6.69,7.75,10.02,11.65
	c18.18,0.1,37.02-3.87,52.19-14.29c11.59-7.91,19.66-20.51,22.32-34.26C319.377,202.424,319.457,197.304,320.027,192.254z"/>
<path class="st4" d="M547.977,213.974c2.17-2.79,4.34-5.58,6.71-8.2c7.52,14.75,13.92,30.3,16.93,46.65
	c1.74,9.91,2,20.55-2.17,29.92c-1.97,4.07-1.79,8.82-3.96,12.83c-5.91,12.17-14.47,22.78-22.96,33.22
	c-5.22,6.04-10.09,12.57-16.67,17.23c-6.98,5.02-14.95,8.55-23.18,10.95c-6.95,2.19-14.53,2.25-21.01,5.88
	c-17.71,9.29-30.38,25.3-42.77,40.5c-0.65-13.22,6.75-25.4,16.13-34.14c12.77-11.72,29.05-18.76,45.47-23.72
	c4.11-1.32,8.68-1.76,12.12-4.58c13.82-10.81,26.2-23.67,35.44-38.64c8.36-13.61,13.9-29.34,13.59-45.46
	C561.487,241.294,556.197,226.544,547.977,213.974z"/>
<path class="st3" d="M217.037,218.224c2.18,2.48,4.3,5.02,6.45,7.55c-2.7,10.42-4.85,21.43-2.51,32.13
	c1.3,6.04,4.68,11.85,10.09,15.06c3.54,2.32,7.83,2.79,11.77,4.14c-6.84,1.16-14.06-0.24-20-3.8c-7.22-4.36-10.67-12.85-11.32-20.95
	C210.637,240.764,212.917,229.044,217.037,218.224z"/>
<path class="st4" d="M520.137,248.664c3.16-3.69,6-7.66,9.25-11.28c2.6,7.88,4,17.38-1.07,24.61c-5.36,7.39-15.12,9.42-23.7,9.97
	c-6.19,0.66-12.37-0.84-18.54-0.03c-1.27-0.36-2.51-0.82-3.74-1.27c4.43-0.09,8.96,0.2,13.28-1.07c7.58-2,15.63-4.17,21.51-9.66
	c2.96-2.65,4.31-6.81,3.12-10.65L520.137,248.664z"/>
<path class="st0" d="M307.167,252.964c5.72-4.65,11.17-9.64,17.07-14.05c-4.49,11.99-16.31,19.44-27.91,23.48
	C299.607,258.894,303.567,256.124,307.167,252.964z"/>
<path class="st0" d="M435.537,238.774c9.46,7.79,18.85,15.68,28.22,23.59c-8.83-2.27-16.99-7.13-23.02-13.98
	C438.327,245.614,436.167,242.464,435.537,238.774z"/>
<path class="st7" d="M613.687,248.844c37.56,7.19,74.68,17.79,109.33,34.13c15.91,7.64,31.32,16.63,44.75,28.16
	c1.55,1.24,0.78,3.54,1.1,5.27c1.21,42.72-1.95,85.49-7.63,127.83c-8.62,63.12-23.71,125.39-45.42,185.3
	c2.61-14.12,6.17-28.08,8.96-42.18c12.46-60.24,23.73-120.83,30.05-182.06c1.74-17.91,3.04-35.89,3.03-53.89
	c-0.11-11.21-0.58-22.48-2.75-33.5C707.977,294.864,660.737,272.044,613.687,248.844z"/>
<path class="st7" d="M142.737,254.304c4.65-1.8,9.25-3.84,14.12-4.99c-35.42,25.06-71.26,49.58-106.66,74.66
	c-2.99,6.08-4.22,12.86-5.57,19.46c-4.44,25.42-4.17,51.39-2.71,77.08c4.15,62.23,16.87,123.53,32.1,183.89
	c1.35,6.05,3.53,11.93,4.33,18.09c-22.01-58.5-40.71-118.48-51.85-180.07c-5.55-31.34-9.13-63.2-7.75-95.06
	c0.65-12.42,2.05-24.84,4.9-36.95C62.967,290.924,102.247,271.254,142.737,254.304z"/>
<path class="st6" d="M604.117,285.444c3.32,7.5,5.85,15.33,8.87,22.96c-0.31,5.81-2.04,11.39-3.38,17.01
	c-5.91,22.21-12.98,44.09-20.17,65.91c-1.39,4.25-3.05,8.43-3.97,12.82c4.68-1.05,9.18-2.91,13.95-3.55
	c1.27,0.53,1.18,2.32,1.67,3.46c1.76,8.41,0.21,17.07-1.67,25.32c-3.81,15.66-9.79,30.71-16.57,45.3c-0.34,0.75-0.6,1.53-0.77,2.34
	c1.93,1.86,4.42,3.12,6.04,5.31c-0.44,4.9-2.86,9.3-4.89,13.69c-1.82,3.52-3.15,7.47-6.19,10.19c-2.52-5.76-4.49-11.75-5.97-17.86
	c1.8-4.85,4.04-9.51,6.53-14.03c-2.33-2.1-4.34-4.57-5.5-7.49c-3.61-8.64-4.32-18.13-4.83-27.38c-0.43-13.29,0.12-26.63,1.74-39.83
	c3.2,1.1,6.42,2.18,9.64,3.25c-1.97-16.29,0.84-33.58,10.15-47.33c6.29-7.91,9.96-17.52,12.83-27.11
	C605.447,314.504,606.627,299.704,604.117,285.444 M570.657,414.614c-1.49,11.68-1.77,23.63,0.38,35.25
	c0.96,4.49,2.1,9.07,4.53,13.03C573.357,446.874,570.547,430.844,570.657,414.614z"/>
<path class="st3" d="M150.597,330.974c-0.95-14.94,2.82-29.99,8.69-43.66c-1.18,18.73,1.79,38.38,12,54.44
	c3.26,5.62,8.88,9.66,10.88,16.04c5.89,15.8,8.21,32.69,10.01,49.38c2.01-0.75,4.07-1.38,6.18-1.8c3.4,6.8,3.49,14.58,3.52,22.02
	c-0.19,15.77-2.19,31.46-4.73,47.01c-1.5,6,4.12,11.02,3.67,16.91c-2.17,8.15-7.33,15.03-11.58,22.19c-2.24-0.68-4.25-1.88-6.2-3.11
	l0.09-0.13c4.16-6.36,6.01-13.94,9.01-20.88c-1.74-1.79-3.48-3.58-5.23-5.35c1.85-10.12,1.93-20.44,2.14-30.69
	c0.12-11.05,0.18-22.11-0.2-33.15c-2.91,0.57-5.83,1.15-8.74,1.73c3.2-17.59-1.31-35.38-7.1-51.94c-1.56-3.96-2.5-8.35-5.36-11.63
	C160.267,350.394,155.707,340.424,150.597,330.974z"/>
<path class="st4" d="M388.667,308.544c12.08-2.45,24.66-2.5,36.7,0.23c1.69,0.45,3.26,1.22,4.88,1.9c-5.55,0.09-11.09-0.4-16.62-0.1
	c-8.54,0.36-16.98,2.04-25.11,4.61C388.567,312.964,388.617,310.754,388.667,308.544z"/>
<path class="st3" d="M371.837,314.814c5.04-3.39,11.06-4.68,16.83-6.27c-0.05,2.21-0.1,4.42-0.15,6.64
	c-2.31,0.73-4.53,1.75-6.91,2.2C378.237,317.024,375.107,315.604,371.837,314.814z"/>
<path class="st4" d="M612.987,308.404c1.32,3.71,2.93,7.31,4.03,11.09c0.38,2.7-0.61,5.37-1.2,7.99
	c-6.19,22.17-14.89,43.53-22.38,65.26c3.56-1.23,7.02-2.71,10.53-4.09c5.47,15.13,5.94,31.86,2.21,47.45
	c-3.38,14.14-9.8,27.51-18.49,39.16c2.12,1.1,4.26,2.18,6.44,3.19c0.25,12.39-5.16,23.92-9.72,35.16c-3.76-0.75-5.54-4.45-7.37-7.41
	c3.04-2.72,4.37-6.67,6.19-10.19c2.03-4.39,4.45-8.79,4.89-13.69c-1.62-2.19-4.11-3.45-6.04-5.31c0.17-0.81,0.43-1.59,0.77-2.34
	c6.78-14.59,12.76-29.64,16.57-45.3c1.88-8.25,3.43-16.91,1.67-25.32c-0.49-1.14-0.4-2.93-1.67-3.46c-4.77,0.64-9.27,2.5-13.95,3.55
	c0.92-4.39,2.58-8.57,3.97-12.82c7.19-21.82,14.26-43.7,20.17-65.91C610.947,319.794,612.677,314.214,612.987,308.404z"/>
<path class="st0" d="M322.697,312.104c16.32-3.07,33.1-0.94,49.14,2.71c3.27,0.79,6.4,2.21,9.77,2.57c2.38-0.45,4.6-1.47,6.91-2.2
	c8.13-2.57,16.57-4.25,25.11-4.61c5.53-0.3,11.07,0.19,16.62,0.1c4.91,0.93,9.77,2.14,14.62,3.36c-19.55,0.76-38.21,7.4-56.58,13.58
	c-2.93,1.05-5.84,2.12-8.76,3.18c-4.59-2.82-9.65-4.76-14.84-6.15c-17.42-4.71-35.38-7.06-53.29-9.06
	C314.907,313.704,318.837,312.904,322.697,312.104z"/>
<path class="st6" d="M629.407,316.804c20.64,6.47,40.94,14.11,60.63,23.07c5.49,2.61,11.08,5.08,16.31,8.21
	c-2.83,72.59-15.01,144.78-35.46,214.48c-8.84,30.09-19.53,59.62-31.65,88.53c-47.7,8.61-95.7,15.63-143.8,21.63
	c9.42-14.05,15.89-29.9,19.97-46.26c5.3-20.77,7.08-42.25,7.58-63.62c10.84-8.42,21.01-17.83,29.41-28.71
	c4.34-5.69,8.09-11.95,9.93-18.91c8.68,9.77,17.24,20.52,29.55,25.88c5.75-16.2,10.93-32.67,14.31-49.55
	c1.16-7.23,2.89-14.95,0.14-22.03c7.02-14.78,11.65-30.76,13.22-47.06c1.17-12.73,0.3-25.8-3.79-37.97
	c-1.57-2.84,0.85-5.52,1.75-8.14c5.65-13.45,10.64-27.37,12.65-41.89C630.967,328.594,630.957,322.554,629.407,316.804
	 M637.237,329.254c13.41,12.95,27.32,25.38,40.89,38.17c-14.72,92.04-29.8,184.02-44.29,276.09c13.49-29.57,23.21-60.7,31.22-92.15
	c8.07-31.96,14.35-64.35,19.46-96.9c5.24-34.06,9.58-68.29,12.03-102.66C676.717,344.454,657.077,336.554,637.237,329.254z"/>
<path class="st4" d="M388.667,332.434c20.96-6.74,43.07-11.7,65.2-9.49c5.95,0.87,12.28,1.46,17.41,4.9
	c-14.51-0.59-29.12-1.19-43.53,1.08c-13.47,1.97-26.79,5.59-39.02,11.65C388.677,337.854,388.657,335.144,388.667,332.434z"/>
<path class="st5" d="M82.917,348.104c16.42-8.97,33.81-16.03,51.31-22.58c0.61,17.45,6.11,34.7,16.25,48.96
	c1.62,15.26,0.55,30.72-0.65,45.99c-0.56,8.66-2.81,17.39-0.96,26.04c2.35,12.19,10.37,22.61,20.23,29.84
	c-4.66,7.28-4.33,16.55-1.89,24.54c3.89,12.74,12.03,23.61,20.62,33.58c9.1-4.65,17.85-10.82,23.58-19.43
	c2.35-3.47,3.58-7.54,3.98-11.68c6,16.06,11.88,32.44,21.47,46.78c2.1,3.42,5.16,6.02,7.95,8.82c3.85,38.72,14.5,77.92,37.49,109.86
	c-23.54-0.15-46.96-3.13-70.19-6.71c-20.87-3.31-41.64-7.24-62.3-11.68c-30.88-72.98-50.86-150.41-60.85-228.98
	C85.857,397.104,83.897,372.624,82.917,348.104 M129.517,334.874c-13.17,5.18-26.87,10.21-37.86,19.4
	c-4.01,2.73-2.94,8.05-2.93,12.2c1.3,18.49,4.71,36.76,7.97,54.99c9.09,48.1,20.04,95.87,33.07,143.06
	c5.89,20.69,11.91,41.43,20.16,61.33c2.57,5.74,4.97,11.76,9.26,16.47c-18.14-91.61-36.02-183.27-54.05-274.91
	C113.227,356.534,121.577,345.864,129.517,334.874z"/>
<path class="st0" d="M427.747,328.924c14.41-2.27,29.02-1.67,43.53-1.08c3.23,0.63,6.47,1.19,9.69,1.86
	c-13.19,1.48-25.9,5.56-38.41,9.8c-18.34,6.36-36.34,13.7-54.07,21.57c-1.51,0.64-3.03,1.27-4.54,1.89
	c-13.99-10.62-31.18-15.72-47.93-20.18c-22.17-5.53-44.85-8.8-67.59-10.84c9.84-2.59,20.11-2.81,30.23-2.59
	c24.39,0.78,48.48,5.2,72.28,10.3c4.29,0.89,8.44,2.39,12.8,2.97c1.77-0.36,3.36-1.29,4.99-2.05
	C400.957,334.514,414.277,330.894,427.747,328.924z"/>
<path class="st7" d="M637.237,329.254c19.84,7.3,39.48,15.2,59.31,22.55c-2.45,34.37-6.79,68.6-12.03,102.66
	c-5.11,32.55-11.39,64.94-19.46,96.9c-8.01,31.45-17.73,62.58-31.22,92.15c14.49-92.07,29.57-184.05,44.29-276.09
	C664.557,354.634,650.647,342.204,637.237,329.254z"/>
<path class="st5" d="M150.597,330.974c5.11,9.45,9.67,19.42,17.05,27.38c2.86,3.28,3.8,7.67,5.36,11.63
	c5.79,16.56,10.3,34.35,7.1,51.94c2.91-0.58,5.83-1.16,8.74-1.73c0.38,11.04,0.32,22.1,0.2,33.15c-0.21,10.25-0.29,20.57-2.14,30.69
	c1.75,1.77,3.49,3.56,5.23,5.35c-3,6.94-4.85,14.52-9.01,20.88c-7.54-7.28-8.55-18.69-7.22-28.54c1.84-1.38,3.65-2.81,5.45-4.24
	c-4.91-8.39-9.55-16.93-14.83-25.08c-5.56-10-6.49-21.82-5.92-33.04c0.63-11.54,3.07-22.92,6.41-33.96c3.41,3.89,6.43,8.12,10,11.87
	c-1.12-9.78-5.19-18.9-9.53-27.63c-2.32-4.3-4.36-8.83-7.57-12.56C153.847,349.844,150.817,340.344,150.597,330.974
	 M167.207,399.464c-3.13,10.67-4.43,21.97-3.32,33.06c1.23,11.78,5.55,23.83,14.36,32.06c-4.23-14.53-8.06-29.22-10.41-44.18
	C166.877,413.484,165.907,406.404,167.207,399.464z"/>
<path class="st3" d="M370.937,339.654c5.5-3.33,11.76-4.99,17.73-7.22c-0.01,2.71,0.01,5.42,0.06,8.14
	c-1.63,0.76-3.22,1.69-4.99,2.05C379.377,342.044,375.227,340.544,370.937,339.654z"/>
<path class="st7" d="M129.517,334.874c-7.94,10.99-16.29,21.66-24.38,32.54c18.03,91.64,35.91,183.3,54.05,274.91
	c-4.29-4.71-6.69-10.73-9.26-16.47c-8.25-19.9-14.27-40.64-20.16-61.33c-13.03-47.19-23.98-94.96-33.07-143.06
	c-3.26-18.23-6.67-36.5-7.97-54.99c-0.01-4.15-1.08-9.47,2.93-12.2C102.647,345.084,116.347,340.054,129.517,334.874z"/>
<path class="st4" d="M544.747,340.734c3.03-2.21,5.88-4.66,8.98-6.79c4.1,6.4,3.31,14.43,1.82,21.52
	c-1.61,7.15-3.98,14.17-7.27,20.72c-1.49,0.61-3.17-0.11-4.71-0.08c-13.49-1.6-27.5,3.6-36.7,13.59c-5.24,5.12-8.57,11.7-11.91,18.1
	c-8.26,8.65-18.43,15.23-28.71,21.23c-13.06,7.4-26.75,13.72-40.87,18.8c-0.04-2.48-0.05-4.96-0.04-7.43
	c17.51-9.22,35.16-18.37,51.26-29.97c4.56-3.39,9.16-6.88,12.63-11.44c6.36-8.57,14.18-16.06,22.96-22.11
	c9.23-6.36,20.48-10.57,31.82-8.93c2.01-8.78,2.36-17.98,0.8-26.85L544.747,340.734z"/>
<path class="st7" d="M221.617,368.774c13.5-0.6,26.85,3.7,38.67,9.98c12.43,6.64,23.1,16.14,32.17,26.85
	c13.93,10.75,28.21,21.06,42.16,31.79c-15.08-8.12-29.83-16.86-44.81-25.16c-1.61-1-3.58-1.7-4.49-3.48
	c-8.38-13.87-21.84-23.94-36.29-30.82C240.297,373.844,231.147,370.444,221.617,368.774z"/>
<path class="st7" d="M167.207,399.464c-1.3,6.94-0.33,14.02,0.63,20.94c2.35,14.96,6.18,29.65,10.41,44.18
	c-8.81-8.23-13.13-20.28-14.36-32.06C162.777,421.434,164.077,410.134,167.207,399.464z"/>
<path class="st7" d="M570.657,414.614c-0.11,16.23,2.7,32.26,4.91,48.28c-2.43-3.96-3.57-8.54-4.53-13.03
	C568.887,438.244,569.167,426.294,570.657,414.614z"/>
<path class="st4" d="M524.997,436.834c5.68-6.63,11.4-13.23,17.47-19.5c-0.97,7.77-2.89,15.39-3.98,23.14
	c8.39,4.53,13,13.37,18,21.12c2.6,3.44,1.37,7.95,0.63,11.83c-3.33,12.99-12.9,23.2-22.86,31.67
	c-16.13,13.27-34.69,23.27-53.82,31.49c6.28,6.3,11.89,13.44,15.08,21.83c6.6,16.59,4.72,35.19-0.25,51.95
	c-7.12,23.44-19.61,44.92-34.19,64.47c-1.56,3.44-1.92,7.43-4.21,10.57c-5.67,8.81-16.35,12.44-26.23,13.91
	c-13.87,1.87-28.08,0.86-41.78-1.67c-0.9-0.74-1.77-1.48-2.64-2.23c0.61-0.19,1.83-0.55,2.44-0.74c13.74-3.2,27.57-6.73,40.25-13.05
	c5.35-2.7,10.89-6.33,12.59-12.46c12.12-5.14,20.92-15.8,26.45-27.46c0.55-1.3,0.93-2.65,1.3-3.99c3.48-1.55,7.78-3.26,8.88-7.32
	c0.47-2.97-1.76-5.37-3.59-7.39c3.43-14.69,4.04-29.79,3.97-44.81c2.16,2,4,4.33,6.19,6.31c2.72-1.99,3.19-6.07,1.71-8.95
	c-1.84-3.84-5.39-6.44-8.82-8.76c-0.56-6.68-0.75-13.5-2.41-20c-3.09-4.73-7.26-8.65-10.6-13.19c16.94-8.7,33.63-18.05,49.09-29.22
	c8.71-6.44,17.33-13.32,23.8-22.1c3.48-4.87,6.46-11.09,4.51-17.16c-2.08-6.04-8.03-9.28-13.41-11.93
	c0.49-5.01,1.35-9.97,1.98-14.96c-2.69,0.83-5.4,1.62-8.07,2.5C523.137,439.324,523.957,437.994,524.997,436.834z"/>
<path class="st3" d="M227.627,417.964c12.66,16.53,24.54,33.67,36.9,50.44c3.01,4.47,6.7,8.51,9.19,13.32
	c-7.54-3.17-14.22-7.96-20.94-12.53c-9.71-6.93-19.2-14.19-28.26-21.95c2.35-1.72,4.76-3.36,7.22-4.92
	C230.447,434.184,228.767,426.114,227.627,417.964z"/>
<path class="st3" d="M388.837,432.794c1.28-0.56,2.59-1.06,3.91-1.58c-2.12,3.23-5.09,6.19-5.49,10.23
	c-0.76,4.01,0.77,7.83,1.58,11.68c0.01,3.9-0.35,7.79-0.51,11.7c-2.95-6.04-4.74-12.58-5.35-19.27c-0.03-0.37-0.09-1.11-0.12-1.48
	C383.917,439.914,385.587,435.744,388.837,432.794z"/>
<path class="st4" d="M401.617,456.114c4.36-9.93,10.36-22.35,22.49-23.7c-1.22,2.77-3.26,5.03-5.04,7.44
	c-4.48,5.97-8.95,11.95-13.43,17.93C404.287,457.214,402.957,456.664,401.617,456.114z"/>
<path class="st1" d="M277.747,434.744c2.52,0.09,5.16-0.56,7.6,0.26c-1.52-0.12-3.05-0.21-4.56-0.28
	c2.68,9.74,8.05,19.3,16.84,24.72c10.42,6.34,24.05,4.96,34.55-0.47c1.13,1.47,2.35,2.86,3.58,4.25
	c-12.25,4.56-26.52,7.75-38.92,1.97C285.207,459.754,279.267,446.924,277.747,434.744z"/>
<path class="st7" d="M280.787,434.724c1.51,0.07,3.04,0.16,4.56,0.28c2.25,8.15,5.64,17.01,13.38,21.46
	c9.19,5.3,20.58,2.62,29.48-1.96c1.32,1.48,2.65,2.97,3.97,4.47c-10.5,5.43-24.13,6.81-34.55,0.47
	C288.837,454.024,283.467,444.464,280.787,434.724z"/>
<path class="st3" d="M291.147,437.194c5.09,2.41,9.96,5.26,14.93,7.9c-1.09,2.63-2.27,5.22-3.55,7.77
	C296.817,449.424,292.917,443.534,291.147,437.194z"/>
<path class="st1" d="M485.687,438.024c1.15,0.55,2.32,1.11,3.49,1.67c-3.83,7.18-8.24,14.5-15.39,18.83
	c-9.14,5.79-20.92,5.91-30.98,2.63c-1.76-0.53-3.53-1.22-5.38-1.16l-0.4-0.01c1.67-1.38,3.24-2.88,4.79-4.4
	c6.7,3.64,14.74,5.82,22.24,3.47C474.167,456.014,481.207,447.164,485.687,438.024z"/>
<path class="st6" d="M522.477,440.734c2.67-0.88,5.38-1.67,8.07-2.5c-0.63,4.99-1.49,9.95-1.98,14.96
	c5.38,2.65,11.33,5.89,13.41,11.93c1.95,6.07-1.03,12.29-4.51,17.16c-6.47,8.78-15.09,15.66-23.8,22.1
	c-15.46,11.17-32.15,20.52-49.09,29.22c3.34,4.54,7.51,8.46,10.6,13.19c1.66,6.5,1.85,13.32,2.41,20
	c-7.29-4.76-15.68-7.3-23.62-10.63c-8.79-9.24-17.3-19.98-29.84-24.2c-1.07,2.02-2.08,4.15-2.21,6.49
	c-0.66,8.52,0.76,17.03,2.36,25.38c-3.7,1.39-7.37,3.12-10.09,6.07c-7.2,7.39-11.73,16.85-15.85,26.18
	c-2.19,5.49-4.79,10.91-5.83,16.77c3.25,4.27,6.96,8.18,10.22,12.45c0.77,1.2,2.38,1.22,3.64,1.51c18.8-2.13,38.8-4.31,56.83,2.85
	c-8.82,5.86-19.25,8.45-28.81,12.77c-3.9,0.99-7.85,1.75-11.78,2.59c15.65-1.38,31.67-2.1,46.64-7.31c-0.37,1.34-0.75,2.69-1.3,3.99
	c-5.53,11.66-14.33,22.32-26.45,27.46c-1.7,6.13-7.24,9.76-12.59,12.46c-12.68,6.32-26.51,9.85-40.25,13.05
	c-0.16-20.76,0.16-41.53-0.14-62.29c-6.09-0.62-12.27,0.33-18.29-0.93c28.14-0.32,56.29,0.64,84.43,1.01
	c-21.75-4.12-43.92-5.49-66.02-5.51c0.05-53.6-0.12-107.21,0.08-160.81c1.37,2.71,2.9,5.33,4.33,8.02
	c13.42,3.9,27.31,8.38,37.96,17.84c4.13,3.53,6.92,8.32,8.44,13.51c1.18-2.9,2.3-5.83,3.77-8.6c5.64-7.39,14.53-11.58,23.45-13.48
	c8.67-1.78,17.7-1.96,26.43-0.46c7.58-14.54,17.09-27.98,27.46-40.64C521.077,441.654,521.717,441.114,522.477,440.734
	 M410.977,543.664c-5.39-0.65-9.78,4.73-9.96,9.75c0.34,3.65,2.39,7.42,5.88,8.93c0.88,1.22,1.92,2.32,2.92,3.47
	c-0.19-7.92-0.78-16.56,3.88-23.45C412.767,542.764,411.857,543.194,410.977,543.664z"/>
<path class="st7" d="M473.787,458.524c7.15-4.33,11.56-11.65,15.39-18.83c0.78,0.41,2.32,1.21,3.09,1.62
	c-2.86,9.44-9.11,18.26-18.34,22.31c-12.59,5.58-27.1,3.77-39.84-0.37c1.08-1.12,2.16-2.24,3.34-3.26c1.85-0.06,3.62,0.63,5.38,1.16
	C452.867,464.434,464.647,464.314,473.787,458.524z"/>
<path class="st4" d="M462.027,446.574c5.01-1.45,9.77-3.64,14.75-5.19c-1.76,5.56-6.41,10.27-12.2,11.47
	c-0.75-2.07-1.57-4.11-2.47-6.11L462.027,446.574z"/>
<path class="st5" d="M306.077,445.094c4.31,2.45,8.92,4.41,12.96,7.31c-5.17,2.4-11.28,2.98-16.51,0.46
	C303.807,450.314,304.987,447.724,306.077,445.094z"/>
<path class="st5" d="M382.977,445.554c0.61,6.69,2.4,13.23,5.35,19.27c0.1,0.33,0.29,0.99,0.39,1.32
	c-0.2,53.6-0.03,107.21-0.08,160.81c-22.66,0.2-45.41,1.73-67.7,5.85c2.55,0.56,5.05-0.67,7.61-0.66
	c13.88-0.68,27.79-0.87,41.68-0.69c6.02,1.26,12.2,0.31,18.29,0.93c0.3,20.76-0.02,41.53,0.14,62.29c-0.61,0.19-1.83,0.55-2.44,0.74
	c0.87,0.75,1.74,1.49,2.64,2.23c-3.12-0.43-6.35-1.82-9.46-0.56c-11.18,3.6-23.53,4.12-34.73,0.3
	c-12.9-4.31-23.55-13.71-31.27-24.71c-2.3-3.15-3.94-6.7-6.21-9.85c-12.74-16.76-23.93-35.11-29.96-55.41
	c-4.6-15.53-5.64-32.55-0.33-48.04c3.12-9.51,8.79-18.02,15.95-24.97c-18.57-4.98-36.87-12.23-52.21-24.03
	c-14.27-10.95-26.27-26.61-28.29-44.94c0.36-7.79,6.52-13.56,12.17-18.19c9.06,7.76,18.55,15.02,28.26,21.95
	c6.72,4.57,13.4,9.36,20.94,12.53c1.28,0.79,2.01,2.22,2.99,3.34c18.85-5.31,39.4,0.21,54.69,11.95
	c2.38-6.87,7.96-11.88,13.67-16.05c11.29-8.13,24.1-13.8,36.95-18.99C382.957,456.554,383.547,451.044,382.977,445.554
	 M218.277,475.024c4.55,12.73,13.66,23.35,24.24,31.54c14.49,11.21,31.65,18.34,49.05,23.67c-18.54-9.11-36.35-20.13-51.45-34.33
	c-10.25-9.78-19.53-21.2-24.18-34.76C215.357,465.884,216.807,470.574,218.277,475.024 M355.297,477.114
	c-7.42,4.89-14.89,10.35-19.58,18.07c13.26-10.73,27.35-20.41,41.72-29.59C369.597,468.444,362.377,472.774,355.297,477.114
	 M341.727,531.524c-3.71,0.1-7.25,1.54-10.2,3.75c-7.54,5.54-12.25,13.85-16.69,21.88c-13.29,0.62-25.7,9.66-30.34,22.12
	c1.26-0.7,2.53-1.41,3.76-2.17c8.85-1.31,17.93-4.22,26.88-1.79c0.32,3.02,1.18,6.03,3.2,8.39c4.33,5.36,9.9,9.73,15.96,12.98
	c6.37,2.03,10.31,8.25,12.45,14.24c-9.14,0.65-17.67,4.47-25.54,8.93c-5.93,3.48-11.87,7.07-17.06,11.61
	c-2.75-2.52-0.58-6.08,1.44-8.23c-0.97,0.32-1.91,0.68-2.84,1.09c-3.91,0.31-9.04,1.96-9.68,6.44c-0.03,4.28,3.91,6.91,7.17,8.91
	c10.12,5.75,21.93,7.46,33.39,8.08c4.13-0.05,8.48,0.81,12.4-0.89c5.53,0.4,11.06,0.86,16.59,1.21
	c-15.01-2.26-30.14-4.48-44.64-9.14c-4.16-1.46-8.49-2.91-11.96-5.71l0.55-0.54c21.07-5.29,42.93-6.04,64.54-6.61
	c3.7-5.2,7.81-10.11,11.47-15.34c-3.51-1.58-7.33-2.56-10.58-4.64c-7.42-11.93-16.84-22.45-26.59-32.51
	c-3.15-3.19-7.14-6.26-7.61-11.08c-1.38-11.38,3.48-22.27,7.86-32.49C344.327,530.474,342.997,530.924,341.727,531.524
	 M357.967,538.324c-1.73,10.13,0.69,20.33,2.2,30.33l0.07-0.54c4.33-3.71,8.43-8.71,8.54-14.69c-0.07-6.4-5.15-11.47-10.51-14.25
	C358.187,538.964,358.037,538.534,357.967,538.324 M374.267,672.404c0.17,6.19,2.3,12.41,6.17,17.28
	c1.22-11.9,2.59-23.79,3.51-35.71C378.147,658.214,374.117,665.104,374.267,672.404 M333.407,687.654
	c11.46,7.43,26.08,8.67,39.15,5.49c-10.22-2.39-20.24-5.69-29.84-9.93c-11.4-5.24-23.14-11.79-29.93-22.76
	C316.097,671.534,323.757,681.324,333.407,687.654z"/>
<path class="st6" d="M448.217,452.514c4.09-2.92,9.33-3.71,13.89-5.77c0.9,2,1.72,4.04,2.47,6.11l0.08,0.21
	C459.217,454.224,453.557,453.994,448.217,452.514z"/>
<path class="st4" d="M388.837,453.124c3.34,6.4,7.32,12.47,12.33,17.7c12.33-0.08,24.42,5.25,32.89,14.16
	c3.64,3.5,6.19,7.89,9.16,11.93c-1.47,2.77-2.59,5.7-3.77,8.6c-1.52-5.19-4.31-9.98-8.44-13.51c-10.65-9.46-24.54-13.94-37.96-17.84
	c-1.43-2.69-2.96-5.31-4.33-8.02c-0.1-0.33-0.29-0.99-0.39-1.32C388.487,460.914,388.847,457.024,388.837,453.124z"/>
<path class="st7" d="M218.277,475.024c-1.47-4.45-2.92-9.14-2.34-13.88c4.65,13.56,13.93,24.98,24.18,34.76
	c15.1,14.2,32.91,25.22,51.45,34.33c-17.4-5.33-34.56-12.46-49.05-23.67C231.937,498.374,222.827,487.754,218.277,475.024z"/>
<path class="st7" d="M355.297,477.114c7.08-4.34,14.3-8.67,22.14-11.52c-14.37,9.18-28.46,18.86-41.72,29.59
	C340.407,487.464,347.877,482.004,355.297,477.114z"/>
<path class="st0" d="M341.727,531.524c1.27-0.6,2.6-1.05,3.93-1.51c-4.38,10.22-9.24,21.11-7.86,32.49
	c0.47,4.82,4.46,7.89,7.61,11.08c9.75,10.06,19.17,20.58,26.59,32.51c3.25,2.08,7.07,3.06,10.58,4.64
	c-3.66,5.23-7.77,10.14-11.47,15.34c-21.61,0.57-43.47,1.32-64.54,6.61c2.53-2.58,6.18-3.42,9.35-4.95
	c13.89-5.78,28.58-11.17,43.87-10.48c-4.41-7.37-9.5-14.4-15.64-20.43c-3.86-3.95-9.32-5.79-13.05-9.88
	c-4.43-4.5-9.63-9.82-8.67-16.71c-4.05-2.88-9.26-3.13-13.98-2.07c-7.25,1.55-14.03,4.87-20.19,8.94c-1.23,0.76-2.5,1.47-3.76,2.17
	c4.64-12.46,17.05-21.5,30.34-22.12c3.39-0.17,6.8-0.02,10.2,0.06C328.757,547.694,333.407,537.864,341.727,531.524z"/>
<path class="st3" d="M331.527,535.274c2.95-2.21,6.49-3.65,10.2-3.75c-8.32,6.34-12.97,16.17-16.69,25.69
	c-3.4-0.08-6.81-0.23-10.2-0.06C319.277,549.124,323.987,540.814,331.527,535.274z"/>
<path class="st4" d="M421.917,538.454c0.13-2.34,1.14-4.47,2.21-6.49c3.51,7.67,6.42,15.67,8.15,23.95
	c0.87,4.72,1.52,9.71,0.22,14.43c-0.42,1.42-1.89,2.12-2.94,3.03c-13.18,9.24-22.89,23.14-27.31,38.6
	c-3.24,0.37-6.49,0.69-9.74,0.88c1.04-5.86,3.64-11.28,5.83-16.77c4.12-9.33,8.65-18.79,15.85-26.18c2.72-2.95,6.39-4.68,10.09-6.07
	C422.677,555.484,421.257,546.974,421.917,538.454z"/>
<path class="st0" d="M424.127,531.964c12.54,4.22,21.05,14.96,29.84,24.2c7.94,3.33,16.33,5.87,23.62,10.63
	c3.43,2.32,6.98,4.92,8.82,8.76c1.48,2.88,1.01,6.96-1.71,8.95c-2.19-1.98-4.03-4.31-6.19-6.31c-8.06-7.4-19.04-11.03-29.89-11.03
	c3.14,8.78-0.85,17.98-6.46,24.77c-6.47,0.3-12.72,3.17-16.81,8.25c-3.53,4.02-5.87,8.91-7.72,13.89
	c11.66,0.41,23.52,1.09,34.67,4.83c5.2,1.81,10.51,4.42,13.62,9.18c0.37,1.06,0.69,2.14,1.05,3.24c-1.27-0.56-2.51-1.13-3.77-1.66
	c-18.03-7.16-38.03-4.98-56.83-2.85c-1.26-0.29-2.87-0.31-3.64-1.51c-3.26-4.27-6.97-8.18-10.22-12.45c3.25-0.19,6.5-0.51,9.74-0.88
	c4.42-15.46,14.13-29.36,27.31-38.6c1.05-0.91,2.52-1.61,2.94-3.03c1.3-4.72,0.65-9.71-0.22-14.43
	C430.547,547.634,427.637,539.634,424.127,531.964z"/>
<path class="st3" d="M357.967,538.324c0.07,0.21,0.22,0.64,0.3,0.85c3.86,9.17,3.59,19.31,1.97,28.94l-0.07,0.54
	C358.657,558.654,356.237,548.454,357.967,538.324z"/>
<path class="st0" d="M358.267,539.174c5.36,2.78,10.44,7.85,10.51,14.25c-0.11,5.98-4.21,10.98-8.54,14.69
	C361.857,558.484,362.127,548.344,358.267,539.174z"/>
<path class="st0" d="M410.977,543.664c0.88-0.47,1.79-0.9,2.72-1.3c-4.66,6.89-4.07,15.53-3.88,23.45c-1-1.15-2.04-2.25-2.92-3.47
	c-1.37-3.13-2.66-6.51-2.1-9.99C405.287,548.634,408.237,545.934,410.977,543.664z"/>
<path class="st4" d="M401.017,553.414c0.18-5.02,4.57-10.4,9.96-9.75c-2.74,2.27-5.69,4.97-6.18,8.69c-0.56,3.48,0.73,6.86,2.1,9.99
	C403.407,560.834,401.357,557.064,401.017,553.414z"/>
<path class="st3" d="M308.447,568.164c4.72-1.06,9.93-0.81,13.98,2.07c-0.96,6.89,4.24,12.21,8.67,16.71
	c3.73,4.09,9.19,5.93,13.05,9.88c6.14,6.03,11.23,13.06,15.64,20.43c-15.29-0.69-29.98,4.7-43.87,10.48
	c-3.17,1.53-6.82,2.37-9.35,4.95l-0.55,0.54c-0.65-0.58-1.27-1.17-1.87-1.76c5.19-4.54,11.13-8.13,17.06-11.61
	c7.87-4.46,16.4-8.28,25.54-8.93c-2.14-5.99-6.08-12.21-12.45-14.24c-6.06-3.25-11.63-7.62-15.96-12.98
	c-2.02-2.36-2.88-5.37-3.2-8.39c-8.95-2.43-18.03,0.48-26.88,1.79C294.417,573.034,301.197,569.714,308.447,568.164z"/>
<path class="st6" d="M448.617,567.164c10.85,0,21.83,3.63,29.89,11.03c0.07,15.02-0.54,30.12-3.97,44.81
	c-2.16-1.76-4.48-3.27-6.83-4.72c1.25,1.29,2.53,2.56,3.76,3.89c-1.55,2.23-3.4,4.25-5.55,5.91c-3.11-4.76-8.42-7.37-13.62-9.18
	c-11.15-3.74-23.01-4.42-34.67-4.83c1.85-4.98,4.19-9.87,7.72-13.89c4.09-5.08,10.34-7.95,16.81-8.25
	C447.767,585.144,451.757,575.944,448.617,567.164z"/>
<path class="st0" d="M467.707,618.284c2.35,1.45,4.67,2.96,6.83,4.72c1.83,2.02,4.06,4.42,3.59,7.39c-1.1,4.06-5.4,5.77-8.88,7.32
	c-14.97,5.21-30.99,5.93-46.64,7.31c3.93-0.84,7.88-1.6,11.78-2.59c8.25-1,16.31-3.28,24.14-6.02c4.76-1.87,9.94-3.8,13.16-7.98
	c1.51-1.86,0.95-4.4-0.22-6.26C470.237,620.844,468.957,619.574,467.707,618.284z"/>
<path class="st4" d="M471.467,622.174c1.17,1.86,1.73,4.4,0.22,6.26c-3.22,4.18-8.4,6.11-13.16,7.98
	c-7.83,2.74-15.89,5.02-24.14,6.02c9.56-4.32,19.99-6.91,28.81-12.77c1.26,0.53,2.5,1.1,3.77,1.66c-0.36-1.1-0.68-2.18-1.05-3.24
	C468.067,626.424,469.917,624.404,471.467,622.174z"/>
<path class="st0" d="M302.747,624.324c0.93-0.41,1.87-0.77,2.84-1.09c-2.02,2.15-4.19,5.71-1.44,8.23c0.6,0.59,1.22,1.18,1.87,1.76
	c3.47,2.8,7.8,4.25,11.96,5.71c14.5,4.66,29.63,6.88,44.64,9.14c-5.53-0.35-11.06-0.81-16.59-1.21c-12.93-1.87-26.07-3.04-38.58-7
	c-3.86-1.43-8.4-2.77-10.65-6.49C295.147,629.154,299.907,626.434,302.747,624.324z"/>
<path class="st3" d="M293.067,630.764c0.64-4.48,5.77-6.13,9.68-6.44c-2.84,2.11-7.6,4.83-5.95,9.05c2.25,3.72,6.79,5.06,10.65,6.49
	c12.51,3.96,25.65,5.13,38.58,7c-3.92,1.7-8.27,0.84-12.4,0.89c-11.46-0.62-23.27-2.33-33.39-8.08
	C296.977,637.674,293.037,635.044,293.067,630.764z"/>
<path class="st7" d="M320.937,632.804c22.29-4.12,45.04-5.65,67.7-5.85c22.1,0.02,44.27,1.39,66.02,5.51
	c-28.14-0.37-56.29-1.33-84.43-1.01c-13.89-0.18-27.8,0.01-41.68,0.69C325.987,632.134,323.487,633.364,320.937,632.804z"/>
<path class="st7" d="M34.467,646.484c28.72,9.03,57.88,16.65,87.23,23.34c6.05,4.03,11.57,8.9,17.57,13.04
	c1.25,44.52,2.32,89.05,3.42,133.58c-5.68,2.89-11.22,6.08-16.95,8.87c-30.23-0.65-60.46-1.98-90.68-3.11
	c1.34-4.61,4.2-8.94,3.93-13.87c-0.36-49.65-0.4-99.31-0.77-148.96C37.627,654.924,35.537,650.824,34.467,646.484 M71.697,680.424
	c0.63,39.97,1.13,79.93,1.72,119.89c1.89,1.2,3.68,3,6.11,2.83c7.37,0.37,14.73,0.93,22.1,1.34c2.25,0.44,4.13-1,6.03-1.95
	c-0.85-38.21-1.57-76.42-2.43-114.62c-1.78-1.26-3.32-3.11-5.57-3.46c-7.71-1.66-15.38-3.48-23.07-5.22
	C74.877,678.764,73.297,679.984,71.697,680.424z"/>
<path class="st7" d="M701.797,657.324c12.39-3.44,24.73-7.04,37.01-10.85c-1.15,4.35-3.24,8.43-4.08,12.86
	c-0.37,50.36-0.54,100.73-0.79,151.09c0.49,4.17,2.95,7.82,4.32,11.76c-14.39,0.65-28.78,1.13-43.18,1.7
	c1.58-4.47,4.85-8.55,4.63-13.48c0.43-30.71,0.79-61.41,1.32-92.11c-11.68,22.35-23.54,44.63-36.2,66.44
	c-5.84,0.45-11.67,0.92-17.49,1.44c-11.35-18.09-22.41-36.39-34.51-53.99c-0.73,28.09-1.56,56.18-2.22,84.27
	c0.57,3.56,2.85,6.61,4.13,9.97c-14.5,0.33-29.01,0.61-43.51,1.05c1.5-3.2,3.64-6.14,4.7-9.5c1.22-40.87,2.24-81.74,3.43-122.6
	c0.6-4.27-2.65-7.63-4.2-11.31c13.1-2.01,26.15-4.31,39.19-6.65c14.74,21.63,28.75,43.74,42.78,65.82
	C672.767,714.994,687.927,686.484,701.797,657.324z"/>
<path class="st0" d="M374.267,672.404c-0.15-7.3,3.88-14.19,9.68-18.43c-0.92,11.92-2.29,23.81-3.51,35.71
	C376.567,684.814,374.437,678.594,374.267,672.404z"/>
<path class="st7" d="M333.407,687.654c-9.65-6.33-17.31-16.12-20.62-27.2c6.79,10.97,18.53,17.52,29.93,22.76
	c9.6,4.24,19.62,7.54,29.84,9.93C359.487,696.324,344.867,695.084,333.407,687.654z"/>
<path class="st7" d="M163.007,678.194c27.75,5.01,55.65,9.2,83.68,12.3c2.9,0.38,5.88,0.41,8.71,1.19
	c5.86,3.2,11.58,6.66,17.45,9.86c0.48,19.85,0.92,39.7,1.23,59.55c-5.77,2.36-11.44,4.98-17.18,7.41
	c5.01,16.34,10.23,32.62,15.28,48.95c1.17,4.24,4.47,7.39,6.51,11.2c-14.41-0.17-28.82-0.36-43.24-0.58
	c0.81-2.85,1.91-5.59,2.87-8.37c-5.56-17.09-10.7-34.32-16.25-51.41c-2.77-3.3-7.55-2.12-11.32-2.76c-2.33-0.55-4.41,0.68-6.44,1.62
	c0.52,17.15,0.87,34.32,1.49,51.47c1.25,3.09,3.11,5.9,4.56,8.91c-14.43-0.37-28.91-0.29-43.31-1.21c1.32-3.31,3.77-6.34,4.08-9.96
	c-1.16-42.31-2.27-84.63-3.48-126.95C167.037,685.384,164.427,681.964,163.007,678.194 M202.627,704.644
	c0.25,13.53,0.82,27.05,1.06,40.58c1.87,1.01,3.63,2.55,5.87,2.6c8.03,0.7,16.06,1.41,24.1,2.01c1.88,0.19,3.54-0.97,5.26-1.53
	c-0.29-13.11-0.67-26.21-0.95-39.31c-5.15-4.11-12.12-2.93-18.21-4.15C214.067,704.664,208.057,701.934,202.627,704.644z"/>
<path class="st0" d="M71.697,680.424c1.6-0.44,3.18-1.66,4.89-1.19c7.69,1.74,15.36,3.56,23.07,5.22c2.25,0.35,3.79,2.2,5.57,3.46
	c0.86,38.2,1.58,76.41,2.43,114.62c-1.9,0.95-3.78,2.39-6.03,1.95c-7.37-0.41-14.73-0.97-22.1-1.34c-2.43,0.17-4.22-1.63-6.11-2.83
	C72.827,760.354,72.327,720.394,71.697,680.424z"/>
<path class="st7" d="M491.107,693.944c7.7-0.66,15.39-1.38,23.09-2.13c-1.07,3.46-4.92,6.8-3.05,10.59
	c13.16,37.3,25.62,74.86,37.83,112.48c2.36,4.52,5.62,8.5,8.34,12.82c-14.52,0.29-29.04,0.5-43.56,0.75
	c0.99-1.98,1.98-3.94,2.95-5.92c-2.9-8.56-5.78-17.13-8.62-25.71c-2.08-0.86-4.05-2.39-6.4-2.18c-9.05,0.3-18.09,0.52-27.14,0.81
	c-2.38-0.04-4.41,1.36-6.52,2.24c-3.11,8.59-6.2,17.18-9.3,25.77c0.91,1.86,1.82,3.72,2.74,5.58c-14.53,0.12-29.05,0.21-43.58,0.28
	c3.07-5.04,7.69-9.2,9.5-14.94c11.99-32.33,24.21-64.58,36.29-96.89C474.207,711.474,483.567,703.454,491.107,693.944
	 M485.237,750.384c-3.19,9.01-6.84,17.86-9.86,26.93c3.93,1.6,8.19,0.82,12.31,0.74c4.52-0.29,9.18,0.19,13.52-1.44
	c-2.59-7.71-5.17-15.42-7.78-23.12c-2.22-5.93-2.8-12.28-4.28-18.4C487.487,740.094,486.817,745.364,485.237,750.384z"/>
<path class="st0" d="M202.627,704.644c5.43-2.71,11.44,0.02,17.13,0.2c6.09,1.22,13.06,0.04,18.21,4.15
	c0.28,13.1,0.66,26.2,0.95,39.31c-1.72,0.56-3.38,1.72-5.26,1.53c-8.04-0.6-16.07-1.31-24.1-2.01c-2.24-0.05-4-1.59-5.87-2.6
	C203.447,731.694,202.877,718.174,202.627,704.644z"/>
<path class="st7" d="M303.367,706.374c9.71,7.42,20.52,13.51,32.25,17.05c1.08,0.49,2.54,0.45,3.35,1.41
	c0.26,9.44,0.15,18.9,0.38,28.35c1.24,0.56,2.48,1.18,3.77,1.68c10.61,1.27,21.27-0.23,31.83-1.45c0.01,6.83,0.06,13.67,0.04,20.52
	c-7.8-0.81-15.53-2.45-23.4-2.34c-4.1-0.07-8.44-0.69-12.06,1.71c0.08,12.44,0.24,24.88,0.29,37.31c3.74,2.77,8.45,1.98,12.8,2.09
	c11.67,0.1,23.34,0.13,35.01,0.12c8.18,0.26,16.26-1.28,24.38-1.99c-2.19,6.16-4.42,12.31-6.54,18.49
	c-34.84,0.15-69.67-0.07-104.5-0.39c1.36-2.86,3.09-5.55,4.2-8.51C304.707,782.404,303.907,744.394,303.367,706.374z"/>
<path class="st0" d="M485.237,750.384c1.58-5.02,2.25-10.29,3.91-15.29c1.48,6.12,2.06,12.47,4.28,18.4
	c2.61,7.7,5.19,15.41,7.78,23.12c-4.34,1.63-9,1.15-13.52,1.44c-4.12,0.08-8.38,0.86-12.31-0.74
	C478.397,768.244,482.047,759.394,485.237,750.384z"/>
<path class="st7" d="M185.527,842.524c20.07,0.01,40.15,0,60.23,0.01c1.26,4.82,2.49,9.64,3.75,14.47
	c-12.16-2.45-24.57-1.2-36.87-1.52c-1.76-0.31-3.23,0.61-4.59,1.59c0.17,9.77,0.01,19.55,0.08,29.32c6.34,2.9,13.63,0.49,20.22-0.38
	c0.09,5.44,0.03,10.88,0.04,16.32c-5.57-0.98-11.19-2.1-16.88-1.65c-1.32-0.1-2.33,0.88-3.43,1.44c0.07,9.77,0.05,19.54,0.01,29.31
	c1.42,0.83,2.89,1.63,4.61,1.41c12.3-0.2,24.67,0.72,36.85-1.39c-1.34,4.76-2.53,9.56-3.72,14.36c-20.08,0.19-40.17,0.02-60.25,0.09
	c0.93-2.84,2.64-5.53,2.57-8.59c-0.01-28.62-0.03-57.24,0.01-85.86C188.357,848.244,186.567,845.434,185.527,842.524z"/>
<path class="st7" d="M278.927,842.644c9.19-0.23,18.39-0.1,27.59-0.07c-0.69,2.51-2.66,5.06-1.63,7.77
	c7.67,28.3,15.31,56.6,22.94,84.91c1.19,3.76,3.53,7.01,5.29,10.53c-8.37,0.25-16.75,0.05-25.13,0.1c0.53-1.47,1.07-2.89,1.61-4.33
	c-1.79-6.59-3.59-13.18-5.35-19.78c-1.2-0.57-2.26-1.7-3.67-1.61c-4.98-0.09-9.97-0.03-14.95-0.03c-1.91-0.09-4.37,0.92-4.62,3.05
	c-1.49,6.11-3.26,12.15-4.58,18.31c0.35,1.49,0.92,2.93,1.43,4.4c-8.38-0.01-16.75,0-25.13,0c1.82-3.81,4.35-7.32,5.36-11.46
	c7.46-28.04,14.96-56.06,22.45-84.08C281.567,847.674,279.617,845.144,278.927,842.644 M291.327,882.564
	c-1.31,7.98-4.57,15.69-5.65,23.62c4.51,1.56,9.73,0.95,14.41,0.23c-2.59-10.61-6.08-21.04-7.25-31.94
	C292.117,877.124,291.747,879.834,291.327,882.564z"/>
<path class="st7" d="M329.677,842.524c21.46,0.01,42.92,0.01,64.38,0c1.26,4.88,2.57,9.74,3.69,14.66
	c-7.64-1.4-15.4-1.87-23.16-1.44c-0.65,0.31-1.95,0.93-2.6,1.24c0.02,26.82,0.02,53.63,0,80.45c-0.19,3.05,1.6,5.68,2.56,8.47
	c-8.39-0.04-16.78,0.03-25.17-0.04c1.01-2.76,2.71-5.44,2.53-8.48c0-26.77-0.06-53.55,0.03-80.32c-0.76-0.48-1.54-0.9-2.34-1.27
	c-7.93-0.48-15.88-0.09-23.7,1.39C327.167,852.294,328.367,847.394,329.677,842.524z"/>
<path class="st7" d="M406.497,842.534c20.09-0.01,40.19-0.01,60.29-0.01c1.24,4.84,2.52,9.67,3.73,14.52
	c-10.84-2.26-21.92-1.31-32.9-1.51c-2.89,0.07-6.07-0.58-8.5,1.41c0.04,9.75,0.08,19.5-0.02,29.26c2.45,1.97,5.65,1.42,8.58,1.44
	c3.94-0.13,7.79-1.06,11.68-1.68c0.07,5.45,0.02,10.91,0.04,16.37c-5.26-0.83-10.5-2-15.86-1.65c-1.63-0.23-3.05,0.56-4.39,1.35
	c-0.03,9.74,0.08,19.49-0.06,29.23c1.36,0.92,2.78,1.85,4.54,1.57c12.31-0.25,24.72,0.83,36.9-1.48c-1.22,4.85-2.51,9.68-3.7,14.55
	c-20.09,0.07-40.18,0-60.27,0.04c0.87-2.84,2.63-5.5,2.56-8.54c-0.02-28.67-0.03-57.35,0.01-86.02
	C409.347,848.194,407.507,845.424,406.497,842.534z"/>
<path class="st7" d="M479.497,842.524c17.63,0.1,35.27-0.19,52.89,0.15c3.43,1.86,6.56,4.24,9.93,6.22
	c0.13,15.14-0.02,30.27,0.07,45.41c-3.32,2.27-6.82,4.27-10.04,6.68c2.88,12.1,5.43,24.28,8.19,36.4c0.63,3.07,2.37,5.72,3.71,8.51
	c-8.43,0.07-16.86,0.03-25.29,0.03c0.71-2.85,2.4-5.75,1.3-8.72c-2.74-11.87-5.39-23.75-8.13-35.61c-3.17-1.17-7.16-1.45-10.01,0.64
	c0.07,11.75,0.02,23.49,0.02,35.24c-0.1,3.02,1.65,5.66,2.57,8.46c-8.38-0.01-16.77-0.02-25.14,0.01c0.89-2.83,2.65-5.49,2.55-8.53
	c-0.02-28.7-0.02-57.39,0-86.08C482.237,848.174,480.477,845.414,479.497,842.524 M502.137,857.044c-0.01,9.7,0.07,19.4-0.04,29.11
	c0.77,0.55,1.56,1.12,2.36,1.69c4.72-0.07,9.44,0.03,14.16-0.03c1.45,0.2,2.54-0.88,3.67-1.57c-0.16-9.74-0.06-19.48-0.06-29.22
	c-2.79-2.12-6.41-1.11-9.63-1.31C509.107,855.984,505.177,854.784,502.137,857.044z"/>
<path class="st7" d="M567.887,842.664c13.22-0.28,26.48-0.13,39.72-0.08c3.83,1.48,7.09,4.33,10.61,6.5
	c-0.09,3.44-0.08,6.88-0.09,10.33c-0.31,3.29,1.58,6.16,2.68,9.13c-8.46-0.01-16.91,0-25.37,0c1.59-3.62,2.84-7.42,2.47-11.43
	c-2.92-2.35-6.82-1.13-10.23-1.4c-3.24,0.2-6.85-0.81-9.65,1.28c0,9.78,0.08,19.56-0.04,29.34c1.17,0.57,2.21,1.7,3.66,1.49
	c8.84,0.11,17.7-0.2,26.54,0.12c3.44,1.89,6.6,4.24,9.96,6.29c0,15.11,0,30.22,0,45.33c-3.56,1.99-6.71,4.91-10.52,6.31
	c-13.29,0.04-26.6,0.22-39.88-0.09c-3.46-1.91-6.69-4.21-10.07-6.25c-0.12-6.56,0.92-13.45-2.4-19.44c8.43,0.01,16.87-0.01,25.31,0
	c-1.69,3.67-3.13,7.5-2.54,11.62c2.82,1.99,6.36,1.06,9.57,1.26c3.41-0.28,7.29,0.89,10.24-1.37c-0.03-9.8-0.05-19.6,0-29.4
	c-1.1-0.5-2.1-1.4-3.35-1.36c-8.91-0.16-17.85,0.26-26.74-0.18c-3.46-1.96-6.72-4.23-10.11-6.29c0.01-15.1,0.07-30.21-0.03-45.31
	C561.017,846.884,564.337,844.574,567.887,842.664z"/>
<path class="st0" d="M502.137,857.044c3.04-2.26,6.97-1.06,10.46-1.33c3.22,0.2,6.84-0.81,9.63,1.31c0,9.74-0.1,19.48,0.06,29.22
	c-1.13,0.69-2.22,1.77-3.67,1.57c-4.72,0.06-9.44-0.04-14.16,0.03c-0.8-0.57-1.59-1.14-2.36-1.69
	C502.207,876.444,502.127,866.744,502.137,857.044z"/>
<path class="st0" d="M291.327,882.564c0.42-2.73,0.79-5.44,1.51-8.09c1.17,10.9,4.66,21.33,7.25,31.94
	c-4.68,0.72-9.9,1.33-14.41-0.23C286.757,898.254,290.017,890.544,291.327,882.564z"/>
<path class="st7" d="M394.497,995.694c28.45-9.91,56.78-20.17,85.21-30.11c-28.01,19.35-56.29,38.31-84.38,57.54
	c-1.21,1.46-2.53-0.28-3.6-0.85c-25.99-18.42-52.29-36.42-78.23-54.91c24.83,8.5,49.48,17.57,74.25,26.27
	C389.997,994.284,392.147,995.544,394.497,995.694z"/>
</svg>
