<?xml version="1.0" encoding="utf-8"?>
<!-- Generator: Adobe Illustrator 21.0.0, SVG Export Plug-In . SVG Version: 6.00 Build 0)  -->
<svg version="1.1" id="Layer_1" xmlns="http://www.w3.org/2000/svg" xmlns:xlink="http://www.w3.org/1999/xlink" x="0px" y="0px"
	 viewBox="0 0 727.1 865.2" style="enable-background:new 0 0 727.1 865.2;" xml:space="preserve">
<style type="text/css">
	.st0{stroke:#000000;stroke-width:9.375000e-02;}
	.st1{fill:#FFFFFF;stroke:#FFFFFF;stroke-width:9.375000e-02;}
	.st2{fill:#E3823A;stroke:#E3823A;stroke-width:9.375000e-02;}
</style>
<path class="st0" d="M342,0c1.4,0,2.8,0.3,4.2,0.6c63.7,21.6,125,51.8,177.9,93.6c-5.7-14.3-13.3-28.2-14.3-43.8
	c-0.3-1.2,0.4-2.3,0.8-3.4c4.3,9.4,10.4,17.7,16.5,25.9c7.7,12.3,18.4,22.2,27.4,33.5c4.4,5.4,8.2,11.2,11.8,17.1
	c5.7,9.2,11.2,18.5,15.5,28.4c7.7,18,12.3,37.3,13.9,56.9c1.8,14,1.1,28.1-1.2,42c-2.8,19.7-10.5,38.3-20.3,55.4
	c-8.8,16.4-23,29-37.3,40.6c-3.7,2.8-7,6-11,8.3c-9.2,5.3-18.2,11-28.1,14.9c-12.5,5.2-25.9,7.9-39.3,9.5
	c-6.1,0.8-12.3,0.5-18.4,0.5c0.2-0.4,0.5-1.1,0.6-1.5c3.5-1.2,7.3-1.4,10.9-2.1c7-1.2,13.5-4.4,19.5-8.1c-20.8,1-42.1,0.4-62.2-5.8
	c-9.7-3.1-19.3-6.6-28.4-11.2c-17.9-9.9-34.3-23-46.5-39.6c-18.4-24.7-25-56.1-25.3-86.4c0-24.6,1.3-49.4,7-73.5
	c1.7-6.9,3.3-13.8,5.5-20.5c2.6-6.9,2.3-14.3,3.8-21.4c0.2-9.2,0.1-18.4,0.1-27.6c-2-19.5-6.7-38.8-14.8-56.6l0.4-1.4
	c15.3,13.3,32.1,26.2,52.1,31.3c-0.3-8.9-0.9-18.1-4.5-26.4c-3.3-8.3-6.8-16.5-11.6-24C345.5,3.3,342.9,2.3,342,0 M390.1,58.6
	c-0.1,5.4,0.1,10.8-0.1,16.1c-0.8,5.6-1.9,11.2-2.6,16.8c-0.4,2.3-0.5,5-2.6,6.4c-2.3,0.6-4.7-0.4-6.9-1.1
	c-9.6-3.5-18.4-8.7-27.3-13.8c1.4,7,1.1,14.2,1.8,21.3c1.1,22,5,43.7,8.4,65.5c0.7,3.9,1.4,7.7,1.3,11.7c-1.5-2.9-2.5-6-3.6-9.1
	c-5.6-16-10.5-32.2-13.9-48.8c-0.6-2.9-1-5.8-2-8.6c-2.1,3.8-3.3,8-4.7,12c-4.6,14.3-8.7,28.7-11.3,43.4
	c-3.3,17.5-2.7,35.5-1.8,53.2c1.3,9,1.1,18.3,3.8,27c3.1,11.8,7.2,23.2,12.4,34.2c6.3,13.2,14.6,25.9,26.3,34.9
	c13.8,11.1,28.8,21.3,46,26.1c15.6,4.8,32.1,5.4,48.2,4.2c18.3-2.6,36.1-9.5,50.9-20.7c13.9-10.3,25.1-24.2,33.1-39.5
	c-7.8,1.8-15.4,4.6-23.2,6.1c-13.1,2.8-26.5,3.2-39.8,4c-14.3,0.5-28.6-0.1-42.8-2.1c-16.9-3.2-34-9-47.1-20.7
	c-7.2-6.4-12.8-14.6-16.6-23.4c-2-4.7-4.9-9.3-4.6-14.6c4.6,7.3,10.3,13.9,17,19.4c17,14.3,38.1,24,60.4,25.9
	c21.8,2.6,43.9,3.8,65.7,1c11.1-0.5,21.8-3.7,32-7.8c7.9-5.1,11.6-14.3,13.8-23.1c3-8.7,4.5-17.9,5.2-27c-0.2-7.7,0.6-15.4-0.9-23
	c-1.4-13.6-7.6-26-12.8-38.5c-7.5-14.7-17.8-27.8-29.2-39.6c-26.5-26.5-59-46.1-92.9-61.8c18.3,15.2,33.3,33.9,45.9,53.9
	c5.4,8.3,9.4,17.4,13.4,26.4c4.1,9.7,8.2,19.4,10.8,29.6c1.2,4.4,1.3,9,0.6,13.5c-1.1-1.3-1.6-2.9-2.1-4.5
	c-5.9-17.7-14.7-34.4-25.1-49.8C451.8,102.8,423.8,75.7,390.1,58.6z"/>
<path class="st1" d="M390.1,58.6c33.7,17.1,61.7,44.1,83,75c10.4,15.4,19.2,32.1,25.1,49.8c0.5,1.6,1.1,3.2,2.1,4.5
	c0.7-4.5,0.6-9.1-0.6-13.5c-2.7-10.2-6.7-19.9-10.8-29.6c-4-9-8-18.1-13.4-26.4c-12.6-20-27.6-38.7-45.9-53.9
	c33.8,15.7,66.3,35.3,92.9,61.8c11.4,11.8,21.7,24.9,29.2,39.6c5.2,12.5,11.5,24.9,12.8,38.5c1.5,7.6,0.7,15.3,0.9,23
	c-0.6,9.2-2.2,18.3-5.2,27c-2.3,8.7-6,18-13.8,23.1c-10.2,4.1-20.9,7.3-32,7.8c-21.9,2.8-43.9,1.7-65.7-1
	c-22.2-1.9-43.4-11.6-60.4-25.9c-6.7-5.5-12.4-12.1-17-19.4c-0.3,5.3,2.7,9.9,4.6,14.6c3.8,8.9,9.3,17,16.6,23.4
	c13.1,11.7,30.2,17.4,47.1,20.7c14.2,2,28.5,2.6,42.8,2.1c13.3-0.8,26.7-1.2,39.8-4c7.9-1.5,15.4-4.3,23.2-6.1
	c-8,15.3-19.1,29.1-33.1,39.5c-14.8,11.1-32.6,18-50.9,20.7c-16.1,1.2-32.7,0.6-48.2-4.2c-17.2-4.8-32.2-15-46-26.1
	c-11.7-9-20-21.7-26.3-34.9c-5.2-11-9.3-22.5-12.4-34.2c-2.7-8.8-2.5-18-3.8-27c-0.9-17.7-1.5-35.6,1.8-53.2
	c2.6-14.8,6.7-29.2,11.3-43.4c1.4-4,2.6-8.2,4.7-12c1,2.8,1.4,5.7,2,8.6c3.4,16.6,8.3,32.8,13.9,48.8c1.1,3.1,2.1,6.2,3.6,9.1
	c0.1-3.9-0.6-7.8-1.3-11.7c-3.5-21.7-7.4-43.4-8.4-65.5c-0.7-7.1-0.3-14.3-1.8-21.3c8.8,5.1,17.7,10.2,27.3,13.8
	c2.2,0.6,4.6,1.7,6.9,1.1c2.1-1.4,2.2-4.1,2.6-6.4c0.7-5.6,1.8-11.2,2.6-16.8C390.2,69.4,390,64,390.1,58.6 M396.7,207.6
	c-2.9,12.4,0.5,26.1,8.7,35.9c6.6,7.1,14.7,13.1,24.2,15.6c7.2,1.9,14.5,3.8,22,4.2c11.5,0.7,23.1-0.1,34.5-1.5
	c-11.5-6.6-23.5-12.2-34.2-19.9c-13.4-9.6-26.3-20.3-36.7-33.2c-2.9-3.5-6.4-7-10.7-8.6C400.2,199.8,397.5,204,396.7,207.6
	 M549.7,211.8c-3.7,1.2-4.7,5.4-6.5,8.4c-8.2,15.9-20.3,29.6-34.6,40.3c1.8,1,3.7,1.7,5.8,1.3c10.5-1.2,20.6-5.2,29.7-10.6
	c7.5-4.4,13.7-11.9,14.5-20.8c0.4-5.5,0.8-11.7-2.6-16.5C554.6,212,551.9,210.6,549.7,211.8z"/>
<path class="st2" d="M135.2,101.3c11.9-1.9,24.3-3.8,36.2-1.3c2.3,0.4,4.7,0.6,7,0.7c31.6,2.1,62.3,15.7,84.7,38.1
	c22.7,22.4,36.2,53.8,36.6,85.7c0.1,18.9-2.2,37.9-8.6,55.7c-4.6,12.8-11.7,24.7-21,34.6c14.7,2.2,29.5,4.6,44.1,7.2
	c7.3,1.4,14.8,2.5,21.9,4.7c-22.8,16.9-52.4,19.9-75.9,35.5c-11.2,8.3-20.4,19-31.4,27.5c-2.1,2.2-6.6,0.8-6.7-2.3
	c0-4.4,1.5-8.7,1-13.1c-1.4-20.2-5-40.3-11.1-59.6c-5.9-18.4-14.4-36.7-28.7-50.1c13.6,6.9,26.2,15.5,38.8,24.1
	c4.9,3.4,9.7,7,14,11.1c1.8-7.1,4-14.2,6.5-21.1c3.8-10.3,3.4-21.5,3.4-32.3c-0.5-17.5-4.1-36.1-16.3-49.4
	c-11.5-12.7-28.8-18-45.4-19.6c-21.1-2-43.3-0.2-62.4,9.6c-14,7.1-25.4,19-31.8,33.3C82.3,238,81.1,258,83.1,277
	c2.6,22.9,12.1,44.6,25.7,63.1c17.7,24.4,40.8,44.1,63.9,63.1c28,22.9,57,44.8,81.5,71.5c19,20.6,35,44.7,43,71.8
	c6.2,20.3,7.8,41.9,6,63c-1.7,20.4-6.4,40.7-15.7,59c-7.6,15.2-18.6,28.7-32.3,38.8c-17.9,13.2-39.9,19.9-61.9,22.1
	c-10.5,1-21.2,1.4-31.8,0.4c-19.5-2.2-37.6-11.6-52.9-23.6c-22.4-17.7-40-40.9-53.2-66c-9.6-18.6-16.9-38.7-19.3-59.5
	c-1.2-10-0.2-20.1-0.5-30.1c-0.6-17.9,3.5-35.5,7.9-52.7c3.1-11.3,6.8-22.5,12.5-32.7c3.2-5.5,7.2-10.9,13-13.8
	c3-1.3,6.7-2.1,9.5-0.2c2.4,3.8,0.7,8.4,0.2,12.4c-2.9,19.7-5.5,40-1.5,59.8c6.3,33.7,22.6,65.8,47.1,89.9
	c15.9,15.5,36.2,27.7,58.6,29.7c10.9,0.5,22.2,0.8,32.5-3.2c13.1-4.5,23.8-14.8,29.5-27.4c7.6-16.2,7.4-34.8,4.7-52.1
	c-3.4-21-13.1-40.5-26.5-56.9c-17.5-21.4-39.8-38-62.4-53.6c-27.3-18.7-55.8-35.8-81.9-56.1c-15.3-11.9-29.8-25-42-40
	c-12.5-15.3-22.3-32.9-28-51.9c-3.9-13.2-7.5-26.5-8.7-40.3c-1.3-14.7,0.4-29.4,3.1-43.8c3.4-17.7,9.2-35.1,18.5-50.6
	c7.8-13.1,18.2-24.6,30.3-33.7C76.4,115.3,105.9,106.2,135.2,101.3z"/>
<path class="st2" d="M396.7,207.6c0.8-3.6,3.5-7.8,7.7-7.4c4.4,1.6,7.8,5,10.7,8.6c10.4,12.9,23.3,23.6,36.7,33.2
	c10.8,7.7,22.8,13.3,34.2,19.9c-11.4,1.4-23,2.2-34.5,1.5c-7.5-0.5-14.8-2.3-22-4.2c-9.5-2.5-17.6-8.5-24.2-15.6
	C397.2,233.7,393.7,220.1,396.7,207.6z"/>
<path class="st2" d="M549.7,211.8c2.3-1.2,4.9,0.1,6.3,2.1c3.4,4.8,3,11,2.6,16.5c-0.8,8.9-7,16.4-14.5,20.8
	c-9.1,5.4-19.2,9.4-29.7,10.6c-2.1,0.4-4-0.4-5.8-1.3c14.3-10.7,26.4-24.4,34.6-40.3C545,217.2,545.9,213,549.7,211.8z"/>
<path class="st2" d="M703.4,311.9c7.9-1.3,15.5-4.5,23.6-4.7c-2.6,6-6.7,11.2-10.1,16.8c-4.2,6.4-7.3,13.5-10.5,20.5
	c-8.2,18.1-15.5,36.9-19.4,56.5c-2,11.2-3.8,22.7-2.3,34.1c-7.5-11.1-12.9-23.4-17.9-35.8c-3.6-9.5-6.8-19.3-7.4-29.5
	c-10.3,8.8-17,20.9-22.5,33.1c-7.9,18.2-12.9,37.7-13.5,57.5c-0.5,14.5,2.9,28.8,5,43c5.9,32.8,22.9,61.9,38,91.1
	c8.5,16.9,17.2,34.6,17.3,53.9c-0.9,13.6-3.6,27.3-9.5,39.8c-5.1,9.4-12.4,17.6-21.5,23.3c-10.7,6.7-23.9,8.4-36.3,7
	c-12.6-1.4-24.7-6.7-34.8-14.3c-12.2-9.2-21.9-21.3-29.6-34.3c-9.3-15.7-16-32.8-20.6-50.4c-3.4-13.4-5.6-27.2-5.6-41
	c1.2-24.3,1.5-48.7,1.3-73c0-8.1-0.2-16.5-3.8-24c-2-4.3-5-9-9.9-10.1c-3.3-0.8-6.1,1.8-7.5,4.5c-3.4,6.3-4.6,13.4-5.7,20.4
	c-2.1,16.6-3.5,33.4-2.6,50.2c1.5,32.6,4.6,65.5,15,96.7c3.5,10.8,7.8,21.3,12.4,31.8c-17.9-0.3-35.8-2.4-53.6-0.4
	c-7.9,0.2-15.8,1.1-23.7,0.6c10.1-22.9,13.8-48,17.2-72.6c1.9-11.3,1.2-22.8,1.7-34.1c0.2-14.6,0.7-29.3,0.8-43.9
	c-2.4-45-6-90.7-20.7-133.7c9.9-1.6,20,0.3,30-1.1c34.6-3.9,66.4-19.6,96.6-36.1c5.1-2.1,10.1-4.1,15.2-6.2c-0.1,3.3,0,6.7-1.3,9.9
	c-6.2,15.6-14.4,30.3-18.6,46.7c-3.9,14.8-5.3,30.1-7,45.3c-1.8,14.6-2.5,29.4-2.4,44.1c2.8,31.7,7.2,63.4,16,94
	c3.8,11.9,7.9,24.2,16.2,33.8c3.6,4,9,7.6,14.7,6.3c4.8-1.7,6.1-7.4,6.8-11.9c1.5-13,1-26.2-1.2-39.1c-3-17.6-8.1-34.8-12.4-52.1
	c-5.1-20.3-9-41-9.7-62c-1.8-34.4,8.7-69.9,31.3-96.2c7.6-9,16.8-16.5,26.6-23c-7.1-3.4-14.9-4.6-22.2-7.2
	c-10.5-3.5-19-11.6-24.7-20.9c22.8,1.4,45.8,2.7,68.6,0.8C680.8,314.7,692.1,313.8,703.4,311.9z"/>
<path class="st2" d="M299.6,365.5c0.1-3.8,4.6-5.6,7.8-4.2c31.6,10.5,63.1,22.4,96.1,27.5c8.7,1.5,17.5,2.6,26.1,4.5
	c-6.9,16.5-12.2,33.6-15.4,51.2c-4.9,26.7-5.9,53.9-7.7,80.9c-1.6,23.4-1.2,46.9,1.7,70.2c4.2,32.5,11.4,64.7,22.5,95.6
	c1.5,5.2,5.3,9.8,4.7,15.4c-3.3,1.4-6.9,0.6-10.1-0.8c-4.8-2.1-9.2-5-13.8-7.4c-15.2-8.2-33-11.7-50.2-9.2
	c-13.8,1.8-27.4,4.9-40.9,8.2c-3,1.1-5.7-1.1-8.2-2.3c0-3.8,2.3-6.9,4-10c8.9-15,18.3-29.8,25.1-45.8c6.3-15.8,11.6-32.1,14.3-48.9
	c2.7-17.5,4.5-35.2,3.5-53c-1.2-24.9-3.5-49.9-8-74.4c-3.6-18.9-8.5-37.8-16.9-55.2c-6.7-13.7-15.8-26.8-28.6-35.4
	C303.2,370.6,299.2,369.1,299.6,365.5z"/>
<path class="st0" d="M113.2,768.3c5-9.1,15-14.3,25-15.3c10.5-1.2,22.1-0.7,31,5.7c9.3,7,12.5,19.4,12.2,30.5c-9.2,0-18.5,0-27.7,0
	c0-4.7,0-9.6-2.1-13.9c-2.6-5-10.8-4.2-13,0.7c-2.3,5.1-2.1,10.9-2.6,16.4c-0.1,11.1-0.1,22.2,0,33.3c0.5,5.5,0.2,11.4,2.6,16.5
	c2.3,5.2,11,5.1,13.2-0.1c2.6-5.8,2.5-12.4,2.8-18.6c-3.4,0-6.7,0-10.1,0c0-6.5,0-12.9,0-19.3c12.2,0,24.4,0,36.7,0
	c0,19.8,0,39.5,0,59.3c-6.4,0-12.9,0-19.3,0c-0.3-3.2-0.4-6.4-0.9-9.6c-1.8,6.1-8,9.5-13.9,10.4c-8.7,1.3-18.1,1.4-26.1-2.5
	c-8.5-4.5-11.8-14.3-13.2-23.3c-1.5-11.6-1.4-23.4-1.4-35.1C107,791.6,107.3,779,113.2,768.3z"/>
<path class="st0" d="M579.3,765.4c5.8-8,15.6-12,25.2-12.7c10.6-0.9,22.7,0,30.9,7.6c8,7.2,10.3,18.5,10.4,28.8
	c-9.2,0-18.4,0-27.7,0c-0.3-4.8-0.2-9.8-2.3-14.2c-2.8-4.7-10.6-3.7-12.9,1c-1.8,3.6-1.9,7.8-2.3,11.8c-0.6,10.3-0.7,20.6-0.5,30.9
	c0.6,7.6-0.2,15.5,2.5,22.8c1.7,5.6,10.3,6.3,13.2,1.4c3.2-5.9,2.7-12.9,3.3-19.3c-3.3,0-6.7,0-10,0c0-6.5,0-12.9,0-19.3
	c12.2,0,24.4,0,36.7,0c0,19.8,0,39.5,0,59.3c-6.5,0-13.1,0-19.6,0c0-3.2-0.4-6.4-0.4-9.5c-2.4,5.6-7.9,9.4-13.9,10.3
	c-9,1.4-19,1.6-27.3-2.8c-8.2-4.8-11.3-14.5-12.7-23.3c-1.6-12.5-1.2-25.1-1.2-37.6C571.4,788.4,572.2,775.6,579.3,765.4z"/>
<path class="st0" d="M220.7,754.5c12,0,23.9,0,35.9,0c8.8,36.3,17.6,72.7,26.6,109c-10.2,0-20.4,0-30.6,0c-1-6.3-1.9-12.7-2.9-19
	c-7.4,0-14.8,0-22.2,0c-0.9,6.3-2,12.7-2.8,19c-10,0-20,0.1-30.1,0C203.2,827.1,211.9,790.8,220.7,754.5 M238.6,776.6
	c-2.5,15.4-5.2,30.9-7.7,46.3c5.1-0.1,10.2,0,15.3,0C243.8,807.4,240.8,792,238.6,776.6z"/>
<path class="st0" d="M296.4,754.5c13.6,0,27.2,0,40.7,0c3.8,21.4,7.6,42.9,11.4,64.3c3.6-21.5,7.7-42.9,11.3-64.4
	c13.6,0,27.3,0,40.9,0c0,36.3,0,72.7,0,109c-9,0-18,0-27,0c0-26.7,0-53.3,0-80c-5.1,26.6-10,53.3-14.9,80c-6.9,0-13.8,0-20.7,0
	c-5-27-10-54-15.1-81c0.1,27,0,54,0,81c-8.9,0-17.8,0-26.7,0C296.4,827.2,296.4,790.8,296.4,754.5z"/>
<path class="st0" d="M421.7,754.5c9.6,0,19.1,0,28.7,0c0,36.3,0,72.7,0,109c-9.6,0-19.1,0-28.7,0
	C421.7,827.2,421.7,790.8,421.7,754.5z"/>
<path class="st0" d="M472.4,754.5c10.6,0,21.3,0,31.9,0c6,22.1,12.1,44.2,18,66.4c0.3-22.1,0-44.3,0.1-66.4c9,0,18,0,27,0
	c0,36.3,0,72.7,0,109c-10.5,0-21,0-31.5,0c-6.2-22.4-12.6-44.8-18.9-67.2c0.1,22.4,0,44.9,0,67.3c-8.9,0-17.8,0-26.7,0
	C472.4,827.2,472.4,790.8,472.4,754.5z"/>
</svg>
