<?xml version="1.0" encoding="utf-8"?>
<!-- Generator: Adobe Illustrator 21.0.0, SVG Export Plug-In . SVG Version: 6.00 Build 0)  -->
<svg version="1.1" id="Layer_1" xmlns="http://www.w3.org/2000/svg" xmlns:xlink="http://www.w3.org/1999/xlink" x="0px" y="0px"
	 viewBox="0 0 846.1 980.1" style="enable-background:new 0 0 846.1 980.1;" xml:space="preserve">
<style type="text/css">
	.st0{fill:#C8B66D;stroke:#C8B66D;stroke-width:9.375000e-02;}
</style>
<path class="st0" d="M367.7,0h74c135,0.7,270.1,8.4,404.3,23.3v220c-16.1,5.7-27.4,20.5-32.6,36.3c-5.8,16.5-5.4,34.2-5.3,51.4
	c0,58.6,0,117.3,0,175.9c-0.6,39.9,10.5,79.7,30.4,114.3c-9,31.2-25.1,60-44.2,86c-28.4,38.5-63.1,71.7-99.8,102.2
	c-37.4,30.9-77,59-117.9,85.1c-39.2,24.9-79.4,48-120.7,69.4c-10.9,5.6-21.8,11.1-32.9,16.1c-24.5-11.3-48.2-24-71.9-37
	c-63.2-35.1-124.5-74.1-181.4-118.9c-29.4-23.2-57.7-48.1-83.4-75.5c-22.2-23.8-42.4-49.5-58.1-78c-9-16.4-16.4-33.8-21.4-51.8
	c0.9,0.5,1.9,1,2.8,1.5c13.7-24.6,21.4-52.3,24.8-80.2c2.2-17.3,1.6-34.7,1.7-52.1c0-52,0-104,0-156c0.1-17.3,0.6-34.9-4.8-51.5
	C26.6,264.6,16,249.4,0,243.2V23.3c118.6-13.1,237.8-20.7,357-22.7C360.6,0.5,364.2,0.7,367.7,0 M91.7,91.1
	c-0.1,42.1,0.1,84.2,0.1,126.3c13.2,2.3,22.8,13.1,27.9,24.8c7.7,17.5,10.2,36.9,9.8,55.9c-0.1,87.7,0.1,175.4,0,263
	c-0.7,19.9-3.8,40.4-13.7,58c6.7,17.6,17.5,33.3,29,48c21.1,26.4,46,49.6,71.9,71.2c32.1,26.5,66.2,50.6,101.2,73
	c0-58.6,0-117.3-0.1-175.9c-13.6-1.7-24.2-12.2-29.9-24.2c-9.3-19.2-11.6-41-11.5-62.1c0-85.7,0-171.4,0-257.1
	c0.2-16.6,1.9-33.4,7.1-49.2c3.2-9.5,7.8-18.9,14.9-26.1c5.7-5.4,13.1-10.2,21.3-9.6c70-1.4,140.1-1.4,210.1,0.1
	c4.1,0.4,7.8,2.4,11.2,4.5c10.8,7.1,17,19.1,21,31c7.6,22.9,7.4,47.4,7.2,71.2c0,80.7,0,161.3,0,242c-0.5,19.5-3.3,39.5-12.4,57
	c-5.7,11.2-16.1,20.7-28.9,22.4c0,57.9-0.1,115.8-0.1,173.7c2.1-0.5,4.4-0.6,6.2-1.8c40-25.9,78.8-53.9,114.3-85.6
	c20.7-18.6,40.5-38.5,57.3-60.7c9.7-12.9,18.5-26.7,24.3-41.8c-12.5-22.5-14.2-48.9-13.7-74.1c0-84,0.1-168,0-252
	c-0.2-10.1,1.2-20.1,3.2-30c2.5-11.3,6.2-22.7,13.3-32.1c5.1-6.9,12.7-12.1,21.3-13.6c0-42.1,0.1-84.2,0.1-126.3
	C533.9,73.6,312.1,73.5,91.7,91.1z"/>
</svg>
