<?xml version="1.0" encoding="utf-8"?>
<!-- Generator: Adobe Illustrator 21.0.0, SVG Export Plug-In . SVG Version: 6.00 Build 0)  -->
<svg version="1.1" id="Layer_1" xmlns="http://www.w3.org/2000/svg" xmlns:xlink="http://www.w3.org/1999/xlink" x="0px" y="0px"
	 viewBox="0 0 853.1 203" style="enable-background:new 0 0 853.1 203;" xml:space="preserve">
<path d="M58.5,8.7c21.4-9.6,46.2-11.3,68.8-4.8c24.4,6.8,45.9,23.4,58.7,45.3c13.5,22.7,16.8,51.1,9.1,76.4
	c-5.4-5.6-10.7-11.3-16.1-17c4.8-21.8,2.6-45.8-8.5-65.4c0.8,7.7,2.1,15.4,1.9,23.1c-4.7,6.5-10.5,12.1-15.5,18.4
	c0.3,0.9,0.8,2.8,1,3.7c-1.2,2.1-2.4,4.3-3.5,6.4c12.4,13,26.7,24.1,39,37.1c-0.9,5.5-0.3,11.8-3.9,16.5c-2.1,3.2-4.1,6.4-6.2,9.6
	c0.1-2.3,0.5-4.6,0.3-6.8c-1.2-3.3-2.5-6.6-4-9.8c-1.7-2.8-4.1-5.1-6.3-7.6c1.3,3.7,3.4,7.1,3.7,11.1c0.6,4.3,1.4,8.6,1.7,12.9
	c-1.3,4-3.1,7.9-5.4,11.4c-4,3.9-8.6,7.3-12.8,10.9c1.3-4.8-0.1-9.5-1.2-14.2c-0.5-3.1-3.1-5.3-4.9-7.7c2.6,6.5,1.8,13.7,1.7,20.5
	c-1.9,2.8-4,5.6-6.4,7.9c-5.1,3.1-10.8,5-16.3,7.3c3-4.1,2.4-9.2,2.2-14c-1.1-2.7-2.9-5-4.5-7.4c1.6,6.1,1.5,12.7-0.8,18.5
	c-9.3,6-20,9-30.7,11.6c-10.7-2.5-21.5-5.7-30.9-11.7c-2-5.9-2.2-12.2-0.8-18.3c-1.5,2.3-3.2,4.6-4.3,7.1c-0.2,4.8-0.8,10,2.2,14.1
	c-5.5-2.4-11.4-4.3-16.5-7.5c-2.3-2.4-4.4-5-6.2-7.8c-0.2-6.9-0.9-14,1.7-20.5c-1.9,2.4-4.5,4.6-5,7.8c-1.1,4.6-2.5,9.4-1.2,14.1
	c-5.2-5.1-12.6-8.5-15.4-15.6c-1-2.2-2.2-4.4-2.8-6.7c0.9-8.2,1.6-16.6,5.5-24c-2.2,2.4-4.6,4.8-6.3,7.6c-1.4,3.2-2.8,6.4-3.9,9.6
	c-0.3,2.3,0.1,4.6,0.2,6.9c-2.6-4.3-5.7-8.4-8-12.9c-1.2-4.3-1.4-8.8-2-13.2c12.3-13.1,26.5-24.2,39-37.1c-1-2.2-2.3-4.4-3.4-6.5
	c0.3-0.9,0.7-2.8,1-3.8c-5.1-6-10.5-11.7-15.3-17.9c-0.6-8,1.1-16.1,1.8-24.1c-11.4,19.7-13.7,43.9-8.8,66
	c-5.4,5.7-10.7,11.3-16.1,17c-6.8-22.4-5-47.3,5-68.5C19,35.7,37,18.2,58.5,8.7 M40.5,28.2c1.4,7.4,3.4,14.6,5.6,21.7
	c3.7,1.7,7.5,3.1,11.2,4.6C62.8,47.9,69.5,42.2,77,38c8.9-4.9,19-8.9,29.3-6.6c14,3.7,26.7,11.9,35.8,23.1c3.8-1.4,7.5-2.9,11.2-4.5
	c2.3-7.1,4.2-14.3,5.7-21.6C142.5,12.8,119.2,7,97.1,7.6C76.7,7.9,55.6,13.9,40.5,28.2 M91.6,41.8c-14.7,4.1-27.5,14.1-36,26.7
	c2.5-0.1,6-2.6,7.8,0.2C71,78.7,78.1,89.3,86.5,98.8c0.7-3.2,1.3-6.5,1.9-9.7c1.6,0,3.2,0.1,4.8,0.1c-2.2,13.2-5,26.4-6.8,39.7
	c4.3,1.5,8.5,3.1,12.9,4.1c4.6-0.9,9.3-2.3,13.6-4.2c-2-13.3-4.5-26.4-6.8-39.6c1.6-0.1,3.2-0.1,4.8-0.1c0.6,3.3,1.2,6.5,1.9,9.7
	c7.1-8,13.2-16.8,19.6-25.4c1.6-2,2.8-4.5,5-6c2.2-0.2,4.3,0.8,6.4,1.1c-7.2-10.6-17.3-19.2-29-24.3C107.6,40.9,99.3,39.7,91.6,41.8
	 M46.1,88.4c1.1,2.3,2.3,4.5,3.2,6.9c-3.2,6.3-8.5,11.4-11.5,17.8c0.6,3.8,3.1,7,5.1,10.1c1.8,2.3,3.3,5,6,6.4
	c7.4-1.8,14.3-5.1,21.5-7.5c2.3-0.8,4.9-0.3,7.2,0.3c-2.2,0.7-4.9,0.5-6.6,2.4c-3.5,3.3-7.2,6.4-10.2,10.2c0.4,3.6,2,6.9,2.9,10.3
	c-3-0.2-5.9-0.7-8.8-1.2c2.5,2.3,4.5,5.1,7.4,6.8c3.8,1.4,7.7,2.5,11.8,3c3.6-0.7,6.8-2.6,10.3-3.5c-2.2,2.5-4.8,4.5-7.4,6.6
	c4.8-0.3,9.6-0.1,14.3-1c3-1.3,5.6-3.4,8.4-5.1c3.7,1.9,7,5.4,11.4,5.5c3.8,0.3,7.7,0.4,11.5,0.6c-2.5-2.1-5.1-4.1-7.3-6.6
	c3.7,1,7,3.1,10.8,3.5c4-0.7,8-1.7,11.7-3.2c2.6-1.9,4.6-4.3,6.9-6.5c-2.9,0.6-5.8,1-8.8,1.2c0.9-3.5,2.5-6.8,2.9-10.4
	c-3.1-3.7-6.8-6.9-10.3-10.2c-1.7-1.8-4.3-1.6-6.4-2.3c2-0.5,4.1-0.9,6.2-0.6c7.7,2.2,15,6.3,22.9,7.7c4.7-4.5,9-10.1,10.6-16.5
	c-3.1-6.2-7.9-11.3-11.4-17.3c0.3-2.6,2.1-4.9,3.1-7.3c-2.4-0.7-4.8-1.5-7.3-1.6c-2.8,2-4.7,5.1-7.2,7.5c5.7,3.9,7.7,12.3,3.6,18
	c-4.6,7-15.3,7.8-21.4,2.3c-1.4,1.6-2.8,3.3-4.1,5c0.8,5,1.6,10.1,2.2,15.2c-6.2,3.6-13,5.6-19.5,8.5c-6.5-2.9-13.5-4.8-19.4-8.8
	c0.9-5,1.5-10,2.3-14.9c-1.3-1.6-2.6-3.3-4-4.8c-6,4.9-15.8,4.8-20.7-1.5c-5-5.6-3.2-14.9,2.9-19c-2.5-2.4-4.4-5.6-7.3-7.5
	C50.8,86.9,48.5,87.7,46.1,88.4 M62.6,96.8c-1.6,2.8-2.5,6.4-0.7,9.4c2.5,4.5,8.3,5.9,13.1,4.7C70.9,106.1,66.9,101.3,62.6,96.8
	 M124.4,110.9c5,1.3,11.1-0.4,13.4-5.3c1.5-2.9,0.5-6.2-1-8.8C132.6,101.4,128.5,106.1,124.4,110.9z"/>
<path d="M228.9,47.3c-4.9-14.8-4.3-30.8-3.1-46.1c0.5-0.1,1.5-0.2,2-0.3c0.9,10.2,4,20.5,11.1,28.2c7.1,7.8,17.6,12,28.1,12.5
	c6.2,0.1,12.3,0,18.5,0c3,6.4,5.9,12.9,8.9,19.4c2.9-6.4,5.9-12.9,8.9-19.3c9.5-0.4,19.2,1.1,28.5-1.7c8.3-2.3,15.9-7.2,20.9-14.3
	c5.2-7.1,7.5-15.9,8.3-24.6c0.5,0,1.6,0,2.1,0c1,14.1,1.5,28.5-1.9,42.3c-1.8,8.1-7.7,14.7-14.1,19.7c-3.6,2.7-7.6,4.7-12,5.6
	c-0.1,24.1,0.8,48.2-0.1,72.2c-8.2,16.8-22.6,31.4-40.5,37.4c-15.6-5.2-28.1-17-36.8-30.6c-1.7-3-4.1-5.9-3.9-9.6
	c-0.3-23.1,0.1-46.3,0.2-69.4C242.9,66,233.5,57.5,228.9,47.3 M280.9,83.9c0.1,17.7-0.1,35.3,0.1,53c2.4,6.7,7.5,12.3,13.4,16.2
	c4.3-2.8,8.1-6.5,10.9-10.9c1.3-2.2,2.9-4.4,2.7-7.1c0-17.1,0-34.2,0-51.2c-4.5,2.4-9,4.7-13.5,7.1
	C289.9,88.7,285.4,86.3,280.9,83.9z"/>
<path d="M617.3,44.7c13.1-8.4,26.3-16.7,39.4-25c0.5,1.4,1,2.7,1.5,4.1c-3.5,3.9-4.5,9.2-4.4,14.3c0.1,40.7-0.1,81.3,0,122
	c0.1,4.5,0.7,9.8,4.5,12.8c1.5,1.3,4.6,0.9,4.4,3.5c-14.6,0-29.2,0-43.8,0c-0.3-2.5,2.6-2.3,4.1-3.4c3.9-2.8,4.6-7.9,4.7-12.3
	c0.1-11.5,0.1-23,0.2-34.5c-11.8-9.5-23.6-18.9-35.4-28.4c0,20.7,0,41.4,0,62.2c0.1,4.4,0.6,9.4,4.1,12.5c1.4,1.6,5,1,4.7,3.8
	c-14.6,0-29.2,0-43.8,0c-0.1-0.4-0.2-1.3-0.2-1.8c6.4-0.9,8.9-7.8,8.8-13.5c0.1-28.1,0.1-56.1,0.1-84.1c7.8-5,15.7-9.9,23.6-14.8
	c12.6,10.2,25.2,20.4,37.8,30.6c-0.2-11.2-0.1-22.4-0.2-33.6c-0.1-5.1-2.9-10.8-8.3-11.9C618.6,46.6,617.7,45.3,617.3,44.7z"/>
<path d="M404.5,24.7c12.4,7.9,24.8,15.8,37.2,23.6c-0.6,0.9-1.2,1.7-1.8,2.6c-4.1,0.5-7.1,4.2-7.3,8.3c-0.4,10.6-0.1,21.3-0.2,31.9
	c10.6-9.5,21.2-19,31.9-28.4c7.7,4.9,15.5,9.8,23.2,14.6c-10,9.3-20.1,18.6-30.1,27.9c9.5,10.4,19.1,20.7,28.6,31
	c-0.1,12.3-0.1,24.6-0.1,36.9c0,7.3,1.3,15.2,6.2,20.9c3,3.7,7.6,5.8,12.2,6.7c-11.3,1.1-23.4-0.4-33-6.9
	c-6.3-4.1-11.3-11-11.3-18.7c-0.1-8.7,0-17.4,0-26.1c0.3-1.4-1-2.2-1.8-3.1c-8.6-8.7-16.9-17.5-25.6-26.1
	c-0.5,12.8-0.1,25.6-0.2,38.4c0,4.9,0.4,10.7,4.5,14c1.5,1.4,5,0.9,4.7,3.7c-14.9,0-29.8,0-44.7,0c-0.2-2.6,2.8-2.3,4.4-3.5
	c3.9-2.7,4.8-7.8,4.9-12.2c0.1-41.3,0.1-82.6,0.1-123.9c0-2.9-1.4-5.5-3.3-7.5C403.4,27.3,404,26,404.5,24.7z"/>
<path d="M773.4,57.3c8.5-5.5,17.1-11,25.8-16.1c4.6-0.4,9.3-0.1,13.9-0.2c1.5-0.2,2.6,0.8,3.8,1.5c10.8,6.8,21.7,13.4,32.3,20.4
	c1.4,1.1,3.6,2.1,3.8,4.1c0.2,4,0,8,0.1,12c-8.7,5.5-17.5,11.1-26.2,16.6c-0.2-5.4,0.3-10.8-0.2-16.2c-6.2-4.8-13.2-8.5-19.8-12.8
	c-4.2,2.6-8.4,5.3-12.6,7.9c0,2.9,0,5.7,0,8.6c17.3,10.9,34.6,21.7,52,32.6c1.9,1.2,3.9,2.2,5.5,3.8c1.6,1.8,1.3,4.3,1.3,6.6
	c-0.1,7.7-0.1,15.4,0,23.1c0,2,0,4.6-2.2,5.7c-10.3,6.7-20.7,13.2-31,19.9c-1.1,0.9-2.4,1.1-3.8,1c-7,0-14,0-21,0
	c-1.5,0.1-2.7-1.1-4-1.7c-7-4.4-14.1-8.5-20.9-13.1c-2.1-1.1-2.3-3.6-2.2-5.7c0-13.9-0.1-27.8,0.1-41.7c8.7,5.7,17.5,11.3,26.2,17
	c0,5.1,0,10.3,0,15.4c3.6,2.1,7.1,4.5,10.8,6.4c1.5,0.8,2.9-0.2,4.2-1c4.7-3,9.3-6.1,14-9.1c0-3.5,0.1-7,0.2-10.5
	c-18.4-11.8-36.9-23.5-55.4-35.3c0.1-10.8,0-21.6,0.1-32.3C767.9,60.7,771.2,59,773.4,57.3z"/>
<path d="M723.3,43.3c1.2-0.6,2.3-1.8,3.7-1.6c7.8-0.1,15.6,0,23.3,0c0,12.9,0.1,25.8,0.1,38.7c-9,7.3-17.9,14.5-26.9,21.8
	c0-9.6,0-19.1,0-28.7c-8.5,5.4-17.1,10.8-25.6,16.2c0,16.8,0,33.5,0,50.3c-0.1,5,1.8,10.2,6.2,13c5.7,3.6,12.7,3.5,19.2,2.8
	c0.1-5.9,0.6-11.8,0.3-17.6c-0.3-4.1-1.7-8.9-5.7-10.8c-1.3-0.9-3.8-0.5-3.8-2.7c3.5-0.8,7.3-0.2,10.9-0.4
	c11.8,0.2,23.6-0.4,35.4,0.3c-0.8,2.4-3.8,2.1-5.4,3.5c-3.8,3.1-4.5,8.4-4.5,13c0,12-0.1,24,0.1,36c0.2,9.5,4.3,20.3,14,23.9
	c-8.3,0.6-17,0.2-24.4-3.8c-8.7-4.5-14.5-13.3-16.4-22.7c-7.9,0-15.8,0.1-23.7,0c-8.9-0.2-18.3-3.1-24.1-10.1
	c-2.7-3.4-5.2-7.5-5-12.1c0-25.2,0-50.4,0-75.6C688.4,65.4,705.8,54.4,723.3,43.3z"/>
<path d="M343.8,76.3c14.9,0.1,29.8,0,44.7,0.1c0.3,2.6-2.9,2.3-4.4,3.5c-4.1,2.9-4.8,8.5-4.8,13.2c0,22,0,44,0,66
	c0,4.7,0.7,10.1,4.7,13.1c1.5,1.3,4.8,0.8,4.5,3.6c-14.9,0-29.9,0-44.8,0c-0.3-2.7,3-2.3,4.5-3.6c3.8-2.8,4.7-7.8,4.7-12.2
	c0-22.3,0-44.7,0-67c0-4.7-0.7-10.2-4.8-13.2C346.6,78.7,343.3,79,343.8,76.3z"/>
<path d="M504.1,76.9c14.8,0,29.6,0,44.4,0c0.1,0.4,0.2,1.3,0.3,1.8c-6.5,0.9-9.4,7.6-9.2,13.5c-0.1,22.3,0,44.6-0.1,66.9
	c0,4.5,0.4,9.5,3.7,12.9c1.4,1.5,3.5,2,5.4,2.6c0,0.4-0.1,1.3-0.2,1.8c-14.8,0-29.6,0-44.5,0c0.1-0.4,0.2-1.3,0.3-1.7
	c6-1,9-7,8.9-12.6c0.3-20.3,0-40.7,0.1-61c-0.2-6.2,0.9-13.1-2.8-18.5c-1.4-2.2-4-3-6.3-3.9C504.2,78.2,504.2,77.4,504.1,76.9z"/>
</svg>
