<?xml version="1.0" encoding="utf-8"?>
<!-- Generator: Adobe Illustrator 23.0.4, SVG Export Plug-In . SVG Version: 6.00 Build 0)  -->
<svg version="1.1" id="Layer_1" xmlns="http://www.w3.org/2000/svg" xmlns:xlink="http://www.w3.org/1999/xlink" x="0px" y="0px"
	 viewBox="0 0 311.5 311.5" style="enable-background:new 0 0 311.5 311.5;" xml:space="preserve">
<style type="text/css">
	.st0{fill:#034244;}
	.st1{fill:#010103;}
	.st2{fill:#FE5714;}
	.st3{fill:#245A55;}
	.st4{opacity:0.3;fill:#010103;}
	.st5{fill:#716D69;}
	.st6{fill:#FFFFFF;}
</style>
<g>
	<g>
		<g>
			<path class="st0" d="M156.2,0.6c0,0-67.2,60.5-112.4,83.5c0,0,9.4,119.4,112.4,195.7c103-76.3,112.4-195.7,112.4-195.7
				C223.4,61.2,156.2,0.6,156.2,0.6z"/>
			<g>
				<path class="st1" d="M156.2,0.6c0,0-67.2,60.5-112.4,83.5c0,0,9.4,119.4,112.4,195.7c103-76.3,112.4-195.7,112.4-195.7
					C223.4,61.2,156.2,0.6,156.2,0.6L156.2,0.6z"/>
			</g>
		</g>
		<g>
			<path class="st2" d="M239.9,149.1c10-25.9,14.2-47.4,15.9-58.2c-36.2-20.4-81.4-58.4-99.5-74.2C138.1,32.4,93,70.5,56.7,90.8
				c1.7,11,6,32.9,16.1,59c8.5,21.8,19.4,42.3,32.5,60.8c14.4,20.5,31.5,38.7,50.9,54.1c19.5-15.5,36.7-33.8,51.2-54.5
				C220.5,191.6,231.4,171,239.9,149.1z"/>
		</g>
		<path class="st1" d="M156.2,26c0,0-52,51.8-86.9,71.4c0,0,7.3,102.1,86.9,167.3c79.6-65.2,86.9-167.3,86.9-167.3
			C208.1,77.8,156.2,26,156.2,26z"/>
	</g>
	<g>
		<path class="st3" d="M111.1,195.9c0,0,23.6,37.2,45.1,49.1c21.5-11.9,45.1-49.1,45.1-49.1H111.1z"/>
		<path class="st4" d="M156.2,228.6c-12.1,0-45.1-32.7-45.1-32.7s23.6,37.2,45.1,49.1c21.5-11.9,45.1-49.1,45.1-49.1
			S168.2,228.6,156.2,228.6z"/>
	</g>
	<g>
		<g>
			<g>
				<polygon class="st1" points="230.1,111.2 229.3,118.4 156.2,119.4 83,118.4 82.2,111.2 37.4,102.7 51.1,179.1 261.2,179.1 
					275,102.7 				"/>
			</g>
			<g>
				<polygon class="st1" points="162.9,173.4 149.9,173.4 149.3,119.3 163.5,119.3 				"/>
			</g>
			<g>
				<path class="st5" d="M47,112.9c4.7,0.8,7.1,1.2,11.8,1.9c1.3,8.9,2.6,17.6,3.9,26c2.6,0.2,4,0.3,6.6,0.5
					c-1.2-8.3-2.4-16.8-3.6-25.5c4.7,0.7,7,1,11.6,1.5c2.5,19.8,4.8,38.5,6.9,56.1c-4.2,0-6.3,0-10.5,0c-1-7.4-2.1-15.1-3.2-22.9
					c-2.6-0.1-3.9-0.2-6.5-0.4c1.2,8,2.4,15.7,3.5,23.3c-4.2,0-6.3,0-10.5,0C54,154.5,50.6,134.3,47,112.9z"/>
				<path class="st5" d="M83.3,125.7c7.8,0.8,15.5,1.4,23.3,2c0.2,3.1,0.4,4.7,0.6,7.7c-5.3-0.3-7.9-0.5-13.2-0.8
					c0.5,5.1,0.8,7.6,1.3,12.6c4.4,0.2,6.7,0.3,11.1,0.5c0.2,2.9,0.4,4.4,0.6,7.3c-4.4-0.1-6.6-0.2-11-0.4c0.5,4.8,0.7,7.1,1.2,11.8
					c5,0.1,7.5,0.1,12.5,0.2c0.2,2.8,0.3,4.1,0.5,6.8c-7.1,0-14.3,0-21.4,0C87.1,158.3,85.2,142.4,83.3,125.7z"/>
				<path class="st5" d="M109.9,127.9c5.2,0.3,7.7,0.5,12.9,0.7c7.9,0.4,12,3.9,12.2,10.6c0.1,2.7,0.1,4.1,0.2,6.7
					c0.1,4.1-1.8,6.6-5.9,7.7c3.9,8.1,5.9,12,9.7,19.7c-4,0-5.9,0-9.9,0c-2.9-7.2-4.3-10.9-7.3-18.5c-0.2,0-0.3,0-0.5,0
					c0.4,7.5,0.7,11.2,1.1,18.5c-3.6,0-5.5,0-9.1,0C112.2,158.9,111.1,143.8,109.9,127.9z M120.2,136c0.3,4.9,0.4,7.3,0.7,12.1
					c0.5,0,0.7,0,1.1,0c1,0,1.7,0,2-0.1c1.2-0.3,1.7-1.1,1.7-2.4c-0.1-2.7-0.2-4.1-0.3-6.8c-0.1-1.8-1.1-2.7-3-2.8
					C121.5,136.1,121,136.1,120.2,136z"/>
				<path class="st5" d="M139.5,129.2c7.7,0.2,15.4,0.3,23.1,0.2c0,3,0,4.5-0.1,7.5c-5.2,0-7.9,0-13.1,0c0.1,4.8,0.1,7.2,0.1,11.8
					c4.4,0,6.6,0,11.1,0c0,2.8,0,4.2-0.1,7c-4.4,0-6.6,0-10.9,0c0.1,4.5,0.1,6.7,0.1,11.1c5,0,7.5,0,12.5,0c0,2.7,0,4-0.1,6.6
					c-7.1,0-14.3,0-21.4,0C140.3,159.3,139.9,144.6,139.5,129.2z"/>
				<path class="st5" d="M189.7,128.7c-0.2,3.1-0.2,4.6-0.4,7.6c-3.1,0.1-4.6,0.2-7.7,0.2c-0.5,12.8-1,25.1-1.5,36.9
					c-3.6,0-5.5,0-9.1,0c0.3-11.7,0.6-24,0.9-36.7c-3.1,0.1-4.6,0.1-7.7,0.1c0-3,0.1-4.5,0.1-7.5C172.7,129.3,181.2,129,189.7,128.7
					z"/>
				<path class="st5" d="M191.4,128.5c3.9-0.2,5.9-0.3,9.8-0.5c-1.2,15.9-2.3,31-3.3,45.3c-3.6,0-5.5,0-9.1,0
					C189.7,159.1,190.5,144.2,191.4,128.5z"/>
				<path class="st5" d="M226.6,164.3c-0.8,6.5-5.1,9.7-12.9,9.7c-7.8,0-11.5-3.1-11-9.3c0.7-8.8,1.4-17.9,2.2-27.3
					c0.6-6.9,5.1-10.7,13.6-11.4c8.6-0.7,12.4,2.5,11.6,9.8c-0.3,2.8-0.5,4.2-0.8,7c-3.8,0.3-5.8,0.4-9.6,0.6
					c0.3-2.7,0.4-4.1,0.7-6.9c0.2-1.8-0.7-2.7-2.6-2.6c0,0,0,0-0.1,0c-1.9,0.1-2.9,1.1-3.1,2.9c-0.9,9.5-1.8,18.8-2.6,27.7
					c-0.2,1.7,0.7,2.5,2.5,2.5c1.8,0,2.8-0.9,3-2.5c0.3-2.5,0.4-3.8,0.7-6.4c3.7-0.1,5.6-0.2,9.4-0.3
					C227.1,160.4,226.9,161.7,226.6,164.3z"/>
				<path class="st5" d="M234.6,129.4c1.1-8.6,6.7-13.6,16.7-15.1c10.2-1.5,14.5,2.3,12.9,11.7c-0.6,3.6-0.9,5.4-1.5,8.9
					c-4.5,0.5-6.8,0.7-11.3,1.2c0.5-3.4,0.8-5.2,1.3-8.7c0.4-2.3-0.6-3.3-2.9-3.1c0,0,0,0-0.1,0c-2.2,0.3-3.5,1.6-3.8,3.9
					c-0.3,2.2-0.5,3.2-0.8,5.4c-0.3,2.4,2.1,5.2,7.3,8.3c5.5,3.3,7.7,7.8,6.8,13.1c-0.5,2.9-0.7,4.3-1.2,7.1
					c-1.4,8.1-6.6,12.1-15.6,12.1c-9,0-13.1-3.7-12.1-11.3c0.4-3,0.6-4.5,1-7.6c4.3-0.2,6.5-0.3,10.8-0.5c-0.4,3.2-0.7,4.7-1.1,7.8
					c-0.3,2,0.6,3,2.7,3c2.1,0,3.3-1.1,3.6-3.2c0.4-2.5,0.6-3.7,1-6.3c0.4-2.5-2-5.4-7.1-8.5c-5.5-3.3-8-7.6-7.4-13
					C234.1,132.6,234.3,131.5,234.6,129.4z"/>
			</g>
			<path class="st5" d="M138.9,171.1c0,0.9,0,1.4,0.1,2.3c-0.9-1.2-1.3-1.7-2.2-2.9C137.6,170.7,138.1,170.8,138.9,171.1z"/>
			<path class="st6" d="M46.5,110.1c4.7,0.8,7.1,1.2,11.8,1.9c1.4,9,2.7,17.7,4,26.2c2.7,0.2,4,0.3,6.6,0.6
				c-1.2-8.3-2.4-16.9-3.6-25.7c4.7,0.7,7,1,11.7,1.5c2.5,20,4.8,38.8,7,56.5c-4.2,0-6.3,0-10.5,0c-1.1-7.5-2.1-15.2-3.3-23.1
				c-2.6-0.2-3.9-0.2-6.5-0.4c1.2,8,2.4,15.8,3.5,23.5c-4.2,0-6.3,0-10.5,0C53.6,152,50.2,131.7,46.5,110.1z"/>
			<path class="st6" d="M83,123c7.8,0.8,15.6,1.5,23.4,2c0.3,3.1,0.4,4.7,0.6,7.8c-5.3-0.3-7.9-0.5-13.2-0.9
				c0.5,5.1,0.8,7.7,1.3,12.7c4.5,0.2,6.7,0.3,11.2,0.5c0.2,3,0.4,4.4,0.6,7.4c-4.4-0.1-6.6-0.2-11-0.4c0.5,4.8,0.7,7.2,1.2,11.9
				c5,0.1,7.5,0.1,12.5,0.2c0.2,2.8,0.3,4.2,0.6,6.9c-7.2,0-14.3,0-21.5,0C86.8,155.8,84.9,139.9,83,123z"/>
			<path class="st6" d="M109.7,125.2c5.2,0.3,7.8,0.5,13,0.7c7.9,0.4,12,3.9,12.3,10.7c0.1,2.7,0.1,4.1,0.2,6.8
				c0.1,4.1-1.8,6.7-5.9,7.8c4,8.2,5.9,12.1,9.7,19.9c-4,0-6,0-9.9,0c-2.9-7.3-4.3-11-7.3-18.7c-0.2,0-0.3,0-0.5,0
				c0.4,7.6,0.7,11.3,1.1,18.7c-3.7,0-5.5,0-9.1,0C112,156.5,110.9,141.3,109.7,125.2z M120,133.5c0.3,4.9,0.4,7.4,0.7,12.2
				c0.5,0,0.7,0,1.1,0c1,0,1.7,0,2-0.1c1.2-0.3,1.7-1.1,1.7-2.4c-0.1-2.7-0.2-4.1-0.3-6.8c-0.1-1.8-1.1-2.7-3-2.8
				C121.3,133.5,120.9,133.5,120,133.5z"/>
			<path class="st6" d="M139.4,126.5c7.7,0.2,15.4,0.3,23.2,0.2c0,3,0,4.5-0.1,7.5c-5.3,0-7.9,0-13.2,0c0.1,4.8,0.1,7.2,0.1,11.9
				c4.4,0,6.7,0,11.1,0c0,2.9,0,4.3-0.1,7.1c-4.4,0-6.6,0-11,0c0.1,4.5,0.1,6.8,0.1,11.2c5,0,7.5,0,12.5,0c0,2.7,0,4-0.1,6.7
				c-7.2,0-14.3,0-21.5,0C140.2,156.9,139.8,142.1,139.4,126.5z"/>
			<path class="st6" d="M189.8,126c-0.2,3.1-0.2,4.6-0.4,7.6c-3.1,0.1-4.6,0.2-7.7,0.3c-0.5,12.9-1.1,25.3-1.6,37.2
				c-3.7,0-5.5,0-9.1,0c0.3-11.8,0.6-24.2,1-37c-3.1,0.1-4.6,0.1-7.7,0.1c0-3,0.1-4.5,0.1-7.5C172.8,126.6,181.3,126.4,189.8,126z"
				/>
			<path class="st6" d="M191.6,125.9c3.9-0.2,5.9-0.3,9.9-0.5c-1.2,16-2.3,31.2-3.3,45.7c-3.7,0-5.5,0-9.1,0
				C189.8,156.7,190.7,141.7,191.6,125.9z"/>
			<path class="st6" d="M226.9,162c-0.8,6.5-5.1,9.8-13,9.8c-7.9,0-11.6-3.1-11.1-9.4c0.7-8.9,1.4-18.1,2.2-27.5
				c0.6-7,5.1-10.8,13.7-11.5c8.6-0.7,12.5,2.5,11.6,9.8c-0.3,2.8-0.5,4.3-0.8,7.1c-3.9,0.3-5.8,0.4-9.7,0.6
				c0.3-2.8,0.4-4.1,0.7-6.9c0.2-1.8-0.7-2.7-2.6-2.6c0,0,0,0-0.1,0c-1.9,0.1-2.9,1.1-3.1,3c-0.9,9.6-1.8,18.9-2.7,28
				c-0.2,1.7,0.7,2.5,2.5,2.5c1.8,0,2.8-0.9,3-2.6c0.3-2.6,0.4-3.9,0.7-6.5c3.8-0.1,5.6-0.2,9.4-0.3
				C227.4,158,227.2,159.4,226.9,162z"/>
			<path class="st6" d="M234.9,126.7c1.1-8.7,6.7-13.7,16.8-15.2c10.2-1.5,14.5,2.4,12.9,11.8c-0.6,3.6-0.9,5.4-1.5,9
				c-4.5,0.5-6.8,0.7-11.3,1.2c0.5-3.5,0.8-5.2,1.3-8.7c0.4-2.3-0.6-3.4-2.9-3.1c0,0,0,0-0.1,0c-2.2,0.3-3.5,1.6-3.9,3.9
				c-0.3,2.2-0.5,3.3-0.8,5.4c-0.3,2.4,2.1,5.2,7.3,8.4c5.5,3.4,7.8,7.8,6.8,13.2c-0.5,2.9-0.7,4.3-1.2,7.2
				c-1.4,8.2-6.6,12.2-15.6,12.2c-9.1,0-13.1-3.8-12.2-11.3c0.4-3,0.6-4.6,1-7.7c4.4-0.2,6.5-0.3,10.9-0.5c-0.5,3.2-0.7,4.8-1.1,7.9
				c-0.3,2.1,0.6,3.1,2.7,3c2.1,0,3.3-1.1,3.6-3.2c0.4-2.5,0.6-3.8,1-6.3c0.4-2.5-2-5.5-7.1-8.6c-5.5-3.4-8.1-7.6-7.4-13.1
				C234.5,130,234.6,128.9,234.9,126.7z"/>
		</g>
		<polygon class="st5" points="64.2,147.6 64.1,150.1 59,147.2 		"/>
		<polygon class="st5" points="96.2,152.2 96,154.6 91.1,151.9 		"/>
		<polygon class="st5" points="120.2,133.5 120.2,136.1 115.2,133.3 		"/>
		<polygon class="st5" points="150.1,134.2 149.4,136.8 144.6,134.1 		"/>
		<polygon class="st5" points="182.2,133.9 181.6,136.5 176.8,134 		"/>
	</g>
	<g>
		<path class="st1" d="M199.6,77.3c0,0-9.4-22.9-10.6-29.2c-1.2-6.3-11.5-37.5-32-37.6c-20.5-0.1-31.1,31.1-32.4,37.3
			c-1.2,6.3-10.9,29.1-10.9,29.1c-39.4,20.3-35.6,43.2-35.6,43.2l78.3,0.4l79.2,0.4C235.7,120.8,238.8,97.9,199.6,77.3z"/>
		<path class="st2" d="M153.5,70.6c0,0-8.4,0-9.2-0.5s-2-3.2-2-3.2s3.1-0.7,4.1-0.3C147.4,67,153.5,70.6,153.5,70.6z"/>
		<path class="st2" d="M159.9,70.6c0,0,8.4,0.1,9.2-0.4c0.8-0.5,2-3.2,2-3.2s-3.1-0.8-4.1-0.4C166,67.1,159.9,70.6,159.9,70.6z"/>
		<path class="st3" d="M230.8,114.9c-2.2-9.9-9.3-17.2-16.8-22.4c-0.8,0-7.2,0.2-11,5.3c0,0,0.8-4.3,7.1-7.2
			c0.2-0.1,0.3-0.1,0.5-0.2c-8.8-5.3-17.1-7.7-17.1-7.7c-3,4-9.6,11.9-16.6,15.9c0,0,12-12.9,14.8-17.6c0.5-1.2,1.3-3.5,0.5-6.7
			c-1.2-4.6-6.4-15.7-8.6-24.8c-2.2-9-13.7-32-26.7-32c-13-0.1-24.5,22.9-26.7,32c-2.2,9-7.4,20.1-8.6,24.8
			c-0.8,3.1-0.1,5.5,0.5,6.7c2.8,4.7,14.8,17.6,14.8,17.6c-7-4-13.5-11.9-16.6-15.9c0,0-8.3,2.4-17.1,7.7c0.2,0.1,0.3,0.1,0.5,0.2
			c6.3,2.9,7.1,7.2,7.1,7.2c-3.7-5.1-10.1-5.3-11-5.3c-7.5,5.2-14.7,12.5-16.8,22.4c-0.3,1.1-0.3,1.8-0.3,1.8s7.5-6.3,18.7-4.1
			c11.1,2.2,25.7,1.6,32.6-0.8s10.7-6.6,7.6-11.5c-8.6-10.7-12-19.7-12-19.7c3.9-12.4,14.7-37.5,27.5-37.5
			c12.8-0.1,23.6,25.1,27.5,37.5c0,0-3.4,9-12,19.7c-3.1,4.8,0.7,9.1,7.6,11.5s21.4,3,32.6,0.8c11.1-2.2,18.7,4.1,18.7,4.1
			S231.1,116,230.8,114.9z"/>
		<path class="st0" d="M193.5,82.6"/>
		<path class="st0" d="M197.3,84.2"/>
		<path class="st0" d="M199.6,96.5"/>
		<path class="st4" d="M164.5,17.5l-10.1-4.2l-8.8,4.1l-11,14.8L121,68.4c0,0-2,2.9,0.6,11.2s15.3,18.9,15.3,18.9l-9.6-17.6l0.1-1.2
			c12.1-36.9,28.2-46.4,28.2-46.4l0-0.1c-1.8-1.1-3.1-3.1-3.1-5.3c-0.1-2.5,1.5-4.7,3.6-5.8c1.4-0.8,2.7-0.8,3.9-0.6l0,0
			c-4-2-9.3,0-9.3,0s6.7-5.3,15.3-0.3C172.3,24.7,164.5,17.5,164.5,17.5z"/>
		<path class="st4" d="M95.4,95.8c0,0-6.2,6.9-3.6,8.1c2.6,1.2,23.7,14.2,49.5,3l3.3,0.7l-16.9,9.2l-39-0.2l-9.8,4.5l5.7-17.4
			L95.4,95.8z"/>
		<path class="st4" d="M173.6,96.9c0,0-3.7,7.2,7.2,11c11,3.8,35-1.8,40,0.2c5,2,9.6,9.2,9.6,9.2l-47-0.2l-7.9-4.5l-7-5.6
			C168.5,107,168.5,97.7,173.6,96.9z"/>
	</g>
	<g>
		<polygon class="st1" points="168.1,201.6 156.2,201.6 144.2,201.6 141.1,277.5 156.2,310.3 156.2,310.3 156.2,310.3 156.2,310.3 
			156.2,310.3 171.2,277.5 		"/>
		<polygon class="st5" points="163.6,206.3 156.2,206.3 148.7,206.3 146.8,276.8 156.2,299 165.5,276.8 		"/>
		<polygon class="st4" points="145.3,202.6 143.2,274.2 156.2,299 156.2,219.3 166,209.4 166,202.6 		"/>
		<polygon class="st1" points="155.8,201.1 147.4,201.1 147.4,206.1 155.8,214.6 164.3,206.1 164.3,201.1 		"/>
	</g>
	<g>
		<g>
			<path class="st5" d="M124.1,116.7c0,0,21.9,1.7,32,1.7v0h0h0v0c10.1,0,32-1.7,32-1.7l-1.2-3.8c0,0-22.9,0.8-30.8,0.8
				c-8,0-30.8-0.8-30.8-0.8L124.1,116.7z"/>
			<path class="st1" d="M187,112.9l1.2,3.8c0,0-21.9,1.7-32,1.7v0h0h0v0c-10.1,0-32-1.7-32-1.7l1.2-3.8c0,0,22.9,0.8,30.8,0.8
				C164.1,113.7,187,112.9,187,112.9 M188.5,110.9l-1.5,0.1c-0.2,0-22.9,0.8-30.8,0.8c-7.8,0-30.5-0.8-30.8-0.8l-1.5-0.1l-0.5,1.4
				l-1.2,3.8l-0.8,2.4l2.5,0.2c0.9,0.1,22.1,1.7,32.2,1.7c10.1,0,31.3-1.6,32.2-1.7l2.5-0.2l-0.8-2.4l-1.2-3.8L188.5,110.9
				L188.5,110.9z"/>
		</g>
		<path class="st5" d="M159.9,110.5c-0.1,0-0.2,0-0.3,0l-7.4-1.7c-0.8-0.2-1.3-1-1.1-1.8c0.2-0.8,1-1.3,1.8-1.1l7.4,1.7
			c0.8,0.2,1.3,1,1.1,1.8C161.2,110,160.5,110.5,159.9,110.5z"/>
		<path class="st5" d="M159.9,105.8c-0.1,0-0.2,0-0.3,0l-7.4-1.7c-0.8-0.2-1.3-1-1.1-1.8c0.2-0.8,1-1.3,1.8-1.1l7.4,1.7
			c0.8,0.2,1.3,1,1.1,1.8C161.2,105.3,160.5,105.8,159.9,105.8z"/>
		<path class="st5" d="M159.9,101.1c-0.1,0-0.2,0-0.3,0l-7.4-1.7c-0.8-0.2-1.3-1-1.1-1.8c0.2-0.8,1-1.3,1.8-1.1l7.4,1.7
			c0.8,0.2,1.3,1,1.1,1.8C161.2,100.6,160.5,101.1,159.9,101.1z"/>
		<path class="st5" d="M159.9,96.4c-0.1,0-0.2,0-0.3,0l-7.4-1.7c-0.8-0.2-1.3-1-1.1-1.8c0.2-0.8,1-1.3,1.8-1.1l7.4,1.7
			c0.8,0.2,1.3,1,1.1,1.8C161.2,95.9,160.5,96.4,159.9,96.4z"/>
		<path class="st5" d="M159.9,91.7c-0.1,0-0.2,0-0.3,0l-7.4-1.7c-0.8-0.2-1.3-1-1.1-1.8c0.2-0.8,1-1.3,1.8-1.1l7.4,1.7
			c0.8,0.2,1.3,1,1.1,1.8C161.2,91.2,160.5,91.7,159.9,91.7z"/>
		<path class="st5" d="M156.2,111.3l-3.4-0.8c-0.7-0.2-1.4,0.2-1.7,0.8H156.2z"/>
		<g>
			<circle class="st5" cx="156.2" cy="80.7" r="6.3"/>
			<path class="st1" d="M156.2,87.5c-3.8,0-6.8-3.1-6.8-6.8c0-3.8,3.1-6.8,6.8-6.8c3.8,0,6.8,3.1,6.8,6.8
				C163,84.4,160,87.5,156.2,87.5z M156.2,74.9c-3.2,0-5.8,2.6-5.8,5.8c0,3.2,2.6,5.8,5.8,5.8s5.8-2.6,5.8-5.8
				C162,77.5,159.4,74.9,156.2,74.9z"/>
		</g>
	</g>
	<polygon class="st1" points="167.8,191.1 156.2,191.1 144.6,191.1 144.2,201.6 156.2,205.1 168.1,201.6 	"/>
</g>
<g>
	<path class="st2" d="M105,184.2l-2-3.7h1.4l1.5,3l1.5-3h1.4l-2,3.7l2.1,3.9h-1.4l-1.6-3.1l-1.6,3.1h-1.4L105,184.2z"/>
	<path class="st2" d="M109.8,187v-5.4l1.1-1.1h3.4l1,1v1.4H114V182l-0.5-0.5h-1.9l-0.5,0.5v4.6l0.5,0.5h1.9l0.5-0.5v-1h1.3v1.4l-1,1
		h-3.4L109.8,187z"/>
	<path class="st2" d="M116.7,180.5h4.7v1H118v2.2h3.1v1H118v2.3h3.4v1h-4.7V180.5z"/>
	<path class="st2" d="M122.7,180.5h1.3v6.5h3v1.1h-4.3V180.5z"/>
	<path class="st2" d="M130.6,180.5h1.4l3,5.6v-5.6h1.2v7.6h-1.4l-3-5.7v5.7h-1.2V180.5z"/>
	<path class="st2" d="M137.5,187.1V186h1.3v0.8l0.4,0.4h2.1l0.4-0.4v-1.6l-0.3-0.3h-2.9l-0.9-0.9v-2.4l1-1h3.4l1,1v1.2h-1.3v-0.7
		l-0.4-0.4h-2l-0.4,0.4v1.5l0.3,0.3h3l0.9,0.9v2.5l-1,1h-3.5L137.5,187.1z"/>
	<path class="st2" d="M144.4,180.5h4.4l1,1v2.7l-1,1h-3.1v2.8h-1.3V180.5z M148.1,184.3l0.5-0.5V182l-0.5-0.5h-2.4v2.8H148.1z"/>
	<path class="st2" d="M150.6,187.2h1.3v-5.7h-1.3v-0.9h3.9v0.9h-1.3v5.7h1.3v0.9h-3.9V187.2z"/>
	<path class="st2" d="M155.8,180.5h4.5l1,1v2.3l-0.9,0.9l1,3.3h-1.3l-1-3.1h-2.1v3.1h-1.3V180.5z M159.5,184l0.5-0.5v-1.6l-0.5-0.5
		h-2.5v2.6H159.5z"/>
	<path class="st2" d="M162.7,180.5h4.7v1H164v2.2h3.1v1H164v2.3h3.4v1h-4.7V180.5z"/>
	<path class="st2" d="M172.9,184.2l-2-3.7h1.4l1.5,3l1.5-3h1.4l-2,3.7l2.1,3.9h-1.4l-1.6-3.1l-1.6,3.1h-1.4L172.9,184.2z"/>
	<path class="st2" d="M177.9,180.5h4.4l1,1v2.7l-1,1h-3.1v2.8h-1.3V180.5z M181.7,184.3l0.5-0.5V182l-0.5-0.5h-2.4v2.8H181.7z"/>
	<path class="st2" d="M184.6,180.5h1.3v6.5h3v1.1h-4.3V180.5z"/>
	<path class="st2" d="M189.9,187v-5.4l1.1-1.1h3.5l1.1,1.1v5.4l-1.1,1.1H191L189.9,187z M193.7,187.1l0.5-0.5V182l-0.5-0.5h-2
		l-0.5,0.5v4.6l0.5,0.5H193.7z"/>
	<path class="st2" d="M197.1,180.5h4.5l1,1v2.3l-0.9,0.9l1,3.3h-1.3l-1-3.1h-2.1v3.1h-1.3V180.5z M200.8,184l0.5-0.5v-1.6l-0.5-0.5
		h-2.5v2.6H200.8z"/>
	<path class="st2" d="M204,180.5h4.7v1h-3.4v2.2h3.1v1h-3.1v2.3h3.4v1H204V180.5z"/>
</g>
</svg>
