<?xml version="1.0" encoding="utf-8"?>
<!-- Generator: Adobe Illustrator 21.1.0, SVG Export Plug-In . SVG Version: 6.00 Build 0)  -->
<svg version="1.1" id="Layer_1" xmlns="http://www.w3.org/2000/svg" xmlns:xlink="http://www.w3.org/1999/xlink" x="0px" y="0px"
	 viewBox="0 0 224.8 150.7" style="enable-background:new 0 0 224.8 150.7;" xml:space="preserve">
<style type="text/css">
	.st0{fill:#020203;}
	.st1{fill:#203C86;}
	.st2{fill:#FFEB45;}
	.st3{fill:#FFFFFF;}
</style>
<g>
	<polygon class="st0" points="224.8,0 224.8,131.6 107.6,150.7 0,131.6 0,0 	"/>
</g>
<polygon class="st1" points="222.4,2.4 222.4,129.2 107.6,148.3 2.7,129.2 2.7,2.4 "/>
<polygon class="st2" points="203.2,107.6 203.2,110 107.6,124.3 21.5,110 21.5,107.6 "/>
<g>
	<path class="st2" d="M45.5,91.8v13.4H21.6V64.6h8.9V97h6.1v-5.1H45.5z"/>
	<path class="st2" d="M71.7,64.6v8.2h-15v3.7l-8.9,4.7V64.6H71.7z M62.8,91.9h8.9v13.3H47.8V83.7l18.3-9.3v9.3l-9.4,4.7V97h6.1V91.9
		z"/>
	<path class="st2" d="M124.3,64.6v8.2h-15v3.7l-8.9,4.7V64.6H124.3z M115.4,91.9h8.9v13.3h-23.9V83.7l18.3-9.3v9.3l-9.4,4.7V97h6.1
		V91.9z"/>
	<g>
		<path class="st3" d="M124.3,21.6v8.2h-15v3.7l-8.9,4.7V21.6H124.3z M115.4,48.9h8.9v13.3h-23.9V40.7l18.3-9.3v9.3l-9.4,4.7V54h6.1
			V48.9z"/>
	</g>
	<path class="st2" d="M89.2,76.5v-3.7H83V97h6.1v-4.1l-3.9,1.9v-9.3L98,79v26.2H74.1V64.6H98v11.9H89.2z"/>
	<path class="st2" d="M150.5,64.7v40.5h-8.2l-7.5-19.8v19.8h-8.2V64.7h0.3l0-0.1h8.7l6.7,17.9V64.7H150.5z"/>
	<path class="st2" d="M176.8,105.2h-7.7h-16.2V64.6h16.2l7.7,22.9V105.2z M161.1,97h7.5v-8.1l-5.4-16.1h-2.1V97z"/>
	<path class="st2" d="M203.2,91.1l-23.9-11.3V64.6h23.9v13.7l-8.9-3.4v-2h-6.1v2l15,7.1V91.1z M203.2,93.3v11.9h-23.9V84.4l8.9,4.1
		V97h6.1v-8L203.2,93.3z"/>
	<g>
		<path class="st3" d="M45.4,44.4v17.7h-8.2v-3.7L29.7,54v8.1h-8.2V44.4l7.7-22.9h8.6L45.4,44.4z M37.2,48.9v-3.1l-3.8-11.3L30,44.7
			L37.2,48.9z"/>
	</g>
	<g>
		<path class="st3" d="M71.7,48.7v13.4H47.8V21.5h8.9v32.3h6.1v-5.1H71.7z"/>
	</g>
	<g>
		<path class="st3" d="M82.3,36.8L98,45.4v16.7h-7.7H74.1V21.5H98l-5.6,17.2L85,34.5l1.6-4.8h-4.3V36.8z M82.3,45.3v8.6h7.5v-4.4
			L82.3,45.3z"/>
	</g>
	<g>
		<path class="st3" d="M134.9,36.8l15.7,8.6v16.7h-8.2V50.3l-7.5-4.1v16h-8.2V21.5h23.9L145,38.7l-7.4-3.9l1.7-5.1h-4.4V36.8z"/>
	</g>
	<g>
		<path class="st3" d="M176.9,29.7h-8v32.3h-8.2V29.7H153v-8.2h23.9V29.7z"/>
	</g>
	<g>
		<path class="st3" d="M203.2,44.4v17.7H195v-3.7l-7.5-4.4v8.1h-8.2V44.4l7.7-22.9h8.6L203.2,44.4z M195,48.9v-3.1l-3.8-11.3
			l-3.4,10.3L195,48.9z"/>
	</g>
</g>
</svg>
