<?xml version="1.0" encoding="utf-8"?>
<!-- Generator: Adobe Illustrator 21.0.0, SVG Export Plug-In . SVG Version: 6.00 Build 0)  -->
<svg version="1.1" id="Layer_1" xmlns="http://www.w3.org/2000/svg" xmlns:xlink="http://www.w3.org/1999/xlink" x="0px" y="0px"
	 viewBox="0 0 675.7 327.3" style="enable-background:new 0 0 675.7 327.3;" xml:space="preserve">
<style type="text/css">
	.st0{fill:#3366CC;stroke:#3366CC;stroke-width:9.375000e-02;}
</style>
<path class="st0" d="M636.2,3.9c10.4-0.8,20.6-2.6,30.9-3.8c2.5,0,5.6-0.8,7.5,1.3c2.1,2.6,0.9,6.4-1.3,8.6
	c-16.5,18.2-33,36.3-49.2,54.8c-3.7,4.3-7.3,8.8-11.9,12.2c-2.4,1.6-5.3,1.4-8,1.7C554,85.2,503.7,91.7,453.5,98
	c-3.2,0.7-5,3.7-7.2,5.9c-57.9,65.8-115.8,131.6-174,197.1c-6.5,7.7-15,14-25,16c-24.1,3-48.2,6.3-72.3,9.5
	c-1.9,0.2-3.8,0.8-5.6,0.5c-2.8-1.6-5.1-3.9-7.6-5.8c-16.3-13.7-33.3-26.6-49.5-40.4c-15-12-29.5-24.6-44.3-36.7
	c-21.8-17-42.7-35.2-64.1-52.7c-2.3-1.6-5.2-5.1-2.8-7.8c15.7-18.3,30.7-37.2,46.6-55.3c13.3-15.8,26.6-31.4,40-47.1
	c2.2-2.5,4.1-5.3,6.7-7.3c2.9-1,6-1,9-1.4c87.3-11.1,174.6-22.1,261.9-33.2c2.6-0.3,5.2-1,7.8-0.2c-20.1,23.7-41.1,46.7-61.3,70.2
	c-3.4,4.3-7.8,7.5-11.1,11.8c-16.4,18.3-32.3,37-48.9,55.2c-12.3,13.7-24.8,27.2-36.9,41c-2.3,2.7-4.9,5.2-7.6,7.5
	c6.8,5.3,13.6,10.5,20.3,15.8c1,0.7,2,1.6,3.3,1.8c6.6-3.9,12-9.6,16.3-15.8c2.1-2.9,4.5-5.5,6.9-8.1
	c53.4-60.6,106.8-121.2,160.2-181.8c1.7-1.9,3.1-4.2,5.5-5.4c4.4-1.4,9.2-1.1,13.7-2C501,21.4,568.6,12.2,636.2,3.9 M130,139.2
	c-1.7,0.1-3.3,0.9-4.3,2.3c-7.3,8.8-14.9,17.4-21.9,26.4c7.1-0.3,14.2-1.5,21.3-2.3c15.4-2,30.8-3.9,46.3-5.9c2.7-0.2,4-3,5.8-4.7
	c6.2-7.8,13.3-14.9,18.9-23.2c-1.6-0.3-3.1-0.4-4.7-0.3C170.9,134,150.5,136.6,130,139.2z"/>
<path class="st0" d="M551.1,105.2c4.6-0.6,9.8-2.1,14,0.7c-0.7,1.6-1.3,3.2-2.5,4.5c-11.6,13.7-23.7,27-35.5,40.6
	c-3.8,3.6-6.9,8.1-11.6,10.4c-4.1,2.2-8.6,3.5-13.2,4c-25,3.1-50,6.4-75,9.6c-4.1,0.7-8.2,1.3-12.3,0.7c4.4-5.9,9.5-11.1,14.3-16.6
	c12.7-14.4,25.3-28.8,38-43.1C495.3,112.4,523.2,108.7,551.1,105.2z"/>
<path class="st0" d="M465.2,200.1c4.4-0.3,8.8-1.7,13.2-0.9c1.7,0.2,3.2,2.2,1.8,3.7c-7.6,10-16.4,19-24.6,28.6
	c-6,6.6-11.6,13.6-18,19.9c-4.2,4.6-10.3,7.1-16.4,8.2c-23.8,3.1-47.7,6.1-71.6,9.2c-6.4,0.6-12.8,2-19.3,2.1
	c14.1-16.8,29-32.9,43.3-49.5c3.2-3.6,6.4-7.3,9.7-10.9C410.7,207,437.9,203.6,465.2,200.1z"/>
</svg>
