<?xml version="1.0" encoding="utf-8"?>
<!-- Generator: Adobe Illustrator 21.0.0, SVG Export Plug-In . SVG Version: 6.00 Build 0)  -->
<svg version="1.1" id="Layer_1" xmlns="http://www.w3.org/2000/svg" xmlns:xlink="http://www.w3.org/1999/xlink" x="0px" y="0px"
	 viewBox="0 0 242.624 256.205" style="enable-background:new 0 0 242.624 256.205;" xml:space="preserve">
<style type="text/css">
	.st0{fill:#6D4998;}
	.st1{fill:url(#SVGID_1_);}
	.st2{fill:url(#SVGID_2_);}
	.st3{fill:url(#SVGID_3_);}
</style>
<path class="st0" d="M49.47,36.008c19.59-16.66,45.15-26.2,70.88-26.17c18.3-0.26,36.64,4.31,52.76,12.95l0.44,0.23
	c-5.18,7.63,0,0-14.44,23.58c-0.876,1.431-1.65,2.92-2.32,4.46c-3.142-1.607-7.05-3.301-11.67-4.68
	c-4.189-1.25-8.018-1.958-11.28-2.36c-6.171-0.952-11.539-1.059-15.72-0.89c-8.286,0.335-14.445,1.856-16.31,2.34
	c-1.244,0.323-4.678,1.293-9.01,2.97c-7.49,2.9-14.68,6.82-20.82,12.04c-12.45,9.37-21.1,23.15-26.02,37.79
	c-0.054,0.636-0.957,3.781-1.236,4.329c-10.37,1.11-19.824,0.121-30.224,0.511c9.5,3.23,19.18,5.9,28.65,9.24
	c-1.28,6.09-1.19,12.42-0.13,18.53c1.42,13.1,6.36,25.77,14.05,36.45c2.55,3.62,5.75,6.71,8.55,10.13
	c-5.66,9.03-11.58,17.89-17.31,26.88c-10.14-8.8-18.71-19.41-25.06-31.24c-11.69-21.48-15.73-46.9-11.65-70.98
	C15.85,76.518,29.58,52.668,49.47,36.008z"/>
<linearGradient id="SVGID_1_" gradientUnits="userSpaceOnUse" x1="242.5203" y1="121.4673" x2="0.1003" y2="121.4673">
	<stop  offset="0" style="stop-color:#EF8E8D"/>
	<stop  offset="1" style="stop-color:#CD2C5E"/>
</linearGradient>
<path class="st1" d="M93.86,1.588c23.39-3.07,47.76-1.9,69.97,6.68c4.9,2.14,9.97,3.99,14.48,6.92c-4.984,8.162,0,0-4.76,7.83
	c-16.12-8.64-34.9-13.44-53.2-13.18c-25.73-0.03-51.29,9.51-70.88,26.17c-19.89,16.66-33.62,40.51-37.87,66.11
	c-4.08,24.08-0.04,49.5,11.65,70.98c6.35,11.83,14.92,22.44,25.06,31.24c-1.92,2.96-3.72,6-5.82,8.84
	c-9.82-8.74-18.51-18.82-24.99-30.3c-2.29-4.93-5.74-9.3-7.3-14.57c-0.49-0.98-1-1.97-1.5-2.95c-0.11-0.5-0.33-1.5-0.44-2
	c-4.55-9.84-6.25-20.73-7.68-31.39c-0.28-11.22-0.71-22.54,1.51-33.6c2.58-13.71,7.39-27.07,14.65-39.02
	c2.38-4.62,5.98-8.47,8.46-13.01c-1.45,0.58-2.89,1.17-4.36,1.7c-7.57,3.24-14.52,7.67-20.74,13.06c1.63-4.78,5.54-8.24,8.45-12.24
	c15.24-18,35.06-32.34,57.36-40.18C74.79,4.898,84.38,3.128,93.86,1.588z M199.23,41.708c2.06-1.92,0,0,6.06-5.91
	c4.31,2.94,7.18,7.61,10.59,11.52c10.53,13.98,18.95,29.91,22.76,47.08c1.01,3.25,1.68,6.59,1.94,9.99
	c1.82,9.1,1.99,18.54,1.42,27.84c-1.09,2.72-0.41,5.75-1.02,8.59c-0.77,3.84-1.47,7.69-2.35,11.51c-2.09,8.26-5.05,16.35-9,23.91
	c-3.24,7.26-7.93,13.71-12.23,20.33c7.61-2.07,14.22-6.47,20.54-11.02c1.46-1.07,2.75-2.5,4.58-2.92
	c-10.79,16.25-25.21,30.05-41.74,40.38c-8.12,5.19-17.02,8.93-25.96,12.45c-11.44,3.83-23.32,6.45-35.35,7.3
	c-9.38,0.16-18.77,0.2-28.15-0.04c-10.02-0.93-19.91-3.1-29.48-6.24c-0.98-0.5-1.95-1-2.92-1.5c-0.5-0.1-1.49-0.31-1.99-0.42
	c-9.64-3.86-18.65-9.13-27.04-15.24c2.25-2.8,4.74-5.4,7.27-7.94c21.71,15.21,48.93,22.52,75.33,19.61
	c25.17-2.47,49.3-13.99,67.12-31.91c16.28-16.12,27.36-37.43,31.09-60.04c4.1-24.25-0.14-49.85-12.03-71.4
	C213.5,58.098,206.75,49.508,199.23,41.708z"/>
<linearGradient id="SVGID_2_" gradientUnits="userSpaceOnUse" x1="232.2224" y1="136.662" x2="57.1603" y2="136.662">
	<stop  offset="0" style="stop-color:#7560A7"/>
	<stop  offset="1" style="stop-color:#673A8F"/>
</linearGradient>
<path class="st2" d="M199.23,41.708c7.52,7.8,14.27,16.39,19.44,25.93c11.89,21.55,16.13,47.15,12.03,71.4
	c-3.73,22.61-14.81,43.92-31.09,60.04c-17.82,17.92-41.95,29.44-67.12,31.91c-26.4,2.91-53.62-4.4-75.33-19.61
	c7.38-7.55,14.43-15.4,21.89-22.87c4.09,1.61,7.85,3.92,11.87,5.7c4.52,1.89,9.27,3.13,13.96,4.51c1.62,0.18,3.24,0.32,4.86,0.5
	c3.03,1.27,6.43,0.63,9.62,0.81c24.53,1.02,49.06-10.79,63.85-30.32c8.8-10.6,13.73-23.91,16.02-37.34
	c0.56-9.53,0.8-19.21-1.51-28.54c-3.43-13.53-10.263-27.252-20.363-37.032C199.23,41.708,177.248,66.302,199.23,41.708z"/>
<linearGradient id="SVGID_3_" gradientUnits="userSpaceOnUse" x1="96.6253" y1="256.0878" x2="96.6253" y2="59.4978">
	<stop  offset="0" style="stop-color:#9A7E39"/>
	<stop  offset="1" style="stop-color:#E3C577"/>
</linearGradient>
<path class="st3" d="M116.39,68.818c1.18-3.11,1.68-6.53,3.61-9.32c1.92,8.16,5.17,15.94,7.57,23.96c1.17,3.35,2.15,6.77,3.46,10.07
	c-7.06,11.36-13.8,22.91-20.74,34.34c-4.46,7.68-9.37,15.1-13.52,22.95c3.06-2.76,6.1-5.57,8.53-8.91
	c5.37-5.95,11.41-11.29,16.4-17.58c7.38-7.07,13.84-14.98,21.08-22.2c11.99,0.13,23.98-0.07,35.97,0.09
	c-1.09,2.21-3.5,3.17-5.29,4.7c-10.46,7.25-20.52,15.1-31.06,22.22c0.41,1.1,0.81,2.22,1.2,3.34c4.2,13.08,8.47,26.15,12.62,39.24
	c-0.35-0.07-1.06-0.2-1.41-0.26c-11.58-8.65-23.53-16.8-34.92-25.69c-3.56,3.65-7.41,7.04-10.48,11.12
	c-6.34,6.93-13.44,13.17-19.36,20.48c-3.67,3.71-7.27,7.49-11,11.14c-7.46,7.47-14.51,15.32-21.89,22.87
	c-2.53,2.54-5.02,5.14-7.27,7.94c-4.34,5.27-9.83,9.5-13.89,15.03c-4.92,5.13-9.98,10.14-14.95,15.23
	c-1.92,2.21-3.52,4.74-5.91,6.51c0.41-1.56,1.18-2.99,2.07-4.32c8.47-12.84,16.54-25.94,25.28-38.59c2.1-2.84,3.9-5.88,5.82-8.84
	c5.73-8.99,11.65-17.85,17.31-26.88c10-16.36,20.87-32.19,31.1-48.41c-14.38-3.84-28.44-8.85-42.71-13.09
	c-3.67-1.04-7.29-2.26-10.86-3.61c-9.47-3.34-19.15-6.01-28.65-9.24c10.4-0.39,20.86,0.5,31.23-0.61c2.2-0.31,4.44-0.33,6.67-0.31
	c17.63,0.07,35.26-0.08,52.89,0.05C109.67,91.338,112.49,79.888,116.39,68.818z"/>
</svg>
