<?xml version="1.0" encoding="utf-8"?>
<!-- Generator: Adobe Illustrator 21.0.0, SVG Export Plug-In . SVG Version: 6.00 Build 0)  -->
<svg version="1.1" id="Layer_1" xmlns="http://www.w3.org/2000/svg" xmlns:xlink="http://www.w3.org/1999/xlink" x="0px" y="0px"
	 viewBox="0 0 933.6 918.9" style="enable-background:new 0 0 933.6 918.9;" xml:space="preserve">
<style type="text/css">
	.st0{stroke:#000000;stroke-width:9.375000e-02;}
	.st1{fill:#BBBCC0;stroke:#BBBCC0;stroke-width:9.375000e-02;}
	.st2{fill:#FFFFFF;stroke:#FFFFFF;stroke-width:9.375000e-02;}
</style>
<path class="st0" d="M458,2.7c3.4-0.8,6.7-2.5,10.2-2.6c78,22,154.7,50.2,225.1,90.7c35.2,20.3,68.9,43.6,98.4,71.6
	c9.9,9.8,19.9,19.9,27.3,31.8c-4,87.6-21.3,174.4-48.8,257.6c-5.1,15.1-10.6,30.1-16.1,45c57,8.6,113.8,19.3,169.8,33
	c-0.2,51.8,0,103.6-0.1,155.5c-47,7.6-94,15.6-141,23.3c-27.3,5.6-54.5,11.4-81.7,17c12,0.2,24-1.5,36-2.3c11.6-1,23.2-2.4,34.8-3.2
	c10.6,16.1,25.6,28.5,40.6,40.5c32.8,25.2,68.2,46.7,104.2,66.9c5.5,3.3,11.4,5.9,16.7,9.4c-20.5-3.4-40.7-7.9-61-12.3
	c-41.7-9.3-83.1-20.2-123.8-33.2c-36.1-11.7-72-24.7-106.1-41.7c-0.5-12,0.1-24-0.3-36c-30.6,45.7-63.6,89.9-100.3,131
	c-17.4,19.6-35.7,38.3-55.1,55.9c-6.4,6.2-13.3,11.9-19.4,18.4c-1.9-3.4-5.3-5.5-8-8.2c-8.4-7.9-17-15.6-25.4-23.6
	c-10.8-9.8-20.6-20.8-30.6-31.4c-38.8-42.5-74.1-88.1-106.1-136c-2-2.9-3.8-6-6.1-8.7c-0.5,12.8,0.2,25.7-0.3,38.5
	c-34.5,17.3-70.9,30.3-107.6,42.2C138.6,805.9,93,817.6,47,827.5c-15.6,3.3-31.3,6.8-47,9.3c9-5.4,18.5-10.1,27.6-15.5
	c33.8-19.5,67.1-40,97.8-64.3c13.4-10.9,26.6-22.4,36.2-36.9c17.7,1.3,35.3,3.4,53,4.7c5.9,0.4,11.8,1.2,17.8,0.8
	c-22-4.5-44.1-9.1-66.1-13.7c-21.6-4.8-43.6-7.6-65.4-11.5c-30.5-5.1-60.9-10.2-91.4-15.1c-0.6-16.1-0.1-32.3-0.3-48.4
	c0-35.7-0.1-71.4,0-107.1C66,516,123.5,505,181.3,496.5c-32.1-83.3-53.4-170.8-61.9-259.7c-1.3-14.2-2.7-28.5-2.9-42.7
	c5.6-9.4,13.2-17.5,20.8-25.2c16.8-17.4,35.8-32.6,55.4-46.6c41.2-29.2,86.1-52.8,132.4-72.8C368.2,30.8,412.9,15.8,458,2.7
	 M463.4,39.7c-15.4,4.6-30.8,9.1-46.1,14.1c-53.3,17.4-105.4,39-154,66.9c-32.9,19-64.4,40.8-91.6,67.4c-7.9,8-15.9,16.1-21.7,25.7
	c-0.2,11.3,1.3,22.6,2,33.8c7.6,83.3,27.6,165.5,58.1,243.4c0.3,0.3,0.9,0.9,1.2,1.3c11.3-1.4,22.7-3,34-4
	c-30.3-77.4-49.4-159.4-53.3-242.5c3.3-6.2,8.2-11.3,12.8-16.5c9.1-9.6,18.9-18.5,29.3-26.7c24.7-19.7,51.7-36.3,79.8-50.6
	c4.6,5.5,8.9,11.3,13.1,17.2c1.8,2.6,3.5,5.4,5.8,7.6c-3.5,2.5-7.5,4.2-11.3,6.2c-14,7.4-27.7,15.4-40.9,24.2
	c-20.6,13.7-40.5,29.1-57,47.7l-0.1,0.9c5.1,78.7,24.3,156.2,53.8,229.2c28.9-2.5,57.9-5,86.9-6.3c1.9-0.1,3.8-0.3,5.7-0.6
	c6-0.5,11.9-0.6,17.9-0.8c7-9.4,13.8-19,19.6-29.2c3.1-6,7.2-12.2,7-19.2c-3.7-5.3-10.9-7.7-17.1-5.8c-5.5,1.6-11.6,4-14.5,9.4
	c-7.1,11-16.8,20.6-28.7,26.3c-13,6.3-28.2,7.2-42,3.5c1.6-3.2,4.1-5.8,5.4-9.1c2.1-5.1,1.9-11.1-0.5-16.1
	c-1.8-4.2-5.4-7.3-7.7-11.2c-5.3-8.7-8-18.8-9.6-28.8c0-1.6-1.7-2-2.8-2.8c-11.2-6.1-18.5-17.8-21.2-30c-0.2-3.6-4.5-4-6.4-6.5
	c-4.4-5.2-7.7-11.5-9.9-18c2.7-3.5,6.2-6.3,9.4-9.4c17.6-15.4,37.7-27.8,58.2-38.9c4.5-2.6,9.4-4.6,13.8-7.4
	c-4.1-3-8.4-5.8-12.6-8.7c3.5-1.8,7.4-2.2,11-3.6c11.2-3.9,22.1-8.5,33.2-12.9c12.3-5,24.8-9.5,36.8-14.9
	c-14.1,2.2-28.1,5.5-41.8,9.7c0.4-3.1,0-6.6,1.2-9.4c18.9-6.7,38.7-11.3,58.8-13c-1.6-0.6-3.3-1-5.1-1.1c-14.5-1.6-29.1-0.5-43.5,2
	c-3.8,0.6-7.6,1.7-11.5,2.1c-0.7-6.8-2.4-13.5-4.6-20c-8.6-25.1-25-46.7-43.5-65.4c12.2,0.6,24.2,3,36,6.1
	c7.7,2.5,15.9,5.1,21.9,10.8c-4,2.1-8.8,3.7-11,8c-1.9,3.6,0.1,7.8,2.6,10.6c4.3,4.5,9.5,8.2,15.1,10.8c5.6,2.6,12.2-0.8,14.4-6.2
	c5.5-12,3.4-25.5,3.2-38.2c3.4,11.1,6.9,22.6,13.8,32.2c2.7,3.6,6,7,10.3,8.5c5,1.8,10.6-0.4,14.3-3.8c3.6-4.5,6.3-9.7,8-15.2
	c1.3-3.8,1.2-8.4-1.7-11.4c-3.5-3.4-8.7-3.6-13.2-4.1c11.9-14.2,23.1-29.4,29.4-47c1.3-3.4,1.9-7,3.5-10.3
	c5,21.8,18.2,40.6,32.5,57.3c-4.5,0.4-9.7,0.5-13.1,3.9c-2.8,2.4-3,6.5-2.4,9.9c1.2,5.4,3.9,10.2,6.8,14.8c2.4,4,7.1,6.1,11.6,6.6
	c5.3,0.1,9.7-3.4,13-7.2c6.1-7.4,9.7-16.5,12.6-25.5c1-2.9,1.5-5.9,3-8.6c-0.8,12.3-2.2,25.3,2.4,37c1.8,4.8,6.5,9,11.9,8.1
	c5.9-1.1,10.7-5.2,15.3-8.8c3.4-3,7.3-7.3,5.9-12.1c-1.8-5-7.1-7-11.5-9.1c5.4-5.1,12.5-7.8,19.5-10.1c12.4-3.8,25.2-6.2,38.1-6.9
	c-9.3,10.1-17.7,21.1-24,33.4c-7.2,13.5-11.8,28.3-20.5,41c30.1,4.5,60,11.7,88.1,23.6c17.5,7.4,34.3,16.9,48.8,29.2
	c11.5,9.9,21.7,21.6,28.5,35.3c1,1.9,0.3,4,0.1,6c-2.6,17-5.7,33.9-9.5,50.7c-2.6-2.8-4.8-6-7.4-8.8c-10.5-11.3-23.6-19.8-37.3-26.6
	c-18.7-9.3-38.7-15.9-59-20.9c-5.1-1.1-10-2.6-15.3-2.9c27.4,10.5,54,24.3,75.6,44.3c14.8,13.6,27,30.2,33.9,49.1
	c0.7,1.5,0.2,3.1-0.1,4.7c-7.6,27.4-16.6,54.4-27.1,80.9c12,1.5,24.1,2.8,36.1,4.6c2-4,3.4-8.3,5-12.5
	c30.7-81.8,50.1-168,55.6-255.2c0.2-3.6,0.8-7.3,0.3-10.9c-3-5-6.7-9.5-10.5-13.8c-24.7-27.5-54.8-49.6-85.9-69.1
	c-68-41.9-143.4-70.3-220-91.9C465.8,38.9,464.6,39.4,463.4,39.7 M536.8,238.4c-9.9,9.6-21.5,17.1-32.6,25.2
	c14.8-0.1,29.2-4.4,42.6-10.2c9.5-3.9,18.2-9.4,27.2-14.1c-3.6,11.3-11.5,20.9-21,27.8c6.3,0.6,12.6-2.2,17.4-6.1
	c5.9-4.9,7.2-13.4,5.1-20.4c-0.4-1-1.1-2.3-2.4-2.1C561,238.3,548.9,238.3,536.8,238.4 M375.7,273.4c-4,1.1-8.2,3.4-9.9,7.5
	c-0.8,2.7,1.6,4.7,3.8,5.5c3.3,1.1,7.1,2.6,10.6,1.5c11-4.1,21.7-9.8,30.2-18c21.2,1.7,42.9,3.6,63.9-0.8c1.4-0.4,3-0.5,4-1.6
	c-17.5-0.3-35.1-1.2-52.3-4.5c-5.2-0.9-10.3-2.7-14.9-5.5l-0.9,0C399.3,263.7,387.8,269.3,375.7,273.4 M396.5,293.2
	c-3.8,2.3-7.6,5-9.2,9.3c8.5-1.9,16-6.9,24.6-8.4c0.1-0.3,0.3-1,0.4-1.4C407.6,289.6,401.2,290.6,396.5,293.2 M330,306.7
	c-17.2,7.2-32.7,17.9-46.9,29.9c-1.9,1.6-4,3.1-5.5,5.2c-0.4,2.2,2.1,3.1,3.7,3.8c7.6,2.8,17.2,2.6,23.1-3.5
	c1.6,1.4,2.8,3.4,2.1,5.6c-2.3,5.9-8.1,9.1-12.9,12.9c4.7,7.1,8.9,14.6,15,20.6c12.4,4.4,25.3,7.9,38.5,8.6
	c5.9,0.2,12.3-0.2,17.5-3.5c4.1-2.7,6.4-7.6,6.4-12.4c0.2-8.9-3.5-17.2-7.5-24.9c5.5-3.9,11-7.6,16.5-11.5c1-1,2.5-1.1,3.4,0.1
	c5.6,5,13.5,6.4,20.8,5.3c11.5-1.8,22-7.2,31.9-13.2c13-8.2,25.3-17.7,36.4-28.3c-4,1.8-8.2,3.3-12.6,3.8c-11.5,1.6-23.4,1-34.6-2.3
	c-7.8-0.8-15.2,2.5-22,6c-12.1,6.9-25.4,11.5-38.8,15.2c-11,2.8-22.1,5.8-33.5,6.7c3.3-2.1,7.1-3.1,10.7-4.7
	c12.3-5.4,24.2-11.5,36-17.9c1.1-0.6,2.1-1.5,3.1-2.4c-4.7,1.1-9.4,3.5-14.4,2.4c-4.2-0.6-6.9-4.1-9.2-7.3
	C347.8,300.3,338.6,303.4,330,306.7 M319.4,403.4c-2.8,4.6-4,10.5-1.3,15.5c3.3,8.4,13.4,11.2,16.5,19.7c2,3.8,0.4,7.9-1.3,11.5
	c7.3-4.1,13.7-10,17.6-17.5c3.1-6,4-12.9,3.1-19.5c-5.6,0.4-11.3,0.2-16.8-1.4C330.8,410.2,325.3,406.4,319.4,403.4 M626.3,450.8
	c5.4,10.4,10.1,21.2,13.7,32.4c4.6,0.5,9.3,1.1,13.9,1.1c-3.3-5.8-7.6-11.1-11.8-16.4C637.1,462,632.2,455.9,626.3,450.8
	 M408.6,518.2c-5.1,6-4.6,14.2-4.2,21.5c1.3,4.8,3.1,9.7,6.6,13.4c3.4,3.3,6.4,7,10.4,9.6c2.9,2.5,5.4,5.3,8.1,7.9
	c4.6,4.8,6.4,13.8,0.4,18.2c-2.9,0.2-6.4,0.3-8.4-2.3c-2.3-3.5-1-7.8-1.3-11.7c-5.1,0-10.1,0-15.2,0c2.3,4.4,0.1,9.6,2,14.2
	c1.8,5.5,5.6,11,11.5,12.5c6.7,2.6,14.4,1.4,20.9-1.4c5.3-2.6,8.2-8.4,9-14c1.8-6.2,0.2-12.7-1.9-18.6c-3.1-4.7-6.1-9.9-10.9-13.1
	c-5.6-5-12.6-9.3-15.4-16.7c0-3.7-1-8.1,1.7-11.1c2.9-2.1,7.4-2.1,10,0.5c1.8,3.4,2.6,7.1,2.4,10.9c4.5-1.6,9.2-1.2,13.9-1.2
	c0.2-5.6,0.1-11.4-2.6-16.4c-2.4-4.8-7.6-7.2-12.5-8.5C424.7,511.4,414.5,511,408.6,518.2 M466.4,511.8c-14.3,89-10.4,63.6-14.3,89
	c4.7,0.1,9.4,0,14,0c0.2-5.4,2-10.6,2.3-16c5.2,0.1,10.4-0.2,15.6,0.1c2.3,15.8,0,0,2.3,15.8c16.1,1.1,0,0,16.1,1.1
	c-13.3-88.9-9.7-66-13.3-88.9C486.7,513,471.7,511.9,466.4,511.8 M510.3,512.8c0,8-2,81-2,89c4.3,0,8.7,0,13,0
	c0.3-6.7,1.7-53.9,2.1-59.4c1.1,1.4,10.3,41.8,14.1,60.5c5-0.7,9.7,1.1,14.6,1c1.8-6.5,5.1-83.8,5.2-89c-12.7-1.2,0,0-12.7-1.2
	c-3.6,47.6,0,0-3.6,47.6c-1.7-5.6-2.4-11.4-4.1-17c-1.9-10.2-5.3-20.1-6.8-30.4C528.6,513.8,515.3,513.1,510.3,512.8 M381.3,515
	c0,2.2,3.2,47.3,3,49.2c-4.4-10.4-15.1-43.6-17.1-49.3c-18.9,2.1,0,0-18.9,2.1c0.1,3.4,5.9,84.2,6,87.8c4.3,0,8.7,0,13,0
	c-0.3-5.4-3.1-54.4-2.9-58.5c4.3,10.2,16.6,48.3,19.9,56.5c5-0.1,10,0,15,0c0-3.4-3.8-84.3-4-89C390.6,514.1,395.3,513.8,381.3,515
	 M568.5,515.8c-1.8,6.2-6.2,85.6-6.2,89c4.4,0.2,34,1.1,38.9,3.2c-0.1-4.8,1.8-9.3,1.1-14.1c-1.9-0.1-22.2-2.1-24.1-2.1
	c-0.2-3,1-19,2.2-23.9c3.5,0.1,16.7,0.9,19.8,1c1.1-14,0,0,1.1-14c-3.7-0.1-17.1-1-20.1-1c0.1-2.9,0,0,2.1-23.8
	c24.9,1.9,20.5,1.7,24.9,1.9c1.1-12.8,0,0,1.1-12.8C605,518.1,573.1,516,568.5,515.8 M322.1,519.1c2,4.8,8.1,85.2,8.2,87.7
	c5.1,0.3,10.1,0,15-1.2c-0.1-3.4-6-82.9-7.2-87.8C332.7,517.6,327.3,517.7,322.1,519.1 M243.3,641.5c-20.8,2.5-41.6,5.4-62.3,8.8
	c-24.6,3.8-48.9,8.7-73.4,13l0,0.3c33.8-3.3,67.7-6.5,101.6-8.3c27.3-1.3,54.6-2.4,81.9-1.2c39.6,63.9,85.1,124.4,137.8,178
	c12.2,12.2,25.4,23.3,37.6,35.4c11.1-10.7,22.7-20.8,33.8-31.6c7.9-7.8,15.6-15.7,23.1-23.9c44.3-48.3,83.5-101.2,118-157
	c0.7-1.5,2.4-1.1,3.7-1.2c9.3-0.4,18.7-0.3,28-0.3c35.4,0.6,70.8,2.5,106.1,5.6c13,0.8,26,2.9,39,3.4c-27.9-5.5-56-10.4-84.1-14.7
	c-41-6.1-82.3-11.3-123.9-11.7l0.5,0.4c-31.7,49.2-67.1,96.1-107.8,138.2c-11.8,12.4-25,23.3-37.1,35.3
	c-13.2-12.4-26.9-24.3-39.4-37.4c-39.8-41.6-74.6-87.7-105.7-136.1l0.5-0.3C295.2,636.1,269.2,638.6,243.3,641.5 M485.4,641.1
	c-0.3,2.1-0.2,4.3-0.2,6.4c-1.8,1.7-3.6,3.4-5.3,5.3c-2.8,0-5.6,0-8.4,0.1c-3.4,3.2-5.5,7.4-9.2,10.3c-0.3,2.8,0.7,6.1-1.5,8.2
	c-4.7,5.1-9,10.4-13.3,15.7c-3.5,3.4-5.9,8.5-10.4,10.7c-5.5,0.1-7.8,5.5-11.5,8.5c-1.6,2.1-1.7,4.9-1.1,7.3c1.8,3.2,3.9,6.2,6,9.1
	c2.5,2.5,5.7,4.3,8.4,6.5c3.1,3.1,8,2.6,12,2.4c3.3-2.7,5.6-6.4,8.5-9.5c2.6-2.6,0.7-7.1,3.4-9.7c7.2-8.7,14.8-17.2,21.9-26
	c1.1-0.1,2.3-0.2,3.4-0.3c-4.2,6.2-9.7,11.5-14.2,17.4c-1.2,1.5,0.6,3,1.3,4.2c6.5-6.4,11.8-14,18-20.8c5.4-4.8,10.4-10.8,11.2-18.3
	c1.8-5.4,2.4-10.9,2.8-16.5c-5.3-4.1-10.1-9.1-16.3-11.9C489.1,639.6,486.5,639.2,485.4,641.1z"/>
<path class="st1" d="M463.4,39.7c1.2-0.3,2.5-0.8,3.8-0.7c76.6,21.6,152,50,220,91.9c31.2,19.6,61.2,41.6,85.9,69.1
	c3.8,4.4,7.5,8.9,10.5,13.8c0.4,3.6-0.2,7.3-0.3,10.9c-5.5,87.2-24.8,173.4-55.6,255.2c-1.6,4.2-3,8.5-5,12.5
	c-12-1.8-24.1-3-36.1-4.6c10.5-26.5,19.5-53.5,27.1-80.9c0.4-1.5,0.9-3.2,0.1-4.7c-6.9-18.9-19.2-35.5-33.9-49.1
	c-21.7-20-48.3-33.8-75.6-44.3c5.2,0.2,10.2,1.8,15.3,2.9c20.3,4.9,40.3,11.5,59,20.9c13.7,6.9,26.9,15.3,37.3,26.6
	c2.7,2.8,4.8,6,7.4,8.8c3.8-16.8,6.9-33.7,9.5-50.7c0.2-2,0.8-4.1-0.1-6c-6.8-13.7-16.9-25.4-28.5-35.3
	c-14.6-12.3-31.3-21.8-48.8-29.2c-28.1-11.9-58-19.1-88.1-23.6c8.7-12.7,13.3-27.5,20.5-41c6.2-12.3,14.7-23.3,24-33.4
	c-12.9,0.8-25.8,3.2-38.1,6.9c-7,2.3-14.1,4.9-19.5,10.1c4.4,2.1,9.7,4.1,11.5,9.1c1.4,4.9-2.5,9.2-5.9,12.1
	c-4.6,3.6-9.4,7.7-15.3,8.8c-5.4,0.9-10.1-3.4-11.9-8.1c-4.6-11.8-3.2-24.7-2.4-37c-1.5,2.7-2,5.7-3,8.6
	c-2.9,9.1-6.5,18.1-12.6,25.5c-3.3,3.8-7.7,7.3-13,7.2c-4.5-0.4-9.2-2.6-11.6-6.6c-3-4.6-5.7-9.4-6.8-14.8c-0.6-3.4-0.5-7.5,2.4-9.9
	c3.5-3.4,8.6-3.5,13.1-3.9c-14.3-16.7-27.5-35.5-32.5-57.3c-1.6,3.3-2.1,6.9-3.5,10.3c-6.3,17.6-17.5,32.8-29.4,47
	c4.6,0.4,9.7,0.7,13.2,4.1c2.9,3,2.9,7.6,1.7,11.4c-1.7,5.5-4.4,10.7-8,15.2c-3.7,3.5-9.3,5.6-14.3,3.8c-4.3-1.5-7.6-4.9-10.3-8.5
	c-6.9-9.6-10.4-21-13.8-32.2c0.2,12.7,2.3,26.2-3.2,38.2c-2.2,5.4-8.8,8.8-14.4,6.2c-5.6-2.6-10.9-6.3-15.1-10.8
	c-2.5-2.8-4.5-6.9-2.6-10.6c2.2-4.3,7-5.9,11-8c-6-5.7-14.1-8.3-21.9-10.8c-11.8-3.2-23.8-5.5-36-6.1c18.5,18.7,34.9,40.3,43.5,65.4
	c2.2,6.5,3.9,13.2,4.6,20c3.9-0.4,7.6-1.4,11.5-2.1c14.3-2.5,29-3.6,43.5-2c1.7,0.1,3.4,0.6,5.1,1.1c-20.1,1.7-39.8,6.3-58.8,13
	c-1.3,2.9-0.8,6.3-1.2,9.4c13.7-4.2,27.7-7.5,41.8-9.7c-12.1,5.4-24.6,9.9-36.8,14.9c-11,4.3-22,8.9-33.2,12.9
	c-3.6,1.3-7.5,1.8-11,3.6c4.2,2.9,8.4,5.7,12.6,8.7c-4.4,2.8-9.2,4.9-13.8,7.4c-20.6,11.1-40.6,23.5-58.2,38.9
	c-3.2,3.1-6.7,5.9-9.4,9.4c2.2,6.5,5.5,12.7,9.9,18c1.9,2.5,6.1,2.9,6.4,6.5c2.7,12.2,10,23.9,21.2,30c1.1,0.8,2.8,1.2,2.8,2.8
	c1.6,10,4.3,20,9.6,28.8c2.3,3.9,5.9,7,7.7,11.2c2.4,5,2.6,11,0.5,16.1c-1.2,3.4-3.8,6-5.4,9.1c13.8,3.7,29.1,2.7,42-3.5
	c11.9-5.7,21.6-15.3,28.7-26.3c2.9-5.3,9-7.8,14.5-9.4c6.2-1.9,13.4,0.5,17.1,5.8c0.2,7-3.9,13.2-7,19.2
	c-5.8,10.2-12.6,19.8-19.6,29.2c-6,0.2-12,0.3-17.9,0.8c3.7-5.7,8.3-10.7,12.1-16.3c4.9-6.7,8.8-13.9,13-21c1.1-1.9,1.7-4,2.2-6.1
	c-1.6,0.4-3.5,0.3-4.8,1.5c-4.9,4.1-8.7,9.3-13,14c-13.5,12.7-30.7,22-49.4,23.8c-11.4,1.7-23,0.1-34-3c5.7-5.2,10.4-12.1,10.9-20.1
	c0.4-6.3-0.2-13.4-4.5-18.3c-3.4-4.2-6.5-8.8-8-14c-1.7-5.2-1.3-10.7-1.5-16.1c-10.6-3.7-18.3-12.8-22.3-23.1c-1.6-3.9-2.6-8-3.8-12
	c-9.8-4-15.4-14-18.7-23.5c-0.6-2.3-1.8-5-0.2-7.1c3-4.6,7-8.5,11.3-11.8c8-6.8,16.6-12.8,25.3-18.7c13.1-8.2,26.1-16.6,39.9-23.7
	c-1.3-4.9-6.8-6.5-9.5-10.4c13.4-4.9,27.2-8.8,40.6-13.9c1.4-6.3,3-12.7,2.3-19.2c-1.6-18.4-8.7-36-18.1-51.8
	c-2.1-3.6-3.9-7.5-7-10.4c-2.4-2.2-4-5-5.8-7.6c-4.1-5.9-8.4-11.7-13.1-17.2c-28.1,14.3-55.1,31-79.8,50.6
	c-10.4,8.2-20.2,17.1-29.3,26.7c-4.6,5.2-9.6,10.3-12.8,16.5c3.9,83.1,23,165.1,53.3,242.5c-11.4,1.1-22.7,2.6-34,4
	c-0.3-0.3-0.9-0.9-1.2-1.3c-30.5-77.9-50.5-160-58.1-243.4c-0.8-11.3-2.3-22.6-2-33.8c5.9-9.6,13.9-17.8,21.7-25.7
	c27.2-26.6,58.8-48.4,91.6-67.4c48.6-28,100.8-49.5,154-66.9C432.6,48.9,448,44.4,463.4,39.7 M337.8,140.3c-0.7,0.6-2.9,0.8-2.2,2.1
	c13.2,2.4,26.2,6.5,37.7,13.4c1.2,0.5,2.5,1.9,3.9,1.1c-1.1,0.8-1,2.2,0.3,2.8c3.3,2.7,7.2,4.6,9.5,8.2c-4,1.8-8.8,2.5-12.1,5.6
	c-1.5,1.3-1.7,3.7-0.5,5.3c2.6,4.1,7.3,6.7,11.9,7.8c3.4,0.4,4.7-3.3,6-5.6c4.4-10.1,4.2-21.3,5.7-32c-0.3,0.1-1,0.3-1.3,0.4
	c0.5-8.1-0.2-16.3-0.1-24.4c2.6,7.2,4.9,14.5,8.6,21.2c-1.4,1.3,0,3,0.5,4.4c6.1,11,12.2,22.7,22.8,30.1c2.4,1.8,5.5,2.1,8.4,2.2
	c2.4-3.4,5.5-7.6,3.4-11.9c-4.1-7.5-13.6-8.3-21-10.1c6.8-6.2,12.4-13.5,17.4-21.2c0.8-1.4,1.3-3.1,1.7-4.6
	c7.3-12.1,13.8-24.8,18.9-38C416.5,108.2,376.4,122.6,337.8,140.3 M473.8,96.7c4.5,11.8,10.3,23.1,16.5,34.1
	c0.6,1.3,1.6,2.4,3.1,2.7c-0.6,0-1.7,0.1-2.3,0.1c3.1,5.8,7.1,11.1,10.9,16.4c2.7,3.9,6.5,6.8,9.3,10.7c-7.1,1.7-15.3,3-20.1,9.2
	c-2.1,4.3-0.3,9.1,2.4,12.7c3.2,0.2,6.7,0.2,9.4-1.9c8.1-5.6,13.8-13.9,18.4-22.5c2.3-4.3,4.9-8.5,6.6-13.1l-0.9-0.3
	c2.7-6.3,5-12.7,7.6-19c-0.3,7.2-0.3,14.3-0.5,21.5l-0.8-0.3c0.9,12,0.8,24.6,6.3,35.6c1,1.7,2.1,4.4,4.6,4.1
	c4.2-0.4,8-2.8,11.1-5.6c2.1-1.6,2-4.5,1.4-6.8c-3.1-3.6-8.1-4.3-12.3-6.3c3.2-4.2,8-6.6,12.1-9.8c0.8-0.9,0.7-1.6-0.3-2.3
	c0.4,0.1,1.3,0.2,1.8,0.2c12.3-6.7,25.6-11.3,39.4-13.7c-3.8-2.7-8.4-4.1-12.5-6.1c-23.4-10.4-47.3-19.6-71.7-27.6
	C500.2,104.4,487.1,100,473.8,96.7 M608.4,168c-1.8,3.1-4.6,5.9-5.1,9.5c-0.5-0.2-1.3-0.6-1.8-0.8c-6.3,9.5-11.1,19.9-16.2,30
	c-0.8,1.5-0.9,3.2-1.1,4.9c9.8,1.8,19.8,2.5,29.5,4.7c22.1,4.1,43.7,10.4,64.7,18.2c3.7,1.2,7.3,3.5,11.4,3.1l-0.5-1
	c4,3.4,9.4,4.5,14,6.9c12.2,5.3,23.7,12,35.5,18.2c-0.1-5.6,1.5-11.4,0.5-16.9c-6.8-10.7-16-19.4-25.1-28.1
	c-16.9-15.4-35.4-29-54.8-41.2c-13-8.1-26.3-16-40.1-22.7C615.1,157.4,612.1,163,608.4,168z"/>
<path class="st0" d="M337.8,140.3c38.6-17.7,78.7-32.1,119.6-43.5c-5.1,13.2-11.7,25.9-18.9,38c-11.2,3.3-22.3,7.1-33.2,11.2
	c-3.7-6.7-6-14-8.6-21.2c-0.1,8.1,0.6,16.3,0.1,24.4c-6.7,2.1-13.1,5-19.6,7.6c-1.4,0.8-2.7-0.6-3.9-1.1
	c-11.5-6.9-24.5-11-37.7-13.4C334.9,141.1,337.1,140.9,337.8,140.3z"/>
<path class="st0" d="M473.8,96.7c13.3,3.3,26.3,7.7,39.4,11.9c24.3,8,48.3,17.2,71.7,27.6c4.2,2.1,8.7,3.5,12.5,6.1
	c-13.8,2.3-27.1,6.9-39.4,13.7c-0.4-0.1-1.3-0.2-1.8-0.2c-7.3-3-14.6-5.9-22-8.6c0.3-7.2,0.3-14.3,0.5-21.5
	c-2.6,6.3-4.9,12.7-7.6,19c-11.2-3.9-22.4-7.9-33.8-11.2c-1.5-0.4-2.5-1.4-3.1-2.7C484.1,119.8,478.4,108.5,473.8,96.7z"/>
<path class="st2" d="M491.2,133.6c0.6,0,1.7-0.1,2.3-0.1c11.4,3.3,22.6,7.2,33.8,11.2l0.9,0.3c-1.6,4.6-4.3,8.8-6.6,13.1
	c-4.5,8.6-10.3,16.9-18.4,22.5c-2.7,2.1-6.2,2.1-9.4,1.9c-2.7-3.5-4.5-8.4-2.4-12.7c4.8-6.1,13-7.4,20.1-9.2
	c-2.8-3.8-6.6-6.7-9.3-10.7C498.3,144.7,494.3,139.4,491.2,133.6z"/>
<path class="st2" d="M405.3,146c10.9-4.1,22-7.9,33.2-11.2c-0.5,1.6-0.9,3.2-1.7,4.6c-5,7.7-10.6,14.9-17.4,21.2
	c7.5,1.8,16.9,2.6,21,10.1c2,4.3-1,8.6-3.4,11.9c-2.9-0.1-5.9-0.4-8.4-2.2c-10.6-7.4-16.7-19.1-22.8-30.1
	C405.3,149,403.9,147.2,405.3,146z"/>
<path class="st2" d="M533.5,146.9l0.8,0.3c7.4,2.7,14.7,5.6,22,8.6c1.1,0.7,1.2,1.5,0.3,2.3c-4.1,3.2-8.9,5.6-12.1,9.8
	c4.1,1.9,9.1,2.7,12.3,6.3c0.6,2.3,0.7,5.2-1.4,6.8c-3.1,2.8-6.9,5.2-11.1,5.6c-2.5,0.3-3.5-2.4-4.6-4.1
	C534.2,171.5,534.3,158.8,533.5,146.9z"/>
<path class="st2" d="M396.8,149.2c0.3-0.1,1-0.3,1.3-0.4c-1.5,10.7-1.3,21.9-5.7,32c-1.3,2.3-2.6,6.1-6,5.6
	c-4.6-1.1-9.3-3.7-11.9-7.8c-1.2-1.6-1.1-4,0.5-5.3c3.3-3.1,8-3.8,12.1-5.6c-2.4-3.6-6.3-5.6-9.5-8.2c-1.3-0.6-1.3-2-0.3-2.8
	C383.7,154.2,390.1,151.3,396.8,149.2z"/>
<path class="st0" d="M608.4,168c3.6-5,6.7-10.5,10.9-15.1c13.8,6.7,27.1,14.6,40.1,22.7c19.3,12.2,37.9,25.8,54.8,41.2
	c9.1,8.7,18.4,17.5,25.1,28.1c1,5.5-0.6,11.3-0.5,16.9c-11.8-6.1-23.3-12.9-35.5-18.2c-4.6-2.5-10-3.6-14-6.9
	c-14.2-13.8-30.1-25.6-46.6-36.5c-12.8-8.2-25.8-16.1-39.5-22.8C603.8,173.8,606.6,171.1,608.4,168z"/>
<path class="st2" d="M332.8,176.8c3.1,2.9,5,6.8,7,10.4c9.4,15.8,16.5,33.3,18.1,51.8c0.7,6.5-0.9,12.9-2.3,19.2
	c-13.4,5.1-27.2,9-40.6,13.9c2.7,3.9,8.2,5.5,9.5,10.4c-13.8,7.1-26.8,15.5-39.9,23.7c-8.7,5.9-17.3,11.9-25.3,18.7
	c-4.3,3.4-8.3,7.2-11.3,11.8c-1.6,2.1-0.4,4.9,0.2,7.1c3.3,9.6,8.8,19.5,18.7,23.5c1.2,4,2.3,8.1,3.8,12c4,10.3,11.7,19.4,22.3,23.1
	c0.2,5.4-0.2,10.9,1.5,16.1c1.5,5.3,4.6,9.9,8,14c4.4,5,4.9,12,4.5,18.3c-0.5,7.9-5.1,14.9-10.9,20.1c11,3.1,22.6,4.7,34,3
	c18.6-1.8,35.9-11,49.4-23.8c4.3-4.7,8.1-9.9,13-14c1.3-1.2,3.1-1.1,4.8-1.5c-0.5,2.1-1.1,4.2-2.2,6.1c-4.2,7.1-8.1,14.4-13,21
	c-3.8,5.6-8.4,10.7-12.1,16.3c-1.9,0.3-3.8,0.5-5.7,0.6c-29,1.3-58,3.8-86.9,6.3c-29.6-73-48.7-150.5-53.8-229.2l0.1-0.9
	c16.5-18.6,36.3-33.9,57-47.7c13.2-8.8,26.9-16.8,40.9-24.2C325.3,181,329.3,179.3,332.8,176.8z"/>
<path class="st2" d="M601.5,176.7c0.5,0.2,1.3,0.6,1.8,0.8c13.7,6.6,26.7,14.6,39.5,22.8c16.5,10.8,32.4,22.7,46.6,36.5l0.5,1
	c-4.1,0.4-7.7-1.9-11.4-3.1c-21-7.8-42.7-14.2-64.7-18.2c-9.7-2.2-19.7-2.9-29.5-4.7c0.2-1.7,0.3-3.4,1.1-4.9
	C590.4,196.6,595.2,186.3,601.5,176.7z"/>
<path class="st1" d="M536.8,238.4c12.1,0,24.2,0,36.2,0c1.3-0.2,2,1.1,2.4,2.1c2.2,7,0.8,15.5-5.1,20.4c-4.8,3.9-11.1,6.7-17.4,6.1
	c9.5-6.9,17.5-16.5,21-27.8c-9,4.8-17.7,10.3-27.2,14.1c-13.5,5.8-27.9,10.1-42.6,10.2C515.3,255.5,526.9,247.9,536.8,238.4z"/>
<path class="st1" d="M375.7,273.4c12.1-4.1,23.6-9.7,34.6-16.1l0.9,0c4.5,2.8,9.6,4.6,14.9,5.5c17.2,3.3,34.8,4.2,52.3,4.5
	c-1,1.2-2.6,1.3-4,1.6c-21,4.4-42.7,2.5-63.9,0.8c-8.5,8.2-19.2,13.9-30.2,18c-3.5,1.1-7.2-0.4-10.6-1.5c-2.2-0.8-4.7-2.8-3.8-5.5
	C367.5,276.8,371.7,274.5,375.7,273.4z"/>
<path class="st2" d="M396.5,293.2c4.7-2.6,11.1-3.6,15.8-0.4c-0.1,0.3-0.3,1-0.4,1.4c-8.6,1.5-16.1,6.4-24.6,8.4
	C388.8,298.2,392.7,295.4,396.5,293.2z"/>
<path class="st1" d="M330,306.7c8.6-3.3,17.8-6.4,27-5.9c2.3,3.3,5,6.7,9.2,7.3c5,1.1,9.7-1.3,14.4-2.4c-0.9,0.9-1.9,1.8-3.1,2.4
	c-11.7,6.5-23.7,12.5-36,17.9c-3.5,1.6-7.4,2.6-10.7,4.7c11.4-1,22.5-3.9,33.5-6.7c13.4-3.7,26.7-8.3,38.8-15.2
	c6.8-3.5,14.2-6.8,22-6c11.2,3.3,23.1,4,34.6,2.3c4.4-0.6,8.6-2.1,12.6-3.8c-11.1,10.7-23.4,20.1-36.4,28.3
	c-9.8,6-20.4,11.3-31.9,13.2c-7.3,1.2-15.2-0.3-20.8-5.3c-0.9-1.2-2.4-1.1-3.4-0.1c-5.5,3.8-11,7.6-16.5,11.5
	c4.1,7.7,7.7,16,7.5,24.9c0,4.9-2.3,9.7-6.4,12.4c-5.1,3.4-11.5,3.8-17.5,3.5c-13.2-0.7-26.1-4.1-38.5-8.6c-6.1-6-10.3-13.6-15-20.6
	c4.7-3.7,10.6-7,12.9-12.9c0.8-2.2-0.4-4.2-2.1-5.6c-6,6.1-15.5,6.3-23.1,3.5c-1.6-0.7-4.1-1.6-3.7-3.8c1.4-2.1,3.6-3.5,5.5-5.2
	C297.3,324.7,312.8,313.9,330,306.7z"/>
<path class="st1" d="M319.4,403.4c5.9,3,11.4,6.8,17.9,8.3c5.4,1.6,11.1,1.8,16.8,1.4c0.9,6.6,0,13.5-3.1,19.5
	c-3.9,7.5-10.3,13.4-17.6,17.5c1.7-3.6,3.3-7.7,1.3-11.5c-3.1-8.5-13.2-11.3-16.5-19.7C315.5,413.9,316.6,408,319.4,403.4z"/>
<path class="st1" d="M626.3,450.8c5.9,5.1,10.8,11.2,15.8,17.1c4.2,5.3,8.4,10.5,11.8,16.4c-4.7,0-9.3-0.6-13.9-1.1
	C636.3,472,631.6,461.3,626.3,450.8z"/>
<path class="st2" d="M408.6,518.2c5.9-7.2,16.1-6.7,24.5-6.3c4.9,1.3,10.1,3.7,12.5,8.5c2.8,5,2.9,10.8,2.6,16.4
	c-4.7,0-9.4-0.4-13.9,1.2c0.2-3.8-0.6-7.6-2.4-10.9c-2.6-2.6-7-2.6-10-0.5c-2.7,3.1-1.7,7.4-1.7,11.1c2.7,7.4,9.7,11.7,15.4,16.7
	c4.9,3.1,7.8,8.4,10.9,13.1c2.1,5.9,3.7,12.4,1.9,18.6c-0.8,5.6-3.8,11.4-9,14c-6.4,2.9-14.2,4.1-20.9,1.4c-5.9-1.5-9.7-7-11.5-12.5
	c-1.9-4.5,0.4-9.7-2-14.2c5.1,0,10.1,0,15.2,0c0.3,3.9-1,8.2,1.3,11.7c2,2.5,5.5,2.4,8.4,2.3c6-4.5,4.1-13.4-0.4-18.2
	c-2.7-2.6-5.2-5.5-8.1-7.9c-4-2.6-7-6.3-10.4-9.6c-3.6-3.7-5.3-8.6-6.6-13.4C404,532.3,403.6,524.1,408.6,518.2z"/>
<path class="st2" d="M466.4,511.8c5.3,0.1,20.3,1.2,22.7,1.1c3.6,22.9,11.4,82.4,13.3,88.9c-16.1-1.1-10.8-0.5-16.1-1.1
	c0-3-0.1-14.3-2.3-15.8c-5.2-0.3-10.4,0-15.6-0.1c-0.3,5.4-2,10.6-2.3,16c-4.7,0-9.4,0-14,0C456,575.4,466.3,516.2,466.4,511.8
	 M470.1,572.8c4.1,0,8.1,0,12.2,0c-0.7-13.7-4.2-27.3-5.1-41C477.2,531.8,471.6,569.6,470.1,572.8z"/>
<path class="st2" d="M510.3,512.8c5.1,0.3,18.3,1,19.8,1c10.8,47.4,0,0,10.8,47.4c3.6-47.6,0,0,3.6-47.6c12.7,1.2,0,0,12.7,1.2
	c-0.1,5.3-3.4,82.5-5.2,89c-14.6-1,0,0-14.6-1c-3.8-18.6,0,0-14.1-60.5c-0.4,5.5-1.8,52.8-2.1,59.4c-4.3,0-8.7,0-13,0
	C508.3,593.8,510.3,520.8,510.3,512.8z"/>
<path class="st2" d="M381.3,515c14-1.2,9.3-0.9,14-1.2c0.2,4.7,4,85.6,4,89c-5,0-10,0-15,0c-3.4-8.3-15.6-46.3-19.9-56.5
	c-0.2,4.1,2.6,53.1,2.9,58.5c-4.3,0-8.7,0-13,0c-0.1-3.5-5.9-84.4-6-87.8c18.9-2.1,0,0,18.9-2.1c2,5.7,12.6,38.9,17.1,49.3
	C384.5,562.3,381.3,517.2,381.3,515"/>
<path class="st2" d="M568.5,515.8c4.7,0.2,36.5,2.3,40.8,3.2c-1.1,12.8,0,0-1.1,12.8c-4.4-0.2,0,0-24.9-1.9c-2.1,23.8-2,21-2.1,23.8
	c3.1,0,16.5,0.9,20.1,1c-1.1,14,0,0-1.1,14c-3.1-0.1-16.4-0.9-19.8-1c-1.2,4.9-2.4,20.9-2.2,23.9c1.9,0.1,22.2,2,24.1,2.1
	c0.6,4.8-1.3,9.3-1.1,14.1c-4.8-2.1-34.5-3-38.9-3.2C562.3,601.4,566.7,522,568.5,515.8z"/>
<path class="st2" d="M322.1,519.1c5.2-1.4,10.6-1.5,16-1.3c7.2,87.8,7.1,84.4,7.2,87.8c-4.9,1.2-9.9,1.5-15,1.2
	C330.2,604.3,330.3,606.8,322.1,519.1z"/>
<path class="st0" d="M477.2,531.8c5.1,41,0,0,5.1,41c-4.1,0-8.1,0-12.2,0C477.2,531.8,477.2,531.8,477.2,531.8z"/>
<path class="st1" d="M243.3,641.5c25.9-2.9,51.9-5.4,78-5.4l-0.5,0.3c-0.8,0.5-1.7,1.1-2.5,1.7c7.3,15.7,16.2,30.7,25,45.7
	c18.8,31.1,39.8,61,63.1,88.9c13,15.6,26.6,30.7,41.4,44.6c6,5,11.2,10.9,17.4,15.6c12.3-11.4,24.9-22.6,36.3-35
	c40-43.3,74.1-92,102.2-143.8c2.8-5.5,6.2-10.8,8.3-16.7c-0.3-0.2-0.8-0.7-1.1-1l-0.5-0.4c41.5,0.5,82.9,5.6,123.9,11.7
	c28.1,4.3,56.2,9.3,84.1,14.7c-13-0.5-26-2.6-39-3.4c-35.3-3-70.7-5-106.1-5.6c-9.3,0-18.7-0.1-28,0.3c-1.3,0.1-3-0.3-3.7,1.2
	c-34.5,55.8-73.7,108.6-118,157c-7.5,8.1-15.2,16.1-23.1,23.9c-11.1,10.7-22.7,20.8-33.8,31.6c-12.3-12.1-25.4-23.3-37.6-35.4
	c-52.8-53.6-98.2-114.1-137.8-178c-27.3-1.2-54.6-0.1-81.9,1.2c-33.9,1.7-67.8,4.9-101.6,8.3l0-0.3c24.5-4.3,48.9-9.2,73.4-13
	C201.7,646.9,222.5,644,243.3,641.5z"/>
<path class="st2" d="M318.3,638.1c0.8-0.6,1.7-1.1,2.5-1.7c31.1,48.4,65.9,94.5,105.7,136.1c12.5,13.1,26.2,25,39.4,37.4
	c12.1-12.1,25.4-22.9,37.1-35.3c40.7-42.1,76.1-89,107.8-138.2c0.3,0.2,0.8,0.7,1.1,1c-2.1,5.9-5.5,11.2-8.3,16.7
	c-28.1,51.8-62.2,100.5-102.2,143.8c-11.4,12.4-23.9,23.6-36.3,35c-6.2-4.8-11.4-10.6-17.4-15.6c-14.8-13.9-28.4-29-41.4-44.6
	c-23.3-27.9-44.4-57.8-63.1-88.9C334.5,668.8,325.6,653.9,318.3,638.1z"/>
<path class="st2" d="M485.4,641.1c1.1-1.9,3.7-1.5,5.5-1c6.2,2.8,11,7.8,16.3,11.9c-0.3,5.6-1,11.2-2.8,16.5
	c-0.7,7.5-5.8,13.5-11.2,18.3c-6.2,6.8-11.5,14.3-18,20.8c-0.8-1.2-2.5-2.7-1.3-4.2c4.6-5.9,10-11.2,14.2-17.4
	c-1.1,0.1-2.3,0.2-3.4,0.3c-7.1,8.8-14.7,17.2-21.9,26c-2.7,2.6-0.8,7.1-3.4,9.7c-2.9,3.1-5.2,6.8-8.5,9.5c-4,0.2-8.9,0.8-12-2.4
	c-2.7-2.3-5.9-4.1-8.4-6.5c-2.1-3-4.2-6-6-9.1c-0.6-2.4-0.5-5.2,1.1-7.3c3.8-2.9,6.1-8.4,11.5-8.5c4.5-2.2,6.9-7.2,10.4-10.7
	c4.3-5.3,8.6-10.6,13.3-15.7c2.3-2.1,1.3-5.4,1.5-8.2c3.7-2.9,5.8-7.1,9.2-10.3c2.8,0,5.6,0,8.4-0.1c1.7-1.8,3.4-3.6,5.3-5.3
	C485.3,645.4,485.1,643.2,485.4,641.1z"/>
</svg>
