<?xml version="1.0" encoding="utf-8"?>
<!-- Generator: Adobe Illustrator 21.0.0, SVG Export Plug-In . SVG Version: 6.00 Build 0)  -->
<svg version="1.1" id="Layer_1" xmlns="http://www.w3.org/2000/svg" xmlns:xlink="http://www.w3.org/1999/xlink" x="0px" y="0px"
	 viewBox="0 0 83.3 99.9" style="enable-background:new 0 0 83.3 99.9;" xml:space="preserve">
<style type="text/css">
	.st0{fill:#EE2722;stroke:#EE2722;stroke-width:9.375000e-02;}
	.st1{stroke:#000000;stroke-width:9.375000e-02;}
</style>
<path class="st0" d="M53.3,7.6c3.6-3.9,8.4-7.5,14-7.4c4.4,0.4,8.9,2,11.7,5.6c5.3,6,5.3,15.1,2.1,22.2c-3.1,6.5-8.4,11.6-13.7,16.4
	c-3.9,3.6-8.7,5.9-13.2,8.6C42.6,47.1,31.1,38.9,26,26.5c-2.8-6.6-2.1-14.6,2.2-20.3c3.1-4,8.3-5.9,13.3-6
	C46.4,0.2,50.4,3.8,53.3,7.6z"/>
<path class="st1" d="M1.6,0c15.3,0,0,0,15.3,0c0,3.2,0,6.9,0,10.1c-0.7,0-2.1,0-2.8,0c-0.1,11.3,0,22.5,0,33.8c0.7,0,2.2,0,2.9,0.1
	c0,3.3,0,6.6,0,9.9c-5.1,0-10.3,0-15.4,0c0-3.3,0-6.6,0-9.9c0.7,0,2,0,2.6,0c0-11.3,0.1-22.6-0.1-33.8c-0.7,0-1.9,0-2.6,0
	C1.5,6.9,1.5,3.4,1.6,0z"/>
<path class="st1" d="M0.1,62.6c1.7-1.5,3.4-3,5.2-4.4c4.3,0,8.6,0,12.9,0c1.6,1.4,3.2,2.8,4.9,4.2c0.2,5.4,0,10.8,0.1,16.2
	c-1.6,1.5-3.2,2.9-4.8,4.4c-3.5,0.1-7.1,0.1-10.6,0.1c0,3.1,0,6.1,0,9.2c2.6,0,5.3,0,7.9,0c0-1.1,0-2.2,0-3.3c2.5,0,5,0,7.5,0
	c0,3.7,0,7.4,0,11c-7.7,0-15.4,0-23.1,0c0-6.8-0.1-13.5,0-20.3c1.7-1.5,3.4-3,5.2-4.4c3.5,0.1,6.9,0,10.4,0c0-3.1,0-6.1,0-9.2
	c-2.6,0-5.2,0-7.8,0c0,1.1-0.1,2.2-0.1,3.3c-2.6-0.1-5.1-0.1-7.7-0.1C0,67,0.1,64.8,0.1,62.6z"/>
<path class="st1" d="M27,58.2c8,0,16,0,24,0c0.1,3.7,0.1,7.8,0.1,11.4c-2.4,0.1,0,0-7.6,0c0-3.6,0,0,0-3.6c-2.2,0-4.5,0-6.7,0
	c0,3.1,0,6.2,0,9.3c3.4,0,6.9,0,10.3,0c0.1,2.6,0.1,5.2,0.1,7.8c-3.4,0-6.9,0-10.4,0c0,3.1,0,6.1,0,9.2c2.3,0,4.5,0,6.8-0.1
	c0-0.8,0-2.4,0-3.2c2.5,0,5,0,7.5,0c0,3.7,0,7.4,0,11c-8.1,0-16.1,0-24.2,0c0-2.6,0-5.1,0-7.7c0.5,0,1.6,0,2.1,0
	c0-8.7,0-17.4,0-26.2c-0.5,0-1.6,0-2.2,0C26.9,63.3,26.9,60.8,27,58.2z"/>
<path class="st1" d="M55.9,69.2c0-3.7,0-7.4,0.1-11c6.9,0,13.9,0,20.8,0c0,2,0.3,4.1-0.7,6c-3.8,9.3-7.4,18.6-11.3,27.9
	c1.4,0,2.9,0.1,4.4,0.1c0-0.8,0-2.5,0-3.3c2.6,0,5.1,0,7.7,0c0,3.7,0,7.4,0,11c-7.4,0-14.7,0-22,0c0.1-1.8-0.1-3.7,0.8-5.3
	c3.9-9.5,7.7-19,11.5-28.6c-1.2,0-2.3,0-3.5,0c0,1.1,0,2.2,0,3.3C61.1,69.2,58.5,69.2,55.9,69.2z"/>
</svg>
