<?xml version="1.0" encoding="utf-8"?>
<!-- Generator: Adobe Illustrator 21.0.0, SVG Export Plug-In . SVG Version: 6.00 Build 0)  -->
<svg version="1.1" id="Layer_1" xmlns="http://www.w3.org/2000/svg" xmlns:xlink="http://www.w3.org/1999/xlink" x="0px" y="0px"
	 viewBox="0 0 674.787 500.523" style="enable-background:new 0 0 674.787 500.523;" xml:space="preserve">
<style type="text/css">
	.st0{stroke:#000000;stroke-width:0.0938;}
	.st1{fill:#1A4A81;stroke:#1A4A81;stroke-width:0.0938;}
	.st2{fill:#FFFFFF;stroke:#FFFFFF;stroke-width:0.0938;}
</style>
<path class="st0" d="M321.139,0.023c14.83,27.09,34.6,51.72,59.23,70.5c17.01,10.7,35.41,19.48,54.96,24.38
	c11.3,3.94,22.5,8.22,34.02,11.55c13.61,3.9,27.34,7.96,39.65,15.15c24.08,13.27,42.4,35.27,54.1,59.9
	c18.91,8.1,37.63,16.69,55.94,26.08c17.83,9.55,36.02,19.17,50.88,33.12c4.01,3.49,6.43,9.86,3.58,14.76
	c-5.68,6.72-14.98,10.05-18.97,18.23c-7.93,13.36-15.88,26.71-23.88,40.03c-3.08-0.02-6.16-0.02-9.23-0.02
	c-3.7,12.01-9.56,24.27-20.29,31.49c-8.59,5.93-19.52,7.31-29.66,5.83c-44.2-10.24-89.79-16.39-135.2-13
	c-12.35,1.17-24.7,2.67-36.78,5.54c-8.78,1.9-17.22,5.08-25.98,7.04c-21.38,5.08-43.78,8.34-65.62,4.32
	c-15.78-2.82-30.9-10.47-41.56-22.59c-7.55-7.92-11.54-18.49-13.95-28.98c-3.24-14.19-0.55-29.51,7.12-41.85
	c6.5-10.65,15.69-19.36,25.68-26.72c0.32,8.7,0.65,17.86,4.88,25.7c2.36,4.43,7.05,7.75,12.21,7.48c5.7-0.23,12.17-0.95,16.16-5.53
	c4.24-4.63,3.99-11.3,4.41-17.15c0.7-10.79-2.51-21.77-9.18-30.31c-9.62-12.44-23.98-20.16-38.45-25.58
	c-14.59-2.14-29.98,0.71-42.75,8.15c-12.4,7.2-22.24,18.12-29.78,30.19c-8.82,13.42-12.6,29.7-12.51,45.64
	c0.34,21.71,8.09,42.63,18.7,61.34c2.46,4.12,4.59,8.53,7.98,12c24.02,25.05,50.98,47.53,81.11,64.89
	c29.05,16.85,61.12,28.64,94.35,33.75c8.3,1.31,16.72,1.84,24.97,3.56c24.51,3.48,49.39,2.4,74.02,0.95
	c26.47-1.45,52.79-4.76,79.15-7.5c-26.73,18.02-57.24,29.46-88.15,38c-39.27,10.46-79.66,16.1-120.13,19.29
	c-14.56,1.53-29.24,0.62-43.81-0.26c-40.86-2.88-81.43-12.29-118.71-29.43c-47.71-21.65-88.87-56.24-121.15-97.27
	c-12.86,5.43-24.03,15.4-29.42,28.44c-1.91,4.35-3.06,8.98-4.04,13.62c-19.6-25.15-35.39-53.95-41.83-85.4
	c-5.35-25.52-3.8-52.32,3.81-77.22c7.93-25.98,21.54-49.95,38.03-71.43c-9.44-0.03-18.88,0.11-28.32,0.07
	c35.68-44.65,81.7-82.19,135.59-102.39c51.07-19.57,107.34-22.55,161.07-14.31C309.919,42.533,313.079,20.213,321.139,0.023
	 M327.129,98.253c-30.38-12.31-62.85-20.39-95.77-20.43c-30.91-0.48-61.83,6.51-89.72,19.8c-38.54,16.11-73.9,41.26-98.81,75.08
	c8.7-3.03,18.87-4.78,27.24,0.16c-4.97,5.15-9.86,10.38-14.41,15.9c-20.62,24.72-37.19,54.14-41.2,86.5
	c-3.35,23.77,0.77,48.12,9.58,70.3c5.69,14.13,13.21,27.49,21.84,40.03c3.87-11.26,11.21-22.86,23.36-26.18
	c3.25-0.5,7.9-2.68,10.15,0.83c31.85,38.8,71.79,71.01,116.83,93.26c9.2,4.31,18.23,9.32,28.23,11.55
	c37.44,10.26,75.98,16.72,114.8,18.27c41.72,1.78,83.64-2.68,124.2-12.58c-10.46-1.31-20.95-2.35-31.35-4.06
	c-45.18-7.18-89.26-20.39-131.62-37.55c-30.32-11.72-57.33-30.92-80.2-53.84c-10.35-10.7-21.01-21.41-28.53-34.38
	c-9.01-14.83-15.56-31.27-18.06-48.49c-3.18-12.07-4.23-24.75-2.42-37.13c2.97-20.33,12.12-39.38,24.3-55.76
	c17.5-18.27,42.12-30.48,67.71-30.34c11.53-0.45,22.79,2.33,34.07,4.24c5.47,1.02,10.99,1.82,16.41,3.11
	c-7.15,1.53-14.36,2.83-21.54,4.2c7.14,3.49,14.17,7.33,20.34,12.38c13.17,10.43,22.56,25.24,27.31,41.27
	c3.73,12.4,2.02,26.46-5.32,37.2c-7.09,8.52-18.14,13.71-29.26,13.39c-7.57-0.23-15.95-1.43-21.28-7.39
	c-5.01-4.82-6.07-12.12-5.48-18.75c-4.93,1.19-8.5,5.31-9.54,10.2c-2.86,12.17-4.09,25.07-1.05,37.33
	c3.4,14.15,13.88,26.57,27.46,31.91c24.33,9.76,51.65,7.02,76.13-0.68c45.04-15.33,93.74-18.84,140.74-12.17
	c17.69,2.81,35.32,5.94,53,8.82c9.26,2.12,19.05,0.29,27.7-3.31c6.29-2.59,11.01-8.48,11.71-15.3c-3.6-0.2-7.19-0.42-10.78-0.6
	c-6.22-0.7-12.52-0.74-18.69-1.68c-7.36-2.8-14.55-6.02-21.84-8.96c-9.47-3.71-18.6-8.42-28.54-10.8
	c-18.09-4.73-37.03-5.96-55.62-4.33c-9.8,1.98-19.89,3.59-29.88,2.04c-10.97-1.43-21.53-6.73-28.81-15.11
	c-6.33-9.39-8.7-21.49-5.73-32.49c7.58-5.18,16.37-8.69,25.55-9.56c5.67-0.43,11.22-1.94,16.94-1.83
	c16.94-0.42,33.24,6.02,47.56,14.62c17.12,10.24,32.17,23.55,46.09,37.74c10.35,10.47,24,17.54,38.51,19.99
	c4.76,0.67,9.87,2.18,14.49,0.12l-1.52,1.03c5.29,0.42,10.61,0.09,15.89-0.46c4.68-0.16,8.24-3.57,11.81-6.2
	c10.33-8.04,16.69-21.24,15.63-34.38c-2.58-8.97-7.58-17.07-13.51-24.21c2.13-0.78,4.27-1.55,6.42-2.3
	c2.14,9.22,7.13,17.55,13.69,24.29c4.51-1.83,9.58-3.75,12.13-8.2c2.02-3.69,0.35-8.09-2-11.19c-3.39-5.06-8.97-7.81-13.9-11.07
	c-17.61-10.99-36.2-20.4-55.4-28.29c-1.76,2.73-3.62,5.41-5.64,7.96c-1.57-4.32-3.06-8.66-4.57-12.99
	c-3.92,2.68-7.81,5.41-11.61,8.26c2.17-4.03,2.22-8.88-0.42-12.71c-3.72,1.79-7.47,3.52-11.25,5.17c-0.37-4.62,0.81-9.54-0.66-13.95
	c-6.91-9.65-14.16-19.08-21.18-28.66c-11.18-15.16-28.4-24.84-46.31-29.81c-5.73-1.24-11.59-1.69-17.33-2.92
	c-21.08-3.89-41.22-11.73-60.3-21.37c4.26,5.99,8.82,11.76,13.14,17.71c-10.32-3.96-19.9-9.6-28.78-16.14
	c-23.91-17.51-42.92-40.75-59.39-65.18C324.359,58.513,324.179,78.683,327.129,98.253 M434.079,246.173
	c6.14,0.07,12.28,0.02,18.42,0.04c-1.45,5.8-2.82,11.63-4.32,17.42c6.88-5.61,15.66-8.03,24.3-9.25c-1.08,3.02-2.2,6.03-3.3,9.05
	c5.88,1.21,11.82,2.15,17.67,3.51c1.89,0.44,2.75,1.87,1.54,3.6c-8.22-0.87-17.36-2.66-24.82,1.98c0.05-2.9,0.04-5.8,0.08-8.7
	c-0.6-0.28-1.8-0.85-2.4-1.13c-6.32,5.02-12.15,10.67-18.41,15.78c-4.96-6.78-4.7-15.78-1.67-23.3c-5.94,1.07-13.04,3.02-15.46,9.23
	c-2.28,4.95,0.7,10.02,3.64,13.92c4.17,5.4,11.2,8.15,17.95,7.65c12.01-0.84,24.03-1.73,36.04-2.58c13-1.14,26.06-0.74,39.09-1.09
	c-15.82-18.13-35.86-32.68-58.27-41.51c-8.11-1.59-16.61-2.62-24.79-1.03C436.219,240.292,433.859,242.903,434.079,246.173z"/>
<path class="st1" d="M327.129,98.253c-2.95-19.57-2.77-39.74,1.74-59.07c16.47,24.43,35.48,47.67,59.39,65.18
	c8.88,6.54,18.46,12.18,28.78,16.14c-4.32-5.95-8.88-11.72-13.14-17.71c19.08,9.64,39.22,17.48,60.3,21.37
	c5.74,1.23,11.6,1.68,17.33,2.92c17.91,4.97,35.13,14.65,46.31,29.81c7.02,9.58,14.27,19.01,21.18,28.66
	c1.47,4.41,0.29,9.33,0.66,13.95c3.78-1.65,7.53-3.38,11.25-5.17c2.64,3.83,2.59,8.68,0.42,12.71c3.8-2.85,7.69-5.58,11.61-8.26
	c1.51,4.33,3,8.67,4.57,12.99c2.02-2.55,3.88-5.23,5.64-7.96c19.2,7.89,37.79,17.3,55.4,28.29c4.93,3.26,10.51,6.01,13.9,11.07
	c2.35,3.1,4.02,7.5,2,11.19c-2.55,4.45-7.62,6.37-12.13,8.2c-6.56-6.74-11.55-15.07-13.69-24.29c-2.15,0.75-4.29,1.52-6.42,2.3
	c5.93,7.14,10.93,15.24,13.51,24.21c1.06,13.14-5.3,26.34-15.63,34.38c-3.57,2.63-7.13,6.04-11.81,6.2
	c-5.28,0.55-10.6,0.88-15.89,0.46l1.52-1.03c7.5-3,15-6.38,21.2-11.66c7.7-6.3,13.06-15.14,15.67-24.69
	c-5.94-1.86-12.35-0.94-17.55,2.47c0.96-1.89,1.92-3.77,2.88-5.66c-3.79-0.56-7.58-1.12-11.36-1.71c3.18-1.95,6.41-3.82,9.64-5.68
	c-3.57-1.26-7.13-2.51-10.7-3.75c3.86-0.88,7.73-1.76,11.6-2.65c-5.65-11.77-16.97-19.73-28.95-24.16
	c-10.58-3.86-21.8-6.11-33.05-6.58c-29,0.48-58,1.01-87,1.54c-5.8,0.01-11.51-1.77-16.66-4.36c-2.41-1.15-3.92-3.43-5.33-5.58
	c5.5-2.81,11.77-5.45,15.02-11.03c2.43-4.34-0.35-9.37-3.72-12.29c-4.18-3.62-8.88-7.16-14.45-8.17c-8.32-1.66-16.57-3.72-25-4.79
	c-12.9-1.9-25.21-6.31-37.55-10.36c-0.01-1.44-0.02-2.88-0.01-4.3c5.93-2.88,12.42-5.9,15.97-11.76c2.39-3.87,1.62-9.04-1.11-12.53
	c-1.85-1.61-4.26-2.36-6.33-3.63c-3.67-1.99-6.62-5.03-9.24-8.23c0.62-6.57-2.63-12.77-7.67-16.82c-3.63-3.73-9.24-4.39-12.81-8.19
	c-9.53-9.46-14.8-22.06-22.03-33.18c-1.1,18.01,0.76,36.29,6.54,53.43c3.82,11.51,9.32,22.41,15.88,32.59
	c-5.03-4.22-10.32-8.12-15.92-11.55c-7.43-10.39-12.38-22.51-13.99-35.2c-1.21,1.79-2.41,3.57-3.62,5.36
	c-14.8-11.68-32.38-19.88-50.97-23.19c-23.47-4.29-47.68-1.77-70.66,4.06c-16.76,4.51-33.56,9.71-48.67,18.43
	c-20.62,11.51-39.94,26.51-53.1,46.39c10.59-9.4,21.57-18.4,33.6-25.9c18.51-11.68,39.11-20.44,60.8-23.93
	c14.97-2.46,30.34-2.5,45.33-0.14c-16.24,2.15-32.36,6.09-47.26,13.02c-28.35,12.84-51.15,36.37-64.78,64.19
	c-11.32,21.55-26.11,41.93-46.42,55.83c18.62-0.54,36.17-8.17,51.67-18.06c-4,38.63,0.46,79.35,19.69,113.67
	c6.06,11.73,15.24,21.38,24.33,30.8c11.61,11.55,24.07,22.39,38.04,31.02c17.23,10.85,35.45,20.46,54.84,26.83
	c-11.78-7.74-23.77-15.22-34.84-23.99c-13.23-10.27-25.75-21.46-37.37-33.53c-13.39-14.3-22.36-32.03-29.75-50
	c-8.87-24.86-11.13-51.75-8.51-77.91c1.09-9.9,2.33-20.06,6.94-29.04c8.06-16.08,21.94-28.4,36.76-38.18
	c14.76-10.23,32.46-15.98,50.37-16.78c19.04-0.74,38.68,1.54,56.01,9.89c18.08,8.27,33.09,21.78,46.04,36.63
	c3.88,7.69,9.51,15.26,9.58,24.2c-3.56-3.6-5.85-8.25-9.53-11.75c-3.16-3.41-7.2-5.84-11.5-7.51c5.82,16.26,9.03,34.12,4.78,51.17
	c-1.61,5.68-2.61,11.8-6.24,16.63c-4.26,5.79-10.26,9.97-16.32,13.67c-7.72,4.7-16.77,7.48-25.86,6.99
	c-7.62-0.33-14.94-2.84-21.82-6c1.14,13.57,6.74,27.62,18.41,35.43c14.95,10.06,33.98,10.17,51.29,8.61
	c6.31-0.24,11.95-3.26,17.83-5.21c19.74-6.89,40.4-11.13,61.26-12.63c41.87-2.31,84.18-0.76,125.34,7.81
	c9.94,2.22,20.63,3.98,30.55,0.75c4.44-1.35,7.66-4.9,9.76-8.9c3.59,0.18,7.18,0.4,10.78,0.6c-0.7,6.82-5.42,12.71-11.71,15.3
	c-8.65,3.6-18.44,5.43-27.7,3.31c-17.68-2.88-35.31-6.01-53-8.82c-47-6.67-95.7-3.16-140.74,12.17c-24.48,7.7-51.8,10.44-76.13,0.68
	c-13.58-5.34-24.06-17.76-27.46-31.91c-3.04-12.26-1.81-25.16,1.05-37.33c1.04-4.89,4.61-9.01,9.54-10.2
	c-0.59,6.63,0.47,13.93,5.48,18.75c5.33,5.96,13.71,7.16,21.28,7.39c11.12,0.32,22.17-4.87,29.26-13.39
	c7.34-10.74,9.05-24.8,5.32-37.2c-4.75-16.03-14.14-30.84-27.31-41.27c-6.17-5.05-13.2-8.89-20.34-12.38
	c7.18-1.37,14.39-2.67,21.54-4.2c-5.42-1.29-10.94-2.09-16.41-3.11c-11.28-1.91-22.54-4.69-34.07-4.24
	c-25.59-0.14-50.21,12.07-67.71,30.34c-12.18,16.38-21.33,35.43-24.3,55.76c-1.81,12.38-0.76,25.06,2.42,37.13
	c2.5,17.22,9.05,33.66,18.06,48.49c7.52,12.97,18.18,23.68,28.53,34.38c22.87,22.92,49.88,42.12,80.2,53.84
	c42.36,17.16,86.44,30.37,131.62,37.55c10.4,1.71,20.89,2.75,31.35,4.06c-40.56,9.9-82.48,14.36-124.2,12.58
	c-38.82-1.55-77.36-8.01-114.8-18.27c-10-2.23-19.03-7.24-28.23-11.55c-45.04-22.25-84.98-54.46-116.83-93.26
	c-2.25-3.51-6.9-1.33-10.15-0.83c-12.15,3.32-19.49,14.92-23.36,26.18c-8.63-12.54-16.15-25.9-21.84-40.03
	c-8.81-22.18-12.93-46.53-9.58-70.3c4.01-32.36,20.58-61.78,41.2-86.5c4.55-5.52,9.44-10.75,14.41-15.9
	c-8.37-4.94-18.54-3.19-27.24-0.16c24.91-33.82,60.27-58.97,98.81-75.08c27.89-13.29,58.81-20.28,89.72-19.8
	C264.279,77.863,296.749,85.942,327.129,98.253 M454.899,140.433c6.21,6.65,14.45,11.05,23.21,13.34
	c9.28,17.25,26.01,31.93,46.19,33.5c4.6,0.1,8.43,3.37,13.05,3.33c1.63,0.09,3.26-0.99,3.49-2.68c0.68-3.86-2.12-7.09-4.19-10.01
	c-9.48-12.54-22.29-23.56-37.93-27.15C484.099,147.373,469.539,143.713,454.899,140.433z"/>
<path class="st2" d="M335.389,67.042c7.23,11.12,12.5,23.72,22.03,33.18c3.57,3.8,9.18,4.46,12.81,8.19
	c5.04,4.05,8.29,10.25,7.67,16.82c2.62,3.2,5.57,6.24,9.24,8.23c2.07,1.27,4.48,2.02,6.33,3.63c2.73,3.49,3.5,8.66,1.11,12.53
	c-3.55,5.86-10.04,8.88-15.97,11.76c-0.01,1.42,0,2.86,0.01,4.3c12.34,4.05,24.65,8.46,37.55,10.36c8.43,1.07,16.68,3.13,25,4.79
	c5.57,1.01,10.27,4.55,14.45,8.17c3.37,2.92,6.15,7.95,3.72,12.29c-3.25,5.58-9.52,8.22-15.02,11.03c1.41,2.15,2.92,4.43,5.33,5.58
	c5.15,2.59,10.86,4.37,16.66,4.36c29-0.53,58-1.06,87-1.54c11.25,0.47,22.47,2.72,33.05,6.58c11.98,4.43,23.3,12.39,28.95,24.16
	c-3.87,0.89-7.74,1.77-11.6,2.65c3.57,1.24,7.13,2.49,10.7,3.75c-3.23,1.86-6.46,3.73-9.64,5.68c3.78,0.59,7.57,1.15,11.36,1.71
	c-0.96,1.89-1.92,3.77-2.88,5.66c5.2-3.41,11.61-4.33,17.55-2.47c-2.61,9.55-7.97,18.39-15.67,24.69c-6.2,5.28-13.7,8.66-21.2,11.66
	c-4.62,2.06-9.73,0.55-14.49-0.12c-14.51-2.45-28.16-9.52-38.51-19.99c-13.92-14.19-28.97-27.5-46.09-37.74
	c-14.32-8.6-30.62-15.04-47.56-14.62c-5.72-0.11-11.27,1.4-16.94,1.83c-9.18,0.87-17.97,4.38-25.55,9.56
	c-2.97,11-0.6,23.1,5.73,32.49c7.28,8.38,17.84,13.68,28.81,15.11c9.99,1.55,20.08-0.06,29.88-2.04c18.59-1.63,37.53-0.4,55.62,4.33
	c9.94,2.38,19.07,7.09,28.54,10.8c7.29,2.94,14.48,6.16,21.84,8.96c6.17,0.94,12.47,0.98,18.69,1.68c-2.1,4-5.32,7.55-9.76,8.9
	c-9.92,3.23-20.61,1.47-30.55-0.75c-41.16-8.57-83.47-10.12-125.34-7.81c-20.86,1.5-41.52,5.74-61.26,12.63
	c-5.88,1.95-11.52,4.97-17.83,5.21c-17.31,1.56-36.34,1.45-51.29-8.61c-11.67-7.81-17.27-21.86-18.41-35.43
	c6.88,3.16,14.2,5.67,21.82,6c9.09,0.49,18.14-2.29,25.86-6.99c6.06-3.7,12.06-7.88,16.32-13.67c3.63-4.83,4.63-10.95,6.24-16.63
	c4.25-17.05,1.04-34.91-4.78-51.17c4.3,1.67,8.34,4.1,11.5,7.51c3.68,3.5,5.97,8.15,9.53,11.75c-0.07-8.94-5.7-16.51-9.58-24.2
	c-8.33-16.06-21.41-29.26-36.54-39.02c-10.52-6.72-21.71-12.56-33.58-16.51c-18.01-5.9-37.85-6.54-56.01-0.88
	c-15.14,4.63-29,12.8-41.26,22.73c-8.84,7.13-16.65,15.44-25.38,22.71c0.19-2.98,1.38-5.72,3.13-8.09
	c5.18-7.33,11.35-13.91,17.64-20.3c15.22-16.53,35.16-28.86,57.11-34c12.03-3,24.49-3.29,36.82-3.61
	c22.21-0.46,44.53,5.24,63.59,16.7c5.6,3.43,10.89,7.33,15.92,11.55c-6.56-10.18-12.06-21.08-15.88-32.59
	C336.149,103.333,334.289,85.053,335.389,67.042 M411.469,227.512c-11.54,1.81-23.38,5.2-32.35,13.05
	c0.62,12.68,7.44,26.43,20.13,30.62c-1.61-5.19-5.65-9.18-7.55-14.27c-2.33-5.17-4.09-12.27,0.38-16.8
	c8.33-4.46,17.67-6.98,25.67-12.07C415.709,227.403,413.569,227.102,411.469,227.512z"/>
<path class="st0" d="M202.649,92.542c22.98-5.83,47.19-8.35,70.66-4.06c18.59,3.31,36.17,11.51,50.97,23.19
	c1.21-1.79,2.41-3.57,3.62-5.36c1.61,12.69,6.56,24.81,13.99,35.2c-19.06-11.46-41.38-17.16-63.59-16.7
	c-12.33,0.32-24.79,0.61-36.82,3.61c-21.95,5.14-41.89,17.47-57.11,34c-6.29,6.39-12.46,12.97-17.64,20.3
	c-1.75,2.37-2.94,5.11-3.13,8.09c8.73-7.27,16.54-15.58,25.38-22.71c12.26-9.93,26.12-18.1,41.26-22.73
	c18.16-5.66,38-5.02,56.01,0.88c11.87,3.95,23.06,9.79,33.58,16.51c15.13,9.76,28.21,22.96,36.54,39.02
	c-12.95-14.85-27.96-28.36-46.04-36.63c-17.33-8.35-36.97-10.63-56.01-9.89c-17.91,0.8-35.61,6.55-50.37,16.78
	c-14.82,9.78-28.7,22.1-36.76,38.18c-4.61,8.98-5.85,19.14-6.94,29.04c-2.62,26.16-0.36,53.05,8.51,77.91
	c7.39,17.97,16.36,35.7,29.75,50c11.62,12.07,24.14,23.26,37.37,33.53c11.07,8.77,23.06,16.25,34.84,23.99
	c-19.39-6.37-37.61-15.98-54.84-26.83c-13.97-8.63-26.43-19.47-38.04-31.02c-9.09-9.42-18.27-19.07-24.33-30.8
	c-19.23-34.32-23.69-75.04-19.69-113.67c-15.5,9.89-33.05,17.52-51.67,18.06c20.31-13.9,35.1-34.28,46.42-55.83
	c13.63-27.82,36.43-51.35,64.78-64.19c14.9-6.93,31.02-10.87,47.26-13.02c-14.99-2.36-30.36-2.32-45.33,0.14
	c-21.69,3.49-42.29,12.25-60.8,23.93c-12.03,7.5-23.01,16.5-33.6,25.9c13.16-19.88,32.48-34.88,53.1-46.39
	C169.089,102.253,185.889,97.053,202.649,92.542z"/>
<path class="st0" d="M454.899,140.433c14.64,3.28,29.2,6.94,43.82,10.33c15.64,3.59,28.45,14.61,37.93,27.15
	c2.07,2.92,4.87,6.15,4.19,10.01c-0.23,1.69-1.86,2.77-3.49,2.68c-4.62,0.04-8.45-3.23-13.05-3.33
	c-20.18-1.57-36.91-16.25-46.19-33.5C469.349,151.482,461.109,147.083,454.899,140.433 M495.119,155.743
	c1.14,9.46,7.74,17.12,15.28,22.44c4.3,3.63,10.16,3.85,15.33,5.5c3.45,0.63,6.94,2.68,10.47,1.45
	C528.009,169.563,512.009,159.452,495.119,155.743z"/>
<path class="st2" d="M495.119,155.743c16.89,3.71,32.89,13.82,41.08,29.39c-3.53,1.23-7.02-0.82-10.47-1.45
	c-5.17-1.65-11.03-1.87-15.33-5.5C502.859,172.863,496.259,165.202,495.119,155.743z"/>
<path class="st0" d="M411.469,227.512c2.1-0.41,4.24-0.11,6.28,0.53c-8,5.09-17.34,7.61-25.67,12.07
	c-4.47,4.53-2.71,11.63-0.38,16.8c1.9,5.09,5.94,9.08,7.55,14.27c-12.69-4.19-19.51-17.94-20.13-30.62
	C388.089,232.713,399.929,229.322,411.469,227.512z"/>
<path class="st2" d="M434.079,246.173c-0.22-3.27,2.14-5.88,5.29-6.41c8.18-1.59,16.68-0.56,24.79,1.03
	c22.41,8.83,42.45,23.38,58.27,41.51c-13.03,0.35-26.09-0.05-39.09,1.09c-12.01,0.85-24.03,1.74-36.04,2.58
	c-6.75,0.5-13.78-2.25-17.95-7.65c-2.94-3.9-5.92-8.97-3.64-13.92c2.42-6.21,9.52-8.16,15.46-9.23c-3.03,7.52-3.29,16.52,1.67,23.3
	c6.26-5.11,12.09-10.76,18.41-15.78c0.6,0.28,1.8,0.85,2.4,1.13c-0.04,2.9-0.03,5.8-0.08,8.7c7.46-4.64,16.6-2.85,24.82-1.98
	c1.21-1.73,0.35-3.16-1.54-3.6c-5.85-1.36-11.79-2.3-17.67-3.51c1.1-3.02,2.22-6.03,3.3-9.05c-8.64,1.22-17.42,3.64-24.3,9.25
	c1.5-5.79,2.87-11.62,4.32-17.42C446.359,246.192,440.219,246.242,434.079,246.173z"/>
</svg>
