<?xml version="1.0" encoding="utf-8"?>
<!-- Generator: Adobe Illustrator 21.0.0, SVG Export Plug-In . SVG Version: 6.00 Build 0)  -->
<svg version="1.1" id="Layer_1" xmlns="http://www.w3.org/2000/svg" xmlns:xlink="http://www.w3.org/1999/xlink" x="0px" y="0px"
	 viewBox="0 0 459.098 214.236" style="enable-background:new 0 0 459.098 214.236;" xml:space="preserve">
<style type="text/css">
	.st0{fill:#F3B161;stroke:#F3B161;stroke-width:0.0938;}
	.st1{fill:#182D2A;stroke:#182D2A;stroke-width:0.0938;}
	.st2{fill:#FBE5AC;stroke:#FBE5AC;stroke-width:0.0938;}
</style>
<path class="st0" d="M225.852,2.423c18.49-2.07,37.3-3.76,55.78-0.72c8.45,1.41,16.68,4.36,23.83,9.12
	c3.14,1.82,6.19,4.58,10.07,4.31c7.07-0.24,14.52,0.23,20.82,3.78c4.11,2.35,6.86,6.51,7.96,11.06c15.72,1.83,31,8.91,41.92,20.46
	c0.39,4.92-2.34,9.85-0.56,14.65c3.42,9.75,0.5,21.48-7.18,28.43c-2.24,2.15-5.65,3.19-7,6.16c-4.71,10.07-12.59,18.34-21.44,24.91
	c-0.7,2.23-0.06,4.65-0.51,6.94c-0.33,3.21-1.75,6.12-2.93,9.07c1.28,1.55,2.52,3.14,3.7,4.78c34.76,0.01,69.52-0.02,104.27,0.01
	c1.89,0.09,4.97,0.58,4.4,3.21c-0.05,21.78,0.14,43.57-0.1,65.36c-22.43,0.47-44.88,0.07-67.33,0.2
	c-56.83-0.03-113.67,0.07-170.51-0.05c-1.68-9.66-0.4-19.58-0.78-29.35c-71.25-0.03-142.49,0-213.74-0.01
	c-2.18-0.05-4.32-0.51-6.46-0.9c0.25-22.59-0.35-45.22,0.3-67.8c55.73-0.07,111.46-0.01,167.19-0.03c4.94-0.09,9.89,0.26,14.82-0.26
	c-1.66-1.19-3.45-2.2-5.35-2.94c-12.4-4.83-25.16-8.75-38.16-11.62c-9.21-1.84-18.42-4.09-27.85-4.36c0.04-0.41,0.13-1.24,0.17-1.66
	c5.63-4.1,12.52-6.07,19.39-6.65c-15.71-2.53-31.61-3.57-47.38-5.74c3.08-3.57,7.87-4.72,11.8-7.08
	c26.51-14.15,53.12-28.45,77.52-46.09c-5.99-6.08-10.85-13.13-15.47-20.27c17.17-5.55,35.4-9.24,53.48-6.81
	C215.562,3.523,220.812,3.423,225.852,2.423 M223.002,9.153c-5.88,0.7-11.66-0.82-17.5-1.14c-7.12-0.73-14.28,0.17-21.31,1.29
	c-5.46,1.15-11.07,1.9-16.22,4.13c3.99,6.49,9.32,11.93,14.56,17.4c-5.04,3.73-10.53,6.77-16.01,9.79
	c-3.82,2.05-7.03,5.06-10.93,6.99c-4.75,2.45-9.03,5.67-13.65,8.32c-9.54,5.61-19.34,10.73-29.07,15.99
	c-3.96,2.38-9.2,3.19-11.87,7.27c8.69,0.33,17.57,0.24,25.95,2.86c6.44,1.87,13.28,2.1,19.57,4.54c7.51,2.75,15.64,4.23,22.36,8.78
	c-8.54,0.33-16.86-2.1-25.36-2.4c-6.38-0.42-13.06-1.16-19.21,1.05c15.6,2.05,31.06,5.05,46.38,8.58
	c8.12,2.79,16.41,5.14,24.27,8.61c9.09,4.53,18.09,9.19,26.97,14.1c0.13,0.44,0.39,1.3,0.52,1.73c-17.06,1.12-34.16,0.16-51.23,0.31
	c-0.45,3.74-0.46,7.53,0.01,11.28c6.58,0.3,13.16-0.17,19.73,0.5c1.33,12.11-0.04,24.26,0.66,36.38c4.28,0.49,8.61,0.48,12.9,0.02
	c1.06-12.02-1.15-24.18,0.85-36.15c8.16-1.17,16.64-1.39,24.76,0.2c0.74,15.97,0.33,31.98,0.46,47.97
	c-0.05,5.13-1.2,10.45,0.46,15.45c0.81,1.71,2.92,1.31,4.46,1.5c11.42,0.04,22.85-0.05,34.27,0.02c0.63-3.7,0.55-7.47,0.1-11.18
	c-4.77-0.45-9.57-0.27-14.34,0.11c-3.62-0.03-7.21-0.59-10.83-0.46c-1.89-10.03-0.95-20.3-1.17-30.44
	c-0.25-6.13,0.46-12.24,0.57-18.36c1.18,0.75,2.44,1.44,3.38,2.51c4.73,5.45,8.84,11.39,13.02,17.25c1.42-4.06,2.69-8.46,5.97-11.45
	c3.77-3.66,7.48-7.38,11.19-11.1c4.26,1.18,8.64,1.7,13.04,2.04c6.05,0.24,7.93,6.92,11.16,10.93c-7.61,0.44-15.28-0.38-22.84,0.79
	c-2.07,0.45-3.9,2.02-4.75,3.94c-1.09,7.09-0.66,14.3-0.74,21.45c0.1,6.8-0.4,13.67,0.76,20.4c1.66,4.71,7.21,4.32,11.25,4.61
	c11.66,0.09,23.33-0.04,35,0.05c3.08-0.14,6.18-0.27,9.22-0.85c1.33-4.04,1.27-8.44,0.05-12.5c-13.3-1.62-26.78-0.27-40.15-0.81
	c0.02-1.58,0.03-3.14,0.04-4.7c10.23-0.16,20.47,0.13,30.71-0.16c0.33-4.53,1.02-9.36-0.94-13.63c-9.74-0.58-19.5,0.31-29.23-0.34
	c-0.01-1.35,0.02-2.69,0.08-4.03c10.07,0.02,20.14-0.04,30.21,0.03c3.09-0.11,6.21-0.28,9.26-0.84c1.08-3.47,0.65-7.15,1.19-10.68
	c3.13-2.92,7.52-4.9,9.23-9.04c0.86-2.2-1.16-3.9-2.29-5.51c2.3-3.05,3.77-6.65,3.55-10.52c-2.42,1.3-4.49,3.17-6.96,4.36
	c-2.18,0.15-3.01-2.26-4.1-3.7c-3.26-5.82-7.44-11.39-8.8-18.03c7.95-9.04,19.4-13.85,30.22-18.53c2.08,5.53-0.35,11.24-0.26,16.89
	c6.51-4.07,10.02-11.26,13.6-17.78c1.76-3.52,5.59-5.11,8.26-7.8c4.9-4.95,6.82-12.71,4.33-19.29c-1.89-4.7-0.66-9.74-0.03-14.55
	c-2.85-5.22-9.03-7.32-13.82-10.41c-7.52-4.67-16.39-5.87-24.99-7.05c-2.39-5.21-5.36-10.91-11.29-12.68
	c-8.19-4.06-18.41-0.28-25.9-6.07c-11.97-8.33-26.96-10.39-41.19-11.05C247.972,6.083,235.472,7.803,223.002,9.153 M74.322,126.313
	c-0.58,3.04-0.61,6.16-0.79,9.24c0.02,13.23-0.16,26.47,0.4,39.69c4.83,0.37,9.69,0.25,14.54,0.21c0.33-11.14-0.68-22.35,0.83-33.43
	c3.76,5.16,8.37,9.64,11.77,15.08c4.54,5.26,1.95,12.59,3.08,18.85c4.35,0.59,8.73,0.49,13.1,0.25c0.71-5.78-1.47-12.5,2.57-17.41
	c3.92-5.12,8.08-10.08,12.48-14.78c0.42,10.41-0.01,20.83,0.61,31.23c5.1,0.37,10.23,0.34,15.34,0.05
	c0.62-12.57,0.24-25.16,0.38-37.74c0.07-3.82-0.36-7.62-0.63-11.42c-6.93-0.38-13.9-1.09-20.79,0.13
	c-5.65,4.82-8.44,12.08-13.68,17.27c-1.46,1.67-4.04,0.77-5.06-0.92c-4.21-5.68-8.26-11.64-13.56-16.37
	C88.092,125.273,81.142,125.373,74.322,126.313 M11.692,126.773c-0.24,3.92-0.51,7.85-0.27,11.79c0.54,10.94-0.24,21.92,0.19,32.85
	c-0.23,2.78,2.49,4.38,4.99,4.05c11.88-0.05,23.78,0.24,35.65-0.19c0.1-3.8,0.1-7.61-0.04-11.41c-8.8-0.43-17.66,0.47-26.43-0.55
	c-1.02-12.13-0.18-24.35-0.46-36.51C20.782,126.803,16.232,126.823,11.692,126.773 M152.702,126.773
	c-0.89,7.58,0.12,15.18-0.13,22.78c0.26,8.64-0.65,17.28,0.08,25.92c4.57,0.03,9.14,0.05,13.71-0.06c-0.06-16.2-0.01-32.4-0.02-48.6
	C161.792,126.803,157.242,126.823,152.702,126.773 M56.582,127.583c0.04,15.96-0.04,31.92,0.04,47.88
	c4.27,0.03,8.54,0.03,12.82,0.01c0.97-7.96-0.22-15.94,0.09-23.92c-0.29-8.01,0.84-16.01-0.04-24
	C65.222,126.963,60.852,126.953,56.582,127.583 M335.092,156.993c-1.81,5.37-0.16,11.05-0.66,16.56c-0.28,3.98-0.05,7.97,0.2,11.95
	c4.3,0.42,8.64,0.4,12.95,0.01c0.46-5.52,0.27-11.07,0.34-16.6c13.83-0.88,27.72,0.28,41.54-0.84c0.4-4.37,0.36-8.76-0.12-13.11
	c-11.25-0.73-22.52-0.37-33.79-0.45c-5.9,0.09-11.85-0.35-17.71,0.54C336.712,155.183,335.372,155.783,335.092,156.993
	 M395.472,155.533c-3.1,1.83-3.1,5.85-3.11,9.01c0.22,7.23-0.33,14.48,0.49,21.68c5.06,0.63,10.17,0.72,15.24,0.16
	c0.41-5.93,0.03-11.87,0.52-17.78c7.31-0.03,14.62,0,21.93-0.01c6.06-0.07,12.19,0.39,18.17-0.86c0.93-4.07,1.01-8.33,0.01-12.38
	c-2.67-0.63-5.44-0.75-8.17-0.87c-12.33,0.06-24.67,0.03-37,0.01C400.862,154.733,398.022,154.553,395.472,155.533 M413.052,173.463
	c-0.29,4.38-0.3,8.78,0,13.16c6.77,0.3,13.55,0.07,20.32,0.16c0.01,1.55,0.03,3.1,0.06,4.66c-13.55,0.31-27.11-0.33-40.64,0.51
	c-0.53,4.36-0.53,8.76-0.02,13.12c9.92,0.7,19.85,0.5,29.78,0.51c7.48-0.16,15.03,0.52,22.45-0.77c3.35-1.11,4.07-5.14,3.85-8.23
	c-0.28-7.61,0.45-15.25-0.51-22.82C436.622,172.853,424.802,173.393,413.052,173.463 M354.702,174.623c0.02,3.61,0.02,7.23,0,10.85
	c6.53,0.66,13.1,0.04,19.65,0.55c0.43,1.64,0.94,3.32,0.81,5.05c-1.27,1.6-3.7,1.55-5.57,1.69c-11.67-0.07-23.33,0-34.99-0.06
	c-0.71,3.86-0.71,7.84,0.02,11.71c17.27-0.05,34.54-0.08,51.81,0.01c1.03-1.47,2.19-3.03,2.05-4.93c0.1-8.29,0-16.59,0.01-24.88
	C377.232,174.573,365.962,174.533,354.702,174.623z"/>
<path class="st1" d="M223.002,9.153c12.47-1.35,24.97-3.07,37.55-2.81c14.23,0.66,29.22,2.72,41.19,11.05
	c7.49,5.79,17.71,2.01,25.9,6.07c5.93,1.77,8.9,7.47,11.29,12.68c8.6,1.18,17.47,2.38,24.99,7.05c4.79,3.09,10.97,5.19,13.82,10.41
	c-0.63,4.81-1.86,9.85,0.03,14.55c2.49,6.58,0.57,14.34-4.33,19.29c-2.67,2.69-6.5,4.28-8.26,7.8c-3.58,6.52-7.09,13.71-13.6,17.78
	c-0.09-5.65,2.34-11.36,0.26-16.89c-10.82,4.68-22.27,9.49-30.22,18.53c1.36,6.64,5.54,12.21,8.8,18.03c1.09,1.44,1.92,3.85,4.1,3.7
	c2.47-1.19,4.54-3.06,6.96-4.36c0.22,3.87-1.25,7.47-3.55,10.52c1.13,1.61,3.15,3.31,2.29,5.51c-1.71,4.14-6.1,6.12-9.23,9.04
	c-0.54,3.53-0.11,7.21-1.19,10.68c-3.05,0.56-6.17,0.73-9.26,0.84c-10.07-0.07-20.14-0.01-30.21-0.03
	c-0.06,1.34-0.09,2.68-0.08,4.03c9.73,0.65,19.49-0.24,29.23,0.34c1.96,4.27,1.27,9.1,0.94,13.63c-10.24,0.29-20.48,0-30.71,0.16
	c-0.01,1.56-0.02,3.12-0.04,4.7c13.37,0.54,26.85-0.81,40.15,0.81c1.22,4.06,1.28,8.46-0.05,12.5c-3.04,0.58-6.14,0.71-9.22,0.85
	c-11.67-0.09-23.34,0.04-35-0.05c-4.04-0.29-9.59,0.1-11.25-4.61c-1.16-6.73-0.66-13.6-0.76-20.4c0.08-7.15-0.35-14.36,0.74-21.45
	c0.85-1.92,2.68-3.49,4.75-3.94c7.56-1.17,15.23-0.35,22.84-0.79c-3.23-4.01-5.11-10.69-11.16-10.93c-4.4-0.34-8.78-0.86-13.04-2.04
	c-3.71,3.72-7.42,7.44-11.19,11.1c-3.28,2.99-4.55,7.39-5.97,11.45c-4.18-5.86-8.29-11.8-13.02-17.25c-0.94-1.07-2.2-1.76-3.38-2.51
	c-0.11,6.12-0.82,12.23-0.57,18.36c0.22,10.14-0.72,20.41,1.17,30.44c3.62-0.13,7.21,0.43,10.83,0.46
	c4.77-0.38,9.57-0.56,14.34-0.11c0.45,3.71,0.53,7.48-0.1,11.18c-11.42-0.07-22.85,0.02-34.27-0.02c-1.54-0.19-3.65,0.21-4.46-1.5
	c-1.66-5-0.51-10.32-0.46-15.45c-0.13-15.99,0.28-32-0.46-47.97c-8.12-1.59-16.6-1.37-24.76-0.2c-2,11.97,0.21,24.13-0.85,36.15
	c-4.29,0.46-8.62,0.47-12.9-0.02c-0.7-12.12,0.67-24.27-0.66-36.38c-6.57-0.67-13.15-0.2-19.73-0.5c-0.47-3.75-0.46-7.54-0.01-11.28
	c17.07-0.15,34.17,0.81,51.23-0.31c-0.13-0.43-0.39-1.29-0.52-1.73c-8.88-4.91-17.88-9.57-26.97-14.1
	c-7.86-3.47-16.15-5.82-24.27-8.61c-15.32-3.53-30.78-6.53-46.38-8.58c6.15-2.21,12.83-1.47,19.21-1.05
	c8.5,0.3,16.82,2.73,25.36,2.4c-6.72-4.55-14.85-6.03-22.36-8.78c-6.29-2.44-13.13-2.67-19.57-4.54
	c-8.38-2.62-17.26-2.53-25.95-2.86c2.67-4.08,7.91-4.89,11.87-7.27c9.73-5.26,19.53-10.38,29.07-15.99
	c4.62-2.65,8.9-5.87,13.65-8.32c3.9-1.93,7.11-4.94,10.93-6.99c5.48-3.02,10.97-6.06,16.01-9.79c-5.24-5.47-10.57-10.91-14.56-17.4
	c5.15-2.23,10.76-2.98,16.22-4.13c7.03-1.12,14.19-2.02,21.31-1.29C211.342,8.333,217.122,9.853,223.002,9.153 M229.322,16.093
	c1.57,1.56,3.54,2.57,5.52,3.52c0.03,0.52,0.09,1.57,0.12,2.09c-6.09-1.56-12.17-3.24-18.37-4.38c-8.29-1.24-16.71-0.73-25.06-0.67
	c-1.59-0.03-3.18,0.23-4.61,0.96c-1.65-0.06-3.3,0.03-4.94,0.08c2.8,3.68,6.43,6.58,9.93,9.56c6.2,5.47,12.65,10.66,19.04,15.91
	c3.97,4.23,9.93,0.26,14.8,1.98c-4.84,1.33-10.4,1.81-14.19,5.4c-4.31,6.23-2.68,14.42-1.32,21.36c0.39,0.12,1.17,0.37,1.56,0.5
	c1.22-4.72,2.54-10.1,6.96-12.86c0.03,10.75-0.92,22.07,3.76,32.1c2.36,5.81,6.89,10.84,12.94,12.85c-1-2.92-2.28-5.72-3.29-8.62
	c-0.09-3.44,0.07-6.88,0.06-10.31c-0.37-9.23,1.94-18.96,7.51-26.42c0.41,4.64-2.19,8.79-2.37,13.37
	c-0.42,7.99,0.19,16.21,3.47,23.61c3.1,10.35,9.17,19.7,17.16,26.95c2.83,2.94,7.26,2.46,10.98,2.89c4.41,0.04,8.55,2.36,12.98,1.86
	c0.43-7.31-5.85-12.64-9.54-18.3c0.24-0.18,0.72-0.55,0.95-0.74c3.51,1.77,6.59,4.32,10.26,5.8c8.82,7.38,11.55,19.23,19.27,27.51
	c3.42,3.66,7.17,8.38,12.68,8.3c4.43-0.12,9.48,0.85,13.28-2c-5.93-1.58-12.78-2.33-17.26-6.92c3.45-0.45,8,0.61,10.21-2.89
	c1.37-2.88,0.07-6.2-1.43-8.79c-2.89-5.08-4.92-10.57-6.59-16.15c-5.27,0.81-7.9,6.01-10.93,9.79c0.56-6,2.35-12.33,7.14-16.36
	c3.14-3.14,7.81-4.05,10.98-7.1c0.18-1.65,0.46-3.63-0.85-4.91c-3.97-4.87-9.88-8.37-11.96-14.61c-0.63-3.51-0.79-7.27,0.22-10.71
	c3.49-6.97,10.24-11.7,17.11-15c-3.83,4.82-9.08,8.69-11.31,14.6c-1.5,2.91-1.38,6.44,0.35,9.22c3.2,6.36,10.69,8.27,16.96,10.18
	c5.36,0.63,11.06,2.36,16.3,0.36c4.11-0.04,7.96-1.86,11.55-3.71c6.01-3.22,11.37-9.1,11.04-16.33c-4.51-0.25-9.04-1.7-12.25-5.02
	c2.59-2.24,6.68-0.33,9.15-2.74c1.74-1.93,3.98-5.55,0.72-7.22c-9.41-6.55-20.71-11.78-32.45-10.55c-8.25-1.06-16.75,2-23.08,7.23
	c-0.3,0.25-0.92,0.75-1.22,1c-0.47-0.22-1.39-0.65-1.86-0.87c2.77-2.65,5.73-5.09,8.72-7.48c-12.02-3.69-24.76-0.62-37.04-2.08
	c2.89-1.76,6.17-2.76,9-4.62c-2.66-2.54-5.88-4.46-9.49-5.27c-2.5-1.26-5.08-2.4-7.41-3.97c13.87-1.67,26.63,5.1,39.09,10.07
	c5.26,1.01,11.68,1.7,15.95-2.25c-0.03-1.15-0.05-2.29-0.05-3.42c-2.77-1.33-5.6-2.81-8.73-2.9c-4.7-0.41-9.68,0.74-14.12-1.33
	c-4.65-2.05-8.6-5.39-13.24-7.46c-9.52-4.39-20.13-5.83-30.53-5.52C250.822,14.923,239.912,14.023,229.322,16.093 M157.632,62.603
	c-4.02,5.26-8.24,10.4-11.62,16.11c1.49,0.81,3.04,1.49,4.65,2.04c3.97,0.56,7.73,2.02,11.46,3.44
	c13.8,5.45,27.23,12.04,39.51,20.39c5.28,3.14,9.77,7.5,15.26,10.28c-0.95-3.05-2.33-5.93-3.55-8.87
	c7.26,6.18,14.4,13.53,24.07,15.62c-4.87-3.74-9.97-7.25-14.34-11.6c-8.38-8.28-15.27-18.12-19.83-29
	c-1.45-3.46-2.18-7.18-3.61-10.64c-0.27-0.06-0.79-0.2-1.05-0.26c-4.34,2.19-7.37,6.12-10.27,9.88c-1.57-8.79,0.45-18.05,5.14-25.6
	c2.61-4.09,6.35-7.25,9.81-10.59l1.15,0.09c-3.18-2.9-7.78-2.16-11.69-1.74C179.062,44.393,166.612,52.213,157.632,62.603z"/>
<path class="st2" d="M229.322,16.093c10.59-2.07,21.5-1.17,32.23-1.43c10.4-0.31,21.01,1.13,30.53,5.52
	c4.64,2.07,8.59,5.41,13.24,7.46c4.44,2.07,9.42,0.92,14.12,1.33c3.13,0.09,5.96,1.57,8.73,2.9c0,1.13,0.02,2.27,0.05,3.42
	c-4.27,3.95-10.69,3.26-15.95,2.25c-12.46-4.97-25.22-11.74-39.09-10.07c2.33,1.57,4.91,2.71,7.41,3.97
	c2.65,1.53,5.11,3.33,7.58,5.13c-3.78,1.87-7.58,3.74-11.11,6.06c8.64,3.25,17.68-0.26,26.53,0.55c3.23,0.23,6.35,1.18,9.42,2.14
	c-7.25,8.35-16.77,15.27-20.63,26.06c6.18-6.65,12.05-13.62,18.88-19.62c0.3-0.25,0.92-0.75,1.22-1c14.83-7.57,33.7-8.1,48.14,0.65
	c2.41,1.5,5.07,3.06,6.45,5.65c1.04,1.88-0.57,4.49-2.7,4.51c-3.04,0.25-6.07-0.26-9.08-0.52c0.93,1.01,1.86,2.03,2.85,2.99
	c3.21,3.32,7.74,4.77,12.25,5.02c0.33,7.23-5.03,13.11-11.04,16.33c-3.59,1.85-7.44,3.67-11.55,3.71
	c-7.98-0.94-16.47-1.8-23.29-6.46c-3.35-2.4-5.53-6.04-7.17-9.75c-1,0.66-2,1.33-2.99,1.99c-0.07-1.85-0.14-3.69-0.16-5.54
	c2.23-5.91,7.48-9.78,11.31-14.6c-6.87,3.3-13.62,8.03-17.11,15c-1.01,3.44-0.85,7.2-0.22,10.71c2.08,6.24,7.99,9.74,11.96,14.61
	c1.31,1.28,1.03,3.26,0.85,4.91c-3.17,3.05-7.84,3.96-10.98,7.1c-4.79,4.03-6.58,10.36-7.14,16.36c3.03-3.78,5.66-8.98,10.93-9.79
	c1.67,5.58,3.7,11.07,6.59,16.15c1.5,2.59,2.8,5.91,1.43,8.79c-2.21,3.5-6.76,2.44-10.21,2.89c4.48,4.59,11.33,5.34,17.26,6.92
	c-3.8,2.85-8.85,1.88-13.28,2c-5.51,0.08-9.26-4.64-12.68-8.3c-7.72-8.28-10.45-20.13-19.27-27.51
	c-7.77-8.48-18.85-13.36-30.13-14.92c6.29,3.92,13.31,6.98,18.31,12.63c3.92,3.97,6.31,9.12,7.88,14.42
	c-5.79-0.94-12.02-1.04-17.19-4.1c-8.18-5.95-15.33-13.87-18.45-23.67c-5.56-16.36-2.85-34.22,2.51-50.26
	c-8.67,7.45-13.09,18.46-15.23,29.44c-0.99,5.87-1.14,12.05,0.84,17.75c1.01,2.9,2.29,5.7,3.29,8.62
	c-6.05-2.01-10.58-7.04-12.94-12.85c-4.68-10.03-3.73-21.35-3.76-32.1c-4.42,2.76-5.74,8.14-6.96,12.86
	c-0.39-0.13-1.17-0.38-1.56-0.5c-1.36-6.94-2.99-15.13,1.32-21.36c3.79-3.59,9.35-4.07,14.19-5.4c-4.87-1.72-10.83,2.25-14.8-1.98
	c-6.39-5.25-12.84-10.44-19.04-15.91c-3.5-2.98-7.13-5.88-9.93-9.56c1.64-0.05,3.29-0.14,4.94-0.08c2.47,0.98,4.91,2.03,7.39,3
	c3.82,1.38,7.45,3.32,10.55,5.97c-1.85,0.82-3.75,1.51-5.7,2.04c4.66,0.97,9.27,2.19,13.68,3.99c-1.87,0.26-3.75,0.51-5.61,0.78
	c2.33,2.21,4.68,4.4,6.91,6.72c0.46,0.48,0.93,0.96,1.4,1.44c2.05-3.77,3.98-7.87,7.59-10.42c5.21-3.77,11.57-5.26,17.54-7.36
	c-1.81-1.57-3.7-3.07-5.83-4.16C232.862,18.663,230.892,17.653,229.322,16.093 M258.112,53.043c-6.52,5.74-9.83,14.28-11.24,22.66
	c3.23-2.05,4.72-5.79,7.58-8.26c2.61-2.75,6.42-3.73,9.32-6.08c-1.09-0.14-3.28-0.4-4.38-0.53c0.32-5.61,5.19-9,8.65-12.79
	C264.302,48.623,260.902,50.543,258.112,53.043 M326.502,73.033c3.92,3.38,8.88,5.42,14.04,5.84c3.18-0.03,6.86-0.65,8.74-3.53
	c-4.23-0.42-8.46,0.44-12.69,0.08C333.102,75.303,329.782,74.123,326.502,73.033 M325.222,79.013c4.1,3.84,9.72,5.99,15.34,5.85
	c2.64-0.24,6.24-0.52,6.93-3.68C340.022,81.483,332.202,82.373,325.222,79.013z"/>
<path class="st0" d="M186.922,17.613c1.43-0.73,3.02-0.99,4.61-0.96c8.35-0.06,16.77-0.57,25.06,0.67
	c6.2,1.14,12.28,2.82,18.37,4.38c-0.03-0.52-0.09-1.57-0.12-2.09c2.13,1.09,4.02,2.59,5.83,4.16c-5.97,2.1-12.33,3.59-17.54,7.36
	c-3.61,2.55-5.54,6.65-7.59,10.42c-0.47-0.48-0.94-0.96-1.4-1.44c2.14-2.65,3.6-5.76,5.58-8.52c1.88-2.59,4.87-3.98,7.52-5.62
	c-10.52-4.87-22.15-6.21-33.5-7.76c0.14,0.6,0.43,1.8,0.57,2.4C191.832,19.643,189.392,18.593,186.922,17.613z"/>
<path class="st1" d="M193.742,18.213c11.35,1.55,22.98,2.89,33.5,7.76c-2.65,1.64-5.64,3.03-7.52,5.62
	c-1.98,2.76-3.44,5.87-5.58,8.52c-2.23-2.32-4.58-4.51-6.91-6.72c1.86-0.27,3.74-0.52,5.61-0.78c-4.41-1.8-9.02-3.02-13.68-3.99
	c1.95-0.53,3.85-1.22,5.7-2.04c-3.1-2.65-6.73-4.59-10.55-5.97C194.172,20.013,193.882,18.813,193.742,18.213z"/>
<path class="st0" d="M280.592,31.443c3.61,0.81,6.83,2.73,9.49,5.27c-2.83,1.86-6.11,2.86-9,4.62c12.28,1.46,25.02-1.61,37.04,2.08
	c-2.99,2.39-5.95,4.83-8.72,7.48c0.47,0.22,1.39,0.65,1.86,0.87c-6.83,6-12.7,12.97-18.88,19.62c3.86-10.79,13.38-17.71,20.63-26.06
	c-3.07-0.96-6.19-1.91-9.42-2.14c-8.85-0.81-17.89,2.7-26.53-0.55c3.53-2.32,7.33-4.19,11.11-6.06
	C285.702,34.773,283.242,32.973,280.592,31.443z"/>
<path class="st0" d="M157.632,62.603c8.98-10.39,21.43-18.21,35.09-20.45c3.91-0.42,8.51-1.16,11.69,1.74l-1.15-0.09
	c-4.11-0.51-8.38-0.61-12.26,1.05c-15.53,6.09-29.01,17.08-38.46,30.79c-0.96,1.56-1.38,3.36-1.88,5.11
	c-1.61-0.55-3.16-1.23-4.65-2.04C149.392,73.003,153.612,67.863,157.632,62.603z"/>
<path class="st2" d="M191.002,44.853c3.88-1.66,8.15-1.56,12.26-1.05c-3.46,3.34-7.2,6.5-9.81,10.59
	c-4.69,7.55-6.71,16.81-5.14,25.6c2.9-3.76,5.93-7.69,10.27-9.88c0.26,0.06,0.78,0.2,1.05,0.26c1.43,3.46,2.16,7.18,3.61,10.64
	c4.56,10.88,11.45,20.72,19.83,29c4.37,4.35,9.47,7.86,14.34,11.6c-9.67-2.09-16.81-9.44-24.07-15.62c1.22,2.94,2.6,5.82,3.55,8.87
	c-5.49-2.78-9.98-7.14-15.26-10.28c-12.28-8.35-25.71-14.94-39.51-20.39c-3.73-1.42-7.49-2.88-11.46-3.44
	c0.5-1.75,0.92-3.55,1.88-5.11C161.992,61.933,175.472,50.943,191.002,44.853z"/>
<path class="st0" d="M312.482,50.763c6.33-5.23,14.83-8.29,23.08-7.23c11.74-1.23,23.04,4,32.45,10.55
	c3.26,1.67,1.02,5.29-0.72,7.22c-2.47,2.41-6.56,0.5-9.15,2.74c-0.99-0.96-1.92-1.98-2.85-2.99c3.01,0.26,6.04,0.77,9.08,0.52
	c2.13-0.02,3.74-2.63,2.7-4.51c-1.38-2.59-4.04-4.15-6.45-5.65C346.182,42.663,327.312,43.193,312.482,50.763z"/>
<path class="st1" d="M258.112,53.043c2.79-2.5,6.19-4.42,9.93-5c-3.46,3.79-8.33,7.18-8.65,12.79c1.1,0.13,3.29,0.39,4.38,0.53
	c-2.9,2.35-6.71,3.33-9.32,6.08c-2.86,2.47-4.35,6.21-7.58,8.26C248.282,67.323,251.592,58.783,258.112,53.043z"/>
<path class="st0" d="M231.332,78.123c2.14-10.98,6.56-21.99,15.23-29.44c-5.36,16.04-8.07,33.9-2.51,50.26
	c3.12,9.8,10.27,17.72,18.45,23.67c5.17,3.06,11.4,3.16,17.19,4.1c-1.57-5.3-3.96-10.45-7.88-14.42c-5-5.65-12.02-8.71-18.31-12.63
	c11.28,1.56,22.36,6.44,30.13,14.92c-3.67-1.48-6.75-4.03-10.26-5.8c-0.23,0.19-0.71,0.56-0.95,0.74c3.69,5.66,9.97,10.99,9.54,18.3
	c-4.43,0.5-8.57-1.82-12.98-1.86c-3.72-0.43-8.15,0.05-10.98-2.89c-7.99-7.25-14.06-16.6-17.16-26.95
	c-3.28-7.4-3.89-15.62-3.47-23.61c0.18-4.58,2.78-8.73,2.37-13.37c-5.57,7.46-7.88,17.19-7.51,26.42c0.01,3.43-0.15,6.87-0.06,10.31
	C230.192,90.173,230.342,83.993,231.332,78.123z"/>
<path class="st0" d="M314.542,78.563c-1.73-2.78-1.85-6.31-0.35-9.22c0.02,1.85,0.09,3.69,0.16,5.54c0.99-0.66,1.99-1.33,2.99-1.99
	c1.64,3.71,3.82,7.35,7.17,9.75c6.82,4.66,15.31,5.52,23.29,6.46c-5.24,2-10.94,0.27-16.3-0.36
	C325.232,86.833,317.742,84.923,314.542,78.563z"/>
<path class="st1" d="M326.502,73.033c3.28,1.09,6.6,2.27,10.09,2.39c4.23,0.36,8.46-0.5,12.69-0.08c-1.88,2.88-5.56,3.5-8.74,3.53
	C335.382,78.453,330.422,76.413,326.502,73.033z"/>
<path class="st1" d="M325.222,79.013c6.98,3.36,14.8,2.47,22.27,2.17c-0.69,3.16-4.29,3.44-6.93,3.68
	C334.942,85.003,329.322,82.853,325.222,79.013z"/>
<path class="st1" d="M74.322,126.313c6.82-0.94,13.77-1.04,20.59-0.07c5.3,4.73,9.35,10.69,13.56,16.37
	c1.02,1.69,3.6,2.59,5.06,0.92c5.24-5.19,8.03-12.45,13.68-17.27c6.89-1.22,13.86-0.51,20.79-0.13c0.27,3.8,0.7,7.6,0.63,11.42
	c-0.14,12.58,0.24,25.17-0.38,37.74c-5.11,0.29-10.24,0.32-15.34-0.05c-0.62-10.4-0.19-20.82-0.61-31.23
	c-4.4,4.7-8.56,9.66-12.48,14.78c-4.04,4.91-1.86,11.63-2.57,17.41c-4.37,0.24-8.75,0.34-13.1-0.25
	c-1.13-6.26,1.46-13.59-3.08-18.85c-3.4-5.44-8.01-9.92-11.77-15.08c-1.51,11.08-0.5,22.29-0.83,33.43
	c-4.85,0.04-9.71,0.16-14.54-0.21c-0.56-13.22-0.38-26.46-0.4-39.69C73.712,132.473,73.742,129.353,74.322,126.313z"/>
<path class="st1" d="M11.692,126.773c4.54,0.05,9.09,0.03,13.63,0.03c0.28,12.16-0.56,24.38,0.46,36.51
	c8.77,1.02,17.63,0.12,26.43,0.55c0.14,3.8,0.14,7.61,0.04,11.41c-11.87,0.43-23.77,0.14-35.65,0.19c-2.5,0.33-5.22-1.27-4.99-4.05
	c-0.43-10.93,0.35-21.91-0.19-32.85C11.182,134.623,11.452,130.693,11.692,126.773z"/>
<path class="st1" d="M152.702,126.773c4.54,0.05,9.09,0.03,13.64,0.04c0.01,16.2-0.04,32.4,0.02,48.6
	c-4.57,0.11-9.14,0.09-13.71,0.06c-0.73-8.64,0.18-17.28-0.08-25.92C152.822,141.953,151.812,134.353,152.702,126.773z"/>
<path class="st1" d="M56.582,127.583c4.27-0.63,8.64-0.62,12.91-0.03c0.88,7.99-0.25,15.99,0.04,24
	c-0.31,7.98,0.88,15.96-0.09,23.92c-4.28,0.02-8.55,0.02-12.82-0.01C56.542,159.503,56.622,143.543,56.582,127.583z"/>
<path class="st1" d="M335.092,156.993c0.28-1.21,1.62-1.81,2.75-1.94c5.86-0.89,11.81-0.45,17.71-0.54
	c11.27,0.08,22.54-0.28,33.79,0.45c0.48,4.35,0.52,8.74,0.12,13.11c-13.82,1.12-27.71-0.04-41.54,0.84
	c-0.07,5.53,0.12,11.08-0.34,16.6c-4.31,0.39-8.65,0.41-12.95-0.01c-0.25-3.98-0.48-7.97-0.2-11.95
	C334.932,168.043,333.282,162.363,335.092,156.993z"/>
<path class="st1" d="M395.472,155.533c2.55-0.98,5.39-0.8,8.08-1.04c12.33,0.02,24.67,0.05,37-0.01c2.73,0.12,5.5,0.24,8.17,0.87
	c1,4.05,0.92,8.31-0.01,12.38c-5.98,1.25-12.11,0.79-18.17,0.86c-7.31,0.01-14.62-0.02-21.93,0.01c-0.49,5.91-0.11,11.85-0.52,17.78
	c-5.07,0.56-10.18,0.47-15.24-0.16c-0.82-7.2-0.27-14.45-0.49-21.68C392.372,161.383,392.372,157.363,395.472,155.533z"/>
<path class="st1" d="M413.052,173.463c11.75-0.07,23.57-0.61,35.29,0.3c0.96,7.57,0.23,15.21,0.51,22.82
	c0.22,3.09-0.5,7.12-3.85,8.23c-7.42,1.29-14.97,0.61-22.45,0.77c-9.93-0.01-19.86,0.19-29.78-0.51c-0.51-4.36-0.51-8.76,0.02-13.12
	c13.53-0.84,27.09-0.2,40.64-0.51c-0.03-1.56-0.05-3.11-0.06-4.66c-6.77-0.09-13.55,0.14-20.32-0.16
	C412.752,182.243,412.762,177.843,413.052,173.463z"/>
<path class="st1" d="M354.702,174.623c11.26-0.09,22.53-0.05,33.79-0.01c-0.01,8.29,0.09,16.59-0.01,24.88
	c0.14,1.9-1.02,3.46-2.05,4.93c-17.27-0.09-34.54-0.06-51.81-0.01c-0.73-3.87-0.73-7.85-0.02-11.71
	c11.66,0.06,23.32-0.01,34.99,0.06c1.87-0.14,4.3-0.09,5.57-1.69c0.13-1.73-0.38-3.41-0.81-5.05c-6.55-0.51-13.12,0.11-19.65-0.55
	C354.722,181.853,354.722,178.233,354.702,174.623z"/>
</svg>
