<?xml version="1.0" encoding="utf-8"?>
<!-- Generator: Adobe Illustrator 21.0.0, SVG Export Plug-In . SVG Version: 6.00 Build 0)  -->
<svg version="1.1" id="Livello_1" xmlns="http://www.w3.org/2000/svg" xmlns:xlink="http://www.w3.org/1999/xlink" x="0px" y="0px"
	 viewBox="0 0 687.81 712.3" style="enable-background:new 0 0 687.81 712.3;" xml:space="preserve">
<style type="text/css">
	.st0{fill:#A51E23;}
	.st1{fill:#A41E22;}
	.st2{fill:#FFFFFF;}
	.st3{fill:none;stroke:#000000;stroke-width:8.577;}
	.st4{fill:#FFFFFF;stroke:#000000;stroke-width:0.5;stroke-miterlimit:7;}
	.st5{fill:none;stroke:#000000;stroke-width:2;}
	.st6{fill:none;stroke:#A41E23;stroke-width:2;stroke-miterlimit:10;}
	.st7{stroke:#000000;}
	.st8{fill:none;stroke:#000000;}
	.st9{fill:#FFFFFF;stroke:#000000;stroke-width:0.75;}
	.st10{fill:none;stroke:#000000;stroke-width:4;}
</style>
<g>
	<path d="M356.604,712.3c182.922,0,331.206-141.179,331.206-312.672c0-171.503-148.284-310.524-331.206-310.524
		c-182.917,0-331.202,139.021-331.202,310.524C25.402,571.121,173.687,712.3,356.604,712.3"/>
	<path class="st0" d="M476.009,15.077c23.52,0,94.557,13.23,77.51,176.229c0,0,52.47-18.69,49.769-57.434
		c0,0,39.582,48.859-13.579,136.299c0,0,4.503,0.563,10.984,0.563c14.063,0,37.429-2.648,44.445-19.424
		c0,0,21.488,43.72-42.983,87.438c0,0,5.693,2.776,13.681,2.776c5.315,0,11.657-1.236,17.983-5.346c0,0,7.922,18.002-10.178,27.432
		c-18.097,9.428,0,41.147-52.026,54.861c-11.9,3.133-23.732,4.346-34.913,4.346c-37.733,0-68.021-13.774-68.021-13.774
		l-31.669,8.573c0,0-2.726,0.432-6.968,0.432c-13.664,0-43.015-4.495-47.324-42.437c-5.658-49.721-21.494-94.296-40.721-105.44
		c0,0,56.557,8.571,67.867,29.146c1.263,2.308,2.109,3.344,2.537,3.344c3.388,0-19.181-64.793-61.354-76.209
		c0,0,8.31-1.416,19.853-1.416c15.392,0,36.535,2.516,51.396,14.276c0,0-35.057-28.291,47.523-108.011
		c82.553-79.723,11.818-109.42-1.14-115.727C468.68,15.574,471.455,15.077,476.009,15.077 M476.009,0
		c-5.605,0-9.308,0.615-9.987,0.735l-45.484,8.153l41.54,20.236c0.466,0.222,0.988,0.47,1.56,0.747
		c7.514,3.58,27.475,13.091,30.189,29.738c2.537,15.574-9.388,36.618-34.487,60.847c-36.631,35.367-56.492,66.476-59.194,92.63
		c-10.403-2.407-20.675-3.123-29.244-3.123c-12.679,0-22.002,1.565-22.389,1.63l-1.407,29.405
		c11.822,3.201,21.768,12.391,29.205,21.679c-0.086-0.025-0.164-0.05-0.243-0.074c-16.411-4.972-31.186-7.242-31.814-7.334
		l-9.812,27.942c2.218,1.286,10.133,7.29,18.898,30.528c6.624,17.557,11.73,40.136,14.404,63.573
		c3.017,26.571,16.497,40.013,27.261,46.598c12.439,7.614,25.916,9.211,35.039,9.211c5.166,0,8.679-0.515,9.326-0.617l0.802-0.127
		l0.772-0.213l26.755-7.239c10.911,4.19,37.491,0.404,69.004,0.404c13.533,0,26.565,1.508,38.747-1.702
		c17.841-4.698,30.746-2.511,39.465-12.682c7.911-9.232,10.715-18.996,12.76-26.124c0.758-2.605,2.002-6.959,2.816-7.783
		c0,0,0.046-0.02,0.118-0.061c12.235-6.371,19.324-16.981,19.966-29.869c0.439-8.794-2.376-15.702-2.953-16.998l-3.8-8.653
		c1.657-2.063,3.217-4.156,4.662-6.266c7.512-10.915,12.294-22.393,14.216-34.119c3.364-20.56-3.272-34.85-4.04-36.411
		l-14.632-29.77c0,0-1.157,21.817-7.575,31.203c-4.082,5.973-13.535,6.836-21.126,8.288c6.227-13.273,10.798-26.358,13.643-39.114
		c3.729-16.704,4.533-32.9,2.39-48.131c-3.728-26.523-15.079-41.174-16.36-42.755l-30.081-37.125c0,0,7.161,32.396,8.355,43.269
		c1.142,10.426-10.117,24.86-22.356,34.121c-0.072,0.057-0.152,0.115-0.227,0.176c3.083-63.209-7.98-109.222-32.996-136.997
		C515.881,3.616,489.685,0,476.009,0"/>
	<path class="st1" d="M160.16,579.761c68.186,22.382,216.559,81.963,216.559,81.963s31.288,10.859,37.365,14.77
		c18.257-10.427,52.155-33.023,103.424-39.977c-2.608,13.038-40.758,32.828-40.758,32.828s-52.232,22.356-112.03,23.243
		c-136.392,2.017-258.886-90.298-300.014-187.628l50.435-18.979C115.141,485.979,147.736,507.907,160.16,579.761"/>
	<path class="st1" d="M658.285,425.672c0.156-3.859,0.308-7.722,0.308-11.617c0-162.074-135.563-293.462-302.794-293.462
		c-167.229,0-302.792,131.388-302.792,293.462c0,3.896,0.145,7.758,0.303,11.617H658.285z"/>
	<path class="st2" d="M437.011,417.616c0,0-48.636,7.713-54.292-42.005c-5.658-49.721-21.494-94.296-40.721-105.44
		c0,0,56.557,8.571,67.867,29.146c11.306,20.574-11.31-60.005-58.817-72.865c0,0,45.242-7.716,71.256,12.86
		c0,0-35.064-28.291,47.517-108.011c82.553-79.723,11.818-109.42-1.14-115.727c0,0,105.193-18.861,84.839,175.732
		c0,0,52.47-18.69,49.769-57.434c0,0,39.582,48.859-13.579,136.299c0,0,45.17,5.657,55.43-18.857c0,0,21.488,43.717-42.983,87.436
		c0,0,15.832,7.716,31.664-2.57c0,0,7.922,18.002-10.178,27.432c-18.094,9.428,0,41.147-52.026,54.861
		c-52.034,13.717-102.935-9.429-102.935-9.429L437.011,417.616z"/>
	<path class="st1" d="M457.088,400.607c0,0-33.563,5.309-37.467-28.91c-3.901-34.225-14.905-54.41-28.163-62.08
		c0,0,39.835,16.673,47.643,30.832c7.799,14.159,7.818-79.368-24.953-88.22c0,0,18.345,2.116,36.292,16.273
		c0,0-27.69-10.088,29.271-64.958c56.96-54.871,38.429-128.553,37.655-130.326c0,0,34.13,37.694,20.091,171.628
		c0,0,35.102-18.289,34.322-39.531c0,0,27.319,33.628-9.358,93.808c0,0,35.89-1.768,38.234-12.979c0,0,14.823,30.092-29.655,60.178
		c0,0,10.926,5.312,21.85-1.767c0,0,5.461,12.389-7.021,18.88c-12.487,6.489,0,28.32-35.892,37.757
		c-35.895,9.443-71.008-6.489-71.008-6.489L457.088,400.607z"/>
	<path d="M467.988,372.061c0,0,41.439,12.769,51.793,1.706c10.366-11.067,19.576-34.049,25.325-38.307
		c0,0-18.417,1.702-21.867,5.957c0,0-6.902-28.093,0-55.329c6.908-27.242,10.357-35.754-2.301-47.671
		c0,0-1.157,17.027-19.568,38.307c-18.424,21.282-31.084,15.32-35.68,37.454C461.079,336.306,467.988,372.061,467.988,372.061"/>
	<path class="st2" d="M456.44,399.278c0,0,36.682-1.353,34.456-38.648c-2.23-37.298,3.672-72.293,16.356-83.242
		c0,0-40.402,14.448-46.065,31.173c-5.66,16.726,0.608-45.663,33.816-61.952c0,0-34.193,0.864-50.643,19.714
		c0,0,22.1-25.815-48.709-72.405c-70.813-46.589-14.51-83.031-14.021-85.08c0,0-79.598,1.331-39.701,141.182
		c0,0-40.761-12.16-43.886-34.966c0,0-22.783,41.562,27.436,98.055c0,0-38.5,5.614-43.082-5.842c0,0-10.161,35.175,42.751,57.96
		c0,0-10.628,7.942-23.569,2.676c0,0-3.498,14.35,10.987,18.659c14.49,4.311,5.275,30.199,45.215,32.756
		c39.936,2.561,74.32-21.759,74.32-21.759L456.44,399.278z"/>
	<path class="st1" d="M439.534,389.692c0,0,25.302-0.941,23.771-26.614c-1.524-25.671,3.965-42.074,12.711-49.615
		c0,0-27.09,17.978-31.002,29.493c-3.907,11.52-15.918-57.109,6.995-68.33c0,0-13.191,4.2-24.543,17.173
		c0,0,19.021-11.392-29.81-43.441c-48.838-32.05-44.688-88.789-44.346-90.202c0,0-20.211,32.579,7.268,128.832
		c0,0-28.103-8.357-30.26-24.056c0,0-15.726,28.616,18.904,67.484c0,0-26.562,3.879-29.722-4.007c0,0-7.015,24.213,29.476,39.879
		c0,0-7.329,5.475-16.256,1.854c0,0-2.415,9.874,7.574,12.837c9.995,2.965,3.631,20.782,31.183,22.531
		c27.542,1.757,51.272-14.999,51.272-14.999L439.534,389.692z"/>
	<path class="st2" d="M427.866,370.321c0,0-28.766,15.342-37.785,8.721c-9.02-6.629-18.724-22.165-23.497-24.459
		c0,0,13.731-1.406,16.81,1.222c0,0,1.472-21.608-7.093-40.602c-8.557-18.992-12.192-24.741-4.432-35.311
		c0,0,3.034,12.327,19.28,25.286c16.242,12.959,24.77,6.76,30.987,22.336C428.351,343.092,427.866,370.321,427.866,370.321"/>
	<path class="st2" d="M229.059,448.149c0,0-35.269,5.597-39.374-30.457c-4.098-36.057-15.581-68.38-29.525-76.464
		c0,0,41.011,6.217,49.218,21.14c8.195,14.917-8.207-43.514-42.655-52.842c0,0,32.809-5.595,51.67,9.328
		c0,0-25.429-20.518,34.456-78.327c59.877-57.813,0-82.058-0.821-83.923c0,0,76.281-13.675,61.513,127.436
		c0,0,36.911-19.269,36.094-41.649c0,0,28.702,35.431-9.841,98.837c0,0,37.727-1.863,40.185-13.675c0,0,15.587,31.704-31.163,63.41
		c0,0,11.481,5.596,22.961-1.87c0,0,5.744,13.058-7.378,19.897c-13.12,6.832,0,29.835-37.729,39.78
		c-37.733,9.949-74.641-6.836-74.641-6.836L229.059,448.149z"/>
	<path class="st1" d="M243.614,435.814c0,0-24.326,3.851-27.158-20.968c-2.827-24.811-10.811-39.448-20.428-45.015
		c0,0,28.881,12.092,34.544,22.362c5.659,10.268,5.671-57.554-18.099-63.974c0,0,13.313,1.533,26.324,11.802
		c0,0-20.077-7.318,21.222-47.105c41.308-39.791,27.875-93.219,27.307-94.506c0,0,24.757,27.332,14.568,124.455
		c0,0,25.462-13.263,24.893-28.664c0,0,19.805,24.388-6.785,68.029c0,0,26.025-1.288,27.724-9.416c0,0,10.747,21.819-21.505,43.641
		c0,0,7.923,3.853,15.847-1.284c0,0,3.958,8.984-5.091,13.69c-9.054,4.707,0,20.537-26.03,27.387
		c-26.026,6.842-51.493-4.709-51.493-4.709L243.614,435.814z"/>
	<path class="st2" d="M251.524,415.119c0,0,30.05,9.255,37.561,1.233c7.509-8.024,14.19-24.692,18.364-27.779
		c0,0-13.357,1.236-15.858,4.32c0,0-5.007-20.369,0-40.127c5.004-19.751,7.506-25.925-1.67-34.564c0,0-0.835,12.345-14.191,27.78
		c-13.352,15.431-22.535,11.11-25.876,27.158C246.513,389.191,251.524,415.119,251.524,415.119"/>
</g>
<polygon class="st1" points="105.141,485.273 366.955,552.321 547.804,499.35 269.589,469.048 "/>
<polygon class="st3" points="105.141,485.273 360.638,552.321 571.641,497.273 269.589,469.048 "/>
<g>
	<path class="st4" d="M496.581,536.215l67.031,13.944c0,0,15.288,12.063,4.015,24.322c-14.521,15.801-69.189,50.542-78.824,50.207
		C451.111,623.364,426.617,551.623,496.581,536.215"/>
	<path class="st5" d="M496.581,536.215l67.031,13.944c0,0,15.288,12.063,4.015,24.322c-14.521,15.801-69.189,50.542-78.824,50.207
		C451.111,623.364,426.617,551.623,496.581,536.215z"/>
	<path class="st6" d="M366.233,555.147c0,0,43.614,40.573,47.852,121.346"/>
	<path class="st2" d="M218.992,424.678L0,409.148l174.891,54.347L64.706,504.959l149.728-19.434l-30.289,60.35l83.34-50.366
		l-34.154,127.106l84.832-120.356l79.841,94.104l-5.94-98.381c0,0,181.781,38.607,178.108,38.607
		c-3.684,0-112.412-55.38-112.412-55.38l212.913-41.648l-214.435,1.522l180.976-41.371l-257.111,24.967H218.992z"/>
	<path class="st7" d="M56.921,336.702l152.078-8.69l6.955-50.404c0,0,5.213-22.594,28.674-31.282
		c23.467-8.696,49.533-17.382,49.533-17.382s20.632-5.782,44.962,0.716c24.238,6.468,88.003,22.749,88.003,22.749
		s24.338,10.428,21.725,37.367c-2.608,26.941-14.771,165.985-14.771,165.985s-2.609,25.202-33.893,26.941
		c-31.284,1.739-82.009,4.738-82.009,4.738s-16.195,3.078-57.035-7.346c-40.849-10.432-44.322-11.299-44.322-11.299
		s-20.857-7.822-17.378-36.498c3.472-28.683,3.472-39.109,3.472-39.109L53.442,379.286C53.442,379.286,31.72,359.296,56.921,336.702
		"/>
	<path class="st8" d="M56.921,336.702l152.078-8.69l6.955-50.404c0,0,5.213-22.594,28.674-31.282
		c23.467-8.696,49.533-17.382,49.533-17.382s20.632-5.782,44.962,0.716c24.238,6.468,88.003,22.749,88.003,22.749
		s24.338,10.428,21.725,37.367c-2.608,26.941-14.771,165.985-14.771,165.985s-2.609,25.202-33.893,26.941
		c-31.284,1.739-82.009,4.738-82.009,4.738s-16.195,3.078-57.035-7.346c-40.849-10.432-44.322-11.299-44.322-11.299
		s-20.857-7.822-17.378-36.498c3.472-28.683,3.472-39.109,3.472-39.109L53.442,379.286C53.442,379.286,31.72,359.296,56.921,336.702
		z"/>
	<path class="st9" d="M309.372,252.843l-17.813,207.264c0,0-4.343,27.374,24.765,26.071c29.118-1.306,89.508-4.349,89.508-4.349
		s26.51-4.341,28.683-28.679l13.901-158.594c0,0,6.954-34.327-25.642-43.02c-32.576-8.689-83.416-20.42-83.416-20.42
		S312.416,224.163,309.372,252.843"/>
	<path class="st10" d="M309.372,252.843l-17.813,207.264c0,0-4.343,27.374,24.765,26.071c29.118-1.306,89.508-4.349,89.508-4.349
		s26.51-4.341,28.683-28.679l13.901-158.594c0,0,6.954-34.327-25.642-43.02c-32.576-8.689-83.416-20.42-83.416-20.42
		S312.416,224.163,309.372,252.843z"/>
	<path d="M424.302,416.223l-44.482-4.957c0,0-28.686-4.349-25.638-44.755c1.994-26.489,14.335-37.805,30.416-41.713
		c16.074-3.912,50.565-8.518,50.565-8.518L424.302,416.223z"/>
	<path class="st2" d="M423.859,413.028c11.53,1.736,25.525-18.097,28.916-43.901c3.392-25.803-5.017-48.866-16.641-49.546
		c-12.076-0.712-23.628,17.781-27.012,43.588C405.733,388.977,412.336,411.299,423.859,413.028"/>
	<path class="st10" d="M423.859,413.028c11.53,1.736,25.525-18.097,28.916-43.901c3.392-25.803-5.017-49.184-16.641-49.868
		c-12.076-0.711-23.628,18.103-27.012,43.91C405.733,388.977,412.336,411.299,423.859,413.028z"/>
</g>
</svg>
