<?xml version="1.0" encoding="utf-8"?>
<!-- Generator: Adobe Illustrator 21.0.0, SVG Export Plug-In . SVG Version: 6.00 Build 0)  -->
<svg version="1.1" id="Layer_1" xmlns="http://www.w3.org/2000/svg" xmlns:xlink="http://www.w3.org/1999/xlink" x="0px" y="0px"
	 viewBox="0 0 595.5 372.5" style="enable-background:new 0 0 595.5 372.5;" xml:space="preserve">
<style type="text/css">
	.st0{fill:#FFFFFF;stroke:#FFFFFF;stroke-width:9.375000e-02;}
	.st1{fill:#1B1C20;stroke:#1B1C20;stroke-width:9.375000e-02;}
	.st2{fill:#B81552;stroke:#B81552;stroke-width:9.375000e-02;}
</style>
<path class="st0" d="M283.5,0h16.7c36.2,1.1,72.4,8.3,105.4,23.4c16.3,7.3,31.5,16.8,46,27.2c2.5,15,1.2,30.3,0.1,45.3
	c1.6-2.4,3.1-4.9,4.7-7.3c4.8-0.8,9.6-1.3,14.3-2.3c4.6-1,6.4-6.8,11.3-7c5-0.4,11.5-0.4,13.9-5.8c11.2-0.8,23.3-0.5,33.2,5.5
	c6,3.6,9.9,10,11.1,16.8c-0.4,0.5-1.2,1.6-1.6,2.1c7.8,8.4,12.6,20.2,10.2,31.7c-0.7,2.5-0.8,5.9-3.5,7.1c0.6,13-1.6,26.7-9.7,37.2
	c-1.1-0.2-2.1-0.4-3.1-0.7c-0.2-2.8-0.4-5.5-0.6-8.2c-1,2.6-2,5.1-3.3,7.5c-5,9-13.9,15.2-18.4,24.6c-2,4-2,8.7-2,13.1
	c0,5.2,3.5,9.5,6.9,13.1c5.2,5.2,11,9.9,17.1,14c3.9,2.5,8.3,5,13.2,4.8c3.7-0.2,6.8-3.4,7.1-7c0.7-6.8-0.2-13.9-3-20.1
	c-2.4-5.4-5.3-10.5-7.1-16.1c-3.1-8.7,0.2-18.7,6.4-25.3c5.1-5.4,12.9-6.9,20-6.4c-2.8,3.3-5.9,6.6-7.2,10.9c8.1-2,17.2-3.2,24.8,1
	c5.5,2.9,8.3,8.9,9.4,14.7c-3.1-0.6-6.3-1.1-9.4-1.5c2.3,2,4.6,4.3,5.3,7.4c1.2,4.2-0.3,8.6-2.2,12.3c-3.2-2.9-6.3-6.3-10.7-7.5
	c-4.7-1.2-9.7-0.9-14.5-0.3c-2,0-1.8,2.6-1.2,3.9c1.5,4.8,3.8,9.2,5,14.1c2,7.1,2.2,14.6,0.5,21.7c0.8-0.3,2.5-0.8,3.3-1.1
	c-0.4,5.3-2.5,10.8-7,13.9c-6.3,4.3-14.3,3.9-21.6,3.4c-9.5-0.8-17.8-5.9-25.4-11.2c-1.5,4.2-3.2,8.9-1.8,13.4
	c1.3,4.8,5.8,7.9,10.1,9.8c7.8,3.4,16.2,5.4,24.5,7.7c-0.5,5.9-1.2,11.8-2.1,17.8c-7.9,0.7-11.6,8.7-13.2,15.5c-13.5,0-27,0-40.5,0
	c1.7-4.4,4.2-8.7,8.2-11.3c5.6-3.3,12.2-4.8,17.6-8.5c-9.9-3.1-20-5.9-29.5-10.2c-10.4-4.9-18.4-14.2-21.7-25.3
	c-9.3,0.3-18.7-1.9-26.4-7.3c1.3,4.5,2.6,8.9,3.9,13.4c-2,2.5-3.8,5.2-5.2,8.1c7.4-0.6,14.6-3.4,20-8.5c0.1,7.7-4.9,14-8.7,20.3
	c-3.8,6.2-8.8,11.6-14.8,15.8c8,9.1,19.7,13.6,31.3,16c-6.3,5.9-13.6,11.2-22.2,13.2c-15.7,3.8-32,0.5-47.2-3.9
	c-3.2,12.2-8,23.9-14.2,34.9c-2.1,3.7-2.9,8.6-6.4,11.4c-19.7,3.7-39.8-0.7-59.1-4.6c-10.5-2.5-21.3-4.1-32.2-3.1
	c-16.6,1.2-32.6,5.7-49.1,7.6c-11.3,1.3-23,2.5-34.1-0.6c-2.3-4.4-4.3-8.9-6.8-13.3c-5.7-10.2-9.9-21.2-12.7-32.5
	c-11.9,4.2-24.7,6.9-37.3,5.5c-11.8-1.2-23-6.2-32.2-13.7c4.3-1.6,8.7-3.2,13.1-4.6c-12.3-1-23.9-6-34.5-12.1
	c-11.4-6.6-21.5-15-31.2-23.9c-5.6-5.1-10.6-10.9-16.8-15.3c-5.1-3.5-11.5-4.1-17.5-3.4c-10.3,1.3-20.4,5.3-28.8,11.5
	c0.3-5.7,2.3-11.1,5.6-15.7c8.4-11.5,21.6-20.3,36.2-20.6c-1-9.7,0.8-20.4,7.6-27.8c4.4-4.9,10.8-7.5,17.2-8.6
	c-2,5.6-4.2,11.2-4.9,17.1c-2.2,14.7,4.3,30.1,15.6,39.4c10,7.7,21.7,14.3,34.6,14.8c3.9,0.1,8.4,1.2,11.8-1.3
	c1.1-2.5-1.3-4.5-3.2-5.7c-6.3-3.9-13.8-4.6-20.6-7.2c-7.4-2.4-14.5-6.5-19.3-12.7c-5.8-7.4-6.7-17.4-5.3-26.4
	c1-6.4,4.4-12.3,9.2-16.6c1-2.4-0.2-5.2-1.7-7.3c-7.8-12.3-16.1-24.8-18.3-39.5c-4.1,4.6-7.3,9.9-10,15.5c-2.9-6.2-3.5-13.5-1-20
	c-8.5,1.8-17.4,1.3-25.5-1.6c8.1-4.9,16.3-9.8,23.4-16.1c-1.8,0.2-3.7,0.3-5.5,0.5c0.4-7.2,2.3-14.1,5.2-20.7c0.9-2,0.9-4.2,1.1-6.3
	c0.4-4.5,2.5-8.8,5.6-12.1c3.3-3.5,7.9-5.4,11.4-8.6c4-3.2,6.8-7.8,11.5-10.1c6.8-3.5,14.6-4.6,22.2-4.9c5.5-0.1,11.3-0.9,16.5,1.2
	c6.4,1.9,12.1,6.8,13.5,13.5c-0.5-8.9,0-17.8,0.8-26.7c0.3-1.3,0-3.1,1.4-3.9C177.6,18.4,230.5,1.7,283.5,0 M169.4,33.5
	c-11,5.7-21.7,11.9-31.4,19.6c-3.3,22.8-1.2,45.9,2.9,68.4c-8.9,3.8-17.6,7.8-26.4,11.8c2.2,5.8,7.1,10.1,12.9,12.2
	c5.3-4.7,10.6-9.4,15.9-14.1c1.4,5.8,2.9,11.6,4.8,17.2c2,0.2,3.9,0.3,5.9,0.5c-9.4-29.9-14.4-61.6-10.8-92.9
	c12.3-9.2,25.9-16.6,39.9-22.9c63-28.3,137-30.7,201.9-7.1c19.8,7.2,38.8,16.6,56,28.8c2.3,1.1,1.6,4,2,6.1
	c2.2,33.7-4.4,67.6-16.1,99.2c0.7,1,1.3,2,2,3c0.8-0.2,2.3-0.5,3-0.7c2.9-7.3,5.3-14.9,7.5-22.4c4.5,6.2,9.2,12.2,13.7,18.3
	c0.7-0.1,2-0.3,2.6-0.4c4.5-5.8,9.7-11.1,14.8-16.4c-9-5.7-18.1-11.4-27.1-17.2c4.8-22.2,7.1-45.1,4.9-67.7c-0.3-1.4,0-3.4-1.4-4.3
	c-7.3-5.7-15.2-10.4-23.2-14.9C346.2-5.1,248-6.5,169.4,33.5 M200.2,32.3c-17.9,7-35.2,15.9-50.6,27.5c-3.9,29.3,0.6,59.2,9.1,87.4
	c0.2,2.2,1.8,2.7,3.8,2.7c-9-28.5-14-58.8-10.2-88.6c14-10.4,29.7-18.5,45.8-25.2c62.4-25.4,135-24.2,196.6,3.1
	c13.6,6.1,26.8,13.2,38.7,22.2c3.3,31.7-2.5,63.7-12.9,93.6c0.6,0.4,1.8,1.1,2.4,1.5c10.2-28.9,16-59.8,13.8-90.6
	c-0.4-2.7,0.2-6.4-2.8-7.8c-26.4-18.8-57.1-31-88.7-37.7C297,10.5,246,14.5,200.2,32.3 M200.6,40.8c-15.3,6.3-30,14-43.2,24.1
	c-2.7,29.1,2.7,58.5,11.9,86c11.5,33.9,30.3,65.1,53.3,92.4c20.5,24.3,44.3,45.8,70.1,64.5c48.7-36,91.5-82.3,115.6-138.4
	c13.9-32.7,22.3-68.6,19.3-104.3c-8.3-6.6-17.5-12-27-16.9c-22.7-11.5-47.4-19-72.7-22.5C285.2,19.7,240.7,24.5,200.6,40.8
	 M82.4,73.5c-3.9,1.9-6.2,5.8-9.2,8.7c-3.4,3.5-8.2,5.1-11.7,8.3c-3,2.4-5,5.8-6.6,9.2c3.1-2.2,6.6-3.7,10.3-4.6
	c-9.2,7.7-14.1,19.1-16,30.7c4.1-3.6,7.9-8,13.3-9.7c-1,5.5-4.3,10.2-8.3,14c-5.8,5.5-12.8,9.7-19.8,13.6c8.2,1.1,16.8,0.9,24.4-2.7
	c-3.1,5.3-3.8,11.5-3.8,17.5c3.3-5.6,7.3-10.7,12.3-14.7c-0.4,4.2,0.1,8.4,1.3,12.4c3.5,12.5,10.7,23.4,18.1,33.9
	c1.9,2.4,1.3,5.7,1.7,8.6c-2.5,2.4-5.1,4.9-6.8,7.9c-3.7,6.1-4.2,13.6-2.9,20.5c1.5,7.5,6.5,14.1,13.1,17.9
	c8.3,5.3,18.4,5.8,27.2,9.8c3.4,1.6,7.4,3.3,9.1,6.9c1.7,3.6-1.1,7.7-4.6,8.7c-5.7,1.8-11.8,0.7-17.6-0.4
	c-15.6-2.8-29.8-12.1-39.4-24.7c-5.7-7.3-7.9-16.5-8.8-25.5c-0.7-7,1.4-13.9,4.3-20.1C48.2,205,41.8,222,46.3,235.5
	c-10.5,0.7-21.4,3.5-29.4,10.7c-4.5,4.4-8.6,9.2-11.7,14.8c7.7-4.1,15.9-7.4,24.7-8c6.7-0.4,13.8,0.6,19.2,4.9
	c11.3,9.3,21.3,20.3,33.2,28.9c11.2,8.2,23.2,15.6,36.6,19.7c7.7,2.5,15.9,2.2,24,2.4c12.6-0.6,26.3-3.8,35-13.6
	c8.2-9.2,9.7-22.2,9.3-34c-0.4-13.4-5.5-26.8-15-36.4c-6.6-6.6-14-12.4-22.4-16.7c-8.8-4.6-18.5-7.1-28.3-8.8
	c0.6-6.4,1.3-12.9,1-19.4c8.9-5.3,16.3-12.9,25.7-17.5c5.8-1.2,11.8-1.6,17.7-2.5c-0.9-2.4-1.8-4.9-2.7-7.3
	c-5.8-0.6-11.6-2.1-17.4-1.7c-4.9,2.2-6.5,8.4-11,11.2c-12.7,5.9-25.4,11.6-38.2,17.2c-2.7-8.4-5.2-16.8-7.8-25.1
	c-1.3-4.2-5-6.8-8.3-9.3c4.5,1,9,3.9,10.5,8.5c2.4,7.7,4.6,15.4,7.1,23c8.2-3.4,16.3-7,24.5-10.4c2-0.8,4-1.9,4.9-4
	c2.2-4.4,1-9.6-0.3-14.1c-4.3-1.6-8.4-4-11.3-7.6c-3-3.6-4.2-8.4-4.7-13c-0.2-1.9,0.4-4.5,2.6-4.9c3.9-0.5,7.9,2.2,11.8,0.7
	c2-0.8,1.2-3.1,0.9-4.7c0.9-1.1,1.5-2.4,1.8-3.8c0.4-0.3,1.3-0.9,1.7-1.2c-0.5-0.6-1.6-1.8-2.1-2.4c1.3-1,3-1.4,4-2.8
	c-1.1-2.9-2.6-5.7-3.7-8.6c1.3-3,1.9-6.3,1.8-9.5c-3.3,0.7-6.7,1-10.1,1.2c-1.2,2.1-2.3,4.3-4.3,5.8c-4.2,3.5-10.4,2.8-14.3,6.8
	c1.1,4.2,1.5,8.7-0.1,12.8c-1.8,4.5-5.4,7.9-8.6,11.4c-1.5,3.2-3.1,6.5-6.6,7.9c1.8-2.6,3.5-5.4,3.9-8.6c3.8-3.6,7.6-7.4,9.5-12.4
	c1.4-4,0-8.1-1-12c3.2-2.9,7.4-4.3,11.5-5.4c4.1-1.1,6.6-4.8,8.1-8.4c4.3-0.2,8.7-0.3,12.8-1.7c-0.7-4.5-0.9-9.9-4.9-12.9
	c-3.7-2.8-8.3-4.5-12.9-5.2C102.7,69.4,91.8,68.6,82.4,73.5 M482.6,82.9c-4.6,0.7-6,6.4-10.5,6.9c-4.6,0.8-9.2,1.5-13.8,2.4
	c-1.2,1.9-2.5,3.8-3.7,5.6c0.5,3.1,1.1,6.3,1.6,9.4c5.6,0.4,11.1,0.9,16.7,1.2c5.1-0.4,8.3,6.4,5.7,10.5c-1.3,2.9-5.2,3.1-7.7,1.9
	c-4.8-2.1-9.5-4.7-14.2-6.9c-0.9,1.9-1.6,3.8-1.7,5.9c4.8,2.9,9.7,5.7,14.5,8.7c2.7,1.6,4.9,4.4,4.9,7.6c0,3.3-1.6,6.4-3.9,8.7
	c-4.8,5-9.3,10.2-13.9,15.4c-9.7,1.9-19.3,3.9-29.1,5.1c-2-3.3-5-5.9-8.1-8.1c-0.3,0.8-0.9,2.4-1.2,3.2c1.6,1.5,3,3.3,3.7,5.4
	c-1.5-1.1-3-2.2-4.6-3.1c-0.5,1.3-1,2.5-1.5,3.8c2.4,1.3,4.3,3.3,5,6c-2.1-1-4.1-2.2-6.4-2.6c-0.8,2-1.7,4-2.6,6
	c4.8,1.7,9.5,3.4,14.4,4.6c3.2,3.2,7.2,5.7,11.8,6.4c-0.7-1.7-1.5-3.4-2.2-5c5.5,4.1,12.1,6.7,18.9,7.4c-1.5-2.1-2.9-4.4-3.8-6.9
	c5.8,1.2,11.7,1.3,17.5,0.5c-3.9,1.9-7.5,4.3-10.7,7.3c0.3,4.9,0.9,10,3.2,14.5c2.1,4.1,4.9,7.7,7.7,11.4
	c-11.7-3.1-23.6-5.5-35.8-5.7c-5,0-10.6,0.6-14.1,4.5c-3.5,4.3-4.5,10.3-3.2,15.6c2.7,12.5,7.5,24.4,12.2,36.3
	c-1.9,4.2-4.4,8.3-8.3,11c-3.4,2.6-7.9,3.1-11.4,5.5c-3.6,2.4-6.6,5.8-9,9.3c4.9,0.5,7.4-5,11.9-6c-2,1.9-4,3.7-5.7,5.8
	c1.9,0,3.8,0,5.7,0c3-3.2,6.6-5.9,10.9-7c-2.3,2.2-4.8,4.4-6.8,7c4,0.1,8,0,12,0c3.5-4.1,8.1-7.5,13.5-8.7
	c-1.3-3.5-2.9-7.1-2.7-10.9c0.7-3.5,3-6.4,5-9.3c-1.7-5.6-4.6-11.4-3.5-17.3c2.3-2.3,5.2,1.5,7.5,2.5c7.1,4.6,15.8,6.2,24.2,5.8
	c2.1,4,3.3,8.4,5.9,12.2c4.5,6.9,11.6,11.6,19.1,14.7c9.5,4.3,19.5,7.3,29.6,9.6c-3.9,4.9-9.8,7.3-15.5,9.4c-4.9,1.5-8.1,5.8-11,9.7
	c0.7-0.1,2.1-0.2,2.8-0.2c2.9-2.4,5.6-5.1,9.4-6.2c-2.1,2.1-4.3,4.1-6.2,6.3c1.9,0,3.7,0,5.6,0c2.7-3.3,6-6.4,10.3-7.4
	c-2.2,2.3-4.3,4.8-6.1,7.4c5.7,0,11.4,0,17.1,0c2.2-6.5,5.6-14.6,13.3-15.6c0.5-4,0.9-8.1,1.4-12.1c-8.7-2.2-17.3-4.9-25.2-9.2
	c-4-2.3-8.5-5.3-9.4-10.2c-1.4-6.7,1.3-13.4,4.4-19.3c9.4,8.7,22,15,35.2,13.5c6.8-0.3,14.3-3.5,16.5-10.5c-2.7,1.1-5.4,2.1-8.3,2.5
	c2.2-2.6,4.6-5.3,5.5-8.7c1.8-7.1,0.5-14.5-1.7-21.3c-1.4-4.8-3.6-9.3-4.4-14.3c-0.3-3,3.2-3.7,5.4-3.8c5.3-0.3,10.9-0.4,16.1,1.1
	c3.3,0.9,5.4,3.7,7.8,6.1c0.8-3.5,1.3-7.3-0.5-10.6c-1.5-2.9-4.6-4.5-7.5-5.7c3.9-2.1,8.4-2,12.6-0.9c-1.9-4.5-5-8.7-9.6-10.7
	c-7.8-3.6-16.8-1.9-24.7,0.4c-0.8-4.9,2.6-8.8,5.7-12.2c-11.3-0.1-19.8,10.7-20.5,21.3c-0.8,7.5,3.3,14.1,6.4,20.6
	c3.8,7.5,5.8,16.1,4.7,24.5c-0.5,4.1-3,8.1-7,9.4c-3.6,1.5-7.6,0.6-11-0.9c-8.6-3.7-16.1-9.5-22.8-16c-3.6-3.7-7.3-7.7-9-12.7
	c-1.4-7.3-1-15.3,2.8-21.8c3.9-6.6,10.3-11.1,14.7-17.3c5.5-6.9,9.4-16.1,6.7-24.9c3.7,5.7,4.8,12.6,5.2,19.3
	c8.8-14.8,9.8-33.8,2.4-49.4c3.5,3.5,5.6,8,7.6,12.5c1.9-5.8,1.9-12.2,0-18c-2.9-9.2-9.4-16.8-16.6-23c3,0.9,5.7,2.4,8.3,4
	c-1.2-6-4.7-11.6-10.1-14.8c-8.4-5.2-18.8-5.1-28.4-4.7C495,82.6,488,81.7,482.6,82.9 M131.6,99.4c1.2,3.4,3.4,6.7,3,10.5
	c-0.1,1.3-1.4,1.8-2.2,2.5c-0.7,3.8-2.9,7.3-3,11.3c2.7-1.3,5.5-2.5,8.2-3.8c-1.8-10.2-3.7-20.4-4.1-30.8
	C133.1,92.6,132.7,96.1,131.6,99.4 M451.2,99.6c-0.9,7.6-1.9,15.1-3.5,22.6c7.4,5,14.9,9.9,22.5,14.5c-0.5-1.1-0.7-2.4-1.6-3.3
	c-4.9-4.8-11.2-7.7-16.8-11.5c-1.2-3.6,0.8-7.3,2.1-10.6C451.8,107.8,452,103.5,451.2,99.6 M459.8,111.2c5.1,2.1,9.8,5.9,15.5,6.1
	c-0.1-1.5,0.7-3.6-0.9-4.6C469.6,111.9,464.7,111.8,459.8,111.2 M114.8,125.1c-0.1,1.6,0,3.2,0.2,4.8c3-1.2,6-2.6,9-3.9
	C120.9,126,117.8,125.6,114.8,125.1 M130.3,146.7c1.1,4.4,1.8,9,1.2,13.5c5.8-2.3,7.2-9.4,12.6-12.4c-1-3.5-2-6.9-3-10.4
	C137.5,140.5,133.9,143.6,130.3,146.7 M440.1,146.3c-1.2,4.8-2.5,9.6-4.1,14.2c4.2-0.7,8.5-1.4,12.7-2.1
	C445.8,154.4,442.9,150.4,440.1,146.3 M163.9,162.4c10.2,26.8,24.7,51.8,42.2,74.5c21,27.3,46.1,51.1,73.4,72.1
	c-2.5,0.4-5.1,0.8-7.6,1.3c-48.7-38.9-90.4-88.3-113-146.9c-1.9,0.3-3.7,0.6-5.6,0.9c21.4,56.4,60.3,104.6,106.2,143.1
	c1.7,1.4,3.4,2.8,4.9,4.4c-17.3,3.5-34.6,8.4-52.5,8.1c-7.4-0.2-15.2-1.1-21.4-5.3c-9,3.7-18.5,6.1-28.2,7.6
	c-11.5,1.5-24.1,0.4-34-6.1c-1.8,0.5-3.5,1.1-5.3,1.7c10.4,6.5,22.7,9.9,35,8.9c10.7-1,21.3-3.7,31.4-7.6c7.4,3.3,15.5,5,23.6,4.8
	c13.9,0.6,27.4-3.5,40.9-6.2c12.3-2.4,24.5-6,37.1-6.2c14.3-0.5,28.2,3.8,42.1,6.5c12.9,2.6,25.7,6.4,38.9,5.9
	c8.3,0.2,16.6-1.4,24.2-4.8c7.7,3.2,15.8,5,23.9,6.6c14.4,2.7,30,0.3,42.1-8c-1.7-0.6-3.5-1.1-5.2-1.6c-5.9,3.9-12.9,5.8-19.9,6.4
	c-14.4,1-28.7-2.9-42-8c-6.5,4.3-14.4,5.1-22,5.3c-17.9,0.2-35.3-4.8-52.8-8.3c43-35.3,80-78.8,103.5-129.5
	c-1.7-0.6-3.5-1.2-5.2-1.8c-23.9,50.8-61.4,94.4-104.9,129.5c-2.6,0.5-5.3-0.6-7.9-0.9c44.9-34.7,84.2-78.2,108.1-130
	c-0.7-0.2-2-0.7-2.7-0.9c-24.1,52-63.7,95.7-109.2,130.1c-5.3,0.3-10.7-0.5-16,0.2c-2.6,0.6-4.5-1.6-6.4-2.9
	c-23.1-17.9-44.7-38-63.3-60.5c-20.7-24.8-37.7-52.7-49.3-82.9C166.1,162.1,164.6,162.3,163.9,162.4 M126,182.1
	c0.2,4.8,0,9.5-0.4,14.3c16,3.7,31.8,9.8,44.1,21c12.7,10.5,20.5,26.3,21.2,42.8c3.8-1.9,7.6-3.8,11.4-5.6
	c-21.7-26.8-39.9-56.5-52-88.9C141.4,169.9,134,176.5,126,182.1 M381.6,255.1c13.1,5.8,26.5,11.3,40.3,15.1c0.7-1.1,1.4-2.3,2.1-3.4
	c-2.9-7.8-5.7-15.5-8.6-23.3c-2.5-6.1-4.4-12.7-3.8-19.4c0.5-5.9,3.6-11.7,8.8-14.7c4.6-2.7,10.2-3.1,15.5-2.6
	c8.1,0.7,16.3,1.7,24.3,3.5c-3.8-4.9-5.5-11-6.1-17.1c-4.6-0.7-9.1-1.7-13.3-3.7c-5.2,1.3-10.5-0.9-14.6-3.9
	C412.9,209.8,400.3,234.7,381.6,255.1 M190.6,263.9c0,1-0.1,2.9-0.1,3.9c5.7-2.3,11.3-4.6,16.8-7.2c-0.8-1.1-1.6-2.2-2.4-3.3
	C200.2,259.6,195.4,261.8,190.6,263.9 M376.6,260.8c13.2,5.6,26.5,10.8,40.1,15.3c1.1-1,2.2-2,3.3-3.1c-13.9-4.3-27.6-9.3-40.7-15.4
	C378.3,258.7,377.4,259.7,376.6,260.8 M190.2,272.1c-0.2,1.5-0.4,3-0.6,4.5c-0.9,11.1-7,21.8-16.5,27.7c-10.9,7-24.4,8.1-37,7.7
	l-0.5-0.2c-1.3,0.8-2.5,1.6-3.8,2.4c5.7,2.4,11.7,4.3,17.9,4.8c12.9,1.1,25.7-2.5,37.3-7.6c3-1.1,4.2-4.4,6.9-6
	c11-8,23.4-13.7,35.6-19.4c-6.6-7.4-13.3-14.8-19.9-22.2C203.2,266.4,196.7,269.2,190.2,272.1 M354.1,285.7
	c12.1,5.6,24.3,11.2,35.4,18.6c2.5,1.5,4.2,3.9,6.4,5.8c7.4,3.7,15.3,6.6,23.5,8.2c11.3,2.4,23.2,0.7,33.6-4.1
	c-8-2.9-14.3-8.9-20.2-14.8c7.7-5,13.9-11.9,18.9-19.5c-1.7,0.4-3.4,0.7-5,1c-1.6,2.1-3.2,4.2-5,6.2c-4.8,1.3-8.5,4.6-12.2,7.8
	c-11.5-0.1-23.1,0.1-34.6-0.2c2.7-6.4,8.4-10.6,13.8-14.6c1.6-0.7,3.1-1.3,4.7-1.8c-13-4.8-25.9-9.6-38.9-14.4
	C367.7,271,360.9,278.4,354.1,285.7 M440.8,274.6c0.3,1.3,0.6,2.7,0.9,4c3.9-0.4,7.9-0.5,11.5-2.1c1.7-2.1,3-4.5,4.5-6.7
	C452.8,273.2,446.8,274.5,440.8,274.6 M328.2,310.1c14.6,3.6,29.6,6.6,44.7,6.6c6.1-0.2,12.7-0.4,17.9-4c1.2-2.2-1.7-4.1-3.1-5.4
	c-11-7.9-23.5-13.4-35.7-19.1C344,295.5,336.1,302.8,328.2,310.1 M202.8,303.9c-3.4,2.3-7.2,4.4-8.9,8.3c4.5,3.6,10.5,4.2,16.1,4.5
	c15.9,0.3,31.8-2.6,47.1-6.7c-8.3-7.1-16.5-14.3-24.7-21.3C222.3,293.3,212.2,298,202.8,303.9 M268.8,318.5
	c-15.9,3.2-31.7,7-47.9,8.4c-10.9,1.1-22-0.8-32.3-4.3c3.4,12.6,7.6,25.2,14.6,36.3c17.5,5.5,36.3,1.7,53.7-2.7
	c22.2-6.2,46-6.5,68.4-0.8c12.3,3.2,24.9,5.8,37.7,6.1c5.9,0,11.9-0.2,17.6-2c1.2-0.3,2.1-1.1,2.6-2.2c6.4-10.7,10.3-22.7,13.6-34.7
	c-10.2,3.5-21.1,5.3-31.9,4.4c-21.7-1.8-42.6-8.1-64.1-11.2C290.1,314,279.3,316.4,268.8,318.5 M278.1,356.2
	c-17.1,2.4-33.8,7.6-51.1,8.7c-7.6,0.4-15.4,0.4-22.8-2c0.8,1.5,1.6,3.1,2.4,4.6c4.6,1.5,9.5,1.8,14.4,1.7
	c20.5-0.1,40.3-6.2,60.5-8.8c12.9-1.8,25.8,0.1,38.5,2.6c14.8,3,29.8,6.1,44.9,6.2c4.6-0.1,9.3-0.1,13.6-1.7
	c1.2-1.4,1.8-3.1,2.7-4.6c-4.6,1.4-9.4,2.1-14.3,2.2c-18.6,0.5-36.6-5-54.9-8.1C300.9,354.9,289.3,354.6,278.1,356.2z"/>
<path class="st1" d="M169.4,33.5c78.6-40,176.8-38.6,254.2,3.9c8,4.5,15.9,9.3,23.2,14.9c1.4,1,1,2.9,1.4,4.3
	c2.3,22.6,0,45.5-4.9,67.7c9,5.8,18.1,11.4,27.1,17.2c-5.1,5.3-10.3,10.6-14.8,16.4c-0.6,0.1-1.9,0.3-2.6,0.4
	c-4.5-6.1-9.2-12.1-13.7-18.3c-2.2,7.6-4.6,15.1-7.5,22.4c-0.8,0.2-2.3,0.5-3,0.7c-0.7-1-1.4-2-2-3c11.8-31.5,18.4-65.4,16.1-99.2
	c-0.4-2.1,0.3-5-2-6.1c-17.2-12.2-36.2-21.6-56-28.8C320,2.6,246,4.9,183,33.2c-14,6.4-27.6,13.7-39.9,22.9
	c-3.6,31.3,1.4,63.1,10.8,92.9c-2-0.2-3.9-0.3-5.9-0.5c-1.9-5.6-3.4-11.4-4.8-17.2c-5.3,4.7-10.5,9.5-15.9,14.1
	c-5.8-2.1-10.7-6.3-12.9-12.2c8.8-3.9,17.6-8,26.4-11.8c-4.1-22.5-6.3-45.7-2.9-68.4C147.7,45.4,158.4,39.2,169.4,33.5z"/>
<path class="st1" d="M200.2,32.3C246,14.5,297,10.5,345.1,20.5c31.6,6.7,62.4,18.9,88.7,37.7c3,1.4,2.4,5.1,2.8,7.8
	c2.2,30.7-3.6,61.6-13.8,90.6c-0.6-0.4-1.8-1.2-2.4-1.5c10.4-29.9,16.2-61.9,12.9-93.6c-11.9-9-25.1-16.1-38.7-22.2
	C333.1,12,260.5,10.8,198,36.2c-16.1,6.6-31.8,14.7-45.8,25.2c-3.7,29.8,1.2,60.1,10.2,88.6c-2,0-3.6-0.5-3.8-2.7
	c-8.5-28.1-13-58-9.1-87.4C165,48.2,182.3,39.3,200.2,32.3z"/>
<path class="st2" d="M200.6,40.8c40.1-16.3,84.6-21,127.4-15.1c25.2,3.5,49.9,11,72.7,22.5c9.4,4.9,18.7,10.3,27,16.9
	c2.9,35.7-5.4,71.6-19.3,104.3c-24.2,56.1-66.9,102.4-115.6,138.4c-25.8-18.6-49.6-40.1-70.1-64.5c-23-27.3-41.7-58.6-53.3-92.4
	c-9.2-27.6-14.6-56.9-11.9-86C170.6,54.8,185.3,47,200.6,40.8 M274.7,46.2c0.4,10,0.8,20,1.3,30c5-0.2,10-0.4,15-0.6
	c0-1.2-0.1-2.4-0.1-3.6c-3.8,0.1-7.7,0.3-11.5,0.4c-0.4-8.9-0.6-17.8-1.2-26.6C277.4,45.9,275.6,46.1,274.7,46.2 M295.7,75.5
	c1.3,0.1,2.6,0.1,3.9,0.2c1.5-3,3.1-6,4.6-9c3.9,0.3,7.8,0.6,11.7,0.8c1.1,3.3,2.1,6.5,3.1,9.8c1,0.1,3,0.3,4.1,0.4
	c-3.7-10.4-7.5-20.8-11.3-31.1C306.2,56.1,300.9,65.8,295.7,75.5 M335.9,49.5c-2.6,9.7-5.2,19.4-7.8,29.1c1.2,0.3,2.4,0.6,3.6,1
	c1.3-4.7,2.5-9.5,3.8-14.2c5.2,1.4,10.4,2.8,15.6,4.2c-1.2,4.8-2.6,9.5-3.8,14.4c0.9,0.2,2.6,0.6,3.4,0.8c2.5-9.7,5.2-19.4,7.8-29.1
	c-1.2-0.3-2.3-0.6-3.5-0.9c-1,3.8-2.1,7.6-3.1,11.3c-5.2-1.4-10.4-2.8-15.6-4.2c1-3.8,2-7.6,3.1-11.4
	C338.2,50.1,337,49.8,335.9,49.5 M215.8,65C213,73,218,82.7,226.1,85c6.7,2.3,14-0.9,18.4-6c-0.5-1.6-0.9-3.3-1.4-4.9
	c-1.5,2.5-3.1,5-5.7,6.5c-5.5,3.3-13.8,1.6-16.7-4.4c-3.1-5.2-2.2-12.7,2.9-16.3c4.2-3.3,10-3,14.6-0.7c-0.5-1.5-1.1-3.1-1.6-4.6
	c-2.3-0.3-4.5-0.6-6.8-0.4C223.5,54.4,217.6,58.9,215.8,65 M366.4,62.8c2.6,1.2,5.1,2.3,7.7,3.5c-3.7,8.1-7.4,16.1-11.1,24.1
	c0.8,0.4,2.4,1.1,3.2,1.5c3.7-8,7.4-16.1,11.1-24.1c2.6,1.2,5.2,2.4,7.8,3.6c0.5-1.1,1.1-2.2,1.6-3.2c-6.3-2.9-12.6-5.8-18.9-8.8
	C367.4,60.6,366.9,61.7,366.4,62.8 M185.4,75.1c5.2,8.6,10.4,17.2,15.6,25.7c1-0.6,2-1.3,3.1-1.9c-2.5-4.2-5.1-8.4-7.6-12.5
	c3.5-2.2,7.1-4.3,10.6-6.5c-0.6-1-1.2-1.9-1.8-2.9c-3.5,2.2-7.1,4.3-10.6,6.5c-1.5-2.5-3-5-4.5-7.6c3.5-2.1,7.1-4.3,10.6-6.4
	c-0.6-0.9-1.2-1.8-1.7-2.7C194.4,69.6,189.9,72.4,185.4,75.1 M396,73.9c-5.7,8.3-11.3,16.6-17,24.9c1,0.7,2,1.3,2.9,2
	c5.7-8.3,11.3-16.6,17-24.9C398,75.3,397,74.6,396,73.9 M283.4,99.7c-19.4,2.9-36.8,16.4-44.2,34.6c-5.9,14.2-5.7,30.8,0.7,44.8
	c6.6,14.6,19.6,26.1,34.9,30.9c13.5,4.4,28.7,3.5,41.7-2.4c13-5.8,23.6-16.6,29.2-29.6c5.4-12.5,6-27.1,1.6-40
	c-4.2-12.7-13.2-23.7-24.6-30.6C311,100.2,296.8,97.5,283.4,99.7 M262.7,236.1c0.8,0.3,2.5,1,3.4,1.3c-1.5,4.7-3.9,9.1-4.7,13.9
	c0.5,0.1,1.6,0.4,2.2,0.5c1.8-5.3,3.9-10.5,5.8-15.8C267.1,235.5,264.4,233.3,262.7,236.1 M316.3,239.1c-0.9,3.8-2.4,8.7,0.8,11.9
	c3.8,3.6,11.1-0.7,9.7-5.8c-0.5-4.1-5.5-5.8-8.8-3.7c0.8-2.3,1.5-4.7,2.2-7C316.9,233.3,317,237,316.3,239.1 M277.4,246.7
	c1,2.6,4,2.8,6.4,2.8c-1.8,1.8-3.5,3.8-4.9,6l2.2,0.1c2.8-2.7,5.3-5.8,7.1-9.3c1.8-3.6-1.1-8.3-5.2-8
	C278.5,237.7,275.3,242.9,277.4,246.7 M301.1,238.2c-4.5,0.3-6.4,6.1-3.7,9.4c1.4,2.1,4.2,1.8,6.4,1.7c-1.5,2.1-3.4,4.1-3.8,6.7
	c0.5-0.2,1.6-0.5,2.1-0.7c2.4-3.1,4.7-6.5,5.8-10.2C309,241.2,305.1,237.2,301.1,238.2z"/>
<path class="st0" d="M274.7,46.2c0.9-0.1,2.6-0.3,3.5-0.3c0.6,8.9,0.8,17.8,1.2,26.6c3.8-0.1,7.7-0.3,11.5-0.4c0,1.2,0,2.4,0.1,3.6
	c-5,0.1-10,0.4-15,0.6C275.6,66.2,275.1,56.2,274.7,46.2z"/>
<path class="st0" d="M295.7,75.5c5.3-9.7,10.5-19.4,16.1-28.9c3.8,10.4,7.6,20.7,11.3,31.1c-1-0.1-3-0.3-4.1-0.4
	c-1-3.3-2-6.6-3.1-9.8c-3.9-0.2-7.8-0.5-11.7-0.8c-1.5,3-3.1,6-4.6,9C298.3,75.6,297,75.6,295.7,75.5 M305.6,63.8
	c3.1,0.2,6.3,0.4,9.4,0.7c-1.3-3.5-2.5-7-3.8-10.4C309.3,57.2,307.4,60.5,305.6,63.8z"/>
<path class="st0" d="M335.9,49.5c1.2,0.3,2.4,0.6,3.5,0.9c-1,3.8-2.1,7.6-3.1,11.4c5.2,1.4,10.4,2.8,15.6,4.2
	c1-3.8,2.1-7.6,3.1-11.3c1.1,0.3,2.3,0.6,3.5,0.9c-2.6,9.7-5.2,19.4-7.8,29.1c-0.9-0.2-2.6-0.6-3.4-0.8c1.1-4.8,2.5-9.6,3.8-14.4
	c-5.2-1.4-10.4-2.8-15.6-4.2c-1.3,4.7-2.6,9.5-3.8,14.2c-1.2-0.3-2.4-0.6-3.6-1C330.6,68.9,333.2,59.2,335.9,49.5z"/>
<path class="st0" d="M215.8,65c1.9-6.1,7.7-10.6,14.1-11c2.3-0.1,4.5,0.2,6.8,0.4c0.5,1.5,1.1,3.1,1.6,4.6
	c-4.6-2.3-10.4-2.6-14.6,0.7c-5.1,3.6-6,11.1-2.9,16.3c2.8,6,11.2,7.7,16.7,4.4c2.6-1.4,4.2-4,5.7-6.5c0.5,1.6,0.9,3.3,1.4,4.9
	c-4.5,5.1-11.7,8.2-18.4,6C218,82.7,213,73,215.8,65z"/>
<path class="st2" d="M305.6,63.8c1.8-3.3,3.7-6.5,5.6-9.8c1.3,3.5,2.6,7,3.8,10.4C311.8,64.2,308.7,64,305.6,63.8z"/>
<path class="st0" d="M366.4,62.8c0.5-1.1,1-2.2,1.5-3.3c6.3,2.9,12.6,5.8,18.9,8.8c-0.6,1.1-1.1,2.2-1.6,3.2
	c-2.6-1.2-5.2-2.4-7.8-3.6c-3.7,8-7.4,16.1-11.1,24.1c-0.8-0.4-2.4-1.1-3.2-1.5c3.7-8,7.4-16.1,11.1-24.1
	C371.5,65.1,369,64,366.4,62.8z"/>
<path class="st0" d="M185.4,75.1c4.5-2.8,9.1-5.5,13.6-8.3c0.6,0.9,1.1,1.8,1.7,2.7c-3.5,2.1-7.1,4.3-10.6,6.4
	c1.5,2.5,3,5.1,4.5,7.6c3.5-2.2,7.1-4.3,10.6-6.5c0.6,0.9,1.2,1.9,1.8,2.9c-3.5,2.2-7.1,4.3-10.6,6.5c2.5,4.2,5.1,8.4,7.6,12.5
	c-1,0.6-2,1.3-3.1,1.9C195.7,92.3,190.6,83.7,185.4,75.1z"/>
<path class="st1" d="M82.4,73.5c9.5-4.9,20.3-4.2,30.7-4.6c4.6,0.7,9.1,2.4,12.9,5.2c4,3,4.2,8.4,4.9,12.9
	c-4.1,1.5-8.5,1.5-12.8,1.7c-1.5,3.7-4,7.4-8.1,8.4c-4.1,1.1-8.3,2.4-11.5,5.4c1.1,3.9,2.4,8,1,12c-1.9,5-5.7,8.8-9.5,12.4
	c-0.4,3.2-2.1,6-3.9,8.6c3.5-1.4,5.1-4.7,6.6-7.9c3.2-3.5,6.7-6.9,8.6-11.4c1.6-4.1,1.2-8.7,0.1-12.8c3.9-4,10.2-3.2,14.3-6.8
	c1.9-1.5,3.1-3.7,4.3-5.8c3.4-0.1,6.8-0.5,10.1-1.2c0.1,3.3-0.4,6.5-1.8,9.5c1.1,2.9,2.6,5.7,3.7,8.6c-0.9,1.4-2.7,1.8-4,2.8
	c0.5,0.6,1.6,1.8,2.1,2.4c-0.4,0.3-1.3,0.9-1.7,1.2c-0.3,1.4-0.9,2.7-1.8,3.8c0.3,1.6,1.1,3.9-0.9,4.7c-3.9,1.5-7.8-1.2-11.8-0.7
	c-2.2,0.4-2.9,3-2.6,4.9c0.4,4.6,1.6,9.4,4.7,13c2.9,3.6,7.1,5.9,11.3,7.6c1.3,4.5,2.4,9.7,0.3,14.1c-0.9,2.1-3,3.2-4.9,4
	c-8.2,3.4-16.3,7-24.5,10.4c-2.5-7.6-4.7-15.4-7.1-23c-1.5-4.6-5.9-7.5-10.5-8.5c3.3,2.5,7,5.2,8.3,9.3c2.6,8.4,5.2,16.8,7.8,25.1
	c12.8-5.6,25.5-11.3,38.2-17.2c4.5-2.8,6.1-8.9,11-11.2c5.8-0.4,11.6,1.1,17.4,1.7c0.9,2.5,1.8,4.9,2.7,7.3
	c-5.9,0.9-11.8,1.3-17.7,2.5c-9.4,4.5-16.8,12.2-25.7,17.5c0.4,6.5-0.3,13-1,19.4c9.7,1.7,19.5,4.2,28.3,8.8
	c8.3,4.3,15.8,10.1,22.4,16.7c9.5,9.6,14.6,23,15,36.4c0.4,11.8-1.1,24.8-9.3,34c-8.7,9.8-22.4,13-35,13.6c-8-0.2-16.2,0.1-24-2.4
	c-13.3-4.1-25.4-11.5-36.6-19.7c-12-8.6-21.9-19.5-33.2-28.9c-5.4-4.2-12.6-5.3-19.2-4.9c-8.8,0.6-17,3.9-24.7,8
	c3.1-5.5,7.2-10.4,11.7-14.8c8-7.2,18.9-10,29.4-10.7C41.8,222,48.2,205,62,199.8c-3,6.3-5,13.1-4.3,20.1c0.9,9,3.1,18.3,8.8,25.5
	c9.6,12.6,23.8,21.8,39.4,24.7c5.8,1.1,11.9,2.2,17.6,0.4c3.5-1,6.3-5.2,4.6-8.7c-1.7-3.6-5.7-5.3-9.1-6.9
	c-8.8-3.9-18.9-4.5-27.2-9.8c-6.5-3.9-11.6-10.4-13.1-17.9c-1.3-6.9-0.8-14.4,2.9-20.5c1.8-3,4.3-5.4,6.8-7.9
	c-0.4-2.9,0.2-6.2-1.7-8.6c-7.3-10.5-14.6-21.4-18.1-33.9c-1.2-4-1.7-8.2-1.3-12.4c-5.1,4-9.1,9.2-12.3,14.7
	c-0.1-6,0.6-12.2,3.8-17.5c-7.6,3.6-16.3,3.7-24.4,2.7c7-3.9,13.9-8.1,19.8-13.6c4-3.8,7.3-8.5,8.3-14c-5.3,1.7-9.2,6.1-13.3,9.7
	c1.9-11.6,6.9-23,16-30.7c-3.7,0.9-7.1,2.4-10.3,4.6c1.6-3.5,3.6-6.8,6.6-9.2c3.6-3.3,8.4-4.8,11.7-8.3
	C76.2,79.3,78.4,75.4,82.4,73.5z"/>
<path class="st0" d="M396,73.9c1,0.7,1.9,1.4,2.9,2c-5.6,8.3-11.3,16.6-17,24.9c-1-0.7-2-1.4-2.9-2C384.7,90.5,390.4,82.2,396,73.9z
	"/>
<path class="st1" d="M482.6,82.9c5.3-1.1,12.4-0.3,15.3-6c9.6-0.4,19.9-0.5,28.4,4.7c5.4,3.2,8.9,8.7,10.1,14.8
	c-2.6-1.6-5.4-3.1-8.3-4c7.2,6.2,13.7,13.8,16.6,23c1.9,5.8,1.9,12.2,0,18c-2-4.5-4.1-9-7.6-12.5c7.4,15.6,6.3,34.6-2.4,49.4
	c-0.3-6.7-1.5-13.5-5.2-19.3c2.6,8.9-1.2,18-6.7,24.9c-4.4,6.2-10.8,10.8-14.7,17.3c-3.9,6.5-4.2,14.5-2.8,21.8
	c1.7,5,5.5,8.9,9,12.7c6.7,6.5,14.2,12.3,22.8,16c3.4,1.4,7.4,2.4,11,0.9c4-1.4,6.5-5.4,7-9.4c1.2-8.4-0.9-17-4.7-24.5
	c-3.1-6.5-7.2-13.1-6.4-20.6c0.8-10.6,9.3-21.3,20.5-21.3c-3.1,3.3-6.5,7.3-5.7,12.2c7.9-2.4,16.8-4.1,24.7-0.4
	c4.6,2,7.7,6.2,9.6,10.7c-4.2-1.1-8.7-1.2-12.6,0.9c3,1.2,6,2.8,7.5,5.7c1.9,3.2,1.3,7.1,0.5,10.6c-2.3-2.3-4.4-5.2-7.8-6.1
	c-5.2-1.5-10.7-1.4-16.1-1.1c-2.3,0.1-5.7,0.8-5.4,3.8c0.8,4.9,3,9.5,4.4,14.3c2.3,6.8,3.5,14.2,1.7,21.3c-0.9,3.4-3.3,6-5.5,8.7
	c2.9-0.4,5.6-1.4,8.3-2.5c-2.1,7-9.7,10.2-16.5,10.5c-13.1,1.5-25.7-4.8-35.2-13.5c-3.1,5.9-5.7,12.6-4.4,19.3
	c0.9,4.9,5.4,7.9,9.4,10.2c7.9,4.3,16.5,7,25.2,9.2c-0.5,4-0.9,8.1-1.4,12.1c-7.8,1-11.1,9.1-13.3,15.6c-5.7,0-11.4,0-17.1,0
	c1.8-2.6,3.9-5,6.1-7.4c-4.3,0.9-7.6,4.1-10.3,7.4c-1.9,0-3.7,0-5.6,0c1.9-2.2,4.1-4.3,6.2-6.3c-3.7,1.1-6.5,3.8-9.4,6.2
	c-0.7,0.1-2.1,0.2-2.8,0.2c2.9-3.9,6.1-8.2,11-9.7c5.7-2,11.6-4.5,15.5-9.4c-10.2-2.2-20.1-5.3-29.6-9.6
	c-7.5-3.1-14.6-7.9-19.1-14.7c-2.6-3.8-3.8-8.2-5.9-12.2c-8.4,0.3-17.1-1.2-24.2-5.8c-2.3-1-5.2-4.8-7.5-2.5
	c-1.2,5.9,1.8,11.7,3.5,17.3c-2,2.9-4.3,5.8-5,9.3c-0.2,3.8,1.4,7.4,2.7,10.9c-5.4,1.1-10,4.6-13.5,8.7c-4,0-8,0-12,0
	c2-2.6,4.4-4.8,6.8-7c-4.3,1.2-7.9,3.8-10.9,7c-1.9,0-3.8,0-5.7,0c1.7-2.1,3.7-4,5.7-5.8c-4.6,1-7,6.5-11.9,6c2.5-3.6,5.4-6.9,9-9.3
	c3.5-2.5,8-2.9,11.4-5.5c3.8-2.7,6.4-6.8,8.3-11c-4.7-11.9-9.5-23.8-12.2-36.3c-1.3-5.3-0.3-11.3,3.2-15.6c3.5-4,9.2-4.6,14.1-4.5
	c12.1,0.2,24.1,2.6,35.8,5.7c-2.8-3.6-5.6-7.3-7.7-11.4c-2.3-4.5-2.9-9.6-3.2-14.5c3.1-3,6.8-5.3,10.7-7.3
	c-5.9,0.8-11.8,0.7-17.5-0.5c0.9,2.5,2.3,4.8,3.8,6.9c-6.8-0.7-13.4-3.3-18.9-7.4c0.7,1.7,1.5,3.4,2.2,5c-4.6-0.7-8.5-3.2-11.8-6.4
	c-4.9-1.3-9.7-2.9-14.4-4.6c0.9-2,1.8-4,2.6-6c2.3,0.4,4.3,1.6,6.4,2.6c-0.7-2.7-2.6-4.7-5-6c0.5-1.3,1-2.5,1.5-3.8
	c1.6,0.9,3.1,2,4.6,3.1c-0.7-2.1-2.1-3.9-3.7-5.4c0.3-0.8,0.9-2.4,1.2-3.2c3.1,2.2,6.1,4.8,8.1,8.1c9.8-1.2,19.4-3.3,29.1-5.1
	c4.6-5.2,9.1-10.4,13.9-15.4c2.2-2.3,3.9-5.4,3.9-8.7c0-3.3-2.2-6.1-4.9-7.6c-4.8-2.9-9.7-5.7-14.5-8.7c0.1-2.1,0.8-4.1,1.7-5.9
	c4.8,2.2,9.4,4.8,14.2,6.9c2.6,1.3,6.4,1,7.7-1.9c2.6-4.1-0.6-10.9-5.7-10.5c-5.6-0.4-11.1-0.8-16.7-1.2c-0.5-3.1-1.1-6.3-1.6-9.4
	c1.2-1.9,2.5-3.7,3.7-5.6c4.6-0.9,9.2-1.5,13.8-2.4C476.6,89.3,478.1,83.6,482.6,82.9 M483.1,93.5c-0.2,1.6,0,3.2,0.4,4.7
	c3.5,0,6.9,0.5,10.3,1.3C491.7,95.6,487.2,94.3,483.1,93.5z"/>
<path class="st0" d="M483.1,93.5c4.1,0.7,8.6,2.1,10.7,6.1c-3.4-0.9-6.8-1.3-10.3-1.3C483,96.7,482.8,95.1,483.1,93.5z"/>
<path class="st1" d="M283.4,99.7c13.5-2.1,27.6,0.5,39.3,7.6c11.5,6.9,20.4,17.9,24.6,30.6c4.3,12.9,3.8,27.5-1.6,40
	c-5.5,13.1-16.2,23.9-29.2,29.6c-13,5.9-28.1,6.7-41.7,2.4c-15.3-4.8-28.4-16.3-34.9-30.9c-6.4-14-6.7-30.6-0.7-44.8
	C246.6,116.1,264,102.6,283.4,99.7 M281.6,102.9c3.6,1.4,7,3.5,10.6,4.9c6.2,0.2,12.2,1.4,18.1,3c4-0.5,8.1-0.7,12.2-0.3
	C310.4,102.9,295.5,100,281.6,102.9 M276.4,121.3c2.1,5.6,4.8,11,8.3,15.9c8.1-0.3,16.1,0.9,23.8,3.4c3.9-3.4,7.5-7.1,10.5-11.3
	c-2.4-6.1-5.5-11.9-8.7-17.6c-6.2-1.9-12.7-3.5-19.3-2.8C284.7,110.9,280.2,116.2,276.4,121.3 M237.8,154.5c2.4-3.2,5.4-5.9,7.1-9.5
	c2.3-6.6,5.4-12.9,9-18.9c2.1-2.8,0.9-6.3,0.9-9.5C244.5,126.4,238.1,140.2,237.8,154.5 M258.4,123.6c-1.1,0.4-2.4,0.6-3,1.7
	c-4.2,6.5-7.6,13.5-10,20.8c2.3,6.1,5.5,11.9,9.8,16.8c6-1.3,12-2.6,18-3.6c2-8,5.9-15.3,10.8-22c-3.5-4.8-6.1-10.2-8.2-15.8
	C269.8,121.6,264,122.1,258.4,123.6 M338.7,126.6c0.1,3.4-0.2,6.8-0.8,10.2c3.9,6.7,5.4,14.5,5.5,22.2c1.3,2,2.3,4.2,3.3,6.4
	C348.9,152,346.1,137.9,338.7,126.6 M309.2,141c1.8,7.7,3.4,15.5,3.6,23.4c5.5,3.3,11.3,6.2,17.3,8.7c5.1-3.4,9.3-8.1,12.4-13.3
	c0.7-8.1-1.3-16.6-5.7-23.4c-4.9-3.8-11.2-5.4-17.2-6.4C316.4,134,312.9,137.6,309.2,141 M255.2,163.8c-2,5.3-4.1,10.7-4.9,16.4
	c-0.1,1.5-0.5,3.3,0.7,4.6c3.9,5.5,9,10,14.7,13.6c1.2,0.7,2.5,1.8,4.1,1.1c5.8-1.2,11.3-3.2,16.9-5c2.6-5.8,3.8-12.2,4-18.6
	c-6.5-4.4-12.8-9.5-17.4-15.9C267.2,161.1,261.2,162.3,255.2,163.8 M291.4,176.1c-0.1,6.4-1.5,12.7-3.9,18.6
	c5.3,4.4,11.5,7.9,18.3,9.1c1.7,0.4,3.4-0.5,5-0.9c5.9-2.2,11.7-5.6,15.4-10.8c2-5.9,2.5-12.3,3.4-18.4c-6-2.4-11.7-5.5-17.3-8.6
	C306,169.9,298.9,173.6,291.4,176.1 M244.3,181.4c5.5,10,14.2,18.1,24.4,23.1c-0.4-1.4-0.8-2.7-1.2-4.1c-6.3-3.7-12.2-8.5-16.5-14.4
	C249.4,183.5,246.6,182.7,244.3,181.4 M326.1,193.8c-4.5,4.9-10.3,8.5-16.7,10.4c-2.8,0.6-4.4,2.9-6.4,4.7
	c10.5-2.3,20.7-7.1,28.2-14.9C329.4,193.9,327.7,193.9,326.1,193.8z"/>
<path class="st0" d="M281.6,102.9c13.9-2.9,28.8,0,40.8,7.6c-4.1-0.4-8.1-0.2-12.2,0.3c-5.9-1.6-11.9-2.8-18.1-3
	C288.5,106.3,285.2,104.3,281.6,102.9z"/>
<path class="st0" d="M276.4,121.3c3.8-5.1,8.3-10.3,14.6-12.4c6.5-0.6,13,1,19.3,2.8c3.2,5.7,6.4,11.5,8.7,17.6
	c-3,4.2-6.7,7.9-10.5,11.3c-7.6-2.5-15.7-3.7-23.8-3.4C281.2,132.3,278.5,126.9,276.4,121.3z"/>
<path class="st0" d="M237.8,154.5c0.3-14.3,6.7-28.2,17.1-37.9c0,3.2,1.2,6.8-0.9,9.5c-3.7,5.9-6.8,12.3-9,18.9
	C243.1,148.6,240.1,151.4,237.8,154.5z"/>
<path class="st0" d="M258.4,123.6c5.6-1.5,11.5-2,17.3-2c2.1,5.5,4.7,10.9,8.2,15.8c-4.8,6.6-8.7,14-10.8,22c-6,1-12,2.4-18,3.6
	c-4.3-4.9-7.5-10.7-9.8-16.8c2.4-7.4,5.9-14.3,10-20.8C256,124.2,257.3,124,258.4,123.6z"/>
<path class="st0" d="M338.7,126.6c7.4,11.4,10.2,25.4,8,38.7c-1-2.2-2-4.3-3.3-6.4c-0.1-7.7-1.6-15.5-5.5-22.2
	C338.5,133.4,338.8,130,338.7,126.6z"/>
<path class="st0" d="M309.2,141c3.7-3.4,7.3-6.9,10.3-11c6,1,12.3,2.6,17.2,6.4c4.5,6.8,6.4,15.3,5.7,23.4
	c-3.1,5.3-7.3,9.9-12.4,13.3c-5.9-2.5-11.8-5.4-17.3-8.7C312.6,156.5,310.9,148.7,309.2,141z"/>
<path class="st0" d="M255.2,163.8c6-1.5,12-2.7,18-3.7c4.7,6.4,10.9,11.5,17.4,15.9c-0.1,6.4-1.4,12.7-4,18.6
	c-5.6,1.7-11.2,3.7-16.9,5c-1.5,0.6-2.8-0.4-4.1-1.1c-5.7-3.6-10.8-8.1-14.7-13.6c-1.2-1.3-0.8-3.1-0.7-4.6
	C251.1,174.5,253.3,169.1,255.2,163.8z"/>
<path class="st1" d="M163.9,162.4c0.7-0.1,2.1-0.3,2.8-0.4c11.6,30.2,28.7,58.1,49.3,82.9c18.7,22.5,40.2,42.6,63.3,60.5
	c1.9,1.4,3.8,3.6,6.4,2.9c5.3-0.7,10.7,0.1,16-0.2c45.5-34.4,85-78.1,109.2-130.1c0.7,0.2,2,0.7,2.7,0.9
	c-23.9,51.9-63.2,95.4-108.1,130c2.6,0.2,5.3,1.3,7.9,0.9c43.5-35.1,81-78.6,104.9-129.5c1.7,0.6,3.5,1.2,5.2,1.8
	c-23.4,50.7-60.5,94.2-103.5,129.5c17.5,3.4,34.8,8.5,52.8,8.3c7.6-0.2,15.5-1,22-5.3c13.3,5.1,27.6,9,42,8c7-0.6,14-2.5,19.9-6.4
	c1.7,0.5,3.5,1,5.2,1.6c-12.1,8.4-27.7,10.8-42.1,8c-8.1-1.6-16.3-3.5-23.9-6.6c-7.6,3.4-15.9,5-24.2,4.8
	c-13.2,0.5-26.1-3.3-38.9-5.9c-13.9-2.7-27.8-7-42.1-6.5c-12.6,0.2-24.8,3.8-37.1,6.2c-13.5,2.7-27,6.8-40.9,6.2
	c-8.1,0.1-16.2-1.5-23.6-4.8c-10,3.9-20.7,6.5-31.4,7.6c-12.3,1.1-24.6-2.4-35-8.9c1.8-0.6,3.5-1.2,5.3-1.7c10,6.5,22.5,7.5,34,6.1
	c9.6-1.5,19.1-4,28.2-7.6c6.3,4.2,14.1,5.1,21.4,5.3c17.8,0.3,35.1-4.6,52.5-8.1c-1.5-1.6-3.2-3-4.9-4.4
	c-45.8-38.5-84.8-86.8-106.2-143.1c1.8-0.3,3.7-0.6,5.6-0.9c22.6,58.6,64.3,108.1,113,146.9c2.5-0.4,5.1-0.8,7.6-1.3
	c-27.3-20.9-52.4-44.8-73.4-72.1C188.6,214.3,174.1,189.2,163.9,162.4z"/>
<path class="st0" d="M291.4,176.1c7.5-2.5,14.6-6.2,20.9-10.9c5.6,3.1,11.3,6.2,17.3,8.6c-0.9,6.2-1.4,12.5-3.4,18.4
	c-3.7,5.2-9.5,8.6-15.4,10.8c-1.6,0.5-3.3,1.4-5,0.9c-6.8-1.3-13.1-4.7-18.3-9.1C289.9,188.8,291.3,182.5,291.4,176.1z"/>
<path class="st0" d="M244.3,181.4c2.3,1.3,5.2,2.1,6.6,4.5c4.3,6,10.2,10.7,16.5,14.4c0.4,1.4,0.8,2.7,1.2,4.1
	C258.4,199.5,249.8,191.4,244.3,181.4z"/>
<path class="st0" d="M326.1,193.8c1.7,0,3.4,0.1,5,0.1c-7.5,7.9-17.7,12.7-28.2,14.9c2-1.7,3.7-4.1,6.4-4.7
	C315.7,202.3,321.6,198.8,326.1,193.8z"/>
<path class="st0" d="M262.7,236.1c1.7-2.8,4.4-0.7,6.7,0c-1.9,5.3-4,10.5-5.8,15.8c-0.5-0.1-1.6-0.4-2.2-0.5
	c0.9-4.8,3.2-9.3,4.7-13.9C265.2,237.1,263.5,236.5,262.7,236.1z"/>
<path class="st0" d="M316.3,239.1c0.7-2.1,0.6-5.8,3.8-4.6c-0.7,2.3-1.4,4.7-2.2,7c3.3-2.1,8.3-0.5,8.8,3.7c1.5,5.1-5.9,9.4-9.7,5.8
	C313.9,247.8,315.4,242.9,316.3,239.1 M319.3,243.6c-2.3,1.2-2.1,4.7,0.1,5.8c2.1,1.3,5.5-0.7,4.9-3.3
	C324.1,243.6,321.3,242.4,319.3,243.6z"/>
<path class="st0" d="M277.4,246.7c-2.1-3.8,1.1-9,5.5-8.5c4.1-0.3,7,4.4,5.2,8c-1.8,3.5-4.3,6.6-7.1,9.3l-2.2-0.1
	c1.4-2.1,3.1-4.1,4.9-6C281.4,249.5,278.4,249.3,277.4,246.7 M281.1,241c-2.2,1.3-2.1,4.7,0.1,5.9c2,1.3,5-0.4,4.8-2.8
	C286.4,241.5,283.2,239.6,281.1,241z"/>
<path class="st0" d="M301.1,238.2c4-1.1,8,2.9,6.8,6.9c-1.2,3.8-3.4,7.1-5.8,10.2c-0.5,0.2-1.6,0.5-2.1,0.7c0.5-2.6,2.3-4.6,3.8-6.7
	c-2.2,0.1-5,0.4-6.4-1.7C294.7,244.4,296.6,238.6,301.1,238.2 M300.1,241.1c-2.1,1.5-1.5,5.1,0.9,5.9c2.4,1.1,5.1-1.6,4.2-4
	C305,240.6,301.9,239.7,300.1,241.1z"/>
<path class="st2" d="M281.1,241c2.2-1.4,5.3,0.4,4.9,3.1c0.2,2.4-2.8,4.2-4.8,2.8C279,245.7,278.9,242.3,281.1,241z"/>
<path class="st2" d="M300.1,241.1c1.8-1.4,4.8-0.5,5,1.9c0.9,2.4-1.8,5.2-4.2,4C298.6,246.2,298.1,242.6,300.1,241.1z"/>
<path class="st2" d="M319.3,243.6c2-1.2,4.8,0.1,5,2.5c0.6,2.6-2.8,4.6-4.9,3.3C317.2,248.3,317,244.7,319.3,243.6z"/>
<path class="st1" d="M190.6,263.9c4.8-2.1,9.6-4.3,14.4-6.6c0.8,1.1,1.6,2.2,2.4,3.3c-5.6,2.5-11.2,4.9-16.8,7.2
	C190.5,266.8,190.5,264.9,190.6,263.9z"/>
<path class="st1" d="M376.6,260.8c0.9-1.1,1.8-2.2,2.7-3.2c13.2,6.2,26.9,11.1,40.7,15.4c-1.1,1-2.2,2.1-3.3,3.1
	C403.1,271.6,389.7,266.4,376.6,260.8z"/>
<path class="st1" d="M190.2,272.1c6.5-2.9,13-5.7,19.5-8.5c6.6,7.4,13.3,14.8,19.9,22.2c-12.2,5.8-24.6,11.5-35.6,19.4
	c-2.7,1.6-3.9,4.9-6.9,6c-11.7,5.1-24.5,8.7-37.3,7.6c-6.2-0.4-12.2-2.3-17.9-4.8c1.3-0.8,2.5-1.6,3.8-2.4l0.5,0.2
	c15,6.3,32.1,3,46.6-3c4.5-1.5,7.1-5.7,10.9-8.2c9.2-6.4,19.3-11.5,29.4-16.2c-4.6-5.6-9.6-10.8-14.4-16.2
	c-6.3,2.8-12.7,5.6-19.1,8.3C189.9,275.1,190.1,273.6,190.2,272.1z"/>
<path class="st1" d="M354.1,285.7c6.8-7.3,13.6-14.7,20.4-22c12.9,4.8,25.9,9.6,38.9,14.4c-1.6,0.6-3.2,1.2-4.7,1.8
	c-11.1-3.9-22.2-7.7-33.2-12c-5.2,5.4-10.2,11.1-15.3,16.6c10.7,5.2,21.5,10.2,31.3,16.9c3,1.9,5.1,5,8.3,6.7
	c13.6,6.4,29.3,10.2,44.1,5.8c-6.1-4.4-11.7-9.6-16.7-15.3c5.4-3.1,10.3-6.8,14.4-11.5c1.8-1.9,3.4-4,5-6.2c1.7-0.3,3.3-0.6,5-1
	c-5,7.6-11.3,14.5-18.9,19.5c5.9,5.9,12.2,11.9,20.2,14.8c-10.5,4.8-22.3,6.5-33.6,4.1c-8.2-1.6-16.1-4.4-23.5-8.2
	c-2.2-1.9-3.9-4.3-6.4-5.8C378.4,296.9,366.2,291.4,354.1,285.7z"/>
<path class="st2" d="M189.7,276.6c6.4-2.7,12.8-5.5,19.1-8.3c4.8,5.4,9.8,10.7,14.4,16.2c-10.2,4.7-20.2,9.8-29.4,16.2
	c-3.8,2.5-6.4,6.8-10.9,8.2c-14.6,6-31.6,9.3-46.6,3c12.7,0.4,26.1-0.7,37-7.7C182.7,298.3,188.8,287.7,189.7,276.6z"/>
<path class="st2" d="M360.2,284.5c5.1-5.5,10.1-11.1,15.3-16.6c11,4.3,22.1,8.1,33.2,12c-5.4,4-11.1,8.3-13.8,14.6
	c11.6,0.3,23.1,0.1,34.6,0.2c3.7-3.1,7.4-6.5,12.2-7.8c-4.1,4.7-9.1,8.4-14.4,11.5c4.9,5.7,10.5,10.9,16.7,15.3
	c-14.8,4.4-30.5,0.6-44.1-5.8c-3.2-1.6-5.3-4.8-8.3-6.7C381.7,294.7,370.9,289.7,360.2,284.5z"/>
<path class="st1" d="M440.8,274.6c5.9-0.1,12-1.4,16.9-4.8c-1.5,2.2-2.8,4.6-4.5,6.7c-3.6,1.6-7.7,1.7-11.5,2.1
	C441.4,277.3,441.1,275.9,440.8,274.6z"/>
<path class="st1" d="M328.2,310.1c7.9-7.3,15.8-14.6,23.7-21.9c12.2,5.7,24.7,11.2,35.7,19.1c1.4,1.3,4.4,3.2,3.1,5.4
	c-5.2,3.6-11.8,3.8-17.9,4C357.7,316.6,342.8,313.7,328.2,310.1z"/>
<path class="st1" d="M202.8,303.9c9.5-5.8,19.5-10.6,29.6-15.2c8.3,7.1,16.5,14.2,24.7,21.3c-15.3,4.1-31.2,7-47.1,6.7
	c-5.6-0.3-11.6-0.9-16.1-4.5C195.6,308.2,199.4,306.1,202.8,303.9z"/>
<path class="st1" d="M268.8,318.5c10.5-2,21.2-4.4,32-2.8c21.5,3.1,42.4,9.5,64.1,11.2c10.8,1,21.7-0.9,31.9-4.4
	c-3.2,12-7.2,23.9-13.6,34.7c-0.5,1.1-1.4,1.9-2.6,2.2c-5.7,1.8-11.7,2.1-17.6,2c-12.8-0.3-25.4-2.9-37.7-6.1
	c-22.3-5.7-46.2-5.4-68.4,0.8c-17.4,4.3-36.1,8.2-53.7,2.7c-6.9-11.1-11.2-23.7-14.6-36.3c10.4,3.5,21.4,5.4,32.3,4.3
	C237.1,325.5,253,321.7,268.8,318.5 M282.9,319.8c-21.4,3.4-42.3,9.6-64,11.1c-8.3,0.6-16.6-0.6-24.7-2.6c3,9.3,6.1,18.7,11.4,27
	c2.3,1.5,5.3,1.5,8,2c15.4,1.6,30.8-1.7,45.7-5.7c23.1-5.9,47.7-5.3,70.6,1c16.1,3.8,33.2,7.4,49.6,3.1c5.1-8.5,8.6-17.9,11.5-27.3
	c-7.9,1.8-16,3.1-24.2,2.5c-22-1.4-43.2-7.8-64.9-11.1C295.7,318.7,289.2,318.8,282.9,319.8z"/>
<path class="st2" d="M282.9,319.8c6.3-1,12.8-1.1,19.1,0c21.7,3.4,42.9,9.7,64.9,11.1c8.1,0.6,16.3-0.7,24.2-2.5
	c-2.9,9.5-6.4,18.8-11.5,27.3c-16.4,4.2-33.5,0.7-49.6-3.1c-22.9-6.3-47.5-6.9-70.6-1c-14.8,4-30.2,7.3-45.7,5.7
	c-2.7-0.5-5.7-0.5-8-2c-5.3-8.3-8.5-17.7-11.4-27c8.1,1.9,16.4,3.1,24.7,2.6C240.6,329.4,261.6,323.3,282.9,319.8 M283.7,327.8
	c-0.8,4.9-1.5,9.8-2,14.7c0.4-0.1,1.3-0.4,1.7-0.6c0.6-2.9,0.8-5.9,1.2-8.9c1.5,3,3,6.1,4.6,9.1c1.2-2.9,2.1-6,4-8.6
	c0.6,2.7,1,5.4,1.7,8c0.4,0.1,1.3,0.2,1.8,0.3c-0.9-4.9-1.9-9.7-3.1-14.5c-1.5,3.6-3,7.2-4.5,10.8
	C287.2,334.7,285.6,331.2,283.7,327.8 M276.3,328.4c0,3.9,1.1,7.7,0.4,11.6c-0.6,2.4-4.4,3-5.5,0.7c-1.5-3.7-1-7.8-1.9-11.5
	l-1.4,1.1c0.3,3.7,0.2,7.6,1.6,11.1c2,3.9,8.3,2.8,9.1-1.4c0.5-3.8-0.3-7.7-0.5-11.5L276.3,328.4 M306.1,329.3
	c-5,2.3-5.1,10.2-0.2,12.6c4.4,2.8,10.9-0.5,11.1-5.8C317.6,330.6,310.8,326.5,306.1,329.3 M262.1,331.1c0.4,3.2,0.8,6.4,1.2,9.5
	c-4-2.3-7.9-4.8-11.7-7.4c0.8,4.5,1.5,9,2.4,13.6l1.8-0.1c-0.5-3.1-1.1-6.2-1.6-9.3c3.8,2.4,7.6,4.7,11.3,7.1c-0.5-4.5-1-9-1.5-13.5
	L262.1,331.1 M318.2,343.6c0.5,0,1.5,0.1,2,0.1c0.9-2.8,1.9-5.6,3-8.3c0.9,3.3,1.7,6.6,2.5,9.9c2.1-2.8,4.3-5.6,6.5-8.3
	c-0.2,3.1-0.6,6.2-0.5,9.3l1.6,0.7c0.3-5,0.6-10,0.8-15c-2.6,3.1-5.1,6.3-7.6,9.5c-0.9-3.8-1.9-7.6-2.9-11.4
	C321.7,334.5,320,339.1,318.2,343.6 M339.3,332.8c-0.8,4.8-2,9.6-2.5,14.4l1.4,0.9c0.8-3.6,1.4-7.3,2.1-10.9c3,4.2,5.7,8.5,8.4,12.8
	c0.9-5,2.2-9.9,2.8-15l-1.6-0.6c-0.8,3.6-1.2,7.3-2.3,10.9C345,341.1,342.3,336.8,339.3,332.8 M246.5,334.2c0.4,3.5,1.6,7,1.1,10.6
	c-0.4,2.4-4.1,3.2-5.3,0.9c-1.4-3.2-1.3-6.9-1.9-10.3c-0.4,0.1-1.3,0.4-1.7,0.5c0.6,3.5,0.5,7.1,2,10.4c1.7,3.6,7.5,2.9,8.5-0.9
	c0.8-3.7-0.6-7.5-0.9-11.2C247.9,334.1,246.9,334.2,246.5,334.2 M352.8,350.7c2.7,0.5,5.3,0.9,8,1.2c0.1-0.4,0.2-1.2,0.3-1.6
	c-2-0.3-4-0.6-5.9-0.9c0.3-1.7,0.6-3.4,0.9-5.2c2,0.4,4.1,0.7,6.1,1c-0.2-2.9-3.8-2-5.8-2.7c0.3-1.5,0.5-3,0.8-4.5
	c2-0.1,5.7,2.2,6.3-0.7c-2.7-0.4-5.4-0.9-8-1.4C354.7,340.8,353.6,345.7,352.8,350.7 M228.1,336.9c0.5,3,1,6,1.5,9
	c-4.3-2.6-8.7-5.3-13-7.9c1,4.2,1.7,8.5,2.9,12.6c0.5,0.1,1.5,0.4,2,0.5c-0.5-3-1.1-5.9-1.7-8.8c4.2,2.5,8.4,5.1,12.6,7.6
	c-0.8-4.5-1.6-9-2.4-13.4L228.1,336.9 M210.4,338.7c1,4.3,1.8,8.6,3.2,12.7l1.8,0.3c-1-4.4-2.2-8.7-3.2-13
	C211.8,338.7,210.9,338.7,210.4,338.7 M367.6,340.1c-1.7,4.6,7.8,6.1,3.8,10.4c-2.7,2.4-5-1.1-5.4-3.5c-2.5,1.3-0.8,4.7,1.1,5.6
	c3.5,2,8.4-1.6,7.2-5.5c-0.8-2.8-6-3.8-4.5-7.1c2.4-1.8,4.4,0.9,5.1,2.9C378.7,338.7,368.8,334.9,367.6,340.1z"/>
<path class="st0" d="M283.7,327.8c1.9,3.4,3.5,6.9,5.4,10.3c1.5-3.6,3-7.2,4.5-10.8c1.2,4.8,2.1,9.6,3.1,14.5
	c-0.4-0.1-1.3-0.2-1.8-0.3c-0.8-2.6-1.1-5.4-1.7-8c-1.9,2.6-2.8,5.7-4,8.6c-1.5-3-3-6.1-4.6-9.1c-0.4,2.9-0.6,5.9-1.2,8.9
	c-0.4,0.1-1.3,0.4-1.7,0.6C282.2,337.6,282.9,332.7,283.7,327.8z"/>
<path class="st0" d="M276.3,328.4l1.8,0c0.2,3.8,1,7.7,0.5,11.5c-0.8,4.2-7.1,5.3-9.1,1.4c-1.4-3.5-1.4-7.4-1.6-11.1l1.4-1.1
	c1,3.8,0.4,7.9,1.9,11.5c1.2,2.3,4.9,1.7,5.5-0.7C277.4,336.2,276.4,332.3,276.3,328.4z"/>
<path class="st0" d="M306.1,329.3c4.7-2.8,11.4,1.2,10.9,6.8c-0.1,5.3-6.6,8.6-11.1,5.8C301.1,339.5,301.2,331.6,306.1,329.3
	 M307.4,330.6c-3.9,1.5-4.4,7.6-0.7,9.7c3.3,2.3,8.4-0.3,8.6-4.3C315.8,332,311,328.9,307.4,330.6z"/>
<path class="st2" d="M307.4,330.6c3.6-1.8,8.4,1.4,7.8,5.5c-0.2,4-5.3,6.6-8.6,4.3C303,338.2,303.5,332.1,307.4,330.6z"/>
<path class="st0" d="M262.1,331.1l2-0.2c0.5,4.5,1,9,1.5,13.5c-3.8-2.3-7.6-4.7-11.3-7.1c0.5,3.1,1.1,6.2,1.6,9.3l-1.8,0.1
	c-0.9-4.5-1.6-9-2.4-13.6c3.8,2.6,7.7,5.1,11.7,7.4C262.9,337.4,262.5,334.3,262.1,331.1z"/>
<path class="st0" d="M318.2,343.6c1.8-4.5,3.5-9.1,5.4-13.6c1,3.8,1.9,7.6,2.9,11.4c2.5-3.2,5-6.4,7.6-9.5c-0.2,5-0.5,10-0.8,15
	l-1.6-0.7c-0.1-3.1,0.3-6.2,0.5-9.3c-2.2,2.7-4.4,5.5-6.5,8.3c-0.8-3.3-1.6-6.6-2.5-9.9c-1.1,2.7-2.1,5.5-3,8.3
	C319.7,343.7,318.7,343.6,318.2,343.6z"/>
<path class="st0" d="M339.3,332.8c3,4.1,5.7,8.3,8.4,12.5c1.1-3.6,1.5-7.3,2.3-10.9l1.6,0.6c-0.6,5-1.9,10-2.8,15
	c-2.8-4.3-5.5-8.6-8.4-12.8c-0.7,3.6-1.3,7.3-2.1,10.9l-1.4-0.9C337.4,342.3,338.5,337.6,339.3,332.8z"/>
<path class="st0" d="M246.5,334.2c0.5,0,1.4-0.1,1.8-0.1c0.3,3.7,1.7,7.5,0.9,11.2c-1,3.8-6.8,4.5-8.5,0.9c-1.4-3.3-1.3-6.9-2-10.4
	c0.4-0.1,1.3-0.4,1.7-0.5c0.6,3.4,0.6,7.1,1.9,10.3c1.2,2.2,4.8,1.5,5.3-0.9C248.1,341.2,246.9,337.7,246.5,334.2z"/>
<path class="st0" d="M352.8,350.7c0.8-5,1.9-9.9,2.8-14.9c2.7,0.5,5.4,1,8,1.4c-0.6,2.9-4.3,0.6-6.3,0.7c-0.3,1.5-0.6,3-0.8,4.5
	c1.9,0.8,5.6-0.1,5.8,2.7c-2-0.3-4.1-0.6-6.1-1c-0.3,1.7-0.6,3.4-0.9,5.2c2,0.3,3.9,0.6,5.9,0.9c-0.1,0.4-0.2,1.2-0.3,1.6
	C358.1,351.6,355.5,351.2,352.8,350.7z"/>
<path class="st0" d="M228.1,336.9l1.8-0.3c0.8,4.5,1.6,8.9,2.4,13.4c-4.2-2.5-8.4-5.1-12.6-7.6c0.6,2.9,1.2,5.9,1.7,8.8
	c-0.5-0.1-1.5-0.4-2-0.5c-1.1-4.2-1.9-8.4-2.9-12.6c4.4,2.6,8.7,5.2,13,7.9C229.1,343,228.6,339.9,228.1,336.9z"/>
<path class="st0" d="M210.4,338.7c0.4,0,1.4,0,1.8,0c1,4.4,2.2,8.7,3.2,13l-1.8-0.3C212.3,347.3,211.5,342.9,210.4,338.7z"/>
<path class="st0" d="M367.6,340.1c1.2-5.2,11.1-1.4,7.4,2.8c-0.8-2-2.7-4.7-5.1-2.9c-1.5,3.3,3.7,4.3,4.5,7.1
	c1.2,3.9-3.7,7.5-7.2,5.5c-1.9-0.9-3.6-4.3-1.1-5.6c0.4,2.5,2.7,5.9,5.4,3.5C375.4,346.2,365.9,344.7,367.6,340.1z"/>
<path class="st1" d="M278.1,356.2c11.3-1.6,22.8-1.3,34,0.7c18.2,3.1,36.2,8.6,54.9,8.1c4.8-0.1,9.6-0.7,14.3-2.2
	c-0.9,1.5-1.5,3.3-2.7,4.6c-4.4,1.6-9.1,1.6-13.6,1.7c-15.2-0.1-30.1-3.2-44.9-6.2c-12.6-2.5-25.6-4.5-38.5-2.6
	c-20.2,2.7-40,8.7-60.5,8.8c-4.8,0-9.7-0.2-14.4-1.7c-0.8-1.6-1.6-3.1-2.4-4.6c7.3,2.4,15.1,2.5,22.8,2
	C244.3,363.8,260.9,358.6,278.1,356.2z"/>
</svg>
