<?xml version="1.0" encoding="utf-8"?>
<!-- Generator: Adobe Illustrator 21.1.0, SVG Export Plug-In . SVG Version: 6.00 Build 0)  -->
<svg version="1.1" id="Layer_1" xmlns="http://www.w3.org/2000/svg" xmlns:xlink="http://www.w3.org/1999/xlink" x="0px" y="0px"
	 viewBox="0 0 425.2 425.2" style="enable-background:new 0 0 425.2 425.2;" xml:space="preserve">
<style type="text/css">
	.st0{fill:#13110C;}
</style>
<g>
	<path class="st0" d="M290,196.4c-7.2,0-13.6,5-13.6,13.5c0,8.5,6.4,13.3,13.6,13.3c7,0,13.4-4.8,13.4-13.3
		C303.5,201.4,297.1,196.4,290,196.4z"/>
	<path class="st0" d="M179.1,222.7h11.7c-1.3-2.8-2.8-5.5-4.4-8L179.1,222.7z"/>
	<path class="st0" d="M187.2,205.1l8.9-8.2h-17.9C178.1,197,182.1,199.8,187.2,205.1z"/>
	<path class="st0" d="M78.3,173.8v78.5h269.2v-78.5H78.3z M144,230.3h-12.3l-19-41h9.5l14.4,33.4h2.5l14.4-33.4h9.5L144,230.3z
		 M210.6,230.3h-8.1c1.2,3.4,2.2,7,2.8,10.9H196c-0.4-3.9-1.2-7.5-2.3-10.9h-26.5v-6.7l15.5-14.3c-6.7-8.6-13.3-13.1-13.3-13.1v-6.9
		h35.2v5.9l-13.3,14.5c2.8,3.6,5.7,8,8.2,13h11.3V230.3z M239.6,231.1c-14,0-23.1-8.8-23.1-21.1c0-12.3,9.3-21.1,22.6-21.1
		c17.6,0,19.6,14.1,19.6,14.1l-7.6,4.6c0,0-0.6-10.5-12.1-10.5c-7.4,0-12.8,5-12.8,13c0,8,5.6,12.8,13.3,12.8
		c11.7,0,12.6-9.7,12.6-9.7h8.9C260.9,213,260.2,231.1,239.6,231.1z M290,231.1c-13.9,0-23.2-9.3-23.2-21.1s9.3-21.1,23.2-21.1
		c13.9,0,23.1,9.3,23.1,21.1S303.9,231.1,290,231.1z"/>
</g>
<g>
	<path class="st0" d="M375.4,280.2h-325V145.9h325V280.2z M64,266.5h297.7v-107H64V266.5z"/>
</g>
</svg>
