<?xml version="1.0" encoding="utf-8"?>
<!-- Generator: Adobe Illustrator 21.0.0, SVG Export Plug-In . SVG Version: 6.00 Build 0)  -->
<svg version="1.1" id="Layer_1" xmlns="http://www.w3.org/2000/svg" xmlns:xlink="http://www.w3.org/1999/xlink" x="0px" y="0px"
	 viewBox="0 0 995.4 752.6" style="enable-background:new 0 0 995.4 752.6;" xml:space="preserve">
<style type="text/css">
	.st0{fill:#FD0002;stroke:#FD0002;stroke-width:9.375000e-02;}
	.st1{stroke:#000000;stroke-width:9.375000e-02;}
</style>
<path class="st0" d="M159.3,6.8c2.8-2.5,4.9-6.9,9.2-6.7c218.7,0,437.4,0,656.2,0c2.2-0.1,4.4,0.4,5.8,2.1
	C885.3,60,940.4,117.6,995.3,175.3c-38.2,44.7-76.7,89-115,133.6C757,452.2,633.6,595.4,510.2,738.7c-4.1,4.6-7.9,9.6-12.4,13.8
	c-20.3-23-40.1-46.4-60.1-69.6C291.8,513.6,145.9,344.3,0.1,174.9c3.3-4.1,7.1-7.8,10.7-11.6C60.2,111.1,109.8,59,159.3,6.8
	 M178.2,27.8c-1.9,1.3-3.3,3.3-4.8,5c-3.8,4.6-8.2,8.5-12.1,13c-7.4,8.8-16.5,16.1-24.1,24.8c-10,12-22,22-32.4,33.6
	c-4.8,5.6-10.1,10.6-14.9,16.2c-4.9,5.8-10.8,10.6-15.6,16.4c-5.8,6.9-12.7,12.7-18.5,19.5c-4.8,5.5-10.1,10.6-15.1,15.8
	c-1.1,1.6-3.7,3.5-2.1,5.6c2.7,4.9,7,8.6,10.3,13.1c4.1,5.5,8.9,10.4,13.6,15.4c11.5,13.5,23.9,26.3,34.5,40.6
	c5.7,6.6,11.9,12.8,17.3,19.7c10,10.1,18.5,21.4,27.9,32.1c13.6,15.8,27.2,31.5,40.7,47.3c4.9,6.1,10.5,11.5,15.5,17.5
	c9.1,10.9,17.8,22.2,27.7,32.4c2.8,3.2,5.2,6.8,8,9.9c7.2,7.8,13.5,16.4,21,24c13.4,15.3,26.5,30.9,39.9,46.1
	c13.1,14.2,24.2,30.3,38.1,43.9c5,6.3,10.1,12.5,15.6,18.4c8,10.3,17,19.6,25.6,29.5c7.3,7.7,13.5,16.5,20.6,24.3
	c12.3,14.6,25.2,28.8,37.9,43.1c21.1,25,42.6,49.8,64.1,74.5c1.5-1.2,2.9-2.4,4.2-3.7c10.2-11.5,19.7-23.6,30-35
	c5.4-5,9.7-11,14.3-16.6c10.4-11.6,20.2-23.8,30.8-35.2c10.5-12.5,21.8-24.3,31.8-37.2c4.9-6.4,11.2-11.5,16.1-17.9
	c2-2.7,3.9-5.4,6.1-8c14.1-16.5,28.5-32.9,42.7-49.3c6.7-8.3,14.2-15.8,20.9-24.1c12.5-13.3,23.9-27.4,35.6-41.4
	c7.2-9.1,15.3-17.5,22.5-26.6c11.2-12.8,22.2-25.7,33.8-38.1c5-5.4,9-11.6,14-17c3.7-4,7.2-8.2,10.7-12.3
	c11.7-12.7,22.4-26.3,33.8-39.2c6.3-7.7,13.7-14.4,19.5-22.5c10.9-13,22.8-25.2,33.7-38.3c4.6-5.7,10-10.9,14.2-17
	c5-7.2,11.7-12.9,17.3-19.6c4.5-5.2,8.4-10.9,13.1-16c5.2-6.1,11.2-11.5,15.4-18.3c-4.4-5.5-10-9.7-14.5-15.1
	c-5.8-6.9-12.5-12.9-18.5-19.5c-4.2-4.8-8.8-9.3-13.2-13.9c-6.8-6.9-13-14.3-20-21c-4.8-4.6-8.8-9.8-13.5-14.5
	c-5.8-6.2-12.2-11.8-17.8-18.2c-7.8-8.8-16.8-16.6-24.3-25.7c-4.5-5.5-9.7-10.3-14.4-15.7c-2.3-2.4-4.7-5.6-8.5-5.2
	c-206.7,0-413.4,0-620.1,0C187.8,27.5,182.9,26.8,178.2,27.8z"/>
<path class="st1" d="M178.2,27.8c4.7-1,9.6-0.3,14.4-0.4c206.7,0,413.4,0,620.1,0c3.8-0.5,6.2,2.7,8.5,5.2
	c4.7,5.3,9.8,10.2,14.4,15.7c7.5,9.1,16.5,16.9,24.3,25.7c5.6,6.3,12,12,17.8,18.2c4.6,4.7,8.7,10,13.5,14.5c7,6.7,13.2,14.1,20,21
	c4.4,4.6,9,9.1,13.2,13.9c6,6.6,12.7,12.6,18.5,19.5c4.5,5.3,10.1,9.6,14.5,15.1c-4.2,6.8-10.3,12.2-15.4,18.3
	c-4.6,5.1-8.5,10.8-13.1,16c-5.6,6.6-12.4,12.4-17.3,19.6c-4.2,6.1-9.6,11.2-14.2,17c-10.9,13.1-22.7,25.3-33.7,38.3
	c-5.7,8.2-13.1,14.9-19.5,22.5c-11.4,13-22.1,26.5-33.8,39.2c-3.5,4.1-7,8.3-10.7,12.3c-5,5.4-9,11.6-14,17
	c-11.6,12.4-22.6,25.4-33.8,38.1c-7.2,9.1-15.3,17.5-22.5,26.6c-11.7,13.9-23.2,28.1-35.6,41.4c-6.7,8.3-14.3,15.8-20.9,24.1
	c-14.2,16.5-28.6,32.8-42.7,49.3c-2.2,2.6-4.1,5.3-6.1,8c-4.8,6.4-11.2,11.5-16.1,17.9c-10,12.9-21.3,24.8-31.8,37.2
	c-10.6,11.5-20.4,23.6-30.8,35.2c-4.6,5.7-8.9,11.7-14.3,16.6c-10.3,11.4-19.8,23.6-30,35c-1.3,1.3-2.8,2.5-4.2,3.7
	c-21.5-24.7-42.9-49.4-64.1-74.5c-12.7-14.3-25.6-28.5-37.9-43.1c-7.2-7.9-13.3-16.6-20.6-24.3c-8.5-9.8-17.6-19.2-25.6-29.5
	c-5.5-5.9-10.6-12.1-15.6-18.4c-13.9-13.6-25-29.6-38.1-43.9c-13.4-15.3-26.5-30.8-39.9-46.1c-7.4-7.6-13.8-16.2-21-24
	c-2.9-3.2-5.2-6.7-8-9.9c-9.9-10.2-18.6-21.5-27.7-32.4c-5-5.9-10.6-11.4-15.5-17.5c-13.5-15.8-27.1-31.5-40.7-47.3
	c-9.4-10.6-17.9-22-27.9-32.1c-5.4-6.9-11.6-13.1-17.3-19.7c-10.6-14.2-23-27.1-34.5-40.6c-4.7-5-9.4-9.9-13.6-15.4
	c-3.3-4.5-7.6-8.2-10.3-13.1c-1.5-2.1,1-4,2.1-5.6c5.1-5.3,10.4-10.3,15.1-15.8c5.8-6.8,12.8-12.6,18.5-19.5
	c4.9-5.8,10.7-10.6,15.6-16.4c4.7-5.6,10.1-10.6,14.9-16.2c10.4-11.6,22.4-21.6,32.4-33.6c7.5-8.7,16.6-16,24.1-24.8
	c3.8-4.5,8.3-8.4,12.1-13C174.9,31.1,176.3,29.2,178.2,27.8 M209.9,60.5c-7.4,5.1-14.5,10.7-19.9,18c-3.2,4.4-7.1,8.4-9.7,13.2
	c-4.1,7.8-7.1,16.1-9.9,24.5c-2.2,6.7-3.5,13.7-3.5,20.8c0,53,0,106.1,0,159.1c-0.3,3.1,2,5.4,3.9,7.6c5.2,5.5,9.6,11.7,15.2,16.9
	c4.7,4.4,8,9.9,12.4,14.6c3.8,4.2,7.8,8.1,11.3,12.6c5.8,7.8,12.7,14.7,19.3,21.8c6.3,5.8,10.5,13.4,16.6,19.4
	c4.7,4.6,8.3,10.3,12.8,15.1c10.5,11.8,20.4,24.3,31.6,35.5c3.6,3.9,6.2,8.8,10.8,11.7c0.3-30.8,0-61.5,0.1-92.3
	c0-65.7,0-131.3,0-197c0-2.3,0.1-4.7,0.3-7c6.7-0.4,13.5-0.2,20.2-0.2c112,0,224,0,336,0c16,0.2,32.1-0.4,48.1,0.3
	c0.7,17.8-0.1,35.6,0.4,53.5c15.3-3.4,30-8.7,45.3-12c19-4.8,38.1-9.8,57-15c10.3-3.5,20.9-5.7,31.4-8.4c0.4-9.4,0-18.8,0.2-28.2
	c0.2-9-0.8-18.1-2.8-26.9c-2.5-10.4-7.7-19.8-12.8-29.1c-3.8-6.5-8.7-12.5-14.5-17.4c-8.8-7.3-17.6-15-28.2-19.6
	c-10.5-4.4-21.8-7.3-33.1-8.5c-41.7-0.2-83.4,0-125-0.1c-120,0-240,0-360,0C244.6,44.1,225.6,49.8,209.9,60.5 M494.2,270.7
	c-0.3,32.6,0.1,65.2-0.2,97.9c70.7,0.2,141.3-0.1,212,0.1c0.3,15.1,0,30.3,0.1,45.4c0.1,7.2-0.4,14.5,0.4,21.7
	c5.5-4.4,9.9-9.9,14.9-14.8c16.6-19.5,33.6-38.4,50.2-57.8c8.4-8.6,15.4-18.4,23.8-27.1c13.1-15.8,26.8-31.2,40.7-46.4
	c5.2-4.9,3.8-12.7,3.2-19c-67.9,0-135.8,0-203.7,0C588.4,270.6,541.3,270.3,494.2,270.7 M336.5,491.7c1,2.4,2.1,4.8,3.8,6.8
	c12.6,13.4,23.8,28.1,36.8,41.1c17.1,20.9,35.4,40.6,52.8,61.2c1.3,1.8,3.3,3,5.6,2.8c38,0,76,0,114,0c4.1-0.1,8.3,0.5,12.3-0.4
	c2.9-2,4.9-5,7.1-7.7c6.7-8.6,14.6-16.1,21.5-24.5c9.8-11.8,20.3-23,30.1-34.8c8.3-11,18.3-20.5,27.1-31c3.5-4.5,8.3-8.1,10.6-13.5
	c-4.3-0.3-8.5-0.3-12.8-0.2C542.5,491.7,439.5,491.4,336.5,491.7z"/>
<path class="st0" d="M209.9,60.5c15.7-10.8,34.6-16.4,53.6-17c120,0,240,0,360,0c41.7,0.1,83.3-0.1,125,0.1
	c11.3,1.2,22.6,4.1,33.1,8.5c10.7,4.6,19.4,12.3,28.2,19.6c5.8,4.9,10.7,10.8,14.5,17.4c5.1,9.3,10.3,18.7,12.8,29.1
	c2,8.8,3.1,17.9,2.8,26.9c-0.1,9.4,0.3,18.8-0.2,28.2c-10.5,2.7-21.1,4.9-31.4,8.4c-19,5.2-38,10.1-57,15
	c-15.3,3.3-30.1,8.5-45.3,12c-0.5-17.8,0.3-35.6-0.4-53.5c-16-0.8-32.1-0.1-48.1-0.3c-112,0-224,0-336,0c-6.8,0-13.5-0.2-20.2,0.2
	c-0.2,2.3-0.3,4.7-0.3,7c0,65.7,0,131.3,0,197c-0.1,30.8,0.2,61.5-0.1,92.3c-4.6-2.9-7.2-7.8-10.8-11.7
	c-11.2-11.2-21-23.7-31.6-35.5c-4.5-4.8-8.1-10.5-12.8-15.1c-6.1-6-10.3-13.6-16.6-19.4c-6.6-7.1-13.5-14-19.3-21.8
	c-3.5-4.4-7.5-8.4-11.3-12.6c-4.4-4.6-7.7-10.2-12.4-14.6c-5.5-5.2-10-11.4-15.2-16.9c-1.9-2.1-4.3-4.4-3.9-7.6
	c0.1-53,0-106.1,0-159.1c0-7.1,1.3-14.1,3.5-20.8c2.8-8.4,5.8-16.7,9.9-24.5c2.6-4.8,6.4-8.8,9.7-13.2
	C195.4,71.3,202.6,65.6,209.9,60.5z"/>
<path class="st0" d="M494.2,270.7c47.1-0.4,94.2,0,141.4-0.2c67.9,0,135.8,0,203.7,0c0.6,6.4,2,14.1-3.2,19
	c-13.9,15.2-27.5,30.6-40.7,46.4c-8.4,8.7-15.4,18.5-23.8,27.1c-16.6,19.4-33.7,38.4-50.2,57.8c-4.9,5-9.4,10.5-14.9,14.8
	c-0.8-7.2-0.3-14.5-0.4-21.7c-0.1-15.1,0.2-30.3-0.1-45.4c-70.7-0.3-141.3,0-212-0.1C494.3,335.9,493.8,303.3,494.2,270.7z"/>
<path class="st0" d="M336.5,491.7c103-0.2,206.1,0,309.1-0.1c4.3-0.1,8.5,0,12.8,0.2c-2.3,5.3-7.1,9-10.6,13.5
	c-8.8,10.5-18.8,20-27.1,31c-9.8,11.8-20.3,23-30.1,34.8c-6.9,8.4-14.8,16-21.5,24.5c-2.3,2.6-4.2,5.7-7.1,7.7
	c-4,0.9-8.2,0.3-12.3,0.4c-38,0-76,0-114,0c-2.3,0.2-4.3-1-5.6-2.8c-17.4-20.6-35.8-40.3-52.8-61.2c-13-13-24.2-27.7-36.8-41.1
	C338.5,496.5,337.5,494,336.5,491.7z"/>
</svg>
