<?xml version="1.0" encoding="utf-8"?>
<!-- Generator: Adobe Illustrator 21.0.0, SVG Export Plug-In . SVG Version: 6.00 Build 0)  -->
<svg version="1.1" id="Layer_1" xmlns="http://www.w3.org/2000/svg" xmlns:xlink="http://www.w3.org/1999/xlink" x="0px" y="0px"
	 viewBox="0 0 392.846 324.598" style="enable-background:new 0 0 392.846 324.598;" xml:space="preserve">
<style type="text/css">
	.st0{fill:#4D307E;stroke:#4D307E;stroke-width:0.0938;}
	.st1{fill:#FB923C;stroke:#FB923C;stroke-width:0.0938;}
</style>
<path class="st0" d="M66.437,0.047h260.26c21.88,20.85,44.32,41.12,66.09,62.07c-45.35,81.55-91.07,162.89-136.57,244.35
	c-3.59,5.95-6.45,12.33-10.42,18.06c-32.98-0.14-65.97,0.25-98.95-0.2c-38.36-68.44-76.72-136.89-115.08-205.33
	c-10.55-18.98-21.42-37.79-31.71-56.9c4.09-4.48,8.86-8.26,13.17-12.52C30.947,33.047,48.707,16.567,66.437,0.047 M72.247,16.717
	c-5.08,4.17-9.21,9.42-14.5,13.38c-5.91,5.77-12.05,11.28-18.11,16.88c-5.95,6.44-13.39,11.33-18.94,18.15
	c1.89,6.7,6.71,11.91,9.62,18.12c4.04,7.71,8.74,15.06,12.44,22.95c9.64,16.7,19.3,33.4,28.36,50.43
	c24.53,0.16,49.05,0.06,73.58,0.04c2.57,0.13,5.3-0.39,7.76,0.5c2.9,2.97,4.44,6.99,6.24,10.68c-6.31,0.74-12.67,0.27-19,0.39
	c-20.64,0.08-41.28-0.17-61.91,0.12c7.08,12.16,13.4,24.75,20.81,36.72c3.17,5.33,5.5,11.12,8.82,16.37
	c3.1,4.92,5.66,10.15,8.75,15.07c25.19-0.02,50.39-0.09,75.58,0.03c1.35-0.11,2.83,0.2,4.09-0.42c1.67-2.11,2.58-4.68,3.96-6.96
	c7.2-11.41,13-23.61,19.71-35.3c5.05-8.11,9.45-16.6,13.97-25.02c4.12-6.41,7.39-13.29,11.07-19.95
	c8.24-13.56,15.54-27.66,23.42-41.43c2.63-6.09,6.92-11.35,8.99-17.69c-5.75-0.36-11.51-0.14-17.26-0.19
	c-47.66,0.01-95.32-0.02-142.97,0.02c-1.34,0.28-2.3-0.52-2.87-1.64c-1.97-3.31-4.3-6.55-5.09-10.4
	c27.23,0.09,54.45,0.03,81.68,0.04c-0.17-20.39,0.01-40.78-0.1-61.17c-35.55,0.12-71.1,0.02-106.65,0.06
	C79.887,16.567,76.037,16.187,72.247,16.717 M202.397,16.747c-0.3,20.23-0.22,40.47-0.05,60.7c31.76,0.35,63.53,0.12,95.29,0.11
	c-0.62,2.31-1.51,4.55-2.81,6.57c-5.26,8.29-9.44,17.19-14.29,25.71c-3.61,5.5-6.34,11.49-9.86,17.04
	c-2.81,4.46-4.79,9.37-7.38,13.95c-10.08,17.32-19.41,35.05-29.39,52.45c-3.92,5.71-6.59,12.13-9.97,18.15
	c-3.51,5.54-6.06,11.63-9.82,17.02c-3.2,6.1-6.34,12.24-9.89,18.14c-0.58,0.89-1.43,1.24-2.55,1.06
	c-26.19,0.11-52.39-0.27-78.57,0.19c2.11,7.42,7.48,13.25,10.61,20.21c4.43,8.19,8.97,16.32,13.59,24.4
	c2.59,5.62,6.75,10.35,8.99,16.14c25.81,0.21,51.63-0.01,77.44,0.12c1.21-0.14,2.88,0.28,3.53-1.1
	c11.71-21.54,24.17-42.68,35.88-64.24c11.22-19.46,21.55-39.43,33.07-58.7c14.2-26.64,29.73-52.54,43.93-79.19
	c7.68-13.29,15.13-26.72,22.46-40.21c-5.26-6.14-11.81-10.96-17.48-16.68c-5.85-6.16-12.73-11.22-18.49-17.47
	c-5.63-4.79-10.71-10.39-16.95-14.37c-5.65-0.43-11.33-0.02-16.99-0.15C269.267,16.697,235.827,16.397,202.397,16.747z"/>
<path class="st1" d="M72.247,16.717c3.79-0.53,7.64-0.15,11.45-0.22c35.55-0.04,71.1,0.06,106.65-0.06
	c0.11,20.39-0.07,40.78,0.1,61.17c-27.23-0.01-54.45,0.05-81.68-0.04c0.79,3.85,3.12,7.09,5.09,10.4c0.57,1.12,1.53,1.92,2.87,1.64
	c47.65-0.04,95.31-0.01,142.97-0.02c5.75,0.05,11.51-0.17,17.26,0.19c-2.07,6.34-6.36,11.6-8.99,17.69
	c-7.88,13.77-15.18,27.87-23.42,41.43c-3.68,6.66-6.95,13.54-11.07,19.95c-4.52,8.42-8.92,16.91-13.97,25.02
	c-6.71,11.69-12.51,23.89-19.71,35.3c-1.38,2.28-2.29,4.85-3.96,6.96c-1.26,0.62-2.74,0.31-4.09,0.42
	c-25.19-0.12-50.39-0.05-75.58-0.03c-3.09-4.92-5.65-10.15-8.75-15.07c-3.32-5.25-5.65-11.04-8.82-16.37
	c-7.41-11.97-13.73-24.56-20.81-36.72c20.63-0.29,41.27-0.04,61.91-0.12c6.33-0.12,12.69,0.35,19-0.39
	c-1.8-3.69-3.34-7.71-6.24-10.68c-2.46-0.89-5.19-0.37-7.76-0.5c-24.53,0.02-49.05,0.12-73.58-0.04
	c-9.06-17.03-18.72-33.73-28.36-50.43c-3.7-7.89-8.4-15.24-12.44-22.95c-2.91-6.21-7.73-11.42-9.62-18.12
	c5.55-6.82,12.99-11.71,18.94-18.15c6.06-5.6,12.2-11.11,18.11-16.88C63.037,26.137,67.167,20.887,72.247,16.717z"/>
<path class="st1" d="M202.397,16.747c33.43-0.35,66.87-0.05,100.3-0.15c5.66,0.13,11.34-0.28,16.99,0.15
	c6.24,3.98,11.32,9.58,16.95,14.37c5.76,6.25,12.64,11.31,18.49,17.47c5.67,5.72,12.22,10.54,17.48,16.68
	c-7.33,13.49-14.78,26.92-22.46,40.21c-14.2,26.65-29.73,52.55-43.93,79.19c-11.52,19.27-21.85,39.24-33.07,58.7
	c-11.71,21.56-24.17,42.7-35.88,64.24c-0.65,1.38-2.32,0.96-3.53,1.1c-25.81-0.13-51.63,0.09-77.44-0.12
	c-2.24-5.79-6.4-10.52-8.99-16.14c-4.62-8.08-9.16-16.21-13.59-24.4c-3.13-6.96-8.5-12.79-10.61-20.21
	c26.18-0.46,52.38-0.08,78.57-0.19c1.12,0.18,1.97-0.17,2.55-1.06c3.55-5.9,6.69-12.04,9.89-18.14c3.76-5.39,6.31-11.48,9.82-17.02
	c3.38-6.02,6.05-12.44,9.97-18.15c9.98-17.4,19.31-35.13,29.39-52.45c2.59-4.58,4.57-9.49,7.38-13.95
	c3.52-5.55,6.25-11.54,9.86-17.04c4.85-8.52,9.03-17.42,14.29-25.71c1.3-2.02,2.19-4.26,2.81-6.57
	c-31.76,0.01-63.53,0.24-95.29-0.11C202.177,57.217,202.097,36.977,202.397,16.747z"/>
</svg>
