<?xml version="1.0" encoding="utf-8"?>
<!-- Generator: Adobe Illustrator 21.0.0, SVG Export Plug-In . SVG Version: 6.00 Build 0)  -->
<svg version="1.1" id="Layer_1" xmlns="http://www.w3.org/2000/svg" xmlns:xlink="http://www.w3.org/1999/xlink" x="0px" y="0px"
	 viewBox="0 0 472.61 605.698" style="enable-background:new 0 0 472.61 605.698;" xml:space="preserve">
<style type="text/css">
	.st0{fill:#FFFFFF;stroke:#FFFFFF;stroke-width:0.0938;}
	.st1{stroke:#000000;stroke-width:0.0938;}
	.st2{fill:#7E57C2;stroke:#7E57C2;stroke-width:0.0938;}
</style>
<path class="st0" d="M16.427,10.521c0.29-3.87,1.7-8.38,5.71-9.84c5.31-2.05,11.57,1.09,13.74,6.21
	c14.45,29,36.73,55.85,67.15,68.73c7.15,3.24,14.07,6.98,21.06,10.53c15.59-7.5,32.14-12.88,49.02-16.59
	c20.99-4.75,42.6-5.53,64.03-6.13c28.99-0.32,58.04,1.31,86.76,5.29c7.64,0.94,15.53,3.04,23.14,0.84
	c22.24-6.94,41.35-22.98,52.55-43.36c1.84-3.29,3.13-7.41,6.85-9.09c4.85-2.43,12.67-1.1,13.97,4.94
	c1.52,8.86,0.59,17.97-0.51,26.84c3.81-5.42,7.03-11.23,10.62-16.8c2.56-3.96,8.44-6.84,12.58-3.44c4.41,3.99,4,10.53,4.06,15.97
	c-0.83,31.53-11.02,62.31-26.51,89.6c-8.6,15.78-14.99,32.87-17.88,50.64c-3.39,19.85-1.8,40.7,5.84,59.42
	c1.86,5.07,5.17,9.76,5.33,15.33c0.46,10.67,0.22,21.38-0.65,32.03c-3.09,40.18-17.87,79.68-43.49,110.95
	c12.78-2.86,25.59-5.6,38.39-8.41c9.28-2.04,19.06-2.58,28.33-0.16c10.73,2.65,20.28,9.55,26.3,18.81
	c8.05,12.23,10.55,27.39,9.53,41.8c-0.98,14.03-5.68,27.88-14.18,39.14c-0.86,18.97-0.7,38.01-1.33,57
	c-0.45,8.73-6.21,16.87-14.23,20.3c-3.17,1.39-6.63,1.85-10.01,2.41c-65.39,10.69-130.75,21.53-196.14,32.17h-5.07
	c-10.71-0.69-21.01-6.43-26.98-15.38c-5.6-7.88-6.6-17.83-6.86-27.2c-45.88,9.52-91.76,19.01-137.64,28.52
	c-5.59,1.11-11.27,2.81-17.01,1.84c-9.57-1.33-17.97-8.43-20.97-17.6c-6.62-19.37-13.18-38.76-19.8-58.13
	c-1.16-3.34-1.91-6.83-2.08-10.36v-1.32c0.34-9.77,5.67-19.27,14.16-24.23c4.78-2.99,10.42-3.87,15.83-5.05
	c42.69-9.31,85.37-18.65,128.06-27.95c-14.19-5.44-27.77-12.45-40.44-20.84c-29.07-19.22-52.45-46.35-68.84-76.98
	c-15.17-28.66-24.48-60.81-24.52-93.37c-0.01-28.36,4.32-57.05,15.66-83.2c3.05-6.6,5.45-14.05,3.49-21.34
	c-0.54-2.17-2.63-3.3-4.3-4.52c-10.28-6.84-19.35-15.69-25.82-26.25c-2.1-3.64-3.04-8.93,0.15-12.24c2.81-2.82,7.12-2.09,10.62-1.32
	c-6.32-7.86-11.33-16.77-14.77-26.25c-1.26-3.44-1.34-7.64,0.86-10.72c3.36-4.29,10.31-5.27,14.6-1.84
	c2.73,2.19,5.31,4.56,8.07,6.72C22.067,56.471,14.347,33.671,16.427,10.521 M26.247,9.801c-2.16,19.8,3.81,39.48,12.5,57.08
	c6.86,13.96,17.1,25.8,25.92,38.49c-14.62-5.28-28.15-13.33-40.23-23.07c-2.16-1.72-4.1-3.74-6.56-5.05
	c3.38,10.67,9.27,20.46,16.62,28.88c8.69,10.03,19.52,17.89,30.66,24.98c-15.39-2.45-30.14-7.87-44.04-14.82
	c5.89,10.18,14.67,18.44,24.43,24.87c3.16,1.99,5.89,4.88,7.02,8.51c2.68,8.8,0.96,18.34-2.84,26.54
	c-7.57,17.23-12.31,35.62-14.25,54.33c-2.24,20.6-2.23,41.65,2.26,61.96c3.94,18.84,10.64,37.09,19.73,54.05
	c15.29,28.42,36.74,53.84,63.57,71.96c23.66,16.28,51,26.88,79.29,31.57c-4.15,0.51-8.19,1.56-12.27,2.43
	c-53.38,11.64-106.74,23.32-160.12,34.95c-3.54,0.68-7.16,1.68-10.06,3.94c-6.51,4.69-9.45,13.7-6.81,21.31
	c6.74,19.97,13.56,39.93,20.36,59.88c2.39,7.66,11.01,12.64,18.84,10.74c52.98-10.95,105.95-21.94,158.92-32.91
	c-1.89,7.64-2,15.63-0.66,23.37c1.52,13.45,15.24,23.91,28.63,21.59c66.01-10.79,132.01-21.65,198-32.51
	c6.38-0.89,11.6-6.73,11.71-13.18c0.46-19.98,0.73-39.96,1.18-59.94c6.36-6.66,10.29-15.28,12.47-24.15
	c2.97-12.42,2.9-25.79-1.42-37.89c-3.15-8.87-9.22-17.01-17.76-21.29c-9.33-4.79-20.35-4.75-30.4-2.57
	c-24.12,5.27-48.25,10.51-72.36,15.82c24.19-18.9,41.83-45.29,52.74-73.8c10.34-27.04,14.01-56.3,12.96-85.14
	c0.02-2.89-1.46-5.43-2.6-7.98c-7.88-17.18-11.23-36.32-10.09-55.16c1.49-25.84,10.48-50.76,23.31-73.07
	c13.83-26.06,22.95-55.3,22.48-85c-7.15,11.73-14.61,23.36-23.81,33.61c-5.47,6.23-11.69,12.17-19.47,15.37
	c11.67-18.77,19.05-40.86,17.06-63.16c-12.45,25.45-35.29,46.03-62.7,53.92c-9.39,2.37-18.98-0.08-28.34-1.28
	c-23.91-3.18-48.02-4.64-72.13-4.9c-21.07,0.16-42.24,0.7-63.08,4.07c-20.23,3.61-40.15,9.58-58.59,18.76
	c-1.26,0.65-2.68,1.18-3.97,0.24c-9.96-5.14-19.94-10.25-30.16-14.87C62.457,66.341,41.047,38.971,26.247,9.801z"/>
<path class="st1" d="M26.247,9.801c14.8,29.17,36.21,56.54,65.94,71.48c10.22,4.62,20.2,9.73,30.16,14.87
	c1.29,0.94,2.71,0.41,3.97-0.24c18.44-9.18,38.36-15.15,58.59-18.76c20.84-3.37,42.01-3.91,63.08-4.07
	c24.11,0.26,48.22,1.72,72.13,4.9c9.36,1.2,18.95,3.65,28.34,1.28c27.41-7.89,50.25-28.47,62.7-53.92
	c1.99,22.3-5.39,44.39-17.06,63.16c7.78-3.2,14-9.14,19.47-15.37c9.2-10.25,16.66-21.88,23.81-33.61c0.47,29.7-8.65,58.94-22.48,85
	c-12.83,22.31-21.82,47.23-23.31,73.07c-1.14,18.84,2.21,37.98,10.09,55.16c1.14,2.55,2.62,5.09,2.6,7.98
	c1.05,28.84-2.62,58.1-12.96,85.14c-10.91,28.51-28.55,54.9-52.74,73.8c24.11-5.31,48.24-10.55,72.36-15.82
	c10.05-2.18,21.07-2.22,30.4,2.57c8.54,4.28,14.61,12.42,17.76,21.29c4.32,12.1,4.39,25.47,1.42,37.89
	c-2.18,8.87-6.11,17.49-12.47,24.15c-0.45,19.98-0.72,39.96-1.18,59.94c-0.11,6.45-5.33,12.29-11.71,13.18
	c-65.99,10.86-131.99,21.72-198,32.51c-13.39,2.32-27.11-8.14-28.63-21.59c-1.34-7.74-1.23-15.73,0.66-23.37
	c-52.97,10.97-105.94,21.96-158.92,32.91c-7.83,1.9-16.45-3.08-18.84-10.74c-6.8-19.95-13.62-39.91-20.36-59.88
	c-2.64-7.61,0.3-16.62,6.81-21.31c2.9-2.26,6.52-3.26,10.06-3.94c53.38-11.63,106.74-23.31,160.12-34.95
	c4.08-0.87,8.12-1.92,12.27-2.43c-28.29-4.69-55.63-15.29-79.29-31.57c-26.83-18.12-48.28-43.54-63.57-71.96
	c-9.09-16.96-15.79-35.21-19.73-54.05c-4.49-20.31-4.5-41.36-2.26-61.96c1.94-18.71,6.68-37.1,14.25-54.33
	c3.8-8.2,5.52-17.74,2.84-26.54c-1.13-3.63-3.86-6.52-7.02-8.51c-9.76-6.43-18.54-14.69-24.43-24.87
	c13.9,6.95,28.65,12.37,44.04,14.82c-11.14-7.09-21.97-14.95-30.66-24.98c-7.35-8.42-13.24-18.21-16.62-28.88
	c2.46,1.31,4.4,3.33,6.56,5.05c12.08,9.74,25.61,17.79,40.23,23.07c-8.82-12.69-19.06-24.53-25.92-38.49
	C30.057,49.281,24.087,29.601,26.247,9.801 M305.137,116.531c-15.69,0.51-31.4,1.28-47.08,0.29c-9.71-0.39-19.46-1.02-29.15,0.07
	c-28.47,3.55-55.21,16.43-77.69,33.95c-4.23,3.21-8.06,6.89-12.27,10.12c-3.33-6.65-8.01-13.22-15.17-16.04
	c-7.48-3.13-15.94-0.31-22.36,3.96c-21.57,15.02-35.19,39.34-40.79,64.67c-7.22,33.2-4.39,68.35,7.25,100.23
	c9.97,28.35,27.29,54.27,50.71,73.26c24.18,19.68,53.98,33.78,85.51,34.96c32.06,1.9,63.96-8.99,90.13-27.17
	c21.01-14.75,39.47-33.77,51.38-56.66c-28.62,15.52-61.84,19.56-93.94,18.93c1.84-1.63,4.26-2.29,6.47-3.24
	c16.65-6.98,32.33-16.35,46.17-27.97c24.74-20.68,43.58-48.23,54.27-78.62c0.98-2.78-0.12-5.72-0.26-8.55
	c-1.01-11.24-3.34-22.3-5.92-33.27c-1.31-14.31,2.85-28.62,8.98-41.44c8.42-17.59,20.77-32.87,33.4-47.58
	c1.88-2.11,3.66-4.29,5.27-6.6c-15.31,16.64-36.28,26.26-56.67,35.13c-18.09,7.83-37.66,12.37-57.4,12.48
	c-7.08-0.31-14.19-1.26-20.96-3.44c2.97-2.12,5.6-4.9,9.15-6.06c15.17-4.88,29.81-11.43,43.54-19.52
	c10.62-6.2,20.5-13.54,30.42-20.77C334.467,113.171,319.757,115.441,305.137,116.531 M407.307,421.011
	c-20.61,4.29-35.81,25.89-33.05,46.73c0.88,7.65,4.77,14.99,10.89,19.73c6.36,4.98,14.92,6.82,22.82,5.36
	c21.74-3.49,37.99-26.41,34.52-48.06c-1.43-9.44-7.63-18.24-16.47-22.08C420.177,420.091,413.527,419.681,407.307,421.011
	 M329.557,442.141c-13.56,9.81-19.18,28.47-14.76,44.38c2.18,8.08,8.14,15.34,16.29,17.85c7.98,2.83,16.5,0.75,24.44-1.14
	c4.77-1.08,8.69-5.51,8.54-10.5c-0.02-7.05-0.45-14.09-0.61-21.14c-0.04-2.93-0.57-6.43-3.44-7.95c-5.22-2.91-12.1,0.5-14.23,5.77
	c-1.6,5.3-0.23,10.96-0.4,16.42c-4.17,0.46-8.97-0.37-11.44-4.12c-4.92-7.66-2.43-18.85,5.02-23.99c4.61-3.55,10.7-3.46,16.02-5.21
	c5.93-2.05,9.1-9.55,6.5-15.25c-1.22-2.79-4.32-4.55-7.34-4.18C345.477,434.401,336.597,436.651,329.557,442.141 M290.437,446.261
	c-4.23,1.55-7.43,5.79-7.2,10.39c0.43,17.01,1.14,34.02,1.66,51.03c0.07,2.84,0.43,6.27,3.13,7.9c4.72,2.82,11.11,0.35,13.96-4.03
	c1.76-2.61,1.66-5.89,1.57-8.9c-0.58-16.01-1.11-32.02-1.63-48.03c-0.11-2.38-0.24-5.01-1.97-6.84
	C297.547,445.231,293.547,445.031,290.437,446.261 M241.197,456.981c-4.68,0.77-9.35,1.68-13.93,2.91c-5,1.96-8.72,7.33-8.19,12.79
	c0.57,16,1.11,32,1.62,48.01c0.11,2.73,0.4,5.87,2.72,7.7c2.45,2.09,5.89,1.62,8.79,0.98c7.21-1.6,14.77-2.57,21.21-6.43
	c12.11-6.9,19.83-20.4,20.25-34.25c0.32-8.73-2.17-17.99-8.39-24.35C259.117,458.051,249.757,455.681,241.197,456.981
	 M189.157,475.551c-0.02,7.89,0.54,15.76,0.68,23.65c-6.37-7.76-12.34-15.84-18.69-23.62c-2.36-2.97-6.77-3.43-10.07-1.88
	c-4.22,1.81-6.76,6.47-6.46,11c0.51,16.99,1.14,33.99,1.69,50.99c0.04,2.74,0.6,6.01,3.28,7.42c6.29,3.28,14.9-2.4,14.51-9.47
	c-0.05-7.81-0.53-15.61-0.7-23.41c6.31,7.74,12.35,15.71,18.64,23.47c3.34,4.43,10.41,3.6,13.73-0.42
	c2.64-2.84,3.27-6.87,2.94-10.59c-0.61-16.36-1.11-32.72-1.69-49.07c0-2.81-0.81-6.11-3.65-7.32
	C197.207,463.441,189.047,468.741,189.157,475.551 M131.257,479.901c-4.42,1.54-7.69,6.02-7.34,10.77
	c0.47,17.03,1.14,34.06,1.68,51.09c0.05,2.9,0.69,6.35,3.56,7.76c6.58,3.3,15.43-2.55,15.1-9.9c-0.35-16.67-1.13-33.32-1.58-49.99
	c-0.14-2.66,0-5.64-1.76-7.85C138.627,478.991,134.457,478.661,131.257,479.901 M95.167,492.701c-2.87,12.24-4.64,24.73-7.64,36.94
	c-3-10.04-6.06-20.06-9.07-30.1c-0.69-2.39-1.72-5.08-4.25-6.06c-5.39-2.45-12.01,1.54-13.18,7.15c-2.77,12-5.1,24.11-7.8,36.13
	c-4.13-10.64-6.93-21.78-10.79-32.53c-0.79-2.35-3.02-3.98-5.48-4.12c-5.56-0.44-10.8,4.02-11.62,9.47
	c-0.65,2.79,0.86,5.37,1.78,7.9c5.36,14.08,10.73,28.15,16.05,42.25c1.08,2.82,2.07,6.32,5.27,7.41c5.63,2.16,12.06-2.04,13.69-7.55
	c2.83-9.26,5.07-18.7,7.99-27.94c3.22,7.76,6.36,15.57,9.61,23.33c0.93,2.34,2.78,4.44,5.33,4.99c5.6,1.32,11.33-3.03,12.72-8.38
	c4.68-17.97,9.15-35.99,13.78-53.97c0.99-3.69,0.76-8.48-2.76-10.76C103.787,483.701,96.497,487.051,95.167,492.701
	 M410.387,515.992c-6.12,5.68-8.64,14.7-7.08,22.82c0.94,4.9,4.08,9.55,8.8,11.47c4.91,2.17,10.43,1.14,15.48,0.01
	c2.97-0.66,5.17-3.57,4.95-6.63c-0.05-4.63,0.21-9.27-0.09-13.89c-0.52-3.85-5.72-4.32-8.22-2.09c-3.89,2.86-2.3,8.19-2.63,12.28
	c-2.31-0.12-4.98-0.32-6.41-2.43c-3.23-4.84-1.17-12.12,3.93-14.81c3.81-2.33,9.49-0.77,12.24-4.87c2.16-2.8,1.56-8.17-2.4-8.88
	C422.257,509.102,415.317,511.271,410.387,515.992 M386.007,520.581c-0.23,4.72,0,9.45-0.1,14.18c-3.74-4.95-7.15-10.17-11.09-14.96
	c-3.56-3.2-9.44,0.44-9.39,4.89c-0.18,9.99,0,19.99-0.09,29.99c0.04,1.77-0.12,3.99,1.53,5.17c3.61,2.43,9.11-0.83,9.04-5.11
	c0.21-4.6,0-9.21,0.09-13.82c3.73,4.87,7.14,9.99,11,14.76c3.39,3.37,9.31-0.07,9.47-4.45c0.21-9.86-0.02-19.73,0.16-29.59
	c-0.09-2.02,0.24-4.69-1.74-5.95C391.367,513.531,386.127,516.482,386.007,520.581 M351.437,522.161c-2.64,0.92-4.5,3.61-4.31,6.42
	c-0.08,9.69,0.03,19.38-0.05,29.07c0,1.83-0.08,4.1,1.59,5.32c3.78,2.53,9.5-0.8,9.48-5.27c0.14-10.7,0.16-21.41-0.01-32.1
	C358.097,522.311,354.087,520.901,351.437,522.161 M329.837,527.422c-3.39,4.17-6.09,8.88-9.18,13.29c-3-3.25-5.63-6.85-8.85-9.88
	c-3.95-2.97-10.07,0.39-10.32,5.16c-0.32,9.55-0.02,19.11-0.15,28.67c0.1,2.08-0.31,4.67,1.48,6.2c3.76,2.79,9.7-0.68,9.62-5.23
	c0.15-6.06-0.01-12.12,0.05-18.18c2.37,2.25,3.95,6.11,7.55,6.5c4.77-0.59,6.12-6.06,8.76-9.31c0.02,5.65-0.04,11.29,0.01,16.94
	c-0.04,1.87,0.32,4.19,2.29,5c3.88,1.72,8.91-1.59,8.79-5.86c0.1-10.64,0.28-21.31-0.07-31.93
	C339.037,523.932,332.397,524.201,329.837,527.422 M275.817,535.471c-2.45,0.88-3.3,3.59-4.27,5.75
	c-4.24,10.54-8.72,20.99-12.89,31.56c-1.57,3.45,1.67,7.27,5.31,6.52c4.68-0.59,5.65-5.86,7.06-9.47c3.9-0.69,7.81-1.34,11.7-2.11
	c1.13,2.25,1.42,5.23,3.6,6.78c4.82,2.04,10.87-3.75,8.46-8.64c-4.13-9.59-8.22-19.19-12.48-28.71
	C281.297,534.511,278.027,534.501,275.817,535.471 M229.727,548.232c-5.53,5.57-7.78,13.93-6.52,21.6
	c0.83,5.06,3.93,9.95,8.78,11.98c4.9,2.21,10.44,1.22,15.48,0.1c2.54-0.58,4.72-2.72,4.99-5.35c0.33-3.95,0.09-7.92,0.17-11.88
	c-0.07-2.04,0.2-4.63-1.75-5.94c-3.6-2.36-8.92,0.74-9.16,4.91c-0.23,2.6-0.09,5.22-0.11,7.85c-2.23-0.07-4.78-0.21-6.24-2.16
	c-3.41-4.7-1.5-12.02,3.47-14.86c3.76-2.51,9.36-0.9,12.32-4.76c2.35-2.73,1.95-8.28-2.06-9.14
	C242.047,540.631,234.707,543.061,229.727,548.232z"/>
<path class="st2" d="M305.137,116.531c14.62-1.09,29.33-3.36,42.99-8.88c-9.92,7.23-19.8,14.57-30.42,20.77
	c-13.73,8.09-28.37,14.64-43.54,19.52c-3.55,1.16-6.18,3.94-9.15,6.06c6.77,2.18,13.88,3.13,20.96,3.44
	c19.74-0.11,39.31-4.65,57.4-12.48c20.39-8.87,41.36-18.49,56.67-35.13c-1.61,2.31-3.39,4.49-5.27,6.6
	c-12.63,14.71-24.98,29.99-33.4,47.58c-6.13,12.82-10.29,27.13-8.98,41.44c2.58,10.97,4.91,22.03,5.92,33.27
	c0.14,2.83,1.24,5.77,0.26,8.55c-10.69,30.39-29.53,57.94-54.27,78.62c-13.84,11.62-29.52,20.99-46.17,27.97
	c-2.21,0.95-4.63,1.61-6.47,3.24c32.1,0.63,65.32-3.41,93.94-18.93c-11.91,22.89-30.37,41.91-51.38,56.66
	c-26.17,18.18-58.07,29.07-90.13,27.17c-31.53-1.18-61.33-15.28-85.51-34.96c-23.42-18.99-40.74-44.91-50.71-73.26
	c-11.64-31.88-14.47-67.03-7.25-100.23c5.6-25.33,19.22-49.65,40.79-64.67c6.42-4.27,14.88-7.09,22.36-3.96
	c7.16,2.82,11.84,9.39,15.17,16.04c4.21-3.23,8.04-6.91,12.27-10.12c22.48-17.52,49.22-30.4,77.69-33.95
	c9.69-1.09,19.44-0.46,29.15-0.07C273.737,117.811,289.447,117.041,305.137,116.531 M226.327,163.941
	c-25.08,13.35-44.3,35.86-57.13,60.92c-15.77,30.52-23.04,64.65-26.58,98.59c-1.09,0.95-2.57-0.15-3.74-0.43
	c-7.46-2.91-13.79-8.18-18.78-14.37c-8.83-10.65-14.96-23.21-20.05-36c-4.83-11.96-8.27-24.41-11.44-36.89
	c-1.87,5.07-1.38,10.55-1.5,15.84c-0.82,33.87,6.83,68.78,26.02,97.09c16.97,25.6,43.54,43.81,72.42,53.53
	c-5.48-19-9.04-38.71-8.86-58.54c-0.02-20.88,3.33-42.34,13.53-60.82c2.12-1.03,4.7-2.02,6.82-0.41
	c19.46,11.15,46.41,6.24,60.79-10.93c9.43-10.78,14.19-25.62,11.72-39.84c-0.34-2.37-1.36-5.05,0.28-7.17
	c11.13-17.95,25.75-33.61,42.23-46.76c1.41-1.14,2.72-2.39,4.05-3.63c-11.71,1.36-23.45,2.71-34.98,5.27
	c-15.12,3.42-29.82,8.44-44.71,12.7c-13.31,3.9-26.52,9.04-37.46,17.76c5.05-6.36,11-11.97,17-17.42
	c3.95-3.63,9.01-6.59,11.11-11.78c3.61-8.94,10.76-15.68,16.57-23.17C237.457,158.261,231.857,161.281,226.327,163.941z"/>
<path class="st1" d="M226.327,163.941c5.53-2.66,11.13-5.68,17.31-6.46c-5.81,7.49-12.96,14.23-16.57,23.17
	c-2.1,5.19-7.16,8.15-11.11,11.78c-6,5.45-11.95,11.06-17,17.42c10.94-8.72,24.15-13.86,37.46-17.76
	c14.89-4.26,29.59-9.28,44.71-12.7c11.53-2.56,23.27-3.91,34.98-5.27c-1.33,1.24-2.64,2.49-4.05,3.63
	c-16.48,13.15-31.1,28.81-42.23,46.76c-1.64,2.12-0.62,4.8-0.28,7.17c2.47,14.22-2.29,29.06-11.72,39.84
	c-14.38,17.17-41.33,22.08-60.79,10.93c-2.12-1.61-4.7-0.62-6.82,0.41c-10.2,18.48-13.55,39.94-13.53,60.82
	c-0.18,19.83,3.38,39.54,8.86,58.54c-28.88-9.72-55.45-27.93-72.42-53.53c-19.19-28.31-26.84-63.22-26.02-97.09
	c0.12-5.29-0.37-10.77,1.5-15.84c3.17,12.48,6.61,24.93,11.44,36.89c5.09,12.79,11.22,25.35,20.05,36
	c4.99,6.19,11.32,11.46,18.78,14.37c1.17,0.28,2.65,1.38,3.74,0.43c3.54-33.94,10.81-68.07,26.58-98.59
	C182.027,199.801,201.247,177.291,226.327,163.941 M200.437,249.691c1,4.7,5.65,7.64,9.46,10.12c5.05,3.42,11.46,2.59,17.06,1.23
	c8.86-2.13,15.7-10.27,16.72-19.26c1.03-7.47-1.8-15.38-7.55-20.31C221.377,225.881,206.537,234.981,200.437,249.691z"/>
<path class="st0" d="M200.437,249.691c6.1-14.71,20.94-23.81,35.69-28.22c5.75,4.93,8.58,12.84,7.55,20.31
	c-1.02,8.99-7.86,17.13-16.72,19.26c-5.6,1.36-12.01,2.19-17.06-1.23C206.087,257.331,201.437,254.391,200.437,249.691z"/>
<path class="st2" d="M407.307,421.011c6.22-1.33,12.87-0.92,18.71,1.68c8.84,3.84,15.04,12.64,16.47,22.08
	c3.47,21.65-12.78,44.57-34.52,48.06c-7.9,1.46-16.46-0.38-22.82-5.36c-6.12-4.74-10.01-12.08-10.89-19.73
	C371.497,446.901,386.697,425.301,407.307,421.011 M406.397,441.201c-9.01,2.95-15.27,13.15-13.02,22.51
	c1.25,5.28,6.07,9.55,11.56,9.76c12.28,0.66,22.69-13.33,18.21-24.87C420.777,442.061,412.807,438.822,406.397,441.201z"/>
<path class="st2" d="M329.557,442.141c7.04-5.49,15.92-7.74,24.59-9.06c3.02-0.37,6.12,1.39,7.34,4.18c2.6,5.7-0.57,13.2-6.5,15.25
	c-5.32,1.75-11.41,1.66-16.02,5.21c-7.45,5.14-9.94,16.33-5.02,23.99c2.47,3.75,7.27,4.58,11.44,4.12c0.17-5.46-1.2-11.12,0.4-16.42
	c2.13-5.27,9.01-8.68,14.23-5.77c2.87,1.52,3.4,5.02,3.44,7.95c0.16,7.05,0.59,14.09,0.61,21.14c0.15,4.99-3.77,9.42-8.54,10.5
	c-7.94,1.89-16.46,3.97-24.44,1.14c-8.15-2.51-14.11-9.77-16.29-17.85C310.377,470.611,315.997,451.951,329.557,442.141z"/>
<path class="st1" d="M406.397,441.201c6.41-2.38,14.38,0.86,16.75,7.4c4.48,11.54-5.93,25.53-18.21,24.87
	c-5.49-0.21-10.31-4.48-11.56-9.76C391.127,454.352,397.387,444.151,406.397,441.201z"/>
<path class="st2" d="M290.437,446.261c3.11-1.23,7.11-1.03,9.52,1.52c1.73,1.83,1.86,4.46,1.97,6.84
	c0.52,16.01,1.05,32.02,1.63,48.03c0.09,3.01,0.19,6.29-1.57,8.9c-2.85,4.38-9.24,6.85-13.96,4.03c-2.7-1.63-3.06-5.06-3.13-7.9
	c-0.52-17.01-1.23-34.02-1.66-51.03C283.007,452.051,286.207,447.811,290.437,446.261z"/>
<path class="st2" d="M241.197,456.981c8.56-1.3,17.92,1.07,24.08,7.36c6.22,6.36,8.71,15.62,8.39,24.35
	c-0.42,13.85-8.14,27.35-20.25,34.25c-6.44,3.86-14,4.83-21.21,6.43c-2.9,0.64-6.34,1.11-8.79-0.98c-2.32-1.83-2.61-4.97-2.72-7.7
	c-0.51-16.01-1.05-32.01-1.62-48.01c-0.53-5.46,3.19-10.83,8.19-12.79C231.847,458.661,236.517,457.751,241.197,456.981
	 M238.057,477.341c0.34,10.32,0.72,20.64,1.04,30.97c12.1-1.18,20.14-16.17,14-26.73
	C250.027,476.421,243.327,475.941,238.057,477.341z"/>
<path class="st2" d="M189.157,475.551c-0.11-6.81,8.05-12.11,14.21-9.25c2.84,1.21,3.65,4.51,3.65,7.32
	c0.58,16.35,1.08,32.71,1.69,49.07c0.33,3.72-0.3,7.75-2.94,10.59c-3.32,4.02-10.39,4.85-13.73,0.42
	c-6.29-7.76-12.33-15.73-18.64-23.47c0.17,7.8,0.65,15.6,0.7,23.41c0.39,7.07-8.22,12.75-14.51,9.47c-2.68-1.41-3.24-4.68-3.28-7.42
	c-0.55-17-1.18-34-1.69-50.99c-0.3-4.53,2.24-9.19,6.46-11c3.3-1.55,7.71-1.09,10.07,1.88c6.35,7.78,12.32,15.86,18.69,23.62
	C189.697,491.311,189.137,483.441,189.157,475.551z"/>
<path class="st1" d="M238.057,477.341c5.27-1.4,11.97-0.92,15.04,4.24c6.14,10.56-1.9,25.55-14,26.73
	C238.777,497.981,238.397,487.661,238.057,477.341z"/>
<path class="st2" d="M131.257,479.901c3.2-1.24,7.37-0.91,9.66,1.88c1.76,2.21,1.62,5.19,1.76,7.85
	c0.45,16.67,1.23,33.32,1.58,49.99c0.33,7.35-8.52,13.2-15.1,9.9c-2.87-1.41-3.51-4.86-3.56-7.76c-0.54-17.03-1.21-34.06-1.68-51.09
	C123.567,485.921,126.837,481.441,131.257,479.901z"/>
<path class="st2" d="M95.167,492.701c1.33-5.65,8.62-9,13.63-5.84c3.52,2.28,3.75,7.07,2.76,10.76c-4.63,17.98-9.1,36-13.78,53.97
	c-1.39,5.35-7.12,9.7-12.72,8.38c-2.55-0.55-4.4-2.65-5.33-4.99c-3.25-7.76-6.39-15.57-9.61-23.33c-2.92,9.24-5.16,18.68-7.99,27.94
	c-1.63,5.51-8.06,9.71-13.69,7.55c-3.2-1.09-4.19-4.59-5.27-7.41c-5.32-14.1-10.69-28.17-16.05-42.25c-0.92-2.53-2.43-5.11-1.78-7.9
	c0.82-5.45,6.06-9.91,11.62-9.47c2.46,0.14,4.69,1.77,5.48,4.12c3.86,10.75,6.66,21.89,10.79,32.53c2.7-12.02,5.03-24.13,7.8-36.13
	c1.17-5.61,7.79-9.6,13.18-7.15c2.53,0.98,3.56,3.67,4.25,6.06c3.01,10.04,6.07,20.06,9.07,30.1
	C90.527,517.432,92.297,504.941,95.167,492.701z"/>
<path class="st0" d="M410.387,515.992c4.93-4.72,11.87-6.89,18.57-7.02c3.96,0.71,4.56,6.08,2.4,8.88
	c-2.75,4.1-8.43,2.54-12.24,4.87c-5.1,2.69-7.16,9.97-3.93,14.81c1.43,2.11,4.1,2.31,6.41,2.43c0.33-4.09-1.26-9.42,2.63-12.28
	c2.5-2.23,7.7-1.76,8.22,2.09c0.3,4.62,0.04,9.26,0.09,13.89c0.22,3.06-1.98,5.97-4.95,6.63c-5.05,1.13-10.57,2.16-15.48-0.01
	c-4.72-1.92-7.86-6.57-8.8-11.47C401.747,530.691,404.267,521.672,410.387,515.992z"/>
<path class="st0" d="M386.007,520.581c0.12-4.1,5.36-7.05,8.88-4.89c1.98,1.26,1.65,3.93,1.74,5.95
	c-0.18,9.86,0.05,19.73-0.16,29.59c-0.16,4.38-6.08,7.82-9.47,4.45c-3.86-4.77-7.27-9.89-11-14.76c-0.09,4.61,0.12,9.22-0.09,13.82
	c0.07,4.28-5.43,7.54-9.04,5.11c-1.65-1.18-1.49-3.4-1.53-5.17c0.09-10-0.09-20,0.09-29.99c-0.05-4.45,5.83-8.09,9.39-4.89
	c3.94,4.79,7.35,10.01,11.09,14.96C386.007,530.031,385.777,525.302,386.007,520.581z"/>
<path class="st0" d="M351.437,522.161c2.65-1.26,6.66,0.15,6.7,3.44c0.17,10.69,0.15,21.4,0.01,32.1c0.02,4.47-5.7,7.8-9.48,5.27
	c-1.67-1.22-1.59-3.49-1.59-5.32c0.08-9.69-0.03-19.38,0.05-29.07C346.937,525.771,348.797,523.081,351.437,522.161z"/>
<path class="st0" d="M329.837,527.422c2.56-3.22,9.2-3.49,9.98,1.37c0.35,10.62,0.17,21.29,0.07,31.93
	c0.12,4.27-4.91,7.58-8.79,5.86c-1.97-0.81-2.33-3.13-2.29-5c-0.05-5.65,0.01-11.29-0.01-16.94c-2.64,3.25-3.99,8.72-8.76,9.31
	c-3.6-0.39-5.18-4.25-7.55-6.5c-0.06,6.06,0.1,12.12-0.05,18.18c0.08,4.55-5.86,8.02-9.62,5.23c-1.79-1.53-1.38-4.12-1.48-6.2
	c0.13-9.56-0.17-19.12,0.15-28.67c0.25-4.77,6.37-8.13,10.32-5.16c3.22,3.03,5.85,6.63,8.85,9.88
	C323.747,536.302,326.447,531.591,329.837,527.422z"/>
<path class="st0" d="M275.817,535.471c2.21-0.97,5.48-0.96,6.49,1.68c4.26,9.52,8.35,19.12,12.48,28.71
	c2.41,4.89-3.64,10.68-8.46,8.64c-2.18-1.55-2.47-4.53-3.6-6.78c-3.89,0.77-7.8,1.42-11.7,2.11c-1.41,3.61-2.38,8.88-7.06,9.47
	c-3.64,0.75-6.88-3.07-5.31-6.52c4.17-10.57,8.65-21.02,12.89-31.56C272.517,539.061,273.367,536.352,275.817,535.471
	 M274.537,560.131c1.74-0.3,3.49-0.62,5.23-0.91c-0.77-2.27-1.54-4.53-2.32-6.78C276.387,554.971,275.457,557.552,274.537,560.131z"
	/>
<path class="st0" d="M229.727,548.232c4.98-5.17,12.32-7.6,19.37-7.65c4.01,0.86,4.41,6.41,2.06,9.14
	c-2.96,3.86-8.56,2.25-12.32,4.76c-4.97,2.84-6.88,10.16-3.47,14.86c1.46,1.95,4.01,2.09,6.24,2.16c0.02-2.63-0.12-5.25,0.11-7.85
	c0.24-4.17,5.56-7.27,9.16-4.91c1.95,1.31,1.68,3.9,1.75,5.94c-0.08,3.96,0.16,7.93-0.17,11.88c-0.27,2.63-2.45,4.77-4.99,5.35
	c-5.04,1.12-10.58,2.11-15.48-0.1c-4.85-2.03-7.95-6.92-8.78-11.98C221.947,562.161,224.197,553.802,229.727,548.232z"/>
<path class="st1" d="M274.537,560.131c0.92-2.58,1.85-5.16,2.91-7.69c0.78,2.25,1.55,4.51,2.32,6.78
	C278.027,559.511,276.277,559.831,274.537,560.131z"/>
</svg>
