<?xml version="1.0" encoding="utf-8"?>
<!-- Generator: Adobe Illustrator 21.0.0, SVG Export Plug-In . SVG Version: 6.00 Build 0)  -->
<svg version="1.1" id="katman_2" xmlns="http://www.w3.org/2000/svg" xmlns:xlink="http://www.w3.org/1999/xlink" x="0px" y="0px"
	 viewBox="0 0 894.375 975" style="enable-background:new 0 0 894.375 975;" xml:space="preserve">
<style type="text/css">
	.st0{fill:#303030;}
	.st1{fill:#2D2B2B;}
	.st2{fill:#C60000;}
	.st3{fill:#FFFFFF;}
	.st4{fill:#E5E5E5;}
	.st5{fill:#111111;}
	.st6{fill:#3A3A3A;}
	.st7{fill:#560202;}
	.st8{fill:#8E8E8E;}
	.st9{opacity:0.67;fill:#353535;}
	.st10{opacity:0.59;fill:#8E8E8E;}
	.st11{opacity:0.59;fill:#605F5F;}
	.st12{fill:#666666;}
</style>
<path d="M228.423,18.89c0,0,19.767-53.794,153.74,20.173c0,0,15.923,16.25,46.671,14.009c0,0,46.122-45.949,149.347-8.966
	c0,0,206.45-93.018,284.418,12.328s-12.08,215.174-12.08,215.174s-17.57,59.397-368.975,156.898l-59.3,59.397
	c0,0,61.496,39.225,74.674,48.19c0,0,175.702-121.036,301.989-33.621s25.257,192.76,25.257,192.76l-9.883,8.966
	c0,0-29.65,121.036-192.175,76.208c0,0,35.141,85.173-74.674,156.898s-239.395,19.052-239.395,19.052
	S191.635,902.563,188.34,852.131c0,0,8.785-10.086,16.472,3.362c7.687,13.448,103.225,49.311,103.225,49.311
	s183.389,38.104,214.137-82.932c0,0-17.57-42.587-64.79-59.397c0,0-48.318,78.449-137.268,33.621c0,0-47.22-38.104-74.674-30.259
	c0,0-27.454-6.724-29.65-17.931c0,0-13.178-30.259-18.668-35.862c0,0-3.294-11.207,1.098-15.69c0,0-10.981-16.811-10.981-25.776
	c0,0-101.029,33.621-184.488-94.139c-2.582-14.651-10.954-72.002,24.047-118.948c36.474-48.922,95.836-54.067,129.693-57.002
	c49.106-4.256,88.64,7.942,110.912,16.81c1.095-1.587,2.637-3.394,4.667-5.183c3.02-2.662,7.412-5.463,12.903-6.024
	c0,0,17.57-33.621,47.22-32.5c0,0,15.374-24.655,36.239-23.535c0,0,51.613-85.173-31.846-164.743c0,0,2.196,15.69,8.785,23.535
	c0,0-36.239-28.018-39.533-51.552C305.842,157.297,196.027,65.4,228.423,18.89z"/>
<path class="st0" d="M293.762,144.969c0,0-90.048-99.742-60.398-127.76c0,0,50.514-42.587,164.721,36.983l-6.589,1.121
	c0,0-13.178-10.086-19.767-11.207c0,0,13.178,6.724,15.374,11.207h-2.196c0,0-14.276-8.966-17.57-10.086
	c0,0,14.276,7.845,15.374,11.207h-4.393c0,0-12.08-8.966-15.374-10.086l13.178,10.086l-3.294,1.121l-20.865-13.448l17.57,14.569
	l-3.294,1.121L353.062,49.71l12.08,11.207c0,0-23.061,7.845-29.65,13.448c0,0-56.005-50.432-101.029-40.345l5.491,3.362
	c0,0,23.061,66.121,51.613,84.053C291.566,121.435,294.86,125.917,293.762,144.969z"/>
<path class="st0" d="M439.815,49.71c0,0,46.122-28.018,112.01-12.328c0,0-49.416-1.121-70.281,21.293L439.815,49.71z"/>
<path class="st0" d="M482.642,59.796l30.748,11.207l54.907-28.018C568.297,42.986,516.684,29.537,482.642,59.796z"/>
<path class="st0" d="M500.212,76.607l34.042-1.121l4.393-3.362h-16.472c0,0,76.87-43.707,153.74-53.794l10.981,4.483l-5.491-5.604
	l30.748-3.362l7.687,5.604l-4.393-6.724c0,0,88.949-12.328,131.777,39.225l2.196,13.448V55.313l5.491,4.483l-2.196,12.328
	l3.294-7.845l4.393,1.121l-1.098,14.569l3.294-10.086l4.393,3.362l-3.294,10.086l3.294-2.241c0,0,54.907,82.932-19.767,178.191
	l-5.491-5.603l-1.098,14.569c0,0-5.491,39.225-221.824,110.949c0,0-275.633,60.518-282.222,198.364
	c0,0-15.374,57.156,28.552,198.364c0,0,17.57,42.587,87.851-12.328c0,0-63.692,61.639-102.127,13.448
	c0,0-58.201-119.915-21.963-231.985c0,0,45.024-118.794,209.745-155.777S791.22,268.246,791.22,268.246
	s105.421-124.398-5.491-198.364c0,0-65.888-40.345-222.922,30.259c0,0-8.785-4.483-26.355-6.724l16.472-13.448L525.47,93.417
	l20.865-14.569l-31.846,17.931l12.08-11.207l-17.57,7.845C508.997,93.417,504.605,78.848,500.212,76.607z"/>
<path class="st1" d="M360.749,139.366c0,0,0,32.5,32.944,10.086l12.08-15.69l-4.393,10.086c0,0,46.122-58.276,58.201-59.397
	c0,0,15.374-1.121,19.767,1.121l7.687-5.604l-4.393,7.845l10.981-4.483l-5.491,8.966c0,0-28.552-22.414-46.122,8.966
	c0,0,35.141-16.811,48.318-1.121c0,0,10.981-2.241,16.472-1.121c0,0,0-11.207-5.491-13.448l-2.196,3.362V78.848
	c0,0-20.865-28.018-77.968,8.966l-23.061,20.173c0,0-26.355-5.604-35.14,26.897C362.945,134.883,359.65,134.883,360.749,139.366z"/>
<path class="st2" d="M416.754,136.004c0,0,10.981-34.742,47.22-40.345C463.974,95.658,460.679,129.279,416.754,136.004z"/>
<path class="st3" d="M372.828,168.504c0,0,15.374,40.345,30.748,47.069c0,0-10.981-20.173-7.687-48.19
	C395.889,167.383,391.496,167.383,372.828,168.504z"/>
<path class="st4" d="M429.931,251.436c0,0-5.491,23.535,5.491,39.225c0,0,13.178,7.845,12.08-10.086
	C447.502,280.574,431.03,261.522,429.931,251.436z"/>
<path class="st4" d="M393.693,251.436c0,0-5.491,23.535,5.491,39.225c0,0,13.178,7.845,12.08-10.086
	C411.263,280.574,394.791,261.522,393.693,251.436z"/>
<g>
	<path class="st5" d="M492.525,186.435c0.308-1.514,0.643-4.138,0-7.285c-0.725-3.546-2.338-6.021-3.294-7.285
		c1.098,1.121,2.196,2.241,3.294,3.362c-0.366-2.615-0.732-5.23-1.098-7.845c0.732,1.868,1.464,3.736,2.196,5.604
		c-0.369-3.906-0.861-8.002-1.508-12.266c-0.536-3.53-1.138-6.915-1.786-10.148c0,0-1.702-0.862-4.937-1.299
		c1.28,3.048,2.559,6.096,3.839,9.144c-2.837-2.989-5.674-5.977-8.511-8.966c1.372,2.139,2.749,4.38,4.118,6.724
		c2.021,3.459,3.844,6.832,5.491,10.086l-15.099-16.25l6.84,11.364c1.761,2.239,3.475,4.955,4.965,8.248l-4.965-8.248
		c-6.028-7.664-12.606-9.683-12.606-9.683c4.514,4.648,9.472,10.643,13.996,18.172c1.808,3.008,3.351,5.936,4.672,8.725
		C489.597,181.205,491.061,183.82,492.525,186.435z"/>
	<path class="st5" d="M486.025,188.309l-4.481-9.719C483.396,181.56,484.862,184.919,486.025,188.309l4.304,9.333
		c0,0,2.196-12.328-5.491-24.655l2.862,3.756c-0.718-1.202-2.279-3.788-4.24-6.877c-9.166-12.683-19.487-15.931-19.487-15.931
		c1.913,0.976,5.075,5.353,8.036,9.983c2.312,2.963,4.807,6.976,7.338,12.431c0,0-3.5-6.429-7.338-12.431
		c-6.713-8.604-11.879-8.302-11.879-8.302l7.138,10.647l-8.785-8.966c-0.409-0.261-0.819-0.522-1.228-0.783
		c-1.055,0.634-2.109,1.269-3.164,1.903c0,0,29.65,13.448,32.944,61.639c0,0,1.629-3.792,3.256-10.628
		C490.112,207.104,489.215,197.598,486.025,188.309z"/>
</g>
<g>
	<path class="st1" d="M331.099,158.418c0,0-19.767-2.241-23.061-4.483c4.393,29.138,29.65,45.949,29.65,45.949
		c-7.687-11.207-5.491-24.655-5.491-24.655c-0.524-2.988-0.937-6.369-1.098-10.086C330.995,162.753,331.009,160.505,331.099,158.418
		z"/>
	<path class="st1" d="M519.979,100.141c4.393,0,13.178,7.845,13.178,7.845c-50.514-25.776-99.931,32.5-99.931,32.5l-2.196-3.362
		c-21.963,2.241-36.239,13.448-36.239,13.448c-29.65,23.535-39.533-7.845-39.533-7.845c-14.276-10.086,7.687-24.655,7.687-24.655
		c-18.668,20.173-5.491,22.414-5.491,22.414c-1.098-3.362,5.491-11.207,5.491-11.207c6.589-20.173,38.435-28.018,38.435-28.018
		c2.196-5.604,26.355-22.414,26.355-22.414c46.122-30.259,71.379-3.362,71.379-3.362h16.472
		c-24.159-16.811-65.888-19.052-65.888-19.052c-105.421-7.845-129.581,34.742-129.581,34.742v-4.483l-8.785,7.845l1.098-5.604
		c-27.454,13.448-15.374,35.862-15.374,35.862c-1.098-15.69,16.472-25.776,16.472-25.776
		c-20.865,17.931-14.276,44.828-14.276,44.828c0,4.483,6.589,7.845,9.883,8.966c0,0,16.472,5.604,21.963,3.362
		c0,0,34.042,23.535,87.851-1.121l8.785-3.362l-6.589,3.362c0,0,37.337,6.724,54.907-12.328l-2.196,4.483
		c0,0,50.514-24.655,54.907-2.241c0,0-6.589-15.69-26.355-4.483l3.294,7.845c0,0-5.491-12.328-12.08-5.604l2.651,2.029
		c3.227,2.099,6.134,4.695,6.134,4.695l-6.134-4.695c-4.707-3.062-10.097-5.069-8.142,3.574c0,0,13.178-2.241,16.472,14.569
		l-8.785-10.086c0,0,7.687,30.259-8.785,75.087c0,0-12.08,19.052-12.08,28.018l4.393-1.121c0,0-19.767,44.828-57.103,48.19
		c-37.337,3.362-26.355-16.811-26.355-16.811c-1.652-19.746-6.04-35.252-9.883-45.949c-16.053-44.68-53.529-80.331-53.809-80.69l0,0
		c0.366,5.23,0.732,10.46,1.098,15.69c12.406,10.921,36.374,35.277,47.22,74.106c4.393,15.727,5.556,29.972,5.491,41.326
		c-2.196,17.931,8.785,17.931,8.785,17.931c10.981,2.241,19.767,0,19.767,0c1.098,2.241,13.178,5.604,13.178,5.604
		c24.159-1.121,49.416-41.466,49.416-41.466c5.491,4.483,14.276-11.207,14.276-11.207c14.276-28.018,29.65-47.069,29.65-47.069
		c20.865-17.931,13.178-31.38,13.178-31.38c-16.472,6.724-12.08,16.811-12.08,16.811c0,4.265-5.84,10.844-11.172,15.965
		c4.655-6.212,7.878-13.723,7.878-13.723c0-6.724,4.393-15.69,4.393-15.69c34.042-12.328,29.65-33.621,29.65-33.621
		c-16.472,4.483-28.552,13.448-28.552,13.448c0-4.483,16.472-11.207,16.472-11.207c41.729-12.328,35.141-23.535,35.141-23.535
		C582.573,85.572,519.979,100.141,519.979,100.141z"/>
</g>
<path class="st5" d="M398.085,166.263c0,0,2.196,6.724,1.098,13.448c0,0,14.276,10.086,21.963,28.018c0,0,2.196-15.69-1.098-30.259
	c0,0-1.098-13.448-6.589-16.811C413.459,160.659,400.282,167.383,398.085,166.263z"/>
<path class="st6" d="M485.937,216.694l-2.196,1.121v-12.328c0,0-2.196-6.724-4.393,2.241l-2.196-1.121c0,0,4.393-6.724,4.393-10.086
	s-4.393-1.121-4.393-1.121s-2.196,7.845-5.491,6.724c0,0,4.393-11.207,3.294-19.052c0,0-17.57-22.414-25.257-24.655h-20.865
	c0,0,3.294,5.604,2.196,13.448c0,0-3.294-11.207-4.393-13.448c0,0-8.785-2.241-8.785,1.121c0,0,13.178,24.655,4.393,57.156
	l6.589-4.483l1.098-16.811l1.098,15.69l14.276-13.448c0,0-12.08-10.086,1.098-19.052c5.253-3.574,7.709-6.077,8.77-7.798
	c-0.277,3.649-1.547,8.918-6.573,8.918c0,0-1.098,6.724,1.098,11.207c0,0,9.883-13.448,17.57-5.604c7.687,7.845,0,15.69,0,15.69
	l-9.883,8.966c0,0,16.472-1.121,15.374,8.966c0,0-6.589,23.535-14.276,31.38c0,0,13.178-23.535,8.785-34.742l-7.687,15.69
	l2.196-17.931h-4.029c0.467,0.418,0.735,0.747,0.735,0.747l-4.393,14.943l1.098-8.966l-5.491,12.328l2.196-13.448l-8.785,21.293
	l4.393-19.799l-9.883,22.04l6.223-17.184c0.221-0.77,0.446-1.489,0.672-2.18c-3.198,3.264-7.031,7.176-11.287,11.519
	c0,0-1.098,11.207,0,16.811c0,0,5.491,19.425,14.276,27.644l7.687-0.747v3.362c0,0-6.223-4.483-6.955,1.121
	c0,0,0.366,6.724-4.027,10.086c0,0,20.865-14.569,24.159-23.535l4.393-10.086c0,0,1.83-14.196,10.249-25.029
	C483.008,234.252,488.133,226.78,485.937,216.694z"/>
<path d="M397.873,236.564c0,0-64.727,53.528-127.463,52.636c0,0-12.945,0-13.941-8.029c-0.996-8.029,44.811-78.508,44.811-78.508
	s17.925-26.764-27.883-24.088c0,0-3.983-12.49-34.853,4.461c0,0-149.371,77.616-163.312,164.153c0,0,36.845-71.371,102.568-102.596
	c0,0-61.74,53.528-69.706,157.016c0,0,35.849-138.281,167.296-206.976c0,0,3.983,8.921-28.878,49.068c0,0-41.824,41.93-8.962,56.205
	c0,0-2.987,42.823,69.706,12.49c0,0,68.711-32.117,99.581-61.557s58.421-49.068,58.421-49.068s8.63-7.137,3.983-11.598
	c0,0-3.651-11.598-17.593,1.784C451.647,191.957,450.651,195.526,397.873,236.564z"/>
<path class="st2" d="M511.743,229.022l-1.647,12.328c0,0,24.159-6.724,34.042-4.483l2.196-13.448l1.098,12.328
	c0,0,38.435-2.241,57.103,1.121c0,0,14.276-15.69,2.196-34.742c0,0-26.355,8.966-74.674,4.483c0,0-4.393,5.604-10.981,10.086
	C521.077,216.694,512.292,225.66,511.743,229.022z"/>
<path class="st2" d="M538.647,179.711c0,0-2.196,23.535-5.491,25.776h14.276l2.196-5.604l1.098,5.604h34.042
	c0,0,14.276-5.604,20.865-5.604c0,0,5.491-16.811-5.491-30.259c0,0-21.963,6.724-50.514,2.241
	C549.629,171.866,548.531,175.228,538.647,179.711z"/>
<path class="st2" d="M565.003,148.331c0,0-13.178,8.966-13.178,22.414c0,0,36.239,4.483,47.22-3.362c0,0,4.393-13.448-7.687-25.776
	C591.358,141.607,582.573,146.09,565.003,148.331z"/>
<path class="st2" d="M582.573,122.555c0,0-3.294,16.811-8.785,21.293c0,0,16.472,0,15.374-7.845
	C589.162,136.004,588.064,123.676,582.573,122.555z"/>
<path class="st2" d="M513.39,243.591c0,0-14.276,3.362-14.276,30.259c0,0,15.374-4.483,31.846-3.362c0,0,1.098-11.207,8.785-16.81
	c0,0-5.491,8.966-3.294,16.81c0,0,39.533-3.362,48.318,5.604c0,0,21.963-13.448,20.865-35.862l-48.318-1.121
	c0,0-10.981,15.69-26.355,1.121l-9.883,2.241l-13.178,19.052L513.39,243.591z"/>
<path class="st2" d="M496.918,276.091c0,0-10.981,10.086-10.981,20.173c0,0,12.08,2.241,13.178,1.121c0,0,3.294,7.845,12.08,2.241
	c0,0,5.491-10.086,9.883-12.328c0,0-3.294,6.724-3.294,8.966c0,0,29.65,1.121,40.631,11.207c0,0,27.453-11.207,25.257-29.138
	c0,0-21.963-8.966-41.729-4.483c0,0-15.374,14.569-26.355,0C515.586,273.85,496.918,273.85,496.918,276.091z"/>
<path class="st2" d="M517.783,273.85h21.963C539.745,273.85,526.568,285.057,517.783,273.85z"/>
<path class="st2" d="M534.255,240.229h18.668C552.923,240.229,544.138,251.436,534.255,240.229z"/>
<path class="st2" d="M473.857,299.626c0,0-18.668,4.483-35.141,23.535l26.355,1.121c0,0,14.276-10.086,24.159-11.207
	c0,0-18.668,8.966-16.472,13.448c0,0,34.042,3.362,41.729,7.845c0,0,39.533-7.845,37.337-24.655c0,0-19.767-8.966-38.435-7.845
	c0,0-14.276,5.603-18.668-2.241C494.722,299.626,480.446,296.264,473.857,299.626z"/>
<path class="st6" d="M427.735,239.108c0,0-17.57,24.655-17.57,30.259c0,0,2.196-12.328,5.491-14.569c0,0-13.178,5.603-9.883,15.69
	c0,0,3.294-3.362,3.294,4.483c0,0,9.883,1.121,9.883,5.603c0,0-8.785-6.724-8.785-2.241c0,0,4.393,19.052-9.883,13.448
	c0,0-4.393,6.724,5.491,8.966c0,0,23.061,4.483,26.355-1.121l9.883-3.082c0,0-7.687-2.522-7.687-4.763l-2.196,5.603
	c0,0-8.785-26.897-3.294-47.069c0,0-13.178,8.966-14.276,19.052L427.735,239.108z"/>
<path class="st2" d="M384.908,346.695c0,0,26.355-19.052,40.631-20.173h17.57c0,0,1.098,8.966,28.552,6.724
	c0,0-26.355-1.121-26.355-6.724c0,0,43.926,0,60.398,10.086c0,0-23.061,28.018-50.514,21.293l-32.944-7.845l16.472-12.328
	l-19.767,10.086C418.95,347.816,393.693,344.454,384.908,346.695z"/>
<path class="st2" d="M372.828,351.178c0,0-28.552,11.207-35.141,22.414l37.337,1.121c0,0,14.276-14.569,20.865-14.569
	c0,0-16.472,10.086-16.472,15.69c0,0,45.024,7.845,48.318,7.845c0,0,26.355-15.69,27.453-22.414c0,0-15.374-6.724-32.944-8.966
	c0,0-18.668,4.483-19.767-3.362C402.478,348.937,381.613,347.816,372.828,351.178z"/>
<path class="st2" d="M328.902,378.075c0,0-24.159,1.121-40.631,29.138c0,0,29.65-5.603,45.024-2.241c0,0,3.294-11.207,14.276-14.569
	c0,0-13.178,8.966-10.981,15.69c0,0,32.944,5.604,46.122,14.569c0,0,31.846-5.604,34.042-34.742c0,0-30.748-7.845-38.435-7.845
	c0,0-10.981,5.604-16.472-1.121l-4.393-1.121c0,0,4.393,7.845,17.57,6.724c0,0-18.668,1.121-21.963-5.604
	C353.062,376.954,338.786,375.834,328.902,378.075z"/>
<path class="st2" d="M284.977,409.455c0,0-18.668,6.724-29.65,29.138c0,0,26.355-3.362,41.729,0c0,0,7.687-17.931,15.374-17.931
	c0,0-13.178,10.086-10.981,19.052c0,0,41.729,7.845,56.005,15.69c0,0,25.257-14.569,25.257-31.38c0,0-10.981-10.086-41.729-15.69
	c0,0-12.08,10.086-23.061-2.241h-3.294c0,0,4.393,15.69,25.257,6.724c0,0-18.668,7.845-28.552-5.604
	C311.332,407.213,298.155,406.092,284.977,409.455z"/>
<path class="st2" d="M249.836,441.955c0,0-18.668,6.724-25.257,42.587c0,0,25.257-1.121,41.729,0c0,0,5.491-16.811,10.981-20.173
	c0,0-7.687,15.69-6.589,21.293c0,0,42.827,5.604,54.907,12.328c0,0,29.65-23.535,28.552-41.466c0,0-35.141-12.328-46.122-13.448
	c0,0-16.472,7.845-24.159-3.362C283.879,439.714,259.72,437.472,249.836,441.955z"/>
<path class="st2" d="M217.99,490.145c0,0-13.178,16.81-14.276,41.466c0,0,26.355,8.966,35.14,7.845c0,0,5.491-19.052,12.08-23.535
	c0,0-9.883,16.81-6.589,26.897c0,0,57.103,6.724,62.594,2.241c0,0,20.865-17.931,15.374-44.828c0,0-26.355-7.845-42.827-10.086
	c0,0-15.374,14.569-27.454-2.241C252.033,487.904,225.677,483.421,217.99,490.145z"/>
<path class="st2" d="M201.518,533.852c0,0-15.374,24.655-6.589,51.552c0,0,23.061,12.328,32.944,11.207l1.098-20.173l3.294,21.293
	c0,0,48.318,11.207,61.496,2.241c0,0,16.472-21.293,10.981-50.432l-47.22-3.362c0,0-27.454,16.81-36.239-6.724l-5.491-1.121
	c0,0,9.883,30.259,43.926,11.207c0,0-32.944,26.897-48.318-11.207C211.401,538.335,207.009,533.852,201.518,533.852z"/>
<path class="st2" d="M191.635,586.525c0,0-13.178,19.052,2.196,57.156c0,0,23.061,13.448,31.846,7.845l1.098-29.138
	c0,0,0,34.742,7.687,35.862c0,0,51.613,7.845,59.3-4.483c0,0,6.589-31.38-1.098-47.069l-34.042,1.121
	c0,0-32.944,28.018-50.514-8.966l-3.294-1.121l6.589-1.121C211.401,596.612,193.831,585.405,191.635,586.525z"/>
<path class="st2" d="M214.696,598.853h-4.393c0,0,13.178,33.621,47.22,7.845l-8.785-1.121
	C248.738,605.577,224.579,623.508,214.696,598.853z"/>
<path class="st2" d="M191.635,644.802c0,0-6.589,28.018,8.785,48.19c0,0,28.552,11.207,31.846,10.086l-2.196-20.173l6.589,22.414
	c0,0,56.005,16.811,62.594,1.121c0,0,4.393-35.862-9.883-44.828C289.369,661.612,223.481,668.336,191.635,644.802z"/>
<path class="st2" d="M203.714,699.716c0,0,13.178,70.604,57.103,59.397c0,0-6.589-8.966-18.668-6.724
	c0,0,4.393-13.448,36.239,14.569c0,0,16.472,7.845,35.141,20.173s31.846,12.328,31.846,12.328l-46.122-87.415
	c0,0-41.729,10.086-80.164-5.604C219.088,706.44,209.205,697.475,203.714,699.716z"/>
<path class="st2" d="M459.613,187.497c0,0-30.87,34.793-85.639,66.91c0,0-78.669,52.636-117.505,32.117v7.137l10.954,4.461
	l-10.954-1.784c0,0-1.992,7.137,5.975,10.706c0,0-12.945,5.353-8.962-24.088c0,0,18.92-48.175,43.815-75.832
	c0,0,19.916-33.009-22.904-26.764l-25.891,9.814l22.904-11.598c0,0-1.992-7.137-19.916,0.892c0,0-91.614,42.823-142.4,107.949
	c0,0-18.92,27.656-22.904,37.47c0,0,30.87-49.96,107.547-95.459l4.979-4.461l-33.857,16.951c0,0,48.795-27.656,48.795-30.333
	c0,0-76.677,71.371-97.589,151.663c0,0,56.761-125.791,163.312-172.183c0,0,29.874-7.137,13.941,16.058
	c0,0,7.966-16.058-2.987-15.166c0,0,0,12.49-4.979,12.49c0,0,4.979-14.274,0-13.382l-2.987,11.598c0,0,1.992-14.274-3.983-8.921
	c0,0-1.992,24.088-34.853,57.989c0,0-20.912,15.166-10.954,38.362c0,0,1.992-18.735,12.945-24.98c0,0-10.954,16.058-9.958,26.764
	c0,0,1.992-10.706,10.954-15.166c0,0-17.925,27.656,5.975,37.47c0,0,38.836,11.598,104.56-31.225s112.526-87.876,112.526-87.876
	S469.572,183.928,459.613,187.497z"/>
<path class="st7" d="M591.358,143.849c-1.086,3.539-2.184,7.088-3.294,10.647c-1.819,5.831-3.649,11.621-5.491,17.371
	c-2.218-0.523-4.577-0.978-7.069-1.331c-9.047-1.279-17.12-0.814-23.679,0.21c0.074-2.124,0.415-4.814,1.436-7.746
	c2.667-7.655,8.216-11.91,10.644-13.547c3.362,0.347,8.031,0.462,13.452-0.56C583.445,147.744,588.196,145.593,591.358,143.849z"/>
<path class="st7" d="M581.475,127.038c3.802,1.604,5.504,6.066,3.963,9.605c-1.388,3.187-5.107,4.936-8.63,3.843
	c0.843-1.749,1.688-3.713,2.471-5.884C580.26,131.88,580.964,129.329,581.475,127.038z"/>
<path class="st7" d="M581.475,173.267c0,0-12.629,23.068-31.022,31.006l-0.824-4.389l-1.647,3.922
	c-2.01-0.006-4.297-0.136-6.795-0.49c-2.154-0.306-4.107-0.729-5.834-1.191c0.833-3.376,1.599-7.124,2.196-11.207
	c0.588-4.019,0.926-7.776,1.098-11.207c1.487-0.597,3.18-1.54,5.079-2.662c2.608-1.541,5.353-3.502,5.902-5.183
	C549.629,171.866,562.806,174.668,581.475,173.267z"/>
<path class="st7" d="M514.488,236.867c0,0,0-19.052,20.865-28.018h4.393c0,0-15.374,20.173-16.472,25.776L514.488,236.867z"/>
<path class="st7" d="M513.39,243.591l-5.491,17.931l13.178-19.052C521.077,242.47,515.586,241.35,513.39,243.591z"/>
<path class="st8" d="M577.082,111.348c0,0,3.294,2.241,4.393,6.724c0,0,16.472-4.483,24.159-2.241c0,0-23.061,2.241-23.061,5.604
	c0,0,10.981,4.483,8.785,14.569l144.955-75.087c0,0-50.514-4.856-129.581,22.788c0,0-35.141,7.471-41.729,17.558l10.981,8.966
	c0,0,19.767-16.811,27.453-20.173c0,0,8.785,5.604-14.276,17.931C589.162,107.986,582.573,111.348,577.082,111.348z"/>
<path class="st9" d="M581.475,107.986l19.767-14.569C601.241,93.417,597.947,110.228,581.475,107.986z"/>
<path class="st8" d="M597.947,146.09c0,0,6.589,10.086,5.491,20.173c0,0,72.477-21.293,80.164-26.897
	c7.687-5.604,100.663-47.069,135.437-36.983c0,0-20.133-45.949-79.432-38.104c0,0-53.809,17.931-80.164,42.587
	C659.443,106.865,648.461,147.211,597.947,146.09z"/>
<path class="st9" d="M594.652,139.366c0,0,40.631,10.086,51.613-24.655l9.883-6.724c0,0-6.589,38.104-60.398,35.862L594.652,139.366
	z"/>
<path class="st8" d="M605.634,177.47c0,0,5.491,7.845,4.393,19.052c0,0,37.337,3.362,77.968-13.448
	c40.631-16.811,132.875-20.173,146.053-8.966c0,0,8.785-42.587-15.374-70.604c0,0-64.79-4.483-147.151,43.707
	C671.522,147.211,646.265,189.797,605.634,177.47z"/>
<path class="st8" d="M611.125,204.366c0,0,7.687,16.811,0,28.018c0,0,16.472,8.966,99.931-7.845c0,0,84.557-4.483,102.127,12.328
	c0,0,25.257-28.018,20.865-59.397c0,0-38.435-21.293-155.936,11.207C678.111,188.677,642.971,230.143,611.125,204.366z"/>
<path class="st8" d="M608.928,239.108c0,0,0,26.897-19.767,36.983c0,0,36.239,8.966,79.066,6.724c0,0,66.987,7.845,77.968,20.173
	c0,0,60.398-39.225,63.692-63.88c0,0-58.201-19.052-148.249-3.362C661.639,235.746,630.891,263.764,608.928,239.108z"/>
<path class="st9" d="M591.358,136.004l133.973-75.087c0,0-23.61-3.922-107.892,18.772c0,0-39.258,9.246-52.436,21.573l10.981,8.966
	c0,0,20.865-17.931,27.453-20.173c0,0,8.785,13.448-26.355,21.293c0,0,4.393,4.483,4.393,6.724c0,0,16.472-4.483,24.159-2.241
	c0,0-20.865,1.121-23.061,5.604C582.573,121.435,594.652,124.797,591.358,136.004z"/>
<path class="st9" d="M597.947,146.09c0,0,6.589,8.966,5.491,20.173c0,0,159.779-79.009,210.568-71.445
	c0,0-24.983-39.505-74.399-30.539c0,0-47.22,14.569-80.164,42.587C659.443,106.865,644.069,153.935,597.947,146.09z"/>
<path class="st9" d="M605.634,177.47c0,0,7.687,13.448,4.393,19.052c0,0,42.827,2.241,59.3-7.845
	c0,0,108.716-105.346,122.992-24.655c0,0,30.748-1.121,39.533,1.121c0,0,6.589-38.104-13.178-62.759
	c0,0-68.085-2.241-147.151,44.828C671.522,147.211,650.658,188.677,605.634,177.47z"/>
<path class="st9" d="M642.971,213.332l-19.217,21.293c0,0-11.53-1.121-12.629-2.241c0,0,6.04-7.845,1.922-22.414
	C613.046,209.97,626.499,221.177,642.971,213.332z"/>
<path class="st9" d="M791.22,170.185c0,0,3.294,38.664-12.08,50.992c0,0,34.042,0,37.886,8.966c0,0,17.021-14.569,17.021-52.673
	C834.047,177.47,819.771,170.745,791.22,170.185z"/>
<path class="st9" d="M776.395,230.143c0,0-18.119,48.19-33.493,58.276c0,0,10.981,1.121,13.727,6.164c0,0,45.573-31.94,53.26-56.595
	C809.888,237.987,796.71,231.263,776.395,230.143z"/>
<path class="st8" d="M586.965,282.815c0,0-5.491,17.931-23.061,25.776c0,0,83.459,7.845,118.599,24.655
	c0,0,53.809-23.535,59.3-31.38c0,0-39.533-20.173-99.931-17.931C641.872,283.936,614.419,311.954,586.965,282.815z"/>
<path class="st9" d="M730.822,296.264c0,0-17.57,23.535-35.141,30.259c0,0,42.828-19.052,46.122-24.655L730.822,296.264z"/>
<path class="st8" d="M556.218,313.074c0,0-16.472,16.81-35.141,23.535c0,0,63.692,6.724,93.342,24.655
	c0,0,57.103-20.173,61.496-26.897c0,0-42.828-16.811-70.281-16.811C605.634,317.557,577.082,335.488,556.218,313.074z"/>
<path class="st8" d="M507.899,336.609c0,0-16.472,17.931-27.454,22.414c0,0,62.594,6.724,82.361,20.173
	c0,0,34.042-12.328,49.416-16.81c0,0-21.963-13.448-71.379-20.173c0,0-15.374,6.724-23.061-5.604h-3.294
	c0,0,7.687,16.811,31.846,8.966c0,0-25.257,10.086-35.141-8.966C511.194,336.609,507.899,338.85,507.899,336.609z"/>
<path class="st8" d="M460.679,362.385c0,0-10.981,22.414-29.65,22.414c0,0,28.552,1.121,68.085,15.69
	c0,0,26.355-12.328,60.398-20.173c0,0-35.141-15.69-48.318-14.569c0,0-27.454,11.207-40.631-2.241
	C470.563,363.506,469.464,362.385,460.679,362.385z"/>
<path class="st8" d="M421.146,385.92c0,0-12.08,35.862-36.239,38.104c0,0,35.141,0,47.22,5.604c0,0,49.416-25.776,63.692-27.457
	C495.82,402.17,462.876,389.282,421.146,385.92z"/>
<path class="st8" d="M386.006,425.144c0,0-3.294,26.897-24.159,32.5l28.552,3.362c0,0,20.865-23.535,40.631-30.259
	C431.03,430.748,426.637,424.024,386.006,425.144z"/>
<path class="st8" d="M357.615,462.124c0,0,3.187,13.475-26.65,36.763c0,0,18.686-2.086,19.73,4.647c0,0,23.338-34.549,34.364-40.061
	C385.058,463.473,363.132,458.807,357.615,462.124z"/>
<path class="st8" d="M338.786,508.076c-26.355,25.776-31.846,107.587-31.846,107.587l-3.294-14.569l-4.393,11.207
	c-3.294-8.966,1.098-15.69,1.098-15.69c13.178-19.052,9.883-49.311,9.883-49.311c23.061-30.259,18.668-45.949,18.668-45.949
	s14.276-3.362,19.767,3.362c0,0-40.631,40.345-29.65,156.898c0,0,10.981,85.173,31.846,115.432c0,0-30.748-49.311-35.14-94.139
	C311.332,638.078,299.253,588.767,338.786,508.076z"/>
<path class="st9" d="M657.246,151.693c0,0-16.472,34.742-49.416,16.811h-4.393c0,0,26.355,29.138,63.692-19.052L657.246,151.693z"/>
<path class="st9" d="M612.223,201.004l6.589,1.121c0,0,19.767,17.931,45.024-10.086l10.981-2.241
	C674.817,189.797,641.872,226.78,612.223,201.004z"/>
<path class="st9" d="M611.125,237.987h6.589c0,0,29.65,8.218,35.141-3.736l6.589,0.374
	C659.443,234.625,636.382,257.039,611.125,237.987z"/>
<path class="st9" d="M589.162,279.453l7.687,1.121c0,0,12.08,14.569,36.239,3.362l7.687-1.121
	C640.774,282.815,612.223,310.833,589.162,279.453z"/>
<path class="st9" d="M559.512,310.833l3.294-1.121c0,0,16.472,20.173,37.337,4.483l4.393,1.121
	C604.536,315.316,575.984,335.488,559.512,310.833z"/>
<path class="st0" d="M68.643,427.386c0,0-126.286,86.294-19.767,197.243c0,0,79.066,56.035,137.268,39.225
	c0,0-6.589-14.569,3.294-23.535c0,0-16.472-30.259,0-54.914c0,0-9.883-32.5,8.785-51.552c0,0,6.589-44.828,20.865-48.19
	l6.589-20.173l-37.337-12.328l39.533,7.845l-38.435-13.448l40.631,10.086l-34.042-13.448l38.435,7.845l-15.374-7.845l17.57,3.362
	l-6.589-5.603h12.08l-3.294-4.483l10.981,1.121l-9.883-7.845l15.374,2.241l7.687-11.207c-7.615-4.215-17.561-8.825-29.65-12.328
	c-14.13-4.094-26.669-5.365-36.239-5.603c-3.66,4.109-7.321,8.218-10.981,12.328c1.464-4.483,2.928-8.966,4.393-13.448
	c-13.269-1.09-29.285-1.224-47.22,1.121C111.231,408.046,85.816,418.5,68.643,427.386z"/>
<path d="M163.083,406.092"/>
<path class="st0" d="M191.086,859.976c0,0,29.101,63.88,141.111,94.139c0,0,50.514,19.052,96.636,11.207l12.08-8.966l-5.491,7.845
	l10.981-1.121l10.981-8.966l-5.491,7.845h8.785l12.08-12.328l-5.491,12.328l4.393-1.121l15.374-20.173l-10.981,17.931h8.785
	c0,0,18.668-19.052,17.57-24.655c0,0-7.687,21.293-9.883,23.535l9.883-2.241l17.57-29.138l-12.08,25.776l10.981-6.724
	c0,0,10.981-15.69,12.08-24.655c1.098-8.966-4.393,17.931-5.491,21.293l10.981-7.845l8.785-20.173l-4.393,16.81l9.883-4.483
	c0,0,10.981-22.414,10.981-30.259c0,0-2.196,22.414-5.491,26.897c0,0,16.472-17.931,16.472-38.104v22.414l8.785-7.845
	c0,0,2.196-22.414,4.393-28.017l1.098,17.931l8.785-12.328c0,0,5.491-79.57-69.183-45.949c0,0-16.472,73.966-102.127,84.052
	c0,0-118.599,28.018-219.628-53.794C204.813,861.097,190.537,848.769,191.086,859.976z"/>
<path class="st0" d="M467.268,760.234c0,0,50.514,23.535,57.103,61.639c0,0,5.491-23.535-10.981-47.069
	c0,0,17.57,13.448,14.276,52.673c0,0,63.692-36.983,71.379,41.466c0,0,10.981-8.966,4.393-29.138l5.491,11.207
	c0,0,9.883-13.448,2.196-26.897l5.491,5.604c0,0,2.196-7.845-5.491-24.655l7.687,5.603c0,0,2.196-14.569-15.374-25.776l13.178,7.845
	l-2.196-6.724l-19.766-13.448l17.57,5.603c0,0-7.687-15.69-25.257-21.293l15.374,4.483c0,0-4.393-10.086-25.257-16.81l17.57,5.603
	c0,0-8.785-11.207-26.355-16.81l13.178,1.121c0,0-6.589-8.966-34.042-12.328l20.865,1.121c0,0-9.883-12.328-32.944-10.086
	l19.767-2.241c0,0-8.785-11.207-19.767-6.724c0,0-9.883,4.483-14.276,11.207l6.589,11.207l-14.276-6.724l18.668,23.535
	l-21.963-22.414l10.981,15.69l-16.472-13.448l9.883,17.931l-17.57-13.448l13.178,15.69l-20.865-11.207
	c0,0,24.159,21.293,25.257,31.38c0,0-20.865-24.655-28.552-26.897l-3.294,4.483C482.642,741.182,468.366,756.872,467.268,760.234z"
	/>
<path class="st0" d="M369.534,594.37c0,0,61.496,24.655,99.931-17.931c0,0-50.514,33.621-73.575,20.173c0,0,21.963,0,42.827-17.931
	l90.048-53.794h9.883v-6.724c0,0,65.888-34.742,121.894-36.983l26.355,19.052c0,0-5.491-14.569-17.57-20.173
	c0,0,34.042-10.086,76.87,12.328c42.828,22.414,41.729,60.518,41.729,60.518s14.276-20.173-35.141-62.759
	c0,0,112.01,30.259,102.127,138.967c0,0-17.57,61.639-65.888,87.415l17.57-6.724c0,0-15.374,32.5-26.355,35.862l8.785-19.052
	c0,0-17.57,31.38-29.65,35.862l13.178-25.776c0,0-19.767,34.742-30.748,33.621l10.981-20.173c0,0-14.276,32.5-31.846,28.018
	l16.472-21.293c0,0-24.159,31.38-36.239,24.655l15.374-13.448c0,0-23.061,17.931-31.846,16.811l10.981-11.207
	c0,0-18.668,15.69-29.65,10.086l13.178-10.086c0,0-16.472,13.448-26.355,7.845l10.981-6.724c0,0-21.963,8.966-29.65,4.483
	l17.57-8.966c0,0-19.767,5.604-26.355,4.483l20.865-10.086c0,0-27.453,8.966-30.748,6.724l10.981-6.724
	c0,0-14.276,1.121-15.374-2.241l5.491-4.483l-9.883-2.241c0,0-29.65-35.862-61.496-59.397c0,0,62.594-57.156,125.188-69.483
	c0,0,31.846,16.811,58.201,4.483c0,0-7.687,23.535-35.14,23.535c0,0,39.533,3.362,37.337-25.776c0,0,31.846,13.448,1.098,48.19
	c0,0,35.141-30.259,0-58.276c0,0,24.159-1.121,45.024,24.655c0,0-9.883-40.345-87.851-26.897c0,0-73.575,8.966-188.88,106.467
	l61.496-61.639c0,0-48.318,34.742-69.183,65.001c0,0-80.164,94.512-124.09,53.42c0,0-82.361-206.956,8.785-279.802v5.603
	c0,0,15.374-26.897,23.061-28.018l-12.08,16.811l17.57-19.052l-4.393,11.207c0,0,14.276-22.414,27.454-24.655l-16.472,16.811
	l15.374-10.086l-29.65,24.655l20.865-10.086l-28.552,21.293l21.963-11.207l-28.552,24.655l13.178-7.845
	c0,0-12.08,17.931-18.668,17.931l9.883-1.121l-14.276,11.207l7.687-1.121l-13.178,11.207l9.883-3.362l-14.276,16.81l10.981-6.724
	l-9.883,11.207l8.785-5.604l-9.883,19.052C364.043,579.801,364.043,593.25,369.534,594.37z"/>
<path class="st0" d="M418.95,492.386c0,0-48.318,56.035-47.22,97.501c0,0,12.08,13.448,27.453,3.362l97.734-53.794l-9.883-6.724
	l-1.098,4.483c0,0-7.687-12.328-13.178-14.569l3.294,11.207c0,0-6.589-14.569-15.374-17.931l5.491,10.086l-10.981-14.569
	c0,0-8.785-5.604-7.687-3.362l5.491,11.207c0,0-8.785-16.811-17.57-16.811l4.393,8.966c0,0-9.883-16.811-13.178-16.811l5.491,14.569
	C432.128,509.197,420.048,492.386,418.95,492.386z"/>
<path class="st10" d="M392.595,529.37c7.634,2.029,15.995,4.743,24.823,8.405c16.765,6.955,30.377,15.326,40.883,22.974
	l-64.607,35.489c0,0-12.08,3.736-21.963-6.351c0.201-4.615,0.703-9.592,1.647-14.849
	C376.991,554.926,385.505,539.528,392.595,529.37z"/>
<path class="st10" d="M224.945,467.357c0,0-50.881-15.316-69.549-9.713c-18.668,5.604-52.711-2.241-92.244,34.742l2.196-16.811
	c0,0-6.589,15.69-6.589,21.293l-6.589,3.362c0,0,5.491-20.173,7.687-24.655c0,0-9.883,16.811-14.276,30.259l-3.294,2.241
	l6.589-24.655c0,0-9.883,17.931-9.883,29.138c0,0-1.098-12.328,3.294-29.138c0,0-9.883,13.448-9.883,35.862l-3.294,5.604
	c0,0-1.098-22.414,1.098-30.259c0,0-5.491,15.69-4.393,36.983c0,0-8.785,11.207-7.687,26.897c0,0-7.687-47.069,12.08-82.932
	c0,0-42.827,60.518,2.196,118.794c0,0,65.888,75.087,146.053,63.88c0,0-90.048-43.707-93.342-48.19
	c-3.294-4.483-23.061-13.448-7.687-30.259l-6.589-3.362l9.883,1.121l5.491-5.604c0,0-8.785-1.121-9.883,0
	c-1.098,1.121,7.687-3.362,13.178-3.362l4.393-4.483c0,0-12.08-1.121-16.472,1.121c0,0,14.276-4.483,21.963-4.483l12.08-4.483
	c0,0-15.374-10.086-28.552-5.604c0,0,30.748-3.362,41.729,0c0,0-12.08-8.966-21.963-7.845c0,0,25.257,0,35.14,3.362
	c0,0,37.337-8.966,54.358-3.922c0,0,0.549-6.164,6.04-8.405c0,0,6.589-44.828,20.865-48.19
	C219.088,485.662,219.821,468.105,224.945,467.357z"/>
<path class="st11" d="M127.943,626.87c0,0-60.398-22.414-42.827-45.949c0,0,42.827-30.259,102.676-24.655
	c0,0-2.745,20.173,1.647,29.138c0,0-15.374,25.776,0,54.914c0,0-9.883,4.483-5.491,14.009L127.943,626.87z"/>
<path class="st12" d="M241.051,36.261c0,0,57.103,3.362,87.851,41.466c0,0-13.178,5.604-14.276,8.966
	c0,0-10.981-8.966-52.711-10.086c0,0,49.416,5.604,51.613,11.207c0,0-24.159,11.207-21.963,32.5
	C291.566,120.314,253.131,76.607,241.051,36.261z"/>
<path class="st12" d="M335.491,162.9c4.329,1.251,9.099,2.414,14.276,3.362c7.203,1.319,13.853,1.976,19.767,2.241
	c0,0,15.374,48.19,37.337,51.552c0,0-12.08-25.776-8.785-38.104c0,0,21.963,15.69,21.963,28.018l-0.275,10.927
	c-10.524,7.565-21.048,15.129-31.572,22.694c-4.304-9.266-9.358-19.047-15.305-29.138
	C360.687,193.737,347.619,176.656,335.491,162.9z"/>
<path class="st3" d="M308.038,153.935c0,0,4.393,2.241,23.061,4.483c0,0,0,13.448,1.098,16.811c0,0-2.196,13.448,5.491,24.655
	C337.688,199.884,312.43,183.073,308.038,153.935z"/>
</svg>
