<?xml version="1.0" encoding="utf-8"?>
<!-- Generator: Adobe Illustrator 21.0.0, SVG Export Plug-In . SVG Version: 6.00 Build 0)  -->
<svg version="1.1" id="Layer_1" xmlns="http://www.w3.org/2000/svg" xmlns:xlink="http://www.w3.org/1999/xlink" x="0px" y="0px"
	 viewBox="0 0 720 720" style="enable-background:new 0 0 720 720;" xml:space="preserve">
<style type="text/css">
	.st0{fill:#1A1A1A;}
	.st1{fill:#F1F1F1;}
	.st2{fill:url(#SVGID_1_);}
</style>
<ellipse class="st0" cx="361.9" cy="358.5" rx="333.9" ry="340.5"/>
<path class="st0" d="M353.3,0h12.4c56.2,0.9,112.2,15.1,161.9,41.4c54.3,28.6,100.9,71.4,134.2,122.8c19.6,30.3,34.6,63.5,44.4,98.2
	c21.3,75.7,17,158.3-12.4,231.2c-22.5,56.4-59.8,106.8-106.9,145.1C534,682,468.6,709.7,400.8,717.2c-46.5,5.2-94,1.6-139.1-11.2
	c-60.7-17.1-116.7-50.7-160.5-96.1C47.1,554.4,11.9,480.9,2.7,404c-1.5-12.1-2.2-24.3-2.7-36.4v-15.9c0.8-29.7,4.9-59.3,12.9-87.9
	c15.1-54.8,43.5-105.9,82.2-147.7c36.8-40,82.7-71.6,133.4-91.4C268.1,9.1,310.7,0.8,353.3,0 M336.6,37.8
	c-64.4,4.4-127.2,28.9-177.6,69.2c-45.6,36.2-81.1,84.8-101.5,139.3c-25.8,68.4-27.2,145.7-4.1,215c12.4,37.5,31.9,72.6,57,103.1
	c37.4,45.6,87.5,80.7,143.2,100c43.9,15.3,91.1,20.8,137.4,16.4c66.1-6.1,129.9-33.6,179.9-77.1c49.5-42.6,85.5-100.6,101.6-163.9
	c19.4-75.4,10.5-157.7-25.2-227c-29.5-57.8-76.8-106.3-133.9-137.1C459.6,46.6,397.5,33.4,336.6,37.8z"/>
<path class="st1" d="M341,87.1c36-2.3,72.6,2.3,106.8,14c36.9,12.6,70.9,33.2,99.2,59.9c25.2,23.7,45.8,52.2,60.5,83.6
	c18.8,40.2,27.5,85.1,25.1,129.4c-2.4,48.5-18.2,96.2-45.1,136.5c-1,1.9-3.8,1.8-4.9,0.1c-0.9-1.3-0.1-2.7,0.2-4
	c12.1-39.1,5.3-83.6-18.1-117.2c-1.9-3.3-5.8-6.1-4.7-10.4c4.1-41.1-5-83.4-25.7-119.2c-22-38.5-57.1-69.3-98.1-86.1
	c-36.2-15-76.8-18.9-115.3-11.3c-19.6,4-39.2,10.1-55.4,22.1c-14.2,10.3-26.4,24.5-31.1,41.6c-4.7,17.3-1.8,36.4,8,51.4
	c7.1,11.4,17.3,20.8,29.2,27c13.8,7.3,29.2,11,44.4,13.7c23.9,4.2,48.1,6,72.1,9.1c4.8,0.5,5.5,8.3,0.8,9.6
	c-21.9,7.5-43.3,16.7-65.4,23.5c-19.5,5.9-40,9.9-60.4,7.7C234.7,365.2,208,350,190,328c-21.9-26.5-32-61.9-29.3-96.1
	c1.7-23.8,10.3-47,23.9-66.6c19.8-28.7,49.2-50,81.6-62.3C290.1,94.1,315.5,88.8,341,87.1z"/>
<linearGradient id="SVGID_1_" gradientUnits="userSpaceOnUse" x1="86.4794" y1="420.2418" x2="558.9686" y2="420.2418">
	<stop  offset="0" style="stop-color:#25A5DE"/>
	<stop  offset="1" style="stop-color:#0274BE"/>
</linearGradient>
<path class="st2" d="M132.4,208.3c1.5-1.8,4.7-0.6,4.9,1.7c-0.1,1.5-0.7,2.9-1.1,4.3c-12,40.2-4,85.8,21.1,119.5
	c1.8,2,2.7,4.5,2.1,7.1c-4.9,50.1,10,101.9,41,141.6c23.6,30.7,56.3,54.4,92.9,67.2c39.6,14,83.5,14.9,123.7,2.9
	c13.2-3.7,25.9-9.5,37-17.7c12.8-9.3,23.9-21.8,29.4-36.9c6.6-18.4,4.1-39.7-6.5-56.1c-6.9-11.1-16.8-20.4-28.3-26.5
	c-15.8-8.5-33.5-12.3-51.1-15.2c-22-3.5-44.3-5.3-66.5-8.2c-3.3-0.5-4.9-4.6-3.4-7.3c0.8-1.7,2.6-2.3,4.3-2.9
	c23.3-7.9,45.9-17.9,69.6-24.5c19.9-5.6,41-8.7,61.5-5c29.5,5.1,56,23.2,72.7,47.8c23.8,34.7,29.6,80.9,15.9,120.6
	C541.3,551,520,576.6,494,594.9c-26.8,19-58.7,29.5-90.8,34.8c-47.5,7.5-97,2.5-141.9-15c-63.2-24.3-116.4-73-146.4-133.7
	c-32.3-64.4-37.3-141.8-13.7-209.9C108.8,249,119.3,227.7,132.4,208.3z"/>
</svg>
