<?xml version="1.0" encoding="utf-8"?>
<!-- Generator: Adobe Illustrator 21.0.0, SVG Export Plug-In . SVG Version: 6.00 Build 0)  -->
<svg version="1.1" id="Layer_1" xmlns="http://www.w3.org/2000/svg" xmlns:xlink="http://www.w3.org/1999/xlink" x="0px" y="0px"
	 viewBox="0 0 510.5 358.5" style="enable-background:new 0 0 510.5 358.5;" xml:space="preserve">
<style type="text/css">
	.st0{fill:#373736;stroke:#373736;stroke-width:9.375000e-02;}
	.st1{fill:#F6A016;stroke:#F6A016;stroke-width:9.375000e-02;}
</style>
<path class="st0" d="M0,0.1c91.9,55.2,183.8,110.3,275.7,165.4c10.4,6.5,17.2,18.4,17.5,30.6c0.1,7,0,14.1,0,21.1
	c72.4-43.5,144.8-86.9,217.2-130.3c0,29,0,58,0,86.9c-33.4,20.1-66.8,40.1-100.2,60.1c-26.7,16.2-53.7,31.9-80.2,48.3
	c34.8,0.1,69.6,0,104.3,0c0-13.4,0-26.8,0-40.2c25.3-15.2,50.7-30.4,76.1-45.7c0,41.2,0,82.3,0,123.5c0.1,10.3-4.1,20.5-11.6,27.6
	c-7,6.9-16.8,10.8-26.6,10.8c-85,0-170,0-255,0c0-47.1,0-94.1,0-141.2C144.8,173.9,72.4,130.4,0,87C0,58,0,29.1,0,0.1z"/>
<path class="st1" d="M227.4,12.3c7.1-7.7,17.4-12.2,27.9-12.1c85,0,170.1,0,255.1,0c-41.6,25.1-83.4,50-125.1,75.1
	c-1.8,1.3-4.1,0.9-6.1,1c-28.6-0.1-57.3,0-85.9,0c0,25.7,0,51.4,0,77.1c-25.3-15.2-50.6-30.5-76-45.5c-0.2-22.9,0-45.8-0.1-68.7
	C217,29.3,220.6,19.4,227.4,12.3z"/>
<path class="st0" d="M0,109.7c25.4,15.2,50.7,30.5,76.1,45.6c0,67.7,0,135.4,0,203.1c-13,0-25.9,0-38.9,0
	c-11.1-0.2-22-5.6-28.9-14.4c-5.4-6.7-8.4-15.4-8.3-24C0,250,0,179.9,0,109.7z"/>
</svg>
