<?xml version="1.0" encoding="utf-8"?>
<!-- Generator: Adobe Illustrator 21.0.0, SVG Export Plug-In . SVG Version: 6.00 Build 0)  -->
<svg version="1.1" id="Layer_1" xmlns="http://www.w3.org/2000/svg" xmlns:xlink="http://www.w3.org/1999/xlink" x="0px" y="0px"
	 viewBox="0 0 364.4 363.9" style="enable-background:new 0 0 364.4 363.9;" xml:space="preserve">
<style type="text/css">
	.st0{fill:#D20000;}
</style>
<path class="st0" d="M162.3,0.9C174.1-0.3,186,0,197.9,0.4c25.8,2.2,51.2,9.7,73.7,22.7c18.5,10,34.7,23.9,48.6,39.6
	c10.9,12.2,19.4,26.4,26.8,40.9c18.7,39.5,22.5,85.8,10.6,127.8c-8.5,32.5-27.6,61.6-51.9,84.5c-27.8,25.9-64.2,41.8-101.7,46.6
	c-10.9,1.9-22,1.4-33,1.1c-29-2.6-57.8-10.8-82.7-26.1c-19.1-11.2-35.9-26.1-49.6-43.5c-13.2-17.3-23.6-36.7-30.3-57.4
	c-12.8-40.6-11.1-85.9,5.9-125.1c9.4-22.6,23.2-43.3,41-60.2C65.5,41,77.6,32.6,90.1,25.1C112.2,12.2,136.8,3.5,162.3,0.9
	 M115.5,45.8C88.1,59.5,64.6,81.2,50,108.2c-13,22.3-18.7,48.2-19.5,73.8c0.1,6.4,1,12.7,1.6,19c1.7,18.5,7.7,36.6,16.8,52.7
	c13.8,26.3,36,47.9,62.1,61.9c16.2,8.1,33.5,14.2,51.5,16.2c21.8,3.5,44.3,1,65.5-5.3c2.1-15.8,5.1-32.1,13.3-46
	c9.2-15.1,26.2-24.6,43.6-26.8c10.4-0.9,20.9-0.5,31.2,0.7c0.2-1.4,0.3-2.8,0.5-4.1c-9.1-0.6-18.3-1-27-4.1
	c-12.8-3.9-24.5-12.8-30.3-25.1c-6.8-14.6-12.9-30-13.8-46.3c-0.9-12.5,2.1-25.1,8.4-36c4.7-8.5,11.9-15.3,18.9-22
	c4.2-4,9.1-7.3,14-10.4c10.3,10.9,20.1,22.4,29,34.5c5.4,7.2,10,14.9,15.6,21.9c0.4-4.8-0.1-9.6-1.2-14.2
	c-5.9-25.3-18-49.3-35.5-68.6C266.5,49,225,29.7,182.8,30.4C159.5,29.8,136.5,36,115.5,45.8z"/>
<path class="st0" d="M193.4,76.9c19.3-1.4,38.9-0.5,57.8,4c6.9,1.6,13.7,4.1,19.5,8.2c3.2,2.3,6.3,5.6,6,9.9c0.5,4.8-3,8.5-6.2,11.7
	C256.4,123.7,244.6,139,234,155c-3.8,5.5-6.8,11.8-12.2,15.9c-6.6,4.5-15.1,3.9-22.6,3.3c-11.2-1.6-22.5-4.6-32.2-10.6
	c-9.2-5.4-19.6-8.7-30.1-10c-9.3-1.1-19.6,1.5-28-3.8c-7.2-4.6-9.1-13.9-8.6-21.9c0.5-7.5,0.9-16.2,7.1-21.4
	c14-12.4,31.9-19.4,49.8-23.9C169.1,79.8,181.2,78,193.4,76.9 M164.1,88.9c-6.8,2.1-13.3,5.5-18.5,10.4c11.5-4.9,23.9-7.3,36.3-8.8
	c8.4-0.2,17-0.9,25.1,1.6c11.3,3.2,21.3,9.3,31.4,15.1c5,2.8,10.4,6.1,16.4,4.9c3.3-0.9,6.7-4.3,5.4-7.9c-2.3-7-8.8-11.6-15.4-14.1
	c-14.9-5.7-30.8-9.8-46.9-8.6C186.2,82.3,175.1,85.5,164.1,88.9z"/>
<path class="st0" d="M73,158.8c4.8-12.4,13.3-22.9,20.1-34.3c-0.1,10.7,2.9,22.6,12.2,28.9c8.7,6.2,20.4,4.3,29.4,9.7
	c12.4,6.9,19.8,19.8,25.4,32.4c9.9,22.9,7.9,50-3.5,72.1c-4.6,8.8-11.4,17.6-21.4,20.4c5.6-9,12.8-17.5,14.9-28.1
	c1-7.2,1.1-15.2-3-21.5c-4.3-7.3-12.6-11-20.6-12.8c-13.3-3-27.3-4.9-39.4-11.8c-8.7-4.9-17-12.2-19.5-22.2
	C65.3,180.4,68.9,169.2,73,158.8 M124.1,173.1c0.3,2.9-0.4,6.4,1.7,8.8c2.9,3.5,6.7,6,10,9.1c7.8,7,13.8,15.7,18.3,25.1
	c1.7,3.6,2.3,7.5,2.6,11.4c1.4,0.1,2.8,0.1,4.2,0.2c-1.3-7.6-3.4-15.2-5.9-22.5c-4.1-11.7-11.1-22.7-21.5-29.8
	C130.7,173.3,127.3,173.3,124.1,173.1z"/>
</svg>
