<?xml version="1.0" encoding="UTF-8"?>
<!-- Generator: Adobe Illustrator 21.0.0, SVG Export Plug-In . SVG Version: 6.00 Build 0)  -->
<svg version="1.1" id="Layer_1" xmlns="http://www.w3.org/2000/svg" xmlns:xlink="http://www.w3.org/1999/xlink" x="0px" y="0px" viewBox="0 0 278.4 236.1" style="enable-background:new 0 0 278.4 236.1;" xml:space="preserve">
<style type="text/css">
	.st0{fill:#FFFFFF;stroke:#9B9B9B;stroke-miterlimit:10;}
	.st1{fill:#FD453B;}
</style>
<g id="_x23_ffffffff">
	<path class="st0" d="M218.2,0.7c5.8,2.1,9.7,7.6,15.4,9.6c4.3-1.1,8.7-0.9,13.1-1c2.3,4.3,3.9,8.9,6.8,12.7c3.7,2,7.8,3,11.7,4.6   c0.6,1.5-1.2,2-2,2.9c-3.5,2.5-6.7,5.3-10.2,7.8c-1.3,0.9-2.9,0.1-4.2-0.6c-10.3-5.5-20.8-10.5-30.9-16.1   C218.1,14.1,218.2,7.4,218.2,0.7z"/>
	<path class="st0" d="M112.7,43.1c5.6,0.8,11.4,0,16.8,1.8c-4.9,1.7-10.2,1.4-15.2,2.8C94.9,52.5,76.1,61,61.2,74.6   c-4.7,4.3-8.2,9.6-11.6,14.9c5,0.5,10.1-0.1,15.1,0.4c4.8,0.8,9.7,0.3,14.5,0.4c1.1,14,3.3,28,6.8,41.7c2.7,10.8,7.8,20.7,13.7,30   c16.9,25.7,48.4,40.7,79,38.2c17.9-2.3,35.6-7.7,51.3-16.8c-3.4,5.7-8.4,10.2-12.9,15c-13.2,12.6-27.6,24.3-44.6,31.3   c-6.6,2.9-13.8,4.3-20.8,5.7c-5,0.3-10.1,0.2-15.1,0c-10-1.6-20.2-2.9-29.6-6.8c-21.2-8.3-37.9-24.9-50.8-43.3   c-11.7-17.2-21.5-35.7-30.5-54.5C15.5,110.4,9.4,88.3,5.5,65.9C5,60.8,3.6,55.8,4.1,50.7c21.4-3.2,44.7-5.6,69.6-6.8   C87.2,43.2,100.2,43,112.7,43.1z"/>
</g>
<g id="_x23_fd453bff">
	<path class="st1" d="M0.2,4.5C32,8,63.9,10.1,95.7,13.3c5.1-0.2,10,1.4,15.1,1.2c-1.4-3.6-3.4-6.8-5.1-10.2c7.1-0.3,14,1.4,21,2.2   c24.6,3.9,48.9,9.6,72.5,17.5c21,7.1,41.7,16.3,58.5,31c1.8,2.3,2.5,5.3,4.5,7.4c4.5,4.9,10.7,8.2,14,14.2   c2.7,3.9,2.5,8.8,1.8,13.2c-1.9,7.4-4.9,14.4-8.8,21c-0.4,1.1-1.8,1-2.2-0.1c-7.6-10-19.8-15.7-32-17.5c-6.1-1.2-12.3-0.8-18.4-0.7   c-15.6,1.2-32.3,5.3-43.3,17.1c-14.3,15.3-13.8,41.8,1,56.6c11.1,10,26.8,12.8,41.3,12.3c4.3,0.2,8.6-0.9,12.9-1.1   c-1.4,1.2-2.8,2.4-4.4,3.2c-10.9,5.8-22.6,10.3-34.8,12.6c-8.9,1.8-18,1.5-27,1c-19.7-2.4-38.6-12.1-51.7-27.1   c-6.7-7.5-11.3-16.5-15.5-25.5c-4.7-12.1-6.8-25-8.8-37.7c-1.1-6.4-1-12.9-2.3-19.3c-8.1-0.2-16.2,0-24.3-0.2   C67.6,75,78.1,68.1,89,62.6c11.1-5.1,22.7-9.3,34.8-11c6.3-0.9,12.5-2.1,18.9-2.2c8.6-0.7,17.1-1.9,25.8-1.8c0-2.9-2.2-2.3-5.2-2.9   c-14.8-3-14.8-3-15.3-3.1c-2.5-0.7-15.4-2.7-23.3-3.1c-13.6-1.7-27.3-1-41-0.9c-24.8,1.7-49.6,4.2-74.3,7.7c-2.3,0.4-4.7,0.4-7,0.4   C2.1,31.9-0.6,18.3,0.2,4.5 M224.3,57c0.9,2.3,2,4.5,3.2,6.6c4.2-0.1,8.4,0.1,12.6-0.3C235.4,60.1,229.8,58.2,224.3,57z"/>
</g>
</svg>