<?xml version="1.0" encoding="UTF-8"?>
<!-- Generator: Adobe Illustrator 19.0.0, SVG Export Plug-In . SVG Version: 6.00 Build 0)  -->
<svg version="1.1" id="Layer_1" xmlns="http://www.w3.org/2000/svg" xmlns:xlink="http://www.w3.org/1999/xlink" x="0px" y="0px" viewBox="-143.671 278.73 304.76 284.604" style="enable-background:new -143.671 278.73 304.76 284.604;" xml:space="preserve">
<style type="text/css">
	.st0{fill:#020000;}
	.st1{fill:#FFFFFF;}
	.st2{fill:#1FB093;}
</style>
<g id="_x23_020000ff">
	<path class="st0" d="M104.91,278.73c-2.5,9.09-7.66,17.18-13.88,24.17c-13.54,15.78-32.25,25.84-51.1,33.92   c-7.96,2.73-16.17,4.68-24.32,6.8c0.39,3.06,0.21,6.3,1.63,9.14c2.67,0.03,5.33,0.16,7.98,0.43c2.73-1.95,5.14-4.66,8.55-5.38   c3.14-0.79,6.45-0.67,9.56-1.66c7.19-2.32,14.75-3.05,22.21-4.02c12.31-1.93,24.76-2.89,37.03-5.09c11.07-2.77,21.83-7,31.54-13.02   c5.46-3.75,10.11-8.54,14.57-13.41c4.71-5.03,7.28-11.59,11.65-16.89c1.49,8.76,1,18.24-3.4,26.14   c-4.87,9.88-13.09,17.88-22.5,23.48c-9.58,5.9-20.35,9.4-30.94,12.97c-15.37,4.85-30.93,9.25-46.8,12.12   c-0.98,2.02-1.69,4.22-3.03,6.04c-1.64,1.5-3.53,2.69-5.31,4.02c-0.12,4.51-1.78,8.68-4.72,12.08c3.07,6.98,4.04,14.62,5.56,22.03   c4.3,1.56,9.36,4.99,8.16,10.28c-1.77,3.63-1.6,8.7-5.62,10.76c-4.37,2.71-9.72,2.36-14.65,2.63c0.45,2.48,1.43,4.99,0.96,7.54   c-0.76,1.54-2.01,2.77-3.06,4.11c0.03,3.88-3.59,6.16-7,6.86c-6.53,2.13-13.62,1.32-20.02-0.83c-4.27-3.99-5.86-9.97-5.52-15.67   c-4.83-3-8.65-7.24-12.32-11.51c-3.11,0.84-5.62,2.8-6.62,5.95c4.02,6.95,9.07,13.47,11.38,21.28c1.63,5.61,3.13,11.3,3.78,17.12   c10.28,0.37,21.03-2.76,30.94,1.13c9.47,3.73,15.12,13.09,17.93,22.44c1.94-6.3,4.58-12.48,8.44-17.85   c4.54-5.49,10.25-9.86,16.09-13.88c13.11-10.13,22.22-25.56,23.84-42.14c-0.09-1.32,0.35-3.08-0.87-4.01   c-4.48-3.32-11.06-3.81-14.18-8.89c-3.91-6.65-5.4-14.47-5.63-22.1c-0.21-2.89,1.57-5.24,3.54-7.14c0.32-1.2-0.18-3.02,1.19-3.67   c6.58-3.49,14.08-4.31,21.37-5.02c6.08-2.23,12.54-2.76,18.85-3.99c3.45,0.91,3.73,5.49,5.88,7.92c2.37,4.51,8.09,3.89,12.37,4.63   c2.01,5.56,1.49,11.52,1.77,17.31c0.16,8.32,0.78,16.69-0.36,24.97c-0.79,5.44-1.09,11.1-3.57,16.12   c-3.47,8.49-7.82,16.64-10.76,25.34c-2.45,8.79-4.28,17.74-6.48,26.59c-1.82,8.46-2.95,17.11-5.62,25.37   c-3.28,11.96-11.14,21.85-18.63,31.46c-4.08,5.19-7.37,10.94-10.17,16.9c-14.62,1.55-29.41,0.52-43.83-2.22   c-11.55-1.6-22.8-4.81-33.83-8.52c-5.2-1.76-10.92-2.93-15.05-6.81c-2.09-2.7-5.46-0.54-7.92,0.39c-7.76-3.07-15.51-6.15-23.3-9.15   c-6.3-2.13-10.82-7.29-16.33-10.8c-1.44,1.75-2.86,3.51-4.27,5.28c5.12,4.3,10.61,8.25,17.19,9.94   c-7.07-0.93-14.12-2.86-20.31-6.49c-1.82,1.45-3.62,2.93-5.41,4.4c4.13,2.49,8.05,5.32,11.78,8.39c-4.94-1.89-9.66-4.32-14.39-6.68   c-0.98,0.76-1.94,1.53-2.89,2.33c1.87,1.14,3.74,2.3,5.58,3.49c-0.47,1.55,1.04,2.25,1.92,3.1c2.24,1.77,4.47,3.58,6.51,5.58   c-6.26-2.41-12.15-5.65-17.98-8.93c5.79,5.93,13.47,9.34,20.16,14.04c-14.13-4.3-27.67-11.61-37.7-22.63   c-16.21-18.41-28.91-41.43-29.35-66.47c0.38-4.74,1.03-9.46,1.7-14.16c0.5-3.7,2.27-7.33,1.44-11.11   c-1.56-8.14-2.2-16.42-2.64-24.68c-0.3-8.79,1.91-17.37,3.7-25.9c-4.93-7.42-10.43-14.7-13.23-23.27c-1.53-4.04-2.57-8.38-5.01-12   c-2.36-2.46-6.08-4.99-4.38-8.96c3.62-6.49,11.04-9.33,17-13.18c4.52-4.89,6.11-12.28,12.1-15.88c12.56-7.75,28.2-7.17,41.19-13.88   c4.82-2.31,7.05-7.96,12.23-9.74c8.39-3.47,17.69-4.91,26.74-4.19c7.28,0.95,14.79,2.05,21.3,5.69   c5.97,3.42,11.32,7.77,16.78,11.92c13.29-2.58,26.82-3.59,40.21-5.54c7.67-1.71,15.41-3.34,22.85-5.9   C80.5,294.53,94.93,289.72,104.91,278.73 M59.02,307.09c-10,3.46-20.59,4.7-31.06,5.84c-13.28,2.75-27.37,2.38-39.88,8.2   c-5.8,2.68-12.03,5.62-15.65,11.14c-3.14,5.6-4.55,12.43-2.43,18.65c1.64,8.25,13.04,13.16,19.77,7.7c3.2-2.41,7.02-4.72,8.45-8.68   c0.73-1.65-0.8-3.1-1.34-4.54c-3.87,0.07-6.52,3.19-9.53,5.17c2.93-3.76,6.35-7.6,11.12-8.91c3.16-0.65,6.42-0.43,9.62-0.64   c8.79-0.32,17.3-2.85,25.64-5.44c15.62-4.64,29.4-13.87,41.76-24.28c5.87-5.29,10.71-11.58,15.84-17.57   C80.89,298.94,70.2,303.68,59.02,307.09 M-56.46,301.56c-4.2,0.99-9.19,3.02-9.94,7.86c1.72-0.02,3.25-0.82,4.79-1.5   c-1.42,1.03-2.81,2.08-4.18,3.17c-0.45,1.25-0.77,2.57-1.48,3.71c-1.92,0.14-3.76-0.74-5.68-0.72   c-13.46,0.54-26.73,5.22-37.46,13.39c-4.86,3.58-6.97,9.58-11.34,13.63c-2.96,2.75-6.09,5.33-9.44,7.58   c-1.34,1.02-3.19,2.15-3.07,4.08c2.41,4.05,4.89,8.06,7.32,12.1c3.36,5.56,8.36,9.79,12.93,14.3c1.32-2.24,3.78-3.89,4.48-6.39   c-0.88-3.13-4.68-3.51-7.21-4.59c5.53-2.19,11.37-3.31,17.31-3.59c0.17-16.68,11.41-30.29,22.48-41.59   c1.85,0.74,3.36,2.07,5.03,3.14c-0.62-2.2-1.91-4.08-3.46-5.73c3.51,0.46,7.18,0.81,10.55-0.55c-0.82-0.73-2.47-2.18-3.29-2.91   c2.46,0.31,4.93,0.61,7.4,0.82c-1.67-0.95-3.35-1.86-5.03-2.77c2.75-3.14,5.75-7.09,10.51-6.3c-1.66,1.14-3.27,2.36-4.67,3.82   c4.83-1.97,9.44-5.38,14.93-4.78c7.4,0.59,14.65-2.38,22.02-1.25c2.01,0.19,3.34,1.83,4.8,3.03c-2.25,1-4.35,2.47-6.79,2.96   c-2.39,0.06-4.76-0.37-7.12-0.7c0.82,1.19,1.63,2.39,2.44,3.58c0.9,0.18,2.69,0.55,3.58,0.73c-0.51,0.51-1.54,1.53-2.06,2.05   c-6.35-2.1-13.17-3.02-19.82-2.04c-4.93,0.97-8.65,4.69-12.28,7.9c5.15-2.21,10.83-2.71,15.94-5.05   c-4.25,3.35-8.45,6.81-11.84,11.06c4.71-1.06,9.23-2.77,13.87-4.06c0.39-0.62,1.16-1.85,1.55-2.46c4.05,0.49,7.55,2.65,10.38,5.5   c0.45-0.95,0.9-1.9,1.35-2.84c-3.34-2.06-7.08-3.28-10.62-4.93c1.84-0.42,3.66-0.98,5.55-1.12c2.79,0.15,5.1,1.89,7.32,3.39   c6.16-3.74,12.51-7.42,19.61-9.06c-1.89-4.89-6.54-7.48-10.75-10.08c0.56,1.27,1.11,2.54,1.64,3.83   c-3.95-1.62-7.36-4.29-11.32-5.88C-36.85,298.96-46.9,300.06-56.46,301.56 M148.01,316.92c-8.35,7.72-18,14.1-28.48,18.53   c-14.72,6.05-30.69,7.51-46.31,9.59l-0.56,0.25c-9.05,0.02-17.86,2.38-26.81,3.37c4.8,3.44,8.62,8.25,10,14.08   c19.43-3.46,38.63-8.37,57.32-14.74c9.67-3.73,19.77-7.28,27.67-14.23c5.74-4.94,11.44-10.38,14.64-17.37   c2.64-5.16,2.92-11.11,3.6-16.76C155.81,305.63,153.15,312.21,148.01,316.92 M-6.36,308.88c0.87,1.42,1.77,2.83,2.66,4.25   c1.27-0.25,2.54-0.51,3.81-0.76C-1.52,310.35-3.9,309.41-6.36,308.88 M-59.81,333.06c-0.23,0.5-0.7,1.49-0.93,1.98   c5.45-1.7,10.67-4.04,16-6.1c-0.38,1.78-1.41,2.82-3.1,3.15c-5.26,1.76-10.84,3.2-15.33,6.61c-3.49,3.34-4.86,8.16-6.89,12.4   c5.7-3.55,12.57-4.68,19.2-4.68c-4.02,1.6-8.46,2.03-12.22,4.26c-7.71,4.42-13.93,10.86-20.7,16.51   c-5.84,4.78-11.41,9.89-17.14,14.8c-4.67,5.81-4.74,13.88-4.5,20.99c-1.48-0.08-2.97-0.16-4.45-0.24   c-0.39,6.23-0.3,12.48-0.82,18.71c-0.8-6.52-1.4-13.07-1.72-19.64c-1.13,4.98-2.7,9.92-2.88,15.06   c-0.16,5.02-0.09,10.05,0.08,15.07c5.11-7.78,8.81-16.58,15.28-23.4c-1.71-6.05-3-13.03-0.53-18.98   c2.02,5.26,1.73,11.03,3.47,16.37c6.19-5.43,12.83-10.8,20.76-13.4c2.72-0.65,6.17-1.71,8.5,0.39c-0.11,2.87-2.01,5.61-0.96,8.53   c2.67,9.5,7.59,18.19,12.26,26.83c0.9,1.39,1.47,3.17,2.86,4.13c3.96,0.8,8,1.16,12.02,1.55c-1.68-0.93-5.08-1.95-3.93-4.5   c2.82-3.08,6.52-5.15,10.04-7.33c-1.13-5.68-2.22-11.43-1.94-17.25c0.43-2.76-1.17-5.12-2.09-7.59c4.07-2.89,8.28-5.75,13.27-6.73   c-0.16,4.94-1.27,10.17,0.54,14.91c2.79,3.94,6.21,8.86,11.66,8.57c4.25-0.1,8.16,1.81,11.66,4.04c-1.2-0.13-3.61-0.38-4.82-0.51   c1.43,1.09,2.5,4.03,4.78,2.9c-0.12,1.94-0.8,3.99-0.17,5.89c1.92,4,5.25,7.06,7.6,10.79c0.81,4.01-0.42,8.74,2.58,12.06   c3.9,4.76,10.77,3.9,16.23,3.57c3.36-0.8,7.92-0.6,9.51-4.3c-4.06,0.64-8.15,1.28-12.27,0.85c3.23-0.71,6.57-0.69,9.81-1.33   c2.86-1.48,5.48-4.04,5.71-7.43c-3.15,1.91-6.06,4.44-9.7,5.37c-4.77,0.75-9.42-1.28-13.46-3.59   c-6.77-3.89-11.44-10.44-14.14-17.65c1.79-7.32,7.08-15.31,15.51-15.02c-1.03,0.9-2.07,1.79-3.13,2.65   c5.39,6.62,6.52,16.16,13.6,21.45c3.56,1.15,7.39,2.56,11.17,1.71c3.39-0.68,6.85-0.23,10.27-0.55c3.65-0.23,5.8-3.62,8.01-6.09   c-0.65-0.03-1.96-0.09-2.61-0.12c2.08-2.02,4.53-5.03,3.16-8.08c-0.79-3.19-4.18-4.26-6.81-5.5c-3.21-9.52-6.63-19.19-12.69-27.35   c1.83-0.21,3.59,0.28,5.29,0.92c3.02-1.88,4.89-5.96,3.47-9.38c-2.44-6.94-5.73-13.95-11.49-18.77c0.48-0.31,1.42-0.94,1.89-1.25   c4.3,1.61,7.57,5,10.1,8.72c0.04,3.07-0.88,6.63,1.6,9.03c1.67-2.54,3.67-4.87,5.19-7.5c1.9-7.55-3.09-14.52-8.97-18.67   c-5.03-0.45-10.77,0.64-14.13,4.77c-1.07,1.7-3.08,0.76-4.49,0.15c-2.75-1.19-6-0.23-8.69-1.49c-3.58-2.62-6.94-5.6-9.63-9.15   c-2.17,0.2-4.36,0.28-6.55,0.26c0.5,2.06,1.43,4.25,0.55,6.35c-1.52,5.88-7.16,9-11.71,12.34c-3.55,2.62-8.19,1.98-12.32,1.81   c-0.69,4.29,1.51,7.99,4.05,11.21c-1.99-1.37-4.09-2.69-5.63-4.59c-1.59-1.87-1.2-4.49-1.43-6.76c-6.83-2.08-14-1.31-20.71,0.81   c0.7-1.43,1.4-2.85,2.1-4.28c4.88-1.5,9.9-2.56,15.02-2.8c-1.19-2.75-2.58-5.45-3.41-8.34c-0.83-3.44-0.58-7.01-0.62-10.51   c-1.55,0.63-3.1,1.25-4.65,1.87c-0.01-0.79-0.03-2.36-0.04-3.15c4.13,0.31,5.54-3.49,6.9-6.61c-3.55-1.39-6.94-3.21-10.61-4.28   C-48.88,329.1-54.29,331.44-59.81,333.06 M99.85,374.32c-4.83,0.51-9.58,1.54-14.19,3.06c2.04,0.61,4.04,1.41,6.15,1.75   c1.83-1.02,3.49-2.5,5.72-2.49c-0.35,2.3-0.25,4.96-1.93,6.79c-1.72,1.69-3.98,2.66-6.02,3.87c0.46-1.4,1-2.78,1.34-4.21   c-2.45-1.91-6.06-1.49-9.02-1.44c-3.25-0.07-4.15,3.61-3.93,6.21c0.5,7.38,2.5,15.01,7.46,20.68c3.88,3.42,9.38,3.85,13.64,6.65   c1.08,8.5-2.4,16.73-5.41,24.51c-2.86,8.24-8.59,15.09-14.46,21.38c-7.87,6.36-16.73,12.09-22.04,20.99   c-4.27,7.46-6.86,15.89-8.03,24.38c2.37-7.71,5.1-15.82,11.5-21.18c-3.36,6.33-6.52,12.83-8.55,19.73   c-1.41,5.63-2.37,11.37-2.9,17.16c-13.35-2.82-26.6-6.09-39.98-8.79c-0.88-0.39-2.63-0.05-2.88-1.16   c14.34,0.48,28.83,3.26,42.17,8.87c-0.29-3.49-0.32-6.99,0.1-10.47c-1.6-1.05-0.67-3.15-0.93-4.68c0.33-4.82-2.15-9.12-4.73-12.98   c-2.99-4.31-5-9.43-9.21-12.78c-5.1-4.27-12-7.2-18.73-5.77c-5.24,0.98-10.66,1.15-15.76,2.75c-1.58,4.59-1.72,10.22-5.81,13.49   c-0.88,3.85-0.93,7.81-0.76,11.74c-1.1-2.9-1.98-6.01-1.07-9.1c2-8.43,2.85-17.28,0.89-25.8c-2.15-8.61-3.62-17.74-8.75-25.2   c-2.95-4.21-5.86-8.53-9.54-12.14c-2.69-0.2-2.39,2.55-2.88,4.36c-0.9-0.26-2.69-0.79-3.58-1.05c-2.83,1.89-5.48,4.32-8.88,5.11   c-3.3,0.51-6.61-0.35-9.86-0.86c1.49,2.44,2.92,4.93,4.25,7.46c-9.85-9.65-20.88-18.95-26.32-31.99c-0.88-2.57-1.7-5.17-3-7.57   c-3.53,0.71-6.77,2.36-9.64,4.5c-11.94,8.06-18.4,21.65-23.48,34.66c-1.81,3.81-0.27,7.97,0.44,11.85   c1.68,6.46,2.34,13.16,4.24,19.56c0.3,0.17,0.91,0.51,1.21,0.68c0.9,5.53,2.77,10.93,6.57,15.17c-2.45-1-5.1-1.64-7.3-3.16   c-2.54-2.21-2.74-5.84-4.05-8.76c-1.95-4.48-4.11-8.89-6.66-13.05c-1.47,15.67,3.75,31.07,10.92,44.78   c6.04,11.88,16.74,20.31,26.82,28.63c0.93-0.7,1.87-1.39,2.81-2.08c-9.57-6.94-19.84-13.73-26.25-23.94   c-1.94-3.18-4.64-6.14-5.08-9.99c3.39,1.81,5.43,5.19,8.1,7.82c7.85,8.81,16.88,16.44,25.91,23.98c1.71-1.97,3.5-3.87,5.36-5.71   c-6.47-4.56-13.19-9.05-18.1-15.37c-2.44-3.25-6.04-6.23-6.22-10.58c5.7,3.02,9.61,8.32,14.52,12.36   c4.21,3.43,8.09,7.28,12.5,10.44c3.69,1.19,5.62-4.59,2.82-6.69c-3.37-3.13-5.85-7.01-8.73-10.54c-4.03-1.7-8.38-2.64-12.25-4.73   c-5.63-2.78-10.51-6.98-14.06-12.15c2.97,2.27,6.23,5.68,10.28,3.68c3.76,3.32,8.35,5.43,13.03,7.12c-0.22-0.43-0.67-1.3-0.89-1.74   c-4.73-2.94-11.2-5.31-12.67-11.27c6.78,3.01,13.71,5.74,20.89,7.65c18.14,4.38,36.8,0.57,55.01-1.29   c-4.43,3.32-9.7,5.09-15.05,6.31c6.09,0.32,11.95,2.07,17.48,4.56c-17.84,0.83-35.71,1.2-53.57,1.4   c-0.05,6.14,6.07,8.92,10.28,12.1c8.52,6.32,17.69,11.86,27.73,15.39c6.61,1.05,13.42-0.12,20.04,0.96   c4.38,1.35,8.71,2.9,13.1,4.25c-0.71,0.45-1.41,0.91-2.11,1.37c11.27,3.59,22.72,6.57,34,10.13c4.58,1.41,9.42,0.74,14.12,1.02   c6.85,0.07,13.56,1.61,20.38,1.94c1.27-4.79,3.39-9.34,6.37-13.31c5.08-6.92,10.48-13.62,15.12-20.85   c4.57-7.71,5.44-16.86,7.64-25.35c2.11-2.67,5.4-0.43,7.23,1.36c-0.98-18.65,5.12-36.99,14.12-53.11c1.85-3.48,4.39-6.72,5-10.71   c0.54-3.7,2.53-6.95,3.39-10.55c1-13.99,0.75-28.03,0.77-42.05c-7.96,0.55-16.03-4.5-18.7-12.07   C111.47,371.51,105.83,373.68,99.85,374.32 M6.22,415.87c1.66,6.17,5.9,11.15,9.95,15.91c2.37,2.6,4.86,5.79,8.7,5.95   c2.89,0.23,6.28,1.62,8.78-0.49c-4.04-1.42-8.88-1.7-11.86-5.15c-4.97-5.66-6.62-13.49-11.93-18.9   C8.62,414.05,7.41,414.95,6.22,415.87 M4.64,419.38c-1.36,1.82-3.8,3.85-2.45,6.39c3.36,7.33,8.74,14.23,16.29,17.55   c5.87,2.88,13.23-0.09,16.71-5.32c-0.88,0.37-2.63,1.11-3.5,1.48c-4.44-0.37-9.32-0.33-13.08-3.07   C12.68,431.89,8.95,425.31,4.64,419.38z"/>
	<path class="st0" d="M-106.25,328.64c4.55-3.27,10-5.05,15.35-6.55c1.53-0.84,2.52,2.38,0.86,2.71c-4.6,2.07-9.5,3.51-13.78,6.25   c-5.28,3.4-9.56,8.07-14.22,12.24C-114.6,338.06-111.08,332.7-106.25,328.64z"/>
	<path class="st0" d="M-78.34,363.6c3.43-2.27,7.42-4.19,11.65-3.79c-0.62,2.06-2.37,3.3-4.11,4.36   c-9.15,5.26-16.69,12.79-25.17,19.01C-91.12,375.83-85.49,368.83-78.34,363.6z"/>
	<path class="st0" d="M22.47,371.55c5.84,3.83,6.79,11.04,10.14,16.64c3.63,6.71,5.29,14.23,7.46,21.48   c-3.48-7.6-5.59-15.86-10.26-22.9c-1.14,3.56-2.52,8.12-6.58,9.24c-3.28,1.2-6.75,0.56-10.1,0.18c-3.38,1.21-7.16,3.18-10.72,1.41   c-2.84-2.07-4.19-5.47-5.76-8.48c1.55,1.9,2.76,4.13,4.7,5.69c1.82,1.3,4.09-0.02,6.06-0.17c-2.89-3.31-7.49-7.07-5-12.03   c1.7,2.98,2.21,6.81,5.1,8.98c2.23,1.78,5.29,0.99,7.91,1.13c-1.07-3.29-2.09-7.06-5.23-8.98c-2.28-1.67-5.18-2.01-7.9-1.56   l-0.66,0.07c-2.15-1.48-4.72-2.7-5.85-5.21c2.19,1.19,4.25,3.96,7.01,2.75c3.67-1.25,7.97-0.22,10.57,2.7   c2.29,2.04,2.71,5.2,4.14,7.77c2.42,3.23,8.08,2.22,9.54-1.48C29.58,382.75,26.69,376.04,22.47,371.55z"/>
	<path class="st0" d="M28.59,393.01c0.54-0.15,1.61-0.46,2.15-0.62c1.78,5.32,4.35,10.42,5.11,16.03   C33.66,403.18,31.17,398.07,28.59,393.01z"/>
	<path class="st0" d="M4.02,401.31c4.45,0.2,8.1-2.66,11.9-4.5c0.19,3.43-3.32,4.78-5.7,6.33c-5.65,2.65-11.92-0.58-15.96-4.64   C-2.66,399.93,0.51,401.59,4.02,401.31z"/>
	<path class="st0" d="M87.32,399.53c6.31,4.34,12.77,8.48,19.89,11.36c-0.01,0.65-0.04,1.96-0.05,2.61   C98.69,412.5,91.52,406.76,87.32,399.53z"/>
	<path class="st0" d="M0.9,414.14c1.07-4.77,4.59-10.18,10.07-9.93c4.83-0.09,7.9,4.22,10.21,7.87c-2.92-2.52-5.91-5.98-10.19-5.52   C6.19,406.29,3.15,410.52,0.9,414.14z"/>
	<path class="st0" d="M24.31,418.21c0.9-2.75,5.42-3.57,6.44-0.49c-1.42,0.54-3.92-0.34-4.67,1.4c0.04,1.79,0.34,3.55,0.54,5.33   C24.38,423.22,22.84,420.66,24.31,418.21z"/>
	<path class="st0" d="M26.8,419.59c3.05,3.88,6.41,7.46,11.01,9.5C32.68,428.7,26.86,425.27,26.8,419.59z"/>
	<path class="st0" d="M-103.48,439.58c0.64-3.35,2.77-5.99,5.96-7.24c-1.06,4.55-2.56,9.01-3.19,13.65   c-1.15,9.89,1.77,19.65,5.14,28.84c-8.03-6.35-11.58-17-11.04-26.98C-106.38,444.89-106.34,441.31-103.48,439.58z"/>
	<path class="st0" d="M101.29,490.83c1.88,0.01,2.7,2.54,2.12,4.05c-3.21,9.52-8.77,18-13.74,26.67   c-5.15,9.16-13.26,16.54-22.69,21.09c-2.84,1.05-5.8,2.84-8.92,2.19c-1.02-0.83-2.76-2-1.81-3.5c9.99-9.04,19.7-18.44,28.84-28.35   C91.45,506.31,94.64,497.26,101.29,490.83z"/>
	<path class="st0" d="M-47.48,515.87c-0.6-2.35,2.48-2.28,3.54-0.98c5.45,6.36,13.67,9.08,21.15,12.27c-1.18,0.1-3.54,0.3-4.72,0.4   c3.95,2.12,8.33,3.18,12.56,4.6c-8.66,0.98-17.17-2.17-24.12-7.17C-42.39,522.56-46.17,519.98-47.48,515.87z"/>
</g>
<g id="_x23_ffffffff">
	<path class="st1" d="M59.02,307.09c11.18-3.41,21.87-8.15,32.31-13.36c-5.13,5.99-9.97,12.28-15.84,17.57   c-12.36,10.41-26.14,19.64-41.76,24.28c-8.34,2.59-16.85,5.12-25.64,5.44c-3.2,0.21-6.46-0.01-9.62,0.64   c-4.77,1.31-8.19,5.15-11.12,8.91c3.01-1.98,5.66-5.1,9.53-5.17c0.54,1.44,2.07,2.89,1.34,4.54c-1.43,3.96-5.25,6.27-8.45,8.68   c-6.73,5.46-18.13,0.55-19.77-7.7c-2.12-6.22-0.71-13.05,2.43-18.65c3.62-5.52,9.85-8.46,15.65-11.14   c12.51-5.82,26.6-5.45,39.88-8.2C38.43,311.79,49.02,310.55,59.02,307.09z"/>
	<path class="st1" d="M148.01,316.92c5.14-4.71,7.8-11.29,11.07-17.28c-0.68,5.65-0.96,11.6-3.6,16.76   c-3.2,6.99-8.9,12.43-14.64,17.37c-7.9,6.95-18,10.5-27.67,14.23c-18.69,6.37-37.89,11.28-57.32,14.74   c-1.38-5.83-5.2-10.64-10-14.08c8.95-0.99,17.76-3.35,26.81-3.37l0.56-0.25c15.62-2.08,31.59-3.54,46.31-9.59   C130.01,331.02,139.66,324.64,148.01,316.92z"/>
	<path class="st1" d="M2.29,382.18c2.72-0.45,5.62-0.11,7.9,1.56c3.14,1.92,4.16,5.69,5.23,8.98c-2.62-0.14-5.68,0.65-7.91-1.13   c-2.89-2.17-3.4-6-5.1-8.98L2.29,382.18z"/>
	<path class="st1" d="M6.22,415.87c1.19-0.92,2.4-1.82,3.64-2.68c5.31,5.41,6.96,13.24,11.93,18.9c2.98,3.45,7.82,3.73,11.86,5.15   c-2.5,2.11-5.89,0.72-8.78,0.49c-3.84-0.16-6.33-3.35-8.7-5.95C12.12,427.02,7.88,422.04,6.22,415.87z"/>
	<path class="st1" d="M4.64,419.38c4.31,5.93,8.04,12.51,13.97,17.03c3.76,2.74,8.64,2.7,13.08,3.07c0.87-0.37,2.62-1.11,3.5-1.48   c-3.48,5.23-10.84,8.2-16.71,5.32C10.93,440,5.55,433.1,2.19,425.77C0.84,423.23,3.28,421.2,4.64,419.38z"/>
</g>
<g id="_x23_1fb093ff">
	<path class="st2" d="M-56.46,301.56c9.56-1.5,19.61-2.6,28.93,0.74c3.96,1.59,7.37,4.26,11.32,5.88c-0.53-1.29-1.08-2.56-1.64-3.83   c4.21,2.6,8.86,5.19,10.75,10.08c-7.1,1.64-13.45,5.32-19.61,9.06c-2.22-1.5-4.53-3.24-7.32-3.39c-1.89,0.14-3.71,0.7-5.55,1.12   c3.54,1.65,7.28,2.87,10.62,4.93c-0.45,0.94-0.9,1.89-1.35,2.84c-2.83-2.85-6.33-5.01-10.38-5.5c-0.39,0.61-1.16,1.84-1.55,2.46   c-4.64,1.29-9.16,3-13.87,4.06c3.39-4.25,7.59-7.71,11.84-11.06c-5.11,2.34-10.79,2.84-15.94,5.05c3.63-3.21,7.35-6.93,12.28-7.9   c6.65-0.98,13.47-0.06,19.82,2.04c0.52-0.52,1.55-1.54,2.06-2.05c-0.89-0.18-2.68-0.55-3.58-0.73c-0.81-1.19-1.62-2.39-2.44-3.58   c2.36,0.33,4.73,0.76,7.12,0.7c2.44-0.49,4.54-1.96,6.79-2.96c-1.46-1.2-2.79-2.84-4.8-3.03c-7.37-1.13-14.62,1.84-22.02,1.25   c-5.49-0.6-10.1,2.81-14.93,4.78c1.4-1.46,3.01-2.68,4.67-3.82c-4.76-0.79-7.76,3.16-10.51,6.3c1.68,0.91,3.36,1.82,5.03,2.77   c-2.47-0.21-4.94-0.51-7.4-0.82c0.82,0.73,2.47,2.18,3.29,2.91c-3.37,1.36-7.04,1.01-10.55,0.55c1.55,1.65,2.84,3.53,3.46,5.73   c-1.67-1.07-3.18-2.4-5.03-3.14c-11.07,11.3-22.31,24.91-22.48,41.59c-5.94,0.28-11.78,1.4-17.31,3.59   c2.53,1.08,6.33,1.46,7.21,4.59c-0.7,2.5-3.16,4.15-4.48,6.39c-4.57-4.51-9.57-8.74-12.93-14.3c-2.43-4.04-4.91-8.05-7.32-12.1   c-0.12-1.93,1.73-3.06,3.07-4.08c3.35-2.25,6.48-4.83,9.44-7.58c4.37-4.05,6.48-10.05,11.34-13.63c10.73-8.17,24-12.85,37.46-13.39   c1.92-0.02,3.76,0.86,5.68,0.72c0.71-1.14,1.03-2.46,1.48-3.71c1.37-1.09,2.76-2.14,4.18-3.17c-1.54,0.68-3.07,1.48-4.79,1.5   C-65.65,304.58-60.66,302.55-56.46,301.56 M-106.25,328.64c-4.83,4.06-8.35,9.42-11.79,14.65c4.66-4.17,8.94-8.84,14.22-12.24   c4.28-2.74,9.18-4.18,13.78-6.25c1.66-0.33,0.67-3.55-0.86-2.71C-96.25,323.59-101.7,325.37-106.25,328.64z"/>
	<path class="st2" d="M-6.36,308.88c2.46,0.53,4.84,1.47,6.47,3.49c-1.27,0.25-2.54,0.51-3.81,0.76   C-4.59,311.71-5.49,310.3-6.36,308.88z"/>
	<path class="st2" d="M-59.81,333.06c5.52-1.62,10.93-3.96,16.69-4.55c3.67,1.07,7.06,2.89,10.61,4.28   c-1.36,3.12-2.77,6.92-6.9,6.61c0.01,0.79,0.03,2.36,0.04,3.15c1.55-0.62,3.1-1.24,4.65-1.87c0.04,3.5-0.21,7.07,0.62,10.51   c0.83,2.89,2.22,5.59,3.41,8.34c-5.12,0.24-10.14,1.3-15.02,2.8c-0.7,1.43-1.4,2.85-2.1,4.28c6.71-2.12,13.88-2.89,20.71-0.81   c0.23,2.27-0.16,4.89,1.43,6.76c1.54,1.9,3.64,3.22,5.63,4.59c-2.54-3.22-4.74-6.92-4.05-11.21c4.13,0.17,8.77,0.81,12.32-1.81   c4.55-3.34,10.19-6.46,11.71-12.34c0.88-2.1-0.05-4.29-0.55-6.35c2.19,0.02,4.38-0.06,6.55-0.26c2.69,3.55,6.05,6.53,9.63,9.15   c2.69,1.26,5.94,0.3,8.69,1.49c1.41,0.61,3.42,1.55,4.49-0.15c3.36-4.13,9.1-5.22,14.13-4.77c5.88,4.15,10.87,11.12,8.97,18.67   c-1.52,2.63-3.52,4.96-5.19,7.5c-2.48-2.4-1.56-5.96-1.6-9.03c-2.53-3.72-5.8-7.11-10.1-8.72c-0.47,0.31-1.41,0.94-1.89,1.25   c5.76,4.82,9.05,11.83,11.49,18.77c1.42,3.42-0.45,7.5-3.47,9.38c-1.7-0.64-3.46-1.13-5.29-0.92c6.06,8.16,9.48,17.83,12.69,27.35   c2.63,1.24,6.02,2.31,6.81,5.5c1.37,3.05-1.08,6.06-3.16,8.08c0.65,0.03,1.96,0.09,2.61,0.12c-2.21,2.47-4.36,5.86-8.01,6.09   c-3.42,0.32-6.88-0.13-10.27,0.55c-3.78,0.85-7.61-0.56-11.17-1.71c-7.08-5.29-8.21-14.83-13.6-21.45c1.06-0.86,2.1-1.75,3.13-2.65   c-8.43-0.29-13.72,7.7-15.51,15.02c2.7,7.21,7.37,13.76,14.14,17.65c4.04,2.31,8.69,4.34,13.46,3.59c3.64-0.93,6.55-3.46,9.7-5.37   c-0.23,3.39-2.85,5.95-5.71,7.43c-3.24,0.64-6.58,0.62-9.81,1.33c4.12,0.43,8.21-0.21,12.27-0.85c-1.59,3.7-6.15,3.5-9.51,4.3   c-5.46,0.33-12.33,1.19-16.23-3.57c-3-3.32-1.77-8.05-2.58-12.06c-2.35-3.73-5.68-6.79-7.6-10.79c-0.63-1.9,0.05-3.95,0.17-5.89   c-2.28,1.13-3.35-1.81-4.78-2.9c1.21,0.13,3.62,0.38,4.82,0.51c-3.5-2.23-7.41-4.14-11.66-4.04c-5.45,0.29-8.87-4.63-11.66-8.57   c-1.81-4.74-0.7-9.97-0.54-14.91c-4.99,0.98-9.2,3.84-13.27,6.73c0.92,2.47,2.52,4.83,2.09,7.59c-0.28,5.82,0.81,11.57,1.94,17.25   c-3.52,2.18-7.22,4.25-10.04,7.33c-1.15,2.55,2.25,3.57,3.93,4.5c-4.02-0.39-8.06-0.75-12.02-1.55c-1.39-0.96-1.96-2.74-2.86-4.13   c-4.67-8.64-9.59-17.33-12.26-26.83c-1.05-2.92,0.85-5.66,0.96-8.53c-2.33-2.1-5.78-1.04-8.5-0.39c-7.93,2.6-14.57,7.97-20.76,13.4   c-1.74-5.34-1.45-11.11-3.47-16.37c-2.47,5.95-1.18,12.93,0.53,18.98c-6.47,6.82-10.17,15.62-15.28,23.4   c-0.17-5.02-0.24-10.05-0.08-15.07c0.18-5.14,1.75-10.08,2.88-15.06c0.32,6.57,0.92,13.12,1.72,19.64   c0.52-6.23,0.43-12.48,0.82-18.71c1.48,0.08,2.97,0.16,4.45,0.24c-0.24-7.11-0.17-15.18,4.5-20.99c5.73-4.91,11.3-10.02,17.14-14.8   c6.77-5.65,12.99-12.09,20.7-16.51c3.76-2.23,8.2-2.66,12.22-4.26c-6.63,0-13.5,1.13-19.2,4.68c2.03-4.24,3.4-9.06,6.89-12.4   c4.49-3.41,10.07-4.85,15.33-6.61c1.69-0.33,2.72-1.37,3.1-3.15c-5.33,2.06-10.55,4.4-16,6.1   C-60.51,334.55-60.04,333.56-59.81,333.06 M-78.34,363.6c-7.15,5.23-12.78,12.23-17.63,19.58c8.48-6.22,16.02-13.75,25.17-19.01   c1.74-1.06,3.49-2.3,4.11-4.36C-70.92,359.41-74.91,361.33-78.34,363.6 M22.47,371.55c4.22,4.49,7.11,11.2,4.57,17.23   c-1.46,3.7-7.12,4.71-9.54,1.48c-1.43-2.57-1.85-5.73-4.14-7.77c-2.6-2.92-6.9-3.95-10.57-2.7c-2.76,1.21-4.82-1.56-7.01-2.75   c1.13,2.51,3.7,3.73,5.85,5.21l0.66-0.07l0.12,0.43c-2.49,4.96,2.11,8.72,5,12.03c-1.97,0.15-4.24,1.47-6.06,0.17   c-1.94-1.56-3.15-3.79-4.7-5.69c1.57,3.01,2.92,6.41,5.76,8.48c3.56,1.77,7.34-0.2,10.72-1.41c3.35,0.38,6.82,1.02,10.1-0.18   c4.06-1.12,5.44-5.68,6.58-9.24c4.67,7.04,6.78,15.3,10.26,22.9c-2.17-7.25-3.83-14.77-7.46-21.48   C29.26,382.59,28.31,375.38,22.47,371.55 M28.59,393.01c2.58,5.06,5.07,10.17,7.26,15.41c-0.76-5.61-3.33-10.71-5.11-16.03   C30.2,392.55,29.13,392.86,28.59,393.01 M4.02,401.31c-3.51,0.28-6.68-1.38-9.76-2.81c4.04,4.06,10.31,7.29,15.96,4.64   c2.38-1.55,5.89-2.9,5.7-6.33C12.12,398.65,8.47,401.51,4.02,401.31 M0.9,414.14c2.25-3.62,5.29-7.85,10.09-7.58   c4.28-0.46,7.27,3,10.19,5.52c-2.31-3.65-5.38-7.96-10.21-7.87C5.49,403.96,1.97,409.37,0.9,414.14 M24.31,418.21   c-1.47,2.45,0.07,5.01,2.31,6.24c-0.2-1.78-0.5-3.54-0.54-5.33c0.75-1.74,3.25-0.86,4.67-1.4   C29.73,414.64,25.21,415.46,24.31,418.21 M26.8,419.59c0.06,5.68,5.88,9.11,11.01,9.5C33.21,427.05,29.85,423.47,26.8,419.59z"/>
	<path class="st2" d="M99.85,374.32c5.98-0.64,11.62-2.81,17.46-4.1c2.67,7.57,10.74,12.62,18.7,12.07   c-0.02,14.02,0.23,28.06-0.77,42.05c-0.86,3.6-2.85,6.85-3.39,10.55c-0.61,3.99-3.15,7.23-5,10.71c-9,16.12-15.1,34.46-14.12,53.11   c-1.83-1.79-5.12-4.03-7.23-1.36c-2.2,8.49-3.07,17.64-7.64,25.35c-4.64,7.23-10.04,13.93-15.12,20.85   c-2.98,3.97-5.1,8.52-6.37,13.31c-6.82-0.33-13.53-1.87-20.38-1.94c-4.7-0.28-9.54,0.39-14.12-1.02   c-11.28-3.56-22.73-6.54-34-10.13c0.7-0.46,1.4-0.92,2.11-1.37c-4.39-1.35-8.72-2.9-13.1-4.25c-6.62-1.08-13.43,0.09-20.04-0.96   c-10.04-3.53-19.21-9.07-27.73-15.39c-4.21-3.18-10.33-5.96-10.28-12.1c17.86-0.2,35.73-0.57,53.57-1.4   c-5.53-2.49-11.39-4.24-17.48-4.56c5.35-1.22,10.62-2.99,15.05-6.31c-18.21,1.86-36.87,5.67-55.01,1.29   c-7.18-1.91-14.11-4.64-20.89-7.65c1.47,5.96,7.94,8.33,12.67,11.27c0.22,0.44,0.67,1.31,0.89,1.74c-4.68-1.69-9.27-3.8-13.03-7.12   c-4.05,2-7.31-1.41-10.28-3.68c3.55,5.17,8.43,9.37,14.06,12.15c3.87,2.09,8.22,3.03,12.25,4.73c2.88,3.53,5.36,7.41,8.73,10.54   c2.8,2.1,0.87,7.88-2.82,6.69c-4.41-3.16-8.29-7.01-12.5-10.44c-4.91-4.04-8.82-9.34-14.52-12.36c0.18,4.35,3.78,7.33,6.22,10.58   c4.91,6.32,11.63,10.81,18.1,15.37c-1.86,1.84-3.65,3.74-5.36,5.71c-9.03-7.54-18.06-15.17-25.91-23.98   c-2.67-2.63-4.71-6.01-8.1-7.82c0.44,3.85,3.14,6.81,5.08,9.99c6.41,10.21,16.68,17,26.25,23.94c-0.94,0.69-1.88,1.38-2.81,2.08   c-10.08-8.32-20.78-16.75-26.82-28.63c-7.17-13.71-12.39-29.11-10.92-44.78c2.55,4.16,4.71,8.57,6.66,13.05   c1.31,2.92,1.51,6.55,4.05,8.76c2.2,1.52,4.85,2.16,7.3,3.16c-3.8-4.24-5.67-9.64-6.57-15.17c-0.3-0.17-0.91-0.51-1.21-0.68   c-1.9-6.4-2.56-13.1-4.24-19.56c-0.71-3.88-2.25-8.04-0.44-11.85c5.08-13.01,11.54-26.6,23.48-34.66c2.87-2.14,6.11-3.79,9.64-4.5   c1.3,2.4,2.12,5,3,7.57c5.44,13.04,16.47,22.34,26.32,31.99c-1.33-2.53-2.76-5.02-4.25-7.46c3.25,0.51,6.56,1.37,9.86,0.86   c3.4-0.79,6.05-3.22,8.88-5.11c0.89,0.26,2.68,0.79,3.58,1.05c0.49-1.81,0.19-4.56,2.88-4.36c3.68,3.61,6.59,7.93,9.54,12.14   c5.13,7.46,6.6,16.59,8.75,25.2c1.96,8.52,1.11,17.37-0.89,25.8c-0.91,3.09-0.03,6.2,1.07,9.1c-0.17-3.93-0.12-7.89,0.76-11.74   c4.09-3.27,4.23-8.9,5.81-13.49c5.1-1.6,10.52-1.77,15.76-2.75c6.73-1.43,13.63,1.5,18.73,5.77c4.21,3.35,6.22,8.47,9.21,12.78   c2.58,3.86,5.06,8.16,4.73,12.98c0.26,1.53-0.67,3.63,0.93,4.68c-0.42,3.48-0.39,6.98-0.1,10.47c-13.34-5.61-27.83-8.39-42.17-8.87   c0.25,1.11,2,0.77,2.88,1.16c13.38,2.7,26.63,5.97,39.98,8.79c0.53-5.79,1.49-11.53,2.9-17.16c2.03-6.9,5.19-13.4,8.55-19.73   c-6.4,5.36-9.13,13.47-11.5,21.18c1.17-8.49,3.76-16.92,8.03-24.38c5.31-8.9,14.17-14.63,22.04-20.99   c5.87-6.29,11.6-13.14,14.46-21.38c3.01-7.78,6.49-16.01,5.41-24.51c-4.26-2.8-9.76-3.23-13.64-6.65   c-4.96-5.67-6.96-13.3-7.46-20.68c-0.22-2.6,0.68-6.28,3.93-6.21c2.96-0.05,6.57-0.47,9.02,1.44c-0.34,1.43-0.88,2.81-1.34,4.21   c2.04-1.21,4.3-2.18,6.02-3.87c1.68-1.83,1.58-4.49,1.93-6.79c-2.23-0.01-3.89,1.47-5.72,2.49c-2.11-0.34-4.11-1.14-6.15-1.75   C90.27,375.86,95.02,374.83,99.85,374.32 M87.32,399.53c4.2,7.23,11.37,12.97,19.84,13.97c0.01-0.65,0.04-1.96,0.05-2.61   C100.09,408.01,93.63,403.87,87.32,399.53 M-103.48,439.58c-2.86,1.73-2.9,5.31-3.13,8.27c-0.54,9.98,3.01,20.63,11.04,26.98   c-3.37-9.19-6.29-18.95-5.14-28.84c0.63-4.64,2.13-9.1,3.19-13.65C-100.71,433.59-102.84,436.23-103.48,439.58 M101.29,490.83   c-6.65,6.43-9.84,15.48-16.2,22.15c-9.14,9.91-18.85,19.31-28.84,28.35c-0.95,1.5,0.79,2.67,1.81,3.5   c3.12,0.65,6.08-1.14,8.92-2.19c9.43-4.55,17.54-11.93,22.69-21.09c4.97-8.67,10.53-17.15,13.74-26.67   C103.99,493.37,103.17,490.84,101.29,490.83 M-47.48,515.87c1.31,4.11,5.09,6.69,8.41,9.12c6.95,5,15.46,8.15,24.12,7.17   c-4.23-1.42-8.61-2.48-12.56-4.6c1.18-0.1,3.54-0.3,4.72-0.4c-7.48-3.19-15.7-5.91-21.15-12.27   C-45,513.59-48.08,513.52-47.48,515.87z"/>
</g>
</svg>