<?xml version="1.0" encoding="utf-8"?>
<!-- Generator: Adobe Illustrator 21.0.0, SVG Export Plug-In . SVG Version: 6.00 Build 0)  -->
<svg version="1.1" id="Layer_1" xmlns="http://www.w3.org/2000/svg" xmlns:xlink="http://www.w3.org/1999/xlink" x="0px" y="0px"
	 viewBox="0 0 150.1 148" style="enable-background:new 0 0 150.1 148;" xml:space="preserve">
<style type="text/css">
	.st0{fill:#080807;stroke:#080807;stroke-width:9.375000e-02;}
	.st1{fill:#046E66;stroke:#046E66;stroke-width:9.375000e-02;}
	.st2{fill:#FCC207;stroke:#FCC207;stroke-width:9.375000e-02;}
	.st3{fill:#826508;stroke:#826508;stroke-width:9.375000e-02;}
	.st4{fill:#FCC307;stroke:#FCC307;stroke-width:9.375000e-02;}
	.st5{fill:#826509;stroke:#826509;stroke-width:9.375000e-02;}
	.st6{fill:#828282;stroke:#828282;stroke-width:9.375000e-02;}
	.st7{fill:#FFFFFF;stroke:#FFFFFF;stroke-width:9.375000e-02;}
	.st8{fill:#046D66;stroke:#046D66;stroke-width:9.375000e-02;}
	.st9{fill:#080808;stroke:#080808;stroke-width:9.375000e-02;}
	.st10{fill:#00D3C4;stroke:#00D3C4;stroke-width:9.375000e-02;}
	.st11{fill:#01D3C4;stroke:#01D3C4;stroke-width:9.375000e-02;}
	.st12{fill:#67E4DF;}
	.st13{fill:#00D3C5;stroke:#00D3C5;stroke-width:9.375000e-02;}
	.st14{fill:#026D63;stroke:#026D63;stroke-width:9.375000e-02;}
</style>
<path class="st0" d="M65.3,19.6c3.1-6.6,6.3-13.2,9.8-19.5c3.5,6.4,6.7,12.9,9.8,19.6c-0.7,1.3-1.4,2.7-2.1,4c3-2,6.5-4.3,10.2-2.6
	c3.7,0.9,4.6,5,5.6,8.1c0.1-2.5,0.2-5,0.2-7.6c5.7-5.7,10.9-12.1,17.3-17.1c0,6.7-0.4,13.5,0.2,20.3c-2.1,3.3-5,6.2-6.1,10
	c-2.6,8.2-5.6,16.3-8.1,24.5c16.3,7.3,32.3,15.3,48,23.8c-0.4,2-1,3.9-1.8,5.8c-6.9,16.3-14,32.7-21.3,48.9
	c-1.5,3.3-2.7,7.3-4.9,10.2c-94.1-0.4-4-0.1-6-0.1c-29.4-0.1,6,0.1-88,0.1c-8.3-16.7-15.4-34.4-22.9-51.5C3.5,92,1,87.8,0.1,83.1
	c15.8-8.5,31.8-16.5,48-23.8C45.4,51,42.6,42.8,40,34.6c-1-3.5-3.7-6-5.5-9.1c-0.4-7-0.2-14,0-21.1c6,5.4,11.3,11.4,16.9,17.2
	c0,2.2,0,4.3,0,6.5c1.5-2.9,2.8-6.7,6.5-7.2c3.6-1.3,6.8,1.1,9.6,3C66.8,22.4,66,21,65.3,19.6 M70.3,19.7c0.7,1,1.5,2,2.2,3.1
	c-1.7,4-1,9.7-5.2,12.2c-2.1,0.4-3.7-1.5-4.5-3.2c0.1-1.9,1.7-4.2-0.1-5.7C61,24,57,25,56.7,27.8c-0.5,1.6,1.1,2.8,1.7,4.1
	c-0.2,3.1-2.8,6.6-6.2,4.9c-4.2-3.2-5.9-8.6-5.5-13.7c-2.7-2.6-5.2-5.4-8-7.9c0,3-0.3,6,0.1,8.9c1.4,2.4,3.7,4.3,4.6,7
	c1.9,5.4,3.6,10.8,5.4,16.2c7.7-5.5,17.1-8.4,26.5-8.5c9.2,0.2,18.4,3.1,26,8.3c2.1-5.5,3.7-11.1,5.8-16.6c1.2-3.2,5.1-5.1,4.7-8.9
	c0.1-2.2,0-4.3-0.1-6.5c-2.6,2.4-5,5-7.4,7.7c-0.1,4.9-1.4,10.4-5.6,13.5c-2.2,1.7-5.4,0.3-6.1-2.2c-1.3-2.5,1.6-4.9,0.6-7.4
	c-1-2.3-3.6-1.6-5.6-1.6c-1.2,2.1-1.1,4.5-0.1,6.7c-1.1,1.2-2.3,2.5-3.4,3.7c-5.3-2-5-8.2-6.5-12.7c0.7-1.1,1.4-2.1,2.1-3.2
	c-1.5-3.4-3.1-6.7-4.6-10C73.4,12.9,71.8,16.2,70.3,19.7 M50.3,51.1c0.6,2.1,1.2,4.1,1.8,6.2c7.2-3.8,15.1-6.2,23.2-6.1
	c8,0,15.6,2.5,22.7,6c0.6-2,1.2-3.9,1.8-5.8c-7.1-5-15.9-7.3-24.6-7.5C66.5,43.7,57.7,46.3,50.3,51.1 M49.5,63.1
	c-1,10.5-1.8,21.1-2.9,31.6c-0.2,2.6-0.7,5.5,0.6,7.9c5.2,11,11.1,21.6,16.6,32.4c0.7,1.3,1.6,2.4,2.5,3.6c0.1,0.3,0.4,1,0.5,1.3
	c0.6,1.1,1.2,2.2,1.9,3.3c4.4-0.1,8.9,0,13.3-0.1c6.4-12.2,12.8-24.3,19-36.5c1.3-2.8,3.3-5.6,2.7-8.9c-1-11.5-2.1-23-3.3-34.6
	c-16.8,0-33.5,0-50.3,0L49.5,63.1 M5.3,85.5c8.7,19.2,17.3,38.4,25.9,57.6c5.8,0.1,11.7,0,17.5,0c2.5,0,5,0,7.5,0
	c-6.8-6-14.2-11.4-20.7-17.8c-0.3-4,1.2-7.8,1.9-11.7c-3.8-2.7-7.8-5.2-11.1-8.5c5-12,11.1-23.6,15.9-35.7l0.5-0.3
	c0.7-1.4,1.3-2.9,1.9-4.3C31.5,71.4,18.4,78.5,5.3,85.5 M105.7,64.9c5.9,13.5,12.4,26.6,18.2,40.1c-3.2,3.4-7.4,5.5-10.8,8.7
	c0.2,3.7,1.6,7.3,1.6,11c-2.1,4.4-8,5.7-9.7,10.4c-0.3,0.1-0.8,0.4-1,0.5c-3.4,2.5-6.7,5.1-10.1,7.6c2.1-0.2,4.4,0.3,6.5-0.6
	c6.2,1.2,12.5,0.4,18.7,0.6c1.6-3.6,3.4-7.1,4.6-10.9c0.8-0.7,1.2-1.6,1.7-2.5c2.1-6,5.5-11.4,7.3-17.5c2.4-3.6,3.8-7.8,5.6-11.7
	c2.4-4.9,4.5-10,6.7-15C131.9,78.6,118.9,71.5,105.7,64.9 M42.5,78.4c-4,8.5-8.2,16.9-11.3,25.7c3.5,2.3,6.9,4.6,10.6,6.7
	c-0.5,4.4-1.6,8.6-2.4,13c6.3,5.6,12.5,11.3,19,16.6c1.2,1.3,2.7,2.3,4.2,3.3c0.2-1.1,0-2.1-0.5-3.1c-6.3-11.8-12.5-23.6-18.7-35.5
	c-1-2.1-2.4-4.2-1.9-6.6c1.3-9,2.4-18,4.1-27C44.4,73.9,43,76,42.5,78.4 M105.3,71.9c0.4,7.7,2,15.3,3,23c0.3,2.7,1.2,5.6-0.3,8
	c-5.4,10.8-11.2,21.3-16.7,32.1c-1.4,2.9-3.6,5.5-4,8.8c0.3-0.3,1-0.8,1.3-1c8-5.6,14.8-12.7,22.2-18.9c-0.7-4.3-1.7-8.5-2.5-12.8
	c3.4-2.3,7-4.3,10.3-6.8c0.4-2-1-3.8-1.6-5.6c-2.5-5.3-4.5-10.8-7.4-15.9C108.5,79.1,106.5,75.6,105.3,71.9z"/>
<path class="st1" d="M93.9,143.2c7.7-3.6,22.1-7.2,29.8-11c-1.2,3.8-2.9,7.3-4.6,10.9C112.8,142.9,112.6,143.7,93.9,143.2z"/>
<path class="st2" d="M70.3,19.7c1.4-3.4,3.1-6.8,4.8-10.1c0.3,9.8,0.1,19.5,0.1,29.3c-9.4,0.1-18.8,3-26.5,8.5
	c-1.8-5.4-3.6-10.8-5.4-16.2c-0.9-2.7-3.2-4.6-4.6-7c-0.4-2.9-0.1-5.9-0.1-8.9c2.8,2.5,5.3,5.3,8,7.9c-0.4,5.1,1.4,10.5,5.5,13.7
	c3.4,1.7,6.1-1.8,6.2-4.9c-0.7-1.3-2.2-2.5-1.7-4.1c0.3-2.8,4.3-3.8,6-1.7c1.7,1.5,0.1,3.8,0.1,5.7c0.8,1.7,2.4,3.6,4.5,3.2
	c4.3-2.6,3.5-8.2,5.2-12.2C71.8,21.7,71,20.7,70.3,19.7z"/>
<path class="st3" d="M75.2,9.6c1.6,3.3,3.2,6.6,4.6,10c-0.7,1.1-1.4,2.1-2.1,3.2c1.5,4.5,1.2,10.8,6.5,12.7c1.1-1.2,2.3-2.5,3.4-3.7
	c-1-2.2-1.1-4.5,0.1-6.7c1.9,0.1,4.6-0.6,5.6,1.6c1,2.5-1.9,5-0.6,7.4c0.8,2.5,4,3.9,6.1,2.2c4.2-3.1,5.5-8.5,5.6-13.5
	c2.3-2.7,4.8-5.3,7.4-7.7c0.1,2.2,0.1,4.3,0.1,6.5c0.4,3.8-3.5,5.7-4.7,8.9c-2.1,5.5-3.7,11.1-5.8,16.6c-7.6-5.3-16.7-8.1-26-8.3
	C75.3,29.1,75.5,19.4,75.2,9.6z"/>
<path class="st4" d="M50.3,51.1c7.4-4.8,16.2-7.3,25-7.3c0,2.5,0,4.9,0,7.4c-8.2-0.1-16.1,2.3-23.2,6.1
	C51.5,55.2,50.9,53.1,50.3,51.1z"/>
<path class="st5" d="M75.4,43.8c8.7,0.1,17.4,2.5,24.6,7.5c-0.6,2-1.2,3.9-1.8,5.8c-7.1-3.5-14.7-6-22.7-6
	C75.3,48.7,75.3,46.3,75.4,43.8z"/>
<path class="st6" d="M49.5,63.1l0.8,0c-0.7,10.9-1.2,21.8-1.6,32.6c-0.5,5.6,3,10.2,5,15.1c4.1,9.3,8.9,18.2,12.6,27.7
	c-0.9-1.1-1.8-2.3-2.5-3.6c-5.4-10.8-11.4-21.4-16.6-32.4c-1.4-2.4-0.8-5.3-0.6-7.9C47.7,84.1,48.6,73.6,49.5,63.1z"/>
<path class="st7" d="M50.3,63.1c16.8,0.1,33.5,0,50.3,0c1.1,11.5,2.3,23,3.3,34.6c0.6,3.3-1.4,6.1-2.7,8.9
	c-6.2,12.2-12.7,24.4-19,36.5c-4.4,0.1-8.9,0-13.3,0.1c-0.6-1.1-1.3-2.2-1.9-3.3c-0.1-0.3-0.4-1-0.5-1.3
	c-3.7-9.4-8.5-18.4-12.6-27.7c-2-4.9-5.5-9.6-5-15.1C49.1,84.9,49.6,74,50.3,63.1 M52.6,66.8c-0.1,2.9-0.5,5.9-0.2,8.8
	c5.3,6.8,10.4,13.7,16,20.2c2.2-4.2,4.5-8.2,6.5-12.4C67.6,77.9,60.2,72.3,52.6,66.8 M57,67.2c5.9,4.6,12.1,8.8,18,13.4
	c6-4.6,12.2-8.8,18-13.5C81.1,67.1,69.1,67,57,67.2 M75.2,83.4c2.2,4.2,4.4,8.3,6.7,12.5c5.4-6.7,10.9-13.4,16-20.3
	c0.3-2.9-0.1-5.9-0.3-8.8C90.2,72.4,82.6,77.9,75.2,83.4 M71.4,94.9c1.2,1.7,2.4,3.4,3.7,5c1.3-1.7,2.5-3.3,3.8-5
	c-1.1-2.9-2.4-5.6-3.8-8.4C73.7,89.3,72.4,92,71.4,94.9 M70.6,97.6c-1.7,12.9-2.8,26-3.9,38.9c1.2,1.6,2.3,3.2,3.3,4.9
	c3.4,0,6.8,0,10.3,0c1.1-1.7,2.1-3.3,3.3-4.9c-1.3-13-2.2-26.1-4-39c-1.4,1.9-2.9,3.7-4.5,5.5C73.5,101.2,72,99.5,70.6,97.6z"/>
<path class="st8" d="M105.7,64.9c13.2,6.6,26.1,13.7,39.2,20.6c-2.3,5-4.3,10.1-6.7,15c0-0.4,0.1-1.2,0.1-1.7
	c-8-7-16.6-13.5-24.3-20.8c4.5,9.8,11,18.6,14.9,28.8c-3.5,3.2-7.6,5.6-11.3,8.6c-0.1,3.7,1.9,7.2,1.1,10.9
	c-4.1,3.4-8.8,6.4-13.6,8.8c1.7-4.6,7.6-6,9.7-10.4c-0.1-3.7-1.4-7.3-1.6-11c3.3-3.2,7.6-5.3,10.8-8.7
	C118.1,91.5,111.6,78.4,105.7,64.9z"/>
<path class="st9" d="M52.6,66.8c7.5,5.5,14.9,11.1,22.4,16.6c-2.1,4.2-4.4,8.3-6.5,12.4c-5.6-6.5-10.8-13.4-16-20.2
	C52.1,72.7,52.5,69.7,52.6,66.8z"/>
<path class="st9" d="M57,67.2c12-0.2,24.1-0.1,36.1,0c-5.9,4.7-12.1,8.9-18,13.5C69.2,76,63,71.8,57,67.2z"/>
<path class="st9" d="M75.2,83.4c7.5-5.5,15-11,22.4-16.7c0.2,2.9,0.5,5.9,0.3,8.8c-5.1,6.9-10.5,13.7-16,20.3
	C79.6,91.8,77.4,87.6,75.2,83.4z"/>
<path class="st10" d="M35.6,125.3c-0.3-4,1.2-7.8,1.9-11.7c-3.8-2.7-7.8-5.2-11.1-8.5c5-12,13.6-28.2,18.4-40.3
	C31.5,71.4,18.4,78.5,5.3,85.5c8.7,19.2,17.3,38.4,25.9,57.6c5.8,0.1,11.7,0,17.5,0c2.5,0,5,0,7.5,0C49.4,137.1,42,131.7,35.6,125.3
	z"/>
<path class="st11" d="M128.8,106.8C125,96.7,118.5,87.9,114,78.1c7.8,7.3,16.3,13.7,24.3,20.8c0,0.4-0.1,1.2-0.1,1.7
	c-1.8,3.9-3.2,8.1-5.6,11.7c-2.6,2-5.3,3.8-7.9,5.6c0.7,3.9,1.4,7.9,0.6,11.9c-0.5,0.9-0.9,1.8-1.7,2.5c-7.6,3.8-15.6,6.7-23.3,10.4
	c-2,0.9-4.3,0.4-6.5,0.6c3.4-2.5,6.7-5.1,10.1-7.6c0.3-0.1,0.8-0.4,1-0.5c4.8-2.4,9.4-5.3,13.6-8.8c0.9-3.7-1.2-7.2-1.1-10.9
	C121.2,112.4,125.3,110,128.8,106.8z"/>
<path class="st12" d="M62.1,140.7c-6.3-11.8-12.5-23.6-18.7-35.5c-1-2.1-2.4-4.2-1.9-6.6c1.3-9,2.4-18.1,4.1-27
	c-4.6,8-11.3,23.6-14.3,32.5c3.5,2.3,6.9,4.6,10.6,6.7c-0.5,4.4-1.6,8.6-2.4,13c6.3,5.6,12.5,11.3,19,16.6c1.2,1.3,2.7,2.3,4.2,3.3
	C62.8,142.7,62.6,141.7,62.1,140.7z"/>
<path class="st13" d="M117.1,98.7c-2.3-4.9-10.6-23.2-11.8-26.8c0.4,7.7,2,15.3,3,23c0.3,2.7,1.2,5.6-0.3,8
	c-5.3,10.8-11.2,21.4-16.7,32.1c-1.4,2.9-3.5,5.5-4,8.8c0.3-0.3,1-0.8,1.3-1c8-5.6,14.8-12.7,22.2-18.9c-0.7-4.3-1.7-8.5-2.5-12.8
	c3.4-2.3,7-4.3,10.3-6.8C119,102.3,117.7,100.5,117.1,98.7z"/>
<path class="st9" d="M71.4,94.9c1-2.9,2.3-5.7,3.7-8.4c1.3,2.8,2.7,5.5,3.8,8.4c-1.2,1.7-2.5,3.4-3.8,5
	C73.8,98.3,72.6,96.6,71.4,94.9z"/>
<path class="st9" d="M70.6,97.6c1.5,1.8,3,3.6,4.5,5.4c1.6-1.8,3.1-3.6,4.5-5.5c1.8,12.9,2.7,26,4,39c-1.1,1.6-2.2,3.3-3.3,4.9
	c-3.4,0-6.8,0-10.3,0c-1.1-1.6-2.2-3.3-3.3-4.9C67.8,123.6,68.9,110.6,70.6,97.6z"/>
<path class="st14" d="M124.7,117.8c2.6-1.9,5.3-3.7,7.9-5.6c-1.8,6.1-5.2,11.6-7.3,17.5C126.1,125.7,125.3,121.7,124.7,117.8z"/>
</svg>
