<?xml version="1.0" encoding="utf-8"?>
<!-- Generator: Adobe Illustrator 21.0.0, SVG Export Plug-In . SVG Version: 6.00 Build 0)  -->
<svg version="1.1" id="Layer_1" xmlns="http://www.w3.org/2000/svg" xmlns:xlink="http://www.w3.org/1999/xlink" x="0px" y="0px"
	 viewBox="0 0 839.939 531.475" style="enable-background:new 0 0 839.939 531.475;" xml:space="preserve">
<style type="text/css">
	.st0{fill:#D09047;stroke:#D09047;stroke-width:0.0938;}
	.st1{fill:#030303;stroke:#030303;stroke-width:0.0938;}
	.st2{fill:#FFFFFF;stroke:#FFFFFF;stroke-width:0.0938;}
	.st3{fill:#FF1720;stroke:#FF1720;stroke-width:0.0938;}
	.st4{fill:#AB0E1C;stroke:#AB0E1C;stroke-width:0.0938;}
	.st5{fill:#9A9A9A;stroke:#9A9A9A;stroke-width:0.0938;}
</style>
<path class="st0" d="M75.602,0.095c174.43-0.04,348.86-0.06,523.29-0.04c38.99,1.31,77.82,11.04,112.28,29.48
	c33.04,17.5,61.88,42.83,83.5,73.33c22.06,30.97,36.45,67.29,42.05,104.88c1.54,8.87,1.71,17.9,3.17,26.79v23.27
	c-1.48,6.93-1.45,14.05-2.45,21.05c-3.02,23.74-9.1,47.1-18.18,69.25c-26.71,66.01-78.7,121-142.34,152.67
	c-35.11,17.53-73.8,27.93-113.01,29.9c-8.99,1.12-18.06,0.79-27.08,0.3c-145.33-0.05-290.65,0.01-435.98-0.04
	c-22.29-1.56-44.91-7.68-63.15-21.01c-16.09-11.55-27.51-28.98-32.92-47.93c-5.84-20.15-6.01-41.71-1.98-62.22
	C27.122,266.555,51.172,133.295,75.602,0.095 M84.482,10.825c-23.6,130-47.29,259.97-70.92,389.96
	c-3.87,18.42-3.81,37.75,0.88,56.01c4.23,16.03,13.01,31.03,25.91,41.6c16.43,13.48,37.65,19.81,58.56,21.56
	c107.63,0.06,215.27,0.01,322.91,0.02c44.01,0.11,88.03-0.24,132.04,0.24c24.31-0.39,48.57-4.04,71.9-10.89
	c66.54-19.37,125.17-64.14,161.84-122.89c20.49-32.55,34.03-69.5,39.01-107.67c5.47-41.53,0.63-84.58-15.31-123.41
	c-14.22-35.05-37.31-66.44-66.52-90.46c-30.07-24.9-66.54-41.81-104.81-49.31c-18.75-3.77-37.91-5.11-57.02-4.75
	C416.792,10.835,250.632,10.845,84.482,10.825z"/>
<path class="st1" d="M84.482,10.825c166.15,0.02,332.31,0.01,498.47,0.01c19.11-0.36,38.27,0.98,57.02,4.75
	c38.27,7.5,74.74,24.41,104.81,49.31c29.21,24.02,52.3,55.41,66.52,90.46c15.94,38.83,20.78,81.88,15.31,123.41
	c-4.98,38.17-18.52,75.12-39.01,107.67c-36.67,58.75-95.3,103.52-161.84,122.89c-23.33,6.85-47.59,10.5-71.9,10.89
	c-44.01-0.48-88.03-0.13-132.04-0.24c-107.64-0.01-215.28,0.04-322.91-0.02c-20.91-1.75-42.13-8.08-58.56-21.56
	c-12.9-10.57-21.68-25.57-25.91-41.6c-4.69-18.26-4.75-37.59-0.88-56.01C37.192,270.795,60.882,140.825,84.482,10.825
	 M502.802,49.765l0.49-0.07c-39.17,13.58-74.77,37.17-103.05,67.46c-41.54,44.06-67.1,103.71-67.11,164.55
	c-0.63,48.36,15.7,96.99,46.42,134.47c22.05,27.3,51.22,48.75,83.79,61.82c41.55,16.91,88.13,20.36,131.97,11.46
	c73.58-14.54,139.37-63.65,174.65-129.76c26.92-49.1,36.16-108.17,23.26-162.85c-8.64-36.88-27.55-71.33-54.27-98.22
	c-26.77-27.17-61.2-46.54-98.15-55.87C595.462,31.195,546.822,34.225,502.802,49.765 M106.012,36.295
	c-16.46,89.99-33.29,179.91-49.86,269.89c35.49,0,70.98,0.03,106.47-0.02c2.1-9.66,4.08-19.35,6.25-29
	c13.64,0.06,27.28,0,40.91,0.03c-6.39,37.1-12.65,74.22-19.08,111.31c-14.29-0.04-28.57-0.02-42.85-0.01
	c2.6-19.36,5.48-38.68,8.21-58.01c-34.61-0.01-69.22-0.01-103.83,0c-4.41,24.08-8.88,48.15-13.33,72.22
	c-3.56,18.34-2.26,38.05,5.91,55.04c5.91,12.4,16.04,22.68,28.32,28.83c11.32,5.67,24.07,8.47,36.73,8.24
	c31.68-0.03,63.36-0.01,95.04-0.01c13.03-0.41,25.68-4.84,37.01-11.08c19.84-11.07,34.93-29.52,43.64-50.33
	c3.44-7.08,4.45-14.95,6.08-22.56c9.91-50.89,18.89-101.95,27.98-152.99c4.1-23.92-2.15-50.66-20.25-67.61
	c-14.76-13.79-35.5-20.11-55.46-19.4c-15.01,0.01-30.01,0-45.01,0c-4.17-0.02-8.29,0.69-12.39,1.39c1.76-9.91,3.59-19.8,5.3-29.71
	c49.21,0,98.42-0.01,147.64,0.01c6.07-35.42,12.17-70.84,18.3-106.26C273.832,36.315,189.922,36.265,106.012,36.295z"/>
<path class="st2" d="M502.802,49.765c44.02-15.54,92.66-18.57,138-7.01c36.95,9.33,71.38,28.7,98.15,55.87
	c26.72,26.89,45.63,61.34,54.27,98.22c12.9,54.68,3.66,113.75-23.26,162.85c15.23-42.01,23.3-87.48,17.48-132.1
	c-4.65-36.6-19.79-71.67-42.86-100.42c-20.79-25.84-46.57-48.13-76.63-62.46c-36.82-17.8-78.59-23.49-119.13-20.74
	c-15.3,0.81-30.44,3.21-45.53,5.72L502.802,49.765z"/>
<path class="st0" d="M106.012,36.295c83.91-0.03,167.82,0.02,251.73-0.03c-6.13,35.42-12.23,70.84-18.3,106.26
	c-49.22-0.02-98.43-0.01-147.64-0.01c-1.71,9.91-3.54,19.8-5.3,29.71c4.1-0.7,8.22-1.41,12.39-1.39c15,0,30,0.01,45.01,0
	c19.96-0.71,40.7,5.61,55.46,19.4c18.1,16.95,24.35,43.69,20.25,67.61c-9.09,51.04-18.07,102.1-27.98,152.99
	c-1.63,7.61-2.64,15.48-6.08,22.56c-8.71,20.81-23.8,39.26-43.64,50.33c-11.33,6.24-23.98,10.67-37.01,11.08
	c-31.68,0-63.36-0.02-95.04,0.01c-12.66,0.23-25.41-2.57-36.73-8.24c-12.28-6.15-22.41-16.43-28.32-28.83
	c-8.17-16.99-9.47-36.7-5.91-55.04c4.45-24.07,8.92-48.14,13.33-72.22c34.61-0.01,69.22-0.01,103.83,0
	c-2.73,19.33-5.61,38.65-8.21,58.01c14.28-0.01,28.56-0.03,42.85,0.01c6.43-37.09,12.69-74.21,19.08-111.31
	c-13.63-0.03-27.27,0.03-40.91-0.03c-2.17,9.65-4.15,19.34-6.25,29c-35.49,0.05-70.98,0.02-106.47,0.02
	C72.722,216.205,89.552,126.285,106.012,36.295 M112.472,44.015c-15.63,84.83-31.36,169.64-47.08,254.46
	c30.33,0.02,60.66,0.02,90.99,0c2.03-9.66,4.16-19.31,6.18-28.97c18.78-0.03,37.56-0.02,56.34,0
	c-7.21,42.23-14.43,84.47-21.66,126.71c-19.46-0.03-38.91,0.02-58.37-0.03c2.77-19.32,5.52-38.65,8.3-57.97
	c-29.51-0.04-59.03-0.04-88.55,0c-4.18,23.2-8.58,46.36-12.77,69.55c-2.6,17.2-0.71,35.67,8.21,50.87
	c7.83,13.55,21.79,22.88,36.93,26.33c10.06,2.82,20.56,1.95,30.87,2.05c28.01-0.05,56.02,0.06,84.02-0.01
	c12.35-0.7,24.29-5.19,34.83-11.53c18.9-11.47,32.67-30.24,40.01-50.91c1.56-5.57,2.47-11.29,3.66-16.94
	c9.83-50.47,18.7-101.11,27.75-151.72c1.96-12.13,0.94-24.77-3-36.42c-4.06-11.91-11.94-22.55-22.47-29.51
	c-12.52-8.28-27.8-11.97-42.72-11.45c-14.68,0.01-29.36-0.01-44.03,0.01c-7.97-0.01-15.79,1.96-23.24,4.65
	c2.86-16.13,5.95-32.22,8.55-48.39c49.22,0.09,98.45,0.01,147.67,0.04c5.25-30.27,10.45-60.55,15.68-90.82
	C269.872,44.005,191.172,43.995,112.472,44.015z"/>
<path class="st1" d="M112.472,44.015c78.7-0.02,157.4-0.01,236.1,0c-5.23,30.27-10.43,60.55-15.68,90.82
	c-49.22-0.03-98.45,0.05-147.67-0.04c-2.6,16.17-5.69,32.26-8.55,48.39c7.45-2.69,15.27-4.66,23.24-4.65
	c14.67-0.02,29.35,0,44.03-0.01c14.92-0.52,30.2,3.17,42.72,11.45c10.53,6.96,18.41,17.6,22.47,29.51c3.94,11.65,4.96,24.29,3,36.42
	c-9.05,50.61-17.92,101.25-27.75,151.72c-1.19,5.65-2.1,11.37-3.66,16.94c-7.34,20.67-21.11,39.44-40.01,50.91
	c-10.54,6.34-22.48,10.83-34.83,11.53c-28,0.07-56.01-0.04-84.02,0.01c-10.31-0.1-20.81,0.77-30.87-2.05
	c-15.14-3.45-29.1-12.78-36.93-26.33c-8.92-15.2-10.81-33.67-8.21-50.87c4.19-23.19,8.59-46.35,12.77-69.55
	c29.52-0.04,59.04-0.04,88.55,0c-2.78,19.32-5.53,38.65-8.3,57.97c19.46,0.05,38.91,0,58.37,0.03
	c7.23-42.24,14.45-84.48,21.66-126.71c-18.78-0.02-37.56-0.03-56.34,0c-2.02,9.66-4.15,19.31-6.18,28.97
	c-30.33,0.02-60.66,0.02-90.99,0C81.112,213.655,96.842,128.845,112.472,44.015 M86.312,269.375c-0.85,4.62-1.7,9.24-2.51,13.87
	c20.05,0.02,40.09-0.03,60.13,0.03c2.24-9.68,4.16-19.44,6.33-29.15c28.96-0.01,57.92,0.03,86.88-0.02
	c-9,52.48-17.94,104.97-26.93,157.46c-29.66,0-59.32-0.02-88.97,0.01c3.29-19.37,6.88-38.68,10.28-58.02
	c-5.1-0.14-10.2-0.16-15.3-0.05c-14.93,0.1-29.85,0.02-44.77,0.04c-3.44,18.73-6.92,37.46-10.35,56.2
	c-2.24,14.33-0.83,29.88,6.95,42.42l0.17,0.05c6.04,10.2,17.32,16.21,28.69,18.44c6.88,1.61,13.99,0.93,20.99,1.05
	c29.34-0.04,58.69,0.06,88.04-0.01c20.95-2.09,39.73-15.49,50.91-33.01c4.87-7.84,9.36-16.21,10.83-25.43
	c10.58-53.31,19.89-106.87,29.45-160.37c2.48-16.65-1.23-35.91-14.76-47.09c-9.13-7.4-20.76-11.27-32.41-11.9
	c-15.69-0.03-31.38,0.02-47.07-0.01c-19-0.62-37.57,9.91-47.71,25.82c-0.34-3.38,0.68-6.66,1.22-9.96
	c4.17-23.22,8.34-46.43,12.48-69.65c-4.51-4.93-8.89-9.99-13.47-14.86c-1.7-1.93-3.47-3.77-5.2-5.67c56.6-0.01,113.2,0,169.8,0
	c3.51-20.09,6.98-40.18,10.39-60.29c-6.06,0.01-12.13-0.07-18.2,0.06c-62.3,0.07-124.6,0.03-186.89,0.02
	C112.262,129.355,99.522,199.405,86.312,269.375z"/>
<path class="st3" d="M503.292,49.695c15.09-2.51,30.23-4.91,45.53-5.72c40.54-2.75,82.31,2.94,119.13,20.74
	c30.06,14.33,55.84,36.62,76.63,62.46c23.07,28.75,38.21,63.82,42.86,100.42c5.82,44.62-2.25,90.09-17.48,132.1
	c-35.28,66.11-101.07,115.22-174.65,129.76c-43.84,8.9-90.42,5.45-131.97-11.46c-32.57-13.07-61.74-34.52-83.79-61.82
	c-30.72-37.48-47.05-86.11-46.42-134.47c0.01-60.84,25.57-120.49,67.11-164.55C428.522,86.865,464.122,63.275,503.292,49.695
	 M556.552,52.055c3.25,2.35,7.39,2.98,10.66,5.32c4.8,3.36,9.27,8.26,9.71,14.38c-12.22-3.46-22.56-11.21-33.36-17.55
	c-8.41,0.83-16.61,3.4-24.7,5.8c9.52,0.74,19.2,2.56,27.65,7.19c7.42,4.08,13.45,11.26,14.9,19.72c-4.98-0.72-9.62-2.75-14.19-4.75
	c-11.63-5.19-22.2-12.58-31.56-21.18c-72.44,22.56-132.48,82.05-154.78,154.7c-9.14,28.87-11.97,59.67-8.59,89.75
	c4.19,35.64,18.28,70.1,40.62,98.22c22.8,28.96,54.26,50.9,89.11,62.79c40.05,13.81,84.15,14.38,124.99,3.62
	c33.22-8.93,64.47-25.16,90.79-47.32c26.94-22.41,48.87-50.83,63.64-82.62c19.17-41.25,25.79-88.61,16.71-133.32
	c-7.39-38.19-26.82-73.81-54.52-101.07c-4.49,1.09-8.63,3.18-12.94,4.79c1.84-3.66,4.57-6.73,7.01-9.99
	c-2.17-2.1-4.46-4.07-6.87-5.88c-4.78,2.56-9.34,5.54-14.19,7.96c2.61-4.31,5.73-8.29,8.24-12.67c-2.87-2.26-5.86-4.36-9-6.2
	c-3.59,2.42-7.07,4.99-10.84,7.09c2.02-3.44,4.32-6.71,6.49-10.06c-19.62-12.18-41.32-21.16-63.98-25.77
	c-8.47,9.47-18.7,17.11-29.09,24.32c-11.18,7.69-22.69,14.95-34.62,21.41c4.87-14.58,16.42-25.95,29.37-33.71
	c9.56-5.89,20.33-9.21,30.98-12.5c-12.34-2.93-25.07-3.9-37.71-4.1c2.99,2.91,5.8,6.27,6.39,10.56
	c-6.57-3.52-12.45-8.77-19.92-10.32C567.472,50.815,561.972,51.195,556.552,52.055z"/>
<path class="st4" d="M556.552,52.055c5.42-0.86,10.92-1.24,16.4-1.39c7.47,1.55,13.35,6.8,19.92,10.32
	c-0.59-4.29-3.4-7.65-6.39-10.56c12.64,0.2,25.37,1.17,37.71,4.1c-10.65,3.29-21.42,6.61-30.98,12.5
	c-12.95,7.76-24.5,19.13-29.37,33.71c11.93-6.46,23.44-13.72,34.62-21.41c10.39-7.21,20.62-14.85,29.09-24.32
	c22.66,4.61,44.36,13.59,63.98,25.77c-2.17,3.35-4.47,6.62-6.49,10.06c3.77-2.1,7.25-4.67,10.84-7.09c3.14,1.84,6.13,3.94,9,6.2
	c-2.51,4.38-5.63,8.36-8.24,12.67c4.85-2.42,9.41-5.4,14.19-7.96c2.41,1.81,4.7,3.78,6.87,5.88c-2.44,3.26-5.17,6.33-7.01,9.99
	c4.31-1.61,8.45-3.7,12.94-4.79c27.7,27.26,47.13,62.88,54.52,101.07c9.08,44.71,2.46,92.07-16.71,133.32
	c-14.77,31.79-36.7,60.21-63.64,82.62c-26.32,22.16-57.57,38.39-90.79,47.32c-40.84,10.76-84.94,10.19-124.99-3.62
	c-34.85-11.89-66.31-33.83-89.11-62.79c-22.34-28.12-36.43-62.58-40.62-98.22c-3.38-30.08-0.55-60.88,8.59-89.75
	c22.3-72.65,82.34-132.14,154.78-154.7c9.36,8.6,19.93,15.99,31.56,21.18c4.57,2,9.21,4.03,14.19,4.75
	c-1.45-8.46-7.48-15.64-14.9-19.72c-8.45-4.63-18.13-6.45-27.65-7.19c8.09-2.4,16.29-4.97,24.7-5.8
	c10.8,6.34,21.14,14.09,33.36,17.55c-0.44-6.12-4.91-11.02-9.71-14.38C563.942,55.035,559.802,54.405,556.552,52.055
	 M584.122,100.985c-1.88,3.01-3.7,6.13-4.31,9.67c20.48-9.66,38.02-24.32,55.23-38.8c2.08-1.67,3.93-3.6,5.6-5.69
	C617.652,67.515,595.732,81.105,584.122,100.985 M626.822,84.615c-14.24,7.5-26.67,19.71-31.79,35.23
	c6.19-1.83,11.39-5.84,16.82-9.19c16.52-11.07,32.28-23.34,47.02-36.69C647.622,75.285,636.782,79.325,626.822,84.615
	 M479.912,94.815c7.25-1.85,13.67-6.02,19.6-10.46c3.21-2.55,6.57-5.06,8.87-8.52C496.412,76.105,484.192,83.335,479.912,94.815
	 M477.962,112.325c3.77-0.4,6.92-2.68,10.23-4.34c12.87-7.27,24.76-16.25,35.76-26.11
	C504.612,82.455,486.192,94.885,477.962,112.325 M485.832,123.805c1.75-0.08,3.54-0.24,5.18-0.94
	c19.57-7.33,36.76-20.13,50.96-35.31C518.832,89.485,497.762,104.165,485.832,123.805 M653.872,87.765
	c5.29,5.38,10.7,10.65,16.2,15.82c13.58,12.46,27.12,25.03,41.8,36.18c-2.36-17.87-14.44-33.38-30.01-41.96
	C673.202,92.955,663.812,88.895,653.872,87.765 M636.582,101.425c4.54,4.98,9.85,9.16,14.72,13.81
	c8.98,8.06,17.84,16.25,26.91,24.22c5.29,4.65,10.3,9.67,16.07,13.74c-3.3-18.31-16.11-33.85-32.34-42.47
	C653.942,106.585,645.602,102.635,636.582,101.425 M540.732,104.945c2.46,4.93,6.71,8.57,10.3,12.64
	c10.64,10.86,22.51,20.71,35.8,28.17c-0.35-7.88-3.28-15.61-8.07-21.86C569.802,112.205,555.042,106.355,540.732,104.945
	 M460.072,114.645c-0.85,5.06-1.06,10.54,1.68,15.1c2.57,5.23,8.53,7.18,13.76,8.59
	C476.162,128.225,469.762,117.935,460.072,114.645 M616.752,114.965c17.44,13.34,34.06,27.76,49.52,43.35
	c3.54,3.46,6.75,7.26,10.54,10.47c-1.75-7-4.42-13.77-8.01-20.02c-6.5-11.18-16.5-20.13-28.01-25.92
	C633.242,119.065,625.252,115.675,616.752,114.965 M522.812,118.795c5.39,8.68,12.64,15.99,20.06,22.93
	c5.15,4.47,10.69,8.53,16.68,11.8c-1.02-10.13-5.61-20.28-13.84-26.55C539.172,121.995,531.052,118.985,522.812,118.795
	 M442.302,138.495c1.38,5.31,6.74,9.3,12.24,9c-0.38-4.18-0.25-8.86-3.29-12.14c-2.06-2.9-5.52-4.11-8.71-5.27
	C442.082,132.855,441.682,135.705,442.302,138.495 M719.572,150.395c-7.06,5.43-14.13,11.25-19.02,18.8
	c7.18-0.62,14.34-3.3,19.79-8.08c4.89-4.28,7.86-10.31,9.3-16.57C725.792,145.525,722.742,148.155,719.572,150.395 M710.102,179.235
	c9.06,0.52,15.87-7.41,17.56-15.68C720.372,166.715,714.172,172.455,710.102,179.235 M392.592,196.785
	c3.62,3.6,7.39,7.06,11.01,10.66c-6.97,41.99-14.06,83.97-20.84,125.99c17.71,0.01,35.41,0,53.11,0c4.93-0.04,10.54-0.78,13.94-4.75
	c3.19-3.97,4.27-9.14,5.23-14.03c1.66-9.62,3.16-19.27,4.81-28.89c1.01-6.6,2.7-14.28-1.85-19.98c5.19-4.58,7.1-11.51,8.15-18.1
	c1.81-11.31,3.81-22.59,5.53-33.91c0.37-4.39,1.11-9.43-1.53-13.29c-3.25-3.74-8.7-3.68-13.24-3.71
	C435.472,196.835,414.032,196.785,392.592,196.785 M487.572,202.345c-3.89,6.07-4.41,13.46-5.62,20.38
	c-5.89,36.89-11.86,73.78-17.7,110.68c5.43,0.04,10.87,0.04,16.3,0.02c2.52-15.79,4.99-31.58,7.62-47.34
	c11.71,0.07,23.43-0.11,35.14,0.09c-2.51,15.75-5.08,31.49-7.53,47.25c5.39,0.02,10.79,0,16.18,0.02
	c6.37-38.48,12.35-77.03,18.59-115.54c0.71-5.25,1.75-10.81-0.03-15.96c-1.93-4.41-7.4-5.16-11.67-5.15c-12.66,0.01-25.33,0-38,0
	C495.992,196.815,490.442,198.055,487.572,202.345 M560.032,196.785c3.5,3.5,7.14,6.85,10.69,10.3
	c-6.47,35.75-12.93,71.49-19.42,107.24c-0.67,4.53-1.59,9.4,0.13,13.82c2.02,4.18,7.18,4.94,11.33,5.2
	c8.28,0.22,16.56,0.03,24.83,0.08c1.31-7.08,2.55-14.16,3.82-21.24c-6.87-0.2-13.76,0.37-20.59-0.45
	c-0.22-3.72,0.45-7.39,1.21-11.02c6.3-34.6,12.61-69.2,18.88-103.81C580.622,196.765,570.332,196.805,560.032,196.785
	 M617.752,196.795c3.18,3.21,6.59,6.2,9.75,9.44c1.41,1.1,0.38,2.99,0.34,4.43c-6.39,34.64-12.56,69.32-18.88,103.98
	c-0.73,4.71-1.75,9.96,0.62,14.37c2.51,3.53,7.23,4.11,11.24,4.34c8.17,0.18,16.34,0.07,24.51,0.04c1.24-7.04,2.48-14.07,3.84-21.09
	c-6.86-0.42-13.75,0.2-20.6-0.46c-0.41-5.11,1.11-10.08,1.9-15.08c6.01-33.31,12.24-66.58,18.08-99.91
	C638.282,196.845,628.012,196.745,617.752,196.795 M688.822,201.735c-3.51,4.88-4.47,11.01-5.51,16.79
	c-2.26,13.75-4.8,27.46-6.91,41.23c-0.44,4.71-1.09,10.97,3.47,13.96c5.77,3.3,12.73,1.79,19.06,2.13c9.8,0.32,19.7-0.68,29.45,0.57
	c-0.55,9.53-2.95,18.83-4.28,28.26c-0.69,2.31-0.34,6.27-3.48,6.69c-4.57,0.5-9.19,0.09-13.77,0.21
	c-7.03-0.25-14.13,0.61-21.09-0.61c0.01-6.22,1.68-12.25,2.52-18.38c-5.85-0.03-11.7-0.02-17.55-0.01
	c-1.42,8.74-3.25,17.43-4.25,26.23c-0.23,3.94-0.52,8.74,2.66,11.67c3.23,2.72,7.74,2.86,11.76,2.96c12.98,0,25.97,0.01,38.95,0
	c5.23-0.02,11.18-0.7,14.83-4.9c3.1-3.92,4.3-8.95,5.25-13.76c2.45-14.01,4.8-28.04,7.18-42.07c0.65-4.53,1.35-9.42-0.52-13.75
	c-1.71-3.54-6.01-4.53-9.58-4.84c-13.74-0.58-27.53,0.41-41.26-0.52c-0.32-6.76,1.7-13.31,2.58-19.96c1.09-4.77,1.03-9.91,3.1-14.4
	c2.04-1.67,5-0.93,7.46-1.15c9.75,0.32,19.56-0.54,29.27,0.5c-0.08,6.26-1.68,12.34-2.54,18.51c5.83,0,11.67-0.03,17.51,0
	c1.48-8.06,2.87-16.14,4.11-24.23c0.39-4.09,0.88-8.57-1.2-12.3c-2.69-3.85-7.86-4.18-12.13-4.28c-13.67,0-27.35-0.01-41.02,0.01
	C697.802,196.335,692.072,197.435,688.822,201.735 M652.572,414.405c-31.4,19.2-63.53,37.63-97.89,51.02
	c9.98-0.24,19.83-2.23,29.6-4.14c24.41-5.12,48.1-13.91,69.63-26.56c28.1-16.73,53.14-39.61,69.58-68.09
	C700.372,383.315,676.802,399.375,652.572,414.405z"/>
<path class="st2" d="M86.312,269.375c13.21-69.97,25.95-140.02,39-210.02c62.29,0.01,124.59,0.05,186.89-0.02
	c-2.95,15.37-5.85,30.74-8.78,46.11c-55.27,0.06-110.54,0-165.81,0.03c4.18,4.72,8.34,9.45,12.6,14.09c1.73,1.9,3.5,3.74,5.2,5.67
	c-0.35,4.84-1.48,9.56-2.29,14.33c-5.77,32.64-11.72,65.25-17.41,97.9c6.44-5.96,13.5-11.32,19.47-17.76
	c10.14-15.91,28.71-26.44,47.71-25.82c15.69,0.03,31.38-0.02,47.07,0.01c11.65,0.63,23.28,4.5,32.41,11.9
	c1.72,19.37,0.13,38.92-3.67,57.96c-7.14,39.94-14.17,79.9-21.29,119.84c-1.13,6.07-1.89,12.23-3.54,18.2
	c-3.98,14.22-11.34,27.66-22.13,37.85c-14.05,13.26-33.61,20.25-52.86,19.71c-22.67,0.28-45.35,0.2-68.02-0.17
	c-14.45-0.45-28.84-2.66-42.64-6.97l-0.17-0.05c-7.78-12.54-9.19-28.09-6.95-42.42c3.43-18.74,6.91-37.47,10.35-56.2
	c14.92-0.02,29.84,0.06,44.77-0.04c-3.93,19.35-7.79,38.72-11.63,58.08c5.55,0,11.1,0.02,16.65-0.01
	c29.65-0.03,59.31-0.01,88.97-0.01c8.99-52.49,17.93-104.98,26.93-157.46c0.76-4.22,1.57-8.43,2.35-12.64
	c-34.78,0.02-69.55-0.03-104.32,0.03c-1.88,9.61-3.84,19.21-5.75,28.81c-12.54,0.08-25.08-0.06-37.61,0.09
	C89.942,270.335,87.892,270.575,86.312,269.375z"/>
<path class="st5" d="M312.202,59.335c6.07-0.13,12.14-0.05,18.2-0.06c-3.41,20.11-6.88,40.2-10.39,60.29c-56.6,0-113.2-0.01-169.8,0
	c-4.26-4.64-8.42-9.37-12.6-14.09c55.27-0.03,110.54,0.03,165.81-0.03C306.352,90.075,309.252,74.705,312.202,59.335z"/>
<path class="st3" d="M584.122,100.985c11.61-19.88,33.53-33.47,56.52-34.82c-1.67,2.09-3.52,4.02-5.6,5.69
	c-17.21,14.48-34.75,29.14-55.23,38.8C580.422,107.115,582.242,103.995,584.122,100.985z"/>
<path class="st3" d="M626.822,84.615c9.96-5.29,20.8-9.33,32.05-10.65c-14.74,13.35-30.5,25.62-47.02,36.69
	c-5.43,3.35-10.63,7.36-16.82,9.19C600.152,104.325,612.582,92.115,626.822,84.615z"/>
<path class="st3" d="M479.912,94.815c4.28-11.48,16.5-18.71,28.47-18.98c-2.3,3.46-5.66,5.97-8.87,8.52
	C493.582,88.795,487.162,92.965,479.912,94.815z"/>
<path class="st3" d="M477.962,112.325c8.23-17.44,26.65-29.87,45.99-30.45c-11,9.86-22.89,18.84-35.76,26.11
	C484.882,109.645,481.732,111.925,477.962,112.325z"/>
<path class="st3" d="M485.832,123.805c11.93-19.64,33-34.32,56.14-36.25c-14.2,15.18-31.39,27.98-50.96,35.31
	C489.372,123.565,487.582,123.725,485.832,123.805z"/>
<path class="st3" d="M653.872,87.765c9.94,1.13,19.33,5.19,27.99,10.04c15.57,8.58,27.65,24.09,30.01,41.96
	c-14.68-11.15-28.22-23.72-41.8-36.18C664.572,98.415,659.162,93.145,653.872,87.765z"/>
<path class="st3" d="M636.582,101.425c9.02,1.21,17.36,5.16,25.36,9.3c16.23,8.62,29.04,24.16,32.34,42.47
	c-5.77-4.07-10.78-9.09-16.07-13.74c-9.07-7.97-17.93-16.16-26.91-24.22C646.432,110.585,641.122,106.405,636.582,101.425z"/>
<path class="st3" d="M540.732,104.945c14.31,1.41,29.07,7.26,38.03,18.95c4.79,6.25,7.72,13.98,8.07,21.86
	c-13.29-7.46-25.16-17.31-35.8-28.17C547.442,113.515,543.192,109.875,540.732,104.945z"/>
<path class="st3" d="M460.072,114.645c9.69,3.29,16.09,13.58,15.44,23.69c-5.23-1.41-11.19-3.36-13.76-8.59
	C459.012,125.185,459.222,119.705,460.072,114.645z"/>
<path class="st3" d="M616.752,114.965c8.5,0.71,16.49,4.1,24.04,7.88c11.51,5.79,21.51,14.74,28.01,25.92
	c3.59,6.25,6.26,13.02,8.01,20.02c-3.79-3.21-7-7.01-10.54-10.47C650.812,142.725,634.192,128.305,616.752,114.965z"/>
<path class="st3" d="M522.812,118.795c8.24,0.19,16.36,3.2,22.9,8.18c8.23,6.27,12.82,16.42,13.84,26.55
	c-5.99-3.27-11.53-7.33-16.68-11.8C535.452,134.785,528.202,127.475,522.812,118.795z"/>
<path class="st5" d="M155.412,125.235c4.58,4.87,8.96,9.93,13.47,14.86c-4.14,23.22-8.31,46.43-12.48,69.65
	c-0.54,3.3-1.56,6.58-1.22,9.96c-5.97,6.44-13.03,11.8-19.47,17.76c5.69-32.65,11.64-65.26,17.41-97.9
	C153.932,134.795,155.062,130.075,155.412,125.235z"/>
<path class="st3" d="M442.302,138.495c-0.62-2.79-0.22-5.64,0.24-8.41c3.19,1.16,6.65,2.37,8.71,5.27
	c3.04,3.28,2.91,7.96,3.29,12.14C449.042,147.795,443.682,143.805,442.302,138.495z"/>
<path class="st3" d="M719.572,150.395c3.17-2.24,6.22-4.87,10.07-5.85c-1.44,6.26-4.41,12.29-9.3,16.57
	c-5.45,4.78-12.61,7.46-19.79,8.08C705.442,161.645,712.512,155.825,719.572,150.395z"/>
<path class="st3" d="M710.102,179.235c4.07-6.78,10.27-12.52,17.56-15.68C725.972,171.825,719.162,179.755,710.102,179.235z"/>
<path class="st0" d="M392.592,196.785c21.44,0,42.88,0.05,64.32-0.01c4.54,0.03,9.99-0.03,13.24,3.71c2.64,3.86,1.9,8.9,1.53,13.29
	c-1.72,11.32-3.72,22.6-5.53,33.91c-1.05,6.59-2.96,13.52-8.15,18.1c4.55,5.7,2.86,13.38,1.85,19.98
	c-1.65,9.62-3.15,19.27-4.81,28.89c-0.96,4.89-2.04,10.06-5.23,14.03c-3.4,3.97-9.01,4.71-13.94,4.75c-17.7,0-35.4,0.01-53.11,0
	c6.78-42.02,13.87-84,20.84-125.99C399.982,203.845,396.212,200.385,392.592,196.785 M418.732,218.595
	c-1.95,11.91-4.05,23.79-5.87,35.72c11.64-0.29,23.35,0.64,34.94-0.51c1.72-6.58,2.41-13.37,3.65-20.04
	c0.69-4.95,2.14-9.87,1.63-14.91C441.642,218.285,430.182,218.745,418.732,218.595 M409.202,276.045c-1.99,11.87-4,23.74-5.88,35.63
	c9.84-0.08,19.68-0.05,29.52-0.02c1.72-0.11,3.59,0.11,5.18-0.72c1.83-3.77,1.84-8.12,2.68-12.17c1-7.37,2.98-14.62,3.08-22.09
	c-4.25-0.95-8.61-0.59-12.92-0.62C423.642,276.055,416.422,276.055,409.202,276.045z"/>
<path class="st0" d="M487.572,202.345c2.87-4.29,8.42-5.53,13.28-5.55c12.67,0,25.34,0.01,38,0c4.27-0.01,9.74,0.74,11.67,5.15
	c1.78,5.15,0.74,10.71,0.03,15.96c-6.24,38.51-12.22,77.06-18.59,115.54c-5.39-0.02-10.79,0-16.18-0.02
	c2.45-15.76,5.02-31.5,7.53-47.25c-11.71-0.2-23.43-0.02-35.14-0.09c-2.63,15.76-5.1,31.55-7.62,47.34
	c-5.43,0.02-10.87,0.02-16.3-0.02c5.84-36.9,11.81-73.79,17.7-110.68C483.162,215.805,483.682,208.415,487.572,202.345
	 M500.112,218.985c-1.51,0.98-1.6,2.99-1.99,4.58c-2.18,13.56-4.33,27.12-6.53,40.68c11.72,0.25,23.44,0.04,35.16,0.11
	c2.19-12.86,4.11-25.77,6.27-38.64c0.46-2.28,0.43-4.62,0.23-6.93c-8.12-0.4-16.26-0.08-24.38-0.2
	C505.952,218.615,502.982,218.365,500.112,218.985z"/>
<path class="st0" d="M560.032,196.785c10.3,0.02,20.59-0.02,30.88,0.12c-6.27,34.61-12.58,69.21-18.88,103.81
	c-0.76,3.63-1.43,7.3-1.21,11.02c6.83,0.82,13.72,0.25,20.59,0.45c-1.27,7.08-2.51,14.16-3.82,21.24
	c-8.27-0.05-16.55,0.14-24.83-0.08c-4.15-0.26-9.31-1.02-11.33-5.2c-1.72-4.42-0.8-9.29-0.13-13.82
	c6.49-35.75,12.95-71.49,19.42-107.24C567.172,203.635,563.532,200.285,560.032,196.785z"/>
<path class="st0" d="M617.752,196.795c10.26-0.05,20.53,0.05,30.8,0.06c-5.84,33.33-12.07,66.6-18.08,99.91
	c-0.79,5-2.31,9.97-1.9,15.08c6.85,0.66,13.74,0.04,20.6,0.46c-1.36,7.02-2.6,14.05-3.84,21.09c-8.17,0.03-16.34,0.14-24.51-0.04
	c-4.01-0.23-8.73-0.81-11.24-4.34c-2.37-4.41-1.35-9.66-0.62-14.37c6.32-34.66,12.49-69.34,18.88-103.98
	c0.04-1.44,1.07-3.33-0.34-4.43C624.342,202.995,620.932,200.005,617.752,196.795z"/>
<path class="st0" d="M688.822,201.735c3.25-4.3,8.98-5.4,14.07-5.44c13.67-0.02,27.35-0.01,41.02-0.01
	c4.27,0.1,9.44,0.43,12.13,4.28c2.08,3.73,1.59,8.21,1.2,12.3c-1.24,8.09-2.63,16.17-4.11,24.23c-5.84-0.03-11.68,0-17.51,0
	c0.86-6.17,2.46-12.25,2.54-18.51c-9.71-1.04-19.52-0.18-29.27-0.5c-2.46,0.22-5.42-0.52-7.46,1.15c-2.07,4.49-2.01,9.63-3.1,14.4
	c-0.88,6.65-2.9,13.2-2.58,19.96c13.73,0.93,27.52-0.06,41.26,0.52c3.57,0.31,7.87,1.3,9.58,4.84c1.87,4.33,1.17,9.22,0.52,13.75
	c-2.38,14.03-4.73,28.06-7.18,42.07c-0.95,4.81-2.15,9.84-5.25,13.76c-3.65,4.2-9.6,4.88-14.83,4.9c-12.98,0.01-25.97,0-38.95,0
	c-4.02-0.1-8.53-0.24-11.76-2.96c-3.18-2.93-2.89-7.73-2.66-11.67c1-8.8,2.83-17.49,4.25-26.23c5.85-0.01,11.7-0.02,17.55,0.01
	c-0.84,6.13-2.51,12.16-2.52,18.38c6.96,1.22,14.06,0.36,21.09,0.61c4.58-0.12,9.2,0.29,13.77-0.21c3.14-0.42,2.79-4.38,3.48-6.69
	c1.33-9.43,3.73-18.73,4.28-28.26c-9.75-1.25-19.65-0.25-29.45-0.57c-6.33-0.34-13.29,1.17-19.06-2.13
	c-4.56-2.99-3.91-9.25-3.47-13.96c2.11-13.77,4.65-27.48,6.91-41.23C684.352,212.745,685.312,206.615,688.822,201.735z"/>
<path class="st5" d="M282.372,205.795c13.53,11.18,17.24,30.44,14.76,47.09c-9.56,53.5-18.87,107.06-29.45,160.37
	c-1.47,9.22-5.96,17.59-10.83,25.43c-11.18,17.52-29.96,30.92-50.91,33.01c-29.35,0.07-58.7-0.03-88.04,0.01
	c-7-0.12-14.11,0.56-20.99-1.05c-11.37-2.23-22.65-8.24-28.69-18.44c13.8,4.31,28.19,6.52,42.64,6.97
	c22.67,0.37,45.35,0.45,68.02,0.17c19.25,0.54,38.81-6.45,52.86-19.71c10.79-10.19,18.15-23.63,22.13-37.85
	c1.65-5.97,2.41-12.13,3.54-18.2c7.12-39.94,14.15-79.9,21.29-119.84C282.502,244.715,284.092,225.165,282.372,205.795z"/>
<path class="st4" d="M418.732,218.595c11.45,0.15,22.91-0.31,34.35,0.26c0.51,5.04-0.94,9.96-1.63,14.91
	c-1.24,6.67-1.93,13.46-3.65,20.04c-11.59,1.15-23.3,0.22-34.94,0.51C414.682,242.385,416.782,230.505,418.732,218.595z"/>
<path class="st4" d="M500.112,218.985c2.87-0.62,5.84-0.37,8.76-0.4c8.12,0.12,16.26-0.2,24.38,0.2c0.2,2.31,0.23,4.65-0.23,6.93
	c-2.16,12.87-4.08,25.78-6.27,38.64c-11.72-0.07-23.44,0.14-35.16-0.11c2.2-13.56,4.35-27.12,6.53-40.68
	C498.512,221.975,498.602,219.965,500.112,218.985z"/>
<path class="st5" d="M135.172,241.495c34.77-0.06,69.54-0.01,104.32-0.03c-0.78,4.21-1.59,8.42-2.35,12.64
	c-28.96,0.05-57.92,0.01-86.88,0.02c-2.17,9.71-4.09,19.47-6.33,29.15c-20.04-0.06-40.08-0.01-60.13-0.03
	c0.81-4.63,1.66-9.25,2.51-13.87c1.58,1.2,3.63,0.96,5.5,1.02c12.53-0.15,25.07-0.01,37.61-0.09
	C131.332,260.705,133.292,251.105,135.172,241.495z"/>
<path class="st4" d="M409.202,276.045c7.22,0.01,14.44,0.01,21.66,0.01c4.31,0.03,8.67-0.33,12.92,0.62
	c-0.1,7.47-2.08,14.72-3.08,22.09c-0.84,4.05-0.85,8.4-2.68,12.17c-1.59,0.83-3.46,0.61-5.18,0.72c-9.84-0.03-19.68-0.06-29.52,0.02
	C405.202,299.785,407.212,287.915,409.202,276.045z"/>
<path class="st5" d="M116.222,353.505c5.1-0.11,10.2-0.09,15.3,0.05c-3.4,19.34-6.99,38.65-10.28,58.02
	c-5.55,0.03-11.1,0.01-16.65,0.01C108.432,392.225,112.292,372.855,116.222,353.505z"/>
<path class="st1" d="M652.572,414.405c24.23-15.03,47.8-31.09,70.92-47.77c-16.44,28.48-41.48,51.36-69.58,68.09
	c-21.53,12.65-45.22,21.44-69.63,26.56c-9.77,1.91-19.62,3.9-29.6,4.14C589.042,452.035,621.172,433.605,652.572,414.405z"/>
</svg>
