<?xml version="1.0" encoding="utf-8"?>
<!-- Generator: Adobe Illustrator 21.0.0, SVG Export Plug-In . SVG Version: 6.00 Build 0)  -->
<svg version="1.1" id="Layer_1" xmlns="http://www.w3.org/2000/svg" xmlns:xlink="http://www.w3.org/1999/xlink" x="0px" y="0px"
	 viewBox="0 0 446.3 446.3" style="enable-background:new 0 0 446.3 446.3;" xml:space="preserve">
<style type="text/css">
	.st0{fill:#020000;stroke:#020000;stroke-width:9.375000e-02;}
	.st1{fill:#FFFFFF;stroke:#FFFFFF;stroke-width:9.375000e-02;}
	.st2{fill:#E21872;stroke:#DE1B68;stroke-width:9.375000e-02;}
	.st3{fill:#D41581;stroke:#DE1B68;stroke-width:9.375000e-02;}
	.st4{fill:url(#SVGID_1_);stroke:#DE1B68;stroke-width:9.375000e-02;}
	.st5{fill:url(#SVGID_2_);stroke:#DE1B68;stroke-width:9.375000e-02;}
	.st6{fill:url(#SVGID_3_);stroke:#DE1B68;stroke-width:9.375000e-02;}
</style>
<path class="st0" d="M202.7,0.9c30.5-2.7,61.5,0.6,90.5,10.3c57.7,18.9,106.6,62.5,132.1,117.6c19.3,40.9,25.3,87.8,17.6,132.3
	c-5.8,33.8-19.6,66.2-40,93.9c-22.2,30.3-52.2,54.9-86.3,70.7c-40.4,18.9-86.6,24.8-130.6,17.5c-52.5-8.6-101.3-37-135-78
	c-24-29-40.6-64.1-47.4-101.1c-6.8-36.8-4.3-75.4,7.5-110.9C22.3,119.5,41.6,88.7,66.9,64C103.1,28.1,152,5.4,202.7,0.9 M203.8,19
	C164,22.6,125.5,38.3,94.5,63.5C65,87.3,42.2,119.3,29.7,155c-12.4,35.2-14.9,73.7-7.3,110.2c7.2,34.6,23.6,67.1,47,93.5
	c21.4,24.3,48.7,43.5,78.8,55.3c28.4,11.2,59.4,15.8,89.9,13.6c37.7-2.6,74.6-16.2,105.1-38.4c31.4-22.8,56.3-54.5,70.5-90.6
	c18.5-46.2,19.1-99.2,1.9-145.9c-8.9-24.4-22.5-47-39.9-66.2c-24.8-27.7-57.2-48.6-92.8-59.4C257.5,19.1,230.4,16.5,203.8,19z"/>
<path class="st1" d="M203.8,19c26.6-2.5,53.7,0.2,79.3,8c35.6,10.8,68,31.7,92.8,59.4c17.3,19.3,31,41.9,39.9,66.2
	c17.2,46.7,16.6,99.7-1.9,145.9c-14.2,36.1-39.1,67.9-70.5,90.6c-30.6,22.3-67.4,35.8-105.1,38.4c-30.5,2.3-61.5-2.3-89.9-13.6
	c-30.2-11.8-57.4-31-78.8-55.3c-23.4-26.4-39.8-59-47-93.5c-7.6-36.5-5.2-75.1,7.3-110.2C42.2,119.3,65,87.3,94.5,63.5
	C125.5,38.3,164,22.6,203.8,19 M205.8,51.9C157.6,56.5,112.3,82.8,84,122c-20.7,28.3-32.5,63.1-32.9,98.2
	c-0.7,30.8,7.3,61.7,22.7,88.3c15.2,26.5,37.5,48.8,64,64c26.7,15.4,57.6,23.4,88.4,22.7c44.1-0.5,87.6-19.1,118.6-50.5
	c32.3-31.9,51.1-77.1,50.4-122.6c0.1-31.4-9.1-62.7-25.6-89.4c-18.9-30.5-47.4-54.9-80.5-68.6C262.8,53.2,233.9,49.1,205.8,51.9z"/>
<path class="st0" d="M205.8,51.9c28.2-2.8,57.1,1.3,83.2,12.3c33.1,13.7,61.7,38.1,80.5,68.6c16.5,26.7,25.7,58,25.6,89.4
	c0.7,45.4-18.1,90.7-50.4,122.6c-31,31.4-74.5,50-118.6,50.5c-30.8,0.7-61.7-7.3-88.4-22.7c-26.5-15.2-48.8-37.5-64-64
	c-15.3-26.7-23.4-57.6-22.7-88.3c0.4-35.1,12.2-69.9,32.9-98.2C112.3,82.8,157.6,56.5,205.8,51.9 M204.2,134
	c6.5-4.4,12.6-9.1,19-13.6c6.4,4.5,12.5,9.3,19,13.6c-6.3-19.4-12.5-38.8-18.9-58.1C216.6,95.2,210.5,114.7,204.2,134 M82.2,178.2
	c16.5,12,33,24.2,49.7,36.1c-2.3-7.4-4.8-14.8-7.2-22.3c6.3-4.6,12.7-9.2,19-13.9C123.2,178.1,102.7,178.2,82.2,178.2 M302.7,178.2
	c6.3,4.6,12.6,9.2,18.9,13.8c-2.4,7.4-4.9,14.8-7.2,22.2c16.6-11.9,33-24.1,49.6-36C343.7,178.2,323.2,178.1,302.7,178.2 M155,285.5
	c-6.3,19.4-12.8,38.9-18.9,58.4c16.5-12.1,33.3-24,49.7-36.2c-7.8-0.1-15.6-0.1-23.4,0C159.8,300.3,157.7,292.8,155,285.5
	 M291,285.9c-2.4,7.2-4.7,14.5-7.1,21.7c-7.8,0.1-15.6-0.1-23.5,0.1c16.4,12.2,33,24.1,49.7,36.1c-5.5-17.1-11.1-34.1-16.6-51.2
	C292.8,290.4,292.3,287.9,291,285.9z"/>
<path class="st2" d="M204.2,134c6.3-19.4,12.4-38.8,19-58.1c6.5,19.3,12.6,38.7,18.9,58.1c-6.4-4.4-12.6-9.1-19-13.6
	C216.8,124.9,210.6,129.7,204.2,134z"/>
<path class="st3" d="M82.2,178.2c20.5,0,41-0.1,61.4,0c-6.3,4.7-12.7,9.2-19,13.9c2.4,7.4,4.9,14.8,7.2,22.3
	C115.2,202.4,98.7,190.2,82.2,178.2z"/>
<linearGradient id="SVGID_1_" gradientUnits="userSpaceOnUse" x1="302.7459" y1="196.1566" x2="364.1259" y2="196.1566">
	<stop  offset="0" style="stop-color:#E22153"/>
	<stop  offset="1" style="stop-color:#D52A2C"/>
</linearGradient>
<path class="st4" d="M302.7,178.2c20.5-0.1,40.9,0.1,61.4,0c-16.6,11.9-33.1,24-49.6,36c2.3-7.4,4.8-14.8,7.2-22.2
	C315.4,187.3,309,182.8,302.7,178.2z"/>
<linearGradient id="SVGID_2_" gradientUnits="userSpaceOnUse" x1="136.0659" y1="314.7148" x2="185.7259" y2="314.7148">
	<stop  offset="0" style="stop-color:#E11678"/>
	<stop  offset="1" style="stop-color:#E01380"/>
</linearGradient>
<path class="st5" d="M155,285.5c2.7,7.3,4.8,14.7,7.3,22.1c7.8,0,15.6-0.1,23.4,0c-16.4,12.3-33.1,24.1-49.7,36.2
	C142.2,324.4,148.6,305,155,285.5z"/>
<linearGradient id="SVGID_3_" gradientUnits="userSpaceOnUse" x1="273.5946" y1="330.4267" x2="305.9315" y2="311.757">
	<stop  offset="0" style="stop-color:#E21C68"/>
	<stop  offset="1" style="stop-color:#E21F54"/>
</linearGradient>
<path class="st6" d="M291,285.9c1.3,2,1.8,4.4,2.6,6.7c5.5,17.1,11.1,34.1,16.6,51.2c-16.6-12-33.2-23.9-49.7-36.1
	c7.8-0.1,15.6,0,23.5-0.1C286.3,300.4,288.6,293.2,291,285.9z"/>
</svg>
