<?xml version="1.0" encoding="utf-8"?>
<!-- Generator: Adobe Illustrator 21.0.0, SVG Export Plug-In . SVG Version: 6.00 Build 0)  -->
<svg version="1.1" id="Layer_1" xmlns="http://www.w3.org/2000/svg" xmlns:xlink="http://www.w3.org/1999/xlink" x="0px" y="0px"
	 viewBox="0 0 380.3 545.4" style="enable-background:new 0 0 380.3 545.4;" xml:space="preserve">
<style type="text/css">
	.st0{fill:#134754;stroke:#134754;stroke-width:9.375000e-02;}
	.st1{fill:#F6F7F3;stroke:#F6F7F3;stroke-width:9.375000e-02;}
	.st2{fill:#D93026;stroke:#D93026;stroke-width:9.375000e-02;}
</style>
<path class="st0" d="M147.1,0.1c28.7,0,57.3,0,86,0c0,13,0,26,0,39c4,0,8,0,12,0c0,7.7,0,15.4,0,23c44.9,0,89.9,0,134.8,0
	c1,18.4-0.1,36.9-0.3,55.3c-1.6,50.1-3.4,100.1-7.9,150c-2.9,30.2-8,60.3-17.6,89.1c-15.9,48.5-43.6,93.1-80,128.9
	c-23.8,23.3-51,43.6-81.1,58c-0.9,0.5-1.6,1.2-2.3,2h-1.4c-1.2-1-2.5-1.9-3.9-2.5c-50-25.6-95.1-62.7-125.6-110.3
	c-18.4-28.5-31.4-60.3-39.7-93.2c-5.8-22.4-9.3-45.2-13.1-68c-3.6-25.8-4.7-52-5.7-78c-1.4-43.5-1.4-87-0.8-130.5
	c44.9,0,89.9,0,134.9,0c0-8-0.2-15.9,0.1-23.9c4,0.1,7.9,0.1,11.9,0.1C147.1,26.1,147.3,13.1,147.1,0.1 M190.1,20c0.1,7,0,14,0,21.1
	c7.9,0,15.8,0,23.7,0c0.1-7,0-14.1,0.1-21.1C206,19.9,198.1,19.9,190.1,20 M174.4,55.6c0,8.1,0,16.2,0,24.3c19.1,0,38.3,0,57.4,0
	c0.1-8.1,0-16.2,0-24.4C212.7,55.6,193.6,55.6,174.4,55.6 M34.5,96.7c-3.5,29.8-2.5,59.8-1.2,89.7c1.6,29.5,4,59.1,7.3,88.4
	c3.2,26,8.8,51.8,17.1,76.6c11.3,33.4,27.8,65.3,50.6,92.4c8,9.3,16.6,18.3,26.5,25.5c-0.2-64.6,0-129.3-0.1-193.9
	c-23.3,0-46.6,0-69.9,0c0-22.1,0-44.1,0-66.2c27.3,0,54.7,0,82,0c0.1-36.4,0-72.8,0.1-109.2c-4,0-8-0.1-12,0
	c-0.1-1.1-0.2-2.2-0.3-3.3C101.3,96.7,67.9,96.7,34.5,96.7 M245.2,96.7c-0.1,1.1-0.2,2.2-0.3,3.3c-4-0.1-7.9-0.1-11.9-0.1
	c0.1,36.4,0,72.8,0,109.3c27.3,0,54.6,0,81.9,0c-0.2,22.1-0.2,44.1,0,66.2c-23.3,0-46.6,0-69.9,0c0,64.6,0.1,129.2,0,193.9
	c16.5-12.4,29.9-28.5,41.6-45.4c29.7-43.7,45.8-95.4,52.5-147.5c2.9-24.9,5-49.9,6.6-75c1.9-34.8,3.7-69.9-0.3-104.6
	C312,96.6,278.6,96.8,245.2,96.7 M184.2,98.4c-0.1,4.9,0,9.7,0,14.6c11.1,0,22.3,0.1,33.4-0.1c-0.1-4.8,0-9.7-0.1-14.5
	C206.4,98.5,195.3,98.5,184.2,98.4 M184.2,129.9c0,4.8,0,9.6,0,14.4c11.1,0,22.2,0,33.3,0c0-4.8,0-9.6,0-14.4
	C206.4,129.9,195.3,129.9,184.2,129.9 M184.2,161.4c0,4.8-0.1,9.6,0,14.5c11.1-0.1,22.2,0,33.3,0c0-4.8,0-9.6,0-14.4
	C206.4,161.4,195.3,161.5,184.2,161.4 M184.2,194.7c0,4.9-0.1,9.7,0.1,14.6c11.1-0.2,22.2,0,33.3-0.1c0-4.8,0-9.7,0-14.5
	C206.4,194.7,195.3,194.7,184.2,194.7 M180.7,230.9c0.1,8.8,0,17.5,0.1,26.3c39.4,0,78.8,0,118.3,0c0-8.7-0.1-17.5,0.1-26.2
	c-1.7-0.1-3.5-0.2-5.2-0.2C256.2,230.9,218.5,230.6,180.7,230.9 M190.2,274.5c0,78.1,0,156.2,0,234.3c12.4-7.8,24.6-15.7,36.9-23.6
	c0-70.2,0-140.4,0-210.7C214.8,274.5,202.5,274.5,190.2,274.5z"/>
<path class="st1" d="M190.1,20c7.9,0,15.9,0,23.8,0c-0.1,7,0,14.1-0.1,21.1c-7.9,0-15.8,0-23.7,0C190.1,34,190.2,27,190.1,20z"/>
<path class="st1" d="M174.4,55.6c19.2,0,38.3,0,57.5,0c0,8.1,0.1,16.2,0,24.4c-19.1-0.1-38.3,0-57.4,0
	C174.4,71.8,174.4,63.7,174.4,55.6z"/>
<path class="st1" d="M34.5,96.7c33.4,0,66.8,0,100.3,0c0.1,1.1,0.2,2.2,0.3,3.3c4-0.1,8-0.1,12,0c-0.1,36.4,0.1,72.8-0.1,109.2
	c-27.3,0.1-54.7,0-82,0c0,22.1,0,44.2,0,66.2c23.3,0,46.6,0,69.9,0c0.1,64.6-0.1,129.3,0.1,193.9c-10-7.3-18.5-16.2-26.5-25.5
	c-22.8-27-39.3-59-50.6-92.4c-8.4-24.8-14-50.6-17.1-76.6c-3.3-29.4-5.7-58.9-7.3-88.4C32,156.5,30.9,126.5,34.5,96.7 M51,115.7
	c-0.3,8.9-0.7,17.8-1,26.7c0,16-0.9,32,1,47.9c25.9,0,51.8,0,77.7,0c-0.1-23.7,0.1-47.4-0.1-71.2c-3.8,0.1-7.6,0.1-11.4,0.1
	c-0.3-1.1-0.5-2.3-0.8-3.4C94.5,115.6,72.8,115.7,51,115.7 M62.4,294.3c4,21.7,10.2,42.9,18.1,63.5c9.2,23.5,20.4,46.5,35.8,66.6
	c-0.1-43.3,0.2-86.7,0.1-130C98.4,294.3,80.4,294.3,62.4,294.3z"/>
<path class="st1" d="M245.2,96.7c33.4,0.1,66.8,0,100.3,0.1c4,34.7,2.2,69.8,0.3,104.6c-1.7,25-3.7,50.1-6.6,75
	c-6.6,52.1-22.8,103.8-52.5,147.5c-11.7,16.9-25.1,33-41.6,45.4c0.1-64.6,0-129.2,0-193.9c23.3,0,46.6,0,69.9,0
	c-0.2-22.1-0.2-44.1,0-66.2c-27.3,0-54.6,0-81.9,0c0-36.4,0-72.8,0-109.3c4,0,7.9,0,11.9,0.1C244.9,98.9,245,97.8,245.2,96.7
	 M263.1,115.6c-0.4,1.2-0.7,2.3-1,3.5c-3.8-0.1-7.6-0.1-11.4-0.1c0,23.7,0,47.4,0,71.1c25.8-0.1,51.7-0.1,77.5,0
	c0.6-3.3,0.9-6.6,1-9.9c0.6-21.6,0.2-43.2-1-64.7C306.4,115.7,284.7,115.7,263.1,115.6 M262.8,294.3c0.2,43.4,0,86.8,0.3,130.2
	c10.1-13.5,18.5-28.2,25.8-43.4c13-27.6,22.3-56.9,28.1-86.8C298.8,294.3,280.8,294.3,262.8,294.3z"/>
<path class="st1" d="M184.2,98.4c11.1,0.1,22.2,0,33.3,0c0.1,4.8,0,9.7,0.1,14.5c-11.1,0.1-22.3,0-33.4,0.1
	C184.2,108.1,184.1,103.3,184.2,98.4z"/>
<path class="st2" d="M51,115.7c21.8,0,43.5-0.1,65.3,0.1c0.3,1.1,0.5,2.3,0.8,3.4c3.8,0,7.6,0,11.4-0.1c0.3,23.7,0,47.4,0.1,71.2
	c-25.9,0-51.8,0-77.7,0c-1.9-15.9-1-31.9-1-47.9C50.3,133.4,50.7,124.5,51,115.7z"/>
<path class="st2" d="M263.1,115.6c21.7,0,43.4,0.1,65,0c1.2,21.5,1.6,43.2,1,64.7c-0.1,3.3-0.4,6.6-1,9.9c-25.8-0.1-51.7-0.1-77.5,0
	c-0.1-23.7,0-47.4,0-71.1c3.8,0,7.6,0,11.4,0.1C262.3,118,262.7,116.8,263.1,115.6z"/>
<path class="st1" d="M184.2,129.9c11.1,0,22.2,0,33.4,0c0,4.8,0,9.6,0,14.4c-11.1,0-22.2,0-33.3,0
	C184.1,139.5,184.2,134.7,184.2,129.9z"/>
<path class="st1" d="M184.2,161.4c11.1,0.1,22.2,0,33.3,0c0,4.8,0,9.6,0,14.4c-11.1,0-22.2,0-33.3,0
	C184.1,171.1,184.2,166.2,184.2,161.4z"/>
<path class="st1" d="M184.2,194.7c11.1,0,22.2,0,33.3,0c0,4.8,0,9.7,0,14.5c-11.1,0.1-22.2-0.1-33.3,0.1
	C184.1,204.4,184.2,199.6,184.2,194.7z"/>
<path class="st1" d="M180.7,230.9c37.7-0.3,75.5,0,113.2-0.1c1.7,0,3.4,0.1,5.2,0.2c-0.1,8.7,0,17.5-0.1,26.2
	c-39.4,0-78.8,0-118.3,0C180.7,248.4,180.9,239.7,180.7,230.9z"/>
<path class="st1" d="M190.2,274.5c12.3,0,24.6,0,36.9,0c0,70.2,0,140.5,0,210.7c-12.3,7.9-24.5,15.9-36.9,23.6
	C190.2,430.7,190.2,352.6,190.2,274.5z"/>
<path class="st2" d="M62.4,294.3c18,0,36,0,54,0c0.1,43.3-0.2,86.7-0.1,130c-15.4-20.1-26.6-43.1-35.8-66.6
	C72.6,337.2,66.4,316,62.4,294.3z"/>
<path class="st2" d="M262.8,294.3c18,0,36.1,0,54.1,0c-5.8,29.9-15.1,59.2-28.1,86.8c-7.2,15.2-15.7,29.9-25.8,43.4
	C262.8,381.1,262.9,337.7,262.8,294.3z"/>
</svg>
