<?xml version="1.0" encoding="utf-8"?>
<!-- Generator: Adobe Illustrator 22.0.1, SVG Export Plug-In . SVG Version: 6.00 Build 0)  -->
<svg version="1.1" id="Layer_1" xmlns="http://www.w3.org/2000/svg" xmlns:xlink="http://www.w3.org/1999/xlink" x="0px" y="0px"
	 viewBox="0 0 161.6 161.6" style="enable-background:new 0 0 161.6 161.6;" xml:space="preserve">
<style type="text/css">
	.st0{fill-rule:evenodd;clip-rule:evenodd;fill:#1E1E1C;}
	.st1{fill:#FFFFFF;}
	.st2{fill:#00A6CE;}
	.st3{fill-rule:evenodd;clip-rule:evenodd;fill:#00A6CE;}
</style>
<path class="st0" d="M0,56.8L5.8,67c1.6,0,2.8,0,4,0.1c6.8,0.3,13.2,2.2,19.1,6.7l47.3,75.8c-9.3-20.7-18.7-41.4-28.2-62.4
	l35.1,17.5l53.4,22.5l-21.6-14.3c-9.3-5.5-18.4-12.1-27.7-18c-0.8-0.5-1.8-1.1-3-2.1c3.5-0.5,6.4-1,9.2-1.2
	c16.8-1.5,33.2-5.7,48.8-14.5c3.4-1.9,7.3-2.6,11-3.5c2.5-0.6,5.2-0.7,8-1.1c0-3.9,0.1-7.4,0.1-9.9c-12.1-3-24.1-5.6-35.9-9
	c-8.4-2.4-16.6-6.2-24.9-8.9c-14.9-4.8-25.8-5-41-0.9L140.3,18l-57.5-1.4 M34.3,61.6c8.6-2.8,16.6-5.3,24.5-8.2
	c2.4-0.9,3.4,1,4.2,2.9c5.8,13.6,21,15.3,30,9.3c1.9-1.3,3.9-3,5.2-5.1c2.2-3.6,4.5-4.9,7.9-3.5c9.1,3.6,18.2,7.1,28.1,10.8
	C101.2,87.9,64.2,86.5,34.3,61.6"/>
<path class="st1" d="M134.1,67.8c-9.9-3.8-19-7.2-28.1-10.8c-3.4-1.4-5.7-0.1-7.9,3.5c-1.3,2.1-3.2,3.9-5.2,5.1
	c-9,6-24.2,4.2-30-9.3c-0.8-1.8-1.8-3.7-4.2-2.9c-7.9,2.8-15.9,5.3-24.5,8.2C64.2,86.5,101.2,87.9,134.1,67.8"/>
<path class="st2" d="M94.6,57.5c0,4.5-5.6,8.2-12.6,8.2c-7,0-12.6-3.7-12.6-8.2c0-4.6,5.6,2,12.6,2C88.9,59.5,94.6,52.9,94.6,57.5"
	/>
<path class="st1" d="M91.1,57.9c0,1.6-1.3,2.9-2.9,2.9c-1.6,0-2.9-1.3-2.9-2.9c0-1.6,1.3-2.9,2.9-2.9C89.8,54.9,91.1,56.3,91.1,57.9
	"/>
<polygon class="st3" points="80,19.4 0,56.8 80,16.2 140.8,16.2 140.3,18.7 54,45.6 138.5,18.1 "/>
<polygon class="st3" points="28.9,74.3 76.5,150.1 50.4,90.6 140.6,129.2 84.3,92.9 123.6,119.6 47.7,86.7 65,127 "/>
</svg>
