<?xml version="1.0" encoding="utf-8"?>
<!-- Generator: Adobe Illustrator 21.0.0, SVG Export Plug-In . SVG Version: 6.00 Build 0)  -->
<svg version="1.1" xmlns="http://www.w3.org/2000/svg" xmlns:xlink="http://www.w3.org/1999/xlink" x="0px" y="0px"
	 viewBox="0 0 812.37 812.37" style="enable-background:new 0 0 812.37 812.37;" xml:space="preserve">
<style type="text/css">
	.st0{fill:#231F20;stroke:#231F20;stroke-width:0.0938;}
	.st1{fill:#FFFFFF;stroke:#FFFFFF;stroke-width:0.0938;}
	.st2{fill:url(#SVGID_1_);stroke:#1C63B7;stroke-width:0.0938;}
	.st3{fill:url(#SVGID_2_);stroke:#196ABD;stroke-width:0.0938;}
	.st4{fill:url(#SVGID_3_);stroke:#2054AD;stroke-width:0.0938;}
</style>
<g id="Layer_2">
</g>
<g id="Layer_1">
	<path class="st0" d="M261.791,22.471c24.89-3.77,50.54-1.33,74.55,6.11c28.96,9,55.83,24.39,78.73,44.22
		c47.45-3.92,96.04-2.29,141.99,11.12c33.96,9.93,66.31,27.23,90.96,52.92c20.85,21.83,36.55,49.16,42.41,78.94
		c15.05-3.14,30.45,0.38,44.91,4.64c6.93,2.17,13.85,4.48,20.43,7.6c-0.57,0.22-1.72,0.68-2.29,0.91
		c-27.78,10.79-51.4,29.8-73.03,49.88c-10.57,9.92-20.59,20.4-30.29,31.17c-23.54,26.32-45.09,54.43-64.56,83.89
		c22.65-9.11,47.82-8.83,71.59-5.17c8.13,1.48,16.45,2.62,24.17,5.69c-25.41,22.44-48.1,47.93-67.7,75.58
		c-14.46,20.3-27.06,41.92-37.75,64.43c-8.78,18.44-16.13,37.56-22.1,57.09c-5.54,18.08-9.78,36.56-12.81,55.23
		c-2.69,16.52-4.29,33.21-5.01,49.94c-0.84,20.66-0.16,41.37,1.98,61.93c1.11,11.17,2.85,22.26,4.73,33.32
		c-11.21-6.49-22-13.67-32.61-21.09c-26.2-18.71-50.51-39.98-73.18-62.81c-24.95-25.26-47.84-52.5-68.98-81
		c-17.01-23.17-33.05-47.1-47.1-72.18c-20.95,6.31-42.69,9.34-64.42,11.38c-34.23,3.01-69.04,0.48-102.23-8.6
		c-19.76-5.65-38.98-13.53-56.48-24.38c-10.28-6.41-20.06-13.75-28.44-22.55c-4.6-4.83-8.71-10.2-11.52-16.27
		c-1.11-3.13-1.45-6.56-0.24-9.71c2.52-7.5,6.81-14.24,11.01-20.88c13.19-20.07,28.39-38.71,43.75-57.13
		c27.34-32.56,57.97-62.36,91.25-88.81c0.79-0.79,1.87-1.49,2.08-2.67c0.87-4.17,1.08-8.46,1.84-12.65
		c6.13-38.12,21.03-74.79,43.38-106.28c-4.54-3.89-9.13-7.71-13.83-11.4c-42.86-34.2-89.71-63.44-139.21-87.03
		c31.43-22.04,70.52-29.55,108.23-31.03c28.94-0.98,57.98,1.46,86.39,6.98C284.841,55.261,273.141,38.821,261.791,22.471
		 M156.931,102.271c52.96,18.75,100.62,52.52,135.04,97.01c-31.12,31.53-51.84,73.37-56.9,117.47c-0.35,1.96,0.02,4.5-2.05,5.63
		c-52.07,41.54-96.38,92.87-129.32,150.78c-0.88,1.22,1.38,1.61,1.99,2.27c16.96,10,37.12,14.66,56.75,12.48
		c19.54-1.98,38.08-10.75,52.68-23.79c5.19,10.61,1.85,22.95-3.26,32.91c44.64-11.71,87.43-30.32,126.51-54.86
		c3.9,14.6,0.1,30.82-9.81,42.2c13.56-6.3,25.74-15.77,34.68-27.81c11.08-14.81,16.83-33.54,15.79-52.03
		c-0.95-16.99-6.97-33.58-16.63-47.54c-19.27,7.96-42.38,8.83-60.91-1.57c-12.2-6.65-20.93-18.54-24.89-31.73
		c-6.62-2.73-12.11-7.63-16.02-13.57c16.25-1.36,33.11-4.89,46.49-14.71c9.3-7.65,16.87-17.35,27.07-23.91
		c8.9-5.82,19.18-8.93,29.34-11.7c31.69-9.08,60.94-26.94,82.96-51.52c-9.8-5.78-17.99-13.85-25.76-22.06
		c-11.71-12.58-22.23-26.2-32.15-40.21c-12.57,15.39-21.3,34.06-24.04,53.79c-13.35-11.65-24.34-25.83-33.47-40.98
		c-8.11-13.66-14.92-28.17-19.59-43.37c-19.45-7.76-40.25-11.4-60.98-13.59C219.371,98.871,188.001,99.261,156.931,102.271
		 M443.331,111.071c1,0.89,2,1.76,3.02,2.63l0.33-0.02c9.92,9.07,19.61,18.41,28.72,28.31c4.79,5.25,9.19,10.82,13.92,16.11
		c3.97,5.59,8.17,11.03,12.2,16.58l-0.03,0.17c4.62,6.79,8.68,13.91,12.76,21.02c1.66,4.03,3.86,7.83,5.51,11.87
		c-5.22,3.59-10.26,7.44-15.12,11.51c-3.95,3.16-7.68,6.59-11.35,10.06c-3.97,3.47-7.64,7.26-11.33,11.01
		c-8.68,8.85-16.74,18.3-24.35,28.08l0.03,0.18c-4.83,5.6-8.99,11.74-13.18,17.82l0.03,0.2c-5.4,7.14-9.93,14.91-14.5,22.61
		c-4.8,7.85-8.9,16.1-13.22,24.22c3.87,1.39,8,1.79,12.03,2.48c7.25,0.73,14.49,1.82,21.79,1.62c5.31,0.46,10.68,0.2,15.98-0.33
		c3.14,0,6.24-0.53,9.36-0.87c-5.27,10.77-10.24,21.82-13.57,33.33c-2.87,6.54-4.51,13.53-6.53,20.37
		c-17.32,63.5-17.37,131.31-1.98,195.2c2.62,10.13,4.89,20.43,8.73,30.19c1.94,8.38,5.4,16.41,8.28,24.53
		c5.55,13.99,11.11,28.08,18.4,41.27c0.19,0.61,0.58,1.82,0.77,2.43c1.03-10.97,1.45-22,2.79-32.95c0.31-4.2,1.4-8.34,1.24-12.55
		c1.02-4.13,1.45-8.36,2.15-12.54c3.7-22.68,8.95-45.12,15.8-67.06c0.68-2.42,1.82-4.76,2.01-7.27c2.46-5.77,4.15-11.82,6.44-17.65
		c4.26-11.99,9.66-23.58,14.44-35.32c8.41-17.02,17.04-33.95,27.03-50.12c-9.27,0.47-18.5,1.58-27.61,3.36
		c-6.97,1.43-13.79,3.47-20.44,5.98c-3.57,1.58-7.03,3.37-10.44,5.25c2.82-11.66,6.95-22.98,10.49-34.39
		c3.61-8.19,6.67-16.62,10.56-24.69c4.27-9.63,9.64-18.76,14.43-28.11c6.67-10.63,13.36-21.26,20.82-31.37
		c4.02-5.3,8.07-10.56,12.34-15.66l-0.04-0.24c5.36-5.87,10.4-12.03,16.01-17.66l-0.04-0.31c9.52-9.46,19.21-18.75,29.49-27.38
		c-10.02-0.86-20.1-1.06-30.15-0.53c-5.88,0.32-11.72,1.08-17.56,1.8c-3.71,0.63-7.4,1.31-11.08,2.05c-2.86,0.62-5.7,1.27-8.54,1.94
		c2.46-3.39,5.03-6.69,7.66-9.94l-0.02-0.21c9.49-11.66,19.39-22.98,29.85-33.79c14.32-14.66,29.66-28.31,45.84-40.89
		c-11.63-20.18-27.2-38.1-45.78-52.17c-9.3-7.06-19.26-13.31-29.84-18.25l0.02-0.24c-7.93-3.67-15.96-7.13-24.26-9.86l0.05-0.13
		c-5.49-1.61-10.91-3.48-16.5-4.67l-0.01-0.19c-5.84-1.39-11.73-2.56-17.61-3.79c-5.41-0.77-10.81-1.58-16.24-2.19
		C470.051,110.441,456.661,110.291,443.331,111.071 M337.531,312.831c-4.6,1.7-8.02,5.48-12.56,7.32
		c-6.67,2.81-13.93,3.79-21.09,4.36c3.43,6.01,8.01,11.86,14.51,14.7c5.08,2.3,11.13,1.32,15.71-1.67
		c10.56-6.65,15.15-19.69,26.39-25.56C352.981,310.031,344.781,309.691,337.531,312.831z"/>
	<path class="st1" d="M156.931,102.271c31.07-3.01,62.44-3.4,93.52-0.41c20.73,2.19,41.53,5.83,60.98,13.59
		c4.67,15.2,11.48,29.71,19.59,43.37c9.13,15.15,20.12,29.33,33.47,40.98c2.74-19.73,11.47-38.4,24.04-53.79
		c9.92,14.01,20.44,27.63,32.15,40.21c7.77,8.21,15.96,16.28,25.76,22.06c-22.02,24.58-51.27,42.44-82.96,51.52
		c-10.16,2.77-20.44,5.88-29.34,11.7c-10.2,6.56-17.77,16.26-27.07,23.91c-13.38,9.82-30.24,13.35-46.49,14.71
		c3.91,5.94,9.4,10.84,16.02,13.57c3.96,13.19,12.69,25.08,24.89,31.73c18.53,10.4,41.64,9.53,60.91,1.57
		c9.66,13.96,15.68,30.55,16.63,47.54c1.04,18.49-4.71,37.22-15.79,52.03c-8.94,12.04-21.12,21.51-34.68,27.81
		c9.91-11.38,13.71-27.6,9.81-42.2c-39.08,24.54-81.87,43.15-126.51,54.86c5.11-9.96,8.45-22.3,3.26-32.91
		c-14.6,13.04-33.14,21.81-52.68,23.79c-19.63,2.18-39.79-2.48-56.75-12.48c-0.61-0.66-2.87-1.05-1.99-2.27
		c32.94-57.91,77.25-109.24,129.32-150.78c2.07-1.13,1.7-3.67,2.05-5.63c5.06-44.1,25.78-85.94,56.9-117.47
		C257.551,154.791,209.891,121.021,156.931,102.271z"/>
	<path class="st1" d="M337.531,312.831c7.25-3.14,15.45-2.8,22.96-0.85c-11.24,5.87-15.83,18.91-26.39,25.56
		c-4.58,2.99-10.63,3.97-15.71,1.67c-6.5-2.84-11.08-8.69-14.51-14.7c7.16-0.57,14.42-1.55,21.09-4.36
		C329.511,318.311,332.931,314.531,337.531,312.831z"/>
	<linearGradient id="SVGID_1_" gradientUnits="userSpaceOnUse" x1="416.7708" y1="397.3841" x2="559.1408" y2="397.3841">
		<stop  offset="0" style="stop-color:#2549A4"/>
		<stop  offset="1" style="stop-color:#33ABCC"/>
	</linearGradient>
	<path class="st2" d="M556.541,205.301c-4.35-10.64-9.95-20.75-16.67-30.08c-2.62-3.68-5.39-7.25-8.29-10.7
		c-1.15-1.3-2.33-2.56-3.5-3.82c-3.65-3.96-7.58-7.64-11.56-11.26l-1.55-1.37c-3.69-3.3-7.77-6.09-11.74-9.02
		c-0.84-0.61-1.66-1.23-2.49-1.83c-2.11-1.5-4.27-2.92-6.47-4.27c-3.81-2.32-7.7-4.5-11.63-6.6c-1.5-0.79-2.99-1.56-4.49-2.32
		c-6.39-3.35-13.13-5.93-19.98-8.12c-3.72-1.14-7.51-2.86-11.49-2.23c9.92,9.07,19.61,18.41,28.72,28.31
		c4.79,5.25,9.19,10.82,13.92,16.11c3.97,5.59,8.17,11.03,12.2,16.58l-0.03,0.17c4.62,6.79,8.68,13.91,12.76,21.02
		c1.66,4.03,3.86,7.83,5.51,11.87c-5.22,3.59-10.26,7.44-15.12,11.51c-3.95,3.16-7.68,6.59-11.35,10.06
		c-3.97,3.47-7.64,7.26-11.33,11.01c-8.68,8.85-16.74,18.3-24.35,28.08l0.03,0.18c-4.83,5.6-8.99,11.74-13.18,17.82l0.03,0.2
		c-5.4,7.14-9.93,14.91-14.5,22.61c-4.8,7.85-8.9,16.1-13.22,24.22c3.87,1.39,8,1.79,12.03,2.48c7.25,0.73,14.49,1.82,21.79,1.62
		c5.31,0.46,10.68,0.2,15.98-0.33c3.14,0,6.24-0.53,9.36-0.87c-5.27,10.77-10.24,21.82-13.57,33.33
		c-2.87,6.54-4.51,13.53-6.53,20.37c-17.32,63.5-17.37,131.31-1.98,195.2c2.62,10.13,4.89,20.43,8.73,30.19
		c1.94,8.38,5.4,16.41,8.28,24.53c5.55,13.99,11.11,28.08,18.4,41.27c-0.21-7.06-2.7-13.74-3.93-20.63
		c-10.48-48.91-16.21-98.94-15.36-148.99c-0.01-24.46,2.11-48.87,5.45-73.09c1.76-14.22,5.09-28.18,7.49-42.29
		c2.75-11.66,6.05-23.17,9.32-34.69c4.97-16.45,11.34-32.48,18.97-47.88c-6.75-1.33-13.62-2.01-20.5-1.96
		c-3.45,0.03-6.9-0.07-10.32-0.46c-6.19,0.64-12.33,1.66-18.5,2.45c5.66-11.54,13.71-21.68,21.2-32.06c1.21-1.56,2.46-3.08,3.7-4.61
		c2.34-2.94,4.66-5.91,7.16-8.71c4.02-4.32,8.1-8.59,12.13-12.9c2.14-2.18,4.37-4.28,6.63-6.36c4.96-4.69,10.21-9.05,15.37-13.52
		c3.13-2.6,6.45-4.97,9.62-7.53c0.72-0.58,1.43-1.17,2.17-1.74c5.33-4.15,11.12-7.66,16.8-11.3c0.82-0.54,1.65-1.09,2.48-1.63
		C558.301,210.641,557.511,207.941,556.541,205.301z"/>
	<linearGradient id="SVGID_2_" gradientUnits="userSpaceOnUse" x1="443.3308" y1="397.1289" x2="633.5008" y2="397.1289">
		<stop  offset="0.2" style="stop-color:#234FA8"/>
		<stop  offset="1" style="stop-color:#0996DD"/>
	</linearGradient>
	<path class="st3" d="M587.351,282.441c-5.88,0.32-11.72,1.08-17.56,1.8c-3.71,0.63-7.4,1.31-11.08,2.05
		c-2.86,0.62-5.7,1.27-8.54,1.94c2.46-3.39,5.03-6.69,7.66-9.94l-0.02-0.21c9.49-11.66,19.39-22.98,29.85-33.79
		c14.32-14.66,29.66-28.31,45.84-40.89c-11.63-20.18-27.2-38.1-45.78-52.17c-9.3-7.06-19.26-13.31-29.84-18.25l0.02-0.24
		c-7.93-3.67-15.96-7.13-24.26-9.86l0.05-0.13c-5.49-1.61-10.91-3.48-16.5-4.67l-0.01-0.19c-5.84-1.39-11.73-2.56-17.61-3.79
		c-5.41-0.77-10.81-1.58-16.24-2.19c-13.28-1.47-26.67-1.62-40-0.84c1,0.89,2,1.76,3.02,2.63l0.33-0.02
		c3.98-0.63,7.77,1.09,11.49,2.23c6.85,2.19,13.59,4.77,19.98,8.12c1.5,0.76,2.99,1.53,4.49,2.32c3.93,2.1,7.82,4.28,11.63,6.6
		c2.2,1.35,4.36,2.77,6.47,4.27c0.83,0.6,1.65,1.22,2.49,1.83c3.97,2.93,8.05,5.72,11.74,9.02l1.55,1.37
		c3.98,3.62,7.91,7.3,11.56,11.26c1.17,1.26,2.35,2.52,3.5,3.82c2.9,3.45,5.67,7.02,8.29,10.7c6.72,9.33,12.32,19.44,16.67,30.08
		c0.97,2.64,1.76,5.34,2.6,8.02c-0.83,0.54-1.66,1.09-2.48,1.63c-5.68,3.64-11.47,7.15-16.8,11.3c-0.74,0.57-1.45,1.16-2.17,1.74
		c-3.17,2.56-6.49,4.93-9.62,7.53c-5.16,4.47-10.41,8.83-15.37,13.52c-2.26,2.08-4.49,4.18-6.63,6.36
		c-4.03,4.31-8.11,8.58-12.13,12.9c-2.5,2.8-4.82,5.77-7.16,8.71c-1.24,1.53-2.49,3.05-3.7,4.61c-7.49,10.38-15.54,20.52-21.2,32.06
		c6.17-0.79,12.31-1.81,18.5-2.45c3.42,0.39,6.87,0.49,10.32,0.46c6.88-0.05,13.75,0.63,20.5,1.96c-7.63,15.4-14,31.43-18.97,47.88
		c-3.27,11.52-6.57,23.03-9.32,34.69c-2.4,14.11-5.73,28.07-7.49,42.29c-3.34,24.22-5.46,48.63-5.45,73.09
		c-0.85,50.05,4.88,100.08,15.36,148.99c1.23,6.89,3.72,13.57,3.93,20.63c0.19,0.61,0.58,1.82,0.77,2.43
		c1.03-10.97,1.45-22,2.79-32.95c0.31-4.2,1.4-8.34,1.24-12.55c1.02-4.13,1.45-8.36,2.15-12.54c3.7-22.68,8.95-45.12,15.8-67.06
		c0.68-2.42,1.82-4.76,2.01-7.27c2.46-5.77,4.15-11.82,6.44-17.65c4.26-11.99,9.66-23.58,14.44-35.32
		c8.41-17.02,17.04-33.95,27.03-50.12c-9.27,0.47-18.5,1.58-27.61,3.36c-6.97,1.43-13.79,3.47-20.44,5.98
		c-3.57,1.58-7.03,3.37-10.44,5.25c2.82-11.66,6.95-22.98,10.49-34.39c3.61-8.19,6.67-16.62,10.56-24.69
		c4.27-9.63,9.64-18.76,14.43-28.11c6.67-10.63,13.36-21.26,20.82-31.37c4.02-5.3,8.07-10.56,12.34-15.66l-0.04-0.24
		c5.36-5.87,10.4-12.03,16.01-17.66l-0.04-0.31c9.52-9.46,19.21-18.75,29.49-27.38C607.481,282.111,597.401,281.911,587.351,282.441
		z"/>
	<linearGradient id="SVGID_3_" gradientUnits="userSpaceOnUse" x1="637.2919" y1="760.8328" x2="204.7229" y2="11.6013">
		<stop  offset="0" style="stop-color:#2154AC"/>
		<stop  offset="1" style="stop-color:#04A3E6"/>
	</linearGradient>
	<path class="st4" d="M774.101,218.691c-2.55-5.21-7.45-8.95-12.82-10.9c-17.74-6.95-36.36-12.01-55.33-13.93
		c-6.39-21.08-17.59-40.37-31.15-57.61c-16.28-20.97-37.52-37.65-60.45-50.8c-21.18-11.95-44.39-19.97-68.07-25.27
		c-24.88-6.11-50.45-9.08-76.03-9.76c-16.23-0.71-32.5,0.36-48.68,0.92c-24.46-19.22-52.05-35-82.23-43.12
		c-16.33-4.4-33.06-7.94-50.04-8.14c-12.06-0.19-24.32,0.34-35.95,3.79c-4.32,1.97-7.98,5.51-9.97,9.83
		c-0.9,2.9-1.63,5.87-2.03,8.88c0.79,4.14,1.2,8.67,3.9,12.09c3.08,4.23,5.95,8.62,8.98,12.89c-8.32-0.63-16.64-1.32-24.97-1.5
		c-27.36-0.88-54.95,1.36-81.52,8.18c-22.71,5.14-44.95,13.94-63.5,28.24c-7.67,6.66-8.58,18.92-3.15,27.21
		c3.89,6.01,11.04,8.26,17.12,11.35c37.32,18.51,73.1,40.2,106.64,64.92c6.25,4.75,12.53,9.45,18.61,14.43
		c-8.84,14.28-16.23,29.46-22.04,45.22c-6.81,18.48-11.3,37.72-14.77,57.07c-0.11,0.86-0.21,1.72-0.32,2.58
		c-37.13,29.75-70.62,63.9-100.42,100.96c-13.2,16.28-26.02,32.93-37.34,50.59c-3.92,6.31-7.82,12.75-9.97,19.91
		c-1.55,5.98-3.71,12.26-1.64,18.4c1.15,6.51,3.75,12.7,7.83,17.92c10.92,16.37,27.15,28.1,43.47,38.6
		c4.53,2.54,8.83,5.73,13.8,7.32c2.11,1.64,4.54,2.79,6.97,3.89c17.32,8.09,35.69,13.81,54.36,17.84
		c27.77,6.55,56.53,8.59,84.99,6.8c20.9-1.47,41.8-4.08,62.18-9.05c10.27,16.77,21.1,33.22,32.55,49.22
		c20.23,28.38,42.05,55.65,65.91,81.07c21.2,22.88,44.19,44.12,68.65,63.48l0.26-0.02c16.6,13.29,34.17,25.36,52.34,36.39
		c3.58,2.35,7.94,2.99,12.08,3.74c4.54-0.78,9.52-1.35,13.12-4.54c5.47-3.9,7.46-10.82,7.75-17.21
		c-1.83-10.59-3.46-21.23-4.51-31.93c-2.24-20.59-2.8-41.35-2.01-62.04c0.55-16.62,2.57-33.14,4.83-49.59l0.18,0.02
		c2.9-19.02,7.62-37.72,13.71-55.95c6.35-19.34,14.26-38.14,23.32-56.36c11.38-22.41,24.53-43.95,39.74-63.97
		c16.95-22.14,36.06-42.6,56.82-61.2c4.13-3.59,5.55-8.88,6.68-14c-0.28-6.32-2.07-13.12-7.33-17.12
		c-4.76-4.32-11.43-4.78-17.36-6.37c-15.18-3.78-30.74-6.03-46.38-6.51c14.6-19.04,30.11-37.39,46.64-54.8
		c22.78-23.25,47.11-46.17,77.02-59.91c4.44-2.27,9.53-3.28,13.51-6.4c3.05-2.12,5.24-5.3,6.64-8.71c0.46-2.67,1.33-5.27,1.54-7.98
		C775.771,224.691,775.141,221.621,774.101,218.691z M753.481,228.931c-27.78,10.79-51.4,29.8-73.03,49.88
		c-10.57,9.92-20.59,20.4-30.29,31.17c-23.54,26.32-45.09,54.43-64.56,83.89c22.65-9.11,47.82-8.83,71.59-5.17
		c8.13,1.48,16.45,2.62,24.17,5.69c-25.41,22.44-48.1,47.93-67.7,75.58c-14.46,20.3-27.06,41.92-37.75,64.43
		c-8.78,18.44-16.13,37.56-22.1,57.09c-5.54,18.08-9.78,36.56-12.81,55.23c-2.69,16.52-4.29,33.21-5.01,49.94
		c-0.84,20.66-0.16,41.37,1.98,61.93c1.11,11.17,2.85,22.26,4.73,33.32c-11.21-6.49-22-13.67-32.61-21.09
		c-26.2-18.71-50.51-39.98-73.18-62.81c-24.95-25.26-47.84-52.5-68.98-81c-17.01-23.17-33.05-47.1-47.1-72.18
		c-20.95,6.31-42.69,9.34-64.42,11.38c-34.23,3.01-69.04,0.48-102.23-8.6c-19.76-5.65-38.98-13.53-56.48-24.38
		c-10.28-6.41-20.06-13.75-28.44-22.55c-4.6-4.83-8.71-10.2-11.52-16.27c-1.11-3.13-1.45-6.56-0.24-9.71
		c2.52-7.5,6.81-14.24,11.01-20.88c13.19-20.07,28.39-38.71,43.75-57.13c27.34-32.56,57.97-62.36,91.25-88.81
		c0.79-0.79,1.87-1.49,2.08-2.67c0.87-4.17,1.08-8.46,1.84-12.65c6.13-38.12,21.03-74.79,43.38-106.28
		c-4.54-3.89-9.13-7.71-13.83-11.4c-42.86-34.2-89.71-63.44-139.21-87.03c31.43-22.04,70.52-29.55,108.23-31.03
		c28.94-0.98,57.98,1.46,86.39,6.98c-7.55-18.54-19.25-34.98-30.6-51.33c24.89-3.77,50.54-1.33,74.55,6.11
		c28.96,9,55.83,24.39,78.73,44.22c47.45-3.92,96.04-2.29,141.99,11.12c33.96,9.93,66.31,27.23,90.96,52.92
		c20.85,21.83,36.55,49.16,42.41,78.94c15.05-3.14,30.45,0.38,44.91,4.64c6.93,2.17,13.85,4.48,20.43,7.6
		C755.201,228.241,754.051,228.701,753.481,228.931z"/>
</g>
</svg>
