<?xml version="1.0" encoding="utf-8"?>
<!-- Generator: Adobe Illustrator 21.0.0, SVG Export Plug-In . SVG Version: 6.00 Build 0)  -->
<svg version="1.1" id="Layer_1" xmlns="http://www.w3.org/2000/svg" xmlns:xlink="http://www.w3.org/1999/xlink" x="0px" y="0px"
	 viewBox="0 0 790.17 790.17" style="enable-background:new 0 0 790.17 790.17;" xml:space="preserve">
<style type="text/css">
	.st0{fill:#FFA200;}
	.st1{fill:#10111B;}
	.st2{fill:#9A6200;}
	.st3{fill:#D2D4E6;}
	.st4{fill:#666778;}
</style>
<path class="st0" d="M317.042,57.584c18.81,20.57,37.6,41.14,56.39,61.72c26.33-12.95,52.67-25.89,78.99-38.85
	c11.63,26.47,23.26,52.94,34.88,79.41c26.87-8.14,53.73-16.28,80.59-24.42c7.67,28,15.32,56.01,23,84.01
	c27.1,1.48,54.2,3.1,81.3,4.62c-19.93,29.47-39.88,58.92-59.82,88.38c-2.55,0.2-5.09,0.37-7.62,0.53c0.21,3.33,0.32,6.67,0.47,10.01
	c-9.36,13.84-18.7,27.7-28.12,41.51c13.53,11.28,24.35,25.95,30.2,42.63c3.85,10.28,5.07,21.23,6.96,31.98
	c1.34,8.09,2.74,16.18,4.05,24.29c23.69,8.12,46.76,19.91,64.37,38.06c35.81,0.09,71.62-0.01,107.44,0.04
	c-2.09,31.78-4.1,63.55-6.14,95.33c-19.78-0.01-39.56-0.01-59.33,0c-2.9,45.22-5.82,90.44-8.7,135.67
	c-65.87-0.01-131.75-0.01-197.63-0.01c-4.55-9.03-9.04-18.1-13.63-27.12c-0.6,9.04-1.18,18.08-1.74,27.13
	c-40,0-80.01-0.04-120.01,0.02c-1.85-5.55-3.54-11.14-5.4-16.67c-2.6,5.49-5.02,11.08-7.5,16.63c-33.96,0.03-67.92,0-101.88,0.02
	c-3.63-7.05-7.23-14.11-10.86-21.15c-0.45,7.05-0.92,14.09-1.34,21.15c-29.51,0-59.01-0.02-88.51,0c-16.33-0.53-32.67-0.38-49-0.25
	c-22.29,1.65-45.16-3.15-64.44-14.6c-28.53-16.66-48.41-46.92-52.93-79.59c-4.54-33.94,5.97-69.78,28.7-95.49
	c23.6-26.77,59.05-43.17,94.86-42.44c-9.84-6.15-19.88-11.97-29.73-18.11c6.87-0.32,13.74-0.72,20.61-0.93
	c-4.84-6.08-9.13-12.62-12.4-19.68c-9.99-21.08-20.03-42.14-29.97-63.25c19.97,8.17,39.96,16.29,59.92,24.48
	c8.17,3.83,17.74,3.81,26.33,1.48c12.53-3.58,22.13-13.49,28.76-24.33c0.78-7.31,0.56-14.72,0.99-22.06
	c0.62-0.12,1.86-0.36,2.49-0.47c0.69-8.69,2.74-17.33,6.58-25.18c3.1-6.55,7.8-12.13,12-17.98c2.8-0.42,5.59-0.87,8.39-1.33
	c1.55-8.36,4.22-16.57,8.57-23.91c2.72-4.52,5.58-8.96,8.36-13.45c2.9-0.18,5.81-0.34,8.72-0.52c2.85-13.36,11.79-25.29,24.27-31.06
	c-2.3-0.8-4.61-1.56-6.91-2.32c8.13-29.9,16.25-59.8,24.37-89.71c2.12-1.4,4.25-2.8,6.37-4.2c-1.32-1.58-2.63-3.16-3.94-4.74
	C297.982,127.774,307.492,92.674,317.042,57.584 M321.942,77.894c-7.45,27.57-15.06,55.1-22.41,82.69c2.62,3.04,5.16,6.14,7.73,9.22
	c-3.61,2.48-7.35,4.78-10.97,7.25c-1.09,0.63-1.88,1.61-2.09,2.88c-6.79,24.95-13.5,49.94-20.38,74.87
	c1.16,0.43,2.34,0.87,3.52,1.31c0.34,4.98,1.42,9.87,3.18,14.54c-6.76,1.39-13.24,4.56-17.91,9.73c-6.11,6.48-8.94,15.36-9.51,24.11
	c-3.93,0.17-7.85,0.41-11.77,0.65c-3.08,4.98-6.48,9.83-8.7,15.29c-2.87,6.73-4.31,13.96-5.04,21.21c-3.96,0.51-7.9,1.11-11.82,1.81
	c-3.08,4.33-6.45,8.51-8.69,13.36c-4.29,8.91-5.77,18.91-5.63,28.73c-0.85,0.22-1.7,0.45-2.55,0.68c-0.26,5.34-0.19,10.69-0.6,16.02
	c-0.78,2.52-2.71,4.5-4.1,6.71c-7.46,10.89-17.78,20.37-30.56,24.42c-11.09,3.43-23.54,3.4-34.26-1.31
	c-11.88-4.68-23.77-9.31-35.67-13.94c5.86,12.36,11.74,24.71,17.58,37.08c6.11,13.9,16.19,25.78,28.18,34.99
	c-3.54,0.17-7.08,0.35-10.62,0.59c18.28,11.11,36.48,22.37,54.97,33.11c-0.16,2.12-0.32,4.25-0.46,6.38
	c-19.09-12.7-41.78-20.92-64.92-20.1c-30.1,1.23-59.35,15.25-79.69,37.37c-25.98,28.29-35.81,71.01-23.35,107.51
	c6.33,18.61,18.19,35.33,33.8,47.31c15.23,11.77,34.05,18.69,53.23,19.94c8.32,0.63,16.63-0.34,24.96-0.14
	c16.34,0.14,32.7-0.33,49.04,0.34c23.38-0.02,46.77,0,70.15-0.01c0.97-15.97,2.06-31.93,3.04-47.9
	c8.32,15.92,16.41,31.95,24.65,47.91c29.76-0.01,59.51-0.01,89.27-0.01c5.17-11.55,10.37-23.1,15.51-34.67
	c3.83,11.52,7.42,23.12,11.15,34.67c34.46,0,68.92,0.01,103.38,0c1.14-18.18,2.29-36.36,3.51-54.54
	c9.21,18.14,18.25,36.37,27.4,54.54c60.69,0,121.39,0.01,182.09,0c2.85-45.22,5.81-90.44,8.68-135.66
	c19.8-0.05,39.6,0.08,59.41-0.07c1.46-25.1,3.19-50.18,4.76-75.27c-33.69,0.01-67.37,0-101.06,0
	c-18.27-20.06-43.36-32.37-68.93-40.34c-2.53-14.97-5.02-29.94-7.54-44.91c-3.69-24.13-18.32-45.88-38.48-59.41
	c10.54-15.57,21.07-31.14,31.61-46.7c-0.24-5.49-0.48-10.97-0.78-16.45c4.2-0.35,8.41-0.63,12.62-0.95
	c15.6-23.26,31.4-46.4,47.06-69.62c-23.63-1.41-47.27-2.66-70.89-4.11c-7.3-26.99-14.77-53.94-22.1-80.92
	c-26.44,7.94-52.83,16.01-79.25,23.99c-11.42-25.98-22.83-51.97-34.25-77.96c-25.42,12.52-50.88,24.98-76.28,37.54
	C354.682,113.804,338.412,95.754,321.942,77.894z"/>
<path class="st1" d="M321.942,77.894c16.47,17.86,32.74,35.91,49.22,53.76c25.4-12.56,50.86-25.02,76.28-37.54
	c11.42,25.99,22.83,51.98,34.25,77.96c26.42-7.98,52.81-16.05,79.25-23.99c7.33,26.98,14.8,53.93,22.1,80.92
	c23.62,1.45,47.26,2.7,70.89,4.11c-15.66,23.22-31.46,46.36-47.06,69.62c-4.21,0.32-8.42,0.6-12.62,0.95
	c0.3,5.48,0.54,10.96,0.78,16.45c-10.54,15.56-21.07,31.13-31.61,46.7c20.16,13.53,34.79,35.28,38.48,59.41
	c2.52,14.97,5.01,29.94,7.54,44.91c25.57,7.97,50.66,20.28,68.93,40.34c33.69,0,67.37,0.01,101.06,0
	c-1.57,25.09-3.3,50.17-4.76,75.27c-19.81,0.15-39.61,0.02-59.41,0.07c-2.87,45.22-5.83,90.44-8.68,135.66
	c-60.7,0.01-121.4,0-182.09,0c-9.15-18.17-18.19-36.4-27.4-54.54c-1.22,18.18-2.37,36.36-3.51,54.54c-34.46,0.01-68.92,0-103.38,0
	c-3.73-11.55-7.32-23.15-11.15-34.67c-5.14,11.57-10.34,23.12-15.51,34.67c-29.76,0-59.51,0-89.27,0.01
	c-8.24-15.96-16.33-31.99-24.65-47.91c-0.98,15.97-2.07,31.93-3.04,47.9c-23.38,0.01-46.77-0.01-70.15,0.01
	c-16.34-0.67-32.7-0.2-49.04-0.34c-8.33-0.2-16.64,0.77-24.96,0.14c-19.18-1.25-38-8.17-53.23-19.94
	c-15.61-11.98-27.47-28.7-33.8-47.31c-12.46-36.5-2.63-79.22,23.35-107.51c20.34-22.12,49.59-36.14,79.69-37.37
	c23.14-0.82,45.83,7.4,64.92,20.1c0.14-2.13,0.3-4.26,0.46-6.38c-18.49-10.74-36.69-22-54.97-33.11c3.54-0.24,7.08-0.42,10.62-0.59
	c-11.99-9.21-22.07-21.09-28.18-34.99c-5.84-12.37-11.72-24.72-17.58-37.08c11.9,4.63,23.79,9.26,35.67,13.94
	c10.72,4.71,23.17,4.74,34.26,1.31c12.78-4.05,23.1-13.53,30.56-24.42c1.39-2.21,3.32-4.19,4.1-6.71c0.41-5.33,0.34-10.68,0.6-16.02
	c0.85-0.23,1.7-0.46,2.55-0.68c-0.14-9.82,1.34-19.82,5.63-28.73c2.24-4.85,5.61-9.03,8.69-13.36c3.92-0.7,7.86-1.3,11.82-1.81
	c0.73-7.25,2.17-14.48,5.04-21.21c2.22-5.46,5.62-10.31,8.7-15.29c3.92-0.24,7.84-0.48,11.77-0.65c0.57-8.75,3.4-17.63,9.51-24.11
	c4.67-5.17,11.15-8.34,17.91-9.73c-1.76-4.67-2.84-9.56-3.18-14.54c-1.18-0.44-2.36-0.88-3.52-1.31
	c6.88-24.93,13.59-49.92,20.38-74.87c0.21-1.27,1-2.25,2.09-2.88c3.62-2.47,7.36-4.77,10.97-7.25c-2.57-3.08-5.11-6.18-7.73-9.22
	C306.882,132.994,314.492,105.464,321.942,77.894 M330.422,112.934c-4.02,14.43-7.86,28.91-11.84,43.36
	c4.76,5.82,9.65,11.54,14.37,17.4c-7.25,4.74-14.48,9.49-21.71,14.26c-1.89,1.01-2.1,3.32-2.7,5.15
	c-2.07,8.11-4.41,16.15-6.49,24.26c2.67,0.72,5.34,1.44,8.03,2.1c52.17,17.26,103,38.48,152.25,62.84
	c31.6,15.74,62.71,32.56,92.53,51.48c2.22,1.46,4.36,3.06,6.75,4.24c2.69-2.59,4.28-6.12,6.53-9.1c2.95-4.66,6.49-8.96,9.1-13.81
	c0.11-9.17-0.72-18.35-1.11-27.52c7-0.73,14.05-0.99,21.08-1.57c8.38-12.48,16.87-24.88,25.24-37.36c-17.58-0.99-35.16-2.04-52.75-3
	c-7.07-25.25-13.75-50.62-20.89-75.86c-25.61,7.82-51.22,15.62-76.86,23.29c-11.04-25.16-21.97-50.37-33.21-75.44
	c-23.84,11.85-47.78,23.5-71.64,35.29C354.832,139.644,342.762,126.164,330.422,112.934 M299.572,226.324
	c-1.57,5.73-3.11,11.46-4.68,17.19c57.13,18.51,112.69,41.77,166.23,68.95c29.13,14.9,57.82,30.76,85.28,48.58
	c3.44-5.07,6.85-10.15,10.31-15.19c-18.19-11.74-37.01-22.48-56-32.87C436.442,278.164,369.102,248.934,299.572,226.324
	 M294.802,257.754c1.29,6.87,4.72,13.44,10.26,17.81c7.59,6.19,17.78,7.88,27.33,7.63c10.92-0.24,21.82,2.65,31.27,8.11
	c-4.19-8.91-11.69-16.57-21.31-19.32c-7.47-2.57-15.45-0.55-23.08-2.01C310.102,268.534,301.532,264.114,294.802,257.754
	 M274.482,293.164c-3.13,3.95-3.87,9.13-4.1,14.02c-0.27,5.36-2.49,10.34-4.76,15.11c-4.78-0.42-9.58-0.52-14.38-0.45
	c-5.21,8.79-6.79,19.19-6.56,29.27c2.25,0.06,4.5,0.1,6.76,0.15c17.24,0.56,34.67,3.15,50.7,9.76c-0.93-7.33,1.13-14.61,3.85-21.35
	c-4.09-5.69-10.24-9.31-16.48-12.2c6.9,0.73,14.4,2.04,19.52,7.13c3.26,3.06,3.56,7.74,5.17,11.67c1.65,4.5,4.39,8.46,7.11,12.37
	c-4.62-2.2-8.27-5.83-11.57-9.66c-1.2,5.04-1.3,10.26-0.73,15.4c12.2,4.62,21.97,14.83,26.12,27.18
	c14.19,0.58,28.9-2.63,40.49-11.12c15.01-10.82,23.89-28.35,27.45-46.19c2.86,3.7,5.07,7.94,5.78,12.61
	c-0.04,0.41-0.1,1.23-0.14,1.64c3.38-5.07,3.59-11.43,4.46-17.28c0.26-4.8,2.11-10.37-1.44-14.42
	c-8.24-11.82-23.05-16.34-36.67-18.13c-0.36,3.25-0.82,6.49-1.49,9.69c-1.37,4.99-3.66,9.66-6.31,14.09
	c-8.77-5.53-19.19-8.63-29.6-7.68c0.58,8.5,6.34,15.38,12.64,20.58c-3.17-1.68-6.67-1.41-10.07-1.86c0.85-0.09,2.57-0.27,3.42-0.36
	c-5.26-3.29-10.6-6.71-14.4-11.73c-6.8-8.14-10.08-18.8-17.95-26.1c-6.65-6.2-16.16-7.97-24.97-7.75
	C281.822,287.604,277.222,289.484,274.482,293.164 M420.752,321.014c-0.14,2.59-0.28,5.18-0.42,7.78
	c-1.43,14.63-5.88,29.12-14.11,41.39c0.46-6.12-0.37-12.26-2.15-18.12c-2.34,7.29-5.61,14.34-10.47,20.31
	c-9.81,12.57-24.26,20.61-39.24,25.43c9.63,3.36,20.11,3,29.98,0.93c-1.17,8.66-4.05,17.11-8.83,24.45
	c-8.25,12.81-21.02,22.22-34.95,28.06c-0.28-2.93-0.4-5.94-1.38-8.73c-0.94-10.01-6.83-18.68-11.81-27.14
	c6.82,1.74,12.61,5.86,18.18,9.98c-1.95-8.49-5.39-16.69-10.65-23.68c-8.35-11.31-20.7-19.17-34.01-23.38
	c7.06-0.1,13.96,1.48,20.86,2.77c-10.25-9.39-23.26-15.28-36.61-18.74c-19.42-4.93-39.79-5.46-59.62-3.03
	c-6.84,9.92-7.76,22.6-5.97,34.2c3.34-0.32,6.68-0.62,10.02-0.96c13.08-0.72,26.49,1.27,38.29,7.13
	c16.03,7.9,28.52,22.35,34.72,39.04c-4.11,2.63-8.62,4.54-13.03,6.6c-10.5,1.6-21.21,2.83-31.77,0.85
	c6.32-8.95,16.07-14.55,25.53-19.61c-26.61-4.43-55.4,2.79-75.8,20.71c3.77-9.28,4.64-19.71,1.68-29.35
	c-9.07,12.89-20.88,24.4-35.76,30.25c-13.63,5.7-28.89,5.92-43.2,2.95c-0.52-0.21-1.57-0.63-2.09-0.85
	c5.99,12.93,16.59,23.18,28.44,30.82c14.9,9.52,31.82,15.56,49.1,19.06c-6.11,3-12.87,4.17-19.56,5.01
	c18.28,11.41,39.83,16.86,61.19,18.32c22.88,1.5,45.83-1.57,68.04-6.97c19.67-4.96,38.9-11.76,57.16-20.59
	c-3.83-9.83-3.38-20.67-1.31-30.84c1.1,10.49,6.44,20.05,13.53,27.69c10.76,11.52,24.12,20.34,38.28,27.14
	c-7.04-37.89,0.07-77.16,14.73-112.4c6.88-16.4,15.1-32.33,25.32-46.9c-4.82,1.54-9.88,2.05-14.9,2.5c1.06-1.16,2.17-2.28,3.11-3.55
	c4.72-3.86,7.77-9.53,9.21-15.39c0.93-2.53-1.46-4.41-2.8-6.21C448.332,327.524,434.292,322.784,420.752,321.014 M467.342,369.024
	l1.53,0.54c-0.46,0.07-1.36,0.2-1.81,0.26c-1.24,0.79-2.48,1.57-3.71,2.37c9.81,4.74,21,1.55,31.08-0.61
	c-9.02,10.21-24.05,10.42-36.59,9.29c-3.73,13.64-0.9,28.08,3.73,41.14c8.57-1.32,17.63-3.28,24.59-8.7
	c2.13-0.88,4.18-1.98,5.97-3.43c13.13-10.16,22.24-24.91,27.04-40.68c-6.38-4.64-13.74-8.26-21.69-8.95
	C486.742,359.104,476.082,362.984,467.342,369.024 M525.182,375.184l-0.14-0.04c-0.7,8.35-1.16,16.81,0.38,25.1
	c-3.19-3.31-6.22-6.97-7.36-11.53c-6.57,13-16.93,24.16-29.54,31.49c18.05,0.84,32.06,14.52,42.25,28.22
	c0.25-7.79-1.92-15.41-5.36-22.34c5.72,1.2,11.15,3.64,15.75,7.26c11.58,9.03,19.15,22.04,25.23,35.17
	c3.93-17.71,0.49-36.69-8.06-52.57c9.32,1.33,17.43,6.47,24.98,11.78l0.18,0.51c0.33,0.12,0.99,0.35,1.31,0.47
	c-2.02-11.07-6.38-21.78-13.28-30.71c-11.28-14.73-27.97-24.69-45.68-29.66C525.612,370.614,525.392,372.894,525.182,375.184
	 M215.192,400.814c0.89,1.74,1.83,3.46,2.85,5.15c1.08,0.45,2.16,0.91,3.25,1.38c-0.35,7.08,1.34,14.01,3.17,20.79
	c13.19-6.42,27.95-8.93,42.5-9.56c2.19-2.49,3.9-5.34,5.18-8.38c-6.68-6.28-15.94-8.78-24.76-10.2
	C236.712,398.574,225.762,398.664,215.192,400.814 M436.082,431.164c-0.96,3.09-1.91,6.2-2.84,9.31c-7.11,27-9.82,55.99-2.43,83.24
	c0.33-4.07,0.56-8.15,0.83-12.22c23.77,0.01,47.54-0.01,71.3,0.01c9.65,19.28,19.31,38.56,28.98,57.83
	c1.25-19.28,2.48-38.56,3.72-57.84c39.06-0.01,78.12,0.03,117.19-0.02c-4.37-3.46-9.15-6.33-14.2-8.63
	c-0.44-0.1-1.32-0.28-1.75-0.38l1.43-0.45c-10.6-5.99-21.97-10.52-33.58-14.15c-19.67-6.1-40.09-9.73-60.62-11.22
	c4.56-4.01,8.08-9.12,9.57-15.05c-6.68,1.33-13.44,2.54-20.28,2.24c-19.93-0.5-38.89-9.21-54.26-21.55
	c-0.58,8.4,4.37,15.63,9.56,21.72c-7.94-0.98-15.85-2.69-23.21-5.89C452.972,452.854,442.202,443.354,436.082,431.164
	 M585.372,452.124c-0.05,4.25-0.26,8.49-0.62,12.73c7.57,1.51,15.05,3.47,22.48,5.59
	C599.992,464.284,592.682,458.204,585.372,452.124 M403.242,516.854c2.75,8.16,5.09,16.48,8.06,24.57c4.6,5.88,11.1,10,17.53,13.65
	c0.52-8.16,1.1-16.32,1.54-24.48C421.032,526.634,411.882,522.184,403.242,516.854 M45.682,566.384
	c-11.96,15.97-18.14,35.93-18.3,55.82c-0.13,19.89,7.25,39.68,20.19,54.76c10.67,12.55,25.28,21.7,41.27,25.67
	c16.29,4,33.74,3.27,49.65-2.02c-0.04,1.4-0.07,2.81-0.1,4.23c13.62-0.03,27.24-0.02,40.86-0.01c2.17-32.99,4.21-66,6.41-98.99
	c-16.05-0.01-32.1-0.04-48.15,0.01c-14.3,13.59-28.76,27.01-43.04,40.61c15.85,0.11,31.71-0.07,47.57,0.1
	c-0.79,3.39,1.07,8.57-2.82,10.41c-13.18,7.99-30.13,10.11-44.4,3.76c-12.3-5.11-21.87-16.19-25.04-29.14
	c-3.36-13.57-1.3-28.71,6.73-40.3c9.03-13.02,24.22-21.43,39.96-22.68c13.27-0.94,26.41,4.6,35.85,13.8
	c10.2-9.72,20.56-19.29,30.77-29c-13.67-15.18-33.56-24-53.77-25.63C97.302,525.144,64.832,540.824,45.682,566.384 M388.862,528.904
	c-23.1,50.95-45.76,102.09-68.9,153.02c-6.32-12.53-12.94-24.9-19.13-37.49c13.31-7.74,23.84-20.12,29.36-34.49
	c5.13-13.49,5.71-28.8,0.94-42.48c-4.44-13.02-13.8-24.16-25.68-31.03c-4,0.71-8.01,1.33-11.94,2.35
	c-17.09,1.88-34.4,3.37-51.6,1.64c-9.54-0.61-18.83-2.91-28.2-4.56c-4.25-1.72-8.68-2.95-13-4.45
	c-3.8,57.91-7.36,115.83-11.13,173.74c13.56,0.02,27.12,0.01,40.68,0c1.09-17.22,2.18-34.45,3.32-51.67
	c8.24,0.01,16.49,0.05,24.73-0.02c8.93,17.15,17.76,34.36,26.48,51.61c22.49,0.2,44.98,0.05,67.47,0.08
	c4.96-11.09,9.93-22.17,14.89-33.26c5-10.7,9.33-21.74,14.76-32.22c7.1,21.78,14.02,43.61,20.95,65.44c24.8,0.1,49.6,0.04,74.4,0.04
	c2.17-34.1,4.35-68.21,6.59-102.3c17.3,34.02,34.23,68.23,51.42,102.32c15.33-0.03,30.66,0.01,45.99-0.02
	c3.71-58.78,7.62-117.54,11.33-176.31c-13.56-0.04-27.11,0.02-40.67-0.04c-2.43,35.09-4.48,70.21-6.83,105.31
	c-17.72-35.02-35.18-70.18-52.79-105.26c-14.79-0.08-29.58,0.03-44.37-0.06c-3.53,50.59-6.3,101.24-9.89,151.82
	c-3.53-8.52-5.76-17.5-8.77-26.2C415.772,612.584,402.542,570.664,388.862,528.904 M591.582,705.154c13.56,0.02,27.12,0.02,40.68,0
	c3.71-58.78,7.62-117.54,11.33-176.31c-13.55-0.05-27.1,0.04-40.65-0.05C598.942,587.564,595.452,646.374,591.582,705.154
	 M651.262,569.484c2.32,0,4.64,0.01,6.96,0.02c-2.85,45.22-5.71,90.43-8.64,135.65c13.56,0.01,27.12,0.02,40.68,0
	c2.86-45.22,5.83-90.43,8.74-135.64c19.77-0.05,39.54,0,59.32-0.02c0.88-13.55,1.76-27.1,2.6-40.66
	c-35.65-0.05-71.31,0.07-106.96-0.05C652.872,542.334,652.152,555.914,651.262,569.484 M423.742,580.594
	c0.94,2.94,1.88,5.89,2.87,8.83c0.32-4.35,0.58-8.7,0.86-13.04C426.222,577.774,424.982,579.174,423.742,580.594z"/>
<path class="st2" d="M330.422,112.934c12.34,13.23,24.41,26.71,36.68,40.01c23.86-11.79,47.8-23.44,71.64-35.29
	c11.24,25.07,22.17,50.28,33.21,75.44c25.64-7.67,51.25-15.47,76.86-23.29c7.14,25.24,13.82,50.61,20.89,75.86
	c17.59,0.96,35.17,2.01,52.75,3c-8.37,12.48-16.86,24.88-25.24,37.36c-7.03,0.58-14.08,0.84-21.08,1.57
	c0.39,9.17,1.22,18.35,1.11,27.52c-2.61,4.85-6.15,9.15-9.1,13.81c-2.25,2.98-3.84,6.51-6.53,9.1c-2.39-1.18-4.53-2.78-6.75-4.24
	c5-6.8,10.21-13.55,14.47-20.82c0.32-11.01-1.25-22.07-1.56-33.1c8.41-0.4,16.83-0.63,25.24-1.01c5.19-7.67,10.56-15.23,15.61-23.01
	c-15.03-1.03-30.06-2.03-45.09-2.97c-6.9-24.51-13.34-49.15-20.14-73.69c-25.51,7.63-50.85,15.83-76.45,23.14
	c-10.48-24.85-21.24-49.58-31.8-74.4c-23.67,11.21-47.12,22.87-70.72,34.23c-10.13-11.39-20.14-22.88-30.31-34.24
	c-2.64,8.72-5.12,17.48-7.68,26.22c5.94,7.17,12.02,14.21,17.97,21.36c-9.51,6.11-19.02,12.2-28.56,18.25
	c-2.04,8.54-3.81,17.15-5.76,25.72c-2.69-0.66-5.36-1.38-8.03-2.1c2.08-8.11,4.42-16.15,6.49-24.26c0.6-1.83,0.81-4.14,2.7-5.15
	c7.23-4.77,14.46-9.52,21.71-14.26c-4.72-5.86-9.61-11.58-14.37-17.4C322.562,141.844,326.402,127.364,330.422,112.934z"/>
<path class="st0" d="M364.422,162.154c23.6-11.36,47.05-23.02,70.72-34.23c10.56,24.82,21.32,49.55,31.8,74.4
	c25.6-7.31,50.94-15.51,76.45-23.14c6.8,24.54,13.24,49.18,20.14,73.69c15.03,0.94,30.06,1.94,45.09,2.97
	c-5.05,7.78-10.42,15.34-15.61,23.01c-8.41,0.38-16.83,0.61-25.24,1.01c0.31,11.03,1.88,22.09,1.56,33.1
	c-4.26,7.27-9.47,14.02-14.47,20.82c-29.82-18.92-60.93-35.74-92.53-51.48c-49.25-24.36-100.08-45.58-152.25-62.84
	c1.95-8.57,3.72-17.18,5.76-25.72c9.54-6.05,19.05-12.14,28.56-18.25c-5.95-7.15-12.03-14.19-17.97-21.36
	c2.56-8.74,5.04-17.5,7.68-26.22C344.282,139.274,354.292,150.764,364.422,162.154 M375.902,187.464
	c4.4,11.75,8.82,23.49,13.25,35.24c12.87-6.12,25.75-12.21,38.62-18.33c-4.62-11.64-9.2-23.3-13.83-34.94
	C401.262,175.444,388.592,181.464,375.902,187.464 M482.472,233.684c3.83,14.38,7.7,28.75,11.55,43.13
	c11.65-3.86,23.3-7.7,34.95-11.55c-2.25-14.85-4.51-29.69-6.76-44.53C508.962,225.044,495.722,229.384,482.472,233.684z"/>
<path class="st1" d="M375.902,187.464c12.69-6,25.36-12.02,38.04-18.03c4.63,11.64,9.21,23.3,13.83,34.94
	c-12.87,6.12-25.75,12.21-38.62,18.33C384.722,210.954,380.302,199.214,375.902,187.464z"/>
<path class="st1" d="M482.472,233.684c13.25-4.3,26.49-8.64,39.74-12.95c2.25,14.84,4.51,29.68,6.76,44.53
	c-11.65,3.85-23.3,7.69-34.95,11.55C490.172,262.434,486.302,248.064,482.472,233.684z"/>
<path class="st0" d="M299.572,226.324c69.53,22.61,136.87,51.84,201.14,86.66c18.99,10.39,37.81,21.13,56,32.87
	c-3.46,5.04-6.87,10.12-10.31,15.19c-27.46-17.82-56.15-33.68-85.28-48.58c-53.54-27.18-109.1-50.44-166.23-68.95
	C296.462,237.784,298.002,232.054,299.572,226.324z"/>
<path class="st3" d="M294.802,257.754c6.73,6.36,15.3,10.78,24.47,12.22c7.63,1.46,15.61-0.56,23.08,2.01
	c9.62,2.75,17.12,10.41,21.31,19.32c-9.45-5.46-20.35-8.35-31.27-8.11c-9.55,0.25-19.74-1.44-27.33-7.63
	C299.522,271.194,296.092,264.624,294.802,257.754z"/>
<path class="st4" d="M274.482,293.164c2.74-3.68,7.34-5.56,11.85-5.61c8.81-0.22,18.32,1.55,24.97,7.75
	c7.87,7.3,11.15,17.96,17.95,26.1c3.8,5.02,9.14,8.44,14.4,11.73c-0.85,0.09-2.57,0.27-3.42,0.36c-9.62-1.58-18.06-7.91-22.81-16.33
	c-3.49-6.25-6.9-12.81-12.53-17.43c-5.76-5.04-14.11-5.88-21.33-4.22c-4.25,1.05-5.77,5.67-5.79,9.59
	c-0.3,8.5-3.22,16.67-7.27,24.08c-4.99-0.12-9.99-0.11-14.98-0.02c-3.18,6.91-4.32,14.53-4.08,22.1c-2.26-0.05-4.51-0.09-6.76-0.15
	c-0.23-10.08,1.35-20.48,6.56-29.27c4.8-0.07,9.6,0.03,14.38,0.45c2.27-4.77,4.49-9.75,4.76-15.11
	C270.612,302.294,271.352,297.114,274.482,293.164z"/>
<path class="st3" d="M277.772,305.104c0.02-3.92,1.54-8.54,5.79-9.59c7.22-1.66,15.57-0.82,21.33,4.22
	c5.63,4.62,9.04,11.18,12.53,17.43c4.75,8.42,13.19,14.75,22.81,16.33c3.4,0.45,6.9,0.18,10.07,1.86
	c-6.3-5.2-12.06-12.08-12.64-20.58c10.41-0.95,20.83,2.15,29.6,7.68c2.65-4.43,4.94-9.1,6.31-14.09c0.21-0.74,0.63-2.23,0.85-2.98
	c10.76,1.63,22.15,4.81,29.78,13.06c2.83,2.77,3.32,6.85,3.81,10.58c0.68,5.91,1.5,11.88,0.84,17.84
	c-0.71-4.67-2.92-8.91-5.78-12.61c-3.56,17.84-12.44,35.37-27.45,46.19c-11.59,8.49-26.3,11.7-40.49,11.12
	c-4.15-12.35-13.92-22.56-26.12-27.18c-0.57-5.14-0.47-10.36,0.73-15.4c3.3,3.83,6.95,7.46,11.57,9.66
	c-2.72-3.91-5.46-7.87-7.11-12.37c-1.61-3.93-1.91-8.61-5.17-11.67c-5.12-5.09-12.62-6.4-19.52-7.13
	c6.24,2.89,12.39,6.51,16.48,12.2c-2.72,6.74-4.78,14.02-3.85,21.35c-16.03-6.61-33.46-9.2-50.7-9.76
	c-0.24-7.57,0.9-15.19,4.08-22.1c4.99-0.09,9.99-0.1,14.98,0.02C274.552,321.774,277.472,313.604,277.772,305.104z"/>
<path class="st4" d="M373.572,308.364c0.67-3.2,1.13-6.44,1.49-9.69c13.62,1.79,28.43,6.31,36.67,18.13
	c3.55,4.05,1.7,9.62,1.44,14.42c-0.87,5.85-1.08,12.21-4.46,17.28c0.04-0.41,0.1-1.23,0.14-1.64c0.66-5.96-0.16-11.93-0.84-17.84
	c-0.49-3.73-0.98-7.81-3.81-10.58c-7.63-8.25-19.02-11.43-29.78-13.06C374.202,306.134,373.782,307.624,373.572,308.364z"/>
<path class="st4" d="M420.752,321.014c13.54,1.77,27.58,6.51,36.93,16.93c1.34,1.8,3.73,3.68,2.8,6.21
	c-1.44,5.86-4.49,11.53-9.21,15.39c1.37-6.08,3.85-13.94-1.29-18.93c-7.67-7.97-19.07-10.52-29.65-11.82
	C420.472,326.194,420.612,323.604,420.752,321.014z"/>
<path class="st3" d="M420.332,328.794c10.58,1.3,21.98,3.85,29.65,11.82c5.14,4.99,2.66,12.85,1.29,18.93
	c-0.94,1.27-2.05,2.39-3.11,3.55c5.02-0.45,10.08-0.96,14.9-2.5c-10.22,14.57-18.44,30.5-25.32,46.9
	c-14.66,35.24-21.77,74.51-14.73,112.4c-14.16-6.8-27.52-15.62-38.28-27.14c-7.09-7.64-12.43-17.2-13.53-27.69
	c-2.07,10.17-2.52,21.01,1.31,30.84c-18.26,8.83-37.49,15.63-57.16,20.59c-22.21,5.4-45.16,8.47-68.04,6.97
	c-21.36-1.46-42.91-6.91-61.19-18.32c6.69-0.84,13.45-2.01,19.56-5.01c-17.28-3.5-34.2-9.54-49.1-19.06
	c-11.85-7.64-22.45-17.89-28.44-30.82c0.52,0.22,1.57,0.64,2.09,0.85c16.61,6.9,36.04,6.48,52.48-0.73
	c7.47-3.2,14.16-7.91,20.39-13.07c-2.14,8.98-4.64,18.01-9.34,26.04c11.75-8.11,23.89-15.71,36.7-22.03
	c9.08-4.39,18.64-8.41,28.87-8.73c-5.34,5.36-10.34,11.31-12.77,18.61c14.45,1.13,29.72,0.49,42.99-5.89
	c4.41-2.06,8.92-3.97,13.03-6.6c-6.2-16.69-18.69-31.14-34.72-39.04c-11.8-5.86-25.21-7.85-38.29-7.13
	c-0.89,0.03-2.67,0.09-3.57,0.12c-0.17-8.77-0.57-18.27,3.89-26.16c3.4-0.88,6.96-0.79,10.45-0.91c17.93-0.38,36.27,0.86,53.2,7.24
	c-4.68,1.63-9.26,3.57-13.46,6.22c14.36,3.5,28.77,8.57,40.43,17.92c4.12,3.21,7.4,7.31,10.31,11.62
	c-5.25-0.34-10.53-0.2-15.72,0.74c9.68,9.71,18.75,20.4,24.08,33.19c0.98,2.79,1.1,5.8,1.38,8.73c13.93-5.84,26.7-15.25,34.95-28.06
	c4.78-7.34,7.66-15.79,8.83-24.45c-9.87,2.07-20.35,2.43-29.98-0.93c14.98-4.82,29.43-12.86,39.24-25.43
	c4.86-5.97,8.13-13.02,10.47-20.31c1.78,5.86,2.61,12,2.15,18.12C414.452,357.914,418.902,343.424,420.332,328.794z"/>
<path class="st4" d="M225.522,359.294c19.83-2.43,40.2-1.9,59.62,3.03c13.35,3.46,26.36,9.35,36.61,18.74
	c-6.9-1.29-13.8-2.87-20.86-2.77c13.31,4.21,25.66,12.07,34.01,23.38c5.26,6.99,8.7,15.19,10.65,23.68
	c-5.57-4.12-11.36-8.24-18.18-9.98c4.98,8.46,10.87,17.13,11.81,27.14c-5.33-12.79-14.4-23.48-24.08-33.19
	c5.19-0.94,10.47-1.08,15.72-0.74c-2.91-4.31-6.19-8.41-10.31-11.62c-11.66-9.35-26.07-14.42-40.43-17.92
	c4.2-2.65,8.78-4.59,13.46-6.22c-16.93-6.38-35.27-7.62-53.2-7.24c-3.49,0.12-7.05,0.03-10.45,0.91
	c-4.46,7.89-4.06,17.39-3.89,26.16c0.9-0.03,2.68-0.09,3.57-0.12c-3.34,0.34-6.68,0.64-10.02,0.96
	C217.762,381.894,218.682,369.214,225.522,359.294z"/>
<path class="st4" d="M467.342,369.024c8.74-6.04,19.4-9.92,30.14-8.77c7.95,0.69,15.31,4.31,21.69,8.95
	c-4.8,15.77-13.91,30.52-27.04,40.68c-1.79,1.45-3.84,2.55-5.97,3.43c10.46-12.21,18.19-26.48,24.35-41.27
	c-7.4-4.69-16.35-6.1-24.97-5.32c-5.67,0.25-11.09,2.04-16.67,2.84L467.342,369.024z"/>
<path class="st3" d="M468.872,369.564c5.58-0.8,11-2.59,16.67-2.84c8.62-0.78,17.57,0.63,24.97,5.32
	c-6.16,14.79-13.89,29.06-24.35,41.27c-6.96,5.42-16.02,7.38-24.59,8.7c-4.63-13.06-7.46-27.5-3.73-41.14
	c12.54,1.13,27.57,0.92,36.59-9.29c-10.08,2.16-21.27,5.35-31.08,0.61c1.23-0.8,2.47-1.58,3.71-2.37
	C467.512,369.764,468.412,369.634,468.872,369.564z"/>
<path class="st4" d="M525.182,375.184c0.21-2.29,0.43-4.57,0.66-6.85c17.71,4.97,34.4,14.93,45.68,29.66
	c6.9,8.93,11.26,19.64,13.28,30.71c-0.32-0.12-0.98-0.35-1.31-0.47l-0.18-0.51c-2.03-5.93-5.92-10.95-9.34-16.13
	C562.072,394.854,545.482,380.274,525.182,375.184z"/>
<path class="st3" d="M525.042,375.144l0.14,0.04c20.3,5.09,36.89,19.67,48.79,36.41c3.42,5.18,7.31,10.2,9.34,16.13
	c-7.55-5.31-15.66-10.45-24.98-11.78c8.55,15.88,11.99,34.86,8.06,52.57c-6.08-13.13-13.65-26.14-25.23-35.17
	c-4.6-3.62-10.03-6.06-15.75-7.26c3.44,6.93,5.61,14.55,5.36,22.34c-10.19-13.7-24.2-27.38-42.25-28.22
	c12.61-7.33,22.97-18.49,29.54-31.49c1.14,4.56,4.17,8.22,7.36,11.53C523.882,391.954,524.342,383.494,525.042,375.144z"/>
<path class="st4" d="M215.192,400.814c10.57-2.15,21.52-2.24,32.19-0.82c8.82,1.42,18.08,3.92,24.76,10.2
	c-5.34-1.26-10.57-3.02-16.01-3.82c-12.6-1.92-25.44-1.76-38.09-0.41C217.022,404.274,216.082,402.554,215.192,400.814z"/>
<path class="st3" d="M218.042,405.964c12.65-1.35,25.49-1.51,38.09,0.41c5.44,0.8,10.67,2.56,16.01,3.82
	c-1.28,3.04-2.99,5.89-5.18,8.38c-14.55,0.63-29.31,3.14-42.5,9.56c-1.83-6.78-3.52-13.71-3.17-20.79
	C220.202,406.874,219.122,406.414,218.042,405.964z"/>
<path class="st4" d="M173.432,448.154c14.88-5.85,26.69-17.36,35.76-30.25c2.96,9.64,2.09,20.07-1.68,29.35
	c20.4-17.92,49.19-25.14,75.8-20.71c-9.46,5.06-19.21,10.66-25.53,19.61c10.56,1.98,21.27,0.75,31.77-0.85
	c-13.27,6.38-28.54,7.02-42.99,5.89c2.43-7.3,7.43-13.25,12.77-18.61c-10.23,0.32-19.79,4.34-28.87,8.73
	c-12.81,6.32-24.95,13.92-36.7,22.03c4.7-8.03,7.2-17.06,9.34-26.04c-6.23,5.16-12.92,9.87-20.39,13.07
	c-16.44,7.21-35.87,7.63-52.48,0.73C144.542,454.074,159.802,453.854,173.432,448.154z"/>
<path class="st4" d="M436.082,431.164c6.12,12.19,16.89,21.69,29.41,26.95c7.36,3.2,15.27,4.91,23.21,5.89
	c-5.19-6.09-10.14-13.32-9.56-21.72c15.37,12.34,34.33,21.05,54.26,21.55c6.84,0.3,13.6-0.91,20.28-2.24
	c-1.49,5.93-5.01,11.04-9.57,15.05c20.53,1.49,40.95,5.12,60.62,11.22c11.61,3.63,22.98,8.16,33.58,14.15l-1.43,0.45
	c-5.73-1.25-11.12-3.65-16.81-5.07c-30.73-8.58-62.29-13.83-93.91-17.82c4.5-2.12,8.69-4.86,12.35-8.24
	c-8.84-0.44-17.71-1.36-26.23-3.85c-5.9-1.52-11.35-4.25-17.02-6.37c2.95,4.76,8,7.36,12.85,9.78c-16.45,1.5-33.52-0.62-48.4-8.1
	c-10.45-5.16-19.67-12.83-26.47-22.32C434.172,437.364,435.122,434.254,436.082,431.164z"/>
<path class="st3" d="M430.812,523.714c-7.39-27.25-4.68-56.24,2.43-83.24c6.8,9.49,16.02,17.16,26.47,22.32
	c14.88,7.48,31.95,9.6,48.4,8.1c-4.85-2.42-9.9-5.02-12.85-9.78c5.67,2.12,11.12,4.85,17.02,6.37c8.52,2.49,17.39,3.41,26.23,3.85
	c-3.66,3.38-7.85,6.12-12.35,8.24c31.62,3.99,63.18,9.24,93.91,17.82c5.69,1.42,11.08,3.82,16.81,5.07c0.43,0.1,1.31,0.28,1.75,0.38
	c5.05,2.3,9.83,5.17,14.2,8.63c-39.07,0.05-78.13,0.01-117.19,0.02c-1.24,19.28-2.47,38.56-3.72,57.84
	c-9.67-19.27-19.33-38.55-28.98-57.83c-23.76-0.02-47.53,0-71.3-0.01C431.372,515.564,431.142,519.644,430.812,523.714z"/>
<path class="st0" d="M585.372,452.124c7.31,6.08,14.62,12.16,21.86,18.32c-7.43-2.12-14.91-4.08-22.48-5.59
	C585.112,460.614,585.322,456.374,585.372,452.124z"/>
<path class="st3" d="M403.242,516.854c8.64,5.33,17.79,9.78,27.13,13.74c-0.44,8.16-1.02,16.32-1.54,24.48
	c-6.43-3.65-12.93-7.77-17.53-13.65C408.332,533.334,405.992,525.014,403.242,516.854z"/>
<path class="st2" d="M45.682,566.384c19.15-25.56,51.62-41.24,83.64-38.6c20.21,1.63,40.1,10.45,53.77,25.63
	c-10.21,9.71-20.57,19.28-30.77,29c-9.44-9.2-22.58-14.74-35.85-13.8c-15.74,1.25-30.93,9.66-39.96,22.68
	c-8.03,11.59-10.09,26.73-6.73,40.3c3.17,12.95,12.74,24.03,25.04,29.14c14.27,6.35,31.22,4.23,44.4-3.76
	c3.89-1.84,2.03-7.02,2.82-10.41c-15.86-0.17-31.72,0.01-47.57-0.1c14.28-13.6,28.74-27.02,43.04-40.61
	c16.05-0.05,32.1-0.02,48.15-0.01c-2.2,32.99-4.24,66-6.41,98.99c-13.62-0.01-27.24-0.02-40.86,0.01c0.03-1.42,0.06-2.83,0.1-4.23
	c-15.91,5.29-33.36,6.02-49.65,2.02c-15.99-3.97-30.6-13.12-41.27-25.67c-12.94-15.08-20.32-34.87-20.19-54.76
	C27.542,602.314,33.722,582.354,45.682,566.384 M102.432,537.284c-20.58,5.23-39.52,17.54-51.86,34.92
	c-9.27,12.91-14.39,28.5-15.63,44.28c8.63,0.03,17.27,0.02,25.91,0c0.55-9.17,2.78-18.36,7.56-26.28
	c9.77-16.44,28.03-27.12,46.92-28.88c13.21-1.19,26.27,3.43,36.93,11.04c6.69-6.44,13.53-12.72,20.26-19.12
	C153.712,536.704,126.512,531.104,102.432,537.284 M140.462,613.164c-1.07,1.09-2.15,2.15-3.21,3.26
	c13.45,0.14,26.9,0.07,40.35,0.05c0.05-0.83,0.13-2.48,0.18-3.31C165.342,613.154,152.902,613.164,140.462,613.164z"/>
<path class="st2" d="M388.862,528.904c13.68,41.76,26.91,83.68,40.41,125.51c3.01,8.7,5.24,17.68,8.77,26.2
	c3.59-50.58,6.36-101.23,9.89-151.82c14.79,0.09,29.58-0.02,44.37,0.06c17.61,35.08,35.07,70.24,52.79,105.26
	c2.35-35.1,4.4-70.22,6.83-105.31c13.56,0.06,27.11,0,40.67,0.04c-3.71,58.77-7.62,117.53-11.33,176.31
	c-15.33,0.03-30.66-0.01-45.99,0.02c-17.19-34.09-34.12-68.3-51.42-102.32c-2.24,34.09-4.42,68.2-6.59,102.3
	c-24.8,0-49.6,0.06-74.4-0.04c-6.93-21.83-13.85-43.66-20.95-65.44c-5.43,10.48-9.76,21.52-14.76,32.22
	c-4.96,11.09-9.93,22.17-14.89,33.26c-22.49-0.03-44.98,0.12-67.47-0.08c-8.72-17.25-17.55-34.46-26.48-51.61
	c-8.24,0.07-16.49,0.03-24.73,0.02c-1.14,17.22-2.23,34.45-3.32,51.67c-13.56,0.01-27.12,0.02-40.68,0
	c3.77-57.91,7.33-115.83,11.13-173.74c4.32,1.5,8.75,2.73,13,4.45c-2,0.08-3.99,0.26-5.98,0.43c-1.63,26.73-3.42,53.44-5.1,80.17
	c8.64,0.06,17.28,0.04,25.92,0.02c1.31-18.11,2.24-36.25,3.6-54.36c13.45,0.11,26.9-0.02,40.34,0.05
	c9.43,0.09,19.31,4.35,24.33,12.63c5.23,8.8,4.82,20.23,0.52,29.32c-2.36,5.2-6.89,8.85-11.27,12.3c9.45,0.17,18.91,0,28.36,0.14
	c1.96-0.14,4.67,0.35,5.52-1.98c7.85-14.25,9.5-32.1,3.25-47.25c-5.19-13.29-16.58-23.35-29.69-28.55
	c3.93-1.02,7.94-1.64,11.94-2.35c11.88,6.87,21.24,18.01,25.68,31.03c4.77,13.68,4.19,28.99-0.94,42.48
	c-5.52,14.37-16.05,26.75-29.36,34.49c6.19,12.59,12.81,24.96,19.13,37.49C343.102,630.994,365.762,579.854,388.862,528.904
	 M454.752,536.204c-1.67,26.74-3.41,53.48-5.14,80.23c8.65,0.13,17.31,0.05,25.96,0.04c1.15-13.52,1.28-27.16,2.97-40.62
	c7.05,13.48,13.52,27.26,20.62,40.71c9.57-0.16,19.13,0.01,28.7-0.1c-13.3-26.83-26.76-53.58-40.22-80.33
	C476.672,536.224,465.712,536.094,454.752,536.204 M558.752,536.204c-1.67,26.75-3.41,53.49-5.14,80.23
	c8.66,0.12,17.31,0.06,25.97,0.04c1.73-26.77,3.46-53.53,5.15-80.3C576.062,536.174,567.402,536.114,558.752,536.204
	 M379.962,566.564c-7.41,16.66-15.08,33.21-22.34,49.93c17.24-0.07,34.49,0.16,51.73-0.11c-7.22-22.26-14.28-44.57-21.53-66.82
	C384.902,555.094,382.592,560.904,379.962,566.564 M238.982,569.534c-0.82,14.45-2.02,28.88-2.63,43.34
	c8.69-0.09,17.38-0.04,26.06-0.04c5.05-0.03,10.24,0.35,15.12-1.24c5.2-1.56,10.01-4.9,12.68-9.71c5.01-9.2,4.41-23.24-5.51-28.94
	c-4.27-2.6-9.34-3.56-14.29-3.47C259.942,569.534,249.462,569.444,238.982,569.534z"/>
<path class="st2" d="M591.582,705.154c3.87-58.78,7.36-117.59,11.36-176.36c13.55,0.09,27.1,0,40.65,0.05
	c-3.71,58.77-7.62,117.53-11.33,176.31C618.702,705.174,605.142,705.174,591.582,705.154 M609.732,536.234
	c-1.63,26.73-3.4,53.46-5.12,80.19c8.65,0.15,17.3,0.06,25.96,0.06c1.76-26.77,3.46-53.54,5.16-80.31
	C627.062,536.184,618.392,536.084,609.732,536.234z"/>
<path class="st2" d="M651.262,569.484c0.89-13.57,1.61-27.15,2.7-40.7c35.65,0.12,71.31,0,106.96,0.05
	c-0.84,13.56-1.72,27.11-2.6,40.66c-19.78,0.02-39.55-0.03-59.32,0.02c-2.91,45.21-5.88,90.42-8.74,135.64
	c-13.56,0.02-27.12,0.01-40.68,0c2.93-45.22,5.79-90.43,8.64-135.65C655.902,569.494,653.582,569.484,651.262,569.484
	 M660.742,536.214c-0.49,8.65-1.11,17.29-1.62,25.94c2.31,0,4.63,0,6.96,0.01c-1.12,18.08-2.27,36.16-3.49,54.23
	c8.66,0.21,17.32,0.07,25.99,0.09c1.15-18.07,2.4-36.13,3.42-54.2c19.79-0.28,39.59-0.04,59.39-0.12c0.58-8.67,1.15-17.34,1.66-26
	C722.282,536.194,691.512,536.094,660.742,536.214z"/>
<path class="st0" d="M102.432,537.284c24.08-6.18,51.28-0.58,70.09,15.96c-6.73,6.4-13.57,12.68-20.26,19.12
	c-10.66-7.61-23.72-12.23-36.93-11.04c-18.89,1.76-37.15,12.44-46.92,28.88c-4.78,7.92-7.01,17.11-7.56,26.28
	c-8.64,0.02-17.28,0.03-25.91,0c1.24-15.78,6.36-31.37,15.63-44.28C62.912,554.824,81.852,542.514,102.432,537.284z"/>
<path class="st0" d="M207.732,536.294c1.99-0.17,3.98-0.35,5.98-0.43c9.37,1.65,18.66,3.95,28.2,4.56
	c17.2,1.73,34.51,0.24,51.6-1.64c13.11,5.2,24.5,15.26,29.69,28.55c6.25,15.15,4.6,33-3.25,47.25c-0.85,2.33-3.56,1.84-5.52,1.98
	c-9.45-0.14-18.91,0.03-28.36-0.14c4.38-3.45,8.91-7.1,11.27-12.3c4.3-9.09,4.71-20.52-0.52-29.32
	c-5.02-8.28-14.9-12.54-24.33-12.63c-13.44-0.07-26.89,0.06-40.34-0.05c-1.36,18.11-2.29,36.25-3.6,54.36
	c-8.64,0.02-17.28,0.04-25.92-0.02C204.312,589.734,206.102,563.024,207.732,536.294z"/>
<path class="st0" d="M454.752,536.204c10.96-0.11,21.92,0.02,32.89-0.07c13.46,26.75,26.92,53.5,40.22,80.33
	c-9.57,0.11-19.13-0.06-28.7,0.1c-7.1-13.45-13.57-27.23-20.62-40.71c-1.69,13.46-1.82,27.1-2.97,40.62
	c-8.65,0.01-17.31,0.09-25.96-0.04C451.342,589.684,453.082,562.944,454.752,536.204z"/>
<path class="st0" d="M558.752,536.204c8.65-0.09,17.31-0.03,25.98-0.03c-1.69,26.77-3.42,53.53-5.15,80.3
	c-8.66,0.02-17.31,0.08-25.97-0.04C555.342,589.694,557.082,562.954,558.752,536.204z"/>
<path class="st0" d="M609.732,536.234c8.66-0.15,17.33-0.05,26-0.06c-1.7,26.77-3.4,53.54-5.16,80.31c-8.66,0-17.31,0.09-25.96-0.06
	C606.332,589.694,608.102,562.964,609.732,536.234z"/>
<path class="st0" d="M660.742,536.214c30.77-0.12,61.54-0.02,92.31-0.05c-0.51,8.66-1.08,17.33-1.66,26
	c-19.8,0.08-39.6-0.16-59.39,0.12c-1.02,18.07-2.27,36.13-3.42,54.2c-8.67-0.02-17.33,0.12-25.99-0.09
	c1.22-18.07,2.37-36.15,3.49-54.23c-2.33-0.01-4.65-0.01-6.96-0.01C659.632,553.504,660.252,544.864,660.742,536.214z"/>
<path class="st0" d="M379.962,566.564c2.63-5.66,4.94-11.47,7.86-17c7.25,22.25,14.31,44.56,21.53,66.82
	c-17.24,0.27-34.49,0.04-51.73,0.11C364.882,599.774,372.552,583.224,379.962,566.564z"/>
<path class="st1" d="M238.982,569.534c10.48-0.09,20.96,0,31.43-0.06c4.95-0.09,10.02,0.87,14.29,3.47
	c9.92,5.7,10.52,19.74,5.51,28.94c-2.67,4.81-7.48,8.15-12.68,9.71c-4.88,1.59-10.07,1.21-15.12,1.24c-8.68,0-17.37-0.05-26.06,0.04
	C236.962,598.414,238.162,583.984,238.982,569.534z"/>
<path class="st3" d="M423.742,580.594c1.24-1.42,2.48-2.82,3.73-4.21c-0.28,4.34-0.54,8.69-0.86,13.04
	C425.622,586.484,424.682,583.534,423.742,580.594z"/>
<path class="st0" d="M140.462,613.164c12.44,0,24.88-0.01,37.32,0c-0.05,0.83-0.13,2.48-0.18,3.31c-13.45,0.02-26.9,0.09-40.35-0.05
	C138.312,615.314,139.392,614.254,140.462,613.164z"/>
</svg>
