<?xml version="1.0" encoding="utf-8"?>
<!-- Generator: Adobe Illustrator 22.0.1, SVG Export Plug-In . SVG Version: 6.00 Build 0)  -->
<svg version="1.1" id="Слой_1" xmlns="http://www.w3.org/2000/svg" xmlns:xlink="http://www.w3.org/1999/xlink" x="0px" y="0px"
	 viewBox="0 0 283.5 283.5" style="enable-background:new 0 0 283.5 283.5;" xml:space="preserve">
<style type="text/css">
	.st0{fill:#CE0058;}
	.st1{fill:#FFFFFF;}
	.st2{fill:#00205B;}
	.st3{fill:#003DA5;}
</style>
<g id="Main">
	<path class="st0" d="M262.6,185.7L163.7,14.4c-11.1-19.2-32.9-19.2-44,0L20.8,185.7c-9.5,16.5-6.1,29.3,10.4,38.8l92.2,53.2
		c13.1,7.6,23.4,7.6,36.6,0l92.2-53.2C268.7,215,272.2,202.2,262.6,185.7z"/>
	<path class="st1" d="M257.1,188.9L158.2,17.6c-8.6-14.8-24.4-14.8-32.9,0L26.4,188.9c-7.8,13.6-5.5,22.3,8,30.1l92.2,53.2
		c11.2,6.5,19,6.5,30.2,0l92.2-53.2C262.6,211.2,264.9,202.4,257.1,188.9z"/>
	<g>
		<path class="st2" d="M251.6,192.1L152.7,20.8c-6.1-10.6-15.7-10.6-21.8,0L31.9,192.1c-6,10.4-4.7,15.4,5.7,21.4l92.2,53.2
			c9.2,5.3,14.5,5.3,23.8,0l92.2-53.2C256.2,207.5,257.5,202.4,251.6,192.1z"/>
	</g>
	<g>
		<g>
			<path class="st3" d="M121.4,237.7l-45.9-79.5l-19.7,34.1c-2.4,4.2-1.6,6.5,2.7,9L121.4,237.7z"/>
		</g>
		<g>
			<path class="st3" d="M162.1,237.7l45.9-79.5l19.7,34.1c2.4,4.2,1.6,6.5-2.7,9L162.1,237.7z"/>
		</g>
	</g>
	<g>
		<polygon class="st1" points="73.3,186.5 75.5,178.9 77.7,186.5 83.9,189.1 77.7,191.8 75.5,199.4 73.3,191.8 67.1,189.1 		"/>
		<polygon class="st1" points="210.1,186.5 208,178.9 205.8,186.5 199.6,189.1 205.8,191.8 208,199.4 210.1,191.8 216.4,189.1 		"/>
	</g>
	<polygon class="st0" points="195.7,137.8 167.3,145.4 153.8,168.8 141.7,147.9 129.7,168.8 116.2,145.4 87.7,137.8 129.7,210.5 
		141.7,189.6 141.7,231.3 	"/>
	<g>
		<path class="st1" d="M135.7,56c0.1-1.2,0.3-2.5,0.6-3.6c3.3-1.8,6.6-1.9,9.9-0.2c0-5.5-3-16.2-4.5-16.2c-1.7,0-4.5,5.4-6.1,11
			c-1.5,5.3-2.2,13.5-2.2,19.5v62l8.3,2.2v-26.5l4.5,1.2v-50C142.7,53.7,139.2,53.9,135.7,56z"/>
		<polygon class="st1" points="128.5,66.5 128.5,127.1 98.2,119 104.2,108.6 121.6,91.9 		"/>
		<polygon class="st1" points="185.3,119 179.3,108.6 161.9,91.9 155,66.5 158.4,108.2 163,124.9 		"/>
	</g>
</g>
</svg>
