<?xml version="1.0" encoding="utf-8"?>
<!-- Generator: Adobe Illustrator 21.0.2, SVG Export Plug-In . SVG Version: 6.00 Build 0)  -->
<svg version="1.1" id="Layer_1" xmlns="http://www.w3.org/2000/svg" xmlns:xlink="http://www.w3.org/1999/xlink" x="0px" y="0px"
	 viewBox="0 0 999.15 999.15" style="enable-background:new 0 0 999.15 999.15;" xml:space="preserve">
<style type="text/css">
	.st0{fill:#E00024;}
</style>
<path d="M406.599,372.566c7.299,0.085,14.61,0.109,21.921,0.024c14.075-0.777,28.151,0.328,42.226,0.049
	c0.255,24.605-0.425,49.185-0.291,73.79c0,32.802,0.024,65.605-0.012,98.395c-0.012,9.618,0.765,19.346,3.789,28.54
	c4.287,13.784,13.25,26.341,25.892,33.592c17.5,10.226,38.947,11.732,58.536,7.93c16.346-3.291,31.624-13.007,40.04-27.617
	c6.728-11.319,9.558-24.605,9.594-37.684c0-59.083,0-118.178,0-177.261c21.459,0,42.906-0.024,64.366,0.012
	c0,55.476,0,110.94,0,166.416c-0.121,10.869,0.498,21.787-1.032,32.596c-3.097,24.921-13.42,49.452-31.369,67.329
	c-18.144,17.67-42.554,27.726-67.341,31.6c-21.593,3.376-43.72,3.413-65.325,0.206c-25.928-4.117-51.772-14.537-70.171-33.786
	c-16.274-16.638-25.588-39.032-29.11-61.803c-2.587-15.144-1.81-30.531-1.919-45.809
	C406.526,476.911,406.113,424.726,406.599,372.566z"/>
<g id="_x23_000000ff">
	<path d="M532.85,152.545c33.97-19.69,66.52-41.72,98.43-64.55c-0.75,1.53-1.51,3.05-2.35,4.53
		c-19.29,32.75-41.77,63.63-67.13,91.94c-21.02,23.38-43.86,45.34-69.56,63.54c-19.18,13.41-42.16,22.42-65.8,22.2
		c-8.19-1.01-19.04-2.57-24.46,5.3c23.27,18.46,52.83,27.47,74.52,48.1c4.23,3.81,5.45,9.92,4.57,15.36
		c-1.46,9.27-4.49,18.74-11.1,25.68c-10.24,11.14-25.18,16.5-39.75,19.11c-14.35,2.51-28.6-2.42-41.45-8.4
		c-21.16-9.63-40.95-21.91-60.61-34.24c-25.3-16.64-51.24-34.17-68.77-59.41c-7.22-10.58-13.37-22.26-15.53-35.01
		c-2.61-15.85,2.95-32.16,12.12-45.01c8.9-12.67,22.58-21.21,37.09-26.1c23.83-7.96,49.99-7.13,74.02-0.43
		c25.02,6.94,51.11,11.81,77.15,9.21C475.94,181.445,505.63,168.435,532.85,152.545z"/>
	<path d="M889.49,268.095c38.75-25.57,74.56-55.24,109.66-85.54v1.54c-12.36,27.02-23.82,54.52-38.48,80.41
		c-14.69,26.21-32.62,50.7-53.83,72.02c-26.32,26.09-59.44,44.84-94.71,55.85c-40.15,12.67-83.9,12.56-124.36,1.26
		c-3.7-1.72-7.75-2.42-11.6-3.68c-17.95-5.76-34.77-14.47-51.04-23.87c-21.65-12.53-43.29-26.96-57.25-48.24
		c-7.32-10.36-12.71-23.41-10.03-36.25c2.8-11.91,13.88-19.75,25.05-23.04c18.62-5.3,38.63-4.22,57.19,0.8
		c45.4,15.03,89.02,35.95,136.16,45.38c19.27,3.73,39.6,3.22,58.09-3.76C854.7,293.705,871.91,280.265,889.49,268.095z"/>
	<path d="M430.07,399.055c6.01,0.07,12.03,0.09,18.05,0.02c11.59-0.64,23.18,0.27,34.77,0.04c0.21,20.26-0.35,40.5-0.24,60.76
		c0,27.01,0.02,54.02-0.01,81.02c-0.01,7.92,0.63,15.93,3.12,23.5c3.53,11.35,10.91,21.69,21.32,27.66
		c14.41,8.42,32.07,9.66,48.2,6.53c13.46-2.71,26.04-10.71,32.97-22.74c5.54-9.32,7.87-20.26,7.9-31.03c0-48.65,0-97.31,0-145.96
		c17.67,0,35.33-0.02,53,0.01c0,45.68,0,91.35,0,137.03c-0.1,8.95,0.41,17.94-0.85,26.84c-2.55,20.52-11.05,40.72-25.83,55.44
		c-14.94,14.55-35.04,22.83-55.45,26.02c-17.78,2.78-36,2.81-53.79,0.17c-21.35-3.39-42.63-11.97-57.78-27.82
		c-13.4-13.7-21.07-32.14-23.97-50.89c-2.13-12.47-1.49-25.14-1.58-37.72C430.01,484.975,429.67,442.005,430.07,399.055z"/>
</g>
<g id="_x23_e00024ff">
	<path class="st0" d="M401.98,275.505c5.42-7.87,16.27-6.31,24.46-5.3c2.68,0.36,5.44,0.25,8.04,1.11
		c18.97,6.23,37.62,13.39,56.55,19.75c20.94,7.85,41.69,16.23,62.54,24.34c4.35,1.79,9.13,1.67,13.75,1.77l0.56,0.67
		c13.96,21.28,35.6,35.71,57.25,48.24c16.27,9.4,33.09,18.11,51.04,23.87c3.85,1.26,7.9,1.96,11.6,3.68
		c2.51,2.38,5.03,4.84,6.75,7.88c9.47,16.12,19.37,31.98,28.92,48.04c1.63,3.37,4.79,6.37,5.05,10.18
		c-8.27,52.2-19,103.99-27.4,156.18c-0.64,8.65,0.16,17.33,0.06,25.99c0.54,26.63,0.9,53.27,1.49,79.91
		c0.41,31.62,1.48,63.24,1.64,94.86c-4.57-6.52-8.39-13.52-12.63-20.24c-26.87-43.93-53.55-87.98-80.45-131.89
		c-55.84,71.98-111.5,144.09-167.3,216.1c-8.05,10.2-15.51,20.93-24.3,30.51c-5.91-68.7-11.66-137.41-17.61-206.1
		c-21.75,18.46-43.13,37.38-64.8,55.94c-38.28-34.95-76.46-69.99-114.67-105c-48.16,50.58-96.42,101.06-144.57,151.65
		c-26.02,27.15-51.74,54.61-77.95,81.58c1.78-7.25,4.05-14.36,6.03-21.56c24.64-86.26,49.69-172.41,74.3-258.68
		c1.35-4.79,4.67-8.59,7.53-12.54c25.64-34.99,51.23-70.02,76.82-105.04c4.62-6.46,9.77-12.57,13.62-19.54
		c14.83-27.76,29.93-55.39,44.69-83.19c1.03-1.72,1.98-4.01,4.32-4.1c29.43-6.38,58.89-12.68,88.32-19.04
		c4.11-8.18,7.92-16.51,12.53-24.42c19.66,12.33,39.45,24.61,60.61,34.24c12.85,5.98,27.1,10.91,41.45,8.4
		c14.57-2.61,29.51-7.97,39.75-19.11c6.61-6.94,9.64-16.41,11.1-25.68c0.88-5.44-0.34-11.55-4.57-15.36
		C454.81,302.975,425.25,293.965,401.98,275.505 M430.07,399.055c-0.4,42.95-0.06,85.92-0.17,128.88
		c0.09,12.58-0.55,25.25,1.58,37.72c2.9,18.75,10.57,37.19,23.97,50.89c15.15,15.85,36.43,24.43,57.78,27.82
		c17.79,2.64,36.01,2.61,53.79-0.17c20.41-3.19,40.51-11.47,55.45-26.02c14.78-14.72,23.28-34.92,25.83-55.44
		c1.26-8.9,0.75-17.89,0.85-26.84c0-45.68,0-91.35,0-137.03c-17.67-0.03-35.33-0.01-53-0.01c0,48.65,0,97.31,0,145.96
		c-0.03,10.77-2.36,21.71-7.9,31.03c-6.93,12.03-19.51,20.03-32.97,22.74c-16.13,3.13-33.79,1.89-48.2-6.53
		c-10.41-5.97-17.79-16.31-21.32-27.66c-2.49-7.57-3.13-15.58-3.12-23.5c0.03-27,0.01-54.01,0.01-81.02
		c-0.11-20.26,0.45-40.5,0.24-60.76c-11.59,0.23-23.18-0.68-34.77-0.04C442.1,399.145,436.08,399.125,430.07,399.055z"/>
</g>
</svg>
