<?xml version="1.0" encoding="utf-8"?>
<!-- Generator: Adobe Illustrator 21.0.0, SVG Export Plug-In . SVG Version: 6.00 Build 0)  -->
<svg version="1.1" id="Layer_1" xmlns="http://www.w3.org/2000/svg" xmlns:xlink="http://www.w3.org/1999/xlink" x="0px" y="0px"
	 viewBox="0 0 341 341" style="enable-background:new 0 0 341 341;" xml:space="preserve">
<style type="text/css">
	.st0{fill:#F1923C;}
	.st1{fill:#FFFFFF;}
	.st2{fill:#ED7100;}
	.st3{fill:url(#SVGID_1_);}
</style>
<path class="st0" d="M109.35,4.51c20.38-2.67,40.93-3.91,61.49-3.97c0,3.12,0.03,6.24-0.11,9.36c-20.16,0.04-40.33,4.78-58.23,14.09
	c-32.33,16.49-56.75,47.6-64.92,82.98c-9.75-2.83-19.46-5.83-29.28-8.39c-4.02-22.26-6.02-44.89-6.57-67.5
	C42.58,17.04,75.89,9.15,109.35,4.51z"/>
<path class="st1" d="M112.5,23.99c17.9-9.31,38.07-14.05,58.23-14.09c23.12-0.09,46.23,6.48,65.91,18.62
	c16.25,10.06,30.26,23.75,40.5,39.9c13.59,21.13,20.51,46.45,19.71,71.56c-0.58,23.08-7.78,45.89-20.37,65.23
	c-14.42,22.22-36.03,39.66-60.81,49.04c-14.38,5.51-29.78,8.23-45.18,8.24c-20.18-0.05-40.36-4.91-58.24-14.31
	c-23.13-11.99-42.35-31.35-54.2-54.56c-13.67-26.41-17.34-57.74-10.47-86.65C55.75,71.59,80.17,40.48,112.5,23.99 M154.04,17.69
	c-34.15,4.44-65.77,24.58-84.34,53.56c-14.35,21.94-21.01,48.73-18.79,74.83c2.17,28.51,15.2,55.96,35.73,75.81
	c14.67,14.35,33.08,24.85,52.92,30.08c19.54,5.22,40.4,5.35,60.02,0.48c22.15-5.47,42.65-17.46,58.25-34.12
	c17.06-18.04,28.27-41.54,31.38-66.18c2.89-22.07-0.37-44.96-9.64-65.23c-10.38-22.92-28.2-42.41-50.14-54.75
	C206.8,19.2,179.86,14.14,154.04,17.69z"/>
<path class="st2" d="M154.04,17.69c25.82-3.55,52.76,1.51,75.39,14.48c21.94,12.34,39.76,31.83,50.14,54.75
	c9.27,20.27,12.53,43.16,9.64,65.23c-3.11,24.64-14.32,48.14-31.38,66.18c-15.6,16.66-36.1,28.65-58.25,34.12
	c-19.62,4.87-40.48,4.74-60.02-0.48c-19.84-5.23-38.25-15.73-52.92-30.08c-20.53-19.85-33.56-47.3-35.73-75.81
	c-2.22-26.1,4.44-52.89,18.79-74.83C88.27,42.27,119.89,22.13,154.04,17.69 M158.03,23.75c-22.45,2.41-44.11,11.75-61.19,26.52
	c-20.97,17.79-35,43.54-38.49,70.84c-3.52,26.06,2.44,53.28,16.6,75.45c12.02,19.08,29.88,34.41,50.57,43.39
	c20.32,8.92,43.31,11.52,65.14,7.6c25.19-4.38,48.68-17.74,65.38-37.09c14.53-16.62,23.99-37.61,26.75-59.52
	c2.99-22.68-1.18-46.24-11.77-66.52c-9.98-19.32-25.67-35.64-44.57-46.4C205.92,26.17,181.58,21.15,158.03,23.75z"/>
<path class="st1" d="M158.03,23.75c23.55-2.6,47.89,2.42,68.42,14.27c18.9,10.76,34.59,27.08,44.57,46.4
	c10.59,20.28,14.76,43.84,11.77,66.52c-2.76,21.91-12.22,42.9-26.75,59.52c-16.7,19.35-40.19,32.71-65.38,37.09
	c-21.83,3.92-44.82,1.32-65.14-7.6c-20.69-8.98-38.55-24.31-50.57-43.39c-14.16-22.17-20.12-49.39-16.6-75.45
	c3.49-27.3,17.52-53.05,38.49-70.84C113.92,35.5,135.58,26.16,158.03,23.75 M161.74,54.09c5.95,0.1,11.91,0.04,17.87,0.03
	c-3-5.32-5.93-10.68-8.98-15.97C167.67,43.47,164.66,48.75,161.74,54.09 M158.71,59.47c-2.07,3.45-3.95,7.02-5.9,10.54
	c11.89,0.28,23.83,0.06,35.74,0.11c-2.11-3.53-3.91-7.31-6.27-10.67C174.42,59.48,166.56,59.46,158.71,59.47 M149.87,75.3
	c-2,3.4-3.93,6.84-5.9,10.25c17.78,0.1,35.57,0.06,53.36,0.01c-2.08-3.36-3.59-7.26-6.01-10.29
	C177.5,75.29,163.68,75.22,149.87,75.3 M78.56,91.14c1.69,3.5,3.35,7.02,5.17,10.46c20.29,0.01,40.58-0.02,60.87,0.01
	c-1.52-3.56-3.34-7-5.07-10.46C119.21,91.12,98.88,91.13,78.56,91.14 M201.58,91.14c-1.77,3.46-3.49,6.95-5.12,10.47
	c20.28-0.02,40.57-0.02,60.86,0c1.91-3.39,3.52-6.96,5.22-10.47C242.22,91.13,221.9,91.12,201.58,91.14 M86.37,107.14
	c1.78,3.48,3.26,7.18,5.31,10.47c20.27-0.02,40.54,0,60.81-0.01c-1.66-3.51-3.38-6.99-5.13-10.45
	C127.03,107.11,106.7,107.13,86.37,107.14 M193.58,107.14c-1.79,3.45-3.47,6.95-5.14,10.45c20.27,0.03,40.54-0.03,60.81,0.03
	c2.03-3.33,3.54-6.99,5.29-10.48C234.22,107.14,213.9,107.12,193.58,107.14 M94.21,123.15c1.61,3.49,3.38,6.91,5.05,10.38
	c20.34,0.14,40.69,0.07,61.04,0.03c-1.66-3.48-3.39-6.93-5.09-10.39C134.88,123.09,114.54,123.14,94.21,123.15 M185.86,123.21
	c-1.65,3.47-3.4,6.88-5.05,10.35c20.35,0.06,40.7,0.09,61.04-0.02c1.67-3.47,3.45-6.9,5.06-10.4
	C226.56,123.18,206.2,123.03,185.86,123.21 M94.2,149.24c20.35,0.02,40.7,0.09,61.04-0.04c1.67-3.44,3.39-6.86,5.04-10.31
	c-20.3-0.19-40.63-0.06-60.94-0.06C97.54,142.25,95.88,145.76,94.2,149.24 M180.79,138.81c1.87,3.44,3.2,7.35,5.45,10.49
	c20.21-0.09,40.43,0.02,60.65-0.06c-1.68-3.5-3.3-7.04-5.17-10.43C221.41,138.79,201.1,138.79,180.79,138.81 M91.52,154.82
	c-1.77,3.45-3.46,6.93-5.13,10.42c20.32,0.05,40.65,0.03,60.98,0.01c1.74-3.47,3.46-6.94,5.13-10.44
	C132.17,154.8,111.84,154.78,91.52,154.82 M188.61,155.01c1.66,3.47,3.39,6.9,5.06,10.37c20.35,0.19,40.71,0.05,61.06,0.07
	c-1.69-3.49-3.35-6.99-5.13-10.43C229.27,154.99,208.94,154.99,188.61,155.01 M83.68,170.82c-1.74,3.46-3.42,6.94-5.12,10.41
	c20.32,0.06,40.65,0.06,60.98,0c1.78-3.43,3.45-6.92,5.13-10.4C124.34,170.78,104.01,170.78,83.68,170.82 M196.42,170.81
	c1.7,3.48,3.37,6.98,5.14,10.44c20.33,0.03,40.67,0.02,61,0c-1.72-3.48-3.37-6.99-5.14-10.43
	C237.08,170.78,216.75,170.8,196.42,170.81 M143.76,186.81c1.98,3.43,3.91,6.89,5.94,10.29c13.9,0.06,27.8,0.04,41.7,0.01
	c1.96-3.4,3.88-6.83,5.72-10.29C179.34,186.79,161.55,186.79,143.76,186.81 M152.78,202.51c1.92,3.49,3.88,6.96,5.87,10.41
	c7.93,0.03,15.87,0.02,23.8,0c2.07-3.46,4.12-6.94,6.07-10.46C176.61,202.51,164.69,202.4,152.78,202.51 M161.73,218.52
	c2.89,5.21,5.81,10.42,8.75,15.62c3.49-4.78,6.05-10.48,9.09-15.67C173.62,218.49,167.68,218.4,161.73,218.52z"/>
<path class="st2" d="M161.74,54.09c2.92-5.34,5.93-10.62,8.89-15.94c3.05,5.29,5.98,10.65,8.98,15.97
	C173.65,54.13,167.69,54.19,161.74,54.09z"/>
<path class="st2" d="M158.71,59.47c7.85-0.01,15.71,0.01,23.57-0.02c2.36,3.36,4.16,7.14,6.27,10.67
	c-11.91-0.05-23.85,0.17-35.74-0.11C154.76,66.49,156.64,62.92,158.71,59.47z"/>
<path class="st2" d="M149.87,75.3c13.81-0.08,27.63-0.01,41.45-0.03c2.42,3.03,3.93,6.93,6.01,10.29
	c-17.79,0.05-35.58,0.09-53.36-0.01C145.94,82.14,147.87,78.7,149.87,75.3z"/>
<path class="st2" d="M78.56,91.14c20.32-0.01,40.65-0.02,60.97,0.01c1.73,3.46,3.55,6.9,5.07,10.46c-20.29-0.03-40.58,0-60.87-0.01
	C81.91,98.16,80.25,94.64,78.56,91.14z"/>
<path class="st2" d="M201.58,91.14c20.32-0.02,40.64-0.01,60.96,0c-1.7,3.51-3.31,7.08-5.22,10.47c-20.29-0.02-40.58-0.02-60.86,0
	C198.09,98.09,199.81,94.6,201.58,91.14z"/>
<path class="st2" d="M18.3,98.58c9.82,2.56,19.53,5.56,29.28,8.39c-6.87,28.91-3.2,60.24,10.47,86.65
	c11.85,23.21,31.07,42.57,54.2,54.56c17.88,9.4,38.06,14.26,58.24,14.31c0.05,25.95-0.2,51.9,0.06,77.85
	c-36.6-24.41-67.65-56.66-92.45-92.89C47.75,202.91,27.44,151.67,18.3,98.58z"/>
<path class="st2" d="M86.37,107.14c20.33-0.01,40.66-0.03,60.99,0.01c1.75,3.46,3.47,6.94,5.13,10.45
	c-20.27,0.01-40.54-0.01-60.81,0.01C89.63,114.32,88.15,110.62,86.37,107.14z"/>
<path class="st2" d="M193.58,107.14c20.32-0.02,40.64,0,60.96,0c-1.75,3.49-3.26,7.15-5.29,10.48c-20.27-0.06-40.54,0-60.81-0.03
	C190.11,114.09,191.79,110.59,193.58,107.14z"/>
<path class="st2" d="M94.21,123.15c20.33-0.01,40.67-0.06,61,0.02c1.7,3.46,3.43,6.91,5.09,10.39c-20.35,0.04-40.7,0.11-61.04-0.03
	C97.59,130.06,95.82,126.64,94.21,123.15z"/>
<path class="st2" d="M185.86,123.21c20.34-0.18,40.7-0.03,61.05-0.07c-1.61,3.5-3.39,6.93-5.06,10.4
	c-20.34,0.11-40.69,0.08-61.04,0.02C182.46,130.09,184.21,126.68,185.86,123.21z"/>
<path class="st2" d="M94.2,149.24c1.68-3.48,3.34-6.99,5.14-10.41c20.31,0,40.64-0.13,60.94,0.06c-1.65,3.45-3.37,6.87-5.04,10.31
	C134.9,149.33,114.55,149.26,94.2,149.24z"/>
<path class="st2" d="M180.79,138.81c20.31-0.02,40.62-0.02,60.93,0c1.87,3.39,3.49,6.93,5.17,10.43
	c-20.22,0.08-40.44-0.03-60.65,0.06C183.99,146.16,182.66,142.25,180.79,138.81z"/>
<path class="st2" d="M91.52,154.82c20.32-0.04,40.65-0.02,60.98-0.01c-1.67,3.5-3.39,6.97-5.13,10.44
	c-20.33,0.02-40.66,0.04-60.98-0.01C88.06,161.75,89.75,158.27,91.52,154.82z"/>
<path class="st2" d="M188.61,155.01c20.33-0.02,40.66-0.02,60.99,0.01c1.78,3.44,3.44,6.94,5.13,10.43
	c-20.35-0.02-40.71,0.12-61.06-0.07C192,161.91,190.27,158.48,188.61,155.01z"/>
<path class="st2" d="M83.68,170.82c20.33-0.04,40.66-0.04,60.99,0.01c-1.68,3.48-3.35,6.97-5.13,10.4
	c-20.33,0.06-40.66,0.06-60.98,0C80.26,177.76,81.94,174.28,83.68,170.82z"/>
<path class="st2" d="M196.42,170.81c20.33-0.01,40.66-0.03,61,0.01c1.77,3.44,3.42,6.95,5.14,10.43c-20.33,0.02-40.67,0.03-61,0
	C199.79,177.79,198.12,174.29,196.42,170.81z"/>
<path class="st2" d="M143.76,186.81c17.79-0.02,35.58-0.02,53.36,0.01c-1.84,3.46-3.76,6.89-5.72,10.29
	c-13.9,0.03-27.8,0.05-41.7-0.01C147.67,193.7,145.74,190.24,143.76,186.81z"/>
<path class="st2" d="M152.78,202.51c11.91-0.11,23.83,0,35.74-0.05c-1.95,3.52-4,7-6.07,10.46c-7.93,0.02-15.87,0.03-23.8,0
	C156.66,209.47,154.7,206,152.78,202.51z"/>
<linearGradient id="SVGID_1_" gradientUnits="userSpaceOnUse" x1="249.7898" y1="0.54" x2="249.7898" y2="340.34">
	<stop  offset="0" style="stop-color:#C16E21"/>
	<stop  offset="1" style="stop-color:#B15806"/>
</linearGradient>
<path class="st3" d="M236.93,5.27c-21.86-3.33-43.99-4.7-66.09-4.73c0,3.12,0.03,6.24-0.11,9.36c23.12-0.09,46.23,6.48,65.91,18.62
	c16.25,10.06,30.26,23.75,40.5,39.9c13.59,21.13,20.51,46.45,19.71,71.56c-0.58,23.08-7.78,45.89-20.37,65.23
	c-14.42,22.22-36.03,39.66-60.81,49.04c-14.38,5.51-29.78,8.23-45.18,8.24c0.05,25.95-0.2,51.9,0.06,77.85
	c21.27-13.91,40.37-30.95,57.77-49.42c19.28-20.61,36.12-43.51,50.07-68.04c33.33-58.11,49.67-125.08,50.76-191.84
	C299.93,17.86,268.55,9.96,236.93,5.27z"/>
<path class="st2" d="M161.73,218.52c5.95-0.12,11.89-0.03,17.84-0.05c-3.04,5.19-5.6,10.89-9.09,15.67
	C167.54,228.94,164.62,223.73,161.73,218.52z"/>
</svg>
