<?xml version="1.0" encoding="utf-8"?>
<!-- Generator: Adobe Illustrator 21.0.0, SVG Export Plug-In . SVG Version: 6.00 Build 0)  -->
<svg version="1.1" id="Layer_1" xmlns="http://www.w3.org/2000/svg" xmlns:xlink="http://www.w3.org/1999/xlink" x="0px" y="0px"
	 viewBox="0 0 851.07 851.07" style="enable-background:new 0 0 851.07 851.07;" xml:space="preserve">
<style type="text/css">
	.st0{fill:#067BAB;stroke:#067BAB;stroke-width:0.0938;}
	.st1{fill:#171A43;stroke:#171A43;stroke-width:0.0938;}
	.st2{fill:#018D4B;stroke:#018D4B;stroke-width:0.0938;}
	.st3{fill:#075742;stroke:#075742;stroke-width:0.0938;}
	.st4{fill:#86C870;stroke:#86C870;stroke-width:0.0938;}
	.st5{fill:#E0DADE;stroke:#E0DADE;stroke-width:0.0938;}
	.st6{fill:#CCAC35;stroke:#CCAC35;stroke-width:0.0938;}
	.st7{fill:#FFFFFF;stroke:#FFFFFF;stroke-width:0.0938;}
	.st8{fill:#EFCB12;stroke:#EFCB12;stroke-width:0.0938;}
	.st9{fill:#BF3636;stroke:#BF3636;stroke-width:0.0938;}
	.st10{fill:#C9CBCC;stroke:#C9CBCC;stroke-width:0.0938;}
	.st11{fill:#EE493A;stroke:#EE493A;stroke-width:0.0938;}
</style>
<path class="st0" d="M432.67,0.041c22.02,13.89,44,27.83,66,41.74c25.64,16.09,51.27,32.28,75.42,50.56
	c25.38,19,49.49,39.8,71.02,63.09c11.61,13.26,22.94,27.07,30.83,42.94c8.92,16.01,15.8,33.13,20.23,50.92
	c19.11,1.88,38.29,3.19,57.29,6.08c-0.38,116.87-0.7,233.73-1.16,350.59c33.05,9.82,65.95,20.63,97.29,35.1
	c-19.39,57.85-38.8,115.7-58.19,173.55c-62.16-21.2-126.44-35.92-191.39-45.45c1.76,18.48,3.53,36.96,5.29,55.44
	c-58.61,8.29-117.2,16.69-175.82,24.94c-1.48,0.15-2.86,0.71-4.14,1.48h-2.77c-1.28-0.74-2.61-1.3-4.07-1.46
	c-57.65-8.26-115.28-16.67-172.92-24.97c1.76-18.47,3.53-36.93,5.29-55.4c-64.83,9.57-129.02,24.21-191.06,45.43
	c-17.88-53.07-35.62-106.18-53.45-159.26c-1.5-4.3-2.55-8.8-4.89-12.74v-1.33c8.59-4.51,17.61-8.14,26.6-11.74
	c31.47-12.35,63.85-22.23,96.54-30.74c1.14-114.36,2.21-228.72,3.34-343.09c15.87-2.22,31.75-4.33,47.66-6.25
	c8.91-34.49,26.75-66.41,50.46-92.91c22.05-24.88,49.15-45.14,78.92-59.87c-8.59-8.65-17.22-17.25-25.74-25.97
	c28.04-3.04,55.99-6.98,84.1-9.31c-8.94-9.9-17.92-19.75-26.84-29.67c30.69,5.41,61.36,10.89,92.05,16.32
	c9.88,1.75,19.59,4.27,29.24,7C449.44,36.711,441.01,18.391,432.67,0.041 M455.33,26.261c6.61,15.02,13.68,29.84,20.35,44.83
	c-16.61-5.37-33.37-10.52-50.62-13.46c-20.68-3.61-41.33-7.44-62.04-10.93c7.03,8.12,14.43,15.91,21.52,23.97
	c-28.25,0.12-56.17,4.8-84.21,7.71c6.97,7.33,14.27,14.34,21.29,21.62c-36.35,15.88-69.32,39.87-94.46,70.65
	c-21.03,25.5-36.31,55.77-43.7,88.02c-14.75,1.68-29.47,3.67-44.2,5.6c-1.64,114-2.83,228.01-4.4,342.01
	c-41.26,10.5-82.21,22.82-121.26,39.92c17.38,52,34.91,103.95,52.25,155.96c63.76-20.75,129.46-35.35,195.89-44.34
	c-1.8,19.48-3.78,38.94-5.53,58.42c52.77,7.7,105.56,15.27,158.33,22.93c3.95,0.54,7.92,1.51,11.92,0.99
	c56.08-8,112.17-15.92,168.25-23.92c-1.85-19.49-3.75-38.97-5.57-58.46c66.5,9.03,132.33,23.52,196.13,44.43
	c17.38-52,34.91-103.95,52.25-155.97c-31.25-13.37-63.6-24-96.28-33.29c0.58-116.28,1.32-232.57,1.91-348.85
	c-18.14-2.41-36.43-3.53-54.62-5.5c-3.79-15.42-8.49-30.69-15.67-44.91c-4.84-9.37-9.46-18.92-15.67-27.48
	c-18.22-25.71-41.49-47.3-65.54-67.45c-25.62-21.15-52.99-40.1-81.14-57.71C492.1,49.481,473.83,37.691,455.33,26.261z"/>
<path class="st1" d="M455.33,26.261c18.5,11.43,36.77,23.22,55.18,34.79c28.15,17.61,55.52,36.56,81.14,57.71
	c24.05,20.15,47.32,41.74,65.54,67.45c6.21,8.56,10.83,18.11,15.67,27.48c7.18,14.22,11.88,29.49,15.67,44.91
	c18.19,1.97,36.48,3.09,54.62,5.5c-0.59,116.28-1.33,232.57-1.91,348.85c32.68,9.29,65.03,19.92,96.28,33.29
	c-17.34,52.02-34.87,103.97-52.25,155.97c-63.8-20.91-129.63-35.4-196.13-44.43c1.82,19.49,3.72,38.97,5.57,58.46
	c-56.08,8-112.17,15.92-168.25,23.92c-4,0.52-7.97-0.45-11.92-0.99c-52.77-7.66-105.56-15.23-158.33-22.93
	c1.75-19.48,3.73-38.94,5.53-58.42c-66.43,8.99-132.13,23.59-195.89,44.34c-17.34-52.01-34.87-103.96-52.25-155.96
	c39.05-17.1,80-29.42,121.26-39.92c1.57-114,2.76-228.01,4.4-342.01c14.73-1.93,29.45-3.92,44.2-5.6
	c7.39-32.25,22.67-62.52,43.7-88.02c25.14-30.78,58.11-54.77,94.46-70.65c-7.02-7.28-14.32-14.29-21.29-21.62
	c28.04-2.91,55.96-7.59,84.21-7.71c-7.09-8.06-14.49-15.85-21.52-23.97c20.71,3.49,41.36,7.32,62.04,10.93
	c17.25,2.94,34.01,8.09,50.62,13.46C469.01,56.101,461.94,41.281,455.33,26.261 M423.63,80.971c4.74,5.26,9.63,10.4,14.12,15.88
	c-29.38-3.8-59.24-3.96-88.69-0.74c4.53,4.57,9.04,9.15,13.58,13.7c-28.84,8.3-56.63,21.14-80.56,39.36
	c-12.42,8.78-23.75,19.22-33.74,30.7c14.58-4.73,29.48-8.39,44.6-10.92c-5.31-3.44-11.42-5.27-17.5-6.79
	c26.02-7.19,54.84-6.16,79.25,6.01c-4.9-8.43-11.78-15.51-19.51-21.4c17.16,2.81,33.78,9.1,48.44,18.47
	c13.01,8.52,24.06,19.81,32.63,32.77c9.98,15.61,16.13,33.31,19.8,51.4c0.43-29.64,0.03-59.29,0.21-88.93
	c9.74,10.6,15.89,24.03,19.66,37.82c3.91-5.02,7.44-10.37,11.83-15.01c17.87-19.74,43.07-32.06,69.16-36.36
	c-7.22,6.07-14.29,12.62-18.8,21.04c5.39-2.15,10.68-4.61,16.29-6.16c18.5-5.56,38.33-5.03,57.1-1.15c1.52,0.38,2.99,1.01,4.49,1.53
	c-5.48,1.79-11.04,3.47-16.06,6.38c4.97,1.92,10.35,2.2,15.5,3.44c9.61,1.97,18.98,4.88,28.34,7.75
	c-2.97-4.02-6.62-7.45-10.15-10.96c-24.21-24.44-51.36-45.77-79.58-65.34c-9.24-6.1-18.15-12.76-27.9-18.03
	c2.86,7.88,6.5,15.47,9.19,23.42c-1.7-0.43-3.39-0.95-5.13-1.13c-4.39-1.89-8.95-3.32-13.43-4.94
	C472.76,94.391,448.73,85.511,423.63,80.971 M247.75,200.341c-7.38,3.24-14.84,6.48-21.51,11.06c27.7,0.09,55.3,3.26,82.46,8.55
	c-10.54-7.79-23.09-12.51-36.01-14.44c24.91-4.32,50.9-3.64,75.24,3.5c-5.16-5.64-11.89-9.43-18.67-12.78
	c23.66,2.85,47.75,8.65,67.66,22.3c6.04,3.97,11.09,9.17,16.18,14.23c-1.29-4.01-2.88-7.92-4.74-11.7
	c-2.87-5.81-5.77-11.87-10.84-16.12c-15.2-13.78-36.02-19.15-56.02-20.77C309.56,181.921,277.26,188.111,247.75,200.341
	 M492.11,193.651c-10.06,4.89-20.11,11.64-25.17,21.98c-2.74,5.17-5.43,10.44-6.95,16.13c4.25-3.47,7.94-7.58,12.37-10.83
	c14.08-10.66,30.97-16.98,48.07-20.83c6.83-1.43,13.68-2.97,20.67-3.26c-5.77,3.74-11.82,7.15-16.68,12.1
	c24.43-6.82,50.37-7.84,75.32-3.42c-12.72,2-25.31,6.41-35.56,14.37c27.14-5.16,54.7-8.52,82.37-8.38
	c-6.88-4.75-14.59-8.09-22.23-11.39c-21.52-8.96-44.52-14.4-67.77-16.04C534.78,182.721,512.15,184.421,492.11,193.651
	 M271.43,241.971c-7.52,2.31-14.03,8.18-16.21,15.85c-2.86,9.88-0.35,20.43,3.8,29.57c6.35,13.73,16.52,25.41,28.13,34.97
	c3.37,2.72,6.73,5.51,10.59,7.52c1.21,1.15,2.68,1.99,4.05,2.97c10.55-10.96,22.54-20.5,35.56-28.36
	c-7.3-6.02-13.17-13.59-17.76-21.82c2.38-2.96,3.97-6.76,3.09-10.6c-0.79-5.27-5.84-8.97-11.09-8.54c-0.65-2.5-1.3-4.99-1.88-7.5
	c-0.8-4.33-1.4-8.71-1.67-13.11C296.1,240.321,283.36,238.101,271.43,241.971 M564.55,242.891c-0.32,4.38-0.89,8.73-1.68,13.06
	c-0.49,2.08-1.01,4.16-1.55,6.23c-2.86,0.59-5.89,1.55-7.58,4.12c-3.29,4.23-2.7,10.25,0.24,14.5c-4.96,9.34-11.44,18-19.85,24.52
	c12.83,7.99,24.83,17.35,35.35,28.22c2.37-1.51,4.74-3.03,7.05-4.62l0.11-0.19c13-8.48,24.2-19.84,32.44-33
	c6.39-10.55,11.21-23.1,8.86-35.59c-1.5-8-7.48-14.74-15.07-17.53C590.55,237.851,577.06,240.231,564.55,242.891 M207.32,355.961
	c8.23,27.09,22.97,52,41.88,73c-1.43-5.22-2.92-10.46-3.55-15.85c-2.06-15.2,0.85-30.84,7.42-44.63
	c-1.78,22.18,7.83,43.56,21.55,60.48c3.83-12.45,8.68-24.58,14.49-36.23c13.98-27.38,32.54-52.56,55.62-72.97
	c-24.46,10.62-46.51,26.33-65.46,45.01c3.51-7.67,8.43-14.56,13.39-21.33c-15.76-13.33-30.88-27.46-44.98-42.56
	c-9.03-9.74-17.68-19.9-25.02-30.99c-5.61-8.59-10.63-17.92-11.9-28.24C197.06,277.991,195.91,318.851,207.32,355.961
	 M657.76,255.381c-4.02,9.07-9.67,17.32-15.67,25.18c-18.49,23.57-40.38,44.25-63.11,63.67c4.79,6.24,9.29,12.7,13.14,19.56
	c-4.24-2-6.96-6-10.56-8.86c-12.12-10.43-25.04-20.23-39.45-27.26c3.18,4.01,7.01,7.45,10.36,11.33
	c21.79,24.68,38.77,53.78,48.48,85.3c12.35-15.3,19.17-34.95,18.71-54.65c3.78,7.79,6.08,16.25,7.17,24.83
	c1.4,11.4-0.38,22.85-3.38,33.85c31.86-34.42,50.57-81.23,49.34-128.29c-0.53-18.76-3.48-37.69-10.32-55.22
	c-0.07-0.66-0.22-1.97-0.29-2.63C660.53,246.531,659.67,251.131,657.76,255.381 M341.72,251.161c-2.19,3.36-4.09,6.9-5.55,10.63
	c-4.8,13.31-1.08,28.04,6.69,39.41c2.66-1.42,5.33-2.83,7.99-4.25c13.85-6.9,28.43-12.37,43.47-16.07
	c5.51-1.22,11.04-2.38,16.61-3.3c-19.47-9.5-39.75-17.3-60.41-23.79C347.59,252.891,344.66,252.011,341.72,251.161 M521.9,253.831
	c-20.68,6.52-40.99,14.31-60.47,23.85c5.43,0.94,10.81,2.15,16.17,3.39c15.1,3.95,29.71,9.66,43.56,16.85
	c2.62,1.43,5.24,2.87,7.88,4.28c2.63-4.16,5.17-8.42,6.84-13.07c3.39-8.7,3.45-18.46,0.54-27.3c-1.49-3.75-3.38-7.33-5.62-10.69
	C527.83,252.041,524.86,252.941,521.9,253.831 M357.46,342.951c-26.91,20.78-47.16,50.45-55.51,83.49
	c-1.99,8.45-3.69,17.1-3.37,25.83c-1,4.72-0.11,9.63,1.3,14.18c3.01,9.18,8.34,17.39,14.11,25.06
	c11.36,14.82,24.95,27.79,39.27,39.73c10.78,8.84,21.92,17.32,33.8,24.66l-0.05,0.3c12.91,7.92,26.03,15.6,40.02,21.48
	c-7.14-35.12-12.28-70.77-13.01-106.65c-0.48-33.94,2.1-68.89,15.81-100.37c0.71-0.92,1.42-1.83,2.12-2.75
	c-1.45,36.08,0.31,72.35,6.12,108.01c5.45,32.44,13.94,64.71,28.67,94.25c25.63-13.5,49.37-30.54,70.74-50.07
	c12.8-11.96,25.05-24.81,34.18-39.86c5.13-8.64,9.43-18.62,7.86-28.88c-0.63-20.8-5.97-41.32-13.9-60.49
	c-6.37-14.84-14.78-29.24-27.09-39.93c-29.45-26.3-69.91-39.1-109.13-36.4C403.25,316.481,378.13,327.011,357.46,342.951
	 M692.96,317.821c-1.06,25.01-7.97,49.58-18.36,72.27c-14.91,32.2-37.9,60.43-65.68,82.41c-2.01,1.61-4.44,3.01-5.28,5.61
	c-3.5,8.64-8.82,16.36-14.41,23.76c8.32-2.84,16.8-5.26,25.04-8.33c-2.25,7.75-4.73,15.43-7.01,23.16
	c24.86,1.02,49.74,1.88,74.61,2.87c-9.34,7.21-18.95,14.05-28.4,21.1c13.26,7.22,26.51,14.46,39.78,21.67
	c0.01-55.53-0.02-111.05,0.01-166.57c0.31-16.89,0.03-33.8,0.13-50.7C693.28,335.991,693.7,326.881,692.96,317.821 M180.47,376.031
	c0.01,62.11-0.01,124.23,0.01,186.34c13.27-7.23,26.54-14.45,39.81-21.69c-9.46-7.06-19.06-13.93-28.43-21.11
	c24.89-0.98,49.78-1.87,74.66-2.86c-2.35-7.73-4.73-15.45-7.07-23.17c10.13,3.31,20.25,6.64,30.39,9.93
	c-5.3-6.52-9.75-13.66-13.93-20.92c-8.62-7.05-17.74-13.55-25.83-21.24c-20.44-18.72-37.62-41.07-49.95-65.91
	c-9.55-19.56-16.75-40.54-19.22-62.23C179.97,347.431,180.7,361.741,180.47,376.031 M551.81,541.321c-4.57,1.24-7.57,5.1-11.01,8.06
	c-4.21,3.96-9.16,6.98-13.79,10.4c22.08,1.39,44.1,3.56,66.12,5.7c21.72,2.05,43.07,6.71,64.31,11.51
	c5.21,1.13,10.37,2.64,15.71,3.1c-5.04-3.17-10.71-5.08-16.07-7.61c-17.47-7.86-35.11-15.37-52.47-23.46
	c2.94-2.26,5.84-4.56,8.61-7.02c-11.66-1-23.37-0.88-35.03-1.7c0.72-2.7,1.46-5.39,2.22-8.07
	C570.86,535.191,561.36,538.341,551.81,541.321 M297.5,532.211c0.73,2.73,1.46,5.48,2.08,8.25c-11.81,0.47-23.64,0.71-35.45,1.44
	c3.07,2.45,6.23,4.78,9.38,7.12c-23.71,10.7-47.58,21.03-71.26,31.79c5.53-0.81,10.95-2.23,16.41-3.43
	c22.05-4.98,44.19-9.93,66.74-11.97c21.87-2.08,43.72-4.4,65.66-5.57c-4.96-3.48-10.11-6.72-14.53-10.89
	c-3.08-2.62-5.69-6.1-9.68-7.35C317.06,538.491,307.27,535.381,297.5,532.211 M407.75,611.251c-4.42,11.93-7.99,24.17-12.64,36
	c-0.97-11.87-0.68-23.81-1.24-35.7c-7.99,0.17-15.96,0.52-23.94,0.85c1.38,28.33,2.75,56.65,4.16,84.97
	c7.36-0.41,14.73-0.57,22.1-0.84c-0.34-10.24-0.6-20.48-0.84-30.71c4.4-0.1,8.8-0.14,13.2-0.29c0.17,10.23,0.23,20.46,0.45,30.69
	c7.38,0.02,14.75-0.23,22.12-0.02c0.03-11.74,0.21-23.48,0.2-35.22c0.11-7.64-7.59-13.22-14.84-12.57
	c4.94-12.46,9.9-24.91,15.08-37.27C423.62,611.191,415.68,611.071,407.75,611.251 M450.94,614.681c-3.19,2.37-4.35,6.52-4.43,10.33
	c-0.47,23.78-1.03,47.57-1.49,71.36c7.37,0.19,14.73,0.5,22.1,0.69c0.31-7.63,0.59-15.25,0.99-22.86c4.91,0.2,9.81,0.48,14.72,0.73
	c-0.39,7.65-0.86,15.29-1.3,22.93c7.33,0.36,14.66,0.92,21.98,1.48c2.44-28.25,4.52-56.52,6.82-84.77
	c-15.63-1.21-31.27-2.18-46.94-2.7C459.12,611.761,454.48,612.011,450.94,614.681 M305.42,617.491c-4.36,0.59-9.15,1.83-11.92,5.53
	c-2.35,3.11-2.32,7.2-1.86,10.89c2.89,23.25,5.71,46.51,8.57,69.77c7.32-0.91,14.66-1.7,22-2.46c-0.79-7.6-1.55-15.21-2.28-22.82
	c4.89-0.48,9.79-0.92,14.69-1.39c0.69,7.63,1.34,15.25,1.98,22.88c7.33-0.64,14.67-1.17,22.02-1.65
	c-1.71-28.3-3.63-56.59-5.38-84.88C337.28,614.421,321.32,615.741,305.42,617.491 M525.82,615.931
	c-1.28,14.34-2.75,28.67-3.97,43.02c-0.76,15.76,7.01,30.09,14.32,43.5c7.32,0.83,14.63,1.75,21.94,2.68
	c2.59-3.09,4.98-6.32,7.29-9.61c1.4,3.78,2.84,7.55,4.4,11.27c7.27,1.05,14.53,2.22,21.78,3.41c11.22-10.93,22.41-23.34,25.99-39.05
	c2.68-13.74,5.15-27.53,7.78-41.28c-7.88-1.5-15.78-2.88-23.69-4.16c-1.87,11.44-3.78,22.88-5.63,34.33
	c-1.41,10.46-5.84,20.41-12.16,28.82c-3.16-9.08-4.56-18.88-3.19-28.44c1.87-12.38,3.71-24.77,5.59-37.15
	c-7.92-1.17-15.84-2.29-23.78-3.31c-1.24,9.37-2.4,18.75-3.61,28.13c-0.82,6.92-2.07,13.81-1.99,20.8
	c-1.11,5.57-4.03,10.64-7.3,15.21c-3.65-9.19-5.3-19.24-4.14-29.09c1.41-12.2,2.84-24.38,4.24-36.58
	C541.75,617.481,533.79,616.651,525.82,615.931 M220.75,629.991c5.27,27.85,10.38,55.72,15.75,83.55c16.41-3.06,32.88-5.76,49.42-8
	c-0.83-6.39-1.74-12.78-2.6-19.17c-9.42,1.29-18.81,2.73-28.19,4.26c-0.77-4.59-1.53-9.17-2.27-13.76
	c9.51-1.57,19.03-3.03,28.58-4.29c-0.9-6.35-1.73-12.71-2.62-19.05c-9.73,1.3-19.43,2.8-29.12,4.37c-0.67-4.35-1.42-8.68-2.12-13.02
	c9.79-1.62,19.6-3.11,29.44-4.44c-0.85-6.4-1.73-12.79-2.63-19.18C256.45,623.771,238.56,626.631,220.75,629.991 M185.6,637.171
	c-14.04,3.17-28.05,6.47-41.95,10.23c7.31,27.36,14.44,54.78,21.7,82.16c7.17-1.88,14.35-3.69,21.55-5.43
	c-2.19-9.31-4.48-18.59-6.67-27.9c4.32-1.02,8.64-2.08,12.99-2.96c2.02,9.32,4.19,18.62,6.3,27.92c7.22-1.61,14.45-3.2,21.7-4.65
	c-2.11-9.81-3.8-19.73-6.15-29.48c-1.05-4.4-5.57-6.56-9.81-6.24c3.55-2.02,6.9-5.4,6.45-9.84c-0.7-6.1-2.35-12.05-3.44-18.08
	c-1.17-5.14-1.46-11.26-5.97-14.76C197.45,634.591,191.02,635.931,185.6,637.171 M643.6,637.121c-3.82,2.2-5.23,6.7-5.98,10.79
	c-4.54,22.77-9.19,45.51-13.74,68.28c7.25,1.46,14.48,3,21.7,4.63c1.69-7.45,3.34-14.92,5.04-22.37c4.83,1.08,9.67,2.2,14.49,3.36
	c-1.77,7.43-3.57,14.86-5.34,22.3c7.21,1.74,14.4,3.54,21.57,5.43c7.22-27.4,14.43-54.81,21.65-82.21
	c-14.58-3.88-29.27-7.37-44-10.65C653.99,635.581,648.31,634.431,643.6,637.121 M706.9,690.061c-1.08,3.76-1.55,8.21,0.86,11.58
	c3.18,4.46,8.81,5.79,13.76,7.29c-2.93,9.81-5.86,19.61-8.76,29.42c7.13,2.12,14.24,4.34,21.33,6.6c3.12-9.74,6.26-19.47,9.41-29.2
	c4.63,1.49,9.59,3.23,14.48,1.93c4.19-1.18,6.71-5.15,7.99-9.05c4.36-12.78,8.75-25.54,13.11-38.31c-7.64-2.62-15.31-5.13-23-7.6
	c-3.6,11.1-7.06,22.24-10.63,33.35c-4.87-1.56-9.75-3.06-14.64-4.55c3.34-11.17,6.74-22.32,10.1-33.49
	c-7.7-2.35-15.44-4.52-23.17-6.76C714.03,664.171,710.53,677.141,706.9,690.061 M112.42,656.101c-15.01,4.39-29.93,9.15-44.73,14.24
	c9.22,26.79,18.37,53.61,27.55,80.42c13.35-4.57,26.79-8.84,40.31-12.87c4.8-1.38,9.62-4.46,11.14-9.47
	c1.48-4.51-0.45-9.07-1.6-13.4c-1.66-5.24-2.58-10.74-4.76-15.8c-1.53-3.58-5.55-4.82-9.15-4.65c2.95-2.28,5.69-5.55,5.2-9.54
	c-0.62-4.64-2.36-9.05-3.48-13.58c-1.49-4.77-2.08-10.32-6.05-13.81C122.87,654.191,117.14,654.741,112.42,656.101 M301.25,749.261
	c-0.04,14.08-0.01,28.16-0.01,42.24c9.21,0.01,18.43,0.01,27.64,0c0-2.69,0-5.37,0-8.05c-6.39-0.01-12.77-0.01-19.16,0
	c-0.01-3.17-0.02-6.35-0.02-9.51c5.2-0.02,10.4-0.02,15.59-0.02c0-2.69,0-5.37,0-8.05c-5.19-0.01-10.39,0-15.59-0.01
	c0-2.87,0-5.74,0.01-8.6c6.39-0.01,12.79,0,19.19-0.01c-0.02-2.68-0.04-5.36-0.08-8.03
	C319.63,749.321,310.44,749.251,301.25,749.261 M334.7,756.901c-0.03,4.84-1.32,11.35,3.75,14.25c5.37,2.85,11.71,2.93,17.46,4.72
	c0.05,2.38,0.19,4.78-0.15,7.15c-3.93,1.24-8.52,0.93-12.57,0.15c-0.22-1.73-0.26-3.47-0.34-5.19c-2.75-0.03-5.5-0.04-8.24-0.05
	c0.16,3.88-0.73,8.56,2.41,11.56c2.46,2.54,6.24,2.25,9.49,2.31c3.96-0.09,7.95,0.24,11.89-0.33c3.89-0.69,6.35-4.67,6.07-8.47
	c-0.17-4.41,1.21-10.06-2.82-13.17c-5.32-3.97-12.59-2.9-18.35-5.79c0-2.21-1.4-7.16,2.12-6.88c3.17-0.11,6.43-0.44,9.54,0.31
	c0.74,1.49,0.43,3.26,0.67,4.89c2.74-0.01,5.49-0.01,8.23-0.01c-0.09-2.76,0.15-5.59-0.63-8.26c-1.07-3.19-4.41-5.18-7.71-5.03
	c-4.72-0.08-9.45-0.24-14.16,0.13C337.55,749.541,334.63,753.131,334.7,756.901 M372.48,749.261c-0.02,14.08,0,28.16-0.01,42.25
	c2.83-0.01,5.65-0.01,8.49-0.01c0-4.97-0.01-9.95,0.01-14.92c4.78-0.07,9.57,0.2,14.35-0.09c3.81-0.17,7-3.6,6.99-7.39
	c0.15-4.41,0.24-8.83-0.1-13.22c-0.36-3.79-3.98-6.66-7.7-6.57C387.17,749.151,379.82,749.341,372.48,749.261 M412.94,749.671
	c-3.78,1.4-5.1,5.66-4.82,9.36c0.09,8.32-0.14,16.65,0.1,24.97c-0.05,3.9,3.2,7.46,7.12,7.63c5.4,0.27,10.82,0.23,16.22,0.03
	c4.01-0.08,7.46-3.65,7.34-7.68c0.19-7.97-0.04-15.95,0.09-23.92c0.03-3.13,0.05-6.79-2.58-8.98c-2.95-2.75-7.29-1.94-10.96-2.09
	C421.29,749.181,416.98,748.481,412.94,749.671 M447.24,749.271c-0.02,14.08-0.01,28.15,0,42.23c2.82,0,5.64,0,8.47,0
	c-0.01-5.22-0.01-10.45,0.01-15.67c2.22,0,4.46,0.01,6.69,0.02c2.29,5.21,4.54,10.44,6.83,15.66c3.05-0.01,6.1-0.01,9.16-0.01
	c-2.28-5.25-4.62-10.47-6.87-15.73c2.34-1.46,5-3.21,5.32-6.22c0.52-4.46,0.43-8.98,0.09-13.44c-0.32-3.73-3.69-6.77-7.41-6.77
	C462.1,749.121,454.67,749.351,447.24,749.271 M481.57,749.271c-0.01,2.63-0.01,5.26-0.01,7.9c3.67,0,7.33,0,11,0
	c0.02,11.45-0.02,22.9,0.02,34.35c2.82-0.02,5.63-0.02,8.46-0.01c0.01-11.45-0.01-22.9,0.01-34.34c3.66,0,7.33,0,11,0
	c-0.01-2.65-0.02-5.29-0.04-7.92C501.86,749.301,491.71,749.261,481.57,749.271 M516.43,757.001c0.06,4.66-1.32,10.84,3.31,13.86
	c5.41,3.21,12.03,3.11,17.92,5.05c0.04,2.36,0.17,4.73-0.17,7.09c-3.39,1.41-7.38,0.57-10.99,0.61c-2.81-0.15-1.55-3.85-2.02-5.67
	c-2.71,0-5.41,0-8.12,0c0.03,2.68-0.16,5.41,0.37,8.07c0.79,3.42,4.21,5.77,7.67,5.69c5.04,0.1,10.12,0.29,15.15-0.14
	c4.1-0.4,6.92-4.49,6.66-8.46c-0.09-4.58,1.21-10.56-3.25-13.58c-5.29-3.47-12.05-2.87-17.77-5.24c-0.68-2.35-0.18-4.78,0.04-7.14
	c3.85-0.05,7.7-0.06,11.55-0.03c0.22,1.74,0.42,3.48,0.65,5.24c2.69,0,5.39,0,8.09,0c-0.05-2.47,0.08-4.95-0.33-7.39
	c-0.7-3.47-4.11-5.98-7.61-5.88c-4.73-0.12-9.48-0.22-14.2,0.08C519.43,749.371,516.28,753.091,516.43,757.001z"/>
<path class="st2" d="M423.63,80.971c25.1,4.54,49.13,13.42,73.14,21.81c4.48,1.62,9.04,3.05,13.43,4.94
	c-2.94-0.14-5.88-0.19-8.78-0.69c-13.35-2.33-26.85-4.36-40.43-4.19c4.3,4.61,9.35,8.42,13.75,12.93
	c-24.63,1.82-49.25,6.42-72.37,15.24c4.31,3.69,8.79,7.18,13.11,10.87c-11.27,6.87-21.88,14.73-31.86,23.36
	c-14.66-9.37-31.28-15.66-48.44-18.47c7.73,5.89,14.61,12.97,19.51,21.4c-24.41-12.17-53.23-13.2-79.25-6.01
	c6.08,1.52,12.19,3.35,17.5,6.79c-15.12,2.53-30.02,6.19-44.6,10.92c9.99-11.48,21.32-21.92,33.74-30.7
	c31.11-16.44,65.15-26.33,99.41-33.67c-3.24-3.58-6.43-7.2-9.45-10.97c21.8-3.71,43.87-5.37,65.85-7.55l-0.14-0.13
	C433.26,91.371,428.37,86.231,423.63,80.971z"/>
<path class="st3" d="M506.14,85.431c9.75,5.27,18.66,11.93,27.9,18.03c28.22,19.57,55.37,40.9,79.58,65.34
	c3.53,3.51,7.18,6.94,10.15,10.96c-9.36-2.87-18.73-5.78-28.34-7.75c-5.15-1.24-10.53-1.52-15.5-3.44
	c5.02-2.91,10.58-4.59,16.06-6.38c-1.5-0.52-2.97-1.15-4.49-1.53c-18.77-3.88-38.6-4.41-57.1,1.15c-5.61,1.55-10.9,4.01-16.29,6.16
	c4.51-8.42,11.58-14.97,18.8-21.04c-26.09,4.3-51.29,16.62-69.16,36.36c-4.39,4.64-7.92,9.99-11.83,15.01
	c-3.77-13.79-9.92-27.22-19.66-37.82l-0.24-0.34c-9.74,10.67-15.77,24.12-19.77,37.87c-8.57-12.96-19.62-24.25-32.63-32.77
	c9.98-8.63,20.59-16.49,31.86-23.36c-4.32-3.69-8.8-7.18-13.11-10.87c23.12-8.82,47.74-13.42,72.37-15.24
	c-4.4-4.51-9.45-8.32-13.75-12.93c13.58-0.17,27.08,1.86,40.43,4.19c2.9,0.5,5.84,0.55,8.78,0.69c1.74,0.18,3.43,0.7,5.13,1.13
	C512.64,100.901,509,93.311,506.14,85.431z"/>
<path class="st4" d="M349.06,96.111c29.45-3.22,59.31-3.06,88.69,0.74l0.14,0.13c-21.98,2.18-44.05,3.84-65.85,7.55
	c3.02,3.77,6.21,7.39,9.45,10.97c-34.26,7.34-68.3,17.23-99.41,33.67c23.93-18.22,51.72-31.06,80.56-39.36
	C358.1,105.261,353.59,100.681,349.06,96.111z"/>
<path class="st2" d="M416.25,198.011c4-13.75,10.03-27.2,19.77-37.87l0.24,0.34c-0.18,29.64,0.22,59.29-0.21,88.93
	C432.38,231.321,426.23,213.621,416.25,198.011z"/>
<path class="st2" d="M247.75,200.341c29.51-12.23,61.81-18.42,93.75-16.17c20,1.62,40.82,6.99,56.02,20.77
	c5.07,4.25,7.97,10.31,10.84,16.12c1.86,3.78,3.45,7.69,4.74,11.7c-5.09-5.06-10.14-10.26-16.18-14.23
	c-19.91-13.65-44-19.45-67.66-22.3c6.78,3.35,13.51,7.14,18.67,12.78c-24.34-7.14-50.33-7.82-75.24-3.5
	c12.92,1.93,25.47,6.65,36.01,14.44c-27.16-5.29-54.76-8.46-82.46-8.55C232.91,206.821,240.37,203.581,247.75,200.341z"/>
<path class="st3" d="M492.11,193.651c20.04-9.23,42.67-10.93,64.44-9.57c23.25,1.64,46.25,7.08,67.77,16.04
	c7.64,3.3,15.35,6.64,22.23,11.39c-27.67-0.14-55.23,3.22-82.37,8.38c10.25-7.96,22.84-12.37,35.56-14.37
	c-24.95-4.42-50.89-3.4-75.32,3.42c4.86-4.95,10.91-8.36,16.68-12.1c-6.99,0.29-13.84,1.83-20.67,3.26
	c-17.1,3.85-33.99,10.17-48.07,20.83c-4.43,3.25-8.12,7.36-12.37,10.83c1.52-5.69,4.21-10.96,6.95-16.13
	C472,205.291,482.05,198.541,492.11,193.651z"/>
<path class="st5" d="M271.43,241.971c11.93-3.87,24.67-1.65,36.61,0.95c0.27,4.4,0.87,8.78,1.67,13.11
	c-9.97-1.12-20.77-1.73-29.84,3.35c-6.78,3.6-10.9,11.11-11,18.7c-0.42,12.93,6.03,24.91,13.63,34.93
	c4.47,6.17,10.56,10.87,15.24,16.87c-3.86-2.01-7.22-4.8-10.59-7.52c-11.61-9.56-21.78-21.24-28.13-34.97
	c-4.15-9.14-6.66-19.69-3.8-29.57C257.4,250.151,263.91,244.281,271.43,241.971z"/>
<path class="st5" d="M564.55,242.891c12.51-2.66,26-5.04,38.32-0.28c7.59,2.79,13.57,9.53,15.07,17.53
	c2.35,12.49-2.47,25.04-8.86,35.59c-8.24,13.16-19.44,24.52-32.44,33c1.03-1.78,2.19-3.5,3.63-4.97
	c10.71-10.28,19.99-23.02,22.91-37.84c1.88-9.03-0.4-19.72-8.37-25.18c-9.26-6.54-21.21-5.84-31.94-4.79
	C563.66,251.621,564.23,247.271,564.55,242.891z"/>
<path class="st4" d="M207.32,355.961c-11.41-37.11-10.26-77.97,3.44-114.31c1.27,10.32,6.29,19.65,11.9,28.24
	c7.34,11.09,15.99,21.25,25.02,30.99c14.1,15.1,29.22,29.23,44.98,42.56c-4.96,6.77-9.88,13.66-13.39,21.33
	c18.95-18.68,41-34.39,65.46-45.01c-23.08,20.41-41.64,45.59-55.62,72.97c-5.81,11.65-10.66,23.78-14.49,36.23
	c-13.72-16.92-23.33-38.3-21.55-60.48c-6.57,13.79-9.48,29.43-7.42,44.63c0.63,5.39,2.12,10.63,3.55,15.85
	C230.29,407.961,215.55,383.051,207.32,355.961z"/>
<path class="st2" d="M657.76,255.381c1.91-4.25,2.77-8.85,4.42-13.19c0.07,0.66,0.22,1.97,0.29,2.63
	c1.35,17.69-3.7,35.21-10.86,51.22c-12.67,28.07-33.52,51.76-57.54,70.74c-0.66-1-1.32-1.99-1.95-2.99
	c-3.85-6.86-8.35-13.32-13.14-19.56c22.73-19.42,44.62-40.1,63.11-63.67C648.09,272.701,653.74,264.451,657.76,255.381z"/>
<path class="st3" d="M662.47,244.821c6.84,17.53,9.79,36.46,10.32,55.22c1.23,47.06-17.48,93.87-49.34,128.29
	c3-11,4.78-22.45,3.38-33.85c-1.09-8.58-3.39-17.04-7.17-24.83c0.46,19.7-6.36,39.35-18.71,54.65
	c-9.71-31.52-26.69-60.62-48.48-85.3c-3.35-3.88-7.18-7.32-10.36-11.33c14.41,7.03,27.33,16.83,39.45,27.26
	c3.6,2.86,6.32,6.86,10.56,8.86c0.63,1,1.29,1.99,1.95,2.99c24.02-18.98,44.87-42.67,57.54-70.74
	C658.77,280.031,663.82,262.511,662.47,244.821z"/>
<path class="st6" d="M341.72,251.161c2.94,0.85,5.87,1.73,8.8,2.63c-1.74,3.34-3.4,6.74-4.48,10.36c-3.3-0.76-6.59-1.55-9.87-2.36
	C337.63,258.061,339.53,254.521,341.72,251.161z"/>
<path class="st6" d="M521.9,253.831c2.96-0.89,5.93-1.79,8.9-2.69c2.24,3.36,4.13,6.94,5.62,10.69c-3.28,0.79-6.55,1.59-9.82,2.41
	C525.17,260.711,523.62,257.231,521.9,253.831z"/>
<path class="st5" d="M350.52,253.791c20.66,6.49,40.94,14.29,60.41,23.79c-5.57,0.92-11.1,2.08-16.61,3.3
	c-7.11-3.54-14.68-5.98-22.16-8.58c-8.66-2.87-17.3-5.86-26.21-7.84l0.09-0.31C347.12,260.531,348.78,257.131,350.52,253.791z"/>
<path class="st5" d="M461.43,277.681c19.48-9.54,39.79-17.33,60.47-23.85c1.72,3.4,3.27,6.88,4.7,10.41
	c-16.61,4.71-33.21,9.77-49,16.83C472.24,279.831,466.86,278.621,461.43,277.681z"/>
<path class="st7" d="M279.87,259.381c9.07-5.08,19.87-4.47,29.84-3.35c0.58,2.51,1.23,5,1.88,7.5c5.25-0.43,10.3,3.27,11.09,8.54
	c0.88,3.84-0.71,7.64-3.09,10.6c4.59,8.23,10.46,15.8,17.76,21.82c-13.02,7.86-25.01,17.4-35.56,28.36
	c-1.37-0.98-2.84-1.82-4.05-2.97c-4.68-6-10.77-10.7-15.24-16.87c-7.6-10.02-14.05-22-13.63-34.93
	C268.97,270.491,273.09,262.981,279.87,259.381z"/>
<path class="st7" d="M562.87,255.951c10.73-1.05,22.68-1.75,31.94,4.79c7.97,5.46,10.25,16.15,8.37,25.18
	c-2.92,14.82-12.2,27.56-22.91,37.84c-1.44,1.47-2.6,3.19-3.63,4.97l-0.11,0.19c-2.31,1.59-4.68,3.11-7.05,4.62
	c-10.52-10.87-22.52-20.23-35.35-28.22c8.41-6.52,14.89-15.18,19.85-24.52c-2.94-4.25-3.53-10.27-0.24-14.5
	c1.69-2.57,4.72-3.53,7.58-4.12C561.86,260.111,562.38,258.031,562.87,255.951z"/>
<path class="st8" d="M342.86,301.201c-7.77-11.37-11.49-26.1-6.69-39.41c3.28,0.81,6.57,1.6,9.87,2.36l-0.09,0.31
	c-3.07,10.99-0.56,22.7,4.9,32.49C348.19,298.371,345.52,299.781,342.86,301.201z"/>
<path class="st8" d="M526.6,264.241c3.27-0.82,6.54-1.62,9.82-2.41c2.91,8.84,2.85,18.6-0.54,27.3c-1.67,4.65-4.21,8.91-6.84,13.07
	c-2.64-1.41-5.26-2.85-7.88-4.28C527.05,287.841,529.76,275.691,526.6,264.241z"/>
<path class="st7" d="M477.6,281.071c15.79-7.06,32.39-12.12,49-16.83c3.16,11.45,0.45,23.6-5.44,33.68
	C507.31,290.731,492.7,285.021,477.6,281.071z"/>
<path class="st7" d="M345.95,264.461c8.91,1.98,17.55,4.97,26.21,7.84c7.48,2.6,15.05,5.04,22.16,8.58
	c-15.04,3.7-29.62,9.17-43.47,16.07C345.39,287.161,342.88,275.451,345.95,264.461z"/>
<path class="st9" d="M357.46,342.951c20.67-15.94,45.79-26.47,71.94-28.41c39.22-2.7,79.68,10.1,109.13,36.4
	c12.31,10.69,20.72,25.09,27.09,39.93c7.93,19.17,13.27,39.69,13.9,60.49c-5.8-25.25-15.25-50.85-33.91-69.51
	c-25.51-23.5-59.79-36.15-94.11-38.58c-23.56-1.85-47.58,1.94-69.2,11.56c-26.15,11.4-48.83,30.52-64.75,54.16
	c-8.9,13.14-14.92,27.99-18.97,43.28c-0.32-8.73,1.38-17.38,3.37-25.83C310.3,393.401,330.55,363.731,357.46,342.951z"/>
<path class="st10" d="M692.96,317.821c0.74,9.06,0.32,18.17,0.43,27.25c-0.1,16.9,0.18,33.81-0.13,50.7
	c-2.22,7.52-6.3,14.3-9.81,21.26c-15.83,28.76-37.23,54.93-64.4,73.66c-1.55,1.03-3.13,2-4.78,2.85
	c-8.24,3.07-16.72,5.49-25.04,8.33c5.59-7.4,10.91-15.12,14.41-23.76c0.84-2.6,3.27-4,5.28-5.61
	c27.78-21.98,50.77-50.21,65.68-82.41C684.99,367.401,691.9,342.831,692.96,317.821z"/>
<path class="st5" d="M180.47,376.031c0.23-14.29-0.5-28.6,0.44-42.86c2.47,21.69,9.67,42.67,19.22,62.23
	c12.33,24.84,29.51,47.19,49.95,65.91c8.09,7.69,17.21,14.19,25.83,21.24c4.18,7.26,8.63,14.4,13.93,20.92
	c-10.14-3.29-20.26-6.62-30.39-9.93c2.34,7.72,4.72,15.44,7.07,23.17c-24.88,0.99-49.77,1.88-74.66,2.86
	c9.37,7.18,18.97,14.05,28.43,21.11c-13.27,7.24-26.54,14.46-39.81,21.69C180.46,500.261,180.48,438.141,180.47,376.031z"/>
<path class="st11" d="M382.3,354.831c21.62-9.62,45.64-13.41,69.2-11.56c34.32,2.43,68.6,15.08,94.11,38.58
	c18.66,18.66,28.11,44.26,33.91,69.51c1.57,10.26-2.73,20.24-7.86,28.88c-9.13,15.05-21.38,27.9-34.18,39.86
	c-21.37,19.53-45.11,36.57-70.74,50.07c-14.73-29.54-23.22-61.81-28.67-94.25c-5.81-35.66-7.57-71.93-6.12-108.01
	c-0.7,0.92-1.41,1.83-2.12,2.75c-7.24,8.28-11.67,18.53-16.15,28.46c-17.35,42.36-23.1,88.41-25.42,133.81
	c-0.6,7.65,0.13,15.37-1.2,22.97c-11.88-7.34-23.02-15.82-33.8-24.66c-14.32-11.94-27.91-24.91-39.27-39.73
	c-5.77-7.67-11.1-15.88-14.11-25.06c-1.41-4.55-2.3-9.46-1.3-14.18c4.05-15.29,10.07-30.14,18.97-43.28
	C333.47,385.351,356.15,366.231,382.3,354.831z"/>
<path class="st9" d="M413.68,399.121c4.48-9.93,8.91-20.18,16.15-28.46c-13.71,31.48-16.29,66.43-15.81,100.37
	c0.73,35.88,5.87,71.53,13.01,106.65c-13.99-5.88-27.11-13.56-40.02-21.48l0.05-0.3c1.33-7.6,0.6-15.32,1.2-22.97
	C390.58,487.531,396.33,441.481,413.68,399.121z"/>
<path class="st5" d="M683.45,417.031c3.51-6.96,7.59-13.74,9.81-21.26c-0.03,55.52,0,111.04-0.01,166.57
	c-13.27-7.21-26.52-14.45-39.78-21.67c9.45-7.05,19.06-13.89,28.4-21.1c-24.87-0.99-49.75-1.85-74.61-2.87
	c2.28-7.73,4.76-15.41,7.01-23.16c1.65-0.85,3.23-1.82,4.78-2.85C646.22,471.961,667.62,445.791,683.45,417.031z"/>
<path class="st3" d="M551.81,541.321c9.55-2.98,19.05-6.13,28.6-9.09c-0.76,2.68-1.5,5.37-2.22,8.07c11.66,0.82,23.37,0.7,35.03,1.7
	c-2.77,2.46-5.67,4.76-8.61,7.02c17.36,8.09,35,15.6,52.47,23.46c5.36,2.53,11.03,4.44,16.07,7.61c-5.34-0.46-10.5-1.97-15.71-3.1
	c-21.24-4.8-42.59-9.46-64.31-11.51c-22.02-2.14-44.04-4.31-66.12-5.7c4.63-3.42,9.58-6.44,13.79-10.4
	C544.24,546.421,547.24,542.561,551.81,541.321z"/>
<path class="st2" d="M297.5,532.211c9.77,3.17,19.56,6.28,29.35,9.39c3.99,1.25,6.6,4.73,9.68,7.35c4.42,4.17,9.57,7.41,14.53,10.89
	c-21.94,1.17-43.79,3.49-65.66,5.57c-22.55,2.04-44.69,6.99-66.74,11.97c-5.46,1.2-10.88,2.62-16.41,3.43
	c23.68-10.76,47.55-21.09,71.26-31.79c-3.15-2.34-6.31-4.67-9.38-7.12c11.81-0.73,23.64-0.97,35.45-1.44
	C298.96,537.691,298.23,534.941,297.5,532.211z"/>
<path class="st7" d="M407.75,611.251c7.93-0.18,15.87-0.06,23.81-0.11c-5.18,12.36-10.14,24.81-15.08,37.27
	c7.25-0.65,14.95,4.93,14.84,12.57c0.01,11.74-0.17,23.48-0.2,35.22c-7.37-0.21-14.74,0.04-22.12,0.02
	c-0.22-10.23-0.28-20.46-0.45-30.69c-4.4,0.15-8.8,0.19-13.2,0.29c0.24,10.23,0.5,20.47,0.84,30.71c-7.37,0.27-14.74,0.43-22.1,0.84
	c-1.41-28.32-2.78-56.64-4.16-84.97c7.98-0.33,15.95-0.68,23.94-0.85c0.56,11.89,0.27,23.83,1.24,35.7
	C399.76,635.421,403.33,623.181,407.75,611.251z"/>
<path class="st7" d="M450.94,614.681c3.54-2.67,8.18-2.92,12.45-2.81c15.67,0.52,31.31,1.49,46.94,2.7
	c-2.3,28.25-4.38,56.52-6.82,84.77c-7.32-0.56-14.65-1.12-21.98-1.48c0.44-7.64,0.91-15.28,1.3-22.93
	c-4.91-0.25-9.81-0.53-14.72-0.73c-0.4,7.61-0.68,15.23-0.99,22.86c-7.37-0.19-14.73-0.5-22.1-0.69
	c0.46-23.79,1.02-47.58,1.49-71.36C446.59,621.201,447.75,617.051,450.94,614.681 M469.93,631.451c-0.38,7.88-0.61,15.76-1.04,23.64
	c5.02,0.2,10.04,0.47,15.06,0.76c0.46-7.88,0.91-15.76,1.33-23.64C480.16,631.971,475.05,631.721,469.93,631.451z"/>
<path class="st7" d="M305.42,617.491c15.9-1.75,31.86-3.07,47.82-4.13c1.75,28.29,3.67,56.58,5.38,84.88
	c-7.35,0.48-14.69,1.01-22.02,1.65c-0.64-7.63-1.29-15.25-1.98-22.88c-4.9,0.47-9.8,0.91-14.69,1.39
	c0.73,7.61,1.49,15.22,2.28,22.82c-7.34,0.76-14.68,1.55-22,2.46c-2.86-23.26-5.68-46.52-8.57-69.77
	c-0.46-3.69-0.49-7.78,1.86-10.89C296.27,619.321,301.06,618.081,305.42,617.491 M315.64,635.861c0.78,7.83,1.59,15.67,2.35,23.5
	c5-0.44,9.99-0.94,15-1.39c-0.65-7.85-1.35-15.7-2.01-23.55C325.86,634.881,320.74,635.321,315.64,635.861z"/>
<path class="st7" d="M525.82,615.931c7.97,0.72,15.93,1.55,23.87,2.5c-1.4,12.2-2.83,24.38-4.24,36.58
	c-1.16,9.85,0.49,19.9,4.14,29.09c3.27-4.57,6.19-9.64,7.3-15.21c-0.08-6.99,1.17-13.88,1.99-20.8c1.21-9.38,2.37-18.76,3.61-28.13
	c7.94,1.02,15.86,2.14,23.78,3.31c-1.88,12.38-3.72,24.77-5.59,37.15c-1.37,9.56,0.03,19.36,3.19,28.44
	c6.32-8.41,10.75-18.36,12.16-28.82c1.85-11.45,3.76-22.89,5.63-34.33c7.91,1.28,15.81,2.66,23.69,4.16
	c-2.63,13.75-5.1,27.54-7.78,41.28c-3.58,15.71-14.77,28.12-25.99,39.05c-7.25-1.19-14.51-2.36-21.78-3.41
	c-1.56-3.72-3-7.49-4.4-11.27c-2.31,3.29-4.7,6.52-7.29,9.61c-7.31-0.93-14.62-1.85-21.94-2.68c-7.31-13.41-15.08-27.74-14.32-43.5
	C523.07,644.601,524.54,630.271,525.82,615.931z"/>
<path class="st7" d="M220.75,629.991c17.81-3.36,35.7-6.22,53.64-8.73c0.9,6.39,1.78,12.78,2.63,19.18
	c-9.84,1.33-19.65,2.82-29.44,4.44c0.7,4.34,1.45,8.67,2.12,13.02c9.69-1.57,19.39-3.07,29.12-4.37c0.89,6.34,1.72,12.7,2.62,19.05
	c-9.55,1.26-19.07,2.72-28.58,4.29c0.74,4.59,1.5,9.17,2.27,13.76c9.38-1.53,18.77-2.97,28.19-4.26c0.86,6.39,1.77,12.78,2.6,19.17
	c-16.54,2.24-33.01,4.94-49.42,8C231.13,685.711,226.02,657.841,220.75,629.991z"/>
<path class="st1" d="M469.93,631.451c5.12,0.27,10.23,0.52,15.35,0.76c-0.42,7.88-0.87,15.76-1.33,23.64
	c-5.02-0.29-10.04-0.56-15.06-0.76C469.32,647.211,469.55,639.331,469.93,631.451z"/>
<path class="st1" d="M315.64,635.861c5.1-0.54,10.22-0.98,15.34-1.44c0.66,7.85,1.36,15.7,2.01,23.55c-5.01,0.45-10,0.95-15,1.39
	C317.23,651.531,316.42,643.691,315.64,635.861z"/>
<path class="st7" d="M185.6,637.171c5.42-1.24,11.85-2.58,16.7,0.97c4.51,3.5,4.8,9.62,5.97,14.76c1.09,6.03,2.74,11.98,3.44,18.08
	c0.45,4.44-2.9,7.82-6.45,9.84c4.24-0.32,8.76,1.84,9.81,6.24c2.35,9.75,4.04,19.67,6.15,29.48c-7.25,1.45-14.48,3.04-21.7,4.65
	c-2.11-9.3-4.28-18.6-6.3-27.92c-4.35,0.88-8.67,1.94-12.99,2.96c2.19,9.31,4.48,18.59,6.67,27.9c-7.2,1.74-14.38,3.55-21.55,5.43
	c-7.26-27.38-14.39-54.8-21.7-82.16C157.55,643.641,171.56,640.341,185.6,637.171 M171.59,660.251c1.38,5.76,2.78,11.51,4.12,17.28
	c4.4-1.01,8.8-2.05,13.2-3.06c-1.3-5.79-2.62-11.56-3.91-17.34C180.52,658.121,176.05,659.171,171.59,660.251z"/>
<path class="st7" d="M643.6,637.121c4.71-2.69,10.39-1.54,15.39-0.44c14.73,3.28,29.42,6.77,44,10.65
	c-7.22,27.4-14.43,54.81-21.65,82.21c-7.17-1.89-14.36-3.69-21.57-5.43c1.77-7.44,3.57-14.87,5.34-22.3
	c-4.82-1.16-9.66-2.28-14.49-3.36c-1.7,7.45-3.35,14.92-5.04,22.37c-7.22-1.63-14.45-3.17-21.7-4.63
	c4.55-22.77,9.2-45.51,13.74-68.28C638.37,643.821,639.78,639.321,643.6,637.121 M654.82,679.811c4.92,1.09,9.83,2.24,14.74,3.42
	c1.85-7.67,3.7-15.35,5.51-23.02c-5.02-1.19-10.04-2.37-15.07-3.5C658.27,664.411,656.52,672.101,654.82,679.811z"/>
<path class="st7" d="M706.9,690.061c3.63-12.92,7.13-25.89,10.84-38.79c7.73,2.24,15.47,4.41,23.17,6.76
	c-3.36,11.17-6.76,22.32-10.1,33.49c4.89,1.49,9.77,2.99,14.64,4.55c3.57-11.11,7.03-22.25,10.63-33.35c7.69,2.47,15.36,4.98,23,7.6
	c-4.36,12.77-8.75,25.53-13.11,38.31c-1.28,3.9-3.8,7.87-7.99,9.05c-4.89,1.3-9.85-0.44-14.48-1.93c-3.15,9.73-6.29,19.46-9.41,29.2
	c-7.09-2.26-14.2-4.48-21.33-6.6c2.9-9.81,5.83-19.61,8.76-29.42c-4.95-1.5-10.58-2.83-13.76-7.29
	C705.35,698.271,705.82,693.821,706.9,690.061z"/>
<path class="st7" d="M112.42,656.101c4.72-1.36,10.45-1.91,14.43,1.54c3.97,3.49,4.56,9.04,6.05,13.81
	c1.12,4.53,2.86,8.94,3.48,13.58c0.49,3.99-2.25,7.26-5.2,9.54c3.6-0.17,7.62,1.07,9.15,4.65c2.18,5.06,3.1,10.56,4.76,15.8
	c1.15,4.33,3.08,8.89,1.6,13.4c-1.52,5.01-6.34,8.09-11.14,9.47c-13.52,4.03-26.96,8.3-40.31,12.87
	c-9.18-26.81-18.33-53.63-27.55-80.42C82.49,665.251,97.41,660.491,112.42,656.101 M96.59,681.141c1.34,4.2,2.64,8.4,4.03,12.58
	c4.33-1.38,8.66-2.72,13.01-4.05c-1.27-4.21-2.56-8.41-3.82-12.62C105.39,678.361,100.98,679.721,96.59,681.141 M106.4,712.041
	c1.42,4.43,2.82,8.86,4.24,13.3c4.2-1.33,8.41-2.64,12.63-3.93c-1.34-4.46-2.7-8.91-4.06-13.36
	C114.94,709.371,110.66,710.681,106.4,712.041z"/>
<path class="st1" d="M171.59,660.251c4.46-1.08,8.93-2.13,13.41-3.12c1.29,5.78,2.61,11.55,3.91,17.34c-4.4,1.01-8.8,2.05-13.2,3.06
	C174.37,671.761,172.97,666.011,171.59,660.251z"/>
<path class="st1" d="M654.82,679.811c1.7-7.71,3.45-15.4,5.18-23.1c5.03,1.13,10.05,2.31,15.07,3.5
	c-1.81,7.67-3.66,15.35-5.51,23.02C664.65,682.051,659.74,680.901,654.82,679.811z"/>
<path class="st1" d="M96.59,681.141c4.39-1.42,8.8-2.78,13.22-4.09c1.26,4.21,2.55,8.41,3.82,12.62c-4.35,1.33-8.68,2.67-13.01,4.05
	C99.23,689.541,97.93,685.341,96.59,681.141z"/>
<path class="st1" d="M106.4,712.041c4.26-1.36,8.54-2.67,12.81-3.99c1.36,4.45,2.72,8.9,4.06,13.36c-4.22,1.29-8.43,2.6-12.63,3.93
	C109.22,720.901,107.82,716.471,106.4,712.041z"/>
<path class="st11" d="M301.25,749.261c9.19-0.01,18.38,0.06,27.57-0.04c0.04,2.67,0.06,5.35,0.08,8.03c-6.4,0.01-12.8,0-19.19,0.01
	c-0.01,2.86-0.01,5.73-0.01,8.6c5.2,0.01,10.4,0,15.59,0.01c0,2.68,0,5.36,0,8.05c-5.19,0-10.39,0-15.59,0.02
	c0,3.16,0.01,6.34,0.02,9.51c6.39-0.01,12.77-0.01,19.16,0c0,2.68,0,5.36,0,8.05c-9.21,0.01-18.43,0.01-27.64,0
	C301.24,777.421,301.21,763.341,301.25,749.261z"/>
<path class="st11" d="M334.7,756.901c-0.07-3.77,2.85-7.36,6.66-7.71c4.71-0.37,9.44-0.21,14.16-0.13c3.3-0.15,6.64,1.84,7.71,5.03
	c0.78,2.67,0.54,5.5,0.63,8.26c-2.74,0-5.49,0-8.23,0.01c-0.24-1.63,0.07-3.4-0.67-4.89c-3.11-0.75-6.37-0.42-9.54-0.31
	c-3.52-0.28-2.12,4.67-2.12,6.88c5.76,2.89,13.03,1.82,18.35,5.79c4.03,3.11,2.65,8.76,2.82,13.17c0.28,3.8-2.18,7.78-6.07,8.47
	c-3.94,0.57-7.93,0.24-11.89,0.33c-3.25-0.06-7.03,0.23-9.49-2.31c-3.14-3-2.25-7.68-2.41-11.56c2.74,0.01,5.49,0.02,8.24,0.05
	c0.08,1.72,0.12,3.46,0.34,5.19c4.05,0.78,8.64,1.09,12.57-0.15c0.34-2.37,0.2-4.77,0.15-7.15c-5.75-1.79-12.09-1.87-17.46-4.72
	C333.38,768.251,334.67,761.741,334.7,756.901z"/>
<path class="st11" d="M372.48,749.261c7.34,0.08,14.69-0.11,22.03,0.05c3.72-0.09,7.34,2.78,7.7,6.57c0.34,4.39,0.25,8.81,0.1,13.22
	c0.01,3.79-3.18,7.22-6.99,7.39c-4.78,0.29-9.57,0.02-14.35,0.09c-0.02,4.97-0.01,9.95-0.01,14.92c-2.84,0-5.66,0-8.49,0.01
	C372.48,777.421,372.46,763.341,372.48,749.261 M380.95,757.281c0.01,3.76,0.01,7.54,0.01,11.32c4.26,0.05,8.53,0.06,12.79-0.23
	c0.13-3.47,0.38-6.97-0.06-10.42C389.67,756.461,385.16,757.551,380.95,757.281z"/>
<path class="st11" d="M412.94,749.671c4.04-1.19,8.35-0.49,12.51-0.68c3.67,0.15,8.01-0.66,10.96,2.09
	c2.63,2.19,2.61,5.85,2.58,8.98c-0.13,7.97,0.1,15.95-0.09,23.92c0.12,4.03-3.33,7.6-7.34,7.68c-5.4,0.2-10.82,0.24-16.22-0.03
	c-3.92-0.17-7.17-3.73-7.12-7.63c-0.24-8.32-0.01-16.65-0.1-24.97C407.84,755.331,409.16,751.071,412.94,749.671 M417.54,757.271
	c-0.18,0.25-0.53,0.74-0.71,0.99c-0.53,6.89-0.05,13.84-0.23,20.75c0.29,1.44-0.57,3.74,1.16,4.48c4.19,0.51,8.44,0.21,12.64-0.12
	c0.01-8.44,0.29-16.89-0.1-25.31c-0.21-0.2-0.63-0.6-0.84-0.8C425.5,756.931,421.49,756.931,417.54,757.271z"/>
<path class="st11" d="M447.24,749.271c7.43,0.08,14.86-0.15,22.29,0.07c3.72,0,7.09,3.04,7.41,6.77c0.34,4.46,0.43,8.98-0.09,13.44
	c-0.32,3.01-2.98,4.76-5.32,6.22c2.25,5.26,4.59,10.48,6.87,15.73c-3.06,0-6.11,0-9.16,0.01c-2.29-5.22-4.54-10.45-6.83-15.66
	c-2.23-0.01-4.47-0.02-6.69-0.02c-0.02,5.22-0.02,10.45-0.01,15.67c-2.83,0-5.65,0-8.47,0
	C447.23,777.421,447.22,763.351,447.24,749.271 M455.71,757.271c-0.01,3.55-0.01,7.1-0.01,10.65c4.08-0.14,8.24,0.48,12.26-0.36
	c1-2.99,1.15-7.09-0.12-9.95C463.85,756.841,459.74,757.381,455.71,757.271z"/>
<path class="st11" d="M481.57,749.271c10.14-0.01,20.29,0.03,30.44-0.02c0.02,2.63,0.03,5.27,0.04,7.92c-3.67,0-7.34,0-11,0
	c-0.02,11.44,0,22.89-0.01,34.34c-2.83-0.01-5.64-0.01-8.46,0.01c-0.04-11.45,0-22.9-0.02-34.35c-3.67,0-7.33,0-11,0
	C481.56,754.531,481.56,751.901,481.57,749.271z"/>
<path class="st11" d="M516.43,757.001c-0.15-3.91,3-7.63,6.95-7.84c4.72-0.3,9.47-0.2,14.2-0.08c3.5-0.1,6.91,2.41,7.61,5.88
	c0.41,2.44,0.28,4.92,0.33,7.39c-2.7,0-5.4,0-8.09,0c-0.23-1.76-0.43-3.5-0.65-5.24c-3.85-0.03-7.7-0.02-11.55,0.03
	c-0.22,2.36-0.72,4.79-0.04,7.14c5.72,2.37,12.48,1.77,17.77,5.24c4.46,3.02,3.16,9,3.25,13.58c0.26,3.97-2.56,8.06-6.66,8.46
	c-5.03,0.43-10.11,0.24-15.15,0.14c-3.46,0.08-6.88-2.27-7.67-5.69c-0.53-2.66-0.34-5.39-0.37-8.07c2.71,0,5.41,0,8.12,0
	c0.47,1.82-0.79,5.52,2.02,5.67c3.61-0.04,7.6,0.8,10.99-0.61c0.34-2.36,0.21-4.73,0.17-7.09c-5.89-1.94-12.51-1.84-17.92-5.05
	C515.11,767.841,516.49,761.661,516.43,757.001z"/>
<path class="st1" d="M380.95,757.281c4.21,0.27,8.72-0.82,12.74,0.67c0.44,3.45,0.19,6.95,0.06,10.42
	c-4.26,0.29-8.53,0.28-12.79,0.23C380.96,764.821,380.96,761.041,380.95,757.281z"/>
<path class="st1" d="M417.54,757.271c3.95-0.34,7.96-0.34,11.92-0.01c0.21,0.2,0.63,0.6,0.84,0.8c0.39,8.42,0.11,16.87,0.1,25.31
	c-4.2,0.33-8.45,0.63-12.64,0.12c-1.73-0.74-0.87-3.04-1.16-4.48c0.18-6.91-0.3-13.86,0.23-20.75
	C417.01,758.011,417.36,757.521,417.54,757.271z"/>
<path class="st1" d="M455.71,757.271c4.03,0.11,8.14-0.43,12.13,0.34c1.27,2.86,1.12,6.96,0.12,9.95
	c-4.02,0.84-8.18,0.22-12.26,0.36C455.7,764.371,455.7,760.821,455.71,757.271z"/>
</svg>
