<?xml version="1.0" encoding="utf-8"?>
<!-- Generator: Adobe Illustrator 22.1.0, SVG Export Plug-In . SVG Version: 6.00 Build 0)  -->
<svg version="1.1" id="Layer_1" xmlns="http://www.w3.org/2000/svg" xmlns:xlink="http://www.w3.org/1999/xlink" x="0px" y="0px"
	 viewBox="0 0 113.4 113.4" style="enable-background:new 0 0 113.4 113.4;" xml:space="preserve">
<style type="text/css">
	.st0{fill:#FFFFFF;}
	.st1{fill:#222222;}
	.st2{fill:url(#SVGID_1_);}
	.st3{opacity:0.8;fill:#FFFFFF;}
	.st4{opacity:0.6;fill:#FFFFFF;}
	.st5{opacity:0.2;fill:#FFFFFF;}
	.st6{opacity:0.7;fill:#FFFFFF;}
	.st7{opacity:0.4;fill:#FFFFFF;}
	.st8{fill:#636569;}
	.st9{fill:#C8C8C8;}
	.st10{fill:#F4B223;}
</style>
<g>
	<path class="st0" d="M103.1,44.6c0-13.2-5.1-23.9-11.6-24.6C84.2,8,71.4,0,56.8,0c-0.1,0-0.1,0-0.1,0c-0.3,0-0.7,0-1,0
		c-0.1,0-0.2,0-0.3,0l0.1,0c-9,0.3-17.3,3.6-24,9V5.5c0-2.8-2.3-5.1-5.1-5.1c-2.8,0-5.1,2.3-5.1,5.1v14.6C15,21.6,10.3,32,10.3,44.7
		c0,9.1,2.4,17,6.1,21.3c0.3,1,0.8,2.1,1.4,3.3c0.9,1.9,1.9,3.8,2.7,5.3c0,0,0,0-0.1,0c-5.5,4.1-9.5,7.9-9.5,13.4
		c0,14,20.5,25.3,45.8,25.3c23.6,0,43-9.8,45.5-22.5c0.2-0.9,0.3-1.8,0.3-2.8c0-1.2-0.2-2.5-0.5-3.6c0-0.2-0.1-0.3-0.1-0.5
		c-0.1-0.2-0.1-0.4-0.2-0.6c-0.1-0.2-0.1-0.4-0.2-0.5c-0.1-0.3-0.2-0.5-0.3-0.8c-0.1-0.2-0.1-0.3-0.2-0.5c-0.1-0.3-0.3-0.5-0.4-0.8
		c0-0.1-0.1-0.1-0.1-0.2c-0.2-0.4-0.4-0.8-0.7-1.1c0,0,0,0,0,0c-3.8-4.8-7.1-4.8-7.7-5.5c-0.1-0.1-0.2-0.1-0.3-0.2l-4.6-2.8
		c3.2-0.1,7.4-2.9,7.4-2.9C99.5,64.8,103.1,55.5,103.1,44.6z"/>
	<path class="st1" d="M31.3,67.2C25.1,63,21,55.6,21,47.2c0-13,10-23.6,22.3-23.6h26.5c12.3,0,22.3,10.6,22.3,23.6
		c0,8.9-4.6,16.6-11.5,20.6L80,68.5c-1.8,12.2-11.9,21.6-24,21.6c-12.3,0-22.5-9.7-24.1-22.3L31.3,67.2z"/>
	<g>
		<linearGradient id="SVGID_1_" gradientUnits="userSpaceOnUse" x1="39.8274" y1="8.7362" x2="61.2266" y2="58.3824">
			<stop  offset="0" style="stop-color:#FFFFFF"/>
			<stop  offset="1" style="stop-color:#FFFFFF;stop-opacity:0"/>
		</linearGradient>
		<path class="st2" d="M73.8,31.1c-0.8-0.1-1.6-0.2-2.4-0.2H41.5c-8.6,0-15.5,7.3-15.5,16.4s7,16.4,15.5,16.4c5.5,0,10.3-3,13.1-7.5
			h3.8c2.8,4.5,7.6,7.5,13.1,7.5c8.6,0,15.5-7.3,15.5-16.4C86.9,39.1,81.3,32.3,73.8,31.1z"/>
		<path class="st3" d="M32.1,47.5c3.2,0.5,5.7,2.7,6.8,5.7c1-3,3.6-5.2,6.8-5.7c-3.2-0.5-5.7-2.7-6.8-5.7
			C37.8,44.8,35.3,47,32.1,47.5z"/>
		<path class="st4" d="M71.3,42.6c0.6,0.1,1.1,0.5,1.3,1.1c0.2-0.6,0.7-1,1.3-1.1c-0.6-0.1-1.1-0.5-1.3-1.1
			C72.4,42,71.9,42.5,71.3,42.6z"/>
		<path class="st0" d="M69.2,49.9c1.3,0.2,2.4,1.1,2.8,2.3c0.4-1.2,1.5-2.1,2.8-2.3c-1.3-0.2-2.4-1.1-2.8-2.3
			C71.6,48.8,70.5,49.7,69.2,49.9z"/>
		<path class="st0" d="M40.2,77.9c1.4,0.2,2.6,1.2,3,2.6c0.5-1.3,1.6-2.3,3-2.6c-1.4-0.2-2.6-1.2-3-2.6
			C42.8,76.7,41.6,77.7,40.2,77.9z"/>
		<path class="st5" d="M45.4,67.4c1,0.2,1.8,0.8,2.1,1.7c0.3-0.9,1.1-1.6,2.1-1.7c-1-0.2-1.8-0.8-2.1-1.7
			C47.2,66.6,46.4,67.3,45.4,67.4z"/>
		<path class="st6" d="M47.5,39.7c0.8,0.1,1.4,0.7,1.7,1.4c0.3-0.7,0.9-1.3,1.7-1.4c-0.8-0.1-1.4-0.7-1.7-1.4
			C49,39,48.3,39.6,47.5,39.7z"/>
		<path class="st7" d="M65.3,46.2c1.2,0.2,2.1,1,2.5,2.1c0.4-1.1,1.3-1.9,2.5-2.1c-1.2-0.2-2.1-1-2.5-2.1
			C67.4,45.2,66.5,46,65.3,46.2z"/>
		<path class="st0" d="M74.4,46.5c0.8,0.1,1.5,0.7,1.7,1.4c0.3-0.8,0.9-1.3,1.7-1.4c-0.8-0.1-1.5-0.7-1.7-1.4
			C75.8,45.8,75.2,46.3,74.4,46.5z"/>
	</g>
	<g>
		<g>
			<path class="st8" d="M72.6,85.2L72.6,85.2c0,0-0.2,0.1-0.3,0.1c-6,4.5-13.2,7.1-21.1,7.1c-12.9,0-24.3-7.1-30.8-17.9
				c-2.8,3.1-4.4,6.6-4.4,10.3c0,12.6,18.1,22.7,40.5,22.7c20.9,0,38-8.9,40.2-20.2C95.6,71.1,72.6,85.2,72.6,85.2z"/>
			<path class="st8" d="M72.3,85.4c0.1-0.1,0.3-0.2,0.4-0.2l0.2-0.2C72.7,85.1,72.5,85.2,72.3,85.4z"/>
		</g>
		<path class="st8" d="M55.2,5.8l-0.5,0.1c-4.4,0.6-7.8,4.3-7.8,8.9c0,0.1,0,0.1,0,0.2c0.1,4.6,3.7,8.4,8.2,8.8h5.4l0,0h9
			C82,23.7,92,34.2,92,47.3c0,8.9-4.6,16.6-11.5,20.6l0,0H85h1.6h0.1c0.9,0,1.7-0.2,2.5-0.6c4.8-2.3,8.3-11.1,8.3-21.6
			c0-11.8-4.5-21.5-10.3-22.1c-6.4-10.7-17.8-17.9-30.7-18c-0.1,0-0.1,0-0.2,0c-0.3,0-0.6,0-0.9,0C55.4,5.7,55.3,5.7,55.2,5.8z"/>
	</g>
	<g>
		<path class="st9" d="M31.9,67.8l-0.6-0.6c-1.8-1.2-3.5-2.8-4.9-4.5c-3.4-4.1-5.4-9.5-5.4-15.4c0-2.6,0.4-5,1.1-7.3l-0.1-0.2
			l0.2-0.1c0.9-2.9,2.4-5.5,4.2-7.8c4.1-5,10.1-8.2,16.9-8.2h12.8c-5,0-9-4-9-9c0-5,3.9-8.9,8.8-8.9c-7.6,0-15.4,1.8-23.6,9.1
			c0,0-2.1,2.1-4.6,5.4v-5.9c0.7-0.5,1.2-1.3,1.2-2.2V5.6c0-1.5-1.2-2.7-2.7-2.7c-1.5,0-2.7,1.2-2.7,2.7v6.5c0,0.9,0.5,1.8,1.2,2.2
			v9.5c-5.2,1.7-9.1,10.9-9.1,22c0,8.2,2.2,15.3,5.4,19.2c3.6,10.5,11.9,20.7,29.9,24.4C40.8,87.1,33.2,78.5,31.9,67.8z"/>
		<path class="st9" d="M59.8,97.7c1.5,0,2.7,1.2,2.7,2.7l0,0c0,1.5-1.2,2.7-2.7,2.7h-6.5c-1.5,0-2.7-1.2-2.7-2.7l0,0
			c0-1.5,1.2-2.7,2.7-2.7H59.8z"/>
	</g>
	<g>
		<path class="st10" d="M89.3,67.3c-0.8,0.4-1.7,0.6-2.5,0.6h-0.1h-6.1H75c-3.9,0-7,3.1-7,7l0,0.4c0,2.8-2.3,5.1-5.1,5.1h0
			c-0.5-0.8-1.3-1.3-2.3-1.3H54c-1.5,0-2.7,1.2-2.7,2.7c0,1.5,1.2,2.7,2.7,2.7h6.5c1.1,0,2.1-0.7,2.5-1.7l0.4,0c3.9,0,7-3.1,7-7
			l0-0.4c0-2.8,2.3-4.9,5.1-4.9h4c-2.6,11-11.9,19.2-23.1,19.5c0,0,0.1,0,0.1,0c5.2,0.1,10.8-1.7,16.1-4.8l-0.1,0.1
			c0,0,23-14.2,24.2,2.2c0,0,2.2-6.5-4.6-13.4c-1.1-1.1-2.4-2.2-3.9-3.3c-0.2-0.1-0.4-0.3-0.6-0.4C88.2,69.4,88.8,68.4,89.3,67.3z"
			/>
		<path class="st10" d="M69.8,100.4c0,1.5-1.2,2.7-2.7,2.7c-1.5,0-2.7-1.2-2.7-2.7c0-1.5,1.2-2.7,2.7-2.7
			C68.5,97.7,69.8,98.9,69.8,100.4z"/>
		<path class="st10" d="M48.6,100.4c0,1.5-1.2,2.7-2.7,2.7c-1.5,0-2.7-1.2-2.7-2.7c0-1.5,1.2-2.7,2.7-2.7
			C47.4,97.7,48.6,98.9,48.6,100.4z"/>
	</g>
</g>
</svg>
