<?xml version="1.0" encoding="utf-8"?>
<!-- Generator: Adobe Illustrator 21.0.2, SVG Export Plug-In . SVG Version: 6.00 Build 0)  -->
<svg version="1.1" id="Layer_1" xmlns="http://www.w3.org/2000/svg" xmlns:xlink="http://www.w3.org/1999/xlink" x="0px" y="0px"
	 viewBox="0 0 441.9 441.9" style="enable-background:new 0 0 441.9 441.9;" xml:space="preserve">
<style type="text/css">
	.st0{fill:#19005E;}
	.st1{fill:#070930;}
</style>
<g id="_x23_5d0201ff">
	<g>
		<path class="st0" d="M0.1,38.8c11.9,8.1,23.4,16.8,35.2,25c1.3,1,3,1.9,3,3.8c1.6,10.5,4.8,20.7,8.7,30.6
			c13.5,33,33,63.1,54.5,91.4c25.6,33.1,54.3,63.9,86.6,90.5c1.5,1.2,2.9,2.7,3.1,4.7c8,32.8,15.8,65.7,23.8,98.6
			c1.2,6.5,3.5,12.8,4.3,19.4c-23-31.5-47.9-61.8-75.8-89.1c-17.8-17.8-36.8-34.3-57.4-48.6c-8.9-6.1-18.1-11.7-27.8-16.4
			c-8.1-3.2-14.6-9.2-21.7-14.1C18.8,221.2,4.5,201.9,1,179.6c-0.4-4.3-0.4-8.6-0.3-12.9c11.6,7.4,22.5,15.9,33.7,23.9
			c-14.9-11.9-27.1-28-31.8-46.7c-2.1-6.4-2-13.2-1.8-19.8c10.6,7.5,21.3,15,31.7,22.7c-10-9.3-19.4-19.7-25-32.3
			C2.9,104.2,0,93.1,0.9,81.9c11,7.3,21.5,15.4,32.4,22.8C13.5,88.9-1.1,64.7,0.1,38.8z"/>
		<path class="st0" d="M404,66c12.3-9.5,25.2-18.2,37.8-27.2c1.2,25.8-13.4,50.1-33.1,65.8c10.9-7.5,21.5-15.3,32.3-22.9
			c1,15-4.1,29.8-12,42.4c-5.6,8.8-12.8,16.4-20.6,23.2c10.9-7.8,21.8-15.6,32.8-23.3c1.7,25.7-13.1,49.8-32.5,65.6
			c11.1-7.6,21.7-16.1,33.1-23.3c0.5,17.1-5.7,34.1-15.9,47.7c-9.8,13.3-23.4,22.9-36.9,32c-22.1,9.9-41.9,24.3-60.4,39.7
			c-27.2,23-51.9,48.9-74.6,76.3c-11.1,13.3-21.4,27.2-31.9,41c9.3-39.2,18.8-78.4,28.2-117.6c0.3-2,1.2-3.9,3-5.1
			c25.4-20.8,48.5-44.3,69.7-69.3c13.5-16,26.2-32.7,37.8-50.1c15-22.8,28.8-46.7,37.6-72.7C401.2,81.1,402.3,73.5,404,66z"/>
	</g>
</g>
<g id="_x23_2f0706ff">
	<g>
		<path class="st1" d="M52.9,76.6c35.8,25.1,71.1,50.8,106.6,76.1c1.8,1,2.8,2.8,3.1,4.8c9.2,38.3,18.3,76.6,27.5,114.9
			c-14.5-11.5-28-24.3-40.9-37.6c-20.9-21.7-40-45.1-56.9-70.1c-10.1-15.1-19.4-30.7-27-47.2C59.6,104.6,54.3,91,52.9,76.6z"/>
		<path class="st1" d="M361.3,95.5c8.9-6.2,17.5-12.8,26.6-18.8c-1.5,14.6-6.9,28.3-12.8,41.6c-10.8,23.1-24.6,44.6-39.8,65.1
			c-15.3,20.5-32,39.9-50.1,58c-11.1,10.8-22.2,21.6-34.5,31c9-38.3,18.4-76.6,27.4-114.9c0.4-1.8,1.1-3.5,2.8-4.4
			C307.7,133.8,334.5,114.6,361.3,95.5z"/>
		<path class="st1" d="M52.8,260.3c4,1.2,8,2.6,11.7,4.4c23.5,11.1,44,27.5,63.3,44.7c29.6,27.2,56.5,57.5,79.9,90.2
			c-17.1-11.5-33.6-24-50.4-35.8c-22.5-16.1-45.1-32.1-67.6-48.3C71.6,302.1,56.6,282.9,52.8,260.3z"/>
		<path class="st1" d="M340.2,287.3c14.9-10.9,30.6-21.4,48.3-27c-2.3,15.8-10.8,30.2-21.5,41.8c-8.8,9.5-19.7,16.4-30.1,24
			c-34.5,24.5-68.8,49.2-103.1,73.8c9.9-14.8,21.4-28.5,32.9-42.1C288.9,332.1,313,307.8,340.2,287.3z"/>
	</g>
</g>
</svg>
