<?xml version="1.0" encoding="utf-8"?>
<!-- Generator: Adobe Illustrator 21.0.0, SVG Export Plug-In . SVG Version: 6.00 Build 0)  -->
<svg version="1.1" id="Layer_1" xmlns="http://www.w3.org/2000/svg" xmlns:xlink="http://www.w3.org/1999/xlink" x="0px" y="0px"
	 viewBox="0 0 455.3 455.3" style="enable-background:new 0 0 455.3 455.3;" xml:space="preserve">
<style type="text/css">
	.st0{fill:url(#SVGID_1_);}
</style>
<linearGradient id="SVGID_1_" gradientUnits="userSpaceOnUse" x1="199.1491" y1="431.1451" x2="199.1491" y2="10.9332">
	<stop  offset="0.7" style="stop-color:#7A2130"/>
	<stop  offset="1" style="stop-color:#AA717A"/>
</linearGradient>
<path class="st0" d="M185.5,24.4c47.6-17.3,101.5-18.5,149,0c0.7,1.9-1,3.3-1.9,4.7c-8.4,13.1-17.7,25.6-26.1,38.8
	c-28.9-8.2-60.3-9.6-89.1-0.4c-31.9-43-10-12.8-14.8-19.3C197.2,40,217.4,67.4,185.5,24.4z M59.6,160.1
	c16.1-54.8,56.1-101.4,107-127c0,19.6,0,39.3,0,58.9c-47.7,33.2-72.7,94.4-64.6,151.5c6,42.3,29.6,82.1,64.6,106.7
	c0.2,8.3-0.1,16.5,0.1,24.8c51.7,0,0,0,51.7,0c17.2,5,35.4,6.6,53.3,6c15.3-1.2,30.3-4.8,44.8-9.8c10.2,13.7,20.7,27.3,31.2,40.8
	c-21,10.1-43.9,15.7-67,17.9c-51.3,5.6-104.2-9.6-145.4-40.5c-25.4-19.3-46.9-44-61.5-72.5C49.1,269.2,43.7,211.6,59.6,160.1z"/>
<path d="M341.7,87.1c21,0,41.9-0.1,62.9,0c0,66.4,0.2,132.7-0.1,199.1c-20.8-26.6-41.9-52.8-62.6-79.5
	C341.3,166.9,341.8,127,341.7,87.1z"/>
<path d="M185.5,24.4c31.9,43,0,0,31.9,43c187,258,0,0,187,258c0.5,43.3,0.3,86.6,0.1,129.9C346,375.8,288.7,295.1,229.8,215.9
	c-0.3,53.1,0.1,106.1-0.2,159.2c-62.9,0,0,0-62.9,0c-0.2-8.3,0.1-16.5-0.1-24.8c0.1-86.1,0.1-172.2,0-258.3c0.1-19.6,0-39.3,0-58.9
	c0.1-11-0.1-22.1,0.1-33.1"/>
</svg>
