<?xml version="1.0" encoding="utf-8"?>
<!-- Generator: Adobe Illustrator 21.0.0, SVG Export Plug-In . SVG Version: 6.00 Build 0)  -->
<svg version="1.1" id="Layer_1" xmlns="http://www.w3.org/2000/svg" xmlns:xlink="http://www.w3.org/1999/xlink" x="0px" y="0px"
	 viewBox="0 0 1000 1000" style="enable-background:new 0 0 1000 1000;" xml:space="preserve">
<style type="text/css">
	.st0{fill:#070911;stroke:#070911;stroke-width:0.0938;}
</style>
<path class="st0" d="M353.14,34.12C415.87,8.73,485.05-0.2,552.22,7.83c88.84,10.34,173.73,51.57,236.73,115.06
	c-39.24-15.74-82.42-21.35-124.4-16.52c-1.36,0.2-2.7,0.44-4.02,0.72c12.35,6.9,24.8,13.74,36.2,22.19
	c25.57,18.46,47.71,41.66,64.94,68.08c20.15,30.82,33.52,66.06,38.79,102.5c6.55,45.15,1.08,92.07-16.31,134.29
	c-23.9,58.85-70.61,107.96-128.13,134.88c-20.17,9.35-41.49,16.65-63.5,20.09c4.19-4.06,9.01-7.39,13.34-11.3
	c26.53-23.13,48.32-51.7,63.38-83.53c18.35-38.52,26.71-81.7,24.21-124.29c-2.15-39.33-13.63-78.1-33.21-112.28
	c-30.99-54.6-82.75-96.99-142.45-116.48c-39.82-13.25-82.81-15.97-124.16-9.24c5.26-4.68,11.33-8.31,17.21-12.13
	c34.66-21.89,74.71-34.94,115.55-38.21c-4.44-1.48-9.07-2.31-13.66-3.15c-72.38-13.72-148.52-7.31-217.45,18.77
	c-34.82,13.14-67.81,31.13-97.7,53.3c-3.25,2.39-6.41,4.93-9.73,7.23C230.9,103.11,288.59,60.12,353.14,34.12z"/>
<path class="st0" d="M249.57,209.53c37.7-13.77,78.66-18.35,118.5-13.58c47.63,5.57,93.49,25.05,130.67,55.3
	c47.42,38.24,80.51,93.83,91.01,153.87c-7.22-8.38-14.02-17.16-21.91-24.96c-25.47-25.96-56.48-46.47-90.41-59.59
	c-49.67-19.33-105.42-22.46-156.99-9.07c-63.02,16.1-119.06,57.38-153.26,112.68c-25.36,40.42-38.9,88.1-38.68,135.82
	c-0.13,14.54,1.52,29,3.53,43.38c-9.27-11.31-16.57-24.13-23.37-37.04c-15.24-29.7-24.23-62.46-26.99-95.7
	c-4.33,16.38-6.53,33.27-8.3,50.09c-4.67,48.71-0.56,98.29,12.44,145.48c13.41,49.02,36.3,95.42,66.97,135.94
	c1.07,1.46,2.02,3,2.87,4.62c-4.28-2.36-7.77-5.85-11.49-8.96C90.31,751.22,49.05,690.16,26.29,622.67
	C11.86,580.39,4.74,535.66,5,491c0.15-77.35,23.37-154.46,65.99-219.01c13.69-20.86,29.37-40.38,46.62-58.4
	c1.44-1.47,2.98-2.85,4.58-4.13c-0.79,2.96-1.88,5.84-2.94,8.72c-12.9,36.33-17.18,75.61-12.9,113.91c0.21,1.66,0.54,3.31,0.85,4.96
	c12.28-24.4,28.19-47,47.41-66.44C181.23,243.57,213.89,222.48,249.57,209.53z"/>
<path class="st0" d="M842.21,194.79c55.62,43.53,98.97,102.42,124.88,168.08c36.89,93.03,37.22,199.88,0.89,293.13
	c-14.08,36.4-33.53,70.71-57.47,101.53c-10.2,12.89-20.73,25.64-32.78,36.86c2.46-7.98,5.62-15.74,7.78-23.82
	c9.5-33.58,12.31-69.2,7.39-103.78c-5.38,9.58-10.45,19.35-16.69,28.42c-32.85,49.45-83.31,86.97-140.3,103.74
	c-62.56,18.76-132.24,12.48-190.28-17.57c-57.35-29.24-102.81-80.88-124.39-141.55c-4.87-13.57-8.58-27.57-11.09-41.77
	c17.95,23.5,39.68,44.16,64.45,60.35c35,23.04,75.76,37.26,117.51,40.91c37.65,3.37,76.05-1.56,111.53-14.66
	c55.6-20.29,103.58-60.59,133.21-111.83c28.8-49,40.13-107.82,32.22-164.06c-0.4-2.77-0.84-5.53-1.04-8.32
	c8.73,10.53,15.57,22.5,22.08,34.49c16.01,30.41,25.38,64.12,28.25,98.33c7.44-30.8,10.34-62.61,10.09-94.26
	c-0.75-71.35-20.98-142.38-58.07-203.34C861.86,221.46,852.23,207.97,842.21,194.79z"/>
<path class="st0" d="M395.38,411.22c0.71-0.09,2.13-0.27,2.84-0.36c-11.39,9.31-22.66,18.85-32.62,29.72
	c-25.3,27.04-44.67,59.61-56.22,94.8c-13.49,40.93-16.31,85.28-8.32,127.62c6.72,36.01,21.46,70.44,42.61,100.32
	c36.45,51.73,92.66,89.15,154.58,102.4c32.44,7.19,66.16,7.46,98.91,2.27c-38.34,29.27-85.4,46.57-133.42,50.39
	c33.71,8.12,68.61,10.95,103.24,9.9c77.05-2.42,153.17-27.77,216.34-71.95c6.14-4.04,11.69-8.94,17.96-12.79
	c-3.74,5.72-8.52,10.65-12.94,15.84c-48.74,55.03-112.79,96.39-183.12,117.89c-57.83,17.81-119.67,22.24-179.48,13.2
	c-72.76-10.84-142.22-42.36-198.48-89.72c-8.49-7.35-17.23-14.54-24.69-22.95c11.81,4.01,23.59,8.21,35.81,10.88
	c30.03,6.89,61.37,8.61,91.9,4.29c-27.92-14.37-53.72-33.1-74.94-56.33c-24.84-26.82-43.83-59.02-55.24-93.75
	c-13.17-39.93-16.12-83.12-8.89-124.51c6.4-36.77,21.05-72.08,42.55-102.6C271.42,461.81,330.58,423.16,395.38,411.22z"/>
<path class="st0" d="M156.17,807.2C156.71,807.74,156.71,807.74,156.17,807.2z"/>
</svg>
