<?xml version="1.0" encoding="utf-8"?>
<!-- Generator: Adobe Illustrator 21.0.2, SVG Export Plug-In . SVG Version: 6.00 Build 0)  -->
<svg version="1.1" id="Ebene_1" xmlns="http://www.w3.org/2000/svg" xmlns:xlink="http://www.w3.org/1999/xlink" x="0px" y="0px"
	 viewBox="0 0 1902.189 1902.189" style="enable-background:new 0 0 1902.189 1902.189;" xml:space="preserve">
<style type="text/css">
	.st0{fill:#141C31;stroke:url(#SVGID_1_);stroke-width:12;stroke-miterlimit:10;}
	.st1{fill:url(#SVGID_2_);}
	.st2{fill:url(#SVGID_3_);}
	.st3{fill:url(#SVGID_4_);}
	.st4{fill:url(#SVGID_5_);}
	.st5{fill:url(#SVGID_6_);}
	.st6{fill:url(#SVGID_7_);}
	.st7{fill:url(#SVGID_8_);}
	.st8{fill:url(#SVGID_9_);}
	.st9{fill:url(#SVGID_10_);}
	.st10{fill:url(#SVGID_11_);}
	.st11{fill:url(#SVGID_12_);}
	.st12{fill:url(#SVGID_13_);}
	.st13{fill:url(#SVGID_14_);}
	.st14{fill:url(#SVGID_15_);}
	.st15{fill:url(#SVGID_16_);}
	.st16{fill:url(#SVGID_17_);}
	.st17{fill:url(#SVGID_18_);}
	.st18{fill:url(#SVGID_19_);}
	.st19{fill:url(#SVGID_20_);}
	.st20{fill:url(#SVGID_21_);}
	.st21{fill:url(#SVGID_22_);}
	.st22{fill:url(#SVGID_23_);}
	.st23{fill:url(#SVGID_24_);}
	.st24{fill:url(#SVGID_25_);}
	.st25{fill:url(#SVGID_26_);}
	.st26{fill:url(#SVGID_27_);}
	.st27{fill:url(#SVGID_28_);}
	.st28{fill:url(#SVGID_29_);}
	.st29{fill:url(#SVGID_30_);}
	.st30{fill:url(#SVGID_31_);}
	.st31{fill:url(#SVGID_32_);}
	.st32{fill:url(#SVGID_33_);}
	.st33{fill:url(#SVGID_34_);}
	.st34{fill:url(#SVGID_35_);}
	.st35{fill:url(#SVGID_36_);}
	.st36{fill:url(#SVGID_37_);}
	.st37{fill:url(#SVGID_38_);}
	.st38{fill:url(#SVGID_39_);}
	.st39{fill:url(#SVGID_40_);}
	.st40{fill:url(#SVGID_41_);}
	.st41{fill:url(#SVGID_42_);}
	.st42{fill:url(#SVGID_43_);}
	.st43{fill:url(#SVGID_44_);}
	.st44{fill:url(#SVGID_45_);}
	.st45{fill:url(#SVGID_46_);}
	.st46{fill:#FFFFFF;}
	.st47{fill:url(#SVGID_47_);}
	.st48{fill:#141C31;}
	.st49{fill:url(#SVGID_48_);}
	.st50{fill:url(#SVGID_49_);}
	.st51{fill:url(#SVGID_50_);}
	.st52{fill:url(#SVGID_51_);}
	.st53{fill:url(#SVGID_52_);}
	.st54{fill:url(#SVGID_53_);}
	.st55{fill:url(#SVGID_54_);}
	.st56{fill:url(#SVGID_55_);}
	.st57{fill:url(#SVGID_56_);}
	.st58{fill:url(#SVGID_57_);}
</style>
<linearGradient id="SVGID_1_" gradientUnits="userSpaceOnUse" x1="0" y1="951.0945" x2="1902.189" y2="951.0945">
	<stop  offset="0" style="stop-color:#F7C13B"/>
	<stop  offset="1" style="stop-color:#ED8918"/>
</linearGradient>
<circle class="st0" cx="951.094" cy="951.094" r="945.094"/>
<g>
	<g>
		<linearGradient id="SVGID_2_" gradientUnits="userSpaceOnUse" x1="690.2945" y1="1557.9117" x2="788.2692" y2="1557.9117">
			<stop  offset="0" style="stop-color:#F7C13B"/>
			<stop  offset="1" style="stop-color:#ED8918"/>
		</linearGradient>
		<path class="st1" d="M693.939,1474.699c0,0,58.76,19.245,78.245,63.908c24.341,55.802,13.825,102.517,13.825,102.517
			s-58.879-29.16-78.598-59.416C679.734,1539.238,693.939,1474.699,693.939,1474.699z"/>
		<linearGradient id="SVGID_3_" gradientUnits="userSpaceOnUse" x1="590.832" y1="1679.6616" x2="768.0494" y2="1679.6616">
			<stop  offset="0" style="stop-color:#F7C13B"/>
			<stop  offset="1" style="stop-color:#ED8918"/>
		</linearGradient>
		<path class="st2" d="M590.832,1719.831c0,0,59.394,17.374,102.755-7.816c54.136-31.475,74.462-75.145,74.462-75.145
			s-65.635-9.424-100.242,3.985C619.189,1659.692,590.832,1719.831,590.832,1719.831z"/>
	</g>
	<g>
		<linearGradient id="SVGID_4_" gradientUnits="userSpaceOnUse" x1="589.2065" y1="1514.3632" x2="671.5311" y2="1514.3632">
			<stop  offset="0" style="stop-color:#F7C13B"/>
			<stop  offset="1" style="stop-color:#ED8918"/>
		</linearGradient>
		<path class="st3" d="M602.476,1426.589c0,0,53.29,28.11,64.11,74.37c13.522,57.797-4.976,101.178-4.976,101.178
			s-51.624-37.679-65.238-70.075C577.24,1486.568,602.476,1426.589,602.476,1426.589z"/>
		<linearGradient id="SVGID_5_" gradientUnits="userSpaceOnUse" x1="459.1557" y1="1621.257" x2="645.0388" y2="1621.257">
			<stop  offset="0" style="stop-color:#F7C13B"/>
			<stop  offset="1" style="stop-color:#ED8918"/>
		</linearGradient>
		<path class="st4" d="M459.156,1646.443c0,0,54.251,26.415,100.595,9.114c57.843-21.592,85.288-60.434,85.288-60.434
			s-61.652-19.736-97.475-12.411C497.28,1593.003,459.156,1646.443,459.156,1646.443z"/>
	</g>
	<g>
		<linearGradient id="SVGID_6_" gradientUnits="userSpaceOnUse" x1="493.6701" y1="1453.6965" x2="569.1077" y2="1453.6965">
			<stop  offset="0" style="stop-color:#F7C13B"/>
			<stop  offset="1" style="stop-color:#ED8918"/>
		</linearGradient>
		<path class="st5" d="M520.33,1364.191c0,0,46.366,35.771,48.575,82.155c2.724,57.984-22.887,96.856-22.887,96.856
			s-43.078-44.734-50.431-78.227C485.212,1417.987,520.33,1364.191,520.33,1364.191z"/>
		<linearGradient id="SVGID_7_" gradientUnits="userSpaceOnUse" x1="342.7327" y1="1542.866" x2="531.2961" y2="1542.866">
			<stop  offset="0" style="stop-color:#F7C13B"/>
			<stop  offset="1" style="stop-color:#ED8918"/>
		</linearGradient>
		<path class="st6" d="M342.733,1553.138c0,0,47.615,34.283,95.435,25.112c59.698-11.475,93.128-44.507,93.128-44.507
			s-55.992-29.046-91.864-27.779C389.077,1507.747,342.733,1553.138,342.733,1553.138z"/>
	</g>
	<g>
		<linearGradient id="SVGID_8_" gradientUnits="userSpaceOnUse" x1="408.7058" y1="1376.9456" x2="483.5133" y2="1376.9456">
			<stop  offset="0" style="stop-color:#F7C13B"/>
			<stop  offset="1" style="stop-color:#ED8918"/>
		</linearGradient>
		<path class="st7" d="M450.632,1288.481c0,0,38.384,42.037,32.209,87.164c-7.699,56.402-39.345,89.764-39.345,89.764
			s-33.599-50.162-34.749-83.675C407.179,1334.71,450.632,1288.481,450.632,1288.481z"/>
		<linearGradient id="SVGID_9_" gradientUnits="userSpaceOnUse" x1="245.4964" y1="1446.5934" x2="430.9344" y2="1446.5934">
			<stop  offset="0" style="stop-color:#F7C13B"/>
			<stop  offset="1" style="stop-color:#ED8918"/>
		</linearGradient>
		<path class="st8" d="M245.496,1442.05c0,0,39.839,40.801,87.638,39.695c59.676-1.38,97.8-27.868,97.8-27.868
			s-48.829-37.105-83.671-41.69C298.32,1405.736,245.496,1442.05,245.496,1442.05z"/>
	</g>
	<g>
		<linearGradient id="SVGID_10_" gradientUnits="userSpaceOnUse" x1="337.5763" y1="1287.4258" x2="414.5986" y2="1287.4258">
			<stop  offset="0" style="stop-color:#F7C13B"/>
			<stop  offset="1" style="stop-color:#ED8918"/>
		</linearGradient>
		<path class="st9" d="M395.296,1202.628c0,0,29.562,46.795,15.518,89.348c-17.51,53.182-54.017,80.248-54.017,80.248
			s-23.452-53.833-18.547-86.373C345.082,1240.201,395.296,1202.628,395.296,1202.628z"/>
		<linearGradient id="SVGID_11_" gradientUnits="userSpaceOnUse" x1="169.8832" y1="1336.6448" x2="346.7483" y2="1336.6448">
			<stop  offset="0" style="stop-color:#F7C13B"/>
			<stop  offset="1" style="stop-color:#ED8918"/>
		</linearGradient>
		<path class="st10" d="M169.883,1317.59c0,0,31.173,45.831,77.469,52.509c57.843,8.343,99.396-11.026,99.396-11.026
			s-40.517-43.727-73.313-53.802C227.352,1291.107,169.883,1317.59,169.883,1317.59z"/>
	</g>
	<g>
		<linearGradient id="SVGID_12_" gradientUnits="userSpaceOnUse" x1="283.09" y1="1188.0515" x2="365.8101" y2="1188.0515">
			<stop  offset="0" style="stop-color:#F7C13B"/>
			<stop  offset="1" style="stop-color:#ED8918"/>
		</linearGradient>
		<path class="st11" d="M357.15,1109.327c0,0,20.142,49.958-1.009,88.749c-26.387,48.499-66.437,68.7-66.437,68.7
			s-13.029-55.766-2.513-86.366C301.982,1137.459,357.15,1109.327,357.15,1109.327z"/>
		<linearGradient id="SVGID_13_" gradientUnits="userSpaceOnUse" x1="119.0786" y1="1217.1169" x2="282.3562" y2="1217.1169">
			<stop  offset="0" style="stop-color:#F7C13B"/>
			<stop  offset="1" style="stop-color:#ED8918"/>
		</linearGradient>
		<path class="st12" d="M119.079,1183.731c0,0,21.878,49.302,65.358,63.251c54.348,17.434,97.92,5.48,97.92,5.48
			s-31.271-48.772-61.131-63.841C179.249,1167.5,119.079,1183.731,119.079,1183.731z"/>
	</g>
	<g>
		<linearGradient id="SVGID_14_" gradientUnits="userSpaceOnUse" x1="242.7298" y1="1082.0464" x2="338.106" y2="1082.0464">
			<stop  offset="0" style="stop-color:#F7C13B"/>
			<stop  offset="1" style="stop-color:#ED8918"/>
		</linearGradient>
		<path class="st13" d="M336.113,1011.532c0,0,10.522,51.484-16.783,85.484c-34.158,42.538-76.438,55.544-76.438,55.544
			s-2.605-55.942,13.05-83.763C277.847,1029.734,336.113,1011.532,336.113,1011.532z"/>
		<linearGradient id="SVGID_15_" gradientUnits="userSpaceOnUse" x1="93.0654" y1="1091.0239" x2="238.3826" y2="1091.0239">
			<stop  offset="0" style="stop-color:#F7C13B"/>
			<stop  offset="1" style="stop-color:#ED8918"/>
		</linearGradient>
		<path class="st14" d="M93.065,1044.745c0,0,12.328,51.124,51.793,71.646c49.297,25.624,93.525,21.155,93.525,21.155
			s-21.504-52.137-47.609-71.504C154.034,1038.834,93.065,1044.745,93.065,1044.745z"/>
	</g>
	<g>
		<linearGradient id="SVGID_16_" gradientUnits="userSpaceOnUse" x1="218.0079" y1="971.6346" x2="333.186" y2="971.6346">
			<stop  offset="0" style="stop-color:#F7C13B"/>
			<stop  offset="1" style="stop-color:#ED8918"/>
		</linearGradient>
		<path class="st15" d="M333.183,911.137c0,0,0.96,51.396-31.51,79.798c-40.539,35.498-83.665,41.196-83.665,41.196
			s7.509-54.391,27.559-78.72C273.718,919.25,333.183,911.137,333.183,911.137z"/>
		<linearGradient id="SVGID_17_" gradientUnits="userSpaceOnUse" x1="92.6692" y1="960.3426" x2="216.3149" y2="960.3426">
			<stop  offset="0" style="stop-color:#F7C13B"/>
			<stop  offset="1" style="stop-color:#ED8918"/>
		</linearGradient>
		<path class="st16" d="M92.669,903.779c0,0,2.746,51.344,37.207,77.549c43.008,32.727,86.439,35.578,86.439,35.578
			s-11.406-53.805-33.149-76.733C152.58,907.974,92.669,903.779,92.669,903.779z"/>
	</g>
	<g>
		<linearGradient id="SVGID_18_" gradientUnits="userSpaceOnUse" x1="215.4954" y1="857.6391" x2="348.2513" y2="857.6391">
			<stop  offset="0" style="stop-color:#F7C13B"/>
			<stop  offset="1" style="stop-color:#ED8918"/>
		</linearGradient>
		<path class="st17" d="M348.251,808.595c0,0-8.237,49.757-44.674,71.897c-45.449,27.7-88.082,26.2-88.082,26.2
			s16.924-51.277,40.658-71.504C289.372,806.788,348.251,808.595,348.251,808.595z"/>
		<linearGradient id="SVGID_19_" gradientUnits="userSpaceOnUse" x1="116.8188" y1="827.1199" x2="216.575" y2="827.1199">
			<stop  offset="0" style="stop-color:#F7C13B"/>
			<stop  offset="1" style="stop-color:#ED8918"/>
		</linearGradient>
		<path class="st18" d="M117.462,762.503c0,0-6.528,50,22.019,80.871c35.682,38.56,77.095,48.364,77.095,48.364
			s-1.411-53.784-18.313-79.447C174.528,776.266,117.462,762.503,117.462,762.503z"/>
	</g>
	<g>
		<linearGradient id="SVGID_20_" gradientUnits="userSpaceOnUse" x1="236.3862" y1="744.6182" x2="382.0345" y2="744.6182">
			<stop  offset="0" style="stop-color:#F7C13B"/>
			<stop  offset="1" style="stop-color:#ED8918"/>
		</linearGradient>
		<path class="st19" d="M382.035,708.593c0,0-16.832,46.678-55.944,62.145c-48.852,19.367-89.705,10.997-89.705,10.997
			s25.519-46.743,52.026-62.414C325.548,697.313,382.035,708.593,382.035,708.593z"/>
		<linearGradient id="SVGID_21_" gradientUnits="userSpaceOnUse" x1="162.39" y1="697.0844" x2="242.9274" y2="697.0844">
			<stop  offset="0" style="stop-color:#F7C13B"/>
			<stop  offset="1" style="stop-color:#ED8918"/>
		</linearGradient>
		<path class="st20" d="M167.485,626.69c0,0-15.188,47.201,6.88,81.615c27.537,43.003,65.732,59.173,65.732,59.173
			s8.264-52.112-3.451-79.63C220.145,649.218,167.485,626.69,167.485,626.69z"/>
	</g>
	<g>
		<linearGradient id="SVGID_22_" gradientUnits="userSpaceOnUse" x1="280.4787" y1="637.9992" x2="434.0815" y2="637.9992">
			<stop  offset="0" style="stop-color:#F7C13B"/>
			<stop  offset="1" style="stop-color:#ED8918"/>
		</linearGradient>
		<path class="st21" d="M434.082,615.84c0,0-24.58,42.323-65.076,50.907c-50.593,10.772-88.527-3.931-88.527-3.931
			s32.959-40.971,61.316-51.801C381.589,595.789,434.082,615.84,434.082,615.84z"/>
		<linearGradient id="SVGID_23_" gradientUnits="userSpaceOnUse" x1="228.5795" y1="575.8313" x2="298.9074" y2="575.8313">
			<stop  offset="0" style="stop-color:#F7C13B"/>
			<stop  offset="1" style="stop-color:#ED8918"/>
		</linearGradient>
		<path class="st22" d="M241.693,502.002c0,0-23.099,43.096-7.982,79.886c18.899,45.978,52.916,67.772,52.916,67.772
			s17.276-48.969,10.847-77.42C288.46,532.284,241.693,502.002,241.693,502.002z"/>
	</g>
	<g>
		<linearGradient id="SVGID_24_" gradientUnits="userSpaceOnUse" x1="1113.9198" y1="1557.9117" x2="1211.903" y2="1557.9117">
			<stop  offset="0" style="stop-color:#F7C13B"/>
			<stop  offset="1" style="stop-color:#ED8918"/>
		</linearGradient>
		<path class="st23" d="M1208.25,1474.699c0,0-58.781,19.245-78.245,63.908c-24.342,55.802-13.826,102.517-13.826,102.517
			s58.879-29.16,78.597-59.416C1222.477,1539.238,1208.25,1474.699,1208.25,1474.699z"/>
		<linearGradient id="SVGID_25_" gradientUnits="userSpaceOnUse" x1="1134.1396" y1="1679.6616" x2="1311.3793" y2="1679.6616">
			<stop  offset="0" style="stop-color:#F7C13B"/>
			<stop  offset="1" style="stop-color:#ED8918"/>
		</linearGradient>
		<path class="st24" d="M1311.379,1719.831c0,0-59.416,17.374-102.777-7.816c-54.109-31.475-74.463-75.145-74.463-75.145
			s65.635-9.424,100.243,3.985C1283.001,1659.692,1311.379,1719.831,1311.379,1719.831z"/>
	</g>
	<g>
		<linearGradient id="SVGID_26_" gradientUnits="userSpaceOnUse" x1="1230.6685" y1="1514.3632" x2="1312.9871" y2="1514.3632">
			<stop  offset="0" style="stop-color:#F7C13B"/>
			<stop  offset="1" style="stop-color:#ED8918"/>
		</linearGradient>
		<path class="st25" d="M1299.735,1426.589c0,0-53.312,28.11-64.11,74.37c-13.549,57.797,4.976,101.178,4.976,101.178
			s51.602-37.679,65.217-70.075C1324.95,1486.568,1299.735,1426.589,1299.735,1426.589z"/>
		<linearGradient id="SVGID_27_" gradientUnits="userSpaceOnUse" x1="1257.1504" y1="1621.257" x2="1443.0333" y2="1621.257">
			<stop  offset="0" style="stop-color:#F7C13B"/>
			<stop  offset="1" style="stop-color:#ED8918"/>
		</linearGradient>
		<path class="st26" d="M1443.033,1646.443c0,0-54.251,26.415-100.568,9.114c-57.87-21.592-85.315-60.434-85.315-60.434
			s61.652-19.736,97.475-12.411C1404.909,1593.003,1443.033,1646.443,1443.033,1646.443z"/>
	</g>
	<g>
		<linearGradient id="SVGID_28_" gradientUnits="userSpaceOnUse" x1="1333.1003" y1="1453.6965" x2="1408.5205" y2="1453.6965">
			<stop  offset="0" style="stop-color:#F7C13B"/>
			<stop  offset="1" style="stop-color:#ED8918"/>
		</linearGradient>
		<path class="st27" d="M1381.881,1364.191c0,0-46.388,35.771-48.575,82.155c-2.746,57.984,22.866,96.856,22.866,96.856
			s43.078-44.734,50.431-78.227C1416.977,1417.987,1381.881,1364.191,1381.881,1364.191z"/>
		<linearGradient id="SVGID_29_" gradientUnits="userSpaceOnUse" x1="1370.9146" y1="1542.866" x2="1559.4513" y2="1542.866">
			<stop  offset="0" style="stop-color:#F7C13B"/>
			<stop  offset="1" style="stop-color:#ED8918"/>
		</linearGradient>
		<path class="st28" d="M1559.451,1553.138c0,0-47.631,34.283-95.429,25.112c-59.699-11.475-93.107-44.507-93.107-44.507
			s55.993-29.046,91.843-27.779C1513.134,1507.747,1559.451,1553.138,1559.451,1553.138z"/>
	</g>
	<g>
		<linearGradient id="SVGID_30_" gradientUnits="userSpaceOnUse" x1="1418.6934" y1="1376.9456" x2="1493.4785" y2="1376.9456">
			<stop  offset="0" style="stop-color:#F7C13B"/>
			<stop  offset="1" style="stop-color:#ED8918"/>
		</linearGradient>
		<path class="st29" d="M1451.58,1288.481c0,0-38.406,42.037-32.21,87.164c7.678,56.402,39.345,89.764,39.345,89.764
			s33.572-50.162,34.722-83.675C1495.01,1334.71,1451.58,1288.481,1451.58,1288.481z"/>
		<linearGradient id="SVGID_31_" gradientUnits="userSpaceOnUse" x1="1471.2546" y1="1446.5934" x2="1656.7144" y2="1446.5934">
			<stop  offset="0" style="stop-color:#F7C13B"/>
			<stop  offset="1" style="stop-color:#ED8918"/>
		</linearGradient>
		<path class="st30" d="M1656.714,1442.05c0,0-39.86,40.801-87.637,39.695c-59.677-1.38-97.823-27.868-97.823-27.868
			s48.852-37.105,83.665-41.69C1603.869,1405.736,1656.714,1442.05,1656.714,1442.05z"/>
	</g>
	<g>
		<linearGradient id="SVGID_32_" gradientUnits="userSpaceOnUse" x1="1487.6028" y1="1287.4258" x2="1564.6133" y2="1287.4258">
			<stop  offset="0" style="stop-color:#F7C13B"/>
			<stop  offset="1" style="stop-color:#ED8918"/>
		</linearGradient>
		<path class="st31" d="M1506.915,1202.628c0,0-29.557,46.795-15.541,89.348c17.51,53.182,54.017,80.248,54.017,80.248
			s23.452-53.833,18.547-86.373C1557.107,1240.201,1506.915,1202.628,1506.915,1202.628z"/>
		<linearGradient id="SVGID_33_" gradientUnits="userSpaceOnUse" x1="1555.4358" y1="1336.6448" x2="1732.3058" y2="1336.6448">
			<stop  offset="0" style="stop-color:#F7C13B"/>
			<stop  offset="1" style="stop-color:#ED8918"/>
		</linearGradient>
		<path class="st32" d="M1732.306,1317.59c0,0-31.173,45.831-77.468,52.509c-57.848,8.343-99.402-11.026-99.402-11.026
			s40.522-43.727,73.318-53.802C1674.86,1291.107,1732.306,1317.59,1732.306,1317.59z"/>
	</g>
	<g>
		<linearGradient id="SVGID_34_" gradientUnits="userSpaceOnUse" x1="1536.3849" y1="1188.0515" x2="1619.0992" y2="1188.0515">
			<stop  offset="0" style="stop-color:#F7C13B"/>
			<stop  offset="1" style="stop-color:#ED8918"/>
		</linearGradient>
		<path class="st33" d="M1545.061,1109.327c0,0-20.163,49.958,0.987,88.749c26.388,48.499,66.438,68.7,66.438,68.7
			s13.028-55.766,2.512-86.366C1600.207,1137.459,1545.061,1109.327,1545.061,1109.327z"/>
		<linearGradient id="SVGID_35_" gradientUnits="userSpaceOnUse" x1="1619.8551" y1="1217.1169" x2="1783.1327" y2="1217.1169">
			<stop  offset="0" style="stop-color:#F7C13B"/>
			<stop  offset="1" style="stop-color:#ED8918"/>
		</linearGradient>
		<path class="st34" d="M1783.133,1183.731c0,0-21.905,49.302-65.38,63.251c-54.349,17.434-97.898,5.48-97.898,5.48
			s31.249-48.772,61.109-63.841C1722.941,1167.5,1783.133,1183.731,1783.133,1183.731z"/>
	</g>
	<g>
		<linearGradient id="SVGID_36_" gradientUnits="userSpaceOnUse" x1="1564.082" y1="1082.0464" x2="1659.4602" y2="1082.0464">
			<stop  offset="0" style="stop-color:#F7C13B"/>
			<stop  offset="1" style="stop-color:#ED8918"/>
		</linearGradient>
		<path class="st35" d="M1566.071,1011.532c0,0-10.516,51.484,16.81,85.484c34.157,42.538,76.416,55.544,76.416,55.544
			s2.604-55.942-13.028-83.763C1624.342,1029.734,1566.071,1011.532,1566.071,1011.532z"/>
		<linearGradient id="SVGID_37_" gradientUnits="userSpaceOnUse" x1="1663.8064" y1="1091.0239" x2="1809.167" y2="1091.0239">
			<stop  offset="0" style="stop-color:#F7C13B"/>
			<stop  offset="1" style="stop-color:#ED8918"/>
		</linearGradient>
		<path class="st36" d="M1809.167,1044.745c0,0-12.349,51.124-51.836,71.646c-49.296,25.624-93.525,21.155-93.525,21.155
			s21.504-52.137,47.631-71.504C1748.156,1038.834,1809.167,1044.745,1809.167,1044.745z"/>
	</g>
	<g>
		<linearGradient id="SVGID_38_" gradientUnits="userSpaceOnUse" x1="1569.0039" y1="971.6346" x2="1684.1816" y2="971.6346">
			<stop  offset="0" style="stop-color:#F7C13B"/>
			<stop  offset="1" style="stop-color:#ED8918"/>
		</linearGradient>
		<path class="st37" d="M1569.007,911.137c0,0-0.939,51.396,31.531,79.798c40.517,35.498,83.644,41.196,83.644,41.196
			s-7.466-54.391-27.56-78.72C1628.471,919.25,1569.007,911.137,1569.007,911.137z"/>
		<linearGradient id="SVGID_39_" gradientUnits="userSpaceOnUse" x1="1685.8691" y1="960.3426" x2="1809.5198" y2="960.3426">
			<stop  offset="0" style="stop-color:#F7C13B"/>
			<stop  offset="1" style="stop-color:#ED8918"/>
		</linearGradient>
		<path class="st38" d="M1809.52,903.779c0,0-2.745,51.344-37.185,77.549c-43.035,32.727-86.465,35.578-86.465,35.578
			s11.411-53.805,33.148-76.733C1749.61,907.974,1809.52,903.779,1809.52,903.779z"/>
	</g>
	<g>
		<linearGradient id="SVGID_40_" gradientUnits="userSpaceOnUse" x1="1553.9384" y1="857.6391" x2="1686.6936" y2="857.6391">
			<stop  offset="0" style="stop-color:#F7C13B"/>
			<stop  offset="1" style="stop-color:#ED8918"/>
		</linearGradient>
		<path class="st39" d="M1553.938,808.595c0,0,8.237,49.757,44.673,71.897c45.471,27.7,88.082,26.2,88.082,26.2
			s-16.929-51.277-40.663-71.504C1612.812,806.788,1553.938,808.595,1553.938,808.595z"/>
		<linearGradient id="SVGID_41_" gradientUnits="userSpaceOnUse" x1="1685.614" y1="827.1199" x2="1785.3916" y2="827.1199">
			<stop  offset="0" style="stop-color:#F7C13B"/>
			<stop  offset="1" style="stop-color:#ED8918"/>
		</linearGradient>
		<path class="st40" d="M1784.755,762.503c0,0,6.5,50-22.047,80.871c-35.682,38.56-77.095,48.364-77.095,48.364
			s1.405-53.784,18.313-79.447C1727.661,776.266,1784.755,762.503,1784.755,762.503z"/>
	</g>
	<g>
		<linearGradient id="SVGID_42_" gradientUnits="userSpaceOnUse" x1="1520.1552" y1="744.6182" x2="1665.7979" y2="744.6182">
			<stop  offset="0" style="stop-color:#F7C13B"/>
			<stop  offset="1" style="stop-color:#ED8918"/>
		</linearGradient>
		<path class="st41" d="M1520.155,708.593c0,0,16.854,46.678,55.944,62.145c48.851,19.367,89.699,10.997,89.699,10.997
			s-25.519-46.743-51.999-62.414C1576.635,697.313,1520.155,708.593,1520.155,708.593z"/>
		<linearGradient id="SVGID_43_" gradientUnits="userSpaceOnUse" x1="1659.266" y1="697.0844" x2="1739.7997" y2="697.0844">
			<stop  offset="0" style="stop-color:#F7C13B"/>
			<stop  offset="1" style="stop-color:#ED8918"/>
		</linearGradient>
		<path class="st42" d="M1734.704,626.69c0,0,15.188,47.201-6.88,81.615c-27.538,43.003-65.732,59.173-65.732,59.173
			s-8.264-52.112,3.473-79.63C1682.044,649.218,1734.704,626.69,1734.704,626.69z"/>
	</g>
	<g>
		<linearGradient id="SVGID_44_" gradientUnits="userSpaceOnUse" x1="1468.1075" y1="637.9992" x2="1621.7103" y2="637.9992">
			<stop  offset="0" style="stop-color:#F7C13B"/>
			<stop  offset="1" style="stop-color:#ED8918"/>
		</linearGradient>
		<path class="st43" d="M1468.108,615.84c0,0,24.58,42.323,65.076,50.907c50.593,10.772,88.527-3.931,88.527-3.931
			s-32.985-40.971-61.321-51.801C1520.6,595.789,1468.108,615.84,1468.108,615.84z"/>
		<linearGradient id="SVGID_45_" gradientUnits="userSpaceOnUse" x1="1603.2903" y1="575.8313" x2="1673.6278" y2="575.8313">
			<stop  offset="0" style="stop-color:#F7C13B"/>
			<stop  offset="1" style="stop-color:#ED8918"/>
		</linearGradient>
		<path class="st44" d="M1660.497,502.002c0,0,23.12,43.096,8.003,79.886c-18.899,45.978-52.915,67.772-52.915,67.772
			s-17.277-48.969-10.869-77.42C1613.729,532.284,1660.497,502.002,1660.497,502.002z"/>
	</g>
	<g>
		<g>
			<linearGradient id="SVGID_46_" gradientUnits="userSpaceOnUse" x1="839.264" y1="216.2758" x2="1050.3475" y2="216.2758">
				<stop  offset="0" style="stop-color:#F7C13B"/>
				<stop  offset="1" style="stop-color:#ED8918"/>
			</linearGradient>
			<path class="st45" d="M1041.166,184.374l-58.135-5.499c-3.66-0.333-6.825-2.659-8.328-6.165l-20.821-50.465
				c-3.327-8.328-15.153-8.328-18.487,0l-20.658,50.465c-1.326,3.506-4.66,5.832-8.328,6.165l-58.127,5.499
				c-8.661,0.829-12.159,11.662-5.661,17.485l43.804,38.476c2.832,2.507,3.993,6.165,3.165,9.834l-13.159,53.963
				c-2.001,8.499,7.164,15.493,14.826,10.995l48.464-28.48c3.171-1.839,7.002-1.839,10.167,0l48.464,28.48
				c7.67,4.497,16.827-2.334,14.826-10.995l-12.988-53.963c-0.837-3.669,0.333-7.327,3.163-9.834l43.806-38.476
				C1053.488,196.036,1049.827,185.203,1041.166,184.374L1041.166,184.374z M1041.166,184.374"/>
		</g>
	</g>
	<path class="st46" d="M948.69,492.755c116.75,0,226.513,45.465,309.068,128.02c82.555,82.555,128.02,192.317,128.02,309.068
		s-45.465,226.513-128.02,309.067c-82.555,82.555-192.318,128.021-309.068,128.021c-116.75,0-226.513-45.465-309.068-128.021
		c-82.555-82.555-128.02-192.317-128.02-309.067s45.465-226.513,128.02-309.068C722.178,538.22,831.94,492.755,948.69,492.755
		 M948.69,401.221c-291.95,0-528.622,236.673-528.622,528.622s236.672,528.622,528.622,528.622s528.622-236.672,528.622-528.622
		S1240.641,401.221,948.69,401.221L948.69,401.221z"/>
	<linearGradient id="SVGID_47_" gradientUnits="userSpaceOnUse" x1="380.6163" y1="929.8429" x2="1516.7646" y2="929.8429">
		<stop  offset="0" style="stop-color:#3A87C3"/>
		<stop  offset="1" style="stop-color:#005585"/>
	</linearGradient>
	<path class="st47" d="M948.689,453.303c127.289,0,246.959,49.569,336.966,139.575c90.007,90.006,139.575,209.676,139.575,336.964
		c0,127.288-49.569,246.958-139.574,336.966c-90.009,90.006-209.679,139.575-336.967,139.575
		c-127.288,0-246.958-49.569-336.963-139.575c-90.007-90.007-139.575-209.677-139.575-336.966
		c0-127.287,49.569-246.957,139.575-336.963C701.733,502.872,821.402,453.303,948.689,453.303 M948.689,361.769
		c-151.738,0-294.392,59.09-401.688,166.385c-107.295,107.296-166.385,249.95-166.385,401.688
		c0,151.738,59.09,294.395,166.385,401.691c107.294,107.294,249.95,166.385,401.688,166.385s294.395-59.091,401.691-166.385
		c107.294-107.296,166.385-249.952,166.385-401.691c0-151.738-59.091-294.395-166.385-401.688
		C1243.084,420.858,1100.428,361.769,948.689,361.769L948.689,361.769z"/>
	<polygon class="st48" points="1088.699,622.962 1361.046,583.612 1200.67,1046.938 1678.501,977.273 1471.187,1219.606 
		847.167,1312.054 	"/>
	<linearGradient id="SVGID_48_" gradientUnits="userSpaceOnUse" x1="1357.4452" y1="858.9885" x2="311.4632" y2="1704.326">
		<stop  offset="0" style="stop-color:#FFFFFF"/>
		<stop  offset="1" style="stop-color:#C6C6C6"/>
	</linearGradient>
	<polygon class="st49" points="1121.112,662.196 911.585,1258.83 1442.163,1178.312 1577.554,1029.645 1136.254,1100.163 
		1296.63,636.837 	"/>
	<path class="st48" d="M546.602,1222.895c-89.528,12.935-198.76,5.698-249.687-53.401c-27.71-32.158-42.795-83.01-38.478-145.252
		c6.387-92.083,30.755-146.931,101.716-229.025c137.195-158.717,287.987-189.49,358.128-199.624
		c3.583-0.518,6.633-0.914,9.112-1.234c1.261-0.162,2.313-0.298,3.158-0.42c22.651-3.273,389.033-50.101,389.033-50.101
		l-61.176,180.481l84.935-10.867L994.95,1158.117L546.602,1222.895z"/>
	<linearGradient id="SVGID_49_" gradientUnits="userSpaceOnUse" x1="801.205" y1="845.6513" x2="-400.9537" y2="2044.189">
		<stop  offset="0" style="stop-color:#FFFFFF"/>
		<stop  offset="1" style="stop-color:#C6C6C6"/>
	</linearGradient>
	<path class="st50" d="M1013.804,728.165l-328.458,47.456c0,0-151.18,30.963-193.287,154.356
		c-45.027,131.949,117.802,110.165,117.802,110.165l230.699-33.332l25.738-74.358l-296.694,42.867L715.951,835.82l365.516-52.814
		l-117.027,338.092c0,0-334.366,48.309-402.743,58.189s-179.001,9.757-226.73-45.632c-43.674-50.683-56.999-183.777,59.34-318.182
		c141.423-163.386,298.497-174.653,321.15-177.926s347.138-50.336,347.138-50.336L1013.804,728.165z"/>
	<g>
		<g>
			<linearGradient id="SVGID_50_" gradientUnits="userSpaceOnUse" x1="1077.2539" y1="278.8946" x2="1225.7156" y2="278.8946">
				<stop  offset="0" style="stop-color:#F7C13B"/>
				<stop  offset="1" style="stop-color:#ED8918"/>
			</linearGradient>
			<path class="st51" d="M1219.258,256.457l-40.888-3.867c-2.574-0.234-4.8-1.87-5.857-4.336l-14.644-35.493
				c-2.34-5.857-10.658-5.857-13.002,0l-14.53,35.493c-0.933,2.466-3.277,4.102-5.857,4.336l-40.882,3.867
				c-6.092,0.583-8.552,8.202-3.982,12.298l30.809,27.062c1.991,1.763,2.809,4.336,2.226,6.916l-9.255,37.954
				c-1.407,5.978,5.039,10.896,10.428,7.733l34.086-20.031c2.23-1.293,4.925-1.293,7.151,0l34.086,20.031
				c5.395,3.163,11.835-1.642,10.428-7.733l-9.135-37.954c-0.589-2.58,0.234-5.153,2.224-6.916l30.81-27.062
				C1227.924,264.659,1225.35,257.04,1219.258,256.457L1219.258,256.457z M1219.258,256.457"/>
		</g>
	</g>
	<g>
		<g>
			<linearGradient id="SVGID_51_" gradientUnits="userSpaceOnUse" x1="1251.3041" y1="355.6238" x2="1399.7657" y2="355.6238">
				<stop  offset="0" style="stop-color:#F7C13B"/>
				<stop  offset="1" style="stop-color:#ED8918"/>
			</linearGradient>
			<path class="st52" d="M1393.308,333.187l-40.888-3.867c-2.574-0.234-4.8-1.87-5.857-4.336l-14.644-35.493
				c-2.34-5.857-10.658-5.857-13.002,0l-14.53,35.493c-0.933,2.466-3.277,4.102-5.857,4.336l-40.882,3.867
				c-6.092,0.583-8.552,8.202-3.982,12.298l30.809,27.062c1.992,1.763,2.809,4.336,2.226,6.916l-9.255,37.954
				c-1.407,5.978,5.039,10.896,10.428,7.733l34.086-20.031c2.23-1.293,4.925-1.293,7.151,0l34.086,20.031
				c5.395,3.163,11.835-1.642,10.428-7.733l-9.135-37.954c-0.589-2.58,0.234-5.153,2.224-6.916l30.81-27.062
				C1401.974,341.389,1399.4,333.769,1393.308,333.187L1393.308,333.187z M1393.308,333.187"/>
		</g>
	</g>
	<g>
		<g>
			<linearGradient id="SVGID_52_" gradientUnits="userSpaceOnUse" x1="665.3484" y1="278.8946" x2="813.8099" y2="278.8946">
				<stop  offset="0" style="stop-color:#F7C13B"/>
				<stop  offset="1" style="stop-color:#ED8918"/>
			</linearGradient>
			<path class="st53" d="M807.352,256.457l-40.888-3.867c-2.574-0.234-4.8-1.87-5.857-4.336l-14.644-35.493
				c-2.34-5.857-10.658-5.857-13.002,0l-14.53,35.493c-0.933,2.466-3.277,4.102-5.857,4.336l-40.882,3.867
				c-6.092,0.583-8.552,8.202-3.982,12.298l30.809,27.062c1.992,1.763,2.809,4.336,2.226,6.916l-9.255,37.954
				c-1.407,5.978,5.039,10.896,10.428,7.733l34.086-20.031c2.23-1.293,4.925-1.293,7.151,0l34.086,20.031
				c5.395,3.163,11.835-1.642,10.428-7.733l-9.135-37.954c-0.589-2.58,0.234-5.153,2.224-6.916l30.81-27.062
				C816.018,264.659,813.444,257.04,807.352,256.457L807.352,256.457z M807.352,256.457"/>
		</g>
	</g>
	<g>
		<g>
			<linearGradient id="SVGID_53_" gradientUnits="userSpaceOnUse" x1="490.0681" y1="355.6238" x2="638.5297" y2="355.6238">
				<stop  offset="0" style="stop-color:#F7C13B"/>
				<stop  offset="1" style="stop-color:#ED8918"/>
			</linearGradient>
			<path class="st54" d="M632.072,333.187l-40.888-3.867c-2.574-0.234-4.8-1.87-5.857-4.336l-14.644-35.493
				c-2.34-5.857-10.658-5.857-13.002,0l-14.53,35.493c-0.933,2.466-3.277,4.102-5.857,4.336l-40.882,3.867
				c-6.092,0.583-8.552,8.202-3.982,12.298l30.809,27.062c1.992,1.763,2.809,4.336,2.226,6.916l-9.255,37.954
				c-1.407,5.978,5.039,10.896,10.428,7.733l34.086-20.031c2.23-1.293,4.925-1.293,7.151,0l34.086,20.031
				c5.395,3.163,11.835-1.642,10.428-7.733l-9.135-37.954c-0.589-2.58,0.234-5.153,2.224-6.916l30.81-27.062
				C640.738,341.389,638.164,333.769,632.072,333.187L632.072,333.187z M632.072,333.187"/>
		</g>
	</g>
	<g>
		<linearGradient id="SVGID_54_" gradientUnits="userSpaceOnUse" x1="204.9327" y1="1113.464" x2="1090.9152" y2="1113.464">
			<stop  offset="0" style="stop-color:#F7C13B"/>
			<stop  offset="1" style="stop-color:#ED8918"/>
		</linearGradient>
		<path class="st55" d="M1064.04,1786.189c0,0-92.38-107.174-307.939-141.938c-209.828-46.632-463.723-241.793-528.847-515.762
			c-75.45-271.384,51.532-555.128,213.849-687.751l5.985,6.035C288.623,580.19,168.027,860.212,244.509,1124.352
			c66.465,266.74,315.031,453.567,518.049,496.974c48.64,7.129,92.006,18.222,129.989,31.135
			c143.271,48.4,198.368,110.876,198.368,110.876L1064.04,1786.189z"/>
	</g>
	<g>
		<linearGradient id="SVGID_55_" gradientUnits="userSpaceOnUse" x1="811.3173" y1="1113.464" x2="1697.3003" y2="1113.464">
			<stop  offset="0" style="stop-color:#F7C13B"/>
			<stop  offset="1" style="stop-color:#ED8918"/>
		</linearGradient>
		<path class="st56" d="M838.198,1786.189c0,0,92.38-107.174,307.933-141.938c209.829-46.632,463.723-241.793,528.848-515.762
			c75.45-271.384-51.532-555.128-213.844-687.751l-5.985,6.035c158.465,133.416,279.082,413.439,202.574,677.578
			c-66.437,266.74-315.025,453.567-518.044,496.974c-48.645,7.129-92.006,18.222-129.988,31.135
			c-143.277,48.4-198.374,110.876-198.374,110.876L838.198,1786.189z"/>
	</g>
	<linearGradient id="SVGID_56_" gradientUnits="userSpaceOnUse" x1="335.365" y1="566.3774" x2="442.1553" y2="448.1452">
		<stop  offset="0" style="stop-color:#F7C13B"/>
		<stop  offset="1" style="stop-color:#ED8918"/>
	</linearGradient>
	<path class="st57" d="M343.21,548.403c0,0-2.127-58.999,48.639-84.833s27.854-10.731,63.072-31.223
		c0,0-27.271,53.427-30.977,79.291c-3.707,25.864-55.57,32.812-75.119,42.768C329.276,564.363,343.21,548.403,343.21,548.403z"/>
	<linearGradient id="SVGID_57_" gradientUnits="userSpaceOnUse" x1="1469.5085" y1="451.2333" x2="1566.3826" y2="575.5678">
		<stop  offset="0" style="stop-color:#F7C13B"/>
		<stop  offset="1" style="stop-color:#ED8918"/>
	</linearGradient>
	<path class="st58" d="M1559.171,548.403c0,0,2.127-58.999-48.639-84.833c-50.766-25.834-27.854-10.731-63.072-31.223
		c0,0,27.271,53.427,30.977,79.291c3.707,25.864,55.57,32.812,75.119,42.768C1573.105,564.363,1559.171,548.403,1559.171,548.403z"
		/>
</g>
</svg>
